<?xml version="1.0" encoding="utf-8"?>
<svg xmlns="http://www.w3.org/2000/svg" xmlns:xlink="http://www.w3.org/1999/xlink" width="600" height="400" viewBox="0 0 2400 1600">
<defs>
  <clipPath id="clip880">
    <rect x="0" y="0" width="2400" height="1600"/>
  </clipPath>
</defs>
<path clip-path="url(#clip880)" d="M0 1600 L2400 1600 L2400 0 L0 0  Z" fill="#ffffff" fill-rule="evenodd" fill-opacity="1"/>
<defs>
  <clipPath id="clip881">
    <rect x="210" y="47" width="2143" height="1377"/>
  </clipPath>
</defs>
<path clip-path="url(#clip880)" d="M178.867 686.448 L2352.76 686.448 L2352.76 47.2441 L178.867 47.2441  Z" fill="#ffffff" fill-rule="evenodd" fill-opacity="1"/>
<defs>
  <clipPath id="clip882">
    <rect x="178" y="47" width="2175" height="640"/>
  </clipPath>
</defs>
<polyline clip-path="url(#clip882)" style="stroke:#000000; stroke-linecap:round; stroke-linejoin:round; stroke-width:2; stroke-opacity:0.1; fill:none" points="238.339,686.448 238.339,47.2441 "/>
<polyline clip-path="url(#clip882)" style="stroke:#000000; stroke-linecap:round; stroke-linejoin:round; stroke-width:2; stroke-opacity:0.1; fill:none" points="751.562,686.448 751.562,47.2441 "/>
<polyline clip-path="url(#clip882)" style="stroke:#000000; stroke-linecap:round; stroke-linejoin:round; stroke-width:2; stroke-opacity:0.1; fill:none" points="1264.78,686.448 1264.78,47.2441 "/>
<polyline clip-path="url(#clip882)" style="stroke:#000000; stroke-linecap:round; stroke-linejoin:round; stroke-width:2; stroke-opacity:0.1; fill:none" points="1778.01,686.448 1778.01,47.2441 "/>
<polyline clip-path="url(#clip882)" style="stroke:#000000; stroke-linecap:round; stroke-linejoin:round; stroke-width:2; stroke-opacity:0.1; fill:none" points="2291.23,686.448 2291.23,47.2441 "/>
<polyline clip-path="url(#clip882)" style="stroke:#000000; stroke-linecap:round; stroke-linejoin:round; stroke-width:2; stroke-opacity:0.1; fill:none" points="178.867,686.448 2352.76,686.448 "/>
<polyline clip-path="url(#clip882)" style="stroke:#000000; stroke-linecap:round; stroke-linejoin:round; stroke-width:2; stroke-opacity:0.1; fill:none" points="178.867,526.647 2352.76,526.647 "/>
<polyline clip-path="url(#clip882)" style="stroke:#000000; stroke-linecap:round; stroke-linejoin:round; stroke-width:2; stroke-opacity:0.1; fill:none" points="178.867,366.846 2352.76,366.846 "/>
<polyline clip-path="url(#clip882)" style="stroke:#000000; stroke-linecap:round; stroke-linejoin:round; stroke-width:2; stroke-opacity:0.1; fill:none" points="178.867,207.045 2352.76,207.045 "/>
<polyline clip-path="url(#clip882)" style="stroke:#000000; stroke-linecap:round; stroke-linejoin:round; stroke-width:2; stroke-opacity:0.1; fill:none" points="178.867,47.2441 2352.76,47.2441 "/>
<polyline clip-path="url(#clip880)" style="stroke:#000000; stroke-linecap:round; stroke-linejoin:round; stroke-width:4; stroke-opacity:1; fill:none" points="178.867,686.448 2352.76,686.448 "/>
<polyline clip-path="url(#clip880)" style="stroke:#000000; stroke-linecap:round; stroke-linejoin:round; stroke-width:4; stroke-opacity:1; fill:none" points="238.339,686.448 238.339,667.55 "/>
<polyline clip-path="url(#clip880)" style="stroke:#000000; stroke-linecap:round; stroke-linejoin:round; stroke-width:4; stroke-opacity:1; fill:none" points="751.562,686.448 751.562,667.55 "/>
<polyline clip-path="url(#clip880)" style="stroke:#000000; stroke-linecap:round; stroke-linejoin:round; stroke-width:4; stroke-opacity:1; fill:none" points="1264.78,686.448 1264.78,667.55 "/>
<polyline clip-path="url(#clip880)" style="stroke:#000000; stroke-linecap:round; stroke-linejoin:round; stroke-width:4; stroke-opacity:1; fill:none" points="1778.01,686.448 1778.01,667.55 "/>
<polyline clip-path="url(#clip880)" style="stroke:#000000; stroke-linecap:round; stroke-linejoin:round; stroke-width:4; stroke-opacity:1; fill:none" points="2291.23,686.448 2291.23,667.55 "/>
<path clip-path="url(#clip880)" d="M238.339 717.367 Q234.728 717.367 232.899 720.931 Q231.094 724.473 231.094 731.603 Q231.094 738.709 232.899 742.274 Q234.728 745.815 238.339 745.815 Q241.973 745.815 243.779 742.274 Q245.607 738.709 245.607 731.603 Q245.607 724.473 243.779 720.931 Q241.973 717.367 238.339 717.367 M238.339 713.663 Q244.149 713.663 247.205 718.269 Q250.283 722.853 250.283 731.603 Q250.283 740.329 247.205 744.936 Q244.149 749.519 238.339 749.519 Q232.529 749.519 229.45 744.936 Q226.395 740.329 226.395 731.603 Q226.395 722.853 229.45 718.269 Q232.529 713.663 238.339 713.663 Z" fill="#000000" fill-rule="nonzero" fill-opacity="1" /><path clip-path="url(#clip880)" d="M715.254 744.913 L731.574 744.913 L731.574 748.848 L709.629 748.848 L709.629 744.913 Q712.291 742.158 716.875 737.528 Q721.481 732.876 722.662 731.533 Q724.907 729.01 725.787 727.274 Q726.689 725.515 726.689 723.825 Q726.689 721.07 724.745 719.334 Q722.824 717.598 719.722 717.598 Q717.523 717.598 715.069 718.362 Q712.638 719.126 709.861 720.677 L709.861 715.955 Q712.685 714.82 715.138 714.242 Q717.592 713.663 719.629 713.663 Q725 713.663 728.194 716.348 Q731.388 719.033 731.388 723.524 Q731.388 725.654 730.578 727.575 Q729.791 729.473 727.685 732.066 Q727.106 732.737 724.004 735.954 Q720.902 739.149 715.254 744.913 Z" fill="#000000" fill-rule="nonzero" fill-opacity="1" /><path clip-path="url(#clip880)" d="M741.435 714.288 L759.791 714.288 L759.791 718.223 L745.717 718.223 L745.717 726.695 Q746.736 726.348 747.754 726.186 Q748.773 726.001 749.791 726.001 Q755.578 726.001 758.958 729.172 Q762.337 732.343 762.337 737.76 Q762.337 743.339 758.865 746.44 Q755.393 749.519 749.073 749.519 Q746.898 749.519 744.629 749.149 Q742.384 748.778 739.976 748.038 L739.976 743.339 Q742.06 744.473 744.282 745.028 Q746.504 745.584 748.981 745.584 Q752.985 745.584 755.323 743.478 Q757.661 741.371 757.661 737.76 Q757.661 734.149 755.323 732.042 Q752.985 729.936 748.981 729.936 Q747.106 729.936 745.231 730.353 Q743.379 730.769 741.435 731.649 L741.435 714.288 Z" fill="#000000" fill-rule="nonzero" fill-opacity="1" /><path clip-path="url(#clip880)" d="M781.55 717.367 Q777.939 717.367 776.11 720.931 Q774.305 724.473 774.305 731.603 Q774.305 738.709 776.11 742.274 Q777.939 745.815 781.55 745.815 Q785.184 745.815 786.99 742.274 Q788.819 738.709 788.819 731.603 Q788.819 724.473 786.99 720.931 Q785.184 717.367 781.55 717.367 M781.55 713.663 Q787.36 713.663 790.416 718.269 Q793.495 722.853 793.495 731.603 Q793.495 740.329 790.416 744.936 Q787.36 749.519 781.55 749.519 Q775.74 749.519 772.661 744.936 Q769.606 740.329 769.606 731.603 Q769.606 722.853 772.661 718.269 Q775.74 713.663 781.55 713.663 Z" fill="#000000" fill-rule="nonzero" fill-opacity="1" /><path clip-path="url(#clip880)" d="M1224.4 714.288 L1242.76 714.288 L1242.76 718.223 L1228.69 718.223 L1228.69 726.695 Q1229.7 726.348 1230.72 726.186 Q1231.74 726.001 1232.76 726.001 Q1238.55 726.001 1241.93 729.172 Q1245.31 732.343 1245.31 737.76 Q1245.31 743.339 1241.83 746.44 Q1238.36 749.519 1232.04 749.519 Q1229.87 749.519 1227.6 749.149 Q1225.35 748.778 1222.94 748.038 L1222.94 743.339 Q1225.03 744.473 1227.25 745.028 Q1229.47 745.584 1231.95 745.584 Q1235.95 745.584 1238.29 743.478 Q1240.63 741.371 1240.63 737.76 Q1240.63 734.149 1238.29 732.042 Q1235.95 729.936 1231.95 729.936 Q1230.07 729.936 1228.2 730.353 Q1226.35 730.769 1224.4 731.649 L1224.4 714.288 Z" fill="#000000" fill-rule="nonzero" fill-opacity="1" /><path clip-path="url(#clip880)" d="M1264.52 717.367 Q1260.91 717.367 1259.08 720.931 Q1257.27 724.473 1257.27 731.603 Q1257.27 738.709 1259.08 742.274 Q1260.91 745.815 1264.52 745.815 Q1268.15 745.815 1269.96 742.274 Q1271.79 738.709 1271.79 731.603 Q1271.79 724.473 1269.96 720.931 Q1268.15 717.367 1264.52 717.367 M1264.52 713.663 Q1270.33 713.663 1273.38 718.269 Q1276.46 722.853 1276.46 731.603 Q1276.46 740.329 1273.38 744.936 Q1270.33 749.519 1264.52 749.519 Q1258.71 749.519 1255.63 744.936 Q1252.57 740.329 1252.57 731.603 Q1252.57 722.853 1255.63 718.269 Q1258.71 713.663 1264.52 713.663 Z" fill="#000000" fill-rule="nonzero" fill-opacity="1" /><path clip-path="url(#clip880)" d="M1294.68 717.367 Q1291.07 717.367 1289.24 720.931 Q1287.44 724.473 1287.44 731.603 Q1287.44 738.709 1289.24 742.274 Q1291.07 745.815 1294.68 745.815 Q1298.31 745.815 1300.12 742.274 Q1301.95 738.709 1301.95 731.603 Q1301.95 724.473 1300.12 720.931 Q1298.31 717.367 1294.68 717.367 M1294.68 713.663 Q1300.49 713.663 1303.55 718.269 Q1306.62 722.853 1306.62 731.603 Q1306.62 740.329 1303.55 744.936 Q1300.49 749.519 1294.68 749.519 Q1288.87 749.519 1285.79 744.936 Q1282.74 740.329 1282.74 731.603 Q1282.74 722.853 1285.79 718.269 Q1288.87 713.663 1294.68 713.663 Z" fill="#000000" fill-rule="nonzero" fill-opacity="1" /><path clip-path="url(#clip880)" d="M1736.28 714.288 L1758.51 714.288 L1758.51 716.279 L1745.96 748.848 L1741.08 748.848 L1752.88 718.223 L1736.28 718.223 L1736.28 714.288 Z" fill="#000000" fill-rule="nonzero" fill-opacity="1" /><path clip-path="url(#clip880)" d="M1767.67 714.288 L1786.03 714.288 L1786.03 718.223 L1771.95 718.223 L1771.95 726.695 Q1772.97 726.348 1773.99 726.186 Q1775.01 726.001 1776.03 726.001 Q1781.82 726.001 1785.2 729.172 Q1788.57 732.343 1788.57 737.76 Q1788.57 743.339 1785.1 746.44 Q1781.63 749.519 1775.31 749.519 Q1773.14 749.519 1770.87 749.149 Q1768.62 748.778 1766.21 748.038 L1766.21 743.339 Q1768.3 744.473 1770.52 745.028 Q1772.74 745.584 1775.22 745.584 Q1779.22 745.584 1781.56 743.478 Q1783.9 741.371 1783.9 737.76 Q1783.9 734.149 1781.56 732.042 Q1779.22 729.936 1775.22 729.936 Q1773.34 729.936 1771.47 730.353 Q1769.62 730.769 1767.67 731.649 L1767.67 714.288 Z" fill="#000000" fill-rule="nonzero" fill-opacity="1" /><path clip-path="url(#clip880)" d="M1807.79 717.367 Q1804.18 717.367 1802.35 720.931 Q1800.54 724.473 1800.54 731.603 Q1800.54 738.709 1802.35 742.274 Q1804.18 745.815 1807.79 745.815 Q1811.42 745.815 1813.23 742.274 Q1815.06 738.709 1815.06 731.603 Q1815.06 724.473 1813.23 720.931 Q1811.42 717.367 1807.79 717.367 M1807.79 713.663 Q1813.6 713.663 1816.65 718.269 Q1819.73 722.853 1819.73 731.603 Q1819.73 740.329 1816.65 744.936 Q1813.6 749.519 1807.79 749.519 Q1801.98 749.519 1798.9 744.936 Q1795.84 740.329 1795.84 731.603 Q1795.84 722.853 1798.9 718.269 Q1801.98 713.663 1807.79 713.663 Z" fill="#000000" fill-rule="nonzero" fill-opacity="1" /><path clip-path="url(#clip880)" d="M2235.76 744.913 L2243.4 744.913 L2243.4 718.547 L2235.09 720.214 L2235.09 715.955 L2243.35 714.288 L2248.02 714.288 L2248.02 744.913 L2255.66 744.913 L2255.66 748.848 L2235.76 748.848 L2235.76 744.913 Z" fill="#000000" fill-rule="nonzero" fill-opacity="1" /><path clip-path="url(#clip880)" d="M2275.11 717.367 Q2271.5 717.367 2269.67 720.931 Q2267.86 724.473 2267.86 731.603 Q2267.86 738.709 2269.67 742.274 Q2271.5 745.815 2275.11 745.815 Q2278.74 745.815 2280.55 742.274 Q2282.38 738.709 2282.38 731.603 Q2282.38 724.473 2280.55 720.931 Q2278.74 717.367 2275.11 717.367 M2275.11 713.663 Q2280.92 713.663 2283.97 718.269 Q2287.05 722.853 2287.05 731.603 Q2287.05 740.329 2283.97 744.936 Q2280.92 749.519 2275.11 749.519 Q2269.3 749.519 2266.22 744.936 Q2263.16 740.329 2263.16 731.603 Q2263.16 722.853 2266.22 718.269 Q2269.3 713.663 2275.11 713.663 Z" fill="#000000" fill-rule="nonzero" fill-opacity="1" /><path clip-path="url(#clip880)" d="M2305.27 717.367 Q2301.66 717.367 2299.83 720.931 Q2298.02 724.473 2298.02 731.603 Q2298.02 738.709 2299.83 742.274 Q2301.66 745.815 2305.27 745.815 Q2308.9 745.815 2310.71 742.274 Q2312.54 738.709 2312.54 731.603 Q2312.54 724.473 2310.71 720.931 Q2308.9 717.367 2305.27 717.367 M2305.27 713.663 Q2311.08 713.663 2314.14 718.269 Q2317.21 722.853 2317.21 731.603 Q2317.21 740.329 2314.14 744.936 Q2311.08 749.519 2305.27 749.519 Q2299.46 749.519 2296.38 744.936 Q2293.33 740.329 2293.33 731.603 Q2293.33 722.853 2296.38 718.269 Q2299.46 713.663 2305.27 713.663 Z" fill="#000000" fill-rule="nonzero" fill-opacity="1" /><path clip-path="url(#clip880)" d="M2335.43 717.367 Q2331.82 717.367 2329.99 720.931 Q2328.19 724.473 2328.19 731.603 Q2328.19 738.709 2329.99 742.274 Q2331.82 745.815 2335.43 745.815 Q2339.07 745.815 2340.87 742.274 Q2342.7 738.709 2342.7 731.603 Q2342.7 724.473 2340.87 720.931 Q2339.07 717.367 2335.43 717.367 M2335.43 713.663 Q2341.24 713.663 2344.3 718.269 Q2347.38 722.853 2347.38 731.603 Q2347.38 740.329 2344.3 744.936 Q2341.24 749.519 2335.43 749.519 Q2329.62 749.519 2326.54 744.936 Q2323.49 740.329 2323.49 731.603 Q2323.49 722.853 2326.54 718.269 Q2329.62 713.663 2335.43 713.663 Z" fill="#000000" fill-rule="nonzero" fill-opacity="1" /><polyline clip-path="url(#clip880)" style="stroke:#000000; stroke-linecap:round; stroke-linejoin:round; stroke-width:4; stroke-opacity:1; fill:none" points="178.867,686.448 178.867,47.2441 "/>
<polyline clip-path="url(#clip880)" style="stroke:#000000; stroke-linecap:round; stroke-linejoin:round; stroke-width:4; stroke-opacity:1; fill:none" points="178.867,686.448 197.764,686.448 "/>
<polyline clip-path="url(#clip880)" style="stroke:#000000; stroke-linecap:round; stroke-linejoin:round; stroke-width:4; stroke-opacity:1; fill:none" points="178.867,526.647 197.764,526.647 "/>
<polyline clip-path="url(#clip880)" style="stroke:#000000; stroke-linecap:round; stroke-linejoin:round; stroke-width:4; stroke-opacity:1; fill:none" points="178.867,366.846 197.764,366.846 "/>
<polyline clip-path="url(#clip880)" style="stroke:#000000; stroke-linecap:round; stroke-linejoin:round; stroke-width:4; stroke-opacity:1; fill:none" points="178.867,207.045 197.764,207.045 "/>
<polyline clip-path="url(#clip880)" style="stroke:#000000; stroke-linecap:round; stroke-linejoin:round; stroke-width:4; stroke-opacity:1; fill:none" points="178.867,47.2441 197.764,47.2441 "/>
<path clip-path="url(#clip880)" d="M50.9921 686.899 L80.6679 686.899 L80.6679 690.834 L50.9921 690.834 L50.9921 686.899 Z" fill="#000000" fill-rule="nonzero" fill-opacity="1" /><path clip-path="url(#clip880)" d="M91.5706 699.793 L99.2095 699.793 L99.2095 673.427 L90.8993 675.094 L90.8993 670.835 L99.1632 669.168 L103.839 669.168 L103.839 699.793 L111.478 699.793 L111.478 703.728 L91.5706 703.728 L91.5706 699.793 Z" fill="#000000" fill-rule="nonzero" fill-opacity="1" /><path clip-path="url(#clip880)" d="M130.922 672.247 Q127.311 672.247 125.482 675.811 Q123.677 679.353 123.677 686.483 Q123.677 693.589 125.482 697.154 Q127.311 700.695 130.922 700.695 Q134.556 700.695 136.362 697.154 Q138.191 693.589 138.191 686.483 Q138.191 679.353 136.362 675.811 Q134.556 672.247 130.922 672.247 M130.922 668.543 Q136.732 668.543 139.788 673.149 Q142.867 677.733 142.867 686.483 Q142.867 695.209 139.788 699.816 Q136.732 704.399 130.922 704.399 Q125.112 704.399 122.033 699.816 Q118.978 695.209 118.978 686.483 Q118.978 677.733 122.033 673.149 Q125.112 668.543 130.922 668.543 Z" fill="#000000" fill-rule="nonzero" fill-opacity="1" /><path clip-path="url(#clip880)" d="M82.1494 527.098 L111.825 527.098 L111.825 531.033 L82.1494 531.033 L82.1494 527.098 Z" fill="#000000" fill-rule="nonzero" fill-opacity="1" /><path clip-path="url(#clip880)" d="M121.964 509.367 L140.32 509.367 L140.32 513.302 L126.246 513.302 L126.246 521.774 Q127.265 521.427 128.283 521.265 Q129.302 521.08 130.32 521.08 Q136.107 521.08 139.487 524.251 Q142.867 527.422 142.867 532.839 Q142.867 538.418 139.394 541.52 Q135.922 544.598 129.603 544.598 Q127.427 544.598 125.158 544.228 Q122.913 543.857 120.506 543.117 L120.506 538.418 Q122.589 539.552 124.811 540.108 Q127.033 540.663 129.51 540.663 Q133.515 540.663 135.853 538.557 Q138.191 536.45 138.191 532.839 Q138.191 529.228 135.853 527.121 Q133.515 525.015 129.51 525.015 Q127.635 525.015 125.76 525.432 Q123.908 525.848 121.964 526.728 L121.964 509.367 Z" fill="#000000" fill-rule="nonzero" fill-opacity="1" /><path clip-path="url(#clip880)" d="M130.922 352.645 Q127.311 352.645 125.482 356.209 Q123.677 359.751 123.677 366.881 Q123.677 373.987 125.482 377.552 Q127.311 381.094 130.922 381.094 Q134.556 381.094 136.362 377.552 Q138.191 373.987 138.191 366.881 Q138.191 359.751 136.362 356.209 Q134.556 352.645 130.922 352.645 M130.922 348.941 Q136.732 348.941 139.788 353.547 Q142.867 358.131 142.867 366.881 Q142.867 375.608 139.788 380.214 Q136.732 384.797 130.922 384.797 Q125.112 384.797 122.033 380.214 Q118.978 375.608 118.978 366.881 Q118.978 358.131 122.033 353.547 Q125.112 348.941 130.922 348.941 Z" fill="#000000" fill-rule="nonzero" fill-opacity="1" /><path clip-path="url(#clip880)" d="M121.964 189.765 L140.32 189.765 L140.32 193.7 L126.246 193.7 L126.246 202.172 Q127.265 201.825 128.283 201.663 Q129.302 201.478 130.32 201.478 Q136.107 201.478 139.487 204.649 Q142.867 207.82 142.867 213.237 Q142.867 218.816 139.394 221.918 Q135.922 224.996 129.603 224.996 Q127.427 224.996 125.158 224.626 Q122.913 224.256 120.506 223.515 L120.506 218.816 Q122.589 219.95 124.811 220.506 Q127.033 221.061 129.51 221.061 Q133.515 221.061 135.853 218.955 Q138.191 216.848 138.191 213.237 Q138.191 209.626 135.853 207.52 Q133.515 205.413 129.51 205.413 Q127.635 205.413 125.76 205.83 Q123.908 206.246 121.964 207.126 L121.964 189.765 Z" fill="#000000" fill-rule="nonzero" fill-opacity="1" /><path clip-path="url(#clip880)" d="M91.5706 60.5889 L99.2095 60.5889 L99.2095 34.2233 L90.8993 35.89 L90.8993 31.6308 L99.1632 29.9641 L103.839 29.9641 L103.839 60.5889 L111.478 60.5889 L111.478 64.5241 L91.5706 64.5241 L91.5706 60.5889 Z" fill="#000000" fill-rule="nonzero" fill-opacity="1" /><path clip-path="url(#clip880)" d="M130.922 33.0428 Q127.311 33.0428 125.482 36.6076 Q123.677 40.1492 123.677 47.2788 Q123.677 54.3853 125.482 57.9501 Q127.311 61.4917 130.922 61.4917 Q134.556 61.4917 136.362 57.9501 Q138.191 54.3853 138.191 47.2788 Q138.191 40.1492 136.362 36.6076 Q134.556 33.0428 130.922 33.0428 M130.922 29.3391 Q136.732 29.3391 139.788 33.9456 Q142.867 38.5289 142.867 47.2788 Q142.867 56.0056 139.788 60.6121 Q136.732 65.1954 130.922 65.1954 Q125.112 65.1954 122.033 60.6121 Q118.978 56.0056 118.978 47.2788 Q118.978 38.5289 122.033 33.9456 Q125.112 29.3391 130.922 29.3391 Z" fill="#000000" fill-rule="nonzero" fill-opacity="1" /><polyline clip-path="url(#clip882)" style="stroke:#009af9; stroke-linecap:round; stroke-linejoin:round; stroke-width:4; stroke-opacity:1; fill:none" points="240.392,334.886 242.445,336.208 244.498,346.098 246.55,308.392 248.603,306.598 250.656,297.48 252.709,298.944 254.762,297.839 256.815,321.035 258.868,329.321 260.921,323.089 262.974,323.88 265.027,323.623 267.079,326.645 269.132,325.373 271.185,325.344 273.238,324.187 275.291,322.318 277.344,322.253 279.397,322.462 281.45,320.952 283.503,329.455 285.555,354.586 287.608,307.796 289.661,308.045 291.714,391.525 293.767,391.094 295.82,373.709 297.873,363.247 299.926,371.245 301.979,371.239 304.031,373.325 306.084,371.625 308.137,375.203 310.19,374.834 312.243,375.028 314.296,372.38 316.349,373.007 318.402,372.211 320.455,368.054 322.507,369.499 324.56,366.468 326.613,352.457 328.666,350.231 330.719,349.377 332.772,355.407 334.825,353.918 336.878,353.672 338.931,349.752 340.984,350.656 343.036,350.674 345.089,349.52 347.142,350.09 349.195,350.647 351.248,351.592 353.301,346.216 355.354,339.932 357.407,343.376 359.46,343.134 361.512,343.129 363.565,342.87 365.618,349.51 367.671,349.333 369.724,359.736 371.777,359.785 373.83,343.906 375.883,340.454 377.936,341.047 379.988,341.283 382.041,341.301 384.094,341.392 386.147,324.828 388.2,330.017 390.253,327.844 392.306,321.544 394.359,335.588 396.412,337.852 398.464,341.785 400.517,341.514 402.57,382.197 404.623,380.189 406.676,380.027 408.729,376.116 410.782,380.806 412.835,384.269 414.888,385.04 416.94,385.452 418.993,385.391 421.046,384.725 423.099,383.773 425.152,379.737 427.205,379.864 429.258,377.106 431.311,379.451 433.364,380.26 435.417,380.237 437.469,379.82 439.522,377.344 441.575,404.826 443.628,404.384 445.681,404.276 447.734,408.37 449.787,401.025 451.84,401.024 453.893,402.303 455.945,403.462 457.998,403.557 460.051,405.801 462.104,401.593 464.157,401.342 466.21,395.06 468.263,395.141 470.316,392.823 472.369,395.06 474.421,382.345 476.474,383.56 478.527,376.145 480.58,378.067 482.633,379.659 484.686,379.156 486.739,377.252 488.792,367.194 490.845,367.53 492.897,370.193 494.95,370.221 497.003,360.348 499.056,349.145 501.109,362.159 503.162,362.352 505.215,362.683 507.268,356.551 509.321,357.612 511.374,367.696 513.426,365.561 515.479,365.52 517.532,357.721 519.585,360.983 521.638,360.997 523.691,354.102 525.744,355.882 527.797,356.256 529.85,356.206 531.902,356.174 533.955,358.431 536.008,356.461 538.061,358.273 540.114,357.081 542.167,364.384 544.22,365.329 546.273,374.227 548.326,372.43 550.378,366.201 552.431,369.092 554.484,371.548 556.537,357.383 558.59,355.122 560.643,384.054 562.696,384.057 564.749,376.447 566.802,370.399 568.854,370.732 570.907,370.864 572.96,381.594 575.013,370.658 577.066,379.483 579.119,377.14 581.172,374.183 583.225,373.698 585.278,393.774 587.331,406.654 589.383,406.672 591.436,398.743 593.489,368.309 595.542,368.672 597.595,372.763 599.648,369.296 601.701,368.991 603.754,327.322 605.807,342.985 607.859,345.06 609.912,329.062 611.965,329.09 614.018,332.57 616.071,328.672 618.124,379.502 620.177,381.724 622.23,381.795 624.283,382.274 626.335,394.936 628.388,394.692 630.441,396.13 632.494,396.139 634.547,393.884 636.6,392.645 638.653,400.594 640.706,400.674 642.759,384.255 644.811,385.34 646.864,379.068 648.917,334.223 650.97,301.463 653.023,271.637 655.076,279.96 657.129,279.671 659.182,286.149 661.235,285.518 663.288,322.798 665.34,321.403 667.393,321.377 669.446,319.261 671.499,329.735 673.552,392.853 675.605,399.661 677.658,400.658 679.711,395.913 681.764,395.262 683.816,394.855 685.869,361.779 687.922,370.138 689.975,332.564 692.028,330.383 694.081,363.896 696.134,363.79 698.187,366.636 700.24,356.163 702.292,400.066 704.345,390.555 706.398,392.767 708.451,317.944 710.504,320.098 712.557,367.875 714.61,366.493 716.663,369.436 718.716,317.456 720.768,317.3 722.821,317.06 724.874,316.118 726.927,437.249 728.98,416.817 731.033,416.866 733.086,421.776 735.139,459.877 737.192,404.55 739.245,457.365 741.297,456.154 743.35,432.996 745.403,433.082 747.456,454.24 749.509,479.57 751.562,446.571 753.615,339.684 755.668,402.729 757.721,439.07 759.773,434.953 761.826,434.262 763.879,426.917 765.932,424.03 767.985,440.349 770.038,399.039 772.091,362.207 774.144,393.103 776.197,511.436 778.249,528.862 780.302,514.5 782.355,236.563 784.408,236.75 786.461,228.147 788.514,229.445 790.567,265.324 792.62,476.064 794.673,432.031 796.725,481.065 798.778,485.555 800.831,477.241 802.884,475.675 804.937,478.481 806.99,471.129 809.043,473.447 811.096,499.003 813.149,439.966 815.202,437.104 817.254,428.835 819.307,428.847 821.36,296.198 823.413,301.823 825.466,264.791 827.519,253.583 829.572,244.737 831.625,294.725 833.678,402.814 835.73,409.402 837.783,410.683 839.836,366.254 841.889,383.119 843.942,385.112 845.995,385.139 848.048,385.312 850.101,377.095 852.154,371.686 854.206,372.62 856.259,373.545 858.312,372.956 860.365,390.586 862.418,390.449 864.471,391.382 866.524,392.403 868.577,400.809 870.63,410.215 872.682,411.176 874.735,411.575 876.788,409.078 878.841,442.859 880.894,441.536 882.947,439.348 885,448.229 887.053,448.028 889.106,391.937 891.159,378.893 893.211,378.363 895.264,415.324 897.317,415.268 899.37,404.177 901.423,404.03 903.476,373.278 905.529,392.063 907.582,392.118 909.635,391.685 911.687,377.904 913.74,378.031 915.793,378.135 917.846,374.854 919.899,375.146 921.952,368.613 924.005,369.014 926.058,370.518 928.111,357.501 930.163,357.054 932.216,359.263 934.269,360.312 936.322,361.638 938.375,359.025 940.428,368.487 942.481,376.22 944.534,350.812 946.587,348.759 948.639,370.619 950.692,370.59 952.745,363.782 954.798,362.811 956.851,362.595 958.904,362.673 960.957,360.899 963.01,362.49 965.063,362.724 967.116,344.427 969.168,343.211 971.221,341.871 973.274,342.393 975.327,342.47 977.38,353.568 979.433,355.651 981.486,355.823 983.539,355.891 985.592,354.667 987.644,349.767 989.697,350.508 991.75,350.021 993.803,360.033 995.856,354.55 997.909,359.219 999.962,358.825 1002.01,350.469 1004.07,350.445 1006.12,354.214 1008.17,390.259 1010.23,390.331 1012.28,390.736 1014.33,387.647 1016.38,387.642 1018.44,387.649 1020.49,381.391 1022.54,380.863 1024.6,380.983 1026.65,381.919 1028.7,381.906 1030.76,380.307 1032.81,380.18 1034.86,370.7 1036.91,377.125 1038.97,390.776 1041.02,397.113 1043.07,395.275 1045.13,397.94 1047.18,394.594 1049.23,401.067 1051.28,401.123 1053.34,401.322 1055.39,392.884 1057.44,392.806 1059.5,381.306 1061.55,434.62 1063.6,443.7 1065.65,454.027 1067.71,458.433 1069.76,460.218 1071.81,455.764 1073.87,458.536 1075.92,299.04 1077.97,299.185 1080.02,344.235 1082.08,347.863 1084.13,350.876 1086.18,352.455 1088.24,341.277 1090.29,340.229 1092.34,332.933 1094.39,334.657 1096.45,336.918 1098.5,339.423 1100.55,345.997 1102.61,332.102 1104.66,332.964 1106.71,338.887 1108.77,335.995 1110.82,340.892 1112.87,338.295 1114.92,337.211 1116.98,240.725 1119.03,292.61 1121.08,389.139 1123.14,390.4 1125.19,406.391 1127.24,407.447 1129.29,403.863 1131.35,403.82 1133.4,393.491 1135.45,386.427 1137.51,308.7 1139.56,306.479 1141.61,370.502 1143.66,369.763 1145.72,366.005 1147.77,365.758 1149.82,374.562 1151.88,308.752 1153.93,308.735 1155.98,320.617 1158.03,314.111 1160.09,333.402 1162.14,333.147 1164.19,335.307 1166.25,335.308 1168.3,335.316 1170.35,336.805 1172.4,337.738 1174.46,336.808 1176.51,341.742 1178.56,356.733 1180.62,335.727 1182.67,336.556 1184.72,330.83 1186.77,284.476 1188.83,276.908 1190.88,283.103 1192.93,415.341 1194.99,386.746 1197.04,381.504 1199.09,394.455 1201.15,405.797 1203.2,409.747 1205.25,353.224 1207.3,375.144 1209.36,385.693 1211.41,396.619 1213.46,391.492 1215.52,392.949 1217.57,384.694 1219.62,385.09 1221.67,401.794 1223.73,401.297 1225.78,402.618 1227.83,404.43 1229.89,409.884 1231.94,375.096 1233.99,375.513 1236.04,375.511 1238.1,379.217 1240.15,376.174 1242.2,392.044 1244.26,386.433 1246.31,381.674 1248.36,463.081 1250.41,462.845 1252.47,460.426 1254.52,424.186 1256.57,422.979 1258.63,407.457 1260.68,409.654 1262.73,408.623 1264.78,399.816 1266.84,409.017 1268.89,407.499 1270.94,418.152 1273,417.959 1275.05,416.627 1277.1,413.801 1279.16,414.461 1281.21,400.404 1283.26,400.521 1285.31,378.164 1287.37,378.16 1289.42,371.72 1291.47,371.635 1293.53,362.891 1295.58,363.122 1297.63,361.957 1299.68,379.446 1301.74,381.049 1303.79,383.961 1305.84,383.004 1307.9,308.217 1309.95,307.832 1312,301.526 1314.05,318.163 1316.11,314.508 1318.16,425.88 1320.21,418.292 1322.27,415.828 1324.32,419.333 1326.37,417.688 1328.42,351.879 1330.48,441.242 1332.53,441.259 1334.58,432.157 1336.64,355.331 1338.69,352.441 1340.74,304.158 1342.79,307.463 1344.85,294.758 1346.9,278.251 1348.95,165.325 1351.01,-4.49998 1353.06,-61.864 1355.11,75.5279 1357.16,165.048 1359.22,160.042 1361.27,165.969 1363.32,204.856 1365.38,199.296 1367.43,209.217 1369.48,230.491 1371.54,259.591 1373.59,250.009 1375.64,-39.7989 1377.69,-26.4975 1379.75,297.568 1381.8,344.73 1383.85,378.934 1385.91,391.819 1387.96,376.814 1390.01,377.382 1392.06,375.787 1394.12,412.656 1396.17,488.601 1398.22,431.057 1400.28,424.238 1402.33,431.037 1404.38,433.842 1406.43,412.586 1408.49,490.675 1410.54,533.845 1412.59,552.903 1414.65,452.719 1416.7,323.464 1418.75,409.154 1420.8,415.698 1422.86,489.266 1424.91,467.773 1426.96,163.723 1429.02,161.716 1431.07,160.831 1433.12,245.361 1435.17,264.314 1437.23,267.336 1439.28,281.424 1441.33,269.065 1443.39,328.174 1445.44,324.306 1447.49,324.141 1449.55,62.1388 1451.6,-18.3441 1453.65,-18.9573 1455.7,-38.8574 1457.76,145.638 1459.81,-49.8342 1461.86,42.4976 1463.92,40.3478 1465.97,500.017 1468.02,332.487 1470.07,325.003 1472.13,306.35 1474.18,306.335 1476.23,486.032 1478.29,400.784 1480.34,294.678 1482.39,203.213 1484.44,211.871 1486.5,134.154 1488.55,150.459 1490.6,140.341 1492.66,141.078 1494.71,151.953 1496.76,185.322 1498.81,112.766 1500.87,110.095 1502.92,109.376 1504.97,107.32 1507.03,100.768 1509.08,23.9972 1511.13,31.1256 1513.18,-0.767854 1515.24,159.954 1517.29,200.056 1519.34,318.47 1521.4,319.656 1523.45,306.303 1525.5,197.856 1527.55,159.295 1529.61,158.787 1531.66,180.469 1533.71,239.442 1535.77,203.353 1537.82,248.156 1539.87,521.25 1541.93,167.451 1543.98,369.817 1546.03,401.587 1548.08,401.65 1550.14,372.266 1552.19,408.771 1554.24,409.134 1556.3,475.778 1558.35,475.992 1560.4,476.83 1562.45,485.237 1564.51,397.72 1566.56,434.462 1568.61,478.306 1570.67,468.337 1572.72,463.2 1574.77,402.932 1576.82,403.232 1578.88,261.913 1580.93,254.659 1582.98,256.106 1585.04,346.754 1587.09,325.244 1589.14,398.91 1591.19,408.889 1593.25,402.399 1595.3,404.759 1597.35,405.656 1599.41,403.763 1601.46,400.642 1603.51,400.143 1605.56,439.195 1607.62,443.572 1609.67,400.049 1611.72,355.786 1613.78,355.64 1615.83,362.668 1617.88,354.164 1619.94,349.595 1621.99,371.268 1624.04,372.399 1626.09,372.505 1628.15,372.57 1630.2,307.928 1632.25,306.055 1634.31,287.626 1636.36,306.882 1638.41,264.894 1640.46,460.263 1642.52,457.743 1644.57,357.235 1646.62,390.898 1648.68,419.498 1650.73,416.785 1652.78,382.999 1654.83,554.941 1656.89,328.931 1658.94,359.361 1660.99,488.043 1663.05,366.394 1665.1,339.146 1667.15,338.581 1669.2,475.56 1671.26,515.381 1673.31,492.881 1675.36,455.514 1677.42,480.159 1679.47,476.478 1681.52,348.522 1683.57,344.451 1685.63,344.285 1687.68,337.144 1689.73,311.445 1691.79,441.638 1693.84,442.183 1695.89,449.276 1697.94,425.584 1700,454.239 1702.05,552.489 1704.1,471 1706.16,463.66 1708.21,470.264 1710.26,520.351 1712.32,603.106 1714.37,732.86 1716.42,915.148 1718.47,867.25 1720.53,868.072 1722.58,759.624 1724.63,831.722 1726.69,503.736 1728.74,527.745 1730.79,638.38 1732.84,424.198 1734.9,254.79 1736.95,562.191 1739,649.989 1741.06,715.569 1743.11,684.533 1745.16,655.501 1747.21,675.44 1749.27,630.538 1751.32,265.995 1753.37,275.878 1755.43,293.011 1757.48,266.263 1759.53,267.886 1761.58,269.494 1763.64,280.885 1765.69,183.47 1767.74,181.067 1769.8,147.101 1771.85,138.429 1773.9,170.746 1775.95,163.472 1778.01,170.638 1780.06,169.498 1782.11,-4.58312 1784.17,-104.348 1786.22,-189.659 1788.27,-138.318 1790.33,-159.36 1792.38,-129.478 1794.43,-267.875 1796.48,-266.88 1798.54,-185.915 1800.59,-125.817 1802.64,-82.7595 1804.7,-14.348 1806.75,165.614 1808.8,134.112 1810.85,109.562 1812.91,74.9989 1814.96,102.698 1817.01,626.972 1819.07,604.611 1821.12,475.826 1823.17,466.888 1825.22,522.824 1827.28,522.876 1829.33,485.39 1831.38,565.851 1833.44,606.455 1835.49,610.536 1837.54,611.735 1839.59,456.705 1841.65,443.906 1843.7,436.726 1845.75,666.997 1847.81,666.95 1849.86,642.829 1851.91,494.616 1853.96,477.857 1856.02,448.321 1858.07,276.838 1860.12,302.529 1862.18,321.126 1864.23,232.502 1866.28,481.985 1868.34,380.472 1870.39,386.709 1872.44,303.471 1874.49,190.186 1876.55,432.171 1878.6,252.266 1880.65,256.647 1882.71,586.18 1884.76,543.985 1886.81,666.115 1888.86,703.147 1890.92,-59.7933 1892.97,-40.8199 1895.02,92.2189 1897.08,-9.87257 1899.13,145.791 1901.18,192.48 1903.23,335.708 1905.29,369.131 1907.34,295.406 1909.39,583.988 1911.45,411.002 1913.5,428.804 1915.55,422.605 1917.6,390.3 1919.66,392.055 1921.71,415.174 1923.76,424.118 1925.82,363.725 1927.87,405.961 1929.92,353.835 1931.97,368.09 1934.03,470.527 1936.08,287.878 1938.13,445.449 1940.19,442.182 1942.24,484.912 1944.29,479.507 1946.34,479.07 1948.4,363.788 1950.45,342.152 1952.5,308.461 1954.56,265.318 1956.61,-249.252 1958.66,-233.694 1960.72,-240.233 1962.77,-153.615 1964.82,-147.488 1966.87,-231.15 1968.93,-191.371 1970.98,-202.622 1973.03,158.208 1975.09,145.357 1977.14,603.417 1979.19,564.997 1981.24,582.014 1983.3,627.296 1985.35,628.656 1987.4,399.675 1989.46,350.604 1991.51,716.34 1993.56,711.461 1995.61,632.711 1997.67,470.853 1999.72,462.163 2001.77,527.558 2003.83,511.371 2005.88,657.597 2007.93,667.11 2009.98,661.743 2012.04,589.241 2014.09,488.062 2016.14,494.189 2018.2,486.711 2020.25,493.349 2022.3,485.464 2024.35,500.642 2026.41,453.548 2028.46,397.469 2030.51,333.508 2032.57,330.453 2034.62,168.157 2036.67,201.927 2038.73,356.721 2040.78,400.521 2042.83,404.707 2044.88,401.127 2046.94,343.259 2048.99,337.213 2051.04,337.596 2053.1,337.898 2055.15,182.346 2057.2,189.264 2059.25,184.602 2061.31,180.843 2063.36,181.766 2065.41,179.632 2067.47,168.475 2069.52,155.304 2071.57,153.202 2073.62,196.775 2075.68,199.568 2077.73,214.06 2079.78,235.668 2081.84,236.721 2083.89,275.942 2085.94,257.902 2087.99,284.193 2090.05,269.28 2092.1,232.05 2094.15,293.166 2096.21,298.469 2098.26,295.142 2100.31,295.033 2102.36,295.876 2104.42,335.315 2106.47,345.973 2108.52,338.32 2110.58,291.913 2112.63,281.577 2114.68,246.973 2116.73,294.846 2118.79,294.45 2120.84,299.339 2122.89,335.542 2124.95,417.822 2127,391.193 2129.05,463.405 2131.11,464.428 2133.16,461.024 2135.21,483.038 2137.26,483.049 2139.32,442.465 2141.37,449.124 2143.42,506.247 2145.48,485.497 2147.53,512.928 2149.58,472.7 2151.63,455.907 2153.69,394.525 2155.74,405.112 2157.79,396.982 2159.85,373.518 2161.9,399.476 2163.95,402.117 2166,410.96 2168.06,446.104 2170.11,515.919 2172.16,499.803 2174.22,485.155 2176.27,481.186 2178.32,482.646 2180.37,478.757 2182.43,467.987 2184.48,469.677 2186.53,468.448 2188.59,464.926 2190.64,431.868 2192.69,431.666 2194.74,412.385 2196.8,411.516 2198.85,407.574 2200.9,416.062 2202.96,380.512 2205.01,380.507 2207.06,380.659 2209.12,375.553 2211.17,369.311 2213.22,339.877 2215.27,345.744 2217.33,351.013 2219.38,373.082 2221.43,371.022 2223.49,386.058 2225.54,384.821 2227.59,384.743 2229.64,390.741 2231.7,390.321 2233.75,390.391 2235.8,394.666 2237.86,390.062 2239.91,390.061 2241.96,378.99 2244.01,405.142 2246.07,346.851 2248.12,402.312 2250.17,403.68 2252.23,414.4 2254.28,371.667 2256.33,367.818 2258.38,327.383 2260.44,342.111 2262.49,409.121 2264.54,411.058 2266.6,371.285 2268.65,420.032 2270.7,400.975 2272.75,315.089 2274.81,297.477 2276.86,292.568 2278.91,331.335 2280.97,330.759 2283.02,331.15 2285.07,366.391 2287.12,369.446 2289.18,369.446 2291.23,372.703 "/>
<path clip-path="url(#clip880)" d="M251.33 172.231 L548.024 172.231 L548.024 68.5509 L251.33 68.5509  Z" fill="#ffffff" fill-rule="evenodd" fill-opacity="1"/>
<polyline clip-path="url(#clip880)" style="stroke:#000000; stroke-linecap:round; stroke-linejoin:round; stroke-width:4; stroke-opacity:1; fill:none" points="251.33,172.231 548.024,172.231 548.024,68.5509 251.33,68.5509 251.33,172.231 "/>
<polyline clip-path="url(#clip880)" style="stroke:#009af9; stroke-linecap:round; stroke-linejoin:round; stroke-width:4; stroke-opacity:1; fill:none" points="275.484,120.391 420.41,120.391 "/>
<path clip-path="url(#clip880)" d="M444.564 103.111 L449.24 103.111 L449.24 133.736 L466.069 133.736 L466.069 137.671 L444.564 137.671 L444.564 103.111 Z" fill="#000000" fill-rule="nonzero" fill-opacity="1" /><path clip-path="url(#clip880)" d="M491.694 104.245 L491.694 108.805 Q489.032 107.532 486.67 106.907 Q484.309 106.282 482.11 106.282 Q478.291 106.282 476.208 107.764 Q474.147 109.245 474.147 111.977 Q474.147 114.268 475.513 115.449 Q476.902 116.606 480.745 117.324 L483.569 117.902 Q488.8 118.898 491.277 121.421 Q493.777 123.921 493.777 128.134 Q493.777 133.157 490.397 135.75 Q487.041 138.342 480.536 138.342 Q478.083 138.342 475.305 137.787 Q472.55 137.231 469.587 136.143 L469.587 131.328 Q472.434 132.926 475.166 133.736 Q477.897 134.546 480.536 134.546 Q484.541 134.546 486.717 132.972 Q488.893 131.398 488.893 128.481 Q488.893 125.935 487.319 124.5 Q485.768 123.064 482.203 122.347 L479.356 121.791 Q474.124 120.75 471.786 118.527 Q469.448 116.305 469.448 112.347 Q469.448 107.764 472.666 105.125 Q475.907 102.486 481.578 102.486 Q484.008 102.486 486.532 102.926 Q489.055 103.366 491.694 104.245 Z" fill="#000000" fill-rule="nonzero" fill-opacity="1" /><path clip-path="url(#clip880)" d="M521.786 104.245 L521.786 108.805 Q519.124 107.532 516.763 106.907 Q514.402 106.282 512.203 106.282 Q508.383 106.282 506.3 107.764 Q504.24 109.245 504.24 111.977 Q504.24 114.268 505.606 115.449 Q506.994 116.606 510.837 117.324 L513.661 117.902 Q518.893 118.898 521.369 121.421 Q523.869 123.921 523.869 128.134 Q523.869 133.157 520.49 135.75 Q517.133 138.342 510.629 138.342 Q508.175 138.342 505.397 137.787 Q502.643 137.231 499.68 136.143 L499.68 131.328 Q502.527 132.926 505.258 133.736 Q507.99 134.546 510.629 134.546 Q514.633 134.546 516.809 132.972 Q518.985 131.398 518.985 128.481 Q518.985 125.935 517.411 124.5 Q515.86 123.064 512.295 122.347 L509.448 121.791 Q504.217 120.75 501.879 118.527 Q499.541 116.305 499.541 112.347 Q499.541 107.764 502.758 105.125 Q505.999 102.486 511.67 102.486 Q514.101 102.486 516.624 102.926 Q519.147 103.366 521.786 104.245 Z" fill="#000000" fill-rule="nonzero" fill-opacity="1" /><path clip-path="url(#clip880)" d="M178.867 1486.45 L2352.76 1486.45 L2352.76 847.244 L178.867 847.244  Z" fill="#ffffff" fill-rule="evenodd" fill-opacity="1"/>
<defs>
  <clipPath id="clip883">
    <rect x="178" y="847" width="2175" height="640"/>
  </clipPath>
</defs>
<polyline clip-path="url(#clip883)" style="stroke:#000000; stroke-linecap:round; stroke-linejoin:round; stroke-width:2; stroke-opacity:0.1; fill:none" points="238.339,1486.45 238.339,847.244 "/>
<polyline clip-path="url(#clip883)" style="stroke:#000000; stroke-linecap:round; stroke-linejoin:round; stroke-width:2; stroke-opacity:0.1; fill:none" points="751.562,1486.45 751.562,847.244 "/>
<polyline clip-path="url(#clip883)" style="stroke:#000000; stroke-linecap:round; stroke-linejoin:round; stroke-width:2; stroke-opacity:0.1; fill:none" points="1264.78,1486.45 1264.78,847.244 "/>
<polyline clip-path="url(#clip883)" style="stroke:#000000; stroke-linecap:round; stroke-linejoin:round; stroke-width:2; stroke-opacity:0.1; fill:none" points="1778.01,1486.45 1778.01,847.244 "/>
<polyline clip-path="url(#clip883)" style="stroke:#000000; stroke-linecap:round; stroke-linejoin:round; stroke-width:2; stroke-opacity:0.1; fill:none" points="2291.23,1486.45 2291.23,847.244 "/>
<polyline clip-path="url(#clip883)" style="stroke:#000000; stroke-linecap:round; stroke-linejoin:round; stroke-width:2; stroke-opacity:0.1; fill:none" points="178.867,1486.45 2352.76,1486.45 "/>
<polyline clip-path="url(#clip883)" style="stroke:#000000; stroke-linecap:round; stroke-linejoin:round; stroke-width:2; stroke-opacity:0.1; fill:none" points="178.867,1326.65 2352.76,1326.65 "/>
<polyline clip-path="url(#clip883)" style="stroke:#000000; stroke-linecap:round; stroke-linejoin:round; stroke-width:2; stroke-opacity:0.1; fill:none" points="178.867,1166.85 2352.76,1166.85 "/>
<polyline clip-path="url(#clip883)" style="stroke:#000000; stroke-linecap:round; stroke-linejoin:round; stroke-width:2; stroke-opacity:0.1; fill:none" points="178.867,1007.05 2352.76,1007.05 "/>
<polyline clip-path="url(#clip883)" style="stroke:#000000; stroke-linecap:round; stroke-linejoin:round; stroke-width:2; stroke-opacity:0.1; fill:none" points="178.867,847.244 2352.76,847.244 "/>
<polyline clip-path="url(#clip880)" style="stroke:#000000; stroke-linecap:round; stroke-linejoin:round; stroke-width:4; stroke-opacity:1; fill:none" points="178.867,1486.45 2352.76,1486.45 "/>
<polyline clip-path="url(#clip880)" style="stroke:#000000; stroke-linecap:round; stroke-linejoin:round; stroke-width:4; stroke-opacity:1; fill:none" points="238.339,1486.45 238.339,1467.55 "/>
<polyline clip-path="url(#clip880)" style="stroke:#000000; stroke-linecap:round; stroke-linejoin:round; stroke-width:4; stroke-opacity:1; fill:none" points="751.562,1486.45 751.562,1467.55 "/>
<polyline clip-path="url(#clip880)" style="stroke:#000000; stroke-linecap:round; stroke-linejoin:round; stroke-width:4; stroke-opacity:1; fill:none" points="1264.78,1486.45 1264.78,1467.55 "/>
<polyline clip-path="url(#clip880)" style="stroke:#000000; stroke-linecap:round; stroke-linejoin:round; stroke-width:4; stroke-opacity:1; fill:none" points="1778.01,1486.45 1778.01,1467.55 "/>
<polyline clip-path="url(#clip880)" style="stroke:#000000; stroke-linecap:round; stroke-linejoin:round; stroke-width:4; stroke-opacity:1; fill:none" points="2291.23,1486.45 2291.23,1467.55 "/>
<path clip-path="url(#clip880)" d="M238.339 1517.37 Q234.728 1517.37 232.899 1520.93 Q231.094 1524.47 231.094 1531.6 Q231.094 1538.71 232.899 1542.27 Q234.728 1545.82 238.339 1545.82 Q241.973 1545.82 243.779 1542.27 Q245.607 1538.71 245.607 1531.6 Q245.607 1524.47 243.779 1520.93 Q241.973 1517.37 238.339 1517.37 M238.339 1513.66 Q244.149 1513.66 247.205 1518.27 Q250.283 1522.85 250.283 1531.6 Q250.283 1540.33 247.205 1544.94 Q244.149 1549.52 238.339 1549.52 Q232.529 1549.52 229.45 1544.94 Q226.395 1540.33 226.395 1531.6 Q226.395 1522.85 229.45 1518.27 Q232.529 1513.66 238.339 1513.66 Z" fill="#000000" fill-rule="nonzero" fill-opacity="1" /><path clip-path="url(#clip880)" d="M715.254 1544.91 L731.574 1544.91 L731.574 1548.85 L709.629 1548.85 L709.629 1544.91 Q712.291 1542.16 716.875 1537.53 Q721.481 1532.88 722.662 1531.53 Q724.907 1529.01 725.787 1527.27 Q726.689 1525.51 726.689 1523.82 Q726.689 1521.07 724.745 1519.33 Q722.824 1517.6 719.722 1517.6 Q717.523 1517.6 715.069 1518.36 Q712.638 1519.13 709.861 1520.68 L709.861 1515.95 Q712.685 1514.82 715.138 1514.24 Q717.592 1513.66 719.629 1513.66 Q725 1513.66 728.194 1516.35 Q731.388 1519.03 731.388 1523.52 Q731.388 1525.65 730.578 1527.57 Q729.791 1529.47 727.685 1532.07 Q727.106 1532.74 724.004 1535.95 Q720.902 1539.15 715.254 1544.91 Z" fill="#000000" fill-rule="nonzero" fill-opacity="1" /><path clip-path="url(#clip880)" d="M741.435 1514.29 L759.791 1514.29 L759.791 1518.22 L745.717 1518.22 L745.717 1526.7 Q746.736 1526.35 747.754 1526.19 Q748.773 1526 749.791 1526 Q755.578 1526 758.958 1529.17 Q762.337 1532.34 762.337 1537.76 Q762.337 1543.34 758.865 1546.44 Q755.393 1549.52 749.073 1549.52 Q746.898 1549.52 744.629 1549.15 Q742.384 1548.78 739.976 1548.04 L739.976 1543.34 Q742.06 1544.47 744.282 1545.03 Q746.504 1545.58 748.981 1545.58 Q752.985 1545.58 755.323 1543.48 Q757.661 1541.37 757.661 1537.76 Q757.661 1534.15 755.323 1532.04 Q752.985 1529.94 748.981 1529.94 Q747.106 1529.94 745.231 1530.35 Q743.379 1530.77 741.435 1531.65 L741.435 1514.29 Z" fill="#000000" fill-rule="nonzero" fill-opacity="1" /><path clip-path="url(#clip880)" d="M781.55 1517.37 Q777.939 1517.37 776.11 1520.93 Q774.305 1524.47 774.305 1531.6 Q774.305 1538.71 776.11 1542.27 Q777.939 1545.82 781.55 1545.82 Q785.184 1545.82 786.99 1542.27 Q788.819 1538.71 788.819 1531.6 Q788.819 1524.47 786.99 1520.93 Q785.184 1517.37 781.55 1517.37 M781.55 1513.66 Q787.36 1513.66 790.416 1518.27 Q793.495 1522.85 793.495 1531.6 Q793.495 1540.33 790.416 1544.94 Q787.36 1549.52 781.55 1549.52 Q775.74 1549.52 772.661 1544.94 Q769.606 1540.33 769.606 1531.6 Q769.606 1522.85 772.661 1518.27 Q775.74 1513.66 781.55 1513.66 Z" fill="#000000" fill-rule="nonzero" fill-opacity="1" /><path clip-path="url(#clip880)" d="M1224.4 1514.29 L1242.76 1514.29 L1242.76 1518.22 L1228.69 1518.22 L1228.69 1526.7 Q1229.7 1526.35 1230.72 1526.19 Q1231.74 1526 1232.76 1526 Q1238.55 1526 1241.93 1529.17 Q1245.31 1532.34 1245.31 1537.76 Q1245.31 1543.34 1241.83 1546.44 Q1238.36 1549.52 1232.04 1549.52 Q1229.87 1549.52 1227.6 1549.15 Q1225.35 1548.78 1222.94 1548.04 L1222.94 1543.34 Q1225.03 1544.47 1227.25 1545.03 Q1229.47 1545.58 1231.95 1545.58 Q1235.95 1545.58 1238.29 1543.48 Q1240.63 1541.37 1240.63 1537.76 Q1240.63 1534.15 1238.29 1532.04 Q1235.95 1529.94 1231.95 1529.94 Q1230.07 1529.94 1228.2 1530.35 Q1226.35 1530.77 1224.4 1531.65 L1224.4 1514.29 Z" fill="#000000" fill-rule="nonzero" fill-opacity="1" /><path clip-path="url(#clip880)" d="M1264.52 1517.37 Q1260.91 1517.37 1259.08 1520.93 Q1257.27 1524.47 1257.27 1531.6 Q1257.27 1538.71 1259.08 1542.27 Q1260.91 1545.82 1264.52 1545.82 Q1268.15 1545.82 1269.96 1542.27 Q1271.79 1538.71 1271.79 1531.6 Q1271.79 1524.47 1269.96 1520.93 Q1268.15 1517.37 1264.52 1517.37 M1264.52 1513.66 Q1270.33 1513.66 1273.38 1518.27 Q1276.46 1522.85 1276.46 1531.6 Q1276.46 1540.33 1273.38 1544.94 Q1270.33 1549.52 1264.52 1549.52 Q1258.71 1549.52 1255.63 1544.94 Q1252.57 1540.33 1252.57 1531.6 Q1252.57 1522.85 1255.63 1518.27 Q1258.71 1513.66 1264.52 1513.66 Z" fill="#000000" fill-rule="nonzero" fill-opacity="1" /><path clip-path="url(#clip880)" d="M1294.68 1517.37 Q1291.07 1517.37 1289.24 1520.93 Q1287.44 1524.47 1287.44 1531.6 Q1287.44 1538.71 1289.24 1542.27 Q1291.07 1545.82 1294.68 1545.82 Q1298.31 1545.82 1300.12 1542.27 Q1301.95 1538.71 1301.95 1531.6 Q1301.95 1524.47 1300.12 1520.93 Q1298.31 1517.37 1294.68 1517.37 M1294.68 1513.66 Q1300.49 1513.66 1303.55 1518.27 Q1306.62 1522.85 1306.62 1531.6 Q1306.62 1540.33 1303.55 1544.94 Q1300.49 1549.52 1294.68 1549.52 Q1288.87 1549.52 1285.79 1544.94 Q1282.74 1540.33 1282.74 1531.6 Q1282.74 1522.85 1285.79 1518.27 Q1288.87 1513.66 1294.68 1513.66 Z" fill="#000000" fill-rule="nonzero" fill-opacity="1" /><path clip-path="url(#clip880)" d="M1736.28 1514.29 L1758.51 1514.29 L1758.51 1516.28 L1745.96 1548.85 L1741.08 1548.85 L1752.88 1518.22 L1736.28 1518.22 L1736.28 1514.29 Z" fill="#000000" fill-rule="nonzero" fill-opacity="1" /><path clip-path="url(#clip880)" d="M1767.67 1514.29 L1786.03 1514.29 L1786.03 1518.22 L1771.95 1518.22 L1771.95 1526.7 Q1772.97 1526.35 1773.99 1526.19 Q1775.01 1526 1776.03 1526 Q1781.82 1526 1785.2 1529.17 Q1788.57 1532.34 1788.57 1537.76 Q1788.57 1543.34 1785.1 1546.44 Q1781.63 1549.52 1775.31 1549.52 Q1773.14 1549.52 1770.87 1549.15 Q1768.62 1548.78 1766.21 1548.04 L1766.21 1543.34 Q1768.3 1544.47 1770.52 1545.03 Q1772.74 1545.58 1775.22 1545.58 Q1779.22 1545.58 1781.56 1543.48 Q1783.9 1541.37 1783.9 1537.76 Q1783.9 1534.15 1781.56 1532.04 Q1779.22 1529.94 1775.22 1529.94 Q1773.34 1529.94 1771.47 1530.35 Q1769.62 1530.77 1767.67 1531.65 L1767.67 1514.29 Z" fill="#000000" fill-rule="nonzero" fill-opacity="1" /><path clip-path="url(#clip880)" d="M1807.79 1517.37 Q1804.18 1517.37 1802.35 1520.93 Q1800.54 1524.47 1800.54 1531.6 Q1800.54 1538.71 1802.35 1542.27 Q1804.18 1545.82 1807.79 1545.82 Q1811.42 1545.82 1813.23 1542.27 Q1815.06 1538.71 1815.06 1531.6 Q1815.06 1524.47 1813.23 1520.93 Q1811.42 1517.37 1807.79 1517.37 M1807.79 1513.66 Q1813.6 1513.66 1816.65 1518.27 Q1819.73 1522.85 1819.73 1531.6 Q1819.73 1540.33 1816.65 1544.94 Q1813.6 1549.52 1807.79 1549.52 Q1801.98 1549.52 1798.9 1544.94 Q1795.84 1540.33 1795.84 1531.6 Q1795.84 1522.85 1798.9 1518.27 Q1801.98 1513.66 1807.79 1513.66 Z" fill="#000000" fill-rule="nonzero" fill-opacity="1" /><path clip-path="url(#clip880)" d="M2235.76 1544.91 L2243.4 1544.91 L2243.4 1518.55 L2235.09 1520.21 L2235.09 1515.95 L2243.35 1514.29 L2248.02 1514.29 L2248.02 1544.91 L2255.66 1544.91 L2255.66 1548.85 L2235.76 1548.85 L2235.76 1544.91 Z" fill="#000000" fill-rule="nonzero" fill-opacity="1" /><path clip-path="url(#clip880)" d="M2275.11 1517.37 Q2271.5 1517.37 2269.67 1520.93 Q2267.86 1524.47 2267.86 1531.6 Q2267.86 1538.71 2269.67 1542.27 Q2271.5 1545.82 2275.11 1545.82 Q2278.74 1545.82 2280.55 1542.27 Q2282.38 1538.71 2282.38 1531.6 Q2282.38 1524.47 2280.55 1520.93 Q2278.74 1517.37 2275.11 1517.37 M2275.11 1513.66 Q2280.92 1513.66 2283.97 1518.27 Q2287.05 1522.85 2287.05 1531.6 Q2287.05 1540.33 2283.97 1544.94 Q2280.92 1549.52 2275.11 1549.52 Q2269.3 1549.52 2266.22 1544.94 Q2263.16 1540.33 2263.16 1531.6 Q2263.16 1522.85 2266.22 1518.27 Q2269.3 1513.66 2275.11 1513.66 Z" fill="#000000" fill-rule="nonzero" fill-opacity="1" /><path clip-path="url(#clip880)" d="M2305.27 1517.37 Q2301.66 1517.37 2299.83 1520.93 Q2298.02 1524.47 2298.02 1531.6 Q2298.02 1538.71 2299.83 1542.27 Q2301.66 1545.82 2305.27 1545.82 Q2308.9 1545.82 2310.71 1542.27 Q2312.54 1538.71 2312.54 1531.6 Q2312.54 1524.47 2310.71 1520.93 Q2308.9 1517.37 2305.27 1517.37 M2305.27 1513.66 Q2311.08 1513.66 2314.14 1518.27 Q2317.21 1522.85 2317.21 1531.6 Q2317.21 1540.33 2314.14 1544.94 Q2311.08 1549.52 2305.27 1549.52 Q2299.46 1549.52 2296.38 1544.94 Q2293.33 1540.33 2293.33 1531.6 Q2293.33 1522.85 2296.38 1518.27 Q2299.46 1513.66 2305.27 1513.66 Z" fill="#000000" fill-rule="nonzero" fill-opacity="1" /><path clip-path="url(#clip880)" d="M2335.43 1517.37 Q2331.82 1517.37 2329.99 1520.93 Q2328.19 1524.47 2328.19 1531.6 Q2328.19 1538.71 2329.99 1542.27 Q2331.82 1545.82 2335.43 1545.82 Q2339.07 1545.82 2340.87 1542.27 Q2342.7 1538.71 2342.7 1531.6 Q2342.7 1524.47 2340.87 1520.93 Q2339.07 1517.37 2335.43 1517.37 M2335.43 1513.66 Q2341.24 1513.66 2344.3 1518.27 Q2347.38 1522.85 2347.38 1531.6 Q2347.38 1540.33 2344.3 1544.94 Q2341.24 1549.52 2335.43 1549.52 Q2329.62 1549.52 2326.54 1544.94 Q2323.49 1540.33 2323.49 1531.6 Q2323.49 1522.85 2326.54 1518.27 Q2329.62 1513.66 2335.43 1513.66 Z" fill="#000000" fill-rule="nonzero" fill-opacity="1" /><polyline clip-path="url(#clip880)" style="stroke:#000000; stroke-linecap:round; stroke-linejoin:round; stroke-width:4; stroke-opacity:1; fill:none" points="178.867,1486.45 178.867,847.244 "/>
<polyline clip-path="url(#clip880)" style="stroke:#000000; stroke-linecap:round; stroke-linejoin:round; stroke-width:4; stroke-opacity:1; fill:none" points="178.867,1486.45 197.764,1486.45 "/>
<polyline clip-path="url(#clip880)" style="stroke:#000000; stroke-linecap:round; stroke-linejoin:round; stroke-width:4; stroke-opacity:1; fill:none" points="178.867,1326.65 197.764,1326.65 "/>
<polyline clip-path="url(#clip880)" style="stroke:#000000; stroke-linecap:round; stroke-linejoin:round; stroke-width:4; stroke-opacity:1; fill:none" points="178.867,1166.85 197.764,1166.85 "/>
<polyline clip-path="url(#clip880)" style="stroke:#000000; stroke-linecap:round; stroke-linejoin:round; stroke-width:4; stroke-opacity:1; fill:none" points="178.867,1007.05 197.764,1007.05 "/>
<polyline clip-path="url(#clip880)" style="stroke:#000000; stroke-linecap:round; stroke-linejoin:round; stroke-width:4; stroke-opacity:1; fill:none" points="178.867,847.244 197.764,847.244 "/>
<path clip-path="url(#clip880)" d="M50.9921 1486.9 L80.6679 1486.9 L80.6679 1490.83 L50.9921 1490.83 L50.9921 1486.9 Z" fill="#000000" fill-rule="nonzero" fill-opacity="1" /><path clip-path="url(#clip880)" d="M91.5706 1499.79 L99.2095 1499.79 L99.2095 1473.43 L90.8993 1475.09 L90.8993 1470.83 L99.1632 1469.17 L103.839 1469.17 L103.839 1499.79 L111.478 1499.79 L111.478 1503.73 L91.5706 1503.73 L91.5706 1499.79 Z" fill="#000000" fill-rule="nonzero" fill-opacity="1" /><path clip-path="url(#clip880)" d="M130.922 1472.25 Q127.311 1472.25 125.482 1475.81 Q123.677 1479.35 123.677 1486.48 Q123.677 1493.59 125.482 1497.15 Q127.311 1500.7 130.922 1500.7 Q134.556 1500.7 136.362 1497.15 Q138.191 1493.59 138.191 1486.48 Q138.191 1479.35 136.362 1475.81 Q134.556 1472.25 130.922 1472.25 M130.922 1468.54 Q136.732 1468.54 139.788 1473.15 Q142.867 1477.73 142.867 1486.48 Q142.867 1495.21 139.788 1499.82 Q136.732 1504.4 130.922 1504.4 Q125.112 1504.4 122.033 1499.82 Q118.978 1495.21 118.978 1486.48 Q118.978 1477.73 122.033 1473.15 Q125.112 1468.54 130.922 1468.54 Z" fill="#000000" fill-rule="nonzero" fill-opacity="1" /><path clip-path="url(#clip880)" d="M82.1494 1327.1 L111.825 1327.1 L111.825 1331.03 L82.1494 1331.03 L82.1494 1327.1 Z" fill="#000000" fill-rule="nonzero" fill-opacity="1" /><path clip-path="url(#clip880)" d="M121.964 1309.37 L140.32 1309.37 L140.32 1313.3 L126.246 1313.3 L126.246 1321.77 Q127.265 1321.43 128.283 1321.27 Q129.302 1321.08 130.32 1321.08 Q136.107 1321.08 139.487 1324.25 Q142.867 1327.42 142.867 1332.84 Q142.867 1338.42 139.394 1341.52 Q135.922 1344.6 129.603 1344.6 Q127.427 1344.6 125.158 1344.23 Q122.913 1343.86 120.506 1343.12 L120.506 1338.42 Q122.589 1339.55 124.811 1340.11 Q127.033 1340.66 129.51 1340.66 Q133.515 1340.66 135.853 1338.56 Q138.191 1336.45 138.191 1332.84 Q138.191 1329.23 135.853 1327.12 Q133.515 1325.01 129.51 1325.01 Q127.635 1325.01 125.76 1325.43 Q123.908 1325.85 121.964 1326.73 L121.964 1309.37 Z" fill="#000000" fill-rule="nonzero" fill-opacity="1" /><path clip-path="url(#clip880)" d="M130.922 1152.64 Q127.311 1152.64 125.482 1156.21 Q123.677 1159.75 123.677 1166.88 Q123.677 1173.99 125.482 1177.55 Q127.311 1181.09 130.922 1181.09 Q134.556 1181.09 136.362 1177.55 Q138.191 1173.99 138.191 1166.88 Q138.191 1159.75 136.362 1156.21 Q134.556 1152.64 130.922 1152.64 M130.922 1148.94 Q136.732 1148.94 139.788 1153.55 Q142.867 1158.13 142.867 1166.88 Q142.867 1175.61 139.788 1180.21 Q136.732 1184.8 130.922 1184.8 Q125.112 1184.8 122.033 1180.21 Q118.978 1175.61 118.978 1166.88 Q118.978 1158.13 122.033 1153.55 Q125.112 1148.94 130.922 1148.94 Z" fill="#000000" fill-rule="nonzero" fill-opacity="1" /><path clip-path="url(#clip880)" d="M121.964 989.765 L140.32 989.765 L140.32 993.7 L126.246 993.7 L126.246 1002.17 Q127.265 1001.83 128.283 1001.66 Q129.302 1001.48 130.32 1001.48 Q136.107 1001.48 139.487 1004.65 Q142.867 1007.82 142.867 1013.24 Q142.867 1018.82 139.394 1021.92 Q135.922 1025 129.603 1025 Q127.427 1025 125.158 1024.63 Q122.913 1024.26 120.506 1023.51 L120.506 1018.82 Q122.589 1019.95 124.811 1020.51 Q127.033 1021.06 129.51 1021.06 Q133.515 1021.06 135.853 1018.95 Q138.191 1016.85 138.191 1013.24 Q138.191 1009.63 135.853 1007.52 Q133.515 1005.41 129.51 1005.41 Q127.635 1005.41 125.76 1005.83 Q123.908 1006.25 121.964 1007.13 L121.964 989.765 Z" fill="#000000" fill-rule="nonzero" fill-opacity="1" /><path clip-path="url(#clip880)" d="M91.5706 860.589 L99.2095 860.589 L99.2095 834.223 L90.8993 835.89 L90.8993 831.631 L99.1632 829.964 L103.839 829.964 L103.839 860.589 L111.478 860.589 L111.478 864.524 L91.5706 864.524 L91.5706 860.589 Z" fill="#000000" fill-rule="nonzero" fill-opacity="1" /><path clip-path="url(#clip880)" d="M130.922 833.043 Q127.311 833.043 125.482 836.608 Q123.677 840.149 123.677 847.279 Q123.677 854.385 125.482 857.95 Q127.311 861.492 130.922 861.492 Q134.556 861.492 136.362 857.95 Q138.191 854.385 138.191 847.279 Q138.191 840.149 136.362 836.608 Q134.556 833.043 130.922 833.043 M130.922 829.339 Q136.732 829.339 139.788 833.946 Q142.867 838.529 142.867 847.279 Q142.867 856.006 139.788 860.612 Q136.732 865.195 130.922 865.195 Q125.112 865.195 122.033 860.612 Q118.978 856.006 118.978 847.279 Q118.978 838.529 122.033 833.946 Q125.112 829.339 130.922 829.339 Z" fill="#000000" fill-rule="nonzero" fill-opacity="1" /><polyline clip-path="url(#clip883)" style="stroke:#009af9; stroke-linecap:round; stroke-linejoin:round; stroke-width:4; stroke-opacity:1; fill:none" points="240.392,1134.89 242.445,1110.46 244.498,1172.89 246.55,1204.61 248.603,1185.33 250.656,1107.19 252.709,1228.51 254.762,1147.69 256.815,1222.5 258.868,1205.79 260.921,1056.79 262.974,1134.25 265.027,1084.98 267.079,1099.27 269.132,1164.03 271.185,1173.93 273.238,1213.62 275.291,1172.72 277.344,1175.11 279.397,1206.1 281.45,1242.83 283.503,1281.44 285.555,1218.52 287.608,1215.56 289.661,1428.42 291.714,1103.61 293.767,1289.01 295.82,1233.02 297.873,1185.96 299.926,1152.63 301.979,1155.82 304.031,1178.5 306.084,1184.48 308.137,1186.33 310.19,1157.86 312.243,1164.69 314.296,1159.58 316.349,1245.75 318.402,1046.09 320.455,993.155 322.507,1136.09 324.56,1137.72 326.613,1045.76 328.666,810.957 330.719,1353.88 332.772,1154.88 334.825,1065.33 336.878,1262.32 338.931,1171.74 340.984,1103.3 343.036,1267.65 345.089,1190.9 347.142,1433.65 349.195,1053.39 351.248,1173.32 353.301,1233.03 355.354,1073.95 357.407,1266.74 359.46,974.651 361.512,1096.4 363.565,1246.03 365.618,1077.65 367.671,1230.5 369.724,1229.61 371.777,1202.09 373.83,1188.52 375.883,1129.45 377.936,1190.83 379.988,1088.56 382.041,1177.95 384.094,1153.13 386.147,1223.89 388.2,994.884 390.253,705.626 392.306,1086.37 394.359,1094.81 396.412,1115.98 398.464,1173.59 400.517,1153.53 402.57,1153.36 404.623,1163.22 406.676,1129.98 408.729,1075.94 410.782,1127.18 412.835,1127.93 414.888,1212.02 416.94,1162.69 418.993,1143.77 421.046,1208.96 423.099,1239.55 425.152,1217.94 427.205,1181.12 429.258,1164.01 431.311,1324.43 433.364,850.853 435.417,1234.3 437.469,1187.88 439.522,1140.39 441.575,1196.95 443.628,1158.81 445.681,1189.71 447.734,1304.57 449.787,1082.42 451.84,1095.9 453.893,1133.71 455.945,1256.01 457.998,1127.46 460.051,1256.53 462.104,1201.67 464.157,1085.2 466.21,1186.85 468.263,1159.48 470.316,1163.06 472.369,1151.98 474.421,1104.64 476.474,1332.53 478.527,1103.22 480.58,1213.71 482.633,1158.31 484.686,1206.55 486.739,1098.51 488.792,1227.14 490.845,1140.99 492.897,1199.78 494.95,1235.41 497.003,1227.76 499.056,1197.62 501.109,1195.51 503.162,1175.46 505.215,1053.32 507.268,1199.29 509.321,1276.09 511.374,1135.82 513.426,1095.54 515.479,1152.7 517.532,1092.57 519.585,1548.16 521.638,1726.06 523.691,918.213 525.744,1274.01 527.797,1180.03 529.85,1217.48 531.902,1242.75 533.955,1139.23 536.008,868.665 538.061,1092.46 540.114,648.573 542.167,1013.78 544.22,1240.75 546.273,1299.27 548.326,1113.67 550.378,1145.08 552.431,1245.76 554.484,1031.09 556.537,1246.2 558.59,1180.44 560.643,1131.54 562.696,1164.99 564.749,1089.94 566.802,1014.61 568.854,1374.98 570.907,514.189 572.96,4173.37 575.013,366.124 577.066,1173.68 579.119,1265.84 581.172,1039.02 583.225,1497.75 585.278,1330.87 587.331,1088.13 589.383,1210.78 591.436,1609.73 593.489,885.793 595.542,1195.32 597.595,1239.86 599.648,1165.89 601.701,1280.98 603.754,1398.95 605.807,988.875 607.859,1292.42 609.912,1065.99 611.965,1177.91 614.018,1177.74 616.071,1157.14 618.124,1136.44 620.177,1131.28 622.23,1216.7 624.283,1200.7 626.335,1162.05 628.388,1147.53 630.441,1153.67 632.494,1159.35 634.547,1114.26 636.6,1106.04 638.653,1175.89 640.706,1130.08 642.759,1189.77 644.811,1195.21 646.864,1139.97 648.917,1145.51 650.97,1165.5 653.023,1376.45 655.076,1166.9 657.129,1170.81 659.182,1179.49 661.235,1139.11 663.288,1293.65 665.34,1259.04 667.393,1202.95 669.446,1188.25 671.499,1185.68 673.552,1133.69 675.605,1063.38 677.658,1056.63 679.711,1130.11 681.764,1179.44 683.816,1164.04 685.869,1348.64 687.922,1151.47 689.975,988.719 692.028,1080.95 694.081,1230.12 696.134,1173.03 698.187,1166.18 700.24,1170 702.292,1164.4 704.345,1152.93 706.398,979.99 708.451,1464.73 710.504,1276.4 712.557,1263.39 714.61,1280.36 716.663,1183.9 718.716,1202.16 720.768,1144.88 722.821,1165.72 724.874,1054.83 726.927,1151.14 728.98,1176.81 731.033,1154.06 733.086,1210.35 735.139,1155.37 737.192,1164.31 739.245,1216.03 741.297,1166.91 743.35,1163.1 745.403,1138.51 747.456,1159.5 749.509,1146.06 751.562,1175.02 753.615,1171.26 755.668,1178.82 757.721,1238.79 759.773,1169.49 761.826,1180.73 763.879,1168.47 765.932,1191.17 767.985,729.711 770.038,1087.62 772.091,864.07 774.144,2415.01 776.197,2628.35 778.249,3189.36 780.302,498.917 782.355,1192.37 784.408,1173.43 786.461,1210.17 788.514,946.736 790.567,896.103 792.62,831.086 794.673,1069.29 796.725,293.023 798.778,1438.73 800.831,991.289 802.884,1221.45 804.937,1202.67 806.99,1288.19 809.043,1140.17 811.096,1253.4 813.149,1134.55 815.202,1162.46 817.254,1093.07 819.307,1130.89 821.36,1411.01 823.413,781.521 825.466,735.116 827.519,1268.54 829.572,1171.28 831.625,1189.94 833.678,1138.32 835.73,1228.05 837.783,1012 839.836,1141.17 841.889,1087.32 843.942,1060.98 845.995,1001.97 848.048,1140.34 850.101,1122.79 852.154,1212.49 854.206,1180.91 856.259,1143.33 858.312,1131.43 860.365,1197.09 862.418,1207.24 864.471,1185.53 866.524,1156.03 868.577,1033.37 870.63,1187.89 872.682,1155.82 874.735,1248.42 876.788,1064.33 878.841,1283.19 880.894,1158.94 882.947,1165.48 885,1184.34 887.053,1167.57 889.106,1173.13 891.159,1180.88 893.211,1366.05 895.264,1188.09 897.317,1152.86 899.37,1166.39 901.423,1165.62 903.476,1155.4 905.529,1224.05 907.582,1216.58 909.635,1152.81 911.687,1200.01 913.74,1078.46 915.793,1193.19 917.846,1170.39 919.899,1164.6 921.952,1192.32 924.005,1117.51 926.058,1261.34 928.111,1123.91 930.163,1198.45 932.216,1148.28 934.269,1124.45 936.322,1188.42 938.375,1197.27 940.428,1212.28 942.481,1152.04 944.534,1201.7 946.587,1191.31 948.639,1158.62 950.692,832.931 952.745,899.157 954.798,1364.77 956.851,1131.88 958.904,1194.38 960.957,1286.97 963.01,1177.23 965.063,1166.61 967.116,1168.36 969.168,1189.19 971.221,1142.08 973.274,1258.8 975.327,1319.04 977.38,-1485.85 979.433,-396.504 981.486,616.031 983.539,1315.4 985.592,1102.32 987.644,1174.41 989.697,1183.4 991.75,589.161 993.803,1731.89 995.856,1702.81 997.909,1201.24 999.962,1161.31 1002.01,1153.89 1004.07,1135.83 1006.12,1255.71 1008.17,1112.06 1010.23,1170.08 1012.28,1186.04 1014.33,1120.88 1016.38,1181.7 1018.44,1158.92 1020.49,1155.01 1022.54,1158 1024.6,1154.75 1026.65,1156.46 1028.7,1150.14 1030.76,1179.72 1032.81,1221.58 1034.86,1152.35 1036.91,1183.96 1038.97,1190.94 1041.02,1179.35 1043.07,1146 1045.13,1172.38 1047.18,1116.64 1049.23,1123.34 1051.28,1147.88 1053.34,1192.27 1055.39,1209.47 1057.44,1169.67 1059.5,1177.83 1061.55,1193.54 1063.6,1185.36 1065.65,1156.11 1067.71,1156.83 1069.76,1148.48 1071.81,1150.44 1073.87,1168.6 1075.92,1118.16 1077.97,1223.11 1080.02,1094.41 1082.08,1185.84 1084.13,1127.33 1086.18,1133.84 1088.24,1181.12 1090.29,1118.34 1092.34,1069.71 1094.39,1078.28 1096.45,1140.92 1098.5,1169.37 1100.55,1169.82 1102.61,1118.68 1104.66,1111.64 1106.71,1213.6 1108.77,1114.07 1110.82,1191.88 1112.87,1194.93 1114.92,1172.18 1116.98,1181.94 1119.03,1143.78 1121.08,1134.21 1123.14,1132.78 1125.19,1177.14 1127.24,1199.12 1129.29,1163.5 1131.35,1136.65 1133.4,1198.1 1135.45,1180.23 1137.51,1154.32 1139.56,1164.77 1141.61,1182.09 1143.66,1211.38 1145.72,1292.77 1147.77,1200.38 1149.82,1112.81 1151.88,1165.44 1153.93,1154.89 1155.98,1190.38 1158.03,1232.25 1160.09,1100.55 1162.14,1271.92 1164.19,1197.71 1166.25,1248.11 1168.3,1143.67 1170.35,1194.55 1172.4,1180.93 1174.46,1110.5 1176.51,1136.68 1178.56,1188.99 1180.62,1125.79 1182.67,1167.15 1184.72,1175.51 1186.77,1198.53 1188.83,1138.5 1190.88,1295.26 1192.93,1027.84 1194.99,1120.93 1197.04,1156.38 1199.09,1178.49 1201.15,987.944 1203.2,1150.4 1205.25,1154.56 1207.3,1176.31 1209.36,1155.13 1211.41,1198.38 1213.46,1201.82 1215.52,1168.97 1217.57,1165.24 1219.62,1196.97 1221.67,1187.9 1223.73,1186.74 1225.78,1157.42 1227.83,1181.24 1229.89,1131.23 1231.94,1145.92 1233.99,1262.4 1236.04,1267.12 1238.1,1552.91 1240.15,-34.5504 1242.2,2324.3 1244.26,2874.95 1246.31,1230.61 1248.36,1059.15 1250.41,557.506 1252.47,780.304 1254.52,1564.56 1256.57,1173.33 1258.63,1210.35 1260.68,1185.51 1262.73,1106.92 1264.78,1122.6 1266.84,1218.75 1268.89,1151.97 1270.94,1215.68 1273,1207.82 1275.05,1189.07 1277.1,1158.89 1279.16,1162.86 1281.21,1132.52 1283.26,1154.91 1285.31,1133.2 1287.37,1133.85 1289.42,1145.19 1291.47,1216.42 1293.53,1263.54 1295.58,1098.76 1297.63,1158.11 1299.68,1160 1301.74,1117.04 1303.79,1196.03 1305.84,1175.07 1307.9,1103.16 1309.95,1156.94 1312,1291.29 1314.05,2018.25 1316.11,1340.68 1318.16,1190.19 1320.21,1173.04 1322.27,1170.93 1324.32,1149.44 1326.37,1230.14 1328.42,1184.34 1330.48,1216.4 1332.53,1178.91 1334.58,1130.47 1336.64,1127.85 1338.69,1166.87 1340.74,1124.77 1342.79,1173.09 1344.85,1136.75 1346.9,1289.6 1348.95,1160.28 1351.01,1222.14 1353.06,1175.66 1355.11,1177.14 1357.16,1145.9 1359.22,1139.52 1361.27,1176.82 1363.32,1123.1 1365.38,1138.15 1367.43,1240.31 1369.48,1247.46 1371.54,1212.48 1373.59,1157.79 1375.64,1127.23 1377.69,1156.91 1379.75,1095.48 1381.8,1146.7 1383.85,1082.67 1385.91,1263.36 1387.96,1297.63 1390.01,1118.18 1392.06,1151.35 1394.12,1248.99 1396.17,1175.82 1398.22,1172.49 1400.28,1262.01 1402.33,1140.54 1404.38,1176.65 1406.43,1156.58 1408.49,1164.29 1410.54,1153.29 1412.59,1101.48 1414.65,1267.24 1416.7,1195.02 1418.75,1234.7 1420.8,1184.79 1422.86,1203.94 1424.91,1181.6 1426.96,1158.08 1429.02,1173.35 1431.07,1150.45 1433.12,1181.4 1435.17,1151.78 1437.23,1156.07 1439.28,1193.72 1441.33,1080.8 1443.39,1110.62 1445.44,1161.34 1447.49,1062.28 1449.55,1066.06 1451.6,1298.14 1453.65,1358.5 1455.7,1040.06 1457.76,1050.11 1459.81,1141.34 1461.86,1165.27 1463.92,1164.29 1465.97,1170.45 1468.02,1158.61 1470.07,1131.22 1472.13,1177.76 1474.18,1148.98 1476.23,1164.34 1478.29,1115.13 1480.34,1145.92 1482.39,1162.07 1484.44,1153.67 1486.5,1068.97 1488.55,1228.8 1490.6,1296.91 1492.66,1053.68 1494.71,1184.63 1496.76,1143.94 1498.81,1135.4 1500.87,1180.79 1502.92,1185.67 1504.97,1178.53 1507.03,1137.47 1509.08,1187.12 1511.13,1209.17 1513.18,1157.7 1515.24,1193.41 1517.29,1238.36 1519.34,1264.77 1521.4,909.051 1523.45,949.711 1525.5,1068.29 1527.55,1122.3 1529.61,1190.28 1531.66,1558.81 1533.71,820.596 1535.77,2245.93 1537.82,2898.02 1539.87,-732.746 1541.93,2335.52 1543.98,2248.3 1546.03,2161.5 1548.08,-430.019 1550.14,2165.87 1552.19,1011.03 1554.24,1917.83 1556.3,1553.91 1558.35,1614.92 1560.4,398.075 1562.45,1545.82 1564.51,849.962 1566.56,876.454 1568.61,-2106.45 1570.67,1177.44 1572.72,1134.33 1574.77,1163.5 1576.82,1162.06 1578.88,1180.44 1580.93,1196.7 1582.98,1143.14 1585.04,1158 1587.09,1146.58 1589.14,1179.14 1591.19,1187.08 1593.25,1132.36 1595.3,1192.8 1597.35,1192.51 1599.41,1188.12 1601.46,1228.62 1603.51,1086.64 1605.56,1052.77 1607.62,1134.29 1609.67,1186.85 1611.72,1144.43 1613.78,1119.48 1615.83,1133.28 1617.88,1169.87 1619.94,1178.51 1621.99,1182.24 1624.04,1154.51 1626.09,1128.55 1628.15,1292.64 1630.2,951.292 1632.25,1267.79 1634.31,1195.71 1636.36,1168.05 1638.41,1197.35 1640.46,1163.19 1642.52,1205.54 1644.57,1140.82 1646.62,1145.87 1648.68,1176.04 1650.73,1179.03 1652.78,1148.01 1654.83,1174.37 1656.89,1308.72 1658.94,926.375 1660.99,1332.22 1663.05,1268.06 1665.1,1175.84 1667.15,1148.38 1669.2,1206.87 1671.26,1257.79 1673.31,1405.78 1675.36,1321.04 1677.42,746.166 1679.47,1266.47 1681.52,1215.66 1683.57,1216.44 1685.63,1261.5 1687.68,1705.38 1689.73,5568.45 1691.79,1340.88 1693.84,1183.1 1695.89,1125.3 1697.94,969.401 1700,1275.21 1702.05,1170.21 1704.1,1259 1706.16,1088.6 1708.21,1160.34 1710.26,1134.71 1712.32,1009.96 1714.37,1157.64 1716.42,1125.21 1718.47,811.724 1720.53,557.379 1722.58,1785.2 1724.63,2270.78 1726.69,1305.05 1728.74,1249.93 1730.79,1131.04 1732.84,1205.07 1734.9,1184.18 1736.95,1174.92 1739,1151.63 1741.06,1143.21 1743.11,1222.81 1745.16,1193.29 1747.21,1172.8 1749.27,1166.36 1751.32,1148.52 1753.37,1159.45 1755.43,1155.31 1757.48,1134.2 1759.53,1175.42 1761.58,1179.65 1763.64,1182.21 1765.69,1211.81 1767.74,1118.19 1769.8,1734.35 1771.85,1010.73 1773.9,1203.48 1775.95,1131.07 1778.01,1200.47 1780.06,1136.67 1782.11,1068.03 1784.17,1310.63 1786.22,1182.33 1788.27,1127.72 1790.33,1206.14 1792.38,1136.94 1794.43,1148.88 1796.48,1156.76 1798.54,1144.91 1800.59,1147.05 1802.64,1153.29 1804.7,1144.66 1806.75,1209.67 1808.8,1172.28 1810.85,1195.31 1812.91,1193.07 1814.96,1157.98 1817.01,1153.34 1819.07,1149.93 1821.12,1137.17 1823.17,1207.54 1825.22,1200.48 1827.28,1126.72 1829.33,1388.06 1831.38,1373.72 1833.44,1719.26 1835.49,1337.44 1837.54,1154.93 1839.59,1236.42 1841.65,871.001 1843.7,1152.84 1845.75,1028.44 1847.81,1098.82 1849.86,1192.63 1851.91,1244.65 1853.96,1204.73 1856.02,1146.6 1858.07,1194.2 1860.12,1176.17 1862.18,1187.56 1864.23,1150.53 1866.28,1162.13 1868.34,1125.3 1870.39,1036.81 1872.44,1188.58 1874.49,1211.11 1876.55,1136.8 1878.6,1183.12 1880.65,1186.57 1882.71,1154.09 1884.76,1075.57 1886.81,1467.21 1888.86,1089.66 1890.92,1155.7 1892.97,1162.29 1895.02,1177.21 1897.08,1186.93 1899.13,1154.88 1901.18,1209.33 1903.23,1152.35 1905.29,1148.38 1907.34,1215.37 1909.39,1207.59 1911.45,1244.87 1913.5,1321.81 1915.55,1212.72 1917.6,1131.57 1919.66,1203.11 1921.71,1128.2 1923.76,1144.48 1925.82,1098.86 1927.87,1018.82 1929.92,1023.97 1931.97,804.934 1934.03,747.496 1936.08,1451.79 1938.13,1726.14 1940.19,996.268 1942.24,1124.86 1944.29,1216.8 1946.34,1224.58 1948.4,1182.41 1950.45,1112.67 1952.5,1104.06 1954.56,1240.62 1956.61,1121.24 1958.66,1177.94 1960.72,1139.12 1962.77,1143.29 1964.82,1169.21 1966.87,1219.95 1968.93,1148.82 1970.98,1189.47 1973.03,1177.83 1975.09,1157.48 1977.14,1146.84 1979.19,1151.99 1981.24,1155.71 1983.3,1172.57 1985.35,1197.33 1987.4,1198.73 1989.46,1212.94 1991.51,1170.61 1993.56,1099.26 1995.61,1118.71 1997.67,1207.72 1999.72,1100.32 2001.77,1196.18 2003.83,1058.44 2005.88,999.241 2007.93,917.647 2009.98,1324 2012.04,1372.78 2014.09,1213.12 2016.14,1013.42 2018.2,953.145 2020.25,1136.12 2022.3,1196.41 2024.35,1158.05 2026.41,1251.65 2028.46,1214.49 2030.51,1199.79 2032.57,1188.95 2034.62,1113.34 2036.67,1301.7 2038.73,1312.53 2040.78,1100.53 2042.83,1170.46 2044.88,1162.59 2046.94,1193.86 2048.99,1106.41 2051.04,1133.39 2053.1,1165.48 2055.15,979.202 2057.2,1187.01 2059.25,1114.49 2061.31,1204.13 2063.36,1147.93 2065.41,1169.61 2067.47,1170.23 2069.52,1163.55 2071.57,1163.24 2073.62,1164.23 2075.68,1220.23 2077.73,1173.84 2079.78,1182.71 2081.84,1424.91 2083.89,1424.46 2085.94,950.419 2087.99,1043.08 2090.05,1199.82 2092.1,1105.12 2094.15,1147.05 2096.21,1236.76 2098.26,1312.24 2100.31,1084.26 2102.36,1239.51 2104.42,1169.44 2106.47,1088.28 2108.52,1207.95 2110.58,1170.87 2112.63,1201.54 2114.68,1242.04 2116.73,1172.72 2118.79,1210.63 2120.84,1200.53 2122.89,1183.14 2124.95,1138.09 2127,1146.66 2129.05,1149.98 2131.11,1134.37 2133.16,1300.66 2135.21,1045.54 2137.26,1252.85 2139.32,1066.79 2141.37,1224.5 2143.42,1160.74 2145.48,1172.55 2147.53,1160.66 2149.58,1136.62 2151.63,1023.66 2153.69,1422.6 2155.74,1168.94 2157.79,1158.58 2159.85,1186.84 2161.9,1171.95 2163.95,1122.72 2166,1143.25 2168.06,1016.44 2170.11,1223.98 2172.16,1154.01 2174.22,1178.86 2176.27,1157.31 2178.32,1195.23 2180.37,869.52 2182.43,594.835 2184.48,1087.63 2186.53,1292.94 2188.59,970.077 2190.64,1451.77 2192.69,975.853 2194.74,1352.3 2196.8,1245.68 2198.85,1205.1 2200.9,1213.96 2202.96,1164.69 2205.01,1178.89 2207.06,1247.37 2209.12,1006.29 2211.17,1724.55 2213.22,1066.77 2215.27,1240.61 2217.33,1175.86 2219.38,1169.9 2221.43,1177.52 2223.49,1178.86 2225.54,1124.83 2227.59,1182.4 2229.64,1152.96 2231.7,1164.61 2233.75,1159.81 2235.8,1163.49 2237.86,1165.89 2239.91,1152.82 2241.96,1296.88 2244.01,1157.3 2246.07,1172.28 2248.12,1204.21 2250.17,1160.75 2252.23,1111.32 2254.28,1203.18 2256.33,1121.67 2258.38,1177.35 2260.44,1186.62 2262.49,1148.42 2264.54,1182.57 2266.6,1172.57 2268.65,1176.09 2270.7,1162 2272.75,1162.45 2274.81,1109.28 2276.86,1134.34 2278.91,1255.53 2280.97,1202.57 2283.02,1118.08 2285.07,1209.95 2287.12,1135.22 2289.18,1156.14 2291.23,1139.59 "/>
<path clip-path="url(#clip880)" d="M251.33 972.231 L588.926 972.231 L588.926 868.551 L251.33 868.551  Z" fill="#ffffff" fill-rule="evenodd" fill-opacity="1"/>
<polyline clip-path="url(#clip880)" style="stroke:#000000; stroke-linecap:round; stroke-linejoin:round; stroke-width:4; stroke-opacity:1; fill:none" points="251.33,972.231 588.926,972.231 588.926,868.551 251.33,868.551 251.33,972.231 "/>
<polyline clip-path="url(#clip880)" style="stroke:#009af9; stroke-linecap:round; stroke-linejoin:round; stroke-width:4; stroke-opacity:1; fill:none" points="275.484,920.391 420.41,920.391 "/>
<path clip-path="url(#clip880)" d="M470.12 932.74 L470.12 923.458 L462.481 923.458 L462.481 919.615 L474.749 919.615 L474.749 934.453 Q472.041 936.375 468.777 937.37 Q465.513 938.342 461.809 938.342 Q453.708 938.342 449.124 933.62 Q444.564 928.875 444.564 920.426 Q444.564 911.953 449.124 907.231 Q453.708 902.486 461.809 902.486 Q465.189 902.486 468.221 903.319 Q471.277 904.153 473.846 905.773 L473.846 910.75 Q471.254 908.551 468.337 907.44 Q465.421 906.328 462.203 906.328 Q455.86 906.328 452.666 909.87 Q449.495 913.412 449.495 920.426 Q449.495 927.416 452.666 930.958 Q455.86 934.5 462.203 934.5 Q464.68 934.5 466.624 934.083 Q468.569 933.643 470.12 932.74 Z" fill="#000000" fill-rule="nonzero" fill-opacity="1" /><path clip-path="url(#clip880)" d="M487.967 906.953 L487.967 919.94 L493.846 919.94 Q497.11 919.94 498.893 918.25 Q500.675 916.56 500.675 913.435 Q500.675 910.333 498.893 908.643 Q497.11 906.953 493.846 906.953 L487.967 906.953 M483.291 903.111 L493.846 903.111 Q499.657 903.111 502.619 905.75 Q505.606 908.365 505.606 913.435 Q505.606 918.551 502.619 921.166 Q499.657 923.782 493.846 923.782 L487.967 923.782 L487.967 937.671 L483.291 937.671 L483.291 903.111 Z" fill="#000000" fill-rule="nonzero" fill-opacity="1" /><path clip-path="url(#clip880)" d="M532.596 904.245 L532.596 908.805 Q529.934 907.532 527.573 906.907 Q525.212 906.282 523.013 906.282 Q519.193 906.282 517.11 907.764 Q515.05 909.245 515.05 911.977 Q515.05 914.268 516.416 915.449 Q517.805 916.606 521.647 917.324 L524.471 917.902 Q529.703 918.898 532.179 921.421 Q534.679 923.921 534.679 928.134 Q534.679 933.157 531.3 935.75 Q527.943 938.342 521.439 938.342 Q518.985 938.342 516.207 937.787 Q513.453 937.231 510.49 936.143 L510.49 931.328 Q513.337 932.926 516.068 933.736 Q518.8 934.546 521.439 934.546 Q525.443 934.546 527.619 932.972 Q529.795 931.398 529.795 928.481 Q529.795 925.935 528.221 924.5 Q526.67 923.064 523.105 922.347 L520.258 921.791 Q515.027 920.75 512.689 918.527 Q510.351 916.305 510.351 912.347 Q510.351 907.764 513.568 905.125 Q516.809 902.486 522.48 902.486 Q524.911 902.486 527.434 902.926 Q529.957 903.366 532.596 904.245 Z" fill="#000000" fill-rule="nonzero" fill-opacity="1" /><path clip-path="url(#clip880)" d="M562.689 904.245 L562.689 908.805 Q560.027 907.532 557.665 906.907 Q555.304 906.282 553.105 906.282 Q549.286 906.282 547.203 907.764 Q545.142 909.245 545.142 911.977 Q545.142 914.268 546.508 915.449 Q547.897 916.606 551.74 917.324 L554.564 917.902 Q559.795 918.898 562.272 921.421 Q564.772 923.921 564.772 928.134 Q564.772 933.157 561.392 935.75 Q558.036 938.342 551.531 938.342 Q549.078 938.342 546.3 937.787 Q543.545 937.231 540.582 936.143 L540.582 931.328 Q543.429 932.926 546.161 933.736 Q548.892 934.546 551.531 934.546 Q555.536 934.546 557.712 932.972 Q559.888 931.398 559.888 928.481 Q559.888 925.935 558.314 924.5 Q556.763 923.064 553.198 922.347 L550.351 921.791 Q545.119 920.75 542.781 918.527 Q540.443 916.305 540.443 912.347 Q540.443 907.764 543.661 905.125 Q546.902 902.486 552.573 902.486 Q555.003 902.486 557.527 902.926 Q560.05 903.366 562.689 904.245 Z" fill="#000000" fill-rule="nonzero" fill-opacity="1" /></svg>
