<?xml version="1.0" encoding="utf-8"?>
<svg xmlns="http://www.w3.org/2000/svg" xmlns:xlink="http://www.w3.org/1999/xlink" width="600" height="400" viewBox="0 0 2400 1600">
<defs>
  <clipPath id="clip080">
    <rect x="0" y="0" width="2400" height="1600"/>
  </clipPath>
</defs>
<path clip-path="url(#clip080)" d="M0 1600 L2400 1600 L2400 0 L0 0  Z" fill="#ffffff" fill-rule="evenodd" fill-opacity="1"/>
<defs>
  <clipPath id="clip081">
    <rect x="480" y="0" width="1681" height="1600"/>
  </clipPath>
</defs>
<path clip-path="url(#clip080)" d="M178.867 686.448 L2352.76 686.448 L2352.76 47.2441 L178.867 47.2441  Z" fill="#ffffff" fill-rule="evenodd" fill-opacity="1"/>
<defs>
  <clipPath id="clip082">
    <rect x="178" y="47" width="2175" height="640"/>
  </clipPath>
</defs>
<polyline clip-path="url(#clip082)" style="stroke:#000000; stroke-linecap:round; stroke-linejoin:round; stroke-width:2; stroke-opacity:0.1; fill:none" points="238.339,686.448 238.339,47.2441 "/>
<polyline clip-path="url(#clip082)" style="stroke:#000000; stroke-linecap:round; stroke-linejoin:round; stroke-width:2; stroke-opacity:0.1; fill:none" points="751.562,686.448 751.562,47.2441 "/>
<polyline clip-path="url(#clip082)" style="stroke:#000000; stroke-linecap:round; stroke-linejoin:round; stroke-width:2; stroke-opacity:0.1; fill:none" points="1264.78,686.448 1264.78,47.2441 "/>
<polyline clip-path="url(#clip082)" style="stroke:#000000; stroke-linecap:round; stroke-linejoin:round; stroke-width:2; stroke-opacity:0.1; fill:none" points="1778.01,686.448 1778.01,47.2441 "/>
<polyline clip-path="url(#clip082)" style="stroke:#000000; stroke-linecap:round; stroke-linejoin:round; stroke-width:2; stroke-opacity:0.1; fill:none" points="2291.23,686.448 2291.23,47.2441 "/>
<polyline clip-path="url(#clip082)" style="stroke:#000000; stroke-linecap:round; stroke-linejoin:round; stroke-width:2; stroke-opacity:0.1; fill:none" points="178.867,686.448 2352.76,686.448 "/>
<polyline clip-path="url(#clip082)" style="stroke:#000000; stroke-linecap:round; stroke-linejoin:round; stroke-width:2; stroke-opacity:0.1; fill:none" points="178.867,526.647 2352.76,526.647 "/>
<polyline clip-path="url(#clip082)" style="stroke:#000000; stroke-linecap:round; stroke-linejoin:round; stroke-width:2; stroke-opacity:0.1; fill:none" points="178.867,366.846 2352.76,366.846 "/>
<polyline clip-path="url(#clip082)" style="stroke:#000000; stroke-linecap:round; stroke-linejoin:round; stroke-width:2; stroke-opacity:0.1; fill:none" points="178.867,207.045 2352.76,207.045 "/>
<polyline clip-path="url(#clip082)" style="stroke:#000000; stroke-linecap:round; stroke-linejoin:round; stroke-width:2; stroke-opacity:0.1; fill:none" points="178.867,47.2441 2352.76,47.2441 "/>
<polyline clip-path="url(#clip080)" style="stroke:#000000; stroke-linecap:round; stroke-linejoin:round; stroke-width:4; stroke-opacity:1; fill:none" points="178.867,686.448 2352.76,686.448 "/>
<polyline clip-path="url(#clip080)" style="stroke:#000000; stroke-linecap:round; stroke-linejoin:round; stroke-width:4; stroke-opacity:1; fill:none" points="238.339,686.448 238.339,667.55 "/>
<polyline clip-path="url(#clip080)" style="stroke:#000000; stroke-linecap:round; stroke-linejoin:round; stroke-width:4; stroke-opacity:1; fill:none" points="751.562,686.448 751.562,667.55 "/>
<polyline clip-path="url(#clip080)" style="stroke:#000000; stroke-linecap:round; stroke-linejoin:round; stroke-width:4; stroke-opacity:1; fill:none" points="1264.78,686.448 1264.78,667.55 "/>
<polyline clip-path="url(#clip080)" style="stroke:#000000; stroke-linecap:round; stroke-linejoin:round; stroke-width:4; stroke-opacity:1; fill:none" points="1778.01,686.448 1778.01,667.55 "/>
<polyline clip-path="url(#clip080)" style="stroke:#000000; stroke-linecap:round; stroke-linejoin:round; stroke-width:4; stroke-opacity:1; fill:none" points="2291.23,686.448 2291.23,667.55 "/>
<path clip-path="url(#clip080)" d="M238.339 717.367 Q234.728 717.367 232.899 720.931 Q231.094 724.473 231.094 731.603 Q231.094 738.709 232.899 742.274 Q234.728 745.815 238.339 745.815 Q241.973 745.815 243.779 742.274 Q245.607 738.709 245.607 731.603 Q245.607 724.473 243.779 720.931 Q241.973 717.367 238.339 717.367 M238.339 713.663 Q244.149 713.663 247.205 718.269 Q250.283 722.853 250.283 731.603 Q250.283 740.329 247.205 744.936 Q244.149 749.519 238.339 749.519 Q232.529 749.519 229.45 744.936 Q226.395 740.329 226.395 731.603 Q226.395 722.853 229.45 718.269 Q232.529 713.663 238.339 713.663 Z" fill="#000000" fill-rule="nonzero" fill-opacity="1" /><path clip-path="url(#clip080)" d="M715.254 744.913 L731.574 744.913 L731.574 748.848 L709.629 748.848 L709.629 744.913 Q712.291 742.158 716.875 737.528 Q721.481 732.876 722.662 731.533 Q724.907 729.01 725.787 727.274 Q726.689 725.515 726.689 723.825 Q726.689 721.07 724.745 719.334 Q722.824 717.598 719.722 717.598 Q717.523 717.598 715.069 718.362 Q712.638 719.126 709.861 720.677 L709.861 715.955 Q712.685 714.82 715.138 714.242 Q717.592 713.663 719.629 713.663 Q725 713.663 728.194 716.348 Q731.388 719.033 731.388 723.524 Q731.388 725.654 730.578 727.575 Q729.791 729.473 727.685 732.066 Q727.106 732.737 724.004 735.954 Q720.902 739.149 715.254 744.913 Z" fill="#000000" fill-rule="nonzero" fill-opacity="1" /><path clip-path="url(#clip080)" d="M741.435 714.288 L759.791 714.288 L759.791 718.223 L745.717 718.223 L745.717 726.695 Q746.736 726.348 747.754 726.186 Q748.773 726.001 749.791 726.001 Q755.578 726.001 758.958 729.172 Q762.337 732.343 762.337 737.76 Q762.337 743.339 758.865 746.44 Q755.393 749.519 749.073 749.519 Q746.898 749.519 744.629 749.149 Q742.384 748.778 739.976 748.038 L739.976 743.339 Q742.06 744.473 744.282 745.028 Q746.504 745.584 748.981 745.584 Q752.985 745.584 755.323 743.478 Q757.661 741.371 757.661 737.76 Q757.661 734.149 755.323 732.042 Q752.985 729.936 748.981 729.936 Q747.106 729.936 745.231 730.353 Q743.379 730.769 741.435 731.649 L741.435 714.288 Z" fill="#000000" fill-rule="nonzero" fill-opacity="1" /><path clip-path="url(#clip080)" d="M781.55 717.367 Q777.939 717.367 776.11 720.931 Q774.305 724.473 774.305 731.603 Q774.305 738.709 776.11 742.274 Q777.939 745.815 781.55 745.815 Q785.184 745.815 786.99 742.274 Q788.819 738.709 788.819 731.603 Q788.819 724.473 786.99 720.931 Q785.184 717.367 781.55 717.367 M781.55 713.663 Q787.36 713.663 790.416 718.269 Q793.495 722.853 793.495 731.603 Q793.495 740.329 790.416 744.936 Q787.36 749.519 781.55 749.519 Q775.74 749.519 772.661 744.936 Q769.606 740.329 769.606 731.603 Q769.606 722.853 772.661 718.269 Q775.74 713.663 781.55 713.663 Z" fill="#000000" fill-rule="nonzero" fill-opacity="1" /><path clip-path="url(#clip080)" d="M1224.4 714.288 L1242.76 714.288 L1242.76 718.223 L1228.69 718.223 L1228.69 726.695 Q1229.7 726.348 1230.72 726.186 Q1231.74 726.001 1232.76 726.001 Q1238.55 726.001 1241.93 729.172 Q1245.31 732.343 1245.31 737.76 Q1245.31 743.339 1241.83 746.44 Q1238.36 749.519 1232.04 749.519 Q1229.87 749.519 1227.6 749.149 Q1225.35 748.778 1222.94 748.038 L1222.94 743.339 Q1225.03 744.473 1227.25 745.028 Q1229.47 745.584 1231.95 745.584 Q1235.95 745.584 1238.29 743.478 Q1240.63 741.371 1240.63 737.76 Q1240.63 734.149 1238.29 732.042 Q1235.95 729.936 1231.95 729.936 Q1230.07 729.936 1228.2 730.353 Q1226.35 730.769 1224.4 731.649 L1224.4 714.288 Z" fill="#000000" fill-rule="nonzero" fill-opacity="1" /><path clip-path="url(#clip080)" d="M1264.52 717.367 Q1260.91 717.367 1259.08 720.931 Q1257.27 724.473 1257.27 731.603 Q1257.27 738.709 1259.08 742.274 Q1260.91 745.815 1264.52 745.815 Q1268.15 745.815 1269.96 742.274 Q1271.79 738.709 1271.79 731.603 Q1271.79 724.473 1269.96 720.931 Q1268.15 717.367 1264.52 717.367 M1264.52 713.663 Q1270.33 713.663 1273.38 718.269 Q1276.46 722.853 1276.46 731.603 Q1276.46 740.329 1273.38 744.936 Q1270.33 749.519 1264.52 749.519 Q1258.71 749.519 1255.63 744.936 Q1252.57 740.329 1252.57 731.603 Q1252.57 722.853 1255.63 718.269 Q1258.71 713.663 1264.52 713.663 Z" fill="#000000" fill-rule="nonzero" fill-opacity="1" /><path clip-path="url(#clip080)" d="M1294.68 717.367 Q1291.07 717.367 1289.24 720.931 Q1287.44 724.473 1287.44 731.603 Q1287.44 738.709 1289.24 742.274 Q1291.07 745.815 1294.68 745.815 Q1298.31 745.815 1300.12 742.274 Q1301.95 738.709 1301.95 731.603 Q1301.95 724.473 1300.12 720.931 Q1298.31 717.367 1294.68 717.367 M1294.68 713.663 Q1300.49 713.663 1303.55 718.269 Q1306.62 722.853 1306.62 731.603 Q1306.62 740.329 1303.55 744.936 Q1300.49 749.519 1294.68 749.519 Q1288.87 749.519 1285.79 744.936 Q1282.74 740.329 1282.74 731.603 Q1282.74 722.853 1285.79 718.269 Q1288.87 713.663 1294.68 713.663 Z" fill="#000000" fill-rule="nonzero" fill-opacity="1" /><path clip-path="url(#clip080)" d="M1736.28 714.288 L1758.51 714.288 L1758.51 716.279 L1745.96 748.848 L1741.08 748.848 L1752.88 718.223 L1736.28 718.223 L1736.28 714.288 Z" fill="#000000" fill-rule="nonzero" fill-opacity="1" /><path clip-path="url(#clip080)" d="M1767.67 714.288 L1786.03 714.288 L1786.03 718.223 L1771.95 718.223 L1771.95 726.695 Q1772.97 726.348 1773.99 726.186 Q1775.01 726.001 1776.03 726.001 Q1781.82 726.001 1785.2 729.172 Q1788.57 732.343 1788.57 737.76 Q1788.57 743.339 1785.1 746.44 Q1781.63 749.519 1775.31 749.519 Q1773.14 749.519 1770.87 749.149 Q1768.62 748.778 1766.21 748.038 L1766.21 743.339 Q1768.3 744.473 1770.52 745.028 Q1772.74 745.584 1775.22 745.584 Q1779.22 745.584 1781.56 743.478 Q1783.9 741.371 1783.9 737.76 Q1783.9 734.149 1781.56 732.042 Q1779.22 729.936 1775.22 729.936 Q1773.34 729.936 1771.47 730.353 Q1769.62 730.769 1767.67 731.649 L1767.67 714.288 Z" fill="#000000" fill-rule="nonzero" fill-opacity="1" /><path clip-path="url(#clip080)" d="M1807.79 717.367 Q1804.18 717.367 1802.35 720.931 Q1800.54 724.473 1800.54 731.603 Q1800.54 738.709 1802.35 742.274 Q1804.18 745.815 1807.79 745.815 Q1811.42 745.815 1813.23 742.274 Q1815.06 738.709 1815.06 731.603 Q1815.06 724.473 1813.23 720.931 Q1811.42 717.367 1807.79 717.367 M1807.79 713.663 Q1813.6 713.663 1816.65 718.269 Q1819.73 722.853 1819.73 731.603 Q1819.73 740.329 1816.65 744.936 Q1813.6 749.519 1807.79 749.519 Q1801.98 749.519 1798.9 744.936 Q1795.84 740.329 1795.84 731.603 Q1795.84 722.853 1798.9 718.269 Q1801.98 713.663 1807.79 713.663 Z" fill="#000000" fill-rule="nonzero" fill-opacity="1" /><path clip-path="url(#clip080)" d="M2235.76 744.913 L2243.4 744.913 L2243.4 718.547 L2235.09 720.214 L2235.09 715.955 L2243.35 714.288 L2248.02 714.288 L2248.02 744.913 L2255.66 744.913 L2255.66 748.848 L2235.76 748.848 L2235.76 744.913 Z" fill="#000000" fill-rule="nonzero" fill-opacity="1" /><path clip-path="url(#clip080)" d="M2275.11 717.367 Q2271.5 717.367 2269.67 720.931 Q2267.86 724.473 2267.86 731.603 Q2267.86 738.709 2269.67 742.274 Q2271.5 745.815 2275.11 745.815 Q2278.74 745.815 2280.55 742.274 Q2282.38 738.709 2282.38 731.603 Q2282.38 724.473 2280.55 720.931 Q2278.74 717.367 2275.11 717.367 M2275.11 713.663 Q2280.92 713.663 2283.97 718.269 Q2287.05 722.853 2287.05 731.603 Q2287.05 740.329 2283.97 744.936 Q2280.92 749.519 2275.11 749.519 Q2269.3 749.519 2266.22 744.936 Q2263.16 740.329 2263.16 731.603 Q2263.16 722.853 2266.22 718.269 Q2269.3 713.663 2275.11 713.663 Z" fill="#000000" fill-rule="nonzero" fill-opacity="1" /><path clip-path="url(#clip080)" d="M2305.27 717.367 Q2301.66 717.367 2299.83 720.931 Q2298.02 724.473 2298.02 731.603 Q2298.02 738.709 2299.83 742.274 Q2301.66 745.815 2305.27 745.815 Q2308.9 745.815 2310.71 742.274 Q2312.54 738.709 2312.54 731.603 Q2312.54 724.473 2310.71 720.931 Q2308.9 717.367 2305.27 717.367 M2305.27 713.663 Q2311.08 713.663 2314.14 718.269 Q2317.21 722.853 2317.21 731.603 Q2317.21 740.329 2314.14 744.936 Q2311.08 749.519 2305.27 749.519 Q2299.46 749.519 2296.38 744.936 Q2293.33 740.329 2293.33 731.603 Q2293.33 722.853 2296.38 718.269 Q2299.46 713.663 2305.27 713.663 Z" fill="#000000" fill-rule="nonzero" fill-opacity="1" /><path clip-path="url(#clip080)" d="M2335.43 717.367 Q2331.82 717.367 2329.99 720.931 Q2328.19 724.473 2328.19 731.603 Q2328.19 738.709 2329.99 742.274 Q2331.82 745.815 2335.43 745.815 Q2339.07 745.815 2340.87 742.274 Q2342.7 738.709 2342.7 731.603 Q2342.7 724.473 2340.87 720.931 Q2339.07 717.367 2335.43 717.367 M2335.43 713.663 Q2341.24 713.663 2344.3 718.269 Q2347.38 722.853 2347.38 731.603 Q2347.38 740.329 2344.3 744.936 Q2341.24 749.519 2335.43 749.519 Q2329.62 749.519 2326.54 744.936 Q2323.49 740.329 2323.49 731.603 Q2323.49 722.853 2326.54 718.269 Q2329.62 713.663 2335.43 713.663 Z" fill="#000000" fill-rule="nonzero" fill-opacity="1" /><polyline clip-path="url(#clip080)" style="stroke:#000000; stroke-linecap:round; stroke-linejoin:round; stroke-width:4; stroke-opacity:1; fill:none" points="178.867,686.448 178.867,47.2441 "/>
<polyline clip-path="url(#clip080)" style="stroke:#000000; stroke-linecap:round; stroke-linejoin:round; stroke-width:4; stroke-opacity:1; fill:none" points="178.867,686.448 197.764,686.448 "/>
<polyline clip-path="url(#clip080)" style="stroke:#000000; stroke-linecap:round; stroke-linejoin:round; stroke-width:4; stroke-opacity:1; fill:none" points="178.867,526.647 197.764,526.647 "/>
<polyline clip-path="url(#clip080)" style="stroke:#000000; stroke-linecap:round; stroke-linejoin:round; stroke-width:4; stroke-opacity:1; fill:none" points="178.867,366.846 197.764,366.846 "/>
<polyline clip-path="url(#clip080)" style="stroke:#000000; stroke-linecap:round; stroke-linejoin:round; stroke-width:4; stroke-opacity:1; fill:none" points="178.867,207.045 197.764,207.045 "/>
<polyline clip-path="url(#clip080)" style="stroke:#000000; stroke-linecap:round; stroke-linejoin:round; stroke-width:4; stroke-opacity:1; fill:none" points="178.867,47.2441 197.764,47.2441 "/>
<path clip-path="url(#clip080)" d="M50.9921 686.899 L80.6679 686.899 L80.6679 690.834 L50.9921 690.834 L50.9921 686.899 Z" fill="#000000" fill-rule="nonzero" fill-opacity="1" /><path clip-path="url(#clip080)" d="M91.5706 699.793 L99.2095 699.793 L99.2095 673.427 L90.8993 675.094 L90.8993 670.835 L99.1632 669.168 L103.839 669.168 L103.839 699.793 L111.478 699.793 L111.478 703.728 L91.5706 703.728 L91.5706 699.793 Z" fill="#000000" fill-rule="nonzero" fill-opacity="1" /><path clip-path="url(#clip080)" d="M130.922 672.247 Q127.311 672.247 125.482 675.811 Q123.677 679.353 123.677 686.483 Q123.677 693.589 125.482 697.154 Q127.311 700.695 130.922 700.695 Q134.556 700.695 136.362 697.154 Q138.191 693.589 138.191 686.483 Q138.191 679.353 136.362 675.811 Q134.556 672.247 130.922 672.247 M130.922 668.543 Q136.732 668.543 139.788 673.149 Q142.867 677.733 142.867 686.483 Q142.867 695.209 139.788 699.816 Q136.732 704.399 130.922 704.399 Q125.112 704.399 122.033 699.816 Q118.978 695.209 118.978 686.483 Q118.978 677.733 122.033 673.149 Q125.112 668.543 130.922 668.543 Z" fill="#000000" fill-rule="nonzero" fill-opacity="1" /><path clip-path="url(#clip080)" d="M82.1494 527.098 L111.825 527.098 L111.825 531.033 L82.1494 531.033 L82.1494 527.098 Z" fill="#000000" fill-rule="nonzero" fill-opacity="1" /><path clip-path="url(#clip080)" d="M121.964 509.367 L140.32 509.367 L140.32 513.302 L126.246 513.302 L126.246 521.774 Q127.265 521.427 128.283 521.265 Q129.302 521.08 130.32 521.08 Q136.107 521.08 139.487 524.251 Q142.867 527.422 142.867 532.839 Q142.867 538.418 139.394 541.52 Q135.922 544.598 129.603 544.598 Q127.427 544.598 125.158 544.228 Q122.913 543.857 120.506 543.117 L120.506 538.418 Q122.589 539.552 124.811 540.108 Q127.033 540.663 129.51 540.663 Q133.515 540.663 135.853 538.557 Q138.191 536.45 138.191 532.839 Q138.191 529.228 135.853 527.121 Q133.515 525.015 129.51 525.015 Q127.635 525.015 125.76 525.432 Q123.908 525.848 121.964 526.728 L121.964 509.367 Z" fill="#000000" fill-rule="nonzero" fill-opacity="1" /><path clip-path="url(#clip080)" d="M130.922 352.645 Q127.311 352.645 125.482 356.209 Q123.677 359.751 123.677 366.881 Q123.677 373.987 125.482 377.552 Q127.311 381.094 130.922 381.094 Q134.556 381.094 136.362 377.552 Q138.191 373.987 138.191 366.881 Q138.191 359.751 136.362 356.209 Q134.556 352.645 130.922 352.645 M130.922 348.941 Q136.732 348.941 139.788 353.547 Q142.867 358.131 142.867 366.881 Q142.867 375.608 139.788 380.214 Q136.732 384.797 130.922 384.797 Q125.112 384.797 122.033 380.214 Q118.978 375.608 118.978 366.881 Q118.978 358.131 122.033 353.547 Q125.112 348.941 130.922 348.941 Z" fill="#000000" fill-rule="nonzero" fill-opacity="1" /><path clip-path="url(#clip080)" d="M121.964 189.765 L140.32 189.765 L140.32 193.7 L126.246 193.7 L126.246 202.172 Q127.265 201.825 128.283 201.663 Q129.302 201.478 130.32 201.478 Q136.107 201.478 139.487 204.649 Q142.867 207.82 142.867 213.237 Q142.867 218.816 139.394 221.918 Q135.922 224.996 129.603 224.996 Q127.427 224.996 125.158 224.626 Q122.913 224.256 120.506 223.515 L120.506 218.816 Q122.589 219.95 124.811 220.506 Q127.033 221.061 129.51 221.061 Q133.515 221.061 135.853 218.955 Q138.191 216.848 138.191 213.237 Q138.191 209.626 135.853 207.52 Q133.515 205.413 129.51 205.413 Q127.635 205.413 125.76 205.83 Q123.908 206.246 121.964 207.126 L121.964 189.765 Z" fill="#000000" fill-rule="nonzero" fill-opacity="1" /><path clip-path="url(#clip080)" d="M91.5706 60.5889 L99.2095 60.5889 L99.2095 34.2233 L90.8993 35.89 L90.8993 31.6308 L99.1632 29.9641 L103.839 29.9641 L103.839 60.5889 L111.478 60.5889 L111.478 64.5241 L91.5706 64.5241 L91.5706 60.5889 Z" fill="#000000" fill-rule="nonzero" fill-opacity="1" /><path clip-path="url(#clip080)" d="M130.922 33.0428 Q127.311 33.0428 125.482 36.6076 Q123.677 40.1492 123.677 47.2788 Q123.677 54.3853 125.482 57.9501 Q127.311 61.4917 130.922 61.4917 Q134.556 61.4917 136.362 57.9501 Q138.191 54.3853 138.191 47.2788 Q138.191 40.1492 136.362 36.6076 Q134.556 33.0428 130.922 33.0428 M130.922 29.3391 Q136.732 29.3391 139.788 33.9456 Q142.867 38.5289 142.867 47.2788 Q142.867 56.0056 139.788 60.6121 Q136.732 65.1954 130.922 65.1954 Q125.112 65.1954 122.033 60.6121 Q118.978 56.0056 118.978 47.2788 Q118.978 38.5289 122.033 33.9456 Q125.112 29.3391 130.922 29.3391 Z" fill="#000000" fill-rule="nonzero" fill-opacity="1" /><polyline clip-path="url(#clip082)" style="stroke:#009af9; stroke-linecap:round; stroke-linejoin:round; stroke-width:4; stroke-opacity:1; fill:none" points="240.392,334.886 242.445,331.795 244.498,394.096 246.55,397.152 248.603,397.057 250.656,398.873 252.709,327.951 254.762,351.633 256.815,359.063 258.868,359.102 260.921,357.696 262.974,365.223 265.027,364.904 267.079,363.644 269.132,363.236 271.185,356.283 273.238,355.541 275.291,344.195 277.344,346.879 279.397,346.83 281.45,351.017 283.503,350.633 285.555,358.011 287.608,358.419 289.661,357.881 291.714,358.921 293.767,356.708 295.82,350.577 297.873,350.503 299.926,349.084 301.979,349.084 304.031,360.536 306.084,360.633 308.137,360.858 310.19,354.711 312.243,355.165 314.296,350.703 316.349,351.257 318.402,361.079 320.455,357.769 322.507,359.56 324.56,357.196 326.613,356.548 328.666,347.018 330.719,347.415 332.772,347.545 334.825,347.518 336.878,347.557 338.931,347.041 340.984,341.775 343.036,342.275 345.089,342.242 347.142,342.163 349.195,337.678 351.248,337.525 353.301,344.286 355.354,336.522 357.407,339.865 359.46,362.175 361.512,362.104 363.565,360.679 365.618,355.024 367.671,261.34 369.724,277.479 371.777,236.756 373.83,227.949 375.883,240.97 377.936,252.39 379.988,345.193 382.041,351.239 384.094,351.976 386.147,348.185 388.2,350.539 390.253,349.413 392.306,382.475 394.359,381.445 396.412,368.804 398.464,370.375 400.517,389.545 402.57,384.941 404.623,394.04 406.676,405.48 408.729,407.477 410.782,399.057 412.835,393.333 414.888,394.911 416.94,342.084 418.993,320.095 421.046,329.623 423.099,325.195 425.152,286.485 427.205,289.102 429.258,306.81 431.311,368.984 433.364,284.573 435.417,298.978 437.469,297.983 439.522,281.937 441.575,284.666 443.628,276.766 445.681,276.539 447.734,277.606 449.787,278.398 451.84,284.383 453.893,284.103 455.945,282.618 457.998,401.661 460.051,401.128 462.104,401.903 464.157,376.777 466.21,372.16 468.263,376.862 470.316,376.992 472.369,405.488 474.421,422.454 476.474,433.605 478.527,431.844 480.58,410.662 482.633,398.192 484.686,394.833 486.739,396.603 488.792,419.413 490.845,473.992 492.897,468.343 494.95,450.229 497.003,441.436 499.056,443.307 501.109,435.74 503.162,437.397 505.215,437.388 507.268,385.03 509.321,417.841 511.374,425.823 513.426,424.752 515.479,399.907 517.532,385.602 519.585,338.817 521.638,357.705 523.691,357.717 525.744,358.077 527.797,358.243 529.85,357.807 531.902,357.772 533.955,379.032 536.008,379.38 538.061,383.035 540.114,382.854 542.167,380.403 544.22,360.394 546.273,350.567 548.326,350.027 550.378,349.921 552.431,352.519 554.484,352.489 556.537,362.127 558.59,359.629 560.643,354.444 562.696,359.257 564.749,367.458 566.802,366.979 568.854,373.442 570.907,373.19 572.96,360.13 575.013,355.056 577.066,349.258 579.119,356.493 581.172,362.385 583.225,358.051 585.278,338.874 587.331,335.748 589.383,357.259 591.436,356.98 593.489,370.474 595.542,370.792 597.595,370.589 599.648,370.165 601.701,370.491 603.754,370.012 605.807,370.394 607.859,368.522 609.912,366.56 611.965,366.591 614.018,366.406 616.071,383.038 618.124,402.652 620.177,409.791 622.23,409.795 624.283,410.857 626.335,432.765 628.388,433.244 630.441,420.617 632.494,420.738 634.547,420.352 636.6,412.467 638.653,412.563 640.706,410.791 642.759,411.24 644.811,410.952 646.864,419.475 648.917,421.886 650.97,420.889 653.023,415.126 655.076,416.775 657.129,415.204 659.182,414.925 661.235,414.757 663.288,373.767 665.34,371.697 667.393,382.617 669.446,384.887 671.499,412.412 673.552,398.234 675.605,355.98 677.658,358.206 679.711,366.236 681.764,368.652 683.816,376.793 685.869,376.593 687.922,376.979 689.975,363.482 692.028,340.344 694.081,283.704 696.134,283.593 698.187,283.935 700.24,276.349 702.292,275.982 704.345,339.823 706.398,387.685 708.451,380.551 710.504,381.958 712.557,373.794 714.61,377.224 716.663,377.525 718.716,377.346 720.768,377.311 722.821,377.305 724.874,376.478 726.927,376.598 728.98,380.406 731.033,379.974 733.086,376.465 735.139,377.026 737.192,385.945 739.245,384.026 741.297,383.708 743.35,382.621 745.403,407.78 747.456,408.968 749.509,409.406 751.562,412.306 753.615,410.068 755.668,407.127 757.721,407.462 759.773,400.937 761.826,412.736 763.879,382.826 765.932,383.909 767.985,384.476 770.038,378.135 772.091,379.301 774.144,381.242 776.197,376.946 778.249,379.158 780.302,380.645 782.355,377.126 784.408,377.25 786.461,356.491 788.514,357.249 790.567,354.82 792.62,352.686 794.673,340.429 796.725,338.421 798.778,343.123 800.831,339.884 802.884,324.429 804.937,334.758 806.99,335.776 809.043,335.796 811.096,334.496 813.149,334.656 815.202,335.05 817.254,356.746 819.307,351.939 821.36,357.466 823.413,355.59 825.466,355.917 827.519,357.062 829.572,330.359 831.625,330.828 833.678,338.522 835.73,336.896 837.783,336.232 839.836,327.112 841.889,321.753 843.942,321.673 845.995,321.939 848.048,321.181 850.101,377.796 852.154,377.924 854.206,364.518 856.259,350.492 858.312,355.908 860.365,358.326 862.418,358.868 864.471,367.466 866.524,394.46 868.577,401.021 870.63,401.117 872.682,400.663 874.735,401.689 876.788,396.19 878.841,398.62 880.894,397.33 882.947,373.634 885,376.247 887.053,377.388 889.106,377.99 891.159,367.069 893.211,364.781 895.264,368.887 897.317,366.444 899.37,351.948 901.423,344.299 903.476,344.436 905.529,316.584 907.582,320.496 909.635,321.448 911.687,344.333 913.74,338.657 915.793,349.709 917.846,348.98 919.899,346.86 921.952,354.85 924.005,353.962 926.058,361.173 928.111,364.781 930.163,364.904 932.216,364.163 934.269,360.44 936.322,379.09 938.375,334.256 940.428,339.25 942.481,334.571 944.534,349.305 946.587,330.881 948.639,332.157 950.692,336.465 952.745,295.915 954.798,315.83 956.851,335.595 958.904,336.716 960.957,332.51 963.01,375.914 965.063,376.018 967.116,376.839 969.168,357.529 971.221,357.529 973.274,356.24 975.327,363.937 977.38,367.471 979.433,387.325 981.486,389.009 983.539,389.004 985.592,390.089 987.644,372.608 989.697,317.16 991.75,317.212 993.803,324.031 995.856,332.19 997.909,333.42 999.962,242.141 1002.01,244.671 1004.07,249.863 1006.12,251.713 1008.17,253.793 1010.23,251.383 1012.28,251.723 1014.33,239.632 1016.38,239.65 1018.44,243.444 1020.49,257.167 1022.54,253.754 1024.6,250.445 1026.65,340.008 1028.7,337.736 1030.76,366.776 1032.81,368.727 1034.86,370.281 1036.91,350.149 1038.97,321.645 1041.02,324.609 1043.07,320.189 1045.13,305.513 1047.18,305.543 1049.23,298.349 1051.28,307.577 1053.34,306.197 1055.39,305.341 1057.44,305.267 1059.5,297.531 1061.55,297.435 1063.6,311.394 1065.65,321.071 1067.71,327.364 1069.76,327.379 1071.81,331.286 1073.87,329.44 1075.92,319.188 1077.97,313.597 1080.02,326.067 1082.08,338.439 1084.13,337.845 1086.18,335.345 1088.24,335.569 1090.29,334.124 1092.34,334.213 1094.39,334.09 1096.45,334.092 1098.5,324.236 1100.55,324.036 1102.61,324.158 1104.66,337.909 1106.71,337.239 1108.77,353.63 1110.82,347.218 1112.87,365.402 1114.92,364.695 1116.98,367.332 1119.03,367.326 1121.08,393.85 1123.14,392.648 1125.19,387.664 1127.24,388.858 1129.29,392.167 1131.35,391.345 1133.4,391.419 1135.45,384.941 1137.51,378.26 1139.56,375.52 1141.61,368.371 1143.66,365.341 1145.72,364.546 1147.77,362.661 1149.82,331.991 1151.88,333.86 1153.93,336.036 1155.98,323.463 1158.03,314.78 1160.09,314.309 1162.14,316.949 1164.19,315.835 1166.25,315.569 1168.3,304.478 1170.35,303.891 1172.4,304.99 1174.46,304.89 1176.51,305.688 1178.56,306.595 1180.62,306.313 1182.67,318.04 1184.72,318.35 1186.77,408.354 1188.83,398.429 1190.88,360.968 1192.93,364.193 1194.99,363.567 1197.04,384.508 1199.09,369.554 1201.15,371.695 1203.2,368.004 1205.25,365.189 1207.3,365.019 1209.36,365.017 1211.41,364.736 1213.46,364.461 1215.52,364.337 1217.57,364.289 1219.62,360.537 1221.67,362.486 1223.73,366.785 1225.78,365.177 1227.83,365.152 1229.89,362.078 1231.94,343.915 1233.99,347.738 1236.04,348.64 1238.1,343.492 1240.15,343.444 1242.2,342.245 1244.26,346.195 1246.31,345.193 1248.36,345.584 1250.41,347.999 1252.47,347.635 1254.52,347.943 1256.57,354.839 1258.63,354.632 1260.68,357.592 1262.73,357.454 1264.78,357.786 1266.84,344.096 1268.89,344.284 1270.94,344.076 1273,343.409 1275.05,350.274 1277.1,347.122 1279.16,352.814 1281.21,351.322 1283.26,352.683 1285.31,355.471 1287.37,351.603 1289.42,351.62 1291.47,372.651 1293.53,372.626 1295.58,372.792 1297.63,372.787 1299.68,372.604 1301.74,372.533 1303.79,371.792 1305.84,371.768 1307.9,373.67 1309.95,373.693 1312,373.2 1314.05,373.211 1316.11,374.46 1318.16,374.453 1320.21,381.375 1322.27,383.21 1324.32,373.793 1326.37,374.405 1328.42,373.892 1330.48,375.366 1332.53,375.028 1334.58,360.416 1336.64,360.78 1338.69,352.916 1340.74,349.407 1342.79,348.321 1344.85,347.788 1346.9,347.651 1348.95,347.457 1351.01,347.442 1353.06,360.932 1355.11,349.591 1357.16,348.669 1359.22,348.73 1361.27,348.364 1363.32,357.663 1365.38,375.342 1367.43,385.805 1369.48,385.805 1371.54,388.269 1373.59,388.898 1375.64,384.067 1377.69,378.663 1379.75,381.893 1381.8,378.37 1383.85,380.726 1385.91,370.348 1387.96,357.439 1390.01,387.96 1392.06,350.993 1394.12,350.85 1396.17,350.922 1398.22,351.114 1400.28,349.336 1402.33,349.276 1404.38,354.847 1406.43,359.264 1408.49,358.565 1410.54,357.031 1412.59,344.473 1414.65,334.61 1416.7,338.386 1418.75,338.612 1420.8,338.465 1422.86,351.629 1424.91,351.834 1426.96,364.482 1429.02,355.068 1431.07,351.212 1433.12,349.579 1435.17,349.612 1437.23,349.051 1439.28,350.723 1441.33,349.168 1443.39,340.039 1445.44,277.644 1447.49,277.295 1449.55,269.382 1451.6,269.67 1453.65,297.61 1455.7,295.65 1457.76,401.753 1459.81,403.471 1461.86,346.103 1463.92,344.045 1465.97,350.765 1468.02,375.933 1470.07,379.671 1472.13,364.802 1474.18,377.926 1476.23,378.215 1478.29,345.97 1480.34,392.148 1482.39,393.554 1484.44,401.621 1486.5,401.056 1488.55,384.762 1490.6,365.236 1492.66,416.455 1494.71,416.886 1496.76,298.235 1498.81,325.098 1500.87,316.662 1502.92,319.912 1504.97,320.036 1507.03,320.171 1509.08,293.529 1511.13,311.722 1513.18,381.263 1515.24,376.311 1517.29,360.822 1519.34,353.175 1521.4,396.136 1523.45,394.31 1525.5,391.955 1527.55,398.054 1529.61,399.345 1531.66,395.304 1533.71,395.384 1535.77,389.21 1537.82,381.382 1539.87,381.323 1541.93,380.667 1543.98,379.437 1546.03,383.226 1548.08,390.093 1550.14,373.406 1552.19,391.901 1554.24,383.424 1556.3,363.683 1558.35,363.911 1560.4,379.323 1562.45,369.65 1564.51,368.58 1566.56,392.839 1568.61,429.593 1570.67,439.421 1572.72,437.995 1574.77,444.043 1576.82,444.234 1578.88,442.822 1580.93,461.957 1582.98,412.662 1585.04,417.692 1587.09,409.081 1589.14,414.03 1591.19,360.67 1593.25,354.505 1595.3,430.224 1597.35,366.072 1599.41,364.793 1601.46,348.679 1603.51,341.821 1605.56,322.665 1607.62,365.728 1609.67,369.92 1611.72,353.453 1613.78,353.731 1615.83,348.846 1617.88,348.731 1619.94,420.352 1621.99,385.656 1624.04,404.67 1626.09,404.577 1628.15,411.906 1630.2,408.662 1632.25,420.69 1634.31,419.747 1636.36,417.5 1638.41,424.855 1640.46,424.903 1642.52,424.221 1644.57,466.076 1646.62,454.621 1648.68,440.051 1650.73,456.931 1652.78,456.545 1654.83,430.997 1656.89,435.934 1658.94,297.774 1660.99,312.566 1663.05,312.751 1665.1,321.925 1667.15,313.396 1669.2,313.184 1671.26,313.267 1673.31,325.505 1675.36,323.565 1677.42,328.525 1679.47,330.324 1681.52,329.98 1683.57,333.271 1685.63,291.257 1687.68,318.738 1689.73,322.396 1691.79,320.775 1693.84,320.851 1695.89,309.822 1697.94,312.62 1700,311.35 1702.05,335.949 1704.1,329.28 1706.16,401.72 1708.21,402.71 1710.26,401.472 1712.32,401.94 1714.37,379.633 1716.42,391.073 1718.47,269.829 1720.53,270.574 1722.58,289.41 1724.63,289.411 1726.69,381.733 1728.74,416.183 1730.79,414.887 1732.84,416.548 1734.9,426.482 1736.95,428.468 1739,432.525 1741.06,424.159 1743.11,349.171 1745.16,340.997 1747.21,326.551 1749.27,331.833 1751.32,333.312 1753.37,359.303 1755.43,359.505 1757.48,361.385 1759.53,364.967 1761.58,365.113 1763.64,376.783 1765.69,323.148 1767.74,323.193 1769.8,330.243 1771.85,332.171 1773.9,327.147 1775.95,313.632 1778.01,341.687 1780.06,378.873 1782.11,379.041 1784.17,377.29 1786.22,377.2 1788.27,406.215 1790.33,324.165 1792.38,306.814 1794.43,323.338 1796.48,345.037 1798.54,342.288 1800.59,354.787 1802.64,385.109 1804.7,383.126 1806.75,383.253 1808.8,464.235 1810.85,464.541 1812.91,424.517 1814.96,408.839 1817.01,408.595 1819.07,286.039 1821.12,326.723 1823.17,490.799 1825.22,361.247 1827.28,361.962 1829.33,328.422 1831.38,339.135 1833.44,342.536 1835.49,398.901 1837.54,405.13 1839.59,405.332 1841.65,411.359 1843.7,431.571 1845.75,435.731 1847.81,369.852 1849.86,385.947 1851.91,388.791 1853.96,370.995 1856.02,403.497 1858.07,411.59 1860.12,352.239 1862.18,337.935 1864.23,343.522 1866.28,339.568 1868.34,339.544 1870.39,329.686 1872.44,329.479 1874.49,335.915 1876.55,339.689 1878.6,338.007 1880.65,341.396 1882.71,299.2 1884.76,313.831 1886.81,313.75 1888.86,314.455 1890.92,377.989 1892.97,378.975 1895.02,369.842 1897.08,365.452 1899.13,365.722 1901.18,368.601 1903.23,367.886 1905.29,418.13 1907.34,410.218 1909.39,420.198 1911.45,402.399 1913.5,399.336 1915.55,399.467 1917.6,363.68 1919.66,356.979 1921.71,360.144 1923.76,408.277 1925.82,415.564 1927.87,416.933 1929.92,417.262 1931.97,418.069 1934.03,397.66 1936.08,381.348 1938.13,376.304 1940.19,378.043 1942.24,377.653 1944.29,359.051 1946.34,317.304 1948.4,299.775 1950.45,342.002 1952.5,341.489 1954.56,346.903 1956.61,389.22 1958.66,384.55 1960.72,383.125 1962.77,376.175 1964.82,377.74 1966.87,364.058 1968.93,363.769 1970.98,363.888 1973.03,366.319 1975.09,374.021 1977.14,362.554 1979.19,360.75 1981.24,360.874 1983.3,408.426 1985.35,397.695 1987.4,396.748 1989.46,380.465 1991.51,365.013 1993.56,367.408 1995.61,366.805 1997.67,367.133 1999.72,370.271 2001.77,372.985 2003.83,372.892 2005.88,394.867 2007.93,361.773 2009.98,361.609 2012.04,361.565 2014.09,361.237 2016.14,361.192 2018.2,359.397 2020.25,406.273 2022.3,403.424 2024.35,402.892 2026.41,388.933 2028.46,390.265 2030.51,390.38 2032.57,419.013 2034.62,418.953 2036.67,418.924 2038.73,419.453 2040.78,415.322 2042.83,413.923 2044.88,414.897 2046.94,414.833 2048.99,409.153 2051.04,412.787 2053.1,411.638 2055.15,406.875 2057.2,406.643 2059.25,386.521 2061.31,382.001 2063.36,390.614 2065.41,394.087 2067.47,381.612 2069.52,377.964 2071.57,377.94 2073.62,370.918 2075.68,373.022 2077.73,358.167 2079.78,325.198 2081.84,331.845 2083.89,327.775 2085.94,326.944 2087.99,333.566 2090.05,327.853 2092.1,328.588 2094.15,328.495 2096.21,327.593 2098.26,328.267 2100.31,328.174 2102.36,344.145 2104.42,344.272 2106.47,386.987 2108.52,367.436 2110.58,372.872 2112.63,379.925 2114.68,373.345 2116.73,373.343 2118.79,372.68 2120.84,372.799 2122.89,372.77 2124.95,369.845 2127,369.857 2129.05,364.23 2131.11,381.673 2133.16,381.421 2135.21,382.985 2137.26,374.201 2139.32,377.045 2141.37,372.778 2143.42,372.075 2145.48,370.238 2147.53,370.205 2149.58,357.639 2151.63,369.848 2153.69,369.981 2155.74,369.935 2157.79,371.969 2159.85,371.948 2161.9,371.43 2163.95,359.266 2166,359.337 2168.06,346.888 2170.11,329.087 2172.16,377.754 2174.22,367.97 2176.27,364.098 2178.32,353.754 2180.37,374.036 2182.43,384.618 2184.48,366.479 2186.53,374.155 2188.59,376.877 2190.64,388.522 2192.69,389.322 2194.74,368.673 2196.8,341.823 2198.85,413.429 2200.9,413.591 2202.96,357.354 2205.01,357.547 2207.06,349.09 2209.12,349.066 2211.17,350.787 2213.22,349.733 2215.27,369.964 2217.33,370.045 2219.38,369.965 2221.43,370.206 2223.49,371.423 2225.54,372.688 2227.59,357.175 2229.64,357.252 2231.7,358.314 2233.75,359.918 2235.8,360.59 2237.86,394.604 2239.91,389.102 2241.96,387.976 2244.01,382.21 2246.07,383.557 2248.12,386.978 2250.17,399.366 2252.23,354.589 2254.28,354.977 2256.33,404.395 2258.38,272.944 2260.44,235.91 2262.49,237.087 2264.54,360.434 2266.6,398.965 2268.65,394.442 2270.7,391.134 2272.75,350.666 2274.81,354.141 2276.86,349.932 2278.91,353.493 2280.97,358.84 2283.02,350.725 2285.07,354.815 2287.12,352.627 2289.18,363.515 2291.23,366.343 "/>
<path clip-path="url(#clip080)" d="M1983.6 172.231 L2280.29 172.231 L2280.29 68.5509 L1983.6 68.5509  Z" fill="#ffffff" fill-rule="evenodd" fill-opacity="1"/>
<polyline clip-path="url(#clip080)" style="stroke:#000000; stroke-linecap:round; stroke-linejoin:round; stroke-width:4; stroke-opacity:1; fill:none" points="1983.6,172.231 2280.29,172.231 2280.29,68.5509 1983.6,68.5509 1983.6,172.231 "/>
<polyline clip-path="url(#clip080)" style="stroke:#009af9; stroke-linecap:round; stroke-linejoin:round; stroke-width:4; stroke-opacity:1; fill:none" points="2007.75,120.391 2152.68,120.391 "/>
<path clip-path="url(#clip080)" d="M2176.83 103.111 L2181.51 103.111 L2181.51 133.736 L2198.34 133.736 L2198.34 137.671 L2176.83 137.671 L2176.83 103.111 Z" fill="#000000" fill-rule="nonzero" fill-opacity="1" /><path clip-path="url(#clip080)" d="M2223.96 104.245 L2223.96 108.805 Q2221.3 107.532 2218.94 106.907 Q2216.58 106.282 2214.38 106.282 Q2210.56 106.282 2208.48 107.764 Q2206.42 109.245 2206.42 111.977 Q2206.42 114.268 2207.78 115.449 Q2209.17 116.606 2213.01 117.324 L2215.84 117.902 Q2221.07 118.898 2223.55 121.421 Q2226.05 123.921 2226.05 128.134 Q2226.05 133.157 2222.67 135.75 Q2219.31 138.342 2212.81 138.342 Q2210.35 138.342 2207.57 137.787 Q2204.82 137.231 2201.86 136.143 L2201.86 131.328 Q2204.7 132.926 2207.44 133.736 Q2210.17 134.546 2212.81 134.546 Q2216.81 134.546 2218.99 132.972 Q2221.16 131.398 2221.16 128.481 Q2221.16 125.935 2219.59 124.5 Q2218.04 123.064 2214.47 122.347 L2211.62 121.791 Q2206.39 120.75 2204.06 118.527 Q2201.72 116.305 2201.72 112.347 Q2201.72 107.764 2204.94 105.125 Q2208.18 102.486 2213.85 102.486 Q2216.28 102.486 2218.8 102.926 Q2221.32 103.366 2223.96 104.245 Z" fill="#000000" fill-rule="nonzero" fill-opacity="1" /><path clip-path="url(#clip080)" d="M2254.06 104.245 L2254.06 108.805 Q2251.39 107.532 2249.03 106.907 Q2246.67 106.282 2244.47 106.282 Q2240.65 106.282 2238.57 107.764 Q2236.51 109.245 2236.51 111.977 Q2236.51 114.268 2237.87 115.449 Q2239.26 116.606 2243.11 117.324 L2245.93 117.902 Q2251.16 118.898 2253.64 121.421 Q2256.14 123.921 2256.14 128.134 Q2256.14 133.157 2252.76 135.75 Q2249.4 138.342 2242.9 138.342 Q2240.44 138.342 2237.67 137.787 Q2234.91 137.231 2231.95 136.143 L2231.95 131.328 Q2234.8 132.926 2237.53 133.736 Q2240.26 134.546 2242.9 134.546 Q2246.9 134.546 2249.08 132.972 Q2251.25 131.398 2251.25 128.481 Q2251.25 125.935 2249.68 124.5 Q2248.13 123.064 2244.56 122.347 L2241.72 121.791 Q2236.49 120.75 2234.15 118.527 Q2231.81 116.305 2231.81 112.347 Q2231.81 107.764 2235.03 105.125 Q2238.27 102.486 2243.94 102.486 Q2246.37 102.486 2248.89 102.926 Q2251.42 103.366 2254.06 104.245 Z" fill="#000000" fill-rule="nonzero" fill-opacity="1" /><path clip-path="url(#clip080)" d="M178.867 1486.45 L2352.76 1486.45 L2352.76 847.244 L178.867 847.244  Z" fill="#ffffff" fill-rule="evenodd" fill-opacity="1"/>
<defs>
  <clipPath id="clip083">
    <rect x="178" y="847" width="2175" height="640"/>
  </clipPath>
</defs>
<polyline clip-path="url(#clip083)" style="stroke:#000000; stroke-linecap:round; stroke-linejoin:round; stroke-width:2; stroke-opacity:0.1; fill:none" points="238.339,1486.45 238.339,847.244 "/>
<polyline clip-path="url(#clip083)" style="stroke:#000000; stroke-linecap:round; stroke-linejoin:round; stroke-width:2; stroke-opacity:0.1; fill:none" points="751.562,1486.45 751.562,847.244 "/>
<polyline clip-path="url(#clip083)" style="stroke:#000000; stroke-linecap:round; stroke-linejoin:round; stroke-width:2; stroke-opacity:0.1; fill:none" points="1264.78,1486.45 1264.78,847.244 "/>
<polyline clip-path="url(#clip083)" style="stroke:#000000; stroke-linecap:round; stroke-linejoin:round; stroke-width:2; stroke-opacity:0.1; fill:none" points="1778.01,1486.45 1778.01,847.244 "/>
<polyline clip-path="url(#clip083)" style="stroke:#000000; stroke-linecap:round; stroke-linejoin:round; stroke-width:2; stroke-opacity:0.1; fill:none" points="2291.23,1486.45 2291.23,847.244 "/>
<polyline clip-path="url(#clip083)" style="stroke:#000000; stroke-linecap:round; stroke-linejoin:round; stroke-width:2; stroke-opacity:0.1; fill:none" points="178.867,1486.45 2352.76,1486.45 "/>
<polyline clip-path="url(#clip083)" style="stroke:#000000; stroke-linecap:round; stroke-linejoin:round; stroke-width:2; stroke-opacity:0.1; fill:none" points="178.867,1326.65 2352.76,1326.65 "/>
<polyline clip-path="url(#clip083)" style="stroke:#000000; stroke-linecap:round; stroke-linejoin:round; stroke-width:2; stroke-opacity:0.1; fill:none" points="178.867,1166.85 2352.76,1166.85 "/>
<polyline clip-path="url(#clip083)" style="stroke:#000000; stroke-linecap:round; stroke-linejoin:round; stroke-width:2; stroke-opacity:0.1; fill:none" points="178.867,1007.05 2352.76,1007.05 "/>
<polyline clip-path="url(#clip083)" style="stroke:#000000; stroke-linecap:round; stroke-linejoin:round; stroke-width:2; stroke-opacity:0.1; fill:none" points="178.867,847.244 2352.76,847.244 "/>
<polyline clip-path="url(#clip080)" style="stroke:#000000; stroke-linecap:round; stroke-linejoin:round; stroke-width:4; stroke-opacity:1; fill:none" points="178.867,1486.45 2352.76,1486.45 "/>
<polyline clip-path="url(#clip080)" style="stroke:#000000; stroke-linecap:round; stroke-linejoin:round; stroke-width:4; stroke-opacity:1; fill:none" points="238.339,1486.45 238.339,1467.55 "/>
<polyline clip-path="url(#clip080)" style="stroke:#000000; stroke-linecap:round; stroke-linejoin:round; stroke-width:4; stroke-opacity:1; fill:none" points="751.562,1486.45 751.562,1467.55 "/>
<polyline clip-path="url(#clip080)" style="stroke:#000000; stroke-linecap:round; stroke-linejoin:round; stroke-width:4; stroke-opacity:1; fill:none" points="1264.78,1486.45 1264.78,1467.55 "/>
<polyline clip-path="url(#clip080)" style="stroke:#000000; stroke-linecap:round; stroke-linejoin:round; stroke-width:4; stroke-opacity:1; fill:none" points="1778.01,1486.45 1778.01,1467.55 "/>
<polyline clip-path="url(#clip080)" style="stroke:#000000; stroke-linecap:round; stroke-linejoin:round; stroke-width:4; stroke-opacity:1; fill:none" points="2291.23,1486.45 2291.23,1467.55 "/>
<path clip-path="url(#clip080)" d="M238.339 1517.37 Q234.728 1517.37 232.899 1520.93 Q231.094 1524.47 231.094 1531.6 Q231.094 1538.71 232.899 1542.27 Q234.728 1545.82 238.339 1545.82 Q241.973 1545.82 243.779 1542.27 Q245.607 1538.71 245.607 1531.6 Q245.607 1524.47 243.779 1520.93 Q241.973 1517.37 238.339 1517.37 M238.339 1513.66 Q244.149 1513.66 247.205 1518.27 Q250.283 1522.85 250.283 1531.6 Q250.283 1540.33 247.205 1544.94 Q244.149 1549.52 238.339 1549.52 Q232.529 1549.52 229.45 1544.94 Q226.395 1540.33 226.395 1531.6 Q226.395 1522.85 229.45 1518.27 Q232.529 1513.66 238.339 1513.66 Z" fill="#000000" fill-rule="nonzero" fill-opacity="1" /><path clip-path="url(#clip080)" d="M715.254 1544.91 L731.574 1544.91 L731.574 1548.85 L709.629 1548.85 L709.629 1544.91 Q712.291 1542.16 716.875 1537.53 Q721.481 1532.88 722.662 1531.53 Q724.907 1529.01 725.787 1527.27 Q726.689 1525.51 726.689 1523.82 Q726.689 1521.07 724.745 1519.33 Q722.824 1517.6 719.722 1517.6 Q717.523 1517.6 715.069 1518.36 Q712.638 1519.13 709.861 1520.68 L709.861 1515.95 Q712.685 1514.82 715.138 1514.24 Q717.592 1513.66 719.629 1513.66 Q725 1513.66 728.194 1516.35 Q731.388 1519.03 731.388 1523.52 Q731.388 1525.65 730.578 1527.57 Q729.791 1529.47 727.685 1532.07 Q727.106 1532.74 724.004 1535.95 Q720.902 1539.15 715.254 1544.91 Z" fill="#000000" fill-rule="nonzero" fill-opacity="1" /><path clip-path="url(#clip080)" d="M741.435 1514.29 L759.791 1514.29 L759.791 1518.22 L745.717 1518.22 L745.717 1526.7 Q746.736 1526.35 747.754 1526.19 Q748.773 1526 749.791 1526 Q755.578 1526 758.958 1529.17 Q762.337 1532.34 762.337 1537.76 Q762.337 1543.34 758.865 1546.44 Q755.393 1549.52 749.073 1549.52 Q746.898 1549.52 744.629 1549.15 Q742.384 1548.78 739.976 1548.04 L739.976 1543.34 Q742.06 1544.47 744.282 1545.03 Q746.504 1545.58 748.981 1545.58 Q752.985 1545.58 755.323 1543.48 Q757.661 1541.37 757.661 1537.76 Q757.661 1534.15 755.323 1532.04 Q752.985 1529.94 748.981 1529.94 Q747.106 1529.94 745.231 1530.35 Q743.379 1530.77 741.435 1531.65 L741.435 1514.29 Z" fill="#000000" fill-rule="nonzero" fill-opacity="1" /><path clip-path="url(#clip080)" d="M781.55 1517.37 Q777.939 1517.37 776.11 1520.93 Q774.305 1524.47 774.305 1531.6 Q774.305 1538.71 776.11 1542.27 Q777.939 1545.82 781.55 1545.82 Q785.184 1545.82 786.99 1542.27 Q788.819 1538.71 788.819 1531.6 Q788.819 1524.47 786.99 1520.93 Q785.184 1517.37 781.55 1517.37 M781.55 1513.66 Q787.36 1513.66 790.416 1518.27 Q793.495 1522.85 793.495 1531.6 Q793.495 1540.33 790.416 1544.94 Q787.36 1549.52 781.55 1549.52 Q775.74 1549.52 772.661 1544.94 Q769.606 1540.33 769.606 1531.6 Q769.606 1522.85 772.661 1518.27 Q775.74 1513.66 781.55 1513.66 Z" fill="#000000" fill-rule="nonzero" fill-opacity="1" /><path clip-path="url(#clip080)" d="M1224.4 1514.29 L1242.76 1514.29 L1242.76 1518.22 L1228.69 1518.22 L1228.69 1526.7 Q1229.7 1526.35 1230.72 1526.19 Q1231.74 1526 1232.76 1526 Q1238.55 1526 1241.93 1529.17 Q1245.31 1532.34 1245.31 1537.76 Q1245.31 1543.34 1241.83 1546.44 Q1238.36 1549.52 1232.04 1549.52 Q1229.87 1549.52 1227.6 1549.15 Q1225.35 1548.78 1222.94 1548.04 L1222.94 1543.34 Q1225.03 1544.47 1227.25 1545.03 Q1229.47 1545.58 1231.95 1545.58 Q1235.95 1545.58 1238.29 1543.48 Q1240.63 1541.37 1240.63 1537.76 Q1240.63 1534.15 1238.29 1532.04 Q1235.95 1529.94 1231.95 1529.94 Q1230.07 1529.94 1228.2 1530.35 Q1226.35 1530.77 1224.4 1531.65 L1224.4 1514.29 Z" fill="#000000" fill-rule="nonzero" fill-opacity="1" /><path clip-path="url(#clip080)" d="M1264.52 1517.37 Q1260.91 1517.37 1259.08 1520.93 Q1257.27 1524.47 1257.27 1531.6 Q1257.27 1538.71 1259.08 1542.27 Q1260.91 1545.82 1264.52 1545.82 Q1268.15 1545.82 1269.96 1542.27 Q1271.79 1538.71 1271.79 1531.6 Q1271.79 1524.47 1269.96 1520.93 Q1268.15 1517.37 1264.52 1517.37 M1264.52 1513.66 Q1270.33 1513.66 1273.38 1518.27 Q1276.46 1522.85 1276.46 1531.6 Q1276.46 1540.33 1273.38 1544.94 Q1270.33 1549.52 1264.52 1549.52 Q1258.71 1549.52 1255.63 1544.94 Q1252.57 1540.33 1252.57 1531.6 Q1252.57 1522.85 1255.63 1518.27 Q1258.71 1513.66 1264.52 1513.66 Z" fill="#000000" fill-rule="nonzero" fill-opacity="1" /><path clip-path="url(#clip080)" d="M1294.68 1517.37 Q1291.07 1517.37 1289.24 1520.93 Q1287.44 1524.47 1287.44 1531.6 Q1287.44 1538.71 1289.24 1542.27 Q1291.07 1545.82 1294.68 1545.82 Q1298.31 1545.82 1300.12 1542.27 Q1301.95 1538.71 1301.95 1531.6 Q1301.95 1524.47 1300.12 1520.93 Q1298.31 1517.37 1294.68 1517.37 M1294.68 1513.66 Q1300.49 1513.66 1303.55 1518.27 Q1306.62 1522.85 1306.62 1531.6 Q1306.62 1540.33 1303.55 1544.94 Q1300.49 1549.52 1294.68 1549.52 Q1288.87 1549.52 1285.79 1544.94 Q1282.74 1540.33 1282.74 1531.6 Q1282.74 1522.85 1285.79 1518.27 Q1288.87 1513.66 1294.68 1513.66 Z" fill="#000000" fill-rule="nonzero" fill-opacity="1" /><path clip-path="url(#clip080)" d="M1736.28 1514.29 L1758.51 1514.29 L1758.51 1516.28 L1745.96 1548.85 L1741.08 1548.85 L1752.88 1518.22 L1736.28 1518.22 L1736.28 1514.29 Z" fill="#000000" fill-rule="nonzero" fill-opacity="1" /><path clip-path="url(#clip080)" d="M1767.67 1514.29 L1786.03 1514.29 L1786.03 1518.22 L1771.95 1518.22 L1771.95 1526.7 Q1772.97 1526.35 1773.99 1526.19 Q1775.01 1526 1776.03 1526 Q1781.82 1526 1785.2 1529.17 Q1788.57 1532.34 1788.57 1537.76 Q1788.57 1543.34 1785.1 1546.44 Q1781.63 1549.52 1775.31 1549.52 Q1773.14 1549.52 1770.87 1549.15 Q1768.62 1548.78 1766.21 1548.04 L1766.21 1543.34 Q1768.3 1544.47 1770.52 1545.03 Q1772.74 1545.58 1775.22 1545.58 Q1779.22 1545.58 1781.56 1543.48 Q1783.9 1541.37 1783.9 1537.76 Q1783.9 1534.15 1781.56 1532.04 Q1779.22 1529.94 1775.22 1529.94 Q1773.34 1529.94 1771.47 1530.35 Q1769.62 1530.77 1767.67 1531.65 L1767.67 1514.29 Z" fill="#000000" fill-rule="nonzero" fill-opacity="1" /><path clip-path="url(#clip080)" d="M1807.79 1517.37 Q1804.18 1517.37 1802.35 1520.93 Q1800.54 1524.47 1800.54 1531.6 Q1800.54 1538.71 1802.35 1542.27 Q1804.18 1545.82 1807.79 1545.82 Q1811.42 1545.82 1813.23 1542.27 Q1815.06 1538.71 1815.06 1531.6 Q1815.06 1524.47 1813.23 1520.93 Q1811.42 1517.37 1807.79 1517.37 M1807.79 1513.66 Q1813.6 1513.66 1816.65 1518.27 Q1819.73 1522.85 1819.73 1531.6 Q1819.73 1540.33 1816.65 1544.94 Q1813.6 1549.52 1807.79 1549.52 Q1801.98 1549.52 1798.9 1544.94 Q1795.84 1540.33 1795.84 1531.6 Q1795.84 1522.85 1798.9 1518.27 Q1801.98 1513.66 1807.79 1513.66 Z" fill="#000000" fill-rule="nonzero" fill-opacity="1" /><path clip-path="url(#clip080)" d="M2235.76 1544.91 L2243.4 1544.91 L2243.4 1518.55 L2235.09 1520.21 L2235.09 1515.95 L2243.35 1514.29 L2248.02 1514.29 L2248.02 1544.91 L2255.66 1544.91 L2255.66 1548.85 L2235.76 1548.85 L2235.76 1544.91 Z" fill="#000000" fill-rule="nonzero" fill-opacity="1" /><path clip-path="url(#clip080)" d="M2275.11 1517.37 Q2271.5 1517.37 2269.67 1520.93 Q2267.86 1524.47 2267.86 1531.6 Q2267.86 1538.71 2269.67 1542.27 Q2271.5 1545.82 2275.11 1545.82 Q2278.74 1545.82 2280.55 1542.27 Q2282.38 1538.71 2282.38 1531.6 Q2282.38 1524.47 2280.55 1520.93 Q2278.74 1517.37 2275.11 1517.37 M2275.11 1513.66 Q2280.92 1513.66 2283.97 1518.27 Q2287.05 1522.85 2287.05 1531.6 Q2287.05 1540.33 2283.97 1544.94 Q2280.92 1549.52 2275.11 1549.52 Q2269.3 1549.52 2266.22 1544.94 Q2263.16 1540.33 2263.16 1531.6 Q2263.16 1522.85 2266.22 1518.27 Q2269.3 1513.66 2275.11 1513.66 Z" fill="#000000" fill-rule="nonzero" fill-opacity="1" /><path clip-path="url(#clip080)" d="M2305.27 1517.37 Q2301.66 1517.37 2299.83 1520.93 Q2298.02 1524.47 2298.02 1531.6 Q2298.02 1538.71 2299.83 1542.27 Q2301.66 1545.82 2305.27 1545.82 Q2308.9 1545.82 2310.71 1542.27 Q2312.54 1538.71 2312.54 1531.6 Q2312.54 1524.47 2310.71 1520.93 Q2308.9 1517.37 2305.27 1517.37 M2305.27 1513.66 Q2311.08 1513.66 2314.14 1518.27 Q2317.21 1522.85 2317.21 1531.6 Q2317.21 1540.33 2314.14 1544.94 Q2311.08 1549.52 2305.27 1549.52 Q2299.46 1549.52 2296.38 1544.94 Q2293.33 1540.33 2293.33 1531.6 Q2293.33 1522.85 2296.38 1518.27 Q2299.46 1513.66 2305.27 1513.66 Z" fill="#000000" fill-rule="nonzero" fill-opacity="1" /><path clip-path="url(#clip080)" d="M2335.43 1517.37 Q2331.82 1517.37 2329.99 1520.93 Q2328.19 1524.47 2328.19 1531.6 Q2328.19 1538.71 2329.99 1542.27 Q2331.82 1545.82 2335.43 1545.82 Q2339.07 1545.82 2340.87 1542.27 Q2342.7 1538.71 2342.7 1531.6 Q2342.7 1524.47 2340.87 1520.93 Q2339.07 1517.37 2335.43 1517.37 M2335.43 1513.66 Q2341.24 1513.66 2344.3 1518.27 Q2347.38 1522.85 2347.38 1531.6 Q2347.38 1540.33 2344.3 1544.94 Q2341.24 1549.52 2335.43 1549.52 Q2329.62 1549.52 2326.54 1544.94 Q2323.49 1540.33 2323.49 1531.6 Q2323.49 1522.85 2326.54 1518.27 Q2329.62 1513.66 2335.43 1513.66 Z" fill="#000000" fill-rule="nonzero" fill-opacity="1" /><polyline clip-path="url(#clip080)" style="stroke:#000000; stroke-linecap:round; stroke-linejoin:round; stroke-width:4; stroke-opacity:1; fill:none" points="178.867,1486.45 178.867,847.244 "/>
<polyline clip-path="url(#clip080)" style="stroke:#000000; stroke-linecap:round; stroke-linejoin:round; stroke-width:4; stroke-opacity:1; fill:none" points="178.867,1486.45 197.764,1486.45 "/>
<polyline clip-path="url(#clip080)" style="stroke:#000000; stroke-linecap:round; stroke-linejoin:round; stroke-width:4; stroke-opacity:1; fill:none" points="178.867,1326.65 197.764,1326.65 "/>
<polyline clip-path="url(#clip080)" style="stroke:#000000; stroke-linecap:round; stroke-linejoin:round; stroke-width:4; stroke-opacity:1; fill:none" points="178.867,1166.85 197.764,1166.85 "/>
<polyline clip-path="url(#clip080)" style="stroke:#000000; stroke-linecap:round; stroke-linejoin:round; stroke-width:4; stroke-opacity:1; fill:none" points="178.867,1007.05 197.764,1007.05 "/>
<polyline clip-path="url(#clip080)" style="stroke:#000000; stroke-linecap:round; stroke-linejoin:round; stroke-width:4; stroke-opacity:1; fill:none" points="178.867,847.244 197.764,847.244 "/>
<path clip-path="url(#clip080)" d="M50.9921 1486.9 L80.6679 1486.9 L80.6679 1490.83 L50.9921 1490.83 L50.9921 1486.9 Z" fill="#000000" fill-rule="nonzero" fill-opacity="1" /><path clip-path="url(#clip080)" d="M91.5706 1499.79 L99.2095 1499.79 L99.2095 1473.43 L90.8993 1475.09 L90.8993 1470.83 L99.1632 1469.17 L103.839 1469.17 L103.839 1499.79 L111.478 1499.79 L111.478 1503.73 L91.5706 1503.73 L91.5706 1499.79 Z" fill="#000000" fill-rule="nonzero" fill-opacity="1" /><path clip-path="url(#clip080)" d="M130.922 1472.25 Q127.311 1472.25 125.482 1475.81 Q123.677 1479.35 123.677 1486.48 Q123.677 1493.59 125.482 1497.15 Q127.311 1500.7 130.922 1500.7 Q134.556 1500.7 136.362 1497.15 Q138.191 1493.59 138.191 1486.48 Q138.191 1479.35 136.362 1475.81 Q134.556 1472.25 130.922 1472.25 M130.922 1468.54 Q136.732 1468.54 139.788 1473.15 Q142.867 1477.73 142.867 1486.48 Q142.867 1495.21 139.788 1499.82 Q136.732 1504.4 130.922 1504.4 Q125.112 1504.4 122.033 1499.82 Q118.978 1495.21 118.978 1486.48 Q118.978 1477.73 122.033 1473.15 Q125.112 1468.54 130.922 1468.54 Z" fill="#000000" fill-rule="nonzero" fill-opacity="1" /><path clip-path="url(#clip080)" d="M82.1494 1327.1 L111.825 1327.1 L111.825 1331.03 L82.1494 1331.03 L82.1494 1327.1 Z" fill="#000000" fill-rule="nonzero" fill-opacity="1" /><path clip-path="url(#clip080)" d="M121.964 1309.37 L140.32 1309.37 L140.32 1313.3 L126.246 1313.3 L126.246 1321.77 Q127.265 1321.43 128.283 1321.27 Q129.302 1321.08 130.32 1321.08 Q136.107 1321.08 139.487 1324.25 Q142.867 1327.42 142.867 1332.84 Q142.867 1338.42 139.394 1341.52 Q135.922 1344.6 129.603 1344.6 Q127.427 1344.6 125.158 1344.23 Q122.913 1343.86 120.506 1343.12 L120.506 1338.42 Q122.589 1339.55 124.811 1340.11 Q127.033 1340.66 129.51 1340.66 Q133.515 1340.66 135.853 1338.56 Q138.191 1336.45 138.191 1332.84 Q138.191 1329.23 135.853 1327.12 Q133.515 1325.01 129.51 1325.01 Q127.635 1325.01 125.76 1325.43 Q123.908 1325.85 121.964 1326.73 L121.964 1309.37 Z" fill="#000000" fill-rule="nonzero" fill-opacity="1" /><path clip-path="url(#clip080)" d="M130.922 1152.64 Q127.311 1152.64 125.482 1156.21 Q123.677 1159.75 123.677 1166.88 Q123.677 1173.99 125.482 1177.55 Q127.311 1181.09 130.922 1181.09 Q134.556 1181.09 136.362 1177.55 Q138.191 1173.99 138.191 1166.88 Q138.191 1159.75 136.362 1156.21 Q134.556 1152.64 130.922 1152.64 M130.922 1148.94 Q136.732 1148.94 139.788 1153.55 Q142.867 1158.13 142.867 1166.88 Q142.867 1175.61 139.788 1180.21 Q136.732 1184.8 130.922 1184.8 Q125.112 1184.8 122.033 1180.21 Q118.978 1175.61 118.978 1166.88 Q118.978 1158.13 122.033 1153.55 Q125.112 1148.94 130.922 1148.94 Z" fill="#000000" fill-rule="nonzero" fill-opacity="1" /><path clip-path="url(#clip080)" d="M121.964 989.765 L140.32 989.765 L140.32 993.7 L126.246 993.7 L126.246 1002.17 Q127.265 1001.83 128.283 1001.66 Q129.302 1001.48 130.32 1001.48 Q136.107 1001.48 139.487 1004.65 Q142.867 1007.82 142.867 1013.24 Q142.867 1018.82 139.394 1021.92 Q135.922 1025 129.603 1025 Q127.427 1025 125.158 1024.63 Q122.913 1024.26 120.506 1023.51 L120.506 1018.82 Q122.589 1019.95 124.811 1020.51 Q127.033 1021.06 129.51 1021.06 Q133.515 1021.06 135.853 1018.95 Q138.191 1016.85 138.191 1013.24 Q138.191 1009.63 135.853 1007.52 Q133.515 1005.41 129.51 1005.41 Q127.635 1005.41 125.76 1005.83 Q123.908 1006.25 121.964 1007.13 L121.964 989.765 Z" fill="#000000" fill-rule="nonzero" fill-opacity="1" /><path clip-path="url(#clip080)" d="M91.5706 860.589 L99.2095 860.589 L99.2095 834.223 L90.8993 835.89 L90.8993 831.631 L99.1632 829.964 L103.839 829.964 L103.839 860.589 L111.478 860.589 L111.478 864.524 L91.5706 864.524 L91.5706 860.589 Z" fill="#000000" fill-rule="nonzero" fill-opacity="1" /><path clip-path="url(#clip080)" d="M130.922 833.043 Q127.311 833.043 125.482 836.608 Q123.677 840.149 123.677 847.279 Q123.677 854.385 125.482 857.95 Q127.311 861.492 130.922 861.492 Q134.556 861.492 136.362 857.95 Q138.191 854.385 138.191 847.279 Q138.191 840.149 136.362 836.608 Q134.556 833.043 130.922 833.043 M130.922 829.339 Q136.732 829.339 139.788 833.946 Q142.867 838.529 142.867 847.279 Q142.867 856.006 139.788 860.612 Q136.732 865.195 130.922 865.195 Q125.112 865.195 122.033 860.612 Q118.978 856.006 118.978 847.279 Q118.978 838.529 122.033 833.946 Q125.112 829.339 130.922 829.339 Z" fill="#000000" fill-rule="nonzero" fill-opacity="1" /><polyline clip-path="url(#clip083)" style="stroke:#009af9; stroke-linecap:round; stroke-linejoin:round; stroke-width:4; stroke-opacity:1; fill:none" points="240.392,1134.89 242.445,1132.68 244.498,1202.77 246.55,1136.52 248.603,1053.24 250.656,1157.76 252.709,1186.79 254.762,1211.89 256.815,1178.55 258.868,1550.47 260.921,1257.35 262.974,1060.79 265.027,1336.81 267.079,1014.12 269.132,908.06 271.185,1097.45 273.238,943.173 275.291,1473.39 277.344,1264.6 279.397,1248.12 281.45,1163.77 283.503,1123.64 285.555,1199.99 287.608,1120.37 289.661,1386.36 291.714,1169.26 293.767,1291.8 295.82,887.114 297.873,2565.57 299.926,1154.19 301.979,1149 304.031,1383 306.084,1378.17 308.137,1074.14 310.19,1189.49 312.243,1143.46 314.296,1166.21 316.349,1202.89 318.402,1162.43 320.455,1163.72 322.507,1144.98 324.56,1161.99 326.613,1172.74 328.666,1155.61 330.719,1162.69 332.772,1173.43 334.825,1168.56 336.878,1161.06 338.931,1164.33 340.984,1415.33 343.036,1151.88 345.089,1112.9 347.142,1210.29 349.195,1066.54 351.248,1142.33 353.301,1203.16 355.354,1130.68 357.407,1146.03 359.46,1148.29 361.512,1162.14 363.565,1181.27 365.618,1187.18 367.671,1205 369.724,1112.08 371.777,1141.59 373.83,1180.46 375.883,1179.11 377.936,1136.99 379.988,1145.51 382.041,1120.25 384.094,1124.97 386.147,1137.35 388.2,1171.84 390.253,1162.44 392.306,1173.4 394.359,1230.73 396.412,1175.15 398.464,1159.35 400.517,1167.47 402.57,1154.43 404.623,1191.29 406.676,1090.23 408.729,1231.35 410.782,1204.47 412.835,1168.17 414.888,1211.58 416.94,1188.84 418.993,1188.45 421.046,1157.06 423.099,1123.01 425.152,1246.29 427.205,1274.82 429.258,1016.54 431.311,1172.06 433.364,1158.28 435.417,1274.3 437.469,1202.65 439.522,1213.69 441.575,1151.3 443.628,1127.96 445.681,1206.36 447.734,1117.3 449.787,1188.26 451.84,1211.89 453.893,1241.49 455.945,1213.21 457.998,1186.72 460.051,1180.86 462.104,1174.93 464.157,1168.5 466.21,1193.47 468.263,1181.94 470.316,1181.76 472.369,1171.52 474.421,1132.65 476.474,1105.9 478.527,1199.38 480.58,1209.65 482.633,1145.04 484.686,1196.21 486.739,1145.76 488.792,1137.11 490.845,1190.54 492.897,1149.45 494.95,1169.16 497.003,1135.64 499.056,1083.76 501.109,1139.29 503.162,1126.86 505.215,1131.32 507.268,2042.36 509.321,1364.73 511.374,931.941 513.426,1333.97 515.479,1182.9 517.532,1278.53 519.585,815.593 521.638,1044.3 523.691,1188.92 525.744,1062.77 527.797,1268.82 529.85,1160.44 531.902,1182.47 533.955,1206.04 536.008,1189.75 538.061,1194.43 540.114,1274.93 542.167,1306.52 544.22,1238.24 546.273,1332.12 548.326,1384.14 550.378,-577.84 552.431,-267.919 554.484,1261.48 556.537,1132.63 558.59,1156.35 560.643,1170.47 562.696,1183.97 564.749,1169.43 566.802,1161.06 568.854,1159.59 570.907,1152.67 572.96,1155 575.013,1120.92 577.066,1281.65 579.119,1319.17 581.172,1205.33 583.225,1179.01 585.278,1240.11 587.331,978.518 589.383,909.154 591.436,1527.18 593.489,1095.7 595.542,1113.82 597.595,1173.02 599.648,1171.27 601.701,1171.13 603.754,1176.66 605.807,1138.2 607.859,1209.06 609.912,1136.14 611.965,1193.08 614.018,1155.41 616.071,1177.64 618.124,1191.15 620.177,1193.13 622.23,1204.9 624.283,1135.77 626.335,1148.84 628.388,1138.48 630.441,1150.44 632.494,1214.85 634.547,1201.61 636.6,945.77 638.653,1092.01 640.706,1300.88 642.759,1300.34 644.811,1173.5 646.864,1173.64 648.917,1167.21 650.97,1172.65 653.023,1136.19 655.076,1191.09 657.129,1117.76 659.182,1172.43 661.235,1168 663.288,1136.84 665.34,1146.59 667.393,1147.63 669.446,1595.81 671.499,-321.218 673.552,823.026 675.605,1154.64 677.658,1176.23 679.711,1167.34 681.764,1151.29 683.816,1146.61 685.869,992.612 687.922,1087.64 689.975,1207.66 692.028,1163.49 694.081,1157.05 696.134,1197.96 698.187,1147.22 700.24,1316.06 702.292,1115.49 704.345,1159.54 706.398,1153.79 708.451,1171.98 710.504,1108.5 712.557,1218.54 714.61,1133.22 716.663,1109.33 718.716,1115.39 720.768,1158.52 722.821,1146.17 724.874,1146.49 726.927,1233.27 728.98,961.022 731.033,1022.82 733.086,227.449 735.139,2249.13 737.192,-879.83 739.245,-2614.92 741.297,-14765.6 743.35,5004.02 745.403,-1298.15 747.456,-2062.44 749.509,3877.83 751.562,3091.81 753.615,3412.96 755.668,588.559 757.721,1383.08 759.773,395.479 761.826,1425.43 763.879,1424.03 765.932,1674.22 767.985,332.513 770.038,1291.02 772.091,1020.84 774.144,1285.99 776.197,1441.11 778.249,3914.23 780.302,3215.65 782.355,1136.83 784.408,1094.71 786.461,1176.19 788.514,1221.72 790.567,1206.02 792.62,1185.76 794.673,1224.41 796.725,1184.42 798.778,1159.37 800.831,1191.67 802.884,1181.45 804.937,1174.94 806.99,1059.63 809.043,1174.81 811.096,1176.17 813.149,1187.9 815.202,1155.11 817.254,1178.4 819.307,790.809 821.36,653.115 823.413,1086.73 825.466,1146.03 827.519,1135.19 829.572,1154.84 831.625,1120.58 833.678,1156.72 835.73,1071.35 837.783,1125.63 839.836,1206.72 841.889,1204.02 843.942,1176.26 845.995,1186.03 848.048,1140.95 850.101,1124.95 852.154,1143.14 854.206,1190.21 856.259,1207.15 858.312,1109.19 860.365,1156.11 862.418,1226.16 864.471,1103.71 866.524,1132.79 868.577,1145.51 870.63,1168.13 872.682,1164.06 874.735,1186.2 876.788,1176.89 878.841,1084.04 880.894,1077.23 882.947,1229.42 885,1181.93 887.053,1184.28 889.106,1197.38 891.159,1160.8 893.211,1235.05 895.264,1164.52 897.317,1123.21 899.37,1163.68 901.423,1187.2 903.476,1203.79 905.529,1165.93 907.582,1163.16 909.635,1170.07 911.687,1124.22 913.74,1158.79 915.793,1235.1 917.846,1259.5 919.899,1134.44 921.952,1137.78 924.005,1079.94 926.058,1121.72 928.111,1325.92 930.163,1135.75 932.216,1197.43 934.269,1094.04 936.322,1162.56 938.375,1171.96 940.428,1150.22 942.481,1195.37 944.534,1184.9 946.587,1151.97 948.639,1215.79 950.692,1169.27 952.745,1146.02 954.798,1202.71 956.851,1165.49 958.904,1176.11 960.957,1183.63 963.01,1210.79 965.063,1229.25 967.116,1202.31 969.168,1189.2 971.221,1198.23 973.274,1216.93 975.327,1244.4 977.38,1152.74 979.433,1216.15 981.486,1212.15 983.539,1203.83 985.592,1179.05 987.644,1177.46 989.697,1098.51 991.75,1181.77 993.803,1103.02 995.856,1142.31 997.909,1188.62 999.962,1154.12 1002.01,1186.62 1004.07,1155.01 1006.12,1176.53 1008.17,1180.01 1010.23,1144.88 1012.28,1146.68 1014.33,1187.36 1016.38,1291.79 1018.44,1291.09 1020.49,1158.62 1022.54,1171.79 1024.6,1173.3 1026.65,1178.02 1028.7,1171.38 1030.76,1175.32 1032.81,1185.04 1034.86,1188.95 1036.91,1189.81 1038.97,1181.05 1041.02,1154.54 1043.07,1168.63 1045.13,1167.66 1047.18,1156.97 1049.23,1162.7 1051.28,1147.3 1053.34,1137.37 1055.39,1205.11 1057.44,1160.51 1059.5,1180.63 1061.55,1196.47 1063.6,1229.72 1065.65,1063.38 1067.71,1124.63 1069.76,1090.79 1071.81,1115.64 1073.87,1107.22 1075.92,1199.96 1077.97,1179.92 1080.02,1139.59 1082.08,1132.73 1084.13,1175.51 1086.18,1190.22 1088.24,1197.29 1090.29,1148.62 1092.34,1158.72 1094.39,1192.1 1096.45,1166.27 1098.5,1152.23 1100.55,1169.16 1102.61,1174.85 1104.66,1164.99 1106.71,1174.53 1108.77,1168.55 1110.82,1178.12 1112.87,1178.49 1114.92,1199.84 1116.98,1147.31 1119.03,1134.17 1121.08,1186.45 1123.14,1142.03 1125.19,1303.31 1127.24,1267.81 1129.29,1077.05 1131.35,948.987 1133.4,1305.18 1135.45,1365.06 1137.51,1176.93 1139.56,1188.97 1141.61,1186.75 1143.66,1254.22 1145.72,1055.91 1147.77,1128.86 1149.82,1160.89 1151.88,1166.61 1153.93,1151.5 1155.98,1187.37 1158.03,1153.71 1160.09,1106.65 1162.14,1259.39 1164.19,1141.81 1166.25,1200.45 1168.3,1201.47 1170.35,1143.7 1172.4,1099.76 1174.46,1090.24 1176.51,1236.69 1178.56,1196.74 1180.62,1183.28 1182.67,1187.54 1184.72,1148.17 1186.77,1198.8 1188.83,1036.34 1190.88,1263.26 1192.93,1274.87 1194.99,1112.34 1197.04,1132.22 1199.09,1114.96 1201.15,1181.79 1203.2,1168.25 1205.25,1175.34 1207.3,1124.22 1209.36,1256.33 1211.41,1220.05 1213.46,1125.02 1215.52,1196.72 1217.57,1151.99 1219.62,1189.51 1221.67,1152.07 1223.73,1211.58 1225.78,1181.43 1227.83,1179.83 1229.89,1138.38 1231.94,1133.79 1233.99,807.793 1236.04,1261.61 1238.1,1251.21 1240.15,1273.15 1242.2,1181.68 1244.26,1238.27 1246.31,1159.44 1248.36,1150.58 1250.41,1288.12 1252.47,852.94 1254.52,1116.46 1256.57,1158.01 1258.63,1147.71 1260.68,1420.17 1262.73,1209.55 1264.78,1193.55 1266.84,1169.27 1268.89,1118.91 1270.94,1169.81 1273,1239.22 1275.05,1250.3 1277.1,1113.1 1279.16,1150.34 1281.21,1109.42 1283.26,1165.99 1285.31,1207.56 1287.37,1189.68 1289.42,1173.7 1291.47,1164.55 1293.53,1193.1 1295.58,1215.26 1297.63,1231.87 1299.68,1239.23 1301.74,1136.99 1303.79,1126.89 1305.84,1229.83 1307.9,1208.19 1309.95,1171.87 1312,1162.71 1314.05,1165.05 1316.11,1165.76 1318.16,1191.25 1320.21,1309.93 1322.27,1277.53 1324.32,1593.05 1326.37,1092.62 1328.42,1180.28 1330.48,1017.17 1332.53,1049.62 1334.58,876.348 1336.64,1581.95 1338.69,983.845 1340.74,1273.62 1342.79,1366.98 1344.85,984.28 1346.9,1218.71 1348.95,1365.2 1351.01,1148.7 1353.06,1309.92 1355.11,1151.57 1357.16,1150.73 1359.22,1158.24 1361.27,1166.96 1363.32,1171.13 1365.38,1165.62 1367.43,1133.44 1369.48,1173.75 1371.54,1197.41 1373.59,1189.1 1375.64,1177.81 1377.69,1150.62 1379.75,1133.29 1381.8,1136.71 1383.85,1130.65 1385.91,1175.47 1387.96,1105.76 1390.01,1244.75 1392.06,408.195 1394.12,1128.84 1396.17,1174.56 1398.22,1191.57 1400.28,1125.89 1402.33,1120.67 1404.38,1093.98 1406.43,629.012 1408.49,1114.83 1410.54,1120.24 1412.59,1121.04 1414.65,1451.49 1416.7,1202 1418.75,1175.79 1420.8,1215.46 1422.86,1324.11 1424.91,1071.47 1426.96,701.779 1429.02,1246.35 1431.07,1394.3 1433.12,971.312 1435.17,1196.89 1437.23,1178.07 1439.28,1193.95 1441.33,1151.35 1443.39,1215.36 1445.44,1134.05 1447.49,1276.19 1449.55,1151.66 1451.6,1307.54 1453.65,1033.21 1455.7,1196.37 1457.76,977.414 1459.81,1254.1 1461.86,1048.81 1463.92,1385.52 1465.97,1228.67 1468.02,731.24 1470.07,1168.19 1472.13,1127.94 1474.18,1589.02 1476.23,1923.99 1478.29,1351.67 1480.34,-4047.58 1482.39,-1332.7 1484.44,513.864 1486.5,1356.27 1488.55,1128.67 1490.6,981.045 1492.66,1370.98 1494.71,1099.54 1496.76,1142.34 1498.81,1173.21 1500.87,1189.91 1502.92,1181.28 1504.97,1189.24 1507.03,1198.92 1509.08,1177.81 1511.13,1150.23 1513.18,1165.16 1515.24,1157.11 1517.29,1215.95 1519.34,1184.83 1521.4,1113.41 1523.45,1091.73 1525.5,1122.86 1527.55,1169.65 1529.61,1162.25 1531.66,1219.86 1533.71,1310.13 1535.77,1223.16 1537.82,1100.69 1539.87,1112.05 1541.93,1227.31 1543.98,1171.62 1546.03,1154.13 1548.08,1171.97 1550.14,1124.41 1552.19,1163.51 1554.24,1208.83 1556.3,1125.57 1558.35,1146.05 1560.4,1140.2 1562.45,1235.69 1564.51,1152.41 1566.56,1177.27 1568.61,1185.78 1570.67,1339.05 1572.72,1199.08 1574.77,1158.95 1576.82,1137.8 1578.88,1210.43 1580.93,1032.89 1582.98,1344.97 1585.04,1018.18 1587.09,1053.82 1589.14,1159.05 1591.19,1157.42 1593.25,1124.6 1595.3,1144.55 1597.35,1328.55 1599.41,1146.81 1601.46,1178.09 1603.51,1269.52 1605.56,1126.12 1607.62,1078.6 1609.67,1172.62 1611.72,1171.45 1613.78,1167.68 1615.83,1172.5 1617.88,1142.41 1619.94,1116.96 1621.99,1147.07 1624.04,1158.4 1626.09,1135.87 1628.15,1150.04 1630.2,1161.48 1632.25,1161.73 1634.31,1131.96 1636.36,1190.75 1638.41,1131.24 1640.46,1128.89 1642.52,1175.29 1644.57,1168.59 1646.62,1164.14 1648.68,1204.69 1650.73,1234.91 1652.78,1283.18 1654.83,1099.24 1656.89,1144.16 1658.94,1051.48 1660.99,1247 1663.05,1120.41 1665.1,1232.06 1667.15,1402.31 1669.2,1448.39 1671.26,1151.91 1673.31,1114.81 1675.36,1092.88 1677.42,1190.85 1679.47,1169.08 1681.52,1143.1 1683.57,1164.61 1685.63,1187.72 1687.68,1264.44 1689.73,1138.74 1691.79,1163.38 1693.84,1191.23 1695.89,1173.33 1697.94,1181.76 1700,1205.74 1702.05,1183.96 1704.1,1146.05 1706.16,1122.01 1708.21,1155.03 1710.26,1150.96 1712.32,1205.16 1714.37,2873.97 1716.42,2303.39 1718.47,616.459 1720.53,1128.24 1722.58,1165.01 1724.63,1191.63 1726.69,1132.9 1728.74,1165.09 1730.79,1134.79 1732.84,1143.69 1734.9,1215.72 1736.95,1178.81 1739,1181.14 1741.06,1154.51 1743.11,1134.1 1745.16,1240.74 1747.21,1078.95 1749.27,1103.21 1751.32,1271.99 1753.37,1085.12 1755.43,1055.08 1757.48,1249.27 1759.53,1105 1761.58,1159.51 1763.64,1168.53 1765.69,1171.61 1767.74,1166.33 1769.8,1174.89 1771.85,1216.29 1773.9,1173.81 1775.95,1527 1778.01,1072.71 1780.06,1283.06 1782.11,1183.21 1784.17,1305.39 1786.22,950.801 1788.27,1109.1 1790.33,1151.17 1792.38,1196.47 1794.43,1155.02 1796.48,1187.17 1798.54,1178.87 1800.59,1190.06 1802.64,1096.1 1804.7,918.185 1806.75,145.601 1808.8,471.746 1810.85,1003.7 1812.91,1247.07 1814.96,1106.05 1817.01,1138.47 1819.07,1208.8 1821.12,1112.99 1823.17,1109.87 1825.22,1168.87 1827.28,1204.09 1829.33,958.295 1831.38,1055.04 1833.44,1042.94 1835.49,1233.44 1837.54,861.576 1839.59,1557.35 1841.65,2005.53 1843.7,1114.77 1845.75,1550.35 1847.81,845.385 1849.86,1201.64 1851.91,1175.71 1853.96,1169.83 1856.02,1215.03 1858.07,1104.79 1860.12,1162.88 1862.18,1164.41 1864.23,1176.64 1866.28,1192.42 1868.34,1148.23 1870.39,1169.63 1872.44,1146.75 1874.49,1213.25 1876.55,1217.99 1878.6,1271.77 1880.65,1140.75 1882.71,2285.68 1884.76,1265.39 1886.81,1199.77 1888.86,1155.93 1890.92,1161.72 1892.97,1147.65 1895.02,1108.51 1897.08,1311.46 1899.13,1152.81 1901.18,1149.94 1903.23,1115.44 1905.29,1188.3 1907.34,1121.85 1909.39,1145.62 1911.45,1075.14 1913.5,1207.32 1915.55,1124.75 1917.6,1195.62 1919.66,1191.81 1921.71,1178.09 1923.76,1155.46 1925.82,1215.95 1927.87,894.316 1929.92,925.039 1931.97,968.566 1934.03,1194.12 1936.08,1173.04 1938.13,1189.18 1940.19,1070.64 1942.24,1078.69 1944.29,973.351 1946.34,1270.35 1948.4,1221.82 1950.45,1175.49 1952.5,1168.13 1954.56,1169.92 1956.61,1198.44 1958.66,1118.6 1960.72,1139.99 1962.77,1247.62 1964.82,1254.84 1966.87,1252.89 1968.93,1215.17 1970.98,1133.8 1973.03,1157.37 1975.09,1193.2 1977.14,1152.81 1979.19,1167.99 1981.24,1134.35 1983.3,1154.92 1985.35,1167.25 1987.4,1135.56 1989.46,1149.83 1991.51,1187.67 1993.56,1150.27 1995.61,1186.3 1997.67,1085.57 1999.72,975.778 2001.77,712.571 2003.83,978.549 2005.88,1176.29 2007.93,1161.32 2009.98,1174.11 2012.04,1171.74 2014.09,1116.24 2016.14,1198.17 2018.2,1151.64 2020.25,1165.15 2022.3,1167.38 2024.35,1151.26 2026.41,1151.7 2028.46,1196.67 2030.51,1155 2032.57,1184.65 2034.62,1177.31 2036.67,1202.39 2038.73,1193.59 2040.78,1193.3 2042.83,1122.5 2044.88,1115.9 2046.94,1161.04 2048.99,1163.69 2051.04,1172.58 2053.1,1169.25 2055.15,1162.26 2057.2,1177.24 2059.25,1238.84 2061.31,1179.13 2063.36,1146.16 2065.41,783.555 2067.47,1546.94 2069.52,1476.04 2071.57,1029.66 2073.62,1247.49 2075.68,1152.15 2077.73,1198.17 2079.78,1200.54 2081.84,1159.71 2083.89,1155.83 2085.94,1103.46 2087.99,1126.44 2090.05,1141.73 2092.1,978.05 2094.15,1091.58 2096.21,1249.03 2098.26,1143.93 2100.31,1195.99 2102.36,1161.67 2104.42,1207.26 2106.47,1160.81 2108.52,1176.39 2110.58,1188.07 2112.63,1193.26 2114.68,1234.12 2116.73,1228.86 2118.79,1052.95 2120.84,1053.65 2122.89,1069.42 2124.95,1083.16 2127,1147.74 2129.05,1190.42 2131.11,1148.85 2133.16,1174.66 2135.21,1144.88 2137.26,1182.79 2139.32,1101.05 2141.37,1110.88 2143.42,1179.52 2145.48,1152.29 2147.53,1207.75 2149.58,1102.12 2151.63,1081.06 2153.69,1105.37 2155.74,1177.97 2157.79,1173.31 2159.85,1164.57 2161.9,1163.57 2163.95,1165.9 2166,1167.88 2168.06,1162.92 2170.11,1160.72 2172.16,1253.41 2174.22,1155.87 2176.27,1154.01 2178.32,1132.22 2180.37,1144.22 2182.43,1014 2184.48,1684.6 2186.53,705.839 2188.59,1709.28 2190.64,448.244 2192.69,1493.98 2194.74,1624.9 2196.8,822.109 2198.85,1493.57 2200.9,1171.87 2202.96,1132.54 2205.01,1166.34 2207.06,1178.74 2209.12,1157.97 2211.17,1167.37 2213.22,1180.99 2215.27,1184.28 2217.33,1176.09 2219.38,1189.8 2221.43,1175.07 2223.49,1108.3 2225.54,1119.8 2227.59,1175.59 2229.64,1172.12 2231.7,1165.19 2233.75,1211.33 2235.8,1192.05 2237.86,1134.07 2239.91,1157.2 2241.96,1166.92 2244.01,1189.13 2246.07,1238.23 2248.12,1150.38 2250.17,1185.98 2252.23,1120.95 2254.28,1141.34 2256.33,1070.27 2258.38,1209.37 2260.44,1156.73 2262.49,1189.85 2264.54,1240.73 2266.6,1146.21 2268.65,1187.81 2270.7,1157.41 2272.75,1183.21 2274.81,1144.05 2276.86,1151.22 2278.91,1138.9 2280.97,1181.62 2283.02,1174.29 2285.07,1099.06 2287.12,1132.55 2289.18,1193.85 2291.23,1153.78 "/>
<path clip-path="url(#clip080)" d="M1942.7 1465.14 L2280.29 1465.14 L2280.29 1361.46 L1942.7 1361.46  Z" fill="#ffffff" fill-rule="evenodd" fill-opacity="1"/>
<polyline clip-path="url(#clip080)" style="stroke:#000000; stroke-linecap:round; stroke-linejoin:round; stroke-width:4; stroke-opacity:1; fill:none" points="1942.7,1465.14 2280.29,1465.14 2280.29,1361.46 1942.7,1361.46 1942.7,1465.14 "/>
<polyline clip-path="url(#clip080)" style="stroke:#009af9; stroke-linecap:round; stroke-linejoin:round; stroke-width:4; stroke-opacity:1; fill:none" points="1966.85,1413.3 2111.78,1413.3 "/>
<path clip-path="url(#clip080)" d="M2161.49 1425.65 L2161.49 1416.37 L2153.85 1416.37 L2153.85 1412.53 L2166.12 1412.53 L2166.12 1427.36 Q2163.41 1429.28 2160.14 1430.28 Q2156.88 1431.25 2153.18 1431.25 Q2145.07 1431.25 2140.49 1426.53 Q2135.93 1421.78 2135.93 1413.34 Q2135.93 1404.86 2140.49 1400.14 Q2145.07 1395.4 2153.18 1395.4 Q2156.56 1395.4 2159.59 1396.23 Q2162.64 1397.06 2165.21 1398.68 L2165.21 1403.66 Q2162.62 1401.46 2159.7 1400.35 Q2156.79 1399.24 2153.57 1399.24 Q2147.23 1399.24 2144.03 1402.78 Q2140.86 1406.32 2140.86 1413.34 Q2140.86 1420.33 2144.03 1423.87 Q2147.23 1427.41 2153.57 1427.41 Q2156.05 1427.41 2157.99 1426.99 Q2159.94 1426.55 2161.49 1425.65 Z" fill="#000000" fill-rule="nonzero" fill-opacity="1" /><path clip-path="url(#clip080)" d="M2179.33 1399.86 L2179.33 1412.85 L2185.21 1412.85 Q2188.48 1412.85 2190.26 1411.16 Q2192.04 1409.47 2192.04 1406.35 Q2192.04 1403.24 2190.26 1401.55 Q2188.48 1399.86 2185.21 1399.86 L2179.33 1399.86 M2174.66 1396.02 L2185.21 1396.02 Q2191.02 1396.02 2193.99 1398.66 Q2196.97 1401.28 2196.97 1406.35 Q2196.97 1411.46 2193.99 1414.08 Q2191.02 1416.69 2185.21 1416.69 L2179.33 1416.69 L2179.33 1430.58 L2174.66 1430.58 L2174.66 1396.02 Z" fill="#000000" fill-rule="nonzero" fill-opacity="1" /><path clip-path="url(#clip080)" d="M2223.96 1397.16 L2223.96 1401.72 Q2221.3 1400.44 2218.94 1399.82 Q2216.58 1399.19 2214.38 1399.19 Q2210.56 1399.19 2208.48 1400.67 Q2206.42 1402.16 2206.42 1404.89 Q2206.42 1407.18 2207.78 1408.36 Q2209.17 1409.52 2213.01 1410.23 L2215.84 1410.81 Q2221.07 1411.81 2223.55 1414.33 Q2226.05 1416.83 2226.05 1421.04 Q2226.05 1426.07 2222.67 1428.66 Q2219.31 1431.25 2212.81 1431.25 Q2210.35 1431.25 2207.57 1430.7 Q2204.82 1430.14 2201.86 1429.05 L2201.86 1424.24 Q2204.7 1425.84 2207.44 1426.65 Q2210.17 1427.46 2212.81 1427.46 Q2216.81 1427.46 2218.99 1425.88 Q2221.16 1424.31 2221.16 1421.39 Q2221.16 1418.85 2219.59 1417.41 Q2218.04 1415.97 2214.47 1415.26 L2211.62 1414.7 Q2206.39 1413.66 2204.06 1411.44 Q2201.72 1409.22 2201.72 1405.26 Q2201.72 1400.67 2204.94 1398.03 Q2208.18 1395.4 2213.85 1395.4 Q2216.28 1395.4 2218.8 1395.84 Q2221.32 1396.28 2223.96 1397.16 Z" fill="#000000" fill-rule="nonzero" fill-opacity="1" /><path clip-path="url(#clip080)" d="M2254.06 1397.16 L2254.06 1401.72 Q2251.39 1400.44 2249.03 1399.82 Q2246.67 1399.19 2244.47 1399.19 Q2240.65 1399.19 2238.57 1400.67 Q2236.51 1402.16 2236.51 1404.89 Q2236.51 1407.18 2237.87 1408.36 Q2239.26 1409.52 2243.11 1410.23 L2245.93 1410.81 Q2251.16 1411.81 2253.64 1414.33 Q2256.14 1416.83 2256.14 1421.04 Q2256.14 1426.07 2252.76 1428.66 Q2249.4 1431.25 2242.9 1431.25 Q2240.44 1431.25 2237.67 1430.7 Q2234.91 1430.14 2231.95 1429.05 L2231.95 1424.24 Q2234.8 1425.84 2237.53 1426.65 Q2240.26 1427.46 2242.9 1427.46 Q2246.9 1427.46 2249.08 1425.88 Q2251.25 1424.31 2251.25 1421.39 Q2251.25 1418.85 2249.68 1417.41 Q2248.13 1415.97 2244.56 1415.26 L2241.72 1414.7 Q2236.49 1413.66 2234.15 1411.44 Q2231.81 1409.22 2231.81 1405.26 Q2231.81 1400.67 2235.03 1398.03 Q2238.27 1395.4 2243.94 1395.4 Q2246.37 1395.4 2248.89 1395.84 Q2251.42 1396.28 2254.06 1397.16 Z" fill="#000000" fill-rule="nonzero" fill-opacity="1" /></svg>
