<?xml version="1.0" encoding="utf-8"?>
<svg xmlns="http://www.w3.org/2000/svg" xmlns:xlink="http://www.w3.org/1999/xlink" width="600" height="400" viewBox="0 0 2400 1600">
<defs>
  <clipPath id="clip510">
    <rect x="0" y="0" width="2400" height="1600"/>
  </clipPath>
</defs>
<path clip-path="url(#clip510)" d="M0 1600 L2400 1600 L2400 0 L0 0  Z" fill="#ffffff" fill-rule="evenodd" fill-opacity="1"/>
<defs>
  <clipPath id="clip511">
    <rect x="480" y="0" width="1681" height="1600"/>
  </clipPath>
</defs>
<path clip-path="url(#clip510)" d="M178.867 686.448 L2352.76 686.448 L2352.76 47.2441 L178.867 47.2441  Z" fill="#ffffff" fill-rule="evenodd" fill-opacity="1"/>
<defs>
  <clipPath id="clip512">
    <rect x="178" y="47" width="2175" height="640"/>
  </clipPath>
</defs>
<polyline clip-path="url(#clip512)" style="stroke:#000000; stroke-linecap:round; stroke-linejoin:round; stroke-width:2; stroke-opacity:0.1; fill:none" points="238.339,686.448 238.339,47.2441 "/>
<polyline clip-path="url(#clip512)" style="stroke:#000000; stroke-linecap:round; stroke-linejoin:round; stroke-width:2; stroke-opacity:0.1; fill:none" points="751.562,686.448 751.562,47.2441 "/>
<polyline clip-path="url(#clip512)" style="stroke:#000000; stroke-linecap:round; stroke-linejoin:round; stroke-width:2; stroke-opacity:0.1; fill:none" points="1264.78,686.448 1264.78,47.2441 "/>
<polyline clip-path="url(#clip512)" style="stroke:#000000; stroke-linecap:round; stroke-linejoin:round; stroke-width:2; stroke-opacity:0.1; fill:none" points="1778.01,686.448 1778.01,47.2441 "/>
<polyline clip-path="url(#clip512)" style="stroke:#000000; stroke-linecap:round; stroke-linejoin:round; stroke-width:2; stroke-opacity:0.1; fill:none" points="2291.23,686.448 2291.23,47.2441 "/>
<polyline clip-path="url(#clip512)" style="stroke:#000000; stroke-linecap:round; stroke-linejoin:round; stroke-width:2; stroke-opacity:0.1; fill:none" points="178.867,686.448 2352.76,686.448 "/>
<polyline clip-path="url(#clip512)" style="stroke:#000000; stroke-linecap:round; stroke-linejoin:round; stroke-width:2; stroke-opacity:0.1; fill:none" points="178.867,526.647 2352.76,526.647 "/>
<polyline clip-path="url(#clip512)" style="stroke:#000000; stroke-linecap:round; stroke-linejoin:round; stroke-width:2; stroke-opacity:0.1; fill:none" points="178.867,366.846 2352.76,366.846 "/>
<polyline clip-path="url(#clip512)" style="stroke:#000000; stroke-linecap:round; stroke-linejoin:round; stroke-width:2; stroke-opacity:0.1; fill:none" points="178.867,207.045 2352.76,207.045 "/>
<polyline clip-path="url(#clip512)" style="stroke:#000000; stroke-linecap:round; stroke-linejoin:round; stroke-width:2; stroke-opacity:0.1; fill:none" points="178.867,47.2441 2352.76,47.2441 "/>
<polyline clip-path="url(#clip510)" style="stroke:#000000; stroke-linecap:round; stroke-linejoin:round; stroke-width:4; stroke-opacity:1; fill:none" points="178.867,686.448 2352.76,686.448 "/>
<polyline clip-path="url(#clip510)" style="stroke:#000000; stroke-linecap:round; stroke-linejoin:round; stroke-width:4; stroke-opacity:1; fill:none" points="238.339,686.448 238.339,667.55 "/>
<polyline clip-path="url(#clip510)" style="stroke:#000000; stroke-linecap:round; stroke-linejoin:round; stroke-width:4; stroke-opacity:1; fill:none" points="751.562,686.448 751.562,667.55 "/>
<polyline clip-path="url(#clip510)" style="stroke:#000000; stroke-linecap:round; stroke-linejoin:round; stroke-width:4; stroke-opacity:1; fill:none" points="1264.78,686.448 1264.78,667.55 "/>
<polyline clip-path="url(#clip510)" style="stroke:#000000; stroke-linecap:round; stroke-linejoin:round; stroke-width:4; stroke-opacity:1; fill:none" points="1778.01,686.448 1778.01,667.55 "/>
<polyline clip-path="url(#clip510)" style="stroke:#000000; stroke-linecap:round; stroke-linejoin:round; stroke-width:4; stroke-opacity:1; fill:none" points="2291.23,686.448 2291.23,667.55 "/>
<path clip-path="url(#clip510)" d="M238.339 717.367 Q234.728 717.367 232.899 720.931 Q231.094 724.473 231.094 731.603 Q231.094 738.709 232.899 742.274 Q234.728 745.815 238.339 745.815 Q241.973 745.815 243.779 742.274 Q245.607 738.709 245.607 731.603 Q245.607 724.473 243.779 720.931 Q241.973 717.367 238.339 717.367 M238.339 713.663 Q244.149 713.663 247.205 718.269 Q250.283 722.853 250.283 731.603 Q250.283 740.329 247.205 744.936 Q244.149 749.519 238.339 749.519 Q232.529 749.519 229.45 744.936 Q226.395 740.329 226.395 731.603 Q226.395 722.853 229.45 718.269 Q232.529 713.663 238.339 713.663 Z" fill="#000000" fill-rule="nonzero" fill-opacity="1" /><path clip-path="url(#clip510)" d="M715.254 744.913 L731.574 744.913 L731.574 748.848 L709.629 748.848 L709.629 744.913 Q712.291 742.158 716.875 737.528 Q721.481 732.876 722.662 731.533 Q724.907 729.01 725.787 727.274 Q726.689 725.515 726.689 723.825 Q726.689 721.07 724.745 719.334 Q722.824 717.598 719.722 717.598 Q717.523 717.598 715.069 718.362 Q712.638 719.126 709.861 720.677 L709.861 715.955 Q712.685 714.82 715.138 714.242 Q717.592 713.663 719.629 713.663 Q725 713.663 728.194 716.348 Q731.388 719.033 731.388 723.524 Q731.388 725.654 730.578 727.575 Q729.791 729.473 727.685 732.066 Q727.106 732.737 724.004 735.954 Q720.902 739.149 715.254 744.913 Z" fill="#000000" fill-rule="nonzero" fill-opacity="1" /><path clip-path="url(#clip510)" d="M741.435 714.288 L759.791 714.288 L759.791 718.223 L745.717 718.223 L745.717 726.695 Q746.736 726.348 747.754 726.186 Q748.773 726.001 749.791 726.001 Q755.578 726.001 758.958 729.172 Q762.337 732.343 762.337 737.76 Q762.337 743.339 758.865 746.44 Q755.393 749.519 749.073 749.519 Q746.898 749.519 744.629 749.149 Q742.384 748.778 739.976 748.038 L739.976 743.339 Q742.06 744.473 744.282 745.028 Q746.504 745.584 748.981 745.584 Q752.985 745.584 755.323 743.478 Q757.661 741.371 757.661 737.76 Q757.661 734.149 755.323 732.042 Q752.985 729.936 748.981 729.936 Q747.106 729.936 745.231 730.353 Q743.379 730.769 741.435 731.649 L741.435 714.288 Z" fill="#000000" fill-rule="nonzero" fill-opacity="1" /><path clip-path="url(#clip510)" d="M781.55 717.367 Q777.939 717.367 776.11 720.931 Q774.305 724.473 774.305 731.603 Q774.305 738.709 776.11 742.274 Q777.939 745.815 781.55 745.815 Q785.184 745.815 786.99 742.274 Q788.819 738.709 788.819 731.603 Q788.819 724.473 786.99 720.931 Q785.184 717.367 781.55 717.367 M781.55 713.663 Q787.36 713.663 790.416 718.269 Q793.495 722.853 793.495 731.603 Q793.495 740.329 790.416 744.936 Q787.36 749.519 781.55 749.519 Q775.74 749.519 772.661 744.936 Q769.606 740.329 769.606 731.603 Q769.606 722.853 772.661 718.269 Q775.74 713.663 781.55 713.663 Z" fill="#000000" fill-rule="nonzero" fill-opacity="1" /><path clip-path="url(#clip510)" d="M1224.4 714.288 L1242.76 714.288 L1242.76 718.223 L1228.69 718.223 L1228.69 726.695 Q1229.7 726.348 1230.72 726.186 Q1231.74 726.001 1232.76 726.001 Q1238.55 726.001 1241.93 729.172 Q1245.31 732.343 1245.31 737.76 Q1245.31 743.339 1241.83 746.44 Q1238.36 749.519 1232.04 749.519 Q1229.87 749.519 1227.6 749.149 Q1225.35 748.778 1222.94 748.038 L1222.94 743.339 Q1225.03 744.473 1227.25 745.028 Q1229.47 745.584 1231.95 745.584 Q1235.95 745.584 1238.29 743.478 Q1240.63 741.371 1240.63 737.76 Q1240.63 734.149 1238.29 732.042 Q1235.95 729.936 1231.95 729.936 Q1230.07 729.936 1228.2 730.353 Q1226.35 730.769 1224.4 731.649 L1224.4 714.288 Z" fill="#000000" fill-rule="nonzero" fill-opacity="1" /><path clip-path="url(#clip510)" d="M1264.52 717.367 Q1260.91 717.367 1259.08 720.931 Q1257.27 724.473 1257.27 731.603 Q1257.27 738.709 1259.08 742.274 Q1260.91 745.815 1264.52 745.815 Q1268.15 745.815 1269.96 742.274 Q1271.79 738.709 1271.79 731.603 Q1271.79 724.473 1269.96 720.931 Q1268.15 717.367 1264.52 717.367 M1264.52 713.663 Q1270.33 713.663 1273.38 718.269 Q1276.46 722.853 1276.46 731.603 Q1276.46 740.329 1273.38 744.936 Q1270.33 749.519 1264.52 749.519 Q1258.71 749.519 1255.63 744.936 Q1252.57 740.329 1252.57 731.603 Q1252.57 722.853 1255.63 718.269 Q1258.71 713.663 1264.52 713.663 Z" fill="#000000" fill-rule="nonzero" fill-opacity="1" /><path clip-path="url(#clip510)" d="M1294.68 717.367 Q1291.07 717.367 1289.24 720.931 Q1287.44 724.473 1287.44 731.603 Q1287.44 738.709 1289.24 742.274 Q1291.07 745.815 1294.68 745.815 Q1298.31 745.815 1300.12 742.274 Q1301.95 738.709 1301.95 731.603 Q1301.95 724.473 1300.12 720.931 Q1298.31 717.367 1294.68 717.367 M1294.68 713.663 Q1300.49 713.663 1303.55 718.269 Q1306.62 722.853 1306.62 731.603 Q1306.62 740.329 1303.55 744.936 Q1300.49 749.519 1294.68 749.519 Q1288.87 749.519 1285.79 744.936 Q1282.74 740.329 1282.74 731.603 Q1282.74 722.853 1285.79 718.269 Q1288.87 713.663 1294.68 713.663 Z" fill="#000000" fill-rule="nonzero" fill-opacity="1" /><path clip-path="url(#clip510)" d="M1736.28 714.288 L1758.51 714.288 L1758.51 716.279 L1745.96 748.848 L1741.08 748.848 L1752.88 718.223 L1736.28 718.223 L1736.28 714.288 Z" fill="#000000" fill-rule="nonzero" fill-opacity="1" /><path clip-path="url(#clip510)" d="M1767.67 714.288 L1786.03 714.288 L1786.03 718.223 L1771.95 718.223 L1771.95 726.695 Q1772.97 726.348 1773.99 726.186 Q1775.01 726.001 1776.03 726.001 Q1781.82 726.001 1785.2 729.172 Q1788.57 732.343 1788.57 737.76 Q1788.57 743.339 1785.1 746.44 Q1781.63 749.519 1775.31 749.519 Q1773.14 749.519 1770.87 749.149 Q1768.62 748.778 1766.21 748.038 L1766.21 743.339 Q1768.3 744.473 1770.52 745.028 Q1772.74 745.584 1775.22 745.584 Q1779.22 745.584 1781.56 743.478 Q1783.9 741.371 1783.9 737.76 Q1783.9 734.149 1781.56 732.042 Q1779.22 729.936 1775.22 729.936 Q1773.34 729.936 1771.47 730.353 Q1769.62 730.769 1767.67 731.649 L1767.67 714.288 Z" fill="#000000" fill-rule="nonzero" fill-opacity="1" /><path clip-path="url(#clip510)" d="M1807.79 717.367 Q1804.18 717.367 1802.35 720.931 Q1800.54 724.473 1800.54 731.603 Q1800.54 738.709 1802.35 742.274 Q1804.18 745.815 1807.79 745.815 Q1811.42 745.815 1813.23 742.274 Q1815.06 738.709 1815.06 731.603 Q1815.06 724.473 1813.23 720.931 Q1811.42 717.367 1807.79 717.367 M1807.79 713.663 Q1813.6 713.663 1816.65 718.269 Q1819.73 722.853 1819.73 731.603 Q1819.73 740.329 1816.65 744.936 Q1813.6 749.519 1807.79 749.519 Q1801.98 749.519 1798.9 744.936 Q1795.84 740.329 1795.84 731.603 Q1795.84 722.853 1798.9 718.269 Q1801.98 713.663 1807.79 713.663 Z" fill="#000000" fill-rule="nonzero" fill-opacity="1" /><path clip-path="url(#clip510)" d="M2235.76 744.913 L2243.4 744.913 L2243.4 718.547 L2235.09 720.214 L2235.09 715.955 L2243.35 714.288 L2248.02 714.288 L2248.02 744.913 L2255.66 744.913 L2255.66 748.848 L2235.76 748.848 L2235.76 744.913 Z" fill="#000000" fill-rule="nonzero" fill-opacity="1" /><path clip-path="url(#clip510)" d="M2275.11 717.367 Q2271.5 717.367 2269.67 720.931 Q2267.86 724.473 2267.86 731.603 Q2267.86 738.709 2269.67 742.274 Q2271.5 745.815 2275.11 745.815 Q2278.74 745.815 2280.55 742.274 Q2282.38 738.709 2282.38 731.603 Q2282.38 724.473 2280.55 720.931 Q2278.74 717.367 2275.11 717.367 M2275.11 713.663 Q2280.92 713.663 2283.97 718.269 Q2287.05 722.853 2287.05 731.603 Q2287.05 740.329 2283.97 744.936 Q2280.92 749.519 2275.11 749.519 Q2269.3 749.519 2266.22 744.936 Q2263.16 740.329 2263.16 731.603 Q2263.16 722.853 2266.22 718.269 Q2269.3 713.663 2275.11 713.663 Z" fill="#000000" fill-rule="nonzero" fill-opacity="1" /><path clip-path="url(#clip510)" d="M2305.27 717.367 Q2301.66 717.367 2299.83 720.931 Q2298.02 724.473 2298.02 731.603 Q2298.02 738.709 2299.83 742.274 Q2301.66 745.815 2305.27 745.815 Q2308.9 745.815 2310.71 742.274 Q2312.54 738.709 2312.54 731.603 Q2312.54 724.473 2310.71 720.931 Q2308.9 717.367 2305.27 717.367 M2305.27 713.663 Q2311.08 713.663 2314.14 718.269 Q2317.21 722.853 2317.21 731.603 Q2317.21 740.329 2314.14 744.936 Q2311.08 749.519 2305.27 749.519 Q2299.46 749.519 2296.38 744.936 Q2293.33 740.329 2293.33 731.603 Q2293.33 722.853 2296.38 718.269 Q2299.46 713.663 2305.27 713.663 Z" fill="#000000" fill-rule="nonzero" fill-opacity="1" /><path clip-path="url(#clip510)" d="M2335.43 717.367 Q2331.82 717.367 2329.99 720.931 Q2328.19 724.473 2328.19 731.603 Q2328.19 738.709 2329.99 742.274 Q2331.82 745.815 2335.43 745.815 Q2339.07 745.815 2340.87 742.274 Q2342.7 738.709 2342.7 731.603 Q2342.7 724.473 2340.87 720.931 Q2339.07 717.367 2335.43 717.367 M2335.43 713.663 Q2341.24 713.663 2344.3 718.269 Q2347.38 722.853 2347.38 731.603 Q2347.38 740.329 2344.3 744.936 Q2341.24 749.519 2335.43 749.519 Q2329.62 749.519 2326.54 744.936 Q2323.49 740.329 2323.49 731.603 Q2323.49 722.853 2326.54 718.269 Q2329.62 713.663 2335.43 713.663 Z" fill="#000000" fill-rule="nonzero" fill-opacity="1" /><polyline clip-path="url(#clip510)" style="stroke:#000000; stroke-linecap:round; stroke-linejoin:round; stroke-width:4; stroke-opacity:1; fill:none" points="178.867,686.448 178.867,47.2441 "/>
<polyline clip-path="url(#clip510)" style="stroke:#000000; stroke-linecap:round; stroke-linejoin:round; stroke-width:4; stroke-opacity:1; fill:none" points="178.867,686.448 197.764,686.448 "/>
<polyline clip-path="url(#clip510)" style="stroke:#000000; stroke-linecap:round; stroke-linejoin:round; stroke-width:4; stroke-opacity:1; fill:none" points="178.867,526.647 197.764,526.647 "/>
<polyline clip-path="url(#clip510)" style="stroke:#000000; stroke-linecap:round; stroke-linejoin:round; stroke-width:4; stroke-opacity:1; fill:none" points="178.867,366.846 197.764,366.846 "/>
<polyline clip-path="url(#clip510)" style="stroke:#000000; stroke-linecap:round; stroke-linejoin:round; stroke-width:4; stroke-opacity:1; fill:none" points="178.867,207.045 197.764,207.045 "/>
<polyline clip-path="url(#clip510)" style="stroke:#000000; stroke-linecap:round; stroke-linejoin:round; stroke-width:4; stroke-opacity:1; fill:none" points="178.867,47.2441 197.764,47.2441 "/>
<path clip-path="url(#clip510)" d="M50.9921 686.899 L80.6679 686.899 L80.6679 690.834 L50.9921 690.834 L50.9921 686.899 Z" fill="#000000" fill-rule="nonzero" fill-opacity="1" /><path clip-path="url(#clip510)" d="M91.5706 699.793 L99.2095 699.793 L99.2095 673.427 L90.8993 675.094 L90.8993 670.835 L99.1632 669.168 L103.839 669.168 L103.839 699.793 L111.478 699.793 L111.478 703.728 L91.5706 703.728 L91.5706 699.793 Z" fill="#000000" fill-rule="nonzero" fill-opacity="1" /><path clip-path="url(#clip510)" d="M130.922 672.247 Q127.311 672.247 125.482 675.811 Q123.677 679.353 123.677 686.483 Q123.677 693.589 125.482 697.154 Q127.311 700.695 130.922 700.695 Q134.556 700.695 136.362 697.154 Q138.191 693.589 138.191 686.483 Q138.191 679.353 136.362 675.811 Q134.556 672.247 130.922 672.247 M130.922 668.543 Q136.732 668.543 139.788 673.149 Q142.867 677.733 142.867 686.483 Q142.867 695.209 139.788 699.816 Q136.732 704.399 130.922 704.399 Q125.112 704.399 122.033 699.816 Q118.978 695.209 118.978 686.483 Q118.978 677.733 122.033 673.149 Q125.112 668.543 130.922 668.543 Z" fill="#000000" fill-rule="nonzero" fill-opacity="1" /><path clip-path="url(#clip510)" d="M82.1494 527.098 L111.825 527.098 L111.825 531.033 L82.1494 531.033 L82.1494 527.098 Z" fill="#000000" fill-rule="nonzero" fill-opacity="1" /><path clip-path="url(#clip510)" d="M121.964 509.367 L140.32 509.367 L140.32 513.302 L126.246 513.302 L126.246 521.774 Q127.265 521.427 128.283 521.265 Q129.302 521.08 130.32 521.08 Q136.107 521.08 139.487 524.251 Q142.867 527.422 142.867 532.839 Q142.867 538.418 139.394 541.52 Q135.922 544.598 129.603 544.598 Q127.427 544.598 125.158 544.228 Q122.913 543.857 120.506 543.117 L120.506 538.418 Q122.589 539.552 124.811 540.108 Q127.033 540.663 129.51 540.663 Q133.515 540.663 135.853 538.557 Q138.191 536.45 138.191 532.839 Q138.191 529.228 135.853 527.121 Q133.515 525.015 129.51 525.015 Q127.635 525.015 125.76 525.432 Q123.908 525.848 121.964 526.728 L121.964 509.367 Z" fill="#000000" fill-rule="nonzero" fill-opacity="1" /><path clip-path="url(#clip510)" d="M130.922 352.645 Q127.311 352.645 125.482 356.209 Q123.677 359.751 123.677 366.881 Q123.677 373.987 125.482 377.552 Q127.311 381.094 130.922 381.094 Q134.556 381.094 136.362 377.552 Q138.191 373.987 138.191 366.881 Q138.191 359.751 136.362 356.209 Q134.556 352.645 130.922 352.645 M130.922 348.941 Q136.732 348.941 139.788 353.547 Q142.867 358.131 142.867 366.881 Q142.867 375.608 139.788 380.214 Q136.732 384.797 130.922 384.797 Q125.112 384.797 122.033 380.214 Q118.978 375.608 118.978 366.881 Q118.978 358.131 122.033 353.547 Q125.112 348.941 130.922 348.941 Z" fill="#000000" fill-rule="nonzero" fill-opacity="1" /><path clip-path="url(#clip510)" d="M121.964 189.765 L140.32 189.765 L140.32 193.7 L126.246 193.7 L126.246 202.172 Q127.265 201.825 128.283 201.663 Q129.302 201.478 130.32 201.478 Q136.107 201.478 139.487 204.649 Q142.867 207.82 142.867 213.237 Q142.867 218.816 139.394 221.918 Q135.922 224.996 129.603 224.996 Q127.427 224.996 125.158 224.626 Q122.913 224.256 120.506 223.515 L120.506 218.816 Q122.589 219.95 124.811 220.506 Q127.033 221.061 129.51 221.061 Q133.515 221.061 135.853 218.955 Q138.191 216.848 138.191 213.237 Q138.191 209.626 135.853 207.52 Q133.515 205.413 129.51 205.413 Q127.635 205.413 125.76 205.83 Q123.908 206.246 121.964 207.126 L121.964 189.765 Z" fill="#000000" fill-rule="nonzero" fill-opacity="1" /><path clip-path="url(#clip510)" d="M91.5706 60.5889 L99.2095 60.5889 L99.2095 34.2233 L90.8993 35.89 L90.8993 31.6308 L99.1632 29.9641 L103.839 29.9641 L103.839 60.5889 L111.478 60.5889 L111.478 64.5241 L91.5706 64.5241 L91.5706 60.5889 Z" fill="#000000" fill-rule="nonzero" fill-opacity="1" /><path clip-path="url(#clip510)" d="M130.922 33.0428 Q127.311 33.0428 125.482 36.6076 Q123.677 40.1492 123.677 47.2788 Q123.677 54.3853 125.482 57.9501 Q127.311 61.4917 130.922 61.4917 Q134.556 61.4917 136.362 57.9501 Q138.191 54.3853 138.191 47.2788 Q138.191 40.1492 136.362 36.6076 Q134.556 33.0428 130.922 33.0428 M130.922 29.3391 Q136.732 29.3391 139.788 33.9456 Q142.867 38.5289 142.867 47.2788 Q142.867 56.0056 139.788 60.6121 Q136.732 65.1954 130.922 65.1954 Q125.112 65.1954 122.033 60.6121 Q118.978 56.0056 118.978 47.2788 Q118.978 38.5289 122.033 33.9456 Q125.112 29.3391 130.922 29.3391 Z" fill="#000000" fill-rule="nonzero" fill-opacity="1" /><polyline clip-path="url(#clip512)" style="stroke:#009af9; stroke-linecap:round; stroke-linejoin:round; stroke-width:4; stroke-opacity:1; fill:none" points="240.392,334.886 242.445,338.144 244.498,328.957 246.55,341.179 248.603,327.851 250.656,337.873 252.709,334.778 254.762,325.648 256.815,323.492 258.868,324.139 260.921,349.919 262.974,325.262 265.027,322.628 267.079,323.486 269.132,322.874 271.185,338.068 273.238,326.337 275.291,367.633 277.344,367.477 279.397,368.505 281.45,337.131 283.503,335.355 285.555,334.069 287.608,336.693 289.661,354.561 291.714,361.927 293.767,362.117 295.82,362.787 297.873,364.216 299.926,366.717 301.979,363.897 304.031,362.773 306.084,356.041 308.137,386.751 310.19,386.155 312.243,382.018 314.296,381.414 316.349,384.54 318.402,376.461 320.455,376.073 322.507,372.009 324.56,377.759 326.613,361.062 328.666,359.415 330.719,360.7 332.772,367.396 334.825,360.383 336.878,360.418 338.931,365.937 340.984,313.537 343.036,314.412 345.089,346.325 347.142,356.821 349.195,326.605 351.248,326.124 353.301,371.591 355.354,378.486 357.407,377.916 359.46,378.029 361.512,378.675 363.565,352.786 365.618,352.856 367.671,350.836 369.724,334.335 371.777,334.213 373.83,339.071 375.883,328.582 377.936,410.463 379.988,410.933 382.041,414.922 384.094,414.29 386.147,414.101 388.2,406.766 390.253,376.905 392.306,376.349 394.359,375.249 396.412,379.032 398.464,375.531 400.517,384.948 402.57,387.383 404.623,396.407 406.676,392.605 408.729,394.895 410.782,404.096 412.835,398.262 414.888,398.273 416.94,398.466 418.993,385.674 421.046,338.684 423.099,374.963 425.152,390.888 427.205,395.523 429.258,396.474 431.311,376.407 433.364,376.452 435.417,380.174 437.469,380.361 439.522,363.394 441.575,369.182 443.628,369.388 445.681,335.45 447.734,349.788 449.787,350.213 451.84,347.482 453.893,350.192 455.945,349.429 457.998,349.497 460.051,335.208 462.104,335.387 464.157,336.647 466.21,337.8 468.263,339.033 470.316,377.304 472.369,376.692 474.421,360.038 476.474,356.575 478.527,366.657 480.58,322.003 482.633,323.23 484.686,351.926 486.739,340.589 488.792,344.791 490.845,347.008 492.897,340.719 494.95,354.721 497.003,345.59 499.056,345.83 501.109,345.975 503.162,346.087 505.215,346.353 507.268,378.372 509.321,369.88 511.374,381.59 513.426,368.377 515.479,363.446 517.532,364.848 519.585,367.196 521.638,370.565 523.691,370.748 525.744,376.776 527.797,361.591 529.85,361.312 531.902,359.327 533.955,330.309 536.008,330.634 538.061,339.577 540.114,353.716 542.167,353.073 544.22,363.112 546.273,363.146 548.326,367.416 550.378,369.781 552.431,370.059 554.484,373.481 556.537,373.521 558.59,354.851 560.643,337.878 562.696,366.698 564.749,345.848 566.802,345.885 568.854,347.962 570.907,346.833 572.96,346.308 575.013,348.326 577.066,349.68 579.119,342.808 581.172,342.708 583.225,347.506 585.278,353.341 587.331,308.108 589.383,307.677 591.436,342.026 593.489,349.575 595.542,409.811 597.595,380.636 599.648,373.98 601.701,371.145 603.754,372.251 605.807,372.252 607.859,364.377 609.912,365 611.965,364.274 614.018,365.173 616.071,365.324 618.124,355.153 620.177,387.483 622.23,387.376 624.283,391.216 626.335,391.002 628.388,392.504 630.441,400.949 632.494,401.094 634.547,400.613 636.6,396.727 638.653,387 640.706,390.488 642.759,390.476 644.811,390.399 646.864,390.332 648.917,388.453 650.97,380.906 653.023,377.252 655.076,364.06 657.129,363.814 659.182,369.611 661.235,365.088 663.288,341.944 665.34,319.891 667.393,386.436 669.446,376.817 671.499,381.339 673.552,381.034 675.605,375.154 677.658,376.239 679.711,376.273 681.764,388.297 683.816,388.813 685.869,305.836 687.922,305.532 689.975,305.532 692.028,305.547 694.081,302.315 696.134,306.137 698.187,309.623 700.24,322.304 702.292,323.411 704.345,323.412 706.398,322.927 708.451,322.927 710.504,322.971 712.557,323.538 714.61,325.141 716.663,325.141 718.716,328.88 720.768,326.86 722.821,328.345 724.874,332.494 726.927,331.266 728.98,380.391 731.033,380.908 733.086,379.488 735.139,365.176 737.192,365.065 739.245,396.183 741.297,396.271 743.35,396.932 745.403,395.23 747.456,397.249 749.509,395.621 751.562,353.329 753.615,364.098 755.668,351.597 757.721,340.752 759.773,348.946 761.826,348.487 763.879,364.475 765.932,363.507 767.985,362.529 770.038,367.445 772.091,367.319 774.144,368.236 776.197,368.323 778.249,376.466 780.302,380.968 782.355,368.004 784.408,353.372 786.461,345.999 788.514,345.263 790.567,345.192 792.62,344.739 794.673,356.69 796.725,362.296 798.778,360.872 800.831,360.849 802.884,360.185 804.937,357.487 806.99,339.517 809.043,331.356 811.096,368.943 813.149,366.628 815.202,375.805 817.254,380.006 819.307,381.348 821.36,377.961 823.413,377.881 825.466,388.778 827.519,388.627 829.572,389.787 831.625,380.324 833.678,396.467 835.73,396.471 837.783,396.648 839.836,396.983 841.889,408.031 843.942,406.999 845.995,408.679 848.048,408.282 850.101,409.263 852.154,409.266 854.206,410.549 856.259,404.144 858.312,404.02 860.365,403.865 862.418,421.525 864.471,421.506 866.524,415.023 868.577,414.77 870.63,415.02 872.682,414.822 874.735,418.213 876.788,413.501 878.841,414.182 880.894,414.099 882.947,355.281 885,356.437 887.053,370.368 889.106,370.37 891.159,370.371 893.211,370.46 895.264,371.471 897.317,371.769 899.37,375.266 901.423,375.42 903.476,375.745 905.529,373.934 907.582,363.176 909.635,362.261 911.687,367.105 913.74,366.91 915.793,368.952 917.846,366.037 919.899,364.436 921.952,365.864 924.005,362.742 926.058,358.926 928.111,354.843 930.163,351.334 932.216,352.153 934.269,343.397 936.322,343.624 938.375,365.241 940.428,366.223 942.481,366.22 944.534,365.258 946.587,371.628 948.639,389.572 950.692,387.236 952.745,388.487 954.798,388.592 956.851,385.888 958.904,388.222 960.957,388.918 963.01,388.298 965.063,388.677 967.116,389.711 969.168,360.724 971.221,360.697 973.274,362.004 975.327,357.445 977.38,358.664 979.433,358.948 981.486,356.92 983.539,346.979 985.592,347.593 987.644,348.14 989.697,355.28 991.75,351.169 993.803,362.867 995.856,362.729 997.909,376.589 999.962,415.464 1002.01,357.978 1004.07,356.579 1006.12,376.61 1008.17,380.1 1010.23,378.96 1012.28,368.248 1014.33,368.987 1016.38,369.683 1018.44,371.249 1020.49,369.609 1022.54,371.588 1024.6,371.642 1026.65,370.52 1028.7,359.127 1030.76,364.119 1032.81,351.155 1034.86,350.98 1036.91,350.966 1038.97,351.13 1041.02,351.33 1043.07,351.33 1045.13,351.389 1047.18,344.641 1049.23,350.079 1051.28,341.25 1053.34,341.651 1055.39,342.416 1057.44,348.618 1059.5,348.602 1061.55,348.388 1063.6,344.518 1065.65,345.674 1067.71,342.06 1069.76,341.899 1071.81,337.748 1073.87,338.902 1075.92,339.749 1077.97,342.716 1080.02,334.625 1082.08,334.603 1084.13,406.482 1086.18,405.165 1088.24,419.368 1090.29,414.824 1092.34,398.822 1094.39,389.543 1096.45,392.729 1098.5,378.044 1100.55,377.939 1102.61,398.99 1104.66,397.328 1106.71,375.485 1108.77,364.797 1110.82,356.163 1112.87,351.451 1114.92,366.242 1116.98,360.998 1119.03,361.038 1121.08,359.687 1123.14,359.298 1125.19,378 1127.24,364.786 1129.29,366.713 1131.35,366.719 1133.4,366.844 1135.45,366.845 1137.51,367.067 1139.56,366.963 1141.61,374.902 1143.66,380.024 1145.72,379.986 1147.77,370.546 1149.82,367.77 1151.88,367.576 1153.93,367.032 1155.98,365.73 1158.03,351.476 1160.09,350.448 1162.14,350.771 1164.19,347.691 1166.25,349.092 1168.3,360.477 1170.35,361.953 1172.4,361.885 1174.46,361.391 1176.51,353.894 1178.56,352.088 1180.62,355.34 1182.67,373.521 1184.72,373.6 1186.77,371.73 1188.83,373.038 1190.88,384.961 1192.93,384.839 1194.99,387.993 1197.04,392.715 1199.09,392.341 1201.15,390.117 1203.2,389.848 1205.25,392.565 1207.3,392.784 1209.36,392.292 1211.41,394.051 1213.46,392.802 1215.52,391.759 1217.57,387.669 1219.62,387.107 1221.67,374.16 1223.73,359.064 1225.78,359.265 1227.83,357.339 1229.89,357.847 1231.94,356.931 1233.99,352.503 1236.04,349.809 1238.1,349.71 1240.15,342.504 1242.2,438.1 1244.26,433.875 1246.31,444.564 1248.36,444.128 1250.41,445.14 1252.47,283.785 1254.52,280.735 1256.57,280.329 1258.63,281.792 1260.68,350.292 1262.73,360.549 1264.78,389.87 1266.84,389.094 1268.89,388.825 1270.94,382.622 1273,374.649 1275.05,318.676 1277.1,319.121 1279.16,325.584 1281.21,325.394 1283.26,427.19 1285.31,427.414 1287.37,427.943 1289.42,428.805 1291.47,431.682 1293.53,373.404 1295.58,369.406 1297.63,369.704 1299.68,385.028 1301.74,384.467 1303.79,386.123 1305.84,383.189 1307.9,333.639 1309.95,333.244 1312,325.089 1314.05,321.414 1316.11,314.768 1318.16,313.867 1320.21,303.108 1322.27,317.007 1324.32,319.591 1326.37,306.193 1328.42,384.511 1330.48,293.898 1332.53,294.751 1334.58,293.846 1336.64,298.658 1338.69,298.742 1340.74,327.884 1342.79,325.554 1344.85,325.476 1346.9,323.575 1348.95,338.728 1351.01,336.771 1353.06,336.669 1355.11,337.112 1357.16,336.955 1359.22,336.987 1361.27,366.991 1363.32,360.691 1365.38,360.41 1367.43,349.874 1369.48,350.267 1371.54,357.191 1373.59,352.592 1375.64,371.85 1377.69,375.973 1379.75,376.725 1381.8,376.234 1383.85,376.229 1385.91,371.543 1387.96,371.434 1390.01,372.495 1392.06,372.303 1394.12,372.045 1396.17,372.061 1398.22,367.588 1400.28,364.507 1402.33,365.003 1404.38,364.921 1406.43,360.01 1408.49,347.826 1410.54,345.928 1412.59,349.468 1414.65,392.392 1416.7,395.515 1418.75,395.49 1420.8,395.484 1422.86,394.494 1424.91,393.9 1426.96,393.967 1429.02,387.206 1431.07,379.794 1433.12,370.52 1435.17,372.536 1437.23,386.733 1439.28,388.352 1441.33,388.871 1443.39,386.549 1445.44,385.683 1447.49,388.094 1449.55,407.257 1451.6,408.217 1453.65,413.489 1455.7,413.446 1457.76,376.139 1459.81,383.908 1461.86,355.459 1463.92,355.421 1465.97,355.443 1468.02,355.659 1470.07,352.58 1472.13,356.6 1474.18,356.423 1476.23,356.453 1478.29,358.951 1480.34,358.949 1482.39,381.817 1484.44,381.385 1486.5,381.292 1488.55,366.5 1490.6,374.717 1492.66,367.15 1494.71,368.704 1496.76,370.286 1498.81,367.848 1500.87,367.821 1502.92,361.898 1504.97,359.138 1507.03,363.94 1509.08,365.009 1511.13,365.182 1513.18,366.986 1515.24,359.153 1517.29,341.775 1519.34,348.821 1521.4,349.161 1523.45,351.375 1525.5,361.579 1527.55,361.765 1529.61,361.863 1531.66,360.384 1533.71,361.015 1535.77,375.102 1537.82,349.359 1539.87,350.505 1541.93,346.328 1543.98,360.977 1546.03,360.176 1548.08,359.725 1550.14,356.492 1552.19,353.835 1554.24,355.12 1556.3,345.188 1558.35,344.698 1560.4,343.854 1562.45,352.783 1564.51,352.266 1566.56,350.712 1568.61,347.909 1570.67,349.315 1572.72,349.346 1574.77,370.288 1576.82,374.405 1578.88,377.561 1580.93,376.43 1582.98,376.304 1585.04,376.429 1587.09,376.463 1589.14,372.366 1591.19,362.31 1593.25,362.09 1595.3,359.922 1597.35,359.478 1599.41,359.316 1601.46,359.378 1603.51,359.552 1605.56,355.911 1607.62,358.341 1609.67,359.353 1611.72,358.754 1613.78,366.129 1615.83,366.952 1617.88,367.02 1619.94,355.323 1621.99,355.369 1624.04,349.107 1626.09,359.793 1628.15,359.141 1630.2,359.207 1632.25,354.247 1634.31,355.722 1636.36,360.07 1638.41,354.012 1640.46,348.243 1642.52,352.431 1644.57,352.327 1646.62,359.807 1648.68,362.335 1650.73,362.053 1652.78,359.745 1654.83,360.376 1656.89,358.005 1658.94,335.682 1660.99,333.611 1663.05,330.976 1665.1,397.044 1667.15,397.942 1669.2,377.983 1671.26,328.061 1673.31,327.554 1675.36,327.554 1677.42,306.808 1679.47,324.22 1681.52,344.618 1683.57,342.708 1685.63,341.981 1687.68,334.146 1689.73,337.381 1691.79,336.682 1693.84,331.302 1695.89,385.422 1697.94,382.466 1700,382.599 1702.05,383.807 1704.1,383.551 1706.16,384.284 1708.21,390.775 1710.26,383.551 1712.32,382.851 1714.37,381.103 1716.42,380.747 1718.47,381.318 1720.53,379.444 1722.58,379.401 1724.63,379.146 1726.69,379.017 1728.74,378.844 1730.79,402.387 1732.84,424.379 1734.9,432.713 1736.95,334.132 1739,333.07 1741.06,334.429 1743.11,341.38 1745.16,338.867 1747.21,341.602 1749.27,341.337 1751.32,372.63 1753.37,367.466 1755.43,359.067 1757.48,358.13 1759.53,397.59 1761.58,407.801 1763.64,408.236 1765.69,413.478 1767.74,426.82 1769.8,427.442 1771.85,425.83 1773.9,422.931 1775.95,423.735 1778.01,422.307 1780.06,423.866 1782.11,423.808 1784.17,414.584 1786.22,413.731 1788.27,407.505 1790.33,408.145 1792.38,407.665 1794.43,410.026 1796.48,407.742 1798.54,403.43 1800.59,403.637 1802.64,388.359 1804.7,395.317 1806.75,372.858 1808.8,391.992 1810.85,393.791 1812.91,395.03 1814.96,395.594 1817.01,407.617 1819.07,407.077 1821.12,400.381 1823.17,410.498 1825.22,399.301 1827.28,306.311 1829.33,323.836 1831.38,308.846 1833.44,309.998 1835.49,309.858 1837.54,323.801 1839.59,324.945 1841.65,320.615 1843.7,320.253 1845.75,316.488 1847.81,317.129 1849.86,359.975 1851.91,347.649 1853.96,352.188 1856.02,355.89 1858.07,352.105 1860.12,337.731 1862.18,338.59 1864.23,338.578 1866.28,337.16 1868.34,331.479 1870.39,341.105 1872.44,344.96 1874.49,338.967 1876.55,338.996 1878.6,340.343 1880.65,325.315 1882.71,333.39 1884.76,330.251 1886.81,363.792 1888.86,363.963 1890.92,364.697 1892.97,331.68 1895.02,331.816 1897.08,331.991 1899.13,338.315 1901.18,381.462 1903.23,397.061 1905.29,397.173 1907.34,426.596 1909.39,431.644 1911.45,372.046 1913.5,372.66 1915.55,346.057 1917.6,348.355 1919.66,378.092 1921.71,377.134 1923.76,380.252 1925.82,366.735 1927.87,366.147 1929.92,366.601 1931.97,371.897 1934.03,369.457 1936.08,368.944 1938.13,375.715 1940.19,378.409 1942.24,381.481 1944.29,367.498 1946.34,365.085 1948.4,358.748 1950.45,327.873 1952.5,315.313 1954.56,288.919 1956.61,383.201 1958.66,383.703 1960.72,380.214 1962.77,381.494 1964.82,404.796 1966.87,387.327 1968.93,387.203 1970.98,349.479 1973.03,389.824 1975.09,392.163 1977.14,382.801 1979.19,375.937 1981.24,374.959 1983.3,360.844 1985.35,367.937 1987.4,363.248 1989.46,344.866 1991.51,349.053 1993.56,351.371 1995.61,342.876 1997.67,344.226 1999.72,322.528 2001.77,324.941 2003.83,301.61 2005.88,340.829 2007.93,389.11 2009.98,398.931 2012.04,406.034 2014.09,409.097 2016.14,429.304 2018.2,423.157 2020.25,295.683 2022.3,282.99 2024.35,322.018 2026.41,326.556 2028.46,325.491 2030.51,329.306 2032.57,480.867 2034.62,478.349 2036.67,478.685 2038.73,473.979 2040.78,479.787 2042.83,486.406 2044.88,403.341 2046.94,394.764 2048.99,343.02 2051.04,343.276 2053.1,343.14 2055.15,343.692 2057.2,238.249 2059.25,323.432 2061.31,323.407 2063.36,320.497 2065.41,399.106 2067.47,388.004 2069.52,367.811 2071.57,368.784 2073.62,370.448 2075.68,374.989 2077.73,374.064 2079.78,385.085 2081.84,383.931 2083.89,397.542 2085.94,394.757 2087.99,398.042 2090.05,445.192 2092.1,444.675 2094.15,476.074 2096.21,479.713 2098.26,500.06 2100.31,515.165 2102.36,513.506 2104.42,530.832 2106.47,523.648 2108.52,524.898 2110.58,500.122 2112.63,492.674 2114.68,484.722 2116.73,482.387 2118.79,473.789 2120.84,483.133 2122.89,487.577 2124.95,489.962 2127,504.061 2129.05,495.651 2131.11,497.307 2133.16,465.616 2135.21,411.895 2137.26,426.527 2139.32,425.789 2141.37,429.072 2143.42,462.707 2145.48,466.775 2147.53,442.143 2149.58,449.61 2151.63,433.713 2153.69,423.564 2155.74,424.525 2157.79,408.385 2159.85,414.396 2161.9,405.443 2163.95,394.195 2166,394.541 2168.06,393.552 2170.11,395.477 2172.16,402.22 2174.22,401.332 2176.27,397.388 2178.32,398.016 2180.37,393.545 2182.43,391.706 2184.48,389.815 2186.53,393.203 2188.59,393.125 2190.64,394.79 2192.69,361.719 2194.74,413.854 2196.8,394.604 2198.85,394.564 2200.9,395.01 2202.96,400.255 2205.01,368.717 2207.06,326.04 2209.12,326.71 2211.17,326.487 2213.22,326.538 2215.27,344.418 2217.33,343.268 2219.38,342.237 2221.43,347.395 2223.49,350.04 2225.54,350.066 2227.59,358.082 2229.64,360.173 2231.7,371.268 2233.75,374.961 2235.8,375.276 2237.86,354.901 2239.91,353.152 2241.96,352.607 2244.01,323.626 2246.07,281.542 2248.12,278.938 2250.17,295.871 2252.23,374.851 2254.28,368.612 2256.33,361.099 2258.38,360.885 2260.44,360.844 2262.49,370.212 2264.54,345.189 2266.6,350.539 2268.65,349.18 2270.7,393.317 2272.75,398.297 2274.81,398.34 2276.86,398.24 2278.91,395.748 2280.97,420.716 2283.02,421.767 2285.07,427.825 2287.12,427.046 2289.18,376.816 2291.23,376.414 "/>
<path clip-path="url(#clip510)" d="M1983.6 172.231 L2280.29 172.231 L2280.29 68.5509 L1983.6 68.5509  Z" fill="#ffffff" fill-rule="evenodd" fill-opacity="1"/>
<polyline clip-path="url(#clip510)" style="stroke:#000000; stroke-linecap:round; stroke-linejoin:round; stroke-width:4; stroke-opacity:1; fill:none" points="1983.6,172.231 2280.29,172.231 2280.29,68.5509 1983.6,68.5509 1983.6,172.231 "/>
<polyline clip-path="url(#clip510)" style="stroke:#009af9; stroke-linecap:round; stroke-linejoin:round; stroke-width:4; stroke-opacity:1; fill:none" points="2007.75,120.391 2152.68,120.391 "/>
<path clip-path="url(#clip510)" d="M2176.83 103.111 L2181.51 103.111 L2181.51 133.736 L2198.34 133.736 L2198.34 137.671 L2176.83 137.671 L2176.83 103.111 Z" fill="#000000" fill-rule="nonzero" fill-opacity="1" /><path clip-path="url(#clip510)" d="M2223.96 104.245 L2223.96 108.805 Q2221.3 107.532 2218.94 106.907 Q2216.58 106.282 2214.38 106.282 Q2210.56 106.282 2208.48 107.764 Q2206.42 109.245 2206.42 111.977 Q2206.42 114.268 2207.78 115.449 Q2209.17 116.606 2213.01 117.324 L2215.84 117.902 Q2221.07 118.898 2223.55 121.421 Q2226.05 123.921 2226.05 128.134 Q2226.05 133.157 2222.67 135.75 Q2219.31 138.342 2212.81 138.342 Q2210.35 138.342 2207.57 137.787 Q2204.82 137.231 2201.86 136.143 L2201.86 131.328 Q2204.7 132.926 2207.44 133.736 Q2210.17 134.546 2212.81 134.546 Q2216.81 134.546 2218.99 132.972 Q2221.16 131.398 2221.16 128.481 Q2221.16 125.935 2219.59 124.5 Q2218.04 123.064 2214.47 122.347 L2211.62 121.791 Q2206.39 120.75 2204.06 118.527 Q2201.72 116.305 2201.72 112.347 Q2201.72 107.764 2204.94 105.125 Q2208.18 102.486 2213.85 102.486 Q2216.28 102.486 2218.8 102.926 Q2221.32 103.366 2223.96 104.245 Z" fill="#000000" fill-rule="nonzero" fill-opacity="1" /><path clip-path="url(#clip510)" d="M2254.06 104.245 L2254.06 108.805 Q2251.39 107.532 2249.03 106.907 Q2246.67 106.282 2244.47 106.282 Q2240.65 106.282 2238.57 107.764 Q2236.51 109.245 2236.51 111.977 Q2236.51 114.268 2237.87 115.449 Q2239.26 116.606 2243.11 117.324 L2245.93 117.902 Q2251.16 118.898 2253.64 121.421 Q2256.14 123.921 2256.14 128.134 Q2256.14 133.157 2252.76 135.75 Q2249.4 138.342 2242.9 138.342 Q2240.44 138.342 2237.67 137.787 Q2234.91 137.231 2231.95 136.143 L2231.95 131.328 Q2234.8 132.926 2237.53 133.736 Q2240.26 134.546 2242.9 134.546 Q2246.9 134.546 2249.08 132.972 Q2251.25 131.398 2251.25 128.481 Q2251.25 125.935 2249.68 124.5 Q2248.13 123.064 2244.56 122.347 L2241.72 121.791 Q2236.49 120.75 2234.15 118.527 Q2231.81 116.305 2231.81 112.347 Q2231.81 107.764 2235.03 105.125 Q2238.27 102.486 2243.94 102.486 Q2246.37 102.486 2248.89 102.926 Q2251.42 103.366 2254.06 104.245 Z" fill="#000000" fill-rule="nonzero" fill-opacity="1" /><path clip-path="url(#clip510)" d="M178.867 1486.45 L2352.76 1486.45 L2352.76 847.244 L178.867 847.244  Z" fill="#ffffff" fill-rule="evenodd" fill-opacity="1"/>
<defs>
  <clipPath id="clip513">
    <rect x="178" y="847" width="2175" height="640"/>
  </clipPath>
</defs>
<polyline clip-path="url(#clip513)" style="stroke:#000000; stroke-linecap:round; stroke-linejoin:round; stroke-width:2; stroke-opacity:0.1; fill:none" points="238.339,1486.45 238.339,847.244 "/>
<polyline clip-path="url(#clip513)" style="stroke:#000000; stroke-linecap:round; stroke-linejoin:round; stroke-width:2; stroke-opacity:0.1; fill:none" points="751.562,1486.45 751.562,847.244 "/>
<polyline clip-path="url(#clip513)" style="stroke:#000000; stroke-linecap:round; stroke-linejoin:round; stroke-width:2; stroke-opacity:0.1; fill:none" points="1264.78,1486.45 1264.78,847.244 "/>
<polyline clip-path="url(#clip513)" style="stroke:#000000; stroke-linecap:round; stroke-linejoin:round; stroke-width:2; stroke-opacity:0.1; fill:none" points="1778.01,1486.45 1778.01,847.244 "/>
<polyline clip-path="url(#clip513)" style="stroke:#000000; stroke-linecap:round; stroke-linejoin:round; stroke-width:2; stroke-opacity:0.1; fill:none" points="2291.23,1486.45 2291.23,847.244 "/>
<polyline clip-path="url(#clip513)" style="stroke:#000000; stroke-linecap:round; stroke-linejoin:round; stroke-width:2; stroke-opacity:0.1; fill:none" points="178.867,1486.45 2352.76,1486.45 "/>
<polyline clip-path="url(#clip513)" style="stroke:#000000; stroke-linecap:round; stroke-linejoin:round; stroke-width:2; stroke-opacity:0.1; fill:none" points="178.867,1326.65 2352.76,1326.65 "/>
<polyline clip-path="url(#clip513)" style="stroke:#000000; stroke-linecap:round; stroke-linejoin:round; stroke-width:2; stroke-opacity:0.1; fill:none" points="178.867,1166.85 2352.76,1166.85 "/>
<polyline clip-path="url(#clip513)" style="stroke:#000000; stroke-linecap:round; stroke-linejoin:round; stroke-width:2; stroke-opacity:0.1; fill:none" points="178.867,1007.05 2352.76,1007.05 "/>
<polyline clip-path="url(#clip513)" style="stroke:#000000; stroke-linecap:round; stroke-linejoin:round; stroke-width:2; stroke-opacity:0.1; fill:none" points="178.867,847.244 2352.76,847.244 "/>
<polyline clip-path="url(#clip510)" style="stroke:#000000; stroke-linecap:round; stroke-linejoin:round; stroke-width:4; stroke-opacity:1; fill:none" points="178.867,1486.45 2352.76,1486.45 "/>
<polyline clip-path="url(#clip510)" style="stroke:#000000; stroke-linecap:round; stroke-linejoin:round; stroke-width:4; stroke-opacity:1; fill:none" points="238.339,1486.45 238.339,1467.55 "/>
<polyline clip-path="url(#clip510)" style="stroke:#000000; stroke-linecap:round; stroke-linejoin:round; stroke-width:4; stroke-opacity:1; fill:none" points="751.562,1486.45 751.562,1467.55 "/>
<polyline clip-path="url(#clip510)" style="stroke:#000000; stroke-linecap:round; stroke-linejoin:round; stroke-width:4; stroke-opacity:1; fill:none" points="1264.78,1486.45 1264.78,1467.55 "/>
<polyline clip-path="url(#clip510)" style="stroke:#000000; stroke-linecap:round; stroke-linejoin:round; stroke-width:4; stroke-opacity:1; fill:none" points="1778.01,1486.45 1778.01,1467.55 "/>
<polyline clip-path="url(#clip510)" style="stroke:#000000; stroke-linecap:round; stroke-linejoin:round; stroke-width:4; stroke-opacity:1; fill:none" points="2291.23,1486.45 2291.23,1467.55 "/>
<path clip-path="url(#clip510)" d="M238.339 1517.37 Q234.728 1517.37 232.899 1520.93 Q231.094 1524.47 231.094 1531.6 Q231.094 1538.71 232.899 1542.27 Q234.728 1545.82 238.339 1545.82 Q241.973 1545.82 243.779 1542.27 Q245.607 1538.71 245.607 1531.6 Q245.607 1524.47 243.779 1520.93 Q241.973 1517.37 238.339 1517.37 M238.339 1513.66 Q244.149 1513.66 247.205 1518.27 Q250.283 1522.85 250.283 1531.6 Q250.283 1540.33 247.205 1544.94 Q244.149 1549.52 238.339 1549.52 Q232.529 1549.52 229.45 1544.94 Q226.395 1540.33 226.395 1531.6 Q226.395 1522.85 229.45 1518.27 Q232.529 1513.66 238.339 1513.66 Z" fill="#000000" fill-rule="nonzero" fill-opacity="1" /><path clip-path="url(#clip510)" d="M715.254 1544.91 L731.574 1544.91 L731.574 1548.85 L709.629 1548.85 L709.629 1544.91 Q712.291 1542.16 716.875 1537.53 Q721.481 1532.88 722.662 1531.53 Q724.907 1529.01 725.787 1527.27 Q726.689 1525.51 726.689 1523.82 Q726.689 1521.07 724.745 1519.33 Q722.824 1517.6 719.722 1517.6 Q717.523 1517.6 715.069 1518.36 Q712.638 1519.13 709.861 1520.68 L709.861 1515.95 Q712.685 1514.82 715.138 1514.24 Q717.592 1513.66 719.629 1513.66 Q725 1513.66 728.194 1516.35 Q731.388 1519.03 731.388 1523.52 Q731.388 1525.65 730.578 1527.57 Q729.791 1529.47 727.685 1532.07 Q727.106 1532.74 724.004 1535.95 Q720.902 1539.15 715.254 1544.91 Z" fill="#000000" fill-rule="nonzero" fill-opacity="1" /><path clip-path="url(#clip510)" d="M741.435 1514.29 L759.791 1514.29 L759.791 1518.22 L745.717 1518.22 L745.717 1526.7 Q746.736 1526.35 747.754 1526.19 Q748.773 1526 749.791 1526 Q755.578 1526 758.958 1529.17 Q762.337 1532.34 762.337 1537.76 Q762.337 1543.34 758.865 1546.44 Q755.393 1549.52 749.073 1549.52 Q746.898 1549.52 744.629 1549.15 Q742.384 1548.78 739.976 1548.04 L739.976 1543.34 Q742.06 1544.47 744.282 1545.03 Q746.504 1545.58 748.981 1545.58 Q752.985 1545.58 755.323 1543.48 Q757.661 1541.37 757.661 1537.76 Q757.661 1534.15 755.323 1532.04 Q752.985 1529.94 748.981 1529.94 Q747.106 1529.94 745.231 1530.35 Q743.379 1530.77 741.435 1531.65 L741.435 1514.29 Z" fill="#000000" fill-rule="nonzero" fill-opacity="1" /><path clip-path="url(#clip510)" d="M781.55 1517.37 Q777.939 1517.37 776.11 1520.93 Q774.305 1524.47 774.305 1531.6 Q774.305 1538.71 776.11 1542.27 Q777.939 1545.82 781.55 1545.82 Q785.184 1545.82 786.99 1542.27 Q788.819 1538.71 788.819 1531.6 Q788.819 1524.47 786.99 1520.93 Q785.184 1517.37 781.55 1517.37 M781.55 1513.66 Q787.36 1513.66 790.416 1518.27 Q793.495 1522.85 793.495 1531.6 Q793.495 1540.33 790.416 1544.94 Q787.36 1549.52 781.55 1549.52 Q775.74 1549.52 772.661 1544.94 Q769.606 1540.33 769.606 1531.6 Q769.606 1522.85 772.661 1518.27 Q775.74 1513.66 781.55 1513.66 Z" fill="#000000" fill-rule="nonzero" fill-opacity="1" /><path clip-path="url(#clip510)" d="M1224.4 1514.29 L1242.76 1514.29 L1242.76 1518.22 L1228.69 1518.22 L1228.69 1526.7 Q1229.7 1526.35 1230.72 1526.19 Q1231.74 1526 1232.76 1526 Q1238.55 1526 1241.93 1529.17 Q1245.31 1532.34 1245.31 1537.76 Q1245.31 1543.34 1241.83 1546.44 Q1238.36 1549.52 1232.04 1549.52 Q1229.87 1549.52 1227.6 1549.15 Q1225.35 1548.78 1222.94 1548.04 L1222.94 1543.34 Q1225.03 1544.47 1227.25 1545.03 Q1229.47 1545.58 1231.95 1545.58 Q1235.95 1545.58 1238.29 1543.48 Q1240.63 1541.37 1240.63 1537.76 Q1240.63 1534.15 1238.29 1532.04 Q1235.95 1529.94 1231.95 1529.94 Q1230.07 1529.94 1228.2 1530.35 Q1226.35 1530.77 1224.4 1531.65 L1224.4 1514.29 Z" fill="#000000" fill-rule="nonzero" fill-opacity="1" /><path clip-path="url(#clip510)" d="M1264.52 1517.37 Q1260.91 1517.37 1259.08 1520.93 Q1257.27 1524.47 1257.27 1531.6 Q1257.27 1538.71 1259.08 1542.27 Q1260.91 1545.82 1264.52 1545.82 Q1268.15 1545.82 1269.96 1542.27 Q1271.79 1538.71 1271.79 1531.6 Q1271.79 1524.47 1269.96 1520.93 Q1268.15 1517.37 1264.52 1517.37 M1264.52 1513.66 Q1270.33 1513.66 1273.38 1518.27 Q1276.46 1522.85 1276.46 1531.6 Q1276.46 1540.33 1273.38 1544.94 Q1270.33 1549.52 1264.52 1549.52 Q1258.71 1549.52 1255.63 1544.94 Q1252.57 1540.33 1252.57 1531.6 Q1252.57 1522.85 1255.63 1518.27 Q1258.71 1513.66 1264.52 1513.66 Z" fill="#000000" fill-rule="nonzero" fill-opacity="1" /><path clip-path="url(#clip510)" d="M1294.68 1517.37 Q1291.07 1517.37 1289.24 1520.93 Q1287.44 1524.47 1287.44 1531.6 Q1287.44 1538.71 1289.24 1542.27 Q1291.07 1545.82 1294.68 1545.82 Q1298.31 1545.82 1300.12 1542.27 Q1301.95 1538.71 1301.95 1531.6 Q1301.95 1524.47 1300.12 1520.93 Q1298.31 1517.37 1294.68 1517.37 M1294.68 1513.66 Q1300.49 1513.66 1303.55 1518.27 Q1306.62 1522.85 1306.62 1531.6 Q1306.62 1540.33 1303.55 1544.94 Q1300.49 1549.52 1294.68 1549.52 Q1288.87 1549.52 1285.79 1544.94 Q1282.74 1540.33 1282.74 1531.6 Q1282.74 1522.85 1285.79 1518.27 Q1288.87 1513.66 1294.68 1513.66 Z" fill="#000000" fill-rule="nonzero" fill-opacity="1" /><path clip-path="url(#clip510)" d="M1736.28 1514.29 L1758.51 1514.29 L1758.51 1516.28 L1745.96 1548.85 L1741.08 1548.85 L1752.88 1518.22 L1736.28 1518.22 L1736.28 1514.29 Z" fill="#000000" fill-rule="nonzero" fill-opacity="1" /><path clip-path="url(#clip510)" d="M1767.67 1514.29 L1786.03 1514.29 L1786.03 1518.22 L1771.95 1518.22 L1771.95 1526.7 Q1772.97 1526.35 1773.99 1526.19 Q1775.01 1526 1776.03 1526 Q1781.82 1526 1785.2 1529.17 Q1788.57 1532.34 1788.57 1537.76 Q1788.57 1543.34 1785.1 1546.44 Q1781.63 1549.52 1775.31 1549.52 Q1773.14 1549.52 1770.87 1549.15 Q1768.62 1548.78 1766.21 1548.04 L1766.21 1543.34 Q1768.3 1544.47 1770.52 1545.03 Q1772.74 1545.58 1775.22 1545.58 Q1779.22 1545.58 1781.56 1543.48 Q1783.9 1541.37 1783.9 1537.76 Q1783.9 1534.15 1781.56 1532.04 Q1779.22 1529.94 1775.22 1529.94 Q1773.34 1529.94 1771.47 1530.35 Q1769.62 1530.77 1767.67 1531.65 L1767.67 1514.29 Z" fill="#000000" fill-rule="nonzero" fill-opacity="1" /><path clip-path="url(#clip510)" d="M1807.79 1517.37 Q1804.18 1517.37 1802.35 1520.93 Q1800.54 1524.47 1800.54 1531.6 Q1800.54 1538.71 1802.35 1542.27 Q1804.18 1545.82 1807.79 1545.82 Q1811.42 1545.82 1813.23 1542.27 Q1815.06 1538.71 1815.06 1531.6 Q1815.06 1524.47 1813.23 1520.93 Q1811.42 1517.37 1807.79 1517.37 M1807.79 1513.66 Q1813.6 1513.66 1816.65 1518.27 Q1819.73 1522.85 1819.73 1531.6 Q1819.73 1540.33 1816.65 1544.94 Q1813.6 1549.52 1807.79 1549.52 Q1801.98 1549.52 1798.9 1544.94 Q1795.84 1540.33 1795.84 1531.6 Q1795.84 1522.85 1798.9 1518.27 Q1801.98 1513.66 1807.79 1513.66 Z" fill="#000000" fill-rule="nonzero" fill-opacity="1" /><path clip-path="url(#clip510)" d="M2235.76 1544.91 L2243.4 1544.91 L2243.4 1518.55 L2235.09 1520.21 L2235.09 1515.95 L2243.35 1514.29 L2248.02 1514.29 L2248.02 1544.91 L2255.66 1544.91 L2255.66 1548.85 L2235.76 1548.85 L2235.76 1544.91 Z" fill="#000000" fill-rule="nonzero" fill-opacity="1" /><path clip-path="url(#clip510)" d="M2275.11 1517.37 Q2271.5 1517.37 2269.67 1520.93 Q2267.86 1524.47 2267.86 1531.6 Q2267.86 1538.71 2269.67 1542.27 Q2271.5 1545.82 2275.11 1545.82 Q2278.74 1545.82 2280.55 1542.27 Q2282.38 1538.71 2282.38 1531.6 Q2282.38 1524.47 2280.55 1520.93 Q2278.74 1517.37 2275.11 1517.37 M2275.11 1513.66 Q2280.92 1513.66 2283.97 1518.27 Q2287.05 1522.85 2287.05 1531.6 Q2287.05 1540.33 2283.97 1544.94 Q2280.92 1549.52 2275.11 1549.52 Q2269.3 1549.52 2266.22 1544.94 Q2263.16 1540.33 2263.16 1531.6 Q2263.16 1522.85 2266.22 1518.27 Q2269.3 1513.66 2275.11 1513.66 Z" fill="#000000" fill-rule="nonzero" fill-opacity="1" /><path clip-path="url(#clip510)" d="M2305.27 1517.37 Q2301.66 1517.37 2299.83 1520.93 Q2298.02 1524.47 2298.02 1531.6 Q2298.02 1538.71 2299.83 1542.27 Q2301.66 1545.82 2305.27 1545.82 Q2308.9 1545.82 2310.71 1542.27 Q2312.54 1538.71 2312.54 1531.6 Q2312.54 1524.47 2310.71 1520.93 Q2308.9 1517.37 2305.27 1517.37 M2305.27 1513.66 Q2311.08 1513.66 2314.14 1518.27 Q2317.21 1522.85 2317.21 1531.6 Q2317.21 1540.33 2314.14 1544.94 Q2311.08 1549.52 2305.27 1549.52 Q2299.46 1549.52 2296.38 1544.94 Q2293.33 1540.33 2293.33 1531.6 Q2293.33 1522.85 2296.38 1518.27 Q2299.46 1513.66 2305.27 1513.66 Z" fill="#000000" fill-rule="nonzero" fill-opacity="1" /><path clip-path="url(#clip510)" d="M2335.43 1517.37 Q2331.82 1517.37 2329.99 1520.93 Q2328.19 1524.47 2328.19 1531.6 Q2328.19 1538.71 2329.99 1542.27 Q2331.82 1545.82 2335.43 1545.82 Q2339.07 1545.82 2340.87 1542.27 Q2342.7 1538.71 2342.7 1531.6 Q2342.7 1524.47 2340.87 1520.93 Q2339.07 1517.37 2335.43 1517.37 M2335.43 1513.66 Q2341.24 1513.66 2344.3 1518.27 Q2347.38 1522.85 2347.38 1531.6 Q2347.38 1540.33 2344.3 1544.94 Q2341.24 1549.52 2335.43 1549.52 Q2329.62 1549.52 2326.54 1544.94 Q2323.49 1540.33 2323.49 1531.6 Q2323.49 1522.85 2326.54 1518.27 Q2329.62 1513.66 2335.43 1513.66 Z" fill="#000000" fill-rule="nonzero" fill-opacity="1" /><polyline clip-path="url(#clip510)" style="stroke:#000000; stroke-linecap:round; stroke-linejoin:round; stroke-width:4; stroke-opacity:1; fill:none" points="178.867,1486.45 178.867,847.244 "/>
<polyline clip-path="url(#clip510)" style="stroke:#000000; stroke-linecap:round; stroke-linejoin:round; stroke-width:4; stroke-opacity:1; fill:none" points="178.867,1486.45 197.764,1486.45 "/>
<polyline clip-path="url(#clip510)" style="stroke:#000000; stroke-linecap:round; stroke-linejoin:round; stroke-width:4; stroke-opacity:1; fill:none" points="178.867,1326.65 197.764,1326.65 "/>
<polyline clip-path="url(#clip510)" style="stroke:#000000; stroke-linecap:round; stroke-linejoin:round; stroke-width:4; stroke-opacity:1; fill:none" points="178.867,1166.85 197.764,1166.85 "/>
<polyline clip-path="url(#clip510)" style="stroke:#000000; stroke-linecap:round; stroke-linejoin:round; stroke-width:4; stroke-opacity:1; fill:none" points="178.867,1007.05 197.764,1007.05 "/>
<polyline clip-path="url(#clip510)" style="stroke:#000000; stroke-linecap:round; stroke-linejoin:round; stroke-width:4; stroke-opacity:1; fill:none" points="178.867,847.244 197.764,847.244 "/>
<path clip-path="url(#clip510)" d="M50.9921 1486.9 L80.6679 1486.9 L80.6679 1490.83 L50.9921 1490.83 L50.9921 1486.9 Z" fill="#000000" fill-rule="nonzero" fill-opacity="1" /><path clip-path="url(#clip510)" d="M91.5706 1499.79 L99.2095 1499.79 L99.2095 1473.43 L90.8993 1475.09 L90.8993 1470.83 L99.1632 1469.17 L103.839 1469.17 L103.839 1499.79 L111.478 1499.79 L111.478 1503.73 L91.5706 1503.73 L91.5706 1499.79 Z" fill="#000000" fill-rule="nonzero" fill-opacity="1" /><path clip-path="url(#clip510)" d="M130.922 1472.25 Q127.311 1472.25 125.482 1475.81 Q123.677 1479.35 123.677 1486.48 Q123.677 1493.59 125.482 1497.15 Q127.311 1500.7 130.922 1500.7 Q134.556 1500.7 136.362 1497.15 Q138.191 1493.59 138.191 1486.48 Q138.191 1479.35 136.362 1475.81 Q134.556 1472.25 130.922 1472.25 M130.922 1468.54 Q136.732 1468.54 139.788 1473.15 Q142.867 1477.73 142.867 1486.48 Q142.867 1495.21 139.788 1499.82 Q136.732 1504.4 130.922 1504.4 Q125.112 1504.4 122.033 1499.82 Q118.978 1495.21 118.978 1486.48 Q118.978 1477.73 122.033 1473.15 Q125.112 1468.54 130.922 1468.54 Z" fill="#000000" fill-rule="nonzero" fill-opacity="1" /><path clip-path="url(#clip510)" d="M82.1494 1327.1 L111.825 1327.1 L111.825 1331.03 L82.1494 1331.03 L82.1494 1327.1 Z" fill="#000000" fill-rule="nonzero" fill-opacity="1" /><path clip-path="url(#clip510)" d="M121.964 1309.37 L140.32 1309.37 L140.32 1313.3 L126.246 1313.3 L126.246 1321.77 Q127.265 1321.43 128.283 1321.27 Q129.302 1321.08 130.32 1321.08 Q136.107 1321.08 139.487 1324.25 Q142.867 1327.42 142.867 1332.84 Q142.867 1338.42 139.394 1341.52 Q135.922 1344.6 129.603 1344.6 Q127.427 1344.6 125.158 1344.23 Q122.913 1343.86 120.506 1343.12 L120.506 1338.42 Q122.589 1339.55 124.811 1340.11 Q127.033 1340.66 129.51 1340.66 Q133.515 1340.66 135.853 1338.56 Q138.191 1336.45 138.191 1332.84 Q138.191 1329.23 135.853 1327.12 Q133.515 1325.01 129.51 1325.01 Q127.635 1325.01 125.76 1325.43 Q123.908 1325.85 121.964 1326.73 L121.964 1309.37 Z" fill="#000000" fill-rule="nonzero" fill-opacity="1" /><path clip-path="url(#clip510)" d="M130.922 1152.64 Q127.311 1152.64 125.482 1156.21 Q123.677 1159.75 123.677 1166.88 Q123.677 1173.99 125.482 1177.55 Q127.311 1181.09 130.922 1181.09 Q134.556 1181.09 136.362 1177.55 Q138.191 1173.99 138.191 1166.88 Q138.191 1159.75 136.362 1156.21 Q134.556 1152.64 130.922 1152.64 M130.922 1148.94 Q136.732 1148.94 139.788 1153.55 Q142.867 1158.13 142.867 1166.88 Q142.867 1175.61 139.788 1180.21 Q136.732 1184.8 130.922 1184.8 Q125.112 1184.8 122.033 1180.21 Q118.978 1175.61 118.978 1166.88 Q118.978 1158.13 122.033 1153.55 Q125.112 1148.94 130.922 1148.94 Z" fill="#000000" fill-rule="nonzero" fill-opacity="1" /><path clip-path="url(#clip510)" d="M121.964 989.765 L140.32 989.765 L140.32 993.7 L126.246 993.7 L126.246 1002.17 Q127.265 1001.83 128.283 1001.66 Q129.302 1001.48 130.32 1001.48 Q136.107 1001.48 139.487 1004.65 Q142.867 1007.82 142.867 1013.24 Q142.867 1018.82 139.394 1021.92 Q135.922 1025 129.603 1025 Q127.427 1025 125.158 1024.63 Q122.913 1024.26 120.506 1023.51 L120.506 1018.82 Q122.589 1019.95 124.811 1020.51 Q127.033 1021.06 129.51 1021.06 Q133.515 1021.06 135.853 1018.95 Q138.191 1016.85 138.191 1013.24 Q138.191 1009.63 135.853 1007.52 Q133.515 1005.41 129.51 1005.41 Q127.635 1005.41 125.76 1005.83 Q123.908 1006.25 121.964 1007.13 L121.964 989.765 Z" fill="#000000" fill-rule="nonzero" fill-opacity="1" /><path clip-path="url(#clip510)" d="M91.5706 860.589 L99.2095 860.589 L99.2095 834.223 L90.8993 835.89 L90.8993 831.631 L99.1632 829.964 L103.839 829.964 L103.839 860.589 L111.478 860.589 L111.478 864.524 L91.5706 864.524 L91.5706 860.589 Z" fill="#000000" fill-rule="nonzero" fill-opacity="1" /><path clip-path="url(#clip510)" d="M130.922 833.043 Q127.311 833.043 125.482 836.608 Q123.677 840.149 123.677 847.279 Q123.677 854.385 125.482 857.95 Q127.311 861.492 130.922 861.492 Q134.556 861.492 136.362 857.95 Q138.191 854.385 138.191 847.279 Q138.191 840.149 136.362 836.608 Q134.556 833.043 130.922 833.043 M130.922 829.339 Q136.732 829.339 139.788 833.946 Q142.867 838.529 142.867 847.279 Q142.867 856.006 139.788 860.612 Q136.732 865.195 130.922 865.195 Q125.112 865.195 122.033 860.612 Q118.978 856.006 118.978 847.279 Q118.978 838.529 122.033 833.946 Q125.112 829.339 130.922 829.339 Z" fill="#000000" fill-rule="nonzero" fill-opacity="1" /><polyline clip-path="url(#clip513)" style="stroke:#009af9; stroke-linecap:round; stroke-linejoin:round; stroke-width:4; stroke-opacity:1; fill:none" points="240.392,1134.89 242.445,1146.77 244.498,1255.8 246.55,1130.33 248.603,1123.48 250.656,1132.99 252.709,1108.45 254.762,1102.89 256.815,1110.12 258.868,1171.21 260.921,1173.88 262.974,1237.3 265.027,1131.66 267.079,1205.87 269.132,1068.14 271.185,1152.83 273.238,1149.53 275.291,1136.37 277.344,1127.37 279.397,1157.81 281.45,1151.24 283.503,1113.92 285.555,1143.52 287.608,1056.37 289.661,1397.12 291.714,1478.13 293.767,1506.91 295.82,1542.21 297.873,1561.19 299.926,1268.11 301.979,1118.65 304.031,266.92 306.084,-562.527 308.137,1194.62 310.19,1175.45 312.243,1174.19 314.296,1229.7 316.349,1199.14 318.402,1387.16 320.455,1347.6 322.507,1263.55 324.56,1067.71 326.613,952.927 328.666,1067.8 330.719,1164.8 332.772,1103.32 334.825,1101.52 336.878,1111.54 338.931,1119.65 340.984,1135.62 343.036,1162.62 345.089,1155.22 347.142,1191.09 349.195,1172.86 351.248,1138.86 353.301,1202.06 355.354,1177.69 357.407,1177.81 359.46,1150.71 361.512,1166.77 363.565,1169.36 365.618,1193.85 367.671,1146.54 369.724,1196.39 371.777,1160.57 373.83,1147.91 375.883,1146.5 377.936,1165.26 379.988,1161.78 382.041,1199.32 384.094,1160.33 386.147,1157.07 388.2,1134.12 390.253,1212.44 392.306,1127.81 394.359,1183.08 396.412,1211.33 398.464,1143.85 400.517,1152.08 402.57,1149.73 404.623,1228.84 406.676,1190.99 408.729,1206.23 410.782,1085.06 412.835,1194.27 414.888,1192.59 416.94,1514.29 418.993,1879.4 421.046,-1023.69 423.099,885.426 425.152,2091.14 427.205,1203.28 429.258,1795.06 431.311,1240.95 433.364,1113.15 435.417,1210.03 437.469,1132.59 439.522,1149.86 441.575,924.323 443.628,1055.65 445.681,1305.94 447.734,1129.48 449.787,1097.67 451.84,1188.08 453.893,1141.95 455.945,1187.29 457.998,1167.03 460.051,1162.72 462.104,1151.73 464.157,1180.97 466.21,1150.97 468.263,1167.14 470.316,1167.78 472.369,1127.98 474.421,1196.47 476.474,1091.86 478.527,1156.65 480.58,1162.93 482.633,1185.01 484.686,1120.37 486.739,1173.48 488.792,1181.23 490.845,1111.71 492.897,1195.86 494.95,1145.93 497.003,1150.46 499.056,1143.88 501.109,1143.53 503.162,1182.09 505.215,1129.33 507.268,1145.09 509.321,1028.74 511.374,1126 513.426,1024.2 515.479,1184.72 517.532,1165.4 519.585,1149.65 521.638,1188.6 523.691,1201.92 525.744,1142.07 527.797,1216.28 529.85,1205.44 531.902,1163.7 533.955,1177.34 536.008,1162.23 538.061,1172.43 540.114,1187.53 542.167,1671.44 544.22,1167.6 546.273,1151.6 548.326,1167.95 550.378,1127.49 552.431,1171.87 554.484,1119.57 556.537,1396.39 558.59,1246.67 560.643,1040.49 562.696,1057.14 564.749,1215.17 566.802,1155.43 568.854,1149.34 570.907,1149.65 572.96,1147.75 575.013,1160.54 577.066,1172.68 579.119,1175.1 581.172,1154.17 583.225,1170.23 585.278,1202.88 587.331,1182.2 589.383,1187.36 591.436,1136.77 593.489,1297.92 595.542,1216.43 597.595,1152.33 599.648,1142.24 601.701,1154.45 603.754,1165.08 605.807,1162.06 607.859,1158.6 609.912,1154.08 611.965,1127.21 614.018,1156.29 616.071,1178.4 618.124,1162.43 620.177,1185.4 622.23,1162.09 624.283,1158.73 626.335,1203.66 628.388,1203.93 630.441,1064.93 632.494,1305.83 634.547,981.151 636.6,1305.61 638.653,1135.43 640.706,1158.52 642.759,1051.95 644.811,1009.33 646.864,1125.11 648.917,1072.41 650.97,1313.27 653.023,1178.1 655.076,1173.85 657.129,1169.62 659.182,1171.72 661.235,1169.07 663.288,1170.71 665.34,1167.72 667.393,1278.15 669.446,1212.59 671.499,1169.24 673.552,1584.71 675.605,813.176 677.658,1219.89 679.711,1157.4 681.764,1141.18 683.816,1042.67 685.869,1176.1 687.922,1185.53 689.975,1193.75 692.028,1232.54 694.081,1155.52 696.134,1173.98 698.187,1164.18 700.24,1198.47 702.292,1142.96 704.345,1162.79 706.398,1231.69 708.451,1381.45 710.504,1221.18 712.557,1301.21 714.61,992.958 716.663,1276.72 718.716,1175.67 720.768,1157.96 722.821,1190.61 724.874,1253.98 726.927,1145.54 728.98,1201.14 731.033,1306.44 733.086,1116.89 735.139,1288.34 737.192,1236.71 739.245,1193.14 741.297,1229.49 743.35,1056.68 745.403,1058.36 747.456,1236.18 749.509,1123.6 751.562,1221.72 753.615,1142.83 755.668,1162.01 757.721,1258.78 759.773,1125.04 761.826,1149.09 763.879,1124.09 765.932,1146.05 767.985,1144.23 770.038,1166 772.091,1153.41 774.144,1181.84 776.197,1135.67 778.249,1134.1 780.302,1119.51 782.355,1150.09 784.408,1125.62 786.461,1158.93 788.514,1177.04 790.567,1179.49 792.62,1194.96 794.673,1160.18 796.725,1189.06 798.778,1137.84 800.831,1177.87 802.884,1163.29 804.937,1136.81 806.99,1187.35 809.043,1243.39 811.096,1243.68 813.149,1330.27 815.202,980.196 817.254,755.276 819.307,1172.8 821.36,1167.94 823.413,1166.53 825.466,1123.23 827.519,1157.65 829.572,1135.32 831.625,1169.64 833.678,1193.96 835.73,1280.05 837.783,1160.31 839.836,1163 841.889,1126.5 843.942,1221.22 845.995,1012.08 848.048,1100.14 850.101,1346.12 852.154,1434.58 854.206,1419.62 856.259,852.842 858.312,1177.59 860.365,1156.97 862.418,1167.42 864.471,1134.95 866.524,1162.07 868.577,1158.26 870.63,1156.74 872.682,1188.2 874.735,1166.59 876.788,1154.38 878.841,1175.43 880.894,1180.94 882.947,1173.73 885,1120.01 887.053,1202.77 889.106,1322.93 891.159,1151.44 893.211,1152.34 895.264,1251.3 897.317,1268.68 899.37,1014.74 901.423,1225.56 903.476,1153.44 905.529,1290.77 907.582,1080.24 909.635,1272.08 911.687,1312.74 913.74,1050.16 915.793,1249.24 917.846,1214.46 919.899,1126.19 921.952,1090.08 924.005,1190.81 926.058,1119.13 928.111,1185.99 930.163,1214.78 932.216,1378.52 934.269,988.217 936.322,940.206 938.375,1449.91 940.428,956.694 942.481,1253.24 944.534,1326.25 946.587,924.177 948.639,124.799 950.692,1543.36 952.745,1284.73 954.798,1335.89 956.851,1523.25 958.904,1269.74 960.957,753.821 963.01,982.431 965.063,838.531 967.116,1152 969.168,1299.44 971.221,1149.8 973.274,1170.89 975.327,1165.26 977.38,1206.23 979.433,1133.89 981.486,1192.83 983.539,1157.35 985.592,1164.95 987.644,1164.04 989.697,1148.09 991.75,1180.63 993.803,1152.88 995.856,1120.84 997.909,1002.14 999.962,1002.58 1002.01,1269.94 1004.07,1001.9 1006.12,1090.81 1008.17,1052.99 1010.23,1110.94 1012.28,1196 1014.33,1166.42 1016.38,1173.25 1018.44,1158.03 1020.49,1159.64 1022.54,1171.35 1024.6,1106.87 1026.65,1165.34 1028.7,1207.29 1030.76,1143.64 1032.81,1194.66 1034.86,1188.09 1036.91,1179.91 1038.97,1050.17 1041.02,1182.62 1043.07,1176.41 1045.13,1182.4 1047.18,1212.81 1049.23,1281.23 1051.28,1154.9 1053.34,1167.23 1055.39,1207.86 1057.44,1177.67 1059.5,1187.19 1061.55,1216.36 1063.6,1217.86 1065.65,1134.05 1067.71,1197.39 1069.76,1132.63 1071.81,1211.58 1073.87,1191.25 1075.92,1137.19 1077.97,1149.2 1080.02,1166.76 1082.08,1161.85 1084.13,1149.14 1086.18,1211.94 1088.24,1182.95 1090.29,1146.26 1092.34,1151.96 1094.39,1162.24 1096.45,1190.15 1098.5,1242.71 1100.55,1134.23 1102.61,1176.06 1104.66,1210.6 1106.71,1159.07 1108.77,1102.4 1110.82,1226.39 1112.87,1177.67 1114.92,1164.2 1116.98,1159.48 1119.03,1143.31 1121.08,1166.54 1123.14,1315.6 1125.19,1013.22 1127.24,1136.44 1129.29,1225.36 1131.35,1114.18 1133.4,1153.92 1135.45,1134.95 1137.51,1208.77 1139.56,1116.1 1141.61,1159.17 1143.66,1264.53 1145.72,1153.78 1147.77,1117.26 1149.82,1099.94 1151.88,1125.18 1153.93,1187.37 1155.98,1158.39 1158.03,1175.87 1160.09,1167.52 1162.14,1161.14 1164.19,1202.22 1166.25,1165.64 1168.3,1165.81 1170.35,1196.82 1172.4,1141.87 1174.46,1127.65 1176.51,1296.09 1178.56,1184.73 1180.62,1173.33 1182.67,1194.98 1184.72,1143.49 1186.77,1240.3 1188.83,1271.2 1190.88,1120.06 1192.93,1232.8 1194.99,1158.15 1197.04,1147.95 1199.09,1155.06 1201.15,1179.35 1203.2,1212.43 1205.25,1057.26 1207.3,1197.2 1209.36,1170.34 1211.41,1163.63 1213.46,1186.71 1215.52,1189.93 1217.57,1172.82 1219.62,1127.97 1221.67,1188.36 1223.73,1166.22 1225.78,1133.89 1227.83,1221.08 1229.89,1156.12 1231.94,1084.34 1233.99,1214.04 1236.04,1129.19 1238.1,1190.35 1240.15,1157.12 1242.2,1088.53 1244.26,1115.83 1246.31,1174.36 1248.36,1187.17 1250.41,1127.01 1252.47,1145.03 1254.52,1156.13 1256.57,1186.79 1258.63,1205.75 1260.68,1127.13 1262.73,1258.18 1264.78,1339.64 1266.84,1269.87 1268.89,1052.75 1270.94,1437.42 1273,650.152 1275.05,1327.03 1277.1,899.947 1279.16,2263.83 1281.21,-552.423 1283.26,4906.9 1285.31,1155.59 1287.37,1138.35 1289.42,1152.4 1291.47,1233.45 1293.53,1164.01 1295.58,1024.99 1297.63,1210.57 1299.68,1179.64 1301.74,1167.58 1303.79,1157.15 1305.84,1179.68 1307.9,1263.19 1309.95,1152.45 1312,1151.08 1314.05,1244.64 1316.11,1182.19 1318.16,1215.95 1320.21,1186.04 1322.27,1264.45 1324.32,1015.47 1326.37,1320.86 1328.42,1123.42 1330.48,1164.94 1332.53,1132.42 1334.58,1245.58 1336.64,1224.36 1338.69,1201.69 1340.74,1130.62 1342.79,1220.38 1344.85,1130.28 1346.9,1200.45 1348.95,1193.69 1351.01,1176.15 1353.06,1206.39 1355.11,1284.72 1357.16,896.35 1359.22,1121.07 1361.27,1283.79 1363.32,1153.57 1365.38,1184.45 1367.43,1150.33 1369.48,1143.75 1371.54,1157.59 1373.59,1125.16 1375.64,1180.84 1377.69,1144.92 1379.75,1138.56 1381.8,1147.3 1383.85,1183.02 1385.91,1235.8 1387.96,1209.09 1390.01,1172.35 1392.06,1173.8 1394.12,1183.23 1396.17,1167.61 1398.22,1173.52 1400.28,1151.19 1402.33,1147.56 1404.38,1214.86 1406.43,1121.53 1408.49,1157.83 1410.54,1214.34 1412.59,1203.78 1414.65,1104.08 1416.7,1121.32 1418.75,1127.06 1420.8,1219.86 1422.86,1125.09 1424.91,1201.39 1426.96,1193.34 1429.02,1141.05 1431.07,1232.84 1433.12,1173.59 1435.17,1172.22 1437.23,1140.79 1439.28,1172.01 1441.33,1157.17 1443.39,1165.41 1445.44,1187.51 1447.49,1200.79 1449.55,1171 1451.6,1160.64 1453.65,1233.18 1455.7,1139.02 1457.76,1177.41 1459.81,1142.06 1461.86,1209.18 1463.92,1153.07 1465.97,1135.47 1468.02,1261.64 1470.07,1155.89 1472.13,1185.89 1474.18,1114.53 1476.23,1171.9 1478.29,1143.3 1480.34,1251.98 1482.39,1037.92 1484.44,1334.08 1486.5,1171.02 1488.55,1127.18 1490.6,1400.38 1492.66,1412.33 1494.71,944.199 1496.76,1272.27 1498.81,1279.05 1500.87,1221.3 1502.92,1196.35 1504.97,1236.12 1507.03,1179.66 1509.08,1167.44 1511.13,1189.91 1513.18,1198.42 1515.24,1153.15 1517.29,1322.59 1519.34,1161.51 1521.4,1188.32 1523.45,1078.39 1525.5,1142.86 1527.55,1139.86 1529.61,1193.84 1531.66,1205.62 1533.71,1121.68 1535.77,1173.95 1537.82,1170.01 1539.87,1180.38 1541.93,1265.26 1543.98,1263.86 1546.03,1265.35 1548.08,1402.34 1550.14,1267.81 1552.19,1139.12 1554.24,1125.11 1556.3,1167.53 1558.35,1158.94 1560.4,1118.13 1562.45,1152.25 1564.51,1115.99 1566.56,1214.71 1568.61,1184.99 1570.67,1204.75 1572.72,1184.15 1574.77,1191.34 1576.82,1186.73 1578.88,1208.78 1580.93,1146.95 1582.98,1087.52 1585.04,1118.62 1587.09,1128.55 1589.14,1140.78 1591.19,1253.93 1593.25,1214.18 1595.3,1197.06 1597.35,1205.87 1599.41,1194.22 1601.46,1205.11 1603.51,1268.97 1605.56,1200.07 1607.62,1211.51 1609.67,1216.19 1611.72,1094.56 1613.78,1193.14 1615.83,1184.49 1617.88,1116.96 1619.94,1191.64 1621.99,1137.35 1624.04,1143.3 1626.09,1181.84 1628.15,1256.17 1630.2,1180.4 1632.25,1202.47 1634.31,1195.47 1636.36,1143.39 1638.41,1210.57 1640.46,1115.54 1642.52,1223.18 1644.57,1146.78 1646.62,1125.5 1648.68,1206.22 1650.73,1183.26 1652.78,1161.91 1654.83,1186.23 1656.89,1161.71 1658.94,1155.49 1660.99,1140.93 1663.05,1245.78 1665.1,1228.8 1667.15,1150.41 1669.2,1195.94 1671.26,1167.66 1673.31,1172.56 1675.36,1435.24 1677.42,1022.43 1679.47,1218.06 1681.52,1202.47 1683.57,1141.86 1685.63,1169.3 1687.68,1159.73 1689.73,1185.01 1691.79,1123.21 1693.84,1216.52 1695.89,1190.72 1697.94,1175.2 1700,1212.39 1702.05,1142.47 1704.1,1144.92 1706.16,1150.6 1708.21,1200.59 1710.26,1109.18 1712.32,1125.52 1714.37,1182.72 1716.42,1155.99 1718.47,1218.02 1720.53,1275.16 1722.58,1129.96 1724.63,1239.17 1726.69,1131.89 1728.74,1156.39 1730.79,1170.93 1732.84,1154.84 1734.9,1157.92 1736.95,1164.55 1739,1183.24 1741.06,1187.39 1743.11,1200.78 1745.16,1174.67 1747.21,1058.08 1749.27,1234.2 1751.32,1113.95 1753.37,1102.14 1755.43,1195.32 1757.48,1144.64 1759.53,1190.25 1761.58,1220.01 1763.64,1133.21 1765.69,1159.65 1767.74,1180.22 1769.8,1205.59 1771.85,1179.43 1773.9,1192.83 1775.95,1139.22 1778.01,1205.61 1780.06,1150.43 1782.11,1153.12 1784.17,1127.31 1786.22,1272.19 1788.27,1112.62 1790.33,1235.56 1792.38,1214.42 1794.43,1283.79 1796.48,1208.93 1798.54,1129.78 1800.59,1082.95 1802.64,1166.43 1804.7,1158.85 1806.75,1198.72 1808.8,1187.28 1810.85,1171.35 1812.91,1189.18 1814.96,1141.46 1817.01,1170.77 1819.07,1152.5 1821.12,1183.3 1823.17,1170.55 1825.22,1155.7 1827.28,1173.51 1829.33,1166.54 1831.38,1136.87 1833.44,1171.29 1835.49,1186.75 1837.54,1162.86 1839.59,1115.12 1841.65,1108.05 1843.7,1113.85 1845.75,1141.13 1847.81,1173.41 1849.86,1172.53 1851.91,1139.42 1853.96,1144.59 1856.02,1126.87 1858.07,1115.42 1860.12,1371.68 1862.18,1296.15 1864.23,1158.04 1866.28,1441.05 1868.34,892.358 1870.39,913.269 1872.44,1231.69 1874.49,1132.36 1876.55,1201.65 1878.6,1197.2 1880.65,1058.96 1882.71,1121.43 1884.76,1222.3 1886.81,1215 1888.86,1179 1890.92,1150.35 1892.97,1102.7 1895.02,1278.62 1897.08,738.65 1899.13,618.504 1901.18,1212.88 1903.23,1243.92 1905.29,1201.28 1907.34,1152.84 1909.39,1187.6 1911.45,1173.75 1913.5,1172.61 1915.55,1161.73 1917.6,1153.68 1919.66,1121.58 1921.71,1192.43 1923.76,1156.28 1925.82,1190.12 1927.87,1170.63 1929.92,1162.98 1931.97,1188.99 1934.03,1184.8 1936.08,1160.78 1938.13,1129.46 1940.19,1346.16 1942.24,1153.64 1944.29,1175.98 1946.34,1166.72 1948.4,1193.17 1950.45,1188.1 1952.5,1191.82 1954.56,1160.62 1956.61,1213.25 1958.66,1152.32 1960.72,1203.07 1962.77,1210.74 1964.82,1274.04 1966.87,1209.81 1968.93,1287.54 1970.98,749.121 1973.03,1310.14 1975.09,1185.25 1977.14,1124.86 1979.19,1180.05 1981.24,1211.21 1983.3,1125.59 1985.35,1207.2 1987.4,1170.82 1989.46,1160.13 1991.51,1177.13 1993.56,1160.46 1995.61,1162.05 1997.67,1152.14 1999.72,1169.85 2001.77,1119.84 2003.83,1150.15 2005.88,1146.05 2007.93,956.377 2009.98,1167.77 2012.04,980.54 2014.09,1044.92 2016.14,1211.05 2018.2,1118.4 2020.25,1372.95 2022.3,656.292 2024.35,-101.693 2026.41,2305.57 2028.46,1171.62 2030.51,1167.09 2032.57,1163.81 2034.62,1125.02 2036.67,1186.12 2038.73,1154.13 2040.78,1153.95 2042.83,1160.97 2044.88,1122.58 2046.94,1191.18 2048.99,1136.42 2051.04,1139.09 2053.1,1213.82 2055.15,1175.94 2057.2,1169.87 2059.25,1162.65 2061.31,1150.06 2063.36,1222.76 2065.41,1146.58 2067.47,1090.56 2069.52,1187.02 2071.57,1222.18 2073.62,1354.68 2075.68,1289.4 2077.73,1135.17 2079.78,1145.1 2081.84,1093.44 2083.89,1155.16 2085.94,1179.75 2087.99,1222.54 2090.05,1247.06 2092.1,982.068 2094.15,1746.49 2096.21,1186.46 2098.26,1346.02 2100.31,1004.04 2102.36,1266.49 2104.42,1164.48 2106.47,1182.69 2108.52,1283.8 2110.58,1189.65 2112.63,1157.76 2114.68,1248.93 2116.73,1245.7 2118.79,1150.34 2120.84,1118.89 2122.89,1083.18 2124.95,1044.08 2127,1174.77 2129.05,1144.64 2131.11,1146.52 2133.16,1204.75 2135.21,1181.17 2137.26,1175.48 2139.32,1160.24 2141.37,1172.77 2143.42,1158.52 2145.48,1167.58 2147.53,1180.63 2149.58,965.314 2151.63,1336.06 2153.69,1168.16 2155.74,1201.2 2157.79,1126.56 2159.85,1154.42 2161.9,1194.37 2163.95,1204.21 2166,1127.75 2168.06,1193.71 2170.11,1169.63 2172.16,1179.59 2174.22,1169.93 2176.27,1316.49 2178.32,1343.42 2180.37,1271.91 2182.43,1128.21 2184.48,1221.24 2186.53,1229.26 2188.59,1156.65 2190.64,1046.78 2192.69,1238.11 2194.74,1161.31 2196.8,1164.34 2198.85,1171.3 2200.9,1175.21 2202.96,1158.16 2205.01,1235.23 2207.06,1199.82 2209.12,1181.85 2211.17,1247.27 2213.22,1155.34 2215.27,1165.56 2217.33,1169.63 2219.38,1123.5 2221.43,1163.8 2223.49,1160.03 2225.54,1260.21 2227.59,1186.55 2229.64,1019.79 2231.7,1184.23 2233.75,1181.89 2235.8,1165.24 2237.86,1134.54 2239.91,1181.23 2241.96,1210.07 2244.01,1139.57 2246.07,1139.85 2248.12,1132.44 2250.17,1149.29 2252.23,1103.8 2254.28,1152.8 2256.33,1174.09 2258.38,1160.72 2260.44,1168.03 2262.49,1176.54 2264.54,1157.33 2266.6,1174.21 2268.65,1185 2270.7,1179.59 2272.75,1133.64 2274.81,1262.87 2276.86,1308.01 2278.91,1142.13 2280.97,1158.19 2283.02,1197.39 2285.07,1163.53 2287.12,1090.86 2289.18,1172.47 2291.23,1164.01 "/>
<path clip-path="url(#clip510)" d="M1942.7 972.231 L2280.29 972.231 L2280.29 868.551 L1942.7 868.551  Z" fill="#ffffff" fill-rule="evenodd" fill-opacity="1"/>
<polyline clip-path="url(#clip510)" style="stroke:#000000; stroke-linecap:round; stroke-linejoin:round; stroke-width:4; stroke-opacity:1; fill:none" points="1942.7,972.231 2280.29,972.231 2280.29,868.551 1942.7,868.551 1942.7,972.231 "/>
<polyline clip-path="url(#clip510)" style="stroke:#009af9; stroke-linecap:round; stroke-linejoin:round; stroke-width:4; stroke-opacity:1; fill:none" points="1966.85,920.391 2111.78,920.391 "/>
<path clip-path="url(#clip510)" d="M2161.49 932.74 L2161.49 923.458 L2153.85 923.458 L2153.85 919.615 L2166.12 919.615 L2166.12 934.453 Q2163.41 936.375 2160.14 937.37 Q2156.88 938.342 2153.18 938.342 Q2145.07 938.342 2140.49 933.62 Q2135.93 928.875 2135.93 920.426 Q2135.93 911.953 2140.49 907.231 Q2145.07 902.486 2153.18 902.486 Q2156.56 902.486 2159.59 903.319 Q2162.64 904.153 2165.21 905.773 L2165.21 910.75 Q2162.62 908.551 2159.7 907.44 Q2156.79 906.328 2153.57 906.328 Q2147.23 906.328 2144.03 909.87 Q2140.86 913.412 2140.86 920.426 Q2140.86 927.416 2144.03 930.958 Q2147.23 934.5 2153.57 934.5 Q2156.05 934.5 2157.99 934.083 Q2159.94 933.643 2161.49 932.74 Z" fill="#000000" fill-rule="nonzero" fill-opacity="1" /><path clip-path="url(#clip510)" d="M2179.33 906.953 L2179.33 919.94 L2185.21 919.94 Q2188.48 919.94 2190.26 918.25 Q2192.04 916.56 2192.04 913.435 Q2192.04 910.333 2190.26 908.643 Q2188.48 906.953 2185.21 906.953 L2179.33 906.953 M2174.66 903.111 L2185.21 903.111 Q2191.02 903.111 2193.99 905.75 Q2196.97 908.365 2196.97 913.435 Q2196.97 918.551 2193.99 921.166 Q2191.02 923.782 2185.21 923.782 L2179.33 923.782 L2179.33 937.671 L2174.66 937.671 L2174.66 903.111 Z" fill="#000000" fill-rule="nonzero" fill-opacity="1" /><path clip-path="url(#clip510)" d="M2223.96 904.245 L2223.96 908.805 Q2221.3 907.532 2218.94 906.907 Q2216.58 906.282 2214.38 906.282 Q2210.56 906.282 2208.48 907.764 Q2206.42 909.245 2206.42 911.977 Q2206.42 914.268 2207.78 915.449 Q2209.17 916.606 2213.01 917.324 L2215.84 917.902 Q2221.07 918.898 2223.55 921.421 Q2226.05 923.921 2226.05 928.134 Q2226.05 933.157 2222.67 935.75 Q2219.31 938.342 2212.81 938.342 Q2210.35 938.342 2207.57 937.787 Q2204.82 937.231 2201.86 936.143 L2201.86 931.328 Q2204.7 932.926 2207.44 933.736 Q2210.17 934.546 2212.81 934.546 Q2216.81 934.546 2218.99 932.972 Q2221.16 931.398 2221.16 928.481 Q2221.16 925.935 2219.59 924.5 Q2218.04 923.064 2214.47 922.347 L2211.62 921.791 Q2206.39 920.75 2204.06 918.527 Q2201.72 916.305 2201.72 912.347 Q2201.72 907.764 2204.94 905.125 Q2208.18 902.486 2213.85 902.486 Q2216.28 902.486 2218.8 902.926 Q2221.32 903.366 2223.96 904.245 Z" fill="#000000" fill-rule="nonzero" fill-opacity="1" /><path clip-path="url(#clip510)" d="M2254.06 904.245 L2254.06 908.805 Q2251.39 907.532 2249.03 906.907 Q2246.67 906.282 2244.47 906.282 Q2240.65 906.282 2238.57 907.764 Q2236.51 909.245 2236.51 911.977 Q2236.51 914.268 2237.87 915.449 Q2239.26 916.606 2243.11 917.324 L2245.93 917.902 Q2251.16 918.898 2253.64 921.421 Q2256.14 923.921 2256.14 928.134 Q2256.14 933.157 2252.76 935.75 Q2249.4 938.342 2242.9 938.342 Q2240.44 938.342 2237.67 937.787 Q2234.91 937.231 2231.95 936.143 L2231.95 931.328 Q2234.8 932.926 2237.53 933.736 Q2240.26 934.546 2242.9 934.546 Q2246.9 934.546 2249.08 932.972 Q2251.25 931.398 2251.25 928.481 Q2251.25 925.935 2249.68 924.5 Q2248.13 923.064 2244.56 922.347 L2241.72 921.791 Q2236.49 920.75 2234.15 918.527 Q2231.81 916.305 2231.81 912.347 Q2231.81 907.764 2235.03 905.125 Q2238.27 902.486 2243.94 902.486 Q2246.37 902.486 2248.89 902.926 Q2251.42 903.366 2254.06 904.245 Z" fill="#000000" fill-rule="nonzero" fill-opacity="1" /></svg>
