<?xml version="1.0" encoding="utf-8"?>
<svg xmlns="http://www.w3.org/2000/svg" xmlns:xlink="http://www.w3.org/1999/xlink" width="600" height="400" viewBox="0 0 2400 1600">
<defs>
  <clipPath id="clip900">
    <rect x="0" y="0" width="2400" height="1600"/>
  </clipPath>
</defs>
<path clip-path="url(#clip900)" d="M0 1600 L2400 1600 L2400 0 L0 0  Z" fill="#ffffff" fill-rule="evenodd" fill-opacity="1"/>
<defs>
  <clipPath id="clip901">
    <rect x="480" y="0" width="1681" height="1600"/>
  </clipPath>
</defs>
<path clip-path="url(#clip900)" d="M178.867 686.448 L2352.76 686.448 L2352.76 47.2441 L178.867 47.2441  Z" fill="#ffffff" fill-rule="evenodd" fill-opacity="1"/>
<defs>
  <clipPath id="clip902">
    <rect x="178" y="47" width="2175" height="640"/>
  </clipPath>
</defs>
<polyline clip-path="url(#clip902)" style="stroke:#000000; stroke-linecap:round; stroke-linejoin:round; stroke-width:2; stroke-opacity:0.1; fill:none" points="238.339,686.448 238.339,47.2441 "/>
<polyline clip-path="url(#clip902)" style="stroke:#000000; stroke-linecap:round; stroke-linejoin:round; stroke-width:2; stroke-opacity:0.1; fill:none" points="751.562,686.448 751.562,47.2441 "/>
<polyline clip-path="url(#clip902)" style="stroke:#000000; stroke-linecap:round; stroke-linejoin:round; stroke-width:2; stroke-opacity:0.1; fill:none" points="1264.78,686.448 1264.78,47.2441 "/>
<polyline clip-path="url(#clip902)" style="stroke:#000000; stroke-linecap:round; stroke-linejoin:round; stroke-width:2; stroke-opacity:0.1; fill:none" points="1778.01,686.448 1778.01,47.2441 "/>
<polyline clip-path="url(#clip902)" style="stroke:#000000; stroke-linecap:round; stroke-linejoin:round; stroke-width:2; stroke-opacity:0.1; fill:none" points="2291.23,686.448 2291.23,47.2441 "/>
<polyline clip-path="url(#clip900)" style="stroke:#000000; stroke-linecap:round; stroke-linejoin:round; stroke-width:4; stroke-opacity:1; fill:none" points="178.867,686.448 2352.76,686.448 "/>
<polyline clip-path="url(#clip900)" style="stroke:#000000; stroke-linecap:round; stroke-linejoin:round; stroke-width:4; stroke-opacity:1; fill:none" points="238.339,686.448 238.339,667.55 "/>
<polyline clip-path="url(#clip900)" style="stroke:#000000; stroke-linecap:round; stroke-linejoin:round; stroke-width:4; stroke-opacity:1; fill:none" points="751.562,686.448 751.562,667.55 "/>
<polyline clip-path="url(#clip900)" style="stroke:#000000; stroke-linecap:round; stroke-linejoin:round; stroke-width:4; stroke-opacity:1; fill:none" points="1264.78,686.448 1264.78,667.55 "/>
<polyline clip-path="url(#clip900)" style="stroke:#000000; stroke-linecap:round; stroke-linejoin:round; stroke-width:4; stroke-opacity:1; fill:none" points="1778.01,686.448 1778.01,667.55 "/>
<polyline clip-path="url(#clip900)" style="stroke:#000000; stroke-linecap:round; stroke-linejoin:round; stroke-width:4; stroke-opacity:1; fill:none" points="2291.23,686.448 2291.23,667.55 "/>
<path clip-path="url(#clip900)" d="M238.339 717.367 Q234.728 717.367 232.899 720.931 Q231.094 724.473 231.094 731.603 Q231.094 738.709 232.899 742.274 Q234.728 745.815 238.339 745.815 Q241.973 745.815 243.779 742.274 Q245.607 738.709 245.607 731.603 Q245.607 724.473 243.779 720.931 Q241.973 717.367 238.339 717.367 M238.339 713.663 Q244.149 713.663 247.205 718.269 Q250.283 722.853 250.283 731.603 Q250.283 740.329 247.205 744.936 Q244.149 749.519 238.339 749.519 Q232.529 749.519 229.45 744.936 Q226.395 740.329 226.395 731.603 Q226.395 722.853 229.45 718.269 Q232.529 713.663 238.339 713.663 Z" fill="#000000" fill-rule="nonzero" fill-opacity="1" /><path clip-path="url(#clip900)" d="M715.254 744.913 L731.574 744.913 L731.574 748.848 L709.629 748.848 L709.629 744.913 Q712.291 742.158 716.875 737.528 Q721.481 732.876 722.662 731.533 Q724.907 729.01 725.787 727.274 Q726.689 725.515 726.689 723.825 Q726.689 721.07 724.745 719.334 Q722.824 717.598 719.722 717.598 Q717.523 717.598 715.069 718.362 Q712.638 719.126 709.861 720.677 L709.861 715.955 Q712.685 714.82 715.138 714.242 Q717.592 713.663 719.629 713.663 Q725 713.663 728.194 716.348 Q731.388 719.033 731.388 723.524 Q731.388 725.654 730.578 727.575 Q729.791 729.473 727.685 732.066 Q727.106 732.737 724.004 735.954 Q720.902 739.149 715.254 744.913 Z" fill="#000000" fill-rule="nonzero" fill-opacity="1" /><path clip-path="url(#clip900)" d="M741.435 714.288 L759.791 714.288 L759.791 718.223 L745.717 718.223 L745.717 726.695 Q746.736 726.348 747.754 726.186 Q748.773 726.001 749.791 726.001 Q755.578 726.001 758.958 729.172 Q762.337 732.343 762.337 737.76 Q762.337 743.339 758.865 746.44 Q755.393 749.519 749.073 749.519 Q746.898 749.519 744.629 749.149 Q742.384 748.778 739.976 748.038 L739.976 743.339 Q742.06 744.473 744.282 745.028 Q746.504 745.584 748.981 745.584 Q752.985 745.584 755.323 743.478 Q757.661 741.371 757.661 737.76 Q757.661 734.149 755.323 732.042 Q752.985 729.936 748.981 729.936 Q747.106 729.936 745.231 730.353 Q743.379 730.769 741.435 731.649 L741.435 714.288 Z" fill="#000000" fill-rule="nonzero" fill-opacity="1" /><path clip-path="url(#clip900)" d="M781.55 717.367 Q777.939 717.367 776.11 720.931 Q774.305 724.473 774.305 731.603 Q774.305 738.709 776.11 742.274 Q777.939 745.815 781.55 745.815 Q785.184 745.815 786.99 742.274 Q788.819 738.709 788.819 731.603 Q788.819 724.473 786.99 720.931 Q785.184 717.367 781.55 717.367 M781.55 713.663 Q787.36 713.663 790.416 718.269 Q793.495 722.853 793.495 731.603 Q793.495 740.329 790.416 744.936 Q787.36 749.519 781.55 749.519 Q775.74 749.519 772.661 744.936 Q769.606 740.329 769.606 731.603 Q769.606 722.853 772.661 718.269 Q775.74 713.663 781.55 713.663 Z" fill="#000000" fill-rule="nonzero" fill-opacity="1" /><path clip-path="url(#clip900)" d="M1224.4 714.288 L1242.76 714.288 L1242.76 718.223 L1228.69 718.223 L1228.69 726.695 Q1229.7 726.348 1230.72 726.186 Q1231.74 726.001 1232.76 726.001 Q1238.55 726.001 1241.93 729.172 Q1245.31 732.343 1245.31 737.76 Q1245.31 743.339 1241.83 746.44 Q1238.36 749.519 1232.04 749.519 Q1229.87 749.519 1227.6 749.149 Q1225.35 748.778 1222.94 748.038 L1222.94 743.339 Q1225.03 744.473 1227.25 745.028 Q1229.47 745.584 1231.95 745.584 Q1235.95 745.584 1238.29 743.478 Q1240.63 741.371 1240.63 737.76 Q1240.63 734.149 1238.29 732.042 Q1235.95 729.936 1231.95 729.936 Q1230.07 729.936 1228.2 730.353 Q1226.35 730.769 1224.4 731.649 L1224.4 714.288 Z" fill="#000000" fill-rule="nonzero" fill-opacity="1" /><path clip-path="url(#clip900)" d="M1264.52 717.367 Q1260.91 717.367 1259.08 720.931 Q1257.27 724.473 1257.27 731.603 Q1257.27 738.709 1259.08 742.274 Q1260.91 745.815 1264.52 745.815 Q1268.15 745.815 1269.96 742.274 Q1271.79 738.709 1271.79 731.603 Q1271.79 724.473 1269.96 720.931 Q1268.15 717.367 1264.52 717.367 M1264.52 713.663 Q1270.33 713.663 1273.38 718.269 Q1276.46 722.853 1276.46 731.603 Q1276.46 740.329 1273.38 744.936 Q1270.33 749.519 1264.52 749.519 Q1258.71 749.519 1255.63 744.936 Q1252.57 740.329 1252.57 731.603 Q1252.57 722.853 1255.63 718.269 Q1258.71 713.663 1264.52 713.663 Z" fill="#000000" fill-rule="nonzero" fill-opacity="1" /><path clip-path="url(#clip900)" d="M1294.68 717.367 Q1291.07 717.367 1289.24 720.931 Q1287.44 724.473 1287.44 731.603 Q1287.44 738.709 1289.24 742.274 Q1291.07 745.815 1294.68 745.815 Q1298.31 745.815 1300.12 742.274 Q1301.95 738.709 1301.95 731.603 Q1301.95 724.473 1300.12 720.931 Q1298.31 717.367 1294.68 717.367 M1294.68 713.663 Q1300.49 713.663 1303.55 718.269 Q1306.62 722.853 1306.62 731.603 Q1306.62 740.329 1303.55 744.936 Q1300.49 749.519 1294.68 749.519 Q1288.87 749.519 1285.79 744.936 Q1282.74 740.329 1282.74 731.603 Q1282.74 722.853 1285.79 718.269 Q1288.87 713.663 1294.68 713.663 Z" fill="#000000" fill-rule="nonzero" fill-opacity="1" /><path clip-path="url(#clip900)" d="M1736.28 714.288 L1758.51 714.288 L1758.51 716.279 L1745.96 748.848 L1741.08 748.848 L1752.88 718.223 L1736.28 718.223 L1736.28 714.288 Z" fill="#000000" fill-rule="nonzero" fill-opacity="1" /><path clip-path="url(#clip900)" d="M1767.67 714.288 L1786.03 714.288 L1786.03 718.223 L1771.95 718.223 L1771.95 726.695 Q1772.97 726.348 1773.99 726.186 Q1775.01 726.001 1776.03 726.001 Q1781.82 726.001 1785.2 729.172 Q1788.57 732.343 1788.57 737.76 Q1788.57 743.339 1785.1 746.44 Q1781.63 749.519 1775.31 749.519 Q1773.14 749.519 1770.87 749.149 Q1768.62 748.778 1766.21 748.038 L1766.21 743.339 Q1768.3 744.473 1770.52 745.028 Q1772.74 745.584 1775.22 745.584 Q1779.22 745.584 1781.56 743.478 Q1783.9 741.371 1783.9 737.76 Q1783.9 734.149 1781.56 732.042 Q1779.22 729.936 1775.22 729.936 Q1773.34 729.936 1771.47 730.353 Q1769.62 730.769 1767.67 731.649 L1767.67 714.288 Z" fill="#000000" fill-rule="nonzero" fill-opacity="1" /><path clip-path="url(#clip900)" d="M1807.79 717.367 Q1804.18 717.367 1802.35 720.931 Q1800.54 724.473 1800.54 731.603 Q1800.54 738.709 1802.35 742.274 Q1804.18 745.815 1807.79 745.815 Q1811.42 745.815 1813.23 742.274 Q1815.06 738.709 1815.06 731.603 Q1815.06 724.473 1813.23 720.931 Q1811.42 717.367 1807.79 717.367 M1807.79 713.663 Q1813.6 713.663 1816.65 718.269 Q1819.73 722.853 1819.73 731.603 Q1819.73 740.329 1816.65 744.936 Q1813.6 749.519 1807.79 749.519 Q1801.98 749.519 1798.9 744.936 Q1795.84 740.329 1795.84 731.603 Q1795.84 722.853 1798.9 718.269 Q1801.98 713.663 1807.79 713.663 Z" fill="#000000" fill-rule="nonzero" fill-opacity="1" /><path clip-path="url(#clip900)" d="M2235.76 744.913 L2243.4 744.913 L2243.4 718.547 L2235.09 720.214 L2235.09 715.955 L2243.35 714.288 L2248.02 714.288 L2248.02 744.913 L2255.66 744.913 L2255.66 748.848 L2235.76 748.848 L2235.76 744.913 Z" fill="#000000" fill-rule="nonzero" fill-opacity="1" /><path clip-path="url(#clip900)" d="M2275.11 717.367 Q2271.5 717.367 2269.67 720.931 Q2267.86 724.473 2267.86 731.603 Q2267.86 738.709 2269.67 742.274 Q2271.5 745.815 2275.11 745.815 Q2278.74 745.815 2280.55 742.274 Q2282.38 738.709 2282.38 731.603 Q2282.38 724.473 2280.55 720.931 Q2278.74 717.367 2275.11 717.367 M2275.11 713.663 Q2280.92 713.663 2283.97 718.269 Q2287.05 722.853 2287.05 731.603 Q2287.05 740.329 2283.97 744.936 Q2280.92 749.519 2275.11 749.519 Q2269.3 749.519 2266.22 744.936 Q2263.16 740.329 2263.16 731.603 Q2263.16 722.853 2266.22 718.269 Q2269.3 713.663 2275.11 713.663 Z" fill="#000000" fill-rule="nonzero" fill-opacity="1" /><path clip-path="url(#clip900)" d="M2305.27 717.367 Q2301.66 717.367 2299.83 720.931 Q2298.02 724.473 2298.02 731.603 Q2298.02 738.709 2299.83 742.274 Q2301.66 745.815 2305.27 745.815 Q2308.9 745.815 2310.71 742.274 Q2312.54 738.709 2312.54 731.603 Q2312.54 724.473 2310.71 720.931 Q2308.9 717.367 2305.27 717.367 M2305.27 713.663 Q2311.08 713.663 2314.14 718.269 Q2317.21 722.853 2317.21 731.603 Q2317.21 740.329 2314.14 744.936 Q2311.08 749.519 2305.27 749.519 Q2299.46 749.519 2296.38 744.936 Q2293.33 740.329 2293.33 731.603 Q2293.33 722.853 2296.38 718.269 Q2299.46 713.663 2305.27 713.663 Z" fill="#000000" fill-rule="nonzero" fill-opacity="1" /><path clip-path="url(#clip900)" d="M2335.43 717.367 Q2331.82 717.367 2329.99 720.931 Q2328.19 724.473 2328.19 731.603 Q2328.19 738.709 2329.99 742.274 Q2331.82 745.815 2335.43 745.815 Q2339.07 745.815 2340.87 742.274 Q2342.7 738.709 2342.7 731.603 Q2342.7 724.473 2340.87 720.931 Q2339.07 717.367 2335.43 717.367 M2335.43 713.663 Q2341.24 713.663 2344.3 718.269 Q2347.38 722.853 2347.38 731.603 Q2347.38 740.329 2344.3 744.936 Q2341.24 749.519 2335.43 749.519 Q2329.62 749.519 2326.54 744.936 Q2323.49 740.329 2323.49 731.603 Q2323.49 722.853 2326.54 718.269 Q2329.62 713.663 2335.43 713.663 Z" fill="#000000" fill-rule="nonzero" fill-opacity="1" /><polyline clip-path="url(#clip902)" style="stroke:#000000; stroke-linecap:round; stroke-linejoin:round; stroke-width:2; stroke-opacity:0.1; fill:none" points="178.867,686.448 2352.76,686.448 "/>
<polyline clip-path="url(#clip902)" style="stroke:#000000; stroke-linecap:round; stroke-linejoin:round; stroke-width:2; stroke-opacity:0.1; fill:none" points="178.867,526.647 2352.76,526.647 "/>
<polyline clip-path="url(#clip902)" style="stroke:#000000; stroke-linecap:round; stroke-linejoin:round; stroke-width:2; stroke-opacity:0.1; fill:none" points="178.867,366.846 2352.76,366.846 "/>
<polyline clip-path="url(#clip902)" style="stroke:#000000; stroke-linecap:round; stroke-linejoin:round; stroke-width:2; stroke-opacity:0.1; fill:none" points="178.867,207.045 2352.76,207.045 "/>
<polyline clip-path="url(#clip902)" style="stroke:#000000; stroke-linecap:round; stroke-linejoin:round; stroke-width:2; stroke-opacity:0.1; fill:none" points="178.867,47.2441 2352.76,47.2441 "/>
<polyline clip-path="url(#clip900)" style="stroke:#000000; stroke-linecap:round; stroke-linejoin:round; stroke-width:4; stroke-opacity:1; fill:none" points="178.867,686.448 178.867,47.2441 "/>
<polyline clip-path="url(#clip900)" style="stroke:#000000; stroke-linecap:round; stroke-linejoin:round; stroke-width:4; stroke-opacity:1; fill:none" points="178.867,686.448 197.764,686.448 "/>
<polyline clip-path="url(#clip900)" style="stroke:#000000; stroke-linecap:round; stroke-linejoin:round; stroke-width:4; stroke-opacity:1; fill:none" points="178.867,526.647 197.764,526.647 "/>
<polyline clip-path="url(#clip900)" style="stroke:#000000; stroke-linecap:round; stroke-linejoin:round; stroke-width:4; stroke-opacity:1; fill:none" points="178.867,366.846 197.764,366.846 "/>
<polyline clip-path="url(#clip900)" style="stroke:#000000; stroke-linecap:round; stroke-linejoin:round; stroke-width:4; stroke-opacity:1; fill:none" points="178.867,207.045 197.764,207.045 "/>
<polyline clip-path="url(#clip900)" style="stroke:#000000; stroke-linecap:round; stroke-linejoin:round; stroke-width:4; stroke-opacity:1; fill:none" points="178.867,47.2441 197.764,47.2441 "/>
<path clip-path="url(#clip900)" d="M50.9921 686.899 L80.6679 686.899 L80.6679 690.834 L50.9921 690.834 L50.9921 686.899 Z" fill="#000000" fill-rule="nonzero" fill-opacity="1" /><path clip-path="url(#clip900)" d="M91.5706 699.793 L99.2095 699.793 L99.2095 673.427 L90.8993 675.094 L90.8993 670.835 L99.1632 669.168 L103.839 669.168 L103.839 699.793 L111.478 699.793 L111.478 703.728 L91.5706 703.728 L91.5706 699.793 Z" fill="#000000" fill-rule="nonzero" fill-opacity="1" /><path clip-path="url(#clip900)" d="M130.922 672.247 Q127.311 672.247 125.482 675.811 Q123.677 679.353 123.677 686.483 Q123.677 693.589 125.482 697.154 Q127.311 700.695 130.922 700.695 Q134.556 700.695 136.362 697.154 Q138.191 693.589 138.191 686.483 Q138.191 679.353 136.362 675.811 Q134.556 672.247 130.922 672.247 M130.922 668.543 Q136.732 668.543 139.788 673.149 Q142.867 677.733 142.867 686.483 Q142.867 695.209 139.788 699.816 Q136.732 704.399 130.922 704.399 Q125.112 704.399 122.033 699.816 Q118.978 695.209 118.978 686.483 Q118.978 677.733 122.033 673.149 Q125.112 668.543 130.922 668.543 Z" fill="#000000" fill-rule="nonzero" fill-opacity="1" /><path clip-path="url(#clip900)" d="M82.1494 527.098 L111.825 527.098 L111.825 531.033 L82.1494 531.033 L82.1494 527.098 Z" fill="#000000" fill-rule="nonzero" fill-opacity="1" /><path clip-path="url(#clip900)" d="M121.964 509.367 L140.32 509.367 L140.32 513.302 L126.246 513.302 L126.246 521.774 Q127.265 521.427 128.283 521.265 Q129.302 521.08 130.32 521.08 Q136.107 521.08 139.487 524.251 Q142.867 527.422 142.867 532.839 Q142.867 538.418 139.394 541.52 Q135.922 544.598 129.603 544.598 Q127.427 544.598 125.158 544.228 Q122.913 543.857 120.506 543.117 L120.506 538.418 Q122.589 539.552 124.811 540.108 Q127.033 540.663 129.51 540.663 Q133.515 540.663 135.853 538.557 Q138.191 536.45 138.191 532.839 Q138.191 529.228 135.853 527.121 Q133.515 525.015 129.51 525.015 Q127.635 525.015 125.76 525.432 Q123.908 525.848 121.964 526.728 L121.964 509.367 Z" fill="#000000" fill-rule="nonzero" fill-opacity="1" /><path clip-path="url(#clip900)" d="M130.922 352.645 Q127.311 352.645 125.482 356.209 Q123.677 359.751 123.677 366.881 Q123.677 373.987 125.482 377.552 Q127.311 381.094 130.922 381.094 Q134.556 381.094 136.362 377.552 Q138.191 373.987 138.191 366.881 Q138.191 359.751 136.362 356.209 Q134.556 352.645 130.922 352.645 M130.922 348.941 Q136.732 348.941 139.788 353.547 Q142.867 358.131 142.867 366.881 Q142.867 375.608 139.788 380.214 Q136.732 384.797 130.922 384.797 Q125.112 384.797 122.033 380.214 Q118.978 375.608 118.978 366.881 Q118.978 358.131 122.033 353.547 Q125.112 348.941 130.922 348.941 Z" fill="#000000" fill-rule="nonzero" fill-opacity="1" /><path clip-path="url(#clip900)" d="M121.964 189.765 L140.32 189.765 L140.32 193.7 L126.246 193.7 L126.246 202.172 Q127.265 201.825 128.283 201.663 Q129.302 201.478 130.32 201.478 Q136.107 201.478 139.487 204.649 Q142.867 207.82 142.867 213.237 Q142.867 218.816 139.394 221.918 Q135.922 224.996 129.603 224.996 Q127.427 224.996 125.158 224.626 Q122.913 224.256 120.506 223.515 L120.506 218.816 Q122.589 219.95 124.811 220.506 Q127.033 221.061 129.51 221.061 Q133.515 221.061 135.853 218.955 Q138.191 216.848 138.191 213.237 Q138.191 209.626 135.853 207.52 Q133.515 205.413 129.51 205.413 Q127.635 205.413 125.76 205.83 Q123.908 206.246 121.964 207.126 L121.964 189.765 Z" fill="#000000" fill-rule="nonzero" fill-opacity="1" /><path clip-path="url(#clip900)" d="M91.5706 60.5889 L99.2095 60.5889 L99.2095 34.2233 L90.8993 35.89 L90.8993 31.6308 L99.1632 29.9641 L103.839 29.9641 L103.839 60.5889 L111.478 60.5889 L111.478 64.5241 L91.5706 64.5241 L91.5706 60.5889 Z" fill="#000000" fill-rule="nonzero" fill-opacity="1" /><path clip-path="url(#clip900)" d="M130.922 33.0428 Q127.311 33.0428 125.482 36.6076 Q123.677 40.1492 123.677 47.2788 Q123.677 54.3853 125.482 57.9501 Q127.311 61.4917 130.922 61.4917 Q134.556 61.4917 136.362 57.9501 Q138.191 54.3853 138.191 47.2788 Q138.191 40.1492 136.362 36.6076 Q134.556 33.0428 130.922 33.0428 M130.922 29.3391 Q136.732 29.3391 139.788 33.9456 Q142.867 38.5289 142.867 47.2788 Q142.867 56.0056 139.788 60.6121 Q136.732 65.1954 130.922 65.1954 Q125.112 65.1954 122.033 60.6121 Q118.978 56.0056 118.978 47.2788 Q118.978 38.5289 122.033 33.9456 Q125.112 29.3391 130.922 29.3391 Z" fill="#000000" fill-rule="nonzero" fill-opacity="1" /><polyline clip-path="url(#clip902)" style="stroke:#009af9; stroke-linecap:round; stroke-linejoin:round; stroke-width:4; stroke-opacity:1; fill:none" points="240.392,334.886 242.445,334.698 244.498,334.699 246.55,335.598 248.603,337.3 250.656,347.861 252.709,345.082 254.762,345.078 256.815,343.058 258.868,344.319 260.921,340.817 262.974,344.004 265.027,336.059 267.079,337.292 269.132,345.761 271.185,348.017 273.238,356.294 275.291,365.923 277.344,348.882 279.397,349.002 281.45,349.014 283.503,347.314 285.555,348.604 287.608,349.195 289.661,377.31 291.714,377.299 293.767,395.992 295.82,391.613 297.873,386.281 299.926,390.939 301.979,384.963 304.031,385.507 306.084,385.512 308.137,373.75 310.19,372.438 312.243,372.413 314.296,380.391 316.349,380.896 318.402,382.204 320.455,379.794 322.507,381.85 324.56,381.543 326.613,380.35 328.666,382.054 330.719,388.012 332.772,388.369 334.825,396.696 336.878,390.726 338.931,390.731 340.984,392.861 343.036,392.864 345.089,392.766 347.142,392.922 349.195,396.052 351.248,396.566 353.301,414.443 355.354,408.535 357.407,408.356 359.46,372.513 361.512,358.038 363.565,357.973 365.618,357.776 367.671,358.128 369.724,357.487 371.777,360.385 373.83,360.98 375.883,384.192 377.936,385.929 379.988,385.916 382.041,385.585 384.094,385.503 386.147,378.455 388.2,377.337 390.253,383.511 392.306,387.511 394.359,390.733 396.412,375.246 398.464,405.98 400.517,387.389 402.57,388.092 404.623,391.396 406.676,391.384 408.729,392.931 410.782,394.99 412.835,395.018 414.888,393.412 416.94,400.379 418.993,400.932 421.046,401.126 423.099,401.101 425.152,402.522 427.205,396.696 429.258,378.34 431.311,382.05 433.364,384.099 435.417,372.102 437.469,375.133 439.522,365.668 441.575,368.252 443.628,370.227 445.681,303.56 447.734,293.186 449.787,294.149 451.84,277.618 453.893,349.383 455.945,335.863 457.998,322.434 460.051,424.025 462.104,385.84 464.157,410.515 466.21,389.082 468.263,368.589 470.316,372.912 472.369,367.934 474.421,382.866 476.474,379.413 478.527,378.335 480.58,382.346 482.633,381.926 484.686,391.005 486.739,410.462 488.792,356.292 490.845,390.882 492.897,425.113 494.95,421.771 497.003,458.565 499.056,459.218 501.109,459.893 503.162,452.295 505.215,438.206 507.268,482.422 509.321,482.937 511.374,524.747 513.426,526.142 515.479,505.725 517.532,512.732 519.585,478.035 521.638,463.915 523.691,448.729 525.744,462.846 527.797,463.396 529.85,463.347 531.902,463.243 533.955,459.428 536.008,459.403 538.061,460.406 540.114,470.529 542.167,470.537 544.22,470.465 546.273,470.475 548.326,467.311 550.378,468.006 552.431,468.064 554.484,469.896 556.537,512.128 558.59,529.628 560.643,572.656 562.696,574.435 564.749,572.056 566.802,573.638 568.854,575.907 570.907,579.858 572.96,463.313 575.013,459.857 577.066,440.189 579.119,454.157 581.172,469.376 583.225,463.514 585.278,454.225 587.331,358.436 589.383,358.432 591.436,371.145 593.489,371.978 595.542,332.104 597.595,341.789 599.648,363.904 601.701,398.273 603.754,388.638 605.807,412.186 607.859,402.485 609.912,409.959 611.965,324.386 614.018,325.715 616.071,321.391 618.124,319.017 620.177,321.073 622.23,316.613 624.283,317.958 626.335,318.851 628.388,279.297 630.441,286.789 632.494,277.585 634.547,304.609 636.6,346.279 638.653,346.311 640.706,344.69 642.759,158.607 644.811,159.95 646.864,149.317 648.917,121.643 650.97,121.014 653.023,118.826 655.076,145.196 657.129,118.131 659.182,116.872 661.235,116.813 663.288,95.0488 665.34,137.222 667.393,218.473 669.446,381.054 671.499,388.999 673.552,391.709 675.605,381.247 677.658,366.174 679.711,391.154 681.764,352.554 683.816,329.091 685.869,326.666 687.922,356.474 689.975,355.734 692.028,355.763 694.081,355.68 696.134,338.997 698.187,321.152 700.24,257.679 702.292,276.741 704.345,203.283 706.398,196.431 708.451,197.744 710.504,198.631 712.557,200.522 714.61,201.106 716.663,202.386 718.716,227.818 720.768,223.17 722.821,241.955 724.874,225.867 726.927,169.643 728.98,244.312 731.033,240.102 733.086,266.848 735.139,156.39 737.192,158.893 739.245,159.428 741.297,157.068 743.35,159.007 745.403,131.377 747.456,377.083 749.509,370.409 751.562,385.466 753.615,385.708 755.668,385.212 757.721,427.51 759.773,425.802 761.826,425.796 763.879,422.687 765.932,416.461 767.985,407.403 770.038,416.758 772.091,411.464 774.144,407.726 776.197,453.891 778.249,328.023 780.302,584.863 782.355,471.387 784.408,380.735 786.461,378.234 788.514,356.723 790.567,362.981 792.62,379.817 794.673,374.032 796.725,372.945 798.778,369.405 800.831,224.133 802.884,272.621 804.937,246.635 806.99,246.214 809.043,438.489 811.096,496.724 813.149,513.986 815.202,498.296 817.254,343.542 819.307,330.481 821.36,330.72 823.413,348.328 825.466,479.18 827.519,330.419 829.572,313.564 831.625,297.95 833.678,336.508 835.73,333.388 837.783,335.039 839.836,295.239 841.889,323.981 843.942,349.361 845.995,374.6 848.048,399.606 850.101,373.873 852.154,378.94 854.206,379.585 856.259,380.178 858.312,379.302 860.365,379.196 862.418,380.788 864.471,383.861 866.524,353.106 868.577,353.511 870.63,354.062 872.682,378.853 874.735,379.98 876.788,367.268 878.841,346.721 880.894,351.608 882.947,351.747 885,358.864 887.053,408.263 889.106,407.252 891.159,405.486 893.211,404.649 895.264,375.654 897.317,393.264 899.37,385.461 901.423,367.82 903.476,371.351 905.529,373.252 907.582,375.191 909.635,386.082 911.687,372.778 913.74,364.622 915.793,371.139 917.846,346.233 919.899,343.974 921.952,321.648 924.005,332.947 926.058,332.242 928.111,331.703 930.163,329.733 932.216,382.504 934.269,393.293 936.322,360.035 938.375,361.302 940.428,342.163 942.481,343.2 944.534,359.348 946.587,396.949 948.639,404.162 950.692,402.025 952.745,378.765 954.798,351.422 956.851,390.575 958.904,389.591 960.957,375.206 963.01,333.866 965.063,441.105 967.116,449.517 969.168,464.049 971.221,454.533 973.274,454.426 975.327,451.395 977.38,448.822 979.433,448.821 981.486,452.047 983.539,453.67 985.592,454.019 987.644,445.079 989.697,444.101 991.75,446.067 993.803,452.416 995.856,454.375 997.909,413.348 999.962,370.041 1002.01,470.95 1004.07,467.367 1006.12,487.226 1008.17,277.821 1010.23,266.327 1012.28,267.12 1014.33,226.917 1016.38,215.327 1018.44,229.171 1020.49,220.318 1022.54,318.537 1024.6,381.782 1026.65,378.759 1028.7,379.703 1030.76,379.886 1032.81,396.685 1034.86,398.002 1036.91,365.411 1038.97,362.244 1041.02,362.382 1043.07,362.483 1045.13,337.685 1047.18,240.917 1049.23,239.011 1051.28,220.347 1053.34,215.245 1055.39,325.089 1057.44,327.424 1059.5,257.203 1061.55,260.661 1063.6,262.891 1065.65,270.636 1067.71,251.049 1069.76,235.723 1071.81,228.454 1073.87,229.615 1075.92,127.089 1077.97,127.631 1080.02,130.422 1082.08,244.755 1084.13,255.761 1086.18,292.316 1088.24,325.503 1090.29,262.943 1092.34,182.008 1094.39,487.633 1096.45,520.482 1098.5,521.513 1100.55,440.157 1102.61,401.064 1104.66,398.137 1106.71,398.456 1108.77,333.385 1110.82,337.741 1112.87,337.769 1114.92,316.11 1116.98,285.604 1119.03,289.515 1121.08,292.539 1123.14,345.622 1125.19,343.661 1127.24,347.348 1129.29,320.006 1131.35,321.193 1133.4,329.111 1135.45,329.24 1137.51,307.552 1139.56,305.49 1141.61,350.351 1143.66,404.617 1145.72,384.965 1147.77,396.783 1149.82,401.826 1151.88,394.006 1153.93,395.382 1155.98,395.296 1158.03,335.932 1160.09,337.173 1162.14,350.203 1164.19,351.896 1166.25,374.283 1168.3,408.162 1170.35,418.751 1172.4,408.577 1174.46,434.433 1176.51,434.213 1178.56,442.262 1180.62,437.73 1182.67,447.643 1184.72,443.831 1186.77,494.004 1188.83,500.656 1190.88,491.639 1192.93,493.598 1194.99,493.661 1197.04,493.698 1199.09,376.431 1201.15,375.177 1203.2,358.33 1205.25,363.29 1207.3,367.616 1209.36,377.366 1211.41,376.511 1213.46,409.443 1215.52,409.49 1217.57,409.743 1219.62,405.567 1221.67,407.036 1223.73,406.989 1225.78,377.245 1227.83,378.245 1229.89,362.325 1231.94,354.513 1233.99,360.644 1236.04,361.249 1238.1,417.355 1240.15,423.41 1242.2,411.418 1244.26,419.829 1246.31,422.587 1248.36,408.986 1250.41,409.637 1252.47,411.725 1254.52,408.57 1256.57,383.313 1258.63,392.629 1260.68,392.615 1262.73,397.355 1264.78,385.187 1266.84,383.819 1268.89,363.401 1270.94,363.738 1273,371.58 1275.05,367.687 1277.1,366.612 1279.16,358.157 1281.21,353.271 1283.26,357.348 1285.31,340.28 1287.37,332.158 1289.42,327.527 1291.47,316.347 1293.53,302.524 1295.58,332.046 1297.63,358.455 1299.68,372.831 1301.74,371.877 1303.79,373.265 1305.84,355.58 1307.9,398.315 1309.95,390.177 1312,384.601 1314.05,404.894 1316.11,406.996 1318.16,398.433 1320.21,395.755 1322.27,354.02 1324.32,338.988 1326.37,311.301 1328.42,300.059 1330.48,302.458 1332.53,300.169 1334.58,300.151 1336.64,246.937 1338.69,232.229 1340.74,231.627 1342.79,290.251 1344.85,328.057 1346.9,381.568 1348.95,350.249 1351.01,340.609 1353.06,352.413 1355.11,357.465 1357.16,402.699 1359.22,395.389 1361.27,149.161 1363.32,245.6 1365.38,245.641 1367.43,246.769 1369.48,247.422 1371.54,226.458 1373.59,224.202 1375.64,301.795 1377.69,303.511 1379.75,246.24 1381.8,266.329 1383.85,273.69 1385.91,271.223 1387.96,267.087 1390.01,270.467 1392.06,262.833 1394.12,279.994 1396.17,309.57 1398.22,309.226 1400.28,311.24 1402.33,311.852 1404.38,364.643 1406.43,367.027 1408.49,396.191 1410.54,405.629 1412.59,371.177 1414.65,395.277 1416.7,308.743 1418.75,263.565 1420.8,260.18 1422.86,252.562 1424.91,255.405 1426.96,273.324 1429.02,267.181 1431.07,339.993 1433.12,375.655 1435.17,377.034 1437.23,340.265 1439.28,384.054 1441.33,383.085 1443.39,374.12 1445.44,373.034 1447.49,607.63 1449.55,640.52 1451.6,592.184 1453.65,480.203 1455.7,493.455 1457.76,469.141 1459.81,475.69 1461.86,428.948 1463.92,420.53 1465.97,420.501 1468.02,434.271 1470.07,445.378 1472.13,466.474 1474.18,506.06 1476.23,491.295 1478.29,483.77 1480.34,383.07 1482.39,301.952 1484.44,312.508 1486.5,342.375 1488.55,437.936 1490.6,466.425 1492.66,364.431 1494.71,341.223 1496.76,454.148 1498.81,551.936 1500.87,607.472 1502.92,586.706 1504.97,585.418 1507.03,584.429 1509.08,440.454 1511.13,442.551 1513.18,442.836 1515.24,470.433 1517.29,613.602 1519.34,602.634 1521.4,575.028 1523.45,579.509 1525.5,578.136 1527.55,470.811 1529.61,522.67 1531.66,525.294 1533.71,592.072 1535.77,477.812 1537.82,476.296 1539.87,474.327 1541.93,451.382 1543.98,443.779 1546.03,460.896 1548.08,460.712 1550.14,345.17 1552.19,423.987 1554.24,451.58 1556.3,443.148 1558.35,436.397 1560.4,440.016 1562.45,443.716 1564.51,446.708 1566.56,452.186 1568.61,449.492 1570.67,450.258 1572.72,445.519 1574.77,447.462 1576.82,451.518 1578.88,435.253 1580.93,297.122 1582.98,296.048 1585.04,299.922 1587.09,295.679 1589.14,294.524 1591.19,291.185 1593.25,291.144 1595.3,289.815 1597.35,289.019 1599.41,289.214 1601.46,290.341 1603.51,288.086 1605.56,277.576 1607.62,361.967 1609.67,305.618 1611.72,312.56 1613.78,297.03 1615.83,298.423 1617.88,272.97 1619.94,247.715 1621.99,251.818 1624.04,277.822 1626.09,288.31 1628.15,326.002 1630.2,400.278 1632.25,402.877 1634.31,392.87 1636.36,392.513 1638.41,219.616 1640.46,220.557 1642.52,221.659 1644.57,202.464 1646.62,191.59 1648.68,345.316 1650.73,330.314 1652.78,330.464 1654.83,308.178 1656.89,308.403 1658.94,266.064 1660.99,402.934 1663.05,402.274 1665.1,300.212 1667.15,267.647 1669.2,273.083 1671.26,212.411 1673.31,209.829 1675.36,222.765 1677.42,245.987 1679.47,265.263 1681.52,265.015 1683.57,265.241 1685.63,231.165 1687.68,247.414 1689.73,451.095 1691.79,474.99 1693.84,490.545 1695.89,513.896 1697.94,527.379 1700,533.127 1702.05,482.815 1704.1,466.547 1706.16,471.96 1708.21,472.101 1710.26,474.3 1712.32,471.882 1714.37,447.713 1716.42,457.105 1718.47,458.963 1720.53,457.296 1722.58,461.392 1724.63,460.711 1726.69,454.474 1728.74,411.957 1730.79,420.077 1732.84,428.065 1734.9,429.241 1736.95,423.917 1739,430.5 1741.06,461.047 1743.11,415.216 1745.16,415.357 1747.21,407.266 1749.27,390.329 1751.32,388.357 1753.37,392.063 1755.43,393.23 1757.48,393.346 1759.53,393.232 1761.58,400.309 1763.64,401.427 1765.69,413.243 1767.74,328.426 1769.8,356.125 1771.85,355.421 1773.9,356.82 1775.95,364.603 1778.01,392.65 1780.06,401.631 1782.11,401.654 1784.17,407.4 1786.22,407.346 1788.27,421.28 1790.33,423.46 1792.38,422.677 1794.43,348.148 1796.48,348.225 1798.54,348.345 1800.59,361.298 1802.64,361.365 1804.7,361.304 1806.75,355.648 1808.8,407.298 1810.85,414.809 1812.91,414.369 1814.96,412.767 1817.01,412.781 1819.07,419.516 1821.12,419.316 1823.17,422.336 1825.22,419.42 1827.28,421.764 1829.33,400.031 1831.38,437.531 1833.44,434.188 1835.49,407.57 1837.54,407.396 1839.59,345.759 1841.65,392.881 1843.7,399.499 1845.75,399.611 1847.81,386.855 1849.86,369.041 1851.91,369.726 1853.96,369.616 1856.02,369.094 1858.07,343.228 1860.12,342.621 1862.18,342.767 1864.23,342.833 1866.28,338.975 1868.34,338.859 1870.39,344.524 1872.44,347.235 1874.49,357.691 1876.55,360.511 1878.6,365.554 1880.65,366.53 1882.71,360.139 1884.76,412.088 1886.81,396.74 1888.86,436.515 1890.92,440.348 1892.97,428.728 1895.02,430.448 1897.08,425.291 1899.13,442.078 1901.18,411.79 1903.23,411.776 1905.29,408.013 1907.34,402.312 1909.39,402.258 1911.45,391.592 1913.5,386.352 1915.55,352.449 1917.6,325.927 1919.66,321.901 1921.71,322.082 1923.76,321.937 1925.82,322.876 1927.87,321.125 1929.92,324.419 1931.97,323.199 1934.03,323.224 1936.08,325.439 1938.13,326.757 1940.19,335.664 1942.24,329.249 1944.29,299.485 1946.34,305.341 1948.4,319.975 1950.45,326.392 1952.5,326.245 1954.56,327.333 1956.61,332.799 1958.66,326.321 1960.72,326.315 1962.77,322.922 1964.82,324.035 1966.87,342.038 1968.93,339.279 1970.98,400.353 1973.03,366.59 1975.09,358.229 1977.14,360.577 1979.19,321.714 1981.24,321.708 1983.3,321.942 1985.35,324.603 1987.4,323.073 1989.46,323.51 1991.51,323.31 1993.56,322.586 1995.61,323.883 1997.67,323.901 1999.72,323.633 2001.77,323.549 2003.83,323.61 2005.88,320.687 2007.93,320.294 2009.98,321.707 2012.04,323.118 2014.09,321.748 2016.14,317.748 2018.2,320.296 2020.25,321.263 2022.3,306.268 2024.35,314.989 2026.41,316.261 2028.46,303.885 2030.51,303.518 2032.57,344.453 2034.62,354.214 2036.67,354.507 2038.73,341.351 2040.78,327.618 2042.83,335.716 2044.88,333.192 2046.94,352.285 2048.99,353.102 2051.04,351.468 2053.1,361.617 2055.15,361.51 2057.2,360.372 2059.25,360.378 2061.31,373.104 2063.36,377.92 2065.41,382.247 2067.47,358.099 2069.52,361.574 2071.57,343.977 2073.62,340.987 2075.68,341.108 2077.73,339.827 2079.78,341.716 2081.84,319.155 2083.89,319.019 2085.94,316.42 2087.99,313.186 2090.05,364.768 2092.1,392.356 2094.15,388.668 2096.21,328.952 2098.26,310.193 2100.31,328.478 2102.36,328.786 2104.42,333.525 2106.47,333.908 2108.52,310.946 2110.58,330.424 2112.63,329.433 2114.68,329.658 2116.73,334.883 2118.79,344.645 2120.84,338.739 2122.89,328.007 2124.95,341.72 2127,346.717 2129.05,345.389 2131.11,344.807 2133.16,341.551 2135.21,343.011 2137.26,343.093 2139.32,339.935 2141.37,337.553 2143.42,337.534 2145.48,330.529 2147.53,336.602 2149.58,336.86 2151.63,338.139 2153.69,343.273 2155.74,343.534 2157.79,350.898 2159.85,352.553 2161.9,289.051 2163.95,282.839 2166,298.13 2168.06,296.193 2170.11,408.653 2172.16,420.424 2174.22,421.875 2176.27,390.759 2178.32,389.703 2180.37,394.279 2182.43,381.989 2184.48,392.579 2186.53,394.03 2188.59,398.782 2190.64,399.263 2192.69,398.986 2194.74,394.145 2196.8,399.101 2198.85,393.503 2200.9,395.414 2202.96,426.82 2205.01,387.422 2207.06,382.151 2209.12,266.003 2211.17,264.729 2213.22,264.159 2215.27,297.765 2217.33,294.139 2219.38,297.097 2221.43,354.512 2223.49,413.764 2225.54,413.683 2227.59,413.777 2229.64,413.274 2231.7,413.69 2233.75,397.811 2235.8,417.125 2237.86,403.422 2239.91,403.257 2241.96,367.722 2244.01,352.232 2246.07,353.952 2248.12,350.78 2250.17,346.995 2252.23,352.154 2254.28,350.695 2256.33,349.131 2258.38,342.392 2260.44,340.823 2262.49,341.068 2264.54,341.517 2266.6,382.464 2268.65,380.693 2270.7,388.296 2272.75,412.98 2274.81,399.895 2276.86,428.42 2278.91,425.593 2280.97,429.891 2283.02,429.529 2285.07,430.306 2287.12,427.196 2289.18,424.76 2291.23,423.785 "/>
<path clip-path="url(#clip900)" d="M1983.6 172.231 L2280.29 172.231 L2280.29 68.5509 L1983.6 68.5509  Z" fill="#ffffff" fill-rule="evenodd" fill-opacity="1"/>
<polyline clip-path="url(#clip900)" style="stroke:#000000; stroke-linecap:round; stroke-linejoin:round; stroke-width:4; stroke-opacity:1; fill:none" points="1983.6,172.231 2280.29,172.231 2280.29,68.5509 1983.6,68.5509 1983.6,172.231 "/>
<polyline clip-path="url(#clip900)" style="stroke:#009af9; stroke-linecap:round; stroke-linejoin:round; stroke-width:4; stroke-opacity:1; fill:none" points="2007.75,120.391 2152.68,120.391 "/>
<path clip-path="url(#clip900)" d="M2176.83 103.111 L2181.51 103.111 L2181.51 133.736 L2198.34 133.736 L2198.34 137.671 L2176.83 137.671 L2176.83 103.111 Z" fill="#000000" fill-rule="nonzero" fill-opacity="1" /><path clip-path="url(#clip900)" d="M2223.96 104.245 L2223.96 108.805 Q2221.3 107.532 2218.94 106.907 Q2216.58 106.282 2214.38 106.282 Q2210.56 106.282 2208.48 107.764 Q2206.42 109.245 2206.42 111.977 Q2206.42 114.268 2207.78 115.449 Q2209.17 116.606 2213.01 117.324 L2215.84 117.902 Q2221.07 118.898 2223.55 121.421 Q2226.05 123.921 2226.05 128.134 Q2226.05 133.157 2222.67 135.75 Q2219.31 138.342 2212.81 138.342 Q2210.35 138.342 2207.57 137.787 Q2204.82 137.231 2201.86 136.143 L2201.86 131.328 Q2204.7 132.926 2207.44 133.736 Q2210.17 134.546 2212.81 134.546 Q2216.81 134.546 2218.99 132.972 Q2221.16 131.398 2221.16 128.481 Q2221.16 125.935 2219.59 124.5 Q2218.04 123.064 2214.47 122.347 L2211.62 121.791 Q2206.39 120.75 2204.06 118.527 Q2201.72 116.305 2201.72 112.347 Q2201.72 107.764 2204.94 105.125 Q2208.18 102.486 2213.85 102.486 Q2216.28 102.486 2218.8 102.926 Q2221.32 103.366 2223.96 104.245 Z" fill="#000000" fill-rule="nonzero" fill-opacity="1" /><path clip-path="url(#clip900)" d="M2254.06 104.245 L2254.06 108.805 Q2251.39 107.532 2249.03 106.907 Q2246.67 106.282 2244.47 106.282 Q2240.65 106.282 2238.57 107.764 Q2236.51 109.245 2236.51 111.977 Q2236.51 114.268 2237.87 115.449 Q2239.26 116.606 2243.11 117.324 L2245.93 117.902 Q2251.16 118.898 2253.64 121.421 Q2256.14 123.921 2256.14 128.134 Q2256.14 133.157 2252.76 135.75 Q2249.4 138.342 2242.9 138.342 Q2240.44 138.342 2237.67 137.787 Q2234.91 137.231 2231.95 136.143 L2231.95 131.328 Q2234.8 132.926 2237.53 133.736 Q2240.26 134.546 2242.9 134.546 Q2246.9 134.546 2249.08 132.972 Q2251.25 131.398 2251.25 128.481 Q2251.25 125.935 2249.68 124.5 Q2248.13 123.064 2244.56 122.347 L2241.72 121.791 Q2236.49 120.75 2234.15 118.527 Q2231.81 116.305 2231.81 112.347 Q2231.81 107.764 2235.03 105.125 Q2238.27 102.486 2243.94 102.486 Q2246.37 102.486 2248.89 102.926 Q2251.42 103.366 2254.06 104.245 Z" fill="#000000" fill-rule="nonzero" fill-opacity="1" /><path clip-path="url(#clip900)" d="M178.867 1486.45 L2352.76 1486.45 L2352.76 847.244 L178.867 847.244  Z" fill="#ffffff" fill-rule="evenodd" fill-opacity="1"/>
<defs>
  <clipPath id="clip903">
    <rect x="178" y="847" width="2175" height="640"/>
  </clipPath>
</defs>
<polyline clip-path="url(#clip903)" style="stroke:#000000; stroke-linecap:round; stroke-linejoin:round; stroke-width:2; stroke-opacity:0.1; fill:none" points="238.339,1486.45 238.339,847.244 "/>
<polyline clip-path="url(#clip903)" style="stroke:#000000; stroke-linecap:round; stroke-linejoin:round; stroke-width:2; stroke-opacity:0.1; fill:none" points="751.562,1486.45 751.562,847.244 "/>
<polyline clip-path="url(#clip903)" style="stroke:#000000; stroke-linecap:round; stroke-linejoin:round; stroke-width:2; stroke-opacity:0.1; fill:none" points="1264.78,1486.45 1264.78,847.244 "/>
<polyline clip-path="url(#clip903)" style="stroke:#000000; stroke-linecap:round; stroke-linejoin:round; stroke-width:2; stroke-opacity:0.1; fill:none" points="1778.01,1486.45 1778.01,847.244 "/>
<polyline clip-path="url(#clip903)" style="stroke:#000000; stroke-linecap:round; stroke-linejoin:round; stroke-width:2; stroke-opacity:0.1; fill:none" points="2291.23,1486.45 2291.23,847.244 "/>
<polyline clip-path="url(#clip900)" style="stroke:#000000; stroke-linecap:round; stroke-linejoin:round; stroke-width:4; stroke-opacity:1; fill:none" points="178.867,1486.45 2352.76,1486.45 "/>
<polyline clip-path="url(#clip900)" style="stroke:#000000; stroke-linecap:round; stroke-linejoin:round; stroke-width:4; stroke-opacity:1; fill:none" points="238.339,1486.45 238.339,1467.55 "/>
<polyline clip-path="url(#clip900)" style="stroke:#000000; stroke-linecap:round; stroke-linejoin:round; stroke-width:4; stroke-opacity:1; fill:none" points="751.562,1486.45 751.562,1467.55 "/>
<polyline clip-path="url(#clip900)" style="stroke:#000000; stroke-linecap:round; stroke-linejoin:round; stroke-width:4; stroke-opacity:1; fill:none" points="1264.78,1486.45 1264.78,1467.55 "/>
<polyline clip-path="url(#clip900)" style="stroke:#000000; stroke-linecap:round; stroke-linejoin:round; stroke-width:4; stroke-opacity:1; fill:none" points="1778.01,1486.45 1778.01,1467.55 "/>
<polyline clip-path="url(#clip900)" style="stroke:#000000; stroke-linecap:round; stroke-linejoin:round; stroke-width:4; stroke-opacity:1; fill:none" points="2291.23,1486.45 2291.23,1467.55 "/>
<path clip-path="url(#clip900)" d="M238.339 1517.37 Q234.728 1517.37 232.899 1520.93 Q231.094 1524.47 231.094 1531.6 Q231.094 1538.71 232.899 1542.27 Q234.728 1545.82 238.339 1545.82 Q241.973 1545.82 243.779 1542.27 Q245.607 1538.71 245.607 1531.6 Q245.607 1524.47 243.779 1520.93 Q241.973 1517.37 238.339 1517.37 M238.339 1513.66 Q244.149 1513.66 247.205 1518.27 Q250.283 1522.85 250.283 1531.6 Q250.283 1540.33 247.205 1544.94 Q244.149 1549.52 238.339 1549.52 Q232.529 1549.52 229.45 1544.94 Q226.395 1540.33 226.395 1531.6 Q226.395 1522.85 229.45 1518.27 Q232.529 1513.66 238.339 1513.66 Z" fill="#000000" fill-rule="nonzero" fill-opacity="1" /><path clip-path="url(#clip900)" d="M715.254 1544.91 L731.574 1544.91 L731.574 1548.85 L709.629 1548.85 L709.629 1544.91 Q712.291 1542.16 716.875 1537.53 Q721.481 1532.88 722.662 1531.53 Q724.907 1529.01 725.787 1527.27 Q726.689 1525.51 726.689 1523.82 Q726.689 1521.07 724.745 1519.33 Q722.824 1517.6 719.722 1517.6 Q717.523 1517.6 715.069 1518.36 Q712.638 1519.13 709.861 1520.68 L709.861 1515.95 Q712.685 1514.82 715.138 1514.24 Q717.592 1513.66 719.629 1513.66 Q725 1513.66 728.194 1516.35 Q731.388 1519.03 731.388 1523.52 Q731.388 1525.65 730.578 1527.57 Q729.791 1529.47 727.685 1532.07 Q727.106 1532.74 724.004 1535.95 Q720.902 1539.15 715.254 1544.91 Z" fill="#000000" fill-rule="nonzero" fill-opacity="1" /><path clip-path="url(#clip900)" d="M741.435 1514.29 L759.791 1514.29 L759.791 1518.22 L745.717 1518.22 L745.717 1526.7 Q746.736 1526.35 747.754 1526.19 Q748.773 1526 749.791 1526 Q755.578 1526 758.958 1529.17 Q762.337 1532.34 762.337 1537.76 Q762.337 1543.34 758.865 1546.44 Q755.393 1549.52 749.073 1549.52 Q746.898 1549.52 744.629 1549.15 Q742.384 1548.78 739.976 1548.04 L739.976 1543.34 Q742.06 1544.47 744.282 1545.03 Q746.504 1545.58 748.981 1545.58 Q752.985 1545.58 755.323 1543.48 Q757.661 1541.37 757.661 1537.76 Q757.661 1534.15 755.323 1532.04 Q752.985 1529.94 748.981 1529.94 Q747.106 1529.94 745.231 1530.35 Q743.379 1530.77 741.435 1531.65 L741.435 1514.29 Z" fill="#000000" fill-rule="nonzero" fill-opacity="1" /><path clip-path="url(#clip900)" d="M781.55 1517.37 Q777.939 1517.37 776.11 1520.93 Q774.305 1524.47 774.305 1531.6 Q774.305 1538.71 776.11 1542.27 Q777.939 1545.82 781.55 1545.82 Q785.184 1545.82 786.99 1542.27 Q788.819 1538.71 788.819 1531.6 Q788.819 1524.47 786.99 1520.93 Q785.184 1517.37 781.55 1517.37 M781.55 1513.66 Q787.36 1513.66 790.416 1518.27 Q793.495 1522.85 793.495 1531.6 Q793.495 1540.33 790.416 1544.94 Q787.36 1549.52 781.55 1549.52 Q775.74 1549.52 772.661 1544.94 Q769.606 1540.33 769.606 1531.6 Q769.606 1522.85 772.661 1518.27 Q775.74 1513.66 781.55 1513.66 Z" fill="#000000" fill-rule="nonzero" fill-opacity="1" /><path clip-path="url(#clip900)" d="M1224.4 1514.29 L1242.76 1514.29 L1242.76 1518.22 L1228.69 1518.22 L1228.69 1526.7 Q1229.7 1526.35 1230.72 1526.19 Q1231.74 1526 1232.76 1526 Q1238.55 1526 1241.93 1529.17 Q1245.31 1532.34 1245.31 1537.76 Q1245.31 1543.34 1241.83 1546.44 Q1238.36 1549.52 1232.04 1549.52 Q1229.87 1549.52 1227.6 1549.15 Q1225.35 1548.78 1222.94 1548.04 L1222.94 1543.34 Q1225.03 1544.47 1227.25 1545.03 Q1229.47 1545.58 1231.95 1545.58 Q1235.95 1545.58 1238.29 1543.48 Q1240.63 1541.37 1240.63 1537.76 Q1240.63 1534.15 1238.29 1532.04 Q1235.95 1529.94 1231.95 1529.94 Q1230.07 1529.94 1228.2 1530.35 Q1226.35 1530.77 1224.4 1531.65 L1224.4 1514.29 Z" fill="#000000" fill-rule="nonzero" fill-opacity="1" /><path clip-path="url(#clip900)" d="M1264.52 1517.37 Q1260.91 1517.37 1259.08 1520.93 Q1257.27 1524.47 1257.27 1531.6 Q1257.27 1538.71 1259.08 1542.27 Q1260.91 1545.82 1264.52 1545.82 Q1268.15 1545.82 1269.96 1542.27 Q1271.79 1538.71 1271.79 1531.6 Q1271.79 1524.47 1269.96 1520.93 Q1268.15 1517.37 1264.52 1517.37 M1264.52 1513.66 Q1270.33 1513.66 1273.38 1518.27 Q1276.46 1522.85 1276.46 1531.6 Q1276.46 1540.33 1273.38 1544.94 Q1270.33 1549.52 1264.52 1549.52 Q1258.71 1549.52 1255.63 1544.94 Q1252.57 1540.33 1252.57 1531.6 Q1252.57 1522.85 1255.63 1518.27 Q1258.71 1513.66 1264.52 1513.66 Z" fill="#000000" fill-rule="nonzero" fill-opacity="1" /><path clip-path="url(#clip900)" d="M1294.68 1517.37 Q1291.07 1517.37 1289.24 1520.93 Q1287.44 1524.47 1287.44 1531.6 Q1287.44 1538.71 1289.24 1542.27 Q1291.07 1545.82 1294.68 1545.82 Q1298.31 1545.82 1300.12 1542.27 Q1301.95 1538.71 1301.95 1531.6 Q1301.95 1524.47 1300.12 1520.93 Q1298.31 1517.37 1294.68 1517.37 M1294.68 1513.66 Q1300.49 1513.66 1303.55 1518.27 Q1306.62 1522.85 1306.62 1531.6 Q1306.62 1540.33 1303.55 1544.94 Q1300.49 1549.52 1294.68 1549.52 Q1288.87 1549.52 1285.79 1544.94 Q1282.74 1540.33 1282.74 1531.6 Q1282.74 1522.85 1285.79 1518.27 Q1288.87 1513.66 1294.68 1513.66 Z" fill="#000000" fill-rule="nonzero" fill-opacity="1" /><path clip-path="url(#clip900)" d="M1736.28 1514.29 L1758.51 1514.29 L1758.51 1516.28 L1745.96 1548.85 L1741.08 1548.85 L1752.88 1518.22 L1736.28 1518.22 L1736.28 1514.29 Z" fill="#000000" fill-rule="nonzero" fill-opacity="1" /><path clip-path="url(#clip900)" d="M1767.67 1514.29 L1786.03 1514.29 L1786.03 1518.22 L1771.95 1518.22 L1771.95 1526.7 Q1772.97 1526.35 1773.99 1526.19 Q1775.01 1526 1776.03 1526 Q1781.82 1526 1785.2 1529.17 Q1788.57 1532.34 1788.57 1537.76 Q1788.57 1543.34 1785.1 1546.44 Q1781.63 1549.52 1775.31 1549.52 Q1773.14 1549.52 1770.87 1549.15 Q1768.62 1548.78 1766.21 1548.04 L1766.21 1543.34 Q1768.3 1544.47 1770.52 1545.03 Q1772.74 1545.58 1775.22 1545.58 Q1779.22 1545.58 1781.56 1543.48 Q1783.9 1541.37 1783.9 1537.76 Q1783.9 1534.15 1781.56 1532.04 Q1779.22 1529.94 1775.22 1529.94 Q1773.34 1529.94 1771.47 1530.35 Q1769.62 1530.77 1767.67 1531.65 L1767.67 1514.29 Z" fill="#000000" fill-rule="nonzero" fill-opacity="1" /><path clip-path="url(#clip900)" d="M1807.79 1517.37 Q1804.18 1517.37 1802.35 1520.93 Q1800.54 1524.47 1800.54 1531.6 Q1800.54 1538.71 1802.35 1542.27 Q1804.18 1545.82 1807.79 1545.82 Q1811.42 1545.82 1813.23 1542.27 Q1815.06 1538.71 1815.06 1531.6 Q1815.06 1524.47 1813.23 1520.93 Q1811.42 1517.37 1807.79 1517.37 M1807.79 1513.66 Q1813.6 1513.66 1816.65 1518.27 Q1819.73 1522.85 1819.73 1531.6 Q1819.73 1540.33 1816.65 1544.94 Q1813.6 1549.52 1807.79 1549.52 Q1801.98 1549.52 1798.9 1544.94 Q1795.84 1540.33 1795.84 1531.6 Q1795.84 1522.85 1798.9 1518.27 Q1801.98 1513.66 1807.79 1513.66 Z" fill="#000000" fill-rule="nonzero" fill-opacity="1" /><path clip-path="url(#clip900)" d="M2235.76 1544.91 L2243.4 1544.91 L2243.4 1518.55 L2235.09 1520.21 L2235.09 1515.95 L2243.35 1514.29 L2248.02 1514.29 L2248.02 1544.91 L2255.66 1544.91 L2255.66 1548.85 L2235.76 1548.85 L2235.76 1544.91 Z" fill="#000000" fill-rule="nonzero" fill-opacity="1" /><path clip-path="url(#clip900)" d="M2275.11 1517.37 Q2271.5 1517.37 2269.67 1520.93 Q2267.86 1524.47 2267.86 1531.6 Q2267.86 1538.71 2269.67 1542.27 Q2271.5 1545.82 2275.11 1545.82 Q2278.74 1545.82 2280.55 1542.27 Q2282.38 1538.71 2282.38 1531.6 Q2282.38 1524.47 2280.55 1520.93 Q2278.74 1517.37 2275.11 1517.37 M2275.11 1513.66 Q2280.92 1513.66 2283.97 1518.27 Q2287.05 1522.85 2287.05 1531.6 Q2287.05 1540.33 2283.97 1544.94 Q2280.92 1549.52 2275.11 1549.52 Q2269.3 1549.52 2266.22 1544.94 Q2263.16 1540.33 2263.16 1531.6 Q2263.16 1522.85 2266.22 1518.27 Q2269.3 1513.66 2275.11 1513.66 Z" fill="#000000" fill-rule="nonzero" fill-opacity="1" /><path clip-path="url(#clip900)" d="M2305.27 1517.37 Q2301.66 1517.37 2299.83 1520.93 Q2298.02 1524.47 2298.02 1531.6 Q2298.02 1538.71 2299.83 1542.27 Q2301.66 1545.82 2305.27 1545.82 Q2308.9 1545.82 2310.71 1542.27 Q2312.54 1538.71 2312.54 1531.6 Q2312.54 1524.47 2310.71 1520.93 Q2308.9 1517.37 2305.27 1517.37 M2305.27 1513.66 Q2311.08 1513.66 2314.14 1518.27 Q2317.21 1522.85 2317.21 1531.6 Q2317.21 1540.33 2314.14 1544.94 Q2311.08 1549.52 2305.27 1549.52 Q2299.46 1549.52 2296.38 1544.94 Q2293.33 1540.33 2293.33 1531.6 Q2293.33 1522.85 2296.38 1518.27 Q2299.46 1513.66 2305.27 1513.66 Z" fill="#000000" fill-rule="nonzero" fill-opacity="1" /><path clip-path="url(#clip900)" d="M2335.43 1517.37 Q2331.82 1517.37 2329.99 1520.93 Q2328.19 1524.47 2328.19 1531.6 Q2328.19 1538.71 2329.99 1542.27 Q2331.82 1545.82 2335.43 1545.82 Q2339.07 1545.82 2340.87 1542.27 Q2342.7 1538.71 2342.7 1531.6 Q2342.7 1524.47 2340.87 1520.93 Q2339.07 1517.37 2335.43 1517.37 M2335.43 1513.66 Q2341.24 1513.66 2344.3 1518.27 Q2347.38 1522.85 2347.38 1531.6 Q2347.38 1540.33 2344.3 1544.94 Q2341.24 1549.52 2335.43 1549.52 Q2329.62 1549.52 2326.54 1544.94 Q2323.49 1540.33 2323.49 1531.6 Q2323.49 1522.85 2326.54 1518.27 Q2329.62 1513.66 2335.43 1513.66 Z" fill="#000000" fill-rule="nonzero" fill-opacity="1" /><polyline clip-path="url(#clip903)" style="stroke:#000000; stroke-linecap:round; stroke-linejoin:round; stroke-width:2; stroke-opacity:0.1; fill:none" points="178.867,1486.45 2352.76,1486.45 "/>
<polyline clip-path="url(#clip903)" style="stroke:#000000; stroke-linecap:round; stroke-linejoin:round; stroke-width:2; stroke-opacity:0.1; fill:none" points="178.867,1326.65 2352.76,1326.65 "/>
<polyline clip-path="url(#clip903)" style="stroke:#000000; stroke-linecap:round; stroke-linejoin:round; stroke-width:2; stroke-opacity:0.1; fill:none" points="178.867,1166.85 2352.76,1166.85 "/>
<polyline clip-path="url(#clip903)" style="stroke:#000000; stroke-linecap:round; stroke-linejoin:round; stroke-width:2; stroke-opacity:0.1; fill:none" points="178.867,1007.05 2352.76,1007.05 "/>
<polyline clip-path="url(#clip903)" style="stroke:#000000; stroke-linecap:round; stroke-linejoin:round; stroke-width:2; stroke-opacity:0.1; fill:none" points="178.867,847.244 2352.76,847.244 "/>
<polyline clip-path="url(#clip900)" style="stroke:#000000; stroke-linecap:round; stroke-linejoin:round; stroke-width:4; stroke-opacity:1; fill:none" points="178.867,1486.45 178.867,847.244 "/>
<polyline clip-path="url(#clip900)" style="stroke:#000000; stroke-linecap:round; stroke-linejoin:round; stroke-width:4; stroke-opacity:1; fill:none" points="178.867,1486.45 197.764,1486.45 "/>
<polyline clip-path="url(#clip900)" style="stroke:#000000; stroke-linecap:round; stroke-linejoin:round; stroke-width:4; stroke-opacity:1; fill:none" points="178.867,1326.65 197.764,1326.65 "/>
<polyline clip-path="url(#clip900)" style="stroke:#000000; stroke-linecap:round; stroke-linejoin:round; stroke-width:4; stroke-opacity:1; fill:none" points="178.867,1166.85 197.764,1166.85 "/>
<polyline clip-path="url(#clip900)" style="stroke:#000000; stroke-linecap:round; stroke-linejoin:round; stroke-width:4; stroke-opacity:1; fill:none" points="178.867,1007.05 197.764,1007.05 "/>
<polyline clip-path="url(#clip900)" style="stroke:#000000; stroke-linecap:round; stroke-linejoin:round; stroke-width:4; stroke-opacity:1; fill:none" points="178.867,847.244 197.764,847.244 "/>
<path clip-path="url(#clip900)" d="M50.9921 1486.9 L80.6679 1486.9 L80.6679 1490.83 L50.9921 1490.83 L50.9921 1486.9 Z" fill="#000000" fill-rule="nonzero" fill-opacity="1" /><path clip-path="url(#clip900)" d="M91.5706 1499.79 L99.2095 1499.79 L99.2095 1473.43 L90.8993 1475.09 L90.8993 1470.83 L99.1632 1469.17 L103.839 1469.17 L103.839 1499.79 L111.478 1499.79 L111.478 1503.73 L91.5706 1503.73 L91.5706 1499.79 Z" fill="#000000" fill-rule="nonzero" fill-opacity="1" /><path clip-path="url(#clip900)" d="M130.922 1472.25 Q127.311 1472.25 125.482 1475.81 Q123.677 1479.35 123.677 1486.48 Q123.677 1493.59 125.482 1497.15 Q127.311 1500.7 130.922 1500.7 Q134.556 1500.7 136.362 1497.15 Q138.191 1493.59 138.191 1486.48 Q138.191 1479.35 136.362 1475.81 Q134.556 1472.25 130.922 1472.25 M130.922 1468.54 Q136.732 1468.54 139.788 1473.15 Q142.867 1477.73 142.867 1486.48 Q142.867 1495.21 139.788 1499.82 Q136.732 1504.4 130.922 1504.4 Q125.112 1504.4 122.033 1499.82 Q118.978 1495.21 118.978 1486.48 Q118.978 1477.73 122.033 1473.15 Q125.112 1468.54 130.922 1468.54 Z" fill="#000000" fill-rule="nonzero" fill-opacity="1" /><path clip-path="url(#clip900)" d="M82.1494 1327.1 L111.825 1327.1 L111.825 1331.03 L82.1494 1331.03 L82.1494 1327.1 Z" fill="#000000" fill-rule="nonzero" fill-opacity="1" /><path clip-path="url(#clip900)" d="M121.964 1309.37 L140.32 1309.37 L140.32 1313.3 L126.246 1313.3 L126.246 1321.77 Q127.265 1321.43 128.283 1321.27 Q129.302 1321.08 130.32 1321.08 Q136.107 1321.08 139.487 1324.25 Q142.867 1327.42 142.867 1332.84 Q142.867 1338.42 139.394 1341.52 Q135.922 1344.6 129.603 1344.6 Q127.427 1344.6 125.158 1344.23 Q122.913 1343.86 120.506 1343.12 L120.506 1338.42 Q122.589 1339.55 124.811 1340.11 Q127.033 1340.66 129.51 1340.66 Q133.515 1340.66 135.853 1338.56 Q138.191 1336.45 138.191 1332.84 Q138.191 1329.23 135.853 1327.12 Q133.515 1325.01 129.51 1325.01 Q127.635 1325.01 125.76 1325.43 Q123.908 1325.85 121.964 1326.73 L121.964 1309.37 Z" fill="#000000" fill-rule="nonzero" fill-opacity="1" /><path clip-path="url(#clip900)" d="M130.922 1152.64 Q127.311 1152.64 125.482 1156.21 Q123.677 1159.75 123.677 1166.88 Q123.677 1173.99 125.482 1177.55 Q127.311 1181.09 130.922 1181.09 Q134.556 1181.09 136.362 1177.55 Q138.191 1173.99 138.191 1166.88 Q138.191 1159.75 136.362 1156.21 Q134.556 1152.64 130.922 1152.64 M130.922 1148.94 Q136.732 1148.94 139.788 1153.55 Q142.867 1158.13 142.867 1166.88 Q142.867 1175.61 139.788 1180.21 Q136.732 1184.8 130.922 1184.8 Q125.112 1184.8 122.033 1180.21 Q118.978 1175.61 118.978 1166.88 Q118.978 1158.13 122.033 1153.55 Q125.112 1148.94 130.922 1148.94 Z" fill="#000000" fill-rule="nonzero" fill-opacity="1" /><path clip-path="url(#clip900)" d="M121.964 989.765 L140.32 989.765 L140.32 993.7 L126.246 993.7 L126.246 1002.17 Q127.265 1001.83 128.283 1001.66 Q129.302 1001.48 130.32 1001.48 Q136.107 1001.48 139.487 1004.65 Q142.867 1007.82 142.867 1013.24 Q142.867 1018.82 139.394 1021.92 Q135.922 1025 129.603 1025 Q127.427 1025 125.158 1024.63 Q122.913 1024.26 120.506 1023.51 L120.506 1018.82 Q122.589 1019.95 124.811 1020.51 Q127.033 1021.06 129.51 1021.06 Q133.515 1021.06 135.853 1018.95 Q138.191 1016.85 138.191 1013.24 Q138.191 1009.63 135.853 1007.52 Q133.515 1005.41 129.51 1005.41 Q127.635 1005.41 125.76 1005.83 Q123.908 1006.25 121.964 1007.13 L121.964 989.765 Z" fill="#000000" fill-rule="nonzero" fill-opacity="1" /><path clip-path="url(#clip900)" d="M91.5706 860.589 L99.2095 860.589 L99.2095 834.223 L90.8993 835.89 L90.8993 831.631 L99.1632 829.964 L103.839 829.964 L103.839 860.589 L111.478 860.589 L111.478 864.524 L91.5706 864.524 L91.5706 860.589 Z" fill="#000000" fill-rule="nonzero" fill-opacity="1" /><path clip-path="url(#clip900)" d="M130.922 833.043 Q127.311 833.043 125.482 836.608 Q123.677 840.149 123.677 847.279 Q123.677 854.385 125.482 857.95 Q127.311 861.492 130.922 861.492 Q134.556 861.492 136.362 857.95 Q138.191 854.385 138.191 847.279 Q138.191 840.149 136.362 836.608 Q134.556 833.043 130.922 833.043 M130.922 829.339 Q136.732 829.339 139.788 833.946 Q142.867 838.529 142.867 847.279 Q142.867 856.006 139.788 860.612 Q136.732 865.195 130.922 865.195 Q125.112 865.195 122.033 860.612 Q118.978 856.006 118.978 847.279 Q118.978 838.529 122.033 833.946 Q125.112 829.339 130.922 829.339 Z" fill="#000000" fill-rule="nonzero" fill-opacity="1" /><polyline clip-path="url(#clip903)" style="stroke:#009af9; stroke-linecap:round; stroke-linejoin:round; stroke-width:4; stroke-opacity:1; fill:none" points="240.392,1134.89 242.445,1156.13 244.498,1171.11 246.55,1187.62 248.603,1207.83 250.656,1181.33 252.709,1159.77 254.762,1153.08 256.815,1177.1 258.868,1120.77 260.921,1102.62 262.974,1120.56 265.027,1171.42 267.079,1100.59 269.132,1138.89 271.185,1186.31 273.238,1117.01 275.291,1137.65 277.344,1206.76 279.397,1395.86 281.45,-51.5663 283.503,1389.65 285.555,1722.64 287.608,530.983 289.661,954.025 291.714,1572.27 293.767,963.977 295.82,1340.9 297.873,1174.18 299.926,1144.61 301.979,1211.35 304.031,1189.93 306.084,1217.97 308.137,1203.55 310.19,1183.73 312.243,1154.97 314.296,1148.44 316.349,1162.17 318.402,1177.43 320.455,1174.75 322.507,1155.34 324.56,1196.94 326.613,1108.68 328.666,1205.93 330.719,1152.85 332.772,1157.18 334.825,1137.81 336.878,1092.78 338.931,1205.95 340.984,1122.16 343.036,1133.01 345.089,1151.95 347.142,1128.18 349.195,1131.52 351.248,1177.96 353.301,1193.19 355.354,1162.2 357.407,1156.22 359.46,1179.33 361.512,1150.88 363.565,1185.59 365.618,879.318 367.671,1492.1 369.724,1151.64 371.777,1212.53 373.83,1175.58 375.883,1175.48 377.936,1255.18 379.988,1067.68 382.041,1820.41 384.094,591.683 386.147,846.601 388.2,1204.92 390.253,1107.11 392.306,1172.34 394.359,1481.3 396.412,1049.87 398.464,1240.02 400.517,1293.22 402.57,1191.03 404.623,1144.07 406.676,1121.64 408.729,1125.7 410.782,1193.86 412.835,1179.81 414.888,1177.39 416.94,1196.39 418.993,1175.01 421.046,1205.18 423.099,1176.66 425.152,1134.43 427.205,1235.48 429.258,1225.32 431.311,1189.03 433.364,1105.38 435.417,1219.1 437.469,1151.99 439.522,1197.02 441.575,1218.31 443.628,1177.26 445.681,1128.85 447.734,1139.92 449.787,1238.59 451.84,1170.68 453.893,1172.71 455.945,1178.29 457.998,1162.7 460.051,1151.95 462.104,1177.51 464.157,1183.87 466.21,1151.55 468.263,1103.74 470.316,1182.14 472.369,1151.65 474.421,1203.83 476.474,1132.82 478.527,1158.02 480.58,1173.32 482.633,1176.87 484.686,1170.9 486.739,1184.92 488.792,1084.97 490.845,1045.81 492.897,1056.35 494.95,1120.32 497.003,1109.38 499.056,1288.12 501.109,1139.72 503.162,1153.21 505.215,1139.76 507.268,2292.54 509.321,2147.26 511.374,1444.14 513.426,1064.03 515.479,1967.66 517.532,1894.43 519.585,981.236 521.638,828.333 523.691,1186.7 525.744,1186.92 527.797,1177.18 529.85,1159.71 531.902,1217.13 533.955,1235.46 536.008,1173.01 538.061,1427.04 540.114,1380.55 542.167,1034.77 544.22,1362.91 546.273,1297.94 548.326,1372.66 550.378,1407.22 552.431,1328.84 554.484,4265.82 556.537,2686.48 558.59,2707.87 560.643,1311.81 562.696,1337.97 564.749,1151.06 566.802,1203.25 568.854,1260.53 570.907,1060.99 572.96,1154.39 575.013,1183.48 577.066,1153.84 579.119,1190.46 581.172,1164.74 583.225,1216.37 585.278,1173.55 587.331,1269.14 589.383,1032.05 591.436,1188.44 593.489,1139.87 595.542,1211.57 597.595,1082.88 599.648,1747.28 601.701,202.097 603.754,902.263 605.807,1431.14 607.859,1051.65 609.912,1254.67 611.965,1457.27 614.018,1158.65 616.071,1191.79 618.124,1123.96 620.177,1040.27 622.23,846.829 624.283,558.604 626.335,1189.71 628.388,1177.68 630.441,1144.73 632.494,1191.29 634.547,992.413 636.6,1045.54 638.653,1178.37 640.706,1198.16 642.759,1125.58 644.811,1211.54 646.864,1164.09 648.917,1371.31 650.97,1355.74 653.023,987.297 655.076,1346.67 657.129,1185.28 659.182,1177.38 661.235,1166.36 663.288,1202.74 665.34,1162.38 667.393,1167.52 669.446,1135.6 671.499,1181.63 673.552,1126.71 675.605,1199.49 677.658,1156.17 679.711,1175.55 681.764,1189.9 683.816,1155.95 685.869,1180.16 687.922,1153.02 689.975,1164.58 692.028,1101.45 694.081,1136.35 696.134,1148.95 698.187,1183.28 700.24,1150.5 702.292,1178.68 704.345,1079.84 706.398,1073.27 708.451,1118.19 710.504,1155.24 712.557,1167.6 714.61,1272.29 716.663,1152.4 718.716,1171.5 720.768,1194.84 722.821,1171.07 724.874,1080.47 726.927,1183.71 728.98,1197.87 731.033,1137.99 733.086,1247.11 735.139,1153.18 737.192,1152.13 739.245,1213.08 741.297,1136.26 743.35,1134.41 745.403,1201.4 747.456,1153.73 749.509,1202.83 751.562,1019.59 753.615,1316.6 755.668,1221.88 757.721,1109.3 759.773,1183.09 761.826,1176.15 763.879,1155.21 765.932,1185.91 767.985,1135.99 770.038,1114.75 772.091,1130.09 774.144,1116.31 776.197,1198.41 778.249,1163.45 780.302,1164.18 782.355,1139.24 784.408,1187.41 786.461,1090.85 788.514,1104.85 790.567,1141.84 792.62,1419.22 794.673,1070.03 796.725,1249.24 798.778,1338.75 800.831,1009.92 802.884,1212.25 804.937,1139.01 806.99,1107.79 809.043,1165.56 811.096,1179.98 813.149,1221.18 815.202,1192.56 817.254,1142.24 819.307,1154.18 821.36,1154.54 823.413,1152.77 825.466,1172.11 827.519,1145.71 829.572,1213.35 831.625,1112.39 833.678,1141.07 835.73,1503.61 837.783,1606.4 839.836,1204.69 841.889,1172.09 843.942,1176.79 845.995,1150.63 848.048,1196.54 850.101,1113.22 852.154,1020.5 854.206,1094.77 856.259,1251.63 858.312,1147.32 860.365,1162.72 862.418,1171.29 864.471,1164.11 866.524,1167.14 868.577,1194.04 870.63,1222.14 872.682,1248.87 874.735,1142.06 876.788,1153.19 878.841,1148.83 880.894,1133.36 882.947,1135.81 885,1202.76 887.053,1185.86 889.106,1162.83 891.159,1253.77 893.211,1178.37 895.264,1220.36 897.317,1074.42 899.37,1164.24 901.423,1179.95 903.476,1113.72 905.529,1178.28 907.582,1183.61 909.635,1176.15 911.687,1174.92 913.74,1160.32 915.793,1220.19 917.846,1088.4 919.899,1141.69 921.952,1247 924.005,1051.69 926.058,1231.21 928.111,1627.83 930.163,1241.92 932.216,1153.93 934.269,1163.35 936.322,1103.57 938.375,1058.62 940.428,1234.78 942.481,1165.23 944.534,1184.59 946.587,1179.25 948.639,1209.45 950.692,1098.14 952.745,1003.52 954.798,1167.73 956.851,1178.41 958.904,1161.46 960.957,1089.35 963.01,1079.78 965.063,1136.94 967.116,1127.79 969.168,1163.73 971.221,1164.32 973.274,1175.72 975.327,1138.18 977.38,1251.31 979.433,1198 981.486,1136.89 983.539,834.432 985.592,1102.09 987.644,1189.06 989.697,1184.27 991.75,1177.68 993.803,1061.65 995.856,970.224 997.909,1144.24 999.962,1151.87 1002.01,1146.32 1004.07,1150.74 1006.12,1118.74 1008.17,1097.41 1010.23,1100.81 1012.28,1115.45 1014.33,1142.2 1016.38,1211.29 1018.44,1190.21 1020.49,1190.59 1022.54,1188.06 1024.6,1184.84 1026.65,1113.71 1028.7,1172.4 1030.76,1168.57 1032.81,1155.65 1034.86,1138.9 1036.91,1156.67 1038.97,1178.64 1041.02,1183.33 1043.07,1260.63 1045.13,1187.2 1047.18,1180.74 1049.23,1217.47 1051.28,1203.97 1053.34,1164.67 1055.39,1170.66 1057.44,968.798 1059.5,1255.08 1061.55,1175.07 1063.6,1197.82 1065.65,1142.8 1067.71,1217.87 1069.76,1124.67 1071.81,1165.66 1073.87,1204.6 1075.92,1202.57 1077.97,1208.11 1080.02,1126.58 1082.08,989.315 1084.13,918.494 1086.18,1143.02 1088.24,1169.43 1090.29,1161.54 1092.34,1164.6 1094.39,1099.39 1096.45,1242.36 1098.5,1135.48 1100.55,1102.41 1102.61,1189.4 1104.66,1095.77 1106.71,1199.88 1108.77,1228.47 1110.82,1116.05 1112.87,1107.07 1114.92,1187.74 1116.98,1210.88 1119.03,1133.93 1121.08,1169.26 1123.14,1106.86 1125.19,1150.3 1127.24,1237.72 1129.29,1200.79 1131.35,1191.15 1133.4,1188.73 1135.45,1179.64 1137.51,1088.28 1139.56,1229.2 1141.61,1141.1 1143.66,1187.81 1145.72,1161.82 1147.77,1121.76 1149.82,1139.09 1151.88,1035.26 1153.93,1110.84 1155.98,1164.79 1158.03,1066.94 1160.09,452.385 1162.14,922.098 1164.19,1940.49 1166.25,1156.73 1168.3,1104.49 1170.35,1249.18 1172.4,1360.14 1174.46,1124.88 1176.51,1144.21 1178.56,1070.25 1180.62,1115.77 1182.67,1132.9 1184.72,1172.12 1186.77,1176.61 1188.83,1156.16 1190.88,1192.19 1192.93,1127.21 1194.99,1178.22 1197.04,938.614 1199.09,1182.66 1201.15,1227.59 1203.2,1191.06 1205.25,1133.22 1207.3,1154.53 1209.36,1335.68 1211.41,1257.99 1213.46,1195.17 1215.52,1271.33 1217.57,1174.19 1219.62,1148.11 1221.67,1206.4 1223.73,1099.57 1225.78,1222.07 1227.83,1161.09 1229.89,1158.91 1231.94,1128.78 1233.99,1196.32 1236.04,1240.5 1238.1,1264.07 1240.15,1150.9 1242.2,1146.25 1244.26,1206.81 1246.31,1182.96 1248.36,1135.97 1250.41,985.537 1252.47,1260.9 1254.52,1148.28 1256.57,1131.21 1258.63,1192.93 1260.68,1097.07 1262.73,1306.93 1264.78,855.331 1266.84,781.677 1268.89,1303.73 1270.94,994.033 1273,1560.21 1275.05,1194.41 1277.1,1152.55 1279.16,1158.68 1281.21,1180.7 1283.26,1173.63 1285.31,1273.32 1287.37,1143.6 1289.42,1073.17 1291.47,1225.51 1293.53,1172.28 1295.58,1157.94 1297.63,1149.85 1299.68,1196.99 1301.74,1186.42 1303.79,1106.16 1305.84,1129.54 1307.9,1143.1 1309.95,1182.91 1312,1160.27 1314.05,1189.71 1316.11,1258.17 1318.16,1112.09 1320.21,1203.14 1322.27,1114.3 1324.32,1165.57 1326.37,1166.65 1328.42,1173.88 1330.48,1169.5 1332.53,1147.01 1334.58,1148.47 1336.64,1179.55 1338.69,1190.89 1340.74,1107.67 1342.79,1057.26 1344.85,1241.39 1346.9,1192.29 1348.95,1187.88 1351.01,1185.65 1353.06,1157.28 1355.11,1157.8 1357.16,1196.29 1359.22,1182.43 1361.27,1197.35 1363.32,1244.08 1365.38,1105.53 1367.43,1226.82 1369.48,1000.66 1371.54,170.262 1373.59,-187.497 1375.64,3328.42 1377.69,326.45 1379.75,-520.599 1381.8,1140.25 1383.85,-376.577 1385.91,1252.86 1387.96,-443.744 1390.01,-1256.29 1392.06,1142.25 1394.12,1233.2 1396.17,955.752 1398.22,1007.76 1400.28,1177.7 1402.33,1167.78 1404.38,1179.8 1406.43,1196.14 1408.49,1141.97 1410.54,1103.32 1412.59,1168.8 1414.65,1146.13 1416.7,1163.74 1418.75,1138.49 1420.8,1169.35 1422.86,1124.79 1424.91,1110.73 1426.96,1324.64 1429.02,1236.58 1431.07,1052.64 1433.12,1126.6 1435.17,1250.45 1437.23,1061.96 1439.28,1200.02 1441.33,476.722 1443.39,903.065 1445.44,996.847 1447.49,1643.42 1449.55,717.536 1451.6,1342.39 1453.65,2457.68 1455.7,-1105 1457.76,7524.51 1459.81,-37030.4 1461.86,7998.25 1463.92,10085.5 1465.97,640.155 1468.02,2072.08 1470.07,2357.85 1472.13,297.051 1474.18,1448.19 1476.23,1715.79 1478.29,1308.85 1480.34,1051.87 1482.39,1195.45 1484.44,1186.58 1486.5,1194.98 1488.55,1134.68 1490.6,1185.66 1492.66,1147.47 1494.71,1209.63 1496.76,1156.45 1498.81,1227.32 1500.87,1189.24 1502.92,1095.46 1504.97,1195.51 1507.03,1233.19 1509.08,1113.53 1511.13,1223.74 1513.18,1154.86 1515.24,1196.78 1517.29,1144.79 1519.34,1159.41 1521.4,1262.8 1523.45,1204.65 1525.5,1140.78 1527.55,1142.08 1529.61,1160.87 1531.66,1237.17 1533.71,1161.83 1535.77,1185.43 1537.82,1170.61 1539.87,1165.89 1541.93,1186.93 1543.98,1160.59 1546.03,1179.03 1548.08,1177.7 1550.14,1140.42 1552.19,1163.64 1554.24,1161.13 1556.3,1218.41 1558.35,1221.85 1560.4,1790.72 1562.45,1135.84 1564.51,1124.93 1566.56,1127.23 1568.61,1179.01 1570.67,1088.87 1572.72,1062.2 1574.77,1401.13 1576.82,1507.46 1578.88,1211.58 1580.93,1226.73 1582.98,1211.47 1585.04,1076 1587.09,1271.01 1589.14,1181.56 1591.19,1144.31 1593.25,1223.04 1595.3,1088.08 1597.35,1190.05 1599.41,1227.2 1601.46,1166.61 1603.51,1159.39 1605.56,1159.52 1607.62,1149.1 1609.67,1160.21 1611.72,1152.12 1613.78,1148.15 1615.83,1159.23 1617.88,1205.44 1619.94,1183.3 1621.99,1277.17 1624.04,1247.18 1626.09,1308.67 1628.15,1110.05 1630.2,1174 1632.25,1089.95 1634.31,1138.47 1636.36,1199.96 1638.41,1125.42 1640.46,1177.78 1642.52,1177.13 1644.57,1182.88 1646.62,1127.11 1648.68,1149.88 1650.73,891.998 1652.78,1180.25 1654.83,1212.8 1656.89,1198.58 1658.94,1180.63 1660.99,1126.58 1663.05,1198.69 1665.1,1149.71 1667.15,1147.98 1669.2,1132.68 1671.26,1158.96 1673.31,1197.66 1675.36,1155.93 1677.42,1180.58 1679.47,1199.99 1681.52,1158.54 1683.57,1145.45 1685.63,1171.23 1687.68,1417.72 1689.73,783.595 1691.79,1226.21 1693.84,1134.02 1695.89,1194.57 1697.94,1170.81 1700,1032.64 1702.05,1250.67 1704.1,1388.1 1706.16,1186.82 1708.21,1165.06 1710.26,1212 1712.32,1160.38 1714.37,1187.59 1716.42,1158.47 1718.47,1170.74 1720.53,1172.42 1722.58,1149.73 1724.63,1197.96 1726.69,1000.68 1728.74,1063.91 1730.79,1168.2 1732.84,1129.67 1734.9,1182.1 1736.95,1081.63 1739,893.046 1741.06,1466.28 1743.11,1251 1745.16,1218.29 1747.21,1165.06 1749.27,1166.65 1751.32,1114.04 1753.37,1272.26 1755.43,1125.6 1757.48,1197.65 1759.53,1156.37 1761.58,1164.84 1763.64,1171.97 1765.69,1144.31 1767.74,1140.43 1769.8,1162.04 1771.85,1197.16 1773.9,1168.25 1775.95,1119.69 1778.01,1174.95 1780.06,1173.52 1782.11,1189.38 1784.17,1265.81 1786.22,1152.91 1788.27,1217.03 1790.33,936.126 1792.38,1165.27 1794.43,1154.48 1796.48,1156.9 1798.54,1140.64 1800.59,1167.22 1802.64,1177.72 1804.7,1178.57 1806.75,1157.53 1808.8,1184.71 1810.85,1079.43 1812.91,1151.33 1814.96,1183.17 1817.01,1154.95 1819.07,1208.17 1821.12,1134.81 1823.17,1142.14 1825.22,1200.7 1827.28,1112.27 1829.33,1146.94 1831.38,1200.26 1833.44,1193.86 1835.49,1236.29 1837.54,1218.24 1839.59,1196.72 1841.65,1220.16 1843.7,1219.71 1845.75,1192.1 1847.81,1123.48 1849.86,842.033 1851.91,1046.71 1853.96,1166.3 1856.02,1192.96 1858.07,1133.94 1860.12,2588.49 1862.18,1114.02 1864.23,1895.33 1866.28,1343.4 1868.34,1247.04 1870.39,1370.17 1872.44,1332.97 1874.49,1229.41 1876.55,1068.94 1878.6,1183.67 1880.65,1140.93 1882.71,1213.64 1884.76,1158.2 1886.81,939.665 1888.86,857.494 1890.92,1656.96 1892.97,959.423 1895.02,406.222 1897.08,1371.5 1899.13,1010.68 1901.18,1259.18 1903.23,1016.91 1905.29,1109.3 1907.34,1170.82 1909.39,1130.93 1911.45,1155.08 1913.5,1269.12 1915.55,948.352 1917.6,286.501 1919.66,741.715 1921.71,-1519.03 1923.76,5349.01 1925.82,5023.56 1927.87,-5243.12 1929.92,1197.13 1931.97,1219.44 1934.03,1127.72 1936.08,1179.56 1938.13,950.514 1940.19,1322.05 1942.24,1102.09 1944.29,1220.55 1946.34,1159.72 1948.4,1150.52 1950.45,1149.75 1952.5,1143.38 1954.56,1173.47 1956.61,1575.7 1958.66,968.887 1960.72,1395.63 1962.77,1326.15 1964.82,1289.53 1966.87,1152.12 1968.93,1090.76 1970.98,1033.37 1973.03,1122.22 1975.09,1168.67 1977.14,1155.16 1979.19,1184.14 1981.24,1156.2 1983.3,1075.28 1985.35,1057.26 1987.4,1228.54 1989.46,1163.73 1991.51,1146.6 1993.56,1163.91 1995.61,1130.35 1997.67,1261.87 1999.72,1422.7 2001.77,1838.29 2003.83,1571.97 2005.88,899.401 2007.93,1118.03 2009.98,1108.13 2012.04,1170.15 2014.09,1144.18 2016.14,1160.01 2018.2,1086.38 2020.25,1149.68 2022.3,1184.19 2024.35,1282.07 2026.41,1083.63 2028.46,1393.85 2030.51,1306.8 2032.57,1188.84 2034.62,1105.25 2036.67,1130.54 2038.73,1204.78 2040.78,1184.18 2042.83,1167.07 2044.88,1181.86 2046.94,1167.71 2048.99,1145.29 2051.04,1148.69 2053.1,1238.89 2055.15,1174.69 2057.2,1183.47 2059.25,1209.89 2061.31,1170.55 2063.36,1141.01 2065.41,1137.71 2067.47,1171.98 2069.52,1154.09 2071.57,1200.1 2073.62,1168.76 2075.68,1168.16 2077.73,1216.58 2079.78,1142.48 2081.84,1181.68 2083.89,1144.26 2085.94,1257.6 2087.99,1212.08 2090.05,1633.7 2092.1,1121.6 2094.15,1128.17 2096.21,1149.75 2098.26,1140.09 2100.31,1149.43 2102.36,1221.19 2104.42,1330.05 2106.47,1432.41 2108.52,1260.66 2110.58,1339.72 2112.63,1361.76 2114.68,1464.11 2116.73,1112 2118.79,1106.8 2120.84,1324.16 2122.89,795.391 2124.95,1609.26 2127,1312.12 2129.05,1059.01 2131.11,1000.25 2133.16,1308.39 2135.21,1191.61 2137.26,1259.83 2139.32,1111.44 2141.37,1250.14 2143.42,1146.3 2145.48,1182.65 2147.53,1246.62 2149.58,1153.11 2151.63,1203.71 2153.69,1255.53 2155.74,1382.74 2157.79,908.582 2159.85,793.914 2161.9,1535.32 2163.95,1214.27 2166,1185.78 2168.06,1159.48 2170.11,1110.18 2172.16,1319.28 2174.22,1170.99 2176.27,1137.54 2178.32,1027 2180.37,1173.12 2182.43,1187.04 2184.48,1216.04 2186.53,1208.23 2188.59,1184.62 2190.64,1141 2192.69,1218.77 2194.74,1173.52 2196.8,1172.79 2198.85,1215.86 2200.9,1142.02 2202.96,1160.75 2205.01,1152.01 2207.06,1146.45 2209.12,1167.04 2211.17,1191.34 2213.22,1076.2 2215.27,1245.99 2217.33,1151.85 2219.38,1146.75 2221.43,1178.23 2223.49,1333.94 2225.54,1407.09 2227.59,978.626 2229.64,1137.03 2231.7,1104.85 2233.75,1244.08 2235.8,1092.87 2237.86,1140.32 2239.91,1148.66 2241.96,1191.83 2244.01,1167.23 2246.07,1166.59 2248.12,1148.41 2250.17,1102.95 2252.23,1171.16 2254.28,1157.79 2256.33,1162.43 2258.38,1178.54 2260.44,1126.28 2262.49,1161.95 2264.54,1153.19 2266.6,1131.21 2268.65,1129.58 2270.7,1195.96 2272.75,1297.13 2274.81,1157.71 2276.86,1110.51 2278.91,1079.14 2280.97,1196.99 2283.02,1155.71 2285.07,1112.48 2287.12,1169.41 2289.18,1200.39 2291.23,1134.89 "/>
<path clip-path="url(#clip900)" d="M251.33 972.231 L588.926 972.231 L588.926 868.551 L251.33 868.551  Z" fill="#ffffff" fill-rule="evenodd" fill-opacity="1"/>
<polyline clip-path="url(#clip900)" style="stroke:#000000; stroke-linecap:round; stroke-linejoin:round; stroke-width:4; stroke-opacity:1; fill:none" points="251.33,972.231 588.926,972.231 588.926,868.551 251.33,868.551 251.33,972.231 "/>
<polyline clip-path="url(#clip900)" style="stroke:#009af9; stroke-linecap:round; stroke-linejoin:round; stroke-width:4; stroke-opacity:1; fill:none" points="275.484,920.391 420.41,920.391 "/>
<path clip-path="url(#clip900)" d="M470.12 932.74 L470.12 923.458 L462.481 923.458 L462.481 919.615 L474.749 919.615 L474.749 934.453 Q472.041 936.375 468.777 937.37 Q465.513 938.342 461.809 938.342 Q453.708 938.342 449.124 933.62 Q444.564 928.875 444.564 920.426 Q444.564 911.953 449.124 907.231 Q453.708 902.486 461.809 902.486 Q465.189 902.486 468.221 903.319 Q471.277 904.153 473.846 905.773 L473.846 910.75 Q471.254 908.551 468.337 907.44 Q465.421 906.328 462.203 906.328 Q455.86 906.328 452.666 909.87 Q449.495 913.412 449.495 920.426 Q449.495 927.416 452.666 930.958 Q455.86 934.5 462.203 934.5 Q464.68 934.5 466.624 934.083 Q468.569 933.643 470.12 932.74 Z" fill="#000000" fill-rule="nonzero" fill-opacity="1" /><path clip-path="url(#clip900)" d="M487.967 906.953 L487.967 919.94 L493.846 919.94 Q497.11 919.94 498.893 918.25 Q500.675 916.56 500.675 913.435 Q500.675 910.333 498.893 908.643 Q497.11 906.953 493.846 906.953 L487.967 906.953 M483.291 903.111 L493.846 903.111 Q499.657 903.111 502.619 905.75 Q505.606 908.365 505.606 913.435 Q505.606 918.551 502.619 921.166 Q499.657 923.782 493.846 923.782 L487.967 923.782 L487.967 937.671 L483.291 937.671 L483.291 903.111 Z" fill="#000000" fill-rule="nonzero" fill-opacity="1" /><path clip-path="url(#clip900)" d="M532.596 904.245 L532.596 908.805 Q529.934 907.532 527.573 906.907 Q525.212 906.282 523.013 906.282 Q519.193 906.282 517.11 907.764 Q515.05 909.245 515.05 911.977 Q515.05 914.268 516.416 915.449 Q517.805 916.606 521.647 917.324 L524.471 917.902 Q529.703 918.898 532.179 921.421 Q534.679 923.921 534.679 928.134 Q534.679 933.157 531.3 935.75 Q527.943 938.342 521.439 938.342 Q518.985 938.342 516.207 937.787 Q513.453 937.231 510.49 936.143 L510.49 931.328 Q513.337 932.926 516.068 933.736 Q518.8 934.546 521.439 934.546 Q525.443 934.546 527.619 932.972 Q529.795 931.398 529.795 928.481 Q529.795 925.935 528.221 924.5 Q526.67 923.064 523.105 922.347 L520.258 921.791 Q515.027 920.75 512.689 918.527 Q510.351 916.305 510.351 912.347 Q510.351 907.764 513.568 905.125 Q516.809 902.486 522.48 902.486 Q524.911 902.486 527.434 902.926 Q529.957 903.366 532.596 904.245 Z" fill="#000000" fill-rule="nonzero" fill-opacity="1" /><path clip-path="url(#clip900)" d="M562.689 904.245 L562.689 908.805 Q560.027 907.532 557.665 906.907 Q555.304 906.282 553.105 906.282 Q549.286 906.282 547.203 907.764 Q545.142 909.245 545.142 911.977 Q545.142 914.268 546.508 915.449 Q547.897 916.606 551.74 917.324 L554.564 917.902 Q559.795 918.898 562.272 921.421 Q564.772 923.921 564.772 928.134 Q564.772 933.157 561.392 935.75 Q558.036 938.342 551.531 938.342 Q549.078 938.342 546.3 937.787 Q543.545 937.231 540.582 936.143 L540.582 931.328 Q543.429 932.926 546.161 933.736 Q548.892 934.546 551.531 934.546 Q555.536 934.546 557.712 932.972 Q559.888 931.398 559.888 928.481 Q559.888 925.935 558.314 924.5 Q556.763 923.064 553.198 922.347 L550.351 921.791 Q545.119 920.75 542.781 918.527 Q540.443 916.305 540.443 912.347 Q540.443 907.764 543.661 905.125 Q546.902 902.486 552.573 902.486 Q555.003 902.486 557.527 902.926 Q560.05 903.366 562.689 904.245 Z" fill="#000000" fill-rule="nonzero" fill-opacity="1" /></svg>
