<?xml version="1.0" encoding="utf-8"?>
<svg xmlns="http://www.w3.org/2000/svg" xmlns:xlink="http://www.w3.org/1999/xlink" width="600" height="400" viewBox="0 0 2400 1600">
<defs>
  <clipPath id="clip430">
    <rect x="0" y="0" width="2400" height="1600"/>
  </clipPath>
</defs>
<path clip-path="url(#clip430)" d="M0 1600 L2400 1600 L2400 0 L0 0  Z" fill="#ffffff" fill-rule="evenodd" fill-opacity="1"/>
<defs>
  <clipPath id="clip431">
    <rect x="480" y="0" width="1681" height="1600"/>
  </clipPath>
</defs>
<path clip-path="url(#clip430)" d="M178.867 686.448 L2352.76 686.448 L2352.76 47.2441 L178.867 47.2441  Z" fill="#ffffff" fill-rule="evenodd" fill-opacity="1"/>
<defs>
  <clipPath id="clip432">
    <rect x="178" y="47" width="2175" height="640"/>
  </clipPath>
</defs>
<polyline clip-path="url(#clip432)" style="stroke:#000000; stroke-linecap:round; stroke-linejoin:round; stroke-width:2; stroke-opacity:0.1; fill:none" points="238.339,686.448 238.339,47.2441 "/>
<polyline clip-path="url(#clip432)" style="stroke:#000000; stroke-linecap:round; stroke-linejoin:round; stroke-width:2; stroke-opacity:0.1; fill:none" points="751.562,686.448 751.562,47.2441 "/>
<polyline clip-path="url(#clip432)" style="stroke:#000000; stroke-linecap:round; stroke-linejoin:round; stroke-width:2; stroke-opacity:0.1; fill:none" points="1264.78,686.448 1264.78,47.2441 "/>
<polyline clip-path="url(#clip432)" style="stroke:#000000; stroke-linecap:round; stroke-linejoin:round; stroke-width:2; stroke-opacity:0.1; fill:none" points="1778.01,686.448 1778.01,47.2441 "/>
<polyline clip-path="url(#clip432)" style="stroke:#000000; stroke-linecap:round; stroke-linejoin:round; stroke-width:2; stroke-opacity:0.1; fill:none" points="2291.23,686.448 2291.23,47.2441 "/>
<polyline clip-path="url(#clip432)" style="stroke:#000000; stroke-linecap:round; stroke-linejoin:round; stroke-width:2; stroke-opacity:0.1; fill:none" points="178.867,686.448 2352.76,686.448 "/>
<polyline clip-path="url(#clip432)" style="stroke:#000000; stroke-linecap:round; stroke-linejoin:round; stroke-width:2; stroke-opacity:0.1; fill:none" points="178.867,526.647 2352.76,526.647 "/>
<polyline clip-path="url(#clip432)" style="stroke:#000000; stroke-linecap:round; stroke-linejoin:round; stroke-width:2; stroke-opacity:0.1; fill:none" points="178.867,366.846 2352.76,366.846 "/>
<polyline clip-path="url(#clip432)" style="stroke:#000000; stroke-linecap:round; stroke-linejoin:round; stroke-width:2; stroke-opacity:0.1; fill:none" points="178.867,207.045 2352.76,207.045 "/>
<polyline clip-path="url(#clip432)" style="stroke:#000000; stroke-linecap:round; stroke-linejoin:round; stroke-width:2; stroke-opacity:0.1; fill:none" points="178.867,47.2441 2352.76,47.2441 "/>
<polyline clip-path="url(#clip430)" style="stroke:#000000; stroke-linecap:round; stroke-linejoin:round; stroke-width:4; stroke-opacity:1; fill:none" points="178.867,686.448 2352.76,686.448 "/>
<polyline clip-path="url(#clip430)" style="stroke:#000000; stroke-linecap:round; stroke-linejoin:round; stroke-width:4; stroke-opacity:1; fill:none" points="238.339,686.448 238.339,667.55 "/>
<polyline clip-path="url(#clip430)" style="stroke:#000000; stroke-linecap:round; stroke-linejoin:round; stroke-width:4; stroke-opacity:1; fill:none" points="751.562,686.448 751.562,667.55 "/>
<polyline clip-path="url(#clip430)" style="stroke:#000000; stroke-linecap:round; stroke-linejoin:round; stroke-width:4; stroke-opacity:1; fill:none" points="1264.78,686.448 1264.78,667.55 "/>
<polyline clip-path="url(#clip430)" style="stroke:#000000; stroke-linecap:round; stroke-linejoin:round; stroke-width:4; stroke-opacity:1; fill:none" points="1778.01,686.448 1778.01,667.55 "/>
<polyline clip-path="url(#clip430)" style="stroke:#000000; stroke-linecap:round; stroke-linejoin:round; stroke-width:4; stroke-opacity:1; fill:none" points="2291.23,686.448 2291.23,667.55 "/>
<path clip-path="url(#clip430)" d="M238.339 717.367 Q234.728 717.367 232.899 720.931 Q231.094 724.473 231.094 731.603 Q231.094 738.709 232.899 742.274 Q234.728 745.815 238.339 745.815 Q241.973 745.815 243.779 742.274 Q245.607 738.709 245.607 731.603 Q245.607 724.473 243.779 720.931 Q241.973 717.367 238.339 717.367 M238.339 713.663 Q244.149 713.663 247.205 718.269 Q250.283 722.853 250.283 731.603 Q250.283 740.329 247.205 744.936 Q244.149 749.519 238.339 749.519 Q232.529 749.519 229.45 744.936 Q226.395 740.329 226.395 731.603 Q226.395 722.853 229.45 718.269 Q232.529 713.663 238.339 713.663 Z" fill="#000000" fill-rule="nonzero" fill-opacity="1" /><path clip-path="url(#clip430)" d="M715.254 744.913 L731.574 744.913 L731.574 748.848 L709.629 748.848 L709.629 744.913 Q712.291 742.158 716.875 737.528 Q721.481 732.876 722.662 731.533 Q724.907 729.01 725.787 727.274 Q726.689 725.515 726.689 723.825 Q726.689 721.07 724.745 719.334 Q722.824 717.598 719.722 717.598 Q717.523 717.598 715.069 718.362 Q712.638 719.126 709.861 720.677 L709.861 715.955 Q712.685 714.82 715.138 714.242 Q717.592 713.663 719.629 713.663 Q725 713.663 728.194 716.348 Q731.388 719.033 731.388 723.524 Q731.388 725.654 730.578 727.575 Q729.791 729.473 727.685 732.066 Q727.106 732.737 724.004 735.954 Q720.902 739.149 715.254 744.913 Z" fill="#000000" fill-rule="nonzero" fill-opacity="1" /><path clip-path="url(#clip430)" d="M741.435 714.288 L759.791 714.288 L759.791 718.223 L745.717 718.223 L745.717 726.695 Q746.736 726.348 747.754 726.186 Q748.773 726.001 749.791 726.001 Q755.578 726.001 758.958 729.172 Q762.337 732.343 762.337 737.76 Q762.337 743.339 758.865 746.44 Q755.393 749.519 749.073 749.519 Q746.898 749.519 744.629 749.149 Q742.384 748.778 739.976 748.038 L739.976 743.339 Q742.06 744.473 744.282 745.028 Q746.504 745.584 748.981 745.584 Q752.985 745.584 755.323 743.478 Q757.661 741.371 757.661 737.76 Q757.661 734.149 755.323 732.042 Q752.985 729.936 748.981 729.936 Q747.106 729.936 745.231 730.353 Q743.379 730.769 741.435 731.649 L741.435 714.288 Z" fill="#000000" fill-rule="nonzero" fill-opacity="1" /><path clip-path="url(#clip430)" d="M781.55 717.367 Q777.939 717.367 776.11 720.931 Q774.305 724.473 774.305 731.603 Q774.305 738.709 776.11 742.274 Q777.939 745.815 781.55 745.815 Q785.184 745.815 786.99 742.274 Q788.819 738.709 788.819 731.603 Q788.819 724.473 786.99 720.931 Q785.184 717.367 781.55 717.367 M781.55 713.663 Q787.36 713.663 790.416 718.269 Q793.495 722.853 793.495 731.603 Q793.495 740.329 790.416 744.936 Q787.36 749.519 781.55 749.519 Q775.74 749.519 772.661 744.936 Q769.606 740.329 769.606 731.603 Q769.606 722.853 772.661 718.269 Q775.74 713.663 781.55 713.663 Z" fill="#000000" fill-rule="nonzero" fill-opacity="1" /><path clip-path="url(#clip430)" d="M1224.4 714.288 L1242.76 714.288 L1242.76 718.223 L1228.69 718.223 L1228.69 726.695 Q1229.7 726.348 1230.72 726.186 Q1231.74 726.001 1232.76 726.001 Q1238.55 726.001 1241.93 729.172 Q1245.31 732.343 1245.31 737.76 Q1245.31 743.339 1241.83 746.44 Q1238.36 749.519 1232.04 749.519 Q1229.87 749.519 1227.6 749.149 Q1225.35 748.778 1222.94 748.038 L1222.94 743.339 Q1225.03 744.473 1227.25 745.028 Q1229.47 745.584 1231.95 745.584 Q1235.95 745.584 1238.29 743.478 Q1240.63 741.371 1240.63 737.76 Q1240.63 734.149 1238.29 732.042 Q1235.95 729.936 1231.95 729.936 Q1230.07 729.936 1228.2 730.353 Q1226.35 730.769 1224.4 731.649 L1224.4 714.288 Z" fill="#000000" fill-rule="nonzero" fill-opacity="1" /><path clip-path="url(#clip430)" d="M1264.52 717.367 Q1260.91 717.367 1259.08 720.931 Q1257.27 724.473 1257.27 731.603 Q1257.27 738.709 1259.08 742.274 Q1260.91 745.815 1264.52 745.815 Q1268.15 745.815 1269.96 742.274 Q1271.79 738.709 1271.79 731.603 Q1271.79 724.473 1269.96 720.931 Q1268.15 717.367 1264.52 717.367 M1264.52 713.663 Q1270.33 713.663 1273.38 718.269 Q1276.46 722.853 1276.46 731.603 Q1276.46 740.329 1273.38 744.936 Q1270.33 749.519 1264.52 749.519 Q1258.71 749.519 1255.63 744.936 Q1252.57 740.329 1252.57 731.603 Q1252.57 722.853 1255.63 718.269 Q1258.71 713.663 1264.52 713.663 Z" fill="#000000" fill-rule="nonzero" fill-opacity="1" /><path clip-path="url(#clip430)" d="M1294.68 717.367 Q1291.07 717.367 1289.24 720.931 Q1287.44 724.473 1287.44 731.603 Q1287.44 738.709 1289.24 742.274 Q1291.07 745.815 1294.68 745.815 Q1298.31 745.815 1300.12 742.274 Q1301.95 738.709 1301.95 731.603 Q1301.95 724.473 1300.12 720.931 Q1298.31 717.367 1294.68 717.367 M1294.68 713.663 Q1300.49 713.663 1303.55 718.269 Q1306.62 722.853 1306.62 731.603 Q1306.62 740.329 1303.55 744.936 Q1300.49 749.519 1294.68 749.519 Q1288.87 749.519 1285.79 744.936 Q1282.74 740.329 1282.74 731.603 Q1282.74 722.853 1285.79 718.269 Q1288.87 713.663 1294.68 713.663 Z" fill="#000000" fill-rule="nonzero" fill-opacity="1" /><path clip-path="url(#clip430)" d="M1736.28 714.288 L1758.51 714.288 L1758.51 716.279 L1745.96 748.848 L1741.08 748.848 L1752.88 718.223 L1736.28 718.223 L1736.28 714.288 Z" fill="#000000" fill-rule="nonzero" fill-opacity="1" /><path clip-path="url(#clip430)" d="M1767.67 714.288 L1786.03 714.288 L1786.03 718.223 L1771.95 718.223 L1771.95 726.695 Q1772.97 726.348 1773.99 726.186 Q1775.01 726.001 1776.03 726.001 Q1781.82 726.001 1785.2 729.172 Q1788.57 732.343 1788.57 737.76 Q1788.57 743.339 1785.1 746.44 Q1781.63 749.519 1775.31 749.519 Q1773.14 749.519 1770.87 749.149 Q1768.62 748.778 1766.21 748.038 L1766.21 743.339 Q1768.3 744.473 1770.52 745.028 Q1772.74 745.584 1775.22 745.584 Q1779.22 745.584 1781.56 743.478 Q1783.9 741.371 1783.9 737.76 Q1783.9 734.149 1781.56 732.042 Q1779.22 729.936 1775.22 729.936 Q1773.34 729.936 1771.47 730.353 Q1769.62 730.769 1767.67 731.649 L1767.67 714.288 Z" fill="#000000" fill-rule="nonzero" fill-opacity="1" /><path clip-path="url(#clip430)" d="M1807.79 717.367 Q1804.18 717.367 1802.35 720.931 Q1800.54 724.473 1800.54 731.603 Q1800.54 738.709 1802.35 742.274 Q1804.18 745.815 1807.79 745.815 Q1811.42 745.815 1813.23 742.274 Q1815.06 738.709 1815.06 731.603 Q1815.06 724.473 1813.23 720.931 Q1811.42 717.367 1807.79 717.367 M1807.79 713.663 Q1813.6 713.663 1816.65 718.269 Q1819.73 722.853 1819.73 731.603 Q1819.73 740.329 1816.65 744.936 Q1813.6 749.519 1807.79 749.519 Q1801.98 749.519 1798.9 744.936 Q1795.84 740.329 1795.84 731.603 Q1795.84 722.853 1798.9 718.269 Q1801.98 713.663 1807.79 713.663 Z" fill="#000000" fill-rule="nonzero" fill-opacity="1" /><path clip-path="url(#clip430)" d="M2235.76 744.913 L2243.4 744.913 L2243.4 718.547 L2235.09 720.214 L2235.09 715.955 L2243.35 714.288 L2248.02 714.288 L2248.02 744.913 L2255.66 744.913 L2255.66 748.848 L2235.76 748.848 L2235.76 744.913 Z" fill="#000000" fill-rule="nonzero" fill-opacity="1" /><path clip-path="url(#clip430)" d="M2275.11 717.367 Q2271.5 717.367 2269.67 720.931 Q2267.86 724.473 2267.86 731.603 Q2267.86 738.709 2269.67 742.274 Q2271.5 745.815 2275.11 745.815 Q2278.74 745.815 2280.55 742.274 Q2282.38 738.709 2282.38 731.603 Q2282.38 724.473 2280.55 720.931 Q2278.74 717.367 2275.11 717.367 M2275.11 713.663 Q2280.92 713.663 2283.97 718.269 Q2287.05 722.853 2287.05 731.603 Q2287.05 740.329 2283.97 744.936 Q2280.92 749.519 2275.11 749.519 Q2269.3 749.519 2266.22 744.936 Q2263.16 740.329 2263.16 731.603 Q2263.16 722.853 2266.22 718.269 Q2269.3 713.663 2275.11 713.663 Z" fill="#000000" fill-rule="nonzero" fill-opacity="1" /><path clip-path="url(#clip430)" d="M2305.27 717.367 Q2301.66 717.367 2299.83 720.931 Q2298.02 724.473 2298.02 731.603 Q2298.02 738.709 2299.83 742.274 Q2301.66 745.815 2305.27 745.815 Q2308.9 745.815 2310.71 742.274 Q2312.54 738.709 2312.54 731.603 Q2312.54 724.473 2310.71 720.931 Q2308.9 717.367 2305.27 717.367 M2305.27 713.663 Q2311.08 713.663 2314.14 718.269 Q2317.21 722.853 2317.21 731.603 Q2317.21 740.329 2314.14 744.936 Q2311.08 749.519 2305.27 749.519 Q2299.46 749.519 2296.38 744.936 Q2293.33 740.329 2293.33 731.603 Q2293.33 722.853 2296.38 718.269 Q2299.46 713.663 2305.27 713.663 Z" fill="#000000" fill-rule="nonzero" fill-opacity="1" /><path clip-path="url(#clip430)" d="M2335.43 717.367 Q2331.82 717.367 2329.99 720.931 Q2328.19 724.473 2328.19 731.603 Q2328.19 738.709 2329.99 742.274 Q2331.82 745.815 2335.43 745.815 Q2339.07 745.815 2340.87 742.274 Q2342.7 738.709 2342.7 731.603 Q2342.7 724.473 2340.87 720.931 Q2339.07 717.367 2335.43 717.367 M2335.43 713.663 Q2341.24 713.663 2344.3 718.269 Q2347.38 722.853 2347.38 731.603 Q2347.38 740.329 2344.3 744.936 Q2341.24 749.519 2335.43 749.519 Q2329.62 749.519 2326.54 744.936 Q2323.49 740.329 2323.49 731.603 Q2323.49 722.853 2326.54 718.269 Q2329.62 713.663 2335.43 713.663 Z" fill="#000000" fill-rule="nonzero" fill-opacity="1" /><polyline clip-path="url(#clip430)" style="stroke:#000000; stroke-linecap:round; stroke-linejoin:round; stroke-width:4; stroke-opacity:1; fill:none" points="178.867,686.448 178.867,47.2441 "/>
<polyline clip-path="url(#clip430)" style="stroke:#000000; stroke-linecap:round; stroke-linejoin:round; stroke-width:4; stroke-opacity:1; fill:none" points="178.867,686.448 197.764,686.448 "/>
<polyline clip-path="url(#clip430)" style="stroke:#000000; stroke-linecap:round; stroke-linejoin:round; stroke-width:4; stroke-opacity:1; fill:none" points="178.867,526.647 197.764,526.647 "/>
<polyline clip-path="url(#clip430)" style="stroke:#000000; stroke-linecap:round; stroke-linejoin:round; stroke-width:4; stroke-opacity:1; fill:none" points="178.867,366.846 197.764,366.846 "/>
<polyline clip-path="url(#clip430)" style="stroke:#000000; stroke-linecap:round; stroke-linejoin:round; stroke-width:4; stroke-opacity:1; fill:none" points="178.867,207.045 197.764,207.045 "/>
<polyline clip-path="url(#clip430)" style="stroke:#000000; stroke-linecap:round; stroke-linejoin:round; stroke-width:4; stroke-opacity:1; fill:none" points="178.867,47.2441 197.764,47.2441 "/>
<path clip-path="url(#clip430)" d="M50.9921 686.899 L80.6679 686.899 L80.6679 690.834 L50.9921 690.834 L50.9921 686.899 Z" fill="#000000" fill-rule="nonzero" fill-opacity="1" /><path clip-path="url(#clip430)" d="M91.5706 699.793 L99.2095 699.793 L99.2095 673.427 L90.8993 675.094 L90.8993 670.835 L99.1632 669.168 L103.839 669.168 L103.839 699.793 L111.478 699.793 L111.478 703.728 L91.5706 703.728 L91.5706 699.793 Z" fill="#000000" fill-rule="nonzero" fill-opacity="1" /><path clip-path="url(#clip430)" d="M130.922 672.247 Q127.311 672.247 125.482 675.811 Q123.677 679.353 123.677 686.483 Q123.677 693.589 125.482 697.154 Q127.311 700.695 130.922 700.695 Q134.556 700.695 136.362 697.154 Q138.191 693.589 138.191 686.483 Q138.191 679.353 136.362 675.811 Q134.556 672.247 130.922 672.247 M130.922 668.543 Q136.732 668.543 139.788 673.149 Q142.867 677.733 142.867 686.483 Q142.867 695.209 139.788 699.816 Q136.732 704.399 130.922 704.399 Q125.112 704.399 122.033 699.816 Q118.978 695.209 118.978 686.483 Q118.978 677.733 122.033 673.149 Q125.112 668.543 130.922 668.543 Z" fill="#000000" fill-rule="nonzero" fill-opacity="1" /><path clip-path="url(#clip430)" d="M82.1494 527.098 L111.825 527.098 L111.825 531.033 L82.1494 531.033 L82.1494 527.098 Z" fill="#000000" fill-rule="nonzero" fill-opacity="1" /><path clip-path="url(#clip430)" d="M121.964 509.367 L140.32 509.367 L140.32 513.302 L126.246 513.302 L126.246 521.774 Q127.265 521.427 128.283 521.265 Q129.302 521.08 130.32 521.08 Q136.107 521.08 139.487 524.251 Q142.867 527.422 142.867 532.839 Q142.867 538.418 139.394 541.52 Q135.922 544.598 129.603 544.598 Q127.427 544.598 125.158 544.228 Q122.913 543.857 120.506 543.117 L120.506 538.418 Q122.589 539.552 124.811 540.108 Q127.033 540.663 129.51 540.663 Q133.515 540.663 135.853 538.557 Q138.191 536.45 138.191 532.839 Q138.191 529.228 135.853 527.121 Q133.515 525.015 129.51 525.015 Q127.635 525.015 125.76 525.432 Q123.908 525.848 121.964 526.728 L121.964 509.367 Z" fill="#000000" fill-rule="nonzero" fill-opacity="1" /><path clip-path="url(#clip430)" d="M130.922 352.645 Q127.311 352.645 125.482 356.209 Q123.677 359.751 123.677 366.881 Q123.677 373.987 125.482 377.552 Q127.311 381.094 130.922 381.094 Q134.556 381.094 136.362 377.552 Q138.191 373.987 138.191 366.881 Q138.191 359.751 136.362 356.209 Q134.556 352.645 130.922 352.645 M130.922 348.941 Q136.732 348.941 139.788 353.547 Q142.867 358.131 142.867 366.881 Q142.867 375.608 139.788 380.214 Q136.732 384.797 130.922 384.797 Q125.112 384.797 122.033 380.214 Q118.978 375.608 118.978 366.881 Q118.978 358.131 122.033 353.547 Q125.112 348.941 130.922 348.941 Z" fill="#000000" fill-rule="nonzero" fill-opacity="1" /><path clip-path="url(#clip430)" d="M121.964 189.765 L140.32 189.765 L140.32 193.7 L126.246 193.7 L126.246 202.172 Q127.265 201.825 128.283 201.663 Q129.302 201.478 130.32 201.478 Q136.107 201.478 139.487 204.649 Q142.867 207.82 142.867 213.237 Q142.867 218.816 139.394 221.918 Q135.922 224.996 129.603 224.996 Q127.427 224.996 125.158 224.626 Q122.913 224.256 120.506 223.515 L120.506 218.816 Q122.589 219.95 124.811 220.506 Q127.033 221.061 129.51 221.061 Q133.515 221.061 135.853 218.955 Q138.191 216.848 138.191 213.237 Q138.191 209.626 135.853 207.52 Q133.515 205.413 129.51 205.413 Q127.635 205.413 125.76 205.83 Q123.908 206.246 121.964 207.126 L121.964 189.765 Z" fill="#000000" fill-rule="nonzero" fill-opacity="1" /><path clip-path="url(#clip430)" d="M91.5706 60.5889 L99.2095 60.5889 L99.2095 34.2233 L90.8993 35.89 L90.8993 31.6308 L99.1632 29.9641 L103.839 29.9641 L103.839 60.5889 L111.478 60.5889 L111.478 64.5241 L91.5706 64.5241 L91.5706 60.5889 Z" fill="#000000" fill-rule="nonzero" fill-opacity="1" /><path clip-path="url(#clip430)" d="M130.922 33.0428 Q127.311 33.0428 125.482 36.6076 Q123.677 40.1492 123.677 47.2788 Q123.677 54.3853 125.482 57.9501 Q127.311 61.4917 130.922 61.4917 Q134.556 61.4917 136.362 57.9501 Q138.191 54.3853 138.191 47.2788 Q138.191 40.1492 136.362 36.6076 Q134.556 33.0428 130.922 33.0428 M130.922 29.3391 Q136.732 29.3391 139.788 33.9456 Q142.867 38.5289 142.867 47.2788 Q142.867 56.0056 139.788 60.6121 Q136.732 65.1954 130.922 65.1954 Q125.112 65.1954 122.033 60.6121 Q118.978 56.0056 118.978 47.2788 Q118.978 38.5289 122.033 33.9456 Q125.112 29.3391 130.922 29.3391 Z" fill="#000000" fill-rule="nonzero" fill-opacity="1" /><polyline clip-path="url(#clip432)" style="stroke:#009af9; stroke-linecap:round; stroke-linejoin:round; stroke-width:4; stroke-opacity:1; fill:none" points="240.392,334.886 242.445,335.334 244.498,336.028 246.55,338.985 248.603,332.924 250.656,355.36 252.709,344.581 254.762,344.38 256.815,350.726 258.868,349.488 260.921,337.625 262.974,334.275 265.027,342.261 267.079,342.277 269.132,426.112 271.185,423.958 273.238,423.442 275.291,433.046 277.344,433.091 279.397,433.368 281.45,441.266 283.503,438.026 285.555,393.854 287.608,319.905 289.661,320.09 291.714,319.907 293.767,312.407 295.82,321.713 297.873,306.906 299.926,307.095 301.979,305.565 304.031,304.298 306.084,336.994 308.137,360.216 310.19,369.909 312.243,369.94 314.296,377.641 316.349,368.732 318.402,360.127 320.455,392.348 322.507,395.09 324.56,364.55 326.613,363.714 328.666,363.777 330.719,313.314 332.772,315.591 334.825,315.062 336.878,314.771 338.931,316.02 340.984,316.779 343.036,326.001 345.089,347.764 347.142,351.819 349.195,355.701 351.248,355.427 353.301,354.465 355.354,354.434 357.407,357.172 359.46,331.521 361.512,334.016 363.565,331.111 365.618,334.433 367.671,306.009 369.724,289.494 371.777,290.614 373.83,301.388 375.883,301.056 377.936,307.988 379.988,308.129 382.041,317.949 384.094,314.26 386.147,347.291 388.2,388.569 390.253,386.699 392.306,376.823 394.359,377.429 396.412,434.859 398.464,433.579 400.517,436.613 402.57,417.98 404.623,414.72 406.676,414.663 408.729,370.725 410.782,393.424 412.835,414.645 414.888,412.007 416.94,413.751 418.993,377.027 421.046,377.123 423.099,375.499 425.152,373.638 427.205,373.553 429.258,373.121 431.311,373.666 433.364,371.727 435.417,353.599 437.469,353.641 439.522,349.934 441.575,350.751 443.628,406.796 445.681,411.559 447.734,430.035 449.787,342.803 451.84,320.199 453.893,320.605 455.945,316.893 457.998,316.68 460.051,301.705 462.104,433.338 464.157,300.391 466.21,296.636 468.263,303.74 470.316,343.442 472.369,343.88 474.421,385.537 476.474,390.676 478.527,390.905 480.58,386.138 482.633,377.566 484.686,377.621 486.739,431.094 488.792,431.719 490.845,419.072 492.897,417.935 494.95,440.2 497.003,437.874 499.056,437.299 501.109,431.112 503.162,424.667 505.215,421.23 507.268,405.681 509.321,414.482 511.374,414.604 513.426,433.424 515.479,433.603 517.532,433.752 519.585,435.149 521.638,308.994 523.691,310.797 525.744,310.356 527.797,312.281 529.85,316.224 531.902,317.346 533.955,317.349 536.008,316.278 538.061,316.693 540.114,311.773 542.167,303.214 544.22,303.076 546.273,313.686 548.326,305.193 550.378,301.799 552.431,328.407 554.484,329.271 556.537,329.458 558.59,329.013 560.643,334.035 562.696,333.85 564.749,232.911 566.802,395.509 568.854,429.226 570.907,422.439 572.96,419.677 575.013,469.818 577.066,419.182 579.119,388.231 581.172,277.975 583.225,278.97 585.278,282.223 587.331,300.272 589.383,325.468 591.436,342.042 593.489,408.853 595.542,401.397 597.595,387.618 599.648,405.064 601.701,447.539 603.754,463.257 605.807,389.503 607.859,430.194 609.912,261.234 611.965,277.32 614.018,259.262 616.071,275.971 618.124,323.367 620.177,370.133 622.23,409.14 624.283,449.483 626.335,447.346 628.388,502.463 630.441,494.262 632.494,488.075 634.547,464.654 636.6,463.463 638.653,501.236 640.706,492.921 642.759,477.328 644.811,370.644 646.864,368.175 648.917,345.707 650.97,335.597 653.023,331.629 655.076,379.977 657.129,74.5682 659.182,74.1047 661.235,60.3795 663.288,42.871 665.34,73.9946 667.393,91.6834 669.446,71.303 671.499,157.604 673.552,206.203 675.605,240.891 677.658,232.842 679.711,176.594 681.764,187.461 683.816,191.289 685.869,150.217 687.922,203.567 689.975,223.659 692.028,201.831 694.081,23.6797 696.134,84.9456 698.187,92.8888 700.24,93.0488 702.292,68.845 704.345,121.371 706.398,291.872 708.451,237.667 710.504,222.116 712.557,226.759 714.61,57.3168 716.663,183.588 718.716,168.69 720.768,207.337 722.821,151.939 724.874,134.174 726.927,55.1022 728.98,193.097 731.033,211.165 733.086,101.079 735.139,96.4309 737.192,93.1395 739.245,182.959 741.297,184.3 743.35,180.11 745.403,185.815 747.456,186.379 749.509,213.976 751.562,205.382 753.615,207.76 755.668,207.742 757.721,208.528 759.773,254.647 761.826,226.498 763.879,193.606 765.932,221.522 767.985,219.46 770.038,241.134 772.091,303.743 774.144,299.815 776.197,238.607 778.249,227.605 780.302,227.083 782.355,243.326 784.408,246 786.461,246.822 788.514,209.583 790.567,254.072 792.62,313.939 794.673,321.559 796.725,348.225 798.778,276.173 800.831,290.393 802.884,291.355 804.937,346.73 806.99,420.973 809.043,352.535 811.096,336.339 813.149,335.747 815.202,336.069 817.254,334.054 819.307,298.628 821.36,307.29 823.413,309.495 825.466,-19.0711 827.519,-97.1865 829.572,-80.3779 831.625,-150.808 833.678,-159.252 835.73,-158.883 837.783,-221.184 839.836,-236.56 841.889,-129.006 843.942,-139.127 845.995,-90.5139 848.048,-70.6452 850.101,74.8236 852.154,114.216 854.206,344.518 856.259,351.599 858.312,407.518 860.365,409.299 862.418,374.875 864.471,352.04 866.524,293.339 868.577,322.733 870.63,324.005 872.682,355.305 874.735,356.037 876.788,337.757 878.841,345.147 880.894,327.668 882.947,327.65 885,324.007 887.053,330.358 889.106,329.29 891.159,302.364 893.211,241.486 895.264,373.957 897.317,381.332 899.37,381.291 901.423,380.458 903.476,383.875 905.529,383.519 907.582,389.392 909.635,290.115 911.687,289.897 913.74,284.262 915.793,282.129 917.846,327.678 919.899,314.348 921.952,356.493 924.005,384.831 926.058,388.742 928.111,388.834 930.163,418.374 932.216,411.916 934.269,410.999 936.322,369.419 938.375,370.153 940.428,375.615 942.481,367.849 944.534,372.764 946.587,362.127 948.639,383.154 950.692,404.116 952.745,362.759 954.798,344.902 956.851,346.293 958.904,387.354 960.957,384.438 963.01,257.515 965.063,269.082 967.116,263.111 969.168,301.466 971.221,323.354 973.274,342.772 975.327,328.867 977.38,333.003 979.433,347.247 981.486,347.128 983.539,350.395 985.592,381.122 987.644,352.466 989.697,347.524 991.75,349.265 993.803,418.733 995.856,416.865 997.909,309.007 999.962,300.41 1002.01,284.451 1004.07,301.2 1006.12,283.569 1008.17,348.993 1010.23,348.537 1012.28,342.108 1014.33,324.106 1016.38,323.332 1018.44,263.484 1020.49,265.774 1022.54,264.244 1024.6,264.282 1026.65,273.654 1028.7,277.289 1030.76,275.893 1032.81,293.871 1034.86,279.221 1036.91,228.278 1038.97,228.125 1041.02,231.901 1043.07,185.911 1045.13,187.815 1047.18,237.846 1049.23,243.006 1051.28,241.546 1053.34,241.756 1055.39,192.482 1057.44,328.5 1059.5,328.771 1061.55,327.844 1063.6,339.313 1065.65,340.041 1067.71,252.711 1069.76,278.76 1071.81,279.627 1073.87,284.545 1075.92,284.375 1077.97,284.388 1080.02,294.01 1082.08,265.57 1084.13,281.365 1086.18,311.219 1088.24,240.409 1090.29,235.924 1092.34,234.605 1094.39,230.178 1096.45,176.06 1098.5,172.655 1100.55,180.728 1102.61,165.5 1104.66,166.372 1106.71,342.328 1108.77,352.221 1110.82,335.357 1112.87,337.394 1114.92,354.365 1116.98,297.411 1119.03,294.157 1121.08,293.671 1123.14,312.254 1125.19,312.632 1127.24,363.386 1129.29,361.028 1131.35,356.719 1133.4,315.105 1135.45,314.727 1137.51,311.937 1139.56,311.961 1141.61,457.988 1143.66,453.964 1145.72,431.793 1147.77,423.276 1149.82,405.435 1151.88,418.124 1153.93,316.105 1155.98,304.39 1158.03,301.414 1160.09,302.773 1162.14,312.831 1164.19,313.313 1166.25,305.926 1168.3,308.996 1170.35,298.056 1172.4,303.46 1174.46,285.673 1176.51,284.827 1178.56,284.762 1180.62,286.431 1182.67,289.565 1184.72,293.487 1186.77,298.081 1188.83,298.089 1190.88,313.688 1192.93,294.091 1194.99,289.852 1197.04,299.547 1199.09,299.55 1201.15,299.295 1203.2,299.789 1205.25,300.561 1207.3,300.992 1209.36,302.331 1211.41,324.409 1213.46,320.492 1215.52,327.105 1217.57,348.795 1219.62,372.311 1221.67,371.654 1223.73,371.425 1225.78,371.368 1227.83,370.245 1229.89,368.376 1231.94,295.532 1233.99,296.074 1236.04,303.883 1238.1,308.924 1240.15,317.19 1242.2,328.19 1244.26,332.185 1246.31,346.219 1248.36,347.949 1250.41,357.204 1252.47,357.297 1254.52,356.921 1256.57,356.902 1258.63,356.569 1260.68,357.431 1262.73,346.246 1264.78,346.658 1266.84,346.093 1268.89,345.355 1270.94,344.693 1273,350.222 1275.05,350.6 1277.1,350.782 1279.16,350.884 1281.21,350.885 1283.26,350.726 1285.31,353.006 1287.37,342.275 1289.42,341.091 1291.47,335.531 1293.53,335.527 1295.58,334.156 1297.63,328.859 1299.68,333.573 1301.74,338.118 1303.79,342.608 1305.84,339.072 1307.9,327.981 1309.95,327.657 1312,327.419 1314.05,327.403 1316.11,327.273 1318.16,308.747 1320.21,309.053 1322.27,321.587 1324.32,331.981 1326.37,371.523 1328.42,384.132 1330.48,384.243 1332.53,390.692 1334.58,395.702 1336.64,394.874 1338.69,394.921 1340.74,358.34 1342.79,358.581 1344.85,353.445 1346.9,343.371 1348.95,354.151 1351.01,381.778 1353.06,397.676 1355.11,398.027 1357.16,399.453 1359.22,399.151 1361.27,389.291 1363.32,357.328 1365.38,355.894 1367.43,326.528 1369.48,324.751 1371.54,290.707 1373.59,277.951 1375.64,295.583 1377.69,417.372 1379.75,418.499 1381.8,417.778 1383.85,396.52 1385.91,298.542 1387.96,315.736 1390.01,314.309 1392.06,313.87 1394.12,300.898 1396.17,286.032 1398.22,381.185 1400.28,382.466 1402.33,404.935 1404.38,330.017 1406.43,332.235 1408.49,309.679 1410.54,317.686 1412.59,325.744 1414.65,327.865 1416.7,408.399 1418.75,345.675 1420.8,355.168 1422.86,352.259 1424.91,353.219 1426.96,352.595 1429.02,327.157 1431.07,328.222 1433.12,328.887 1435.17,328.928 1437.23,328.565 1439.28,328.724 1441.33,328.069 1443.39,328.302 1445.44,328.259 1447.49,328.191 1449.55,333.451 1451.6,328.343 1453.65,349.944 1455.7,352.611 1457.76,352.536 1459.81,348.996 1461.86,349.949 1463.92,351.57 1465.97,357.241 1468.02,496.764 1470.07,512.519 1472.13,499.092 1474.18,454.851 1476.23,380.308 1478.29,385.257 1480.34,385.252 1482.39,372.941 1484.44,346.599 1486.5,355.391 1488.55,337.388 1490.6,383.172 1492.66,326.703 1494.71,326.674 1496.76,325.769 1498.81,325.541 1500.87,347.161 1502.92,347.193 1504.97,355.714 1507.03,357.037 1509.08,356.332 1511.13,356.526 1513.18,363.847 1515.24,363.927 1517.29,371.785 1519.34,356.429 1521.4,319.499 1523.45,308.513 1525.5,243.141 1527.55,241.168 1529.61,244.228 1531.66,379.282 1533.71,372.475 1535.77,375.7 1537.82,374.975 1539.87,367.723 1541.93,360.373 1543.98,364.159 1546.03,347.534 1548.08,382.918 1550.14,390.05 1552.19,390.317 1554.24,390.118 1556.3,388.791 1558.35,386.172 1560.4,356.704 1562.45,356.557 1564.51,360.947 1566.56,360.799 1568.61,371.843 1570.67,381.089 1572.72,367.866 1574.77,338.216 1576.82,322.184 1578.88,343.485 1580.93,329.944 1582.98,411.014 1585.04,402.013 1587.09,400.349 1589.14,395.538 1591.19,356.349 1593.25,364.5 1595.3,353.82 1597.35,353.598 1599.41,358.757 1601.46,365.148 1603.51,369.601 1605.56,369.703 1607.62,385.739 1609.67,398.253 1611.72,396.312 1613.78,384.951 1615.83,371.184 1617.88,371.158 1619.94,380.678 1621.99,384.769 1624.04,383.746 1626.09,388.247 1628.15,371.635 1630.2,355.225 1632.25,378.422 1634.31,378.292 1636.36,376.527 1638.41,361.055 1640.46,373.474 1642.52,368.555 1644.57,372.23 1646.62,373.558 1648.68,352.886 1650.73,363.395 1652.78,358.435 1654.83,357.591 1656.89,355.964 1658.94,359.127 1660.99,358.028 1663.05,357.566 1665.1,357.495 1667.15,357.797 1669.2,360.387 1671.26,362.394 1673.31,362.1 1675.36,361.082 1677.42,359.05 1679.47,352.649 1681.52,336.746 1683.57,405.532 1685.63,410.49 1687.68,412.26 1689.73,390.804 1691.79,390.078 1693.84,389.156 1695.89,390.235 1697.94,399.725 1700,323.729 1702.05,325.386 1704.1,290.429 1706.16,296.634 1708.21,296.931 1710.26,294.401 1712.32,314.618 1714.37,362.011 1716.42,369.203 1718.47,369.255 1720.53,356.901 1722.58,357.707 1724.63,356.107 1726.69,339.61 1728.74,393.804 1730.79,469.327 1732.84,470.814 1734.9,470.193 1736.95,469.591 1739,470.551 1741.06,469.889 1743.11,464.367 1745.16,387.69 1747.21,387.691 1749.27,400.281 1751.32,400.323 1753.37,411.866 1755.43,395.963 1757.48,417.9 1759.53,419.11 1761.58,373.159 1763.64,373.325 1765.69,373.373 1767.74,373.195 1769.8,376.452 1771.85,370.587 1773.9,373.017 1775.95,359.917 1778.01,359.501 1780.06,359.498 1782.11,329.59 1784.17,328.95 1786.22,325.981 1788.27,394.698 1790.33,399.523 1792.38,404.146 1794.43,416.976 1796.48,413.018 1798.54,412.803 1800.59,412.33 1802.64,412.711 1804.7,431.55 1806.75,429.589 1808.8,404.374 1810.85,359.561 1812.91,358.529 1814.96,348.819 1817.01,415.467 1819.07,411.248 1821.12,380.608 1823.17,420.342 1825.22,393.801 1827.28,406.613 1829.33,411.095 1831.38,422.326 1833.44,400.076 1835.49,385.84 1837.54,417.29 1839.59,411.001 1841.65,419.273 1843.7,419.35 1845.75,404.75 1847.81,401.746 1849.86,380.594 1851.91,388.045 1853.96,553.366 1856.02,558.592 1858.07,503.453 1860.12,511.503 1862.18,517.635 1864.23,515.095 1866.28,501.626 1868.34,479.61 1870.39,459.328 1872.44,465.804 1874.49,508.897 1876.55,636.785 1878.6,479.098 1880.65,497.914 1882.71,392.23 1884.76,353.456 1886.81,331.553 1888.86,207.934 1890.92,100.75 1892.97,126.7 1895.02,182.522 1897.08,495.624 1899.13,486.743 1901.18,486.297 1903.23,455.706 1905.29,639.05 1907.34,570.122 1909.39,668.367 1911.45,637.486 1913.5,652.402 1915.55,644.128 1917.6,667.18 1919.66,882.416 1921.71,836.815 1923.76,852.08 1925.82,866.45 1927.87,825.127 1929.92,901.371 1931.97,376.286 1934.03,450.442 1936.08,499.171 1938.13,549.222 1940.19,501.95 1942.24,387.492 1944.29,0.467059 1946.34,-282.032 1948.4,-69.1443 1950.45,-71.0768 1952.5,-21.6058 1954.56,-35.1848 1956.61,-40.8796 1958.66,-297.153 1960.72,-351.521 1962.77,-351.166 1964.82,-220.956 1966.87,-15.7938 1968.93,434.956 1970.98,509.288 1973.03,430.123 1975.09,477.965 1977.14,502.814 1979.19,510.068 1981.24,476.698 1983.3,521.16 1985.35,499.612 1987.4,510.374 1989.46,659.504 1991.51,672.344 1993.56,670.368 1995.61,663.947 1997.67,717.764 1999.72,760.66 2001.77,593.188 2003.83,464.04 2005.88,457.886 2007.93,457.718 2009.98,478.398 2012.04,489.434 2014.09,426.84 2016.14,527.076 2018.2,534.012 2020.25,434.576 2022.3,419.006 2024.35,416.807 2026.41,418.14 2028.46,433.594 2030.51,418.583 2032.57,415.762 2034.62,431.532 2036.67,431.321 2038.73,430.85 2040.78,430.077 2042.83,452.288 2044.88,450.556 2046.94,448.319 2048.99,444.219 2051.04,443.739 2053.1,444.067 2055.15,443.786 2057.2,453.927 2059.25,455.561 2061.31,400.618 2063.36,390.901 2065.41,373.591 2067.47,376.292 2069.52,367.682 2071.57,334.159 2073.62,334.73 2075.68,341.009 2077.73,338.615 2079.78,341.891 2081.84,339.38 2083.89,339.811 2085.94,359.547 2087.99,359.144 2090.05,399.283 2092.1,363.513 2094.15,356.673 2096.21,348.082 2098.26,363.238 2100.31,286.325 2102.36,249.503 2104.42,257.175 2106.47,253.64 2108.52,255.639 2110.58,255.574 2112.63,256.666 2114.68,259.547 2116.73,264.675 2118.79,268.012 2120.84,278.567 2122.89,281.836 2124.95,280.044 2127,321.744 2129.05,322.004 2131.11,292.637 2133.16,284.725 2135.21,286.012 2137.26,285.649 2139.32,284.01 2141.37,289.706 2143.42,289.859 2145.48,291.266 2147.53,294.148 2149.58,294.236 2151.63,307.596 2153.69,315.187 2155.74,315.992 2157.79,382.156 2159.85,380.568 2161.9,385.43 2163.95,351.81 2166,347.965 2168.06,345.738 2170.11,347.652 2172.16,347.457 2174.22,347.418 2176.27,347.075 2178.32,252.431 2180.37,247.146 2182.43,461.577 2184.48,460.964 2186.53,490.036 2188.59,506.462 2190.64,483.01 2192.69,482.933 2194.74,323.691 2196.8,329.236 2198.85,329.634 2200.9,348.113 2202.96,367.816 2205.01,369.463 2207.06,368.335 2209.12,321.222 2211.17,284.076 2213.22,281.288 2215.27,286.514 2217.33,254.253 2219.38,249.783 2221.43,236.616 2223.49,326.764 2225.54,325.426 2227.59,430.898 2229.64,424.547 2231.7,431.442 2233.75,444.294 2235.8,448.93 2237.86,448.267 2239.91,456.493 2241.96,389.417 2244.01,419.059 2246.07,442.977 2248.12,376.72 2250.17,359.71 2252.23,426.678 2254.28,452.889 2256.33,452.511 2258.38,392.963 2260.44,359.661 2262.49,342.657 2264.54,333.608 2266.6,313.259 2268.65,312.252 2270.7,317.264 2272.75,323.889 2274.81,324.024 2276.86,228.578 2278.91,225.884 2280.97,177.265 2283.02,125.388 2285.07,125.39 2287.12,125.328 2289.18,98.7619 2291.23,110.331 "/>
<path clip-path="url(#clip430)" d="M251.33 665.141 L548.024 665.141 L548.024 561.461 L251.33 561.461  Z" fill="#ffffff" fill-rule="evenodd" fill-opacity="1"/>
<polyline clip-path="url(#clip430)" style="stroke:#000000; stroke-linecap:round; stroke-linejoin:round; stroke-width:4; stroke-opacity:1; fill:none" points="251.33,665.141 548.024,665.141 548.024,561.461 251.33,561.461 251.33,665.141 "/>
<polyline clip-path="url(#clip430)" style="stroke:#009af9; stroke-linecap:round; stroke-linejoin:round; stroke-width:4; stroke-opacity:1; fill:none" points="275.484,613.301 420.41,613.301 "/>
<path clip-path="url(#clip430)" d="M444.564 596.021 L449.24 596.021 L449.24 626.646 L466.069 626.646 L466.069 630.581 L444.564 630.581 L444.564 596.021 Z" fill="#000000" fill-rule="nonzero" fill-opacity="1" /><path clip-path="url(#clip430)" d="M491.694 597.155 L491.694 601.715 Q489.032 600.442 486.67 599.817 Q484.309 599.192 482.11 599.192 Q478.291 599.192 476.208 600.674 Q474.147 602.155 474.147 604.887 Q474.147 607.178 475.513 608.359 Q476.902 609.516 480.745 610.234 L483.569 610.813 Q488.8 611.808 491.277 614.331 Q493.777 616.831 493.777 621.044 Q493.777 626.067 490.397 628.66 Q487.041 631.252 480.536 631.252 Q478.083 631.252 475.305 630.697 Q472.55 630.141 469.587 629.053 L469.587 624.239 Q472.434 625.836 475.166 626.646 Q477.897 627.456 480.536 627.456 Q484.541 627.456 486.717 625.882 Q488.893 624.308 488.893 621.391 Q488.893 618.845 487.319 617.41 Q485.768 615.975 482.203 615.257 L479.356 614.702 Q474.124 613.66 471.786 611.438 Q469.448 609.215 469.448 605.257 Q469.448 600.674 472.666 598.035 Q475.907 595.396 481.578 595.396 Q484.008 595.396 486.532 595.836 Q489.055 596.276 491.694 597.155 Z" fill="#000000" fill-rule="nonzero" fill-opacity="1" /><path clip-path="url(#clip430)" d="M521.786 597.155 L521.786 601.715 Q519.124 600.442 516.763 599.817 Q514.402 599.192 512.203 599.192 Q508.383 599.192 506.3 600.674 Q504.24 602.155 504.24 604.887 Q504.24 607.178 505.606 608.359 Q506.994 609.516 510.837 610.234 L513.661 610.813 Q518.893 611.808 521.369 614.331 Q523.869 616.831 523.869 621.044 Q523.869 626.067 520.49 628.66 Q517.133 631.252 510.629 631.252 Q508.175 631.252 505.397 630.697 Q502.643 630.141 499.68 629.053 L499.68 624.239 Q502.527 625.836 505.258 626.646 Q507.99 627.456 510.629 627.456 Q514.633 627.456 516.809 625.882 Q518.985 624.308 518.985 621.391 Q518.985 618.845 517.411 617.41 Q515.86 615.975 512.295 615.257 L509.448 614.702 Q504.217 613.66 501.879 611.438 Q499.541 609.215 499.541 605.257 Q499.541 600.674 502.758 598.035 Q505.999 595.396 511.67 595.396 Q514.101 595.396 516.624 595.836 Q519.147 596.276 521.786 597.155 Z" fill="#000000" fill-rule="nonzero" fill-opacity="1" /><path clip-path="url(#clip430)" d="M178.867 1486.45 L2352.76 1486.45 L2352.76 847.244 L178.867 847.244  Z" fill="#ffffff" fill-rule="evenodd" fill-opacity="1"/>
<defs>
  <clipPath id="clip433">
    <rect x="178" y="847" width="2175" height="640"/>
  </clipPath>
</defs>
<polyline clip-path="url(#clip433)" style="stroke:#000000; stroke-linecap:round; stroke-linejoin:round; stroke-width:2; stroke-opacity:0.1; fill:none" points="238.339,1486.45 238.339,847.244 "/>
<polyline clip-path="url(#clip433)" style="stroke:#000000; stroke-linecap:round; stroke-linejoin:round; stroke-width:2; stroke-opacity:0.1; fill:none" points="751.562,1486.45 751.562,847.244 "/>
<polyline clip-path="url(#clip433)" style="stroke:#000000; stroke-linecap:round; stroke-linejoin:round; stroke-width:2; stroke-opacity:0.1; fill:none" points="1264.78,1486.45 1264.78,847.244 "/>
<polyline clip-path="url(#clip433)" style="stroke:#000000; stroke-linecap:round; stroke-linejoin:round; stroke-width:2; stroke-opacity:0.1; fill:none" points="1778.01,1486.45 1778.01,847.244 "/>
<polyline clip-path="url(#clip433)" style="stroke:#000000; stroke-linecap:round; stroke-linejoin:round; stroke-width:2; stroke-opacity:0.1; fill:none" points="2291.23,1486.45 2291.23,847.244 "/>
<polyline clip-path="url(#clip433)" style="stroke:#000000; stroke-linecap:round; stroke-linejoin:round; stroke-width:2; stroke-opacity:0.1; fill:none" points="178.867,1486.45 2352.76,1486.45 "/>
<polyline clip-path="url(#clip433)" style="stroke:#000000; stroke-linecap:round; stroke-linejoin:round; stroke-width:2; stroke-opacity:0.1; fill:none" points="178.867,1326.65 2352.76,1326.65 "/>
<polyline clip-path="url(#clip433)" style="stroke:#000000; stroke-linecap:round; stroke-linejoin:round; stroke-width:2; stroke-opacity:0.1; fill:none" points="178.867,1166.85 2352.76,1166.85 "/>
<polyline clip-path="url(#clip433)" style="stroke:#000000; stroke-linecap:round; stroke-linejoin:round; stroke-width:2; stroke-opacity:0.1; fill:none" points="178.867,1007.05 2352.76,1007.05 "/>
<polyline clip-path="url(#clip433)" style="stroke:#000000; stroke-linecap:round; stroke-linejoin:round; stroke-width:2; stroke-opacity:0.1; fill:none" points="178.867,847.244 2352.76,847.244 "/>
<polyline clip-path="url(#clip430)" style="stroke:#000000; stroke-linecap:round; stroke-linejoin:round; stroke-width:4; stroke-opacity:1; fill:none" points="178.867,1486.45 2352.76,1486.45 "/>
<polyline clip-path="url(#clip430)" style="stroke:#000000; stroke-linecap:round; stroke-linejoin:round; stroke-width:4; stroke-opacity:1; fill:none" points="238.339,1486.45 238.339,1467.55 "/>
<polyline clip-path="url(#clip430)" style="stroke:#000000; stroke-linecap:round; stroke-linejoin:round; stroke-width:4; stroke-opacity:1; fill:none" points="751.562,1486.45 751.562,1467.55 "/>
<polyline clip-path="url(#clip430)" style="stroke:#000000; stroke-linecap:round; stroke-linejoin:round; stroke-width:4; stroke-opacity:1; fill:none" points="1264.78,1486.45 1264.78,1467.55 "/>
<polyline clip-path="url(#clip430)" style="stroke:#000000; stroke-linecap:round; stroke-linejoin:round; stroke-width:4; stroke-opacity:1; fill:none" points="1778.01,1486.45 1778.01,1467.55 "/>
<polyline clip-path="url(#clip430)" style="stroke:#000000; stroke-linecap:round; stroke-linejoin:round; stroke-width:4; stroke-opacity:1; fill:none" points="2291.23,1486.45 2291.23,1467.55 "/>
<path clip-path="url(#clip430)" d="M238.339 1517.37 Q234.728 1517.37 232.899 1520.93 Q231.094 1524.47 231.094 1531.6 Q231.094 1538.71 232.899 1542.27 Q234.728 1545.82 238.339 1545.82 Q241.973 1545.82 243.779 1542.27 Q245.607 1538.71 245.607 1531.6 Q245.607 1524.47 243.779 1520.93 Q241.973 1517.37 238.339 1517.37 M238.339 1513.66 Q244.149 1513.66 247.205 1518.27 Q250.283 1522.85 250.283 1531.6 Q250.283 1540.33 247.205 1544.94 Q244.149 1549.52 238.339 1549.52 Q232.529 1549.52 229.45 1544.94 Q226.395 1540.33 226.395 1531.6 Q226.395 1522.85 229.45 1518.27 Q232.529 1513.66 238.339 1513.66 Z" fill="#000000" fill-rule="nonzero" fill-opacity="1" /><path clip-path="url(#clip430)" d="M715.254 1544.91 L731.574 1544.91 L731.574 1548.85 L709.629 1548.85 L709.629 1544.91 Q712.291 1542.16 716.875 1537.53 Q721.481 1532.88 722.662 1531.53 Q724.907 1529.01 725.787 1527.27 Q726.689 1525.51 726.689 1523.82 Q726.689 1521.07 724.745 1519.33 Q722.824 1517.6 719.722 1517.6 Q717.523 1517.6 715.069 1518.36 Q712.638 1519.13 709.861 1520.68 L709.861 1515.95 Q712.685 1514.82 715.138 1514.24 Q717.592 1513.66 719.629 1513.66 Q725 1513.66 728.194 1516.35 Q731.388 1519.03 731.388 1523.52 Q731.388 1525.65 730.578 1527.57 Q729.791 1529.47 727.685 1532.07 Q727.106 1532.74 724.004 1535.95 Q720.902 1539.15 715.254 1544.91 Z" fill="#000000" fill-rule="nonzero" fill-opacity="1" /><path clip-path="url(#clip430)" d="M741.435 1514.29 L759.791 1514.29 L759.791 1518.22 L745.717 1518.22 L745.717 1526.7 Q746.736 1526.35 747.754 1526.19 Q748.773 1526 749.791 1526 Q755.578 1526 758.958 1529.17 Q762.337 1532.34 762.337 1537.76 Q762.337 1543.34 758.865 1546.44 Q755.393 1549.52 749.073 1549.52 Q746.898 1549.52 744.629 1549.15 Q742.384 1548.78 739.976 1548.04 L739.976 1543.34 Q742.06 1544.47 744.282 1545.03 Q746.504 1545.58 748.981 1545.58 Q752.985 1545.58 755.323 1543.48 Q757.661 1541.37 757.661 1537.76 Q757.661 1534.15 755.323 1532.04 Q752.985 1529.94 748.981 1529.94 Q747.106 1529.94 745.231 1530.35 Q743.379 1530.77 741.435 1531.65 L741.435 1514.29 Z" fill="#000000" fill-rule="nonzero" fill-opacity="1" /><path clip-path="url(#clip430)" d="M781.55 1517.37 Q777.939 1517.37 776.11 1520.93 Q774.305 1524.47 774.305 1531.6 Q774.305 1538.71 776.11 1542.27 Q777.939 1545.82 781.55 1545.82 Q785.184 1545.82 786.99 1542.27 Q788.819 1538.71 788.819 1531.6 Q788.819 1524.47 786.99 1520.93 Q785.184 1517.37 781.55 1517.37 M781.55 1513.66 Q787.36 1513.66 790.416 1518.27 Q793.495 1522.85 793.495 1531.6 Q793.495 1540.33 790.416 1544.94 Q787.36 1549.52 781.55 1549.52 Q775.74 1549.52 772.661 1544.94 Q769.606 1540.33 769.606 1531.6 Q769.606 1522.85 772.661 1518.27 Q775.74 1513.66 781.55 1513.66 Z" fill="#000000" fill-rule="nonzero" fill-opacity="1" /><path clip-path="url(#clip430)" d="M1224.4 1514.29 L1242.76 1514.29 L1242.76 1518.22 L1228.69 1518.22 L1228.69 1526.7 Q1229.7 1526.35 1230.72 1526.19 Q1231.74 1526 1232.76 1526 Q1238.55 1526 1241.93 1529.17 Q1245.31 1532.34 1245.31 1537.76 Q1245.31 1543.34 1241.83 1546.44 Q1238.36 1549.52 1232.04 1549.52 Q1229.87 1549.52 1227.6 1549.15 Q1225.35 1548.78 1222.94 1548.04 L1222.94 1543.34 Q1225.03 1544.47 1227.25 1545.03 Q1229.47 1545.58 1231.95 1545.58 Q1235.95 1545.58 1238.29 1543.48 Q1240.63 1541.37 1240.63 1537.76 Q1240.63 1534.15 1238.29 1532.04 Q1235.95 1529.94 1231.95 1529.94 Q1230.07 1529.94 1228.2 1530.35 Q1226.35 1530.77 1224.4 1531.65 L1224.4 1514.29 Z" fill="#000000" fill-rule="nonzero" fill-opacity="1" /><path clip-path="url(#clip430)" d="M1264.52 1517.37 Q1260.91 1517.37 1259.08 1520.93 Q1257.27 1524.47 1257.27 1531.6 Q1257.27 1538.71 1259.08 1542.27 Q1260.91 1545.82 1264.52 1545.82 Q1268.15 1545.82 1269.96 1542.27 Q1271.79 1538.71 1271.79 1531.6 Q1271.79 1524.47 1269.96 1520.93 Q1268.15 1517.37 1264.52 1517.37 M1264.52 1513.66 Q1270.33 1513.66 1273.38 1518.27 Q1276.46 1522.85 1276.46 1531.6 Q1276.46 1540.33 1273.38 1544.94 Q1270.33 1549.52 1264.52 1549.52 Q1258.71 1549.52 1255.63 1544.94 Q1252.57 1540.33 1252.57 1531.6 Q1252.57 1522.85 1255.63 1518.27 Q1258.71 1513.66 1264.52 1513.66 Z" fill="#000000" fill-rule="nonzero" fill-opacity="1" /><path clip-path="url(#clip430)" d="M1294.68 1517.37 Q1291.07 1517.37 1289.24 1520.93 Q1287.44 1524.47 1287.44 1531.6 Q1287.44 1538.71 1289.24 1542.27 Q1291.07 1545.82 1294.68 1545.82 Q1298.31 1545.82 1300.12 1542.27 Q1301.95 1538.71 1301.95 1531.6 Q1301.95 1524.47 1300.12 1520.93 Q1298.31 1517.37 1294.68 1517.37 M1294.68 1513.66 Q1300.49 1513.66 1303.55 1518.27 Q1306.62 1522.85 1306.62 1531.6 Q1306.62 1540.33 1303.55 1544.94 Q1300.49 1549.52 1294.68 1549.52 Q1288.87 1549.52 1285.79 1544.94 Q1282.74 1540.33 1282.74 1531.6 Q1282.74 1522.85 1285.79 1518.27 Q1288.87 1513.66 1294.68 1513.66 Z" fill="#000000" fill-rule="nonzero" fill-opacity="1" /><path clip-path="url(#clip430)" d="M1736.28 1514.29 L1758.51 1514.29 L1758.51 1516.28 L1745.96 1548.85 L1741.08 1548.85 L1752.88 1518.22 L1736.28 1518.22 L1736.28 1514.29 Z" fill="#000000" fill-rule="nonzero" fill-opacity="1" /><path clip-path="url(#clip430)" d="M1767.67 1514.29 L1786.03 1514.29 L1786.03 1518.22 L1771.95 1518.22 L1771.95 1526.7 Q1772.97 1526.35 1773.99 1526.19 Q1775.01 1526 1776.03 1526 Q1781.82 1526 1785.2 1529.17 Q1788.57 1532.34 1788.57 1537.76 Q1788.57 1543.34 1785.1 1546.44 Q1781.63 1549.52 1775.31 1549.52 Q1773.14 1549.52 1770.87 1549.15 Q1768.62 1548.78 1766.21 1548.04 L1766.21 1543.34 Q1768.3 1544.47 1770.52 1545.03 Q1772.74 1545.58 1775.22 1545.58 Q1779.22 1545.58 1781.56 1543.48 Q1783.9 1541.37 1783.9 1537.76 Q1783.9 1534.15 1781.56 1532.04 Q1779.22 1529.94 1775.22 1529.94 Q1773.34 1529.94 1771.47 1530.35 Q1769.62 1530.77 1767.67 1531.65 L1767.67 1514.29 Z" fill="#000000" fill-rule="nonzero" fill-opacity="1" /><path clip-path="url(#clip430)" d="M1807.79 1517.37 Q1804.18 1517.37 1802.35 1520.93 Q1800.54 1524.47 1800.54 1531.6 Q1800.54 1538.71 1802.35 1542.27 Q1804.18 1545.82 1807.79 1545.82 Q1811.42 1545.82 1813.23 1542.27 Q1815.06 1538.71 1815.06 1531.6 Q1815.06 1524.47 1813.23 1520.93 Q1811.42 1517.37 1807.79 1517.37 M1807.79 1513.66 Q1813.6 1513.66 1816.65 1518.27 Q1819.73 1522.85 1819.73 1531.6 Q1819.73 1540.33 1816.65 1544.94 Q1813.6 1549.52 1807.79 1549.52 Q1801.98 1549.52 1798.9 1544.94 Q1795.84 1540.33 1795.84 1531.6 Q1795.84 1522.85 1798.9 1518.27 Q1801.98 1513.66 1807.79 1513.66 Z" fill="#000000" fill-rule="nonzero" fill-opacity="1" /><path clip-path="url(#clip430)" d="M2235.76 1544.91 L2243.4 1544.91 L2243.4 1518.55 L2235.09 1520.21 L2235.09 1515.95 L2243.35 1514.29 L2248.02 1514.29 L2248.02 1544.91 L2255.66 1544.91 L2255.66 1548.85 L2235.76 1548.85 L2235.76 1544.91 Z" fill="#000000" fill-rule="nonzero" fill-opacity="1" /><path clip-path="url(#clip430)" d="M2275.11 1517.37 Q2271.5 1517.37 2269.67 1520.93 Q2267.86 1524.47 2267.86 1531.6 Q2267.86 1538.71 2269.67 1542.27 Q2271.5 1545.82 2275.11 1545.82 Q2278.74 1545.82 2280.55 1542.27 Q2282.38 1538.71 2282.38 1531.6 Q2282.38 1524.47 2280.55 1520.93 Q2278.74 1517.37 2275.11 1517.37 M2275.11 1513.66 Q2280.92 1513.66 2283.97 1518.27 Q2287.05 1522.85 2287.05 1531.6 Q2287.05 1540.33 2283.97 1544.94 Q2280.92 1549.52 2275.11 1549.52 Q2269.3 1549.52 2266.22 1544.94 Q2263.16 1540.33 2263.16 1531.6 Q2263.16 1522.85 2266.22 1518.27 Q2269.3 1513.66 2275.11 1513.66 Z" fill="#000000" fill-rule="nonzero" fill-opacity="1" /><path clip-path="url(#clip430)" d="M2305.27 1517.37 Q2301.66 1517.37 2299.83 1520.93 Q2298.02 1524.47 2298.02 1531.6 Q2298.02 1538.71 2299.83 1542.27 Q2301.66 1545.82 2305.27 1545.82 Q2308.9 1545.82 2310.71 1542.27 Q2312.54 1538.71 2312.54 1531.6 Q2312.54 1524.47 2310.71 1520.93 Q2308.9 1517.37 2305.27 1517.37 M2305.27 1513.66 Q2311.08 1513.66 2314.14 1518.27 Q2317.21 1522.85 2317.21 1531.6 Q2317.21 1540.33 2314.14 1544.94 Q2311.08 1549.52 2305.27 1549.52 Q2299.46 1549.52 2296.38 1544.94 Q2293.33 1540.33 2293.33 1531.6 Q2293.33 1522.85 2296.38 1518.27 Q2299.46 1513.66 2305.27 1513.66 Z" fill="#000000" fill-rule="nonzero" fill-opacity="1" /><path clip-path="url(#clip430)" d="M2335.43 1517.37 Q2331.82 1517.37 2329.99 1520.93 Q2328.19 1524.47 2328.19 1531.6 Q2328.19 1538.71 2329.99 1542.27 Q2331.82 1545.82 2335.43 1545.82 Q2339.07 1545.82 2340.87 1542.27 Q2342.7 1538.71 2342.7 1531.6 Q2342.7 1524.47 2340.87 1520.93 Q2339.07 1517.37 2335.43 1517.37 M2335.43 1513.66 Q2341.24 1513.66 2344.3 1518.27 Q2347.38 1522.85 2347.38 1531.6 Q2347.38 1540.33 2344.3 1544.94 Q2341.24 1549.52 2335.43 1549.52 Q2329.62 1549.52 2326.54 1544.94 Q2323.49 1540.33 2323.49 1531.6 Q2323.49 1522.85 2326.54 1518.27 Q2329.62 1513.66 2335.43 1513.66 Z" fill="#000000" fill-rule="nonzero" fill-opacity="1" /><polyline clip-path="url(#clip430)" style="stroke:#000000; stroke-linecap:round; stroke-linejoin:round; stroke-width:4; stroke-opacity:1; fill:none" points="178.867,1486.45 178.867,847.244 "/>
<polyline clip-path="url(#clip430)" style="stroke:#000000; stroke-linecap:round; stroke-linejoin:round; stroke-width:4; stroke-opacity:1; fill:none" points="178.867,1486.45 197.764,1486.45 "/>
<polyline clip-path="url(#clip430)" style="stroke:#000000; stroke-linecap:round; stroke-linejoin:round; stroke-width:4; stroke-opacity:1; fill:none" points="178.867,1326.65 197.764,1326.65 "/>
<polyline clip-path="url(#clip430)" style="stroke:#000000; stroke-linecap:round; stroke-linejoin:round; stroke-width:4; stroke-opacity:1; fill:none" points="178.867,1166.85 197.764,1166.85 "/>
<polyline clip-path="url(#clip430)" style="stroke:#000000; stroke-linecap:round; stroke-linejoin:round; stroke-width:4; stroke-opacity:1; fill:none" points="178.867,1007.05 197.764,1007.05 "/>
<polyline clip-path="url(#clip430)" style="stroke:#000000; stroke-linecap:round; stroke-linejoin:round; stroke-width:4; stroke-opacity:1; fill:none" points="178.867,847.244 197.764,847.244 "/>
<path clip-path="url(#clip430)" d="M50.9921 1486.9 L80.6679 1486.9 L80.6679 1490.83 L50.9921 1490.83 L50.9921 1486.9 Z" fill="#000000" fill-rule="nonzero" fill-opacity="1" /><path clip-path="url(#clip430)" d="M91.5706 1499.79 L99.2095 1499.79 L99.2095 1473.43 L90.8993 1475.09 L90.8993 1470.83 L99.1632 1469.17 L103.839 1469.17 L103.839 1499.79 L111.478 1499.79 L111.478 1503.73 L91.5706 1503.73 L91.5706 1499.79 Z" fill="#000000" fill-rule="nonzero" fill-opacity="1" /><path clip-path="url(#clip430)" d="M130.922 1472.25 Q127.311 1472.25 125.482 1475.81 Q123.677 1479.35 123.677 1486.48 Q123.677 1493.59 125.482 1497.15 Q127.311 1500.7 130.922 1500.7 Q134.556 1500.7 136.362 1497.15 Q138.191 1493.59 138.191 1486.48 Q138.191 1479.35 136.362 1475.81 Q134.556 1472.25 130.922 1472.25 M130.922 1468.54 Q136.732 1468.54 139.788 1473.15 Q142.867 1477.73 142.867 1486.48 Q142.867 1495.21 139.788 1499.82 Q136.732 1504.4 130.922 1504.4 Q125.112 1504.4 122.033 1499.82 Q118.978 1495.21 118.978 1486.48 Q118.978 1477.73 122.033 1473.15 Q125.112 1468.54 130.922 1468.54 Z" fill="#000000" fill-rule="nonzero" fill-opacity="1" /><path clip-path="url(#clip430)" d="M82.1494 1327.1 L111.825 1327.1 L111.825 1331.03 L82.1494 1331.03 L82.1494 1327.1 Z" fill="#000000" fill-rule="nonzero" fill-opacity="1" /><path clip-path="url(#clip430)" d="M121.964 1309.37 L140.32 1309.37 L140.32 1313.3 L126.246 1313.3 L126.246 1321.77 Q127.265 1321.43 128.283 1321.27 Q129.302 1321.08 130.32 1321.08 Q136.107 1321.08 139.487 1324.25 Q142.867 1327.42 142.867 1332.84 Q142.867 1338.42 139.394 1341.52 Q135.922 1344.6 129.603 1344.6 Q127.427 1344.6 125.158 1344.23 Q122.913 1343.86 120.506 1343.12 L120.506 1338.42 Q122.589 1339.55 124.811 1340.11 Q127.033 1340.66 129.51 1340.66 Q133.515 1340.66 135.853 1338.56 Q138.191 1336.45 138.191 1332.84 Q138.191 1329.23 135.853 1327.12 Q133.515 1325.01 129.51 1325.01 Q127.635 1325.01 125.76 1325.43 Q123.908 1325.85 121.964 1326.73 L121.964 1309.37 Z" fill="#000000" fill-rule="nonzero" fill-opacity="1" /><path clip-path="url(#clip430)" d="M130.922 1152.64 Q127.311 1152.64 125.482 1156.21 Q123.677 1159.75 123.677 1166.88 Q123.677 1173.99 125.482 1177.55 Q127.311 1181.09 130.922 1181.09 Q134.556 1181.09 136.362 1177.55 Q138.191 1173.99 138.191 1166.88 Q138.191 1159.75 136.362 1156.21 Q134.556 1152.64 130.922 1152.64 M130.922 1148.94 Q136.732 1148.94 139.788 1153.55 Q142.867 1158.13 142.867 1166.88 Q142.867 1175.61 139.788 1180.21 Q136.732 1184.8 130.922 1184.8 Q125.112 1184.8 122.033 1180.21 Q118.978 1175.61 118.978 1166.88 Q118.978 1158.13 122.033 1153.55 Q125.112 1148.94 130.922 1148.94 Z" fill="#000000" fill-rule="nonzero" fill-opacity="1" /><path clip-path="url(#clip430)" d="M121.964 989.765 L140.32 989.765 L140.32 993.7 L126.246 993.7 L126.246 1002.17 Q127.265 1001.83 128.283 1001.66 Q129.302 1001.48 130.32 1001.48 Q136.107 1001.48 139.487 1004.65 Q142.867 1007.82 142.867 1013.24 Q142.867 1018.82 139.394 1021.92 Q135.922 1025 129.603 1025 Q127.427 1025 125.158 1024.63 Q122.913 1024.26 120.506 1023.51 L120.506 1018.82 Q122.589 1019.95 124.811 1020.51 Q127.033 1021.06 129.51 1021.06 Q133.515 1021.06 135.853 1018.95 Q138.191 1016.85 138.191 1013.24 Q138.191 1009.63 135.853 1007.52 Q133.515 1005.41 129.51 1005.41 Q127.635 1005.41 125.76 1005.83 Q123.908 1006.25 121.964 1007.13 L121.964 989.765 Z" fill="#000000" fill-rule="nonzero" fill-opacity="1" /><path clip-path="url(#clip430)" d="M91.5706 860.589 L99.2095 860.589 L99.2095 834.223 L90.8993 835.89 L90.8993 831.631 L99.1632 829.964 L103.839 829.964 L103.839 860.589 L111.478 860.589 L111.478 864.524 L91.5706 864.524 L91.5706 860.589 Z" fill="#000000" fill-rule="nonzero" fill-opacity="1" /><path clip-path="url(#clip430)" d="M130.922 833.043 Q127.311 833.043 125.482 836.608 Q123.677 840.149 123.677 847.279 Q123.677 854.385 125.482 857.95 Q127.311 861.492 130.922 861.492 Q134.556 861.492 136.362 857.95 Q138.191 854.385 138.191 847.279 Q138.191 840.149 136.362 836.608 Q134.556 833.043 130.922 833.043 M130.922 829.339 Q136.732 829.339 139.788 833.946 Q142.867 838.529 142.867 847.279 Q142.867 856.006 139.788 860.612 Q136.732 865.195 130.922 865.195 Q125.112 865.195 122.033 860.612 Q118.978 856.006 118.978 847.279 Q118.978 838.529 122.033 833.946 Q125.112 829.339 130.922 829.339 Z" fill="#000000" fill-rule="nonzero" fill-opacity="1" /><polyline clip-path="url(#clip433)" style="stroke:#009af9; stroke-linecap:round; stroke-linejoin:round; stroke-width:4; stroke-opacity:1; fill:none" points="240.392,1134.89 242.445,1197.18 244.498,1257.96 246.55,1428.13 248.603,1202.9 250.656,1162.94 252.709,1236.91 254.762,1292.91 256.815,1102.49 258.868,1335.36 260.921,1208.42 262.974,1205.79 265.027,1132.29 267.079,937.286 269.132,730.409 271.185,1517.49 273.238,1357.06 275.291,1037.71 277.344,1117.4 279.397,1184.4 281.45,1369.29 283.503,1102.42 285.555,1214.5 287.608,1172.54 289.661,1240.98 291.714,1208.5 293.767,1189.31 295.82,1141.61 297.873,1271.55 299.926,683.889 301.979,862.366 304.031,1590.01 306.084,3387.88 308.137,-573.547 310.19,705.316 312.243,1714.93 314.296,744.062 316.349,1046.93 318.402,1162.31 320.455,1168.87 322.507,1176.01 324.56,1206.31 326.613,1150.12 328.666,1193.62 330.719,1174.8 332.772,1182.56 334.825,1406.42 336.878,1280.56 338.931,951.683 340.984,1115.29 343.036,844.715 345.089,1150.23 347.142,1167.72 349.195,1164.62 351.248,1211.36 353.301,1039.35 355.354,1062.85 357.407,1120.96 359.46,1270.17 361.512,1180.13 363.565,1161.71 365.618,1119.7 367.671,1189.94 369.724,1139.11 371.777,1155.71 373.83,1170.68 375.883,1042.45 377.936,1221.24 379.988,1208.07 382.041,1047.01 384.094,712.437 386.147,1247.86 388.2,1159.49 390.253,1165.12 392.306,1169.74 394.359,1157.86 396.412,1187.89 398.464,1147.04 400.517,1168.87 402.57,1140.81 404.623,1165.92 406.676,1168.35 408.729,1226.7 410.782,1163.51 412.835,1145.37 414.888,1308.87 416.94,1257.29 418.993,1017.33 421.046,1417.73 423.099,1254.32 425.152,1165.82 427.205,1153.74 429.258,1146.23 431.311,1065.99 433.364,1227.16 435.417,1277.16 437.469,1238.75 439.522,1206.45 441.575,1303.92 443.628,1276.11 445.681,1220.23 447.734,1108.29 449.787,1234.24 451.84,1187.86 453.893,1019.73 455.945,1227.58 457.998,1131.93 460.051,1146.85 462.104,1181.75 464.157,1134.63 466.21,1214.91 468.263,1122.01 470.316,1187.64 472.369,1160.16 474.421,1187.07 476.474,1141.09 478.527,1109.5 480.58,1159.53 482.633,1221.3 484.686,1074.7 486.739,1042.3 488.792,974.873 490.845,1116.51 492.897,1170.07 494.95,1022.22 497.003,1477.12 499.056,1078.34 501.109,1141.89 503.162,1144.12 505.215,1165.79 507.268,1152.42 509.321,1144.74 511.374,1171.89 513.426,1145.07 515.479,1592.84 517.532,918.36 519.585,1903.71 521.638,713.456 523.691,1241.57 525.744,1023.96 527.797,778.416 529.85,654.867 531.902,1205.73 533.955,1070.46 536.008,1179.56 538.061,1135.27 540.114,1094.02 542.167,1231.66 544.22,1109.25 546.273,1179.55 548.326,1156.82 550.378,1111.1 552.431,1232.35 554.484,1166.24 556.537,1011.09 558.59,1517.88 560.643,580.211 562.696,1163.19 564.749,1164.3 566.802,1157.6 568.854,1176.08 570.907,1183.38 572.96,1185.69 575.013,1145.04 577.066,1281.48 579.119,1314.8 581.172,1136.94 583.225,1164.8 585.278,1172.25 587.331,1186.42 589.383,1161.74 591.436,1273.14 593.489,1187.27 595.542,1175.87 597.595,1192.22 599.648,1121.21 601.701,1224.33 603.754,1012.42 605.807,858.271 607.859,512.037 609.912,1166.46 611.965,1158.55 614.018,1152.01 616.071,1146.42 618.124,1192.83 620.177,1145.66 622.23,1088.17 624.283,1302.52 626.335,988.428 628.388,1291.93 630.441,1152.65 632.494,1149.14 634.547,1197.74 636.6,1064.11 638.653,1225.16 640.706,1298.84 642.759,1317.16 644.811,1039.2 646.864,1143.29 648.917,1179.11 650.97,1169.66 653.023,1170.05 655.076,1079.68 657.129,1052.89 659.182,1250.46 661.235,1182.63 663.288,1178.13 665.34,1179.33 667.393,1176.81 669.446,1156.41 671.499,1146.75 673.552,1166.59 675.605,1181.95 677.658,1182.32 679.711,1174.02 681.764,1179.4 683.816,1118.3 685.869,1153.62 687.922,1142.45 689.975,1188.3 692.028,1134.26 694.081,1182.39 696.134,1158.88 698.187,1175.52 700.24,1342.8 702.292,1407.78 704.345,1431.49 706.398,1301.96 708.451,1216.51 710.504,1122.04 712.557,1289.22 714.61,1361.14 716.663,1116.48 718.716,1162.86 720.768,1140.73 722.821,1202.03 724.874,1174.55 726.927,1167.18 728.98,1081.33 731.033,1278.74 733.086,1177.5 735.139,1123.73 737.192,1204.52 739.245,1143.23 741.297,1129.95 743.35,1128.6 745.403,1225.77 747.456,1130.01 749.509,1224.64 751.562,1203.49 753.615,1180.07 755.668,1156.24 757.721,1142.85 759.773,1195.22 761.826,1207.07 763.879,1190.74 765.932,1193.18 767.985,1231.93 770.038,1125.4 772.091,1191.92 774.144,1148.5 776.197,1141.66 778.249,1153.81 780.302,1141.98 782.355,1201.29 784.408,1182.55 786.461,1057.51 788.514,1118.94 790.567,1268.82 792.62,1118.96 794.673,1154.01 796.725,1330.5 798.778,1312.68 800.831,985.515 802.884,1201.96 804.937,1148.6 806.99,1150.78 809.043,1841.66 811.096,163.322 813.149,803.784 815.202,1092.07 817.254,1205.91 819.307,1991.2 821.36,891.19 823.413,1084.84 825.466,1146.12 827.519,1223.82 829.572,1368.03 831.625,1073.74 833.678,1190.56 835.73,1166.04 837.783,1180.23 839.836,1196.12 841.889,1152.7 843.942,1150.3 845.995,1200.58 848.048,1022.55 850.101,1166.72 852.154,1162.04 854.206,1188.55 856.259,1151.21 858.312,1197.08 860.365,1197.57 862.418,1283.02 864.471,1016.25 866.524,1030.94 868.577,1144.82 870.63,1088.56 872.682,1242.68 874.735,1157 876.788,1149.78 878.841,1286.75 880.894,1226.69 882.947,1155.6 885,1174.67 887.053,1157.25 889.106,1155.34 891.159,1247.29 893.211,1092.36 895.264,1203.34 897.317,1243.39 899.37,1053.02 901.423,1184.75 903.476,1177.63 905.529,1156.85 907.582,1201.41 909.635,1128.22 911.687,1102.6 913.74,1156.1 915.793,1155.88 917.846,1247.17 919.899,1147.77 921.952,822.178 924.005,1067.37 926.058,1131.67 928.111,1181.42 930.163,1138.7 932.216,1189.51 934.269,1172.36 936.322,1129.63 938.375,1188.67 940.428,1187.07 942.481,1151.39 944.534,1197.51 946.587,1158.34 948.639,1377.1 950.692,654.524 952.745,1381.57 954.798,1098.06 956.851,1181.38 958.904,1196.52 960.957,1128.68 963.01,1142.55 965.063,1078.06 967.116,1174.18 969.168,1131.11 971.221,1191.35 973.274,1178.06 975.327,1175.24 977.38,1210.69 979.433,1129.86 981.486,1166.73 983.539,1166.96 985.592,1259.21 987.644,1143.24 989.697,1118.07 991.75,1232.99 993.803,1201.66 995.856,1133.37 997.909,1199.07 999.962,1152.86 1002.01,1103.6 1004.07,1217.79 1006.12,1165.43 1008.17,1162.17 1010.23,1177.94 1012.28,1243.7 1014.33,1186.11 1016.38,1105.14 1018.44,1181.02 1020.49,1100.99 1022.54,1222.16 1024.6,1197.02 1026.65,1141.02 1028.7,1257.77 1030.76,1215.57 1032.81,1205.84 1034.86,1149.19 1036.91,1189.06 1038.97,770.891 1041.02,493.648 1043.07,1064.34 1045.13,1156.81 1047.18,1147.05 1049.23,1200.91 1051.28,1246.5 1053.34,1553.1 1055.39,1810 1057.44,1588.57 1059.5,1157.33 1061.55,1540.55 1063.6,1087.88 1065.65,861.314 1067.71,1276.37 1069.76,1371.64 1071.81,292.827 1073.87,1800.16 1075.92,3683.38 1077.97,-1433.55 1080.02,4529.65 1082.08,2719.71 1084.13,1708.52 1086.18,518.962 1088.24,816.694 1090.29,741.771 1092.34,1367.87 1094.39,1145.44 1096.45,1130.84 1098.5,1139.18 1100.55,1160.6 1102.61,1162.73 1104.66,1154.93 1106.71,1145.66 1108.77,1215.28 1110.82,1037.48 1112.87,1358.93 1114.92,1114.84 1116.98,1095.68 1119.03,1193.74 1121.08,1059.48 1123.14,1336.71 1125.19,999.662 1127.24,1013.86 1129.29,1142.86 1131.35,1130.56 1133.4,1056.71 1135.45,1190.36 1137.51,1163.49 1139.56,1151.2 1141.61,1145.28 1143.66,1178.33 1145.72,1120.35 1147.77,1152.79 1149.82,1180.1 1151.88,1181.18 1153.93,1133.8 1155.98,1180.03 1158.03,1143.25 1160.09,1151.4 1162.14,1182.01 1164.19,1094.01 1166.25,1103.55 1168.3,1171.41 1170.35,1158.51 1172.4,1173.12 1174.46,1153.42 1176.51,1142.01 1178.56,1194.25 1180.62,1141.51 1182.67,1206.4 1184.72,1133.25 1186.77,1148.85 1188.83,1176.9 1190.88,1142.29 1192.93,1185.69 1194.99,1072.69 1197.04,1209.59 1199.09,1184.47 1201.15,1156.57 1203.2,1298.34 1205.25,685.224 1207.3,1138.22 1209.36,1162.34 1211.41,1401.55 1213.46,862.943 1215.52,1116 1217.57,1128.52 1219.62,1112.98 1221.67,1291.53 1223.73,1103.93 1225.78,1153.98 1227.83,1156.23 1229.89,1102.26 1231.94,1144.7 1233.99,1182.73 1236.04,1207.84 1238.1,1172.76 1240.15,1160.85 1242.2,1195.38 1244.26,1137.83 1246.31,1150.74 1248.36,1221.37 1250.41,1204.46 1252.47,1154.52 1254.52,1157.63 1256.57,1142.37 1258.63,1034.48 1260.68,1073.42 1262.73,1131.98 1264.78,1197.74 1266.84,1130.29 1268.89,1188.03 1270.94,1192.28 1273,1240.97 1275.05,1202.93 1277.1,1178.54 1279.16,1170.69 1281.21,1160.7 1283.26,1174.77 1285.31,1147.49 1287.37,1134.04 1289.42,1164.89 1291.47,1094.68 1293.53,1239.57 1295.58,1247.16 1297.63,1209.41 1299.68,1213.18 1301.74,1134.64 1303.79,1161.14 1305.84,1151.59 1307.9,1179.28 1309.95,1146.08 1312,1140.79 1314.05,1165.9 1316.11,1163.19 1318.16,1101.75 1320.21,758.636 1322.27,352.491 1324.32,1100.79 1326.37,1226.28 1328.42,1143.97 1330.48,1168.23 1332.53,1258.73 1334.58,1090.76 1336.64,1145.72 1338.69,1133.88 1340.74,1146.28 1342.79,1166.1 1344.85,1159.79 1346.9,1212.43 1348.95,1124.4 1351.01,1162.55 1353.06,1170.91 1355.11,1192.06 1357.16,1214.55 1359.22,1184.96 1361.27,1194.15 1363.32,1224.62 1365.38,1575.82 1367.43,1479.8 1369.48,1471.47 1371.54,1159.76 1373.59,1062.39 1375.64,1056.47 1377.69,1224.97 1379.75,1217.54 1381.8,1235.52 1383.85,1151.22 1385.91,1191.49 1387.96,1199.72 1390.01,1178.53 1392.06,141.836 1394.12,654.015 1396.17,896.767 1398.22,2349.28 1400.28,1577.55 1402.33,648.968 1404.38,1319.23 1406.43,1161.31 1408.49,1168.52 1410.54,1167.01 1412.59,1145.44 1414.65,1176.06 1416.7,1171.34 1418.75,1164.86 1420.8,1024.03 1422.86,1205.39 1424.91,1066.53 1426.96,1183.83 1429.02,1179.27 1431.07,1041.66 1433.12,1285.51 1435.17,1178.22 1437.23,1174.26 1439.28,1209.02 1441.33,1185.55 1443.39,1220.08 1445.44,1140.6 1447.49,1142.41 1449.55,1150.79 1451.6,1211.13 1453.65,1209.12 1455.7,1020.98 1457.76,816.888 1459.81,3093 1461.86,520.995 1463.92,2286.05 1465.97,1557.68 1468.02,-2582.51 1470.07,469.212 1472.13,-175.911 1474.18,5086.77 1476.23,2110.22 1478.29,1356.86 1480.34,904.022 1482.39,1329.5 1484.44,1474.85 1486.5,1188.44 1488.55,1159.22 1490.6,1162.28 1492.66,1040.65 1494.71,1028.2 1496.76,1191.6 1498.81,1186.01 1500.87,1197.3 1502.92,1161.29 1504.97,1185.11 1507.03,1203.25 1509.08,1146.11 1511.13,1173.58 1513.18,1228.2 1515.24,1000.24 1517.29,1220.24 1519.34,1199.31 1521.4,1121.97 1523.45,1255.73 1525.5,1090.17 1527.55,1065.69 1529.61,1767.5 1531.66,1331.22 1533.71,1226.25 1535.77,1256.68 1537.82,1122.83 1539.87,1190.36 1541.93,1188.73 1543.98,1067.11 1546.03,1249.78 1548.08,1078.75 1550.14,1240.91 1552.19,1225.45 1554.24,1277.71 1556.3,1039.26 1558.35,1185.36 1560.4,1084.05 1562.45,1193.45 1564.51,977.587 1566.56,1115.97 1568.61,1107.65 1570.67,1201.88 1572.72,1189.38 1574.77,1167 1576.82,1200.12 1578.88,1152.59 1580.93,1186.16 1582.98,1169.67 1585.04,1159.94 1587.09,1236.01 1589.14,1215.96 1591.19,1183.36 1593.25,1147.31 1595.3,1128.15 1597.35,1126.48 1599.41,1141.57 1601.46,1183.78 1603.51,1093.29 1605.56,1187.9 1607.62,1167.66 1609.67,1149.15 1611.72,1180.89 1613.78,1274.36 1615.83,1058.6 1617.88,1049.08 1619.94,1235.33 1621.99,1259.77 1624.04,1082.74 1626.09,1018.86 1628.15,1213.17 1630.2,1128.4 1632.25,1132.18 1634.31,1173.56 1636.36,1166.14 1638.41,1143.34 1640.46,1124.43 1642.52,1170.65 1644.57,1165.38 1646.62,1186.29 1648.68,1066.41 1650.73,1136.49 1652.78,1009.75 1654.83,1251.15 1656.89,1383.7 1658.94,1136.59 1660.99,1251.59 1663.05,1146.42 1665.1,1139.17 1667.15,1256.34 1669.2,818.117 1671.26,897.701 1673.31,968.441 1675.36,1380.64 1677.42,1086.58 1679.47,1152.36 1681.52,1124.4 1683.57,1185.89 1685.63,1154.4 1687.68,1229.18 1689.73,1130.71 1691.79,1171.72 1693.84,1178.64 1695.89,1115.83 1697.94,1187.04 1700,1177.78 1702.05,1266.78 1704.1,1176.32 1706.16,1249.52 1708.21,1025.65 1710.26,1124.44 1712.32,1139.1 1714.37,1137.17 1716.42,1143.5 1718.47,1147.86 1720.53,1207.35 1722.58,1177.08 1724.63,1159.07 1726.69,1134.62 1728.74,1118.75 1730.79,1203.75 1732.84,1155.37 1734.9,1181.83 1736.95,2076.58 1739,2461.98 1741.06,1480.83 1743.11,990.524 1745.16,1114.54 1747.21,1172.22 1749.27,1175.21 1751.32,1159.34 1753.37,1173.32 1755.43,1171.39 1757.48,1172.56 1759.53,1188.82 1761.58,1128.34 1763.64,1188.58 1765.69,1146 1767.74,1193.17 1769.8,1189.01 1771.85,1142.07 1773.9,1148.54 1775.95,1130.31 1778.01,1172.36 1780.06,1226.89 1782.11,1134.41 1784.17,1129.48 1786.22,1145.23 1788.27,1274.81 1790.33,1067.76 1792.38,1017.36 1794.43,1051.47 1796.48,1209.01 1798.54,1207.94 1800.59,1148.49 1802.64,1201.36 1804.7,1038.7 1806.75,1575.04 1808.8,1210.02 1810.85,1204.91 1812.91,1401.69 1814.96,1050.16 1817.01,1096.09 1819.07,1187.72 1821.12,1171.72 1823.17,1192.75 1825.22,1071.42 1827.28,1192.05 1829.33,1180.16 1831.38,1182.92 1833.44,1176.2 1835.49,1182.7 1837.54,1178.64 1839.59,1199.17 1841.65,1146.43 1843.7,1216.29 1845.75,1220.43 1847.81,1171.44 1849.86,1181.71 1851.91,1150.08 1853.96,1169.1 1856.02,1175.33 1858.07,1154.35 1860.12,1196.97 1862.18,1186.44 1864.23,1190.66 1866.28,1254.94 1868.34,1126.34 1870.39,1164.39 1872.44,1157.52 1874.49,1177.34 1876.55,1157.83 1878.6,1184.54 1880.65,1178.66 1882.71,1184.84 1884.76,1123.11 1886.81,1114 1888.86,1264.12 1890.92,1203.36 1892.97,1205.79 1895.02,1225.57 1897.08,1237.41 1899.13,1101.93 1901.18,1157.07 1903.23,1165.99 1905.29,1152.13 1907.34,1154.47 1909.39,1165.06 1911.45,1221.63 1913.5,1233.98 1915.55,1087.48 1917.6,935.507 1919.66,1612.45 1921.71,1686.48 1923.76,865.169 1925.82,844.622 1927.87,1677.11 1929.92,526.476 1931.97,2606.84 1934.03,-730.727 1936.08,1086.08 1938.13,1169.18 1940.19,1168.01 1942.24,1173.84 1944.29,1171.42 1946.34,1152.87 1948.4,1186.91 1950.45,1154.23 1952.5,1176.54 1954.56,1247.49 1956.61,934.403 1958.66,1368.56 1960.72,1200.4 1962.77,1202.18 1964.82,1158.73 1966.87,1219.11 1968.93,1151.59 1970.98,1144.68 1973.03,1193.55 1975.09,1190.34 1977.14,1166.92 1979.19,1165.4 1981.24,1165.73 1983.3,1150.68 1985.35,1090.47 1987.4,1044.64 1989.46,1258.25 1991.51,1502.19 1993.56,1718.88 1995.61,996.523 1997.67,1169.89 1999.72,1736.7 2001.77,573.009 2003.83,1085.76 2005.88,1287.04 2007.93,1103.55 2009.98,1132.87 2012.04,1138.1 2014.09,1179.1 2016.14,1171.47 2018.2,1177.22 2020.25,1183.89 2022.3,1140.06 2024.35,1161.53 2026.41,1199.34 2028.46,1215.87 2030.51,1230.81 2032.57,1135.71 2034.62,953.777 2036.67,1364.94 2038.73,1006.89 2040.78,1108.2 2042.83,1227.18 2044.88,1237.54 2046.94,1358.05 2048.99,1320.84 2051.04,1240.76 2053.1,1193.34 2055.15,1162.4 2057.2,1171.46 2059.25,1205.98 2061.31,1136.74 2063.36,1182.91 2065.41,1168.08 2067.47,1169.86 2069.52,1160.95 2071.57,1169.41 2073.62,1186.23 2075.68,1156.03 2077.73,1027.16 2079.78,1480.45 2081.84,1219.21 2083.89,1228.74 2085.94,1053.51 2087.99,1214.16 2090.05,1158.49 2092.1,1143.98 2094.15,1146.56 2096.21,1143.12 2098.26,1143.74 2100.31,1147.75 2102.36,1197.52 2104.42,1176.83 2106.47,1165.75 2108.52,1124.41 2110.58,1106.7 2112.63,1146.86 2114.68,1226.03 2116.73,1152.21 2118.79,1138.76 2120.84,1149.21 2122.89,1192.96 2124.95,1206.58 2127,1152.75 2129.05,1138.43 2131.11,2040.51 2133.16,691.28 2135.21,2393.39 2137.26,-583.571 2139.32,-1783.08 2141.37,1216.69 2143.42,1150.36 2145.48,1153.35 2147.53,1182.11 2149.58,1260.33 2151.63,1293.83 2153.69,1144.76 2155.74,1199.52 2157.79,1196.52 2159.85,1177.01 2161.9,1156.13 2163.95,1158.99 2166,1140.91 2168.06,1121.14 2170.11,1289.77 2172.16,1202.86 2174.22,1151.44 2176.27,1175.56 2178.32,1174.14 2180.37,1208.8 2182.43,1148.79 2184.48,1149.65 2186.53,1192.9 2188.59,1167.48 2190.64,1155.67 2192.69,1166.87 2194.74,1159.12 2196.8,1192.19 2198.85,1213.55 2200.9,1168.82 2202.96,1184.34 2205.01,1186.57 2207.06,1158.93 2209.12,1202.98 2211.17,1160.85 2213.22,1171.86 2215.27,1219.61 2217.33,1156.75 2219.38,1127.53 2221.43,1125.12 2223.49,1262.71 2225.54,1286.01 2227.59,1162.28 2229.64,1131.13 2231.7,1181.58 2233.75,1183.08 2235.8,1155.64 2237.86,1145.4 2239.91,1135.06 2241.96,1194.61 2244.01,1156.56 2246.07,1166.89 2248.12,1166.17 2250.17,1206.13 2252.23,1164.95 2254.28,1173.46 2256.33,1159.46 2258.38,1182.67 2260.44,1195.45 2262.49,1140.88 2264.54,1148.71 2266.6,1127.85 2268.65,1205.39 2270.7,1084.72 2272.75,1124.23 2274.81,1200.6 2276.86,1194.79 2278.91,1192.96 2280.97,1204.04 2283.02,1161.61 2285.07,1135.67 2287.12,1170.86 2289.18,1107.91 2291.23,1160.53 "/>
<path clip-path="url(#clip430)" d="M1942.7 972.231 L2280.29 972.231 L2280.29 868.551 L1942.7 868.551  Z" fill="#ffffff" fill-rule="evenodd" fill-opacity="1"/>
<polyline clip-path="url(#clip430)" style="stroke:#000000; stroke-linecap:round; stroke-linejoin:round; stroke-width:4; stroke-opacity:1; fill:none" points="1942.7,972.231 2280.29,972.231 2280.29,868.551 1942.7,868.551 1942.7,972.231 "/>
<polyline clip-path="url(#clip430)" style="stroke:#009af9; stroke-linecap:round; stroke-linejoin:round; stroke-width:4; stroke-opacity:1; fill:none" points="1966.85,920.391 2111.78,920.391 "/>
<path clip-path="url(#clip430)" d="M2161.49 932.74 L2161.49 923.458 L2153.85 923.458 L2153.85 919.615 L2166.12 919.615 L2166.12 934.453 Q2163.41 936.375 2160.14 937.37 Q2156.88 938.342 2153.18 938.342 Q2145.07 938.342 2140.49 933.62 Q2135.93 928.875 2135.93 920.426 Q2135.93 911.953 2140.49 907.231 Q2145.07 902.486 2153.18 902.486 Q2156.56 902.486 2159.59 903.319 Q2162.64 904.153 2165.21 905.773 L2165.21 910.75 Q2162.62 908.551 2159.7 907.44 Q2156.79 906.328 2153.57 906.328 Q2147.23 906.328 2144.03 909.87 Q2140.86 913.412 2140.86 920.426 Q2140.86 927.416 2144.03 930.958 Q2147.23 934.5 2153.57 934.5 Q2156.05 934.5 2157.99 934.083 Q2159.94 933.643 2161.49 932.74 Z" fill="#000000" fill-rule="nonzero" fill-opacity="1" /><path clip-path="url(#clip430)" d="M2179.33 906.953 L2179.33 919.94 L2185.21 919.94 Q2188.48 919.94 2190.26 918.25 Q2192.04 916.56 2192.04 913.435 Q2192.04 910.333 2190.26 908.643 Q2188.48 906.953 2185.21 906.953 L2179.33 906.953 M2174.66 903.111 L2185.21 903.111 Q2191.02 903.111 2193.99 905.75 Q2196.97 908.365 2196.97 913.435 Q2196.97 918.551 2193.99 921.166 Q2191.02 923.782 2185.21 923.782 L2179.33 923.782 L2179.33 937.671 L2174.66 937.671 L2174.66 903.111 Z" fill="#000000" fill-rule="nonzero" fill-opacity="1" /><path clip-path="url(#clip430)" d="M2223.96 904.245 L2223.96 908.805 Q2221.3 907.532 2218.94 906.907 Q2216.58 906.282 2214.38 906.282 Q2210.56 906.282 2208.48 907.764 Q2206.42 909.245 2206.42 911.977 Q2206.42 914.268 2207.78 915.449 Q2209.17 916.606 2213.01 917.324 L2215.84 917.902 Q2221.07 918.898 2223.55 921.421 Q2226.05 923.921 2226.05 928.134 Q2226.05 933.157 2222.67 935.75 Q2219.31 938.342 2212.81 938.342 Q2210.35 938.342 2207.57 937.787 Q2204.82 937.231 2201.86 936.143 L2201.86 931.328 Q2204.7 932.926 2207.44 933.736 Q2210.17 934.546 2212.81 934.546 Q2216.81 934.546 2218.99 932.972 Q2221.16 931.398 2221.16 928.481 Q2221.16 925.935 2219.59 924.5 Q2218.04 923.064 2214.47 922.347 L2211.62 921.791 Q2206.39 920.75 2204.06 918.527 Q2201.72 916.305 2201.72 912.347 Q2201.72 907.764 2204.94 905.125 Q2208.18 902.486 2213.85 902.486 Q2216.28 902.486 2218.8 902.926 Q2221.32 903.366 2223.96 904.245 Z" fill="#000000" fill-rule="nonzero" fill-opacity="1" /><path clip-path="url(#clip430)" d="M2254.06 904.245 L2254.06 908.805 Q2251.39 907.532 2249.03 906.907 Q2246.67 906.282 2244.47 906.282 Q2240.65 906.282 2238.57 907.764 Q2236.51 909.245 2236.51 911.977 Q2236.51 914.268 2237.87 915.449 Q2239.26 916.606 2243.11 917.324 L2245.93 917.902 Q2251.16 918.898 2253.64 921.421 Q2256.14 923.921 2256.14 928.134 Q2256.14 933.157 2252.76 935.75 Q2249.4 938.342 2242.9 938.342 Q2240.44 938.342 2237.67 937.787 Q2234.91 937.231 2231.95 936.143 L2231.95 931.328 Q2234.8 932.926 2237.53 933.736 Q2240.26 934.546 2242.9 934.546 Q2246.9 934.546 2249.08 932.972 Q2251.25 931.398 2251.25 928.481 Q2251.25 925.935 2249.68 924.5 Q2248.13 923.064 2244.56 922.347 L2241.72 921.791 Q2236.49 920.75 2234.15 918.527 Q2231.81 916.305 2231.81 912.347 Q2231.81 907.764 2235.03 905.125 Q2238.27 902.486 2243.94 902.486 Q2246.37 902.486 2248.89 902.926 Q2251.42 903.366 2254.06 904.245 Z" fill="#000000" fill-rule="nonzero" fill-opacity="1" /></svg>
