<?xml version="1.0" encoding="utf-8"?>
<svg xmlns="http://www.w3.org/2000/svg" xmlns:xlink="http://www.w3.org/1999/xlink" width="600" height="400" viewBox="0 0 2400 1600">
<defs>
  <clipPath id="clip780">
    <rect x="0" y="0" width="2400" height="1600"/>
  </clipPath>
</defs>
<path clip-path="url(#clip780)" d="M0 1600 L2400 1600 L2400 0 L0 0  Z" fill="#ffffff" fill-rule="evenodd" fill-opacity="1"/>
<defs>
  <clipPath id="clip781">
    <rect x="480" y="0" width="1681" height="1600"/>
  </clipPath>
</defs>
<path clip-path="url(#clip780)" d="M178.867 686.448 L2352.76 686.448 L2352.76 47.2441 L178.867 47.2441  Z" fill="#ffffff" fill-rule="evenodd" fill-opacity="1"/>
<defs>
  <clipPath id="clip782">
    <rect x="178" y="47" width="2175" height="640"/>
  </clipPath>
</defs>
<polyline clip-path="url(#clip782)" style="stroke:#000000; stroke-linecap:round; stroke-linejoin:round; stroke-width:2; stroke-opacity:0.1; fill:none" points="238.339,686.448 238.339,47.2441 "/>
<polyline clip-path="url(#clip782)" style="stroke:#000000; stroke-linecap:round; stroke-linejoin:round; stroke-width:2; stroke-opacity:0.1; fill:none" points="751.562,686.448 751.562,47.2441 "/>
<polyline clip-path="url(#clip782)" style="stroke:#000000; stroke-linecap:round; stroke-linejoin:round; stroke-width:2; stroke-opacity:0.1; fill:none" points="1264.78,686.448 1264.78,47.2441 "/>
<polyline clip-path="url(#clip782)" style="stroke:#000000; stroke-linecap:round; stroke-linejoin:round; stroke-width:2; stroke-opacity:0.1; fill:none" points="1778.01,686.448 1778.01,47.2441 "/>
<polyline clip-path="url(#clip782)" style="stroke:#000000; stroke-linecap:round; stroke-linejoin:round; stroke-width:2; stroke-opacity:0.1; fill:none" points="2291.23,686.448 2291.23,47.2441 "/>
<polyline clip-path="url(#clip782)" style="stroke:#000000; stroke-linecap:round; stroke-linejoin:round; stroke-width:2; stroke-opacity:0.1; fill:none" points="178.867,686.448 2352.76,686.448 "/>
<polyline clip-path="url(#clip782)" style="stroke:#000000; stroke-linecap:round; stroke-linejoin:round; stroke-width:2; stroke-opacity:0.1; fill:none" points="178.867,526.647 2352.76,526.647 "/>
<polyline clip-path="url(#clip782)" style="stroke:#000000; stroke-linecap:round; stroke-linejoin:round; stroke-width:2; stroke-opacity:0.1; fill:none" points="178.867,366.846 2352.76,366.846 "/>
<polyline clip-path="url(#clip782)" style="stroke:#000000; stroke-linecap:round; stroke-linejoin:round; stroke-width:2; stroke-opacity:0.1; fill:none" points="178.867,207.045 2352.76,207.045 "/>
<polyline clip-path="url(#clip782)" style="stroke:#000000; stroke-linecap:round; stroke-linejoin:round; stroke-width:2; stroke-opacity:0.1; fill:none" points="178.867,47.2441 2352.76,47.2441 "/>
<polyline clip-path="url(#clip780)" style="stroke:#000000; stroke-linecap:round; stroke-linejoin:round; stroke-width:4; stroke-opacity:1; fill:none" points="178.867,686.448 2352.76,686.448 "/>
<polyline clip-path="url(#clip780)" style="stroke:#000000; stroke-linecap:round; stroke-linejoin:round; stroke-width:4; stroke-opacity:1; fill:none" points="238.339,686.448 238.339,667.55 "/>
<polyline clip-path="url(#clip780)" style="stroke:#000000; stroke-linecap:round; stroke-linejoin:round; stroke-width:4; stroke-opacity:1; fill:none" points="751.562,686.448 751.562,667.55 "/>
<polyline clip-path="url(#clip780)" style="stroke:#000000; stroke-linecap:round; stroke-linejoin:round; stroke-width:4; stroke-opacity:1; fill:none" points="1264.78,686.448 1264.78,667.55 "/>
<polyline clip-path="url(#clip780)" style="stroke:#000000; stroke-linecap:round; stroke-linejoin:round; stroke-width:4; stroke-opacity:1; fill:none" points="1778.01,686.448 1778.01,667.55 "/>
<polyline clip-path="url(#clip780)" style="stroke:#000000; stroke-linecap:round; stroke-linejoin:round; stroke-width:4; stroke-opacity:1; fill:none" points="2291.23,686.448 2291.23,667.55 "/>
<path clip-path="url(#clip780)" d="M238.339 717.367 Q234.728 717.367 232.899 720.931 Q231.094 724.473 231.094 731.603 Q231.094 738.709 232.899 742.274 Q234.728 745.815 238.339 745.815 Q241.973 745.815 243.779 742.274 Q245.607 738.709 245.607 731.603 Q245.607 724.473 243.779 720.931 Q241.973 717.367 238.339 717.367 M238.339 713.663 Q244.149 713.663 247.205 718.269 Q250.283 722.853 250.283 731.603 Q250.283 740.329 247.205 744.936 Q244.149 749.519 238.339 749.519 Q232.529 749.519 229.45 744.936 Q226.395 740.329 226.395 731.603 Q226.395 722.853 229.45 718.269 Q232.529 713.663 238.339 713.663 Z" fill="#000000" fill-rule="nonzero" fill-opacity="1" /><path clip-path="url(#clip780)" d="M715.254 744.913 L731.574 744.913 L731.574 748.848 L709.629 748.848 L709.629 744.913 Q712.291 742.158 716.875 737.528 Q721.481 732.876 722.662 731.533 Q724.907 729.01 725.787 727.274 Q726.689 725.515 726.689 723.825 Q726.689 721.07 724.745 719.334 Q722.824 717.598 719.722 717.598 Q717.523 717.598 715.069 718.362 Q712.638 719.126 709.861 720.677 L709.861 715.955 Q712.685 714.82 715.138 714.242 Q717.592 713.663 719.629 713.663 Q725 713.663 728.194 716.348 Q731.388 719.033 731.388 723.524 Q731.388 725.654 730.578 727.575 Q729.791 729.473 727.685 732.066 Q727.106 732.737 724.004 735.954 Q720.902 739.149 715.254 744.913 Z" fill="#000000" fill-rule="nonzero" fill-opacity="1" /><path clip-path="url(#clip780)" d="M741.435 714.288 L759.791 714.288 L759.791 718.223 L745.717 718.223 L745.717 726.695 Q746.736 726.348 747.754 726.186 Q748.773 726.001 749.791 726.001 Q755.578 726.001 758.958 729.172 Q762.337 732.343 762.337 737.76 Q762.337 743.339 758.865 746.44 Q755.393 749.519 749.073 749.519 Q746.898 749.519 744.629 749.149 Q742.384 748.778 739.976 748.038 L739.976 743.339 Q742.06 744.473 744.282 745.028 Q746.504 745.584 748.981 745.584 Q752.985 745.584 755.323 743.478 Q757.661 741.371 757.661 737.76 Q757.661 734.149 755.323 732.042 Q752.985 729.936 748.981 729.936 Q747.106 729.936 745.231 730.353 Q743.379 730.769 741.435 731.649 L741.435 714.288 Z" fill="#000000" fill-rule="nonzero" fill-opacity="1" /><path clip-path="url(#clip780)" d="M781.55 717.367 Q777.939 717.367 776.11 720.931 Q774.305 724.473 774.305 731.603 Q774.305 738.709 776.11 742.274 Q777.939 745.815 781.55 745.815 Q785.184 745.815 786.99 742.274 Q788.819 738.709 788.819 731.603 Q788.819 724.473 786.99 720.931 Q785.184 717.367 781.55 717.367 M781.55 713.663 Q787.36 713.663 790.416 718.269 Q793.495 722.853 793.495 731.603 Q793.495 740.329 790.416 744.936 Q787.36 749.519 781.55 749.519 Q775.74 749.519 772.661 744.936 Q769.606 740.329 769.606 731.603 Q769.606 722.853 772.661 718.269 Q775.74 713.663 781.55 713.663 Z" fill="#000000" fill-rule="nonzero" fill-opacity="1" /><path clip-path="url(#clip780)" d="M1224.4 714.288 L1242.76 714.288 L1242.76 718.223 L1228.69 718.223 L1228.69 726.695 Q1229.7 726.348 1230.72 726.186 Q1231.74 726.001 1232.76 726.001 Q1238.55 726.001 1241.93 729.172 Q1245.31 732.343 1245.31 737.76 Q1245.31 743.339 1241.83 746.44 Q1238.36 749.519 1232.04 749.519 Q1229.87 749.519 1227.6 749.149 Q1225.35 748.778 1222.94 748.038 L1222.94 743.339 Q1225.03 744.473 1227.25 745.028 Q1229.47 745.584 1231.95 745.584 Q1235.95 745.584 1238.29 743.478 Q1240.63 741.371 1240.63 737.76 Q1240.63 734.149 1238.29 732.042 Q1235.95 729.936 1231.95 729.936 Q1230.07 729.936 1228.2 730.353 Q1226.35 730.769 1224.4 731.649 L1224.4 714.288 Z" fill="#000000" fill-rule="nonzero" fill-opacity="1" /><path clip-path="url(#clip780)" d="M1264.52 717.367 Q1260.91 717.367 1259.08 720.931 Q1257.27 724.473 1257.27 731.603 Q1257.27 738.709 1259.08 742.274 Q1260.91 745.815 1264.52 745.815 Q1268.15 745.815 1269.96 742.274 Q1271.79 738.709 1271.79 731.603 Q1271.79 724.473 1269.96 720.931 Q1268.15 717.367 1264.52 717.367 M1264.52 713.663 Q1270.33 713.663 1273.38 718.269 Q1276.46 722.853 1276.46 731.603 Q1276.46 740.329 1273.38 744.936 Q1270.33 749.519 1264.52 749.519 Q1258.71 749.519 1255.63 744.936 Q1252.57 740.329 1252.57 731.603 Q1252.57 722.853 1255.63 718.269 Q1258.71 713.663 1264.52 713.663 Z" fill="#000000" fill-rule="nonzero" fill-opacity="1" /><path clip-path="url(#clip780)" d="M1294.68 717.367 Q1291.07 717.367 1289.24 720.931 Q1287.44 724.473 1287.44 731.603 Q1287.44 738.709 1289.24 742.274 Q1291.07 745.815 1294.68 745.815 Q1298.31 745.815 1300.12 742.274 Q1301.95 738.709 1301.95 731.603 Q1301.95 724.473 1300.12 720.931 Q1298.31 717.367 1294.68 717.367 M1294.68 713.663 Q1300.49 713.663 1303.55 718.269 Q1306.62 722.853 1306.62 731.603 Q1306.62 740.329 1303.55 744.936 Q1300.49 749.519 1294.68 749.519 Q1288.87 749.519 1285.79 744.936 Q1282.74 740.329 1282.74 731.603 Q1282.74 722.853 1285.79 718.269 Q1288.87 713.663 1294.68 713.663 Z" fill="#000000" fill-rule="nonzero" fill-opacity="1" /><path clip-path="url(#clip780)" d="M1736.28 714.288 L1758.51 714.288 L1758.51 716.279 L1745.96 748.848 L1741.08 748.848 L1752.88 718.223 L1736.28 718.223 L1736.28 714.288 Z" fill="#000000" fill-rule="nonzero" fill-opacity="1" /><path clip-path="url(#clip780)" d="M1767.67 714.288 L1786.03 714.288 L1786.03 718.223 L1771.95 718.223 L1771.95 726.695 Q1772.97 726.348 1773.99 726.186 Q1775.01 726.001 1776.03 726.001 Q1781.82 726.001 1785.2 729.172 Q1788.57 732.343 1788.57 737.76 Q1788.57 743.339 1785.1 746.44 Q1781.63 749.519 1775.31 749.519 Q1773.14 749.519 1770.87 749.149 Q1768.62 748.778 1766.21 748.038 L1766.21 743.339 Q1768.3 744.473 1770.52 745.028 Q1772.74 745.584 1775.22 745.584 Q1779.22 745.584 1781.56 743.478 Q1783.9 741.371 1783.9 737.76 Q1783.9 734.149 1781.56 732.042 Q1779.22 729.936 1775.22 729.936 Q1773.34 729.936 1771.47 730.353 Q1769.62 730.769 1767.67 731.649 L1767.67 714.288 Z" fill="#000000" fill-rule="nonzero" fill-opacity="1" /><path clip-path="url(#clip780)" d="M1807.79 717.367 Q1804.18 717.367 1802.35 720.931 Q1800.54 724.473 1800.54 731.603 Q1800.54 738.709 1802.35 742.274 Q1804.18 745.815 1807.79 745.815 Q1811.42 745.815 1813.23 742.274 Q1815.06 738.709 1815.06 731.603 Q1815.06 724.473 1813.23 720.931 Q1811.42 717.367 1807.79 717.367 M1807.79 713.663 Q1813.6 713.663 1816.65 718.269 Q1819.73 722.853 1819.73 731.603 Q1819.73 740.329 1816.65 744.936 Q1813.6 749.519 1807.79 749.519 Q1801.98 749.519 1798.9 744.936 Q1795.84 740.329 1795.84 731.603 Q1795.84 722.853 1798.9 718.269 Q1801.98 713.663 1807.79 713.663 Z" fill="#000000" fill-rule="nonzero" fill-opacity="1" /><path clip-path="url(#clip780)" d="M2235.76 744.913 L2243.4 744.913 L2243.4 718.547 L2235.09 720.214 L2235.09 715.955 L2243.35 714.288 L2248.02 714.288 L2248.02 744.913 L2255.66 744.913 L2255.66 748.848 L2235.76 748.848 L2235.76 744.913 Z" fill="#000000" fill-rule="nonzero" fill-opacity="1" /><path clip-path="url(#clip780)" d="M2275.11 717.367 Q2271.5 717.367 2269.67 720.931 Q2267.86 724.473 2267.86 731.603 Q2267.86 738.709 2269.67 742.274 Q2271.5 745.815 2275.11 745.815 Q2278.74 745.815 2280.55 742.274 Q2282.38 738.709 2282.38 731.603 Q2282.38 724.473 2280.55 720.931 Q2278.74 717.367 2275.11 717.367 M2275.11 713.663 Q2280.92 713.663 2283.97 718.269 Q2287.05 722.853 2287.05 731.603 Q2287.05 740.329 2283.97 744.936 Q2280.92 749.519 2275.11 749.519 Q2269.3 749.519 2266.22 744.936 Q2263.16 740.329 2263.16 731.603 Q2263.16 722.853 2266.22 718.269 Q2269.3 713.663 2275.11 713.663 Z" fill="#000000" fill-rule="nonzero" fill-opacity="1" /><path clip-path="url(#clip780)" d="M2305.27 717.367 Q2301.66 717.367 2299.83 720.931 Q2298.02 724.473 2298.02 731.603 Q2298.02 738.709 2299.83 742.274 Q2301.66 745.815 2305.27 745.815 Q2308.9 745.815 2310.71 742.274 Q2312.54 738.709 2312.54 731.603 Q2312.54 724.473 2310.71 720.931 Q2308.9 717.367 2305.27 717.367 M2305.27 713.663 Q2311.08 713.663 2314.14 718.269 Q2317.21 722.853 2317.21 731.603 Q2317.21 740.329 2314.14 744.936 Q2311.08 749.519 2305.27 749.519 Q2299.46 749.519 2296.38 744.936 Q2293.33 740.329 2293.33 731.603 Q2293.33 722.853 2296.38 718.269 Q2299.46 713.663 2305.27 713.663 Z" fill="#000000" fill-rule="nonzero" fill-opacity="1" /><path clip-path="url(#clip780)" d="M2335.43 717.367 Q2331.82 717.367 2329.99 720.931 Q2328.19 724.473 2328.19 731.603 Q2328.19 738.709 2329.99 742.274 Q2331.82 745.815 2335.43 745.815 Q2339.07 745.815 2340.87 742.274 Q2342.7 738.709 2342.7 731.603 Q2342.7 724.473 2340.87 720.931 Q2339.07 717.367 2335.43 717.367 M2335.43 713.663 Q2341.24 713.663 2344.3 718.269 Q2347.38 722.853 2347.38 731.603 Q2347.38 740.329 2344.3 744.936 Q2341.24 749.519 2335.43 749.519 Q2329.62 749.519 2326.54 744.936 Q2323.49 740.329 2323.49 731.603 Q2323.49 722.853 2326.54 718.269 Q2329.62 713.663 2335.43 713.663 Z" fill="#000000" fill-rule="nonzero" fill-opacity="1" /><polyline clip-path="url(#clip780)" style="stroke:#000000; stroke-linecap:round; stroke-linejoin:round; stroke-width:4; stroke-opacity:1; fill:none" points="178.867,686.448 178.867,47.2441 "/>
<polyline clip-path="url(#clip780)" style="stroke:#000000; stroke-linecap:round; stroke-linejoin:round; stroke-width:4; stroke-opacity:1; fill:none" points="178.867,686.448 197.764,686.448 "/>
<polyline clip-path="url(#clip780)" style="stroke:#000000; stroke-linecap:round; stroke-linejoin:round; stroke-width:4; stroke-opacity:1; fill:none" points="178.867,526.647 197.764,526.647 "/>
<polyline clip-path="url(#clip780)" style="stroke:#000000; stroke-linecap:round; stroke-linejoin:round; stroke-width:4; stroke-opacity:1; fill:none" points="178.867,366.846 197.764,366.846 "/>
<polyline clip-path="url(#clip780)" style="stroke:#000000; stroke-linecap:round; stroke-linejoin:round; stroke-width:4; stroke-opacity:1; fill:none" points="178.867,207.045 197.764,207.045 "/>
<polyline clip-path="url(#clip780)" style="stroke:#000000; stroke-linecap:round; stroke-linejoin:round; stroke-width:4; stroke-opacity:1; fill:none" points="178.867,47.2441 197.764,47.2441 "/>
<path clip-path="url(#clip780)" d="M50.9921 686.899 L80.6679 686.899 L80.6679 690.834 L50.9921 690.834 L50.9921 686.899 Z" fill="#000000" fill-rule="nonzero" fill-opacity="1" /><path clip-path="url(#clip780)" d="M91.5706 699.793 L99.2095 699.793 L99.2095 673.427 L90.8993 675.094 L90.8993 670.835 L99.1632 669.168 L103.839 669.168 L103.839 699.793 L111.478 699.793 L111.478 703.728 L91.5706 703.728 L91.5706 699.793 Z" fill="#000000" fill-rule="nonzero" fill-opacity="1" /><path clip-path="url(#clip780)" d="M130.922 672.247 Q127.311 672.247 125.482 675.811 Q123.677 679.353 123.677 686.483 Q123.677 693.589 125.482 697.154 Q127.311 700.695 130.922 700.695 Q134.556 700.695 136.362 697.154 Q138.191 693.589 138.191 686.483 Q138.191 679.353 136.362 675.811 Q134.556 672.247 130.922 672.247 M130.922 668.543 Q136.732 668.543 139.788 673.149 Q142.867 677.733 142.867 686.483 Q142.867 695.209 139.788 699.816 Q136.732 704.399 130.922 704.399 Q125.112 704.399 122.033 699.816 Q118.978 695.209 118.978 686.483 Q118.978 677.733 122.033 673.149 Q125.112 668.543 130.922 668.543 Z" fill="#000000" fill-rule="nonzero" fill-opacity="1" /><path clip-path="url(#clip780)" d="M82.1494 527.098 L111.825 527.098 L111.825 531.033 L82.1494 531.033 L82.1494 527.098 Z" fill="#000000" fill-rule="nonzero" fill-opacity="1" /><path clip-path="url(#clip780)" d="M121.964 509.367 L140.32 509.367 L140.32 513.302 L126.246 513.302 L126.246 521.774 Q127.265 521.427 128.283 521.265 Q129.302 521.08 130.32 521.08 Q136.107 521.08 139.487 524.251 Q142.867 527.422 142.867 532.839 Q142.867 538.418 139.394 541.52 Q135.922 544.598 129.603 544.598 Q127.427 544.598 125.158 544.228 Q122.913 543.857 120.506 543.117 L120.506 538.418 Q122.589 539.552 124.811 540.108 Q127.033 540.663 129.51 540.663 Q133.515 540.663 135.853 538.557 Q138.191 536.45 138.191 532.839 Q138.191 529.228 135.853 527.121 Q133.515 525.015 129.51 525.015 Q127.635 525.015 125.76 525.432 Q123.908 525.848 121.964 526.728 L121.964 509.367 Z" fill="#000000" fill-rule="nonzero" fill-opacity="1" /><path clip-path="url(#clip780)" d="M130.922 352.645 Q127.311 352.645 125.482 356.209 Q123.677 359.751 123.677 366.881 Q123.677 373.987 125.482 377.552 Q127.311 381.094 130.922 381.094 Q134.556 381.094 136.362 377.552 Q138.191 373.987 138.191 366.881 Q138.191 359.751 136.362 356.209 Q134.556 352.645 130.922 352.645 M130.922 348.941 Q136.732 348.941 139.788 353.547 Q142.867 358.131 142.867 366.881 Q142.867 375.608 139.788 380.214 Q136.732 384.797 130.922 384.797 Q125.112 384.797 122.033 380.214 Q118.978 375.608 118.978 366.881 Q118.978 358.131 122.033 353.547 Q125.112 348.941 130.922 348.941 Z" fill="#000000" fill-rule="nonzero" fill-opacity="1" /><path clip-path="url(#clip780)" d="M121.964 189.765 L140.32 189.765 L140.32 193.7 L126.246 193.7 L126.246 202.172 Q127.265 201.825 128.283 201.663 Q129.302 201.478 130.32 201.478 Q136.107 201.478 139.487 204.649 Q142.867 207.82 142.867 213.237 Q142.867 218.816 139.394 221.918 Q135.922 224.996 129.603 224.996 Q127.427 224.996 125.158 224.626 Q122.913 224.256 120.506 223.515 L120.506 218.816 Q122.589 219.95 124.811 220.506 Q127.033 221.061 129.51 221.061 Q133.515 221.061 135.853 218.955 Q138.191 216.848 138.191 213.237 Q138.191 209.626 135.853 207.52 Q133.515 205.413 129.51 205.413 Q127.635 205.413 125.76 205.83 Q123.908 206.246 121.964 207.126 L121.964 189.765 Z" fill="#000000" fill-rule="nonzero" fill-opacity="1" /><path clip-path="url(#clip780)" d="M91.5706 60.5889 L99.2095 60.5889 L99.2095 34.2233 L90.8993 35.89 L90.8993 31.6308 L99.1632 29.9641 L103.839 29.9641 L103.839 60.5889 L111.478 60.5889 L111.478 64.5241 L91.5706 64.5241 L91.5706 60.5889 Z" fill="#000000" fill-rule="nonzero" fill-opacity="1" /><path clip-path="url(#clip780)" d="M130.922 33.0428 Q127.311 33.0428 125.482 36.6076 Q123.677 40.1492 123.677 47.2788 Q123.677 54.3853 125.482 57.9501 Q127.311 61.4917 130.922 61.4917 Q134.556 61.4917 136.362 57.9501 Q138.191 54.3853 138.191 47.2788 Q138.191 40.1492 136.362 36.6076 Q134.556 33.0428 130.922 33.0428 M130.922 29.3391 Q136.732 29.3391 139.788 33.9456 Q142.867 38.5289 142.867 47.2788 Q142.867 56.0056 139.788 60.6121 Q136.732 65.1954 130.922 65.1954 Q125.112 65.1954 122.033 60.6121 Q118.978 56.0056 118.978 47.2788 Q118.978 38.5289 122.033 33.9456 Q125.112 29.3391 130.922 29.3391 Z" fill="#000000" fill-rule="nonzero" fill-opacity="1" /><polyline clip-path="url(#clip782)" style="stroke:#009af9; stroke-linecap:round; stroke-linejoin:round; stroke-width:4; stroke-opacity:1; fill:none" points="240.392,334.886 242.445,334.096 244.498,364.738 246.55,361.917 248.603,348.533 250.656,337.73 252.709,333.304 254.762,334.361 256.815,333.929 258.868,343.596 260.921,341.241 262.974,337.29 265.027,335.234 267.079,339.411 269.132,337.018 271.185,336.094 273.238,335.74 275.291,352.316 277.344,403.476 279.397,421.309 281.45,423.103 283.503,421.754 285.555,424.974 287.608,431.374 289.661,430.268 291.714,379.727 293.767,370.949 295.82,340.487 297.873,331.837 299.926,391.937 301.979,310.171 304.031,310.788 306.084,311.507 308.137,311.479 310.19,297.922 312.243,299.463 314.296,299.353 316.349,299.153 318.402,303.398 320.455,307.669 322.507,310.784 324.56,310.308 326.613,310.336 328.666,309.944 330.719,309.948 332.772,315.822 334.825,317.175 336.878,316.732 338.931,316.394 340.984,316.019 343.036,318.079 345.089,317.95 347.142,309.129 349.195,309.65 351.248,288.868 353.301,300.335 355.354,361.962 357.407,381.041 359.46,411.214 361.512,378.146 363.565,378.742 365.618,378.682 367.671,387.955 369.724,397.039 371.777,409.826 373.83,398.157 375.883,400.195 377.936,400.2 379.988,400.416 382.041,397.681 384.094,298.669 386.147,308.561 388.2,308.515 390.253,345.796 392.306,343.672 394.359,346.156 396.412,352.382 398.464,349.555 400.517,351.505 402.57,351.726 404.623,352.169 406.676,365.651 408.729,329.084 410.782,339.555 412.835,339.776 414.888,279.557 416.94,294.399 418.993,340.159 421.046,335.978 423.099,329.249 425.152,329.377 427.205,352.273 429.258,357.019 431.311,352.623 433.364,356.511 435.417,336.486 437.469,361.642 439.522,367.819 441.575,370.207 443.628,391.237 445.681,390.839 447.734,288.762 449.787,363.194 451.84,387.411 453.893,386.663 455.945,376.972 457.998,369.139 460.051,355.582 462.104,355.906 464.157,306.711 466.21,332.498 468.263,356.129 470.316,329.537 472.369,357.132 474.421,359.477 476.474,358.403 478.527,358.597 480.58,358.163 482.633,365.383 484.686,393.993 486.739,412.877 488.792,411.011 490.845,482.728 492.897,482.415 494.95,394.702 497.003,398.256 499.056,415.011 501.109,426.219 503.162,428.118 505.215,407.062 507.268,406.919 509.321,408.631 511.374,408.626 513.426,425.939 515.479,380.375 517.532,380.368 519.585,378.472 521.638,384.979 523.691,383.726 525.744,382.525 527.797,364.918 529.85,364.658 531.902,355.821 533.955,333.146 536.008,344.597 538.061,341.572 540.114,341.223 542.167,308.417 544.22,306.29 546.273,298.384 548.326,310.443 550.378,313.228 552.431,315.784 554.484,338.364 556.537,345.698 558.59,344.192 560.643,309.93 562.696,310.662 564.749,280.182 566.802,275.241 568.854,279.414 570.907,281.844 572.96,316.354 575.013,316.334 577.066,303.306 579.119,343.734 581.172,335.07 583.225,334.811 585.278,336.698 587.331,337.553 589.383,331.572 591.436,331.42 593.489,331.429 595.542,404.168 597.595,406.74 599.648,402.688 601.701,398.679 603.754,398.082 605.807,375.944 607.859,362.086 609.912,356.144 611.965,346.436 614.018,343.224 616.071,340.548 618.124,340.111 620.177,325.411 622.23,323.531 624.283,331.417 626.335,337.219 628.388,342.021 630.441,344.58 632.494,347.203 634.547,347.193 636.6,346.831 638.653,346.129 640.706,346.485 642.759,349.876 644.811,350.318 646.864,350.332 648.917,350.653 650.97,352.546 653.023,289.38 655.076,312.812 657.129,312.484 659.182,330.11 661.235,281.611 663.288,286.685 665.34,304.114 667.393,314.873 669.446,317.886 671.499,384.428 673.552,379.28 675.605,385.772 677.658,386.204 679.711,386.248 681.764,380.845 683.816,383.362 685.869,376.973 687.922,378.334 689.975,370.176 692.028,371.027 694.081,368.405 696.134,373.019 698.187,373.04 700.24,387.59 702.292,393.186 704.345,383.878 706.398,386.071 708.451,390.466 710.504,390.827 712.557,391.104 714.61,360.488 716.663,361.45 718.716,366.054 720.768,390.845 722.821,363.072 724.874,363.068 726.927,363.211 728.98,361.887 731.033,376.775 733.086,376.244 735.139,354.053 737.192,353.176 739.245,352.553 741.297,350.853 743.35,370.132 745.403,362.665 747.456,362.483 749.509,362.632 751.562,355.82 753.615,343.053 755.668,341.148 757.721,339.119 759.773,338.685 761.826,338.594 763.879,339.169 765.932,338.163 767.985,357.086 770.038,358.292 772.091,380.083 774.144,388.425 776.197,386.002 778.249,386.136 780.302,385.686 782.355,385.143 784.408,384.503 786.461,379.53 788.514,385.85 790.567,388.209 792.62,388.212 794.673,388.692 796.725,388.801 798.778,382.767 800.831,382.473 802.884,399.438 804.937,399.061 806.99,399.307 809.043,418.271 811.096,419.125 813.149,414.911 815.202,413.912 817.254,413.998 819.307,407.525 821.36,408.167 823.413,409.397 825.466,410.446 827.519,414.202 829.572,414.524 831.625,397.199 833.678,409.513 835.73,411.94 837.783,417.117 839.836,396.618 841.889,398.51 843.942,395.229 845.995,397.252 848.048,393.183 850.101,402.214 852.154,392.528 854.206,393.534 856.259,402.984 858.312,438.997 860.365,443.512 862.418,440.818 864.471,420.645 866.524,452.098 868.577,406.135 870.63,362.339 872.682,362.339 874.735,362.35 876.788,362.392 878.841,365.085 880.894,365.867 882.947,403.095 885,405.466 887.053,389.393 889.106,389.352 891.159,391.345 893.211,379.935 895.264,362.891 897.317,355.969 899.37,356.225 901.423,351.242 903.476,349.185 905.529,348.315 907.582,388.1 909.635,387.315 911.687,387.191 913.74,390.11 915.793,390.318 917.846,388.462 919.899,384.081 921.952,384.295 924.005,385.668 926.058,374.132 928.111,372.197 930.163,373.258 932.216,351.67 934.269,354.64 936.322,354.745 938.375,349.626 940.428,356.899 942.481,348.789 944.534,350.077 946.587,350.187 948.639,345.447 950.692,345.351 952.745,345.357 954.798,340.77 956.851,340.763 958.904,365.112 960.957,368.433 963.01,367.827 965.063,369.191 967.116,371.331 969.168,371.653 971.221,371.431 973.274,374.232 975.327,376.078 977.38,360.616 979.433,357.672 981.486,356.879 983.539,356.715 985.592,356.685 987.644,355.946 989.697,357.402 991.75,357.495 993.803,365.071 995.856,364.946 997.909,364.633 999.962,357.902 1002.01,360.209 1004.07,360.92 1006.12,358.482 1008.17,358.007 1010.23,371.492 1012.28,371.324 1014.33,370.795 1016.38,369.266 1018.44,384.605 1020.49,363.958 1022.54,364.025 1024.6,360.772 1026.65,360.379 1028.7,349.476 1030.76,342.469 1032.81,344.706 1034.86,346.874 1036.91,346.542 1038.97,364.075 1041.02,364.104 1043.07,363.967 1045.13,361.007 1047.18,360.924 1049.23,360.556 1051.28,359.36 1053.34,360.185 1055.39,369.445 1057.44,369.771 1059.5,376.56 1061.55,376.929 1063.6,377.085 1065.65,357.784 1067.71,342.474 1069.76,340.675 1071.81,341.807 1073.87,341.255 1075.92,342.082 1077.97,342.425 1080.02,355.885 1082.08,347.201 1084.13,356.262 1086.18,355.458 1088.24,348.638 1090.29,346.952 1092.34,364.37 1094.39,364.366 1096.45,356.982 1098.5,356.663 1100.55,358.646 1102.61,361.209 1104.66,358.552 1106.71,356.909 1108.77,356.911 1110.82,357.269 1112.87,363.804 1114.92,363.905 1116.98,361.205 1119.03,361.545 1121.08,362.363 1123.14,359.68 1125.19,358.409 1127.24,357.865 1129.29,372.712 1131.35,369.4 1133.4,368.411 1135.45,373.3 1137.51,368.969 1139.56,368.145 1141.61,368.232 1143.66,362.756 1145.72,363.035 1147.77,362.554 1149.82,381.731 1151.88,379.683 1153.93,380.079 1155.98,391.907 1158.03,381.323 1160.09,374.089 1162.14,343.295 1164.19,343.31 1166.25,348.866 1168.3,342.472 1170.35,346.78 1172.4,335.371 1174.46,365.035 1176.51,363.861 1178.56,365.421 1180.62,364.443 1182.67,357.149 1184.72,361.388 1186.77,357.774 1188.83,368.537 1190.88,368.328 1192.93,368.907 1194.99,373.119 1197.04,383.85 1199.09,366.105 1201.15,353.941 1203.2,357.385 1205.25,356.265 1207.3,355.238 1209.36,356.789 1211.41,356.756 1213.46,355.278 1215.52,354.601 1217.57,354.552 1219.62,363.842 1221.67,360.278 1223.73,364.145 1225.78,362.997 1227.83,366.435 1229.89,366.695 1231.94,367.215 1233.99,364.847 1236.04,358.068 1238.1,358.558 1240.15,354.164 1242.2,364.24 1244.26,362.998 1246.31,371.864 1248.36,361.009 1250.41,359.54 1252.47,356.621 1254.52,356.559 1256.57,339.822 1258.63,339.122 1260.68,338.993 1262.73,339.396 1264.78,340.075 1266.84,342.429 1268.89,364.127 1270.94,369.159 1273,371.365 1275.05,384.782 1277.1,383.788 1279.16,382.43 1281.21,383.299 1283.26,410.269 1285.31,383.89 1287.37,384.36 1289.42,374.345 1291.47,377.377 1293.53,378.163 1295.58,363.035 1297.63,351.227 1299.68,420.591 1301.74,418.479 1303.79,434.069 1305.84,430.371 1307.9,380.236 1309.95,378.316 1312,363.912 1314.05,351.842 1316.11,347.596 1318.16,358.631 1320.21,384.088 1322.27,402.495 1324.32,400.395 1326.37,400.832 1328.42,350.801 1330.48,342.859 1332.53,364.564 1334.58,376.804 1336.64,388.502 1338.69,388.493 1340.74,386.16 1342.79,387.3 1344.85,386.852 1346.9,386.863 1348.95,387.827 1351.01,385.667 1353.06,385.446 1355.11,386.714 1357.16,386.732 1359.22,340.984 1361.27,341.175 1363.32,379.396 1365.38,379.559 1367.43,380.738 1369.48,380.833 1371.54,380.009 1373.59,361.861 1375.64,361.722 1377.69,353.828 1379.75,348.627 1381.8,350.163 1383.85,350.242 1385.91,349.694 1387.96,349.417 1390.01,347.644 1392.06,371.975 1394.12,371.778 1396.17,371.816 1398.22,385.303 1400.28,383.892 1402.33,380.428 1404.38,382.34 1406.43,384.376 1408.49,384.504 1410.54,418.99 1412.59,432.928 1414.65,433.063 1416.7,424.532 1418.75,418.097 1420.8,416.298 1422.86,402.898 1424.91,418.271 1426.96,416.821 1429.02,416.056 1431.07,418.22 1433.12,410.538 1435.17,406.016 1437.23,406.74 1439.28,406.564 1441.33,405.029 1443.39,423.758 1445.44,405.586 1447.49,418.659 1449.55,425.32 1451.6,391.378 1453.65,313.762 1455.7,401.397 1457.76,408.861 1459.81,406.607 1461.86,380.744 1463.92,396.109 1465.97,395.767 1468.02,390.179 1470.07,407.506 1472.13,409.838 1474.18,403.144 1476.23,402.047 1478.29,360.878 1480.34,359.666 1482.39,355.482 1484.44,357.066 1486.5,355.571 1488.55,351.488 1490.6,352.299 1492.66,351.061 1494.71,368.249 1496.76,364.843 1498.81,360.732 1500.87,364.45 1502.92,367.939 1504.97,362.064 1507.03,369.266 1509.08,369.264 1511.13,373.741 1513.18,377.816 1515.24,378.926 1517.29,376.905 1519.34,376.874 1521.4,379.929 1523.45,375.748 1525.5,378.124 1527.55,376.331 1529.61,330.341 1531.66,338.539 1533.71,348.391 1535.77,333.453 1537.82,337.582 1539.87,337.613 1541.93,390.384 1543.98,369.173 1546.03,394.651 1548.08,390.796 1550.14,371.303 1552.19,370.526 1554.24,366.464 1556.3,370.331 1558.35,371.395 1560.4,370.853 1562.45,366.369 1564.51,366.263 1566.56,365.691 1568.61,399.237 1570.67,398.975 1572.72,397.864 1574.77,396.645 1576.82,393.37 1578.88,373.483 1580.93,352.276 1582.98,352.909 1585.04,363.235 1587.09,362.805 1589.14,362.83 1591.19,359.478 1593.25,352.65 1595.3,352.122 1597.35,354.041 1599.41,352.579 1601.46,342.546 1603.51,341.989 1605.56,340.86 1607.62,340.18 1609.67,340.045 1611.72,339.6 1613.78,341.292 1615.83,341.288 1617.88,338.322 1619.94,338.806 1621.99,337.906 1624.04,338.054 1626.09,400.668 1628.15,399.844 1630.2,399.902 1632.25,404.758 1634.31,390.983 1636.36,390.847 1638.41,390.801 1640.46,331.378 1642.52,346.919 1644.57,354.6 1646.62,355.181 1648.68,360.414 1650.73,359.629 1652.78,360.61 1654.83,358.343 1656.89,370.131 1658.94,372.108 1660.99,373.178 1663.05,380.735 1665.1,372.454 1667.15,369.581 1669.2,369.191 1671.26,333.522 1673.31,333.212 1675.36,333.218 1677.42,332.189 1679.47,348.113 1681.52,326.369 1683.57,326.341 1685.63,320.859 1687.68,321.03 1689.73,322.335 1691.79,321.415 1693.84,320.719 1695.89,333.789 1697.94,332.717 1700,322.112 1702.05,321.625 1704.1,368.535 1706.16,369.973 1708.21,367.817 1710.26,366.176 1712.32,365.536 1714.37,365.41 1716.42,359.733 1718.47,352.95 1720.53,352.005 1722.58,356.37 1724.63,368.044 1726.69,385.471 1728.74,398.338 1730.79,397.479 1732.84,398.748 1734.9,398.791 1736.95,397.646 1739,355.886 1741.06,355.745 1743.11,364.046 1745.16,361.075 1747.21,345.318 1749.27,342.753 1751.32,342.532 1753.37,342.54 1755.43,358.715 1757.48,358.86 1759.53,357.52 1761.58,357.484 1763.64,353.482 1765.69,365.533 1767.74,368.324 1769.8,364.677 1771.85,364.856 1773.9,364.856 1775.95,358.495 1778.01,358.078 1780.06,357.36 1782.11,361.877 1784.17,361.902 1786.22,377.941 1788.27,379.995 1790.33,388.315 1792.38,388.843 1794.43,387.949 1796.48,392.087 1798.54,391.455 1800.59,393.547 1802.64,398.145 1804.7,390.49 1806.75,388.644 1808.8,366.976 1810.85,367.809 1812.91,440.793 1814.96,442.981 1817.01,407.701 1819.07,405.643 1821.12,404.444 1823.17,380.223 1825.22,376.923 1827.28,347.978 1829.33,350.895 1831.38,351.297 1833.44,350.205 1835.49,347.047 1837.54,367.516 1839.59,298.731 1841.65,301.252 1843.7,304.877 1845.75,315.515 1847.81,328.948 1849.86,322.484 1851.91,355.996 1853.96,356.78 1856.02,316.944 1858.07,351.365 1860.12,351.397 1862.18,351.002 1864.23,342.973 1866.28,342.99 1868.34,342.806 1870.39,342.774 1872.44,333.76 1874.49,367.974 1876.55,375.587 1878.6,381.508 1880.65,380.514 1882.71,380.865 1884.76,349.215 1886.81,353.337 1888.86,409.674 1890.92,414.433 1892.97,391.036 1895.02,390.537 1897.08,361.725 1899.13,356.736 1901.18,355.788 1903.23,356.437 1905.29,366.684 1907.34,365.757 1909.39,369.071 1911.45,386.845 1913.5,388.014 1915.55,388.03 1917.6,359.355 1919.66,357.222 1921.71,360.932 1923.76,359.804 1925.82,362.096 1927.87,353.398 1929.92,354.139 1931.97,353.455 1934.03,352.463 1936.08,354.912 1938.13,363.603 1940.19,362.398 1942.24,362.301 1944.29,359.887 1946.34,361.135 1948.4,358.932 1950.45,355.189 1952.5,363.005 1954.56,343.202 1956.61,343.492 1958.66,346.517 1960.72,334.937 1962.77,335.075 1964.82,340.598 1966.87,340.312 1968.93,341.444 1970.98,336.696 1973.03,333.177 1975.09,333.646 1977.14,330.673 1979.19,330.864 1981.24,342.814 1983.3,344.432 1985.35,345.349 1987.4,337.691 1989.46,346.492 1991.51,347.115 1993.56,347.135 1995.61,350.494 1997.67,350.415 1999.72,349.632 2001.77,353.109 2003.83,352.466 2005.88,353.168 2007.93,353.208 2009.98,341.517 2012.04,309.073 2014.09,308.721 2016.14,306.578 2018.2,319.098 2020.25,314.005 2022.3,313.935 2024.35,309.634 2026.41,321.887 2028.46,327.006 2030.51,328.657 2032.57,328.692 2034.62,364.196 2036.67,354.842 2038.73,349.44 2040.78,348.713 2042.83,342.735 2044.88,347.391 2046.94,400.767 2048.99,400.776 2051.04,389 2053.1,394.522 2055.15,396.196 2057.2,340.341 2059.25,343.477 2061.31,344.489 2063.36,344.024 2065.41,349.995 2067.47,312.682 2069.52,281.942 2071.57,257.086 2073.62,463.33 2075.68,423.4 2077.73,421.647 2079.78,422.95 2081.84,404.124 2083.89,403.58 2085.94,389.014 2087.99,388.931 2090.05,389.547 2092.1,387.68 2094.15,391.803 2096.21,393.191 2098.26,386.782 2100.31,386.877 2102.36,396.892 2104.42,352.078 2106.47,355.915 2108.52,358.7 2110.58,360.339 2112.63,360.793 2114.68,360.926 2116.73,407.178 2118.79,373.092 2120.84,372.989 2122.89,372.985 2124.95,374.067 2127,374.602 2129.05,393.036 2131.11,399.835 2133.16,400.573 2135.21,395.415 2137.26,398.973 2139.32,397.887 2141.37,333.549 2143.42,333.533 2145.48,283.826 2147.53,271.983 2149.58,272.233 2151.63,271.409 2153.69,275.935 2155.74,275.927 2157.79,276.065 2159.85,275.98 2161.9,275.292 2163.95,281.828 2166,281.646 2168.06,281.336 2170.11,287.678 2172.16,285.583 2174.22,293.69 2176.27,295.58 2178.32,346.133 2180.37,298.3 2182.43,462.724 2184.48,464.012 2186.53,432.946 2188.59,486.961 2190.64,480.998 2192.69,479.526 2194.74,466.391 2196.8,468.672 2198.85,367.933 2200.9,225.109 2202.96,256.032 2205.01,255.966 2207.06,264.751 2209.12,263.105 2211.17,401.724 2213.22,304.727 2215.27,340.535 2217.33,447.782 2219.38,440.444 2221.43,442.743 2223.49,393.525 2225.54,422.991 2227.59,423.789 2229.64,427.439 2231.7,355.011 2233.75,344.526 2235.8,344.57 2237.86,345.128 2239.91,340.518 2241.96,203.684 2244.01,203.444 2246.07,254.233 2248.12,253.988 2250.17,300.174 2252.23,313.596 2254.28,332.209 2256.33,344.913 2258.38,361.612 2260.44,343.093 2262.49,353.026 2264.54,338.346 2266.6,377.46 2268.65,376.191 2270.7,383.591 2272.75,393.284 2274.81,396.729 2276.86,406.041 2278.91,400.865 2280.97,348.66 2283.02,336.129 2285.07,344.665 2287.12,346.833 2289.18,344.288 2291.23,339.974 "/>
<path clip-path="url(#clip780)" d="M251.33 172.231 L548.024 172.231 L548.024 68.5509 L251.33 68.5509  Z" fill="#ffffff" fill-rule="evenodd" fill-opacity="1"/>
<polyline clip-path="url(#clip780)" style="stroke:#000000; stroke-linecap:round; stroke-linejoin:round; stroke-width:4; stroke-opacity:1; fill:none" points="251.33,172.231 548.024,172.231 548.024,68.5509 251.33,68.5509 251.33,172.231 "/>
<polyline clip-path="url(#clip780)" style="stroke:#009af9; stroke-linecap:round; stroke-linejoin:round; stroke-width:4; stroke-opacity:1; fill:none" points="275.484,120.391 420.41,120.391 "/>
<path clip-path="url(#clip780)" d="M444.564 103.111 L449.24 103.111 L449.24 133.736 L466.069 133.736 L466.069 137.671 L444.564 137.671 L444.564 103.111 Z" fill="#000000" fill-rule="nonzero" fill-opacity="1" /><path clip-path="url(#clip780)" d="M491.694 104.245 L491.694 108.805 Q489.032 107.532 486.67 106.907 Q484.309 106.282 482.11 106.282 Q478.291 106.282 476.208 107.764 Q474.147 109.245 474.147 111.977 Q474.147 114.268 475.513 115.449 Q476.902 116.606 480.745 117.324 L483.569 117.902 Q488.8 118.898 491.277 121.421 Q493.777 123.921 493.777 128.134 Q493.777 133.157 490.397 135.75 Q487.041 138.342 480.536 138.342 Q478.083 138.342 475.305 137.787 Q472.55 137.231 469.587 136.143 L469.587 131.328 Q472.434 132.926 475.166 133.736 Q477.897 134.546 480.536 134.546 Q484.541 134.546 486.717 132.972 Q488.893 131.398 488.893 128.481 Q488.893 125.935 487.319 124.5 Q485.768 123.064 482.203 122.347 L479.356 121.791 Q474.124 120.75 471.786 118.527 Q469.448 116.305 469.448 112.347 Q469.448 107.764 472.666 105.125 Q475.907 102.486 481.578 102.486 Q484.008 102.486 486.532 102.926 Q489.055 103.366 491.694 104.245 Z" fill="#000000" fill-rule="nonzero" fill-opacity="1" /><path clip-path="url(#clip780)" d="M521.786 104.245 L521.786 108.805 Q519.124 107.532 516.763 106.907 Q514.402 106.282 512.203 106.282 Q508.383 106.282 506.3 107.764 Q504.24 109.245 504.24 111.977 Q504.24 114.268 505.606 115.449 Q506.994 116.606 510.837 117.324 L513.661 117.902 Q518.893 118.898 521.369 121.421 Q523.869 123.921 523.869 128.134 Q523.869 133.157 520.49 135.75 Q517.133 138.342 510.629 138.342 Q508.175 138.342 505.397 137.787 Q502.643 137.231 499.68 136.143 L499.68 131.328 Q502.527 132.926 505.258 133.736 Q507.99 134.546 510.629 134.546 Q514.633 134.546 516.809 132.972 Q518.985 131.398 518.985 128.481 Q518.985 125.935 517.411 124.5 Q515.86 123.064 512.295 122.347 L509.448 121.791 Q504.217 120.75 501.879 118.527 Q499.541 116.305 499.541 112.347 Q499.541 107.764 502.758 105.125 Q505.999 102.486 511.67 102.486 Q514.101 102.486 516.624 102.926 Q519.147 103.366 521.786 104.245 Z" fill="#000000" fill-rule="nonzero" fill-opacity="1" /><path clip-path="url(#clip780)" d="M178.867 1486.45 L2352.76 1486.45 L2352.76 847.244 L178.867 847.244  Z" fill="#ffffff" fill-rule="evenodd" fill-opacity="1"/>
<defs>
  <clipPath id="clip783">
    <rect x="178" y="847" width="2175" height="640"/>
  </clipPath>
</defs>
<polyline clip-path="url(#clip783)" style="stroke:#000000; stroke-linecap:round; stroke-linejoin:round; stroke-width:2; stroke-opacity:0.1; fill:none" points="238.339,1486.45 238.339,847.244 "/>
<polyline clip-path="url(#clip783)" style="stroke:#000000; stroke-linecap:round; stroke-linejoin:round; stroke-width:2; stroke-opacity:0.1; fill:none" points="751.562,1486.45 751.562,847.244 "/>
<polyline clip-path="url(#clip783)" style="stroke:#000000; stroke-linecap:round; stroke-linejoin:round; stroke-width:2; stroke-opacity:0.1; fill:none" points="1264.78,1486.45 1264.78,847.244 "/>
<polyline clip-path="url(#clip783)" style="stroke:#000000; stroke-linecap:round; stroke-linejoin:round; stroke-width:2; stroke-opacity:0.1; fill:none" points="1778.01,1486.45 1778.01,847.244 "/>
<polyline clip-path="url(#clip783)" style="stroke:#000000; stroke-linecap:round; stroke-linejoin:round; stroke-width:2; stroke-opacity:0.1; fill:none" points="2291.23,1486.45 2291.23,847.244 "/>
<polyline clip-path="url(#clip783)" style="stroke:#000000; stroke-linecap:round; stroke-linejoin:round; stroke-width:2; stroke-opacity:0.1; fill:none" points="178.867,1486.45 2352.76,1486.45 "/>
<polyline clip-path="url(#clip783)" style="stroke:#000000; stroke-linecap:round; stroke-linejoin:round; stroke-width:2; stroke-opacity:0.1; fill:none" points="178.867,1326.65 2352.76,1326.65 "/>
<polyline clip-path="url(#clip783)" style="stroke:#000000; stroke-linecap:round; stroke-linejoin:round; stroke-width:2; stroke-opacity:0.1; fill:none" points="178.867,1166.85 2352.76,1166.85 "/>
<polyline clip-path="url(#clip783)" style="stroke:#000000; stroke-linecap:round; stroke-linejoin:round; stroke-width:2; stroke-opacity:0.1; fill:none" points="178.867,1007.05 2352.76,1007.05 "/>
<polyline clip-path="url(#clip783)" style="stroke:#000000; stroke-linecap:round; stroke-linejoin:round; stroke-width:2; stroke-opacity:0.1; fill:none" points="178.867,847.244 2352.76,847.244 "/>
<polyline clip-path="url(#clip780)" style="stroke:#000000; stroke-linecap:round; stroke-linejoin:round; stroke-width:4; stroke-opacity:1; fill:none" points="178.867,1486.45 2352.76,1486.45 "/>
<polyline clip-path="url(#clip780)" style="stroke:#000000; stroke-linecap:round; stroke-linejoin:round; stroke-width:4; stroke-opacity:1; fill:none" points="238.339,1486.45 238.339,1467.55 "/>
<polyline clip-path="url(#clip780)" style="stroke:#000000; stroke-linecap:round; stroke-linejoin:round; stroke-width:4; stroke-opacity:1; fill:none" points="751.562,1486.45 751.562,1467.55 "/>
<polyline clip-path="url(#clip780)" style="stroke:#000000; stroke-linecap:round; stroke-linejoin:round; stroke-width:4; stroke-opacity:1; fill:none" points="1264.78,1486.45 1264.78,1467.55 "/>
<polyline clip-path="url(#clip780)" style="stroke:#000000; stroke-linecap:round; stroke-linejoin:round; stroke-width:4; stroke-opacity:1; fill:none" points="1778.01,1486.45 1778.01,1467.55 "/>
<polyline clip-path="url(#clip780)" style="stroke:#000000; stroke-linecap:round; stroke-linejoin:round; stroke-width:4; stroke-opacity:1; fill:none" points="2291.23,1486.45 2291.23,1467.55 "/>
<path clip-path="url(#clip780)" d="M238.339 1517.37 Q234.728 1517.37 232.899 1520.93 Q231.094 1524.47 231.094 1531.6 Q231.094 1538.71 232.899 1542.27 Q234.728 1545.82 238.339 1545.82 Q241.973 1545.82 243.779 1542.27 Q245.607 1538.71 245.607 1531.6 Q245.607 1524.47 243.779 1520.93 Q241.973 1517.37 238.339 1517.37 M238.339 1513.66 Q244.149 1513.66 247.205 1518.27 Q250.283 1522.85 250.283 1531.6 Q250.283 1540.33 247.205 1544.94 Q244.149 1549.52 238.339 1549.52 Q232.529 1549.52 229.45 1544.94 Q226.395 1540.33 226.395 1531.6 Q226.395 1522.85 229.45 1518.27 Q232.529 1513.66 238.339 1513.66 Z" fill="#000000" fill-rule="nonzero" fill-opacity="1" /><path clip-path="url(#clip780)" d="M715.254 1544.91 L731.574 1544.91 L731.574 1548.85 L709.629 1548.85 L709.629 1544.91 Q712.291 1542.16 716.875 1537.53 Q721.481 1532.88 722.662 1531.53 Q724.907 1529.01 725.787 1527.27 Q726.689 1525.51 726.689 1523.82 Q726.689 1521.07 724.745 1519.33 Q722.824 1517.6 719.722 1517.6 Q717.523 1517.6 715.069 1518.36 Q712.638 1519.13 709.861 1520.68 L709.861 1515.95 Q712.685 1514.82 715.138 1514.24 Q717.592 1513.66 719.629 1513.66 Q725 1513.66 728.194 1516.35 Q731.388 1519.03 731.388 1523.52 Q731.388 1525.65 730.578 1527.57 Q729.791 1529.47 727.685 1532.07 Q727.106 1532.74 724.004 1535.95 Q720.902 1539.15 715.254 1544.91 Z" fill="#000000" fill-rule="nonzero" fill-opacity="1" /><path clip-path="url(#clip780)" d="M741.435 1514.29 L759.791 1514.29 L759.791 1518.22 L745.717 1518.22 L745.717 1526.7 Q746.736 1526.35 747.754 1526.19 Q748.773 1526 749.791 1526 Q755.578 1526 758.958 1529.17 Q762.337 1532.34 762.337 1537.76 Q762.337 1543.34 758.865 1546.44 Q755.393 1549.52 749.073 1549.52 Q746.898 1549.52 744.629 1549.15 Q742.384 1548.78 739.976 1548.04 L739.976 1543.34 Q742.06 1544.47 744.282 1545.03 Q746.504 1545.58 748.981 1545.58 Q752.985 1545.58 755.323 1543.48 Q757.661 1541.37 757.661 1537.76 Q757.661 1534.15 755.323 1532.04 Q752.985 1529.94 748.981 1529.94 Q747.106 1529.94 745.231 1530.35 Q743.379 1530.77 741.435 1531.65 L741.435 1514.29 Z" fill="#000000" fill-rule="nonzero" fill-opacity="1" /><path clip-path="url(#clip780)" d="M781.55 1517.37 Q777.939 1517.37 776.11 1520.93 Q774.305 1524.47 774.305 1531.6 Q774.305 1538.71 776.11 1542.27 Q777.939 1545.82 781.55 1545.82 Q785.184 1545.82 786.99 1542.27 Q788.819 1538.71 788.819 1531.6 Q788.819 1524.47 786.99 1520.93 Q785.184 1517.37 781.55 1517.37 M781.55 1513.66 Q787.36 1513.66 790.416 1518.27 Q793.495 1522.85 793.495 1531.6 Q793.495 1540.33 790.416 1544.94 Q787.36 1549.52 781.55 1549.52 Q775.74 1549.52 772.661 1544.94 Q769.606 1540.33 769.606 1531.6 Q769.606 1522.85 772.661 1518.27 Q775.74 1513.66 781.55 1513.66 Z" fill="#000000" fill-rule="nonzero" fill-opacity="1" /><path clip-path="url(#clip780)" d="M1224.4 1514.29 L1242.76 1514.29 L1242.76 1518.22 L1228.69 1518.22 L1228.69 1526.7 Q1229.7 1526.35 1230.72 1526.19 Q1231.74 1526 1232.76 1526 Q1238.55 1526 1241.93 1529.17 Q1245.31 1532.34 1245.31 1537.76 Q1245.31 1543.34 1241.83 1546.44 Q1238.36 1549.52 1232.04 1549.52 Q1229.87 1549.52 1227.6 1549.15 Q1225.35 1548.78 1222.94 1548.04 L1222.94 1543.34 Q1225.03 1544.47 1227.25 1545.03 Q1229.47 1545.58 1231.95 1545.58 Q1235.95 1545.58 1238.29 1543.48 Q1240.63 1541.37 1240.63 1537.76 Q1240.63 1534.15 1238.29 1532.04 Q1235.95 1529.94 1231.95 1529.94 Q1230.07 1529.94 1228.2 1530.35 Q1226.35 1530.77 1224.4 1531.65 L1224.4 1514.29 Z" fill="#000000" fill-rule="nonzero" fill-opacity="1" /><path clip-path="url(#clip780)" d="M1264.52 1517.37 Q1260.91 1517.37 1259.08 1520.93 Q1257.27 1524.47 1257.27 1531.6 Q1257.27 1538.71 1259.08 1542.27 Q1260.91 1545.82 1264.52 1545.82 Q1268.15 1545.82 1269.96 1542.27 Q1271.79 1538.71 1271.79 1531.6 Q1271.79 1524.47 1269.96 1520.93 Q1268.15 1517.37 1264.52 1517.37 M1264.52 1513.66 Q1270.33 1513.66 1273.38 1518.27 Q1276.46 1522.85 1276.46 1531.6 Q1276.46 1540.33 1273.38 1544.94 Q1270.33 1549.52 1264.52 1549.52 Q1258.71 1549.52 1255.63 1544.94 Q1252.57 1540.33 1252.57 1531.6 Q1252.57 1522.85 1255.63 1518.27 Q1258.71 1513.66 1264.52 1513.66 Z" fill="#000000" fill-rule="nonzero" fill-opacity="1" /><path clip-path="url(#clip780)" d="M1294.68 1517.37 Q1291.07 1517.37 1289.24 1520.93 Q1287.44 1524.47 1287.44 1531.6 Q1287.44 1538.71 1289.24 1542.27 Q1291.07 1545.82 1294.68 1545.82 Q1298.31 1545.82 1300.12 1542.27 Q1301.95 1538.71 1301.95 1531.6 Q1301.95 1524.47 1300.12 1520.93 Q1298.31 1517.37 1294.68 1517.37 M1294.68 1513.66 Q1300.49 1513.66 1303.55 1518.27 Q1306.62 1522.85 1306.62 1531.6 Q1306.62 1540.33 1303.55 1544.94 Q1300.49 1549.52 1294.68 1549.52 Q1288.87 1549.52 1285.79 1544.94 Q1282.74 1540.33 1282.74 1531.6 Q1282.74 1522.85 1285.79 1518.27 Q1288.87 1513.66 1294.68 1513.66 Z" fill="#000000" fill-rule="nonzero" fill-opacity="1" /><path clip-path="url(#clip780)" d="M1736.28 1514.29 L1758.51 1514.29 L1758.51 1516.28 L1745.96 1548.85 L1741.08 1548.85 L1752.88 1518.22 L1736.28 1518.22 L1736.28 1514.29 Z" fill="#000000" fill-rule="nonzero" fill-opacity="1" /><path clip-path="url(#clip780)" d="M1767.67 1514.29 L1786.03 1514.29 L1786.03 1518.22 L1771.95 1518.22 L1771.95 1526.7 Q1772.97 1526.35 1773.99 1526.19 Q1775.01 1526 1776.03 1526 Q1781.82 1526 1785.2 1529.17 Q1788.57 1532.34 1788.57 1537.76 Q1788.57 1543.34 1785.1 1546.44 Q1781.63 1549.52 1775.31 1549.52 Q1773.14 1549.52 1770.87 1549.15 Q1768.62 1548.78 1766.21 1548.04 L1766.21 1543.34 Q1768.3 1544.47 1770.52 1545.03 Q1772.74 1545.58 1775.22 1545.58 Q1779.22 1545.58 1781.56 1543.48 Q1783.9 1541.37 1783.9 1537.76 Q1783.9 1534.15 1781.56 1532.04 Q1779.22 1529.94 1775.22 1529.94 Q1773.34 1529.94 1771.47 1530.35 Q1769.62 1530.77 1767.67 1531.65 L1767.67 1514.29 Z" fill="#000000" fill-rule="nonzero" fill-opacity="1" /><path clip-path="url(#clip780)" d="M1807.79 1517.37 Q1804.18 1517.37 1802.35 1520.93 Q1800.54 1524.47 1800.54 1531.6 Q1800.54 1538.71 1802.35 1542.27 Q1804.18 1545.82 1807.79 1545.82 Q1811.42 1545.82 1813.23 1542.27 Q1815.06 1538.71 1815.06 1531.6 Q1815.06 1524.47 1813.23 1520.93 Q1811.42 1517.37 1807.79 1517.37 M1807.79 1513.66 Q1813.6 1513.66 1816.65 1518.27 Q1819.73 1522.85 1819.73 1531.6 Q1819.73 1540.33 1816.65 1544.94 Q1813.6 1549.52 1807.79 1549.52 Q1801.98 1549.52 1798.9 1544.94 Q1795.84 1540.33 1795.84 1531.6 Q1795.84 1522.85 1798.9 1518.27 Q1801.98 1513.66 1807.79 1513.66 Z" fill="#000000" fill-rule="nonzero" fill-opacity="1" /><path clip-path="url(#clip780)" d="M2235.76 1544.91 L2243.4 1544.91 L2243.4 1518.55 L2235.09 1520.21 L2235.09 1515.95 L2243.35 1514.29 L2248.02 1514.29 L2248.02 1544.91 L2255.66 1544.91 L2255.66 1548.85 L2235.76 1548.85 L2235.76 1544.91 Z" fill="#000000" fill-rule="nonzero" fill-opacity="1" /><path clip-path="url(#clip780)" d="M2275.11 1517.37 Q2271.5 1517.37 2269.67 1520.93 Q2267.86 1524.47 2267.86 1531.6 Q2267.86 1538.71 2269.67 1542.27 Q2271.5 1545.82 2275.11 1545.82 Q2278.74 1545.82 2280.55 1542.27 Q2282.38 1538.71 2282.38 1531.6 Q2282.38 1524.47 2280.55 1520.93 Q2278.74 1517.37 2275.11 1517.37 M2275.11 1513.66 Q2280.92 1513.66 2283.97 1518.27 Q2287.05 1522.85 2287.05 1531.6 Q2287.05 1540.33 2283.97 1544.94 Q2280.92 1549.52 2275.11 1549.52 Q2269.3 1549.52 2266.22 1544.94 Q2263.16 1540.33 2263.16 1531.6 Q2263.16 1522.85 2266.22 1518.27 Q2269.3 1513.66 2275.11 1513.66 Z" fill="#000000" fill-rule="nonzero" fill-opacity="1" /><path clip-path="url(#clip780)" d="M2305.27 1517.37 Q2301.66 1517.37 2299.83 1520.93 Q2298.02 1524.47 2298.02 1531.6 Q2298.02 1538.71 2299.83 1542.27 Q2301.66 1545.82 2305.27 1545.82 Q2308.9 1545.82 2310.71 1542.27 Q2312.54 1538.71 2312.54 1531.6 Q2312.54 1524.47 2310.71 1520.93 Q2308.9 1517.37 2305.27 1517.37 M2305.27 1513.66 Q2311.08 1513.66 2314.14 1518.27 Q2317.21 1522.85 2317.21 1531.6 Q2317.21 1540.33 2314.14 1544.94 Q2311.08 1549.52 2305.27 1549.52 Q2299.46 1549.52 2296.38 1544.94 Q2293.33 1540.33 2293.33 1531.6 Q2293.33 1522.85 2296.38 1518.27 Q2299.46 1513.66 2305.27 1513.66 Z" fill="#000000" fill-rule="nonzero" fill-opacity="1" /><path clip-path="url(#clip780)" d="M2335.43 1517.37 Q2331.82 1517.37 2329.99 1520.93 Q2328.19 1524.47 2328.19 1531.6 Q2328.19 1538.71 2329.99 1542.27 Q2331.82 1545.82 2335.43 1545.82 Q2339.07 1545.82 2340.87 1542.27 Q2342.7 1538.71 2342.7 1531.6 Q2342.7 1524.47 2340.87 1520.93 Q2339.07 1517.37 2335.43 1517.37 M2335.43 1513.66 Q2341.24 1513.66 2344.3 1518.27 Q2347.38 1522.85 2347.38 1531.6 Q2347.38 1540.33 2344.3 1544.94 Q2341.24 1549.52 2335.43 1549.52 Q2329.62 1549.52 2326.54 1544.94 Q2323.49 1540.33 2323.49 1531.6 Q2323.49 1522.85 2326.54 1518.27 Q2329.62 1513.66 2335.43 1513.66 Z" fill="#000000" fill-rule="nonzero" fill-opacity="1" /><polyline clip-path="url(#clip780)" style="stroke:#000000; stroke-linecap:round; stroke-linejoin:round; stroke-width:4; stroke-opacity:1; fill:none" points="178.867,1486.45 178.867,847.244 "/>
<polyline clip-path="url(#clip780)" style="stroke:#000000; stroke-linecap:round; stroke-linejoin:round; stroke-width:4; stroke-opacity:1; fill:none" points="178.867,1486.45 197.764,1486.45 "/>
<polyline clip-path="url(#clip780)" style="stroke:#000000; stroke-linecap:round; stroke-linejoin:round; stroke-width:4; stroke-opacity:1; fill:none" points="178.867,1326.65 197.764,1326.65 "/>
<polyline clip-path="url(#clip780)" style="stroke:#000000; stroke-linecap:round; stroke-linejoin:round; stroke-width:4; stroke-opacity:1; fill:none" points="178.867,1166.85 197.764,1166.85 "/>
<polyline clip-path="url(#clip780)" style="stroke:#000000; stroke-linecap:round; stroke-linejoin:round; stroke-width:4; stroke-opacity:1; fill:none" points="178.867,1007.05 197.764,1007.05 "/>
<polyline clip-path="url(#clip780)" style="stroke:#000000; stroke-linecap:round; stroke-linejoin:round; stroke-width:4; stroke-opacity:1; fill:none" points="178.867,847.244 197.764,847.244 "/>
<path clip-path="url(#clip780)" d="M50.9921 1486.9 L80.6679 1486.9 L80.6679 1490.83 L50.9921 1490.83 L50.9921 1486.9 Z" fill="#000000" fill-rule="nonzero" fill-opacity="1" /><path clip-path="url(#clip780)" d="M91.5706 1499.79 L99.2095 1499.79 L99.2095 1473.43 L90.8993 1475.09 L90.8993 1470.83 L99.1632 1469.17 L103.839 1469.17 L103.839 1499.79 L111.478 1499.79 L111.478 1503.73 L91.5706 1503.73 L91.5706 1499.79 Z" fill="#000000" fill-rule="nonzero" fill-opacity="1" /><path clip-path="url(#clip780)" d="M130.922 1472.25 Q127.311 1472.25 125.482 1475.81 Q123.677 1479.35 123.677 1486.48 Q123.677 1493.59 125.482 1497.15 Q127.311 1500.7 130.922 1500.7 Q134.556 1500.7 136.362 1497.15 Q138.191 1493.59 138.191 1486.48 Q138.191 1479.35 136.362 1475.81 Q134.556 1472.25 130.922 1472.25 M130.922 1468.54 Q136.732 1468.54 139.788 1473.15 Q142.867 1477.73 142.867 1486.48 Q142.867 1495.21 139.788 1499.82 Q136.732 1504.4 130.922 1504.4 Q125.112 1504.4 122.033 1499.82 Q118.978 1495.21 118.978 1486.48 Q118.978 1477.73 122.033 1473.15 Q125.112 1468.54 130.922 1468.54 Z" fill="#000000" fill-rule="nonzero" fill-opacity="1" /><path clip-path="url(#clip780)" d="M82.1494 1327.1 L111.825 1327.1 L111.825 1331.03 L82.1494 1331.03 L82.1494 1327.1 Z" fill="#000000" fill-rule="nonzero" fill-opacity="1" /><path clip-path="url(#clip780)" d="M121.964 1309.37 L140.32 1309.37 L140.32 1313.3 L126.246 1313.3 L126.246 1321.77 Q127.265 1321.43 128.283 1321.27 Q129.302 1321.08 130.32 1321.08 Q136.107 1321.08 139.487 1324.25 Q142.867 1327.42 142.867 1332.84 Q142.867 1338.42 139.394 1341.52 Q135.922 1344.6 129.603 1344.6 Q127.427 1344.6 125.158 1344.23 Q122.913 1343.86 120.506 1343.12 L120.506 1338.42 Q122.589 1339.55 124.811 1340.11 Q127.033 1340.66 129.51 1340.66 Q133.515 1340.66 135.853 1338.56 Q138.191 1336.45 138.191 1332.84 Q138.191 1329.23 135.853 1327.12 Q133.515 1325.01 129.51 1325.01 Q127.635 1325.01 125.76 1325.43 Q123.908 1325.85 121.964 1326.73 L121.964 1309.37 Z" fill="#000000" fill-rule="nonzero" fill-opacity="1" /><path clip-path="url(#clip780)" d="M130.922 1152.64 Q127.311 1152.64 125.482 1156.21 Q123.677 1159.75 123.677 1166.88 Q123.677 1173.99 125.482 1177.55 Q127.311 1181.09 130.922 1181.09 Q134.556 1181.09 136.362 1177.55 Q138.191 1173.99 138.191 1166.88 Q138.191 1159.75 136.362 1156.21 Q134.556 1152.64 130.922 1152.64 M130.922 1148.94 Q136.732 1148.94 139.788 1153.55 Q142.867 1158.13 142.867 1166.88 Q142.867 1175.61 139.788 1180.21 Q136.732 1184.8 130.922 1184.8 Q125.112 1184.8 122.033 1180.21 Q118.978 1175.61 118.978 1166.88 Q118.978 1158.13 122.033 1153.55 Q125.112 1148.94 130.922 1148.94 Z" fill="#000000" fill-rule="nonzero" fill-opacity="1" /><path clip-path="url(#clip780)" d="M121.964 989.765 L140.32 989.765 L140.32 993.7 L126.246 993.7 L126.246 1002.17 Q127.265 1001.83 128.283 1001.66 Q129.302 1001.48 130.32 1001.48 Q136.107 1001.48 139.487 1004.65 Q142.867 1007.82 142.867 1013.24 Q142.867 1018.82 139.394 1021.92 Q135.922 1025 129.603 1025 Q127.427 1025 125.158 1024.63 Q122.913 1024.26 120.506 1023.51 L120.506 1018.82 Q122.589 1019.95 124.811 1020.51 Q127.033 1021.06 129.51 1021.06 Q133.515 1021.06 135.853 1018.95 Q138.191 1016.85 138.191 1013.24 Q138.191 1009.63 135.853 1007.52 Q133.515 1005.41 129.51 1005.41 Q127.635 1005.41 125.76 1005.83 Q123.908 1006.25 121.964 1007.13 L121.964 989.765 Z" fill="#000000" fill-rule="nonzero" fill-opacity="1" /><path clip-path="url(#clip780)" d="M91.5706 860.589 L99.2095 860.589 L99.2095 834.223 L90.8993 835.89 L90.8993 831.631 L99.1632 829.964 L103.839 829.964 L103.839 860.589 L111.478 860.589 L111.478 864.524 L91.5706 864.524 L91.5706 860.589 Z" fill="#000000" fill-rule="nonzero" fill-opacity="1" /><path clip-path="url(#clip780)" d="M130.922 833.043 Q127.311 833.043 125.482 836.608 Q123.677 840.149 123.677 847.279 Q123.677 854.385 125.482 857.95 Q127.311 861.492 130.922 861.492 Q134.556 861.492 136.362 857.95 Q138.191 854.385 138.191 847.279 Q138.191 840.149 136.362 836.608 Q134.556 833.043 130.922 833.043 M130.922 829.339 Q136.732 829.339 139.788 833.946 Q142.867 838.529 142.867 847.279 Q142.867 856.006 139.788 860.612 Q136.732 865.195 130.922 865.195 Q125.112 865.195 122.033 860.612 Q118.978 856.006 118.978 847.279 Q118.978 838.529 122.033 833.946 Q125.112 829.339 130.922 829.339 Z" fill="#000000" fill-rule="nonzero" fill-opacity="1" /><polyline clip-path="url(#clip783)" style="stroke:#009af9; stroke-linecap:round; stroke-linejoin:round; stroke-width:4; stroke-opacity:1; fill:none" points="240.392,1134.89 242.445,1047.91 244.498,1130.33 246.55,1143.54 248.603,1155.97 250.656,1137.35 252.709,1189.73 254.762,1262.41 256.815,1278.05 258.868,1158.72 260.921,1139.19 262.974,1147.01 265.027,1158.84 267.079,1169.45 269.132,1157.26 271.185,1150.58 273.238,1151.49 275.291,1158.75 277.344,1175.86 279.397,1155.53 281.45,1153.26 283.503,1174.06 285.555,1171.27 287.608,1130.03 289.661,1178.42 291.714,1182.39 293.767,1181.76 295.82,1174.81 297.873,1160.5 299.926,1287.74 301.979,1266.61 304.031,1449.55 306.084,1152.34 308.137,1193.39 310.19,1165.14 312.243,1149.95 314.296,1181.65 316.349,1201.07 318.402,1198.01 320.455,1152.93 322.507,1166.35 324.56,1205.27 326.613,1190.77 328.666,1142.15 330.719,1168.28 332.772,1198.88 334.825,1173.09 336.878,1169.57 338.931,1049.26 340.984,1201.06 343.036,1250.46 345.089,1527.81 347.142,1521.88 349.195,999.595 351.248,1336.11 353.301,1573.38 355.354,1340.23 357.407,1041.7 359.46,1396.29 361.512,1521.84 363.565,1077.69 365.618,1108.33 367.671,1215.84 369.724,1256.6 371.777,1181.39 373.83,1153.78 375.883,1170.12 377.936,1165.24 379.988,1139.93 382.041,1189.11 384.094,1144.32 386.147,951.259 388.2,1283.08 390.253,1184.77 392.306,1151.28 394.359,1146.94 396.412,1193.08 398.464,1175.2 400.517,1173.41 402.57,1132.38 404.623,1151.27 406.676,1139.59 408.729,1138.22 410.782,1324.63 412.835,1181.66 414.888,1166.64 416.94,1182.31 418.993,1246.58 421.046,701.713 423.099,1112.71 425.152,1183.24 427.205,1168.54 429.258,1215.53 431.311,1212.28 433.364,1144.06 435.417,1157.67 437.469,1176.07 439.522,1179.56 441.575,1205.29 443.628,1140.43 445.681,1174.46 447.734,1161.48 449.787,1167.17 451.84,1188.13 453.893,1139.92 455.945,1174.54 457.998,1159.61 460.051,1174.83 462.104,1162.85 464.157,1345.96 466.21,1124.91 468.263,1133.39 470.316,1180.74 472.369,1179.7 474.421,1163.56 476.474,1157.8 478.527,1153.44 480.58,1145.43 482.633,1118.44 484.686,1103.47 486.739,1074.08 488.792,1141.04 490.845,1172.21 492.897,1166.82 494.95,1194.57 497.003,1214.73 499.056,1139.4 501.109,1186.71 503.162,1239.48 505.215,1138.8 507.268,1162.72 509.321,1174.83 511.374,1174.9 513.426,1174.36 515.479,1150.31 517.532,1239.71 519.585,1344.65 521.638,1596.98 523.691,1244.63 525.744,1465.42 527.797,911.91 529.85,1402.15 531.902,1068.52 533.955,1226.11 536.008,979.976 538.061,1061.84 540.114,1138.95 542.167,1173.35 544.22,1153.13 546.273,1238.34 548.326,1160.76 550.378,1170.72 552.431,1005.89 554.484,1136.72 556.537,1149.26 558.59,1149.56 560.643,1161.04 562.696,1174.54 564.749,1163.96 566.802,1147.67 568.854,1156.48 570.907,1157.56 572.96,1164.92 575.013,1182.52 577.066,1095.66 579.119,1133.11 581.172,1142.46 583.225,1185.08 585.278,958.367 587.331,1006.27 589.383,1690.4 591.436,1804.17 593.489,892.263 595.542,1068.88 597.595,1074.14 599.648,1246.09 601.701,1465.6 603.754,1391.3 605.807,1070.9 607.859,1194.49 609.912,1176.96 611.965,1139.8 614.018,1142.29 616.071,1117.74 618.124,1115.95 620.177,1116.6 622.23,1143.57 624.283,1120.24 626.335,887.44 628.388,1068.09 630.441,1154.13 632.494,1197.86 634.547,1132.3 636.6,1185.04 638.653,1136.32 640.706,1065.05 642.759,946.204 644.811,1055.23 646.864,1202.16 648.917,1223.87 650.97,1164.59 653.023,1092.53 655.076,1052.32 657.129,1342.83 659.182,1241.46 661.235,1107.27 663.288,1161.25 665.34,1239.23 667.393,1058.53 669.446,1104.06 671.499,1135.44 673.552,1140.68 675.605,1211.74 677.658,1092.93 679.711,1144.49 681.764,1238.46 683.816,1056.46 685.869,2049.02 687.922,923.322 689.975,1222.1 692.028,1170.52 694.081,1279.39 696.134,1182.89 698.187,1165.99 700.24,1175.95 702.292,1148.46 704.345,1304.72 706.398,1267.09 708.451,1274.19 710.504,1207.9 712.557,1188.9 714.61,1175.81 716.663,1137.51 718.716,1225.58 720.768,1198.34 722.821,1191.44 724.874,1132.51 726.927,1133.91 728.98,1192.71 731.033,1156.19 733.086,1200.15 735.139,1188.88 737.192,1149.97 739.245,1180.11 741.297,1222.26 743.35,1195.36 745.403,1234.34 747.456,1195.23 749.509,1166.82 751.562,1197.45 753.615,1181.04 755.668,1157.02 757.721,1199.66 759.773,1203.64 761.826,1134.83 763.879,1121.8 765.932,1159.19 767.985,1128.09 770.038,1177.93 772.091,1163.32 774.144,1270.51 776.197,1137.33 778.249,1078.43 780.302,1072.47 782.355,1249.98 784.408,1111.83 786.461,1206.82 788.514,1149.52 790.567,1209.01 792.62,1201.01 794.673,1189.11 796.725,1524.94 798.778,1337.88 800.831,1303.65 802.884,1424.71 804.937,1105.13 806.99,1848.49 809.043,991.691 811.096,3094.55 813.149,3304.35 815.202,1158.75 817.254,1080.56 819.307,1194.12 821.36,1204.3 823.413,1204.74 825.466,1101.16 827.519,1117.82 829.572,914.153 831.625,1116.75 833.678,1214.76 835.73,1128.72 837.783,1206.92 839.836,1138.34 841.889,1119.43 843.942,1141.26 845.995,1182.35 848.048,1132.53 850.101,1162.18 852.154,1163.17 854.206,1145.81 856.259,956.233 858.312,996.898 860.365,1181.57 862.418,1151.86 864.471,1180.9 866.524,1182.17 868.577,1145.77 870.63,1188.56 872.682,1187.74 874.735,1168.42 876.788,1206.85 878.841,1221.49 880.894,1141.52 882.947,1131.17 885,1161.94 887.053,1138.03 889.106,1195.05 891.159,1185.07 893.211,1151.27 895.264,1214.92 897.317,1124.65 899.37,1142.37 901.423,1173.4 903.476,1110.08 905.529,1151.73 907.582,1154.92 909.635,1193.67 911.687,1134.4 913.74,1285.85 915.793,788.715 917.846,1094.48 919.899,1142.33 921.952,1234.42 924.005,1122.7 926.058,1128.67 928.111,1033.07 930.163,1260.72 932.216,1150.18 934.269,1053.46 936.322,1085.81 938.375,1207.95 940.428,887.583 942.481,-915.919 944.534,1771.94 946.587,1466.48 948.639,1465.61 950.692,1823.95 952.745,1424.37 954.798,1186.32 956.851,1123.33 958.904,1173 960.957,1158.6 963.01,1172.97 965.063,1175.79 967.116,1180.62 969.168,1177.11 971.221,1163.21 973.274,1167.39 975.327,1171.86 977.38,1099.79 979.433,1302.43 981.486,1108.74 983.539,1220.34 985.592,2130.03 987.644,270.43 989.697,1889.06 991.75,1226.25 993.803,1180.81 995.856,1160.52 997.909,1179.09 999.962,1144.29 1002.01,1310.41 1004.07,1191.85 1006.12,1169.11 1008.17,1149.58 1010.23,1173.26 1012.28,1191.5 1014.33,1122.26 1016.38,1211.31 1018.44,1066.95 1020.49,1168.09 1022.54,1180.83 1024.6,1223.19 1026.65,1141.33 1028.7,1241.68 1030.76,1219.42 1032.81,1099.01 1034.86,1140.1 1036.91,1134.59 1038.97,1230.2 1041.02,1237.94 1043.07,1116.46 1045.13,1165.88 1047.18,1126.6 1049.23,1192.25 1051.28,1201.71 1053.34,1183.81 1055.39,1182.71 1057.44,1213.64 1059.5,1144.46 1061.55,1209.34 1063.6,1110.14 1065.65,1206.03 1067.71,1254.74 1069.76,954.855 1071.81,1108.93 1073.87,1133.27 1075.92,1182.34 1077.97,1286.08 1080.02,1183.95 1082.08,1165.28 1084.13,1204.64 1086.18,1120.09 1088.24,1167.12 1090.29,1201.28 1092.34,1172.19 1094.39,1156.84 1096.45,1178.78 1098.5,1157.18 1100.55,1102.91 1102.61,1133.64 1104.66,813.081 1106.71,1112.84 1108.77,706.991 1110.82,1291.39 1112.87,1168.42 1114.92,1226.52 1116.98,1278 1119.03,1068.34 1121.08,1042.59 1123.14,1113.67 1125.19,1033.45 1127.24,1408.46 1129.29,1120.55 1131.35,1264.04 1133.4,1182.06 1135.45,1147.06 1137.51,1135.63 1139.56,1198.08 1141.61,1136.36 1143.66,1138.88 1145.72,1202.21 1147.77,1189.41 1149.82,1136.87 1151.88,1187.96 1153.93,1158.93 1155.98,1153.56 1158.03,1184.49 1160.09,1171.29 1162.14,1159.41 1164.19,1174.66 1166.25,1154.8 1168.3,1195.49 1170.35,1190.67 1172.4,1175.73 1174.46,1148.15 1176.51,1174.47 1178.56,1143.84 1180.62,1196.11 1182.67,1301.09 1184.72,1279.33 1186.77,1119.72 1188.83,1236.01 1190.88,1187.16 1192.93,1104.54 1194.99,1096.68 1197.04,1310.95 1199.09,1298.58 1201.15,964.731 1203.2,1281.29 1205.25,1104.93 1207.3,1103.37 1209.36,1221.44 1211.41,1180.54 1213.46,1213.98 1215.52,1211.83 1217.57,1007.84 1219.62,1356.13 1221.67,1491.73 1223.73,1174.35 1225.78,1247.31 1227.83,1281.8 1229.89,1251.63 1231.94,1105.09 1233.99,1168.76 1236.04,1165.68 1238.1,1199.37 1240.15,1148.59 1242.2,1141.15 1244.26,1172.02 1246.31,1087.88 1248.36,1188.31 1250.41,1230.27 1252.47,1215.65 1254.52,1387.12 1256.57,1105.1 1258.63,860.369 1260.68,960.15 1262.73,1264.87 1264.78,708.328 1266.84,-953.401 1268.89,231.295 1270.94,1188.45 1273,1177.45 1275.05,1165.92 1277.1,1264.08 1279.16,1208.74 1281.21,1222.26 1283.26,1148.84 1285.31,1132.3 1287.37,1184.69 1289.42,1162.21 1291.47,1172.85 1293.53,1148.7 1295.58,1281.83 1297.63,1694.81 1299.68,625.195 1301.74,1238.15 1303.79,1178.15 1305.84,1133.56 1307.9,1146.94 1309.95,1093.74 1312,1239.96 1314.05,1150.75 1316.11,1188.65 1318.16,1164.02 1320.21,1165.97 1322.27,1146.61 1324.32,1155.99 1326.37,1225.59 1328.42,1133.11 1330.48,1180.91 1332.53,1138.79 1334.58,1178.7 1336.64,1147.65 1338.69,1146.24 1340.74,1161.43 1342.79,1198.06 1344.85,1131.5 1346.9,1183.42 1348.95,1259.1 1351.01,1128.52 1353.06,1078.33 1355.11,1176.32 1357.16,1159.38 1359.22,1191.13 1361.27,1092.14 1363.32,1067.44 1365.38,1034.89 1367.43,1181.33 1369.48,1146.9 1371.54,1124.98 1373.59,1167.48 1375.64,1147.57 1377.69,1158.65 1379.75,1169.5 1381.8,1191.54 1383.85,1298.3 1385.91,1255.37 1387.96,1520.8 1390.01,1128.55 1392.06,1235.31 1394.12,956.853 1396.17,1366.19 1398.22,1272.25 1400.28,1207.09 1402.33,564.397 1404.38,2670.6 1406.43,3463.88 1408.49,1266.2 1410.54,1617.67 1412.59,975.938 1414.65,932.302 1416.7,1794.3 1418.75,920.901 1420.8,1286.47 1422.86,1208.66 1424.91,1250.88 1426.96,1103.12 1429.02,1227.95 1431.07,1314.44 1433.12,1286.37 1435.17,1188.89 1437.23,1156.69 1439.28,1145.5 1441.33,1199.9 1443.39,1196.55 1445.44,1149.66 1447.49,1347.76 1449.55,857.953 1451.6,1142.26 1453.65,1258.22 1455.7,1477.22 1457.76,1325.81 1459.81,685.029 1461.86,1177.31 1463.92,1177.93 1465.97,1208.08 1468.02,1143.27 1470.07,1205.83 1472.13,1185.8 1474.18,1176.08 1476.23,1184.99 1478.29,1212.1 1480.34,1046.82 1482.39,1109.3 1484.44,1190.74 1486.5,1180.4 1488.55,1093.49 1490.6,1150.55 1492.66,1175.05 1494.71,1174.88 1496.76,1153.03 1498.81,1180 1500.87,1128.95 1502.92,1183.02 1504.97,1144.15 1507.03,1122.44 1509.08,1147.57 1511.13,1163.02 1513.18,1121.06 1515.24,1192.3 1517.29,1185.06 1519.34,1148.57 1521.4,1139.36 1523.45,1189.35 1525.5,1159.17 1527.55,1158 1529.61,1153.22 1531.66,1127.13 1533.71,1178.57 1535.77,1168.69 1537.82,1191.69 1539.87,1121.71 1541.93,856.655 1543.98,1031.57 1546.03,1300.86 1548.08,695.275 1550.14,1681.96 1552.19,1061.2 1554.24,1164.31 1556.3,1141.86 1558.35,1102.55 1560.4,1361.83 1562.45,1242 1564.51,1196.47 1566.56,1163.5 1568.61,1162.01 1570.67,1157.43 1572.72,1142.74 1574.77,1176.56 1576.82,1185.86 1578.88,1125.92 1580.93,1126.84 1582.98,1157.21 1585.04,1163.44 1587.09,1173.36 1589.14,1204.27 1591.19,1085.13 1593.25,1222 1595.3,1131.96 1597.35,1276.15 1599.41,1145.73 1601.46,1226.67 1603.51,1119.95 1605.56,1157.04 1607.62,1262.4 1609.67,1112.54 1611.72,1160.49 1613.78,1056.47 1615.83,1179.22 1617.88,1153.1 1619.94,1144.05 1621.99,1148.54 1624.04,1070.23 1626.09,1177.36 1628.15,1096.01 1630.2,406.759 1632.25,2025.86 1634.31,1353.45 1636.36,1027.54 1638.41,1118.99 1640.46,1144.65 1642.52,1118.64 1644.57,839.529 1646.62,503.272 1648.68,1616.9 1650.73,1116.12 1652.78,1085.48 1654.83,998.101 1656.89,1669.67 1658.94,1095.14 1660.99,1221.22 1663.05,1132.4 1665.1,1253.77 1667.15,1190.61 1669.2,1118.21 1671.26,1165.73 1673.31,1158.44 1675.36,1173.14 1677.42,1161.43 1679.47,1180.12 1681.52,1170.55 1683.57,1174.53 1685.63,1210.1 1687.68,231.85 1689.73,1132.45 1691.79,1133.95 1693.84,888.018 1695.89,1396.75 1697.94,1237.82 1700,1246.12 1702.05,1170.3 1704.1,1175.39 1706.16,1145.37 1708.21,1168.82 1710.26,1166.17 1712.32,1186.02 1714.37,1137.33 1716.42,1031.34 1718.47,1006.69 1720.53,1017.53 1722.58,1299.34 1724.63,1082.58 1726.69,1017.86 1728.74,901.847 1730.79,1060.2 1732.84,1178.59 1734.9,1179.4 1736.95,1124.06 1739,896.368 1741.06,1309.19 1743.11,1155.4 1745.16,1118.29 1747.21,1151.16 1749.27,1159.05 1751.32,1164.02 1753.37,1176.32 1755.43,1164.55 1757.48,1194.6 1759.53,1216.78 1761.58,1160.52 1763.64,1125.41 1765.69,1262.19 1767.74,1210.39 1769.8,1198.95 1771.85,1141.85 1773.9,1138.88 1775.95,996.931 1778.01,1203.95 1780.06,1105.29 1782.11,1158.81 1784.17,1201.09 1786.22,1194.71 1788.27,1190.95 1790.33,1182.44 1792.38,1156.16 1794.43,1129.07 1796.48,1186.68 1798.54,1209.19 1800.59,1229.92 1802.64,1164.47 1804.7,1213.08 1806.75,1208.85 1808.8,1139.92 1810.85,1107.39 1812.91,1182.44 1814.96,1196.19 1817.01,1194.28 1819.07,1159.33 1821.12,1195.43 1823.17,1186.58 1825.22,1214.93 1827.28,1158.16 1829.33,1218.59 1831.38,1240.31 1833.44,1046.2 1835.49,1231.62 1837.54,1614.48 1839.59,1212.44 1841.65,1166.65 1843.7,1153.85 1845.75,1102.9 1847.81,1178.36 1849.86,1144.01 1851.91,1185.03 1853.96,1354.39 1856.02,1555.99 1858.07,3980.67 1860.12,1178.52 1862.18,1161.75 1864.23,1133.94 1866.28,1177.64 1868.34,1222.65 1870.39,1090.32 1872.44,1215.74 1874.49,1224.19 1876.55,1147.19 1878.6,1189.63 1880.65,1176.86 1882.71,1178.42 1884.76,1159.87 1886.81,1165.17 1888.86,1219.59 1890.92,1164.09 1892.97,1170.68 1895.02,1140.15 1897.08,1192.51 1899.13,1070.55 1901.18,1157.32 1903.23,1116.66 1905.29,1134.99 1907.34,1587.69 1909.39,1144.9 1911.45,1267.84 1913.5,1178.12 1915.55,1175.05 1917.6,1291.25 1919.66,1054.46 1921.71,1156.48 1923.76,1192.5 1925.82,1167.33 1927.87,1190.92 1929.92,1258.79 1931.97,1167.17 1934.03,1174.85 1936.08,1163.06 1938.13,1160.77 1940.19,1179.53 1942.24,1111.74 1944.29,1129.15 1946.34,1836.99 1948.4,1187.5 1950.45,1147.64 1952.5,1188.9 1954.56,1192.19 1956.61,984.954 1958.66,1112.91 1960.72,1235.12 1962.77,1149.32 1964.82,1179.61 1966.87,1175.44 1968.93,1165.89 1970.98,1162.46 1973.03,1172.05 1975.09,1173.65 1977.14,1188.76 1979.19,1182.52 1981.24,1129.1 1983.3,1180.01 1985.35,1137.58 1987.4,1198.94 1989.46,1132.6 1991.51,1170.13 1993.56,1155.13 1995.61,1172.89 1997.67,1162.54 1999.72,1162.42 2001.77,1188.1 2003.83,1173.96 2005.88,1164.97 2007.93,1150.74 2009.98,1183.52 2012.04,1077.05 2014.09,1201.2 2016.14,1180.99 2018.2,1181.78 2020.25,1183.56 2022.3,1185.77 2024.35,1217.59 2026.41,1295.43 2028.46,1096.5 2030.51,1085.19 2032.57,1200.97 2034.62,1054.68 2036.67,1221.73 2038.73,1136.03 2040.78,1179.79 2042.83,1177.78 2044.88,1179.14 2046.94,1175.04 2048.99,1270.13 2051.04,1237.23 2053.1,1096.37 2055.15,1237.75 2057.2,1211.51 2059.25,1030.25 2061.31,1005.02 2063.36,1361.38 2065.41,1332.46 2067.47,1229.03 2069.52,1172.87 2071.57,1005.14 2073.62,1067.02 2075.68,1042.09 2077.73,1146.03 2079.78,1196.53 2081.84,1157.27 2083.89,1171.57 2085.94,1173.02 2087.99,1162.03 2090.05,1163.51 2092.1,1168.59 2094.15,1170.17 2096.21,1145.1 2098.26,1137.59 2100.31,1188.71 2102.36,1103.13 2104.42,1182.59 2106.47,1257.88 2108.52,1213.54 2110.58,1224.59 2112.63,1177.48 2114.68,1132.5 2116.73,1168.99 2118.79,1170.65 2120.84,1177.26 2122.89,1191.79 2124.95,1109.46 2127,1220.32 2129.05,1218.64 2131.11,1147.1 2133.16,1186.11 2135.21,1192.97 2137.26,1235.5 2139.32,1187.85 2141.37,1221.5 2143.42,1242.13 2145.48,1215.31 2147.53,1233.12 2149.58,1163.16 2151.63,1264.68 2153.69,1070.94 2155.74,1234.97 2157.79,1271.08 2159.85,1295.11 2161.9,1283 2163.95,1340.22 2166,1078.34 2168.06,1134.62 2170.11,1079.89 2172.16,1128.84 2174.22,1116.76 2176.27,1087.66 2178.32,1071.68 2180.37,1264.39 2182.43,1240.48 2184.48,761.929 2186.53,1131.03 2188.59,1195.21 2190.64,1184.56 2192.69,1148.18 2194.74,1245.66 2196.8,1189.23 2198.85,1163.56 2200.9,1204.57 2202.96,760.344 2205.01,736.172 2207.06,1057.79 2209.12,1172.54 2211.17,1067.3 2213.22,1124.64 2215.27,1143.05 2217.33,1180.99 2219.38,1185.13 2221.43,1131.81 2223.49,1180.6 2225.54,1180.42 2227.59,1306.38 2229.64,1235.17 2231.7,1075.79 2233.75,1254.05 2235.8,1091.05 2237.86,1100.9 2239.91,1145.74 2241.96,1148.54 2244.01,1137.6 2246.07,1194.25 2248.12,1145.39 2250.17,1118.86 2252.23,1131.1 2254.28,1198.76 2256.33,1227.51 2258.38,1168.57 2260.44,1167.49 2262.49,1179.76 2264.54,1248.94 2266.6,1263.08 2268.65,1165.84 2270.7,1056.49 2272.75,1358.97 2274.81,1172.38 2276.86,1157.86 2278.91,1172.06 2280.97,1187.18 2283.02,1152.65 2285.07,1213.39 2287.12,1321.49 2289.18,1044.83 2291.23,1142.04 "/>
<path clip-path="url(#clip780)" d="M1942.7 972.231 L2280.29 972.231 L2280.29 868.551 L1942.7 868.551  Z" fill="#ffffff" fill-rule="evenodd" fill-opacity="1"/>
<polyline clip-path="url(#clip780)" style="stroke:#000000; stroke-linecap:round; stroke-linejoin:round; stroke-width:4; stroke-opacity:1; fill:none" points="1942.7,972.231 2280.29,972.231 2280.29,868.551 1942.7,868.551 1942.7,972.231 "/>
<polyline clip-path="url(#clip780)" style="stroke:#009af9; stroke-linecap:round; stroke-linejoin:round; stroke-width:4; stroke-opacity:1; fill:none" points="1966.85,920.391 2111.78,920.391 "/>
<path clip-path="url(#clip780)" d="M2161.49 932.74 L2161.49 923.458 L2153.85 923.458 L2153.85 919.615 L2166.12 919.615 L2166.12 934.453 Q2163.41 936.375 2160.14 937.37 Q2156.88 938.342 2153.18 938.342 Q2145.07 938.342 2140.49 933.62 Q2135.93 928.875 2135.93 920.426 Q2135.93 911.953 2140.49 907.231 Q2145.07 902.486 2153.18 902.486 Q2156.56 902.486 2159.59 903.319 Q2162.64 904.153 2165.21 905.773 L2165.21 910.75 Q2162.62 908.551 2159.7 907.44 Q2156.79 906.328 2153.57 906.328 Q2147.23 906.328 2144.03 909.87 Q2140.86 913.412 2140.86 920.426 Q2140.86 927.416 2144.03 930.958 Q2147.23 934.5 2153.57 934.5 Q2156.05 934.5 2157.99 934.083 Q2159.94 933.643 2161.49 932.74 Z" fill="#000000" fill-rule="nonzero" fill-opacity="1" /><path clip-path="url(#clip780)" d="M2179.33 906.953 L2179.33 919.94 L2185.21 919.94 Q2188.48 919.94 2190.26 918.25 Q2192.04 916.56 2192.04 913.435 Q2192.04 910.333 2190.26 908.643 Q2188.48 906.953 2185.21 906.953 L2179.33 906.953 M2174.66 903.111 L2185.21 903.111 Q2191.02 903.111 2193.99 905.75 Q2196.97 908.365 2196.97 913.435 Q2196.97 918.551 2193.99 921.166 Q2191.02 923.782 2185.21 923.782 L2179.33 923.782 L2179.33 937.671 L2174.66 937.671 L2174.66 903.111 Z" fill="#000000" fill-rule="nonzero" fill-opacity="1" /><path clip-path="url(#clip780)" d="M2223.96 904.245 L2223.96 908.805 Q2221.3 907.532 2218.94 906.907 Q2216.58 906.282 2214.38 906.282 Q2210.56 906.282 2208.48 907.764 Q2206.42 909.245 2206.42 911.977 Q2206.42 914.268 2207.78 915.449 Q2209.17 916.606 2213.01 917.324 L2215.84 917.902 Q2221.07 918.898 2223.55 921.421 Q2226.05 923.921 2226.05 928.134 Q2226.05 933.157 2222.67 935.75 Q2219.31 938.342 2212.81 938.342 Q2210.35 938.342 2207.57 937.787 Q2204.82 937.231 2201.86 936.143 L2201.86 931.328 Q2204.7 932.926 2207.44 933.736 Q2210.17 934.546 2212.81 934.546 Q2216.81 934.546 2218.99 932.972 Q2221.16 931.398 2221.16 928.481 Q2221.16 925.935 2219.59 924.5 Q2218.04 923.064 2214.47 922.347 L2211.62 921.791 Q2206.39 920.75 2204.06 918.527 Q2201.72 916.305 2201.72 912.347 Q2201.72 907.764 2204.94 905.125 Q2208.18 902.486 2213.85 902.486 Q2216.28 902.486 2218.8 902.926 Q2221.32 903.366 2223.96 904.245 Z" fill="#000000" fill-rule="nonzero" fill-opacity="1" /><path clip-path="url(#clip780)" d="M2254.06 904.245 L2254.06 908.805 Q2251.39 907.532 2249.03 906.907 Q2246.67 906.282 2244.47 906.282 Q2240.65 906.282 2238.57 907.764 Q2236.51 909.245 2236.51 911.977 Q2236.51 914.268 2237.87 915.449 Q2239.26 916.606 2243.11 917.324 L2245.93 917.902 Q2251.16 918.898 2253.64 921.421 Q2256.14 923.921 2256.14 928.134 Q2256.14 933.157 2252.76 935.75 Q2249.4 938.342 2242.9 938.342 Q2240.44 938.342 2237.67 937.787 Q2234.91 937.231 2231.95 936.143 L2231.95 931.328 Q2234.8 932.926 2237.53 933.736 Q2240.26 934.546 2242.9 934.546 Q2246.9 934.546 2249.08 932.972 Q2251.25 931.398 2251.25 928.481 Q2251.25 925.935 2249.68 924.5 Q2248.13 923.064 2244.56 922.347 L2241.72 921.791 Q2236.49 920.75 2234.15 918.527 Q2231.81 916.305 2231.81 912.347 Q2231.81 907.764 2235.03 905.125 Q2238.27 902.486 2243.94 902.486 Q2246.37 902.486 2248.89 902.926 Q2251.42 903.366 2254.06 904.245 Z" fill="#000000" fill-rule="nonzero" fill-opacity="1" /></svg>
