<?xml version="1.0" encoding="utf-8"?>
<svg xmlns="http://www.w3.org/2000/svg" xmlns:xlink="http://www.w3.org/1999/xlink" width="600" height="400" viewBox="0 0 2400 1600">
<defs>
  <clipPath id="clip210">
    <rect x="0" y="0" width="2400" height="1600"/>
  </clipPath>
</defs>
<path clip-path="url(#clip210)" d="M0 1600 L2400 1600 L2400 0 L0 0  Z" fill="#ffffff" fill-rule="evenodd" fill-opacity="1"/>
<defs>
  <clipPath id="clip211">
    <rect x="480" y="0" width="1681" height="1600"/>
  </clipPath>
</defs>
<path clip-path="url(#clip210)" d="M156.112 1486.45 L2352.76 1486.45 L2352.76 47.2441 L156.112 47.2441  Z" fill="#ffffff" fill-rule="evenodd" fill-opacity="1"/>
<defs>
  <clipPath id="clip212">
    <rect x="156" y="47" width="2198" height="1440"/>
  </clipPath>
</defs>
<polyline clip-path="url(#clip212)" style="stroke:#000000; stroke-linecap:round; stroke-linejoin:round; stroke-width:2; stroke-opacity:0.1; fill:none" points="218.281,1486.45 218.281,47.2441 "/>
<polyline clip-path="url(#clip212)" style="stroke:#000000; stroke-linecap:round; stroke-linejoin:round; stroke-width:2; stroke-opacity:0.1; fill:none" points="736.358,1486.45 736.358,47.2441 "/>
<polyline clip-path="url(#clip212)" style="stroke:#000000; stroke-linecap:round; stroke-linejoin:round; stroke-width:2; stroke-opacity:0.1; fill:none" points="1254.43,1486.45 1254.43,47.2441 "/>
<polyline clip-path="url(#clip212)" style="stroke:#000000; stroke-linecap:round; stroke-linejoin:round; stroke-width:2; stroke-opacity:0.1; fill:none" points="1772.51,1486.45 1772.51,47.2441 "/>
<polyline clip-path="url(#clip212)" style="stroke:#000000; stroke-linecap:round; stroke-linejoin:round; stroke-width:2; stroke-opacity:0.1; fill:none" points="2290.59,1486.45 2290.59,47.2441 "/>
<polyline clip-path="url(#clip210)" style="stroke:#000000; stroke-linecap:round; stroke-linejoin:round; stroke-width:4; stroke-opacity:1; fill:none" points="156.112,1486.45 2352.76,1486.45 "/>
<polyline clip-path="url(#clip210)" style="stroke:#000000; stroke-linecap:round; stroke-linejoin:round; stroke-width:4; stroke-opacity:1; fill:none" points="218.281,1486.45 218.281,1467.55 "/>
<polyline clip-path="url(#clip210)" style="stroke:#000000; stroke-linecap:round; stroke-linejoin:round; stroke-width:4; stroke-opacity:1; fill:none" points="736.358,1486.45 736.358,1467.55 "/>
<polyline clip-path="url(#clip210)" style="stroke:#000000; stroke-linecap:round; stroke-linejoin:round; stroke-width:4; stroke-opacity:1; fill:none" points="1254.43,1486.45 1254.43,1467.55 "/>
<polyline clip-path="url(#clip210)" style="stroke:#000000; stroke-linecap:round; stroke-linejoin:round; stroke-width:4; stroke-opacity:1; fill:none" points="1772.51,1486.45 1772.51,1467.55 "/>
<polyline clip-path="url(#clip210)" style="stroke:#000000; stroke-linecap:round; stroke-linejoin:round; stroke-width:4; stroke-opacity:1; fill:none" points="2290.59,1486.45 2290.59,1467.55 "/>
<path clip-path="url(#clip210)" d="M172.344 1532.02 L202.02 1532.02 L202.02 1535.95 L172.344 1535.95 L172.344 1532.02 Z" fill="#000000" fill-rule="nonzero" fill-opacity="1" /><path clip-path="url(#clip210)" d="M212.923 1544.91 L220.561 1544.91 L220.561 1518.55 L212.251 1520.21 L212.251 1515.95 L220.515 1514.29 L225.191 1514.29 L225.191 1544.91 L232.83 1544.91 L232.83 1548.85 L212.923 1548.85 L212.923 1544.91 Z" fill="#000000" fill-rule="nonzero" fill-opacity="1" /><path clip-path="url(#clip210)" d="M252.274 1517.37 Q248.663 1517.37 246.834 1520.93 Q245.029 1524.47 245.029 1531.6 Q245.029 1538.71 246.834 1542.27 Q248.663 1545.82 252.274 1545.82 Q255.908 1545.82 257.714 1542.27 Q259.543 1538.71 259.543 1531.6 Q259.543 1524.47 257.714 1520.93 Q255.908 1517.37 252.274 1517.37 M252.274 1513.66 Q258.084 1513.66 261.14 1518.27 Q264.219 1522.85 264.219 1531.6 Q264.219 1540.33 261.14 1544.94 Q258.084 1549.52 252.274 1549.52 Q246.464 1549.52 243.385 1544.94 Q240.33 1540.33 240.33 1531.6 Q240.33 1522.85 243.385 1518.27 Q246.464 1513.66 252.274 1513.66 Z" fill="#000000" fill-rule="nonzero" fill-opacity="1" /><path clip-path="url(#clip210)" d="M705.999 1532.02 L735.675 1532.02 L735.675 1535.95 L705.999 1535.95 L705.999 1532.02 Z" fill="#000000" fill-rule="nonzero" fill-opacity="1" /><path clip-path="url(#clip210)" d="M745.814 1514.29 L764.17 1514.29 L764.17 1518.22 L750.096 1518.22 L750.096 1526.7 Q751.115 1526.35 752.133 1526.19 Q753.152 1526 754.17 1526 Q759.957 1526 763.337 1529.17 Q766.716 1532.34 766.716 1537.76 Q766.716 1543.34 763.244 1546.44 Q759.772 1549.52 753.452 1549.52 Q751.277 1549.52 749.008 1549.15 Q746.763 1548.78 744.355 1548.04 L744.355 1543.34 Q746.439 1544.47 748.661 1545.03 Q750.883 1545.58 753.36 1545.58 Q757.364 1545.58 759.702 1543.48 Q762.04 1541.37 762.04 1537.76 Q762.04 1534.15 759.702 1532.04 Q757.364 1529.94 753.36 1529.94 Q751.485 1529.94 749.61 1530.35 Q747.758 1530.77 745.814 1531.65 L745.814 1514.29 Z" fill="#000000" fill-rule="nonzero" fill-opacity="1" /><path clip-path="url(#clip210)" d="M1254.43 1517.37 Q1250.82 1517.37 1248.99 1520.93 Q1247.19 1524.47 1247.19 1531.6 Q1247.19 1538.71 1248.99 1542.27 Q1250.82 1545.82 1254.43 1545.82 Q1258.07 1545.82 1259.87 1542.27 Q1261.7 1538.71 1261.7 1531.6 Q1261.7 1524.47 1259.87 1520.93 Q1258.07 1517.37 1254.43 1517.37 M1254.43 1513.66 Q1260.24 1513.66 1263.3 1518.27 Q1266.38 1522.85 1266.38 1531.6 Q1266.38 1540.33 1263.3 1544.94 Q1260.24 1549.52 1254.43 1549.52 Q1248.62 1549.52 1245.55 1544.94 Q1242.49 1540.33 1242.49 1531.6 Q1242.49 1522.85 1245.55 1518.27 Q1248.62 1513.66 1254.43 1513.66 Z" fill="#000000" fill-rule="nonzero" fill-opacity="1" /><path clip-path="url(#clip210)" d="M1762.79 1514.29 L1781.14 1514.29 L1781.14 1518.22 L1767.07 1518.22 L1767.07 1526.7 Q1768.09 1526.35 1769.11 1526.19 Q1770.13 1526 1771.14 1526 Q1776.93 1526 1780.31 1529.17 Q1783.69 1532.34 1783.69 1537.76 Q1783.69 1543.34 1780.22 1546.44 Q1776.75 1549.52 1770.43 1549.52 Q1768.25 1549.52 1765.98 1549.15 Q1763.74 1548.78 1761.33 1548.04 L1761.33 1543.34 Q1763.41 1544.47 1765.64 1545.03 Q1767.86 1545.58 1770.33 1545.58 Q1774.34 1545.58 1776.68 1543.48 Q1779.01 1541.37 1779.01 1537.76 Q1779.01 1534.15 1776.68 1532.04 Q1774.34 1529.94 1770.33 1529.94 Q1768.46 1529.94 1766.58 1530.35 Q1764.73 1530.77 1762.79 1531.65 L1762.79 1514.29 Z" fill="#000000" fill-rule="nonzero" fill-opacity="1" /><path clip-path="url(#clip210)" d="M2265.27 1544.91 L2272.91 1544.91 L2272.91 1518.55 L2264.6 1520.21 L2264.6 1515.95 L2272.87 1514.29 L2277.54 1514.29 L2277.54 1544.91 L2285.18 1544.91 L2285.18 1548.85 L2265.27 1548.85 L2265.27 1544.91 Z" fill="#000000" fill-rule="nonzero" fill-opacity="1" /><path clip-path="url(#clip210)" d="M2304.63 1517.37 Q2301.01 1517.37 2299.19 1520.93 Q2297.38 1524.47 2297.38 1531.6 Q2297.38 1538.71 2299.19 1542.27 Q2301.01 1545.82 2304.63 1545.82 Q2308.26 1545.82 2310.07 1542.27 Q2311.89 1538.71 2311.89 1531.6 Q2311.89 1524.47 2310.07 1520.93 Q2308.26 1517.37 2304.63 1517.37 M2304.63 1513.66 Q2310.44 1513.66 2313.49 1518.27 Q2316.57 1522.85 2316.57 1531.6 Q2316.57 1540.33 2313.49 1544.94 Q2310.44 1549.52 2304.63 1549.52 Q2298.82 1549.52 2295.74 1544.94 Q2292.68 1540.33 2292.68 1531.6 Q2292.68 1522.85 2295.74 1518.27 Q2298.82 1513.66 2304.63 1513.66 Z" fill="#000000" fill-rule="nonzero" fill-opacity="1" /><polyline clip-path="url(#clip212)" style="stroke:#000000; stroke-linecap:round; stroke-linejoin:round; stroke-width:2; stroke-opacity:0.1; fill:none" points="156.112,1445.72 2352.76,1445.72 "/>
<polyline clip-path="url(#clip212)" style="stroke:#000000; stroke-linecap:round; stroke-linejoin:round; stroke-width:2; stroke-opacity:0.1; fill:none" points="156.112,1021.42 2352.76,1021.42 "/>
<polyline clip-path="url(#clip212)" style="stroke:#000000; stroke-linecap:round; stroke-linejoin:round; stroke-width:2; stroke-opacity:0.1; fill:none" points="156.112,597.129 2352.76,597.129 "/>
<polyline clip-path="url(#clip212)" style="stroke:#000000; stroke-linecap:round; stroke-linejoin:round; stroke-width:2; stroke-opacity:0.1; fill:none" points="156.112,172.835 2352.76,172.835 "/>
<polyline clip-path="url(#clip210)" style="stroke:#000000; stroke-linecap:round; stroke-linejoin:round; stroke-width:4; stroke-opacity:1; fill:none" points="156.112,1486.45 156.112,47.2441 "/>
<polyline clip-path="url(#clip210)" style="stroke:#000000; stroke-linecap:round; stroke-linejoin:round; stroke-width:4; stroke-opacity:1; fill:none" points="156.112,1445.72 175.01,1445.72 "/>
<polyline clip-path="url(#clip210)" style="stroke:#000000; stroke-linecap:round; stroke-linejoin:round; stroke-width:4; stroke-opacity:1; fill:none" points="156.112,1021.42 175.01,1021.42 "/>
<polyline clip-path="url(#clip210)" style="stroke:#000000; stroke-linecap:round; stroke-linejoin:round; stroke-width:4; stroke-opacity:1; fill:none" points="156.112,597.129 175.01,597.129 "/>
<polyline clip-path="url(#clip210)" style="stroke:#000000; stroke-linecap:round; stroke-linejoin:round; stroke-width:4; stroke-opacity:1; fill:none" points="156.112,172.835 175.01,172.835 "/>
<path clip-path="url(#clip210)" d="M62.9365 1431.51 Q59.3254 1431.51 57.4967 1435.08 Q55.6912 1438.62 55.6912 1445.75 Q55.6912 1452.86 57.4967 1456.42 Q59.3254 1459.96 62.9365 1459.96 Q66.5707 1459.96 68.3763 1456.42 Q70.205 1452.86 70.205 1445.75 Q70.205 1438.62 68.3763 1435.08 Q66.5707 1431.51 62.9365 1431.51 M62.9365 1427.81 Q68.7467 1427.81 71.8022 1432.42 Q74.8809 1437 74.8809 1445.75 Q74.8809 1454.48 71.8022 1459.08 Q68.7467 1463.67 62.9365 1463.67 Q57.1264 1463.67 54.0477 1459.08 Q50.9921 1454.48 50.9921 1445.75 Q50.9921 1437 54.0477 1432.42 Q57.1264 1427.81 62.9365 1427.81 Z" fill="#000000" fill-rule="nonzero" fill-opacity="1" /><path clip-path="url(#clip210)" d="M83.0984 1457.12 L87.9827 1457.12 L87.9827 1463 L83.0984 1463 L83.0984 1457.12 Z" fill="#000000" fill-rule="nonzero" fill-opacity="1" /><path clip-path="url(#clip210)" d="M108.168 1431.51 Q104.557 1431.51 102.728 1435.08 Q100.922 1438.62 100.922 1445.75 Q100.922 1452.86 102.728 1456.42 Q104.557 1459.96 108.168 1459.96 Q111.802 1459.96 113.608 1456.42 Q115.436 1452.86 115.436 1445.75 Q115.436 1438.62 113.608 1435.08 Q111.802 1431.51 108.168 1431.51 M108.168 1427.81 Q113.978 1427.81 117.033 1432.42 Q120.112 1437 120.112 1445.75 Q120.112 1454.48 117.033 1459.08 Q113.978 1463.67 108.168 1463.67 Q102.358 1463.67 99.2789 1459.08 Q96.2234 1454.48 96.2234 1445.75 Q96.2234 1437 99.2789 1432.42 Q102.358 1427.81 108.168 1427.81 Z" fill="#000000" fill-rule="nonzero" fill-opacity="1" /><path clip-path="url(#clip210)" d="M64.1634 1007.22 Q60.5523 1007.22 58.7236 1010.79 Q56.918 1014.33 56.918 1021.46 Q56.918 1028.56 58.7236 1032.13 Q60.5523 1035.67 64.1634 1035.67 Q67.7976 1035.67 69.6031 1032.13 Q71.4318 1028.56 71.4318 1021.46 Q71.4318 1014.33 69.6031 1010.79 Q67.7976 1007.22 64.1634 1007.22 M64.1634 1003.52 Q69.9735 1003.52 73.029 1008.12 Q76.1077 1012.71 76.1077 1021.46 Q76.1077 1030.18 73.029 1034.79 Q69.9735 1039.37 64.1634 1039.37 Q58.3532 1039.37 55.2745 1034.79 Q52.219 1030.18 52.219 1021.46 Q52.219 1012.71 55.2745 1008.12 Q58.3532 1003.52 64.1634 1003.52 Z" fill="#000000" fill-rule="nonzero" fill-opacity="1" /><path clip-path="url(#clip210)" d="M84.3253 1032.82 L89.2095 1032.82 L89.2095 1038.7 L84.3253 1038.7 L84.3253 1032.82 Z" fill="#000000" fill-rule="nonzero" fill-opacity="1" /><path clip-path="url(#clip210)" d="M100.205 1034.77 L107.844 1034.77 L107.844 1008.4 L99.5335 1010.07 L99.5335 1005.81 L107.797 1004.14 L112.473 1004.14 L112.473 1034.77 L120.112 1034.77 L120.112 1038.7 L100.205 1038.7 L100.205 1034.77 Z" fill="#000000" fill-rule="nonzero" fill-opacity="1" /><path clip-path="url(#clip210)" d="M64.5337 582.927 Q60.9226 582.927 59.0939 586.492 Q57.2884 590.034 57.2884 597.163 Q57.2884 604.27 59.0939 607.835 Q60.9226 611.376 64.5337 611.376 Q68.168 611.376 69.9735 607.835 Q71.8022 604.27 71.8022 597.163 Q71.8022 590.034 69.9735 586.492 Q68.168 582.927 64.5337 582.927 M64.5337 579.224 Q70.3439 579.224 73.3994 583.83 Q76.4781 588.413 76.4781 597.163 Q76.4781 605.89 73.3994 610.497 Q70.3439 615.08 64.5337 615.08 Q58.7236 615.08 55.6449 610.497 Q52.5893 605.89 52.5893 597.163 Q52.5893 588.413 55.6449 583.83 Q58.7236 579.224 64.5337 579.224 Z" fill="#000000" fill-rule="nonzero" fill-opacity="1" /><path clip-path="url(#clip210)" d="M84.6956 608.529 L89.5799 608.529 L89.5799 614.409 L84.6956 614.409 L84.6956 608.529 Z" fill="#000000" fill-rule="nonzero" fill-opacity="1" /><path clip-path="url(#clip210)" d="M103.793 610.473 L120.112 610.473 L120.112 614.409 L98.1678 614.409 L98.1678 610.473 Q100.83 607.719 105.413 603.089 Q110.02 598.436 111.2 597.094 Q113.445 594.571 114.325 592.835 Q115.228 591.075 115.228 589.386 Q115.228 586.631 113.283 584.895 Q111.362 583.159 108.26 583.159 Q106.061 583.159 103.608 583.923 Q101.177 584.686 98.3993 586.237 L98.3993 581.515 Q101.223 580.381 103.677 579.802 Q106.131 579.224 108.168 579.224 Q113.538 579.224 116.733 581.909 Q119.927 584.594 119.927 589.085 Q119.927 591.214 119.117 593.136 Q118.33 595.034 116.223 597.626 Q115.645 598.298 112.543 601.515 Q109.441 604.71 103.793 610.473 Z" fill="#000000" fill-rule="nonzero" fill-opacity="1" /><path clip-path="url(#clip210)" d="M63.5847 158.634 Q59.9736 158.634 58.1449 162.198 Q56.3393 165.74 56.3393 172.87 Q56.3393 179.976 58.1449 183.541 Q59.9736 187.083 63.5847 187.083 Q67.2189 187.083 69.0244 183.541 Q70.8531 179.976 70.8531 172.87 Q70.8531 165.74 69.0244 162.198 Q67.2189 158.634 63.5847 158.634 M63.5847 154.93 Q69.3948 154.93 72.4503 159.536 Q75.529 164.12 75.529 172.87 Q75.529 181.597 72.4503 186.203 Q69.3948 190.786 63.5847 190.786 Q57.7745 190.786 54.6958 186.203 Q51.6403 181.597 51.6403 172.87 Q51.6403 164.12 54.6958 159.536 Q57.7745 154.93 63.5847 154.93 Z" fill="#000000" fill-rule="nonzero" fill-opacity="1" /><path clip-path="url(#clip210)" d="M83.7466 184.235 L88.6308 184.235 L88.6308 190.115 L83.7466 190.115 L83.7466 184.235 Z" fill="#000000" fill-rule="nonzero" fill-opacity="1" /><path clip-path="url(#clip210)" d="M112.983 171.481 Q116.339 172.198 118.214 174.467 Q120.112 176.735 120.112 180.069 Q120.112 185.184 116.594 187.985 Q113.075 190.786 106.594 190.786 Q104.418 190.786 102.103 190.346 Q99.8113 189.93 97.3576 189.073 L97.3576 184.559 Q99.3021 185.694 101.617 186.272 Q103.932 186.851 106.455 186.851 Q110.853 186.851 113.145 185.115 Q115.459 183.379 115.459 180.069 Q115.459 177.013 113.307 175.3 Q111.177 173.564 107.358 173.564 L103.33 173.564 L103.33 169.722 L107.543 169.722 Q110.992 169.722 112.82 168.356 Q114.649 166.967 114.649 164.374 Q114.649 161.712 112.751 160.3 Q110.876 158.865 107.358 158.865 Q105.436 158.865 103.237 159.282 Q101.038 159.698 98.3993 160.578 L98.3993 156.411 Q101.061 155.671 103.376 155.3 Q105.714 154.93 107.774 154.93 Q113.098 154.93 116.2 157.361 Q119.302 159.768 119.302 163.888 Q119.302 166.759 117.658 168.749 Q116.015 170.717 112.983 171.481 Z" fill="#000000" fill-rule="nonzero" fill-opacity="1" /><polyline clip-path="url(#clip212)" style="stroke:#009af9; stroke-linecap:round; stroke-linejoin:round; stroke-width:12; stroke-opacity:1; fill:none" points="218.281,1445.72 218.281,1428.56 321.897,1428.56 321.897,1427.21 425.512,1427.21 425.512,1419.08 529.127,1419.08 529.127,1406.44 632.742,1406.44 632.742,1403.73 736.358,1403.73 736.358,1382.06 839.973,1382.06 839.973,1324.27 943.588,1324.27 943.588,1265.58 1047.2,1265.58 1047.2,975.733 1150.82,975.733 1150.82,329.225 1254.43,329.225 1254.43,291.753 1358.05,291.753 1358.05,987.471 1461.66,987.471 1461.66,1245.71 1565.28,1245.71 1565.28,1319.3 1668.9,1319.3 1668.9,1384.77 1772.51,1384.77 1772.51,1402.37 1876.13,1402.37 1876.13,1409.15 1979.74,1409.15 1979.74,1416.37 2083.36,1416.37 2083.36,1422.69 2186.97,1422.69 2186.97,1429.91 2290.59,1429.91 2290.59,1445.72 "/>
<path clip-path="url(#clip212)" d="M218.281 1445.72 L218.281 1445.72 L321.897 1445.72 L321.897 1445.72 L425.512 1445.72 L425.512 1445.72 L529.127 1445.72 L529.127 1445.72 L632.742 1445.72 L632.742 1424.5 L736.358 1424.5 L736.358 1386.31 L839.973 1386.31 L839.973 1390.56 L943.588 1390.56 L943.588 1326.91 L1047.2 1326.91 L1047.2 1025.67 L1150.82 1025.67 L1150.82 87.9763 L1254.43 87.9763 L1254.43 244.965 L1358.05 244.965 L1358.05 779.575 L1461.66 779.575 L1461.66 1292.97 L1565.28 1292.97 L1565.28 1348.13 L1668.9 1348.13 L1668.9 1382.07 L1772.51 1382.07 L1772.51 1428.74 L1876.13 1428.74 L1876.13 1432.99 L1979.74 1432.99 L1979.74 1445.72 L2083.36 1445.72 L2083.36 1445.72 L2186.97 1445.72 L2186.97 1445.72 L2290.59 1445.72 L2290.59 1445.72 L2186.97 1445.72 L2186.97 1445.72 L2083.36 1445.72 L2083.36 1445.72 L1979.74 1445.72 L1979.74 1445.72 L1876.13 1445.72 L1876.13 1445.72 L1772.51 1445.72 L1772.51 1445.72 L1668.9 1445.72 L1668.9 1445.72 L1565.28 1445.72 L1565.28 1445.72 L1461.66 1445.72 L1461.66 1445.72 L1358.05 1445.72 L1358.05 1445.72 L1254.43 1445.72 L1254.43 1445.72 L1150.82 1445.72 L1150.82 1445.72 L1047.2 1445.72 L1047.2 1445.72 L943.588 1445.72 L943.588 1445.72 L839.973 1445.72 L839.973 1445.72 L736.358 1445.72 L736.358 1445.72 L632.742 1445.72 L632.742 1445.72 L529.127 1445.72 L529.127 1445.72 L425.512 1445.72 L425.512 1445.72 L321.897 1445.72 L321.897 1445.72 L218.281 1445.72 L218.281 1445.72  Z" fill="#e26f46" fill-rule="evenodd" fill-opacity="0.5"/>
<polyline clip-path="url(#clip212)" style="stroke:#e26f46; stroke-linecap:round; stroke-linejoin:round; stroke-width:4; stroke-opacity:0.5; fill:none" points="218.281,1445.72 218.281,1445.72 321.897,1445.72 425.512,1445.72 529.127,1445.72 632.742,1445.72 632.742,1424.5 736.358,1424.5 736.358,1386.31 839.973,1386.31 839.973,1390.56 943.588,1390.56 943.588,1326.91 1047.2,1326.91 1047.2,1025.67 1150.82,1025.67 1150.82,87.9763 1254.43,87.9763 1254.43,244.965 1358.05,244.965 1358.05,779.575 1461.66,779.575 1461.66,1292.97 1565.28,1292.97 1565.28,1348.13 1668.9,1348.13 1668.9,1382.07 1772.51,1382.07 1772.51,1428.74 1876.13,1428.74 1876.13,1432.99 1979.74,1432.99 1979.74,1445.72 2083.36,1445.72 2186.97,1445.72 2290.59,1445.72 "/>
<path clip-path="url(#clip212)" d="M218.281 1445.72 L218.281 1436.85 L321.897 1436.85 L321.897 1419.11 L425.512 1419.11 L425.512 1414.68 L529.127 1414.68 L529.127 1410.25 L632.742 1410.25 L632.742 1392.51 L736.358 1392.51 L736.358 1361.48 L839.973 1361.48 L839.973 1321.58 L943.588 1321.58 L943.588 1241.77 L1047.2 1241.77 L1047.2 980.19 L1150.82 980.19 L1150.82 279.684 L1254.43 279.684 L1254.43 399.391 L1358.05 399.391 L1358.05 1011.22 L1461.66 1011.22 L1461.66 1241.77 L1565.28 1241.77 L1565.28 1326.01 L1668.9 1326.01 L1668.9 1365.91 L1772.51 1365.91 L1772.51 1405.81 L1876.13 1405.81 L1876.13 1427.98 L1979.74 1427.98 L1979.74 1401.38 L2083.36 1401.38 L2083.36 1419.11 L2186.97 1419.11 L2186.97 1414.68 L2290.59 1414.68 L2290.59 1445.72 L2290.59 1445.72 L2290.59 1445.72 L2186.97 1445.72 L2186.97 1445.72 L2083.36 1445.72 L2083.36 1445.72 L1979.74 1445.72 L1979.74 1445.72 L1876.13 1445.72 L1876.13 1445.72 L1772.51 1445.72 L1772.51 1445.72 L1668.9 1445.72 L1668.9 1445.72 L1565.28 1445.72 L1565.28 1445.72 L1461.66 1445.72 L1461.66 1445.72 L1358.05 1445.72 L1358.05 1445.72 L1254.43 1445.72 L1254.43 1445.72 L1150.82 1445.72 L1150.82 1445.72 L1047.2 1445.72 L1047.2 1445.72 L943.588 1445.72 L943.588 1445.72 L839.973 1445.72 L839.973 1445.72 L736.358 1445.72 L736.358 1445.72 L632.742 1445.72 L632.742 1445.72 L529.127 1445.72 L529.127 1445.72 L425.512 1445.72 L425.512 1445.72 L321.897 1445.72 L321.897 1445.72 L218.281 1445.72 L218.281 1445.72  Z" fill="#3da44d" fill-rule="evenodd" fill-opacity="0.5"/>
<polyline clip-path="url(#clip212)" style="stroke:#3da44d; stroke-linecap:round; stroke-linejoin:round; stroke-width:4; stroke-opacity:0.5; fill:none" points="218.281,1445.72 218.281,1436.85 321.897,1436.85 321.897,1419.11 425.512,1419.11 425.512,1414.68 529.127,1414.68 529.127,1410.25 632.742,1410.25 632.742,1392.51 736.358,1392.51 736.358,1361.48 839.973,1361.48 839.973,1321.58 943.588,1321.58 943.588,1241.77 1047.2,1241.77 1047.2,980.19 1150.82,980.19 1150.82,279.684 1254.43,279.684 1254.43,399.391 1358.05,399.391 1358.05,1011.22 1461.66,1011.22 1461.66,1241.77 1565.28,1241.77 1565.28,1326.01 1668.9,1326.01 1668.9,1365.91 1772.51,1365.91 1772.51,1405.81 1876.13,1405.81 1876.13,1427.98 1979.74,1427.98 1979.74,1401.38 2083.36,1401.38 2083.36,1419.11 2186.97,1419.11 2186.97,1414.68 2290.59,1414.68 2290.59,1445.72 "/>
<path clip-path="url(#clip210)" d="M1939.66 302.578 L2279.53 302.578 L2279.53 95.2176 L1939.66 95.2176  Z" fill="#ffffff" fill-rule="evenodd" fill-opacity="1"/>
<polyline clip-path="url(#clip210)" style="stroke:#000000; stroke-linecap:round; stroke-linejoin:round; stroke-width:4; stroke-opacity:1; fill:none" points="1939.66,302.578 2279.53,302.578 2279.53,95.2176 1939.66,95.2176 1939.66,302.578 "/>
<polyline clip-path="url(#clip210)" style="stroke:#009af9; stroke-linecap:round; stroke-linejoin:round; stroke-width:12; stroke-opacity:1; fill:none" points="1964.07,147.058 2110.51,147.058 "/>
<path clip-path="url(#clip210)" d="M2142.33 131.051 L2142.33 138.412 L2151.1 138.412 L2151.1 141.722 L2142.33 141.722 L2142.33 155.796 Q2142.33 158.967 2143.18 159.87 Q2144.06 160.773 2146.73 160.773 L2151.1 160.773 L2151.1 164.338 L2146.73 164.338 Q2141.79 164.338 2139.92 162.509 Q2138.04 160.657 2138.04 155.796 L2138.04 141.722 L2134.92 141.722 L2134.92 138.412 L2138.04 138.412 L2138.04 131.051 L2142.33 131.051 Z" fill="#000000" fill-rule="nonzero" fill-opacity="1" /><path clip-path="url(#clip210)" d="M2171.72 142.393 Q2171.01 141.977 2170.15 141.791 Q2169.32 141.583 2168.3 141.583 Q2164.69 141.583 2162.74 143.944 Q2160.82 146.282 2160.82 150.68 L2160.82 164.338 L2156.54 164.338 L2156.54 138.412 L2160.82 138.412 L2160.82 142.44 Q2162.16 140.078 2164.32 138.944 Q2166.47 137.787 2169.55 137.787 Q2169.99 137.787 2170.52 137.856 Q2171.05 137.903 2171.7 138.018 L2171.72 142.393 Z" fill="#000000" fill-rule="nonzero" fill-opacity="1" /><path clip-path="url(#clip210)" d="M2175.75 154.106 L2175.75 138.412 L2180.01 138.412 L2180.01 153.944 Q2180.01 157.625 2181.45 159.476 Q2182.88 161.305 2185.75 161.305 Q2189.2 161.305 2191.19 159.106 Q2193.21 156.907 2193.21 153.111 L2193.21 138.412 L2197.47 138.412 L2197.47 164.338 L2193.21 164.338 L2193.21 160.356 Q2191.66 162.717 2189.6 163.875 Q2187.56 165.009 2184.85 165.009 Q2180.38 165.009 2178.07 162.231 Q2175.75 159.453 2175.75 154.106 M2186.47 137.787 L2186.47 137.787 Z" fill="#000000" fill-rule="nonzero" fill-opacity="1" /><path clip-path="url(#clip210)" d="M2228.41 150.31 L2228.41 152.393 L2208.83 152.393 Q2209.11 156.791 2211.47 159.106 Q2213.85 161.398 2218.09 161.398 Q2220.54 161.398 2222.84 160.796 Q2225.15 160.194 2227.42 158.99 L2227.42 163.018 Q2225.13 163.99 2222.72 164.5 Q2220.31 165.009 2217.84 165.009 Q2211.63 165.009 2208 161.398 Q2204.39 157.787 2204.39 151.629 Q2204.39 145.264 2207.81 141.537 Q2211.26 137.787 2217.1 137.787 Q2222.33 137.787 2225.36 141.166 Q2228.41 144.523 2228.41 150.31 M2224.16 149.06 Q2224.11 145.565 2222.19 143.481 Q2220.29 141.398 2217.14 141.398 Q2213.58 141.398 2211.42 143.412 Q2209.29 145.426 2208.97 149.083 L2224.16 149.06 Z" fill="#000000" fill-rule="nonzero" fill-opacity="1" /><path clip-path="url(#clip210)" d="M1964.07 219.634 L2110.51 219.634 L2110.51 178.162 L1964.07 178.162 L1964.07 219.634  Z" fill="#e26f46" fill-rule="evenodd" fill-opacity="0.5"/>
<polyline clip-path="url(#clip210)" style="stroke:#e26f46; stroke-linecap:round; stroke-linejoin:round; stroke-width:4; stroke-opacity:0.5; fill:none" points="1964.07,178.162 2110.51,178.162 "/>
<path clip-path="url(#clip210)" d="M2134.92 181.618 L2139.6 181.618 L2139.6 212.242 L2156.42 212.242 L2156.42 216.178 L2134.92 216.178 L2134.92 181.618 Z" fill="#000000" fill-rule="nonzero" fill-opacity="1" /><path clip-path="url(#clip210)" d="M2182.05 182.752 L2182.05 187.312 Q2179.39 186.039 2177.03 185.414 Q2174.66 184.789 2172.47 184.789 Q2168.65 184.789 2166.56 186.27 Q2164.5 187.752 2164.5 190.483 Q2164.5 192.775 2165.87 193.955 Q2167.26 195.113 2171.1 195.83 L2173.92 196.409 Q2179.16 197.405 2181.63 199.928 Q2184.13 202.428 2184.13 206.641 Q2184.13 211.664 2180.75 214.256 Q2177.4 216.849 2170.89 216.849 Q2168.44 216.849 2165.66 216.293 Q2162.91 215.738 2159.94 214.65 L2159.94 209.835 Q2162.79 211.432 2165.52 212.242 Q2168.25 213.053 2170.89 213.053 Q2174.9 213.053 2177.07 211.479 Q2179.25 209.904 2179.25 206.988 Q2179.25 204.442 2177.67 203.006 Q2176.12 201.571 2172.56 200.854 L2169.71 200.298 Q2164.48 199.256 2162.14 197.034 Q2159.8 194.812 2159.8 190.854 Q2159.8 186.27 2163.02 183.631 Q2166.26 180.993 2171.93 180.993 Q2174.36 180.993 2176.89 181.432 Q2179.41 181.872 2182.05 182.752 Z" fill="#000000" fill-rule="nonzero" fill-opacity="1" /><path clip-path="url(#clip210)" d="M2212.14 182.752 L2212.14 187.312 Q2209.48 186.039 2207.12 185.414 Q2204.76 184.789 2202.56 184.789 Q2198.74 184.789 2196.66 186.27 Q2194.6 187.752 2194.6 190.483 Q2194.6 192.775 2195.96 193.955 Q2197.35 195.113 2201.19 195.83 L2204.02 196.409 Q2209.25 197.405 2211.72 199.928 Q2214.22 202.428 2214.22 206.641 Q2214.22 211.664 2210.85 214.256 Q2207.49 216.849 2200.98 216.849 Q2198.53 216.849 2195.75 216.293 Q2193 215.738 2190.04 214.65 L2190.04 209.835 Q2192.88 211.432 2195.61 212.242 Q2198.35 213.053 2200.98 213.053 Q2204.99 213.053 2207.16 211.479 Q2209.34 209.904 2209.34 206.988 Q2209.34 204.442 2207.77 203.006 Q2206.22 201.571 2202.65 200.854 L2199.8 200.298 Q2194.57 199.256 2192.23 197.034 Q2189.9 194.812 2189.9 190.854 Q2189.9 186.27 2193.11 183.631 Q2196.35 180.993 2202.03 180.993 Q2204.46 180.993 2206.98 181.432 Q2209.5 181.872 2212.14 182.752 Z" fill="#000000" fill-rule="nonzero" fill-opacity="1" /><path clip-path="url(#clip210)" d="M1964.07 271.474 L2110.51 271.474 L2110.51 230.002 L1964.07 230.002 L1964.07 271.474  Z" fill="#3da44d" fill-rule="evenodd" fill-opacity="0.5"/>
<polyline clip-path="url(#clip210)" style="stroke:#3da44d; stroke-linecap:round; stroke-linejoin:round; stroke-width:4; stroke-opacity:0.5; fill:none" points="1964.07,230.002 2110.51,230.002 "/>
<path clip-path="url(#clip210)" d="M2160.48 263.087 L2160.48 253.805 L2152.84 253.805 L2152.84 249.962 L2165.1 249.962 L2165.1 264.8 Q2162.4 266.721 2159.13 267.717 Q2155.87 268.689 2152.16 268.689 Q2144.06 268.689 2139.48 263.967 Q2134.92 259.221 2134.92 250.772 Q2134.92 242.3 2139.48 237.578 Q2144.06 232.833 2152.16 232.833 Q2155.54 232.833 2158.58 233.666 Q2161.63 234.499 2164.2 236.12 L2164.2 241.096 Q2161.61 238.897 2158.69 237.786 Q2155.78 236.675 2152.56 236.675 Q2146.22 236.675 2143.02 240.217 Q2139.85 243.758 2139.85 250.772 Q2139.85 257.763 2143.02 261.305 Q2146.22 264.846 2152.56 264.846 Q2155.04 264.846 2156.98 264.43 Q2158.92 263.99 2160.48 263.087 Z" fill="#000000" fill-rule="nonzero" fill-opacity="1" /><path clip-path="url(#clip210)" d="M2178.32 237.3 L2178.32 250.286 L2184.2 250.286 Q2187.47 250.286 2189.25 248.596 Q2191.03 246.907 2191.03 243.782 Q2191.03 240.68 2189.25 238.99 Q2187.47 237.3 2184.2 237.3 L2178.32 237.3 M2173.65 233.458 L2184.2 233.458 Q2190.01 233.458 2192.97 236.096 Q2195.96 238.712 2195.96 243.782 Q2195.96 248.897 2192.97 251.513 Q2190.01 254.129 2184.2 254.129 L2178.32 254.129 L2178.32 268.018 L2173.65 268.018 L2173.65 233.458 Z" fill="#000000" fill-rule="nonzero" fill-opacity="1" /><path clip-path="url(#clip210)" d="M2222.95 234.592 L2222.95 239.152 Q2220.29 237.879 2217.93 237.254 Q2215.57 236.629 2213.37 236.629 Q2209.55 236.629 2207.47 238.11 Q2205.41 239.592 2205.41 242.323 Q2205.41 244.615 2206.77 245.795 Q2208.16 246.953 2212 247.67 L2214.83 248.249 Q2220.06 249.245 2222.53 251.768 Q2225.03 254.268 2225.03 258.481 Q2225.03 263.504 2221.66 266.096 Q2218.3 268.689 2211.79 268.689 Q2209.34 268.689 2206.56 268.133 Q2203.81 267.578 2200.85 266.49 L2200.85 261.675 Q2203.69 263.272 2206.42 264.082 Q2209.16 264.893 2211.79 264.893 Q2215.8 264.893 2217.97 263.319 Q2220.15 261.744 2220.15 258.828 Q2220.15 256.282 2218.58 254.846 Q2217.03 253.411 2213.46 252.694 L2210.61 252.138 Q2205.38 251.096 2203.04 248.874 Q2200.71 246.652 2200.71 242.694 Q2200.71 238.11 2203.92 235.471 Q2207.16 232.833 2212.84 232.833 Q2215.27 232.833 2217.79 233.272 Q2220.31 233.712 2222.95 234.592 Z" fill="#000000" fill-rule="nonzero" fill-opacity="1" /><path clip-path="url(#clip210)" d="M2253.04 234.592 L2253.04 239.152 Q2250.38 237.879 2248.02 237.254 Q2245.66 236.629 2243.46 236.629 Q2239.64 236.629 2237.56 238.11 Q2235.5 239.592 2235.5 242.323 Q2235.5 244.615 2236.86 245.795 Q2238.25 246.953 2242.09 247.67 L2244.92 248.249 Q2250.15 249.245 2252.63 251.768 Q2255.13 254.268 2255.13 258.481 Q2255.13 263.504 2251.75 266.096 Q2248.39 268.689 2241.89 268.689 Q2239.43 268.689 2236.66 268.133 Q2233.9 267.578 2230.94 266.49 L2230.94 261.675 Q2233.78 263.272 2236.52 264.082 Q2239.25 264.893 2241.89 264.893 Q2245.89 264.893 2248.07 263.319 Q2250.24 261.744 2250.24 258.828 Q2250.24 256.282 2248.67 254.846 Q2247.12 253.411 2243.55 252.694 L2240.71 252.138 Q2235.47 251.096 2233.14 248.874 Q2230.8 246.652 2230.8 242.694 Q2230.8 238.11 2234.02 235.471 Q2237.26 232.833 2242.93 232.833 Q2245.36 232.833 2247.88 233.272 Q2250.41 233.712 2253.04 234.592 Z" fill="#000000" fill-rule="nonzero" fill-opacity="1" /></svg>
