<?xml version="1.0" encoding="utf-8"?>
<svg xmlns="http://www.w3.org/2000/svg" xmlns:xlink="http://www.w3.org/1999/xlink" width="600" height="400" viewBox="0 0 2400 1600">
<defs>
  <clipPath id="clip450">
    <rect x="0" y="0" width="2400" height="1600"/>
  </clipPath>
</defs>
<path clip-path="url(#clip450)" d="M0 1600 L2400 1600 L2400 0 L0 0  Z" fill="#ffffff" fill-rule="evenodd" fill-opacity="1"/>
<defs>
  <clipPath id="clip451">
    <rect x="480" y="0" width="1681" height="1600"/>
  </clipPath>
</defs>
<path clip-path="url(#clip450)" d="M178.867 686.448 L2352.76 686.448 L2352.76 47.2441 L178.867 47.2441  Z" fill="#ffffff" fill-rule="evenodd" fill-opacity="1"/>
<defs>
  <clipPath id="clip452">
    <rect x="178" y="47" width="2175" height="640"/>
  </clipPath>
</defs>
<polyline clip-path="url(#clip452)" style="stroke:#000000; stroke-linecap:round; stroke-linejoin:round; stroke-width:2; stroke-opacity:0.1; fill:none" points="238.339,686.448 238.339,47.2441 "/>
<polyline clip-path="url(#clip452)" style="stroke:#000000; stroke-linecap:round; stroke-linejoin:round; stroke-width:2; stroke-opacity:0.1; fill:none" points="751.562,686.448 751.562,47.2441 "/>
<polyline clip-path="url(#clip452)" style="stroke:#000000; stroke-linecap:round; stroke-linejoin:round; stroke-width:2; stroke-opacity:0.1; fill:none" points="1264.78,686.448 1264.78,47.2441 "/>
<polyline clip-path="url(#clip452)" style="stroke:#000000; stroke-linecap:round; stroke-linejoin:round; stroke-width:2; stroke-opacity:0.1; fill:none" points="1778.01,686.448 1778.01,47.2441 "/>
<polyline clip-path="url(#clip452)" style="stroke:#000000; stroke-linecap:round; stroke-linejoin:round; stroke-width:2; stroke-opacity:0.1; fill:none" points="2291.23,686.448 2291.23,47.2441 "/>
<polyline clip-path="url(#clip452)" style="stroke:#000000; stroke-linecap:round; stroke-linejoin:round; stroke-width:2; stroke-opacity:0.1; fill:none" points="178.867,686.448 2352.76,686.448 "/>
<polyline clip-path="url(#clip452)" style="stroke:#000000; stroke-linecap:round; stroke-linejoin:round; stroke-width:2; stroke-opacity:0.1; fill:none" points="178.867,526.647 2352.76,526.647 "/>
<polyline clip-path="url(#clip452)" style="stroke:#000000; stroke-linecap:round; stroke-linejoin:round; stroke-width:2; stroke-opacity:0.1; fill:none" points="178.867,366.846 2352.76,366.846 "/>
<polyline clip-path="url(#clip452)" style="stroke:#000000; stroke-linecap:round; stroke-linejoin:round; stroke-width:2; stroke-opacity:0.1; fill:none" points="178.867,207.045 2352.76,207.045 "/>
<polyline clip-path="url(#clip452)" style="stroke:#000000; stroke-linecap:round; stroke-linejoin:round; stroke-width:2; stroke-opacity:0.1; fill:none" points="178.867,47.2441 2352.76,47.2441 "/>
<polyline clip-path="url(#clip450)" style="stroke:#000000; stroke-linecap:round; stroke-linejoin:round; stroke-width:4; stroke-opacity:1; fill:none" points="178.867,686.448 2352.76,686.448 "/>
<polyline clip-path="url(#clip450)" style="stroke:#000000; stroke-linecap:round; stroke-linejoin:round; stroke-width:4; stroke-opacity:1; fill:none" points="238.339,686.448 238.339,667.55 "/>
<polyline clip-path="url(#clip450)" style="stroke:#000000; stroke-linecap:round; stroke-linejoin:round; stroke-width:4; stroke-opacity:1; fill:none" points="751.562,686.448 751.562,667.55 "/>
<polyline clip-path="url(#clip450)" style="stroke:#000000; stroke-linecap:round; stroke-linejoin:round; stroke-width:4; stroke-opacity:1; fill:none" points="1264.78,686.448 1264.78,667.55 "/>
<polyline clip-path="url(#clip450)" style="stroke:#000000; stroke-linecap:round; stroke-linejoin:round; stroke-width:4; stroke-opacity:1; fill:none" points="1778.01,686.448 1778.01,667.55 "/>
<polyline clip-path="url(#clip450)" style="stroke:#000000; stroke-linecap:round; stroke-linejoin:round; stroke-width:4; stroke-opacity:1; fill:none" points="2291.23,686.448 2291.23,667.55 "/>
<path clip-path="url(#clip450)" d="M238.339 717.367 Q234.728 717.367 232.899 720.931 Q231.094 724.473 231.094 731.603 Q231.094 738.709 232.899 742.274 Q234.728 745.815 238.339 745.815 Q241.973 745.815 243.779 742.274 Q245.607 738.709 245.607 731.603 Q245.607 724.473 243.779 720.931 Q241.973 717.367 238.339 717.367 M238.339 713.663 Q244.149 713.663 247.205 718.269 Q250.283 722.853 250.283 731.603 Q250.283 740.329 247.205 744.936 Q244.149 749.519 238.339 749.519 Q232.529 749.519 229.45 744.936 Q226.395 740.329 226.395 731.603 Q226.395 722.853 229.45 718.269 Q232.529 713.663 238.339 713.663 Z" fill="#000000" fill-rule="nonzero" fill-opacity="1" /><path clip-path="url(#clip450)" d="M715.254 744.913 L731.574 744.913 L731.574 748.848 L709.629 748.848 L709.629 744.913 Q712.291 742.158 716.875 737.528 Q721.481 732.876 722.662 731.533 Q724.907 729.01 725.787 727.274 Q726.689 725.515 726.689 723.825 Q726.689 721.07 724.745 719.334 Q722.824 717.598 719.722 717.598 Q717.523 717.598 715.069 718.362 Q712.638 719.126 709.861 720.677 L709.861 715.955 Q712.685 714.82 715.138 714.242 Q717.592 713.663 719.629 713.663 Q725 713.663 728.194 716.348 Q731.388 719.033 731.388 723.524 Q731.388 725.654 730.578 727.575 Q729.791 729.473 727.685 732.066 Q727.106 732.737 724.004 735.954 Q720.902 739.149 715.254 744.913 Z" fill="#000000" fill-rule="nonzero" fill-opacity="1" /><path clip-path="url(#clip450)" d="M741.435 714.288 L759.791 714.288 L759.791 718.223 L745.717 718.223 L745.717 726.695 Q746.736 726.348 747.754 726.186 Q748.773 726.001 749.791 726.001 Q755.578 726.001 758.958 729.172 Q762.337 732.343 762.337 737.76 Q762.337 743.339 758.865 746.44 Q755.393 749.519 749.073 749.519 Q746.898 749.519 744.629 749.149 Q742.384 748.778 739.976 748.038 L739.976 743.339 Q742.06 744.473 744.282 745.028 Q746.504 745.584 748.981 745.584 Q752.985 745.584 755.323 743.478 Q757.661 741.371 757.661 737.76 Q757.661 734.149 755.323 732.042 Q752.985 729.936 748.981 729.936 Q747.106 729.936 745.231 730.353 Q743.379 730.769 741.435 731.649 L741.435 714.288 Z" fill="#000000" fill-rule="nonzero" fill-opacity="1" /><path clip-path="url(#clip450)" d="M781.55 717.367 Q777.939 717.367 776.11 720.931 Q774.305 724.473 774.305 731.603 Q774.305 738.709 776.11 742.274 Q777.939 745.815 781.55 745.815 Q785.184 745.815 786.99 742.274 Q788.819 738.709 788.819 731.603 Q788.819 724.473 786.99 720.931 Q785.184 717.367 781.55 717.367 M781.55 713.663 Q787.36 713.663 790.416 718.269 Q793.495 722.853 793.495 731.603 Q793.495 740.329 790.416 744.936 Q787.36 749.519 781.55 749.519 Q775.74 749.519 772.661 744.936 Q769.606 740.329 769.606 731.603 Q769.606 722.853 772.661 718.269 Q775.74 713.663 781.55 713.663 Z" fill="#000000" fill-rule="nonzero" fill-opacity="1" /><path clip-path="url(#clip450)" d="M1224.4 714.288 L1242.76 714.288 L1242.76 718.223 L1228.69 718.223 L1228.69 726.695 Q1229.7 726.348 1230.72 726.186 Q1231.74 726.001 1232.76 726.001 Q1238.55 726.001 1241.93 729.172 Q1245.31 732.343 1245.31 737.76 Q1245.31 743.339 1241.83 746.44 Q1238.36 749.519 1232.04 749.519 Q1229.87 749.519 1227.6 749.149 Q1225.35 748.778 1222.94 748.038 L1222.94 743.339 Q1225.03 744.473 1227.25 745.028 Q1229.47 745.584 1231.95 745.584 Q1235.95 745.584 1238.29 743.478 Q1240.63 741.371 1240.63 737.76 Q1240.63 734.149 1238.29 732.042 Q1235.95 729.936 1231.95 729.936 Q1230.07 729.936 1228.2 730.353 Q1226.35 730.769 1224.4 731.649 L1224.4 714.288 Z" fill="#000000" fill-rule="nonzero" fill-opacity="1" /><path clip-path="url(#clip450)" d="M1264.52 717.367 Q1260.91 717.367 1259.08 720.931 Q1257.27 724.473 1257.27 731.603 Q1257.27 738.709 1259.08 742.274 Q1260.91 745.815 1264.52 745.815 Q1268.15 745.815 1269.96 742.274 Q1271.79 738.709 1271.79 731.603 Q1271.79 724.473 1269.96 720.931 Q1268.15 717.367 1264.52 717.367 M1264.52 713.663 Q1270.33 713.663 1273.38 718.269 Q1276.46 722.853 1276.46 731.603 Q1276.46 740.329 1273.38 744.936 Q1270.33 749.519 1264.52 749.519 Q1258.71 749.519 1255.63 744.936 Q1252.57 740.329 1252.57 731.603 Q1252.57 722.853 1255.63 718.269 Q1258.71 713.663 1264.52 713.663 Z" fill="#000000" fill-rule="nonzero" fill-opacity="1" /><path clip-path="url(#clip450)" d="M1294.68 717.367 Q1291.07 717.367 1289.24 720.931 Q1287.44 724.473 1287.44 731.603 Q1287.44 738.709 1289.24 742.274 Q1291.07 745.815 1294.68 745.815 Q1298.31 745.815 1300.12 742.274 Q1301.95 738.709 1301.95 731.603 Q1301.95 724.473 1300.12 720.931 Q1298.31 717.367 1294.68 717.367 M1294.68 713.663 Q1300.49 713.663 1303.55 718.269 Q1306.62 722.853 1306.62 731.603 Q1306.62 740.329 1303.55 744.936 Q1300.49 749.519 1294.68 749.519 Q1288.87 749.519 1285.79 744.936 Q1282.74 740.329 1282.74 731.603 Q1282.74 722.853 1285.79 718.269 Q1288.87 713.663 1294.68 713.663 Z" fill="#000000" fill-rule="nonzero" fill-opacity="1" /><path clip-path="url(#clip450)" d="M1736.28 714.288 L1758.51 714.288 L1758.51 716.279 L1745.96 748.848 L1741.08 748.848 L1752.88 718.223 L1736.28 718.223 L1736.28 714.288 Z" fill="#000000" fill-rule="nonzero" fill-opacity="1" /><path clip-path="url(#clip450)" d="M1767.67 714.288 L1786.03 714.288 L1786.03 718.223 L1771.95 718.223 L1771.95 726.695 Q1772.97 726.348 1773.99 726.186 Q1775.01 726.001 1776.03 726.001 Q1781.82 726.001 1785.2 729.172 Q1788.57 732.343 1788.57 737.76 Q1788.57 743.339 1785.1 746.44 Q1781.63 749.519 1775.31 749.519 Q1773.14 749.519 1770.87 749.149 Q1768.62 748.778 1766.21 748.038 L1766.21 743.339 Q1768.3 744.473 1770.52 745.028 Q1772.74 745.584 1775.22 745.584 Q1779.22 745.584 1781.56 743.478 Q1783.9 741.371 1783.9 737.76 Q1783.9 734.149 1781.56 732.042 Q1779.22 729.936 1775.22 729.936 Q1773.34 729.936 1771.47 730.353 Q1769.62 730.769 1767.67 731.649 L1767.67 714.288 Z" fill="#000000" fill-rule="nonzero" fill-opacity="1" /><path clip-path="url(#clip450)" d="M1807.79 717.367 Q1804.18 717.367 1802.35 720.931 Q1800.54 724.473 1800.54 731.603 Q1800.54 738.709 1802.35 742.274 Q1804.18 745.815 1807.79 745.815 Q1811.42 745.815 1813.23 742.274 Q1815.06 738.709 1815.06 731.603 Q1815.06 724.473 1813.23 720.931 Q1811.42 717.367 1807.79 717.367 M1807.79 713.663 Q1813.6 713.663 1816.65 718.269 Q1819.73 722.853 1819.73 731.603 Q1819.73 740.329 1816.65 744.936 Q1813.6 749.519 1807.79 749.519 Q1801.98 749.519 1798.9 744.936 Q1795.84 740.329 1795.84 731.603 Q1795.84 722.853 1798.9 718.269 Q1801.98 713.663 1807.79 713.663 Z" fill="#000000" fill-rule="nonzero" fill-opacity="1" /><path clip-path="url(#clip450)" d="M2235.76 744.913 L2243.4 744.913 L2243.4 718.547 L2235.09 720.214 L2235.09 715.955 L2243.35 714.288 L2248.02 714.288 L2248.02 744.913 L2255.66 744.913 L2255.66 748.848 L2235.76 748.848 L2235.76 744.913 Z" fill="#000000" fill-rule="nonzero" fill-opacity="1" /><path clip-path="url(#clip450)" d="M2275.11 717.367 Q2271.5 717.367 2269.67 720.931 Q2267.86 724.473 2267.86 731.603 Q2267.86 738.709 2269.67 742.274 Q2271.5 745.815 2275.11 745.815 Q2278.74 745.815 2280.55 742.274 Q2282.38 738.709 2282.38 731.603 Q2282.38 724.473 2280.55 720.931 Q2278.74 717.367 2275.11 717.367 M2275.11 713.663 Q2280.92 713.663 2283.97 718.269 Q2287.05 722.853 2287.05 731.603 Q2287.05 740.329 2283.97 744.936 Q2280.92 749.519 2275.11 749.519 Q2269.3 749.519 2266.22 744.936 Q2263.16 740.329 2263.16 731.603 Q2263.16 722.853 2266.22 718.269 Q2269.3 713.663 2275.11 713.663 Z" fill="#000000" fill-rule="nonzero" fill-opacity="1" /><path clip-path="url(#clip450)" d="M2305.27 717.367 Q2301.66 717.367 2299.83 720.931 Q2298.02 724.473 2298.02 731.603 Q2298.02 738.709 2299.83 742.274 Q2301.66 745.815 2305.27 745.815 Q2308.9 745.815 2310.71 742.274 Q2312.54 738.709 2312.54 731.603 Q2312.54 724.473 2310.71 720.931 Q2308.9 717.367 2305.27 717.367 M2305.27 713.663 Q2311.08 713.663 2314.14 718.269 Q2317.21 722.853 2317.21 731.603 Q2317.21 740.329 2314.14 744.936 Q2311.08 749.519 2305.27 749.519 Q2299.46 749.519 2296.38 744.936 Q2293.33 740.329 2293.33 731.603 Q2293.33 722.853 2296.38 718.269 Q2299.46 713.663 2305.27 713.663 Z" fill="#000000" fill-rule="nonzero" fill-opacity="1" /><path clip-path="url(#clip450)" d="M2335.43 717.367 Q2331.82 717.367 2329.99 720.931 Q2328.19 724.473 2328.19 731.603 Q2328.19 738.709 2329.99 742.274 Q2331.82 745.815 2335.43 745.815 Q2339.07 745.815 2340.87 742.274 Q2342.7 738.709 2342.7 731.603 Q2342.7 724.473 2340.87 720.931 Q2339.07 717.367 2335.43 717.367 M2335.43 713.663 Q2341.24 713.663 2344.3 718.269 Q2347.38 722.853 2347.38 731.603 Q2347.38 740.329 2344.3 744.936 Q2341.24 749.519 2335.43 749.519 Q2329.62 749.519 2326.54 744.936 Q2323.49 740.329 2323.49 731.603 Q2323.49 722.853 2326.54 718.269 Q2329.62 713.663 2335.43 713.663 Z" fill="#000000" fill-rule="nonzero" fill-opacity="1" /><polyline clip-path="url(#clip450)" style="stroke:#000000; stroke-linecap:round; stroke-linejoin:round; stroke-width:4; stroke-opacity:1; fill:none" points="178.867,686.448 178.867,47.2441 "/>
<polyline clip-path="url(#clip450)" style="stroke:#000000; stroke-linecap:round; stroke-linejoin:round; stroke-width:4; stroke-opacity:1; fill:none" points="178.867,686.448 197.764,686.448 "/>
<polyline clip-path="url(#clip450)" style="stroke:#000000; stroke-linecap:round; stroke-linejoin:round; stroke-width:4; stroke-opacity:1; fill:none" points="178.867,526.647 197.764,526.647 "/>
<polyline clip-path="url(#clip450)" style="stroke:#000000; stroke-linecap:round; stroke-linejoin:round; stroke-width:4; stroke-opacity:1; fill:none" points="178.867,366.846 197.764,366.846 "/>
<polyline clip-path="url(#clip450)" style="stroke:#000000; stroke-linecap:round; stroke-linejoin:round; stroke-width:4; stroke-opacity:1; fill:none" points="178.867,207.045 197.764,207.045 "/>
<polyline clip-path="url(#clip450)" style="stroke:#000000; stroke-linecap:round; stroke-linejoin:round; stroke-width:4; stroke-opacity:1; fill:none" points="178.867,47.2441 197.764,47.2441 "/>
<path clip-path="url(#clip450)" d="M50.9921 686.899 L80.6679 686.899 L80.6679 690.834 L50.9921 690.834 L50.9921 686.899 Z" fill="#000000" fill-rule="nonzero" fill-opacity="1" /><path clip-path="url(#clip450)" d="M91.5706 699.793 L99.2095 699.793 L99.2095 673.427 L90.8993 675.094 L90.8993 670.835 L99.1632 669.168 L103.839 669.168 L103.839 699.793 L111.478 699.793 L111.478 703.728 L91.5706 703.728 L91.5706 699.793 Z" fill="#000000" fill-rule="nonzero" fill-opacity="1" /><path clip-path="url(#clip450)" d="M130.922 672.247 Q127.311 672.247 125.482 675.811 Q123.677 679.353 123.677 686.483 Q123.677 693.589 125.482 697.154 Q127.311 700.695 130.922 700.695 Q134.556 700.695 136.362 697.154 Q138.191 693.589 138.191 686.483 Q138.191 679.353 136.362 675.811 Q134.556 672.247 130.922 672.247 M130.922 668.543 Q136.732 668.543 139.788 673.149 Q142.867 677.733 142.867 686.483 Q142.867 695.209 139.788 699.816 Q136.732 704.399 130.922 704.399 Q125.112 704.399 122.033 699.816 Q118.978 695.209 118.978 686.483 Q118.978 677.733 122.033 673.149 Q125.112 668.543 130.922 668.543 Z" fill="#000000" fill-rule="nonzero" fill-opacity="1" /><path clip-path="url(#clip450)" d="M82.1494 527.098 L111.825 527.098 L111.825 531.033 L82.1494 531.033 L82.1494 527.098 Z" fill="#000000" fill-rule="nonzero" fill-opacity="1" /><path clip-path="url(#clip450)" d="M121.964 509.367 L140.32 509.367 L140.32 513.302 L126.246 513.302 L126.246 521.774 Q127.265 521.427 128.283 521.265 Q129.302 521.08 130.32 521.08 Q136.107 521.08 139.487 524.251 Q142.867 527.422 142.867 532.839 Q142.867 538.418 139.394 541.52 Q135.922 544.598 129.603 544.598 Q127.427 544.598 125.158 544.228 Q122.913 543.857 120.506 543.117 L120.506 538.418 Q122.589 539.552 124.811 540.108 Q127.033 540.663 129.51 540.663 Q133.515 540.663 135.853 538.557 Q138.191 536.45 138.191 532.839 Q138.191 529.228 135.853 527.121 Q133.515 525.015 129.51 525.015 Q127.635 525.015 125.76 525.432 Q123.908 525.848 121.964 526.728 L121.964 509.367 Z" fill="#000000" fill-rule="nonzero" fill-opacity="1" /><path clip-path="url(#clip450)" d="M130.922 352.645 Q127.311 352.645 125.482 356.209 Q123.677 359.751 123.677 366.881 Q123.677 373.987 125.482 377.552 Q127.311 381.094 130.922 381.094 Q134.556 381.094 136.362 377.552 Q138.191 373.987 138.191 366.881 Q138.191 359.751 136.362 356.209 Q134.556 352.645 130.922 352.645 M130.922 348.941 Q136.732 348.941 139.788 353.547 Q142.867 358.131 142.867 366.881 Q142.867 375.608 139.788 380.214 Q136.732 384.797 130.922 384.797 Q125.112 384.797 122.033 380.214 Q118.978 375.608 118.978 366.881 Q118.978 358.131 122.033 353.547 Q125.112 348.941 130.922 348.941 Z" fill="#000000" fill-rule="nonzero" fill-opacity="1" /><path clip-path="url(#clip450)" d="M121.964 189.765 L140.32 189.765 L140.32 193.7 L126.246 193.7 L126.246 202.172 Q127.265 201.825 128.283 201.663 Q129.302 201.478 130.32 201.478 Q136.107 201.478 139.487 204.649 Q142.867 207.82 142.867 213.237 Q142.867 218.816 139.394 221.918 Q135.922 224.996 129.603 224.996 Q127.427 224.996 125.158 224.626 Q122.913 224.256 120.506 223.515 L120.506 218.816 Q122.589 219.95 124.811 220.506 Q127.033 221.061 129.51 221.061 Q133.515 221.061 135.853 218.955 Q138.191 216.848 138.191 213.237 Q138.191 209.626 135.853 207.52 Q133.515 205.413 129.51 205.413 Q127.635 205.413 125.76 205.83 Q123.908 206.246 121.964 207.126 L121.964 189.765 Z" fill="#000000" fill-rule="nonzero" fill-opacity="1" /><path clip-path="url(#clip450)" d="M91.5706 60.5889 L99.2095 60.5889 L99.2095 34.2233 L90.8993 35.89 L90.8993 31.6308 L99.1632 29.9641 L103.839 29.9641 L103.839 60.5889 L111.478 60.5889 L111.478 64.5241 L91.5706 64.5241 L91.5706 60.5889 Z" fill="#000000" fill-rule="nonzero" fill-opacity="1" /><path clip-path="url(#clip450)" d="M130.922 33.0428 Q127.311 33.0428 125.482 36.6076 Q123.677 40.1492 123.677 47.2788 Q123.677 54.3853 125.482 57.9501 Q127.311 61.4917 130.922 61.4917 Q134.556 61.4917 136.362 57.9501 Q138.191 54.3853 138.191 47.2788 Q138.191 40.1492 136.362 36.6076 Q134.556 33.0428 130.922 33.0428 M130.922 29.3391 Q136.732 29.3391 139.788 33.9456 Q142.867 38.5289 142.867 47.2788 Q142.867 56.0056 139.788 60.6121 Q136.732 65.1954 130.922 65.1954 Q125.112 65.1954 122.033 60.6121 Q118.978 56.0056 118.978 47.2788 Q118.978 38.5289 122.033 33.9456 Q125.112 29.3391 130.922 29.3391 Z" fill="#000000" fill-rule="nonzero" fill-opacity="1" /><polyline clip-path="url(#clip452)" style="stroke:#009af9; stroke-linecap:round; stroke-linejoin:round; stroke-width:4; stroke-opacity:1; fill:none" points="240.392,334.886 242.445,335.483 244.498,335.499 246.55,324.09 248.603,323.898 250.656,349.516 252.709,349.447 254.762,375.693 256.815,376.036 258.868,379.734 260.921,387.501 262.974,384.314 265.027,377.372 267.079,375.756 269.132,376.267 271.185,385.922 273.238,382.14 275.291,381.193 277.344,367.509 279.397,368.069 281.45,350.754 283.503,355.515 285.555,355.305 287.608,347.346 289.661,337.954 291.714,356.965 293.767,357.091 295.82,357.065 297.873,355.485 299.926,355.405 301.979,355.588 304.031,357.768 306.084,357.684 308.137,359.533 310.19,359.717 312.243,368.864 314.296,391.863 316.349,391.741 318.402,391.887 320.455,396.97 322.507,387.915 324.56,356.835 326.613,359.199 328.666,359.195 330.719,352.48 332.772,352.279 334.825,350.791 336.878,352.377 338.931,350.707 340.984,354.548 343.036,354.417 345.089,364.228 347.142,363.885 349.195,363.874 351.248,361.692 353.301,373.114 355.354,367.863 357.407,366.333 359.46,366.775 361.512,369.245 363.565,368.649 365.618,369.884 367.671,369.013 369.724,348.495 371.777,343.377 373.83,366.81 375.883,362.281 377.936,369.249 379.988,369.015 382.041,368.655 384.094,366.955 386.147,366.909 388.2,407.711 390.253,406.212 392.306,402.918 394.359,401.332 396.412,401.671 398.464,383.431 400.517,383.869 402.57,374.559 404.623,356.697 406.676,367.228 408.729,367.07 410.782,369.672 412.835,365.312 414.888,390.035 416.94,384.395 418.993,392.495 421.046,419.017 423.099,403.505 425.152,407.817 427.205,408.096 429.258,355.845 431.311,354.862 433.364,359.017 435.417,357.305 437.469,370.556 439.522,370.296 441.575,370.35 443.628,368.251 445.681,368.511 447.734,368.485 449.787,368.629 451.84,373.098 453.893,370.443 455.945,370.433 457.998,371.772 460.051,371.948 462.104,354.321 464.157,357.233 466.21,357.148 468.263,358.937 470.316,358.949 472.369,358.946 474.421,358.826 476.474,358.767 478.527,358.633 480.58,358.625 482.633,363.071 484.686,365.526 486.739,357.715 488.792,357.641 490.845,340.463 492.897,353.827 494.95,355.315 497.003,354.405 499.056,343.441 501.109,346.026 503.162,345.528 505.215,345.203 507.268,344.701 509.321,345.339 511.374,328.849 513.426,328.91 515.479,328.788 517.532,330.173 519.585,329.147 521.638,330.068 523.691,324.994 525.744,326.125 527.797,375.676 529.85,382.698 531.902,378.359 533.955,366.376 536.008,361.415 538.061,363.126 540.114,395.603 542.167,395.186 544.22,413.186 546.273,414.386 548.326,414.368 550.378,413.402 552.431,410.187 554.484,410.188 556.537,408.755 558.59,409.069 560.643,400.481 562.696,398.855 564.749,402.671 566.802,399.831 568.854,401.755 570.907,402.039 572.96,402.339 575.013,402.336 577.066,402.01 579.119,401.711 581.172,401.953 583.225,401.73 585.278,399.227 587.331,353.481 589.383,354.318 591.436,354.316 593.489,352.097 595.542,352.552 597.595,353.522 599.648,353.321 601.701,345.976 603.754,348.053 605.807,353.94 607.859,357.062 609.912,365.85 611.965,370.468 614.018,371.209 616.071,360.42 618.124,360.172 620.177,359.807 622.23,385.391 624.283,383.97 626.335,384.086 628.388,383.246 630.441,387.817 632.494,388.175 634.547,363.351 636.6,363.996 638.653,364.109 640.706,365.175 642.759,395.591 644.811,405.874 646.864,333.004 648.917,332.163 650.97,331.518 653.023,350.805 655.076,359.659 657.129,360.684 659.182,364.561 661.235,364.597 663.288,364.501 665.34,364.476 667.393,367.258 669.446,367.257 671.499,360.36 673.552,360.425 675.605,360.882 677.658,360.262 679.711,361.758 681.764,361.637 683.816,363.208 685.869,361.062 687.922,360.939 689.975,364.355 692.028,363.614 694.081,364.632 696.134,364.587 698.187,372.261 700.24,371.778 702.292,371.054 704.345,402.137 706.398,401.69 708.451,402.211 710.504,402.413 712.557,403.057 714.61,402.854 716.663,393.972 718.716,393.39 720.768,348.89 722.821,345.017 724.874,355.602 726.927,368.79 728.98,368.475 731.033,322.032 733.086,321.973 735.139,319.857 737.192,321.461 739.245,340.373 741.297,323.415 743.35,314.83 745.403,319.457 747.456,321.997 749.509,323.084 751.562,342.684 753.615,344.231 755.668,314.195 757.721,309.595 759.773,309.592 761.826,309.594 763.879,347.695 765.932,360.294 767.985,360.009 770.038,360.156 772.091,368.103 774.144,352.089 776.197,354.962 778.249,365.695 780.302,364.473 782.355,364.109 784.408,361.345 786.461,435.658 788.514,430.167 790.567,425.643 792.62,434.269 794.673,409.541 796.725,461.25 798.778,485.598 800.831,475.362 802.884,475.414 804.937,411.011 806.99,400.328 809.043,400.139 811.096,402.139 813.149,400.718 815.202,403.687 817.254,397.388 819.307,399.424 821.36,399.573 823.413,403.719 825.466,419.16 827.519,419.126 829.572,419.8 831.625,416.148 833.678,415.965 835.73,415.891 837.783,416.258 839.836,397.263 841.889,398.687 843.942,409.491 845.995,426.908 848.048,426.998 850.101,488.091 852.154,489.245 854.206,488.867 856.259,461.648 858.312,461.611 860.365,462.822 862.418,467.424 864.471,415.668 866.524,417.396 868.577,357.53 870.63,377.044 872.682,372.262 874.735,374.34 876.788,373.273 878.841,375.977 880.894,376.033 882.947,376.059 885,374.725 887.053,375.299 889.106,376.879 891.159,385.96 893.211,383.349 895.264,379.452 897.317,365.017 899.37,382.102 901.423,381.556 903.476,406.27 905.529,404.979 907.582,403.595 909.635,391.582 911.687,391.489 913.74,382.335 915.793,362.246 917.846,362.205 919.899,357.47 921.952,356.504 924.005,369.84 926.058,366.851 928.111,355.989 930.163,354.596 932.216,349.576 934.269,351.704 936.322,352.531 938.375,335.958 940.428,329.984 942.481,336.075 944.534,341.549 946.587,325.47 948.639,325.415 950.692,325.401 952.745,325.115 954.798,328.98 956.851,328.262 958.904,328.467 960.957,328.691 963.01,366.041 965.063,360.714 967.116,375.249 969.168,375.022 971.221,385.149 973.274,385.672 975.327,388.253 977.38,384.683 979.433,383.249 981.486,383.117 983.539,381.638 985.592,369.495 987.644,368.901 989.697,369.013 991.75,368.774 993.803,372.216 995.856,385.224 997.909,374.921 999.962,386.019 1002.01,376.081 1004.07,377.757 1006.12,374.496 1008.17,404.145 1010.23,407.21 1012.28,408.02 1014.33,407.505 1016.38,408.881 1018.44,408.655 1020.49,408.478 1022.54,408.945 1024.6,405.264 1026.65,377.352 1028.7,373.271 1030.76,373.861 1032.81,365.924 1034.86,386.299 1036.91,383.273 1038.97,383.222 1041.02,379.859 1043.07,379.324 1045.13,395.49 1047.18,395.106 1049.23,394.338 1051.28,394.85 1053.34,393.401 1055.39,393.384 1057.44,390.603 1059.5,383.781 1061.55,383.881 1063.6,382.485 1065.65,380.7 1067.71,372.571 1069.76,371.533 1071.81,371.827 1073.87,348.472 1075.92,337.688 1077.97,336.796 1080.02,329.174 1082.08,330.241 1084.13,337.162 1086.18,337.14 1088.24,373.345 1090.29,344.679 1092.34,354.446 1094.39,354.49 1096.45,362.313 1098.5,356.386 1100.55,355.417 1102.61,371.441 1104.66,379.009 1106.71,379.397 1108.77,388.346 1110.82,326.706 1112.87,322.002 1114.92,331.072 1116.98,335.039 1119.03,337.046 1121.08,349.713 1123.14,348.296 1125.19,349.228 1127.24,365.707 1129.29,363.632 1131.35,363.358 1133.4,363.713 1135.45,412.553 1137.51,412.764 1139.56,407.486 1141.61,407.494 1143.66,408.896 1145.72,391.154 1147.77,391.274 1149.82,383.38 1151.88,372.543 1153.93,370.037 1155.98,377.318 1158.03,374.236 1160.09,421.975 1162.14,422.678 1164.19,404.111 1166.25,403.05 1168.3,403.459 1170.35,403.774 1172.4,411.89 1174.46,403.94 1176.51,394.342 1178.56,395.065 1180.62,401.534 1182.67,401.58 1184.72,404.47 1186.77,419.2 1188.83,402.654 1190.88,403.114 1192.93,403.07 1194.99,404.47 1197.04,433.463 1199.09,434.243 1201.15,434.38 1203.2,433.94 1205.25,432.333 1207.3,411.137 1209.36,400.304 1211.41,390.888 1213.46,390.793 1215.52,390.878 1217.57,381.172 1219.62,381.411 1221.67,381.789 1223.73,381.332 1225.78,337.009 1227.83,336.218 1229.89,331.588 1231.94,345.028 1233.99,344.739 1236.04,344.267 1238.1,344.223 1240.15,345.903 1242.2,337.276 1244.26,319.776 1246.31,320.646 1248.36,318.988 1250.41,316.285 1252.47,326.867 1254.52,320.701 1256.57,324.62 1258.63,325.851 1260.68,322.118 1262.73,378.55 1264.78,380.494 1266.84,354.031 1268.89,352.599 1270.94,353.108 1273,354.424 1275.05,351.435 1277.1,346.622 1279.16,383.938 1281.21,382.055 1283.26,382.093 1285.31,381.729 1287.37,382.258 1289.42,383.439 1291.47,385.673 1293.53,379.944 1295.58,380.344 1297.63,372.677 1299.68,374.66 1301.74,366.529 1303.79,365.563 1305.84,365.585 1307.9,358.667 1309.95,356.048 1312,356.076 1314.05,356.382 1316.11,356.453 1318.16,373.597 1320.21,373.625 1322.27,373.547 1324.32,411.466 1326.37,410.974 1328.42,412.986 1330.48,413.827 1332.53,401.806 1334.58,371.172 1336.64,403.726 1338.69,405.921 1340.74,405.676 1342.79,392.863 1344.85,392.075 1346.9,391.887 1348.95,391.773 1351.01,390.839 1353.06,389.975 1355.11,397.317 1357.16,397.309 1359.22,399.324 1361.27,392.195 1363.32,393.401 1365.38,388.463 1367.43,388.486 1369.48,436.017 1371.54,441.479 1373.59,442.152 1375.64,441.607 1377.69,396.334 1379.75,363.104 1381.8,365.398 1383.85,326.016 1385.91,326.076 1387.96,338.974 1390.01,345.668 1392.06,320.673 1394.12,320.724 1396.17,350.862 1398.22,349.212 1400.28,348.293 1402.33,359.081 1404.38,359.061 1406.43,358.875 1408.49,362.301 1410.54,334.124 1412.59,386.633 1414.65,364.48 1416.7,364.513 1418.75,359.038 1420.8,482.283 1422.86,484.225 1424.91,472.336 1426.96,482.778 1429.02,483.45 1431.07,482.565 1433.12,480.158 1435.17,458.468 1437.23,458.433 1439.28,462.211 1441.33,462.378 1443.39,383.58 1445.44,378.262 1447.49,378.565 1449.55,376.643 1451.6,399.714 1453.65,399.208 1455.7,399.154 1457.76,405.525 1459.81,392.475 1461.86,395.881 1463.92,387.183 1465.97,385.826 1468.02,369.921 1470.07,366.791 1472.13,366.715 1474.18,367.766 1476.23,376.948 1478.29,375.3 1480.34,358.291 1482.39,345.361 1484.44,344.697 1486.5,353.721 1488.55,284.542 1490.6,328.745 1492.66,329.311 1494.71,329.57 1496.76,308.505 1498.81,294.121 1500.87,320.792 1502.92,312.17 1504.97,312.638 1507.03,312.967 1509.08,312.946 1511.13,316.138 1513.18,322.784 1515.24,332.862 1517.29,401.904 1519.34,402.112 1521.4,410.3 1523.45,376.307 1525.5,385.737 1527.55,392.497 1529.61,385.791 1531.66,386.244 1533.71,386.246 1535.77,382.675 1537.82,388.977 1539.87,400.098 1541.93,382.879 1543.98,382.855 1546.03,384.378 1548.08,366.26 1550.14,384.021 1552.19,378.337 1554.24,378.107 1556.3,375.895 1558.35,372.632 1560.4,372.611 1562.45,399.621 1564.51,372.876 1566.56,371.453 1568.61,366.139 1570.67,366.441 1572.72,366.457 1574.77,358.188 1576.82,359.479 1578.88,361.153 1580.93,366.282 1582.98,393.217 1585.04,397.172 1587.09,397.009 1589.14,395.887 1591.19,395.659 1593.25,396.952 1595.3,399.506 1597.35,400.244 1599.41,398.135 1601.46,406.342 1603.51,373.488 1605.56,369.226 1607.62,368.119 1609.67,372.629 1611.72,373.059 1613.78,373.281 1615.83,358.879 1617.88,358.508 1619.94,368.487 1621.99,368.39 1624.04,384.043 1626.09,354.897 1628.15,338.491 1630.2,338.488 1632.25,330.453 1634.31,333.713 1636.36,332.541 1638.41,327.707 1640.46,342.042 1642.52,336.469 1644.57,338.309 1646.62,344.3 1648.68,332.604 1650.73,333.639 1652.78,330.92 1654.83,333.16 1656.89,339.793 1658.94,324.394 1660.99,321.748 1663.05,336.121 1665.1,337.744 1667.15,340.909 1669.2,340.165 1671.26,340.87 1673.31,342.013 1675.36,369.565 1677.42,369.667 1679.47,371.247 1681.52,354.968 1683.57,356.194 1685.63,358.644 1687.68,366.198 1689.73,367.825 1691.79,366.054 1693.84,365.907 1695.89,365.273 1697.94,379.543 1700,352.049 1702.05,351.351 1704.1,348.767 1706.16,349.07 1708.21,347.58 1710.26,347.01 1712.32,383.047 1714.37,376.521 1716.42,374.511 1718.47,374.162 1720.53,376.952 1722.58,377.033 1724.63,380.383 1726.69,387.031 1728.74,387.905 1730.79,386.222 1732.84,392.846 1734.9,392.197 1736.95,396.358 1739,301.688 1741.06,306.415 1743.11,306.371 1745.16,385.44 1747.21,410.572 1749.27,429.934 1751.32,431.062 1753.37,430.946 1755.43,426.07 1757.48,426.079 1759.53,448.295 1761.58,433.728 1763.64,434.738 1765.69,433.052 1767.74,382.116 1769.8,382.895 1771.85,351.954 1773.9,380.815 1775.95,381.654 1778.01,381.644 1780.06,385.003 1782.11,322.662 1784.17,342.59 1786.22,342.448 1788.27,336.495 1790.33,339.929 1792.38,349.1 1794.43,350.192 1796.48,321.532 1798.54,277.254 1800.59,279.963 1802.64,310.978 1804.7,311.942 1806.75,436.958 1808.8,334.782 1810.85,334.656 1812.91,333.594 1814.96,349.76 1817.01,345.084 1819.07,356.365 1821.12,294.254 1823.17,294.25 1825.22,293.56 1827.28,331.756 1829.33,336.826 1831.38,328.984 1833.44,339.955 1835.49,388.369 1837.54,405.805 1839.59,426.29 1841.65,357.316 1843.7,412.142 1845.75,380.958 1847.81,402.112 1849.86,271.752 1851.91,256.85 1853.96,248.941 1856.02,245.44 1858.07,281.46 1860.12,285.577 1862.18,400.695 1864.23,385.064 1866.28,395.885 1868.34,432.234 1870.39,433.627 1872.44,432.61 1874.49,431.478 1876.55,430.582 1878.6,409.392 1880.65,429.144 1882.71,431.342 1884.76,453.738 1886.81,454.792 1888.86,443.825 1890.92,424.812 1892.97,375.396 1895.02,339.622 1897.08,520.916 1899.13,529.341 1901.18,411.263 1903.23,410.573 1905.29,422.439 1907.34,413.595 1909.39,407.953 1911.45,423.596 1913.5,423.665 1915.55,356.451 1917.6,353.868 1919.66,312.158 1921.71,304.286 1923.76,291.316 1925.82,232.904 1927.87,239.415 1929.92,298.703 1931.97,302.804 1934.03,281.422 1936.08,246.488 1938.13,252.351 1940.19,218.355 1942.24,212.814 1944.29,338.736 1946.34,365.04 1948.4,358.409 1950.45,348.794 1952.5,404.592 1954.56,396.126 1956.61,356.406 1958.66,364.743 1960.72,365.309 1962.77,365.306 1964.82,306.556 1966.87,287.605 1968.93,302.987 1970.98,301.22 1973.03,302.215 1975.09,357.129 1977.14,268.49 1979.19,267.677 1981.24,267.381 1983.3,266.973 1985.35,264.837 1987.4,265.294 1989.46,267.247 1991.51,325.533 1993.56,275.024 1995.61,297.144 1997.67,275.903 1999.72,277.075 2001.77,197.111 2003.83,197.004 2005.88,226.373 2007.93,226.889 2009.98,223.745 2012.04,217.705 2014.09,327.14 2016.14,321.115 2018.2,317.312 2020.25,302.188 2022.3,302.27 2024.35,289.221 2026.41,291.303 2028.46,330.521 2030.51,289.868 2032.57,291.128 2034.62,406.625 2036.67,404.136 2038.73,404.863 2040.78,370.206 2042.83,372.934 2044.88,383.439 2046.94,404.448 2048.99,448.554 2051.04,420.664 2053.1,415.675 2055.15,210.524 2057.2,48.7227 2059.25,146.974 2061.31,133.931 2063.36,121.225 2065.41,162.291 2067.47,163.276 2069.52,156.458 2071.57,138.654 2073.62,179.645 2075.68,179.067 2077.73,183.116 2079.78,141.845 2081.84,95.2347 2083.89,96.0798 2085.94,237.109 2087.99,247.249 2090.05,247.308 2092.1,249.858 2094.15,270.776 2096.21,171.44 2098.26,179.917 2100.31,161.309 2102.36,594.177 2104.42,511.241 2106.47,512.708 2108.52,511.854 2110.58,489.219 2112.63,444.997 2114.68,447.525 2116.73,281.407 2118.79,185.31 2120.84,109.929 2122.89,163.079 2124.95,190.153 2127,182.625 2129.05,188.105 2131.11,187.452 2133.16,296.755 2135.21,399.437 2137.26,402.151 2139.32,401.757 2141.37,417.656 2143.42,383.391 2145.48,393.816 2147.53,365.589 2149.58,369.53 2151.63,359.31 2153.69,353.409 2155.74,376.234 2157.79,373.606 2159.85,373.527 2161.9,347.378 2163.95,348.075 2166,360.56 2168.06,288.858 2170.11,293.183 2172.16,311.755 2174.22,212.625 2176.27,208.298 2178.32,169.349 2180.37,136.253 2182.43,135.422 2184.48,86.5043 2186.53,182.394 2188.59,248.455 2190.64,257.959 2192.69,225.006 2194.74,225.574 2196.8,242.014 2198.85,226.766 2200.9,366.392 2202.96,629.7 2205.01,624.883 2207.06,726.561 2209.12,625.15 2211.17,608.947 2213.22,581.084 2215.27,550.365 2217.33,171.719 2219.38,201.235 2221.43,209.547 2223.49,350.684 2225.54,345.861 2227.59,335.349 2229.64,420.016 2231.7,503.74 2233.75,527.994 2235.8,468.544 2237.86,493.494 2239.91,709.071 2241.96,749.045 2244.01,1235.39 2246.07,1153.68 2248.12,1145.71 2250.17,1016.28 2252.23,1052.95 2254.28,1123.92 2256.33,1136.42 2258.38,1119.54 2260.44,1068.01 2262.49,1132.58 2264.54,1123.13 2266.6,1174.21 2268.65,1261.74 2270.7,1318.51 2272.75,1187.27 2274.81,1157.7 2276.86,1083.9 2278.91,1077.56 2280.97,1048.56 2283.02,1072.26 2285.07,1106.6 2287.12,1106.38 2289.18,1410.27 2291.23,1389.13 "/>
<path clip-path="url(#clip450)" d="M251.33 172.231 L548.024 172.231 L548.024 68.5509 L251.33 68.5509  Z" fill="#ffffff" fill-rule="evenodd" fill-opacity="1"/>
<polyline clip-path="url(#clip450)" style="stroke:#000000; stroke-linecap:round; stroke-linejoin:round; stroke-width:4; stroke-opacity:1; fill:none" points="251.33,172.231 548.024,172.231 548.024,68.5509 251.33,68.5509 251.33,172.231 "/>
<polyline clip-path="url(#clip450)" style="stroke:#009af9; stroke-linecap:round; stroke-linejoin:round; stroke-width:4; stroke-opacity:1; fill:none" points="275.484,120.391 420.41,120.391 "/>
<path clip-path="url(#clip450)" d="M444.564 103.111 L449.24 103.111 L449.24 133.736 L466.069 133.736 L466.069 137.671 L444.564 137.671 L444.564 103.111 Z" fill="#000000" fill-rule="nonzero" fill-opacity="1" /><path clip-path="url(#clip450)" d="M491.694 104.245 L491.694 108.805 Q489.032 107.532 486.67 106.907 Q484.309 106.282 482.11 106.282 Q478.291 106.282 476.208 107.764 Q474.147 109.245 474.147 111.977 Q474.147 114.268 475.513 115.449 Q476.902 116.606 480.745 117.324 L483.569 117.902 Q488.8 118.898 491.277 121.421 Q493.777 123.921 493.777 128.134 Q493.777 133.157 490.397 135.75 Q487.041 138.342 480.536 138.342 Q478.083 138.342 475.305 137.787 Q472.55 137.231 469.587 136.143 L469.587 131.328 Q472.434 132.926 475.166 133.736 Q477.897 134.546 480.536 134.546 Q484.541 134.546 486.717 132.972 Q488.893 131.398 488.893 128.481 Q488.893 125.935 487.319 124.5 Q485.768 123.064 482.203 122.347 L479.356 121.791 Q474.124 120.75 471.786 118.527 Q469.448 116.305 469.448 112.347 Q469.448 107.764 472.666 105.125 Q475.907 102.486 481.578 102.486 Q484.008 102.486 486.532 102.926 Q489.055 103.366 491.694 104.245 Z" fill="#000000" fill-rule="nonzero" fill-opacity="1" /><path clip-path="url(#clip450)" d="M521.786 104.245 L521.786 108.805 Q519.124 107.532 516.763 106.907 Q514.402 106.282 512.203 106.282 Q508.383 106.282 506.3 107.764 Q504.24 109.245 504.24 111.977 Q504.24 114.268 505.606 115.449 Q506.994 116.606 510.837 117.324 L513.661 117.902 Q518.893 118.898 521.369 121.421 Q523.869 123.921 523.869 128.134 Q523.869 133.157 520.49 135.75 Q517.133 138.342 510.629 138.342 Q508.175 138.342 505.397 137.787 Q502.643 137.231 499.68 136.143 L499.68 131.328 Q502.527 132.926 505.258 133.736 Q507.99 134.546 510.629 134.546 Q514.633 134.546 516.809 132.972 Q518.985 131.398 518.985 128.481 Q518.985 125.935 517.411 124.5 Q515.86 123.064 512.295 122.347 L509.448 121.791 Q504.217 120.75 501.879 118.527 Q499.541 116.305 499.541 112.347 Q499.541 107.764 502.758 105.125 Q505.999 102.486 511.67 102.486 Q514.101 102.486 516.624 102.926 Q519.147 103.366 521.786 104.245 Z" fill="#000000" fill-rule="nonzero" fill-opacity="1" /><path clip-path="url(#clip450)" d="M178.867 1486.45 L2352.76 1486.45 L2352.76 847.244 L178.867 847.244  Z" fill="#ffffff" fill-rule="evenodd" fill-opacity="1"/>
<defs>
  <clipPath id="clip453">
    <rect x="178" y="847" width="2175" height="640"/>
  </clipPath>
</defs>
<polyline clip-path="url(#clip453)" style="stroke:#000000; stroke-linecap:round; stroke-linejoin:round; stroke-width:2; stroke-opacity:0.1; fill:none" points="238.339,1486.45 238.339,847.244 "/>
<polyline clip-path="url(#clip453)" style="stroke:#000000; stroke-linecap:round; stroke-linejoin:round; stroke-width:2; stroke-opacity:0.1; fill:none" points="751.562,1486.45 751.562,847.244 "/>
<polyline clip-path="url(#clip453)" style="stroke:#000000; stroke-linecap:round; stroke-linejoin:round; stroke-width:2; stroke-opacity:0.1; fill:none" points="1264.78,1486.45 1264.78,847.244 "/>
<polyline clip-path="url(#clip453)" style="stroke:#000000; stroke-linecap:round; stroke-linejoin:round; stroke-width:2; stroke-opacity:0.1; fill:none" points="1778.01,1486.45 1778.01,847.244 "/>
<polyline clip-path="url(#clip453)" style="stroke:#000000; stroke-linecap:round; stroke-linejoin:round; stroke-width:2; stroke-opacity:0.1; fill:none" points="2291.23,1486.45 2291.23,847.244 "/>
<polyline clip-path="url(#clip453)" style="stroke:#000000; stroke-linecap:round; stroke-linejoin:round; stroke-width:2; stroke-opacity:0.1; fill:none" points="178.867,1486.45 2352.76,1486.45 "/>
<polyline clip-path="url(#clip453)" style="stroke:#000000; stroke-linecap:round; stroke-linejoin:round; stroke-width:2; stroke-opacity:0.1; fill:none" points="178.867,1326.65 2352.76,1326.65 "/>
<polyline clip-path="url(#clip453)" style="stroke:#000000; stroke-linecap:round; stroke-linejoin:round; stroke-width:2; stroke-opacity:0.1; fill:none" points="178.867,1166.85 2352.76,1166.85 "/>
<polyline clip-path="url(#clip453)" style="stroke:#000000; stroke-linecap:round; stroke-linejoin:round; stroke-width:2; stroke-opacity:0.1; fill:none" points="178.867,1007.05 2352.76,1007.05 "/>
<polyline clip-path="url(#clip453)" style="stroke:#000000; stroke-linecap:round; stroke-linejoin:round; stroke-width:2; stroke-opacity:0.1; fill:none" points="178.867,847.244 2352.76,847.244 "/>
<polyline clip-path="url(#clip450)" style="stroke:#000000; stroke-linecap:round; stroke-linejoin:round; stroke-width:4; stroke-opacity:1; fill:none" points="178.867,1486.45 2352.76,1486.45 "/>
<polyline clip-path="url(#clip450)" style="stroke:#000000; stroke-linecap:round; stroke-linejoin:round; stroke-width:4; stroke-opacity:1; fill:none" points="238.339,1486.45 238.339,1467.55 "/>
<polyline clip-path="url(#clip450)" style="stroke:#000000; stroke-linecap:round; stroke-linejoin:round; stroke-width:4; stroke-opacity:1; fill:none" points="751.562,1486.45 751.562,1467.55 "/>
<polyline clip-path="url(#clip450)" style="stroke:#000000; stroke-linecap:round; stroke-linejoin:round; stroke-width:4; stroke-opacity:1; fill:none" points="1264.78,1486.45 1264.78,1467.55 "/>
<polyline clip-path="url(#clip450)" style="stroke:#000000; stroke-linecap:round; stroke-linejoin:round; stroke-width:4; stroke-opacity:1; fill:none" points="1778.01,1486.45 1778.01,1467.55 "/>
<polyline clip-path="url(#clip450)" style="stroke:#000000; stroke-linecap:round; stroke-linejoin:round; stroke-width:4; stroke-opacity:1; fill:none" points="2291.23,1486.45 2291.23,1467.55 "/>
<path clip-path="url(#clip450)" d="M238.339 1517.37 Q234.728 1517.37 232.899 1520.93 Q231.094 1524.47 231.094 1531.6 Q231.094 1538.71 232.899 1542.27 Q234.728 1545.82 238.339 1545.82 Q241.973 1545.82 243.779 1542.27 Q245.607 1538.71 245.607 1531.6 Q245.607 1524.47 243.779 1520.93 Q241.973 1517.37 238.339 1517.37 M238.339 1513.66 Q244.149 1513.66 247.205 1518.27 Q250.283 1522.85 250.283 1531.6 Q250.283 1540.33 247.205 1544.94 Q244.149 1549.52 238.339 1549.52 Q232.529 1549.52 229.45 1544.94 Q226.395 1540.33 226.395 1531.6 Q226.395 1522.85 229.45 1518.27 Q232.529 1513.66 238.339 1513.66 Z" fill="#000000" fill-rule="nonzero" fill-opacity="1" /><path clip-path="url(#clip450)" d="M715.254 1544.91 L731.574 1544.91 L731.574 1548.85 L709.629 1548.85 L709.629 1544.91 Q712.291 1542.16 716.875 1537.53 Q721.481 1532.88 722.662 1531.53 Q724.907 1529.01 725.787 1527.27 Q726.689 1525.51 726.689 1523.82 Q726.689 1521.07 724.745 1519.33 Q722.824 1517.6 719.722 1517.6 Q717.523 1517.6 715.069 1518.36 Q712.638 1519.13 709.861 1520.68 L709.861 1515.95 Q712.685 1514.82 715.138 1514.24 Q717.592 1513.66 719.629 1513.66 Q725 1513.66 728.194 1516.35 Q731.388 1519.03 731.388 1523.52 Q731.388 1525.65 730.578 1527.57 Q729.791 1529.47 727.685 1532.07 Q727.106 1532.74 724.004 1535.95 Q720.902 1539.15 715.254 1544.91 Z" fill="#000000" fill-rule="nonzero" fill-opacity="1" /><path clip-path="url(#clip450)" d="M741.435 1514.29 L759.791 1514.29 L759.791 1518.22 L745.717 1518.22 L745.717 1526.7 Q746.736 1526.35 747.754 1526.19 Q748.773 1526 749.791 1526 Q755.578 1526 758.958 1529.17 Q762.337 1532.34 762.337 1537.76 Q762.337 1543.34 758.865 1546.44 Q755.393 1549.52 749.073 1549.52 Q746.898 1549.52 744.629 1549.15 Q742.384 1548.78 739.976 1548.04 L739.976 1543.34 Q742.06 1544.47 744.282 1545.03 Q746.504 1545.58 748.981 1545.58 Q752.985 1545.58 755.323 1543.48 Q757.661 1541.37 757.661 1537.76 Q757.661 1534.15 755.323 1532.04 Q752.985 1529.94 748.981 1529.94 Q747.106 1529.94 745.231 1530.35 Q743.379 1530.77 741.435 1531.65 L741.435 1514.29 Z" fill="#000000" fill-rule="nonzero" fill-opacity="1" /><path clip-path="url(#clip450)" d="M781.55 1517.37 Q777.939 1517.37 776.11 1520.93 Q774.305 1524.47 774.305 1531.6 Q774.305 1538.71 776.11 1542.27 Q777.939 1545.82 781.55 1545.82 Q785.184 1545.82 786.99 1542.27 Q788.819 1538.71 788.819 1531.6 Q788.819 1524.47 786.99 1520.93 Q785.184 1517.37 781.55 1517.37 M781.55 1513.66 Q787.36 1513.66 790.416 1518.27 Q793.495 1522.85 793.495 1531.6 Q793.495 1540.33 790.416 1544.94 Q787.36 1549.52 781.55 1549.52 Q775.74 1549.52 772.661 1544.94 Q769.606 1540.33 769.606 1531.6 Q769.606 1522.85 772.661 1518.27 Q775.74 1513.66 781.55 1513.66 Z" fill="#000000" fill-rule="nonzero" fill-opacity="1" /><path clip-path="url(#clip450)" d="M1224.4 1514.29 L1242.76 1514.29 L1242.76 1518.22 L1228.69 1518.22 L1228.69 1526.7 Q1229.7 1526.35 1230.72 1526.19 Q1231.74 1526 1232.76 1526 Q1238.55 1526 1241.93 1529.17 Q1245.31 1532.34 1245.31 1537.76 Q1245.31 1543.34 1241.83 1546.44 Q1238.36 1549.52 1232.04 1549.52 Q1229.87 1549.52 1227.6 1549.15 Q1225.35 1548.78 1222.94 1548.04 L1222.94 1543.34 Q1225.03 1544.47 1227.25 1545.03 Q1229.47 1545.58 1231.95 1545.58 Q1235.95 1545.58 1238.29 1543.48 Q1240.63 1541.37 1240.63 1537.76 Q1240.63 1534.15 1238.29 1532.04 Q1235.95 1529.94 1231.95 1529.94 Q1230.07 1529.94 1228.2 1530.35 Q1226.35 1530.77 1224.4 1531.65 L1224.4 1514.29 Z" fill="#000000" fill-rule="nonzero" fill-opacity="1" /><path clip-path="url(#clip450)" d="M1264.52 1517.37 Q1260.91 1517.37 1259.08 1520.93 Q1257.27 1524.47 1257.27 1531.6 Q1257.27 1538.71 1259.08 1542.27 Q1260.91 1545.82 1264.52 1545.82 Q1268.15 1545.82 1269.96 1542.27 Q1271.79 1538.71 1271.79 1531.6 Q1271.79 1524.47 1269.96 1520.93 Q1268.15 1517.37 1264.52 1517.37 M1264.52 1513.66 Q1270.33 1513.66 1273.38 1518.27 Q1276.46 1522.85 1276.46 1531.6 Q1276.46 1540.33 1273.38 1544.94 Q1270.33 1549.52 1264.52 1549.52 Q1258.71 1549.52 1255.63 1544.94 Q1252.57 1540.33 1252.57 1531.6 Q1252.57 1522.85 1255.63 1518.27 Q1258.71 1513.66 1264.52 1513.66 Z" fill="#000000" fill-rule="nonzero" fill-opacity="1" /><path clip-path="url(#clip450)" d="M1294.68 1517.37 Q1291.07 1517.37 1289.24 1520.93 Q1287.44 1524.47 1287.44 1531.6 Q1287.44 1538.71 1289.24 1542.27 Q1291.07 1545.82 1294.68 1545.82 Q1298.31 1545.82 1300.12 1542.27 Q1301.95 1538.71 1301.95 1531.6 Q1301.95 1524.47 1300.12 1520.93 Q1298.31 1517.37 1294.68 1517.37 M1294.68 1513.66 Q1300.49 1513.66 1303.55 1518.27 Q1306.62 1522.85 1306.62 1531.6 Q1306.62 1540.33 1303.55 1544.94 Q1300.49 1549.52 1294.68 1549.52 Q1288.87 1549.52 1285.79 1544.94 Q1282.74 1540.33 1282.74 1531.6 Q1282.74 1522.85 1285.79 1518.27 Q1288.87 1513.66 1294.68 1513.66 Z" fill="#000000" fill-rule="nonzero" fill-opacity="1" /><path clip-path="url(#clip450)" d="M1736.28 1514.29 L1758.51 1514.29 L1758.51 1516.28 L1745.96 1548.85 L1741.08 1548.85 L1752.88 1518.22 L1736.28 1518.22 L1736.28 1514.29 Z" fill="#000000" fill-rule="nonzero" fill-opacity="1" /><path clip-path="url(#clip450)" d="M1767.67 1514.29 L1786.03 1514.29 L1786.03 1518.22 L1771.95 1518.22 L1771.95 1526.7 Q1772.97 1526.35 1773.99 1526.19 Q1775.01 1526 1776.03 1526 Q1781.82 1526 1785.2 1529.17 Q1788.57 1532.34 1788.57 1537.76 Q1788.57 1543.34 1785.1 1546.44 Q1781.63 1549.52 1775.31 1549.52 Q1773.14 1549.52 1770.87 1549.15 Q1768.62 1548.78 1766.21 1548.04 L1766.21 1543.34 Q1768.3 1544.47 1770.52 1545.03 Q1772.74 1545.58 1775.22 1545.58 Q1779.22 1545.58 1781.56 1543.48 Q1783.9 1541.37 1783.9 1537.76 Q1783.9 1534.15 1781.56 1532.04 Q1779.22 1529.94 1775.22 1529.94 Q1773.34 1529.94 1771.47 1530.35 Q1769.62 1530.77 1767.67 1531.65 L1767.67 1514.29 Z" fill="#000000" fill-rule="nonzero" fill-opacity="1" /><path clip-path="url(#clip450)" d="M1807.79 1517.37 Q1804.18 1517.37 1802.35 1520.93 Q1800.54 1524.47 1800.54 1531.6 Q1800.54 1538.71 1802.35 1542.27 Q1804.18 1545.82 1807.79 1545.82 Q1811.42 1545.82 1813.23 1542.27 Q1815.06 1538.71 1815.06 1531.6 Q1815.06 1524.47 1813.23 1520.93 Q1811.42 1517.37 1807.79 1517.37 M1807.79 1513.66 Q1813.6 1513.66 1816.65 1518.27 Q1819.73 1522.85 1819.73 1531.6 Q1819.73 1540.33 1816.65 1544.94 Q1813.6 1549.52 1807.79 1549.52 Q1801.98 1549.52 1798.9 1544.94 Q1795.84 1540.33 1795.84 1531.6 Q1795.84 1522.85 1798.9 1518.27 Q1801.98 1513.66 1807.79 1513.66 Z" fill="#000000" fill-rule="nonzero" fill-opacity="1" /><path clip-path="url(#clip450)" d="M2235.76 1544.91 L2243.4 1544.91 L2243.4 1518.55 L2235.09 1520.21 L2235.09 1515.95 L2243.35 1514.29 L2248.02 1514.29 L2248.02 1544.91 L2255.66 1544.91 L2255.66 1548.85 L2235.76 1548.85 L2235.76 1544.91 Z" fill="#000000" fill-rule="nonzero" fill-opacity="1" /><path clip-path="url(#clip450)" d="M2275.11 1517.37 Q2271.5 1517.37 2269.67 1520.93 Q2267.86 1524.47 2267.86 1531.6 Q2267.86 1538.71 2269.67 1542.27 Q2271.5 1545.82 2275.11 1545.82 Q2278.74 1545.82 2280.55 1542.27 Q2282.38 1538.71 2282.38 1531.6 Q2282.38 1524.47 2280.55 1520.93 Q2278.74 1517.37 2275.11 1517.37 M2275.11 1513.66 Q2280.92 1513.66 2283.97 1518.27 Q2287.05 1522.85 2287.05 1531.6 Q2287.05 1540.33 2283.97 1544.94 Q2280.92 1549.52 2275.11 1549.52 Q2269.3 1549.52 2266.22 1544.94 Q2263.16 1540.33 2263.16 1531.6 Q2263.16 1522.85 2266.22 1518.27 Q2269.3 1513.66 2275.11 1513.66 Z" fill="#000000" fill-rule="nonzero" fill-opacity="1" /><path clip-path="url(#clip450)" d="M2305.27 1517.37 Q2301.66 1517.37 2299.83 1520.93 Q2298.02 1524.47 2298.02 1531.6 Q2298.02 1538.71 2299.83 1542.27 Q2301.66 1545.82 2305.27 1545.82 Q2308.9 1545.82 2310.71 1542.27 Q2312.54 1538.71 2312.54 1531.6 Q2312.54 1524.47 2310.71 1520.93 Q2308.9 1517.37 2305.27 1517.37 M2305.27 1513.66 Q2311.08 1513.66 2314.14 1518.27 Q2317.21 1522.85 2317.21 1531.6 Q2317.21 1540.33 2314.14 1544.94 Q2311.08 1549.52 2305.27 1549.52 Q2299.46 1549.52 2296.38 1544.94 Q2293.33 1540.33 2293.33 1531.6 Q2293.33 1522.85 2296.38 1518.27 Q2299.46 1513.66 2305.27 1513.66 Z" fill="#000000" fill-rule="nonzero" fill-opacity="1" /><path clip-path="url(#clip450)" d="M2335.43 1517.37 Q2331.82 1517.37 2329.99 1520.93 Q2328.19 1524.47 2328.19 1531.6 Q2328.19 1538.71 2329.99 1542.27 Q2331.82 1545.82 2335.43 1545.82 Q2339.07 1545.82 2340.87 1542.27 Q2342.7 1538.71 2342.7 1531.6 Q2342.7 1524.47 2340.87 1520.93 Q2339.07 1517.37 2335.43 1517.37 M2335.43 1513.66 Q2341.24 1513.66 2344.3 1518.27 Q2347.38 1522.85 2347.38 1531.6 Q2347.38 1540.33 2344.3 1544.94 Q2341.24 1549.52 2335.43 1549.52 Q2329.62 1549.52 2326.54 1544.94 Q2323.49 1540.33 2323.49 1531.6 Q2323.49 1522.85 2326.54 1518.27 Q2329.62 1513.66 2335.43 1513.66 Z" fill="#000000" fill-rule="nonzero" fill-opacity="1" /><polyline clip-path="url(#clip450)" style="stroke:#000000; stroke-linecap:round; stroke-linejoin:round; stroke-width:4; stroke-opacity:1; fill:none" points="178.867,1486.45 178.867,847.244 "/>
<polyline clip-path="url(#clip450)" style="stroke:#000000; stroke-linecap:round; stroke-linejoin:round; stroke-width:4; stroke-opacity:1; fill:none" points="178.867,1486.45 197.764,1486.45 "/>
<polyline clip-path="url(#clip450)" style="stroke:#000000; stroke-linecap:round; stroke-linejoin:round; stroke-width:4; stroke-opacity:1; fill:none" points="178.867,1326.65 197.764,1326.65 "/>
<polyline clip-path="url(#clip450)" style="stroke:#000000; stroke-linecap:round; stroke-linejoin:round; stroke-width:4; stroke-opacity:1; fill:none" points="178.867,1166.85 197.764,1166.85 "/>
<polyline clip-path="url(#clip450)" style="stroke:#000000; stroke-linecap:round; stroke-linejoin:round; stroke-width:4; stroke-opacity:1; fill:none" points="178.867,1007.05 197.764,1007.05 "/>
<polyline clip-path="url(#clip450)" style="stroke:#000000; stroke-linecap:round; stroke-linejoin:round; stroke-width:4; stroke-opacity:1; fill:none" points="178.867,847.244 197.764,847.244 "/>
<path clip-path="url(#clip450)" d="M50.9921 1486.9 L80.6679 1486.9 L80.6679 1490.83 L50.9921 1490.83 L50.9921 1486.9 Z" fill="#000000" fill-rule="nonzero" fill-opacity="1" /><path clip-path="url(#clip450)" d="M91.5706 1499.79 L99.2095 1499.79 L99.2095 1473.43 L90.8993 1475.09 L90.8993 1470.83 L99.1632 1469.17 L103.839 1469.17 L103.839 1499.79 L111.478 1499.79 L111.478 1503.73 L91.5706 1503.73 L91.5706 1499.79 Z" fill="#000000" fill-rule="nonzero" fill-opacity="1" /><path clip-path="url(#clip450)" d="M130.922 1472.25 Q127.311 1472.25 125.482 1475.81 Q123.677 1479.35 123.677 1486.48 Q123.677 1493.59 125.482 1497.15 Q127.311 1500.7 130.922 1500.7 Q134.556 1500.7 136.362 1497.15 Q138.191 1493.59 138.191 1486.48 Q138.191 1479.35 136.362 1475.81 Q134.556 1472.25 130.922 1472.25 M130.922 1468.54 Q136.732 1468.54 139.788 1473.15 Q142.867 1477.73 142.867 1486.48 Q142.867 1495.21 139.788 1499.82 Q136.732 1504.4 130.922 1504.4 Q125.112 1504.4 122.033 1499.82 Q118.978 1495.21 118.978 1486.48 Q118.978 1477.73 122.033 1473.15 Q125.112 1468.54 130.922 1468.54 Z" fill="#000000" fill-rule="nonzero" fill-opacity="1" /><path clip-path="url(#clip450)" d="M82.1494 1327.1 L111.825 1327.1 L111.825 1331.03 L82.1494 1331.03 L82.1494 1327.1 Z" fill="#000000" fill-rule="nonzero" fill-opacity="1" /><path clip-path="url(#clip450)" d="M121.964 1309.37 L140.32 1309.37 L140.32 1313.3 L126.246 1313.3 L126.246 1321.77 Q127.265 1321.43 128.283 1321.27 Q129.302 1321.08 130.32 1321.08 Q136.107 1321.08 139.487 1324.25 Q142.867 1327.42 142.867 1332.84 Q142.867 1338.42 139.394 1341.52 Q135.922 1344.6 129.603 1344.6 Q127.427 1344.6 125.158 1344.23 Q122.913 1343.86 120.506 1343.12 L120.506 1338.42 Q122.589 1339.55 124.811 1340.11 Q127.033 1340.66 129.51 1340.66 Q133.515 1340.66 135.853 1338.56 Q138.191 1336.45 138.191 1332.84 Q138.191 1329.23 135.853 1327.12 Q133.515 1325.01 129.51 1325.01 Q127.635 1325.01 125.76 1325.43 Q123.908 1325.85 121.964 1326.73 L121.964 1309.37 Z" fill="#000000" fill-rule="nonzero" fill-opacity="1" /><path clip-path="url(#clip450)" d="M130.922 1152.64 Q127.311 1152.64 125.482 1156.21 Q123.677 1159.75 123.677 1166.88 Q123.677 1173.99 125.482 1177.55 Q127.311 1181.09 130.922 1181.09 Q134.556 1181.09 136.362 1177.55 Q138.191 1173.99 138.191 1166.88 Q138.191 1159.75 136.362 1156.21 Q134.556 1152.64 130.922 1152.64 M130.922 1148.94 Q136.732 1148.94 139.788 1153.55 Q142.867 1158.13 142.867 1166.88 Q142.867 1175.61 139.788 1180.21 Q136.732 1184.8 130.922 1184.8 Q125.112 1184.8 122.033 1180.21 Q118.978 1175.61 118.978 1166.88 Q118.978 1158.13 122.033 1153.55 Q125.112 1148.94 130.922 1148.94 Z" fill="#000000" fill-rule="nonzero" fill-opacity="1" /><path clip-path="url(#clip450)" d="M121.964 989.765 L140.32 989.765 L140.32 993.7 L126.246 993.7 L126.246 1002.17 Q127.265 1001.83 128.283 1001.66 Q129.302 1001.48 130.32 1001.48 Q136.107 1001.48 139.487 1004.65 Q142.867 1007.82 142.867 1013.24 Q142.867 1018.82 139.394 1021.92 Q135.922 1025 129.603 1025 Q127.427 1025 125.158 1024.63 Q122.913 1024.26 120.506 1023.51 L120.506 1018.82 Q122.589 1019.95 124.811 1020.51 Q127.033 1021.06 129.51 1021.06 Q133.515 1021.06 135.853 1018.95 Q138.191 1016.85 138.191 1013.24 Q138.191 1009.63 135.853 1007.52 Q133.515 1005.41 129.51 1005.41 Q127.635 1005.41 125.76 1005.83 Q123.908 1006.25 121.964 1007.13 L121.964 989.765 Z" fill="#000000" fill-rule="nonzero" fill-opacity="1" /><path clip-path="url(#clip450)" d="M91.5706 860.589 L99.2095 860.589 L99.2095 834.223 L90.8993 835.89 L90.8993 831.631 L99.1632 829.964 L103.839 829.964 L103.839 860.589 L111.478 860.589 L111.478 864.524 L91.5706 864.524 L91.5706 860.589 Z" fill="#000000" fill-rule="nonzero" fill-opacity="1" /><path clip-path="url(#clip450)" d="M130.922 833.043 Q127.311 833.043 125.482 836.608 Q123.677 840.149 123.677 847.279 Q123.677 854.385 125.482 857.95 Q127.311 861.492 130.922 861.492 Q134.556 861.492 136.362 857.95 Q138.191 854.385 138.191 847.279 Q138.191 840.149 136.362 836.608 Q134.556 833.043 130.922 833.043 M130.922 829.339 Q136.732 829.339 139.788 833.946 Q142.867 838.529 142.867 847.279 Q142.867 856.006 139.788 860.612 Q136.732 865.195 130.922 865.195 Q125.112 865.195 122.033 860.612 Q118.978 856.006 118.978 847.279 Q118.978 838.529 122.033 833.946 Q125.112 829.339 130.922 829.339 Z" fill="#000000" fill-rule="nonzero" fill-opacity="1" /><polyline clip-path="url(#clip453)" style="stroke:#009af9; stroke-linecap:round; stroke-linejoin:round; stroke-width:4; stroke-opacity:1; fill:none" points="240.392,1134.89 242.445,1174.35 244.498,1172.58 246.55,1128.4 248.603,1202.17 250.656,1162.64 252.709,1184.55 254.762,1123.51 256.815,1229.91 258.868,1169.52 260.921,1171.09 262.974,1199.65 265.027,1240.78 267.079,967.13 269.132,1203.05 271.185,1274.3 273.238,1291.81 275.291,1172.19 277.344,1345.51 279.397,1111.84 281.45,1154.6 283.503,1177.5 285.555,1162.5 287.608,1178.14 289.661,1176.25 291.714,1218.93 293.767,1183.04 295.82,1414.16 297.873,1207.64 299.926,1175.93 301.979,1156.93 304.031,1188.98 306.084,1151.61 308.137,1220.89 310.19,1012.86 312.243,1257.14 314.296,1315.39 316.349,1096.73 318.402,1263.66 320.455,1242.27 322.507,1187.27 324.56,1151.17 326.613,1146.92 328.666,1182.34 330.719,1174.13 332.772,1173.07 334.825,1154.93 336.878,1116.72 338.931,1196.56 340.984,1164.38 343.036,1161.41 345.089,1152.41 347.142,1184.82 349.195,1193.52 351.248,1080.57 353.301,1483.31 355.354,1347.08 357.407,1049.02 359.46,1225.45 361.512,1200.69 363.565,1198.3 365.618,1148.89 367.671,1152.51 369.724,1164.58 371.777,1193.95 373.83,1156.17 375.883,1199.6 377.936,1178.74 379.988,1200.47 382.041,1195.98 384.094,1229.61 386.147,1063.52 388.2,1195.74 390.253,1237.08 392.306,1120.76 394.359,1138.43 396.412,1190.39 398.464,940.893 400.517,1149.78 402.57,1134.72 404.623,1154.08 406.676,1221.83 408.729,1151.2 410.782,1165.68 412.835,1168.15 414.888,1181.95 416.94,1244.99 418.993,950.733 421.046,1199.33 423.099,1121.69 425.152,1127.07 427.205,1063.46 429.258,-155.681 431.311,1227.49 433.364,1030.21 435.417,1180.85 437.469,1153.06 439.522,1143.65 441.575,1376.99 443.628,1104.21 445.681,1017.11 447.734,2023.79 449.787,1151.23 451.84,1181.42 453.893,1124.61 455.945,1154.45 457.998,1149.1 460.051,1150.23 462.104,1051.58 464.157,1178.16 466.21,1173.33 468.263,1216.65 470.316,1168.47 472.369,1145.52 474.421,1172.28 476.474,1145.23 478.527,1128.01 480.58,1179.62 482.633,1173.12 484.686,1136.36 486.739,1137.98 488.792,1161.77 490.845,1164.47 492.897,1171.07 494.95,1152.1 497.003,1147.68 499.056,1149.48 501.109,1165.64 503.162,1195.87 505.215,1147.49 507.268,1199.11 509.321,1212.6 511.374,1079.13 513.426,1188.12 515.479,1140.58 517.532,1235.63 519.585,1256.35 521.638,893.747 523.691,1477.69 525.744,949.617 527.797,1341.02 529.85,1015.65 531.902,1155.13 533.955,1234.3 536.008,1127.09 538.061,1251.03 540.114,1203.51 542.167,1152.08 544.22,1159.26 546.273,1160.18 548.326,1177.22 550.378,1154.33 552.431,1193.75 554.484,1220.06 556.537,1174.89 558.59,1144.82 560.643,1197.04 562.696,1124.27 564.749,1159.58 566.802,1176.36 568.854,1176.16 570.907,1147.97 572.96,1225.59 575.013,1728.15 577.066,1789.53 579.119,1328.44 581.172,1018.55 583.225,1307.12 585.278,1096.25 587.331,1176.11 589.383,1170.44 591.436,1167.01 593.489,1151.54 595.542,1190.6 597.595,1295.48 599.648,1062.91 601.701,1230.95 603.754,1196.24 605.807,1172.31 607.859,1211.62 609.912,1121.29 611.965,1189.34 614.018,1167.78 616.071,1150.7 618.124,1285.23 620.177,1173.82 622.23,1165.88 624.283,1187.91 626.335,1211.51 628.388,1156.76 630.441,744.308 632.494,836.709 634.547,2979.34 636.6,680.955 638.653,189.366 640.706,1172.98 642.759,1956.92 644.811,734.209 646.864,1227.85 648.917,682.241 650.97,3560.63 653.023,-747.86 655.076,2551.61 657.129,1789.69 659.182,755.242 661.235,1112.62 663.288,1124.18 665.34,1261.43 667.393,10205.9 669.446,3949.59 671.499,500.324 673.552,1579.83 675.605,1479.93 677.658,1818.11 679.711,2941.4 681.764,917.546 683.816,-478.956 685.869,1488.68 687.922,2004.52 689.975,2431.53 692.028,310.594 694.081,1079.05 696.134,1899.75 698.187,754.961 700.24,-255.751 702.292,1158.56 704.345,1164.75 706.398,1183.29 708.451,1144.23 710.504,1102.08 712.557,1082.06 714.61,1152.12 716.663,1162.58 718.716,1146.39 720.768,1130.24 722.821,1120.06 724.874,1098.63 726.927,1144.52 728.98,1178.04 731.033,1160.88 733.086,1176.93 735.139,1291.13 737.192,1052.14 739.245,1286.3 741.297,1169.13 743.35,1167.42 745.403,1198.9 747.456,1167.76 749.509,1188.69 751.562,1164.56 753.615,1134.36 755.668,1212.01 757.721,1173.14 759.773,1166.9 761.826,1166.87 763.879,1146.22 765.932,1134.58 767.985,1131.4 770.038,1258.45 772.091,1255.15 774.144,1094.48 776.197,1188.09 778.249,1144.33 780.302,1147.94 782.355,1185.91 784.408,1227.35 786.461,1162.73 788.514,1167.08 790.567,1092.22 792.62,1132.55 794.673,2602.36 796.725,3004.56 798.778,2552.17 800.831,1147.58 802.884,1178.3 804.937,1198.57 806.99,1183.45 809.043,1033.43 811.096,1153.54 813.149,1162.28 815.202,1165.13 817.254,1139.05 819.307,1836.41 821.36,1230.64 823.413,1235.72 825.466,1152.43 827.519,1139.25 829.572,1183.07 831.625,1119.73 833.678,1204.01 835.73,1145.52 837.783,1140.86 839.836,1232.7 841.889,1222.17 843.942,1255.11 845.995,1176.78 848.048,1178.72 850.101,1162.11 852.154,1221.54 854.206,1236.8 856.259,1363.86 858.312,890.917 860.365,1118.54 862.418,1181.67 864.471,1171.22 866.524,1146.45 868.577,1305.19 870.63,1324.29 872.682,1391.6 874.735,1246.01 876.788,1216.86 878.841,1124.2 880.894,1124.89 882.947,1122.96 885,1115.38 887.053,1067.67 889.106,3755.39 891.159,2908.02 893.211,895.897 895.264,933.671 897.317,1227.89 899.37,1503.99 901.423,1602.67 903.476,1375.91 905.529,1036.57 907.582,1138.94 909.635,1191.48 911.687,1207.52 913.74,1190.81 915.793,1160.4 917.846,1163.24 919.899,1178.74 921.952,1161.79 924.005,1130.18 926.058,1171.39 928.111,1401.07 930.163,1400.65 932.216,1177.42 934.269,941.494 936.322,1288.78 938.375,1288.06 940.428,1706.74 942.481,696.417 944.534,1153.75 946.587,1115.33 948.639,1201.51 950.692,1046.81 952.745,1277.67 954.798,1165.84 956.851,1187.41 958.904,1220.82 960.957,1147.92 963.01,1481.9 965.063,1818.5 967.116,-991.7 969.168,-3659.72 971.221,-5309.07 973.274,-1496.85 975.327,-28693.2 977.38,-4903.3 979.433,45.2198 981.486,10495.6 983.539,1803.9 985.592,1113.92 987.644,1182.6 989.697,1173.1 991.75,1133.23 993.803,1113.87 995.856,1187.72 997.909,1028.72 999.962,1383.57 1002.01,1301.04 1004.07,1291.01 1006.12,1176.26 1008.17,1309.54 1010.23,1176.55 1012.28,1151.36 1014.33,1183.81 1016.38,1158.05 1018.44,1166.25 1020.49,1172.78 1022.54,1140.82 1024.6,1085.78 1026.65,1114.33 1028.7,1143.42 1030.76,1189.6 1032.81,1183.81 1034.86,1357.3 1036.91,1162.89 1038.97,1176.44 1041.02,1100.32 1043.07,1163.97 1045.13,1171.86 1047.18,1169.46 1049.23,1131.71 1051.28,1197.2 1053.34,1193.56 1055.39,1165.34 1057.44,400.919 1059.5,1137.3 1061.55,64.3465 1063.6,1574.55 1065.65,1188.16 1067.71,1172.21 1069.76,1174.14 1071.81,411.732 1073.87,923.75 1075.92,1011.91 1077.97,-255.676 1080.02,1397.04 1082.08,1113.97 1084.13,1375.97 1086.18,1684.18 1088.24,1615.49 1090.29,-1316.19 1092.34,1625.46 1094.39,1105.78 1096.45,899.745 1098.5,1169.85 1100.55,1305.8 1102.61,1089.18 1104.66,1185.28 1106.71,1193.91 1108.77,1153.99 1110.82,1119.35 1112.87,1227.71 1114.92,1099.41 1116.98,1099.04 1119.03,1098.26 1121.08,1182 1123.14,1191.09 1125.19,1026.78 1127.24,1172.55 1129.29,1173.85 1131.35,1152.23 1133.4,1157.05 1135.45,1150.18 1137.51,1187.38 1139.56,1157.07 1141.61,1170.55 1143.66,1213.73 1145.72,1119.89 1147.77,1038.08 1149.82,1201.23 1151.88,1202.02 1153.93,1157.71 1155.98,1249.1 1158.03,1221.89 1160.09,1129.31 1162.14,1204.21 1164.19,1173.17 1166.25,1161.15 1168.3,1153.05 1170.35,1149.8 1172.4,1170.48 1174.46,1157.35 1176.51,1080.48 1178.56,262.711 1180.62,832.406 1182.67,1168 1184.72,1169.27 1186.77,1174.69 1188.83,1178.84 1190.88,1204.2 1192.93,1192.66 1194.99,1189.76 1197.04,1067.14 1199.09,1216.11 1201.15,1208 1203.2,1128.96 1205.25,1086.98 1207.3,1221.1 1209.36,1072.48 1211.41,1310.44 1213.46,1208.68 1215.52,1198.49 1217.57,1152.1 1219.62,1150.75 1221.67,1171.83 1223.73,1159.98 1225.78,1168.31 1227.83,1088.91 1229.89,1181.18 1231.94,1176.35 1233.99,1180.04 1236.04,1185.99 1238.1,1163.57 1240.15,1175.2 1242.2,1171.52 1244.26,1164.3 1246.31,1186.74 1248.36,1116.83 1250.41,1194.7 1252.47,1175.8 1254.52,1188.28 1256.57,1198.25 1258.63,1154.27 1260.68,1176.72 1262.73,1193.32 1264.78,1146.13 1266.84,1167.53 1268.89,1149.32 1270.94,1063.99 1273,1222.63 1275.05,1126.98 1277.1,1197.09 1279.16,1199.97 1281.21,1295.02 1283.26,1195.28 1285.31,1182.11 1287.37,1171.76 1289.42,1150.18 1291.47,1154.39 1293.53,1158.52 1295.58,1159.87 1297.63,1159.97 1299.68,1435.79 1301.74,1389.27 1303.79,891.347 1305.84,1103.38 1307.9,1079.54 1309.95,1166.28 1312,1144.51 1314.05,1178.99 1316.11,1137.22 1318.16,1128.72 1320.21,1439.92 1322.27,1216.33 1324.32,1135.9 1326.37,1199.43 1328.42,1198.21 1330.48,1049.64 1332.53,1174.4 1334.58,1156.63 1336.64,1168.96 1338.69,1213.75 1340.74,1186.47 1342.79,1224.33 1344.85,1141.35 1346.9,1194.22 1348.95,1189.54 1351.01,1167.63 1353.06,1102.34 1355.11,1252.12 1357.16,1171.5 1359.22,1152.77 1361.27,1156.49 1363.32,1157.64 1365.38,1090.91 1367.43,1090.04 1369.48,1156.58 1371.54,1175.53 1373.59,1141.97 1375.64,1267.75 1377.69,1237.44 1379.75,992.057 1381.8,1305.58 1383.85,1076.6 1385.91,1218.68 1387.96,1192.47 1390.01,1152.66 1392.06,976.792 1394.12,1082.34 1396.17,1186.26 1398.22,1141.61 1400.28,1173.18 1402.33,1141.02 1404.38,1146.14 1406.43,1159.04 1408.49,1184.09 1410.54,942.665 1412.59,1094.04 1414.65,1155.46 1416.7,1217.98 1418.75,1258.39 1420.8,1141.76 1422.86,1189.65 1424.91,1417.06 1426.96,1085.44 1429.02,1243.87 1431.07,1139.68 1433.12,1187.46 1435.17,1211.62 1437.23,1273.86 1439.28,1054.2 1441.33,1064.4 1443.39,1319.45 1445.44,1208.91 1447.49,1106.45 1449.55,1184.21 1451.6,1195.98 1453.65,1196.24 1455.7,1196.18 1457.76,1184.46 1459.81,1155.39 1461.86,1140.59 1463.92,1161.44 1465.97,1179.84 1468.02,1169.16 1470.07,1264.05 1472.13,1179.88 1474.18,1229.83 1476.23,1227.18 1478.29,1174.56 1480.34,1159.93 1482.39,1115.55 1484.44,1247.71 1486.5,1236.99 1488.55,1022.99 1490.6,1161.68 1492.66,1166.05 1494.71,905.147 1496.76,1249.4 1498.81,1282.26 1500.87,1265.46 1502.92,1041.12 1504.97,1103.72 1507.03,1113.72 1509.08,1173.83 1511.13,1163.07 1513.18,1169.65 1515.24,1145.21 1517.29,1197.87 1519.34,1163.31 1521.4,1191.7 1523.45,1191.23 1525.5,1153.71 1527.55,1151.97 1529.61,1185.86 1531.66,995.357 1533.71,1697.95 1535.77,801.556 1537.82,1519.05 1539.87,1129.6 1541.93,1215.4 1543.98,1148.61 1546.03,1179.57 1548.08,1178.63 1550.14,1175.03 1552.19,1169.53 1554.24,1168.11 1556.3,1226.67 1558.35,1147.56 1560.4,1169.59 1562.45,1153.86 1564.51,1194.21 1566.56,1059.77 1568.61,1205.05 1570.67,1148.31 1572.72,1148.16 1574.77,1170.48 1576.82,1157.25 1578.88,1219.08 1580.93,1170.28 1582.98,1171 1585.04,1167.63 1587.09,1130.65 1589.14,1139.75 1591.19,1252.86 1593.25,1104.87 1595.3,1189.19 1597.35,1132.87 1599.41,1125.58 1601.46,1134.9 1603.51,1216.3 1605.56,1101.61 1607.62,1139.77 1609.67,1178.11 1611.72,1164.98 1613.78,1145.65 1615.83,1167.23 1617.88,1176.16 1619.94,1192.08 1621.99,1214.9 1624.04,1153.13 1626.09,1133.7 1628.15,986.06 1630.2,1166.83 1632.25,1200.56 1634.31,1234.33 1636.36,1136.16 1638.41,1206.62 1640.46,1245.31 1642.52,1252.25 1644.57,989.834 1646.62,944.543 1648.68,3266.69 1650.73,1176.2 1652.78,863.892 1654.83,547.938 1656.89,1017.91 1658.94,1368.83 1660.99,1159.25 1663.05,1104.9 1665.1,1133.26 1667.15,1178.68 1669.2,1188.93 1671.26,1147.02 1673.31,1187.65 1675.36,1150.12 1677.42,1141.91 1679.47,1195.52 1681.52,1197.4 1683.57,1259.15 1685.63,1208.27 1687.68,1156 1689.73,1176.05 1691.79,1161.72 1693.84,1174.04 1695.89,1099.92 1697.94,1140.61 1700,1159.98 1702.05,1159.16 1704.1,1137.03 1706.16,1109.79 1708.21,1246.24 1710.26,1160.1 1712.32,1142.83 1714.37,1194.3 1716.42,1098.31 1718.47,1166.78 1720.53,1159.34 1722.58,1161.14 1724.63,1178.76 1726.69,1163.39 1728.74,1138.53 1730.79,895.344 1732.84,1193.17 1734.9,1117.8 1736.95,1104.6 1739,1192.68 1741.06,1205.34 1743.11,1098.42 1745.16,1218.58 1747.21,1118.73 1749.27,1186.56 1751.32,1181.13 1753.37,1094.21 1755.43,1135.88 1757.48,1128.96 1759.53,1218.57 1761.58,1235.06 1763.64,1215.88 1765.69,1134.53 1767.74,1094.61 1769.8,1226.02 1771.85,1105.74 1773.9,1040.21 1775.95,1169.08 1778.01,1158.71 1780.06,1135.3 1782.11,1221.14 1784.17,1230.3 1786.22,1245.14 1788.27,1174.85 1790.33,1148.04 1792.38,1218.36 1794.43,1169.18 1796.48,1168.13 1798.54,1171.44 1800.59,1103.74 1802.64,1167.5 1804.7,1173.57 1806.75,1166.06 1808.8,1206.96 1810.85,1103.2 1812.91,1091.33 1814.96,1204.07 1817.01,1177.84 1819.07,1140.61 1821.12,1248.6 1823.17,1048.3 1825.22,1577.84 1827.28,1528.1 1829.33,1259.05 1831.38,1268.29 1833.44,1246 1835.49,1138.27 1837.54,1180.37 1839.59,1153.73 1841.65,1189 1843.7,1171.65 1845.75,1115.04 1847.81,1180.92 1849.86,1220.88 1851.91,1231.33 1853.96,1199.06 1856.02,1170.88 1858.07,1172.94 1860.12,1165.13 1862.18,1167.87 1864.23,1167.76 1866.28,1125.35 1868.34,1152.62 1870.39,1124.29 1872.44,1178.54 1874.49,1096.55 1876.55,1197.56 1878.6,1171.6 1880.65,1142.56 1882.71,228.234 1884.76,817.836 1886.81,1197.43 1888.86,1194.53 1890.92,1194.35 1892.97,1135 1895.02,1167.2 1897.08,1234.05 1899.13,1151.39 1901.18,1173.95 1903.23,1027.28 1905.29,1430.33 1907.34,1270.94 1909.39,1174.04 1911.45,1164.36 1913.5,1161.74 1915.55,1173.35 1917.6,1323.71 1919.66,873.604 1921.71,932.875 1923.76,1601.81 1925.82,1208.47 1927.87,1124.57 1929.92,1168.63 1931.97,1187.04 1934.03,1211.99 1936.08,1180.12 1938.13,1128.47 1940.19,1129.8 1942.24,1141.09 1944.29,1178.56 1946.34,1194.21 1948.4,1178.89 1950.45,1142.94 1952.5,1124.51 1954.56,1155.84 1956.61,1146.46 1958.66,1170.67 1960.72,1136.18 1962.77,1136.42 1964.82,1152.42 1966.87,1173.9 1968.93,1178.99 1970.98,1184.74 1973.03,1178.13 1975.09,1206.51 1977.14,1131.22 1979.19,1207.52 1981.24,1151.72 1983.3,1148.27 1985.35,1274.89 1987.4,1232.62 1989.46,940.879 1991.51,1127.88 1993.56,1229.84 1995.61,677.552 1997.67,1023.4 1999.72,1151.47 2001.77,1160.53 2003.83,1251.87 2005.88,1351.03 2007.93,1156.76 2009.98,788.124 2012.04,813.934 2014.09,124.715 2016.14,1072.86 2018.2,1239.28 2020.25,1158.16 2022.3,1156.73 2024.35,1204.69 2026.41,1096.62 2028.46,881.59 2030.51,1207.21 2032.57,1157.44 2034.62,1176.34 2036.67,1182.11 2038.73,1158.19 2040.78,1181.3 2042.83,1184.08 2044.88,1190.18 2046.94,1150.57 2048.99,1140.38 2051.04,1196.55 2053.1,1180.81 2055.15,1163.97 2057.2,1172.28 2059.25,1169.52 2061.31,1167.73 2063.36,1173.88 2065.41,1155.48 2067.47,1159.23 2069.52,1181.1 2071.57,1154.71 2073.62,1262.89 2075.68,1008.87 2077.73,1106.35 2079.78,1115.98 2081.84,1176.73 2083.89,1196.13 2085.94,1050.28 2087.99,1284.72 2090.05,1165.8 2092.1,1155.99 2094.15,1155.75 2096.21,1219.46 2098.26,1215.35 2100.31,997.737 2102.36,1607.12 2104.42,1694.2 2106.47,1123.57 2108.52,1190.04 2110.58,1413.97 2112.63,1135.97 2114.68,1200.17 2116.73,1150.8 2118.79,1206.03 2120.84,1176.22 2122.89,1142.84 2124.95,1152.91 2127,1070.96 2129.05,826.449 2131.11,1419.64 2133.16,884.893 2135.21,863.203 2137.26,1505.67 2139.32,1629.88 2141.37,1533.49 2143.42,966.287 2145.48,745.613 2147.53,1202.84 2149.58,1191.71 2151.63,1197.14 2153.69,1120.69 2155.74,1198.43 2157.79,1138.92 2159.85,1179.71 2161.9,1080.79 2163.95,1122.45 2166,890.277 2168.06,1293.83 2170.11,1214.61 2172.16,718.197 2174.22,583.133 2176.27,1764.63 2178.32,1728.64 2180.37,914.93 2182.43,1182.23 2184.48,1139.94 2186.53,1193.86 2188.59,1248.72 2190.64,1292.99 2192.69,987.922 2194.74,1121.66 2196.8,1145.63 2198.85,1186.67 2200.9,997.428 2202.96,1203.24 2205.01,1135.78 2207.06,1236.64 2209.12,1115.87 2211.17,1147.28 2213.22,1172.87 2215.27,1152.29 2217.33,1136.17 2219.38,1144.87 2221.43,1149.63 2223.49,1516.81 2225.54,1274.58 2227.59,1236.17 2229.64,1124.75 2231.7,989.946 2233.75,1406.14 2235.8,1093.6 2237.86,1195.92 2239.91,1115.38 2241.96,1219.05 2244.01,1159.14 2246.07,1159.84 2248.12,1145.85 2250.17,1178.5 2252.23,1163.79 2254.28,1174.22 2256.33,1200.8 2258.38,1820.45 2260.44,1054.71 2262.49,599.667 2264.54,1123.08 2266.6,1161.12 2268.65,1162.87 2270.7,1187.61 2272.75,1665.99 2274.81,1016.61 2276.86,1151.81 2278.91,1086.32 2280.97,1098.83 2283.02,1191.13 2285.07,1252.89 2287.12,1409.32 2289.18,1050.62 2291.23,1161.04 "/>
<path clip-path="url(#clip450)" d="M251.33 972.231 L588.926 972.231 L588.926 868.551 L251.33 868.551  Z" fill="#ffffff" fill-rule="evenodd" fill-opacity="1"/>
<polyline clip-path="url(#clip450)" style="stroke:#000000; stroke-linecap:round; stroke-linejoin:round; stroke-width:4; stroke-opacity:1; fill:none" points="251.33,972.231 588.926,972.231 588.926,868.551 251.33,868.551 251.33,972.231 "/>
<polyline clip-path="url(#clip450)" style="stroke:#009af9; stroke-linecap:round; stroke-linejoin:round; stroke-width:4; stroke-opacity:1; fill:none" points="275.484,920.391 420.41,920.391 "/>
<path clip-path="url(#clip450)" d="M470.12 932.74 L470.12 923.458 L462.481 923.458 L462.481 919.615 L474.749 919.615 L474.749 934.453 Q472.041 936.375 468.777 937.37 Q465.513 938.342 461.809 938.342 Q453.708 938.342 449.124 933.62 Q444.564 928.875 444.564 920.426 Q444.564 911.953 449.124 907.231 Q453.708 902.486 461.809 902.486 Q465.189 902.486 468.221 903.319 Q471.277 904.153 473.846 905.773 L473.846 910.75 Q471.254 908.551 468.337 907.44 Q465.421 906.328 462.203 906.328 Q455.86 906.328 452.666 909.87 Q449.495 913.412 449.495 920.426 Q449.495 927.416 452.666 930.958 Q455.86 934.5 462.203 934.5 Q464.68 934.5 466.624 934.083 Q468.569 933.643 470.12 932.74 Z" fill="#000000" fill-rule="nonzero" fill-opacity="1" /><path clip-path="url(#clip450)" d="M487.967 906.953 L487.967 919.94 L493.846 919.94 Q497.11 919.94 498.893 918.25 Q500.675 916.56 500.675 913.435 Q500.675 910.333 498.893 908.643 Q497.11 906.953 493.846 906.953 L487.967 906.953 M483.291 903.111 L493.846 903.111 Q499.657 903.111 502.619 905.75 Q505.606 908.365 505.606 913.435 Q505.606 918.551 502.619 921.166 Q499.657 923.782 493.846 923.782 L487.967 923.782 L487.967 937.671 L483.291 937.671 L483.291 903.111 Z" fill="#000000" fill-rule="nonzero" fill-opacity="1" /><path clip-path="url(#clip450)" d="M532.596 904.245 L532.596 908.805 Q529.934 907.532 527.573 906.907 Q525.212 906.282 523.013 906.282 Q519.193 906.282 517.11 907.764 Q515.05 909.245 515.05 911.977 Q515.05 914.268 516.416 915.449 Q517.805 916.606 521.647 917.324 L524.471 917.902 Q529.703 918.898 532.179 921.421 Q534.679 923.921 534.679 928.134 Q534.679 933.157 531.3 935.75 Q527.943 938.342 521.439 938.342 Q518.985 938.342 516.207 937.787 Q513.453 937.231 510.49 936.143 L510.49 931.328 Q513.337 932.926 516.068 933.736 Q518.8 934.546 521.439 934.546 Q525.443 934.546 527.619 932.972 Q529.795 931.398 529.795 928.481 Q529.795 925.935 528.221 924.5 Q526.67 923.064 523.105 922.347 L520.258 921.791 Q515.027 920.75 512.689 918.527 Q510.351 916.305 510.351 912.347 Q510.351 907.764 513.568 905.125 Q516.809 902.486 522.48 902.486 Q524.911 902.486 527.434 902.926 Q529.957 903.366 532.596 904.245 Z" fill="#000000" fill-rule="nonzero" fill-opacity="1" /><path clip-path="url(#clip450)" d="M562.689 904.245 L562.689 908.805 Q560.027 907.532 557.665 906.907 Q555.304 906.282 553.105 906.282 Q549.286 906.282 547.203 907.764 Q545.142 909.245 545.142 911.977 Q545.142 914.268 546.508 915.449 Q547.897 916.606 551.74 917.324 L554.564 917.902 Q559.795 918.898 562.272 921.421 Q564.772 923.921 564.772 928.134 Q564.772 933.157 561.392 935.75 Q558.036 938.342 551.531 938.342 Q549.078 938.342 546.3 937.787 Q543.545 937.231 540.582 936.143 L540.582 931.328 Q543.429 932.926 546.161 933.736 Q548.892 934.546 551.531 934.546 Q555.536 934.546 557.712 932.972 Q559.888 931.398 559.888 928.481 Q559.888 925.935 558.314 924.5 Q556.763 923.064 553.198 922.347 L550.351 921.791 Q545.119 920.75 542.781 918.527 Q540.443 916.305 540.443 912.347 Q540.443 907.764 543.661 905.125 Q546.902 902.486 552.573 902.486 Q555.003 902.486 557.527 902.926 Q560.05 903.366 562.689 904.245 Z" fill="#000000" fill-rule="nonzero" fill-opacity="1" /></svg>
