<?xml version="1.0" encoding="utf-8"?>
<svg xmlns="http://www.w3.org/2000/svg" xmlns:xlink="http://www.w3.org/1999/xlink" width="600" height="400" viewBox="0 0 2400 1600">
<defs>
  <clipPath id="clip800">
    <rect x="0" y="0" width="2400" height="1600"/>
  </clipPath>
</defs>
<path clip-path="url(#clip800)" d="M0 1600 L2400 1600 L2400 0 L0 0  Z" fill="#ffffff" fill-rule="evenodd" fill-opacity="1"/>
<defs>
  <clipPath id="clip801">
    <rect x="480" y="0" width="1681" height="1600"/>
  </clipPath>
</defs>
<path clip-path="url(#clip800)" d="M178.867 686.448 L2352.76 686.448 L2352.76 47.2441 L178.867 47.2441  Z" fill="#ffffff" fill-rule="evenodd" fill-opacity="1"/>
<defs>
  <clipPath id="clip802">
    <rect x="178" y="47" width="2175" height="640"/>
  </clipPath>
</defs>
<polyline clip-path="url(#clip802)" style="stroke:#000000; stroke-linecap:round; stroke-linejoin:round; stroke-width:2; stroke-opacity:0.1; fill:none" points="238.339,686.448 238.339,47.2441 "/>
<polyline clip-path="url(#clip802)" style="stroke:#000000; stroke-linecap:round; stroke-linejoin:round; stroke-width:2; stroke-opacity:0.1; fill:none" points="751.562,686.448 751.562,47.2441 "/>
<polyline clip-path="url(#clip802)" style="stroke:#000000; stroke-linecap:round; stroke-linejoin:round; stroke-width:2; stroke-opacity:0.1; fill:none" points="1264.78,686.448 1264.78,47.2441 "/>
<polyline clip-path="url(#clip802)" style="stroke:#000000; stroke-linecap:round; stroke-linejoin:round; stroke-width:2; stroke-opacity:0.1; fill:none" points="1778.01,686.448 1778.01,47.2441 "/>
<polyline clip-path="url(#clip802)" style="stroke:#000000; stroke-linecap:round; stroke-linejoin:round; stroke-width:2; stroke-opacity:0.1; fill:none" points="2291.23,686.448 2291.23,47.2441 "/>
<polyline clip-path="url(#clip800)" style="stroke:#000000; stroke-linecap:round; stroke-linejoin:round; stroke-width:4; stroke-opacity:1; fill:none" points="178.867,686.448 2352.76,686.448 "/>
<polyline clip-path="url(#clip800)" style="stroke:#000000; stroke-linecap:round; stroke-linejoin:round; stroke-width:4; stroke-opacity:1; fill:none" points="238.339,686.448 238.339,667.55 "/>
<polyline clip-path="url(#clip800)" style="stroke:#000000; stroke-linecap:round; stroke-linejoin:round; stroke-width:4; stroke-opacity:1; fill:none" points="751.562,686.448 751.562,667.55 "/>
<polyline clip-path="url(#clip800)" style="stroke:#000000; stroke-linecap:round; stroke-linejoin:round; stroke-width:4; stroke-opacity:1; fill:none" points="1264.78,686.448 1264.78,667.55 "/>
<polyline clip-path="url(#clip800)" style="stroke:#000000; stroke-linecap:round; stroke-linejoin:round; stroke-width:4; stroke-opacity:1; fill:none" points="1778.01,686.448 1778.01,667.55 "/>
<polyline clip-path="url(#clip800)" style="stroke:#000000; stroke-linecap:round; stroke-linejoin:round; stroke-width:4; stroke-opacity:1; fill:none" points="2291.23,686.448 2291.23,667.55 "/>
<path clip-path="url(#clip800)" d="M238.339 717.367 Q234.728 717.367 232.899 720.931 Q231.094 724.473 231.094 731.603 Q231.094 738.709 232.899 742.274 Q234.728 745.815 238.339 745.815 Q241.973 745.815 243.779 742.274 Q245.607 738.709 245.607 731.603 Q245.607 724.473 243.779 720.931 Q241.973 717.367 238.339 717.367 M238.339 713.663 Q244.149 713.663 247.205 718.269 Q250.283 722.853 250.283 731.603 Q250.283 740.329 247.205 744.936 Q244.149 749.519 238.339 749.519 Q232.529 749.519 229.45 744.936 Q226.395 740.329 226.395 731.603 Q226.395 722.853 229.45 718.269 Q232.529 713.663 238.339 713.663 Z" fill="#000000" fill-rule="nonzero" fill-opacity="1" /><path clip-path="url(#clip800)" d="M715.254 744.913 L731.574 744.913 L731.574 748.848 L709.629 748.848 L709.629 744.913 Q712.291 742.158 716.875 737.528 Q721.481 732.876 722.662 731.533 Q724.907 729.01 725.787 727.274 Q726.689 725.515 726.689 723.825 Q726.689 721.07 724.745 719.334 Q722.824 717.598 719.722 717.598 Q717.523 717.598 715.069 718.362 Q712.638 719.126 709.861 720.677 L709.861 715.955 Q712.685 714.82 715.138 714.242 Q717.592 713.663 719.629 713.663 Q725 713.663 728.194 716.348 Q731.388 719.033 731.388 723.524 Q731.388 725.654 730.578 727.575 Q729.791 729.473 727.685 732.066 Q727.106 732.737 724.004 735.954 Q720.902 739.149 715.254 744.913 Z" fill="#000000" fill-rule="nonzero" fill-opacity="1" /><path clip-path="url(#clip800)" d="M741.435 714.288 L759.791 714.288 L759.791 718.223 L745.717 718.223 L745.717 726.695 Q746.736 726.348 747.754 726.186 Q748.773 726.001 749.791 726.001 Q755.578 726.001 758.958 729.172 Q762.337 732.343 762.337 737.76 Q762.337 743.339 758.865 746.44 Q755.393 749.519 749.073 749.519 Q746.898 749.519 744.629 749.149 Q742.384 748.778 739.976 748.038 L739.976 743.339 Q742.06 744.473 744.282 745.028 Q746.504 745.584 748.981 745.584 Q752.985 745.584 755.323 743.478 Q757.661 741.371 757.661 737.76 Q757.661 734.149 755.323 732.042 Q752.985 729.936 748.981 729.936 Q747.106 729.936 745.231 730.353 Q743.379 730.769 741.435 731.649 L741.435 714.288 Z" fill="#000000" fill-rule="nonzero" fill-opacity="1" /><path clip-path="url(#clip800)" d="M781.55 717.367 Q777.939 717.367 776.11 720.931 Q774.305 724.473 774.305 731.603 Q774.305 738.709 776.11 742.274 Q777.939 745.815 781.55 745.815 Q785.184 745.815 786.99 742.274 Q788.819 738.709 788.819 731.603 Q788.819 724.473 786.99 720.931 Q785.184 717.367 781.55 717.367 M781.55 713.663 Q787.36 713.663 790.416 718.269 Q793.495 722.853 793.495 731.603 Q793.495 740.329 790.416 744.936 Q787.36 749.519 781.55 749.519 Q775.74 749.519 772.661 744.936 Q769.606 740.329 769.606 731.603 Q769.606 722.853 772.661 718.269 Q775.74 713.663 781.55 713.663 Z" fill="#000000" fill-rule="nonzero" fill-opacity="1" /><path clip-path="url(#clip800)" d="M1224.4 714.288 L1242.76 714.288 L1242.76 718.223 L1228.69 718.223 L1228.69 726.695 Q1229.7 726.348 1230.72 726.186 Q1231.74 726.001 1232.76 726.001 Q1238.55 726.001 1241.93 729.172 Q1245.31 732.343 1245.31 737.76 Q1245.31 743.339 1241.83 746.44 Q1238.36 749.519 1232.04 749.519 Q1229.87 749.519 1227.6 749.149 Q1225.35 748.778 1222.94 748.038 L1222.94 743.339 Q1225.03 744.473 1227.25 745.028 Q1229.47 745.584 1231.95 745.584 Q1235.95 745.584 1238.29 743.478 Q1240.63 741.371 1240.63 737.76 Q1240.63 734.149 1238.29 732.042 Q1235.95 729.936 1231.95 729.936 Q1230.07 729.936 1228.2 730.353 Q1226.35 730.769 1224.4 731.649 L1224.4 714.288 Z" fill="#000000" fill-rule="nonzero" fill-opacity="1" /><path clip-path="url(#clip800)" d="M1264.52 717.367 Q1260.91 717.367 1259.08 720.931 Q1257.27 724.473 1257.27 731.603 Q1257.27 738.709 1259.08 742.274 Q1260.91 745.815 1264.52 745.815 Q1268.15 745.815 1269.96 742.274 Q1271.79 738.709 1271.79 731.603 Q1271.79 724.473 1269.96 720.931 Q1268.15 717.367 1264.52 717.367 M1264.52 713.663 Q1270.33 713.663 1273.38 718.269 Q1276.46 722.853 1276.46 731.603 Q1276.46 740.329 1273.38 744.936 Q1270.33 749.519 1264.52 749.519 Q1258.71 749.519 1255.63 744.936 Q1252.57 740.329 1252.57 731.603 Q1252.57 722.853 1255.63 718.269 Q1258.71 713.663 1264.52 713.663 Z" fill="#000000" fill-rule="nonzero" fill-opacity="1" /><path clip-path="url(#clip800)" d="M1294.68 717.367 Q1291.07 717.367 1289.24 720.931 Q1287.44 724.473 1287.44 731.603 Q1287.44 738.709 1289.24 742.274 Q1291.07 745.815 1294.68 745.815 Q1298.31 745.815 1300.12 742.274 Q1301.95 738.709 1301.95 731.603 Q1301.95 724.473 1300.12 720.931 Q1298.31 717.367 1294.68 717.367 M1294.68 713.663 Q1300.49 713.663 1303.55 718.269 Q1306.62 722.853 1306.62 731.603 Q1306.62 740.329 1303.55 744.936 Q1300.49 749.519 1294.68 749.519 Q1288.87 749.519 1285.79 744.936 Q1282.74 740.329 1282.74 731.603 Q1282.74 722.853 1285.79 718.269 Q1288.87 713.663 1294.68 713.663 Z" fill="#000000" fill-rule="nonzero" fill-opacity="1" /><path clip-path="url(#clip800)" d="M1736.28 714.288 L1758.51 714.288 L1758.51 716.279 L1745.96 748.848 L1741.08 748.848 L1752.88 718.223 L1736.28 718.223 L1736.28 714.288 Z" fill="#000000" fill-rule="nonzero" fill-opacity="1" /><path clip-path="url(#clip800)" d="M1767.67 714.288 L1786.03 714.288 L1786.03 718.223 L1771.95 718.223 L1771.95 726.695 Q1772.97 726.348 1773.99 726.186 Q1775.01 726.001 1776.03 726.001 Q1781.82 726.001 1785.2 729.172 Q1788.57 732.343 1788.57 737.76 Q1788.57 743.339 1785.1 746.44 Q1781.63 749.519 1775.31 749.519 Q1773.14 749.519 1770.87 749.149 Q1768.62 748.778 1766.21 748.038 L1766.21 743.339 Q1768.3 744.473 1770.52 745.028 Q1772.74 745.584 1775.22 745.584 Q1779.22 745.584 1781.56 743.478 Q1783.9 741.371 1783.9 737.76 Q1783.9 734.149 1781.56 732.042 Q1779.22 729.936 1775.22 729.936 Q1773.34 729.936 1771.47 730.353 Q1769.62 730.769 1767.67 731.649 L1767.67 714.288 Z" fill="#000000" fill-rule="nonzero" fill-opacity="1" /><path clip-path="url(#clip800)" d="M1807.79 717.367 Q1804.18 717.367 1802.35 720.931 Q1800.54 724.473 1800.54 731.603 Q1800.54 738.709 1802.35 742.274 Q1804.18 745.815 1807.79 745.815 Q1811.42 745.815 1813.23 742.274 Q1815.06 738.709 1815.06 731.603 Q1815.06 724.473 1813.23 720.931 Q1811.42 717.367 1807.79 717.367 M1807.79 713.663 Q1813.6 713.663 1816.65 718.269 Q1819.73 722.853 1819.73 731.603 Q1819.73 740.329 1816.65 744.936 Q1813.6 749.519 1807.79 749.519 Q1801.98 749.519 1798.9 744.936 Q1795.84 740.329 1795.84 731.603 Q1795.84 722.853 1798.9 718.269 Q1801.98 713.663 1807.79 713.663 Z" fill="#000000" fill-rule="nonzero" fill-opacity="1" /><path clip-path="url(#clip800)" d="M2235.76 744.913 L2243.4 744.913 L2243.4 718.547 L2235.09 720.214 L2235.09 715.955 L2243.35 714.288 L2248.02 714.288 L2248.02 744.913 L2255.66 744.913 L2255.66 748.848 L2235.76 748.848 L2235.76 744.913 Z" fill="#000000" fill-rule="nonzero" fill-opacity="1" /><path clip-path="url(#clip800)" d="M2275.11 717.367 Q2271.5 717.367 2269.67 720.931 Q2267.86 724.473 2267.86 731.603 Q2267.86 738.709 2269.67 742.274 Q2271.5 745.815 2275.11 745.815 Q2278.74 745.815 2280.55 742.274 Q2282.38 738.709 2282.38 731.603 Q2282.38 724.473 2280.55 720.931 Q2278.74 717.367 2275.11 717.367 M2275.11 713.663 Q2280.92 713.663 2283.97 718.269 Q2287.05 722.853 2287.05 731.603 Q2287.05 740.329 2283.97 744.936 Q2280.92 749.519 2275.11 749.519 Q2269.3 749.519 2266.22 744.936 Q2263.16 740.329 2263.16 731.603 Q2263.16 722.853 2266.22 718.269 Q2269.3 713.663 2275.11 713.663 Z" fill="#000000" fill-rule="nonzero" fill-opacity="1" /><path clip-path="url(#clip800)" d="M2305.27 717.367 Q2301.66 717.367 2299.83 720.931 Q2298.02 724.473 2298.02 731.603 Q2298.02 738.709 2299.83 742.274 Q2301.66 745.815 2305.27 745.815 Q2308.9 745.815 2310.71 742.274 Q2312.54 738.709 2312.54 731.603 Q2312.54 724.473 2310.71 720.931 Q2308.9 717.367 2305.27 717.367 M2305.27 713.663 Q2311.08 713.663 2314.14 718.269 Q2317.21 722.853 2317.21 731.603 Q2317.21 740.329 2314.14 744.936 Q2311.08 749.519 2305.27 749.519 Q2299.46 749.519 2296.38 744.936 Q2293.33 740.329 2293.33 731.603 Q2293.33 722.853 2296.38 718.269 Q2299.46 713.663 2305.27 713.663 Z" fill="#000000" fill-rule="nonzero" fill-opacity="1" /><path clip-path="url(#clip800)" d="M2335.43 717.367 Q2331.82 717.367 2329.99 720.931 Q2328.19 724.473 2328.19 731.603 Q2328.19 738.709 2329.99 742.274 Q2331.82 745.815 2335.43 745.815 Q2339.07 745.815 2340.87 742.274 Q2342.7 738.709 2342.7 731.603 Q2342.7 724.473 2340.87 720.931 Q2339.07 717.367 2335.43 717.367 M2335.43 713.663 Q2341.24 713.663 2344.3 718.269 Q2347.38 722.853 2347.38 731.603 Q2347.38 740.329 2344.3 744.936 Q2341.24 749.519 2335.43 749.519 Q2329.62 749.519 2326.54 744.936 Q2323.49 740.329 2323.49 731.603 Q2323.49 722.853 2326.54 718.269 Q2329.62 713.663 2335.43 713.663 Z" fill="#000000" fill-rule="nonzero" fill-opacity="1" /><polyline clip-path="url(#clip802)" style="stroke:#000000; stroke-linecap:round; stroke-linejoin:round; stroke-width:2; stroke-opacity:0.1; fill:none" points="178.867,686.448 2352.76,686.448 "/>
<polyline clip-path="url(#clip802)" style="stroke:#000000; stroke-linecap:round; stroke-linejoin:round; stroke-width:2; stroke-opacity:0.1; fill:none" points="178.867,526.647 2352.76,526.647 "/>
<polyline clip-path="url(#clip802)" style="stroke:#000000; stroke-linecap:round; stroke-linejoin:round; stroke-width:2; stroke-opacity:0.1; fill:none" points="178.867,366.846 2352.76,366.846 "/>
<polyline clip-path="url(#clip802)" style="stroke:#000000; stroke-linecap:round; stroke-linejoin:round; stroke-width:2; stroke-opacity:0.1; fill:none" points="178.867,207.045 2352.76,207.045 "/>
<polyline clip-path="url(#clip802)" style="stroke:#000000; stroke-linecap:round; stroke-linejoin:round; stroke-width:2; stroke-opacity:0.1; fill:none" points="178.867,47.2441 2352.76,47.2441 "/>
<polyline clip-path="url(#clip800)" style="stroke:#000000; stroke-linecap:round; stroke-linejoin:round; stroke-width:4; stroke-opacity:1; fill:none" points="178.867,686.448 178.867,47.2441 "/>
<polyline clip-path="url(#clip800)" style="stroke:#000000; stroke-linecap:round; stroke-linejoin:round; stroke-width:4; stroke-opacity:1; fill:none" points="178.867,686.448 197.764,686.448 "/>
<polyline clip-path="url(#clip800)" style="stroke:#000000; stroke-linecap:round; stroke-linejoin:round; stroke-width:4; stroke-opacity:1; fill:none" points="178.867,526.647 197.764,526.647 "/>
<polyline clip-path="url(#clip800)" style="stroke:#000000; stroke-linecap:round; stroke-linejoin:round; stroke-width:4; stroke-opacity:1; fill:none" points="178.867,366.846 197.764,366.846 "/>
<polyline clip-path="url(#clip800)" style="stroke:#000000; stroke-linecap:round; stroke-linejoin:round; stroke-width:4; stroke-opacity:1; fill:none" points="178.867,207.045 197.764,207.045 "/>
<polyline clip-path="url(#clip800)" style="stroke:#000000; stroke-linecap:round; stroke-linejoin:round; stroke-width:4; stroke-opacity:1; fill:none" points="178.867,47.2441 197.764,47.2441 "/>
<path clip-path="url(#clip800)" d="M50.9921 686.899 L80.6679 686.899 L80.6679 690.834 L50.9921 690.834 L50.9921 686.899 Z" fill="#000000" fill-rule="nonzero" fill-opacity="1" /><path clip-path="url(#clip800)" d="M91.5706 699.793 L99.2095 699.793 L99.2095 673.427 L90.8993 675.094 L90.8993 670.835 L99.1632 669.168 L103.839 669.168 L103.839 699.793 L111.478 699.793 L111.478 703.728 L91.5706 703.728 L91.5706 699.793 Z" fill="#000000" fill-rule="nonzero" fill-opacity="1" /><path clip-path="url(#clip800)" d="M130.922 672.247 Q127.311 672.247 125.482 675.811 Q123.677 679.353 123.677 686.483 Q123.677 693.589 125.482 697.154 Q127.311 700.695 130.922 700.695 Q134.556 700.695 136.362 697.154 Q138.191 693.589 138.191 686.483 Q138.191 679.353 136.362 675.811 Q134.556 672.247 130.922 672.247 M130.922 668.543 Q136.732 668.543 139.788 673.149 Q142.867 677.733 142.867 686.483 Q142.867 695.209 139.788 699.816 Q136.732 704.399 130.922 704.399 Q125.112 704.399 122.033 699.816 Q118.978 695.209 118.978 686.483 Q118.978 677.733 122.033 673.149 Q125.112 668.543 130.922 668.543 Z" fill="#000000" fill-rule="nonzero" fill-opacity="1" /><path clip-path="url(#clip800)" d="M82.1494 527.098 L111.825 527.098 L111.825 531.033 L82.1494 531.033 L82.1494 527.098 Z" fill="#000000" fill-rule="nonzero" fill-opacity="1" /><path clip-path="url(#clip800)" d="M121.964 509.367 L140.32 509.367 L140.32 513.302 L126.246 513.302 L126.246 521.774 Q127.265 521.427 128.283 521.265 Q129.302 521.08 130.32 521.08 Q136.107 521.08 139.487 524.251 Q142.867 527.422 142.867 532.839 Q142.867 538.418 139.394 541.52 Q135.922 544.598 129.603 544.598 Q127.427 544.598 125.158 544.228 Q122.913 543.857 120.506 543.117 L120.506 538.418 Q122.589 539.552 124.811 540.108 Q127.033 540.663 129.51 540.663 Q133.515 540.663 135.853 538.557 Q138.191 536.45 138.191 532.839 Q138.191 529.228 135.853 527.121 Q133.515 525.015 129.51 525.015 Q127.635 525.015 125.76 525.432 Q123.908 525.848 121.964 526.728 L121.964 509.367 Z" fill="#000000" fill-rule="nonzero" fill-opacity="1" /><path clip-path="url(#clip800)" d="M130.922 352.645 Q127.311 352.645 125.482 356.209 Q123.677 359.751 123.677 366.881 Q123.677 373.987 125.482 377.552 Q127.311 381.094 130.922 381.094 Q134.556 381.094 136.362 377.552 Q138.191 373.987 138.191 366.881 Q138.191 359.751 136.362 356.209 Q134.556 352.645 130.922 352.645 M130.922 348.941 Q136.732 348.941 139.788 353.547 Q142.867 358.131 142.867 366.881 Q142.867 375.608 139.788 380.214 Q136.732 384.797 130.922 384.797 Q125.112 384.797 122.033 380.214 Q118.978 375.608 118.978 366.881 Q118.978 358.131 122.033 353.547 Q125.112 348.941 130.922 348.941 Z" fill="#000000" fill-rule="nonzero" fill-opacity="1" /><path clip-path="url(#clip800)" d="M121.964 189.765 L140.32 189.765 L140.32 193.7 L126.246 193.7 L126.246 202.172 Q127.265 201.825 128.283 201.663 Q129.302 201.478 130.32 201.478 Q136.107 201.478 139.487 204.649 Q142.867 207.82 142.867 213.237 Q142.867 218.816 139.394 221.918 Q135.922 224.996 129.603 224.996 Q127.427 224.996 125.158 224.626 Q122.913 224.256 120.506 223.515 L120.506 218.816 Q122.589 219.95 124.811 220.506 Q127.033 221.061 129.51 221.061 Q133.515 221.061 135.853 218.955 Q138.191 216.848 138.191 213.237 Q138.191 209.626 135.853 207.52 Q133.515 205.413 129.51 205.413 Q127.635 205.413 125.76 205.83 Q123.908 206.246 121.964 207.126 L121.964 189.765 Z" fill="#000000" fill-rule="nonzero" fill-opacity="1" /><path clip-path="url(#clip800)" d="M91.5706 60.5889 L99.2095 60.5889 L99.2095 34.2233 L90.8993 35.89 L90.8993 31.6308 L99.1632 29.9641 L103.839 29.9641 L103.839 60.5889 L111.478 60.5889 L111.478 64.5241 L91.5706 64.5241 L91.5706 60.5889 Z" fill="#000000" fill-rule="nonzero" fill-opacity="1" /><path clip-path="url(#clip800)" d="M130.922 33.0428 Q127.311 33.0428 125.482 36.6076 Q123.677 40.1492 123.677 47.2788 Q123.677 54.3853 125.482 57.9501 Q127.311 61.4917 130.922 61.4917 Q134.556 61.4917 136.362 57.9501 Q138.191 54.3853 138.191 47.2788 Q138.191 40.1492 136.362 36.6076 Q134.556 33.0428 130.922 33.0428 M130.922 29.3391 Q136.732 29.3391 139.788 33.9456 Q142.867 38.5289 142.867 47.2788 Q142.867 56.0056 139.788 60.6121 Q136.732 65.1954 130.922 65.1954 Q125.112 65.1954 122.033 60.6121 Q118.978 56.0056 118.978 47.2788 Q118.978 38.5289 122.033 33.9456 Q125.112 29.3391 130.922 29.3391 Z" fill="#000000" fill-rule="nonzero" fill-opacity="1" /><polyline clip-path="url(#clip802)" style="stroke:#009af9; stroke-linecap:round; stroke-linejoin:round; stroke-width:4; stroke-opacity:1; fill:none" points="240.392,334.886 242.445,328.616 244.498,326.172 246.55,325.959 248.603,346.669 250.656,364.722 252.709,385.932 254.762,385.808 256.815,375.959 258.868,376.286 260.921,368.6 262.974,375.327 265.027,375.187 267.079,375.335 269.132,375.731 271.185,388.456 273.238,386.932 275.291,387.309 277.344,387.498 279.397,387.231 281.45,389.445 283.503,383.276 285.555,379.419 287.608,384.958 289.661,375.686 291.714,366.894 293.767,373.936 295.82,374.236 297.873,371.616 299.926,371.984 301.979,371.986 304.031,374.952 306.084,373.394 308.137,368.727 310.19,367.161 312.243,369.563 314.296,369.734 316.349,368.013 318.402,368.394 320.455,367.776 322.507,362.762 324.56,378.458 326.613,378.042 328.666,375.917 330.719,376.11 332.772,349.312 334.825,348.845 336.878,351.836 338.931,352.134 340.984,355.361 343.036,366.248 345.089,366.25 347.142,365.233 349.195,369.596 351.248,370.213 353.301,370.384 355.354,377.139 357.407,387.276 359.46,388.418 361.512,362.62 363.565,366.405 365.618,366.439 367.671,361.144 369.724,363.351 371.777,362.485 373.83,361.942 375.883,361.782 377.936,363.943 379.988,358.93 382.041,356.94 384.094,388.978 386.147,388.49 388.2,386.139 390.253,383.154 392.306,381.775 394.359,379.236 396.412,379.227 398.464,382.943 400.517,389.125 402.57,389.224 404.623,403.603 406.676,381.033 408.729,383.484 410.782,381.357 412.835,381.259 414.888,381.619 416.94,382.094 418.993,369.301 421.046,365.873 423.099,365.95 425.152,360.731 427.205,339.402 429.258,330.077 431.311,361.736 433.364,360.981 435.417,357.538 437.469,357.392 439.522,362.596 441.575,362.365 443.628,362.338 445.681,362.338 447.734,362.283 449.787,341.451 451.84,387.441 453.893,390.324 455.945,389.288 457.998,389.296 460.051,379.42 462.104,381.458 464.157,402.48 466.21,393.64 468.263,389.98 470.316,369.667 472.369,379.549 474.421,379.361 476.474,379.334 478.527,382.821 480.58,328.375 482.633,333.597 484.686,337.308 486.739,340.091 488.792,341.437 490.845,341.579 492.897,341.531 494.95,350.785 497.003,350.781 499.056,350.725 501.109,347.724 503.162,346.41 505.215,343.254 507.268,342.259 509.321,417.218 511.374,416.901 513.426,416.884 515.479,408.139 517.532,407.755 519.585,380.741 521.638,375.532 523.691,377.198 525.744,378.887 527.797,401.569 529.85,397.708 531.902,412.14 533.955,409.103 536.008,395.853 538.061,393.979 540.114,394.192 542.167,394.293 544.22,394.088 546.273,390.43 548.326,386.193 550.378,391.683 552.431,386.761 554.484,366.991 556.537,356.482 558.59,360.926 560.643,360.079 562.696,344.803 564.749,349.327 566.802,349.372 568.854,350.34 570.907,350.63 572.96,364.101 575.013,419.388 577.066,421.848 579.119,436.827 581.172,437.685 583.225,416.192 585.278,378.12 587.331,380.614 589.383,379.652 591.436,399.503 593.489,348.33 595.542,359.181 597.595,363.683 599.648,375.804 601.701,376.118 603.754,387.228 605.807,390.582 607.859,390.641 609.912,389.702 611.965,384.42 614.018,381.461 616.071,418.935 618.124,418.767 620.177,385.577 622.23,385.776 624.283,388.165 626.335,387.992 628.388,385.634 630.441,386.132 632.494,375.728 634.547,373.829 636.6,408.587 638.653,377.423 640.706,376.507 642.759,366.06 644.811,361.999 646.864,362.231 648.917,362.938 650.97,375.478 653.023,390.266 655.076,393.689 657.129,387.509 659.182,393.409 661.235,338.842 663.288,315.37 665.34,304.431 667.393,319.999 669.446,319.577 671.499,309.29 673.552,322.462 675.605,367.538 677.658,367.535 679.711,360.117 681.764,392.964 683.816,420.376 685.869,414.074 687.922,413.533 689.975,414.855 692.028,389.632 694.081,389.939 696.134,392.48 698.187,394.089 700.24,394.588 702.292,396.704 704.345,397.186 706.398,399.445 708.451,388.232 710.504,388.215 712.557,442.421 714.61,442.524 716.663,442.438 718.716,430.141 720.768,429.441 722.821,415.088 724.874,414.709 726.927,415.644 728.98,415.654 731.033,410.947 733.086,405.703 735.139,407.38 737.192,408.714 739.245,408.77 741.297,402.117 743.35,396.815 745.403,396.815 747.456,418.957 749.509,437.324 751.562,436.284 753.615,429.278 755.668,426.303 757.721,431.126 759.773,430.457 761.826,429.281 763.879,429.368 765.932,435.197 767.985,441.147 770.038,441.108 772.091,438.595 774.144,443.297 776.197,443.39 778.249,443.254 780.302,444.968 782.355,443.312 784.408,419.048 786.461,429.056 788.514,421.056 790.567,419.607 792.62,431.638 794.673,414.085 796.725,415.302 798.778,414.409 800.831,413.301 802.884,412.913 804.937,412.942 806.99,412.371 809.043,414.082 811.096,413.604 813.149,418.177 815.202,420.045 817.254,420.242 819.307,417.426 821.36,447.177 823.413,433.684 825.466,436.819 827.519,424.582 829.572,449.843 831.625,431.016 833.678,453.799 835.73,414.156 837.783,401.718 839.836,375.152 841.889,343.619 843.942,359.229 845.995,371.153 848.048,345.083 850.101,342.576 852.154,429.453 854.206,427.59 856.259,424.747 858.312,479.779 860.365,435.305 862.418,434.588 864.471,434.313 866.524,478.918 868.577,493.924 870.63,470.523 872.682,437.178 874.735,427.095 876.788,427.335 878.841,374.015 880.894,342.306 882.947,299.705 885,375.812 887.053,306.142 889.106,336.237 891.159,321.022 893.211,395.027 895.264,377.993 897.317,390.185 899.37,394.711 901.423,423.388 903.476,495.673 905.529,502.519 907.582,488.989 909.635,462.575 911.687,424.538 913.74,426.358 915.793,408.877 917.846,375.61 919.899,401.008 921.952,376.796 924.005,374.505 926.058,537.505 928.111,545.25 930.163,494.091 932.216,165.176 934.269,165.62 936.322,187.738 938.375,300.016 940.428,308.932 942.481,308.517 944.534,414.282 946.587,414.313 948.639,411.695 950.692,394.016 952.745,343.754 954.798,332.228 956.851,594.919 958.904,450.853 960.957,400.872 963.01,323.947 965.063,325.614 967.116,328.9 969.168,352.217 971.221,387.408 973.274,401.813 975.327,442.177 977.38,431.359 979.433,431.399 981.486,440.586 983.539,432.992 985.592,468.174 987.644,291.239 989.697,301.12 991.75,304.598 993.803,276.389 995.856,173.902 997.909,528.951 999.962,537.571 1002.01,582.639 1004.07,461.17 1006.12,544.913 1008.17,378.829 1010.23,353.457 1012.28,351.876 1014.33,341.763 1016.38,200.536 1018.44,136.36 1020.49,133.782 1022.54,13.7427 1024.6,3.60441 1026.65,311.07 1028.7,299.815 1030.76,299.596 1032.81,411.855 1034.86,447.321 1036.91,450.078 1038.97,252.058 1041.02,352.599 1043.07,351.579 1045.13,321.739 1047.18,372.468 1049.23,376.855 1051.28,390.723 1053.34,397.269 1055.39,393.402 1057.44,422.895 1059.5,429.161 1061.55,437.248 1063.6,434.179 1065.65,453.419 1067.71,453.463 1069.76,457.008 1071.81,457.092 1073.87,458.515 1075.92,388.718 1077.97,469.036 1080.02,467.874 1082.08,467.528 1084.13,502.197 1086.18,465.775 1088.24,468.518 1090.29,455.064 1092.34,518.068 1094.39,594.214 1096.45,584.442 1098.5,381.44 1100.55,385.018 1102.61,398.413 1104.66,432.839 1106.71,324.058 1108.77,416.82 1110.82,169.72 1112.87,212.939 1114.92,211.843 1116.98,212.867 1119.03,248.308 1121.08,245.064 1123.14,254.267 1125.19,276.274 1127.24,271.551 1129.29,247.12 1131.35,186.567 1133.4,186.012 1135.45,244.223 1137.51,216.583 1139.56,213.668 1141.61,152.431 1143.66,82.9304 1145.72,97.8723 1147.77,402.145 1149.82,243.604 1151.88,169.775 1153.93,175.174 1155.98,95.1389 1158.03,79.7949 1160.09,272.117 1162.14,424.053 1164.19,352.391 1166.25,153.017 1168.3,156.604 1170.35,158.587 1172.4,383.225 1174.46,372.207 1176.51,371.661 1178.56,367.361 1180.62,397.088 1182.67,395.176 1184.72,508.056 1186.77,213.475 1188.83,339.647 1190.88,343.706 1192.93,343.67 1194.99,341.056 1197.04,424.227 1199.09,420.683 1201.15,400.071 1203.2,405.691 1205.25,358.461 1207.3,371.892 1209.36,339.59 1211.41,362.183 1213.46,368.121 1215.52,369.004 1217.57,368.852 1219.62,386.33 1221.67,389.996 1223.73,441.985 1225.78,337.237 1227.83,430.726 1229.89,452.166 1231.94,453.522 1233.99,460.897 1236.04,414.055 1238.1,399.722 1240.15,436.098 1242.2,457.541 1244.26,449.834 1246.31,359.79 1248.36,351.695 1250.41,381.602 1252.47,337.487 1254.52,336.191 1256.57,341.065 1258.63,335.807 1260.68,331.408 1262.73,318.016 1264.78,317.762 1266.84,328.449 1268.89,440.962 1270.94,441.606 1273,445.461 1275.05,445.178 1277.1,443.115 1279.16,447.48 1281.21,447.502 1283.26,366.075 1285.31,376.336 1287.37,401.33 1289.42,388.489 1291.47,388.722 1293.53,376.097 1295.58,390.344 1297.63,390.183 1299.68,375.04 1301.74,371.359 1303.79,305.049 1305.84,234.284 1307.9,255.394 1309.95,260.353 1312,413.617 1314.05,413.759 1316.11,415.717 1318.16,422.28 1320.21,420.29 1322.27,420.415 1324.32,422.059 1326.37,421.703 1328.42,420.959 1330.48,426.88 1332.53,424.452 1334.58,385.635 1336.64,389.992 1338.69,389.461 1340.74,346.369 1342.79,372.309 1344.85,379.314 1346.9,369.556 1348.95,368.209 1351.01,370.365 1353.06,368.517 1355.11,379.49 1357.16,389.046 1359.22,319.45 1361.27,314.249 1363.32,333.653 1365.38,327.949 1367.43,308.129 1369.48,445.856 1371.54,444.806 1373.59,444.041 1375.64,435.362 1377.69,430.668 1379.75,443.072 1381.8,443.323 1383.85,443.45 1385.91,455.42 1387.96,546.32 1390.01,560.734 1392.06,583.239 1394.12,583.348 1396.17,582.235 1398.22,622.798 1400.28,622.568 1402.33,615.482 1404.38,622.806 1406.43,472.491 1408.49,430.119 1410.54,413.029 1412.59,414.47 1414.65,435.606 1416.7,435.176 1418.75,504.504 1420.8,506.765 1422.86,496.01 1424.91,486.705 1426.96,487.339 1429.02,468.205 1431.07,414.421 1433.12,415.076 1435.17,455.254 1437.23,462.262 1439.28,462.692 1441.33,476.934 1443.39,475.22 1445.44,483.415 1447.49,476.697 1449.55,356.364 1451.6,337.973 1453.65,338.052 1455.7,338.593 1457.76,306.716 1459.81,305.359 1461.86,345.39 1463.92,334.326 1465.97,328.527 1468.02,284.246 1470.07,264.079 1472.13,262.643 1474.18,268.277 1476.23,330.69 1478.29,330.709 1480.34,329.779 1482.39,335.491 1484.44,337.798 1486.5,412.6 1488.55,413.15 1490.6,409.285 1492.66,408.142 1494.71,406.778 1496.76,408.821 1498.81,366.853 1500.87,366.897 1502.92,374.394 1504.97,274.932 1507.03,283.877 1509.08,291.821 1511.13,342.914 1513.18,390.46 1515.24,390.2 1517.29,385.751 1519.34,385.823 1521.4,386.978 1523.45,344.069 1525.5,346.777 1527.55,346.898 1529.61,345.989 1531.66,373.547 1533.71,367.615 1535.77,372.945 1537.82,391.223 1539.87,390.413 1541.93,389.052 1543.98,389.629 1546.03,373.604 1548.08,393.204 1550.14,406.499 1552.19,325.65 1554.24,330.452 1556.3,321.132 1558.35,322.431 1560.4,322.374 1562.45,347.611 1564.51,344.445 1566.56,340.809 1568.61,339.831 1570.67,340.369 1572.72,328.013 1574.77,319.106 1576.82,321.144 1578.88,321.04 1580.93,320.56 1582.98,321.328 1585.04,321.004 1587.09,468.231 1589.14,420.685 1591.19,432.819 1593.25,425.681 1595.3,428.01 1597.35,395.991 1599.41,395.739 1601.46,374.02 1603.51,395.328 1605.56,395.307 1607.62,421.115 1609.67,422.864 1611.72,423.54 1613.78,414.807 1615.83,324.213 1617.88,321.747 1619.94,345.267 1621.99,348.432 1624.04,342.25 1626.09,342.233 1628.15,342.145 1630.2,342.141 1632.25,342.159 1634.31,342.056 1636.36,344.92 1638.41,333.018 1640.46,286.825 1642.52,280.359 1644.57,288.377 1646.62,290.295 1648.68,343.451 1650.73,287.369 1652.78,282.883 1654.83,286.389 1656.89,256.757 1658.94,221.169 1660.99,224.104 1663.05,234.363 1665.1,272.689 1667.15,273.379 1669.2,266.476 1671.26,270.687 1673.31,233.736 1675.36,243.59 1677.42,244.692 1679.47,246.696 1681.52,254.218 1683.57,267.978 1685.63,247.925 1687.68,245.629 1689.73,240.915 1691.79,253.074 1693.84,256.798 1695.89,257.263 1697.94,258.184 1700,298.408 1702.05,278.082 1704.1,294.26 1706.16,247.346 1708.21,271.046 1710.26,278.399 1712.32,278.385 1714.37,292.509 1716.42,322.45 1718.47,313.469 1720.53,300.798 1722.58,302.951 1724.63,303.117 1726.69,302.566 1728.74,302.334 1730.79,337.857 1732.84,365.159 1734.9,366.478 1736.95,363.773 1739,403.97 1741.06,386.514 1743.11,385.354 1745.16,371.903 1747.21,380.62 1749.27,381.764 1751.32,383.727 1753.37,402.508 1755.43,458.961 1757.48,455.892 1759.53,455.485 1761.58,463.07 1763.64,463.74 1765.69,454.718 1767.74,454.221 1769.8,452.771 1771.85,454.065 1773.9,447.758 1775.95,450.862 1778.01,457.128 1780.06,353.311 1782.11,323.032 1784.17,361.516 1786.22,294.953 1788.27,318.084 1790.33,237.932 1792.38,159.239 1794.43,465.332 1796.48,459.264 1798.54,455.125 1800.59,456.363 1802.64,520.089 1804.7,398.467 1806.75,387.636 1808.8,414.849 1810.85,410.044 1812.91,412.975 1814.96,413.369 1817.01,410.932 1819.07,342.933 1821.12,334.472 1823.17,331.252 1825.22,299.184 1827.28,305.352 1829.33,313.442 1831.38,311.265 1833.44,310.552 1835.49,301.556 1837.54,301.526 1839.59,393.526 1841.65,384.732 1843.7,390.223 1845.75,389.367 1847.81,389.508 1849.86,388.679 1851.91,369.246 1853.96,352.909 1856.02,360.874 1858.07,303.313 1860.12,374.79 1862.18,375.098 1864.23,375.064 1866.28,374.978 1868.34,369.771 1870.39,297.971 1872.44,303.525 1874.49,292.644 1876.55,312.009 1878.6,313.454 1880.65,313.37 1882.71,319.148 1884.76,319.404 1886.81,318.838 1888.86,318.623 1890.92,325.289 1892.97,309.796 1895.02,308.118 1897.08,383.71 1899.13,383.757 1901.18,310.691 1903.23,311.412 1905.29,310.713 1907.34,309.17 1909.39,385.514 1911.45,384.163 1913.5,388.747 1915.55,388.932 1917.6,391.506 1919.66,391.518 1921.71,330.784 1923.76,363.994 1925.82,352.202 1927.87,378.663 1929.92,387.876 1931.97,369.144 1934.03,308.323 1936.08,296.125 1938.13,293.114 1940.19,299.19 1942.24,297.083 1944.29,296.735 1946.34,296.587 1948.4,270.142 1950.45,271.623 1952.5,290.286 1954.56,375.286 1956.61,377.81 1958.66,389.198 1960.72,349.453 1962.77,478.423 1964.82,485.957 1966.87,492.3 1968.93,569.16 1970.98,568.669 1973.03,484.503 1975.09,479.003 1977.14,401.001 1979.19,401.203 1981.24,401.05 1983.3,381.949 1985.35,389.802 1987.4,326.238 1989.46,313.165 1991.51,357.112 1993.56,393.065 1995.61,397.793 1997.67,400.046 1999.72,393.787 2001.77,390.63 2003.83,328.776 2005.88,334 2007.93,333.2 2009.98,336.447 2012.04,338.958 2014.09,343.439 2016.14,343.431 2018.2,349.946 2020.25,322.15 2022.3,322.062 2024.35,383.585 2026.41,372.129 2028.46,372.989 2030.51,358.922 2032.57,360.445 2034.62,352.352 2036.67,380.908 2038.73,388.113 2040.78,388.801 2042.83,384.685 2044.88,385.025 2046.94,385.472 2048.99,386.603 2051.04,407.089 2053.1,406.061 2055.15,379.143 2057.2,377.917 2059.25,351.243 2061.31,350.829 2063.36,350.913 2065.41,351.693 2067.47,351.83 2069.52,376.339 2071.57,376.598 2073.62,368.28 2075.68,367.64 2077.73,375.47 2079.78,376.883 2081.84,375.272 2083.89,379.149 2085.94,378.184 2087.99,378.294 2090.05,387.279 2092.1,387.388 2094.15,388.034 2096.21,386.232 2098.26,393.426 2100.31,392.771 2102.36,401.235 2104.42,374.312 2106.47,381.075 2108.52,381.098 2110.58,384.25 2112.63,383.998 2114.68,381.113 2116.73,381.076 2118.79,381.009 2120.84,369.881 2122.89,373.578 2124.95,373.379 2127,370.581 2129.05,370.447 2131.11,365.977 2133.16,351.17 2135.21,351.2 2137.26,367.206 2139.32,368.802 2141.37,367.224 2143.42,367.062 2145.48,367.359 2147.53,369.19 2149.58,371.438 2151.63,371.121 2153.69,354.117 2155.74,347.464 2157.79,346.727 2159.85,356.914 2161.9,364.119 2163.95,370.971 2166,367.85 2168.06,373.136 2170.11,373.088 2172.16,373.063 2174.22,379.021 2176.27,379.057 2178.32,376.407 2180.37,376.428 2182.43,375.389 2184.48,374.865 2186.53,370.306 2188.59,371.185 2190.64,371.415 2192.69,373.843 2194.74,373.784 2196.8,373.366 2198.85,376.104 2200.9,376.103 2202.96,376.122 2205.01,376.884 2207.06,348.568 2209.12,349.682 2211.17,343.882 2213.22,371.395 2215.27,344.014 2217.33,343.696 2219.38,343.816 2221.43,350.762 2223.49,351.982 2225.54,348.105 2227.59,347.388 2229.64,347.395 2231.7,348.619 2233.75,346.523 2235.8,343.668 2237.86,343.688 2239.91,351.375 2241.96,341.81 2244.01,341.921 2246.07,341.89 2248.12,335.906 2250.17,336.752 2252.23,339.681 2254.28,340.139 2256.33,339.779 2258.38,341.841 2260.44,342.63 2262.49,342.701 2264.54,340.802 2266.6,341.879 2268.65,341.411 2270.7,341.401 2272.75,347.335 2274.81,386.576 2276.86,384.838 2278.91,330.959 2280.97,340.804 2283.02,327.775 2285.07,327.022 2287.12,328.969 2289.18,326.832 2291.23,316.271 "/>
<path clip-path="url(#clip800)" d="M1983.6 172.231 L2280.29 172.231 L2280.29 68.5509 L1983.6 68.5509  Z" fill="#ffffff" fill-rule="evenodd" fill-opacity="1"/>
<polyline clip-path="url(#clip800)" style="stroke:#000000; stroke-linecap:round; stroke-linejoin:round; stroke-width:4; stroke-opacity:1; fill:none" points="1983.6,172.231 2280.29,172.231 2280.29,68.5509 1983.6,68.5509 1983.6,172.231 "/>
<polyline clip-path="url(#clip800)" style="stroke:#009af9; stroke-linecap:round; stroke-linejoin:round; stroke-width:4; stroke-opacity:1; fill:none" points="2007.75,120.391 2152.68,120.391 "/>
<path clip-path="url(#clip800)" d="M2176.83 103.111 L2181.51 103.111 L2181.51 133.736 L2198.34 133.736 L2198.34 137.671 L2176.83 137.671 L2176.83 103.111 Z" fill="#000000" fill-rule="nonzero" fill-opacity="1" /><path clip-path="url(#clip800)" d="M2223.96 104.245 L2223.96 108.805 Q2221.3 107.532 2218.94 106.907 Q2216.58 106.282 2214.38 106.282 Q2210.56 106.282 2208.48 107.764 Q2206.42 109.245 2206.42 111.977 Q2206.42 114.268 2207.78 115.449 Q2209.17 116.606 2213.01 117.324 L2215.84 117.902 Q2221.07 118.898 2223.55 121.421 Q2226.05 123.921 2226.05 128.134 Q2226.05 133.157 2222.67 135.75 Q2219.31 138.342 2212.81 138.342 Q2210.35 138.342 2207.57 137.787 Q2204.82 137.231 2201.86 136.143 L2201.86 131.328 Q2204.7 132.926 2207.44 133.736 Q2210.17 134.546 2212.81 134.546 Q2216.81 134.546 2218.99 132.972 Q2221.16 131.398 2221.16 128.481 Q2221.16 125.935 2219.59 124.5 Q2218.04 123.064 2214.47 122.347 L2211.62 121.791 Q2206.39 120.75 2204.06 118.527 Q2201.72 116.305 2201.72 112.347 Q2201.72 107.764 2204.94 105.125 Q2208.18 102.486 2213.85 102.486 Q2216.28 102.486 2218.8 102.926 Q2221.32 103.366 2223.96 104.245 Z" fill="#000000" fill-rule="nonzero" fill-opacity="1" /><path clip-path="url(#clip800)" d="M2254.06 104.245 L2254.06 108.805 Q2251.39 107.532 2249.03 106.907 Q2246.67 106.282 2244.47 106.282 Q2240.65 106.282 2238.57 107.764 Q2236.51 109.245 2236.51 111.977 Q2236.51 114.268 2237.87 115.449 Q2239.26 116.606 2243.11 117.324 L2245.93 117.902 Q2251.16 118.898 2253.64 121.421 Q2256.14 123.921 2256.14 128.134 Q2256.14 133.157 2252.76 135.75 Q2249.4 138.342 2242.9 138.342 Q2240.44 138.342 2237.67 137.787 Q2234.91 137.231 2231.95 136.143 L2231.95 131.328 Q2234.8 132.926 2237.53 133.736 Q2240.26 134.546 2242.9 134.546 Q2246.9 134.546 2249.08 132.972 Q2251.25 131.398 2251.25 128.481 Q2251.25 125.935 2249.68 124.5 Q2248.13 123.064 2244.56 122.347 L2241.72 121.791 Q2236.49 120.75 2234.15 118.527 Q2231.81 116.305 2231.81 112.347 Q2231.81 107.764 2235.03 105.125 Q2238.27 102.486 2243.94 102.486 Q2246.37 102.486 2248.89 102.926 Q2251.42 103.366 2254.06 104.245 Z" fill="#000000" fill-rule="nonzero" fill-opacity="1" /><path clip-path="url(#clip800)" d="M178.867 1486.45 L2352.76 1486.45 L2352.76 847.244 L178.867 847.244  Z" fill="#ffffff" fill-rule="evenodd" fill-opacity="1"/>
<defs>
  <clipPath id="clip803">
    <rect x="178" y="847" width="2175" height="640"/>
  </clipPath>
</defs>
<polyline clip-path="url(#clip803)" style="stroke:#000000; stroke-linecap:round; stroke-linejoin:round; stroke-width:2; stroke-opacity:0.1; fill:none" points="238.339,1486.45 238.339,847.244 "/>
<polyline clip-path="url(#clip803)" style="stroke:#000000; stroke-linecap:round; stroke-linejoin:round; stroke-width:2; stroke-opacity:0.1; fill:none" points="751.562,1486.45 751.562,847.244 "/>
<polyline clip-path="url(#clip803)" style="stroke:#000000; stroke-linecap:round; stroke-linejoin:round; stroke-width:2; stroke-opacity:0.1; fill:none" points="1264.78,1486.45 1264.78,847.244 "/>
<polyline clip-path="url(#clip803)" style="stroke:#000000; stroke-linecap:round; stroke-linejoin:round; stroke-width:2; stroke-opacity:0.1; fill:none" points="1778.01,1486.45 1778.01,847.244 "/>
<polyline clip-path="url(#clip803)" style="stroke:#000000; stroke-linecap:round; stroke-linejoin:round; stroke-width:2; stroke-opacity:0.1; fill:none" points="2291.23,1486.45 2291.23,847.244 "/>
<polyline clip-path="url(#clip800)" style="stroke:#000000; stroke-linecap:round; stroke-linejoin:round; stroke-width:4; stroke-opacity:1; fill:none" points="178.867,1486.45 2352.76,1486.45 "/>
<polyline clip-path="url(#clip800)" style="stroke:#000000; stroke-linecap:round; stroke-linejoin:round; stroke-width:4; stroke-opacity:1; fill:none" points="238.339,1486.45 238.339,1467.55 "/>
<polyline clip-path="url(#clip800)" style="stroke:#000000; stroke-linecap:round; stroke-linejoin:round; stroke-width:4; stroke-opacity:1; fill:none" points="751.562,1486.45 751.562,1467.55 "/>
<polyline clip-path="url(#clip800)" style="stroke:#000000; stroke-linecap:round; stroke-linejoin:round; stroke-width:4; stroke-opacity:1; fill:none" points="1264.78,1486.45 1264.78,1467.55 "/>
<polyline clip-path="url(#clip800)" style="stroke:#000000; stroke-linecap:round; stroke-linejoin:round; stroke-width:4; stroke-opacity:1; fill:none" points="1778.01,1486.45 1778.01,1467.55 "/>
<polyline clip-path="url(#clip800)" style="stroke:#000000; stroke-linecap:round; stroke-linejoin:round; stroke-width:4; stroke-opacity:1; fill:none" points="2291.23,1486.45 2291.23,1467.55 "/>
<path clip-path="url(#clip800)" d="M238.339 1517.37 Q234.728 1517.37 232.899 1520.93 Q231.094 1524.47 231.094 1531.6 Q231.094 1538.71 232.899 1542.27 Q234.728 1545.82 238.339 1545.82 Q241.973 1545.82 243.779 1542.27 Q245.607 1538.71 245.607 1531.6 Q245.607 1524.47 243.779 1520.93 Q241.973 1517.37 238.339 1517.37 M238.339 1513.66 Q244.149 1513.66 247.205 1518.27 Q250.283 1522.85 250.283 1531.6 Q250.283 1540.33 247.205 1544.94 Q244.149 1549.52 238.339 1549.52 Q232.529 1549.52 229.45 1544.94 Q226.395 1540.33 226.395 1531.6 Q226.395 1522.85 229.45 1518.27 Q232.529 1513.66 238.339 1513.66 Z" fill="#000000" fill-rule="nonzero" fill-opacity="1" /><path clip-path="url(#clip800)" d="M715.254 1544.91 L731.574 1544.91 L731.574 1548.85 L709.629 1548.85 L709.629 1544.91 Q712.291 1542.16 716.875 1537.53 Q721.481 1532.88 722.662 1531.53 Q724.907 1529.01 725.787 1527.27 Q726.689 1525.51 726.689 1523.82 Q726.689 1521.07 724.745 1519.33 Q722.824 1517.6 719.722 1517.6 Q717.523 1517.6 715.069 1518.36 Q712.638 1519.13 709.861 1520.68 L709.861 1515.95 Q712.685 1514.82 715.138 1514.24 Q717.592 1513.66 719.629 1513.66 Q725 1513.66 728.194 1516.35 Q731.388 1519.03 731.388 1523.52 Q731.388 1525.65 730.578 1527.57 Q729.791 1529.47 727.685 1532.07 Q727.106 1532.74 724.004 1535.95 Q720.902 1539.15 715.254 1544.91 Z" fill="#000000" fill-rule="nonzero" fill-opacity="1" /><path clip-path="url(#clip800)" d="M741.435 1514.29 L759.791 1514.29 L759.791 1518.22 L745.717 1518.22 L745.717 1526.7 Q746.736 1526.35 747.754 1526.19 Q748.773 1526 749.791 1526 Q755.578 1526 758.958 1529.17 Q762.337 1532.34 762.337 1537.76 Q762.337 1543.34 758.865 1546.44 Q755.393 1549.52 749.073 1549.52 Q746.898 1549.52 744.629 1549.15 Q742.384 1548.78 739.976 1548.04 L739.976 1543.34 Q742.06 1544.47 744.282 1545.03 Q746.504 1545.58 748.981 1545.58 Q752.985 1545.58 755.323 1543.48 Q757.661 1541.37 757.661 1537.76 Q757.661 1534.15 755.323 1532.04 Q752.985 1529.94 748.981 1529.94 Q747.106 1529.94 745.231 1530.35 Q743.379 1530.77 741.435 1531.65 L741.435 1514.29 Z" fill="#000000" fill-rule="nonzero" fill-opacity="1" /><path clip-path="url(#clip800)" d="M781.55 1517.37 Q777.939 1517.37 776.11 1520.93 Q774.305 1524.47 774.305 1531.6 Q774.305 1538.71 776.11 1542.27 Q777.939 1545.82 781.55 1545.82 Q785.184 1545.82 786.99 1542.27 Q788.819 1538.71 788.819 1531.6 Q788.819 1524.47 786.99 1520.93 Q785.184 1517.37 781.55 1517.37 M781.55 1513.66 Q787.36 1513.66 790.416 1518.27 Q793.495 1522.85 793.495 1531.6 Q793.495 1540.33 790.416 1544.94 Q787.36 1549.52 781.55 1549.52 Q775.74 1549.52 772.661 1544.94 Q769.606 1540.33 769.606 1531.6 Q769.606 1522.85 772.661 1518.27 Q775.74 1513.66 781.55 1513.66 Z" fill="#000000" fill-rule="nonzero" fill-opacity="1" /><path clip-path="url(#clip800)" d="M1224.4 1514.29 L1242.76 1514.29 L1242.76 1518.22 L1228.69 1518.22 L1228.69 1526.7 Q1229.7 1526.35 1230.72 1526.19 Q1231.74 1526 1232.76 1526 Q1238.55 1526 1241.93 1529.17 Q1245.31 1532.34 1245.31 1537.76 Q1245.31 1543.34 1241.83 1546.44 Q1238.36 1549.52 1232.04 1549.52 Q1229.87 1549.52 1227.6 1549.15 Q1225.35 1548.78 1222.94 1548.04 L1222.94 1543.34 Q1225.03 1544.47 1227.25 1545.03 Q1229.47 1545.58 1231.95 1545.58 Q1235.95 1545.58 1238.29 1543.48 Q1240.63 1541.37 1240.63 1537.76 Q1240.63 1534.15 1238.29 1532.04 Q1235.95 1529.94 1231.95 1529.94 Q1230.07 1529.94 1228.2 1530.35 Q1226.35 1530.77 1224.4 1531.65 L1224.4 1514.29 Z" fill="#000000" fill-rule="nonzero" fill-opacity="1" /><path clip-path="url(#clip800)" d="M1264.52 1517.37 Q1260.91 1517.37 1259.08 1520.93 Q1257.27 1524.47 1257.27 1531.6 Q1257.27 1538.71 1259.08 1542.27 Q1260.91 1545.82 1264.52 1545.82 Q1268.15 1545.82 1269.96 1542.27 Q1271.79 1538.71 1271.79 1531.6 Q1271.79 1524.47 1269.96 1520.93 Q1268.15 1517.37 1264.52 1517.37 M1264.52 1513.66 Q1270.33 1513.66 1273.38 1518.27 Q1276.46 1522.85 1276.46 1531.6 Q1276.46 1540.33 1273.38 1544.94 Q1270.33 1549.52 1264.52 1549.52 Q1258.71 1549.52 1255.63 1544.94 Q1252.57 1540.33 1252.57 1531.6 Q1252.57 1522.85 1255.63 1518.27 Q1258.71 1513.66 1264.52 1513.66 Z" fill="#000000" fill-rule="nonzero" fill-opacity="1" /><path clip-path="url(#clip800)" d="M1294.68 1517.37 Q1291.07 1517.37 1289.24 1520.93 Q1287.44 1524.47 1287.44 1531.6 Q1287.44 1538.71 1289.24 1542.27 Q1291.07 1545.82 1294.68 1545.82 Q1298.31 1545.82 1300.12 1542.27 Q1301.95 1538.71 1301.95 1531.6 Q1301.95 1524.47 1300.12 1520.93 Q1298.31 1517.37 1294.68 1517.37 M1294.68 1513.66 Q1300.49 1513.66 1303.55 1518.27 Q1306.62 1522.85 1306.62 1531.6 Q1306.62 1540.33 1303.55 1544.94 Q1300.49 1549.52 1294.68 1549.52 Q1288.87 1549.52 1285.79 1544.94 Q1282.74 1540.33 1282.74 1531.6 Q1282.74 1522.85 1285.79 1518.27 Q1288.87 1513.66 1294.68 1513.66 Z" fill="#000000" fill-rule="nonzero" fill-opacity="1" /><path clip-path="url(#clip800)" d="M1736.28 1514.29 L1758.51 1514.29 L1758.51 1516.28 L1745.96 1548.85 L1741.08 1548.85 L1752.88 1518.22 L1736.28 1518.22 L1736.28 1514.29 Z" fill="#000000" fill-rule="nonzero" fill-opacity="1" /><path clip-path="url(#clip800)" d="M1767.67 1514.29 L1786.03 1514.29 L1786.03 1518.22 L1771.95 1518.22 L1771.95 1526.7 Q1772.97 1526.35 1773.99 1526.19 Q1775.01 1526 1776.03 1526 Q1781.82 1526 1785.2 1529.17 Q1788.57 1532.34 1788.57 1537.76 Q1788.57 1543.34 1785.1 1546.44 Q1781.63 1549.52 1775.31 1549.52 Q1773.14 1549.52 1770.87 1549.15 Q1768.62 1548.78 1766.21 1548.04 L1766.21 1543.34 Q1768.3 1544.47 1770.52 1545.03 Q1772.74 1545.58 1775.22 1545.58 Q1779.22 1545.58 1781.56 1543.48 Q1783.9 1541.37 1783.9 1537.76 Q1783.9 1534.15 1781.56 1532.04 Q1779.22 1529.94 1775.22 1529.94 Q1773.34 1529.94 1771.47 1530.35 Q1769.62 1530.77 1767.67 1531.65 L1767.67 1514.29 Z" fill="#000000" fill-rule="nonzero" fill-opacity="1" /><path clip-path="url(#clip800)" d="M1807.79 1517.37 Q1804.18 1517.37 1802.35 1520.93 Q1800.54 1524.47 1800.54 1531.6 Q1800.54 1538.71 1802.35 1542.27 Q1804.18 1545.82 1807.79 1545.82 Q1811.42 1545.82 1813.23 1542.27 Q1815.06 1538.71 1815.06 1531.6 Q1815.06 1524.47 1813.23 1520.93 Q1811.42 1517.37 1807.79 1517.37 M1807.79 1513.66 Q1813.6 1513.66 1816.65 1518.27 Q1819.73 1522.85 1819.73 1531.6 Q1819.73 1540.33 1816.65 1544.94 Q1813.6 1549.52 1807.79 1549.52 Q1801.98 1549.52 1798.9 1544.94 Q1795.84 1540.33 1795.84 1531.6 Q1795.84 1522.85 1798.9 1518.27 Q1801.98 1513.66 1807.79 1513.66 Z" fill="#000000" fill-rule="nonzero" fill-opacity="1" /><path clip-path="url(#clip800)" d="M2235.76 1544.91 L2243.4 1544.91 L2243.4 1518.55 L2235.09 1520.21 L2235.09 1515.95 L2243.35 1514.29 L2248.02 1514.29 L2248.02 1544.91 L2255.66 1544.91 L2255.66 1548.85 L2235.76 1548.85 L2235.76 1544.91 Z" fill="#000000" fill-rule="nonzero" fill-opacity="1" /><path clip-path="url(#clip800)" d="M2275.11 1517.37 Q2271.5 1517.37 2269.67 1520.93 Q2267.86 1524.47 2267.86 1531.6 Q2267.86 1538.71 2269.67 1542.27 Q2271.5 1545.82 2275.11 1545.82 Q2278.74 1545.82 2280.55 1542.27 Q2282.38 1538.71 2282.38 1531.6 Q2282.38 1524.47 2280.55 1520.93 Q2278.74 1517.37 2275.11 1517.37 M2275.11 1513.66 Q2280.92 1513.66 2283.97 1518.27 Q2287.05 1522.85 2287.05 1531.6 Q2287.05 1540.33 2283.97 1544.94 Q2280.92 1549.52 2275.11 1549.52 Q2269.3 1549.52 2266.22 1544.94 Q2263.16 1540.33 2263.16 1531.6 Q2263.16 1522.85 2266.22 1518.27 Q2269.3 1513.66 2275.11 1513.66 Z" fill="#000000" fill-rule="nonzero" fill-opacity="1" /><path clip-path="url(#clip800)" d="M2305.27 1517.37 Q2301.66 1517.37 2299.83 1520.93 Q2298.02 1524.47 2298.02 1531.6 Q2298.02 1538.71 2299.83 1542.27 Q2301.66 1545.82 2305.27 1545.82 Q2308.9 1545.82 2310.71 1542.27 Q2312.54 1538.71 2312.54 1531.6 Q2312.54 1524.47 2310.71 1520.93 Q2308.9 1517.37 2305.27 1517.37 M2305.27 1513.66 Q2311.08 1513.66 2314.14 1518.27 Q2317.21 1522.85 2317.21 1531.6 Q2317.21 1540.33 2314.14 1544.94 Q2311.08 1549.52 2305.27 1549.52 Q2299.46 1549.52 2296.38 1544.94 Q2293.33 1540.33 2293.33 1531.6 Q2293.33 1522.85 2296.38 1518.27 Q2299.46 1513.66 2305.27 1513.66 Z" fill="#000000" fill-rule="nonzero" fill-opacity="1" /><path clip-path="url(#clip800)" d="M2335.43 1517.37 Q2331.82 1517.37 2329.99 1520.93 Q2328.19 1524.47 2328.19 1531.6 Q2328.19 1538.71 2329.99 1542.27 Q2331.82 1545.82 2335.43 1545.82 Q2339.07 1545.82 2340.87 1542.27 Q2342.7 1538.71 2342.7 1531.6 Q2342.7 1524.47 2340.87 1520.93 Q2339.07 1517.37 2335.43 1517.37 M2335.43 1513.66 Q2341.24 1513.66 2344.3 1518.27 Q2347.38 1522.85 2347.38 1531.6 Q2347.38 1540.33 2344.3 1544.94 Q2341.24 1549.52 2335.43 1549.52 Q2329.62 1549.52 2326.54 1544.94 Q2323.49 1540.33 2323.49 1531.6 Q2323.49 1522.85 2326.54 1518.27 Q2329.62 1513.66 2335.43 1513.66 Z" fill="#000000" fill-rule="nonzero" fill-opacity="1" /><polyline clip-path="url(#clip803)" style="stroke:#000000; stroke-linecap:round; stroke-linejoin:round; stroke-width:2; stroke-opacity:0.1; fill:none" points="178.867,1486.45 2352.76,1486.45 "/>
<polyline clip-path="url(#clip803)" style="stroke:#000000; stroke-linecap:round; stroke-linejoin:round; stroke-width:2; stroke-opacity:0.1; fill:none" points="178.867,1326.65 2352.76,1326.65 "/>
<polyline clip-path="url(#clip803)" style="stroke:#000000; stroke-linecap:round; stroke-linejoin:round; stroke-width:2; stroke-opacity:0.1; fill:none" points="178.867,1166.85 2352.76,1166.85 "/>
<polyline clip-path="url(#clip803)" style="stroke:#000000; stroke-linecap:round; stroke-linejoin:round; stroke-width:2; stroke-opacity:0.1; fill:none" points="178.867,1007.05 2352.76,1007.05 "/>
<polyline clip-path="url(#clip803)" style="stroke:#000000; stroke-linecap:round; stroke-linejoin:round; stroke-width:2; stroke-opacity:0.1; fill:none" points="178.867,847.244 2352.76,847.244 "/>
<polyline clip-path="url(#clip800)" style="stroke:#000000; stroke-linecap:round; stroke-linejoin:round; stroke-width:4; stroke-opacity:1; fill:none" points="178.867,1486.45 178.867,847.244 "/>
<polyline clip-path="url(#clip800)" style="stroke:#000000; stroke-linecap:round; stroke-linejoin:round; stroke-width:4; stroke-opacity:1; fill:none" points="178.867,1486.45 197.764,1486.45 "/>
<polyline clip-path="url(#clip800)" style="stroke:#000000; stroke-linecap:round; stroke-linejoin:round; stroke-width:4; stroke-opacity:1; fill:none" points="178.867,1326.65 197.764,1326.65 "/>
<polyline clip-path="url(#clip800)" style="stroke:#000000; stroke-linecap:round; stroke-linejoin:round; stroke-width:4; stroke-opacity:1; fill:none" points="178.867,1166.85 197.764,1166.85 "/>
<polyline clip-path="url(#clip800)" style="stroke:#000000; stroke-linecap:round; stroke-linejoin:round; stroke-width:4; stroke-opacity:1; fill:none" points="178.867,1007.05 197.764,1007.05 "/>
<polyline clip-path="url(#clip800)" style="stroke:#000000; stroke-linecap:round; stroke-linejoin:round; stroke-width:4; stroke-opacity:1; fill:none" points="178.867,847.244 197.764,847.244 "/>
<path clip-path="url(#clip800)" d="M50.9921 1486.9 L80.6679 1486.9 L80.6679 1490.83 L50.9921 1490.83 L50.9921 1486.9 Z" fill="#000000" fill-rule="nonzero" fill-opacity="1" /><path clip-path="url(#clip800)" d="M91.5706 1499.79 L99.2095 1499.79 L99.2095 1473.43 L90.8993 1475.09 L90.8993 1470.83 L99.1632 1469.17 L103.839 1469.17 L103.839 1499.79 L111.478 1499.79 L111.478 1503.73 L91.5706 1503.73 L91.5706 1499.79 Z" fill="#000000" fill-rule="nonzero" fill-opacity="1" /><path clip-path="url(#clip800)" d="M130.922 1472.25 Q127.311 1472.25 125.482 1475.81 Q123.677 1479.35 123.677 1486.48 Q123.677 1493.59 125.482 1497.15 Q127.311 1500.7 130.922 1500.7 Q134.556 1500.7 136.362 1497.15 Q138.191 1493.59 138.191 1486.48 Q138.191 1479.35 136.362 1475.81 Q134.556 1472.25 130.922 1472.25 M130.922 1468.54 Q136.732 1468.54 139.788 1473.15 Q142.867 1477.73 142.867 1486.48 Q142.867 1495.21 139.788 1499.82 Q136.732 1504.4 130.922 1504.4 Q125.112 1504.4 122.033 1499.82 Q118.978 1495.21 118.978 1486.48 Q118.978 1477.73 122.033 1473.15 Q125.112 1468.54 130.922 1468.54 Z" fill="#000000" fill-rule="nonzero" fill-opacity="1" /><path clip-path="url(#clip800)" d="M82.1494 1327.1 L111.825 1327.1 L111.825 1331.03 L82.1494 1331.03 L82.1494 1327.1 Z" fill="#000000" fill-rule="nonzero" fill-opacity="1" /><path clip-path="url(#clip800)" d="M121.964 1309.37 L140.32 1309.37 L140.32 1313.3 L126.246 1313.3 L126.246 1321.77 Q127.265 1321.43 128.283 1321.27 Q129.302 1321.08 130.32 1321.08 Q136.107 1321.08 139.487 1324.25 Q142.867 1327.42 142.867 1332.84 Q142.867 1338.42 139.394 1341.52 Q135.922 1344.6 129.603 1344.6 Q127.427 1344.6 125.158 1344.23 Q122.913 1343.86 120.506 1343.12 L120.506 1338.42 Q122.589 1339.55 124.811 1340.11 Q127.033 1340.66 129.51 1340.66 Q133.515 1340.66 135.853 1338.56 Q138.191 1336.45 138.191 1332.84 Q138.191 1329.23 135.853 1327.12 Q133.515 1325.01 129.51 1325.01 Q127.635 1325.01 125.76 1325.43 Q123.908 1325.85 121.964 1326.73 L121.964 1309.37 Z" fill="#000000" fill-rule="nonzero" fill-opacity="1" /><path clip-path="url(#clip800)" d="M130.922 1152.64 Q127.311 1152.64 125.482 1156.21 Q123.677 1159.75 123.677 1166.88 Q123.677 1173.99 125.482 1177.55 Q127.311 1181.09 130.922 1181.09 Q134.556 1181.09 136.362 1177.55 Q138.191 1173.99 138.191 1166.88 Q138.191 1159.75 136.362 1156.21 Q134.556 1152.64 130.922 1152.64 M130.922 1148.94 Q136.732 1148.94 139.788 1153.55 Q142.867 1158.13 142.867 1166.88 Q142.867 1175.61 139.788 1180.21 Q136.732 1184.8 130.922 1184.8 Q125.112 1184.8 122.033 1180.21 Q118.978 1175.61 118.978 1166.88 Q118.978 1158.13 122.033 1153.55 Q125.112 1148.94 130.922 1148.94 Z" fill="#000000" fill-rule="nonzero" fill-opacity="1" /><path clip-path="url(#clip800)" d="M121.964 989.765 L140.32 989.765 L140.32 993.7 L126.246 993.7 L126.246 1002.17 Q127.265 1001.83 128.283 1001.66 Q129.302 1001.48 130.32 1001.48 Q136.107 1001.48 139.487 1004.65 Q142.867 1007.82 142.867 1013.24 Q142.867 1018.82 139.394 1021.92 Q135.922 1025 129.603 1025 Q127.427 1025 125.158 1024.63 Q122.913 1024.26 120.506 1023.51 L120.506 1018.82 Q122.589 1019.95 124.811 1020.51 Q127.033 1021.06 129.51 1021.06 Q133.515 1021.06 135.853 1018.95 Q138.191 1016.85 138.191 1013.24 Q138.191 1009.63 135.853 1007.52 Q133.515 1005.41 129.51 1005.41 Q127.635 1005.41 125.76 1005.83 Q123.908 1006.25 121.964 1007.13 L121.964 989.765 Z" fill="#000000" fill-rule="nonzero" fill-opacity="1" /><path clip-path="url(#clip800)" d="M91.5706 860.589 L99.2095 860.589 L99.2095 834.223 L90.8993 835.89 L90.8993 831.631 L99.1632 829.964 L103.839 829.964 L103.839 860.589 L111.478 860.589 L111.478 864.524 L91.5706 864.524 L91.5706 860.589 Z" fill="#000000" fill-rule="nonzero" fill-opacity="1" /><path clip-path="url(#clip800)" d="M130.922 833.043 Q127.311 833.043 125.482 836.608 Q123.677 840.149 123.677 847.279 Q123.677 854.385 125.482 857.95 Q127.311 861.492 130.922 861.492 Q134.556 861.492 136.362 857.95 Q138.191 854.385 138.191 847.279 Q138.191 840.149 136.362 836.608 Q134.556 833.043 130.922 833.043 M130.922 829.339 Q136.732 829.339 139.788 833.946 Q142.867 838.529 142.867 847.279 Q142.867 856.006 139.788 860.612 Q136.732 865.195 130.922 865.195 Q125.112 865.195 122.033 860.612 Q118.978 856.006 118.978 847.279 Q118.978 838.529 122.033 833.946 Q125.112 829.339 130.922 829.339 Z" fill="#000000" fill-rule="nonzero" fill-opacity="1" /><polyline clip-path="url(#clip803)" style="stroke:#009af9; stroke-linecap:round; stroke-linejoin:round; stroke-width:4; stroke-opacity:1; fill:none" points="240.392,1134.89 242.445,1094.51 244.498,1087.85 246.55,753.802 248.603,1268.01 250.656,1270.12 252.709,1339.86 254.762,1082.29 256.815,1191.34 258.868,1146.55 260.921,1180.7 262.974,1133.56 265.027,1153.1 267.079,1168.5 269.132,1159.64 271.185,1188.82 273.238,1169.11 275.291,1135.45 277.344,1166.63 279.397,1176.65 281.45,1151.92 283.503,1188.62 285.555,1179.07 287.608,1152.3 289.661,1152.75 291.714,1145.08 293.767,1115.91 295.82,1094.83 297.873,1043.57 299.926,944.275 301.979,1214.42 304.031,875.83 306.084,462.571 308.137,2013.02 310.19,1138.82 312.243,1164.24 314.296,1383.47 316.349,1214.02 318.402,994.049 320.455,995.539 322.507,1197.42 324.56,1155.8 326.613,1146.43 328.666,1161.8 330.719,1154.6 332.772,1132.01 334.825,1146.4 336.878,1156.93 338.931,1180.1 340.984,1163.62 343.036,1176.42 345.089,1117.96 347.142,1208.89 349.195,1186.45 351.248,1154.88 353.301,1141.82 355.354,1143.82 357.407,1152.23 359.46,1133.51 361.512,1095.88 363.565,1167.78 365.618,1238.82 367.671,1137.5 369.724,1181.37 371.777,1145.72 373.83,1147.63 375.883,1029.91 377.936,1251.71 379.988,1043.96 382.041,1258.44 384.094,1153.06 386.147,1176.88 388.2,1195.04 390.253,1145.74 392.306,1178.91 394.359,1153.82 396.412,1123.62 398.464,1181.41 400.517,1105.4 402.57,1126.36 404.623,1177.84 406.676,938.556 408.729,1534.87 410.782,145.021 412.835,798.322 414.888,703.643 416.94,1237.85 418.993,1240.82 421.046,1197.37 423.099,1048.06 425.152,741.194 427.205,1058.58 429.258,906.909 431.311,946.52 433.364,790.557 435.417,1659.99 437.469,1347.45 439.522,1444.69 441.575,359.195 443.628,579.901 445.681,1244.04 447.734,1179.99 449.787,1158.24 451.84,1227.82 453.893,1105.39 455.945,1314.96 457.998,1323.71 460.051,1177.82 462.104,678.566 464.157,3017.95 466.21,503.233 468.263,786.324 470.316,1277.97 472.369,954.421 474.421,1109.34 476.474,1144.66 478.527,1182.48 480.58,1117.69 482.633,1205.02 484.686,1456.59 486.739,1106.36 488.792,1161.25 490.845,1193.82 492.897,1161.5 494.95,1243.49 497.003,1205.9 499.056,1151.14 501.109,1146.49 503.162,1142.82 505.215,1189.22 507.268,1200.57 509.321,1159.86 511.374,1174.63 513.426,1161.51 515.479,1162.91 517.532,1171.71 519.585,1068.87 521.638,1080.36 523.691,1148.54 525.744,1145.95 527.797,1174.97 529.85,1153.29 531.902,1151.63 533.955,1228.59 536.008,1125.81 538.061,1230.26 540.114,1138.59 542.167,1156.42 544.22,1197.53 546.273,1146.22 548.326,1190.8 550.378,1221.14 552.431,1183.26 554.484,1166.77 556.537,1179.03 558.59,1166.01 560.643,1205.7 562.696,1202.67 564.749,1181.28 566.802,1160.69 568.854,1148.12 570.907,1216.9 572.96,1137.6 575.013,1128.18 577.066,1214.12 579.119,1162.37 581.172,1193.01 583.225,1153.97 585.278,1168.6 587.331,1192.73 589.383,1165.89 591.436,1205.99 593.489,1160.19 595.542,1175.82 597.595,1182.45 599.648,1155.02 601.701,1220.49 603.754,1133.49 605.807,1102.69 607.859,1158.04 609.912,1152.43 611.965,1130.4 614.018,1163.72 616.071,1151.89 618.124,1168.3 620.177,1166.29 622.23,1138.41 624.283,1171.94 626.335,1177.04 628.388,1122.26 630.441,1219.07 632.494,1133.87 634.547,973.402 636.6,1026.33 638.653,1196.4 640.706,1281.92 642.759,1213.56 644.811,1049.13 646.864,1073.62 648.917,1559.3 650.97,1277.23 653.023,1089.99 655.076,1173.76 657.129,1153.8 659.182,1145.39 661.235,1222.11 663.288,1178.87 665.34,1168.61 667.393,1167.39 669.446,1106.67 671.499,1267.1 673.552,1125.12 675.605,1195.06 677.658,1115 679.711,1180.94 681.764,1157.06 683.816,1181.75 685.869,1191.09 687.922,1152.31 689.975,1143.11 692.028,1194.22 694.081,1189.8 696.134,1189.36 698.187,1193.68 700.24,1037.24 702.292,1351.19 704.345,1234.62 706.398,1026.19 708.451,1168.19 710.504,1124.48 712.557,1181.64 714.61,1157.22 716.663,1155.4 718.716,1154.34 720.768,1050.86 722.821,1225.53 724.874,1184.46 726.927,1193.35 728.98,1194.13 731.033,1202.36 733.086,1160.47 735.139,1142.81 737.192,1193.76 739.245,1146.72 741.297,1185.02 743.35,1178.26 745.403,1198.41 747.456,1095.53 749.509,1177.69 751.562,1124.88 753.615,1176.43 755.668,1172.47 757.721,1113.61 759.773,980.478 761.826,1250.18 763.879,1282.24 765.932,1107.49 767.985,1366.74 770.038,1073.83 772.091,1276.3 774.144,1366.28 776.197,1179.18 778.249,1160.39 780.302,1183.52 782.355,1184.13 784.408,1154.72 786.461,1218.72 788.514,1135.37 790.567,1185.26 792.62,1128.5 794.673,1184.71 796.725,1183.96 798.778,1168.14 800.831,1150.86 802.884,1114.05 804.937,1239.17 806.99,1151.99 809.043,1153.95 811.096,1134.26 813.149,1155.6 815.202,1175.14 817.254,1096.15 819.307,1195.19 821.36,1180.55 823.413,1175.43 825.466,1073.55 827.519,1133.54 829.572,1238.12 831.625,1099.56 833.678,1018.39 835.73,998.941 837.783,1036.91 839.836,1251.28 841.889,1177.8 843.942,1135.28 845.995,1161.17 848.048,1157.88 850.101,1170.81 852.154,1125.03 854.206,1157.66 856.259,1165.39 858.312,1051.38 860.365,986.135 862.418,1141.13 864.471,1088.71 866.524,1191.36 868.577,1385.41 870.63,1173.31 872.682,1160.02 874.735,1145.21 876.788,1125.67 878.841,1188.63 880.894,1143.01 882.947,1145.65 885,1152.26 887.053,1174.57 889.106,1120.47 891.159,1032.33 893.211,1037.2 895.264,2085.56 897.317,1264.04 899.37,1171.99 901.423,1174.43 903.476,1173.36 905.529,1299.94 907.582,1078.83 909.635,1131.48 911.687,1187.69 913.74,1167.06 915.793,1194.42 917.846,1193.92 919.899,1155.5 921.952,1128.52 924.005,1129.33 926.058,1291.19 928.111,261.419 930.163,665.505 932.216,160.43 934.269,2428.38 936.322,1732.09 938.375,1675.68 940.428,725.207 942.481,2080.03 944.534,-53.7941 946.587,1054.16 948.639,1126.09 950.692,1172.3 952.745,1171.47 954.798,1002.62 956.851,1132.75 958.904,1189.89 960.957,1242.18 963.01,1006.93 965.063,1214.47 967.116,1192.99 969.168,1144.98 971.221,1204.83 973.274,1197.58 975.327,1069.16 977.38,1627.12 979.433,979.981 981.486,894.311 983.539,1815.77 985.592,1271.18 987.644,1012.85 989.697,1151.63 991.75,1129.82 993.803,1170.99 995.856,1185.33 997.909,1159.37 999.962,1223.62 1002.01,1140.4 1004.07,1133.51 1006.12,1203.53 1008.17,1204.77 1010.23,1219.6 1012.28,1161.7 1014.33,1110.69 1016.38,1184.67 1018.44,1136.76 1020.49,1148.31 1022.54,1204.43 1024.6,1143.76 1026.65,1186.89 1028.7,1177.8 1030.76,1171.84 1032.81,1172.29 1034.86,1152.55 1036.91,1157.41 1038.97,1151.96 1041.02,1112.15 1043.07,1253.63 1045.13,1262.93 1047.18,1193.77 1049.23,1208.78 1051.28,1236.58 1053.34,1204.69 1055.39,1210.5 1057.44,1150.13 1059.5,1218.79 1061.55,117.007 1063.6,2271.23 1065.65,3191.41 1067.71,1088.57 1069.76,1182.8 1071.81,1125.63 1073.87,1198.06 1075.92,1162.59 1077.97,812.101 1080.02,1300.67 1082.08,1104.73 1084.13,1153.24 1086.18,1148.95 1088.24,1116.32 1090.29,1130.04 1092.34,1227.22 1094.39,1270.37 1096.45,1167.55 1098.5,1196.18 1100.55,1151.14 1102.61,1145.66 1104.66,1129.66 1106.71,1550.11 1108.77,814.575 1110.82,931.396 1112.87,1343.33 1114.92,1374.33 1116.98,1118.33 1119.03,1204.81 1121.08,946.97 1123.14,1159.24 1125.19,1183.62 1127.24,979.421 1129.29,1316.72 1131.35,948.459 1133.4,927.494 1135.45,928.512 1137.51,1174.54 1139.56,986.901 1141.61,1160.85 1143.66,1035.75 1145.72,1137.44 1147.77,1177.64 1149.82,1168.56 1151.88,1154.43 1153.93,1185.97 1155.98,1174.97 1158.03,1159.04 1160.09,1215.18 1162.14,1154.37 1164.19,1238.75 1166.25,1172.63 1168.3,1075.51 1170.35,1147.49 1172.4,1118.71 1174.46,1156.76 1176.51,1184.96 1178.56,1168.37 1180.62,1159.06 1182.67,1205.97 1184.72,1160.37 1186.77,1203.1 1188.83,1134.18 1190.88,1147.91 1192.93,1198.05 1194.99,1099.13 1197.04,1197.12 1199.09,1205.17 1201.15,1166.53 1203.2,1966.59 1205.25,1187.57 1207.3,1198.65 1209.36,1187.32 1211.41,1131.59 1213.46,1247.31 1215.52,1187.76 1217.57,1169.73 1219.62,1170.67 1221.67,1193.77 1223.73,1148.26 1225.78,1184.87 1227.83,893.157 1229.89,1241.14 1231.94,1256.87 1233.99,1278.19 1236.04,1306.72 1238.1,1183.56 1240.15,1144.68 1242.2,1233.36 1244.26,1047.22 1246.31,932.255 1248.36,1007.19 1250.41,-603.306 1252.47,-863.17 1254.52,1396.96 1256.57,697.454 1258.63,904.767 1260.68,823.721 1262.73,1117.38 1264.78,1192.92 1266.84,1044.01 1268.89,1134.89 1270.94,1133.05 1273,1131.27 1275.05,1212.95 1277.1,1085 1279.16,1143.96 1281.21,1173.58 1283.26,1194.88 1285.31,1146.02 1287.37,1094.55 1289.42,1124.23 1291.47,1162.41 1293.53,1146.45 1295.58,1155.44 1297.63,1118.79 1299.68,1165.56 1301.74,1164.41 1303.79,1222.5 1305.84,1116.57 1307.9,1217.92 1309.95,1221.47 1312,1274.94 1314.05,1069.36 1316.11,1058.14 1318.16,1263.98 1320.21,1005.42 1322.27,1335.08 1324.32,1297.28 1326.37,1247.98 1328.42,1206.71 1330.48,1220.09 1332.53,1120.87 1334.58,1152.42 1336.64,1112 1338.69,1280.11 1340.74,1183.78 1342.79,1145.82 1344.85,1158.61 1346.9,1178.26 1348.95,1178.05 1351.01,1147.56 1353.06,1164.64 1355.11,1154.94 1357.16,1182.8 1359.22,1234.72 1361.27,1249.21 1363.32,1318.02 1365.38,1193.17 1367.43,1181.47 1369.48,1147.93 1371.54,1194.04 1373.59,1173.27 1375.64,1184.96 1377.69,1129.07 1379.75,1222.69 1381.8,1225.27 1383.85,1200.74 1385.91,1172.27 1387.96,1159.59 1390.01,1166.36 1392.06,1440.77 1394.12,1401.21 1396.17,1223.99 1398.22,1162.03 1400.28,1210.52 1402.33,1132.79 1404.38,1178.36 1406.43,1187.66 1408.49,1146.65 1410.54,1174.18 1412.59,1218.4 1414.65,1183.29 1416.7,1225.54 1418.75,1216.24 1420.8,1325.46 1422.86,1162.65 1424.91,1180.54 1426.96,1179.57 1429.02,1224.53 1431.07,1250.15 1433.12,1107.84 1435.17,1219.09 1437.23,1120.86 1439.28,1221.71 1441.33,1133.88 1443.39,1128.82 1445.44,1162.67 1447.49,1170.59 1449.55,1182.02 1451.6,1175.88 1453.65,1173.31 1455.7,1196.47 1457.76,1185.06 1459.81,1136.74 1461.86,1197.49 1463.92,1188.23 1465.97,1176.59 1468.02,1155.33 1470.07,1183.89 1472.13,1228.04 1474.18,1172.33 1476.23,1192.84 1478.29,1218.2 1480.34,1243.45 1482.39,1164.08 1484.44,1204.14 1486.5,1112.3 1488.55,1171.86 1490.6,1212.15 1492.66,1055.74 1494.71,1163.19 1496.76,1158.86 1498.81,1104.36 1500.87,1233.8 1502.92,1155.72 1504.97,1161.4 1507.03,1128.16 1509.08,1080.65 1511.13,1078.49 1513.18,1240.83 1515.24,1198.84 1517.29,1082.55 1519.34,1132.16 1521.4,1134.42 1523.45,1189.31 1525.5,1150.77 1527.55,1160.66 1529.61,1112.25 1531.66,1203.08 1533.71,1216.9 1535.77,1221.86 1537.82,1139.53 1539.87,1164.98 1541.93,1125.35 1543.98,1196.72 1546.03,1181.12 1548.08,1149.15 1550.14,1223.96 1552.19,1142.29 1554.24,1181.04 1556.3,1231.26 1558.35,1262.79 1560.4,1366.81 1562.45,1064.03 1564.51,1190.54 1566.56,1580.1 1568.61,976.708 1570.67,1132.72 1572.72,1183.63 1574.77,1167.82 1576.82,1187.52 1578.88,1141.93 1580.93,1181.15 1582.98,1181 1585.04,1188.6 1587.09,1178.78 1589.14,1184.33 1591.19,1165.74 1593.25,1156.85 1595.3,1418.73 1597.35,684.024 1599.41,713.18 1601.46,846.532 1603.51,1784.77 1605.56,35.5532 1607.62,1279.72 1609.67,1127.32 1611.72,1102.04 1613.78,1328.58 1615.83,1097.77 1617.88,1315.81 1619.94,1057.67 1621.99,1121.39 1624.04,1126.64 1626.09,1175.36 1628.15,1161.61 1630.2,1106.18 1632.25,1147.09 1634.31,1183.83 1636.36,1131.1 1638.41,1160.04 1640.46,1153.24 1642.52,1197.61 1644.57,1266.44 1646.62,1215.53 1648.68,1098.08 1650.73,1147.82 1652.78,1161.98 1654.83,1163.4 1656.89,1165.48 1658.94,1161.8 1660.99,1173.59 1663.05,1124.7 1665.1,1106.08 1667.15,1110.79 1669.2,1077.29 1671.26,582.434 1673.31,1193.81 1675.36,1125.3 1677.42,1160.29 1679.47,1191.1 1681.52,1263.71 1683.57,1238.86 1685.63,1066.38 1687.68,1164.24 1689.73,1154.44 1691.79,1202 1693.84,1148.38 1695.89,1176.9 1697.94,1148.14 1700,1285.03 1702.05,1065.85 1704.1,1294.61 1706.16,1197.6 1708.21,1302.4 1710.26,1254.13 1712.32,1106.73 1714.37,1268.94 1716.42,971.081 1718.47,613.879 1720.53,1984.96 1722.58,640.508 1724.63,352.429 1726.69,731.79 1728.74,1121.46 1730.79,1140.31 1732.84,1132.39 1734.9,1224.79 1736.95,814.628 1739,1814.33 1741.06,-1970.94 1743.11,1778.01 1745.16,1045.84 1747.21,496.552 1749.27,1314.46 1751.32,1180.78 1753.37,1186.22 1755.43,1174.48 1757.48,1086.79 1759.53,1236.23 1761.58,1148.16 1763.64,1115.02 1765.69,1144.56 1767.74,1167.49 1769.8,1095.68 1771.85,694.387 1773.9,1194.22 1775.95,508.524 1778.01,456.36 1780.06,972.766 1782.11,1233.99 1784.17,1087.68 1786.22,1223.75 1788.27,1121.21 1790.33,1130.79 1792.38,1141.97 1794.43,1208.2 1796.48,1240.95 1798.54,1147.43 1800.59,1538.34 1802.64,1251.52 1804.7,1192.43 1806.75,1153.79 1808.8,1074.87 1810.85,1206.75 1812.91,1139.05 1814.96,1179.59 1817.01,1153.02 1819.07,1192.45 1821.12,1089.17 1823.17,1159.9 1825.22,1215.34 1827.28,1149.43 1829.33,1185.66 1831.38,1202.91 1833.44,1143.07 1835.49,1151.87 1837.54,1145.91 1839.59,1167.31 1841.65,1164.78 1843.7,1080.79 1845.75,1132.75 1847.81,1168.85 1849.86,1132.14 1851.91,1200.62 1853.96,1174.98 1856.02,1243.14 1858.07,1170.56 1860.12,1203.32 1862.18,1135.96 1864.23,1187.27 1866.28,1131.77 1868.34,1105.08 1870.39,1148 1872.44,1194.75 1874.49,1146.85 1876.55,1133.09 1878.6,1167.59 1880.65,1170.48 1882.71,997.318 1884.76,1128.49 1886.81,1158.43 1888.86,1151.95 1890.92,1117.63 1892.97,1118.7 1895.02,1208.23 1897.08,1166.67 1899.13,1172.71 1901.18,1160.47 1903.23,1258.35 1905.29,1143.27 1907.34,1149.19 1909.39,1200.84 1911.45,1171.64 1913.5,1161.63 1915.55,1193.94 1917.6,1164.35 1919.66,1162.86 1921.71,1136.26 1923.76,1187.84 1925.82,1219.9 1927.87,1162.19 1929.92,1408.51 1931.97,1423.47 1934.03,1426.66 1936.08,1217.34 1938.13,1174.41 1940.19,1156.39 1942.24,1102.94 1944.29,1219.58 1946.34,1133.41 1948.4,1175.83 1950.45,1174.64 1952.5,1173.9 1954.56,1390.06 1956.61,172.412 1958.66,1951.27 1960.72,1428.76 1962.77,1870.11 1964.82,-1125.99 1966.87,3281.64 1968.93,3705.83 1970.98,1793.08 1973.03,969.042 1975.09,1012.42 1977.14,876.176 1979.19,1165.1 1981.24,1243.75 1983.3,1097.81 1985.35,1666.35 1987.4,1640.43 1989.46,1417.88 1991.51,1413.84 1993.56,1292.9 1995.61,1214.39 1997.67,1184.78 1999.72,1157.52 2001.77,1163.88 2003.83,1177.78 2005.88,1177.13 2007.93,1161.63 2009.98,902.52 2012.04,1303.6 2014.09,1202.4 2016.14,1172.48 2018.2,1156.14 2020.25,1172.84 2022.3,1232.01 2024.35,1165.13 2026.41,1173.13 2028.46,1123.92 2030.51,1237.17 2032.57,1140.07 2034.62,1171.72 2036.67,1190.34 2038.73,1177.74 2040.78,1161.86 2042.83,1162.71 2044.88,1185.55 2046.94,1258.46 2048.99,1187.51 2051.04,1284.35 2053.1,852.604 2055.15,927.048 2057.2,1163.7 2059.25,-213.68 2061.31,-721.873 2063.36,1688.09 2065.41,1897.44 2067.47,1297.65 2069.52,1303.43 2071.57,1132.17 2073.62,1173.71 2075.68,1184.99 2077.73,1233.12 2079.78,1043.15 2081.84,1203.89 2083.89,1070.47 2085.94,1171.15 2087.99,927.856 2090.05,1213.23 2092.1,1166.61 2094.15,1127.79 2096.21,1424.19 2098.26,1578.26 2100.31,1147.25 2102.36,1287.27 2104.42,1286.26 2106.47,1189 2108.52,1145.44 2110.58,1151.94 2112.63,1144.97 2114.68,1177.66 2116.73,1164.6 2118.79,1160.04 2120.84,1214.35 2122.89,1195.26 2124.95,1184.92 2127,1265.24 2129.05,977.574 2131.11,1077.72 2133.16,1233.17 2135.21,1159.23 2137.26,1154.87 2139.32,1132.12 2141.37,1166.87 2143.42,1170.68 2145.48,1167.85 2147.53,1255.04 2149.58,1184.18 2151.63,1189.31 2153.69,1128.17 2155.74,1156.1 2157.79,1160.19 2159.85,1154.62 2161.9,1170.73 2163.95,1139.79 2166,1176.16 2168.06,1147.15 2170.11,1102.25 2172.16,1231.64 2174.22,1146.84 2176.27,1165.7 2178.32,1213.24 2180.37,1251.03 2182.43,1228.63 2184.48,1212.46 2186.53,1180.47 2188.59,1142.58 2190.64,1191.55 2192.69,1195.11 2194.74,1153.79 2196.8,1153.06 2198.85,1160.77 2200.9,1163.62 2202.96,1156.74 2205.01,1159.98 2207.06,1154.47 2209.12,1181.82 2211.17,1151.22 2213.22,1189.66 2215.27,1233.49 2217.33,1183.96 2219.38,1162.19 2221.43,1343.17 2223.49,1292.27 2225.54,1070.13 2227.59,1207.19 2229.64,1146.4 2231.7,1221.01 2233.75,1124.03 2235.8,1144.31 2237.86,1378.97 2239.91,1031.06 2241.96,1151.85 2244.01,1171.16 2246.07,1187.05 2248.12,1150.83 2250.17,1148.77 2252.23,1130.12 2254.28,1224.1 2256.33,1132.33 2258.38,1077.14 2260.44,1146.02 2262.49,1308.69 2264.54,1161.88 2266.6,1151.88 2268.65,1145.75 2270.7,1204.27 2272.75,1226.44 2274.81,1185.27 2276.86,1201.79 2278.91,1162.02 2280.97,1176.52 2283.02,1159.41 2285.07,1112 2287.12,1187.87 2289.18,1187.8 2291.23,1191.73 "/>
<path clip-path="url(#clip800)" d="M251.33 1465.14 L588.926 1465.14 L588.926 1361.46 L251.33 1361.46  Z" fill="#ffffff" fill-rule="evenodd" fill-opacity="1"/>
<polyline clip-path="url(#clip800)" style="stroke:#000000; stroke-linecap:round; stroke-linejoin:round; stroke-width:4; stroke-opacity:1; fill:none" points="251.33,1465.14 588.926,1465.14 588.926,1361.46 251.33,1361.46 251.33,1465.14 "/>
<polyline clip-path="url(#clip800)" style="stroke:#009af9; stroke-linecap:round; stroke-linejoin:round; stroke-width:4; stroke-opacity:1; fill:none" points="275.484,1413.3 420.41,1413.3 "/>
<path clip-path="url(#clip800)" d="M470.12 1425.65 L470.12 1416.37 L462.481 1416.37 L462.481 1412.53 L474.749 1412.53 L474.749 1427.36 Q472.041 1429.28 468.777 1430.28 Q465.513 1431.25 461.809 1431.25 Q453.708 1431.25 449.124 1426.53 Q444.564 1421.78 444.564 1413.34 Q444.564 1404.86 449.124 1400.14 Q453.708 1395.4 461.809 1395.4 Q465.189 1395.4 468.221 1396.23 Q471.277 1397.06 473.846 1398.68 L473.846 1403.66 Q471.254 1401.46 468.337 1400.35 Q465.421 1399.24 462.203 1399.24 Q455.86 1399.24 452.666 1402.78 Q449.495 1406.32 449.495 1413.34 Q449.495 1420.33 452.666 1423.87 Q455.86 1427.41 462.203 1427.41 Q464.68 1427.41 466.624 1426.99 Q468.569 1426.55 470.12 1425.65 Z" fill="#000000" fill-rule="nonzero" fill-opacity="1" /><path clip-path="url(#clip800)" d="M487.967 1399.86 L487.967 1412.85 L493.846 1412.85 Q497.11 1412.85 498.893 1411.16 Q500.675 1409.47 500.675 1406.35 Q500.675 1403.24 498.893 1401.55 Q497.11 1399.86 493.846 1399.86 L487.967 1399.86 M483.291 1396.02 L493.846 1396.02 Q499.657 1396.02 502.619 1398.66 Q505.606 1401.28 505.606 1406.35 Q505.606 1411.46 502.619 1414.08 Q499.657 1416.69 493.846 1416.69 L487.967 1416.69 L487.967 1430.58 L483.291 1430.58 L483.291 1396.02 Z" fill="#000000" fill-rule="nonzero" fill-opacity="1" /><path clip-path="url(#clip800)" d="M532.596 1397.16 L532.596 1401.72 Q529.934 1400.44 527.573 1399.82 Q525.212 1399.19 523.013 1399.19 Q519.193 1399.19 517.11 1400.67 Q515.05 1402.16 515.05 1404.89 Q515.05 1407.18 516.416 1408.36 Q517.805 1409.52 521.647 1410.23 L524.471 1410.81 Q529.703 1411.81 532.179 1414.33 Q534.679 1416.83 534.679 1421.04 Q534.679 1426.07 531.3 1428.66 Q527.943 1431.25 521.439 1431.25 Q518.985 1431.25 516.207 1430.7 Q513.453 1430.14 510.49 1429.05 L510.49 1424.24 Q513.337 1425.84 516.068 1426.65 Q518.8 1427.46 521.439 1427.46 Q525.443 1427.46 527.619 1425.88 Q529.795 1424.31 529.795 1421.39 Q529.795 1418.85 528.221 1417.41 Q526.67 1415.97 523.105 1415.26 L520.258 1414.7 Q515.027 1413.66 512.689 1411.44 Q510.351 1409.22 510.351 1405.26 Q510.351 1400.67 513.568 1398.03 Q516.809 1395.4 522.48 1395.4 Q524.911 1395.4 527.434 1395.84 Q529.957 1396.28 532.596 1397.16 Z" fill="#000000" fill-rule="nonzero" fill-opacity="1" /><path clip-path="url(#clip800)" d="M562.689 1397.16 L562.689 1401.72 Q560.027 1400.44 557.665 1399.82 Q555.304 1399.19 553.105 1399.19 Q549.286 1399.19 547.203 1400.67 Q545.142 1402.16 545.142 1404.89 Q545.142 1407.18 546.508 1408.36 Q547.897 1409.52 551.74 1410.23 L554.564 1410.81 Q559.795 1411.81 562.272 1414.33 Q564.772 1416.83 564.772 1421.04 Q564.772 1426.07 561.392 1428.66 Q558.036 1431.25 551.531 1431.25 Q549.078 1431.25 546.3 1430.7 Q543.545 1430.14 540.582 1429.05 L540.582 1424.24 Q543.429 1425.84 546.161 1426.65 Q548.892 1427.46 551.531 1427.46 Q555.536 1427.46 557.712 1425.88 Q559.888 1424.31 559.888 1421.39 Q559.888 1418.85 558.314 1417.41 Q556.763 1415.97 553.198 1415.26 L550.351 1414.7 Q545.119 1413.66 542.781 1411.44 Q540.443 1409.22 540.443 1405.26 Q540.443 1400.67 543.661 1398.03 Q546.902 1395.4 552.573 1395.4 Q555.003 1395.4 557.527 1395.84 Q560.05 1396.28 562.689 1397.16 Z" fill="#000000" fill-rule="nonzero" fill-opacity="1" /></svg>
