<?xml version="1.0" encoding="utf-8"?>
<svg xmlns="http://www.w3.org/2000/svg" xmlns:xlink="http://www.w3.org/1999/xlink" width="600" height="400" viewBox="0 0 2400 1600">
<defs>
  <clipPath id="clip920">
    <rect x="0" y="0" width="2400" height="1600"/>
  </clipPath>
</defs>
<path clip-path="url(#clip920)" d="M0 1600 L2400 1600 L2400 0 L0 0  Z" fill="#ffffff" fill-rule="evenodd" fill-opacity="1"/>
<defs>
  <clipPath id="clip921">
    <rect x="480" y="0" width="1681" height="1600"/>
  </clipPath>
</defs>
<path clip-path="url(#clip920)" d="M178.867 686.448 L2352.76 686.448 L2352.76 47.2441 L178.867 47.2441  Z" fill="#ffffff" fill-rule="evenodd" fill-opacity="1"/>
<defs>
  <clipPath id="clip922">
    <rect x="178" y="47" width="2175" height="640"/>
  </clipPath>
</defs>
<polyline clip-path="url(#clip922)" style="stroke:#000000; stroke-linecap:round; stroke-linejoin:round; stroke-width:2; stroke-opacity:0.1; fill:none" points="238.339,686.448 238.339,47.2441 "/>
<polyline clip-path="url(#clip922)" style="stroke:#000000; stroke-linecap:round; stroke-linejoin:round; stroke-width:2; stroke-opacity:0.1; fill:none" points="751.562,686.448 751.562,47.2441 "/>
<polyline clip-path="url(#clip922)" style="stroke:#000000; stroke-linecap:round; stroke-linejoin:round; stroke-width:2; stroke-opacity:0.1; fill:none" points="1264.78,686.448 1264.78,47.2441 "/>
<polyline clip-path="url(#clip922)" style="stroke:#000000; stroke-linecap:round; stroke-linejoin:round; stroke-width:2; stroke-opacity:0.1; fill:none" points="1778.01,686.448 1778.01,47.2441 "/>
<polyline clip-path="url(#clip922)" style="stroke:#000000; stroke-linecap:round; stroke-linejoin:round; stroke-width:2; stroke-opacity:0.1; fill:none" points="2291.23,686.448 2291.23,47.2441 "/>
<polyline clip-path="url(#clip922)" style="stroke:#000000; stroke-linecap:round; stroke-linejoin:round; stroke-width:2; stroke-opacity:0.1; fill:none" points="178.867,686.448 2352.76,686.448 "/>
<polyline clip-path="url(#clip922)" style="stroke:#000000; stroke-linecap:round; stroke-linejoin:round; stroke-width:2; stroke-opacity:0.1; fill:none" points="178.867,526.647 2352.76,526.647 "/>
<polyline clip-path="url(#clip922)" style="stroke:#000000; stroke-linecap:round; stroke-linejoin:round; stroke-width:2; stroke-opacity:0.1; fill:none" points="178.867,366.846 2352.76,366.846 "/>
<polyline clip-path="url(#clip922)" style="stroke:#000000; stroke-linecap:round; stroke-linejoin:round; stroke-width:2; stroke-opacity:0.1; fill:none" points="178.867,207.045 2352.76,207.045 "/>
<polyline clip-path="url(#clip922)" style="stroke:#000000; stroke-linecap:round; stroke-linejoin:round; stroke-width:2; stroke-opacity:0.1; fill:none" points="178.867,47.2441 2352.76,47.2441 "/>
<polyline clip-path="url(#clip920)" style="stroke:#000000; stroke-linecap:round; stroke-linejoin:round; stroke-width:4; stroke-opacity:1; fill:none" points="178.867,686.448 2352.76,686.448 "/>
<polyline clip-path="url(#clip920)" style="stroke:#000000; stroke-linecap:round; stroke-linejoin:round; stroke-width:4; stroke-opacity:1; fill:none" points="238.339,686.448 238.339,667.55 "/>
<polyline clip-path="url(#clip920)" style="stroke:#000000; stroke-linecap:round; stroke-linejoin:round; stroke-width:4; stroke-opacity:1; fill:none" points="751.562,686.448 751.562,667.55 "/>
<polyline clip-path="url(#clip920)" style="stroke:#000000; stroke-linecap:round; stroke-linejoin:round; stroke-width:4; stroke-opacity:1; fill:none" points="1264.78,686.448 1264.78,667.55 "/>
<polyline clip-path="url(#clip920)" style="stroke:#000000; stroke-linecap:round; stroke-linejoin:round; stroke-width:4; stroke-opacity:1; fill:none" points="1778.01,686.448 1778.01,667.55 "/>
<polyline clip-path="url(#clip920)" style="stroke:#000000; stroke-linecap:round; stroke-linejoin:round; stroke-width:4; stroke-opacity:1; fill:none" points="2291.23,686.448 2291.23,667.55 "/>
<path clip-path="url(#clip920)" d="M238.339 717.367 Q234.728 717.367 232.899 720.931 Q231.094 724.473 231.094 731.603 Q231.094 738.709 232.899 742.274 Q234.728 745.815 238.339 745.815 Q241.973 745.815 243.779 742.274 Q245.607 738.709 245.607 731.603 Q245.607 724.473 243.779 720.931 Q241.973 717.367 238.339 717.367 M238.339 713.663 Q244.149 713.663 247.205 718.269 Q250.283 722.853 250.283 731.603 Q250.283 740.329 247.205 744.936 Q244.149 749.519 238.339 749.519 Q232.529 749.519 229.45 744.936 Q226.395 740.329 226.395 731.603 Q226.395 722.853 229.45 718.269 Q232.529 713.663 238.339 713.663 Z" fill="#000000" fill-rule="nonzero" fill-opacity="1" /><path clip-path="url(#clip920)" d="M715.254 744.913 L731.574 744.913 L731.574 748.848 L709.629 748.848 L709.629 744.913 Q712.291 742.158 716.875 737.528 Q721.481 732.876 722.662 731.533 Q724.907 729.01 725.787 727.274 Q726.689 725.515 726.689 723.825 Q726.689 721.07 724.745 719.334 Q722.824 717.598 719.722 717.598 Q717.523 717.598 715.069 718.362 Q712.638 719.126 709.861 720.677 L709.861 715.955 Q712.685 714.82 715.138 714.242 Q717.592 713.663 719.629 713.663 Q725 713.663 728.194 716.348 Q731.388 719.033 731.388 723.524 Q731.388 725.654 730.578 727.575 Q729.791 729.473 727.685 732.066 Q727.106 732.737 724.004 735.954 Q720.902 739.149 715.254 744.913 Z" fill="#000000" fill-rule="nonzero" fill-opacity="1" /><path clip-path="url(#clip920)" d="M741.435 714.288 L759.791 714.288 L759.791 718.223 L745.717 718.223 L745.717 726.695 Q746.736 726.348 747.754 726.186 Q748.773 726.001 749.791 726.001 Q755.578 726.001 758.958 729.172 Q762.337 732.343 762.337 737.76 Q762.337 743.339 758.865 746.44 Q755.393 749.519 749.073 749.519 Q746.898 749.519 744.629 749.149 Q742.384 748.778 739.976 748.038 L739.976 743.339 Q742.06 744.473 744.282 745.028 Q746.504 745.584 748.981 745.584 Q752.985 745.584 755.323 743.478 Q757.661 741.371 757.661 737.76 Q757.661 734.149 755.323 732.042 Q752.985 729.936 748.981 729.936 Q747.106 729.936 745.231 730.353 Q743.379 730.769 741.435 731.649 L741.435 714.288 Z" fill="#000000" fill-rule="nonzero" fill-opacity="1" /><path clip-path="url(#clip920)" d="M781.55 717.367 Q777.939 717.367 776.11 720.931 Q774.305 724.473 774.305 731.603 Q774.305 738.709 776.11 742.274 Q777.939 745.815 781.55 745.815 Q785.184 745.815 786.99 742.274 Q788.819 738.709 788.819 731.603 Q788.819 724.473 786.99 720.931 Q785.184 717.367 781.55 717.367 M781.55 713.663 Q787.36 713.663 790.416 718.269 Q793.495 722.853 793.495 731.603 Q793.495 740.329 790.416 744.936 Q787.36 749.519 781.55 749.519 Q775.74 749.519 772.661 744.936 Q769.606 740.329 769.606 731.603 Q769.606 722.853 772.661 718.269 Q775.74 713.663 781.55 713.663 Z" fill="#000000" fill-rule="nonzero" fill-opacity="1" /><path clip-path="url(#clip920)" d="M1224.4 714.288 L1242.76 714.288 L1242.76 718.223 L1228.69 718.223 L1228.69 726.695 Q1229.7 726.348 1230.72 726.186 Q1231.74 726.001 1232.76 726.001 Q1238.55 726.001 1241.93 729.172 Q1245.31 732.343 1245.31 737.76 Q1245.31 743.339 1241.83 746.44 Q1238.36 749.519 1232.04 749.519 Q1229.87 749.519 1227.6 749.149 Q1225.35 748.778 1222.94 748.038 L1222.94 743.339 Q1225.03 744.473 1227.25 745.028 Q1229.47 745.584 1231.95 745.584 Q1235.95 745.584 1238.29 743.478 Q1240.63 741.371 1240.63 737.76 Q1240.63 734.149 1238.29 732.042 Q1235.95 729.936 1231.95 729.936 Q1230.07 729.936 1228.2 730.353 Q1226.35 730.769 1224.4 731.649 L1224.4 714.288 Z" fill="#000000" fill-rule="nonzero" fill-opacity="1" /><path clip-path="url(#clip920)" d="M1264.52 717.367 Q1260.91 717.367 1259.08 720.931 Q1257.27 724.473 1257.27 731.603 Q1257.27 738.709 1259.08 742.274 Q1260.91 745.815 1264.52 745.815 Q1268.15 745.815 1269.96 742.274 Q1271.79 738.709 1271.79 731.603 Q1271.79 724.473 1269.96 720.931 Q1268.15 717.367 1264.52 717.367 M1264.52 713.663 Q1270.33 713.663 1273.38 718.269 Q1276.46 722.853 1276.46 731.603 Q1276.46 740.329 1273.38 744.936 Q1270.33 749.519 1264.52 749.519 Q1258.71 749.519 1255.63 744.936 Q1252.57 740.329 1252.57 731.603 Q1252.57 722.853 1255.63 718.269 Q1258.71 713.663 1264.52 713.663 Z" fill="#000000" fill-rule="nonzero" fill-opacity="1" /><path clip-path="url(#clip920)" d="M1294.68 717.367 Q1291.07 717.367 1289.24 720.931 Q1287.44 724.473 1287.44 731.603 Q1287.44 738.709 1289.24 742.274 Q1291.07 745.815 1294.68 745.815 Q1298.31 745.815 1300.12 742.274 Q1301.95 738.709 1301.95 731.603 Q1301.95 724.473 1300.12 720.931 Q1298.31 717.367 1294.68 717.367 M1294.68 713.663 Q1300.49 713.663 1303.55 718.269 Q1306.62 722.853 1306.62 731.603 Q1306.62 740.329 1303.55 744.936 Q1300.49 749.519 1294.68 749.519 Q1288.87 749.519 1285.79 744.936 Q1282.74 740.329 1282.74 731.603 Q1282.74 722.853 1285.79 718.269 Q1288.87 713.663 1294.68 713.663 Z" fill="#000000" fill-rule="nonzero" fill-opacity="1" /><path clip-path="url(#clip920)" d="M1736.28 714.288 L1758.51 714.288 L1758.51 716.279 L1745.96 748.848 L1741.08 748.848 L1752.88 718.223 L1736.28 718.223 L1736.28 714.288 Z" fill="#000000" fill-rule="nonzero" fill-opacity="1" /><path clip-path="url(#clip920)" d="M1767.67 714.288 L1786.03 714.288 L1786.03 718.223 L1771.95 718.223 L1771.95 726.695 Q1772.97 726.348 1773.99 726.186 Q1775.01 726.001 1776.03 726.001 Q1781.82 726.001 1785.2 729.172 Q1788.57 732.343 1788.57 737.76 Q1788.57 743.339 1785.1 746.44 Q1781.63 749.519 1775.31 749.519 Q1773.14 749.519 1770.87 749.149 Q1768.62 748.778 1766.21 748.038 L1766.21 743.339 Q1768.3 744.473 1770.52 745.028 Q1772.74 745.584 1775.22 745.584 Q1779.22 745.584 1781.56 743.478 Q1783.9 741.371 1783.9 737.76 Q1783.9 734.149 1781.56 732.042 Q1779.22 729.936 1775.22 729.936 Q1773.34 729.936 1771.47 730.353 Q1769.62 730.769 1767.67 731.649 L1767.67 714.288 Z" fill="#000000" fill-rule="nonzero" fill-opacity="1" /><path clip-path="url(#clip920)" d="M1807.79 717.367 Q1804.18 717.367 1802.35 720.931 Q1800.54 724.473 1800.54 731.603 Q1800.54 738.709 1802.35 742.274 Q1804.18 745.815 1807.79 745.815 Q1811.42 745.815 1813.23 742.274 Q1815.06 738.709 1815.06 731.603 Q1815.06 724.473 1813.23 720.931 Q1811.42 717.367 1807.79 717.367 M1807.79 713.663 Q1813.6 713.663 1816.65 718.269 Q1819.73 722.853 1819.73 731.603 Q1819.73 740.329 1816.65 744.936 Q1813.6 749.519 1807.79 749.519 Q1801.98 749.519 1798.9 744.936 Q1795.84 740.329 1795.84 731.603 Q1795.84 722.853 1798.9 718.269 Q1801.98 713.663 1807.79 713.663 Z" fill="#000000" fill-rule="nonzero" fill-opacity="1" /><path clip-path="url(#clip920)" d="M2235.76 744.913 L2243.4 744.913 L2243.4 718.547 L2235.09 720.214 L2235.09 715.955 L2243.35 714.288 L2248.02 714.288 L2248.02 744.913 L2255.66 744.913 L2255.66 748.848 L2235.76 748.848 L2235.76 744.913 Z" fill="#000000" fill-rule="nonzero" fill-opacity="1" /><path clip-path="url(#clip920)" d="M2275.11 717.367 Q2271.5 717.367 2269.67 720.931 Q2267.86 724.473 2267.86 731.603 Q2267.86 738.709 2269.67 742.274 Q2271.5 745.815 2275.11 745.815 Q2278.74 745.815 2280.55 742.274 Q2282.38 738.709 2282.38 731.603 Q2282.38 724.473 2280.55 720.931 Q2278.74 717.367 2275.11 717.367 M2275.11 713.663 Q2280.92 713.663 2283.97 718.269 Q2287.05 722.853 2287.05 731.603 Q2287.05 740.329 2283.97 744.936 Q2280.92 749.519 2275.11 749.519 Q2269.3 749.519 2266.22 744.936 Q2263.16 740.329 2263.16 731.603 Q2263.16 722.853 2266.22 718.269 Q2269.3 713.663 2275.11 713.663 Z" fill="#000000" fill-rule="nonzero" fill-opacity="1" /><path clip-path="url(#clip920)" d="M2305.27 717.367 Q2301.66 717.367 2299.83 720.931 Q2298.02 724.473 2298.02 731.603 Q2298.02 738.709 2299.83 742.274 Q2301.66 745.815 2305.27 745.815 Q2308.9 745.815 2310.71 742.274 Q2312.54 738.709 2312.54 731.603 Q2312.54 724.473 2310.71 720.931 Q2308.9 717.367 2305.27 717.367 M2305.27 713.663 Q2311.08 713.663 2314.14 718.269 Q2317.21 722.853 2317.21 731.603 Q2317.21 740.329 2314.14 744.936 Q2311.08 749.519 2305.27 749.519 Q2299.46 749.519 2296.38 744.936 Q2293.33 740.329 2293.33 731.603 Q2293.33 722.853 2296.38 718.269 Q2299.46 713.663 2305.27 713.663 Z" fill="#000000" fill-rule="nonzero" fill-opacity="1" /><path clip-path="url(#clip920)" d="M2335.43 717.367 Q2331.82 717.367 2329.99 720.931 Q2328.19 724.473 2328.19 731.603 Q2328.19 738.709 2329.99 742.274 Q2331.82 745.815 2335.43 745.815 Q2339.07 745.815 2340.87 742.274 Q2342.7 738.709 2342.7 731.603 Q2342.7 724.473 2340.87 720.931 Q2339.07 717.367 2335.43 717.367 M2335.43 713.663 Q2341.24 713.663 2344.3 718.269 Q2347.38 722.853 2347.38 731.603 Q2347.38 740.329 2344.3 744.936 Q2341.24 749.519 2335.43 749.519 Q2329.62 749.519 2326.54 744.936 Q2323.49 740.329 2323.49 731.603 Q2323.49 722.853 2326.54 718.269 Q2329.62 713.663 2335.43 713.663 Z" fill="#000000" fill-rule="nonzero" fill-opacity="1" /><polyline clip-path="url(#clip920)" style="stroke:#000000; stroke-linecap:round; stroke-linejoin:round; stroke-width:4; stroke-opacity:1; fill:none" points="178.867,686.448 178.867,47.2441 "/>
<polyline clip-path="url(#clip920)" style="stroke:#000000; stroke-linecap:round; stroke-linejoin:round; stroke-width:4; stroke-opacity:1; fill:none" points="178.867,686.448 197.764,686.448 "/>
<polyline clip-path="url(#clip920)" style="stroke:#000000; stroke-linecap:round; stroke-linejoin:round; stroke-width:4; stroke-opacity:1; fill:none" points="178.867,526.647 197.764,526.647 "/>
<polyline clip-path="url(#clip920)" style="stroke:#000000; stroke-linecap:round; stroke-linejoin:round; stroke-width:4; stroke-opacity:1; fill:none" points="178.867,366.846 197.764,366.846 "/>
<polyline clip-path="url(#clip920)" style="stroke:#000000; stroke-linecap:round; stroke-linejoin:round; stroke-width:4; stroke-opacity:1; fill:none" points="178.867,207.045 197.764,207.045 "/>
<polyline clip-path="url(#clip920)" style="stroke:#000000; stroke-linecap:round; stroke-linejoin:round; stroke-width:4; stroke-opacity:1; fill:none" points="178.867,47.2441 197.764,47.2441 "/>
<path clip-path="url(#clip920)" d="M50.9921 686.899 L80.6679 686.899 L80.6679 690.834 L50.9921 690.834 L50.9921 686.899 Z" fill="#000000" fill-rule="nonzero" fill-opacity="1" /><path clip-path="url(#clip920)" d="M91.5706 699.793 L99.2095 699.793 L99.2095 673.427 L90.8993 675.094 L90.8993 670.835 L99.1632 669.168 L103.839 669.168 L103.839 699.793 L111.478 699.793 L111.478 703.728 L91.5706 703.728 L91.5706 699.793 Z" fill="#000000" fill-rule="nonzero" fill-opacity="1" /><path clip-path="url(#clip920)" d="M130.922 672.247 Q127.311 672.247 125.482 675.811 Q123.677 679.353 123.677 686.483 Q123.677 693.589 125.482 697.154 Q127.311 700.695 130.922 700.695 Q134.556 700.695 136.362 697.154 Q138.191 693.589 138.191 686.483 Q138.191 679.353 136.362 675.811 Q134.556 672.247 130.922 672.247 M130.922 668.543 Q136.732 668.543 139.788 673.149 Q142.867 677.733 142.867 686.483 Q142.867 695.209 139.788 699.816 Q136.732 704.399 130.922 704.399 Q125.112 704.399 122.033 699.816 Q118.978 695.209 118.978 686.483 Q118.978 677.733 122.033 673.149 Q125.112 668.543 130.922 668.543 Z" fill="#000000" fill-rule="nonzero" fill-opacity="1" /><path clip-path="url(#clip920)" d="M82.1494 527.098 L111.825 527.098 L111.825 531.033 L82.1494 531.033 L82.1494 527.098 Z" fill="#000000" fill-rule="nonzero" fill-opacity="1" /><path clip-path="url(#clip920)" d="M121.964 509.367 L140.32 509.367 L140.32 513.302 L126.246 513.302 L126.246 521.774 Q127.265 521.427 128.283 521.265 Q129.302 521.08 130.32 521.08 Q136.107 521.08 139.487 524.251 Q142.867 527.422 142.867 532.839 Q142.867 538.418 139.394 541.52 Q135.922 544.598 129.603 544.598 Q127.427 544.598 125.158 544.228 Q122.913 543.857 120.506 543.117 L120.506 538.418 Q122.589 539.552 124.811 540.108 Q127.033 540.663 129.51 540.663 Q133.515 540.663 135.853 538.557 Q138.191 536.45 138.191 532.839 Q138.191 529.228 135.853 527.121 Q133.515 525.015 129.51 525.015 Q127.635 525.015 125.76 525.432 Q123.908 525.848 121.964 526.728 L121.964 509.367 Z" fill="#000000" fill-rule="nonzero" fill-opacity="1" /><path clip-path="url(#clip920)" d="M130.922 352.645 Q127.311 352.645 125.482 356.209 Q123.677 359.751 123.677 366.881 Q123.677 373.987 125.482 377.552 Q127.311 381.094 130.922 381.094 Q134.556 381.094 136.362 377.552 Q138.191 373.987 138.191 366.881 Q138.191 359.751 136.362 356.209 Q134.556 352.645 130.922 352.645 M130.922 348.941 Q136.732 348.941 139.788 353.547 Q142.867 358.131 142.867 366.881 Q142.867 375.608 139.788 380.214 Q136.732 384.797 130.922 384.797 Q125.112 384.797 122.033 380.214 Q118.978 375.608 118.978 366.881 Q118.978 358.131 122.033 353.547 Q125.112 348.941 130.922 348.941 Z" fill="#000000" fill-rule="nonzero" fill-opacity="1" /><path clip-path="url(#clip920)" d="M121.964 189.765 L140.32 189.765 L140.32 193.7 L126.246 193.7 L126.246 202.172 Q127.265 201.825 128.283 201.663 Q129.302 201.478 130.32 201.478 Q136.107 201.478 139.487 204.649 Q142.867 207.82 142.867 213.237 Q142.867 218.816 139.394 221.918 Q135.922 224.996 129.603 224.996 Q127.427 224.996 125.158 224.626 Q122.913 224.256 120.506 223.515 L120.506 218.816 Q122.589 219.95 124.811 220.506 Q127.033 221.061 129.51 221.061 Q133.515 221.061 135.853 218.955 Q138.191 216.848 138.191 213.237 Q138.191 209.626 135.853 207.52 Q133.515 205.413 129.51 205.413 Q127.635 205.413 125.76 205.83 Q123.908 206.246 121.964 207.126 L121.964 189.765 Z" fill="#000000" fill-rule="nonzero" fill-opacity="1" /><path clip-path="url(#clip920)" d="M91.5706 60.5889 L99.2095 60.5889 L99.2095 34.2233 L90.8993 35.89 L90.8993 31.6308 L99.1632 29.9641 L103.839 29.9641 L103.839 60.5889 L111.478 60.5889 L111.478 64.5241 L91.5706 64.5241 L91.5706 60.5889 Z" fill="#000000" fill-rule="nonzero" fill-opacity="1" /><path clip-path="url(#clip920)" d="M130.922 33.0428 Q127.311 33.0428 125.482 36.6076 Q123.677 40.1492 123.677 47.2788 Q123.677 54.3853 125.482 57.9501 Q127.311 61.4917 130.922 61.4917 Q134.556 61.4917 136.362 57.9501 Q138.191 54.3853 138.191 47.2788 Q138.191 40.1492 136.362 36.6076 Q134.556 33.0428 130.922 33.0428 M130.922 29.3391 Q136.732 29.3391 139.788 33.9456 Q142.867 38.5289 142.867 47.2788 Q142.867 56.0056 139.788 60.6121 Q136.732 65.1954 130.922 65.1954 Q125.112 65.1954 122.033 60.6121 Q118.978 56.0056 118.978 47.2788 Q118.978 38.5289 122.033 33.9456 Q125.112 29.3391 130.922 29.3391 Z" fill="#000000" fill-rule="nonzero" fill-opacity="1" /><polyline clip-path="url(#clip922)" style="stroke:#009af9; stroke-linecap:round; stroke-linejoin:round; stroke-width:4; stroke-opacity:1; fill:none" points="240.392,334.886 242.445,334.709 244.498,334.755 246.55,357.893 248.603,358.702 250.656,353.973 252.709,393.309 254.762,393.245 256.815,368.624 258.868,369.673 260.921,380.269 262.974,378.536 265.027,387.773 267.079,388.227 269.132,391.681 271.185,352.838 273.238,343.001 275.291,341.937 277.344,344.04 279.397,345.517 281.45,396.546 283.503,397.1 285.555,391.085 287.608,390.914 289.661,387.582 291.714,388.372 293.767,351.774 295.82,322.719 297.873,329.727 299.926,339.609 301.979,336.917 304.031,360.946 306.084,353.806 308.137,297.767 310.19,396.557 312.243,415.448 314.296,415.694 316.349,422.853 318.402,414.177 320.455,413.659 322.507,413.391 324.56,413.396 326.613,415.129 328.666,342.776 330.719,344.259 332.772,344.283 334.825,343.601 336.878,333.481 338.931,333.436 340.984,317.06 343.036,319.179 345.089,320.518 347.142,345.561 349.195,356.728 351.248,356.02 353.301,337.962 355.354,335.478 357.407,324.543 359.46,324.516 361.512,337.37 363.565,337.289 365.618,330.662 367.671,425.128 369.724,424.042 371.777,423.995 373.83,423.815 375.883,418.203 377.936,418.269 379.988,361.92 382.041,350.565 384.094,349.511 386.147,349.213 388.2,348.986 390.253,366.097 392.306,366.163 394.359,365.549 396.412,364.998 398.464,368.039 400.517,371.507 402.57,371.3 404.623,371.482 406.676,371.236 408.729,369.387 410.782,369.732 412.835,367.115 414.888,365.563 416.94,348.645 418.993,347.76 421.046,321.712 423.099,321.702 425.152,351.636 427.205,365.902 429.258,378.307 431.311,389.95 433.364,390.147 435.417,400.471 437.469,399.892 439.522,401.432 441.575,405.043 443.628,405.6 445.681,406 447.734,400.063 449.787,399.95 451.84,400.407 453.893,397.678 455.945,402.778 457.998,393.917 460.051,415.545 462.104,419.704 464.157,419.581 466.21,419.849 468.263,419.799 470.316,419.865 472.369,416 474.421,415.911 476.474,417.328 478.527,417.338 480.58,416.026 482.633,418.04 484.686,407.773 486.739,393.537 488.792,403.957 490.845,416.241 492.897,424.744 494.95,424.356 497.003,415.601 499.056,406.545 501.109,406.398 503.162,407.163 505.215,405.425 507.268,395.173 509.321,391.688 511.374,406.637 513.426,386.656 515.479,385.273 517.532,413.698 519.585,411.916 521.638,405.03 523.691,408.662 525.744,415.743 527.797,414.399 529.85,420.276 531.902,424.547 533.955,425.368 536.008,424.864 538.061,418.947 540.114,413.987 542.167,414.043 544.22,412.998 546.273,379.242 548.326,357.023 550.378,333.04 552.431,336.67 554.484,342.331 556.537,341.852 558.59,343.488 560.643,357.438 562.696,372.78 564.749,375.662 566.802,376.557 568.854,364.753 570.907,365.983 572.96,359.658 575.013,358.818 577.066,358.589 579.119,367.636 581.172,370.69 583.225,367.864 585.278,368.272 587.331,388.234 589.383,388.281 591.436,392.493 593.489,350.98 595.542,351.025 597.595,370.735 599.648,370.362 601.701,354.183 603.754,353.605 605.807,352.311 607.859,354.382 609.912,354.396 611.965,355.312 614.018,355.428 616.071,363.426 618.124,364.681 620.177,365.511 622.23,364.525 624.283,364.949 626.335,365.027 628.388,364.712 630.441,364.968 632.494,365.318 634.547,367.067 636.6,367.306 638.653,369.59 640.706,371.962 642.759,384.036 644.811,366.172 646.864,370.541 648.917,367.734 650.97,383.544 653.023,383.783 655.076,387.287 657.129,360.122 659.182,351.489 661.235,351.367 663.288,354.545 665.34,352.945 667.393,358.116 669.446,357.86 671.499,358.737 673.552,358.689 675.605,357.821 677.658,372.119 679.711,376.335 681.764,425.31 683.816,428.634 685.869,427.003 687.922,422.793 689.975,416.049 692.028,399.116 694.081,406.325 696.134,406.753 698.187,407.412 700.24,406.176 702.292,393.565 704.345,402.587 706.398,431.194 708.451,430.825 710.504,447.14 712.557,462.617 714.61,463.461 716.663,459.614 718.716,457.559 720.768,453.151 722.821,450.965 724.874,439.007 726.927,580.234 728.98,582.272 731.033,582.128 733.086,557.765 735.139,595.805 737.192,525.456 739.245,300.562 741.297,297.71 743.35,294.116 745.403,307.644 747.456,308.235 749.509,309.051 751.562,309.105 753.615,309.91 755.668,309.948 757.721,318.508 759.773,329.289 761.826,325.131 763.879,361.322 765.932,366.271 767.985,368.266 770.038,364.183 772.091,361.173 774.144,360.952 776.197,360.23 778.249,360.18 780.302,360.521 782.355,351.174 784.408,350.214 786.461,361.338 788.514,360.538 790.567,360.024 792.62,368.824 794.673,370.814 796.725,369.934 798.778,369.922 800.831,370.008 802.884,371.439 804.937,377.656 806.99,352.039 809.043,352.408 811.096,349.877 813.149,348.998 815.202,317.511 817.254,317.375 819.307,344.672 821.36,414.934 823.413,412.383 825.466,447.404 827.519,449.073 829.572,448.848 831.625,377.778 833.678,410.659 835.73,410.954 837.783,411.7 839.836,411.578 841.889,410.163 843.942,415.029 845.995,411.753 848.048,410.514 850.101,407.543 852.154,408.688 854.206,407.471 856.259,380.238 858.312,375.337 860.365,373.134 862.418,370.176 864.471,340.335 866.524,346.173 868.577,346.195 870.63,358.376 872.682,390.017 874.735,404.184 876.788,408.662 878.841,408.659 880.894,406.628 882.947,427.945 885,398.016 887.053,394.129 889.106,395.446 891.159,431.608 893.211,431.964 895.264,431.175 897.317,438.378 899.37,440.693 901.423,453.449 903.476,451.024 905.529,455.781 907.582,451.987 909.635,401.243 911.687,383.937 913.74,403.977 915.793,403.833 917.846,396.757 919.899,396.615 921.952,443.208 924.005,315.408 926.058,312.371 928.111,316.498 930.163,314.845 932.216,313.509 934.269,315.345 936.322,310.946 938.375,317.184 940.428,323.184 942.481,420.849 944.534,417.833 946.587,383.383 948.639,213.905 950.692,239.432 952.745,246.521 954.798,254.505 956.851,337.535 958.904,365.795 960.957,435.805 963.01,380.571 965.063,386.88 967.116,387.085 969.168,392.29 971.221,394.34 973.274,395.103 975.327,393.764 977.38,417.547 979.433,396.332 981.486,396.463 983.539,394.582 985.592,395.195 987.644,400.892 989.697,400.871 991.75,404.304 993.803,402.598 995.856,402.05 997.909,399.414 999.962,417.214 1002.01,417.668 1004.07,417.758 1006.12,415.817 1008.17,414.041 1010.23,413.525 1012.28,437.994 1014.33,451.486 1016.38,386.78 1018.44,404.636 1020.49,395.782 1022.54,401.045 1024.6,408.636 1026.65,410.21 1028.7,240.787 1030.76,299.518 1032.81,282.315 1034.86,284.442 1036.91,284.602 1038.97,326.894 1041.02,353.833 1043.07,400.083 1045.13,373.023 1047.18,374.252 1049.23,376.027 1051.28,375.439 1053.34,367.171 1055.39,356.857 1057.44,353.484 1059.5,252.231 1061.55,260.351 1063.6,251.323 1065.65,244.793 1067.71,258.254 1069.76,250.986 1071.81,247.442 1073.87,247.055 1075.92,260.249 1077.97,255.664 1080.02,257.394 1082.08,264.377 1084.13,262.364 1086.18,220.181 1088.24,202.278 1090.29,147.454 1092.34,174.808 1094.39,177.35 1096.45,174.877 1098.5,248.681 1100.55,245.955 1102.61,250.811 1104.66,217.578 1106.71,205.001 1108.77,274.065 1110.82,254.252 1112.87,230.147 1114.92,246.167 1116.98,239.284 1119.03,233.911 1121.08,434.361 1123.14,508.657 1125.19,510.941 1127.24,508.565 1129.29,482.315 1131.35,471.29 1133.4,379.08 1135.45,397.893 1137.51,356.908 1139.56,355.077 1141.61,353.179 1143.66,354.31 1145.72,358.332 1147.77,358.402 1149.82,362.084 1151.88,382.23 1153.93,383.354 1155.98,370.806 1158.03,349.889 1160.09,354.835 1162.14,360.741 1164.19,364.957 1166.25,329.785 1168.3,290.575 1170.35,288.453 1172.4,297.126 1174.46,302.23 1176.51,307.764 1178.56,310.316 1180.62,359.724 1182.67,357.1 1184.72,364.274 1186.77,364.86 1188.83,363.538 1190.88,357.504 1192.93,294.802 1194.99,272.115 1197.04,271.476 1199.09,285.399 1201.15,318.232 1203.2,310.637 1205.25,341.417 1207.3,400.341 1209.36,420.458 1211.41,421.609 1213.46,421.429 1215.52,374.797 1217.57,362.053 1219.62,358.485 1221.67,379.126 1223.73,383.348 1225.78,445.994 1227.83,444.69 1229.89,430.348 1231.94,418.249 1233.99,403.226 1236.04,402.29 1238.1,391.412 1240.15,396.113 1242.2,422.775 1244.26,420.488 1246.31,419.518 1248.36,432.103 1250.41,431.272 1252.47,317.597 1254.52,337.298 1256.57,340.542 1258.63,339.613 1260.68,308.063 1262.73,298.086 1264.78,298.093 1266.84,169.388 1268.89,263.098 1270.94,283.359 1273,269.257 1275.05,268.544 1277.1,250.487 1279.16,248.576 1281.21,231.109 1283.26,231.478 1285.31,206.412 1287.37,199.233 1289.42,194.762 1291.47,195.721 1293.53,234.089 1295.58,280.454 1297.63,224.822 1299.68,221.36 1301.74,222.49 1303.79,223.606 1305.84,226.853 1307.9,184.191 1309.95,174.954 1312,210.099 1314.05,192.974 1316.11,272.305 1318.16,266.501 1320.21,400.75 1322.27,383.275 1324.32,382.329 1326.37,389.403 1328.42,389.11 1330.48,388.89 1332.53,395.698 1334.58,433.457 1336.64,400.318 1338.69,400.353 1340.74,405.693 1342.79,413.283 1344.85,300.111 1346.9,297.205 1348.95,399.453 1351.01,258.463 1353.06,249.695 1355.11,238.035 1357.16,238.512 1359.22,250.457 1361.27,247.221 1363.32,289.48 1365.38,284.185 1367.43,291.75 1369.48,292.223 1371.54,274.408 1373.59,232.332 1375.64,233.657 1377.69,217.059 1379.75,231.09 1381.8,230.572 1383.85,215.624 1385.91,188.662 1387.96,195.559 1390.01,193.816 1392.06,164.095 1394.12,178.752 1396.17,178.745 1398.22,179.761 1400.28,176.927 1402.33,203.716 1404.38,214.324 1406.43,215.145 1408.49,211.737 1410.54,218.428 1412.59,219.943 1414.65,221.051 1416.7,223.058 1418.75,214.167 1420.8,207.501 1422.86,299.275 1424.91,265.425 1426.96,254.937 1429.02,267.323 1431.07,221.58 1433.12,341.058 1435.17,417.998 1437.23,281.088 1439.28,293.47 1441.33,283.729 1443.39,233.59 1445.44,235.639 1447.49,246.706 1449.55,251.315 1451.6,330.26 1453.65,302.076 1455.7,323.966 1457.76,329.451 1459.81,301.29 1461.86,299.84 1463.92,358.401 1465.97,382.128 1468.02,454.149 1470.07,526.184 1472.13,506.429 1474.18,284.964 1476.23,276.893 1478.29,285.912 1480.34,404.559 1482.39,398.944 1484.44,398.843 1486.5,420.72 1488.55,406.283 1490.6,393.099 1492.66,405.332 1494.71,397.068 1496.76,397.154 1498.81,362.35 1500.87,326.925 1502.92,321.655 1504.97,326.797 1507.03,329.967 1509.08,383.164 1511.13,383.301 1513.18,380.883 1515.24,382.728 1517.29,240.435 1519.34,348.274 1521.4,369.393 1523.45,356.856 1525.5,407.246 1527.55,431.307 1529.61,427.985 1531.66,430.122 1533.71,416.5 1535.77,373.069 1537.82,376.897 1539.87,369.452 1541.93,378.903 1543.98,359.913 1546.03,205.462 1548.08,206.928 1550.14,207.193 1552.19,223.442 1554.24,310.448 1556.3,327.264 1558.35,336.083 1560.4,344.093 1562.45,336.479 1564.51,308.974 1566.56,314.915 1568.61,310.651 1570.67,507.741 1572.72,438.013 1574.77,485.353 1576.82,489.161 1578.88,488.229 1580.93,495.256 1582.98,469.361 1585.04,465.978 1587.09,475.563 1589.14,586.717 1591.19,550.287 1593.25,548.824 1595.3,548.257 1597.35,417.648 1599.41,416.474 1601.46,416.798 1603.51,408.251 1605.56,447.936 1607.62,444.48 1609.67,455.017 1611.72,491.536 1613.78,488.078 1615.83,480.255 1617.88,369.04 1619.94,300.891 1621.99,330.103 1624.04,343.166 1626.09,314.177 1628.15,313.784 1630.2,314.872 1632.25,298.891 1634.31,304.281 1636.36,298.715 1638.41,424.985 1640.46,450.912 1642.52,447.496 1644.57,380.303 1646.62,389.681 1648.68,397.748 1650.73,540.056 1652.78,588.892 1654.83,586.524 1656.89,544.937 1658.94,570.254 1660.99,553.371 1663.05,374.986 1665.1,420.395 1667.15,408.641 1669.2,547.945 1671.26,513.768 1673.31,513.933 1675.36,631.991 1677.42,746.407 1679.47,743.405 1681.52,752.749 1683.57,754.254 1685.63,847.903 1687.68,835.725 1689.73,874.368 1691.79,850.415 1693.84,700.281 1695.89,577.86 1697.94,573.314 1700,567.305 1702.05,485.607 1704.1,287.055 1706.16,72.8493 1708.21,86.2884 1710.26,104.726 1712.32,97.8348 1714.37,160.018 1716.42,84.6171 1718.47,400.456 1720.53,264.565 1722.58,309.145 1724.63,319.416 1726.69,353.522 1728.74,352.955 1730.79,485.851 1732.84,483.982 1734.9,472.435 1736.95,474.989 1739,495.739 1741.06,457.818 1743.11,457.669 1745.16,341.219 1747.21,343.036 1749.27,339.37 1751.32,370.022 1753.37,439.007 1755.43,186.354 1757.48,794.476 1759.53,799.569 1761.58,807.019 1763.64,806.743 1765.69,671.337 1767.74,679.23 1769.8,550.83 1771.85,547.586 1773.9,839.266 1775.95,839.381 1778.01,453.223 1780.06,446.685 1782.11,441.287 1784.17,443.878 1786.22,314.359 1788.27,321.887 1790.33,568.155 1792.38,665.743 1794.43,667.748 1796.48,662.562 1798.54,693.168 1800.59,685.905 1802.64,664.484 1804.7,582.632 1806.75,540.887 1808.8,537.487 1810.85,467.683 1812.91,464.048 1814.96,455.131 1817.01,472.39 1819.07,232.939 1821.12,253.84 1823.17,232.092 1825.22,236.353 1827.28,230.744 1829.33,242.126 1831.38,225.734 1833.44,209.402 1835.49,215.939 1837.54,217.933 1839.59,212.792 1841.65,217.535 1843.7,225.855 1845.75,226.098 1847.81,446.473 1849.86,344.974 1851.91,414.264 1853.96,660.692 1856.02,745.432 1858.07,389.695 1860.12,390.794 1862.18,318.511 1864.23,308.444 1866.28,311.126 1868.34,298.854 1870.39,298.804 1872.44,298.256 1874.49,290.344 1876.55,267.193 1878.6,198.384 1880.65,281.162 1882.71,337.465 1884.76,384.259 1886.81,418.813 1888.86,333.269 1890.92,328.687 1892.97,727.187 1895.02,628.087 1897.08,574.324 1899.13,634.517 1901.18,641.989 1903.23,645.068 1905.29,609.238 1907.34,635.02 1909.39,642.231 1911.45,667.891 1913.5,580.182 1915.55,582.851 1917.6,524.232 1919.66,482.553 1921.71,422.637 1923.76,419.7 1925.82,427.065 1927.87,393.821 1929.92,380.406 1931.97,372.18 1934.03,376.542 1936.08,423.187 1938.13,428 1940.19,438.009 1942.24,426.914 1944.29,416.881 1946.34,432.916 1948.4,432.572 1950.45,433.697 1952.5,418.64 1954.56,421.175 1956.61,413.94 1958.66,412.046 1960.72,407.531 1962.77,407.249 1964.82,410.944 1966.87,406.571 1968.93,426.393 1970.98,348.999 1973.03,348.126 1975.09,341.84 1977.14,291.453 1979.19,290.768 1981.24,264.839 1983.3,273.623 1985.35,290.916 1987.4,357.082 1989.46,359.435 1991.51,419.813 1993.56,418.704 1995.61,412.55 1997.67,413.174 1999.72,407.912 2001.77,436.165 2003.83,457.707 2005.88,536.886 2007.93,515.076 2009.98,355.537 2012.04,498.003 2014.09,496.987 2016.14,484.52 2018.2,503.874 2020.25,409.741 2022.3,374.697 2024.35,374.082 2026.41,405.124 2028.46,403.747 2030.51,393.899 2032.57,389.08 2034.62,166.838 2036.67,439.098 2038.73,378.481 2040.78,385.495 2042.83,355.797 2044.88,362.284 2046.94,352.146 2048.99,351.594 2051.04,350.029 2053.1,335.104 2055.15,263.001 2057.2,220.269 2059.25,125.326 2061.31,252.41 2063.36,286.114 2065.41,280.739 2067.47,174.822 2069.52,180.348 2071.57,170.079 2073.62,106.246 2075.68,181.102 2077.73,77.9487 2079.78,57.637 2081.84,52.5074 2083.89,206.125 2085.94,189.136 2087.99,192.337 2090.05,204.03 2092.1,68.3454 2094.15,92.1643 2096.21,103.858 2098.26,187.25 2100.31,62.5822 2102.36,32.7556 2104.42,-107.284 2106.47,102.922 2108.52,93.5176 2110.58,256.202 2112.63,246.675 2114.68,170.697 2116.73,220.151 2118.79,210.587 2120.84,172.077 2122.89,172.631 2124.95,495.359 2127,636.533 2129.05,710.944 2131.11,709.7 2133.16,421.06 2135.21,363.305 2137.26,348.376 2139.32,582.875 2141.37,574.226 2143.42,428.701 2145.48,419.935 2147.53,574.325 2149.58,567.135 2151.63,148.958 2153.69,352.43 2155.74,342.79 2157.79,245.692 2159.85,267.465 2161.9,285.243 2163.95,438.47 2166,423.771 2168.06,447.711 2170.11,515.572 2172.16,573.495 2174.22,573.024 2176.27,573.432 2178.32,560.887 2180.37,479.569 2182.43,507.603 2184.48,569.661 2186.53,521.869 2188.59,455.89 2190.64,462.367 2192.69,431.382 2194.74,739.687 2196.8,774.409 2198.85,769.294 2200.9,906.848 2202.96,420.542 2205.01,361.086 2207.06,365.227 2209.12,354.92 2211.17,415.316 2213.22,446.824 2215.27,328.957 2217.33,316.959 2219.38,264.225 2221.43,246.523 2223.49,253.493 2225.54,588.259 2227.59,587.707 2229.64,572.498 2231.7,541.187 2233.75,420.88 2235.8,417.515 2237.86,407.683 2239.91,387.443 2241.96,430.232 2244.01,427.05 2246.07,423.63 2248.12,381.904 2250.17,370.098 2252.23,366.589 2254.28,393.98 2256.33,282.987 2258.38,202.62 2260.44,205.138 2262.49,145.864 2264.54,155.072 2266.6,168.122 2268.65,169.762 2270.7,332.441 2272.75,347.483 2274.81,305.993 2276.86,361.914 2278.91,360.882 2280.97,343.986 2283.02,403.383 2285.07,405.26 2287.12,398.693 2289.18,201.897 2291.23,-14.2821 "/>
<path clip-path="url(#clip920)" d="M251.33 172.231 L548.024 172.231 L548.024 68.5509 L251.33 68.5509  Z" fill="#ffffff" fill-rule="evenodd" fill-opacity="1"/>
<polyline clip-path="url(#clip920)" style="stroke:#000000; stroke-linecap:round; stroke-linejoin:round; stroke-width:4; stroke-opacity:1; fill:none" points="251.33,172.231 548.024,172.231 548.024,68.5509 251.33,68.5509 251.33,172.231 "/>
<polyline clip-path="url(#clip920)" style="stroke:#009af9; stroke-linecap:round; stroke-linejoin:round; stroke-width:4; stroke-opacity:1; fill:none" points="275.484,120.391 420.41,120.391 "/>
<path clip-path="url(#clip920)" d="M444.564 103.111 L449.24 103.111 L449.24 133.736 L466.069 133.736 L466.069 137.671 L444.564 137.671 L444.564 103.111 Z" fill="#000000" fill-rule="nonzero" fill-opacity="1" /><path clip-path="url(#clip920)" d="M491.694 104.245 L491.694 108.805 Q489.032 107.532 486.67 106.907 Q484.309 106.282 482.11 106.282 Q478.291 106.282 476.208 107.764 Q474.147 109.245 474.147 111.977 Q474.147 114.268 475.513 115.449 Q476.902 116.606 480.745 117.324 L483.569 117.902 Q488.8 118.898 491.277 121.421 Q493.777 123.921 493.777 128.134 Q493.777 133.157 490.397 135.75 Q487.041 138.342 480.536 138.342 Q478.083 138.342 475.305 137.787 Q472.55 137.231 469.587 136.143 L469.587 131.328 Q472.434 132.926 475.166 133.736 Q477.897 134.546 480.536 134.546 Q484.541 134.546 486.717 132.972 Q488.893 131.398 488.893 128.481 Q488.893 125.935 487.319 124.5 Q485.768 123.064 482.203 122.347 L479.356 121.791 Q474.124 120.75 471.786 118.527 Q469.448 116.305 469.448 112.347 Q469.448 107.764 472.666 105.125 Q475.907 102.486 481.578 102.486 Q484.008 102.486 486.532 102.926 Q489.055 103.366 491.694 104.245 Z" fill="#000000" fill-rule="nonzero" fill-opacity="1" /><path clip-path="url(#clip920)" d="M521.786 104.245 L521.786 108.805 Q519.124 107.532 516.763 106.907 Q514.402 106.282 512.203 106.282 Q508.383 106.282 506.3 107.764 Q504.24 109.245 504.24 111.977 Q504.24 114.268 505.606 115.449 Q506.994 116.606 510.837 117.324 L513.661 117.902 Q518.893 118.898 521.369 121.421 Q523.869 123.921 523.869 128.134 Q523.869 133.157 520.49 135.75 Q517.133 138.342 510.629 138.342 Q508.175 138.342 505.397 137.787 Q502.643 137.231 499.68 136.143 L499.68 131.328 Q502.527 132.926 505.258 133.736 Q507.99 134.546 510.629 134.546 Q514.633 134.546 516.809 132.972 Q518.985 131.398 518.985 128.481 Q518.985 125.935 517.411 124.5 Q515.86 123.064 512.295 122.347 L509.448 121.791 Q504.217 120.75 501.879 118.527 Q499.541 116.305 499.541 112.347 Q499.541 107.764 502.758 105.125 Q505.999 102.486 511.67 102.486 Q514.101 102.486 516.624 102.926 Q519.147 103.366 521.786 104.245 Z" fill="#000000" fill-rule="nonzero" fill-opacity="1" /><path clip-path="url(#clip920)" d="M178.867 1486.45 L2352.76 1486.45 L2352.76 847.244 L178.867 847.244  Z" fill="#ffffff" fill-rule="evenodd" fill-opacity="1"/>
<defs>
  <clipPath id="clip923">
    <rect x="178" y="847" width="2175" height="640"/>
  </clipPath>
</defs>
<polyline clip-path="url(#clip923)" style="stroke:#000000; stroke-linecap:round; stroke-linejoin:round; stroke-width:2; stroke-opacity:0.1; fill:none" points="238.339,1486.45 238.339,847.244 "/>
<polyline clip-path="url(#clip923)" style="stroke:#000000; stroke-linecap:round; stroke-linejoin:round; stroke-width:2; stroke-opacity:0.1; fill:none" points="751.562,1486.45 751.562,847.244 "/>
<polyline clip-path="url(#clip923)" style="stroke:#000000; stroke-linecap:round; stroke-linejoin:round; stroke-width:2; stroke-opacity:0.1; fill:none" points="1264.78,1486.45 1264.78,847.244 "/>
<polyline clip-path="url(#clip923)" style="stroke:#000000; stroke-linecap:round; stroke-linejoin:round; stroke-width:2; stroke-opacity:0.1; fill:none" points="1778.01,1486.45 1778.01,847.244 "/>
<polyline clip-path="url(#clip923)" style="stroke:#000000; stroke-linecap:round; stroke-linejoin:round; stroke-width:2; stroke-opacity:0.1; fill:none" points="2291.23,1486.45 2291.23,847.244 "/>
<polyline clip-path="url(#clip923)" style="stroke:#000000; stroke-linecap:round; stroke-linejoin:round; stroke-width:2; stroke-opacity:0.1; fill:none" points="178.867,1486.45 2352.76,1486.45 "/>
<polyline clip-path="url(#clip923)" style="stroke:#000000; stroke-linecap:round; stroke-linejoin:round; stroke-width:2; stroke-opacity:0.1; fill:none" points="178.867,1326.65 2352.76,1326.65 "/>
<polyline clip-path="url(#clip923)" style="stroke:#000000; stroke-linecap:round; stroke-linejoin:round; stroke-width:2; stroke-opacity:0.1; fill:none" points="178.867,1166.85 2352.76,1166.85 "/>
<polyline clip-path="url(#clip923)" style="stroke:#000000; stroke-linecap:round; stroke-linejoin:round; stroke-width:2; stroke-opacity:0.1; fill:none" points="178.867,1007.05 2352.76,1007.05 "/>
<polyline clip-path="url(#clip923)" style="stroke:#000000; stroke-linecap:round; stroke-linejoin:round; stroke-width:2; stroke-opacity:0.1; fill:none" points="178.867,847.244 2352.76,847.244 "/>
<polyline clip-path="url(#clip920)" style="stroke:#000000; stroke-linecap:round; stroke-linejoin:round; stroke-width:4; stroke-opacity:1; fill:none" points="178.867,1486.45 2352.76,1486.45 "/>
<polyline clip-path="url(#clip920)" style="stroke:#000000; stroke-linecap:round; stroke-linejoin:round; stroke-width:4; stroke-opacity:1; fill:none" points="238.339,1486.45 238.339,1467.55 "/>
<polyline clip-path="url(#clip920)" style="stroke:#000000; stroke-linecap:round; stroke-linejoin:round; stroke-width:4; stroke-opacity:1; fill:none" points="751.562,1486.45 751.562,1467.55 "/>
<polyline clip-path="url(#clip920)" style="stroke:#000000; stroke-linecap:round; stroke-linejoin:round; stroke-width:4; stroke-opacity:1; fill:none" points="1264.78,1486.45 1264.78,1467.55 "/>
<polyline clip-path="url(#clip920)" style="stroke:#000000; stroke-linecap:round; stroke-linejoin:round; stroke-width:4; stroke-opacity:1; fill:none" points="1778.01,1486.45 1778.01,1467.55 "/>
<polyline clip-path="url(#clip920)" style="stroke:#000000; stroke-linecap:round; stroke-linejoin:round; stroke-width:4; stroke-opacity:1; fill:none" points="2291.23,1486.45 2291.23,1467.55 "/>
<path clip-path="url(#clip920)" d="M238.339 1517.37 Q234.728 1517.37 232.899 1520.93 Q231.094 1524.47 231.094 1531.6 Q231.094 1538.71 232.899 1542.27 Q234.728 1545.82 238.339 1545.82 Q241.973 1545.82 243.779 1542.27 Q245.607 1538.71 245.607 1531.6 Q245.607 1524.47 243.779 1520.93 Q241.973 1517.37 238.339 1517.37 M238.339 1513.66 Q244.149 1513.66 247.205 1518.27 Q250.283 1522.85 250.283 1531.6 Q250.283 1540.33 247.205 1544.94 Q244.149 1549.52 238.339 1549.52 Q232.529 1549.52 229.45 1544.94 Q226.395 1540.33 226.395 1531.6 Q226.395 1522.85 229.45 1518.27 Q232.529 1513.66 238.339 1513.66 Z" fill="#000000" fill-rule="nonzero" fill-opacity="1" /><path clip-path="url(#clip920)" d="M715.254 1544.91 L731.574 1544.91 L731.574 1548.85 L709.629 1548.85 L709.629 1544.91 Q712.291 1542.16 716.875 1537.53 Q721.481 1532.88 722.662 1531.53 Q724.907 1529.01 725.787 1527.27 Q726.689 1525.51 726.689 1523.82 Q726.689 1521.07 724.745 1519.33 Q722.824 1517.6 719.722 1517.6 Q717.523 1517.6 715.069 1518.36 Q712.638 1519.13 709.861 1520.68 L709.861 1515.95 Q712.685 1514.82 715.138 1514.24 Q717.592 1513.66 719.629 1513.66 Q725 1513.66 728.194 1516.35 Q731.388 1519.03 731.388 1523.52 Q731.388 1525.65 730.578 1527.57 Q729.791 1529.47 727.685 1532.07 Q727.106 1532.74 724.004 1535.95 Q720.902 1539.15 715.254 1544.91 Z" fill="#000000" fill-rule="nonzero" fill-opacity="1" /><path clip-path="url(#clip920)" d="M741.435 1514.29 L759.791 1514.29 L759.791 1518.22 L745.717 1518.22 L745.717 1526.7 Q746.736 1526.35 747.754 1526.19 Q748.773 1526 749.791 1526 Q755.578 1526 758.958 1529.17 Q762.337 1532.34 762.337 1537.76 Q762.337 1543.34 758.865 1546.44 Q755.393 1549.52 749.073 1549.52 Q746.898 1549.52 744.629 1549.15 Q742.384 1548.78 739.976 1548.04 L739.976 1543.34 Q742.06 1544.47 744.282 1545.03 Q746.504 1545.58 748.981 1545.58 Q752.985 1545.58 755.323 1543.48 Q757.661 1541.37 757.661 1537.76 Q757.661 1534.15 755.323 1532.04 Q752.985 1529.94 748.981 1529.94 Q747.106 1529.94 745.231 1530.35 Q743.379 1530.77 741.435 1531.65 L741.435 1514.29 Z" fill="#000000" fill-rule="nonzero" fill-opacity="1" /><path clip-path="url(#clip920)" d="M781.55 1517.37 Q777.939 1517.37 776.11 1520.93 Q774.305 1524.47 774.305 1531.6 Q774.305 1538.71 776.11 1542.27 Q777.939 1545.82 781.55 1545.82 Q785.184 1545.82 786.99 1542.27 Q788.819 1538.71 788.819 1531.6 Q788.819 1524.47 786.99 1520.93 Q785.184 1517.37 781.55 1517.37 M781.55 1513.66 Q787.36 1513.66 790.416 1518.27 Q793.495 1522.85 793.495 1531.6 Q793.495 1540.33 790.416 1544.94 Q787.36 1549.52 781.55 1549.52 Q775.74 1549.52 772.661 1544.94 Q769.606 1540.33 769.606 1531.6 Q769.606 1522.85 772.661 1518.27 Q775.74 1513.66 781.55 1513.66 Z" fill="#000000" fill-rule="nonzero" fill-opacity="1" /><path clip-path="url(#clip920)" d="M1224.4 1514.29 L1242.76 1514.29 L1242.76 1518.22 L1228.69 1518.22 L1228.69 1526.7 Q1229.7 1526.35 1230.72 1526.19 Q1231.74 1526 1232.76 1526 Q1238.55 1526 1241.93 1529.17 Q1245.31 1532.34 1245.31 1537.76 Q1245.31 1543.34 1241.83 1546.44 Q1238.36 1549.52 1232.04 1549.52 Q1229.87 1549.52 1227.6 1549.15 Q1225.35 1548.78 1222.94 1548.04 L1222.94 1543.34 Q1225.03 1544.47 1227.25 1545.03 Q1229.47 1545.58 1231.95 1545.58 Q1235.95 1545.58 1238.29 1543.48 Q1240.63 1541.37 1240.63 1537.76 Q1240.63 1534.15 1238.29 1532.04 Q1235.95 1529.94 1231.95 1529.94 Q1230.07 1529.94 1228.2 1530.35 Q1226.35 1530.77 1224.4 1531.65 L1224.4 1514.29 Z" fill="#000000" fill-rule="nonzero" fill-opacity="1" /><path clip-path="url(#clip920)" d="M1264.52 1517.37 Q1260.91 1517.37 1259.08 1520.93 Q1257.27 1524.47 1257.27 1531.6 Q1257.27 1538.71 1259.08 1542.27 Q1260.91 1545.82 1264.52 1545.82 Q1268.15 1545.82 1269.96 1542.27 Q1271.79 1538.71 1271.79 1531.6 Q1271.79 1524.47 1269.96 1520.93 Q1268.15 1517.37 1264.52 1517.37 M1264.52 1513.66 Q1270.33 1513.66 1273.38 1518.27 Q1276.46 1522.85 1276.46 1531.6 Q1276.46 1540.33 1273.38 1544.94 Q1270.33 1549.52 1264.52 1549.52 Q1258.71 1549.52 1255.63 1544.94 Q1252.57 1540.33 1252.57 1531.6 Q1252.57 1522.85 1255.63 1518.27 Q1258.71 1513.66 1264.52 1513.66 Z" fill="#000000" fill-rule="nonzero" fill-opacity="1" /><path clip-path="url(#clip920)" d="M1294.68 1517.37 Q1291.07 1517.37 1289.24 1520.93 Q1287.44 1524.47 1287.44 1531.6 Q1287.44 1538.71 1289.24 1542.27 Q1291.07 1545.82 1294.68 1545.82 Q1298.31 1545.82 1300.12 1542.27 Q1301.95 1538.71 1301.95 1531.6 Q1301.95 1524.47 1300.12 1520.93 Q1298.31 1517.37 1294.68 1517.37 M1294.68 1513.66 Q1300.49 1513.66 1303.55 1518.27 Q1306.62 1522.85 1306.62 1531.6 Q1306.62 1540.33 1303.55 1544.94 Q1300.49 1549.52 1294.68 1549.52 Q1288.87 1549.52 1285.79 1544.94 Q1282.74 1540.33 1282.74 1531.6 Q1282.74 1522.85 1285.79 1518.27 Q1288.87 1513.66 1294.68 1513.66 Z" fill="#000000" fill-rule="nonzero" fill-opacity="1" /><path clip-path="url(#clip920)" d="M1736.28 1514.29 L1758.51 1514.29 L1758.51 1516.28 L1745.96 1548.85 L1741.08 1548.85 L1752.88 1518.22 L1736.28 1518.22 L1736.28 1514.29 Z" fill="#000000" fill-rule="nonzero" fill-opacity="1" /><path clip-path="url(#clip920)" d="M1767.67 1514.29 L1786.03 1514.29 L1786.03 1518.22 L1771.95 1518.22 L1771.95 1526.7 Q1772.97 1526.35 1773.99 1526.19 Q1775.01 1526 1776.03 1526 Q1781.82 1526 1785.2 1529.17 Q1788.57 1532.34 1788.57 1537.76 Q1788.57 1543.34 1785.1 1546.44 Q1781.63 1549.52 1775.31 1549.52 Q1773.14 1549.52 1770.87 1549.15 Q1768.62 1548.78 1766.21 1548.04 L1766.21 1543.34 Q1768.3 1544.47 1770.52 1545.03 Q1772.74 1545.58 1775.22 1545.58 Q1779.22 1545.58 1781.56 1543.48 Q1783.9 1541.37 1783.9 1537.76 Q1783.9 1534.15 1781.56 1532.04 Q1779.22 1529.94 1775.22 1529.94 Q1773.34 1529.94 1771.47 1530.35 Q1769.62 1530.77 1767.67 1531.65 L1767.67 1514.29 Z" fill="#000000" fill-rule="nonzero" fill-opacity="1" /><path clip-path="url(#clip920)" d="M1807.79 1517.37 Q1804.18 1517.37 1802.35 1520.93 Q1800.54 1524.47 1800.54 1531.6 Q1800.54 1538.71 1802.35 1542.27 Q1804.18 1545.82 1807.79 1545.82 Q1811.42 1545.82 1813.23 1542.27 Q1815.06 1538.71 1815.06 1531.6 Q1815.06 1524.47 1813.23 1520.93 Q1811.42 1517.37 1807.79 1517.37 M1807.79 1513.66 Q1813.6 1513.66 1816.65 1518.27 Q1819.73 1522.85 1819.73 1531.6 Q1819.73 1540.33 1816.65 1544.94 Q1813.6 1549.52 1807.79 1549.52 Q1801.98 1549.52 1798.9 1544.94 Q1795.84 1540.33 1795.84 1531.6 Q1795.84 1522.85 1798.9 1518.27 Q1801.98 1513.66 1807.79 1513.66 Z" fill="#000000" fill-rule="nonzero" fill-opacity="1" /><path clip-path="url(#clip920)" d="M2235.76 1544.91 L2243.4 1544.91 L2243.4 1518.55 L2235.09 1520.21 L2235.09 1515.95 L2243.35 1514.29 L2248.02 1514.29 L2248.02 1544.91 L2255.66 1544.91 L2255.66 1548.85 L2235.76 1548.85 L2235.76 1544.91 Z" fill="#000000" fill-rule="nonzero" fill-opacity="1" /><path clip-path="url(#clip920)" d="M2275.11 1517.37 Q2271.5 1517.37 2269.67 1520.93 Q2267.86 1524.47 2267.86 1531.6 Q2267.86 1538.71 2269.67 1542.27 Q2271.5 1545.82 2275.11 1545.82 Q2278.74 1545.82 2280.55 1542.27 Q2282.38 1538.71 2282.38 1531.6 Q2282.38 1524.47 2280.55 1520.93 Q2278.74 1517.37 2275.11 1517.37 M2275.11 1513.66 Q2280.92 1513.66 2283.97 1518.27 Q2287.05 1522.85 2287.05 1531.6 Q2287.05 1540.33 2283.97 1544.94 Q2280.92 1549.52 2275.11 1549.52 Q2269.3 1549.52 2266.22 1544.94 Q2263.16 1540.33 2263.16 1531.6 Q2263.16 1522.85 2266.22 1518.27 Q2269.3 1513.66 2275.11 1513.66 Z" fill="#000000" fill-rule="nonzero" fill-opacity="1" /><path clip-path="url(#clip920)" d="M2305.27 1517.37 Q2301.66 1517.37 2299.83 1520.93 Q2298.02 1524.47 2298.02 1531.6 Q2298.02 1538.71 2299.83 1542.27 Q2301.66 1545.82 2305.27 1545.82 Q2308.9 1545.82 2310.71 1542.27 Q2312.54 1538.71 2312.54 1531.6 Q2312.54 1524.47 2310.71 1520.93 Q2308.9 1517.37 2305.27 1517.37 M2305.27 1513.66 Q2311.08 1513.66 2314.14 1518.27 Q2317.21 1522.85 2317.21 1531.6 Q2317.21 1540.33 2314.14 1544.94 Q2311.08 1549.52 2305.27 1549.52 Q2299.46 1549.52 2296.38 1544.94 Q2293.33 1540.33 2293.33 1531.6 Q2293.33 1522.85 2296.38 1518.27 Q2299.46 1513.66 2305.27 1513.66 Z" fill="#000000" fill-rule="nonzero" fill-opacity="1" /><path clip-path="url(#clip920)" d="M2335.43 1517.37 Q2331.82 1517.37 2329.99 1520.93 Q2328.19 1524.47 2328.19 1531.6 Q2328.19 1538.71 2329.99 1542.27 Q2331.82 1545.82 2335.43 1545.82 Q2339.07 1545.82 2340.87 1542.27 Q2342.7 1538.71 2342.7 1531.6 Q2342.7 1524.47 2340.87 1520.93 Q2339.07 1517.37 2335.43 1517.37 M2335.43 1513.66 Q2341.24 1513.66 2344.3 1518.27 Q2347.38 1522.85 2347.38 1531.6 Q2347.38 1540.33 2344.3 1544.94 Q2341.24 1549.52 2335.43 1549.52 Q2329.62 1549.52 2326.54 1544.94 Q2323.49 1540.33 2323.49 1531.6 Q2323.49 1522.85 2326.54 1518.27 Q2329.62 1513.66 2335.43 1513.66 Z" fill="#000000" fill-rule="nonzero" fill-opacity="1" /><polyline clip-path="url(#clip920)" style="stroke:#000000; stroke-linecap:round; stroke-linejoin:round; stroke-width:4; stroke-opacity:1; fill:none" points="178.867,1486.45 178.867,847.244 "/>
<polyline clip-path="url(#clip920)" style="stroke:#000000; stroke-linecap:round; stroke-linejoin:round; stroke-width:4; stroke-opacity:1; fill:none" points="178.867,1486.45 197.764,1486.45 "/>
<polyline clip-path="url(#clip920)" style="stroke:#000000; stroke-linecap:round; stroke-linejoin:round; stroke-width:4; stroke-opacity:1; fill:none" points="178.867,1326.65 197.764,1326.65 "/>
<polyline clip-path="url(#clip920)" style="stroke:#000000; stroke-linecap:round; stroke-linejoin:round; stroke-width:4; stroke-opacity:1; fill:none" points="178.867,1166.85 197.764,1166.85 "/>
<polyline clip-path="url(#clip920)" style="stroke:#000000; stroke-linecap:round; stroke-linejoin:round; stroke-width:4; stroke-opacity:1; fill:none" points="178.867,1007.05 197.764,1007.05 "/>
<polyline clip-path="url(#clip920)" style="stroke:#000000; stroke-linecap:round; stroke-linejoin:round; stroke-width:4; stroke-opacity:1; fill:none" points="178.867,847.244 197.764,847.244 "/>
<path clip-path="url(#clip920)" d="M50.9921 1486.9 L80.6679 1486.9 L80.6679 1490.83 L50.9921 1490.83 L50.9921 1486.9 Z" fill="#000000" fill-rule="nonzero" fill-opacity="1" /><path clip-path="url(#clip920)" d="M91.5706 1499.79 L99.2095 1499.79 L99.2095 1473.43 L90.8993 1475.09 L90.8993 1470.83 L99.1632 1469.17 L103.839 1469.17 L103.839 1499.79 L111.478 1499.79 L111.478 1503.73 L91.5706 1503.73 L91.5706 1499.79 Z" fill="#000000" fill-rule="nonzero" fill-opacity="1" /><path clip-path="url(#clip920)" d="M130.922 1472.25 Q127.311 1472.25 125.482 1475.81 Q123.677 1479.35 123.677 1486.48 Q123.677 1493.59 125.482 1497.15 Q127.311 1500.7 130.922 1500.7 Q134.556 1500.7 136.362 1497.15 Q138.191 1493.59 138.191 1486.48 Q138.191 1479.35 136.362 1475.81 Q134.556 1472.25 130.922 1472.25 M130.922 1468.54 Q136.732 1468.54 139.788 1473.15 Q142.867 1477.73 142.867 1486.48 Q142.867 1495.21 139.788 1499.82 Q136.732 1504.4 130.922 1504.4 Q125.112 1504.4 122.033 1499.82 Q118.978 1495.21 118.978 1486.48 Q118.978 1477.73 122.033 1473.15 Q125.112 1468.54 130.922 1468.54 Z" fill="#000000" fill-rule="nonzero" fill-opacity="1" /><path clip-path="url(#clip920)" d="M82.1494 1327.1 L111.825 1327.1 L111.825 1331.03 L82.1494 1331.03 L82.1494 1327.1 Z" fill="#000000" fill-rule="nonzero" fill-opacity="1" /><path clip-path="url(#clip920)" d="M121.964 1309.37 L140.32 1309.37 L140.32 1313.3 L126.246 1313.3 L126.246 1321.77 Q127.265 1321.43 128.283 1321.27 Q129.302 1321.08 130.32 1321.08 Q136.107 1321.08 139.487 1324.25 Q142.867 1327.42 142.867 1332.84 Q142.867 1338.42 139.394 1341.52 Q135.922 1344.6 129.603 1344.6 Q127.427 1344.6 125.158 1344.23 Q122.913 1343.86 120.506 1343.12 L120.506 1338.42 Q122.589 1339.55 124.811 1340.11 Q127.033 1340.66 129.51 1340.66 Q133.515 1340.66 135.853 1338.56 Q138.191 1336.45 138.191 1332.84 Q138.191 1329.23 135.853 1327.12 Q133.515 1325.01 129.51 1325.01 Q127.635 1325.01 125.76 1325.43 Q123.908 1325.85 121.964 1326.73 L121.964 1309.37 Z" fill="#000000" fill-rule="nonzero" fill-opacity="1" /><path clip-path="url(#clip920)" d="M130.922 1152.64 Q127.311 1152.64 125.482 1156.21 Q123.677 1159.75 123.677 1166.88 Q123.677 1173.99 125.482 1177.55 Q127.311 1181.09 130.922 1181.09 Q134.556 1181.09 136.362 1177.55 Q138.191 1173.99 138.191 1166.88 Q138.191 1159.75 136.362 1156.21 Q134.556 1152.64 130.922 1152.64 M130.922 1148.94 Q136.732 1148.94 139.788 1153.55 Q142.867 1158.13 142.867 1166.88 Q142.867 1175.61 139.788 1180.21 Q136.732 1184.8 130.922 1184.8 Q125.112 1184.8 122.033 1180.21 Q118.978 1175.61 118.978 1166.88 Q118.978 1158.13 122.033 1153.55 Q125.112 1148.94 130.922 1148.94 Z" fill="#000000" fill-rule="nonzero" fill-opacity="1" /><path clip-path="url(#clip920)" d="M121.964 989.765 L140.32 989.765 L140.32 993.7 L126.246 993.7 L126.246 1002.17 Q127.265 1001.83 128.283 1001.66 Q129.302 1001.48 130.32 1001.48 Q136.107 1001.48 139.487 1004.65 Q142.867 1007.82 142.867 1013.24 Q142.867 1018.82 139.394 1021.92 Q135.922 1025 129.603 1025 Q127.427 1025 125.158 1024.63 Q122.913 1024.26 120.506 1023.51 L120.506 1018.82 Q122.589 1019.95 124.811 1020.51 Q127.033 1021.06 129.51 1021.06 Q133.515 1021.06 135.853 1018.95 Q138.191 1016.85 138.191 1013.24 Q138.191 1009.63 135.853 1007.52 Q133.515 1005.41 129.51 1005.41 Q127.635 1005.41 125.76 1005.83 Q123.908 1006.25 121.964 1007.13 L121.964 989.765 Z" fill="#000000" fill-rule="nonzero" fill-opacity="1" /><path clip-path="url(#clip920)" d="M91.5706 860.589 L99.2095 860.589 L99.2095 834.223 L90.8993 835.89 L90.8993 831.631 L99.1632 829.964 L103.839 829.964 L103.839 860.589 L111.478 860.589 L111.478 864.524 L91.5706 864.524 L91.5706 860.589 Z" fill="#000000" fill-rule="nonzero" fill-opacity="1" /><path clip-path="url(#clip920)" d="M130.922 833.043 Q127.311 833.043 125.482 836.608 Q123.677 840.149 123.677 847.279 Q123.677 854.385 125.482 857.95 Q127.311 861.492 130.922 861.492 Q134.556 861.492 136.362 857.95 Q138.191 854.385 138.191 847.279 Q138.191 840.149 136.362 836.608 Q134.556 833.043 130.922 833.043 M130.922 829.339 Q136.732 829.339 139.788 833.946 Q142.867 838.529 142.867 847.279 Q142.867 856.006 139.788 860.612 Q136.732 865.195 130.922 865.195 Q125.112 865.195 122.033 860.612 Q118.978 856.006 118.978 847.279 Q118.978 838.529 122.033 833.946 Q125.112 829.339 130.922 829.339 Z" fill="#000000" fill-rule="nonzero" fill-opacity="1" /><polyline clip-path="url(#clip923)" style="stroke:#009af9; stroke-linecap:round; stroke-linejoin:round; stroke-width:4; stroke-opacity:1; fill:none" points="240.392,1134.89 242.445,1133.99 244.498,1141.54 246.55,1203.41 248.603,1173.78 250.656,1171.98 252.709,1165.88 254.762,1143.83 256.815,1184.66 258.868,1318.02 260.921,971.418 262.974,1265.91 265.027,1141.02 267.079,1157.37 269.132,1174.63 271.185,1230.41 273.238,1147.82 275.291,1106.31 277.344,1206.44 279.397,1157.54 281.45,1151.51 283.503,1178.92 285.555,1457.11 287.608,876.631 289.661,934.857 291.714,1236.69 293.767,1132.75 295.82,1205.21 297.873,1192.08 299.926,1156.03 301.979,1177.16 304.031,1045.34 306.084,1089.13 308.137,1095.3 310.19,1143.88 312.243,1192.78 314.296,1222.71 316.349,1271.95 318.402,1103.68 320.455,1075.72 322.507,1180.22 324.56,1092.01 326.613,1160.9 328.666,1158.84 330.719,1183.48 332.772,1191.38 334.825,1134.02 336.878,1224.44 338.931,1122.51 340.984,1165.55 343.036,1176.68 345.089,1150.04 347.142,1206.86 349.195,1148.29 351.248,1249.45 353.301,1187.92 355.354,1086.13 357.407,1163.01 359.46,1189.24 361.512,1159.47 363.565,1160.85 365.618,1137.76 367.671,1161.94 369.724,1194.96 371.777,1195.23 373.83,1193.28 375.883,1263.81 377.936,1083.05 379.988,1103.34 382.041,1130.12 384.094,1086.02 386.147,1190.95 388.2,1225.6 390.253,1264.95 392.306,1221.67 394.359,1195.41 396.412,1159.43 398.464,1143.33 400.517,1153.06 402.57,1195.04 404.623,1136.45 406.676,1110.76 408.729,1177.81 410.782,1156.7 412.835,1160.02 414.888,1133.99 416.94,1182.41 418.993,1176.78 421.046,1202.29 423.099,1210.43 425.152,1184.94 427.205,1175.86 429.258,1136.42 431.311,1162.29 433.364,1148.79 435.417,1194.31 437.469,1175.85 439.522,1154.36 441.575,1213.57 443.628,1126.92 445.681,1216.27 447.734,1162.47 449.787,1156.75 451.84,1197.95 453.893,1173.44 455.945,1172.37 457.998,1193.1 460.051,1375.93 462.104,1645.91 464.157,946.114 466.21,1075.17 468.263,1221.09 470.316,1137.85 472.369,1220.06 474.421,1075.65 476.474,1222.89 478.527,1045.24 480.58,1155.11 482.633,1149.67 484.686,1186.96 486.739,1291.49 488.792,1088.17 490.845,1182.08 492.897,1183.24 494.95,1063.23 497.003,1187.25 499.056,1150.83 501.109,1023.24 503.162,1013.9 505.215,1099.84 507.268,1095.38 509.321,1119.08 511.374,1218.86 513.426,1226.95 515.479,1216.76 517.532,1169.78 519.585,1146.52 521.638,1166.41 523.691,1125.76 525.744,1194.87 527.797,986.883 529.85,1101.69 531.902,1049.86 533.955,1151.15 536.008,1201.02 538.061,1140.54 540.114,1121.4 542.167,1087.11 544.22,1159.14 546.273,1191.33 548.326,1155.12 550.378,1183.84 552.431,1169.24 554.484,1147.67 556.537,1128.03 558.59,1182.12 560.643,1117.12 562.696,1173.37 564.749,1176.71 566.802,1163.51 568.854,1196.84 570.907,1141.85 572.96,1242.61 575.013,1161.13 577.066,1130.24 579.119,1179.58 581.172,1154.19 583.225,1231.47 585.278,1130.83 587.331,1168.22 589.383,1174.68 591.436,1131.44 593.489,1232.03 595.542,1163.59 597.595,1148.02 599.648,1232.46 601.701,1183.34 603.754,1135.06 605.807,1404.34 607.859,1038.36 609.912,1022.19 611.965,1133.36 614.018,1153.83 616.071,1180.34 618.124,1175.8 620.177,1198.68 622.23,1090.94 624.283,1138.05 626.335,1224.88 628.388,1295.81 630.441,849.214 632.494,2005.99 634.547,1517.9 636.6,1162.42 638.653,987.834 640.706,1308.91 642.759,55.3717 644.811,873.87 646.864,1111.31 648.917,1024.8 650.97,1103.6 653.023,1844.27 655.076,1382.54 657.129,1178 659.182,1147.98 661.235,1138.96 663.288,1071.61 665.34,-204.72 667.393,-3907.9 669.446,3187.72 671.499,8571.89 673.552,3704.93 675.605,432.497 677.658,1151.45 679.711,1175.35 681.764,1138.75 683.816,1186.34 685.869,1241.98 687.922,1018.89 689.975,1181.76 692.028,1169.19 694.081,1117.01 696.134,1156.97 698.187,1171.62 700.24,1150.47 702.292,1107.53 704.345,1007.26 706.398,1188.22 708.451,1160.62 710.504,1094.56 712.557,1278.1 714.61,1213.76 716.663,1318.35 718.716,1478.81 720.768,714.393 722.821,1278.03 724.874,1105.89 726.927,1159.33 728.98,1110.97 731.033,1056.85 733.086,1179.31 735.139,1195.86 737.192,1173.41 739.245,1197.83 741.297,1148.34 743.35,1228.81 745.403,1215.89 747.456,1180.25 749.509,1152.9 751.562,1140.63 753.615,1200.07 755.668,1120.68 757.721,1219.21 759.773,1229.54 761.826,1203.67 763.879,1229.42 765.932,1198.96 767.985,1279.7 770.038,1182.77 772.091,1161.1 774.144,1014.33 776.197,583.711 778.249,1163.37 780.302,1107.29 782.355,1088.07 784.408,1181.65 786.461,1104.36 788.514,1188.23 790.567,1163.66 792.62,1183.54 794.673,1110.71 796.725,1171.8 798.778,1158.61 800.831,1209.4 802.884,1182.13 804.937,1160.7 806.99,1147.14 809.043,1190.36 811.096,1204.48 813.149,1202.29 815.202,1203.07 817.254,1180.08 819.307,1188.91 821.36,1174.28 823.413,1169.94 825.466,1168.59 827.519,1174.6 829.572,1139.2 831.625,1145.86 833.678,1219.97 835.73,1101.66 837.783,1151.49 839.836,1167.67 841.889,1250.04 843.942,1060.94 845.995,1156.3 848.048,1182.39 850.101,1190.22 852.154,1183.17 854.206,1193.47 856.259,1122.67 858.312,1097.7 860.365,2002.66 862.418,979.086 864.471,1693.49 866.524,1182.81 868.577,1142.65 870.63,1190.01 872.682,1192.82 874.735,1243.12 876.788,1093.34 878.841,1128.89 880.894,1102.83 882.947,1214.63 885,1147.92 887.053,1129.28 889.106,1184.62 891.159,1181.55 893.211,1166.84 895.264,1240.71 897.317,1194.23 899.37,1213.12 901.423,1146.08 903.476,1147.62 905.529,1182.19 907.582,1159.82 909.635,1186.38 911.687,1232.78 913.74,1163.17 915.793,1107.85 917.846,1029.56 919.899,1245.88 921.952,993.564 924.005,1042.71 926.058,1000.42 928.111,1262.15 930.163,1148.31 932.216,1225.45 934.269,1239.29 936.322,1266.99 938.375,1073.78 940.428,1079.3 942.481,1101.46 944.534,1076.56 946.587,1133.44 948.639,2621.9 950.692,-25.2457 952.745,610.986 954.798,1558.07 956.851,1300.32 958.904,1216.52 960.957,1286.44 963.01,1208.01 965.063,1203.68 967.116,1081.69 969.168,1162.96 971.221,1124 973.274,1123.39 975.327,1164.1 977.38,1164.65 979.433,1179.64 981.486,1144.27 983.539,1120.11 985.592,1140.9 987.644,1212.81 989.697,1150.22 991.75,1079.49 993.803,1146.99 995.856,1020.14 997.909,1163.66 999.962,1142.93 1002.01,1231.22 1004.07,1216.47 1006.12,1250.82 1008.17,1201.44 1010.23,1070.45 1012.28,1196.28 1014.33,1155.84 1016.38,1164.82 1018.44,1170.2 1020.49,1175.13 1022.54,1181.21 1024.6,1152.64 1026.65,1163.13 1028.7,1148.53 1030.76,1163.21 1032.81,1146.49 1034.86,1177.09 1036.91,1189.88 1038.97,1146.68 1041.02,1151.11 1043.07,1098 1045.13,1313.36 1047.18,1075.38 1049.23,1203 1051.28,1135.78 1053.34,1174.58 1055.39,1088.04 1057.44,1040.63 1059.5,1163.39 1061.55,1164.65 1063.6,1302.57 1065.65,1399.16 1067.71,1367.01 1069.76,5042.5 1071.81,5327.42 1073.87,-955.105 1075.92,1540.23 1077.97,922.262 1080.02,909.64 1082.08,941.345 1084.13,1099.34 1086.18,1472.55 1088.24,987.768 1090.29,1131.2 1092.34,1161.12 1094.39,1161.33 1096.45,1176.58 1098.5,1133.34 1100.55,1151.66 1102.61,1178.52 1104.66,1100.59 1106.71,1207.84 1108.77,1135.74 1110.82,1111.24 1112.87,1130.76 1114.92,661.439 1116.98,775.916 1119.03,1515.65 1121.08,935.088 1123.14,1397.62 1125.19,1113.17 1127.24,1227.05 1129.29,1097.51 1131.35,1327.45 1133.4,1163.22 1135.45,1185.23 1137.51,1185.67 1139.56,1093.44 1141.61,1188.36 1143.66,1111.2 1145.72,1207.37 1147.77,1231.86 1149.82,1145.86 1151.88,1188.84 1153.93,1239.25 1155.98,1176.97 1158.03,1066.47 1160.09,1076.1 1162.14,1313.23 1164.19,879.544 1166.25,1436.52 1168.3,1038.87 1170.35,1007.3 1172.4,1156.12 1174.46,1153.75 1176.51,1174.43 1178.56,1173.59 1180.62,1175.14 1182.67,1191.86 1184.72,1242.68 1186.77,1140.88 1188.83,1172.75 1190.88,1168.17 1192.93,1099.19 1194.99,852.57 1197.04,2260.48 1199.09,429.094 1201.15,1285.32 1203.2,1577.97 1205.25,1179.82 1207.3,1184.09 1209.36,980.903 1211.41,1197.2 1213.46,1166.32 1215.52,1157.16 1217.57,1171.28 1219.62,1152.6 1221.67,1177.24 1223.73,1094.57 1225.78,1121.14 1227.83,1214.76 1229.89,1112.12 1231.94,1224.46 1233.99,1100.68 1236.04,1094.5 1238.1,1107.95 1240.15,1103.04 1242.2,1135.85 1244.26,1122.32 1246.31,1117.24 1248.36,1189.92 1250.41,1166.33 1252.47,1147.17 1254.52,1202.54 1256.57,1144.13 1258.63,1195.88 1260.68,1178.52 1262.73,1176.06 1264.78,1067.69 1266.84,1173.88 1268.89,1148.28 1270.94,1147.98 1273,1144.15 1275.05,1179.11 1277.1,727.461 1279.16,1095.53 1281.21,1224 1283.26,1275.97 1285.31,1571.21 1287.37,2239.27 1289.42,1911.73 1291.47,1201.58 1293.53,1248.02 1295.58,1203.98 1297.63,1232.92 1299.68,1219.56 1301.74,1283.68 1303.79,1243.41 1305.84,903.457 1307.9,1244.96 1309.95,783.787 1312,1100.41 1314.05,1101.08 1316.11,1089.56 1318.16,1129.89 1320.21,1143.63 1322.27,1166.49 1324.32,1153.66 1326.37,1164.2 1328.42,713.489 1330.48,2999.98 1332.53,1149.09 1334.58,1215.5 1336.64,1030.54 1338.69,1127.93 1340.74,1107.47 1342.79,1078.84 1344.85,1218.41 1346.9,999.786 1348.95,1017.89 1351.01,822.273 1353.06,1177.98 1355.11,933.417 1357.16,1000.44 1359.22,1237.02 1361.27,1235.64 1363.32,1968.03 1365.38,1381.66 1367.43,1151.99 1369.48,1142.4 1371.54,1208.5 1373.59,1136.11 1375.64,1189.81 1377.69,1149.85 1379.75,1185.19 1381.8,1091.72 1383.85,1149.66 1385.91,1154.02 1387.96,1210.68 1390.01,961.215 1392.06,839.142 1394.12,1482.82 1396.17,1753.16 1398.22,612.15 1400.28,1076.11 1402.33,1302.85 1404.38,1397.34 1406.43,873.615 1408.49,1108.21 1410.54,1207.08 1412.59,1138.34 1414.65,1200.18 1416.7,1114.96 1418.75,1192.79 1420.8,1197.63 1422.86,1158.45 1424.91,1179.04 1426.96,1141.25 1429.02,1189.57 1431.07,1153.31 1433.12,1113.83 1435.17,1064.8 1437.23,1227.93 1439.28,1132.79 1441.33,1152.03 1443.39,1235.03 1445.44,1070.32 1447.49,1078.89 1449.55,972.878 1451.6,1320.15 1453.65,1043.79 1455.7,1161.31 1457.76,1120.13 1459.81,1286.68 1461.86,1098.77 1463.92,1074.98 1465.97,1180.8 1468.02,1213.01 1470.07,1140.67 1472.13,1124.87 1474.18,1200.1 1476.23,1260.67 1478.29,1240.01 1480.34,1103.02 1482.39,1162.3 1484.44,1162.4 1486.5,1189.51 1488.55,1152.33 1490.6,1171.59 1492.66,1173.89 1494.71,1140.52 1496.76,1181.41 1498.81,1318.83 1500.87,1086.3 1502.92,1072.77 1504.97,1237.99 1507.03,1436.52 1509.08,1253.09 1511.13,1178.78 1513.18,1164.95 1515.24,1156.37 1517.29,1142.35 1519.34,1093.43 1521.4,1106.76 1523.45,1165.56 1525.5,1166.4 1527.55,1147.35 1529.61,1182.42 1531.66,1153.89 1533.71,1201.72 1535.77,1121.26 1537.82,1162.27 1539.87,1179.13 1541.93,1120.09 1543.98,1202.36 1546.03,1072.22 1548.08,1558.4 1550.14,1027.68 1552.19,1158.53 1554.24,1086.28 1556.3,1141.04 1558.35,1289.24 1560.4,1209.34 1562.45,1188.01 1564.51,1161.23 1566.56,1159.36 1568.61,1145.57 1570.67,1157.9 1572.72,1241.46 1574.77,1117.3 1576.82,1136.73 1578.88,1095.27 1580.93,1196.53 1582.98,1109.45 1585.04,1217.24 1587.09,1144.37 1589.14,1183.6 1591.19,1166.12 1593.25,1091.39 1595.3,3103.86 1597.35,-1205.57 1599.41,966.177 1601.46,1160.49 1603.51,1192.33 1605.56,1236.6 1607.62,1196.2 1609.67,1276.27 1611.72,1233.8 1613.78,1203.44 1615.83,1164.84 1617.88,1050.05 1619.94,1288.99 1621.99,989.264 1624.04,1158.88 1626.09,1171.27 1628.15,1194.55 1630.2,1181.87 1632.25,1152.21 1634.31,1205.24 1636.36,1162.98 1638.41,1163.06 1640.46,1173.21 1642.52,1077.48 1644.57,1265.18 1646.62,699.511 1648.68,1253.34 1650.73,1227.63 1652.78,1213.53 1654.83,1159.76 1656.89,1342.22 1658.94,1263.07 1660.99,1123.47 1663.05,1246.5 1665.1,1330.32 1667.15,1259.22 1669.2,1264.27 1671.26,1095.19 1673.31,1144.39 1675.36,799.537 1677.42,1882.16 1679.47,676.099 1681.52,1315.72 1683.57,1024.81 1685.63,1024.61 1687.68,1243.35 1689.73,1109.4 1691.79,1188.49 1693.84,1150.24 1695.89,1418.83 1697.94,1269.88 1700,1194.43 1702.05,1225.94 1704.1,1271.52 1706.16,1348.71 1708.21,1089.45 1710.26,1194.44 1712.32,1087.53 1714.37,1158 1716.42,1152.46 1718.47,1152.63 1720.53,1232.32 1722.58,1209.01 1724.63,1077.87 1726.69,1131.1 1728.74,1172.67 1730.79,1158.36 1732.84,1162.1 1734.9,1284.52 1736.95,1191.49 1739,1151.82 1741.06,1133.48 1743.11,1222.11 1745.16,1131.19 1747.21,1151.83 1749.27,1140.69 1751.32,1189.14 1753.37,1169.44 1755.43,1136.87 1757.48,1198.55 1759.53,1203.06 1761.58,1133.5 1763.64,1065.58 1765.69,1214.19 1767.74,1140.35 1769.8,1193.41 1771.85,1191.4 1773.9,1189.81 1775.95,1178.72 1778.01,1147.42 1780.06,914.695 1782.11,1041.61 1784.17,1231.51 1786.22,1251.58 1788.27,1245.76 1790.33,1229.76 1792.38,1195.4 1794.43,1108.19 1796.48,1179.83 1798.54,1214.69 1800.59,1148.21 1802.64,1165.46 1804.7,1164.14 1806.75,1159.94 1808.8,1128.24 1810.85,1159.8 1812.91,1166.3 1814.96,1149.74 1817.01,1189.33 1819.07,1179 1821.12,1169.64 1823.17,1199.48 1825.22,1120.76 1827.28,1213.89 1829.33,1218.35 1831.38,1106.5 1833.44,1144.27 1835.49,932.863 1837.54,1048.46 1839.59,1237.13 1841.65,1113.4 1843.7,1236.22 1845.75,1263.61 1847.81,1198.49 1849.86,1182.42 1851.91,1145.54 1853.96,1152.37 1856.02,1215.92 1858.07,1230.36 1860.12,1125.95 1862.18,2350.09 1864.23,1779.29 1866.28,1109.12 1868.34,1232.52 1870.39,1141.11 1872.44,1206.09 1874.49,1119.94 1876.55,1137.61 1878.6,1184.67 1880.65,1139.17 1882.71,1135.89 1884.76,1114.61 1886.81,1125.76 1888.86,1149.59 1890.92,1175.28 1892.97,1137.64 1895.02,1119.05 1897.08,1088.68 1899.13,1239.65 1901.18,1185.36 1903.23,1132.18 1905.29,1142.26 1907.34,1169.52 1909.39,1305.64 1911.45,1197.36 1913.5,1144.42 1915.55,1131.8 1917.6,1254.3 1919.66,1159.75 1921.71,1158.84 1923.76,1157.92 1925.82,1128.39 1927.87,1147.38 1929.92,2026.05 1931.97,1371.39 1934.03,1179.3 1936.08,1154.32 1938.13,1169.25 1940.19,1153.87 1942.24,1156.36 1944.29,1137.44 1946.34,1193.78 1948.4,1077.99 1950.45,1070.23 1952.5,1168.25 1954.56,1168.24 1956.61,1158.68 1958.66,1103.76 1960.72,1183.4 1962.77,1188.49 1964.82,1186.33 1966.87,1147.49 1968.93,1120.44 1970.98,1191.07 1973.03,1183.46 1975.09,1155.87 1977.14,1204.15 1979.19,1137.86 1981.24,1158.36 1983.3,1166.34 1985.35,1183.3 1987.4,1211.32 1989.46,1068.51 1991.51,1204.98 1993.56,1167.98 1995.61,1159.68 1997.67,1166.99 1999.72,1170.3 2001.77,1159.22 2003.83,1172.66 2005.88,1568.82 2007.93,653.826 2009.98,705.336 2012.04,1335.74 2014.09,1202.13 2016.14,1201.69 2018.2,1269.61 2020.25,1229.02 2022.3,1166.83 2024.35,1105.02 2026.41,1237.38 2028.46,1255.96 2030.51,1122.52 2032.57,1110.13 2034.62,1207.48 2036.67,1177.86 2038.73,1197.65 2040.78,1142.82 2042.83,1134.72 2044.88,1121.39 2046.94,1195.34 2048.99,1108.58 2051.04,1179.64 2053.1,1160.51 2055.15,968.838 2057.2,930.448 2059.25,1131.67 2061.31,1162.04 2063.36,1111.87 2065.41,1210.45 2067.47,1184.49 2069.52,1135.88 2071.57,1132.66 2073.62,1214.1 2075.68,1129.56 2077.73,1173.93 2079.78,1161.65 2081.84,1140.34 2083.89,1180.1 2085.94,1165.14 2087.99,1181.43 2090.05,1160.93 2092.1,1127.79 2094.15,1167.36 2096.21,1203.35 2098.26,1158.05 2100.31,1186.01 2102.36,1109.35 2104.42,1278.57 2106.47,1080.67 2108.52,1267.55 2110.58,1565.24 2112.63,1169.13 2114.68,1170.56 2116.73,1166.19 2118.79,1128.95 2120.84,274.584 2122.89,865.067 2124.95,1169.86 2127,1156.06 2129.05,1154.73 2131.11,1235.2 2133.16,1183.01 2135.21,1215.01 2137.26,1171.38 2139.32,1176.04 2141.37,1151.52 2143.42,1265.6 2145.48,1171.12 2147.53,1160.22 2149.58,1353.76 2151.63,1336.59 2153.69,1464.25 2155.74,682.567 2157.79,1462.35 2159.85,1559.34 2161.9,907.009 2163.95,1333.15 2166,1221.17 2168.06,1869.32 2170.11,1298.38 2172.16,1169.57 2174.22,877.499 2176.27,2091.61 2178.32,1381.41 2180.37,992.769 2182.43,1544.66 2184.48,1984.02 2186.53,893.136 2188.59,1217.86 2190.64,1158.63 2192.69,1139.01 2194.74,1223.24 2196.8,1206.93 2198.85,1168.78 2200.9,1174.75 2202.96,1153.97 2205.01,1127.69 2207.06,1276.99 2209.12,1216.25 2211.17,1154.3 2213.22,1177.69 2215.27,1180.22 2217.33,1170.39 2219.38,1173.99 2221.43,1226.91 2223.49,1065.24 2225.54,1280.31 2227.59,1211.99 2229.64,1190.02 2231.7,1097.32 2233.75,1228.84 2235.8,1243.14 2237.86,908.546 2239.91,1114.38 2241.96,1164.67 2244.01,1099.88 2246.07,1149.93 2248.12,1187.52 2250.17,1141.93 2252.23,1152.27 2254.28,1157.5 2256.33,1127.3 2258.38,1166.23 2260.44,1157.06 2262.49,1154.69 2264.54,1155.77 2266.6,1176.88 2268.65,1141.4 2270.7,1181.7 2272.75,1185.21 2274.81,1137.27 2276.86,1063.63 2278.91,964.008 2280.97,1069.96 2283.02,218.223 2285.07,1317.42 2287.12,1871.9 2289.18,2649.39 2291.23,1639.24 "/>
<path clip-path="url(#clip920)" d="M251.33 1465.14 L588.926 1465.14 L588.926 1361.46 L251.33 1361.46  Z" fill="#ffffff" fill-rule="evenodd" fill-opacity="1"/>
<polyline clip-path="url(#clip920)" style="stroke:#000000; stroke-linecap:round; stroke-linejoin:round; stroke-width:4; stroke-opacity:1; fill:none" points="251.33,1465.14 588.926,1465.14 588.926,1361.46 251.33,1361.46 251.33,1465.14 "/>
<polyline clip-path="url(#clip920)" style="stroke:#009af9; stroke-linecap:round; stroke-linejoin:round; stroke-width:4; stroke-opacity:1; fill:none" points="275.484,1413.3 420.41,1413.3 "/>
<path clip-path="url(#clip920)" d="M470.12 1425.65 L470.12 1416.37 L462.481 1416.37 L462.481 1412.53 L474.749 1412.53 L474.749 1427.36 Q472.041 1429.28 468.777 1430.28 Q465.513 1431.25 461.809 1431.25 Q453.708 1431.25 449.124 1426.53 Q444.564 1421.78 444.564 1413.34 Q444.564 1404.86 449.124 1400.14 Q453.708 1395.4 461.809 1395.4 Q465.189 1395.4 468.221 1396.23 Q471.277 1397.06 473.846 1398.68 L473.846 1403.66 Q471.254 1401.46 468.337 1400.35 Q465.421 1399.24 462.203 1399.24 Q455.86 1399.24 452.666 1402.78 Q449.495 1406.32 449.495 1413.34 Q449.495 1420.33 452.666 1423.87 Q455.86 1427.41 462.203 1427.41 Q464.68 1427.41 466.624 1426.99 Q468.569 1426.55 470.12 1425.65 Z" fill="#000000" fill-rule="nonzero" fill-opacity="1" /><path clip-path="url(#clip920)" d="M487.967 1399.86 L487.967 1412.85 L493.846 1412.85 Q497.11 1412.85 498.893 1411.16 Q500.675 1409.47 500.675 1406.35 Q500.675 1403.24 498.893 1401.55 Q497.11 1399.86 493.846 1399.86 L487.967 1399.86 M483.291 1396.02 L493.846 1396.02 Q499.657 1396.02 502.619 1398.66 Q505.606 1401.28 505.606 1406.35 Q505.606 1411.46 502.619 1414.08 Q499.657 1416.69 493.846 1416.69 L487.967 1416.69 L487.967 1430.58 L483.291 1430.58 L483.291 1396.02 Z" fill="#000000" fill-rule="nonzero" fill-opacity="1" /><path clip-path="url(#clip920)" d="M532.596 1397.16 L532.596 1401.72 Q529.934 1400.44 527.573 1399.82 Q525.212 1399.19 523.013 1399.19 Q519.193 1399.19 517.11 1400.67 Q515.05 1402.16 515.05 1404.89 Q515.05 1407.18 516.416 1408.36 Q517.805 1409.52 521.647 1410.23 L524.471 1410.81 Q529.703 1411.81 532.179 1414.33 Q534.679 1416.83 534.679 1421.04 Q534.679 1426.07 531.3 1428.66 Q527.943 1431.25 521.439 1431.25 Q518.985 1431.25 516.207 1430.7 Q513.453 1430.14 510.49 1429.05 L510.49 1424.24 Q513.337 1425.84 516.068 1426.65 Q518.8 1427.46 521.439 1427.46 Q525.443 1427.46 527.619 1425.88 Q529.795 1424.31 529.795 1421.39 Q529.795 1418.85 528.221 1417.41 Q526.67 1415.97 523.105 1415.26 L520.258 1414.7 Q515.027 1413.66 512.689 1411.44 Q510.351 1409.22 510.351 1405.26 Q510.351 1400.67 513.568 1398.03 Q516.809 1395.4 522.48 1395.4 Q524.911 1395.4 527.434 1395.84 Q529.957 1396.28 532.596 1397.16 Z" fill="#000000" fill-rule="nonzero" fill-opacity="1" /><path clip-path="url(#clip920)" d="M562.689 1397.16 L562.689 1401.72 Q560.027 1400.44 557.665 1399.82 Q555.304 1399.19 553.105 1399.19 Q549.286 1399.19 547.203 1400.67 Q545.142 1402.16 545.142 1404.89 Q545.142 1407.18 546.508 1408.36 Q547.897 1409.52 551.74 1410.23 L554.564 1410.81 Q559.795 1411.81 562.272 1414.33 Q564.772 1416.83 564.772 1421.04 Q564.772 1426.07 561.392 1428.66 Q558.036 1431.25 551.531 1431.25 Q549.078 1431.25 546.3 1430.7 Q543.545 1430.14 540.582 1429.05 L540.582 1424.24 Q543.429 1425.84 546.161 1426.65 Q548.892 1427.46 551.531 1427.46 Q555.536 1427.46 557.712 1425.88 Q559.888 1424.31 559.888 1421.39 Q559.888 1418.85 558.314 1417.41 Q556.763 1415.97 553.198 1415.26 L550.351 1414.7 Q545.119 1413.66 542.781 1411.44 Q540.443 1409.22 540.443 1405.26 Q540.443 1400.67 543.661 1398.03 Q546.902 1395.4 552.573 1395.4 Q555.003 1395.4 557.527 1395.84 Q560.05 1396.28 562.689 1397.16 Z" fill="#000000" fill-rule="nonzero" fill-opacity="1" /></svg>
