<?xml version="1.0" encoding="utf-8"?>
<svg xmlns="http://www.w3.org/2000/svg" xmlns:xlink="http://www.w3.org/1999/xlink" width="600" height="400" viewBox="0 0 2400 1600">
<defs>
  <clipPath id="clip310">
    <rect x="0" y="0" width="2400" height="1600"/>
  </clipPath>
</defs>
<path clip-path="url(#clip310)" d="M0 1600 L2400 1600 L2400 0 L0 0  Z" fill="#ffffff" fill-rule="evenodd" fill-opacity="1"/>
<defs>
  <clipPath id="clip311">
    <rect x="480" y="0" width="1681" height="1600"/>
  </clipPath>
</defs>
<path clip-path="url(#clip310)" d="M178.867 686.448 L2352.76 686.448 L2352.76 47.2441 L178.867 47.2441  Z" fill="#ffffff" fill-rule="evenodd" fill-opacity="1"/>
<defs>
  <clipPath id="clip312">
    <rect x="178" y="47" width="2175" height="640"/>
  </clipPath>
</defs>
<polyline clip-path="url(#clip312)" style="stroke:#000000; stroke-linecap:round; stroke-linejoin:round; stroke-width:2; stroke-opacity:0.1; fill:none" points="238.339,686.448 238.339,47.2441 "/>
<polyline clip-path="url(#clip312)" style="stroke:#000000; stroke-linecap:round; stroke-linejoin:round; stroke-width:2; stroke-opacity:0.1; fill:none" points="751.562,686.448 751.562,47.2441 "/>
<polyline clip-path="url(#clip312)" style="stroke:#000000; stroke-linecap:round; stroke-linejoin:round; stroke-width:2; stroke-opacity:0.1; fill:none" points="1264.78,686.448 1264.78,47.2441 "/>
<polyline clip-path="url(#clip312)" style="stroke:#000000; stroke-linecap:round; stroke-linejoin:round; stroke-width:2; stroke-opacity:0.1; fill:none" points="1778.01,686.448 1778.01,47.2441 "/>
<polyline clip-path="url(#clip312)" style="stroke:#000000; stroke-linecap:round; stroke-linejoin:round; stroke-width:2; stroke-opacity:0.1; fill:none" points="2291.23,686.448 2291.23,47.2441 "/>
<polyline clip-path="url(#clip312)" style="stroke:#000000; stroke-linecap:round; stroke-linejoin:round; stroke-width:2; stroke-opacity:0.1; fill:none" points="178.867,686.448 2352.76,686.448 "/>
<polyline clip-path="url(#clip312)" style="stroke:#000000; stroke-linecap:round; stroke-linejoin:round; stroke-width:2; stroke-opacity:0.1; fill:none" points="178.867,526.647 2352.76,526.647 "/>
<polyline clip-path="url(#clip312)" style="stroke:#000000; stroke-linecap:round; stroke-linejoin:round; stroke-width:2; stroke-opacity:0.1; fill:none" points="178.867,366.846 2352.76,366.846 "/>
<polyline clip-path="url(#clip312)" style="stroke:#000000; stroke-linecap:round; stroke-linejoin:round; stroke-width:2; stroke-opacity:0.1; fill:none" points="178.867,207.045 2352.76,207.045 "/>
<polyline clip-path="url(#clip312)" style="stroke:#000000; stroke-linecap:round; stroke-linejoin:round; stroke-width:2; stroke-opacity:0.1; fill:none" points="178.867,47.2441 2352.76,47.2441 "/>
<polyline clip-path="url(#clip310)" style="stroke:#000000; stroke-linecap:round; stroke-linejoin:round; stroke-width:4; stroke-opacity:1; fill:none" points="178.867,686.448 2352.76,686.448 "/>
<polyline clip-path="url(#clip310)" style="stroke:#000000; stroke-linecap:round; stroke-linejoin:round; stroke-width:4; stroke-opacity:1; fill:none" points="238.339,686.448 238.339,667.55 "/>
<polyline clip-path="url(#clip310)" style="stroke:#000000; stroke-linecap:round; stroke-linejoin:round; stroke-width:4; stroke-opacity:1; fill:none" points="751.562,686.448 751.562,667.55 "/>
<polyline clip-path="url(#clip310)" style="stroke:#000000; stroke-linecap:round; stroke-linejoin:round; stroke-width:4; stroke-opacity:1; fill:none" points="1264.78,686.448 1264.78,667.55 "/>
<polyline clip-path="url(#clip310)" style="stroke:#000000; stroke-linecap:round; stroke-linejoin:round; stroke-width:4; stroke-opacity:1; fill:none" points="1778.01,686.448 1778.01,667.55 "/>
<polyline clip-path="url(#clip310)" style="stroke:#000000; stroke-linecap:round; stroke-linejoin:round; stroke-width:4; stroke-opacity:1; fill:none" points="2291.23,686.448 2291.23,667.55 "/>
<path clip-path="url(#clip310)" d="M238.339 717.367 Q234.728 717.367 232.899 720.931 Q231.094 724.473 231.094 731.603 Q231.094 738.709 232.899 742.274 Q234.728 745.815 238.339 745.815 Q241.973 745.815 243.779 742.274 Q245.607 738.709 245.607 731.603 Q245.607 724.473 243.779 720.931 Q241.973 717.367 238.339 717.367 M238.339 713.663 Q244.149 713.663 247.205 718.269 Q250.283 722.853 250.283 731.603 Q250.283 740.329 247.205 744.936 Q244.149 749.519 238.339 749.519 Q232.529 749.519 229.45 744.936 Q226.395 740.329 226.395 731.603 Q226.395 722.853 229.45 718.269 Q232.529 713.663 238.339 713.663 Z" fill="#000000" fill-rule="nonzero" fill-opacity="1" /><path clip-path="url(#clip310)" d="M715.254 744.913 L731.574 744.913 L731.574 748.848 L709.629 748.848 L709.629 744.913 Q712.291 742.158 716.875 737.528 Q721.481 732.876 722.662 731.533 Q724.907 729.01 725.787 727.274 Q726.689 725.515 726.689 723.825 Q726.689 721.07 724.745 719.334 Q722.824 717.598 719.722 717.598 Q717.523 717.598 715.069 718.362 Q712.638 719.126 709.861 720.677 L709.861 715.955 Q712.685 714.82 715.138 714.242 Q717.592 713.663 719.629 713.663 Q725 713.663 728.194 716.348 Q731.388 719.033 731.388 723.524 Q731.388 725.654 730.578 727.575 Q729.791 729.473 727.685 732.066 Q727.106 732.737 724.004 735.954 Q720.902 739.149 715.254 744.913 Z" fill="#000000" fill-rule="nonzero" fill-opacity="1" /><path clip-path="url(#clip310)" d="M741.435 714.288 L759.791 714.288 L759.791 718.223 L745.717 718.223 L745.717 726.695 Q746.736 726.348 747.754 726.186 Q748.773 726.001 749.791 726.001 Q755.578 726.001 758.958 729.172 Q762.337 732.343 762.337 737.76 Q762.337 743.339 758.865 746.44 Q755.393 749.519 749.073 749.519 Q746.898 749.519 744.629 749.149 Q742.384 748.778 739.976 748.038 L739.976 743.339 Q742.06 744.473 744.282 745.028 Q746.504 745.584 748.981 745.584 Q752.985 745.584 755.323 743.478 Q757.661 741.371 757.661 737.76 Q757.661 734.149 755.323 732.042 Q752.985 729.936 748.981 729.936 Q747.106 729.936 745.231 730.353 Q743.379 730.769 741.435 731.649 L741.435 714.288 Z" fill="#000000" fill-rule="nonzero" fill-opacity="1" /><path clip-path="url(#clip310)" d="M781.55 717.367 Q777.939 717.367 776.11 720.931 Q774.305 724.473 774.305 731.603 Q774.305 738.709 776.11 742.274 Q777.939 745.815 781.55 745.815 Q785.184 745.815 786.99 742.274 Q788.819 738.709 788.819 731.603 Q788.819 724.473 786.99 720.931 Q785.184 717.367 781.55 717.367 M781.55 713.663 Q787.36 713.663 790.416 718.269 Q793.495 722.853 793.495 731.603 Q793.495 740.329 790.416 744.936 Q787.36 749.519 781.55 749.519 Q775.74 749.519 772.661 744.936 Q769.606 740.329 769.606 731.603 Q769.606 722.853 772.661 718.269 Q775.74 713.663 781.55 713.663 Z" fill="#000000" fill-rule="nonzero" fill-opacity="1" /><path clip-path="url(#clip310)" d="M1224.4 714.288 L1242.76 714.288 L1242.76 718.223 L1228.69 718.223 L1228.69 726.695 Q1229.7 726.348 1230.72 726.186 Q1231.74 726.001 1232.76 726.001 Q1238.55 726.001 1241.93 729.172 Q1245.31 732.343 1245.31 737.76 Q1245.31 743.339 1241.83 746.44 Q1238.36 749.519 1232.04 749.519 Q1229.87 749.519 1227.6 749.149 Q1225.35 748.778 1222.94 748.038 L1222.94 743.339 Q1225.03 744.473 1227.25 745.028 Q1229.47 745.584 1231.95 745.584 Q1235.95 745.584 1238.29 743.478 Q1240.63 741.371 1240.63 737.76 Q1240.63 734.149 1238.29 732.042 Q1235.95 729.936 1231.95 729.936 Q1230.07 729.936 1228.2 730.353 Q1226.35 730.769 1224.4 731.649 L1224.4 714.288 Z" fill="#000000" fill-rule="nonzero" fill-opacity="1" /><path clip-path="url(#clip310)" d="M1264.52 717.367 Q1260.91 717.367 1259.08 720.931 Q1257.27 724.473 1257.27 731.603 Q1257.27 738.709 1259.08 742.274 Q1260.91 745.815 1264.52 745.815 Q1268.15 745.815 1269.96 742.274 Q1271.79 738.709 1271.79 731.603 Q1271.79 724.473 1269.96 720.931 Q1268.15 717.367 1264.52 717.367 M1264.52 713.663 Q1270.33 713.663 1273.38 718.269 Q1276.46 722.853 1276.46 731.603 Q1276.46 740.329 1273.38 744.936 Q1270.33 749.519 1264.52 749.519 Q1258.71 749.519 1255.63 744.936 Q1252.57 740.329 1252.57 731.603 Q1252.57 722.853 1255.63 718.269 Q1258.71 713.663 1264.52 713.663 Z" fill="#000000" fill-rule="nonzero" fill-opacity="1" /><path clip-path="url(#clip310)" d="M1294.68 717.367 Q1291.07 717.367 1289.24 720.931 Q1287.44 724.473 1287.44 731.603 Q1287.44 738.709 1289.24 742.274 Q1291.07 745.815 1294.68 745.815 Q1298.31 745.815 1300.12 742.274 Q1301.95 738.709 1301.95 731.603 Q1301.95 724.473 1300.12 720.931 Q1298.31 717.367 1294.68 717.367 M1294.68 713.663 Q1300.49 713.663 1303.55 718.269 Q1306.62 722.853 1306.62 731.603 Q1306.62 740.329 1303.55 744.936 Q1300.49 749.519 1294.68 749.519 Q1288.87 749.519 1285.79 744.936 Q1282.74 740.329 1282.74 731.603 Q1282.74 722.853 1285.79 718.269 Q1288.87 713.663 1294.68 713.663 Z" fill="#000000" fill-rule="nonzero" fill-opacity="1" /><path clip-path="url(#clip310)" d="M1736.28 714.288 L1758.51 714.288 L1758.51 716.279 L1745.96 748.848 L1741.08 748.848 L1752.88 718.223 L1736.28 718.223 L1736.28 714.288 Z" fill="#000000" fill-rule="nonzero" fill-opacity="1" /><path clip-path="url(#clip310)" d="M1767.67 714.288 L1786.03 714.288 L1786.03 718.223 L1771.95 718.223 L1771.95 726.695 Q1772.97 726.348 1773.99 726.186 Q1775.01 726.001 1776.03 726.001 Q1781.82 726.001 1785.2 729.172 Q1788.57 732.343 1788.57 737.76 Q1788.57 743.339 1785.1 746.44 Q1781.63 749.519 1775.31 749.519 Q1773.14 749.519 1770.87 749.149 Q1768.62 748.778 1766.21 748.038 L1766.21 743.339 Q1768.3 744.473 1770.52 745.028 Q1772.74 745.584 1775.22 745.584 Q1779.22 745.584 1781.56 743.478 Q1783.9 741.371 1783.9 737.76 Q1783.9 734.149 1781.56 732.042 Q1779.22 729.936 1775.22 729.936 Q1773.34 729.936 1771.47 730.353 Q1769.62 730.769 1767.67 731.649 L1767.67 714.288 Z" fill="#000000" fill-rule="nonzero" fill-opacity="1" /><path clip-path="url(#clip310)" d="M1807.79 717.367 Q1804.18 717.367 1802.35 720.931 Q1800.54 724.473 1800.54 731.603 Q1800.54 738.709 1802.35 742.274 Q1804.18 745.815 1807.79 745.815 Q1811.42 745.815 1813.23 742.274 Q1815.06 738.709 1815.06 731.603 Q1815.06 724.473 1813.23 720.931 Q1811.42 717.367 1807.79 717.367 M1807.79 713.663 Q1813.6 713.663 1816.65 718.269 Q1819.73 722.853 1819.73 731.603 Q1819.73 740.329 1816.65 744.936 Q1813.6 749.519 1807.79 749.519 Q1801.98 749.519 1798.9 744.936 Q1795.84 740.329 1795.84 731.603 Q1795.84 722.853 1798.9 718.269 Q1801.98 713.663 1807.79 713.663 Z" fill="#000000" fill-rule="nonzero" fill-opacity="1" /><path clip-path="url(#clip310)" d="M2235.76 744.913 L2243.4 744.913 L2243.4 718.547 L2235.09 720.214 L2235.09 715.955 L2243.35 714.288 L2248.02 714.288 L2248.02 744.913 L2255.66 744.913 L2255.66 748.848 L2235.76 748.848 L2235.76 744.913 Z" fill="#000000" fill-rule="nonzero" fill-opacity="1" /><path clip-path="url(#clip310)" d="M2275.11 717.367 Q2271.5 717.367 2269.67 720.931 Q2267.86 724.473 2267.86 731.603 Q2267.86 738.709 2269.67 742.274 Q2271.5 745.815 2275.11 745.815 Q2278.74 745.815 2280.55 742.274 Q2282.38 738.709 2282.38 731.603 Q2282.38 724.473 2280.55 720.931 Q2278.74 717.367 2275.11 717.367 M2275.11 713.663 Q2280.92 713.663 2283.97 718.269 Q2287.05 722.853 2287.05 731.603 Q2287.05 740.329 2283.97 744.936 Q2280.92 749.519 2275.11 749.519 Q2269.3 749.519 2266.22 744.936 Q2263.16 740.329 2263.16 731.603 Q2263.16 722.853 2266.22 718.269 Q2269.3 713.663 2275.11 713.663 Z" fill="#000000" fill-rule="nonzero" fill-opacity="1" /><path clip-path="url(#clip310)" d="M2305.27 717.367 Q2301.66 717.367 2299.83 720.931 Q2298.02 724.473 2298.02 731.603 Q2298.02 738.709 2299.83 742.274 Q2301.66 745.815 2305.27 745.815 Q2308.9 745.815 2310.71 742.274 Q2312.54 738.709 2312.54 731.603 Q2312.54 724.473 2310.71 720.931 Q2308.9 717.367 2305.27 717.367 M2305.27 713.663 Q2311.08 713.663 2314.14 718.269 Q2317.21 722.853 2317.21 731.603 Q2317.21 740.329 2314.14 744.936 Q2311.08 749.519 2305.27 749.519 Q2299.46 749.519 2296.38 744.936 Q2293.33 740.329 2293.33 731.603 Q2293.33 722.853 2296.38 718.269 Q2299.46 713.663 2305.27 713.663 Z" fill="#000000" fill-rule="nonzero" fill-opacity="1" /><path clip-path="url(#clip310)" d="M2335.43 717.367 Q2331.82 717.367 2329.99 720.931 Q2328.19 724.473 2328.19 731.603 Q2328.19 738.709 2329.99 742.274 Q2331.82 745.815 2335.43 745.815 Q2339.07 745.815 2340.87 742.274 Q2342.7 738.709 2342.7 731.603 Q2342.7 724.473 2340.87 720.931 Q2339.07 717.367 2335.43 717.367 M2335.43 713.663 Q2341.24 713.663 2344.3 718.269 Q2347.38 722.853 2347.38 731.603 Q2347.38 740.329 2344.3 744.936 Q2341.24 749.519 2335.43 749.519 Q2329.62 749.519 2326.54 744.936 Q2323.49 740.329 2323.49 731.603 Q2323.49 722.853 2326.54 718.269 Q2329.62 713.663 2335.43 713.663 Z" fill="#000000" fill-rule="nonzero" fill-opacity="1" /><polyline clip-path="url(#clip310)" style="stroke:#000000; stroke-linecap:round; stroke-linejoin:round; stroke-width:4; stroke-opacity:1; fill:none" points="178.867,686.448 178.867,47.2441 "/>
<polyline clip-path="url(#clip310)" style="stroke:#000000; stroke-linecap:round; stroke-linejoin:round; stroke-width:4; stroke-opacity:1; fill:none" points="178.867,686.448 197.764,686.448 "/>
<polyline clip-path="url(#clip310)" style="stroke:#000000; stroke-linecap:round; stroke-linejoin:round; stroke-width:4; stroke-opacity:1; fill:none" points="178.867,526.647 197.764,526.647 "/>
<polyline clip-path="url(#clip310)" style="stroke:#000000; stroke-linecap:round; stroke-linejoin:round; stroke-width:4; stroke-opacity:1; fill:none" points="178.867,366.846 197.764,366.846 "/>
<polyline clip-path="url(#clip310)" style="stroke:#000000; stroke-linecap:round; stroke-linejoin:round; stroke-width:4; stroke-opacity:1; fill:none" points="178.867,207.045 197.764,207.045 "/>
<polyline clip-path="url(#clip310)" style="stroke:#000000; stroke-linecap:round; stroke-linejoin:round; stroke-width:4; stroke-opacity:1; fill:none" points="178.867,47.2441 197.764,47.2441 "/>
<path clip-path="url(#clip310)" d="M50.9921 686.899 L80.6679 686.899 L80.6679 690.834 L50.9921 690.834 L50.9921 686.899 Z" fill="#000000" fill-rule="nonzero" fill-opacity="1" /><path clip-path="url(#clip310)" d="M91.5706 699.793 L99.2095 699.793 L99.2095 673.427 L90.8993 675.094 L90.8993 670.835 L99.1632 669.168 L103.839 669.168 L103.839 699.793 L111.478 699.793 L111.478 703.728 L91.5706 703.728 L91.5706 699.793 Z" fill="#000000" fill-rule="nonzero" fill-opacity="1" /><path clip-path="url(#clip310)" d="M130.922 672.247 Q127.311 672.247 125.482 675.811 Q123.677 679.353 123.677 686.483 Q123.677 693.589 125.482 697.154 Q127.311 700.695 130.922 700.695 Q134.556 700.695 136.362 697.154 Q138.191 693.589 138.191 686.483 Q138.191 679.353 136.362 675.811 Q134.556 672.247 130.922 672.247 M130.922 668.543 Q136.732 668.543 139.788 673.149 Q142.867 677.733 142.867 686.483 Q142.867 695.209 139.788 699.816 Q136.732 704.399 130.922 704.399 Q125.112 704.399 122.033 699.816 Q118.978 695.209 118.978 686.483 Q118.978 677.733 122.033 673.149 Q125.112 668.543 130.922 668.543 Z" fill="#000000" fill-rule="nonzero" fill-opacity="1" /><path clip-path="url(#clip310)" d="M82.1494 527.098 L111.825 527.098 L111.825 531.033 L82.1494 531.033 L82.1494 527.098 Z" fill="#000000" fill-rule="nonzero" fill-opacity="1" /><path clip-path="url(#clip310)" d="M121.964 509.367 L140.32 509.367 L140.32 513.302 L126.246 513.302 L126.246 521.774 Q127.265 521.427 128.283 521.265 Q129.302 521.08 130.32 521.08 Q136.107 521.08 139.487 524.251 Q142.867 527.422 142.867 532.839 Q142.867 538.418 139.394 541.52 Q135.922 544.598 129.603 544.598 Q127.427 544.598 125.158 544.228 Q122.913 543.857 120.506 543.117 L120.506 538.418 Q122.589 539.552 124.811 540.108 Q127.033 540.663 129.51 540.663 Q133.515 540.663 135.853 538.557 Q138.191 536.45 138.191 532.839 Q138.191 529.228 135.853 527.121 Q133.515 525.015 129.51 525.015 Q127.635 525.015 125.76 525.432 Q123.908 525.848 121.964 526.728 L121.964 509.367 Z" fill="#000000" fill-rule="nonzero" fill-opacity="1" /><path clip-path="url(#clip310)" d="M130.922 352.645 Q127.311 352.645 125.482 356.209 Q123.677 359.751 123.677 366.881 Q123.677 373.987 125.482 377.552 Q127.311 381.094 130.922 381.094 Q134.556 381.094 136.362 377.552 Q138.191 373.987 138.191 366.881 Q138.191 359.751 136.362 356.209 Q134.556 352.645 130.922 352.645 M130.922 348.941 Q136.732 348.941 139.788 353.547 Q142.867 358.131 142.867 366.881 Q142.867 375.608 139.788 380.214 Q136.732 384.797 130.922 384.797 Q125.112 384.797 122.033 380.214 Q118.978 375.608 118.978 366.881 Q118.978 358.131 122.033 353.547 Q125.112 348.941 130.922 348.941 Z" fill="#000000" fill-rule="nonzero" fill-opacity="1" /><path clip-path="url(#clip310)" d="M121.964 189.765 L140.32 189.765 L140.32 193.7 L126.246 193.7 L126.246 202.172 Q127.265 201.825 128.283 201.663 Q129.302 201.478 130.32 201.478 Q136.107 201.478 139.487 204.649 Q142.867 207.82 142.867 213.237 Q142.867 218.816 139.394 221.918 Q135.922 224.996 129.603 224.996 Q127.427 224.996 125.158 224.626 Q122.913 224.256 120.506 223.515 L120.506 218.816 Q122.589 219.95 124.811 220.506 Q127.033 221.061 129.51 221.061 Q133.515 221.061 135.853 218.955 Q138.191 216.848 138.191 213.237 Q138.191 209.626 135.853 207.52 Q133.515 205.413 129.51 205.413 Q127.635 205.413 125.76 205.83 Q123.908 206.246 121.964 207.126 L121.964 189.765 Z" fill="#000000" fill-rule="nonzero" fill-opacity="1" /><path clip-path="url(#clip310)" d="M91.5706 60.5889 L99.2095 60.5889 L99.2095 34.2233 L90.8993 35.89 L90.8993 31.6308 L99.1632 29.9641 L103.839 29.9641 L103.839 60.5889 L111.478 60.5889 L111.478 64.5241 L91.5706 64.5241 L91.5706 60.5889 Z" fill="#000000" fill-rule="nonzero" fill-opacity="1" /><path clip-path="url(#clip310)" d="M130.922 33.0428 Q127.311 33.0428 125.482 36.6076 Q123.677 40.1492 123.677 47.2788 Q123.677 54.3853 125.482 57.9501 Q127.311 61.4917 130.922 61.4917 Q134.556 61.4917 136.362 57.9501 Q138.191 54.3853 138.191 47.2788 Q138.191 40.1492 136.362 36.6076 Q134.556 33.0428 130.922 33.0428 M130.922 29.3391 Q136.732 29.3391 139.788 33.9456 Q142.867 38.5289 142.867 47.2788 Q142.867 56.0056 139.788 60.6121 Q136.732 65.1954 130.922 65.1954 Q125.112 65.1954 122.033 60.6121 Q118.978 56.0056 118.978 47.2788 Q118.978 38.5289 122.033 33.9456 Q125.112 29.3391 130.922 29.3391 Z" fill="#000000" fill-rule="nonzero" fill-opacity="1" /><polyline clip-path="url(#clip312)" style="stroke:#009af9; stroke-linecap:round; stroke-linejoin:round; stroke-width:4; stroke-opacity:1; fill:none" points="240.392,334.886 242.445,328.903 244.498,328.148 246.55,328.109 248.603,327.722 250.656,336.194 252.709,335.933 254.762,338.584 256.815,340.73 258.868,340.731 260.921,340.753 262.974,386.884 265.027,388.233 267.079,388.003 269.132,387.605 271.185,387.913 273.238,386.762 275.291,387.682 277.344,384.65 279.397,382.003 281.45,379.523 283.503,379.747 285.555,357.535 287.608,357.459 289.661,357.457 291.714,358.417 293.767,358.952 295.82,359.292 297.873,307.538 299.926,306.123 301.979,304.107 304.031,343.346 306.084,343.547 308.137,326.048 310.19,392.466 312.243,281.659 314.296,327.293 316.349,326.028 318.402,370.704 320.455,338.678 322.507,325.645 324.56,353.698 326.613,362.196 328.666,376.243 330.719,401.148 332.772,400.365 334.825,396.043 336.878,395.306 338.931,336.622 340.984,332.854 343.036,289.067 345.089,294.899 347.142,294.729 349.195,318.053 351.248,297.885 353.301,363.323 355.354,321.882 357.407,330.629 359.46,349.728 361.512,352.553 363.565,352.563 365.618,351.146 367.671,348.876 369.724,348.882 371.777,354.892 373.83,376.197 375.883,385.502 377.936,358.884 379.988,357.819 382.041,357.957 384.094,463.189 386.147,466.796 388.2,471.051 390.253,471.475 392.306,471.737 394.359,465.84 396.412,411.861 398.464,412.858 400.517,414.237 402.57,398.643 404.623,504.235 406.676,421.168 408.729,438.04 410.782,436.501 412.835,436.103 414.888,438.4 416.94,440.993 418.993,439.811 421.046,381.141 423.099,346.89 425.152,339.11 427.205,336.378 429.258,335.103 431.311,189.525 433.364,247.651 435.417,248.744 437.469,223.995 439.522,271.92 441.575,275.494 443.628,240.65 445.681,219.912 447.734,237.962 449.787,485.688 451.84,477.482 453.893,401.42 455.945,398.528 457.998,398.552 460.051,399.116 462.104,399.117 464.157,428.638 466.21,429.032 468.263,326.532 470.316,269.425 472.369,408.848 474.421,414.868 476.474,413.88 478.527,413.382 480.58,333.786 482.633,334.004 484.686,303.127 486.739,303.36 488.792,261.492 490.845,300.908 492.897,297.088 494.95,305.757 497.003,414.292 499.056,437.923 501.109,446.675 503.162,366.135 505.215,366.596 507.268,362.024 509.321,337.201 511.374,338.954 513.426,342.344 515.479,358.179 517.532,358.526 519.585,341.958 521.638,344.331 523.691,344.383 525.744,337.093 527.797,300.642 529.85,300.638 531.902,301.435 533.955,300.797 536.008,299.305 538.061,347.972 540.114,370.234 542.167,407.595 544.22,401.808 546.273,455.212 548.326,466.051 550.378,469.544 552.431,462.311 554.484,461.422 556.537,433.572 558.59,432.115 560.643,427.981 562.696,463.103 564.749,459.604 566.802,456.498 568.854,438.651 570.907,439.704 572.96,412.785 575.013,415.333 577.066,415.452 579.119,388.146 581.172,394.011 583.225,439.698 585.278,441.422 587.331,407.08 589.383,409.635 591.436,400.141 593.489,399.597 595.542,397.765 597.595,437.624 599.648,439.004 601.701,432.81 603.754,429.791 605.807,428.791 607.859,443.506 609.912,445.257 611.965,446.002 614.018,435.596 616.071,439.123 618.124,448.222 620.177,458.562 622.23,441.58 624.283,440.453 626.335,378.722 628.388,377.231 630.441,384.716 632.494,393.366 634.547,393.426 636.6,392.971 638.653,392.969 640.706,374.109 642.759,396.635 644.811,392.57 646.864,293.285 648.917,290.108 650.97,277.957 653.023,281.155 655.076,283.957 657.129,287.012 659.182,288.321 661.235,295.743 663.288,295.664 665.34,296.457 667.393,310.152 669.446,316.256 671.499,316.92 673.552,320.166 675.605,341.156 677.658,339.91 679.711,340.587 681.764,365.091 683.816,348.912 685.869,318.825 687.922,320.75 689.975,324.32 692.028,324.547 694.081,324.376 696.134,302.719 698.187,345.563 700.24,379.571 702.292,383.546 704.345,385.675 706.398,321.026 708.451,307.655 710.504,303.37 712.557,303.015 714.61,250.984 716.663,259.81 718.716,259.385 720.768,260.098 722.821,259.909 724.874,259.914 726.927,331.923 728.98,332.804 731.033,432.305 733.086,409.291 735.139,408.819 737.192,409.252 739.245,412.335 741.297,392.024 743.35,391.099 745.403,392.935 747.456,397.53 749.509,401.693 751.562,351.926 753.615,350.88 755.668,423.623 757.721,425.356 759.773,460.478 761.826,454.413 763.879,440.827 765.932,468.752 767.985,483.964 770.038,510.333 772.091,423.674 774.144,355.962 776.197,353.776 778.249,352.872 780.302,352.32 782.355,349.528 784.408,348.272 786.461,382.051 788.514,388.262 790.567,388.162 792.62,369.165 794.673,365.682 796.725,437.688 798.778,476.25 800.831,606.32 802.884,597.751 804.937,581.633 806.99,546.833 809.043,536.107 811.096,530.202 813.149,507.724 815.202,505.378 817.254,349.911 819.307,334.388 821.36,334.236 823.413,313.852 825.466,311.081 827.519,262.823 829.572,476.16 831.625,334.343 833.678,314.984 835.73,309.74 837.783,463.884 839.836,407.97 841.889,407.662 843.942,409.849 845.995,396.862 848.048,396.91 850.101,392.092 852.154,397.424 854.206,397.028 856.259,372.434 858.312,383.103 860.365,349.187 862.418,321.359 864.471,231.276 866.524,264.934 868.577,264.684 870.63,258.102 872.682,260.447 874.735,282.01 876.788,278.112 878.841,315.606 880.894,333.42 882.947,302.422 885,153.48 887.053,153.675 889.106,125.888 891.159,73.8198 893.211,233.487 895.264,205.533 897.317,200.26 899.37,240.74 901.423,230.958 903.476,229.375 905.529,232.37 907.582,228.791 909.635,228.426 911.687,231.888 913.74,232.866 915.793,229.467 917.846,224.269 919.899,215.823 921.952,214.938 924.005,192.858 926.058,192.532 928.111,255.82 930.163,380.808 932.216,375.223 934.269,427.254 936.322,428.631 938.375,420.162 940.428,434.485 942.481,434.559 944.534,398.871 946.587,414.403 948.639,445.598 950.692,524.97 952.745,494.365 954.798,426.171 956.851,426.474 958.904,438.851 960.957,443.3 963.01,446.019 965.063,445.644 967.116,540.71 969.168,541.594 971.221,523.657 973.274,511.623 975.327,516.784 977.38,516.503 979.433,514.214 981.486,269.538 983.539,195.462 985.592,190.29 987.644,182.897 989.697,103.318 991.75,102.849 993.803,102.067 995.856,2.19792 997.909,161.451 999.962,172.325 1002.01,169.011 1004.07,174.146 1006.12,165.051 1008.17,65.3981 1010.23,71.2905 1012.28,80.09 1014.33,79.6513 1016.38,52.3145 1018.44,142.818 1020.49,140.059 1022.54,219.251 1024.6,217.395 1026.65,91.3334 1028.7,89.0581 1030.76,-34.0832 1032.81,-68.3918 1034.86,-81.5413 1036.91,-144.387 1038.97,-118.969 1041.02,81.5512 1043.07,194.022 1045.13,175.658 1047.18,191.379 1049.23,191.962 1051.28,164.96 1053.34,373.091 1055.39,354.53 1057.44,392.831 1059.5,385.753 1061.55,383.658 1063.6,295.084 1065.65,300.613 1067.71,327.952 1069.76,333.743 1071.81,416.365 1073.87,417.182 1075.92,418.439 1077.97,447.966 1080.02,637.142 1082.08,634.67 1084.13,635.33 1086.18,496.755 1088.24,501.847 1090.29,399.671 1092.34,410.801 1094.39,333.828 1096.45,392.18 1098.5,445.283 1100.55,444.415 1102.61,452.006 1104.66,452.043 1106.71,451.946 1108.77,434.076 1110.82,438.049 1112.87,402.106 1114.92,400.011 1116.98,399.349 1119.03,403.67 1121.08,452.82 1123.14,448.945 1125.19,396.462 1127.24,377.118 1129.29,375.462 1131.35,350.066 1133.4,354.812 1135.45,367.21 1137.51,363.505 1139.56,392.651 1141.61,345.547 1143.66,196.614 1145.72,196.711 1147.77,194.521 1149.82,211.131 1151.88,267.702 1153.93,296.056 1155.98,505.566 1158.03,506.152 1160.09,565.892 1162.14,581.477 1164.19,570.795 1166.25,385.084 1168.3,388.573 1170.35,413.95 1172.4,461.135 1174.46,448.111 1176.51,456.936 1178.56,465.553 1180.62,463.44 1182.67,307.855 1184.72,282.947 1186.77,494.669 1188.83,495.021 1190.88,461.094 1192.93,202.273 1194.99,197.76 1197.04,247.166 1199.09,299.733 1201.15,347.999 1203.2,347.057 1205.25,347.386 1207.3,449.581 1209.36,443.008 1211.41,449.292 1213.46,468.605 1215.52,512.692 1217.57,547.508 1219.62,502.306 1221.67,500.821 1223.73,116.791 1225.78,111.074 1227.83,139.063 1229.89,140.75 1231.94,131.142 1233.99,104.051 1236.04,120.95 1238.1,119.954 1240.15,118.142 1242.2,131.789 1244.26,150.23 1246.31,151.483 1248.36,162.296 1250.41,175.787 1252.47,220.042 1254.52,390.896 1256.57,262.43 1258.63,437.913 1260.68,443.785 1262.73,462.961 1264.78,422.795 1266.84,428.387 1268.89,424.313 1270.94,426.103 1273,432.042 1275.05,437.92 1277.1,468.528 1279.16,467.211 1281.21,507.518 1283.26,513.321 1285.31,501.688 1287.37,459.941 1289.42,451.135 1291.47,453.714 1293.53,554.508 1295.58,552.142 1297.63,571.061 1299.68,569.093 1301.74,550.968 1303.79,523.054 1305.84,522.658 1307.9,520.865 1309.95,594.942 1312,555.057 1314.05,546.418 1316.11,371.9 1318.16,454.15 1320.21,512.354 1322.27,508.742 1324.32,486.269 1326.37,512.223 1328.42,558.025 1330.48,490.585 1332.53,591.037 1334.58,523.021 1336.64,531.804 1338.69,530.749 1340.74,536.531 1342.79,525.404 1344.85,476.224 1346.9,478.113 1348.95,480.353 1351.01,484.045 1353.06,474.924 1355.11,474.395 1357.16,581.679 1359.22,612.955 1361.27,582.469 1363.32,577.712 1365.38,628.872 1367.43,610.962 1369.48,569.262 1371.54,547.793 1373.59,536.313 1375.64,553.022 1377.69,362.609 1379.75,349.71 1381.8,431.736 1383.85,425.778 1385.91,491.462 1387.96,495.908 1390.01,497.12 1392.06,496.048 1394.12,506.456 1396.17,503.823 1398.22,543.688 1400.28,546.943 1402.33,443.369 1404.38,418.407 1406.43,319.744 1408.49,319.935 1410.54,317.786 1412.59,317.867 1414.65,315.763 1416.7,322.795 1418.75,318.348 1420.8,318.735 1422.86,287.24 1424.91,307.909 1426.96,355.975 1429.02,366.782 1431.07,411.288 1433.12,369.488 1435.17,374.389 1437.23,446.286 1439.28,369.09 1441.33,379.056 1443.39,182.689 1445.44,185.423 1447.49,187.568 1449.55,187.374 1451.6,455.016 1453.65,455.74 1455.7,454.06 1457.76,536.727 1459.81,537.973 1461.86,541.502 1463.92,541.037 1465.97,543.24 1468.02,570.677 1470.07,366.238 1472.13,369.305 1474.18,450.635 1476.23,361.403 1478.29,384.416 1480.34,399.572 1482.39,381.412 1484.44,353.361 1486.5,357.018 1488.55,350.765 1490.6,395.786 1492.66,395.486 1494.71,377.171 1496.76,376.612 1498.81,384.412 1500.87,398.333 1502.92,393.882 1504.97,411.294 1507.03,411.508 1509.08,485.014 1511.13,491.378 1513.18,480.427 1515.24,233.755 1517.29,257.939 1519.34,254.15 1521.4,247.537 1523.45,234.783 1525.5,239.8 1527.55,207.042 1529.61,229.451 1531.66,218.928 1533.71,292.825 1535.77,299.328 1537.82,293.012 1539.87,303.359 1541.93,304.933 1543.98,254.265 1546.03,268.015 1548.08,136.244 1550.14,126.768 1552.19,129.05 1554.24,151.712 1556.3,148.378 1558.35,103.367 1560.4,304.979 1562.45,312.354 1564.51,285.306 1566.56,285.075 1568.61,331.393 1570.67,297.083 1572.72,294.107 1574.77,357.101 1576.82,369.737 1578.88,375.301 1580.93,375.341 1582.98,378.491 1585.04,359.51 1587.09,215.785 1589.14,216.291 1591.19,243.892 1593.25,252.861 1595.3,261.624 1597.35,254.066 1599.41,266.669 1601.46,278.516 1603.51,292.058 1605.56,293.837 1607.62,307.688 1609.67,315.94 1611.72,305.181 1613.78,318.649 1615.83,328.078 1617.88,429.667 1619.94,428.465 1621.99,517.808 1624.04,517.406 1626.09,522.282 1628.15,522.848 1630.2,519.87 1632.25,539.46 1634.31,537.589 1636.36,518.095 1638.41,553.248 1640.46,551.203 1642.52,543.211 1644.57,544.241 1646.62,448.428 1648.68,448.405 1650.73,358.853 1652.78,358.98 1654.83,370.259 1656.89,361.827 1658.94,406.531 1660.99,407.175 1663.05,398.818 1665.1,402.294 1667.15,406.237 1669.2,389.786 1671.26,383.526 1673.31,382.117 1675.36,354.933 1677.42,337.121 1679.47,335.888 1681.52,339.467 1683.57,349.732 1685.63,335.046 1687.68,379.279 1689.73,341.724 1691.79,328.795 1693.84,326.879 1695.89,326.542 1697.94,346.094 1700,352.171 1702.05,357.634 1704.1,304.187 1706.16,331.316 1708.21,273.526 1710.26,260.329 1712.32,339.991 1714.37,343.155 1716.42,354.925 1718.47,382.874 1720.53,346.325 1722.58,340.257 1724.63,350.431 1726.69,352.248 1728.74,378.273 1730.79,315.512 1732.84,320.682 1734.9,381.288 1736.95,395.74 1739,388.467 1741.06,449.342 1743.11,449.633 1745.16,432.021 1747.21,432.463 1749.27,497.827 1751.32,435.785 1753.37,436.615 1755.43,409.749 1757.48,402.088 1759.53,462.098 1761.58,442.104 1763.64,336.741 1765.69,508.965 1767.74,241.085 1769.8,357.788 1771.85,354.91 1773.9,376.775 1775.95,366.045 1778.01,365.123 1780.06,382.441 1782.11,342.921 1784.17,344.661 1786.22,288.855 1788.27,320.267 1790.33,318.751 1792.38,315.284 1794.43,318.542 1796.48,329.761 1798.54,445.663 1800.59,412.89 1802.64,413.403 1804.7,445.828 1806.75,443.382 1808.8,414.215 1810.85,411.629 1812.91,407.673 1814.96,407.593 1817.01,400.912 1819.07,397.698 1821.12,321.079 1823.17,348.548 1825.22,344.4 1827.28,345.553 1829.33,345.225 1831.38,346.238 1833.44,327.657 1835.49,340.852 1837.54,347.095 1839.59,364.308 1841.65,382.521 1843.7,384.732 1845.75,402.398 1847.81,365.682 1849.86,362.157 1851.91,340.203 1853.96,351.628 1856.02,348.011 1858.07,348.106 1860.12,369.476 1862.18,369.729 1864.23,292.82 1866.28,422.929 1868.34,422.033 1870.39,408.147 1872.44,378.547 1874.49,373.606 1876.55,374.59 1878.6,377.549 1880.65,377.427 1882.71,372.823 1884.76,400.201 1886.81,409.815 1888.86,364.436 1890.92,346.239 1892.97,380.068 1895.02,378.792 1897.08,429.135 1899.13,443.784 1901.18,340.058 1903.23,301.619 1905.29,303.041 1907.34,304.798 1909.39,371.114 1911.45,365.203 1913.5,362.783 1915.55,362.837 1917.6,371.879 1919.66,377.006 1921.71,382.226 1923.76,390.322 1925.82,390.617 1927.87,383.069 1929.92,380.478 1931.97,380.435 1934.03,384.747 1936.08,388.741 1938.13,393.51 1940.19,393.473 1942.24,388.945 1944.29,388.796 1946.34,401.549 1948.4,398.434 1950.45,402.842 1952.5,412.883 1954.56,413.115 1956.61,348.51 1958.66,348.47 1960.72,345.495 1962.77,349.498 1964.82,341.144 1966.87,341.602 1968.93,339.533 1970.98,339.648 1973.03,384.334 1975.09,366.315 1977.14,354.34 1979.19,353.503 1981.24,353.764 1983.3,355.522 1985.35,355.74 1987.4,402.312 1989.46,361.216 1991.51,351.598 1993.56,336.172 1995.61,342.636 1997.67,338.96 1999.72,338.49 2001.77,339.661 2003.83,339.642 2005.88,311.837 2007.93,310.936 2009.98,307.395 2012.04,310.146 2014.09,306.49 2016.14,306.976 2018.2,308.72 2020.25,308.928 2022.3,313.068 2024.35,315.355 2026.41,326.6 2028.46,382.326 2030.51,387.985 2032.57,388.117 2034.62,408.386 2036.67,389.531 2038.73,382.588 2040.78,454.391 2042.83,446.344 2044.88,352.085 2046.94,353.11 2048.99,357.31 2051.04,357.379 2053.1,356.881 2055.15,355.691 2057.2,355.715 2059.25,370.052 2061.31,358.509 2063.36,355.717 2065.41,355.679 2067.47,356.106 2069.52,356.135 2071.57,354.723 2073.62,363.675 2075.68,391.165 2077.73,384.028 2079.78,375.601 2081.84,370.175 2083.89,379.455 2085.94,386.16 2087.99,386.391 2090.05,280.785 2092.1,251.617 2094.15,252.898 2096.21,258.033 2098.26,257.213 2100.31,257.22 2102.36,257.803 2104.42,306.037 2106.47,293.707 2108.52,294.144 2110.58,295.567 2112.63,302.196 2114.68,278.275 2116.73,225.197 2118.79,267.113 2120.84,327.024 2122.89,328.926 2124.95,341.04 2127,367.673 2129.05,366.185 2131.11,288.264 2133.16,286.279 2135.21,300.207 2137.26,439.385 2139.32,428.42 2141.37,424.625 2143.42,437.089 2145.48,435.824 2147.53,436.539 2149.58,436.504 2151.63,429.518 2153.69,433.809 2155.74,428.069 2157.79,429.497 2159.85,418.958 2161.9,401.275 2163.95,399.585 2166,402.095 2168.06,373.671 2170.11,376.459 2172.16,352.71 2174.22,352.431 2176.27,334.688 2178.32,333.193 2180.37,389.693 2182.43,389.645 2184.48,389.942 2186.53,452.093 2188.59,457.235 2190.64,431.15 2192.69,469.147 2194.74,513.461 2196.8,507.03 2198.85,516.295 2200.9,516.43 2202.96,518.16 2205.01,520.169 2207.06,436.96 2209.12,322.816 2211.17,323.207 2213.22,328.774 2215.27,392.503 2217.33,388.6 2219.38,371.15 2221.43,342.114 2223.49,364.296 2225.54,367.254 2227.59,361.534 2229.64,367.943 2231.7,337.822 2233.75,323.26 2235.8,320.959 2237.86,377.121 2239.91,382.128 2241.96,382.126 2244.01,389.278 2246.07,374.161 2248.12,408.684 2250.17,403.38 2252.23,370.446 2254.28,384.484 2256.33,412.453 2258.38,322.425 2260.44,328.398 2262.49,331.84 2264.54,315.978 2266.6,341.619 2268.65,344.002 2270.7,344.266 2272.75,342.196 2274.81,344.861 2276.86,298.965 2278.91,297.069 2280.97,297.174 2283.02,348.396 2285.07,335.053 2287.12,333.917 2289.18,329.828 2291.23,350.838 "/>
<path clip-path="url(#clip310)" d="M1983.6 172.231 L2280.29 172.231 L2280.29 68.5509 L1983.6 68.5509  Z" fill="#ffffff" fill-rule="evenodd" fill-opacity="1"/>
<polyline clip-path="url(#clip310)" style="stroke:#000000; stroke-linecap:round; stroke-linejoin:round; stroke-width:4; stroke-opacity:1; fill:none" points="1983.6,172.231 2280.29,172.231 2280.29,68.5509 1983.6,68.5509 1983.6,172.231 "/>
<polyline clip-path="url(#clip310)" style="stroke:#009af9; stroke-linecap:round; stroke-linejoin:round; stroke-width:4; stroke-opacity:1; fill:none" points="2007.75,120.391 2152.68,120.391 "/>
<path clip-path="url(#clip310)" d="M2176.83 103.111 L2181.51 103.111 L2181.51 133.736 L2198.34 133.736 L2198.34 137.671 L2176.83 137.671 L2176.83 103.111 Z" fill="#000000" fill-rule="nonzero" fill-opacity="1" /><path clip-path="url(#clip310)" d="M2223.96 104.245 L2223.96 108.805 Q2221.3 107.532 2218.94 106.907 Q2216.58 106.282 2214.38 106.282 Q2210.56 106.282 2208.48 107.764 Q2206.42 109.245 2206.42 111.977 Q2206.42 114.268 2207.78 115.449 Q2209.17 116.606 2213.01 117.324 L2215.84 117.902 Q2221.07 118.898 2223.55 121.421 Q2226.05 123.921 2226.05 128.134 Q2226.05 133.157 2222.67 135.75 Q2219.31 138.342 2212.81 138.342 Q2210.35 138.342 2207.57 137.787 Q2204.82 137.231 2201.86 136.143 L2201.86 131.328 Q2204.7 132.926 2207.44 133.736 Q2210.17 134.546 2212.81 134.546 Q2216.81 134.546 2218.99 132.972 Q2221.16 131.398 2221.16 128.481 Q2221.16 125.935 2219.59 124.5 Q2218.04 123.064 2214.47 122.347 L2211.62 121.791 Q2206.39 120.75 2204.06 118.527 Q2201.72 116.305 2201.72 112.347 Q2201.72 107.764 2204.94 105.125 Q2208.18 102.486 2213.85 102.486 Q2216.28 102.486 2218.8 102.926 Q2221.32 103.366 2223.96 104.245 Z" fill="#000000" fill-rule="nonzero" fill-opacity="1" /><path clip-path="url(#clip310)" d="M2254.06 104.245 L2254.06 108.805 Q2251.39 107.532 2249.03 106.907 Q2246.67 106.282 2244.47 106.282 Q2240.65 106.282 2238.57 107.764 Q2236.51 109.245 2236.51 111.977 Q2236.51 114.268 2237.87 115.449 Q2239.26 116.606 2243.11 117.324 L2245.93 117.902 Q2251.16 118.898 2253.64 121.421 Q2256.14 123.921 2256.14 128.134 Q2256.14 133.157 2252.76 135.75 Q2249.4 138.342 2242.9 138.342 Q2240.44 138.342 2237.67 137.787 Q2234.91 137.231 2231.95 136.143 L2231.95 131.328 Q2234.8 132.926 2237.53 133.736 Q2240.26 134.546 2242.9 134.546 Q2246.9 134.546 2249.08 132.972 Q2251.25 131.398 2251.25 128.481 Q2251.25 125.935 2249.68 124.5 Q2248.13 123.064 2244.56 122.347 L2241.72 121.791 Q2236.49 120.75 2234.15 118.527 Q2231.81 116.305 2231.81 112.347 Q2231.81 107.764 2235.03 105.125 Q2238.27 102.486 2243.94 102.486 Q2246.37 102.486 2248.89 102.926 Q2251.42 103.366 2254.06 104.245 Z" fill="#000000" fill-rule="nonzero" fill-opacity="1" /><path clip-path="url(#clip310)" d="M178.867 1486.45 L2352.76 1486.45 L2352.76 847.244 L178.867 847.244  Z" fill="#ffffff" fill-rule="evenodd" fill-opacity="1"/>
<defs>
  <clipPath id="clip313">
    <rect x="178" y="847" width="2175" height="640"/>
  </clipPath>
</defs>
<polyline clip-path="url(#clip313)" style="stroke:#000000; stroke-linecap:round; stroke-linejoin:round; stroke-width:2; stroke-opacity:0.1; fill:none" points="238.339,1486.45 238.339,847.244 "/>
<polyline clip-path="url(#clip313)" style="stroke:#000000; stroke-linecap:round; stroke-linejoin:round; stroke-width:2; stroke-opacity:0.1; fill:none" points="751.562,1486.45 751.562,847.244 "/>
<polyline clip-path="url(#clip313)" style="stroke:#000000; stroke-linecap:round; stroke-linejoin:round; stroke-width:2; stroke-opacity:0.1; fill:none" points="1264.78,1486.45 1264.78,847.244 "/>
<polyline clip-path="url(#clip313)" style="stroke:#000000; stroke-linecap:round; stroke-linejoin:round; stroke-width:2; stroke-opacity:0.1; fill:none" points="1778.01,1486.45 1778.01,847.244 "/>
<polyline clip-path="url(#clip313)" style="stroke:#000000; stroke-linecap:round; stroke-linejoin:round; stroke-width:2; stroke-opacity:0.1; fill:none" points="2291.23,1486.45 2291.23,847.244 "/>
<polyline clip-path="url(#clip313)" style="stroke:#000000; stroke-linecap:round; stroke-linejoin:round; stroke-width:2; stroke-opacity:0.1; fill:none" points="178.867,1486.45 2352.76,1486.45 "/>
<polyline clip-path="url(#clip313)" style="stroke:#000000; stroke-linecap:round; stroke-linejoin:round; stroke-width:2; stroke-opacity:0.1; fill:none" points="178.867,1326.65 2352.76,1326.65 "/>
<polyline clip-path="url(#clip313)" style="stroke:#000000; stroke-linecap:round; stroke-linejoin:round; stroke-width:2; stroke-opacity:0.1; fill:none" points="178.867,1166.85 2352.76,1166.85 "/>
<polyline clip-path="url(#clip313)" style="stroke:#000000; stroke-linecap:round; stroke-linejoin:round; stroke-width:2; stroke-opacity:0.1; fill:none" points="178.867,1007.05 2352.76,1007.05 "/>
<polyline clip-path="url(#clip313)" style="stroke:#000000; stroke-linecap:round; stroke-linejoin:round; stroke-width:2; stroke-opacity:0.1; fill:none" points="178.867,847.244 2352.76,847.244 "/>
<polyline clip-path="url(#clip310)" style="stroke:#000000; stroke-linecap:round; stroke-linejoin:round; stroke-width:4; stroke-opacity:1; fill:none" points="178.867,1486.45 2352.76,1486.45 "/>
<polyline clip-path="url(#clip310)" style="stroke:#000000; stroke-linecap:round; stroke-linejoin:round; stroke-width:4; stroke-opacity:1; fill:none" points="238.339,1486.45 238.339,1467.55 "/>
<polyline clip-path="url(#clip310)" style="stroke:#000000; stroke-linecap:round; stroke-linejoin:round; stroke-width:4; stroke-opacity:1; fill:none" points="751.562,1486.45 751.562,1467.55 "/>
<polyline clip-path="url(#clip310)" style="stroke:#000000; stroke-linecap:round; stroke-linejoin:round; stroke-width:4; stroke-opacity:1; fill:none" points="1264.78,1486.45 1264.78,1467.55 "/>
<polyline clip-path="url(#clip310)" style="stroke:#000000; stroke-linecap:round; stroke-linejoin:round; stroke-width:4; stroke-opacity:1; fill:none" points="1778.01,1486.45 1778.01,1467.55 "/>
<polyline clip-path="url(#clip310)" style="stroke:#000000; stroke-linecap:round; stroke-linejoin:round; stroke-width:4; stroke-opacity:1; fill:none" points="2291.23,1486.45 2291.23,1467.55 "/>
<path clip-path="url(#clip310)" d="M238.339 1517.37 Q234.728 1517.37 232.899 1520.93 Q231.094 1524.47 231.094 1531.6 Q231.094 1538.71 232.899 1542.27 Q234.728 1545.82 238.339 1545.82 Q241.973 1545.82 243.779 1542.27 Q245.607 1538.71 245.607 1531.6 Q245.607 1524.47 243.779 1520.93 Q241.973 1517.37 238.339 1517.37 M238.339 1513.66 Q244.149 1513.66 247.205 1518.27 Q250.283 1522.85 250.283 1531.6 Q250.283 1540.33 247.205 1544.94 Q244.149 1549.52 238.339 1549.52 Q232.529 1549.52 229.45 1544.94 Q226.395 1540.33 226.395 1531.6 Q226.395 1522.85 229.45 1518.27 Q232.529 1513.66 238.339 1513.66 Z" fill="#000000" fill-rule="nonzero" fill-opacity="1" /><path clip-path="url(#clip310)" d="M715.254 1544.91 L731.574 1544.91 L731.574 1548.85 L709.629 1548.85 L709.629 1544.91 Q712.291 1542.16 716.875 1537.53 Q721.481 1532.88 722.662 1531.53 Q724.907 1529.01 725.787 1527.27 Q726.689 1525.51 726.689 1523.82 Q726.689 1521.07 724.745 1519.33 Q722.824 1517.6 719.722 1517.6 Q717.523 1517.6 715.069 1518.36 Q712.638 1519.13 709.861 1520.68 L709.861 1515.95 Q712.685 1514.82 715.138 1514.24 Q717.592 1513.66 719.629 1513.66 Q725 1513.66 728.194 1516.35 Q731.388 1519.03 731.388 1523.52 Q731.388 1525.65 730.578 1527.57 Q729.791 1529.47 727.685 1532.07 Q727.106 1532.74 724.004 1535.95 Q720.902 1539.15 715.254 1544.91 Z" fill="#000000" fill-rule="nonzero" fill-opacity="1" /><path clip-path="url(#clip310)" d="M741.435 1514.29 L759.791 1514.29 L759.791 1518.22 L745.717 1518.22 L745.717 1526.7 Q746.736 1526.35 747.754 1526.19 Q748.773 1526 749.791 1526 Q755.578 1526 758.958 1529.17 Q762.337 1532.34 762.337 1537.76 Q762.337 1543.34 758.865 1546.44 Q755.393 1549.52 749.073 1549.52 Q746.898 1549.52 744.629 1549.15 Q742.384 1548.78 739.976 1548.04 L739.976 1543.34 Q742.06 1544.47 744.282 1545.03 Q746.504 1545.58 748.981 1545.58 Q752.985 1545.58 755.323 1543.48 Q757.661 1541.37 757.661 1537.76 Q757.661 1534.15 755.323 1532.04 Q752.985 1529.94 748.981 1529.94 Q747.106 1529.94 745.231 1530.35 Q743.379 1530.77 741.435 1531.65 L741.435 1514.29 Z" fill="#000000" fill-rule="nonzero" fill-opacity="1" /><path clip-path="url(#clip310)" d="M781.55 1517.37 Q777.939 1517.37 776.11 1520.93 Q774.305 1524.47 774.305 1531.6 Q774.305 1538.71 776.11 1542.27 Q777.939 1545.82 781.55 1545.82 Q785.184 1545.82 786.99 1542.27 Q788.819 1538.71 788.819 1531.6 Q788.819 1524.47 786.99 1520.93 Q785.184 1517.37 781.55 1517.37 M781.55 1513.66 Q787.36 1513.66 790.416 1518.27 Q793.495 1522.85 793.495 1531.6 Q793.495 1540.33 790.416 1544.94 Q787.36 1549.52 781.55 1549.52 Q775.74 1549.52 772.661 1544.94 Q769.606 1540.33 769.606 1531.6 Q769.606 1522.85 772.661 1518.27 Q775.74 1513.66 781.55 1513.66 Z" fill="#000000" fill-rule="nonzero" fill-opacity="1" /><path clip-path="url(#clip310)" d="M1224.4 1514.29 L1242.76 1514.29 L1242.76 1518.22 L1228.69 1518.22 L1228.69 1526.7 Q1229.7 1526.35 1230.72 1526.19 Q1231.74 1526 1232.76 1526 Q1238.55 1526 1241.93 1529.17 Q1245.31 1532.34 1245.31 1537.76 Q1245.31 1543.34 1241.83 1546.44 Q1238.36 1549.52 1232.04 1549.52 Q1229.87 1549.52 1227.6 1549.15 Q1225.35 1548.78 1222.94 1548.04 L1222.94 1543.34 Q1225.03 1544.47 1227.25 1545.03 Q1229.47 1545.58 1231.95 1545.58 Q1235.95 1545.58 1238.29 1543.48 Q1240.63 1541.37 1240.63 1537.76 Q1240.63 1534.15 1238.29 1532.04 Q1235.95 1529.94 1231.95 1529.94 Q1230.07 1529.94 1228.2 1530.35 Q1226.35 1530.77 1224.4 1531.65 L1224.4 1514.29 Z" fill="#000000" fill-rule="nonzero" fill-opacity="1" /><path clip-path="url(#clip310)" d="M1264.52 1517.37 Q1260.91 1517.37 1259.08 1520.93 Q1257.27 1524.47 1257.27 1531.6 Q1257.27 1538.71 1259.08 1542.27 Q1260.91 1545.82 1264.52 1545.82 Q1268.15 1545.82 1269.96 1542.27 Q1271.79 1538.71 1271.79 1531.6 Q1271.79 1524.47 1269.96 1520.93 Q1268.15 1517.37 1264.52 1517.37 M1264.52 1513.66 Q1270.33 1513.66 1273.38 1518.27 Q1276.46 1522.85 1276.46 1531.6 Q1276.46 1540.33 1273.38 1544.94 Q1270.33 1549.52 1264.52 1549.52 Q1258.71 1549.52 1255.63 1544.94 Q1252.57 1540.33 1252.57 1531.6 Q1252.57 1522.85 1255.63 1518.27 Q1258.71 1513.66 1264.52 1513.66 Z" fill="#000000" fill-rule="nonzero" fill-opacity="1" /><path clip-path="url(#clip310)" d="M1294.68 1517.37 Q1291.07 1517.37 1289.24 1520.93 Q1287.44 1524.47 1287.44 1531.6 Q1287.44 1538.71 1289.24 1542.27 Q1291.07 1545.82 1294.68 1545.82 Q1298.31 1545.82 1300.12 1542.27 Q1301.95 1538.71 1301.95 1531.6 Q1301.95 1524.47 1300.12 1520.93 Q1298.31 1517.37 1294.68 1517.37 M1294.68 1513.66 Q1300.49 1513.66 1303.55 1518.27 Q1306.62 1522.85 1306.62 1531.6 Q1306.62 1540.33 1303.55 1544.94 Q1300.49 1549.52 1294.68 1549.52 Q1288.87 1549.52 1285.79 1544.94 Q1282.74 1540.33 1282.74 1531.6 Q1282.74 1522.85 1285.79 1518.27 Q1288.87 1513.66 1294.68 1513.66 Z" fill="#000000" fill-rule="nonzero" fill-opacity="1" /><path clip-path="url(#clip310)" d="M1736.28 1514.29 L1758.51 1514.29 L1758.51 1516.28 L1745.96 1548.85 L1741.08 1548.85 L1752.88 1518.22 L1736.28 1518.22 L1736.28 1514.29 Z" fill="#000000" fill-rule="nonzero" fill-opacity="1" /><path clip-path="url(#clip310)" d="M1767.67 1514.29 L1786.03 1514.29 L1786.03 1518.22 L1771.95 1518.22 L1771.95 1526.7 Q1772.97 1526.35 1773.99 1526.19 Q1775.01 1526 1776.03 1526 Q1781.82 1526 1785.2 1529.17 Q1788.57 1532.34 1788.57 1537.76 Q1788.57 1543.34 1785.1 1546.44 Q1781.63 1549.52 1775.31 1549.52 Q1773.14 1549.52 1770.87 1549.15 Q1768.62 1548.78 1766.21 1548.04 L1766.21 1543.34 Q1768.3 1544.47 1770.52 1545.03 Q1772.74 1545.58 1775.22 1545.58 Q1779.22 1545.58 1781.56 1543.48 Q1783.9 1541.37 1783.9 1537.76 Q1783.9 1534.15 1781.56 1532.04 Q1779.22 1529.94 1775.22 1529.94 Q1773.34 1529.94 1771.47 1530.35 Q1769.62 1530.77 1767.67 1531.65 L1767.67 1514.29 Z" fill="#000000" fill-rule="nonzero" fill-opacity="1" /><path clip-path="url(#clip310)" d="M1807.79 1517.37 Q1804.18 1517.37 1802.35 1520.93 Q1800.54 1524.47 1800.54 1531.6 Q1800.54 1538.71 1802.35 1542.27 Q1804.18 1545.82 1807.79 1545.82 Q1811.42 1545.82 1813.23 1542.27 Q1815.06 1538.71 1815.06 1531.6 Q1815.06 1524.47 1813.23 1520.93 Q1811.42 1517.37 1807.79 1517.37 M1807.79 1513.66 Q1813.6 1513.66 1816.65 1518.27 Q1819.73 1522.85 1819.73 1531.6 Q1819.73 1540.33 1816.65 1544.94 Q1813.6 1549.52 1807.79 1549.52 Q1801.98 1549.52 1798.9 1544.94 Q1795.84 1540.33 1795.84 1531.6 Q1795.84 1522.85 1798.9 1518.27 Q1801.98 1513.66 1807.79 1513.66 Z" fill="#000000" fill-rule="nonzero" fill-opacity="1" /><path clip-path="url(#clip310)" d="M2235.76 1544.91 L2243.4 1544.91 L2243.4 1518.55 L2235.09 1520.21 L2235.09 1515.95 L2243.35 1514.29 L2248.02 1514.29 L2248.02 1544.91 L2255.66 1544.91 L2255.66 1548.85 L2235.76 1548.85 L2235.76 1544.91 Z" fill="#000000" fill-rule="nonzero" fill-opacity="1" /><path clip-path="url(#clip310)" d="M2275.11 1517.37 Q2271.5 1517.37 2269.67 1520.93 Q2267.86 1524.47 2267.86 1531.6 Q2267.86 1538.71 2269.67 1542.27 Q2271.5 1545.82 2275.11 1545.82 Q2278.74 1545.82 2280.55 1542.27 Q2282.38 1538.71 2282.38 1531.6 Q2282.38 1524.47 2280.55 1520.93 Q2278.74 1517.37 2275.11 1517.37 M2275.11 1513.66 Q2280.92 1513.66 2283.97 1518.27 Q2287.05 1522.85 2287.05 1531.6 Q2287.05 1540.33 2283.97 1544.94 Q2280.92 1549.52 2275.11 1549.52 Q2269.3 1549.52 2266.22 1544.94 Q2263.16 1540.33 2263.16 1531.6 Q2263.16 1522.85 2266.22 1518.27 Q2269.3 1513.66 2275.11 1513.66 Z" fill="#000000" fill-rule="nonzero" fill-opacity="1" /><path clip-path="url(#clip310)" d="M2305.27 1517.37 Q2301.66 1517.37 2299.83 1520.93 Q2298.02 1524.47 2298.02 1531.6 Q2298.02 1538.71 2299.83 1542.27 Q2301.66 1545.82 2305.27 1545.82 Q2308.9 1545.82 2310.71 1542.27 Q2312.54 1538.71 2312.54 1531.6 Q2312.54 1524.47 2310.71 1520.93 Q2308.9 1517.37 2305.27 1517.37 M2305.27 1513.66 Q2311.08 1513.66 2314.14 1518.27 Q2317.21 1522.85 2317.21 1531.6 Q2317.21 1540.33 2314.14 1544.94 Q2311.08 1549.52 2305.27 1549.52 Q2299.46 1549.52 2296.38 1544.94 Q2293.33 1540.33 2293.33 1531.6 Q2293.33 1522.85 2296.38 1518.27 Q2299.46 1513.66 2305.27 1513.66 Z" fill="#000000" fill-rule="nonzero" fill-opacity="1" /><path clip-path="url(#clip310)" d="M2335.43 1517.37 Q2331.82 1517.37 2329.99 1520.93 Q2328.19 1524.47 2328.19 1531.6 Q2328.19 1538.71 2329.99 1542.27 Q2331.82 1545.82 2335.43 1545.82 Q2339.07 1545.82 2340.87 1542.27 Q2342.7 1538.71 2342.7 1531.6 Q2342.7 1524.47 2340.87 1520.93 Q2339.07 1517.37 2335.43 1517.37 M2335.43 1513.66 Q2341.24 1513.66 2344.3 1518.27 Q2347.38 1522.85 2347.38 1531.6 Q2347.38 1540.33 2344.3 1544.94 Q2341.24 1549.52 2335.43 1549.52 Q2329.62 1549.52 2326.54 1544.94 Q2323.49 1540.33 2323.49 1531.6 Q2323.49 1522.85 2326.54 1518.27 Q2329.62 1513.66 2335.43 1513.66 Z" fill="#000000" fill-rule="nonzero" fill-opacity="1" /><polyline clip-path="url(#clip310)" style="stroke:#000000; stroke-linecap:round; stroke-linejoin:round; stroke-width:4; stroke-opacity:1; fill:none" points="178.867,1486.45 178.867,847.244 "/>
<polyline clip-path="url(#clip310)" style="stroke:#000000; stroke-linecap:round; stroke-linejoin:round; stroke-width:4; stroke-opacity:1; fill:none" points="178.867,1486.45 197.764,1486.45 "/>
<polyline clip-path="url(#clip310)" style="stroke:#000000; stroke-linecap:round; stroke-linejoin:round; stroke-width:4; stroke-opacity:1; fill:none" points="178.867,1326.65 197.764,1326.65 "/>
<polyline clip-path="url(#clip310)" style="stroke:#000000; stroke-linecap:round; stroke-linejoin:round; stroke-width:4; stroke-opacity:1; fill:none" points="178.867,1166.85 197.764,1166.85 "/>
<polyline clip-path="url(#clip310)" style="stroke:#000000; stroke-linecap:round; stroke-linejoin:round; stroke-width:4; stroke-opacity:1; fill:none" points="178.867,1007.05 197.764,1007.05 "/>
<polyline clip-path="url(#clip310)" style="stroke:#000000; stroke-linecap:round; stroke-linejoin:round; stroke-width:4; stroke-opacity:1; fill:none" points="178.867,847.244 197.764,847.244 "/>
<path clip-path="url(#clip310)" d="M50.9921 1486.9 L80.6679 1486.9 L80.6679 1490.83 L50.9921 1490.83 L50.9921 1486.9 Z" fill="#000000" fill-rule="nonzero" fill-opacity="1" /><path clip-path="url(#clip310)" d="M91.5706 1499.79 L99.2095 1499.79 L99.2095 1473.43 L90.8993 1475.09 L90.8993 1470.83 L99.1632 1469.17 L103.839 1469.17 L103.839 1499.79 L111.478 1499.79 L111.478 1503.73 L91.5706 1503.73 L91.5706 1499.79 Z" fill="#000000" fill-rule="nonzero" fill-opacity="1" /><path clip-path="url(#clip310)" d="M130.922 1472.25 Q127.311 1472.25 125.482 1475.81 Q123.677 1479.35 123.677 1486.48 Q123.677 1493.59 125.482 1497.15 Q127.311 1500.7 130.922 1500.7 Q134.556 1500.7 136.362 1497.15 Q138.191 1493.59 138.191 1486.48 Q138.191 1479.35 136.362 1475.81 Q134.556 1472.25 130.922 1472.25 M130.922 1468.54 Q136.732 1468.54 139.788 1473.15 Q142.867 1477.73 142.867 1486.48 Q142.867 1495.21 139.788 1499.82 Q136.732 1504.4 130.922 1504.4 Q125.112 1504.4 122.033 1499.82 Q118.978 1495.21 118.978 1486.48 Q118.978 1477.73 122.033 1473.15 Q125.112 1468.54 130.922 1468.54 Z" fill="#000000" fill-rule="nonzero" fill-opacity="1" /><path clip-path="url(#clip310)" d="M82.1494 1327.1 L111.825 1327.1 L111.825 1331.03 L82.1494 1331.03 L82.1494 1327.1 Z" fill="#000000" fill-rule="nonzero" fill-opacity="1" /><path clip-path="url(#clip310)" d="M121.964 1309.37 L140.32 1309.37 L140.32 1313.3 L126.246 1313.3 L126.246 1321.77 Q127.265 1321.43 128.283 1321.27 Q129.302 1321.08 130.32 1321.08 Q136.107 1321.08 139.487 1324.25 Q142.867 1327.42 142.867 1332.84 Q142.867 1338.42 139.394 1341.52 Q135.922 1344.6 129.603 1344.6 Q127.427 1344.6 125.158 1344.23 Q122.913 1343.86 120.506 1343.12 L120.506 1338.42 Q122.589 1339.55 124.811 1340.11 Q127.033 1340.66 129.51 1340.66 Q133.515 1340.66 135.853 1338.56 Q138.191 1336.45 138.191 1332.84 Q138.191 1329.23 135.853 1327.12 Q133.515 1325.01 129.51 1325.01 Q127.635 1325.01 125.76 1325.43 Q123.908 1325.85 121.964 1326.73 L121.964 1309.37 Z" fill="#000000" fill-rule="nonzero" fill-opacity="1" /><path clip-path="url(#clip310)" d="M130.922 1152.64 Q127.311 1152.64 125.482 1156.21 Q123.677 1159.75 123.677 1166.88 Q123.677 1173.99 125.482 1177.55 Q127.311 1181.09 130.922 1181.09 Q134.556 1181.09 136.362 1177.55 Q138.191 1173.99 138.191 1166.88 Q138.191 1159.75 136.362 1156.21 Q134.556 1152.64 130.922 1152.64 M130.922 1148.94 Q136.732 1148.94 139.788 1153.55 Q142.867 1158.13 142.867 1166.88 Q142.867 1175.61 139.788 1180.21 Q136.732 1184.8 130.922 1184.8 Q125.112 1184.8 122.033 1180.21 Q118.978 1175.61 118.978 1166.88 Q118.978 1158.13 122.033 1153.55 Q125.112 1148.94 130.922 1148.94 Z" fill="#000000" fill-rule="nonzero" fill-opacity="1" /><path clip-path="url(#clip310)" d="M121.964 989.765 L140.32 989.765 L140.32 993.7 L126.246 993.7 L126.246 1002.17 Q127.265 1001.83 128.283 1001.66 Q129.302 1001.48 130.32 1001.48 Q136.107 1001.48 139.487 1004.65 Q142.867 1007.82 142.867 1013.24 Q142.867 1018.82 139.394 1021.92 Q135.922 1025 129.603 1025 Q127.427 1025 125.158 1024.63 Q122.913 1024.26 120.506 1023.51 L120.506 1018.82 Q122.589 1019.95 124.811 1020.51 Q127.033 1021.06 129.51 1021.06 Q133.515 1021.06 135.853 1018.95 Q138.191 1016.85 138.191 1013.24 Q138.191 1009.63 135.853 1007.52 Q133.515 1005.41 129.51 1005.41 Q127.635 1005.41 125.76 1005.83 Q123.908 1006.25 121.964 1007.13 L121.964 989.765 Z" fill="#000000" fill-rule="nonzero" fill-opacity="1" /><path clip-path="url(#clip310)" d="M91.5706 860.589 L99.2095 860.589 L99.2095 834.223 L90.8993 835.89 L90.8993 831.631 L99.1632 829.964 L103.839 829.964 L103.839 860.589 L111.478 860.589 L111.478 864.524 L91.5706 864.524 L91.5706 860.589 Z" fill="#000000" fill-rule="nonzero" fill-opacity="1" /><path clip-path="url(#clip310)" d="M130.922 833.043 Q127.311 833.043 125.482 836.608 Q123.677 840.149 123.677 847.279 Q123.677 854.385 125.482 857.95 Q127.311 861.492 130.922 861.492 Q134.556 861.492 136.362 857.95 Q138.191 854.385 138.191 847.279 Q138.191 840.149 136.362 836.608 Q134.556 833.043 130.922 833.043 M130.922 829.339 Q136.732 829.339 139.788 833.946 Q142.867 838.529 142.867 847.279 Q142.867 856.006 139.788 860.612 Q136.732 865.195 130.922 865.195 Q125.112 865.195 122.033 860.612 Q118.978 856.006 118.978 847.279 Q118.978 838.529 122.033 833.946 Q125.112 829.339 130.922 829.339 Z" fill="#000000" fill-rule="nonzero" fill-opacity="1" /><polyline clip-path="url(#clip313)" style="stroke:#009af9; stroke-linecap:round; stroke-linejoin:round; stroke-width:4; stroke-opacity:1; fill:none" points="240.392,1134.89 242.445,1127.62 244.498,1130.3 246.55,1200.2 248.603,1088.94 250.656,1180.13 252.709,1153.34 254.762,1161.8 256.815,1129.6 258.868,1153.18 260.921,1161.89 262.974,1162.92 265.027,1158.81 267.079,1264.78 269.132,1176.01 271.185,1286.49 273.238,1135.65 275.291,1171.08 277.344,1368.24 279.397,1044.21 281.45,1121.98 283.503,1031.84 285.555,1222.26 287.608,1251.53 289.661,1231.9 291.714,1142.14 293.767,1207.29 295.82,1095.73 297.873,1222.62 299.926,1168.31 301.979,1111.3 304.031,1204.85 306.084,1192.47 308.137,987.578 310.19,1162.6 312.243,1163.13 314.296,1169.45 316.349,1147.93 318.402,1169.55 320.455,1182.65 322.507,1140.14 324.56,1152.07 326.613,1171.52 328.666,1127.32 330.719,1202.53 332.772,1210.93 334.825,1135.17 336.878,1317.48 338.931,1376.36 340.984,910.526 343.036,1431.46 345.089,1497.03 347.142,1194.55 349.195,1149.74 351.248,1149.17 353.301,1193.14 355.354,1102.08 357.407,1119.29 359.46,1183.09 361.512,1161.44 363.565,1186.97 365.618,1088.01 367.671,1126.36 369.724,1160.05 371.777,1174.47 373.83,1150.37 375.883,1221.75 377.936,1075.67 379.988,1066.38 382.041,1038.62 384.094,2485.98 386.147,1726.59 388.2,676.361 390.253,1006.9 392.306,975.638 394.359,1030.43 396.412,1013.17 398.464,1102.28 400.517,1210.63 402.57,1180.31 404.623,1197.05 406.676,1037.85 408.729,1300.31 410.782,1123.33 412.835,1188.05 414.888,1163.91 416.94,1171.43 418.993,1140.39 421.046,1224.27 423.099,1050.92 425.152,1134.65 427.205,1131.97 429.258,1187.01 431.311,1184.4 433.364,1167 435.417,1204.76 437.469,1136.77 439.522,1199.19 441.575,1182.43 443.628,1182.91 445.681,1118.57 447.734,1131.71 449.787,1186.24 451.84,1145.51 453.893,1159.24 455.945,1134.03 457.998,1095.46 460.051,1112 462.104,1168.48 464.157,1145.12 466.21,1169.73 468.263,1248.15 470.316,1198.41 472.369,1176.64 474.421,1171.87 476.474,1232.39 478.527,1157.08 480.58,1145.5 482.633,1170.54 484.686,1173.77 486.739,1156.78 488.792,1185.35 490.845,1207.38 492.897,1088.41 494.95,1145.01 497.003,1213.68 499.056,1165.98 501.109,1174.99 503.162,1200.21 505.215,1183.8 507.268,1196.07 509.321,1216.85 511.374,1635.55 513.426,1010.54 515.479,1156.75 517.532,1148.23 519.585,1159.73 521.638,1151.66 523.691,1146.8 525.744,1117.51 527.797,1239.23 529.85,1214 531.902,1160.66 533.955,1058.73 536.008,1204.35 538.061,1218.26 540.114,1146.91 542.167,1178.08 544.22,1189.24 546.273,1111.99 548.326,1124.42 550.378,1171.4 552.431,1222.31 554.484,1221.82 556.537,1095.56 558.59,1609.88 560.643,1470.76 562.696,1253.74 564.749,1147.72 566.802,946.484 568.854,1237.39 570.907,1183.82 572.96,1128.08 575.013,1193.49 577.066,1201.51 579.119,1065.48 581.172,1278.61 583.225,1191.25 585.278,1160.02 587.331,1162.82 589.383,1162.5 591.436,1155.22 593.489,1375.56 595.542,1151.67 597.595,1374.84 599.648,1279.32 601.701,1080.97 603.754,961.271 605.807,1171.24 607.859,1158.73 609.912,1192.37 611.965,1167.22 614.018,1173.82 616.071,1142.88 618.124,1162.81 620.177,1099.06 622.23,1046.15 624.283,1189.71 626.335,1265.33 628.388,984.061 630.441,1252.82 632.494,1201.27 634.547,1233.7 636.6,1226.88 638.653,1302.61 640.706,1203.27 642.759,1053.19 644.811,1182.68 646.864,1161.8 648.917,1126.04 650.97,1163.36 653.023,1156.7 655.076,1153.68 657.129,1196.05 659.182,1156.33 661.235,1170.41 663.288,1170.52 665.34,1209.97 667.393,1152.2 669.446,1163.14 671.499,1183.96 673.552,1119.77 675.605,1164.92 677.658,1153 679.711,1183.71 681.764,1056.21 683.816,1020.07 685.869,892.196 687.922,1469.62 689.975,1265.49 692.028,1144.85 694.081,1197.86 696.134,1154.27 698.187,1161.6 700.24,1106.51 702.292,1167.05 704.345,1181.29 706.398,1177.97 708.451,1179.34 710.504,1140.63 712.557,1290.94 714.61,1278.37 716.663,1178.98 718.716,1173.59 720.768,1167.13 722.821,1176.58 724.874,1114.88 726.927,1147.52 728.98,1135.49 731.033,1182.71 733.086,1186.51 735.139,1183.15 737.192,1170.55 739.245,1149.9 741.297,1147.26 743.35,1102.15 745.403,1161.73 747.456,1178.74 749.509,1118.27 751.562,1094.23 753.615,1249.51 755.668,1047.81 757.721,1175.21 759.773,1204.07 761.826,1610.55 763.879,1035.11 765.932,1060.94 767.985,1036.52 770.038,1151.08 772.091,1191.22 774.144,1158.62 776.197,1185.82 778.249,1231.13 780.302,1139.94 782.355,1170.67 784.408,1167.64 786.461,1171.41 788.514,1163.82 790.567,1167.97 792.62,1162.28 794.673,962.33 796.725,1156.41 798.778,1179.41 800.831,1171.37 802.884,1163.36 804.937,1176.61 806.99,1212.14 809.043,1072.42 811.096,1117.51 813.149,1120.19 815.202,1108.39 817.254,1153.07 819.307,1175.95 821.36,1164.35 823.413,1136.78 825.466,1471.91 827.519,1600.8 829.572,855.783 831.625,1295.31 833.678,1066.08 835.73,1004.19 837.783,917.459 839.836,925.286 841.889,1129.94 843.942,1163.42 845.995,1148.42 848.048,1178.78 850.101,1228.38 852.154,1178.24 854.206,1166.42 856.259,1156.43 858.312,1182.31 860.365,1060.48 862.418,1105.15 864.471,955.7 866.524,1153.66 868.577,1063.79 870.63,1557.8 872.682,1472.47 874.735,1503.04 876.788,1086.7 878.841,1121.49 880.894,1268.59 882.947,1423.6 885,-242.054 887.053,-757.59 889.106,-4523.34 891.159,7318.88 893.211,-7256.02 895.264,-8939.65 897.317,13268 899.37,12006.4 901.423,12969.1 903.476,7047.67 905.529,1106.98 907.582,13577.8 909.635,-4521.21 911.687,-1485.07 913.74,1607.21 915.793,1191.46 917.846,1044.83 919.899,1211.47 921.952,1090.71 924.005,1552.17 926.058,335.312 928.111,1641.78 930.163,682.142 932.216,1496.54 934.269,1258.23 936.322,1800.86 938.375,1332 940.428,1638.05 942.481,1269.03 944.534,1158.36 946.587,1200.74 948.639,1141.77 950.692,1212.38 952.745,1121.33 954.798,1185.84 956.851,1156.62 958.904,1290.91 960.957,1402.54 963.01,964.34 965.063,1259.23 967.116,456.284 969.168,1129.24 971.221,1146.36 973.274,1154.25 975.327,1175.11 977.38,1177.28 979.433,1306 981.486,1423.18 983.539,1395.29 985.592,966.146 987.644,1218.47 989.697,1146.21 991.75,1192.71 993.803,1098.52 995.856,1161.52 997.909,1136.95 999.962,1153.24 1002.01,1169.54 1004.07,1159.95 1006.12,1143.74 1008.17,1183.68 1010.23,1160.73 1012.28,1232.21 1014.33,1222.6 1016.38,960.396 1018.44,1165 1020.49,1149.65 1022.54,1158.25 1024.6,1178.57 1026.65,1135.79 1028.7,1146.85 1030.76,1134.24 1032.81,1234.11 1034.86,1271.84 1036.91,1250.98 1038.97,1120.28 1041.02,1193.83 1043.07,1178.05 1045.13,1156.99 1047.18,1183.32 1049.23,1177.56 1051.28,1156.92 1053.34,1213.62 1055.39,1181.21 1057.44,1190.31 1059.5,1253.7 1061.55,851.058 1063.6,1423.93 1065.65,1075.07 1067.71,1157.85 1069.76,1191.94 1071.81,1022.67 1073.87,1237.62 1075.92,1158.21 1077.97,1175.6 1080.02,1086.76 1082.08,1175.33 1084.13,1189.14 1086.18,1177.33 1088.24,1152.71 1090.29,1164.2 1092.34,1157.87 1094.39,1167.12 1096.45,1153.5 1098.5,1033.54 1100.55,1146.9 1102.61,1195.52 1104.66,1185.39 1106.71,1159.82 1108.77,994.474 1110.82,1309.29 1112.87,1377.9 1114.92,1366.7 1116.98,1186.26 1119.03,1305.8 1121.08,1256.76 1123.14,1116.3 1125.19,1128.79 1127.24,1129.14 1129.29,1140.25 1131.35,1161.69 1133.4,1163.93 1135.45,1166 1137.51,1164.35 1139.56,1214.69 1141.61,1151.17 1143.66,991.795 1145.72,1236.51 1147.77,1520.32 1149.82,1156.39 1151.88,1140.64 1153.93,1133.15 1155.98,1118.59 1158.03,1168.9 1160.09,1188.26 1162.14,1166.76 1164.19,1180.45 1166.25,1127.79 1168.3,1092.45 1170.35,1185.01 1172.4,1143.3 1174.46,1178.23 1176.51,1223.5 1178.56,1088.93 1180.62,1138.72 1182.67,1155.71 1184.72,1152.39 1186.77,1180.84 1188.83,1162.65 1190.88,1160.74 1192.93,1149.68 1194.99,1108.73 1197.04,1152.27 1199.09,1176.13 1201.15,1170.64 1203.2,1160.68 1205.25,1126.77 1207.3,1226.3 1209.36,1182.64 1211.41,1153.42 1213.46,1143.04 1215.52,1173.74 1217.57,1161.62 1219.62,1106.29 1221.67,1269.77 1223.73,1008.6 1225.78,1233.26 1227.83,1211.38 1229.89,1084 1231.94,1217.38 1233.99,1134.45 1236.04,1170.35 1238.1,1148.15 1240.15,1214.59 1242.2,1179.59 1244.26,1097.44 1246.31,1233.62 1248.36,1089.37 1250.41,1126.96 1252.47,1217.73 1254.52,1203.65 1256.57,1190.95 1258.63,1182.37 1260.68,1162.04 1262.73,1167.43 1264.78,1163.09 1266.84,1205.87 1268.89,1157.73 1270.94,1193.86 1273,1133.25 1275.05,1154.63 1277.1,1116.22 1279.16,1189.76 1281.21,1146.52 1283.26,1129.82 1285.31,1171.4 1287.37,1151.43 1289.42,1125.91 1291.47,1217 1293.53,1230.87 1295.58,1238.56 1297.63,1145.54 1299.68,1196.6 1301.74,1156.97 1303.79,1160.86 1305.84,1164.49 1307.9,1252.31 1309.95,1072.12 1312,1061.04 1314.05,1317.11 1316.11,1008.94 1318.16,292.452 1320.21,409.8 1322.27,1113.86 1324.32,1141.97 1326.37,1198.44 1328.42,1127.86 1330.48,998.344 1332.53,1229.81 1334.58,1176.89 1336.64,1165.91 1338.69,1155.43 1340.74,1178.32 1342.79,1167.53 1344.85,1166.56 1346.9,1168.86 1348.95,1147.78 1351.01,1199.99 1353.06,1193.16 1355.11,1066.73 1357.16,1072.58 1359.22,1206.7 1361.27,1154.64 1363.32,1165.96 1365.38,1147.27 1367.43,1171.71 1369.48,935.051 1371.54,1211.01 1373.59,1208.53 1375.64,1162.46 1377.69,1152.3 1379.75,1107.09 1381.8,1178.34 1383.85,1083.33 1385.91,1147.11 1387.96,1240.44 1390.01,1203.73 1392.06,1229.09 1394.12,1175.46 1396.17,1160.23 1398.22,1160.63 1400.28,1139.82 1402.33,1225.42 1404.38,1250.65 1406.43,1373.62 1408.49,86.9044 1410.54,2279.66 1412.59,268.981 1414.65,516.81 1416.7,1213.42 1418.75,1136.55 1420.8,1186.69 1422.86,1180.5 1424.91,1148.43 1426.96,1187.68 1429.02,1144.06 1431.07,1174.83 1433.12,1163.68 1435.17,1161.22 1437.23,1186.67 1439.28,1059.21 1441.33,1119.62 1443.39,1157.01 1445.44,1155.44 1447.49,1184.67 1449.55,1177.76 1451.6,1204.5 1453.65,1159.6 1455.7,1217.59 1457.76,1148.34 1459.81,1151.65 1461.86,1141.67 1463.92,1178.96 1465.97,1182.22 1468.02,1145.24 1470.07,1186.95 1472.13,1199.46 1474.18,1151.11 1476.23,1152.71 1478.29,1166.85 1480.34,1107.13 1482.39,1118.34 1484.44,1262.69 1486.5,1121.64 1488.55,1165.43 1490.6,1667.1 1492.66,1858.8 1494.71,1804.52 1496.76,1215.14 1498.81,1167.54 1500.87,1162.19 1502.92,1168.1 1504.97,1119.43 1507.03,1058.64 1509.08,1141.33 1511.13,1130.77 1513.18,1080.12 1515.24,1170.83 1517.29,1167.58 1519.34,1171.87 1521.4,1186.05 1523.45,1179.01 1525.5,1158.24 1527.55,1159.04 1529.61,1161.33 1531.66,1131.28 1533.71,1165.41 1535.77,1167.19 1537.82,1165.67 1539.87,1143.93 1541.93,1225.98 1543.98,1161.13 1546.03,1172.96 1548.08,1174.17 1550.14,1007.38 1552.19,1127.39 1554.24,1205.96 1556.3,1129.66 1558.35,1215.15 1560.4,1171.59 1562.45,1189.14 1564.51,1014.71 1566.56,994.523 1568.61,1724.83 1570.67,1024.47 1572.72,1055.32 1574.77,1210.71 1576.82,1135.02 1578.88,1010.76 1580.93,1060.21 1582.98,1204.91 1585.04,1092.11 1587.09,1185.42 1589.14,1152.13 1591.19,1178.37 1593.25,1156.71 1595.3,1213.17 1597.35,1255.75 1599.41,1480.42 1601.46,923.305 1603.51,1305.14 1605.56,1188.28 1607.62,1323.84 1609.67,1047.49 1611.72,1777.32 1613.78,740.243 1615.83,1194.49 1617.88,1181.14 1619.94,1191.92 1621.99,1081.43 1624.04,1249.92 1626.09,1183.29 1628.15,1189.21 1630.2,1118.38 1632.25,1161.7 1634.31,1255.98 1636.36,1072.12 1638.41,1242.88 1640.46,1250.19 1642.52,1246.83 1644.57,1123.34 1646.62,1409.55 1648.68,1186.73 1650.73,1178.04 1652.78,1226.83 1654.83,1089.01 1656.89,1144.25 1658.94,1211.53 1660.99,1157.63 1663.05,1174.59 1665.1,1132.7 1667.15,1126.08 1669.2,1094.4 1671.26,1121.74 1673.31,1196.04 1675.36,1141.31 1677.42,1149.88 1679.47,1161.72 1681.52,1158.86 1683.57,1163.09 1685.63,1160.31 1687.68,1174.17 1689.73,1200.24 1691.79,1137.22 1693.84,1145.12 1695.89,1160.07 1697.94,1123.48 1700,1084.53 1702.05,1101.23 1704.1,1080.59 1706.16,1106.52 1708.21,1285.91 1710.26,1074.03 1712.32,1219.31 1714.37,1194.79 1716.42,1278.71 1718.47,1443.14 1720.53,1317.05 1722.58,1054.33 1724.63,1099.63 1726.69,1311.2 1728.74,1205.43 1730.79,1156.48 1732.84,1144.8 1734.9,1173.18 1736.95,1212.78 1739,1071.64 1741.06,1278.8 1743.11,1129.76 1745.16,1148.07 1747.21,1169.76 1749.27,1154.32 1751.32,1198.05 1753.37,1203.29 1755.43,766.313 1757.48,929.364 1759.53,369.261 1761.58,1026.64 1763.64,1781.76 1765.69,1317.92 1767.74,1009.55 1769.8,1065.29 1771.85,1234.59 1773.9,1183.65 1775.95,1187.31 1778.01,1148.16 1780.06,1164.5 1782.11,1221.87 1784.17,1171.84 1786.22,1140.81 1788.27,1153.56 1790.33,1156.19 1792.38,1131.71 1794.43,1190.47 1796.48,1201.52 1798.54,1213.49 1800.59,1106.39 1802.64,1268.55 1804.7,1063.22 1806.75,1059.33 1808.8,1208.25 1810.85,1174.12 1812.91,1159.34 1814.96,1121.37 1817.01,1191.83 1819.07,1231.11 1821.12,1269.96 1823.17,1242.09 1825.22,1155.43 1827.28,1159.9 1829.33,1172.56 1831.38,1166.93 1833.44,1153.04 1835.49,1197.05 1837.54,1143.42 1839.59,990.04 1841.65,1104.73 1843.7,1117.85 1845.75,1134.7 1847.81,1152.34 1849.86,1195.09 1851.91,1211.53 1853.96,1154.45 1856.02,1142.8 1858.07,1150.34 1860.12,1290.65 1862.18,1162.28 1864.23,1185.41 1866.28,1148.53 1868.34,1161.19 1870.39,1140.71 1872.44,1097.7 1874.49,1172.57 1876.55,1107.39 1878.6,1121.28 1880.65,1131.79 1882.71,1157.18 1884.76,1199.9 1886.81,1167.8 1888.86,1209.81 1890.92,1586.98 1892.97,1365.28 1895.02,914.482 1897.08,1320.34 1899.13,-390.245 1901.18,-22.9859 1903.23,1404.6 1905.29,-145.099 1907.34,1653.11 1909.39,1036.3 1911.45,1095.51 1913.5,1099.21 1915.55,1144.92 1917.6,1099.43 1919.66,1154.46 1921.71,1175.01 1923.76,1151.26 1925.82,1110.63 1927.87,1204.84 1929.92,1214.41 1931.97,1292.74 1934.03,1155.64 1936.08,1037.7 1938.13,1460.38 1940.19,1232.57 1942.24,1243.63 1944.29,1278.29 1946.34,1131.25 1948.4,1117.69 1950.45,1185.66 1952.5,1177.83 1954.56,1191.16 1956.61,1155.92 1958.66,1177.59 1960.72,1165.01 1962.77,1168.58 1964.82,1172.42 1966.87,1187.51 1968.93,1185.99 1970.98,1147.99 1973.03,1137.42 1975.09,1130.14 1977.14,1132.28 1979.19,1296.31 1981.24,1133.71 1983.3,1146.81 1985.35,1214.13 1987.4,1165.39 1989.46,1128.98 1991.51,1140.85 1993.56,1241.8 1995.61,1115.44 1997.67,1050.43 1999.72,1165.94 2001.77,1285.11 2003.83,1173.72 2005.88,1099.51 2007.93,1032.03 2009.98,1171.06 2012.04,1157.46 2014.09,1174.61 2016.14,1165.24 2018.2,1132.78 2020.25,1121.1 2022.3,1048.63 2024.35,1161.36 2026.41,1178.4 2028.46,1154.01 2030.51,1186.17 2032.57,1142.09 2034.62,1227 2036.67,1200.56 2038.73,1192.09 2040.78,1140.32 2042.83,1237.24 2044.88,1097.67 2046.94,1245.78 2048.99,1185.99 2051.04,1154.59 2053.1,1173.8 2055.15,1161.2 2057.2,1189.8 2059.25,1183.34 2061.31,1174.59 2063.36,1142.37 2065.41,1174.58 2067.47,1175.37 2069.52,1151.67 2071.57,1130.83 2073.62,1199.33 2075.68,1347.58 2077.73,1317.19 2079.78,1090.5 2081.84,1162.87 2083.89,1139.83 2085.94,1167.84 2087.99,1218.33 2090.05,988.713 2092.1,1614.65 2094.15,540.104 2096.21,72.1405 2098.26,1787.52 2100.31,-584.107 2102.36,395.694 2104.42,997.851 2106.47,1064.37 2108.52,1223.42 2110.58,1261.65 2112.63,1235.48 2114.68,1153.98 2116.73,1166.79 2118.79,1114.25 2120.84,1175.86 2122.89,1122.2 2124.95,1045.67 2127,872.361 2129.05,1658.01 2131.11,1101.04 2133.16,660.673 2135.21,1887.7 2137.26,508.258 2139.32,1245.28 2141.37,1260.08 2143.42,1194.61 2145.48,1235.5 2147.53,1352.18 2149.58,1120.78 2151.63,1133.77 2153.69,1218.49 2155.74,1104.3 2157.79,1126.61 2159.85,1183.4 2161.9,1142.84 2163.95,1187 2166,1159 2168.06,1162.06 2170.11,1170.47 2172.16,1116.01 2174.22,1140.39 2176.27,1042.63 2178.32,1150.25 2180.37,1161.87 2182.43,1161.98 2184.48,1177.43 2186.53,1170.71 2188.59,1163.04 2190.64,1146.73 2192.69,1182.85 2194.74,1163.37 2196.8,1177.96 2198.85,1188.76 2200.9,1150.55 2202.96,1144.94 2205.01,1181.78 2207.06,1118.17 2209.12,1232.07 2211.17,1109.86 2213.22,1106.63 2215.27,1257.39 2217.33,1346.17 2219.38,1169.4 2221.43,1063.82 2223.49,1256.31 2225.54,1168.84 2227.59,1113.98 2229.64,1194.56 2231.7,1176.27 2233.75,1251.92 2235.8,1170.51 2237.86,1176.55 2239.91,1096.13 2241.96,1193.44 2244.01,1130.82 2246.07,1273.58 2248.12,1064.9 2250.17,1275.99 2252.23,1161.59 2254.28,1154.36 2256.33,1178.86 2258.38,1171.69 2260.44,1176.57 2262.49,1142.81 2264.54,1142.54 2266.6,1225.26 2268.65,1218.65 2270.7,1124.04 2272.75,1063.71 2274.81,1129.9 2276.86,1190.65 2278.91,1140.58 2280.97,1173.46 2283.02,1196.85 2285.07,1166.98 2287.12,992.303 2289.18,1219.77 2291.23,1116.71 "/>
<path clip-path="url(#clip310)" d="M1942.7 1465.14 L2280.29 1465.14 L2280.29 1361.46 L1942.7 1361.46  Z" fill="#ffffff" fill-rule="evenodd" fill-opacity="1"/>
<polyline clip-path="url(#clip310)" style="stroke:#000000; stroke-linecap:round; stroke-linejoin:round; stroke-width:4; stroke-opacity:1; fill:none" points="1942.7,1465.14 2280.29,1465.14 2280.29,1361.46 1942.7,1361.46 1942.7,1465.14 "/>
<polyline clip-path="url(#clip310)" style="stroke:#009af9; stroke-linecap:round; stroke-linejoin:round; stroke-width:4; stroke-opacity:1; fill:none" points="1966.85,1413.3 2111.78,1413.3 "/>
<path clip-path="url(#clip310)" d="M2161.49 1425.65 L2161.49 1416.37 L2153.85 1416.37 L2153.85 1412.53 L2166.12 1412.53 L2166.12 1427.36 Q2163.41 1429.28 2160.14 1430.28 Q2156.88 1431.25 2153.18 1431.25 Q2145.07 1431.25 2140.49 1426.53 Q2135.93 1421.78 2135.93 1413.34 Q2135.93 1404.86 2140.49 1400.14 Q2145.07 1395.4 2153.18 1395.4 Q2156.56 1395.4 2159.59 1396.23 Q2162.64 1397.06 2165.21 1398.68 L2165.21 1403.66 Q2162.62 1401.46 2159.7 1400.35 Q2156.79 1399.24 2153.57 1399.24 Q2147.23 1399.24 2144.03 1402.78 Q2140.86 1406.32 2140.86 1413.34 Q2140.86 1420.33 2144.03 1423.87 Q2147.23 1427.41 2153.57 1427.41 Q2156.05 1427.41 2157.99 1426.99 Q2159.94 1426.55 2161.49 1425.65 Z" fill="#000000" fill-rule="nonzero" fill-opacity="1" /><path clip-path="url(#clip310)" d="M2179.33 1399.86 L2179.33 1412.85 L2185.21 1412.85 Q2188.48 1412.85 2190.26 1411.16 Q2192.04 1409.47 2192.04 1406.35 Q2192.04 1403.24 2190.26 1401.55 Q2188.48 1399.86 2185.21 1399.86 L2179.33 1399.86 M2174.66 1396.02 L2185.21 1396.02 Q2191.02 1396.02 2193.99 1398.66 Q2196.97 1401.28 2196.97 1406.35 Q2196.97 1411.46 2193.99 1414.08 Q2191.02 1416.69 2185.21 1416.69 L2179.33 1416.69 L2179.33 1430.58 L2174.66 1430.58 L2174.66 1396.02 Z" fill="#000000" fill-rule="nonzero" fill-opacity="1" /><path clip-path="url(#clip310)" d="M2223.96 1397.16 L2223.96 1401.72 Q2221.3 1400.44 2218.94 1399.82 Q2216.58 1399.19 2214.38 1399.19 Q2210.56 1399.19 2208.48 1400.67 Q2206.42 1402.16 2206.42 1404.89 Q2206.42 1407.18 2207.78 1408.36 Q2209.17 1409.52 2213.01 1410.23 L2215.84 1410.81 Q2221.07 1411.81 2223.55 1414.33 Q2226.05 1416.83 2226.05 1421.04 Q2226.05 1426.07 2222.67 1428.66 Q2219.31 1431.25 2212.81 1431.25 Q2210.35 1431.25 2207.57 1430.7 Q2204.82 1430.14 2201.86 1429.05 L2201.86 1424.24 Q2204.7 1425.84 2207.44 1426.65 Q2210.17 1427.46 2212.81 1427.46 Q2216.81 1427.46 2218.99 1425.88 Q2221.16 1424.31 2221.16 1421.39 Q2221.16 1418.85 2219.59 1417.41 Q2218.04 1415.97 2214.47 1415.26 L2211.62 1414.7 Q2206.39 1413.66 2204.06 1411.44 Q2201.72 1409.22 2201.72 1405.26 Q2201.72 1400.67 2204.94 1398.03 Q2208.18 1395.4 2213.85 1395.4 Q2216.28 1395.4 2218.8 1395.84 Q2221.32 1396.28 2223.96 1397.16 Z" fill="#000000" fill-rule="nonzero" fill-opacity="1" /><path clip-path="url(#clip310)" d="M2254.06 1397.16 L2254.06 1401.72 Q2251.39 1400.44 2249.03 1399.82 Q2246.67 1399.19 2244.47 1399.19 Q2240.65 1399.19 2238.57 1400.67 Q2236.51 1402.16 2236.51 1404.89 Q2236.51 1407.18 2237.87 1408.36 Q2239.26 1409.52 2243.11 1410.23 L2245.93 1410.81 Q2251.16 1411.81 2253.64 1414.33 Q2256.14 1416.83 2256.14 1421.04 Q2256.14 1426.07 2252.76 1428.66 Q2249.4 1431.25 2242.9 1431.25 Q2240.44 1431.25 2237.67 1430.7 Q2234.91 1430.14 2231.95 1429.05 L2231.95 1424.24 Q2234.8 1425.84 2237.53 1426.65 Q2240.26 1427.46 2242.9 1427.46 Q2246.9 1427.46 2249.08 1425.88 Q2251.25 1424.31 2251.25 1421.39 Q2251.25 1418.85 2249.68 1417.41 Q2248.13 1415.97 2244.56 1415.26 L2241.72 1414.7 Q2236.49 1413.66 2234.15 1411.44 Q2231.81 1409.22 2231.81 1405.26 Q2231.81 1400.67 2235.03 1398.03 Q2238.27 1395.4 2243.94 1395.4 Q2246.37 1395.4 2248.89 1395.84 Q2251.42 1396.28 2254.06 1397.16 Z" fill="#000000" fill-rule="nonzero" fill-opacity="1" /></svg>
