<?xml version="1.0" encoding="utf-8"?>
<svg xmlns="http://www.w3.org/2000/svg" xmlns:xlink="http://www.w3.org/1999/xlink" width="600" height="400" viewBox="0 0 2400 1600">
<defs>
  <clipPath id="clip230">
    <rect x="0" y="0" width="2400" height="1600"/>
  </clipPath>
</defs>
<path clip-path="url(#clip230)" d="M0 1600 L2400 1600 L2400 0 L0 0  Z" fill="#ffffff" fill-rule="evenodd" fill-opacity="1"/>
<defs>
  <clipPath id="clip231">
    <rect x="480" y="0" width="1681" height="1600"/>
  </clipPath>
</defs>
<path clip-path="url(#clip230)" d="M178.867 686.448 L2352.76 686.448 L2352.76 47.2441 L178.867 47.2441  Z" fill="#ffffff" fill-rule="evenodd" fill-opacity="1"/>
<defs>
  <clipPath id="clip232">
    <rect x="178" y="47" width="2175" height="640"/>
  </clipPath>
</defs>
<polyline clip-path="url(#clip232)" style="stroke:#000000; stroke-linecap:round; stroke-linejoin:round; stroke-width:2; stroke-opacity:0.1; fill:none" points="238.339,686.448 238.339,47.2441 "/>
<polyline clip-path="url(#clip232)" style="stroke:#000000; stroke-linecap:round; stroke-linejoin:round; stroke-width:2; stroke-opacity:0.1; fill:none" points="751.562,686.448 751.562,47.2441 "/>
<polyline clip-path="url(#clip232)" style="stroke:#000000; stroke-linecap:round; stroke-linejoin:round; stroke-width:2; stroke-opacity:0.1; fill:none" points="1264.78,686.448 1264.78,47.2441 "/>
<polyline clip-path="url(#clip232)" style="stroke:#000000; stroke-linecap:round; stroke-linejoin:round; stroke-width:2; stroke-opacity:0.1; fill:none" points="1778.01,686.448 1778.01,47.2441 "/>
<polyline clip-path="url(#clip232)" style="stroke:#000000; stroke-linecap:round; stroke-linejoin:round; stroke-width:2; stroke-opacity:0.1; fill:none" points="2291.23,686.448 2291.23,47.2441 "/>
<polyline clip-path="url(#clip232)" style="stroke:#000000; stroke-linecap:round; stroke-linejoin:round; stroke-width:2; stroke-opacity:0.1; fill:none" points="178.867,686.448 2352.76,686.448 "/>
<polyline clip-path="url(#clip232)" style="stroke:#000000; stroke-linecap:round; stroke-linejoin:round; stroke-width:2; stroke-opacity:0.1; fill:none" points="178.867,526.647 2352.76,526.647 "/>
<polyline clip-path="url(#clip232)" style="stroke:#000000; stroke-linecap:round; stroke-linejoin:round; stroke-width:2; stroke-opacity:0.1; fill:none" points="178.867,366.846 2352.76,366.846 "/>
<polyline clip-path="url(#clip232)" style="stroke:#000000; stroke-linecap:round; stroke-linejoin:round; stroke-width:2; stroke-opacity:0.1; fill:none" points="178.867,207.045 2352.76,207.045 "/>
<polyline clip-path="url(#clip232)" style="stroke:#000000; stroke-linecap:round; stroke-linejoin:round; stroke-width:2; stroke-opacity:0.1; fill:none" points="178.867,47.2441 2352.76,47.2441 "/>
<polyline clip-path="url(#clip230)" style="stroke:#000000; stroke-linecap:round; stroke-linejoin:round; stroke-width:4; stroke-opacity:1; fill:none" points="178.867,686.448 2352.76,686.448 "/>
<polyline clip-path="url(#clip230)" style="stroke:#000000; stroke-linecap:round; stroke-linejoin:round; stroke-width:4; stroke-opacity:1; fill:none" points="238.339,686.448 238.339,667.55 "/>
<polyline clip-path="url(#clip230)" style="stroke:#000000; stroke-linecap:round; stroke-linejoin:round; stroke-width:4; stroke-opacity:1; fill:none" points="751.562,686.448 751.562,667.55 "/>
<polyline clip-path="url(#clip230)" style="stroke:#000000; stroke-linecap:round; stroke-linejoin:round; stroke-width:4; stroke-opacity:1; fill:none" points="1264.78,686.448 1264.78,667.55 "/>
<polyline clip-path="url(#clip230)" style="stroke:#000000; stroke-linecap:round; stroke-linejoin:round; stroke-width:4; stroke-opacity:1; fill:none" points="1778.01,686.448 1778.01,667.55 "/>
<polyline clip-path="url(#clip230)" style="stroke:#000000; stroke-linecap:round; stroke-linejoin:round; stroke-width:4; stroke-opacity:1; fill:none" points="2291.23,686.448 2291.23,667.55 "/>
<path clip-path="url(#clip230)" d="M238.339 717.367 Q234.728 717.367 232.899 720.931 Q231.094 724.473 231.094 731.603 Q231.094 738.709 232.899 742.274 Q234.728 745.815 238.339 745.815 Q241.973 745.815 243.779 742.274 Q245.607 738.709 245.607 731.603 Q245.607 724.473 243.779 720.931 Q241.973 717.367 238.339 717.367 M238.339 713.663 Q244.149 713.663 247.205 718.269 Q250.283 722.853 250.283 731.603 Q250.283 740.329 247.205 744.936 Q244.149 749.519 238.339 749.519 Q232.529 749.519 229.45 744.936 Q226.395 740.329 226.395 731.603 Q226.395 722.853 229.45 718.269 Q232.529 713.663 238.339 713.663 Z" fill="#000000" fill-rule="nonzero" fill-opacity="1" /><path clip-path="url(#clip230)" d="M715.254 744.913 L731.574 744.913 L731.574 748.848 L709.629 748.848 L709.629 744.913 Q712.291 742.158 716.875 737.528 Q721.481 732.876 722.662 731.533 Q724.907 729.01 725.787 727.274 Q726.689 725.515 726.689 723.825 Q726.689 721.07 724.745 719.334 Q722.824 717.598 719.722 717.598 Q717.523 717.598 715.069 718.362 Q712.638 719.126 709.861 720.677 L709.861 715.955 Q712.685 714.82 715.138 714.242 Q717.592 713.663 719.629 713.663 Q725 713.663 728.194 716.348 Q731.388 719.033 731.388 723.524 Q731.388 725.654 730.578 727.575 Q729.791 729.473 727.685 732.066 Q727.106 732.737 724.004 735.954 Q720.902 739.149 715.254 744.913 Z" fill="#000000" fill-rule="nonzero" fill-opacity="1" /><path clip-path="url(#clip230)" d="M741.435 714.288 L759.791 714.288 L759.791 718.223 L745.717 718.223 L745.717 726.695 Q746.736 726.348 747.754 726.186 Q748.773 726.001 749.791 726.001 Q755.578 726.001 758.958 729.172 Q762.337 732.343 762.337 737.76 Q762.337 743.339 758.865 746.44 Q755.393 749.519 749.073 749.519 Q746.898 749.519 744.629 749.149 Q742.384 748.778 739.976 748.038 L739.976 743.339 Q742.06 744.473 744.282 745.028 Q746.504 745.584 748.981 745.584 Q752.985 745.584 755.323 743.478 Q757.661 741.371 757.661 737.76 Q757.661 734.149 755.323 732.042 Q752.985 729.936 748.981 729.936 Q747.106 729.936 745.231 730.353 Q743.379 730.769 741.435 731.649 L741.435 714.288 Z" fill="#000000" fill-rule="nonzero" fill-opacity="1" /><path clip-path="url(#clip230)" d="M781.55 717.367 Q777.939 717.367 776.11 720.931 Q774.305 724.473 774.305 731.603 Q774.305 738.709 776.11 742.274 Q777.939 745.815 781.55 745.815 Q785.184 745.815 786.99 742.274 Q788.819 738.709 788.819 731.603 Q788.819 724.473 786.99 720.931 Q785.184 717.367 781.55 717.367 M781.55 713.663 Q787.36 713.663 790.416 718.269 Q793.495 722.853 793.495 731.603 Q793.495 740.329 790.416 744.936 Q787.36 749.519 781.55 749.519 Q775.74 749.519 772.661 744.936 Q769.606 740.329 769.606 731.603 Q769.606 722.853 772.661 718.269 Q775.74 713.663 781.55 713.663 Z" fill="#000000" fill-rule="nonzero" fill-opacity="1" /><path clip-path="url(#clip230)" d="M1224.4 714.288 L1242.76 714.288 L1242.76 718.223 L1228.69 718.223 L1228.69 726.695 Q1229.7 726.348 1230.72 726.186 Q1231.74 726.001 1232.76 726.001 Q1238.55 726.001 1241.93 729.172 Q1245.31 732.343 1245.31 737.76 Q1245.31 743.339 1241.83 746.44 Q1238.36 749.519 1232.04 749.519 Q1229.87 749.519 1227.6 749.149 Q1225.35 748.778 1222.94 748.038 L1222.94 743.339 Q1225.03 744.473 1227.25 745.028 Q1229.47 745.584 1231.95 745.584 Q1235.95 745.584 1238.29 743.478 Q1240.63 741.371 1240.63 737.76 Q1240.63 734.149 1238.29 732.042 Q1235.95 729.936 1231.95 729.936 Q1230.07 729.936 1228.2 730.353 Q1226.35 730.769 1224.4 731.649 L1224.4 714.288 Z" fill="#000000" fill-rule="nonzero" fill-opacity="1" /><path clip-path="url(#clip230)" d="M1264.52 717.367 Q1260.91 717.367 1259.08 720.931 Q1257.27 724.473 1257.27 731.603 Q1257.27 738.709 1259.08 742.274 Q1260.91 745.815 1264.52 745.815 Q1268.15 745.815 1269.96 742.274 Q1271.79 738.709 1271.79 731.603 Q1271.79 724.473 1269.96 720.931 Q1268.15 717.367 1264.52 717.367 M1264.52 713.663 Q1270.33 713.663 1273.38 718.269 Q1276.46 722.853 1276.46 731.603 Q1276.46 740.329 1273.38 744.936 Q1270.33 749.519 1264.52 749.519 Q1258.71 749.519 1255.63 744.936 Q1252.57 740.329 1252.57 731.603 Q1252.57 722.853 1255.63 718.269 Q1258.71 713.663 1264.52 713.663 Z" fill="#000000" fill-rule="nonzero" fill-opacity="1" /><path clip-path="url(#clip230)" d="M1294.68 717.367 Q1291.07 717.367 1289.24 720.931 Q1287.44 724.473 1287.44 731.603 Q1287.44 738.709 1289.24 742.274 Q1291.07 745.815 1294.68 745.815 Q1298.31 745.815 1300.12 742.274 Q1301.95 738.709 1301.95 731.603 Q1301.95 724.473 1300.12 720.931 Q1298.31 717.367 1294.68 717.367 M1294.68 713.663 Q1300.49 713.663 1303.55 718.269 Q1306.62 722.853 1306.62 731.603 Q1306.62 740.329 1303.55 744.936 Q1300.49 749.519 1294.68 749.519 Q1288.87 749.519 1285.79 744.936 Q1282.74 740.329 1282.74 731.603 Q1282.74 722.853 1285.79 718.269 Q1288.87 713.663 1294.68 713.663 Z" fill="#000000" fill-rule="nonzero" fill-opacity="1" /><path clip-path="url(#clip230)" d="M1736.28 714.288 L1758.51 714.288 L1758.51 716.279 L1745.96 748.848 L1741.08 748.848 L1752.88 718.223 L1736.28 718.223 L1736.28 714.288 Z" fill="#000000" fill-rule="nonzero" fill-opacity="1" /><path clip-path="url(#clip230)" d="M1767.67 714.288 L1786.03 714.288 L1786.03 718.223 L1771.95 718.223 L1771.95 726.695 Q1772.97 726.348 1773.99 726.186 Q1775.01 726.001 1776.03 726.001 Q1781.82 726.001 1785.2 729.172 Q1788.57 732.343 1788.57 737.76 Q1788.57 743.339 1785.1 746.44 Q1781.63 749.519 1775.31 749.519 Q1773.14 749.519 1770.87 749.149 Q1768.62 748.778 1766.21 748.038 L1766.21 743.339 Q1768.3 744.473 1770.52 745.028 Q1772.74 745.584 1775.22 745.584 Q1779.22 745.584 1781.56 743.478 Q1783.9 741.371 1783.9 737.76 Q1783.9 734.149 1781.56 732.042 Q1779.22 729.936 1775.22 729.936 Q1773.34 729.936 1771.47 730.353 Q1769.62 730.769 1767.67 731.649 L1767.67 714.288 Z" fill="#000000" fill-rule="nonzero" fill-opacity="1" /><path clip-path="url(#clip230)" d="M1807.79 717.367 Q1804.18 717.367 1802.35 720.931 Q1800.54 724.473 1800.54 731.603 Q1800.54 738.709 1802.35 742.274 Q1804.18 745.815 1807.79 745.815 Q1811.42 745.815 1813.23 742.274 Q1815.06 738.709 1815.06 731.603 Q1815.06 724.473 1813.23 720.931 Q1811.42 717.367 1807.79 717.367 M1807.79 713.663 Q1813.6 713.663 1816.65 718.269 Q1819.73 722.853 1819.73 731.603 Q1819.73 740.329 1816.65 744.936 Q1813.6 749.519 1807.79 749.519 Q1801.98 749.519 1798.9 744.936 Q1795.84 740.329 1795.84 731.603 Q1795.84 722.853 1798.9 718.269 Q1801.98 713.663 1807.79 713.663 Z" fill="#000000" fill-rule="nonzero" fill-opacity="1" /><path clip-path="url(#clip230)" d="M2235.76 744.913 L2243.4 744.913 L2243.4 718.547 L2235.09 720.214 L2235.09 715.955 L2243.35 714.288 L2248.02 714.288 L2248.02 744.913 L2255.66 744.913 L2255.66 748.848 L2235.76 748.848 L2235.76 744.913 Z" fill="#000000" fill-rule="nonzero" fill-opacity="1" /><path clip-path="url(#clip230)" d="M2275.11 717.367 Q2271.5 717.367 2269.67 720.931 Q2267.86 724.473 2267.86 731.603 Q2267.86 738.709 2269.67 742.274 Q2271.5 745.815 2275.11 745.815 Q2278.74 745.815 2280.55 742.274 Q2282.38 738.709 2282.38 731.603 Q2282.38 724.473 2280.55 720.931 Q2278.74 717.367 2275.11 717.367 M2275.11 713.663 Q2280.92 713.663 2283.97 718.269 Q2287.05 722.853 2287.05 731.603 Q2287.05 740.329 2283.97 744.936 Q2280.92 749.519 2275.11 749.519 Q2269.3 749.519 2266.22 744.936 Q2263.16 740.329 2263.16 731.603 Q2263.16 722.853 2266.22 718.269 Q2269.3 713.663 2275.11 713.663 Z" fill="#000000" fill-rule="nonzero" fill-opacity="1" /><path clip-path="url(#clip230)" d="M2305.27 717.367 Q2301.66 717.367 2299.83 720.931 Q2298.02 724.473 2298.02 731.603 Q2298.02 738.709 2299.83 742.274 Q2301.66 745.815 2305.27 745.815 Q2308.9 745.815 2310.71 742.274 Q2312.54 738.709 2312.54 731.603 Q2312.54 724.473 2310.71 720.931 Q2308.9 717.367 2305.27 717.367 M2305.27 713.663 Q2311.08 713.663 2314.14 718.269 Q2317.21 722.853 2317.21 731.603 Q2317.21 740.329 2314.14 744.936 Q2311.08 749.519 2305.27 749.519 Q2299.46 749.519 2296.38 744.936 Q2293.33 740.329 2293.33 731.603 Q2293.33 722.853 2296.38 718.269 Q2299.46 713.663 2305.27 713.663 Z" fill="#000000" fill-rule="nonzero" fill-opacity="1" /><path clip-path="url(#clip230)" d="M2335.43 717.367 Q2331.82 717.367 2329.99 720.931 Q2328.19 724.473 2328.19 731.603 Q2328.19 738.709 2329.99 742.274 Q2331.82 745.815 2335.43 745.815 Q2339.07 745.815 2340.87 742.274 Q2342.7 738.709 2342.7 731.603 Q2342.7 724.473 2340.87 720.931 Q2339.07 717.367 2335.43 717.367 M2335.43 713.663 Q2341.24 713.663 2344.3 718.269 Q2347.38 722.853 2347.38 731.603 Q2347.38 740.329 2344.3 744.936 Q2341.24 749.519 2335.43 749.519 Q2329.62 749.519 2326.54 744.936 Q2323.49 740.329 2323.49 731.603 Q2323.49 722.853 2326.54 718.269 Q2329.62 713.663 2335.43 713.663 Z" fill="#000000" fill-rule="nonzero" fill-opacity="1" /><polyline clip-path="url(#clip230)" style="stroke:#000000; stroke-linecap:round; stroke-linejoin:round; stroke-width:4; stroke-opacity:1; fill:none" points="178.867,686.448 178.867,47.2441 "/>
<polyline clip-path="url(#clip230)" style="stroke:#000000; stroke-linecap:round; stroke-linejoin:round; stroke-width:4; stroke-opacity:1; fill:none" points="178.867,686.448 197.764,686.448 "/>
<polyline clip-path="url(#clip230)" style="stroke:#000000; stroke-linecap:round; stroke-linejoin:round; stroke-width:4; stroke-opacity:1; fill:none" points="178.867,526.647 197.764,526.647 "/>
<polyline clip-path="url(#clip230)" style="stroke:#000000; stroke-linecap:round; stroke-linejoin:round; stroke-width:4; stroke-opacity:1; fill:none" points="178.867,366.846 197.764,366.846 "/>
<polyline clip-path="url(#clip230)" style="stroke:#000000; stroke-linecap:round; stroke-linejoin:round; stroke-width:4; stroke-opacity:1; fill:none" points="178.867,207.045 197.764,207.045 "/>
<polyline clip-path="url(#clip230)" style="stroke:#000000; stroke-linecap:round; stroke-linejoin:round; stroke-width:4; stroke-opacity:1; fill:none" points="178.867,47.2441 197.764,47.2441 "/>
<path clip-path="url(#clip230)" d="M50.9921 686.899 L80.6679 686.899 L80.6679 690.834 L50.9921 690.834 L50.9921 686.899 Z" fill="#000000" fill-rule="nonzero" fill-opacity="1" /><path clip-path="url(#clip230)" d="M91.5706 699.793 L99.2095 699.793 L99.2095 673.427 L90.8993 675.094 L90.8993 670.835 L99.1632 669.168 L103.839 669.168 L103.839 699.793 L111.478 699.793 L111.478 703.728 L91.5706 703.728 L91.5706 699.793 Z" fill="#000000" fill-rule="nonzero" fill-opacity="1" /><path clip-path="url(#clip230)" d="M130.922 672.247 Q127.311 672.247 125.482 675.811 Q123.677 679.353 123.677 686.483 Q123.677 693.589 125.482 697.154 Q127.311 700.695 130.922 700.695 Q134.556 700.695 136.362 697.154 Q138.191 693.589 138.191 686.483 Q138.191 679.353 136.362 675.811 Q134.556 672.247 130.922 672.247 M130.922 668.543 Q136.732 668.543 139.788 673.149 Q142.867 677.733 142.867 686.483 Q142.867 695.209 139.788 699.816 Q136.732 704.399 130.922 704.399 Q125.112 704.399 122.033 699.816 Q118.978 695.209 118.978 686.483 Q118.978 677.733 122.033 673.149 Q125.112 668.543 130.922 668.543 Z" fill="#000000" fill-rule="nonzero" fill-opacity="1" /><path clip-path="url(#clip230)" d="M82.1494 527.098 L111.825 527.098 L111.825 531.033 L82.1494 531.033 L82.1494 527.098 Z" fill="#000000" fill-rule="nonzero" fill-opacity="1" /><path clip-path="url(#clip230)" d="M121.964 509.367 L140.32 509.367 L140.32 513.302 L126.246 513.302 L126.246 521.774 Q127.265 521.427 128.283 521.265 Q129.302 521.08 130.32 521.08 Q136.107 521.08 139.487 524.251 Q142.867 527.422 142.867 532.839 Q142.867 538.418 139.394 541.52 Q135.922 544.598 129.603 544.598 Q127.427 544.598 125.158 544.228 Q122.913 543.857 120.506 543.117 L120.506 538.418 Q122.589 539.552 124.811 540.108 Q127.033 540.663 129.51 540.663 Q133.515 540.663 135.853 538.557 Q138.191 536.45 138.191 532.839 Q138.191 529.228 135.853 527.121 Q133.515 525.015 129.51 525.015 Q127.635 525.015 125.76 525.432 Q123.908 525.848 121.964 526.728 L121.964 509.367 Z" fill="#000000" fill-rule="nonzero" fill-opacity="1" /><path clip-path="url(#clip230)" d="M130.922 352.645 Q127.311 352.645 125.482 356.209 Q123.677 359.751 123.677 366.881 Q123.677 373.987 125.482 377.552 Q127.311 381.094 130.922 381.094 Q134.556 381.094 136.362 377.552 Q138.191 373.987 138.191 366.881 Q138.191 359.751 136.362 356.209 Q134.556 352.645 130.922 352.645 M130.922 348.941 Q136.732 348.941 139.788 353.547 Q142.867 358.131 142.867 366.881 Q142.867 375.608 139.788 380.214 Q136.732 384.797 130.922 384.797 Q125.112 384.797 122.033 380.214 Q118.978 375.608 118.978 366.881 Q118.978 358.131 122.033 353.547 Q125.112 348.941 130.922 348.941 Z" fill="#000000" fill-rule="nonzero" fill-opacity="1" /><path clip-path="url(#clip230)" d="M121.964 189.765 L140.32 189.765 L140.32 193.7 L126.246 193.7 L126.246 202.172 Q127.265 201.825 128.283 201.663 Q129.302 201.478 130.32 201.478 Q136.107 201.478 139.487 204.649 Q142.867 207.82 142.867 213.237 Q142.867 218.816 139.394 221.918 Q135.922 224.996 129.603 224.996 Q127.427 224.996 125.158 224.626 Q122.913 224.256 120.506 223.515 L120.506 218.816 Q122.589 219.95 124.811 220.506 Q127.033 221.061 129.51 221.061 Q133.515 221.061 135.853 218.955 Q138.191 216.848 138.191 213.237 Q138.191 209.626 135.853 207.52 Q133.515 205.413 129.51 205.413 Q127.635 205.413 125.76 205.83 Q123.908 206.246 121.964 207.126 L121.964 189.765 Z" fill="#000000" fill-rule="nonzero" fill-opacity="1" /><path clip-path="url(#clip230)" d="M91.5706 60.5889 L99.2095 60.5889 L99.2095 34.2233 L90.8993 35.89 L90.8993 31.6308 L99.1632 29.9641 L103.839 29.9641 L103.839 60.5889 L111.478 60.5889 L111.478 64.5241 L91.5706 64.5241 L91.5706 60.5889 Z" fill="#000000" fill-rule="nonzero" fill-opacity="1" /><path clip-path="url(#clip230)" d="M130.922 33.0428 Q127.311 33.0428 125.482 36.6076 Q123.677 40.1492 123.677 47.2788 Q123.677 54.3853 125.482 57.9501 Q127.311 61.4917 130.922 61.4917 Q134.556 61.4917 136.362 57.9501 Q138.191 54.3853 138.191 47.2788 Q138.191 40.1492 136.362 36.6076 Q134.556 33.0428 130.922 33.0428 M130.922 29.3391 Q136.732 29.3391 139.788 33.9456 Q142.867 38.5289 142.867 47.2788 Q142.867 56.0056 139.788 60.6121 Q136.732 65.1954 130.922 65.1954 Q125.112 65.1954 122.033 60.6121 Q118.978 56.0056 118.978 47.2788 Q118.978 38.5289 122.033 33.9456 Q125.112 29.3391 130.922 29.3391 Z" fill="#000000" fill-rule="nonzero" fill-opacity="1" /><polyline clip-path="url(#clip232)" style="stroke:#009af9; stroke-linecap:round; stroke-linejoin:round; stroke-width:4; stroke-opacity:1; fill:none" points="240.392,334.886 242.445,333.734 244.498,335.814 246.55,328.141 248.603,355.091 250.656,343.199 252.709,343.608 254.762,341.906 256.815,342.536 258.868,351.254 260.921,347.157 262.974,340.901 265.027,321.128 267.079,316.177 269.132,316.298 271.185,315.813 273.238,333.208 275.291,359.515 277.344,364.983 279.397,361.021 281.45,364.866 283.503,363.356 285.555,364.954 287.608,365.519 289.661,399.992 291.714,321.594 293.767,337.631 295.82,458.405 297.873,455.453 299.926,446.855 301.979,492.235 304.031,495.72 306.084,506.984 308.137,443.478 310.19,432.528 312.243,390.578 314.296,420.43 316.349,413.191 318.402,412.487 320.455,372.342 322.507,375.909 324.56,357.477 326.613,346.042 328.666,352.365 330.719,339.471 332.772,371.079 334.825,388.444 336.878,459.045 338.931,444.618 340.984,419.761 343.036,407.943 345.089,397.469 347.142,398.185 349.195,407.216 351.248,408.993 353.301,408.545 355.354,350.738 357.407,352.742 359.46,383.959 361.512,353.655 363.565,356.422 365.618,461.35 367.671,411.498 369.724,443.448 371.777,438.141 373.83,456.837 375.883,298.058 377.936,390.534 379.988,369.676 382.041,368.188 384.094,371.721 386.147,372.871 388.2,365.02 390.253,369.001 392.306,381.651 394.359,379.618 396.412,425.371 398.464,440.73 400.517,488.392 402.57,476.122 404.623,480.953 406.676,441.72 408.729,360.481 410.782,373.726 412.835,365.073 414.888,393.201 416.94,269.59 418.993,276.973 421.046,283.609 423.099,308.343 425.152,193.819 427.205,193.027 429.258,202.186 431.311,406.595 433.364,410.999 435.417,399.83 437.469,419.786 439.522,419.789 441.575,338.565 443.628,339.869 445.681,335.924 447.734,338.826 449.787,309.773 451.84,270.876 453.893,377.632 455.945,375.912 457.998,500.702 460.051,616.831 462.104,645.096 464.157,699.065 466.21,794.556 468.263,802.996 470.316,774.681 472.369,731.248 474.421,744.303 476.474,625.437 478.527,643.432 480.58,658.157 482.633,317.045 484.686,316.845 486.739,377.082 488.792,442.264 490.845,367.851 492.897,373.964 494.95,318.103 497.003,321.851 499.056,323.945 501.109,321.485 503.162,396.607 505.215,390.976 507.268,122.061 509.321,32.4256 511.374,23.1831 513.426,311.804 515.479,337.443 517.532,918.791 519.585,992.834 521.638,1054.67 523.691,557.931 525.744,516.924 527.797,423.407 529.85,356.764 531.902,231.158 533.955,231.254 536.008,235.229 538.061,217.684 540.114,214.749 542.167,198.622 544.22,201.207 546.273,398.702 548.326,474.998 550.378,450.263 552.431,463.001 554.484,208.238 556.537,208.308 558.59,-82.6087 560.643,-56.7368 562.696,96.7275 564.749,98.9208 566.802,76.7997 568.854,76.4635 570.907,59.1897 572.96,88.7275 575.013,78.2781 577.066,77.4656 579.119,66.3914 581.172,114.674 583.225,223.195 585.278,247.694 587.331,371.524 589.383,251.14 591.436,237.4 593.489,242.467 595.542,241.925 597.595,251.146 599.648,258.081 601.701,223.711 603.754,305.322 605.807,147.783 607.859,172.89 609.912,480.417 611.965,480.683 614.018,441.787 616.071,401.558 618.124,235.114 620.177,208.026 622.23,206.025 624.283,183.526 626.335,184.748 628.388,99.1242 630.441,145.682 632.494,233.013 634.547,233.669 636.6,435.826 638.653,433.113 640.706,443.045 642.759,426.59 644.811,430.121 646.864,377.107 648.917,460.349 650.97,454.844 653.023,456.6 655.076,444.138 657.129,406.612 659.182,485.082 661.235,420.591 663.288,438.389 665.34,427.06 667.393,387.941 669.446,351.548 671.499,372.682 673.552,371.783 675.605,372.786 677.658,290.026 679.711,293.383 681.764,302.838 683.816,297.236 685.869,248.665 687.922,282.961 689.975,336.679 692.028,127.382 694.081,193.393 696.134,195.892 698.187,194.997 700.24,187.265 702.292,188.71 704.345,184.03 706.398,181.869 708.451,185.218 710.504,177.498 712.557,174.837 714.61,240.523 716.663,242.759 718.716,155.732 720.768,150.007 722.821,149.756 724.874,252.797 726.927,252.706 728.98,178.6 731.033,148.42 733.086,166.649 735.139,174.713 737.192,272.583 739.245,407.682 741.297,375.836 743.35,375.63 745.403,374.416 747.456,385.277 749.509,394.029 751.562,394.839 753.615,394.044 755.668,391.996 757.721,452.565 759.773,450.871 761.826,426.247 763.879,363.184 765.932,371.945 767.985,371.711 770.038,373.164 772.091,370.268 774.144,355.606 776.197,355.614 778.249,358.566 780.302,351.01 782.355,351.252 784.408,333.23 786.461,354.762 788.514,354.941 790.567,382.409 792.62,378.588 794.673,377.801 796.725,375.741 798.778,366.817 800.831,395.55 802.884,395.551 804.937,390.785 806.99,368.564 809.043,386.278 811.096,368.909 813.149,371.719 815.202,371.118 817.254,375.972 819.307,371.847 821.36,353.118 823.413,357.969 825.466,357.775 827.519,370.222 829.572,370.17 831.625,370.163 833.678,368.24 835.73,368.511 837.783,378.807 839.836,383.398 841.889,383.062 843.942,380.439 845.995,382.69 848.048,375.207 850.101,355.55 852.154,326.111 854.206,320.497 856.259,389.478 858.312,396.555 860.365,368.024 862.418,374.603 864.471,375.353 866.524,367.451 868.577,345.394 870.63,345.403 872.682,342.249 874.735,340.504 876.788,308.659 878.841,387.661 880.894,394.815 882.947,383.593 885,374.616 887.053,386.899 889.106,388.93 891.159,393.138 893.211,377.453 895.264,377.608 897.317,387.772 899.37,376.709 901.423,370.472 903.476,369.997 905.529,357.331 907.582,382.431 909.635,370.761 911.687,355.847 913.74,367.236 915.793,367.322 917.846,363.762 919.899,367.186 921.952,378.813 924.005,373.874 926.058,376.44 928.111,375.55 930.163,359.007 932.216,368.153 934.269,358.784 936.322,362.228 938.375,336.378 940.428,333.833 942.481,310.81 944.534,311.353 946.587,312.868 948.639,285.151 950.692,276.547 952.745,277.674 954.798,281.74 956.851,284.616 958.904,305.814 960.957,307.44 963.01,307.71 965.063,308.066 967.116,334.223 969.168,334.936 971.221,336.764 973.274,329.546 975.327,353.111 977.38,364.936 979.433,359.765 981.486,359.699 983.539,348.175 985.592,407.043 987.644,370.676 989.697,365.327 991.75,364.906 993.803,364.728 995.856,364.971 997.909,366.947 999.962,366.9 1002.01,366.096 1004.07,378.791 1006.12,388.791 1008.17,392.987 1010.23,392.844 1012.28,382.683 1014.33,371.543 1016.38,383.79 1018.44,392.149 1020.49,392.117 1022.54,393.867 1024.6,393.82 1026.65,392.447 1028.7,394.758 1030.76,390.987 1032.81,356.97 1034.86,367.579 1036.91,367.704 1038.97,348.663 1041.02,375.999 1043.07,364.678 1045.13,363.982 1047.18,362.658 1049.23,383.106 1051.28,382.155 1053.34,381.29 1055.39,365.424 1057.44,363.893 1059.5,364.773 1061.55,364.765 1063.6,367.275 1065.65,366.728 1067.71,364.836 1069.76,356.853 1071.81,361.192 1073.87,361.02 1075.92,354.579 1077.97,354.208 1080.02,356.549 1082.08,356.797 1084.13,368.139 1086.18,374.618 1088.24,374.193 1090.29,376.456 1092.34,403.391 1094.39,391.844 1096.45,394.7 1098.5,388.829 1100.55,385.538 1102.61,397.809 1104.66,443.257 1106.71,439.139 1108.77,442.065 1110.82,439.322 1112.87,445.272 1114.92,445.272 1116.98,443.323 1119.03,435.448 1121.08,433.694 1123.14,433.369 1125.19,428.925 1127.24,428.935 1129.29,431.197 1131.35,431.07 1133.4,431.154 1135.45,427.626 1137.51,364.805 1139.56,362.242 1141.61,360.867 1143.66,378.695 1145.72,377.542 1147.77,377.551 1149.82,399.078 1151.88,399.93 1153.93,407.714 1155.98,387.284 1158.03,387.334 1160.09,390.557 1162.14,389.92 1164.19,398.853 1166.25,397.31 1168.3,396.24 1170.35,395.163 1172.4,393.033 1174.46,392.067 1176.51,395.757 1178.56,388.094 1180.62,380.267 1182.67,382.963 1184.72,364.392 1186.77,361.881 1188.83,363.255 1190.88,361.97 1192.93,353.511 1194.99,357.559 1197.04,357.387 1199.09,355.227 1201.15,358.742 1203.2,314.144 1205.25,315.703 1207.3,312.335 1209.36,309.931 1211.41,295.227 1213.46,301.429 1215.52,301.016 1217.57,301.156 1219.62,300.964 1221.67,305.273 1223.73,319.987 1225.78,331.402 1227.83,333.307 1229.89,347.201 1231.94,346.402 1233.99,341.413 1236.04,339.832 1238.1,340.429 1240.15,340.658 1242.2,337.792 1244.26,337.964 1246.31,336.967 1248.36,343.773 1250.41,355.825 1252.47,336.168 1254.52,350.832 1256.57,351.293 1258.63,337.516 1260.68,337.018 1262.73,344.4 1264.78,360.044 1266.84,359.871 1268.89,433.973 1270.94,435.232 1273,435.254 1275.05,438.311 1277.1,479.785 1279.16,450.895 1281.21,440.037 1283.26,437.96 1285.31,434.842 1287.37,434.73 1289.42,424.173 1291.47,419.736 1293.53,418.706 1295.58,418.4 1297.63,403.649 1299.68,399.718 1301.74,302.295 1303.79,331.659 1305.84,297.181 1307.9,314.871 1309.95,318.252 1312,339.262 1314.05,334.114 1316.11,379.018 1318.16,363.591 1320.21,366.11 1322.27,344.666 1324.32,328.378 1326.37,345.604 1328.42,374.806 1330.48,363.619 1332.53,354.731 1334.58,357.383 1336.64,357.21 1338.69,368.299 1340.74,359.553 1342.79,351.339 1344.85,325.176 1346.9,365.323 1348.95,366.332 1351.01,366.381 1353.06,344.281 1355.11,361.479 1357.16,361.7 1359.22,319.239 1361.27,353.682 1363.32,342.492 1365.38,387.529 1367.43,384.606 1369.48,389.092 1371.54,359.774 1373.59,384.906 1375.64,385.027 1377.69,405.031 1379.75,404.441 1381.8,374.236 1383.85,340.993 1385.91,339.804 1387.96,328.403 1390.01,337.227 1392.06,348.361 1394.12,342.803 1396.17,326.098 1398.22,322.661 1400.28,322.42 1402.33,304.716 1404.38,304.327 1406.43,304.727 1408.49,291.653 1410.54,354.156 1412.59,350.027 1414.65,349.797 1416.7,431.918 1418.75,436.321 1420.8,412.565 1422.86,424.203 1424.91,385.387 1426.96,334.94 1429.02,364.458 1431.07,365.432 1433.12,345.375 1435.17,351.918 1437.23,359.883 1439.28,341.229 1441.33,356.19 1443.39,356.147 1445.44,356.007 1447.49,355.982 1449.55,344.368 1451.6,383.2 1453.65,389.668 1455.7,329.381 1457.76,328.94 1459.81,374.778 1461.86,370.806 1463.92,369.884 1465.97,368.202 1468.02,367.349 1470.07,347.482 1472.13,344.256 1474.18,341.759 1476.23,369.215 1478.29,369.053 1480.34,369.122 1482.39,383.095 1484.44,383.079 1486.5,380.983 1488.55,380.667 1490.6,382.135 1492.66,382.322 1494.71,382.357 1496.76,382.303 1498.81,342.278 1500.87,371.686 1502.92,343.756 1504.97,343.75 1507.03,343.408 1509.08,343.411 1511.13,353.627 1513.18,350.673 1515.24,350.614 1517.29,350.338 1519.34,348.099 1521.4,347.432 1523.45,346.741 1525.5,351.67 1527.55,350.69 1529.61,351.929 1531.66,352.113 1533.71,350.702 1535.77,351.306 1537.82,354.254 1539.87,344.536 1541.93,343.626 1543.98,343.624 1546.03,352.584 1548.08,358.816 1550.14,367.428 1552.19,376.893 1554.24,380.952 1556.3,387.64 1558.35,385.544 1560.4,385.276 1562.45,384.319 1564.51,384.155 1566.56,388.872 1568.61,388.929 1570.67,396.324 1572.72,396.164 1574.77,397.421 1576.82,397.417 1578.88,397.722 1580.93,398.083 1582.98,395.461 1585.04,384.452 1587.09,379.011 1589.14,375.359 1591.19,373.275 1593.25,373.234 1595.3,387.333 1597.35,387.476 1599.41,387.76 1601.46,398.2 1603.51,398.073 1605.56,397.759 1607.62,397.76 1609.67,382.286 1611.72,330.493 1613.78,378.522 1615.83,377.307 1617.88,392.187 1619.94,383.419 1621.99,383.35 1624.04,373.784 1626.09,372.384 1628.15,371.86 1630.2,371.935 1632.25,351.827 1634.31,347.092 1636.36,348.402 1638.41,349.069 1640.46,354.837 1642.52,370.526 1644.57,370.537 1646.62,370.465 1648.68,370.53 1650.73,369.687 1652.78,370.738 1654.83,370.78 1656.89,371.07 1658.94,370.701 1660.99,384.129 1663.05,383.58 1665.1,382.928 1667.15,382.035 1669.2,386.303 1671.26,353.999 1673.31,402.969 1675.36,393.836 1677.42,395.264 1679.47,385.263 1681.52,385.573 1683.57,384.628 1685.63,387.454 1687.68,387.5 1689.73,385.276 1691.79,385.669 1693.84,385.584 1695.89,381.585 1697.94,378.566 1700,384.504 1702.05,382.505 1704.1,371.166 1706.16,344.665 1708.21,344.629 1710.26,345.67 1712.32,330.822 1714.37,344.126 1716.42,367.265 1718.47,373.576 1720.53,372.759 1722.58,395.723 1724.63,395.869 1726.69,396.183 1728.74,391.75 1730.79,387.885 1732.84,386.363 1734.9,372.24 1736.95,360.898 1739,361.433 1741.06,362.776 1743.11,363.601 1745.16,363.559 1747.21,360.443 1749.27,360.361 1751.32,358.16 1753.37,358.37 1755.43,358.27 1757.48,358.136 1759.53,380.418 1761.58,377.24 1763.64,377.252 1765.69,381.006 1767.74,380.903 1769.8,385.57 1771.85,385.682 1773.9,351.362 1775.95,351.363 1778.01,353.984 1780.06,334.118 1782.11,334.184 1784.17,334.198 1786.22,336.767 1788.27,354.1 1790.33,345.207 1792.38,345.077 1794.43,349.781 1796.48,349.839 1798.54,359.297 1800.59,360.283 1802.64,361.314 1804.7,360.2 1806.75,328.375 1808.8,360.77 1810.85,358.777 1812.91,339.741 1814.96,332.974 1817.01,331.362 1819.07,334.149 1821.12,338.048 1823.17,343.18 1825.22,357.608 1827.28,350.89 1829.33,352.677 1831.38,349.902 1833.44,349.913 1835.49,336.366 1837.54,338.844 1839.59,338.81 1841.65,331.886 1843.7,331.812 1845.75,319.461 1847.81,319.183 1849.86,319.755 1851.91,318.221 1853.96,356.537 1856.02,326.749 1858.07,322.076 1860.12,323.371 1862.18,323.4 1864.23,324.346 1866.28,327.889 1868.34,348.126 1870.39,351.614 1872.44,360.439 1874.49,332.811 1876.55,333.589 1878.6,332.685 1880.65,346.74 1882.71,344.836 1884.76,340.325 1886.81,340.352 1888.86,340.562 1890.92,349.556 1892.97,342.269 1895.02,339.861 1897.08,339.929 1899.13,339.976 1901.18,369.784 1903.23,370.112 1905.29,385.26 1907.34,389.493 1909.39,378.7 1911.45,401.72 1913.5,411.709 1915.55,411.74 1917.6,411.691 1919.66,394.544 1921.71,399.538 1923.76,399.56 1925.82,402.06 1927.87,395.124 1929.92,395.119 1931.97,392.956 1934.03,393.667 1936.08,393.462 1938.13,379.789 1940.19,375.693 1942.24,341.068 1944.29,350.411 1946.34,371.395 1948.4,378.947 1950.45,389.894 1952.5,395.494 1954.56,389.43 1956.61,322.247 1958.66,381.992 1960.72,399.764 1962.77,400.127 1964.82,400.732 1966.87,449.571 1968.93,445.964 1970.98,445.884 1973.03,404.69 1975.09,400.312 1977.14,406.279 1979.19,400.052 1981.24,368.705 1983.3,347.476 1985.35,380.133 1987.4,373.484 1989.46,364.739 1991.51,423.3 1993.56,412.658 1995.61,438.339 1997.67,263.348 1999.72,264.196 2001.77,261.563 2003.83,301.463 2005.88,301.573 2007.93,305.539 2009.98,297.628 2012.04,277.245 2014.09,284.186 2016.14,253.93 2018.2,372.639 2020.25,385.602 2022.3,368.189 2024.35,369.3 2026.41,361.41 2028.46,357.957 2030.51,382.833 2032.57,361.424 2034.62,314.551 2036.67,308.851 2038.73,310.018 2040.78,310.4 2042.83,298.348 2044.88,224.908 2046.94,224.891 2048.99,224.289 2051.04,256.187 2053.1,192.104 2055.15,195.016 2057.2,178.943 2059.25,164.596 2061.31,174.706 2063.36,173.784 2065.41,182.42 2067.47,367.198 2069.52,374.215 2071.57,375.062 2073.62,373.95 2075.68,380.657 2077.73,375.839 2079.78,420.693 2081.84,448.129 2083.89,456.643 2085.94,458.581 2087.99,473.266 2090.05,475.842 2092.1,490.037 2094.15,490.545 2096.21,496.093 2098.26,472.1 2100.31,467.346 2102.36,468.796 2104.42,473.052 2106.47,364.788 2108.52,364.917 2110.58,374.736 2112.63,372.209 2114.68,366.726 2116.73,373.996 2118.79,372.801 2120.84,346.674 2122.89,344.635 2124.95,386.093 2127,459.874 2129.05,448.572 2131.11,449.571 2133.16,455.42 2135.21,454.182 2137.26,512.875 2139.32,450.578 2141.37,457.429 2143.42,457.619 2145.48,473.11 2147.53,472.176 2149.58,500.583 2151.63,465.735 2153.69,465.589 2155.74,443.557 2157.79,428.133 2159.85,433.55 2161.9,386.345 2163.95,365.176 2166,434.28 2168.06,435.93 2170.11,413.359 2172.16,413.391 2174.22,398.836 2176.27,408.938 2178.32,383.279 2180.37,382.118 2182.43,379.465 2184.48,415.793 2186.53,420.979 2188.59,358.59 2190.64,354.869 2192.69,403.717 2194.74,264.414 2196.8,266.175 2198.85,310.157 2200.9,295.527 2202.96,290.308 2205.01,340.454 2207.06,333.083 2209.12,333.626 2211.17,294.312 2213.22,293.921 2215.27,344.426 2217.33,353.054 2219.38,324.313 2221.43,462.369 2223.49,466.516 2225.54,466.299 2227.59,466.564 2229.64,468.067 2231.7,419.219 2233.75,423.898 2235.8,430.933 2237.86,439.139 2239.91,441.676 2241.96,366.996 2244.01,408.341 2246.07,401.046 2248.12,402.068 2250.17,401.64 2252.23,401.637 2254.28,409.954 2256.33,410.103 2258.38,414.08 2260.44,413.786 2262.49,413.738 2264.54,410.874 2266.6,451.122 2268.65,445.451 2270.7,461.644 2272.75,448.612 2274.81,405.033 2276.86,412.445 2278.91,412.732 2280.97,306.314 2283.02,331.616 2285.07,334.606 2287.12,344.098 2289.18,356.179 2291.23,315.328 "/>
<path clip-path="url(#clip230)" d="M1983.6 665.141 L2280.29 665.141 L2280.29 561.461 L1983.6 561.461  Z" fill="#ffffff" fill-rule="evenodd" fill-opacity="1"/>
<polyline clip-path="url(#clip230)" style="stroke:#000000; stroke-linecap:round; stroke-linejoin:round; stroke-width:4; stroke-opacity:1; fill:none" points="1983.6,665.141 2280.29,665.141 2280.29,561.461 1983.6,561.461 1983.6,665.141 "/>
<polyline clip-path="url(#clip230)" style="stroke:#009af9; stroke-linecap:round; stroke-linejoin:round; stroke-width:4; stroke-opacity:1; fill:none" points="2007.75,613.301 2152.68,613.301 "/>
<path clip-path="url(#clip230)" d="M2176.83 596.021 L2181.51 596.021 L2181.51 626.646 L2198.34 626.646 L2198.34 630.581 L2176.83 630.581 L2176.83 596.021 Z" fill="#000000" fill-rule="nonzero" fill-opacity="1" /><path clip-path="url(#clip230)" d="M2223.96 597.155 L2223.96 601.715 Q2221.3 600.442 2218.94 599.817 Q2216.58 599.192 2214.38 599.192 Q2210.56 599.192 2208.48 600.674 Q2206.42 602.155 2206.42 604.887 Q2206.42 607.178 2207.78 608.359 Q2209.17 609.516 2213.01 610.234 L2215.84 610.813 Q2221.07 611.808 2223.55 614.331 Q2226.05 616.831 2226.05 621.044 Q2226.05 626.067 2222.67 628.66 Q2219.31 631.252 2212.81 631.252 Q2210.35 631.252 2207.57 630.697 Q2204.82 630.141 2201.86 629.053 L2201.86 624.239 Q2204.7 625.836 2207.44 626.646 Q2210.17 627.456 2212.81 627.456 Q2216.81 627.456 2218.99 625.882 Q2221.16 624.308 2221.16 621.391 Q2221.16 618.845 2219.59 617.41 Q2218.04 615.975 2214.47 615.257 L2211.62 614.702 Q2206.39 613.66 2204.06 611.438 Q2201.72 609.215 2201.72 605.257 Q2201.72 600.674 2204.94 598.035 Q2208.18 595.396 2213.85 595.396 Q2216.28 595.396 2218.8 595.836 Q2221.32 596.276 2223.96 597.155 Z" fill="#000000" fill-rule="nonzero" fill-opacity="1" /><path clip-path="url(#clip230)" d="M2254.06 597.155 L2254.06 601.715 Q2251.39 600.442 2249.03 599.817 Q2246.67 599.192 2244.47 599.192 Q2240.65 599.192 2238.57 600.674 Q2236.51 602.155 2236.51 604.887 Q2236.51 607.178 2237.87 608.359 Q2239.26 609.516 2243.11 610.234 L2245.93 610.813 Q2251.16 611.808 2253.64 614.331 Q2256.14 616.831 2256.14 621.044 Q2256.14 626.067 2252.76 628.66 Q2249.4 631.252 2242.9 631.252 Q2240.44 631.252 2237.67 630.697 Q2234.91 630.141 2231.95 629.053 L2231.95 624.239 Q2234.8 625.836 2237.53 626.646 Q2240.26 627.456 2242.9 627.456 Q2246.9 627.456 2249.08 625.882 Q2251.25 624.308 2251.25 621.391 Q2251.25 618.845 2249.68 617.41 Q2248.13 615.975 2244.56 615.257 L2241.72 614.702 Q2236.49 613.66 2234.15 611.438 Q2231.81 609.215 2231.81 605.257 Q2231.81 600.674 2235.03 598.035 Q2238.27 595.396 2243.94 595.396 Q2246.37 595.396 2248.89 595.836 Q2251.42 596.276 2254.06 597.155 Z" fill="#000000" fill-rule="nonzero" fill-opacity="1" /><path clip-path="url(#clip230)" d="M178.867 1486.45 L2352.76 1486.45 L2352.76 847.244 L178.867 847.244  Z" fill="#ffffff" fill-rule="evenodd" fill-opacity="1"/>
<defs>
  <clipPath id="clip233">
    <rect x="178" y="847" width="2175" height="640"/>
  </clipPath>
</defs>
<polyline clip-path="url(#clip233)" style="stroke:#000000; stroke-linecap:round; stroke-linejoin:round; stroke-width:2; stroke-opacity:0.1; fill:none" points="238.339,1486.45 238.339,847.244 "/>
<polyline clip-path="url(#clip233)" style="stroke:#000000; stroke-linecap:round; stroke-linejoin:round; stroke-width:2; stroke-opacity:0.1; fill:none" points="751.562,1486.45 751.562,847.244 "/>
<polyline clip-path="url(#clip233)" style="stroke:#000000; stroke-linecap:round; stroke-linejoin:round; stroke-width:2; stroke-opacity:0.1; fill:none" points="1264.78,1486.45 1264.78,847.244 "/>
<polyline clip-path="url(#clip233)" style="stroke:#000000; stroke-linecap:round; stroke-linejoin:round; stroke-width:2; stroke-opacity:0.1; fill:none" points="1778.01,1486.45 1778.01,847.244 "/>
<polyline clip-path="url(#clip233)" style="stroke:#000000; stroke-linecap:round; stroke-linejoin:round; stroke-width:2; stroke-opacity:0.1; fill:none" points="2291.23,1486.45 2291.23,847.244 "/>
<polyline clip-path="url(#clip233)" style="stroke:#000000; stroke-linecap:round; stroke-linejoin:round; stroke-width:2; stroke-opacity:0.1; fill:none" points="178.867,1486.45 2352.76,1486.45 "/>
<polyline clip-path="url(#clip233)" style="stroke:#000000; stroke-linecap:round; stroke-linejoin:round; stroke-width:2; stroke-opacity:0.1; fill:none" points="178.867,1326.65 2352.76,1326.65 "/>
<polyline clip-path="url(#clip233)" style="stroke:#000000; stroke-linecap:round; stroke-linejoin:round; stroke-width:2; stroke-opacity:0.1; fill:none" points="178.867,1166.85 2352.76,1166.85 "/>
<polyline clip-path="url(#clip233)" style="stroke:#000000; stroke-linecap:round; stroke-linejoin:round; stroke-width:2; stroke-opacity:0.1; fill:none" points="178.867,1007.05 2352.76,1007.05 "/>
<polyline clip-path="url(#clip233)" style="stroke:#000000; stroke-linecap:round; stroke-linejoin:round; stroke-width:2; stroke-opacity:0.1; fill:none" points="178.867,847.244 2352.76,847.244 "/>
<polyline clip-path="url(#clip230)" style="stroke:#000000; stroke-linecap:round; stroke-linejoin:round; stroke-width:4; stroke-opacity:1; fill:none" points="178.867,1486.45 2352.76,1486.45 "/>
<polyline clip-path="url(#clip230)" style="stroke:#000000; stroke-linecap:round; stroke-linejoin:round; stroke-width:4; stroke-opacity:1; fill:none" points="238.339,1486.45 238.339,1467.55 "/>
<polyline clip-path="url(#clip230)" style="stroke:#000000; stroke-linecap:round; stroke-linejoin:round; stroke-width:4; stroke-opacity:1; fill:none" points="751.562,1486.45 751.562,1467.55 "/>
<polyline clip-path="url(#clip230)" style="stroke:#000000; stroke-linecap:round; stroke-linejoin:round; stroke-width:4; stroke-opacity:1; fill:none" points="1264.78,1486.45 1264.78,1467.55 "/>
<polyline clip-path="url(#clip230)" style="stroke:#000000; stroke-linecap:round; stroke-linejoin:round; stroke-width:4; stroke-opacity:1; fill:none" points="1778.01,1486.45 1778.01,1467.55 "/>
<polyline clip-path="url(#clip230)" style="stroke:#000000; stroke-linecap:round; stroke-linejoin:round; stroke-width:4; stroke-opacity:1; fill:none" points="2291.23,1486.45 2291.23,1467.55 "/>
<path clip-path="url(#clip230)" d="M238.339 1517.37 Q234.728 1517.37 232.899 1520.93 Q231.094 1524.47 231.094 1531.6 Q231.094 1538.71 232.899 1542.27 Q234.728 1545.82 238.339 1545.82 Q241.973 1545.82 243.779 1542.27 Q245.607 1538.71 245.607 1531.6 Q245.607 1524.47 243.779 1520.93 Q241.973 1517.37 238.339 1517.37 M238.339 1513.66 Q244.149 1513.66 247.205 1518.27 Q250.283 1522.85 250.283 1531.6 Q250.283 1540.33 247.205 1544.94 Q244.149 1549.52 238.339 1549.52 Q232.529 1549.52 229.45 1544.94 Q226.395 1540.33 226.395 1531.6 Q226.395 1522.85 229.45 1518.27 Q232.529 1513.66 238.339 1513.66 Z" fill="#000000" fill-rule="nonzero" fill-opacity="1" /><path clip-path="url(#clip230)" d="M715.254 1544.91 L731.574 1544.91 L731.574 1548.85 L709.629 1548.85 L709.629 1544.91 Q712.291 1542.16 716.875 1537.53 Q721.481 1532.88 722.662 1531.53 Q724.907 1529.01 725.787 1527.27 Q726.689 1525.51 726.689 1523.82 Q726.689 1521.07 724.745 1519.33 Q722.824 1517.6 719.722 1517.6 Q717.523 1517.6 715.069 1518.36 Q712.638 1519.13 709.861 1520.68 L709.861 1515.95 Q712.685 1514.82 715.138 1514.24 Q717.592 1513.66 719.629 1513.66 Q725 1513.66 728.194 1516.35 Q731.388 1519.03 731.388 1523.52 Q731.388 1525.65 730.578 1527.57 Q729.791 1529.47 727.685 1532.07 Q727.106 1532.74 724.004 1535.95 Q720.902 1539.15 715.254 1544.91 Z" fill="#000000" fill-rule="nonzero" fill-opacity="1" /><path clip-path="url(#clip230)" d="M741.435 1514.29 L759.791 1514.29 L759.791 1518.22 L745.717 1518.22 L745.717 1526.7 Q746.736 1526.35 747.754 1526.19 Q748.773 1526 749.791 1526 Q755.578 1526 758.958 1529.17 Q762.337 1532.34 762.337 1537.76 Q762.337 1543.34 758.865 1546.44 Q755.393 1549.52 749.073 1549.52 Q746.898 1549.52 744.629 1549.15 Q742.384 1548.78 739.976 1548.04 L739.976 1543.34 Q742.06 1544.47 744.282 1545.03 Q746.504 1545.58 748.981 1545.58 Q752.985 1545.58 755.323 1543.48 Q757.661 1541.37 757.661 1537.76 Q757.661 1534.15 755.323 1532.04 Q752.985 1529.94 748.981 1529.94 Q747.106 1529.94 745.231 1530.35 Q743.379 1530.77 741.435 1531.65 L741.435 1514.29 Z" fill="#000000" fill-rule="nonzero" fill-opacity="1" /><path clip-path="url(#clip230)" d="M781.55 1517.37 Q777.939 1517.37 776.11 1520.93 Q774.305 1524.47 774.305 1531.6 Q774.305 1538.71 776.11 1542.27 Q777.939 1545.82 781.55 1545.82 Q785.184 1545.82 786.99 1542.27 Q788.819 1538.71 788.819 1531.6 Q788.819 1524.47 786.99 1520.93 Q785.184 1517.37 781.55 1517.37 M781.55 1513.66 Q787.36 1513.66 790.416 1518.27 Q793.495 1522.85 793.495 1531.6 Q793.495 1540.33 790.416 1544.94 Q787.36 1549.52 781.55 1549.52 Q775.74 1549.52 772.661 1544.94 Q769.606 1540.33 769.606 1531.6 Q769.606 1522.85 772.661 1518.27 Q775.74 1513.66 781.55 1513.66 Z" fill="#000000" fill-rule="nonzero" fill-opacity="1" /><path clip-path="url(#clip230)" d="M1224.4 1514.29 L1242.76 1514.29 L1242.76 1518.22 L1228.69 1518.22 L1228.69 1526.7 Q1229.7 1526.35 1230.72 1526.19 Q1231.74 1526 1232.76 1526 Q1238.55 1526 1241.93 1529.17 Q1245.31 1532.34 1245.31 1537.76 Q1245.31 1543.34 1241.83 1546.44 Q1238.36 1549.52 1232.04 1549.52 Q1229.87 1549.52 1227.6 1549.15 Q1225.35 1548.78 1222.94 1548.04 L1222.94 1543.34 Q1225.03 1544.47 1227.25 1545.03 Q1229.47 1545.58 1231.95 1545.58 Q1235.95 1545.58 1238.29 1543.48 Q1240.63 1541.37 1240.63 1537.76 Q1240.63 1534.15 1238.29 1532.04 Q1235.95 1529.94 1231.95 1529.94 Q1230.07 1529.94 1228.2 1530.35 Q1226.35 1530.77 1224.4 1531.65 L1224.4 1514.29 Z" fill="#000000" fill-rule="nonzero" fill-opacity="1" /><path clip-path="url(#clip230)" d="M1264.52 1517.37 Q1260.91 1517.37 1259.08 1520.93 Q1257.27 1524.47 1257.27 1531.6 Q1257.27 1538.71 1259.08 1542.27 Q1260.91 1545.82 1264.52 1545.82 Q1268.15 1545.82 1269.96 1542.27 Q1271.79 1538.71 1271.79 1531.6 Q1271.79 1524.47 1269.96 1520.93 Q1268.15 1517.37 1264.52 1517.37 M1264.52 1513.66 Q1270.33 1513.66 1273.38 1518.27 Q1276.46 1522.85 1276.46 1531.6 Q1276.46 1540.33 1273.38 1544.94 Q1270.33 1549.52 1264.52 1549.52 Q1258.71 1549.52 1255.63 1544.94 Q1252.57 1540.33 1252.57 1531.6 Q1252.57 1522.85 1255.63 1518.27 Q1258.71 1513.66 1264.52 1513.66 Z" fill="#000000" fill-rule="nonzero" fill-opacity="1" /><path clip-path="url(#clip230)" d="M1294.68 1517.37 Q1291.07 1517.37 1289.24 1520.93 Q1287.44 1524.47 1287.44 1531.6 Q1287.44 1538.71 1289.24 1542.27 Q1291.07 1545.82 1294.68 1545.82 Q1298.31 1545.82 1300.12 1542.27 Q1301.95 1538.71 1301.95 1531.6 Q1301.95 1524.47 1300.12 1520.93 Q1298.31 1517.37 1294.68 1517.37 M1294.68 1513.66 Q1300.49 1513.66 1303.55 1518.27 Q1306.62 1522.85 1306.62 1531.6 Q1306.62 1540.33 1303.55 1544.94 Q1300.49 1549.52 1294.68 1549.52 Q1288.87 1549.52 1285.79 1544.94 Q1282.74 1540.33 1282.74 1531.6 Q1282.74 1522.85 1285.79 1518.27 Q1288.87 1513.66 1294.68 1513.66 Z" fill="#000000" fill-rule="nonzero" fill-opacity="1" /><path clip-path="url(#clip230)" d="M1736.28 1514.29 L1758.51 1514.29 L1758.51 1516.28 L1745.96 1548.85 L1741.08 1548.85 L1752.88 1518.22 L1736.28 1518.22 L1736.28 1514.29 Z" fill="#000000" fill-rule="nonzero" fill-opacity="1" /><path clip-path="url(#clip230)" d="M1767.67 1514.29 L1786.03 1514.29 L1786.03 1518.22 L1771.95 1518.22 L1771.95 1526.7 Q1772.97 1526.35 1773.99 1526.19 Q1775.01 1526 1776.03 1526 Q1781.82 1526 1785.2 1529.17 Q1788.57 1532.34 1788.57 1537.76 Q1788.57 1543.34 1785.1 1546.44 Q1781.63 1549.52 1775.31 1549.52 Q1773.14 1549.52 1770.87 1549.15 Q1768.62 1548.78 1766.21 1548.04 L1766.21 1543.34 Q1768.3 1544.47 1770.52 1545.03 Q1772.74 1545.58 1775.22 1545.58 Q1779.22 1545.58 1781.56 1543.48 Q1783.9 1541.37 1783.9 1537.76 Q1783.9 1534.15 1781.56 1532.04 Q1779.22 1529.94 1775.22 1529.94 Q1773.34 1529.94 1771.47 1530.35 Q1769.62 1530.77 1767.67 1531.65 L1767.67 1514.29 Z" fill="#000000" fill-rule="nonzero" fill-opacity="1" /><path clip-path="url(#clip230)" d="M1807.79 1517.37 Q1804.18 1517.37 1802.35 1520.93 Q1800.54 1524.47 1800.54 1531.6 Q1800.54 1538.71 1802.35 1542.27 Q1804.18 1545.82 1807.79 1545.82 Q1811.42 1545.82 1813.23 1542.27 Q1815.06 1538.71 1815.06 1531.6 Q1815.06 1524.47 1813.23 1520.93 Q1811.42 1517.37 1807.79 1517.37 M1807.79 1513.66 Q1813.6 1513.66 1816.65 1518.27 Q1819.73 1522.85 1819.73 1531.6 Q1819.73 1540.33 1816.65 1544.94 Q1813.6 1549.52 1807.79 1549.52 Q1801.98 1549.52 1798.9 1544.94 Q1795.84 1540.33 1795.84 1531.6 Q1795.84 1522.85 1798.9 1518.27 Q1801.98 1513.66 1807.79 1513.66 Z" fill="#000000" fill-rule="nonzero" fill-opacity="1" /><path clip-path="url(#clip230)" d="M2235.76 1544.91 L2243.4 1544.91 L2243.4 1518.55 L2235.09 1520.21 L2235.09 1515.95 L2243.35 1514.29 L2248.02 1514.29 L2248.02 1544.91 L2255.66 1544.91 L2255.66 1548.85 L2235.76 1548.85 L2235.76 1544.91 Z" fill="#000000" fill-rule="nonzero" fill-opacity="1" /><path clip-path="url(#clip230)" d="M2275.11 1517.37 Q2271.5 1517.37 2269.67 1520.93 Q2267.86 1524.47 2267.86 1531.6 Q2267.86 1538.71 2269.67 1542.27 Q2271.5 1545.82 2275.11 1545.82 Q2278.74 1545.82 2280.55 1542.27 Q2282.38 1538.71 2282.38 1531.6 Q2282.38 1524.47 2280.55 1520.93 Q2278.74 1517.37 2275.11 1517.37 M2275.11 1513.66 Q2280.92 1513.66 2283.97 1518.27 Q2287.05 1522.85 2287.05 1531.6 Q2287.05 1540.33 2283.97 1544.94 Q2280.92 1549.52 2275.11 1549.52 Q2269.3 1549.52 2266.22 1544.94 Q2263.16 1540.33 2263.16 1531.6 Q2263.16 1522.85 2266.22 1518.27 Q2269.3 1513.66 2275.11 1513.66 Z" fill="#000000" fill-rule="nonzero" fill-opacity="1" /><path clip-path="url(#clip230)" d="M2305.27 1517.37 Q2301.66 1517.37 2299.83 1520.93 Q2298.02 1524.47 2298.02 1531.6 Q2298.02 1538.71 2299.83 1542.27 Q2301.66 1545.82 2305.27 1545.82 Q2308.9 1545.82 2310.71 1542.27 Q2312.54 1538.71 2312.54 1531.6 Q2312.54 1524.47 2310.71 1520.93 Q2308.9 1517.37 2305.27 1517.37 M2305.27 1513.66 Q2311.08 1513.66 2314.14 1518.27 Q2317.21 1522.85 2317.21 1531.6 Q2317.21 1540.33 2314.14 1544.94 Q2311.08 1549.52 2305.27 1549.52 Q2299.46 1549.52 2296.38 1544.94 Q2293.33 1540.33 2293.33 1531.6 Q2293.33 1522.85 2296.38 1518.27 Q2299.46 1513.66 2305.27 1513.66 Z" fill="#000000" fill-rule="nonzero" fill-opacity="1" /><path clip-path="url(#clip230)" d="M2335.43 1517.37 Q2331.82 1517.37 2329.99 1520.93 Q2328.19 1524.47 2328.19 1531.6 Q2328.19 1538.71 2329.99 1542.27 Q2331.82 1545.82 2335.43 1545.82 Q2339.07 1545.82 2340.87 1542.27 Q2342.7 1538.71 2342.7 1531.6 Q2342.7 1524.47 2340.87 1520.93 Q2339.07 1517.37 2335.43 1517.37 M2335.43 1513.66 Q2341.24 1513.66 2344.3 1518.27 Q2347.38 1522.85 2347.38 1531.6 Q2347.38 1540.33 2344.3 1544.94 Q2341.24 1549.52 2335.43 1549.52 Q2329.62 1549.52 2326.54 1544.94 Q2323.49 1540.33 2323.49 1531.6 Q2323.49 1522.85 2326.54 1518.27 Q2329.62 1513.66 2335.43 1513.66 Z" fill="#000000" fill-rule="nonzero" fill-opacity="1" /><polyline clip-path="url(#clip230)" style="stroke:#000000; stroke-linecap:round; stroke-linejoin:round; stroke-width:4; stroke-opacity:1; fill:none" points="178.867,1486.45 178.867,847.244 "/>
<polyline clip-path="url(#clip230)" style="stroke:#000000; stroke-linecap:round; stroke-linejoin:round; stroke-width:4; stroke-opacity:1; fill:none" points="178.867,1486.45 197.764,1486.45 "/>
<polyline clip-path="url(#clip230)" style="stroke:#000000; stroke-linecap:round; stroke-linejoin:round; stroke-width:4; stroke-opacity:1; fill:none" points="178.867,1326.65 197.764,1326.65 "/>
<polyline clip-path="url(#clip230)" style="stroke:#000000; stroke-linecap:round; stroke-linejoin:round; stroke-width:4; stroke-opacity:1; fill:none" points="178.867,1166.85 197.764,1166.85 "/>
<polyline clip-path="url(#clip230)" style="stroke:#000000; stroke-linecap:round; stroke-linejoin:round; stroke-width:4; stroke-opacity:1; fill:none" points="178.867,1007.05 197.764,1007.05 "/>
<polyline clip-path="url(#clip230)" style="stroke:#000000; stroke-linecap:round; stroke-linejoin:round; stroke-width:4; stroke-opacity:1; fill:none" points="178.867,847.244 197.764,847.244 "/>
<path clip-path="url(#clip230)" d="M50.9921 1486.9 L80.6679 1486.9 L80.6679 1490.83 L50.9921 1490.83 L50.9921 1486.9 Z" fill="#000000" fill-rule="nonzero" fill-opacity="1" /><path clip-path="url(#clip230)" d="M91.5706 1499.79 L99.2095 1499.79 L99.2095 1473.43 L90.8993 1475.09 L90.8993 1470.83 L99.1632 1469.17 L103.839 1469.17 L103.839 1499.79 L111.478 1499.79 L111.478 1503.73 L91.5706 1503.73 L91.5706 1499.79 Z" fill="#000000" fill-rule="nonzero" fill-opacity="1" /><path clip-path="url(#clip230)" d="M130.922 1472.25 Q127.311 1472.25 125.482 1475.81 Q123.677 1479.35 123.677 1486.48 Q123.677 1493.59 125.482 1497.15 Q127.311 1500.7 130.922 1500.7 Q134.556 1500.7 136.362 1497.15 Q138.191 1493.59 138.191 1486.48 Q138.191 1479.35 136.362 1475.81 Q134.556 1472.25 130.922 1472.25 M130.922 1468.54 Q136.732 1468.54 139.788 1473.15 Q142.867 1477.73 142.867 1486.48 Q142.867 1495.21 139.788 1499.82 Q136.732 1504.4 130.922 1504.4 Q125.112 1504.4 122.033 1499.82 Q118.978 1495.21 118.978 1486.48 Q118.978 1477.73 122.033 1473.15 Q125.112 1468.54 130.922 1468.54 Z" fill="#000000" fill-rule="nonzero" fill-opacity="1" /><path clip-path="url(#clip230)" d="M82.1494 1327.1 L111.825 1327.1 L111.825 1331.03 L82.1494 1331.03 L82.1494 1327.1 Z" fill="#000000" fill-rule="nonzero" fill-opacity="1" /><path clip-path="url(#clip230)" d="M121.964 1309.37 L140.32 1309.37 L140.32 1313.3 L126.246 1313.3 L126.246 1321.77 Q127.265 1321.43 128.283 1321.27 Q129.302 1321.08 130.32 1321.08 Q136.107 1321.08 139.487 1324.25 Q142.867 1327.42 142.867 1332.84 Q142.867 1338.42 139.394 1341.52 Q135.922 1344.6 129.603 1344.6 Q127.427 1344.6 125.158 1344.23 Q122.913 1343.86 120.506 1343.12 L120.506 1338.42 Q122.589 1339.55 124.811 1340.11 Q127.033 1340.66 129.51 1340.66 Q133.515 1340.66 135.853 1338.56 Q138.191 1336.45 138.191 1332.84 Q138.191 1329.23 135.853 1327.12 Q133.515 1325.01 129.51 1325.01 Q127.635 1325.01 125.76 1325.43 Q123.908 1325.85 121.964 1326.73 L121.964 1309.37 Z" fill="#000000" fill-rule="nonzero" fill-opacity="1" /><path clip-path="url(#clip230)" d="M130.922 1152.64 Q127.311 1152.64 125.482 1156.21 Q123.677 1159.75 123.677 1166.88 Q123.677 1173.99 125.482 1177.55 Q127.311 1181.09 130.922 1181.09 Q134.556 1181.09 136.362 1177.55 Q138.191 1173.99 138.191 1166.88 Q138.191 1159.75 136.362 1156.21 Q134.556 1152.64 130.922 1152.64 M130.922 1148.94 Q136.732 1148.94 139.788 1153.55 Q142.867 1158.13 142.867 1166.88 Q142.867 1175.61 139.788 1180.21 Q136.732 1184.8 130.922 1184.8 Q125.112 1184.8 122.033 1180.21 Q118.978 1175.61 118.978 1166.88 Q118.978 1158.13 122.033 1153.55 Q125.112 1148.94 130.922 1148.94 Z" fill="#000000" fill-rule="nonzero" fill-opacity="1" /><path clip-path="url(#clip230)" d="M121.964 989.765 L140.32 989.765 L140.32 993.7 L126.246 993.7 L126.246 1002.17 Q127.265 1001.83 128.283 1001.66 Q129.302 1001.48 130.32 1001.48 Q136.107 1001.48 139.487 1004.65 Q142.867 1007.82 142.867 1013.24 Q142.867 1018.82 139.394 1021.92 Q135.922 1025 129.603 1025 Q127.427 1025 125.158 1024.63 Q122.913 1024.26 120.506 1023.51 L120.506 1018.82 Q122.589 1019.95 124.811 1020.51 Q127.033 1021.06 129.51 1021.06 Q133.515 1021.06 135.853 1018.95 Q138.191 1016.85 138.191 1013.24 Q138.191 1009.63 135.853 1007.52 Q133.515 1005.41 129.51 1005.41 Q127.635 1005.41 125.76 1005.83 Q123.908 1006.25 121.964 1007.13 L121.964 989.765 Z" fill="#000000" fill-rule="nonzero" fill-opacity="1" /><path clip-path="url(#clip230)" d="M91.5706 860.589 L99.2095 860.589 L99.2095 834.223 L90.8993 835.89 L90.8993 831.631 L99.1632 829.964 L103.839 829.964 L103.839 860.589 L111.478 860.589 L111.478 864.524 L91.5706 864.524 L91.5706 860.589 Z" fill="#000000" fill-rule="nonzero" fill-opacity="1" /><path clip-path="url(#clip230)" d="M130.922 833.043 Q127.311 833.043 125.482 836.608 Q123.677 840.149 123.677 847.279 Q123.677 854.385 125.482 857.95 Q127.311 861.492 130.922 861.492 Q134.556 861.492 136.362 857.95 Q138.191 854.385 138.191 847.279 Q138.191 840.149 136.362 836.608 Q134.556 833.043 130.922 833.043 M130.922 829.339 Q136.732 829.339 139.788 833.946 Q142.867 838.529 142.867 847.279 Q142.867 856.006 139.788 860.612 Q136.732 865.195 130.922 865.195 Q125.112 865.195 122.033 860.612 Q118.978 856.006 118.978 847.279 Q118.978 838.529 122.033 833.946 Q125.112 829.339 130.922 829.339 Z" fill="#000000" fill-rule="nonzero" fill-opacity="1" /><polyline clip-path="url(#clip233)" style="stroke:#009af9; stroke-linecap:round; stroke-linejoin:round; stroke-width:4; stroke-opacity:1; fill:none" points="240.392,1134.89 242.445,1153.63 244.498,1198.85 246.55,1180.38 248.603,1193.69 250.656,1229.47 252.709,1099.92 254.762,1149.32 256.815,1410.49 258.868,979.579 260.921,927.66 262.974,1307.15 265.027,1278.17 267.079,1117.47 269.132,1565.34 271.185,1095.44 273.238,1060 275.291,1224.2 277.344,1252.96 279.397,1218.26 281.45,1088.98 283.503,1152.48 285.555,1152.5 287.608,1175.47 289.661,1256.02 291.714,1077.24 293.767,1206.88 295.82,1323.87 297.873,986.609 299.926,1234.43 301.979,1226.47 304.031,1255.09 306.084,1122.7 308.137,1107.61 310.19,1203.54 312.243,1212.91 314.296,1165.83 316.349,1183.1 318.402,1155.76 320.455,1295.16 322.507,1273.48 324.56,1149.49 326.613,1151.25 328.666,1136.33 330.719,1152.11 332.772,1178.4 334.825,1181.94 336.878,1079.87 338.931,1246.45 340.984,1112.19 343.036,1153.7 345.089,1901.29 347.142,1009.05 349.195,813.233 351.248,1242.03 353.301,373.759 355.354,1723 357.407,1095.36 359.46,1194.41 361.512,1109.7 363.565,-60.7835 365.618,1291.78 367.671,2370.36 369.724,886.259 371.777,753.255 373.83,1534.45 375.883,1164.74 377.936,1156.84 379.988,1173.79 382.041,1187.9 384.094,1194.53 386.147,1233.67 388.2,1186.98 390.253,1181 392.306,1143.21 394.359,1131.53 396.412,1186.13 398.464,1159.75 400.517,1193.71 402.57,1153.32 404.623,1101.29 406.676,1077.62 408.729,1248.97 410.782,1099.26 412.835,1176.03 414.888,1214.54 416.94,1191.18 418.993,1171.01 421.046,939.811 423.099,1393.52 425.152,757.746 427.205,836.497 429.258,2398.6 431.311,-2547.45 433.364,-2543.16 435.417,1175.24 437.469,1010.25 439.522,993.313 441.575,1156.62 443.628,1142.56 445.681,1145.33 447.734,1164.93 449.787,1142.52 451.84,1523 453.893,829.107 455.945,1326.73 457.998,1050.31 460.051,1232.88 462.104,1261.45 464.157,1234.79 466.21,1216.85 468.263,1185.64 470.316,1127.47 472.369,1087.8 474.421,1152.82 476.474,1157.01 478.527,1165.49 480.58,1182.91 482.633,1250.16 484.686,1223.98 486.739,1217.7 488.792,1146.37 490.845,1198.27 492.897,1145.6 494.95,1183.61 497.003,1180.49 499.056,1153.89 501.109,1127.57 503.162,1139.09 505.215,1167.37 507.268,1187.71 509.321,1223.9 511.374,1248.39 513.426,1117.94 515.479,1151.49 517.532,1177.97 519.585,1241.97 521.638,1066.15 523.691,1098.04 525.744,1141.74 527.797,1172.11 529.85,1186.48 531.902,1250.34 533.955,1211.29 536.008,1103.52 538.061,1173.63 540.114,1164.84 542.167,1166.24 544.22,1183.19 546.273,1162.47 548.326,1182.45 550.378,1172.16 552.431,1125.9 554.484,1145.6 556.537,1133.87 558.59,1102.65 560.643,1097.49 562.696,1041.97 564.749,1148.65 566.802,1187.76 568.854,1173.31 570.907,1176.04 572.96,1113.34 575.013,1141.38 577.066,1126.6 579.119,1060.45 581.172,1066.13 583.225,1018.24 585.278,1203.15 587.331,1130.72 589.383,1145.01 591.436,1223.56 593.489,1167.31 595.542,1179.76 597.595,1201.21 599.648,1163.05 601.701,1170.11 603.754,1173.37 605.807,1160.7 607.859,1101.13 609.912,1119.55 611.965,1140.37 614.018,1230.03 616.071,1173.38 618.124,1160.45 620.177,1177.32 622.23,1179.74 624.283,1135.44 626.335,1346.89 628.388,1246.18 630.441,1396.87 632.494,1245.09 634.547,984.006 636.6,1203.46 638.653,1261.07 640.706,1048.71 642.759,1218.12 644.811,1198.4 646.864,1187.13 648.917,1184.46 650.97,1264.73 653.023,992.17 655.076,1131.48 657.129,1161.74 659.182,1229.46 661.235,1167.49 663.288,1146.25 665.34,1094.07 667.393,942.96 669.446,1273.89 671.499,1160.7 673.552,1198.5 675.605,1165.71 677.658,1148.42 679.711,1153.02 681.764,1181.9 683.816,1231.67 685.869,1038.15 687.922,1115.18 689.975,1114.65 692.028,1152.67 694.081,1182.08 696.134,1138.61 698.187,1152.89 700.24,1144 702.292,1162.28 704.345,1231.53 706.398,1139.87 708.451,1173.29 710.504,1194.39 712.557,1261.29 714.61,1119.66 716.663,1185.81 718.716,1148.22 720.768,1210.82 722.821,983.417 724.874,-518.453 726.927,1494.83 728.98,1462.44 731.033,1283.23 733.086,1010.21 735.139,1190.08 737.192,1186.1 739.245,1166.83 741.297,1162.83 743.35,1227.72 745.403,989.392 747.456,1271.44 749.509,1210.48 751.562,948.184 753.615,1197.79 755.668,1260.96 757.721,1121.74 759.773,1250.63 761.826,1115.75 763.879,1060.86 765.932,1202.4 767.985,1127.73 770.038,1187.15 772.091,1170.6 774.144,1128.45 776.197,1080.56 778.249,1262.39 780.302,1226.07 782.355,1139.83 784.408,1175.79 786.461,1177.37 788.514,1230.8 790.567,1210.74 792.62,1143.25 794.673,1118.39 796.725,1140 798.778,1233.14 800.831,1233.25 802.884,1203.4 804.937,1167.07 806.99,1198.55 809.043,1208.94 811.096,1158.02 813.149,1184.62 815.202,1197.43 817.254,1164.24 819.307,1086.15 821.36,1073.03 823.413,825.298 825.466,1187.3 827.519,1213.85 829.572,1145.28 831.625,1162.76 833.678,1227.47 835.73,1202.26 837.783,1173.46 839.836,1190.47 841.889,1150.06 843.942,1182.55 845.995,1192.02 848.048,1084.3 850.101,1199.07 852.154,1120.39 854.206,1162 856.259,1152.13 858.312,1157.42 860.365,1176.91 862.418,1209.59 864.471,1242.7 866.524,1196.73 868.577,1263.76 870.63,1176.38 872.682,1166.51 874.735,1266.62 876.788,1203.74 878.841,1136.84 880.894,1086.54 882.947,1194.95 885,1137.15 887.053,1165.06 889.106,1152.5 891.159,1175.5 893.211,1191.43 895.264,1073.29 897.317,1146.88 899.37,1151.64 901.423,1066.91 903.476,1205.84 905.529,1203.18 907.582,1164.44 909.635,1164.34 911.687,1160.68 913.74,1219.42 915.793,1171.58 917.846,1150.71 919.899,1149.34 921.952,1145.93 924.005,1176.28 926.058,1191.02 928.111,1133.52 930.163,1191.52 932.216,1244.11 934.269,1269.75 936.322,1214.61 938.375,1143.39 940.428,1142.74 942.481,1188.71 944.534,1127.95 946.587,1178.28 948.639,1226.34 950.692,1170.29 952.745,1170.8 954.798,1155.27 956.851,1201.13 958.904,1144.17 960.957,1168.21 963.01,1146.71 965.063,1136.72 967.116,1133.94 969.168,1179.03 971.221,1192.72 973.274,1101.18 975.327,1343.18 977.38,1137.66 979.433,1107.53 981.486,1187.48 983.539,1192.02 985.592,1139.07 987.644,1293.3 989.697,1197.12 991.75,1432.17 993.803,1314.01 995.856,994.415 997.909,1362.12 999.962,1337.3 1002.01,1196.35 1004.07,1148.28 1006.12,1163.74 1008.17,1152.99 1010.23,1209.63 1012.28,1173.21 1014.33,1180.85 1016.38,1137.73 1018.44,1158.99 1020.49,1148.48 1022.54,1117.33 1024.6,1178.09 1026.65,1141.63 1028.7,1265.54 1030.76,1178.07 1032.81,1330.8 1034.86,1324.43 1036.91,1183.66 1038.97,1092.73 1041.02,1203.63 1043.07,1153.88 1045.13,1186.78 1047.18,1143.53 1049.23,1135.36 1051.28,1225.9 1053.34,1217.89 1055.39,1124.38 1057.44,1115.59 1059.5,1153.83 1061.55,1163.22 1063.6,1346.43 1065.65,1126.07 1067.71,1166.32 1069.76,1146.85 1071.81,1176.24 1073.87,1144.25 1075.92,1214.07 1077.97,1086.07 1080.02,1249.63 1082.08,1152.86 1084.13,1163.11 1086.18,1049.72 1088.24,1195.59 1090.29,1118.38 1092.34,1142.13 1094.39,1177.48 1096.45,1164.83 1098.5,1132.44 1100.55,1194.15 1102.61,1145.98 1104.66,1152.67 1106.71,1229.95 1108.77,1248.67 1110.82,1135.75 1112.87,1192.1 1114.92,1149.81 1116.98,1168.11 1119.03,1214.3 1121.08,1154.45 1123.14,1171.04 1125.19,1034.16 1127.24,997.417 1129.29,977.655 1131.35,1392.46 1133.4,988.438 1135.45,1148.15 1137.51,1259.45 1139.56,1288.59 1141.61,1175.18 1143.66,1176.79 1145.72,1143.59 1147.77,1153.12 1149.82,1166.83 1151.88,1166.84 1153.93,1154.91 1155.98,1157.93 1158.03,1166.02 1160.09,1209.45 1162.14,1229 1164.19,1215.22 1166.25,1203.21 1168.3,1183.89 1170.35,1109.41 1172.4,1226.67 1174.46,1202.37 1176.51,1204.79 1178.56,1118.43 1180.62,1155.33 1182.67,1157.59 1184.72,1135.53 1186.77,1220.63 1188.83,691.567 1190.88,1012.41 1192.93,1163.19 1194.99,1161.36 1197.04,1164.92 1199.09,1161.19 1201.15,1158.25 1203.2,939.427 1205.25,874.683 1207.3,309.371 1209.36,1348 1211.41,983.877 1213.46,1223.75 1215.52,1153.62 1217.57,1206.18 1219.62,1246.82 1221.67,1048.35 1223.73,1047.94 1225.78,1116.81 1227.83,1165.69 1229.89,1181.78 1231.94,1123.29 1233.99,888.998 1236.04,937.496 1238.1,1143.03 1240.15,1148.85 1242.2,1183.55 1244.26,1167.77 1246.31,1148.93 1248.36,1061.18 1250.41,1226.34 1252.47,800.669 1254.52,998.637 1256.57,1182.63 1258.63,1150.56 1260.68,1186.26 1262.73,1115.92 1264.78,1176.42 1266.84,1185.21 1268.89,1149.21 1270.94,1128.93 1273,1137.84 1275.05,1142.4 1277.1,1234.48 1279.16,1178.45 1281.21,1154.65 1283.26,1179.82 1285.31,1136.67 1287.37,1198.65 1289.42,1175.13 1291.47,1188.83 1293.53,1154.42 1295.58,1185.25 1297.63,1507.53 1299.68,718.042 1301.74,1334.49 1303.79,1517.66 1305.84,1221.55 1307.9,1098.71 1309.95,1132.42 1312,1076.39 1314.05,1090.08 1316.11,1116.66 1318.16,1110.39 1320.21,1157.53 1322.27,1170.97 1324.32,1127 1326.37,1218.06 1328.42,1127.08 1330.48,1132.04 1332.53,1199.79 1334.58,1114.38 1336.64,1177.11 1338.69,1202.32 1340.74,1251.06 1342.79,1106.28 1344.85,1225.46 1346.9,1195.46 1348.95,1137.87 1351.01,1133.24 1353.06,1143.07 1355.11,1138.95 1357.16,1194.54 1359.22,1221.59 1361.27,1256.78 1363.32,1265.91 1365.38,1181.35 1367.43,1185.77 1369.48,1199.46 1371.54,1183.16 1373.59,1151.36 1375.64,1199.96 1377.69,1189.65 1379.75,1201.66 1381.8,1190.86 1383.85,1214.71 1385.91,1192.77 1387.96,1212.02 1390.01,1249.41 1392.06,1120.26 1394.12,1147.13 1396.17,1176.52 1398.22,1185.69 1400.28,1158.85 1402.33,1121.75 1404.38,1091.02 1406.43,1131.97 1408.49,1181.52 1410.54,1162.26 1412.59,1157.7 1414.65,1187.01 1416.7,1176.51 1418.75,1168.93 1420.8,1205.62 1422.86,1130.96 1424.91,1147.24 1426.96,1186.09 1429.02,1175.57 1431.07,1155.23 1433.12,1012.25 1435.17,939.398 1437.23,1223.64 1439.28,1180.04 1441.33,1259.36 1443.39,982.896 1445.44,1174.93 1447.49,1122.72 1449.55,1073.55 1451.6,1062.38 1453.65,1154.56 1455.7,1232.53 1457.76,1216.4 1459.81,1160.19 1461.86,1150.89 1463.92,1168.11 1465.97,1193.61 1468.02,1158.29 1470.07,1155.96 1472.13,1237.92 1474.18,1174.68 1476.23,1175.04 1478.29,1210.02 1480.34,1136.94 1482.39,1181.2 1484.44,1190.3 1486.5,1112.1 1488.55,1120.77 1490.6,1194.85 1492.66,1242.17 1494.71,1172.41 1496.76,926.143 1498.81,1185.38 1500.87,1138.74 1502.92,1139.79 1504.97,1208.84 1507.03,1142.49 1509.08,1194.02 1511.13,1158.02 1513.18,1168.5 1515.24,1160.95 1517.29,1184.72 1519.34,1135.31 1521.4,1162.8 1523.45,1350.96 1525.5,1075.96 1527.55,1259.17 1529.61,1223.59 1531.66,1140.6 1533.71,1174.56 1535.77,1156.25 1537.82,1323.16 1539.87,1573.58 1541.93,1343.28 1543.98,1173 1546.03,1143.18 1548.08,1142.1 1550.14,1234.87 1552.19,1155.06 1554.24,1156.07 1556.3,1201.77 1558.35,1224.79 1560.4,1104.28 1562.45,1227.93 1564.51,1162.44 1566.56,1579.4 1568.61,1181.38 1570.67,1171.84 1572.72,1167.02 1574.77,1186.35 1576.82,1119.84 1578.88,1129.6 1580.93,1185 1582.98,1149.72 1585.04,1179.16 1587.09,1176.24 1589.14,1148.05 1591.19,1160.56 1593.25,1174.23 1595.3,1256.34 1597.35,1158.96 1599.41,1155.68 1601.46,1167.83 1603.51,1185.61 1605.56,-784.568 1607.62,-2493.38 1609.67,-6935.04 1611.72,-6579.15 1613.78,-694.212 1615.83,1595.52 1617.88,1505.38 1619.94,1162 1621.99,1425.34 1624.04,1291.86 1626.09,1222.95 1628.15,1102.85 1630.2,1192.45 1632.25,1182.39 1634.31,1152.46 1636.36,1168.93 1638.41,1182.11 1640.46,1044.34 1642.52,1057.55 1644.57,1063.14 1646.62,1251.3 1648.68,1246.84 1650.73,795.437 1652.78,1694.57 1654.83,1427.02 1656.89,1404.6 1658.94,911.517 1660.99,1504 1663.05,1668.56 1665.1,1068.15 1667.15,1193.7 1669.2,1168.43 1671.26,1168.57 1673.31,1156.4 1675.36,1171.79 1677.42,1176.61 1679.47,1156.41 1681.52,1223.66 1683.57,1174.61 1685.63,1146.03 1687.68,1146.09 1689.73,1135.62 1691.79,1172.62 1693.84,1176.14 1695.89,1161 1697.94,1162.73 1700,1156.77 1702.05,1184.65 1704.1,1111.45 1706.16,1198.81 1708.21,1104.8 1710.26,1158.93 1712.32,1177.23 1714.37,1159.79 1716.42,1154.74 1718.47,1197.46 1720.53,1149.24 1722.58,1229.56 1724.63,1237.2 1726.69,1135.04 1728.74,1188.45 1730.79,1741.03 1732.84,1101.04 1734.9,1406.94 1736.95,1088.86 1739,1074.52 1741.06,1140.43 1743.11,1154.31 1745.16,1164.22 1747.21,1180.39 1749.27,1183.84 1751.32,1234.57 1753.37,1133.68 1755.43,1163.36 1757.48,1161.3 1759.53,1195.02 1761.58,1160.76 1763.64,1222.66 1765.69,1099.81 1767.74,1557.65 1769.8,1331.52 1771.85,1099.49 1773.9,1130.19 1775.95,1234.61 1778.01,1121.5 1780.06,1221.8 1782.11,1144.27 1784.17,1209.16 1786.22,1053.42 1788.27,1030.61 1790.33,1155.72 1792.38,1158.67 1794.43,1160.06 1796.48,1126.43 1798.54,1483.85 1800.59,1207.1 1802.64,1149.08 1804.7,1155.32 1806.75,1189.16 1808.8,1180.81 1810.85,1164.32 1812.91,1154.35 1814.96,1160.16 1817.01,1160.05 1819.07,1162.35 1821.12,1141.13 1823.17,1168.69 1825.22,1200.26 1827.28,1139.88 1829.33,1152.85 1831.38,1157.07 1833.44,1169.55 1835.49,1182.7 1837.54,1148.18 1839.59,1151.86 1841.65,1233.57 1843.7,1179.03 1845.75,1140.84 1847.81,1436.81 1849.86,1191.51 1851.91,1086.85 1853.96,1187.87 1856.02,1173.79 1858.07,1197.4 1860.12,1155.97 1862.18,1170.18 1864.23,1122.48 1866.28,1178.61 1868.34,1107.37 1870.39,1143.94 1872.44,1116.14 1874.49,1122.75 1876.55,1062.16 1878.6,1216.2 1880.65,1133.25 1882.71,1167.92 1884.76,1188.1 1886.81,1134.35 1888.86,1166.93 1890.92,1179.1 1892.97,1175.59 1895.02,1124.17 1897.08,1220.13 1899.13,1162.02 1901.18,1141.28 1903.23,1158.25 1905.29,1163.95 1907.34,1138.86 1909.39,1175.88 1911.45,1178.69 1913.5,1167.95 1915.55,1211.04 1917.6,1117.26 1919.66,1139.3 1921.71,1181.17 1923.76,1163.69 1925.82,1176.36 1927.87,1064.32 1929.92,1123.65 1931.97,1154.04 1934.03,1119.24 1936.08,1127.95 1938.13,1182.81 1940.19,1155.29 1942.24,1091.96 1944.29,1120.87 1946.34,1146.49 1948.4,1162.57 1950.45,1168.13 1952.5,1163.43 1954.56,1172.68 1956.61,1348.38 1958.66,1228.44 1960.72,1182.76 1962.77,1106.58 1964.82,1217.04 1966.87,1159.62 1968.93,1162.63 1970.98,1158.14 1973.03,1161.11 1975.09,1162.06 1977.14,1152.86 1979.19,813.381 1981.24,644.895 1983.3,1088.97 1985.35,1061.08 1987.4,1644.23 1989.46,1403.26 1991.51,1245.83 1993.56,1168.11 1995.61,1057.65 1997.67,1545.36 1999.72,1116.49 2001.77,1248.21 2003.83,1205.13 2005.88,1163.89 2007.93,1188.23 2009.98,1179.37 2012.04,1135.98 2014.09,1143.23 2016.14,1132.7 2018.2,1227.32 2020.25,1154.28 2022.3,1151.64 2024.35,1158.03 2026.41,1164.79 2028.46,1163.66 2030.51,1149.59 2032.57,1186.36 2034.62,1183.95 2036.67,1092.31 2038.73,1151 2040.78,1151.39 2042.83,1151.76 2044.88,1160.61 2046.94,1152.36 2048.99,1148.81 2051.04,1135.04 2053.1,1140.23 2055.15,1038.89 2057.2,1148.99 2059.25,1167.06 2061.31,1160 2063.36,1192.26 2065.41,1172.67 2067.47,1170.31 2069.52,1173.22 2071.57,1209.12 2073.62,1162.38 2075.68,1144.88 2077.73,1324.31 2079.78,1152.21 2081.84,1137.7 2083.89,881.145 2085.94,1293.81 2087.99,1190.48 2090.05,1068.73 2092.1,1039.41 2094.15,1246.03 2096.21,1177.18 2098.26,1152 2100.31,1156.27 2102.36,1139.63 2104.42,1156.32 2106.47,1196.56 2108.52,1163.13 2110.58,1128.38 2112.63,1262.76 2114.68,955.956 2116.73,929.671 2118.79,919.047 2120.84,931.492 2122.89,1360.7 2124.95,1021.83 2127,1369.42 2129.05,1168.38 2131.11,1260.52 2133.16,1136.4 2135.21,998.229 2137.26,1306.01 2139.32,1171.63 2141.37,1147.14 2143.42,1352.09 2145.48,1227.81 2147.53,1145.44 2149.58,1143.28 2151.63,1123.1 2153.69,1125.37 2155.74,1168.59 2157.79,1089.01 2159.85,1133.08 2161.9,1174.17 2163.95,1169.04 2166,1159.29 2168.06,1172.6 2170.11,1133.97 2172.16,1120.64 2174.22,1168.96 2176.27,1158.43 2178.32,1131.23 2180.37,1437.38 2182.43,1062.62 2184.48,1287.58 2186.53,1102.11 2188.59,1173.42 2190.64,1175.85 2192.69,1165.11 2194.74,1173.82 2196.8,1124.01 2198.85,1362.98 2200.9,1032.11 2202.96,-21868.5 2205.01,3570.73 2207.06,5341.5 2209.12,185.69 2211.17,1108.35 2213.22,1141.52 2215.27,1177.01 2217.33,1147.23 2219.38,1157.84 2221.43,1197.51 2223.49,1159.05 2225.54,1198.82 2227.59,1149.5 2229.64,1061.53 2231.7,1196.69 2233.75,1126.97 2235.8,1496.07 2237.86,985.505 2239.91,973.525 2241.96,1248.74 2244.01,979.012 2246.07,1101.01 2248.12,1167.7 2250.17,1170.83 2252.23,1149.37 2254.28,1088.36 2256.33,1138.98 2258.38,1111.87 2260.44,1228.14 2262.49,1154.84 2264.54,1106.31 2266.6,1219.22 2268.65,1145.88 2270.7,1153.95 2272.75,1179.13 2274.81,1150.99 2276.86,1123.17 2278.91,1162.7 2280.97,1116.7 2283.02,1158.48 2285.07,1164.17 2287.12,1229.16 2289.18,1342.3 2291.23,1165.89 "/>
<path clip-path="url(#clip230)" d="M251.33 1465.14 L588.926 1465.14 L588.926 1361.46 L251.33 1361.46  Z" fill="#ffffff" fill-rule="evenodd" fill-opacity="1"/>
<polyline clip-path="url(#clip230)" style="stroke:#000000; stroke-linecap:round; stroke-linejoin:round; stroke-width:4; stroke-opacity:1; fill:none" points="251.33,1465.14 588.926,1465.14 588.926,1361.46 251.33,1361.46 251.33,1465.14 "/>
<polyline clip-path="url(#clip230)" style="stroke:#009af9; stroke-linecap:round; stroke-linejoin:round; stroke-width:4; stroke-opacity:1; fill:none" points="275.484,1413.3 420.41,1413.3 "/>
<path clip-path="url(#clip230)" d="M470.12 1425.65 L470.12 1416.37 L462.481 1416.37 L462.481 1412.53 L474.749 1412.53 L474.749 1427.36 Q472.041 1429.28 468.777 1430.28 Q465.513 1431.25 461.809 1431.25 Q453.708 1431.25 449.124 1426.53 Q444.564 1421.78 444.564 1413.34 Q444.564 1404.86 449.124 1400.14 Q453.708 1395.4 461.809 1395.4 Q465.189 1395.4 468.221 1396.23 Q471.277 1397.06 473.846 1398.68 L473.846 1403.66 Q471.254 1401.46 468.337 1400.35 Q465.421 1399.24 462.203 1399.24 Q455.86 1399.24 452.666 1402.78 Q449.495 1406.32 449.495 1413.34 Q449.495 1420.33 452.666 1423.87 Q455.86 1427.41 462.203 1427.41 Q464.68 1427.41 466.624 1426.99 Q468.569 1426.55 470.12 1425.65 Z" fill="#000000" fill-rule="nonzero" fill-opacity="1" /><path clip-path="url(#clip230)" d="M487.967 1399.86 L487.967 1412.85 L493.846 1412.85 Q497.11 1412.85 498.893 1411.16 Q500.675 1409.47 500.675 1406.35 Q500.675 1403.24 498.893 1401.55 Q497.11 1399.86 493.846 1399.86 L487.967 1399.86 M483.291 1396.02 L493.846 1396.02 Q499.657 1396.02 502.619 1398.66 Q505.606 1401.28 505.606 1406.35 Q505.606 1411.46 502.619 1414.08 Q499.657 1416.69 493.846 1416.69 L487.967 1416.69 L487.967 1430.58 L483.291 1430.58 L483.291 1396.02 Z" fill="#000000" fill-rule="nonzero" fill-opacity="1" /><path clip-path="url(#clip230)" d="M532.596 1397.16 L532.596 1401.72 Q529.934 1400.44 527.573 1399.82 Q525.212 1399.19 523.013 1399.19 Q519.193 1399.19 517.11 1400.67 Q515.05 1402.16 515.05 1404.89 Q515.05 1407.18 516.416 1408.36 Q517.805 1409.52 521.647 1410.23 L524.471 1410.81 Q529.703 1411.81 532.179 1414.33 Q534.679 1416.83 534.679 1421.04 Q534.679 1426.07 531.3 1428.66 Q527.943 1431.25 521.439 1431.25 Q518.985 1431.25 516.207 1430.7 Q513.453 1430.14 510.49 1429.05 L510.49 1424.24 Q513.337 1425.84 516.068 1426.65 Q518.8 1427.46 521.439 1427.46 Q525.443 1427.46 527.619 1425.88 Q529.795 1424.31 529.795 1421.39 Q529.795 1418.85 528.221 1417.41 Q526.67 1415.97 523.105 1415.26 L520.258 1414.7 Q515.027 1413.66 512.689 1411.44 Q510.351 1409.22 510.351 1405.26 Q510.351 1400.67 513.568 1398.03 Q516.809 1395.4 522.48 1395.4 Q524.911 1395.4 527.434 1395.84 Q529.957 1396.28 532.596 1397.16 Z" fill="#000000" fill-rule="nonzero" fill-opacity="1" /><path clip-path="url(#clip230)" d="M562.689 1397.16 L562.689 1401.72 Q560.027 1400.44 557.665 1399.82 Q555.304 1399.19 553.105 1399.19 Q549.286 1399.19 547.203 1400.67 Q545.142 1402.16 545.142 1404.89 Q545.142 1407.18 546.508 1408.36 Q547.897 1409.52 551.74 1410.23 L554.564 1410.81 Q559.795 1411.81 562.272 1414.33 Q564.772 1416.83 564.772 1421.04 Q564.772 1426.07 561.392 1428.66 Q558.036 1431.25 551.531 1431.25 Q549.078 1431.25 546.3 1430.7 Q543.545 1430.14 540.582 1429.05 L540.582 1424.24 Q543.429 1425.84 546.161 1426.65 Q548.892 1427.46 551.531 1427.46 Q555.536 1427.46 557.712 1425.88 Q559.888 1424.31 559.888 1421.39 Q559.888 1418.85 558.314 1417.41 Q556.763 1415.97 553.198 1415.26 L550.351 1414.7 Q545.119 1413.66 542.781 1411.44 Q540.443 1409.22 540.443 1405.26 Q540.443 1400.67 543.661 1398.03 Q546.902 1395.4 552.573 1395.4 Q555.003 1395.4 557.527 1395.84 Q560.05 1396.28 562.689 1397.16 Z" fill="#000000" fill-rule="nonzero" fill-opacity="1" /></svg>
