<?xml version="1.0" encoding="utf-8"?>
<svg xmlns="http://www.w3.org/2000/svg" xmlns:xlink="http://www.w3.org/1999/xlink" width="600" height="400" viewBox="0 0 2400 1600">
<defs>
  <clipPath id="clip700">
    <rect x="0" y="0" width="2400" height="1600"/>
  </clipPath>
</defs>
<path clip-path="url(#clip700)" d="M0 1600 L2400 1600 L2400 0 L0 0  Z" fill="#ffffff" fill-rule="evenodd" fill-opacity="1"/>
<defs>
  <clipPath id="clip701">
    <rect x="480" y="0" width="1681" height="1600"/>
  </clipPath>
</defs>
<path clip-path="url(#clip700)" d="M178.867 686.448 L2352.76 686.448 L2352.76 47.2441 L178.867 47.2441  Z" fill="#ffffff" fill-rule="evenodd" fill-opacity="1"/>
<defs>
  <clipPath id="clip702">
    <rect x="178" y="47" width="2175" height="640"/>
  </clipPath>
</defs>
<polyline clip-path="url(#clip702)" style="stroke:#000000; stroke-linecap:round; stroke-linejoin:round; stroke-width:2; stroke-opacity:0.1; fill:none" points="238.339,686.448 238.339,47.2441 "/>
<polyline clip-path="url(#clip702)" style="stroke:#000000; stroke-linecap:round; stroke-linejoin:round; stroke-width:2; stroke-opacity:0.1; fill:none" points="751.562,686.448 751.562,47.2441 "/>
<polyline clip-path="url(#clip702)" style="stroke:#000000; stroke-linecap:round; stroke-linejoin:round; stroke-width:2; stroke-opacity:0.1; fill:none" points="1264.78,686.448 1264.78,47.2441 "/>
<polyline clip-path="url(#clip702)" style="stroke:#000000; stroke-linecap:round; stroke-linejoin:round; stroke-width:2; stroke-opacity:0.1; fill:none" points="1778.01,686.448 1778.01,47.2441 "/>
<polyline clip-path="url(#clip702)" style="stroke:#000000; stroke-linecap:round; stroke-linejoin:round; stroke-width:2; stroke-opacity:0.1; fill:none" points="2291.23,686.448 2291.23,47.2441 "/>
<polyline clip-path="url(#clip702)" style="stroke:#000000; stroke-linecap:round; stroke-linejoin:round; stroke-width:2; stroke-opacity:0.1; fill:none" points="178.867,686.448 2352.76,686.448 "/>
<polyline clip-path="url(#clip702)" style="stroke:#000000; stroke-linecap:round; stroke-linejoin:round; stroke-width:2; stroke-opacity:0.1; fill:none" points="178.867,526.647 2352.76,526.647 "/>
<polyline clip-path="url(#clip702)" style="stroke:#000000; stroke-linecap:round; stroke-linejoin:round; stroke-width:2; stroke-opacity:0.1; fill:none" points="178.867,366.846 2352.76,366.846 "/>
<polyline clip-path="url(#clip702)" style="stroke:#000000; stroke-linecap:round; stroke-linejoin:round; stroke-width:2; stroke-opacity:0.1; fill:none" points="178.867,207.045 2352.76,207.045 "/>
<polyline clip-path="url(#clip702)" style="stroke:#000000; stroke-linecap:round; stroke-linejoin:round; stroke-width:2; stroke-opacity:0.1; fill:none" points="178.867,47.2441 2352.76,47.2441 "/>
<polyline clip-path="url(#clip700)" style="stroke:#000000; stroke-linecap:round; stroke-linejoin:round; stroke-width:4; stroke-opacity:1; fill:none" points="178.867,686.448 2352.76,686.448 "/>
<polyline clip-path="url(#clip700)" style="stroke:#000000; stroke-linecap:round; stroke-linejoin:round; stroke-width:4; stroke-opacity:1; fill:none" points="238.339,686.448 238.339,667.55 "/>
<polyline clip-path="url(#clip700)" style="stroke:#000000; stroke-linecap:round; stroke-linejoin:round; stroke-width:4; stroke-opacity:1; fill:none" points="751.562,686.448 751.562,667.55 "/>
<polyline clip-path="url(#clip700)" style="stroke:#000000; stroke-linecap:round; stroke-linejoin:round; stroke-width:4; stroke-opacity:1; fill:none" points="1264.78,686.448 1264.78,667.55 "/>
<polyline clip-path="url(#clip700)" style="stroke:#000000; stroke-linecap:round; stroke-linejoin:round; stroke-width:4; stroke-opacity:1; fill:none" points="1778.01,686.448 1778.01,667.55 "/>
<polyline clip-path="url(#clip700)" style="stroke:#000000; stroke-linecap:round; stroke-linejoin:round; stroke-width:4; stroke-opacity:1; fill:none" points="2291.23,686.448 2291.23,667.55 "/>
<path clip-path="url(#clip700)" d="M238.339 717.367 Q234.728 717.367 232.899 720.931 Q231.094 724.473 231.094 731.603 Q231.094 738.709 232.899 742.274 Q234.728 745.815 238.339 745.815 Q241.973 745.815 243.779 742.274 Q245.607 738.709 245.607 731.603 Q245.607 724.473 243.779 720.931 Q241.973 717.367 238.339 717.367 M238.339 713.663 Q244.149 713.663 247.205 718.269 Q250.283 722.853 250.283 731.603 Q250.283 740.329 247.205 744.936 Q244.149 749.519 238.339 749.519 Q232.529 749.519 229.45 744.936 Q226.395 740.329 226.395 731.603 Q226.395 722.853 229.45 718.269 Q232.529 713.663 238.339 713.663 Z" fill="#000000" fill-rule="nonzero" fill-opacity="1" /><path clip-path="url(#clip700)" d="M715.254 744.913 L731.574 744.913 L731.574 748.848 L709.629 748.848 L709.629 744.913 Q712.291 742.158 716.875 737.528 Q721.481 732.876 722.662 731.533 Q724.907 729.01 725.787 727.274 Q726.689 725.515 726.689 723.825 Q726.689 721.07 724.745 719.334 Q722.824 717.598 719.722 717.598 Q717.523 717.598 715.069 718.362 Q712.638 719.126 709.861 720.677 L709.861 715.955 Q712.685 714.82 715.138 714.242 Q717.592 713.663 719.629 713.663 Q725 713.663 728.194 716.348 Q731.388 719.033 731.388 723.524 Q731.388 725.654 730.578 727.575 Q729.791 729.473 727.685 732.066 Q727.106 732.737 724.004 735.954 Q720.902 739.149 715.254 744.913 Z" fill="#000000" fill-rule="nonzero" fill-opacity="1" /><path clip-path="url(#clip700)" d="M741.435 714.288 L759.791 714.288 L759.791 718.223 L745.717 718.223 L745.717 726.695 Q746.736 726.348 747.754 726.186 Q748.773 726.001 749.791 726.001 Q755.578 726.001 758.958 729.172 Q762.337 732.343 762.337 737.76 Q762.337 743.339 758.865 746.44 Q755.393 749.519 749.073 749.519 Q746.898 749.519 744.629 749.149 Q742.384 748.778 739.976 748.038 L739.976 743.339 Q742.06 744.473 744.282 745.028 Q746.504 745.584 748.981 745.584 Q752.985 745.584 755.323 743.478 Q757.661 741.371 757.661 737.76 Q757.661 734.149 755.323 732.042 Q752.985 729.936 748.981 729.936 Q747.106 729.936 745.231 730.353 Q743.379 730.769 741.435 731.649 L741.435 714.288 Z" fill="#000000" fill-rule="nonzero" fill-opacity="1" /><path clip-path="url(#clip700)" d="M781.55 717.367 Q777.939 717.367 776.11 720.931 Q774.305 724.473 774.305 731.603 Q774.305 738.709 776.11 742.274 Q777.939 745.815 781.55 745.815 Q785.184 745.815 786.99 742.274 Q788.819 738.709 788.819 731.603 Q788.819 724.473 786.99 720.931 Q785.184 717.367 781.55 717.367 M781.55 713.663 Q787.36 713.663 790.416 718.269 Q793.495 722.853 793.495 731.603 Q793.495 740.329 790.416 744.936 Q787.36 749.519 781.55 749.519 Q775.74 749.519 772.661 744.936 Q769.606 740.329 769.606 731.603 Q769.606 722.853 772.661 718.269 Q775.74 713.663 781.55 713.663 Z" fill="#000000" fill-rule="nonzero" fill-opacity="1" /><path clip-path="url(#clip700)" d="M1224.4 714.288 L1242.76 714.288 L1242.76 718.223 L1228.69 718.223 L1228.69 726.695 Q1229.7 726.348 1230.72 726.186 Q1231.74 726.001 1232.76 726.001 Q1238.55 726.001 1241.93 729.172 Q1245.31 732.343 1245.31 737.76 Q1245.31 743.339 1241.83 746.44 Q1238.36 749.519 1232.04 749.519 Q1229.87 749.519 1227.6 749.149 Q1225.35 748.778 1222.94 748.038 L1222.94 743.339 Q1225.03 744.473 1227.25 745.028 Q1229.47 745.584 1231.95 745.584 Q1235.95 745.584 1238.29 743.478 Q1240.63 741.371 1240.63 737.76 Q1240.63 734.149 1238.29 732.042 Q1235.95 729.936 1231.95 729.936 Q1230.07 729.936 1228.2 730.353 Q1226.35 730.769 1224.4 731.649 L1224.4 714.288 Z" fill="#000000" fill-rule="nonzero" fill-opacity="1" /><path clip-path="url(#clip700)" d="M1264.52 717.367 Q1260.91 717.367 1259.08 720.931 Q1257.27 724.473 1257.27 731.603 Q1257.27 738.709 1259.08 742.274 Q1260.91 745.815 1264.52 745.815 Q1268.15 745.815 1269.96 742.274 Q1271.79 738.709 1271.79 731.603 Q1271.79 724.473 1269.96 720.931 Q1268.15 717.367 1264.52 717.367 M1264.52 713.663 Q1270.33 713.663 1273.38 718.269 Q1276.46 722.853 1276.46 731.603 Q1276.46 740.329 1273.38 744.936 Q1270.33 749.519 1264.52 749.519 Q1258.71 749.519 1255.63 744.936 Q1252.57 740.329 1252.57 731.603 Q1252.57 722.853 1255.63 718.269 Q1258.71 713.663 1264.52 713.663 Z" fill="#000000" fill-rule="nonzero" fill-opacity="1" /><path clip-path="url(#clip700)" d="M1294.68 717.367 Q1291.07 717.367 1289.24 720.931 Q1287.44 724.473 1287.44 731.603 Q1287.44 738.709 1289.24 742.274 Q1291.07 745.815 1294.68 745.815 Q1298.31 745.815 1300.12 742.274 Q1301.95 738.709 1301.95 731.603 Q1301.95 724.473 1300.12 720.931 Q1298.31 717.367 1294.68 717.367 M1294.68 713.663 Q1300.49 713.663 1303.55 718.269 Q1306.62 722.853 1306.62 731.603 Q1306.62 740.329 1303.55 744.936 Q1300.49 749.519 1294.68 749.519 Q1288.87 749.519 1285.79 744.936 Q1282.74 740.329 1282.74 731.603 Q1282.74 722.853 1285.79 718.269 Q1288.87 713.663 1294.68 713.663 Z" fill="#000000" fill-rule="nonzero" fill-opacity="1" /><path clip-path="url(#clip700)" d="M1736.28 714.288 L1758.51 714.288 L1758.51 716.279 L1745.96 748.848 L1741.08 748.848 L1752.88 718.223 L1736.28 718.223 L1736.28 714.288 Z" fill="#000000" fill-rule="nonzero" fill-opacity="1" /><path clip-path="url(#clip700)" d="M1767.67 714.288 L1786.03 714.288 L1786.03 718.223 L1771.95 718.223 L1771.95 726.695 Q1772.97 726.348 1773.99 726.186 Q1775.01 726.001 1776.03 726.001 Q1781.82 726.001 1785.2 729.172 Q1788.57 732.343 1788.57 737.76 Q1788.57 743.339 1785.1 746.44 Q1781.63 749.519 1775.31 749.519 Q1773.14 749.519 1770.87 749.149 Q1768.62 748.778 1766.21 748.038 L1766.21 743.339 Q1768.3 744.473 1770.52 745.028 Q1772.74 745.584 1775.22 745.584 Q1779.22 745.584 1781.56 743.478 Q1783.9 741.371 1783.9 737.76 Q1783.9 734.149 1781.56 732.042 Q1779.22 729.936 1775.22 729.936 Q1773.34 729.936 1771.47 730.353 Q1769.62 730.769 1767.67 731.649 L1767.67 714.288 Z" fill="#000000" fill-rule="nonzero" fill-opacity="1" /><path clip-path="url(#clip700)" d="M1807.79 717.367 Q1804.18 717.367 1802.35 720.931 Q1800.54 724.473 1800.54 731.603 Q1800.54 738.709 1802.35 742.274 Q1804.18 745.815 1807.79 745.815 Q1811.42 745.815 1813.23 742.274 Q1815.06 738.709 1815.06 731.603 Q1815.06 724.473 1813.23 720.931 Q1811.42 717.367 1807.79 717.367 M1807.79 713.663 Q1813.6 713.663 1816.65 718.269 Q1819.73 722.853 1819.73 731.603 Q1819.73 740.329 1816.65 744.936 Q1813.6 749.519 1807.79 749.519 Q1801.98 749.519 1798.9 744.936 Q1795.84 740.329 1795.84 731.603 Q1795.84 722.853 1798.9 718.269 Q1801.98 713.663 1807.79 713.663 Z" fill="#000000" fill-rule="nonzero" fill-opacity="1" /><path clip-path="url(#clip700)" d="M2235.76 744.913 L2243.4 744.913 L2243.4 718.547 L2235.09 720.214 L2235.09 715.955 L2243.35 714.288 L2248.02 714.288 L2248.02 744.913 L2255.66 744.913 L2255.66 748.848 L2235.76 748.848 L2235.76 744.913 Z" fill="#000000" fill-rule="nonzero" fill-opacity="1" /><path clip-path="url(#clip700)" d="M2275.11 717.367 Q2271.5 717.367 2269.67 720.931 Q2267.86 724.473 2267.86 731.603 Q2267.86 738.709 2269.67 742.274 Q2271.5 745.815 2275.11 745.815 Q2278.74 745.815 2280.55 742.274 Q2282.38 738.709 2282.38 731.603 Q2282.38 724.473 2280.55 720.931 Q2278.74 717.367 2275.11 717.367 M2275.11 713.663 Q2280.92 713.663 2283.97 718.269 Q2287.05 722.853 2287.05 731.603 Q2287.05 740.329 2283.97 744.936 Q2280.92 749.519 2275.11 749.519 Q2269.3 749.519 2266.22 744.936 Q2263.16 740.329 2263.16 731.603 Q2263.16 722.853 2266.22 718.269 Q2269.3 713.663 2275.11 713.663 Z" fill="#000000" fill-rule="nonzero" fill-opacity="1" /><path clip-path="url(#clip700)" d="M2305.27 717.367 Q2301.66 717.367 2299.83 720.931 Q2298.02 724.473 2298.02 731.603 Q2298.02 738.709 2299.83 742.274 Q2301.66 745.815 2305.27 745.815 Q2308.9 745.815 2310.71 742.274 Q2312.54 738.709 2312.54 731.603 Q2312.54 724.473 2310.71 720.931 Q2308.9 717.367 2305.27 717.367 M2305.27 713.663 Q2311.08 713.663 2314.14 718.269 Q2317.21 722.853 2317.21 731.603 Q2317.21 740.329 2314.14 744.936 Q2311.08 749.519 2305.27 749.519 Q2299.46 749.519 2296.38 744.936 Q2293.33 740.329 2293.33 731.603 Q2293.33 722.853 2296.38 718.269 Q2299.46 713.663 2305.27 713.663 Z" fill="#000000" fill-rule="nonzero" fill-opacity="1" /><path clip-path="url(#clip700)" d="M2335.43 717.367 Q2331.82 717.367 2329.99 720.931 Q2328.19 724.473 2328.19 731.603 Q2328.19 738.709 2329.99 742.274 Q2331.82 745.815 2335.43 745.815 Q2339.07 745.815 2340.87 742.274 Q2342.7 738.709 2342.7 731.603 Q2342.7 724.473 2340.87 720.931 Q2339.07 717.367 2335.43 717.367 M2335.43 713.663 Q2341.24 713.663 2344.3 718.269 Q2347.38 722.853 2347.38 731.603 Q2347.38 740.329 2344.3 744.936 Q2341.24 749.519 2335.43 749.519 Q2329.62 749.519 2326.54 744.936 Q2323.49 740.329 2323.49 731.603 Q2323.49 722.853 2326.54 718.269 Q2329.62 713.663 2335.43 713.663 Z" fill="#000000" fill-rule="nonzero" fill-opacity="1" /><polyline clip-path="url(#clip700)" style="stroke:#000000; stroke-linecap:round; stroke-linejoin:round; stroke-width:4; stroke-opacity:1; fill:none" points="178.867,686.448 178.867,47.2441 "/>
<polyline clip-path="url(#clip700)" style="stroke:#000000; stroke-linecap:round; stroke-linejoin:round; stroke-width:4; stroke-opacity:1; fill:none" points="178.867,686.448 197.764,686.448 "/>
<polyline clip-path="url(#clip700)" style="stroke:#000000; stroke-linecap:round; stroke-linejoin:round; stroke-width:4; stroke-opacity:1; fill:none" points="178.867,526.647 197.764,526.647 "/>
<polyline clip-path="url(#clip700)" style="stroke:#000000; stroke-linecap:round; stroke-linejoin:round; stroke-width:4; stroke-opacity:1; fill:none" points="178.867,366.846 197.764,366.846 "/>
<polyline clip-path="url(#clip700)" style="stroke:#000000; stroke-linecap:round; stroke-linejoin:round; stroke-width:4; stroke-opacity:1; fill:none" points="178.867,207.045 197.764,207.045 "/>
<polyline clip-path="url(#clip700)" style="stroke:#000000; stroke-linecap:round; stroke-linejoin:round; stroke-width:4; stroke-opacity:1; fill:none" points="178.867,47.2441 197.764,47.2441 "/>
<path clip-path="url(#clip700)" d="M50.9921 686.899 L80.6679 686.899 L80.6679 690.834 L50.9921 690.834 L50.9921 686.899 Z" fill="#000000" fill-rule="nonzero" fill-opacity="1" /><path clip-path="url(#clip700)" d="M91.5706 699.793 L99.2095 699.793 L99.2095 673.427 L90.8993 675.094 L90.8993 670.835 L99.1632 669.168 L103.839 669.168 L103.839 699.793 L111.478 699.793 L111.478 703.728 L91.5706 703.728 L91.5706 699.793 Z" fill="#000000" fill-rule="nonzero" fill-opacity="1" /><path clip-path="url(#clip700)" d="M130.922 672.247 Q127.311 672.247 125.482 675.811 Q123.677 679.353 123.677 686.483 Q123.677 693.589 125.482 697.154 Q127.311 700.695 130.922 700.695 Q134.556 700.695 136.362 697.154 Q138.191 693.589 138.191 686.483 Q138.191 679.353 136.362 675.811 Q134.556 672.247 130.922 672.247 M130.922 668.543 Q136.732 668.543 139.788 673.149 Q142.867 677.733 142.867 686.483 Q142.867 695.209 139.788 699.816 Q136.732 704.399 130.922 704.399 Q125.112 704.399 122.033 699.816 Q118.978 695.209 118.978 686.483 Q118.978 677.733 122.033 673.149 Q125.112 668.543 130.922 668.543 Z" fill="#000000" fill-rule="nonzero" fill-opacity="1" /><path clip-path="url(#clip700)" d="M82.1494 527.098 L111.825 527.098 L111.825 531.033 L82.1494 531.033 L82.1494 527.098 Z" fill="#000000" fill-rule="nonzero" fill-opacity="1" /><path clip-path="url(#clip700)" d="M121.964 509.367 L140.32 509.367 L140.32 513.302 L126.246 513.302 L126.246 521.774 Q127.265 521.427 128.283 521.265 Q129.302 521.08 130.32 521.08 Q136.107 521.08 139.487 524.251 Q142.867 527.422 142.867 532.839 Q142.867 538.418 139.394 541.52 Q135.922 544.598 129.603 544.598 Q127.427 544.598 125.158 544.228 Q122.913 543.857 120.506 543.117 L120.506 538.418 Q122.589 539.552 124.811 540.108 Q127.033 540.663 129.51 540.663 Q133.515 540.663 135.853 538.557 Q138.191 536.45 138.191 532.839 Q138.191 529.228 135.853 527.121 Q133.515 525.015 129.51 525.015 Q127.635 525.015 125.76 525.432 Q123.908 525.848 121.964 526.728 L121.964 509.367 Z" fill="#000000" fill-rule="nonzero" fill-opacity="1" /><path clip-path="url(#clip700)" d="M130.922 352.645 Q127.311 352.645 125.482 356.209 Q123.677 359.751 123.677 366.881 Q123.677 373.987 125.482 377.552 Q127.311 381.094 130.922 381.094 Q134.556 381.094 136.362 377.552 Q138.191 373.987 138.191 366.881 Q138.191 359.751 136.362 356.209 Q134.556 352.645 130.922 352.645 M130.922 348.941 Q136.732 348.941 139.788 353.547 Q142.867 358.131 142.867 366.881 Q142.867 375.608 139.788 380.214 Q136.732 384.797 130.922 384.797 Q125.112 384.797 122.033 380.214 Q118.978 375.608 118.978 366.881 Q118.978 358.131 122.033 353.547 Q125.112 348.941 130.922 348.941 Z" fill="#000000" fill-rule="nonzero" fill-opacity="1" /><path clip-path="url(#clip700)" d="M121.964 189.765 L140.32 189.765 L140.32 193.7 L126.246 193.7 L126.246 202.172 Q127.265 201.825 128.283 201.663 Q129.302 201.478 130.32 201.478 Q136.107 201.478 139.487 204.649 Q142.867 207.82 142.867 213.237 Q142.867 218.816 139.394 221.918 Q135.922 224.996 129.603 224.996 Q127.427 224.996 125.158 224.626 Q122.913 224.256 120.506 223.515 L120.506 218.816 Q122.589 219.95 124.811 220.506 Q127.033 221.061 129.51 221.061 Q133.515 221.061 135.853 218.955 Q138.191 216.848 138.191 213.237 Q138.191 209.626 135.853 207.52 Q133.515 205.413 129.51 205.413 Q127.635 205.413 125.76 205.83 Q123.908 206.246 121.964 207.126 L121.964 189.765 Z" fill="#000000" fill-rule="nonzero" fill-opacity="1" /><path clip-path="url(#clip700)" d="M91.5706 60.5889 L99.2095 60.5889 L99.2095 34.2233 L90.8993 35.89 L90.8993 31.6308 L99.1632 29.9641 L103.839 29.9641 L103.839 60.5889 L111.478 60.5889 L111.478 64.5241 L91.5706 64.5241 L91.5706 60.5889 Z" fill="#000000" fill-rule="nonzero" fill-opacity="1" /><path clip-path="url(#clip700)" d="M130.922 33.0428 Q127.311 33.0428 125.482 36.6076 Q123.677 40.1492 123.677 47.2788 Q123.677 54.3853 125.482 57.9501 Q127.311 61.4917 130.922 61.4917 Q134.556 61.4917 136.362 57.9501 Q138.191 54.3853 138.191 47.2788 Q138.191 40.1492 136.362 36.6076 Q134.556 33.0428 130.922 33.0428 M130.922 29.3391 Q136.732 29.3391 139.788 33.9456 Q142.867 38.5289 142.867 47.2788 Q142.867 56.0056 139.788 60.6121 Q136.732 65.1954 130.922 65.1954 Q125.112 65.1954 122.033 60.6121 Q118.978 56.0056 118.978 47.2788 Q118.978 38.5289 122.033 33.9456 Q125.112 29.3391 130.922 29.3391 Z" fill="#000000" fill-rule="nonzero" fill-opacity="1" /><polyline clip-path="url(#clip702)" style="stroke:#009af9; stroke-linecap:round; stroke-linejoin:round; stroke-width:4; stroke-opacity:1; fill:none" points="240.392,334.886 242.445,337.586 244.498,337.527 246.55,331.103 248.603,331.87 250.656,313.634 252.709,316.451 254.762,318.099 256.815,362.694 258.868,363.365 260.921,361.636 262.974,363.304 265.027,359.09 267.079,357.302 269.132,343.371 271.185,343.327 273.238,357.356 275.291,359.312 277.344,358.669 279.397,369.57 281.45,364.126 283.503,369.106 285.555,369.541 287.608,377.94 289.661,375.35 291.714,375.359 293.767,365.451 295.82,365.775 297.873,365.546 299.926,365.548 301.979,365.625 304.031,365.266 306.084,374.535 308.137,388.178 310.19,388.204 312.243,388.135 314.296,398.656 316.349,393.228 318.402,394.112 320.455,404.621 322.507,402.693 324.56,373.564 326.613,378.166 328.666,378.408 330.719,379.61 332.772,381.059 334.825,381.344 336.878,405.959 338.931,401.213 340.984,388.626 343.036,410.859 345.089,421.549 347.142,401.486 349.195,228.099 351.248,230.663 353.301,235.826 355.354,430.836 357.407,376.97 359.46,377.368 361.512,377.1 363.565,371.562 365.618,370.117 367.671,367.785 369.724,371.597 371.777,371.64 373.83,371.722 375.883,371.363 377.936,367.604 379.988,373.349 382.041,343.319 384.094,340.297 386.147,284.377 388.2,275.557 390.253,281.327 392.306,279.629 394.359,279.196 396.412,284.807 398.464,274.832 400.517,265.533 402.57,263.56 404.623,285.765 406.676,294.717 408.729,296.319 410.782,287.533 412.835,286.938 414.888,290.023 416.94,287.513 418.993,286.659 421.046,285.402 423.099,283.476 425.152,283.469 427.205,283.871 429.258,283.876 431.311,283.547 433.364,289.256 435.417,310.063 437.469,309.341 439.522,310.128 441.575,257.886 443.628,259.207 445.681,272.215 447.734,279.046 449.787,324.48 451.84,343.88 453.893,332.424 455.945,331.141 457.998,331.48 460.051,319.016 462.104,321.913 464.157,322.012 466.21,322.474 468.263,348.378 470.316,346.648 472.369,349.112 474.421,345.515 476.474,384.519 478.527,384.39 480.58,365.361 482.633,368.646 484.686,345.845 486.739,342.795 488.792,349.717 490.845,388.964 492.897,389.511 494.95,415.84 497.003,415.824 499.056,396.333 501.109,394.924 503.162,396.899 505.215,397.259 507.268,374.896 509.321,371.626 511.374,370.867 513.426,366.354 515.479,382.069 517.532,343.2 519.585,341.553 521.638,345.952 523.691,343.048 525.744,343.425 527.797,341.394 529.85,342.598 531.902,317.927 533.955,327.741 536.008,322.654 538.061,321.795 540.114,305.213 542.167,304.924 544.22,290.577 546.273,292.39 548.326,357.326 550.378,331.627 552.431,344.607 554.484,377.731 556.537,377.998 558.59,376.572 560.643,361.823 562.696,286.721 564.749,272.219 566.802,272.213 568.854,272.939 570.907,266.318 572.96,291.544 575.013,277.927 577.066,253.753 579.119,317.094 581.172,339.881 583.225,339.911 585.278,408.776 587.331,396.801 589.383,283.529 591.436,247.103 593.489,384.165 595.542,420.193 597.595,378.812 599.648,420.214 601.701,439.268 603.754,410.252 605.807,417.459 607.859,439.598 609.912,512.361 611.965,524.661 614.018,529.305 616.071,534.03 618.124,285.129 620.177,325.511 622.23,354.266 624.283,369.751 626.335,367.45 628.388,368.4 630.441,439.062 632.494,431.937 634.547,471.364 636.6,471.567 638.653,481.557 640.706,197.076 642.759,265.894 644.811,417.136 646.864,416.662 648.917,419.511 650.97,451.116 653.023,451.148 655.076,455.284 657.129,416.684 659.182,416.4 661.235,374.321 663.288,385.594 665.34,371.872 667.393,378.766 669.446,369.504 671.499,367.766 673.552,372.678 675.605,349.939 677.658,348.625 679.711,294.101 681.764,357.063 683.816,348.427 685.869,349.079 687.922,297.728 689.975,329.429 692.028,320.702 694.081,370.658 696.134,369.483 698.187,407.827 700.24,180.529 702.292,173.43 704.345,377.001 706.398,375.083 708.451,404.809 710.504,401.46 712.557,422.221 714.61,412.815 716.663,437.34 718.716,436.079 720.768,436.771 722.821,416.978 724.874,350.92 726.927,351.246 728.98,338.648 731.033,346.86 733.086,346.683 735.139,346.365 737.192,324.215 739.245,329.789 741.297,336.524 743.35,435.689 745.403,430.303 747.456,424.113 749.509,425.002 751.562,442.977 753.615,417.88 755.668,369.713 757.721,400.141 759.773,402.84 761.826,381.766 763.879,377.593 765.932,382.04 767.985,394.563 770.038,414.861 772.091,427.944 774.144,426.919 776.197,425.356 778.249,425.374 780.302,279.28 782.355,279.479 784.408,258.803 786.461,311.959 788.514,316.766 790.567,212.86 792.62,215.233 794.673,201.872 796.725,240.322 798.778,260.047 800.831,224.316 802.884,207.343 804.937,210.947 806.99,196.015 809.043,176.521 811.096,188.303 813.149,321.248 815.202,278.214 817.254,346.828 819.307,346.111 821.36,-57.7361 823.413,189.276 825.466,388.537 827.519,401.25 829.572,401.991 831.625,409.921 833.678,415.227 835.73,409.512 837.783,439.462 839.836,429.898 841.889,501.872 843.942,386.655 845.995,413.688 848.048,548.858 850.101,542.952 852.154,458.82 854.206,343.693 856.259,349.457 858.312,349.775 860.365,325.674 862.418,346.169 864.471,292.303 866.524,385.598 868.577,441.133 870.63,460.23 872.682,187.509 874.735,193.807 876.788,-36.7144 878.841,-7.84267 880.894,-8.68205 882.947,353.569 885,313.186 887.053,303.136 889.106,254.382 891.159,238.713 893.211,235.099 895.264,235.218 897.317,252.914 899.37,255.751 901.423,264.9 903.476,264.401 905.529,264.167 907.582,298.252 909.635,251.184 911.687,247.593 913.74,288.795 915.793,289.294 917.846,266.328 919.899,262.938 921.952,254.298 924.005,312.298 926.058,302.745 928.111,302.757 930.163,308.435 932.216,318.358 934.269,316.677 936.322,338.101 938.375,335.121 940.428,320.128 942.481,328.526 944.534,330.676 946.587,331.679 948.639,333.558 950.692,321.386 952.745,304.965 954.798,342.77 956.851,343.083 958.904,340.366 960.957,345.967 963.01,344.687 965.063,125.487 967.116,381.52 969.168,430.133 971.221,429.816 973.274,417.056 975.327,228.323 977.38,235.869 979.433,260.581 981.486,254.228 983.539,255.411 985.592,253.483 987.644,258.683 989.697,257.694 991.75,259.279 993.803,257.685 995.856,241.465 997.909,373.831 999.962,374.176 1002.01,373.678 1004.07,383.104 1006.12,422.719 1008.17,409.899 1010.23,407.933 1012.28,411.806 1014.33,421.478 1016.38,394.256 1018.44,395.387 1020.49,247.75 1022.54,358.428 1024.6,197.795 1026.65,197.206 1028.7,201.257 1030.76,203.317 1032.81,203.86 1034.86,225.238 1036.91,82.0544 1038.97,69.5411 1041.02,65.6726 1043.07,64.7579 1045.13,60.1654 1047.18,185.608 1049.23,178.876 1051.28,175.012 1053.34,169.181 1055.39,134.697 1057.44,128.833 1059.5,144.394 1061.55,147.601 1063.6,159.537 1065.65,155.029 1067.71,160.705 1069.76,237.038 1071.81,270.608 1073.87,315.956 1075.92,314.921 1077.97,308.419 1080.02,312.413 1082.08,320.547 1084.13,351.068 1086.18,377.155 1088.24,308.235 1090.29,292.999 1092.34,340.829 1094.39,374.747 1096.45,373.236 1098.5,491.498 1100.55,467.535 1102.61,470.821 1104.66,188.952 1106.71,281.775 1108.77,284.928 1110.82,310.156 1112.87,310.723 1114.92,287.569 1116.98,285.39 1119.03,286.887 1121.08,287.366 1123.14,328.698 1125.19,410.264 1127.24,399.768 1129.29,399.92 1131.35,400.181 1133.4,398.739 1135.45,372.729 1137.51,410.488 1139.56,415.918 1141.61,376.532 1143.66,390.8 1145.72,416.534 1147.77,417.173 1149.82,488.652 1151.88,484.831 1153.93,530.552 1155.98,532.064 1158.03,535.609 1160.09,567.422 1162.14,519.499 1164.19,496.13 1166.25,495.313 1168.3,488.261 1170.35,487.629 1172.4,480.884 1174.46,280.675 1176.51,251.495 1178.56,269.802 1180.62,328.63 1182.67,327.065 1184.72,331.593 1186.77,319.88 1188.83,311.494 1190.88,336.074 1192.93,335.474 1194.99,338.891 1197.04,423.007 1199.09,423.393 1201.15,417.056 1203.2,535.43 1205.25,516.422 1207.3,511.156 1209.36,507.403 1211.41,524.266 1213.46,534.615 1215.52,216.51 1217.57,253.166 1219.62,260.768 1221.67,266.549 1223.73,240.546 1225.78,321.4 1227.83,253.89 1229.89,278 1231.94,286.007 1233.99,308.132 1236.04,307.792 1238.1,303.701 1240.15,305.945 1242.2,314.211 1244.26,314.208 1246.31,316.611 1248.36,307.005 1250.41,381.18 1252.47,344.196 1254.52,344.247 1256.57,326.695 1258.63,328.385 1260.68,326.525 1262.73,324.133 1264.78,319.702 1266.84,321.989 1268.89,325.361 1270.94,310.967 1273,315.917 1275.05,326.897 1277.1,278.463 1279.16,371.272 1281.21,305.466 1283.26,303.613 1285.31,292.757 1287.37,295.157 1289.42,282.8 1291.47,292.805 1293.53,292.231 1295.58,291.892 1297.63,263.843 1299.68,270.549 1301.74,270.66 1303.79,300.156 1305.84,297.623 1307.9,260.48 1309.95,268.638 1312,275.463 1314.05,258.385 1316.11,257.496 1318.16,274.216 1320.21,293.776 1322.27,292.118 1324.32,552.377 1326.37,552.537 1328.42,571.626 1330.48,509.167 1332.53,488.009 1334.58,476.714 1336.64,492.622 1338.69,497.761 1340.74,467.659 1342.79,472.609 1344.85,474.749 1346.9,456.283 1348.95,457.968 1351.01,452.756 1353.06,441.255 1355.11,430.838 1357.16,431.561 1359.22,430.1 1361.27,442.106 1363.32,446.114 1365.38,297.78 1367.43,299.849 1369.48,299.857 1371.54,309.999 1373.59,319.795 1375.64,320.068 1377.69,313.032 1379.75,310.011 1381.8,311.738 1383.85,348.051 1385.91,346.799 1387.96,346.608 1390.01,346.761 1392.06,344.186 1394.12,340.93 1396.17,340.869 1398.22,333.332 1400.28,332.564 1402.33,331.859 1404.38,325.801 1406.43,325.791 1408.49,324.843 1410.54,328.636 1412.59,327.786 1414.65,334.84 1416.7,312.84 1418.75,298.914 1420.8,285.428 1422.86,301.426 1424.91,310.195 1426.96,307.611 1429.02,272.981 1431.07,275.937 1433.12,274.722 1435.17,285.75 1437.23,284.775 1439.28,298.227 1441.33,295.555 1443.39,295.599 1445.44,297.719 1447.49,301.936 1449.55,311.452 1451.6,309.76 1453.65,350.456 1455.7,351.272 1457.76,370.663 1459.81,370.536 1461.86,366.509 1463.92,366.127 1465.97,363.453 1468.02,354.567 1470.07,354.36 1472.13,354.521 1474.18,354.396 1476.23,354.197 1478.29,350.556 1480.34,337.045 1482.39,335.016 1484.44,363.201 1486.5,294.41 1488.55,300.396 1490.6,409.333 1492.66,333.807 1494.71,332.862 1496.76,332.746 1498.81,310.192 1500.87,306.957 1502.92,307.131 1504.97,336.003 1507.03,411.247 1509.08,378.475 1511.13,378.486 1513.18,385.459 1515.24,415.796 1517.29,415.721 1519.34,442.819 1521.4,430.899 1523.45,429.256 1525.5,407.062 1527.55,406.425 1529.61,339.394 1531.66,368.144 1533.71,371.293 1535.77,368.593 1537.82,329.549 1539.87,328.576 1541.93,327.383 1543.98,328.107 1546.03,335.172 1548.08,336.581 1550.14,321.484 1552.19,320.743 1554.24,319.834 1556.3,392.317 1558.35,402.992 1560.4,372.753 1562.45,367.993 1564.51,318.318 1566.56,317.12 1568.61,289.342 1570.67,280.889 1572.72,281.009 1574.77,280.284 1576.82,261.267 1578.88,251.473 1580.93,253.932 1582.98,260.596 1585.04,297.863 1587.09,357.72 1589.14,348.091 1591.19,336.536 1593.25,320.48 1595.3,316.69 1597.35,351.812 1599.41,344.294 1601.46,363.301 1603.51,365.263 1605.56,365.013 1607.62,364.181 1609.67,598.525 1611.72,573.479 1613.78,188.749 1615.83,226.49 1617.88,223.991 1619.94,251.556 1621.99,262.023 1624.04,262.57 1626.09,245.321 1628.15,271.312 1630.2,261.051 1632.25,310.574 1634.31,339.599 1636.36,66.9699 1638.41,-91.569 1640.46,-142.104 1642.52,-199.064 1644.57,-158.366 1646.62,-230.441 1648.68,-306.163 1650.73,53.3889 1652.78,70.9349 1654.83,146.101 1656.89,273.226 1658.94,893.027 1660.99,687.694 1663.05,614.508 1665.1,627.28 1667.15,683.849 1669.2,703.975 1671.26,687.98 1673.31,738.964 1675.36,784.546 1677.42,846 1679.47,846.1 1681.52,826.655 1683.57,365.155 1685.63,440.684 1687.68,411.035 1689.73,410.55 1691.79,405.397 1693.84,405.618 1695.89,389.011 1697.94,636.413 1700,495.693 1702.05,466.843 1704.1,468.783 1706.16,948.714 1708.21,1028.29 1710.26,1005.51 1712.32,948.663 1714.37,684.527 1716.42,685.27 1718.47,822.673 1720.53,766.404 1722.58,850.701 1724.63,904.96 1726.69,558.728 1728.74,172.427 1730.79,1017.43 1732.84,511.455 1734.9,954.235 1736.95,864.137 1739,896.935 1741.06,836.442 1743.11,834.194 1745.16,842.985 1747.21,819.539 1749.27,809.219 1751.32,882.365 1753.37,878.035 1755.43,902.602 1757.48,493.614 1759.53,450.259 1761.58,447.727 1763.64,394.583 1765.69,296.532 1767.74,233.587 1769.8,137.327 1771.85,60.7105 1773.9,29.3544 1775.95,31.0811 1778.01,251.395 1780.06,517.05 1782.11,560.686 1784.17,640.786 1786.22,534.307 1788.27,536.424 1790.33,587.464 1792.38,551.323 1794.43,505.731 1796.48,478.593 1798.54,51.9131 1800.59,211.342 1802.64,330.404 1804.7,348.471 1806.75,215.044 1808.8,254.489 1810.85,346.259 1812.91,197.537 1814.96,178.558 1817.01,182.059 1819.07,198.529 1821.12,278.401 1823.17,240.963 1825.22,120.97 1827.28,68.3102 1829.33,-70.4705 1831.38,8.07103 1833.44,72.773 1835.49,119.834 1837.54,-156.446 1839.59,48.2747 1841.65,771.397 1843.7,90.3319 1845.75,905.626 1847.81,795.866 1849.86,767.066 1851.91,633.999 1853.96,594.973 1856.02,1026.51 1858.07,1027.03 1860.12,379.566 1862.18,811.573 1864.23,211.433 1866.28,206.866 1868.34,81.9442 1870.39,-94.0144 1872.44,-28.1817 1874.49,-26.4868 1876.55,-36.7803 1878.6,-38.641 1880.65,-88.7356 1882.71,-303.544 1884.76,-129.688 1886.81,-209.134 1888.86,-139.555 1890.92,-372.079 1892.97,-436.565 1895.02,-410.899 1897.08,-270.725 1899.13,-291.54 1901.18,-230.541 1903.23,-296.424 1905.29,-277.93 1907.34,-250.693 1909.39,-288.202 1911.45,-311.76 1913.5,-319.435 1915.55,-232.803 1917.6,-226.934 1919.66,-205.266 1921.71,-290.176 1923.76,-380.494 1925.82,-361.489 1927.87,-372.855 1929.92,-339.606 1931.97,-335.973 1934.03,-405.001 1936.08,-331.99 1938.13,-304.545 1940.19,-279.707 1942.24,-259.923 1944.29,-228.462 1946.34,422.89 1948.4,253.077 1950.45,589.199 1952.5,613.931 1954.56,474.538 1956.61,-361.648 1958.66,369.161 1960.72,286.812 1962.77,170.546 1964.82,222.511 1966.87,-218.456 1968.93,149.013 1970.98,186.133 1973.03,116.948 1975.09,112.673 1977.14,143.42 1979.19,60.0384 1981.24,106.13 1983.3,92.2722 1985.35,46.8721 1987.4,-101.757 1989.46,135.264 1991.51,142.117 1993.56,208.835 1995.61,226.847 1997.67,248.091 1999.72,248.469 2001.77,262.653 2003.83,393.254 2005.88,322.007 2007.93,441.785 2009.98,439.784 2012.04,429.938 2014.09,400.188 2016.14,484.654 2018.2,722.656 2020.25,722.429 2022.3,652.884 2024.35,701.621 2026.41,713.067 2028.46,785.114 2030.51,797.996 2032.57,650.11 2034.62,612.769 2036.67,437.897 2038.73,471.997 2040.78,819.796 2042.83,890.651 2044.88,868.917 2046.94,836.247 2048.99,682.864 2051.04,704.9 2053.1,144.554 2055.15,-481.693 2057.2,-509.022 2059.25,-33.4456 2061.31,379.987 2063.36,346.891 2065.41,518.515 2067.47,510.061 2069.52,483.286 2071.57,462.181 2073.62,367.643 2075.68,386.041 2077.73,440.992 2079.78,507.734 2081.84,-159.819 2083.89,1171.99 2085.94,1351.69 2087.99,1568.87 2090.05,1671.11 2092.1,1486.41 2094.15,1279.58 2096.21,1700.33 2098.26,1733.36 2100.31,1725.77 2102.36,1744.74 2104.42,2025.14 2106.47,1984.91 2108.52,1986.74 2110.58,1903.43 2112.63,1907.46 2114.68,1669.73 2116.73,1806.73 2118.79,1776.51 2120.84,1866.77 2122.89,1530.01 2124.95,1324.19 2127,1205.58 2129.05,875.647 2131.11,970.117 2133.16,1400.05 2135.21,1381.08 2137.26,1000.76 2139.32,966.261 2141.37,866.6 2143.42,928.51 2145.48,1087.47 2147.53,639.034 2149.58,778.497 2151.63,575.036 2153.69,623.963 2155.74,648.404 2157.79,672.209 2159.85,573.62 2161.9,547.601 2163.95,827.133 2166,830.019 2168.06,528.431 2170.11,672.209 2172.16,684.823 2174.22,658.377 2176.27,410.643 2178.32,175.423 2180.37,273.982 2182.43,270.553 2184.48,573.35 2186.53,954.023 2188.59,1032.83 2190.64,1002.56 2192.69,1007 2194.74,1056.18 2196.8,931.688 2198.85,914.692 2200.9,884.423 2202.96,1077.24 2205.01,1199.61 2207.06,1186.48 2209.12,984.584 2211.17,1005.83 2213.22,1005.92 2215.27,1008.55 2217.33,953.542 2219.38,951.668 2221.43,798.546 2223.49,874.011 2225.54,1034.73 2227.59,1244.97 2229.64,1156.01 2231.7,1507.66 2233.75,1058.66 2235.8,811.753 2237.86,688.912 2239.91,684.189 2241.96,709.86 2244.01,557.236 2246.07,507.074 2248.12,444.028 2250.17,451.269 2252.23,460.633 2254.28,505.184 2256.33,514.068 2258.38,531.6 2260.44,527.684 2262.49,328.056 2264.54,183.791 2266.6,344.258 2268.65,360.258 2270.7,368.894 2272.75,303.515 2274.81,303.657 2276.86,158.189 2278.91,304.813 2280.97,291.431 2283.02,390.009 2285.07,382.918 2287.12,322.233 2289.18,335.92 2291.23,334.812 "/>
<path clip-path="url(#clip700)" d="M251.33 665.141 L548.024 665.141 L548.024 561.461 L251.33 561.461  Z" fill="#ffffff" fill-rule="evenodd" fill-opacity="1"/>
<polyline clip-path="url(#clip700)" style="stroke:#000000; stroke-linecap:round; stroke-linejoin:round; stroke-width:4; stroke-opacity:1; fill:none" points="251.33,665.141 548.024,665.141 548.024,561.461 251.33,561.461 251.33,665.141 "/>
<polyline clip-path="url(#clip700)" style="stroke:#009af9; stroke-linecap:round; stroke-linejoin:round; stroke-width:4; stroke-opacity:1; fill:none" points="275.484,613.301 420.41,613.301 "/>
<path clip-path="url(#clip700)" d="M444.564 596.021 L449.24 596.021 L449.24 626.646 L466.069 626.646 L466.069 630.581 L444.564 630.581 L444.564 596.021 Z" fill="#000000" fill-rule="nonzero" fill-opacity="1" /><path clip-path="url(#clip700)" d="M491.694 597.155 L491.694 601.715 Q489.032 600.442 486.67 599.817 Q484.309 599.192 482.11 599.192 Q478.291 599.192 476.208 600.674 Q474.147 602.155 474.147 604.887 Q474.147 607.178 475.513 608.359 Q476.902 609.516 480.745 610.234 L483.569 610.813 Q488.8 611.808 491.277 614.331 Q493.777 616.831 493.777 621.044 Q493.777 626.067 490.397 628.66 Q487.041 631.252 480.536 631.252 Q478.083 631.252 475.305 630.697 Q472.55 630.141 469.587 629.053 L469.587 624.239 Q472.434 625.836 475.166 626.646 Q477.897 627.456 480.536 627.456 Q484.541 627.456 486.717 625.882 Q488.893 624.308 488.893 621.391 Q488.893 618.845 487.319 617.41 Q485.768 615.975 482.203 615.257 L479.356 614.702 Q474.124 613.66 471.786 611.438 Q469.448 609.215 469.448 605.257 Q469.448 600.674 472.666 598.035 Q475.907 595.396 481.578 595.396 Q484.008 595.396 486.532 595.836 Q489.055 596.276 491.694 597.155 Z" fill="#000000" fill-rule="nonzero" fill-opacity="1" /><path clip-path="url(#clip700)" d="M521.786 597.155 L521.786 601.715 Q519.124 600.442 516.763 599.817 Q514.402 599.192 512.203 599.192 Q508.383 599.192 506.3 600.674 Q504.24 602.155 504.24 604.887 Q504.24 607.178 505.606 608.359 Q506.994 609.516 510.837 610.234 L513.661 610.813 Q518.893 611.808 521.369 614.331 Q523.869 616.831 523.869 621.044 Q523.869 626.067 520.49 628.66 Q517.133 631.252 510.629 631.252 Q508.175 631.252 505.397 630.697 Q502.643 630.141 499.68 629.053 L499.68 624.239 Q502.527 625.836 505.258 626.646 Q507.99 627.456 510.629 627.456 Q514.633 627.456 516.809 625.882 Q518.985 624.308 518.985 621.391 Q518.985 618.845 517.411 617.41 Q515.86 615.975 512.295 615.257 L509.448 614.702 Q504.217 613.66 501.879 611.438 Q499.541 609.215 499.541 605.257 Q499.541 600.674 502.758 598.035 Q505.999 595.396 511.67 595.396 Q514.101 595.396 516.624 595.836 Q519.147 596.276 521.786 597.155 Z" fill="#000000" fill-rule="nonzero" fill-opacity="1" /><path clip-path="url(#clip700)" d="M178.867 1486.45 L2352.76 1486.45 L2352.76 847.244 L178.867 847.244  Z" fill="#ffffff" fill-rule="evenodd" fill-opacity="1"/>
<defs>
  <clipPath id="clip703">
    <rect x="178" y="847" width="2175" height="640"/>
  </clipPath>
</defs>
<polyline clip-path="url(#clip703)" style="stroke:#000000; stroke-linecap:round; stroke-linejoin:round; stroke-width:2; stroke-opacity:0.1; fill:none" points="238.339,1486.45 238.339,847.244 "/>
<polyline clip-path="url(#clip703)" style="stroke:#000000; stroke-linecap:round; stroke-linejoin:round; stroke-width:2; stroke-opacity:0.1; fill:none" points="751.562,1486.45 751.562,847.244 "/>
<polyline clip-path="url(#clip703)" style="stroke:#000000; stroke-linecap:round; stroke-linejoin:round; stroke-width:2; stroke-opacity:0.1; fill:none" points="1264.78,1486.45 1264.78,847.244 "/>
<polyline clip-path="url(#clip703)" style="stroke:#000000; stroke-linecap:round; stroke-linejoin:round; stroke-width:2; stroke-opacity:0.1; fill:none" points="1778.01,1486.45 1778.01,847.244 "/>
<polyline clip-path="url(#clip703)" style="stroke:#000000; stroke-linecap:round; stroke-linejoin:round; stroke-width:2; stroke-opacity:0.1; fill:none" points="2291.23,1486.45 2291.23,847.244 "/>
<polyline clip-path="url(#clip703)" style="stroke:#000000; stroke-linecap:round; stroke-linejoin:round; stroke-width:2; stroke-opacity:0.1; fill:none" points="178.867,1486.45 2352.76,1486.45 "/>
<polyline clip-path="url(#clip703)" style="stroke:#000000; stroke-linecap:round; stroke-linejoin:round; stroke-width:2; stroke-opacity:0.1; fill:none" points="178.867,1326.65 2352.76,1326.65 "/>
<polyline clip-path="url(#clip703)" style="stroke:#000000; stroke-linecap:round; stroke-linejoin:round; stroke-width:2; stroke-opacity:0.1; fill:none" points="178.867,1166.85 2352.76,1166.85 "/>
<polyline clip-path="url(#clip703)" style="stroke:#000000; stroke-linecap:round; stroke-linejoin:round; stroke-width:2; stroke-opacity:0.1; fill:none" points="178.867,1007.05 2352.76,1007.05 "/>
<polyline clip-path="url(#clip703)" style="stroke:#000000; stroke-linecap:round; stroke-linejoin:round; stroke-width:2; stroke-opacity:0.1; fill:none" points="178.867,847.244 2352.76,847.244 "/>
<polyline clip-path="url(#clip700)" style="stroke:#000000; stroke-linecap:round; stroke-linejoin:round; stroke-width:4; stroke-opacity:1; fill:none" points="178.867,1486.45 2352.76,1486.45 "/>
<polyline clip-path="url(#clip700)" style="stroke:#000000; stroke-linecap:round; stroke-linejoin:round; stroke-width:4; stroke-opacity:1; fill:none" points="238.339,1486.45 238.339,1467.55 "/>
<polyline clip-path="url(#clip700)" style="stroke:#000000; stroke-linecap:round; stroke-linejoin:round; stroke-width:4; stroke-opacity:1; fill:none" points="751.562,1486.45 751.562,1467.55 "/>
<polyline clip-path="url(#clip700)" style="stroke:#000000; stroke-linecap:round; stroke-linejoin:round; stroke-width:4; stroke-opacity:1; fill:none" points="1264.78,1486.45 1264.78,1467.55 "/>
<polyline clip-path="url(#clip700)" style="stroke:#000000; stroke-linecap:round; stroke-linejoin:round; stroke-width:4; stroke-opacity:1; fill:none" points="1778.01,1486.45 1778.01,1467.55 "/>
<polyline clip-path="url(#clip700)" style="stroke:#000000; stroke-linecap:round; stroke-linejoin:round; stroke-width:4; stroke-opacity:1; fill:none" points="2291.23,1486.45 2291.23,1467.55 "/>
<path clip-path="url(#clip700)" d="M238.339 1517.37 Q234.728 1517.37 232.899 1520.93 Q231.094 1524.47 231.094 1531.6 Q231.094 1538.71 232.899 1542.27 Q234.728 1545.82 238.339 1545.82 Q241.973 1545.82 243.779 1542.27 Q245.607 1538.71 245.607 1531.6 Q245.607 1524.47 243.779 1520.93 Q241.973 1517.37 238.339 1517.37 M238.339 1513.66 Q244.149 1513.66 247.205 1518.27 Q250.283 1522.85 250.283 1531.6 Q250.283 1540.33 247.205 1544.94 Q244.149 1549.52 238.339 1549.52 Q232.529 1549.52 229.45 1544.94 Q226.395 1540.33 226.395 1531.6 Q226.395 1522.85 229.45 1518.27 Q232.529 1513.66 238.339 1513.66 Z" fill="#000000" fill-rule="nonzero" fill-opacity="1" /><path clip-path="url(#clip700)" d="M715.254 1544.91 L731.574 1544.91 L731.574 1548.85 L709.629 1548.85 L709.629 1544.91 Q712.291 1542.16 716.875 1537.53 Q721.481 1532.88 722.662 1531.53 Q724.907 1529.01 725.787 1527.27 Q726.689 1525.51 726.689 1523.82 Q726.689 1521.07 724.745 1519.33 Q722.824 1517.6 719.722 1517.6 Q717.523 1517.6 715.069 1518.36 Q712.638 1519.13 709.861 1520.68 L709.861 1515.95 Q712.685 1514.82 715.138 1514.24 Q717.592 1513.66 719.629 1513.66 Q725 1513.66 728.194 1516.35 Q731.388 1519.03 731.388 1523.52 Q731.388 1525.65 730.578 1527.57 Q729.791 1529.47 727.685 1532.07 Q727.106 1532.74 724.004 1535.95 Q720.902 1539.15 715.254 1544.91 Z" fill="#000000" fill-rule="nonzero" fill-opacity="1" /><path clip-path="url(#clip700)" d="M741.435 1514.29 L759.791 1514.29 L759.791 1518.22 L745.717 1518.22 L745.717 1526.7 Q746.736 1526.35 747.754 1526.19 Q748.773 1526 749.791 1526 Q755.578 1526 758.958 1529.17 Q762.337 1532.34 762.337 1537.76 Q762.337 1543.34 758.865 1546.44 Q755.393 1549.52 749.073 1549.52 Q746.898 1549.52 744.629 1549.15 Q742.384 1548.78 739.976 1548.04 L739.976 1543.34 Q742.06 1544.47 744.282 1545.03 Q746.504 1545.58 748.981 1545.58 Q752.985 1545.58 755.323 1543.48 Q757.661 1541.37 757.661 1537.76 Q757.661 1534.15 755.323 1532.04 Q752.985 1529.94 748.981 1529.94 Q747.106 1529.94 745.231 1530.35 Q743.379 1530.77 741.435 1531.65 L741.435 1514.29 Z" fill="#000000" fill-rule="nonzero" fill-opacity="1" /><path clip-path="url(#clip700)" d="M781.55 1517.37 Q777.939 1517.37 776.11 1520.93 Q774.305 1524.47 774.305 1531.6 Q774.305 1538.71 776.11 1542.27 Q777.939 1545.82 781.55 1545.82 Q785.184 1545.82 786.99 1542.27 Q788.819 1538.71 788.819 1531.6 Q788.819 1524.47 786.99 1520.93 Q785.184 1517.37 781.55 1517.37 M781.55 1513.66 Q787.36 1513.66 790.416 1518.27 Q793.495 1522.85 793.495 1531.6 Q793.495 1540.33 790.416 1544.94 Q787.36 1549.52 781.55 1549.52 Q775.74 1549.52 772.661 1544.94 Q769.606 1540.33 769.606 1531.6 Q769.606 1522.85 772.661 1518.27 Q775.74 1513.66 781.55 1513.66 Z" fill="#000000" fill-rule="nonzero" fill-opacity="1" /><path clip-path="url(#clip700)" d="M1224.4 1514.29 L1242.76 1514.29 L1242.76 1518.22 L1228.69 1518.22 L1228.69 1526.7 Q1229.7 1526.35 1230.72 1526.19 Q1231.74 1526 1232.76 1526 Q1238.55 1526 1241.93 1529.17 Q1245.31 1532.34 1245.31 1537.76 Q1245.31 1543.34 1241.83 1546.44 Q1238.36 1549.52 1232.04 1549.52 Q1229.87 1549.52 1227.6 1549.15 Q1225.35 1548.78 1222.94 1548.04 L1222.94 1543.34 Q1225.03 1544.47 1227.25 1545.03 Q1229.47 1545.58 1231.95 1545.58 Q1235.95 1545.58 1238.29 1543.48 Q1240.63 1541.37 1240.63 1537.76 Q1240.63 1534.15 1238.29 1532.04 Q1235.95 1529.94 1231.95 1529.94 Q1230.07 1529.94 1228.2 1530.35 Q1226.35 1530.77 1224.4 1531.65 L1224.4 1514.29 Z" fill="#000000" fill-rule="nonzero" fill-opacity="1" /><path clip-path="url(#clip700)" d="M1264.52 1517.37 Q1260.91 1517.37 1259.08 1520.93 Q1257.27 1524.47 1257.27 1531.6 Q1257.27 1538.71 1259.08 1542.27 Q1260.91 1545.82 1264.52 1545.82 Q1268.15 1545.82 1269.96 1542.27 Q1271.79 1538.71 1271.79 1531.6 Q1271.79 1524.47 1269.96 1520.93 Q1268.15 1517.37 1264.52 1517.37 M1264.52 1513.66 Q1270.33 1513.66 1273.38 1518.27 Q1276.46 1522.85 1276.46 1531.6 Q1276.46 1540.33 1273.38 1544.94 Q1270.33 1549.52 1264.52 1549.52 Q1258.71 1549.52 1255.63 1544.94 Q1252.57 1540.33 1252.57 1531.6 Q1252.57 1522.85 1255.63 1518.27 Q1258.71 1513.66 1264.52 1513.66 Z" fill="#000000" fill-rule="nonzero" fill-opacity="1" /><path clip-path="url(#clip700)" d="M1294.68 1517.37 Q1291.07 1517.37 1289.24 1520.93 Q1287.44 1524.47 1287.44 1531.6 Q1287.44 1538.71 1289.24 1542.27 Q1291.07 1545.82 1294.68 1545.82 Q1298.31 1545.82 1300.12 1542.27 Q1301.95 1538.71 1301.95 1531.6 Q1301.95 1524.47 1300.12 1520.93 Q1298.31 1517.37 1294.68 1517.37 M1294.68 1513.66 Q1300.49 1513.66 1303.55 1518.27 Q1306.62 1522.85 1306.62 1531.6 Q1306.62 1540.33 1303.55 1544.94 Q1300.49 1549.52 1294.68 1549.52 Q1288.87 1549.52 1285.79 1544.94 Q1282.74 1540.33 1282.74 1531.6 Q1282.74 1522.85 1285.79 1518.27 Q1288.87 1513.66 1294.68 1513.66 Z" fill="#000000" fill-rule="nonzero" fill-opacity="1" /><path clip-path="url(#clip700)" d="M1736.28 1514.29 L1758.51 1514.29 L1758.51 1516.28 L1745.96 1548.85 L1741.08 1548.85 L1752.88 1518.22 L1736.28 1518.22 L1736.28 1514.29 Z" fill="#000000" fill-rule="nonzero" fill-opacity="1" /><path clip-path="url(#clip700)" d="M1767.67 1514.29 L1786.03 1514.29 L1786.03 1518.22 L1771.95 1518.22 L1771.95 1526.7 Q1772.97 1526.35 1773.99 1526.19 Q1775.01 1526 1776.03 1526 Q1781.82 1526 1785.2 1529.17 Q1788.57 1532.34 1788.57 1537.76 Q1788.57 1543.34 1785.1 1546.44 Q1781.63 1549.52 1775.31 1549.52 Q1773.14 1549.52 1770.87 1549.15 Q1768.62 1548.78 1766.21 1548.04 L1766.21 1543.34 Q1768.3 1544.47 1770.52 1545.03 Q1772.74 1545.58 1775.22 1545.58 Q1779.22 1545.58 1781.56 1543.48 Q1783.9 1541.37 1783.9 1537.76 Q1783.9 1534.15 1781.56 1532.04 Q1779.22 1529.94 1775.22 1529.94 Q1773.34 1529.94 1771.47 1530.35 Q1769.62 1530.77 1767.67 1531.65 L1767.67 1514.29 Z" fill="#000000" fill-rule="nonzero" fill-opacity="1" /><path clip-path="url(#clip700)" d="M1807.79 1517.37 Q1804.18 1517.37 1802.35 1520.93 Q1800.54 1524.47 1800.54 1531.6 Q1800.54 1538.71 1802.35 1542.27 Q1804.18 1545.82 1807.79 1545.82 Q1811.42 1545.82 1813.23 1542.27 Q1815.06 1538.71 1815.06 1531.6 Q1815.06 1524.47 1813.23 1520.93 Q1811.42 1517.37 1807.79 1517.37 M1807.79 1513.66 Q1813.6 1513.66 1816.65 1518.27 Q1819.73 1522.85 1819.73 1531.6 Q1819.73 1540.33 1816.65 1544.94 Q1813.6 1549.52 1807.79 1549.52 Q1801.98 1549.52 1798.9 1544.94 Q1795.84 1540.33 1795.84 1531.6 Q1795.84 1522.85 1798.9 1518.27 Q1801.98 1513.66 1807.79 1513.66 Z" fill="#000000" fill-rule="nonzero" fill-opacity="1" /><path clip-path="url(#clip700)" d="M2235.76 1544.91 L2243.4 1544.91 L2243.4 1518.55 L2235.09 1520.21 L2235.09 1515.95 L2243.35 1514.29 L2248.02 1514.29 L2248.02 1544.91 L2255.66 1544.91 L2255.66 1548.85 L2235.76 1548.85 L2235.76 1544.91 Z" fill="#000000" fill-rule="nonzero" fill-opacity="1" /><path clip-path="url(#clip700)" d="M2275.11 1517.37 Q2271.5 1517.37 2269.67 1520.93 Q2267.86 1524.47 2267.86 1531.6 Q2267.86 1538.71 2269.67 1542.27 Q2271.5 1545.82 2275.11 1545.82 Q2278.74 1545.82 2280.55 1542.27 Q2282.38 1538.71 2282.38 1531.6 Q2282.38 1524.47 2280.55 1520.93 Q2278.74 1517.37 2275.11 1517.37 M2275.11 1513.66 Q2280.92 1513.66 2283.97 1518.27 Q2287.05 1522.85 2287.05 1531.6 Q2287.05 1540.33 2283.97 1544.94 Q2280.92 1549.52 2275.11 1549.52 Q2269.3 1549.52 2266.22 1544.94 Q2263.16 1540.33 2263.16 1531.6 Q2263.16 1522.85 2266.22 1518.27 Q2269.3 1513.66 2275.11 1513.66 Z" fill="#000000" fill-rule="nonzero" fill-opacity="1" /><path clip-path="url(#clip700)" d="M2305.27 1517.37 Q2301.66 1517.37 2299.83 1520.93 Q2298.02 1524.47 2298.02 1531.6 Q2298.02 1538.71 2299.83 1542.27 Q2301.66 1545.82 2305.27 1545.82 Q2308.9 1545.82 2310.71 1542.27 Q2312.54 1538.71 2312.54 1531.6 Q2312.54 1524.47 2310.71 1520.93 Q2308.9 1517.37 2305.27 1517.37 M2305.27 1513.66 Q2311.08 1513.66 2314.14 1518.27 Q2317.21 1522.85 2317.21 1531.6 Q2317.21 1540.33 2314.14 1544.94 Q2311.08 1549.52 2305.27 1549.52 Q2299.46 1549.52 2296.38 1544.94 Q2293.33 1540.33 2293.33 1531.6 Q2293.33 1522.85 2296.38 1518.27 Q2299.46 1513.66 2305.27 1513.66 Z" fill="#000000" fill-rule="nonzero" fill-opacity="1" /><path clip-path="url(#clip700)" d="M2335.43 1517.37 Q2331.82 1517.37 2329.99 1520.93 Q2328.19 1524.47 2328.19 1531.6 Q2328.19 1538.71 2329.99 1542.27 Q2331.82 1545.82 2335.43 1545.82 Q2339.07 1545.82 2340.87 1542.27 Q2342.7 1538.71 2342.7 1531.6 Q2342.7 1524.47 2340.87 1520.93 Q2339.07 1517.37 2335.43 1517.37 M2335.43 1513.66 Q2341.24 1513.66 2344.3 1518.27 Q2347.38 1522.85 2347.38 1531.6 Q2347.38 1540.33 2344.3 1544.94 Q2341.24 1549.52 2335.43 1549.52 Q2329.62 1549.52 2326.54 1544.94 Q2323.49 1540.33 2323.49 1531.6 Q2323.49 1522.85 2326.54 1518.27 Q2329.62 1513.66 2335.43 1513.66 Z" fill="#000000" fill-rule="nonzero" fill-opacity="1" /><polyline clip-path="url(#clip700)" style="stroke:#000000; stroke-linecap:round; stroke-linejoin:round; stroke-width:4; stroke-opacity:1; fill:none" points="178.867,1486.45 178.867,847.244 "/>
<polyline clip-path="url(#clip700)" style="stroke:#000000; stroke-linecap:round; stroke-linejoin:round; stroke-width:4; stroke-opacity:1; fill:none" points="178.867,1486.45 197.764,1486.45 "/>
<polyline clip-path="url(#clip700)" style="stroke:#000000; stroke-linecap:round; stroke-linejoin:round; stroke-width:4; stroke-opacity:1; fill:none" points="178.867,1326.65 197.764,1326.65 "/>
<polyline clip-path="url(#clip700)" style="stroke:#000000; stroke-linecap:round; stroke-linejoin:round; stroke-width:4; stroke-opacity:1; fill:none" points="178.867,1166.85 197.764,1166.85 "/>
<polyline clip-path="url(#clip700)" style="stroke:#000000; stroke-linecap:round; stroke-linejoin:round; stroke-width:4; stroke-opacity:1; fill:none" points="178.867,1007.05 197.764,1007.05 "/>
<polyline clip-path="url(#clip700)" style="stroke:#000000; stroke-linecap:round; stroke-linejoin:round; stroke-width:4; stroke-opacity:1; fill:none" points="178.867,847.244 197.764,847.244 "/>
<path clip-path="url(#clip700)" d="M50.9921 1486.9 L80.6679 1486.9 L80.6679 1490.83 L50.9921 1490.83 L50.9921 1486.9 Z" fill="#000000" fill-rule="nonzero" fill-opacity="1" /><path clip-path="url(#clip700)" d="M91.5706 1499.79 L99.2095 1499.79 L99.2095 1473.43 L90.8993 1475.09 L90.8993 1470.83 L99.1632 1469.17 L103.839 1469.17 L103.839 1499.79 L111.478 1499.79 L111.478 1503.73 L91.5706 1503.73 L91.5706 1499.79 Z" fill="#000000" fill-rule="nonzero" fill-opacity="1" /><path clip-path="url(#clip700)" d="M130.922 1472.25 Q127.311 1472.25 125.482 1475.81 Q123.677 1479.35 123.677 1486.48 Q123.677 1493.59 125.482 1497.15 Q127.311 1500.7 130.922 1500.7 Q134.556 1500.7 136.362 1497.15 Q138.191 1493.59 138.191 1486.48 Q138.191 1479.35 136.362 1475.81 Q134.556 1472.25 130.922 1472.25 M130.922 1468.54 Q136.732 1468.54 139.788 1473.15 Q142.867 1477.73 142.867 1486.48 Q142.867 1495.21 139.788 1499.82 Q136.732 1504.4 130.922 1504.4 Q125.112 1504.4 122.033 1499.82 Q118.978 1495.21 118.978 1486.48 Q118.978 1477.73 122.033 1473.15 Q125.112 1468.54 130.922 1468.54 Z" fill="#000000" fill-rule="nonzero" fill-opacity="1" /><path clip-path="url(#clip700)" d="M82.1494 1327.1 L111.825 1327.1 L111.825 1331.03 L82.1494 1331.03 L82.1494 1327.1 Z" fill="#000000" fill-rule="nonzero" fill-opacity="1" /><path clip-path="url(#clip700)" d="M121.964 1309.37 L140.32 1309.37 L140.32 1313.3 L126.246 1313.3 L126.246 1321.77 Q127.265 1321.43 128.283 1321.27 Q129.302 1321.08 130.32 1321.08 Q136.107 1321.08 139.487 1324.25 Q142.867 1327.42 142.867 1332.84 Q142.867 1338.42 139.394 1341.52 Q135.922 1344.6 129.603 1344.6 Q127.427 1344.6 125.158 1344.23 Q122.913 1343.86 120.506 1343.12 L120.506 1338.42 Q122.589 1339.55 124.811 1340.11 Q127.033 1340.66 129.51 1340.66 Q133.515 1340.66 135.853 1338.56 Q138.191 1336.45 138.191 1332.84 Q138.191 1329.23 135.853 1327.12 Q133.515 1325.01 129.51 1325.01 Q127.635 1325.01 125.76 1325.43 Q123.908 1325.85 121.964 1326.73 L121.964 1309.37 Z" fill="#000000" fill-rule="nonzero" fill-opacity="1" /><path clip-path="url(#clip700)" d="M130.922 1152.64 Q127.311 1152.64 125.482 1156.21 Q123.677 1159.75 123.677 1166.88 Q123.677 1173.99 125.482 1177.55 Q127.311 1181.09 130.922 1181.09 Q134.556 1181.09 136.362 1177.55 Q138.191 1173.99 138.191 1166.88 Q138.191 1159.75 136.362 1156.21 Q134.556 1152.64 130.922 1152.64 M130.922 1148.94 Q136.732 1148.94 139.788 1153.55 Q142.867 1158.13 142.867 1166.88 Q142.867 1175.61 139.788 1180.21 Q136.732 1184.8 130.922 1184.8 Q125.112 1184.8 122.033 1180.21 Q118.978 1175.61 118.978 1166.88 Q118.978 1158.13 122.033 1153.55 Q125.112 1148.94 130.922 1148.94 Z" fill="#000000" fill-rule="nonzero" fill-opacity="1" /><path clip-path="url(#clip700)" d="M121.964 989.765 L140.32 989.765 L140.32 993.7 L126.246 993.7 L126.246 1002.17 Q127.265 1001.83 128.283 1001.66 Q129.302 1001.48 130.32 1001.48 Q136.107 1001.48 139.487 1004.65 Q142.867 1007.82 142.867 1013.24 Q142.867 1018.82 139.394 1021.92 Q135.922 1025 129.603 1025 Q127.427 1025 125.158 1024.63 Q122.913 1024.26 120.506 1023.51 L120.506 1018.82 Q122.589 1019.95 124.811 1020.51 Q127.033 1021.06 129.51 1021.06 Q133.515 1021.06 135.853 1018.95 Q138.191 1016.85 138.191 1013.24 Q138.191 1009.63 135.853 1007.52 Q133.515 1005.41 129.51 1005.41 Q127.635 1005.41 125.76 1005.83 Q123.908 1006.25 121.964 1007.13 L121.964 989.765 Z" fill="#000000" fill-rule="nonzero" fill-opacity="1" /><path clip-path="url(#clip700)" d="M91.5706 860.589 L99.2095 860.589 L99.2095 834.223 L90.8993 835.89 L90.8993 831.631 L99.1632 829.964 L103.839 829.964 L103.839 860.589 L111.478 860.589 L111.478 864.524 L91.5706 864.524 L91.5706 860.589 Z" fill="#000000" fill-rule="nonzero" fill-opacity="1" /><path clip-path="url(#clip700)" d="M130.922 833.043 Q127.311 833.043 125.482 836.608 Q123.677 840.149 123.677 847.279 Q123.677 854.385 125.482 857.95 Q127.311 861.492 130.922 861.492 Q134.556 861.492 136.362 857.95 Q138.191 854.385 138.191 847.279 Q138.191 840.149 136.362 836.608 Q134.556 833.043 130.922 833.043 M130.922 829.339 Q136.732 829.339 139.788 833.946 Q142.867 838.529 142.867 847.279 Q142.867 856.006 139.788 860.612 Q136.732 865.195 130.922 865.195 Q125.112 865.195 122.033 860.612 Q118.978 856.006 118.978 847.279 Q118.978 838.529 122.033 833.946 Q125.112 829.339 130.922 829.339 Z" fill="#000000" fill-rule="nonzero" fill-opacity="1" /><polyline clip-path="url(#clip703)" style="stroke:#009af9; stroke-linecap:round; stroke-linejoin:round; stroke-width:4; stroke-opacity:1; fill:none" points="240.392,1134.89 242.445,1199.98 244.498,1149.7 246.55,1232.14 248.603,1202.54 250.656,1210.81 252.709,1207.1 254.762,1192.98 256.815,1236.19 258.868,1168.69 260.921,1175.26 262.974,1169.31 265.027,1193.36 267.079,1129.57 269.132,1133.1 271.185,1197.3 273.238,1175.91 275.291,1260.04 277.344,1177.33 279.397,1181.09 281.45,1140.62 283.503,1225.4 285.555,1186.86 287.608,1190 289.661,1170.87 291.714,1184.36 293.767,1117.26 295.82,1103.28 297.873,1141.55 299.926,1148.55 301.979,1290.67 304.031,1217.33 306.084,990.987 308.137,1590.31 310.19,1258.43 312.243,1135.75 314.296,969.824 316.349,1263.55 318.402,1105 320.455,1095.38 322.507,1144.02 324.56,1332.76 326.613,1178.08 328.666,1165.65 330.719,1121.63 332.772,1196.73 334.825,1236.72 336.878,1069.36 338.931,1102.78 340.984,1141.47 343.036,1107.92 345.089,1242.41 347.142,1261.73 349.195,1281.22 351.248,1210.07 353.301,1155.43 355.354,1182.32 357.407,1158.89 359.46,1118.46 361.512,1206.73 363.565,1155.24 365.618,1142.71 367.671,1207.06 369.724,1267.04 371.777,1128.21 373.83,1162.11 375.883,1180.16 377.936,1189.82 379.988,1198.39 382.041,1097.59 384.094,1156.41 386.147,1173.58 388.2,1211.35 390.253,1124.38 392.306,1158.67 394.359,1152.63 396.412,1200.61 398.464,1173.96 400.517,1200.71 402.57,1183.75 404.623,1160.4 406.676,1181.34 408.729,1145.37 410.782,1156.92 412.835,1140.38 414.888,1229.29 416.94,1088.04 418.993,1076.87 421.046,1228.52 423.099,1187.41 425.152,1301.89 427.205,1249.15 429.258,769.615 431.311,155.822 433.364,791.364 435.417,1018.98 437.469,-252.189 439.522,1736.1 441.575,1466.11 443.628,1146.77 445.681,1173.25 447.734,1180.09 449.787,1218.49 451.84,1181.59 453.893,1159.26 455.945,1160.71 457.998,1158.99 460.051,1143.16 462.104,1196.52 464.157,1109.09 466.21,1097.84 468.263,1095.4 470.316,1160.65 472.369,913.662 474.421,1190.77 476.474,953.944 478.527,1336.91 480.58,1219.73 482.633,1163.43 484.686,1263.14 486.739,1193.42 488.792,1194.88 490.845,1113.62 492.897,1259.05 494.95,1084.24 497.003,1254.48 499.056,1190.74 501.109,1147.32 503.162,1123.03 505.215,1109.14 507.268,1168.13 509.321,1155.15 511.374,1137.29 513.426,1163.72 515.479,1168.83 517.532,944.398 519.585,536.38 521.638,-44.1806 523.691,935.729 525.744,1353.82 527.797,744.319 529.85,1152.99 531.902,1006.46 533.955,1139.8 536.008,1239.96 538.061,1043.13 540.114,1115.05 542.167,1196.46 544.22,1166.14 546.273,1176.7 548.326,1169.92 550.378,1165.84 552.431,1171 554.484,1187.73 556.537,1148.82 558.59,1132.58 560.643,1118.4 562.696,1173.83 564.749,1146.63 566.802,1180.05 568.854,1212.57 570.907,1159.46 572.96,1146.63 575.013,1133.38 577.066,1173.46 579.119,1125.41 581.172,1255.9 583.225,1247.83 585.278,1048.57 587.331,1127.28 589.383,1173.89 591.436,1192.57 593.489,1092.61 595.542,1204.93 597.595,1173.63 599.648,1050.38 601.701,1075.45 603.754,1193.82 605.807,1111.98 607.859,1193.65 609.912,1182.59 611.965,1170.65 614.018,1151.65 616.071,1089.65 618.124,1243.23 620.177,1053.28 622.23,1157.44 624.283,1160.13 626.335,1112.05 628.388,1240.79 630.441,1157.18 632.494,1183.01 634.547,1167.07 636.6,1275.64 638.653,1155.3 640.706,1171.15 642.759,1166.8 644.811,1136.21 646.864,1181.58 648.917,1188.26 650.97,1145.77 653.023,1128.42 655.076,1179.54 657.129,1234.82 659.182,1219.18 661.235,1091.51 663.288,1149.5 665.34,1190.34 667.393,1114.25 669.446,1136.92 671.499,1215.96 673.552,1165.75 675.605,1161.28 677.658,1169.69 679.711,1202.89 681.764,1157.88 683.816,1193.17 685.869,1155.63 687.922,1216.86 689.975,1414.84 692.028,1074.87 694.081,1074.42 696.134,1937.78 698.187,983.91 700.24,2830.89 702.292,1194.17 704.345,1530.22 706.398,1271.48 708.451,1078.96 710.504,590.461 712.557,1634.61 714.61,1271.06 716.663,1143.29 718.716,1197.48 720.768,1192.97 722.821,1120.03 724.874,1139.68 726.927,1194.61 728.98,1145.08 731.033,1141.02 733.086,1185.91 735.139,1159.82 737.192,984.563 739.245,865.534 741.297,1162.77 743.35,1140.24 745.403,1155.74 747.456,1165.07 749.509,1174.37 751.562,1166.11 753.615,1121.74 755.668,1140.28 757.721,1182.19 759.773,1178.92 761.826,1174.16 763.879,1153.82 765.932,1196.28 767.985,1309.36 770.038,1135.48 772.091,1141.34 774.144,1253.91 776.197,968.914 778.249,1181.87 780.302,1229.5 782.355,1162.45 784.408,1082.53 786.461,1145.78 788.514,1157.55 790.567,1181.75 792.62,1171.4 794.673,1170.43 796.725,1157.4 798.778,1170.87 800.831,1173.09 802.884,1139.27 804.937,1118.51 806.99,1215.89 809.043,1179.04 811.096,1165.4 813.149,1160 815.202,1167.58 817.254,1172.64 819.307,1159.73 821.36,975.6 823.413,1071.8 825.466,1247.59 827.519,1103.88 829.572,1121.33 831.625,1134.51 833.678,1196.28 835.73,1068 837.783,1509.9 839.836,976.732 841.889,1159.99 843.942,1731.73 845.995,1501.23 848.048,1120.25 850.101,1183.38 852.154,1131.56 854.206,1184.17 856.259,1154.38 858.312,1146.86 860.365,1179.9 862.418,1157.13 864.471,1112.85 866.524,1179.48 868.577,1209.58 870.63,1177.25 872.682,1178.63 874.735,1200.05 876.788,1058.2 878.841,1154.76 880.894,1162.78 882.947,1165.64 885,1188.19 887.053,1150.67 889.106,1049.3 891.159,1163.06 893.211,1174.41 895.264,1166.59 897.317,1084.65 899.37,1270.49 901.423,1174.8 903.476,1185.61 905.529,1126.95 907.582,1160.26 909.635,1181.24 911.687,1165.51 913.74,1160.11 915.793,1174.25 917.846,1164.14 919.899,1098.1 921.952,1185.39 924.005,1156.03 926.058,1176.68 928.111,1152.45 930.163,1169.06 932.216,1164.61 934.269,1148.07 936.322,1150.27 938.375,1147.24 940.428,1216.73 942.481,1172.3 944.534,1074.65 946.587,1279.07 948.639,1221.95 950.692,1185.96 952.745,1019.71 954.798,1319.87 956.851,1162.97 958.904,1149.65 960.957,1142.76 963.01,1223.22 965.063,1255.46 967.116,1154.08 969.168,1174.26 971.221,1165.46 973.274,1171.27 975.327,1149.15 977.38,1091.55 979.433,1079.51 981.486,1194.61 983.539,1162.59 985.592,1146.63 987.644,1154.32 989.697,1178.5 991.75,1177.93 993.803,1163.62 995.856,1168.71 997.909,1156.6 999.962,1125.35 1002.01,1180.07 1004.07,681.589 1006.12,942.896 1008.17,1171.07 1010.23,1165.81 1012.28,1166.64 1014.33,1170.05 1016.38,1158.8 1018.44,1216.37 1020.49,1111.28 1022.54,1197.84 1024.6,1144.23 1026.65,1228.97 1028.7,1207.23 1030.76,1133.11 1032.81,1155.02 1034.86,1208.28 1036.91,1178.67 1038.97,1138.82 1041.02,1131.97 1043.07,1178.25 1045.13,1198.67 1047.18,1141.99 1049.23,1138.64 1051.28,1180.88 1053.34,1178.88 1055.39,1211.9 1057.44,1196.57 1059.5,1218.33 1061.55,1186.8 1063.6,1120.17 1065.65,1109.65 1067.71,1206.93 1069.76,1004.97 1071.81,1303.4 1073.87,1022.93 1075.92,1818.74 1077.97,2604.06 1080.02,953.773 1082.08,1416.3 1084.13,1409.03 1086.18,2408.65 1088.24,1836.9 1090.29,945.644 1092.34,1167.71 1094.39,1176.51 1096.45,1169.93 1098.5,1092.52 1100.55,1255.24 1102.61,1308.78 1104.66,1025.6 1106.71,1127.45 1108.77,1126.89 1110.82,1170.76 1112.87,1164.78 1114.92,1146.94 1116.98,1180.04 1119.03,1087.08 1121.08,1069.69 1123.14,1135.07 1125.19,1135.24 1127.24,1083.55 1129.29,1272.64 1131.35,1329.83 1133.4,1325.65 1135.45,1268.92 1137.51,1159.12 1139.56,1160.77 1141.61,704.043 1143.66,1032.91 1145.72,1294.52 1147.77,1850.31 1149.82,749.129 1151.88,1001.32 1153.93,1314.69 1155.98,1323.34 1158.03,1263.84 1160.09,724.701 1162.14,1602.3 1164.19,-1168.2 1166.25,1303.55 1168.3,1227.8 1170.35,1188.79 1172.4,1150.18 1174.46,1191.12 1176.51,993.977 1178.56,1098.33 1180.62,1172.99 1182.67,1371.6 1184.72,1133.67 1186.77,1139.81 1188.83,1191.92 1190.88,1195.22 1192.93,1194.77 1194.99,1072.71 1197.04,1153.21 1199.09,1181.53 1201.15,1135.39 1203.2,1225.09 1205.25,1258.69 1207.3,1176.58 1209.36,1171.24 1211.41,1179.8 1213.46,1208.83 1215.52,1196.71 1217.57,1194.6 1219.62,1140.4 1221.67,1158.46 1223.73,1167.7 1225.78,1135.75 1227.83,1308.15 1229.89,1096.84 1231.94,952.557 1233.99,1098.77 1236.04,1165.83 1238.1,1130.86 1240.15,1119.98 1242.2,1205.74 1244.26,1224.07 1246.31,1173.51 1248.36,1154.56 1250.41,1201.31 1252.47,1173.09 1254.52,1211.82 1256.57,1110.83 1258.63,1151.08 1260.68,1175.03 1262.73,1168.03 1264.78,1157.95 1266.84,620.013 1268.89,1186.1 1270.94,500.941 1273,723.849 1275.05,-120.362 1277.1,2060.7 1279.16,1918.17 1281.21,536.297 1283.26,1444.57 1285.31,1514.58 1287.37,1623.72 1289.42,1027.26 1291.47,1332.69 1293.53,1053.02 1295.58,1064.28 1297.63,1199.35 1299.68,1276 1301.74,1042.63 1303.79,1094.32 1305.84,1245.21 1307.9,1322.45 1309.95,1174.39 1312,1142.53 1314.05,1171.23 1316.11,1138.98 1318.16,1170.06 1320.21,1177.97 1322.27,1074.48 1324.32,1027.09 1326.37,1220.02 1328.42,1148.48 1330.48,1173.38 1332.53,1171.3 1334.58,1145.49 1336.64,1157.22 1338.69,1147.73 1340.74,1168.13 1342.79,1156.02 1344.85,1173.41 1346.9,1351.07 1348.95,1379.73 1351.01,1190.61 1353.06,1113.34 1355.11,1216 1357.16,1164.55 1359.22,1183.98 1361.27,1217.78 1363.32,1237.41 1365.38,1100.95 1367.43,1152.74 1369.48,1193.03 1371.54,1194.77 1373.59,1223.62 1375.64,1219.04 1377.69,1170.45 1379.75,1268.11 1381.8,1134.46 1383.85,1257.53 1385.91,1094.53 1387.96,1008.14 1390.01,1341.34 1392.06,1266.28 1394.12,1223.93 1396.17,1172.58 1398.22,1106.58 1400.28,1115.01 1402.33,1175.33 1404.38,1157.1 1406.43,1196.35 1408.49,1216.4 1410.54,1131.51 1412.59,1136.64 1414.65,1125.5 1416.7,1125.47 1418.75,1198.94 1420.8,1186.75 1422.86,1144.29 1424.91,1250.05 1426.96,1161.14 1429.02,1162.19 1431.07,1139.13 1433.12,1095.38 1435.17,1158.27 1437.23,1173.18 1439.28,1169.13 1441.33,1155.3 1443.39,1167.04 1445.44,1267.03 1447.49,1163.85 1449.55,1180.44 1451.6,1220.38 1453.65,1162.29 1455.7,1176.19 1457.76,1269.36 1459.81,1006.88 1461.86,923.099 1463.92,1401.03 1465.97,780.457 1468.02,1321.85 1470.07,1137.62 1472.13,1297.64 1474.18,1106.11 1476.23,1159.65 1478.29,1168.01 1480.34,1161.42 1482.39,1151.05 1484.44,1059.58 1486.5,1130.8 1488.55,1109.23 1490.6,1150.02 1492.66,1155.34 1494.71,1159.09 1496.76,1155.95 1498.81,1147.38 1500.87,1070.8 1502.92,1483.5 1504.97,1150.19 1507.03,1088.86 1509.08,1104.78 1511.13,1238.85 1513.18,1128.72 1515.24,1119.75 1517.29,1132.28 1519.34,1148.44 1521.4,1184.35 1523.45,1162.08 1525.5,1161.93 1527.55,1177.85 1529.61,1181.16 1531.66,1206.58 1533.71,1206.46 1535.77,1154.45 1537.82,1200.32 1539.87,1133.34 1541.93,1124.4 1543.98,1235.16 1546.03,1145.05 1548.08,1166.87 1550.14,1181.44 1552.19,1094.53 1554.24,1173.72 1556.3,1167.99 1558.35,1289.51 1560.4,1064.23 1562.45,1274.12 1564.51,1218.64 1566.56,1259.85 1568.61,1172.46 1570.67,1227.26 1572.72,1558.14 1574.77,24.7899 1576.82,-77.5999 1578.88,-878.508 1580.93,1662.05 1582.98,1255.8 1585.04,1309.53 1587.09,922.907 1589.14,958.378 1591.19,473.78 1593.25,983.808 1595.3,1222.43 1597.35,1272.21 1599.41,1286.65 1601.46,1157.17 1603.51,1141.15 1605.56,1169.71 1607.62,1163.52 1609.67,1070.69 1611.72,992.212 1613.78,224.055 1615.83,1297.52 1617.88,1907.92 1619.94,614.385 1621.99,1036.1 1624.04,995.71 1626.09,1924.17 1628.15,1893.29 1630.2,1036.57 1632.25,1120.11 1634.31,1171.24 1636.36,1280.34 1638.41,1243.01 1640.46,1112.54 1642.52,1183.07 1644.57,1579.87 1646.62,1472.8 1648.68,1059.44 1650.73,1227.01 1652.78,1114.56 1654.83,1118.65 1656.89,1171.94 1658.94,1188.42 1660.99,1143 1663.05,1218.31 1665.1,1329.68 1667.15,1144.99 1669.2,1188.95 1671.26,1054.82 1673.31,975.369 1675.36,1279.94 1677.42,1185.2 1679.47,1215.13 1681.52,1185.75 1683.57,1161.45 1685.63,1163.11 1687.68,1151.17 1689.73,970.951 1691.79,1153.17 1693.84,1217.07 1695.89,1176.13 1697.94,1032.65 1700,1089.7 1702.05,1184.98 1704.1,1239.98 1706.16,1181.54 1708.21,1139.99 1710.26,1186.94 1712.32,1168.45 1714.37,1176.28 1716.42,1180.91 1718.47,1165.89 1720.53,1160.42 1722.58,1179.09 1724.63,1201.25 1726.69,1125.86 1728.74,1209.28 1730.79,1201.31 1732.84,1131.42 1734.9,1149.86 1736.95,1236.17 1739,1130.92 1741.06,1102.74 1743.11,1250.53 1745.16,1057.83 1747.21,1215.88 1749.27,1193.35 1751.32,945.117 1753.37,1397.73 1755.43,1435.71 1757.48,1103.62 1759.53,1108.13 1761.58,1171.12 1763.64,1097.41 1765.69,1092.86 1767.74,1042.51 1769.8,977.728 1771.85,1559.56 1773.9,1187.97 1775.95,1173.63 1778.01,1192.89 1780.06,1159.3 1782.11,1150.25 1784.17,1253.9 1786.22,1039.56 1788.27,1167.03 1790.33,1227.02 1792.38,1201.07 1794.43,1076.33 1796.48,1096.65 1798.54,1202.03 1800.59,1277 1802.64,1145.27 1804.7,705.754 1806.75,896.025 1808.8,1094.36 1810.85,1144.91 1812.91,1157.54 1814.96,1158.63 1817.01,1154.24 1819.07,1157.39 1821.12,1219.38 1823.17,1085.58 1825.22,1211.01 1827.28,1119.64 1829.33,1160.27 1831.38,1152.82 1833.44,1184.01 1835.49,1168.1 1837.54,1237.22 1839.59,1196.94 1841.65,1169.71 1843.7,1178.1 1845.75,1147.91 1847.81,1172.24 1849.86,1176.24 1851.91,1163.28 1853.96,1205.68 1856.02,1168.96 1858.07,1171.21 1860.12,1140.25 1862.18,1199.75 1864.23,1203.89 1866.28,1094.37 1868.34,1191.7 1870.39,1463.26 1872.44,542.821 1874.49,1075.39 1876.55,2241.07 1878.6,1393.64 1880.65,1334.54 1882.71,1240.12 1884.76,928.342 1886.81,1572.87 1888.86,893.61 1890.92,936.385 1892.97,1128.69 1895.02,1179.54 1897.08,1307.51 1899.13,1154.51 1901.18,1145.2 1903.23,1156.06 1905.29,1176.91 1907.34,1140.8 1909.39,1184.81 1911.45,1140.76 1913.5,1175.53 1915.55,1167.42 1917.6,1170.05 1919.66,1184.32 1921.71,1169.98 1923.76,1172.16 1925.82,1111.16 1927.87,1226.17 1929.92,1101.8 1931.97,1137.23 1934.03,1183.07 1936.08,1150.94 1938.13,1023.2 1940.19,1048.54 1942.24,1289.49 1944.29,1866.88 1946.34,1373.27 1948.4,1170.46 1950.45,1136.92 1952.5,1159.43 1954.56,1198.66 1956.61,1228.09 1958.66,1176.09 1960.72,1180.61 1962.77,1195.24 1964.82,1185.33 1966.87,1153.88 1968.93,1165.33 1970.98,1146.44 1973.03,1121.19 1975.09,1203.8 1977.14,1187.26 1979.19,1186.07 1981.24,1136.7 1983.3,1202.01 1985.35,1173.12 1987.4,1175.29 1989.46,1138.95 1991.51,1145.76 1993.56,1133.97 1995.61,1187.99 1997.67,1200.65 1999.72,1151.49 2001.77,1192.78 2003.83,1210.44 2005.88,1208.97 2007.93,1208.49 2009.98,1246.82 2012.04,1072.18 2014.09,1232.98 2016.14,1207.73 2018.2,1171.89 2020.25,1174.04 2022.3,1179.18 2024.35,1133.28 2026.41,1209.81 2028.46,1228.39 2030.51,1240.67 2032.57,1155.07 2034.62,1171.81 2036.67,1174.24 2038.73,1086.52 2040.78,1196.7 2042.83,1227.75 2044.88,1148.09 2046.94,1142.51 2048.99,1156.01 2051.04,1173.38 2053.1,1198.76 2055.15,1312.92 2057.2,958.914 2059.25,1320.99 2061.31,1143.53 2063.36,1183.62 2065.41,1193.37 2067.47,1178.48 2069.52,1214.23 2071.57,1150.03 2073.62,1184.66 2075.68,1106.06 2077.73,1198.96 2079.78,1154.28 2081.84,1069.03 2083.89,1241.9 2085.94,1112.73 2087.99,1191.7 2090.05,1132.02 2092.1,1138.34 2094.15,1240.45 2096.21,1187.79 2098.26,1140.88 2100.31,1261.67 2102.36,1111.93 2104.42,1117.61 2106.47,1018.44 2108.52,1134.59 2110.58,186.904 2112.63,3078.77 2114.68,1449.69 2116.73,1249.88 2118.79,1284.22 2120.84,1108.69 2122.89,1203.59 2124.95,1059.47 2127,1248.38 2129.05,1086.75 2131.11,965.509 2133.16,933.2 2135.21,1101.2 2137.26,1160.2 2139.32,1094.72 2141.37,1236.25 2143.42,971.271 2145.48,950.15 2147.53,193.302 2149.58,1259.01 2151.63,1233.11 2153.69,1171.88 2155.74,1239.83 2157.79,1142.33 2159.85,1243.43 2161.9,1161.96 2163.95,1164.72 2166,1205.28 2168.06,1170.86 2170.11,894.912 2172.16,1029.14 2174.22,1239.35 2176.27,1262.21 2178.32,1258.71 2180.37,953.704 2182.43,1142.11 2184.48,1365.69 2186.53,1547.59 2188.59,902.11 2190.64,1977.03 2192.69,1137.05 2194.74,1187.43 2196.8,1138.25 2198.85,1186.61 2200.9,1131.85 2202.96,1136.22 2205.01,1198.17 2207.06,1121.19 2209.12,1300.12 2211.17,1186.28 2213.22,1203.04 2215.27,1167.79 2217.33,2491.13 2219.38,2799.13 2221.43,1855.28 2223.49,1319.27 2225.54,1326.97 2227.59,1376.54 2229.64,1123.25 2231.7,1186.81 2233.75,1196.94 2235.8,1110.43 2237.86,1233.53 2239.91,1121.17 2241.96,1173.34 2244.01,1170.8 2246.07,1147.59 2248.12,1170.53 2250.17,1175.75 2252.23,1173.26 2254.28,1137.31 2256.33,1204.39 2258.38,1178.75 2260.44,1143.62 2262.49,1153.52 2264.54,1224.7 2266.6,1211.27 2268.65,1095.13 2270.7,1084.41 2272.75,1017.77 2274.81,1091.15 2276.86,1073.92 2278.91,1210.45 2280.97,1097.09 2283.02,1198.23 2285.07,1188.38 2287.12,1163.3 2289.18,1217.25 2291.23,1139.29 "/>
<path clip-path="url(#clip700)" d="M251.33 1465.14 L588.926 1465.14 L588.926 1361.46 L251.33 1361.46  Z" fill="#ffffff" fill-rule="evenodd" fill-opacity="1"/>
<polyline clip-path="url(#clip700)" style="stroke:#000000; stroke-linecap:round; stroke-linejoin:round; stroke-width:4; stroke-opacity:1; fill:none" points="251.33,1465.14 588.926,1465.14 588.926,1361.46 251.33,1361.46 251.33,1465.14 "/>
<polyline clip-path="url(#clip700)" style="stroke:#009af9; stroke-linecap:round; stroke-linejoin:round; stroke-width:4; stroke-opacity:1; fill:none" points="275.484,1413.3 420.41,1413.3 "/>
<path clip-path="url(#clip700)" d="M470.12 1425.65 L470.12 1416.37 L462.481 1416.37 L462.481 1412.53 L474.749 1412.53 L474.749 1427.36 Q472.041 1429.28 468.777 1430.28 Q465.513 1431.25 461.809 1431.25 Q453.708 1431.25 449.124 1426.53 Q444.564 1421.78 444.564 1413.34 Q444.564 1404.86 449.124 1400.14 Q453.708 1395.4 461.809 1395.4 Q465.189 1395.4 468.221 1396.23 Q471.277 1397.06 473.846 1398.68 L473.846 1403.66 Q471.254 1401.46 468.337 1400.35 Q465.421 1399.24 462.203 1399.24 Q455.86 1399.24 452.666 1402.78 Q449.495 1406.32 449.495 1413.34 Q449.495 1420.33 452.666 1423.87 Q455.86 1427.41 462.203 1427.41 Q464.68 1427.41 466.624 1426.99 Q468.569 1426.55 470.12 1425.65 Z" fill="#000000" fill-rule="nonzero" fill-opacity="1" /><path clip-path="url(#clip700)" d="M487.967 1399.86 L487.967 1412.85 L493.846 1412.85 Q497.11 1412.85 498.893 1411.16 Q500.675 1409.47 500.675 1406.35 Q500.675 1403.24 498.893 1401.55 Q497.11 1399.86 493.846 1399.86 L487.967 1399.86 M483.291 1396.02 L493.846 1396.02 Q499.657 1396.02 502.619 1398.66 Q505.606 1401.28 505.606 1406.35 Q505.606 1411.46 502.619 1414.08 Q499.657 1416.69 493.846 1416.69 L487.967 1416.69 L487.967 1430.58 L483.291 1430.58 L483.291 1396.02 Z" fill="#000000" fill-rule="nonzero" fill-opacity="1" /><path clip-path="url(#clip700)" d="M532.596 1397.16 L532.596 1401.72 Q529.934 1400.44 527.573 1399.82 Q525.212 1399.19 523.013 1399.19 Q519.193 1399.19 517.11 1400.67 Q515.05 1402.16 515.05 1404.89 Q515.05 1407.18 516.416 1408.36 Q517.805 1409.52 521.647 1410.23 L524.471 1410.81 Q529.703 1411.81 532.179 1414.33 Q534.679 1416.83 534.679 1421.04 Q534.679 1426.07 531.3 1428.66 Q527.943 1431.25 521.439 1431.25 Q518.985 1431.25 516.207 1430.7 Q513.453 1430.14 510.49 1429.05 L510.49 1424.24 Q513.337 1425.84 516.068 1426.65 Q518.8 1427.46 521.439 1427.46 Q525.443 1427.46 527.619 1425.88 Q529.795 1424.31 529.795 1421.39 Q529.795 1418.85 528.221 1417.41 Q526.67 1415.97 523.105 1415.26 L520.258 1414.7 Q515.027 1413.66 512.689 1411.44 Q510.351 1409.22 510.351 1405.26 Q510.351 1400.67 513.568 1398.03 Q516.809 1395.4 522.48 1395.4 Q524.911 1395.4 527.434 1395.84 Q529.957 1396.28 532.596 1397.16 Z" fill="#000000" fill-rule="nonzero" fill-opacity="1" /><path clip-path="url(#clip700)" d="M562.689 1397.16 L562.689 1401.72 Q560.027 1400.44 557.665 1399.82 Q555.304 1399.19 553.105 1399.19 Q549.286 1399.19 547.203 1400.67 Q545.142 1402.16 545.142 1404.89 Q545.142 1407.18 546.508 1408.36 Q547.897 1409.52 551.74 1410.23 L554.564 1410.81 Q559.795 1411.81 562.272 1414.33 Q564.772 1416.83 564.772 1421.04 Q564.772 1426.07 561.392 1428.66 Q558.036 1431.25 551.531 1431.25 Q549.078 1431.25 546.3 1430.7 Q543.545 1430.14 540.582 1429.05 L540.582 1424.24 Q543.429 1425.84 546.161 1426.65 Q548.892 1427.46 551.531 1427.46 Q555.536 1427.46 557.712 1425.88 Q559.888 1424.31 559.888 1421.39 Q559.888 1418.85 558.314 1417.41 Q556.763 1415.97 553.198 1415.26 L550.351 1414.7 Q545.119 1413.66 542.781 1411.44 Q540.443 1409.22 540.443 1405.26 Q540.443 1400.67 543.661 1398.03 Q546.902 1395.4 552.573 1395.4 Q555.003 1395.4 557.527 1395.84 Q560.05 1396.28 562.689 1397.16 Z" fill="#000000" fill-rule="nonzero" fill-opacity="1" /></svg>
