<?xml version="1.0" encoding="utf-8"?>
<svg xmlns="http://www.w3.org/2000/svg" xmlns:xlink="http://www.w3.org/1999/xlink" width="600" height="400" viewBox="0 0 2400 1600">
<defs>
  <clipPath id="clip840">
    <rect x="0" y="0" width="2400" height="1600"/>
  </clipPath>
</defs>
<path clip-path="url(#clip840)" d="M0 1600 L2400 1600 L2400 0 L0 0  Z" fill="#ffffff" fill-rule="evenodd" fill-opacity="1"/>
<defs>
  <clipPath id="clip841">
    <rect x="480" y="0" width="1681" height="1600"/>
  </clipPath>
</defs>
<path clip-path="url(#clip840)" d="M178.867 686.448 L2352.76 686.448 L2352.76 47.2441 L178.867 47.2441  Z" fill="#ffffff" fill-rule="evenodd" fill-opacity="1"/>
<defs>
  <clipPath id="clip842">
    <rect x="178" y="47" width="2175" height="640"/>
  </clipPath>
</defs>
<polyline clip-path="url(#clip842)" style="stroke:#000000; stroke-linecap:round; stroke-linejoin:round; stroke-width:2; stroke-opacity:0.1; fill:none" points="238.339,686.448 238.339,47.2441 "/>
<polyline clip-path="url(#clip842)" style="stroke:#000000; stroke-linecap:round; stroke-linejoin:round; stroke-width:2; stroke-opacity:0.1; fill:none" points="751.562,686.448 751.562,47.2441 "/>
<polyline clip-path="url(#clip842)" style="stroke:#000000; stroke-linecap:round; stroke-linejoin:round; stroke-width:2; stroke-opacity:0.1; fill:none" points="1264.78,686.448 1264.78,47.2441 "/>
<polyline clip-path="url(#clip842)" style="stroke:#000000; stroke-linecap:round; stroke-linejoin:round; stroke-width:2; stroke-opacity:0.1; fill:none" points="1778.01,686.448 1778.01,47.2441 "/>
<polyline clip-path="url(#clip842)" style="stroke:#000000; stroke-linecap:round; stroke-linejoin:round; stroke-width:2; stroke-opacity:0.1; fill:none" points="2291.23,686.448 2291.23,47.2441 "/>
<polyline clip-path="url(#clip842)" style="stroke:#000000; stroke-linecap:round; stroke-linejoin:round; stroke-width:2; stroke-opacity:0.1; fill:none" points="178.867,686.448 2352.76,686.448 "/>
<polyline clip-path="url(#clip842)" style="stroke:#000000; stroke-linecap:round; stroke-linejoin:round; stroke-width:2; stroke-opacity:0.1; fill:none" points="178.867,526.647 2352.76,526.647 "/>
<polyline clip-path="url(#clip842)" style="stroke:#000000; stroke-linecap:round; stroke-linejoin:round; stroke-width:2; stroke-opacity:0.1; fill:none" points="178.867,366.846 2352.76,366.846 "/>
<polyline clip-path="url(#clip842)" style="stroke:#000000; stroke-linecap:round; stroke-linejoin:round; stroke-width:2; stroke-opacity:0.1; fill:none" points="178.867,207.045 2352.76,207.045 "/>
<polyline clip-path="url(#clip842)" style="stroke:#000000; stroke-linecap:round; stroke-linejoin:round; stroke-width:2; stroke-opacity:0.1; fill:none" points="178.867,47.2441 2352.76,47.2441 "/>
<polyline clip-path="url(#clip840)" style="stroke:#000000; stroke-linecap:round; stroke-linejoin:round; stroke-width:4; stroke-opacity:1; fill:none" points="178.867,686.448 2352.76,686.448 "/>
<polyline clip-path="url(#clip840)" style="stroke:#000000; stroke-linecap:round; stroke-linejoin:round; stroke-width:4; stroke-opacity:1; fill:none" points="238.339,686.448 238.339,667.55 "/>
<polyline clip-path="url(#clip840)" style="stroke:#000000; stroke-linecap:round; stroke-linejoin:round; stroke-width:4; stroke-opacity:1; fill:none" points="751.562,686.448 751.562,667.55 "/>
<polyline clip-path="url(#clip840)" style="stroke:#000000; stroke-linecap:round; stroke-linejoin:round; stroke-width:4; stroke-opacity:1; fill:none" points="1264.78,686.448 1264.78,667.55 "/>
<polyline clip-path="url(#clip840)" style="stroke:#000000; stroke-linecap:round; stroke-linejoin:round; stroke-width:4; stroke-opacity:1; fill:none" points="1778.01,686.448 1778.01,667.55 "/>
<polyline clip-path="url(#clip840)" style="stroke:#000000; stroke-linecap:round; stroke-linejoin:round; stroke-width:4; stroke-opacity:1; fill:none" points="2291.23,686.448 2291.23,667.55 "/>
<path clip-path="url(#clip840)" d="M238.339 717.367 Q234.728 717.367 232.899 720.931 Q231.094 724.473 231.094 731.603 Q231.094 738.709 232.899 742.274 Q234.728 745.815 238.339 745.815 Q241.973 745.815 243.779 742.274 Q245.607 738.709 245.607 731.603 Q245.607 724.473 243.779 720.931 Q241.973 717.367 238.339 717.367 M238.339 713.663 Q244.149 713.663 247.205 718.269 Q250.283 722.853 250.283 731.603 Q250.283 740.329 247.205 744.936 Q244.149 749.519 238.339 749.519 Q232.529 749.519 229.45 744.936 Q226.395 740.329 226.395 731.603 Q226.395 722.853 229.45 718.269 Q232.529 713.663 238.339 713.663 Z" fill="#000000" fill-rule="nonzero" fill-opacity="1" /><path clip-path="url(#clip840)" d="M715.254 744.913 L731.574 744.913 L731.574 748.848 L709.629 748.848 L709.629 744.913 Q712.291 742.158 716.875 737.528 Q721.481 732.876 722.662 731.533 Q724.907 729.01 725.787 727.274 Q726.689 725.515 726.689 723.825 Q726.689 721.07 724.745 719.334 Q722.824 717.598 719.722 717.598 Q717.523 717.598 715.069 718.362 Q712.638 719.126 709.861 720.677 L709.861 715.955 Q712.685 714.82 715.138 714.242 Q717.592 713.663 719.629 713.663 Q725 713.663 728.194 716.348 Q731.388 719.033 731.388 723.524 Q731.388 725.654 730.578 727.575 Q729.791 729.473 727.685 732.066 Q727.106 732.737 724.004 735.954 Q720.902 739.149 715.254 744.913 Z" fill="#000000" fill-rule="nonzero" fill-opacity="1" /><path clip-path="url(#clip840)" d="M741.435 714.288 L759.791 714.288 L759.791 718.223 L745.717 718.223 L745.717 726.695 Q746.736 726.348 747.754 726.186 Q748.773 726.001 749.791 726.001 Q755.578 726.001 758.958 729.172 Q762.337 732.343 762.337 737.76 Q762.337 743.339 758.865 746.44 Q755.393 749.519 749.073 749.519 Q746.898 749.519 744.629 749.149 Q742.384 748.778 739.976 748.038 L739.976 743.339 Q742.06 744.473 744.282 745.028 Q746.504 745.584 748.981 745.584 Q752.985 745.584 755.323 743.478 Q757.661 741.371 757.661 737.76 Q757.661 734.149 755.323 732.042 Q752.985 729.936 748.981 729.936 Q747.106 729.936 745.231 730.353 Q743.379 730.769 741.435 731.649 L741.435 714.288 Z" fill="#000000" fill-rule="nonzero" fill-opacity="1" /><path clip-path="url(#clip840)" d="M781.55 717.367 Q777.939 717.367 776.11 720.931 Q774.305 724.473 774.305 731.603 Q774.305 738.709 776.11 742.274 Q777.939 745.815 781.55 745.815 Q785.184 745.815 786.99 742.274 Q788.819 738.709 788.819 731.603 Q788.819 724.473 786.99 720.931 Q785.184 717.367 781.55 717.367 M781.55 713.663 Q787.36 713.663 790.416 718.269 Q793.495 722.853 793.495 731.603 Q793.495 740.329 790.416 744.936 Q787.36 749.519 781.55 749.519 Q775.74 749.519 772.661 744.936 Q769.606 740.329 769.606 731.603 Q769.606 722.853 772.661 718.269 Q775.74 713.663 781.55 713.663 Z" fill="#000000" fill-rule="nonzero" fill-opacity="1" /><path clip-path="url(#clip840)" d="M1224.4 714.288 L1242.76 714.288 L1242.76 718.223 L1228.69 718.223 L1228.69 726.695 Q1229.7 726.348 1230.72 726.186 Q1231.74 726.001 1232.76 726.001 Q1238.55 726.001 1241.93 729.172 Q1245.31 732.343 1245.31 737.76 Q1245.31 743.339 1241.83 746.44 Q1238.36 749.519 1232.04 749.519 Q1229.87 749.519 1227.6 749.149 Q1225.35 748.778 1222.94 748.038 L1222.94 743.339 Q1225.03 744.473 1227.25 745.028 Q1229.47 745.584 1231.95 745.584 Q1235.95 745.584 1238.29 743.478 Q1240.63 741.371 1240.63 737.76 Q1240.63 734.149 1238.29 732.042 Q1235.95 729.936 1231.95 729.936 Q1230.07 729.936 1228.2 730.353 Q1226.35 730.769 1224.4 731.649 L1224.4 714.288 Z" fill="#000000" fill-rule="nonzero" fill-opacity="1" /><path clip-path="url(#clip840)" d="M1264.52 717.367 Q1260.91 717.367 1259.08 720.931 Q1257.27 724.473 1257.27 731.603 Q1257.27 738.709 1259.08 742.274 Q1260.91 745.815 1264.52 745.815 Q1268.15 745.815 1269.96 742.274 Q1271.79 738.709 1271.79 731.603 Q1271.79 724.473 1269.96 720.931 Q1268.15 717.367 1264.52 717.367 M1264.52 713.663 Q1270.33 713.663 1273.38 718.269 Q1276.46 722.853 1276.46 731.603 Q1276.46 740.329 1273.38 744.936 Q1270.33 749.519 1264.52 749.519 Q1258.71 749.519 1255.63 744.936 Q1252.57 740.329 1252.57 731.603 Q1252.57 722.853 1255.63 718.269 Q1258.71 713.663 1264.52 713.663 Z" fill="#000000" fill-rule="nonzero" fill-opacity="1" /><path clip-path="url(#clip840)" d="M1294.68 717.367 Q1291.07 717.367 1289.24 720.931 Q1287.44 724.473 1287.44 731.603 Q1287.44 738.709 1289.24 742.274 Q1291.07 745.815 1294.68 745.815 Q1298.31 745.815 1300.12 742.274 Q1301.95 738.709 1301.95 731.603 Q1301.95 724.473 1300.12 720.931 Q1298.31 717.367 1294.68 717.367 M1294.68 713.663 Q1300.49 713.663 1303.55 718.269 Q1306.62 722.853 1306.62 731.603 Q1306.62 740.329 1303.55 744.936 Q1300.49 749.519 1294.68 749.519 Q1288.87 749.519 1285.79 744.936 Q1282.74 740.329 1282.74 731.603 Q1282.74 722.853 1285.79 718.269 Q1288.87 713.663 1294.68 713.663 Z" fill="#000000" fill-rule="nonzero" fill-opacity="1" /><path clip-path="url(#clip840)" d="M1736.28 714.288 L1758.51 714.288 L1758.51 716.279 L1745.96 748.848 L1741.08 748.848 L1752.88 718.223 L1736.28 718.223 L1736.28 714.288 Z" fill="#000000" fill-rule="nonzero" fill-opacity="1" /><path clip-path="url(#clip840)" d="M1767.67 714.288 L1786.03 714.288 L1786.03 718.223 L1771.95 718.223 L1771.95 726.695 Q1772.97 726.348 1773.99 726.186 Q1775.01 726.001 1776.03 726.001 Q1781.82 726.001 1785.2 729.172 Q1788.57 732.343 1788.57 737.76 Q1788.57 743.339 1785.1 746.44 Q1781.63 749.519 1775.31 749.519 Q1773.14 749.519 1770.87 749.149 Q1768.62 748.778 1766.21 748.038 L1766.21 743.339 Q1768.3 744.473 1770.52 745.028 Q1772.74 745.584 1775.22 745.584 Q1779.22 745.584 1781.56 743.478 Q1783.9 741.371 1783.9 737.76 Q1783.9 734.149 1781.56 732.042 Q1779.22 729.936 1775.22 729.936 Q1773.34 729.936 1771.47 730.353 Q1769.62 730.769 1767.67 731.649 L1767.67 714.288 Z" fill="#000000" fill-rule="nonzero" fill-opacity="1" /><path clip-path="url(#clip840)" d="M1807.79 717.367 Q1804.18 717.367 1802.35 720.931 Q1800.54 724.473 1800.54 731.603 Q1800.54 738.709 1802.35 742.274 Q1804.18 745.815 1807.79 745.815 Q1811.42 745.815 1813.23 742.274 Q1815.06 738.709 1815.06 731.603 Q1815.06 724.473 1813.23 720.931 Q1811.42 717.367 1807.79 717.367 M1807.79 713.663 Q1813.6 713.663 1816.65 718.269 Q1819.73 722.853 1819.73 731.603 Q1819.73 740.329 1816.65 744.936 Q1813.6 749.519 1807.79 749.519 Q1801.98 749.519 1798.9 744.936 Q1795.84 740.329 1795.84 731.603 Q1795.84 722.853 1798.9 718.269 Q1801.98 713.663 1807.79 713.663 Z" fill="#000000" fill-rule="nonzero" fill-opacity="1" /><path clip-path="url(#clip840)" d="M2235.76 744.913 L2243.4 744.913 L2243.4 718.547 L2235.09 720.214 L2235.09 715.955 L2243.35 714.288 L2248.02 714.288 L2248.02 744.913 L2255.66 744.913 L2255.66 748.848 L2235.76 748.848 L2235.76 744.913 Z" fill="#000000" fill-rule="nonzero" fill-opacity="1" /><path clip-path="url(#clip840)" d="M2275.11 717.367 Q2271.5 717.367 2269.67 720.931 Q2267.86 724.473 2267.86 731.603 Q2267.86 738.709 2269.67 742.274 Q2271.5 745.815 2275.11 745.815 Q2278.74 745.815 2280.55 742.274 Q2282.38 738.709 2282.38 731.603 Q2282.38 724.473 2280.55 720.931 Q2278.74 717.367 2275.11 717.367 M2275.11 713.663 Q2280.92 713.663 2283.97 718.269 Q2287.05 722.853 2287.05 731.603 Q2287.05 740.329 2283.97 744.936 Q2280.92 749.519 2275.11 749.519 Q2269.3 749.519 2266.22 744.936 Q2263.16 740.329 2263.16 731.603 Q2263.16 722.853 2266.22 718.269 Q2269.3 713.663 2275.11 713.663 Z" fill="#000000" fill-rule="nonzero" fill-opacity="1" /><path clip-path="url(#clip840)" d="M2305.27 717.367 Q2301.66 717.367 2299.83 720.931 Q2298.02 724.473 2298.02 731.603 Q2298.02 738.709 2299.83 742.274 Q2301.66 745.815 2305.27 745.815 Q2308.9 745.815 2310.71 742.274 Q2312.54 738.709 2312.54 731.603 Q2312.54 724.473 2310.71 720.931 Q2308.9 717.367 2305.27 717.367 M2305.27 713.663 Q2311.08 713.663 2314.14 718.269 Q2317.21 722.853 2317.21 731.603 Q2317.21 740.329 2314.14 744.936 Q2311.08 749.519 2305.27 749.519 Q2299.46 749.519 2296.38 744.936 Q2293.33 740.329 2293.33 731.603 Q2293.33 722.853 2296.38 718.269 Q2299.46 713.663 2305.27 713.663 Z" fill="#000000" fill-rule="nonzero" fill-opacity="1" /><path clip-path="url(#clip840)" d="M2335.43 717.367 Q2331.82 717.367 2329.99 720.931 Q2328.19 724.473 2328.19 731.603 Q2328.19 738.709 2329.99 742.274 Q2331.82 745.815 2335.43 745.815 Q2339.07 745.815 2340.87 742.274 Q2342.7 738.709 2342.7 731.603 Q2342.7 724.473 2340.87 720.931 Q2339.07 717.367 2335.43 717.367 M2335.43 713.663 Q2341.24 713.663 2344.3 718.269 Q2347.38 722.853 2347.38 731.603 Q2347.38 740.329 2344.3 744.936 Q2341.24 749.519 2335.43 749.519 Q2329.62 749.519 2326.54 744.936 Q2323.49 740.329 2323.49 731.603 Q2323.49 722.853 2326.54 718.269 Q2329.62 713.663 2335.43 713.663 Z" fill="#000000" fill-rule="nonzero" fill-opacity="1" /><polyline clip-path="url(#clip840)" style="stroke:#000000; stroke-linecap:round; stroke-linejoin:round; stroke-width:4; stroke-opacity:1; fill:none" points="178.867,686.448 178.867,47.2441 "/>
<polyline clip-path="url(#clip840)" style="stroke:#000000; stroke-linecap:round; stroke-linejoin:round; stroke-width:4; stroke-opacity:1; fill:none" points="178.867,686.448 197.764,686.448 "/>
<polyline clip-path="url(#clip840)" style="stroke:#000000; stroke-linecap:round; stroke-linejoin:round; stroke-width:4; stroke-opacity:1; fill:none" points="178.867,526.647 197.764,526.647 "/>
<polyline clip-path="url(#clip840)" style="stroke:#000000; stroke-linecap:round; stroke-linejoin:round; stroke-width:4; stroke-opacity:1; fill:none" points="178.867,366.846 197.764,366.846 "/>
<polyline clip-path="url(#clip840)" style="stroke:#000000; stroke-linecap:round; stroke-linejoin:round; stroke-width:4; stroke-opacity:1; fill:none" points="178.867,207.045 197.764,207.045 "/>
<polyline clip-path="url(#clip840)" style="stroke:#000000; stroke-linecap:round; stroke-linejoin:round; stroke-width:4; stroke-opacity:1; fill:none" points="178.867,47.2441 197.764,47.2441 "/>
<path clip-path="url(#clip840)" d="M50.9921 686.899 L80.6679 686.899 L80.6679 690.834 L50.9921 690.834 L50.9921 686.899 Z" fill="#000000" fill-rule="nonzero" fill-opacity="1" /><path clip-path="url(#clip840)" d="M91.5706 699.793 L99.2095 699.793 L99.2095 673.427 L90.8993 675.094 L90.8993 670.835 L99.1632 669.168 L103.839 669.168 L103.839 699.793 L111.478 699.793 L111.478 703.728 L91.5706 703.728 L91.5706 699.793 Z" fill="#000000" fill-rule="nonzero" fill-opacity="1" /><path clip-path="url(#clip840)" d="M130.922 672.247 Q127.311 672.247 125.482 675.811 Q123.677 679.353 123.677 686.483 Q123.677 693.589 125.482 697.154 Q127.311 700.695 130.922 700.695 Q134.556 700.695 136.362 697.154 Q138.191 693.589 138.191 686.483 Q138.191 679.353 136.362 675.811 Q134.556 672.247 130.922 672.247 M130.922 668.543 Q136.732 668.543 139.788 673.149 Q142.867 677.733 142.867 686.483 Q142.867 695.209 139.788 699.816 Q136.732 704.399 130.922 704.399 Q125.112 704.399 122.033 699.816 Q118.978 695.209 118.978 686.483 Q118.978 677.733 122.033 673.149 Q125.112 668.543 130.922 668.543 Z" fill="#000000" fill-rule="nonzero" fill-opacity="1" /><path clip-path="url(#clip840)" d="M82.1494 527.098 L111.825 527.098 L111.825 531.033 L82.1494 531.033 L82.1494 527.098 Z" fill="#000000" fill-rule="nonzero" fill-opacity="1" /><path clip-path="url(#clip840)" d="M121.964 509.367 L140.32 509.367 L140.32 513.302 L126.246 513.302 L126.246 521.774 Q127.265 521.427 128.283 521.265 Q129.302 521.08 130.32 521.08 Q136.107 521.08 139.487 524.251 Q142.867 527.422 142.867 532.839 Q142.867 538.418 139.394 541.52 Q135.922 544.598 129.603 544.598 Q127.427 544.598 125.158 544.228 Q122.913 543.857 120.506 543.117 L120.506 538.418 Q122.589 539.552 124.811 540.108 Q127.033 540.663 129.51 540.663 Q133.515 540.663 135.853 538.557 Q138.191 536.45 138.191 532.839 Q138.191 529.228 135.853 527.121 Q133.515 525.015 129.51 525.015 Q127.635 525.015 125.76 525.432 Q123.908 525.848 121.964 526.728 L121.964 509.367 Z" fill="#000000" fill-rule="nonzero" fill-opacity="1" /><path clip-path="url(#clip840)" d="M130.922 352.645 Q127.311 352.645 125.482 356.209 Q123.677 359.751 123.677 366.881 Q123.677 373.987 125.482 377.552 Q127.311 381.094 130.922 381.094 Q134.556 381.094 136.362 377.552 Q138.191 373.987 138.191 366.881 Q138.191 359.751 136.362 356.209 Q134.556 352.645 130.922 352.645 M130.922 348.941 Q136.732 348.941 139.788 353.547 Q142.867 358.131 142.867 366.881 Q142.867 375.608 139.788 380.214 Q136.732 384.797 130.922 384.797 Q125.112 384.797 122.033 380.214 Q118.978 375.608 118.978 366.881 Q118.978 358.131 122.033 353.547 Q125.112 348.941 130.922 348.941 Z" fill="#000000" fill-rule="nonzero" fill-opacity="1" /><path clip-path="url(#clip840)" d="M121.964 189.765 L140.32 189.765 L140.32 193.7 L126.246 193.7 L126.246 202.172 Q127.265 201.825 128.283 201.663 Q129.302 201.478 130.32 201.478 Q136.107 201.478 139.487 204.649 Q142.867 207.82 142.867 213.237 Q142.867 218.816 139.394 221.918 Q135.922 224.996 129.603 224.996 Q127.427 224.996 125.158 224.626 Q122.913 224.256 120.506 223.515 L120.506 218.816 Q122.589 219.95 124.811 220.506 Q127.033 221.061 129.51 221.061 Q133.515 221.061 135.853 218.955 Q138.191 216.848 138.191 213.237 Q138.191 209.626 135.853 207.52 Q133.515 205.413 129.51 205.413 Q127.635 205.413 125.76 205.83 Q123.908 206.246 121.964 207.126 L121.964 189.765 Z" fill="#000000" fill-rule="nonzero" fill-opacity="1" /><path clip-path="url(#clip840)" d="M91.5706 60.5889 L99.2095 60.5889 L99.2095 34.2233 L90.8993 35.89 L90.8993 31.6308 L99.1632 29.9641 L103.839 29.9641 L103.839 60.5889 L111.478 60.5889 L111.478 64.5241 L91.5706 64.5241 L91.5706 60.5889 Z" fill="#000000" fill-rule="nonzero" fill-opacity="1" /><path clip-path="url(#clip840)" d="M130.922 33.0428 Q127.311 33.0428 125.482 36.6076 Q123.677 40.1492 123.677 47.2788 Q123.677 54.3853 125.482 57.9501 Q127.311 61.4917 130.922 61.4917 Q134.556 61.4917 136.362 57.9501 Q138.191 54.3853 138.191 47.2788 Q138.191 40.1492 136.362 36.6076 Q134.556 33.0428 130.922 33.0428 M130.922 29.3391 Q136.732 29.3391 139.788 33.9456 Q142.867 38.5289 142.867 47.2788 Q142.867 56.0056 139.788 60.6121 Q136.732 65.1954 130.922 65.1954 Q125.112 65.1954 122.033 60.6121 Q118.978 56.0056 118.978 47.2788 Q118.978 38.5289 122.033 33.9456 Q125.112 29.3391 130.922 29.3391 Z" fill="#000000" fill-rule="nonzero" fill-opacity="1" /><polyline clip-path="url(#clip842)" style="stroke:#009af9; stroke-linecap:round; stroke-linejoin:round; stroke-width:4; stroke-opacity:1; fill:none" points="240.392,334.886 242.445,334.449 244.498,357.338 246.55,360.252 248.603,358.269 250.656,353.637 252.709,347.594 254.762,357.46 256.815,354.659 258.868,366.765 260.921,359.696 262.974,341.503 265.027,351.416 267.079,343.569 269.132,343.273 271.185,391.431 273.238,403.964 275.291,361.331 277.344,360.985 279.397,392.95 281.45,392.901 283.503,396.889 285.555,401.709 287.608,402.106 289.661,401.864 291.714,401.859 293.767,392.808 295.82,392.692 297.873,392.836 299.926,388.522 301.979,388.533 304.031,388.546 306.084,387.974 308.137,383.459 310.19,383.992 312.243,386.513 314.296,395.289 316.349,388.182 318.402,371.202 320.455,375.987 322.507,373.334 324.56,332.071 326.613,319.694 328.666,360.455 330.719,355.17 332.772,365.726 334.825,363.809 336.878,362.291 338.931,356.012 340.984,373.767 343.036,373.136 345.089,365.568 347.142,365.822 349.195,365.586 351.248,360.636 353.301,362.565 355.354,362.806 357.407,362.976 359.46,361.197 361.512,357.451 363.565,368.148 365.618,368.675 367.671,366.963 369.724,363.16 371.777,362.816 373.83,362.817 375.883,362.663 377.936,362.607 379.988,372.198 382.041,372.464 384.094,360.018 386.147,364.917 388.2,365.267 390.253,365.849 392.306,366.593 394.359,371.292 396.412,371.579 398.464,356.054 400.517,359.692 402.57,367.396 404.623,376.194 406.676,376.73 408.729,372.267 410.782,372.552 412.835,371.634 414.888,371.274 416.94,364.898 418.993,383.188 421.046,383.26 423.099,383.56 425.152,382.904 427.205,382.948 429.258,385.52 431.311,393.039 433.364,392.531 435.417,392.031 437.469,388.531 439.522,391.614 441.575,382.375 443.628,365.51 445.681,348.393 447.734,346.943 449.787,340.702 451.84,344.145 453.893,345.742 455.945,348.105 457.998,343.914 460.051,408.288 462.104,406.861 464.157,344.532 466.21,342.107 468.263,341.884 470.316,341.8 472.369,354.093 474.421,374.605 476.474,343.78 478.527,314.802 480.58,314.803 482.633,322.552 484.686,332.71 486.739,326.121 488.792,317.85 490.845,310.973 492.897,317.894 494.95,328.039 497.003,328.153 499.056,336.778 501.109,320.611 503.162,324.887 505.215,313.726 507.268,313.685 509.321,400.219 511.374,389.02 513.426,436.136 515.479,435.534 517.532,418.101 519.585,334.496 521.638,327.804 523.691,327.948 525.744,328.254 527.797,330.994 529.85,322.733 531.902,324.03 533.955,304.549 536.008,312.994 538.061,347.801 540.114,349.464 542.167,350.055 544.22,344.151 546.273,330.751 548.326,306.103 550.378,349.038 552.431,344.635 554.484,342.864 556.537,323.021 558.59,322.798 560.643,347.796 562.696,347.916 564.749,348.018 566.802,359.397 568.854,349.421 570.907,349.232 572.96,346.499 575.013,326.315 577.066,326.154 579.119,325.711 581.172,347.928 583.225,346.247 585.278,347.347 587.331,347.17 589.383,347.335 591.436,348.428 593.489,343.404 595.542,343.363 597.595,342.786 599.648,341.311 601.701,332.364 603.754,339.807 605.807,326.22 607.859,333.432 609.912,333.891 611.965,375.947 614.018,375.746 616.071,375.129 618.124,375.792 620.177,373.647 622.23,373.514 624.283,372.43 626.335,338.088 628.388,314.886 630.441,361.954 632.494,384.218 634.547,377.34 636.6,416.192 638.653,440.082 640.706,437.675 642.759,437.442 644.811,436.741 646.864,463.281 648.917,269.966 650.97,269.217 653.023,268.789 655.076,272.464 657.129,340.898 659.182,341.209 661.235,336.601 663.288,287.321 665.34,281.729 667.393,307.977 669.446,257.698 671.499,254.86 673.552,261.566 675.605,294.59 677.658,295.528 679.711,416.859 681.764,407.269 683.816,461.168 685.869,441.972 687.922,441.854 689.975,491.028 692.028,491.794 694.081,536.667 696.134,517.974 698.187,447.953 700.24,489.59 702.292,440.601 704.345,423.553 706.398,352.248 708.451,285.483 710.504,298.071 712.557,322.677 714.61,253.968 716.663,341.263 718.716,388.447 720.768,385.858 722.821,396.82 724.874,359.522 726.927,351.844 728.98,396.674 731.033,344.262 733.086,344.889 735.139,365.812 737.192,365.754 739.245,381.713 741.297,410.61 743.35,416.065 745.403,324.868 747.456,346.221 749.509,347.019 751.562,347.358 753.615,399.883 755.668,397.75 757.721,388.972 759.773,389.061 761.826,367.649 763.879,366.024 765.932,367.815 767.985,371.47 770.038,343.936 772.091,355.018 774.144,356.072 776.197,282.133 778.249,316.141 780.302,317.228 782.355,302.543 784.408,305.071 786.461,314.745 788.514,314.712 790.567,315.851 792.62,315.086 794.673,314.303 796.725,321.989 798.778,322.414 800.831,355.083 802.884,355.097 804.937,350.929 806.99,352.095 809.043,350.783 811.096,350.847 813.149,349.884 815.202,358.537 817.254,366.941 819.307,364.387 821.36,363.955 823.413,365.059 825.466,365.765 827.519,369.931 829.572,369.53 831.625,369.589 833.678,365.384 835.73,360.964 837.783,357.207 839.836,357.473 841.889,355.611 843.942,355.284 845.995,355.255 848.048,352.48 850.101,352.516 852.154,354.97 854.206,355.775 856.259,369.875 858.312,365.417 860.365,365.397 862.418,365.899 864.471,365.9 866.524,363.92 868.577,367.249 870.63,367.52 872.682,367.117 874.735,367.494 876.788,353.298 878.841,353.216 880.894,298.008 882.947,284.602 885,335.873 887.053,339.456 889.106,338.702 891.159,363.159 893.211,401.494 895.264,335.791 897.317,341.6 899.37,359.635 901.423,358.86 903.476,359.423 905.529,305.283 907.582,390.293 909.635,324.37 911.687,328.508 913.74,328.43 915.793,335.083 917.846,334.011 919.899,334.043 921.952,335.766 924.005,335.119 926.058,335.139 928.111,334.949 930.163,330.605 932.216,329.255 934.269,351.505 936.322,363.105 938.375,379.482 940.428,380.375 942.481,427.429 944.534,423.63 946.587,431.89 948.639,430.609 950.692,403.55 952.745,388.91 954.798,388.89 956.851,391.249 958.904,391.657 960.957,395.006 963.01,395.063 965.063,399.237 967.116,399.452 969.168,402.696 971.221,400.9 973.274,379.036 975.327,378.836 977.38,377.724 979.433,386.487 981.486,400.946 983.539,400.946 985.592,396.491 987.644,390.979 989.697,372.577 991.75,372.526 993.803,373.47 995.856,376.279 997.909,376.187 999.962,365.117 1002.01,378.408 1004.07,379.336 1006.12,381.203 1008.17,368.821 1010.23,368.503 1012.28,372.533 1014.33,366.974 1016.38,367.034 1018.44,367.03 1020.49,368.628 1022.54,368.506 1024.6,366.076 1026.65,366.068 1028.7,366.792 1030.76,366.837 1032.81,360.933 1034.86,360.615 1036.91,340.418 1038.97,340.934 1041.02,340.992 1043.07,345.137 1045.13,345.111 1047.18,345.103 1049.23,345.161 1051.28,346.064 1053.34,349.335 1055.39,349.312 1057.44,346.067 1059.5,346.13 1061.55,346.042 1063.6,344.489 1065.65,370.365 1067.71,370.643 1069.76,371.092 1071.81,334.072 1073.87,368.166 1075.92,370.571 1077.97,369.447 1080.02,400.575 1082.08,392.093 1084.13,392.425 1086.18,387.719 1088.24,433.093 1090.29,435.46 1092.34,432.698 1094.39,391.484 1096.45,347.134 1098.5,350.23 1100.55,350.602 1102.61,352.713 1104.66,345.534 1106.71,349.189 1108.77,346.146 1110.82,345.625 1112.87,409.677 1114.92,422.457 1116.98,426.252 1119.03,421.019 1121.08,416.881 1123.14,417.528 1125.19,431.434 1127.24,435.276 1129.29,439.077 1131.35,383.508 1133.4,386.105 1135.45,386.104 1137.51,385.113 1139.56,403.989 1141.61,396.85 1143.66,396.905 1145.72,369.532 1147.77,363.707 1149.82,373.348 1151.88,365.23 1153.93,362.923 1155.98,360.749 1158.03,361.965 1160.09,361.611 1162.14,381.715 1164.19,381.696 1166.25,382.716 1168.3,382.873 1170.35,381.014 1172.4,389.912 1174.46,389.713 1176.51,355.907 1178.56,363.037 1180.62,352.567 1182.67,371.169 1184.72,376.986 1186.77,377.46 1188.83,380.318 1190.88,380.449 1192.93,398.742 1194.99,394.028 1197.04,391.621 1199.09,390.12 1201.15,383.657 1203.2,382.236 1205.25,366.822 1207.3,367.405 1209.36,369.548 1211.41,356.751 1213.46,358.155 1215.52,379.595 1217.57,380.051 1219.62,377.378 1221.67,366.461 1223.73,360.467 1225.78,360.551 1227.83,360.579 1229.89,364.705 1231.94,365.104 1233.99,367.905 1236.04,367.907 1238.1,363.411 1240.15,360.306 1242.2,361.319 1244.26,393.336 1246.31,389.583 1248.36,403.384 1250.41,385.763 1252.47,386.157 1254.52,371.395 1256.57,371.047 1258.63,369.834 1260.68,382.113 1262.73,385.004 1264.78,384.941 1266.84,386.885 1268.89,387.03 1270.94,388.158 1273,388.208 1275.05,393.89 1277.1,393.724 1279.16,393.811 1281.21,390.096 1283.26,391.493 1285.31,381.16 1287.37,380.964 1289.42,373.293 1291.47,372.729 1293.53,373.188 1295.58,373.158 1297.63,373.499 1299.68,373.355 1301.74,373.354 1303.79,370.991 1305.84,371.321 1307.9,371.399 1309.95,371.458 1312,369.347 1314.05,359.118 1316.11,340.616 1318.16,340.972 1320.21,341.029 1322.27,341.42 1324.32,338.658 1326.37,339.658 1328.42,339.65 1330.48,338.485 1332.53,338.386 1334.58,327.864 1336.64,329.547 1338.69,327.84 1340.74,328.598 1342.79,333.182 1344.85,360.942 1346.9,360.973 1348.95,361.335 1351.01,361.544 1353.06,364.318 1355.11,381.204 1357.16,381.571 1359.22,381.322 1361.27,395.748 1363.32,395.745 1365.38,395.744 1367.43,398.458 1369.48,399.213 1371.54,398.867 1373.59,361.969 1375.64,361.527 1377.69,365.626 1379.75,379.244 1381.8,382.822 1383.85,383.844 1385.91,386.194 1387.96,369.953 1390.01,369.335 1392.06,368.738 1394.12,360.879 1396.17,360.766 1398.22,359.619 1400.28,359.729 1402.33,361.39 1404.38,366.737 1406.43,365.482 1408.49,365.531 1410.54,365.249 1412.59,355.208 1414.65,353.812 1416.7,326.753 1418.75,333.155 1420.8,320.817 1422.86,328.948 1424.91,329.068 1426.96,336.696 1429.02,337.744 1431.07,341.178 1433.12,338.762 1435.17,341.415 1437.23,365.684 1439.28,364.028 1441.33,396.277 1443.39,396.276 1445.44,392.121 1447.49,393.522 1449.55,395.442 1451.6,392.925 1453.65,393.941 1455.7,393.9 1457.76,393.729 1459.81,388.316 1461.86,390.002 1463.92,385.109 1465.97,384.955 1468.02,380.819 1470.07,381.357 1472.13,384.302 1474.18,383.705 1476.23,389.374 1478.29,389.503 1480.34,389.214 1482.39,389.189 1484.44,389.179 1486.5,394.802 1488.55,394.401 1490.6,393.468 1492.66,391.422 1494.71,389.573 1496.76,389.53 1498.81,389.532 1500.87,364.568 1502.92,363.052 1504.97,362.765 1507.03,370.708 1509.08,369.018 1511.13,363.273 1513.18,360.021 1515.24,366.323 1517.29,364.492 1519.34,342.25 1521.4,350.746 1523.45,361.42 1525.5,362.126 1527.55,362.157 1529.61,362.015 1531.66,362.549 1533.71,362.418 1535.77,362.6 1537.82,362.592 1539.87,356.025 1541.93,370.52 1543.98,369.622 1546.03,366.148 1548.08,373.516 1550.14,357.586 1552.19,357.316 1554.24,363.99 1556.3,361.045 1558.35,371.415 1560.4,366.363 1562.45,366.693 1564.51,367.277 1566.56,351.578 1568.61,351.974 1570.67,345.533 1572.72,349.015 1574.77,350.35 1576.82,350.497 1578.88,350.419 1580.93,350.435 1582.98,350.435 1585.04,350.768 1587.09,350.224 1589.14,352.226 1591.19,352.286 1593.25,352.182 1595.3,352.435 1597.35,351.189 1599.41,353.335 1601.46,364.913 1603.51,364.967 1605.56,365.431 1607.62,372.641 1609.67,372.589 1611.72,374.284 1613.78,366.251 1615.83,362.802 1617.88,362.279 1619.94,362.655 1621.99,373.91 1624.04,374.07 1626.09,367.52 1628.15,363.258 1630.2,363.835 1632.25,373.041 1634.31,374.629 1636.36,374.384 1638.41,375.214 1640.46,363.692 1642.52,363.466 1644.57,365.019 1646.62,383.824 1648.68,384.141 1650.73,385.294 1652.78,374.741 1654.83,374.328 1656.89,372.423 1658.94,372.661 1660.99,377.936 1663.05,347.673 1665.1,339.128 1667.15,339.551 1669.2,339.54 1671.26,351.389 1673.31,344.172 1675.36,350.505 1677.42,349.25 1679.47,350.674 1681.52,355.281 1683.57,362.935 1685.63,382.515 1687.68,371.104 1689.73,365.868 1691.79,363.972 1693.84,361.076 1695.89,361.077 1697.94,357.602 1700,355.962 1702.05,354.232 1704.1,354.174 1706.16,352.493 1708.21,351.87 1710.26,334.747 1712.32,334.778 1714.37,348.317 1716.42,348.289 1718.47,347.459 1720.53,355.927 1722.58,355.972 1724.63,353.38 1726.69,360.871 1728.74,387.137 1730.79,382.809 1732.84,383.257 1734.9,395.895 1736.95,395.903 1739,395.85 1741.06,397.817 1743.11,395.296 1745.16,395.624 1747.21,393.781 1749.27,387.578 1751.32,393.905 1753.37,325.73 1755.43,326.581 1757.48,322.68 1759.53,323.709 1761.58,325.08 1763.64,325.066 1765.69,325.611 1767.74,319.144 1769.8,315.612 1771.85,316.174 1773.9,317.653 1775.95,319.079 1778.01,320.393 1780.06,326.316 1782.11,327.593 1784.17,329.219 1786.22,367.291 1788.27,367.859 1790.33,373.305 1792.38,373.466 1794.43,373.456 1796.48,373.338 1798.54,373.388 1800.59,372.441 1802.64,372.478 1804.7,375.034 1806.75,382.625 1808.8,382.561 1810.85,383.746 1812.91,389.122 1814.96,388.372 1817.01,390.614 1819.07,390.736 1821.12,381.758 1823.17,379.979 1825.22,380.023 1827.28,387.734 1829.33,386.684 1831.38,383.966 1833.44,383.001 1835.49,378.943 1837.54,359.182 1839.59,358.975 1841.65,354.806 1843.7,383.41 1845.75,380.886 1847.81,382.571 1849.86,380.203 1851.91,368.532 1853.96,347.347 1856.02,345.867 1858.07,349.963 1860.12,375.456 1862.18,374.908 1864.23,360.517 1866.28,360.566 1868.34,362.345 1870.39,377.398 1872.44,384.079 1874.49,389.822 1876.55,382.562 1878.6,395.24 1880.65,394.874 1882.71,392.872 1884.76,381.951 1886.81,381.963 1888.86,381.873 1890.92,381.865 1892.97,379.874 1895.02,372.994 1897.08,371.097 1899.13,370.309 1901.18,373.911 1903.23,375.976 1905.29,375.975 1907.34,377.943 1909.39,377.964 1911.45,371.067 1913.5,379.908 1915.55,386.104 1917.6,386.098 1919.66,385.15 1921.71,385.802 1923.76,385.314 1925.82,384.84 1927.87,383.927 1929.92,383.846 1931.97,380.535 1934.03,381.053 1936.08,381.155 1938.13,381.558 1940.19,376.521 1942.24,377.366 1944.29,376.295 1946.34,369.938 1948.4,368.347 1950.45,368.026 1952.5,370.053 1954.56,374.228 1956.61,379.974 1958.66,380.33 1960.72,378.658 1962.77,373.702 1964.82,375.479 1966.87,371.975 1968.93,352.524 1970.98,351.521 1973.03,362.459 1975.09,356.808 1977.14,359.67 1979.19,362.717 1981.24,378.209 1983.3,377.563 1985.35,340.651 1987.4,334.616 1989.46,359.525 1991.51,362.744 1993.56,363.763 1995.61,371.252 1997.67,368.437 1999.72,368.676 2001.77,369.357 2003.83,369.536 2005.88,370.018 2007.93,370.833 2009.98,367.602 2012.04,374.676 2014.09,377.856 2016.14,372.471 2018.2,371.755 2020.25,371.688 2022.3,372.494 2024.35,372.482 2026.41,371.656 2028.46,369.453 2030.51,374.92 2032.57,372.285 2034.62,379.961 2036.67,380.222 2038.73,390.399 2040.78,388.986 2042.83,395.328 2044.88,380.302 2046.94,381.85 2048.99,380.693 2051.04,385.092 2053.1,387.149 2055.15,376.83 2057.2,385.222 2059.25,385.154 2061.31,384.963 2063.36,386.17 2065.41,387.538 2067.47,387.458 2069.52,361.334 2071.57,361.34 2073.62,360.644 2075.68,352.511 2077.73,352.517 2079.78,350.457 2081.84,350.291 2083.89,344.257 2085.94,344.787 2087.99,345.889 2090.05,341.814 2092.1,341.814 2094.15,341.484 2096.21,341.8 2098.26,351.164 2100.31,351.536 2102.36,351.939 2104.42,350.63 2106.47,351.299 2108.52,352.273 2110.58,361.339 2112.63,362.162 2114.68,362.537 2116.73,362.581 2118.79,375.765 2120.84,375.827 2122.89,373.325 2124.95,369.969 2127,370.82 2129.05,370.562 2131.11,371.185 2133.16,369.416 2135.21,354.909 2137.26,357.957 2139.32,358.015 2141.37,371.103 2143.42,370.55 2145.48,370.87 2147.53,364.268 2149.58,345.819 2151.63,347.054 2153.69,347.034 2155.74,328.897 2157.79,328.074 2159.85,330.215 2161.9,322.065 2163.95,326.094 2166,322.673 2168.06,325.555 2170.11,321.075 2172.16,320.544 2174.22,320.575 2176.27,313.933 2178.32,329.042 2180.37,334.815 2182.43,361.69 2184.48,361.693 2186.53,363.776 2188.59,366.057 2190.64,366.54 2192.69,378.614 2194.74,377.965 2196.8,377.854 2198.85,378.079 2200.9,379.354 2202.96,373.804 2205.01,373.663 2207.06,381.246 2209.12,376.18 2211.17,371.209 2213.22,377.09 2215.27,377.072 2217.33,376.888 2219.38,373.902 2221.43,373.327 2223.49,369.834 2225.54,366.085 2227.59,370.364 2229.64,367.65 2231.7,360.469 2233.75,327.729 2235.8,342.657 2237.86,341.578 2239.91,357.712 2241.96,352.39 2244.01,350.707 2246.07,356.444 2248.12,348.146 2250.17,323.09 2252.23,326.529 2254.28,327.145 2256.33,347.018 2258.38,354.788 2260.44,354.458 2262.49,331.499 2264.54,327.49 2266.6,320.589 2268.65,355.687 2270.7,347.687 2272.75,356.329 2274.81,359.509 2276.86,365.715 2278.91,365.357 2280.97,364.956 2283.02,365.074 2285.07,365.913 2287.12,364.707 2289.18,451.586 2291.23,438.239 "/>
<path clip-path="url(#clip840)" d="M1983.6 172.231 L2280.29 172.231 L2280.29 68.5509 L1983.6 68.5509  Z" fill="#ffffff" fill-rule="evenodd" fill-opacity="1"/>
<polyline clip-path="url(#clip840)" style="stroke:#000000; stroke-linecap:round; stroke-linejoin:round; stroke-width:4; stroke-opacity:1; fill:none" points="1983.6,172.231 2280.29,172.231 2280.29,68.5509 1983.6,68.5509 1983.6,172.231 "/>
<polyline clip-path="url(#clip840)" style="stroke:#009af9; stroke-linecap:round; stroke-linejoin:round; stroke-width:4; stroke-opacity:1; fill:none" points="2007.75,120.391 2152.68,120.391 "/>
<path clip-path="url(#clip840)" d="M2176.83 103.111 L2181.51 103.111 L2181.51 133.736 L2198.34 133.736 L2198.34 137.671 L2176.83 137.671 L2176.83 103.111 Z" fill="#000000" fill-rule="nonzero" fill-opacity="1" /><path clip-path="url(#clip840)" d="M2223.96 104.245 L2223.96 108.805 Q2221.3 107.532 2218.94 106.907 Q2216.58 106.282 2214.38 106.282 Q2210.56 106.282 2208.48 107.764 Q2206.42 109.245 2206.42 111.977 Q2206.42 114.268 2207.78 115.449 Q2209.17 116.606 2213.01 117.324 L2215.84 117.902 Q2221.07 118.898 2223.55 121.421 Q2226.05 123.921 2226.05 128.134 Q2226.05 133.157 2222.67 135.75 Q2219.31 138.342 2212.81 138.342 Q2210.35 138.342 2207.57 137.787 Q2204.82 137.231 2201.86 136.143 L2201.86 131.328 Q2204.7 132.926 2207.44 133.736 Q2210.17 134.546 2212.81 134.546 Q2216.81 134.546 2218.99 132.972 Q2221.16 131.398 2221.16 128.481 Q2221.16 125.935 2219.59 124.5 Q2218.04 123.064 2214.47 122.347 L2211.62 121.791 Q2206.39 120.75 2204.06 118.527 Q2201.72 116.305 2201.72 112.347 Q2201.72 107.764 2204.94 105.125 Q2208.18 102.486 2213.85 102.486 Q2216.28 102.486 2218.8 102.926 Q2221.32 103.366 2223.96 104.245 Z" fill="#000000" fill-rule="nonzero" fill-opacity="1" /><path clip-path="url(#clip840)" d="M2254.06 104.245 L2254.06 108.805 Q2251.39 107.532 2249.03 106.907 Q2246.67 106.282 2244.47 106.282 Q2240.65 106.282 2238.57 107.764 Q2236.51 109.245 2236.51 111.977 Q2236.51 114.268 2237.87 115.449 Q2239.26 116.606 2243.11 117.324 L2245.93 117.902 Q2251.16 118.898 2253.64 121.421 Q2256.14 123.921 2256.14 128.134 Q2256.14 133.157 2252.76 135.75 Q2249.4 138.342 2242.9 138.342 Q2240.44 138.342 2237.67 137.787 Q2234.91 137.231 2231.95 136.143 L2231.95 131.328 Q2234.8 132.926 2237.53 133.736 Q2240.26 134.546 2242.9 134.546 Q2246.9 134.546 2249.08 132.972 Q2251.25 131.398 2251.25 128.481 Q2251.25 125.935 2249.68 124.5 Q2248.13 123.064 2244.56 122.347 L2241.72 121.791 Q2236.49 120.75 2234.15 118.527 Q2231.81 116.305 2231.81 112.347 Q2231.81 107.764 2235.03 105.125 Q2238.27 102.486 2243.94 102.486 Q2246.37 102.486 2248.89 102.926 Q2251.42 103.366 2254.06 104.245 Z" fill="#000000" fill-rule="nonzero" fill-opacity="1" /><path clip-path="url(#clip840)" d="M178.867 1486.45 L2352.76 1486.45 L2352.76 847.244 L178.867 847.244  Z" fill="#ffffff" fill-rule="evenodd" fill-opacity="1"/>
<defs>
  <clipPath id="clip843">
    <rect x="178" y="847" width="2175" height="640"/>
  </clipPath>
</defs>
<polyline clip-path="url(#clip843)" style="stroke:#000000; stroke-linecap:round; stroke-linejoin:round; stroke-width:2; stroke-opacity:0.1; fill:none" points="238.339,1486.45 238.339,847.244 "/>
<polyline clip-path="url(#clip843)" style="stroke:#000000; stroke-linecap:round; stroke-linejoin:round; stroke-width:2; stroke-opacity:0.1; fill:none" points="751.562,1486.45 751.562,847.244 "/>
<polyline clip-path="url(#clip843)" style="stroke:#000000; stroke-linecap:round; stroke-linejoin:round; stroke-width:2; stroke-opacity:0.1; fill:none" points="1264.78,1486.45 1264.78,847.244 "/>
<polyline clip-path="url(#clip843)" style="stroke:#000000; stroke-linecap:round; stroke-linejoin:round; stroke-width:2; stroke-opacity:0.1; fill:none" points="1778.01,1486.45 1778.01,847.244 "/>
<polyline clip-path="url(#clip843)" style="stroke:#000000; stroke-linecap:round; stroke-linejoin:round; stroke-width:2; stroke-opacity:0.1; fill:none" points="2291.23,1486.45 2291.23,847.244 "/>
<polyline clip-path="url(#clip843)" style="stroke:#000000; stroke-linecap:round; stroke-linejoin:round; stroke-width:2; stroke-opacity:0.1; fill:none" points="178.867,1486.45 2352.76,1486.45 "/>
<polyline clip-path="url(#clip843)" style="stroke:#000000; stroke-linecap:round; stroke-linejoin:round; stroke-width:2; stroke-opacity:0.1; fill:none" points="178.867,1326.65 2352.76,1326.65 "/>
<polyline clip-path="url(#clip843)" style="stroke:#000000; stroke-linecap:round; stroke-linejoin:round; stroke-width:2; stroke-opacity:0.1; fill:none" points="178.867,1166.85 2352.76,1166.85 "/>
<polyline clip-path="url(#clip843)" style="stroke:#000000; stroke-linecap:round; stroke-linejoin:round; stroke-width:2; stroke-opacity:0.1; fill:none" points="178.867,1007.05 2352.76,1007.05 "/>
<polyline clip-path="url(#clip843)" style="stroke:#000000; stroke-linecap:round; stroke-linejoin:round; stroke-width:2; stroke-opacity:0.1; fill:none" points="178.867,847.244 2352.76,847.244 "/>
<polyline clip-path="url(#clip840)" style="stroke:#000000; stroke-linecap:round; stroke-linejoin:round; stroke-width:4; stroke-opacity:1; fill:none" points="178.867,1486.45 2352.76,1486.45 "/>
<polyline clip-path="url(#clip840)" style="stroke:#000000; stroke-linecap:round; stroke-linejoin:round; stroke-width:4; stroke-opacity:1; fill:none" points="238.339,1486.45 238.339,1467.55 "/>
<polyline clip-path="url(#clip840)" style="stroke:#000000; stroke-linecap:round; stroke-linejoin:round; stroke-width:4; stroke-opacity:1; fill:none" points="751.562,1486.45 751.562,1467.55 "/>
<polyline clip-path="url(#clip840)" style="stroke:#000000; stroke-linecap:round; stroke-linejoin:round; stroke-width:4; stroke-opacity:1; fill:none" points="1264.78,1486.45 1264.78,1467.55 "/>
<polyline clip-path="url(#clip840)" style="stroke:#000000; stroke-linecap:round; stroke-linejoin:round; stroke-width:4; stroke-opacity:1; fill:none" points="1778.01,1486.45 1778.01,1467.55 "/>
<polyline clip-path="url(#clip840)" style="stroke:#000000; stroke-linecap:round; stroke-linejoin:round; stroke-width:4; stroke-opacity:1; fill:none" points="2291.23,1486.45 2291.23,1467.55 "/>
<path clip-path="url(#clip840)" d="M238.339 1517.37 Q234.728 1517.37 232.899 1520.93 Q231.094 1524.47 231.094 1531.6 Q231.094 1538.71 232.899 1542.27 Q234.728 1545.82 238.339 1545.82 Q241.973 1545.82 243.779 1542.27 Q245.607 1538.71 245.607 1531.6 Q245.607 1524.47 243.779 1520.93 Q241.973 1517.37 238.339 1517.37 M238.339 1513.66 Q244.149 1513.66 247.205 1518.27 Q250.283 1522.85 250.283 1531.6 Q250.283 1540.33 247.205 1544.94 Q244.149 1549.52 238.339 1549.52 Q232.529 1549.52 229.45 1544.94 Q226.395 1540.33 226.395 1531.6 Q226.395 1522.85 229.45 1518.27 Q232.529 1513.66 238.339 1513.66 Z" fill="#000000" fill-rule="nonzero" fill-opacity="1" /><path clip-path="url(#clip840)" d="M715.254 1544.91 L731.574 1544.91 L731.574 1548.85 L709.629 1548.85 L709.629 1544.91 Q712.291 1542.16 716.875 1537.53 Q721.481 1532.88 722.662 1531.53 Q724.907 1529.01 725.787 1527.27 Q726.689 1525.51 726.689 1523.82 Q726.689 1521.07 724.745 1519.33 Q722.824 1517.6 719.722 1517.6 Q717.523 1517.6 715.069 1518.36 Q712.638 1519.13 709.861 1520.68 L709.861 1515.95 Q712.685 1514.82 715.138 1514.24 Q717.592 1513.66 719.629 1513.66 Q725 1513.66 728.194 1516.35 Q731.388 1519.03 731.388 1523.52 Q731.388 1525.65 730.578 1527.57 Q729.791 1529.47 727.685 1532.07 Q727.106 1532.74 724.004 1535.95 Q720.902 1539.15 715.254 1544.91 Z" fill="#000000" fill-rule="nonzero" fill-opacity="1" /><path clip-path="url(#clip840)" d="M741.435 1514.29 L759.791 1514.29 L759.791 1518.22 L745.717 1518.22 L745.717 1526.7 Q746.736 1526.35 747.754 1526.19 Q748.773 1526 749.791 1526 Q755.578 1526 758.958 1529.17 Q762.337 1532.34 762.337 1537.76 Q762.337 1543.34 758.865 1546.44 Q755.393 1549.52 749.073 1549.52 Q746.898 1549.52 744.629 1549.15 Q742.384 1548.78 739.976 1548.04 L739.976 1543.34 Q742.06 1544.47 744.282 1545.03 Q746.504 1545.58 748.981 1545.58 Q752.985 1545.58 755.323 1543.48 Q757.661 1541.37 757.661 1537.76 Q757.661 1534.15 755.323 1532.04 Q752.985 1529.94 748.981 1529.94 Q747.106 1529.94 745.231 1530.35 Q743.379 1530.77 741.435 1531.65 L741.435 1514.29 Z" fill="#000000" fill-rule="nonzero" fill-opacity="1" /><path clip-path="url(#clip840)" d="M781.55 1517.37 Q777.939 1517.37 776.11 1520.93 Q774.305 1524.47 774.305 1531.6 Q774.305 1538.71 776.11 1542.27 Q777.939 1545.82 781.55 1545.82 Q785.184 1545.82 786.99 1542.27 Q788.819 1538.71 788.819 1531.6 Q788.819 1524.47 786.99 1520.93 Q785.184 1517.37 781.55 1517.37 M781.55 1513.66 Q787.36 1513.66 790.416 1518.27 Q793.495 1522.85 793.495 1531.6 Q793.495 1540.33 790.416 1544.94 Q787.36 1549.52 781.55 1549.52 Q775.74 1549.52 772.661 1544.94 Q769.606 1540.33 769.606 1531.6 Q769.606 1522.85 772.661 1518.27 Q775.74 1513.66 781.55 1513.66 Z" fill="#000000" fill-rule="nonzero" fill-opacity="1" /><path clip-path="url(#clip840)" d="M1224.4 1514.29 L1242.76 1514.29 L1242.76 1518.22 L1228.69 1518.22 L1228.69 1526.7 Q1229.7 1526.35 1230.72 1526.19 Q1231.74 1526 1232.76 1526 Q1238.55 1526 1241.93 1529.17 Q1245.31 1532.34 1245.31 1537.76 Q1245.31 1543.34 1241.83 1546.44 Q1238.36 1549.52 1232.04 1549.52 Q1229.87 1549.52 1227.6 1549.15 Q1225.35 1548.78 1222.94 1548.04 L1222.94 1543.34 Q1225.03 1544.47 1227.25 1545.03 Q1229.47 1545.58 1231.95 1545.58 Q1235.95 1545.58 1238.29 1543.48 Q1240.63 1541.37 1240.63 1537.76 Q1240.63 1534.15 1238.29 1532.04 Q1235.95 1529.94 1231.95 1529.94 Q1230.07 1529.94 1228.2 1530.35 Q1226.35 1530.77 1224.4 1531.65 L1224.4 1514.29 Z" fill="#000000" fill-rule="nonzero" fill-opacity="1" /><path clip-path="url(#clip840)" d="M1264.52 1517.37 Q1260.91 1517.37 1259.08 1520.93 Q1257.27 1524.47 1257.27 1531.6 Q1257.27 1538.71 1259.08 1542.27 Q1260.91 1545.82 1264.52 1545.82 Q1268.15 1545.82 1269.96 1542.27 Q1271.79 1538.71 1271.79 1531.6 Q1271.79 1524.47 1269.96 1520.93 Q1268.15 1517.37 1264.52 1517.37 M1264.52 1513.66 Q1270.33 1513.66 1273.38 1518.27 Q1276.46 1522.85 1276.46 1531.6 Q1276.46 1540.33 1273.38 1544.94 Q1270.33 1549.52 1264.52 1549.52 Q1258.71 1549.52 1255.63 1544.94 Q1252.57 1540.33 1252.57 1531.6 Q1252.57 1522.85 1255.63 1518.27 Q1258.71 1513.66 1264.52 1513.66 Z" fill="#000000" fill-rule="nonzero" fill-opacity="1" /><path clip-path="url(#clip840)" d="M1294.68 1517.37 Q1291.07 1517.37 1289.24 1520.93 Q1287.44 1524.47 1287.44 1531.6 Q1287.44 1538.71 1289.24 1542.27 Q1291.07 1545.82 1294.68 1545.82 Q1298.31 1545.82 1300.12 1542.27 Q1301.95 1538.71 1301.95 1531.6 Q1301.95 1524.47 1300.12 1520.93 Q1298.31 1517.37 1294.68 1517.37 M1294.68 1513.66 Q1300.49 1513.66 1303.55 1518.27 Q1306.62 1522.85 1306.62 1531.6 Q1306.62 1540.33 1303.55 1544.94 Q1300.49 1549.52 1294.68 1549.52 Q1288.87 1549.52 1285.79 1544.94 Q1282.74 1540.33 1282.74 1531.6 Q1282.74 1522.85 1285.79 1518.27 Q1288.87 1513.66 1294.68 1513.66 Z" fill="#000000" fill-rule="nonzero" fill-opacity="1" /><path clip-path="url(#clip840)" d="M1736.28 1514.29 L1758.51 1514.29 L1758.51 1516.28 L1745.96 1548.85 L1741.08 1548.85 L1752.88 1518.22 L1736.28 1518.22 L1736.28 1514.29 Z" fill="#000000" fill-rule="nonzero" fill-opacity="1" /><path clip-path="url(#clip840)" d="M1767.67 1514.29 L1786.03 1514.29 L1786.03 1518.22 L1771.95 1518.22 L1771.95 1526.7 Q1772.97 1526.35 1773.99 1526.19 Q1775.01 1526 1776.03 1526 Q1781.82 1526 1785.2 1529.17 Q1788.57 1532.34 1788.57 1537.76 Q1788.57 1543.34 1785.1 1546.44 Q1781.63 1549.52 1775.31 1549.52 Q1773.14 1549.52 1770.87 1549.15 Q1768.62 1548.78 1766.21 1548.04 L1766.21 1543.34 Q1768.3 1544.47 1770.52 1545.03 Q1772.74 1545.58 1775.22 1545.58 Q1779.22 1545.58 1781.56 1543.48 Q1783.9 1541.37 1783.9 1537.76 Q1783.9 1534.15 1781.56 1532.04 Q1779.22 1529.94 1775.22 1529.94 Q1773.34 1529.94 1771.47 1530.35 Q1769.62 1530.77 1767.67 1531.65 L1767.67 1514.29 Z" fill="#000000" fill-rule="nonzero" fill-opacity="1" /><path clip-path="url(#clip840)" d="M1807.79 1517.37 Q1804.18 1517.37 1802.35 1520.93 Q1800.54 1524.47 1800.54 1531.6 Q1800.54 1538.71 1802.35 1542.27 Q1804.18 1545.82 1807.79 1545.82 Q1811.42 1545.82 1813.23 1542.27 Q1815.06 1538.71 1815.06 1531.6 Q1815.06 1524.47 1813.23 1520.93 Q1811.42 1517.37 1807.79 1517.37 M1807.79 1513.66 Q1813.6 1513.66 1816.65 1518.27 Q1819.73 1522.85 1819.73 1531.6 Q1819.73 1540.33 1816.65 1544.94 Q1813.6 1549.52 1807.79 1549.52 Q1801.98 1549.52 1798.9 1544.94 Q1795.84 1540.33 1795.84 1531.6 Q1795.84 1522.85 1798.9 1518.27 Q1801.98 1513.66 1807.79 1513.66 Z" fill="#000000" fill-rule="nonzero" fill-opacity="1" /><path clip-path="url(#clip840)" d="M2235.76 1544.91 L2243.4 1544.91 L2243.4 1518.55 L2235.09 1520.21 L2235.09 1515.95 L2243.35 1514.29 L2248.02 1514.29 L2248.02 1544.91 L2255.66 1544.91 L2255.66 1548.85 L2235.76 1548.85 L2235.76 1544.91 Z" fill="#000000" fill-rule="nonzero" fill-opacity="1" /><path clip-path="url(#clip840)" d="M2275.11 1517.37 Q2271.5 1517.37 2269.67 1520.93 Q2267.86 1524.47 2267.86 1531.6 Q2267.86 1538.71 2269.67 1542.27 Q2271.5 1545.82 2275.11 1545.82 Q2278.74 1545.82 2280.55 1542.27 Q2282.38 1538.71 2282.38 1531.6 Q2282.38 1524.47 2280.55 1520.93 Q2278.74 1517.37 2275.11 1517.37 M2275.11 1513.66 Q2280.92 1513.66 2283.97 1518.27 Q2287.05 1522.85 2287.05 1531.6 Q2287.05 1540.33 2283.97 1544.94 Q2280.92 1549.52 2275.11 1549.52 Q2269.3 1549.52 2266.22 1544.94 Q2263.16 1540.33 2263.16 1531.6 Q2263.16 1522.85 2266.22 1518.27 Q2269.3 1513.66 2275.11 1513.66 Z" fill="#000000" fill-rule="nonzero" fill-opacity="1" /><path clip-path="url(#clip840)" d="M2305.27 1517.37 Q2301.66 1517.37 2299.83 1520.93 Q2298.02 1524.47 2298.02 1531.6 Q2298.02 1538.71 2299.83 1542.27 Q2301.66 1545.82 2305.27 1545.82 Q2308.9 1545.82 2310.71 1542.27 Q2312.54 1538.71 2312.54 1531.6 Q2312.54 1524.47 2310.71 1520.93 Q2308.9 1517.37 2305.27 1517.37 M2305.27 1513.66 Q2311.08 1513.66 2314.14 1518.27 Q2317.21 1522.85 2317.21 1531.6 Q2317.21 1540.33 2314.14 1544.94 Q2311.08 1549.52 2305.27 1549.52 Q2299.46 1549.52 2296.38 1544.94 Q2293.33 1540.33 2293.33 1531.6 Q2293.33 1522.85 2296.38 1518.27 Q2299.46 1513.66 2305.27 1513.66 Z" fill="#000000" fill-rule="nonzero" fill-opacity="1" /><path clip-path="url(#clip840)" d="M2335.43 1517.37 Q2331.82 1517.37 2329.99 1520.93 Q2328.19 1524.47 2328.19 1531.6 Q2328.19 1538.71 2329.99 1542.27 Q2331.82 1545.82 2335.43 1545.82 Q2339.07 1545.82 2340.87 1542.27 Q2342.7 1538.71 2342.7 1531.6 Q2342.7 1524.47 2340.87 1520.93 Q2339.07 1517.37 2335.43 1517.37 M2335.43 1513.66 Q2341.24 1513.66 2344.3 1518.27 Q2347.38 1522.85 2347.38 1531.6 Q2347.38 1540.33 2344.3 1544.94 Q2341.24 1549.52 2335.43 1549.52 Q2329.62 1549.52 2326.54 1544.94 Q2323.49 1540.33 2323.49 1531.6 Q2323.49 1522.85 2326.54 1518.27 Q2329.62 1513.66 2335.43 1513.66 Z" fill="#000000" fill-rule="nonzero" fill-opacity="1" /><polyline clip-path="url(#clip840)" style="stroke:#000000; stroke-linecap:round; stroke-linejoin:round; stroke-width:4; stroke-opacity:1; fill:none" points="178.867,1486.45 178.867,847.244 "/>
<polyline clip-path="url(#clip840)" style="stroke:#000000; stroke-linecap:round; stroke-linejoin:round; stroke-width:4; stroke-opacity:1; fill:none" points="178.867,1486.45 197.764,1486.45 "/>
<polyline clip-path="url(#clip840)" style="stroke:#000000; stroke-linecap:round; stroke-linejoin:round; stroke-width:4; stroke-opacity:1; fill:none" points="178.867,1326.65 197.764,1326.65 "/>
<polyline clip-path="url(#clip840)" style="stroke:#000000; stroke-linecap:round; stroke-linejoin:round; stroke-width:4; stroke-opacity:1; fill:none" points="178.867,1166.85 197.764,1166.85 "/>
<polyline clip-path="url(#clip840)" style="stroke:#000000; stroke-linecap:round; stroke-linejoin:round; stroke-width:4; stroke-opacity:1; fill:none" points="178.867,1007.05 197.764,1007.05 "/>
<polyline clip-path="url(#clip840)" style="stroke:#000000; stroke-linecap:round; stroke-linejoin:round; stroke-width:4; stroke-opacity:1; fill:none" points="178.867,847.244 197.764,847.244 "/>
<path clip-path="url(#clip840)" d="M50.9921 1486.9 L80.6679 1486.9 L80.6679 1490.83 L50.9921 1490.83 L50.9921 1486.9 Z" fill="#000000" fill-rule="nonzero" fill-opacity="1" /><path clip-path="url(#clip840)" d="M91.5706 1499.79 L99.2095 1499.79 L99.2095 1473.43 L90.8993 1475.09 L90.8993 1470.83 L99.1632 1469.17 L103.839 1469.17 L103.839 1499.79 L111.478 1499.79 L111.478 1503.73 L91.5706 1503.73 L91.5706 1499.79 Z" fill="#000000" fill-rule="nonzero" fill-opacity="1" /><path clip-path="url(#clip840)" d="M130.922 1472.25 Q127.311 1472.25 125.482 1475.81 Q123.677 1479.35 123.677 1486.48 Q123.677 1493.59 125.482 1497.15 Q127.311 1500.7 130.922 1500.7 Q134.556 1500.7 136.362 1497.15 Q138.191 1493.59 138.191 1486.48 Q138.191 1479.35 136.362 1475.81 Q134.556 1472.25 130.922 1472.25 M130.922 1468.54 Q136.732 1468.54 139.788 1473.15 Q142.867 1477.73 142.867 1486.48 Q142.867 1495.21 139.788 1499.82 Q136.732 1504.4 130.922 1504.4 Q125.112 1504.4 122.033 1499.82 Q118.978 1495.21 118.978 1486.48 Q118.978 1477.73 122.033 1473.15 Q125.112 1468.54 130.922 1468.54 Z" fill="#000000" fill-rule="nonzero" fill-opacity="1" /><path clip-path="url(#clip840)" d="M82.1494 1327.1 L111.825 1327.1 L111.825 1331.03 L82.1494 1331.03 L82.1494 1327.1 Z" fill="#000000" fill-rule="nonzero" fill-opacity="1" /><path clip-path="url(#clip840)" d="M121.964 1309.37 L140.32 1309.37 L140.32 1313.3 L126.246 1313.3 L126.246 1321.77 Q127.265 1321.43 128.283 1321.27 Q129.302 1321.08 130.32 1321.08 Q136.107 1321.08 139.487 1324.25 Q142.867 1327.42 142.867 1332.84 Q142.867 1338.42 139.394 1341.52 Q135.922 1344.6 129.603 1344.6 Q127.427 1344.6 125.158 1344.23 Q122.913 1343.86 120.506 1343.12 L120.506 1338.42 Q122.589 1339.55 124.811 1340.11 Q127.033 1340.66 129.51 1340.66 Q133.515 1340.66 135.853 1338.56 Q138.191 1336.45 138.191 1332.84 Q138.191 1329.23 135.853 1327.12 Q133.515 1325.01 129.51 1325.01 Q127.635 1325.01 125.76 1325.43 Q123.908 1325.85 121.964 1326.73 L121.964 1309.37 Z" fill="#000000" fill-rule="nonzero" fill-opacity="1" /><path clip-path="url(#clip840)" d="M130.922 1152.64 Q127.311 1152.64 125.482 1156.21 Q123.677 1159.75 123.677 1166.88 Q123.677 1173.99 125.482 1177.55 Q127.311 1181.09 130.922 1181.09 Q134.556 1181.09 136.362 1177.55 Q138.191 1173.99 138.191 1166.88 Q138.191 1159.75 136.362 1156.21 Q134.556 1152.64 130.922 1152.64 M130.922 1148.94 Q136.732 1148.94 139.788 1153.55 Q142.867 1158.13 142.867 1166.88 Q142.867 1175.61 139.788 1180.21 Q136.732 1184.8 130.922 1184.8 Q125.112 1184.8 122.033 1180.21 Q118.978 1175.61 118.978 1166.88 Q118.978 1158.13 122.033 1153.55 Q125.112 1148.94 130.922 1148.94 Z" fill="#000000" fill-rule="nonzero" fill-opacity="1" /><path clip-path="url(#clip840)" d="M121.964 989.765 L140.32 989.765 L140.32 993.7 L126.246 993.7 L126.246 1002.17 Q127.265 1001.83 128.283 1001.66 Q129.302 1001.48 130.32 1001.48 Q136.107 1001.48 139.487 1004.65 Q142.867 1007.82 142.867 1013.24 Q142.867 1018.82 139.394 1021.92 Q135.922 1025 129.603 1025 Q127.427 1025 125.158 1024.63 Q122.913 1024.26 120.506 1023.51 L120.506 1018.82 Q122.589 1019.95 124.811 1020.51 Q127.033 1021.06 129.51 1021.06 Q133.515 1021.06 135.853 1018.95 Q138.191 1016.85 138.191 1013.24 Q138.191 1009.63 135.853 1007.52 Q133.515 1005.41 129.51 1005.41 Q127.635 1005.41 125.76 1005.83 Q123.908 1006.25 121.964 1007.13 L121.964 989.765 Z" fill="#000000" fill-rule="nonzero" fill-opacity="1" /><path clip-path="url(#clip840)" d="M91.5706 860.589 L99.2095 860.589 L99.2095 834.223 L90.8993 835.89 L90.8993 831.631 L99.1632 829.964 L103.839 829.964 L103.839 860.589 L111.478 860.589 L111.478 864.524 L91.5706 864.524 L91.5706 860.589 Z" fill="#000000" fill-rule="nonzero" fill-opacity="1" /><path clip-path="url(#clip840)" d="M130.922 833.043 Q127.311 833.043 125.482 836.608 Q123.677 840.149 123.677 847.279 Q123.677 854.385 125.482 857.95 Q127.311 861.492 130.922 861.492 Q134.556 861.492 136.362 857.95 Q138.191 854.385 138.191 847.279 Q138.191 840.149 136.362 836.608 Q134.556 833.043 130.922 833.043 M130.922 829.339 Q136.732 829.339 139.788 833.946 Q142.867 838.529 142.867 847.279 Q142.867 856.006 139.788 860.612 Q136.732 865.195 130.922 865.195 Q125.112 865.195 122.033 860.612 Q118.978 856.006 118.978 847.279 Q118.978 838.529 122.033 833.946 Q125.112 829.339 130.922 829.339 Z" fill="#000000" fill-rule="nonzero" fill-opacity="1" /><polyline clip-path="url(#clip843)" style="stroke:#009af9; stroke-linecap:round; stroke-linejoin:round; stroke-width:4; stroke-opacity:1; fill:none" points="240.392,1134.89 242.445,1165.01 244.498,1181.16 246.55,1166.74 248.603,1160.82 250.656,1172.47 252.709,1171.83 254.762,1189.18 256.815,1155.58 258.868,1171.85 260.921,1182.28 262.974,1158.6 265.027,1167.34 267.079,1165.36 269.132,1209.06 271.185,1118.84 273.238,1169.44 275.291,1129.86 277.344,1203.06 279.397,1069.91 281.45,1148.75 283.503,463.515 285.555,1252.5 287.608,1229.74 289.661,1536.03 291.714,1143.27 293.767,1199.32 295.82,1182.45 297.873,1179.58 299.926,1176.54 301.979,1166.02 304.031,1162.97 306.084,1224.85 308.137,1136.84 310.19,1159.99 312.243,1070.65 314.296,1142.88 316.349,1235.54 318.402,955.718 320.455,1910.05 322.507,1084.35 324.56,1246.83 326.613,1167.79 328.666,1179.71 330.719,1137.56 332.772,1160.91 334.825,1162.8 336.878,1122.43 338.931,1104.19 340.984,1188.14 343.036,1168.56 345.089,1178.23 347.142,1147.54 349.195,1021.29 351.248,1386.5 353.301,976.677 355.354,1218.85 357.407,1058 359.46,1238.99 361.512,1103.96 363.565,749.403 365.618,1014.57 367.671,1200.81 369.724,1134.88 371.777,1155.93 373.83,1171.58 375.883,1135.4 377.936,1134.09 379.988,1187.33 382.041,1156.85 384.094,1210.71 386.147,1137.49 388.2,1105.45 390.253,1220.36 392.306,1186.43 394.359,1161.58 396.412,1162.91 398.464,1188.03 400.517,1207.69 402.57,1231.43 404.623,1243.11 406.676,1164.59 408.729,1191.27 410.782,1208.27 412.835,1175.85 414.888,1152.44 416.94,1158.32 418.993,1161.43 421.046,1146.37 423.099,1154.06 425.152,1159.06 427.205,1090.42 429.258,1005.83 431.311,1010.34 433.364,1196.76 435.417,1166.13 437.469,1182.04 439.522,1155.59 441.575,1139.91 443.628,1092.75 445.681,1143.19 447.734,905.448 449.787,1511.3 451.84,1272.73 453.893,768.749 455.945,770.118 457.998,1148.53 460.051,1200.53 462.104,1118.8 464.157,1155.02 466.21,1153.82 468.263,1157.67 470.316,1234.38 472.369,1087.3 474.421,1216.89 476.474,1094.09 478.527,1252.27 480.58,1210.44 482.633,1142.96 484.686,1153.07 486.739,1195.71 488.792,1153.03 490.845,1114.48 492.897,1067.8 494.95,1105.87 497.003,1178.5 499.056,1132.84 501.109,1187.56 503.162,1139.79 505.215,1215.76 507.268,1141.82 509.321,1144.66 511.374,1180.29 513.426,1191.7 515.479,1181.7 517.532,1156.16 519.585,1151.36 521.638,1176.53 523.691,1169.1 525.744,1158.8 527.797,1073.95 529.85,811.972 531.902,1927.74 533.955,516.678 536.008,1198.42 538.061,1182.34 540.114,1215.21 542.167,1114.26 544.22,1219.8 546.273,1136.6 548.326,1116.2 550.378,1264.22 552.431,1299.42 554.484,1291.04 556.537,1225 558.59,1139.82 560.643,1132.25 562.696,1202.6 564.749,973.065 566.802,1788.08 568.854,914.17 570.907,1914.05 572.96,2021.45 575.013,1120.09 577.066,1300.99 579.119,861.725 581.172,939.538 583.225,1174.33 585.278,1178.75 587.331,1199.67 589.383,1130.5 591.436,1211.25 593.489,1082.02 595.542,1203.31 597.595,1141.85 599.648,1104.18 601.701,1194.74 603.754,1219.88 605.807,1252.32 607.859,865.599 609.912,950.946 611.965,1035.47 614.018,1171.77 616.071,1230.18 618.124,1149.19 620.177,950.987 622.23,1006.4 624.283,813.954 626.335,877.291 628.388,1334.09 630.441,1129.38 632.494,1168.83 634.547,1176.12 636.6,1115.78 638.653,1112.93 640.706,1142.47 642.759,1162.17 644.811,1144.21 646.864,1173.85 648.917,1581.76 650.97,1216.54 653.023,1108.3 655.076,1247.86 657.129,1135.96 659.182,1024.07 661.235,1178.55 663.288,1138.77 665.34,1204.9 667.393,1182.31 669.446,1206.34 671.499,1140.5 673.552,1376.17 675.605,1177.68 677.658,1139.19 679.711,1179.84 681.764,1172.5 683.816,1205.85 685.869,1099.59 687.922,1158.45 689.975,1141.4 692.028,1141.12 694.081,1177.17 696.134,1145.53 698.187,1204.97 700.24,1065.42 702.292,1173.06 704.345,1170.09 706.398,1151.24 708.451,1202.75 710.504,1104.26 712.557,1022.85 714.61,1176.19 716.663,1151.56 718.716,1211.64 720.768,1131.93 722.821,1178.21 724.874,1376.18 726.927,1120.86 728.98,1188.93 731.033,1151.12 733.086,1144 735.139,1136.98 737.192,1144.15 739.245,1146.48 741.297,1220.48 743.35,1110.42 745.403,1142.64 747.456,1194.99 749.509,1141.63 751.562,1178.21 753.615,1187.94 755.668,1160.67 757.721,1143 759.773,1128.24 761.826,1152.48 763.879,1149.27 765.932,1314.67 767.985,1221.47 770.038,1251.93 772.091,1128.63 774.144,1129.18 776.197,1170 778.249,1165.87 780.302,1235.56 782.355,1367.99 784.408,1127.79 786.461,1182.14 788.514,1165.28 790.567,1245.39 792.62,1152.52 794.673,1166.6 796.725,1138.78 798.778,1157.79 800.831,1121.72 802.884,1182.72 804.937,1179.35 806.99,1161.04 809.043,1174.47 811.096,1164.62 813.149,1179 815.202,1137.41 817.254,1110.99 819.307,1194.86 821.36,1211.6 823.413,1162.29 825.466,1046.74 827.519,1117.45 829.572,1149.86 831.625,1153.31 833.678,1097.42 835.73,1153.94 837.783,1190.57 839.836,1174.75 841.889,1121.63 843.942,1178.83 845.995,1148.06 848.048,1161.56 850.101,1173.51 852.154,1146.33 854.206,1126.35 856.259,1183.95 858.312,1199.01 860.365,1200.31 862.418,1238.43 864.471,1181.3 866.524,1137 868.577,1215.09 870.63,1227.18 872.682,1176.1 874.735,1154.69 876.788,1164.66 878.841,1175.83 880.894,1190.23 882.947,1170.2 885,1191.14 887.053,1176.78 889.106,1196.88 891.159,1146.04 893.211,1209.82 895.264,1151.1 897.317,1157.42 899.37,1181.36 901.423,1131.76 903.476,1158.87 905.529,1158.62 907.582,1054.94 909.635,1188.25 911.687,1312.05 913.74,1178.84 915.793,1254.69 917.846,1235.28 919.899,1125.71 921.952,1188.91 924.005,1135.55 926.058,1100.11 928.111,1106.26 930.163,1110.91 932.216,1031.52 934.269,907.937 936.322,877.986 938.375,1182.28 940.428,1148.9 942.481,1178.44 944.534,1167.3 946.587,1165.76 948.639,1207.55 950.692,1198.78 952.745,1245.35 954.798,1153.32 956.851,1186.72 958.904,1216.31 960.957,1205.94 963.01,1232.24 965.063,1126.65 967.116,621.916 969.168,1258.82 971.221,1121.42 973.274,1152.66 975.327,1323.82 977.38,1052.02 979.433,1065.59 981.486,1067.64 983.539,1243.07 985.592,1161.87 987.644,1063.8 989.697,1144.28 991.75,1134.93 993.803,1178.04 995.856,1156 997.909,1165.7 999.962,1126.36 1002.01,1141.28 1004.07,1152.18 1006.12,1120.41 1008.17,1139.51 1010.23,1093.55 1012.28,1098.67 1014.33,1114.47 1016.38,1120.58 1018.44,1177.58 1020.49,1184.24 1022.54,1320.26 1024.6,1487.75 1026.65,1274.65 1028.7,1265.51 1030.76,1293.27 1032.81,1165.9 1034.86,1179.1 1036.91,1298.1 1038.97,1066.32 1041.02,1170.93 1043.07,1203.52 1045.13,1183.4 1047.18,1158.97 1049.23,1158.59 1051.28,1198.55 1053.34,1116.04 1055.39,1089.59 1057.44,1199.12 1059.5,1108.1 1061.55,1140.04 1063.6,1134.34 1065.65,1158.87 1067.71,1187.81 1069.76,1165.14 1071.81,1185.82 1073.87,1089.23 1075.92,1316.32 1077.97,1012.7 1080.02,1100.93 1082.08,1147.31 1084.13,1228.81 1086.18,1112.81 1088.24,1220.92 1090.29,970.981 1092.34,1141.37 1094.39,1214.29 1096.45,1177.78 1098.5,1108.88 1100.55,1179.8 1102.61,1155.04 1104.66,1166.5 1106.71,1217.52 1108.77,1307.13 1110.82,1332.46 1112.87,1290.88 1114.92,1120.15 1116.98,1107.71 1119.03,1140.7 1121.08,1200.03 1123.14,1205.05 1125.19,1147.91 1127.24,1186.45 1129.29,1202.21 1131.35,1167.02 1133.4,1161.14 1135.45,1346.93 1137.51,1223.73 1139.56,1177.08 1141.61,1151.13 1143.66,1222.43 1145.72,1153.8 1147.77,1113.8 1149.82,1183.79 1151.88,1153.98 1153.93,1200.24 1155.98,1134.3 1158.03,1008.34 1160.09,1000.59 1162.14,1252.44 1164.19,516.7 1166.25,1692.1 1168.3,1876.28 1170.35,1763.96 1172.4,1809.93 1174.46,1661.08 1176.51,1313.8 1178.56,866.908 1180.62,-828.095 1182.67,8263.8 1184.72,-5488.67 1186.77,58.1765 1188.83,2610.26 1190.88,655.325 1192.93,1719.52 1194.99,-264.683 1197.04,176.525 1199.09,1452.62 1201.15,1428.78 1203.2,1170.55 1205.25,2056 1207.3,991.518 1209.36,1338.18 1211.41,2524.49 1213.46,3271.1 1215.52,9240.63 1217.57,4151.36 1219.62,5299.89 1221.67,3977.03 1223.73,4157.81 1225.78,3108.15 1227.83,-1260.5 1229.89,253.513 1231.94,1067.42 1233.99,1245.65 1236.04,1164.5 1238.1,1177.33 1240.15,1207.53 1242.2,1187.99 1244.26,1229.93 1246.31,1178.19 1248.36,1213.71 1250.41,1098.88 1252.47,1393.65 1254.52,1049.33 1256.57,1243.07 1258.63,1142.41 1260.68,1189.1 1262.73,1131.87 1264.78,1176.21 1266.84,1161.53 1268.89,1143.15 1270.94,1178.85 1273,1135.93 1275.05,1130.84 1277.1,1120.17 1279.16,1285.8 1281.21,1059.73 1283.26,1086.54 1285.31,1249.43 1287.37,1049.14 1289.42,1147.58 1291.47,1161.43 1293.53,1169.91 1295.58,1162.55 1297.63,1105.91 1299.68,1293.34 1301.74,1138 1303.79,1231.62 1305.84,1119.63 1307.9,977.738 1309.95,1249.83 1312,1190.01 1314.05,1140.87 1316.11,1177.93 1318.16,1212.91 1320.21,1125.6 1322.27,1177.81 1324.32,1162.09 1326.37,1190.45 1328.42,1137.47 1330.48,1154.05 1332.53,1169.5 1334.58,1169.2 1336.64,1161.74 1338.69,1243.52 1340.74,1181.53 1342.79,1232.9 1344.85,1149.92 1346.9,1165.3 1348.95,1228.47 1351.01,1194.61 1353.06,932.267 1355.11,548.5 1357.16,1159.01 1359.22,1231.41 1361.27,1235.27 1363.32,1075.63 1365.38,393.669 1367.43,370.294 1369.48,311.818 1371.54,1628.75 1373.59,1023.06 1375.64,1227.37 1377.69,940.789 1379.75,-2044.62 1381.8,360.438 1383.85,682.005 1385.91,1457.78 1387.96,1035.32 1390.01,1277.01 1392.06,1271.52 1394.12,1211.78 1396.17,1186.19 1398.22,1123.92 1400.28,1160.1 1402.33,1169.1 1404.38,1176.47 1406.43,1203.35 1408.49,1205.91 1410.54,1122.24 1412.59,1108.68 1414.65,1124.33 1416.7,1112.76 1418.75,1155.8 1420.8,1195.71 1422.86,1220.85 1424.91,1117.07 1426.96,1274.7 1429.02,1241.88 1431.07,1175.46 1433.12,1187.64 1435.17,1173.46 1437.23,1157.07 1439.28,1194.61 1441.33,1165.48 1443.39,1139.49 1445.44,1213 1447.49,1145.1 1449.55,1158.14 1451.6,1132.45 1453.65,1163.97 1455.7,1145.23 1457.76,1177.75 1459.81,1190.02 1461.86,1240.93 1463.92,1180.8 1465.97,1200.99 1468.02,1222.37 1470.07,1232.31 1472.13,1117.17 1474.18,1177.55 1476.23,1220.02 1478.29,1204.79 1480.34,1200.19 1482.39,1176.24 1484.44,1158.96 1486.5,1147.22 1488.55,1193.44 1490.6,1145.48 1492.66,1208.93 1494.71,1149.97 1496.76,1201.95 1498.81,1185.78 1500.87,1244.88 1502.92,1150.11 1504.97,1050.03 1507.03,1288.36 1509.08,1316.13 1511.13,1191.29 1513.18,1089.46 1515.24,1136.99 1517.29,1244.44 1519.34,1137.38 1521.4,1174.5 1523.45,1183.36 1525.5,1156.77 1527.55,1147.32 1529.61,1176.4 1531.66,1178.43 1533.71,1169.3 1535.77,1230.49 1537.82,1262.71 1539.87,1202.96 1541.93,1181.77 1543.98,1155.91 1546.03,1163.35 1548.08,1156.33 1550.14,1193.71 1552.19,1195.5 1554.24,1190.81 1556.3,1147.1 1558.35,1262.92 1560.4,1254.7 1562.45,1143.2 1564.51,1143.19 1566.56,1164.92 1568.61,1250.3 1570.67,1086.79 1572.72,1142.35 1574.77,1122.87 1576.82,1279.95 1578.88,1056.23 1580.93,1115.25 1582.98,1163.6 1585.04,1018.04 1587.09,1302.87 1589.14,1344.86 1591.19,1121.6 1593.25,1158.49 1595.3,1151.95 1597.35,1165.39 1599.41,1170.2 1601.46,1158.75 1603.51,1146.58 1605.56,1153.67 1607.62,1110.03 1609.67,1229.25 1611.72,1219.79 1613.78,1207.08 1615.83,1062.94 1617.88,1122.51 1619.94,1093.67 1621.99,1103.03 1624.04,1224.32 1626.09,1220.03 1628.15,1137.96 1630.2,1185.09 1632.25,1151.65 1634.31,1166.06 1636.36,1166.99 1638.41,1207.79 1640.46,1230.22 1642.52,1141.86 1644.57,1221.74 1646.62,1139.32 1648.68,1216.86 1650.73,1251.25 1652.78,1470.65 1654.83,1092.37 1656.89,1143.69 1658.94,1135.53 1660.99,1193.37 1663.05,1186.43 1665.1,1135.5 1667.15,1199.2 1669.2,1155.53 1671.26,1324.5 1673.31,1190.14 1675.36,1203.98 1677.42,1145.39 1679.47,1154.27 1681.52,1183.29 1683.57,1179.13 1685.63,1152.91 1687.68,1147.63 1689.73,1146.71 1691.79,1169.2 1693.84,1171.8 1695.89,1135.5 1697.94,1226.84 1700,1200.07 1702.05,1184.17 1704.1,1134.65 1706.16,1226.58 1708.21,1257.47 1710.26,1110.64 1712.32,1113.05 1714.37,1137.14 1716.42,1184.83 1718.47,1176.71 1720.53,1391.89 1722.58,1128.46 1724.63,1234.28 1726.69,1134.18 1728.74,1229.04 1730.79,1170.87 1732.84,1255.72 1734.9,1206.22 1736.95,944.913 1739,1191.62 1741.06,1175.87 1743.11,1318.12 1745.16,967.571 1747.21,1394.05 1749.27,1093.39 1751.32,1161.93 1753.37,1162.98 1755.43,1169.28 1757.48,1187.04 1759.53,1161.43 1761.58,1126.29 1763.64,1168.03 1765.69,1191.51 1767.74,1137.43 1769.8,1165.78 1771.85,1216.09 1773.9,1130.36 1775.95,1187.75 1778.01,1186.65 1780.06,993.5 1782.11,1166.87 1784.17,1177.19 1786.22,995.187 1788.27,3464.96 1790.33,3306.26 1792.38,826.76 1794.43,1155.61 1796.48,1185.98 1798.54,1132.06 1800.59,1208.75 1802.64,1201.82 1804.7,1183.88 1806.75,1085.33 1808.8,1149.15 1810.85,1161.44 1812.91,1143.47 1814.96,1127.84 1817.01,1184.24 1819.07,1158.45 1821.12,1157.38 1823.17,1250.28 1825.22,1315.89 1827.28,1306.63 1829.33,1041.77 1831.38,1263.22 1833.44,1190.28 1835.49,1010.83 1837.54,1508.82 1839.59,1217.02 1841.65,1114.69 1843.7,1169.17 1845.75,1189.76 1847.81,1038.79 1849.86,915.214 1851.91,1241.63 1853.96,1182.67 1856.02,1146.77 1858.07,1139.59 1860.12,1217.63 1862.18,1123.06 1864.23,1004.11 1866.28,1027.38 1868.34,1097.75 1870.39,1208.11 1872.44,1169.63 1874.49,1207.33 1876.55,1141.25 1878.6,1251.23 1880.65,1049.49 1882.71,1391.44 1884.76,1110.2 1886.81,1177.45 1888.86,1131.29 1890.92,1172.53 1892.97,1215.03 1895.02,1219.51 1897.08,1188.22 1899.13,1199.06 1901.18,1167.91 1903.23,1223.86 1905.29,1191.84 1907.34,1154.81 1909.39,1161.24 1911.45,1142.83 1913.5,1187.63 1915.55,1149.31 1917.6,1210.14 1919.66,1156.41 1921.71,1162.45 1923.76,1169.19 1925.82,1258.22 1927.87,1110.97 1929.92,1095.23 1931.97,1224.13 1934.03,1235.72 1936.08,1194.27 1938.13,1172.54 1940.19,1148.32 1942.24,1151.3 1944.29,1163.68 1946.34,1192.55 1948.4,1187.28 1950.45,1227.82 1952.5,1288.01 1954.56,1153.6 1956.61,1028.09 1958.66,1124.02 1960.72,1118.63 1962.77,1012.48 1964.82,1279.08 1966.87,1185.79 1968.93,1205.23 1970.98,1139.8 1973.03,1220.1 1975.09,1147.89 1977.14,1183.62 1979.19,977.063 1981.24,966.865 1983.3,1029.61 1985.35,1030.71 1987.4,1303.77 1989.46,1388.98 1991.51,1419.31 1993.56,1291.96 1995.61,1090.29 1997.67,1039.06 1999.72,1246.83 2001.77,1255.62 2003.83,1207.91 2005.88,1256.77 2007.93,1145.73 2009.98,1169.5 2012.04,1141.58 2014.09,1125.3 2016.14,1217.86 2018.2,1144.04 2020.25,1180.27 2022.3,1178.82 2024.35,1215.41 2026.41,1202.71 2028.46,1066.44 2030.51,1226.39 2032.57,1289.25 2034.62,1251.87 2036.67,1149.57 2038.73,1158.43 2040.78,1152.39 2042.83,1182.85 2044.88,1172.91 2046.94,1212.35 2048.99,1181.42 2051.04,1140.07 2053.1,1166.64 2055.15,923.825 2057.2,788.037 2059.25,2339.18 2061.31,840.865 2063.36,1040.76 2065.41,1179.73 2067.47,1184.14 2069.52,1187.53 2071.57,1087.27 2073.62,1054.14 2075.68,1129.89 2077.73,1029.17 2079.78,1309.57 2081.84,1216.64 2083.89,1104.16 2085.94,1146.66 2087.99,1221.19 2090.05,1087.81 2092.1,1119.7 2094.15,1210.11 2096.21,1130.62 2098.26,1258.95 2100.31,1181.67 2102.36,1142.23 2104.42,1177.77 2106.47,1167.94 2108.52,1170.01 2110.58,1149.17 2112.63,1165.53 2114.68,1199.17 2116.73,1167.25 2118.79,1178.87 2120.84,1227.07 2122.89,1211.44 2124.95,1386.26 2127,934.77 2129.05,1106.21 2131.11,1184.01 2133.16,1112.35 2135.21,1193.63 2137.26,1152.35 2139.32,1159.49 2141.37,1154.7 2143.42,1243.75 2145.48,1181.8 2147.53,1211.02 2149.58,1132.42 2151.63,1190.74 2153.69,1175.39 2155.74,1165.16 2157.79,1138.02 2159.85,1105.59 2161.9,1102.42 2163.95,1246.92 2166,1324.21 2168.06,945.974 2170.11,1222.71 2172.16,1083.82 2174.22,1182.78 2176.27,1073.05 2178.32,1305.66 2180.37,1171.38 2182.43,1107.85 2184.48,1189.99 2186.53,1153.64 2188.59,1167.65 2190.64,1149.83 2192.69,1260.02 2194.74,1110.39 2196.8,1211.65 2198.85,1186.31 2200.9,1161.21 2202.96,1176.26 2205.01,1182.94 2207.06,1157.03 2209.12,1149.04 2211.17,1199.57 2213.22,1148.23 2215.27,1257.49 2217.33,1190.16 2219.38,1146.3 2221.43,1208.77 2223.49,1178.57 2225.54,1159.38 2227.59,1180.42 2229.64,1187.87 2231.7,1168.11 2233.75,1118.7 2235.8,1168.2 2237.86,1224.07 2239.91,1150.61 2241.96,1108.14 2244.01,1056.22 2246.07,1233.55 2248.12,1132.84 2250.17,1149.99 2252.23,1179.43 2254.28,1151.78 2256.33,1184.66 2258.38,1112.46 2260.44,1249.39 2262.49,1109.61 2264.54,1104.51 2266.6,1098.69 2268.65,1678.31 2270.7,941.077 2272.75,466.039 2274.81,3953.89 2276.86,2383.08 2278.91,-1720.91 2280.97,706.839 2283.02,1156.49 2285.07,1227.48 2287.12,1103.01 2289.18,1197.95 2291.23,1202.5 "/>
<path clip-path="url(#clip840)" d="M251.33 1465.14 L588.926 1465.14 L588.926 1361.46 L251.33 1361.46  Z" fill="#ffffff" fill-rule="evenodd" fill-opacity="1"/>
<polyline clip-path="url(#clip840)" style="stroke:#000000; stroke-linecap:round; stroke-linejoin:round; stroke-width:4; stroke-opacity:1; fill:none" points="251.33,1465.14 588.926,1465.14 588.926,1361.46 251.33,1361.46 251.33,1465.14 "/>
<polyline clip-path="url(#clip840)" style="stroke:#009af9; stroke-linecap:round; stroke-linejoin:round; stroke-width:4; stroke-opacity:1; fill:none" points="275.484,1413.3 420.41,1413.3 "/>
<path clip-path="url(#clip840)" d="M470.12 1425.65 L470.12 1416.37 L462.481 1416.37 L462.481 1412.53 L474.749 1412.53 L474.749 1427.36 Q472.041 1429.28 468.777 1430.28 Q465.513 1431.25 461.809 1431.25 Q453.708 1431.25 449.124 1426.53 Q444.564 1421.78 444.564 1413.34 Q444.564 1404.86 449.124 1400.14 Q453.708 1395.4 461.809 1395.4 Q465.189 1395.4 468.221 1396.23 Q471.277 1397.06 473.846 1398.68 L473.846 1403.66 Q471.254 1401.46 468.337 1400.35 Q465.421 1399.24 462.203 1399.24 Q455.86 1399.24 452.666 1402.78 Q449.495 1406.32 449.495 1413.34 Q449.495 1420.33 452.666 1423.87 Q455.86 1427.41 462.203 1427.41 Q464.68 1427.41 466.624 1426.99 Q468.569 1426.55 470.12 1425.65 Z" fill="#000000" fill-rule="nonzero" fill-opacity="1" /><path clip-path="url(#clip840)" d="M487.967 1399.86 L487.967 1412.85 L493.846 1412.85 Q497.11 1412.85 498.893 1411.16 Q500.675 1409.47 500.675 1406.35 Q500.675 1403.24 498.893 1401.55 Q497.11 1399.86 493.846 1399.86 L487.967 1399.86 M483.291 1396.02 L493.846 1396.02 Q499.657 1396.02 502.619 1398.66 Q505.606 1401.28 505.606 1406.35 Q505.606 1411.46 502.619 1414.08 Q499.657 1416.69 493.846 1416.69 L487.967 1416.69 L487.967 1430.58 L483.291 1430.58 L483.291 1396.02 Z" fill="#000000" fill-rule="nonzero" fill-opacity="1" /><path clip-path="url(#clip840)" d="M532.596 1397.16 L532.596 1401.72 Q529.934 1400.44 527.573 1399.82 Q525.212 1399.19 523.013 1399.19 Q519.193 1399.19 517.11 1400.67 Q515.05 1402.16 515.05 1404.89 Q515.05 1407.18 516.416 1408.36 Q517.805 1409.52 521.647 1410.23 L524.471 1410.81 Q529.703 1411.81 532.179 1414.33 Q534.679 1416.83 534.679 1421.04 Q534.679 1426.07 531.3 1428.66 Q527.943 1431.25 521.439 1431.25 Q518.985 1431.25 516.207 1430.7 Q513.453 1430.14 510.49 1429.05 L510.49 1424.24 Q513.337 1425.84 516.068 1426.65 Q518.8 1427.46 521.439 1427.46 Q525.443 1427.46 527.619 1425.88 Q529.795 1424.31 529.795 1421.39 Q529.795 1418.85 528.221 1417.41 Q526.67 1415.97 523.105 1415.26 L520.258 1414.7 Q515.027 1413.66 512.689 1411.44 Q510.351 1409.22 510.351 1405.26 Q510.351 1400.67 513.568 1398.03 Q516.809 1395.4 522.48 1395.4 Q524.911 1395.4 527.434 1395.84 Q529.957 1396.28 532.596 1397.16 Z" fill="#000000" fill-rule="nonzero" fill-opacity="1" /><path clip-path="url(#clip840)" d="M562.689 1397.16 L562.689 1401.72 Q560.027 1400.44 557.665 1399.82 Q555.304 1399.19 553.105 1399.19 Q549.286 1399.19 547.203 1400.67 Q545.142 1402.16 545.142 1404.89 Q545.142 1407.18 546.508 1408.36 Q547.897 1409.52 551.74 1410.23 L554.564 1410.81 Q559.795 1411.81 562.272 1414.33 Q564.772 1416.83 564.772 1421.04 Q564.772 1426.07 561.392 1428.66 Q558.036 1431.25 551.531 1431.25 Q549.078 1431.25 546.3 1430.7 Q543.545 1430.14 540.582 1429.05 L540.582 1424.24 Q543.429 1425.84 546.161 1426.65 Q548.892 1427.46 551.531 1427.46 Q555.536 1427.46 557.712 1425.88 Q559.888 1424.31 559.888 1421.39 Q559.888 1418.85 558.314 1417.41 Q556.763 1415.97 553.198 1415.26 L550.351 1414.7 Q545.119 1413.66 542.781 1411.44 Q540.443 1409.22 540.443 1405.26 Q540.443 1400.67 543.661 1398.03 Q546.902 1395.4 552.573 1395.4 Q555.003 1395.4 557.527 1395.84 Q560.05 1396.28 562.689 1397.16 Z" fill="#000000" fill-rule="nonzero" fill-opacity="1" /></svg>
