<?xml version="1.0" encoding="utf-8"?>
<svg xmlns="http://www.w3.org/2000/svg" xmlns:xlink="http://www.w3.org/1999/xlink" width="600" height="400" viewBox="0 0 2400 1600">
<defs>
  <clipPath id="clip140">
    <rect x="0" y="0" width="2400" height="1600"/>
  </clipPath>
</defs>
<path clip-path="url(#clip140)" d="M0 1600 L2400 1600 L2400 0 L0 0  Z" fill="#ffffff" fill-rule="evenodd" fill-opacity="1"/>
<defs>
  <clipPath id="clip141">
    <rect x="480" y="0" width="1681" height="1600"/>
  </clipPath>
</defs>
<path clip-path="url(#clip140)" d="M178.867 686.448 L2352.76 686.448 L2352.76 47.2441 L178.867 47.2441  Z" fill="#ffffff" fill-rule="evenodd" fill-opacity="1"/>
<defs>
  <clipPath id="clip142">
    <rect x="178" y="47" width="2175" height="640"/>
  </clipPath>
</defs>
<polyline clip-path="url(#clip142)" style="stroke:#000000; stroke-linecap:round; stroke-linejoin:round; stroke-width:2; stroke-opacity:0.1; fill:none" points="238.339,686.448 238.339,47.2441 "/>
<polyline clip-path="url(#clip142)" style="stroke:#000000; stroke-linecap:round; stroke-linejoin:round; stroke-width:2; stroke-opacity:0.1; fill:none" points="751.562,686.448 751.562,47.2441 "/>
<polyline clip-path="url(#clip142)" style="stroke:#000000; stroke-linecap:round; stroke-linejoin:round; stroke-width:2; stroke-opacity:0.1; fill:none" points="1264.78,686.448 1264.78,47.2441 "/>
<polyline clip-path="url(#clip142)" style="stroke:#000000; stroke-linecap:round; stroke-linejoin:round; stroke-width:2; stroke-opacity:0.1; fill:none" points="1778.01,686.448 1778.01,47.2441 "/>
<polyline clip-path="url(#clip142)" style="stroke:#000000; stroke-linecap:round; stroke-linejoin:round; stroke-width:2; stroke-opacity:0.1; fill:none" points="2291.23,686.448 2291.23,47.2441 "/>
<polyline clip-path="url(#clip142)" style="stroke:#000000; stroke-linecap:round; stroke-linejoin:round; stroke-width:2; stroke-opacity:0.1; fill:none" points="178.867,686.448 2352.76,686.448 "/>
<polyline clip-path="url(#clip142)" style="stroke:#000000; stroke-linecap:round; stroke-linejoin:round; stroke-width:2; stroke-opacity:0.1; fill:none" points="178.867,526.647 2352.76,526.647 "/>
<polyline clip-path="url(#clip142)" style="stroke:#000000; stroke-linecap:round; stroke-linejoin:round; stroke-width:2; stroke-opacity:0.1; fill:none" points="178.867,366.846 2352.76,366.846 "/>
<polyline clip-path="url(#clip142)" style="stroke:#000000; stroke-linecap:round; stroke-linejoin:round; stroke-width:2; stroke-opacity:0.1; fill:none" points="178.867,207.045 2352.76,207.045 "/>
<polyline clip-path="url(#clip142)" style="stroke:#000000; stroke-linecap:round; stroke-linejoin:round; stroke-width:2; stroke-opacity:0.1; fill:none" points="178.867,47.2441 2352.76,47.2441 "/>
<polyline clip-path="url(#clip140)" style="stroke:#000000; stroke-linecap:round; stroke-linejoin:round; stroke-width:4; stroke-opacity:1; fill:none" points="178.867,686.448 2352.76,686.448 "/>
<polyline clip-path="url(#clip140)" style="stroke:#000000; stroke-linecap:round; stroke-linejoin:round; stroke-width:4; stroke-opacity:1; fill:none" points="238.339,686.448 238.339,667.55 "/>
<polyline clip-path="url(#clip140)" style="stroke:#000000; stroke-linecap:round; stroke-linejoin:round; stroke-width:4; stroke-opacity:1; fill:none" points="751.562,686.448 751.562,667.55 "/>
<polyline clip-path="url(#clip140)" style="stroke:#000000; stroke-linecap:round; stroke-linejoin:round; stroke-width:4; stroke-opacity:1; fill:none" points="1264.78,686.448 1264.78,667.55 "/>
<polyline clip-path="url(#clip140)" style="stroke:#000000; stroke-linecap:round; stroke-linejoin:round; stroke-width:4; stroke-opacity:1; fill:none" points="1778.01,686.448 1778.01,667.55 "/>
<polyline clip-path="url(#clip140)" style="stroke:#000000; stroke-linecap:round; stroke-linejoin:round; stroke-width:4; stroke-opacity:1; fill:none" points="2291.23,686.448 2291.23,667.55 "/>
<path clip-path="url(#clip140)" d="M238.339 717.367 Q234.728 717.367 232.899 720.931 Q231.094 724.473 231.094 731.603 Q231.094 738.709 232.899 742.274 Q234.728 745.815 238.339 745.815 Q241.973 745.815 243.779 742.274 Q245.607 738.709 245.607 731.603 Q245.607 724.473 243.779 720.931 Q241.973 717.367 238.339 717.367 M238.339 713.663 Q244.149 713.663 247.205 718.269 Q250.283 722.853 250.283 731.603 Q250.283 740.329 247.205 744.936 Q244.149 749.519 238.339 749.519 Q232.529 749.519 229.45 744.936 Q226.395 740.329 226.395 731.603 Q226.395 722.853 229.45 718.269 Q232.529 713.663 238.339 713.663 Z" fill="#000000" fill-rule="nonzero" fill-opacity="1" /><path clip-path="url(#clip140)" d="M715.254 744.913 L731.574 744.913 L731.574 748.848 L709.629 748.848 L709.629 744.913 Q712.291 742.158 716.875 737.528 Q721.481 732.876 722.662 731.533 Q724.907 729.01 725.787 727.274 Q726.689 725.515 726.689 723.825 Q726.689 721.07 724.745 719.334 Q722.824 717.598 719.722 717.598 Q717.523 717.598 715.069 718.362 Q712.638 719.126 709.861 720.677 L709.861 715.955 Q712.685 714.82 715.138 714.242 Q717.592 713.663 719.629 713.663 Q725 713.663 728.194 716.348 Q731.388 719.033 731.388 723.524 Q731.388 725.654 730.578 727.575 Q729.791 729.473 727.685 732.066 Q727.106 732.737 724.004 735.954 Q720.902 739.149 715.254 744.913 Z" fill="#000000" fill-rule="nonzero" fill-opacity="1" /><path clip-path="url(#clip140)" d="M741.435 714.288 L759.791 714.288 L759.791 718.223 L745.717 718.223 L745.717 726.695 Q746.736 726.348 747.754 726.186 Q748.773 726.001 749.791 726.001 Q755.578 726.001 758.958 729.172 Q762.337 732.343 762.337 737.76 Q762.337 743.339 758.865 746.44 Q755.393 749.519 749.073 749.519 Q746.898 749.519 744.629 749.149 Q742.384 748.778 739.976 748.038 L739.976 743.339 Q742.06 744.473 744.282 745.028 Q746.504 745.584 748.981 745.584 Q752.985 745.584 755.323 743.478 Q757.661 741.371 757.661 737.76 Q757.661 734.149 755.323 732.042 Q752.985 729.936 748.981 729.936 Q747.106 729.936 745.231 730.353 Q743.379 730.769 741.435 731.649 L741.435 714.288 Z" fill="#000000" fill-rule="nonzero" fill-opacity="1" /><path clip-path="url(#clip140)" d="M781.55 717.367 Q777.939 717.367 776.11 720.931 Q774.305 724.473 774.305 731.603 Q774.305 738.709 776.11 742.274 Q777.939 745.815 781.55 745.815 Q785.184 745.815 786.99 742.274 Q788.819 738.709 788.819 731.603 Q788.819 724.473 786.99 720.931 Q785.184 717.367 781.55 717.367 M781.55 713.663 Q787.36 713.663 790.416 718.269 Q793.495 722.853 793.495 731.603 Q793.495 740.329 790.416 744.936 Q787.36 749.519 781.55 749.519 Q775.74 749.519 772.661 744.936 Q769.606 740.329 769.606 731.603 Q769.606 722.853 772.661 718.269 Q775.74 713.663 781.55 713.663 Z" fill="#000000" fill-rule="nonzero" fill-opacity="1" /><path clip-path="url(#clip140)" d="M1224.4 714.288 L1242.76 714.288 L1242.76 718.223 L1228.69 718.223 L1228.69 726.695 Q1229.7 726.348 1230.72 726.186 Q1231.74 726.001 1232.76 726.001 Q1238.55 726.001 1241.93 729.172 Q1245.31 732.343 1245.31 737.76 Q1245.31 743.339 1241.83 746.44 Q1238.36 749.519 1232.04 749.519 Q1229.87 749.519 1227.6 749.149 Q1225.35 748.778 1222.94 748.038 L1222.94 743.339 Q1225.03 744.473 1227.25 745.028 Q1229.47 745.584 1231.95 745.584 Q1235.95 745.584 1238.29 743.478 Q1240.63 741.371 1240.63 737.76 Q1240.63 734.149 1238.29 732.042 Q1235.95 729.936 1231.95 729.936 Q1230.07 729.936 1228.2 730.353 Q1226.35 730.769 1224.4 731.649 L1224.4 714.288 Z" fill="#000000" fill-rule="nonzero" fill-opacity="1" /><path clip-path="url(#clip140)" d="M1264.52 717.367 Q1260.91 717.367 1259.08 720.931 Q1257.27 724.473 1257.27 731.603 Q1257.27 738.709 1259.08 742.274 Q1260.91 745.815 1264.52 745.815 Q1268.15 745.815 1269.96 742.274 Q1271.79 738.709 1271.79 731.603 Q1271.79 724.473 1269.96 720.931 Q1268.15 717.367 1264.52 717.367 M1264.52 713.663 Q1270.33 713.663 1273.38 718.269 Q1276.46 722.853 1276.46 731.603 Q1276.46 740.329 1273.38 744.936 Q1270.33 749.519 1264.52 749.519 Q1258.71 749.519 1255.63 744.936 Q1252.57 740.329 1252.57 731.603 Q1252.57 722.853 1255.63 718.269 Q1258.71 713.663 1264.52 713.663 Z" fill="#000000" fill-rule="nonzero" fill-opacity="1" /><path clip-path="url(#clip140)" d="M1294.68 717.367 Q1291.07 717.367 1289.24 720.931 Q1287.44 724.473 1287.44 731.603 Q1287.44 738.709 1289.24 742.274 Q1291.07 745.815 1294.68 745.815 Q1298.31 745.815 1300.12 742.274 Q1301.95 738.709 1301.95 731.603 Q1301.95 724.473 1300.12 720.931 Q1298.31 717.367 1294.68 717.367 M1294.68 713.663 Q1300.49 713.663 1303.55 718.269 Q1306.62 722.853 1306.62 731.603 Q1306.62 740.329 1303.55 744.936 Q1300.49 749.519 1294.68 749.519 Q1288.87 749.519 1285.79 744.936 Q1282.74 740.329 1282.74 731.603 Q1282.74 722.853 1285.79 718.269 Q1288.87 713.663 1294.68 713.663 Z" fill="#000000" fill-rule="nonzero" fill-opacity="1" /><path clip-path="url(#clip140)" d="M1736.28 714.288 L1758.51 714.288 L1758.51 716.279 L1745.96 748.848 L1741.08 748.848 L1752.88 718.223 L1736.28 718.223 L1736.28 714.288 Z" fill="#000000" fill-rule="nonzero" fill-opacity="1" /><path clip-path="url(#clip140)" d="M1767.67 714.288 L1786.03 714.288 L1786.03 718.223 L1771.95 718.223 L1771.95 726.695 Q1772.97 726.348 1773.99 726.186 Q1775.01 726.001 1776.03 726.001 Q1781.82 726.001 1785.2 729.172 Q1788.57 732.343 1788.57 737.76 Q1788.57 743.339 1785.1 746.44 Q1781.63 749.519 1775.31 749.519 Q1773.14 749.519 1770.87 749.149 Q1768.62 748.778 1766.21 748.038 L1766.21 743.339 Q1768.3 744.473 1770.52 745.028 Q1772.74 745.584 1775.22 745.584 Q1779.22 745.584 1781.56 743.478 Q1783.9 741.371 1783.9 737.76 Q1783.9 734.149 1781.56 732.042 Q1779.22 729.936 1775.22 729.936 Q1773.34 729.936 1771.47 730.353 Q1769.62 730.769 1767.67 731.649 L1767.67 714.288 Z" fill="#000000" fill-rule="nonzero" fill-opacity="1" /><path clip-path="url(#clip140)" d="M1807.79 717.367 Q1804.18 717.367 1802.35 720.931 Q1800.54 724.473 1800.54 731.603 Q1800.54 738.709 1802.35 742.274 Q1804.18 745.815 1807.79 745.815 Q1811.42 745.815 1813.23 742.274 Q1815.06 738.709 1815.06 731.603 Q1815.06 724.473 1813.23 720.931 Q1811.42 717.367 1807.79 717.367 M1807.79 713.663 Q1813.6 713.663 1816.65 718.269 Q1819.73 722.853 1819.73 731.603 Q1819.73 740.329 1816.65 744.936 Q1813.6 749.519 1807.79 749.519 Q1801.98 749.519 1798.9 744.936 Q1795.84 740.329 1795.84 731.603 Q1795.84 722.853 1798.9 718.269 Q1801.98 713.663 1807.79 713.663 Z" fill="#000000" fill-rule="nonzero" fill-opacity="1" /><path clip-path="url(#clip140)" d="M2235.76 744.913 L2243.4 744.913 L2243.4 718.547 L2235.09 720.214 L2235.09 715.955 L2243.35 714.288 L2248.02 714.288 L2248.02 744.913 L2255.66 744.913 L2255.66 748.848 L2235.76 748.848 L2235.76 744.913 Z" fill="#000000" fill-rule="nonzero" fill-opacity="1" /><path clip-path="url(#clip140)" d="M2275.11 717.367 Q2271.5 717.367 2269.67 720.931 Q2267.86 724.473 2267.86 731.603 Q2267.86 738.709 2269.67 742.274 Q2271.5 745.815 2275.11 745.815 Q2278.74 745.815 2280.55 742.274 Q2282.38 738.709 2282.38 731.603 Q2282.38 724.473 2280.55 720.931 Q2278.74 717.367 2275.11 717.367 M2275.11 713.663 Q2280.92 713.663 2283.97 718.269 Q2287.05 722.853 2287.05 731.603 Q2287.05 740.329 2283.97 744.936 Q2280.92 749.519 2275.11 749.519 Q2269.3 749.519 2266.22 744.936 Q2263.16 740.329 2263.16 731.603 Q2263.16 722.853 2266.22 718.269 Q2269.3 713.663 2275.11 713.663 Z" fill="#000000" fill-rule="nonzero" fill-opacity="1" /><path clip-path="url(#clip140)" d="M2305.27 717.367 Q2301.66 717.367 2299.83 720.931 Q2298.02 724.473 2298.02 731.603 Q2298.02 738.709 2299.83 742.274 Q2301.66 745.815 2305.27 745.815 Q2308.9 745.815 2310.71 742.274 Q2312.54 738.709 2312.54 731.603 Q2312.54 724.473 2310.71 720.931 Q2308.9 717.367 2305.27 717.367 M2305.27 713.663 Q2311.08 713.663 2314.14 718.269 Q2317.21 722.853 2317.21 731.603 Q2317.21 740.329 2314.14 744.936 Q2311.08 749.519 2305.27 749.519 Q2299.46 749.519 2296.38 744.936 Q2293.33 740.329 2293.33 731.603 Q2293.33 722.853 2296.38 718.269 Q2299.46 713.663 2305.27 713.663 Z" fill="#000000" fill-rule="nonzero" fill-opacity="1" /><path clip-path="url(#clip140)" d="M2335.43 717.367 Q2331.82 717.367 2329.99 720.931 Q2328.19 724.473 2328.19 731.603 Q2328.19 738.709 2329.99 742.274 Q2331.82 745.815 2335.43 745.815 Q2339.07 745.815 2340.87 742.274 Q2342.7 738.709 2342.7 731.603 Q2342.7 724.473 2340.87 720.931 Q2339.07 717.367 2335.43 717.367 M2335.43 713.663 Q2341.24 713.663 2344.3 718.269 Q2347.38 722.853 2347.38 731.603 Q2347.38 740.329 2344.3 744.936 Q2341.24 749.519 2335.43 749.519 Q2329.62 749.519 2326.54 744.936 Q2323.49 740.329 2323.49 731.603 Q2323.49 722.853 2326.54 718.269 Q2329.62 713.663 2335.43 713.663 Z" fill="#000000" fill-rule="nonzero" fill-opacity="1" /><polyline clip-path="url(#clip140)" style="stroke:#000000; stroke-linecap:round; stroke-linejoin:round; stroke-width:4; stroke-opacity:1; fill:none" points="178.867,686.448 178.867,47.2441 "/>
<polyline clip-path="url(#clip140)" style="stroke:#000000; stroke-linecap:round; stroke-linejoin:round; stroke-width:4; stroke-opacity:1; fill:none" points="178.867,686.448 197.764,686.448 "/>
<polyline clip-path="url(#clip140)" style="stroke:#000000; stroke-linecap:round; stroke-linejoin:round; stroke-width:4; stroke-opacity:1; fill:none" points="178.867,526.647 197.764,526.647 "/>
<polyline clip-path="url(#clip140)" style="stroke:#000000; stroke-linecap:round; stroke-linejoin:round; stroke-width:4; stroke-opacity:1; fill:none" points="178.867,366.846 197.764,366.846 "/>
<polyline clip-path="url(#clip140)" style="stroke:#000000; stroke-linecap:round; stroke-linejoin:round; stroke-width:4; stroke-opacity:1; fill:none" points="178.867,207.045 197.764,207.045 "/>
<polyline clip-path="url(#clip140)" style="stroke:#000000; stroke-linecap:round; stroke-linejoin:round; stroke-width:4; stroke-opacity:1; fill:none" points="178.867,47.2441 197.764,47.2441 "/>
<path clip-path="url(#clip140)" d="M50.9921 686.899 L80.6679 686.899 L80.6679 690.834 L50.9921 690.834 L50.9921 686.899 Z" fill="#000000" fill-rule="nonzero" fill-opacity="1" /><path clip-path="url(#clip140)" d="M91.5706 699.793 L99.2095 699.793 L99.2095 673.427 L90.8993 675.094 L90.8993 670.835 L99.1632 669.168 L103.839 669.168 L103.839 699.793 L111.478 699.793 L111.478 703.728 L91.5706 703.728 L91.5706 699.793 Z" fill="#000000" fill-rule="nonzero" fill-opacity="1" /><path clip-path="url(#clip140)" d="M130.922 672.247 Q127.311 672.247 125.482 675.811 Q123.677 679.353 123.677 686.483 Q123.677 693.589 125.482 697.154 Q127.311 700.695 130.922 700.695 Q134.556 700.695 136.362 697.154 Q138.191 693.589 138.191 686.483 Q138.191 679.353 136.362 675.811 Q134.556 672.247 130.922 672.247 M130.922 668.543 Q136.732 668.543 139.788 673.149 Q142.867 677.733 142.867 686.483 Q142.867 695.209 139.788 699.816 Q136.732 704.399 130.922 704.399 Q125.112 704.399 122.033 699.816 Q118.978 695.209 118.978 686.483 Q118.978 677.733 122.033 673.149 Q125.112 668.543 130.922 668.543 Z" fill="#000000" fill-rule="nonzero" fill-opacity="1" /><path clip-path="url(#clip140)" d="M82.1494 527.098 L111.825 527.098 L111.825 531.033 L82.1494 531.033 L82.1494 527.098 Z" fill="#000000" fill-rule="nonzero" fill-opacity="1" /><path clip-path="url(#clip140)" d="M121.964 509.367 L140.32 509.367 L140.32 513.302 L126.246 513.302 L126.246 521.774 Q127.265 521.427 128.283 521.265 Q129.302 521.08 130.32 521.08 Q136.107 521.08 139.487 524.251 Q142.867 527.422 142.867 532.839 Q142.867 538.418 139.394 541.52 Q135.922 544.598 129.603 544.598 Q127.427 544.598 125.158 544.228 Q122.913 543.857 120.506 543.117 L120.506 538.418 Q122.589 539.552 124.811 540.108 Q127.033 540.663 129.51 540.663 Q133.515 540.663 135.853 538.557 Q138.191 536.45 138.191 532.839 Q138.191 529.228 135.853 527.121 Q133.515 525.015 129.51 525.015 Q127.635 525.015 125.76 525.432 Q123.908 525.848 121.964 526.728 L121.964 509.367 Z" fill="#000000" fill-rule="nonzero" fill-opacity="1" /><path clip-path="url(#clip140)" d="M130.922 352.645 Q127.311 352.645 125.482 356.209 Q123.677 359.751 123.677 366.881 Q123.677 373.987 125.482 377.552 Q127.311 381.094 130.922 381.094 Q134.556 381.094 136.362 377.552 Q138.191 373.987 138.191 366.881 Q138.191 359.751 136.362 356.209 Q134.556 352.645 130.922 352.645 M130.922 348.941 Q136.732 348.941 139.788 353.547 Q142.867 358.131 142.867 366.881 Q142.867 375.608 139.788 380.214 Q136.732 384.797 130.922 384.797 Q125.112 384.797 122.033 380.214 Q118.978 375.608 118.978 366.881 Q118.978 358.131 122.033 353.547 Q125.112 348.941 130.922 348.941 Z" fill="#000000" fill-rule="nonzero" fill-opacity="1" /><path clip-path="url(#clip140)" d="M121.964 189.765 L140.32 189.765 L140.32 193.7 L126.246 193.7 L126.246 202.172 Q127.265 201.825 128.283 201.663 Q129.302 201.478 130.32 201.478 Q136.107 201.478 139.487 204.649 Q142.867 207.82 142.867 213.237 Q142.867 218.816 139.394 221.918 Q135.922 224.996 129.603 224.996 Q127.427 224.996 125.158 224.626 Q122.913 224.256 120.506 223.515 L120.506 218.816 Q122.589 219.95 124.811 220.506 Q127.033 221.061 129.51 221.061 Q133.515 221.061 135.853 218.955 Q138.191 216.848 138.191 213.237 Q138.191 209.626 135.853 207.52 Q133.515 205.413 129.51 205.413 Q127.635 205.413 125.76 205.83 Q123.908 206.246 121.964 207.126 L121.964 189.765 Z" fill="#000000" fill-rule="nonzero" fill-opacity="1" /><path clip-path="url(#clip140)" d="M91.5706 60.5889 L99.2095 60.5889 L99.2095 34.2233 L90.8993 35.89 L90.8993 31.6308 L99.1632 29.9641 L103.839 29.9641 L103.839 60.5889 L111.478 60.5889 L111.478 64.5241 L91.5706 64.5241 L91.5706 60.5889 Z" fill="#000000" fill-rule="nonzero" fill-opacity="1" /><path clip-path="url(#clip140)" d="M130.922 33.0428 Q127.311 33.0428 125.482 36.6076 Q123.677 40.1492 123.677 47.2788 Q123.677 54.3853 125.482 57.9501 Q127.311 61.4917 130.922 61.4917 Q134.556 61.4917 136.362 57.9501 Q138.191 54.3853 138.191 47.2788 Q138.191 40.1492 136.362 36.6076 Q134.556 33.0428 130.922 33.0428 M130.922 29.3391 Q136.732 29.3391 139.788 33.9456 Q142.867 38.5289 142.867 47.2788 Q142.867 56.0056 139.788 60.6121 Q136.732 65.1954 130.922 65.1954 Q125.112 65.1954 122.033 60.6121 Q118.978 56.0056 118.978 47.2788 Q118.978 38.5289 122.033 33.9456 Q125.112 29.3391 130.922 29.3391 Z" fill="#000000" fill-rule="nonzero" fill-opacity="1" /><polyline clip-path="url(#clip142)" style="stroke:#009af9; stroke-linecap:round; stroke-linejoin:round; stroke-width:4; stroke-opacity:1; fill:none" points="240.392,334.886 242.445,338.812 244.498,336.292 246.55,322.037 248.603,324.842 250.656,332.737 252.709,339.648 254.762,339.658 256.815,344.929 258.868,348.725 260.921,348.72 262.974,368.805 265.027,363.011 267.079,356.388 269.132,359.904 271.185,360.098 273.238,375.006 275.291,377.212 277.344,351.511 279.397,356.143 281.45,356.318 283.503,352.896 285.555,353.838 287.608,349.561 289.661,354.37 291.714,351.967 293.767,353.259 295.82,353.036 297.873,351.464 299.926,344.034 301.979,354.764 304.031,370.88 306.084,361.13 308.137,355.33 310.19,359.957 312.243,360.298 314.296,360.198 316.349,360.255 318.402,382.062 320.455,386.583 322.507,387.66 324.56,394.265 326.613,401.986 328.666,402.066 330.719,402.493 332.772,406.584 334.825,410.228 336.878,407.335 338.931,394.532 340.984,372.461 343.036,372.805 345.089,372.805 347.142,354.877 349.195,351.759 351.248,336.005 353.301,350.906 355.354,363.587 357.407,412.566 359.46,411.218 361.512,429.917 363.565,421.67 365.618,421.678 367.671,422.243 369.724,422.66 371.777,409.447 373.83,409.666 375.883,388.408 377.936,421.749 379.988,417.393 382.041,466.136 384.094,466.576 386.147,466.538 388.2,471.92 390.253,465.781 392.306,466.886 394.359,413.525 396.412,398.01 398.464,389.539 400.517,377.939 402.57,394.829 404.623,326.559 406.676,314.461 408.729,317.053 410.782,319.871 412.835,319.703 414.888,318.201 416.94,305.819 418.993,347.429 421.046,357.155 423.099,359.146 425.152,353.133 427.205,358.451 429.258,333.986 431.311,177.644 433.364,263.484 435.417,250.605 437.469,243.16 439.522,265.067 441.575,225.481 443.628,211.906 445.681,304.538 447.734,306.948 449.787,297.983 451.84,431.16 453.893,431.232 455.945,430.769 457.998,431.297 460.051,389.016 462.104,380.517 464.157,385.998 466.21,405.358 468.263,396.988 470.316,392.909 472.369,463.088 474.421,453.736 476.474,348.62 478.527,314.404 480.58,409.201 482.633,406.475 484.686,415.811 486.739,363.121 488.792,370.522 490.845,384.36 492.897,409.774 494.95,505.345 497.003,518.778 499.056,485.072 501.109,483.484 503.162,495.8 505.215,436.628 507.268,381.103 509.321,362.31 511.374,419.259 513.426,539.549 515.479,534.355 517.532,514.538 519.585,514.574 521.638,481.961 523.691,470.451 525.744,388.508 527.797,369.268 529.85,368.091 531.902,330.56 533.955,317.855 536.008,380.117 538.061,380.835 540.114,373.356 542.167,373.474 544.22,373.468 546.273,447.332 548.326,436.865 550.378,433.932 552.431,607.448 554.484,819.274 556.537,575.249 558.59,412.215 560.643,300.484 562.696,332.317 564.749,331.535 566.802,353.676 568.854,352.424 570.907,353.916 572.96,321.386 575.013,325.517 577.066,331.081 579.119,317.62 581.172,280.781 583.225,244.195 585.278,311.161 587.331,311.799 589.383,310.237 591.436,277.478 593.489,309.268 595.542,253.855 597.595,126.162 599.648,190.838 601.701,159.45 603.754,485.535 605.807,373.995 607.859,383.306 609.912,393.94 611.965,436.977 614.018,442.179 616.071,445.918 618.124,289.379 620.177,263.317 622.23,180.852 624.283,270.655 626.335,347.319 628.388,426.153 630.441,372.82 632.494,394.339 634.547,406.464 636.6,392.967 638.653,372.518 640.706,431.549 642.759,435.539 644.811,448.081 646.864,420.074 648.917,335.481 650.97,337.963 653.023,368.397 655.076,244.912 657.129,260.926 659.182,262.852 661.235,253.55 663.288,247.857 665.34,246.312 667.393,245.995 669.446,247.753 671.499,251.655 673.552,207.427 675.605,284.612 677.658,285.416 679.711,308.861 681.764,303.084 683.816,326.64 685.869,321.224 687.922,369.834 689.975,382.326 692.028,382.285 694.081,361.332 696.134,350.94 698.187,349.953 700.24,400.318 702.292,396.69 704.345,392.236 706.398,352.581 708.451,350.489 710.504,345.017 712.557,356.269 714.61,351.062 716.663,343.677 718.716,343.476 720.768,334.328 722.821,334.189 724.874,320.417 726.927,322.473 728.98,322.475 731.033,305.676 733.086,305.088 735.139,308.634 737.192,310.368 739.245,311.07 741.297,299.504 743.35,297.027 745.403,292.373 747.456,291.839 749.509,294.204 751.562,343.22 753.615,339.012 755.668,368.441 757.721,362.531 759.773,449.744 761.826,373.815 763.879,378.515 765.932,382.652 767.985,382.742 770.038,382.868 772.091,382.891 774.144,392.751 776.197,392.378 778.249,393.076 780.302,390.339 782.355,391.812 784.408,397.288 786.461,396.912 788.514,397.858 790.567,406.35 792.62,480.828 794.673,477.644 796.725,471.645 798.778,470.743 800.831,477.22 802.884,475.76 804.937,476.088 806.99,388.691 809.043,385.81 811.096,385.353 813.149,369.546 815.202,387.869 817.254,365.249 819.307,360.313 821.36,360.905 823.413,346.291 825.466,345.125 827.519,346.446 829.572,355.664 831.625,355.231 833.678,354.561 835.73,333.649 837.783,334.079 839.836,334.458 841.889,340.611 843.942,336.36 845.995,338.051 848.048,338.076 850.101,330.041 852.154,330.088 854.206,330.155 856.259,331.571 858.312,335.248 860.365,335.435 862.418,337.758 864.471,329.814 866.524,324.391 868.577,337.532 870.63,345.199 872.682,346.078 874.735,341.441 876.788,343.789 878.841,418.942 880.894,406.951 882.947,413.29 885,422.672 887.053,455.798 889.106,455.62 891.159,456.686 893.211,464.048 895.264,431.583 897.317,417.376 899.37,420.085 901.423,420.23 903.476,426.195 905.529,395.221 907.582,390.676 909.635,383.037 911.687,388.931 913.74,389.885 915.793,384.274 917.846,385.952 919.899,378.799 921.952,384.636 924.005,384.475 926.058,318.502 928.111,302.537 930.163,302.46 932.216,300.292 934.269,319.015 936.322,327.284 938.375,374.343 940.428,368.565 942.481,438.313 944.534,434.383 946.587,441.441 948.639,445.829 950.692,445.584 952.745,444.622 954.798,398.849 956.851,392.51 958.904,391.932 960.957,394.211 963.01,394.226 965.063,400.942 967.116,400.604 969.168,411.512 971.221,417.913 973.274,418.147 975.327,414.095 977.38,423.399 979.433,422.991 981.486,430.207 983.539,425.212 985.592,421.104 987.644,413.726 989.697,413.146 991.75,413.383 993.803,416.708 995.856,416.699 997.909,416.809 999.962,417.022 1002.01,396.304 1004.07,397.694 1006.12,402.868 1008.17,414.843 1010.23,418.952 1012.28,414.228 1014.33,410.714 1016.38,410.601 1018.44,406.214 1020.49,245.809 1022.54,248.087 1024.6,272.308 1026.65,272.374 1028.7,305.686 1030.76,313.15 1032.81,450.678 1034.86,451.508 1036.91,446.113 1038.97,446.108 1041.02,387.561 1043.07,387.447 1045.13,389.962 1047.18,376.656 1049.23,362.518 1051.28,362.22 1053.34,364.756 1055.39,365.921 1057.44,366.841 1059.5,363.033 1061.55,359.81 1063.6,401.018 1065.65,407.823 1067.71,379.289 1069.76,379.734 1071.81,363.533 1073.87,354.993 1075.92,366.697 1077.97,466.65 1080.02,468.739 1082.08,468.053 1084.13,484.069 1086.18,394.509 1088.24,394.676 1090.29,391.348 1092.34,386.708 1094.39,395.405 1096.45,378.681 1098.5,397.22 1100.55,427.627 1102.61,415.204 1104.66,420.185 1106.71,422.428 1108.77,438.852 1110.82,416.037 1112.87,431.553 1114.92,433.325 1116.98,435.201 1119.03,430.655 1121.08,427.497 1123.14,430.753 1125.19,425.957 1127.24,425.623 1129.29,429.03 1131.35,431.442 1133.4,428.497 1135.45,417.584 1137.51,419.575 1139.56,412.668 1141.61,412.812 1143.66,405.737 1145.72,404.886 1147.77,351.921 1149.82,358.12 1151.88,361.865 1153.93,371.255 1155.98,374.703 1158.03,347.52 1160.09,363.453 1162.14,364.246 1164.19,364.335 1166.25,377.935 1168.3,377.232 1170.35,376.941 1172.4,363.144 1174.46,358.812 1176.51,355.201 1178.56,355.205 1180.62,370.533 1182.67,370.594 1184.72,367.64 1186.77,367.644 1188.83,366.977 1190.88,366.764 1192.93,366.123 1194.99,364.723 1197.04,370.161 1199.09,369.043 1201.15,363.484 1203.2,361.749 1205.25,325.371 1207.3,324.887 1209.36,355.945 1211.41,355.806 1213.46,379.585 1215.52,399.857 1217.57,374.418 1219.62,374.591 1221.67,344.917 1223.73,346.989 1225.78,348.781 1227.83,348.486 1229.89,317.237 1231.94,307.268 1233.99,309.163 1236.04,309.075 1238.1,317.36 1240.15,317.48 1242.2,316.971 1244.26,352.842 1246.31,357.594 1248.36,372.234 1250.41,375.226 1252.47,370.026 1254.52,351.648 1256.57,351.529 1258.63,353.526 1260.68,352.27 1262.73,354.729 1264.78,355.727 1266.84,353.278 1268.89,358.947 1270.94,350.14 1273,338.001 1275.05,372.56 1277.1,353.592 1279.16,351.804 1281.21,348.378 1283.26,390.801 1285.31,391.409 1287.37,395.619 1289.42,406.686 1291.47,416.603 1293.53,393.248 1295.58,391.006 1297.63,401.581 1299.68,401.424 1301.74,318.277 1303.79,354.984 1305.84,376.592 1307.9,394.459 1309.95,382.796 1312,382.321 1314.05,371.556 1316.11,371.405 1318.16,368.294 1320.21,368.442 1322.27,404.521 1324.32,403.652 1326.37,398.828 1328.42,398.663 1330.48,404.436 1332.53,406.295 1334.58,403.457 1336.64,390.938 1338.69,391.184 1340.74,391.655 1342.79,391.671 1344.85,403.147 1346.9,403.07 1348.95,404.161 1351.01,407.005 1353.06,400.916 1355.11,404.735 1357.16,342.947 1359.22,333.753 1361.27,415.599 1363.32,430.023 1365.38,429.143 1367.43,429.197 1369.48,433.447 1371.54,428.211 1373.59,403.665 1375.64,437.812 1377.69,412.734 1379.75,390.546 1381.8,384.274 1383.85,390.837 1385.91,403.701 1387.96,404.822 1390.01,404.66 1392.06,404.782 1394.12,404.612 1396.17,469.253 1398.22,468.159 1400.28,466.601 1402.33,452.603 1404.38,382.504 1406.43,384.035 1408.49,382.982 1410.54,410.858 1412.59,410.958 1414.65,410.751 1416.7,396.413 1418.75,392.224 1420.8,388.387 1422.86,388.044 1424.91,388.49 1426.96,491.436 1429.02,508.837 1431.07,509.43 1433.12,512.988 1435.17,508.794 1437.23,497.452 1439.28,383.486 1441.33,379.249 1443.39,335.039 1445.44,339.46 1447.49,318.622 1449.55,316.9 1451.6,366.467 1453.65,345.421 1455.7,382.477 1457.76,384.563 1459.81,349.558 1461.86,334.202 1463.92,338.774 1465.97,312.055 1468.02,322.844 1470.07,306.807 1472.13,304.59 1474.18,315.307 1476.23,277.977 1478.29,266.453 1480.34,282.285 1482.39,282.328 1484.44,243.183 1486.5,240.11 1488.55,240.474 1490.6,250.939 1492.66,251.804 1494.71,262.642 1496.76,263.013 1498.81,286.364 1500.87,338.166 1502.92,416.51 1504.97,325.763 1507.03,357.443 1509.08,345.958 1511.13,321.339 1513.18,337.769 1515.24,339.384 1517.29,354.175 1519.34,342.734 1521.4,339.376 1523.45,340.499 1525.5,418.528 1527.55,382.836 1529.61,381.601 1531.66,386.982 1533.71,386.889 1535.77,385.072 1537.82,384.543 1539.87,397.561 1541.93,421.35 1543.98,421.098 1546.03,424.748 1548.08,327.11 1550.14,336.766 1552.19,336.381 1554.24,322.623 1556.3,326.488 1558.35,327.61 1560.4,333.793 1562.45,326.788 1564.51,355.632 1566.56,353.126 1568.61,351.91 1570.67,352.579 1572.72,372.726 1574.77,372.515 1576.82,374.211 1578.88,380.446 1580.93,380.441 1582.98,381.644 1585.04,390.269 1587.09,381.104 1589.14,380.541 1591.19,379.442 1593.25,384.792 1595.3,388.062 1597.35,363.259 1599.41,375.844 1601.46,376.544 1603.51,376.434 1605.56,376.673 1607.62,368.116 1609.67,368.134 1611.72,372.382 1613.78,375.571 1615.83,373.97 1617.88,374.286 1619.94,364.693 1621.99,365.382 1624.04,365.352 1626.09,365.321 1628.15,365.8 1630.2,340.183 1632.25,340.253 1634.31,332.578 1636.36,331.381 1638.41,331.693 1640.46,334.66 1642.52,334.671 1644.57,334.959 1646.62,337.014 1648.68,339.105 1650.73,354.003 1652.78,354.091 1654.83,351.531 1656.89,346.018 1658.94,344.959 1660.99,345.282 1663.05,341.555 1665.1,417.813 1667.15,419.669 1669.2,420.499 1671.26,400.301 1673.31,395.858 1675.36,403.12 1677.42,393.456 1679.47,378.48 1681.52,376.869 1683.57,373.716 1685.63,374.596 1687.68,374.277 1689.73,375.244 1691.79,373.682 1693.84,373.805 1695.89,374.283 1697.94,364.046 1700,354.116 1702.05,354.07 1704.1,362.487 1706.16,362.305 1708.21,351.33 1710.26,352.714 1712.32,356.299 1714.37,377.732 1716.42,330.836 1718.47,330.795 1720.53,343.262 1722.58,355.153 1724.63,354.996 1726.69,354.817 1728.74,355.065 1730.79,357.113 1732.84,355.727 1734.9,374.584 1736.95,355.015 1739,363.097 1741.06,367.822 1743.11,375.141 1745.16,379.656 1747.21,371.418 1749.27,349.277 1751.32,343.654 1753.37,360.39 1755.43,337.435 1757.48,327.158 1759.53,350.163 1761.58,361.865 1763.64,364.498 1765.69,364.345 1767.74,364.982 1769.8,378.106 1771.85,365.603 1773.9,363.566 1775.95,355.621 1778.01,353.828 1780.06,355.538 1782.11,352.824 1784.17,352.478 1786.22,352.002 1788.27,361.356 1790.33,356.523 1792.38,359.888 1794.43,360.937 1796.48,366.242 1798.54,367.176 1800.59,394.207 1802.64,394.413 1804.7,395.497 1806.75,395.44 1808.8,397.989 1810.85,397.817 1812.91,397.686 1814.96,380.481 1817.01,384.871 1819.07,388.684 1821.12,385.879 1823.17,379.048 1825.22,380.682 1827.28,380.846 1829.33,401.32 1831.38,401.371 1833.44,402.587 1835.49,404.634 1837.54,405.915 1839.59,402.002 1841.65,400.443 1843.7,404.292 1845.75,377.645 1847.81,377.973 1849.86,346.54 1851.91,345.642 1853.96,365.396 1856.02,365.837 1858.07,367.504 1860.12,370.493 1862.18,347.571 1864.23,350.269 1866.28,347.235 1868.34,351.489 1870.39,352.059 1872.44,351.452 1874.49,353.671 1876.55,353.742 1878.6,353.541 1880.65,354.818 1882.71,356.594 1884.76,356.114 1886.81,353.844 1888.86,353.215 1890.92,353.124 1892.97,371.722 1895.02,371.41 1897.08,353.931 1899.13,359.166 1901.18,359.366 1903.23,359.623 1905.29,359.494 1907.34,359.533 1909.39,359.574 1911.45,361.784 1913.5,394.722 1915.55,394.543 1917.6,398.645 1919.66,394.966 1921.71,412.628 1923.76,423.532 1925.82,395.588 1927.87,396.18 1929.92,385.791 1931.97,357.119 1934.03,355.311 1936.08,333.629 1938.13,333.586 1940.19,336.238 1942.24,374.516 1944.29,374.52 1946.34,379.266 1948.4,385.494 1950.45,391.406 1952.5,391.178 1954.56,390.964 1956.61,389.568 1958.66,387.369 1960.72,382.267 1962.77,371.062 1964.82,377.636 1966.87,369.025 1968.93,380.159 1970.98,379.406 1973.03,379.122 1975.09,378.266 1977.14,377.589 1979.19,380.761 1981.24,380.692 1983.3,380.211 1985.35,378.956 1987.4,365.358 1989.46,362.442 1991.51,361.601 1993.56,364.51 1995.61,369.1 1997.67,369.254 1999.72,369.23 2001.77,368.356 2003.83,368.34 2005.88,367.515 2007.93,367.187 2009.98,352.2 2012.04,352.199 2014.09,365.229 2016.14,369.13 2018.2,369.37 2020.25,369.681 2022.3,367.526 2024.35,367.087 2026.41,366.992 2028.46,373.155 2030.51,377.333 2032.57,376.977 2034.62,347.701 2036.67,382.218 2038.73,383.379 2040.78,393.069 2042.83,393.286 2044.88,393.417 2046.94,375.107 2048.99,375.044 2051.04,374.295 2053.1,374.18 2055.15,374.662 2057.2,375.197 2059.25,371.566 2061.31,372.936 2063.36,386.036 2065.41,382.128 2067.47,381.274 2069.52,361.644 2071.57,346.558 2073.62,337.323 2075.68,368.594 2077.73,377.083 2079.78,377.342 2081.84,363.538 2083.89,332.46 2085.94,292.406 2087.99,316.17 2090.05,321.957 2092.1,327.604 2094.15,322.646 2096.21,346.975 2098.26,346.771 2100.31,333.509 2102.36,331.339 2104.42,324.937 2106.47,325.007 2108.52,342.352 2110.58,359.736 2112.63,416.973 2114.68,411.625 2116.73,411.202 2118.79,399.806 2120.84,407.756 2122.89,406.026 2124.95,407.778 2127,408.598 2129.05,404.196 2131.11,392.689 2133.16,390.699 2135.21,392.751 2137.26,394.489 2139.32,382.04 2141.37,381.698 2143.42,345.276 2145.48,361.257 2147.53,285.515 2149.58,251.359 2151.63,377.277 2153.69,375.116 2155.74,377.075 2157.79,391.669 2159.85,388.546 2161.9,363.123 2163.95,363.504 2166,364.261 2168.06,222.79 2170.11,434.465 2172.16,398.557 2174.22,394.936 2176.27,270.437 2178.32,262.254 2180.37,254.006 2182.43,434.292 2184.48,438.584 2186.53,444.32 2188.59,437.144 2190.64,407.359 2192.69,407.2 2194.74,382.804 2196.8,291.812 2198.85,317.159 2200.9,317.842 2202.96,332.801 2205.01,343.315 2207.06,321.438 2209.12,367.772 2211.17,406.682 2213.22,412.79 2215.27,400.796 2217.33,472.495 2219.38,428.213 2221.43,426.964 2223.49,427.512 2225.54,419.898 2227.59,428.963 2229.64,427.115 2231.7,408.31 2233.75,390.844 2235.8,399.357 2237.86,399.69 2239.91,399.685 2241.96,351.49 2244.01,348.381 2246.07,347.589 2248.12,345.229 2250.17,357.65 2252.23,366.185 2254.28,379.688 2256.33,419.528 2258.38,419.559 2260.44,384.17 2262.49,381.664 2264.54,377.808 2266.6,384.277 2268.65,374.96 2270.7,380.131 2272.75,357.795 2274.81,368.215 2276.86,368.145 2278.91,369.167 2280.97,368.309 2283.02,386.848 2285.07,387.091 2287.12,392.707 2289.18,392.573 2291.23,392.652 "/>
<path clip-path="url(#clip140)" d="M1983.6 172.231 L2280.29 172.231 L2280.29 68.5509 L1983.6 68.5509  Z" fill="#ffffff" fill-rule="evenodd" fill-opacity="1"/>
<polyline clip-path="url(#clip140)" style="stroke:#000000; stroke-linecap:round; stroke-linejoin:round; stroke-width:4; stroke-opacity:1; fill:none" points="1983.6,172.231 2280.29,172.231 2280.29,68.5509 1983.6,68.5509 1983.6,172.231 "/>
<polyline clip-path="url(#clip140)" style="stroke:#009af9; stroke-linecap:round; stroke-linejoin:round; stroke-width:4; stroke-opacity:1; fill:none" points="2007.75,120.391 2152.68,120.391 "/>
<path clip-path="url(#clip140)" d="M2176.83 103.111 L2181.51 103.111 L2181.51 133.736 L2198.34 133.736 L2198.34 137.671 L2176.83 137.671 L2176.83 103.111 Z" fill="#000000" fill-rule="nonzero" fill-opacity="1" /><path clip-path="url(#clip140)" d="M2223.96 104.245 L2223.96 108.805 Q2221.3 107.532 2218.94 106.907 Q2216.58 106.282 2214.38 106.282 Q2210.56 106.282 2208.48 107.764 Q2206.42 109.245 2206.42 111.977 Q2206.42 114.268 2207.78 115.449 Q2209.17 116.606 2213.01 117.324 L2215.84 117.902 Q2221.07 118.898 2223.55 121.421 Q2226.05 123.921 2226.05 128.134 Q2226.05 133.157 2222.67 135.75 Q2219.31 138.342 2212.81 138.342 Q2210.35 138.342 2207.57 137.787 Q2204.82 137.231 2201.86 136.143 L2201.86 131.328 Q2204.7 132.926 2207.44 133.736 Q2210.17 134.546 2212.81 134.546 Q2216.81 134.546 2218.99 132.972 Q2221.16 131.398 2221.16 128.481 Q2221.16 125.935 2219.59 124.5 Q2218.04 123.064 2214.47 122.347 L2211.62 121.791 Q2206.39 120.75 2204.06 118.527 Q2201.72 116.305 2201.72 112.347 Q2201.72 107.764 2204.94 105.125 Q2208.18 102.486 2213.85 102.486 Q2216.28 102.486 2218.8 102.926 Q2221.32 103.366 2223.96 104.245 Z" fill="#000000" fill-rule="nonzero" fill-opacity="1" /><path clip-path="url(#clip140)" d="M2254.06 104.245 L2254.06 108.805 Q2251.39 107.532 2249.03 106.907 Q2246.67 106.282 2244.47 106.282 Q2240.65 106.282 2238.57 107.764 Q2236.51 109.245 2236.51 111.977 Q2236.51 114.268 2237.87 115.449 Q2239.26 116.606 2243.11 117.324 L2245.93 117.902 Q2251.16 118.898 2253.64 121.421 Q2256.14 123.921 2256.14 128.134 Q2256.14 133.157 2252.76 135.75 Q2249.4 138.342 2242.9 138.342 Q2240.44 138.342 2237.67 137.787 Q2234.91 137.231 2231.95 136.143 L2231.95 131.328 Q2234.8 132.926 2237.53 133.736 Q2240.26 134.546 2242.9 134.546 Q2246.9 134.546 2249.08 132.972 Q2251.25 131.398 2251.25 128.481 Q2251.25 125.935 2249.68 124.5 Q2248.13 123.064 2244.56 122.347 L2241.72 121.791 Q2236.49 120.75 2234.15 118.527 Q2231.81 116.305 2231.81 112.347 Q2231.81 107.764 2235.03 105.125 Q2238.27 102.486 2243.94 102.486 Q2246.37 102.486 2248.89 102.926 Q2251.42 103.366 2254.06 104.245 Z" fill="#000000" fill-rule="nonzero" fill-opacity="1" /><path clip-path="url(#clip140)" d="M178.867 1486.45 L2352.76 1486.45 L2352.76 847.244 L178.867 847.244  Z" fill="#ffffff" fill-rule="evenodd" fill-opacity="1"/>
<defs>
  <clipPath id="clip143">
    <rect x="178" y="847" width="2175" height="640"/>
  </clipPath>
</defs>
<polyline clip-path="url(#clip143)" style="stroke:#000000; stroke-linecap:round; stroke-linejoin:round; stroke-width:2; stroke-opacity:0.1; fill:none" points="238.339,1486.45 238.339,847.244 "/>
<polyline clip-path="url(#clip143)" style="stroke:#000000; stroke-linecap:round; stroke-linejoin:round; stroke-width:2; stroke-opacity:0.1; fill:none" points="751.562,1486.45 751.562,847.244 "/>
<polyline clip-path="url(#clip143)" style="stroke:#000000; stroke-linecap:round; stroke-linejoin:round; stroke-width:2; stroke-opacity:0.1; fill:none" points="1264.78,1486.45 1264.78,847.244 "/>
<polyline clip-path="url(#clip143)" style="stroke:#000000; stroke-linecap:round; stroke-linejoin:round; stroke-width:2; stroke-opacity:0.1; fill:none" points="1778.01,1486.45 1778.01,847.244 "/>
<polyline clip-path="url(#clip143)" style="stroke:#000000; stroke-linecap:round; stroke-linejoin:round; stroke-width:2; stroke-opacity:0.1; fill:none" points="2291.23,1486.45 2291.23,847.244 "/>
<polyline clip-path="url(#clip143)" style="stroke:#000000; stroke-linecap:round; stroke-linejoin:round; stroke-width:2; stroke-opacity:0.1; fill:none" points="178.867,1486.45 2352.76,1486.45 "/>
<polyline clip-path="url(#clip143)" style="stroke:#000000; stroke-linecap:round; stroke-linejoin:round; stroke-width:2; stroke-opacity:0.1; fill:none" points="178.867,1326.65 2352.76,1326.65 "/>
<polyline clip-path="url(#clip143)" style="stroke:#000000; stroke-linecap:round; stroke-linejoin:round; stroke-width:2; stroke-opacity:0.1; fill:none" points="178.867,1166.85 2352.76,1166.85 "/>
<polyline clip-path="url(#clip143)" style="stroke:#000000; stroke-linecap:round; stroke-linejoin:round; stroke-width:2; stroke-opacity:0.1; fill:none" points="178.867,1007.05 2352.76,1007.05 "/>
<polyline clip-path="url(#clip143)" style="stroke:#000000; stroke-linecap:round; stroke-linejoin:round; stroke-width:2; stroke-opacity:0.1; fill:none" points="178.867,847.244 2352.76,847.244 "/>
<polyline clip-path="url(#clip140)" style="stroke:#000000; stroke-linecap:round; stroke-linejoin:round; stroke-width:4; stroke-opacity:1; fill:none" points="178.867,1486.45 2352.76,1486.45 "/>
<polyline clip-path="url(#clip140)" style="stroke:#000000; stroke-linecap:round; stroke-linejoin:round; stroke-width:4; stroke-opacity:1; fill:none" points="238.339,1486.45 238.339,1467.55 "/>
<polyline clip-path="url(#clip140)" style="stroke:#000000; stroke-linecap:round; stroke-linejoin:round; stroke-width:4; stroke-opacity:1; fill:none" points="751.562,1486.45 751.562,1467.55 "/>
<polyline clip-path="url(#clip140)" style="stroke:#000000; stroke-linecap:round; stroke-linejoin:round; stroke-width:4; stroke-opacity:1; fill:none" points="1264.78,1486.45 1264.78,1467.55 "/>
<polyline clip-path="url(#clip140)" style="stroke:#000000; stroke-linecap:round; stroke-linejoin:round; stroke-width:4; stroke-opacity:1; fill:none" points="1778.01,1486.45 1778.01,1467.55 "/>
<polyline clip-path="url(#clip140)" style="stroke:#000000; stroke-linecap:round; stroke-linejoin:round; stroke-width:4; stroke-opacity:1; fill:none" points="2291.23,1486.45 2291.23,1467.55 "/>
<path clip-path="url(#clip140)" d="M238.339 1517.37 Q234.728 1517.37 232.899 1520.93 Q231.094 1524.47 231.094 1531.6 Q231.094 1538.71 232.899 1542.27 Q234.728 1545.82 238.339 1545.82 Q241.973 1545.82 243.779 1542.27 Q245.607 1538.71 245.607 1531.6 Q245.607 1524.47 243.779 1520.93 Q241.973 1517.37 238.339 1517.37 M238.339 1513.66 Q244.149 1513.66 247.205 1518.27 Q250.283 1522.85 250.283 1531.6 Q250.283 1540.33 247.205 1544.94 Q244.149 1549.52 238.339 1549.52 Q232.529 1549.52 229.45 1544.94 Q226.395 1540.33 226.395 1531.6 Q226.395 1522.85 229.45 1518.27 Q232.529 1513.66 238.339 1513.66 Z" fill="#000000" fill-rule="nonzero" fill-opacity="1" /><path clip-path="url(#clip140)" d="M715.254 1544.91 L731.574 1544.91 L731.574 1548.85 L709.629 1548.85 L709.629 1544.91 Q712.291 1542.16 716.875 1537.53 Q721.481 1532.88 722.662 1531.53 Q724.907 1529.01 725.787 1527.27 Q726.689 1525.51 726.689 1523.82 Q726.689 1521.07 724.745 1519.33 Q722.824 1517.6 719.722 1517.6 Q717.523 1517.6 715.069 1518.36 Q712.638 1519.13 709.861 1520.68 L709.861 1515.95 Q712.685 1514.82 715.138 1514.24 Q717.592 1513.66 719.629 1513.66 Q725 1513.66 728.194 1516.35 Q731.388 1519.03 731.388 1523.52 Q731.388 1525.65 730.578 1527.57 Q729.791 1529.47 727.685 1532.07 Q727.106 1532.74 724.004 1535.95 Q720.902 1539.15 715.254 1544.91 Z" fill="#000000" fill-rule="nonzero" fill-opacity="1" /><path clip-path="url(#clip140)" d="M741.435 1514.29 L759.791 1514.29 L759.791 1518.22 L745.717 1518.22 L745.717 1526.7 Q746.736 1526.35 747.754 1526.19 Q748.773 1526 749.791 1526 Q755.578 1526 758.958 1529.17 Q762.337 1532.34 762.337 1537.76 Q762.337 1543.34 758.865 1546.44 Q755.393 1549.52 749.073 1549.52 Q746.898 1549.52 744.629 1549.15 Q742.384 1548.78 739.976 1548.04 L739.976 1543.34 Q742.06 1544.47 744.282 1545.03 Q746.504 1545.58 748.981 1545.58 Q752.985 1545.58 755.323 1543.48 Q757.661 1541.37 757.661 1537.76 Q757.661 1534.15 755.323 1532.04 Q752.985 1529.94 748.981 1529.94 Q747.106 1529.94 745.231 1530.35 Q743.379 1530.77 741.435 1531.65 L741.435 1514.29 Z" fill="#000000" fill-rule="nonzero" fill-opacity="1" /><path clip-path="url(#clip140)" d="M781.55 1517.37 Q777.939 1517.37 776.11 1520.93 Q774.305 1524.47 774.305 1531.6 Q774.305 1538.71 776.11 1542.27 Q777.939 1545.82 781.55 1545.82 Q785.184 1545.82 786.99 1542.27 Q788.819 1538.71 788.819 1531.6 Q788.819 1524.47 786.99 1520.93 Q785.184 1517.37 781.55 1517.37 M781.55 1513.66 Q787.36 1513.66 790.416 1518.27 Q793.495 1522.85 793.495 1531.6 Q793.495 1540.33 790.416 1544.94 Q787.36 1549.52 781.55 1549.52 Q775.74 1549.52 772.661 1544.94 Q769.606 1540.33 769.606 1531.6 Q769.606 1522.85 772.661 1518.27 Q775.74 1513.66 781.55 1513.66 Z" fill="#000000" fill-rule="nonzero" fill-opacity="1" /><path clip-path="url(#clip140)" d="M1224.4 1514.29 L1242.76 1514.29 L1242.76 1518.22 L1228.69 1518.22 L1228.69 1526.7 Q1229.7 1526.35 1230.72 1526.19 Q1231.74 1526 1232.76 1526 Q1238.55 1526 1241.93 1529.17 Q1245.31 1532.34 1245.31 1537.76 Q1245.31 1543.34 1241.83 1546.44 Q1238.36 1549.52 1232.04 1549.52 Q1229.87 1549.52 1227.6 1549.15 Q1225.35 1548.78 1222.94 1548.04 L1222.94 1543.34 Q1225.03 1544.47 1227.25 1545.03 Q1229.47 1545.58 1231.95 1545.58 Q1235.95 1545.58 1238.29 1543.48 Q1240.63 1541.37 1240.63 1537.76 Q1240.63 1534.15 1238.29 1532.04 Q1235.95 1529.94 1231.95 1529.94 Q1230.07 1529.94 1228.2 1530.35 Q1226.35 1530.77 1224.4 1531.65 L1224.4 1514.29 Z" fill="#000000" fill-rule="nonzero" fill-opacity="1" /><path clip-path="url(#clip140)" d="M1264.52 1517.37 Q1260.91 1517.37 1259.08 1520.93 Q1257.27 1524.47 1257.27 1531.6 Q1257.27 1538.71 1259.08 1542.27 Q1260.91 1545.82 1264.52 1545.82 Q1268.15 1545.82 1269.96 1542.27 Q1271.79 1538.71 1271.79 1531.6 Q1271.79 1524.47 1269.96 1520.93 Q1268.15 1517.37 1264.52 1517.37 M1264.52 1513.66 Q1270.33 1513.66 1273.38 1518.27 Q1276.46 1522.85 1276.46 1531.6 Q1276.46 1540.33 1273.38 1544.94 Q1270.33 1549.52 1264.52 1549.52 Q1258.71 1549.52 1255.63 1544.94 Q1252.57 1540.33 1252.57 1531.6 Q1252.57 1522.85 1255.63 1518.27 Q1258.71 1513.66 1264.52 1513.66 Z" fill="#000000" fill-rule="nonzero" fill-opacity="1" /><path clip-path="url(#clip140)" d="M1294.68 1517.37 Q1291.07 1517.37 1289.24 1520.93 Q1287.44 1524.47 1287.44 1531.6 Q1287.44 1538.71 1289.24 1542.27 Q1291.07 1545.82 1294.68 1545.82 Q1298.31 1545.82 1300.12 1542.27 Q1301.95 1538.71 1301.95 1531.6 Q1301.95 1524.47 1300.12 1520.93 Q1298.31 1517.37 1294.68 1517.37 M1294.68 1513.66 Q1300.49 1513.66 1303.55 1518.27 Q1306.62 1522.85 1306.62 1531.6 Q1306.62 1540.33 1303.55 1544.94 Q1300.49 1549.52 1294.68 1549.52 Q1288.87 1549.52 1285.79 1544.94 Q1282.74 1540.33 1282.74 1531.6 Q1282.74 1522.85 1285.79 1518.27 Q1288.87 1513.66 1294.68 1513.66 Z" fill="#000000" fill-rule="nonzero" fill-opacity="1" /><path clip-path="url(#clip140)" d="M1736.28 1514.29 L1758.51 1514.29 L1758.51 1516.28 L1745.96 1548.85 L1741.08 1548.85 L1752.88 1518.22 L1736.28 1518.22 L1736.28 1514.29 Z" fill="#000000" fill-rule="nonzero" fill-opacity="1" /><path clip-path="url(#clip140)" d="M1767.67 1514.29 L1786.03 1514.29 L1786.03 1518.22 L1771.95 1518.22 L1771.95 1526.7 Q1772.97 1526.35 1773.99 1526.19 Q1775.01 1526 1776.03 1526 Q1781.82 1526 1785.2 1529.17 Q1788.57 1532.34 1788.57 1537.76 Q1788.57 1543.34 1785.1 1546.44 Q1781.63 1549.52 1775.31 1549.52 Q1773.14 1549.52 1770.87 1549.15 Q1768.62 1548.78 1766.21 1548.04 L1766.21 1543.34 Q1768.3 1544.47 1770.52 1545.03 Q1772.74 1545.58 1775.22 1545.58 Q1779.22 1545.58 1781.56 1543.48 Q1783.9 1541.37 1783.9 1537.76 Q1783.9 1534.15 1781.56 1532.04 Q1779.22 1529.94 1775.22 1529.94 Q1773.34 1529.94 1771.47 1530.35 Q1769.62 1530.77 1767.67 1531.65 L1767.67 1514.29 Z" fill="#000000" fill-rule="nonzero" fill-opacity="1" /><path clip-path="url(#clip140)" d="M1807.79 1517.37 Q1804.18 1517.37 1802.35 1520.93 Q1800.54 1524.47 1800.54 1531.6 Q1800.54 1538.71 1802.35 1542.27 Q1804.18 1545.82 1807.79 1545.82 Q1811.42 1545.82 1813.23 1542.27 Q1815.06 1538.71 1815.06 1531.6 Q1815.06 1524.47 1813.23 1520.93 Q1811.42 1517.37 1807.79 1517.37 M1807.79 1513.66 Q1813.6 1513.66 1816.65 1518.27 Q1819.73 1522.85 1819.73 1531.6 Q1819.73 1540.33 1816.65 1544.94 Q1813.6 1549.52 1807.79 1549.52 Q1801.98 1549.52 1798.9 1544.94 Q1795.84 1540.33 1795.84 1531.6 Q1795.84 1522.85 1798.9 1518.27 Q1801.98 1513.66 1807.79 1513.66 Z" fill="#000000" fill-rule="nonzero" fill-opacity="1" /><path clip-path="url(#clip140)" d="M2235.76 1544.91 L2243.4 1544.91 L2243.4 1518.55 L2235.09 1520.21 L2235.09 1515.95 L2243.35 1514.29 L2248.02 1514.29 L2248.02 1544.91 L2255.66 1544.91 L2255.66 1548.85 L2235.76 1548.85 L2235.76 1544.91 Z" fill="#000000" fill-rule="nonzero" fill-opacity="1" /><path clip-path="url(#clip140)" d="M2275.11 1517.37 Q2271.5 1517.37 2269.67 1520.93 Q2267.86 1524.47 2267.86 1531.6 Q2267.86 1538.71 2269.67 1542.27 Q2271.5 1545.82 2275.11 1545.82 Q2278.74 1545.82 2280.55 1542.27 Q2282.38 1538.71 2282.38 1531.6 Q2282.38 1524.47 2280.55 1520.93 Q2278.74 1517.37 2275.11 1517.37 M2275.11 1513.66 Q2280.92 1513.66 2283.97 1518.27 Q2287.05 1522.85 2287.05 1531.6 Q2287.05 1540.33 2283.97 1544.94 Q2280.92 1549.52 2275.11 1549.52 Q2269.3 1549.52 2266.22 1544.94 Q2263.16 1540.33 2263.16 1531.6 Q2263.16 1522.85 2266.22 1518.27 Q2269.3 1513.66 2275.11 1513.66 Z" fill="#000000" fill-rule="nonzero" fill-opacity="1" /><path clip-path="url(#clip140)" d="M2305.27 1517.37 Q2301.66 1517.37 2299.83 1520.93 Q2298.02 1524.47 2298.02 1531.6 Q2298.02 1538.71 2299.83 1542.27 Q2301.66 1545.82 2305.27 1545.82 Q2308.9 1545.82 2310.71 1542.27 Q2312.54 1538.71 2312.54 1531.6 Q2312.54 1524.47 2310.71 1520.93 Q2308.9 1517.37 2305.27 1517.37 M2305.27 1513.66 Q2311.08 1513.66 2314.14 1518.27 Q2317.21 1522.85 2317.21 1531.6 Q2317.21 1540.33 2314.14 1544.94 Q2311.08 1549.52 2305.27 1549.52 Q2299.46 1549.52 2296.38 1544.94 Q2293.33 1540.33 2293.33 1531.6 Q2293.33 1522.85 2296.38 1518.27 Q2299.46 1513.66 2305.27 1513.66 Z" fill="#000000" fill-rule="nonzero" fill-opacity="1" /><path clip-path="url(#clip140)" d="M2335.43 1517.37 Q2331.82 1517.37 2329.99 1520.93 Q2328.19 1524.47 2328.19 1531.6 Q2328.19 1538.71 2329.99 1542.27 Q2331.82 1545.82 2335.43 1545.82 Q2339.07 1545.82 2340.87 1542.27 Q2342.7 1538.71 2342.7 1531.6 Q2342.7 1524.47 2340.87 1520.93 Q2339.07 1517.37 2335.43 1517.37 M2335.43 1513.66 Q2341.24 1513.66 2344.3 1518.27 Q2347.38 1522.85 2347.38 1531.6 Q2347.38 1540.33 2344.3 1544.94 Q2341.24 1549.52 2335.43 1549.52 Q2329.62 1549.52 2326.54 1544.94 Q2323.49 1540.33 2323.49 1531.6 Q2323.49 1522.85 2326.54 1518.27 Q2329.62 1513.66 2335.43 1513.66 Z" fill="#000000" fill-rule="nonzero" fill-opacity="1" /><polyline clip-path="url(#clip140)" style="stroke:#000000; stroke-linecap:round; stroke-linejoin:round; stroke-width:4; stroke-opacity:1; fill:none" points="178.867,1486.45 178.867,847.244 "/>
<polyline clip-path="url(#clip140)" style="stroke:#000000; stroke-linecap:round; stroke-linejoin:round; stroke-width:4; stroke-opacity:1; fill:none" points="178.867,1486.45 197.764,1486.45 "/>
<polyline clip-path="url(#clip140)" style="stroke:#000000; stroke-linecap:round; stroke-linejoin:round; stroke-width:4; stroke-opacity:1; fill:none" points="178.867,1326.65 197.764,1326.65 "/>
<polyline clip-path="url(#clip140)" style="stroke:#000000; stroke-linecap:round; stroke-linejoin:round; stroke-width:4; stroke-opacity:1; fill:none" points="178.867,1166.85 197.764,1166.85 "/>
<polyline clip-path="url(#clip140)" style="stroke:#000000; stroke-linecap:round; stroke-linejoin:round; stroke-width:4; stroke-opacity:1; fill:none" points="178.867,1007.05 197.764,1007.05 "/>
<polyline clip-path="url(#clip140)" style="stroke:#000000; stroke-linecap:round; stroke-linejoin:round; stroke-width:4; stroke-opacity:1; fill:none" points="178.867,847.244 197.764,847.244 "/>
<path clip-path="url(#clip140)" d="M50.9921 1486.9 L80.6679 1486.9 L80.6679 1490.83 L50.9921 1490.83 L50.9921 1486.9 Z" fill="#000000" fill-rule="nonzero" fill-opacity="1" /><path clip-path="url(#clip140)" d="M91.5706 1499.79 L99.2095 1499.79 L99.2095 1473.43 L90.8993 1475.09 L90.8993 1470.83 L99.1632 1469.17 L103.839 1469.17 L103.839 1499.79 L111.478 1499.79 L111.478 1503.73 L91.5706 1503.73 L91.5706 1499.79 Z" fill="#000000" fill-rule="nonzero" fill-opacity="1" /><path clip-path="url(#clip140)" d="M130.922 1472.25 Q127.311 1472.25 125.482 1475.81 Q123.677 1479.35 123.677 1486.48 Q123.677 1493.59 125.482 1497.15 Q127.311 1500.7 130.922 1500.7 Q134.556 1500.7 136.362 1497.15 Q138.191 1493.59 138.191 1486.48 Q138.191 1479.35 136.362 1475.81 Q134.556 1472.25 130.922 1472.25 M130.922 1468.54 Q136.732 1468.54 139.788 1473.15 Q142.867 1477.73 142.867 1486.48 Q142.867 1495.21 139.788 1499.82 Q136.732 1504.4 130.922 1504.4 Q125.112 1504.4 122.033 1499.82 Q118.978 1495.21 118.978 1486.48 Q118.978 1477.73 122.033 1473.15 Q125.112 1468.54 130.922 1468.54 Z" fill="#000000" fill-rule="nonzero" fill-opacity="1" /><path clip-path="url(#clip140)" d="M82.1494 1327.1 L111.825 1327.1 L111.825 1331.03 L82.1494 1331.03 L82.1494 1327.1 Z" fill="#000000" fill-rule="nonzero" fill-opacity="1" /><path clip-path="url(#clip140)" d="M121.964 1309.37 L140.32 1309.37 L140.32 1313.3 L126.246 1313.3 L126.246 1321.77 Q127.265 1321.43 128.283 1321.27 Q129.302 1321.08 130.32 1321.08 Q136.107 1321.08 139.487 1324.25 Q142.867 1327.42 142.867 1332.84 Q142.867 1338.42 139.394 1341.52 Q135.922 1344.6 129.603 1344.6 Q127.427 1344.6 125.158 1344.23 Q122.913 1343.86 120.506 1343.12 L120.506 1338.42 Q122.589 1339.55 124.811 1340.11 Q127.033 1340.66 129.51 1340.66 Q133.515 1340.66 135.853 1338.56 Q138.191 1336.45 138.191 1332.84 Q138.191 1329.23 135.853 1327.12 Q133.515 1325.01 129.51 1325.01 Q127.635 1325.01 125.76 1325.43 Q123.908 1325.85 121.964 1326.73 L121.964 1309.37 Z" fill="#000000" fill-rule="nonzero" fill-opacity="1" /><path clip-path="url(#clip140)" d="M130.922 1152.64 Q127.311 1152.64 125.482 1156.21 Q123.677 1159.75 123.677 1166.88 Q123.677 1173.99 125.482 1177.55 Q127.311 1181.09 130.922 1181.09 Q134.556 1181.09 136.362 1177.55 Q138.191 1173.99 138.191 1166.88 Q138.191 1159.75 136.362 1156.21 Q134.556 1152.64 130.922 1152.64 M130.922 1148.94 Q136.732 1148.94 139.788 1153.55 Q142.867 1158.13 142.867 1166.88 Q142.867 1175.61 139.788 1180.21 Q136.732 1184.8 130.922 1184.8 Q125.112 1184.8 122.033 1180.21 Q118.978 1175.61 118.978 1166.88 Q118.978 1158.13 122.033 1153.55 Q125.112 1148.94 130.922 1148.94 Z" fill="#000000" fill-rule="nonzero" fill-opacity="1" /><path clip-path="url(#clip140)" d="M121.964 989.765 L140.32 989.765 L140.32 993.7 L126.246 993.7 L126.246 1002.17 Q127.265 1001.83 128.283 1001.66 Q129.302 1001.48 130.32 1001.48 Q136.107 1001.48 139.487 1004.65 Q142.867 1007.82 142.867 1013.24 Q142.867 1018.82 139.394 1021.92 Q135.922 1025 129.603 1025 Q127.427 1025 125.158 1024.63 Q122.913 1024.26 120.506 1023.51 L120.506 1018.82 Q122.589 1019.95 124.811 1020.51 Q127.033 1021.06 129.51 1021.06 Q133.515 1021.06 135.853 1018.95 Q138.191 1016.85 138.191 1013.24 Q138.191 1009.63 135.853 1007.52 Q133.515 1005.41 129.51 1005.41 Q127.635 1005.41 125.76 1005.83 Q123.908 1006.25 121.964 1007.13 L121.964 989.765 Z" fill="#000000" fill-rule="nonzero" fill-opacity="1" /><path clip-path="url(#clip140)" d="M91.5706 860.589 L99.2095 860.589 L99.2095 834.223 L90.8993 835.89 L90.8993 831.631 L99.1632 829.964 L103.839 829.964 L103.839 860.589 L111.478 860.589 L111.478 864.524 L91.5706 864.524 L91.5706 860.589 Z" fill="#000000" fill-rule="nonzero" fill-opacity="1" /><path clip-path="url(#clip140)" d="M130.922 833.043 Q127.311 833.043 125.482 836.608 Q123.677 840.149 123.677 847.279 Q123.677 854.385 125.482 857.95 Q127.311 861.492 130.922 861.492 Q134.556 861.492 136.362 857.95 Q138.191 854.385 138.191 847.279 Q138.191 840.149 136.362 836.608 Q134.556 833.043 130.922 833.043 M130.922 829.339 Q136.732 829.339 139.788 833.946 Q142.867 838.529 142.867 847.279 Q142.867 856.006 139.788 860.612 Q136.732 865.195 130.922 865.195 Q125.112 865.195 122.033 860.612 Q118.978 856.006 118.978 847.279 Q118.978 838.529 122.033 833.946 Q125.112 829.339 130.922 829.339 Z" fill="#000000" fill-rule="nonzero" fill-opacity="1" /><polyline clip-path="url(#clip143)" style="stroke:#009af9; stroke-linecap:round; stroke-linejoin:round; stroke-width:4; stroke-opacity:1; fill:none" points="240.392,1134.89 242.445,1164.55 244.498,1154.2 246.55,1150.66 248.603,1202.56 250.656,1150.89 252.709,1132.67 254.762,1070.85 256.815,1077.68 258.868,1252.61 260.921,3546.18 262.974,-1343.86 265.027,886.715 267.079,1174.01 269.132,1135.93 271.185,1243.56 273.238,1105.35 275.291,1143.18 277.344,1090.68 279.397,1161.11 281.45,1160.85 283.503,1095.8 285.555,1262.87 287.608,1200.45 289.661,1147.54 291.714,1309.55 293.767,1185.49 295.82,600.444 297.873,1057.64 299.926,1160.21 301.979,1176.18 304.031,1113.77 306.084,1182.68 308.137,1157.58 310.19,939.785 312.243,1076.62 314.296,1186.19 316.349,1154.44 318.402,1179.03 320.455,1137.29 322.507,1142.43 324.56,1189.47 326.613,1146.71 328.666,1178.53 330.719,1173.26 332.772,1129.81 334.825,1239.37 336.878,1573.15 338.931,972.728 340.984,1500.69 343.036,1077.08 345.089,1244.3 347.142,1169.97 349.195,1159.1 351.248,1149.77 353.301,1169.15 355.354,1177.61 357.407,1089.68 359.46,1124.37 361.512,1142.07 363.565,1122.25 365.618,1286.97 367.671,1015.79 369.724,1156.31 371.777,1149.34 373.83,1186.85 375.883,1124.98 377.936,868.045 379.988,965.871 382.041,1305.87 384.094,1174.35 386.147,1176.33 388.2,1190.37 390.253,1119.31 392.306,1160.55 394.359,1151.56 396.412,1172.29 398.464,1137.18 400.517,1187.23 402.57,1227.9 404.623,1184.45 406.676,1104.65 408.729,1190.19 410.782,1160.78 412.835,1282.59 414.888,1158.01 416.94,1199.38 418.993,1192.57 421.046,1142.04 423.099,1275.03 425.152,1225.3 427.205,1263.1 429.258,1240.28 431.311,1254.34 433.364,1116.09 435.417,1175.73 437.469,1168.18 439.522,1167.37 441.575,1166.83 443.628,1171.3 445.681,1182.59 447.734,1155.61 449.787,1099.36 451.84,1215.24 453.893,1189.74 455.945,1138.64 457.998,1216.43 460.051,1141.24 462.104,1170.65 464.157,1209.72 466.21,1150.64 468.263,1172.22 470.316,1244.45 472.369,1212.28 474.421,1092.17 476.474,1288.72 478.527,1299.41 480.58,1249.89 482.633,1202.22 484.686,1170.12 486.739,1160.98 488.792,1174.77 490.845,1166.3 492.897,1165.17 494.95,1177.93 497.003,1183.75 499.056,1145.04 501.109,1171.45 503.162,1257.23 505.215,1225.25 507.268,1154.23 509.321,1170.23 511.374,1202.96 513.426,1136.24 515.479,1156.62 517.532,1170.65 519.585,1148.07 521.638,1175 523.691,1187.25 525.744,1201.95 527.797,1199.38 529.85,1129.36 531.902,1168.79 533.955,1225.58 536.008,1382.29 538.061,1144.08 540.114,1145.29 542.167,1147.03 544.22,1201.7 546.273,1233.62 548.326,1150.58 550.378,1159.03 552.431,1158.22 554.484,1163.95 556.537,1194.6 558.59,981.946 560.643,1206.09 562.696,1143.2 564.749,1264.03 566.802,1299.86 568.854,1740.08 570.907,1641.83 572.96,1149.98 575.013,1158.63 577.066,1149.17 579.119,1296.78 581.172,1141.78 583.225,1168.78 585.278,1188.35 587.331,1186.96 589.383,1152.49 591.436,1270.69 593.489,1264.6 595.542,1336.4 597.595,1295.29 599.648,1192.85 601.701,1202.43 603.754,1137.45 605.807,1184.47 607.859,1144.19 609.912,1120.84 611.965,1220 614.018,1189.18 616.071,1177.26 618.124,1154.01 620.177,1206.41 622.23,1138.1 624.283,1138.3 626.335,1254.03 628.388,1382.91 630.441,911.625 632.494,1202.78 634.547,1199.11 636.6,1172.69 638.653,1104.83 640.706,1254.88 642.759,1329.29 644.811,1217.28 646.864,1141.28 648.917,1402.8 650.97,1155.91 653.023,1177.28 655.076,1607.27 657.129,1045.08 659.182,510.803 661.235,1028.9 663.288,555.711 665.34,715.839 667.393,1480.75 669.446,1309.11 671.499,1220.02 673.552,1106.4 675.605,1237.97 677.658,1183.6 679.711,1182.01 681.764,1160.52 683.816,1190.71 685.869,1125.32 687.922,1160.75 689.975,1118.12 692.028,1133.99 694.081,1270.55 696.134,1050.14 698.187,1215.32 700.24,1130.95 702.292,1094.72 704.345,1190.21 706.398,1158.8 708.451,1047.18 710.504,1202.18 712.557,1147.48 714.61,1194.96 716.663,1209.2 718.716,1200.23 720.768,1182.41 722.821,1163.78 724.874,1101.2 726.927,1137.61 728.98,1077.04 731.033,1164.78 733.086,1153.61 735.139,1172.46 737.192,1114.94 739.245,1184.56 741.297,1141.71 743.35,1157.59 745.403,1267 747.456,1308.93 749.509,1764.05 751.562,827.073 753.615,863.39 755.668,1073.07 757.721,1137.52 759.773,1153.38 761.826,1174.49 763.879,1148.25 765.932,1160.04 767.985,1173.41 770.038,1176.74 772.091,1161.01 774.144,1146.92 776.197,1151.98 778.249,1145.23 780.302,1187.93 782.355,965.578 784.408,1104.75 786.461,1248.53 788.514,1131.9 790.567,1237.83 792.62,909.575 794.673,1266.96 796.725,1512.22 798.778,1430.67 800.831,1115.52 802.884,1019.77 804.937,1373.36 806.99,1375.54 809.043,914.784 811.096,1150.64 813.149,1156 815.202,1122.72 817.254,1196.02 819.307,1152.9 821.36,1153.69 823.413,1232.23 825.466,1189.33 827.519,1164.88 829.572,1172.33 831.625,1307.95 833.678,1012.19 835.73,1209.2 837.783,1127.65 839.836,1031.11 841.889,1166.89 843.942,1200.75 845.995,1179.44 848.048,1170.99 850.101,1262.17 852.154,1186.59 854.206,1126.51 856.259,1140.53 858.312,1114.9 860.365,1147.22 862.418,1210.69 864.471,1130.48 866.524,1029.32 868.577,815.769 870.63,1038.97 872.682,1186.37 874.735,1195.91 876.788,1422.36 878.841,816.796 880.894,1267.72 882.947,1172.4 885,869.737 887.053,1133.68 889.106,1111.84 891.159,1271.46 893.211,1379.35 895.264,4656.69 897.317,4286.45 899.37,-2637.93 901.423,1465.23 903.476,531.907 905.529,1556.61 907.582,1038.95 909.635,1124.55 911.687,980.942 913.74,774.773 915.793,1528.99 917.846,1064.84 919.899,1159.81 921.952,1148.32 924.005,1123.34 926.058,1217.57 928.111,1208.89 930.163,1178.1 932.216,1199.8 934.269,1269.36 936.322,1156.33 938.375,1193.01 940.428,1154.99 942.481,1161.69 944.534,1164.82 946.587,1180.72 948.639,1223.01 950.692,1181.19 952.745,1118.88 954.798,1070.33 956.851,1089.43 958.904,1191.63 960.957,1164.17 963.01,1161.46 965.063,1184.85 967.116,1142.13 969.168,1190.2 971.221,1152.39 973.274,1183.18 975.327,1192.69 977.38,1183.66 979.433,1198.52 981.486,1157.48 983.539,1164.73 985.592,1190.02 987.644,1183.24 989.697,1160.96 991.75,1151.83 993.803,1172.5 995.856,1172.07 997.909,1213.19 999.962,1196.05 1002.01,1215.34 1004.07,1211.02 1006.12,1293.89 1008.17,1229.12 1010.23,1178.68 1012.28,1255.88 1014.33,1318.79 1016.38,1189.72 1018.44,1550.44 1020.49,1082.42 1022.54,1079.7 1024.6,1230.51 1026.65,1116.73 1028.7,1146.86 1030.76,1172.77 1032.81,1261.44 1034.86,1058.79 1036.91,1263.95 1038.97,1149.74 1041.02,1160.06 1043.07,1180.93 1045.13,1172.16 1047.18,1154.42 1049.23,1188.99 1051.28,1097.16 1053.34,-509.318 1055.39,1290.06 1057.44,1182.54 1059.5,1179.58 1061.55,1241.1 1063.6,1308.02 1065.65,1233.4 1067.71,1372.31 1069.76,716.309 1071.81,1182.05 1073.87,1099.38 1075.92,1136.99 1077.97,1088.64 1080.02,1231.56 1082.08,1345.04 1084.13,1279.36 1086.18,1138.84 1088.24,1188.02 1090.29,1157.95 1092.34,1179.82 1094.39,1124.54 1096.45,1171.25 1098.5,1151.46 1100.55,1120.35 1102.61,1159.09 1104.66,1194.41 1106.71,1122.49 1108.77,1056.01 1110.82,1360.39 1112.87,1442.49 1114.92,1128.19 1116.98,1148.18 1119.03,1050.61 1121.08,1244.19 1123.14,902.513 1125.19,1187.94 1127.24,1183.97 1129.29,1165.94 1131.35,1168.08 1133.4,1173.75 1135.45,1173.33 1137.51,1177.96 1139.56,1158.58 1141.61,1217.11 1143.66,1119.6 1145.72,1150.93 1147.77,1130.49 1149.82,1207.24 1151.88,1183.24 1153.93,1102.58 1155.98,1145.9 1158.03,1218.46 1160.09,1296.65 1162.14,1033.51 1164.19,1297.21 1166.25,1187.51 1168.3,1086.8 1170.35,1101.14 1172.4,1059.7 1174.46,1376.7 1176.51,1077.97 1178.56,1149.84 1180.62,1255.55 1182.67,993.266 1184.72,1027.47 1186.77,1397.84 1188.83,1259.15 1190.88,1187.35 1192.93,1194.98 1194.99,1174.51 1197.04,1153.4 1199.09,1187.1 1201.15,1169.26 1203.2,1173.26 1205.25,1223.76 1207.3,1258.14 1209.36,1120.22 1211.41,1164.65 1213.46,1164.48 1215.52,1169.41 1217.57,1160.52 1219.62,1182.88 1221.67,1124.4 1223.73,1207.25 1225.78,1116.23 1227.83,1123.84 1229.89,1144.09 1231.94,1173.47 1233.99,1166.69 1236.04,1179.25 1238.1,1172.42 1240.15,1181.18 1242.2,1155.71 1244.26,1159.72 1246.31,1052.7 1248.36,1146.85 1250.41,1159.01 1252.47,1226.39 1254.52,1142.04 1256.57,1219.03 1258.63,1022.04 1260.68,1411.68 1262.73,1082.9 1264.78,1111.04 1266.84,1564.15 1268.89,1405.71 1270.94,1103.66 1273,1180.5 1275.05,1239.74 1277.1,1136.12 1279.16,1150.9 1281.21,1187.57 1283.26,1175.67 1285.31,1146.19 1287.37,1151.89 1289.42,1271.35 1291.47,1385.78 1293.53,1277.11 1295.58,1196.07 1297.63,1235.82 1299.68,1172.92 1301.74,1038.2 1303.79,1118.1 1305.84,1209.57 1307.9,1139.35 1309.95,1157.83 1312,1137.45 1314.05,1188.2 1316.11,1186.2 1318.16,1189.5 1320.21,1165.49 1322.27,1168.11 1324.32,1143.11 1326.37,1172.1 1328.42,1182.75 1330.48,1176.7 1332.53,1181.27 1334.58,1143.79 1336.64,1127.09 1338.69,1159.81 1340.74,1155.16 1342.79,1164.3 1344.85,1168.7 1346.9,1176.89 1348.95,1182.18 1351.01,1152.58 1353.06,1150.24 1355.11,1191.08 1357.16,1155.16 1359.22,1176.16 1361.27,1149.58 1363.32,1119.44 1365.38,1183.36 1367.43,1155.25 1369.48,1152.27 1371.54,1216.37 1373.59,1181.15 1375.64,1165.69 1377.69,1181.95 1379.75,1143.78 1381.8,1157.55 1383.85,1152.9 1385.91,1198.84 1387.96,1198.51 1390.01,1201.08 1392.06,1197.75 1394.12,1161.88 1396.17,1167.12 1398.22,1226.61 1400.28,1176.45 1402.33,1080.36 1404.38,1011.55 1406.43,1257.08 1408.49,1279.16 1410.54,1163.13 1412.59,1087.33 1414.65,1153.59 1416.7,1240.23 1418.75,1189.13 1420.8,1237.64 1422.86,1116.92 1424.91,1191.42 1426.96,1200.79 1429.02,1156.92 1431.07,1156.14 1433.12,1176.57 1435.17,1158.63 1437.23,1169.23 1439.28,1150.54 1441.33,1159.98 1443.39,1187.82 1445.44,1231.43 1447.49,1117.49 1449.55,892.375 1451.6,1141.49 1453.65,1548.64 1455.7,1175.4 1457.76,955.045 1459.81,1522.21 1461.86,784.907 1463.92,1643.71 1465.97,1341.02 1468.02,1121.16 1470.07,1185.36 1472.13,1123.7 1474.18,1212.76 1476.23,1139.99 1478.29,1126.45 1480.34,1154.77 1482.39,1156.51 1484.44,1164.59 1486.5,1164.69 1488.55,1182.01 1490.6,1183.68 1492.66,1215.35 1494.71,1487.72 1496.76,1132.8 1498.81,1151.08 1500.87,1144.37 1502.92,1200.17 1504.97,1077.78 1507.03,1371.5 1509.08,1026.62 1511.13,1602.72 1513.18,1291.21 1515.24,158.647 1517.29,4493.42 1519.34,-37.93 1521.4,722.425 1523.45,1307.79 1525.5,365.525 1527.55,916.845 1529.61,833.355 1531.66,1688.81 1533.71,1185.2 1535.77,1206.08 1537.82,1166.8 1539.87,1205.69 1541.93,1255.51 1543.98,1156.06 1546.03,1142.3 1548.08,1134.5 1550.14,1124.97 1552.19,1128.9 1554.24,1212 1556.3,1341.87 1558.35,1289.18 1560.4,1143 1562.45,1200.9 1564.51,1190.66 1566.56,1197.11 1568.61,1223.78 1570.67,1120.85 1572.72,1147.84 1574.77,1172 1576.82,1155.21 1578.88,1168.17 1580.93,1165.08 1582.98,1178.72 1585.04,1188.96 1587.09,1203.03 1589.14,1128.76 1591.19,1204.68 1593.25,1182.38 1595.3,1168.44 1597.35,1056.95 1599.41,1224.71 1601.46,1230.22 1603.51,1476.7 1605.56,1258.06 1607.62,1189.39 1609.67,1294.35 1611.72,1196.77 1613.78,1262.51 1615.83,1089 1617.88,1087.36 1619.94,1156.87 1621.99,1022.91 1624.04,1090.75 1626.09,1015.02 1628.15,1102.42 1630.2,1340.87 1632.25,1106.29 1634.31,1338.56 1636.36,1217.24 1638.41,1237.13 1640.46,1203.81 1642.52,1181.79 1644.57,1151.81 1646.62,1244.7 1648.68,1123.8 1650.73,1194.53 1652.78,1130.15 1654.83,1126.06 1656.89,1136.51 1658.94,1176.1 1660.99,1170.49 1663.05,1093.2 1665.1,1073.07 1667.15,1266.68 1669.2,1135.63 1671.26,1204.75 1673.31,1178.76 1675.36,1124.65 1677.42,1172.56 1679.47,1212.51 1681.52,1152.61 1683.57,1199.89 1685.63,973.983 1687.68,1271.8 1689.73,1066.65 1691.79,1165.93 1693.84,1186.33 1695.89,1192.36 1697.94,1191.17 1700,1167.72 1702.05,1172.87 1704.1,1183.47 1706.16,1187.18 1708.21,1192.66 1710.26,1139.17 1712.32,1147.57 1714.37,1194.88 1716.42,1148.41 1718.47,1152.88 1720.53,1158.28 1722.58,1173.83 1724.63,1164.6 1726.69,1175.45 1728.74,1131.54 1730.79,991.156 1732.84,1388.25 1734.9,1355.04 1736.95,1181.15 1739,1207.77 1741.06,1175.05 1743.11,1141.91 1745.16,1183.52 1747.21,1190.27 1749.27,1182.17 1751.32,1159.56 1753.37,1062.48 1755.43,1165.32 1757.48,1168.41 1759.53,1164.01 1761.58,1177.03 1763.64,1153.31 1765.69,1234.36 1767.74,1123.23 1769.8,1076.79 1771.85,951.656 1773.9,1319.67 1775.95,1217.13 1778.01,1042.56 1780.06,1245.66 1782.11,1114.27 1784.17,1101 1786.22,1356.45 1788.27,925.456 1790.33,1096.43 1792.38,1172.41 1794.43,1202.6 1796.48,1133.52 1798.54,1202.3 1800.59,887.945 1802.64,153.454 1804.7,1358.4 1806.75,1014.3 1808.8,1085.81 1810.85,1161.76 1812.91,1136.15 1814.96,1247.44 1817.01,1081.04 1819.07,1074.13 1821.12,981.857 1823.17,1215.64 1825.22,1113.58 1827.28,1127.16 1829.33,1138.32 1831.38,1368.97 1833.44,1492.75 1835.49,1412.57 1837.54,1180.03 1839.59,1233.07 1841.65,1151.14 1843.7,1178.1 1845.75,1149.45 1847.81,1164.1 1849.86,1132.02 1851.91,1228.82 1853.96,1244.43 1856.02,1146.81 1858.07,1127.75 1860.12,1214.34 1862.18,1192.83 1864.23,1215.42 1866.28,1087.59 1868.34,1180.63 1870.39,1196.63 1872.44,1207.06 1874.49,1122.43 1876.55,1172.7 1878.6,1183.39 1880.65,1123.48 1882.71,1227.9 1884.76,1189.07 1886.81,1154.71 1888.86,1154.39 1890.92,1152.02 1892.97,1112.12 1895.02,1281.34 1897.08,1141 1899.13,1160.91 1901.18,1152.03 1903.23,1134.8 1905.29,1199.85 1907.34,1140.67 1909.39,1093.66 1911.45,1187.68 1913.5,1169.09 1915.55,1213.22 1917.6,1184.53 1919.66,1200.95 1921.71,1065.39 1923.76,1195.5 1925.82,1186.17 1927.87,1142.24 1929.92,1196.24 1931.97,1078.19 1934.03,1004.07 1936.08,1014.62 1938.13,1104.02 1940.19,1114.3 1942.24,1183.9 1944.29,1194 1946.34,1253.77 1948.4,1300.44 1950.45,1158.99 1952.5,1168.13 1954.56,1202.93 1956.61,1160.5 1958.66,1191.67 1960.72,1056.97 1962.77,1112.5 1964.82,1168.41 1966.87,1158.47 1968.93,1143.88 1970.98,1108.87 1973.03,1119.14 1975.09,1121.08 1977.14,1174.56 1979.19,1188.76 1981.24,1100.28 1983.3,1181.41 1985.35,1208.01 1987.4,1253.81 1989.46,1126.35 1991.51,1177.98 1993.56,1167.26 1995.61,1154.31 1997.67,1162.71 1999.72,1123.14 2001.77,1195.05 2003.83,1215.74 2005.88,1222.6 2007.93,1286.06 2009.98,890.541 2012.04,1427.73 2014.09,1216 2016.14,1019.49 2018.2,1258.4 2020.25,1107.83 2022.3,1115.33 2024.35,1131.51 2026.41,1168.63 2028.46,1159.01 2030.51,1115.97 2032.57,1198.46 2034.62,1164.42 2036.67,1123.38 2038.73,1085.46 2040.78,1098.44 2042.83,1239.3 2044.88,1352.57 2046.94,1249.61 2048.99,1245.36 2051.04,1153.7 2053.1,1083.46 2055.15,1222.15 2057.2,1052.64 2059.25,1267.87 2061.31,1173.2 2063.36,1132.21 2065.41,1180.96 2067.47,1405.4 2069.52,1143.31 2071.57,1119.81 2073.62,1155.71 2075.68,1165.58 2077.73,1169.26 2079.78,1160.97 2081.84,1214.01 2083.89,1175.65 2085.94,1154.62 2087.99,1162.8 2090.05,1146.35 2092.1,1216.98 2094.15,1034.06 2096.21,1169.13 2098.26,1168.56 2100.31,1170.5 2102.36,1149.31 2104.42,1167.04 2106.47,1161.05 2108.52,1250.8 2110.58,1133 2112.63,1030.67 2114.68,944.367 2116.73,1196.8 2118.79,1061.3 2120.84,1309.99 2122.89,1140.66 2124.95,973.407 2127,1204.33 2129.05,1155.58 2131.11,1179.26 2133.16,1081.54 2135.21,1315.37 2137.26,1158.49 2139.32,1284.59 2141.37,1090.82 2143.42,1300.27 2145.48,1213.37 2147.53,1157.71 2149.58,1354.4 2151.63,1376.96 2153.69,1209.21 2155.74,1135.76 2157.79,1187.8 2159.85,1141.87 2161.9,1178.52 2163.95,1159.32 2166,1190.35 2168.06,1098.37 2170.11,1258.64 2172.16,1068.54 2174.22,1128.77 2176.27,1072.06 2178.32,1080.09 2180.37,1169.71 2182.43,1185.4 2184.48,1141.87 2186.53,1156.68 2188.59,1199.14 2190.64,1175.74 2192.69,1164.44 2194.74,1151.79 2196.8,1163.94 2198.85,1143.52 2200.9,1155.22 2202.96,1113.43 2205.01,1146.93 2207.06,1301.48 2209.12,1209.32 2211.17,993.723 2213.22,1226.76 2215.27,1218.79 2217.33,1229.74 2219.38,1379.62 2221.43,1131.88 2223.49,1177.72 2225.54,1154.65 2227.59,1136.19 2229.64,1174.43 2231.7,1268.44 2233.75,1164.72 2235.8,1098.86 2237.86,1175.68 2239.91,1162.06 2241.96,1209.28 2244.01,1144.61 2246.07,1175.27 2248.12,1176.04 2250.17,1117.61 2252.23,1179.38 2254.28,1205.37 2256.33,1161.95 2258.38,1147.53 2260.44,1159.66 2262.49,1213.59 2264.54,1143.28 2266.6,1172.97 2268.65,1118.43 2270.7,974.097 2272.75,1178.19 2274.81,1150.23 2276.86,983.155 2278.91,1130.24 2280.97,1194.29 2283.02,1143.01 2285.07,1154.69 2287.12,1200.58 2289.18,1269.36 2291.23,1182.67 "/>
<path clip-path="url(#clip140)" d="M251.33 1465.14 L588.926 1465.14 L588.926 1361.46 L251.33 1361.46  Z" fill="#ffffff" fill-rule="evenodd" fill-opacity="1"/>
<polyline clip-path="url(#clip140)" style="stroke:#000000; stroke-linecap:round; stroke-linejoin:round; stroke-width:4; stroke-opacity:1; fill:none" points="251.33,1465.14 588.926,1465.14 588.926,1361.46 251.33,1361.46 251.33,1465.14 "/>
<polyline clip-path="url(#clip140)" style="stroke:#009af9; stroke-linecap:round; stroke-linejoin:round; stroke-width:4; stroke-opacity:1; fill:none" points="275.484,1413.3 420.41,1413.3 "/>
<path clip-path="url(#clip140)" d="M470.12 1425.65 L470.12 1416.37 L462.481 1416.37 L462.481 1412.53 L474.749 1412.53 L474.749 1427.36 Q472.041 1429.28 468.777 1430.28 Q465.513 1431.25 461.809 1431.25 Q453.708 1431.25 449.124 1426.53 Q444.564 1421.78 444.564 1413.34 Q444.564 1404.86 449.124 1400.14 Q453.708 1395.4 461.809 1395.4 Q465.189 1395.4 468.221 1396.23 Q471.277 1397.06 473.846 1398.68 L473.846 1403.66 Q471.254 1401.46 468.337 1400.35 Q465.421 1399.24 462.203 1399.24 Q455.86 1399.24 452.666 1402.78 Q449.495 1406.32 449.495 1413.34 Q449.495 1420.33 452.666 1423.87 Q455.86 1427.41 462.203 1427.41 Q464.68 1427.41 466.624 1426.99 Q468.569 1426.55 470.12 1425.65 Z" fill="#000000" fill-rule="nonzero" fill-opacity="1" /><path clip-path="url(#clip140)" d="M487.967 1399.86 L487.967 1412.85 L493.846 1412.85 Q497.11 1412.85 498.893 1411.16 Q500.675 1409.47 500.675 1406.35 Q500.675 1403.24 498.893 1401.55 Q497.11 1399.86 493.846 1399.86 L487.967 1399.86 M483.291 1396.02 L493.846 1396.02 Q499.657 1396.02 502.619 1398.66 Q505.606 1401.28 505.606 1406.35 Q505.606 1411.46 502.619 1414.08 Q499.657 1416.69 493.846 1416.69 L487.967 1416.69 L487.967 1430.58 L483.291 1430.58 L483.291 1396.02 Z" fill="#000000" fill-rule="nonzero" fill-opacity="1" /><path clip-path="url(#clip140)" d="M532.596 1397.16 L532.596 1401.72 Q529.934 1400.44 527.573 1399.82 Q525.212 1399.19 523.013 1399.19 Q519.193 1399.19 517.11 1400.67 Q515.05 1402.16 515.05 1404.89 Q515.05 1407.18 516.416 1408.36 Q517.805 1409.52 521.647 1410.23 L524.471 1410.81 Q529.703 1411.81 532.179 1414.33 Q534.679 1416.83 534.679 1421.04 Q534.679 1426.07 531.3 1428.66 Q527.943 1431.25 521.439 1431.25 Q518.985 1431.25 516.207 1430.7 Q513.453 1430.14 510.49 1429.05 L510.49 1424.24 Q513.337 1425.84 516.068 1426.65 Q518.8 1427.46 521.439 1427.46 Q525.443 1427.46 527.619 1425.88 Q529.795 1424.31 529.795 1421.39 Q529.795 1418.85 528.221 1417.41 Q526.67 1415.97 523.105 1415.26 L520.258 1414.7 Q515.027 1413.66 512.689 1411.44 Q510.351 1409.22 510.351 1405.26 Q510.351 1400.67 513.568 1398.03 Q516.809 1395.4 522.48 1395.4 Q524.911 1395.4 527.434 1395.84 Q529.957 1396.28 532.596 1397.16 Z" fill="#000000" fill-rule="nonzero" fill-opacity="1" /><path clip-path="url(#clip140)" d="M562.689 1397.16 L562.689 1401.72 Q560.027 1400.44 557.665 1399.82 Q555.304 1399.19 553.105 1399.19 Q549.286 1399.19 547.203 1400.67 Q545.142 1402.16 545.142 1404.89 Q545.142 1407.18 546.508 1408.36 Q547.897 1409.52 551.74 1410.23 L554.564 1410.81 Q559.795 1411.81 562.272 1414.33 Q564.772 1416.83 564.772 1421.04 Q564.772 1426.07 561.392 1428.66 Q558.036 1431.25 551.531 1431.25 Q549.078 1431.25 546.3 1430.7 Q543.545 1430.14 540.582 1429.05 L540.582 1424.24 Q543.429 1425.84 546.161 1426.65 Q548.892 1427.46 551.531 1427.46 Q555.536 1427.46 557.712 1425.88 Q559.888 1424.31 559.888 1421.39 Q559.888 1418.85 558.314 1417.41 Q556.763 1415.97 553.198 1415.26 L550.351 1414.7 Q545.119 1413.66 542.781 1411.44 Q540.443 1409.22 540.443 1405.26 Q540.443 1400.67 543.661 1398.03 Q546.902 1395.4 552.573 1395.4 Q555.003 1395.4 557.527 1395.84 Q560.05 1396.28 562.689 1397.16 Z" fill="#000000" fill-rule="nonzero" fill-opacity="1" /></svg>
