<?xml version="1.0" encoding="utf-8"?>
<svg xmlns="http://www.w3.org/2000/svg" xmlns:xlink="http://www.w3.org/1999/xlink" width="600" height="400" viewBox="0 0 2400 1600">
<defs>
  <clipPath id="clip730">
    <rect x="0" y="0" width="2400" height="1600"/>
  </clipPath>
</defs>
<path clip-path="url(#clip730)" d="M0 1600 L2400 1600 L2400 0 L0 0  Z" fill="#ffffff" fill-rule="evenodd" fill-opacity="1"/>
<defs>
  <clipPath id="clip731">
    <rect x="480" y="0" width="1681" height="1600"/>
  </clipPath>
</defs>
<path clip-path="url(#clip730)" d="M178.867 686.448 L2352.76 686.448 L2352.76 47.2441 L178.867 47.2441  Z" fill="#ffffff" fill-rule="evenodd" fill-opacity="1"/>
<defs>
  <clipPath id="clip732">
    <rect x="178" y="47" width="2175" height="640"/>
  </clipPath>
</defs>
<polyline clip-path="url(#clip732)" style="stroke:#000000; stroke-linecap:round; stroke-linejoin:round; stroke-width:2; stroke-opacity:0.1; fill:none" points="238.339,686.448 238.339,47.2441 "/>
<polyline clip-path="url(#clip732)" style="stroke:#000000; stroke-linecap:round; stroke-linejoin:round; stroke-width:2; stroke-opacity:0.1; fill:none" points="751.562,686.448 751.562,47.2441 "/>
<polyline clip-path="url(#clip732)" style="stroke:#000000; stroke-linecap:round; stroke-linejoin:round; stroke-width:2; stroke-opacity:0.1; fill:none" points="1264.78,686.448 1264.78,47.2441 "/>
<polyline clip-path="url(#clip732)" style="stroke:#000000; stroke-linecap:round; stroke-linejoin:round; stroke-width:2; stroke-opacity:0.1; fill:none" points="1778.01,686.448 1778.01,47.2441 "/>
<polyline clip-path="url(#clip732)" style="stroke:#000000; stroke-linecap:round; stroke-linejoin:round; stroke-width:2; stroke-opacity:0.1; fill:none" points="2291.23,686.448 2291.23,47.2441 "/>
<polyline clip-path="url(#clip732)" style="stroke:#000000; stroke-linecap:round; stroke-linejoin:round; stroke-width:2; stroke-opacity:0.1; fill:none" points="178.867,686.448 2352.76,686.448 "/>
<polyline clip-path="url(#clip732)" style="stroke:#000000; stroke-linecap:round; stroke-linejoin:round; stroke-width:2; stroke-opacity:0.1; fill:none" points="178.867,526.647 2352.76,526.647 "/>
<polyline clip-path="url(#clip732)" style="stroke:#000000; stroke-linecap:round; stroke-linejoin:round; stroke-width:2; stroke-opacity:0.1; fill:none" points="178.867,366.846 2352.76,366.846 "/>
<polyline clip-path="url(#clip732)" style="stroke:#000000; stroke-linecap:round; stroke-linejoin:round; stroke-width:2; stroke-opacity:0.1; fill:none" points="178.867,207.045 2352.76,207.045 "/>
<polyline clip-path="url(#clip732)" style="stroke:#000000; stroke-linecap:round; stroke-linejoin:round; stroke-width:2; stroke-opacity:0.1; fill:none" points="178.867,47.2441 2352.76,47.2441 "/>
<polyline clip-path="url(#clip730)" style="stroke:#000000; stroke-linecap:round; stroke-linejoin:round; stroke-width:4; stroke-opacity:1; fill:none" points="178.867,686.448 2352.76,686.448 "/>
<polyline clip-path="url(#clip730)" style="stroke:#000000; stroke-linecap:round; stroke-linejoin:round; stroke-width:4; stroke-opacity:1; fill:none" points="238.339,686.448 238.339,667.55 "/>
<polyline clip-path="url(#clip730)" style="stroke:#000000; stroke-linecap:round; stroke-linejoin:round; stroke-width:4; stroke-opacity:1; fill:none" points="751.562,686.448 751.562,667.55 "/>
<polyline clip-path="url(#clip730)" style="stroke:#000000; stroke-linecap:round; stroke-linejoin:round; stroke-width:4; stroke-opacity:1; fill:none" points="1264.78,686.448 1264.78,667.55 "/>
<polyline clip-path="url(#clip730)" style="stroke:#000000; stroke-linecap:round; stroke-linejoin:round; stroke-width:4; stroke-opacity:1; fill:none" points="1778.01,686.448 1778.01,667.55 "/>
<polyline clip-path="url(#clip730)" style="stroke:#000000; stroke-linecap:round; stroke-linejoin:round; stroke-width:4; stroke-opacity:1; fill:none" points="2291.23,686.448 2291.23,667.55 "/>
<path clip-path="url(#clip730)" d="M238.339 717.367 Q234.728 717.367 232.899 720.931 Q231.094 724.473 231.094 731.603 Q231.094 738.709 232.899 742.274 Q234.728 745.815 238.339 745.815 Q241.973 745.815 243.779 742.274 Q245.607 738.709 245.607 731.603 Q245.607 724.473 243.779 720.931 Q241.973 717.367 238.339 717.367 M238.339 713.663 Q244.149 713.663 247.205 718.269 Q250.283 722.853 250.283 731.603 Q250.283 740.329 247.205 744.936 Q244.149 749.519 238.339 749.519 Q232.529 749.519 229.45 744.936 Q226.395 740.329 226.395 731.603 Q226.395 722.853 229.45 718.269 Q232.529 713.663 238.339 713.663 Z" fill="#000000" fill-rule="nonzero" fill-opacity="1" /><path clip-path="url(#clip730)" d="M715.254 744.913 L731.574 744.913 L731.574 748.848 L709.629 748.848 L709.629 744.913 Q712.291 742.158 716.875 737.528 Q721.481 732.876 722.662 731.533 Q724.907 729.01 725.787 727.274 Q726.689 725.515 726.689 723.825 Q726.689 721.07 724.745 719.334 Q722.824 717.598 719.722 717.598 Q717.523 717.598 715.069 718.362 Q712.638 719.126 709.861 720.677 L709.861 715.955 Q712.685 714.82 715.138 714.242 Q717.592 713.663 719.629 713.663 Q725 713.663 728.194 716.348 Q731.388 719.033 731.388 723.524 Q731.388 725.654 730.578 727.575 Q729.791 729.473 727.685 732.066 Q727.106 732.737 724.004 735.954 Q720.902 739.149 715.254 744.913 Z" fill="#000000" fill-rule="nonzero" fill-opacity="1" /><path clip-path="url(#clip730)" d="M741.435 714.288 L759.791 714.288 L759.791 718.223 L745.717 718.223 L745.717 726.695 Q746.736 726.348 747.754 726.186 Q748.773 726.001 749.791 726.001 Q755.578 726.001 758.958 729.172 Q762.337 732.343 762.337 737.76 Q762.337 743.339 758.865 746.44 Q755.393 749.519 749.073 749.519 Q746.898 749.519 744.629 749.149 Q742.384 748.778 739.976 748.038 L739.976 743.339 Q742.06 744.473 744.282 745.028 Q746.504 745.584 748.981 745.584 Q752.985 745.584 755.323 743.478 Q757.661 741.371 757.661 737.76 Q757.661 734.149 755.323 732.042 Q752.985 729.936 748.981 729.936 Q747.106 729.936 745.231 730.353 Q743.379 730.769 741.435 731.649 L741.435 714.288 Z" fill="#000000" fill-rule="nonzero" fill-opacity="1" /><path clip-path="url(#clip730)" d="M781.55 717.367 Q777.939 717.367 776.11 720.931 Q774.305 724.473 774.305 731.603 Q774.305 738.709 776.11 742.274 Q777.939 745.815 781.55 745.815 Q785.184 745.815 786.99 742.274 Q788.819 738.709 788.819 731.603 Q788.819 724.473 786.99 720.931 Q785.184 717.367 781.55 717.367 M781.55 713.663 Q787.36 713.663 790.416 718.269 Q793.495 722.853 793.495 731.603 Q793.495 740.329 790.416 744.936 Q787.36 749.519 781.55 749.519 Q775.74 749.519 772.661 744.936 Q769.606 740.329 769.606 731.603 Q769.606 722.853 772.661 718.269 Q775.74 713.663 781.55 713.663 Z" fill="#000000" fill-rule="nonzero" fill-opacity="1" /><path clip-path="url(#clip730)" d="M1224.4 714.288 L1242.76 714.288 L1242.76 718.223 L1228.69 718.223 L1228.69 726.695 Q1229.7 726.348 1230.72 726.186 Q1231.74 726.001 1232.76 726.001 Q1238.55 726.001 1241.93 729.172 Q1245.31 732.343 1245.31 737.76 Q1245.31 743.339 1241.83 746.44 Q1238.36 749.519 1232.04 749.519 Q1229.87 749.519 1227.6 749.149 Q1225.35 748.778 1222.94 748.038 L1222.94 743.339 Q1225.03 744.473 1227.25 745.028 Q1229.47 745.584 1231.95 745.584 Q1235.95 745.584 1238.29 743.478 Q1240.63 741.371 1240.63 737.76 Q1240.63 734.149 1238.29 732.042 Q1235.95 729.936 1231.95 729.936 Q1230.07 729.936 1228.2 730.353 Q1226.35 730.769 1224.4 731.649 L1224.4 714.288 Z" fill="#000000" fill-rule="nonzero" fill-opacity="1" /><path clip-path="url(#clip730)" d="M1264.52 717.367 Q1260.91 717.367 1259.08 720.931 Q1257.27 724.473 1257.27 731.603 Q1257.27 738.709 1259.08 742.274 Q1260.91 745.815 1264.52 745.815 Q1268.15 745.815 1269.96 742.274 Q1271.79 738.709 1271.79 731.603 Q1271.79 724.473 1269.96 720.931 Q1268.15 717.367 1264.52 717.367 M1264.52 713.663 Q1270.33 713.663 1273.38 718.269 Q1276.46 722.853 1276.46 731.603 Q1276.46 740.329 1273.38 744.936 Q1270.33 749.519 1264.52 749.519 Q1258.71 749.519 1255.63 744.936 Q1252.57 740.329 1252.57 731.603 Q1252.57 722.853 1255.63 718.269 Q1258.71 713.663 1264.52 713.663 Z" fill="#000000" fill-rule="nonzero" fill-opacity="1" /><path clip-path="url(#clip730)" d="M1294.68 717.367 Q1291.07 717.367 1289.24 720.931 Q1287.44 724.473 1287.44 731.603 Q1287.44 738.709 1289.24 742.274 Q1291.07 745.815 1294.68 745.815 Q1298.31 745.815 1300.12 742.274 Q1301.95 738.709 1301.95 731.603 Q1301.95 724.473 1300.12 720.931 Q1298.31 717.367 1294.68 717.367 M1294.68 713.663 Q1300.49 713.663 1303.55 718.269 Q1306.62 722.853 1306.62 731.603 Q1306.62 740.329 1303.55 744.936 Q1300.49 749.519 1294.68 749.519 Q1288.87 749.519 1285.79 744.936 Q1282.74 740.329 1282.74 731.603 Q1282.74 722.853 1285.79 718.269 Q1288.87 713.663 1294.68 713.663 Z" fill="#000000" fill-rule="nonzero" fill-opacity="1" /><path clip-path="url(#clip730)" d="M1736.28 714.288 L1758.51 714.288 L1758.51 716.279 L1745.96 748.848 L1741.08 748.848 L1752.88 718.223 L1736.28 718.223 L1736.28 714.288 Z" fill="#000000" fill-rule="nonzero" fill-opacity="1" /><path clip-path="url(#clip730)" d="M1767.67 714.288 L1786.03 714.288 L1786.03 718.223 L1771.95 718.223 L1771.95 726.695 Q1772.97 726.348 1773.99 726.186 Q1775.01 726.001 1776.03 726.001 Q1781.82 726.001 1785.2 729.172 Q1788.57 732.343 1788.57 737.76 Q1788.57 743.339 1785.1 746.44 Q1781.63 749.519 1775.31 749.519 Q1773.14 749.519 1770.87 749.149 Q1768.62 748.778 1766.21 748.038 L1766.21 743.339 Q1768.3 744.473 1770.52 745.028 Q1772.74 745.584 1775.22 745.584 Q1779.22 745.584 1781.56 743.478 Q1783.9 741.371 1783.9 737.76 Q1783.9 734.149 1781.56 732.042 Q1779.22 729.936 1775.22 729.936 Q1773.34 729.936 1771.47 730.353 Q1769.62 730.769 1767.67 731.649 L1767.67 714.288 Z" fill="#000000" fill-rule="nonzero" fill-opacity="1" /><path clip-path="url(#clip730)" d="M1807.79 717.367 Q1804.18 717.367 1802.35 720.931 Q1800.54 724.473 1800.54 731.603 Q1800.54 738.709 1802.35 742.274 Q1804.18 745.815 1807.79 745.815 Q1811.42 745.815 1813.23 742.274 Q1815.06 738.709 1815.06 731.603 Q1815.06 724.473 1813.23 720.931 Q1811.42 717.367 1807.79 717.367 M1807.79 713.663 Q1813.6 713.663 1816.65 718.269 Q1819.73 722.853 1819.73 731.603 Q1819.73 740.329 1816.65 744.936 Q1813.6 749.519 1807.79 749.519 Q1801.98 749.519 1798.9 744.936 Q1795.84 740.329 1795.84 731.603 Q1795.84 722.853 1798.9 718.269 Q1801.98 713.663 1807.79 713.663 Z" fill="#000000" fill-rule="nonzero" fill-opacity="1" /><path clip-path="url(#clip730)" d="M2235.76 744.913 L2243.4 744.913 L2243.4 718.547 L2235.09 720.214 L2235.09 715.955 L2243.35 714.288 L2248.02 714.288 L2248.02 744.913 L2255.66 744.913 L2255.66 748.848 L2235.76 748.848 L2235.76 744.913 Z" fill="#000000" fill-rule="nonzero" fill-opacity="1" /><path clip-path="url(#clip730)" d="M2275.11 717.367 Q2271.5 717.367 2269.67 720.931 Q2267.86 724.473 2267.86 731.603 Q2267.86 738.709 2269.67 742.274 Q2271.5 745.815 2275.11 745.815 Q2278.74 745.815 2280.55 742.274 Q2282.38 738.709 2282.38 731.603 Q2282.38 724.473 2280.55 720.931 Q2278.74 717.367 2275.11 717.367 M2275.11 713.663 Q2280.92 713.663 2283.97 718.269 Q2287.05 722.853 2287.05 731.603 Q2287.05 740.329 2283.97 744.936 Q2280.92 749.519 2275.11 749.519 Q2269.3 749.519 2266.22 744.936 Q2263.16 740.329 2263.16 731.603 Q2263.16 722.853 2266.22 718.269 Q2269.3 713.663 2275.11 713.663 Z" fill="#000000" fill-rule="nonzero" fill-opacity="1" /><path clip-path="url(#clip730)" d="M2305.27 717.367 Q2301.66 717.367 2299.83 720.931 Q2298.02 724.473 2298.02 731.603 Q2298.02 738.709 2299.83 742.274 Q2301.66 745.815 2305.27 745.815 Q2308.9 745.815 2310.71 742.274 Q2312.54 738.709 2312.54 731.603 Q2312.54 724.473 2310.71 720.931 Q2308.9 717.367 2305.27 717.367 M2305.27 713.663 Q2311.08 713.663 2314.14 718.269 Q2317.21 722.853 2317.21 731.603 Q2317.21 740.329 2314.14 744.936 Q2311.08 749.519 2305.27 749.519 Q2299.46 749.519 2296.38 744.936 Q2293.33 740.329 2293.33 731.603 Q2293.33 722.853 2296.38 718.269 Q2299.46 713.663 2305.27 713.663 Z" fill="#000000" fill-rule="nonzero" fill-opacity="1" /><path clip-path="url(#clip730)" d="M2335.43 717.367 Q2331.82 717.367 2329.99 720.931 Q2328.19 724.473 2328.19 731.603 Q2328.19 738.709 2329.99 742.274 Q2331.82 745.815 2335.43 745.815 Q2339.07 745.815 2340.87 742.274 Q2342.7 738.709 2342.7 731.603 Q2342.7 724.473 2340.87 720.931 Q2339.07 717.367 2335.43 717.367 M2335.43 713.663 Q2341.24 713.663 2344.3 718.269 Q2347.38 722.853 2347.38 731.603 Q2347.38 740.329 2344.3 744.936 Q2341.24 749.519 2335.43 749.519 Q2329.62 749.519 2326.54 744.936 Q2323.49 740.329 2323.49 731.603 Q2323.49 722.853 2326.54 718.269 Q2329.62 713.663 2335.43 713.663 Z" fill="#000000" fill-rule="nonzero" fill-opacity="1" /><polyline clip-path="url(#clip730)" style="stroke:#000000; stroke-linecap:round; stroke-linejoin:round; stroke-width:4; stroke-opacity:1; fill:none" points="178.867,686.448 178.867,47.2441 "/>
<polyline clip-path="url(#clip730)" style="stroke:#000000; stroke-linecap:round; stroke-linejoin:round; stroke-width:4; stroke-opacity:1; fill:none" points="178.867,686.448 197.764,686.448 "/>
<polyline clip-path="url(#clip730)" style="stroke:#000000; stroke-linecap:round; stroke-linejoin:round; stroke-width:4; stroke-opacity:1; fill:none" points="178.867,526.647 197.764,526.647 "/>
<polyline clip-path="url(#clip730)" style="stroke:#000000; stroke-linecap:round; stroke-linejoin:round; stroke-width:4; stroke-opacity:1; fill:none" points="178.867,366.846 197.764,366.846 "/>
<polyline clip-path="url(#clip730)" style="stroke:#000000; stroke-linecap:round; stroke-linejoin:round; stroke-width:4; stroke-opacity:1; fill:none" points="178.867,207.045 197.764,207.045 "/>
<polyline clip-path="url(#clip730)" style="stroke:#000000; stroke-linecap:round; stroke-linejoin:round; stroke-width:4; stroke-opacity:1; fill:none" points="178.867,47.2441 197.764,47.2441 "/>
<path clip-path="url(#clip730)" d="M50.9921 686.899 L80.6679 686.899 L80.6679 690.834 L50.9921 690.834 L50.9921 686.899 Z" fill="#000000" fill-rule="nonzero" fill-opacity="1" /><path clip-path="url(#clip730)" d="M91.5706 699.793 L99.2095 699.793 L99.2095 673.427 L90.8993 675.094 L90.8993 670.835 L99.1632 669.168 L103.839 669.168 L103.839 699.793 L111.478 699.793 L111.478 703.728 L91.5706 703.728 L91.5706 699.793 Z" fill="#000000" fill-rule="nonzero" fill-opacity="1" /><path clip-path="url(#clip730)" d="M130.922 672.247 Q127.311 672.247 125.482 675.811 Q123.677 679.353 123.677 686.483 Q123.677 693.589 125.482 697.154 Q127.311 700.695 130.922 700.695 Q134.556 700.695 136.362 697.154 Q138.191 693.589 138.191 686.483 Q138.191 679.353 136.362 675.811 Q134.556 672.247 130.922 672.247 M130.922 668.543 Q136.732 668.543 139.788 673.149 Q142.867 677.733 142.867 686.483 Q142.867 695.209 139.788 699.816 Q136.732 704.399 130.922 704.399 Q125.112 704.399 122.033 699.816 Q118.978 695.209 118.978 686.483 Q118.978 677.733 122.033 673.149 Q125.112 668.543 130.922 668.543 Z" fill="#000000" fill-rule="nonzero" fill-opacity="1" /><path clip-path="url(#clip730)" d="M82.1494 527.098 L111.825 527.098 L111.825 531.033 L82.1494 531.033 L82.1494 527.098 Z" fill="#000000" fill-rule="nonzero" fill-opacity="1" /><path clip-path="url(#clip730)" d="M121.964 509.367 L140.32 509.367 L140.32 513.302 L126.246 513.302 L126.246 521.774 Q127.265 521.427 128.283 521.265 Q129.302 521.08 130.32 521.08 Q136.107 521.08 139.487 524.251 Q142.867 527.422 142.867 532.839 Q142.867 538.418 139.394 541.52 Q135.922 544.598 129.603 544.598 Q127.427 544.598 125.158 544.228 Q122.913 543.857 120.506 543.117 L120.506 538.418 Q122.589 539.552 124.811 540.108 Q127.033 540.663 129.51 540.663 Q133.515 540.663 135.853 538.557 Q138.191 536.45 138.191 532.839 Q138.191 529.228 135.853 527.121 Q133.515 525.015 129.51 525.015 Q127.635 525.015 125.76 525.432 Q123.908 525.848 121.964 526.728 L121.964 509.367 Z" fill="#000000" fill-rule="nonzero" fill-opacity="1" /><path clip-path="url(#clip730)" d="M130.922 352.645 Q127.311 352.645 125.482 356.209 Q123.677 359.751 123.677 366.881 Q123.677 373.987 125.482 377.552 Q127.311 381.094 130.922 381.094 Q134.556 381.094 136.362 377.552 Q138.191 373.987 138.191 366.881 Q138.191 359.751 136.362 356.209 Q134.556 352.645 130.922 352.645 M130.922 348.941 Q136.732 348.941 139.788 353.547 Q142.867 358.131 142.867 366.881 Q142.867 375.608 139.788 380.214 Q136.732 384.797 130.922 384.797 Q125.112 384.797 122.033 380.214 Q118.978 375.608 118.978 366.881 Q118.978 358.131 122.033 353.547 Q125.112 348.941 130.922 348.941 Z" fill="#000000" fill-rule="nonzero" fill-opacity="1" /><path clip-path="url(#clip730)" d="M121.964 189.765 L140.32 189.765 L140.32 193.7 L126.246 193.7 L126.246 202.172 Q127.265 201.825 128.283 201.663 Q129.302 201.478 130.32 201.478 Q136.107 201.478 139.487 204.649 Q142.867 207.82 142.867 213.237 Q142.867 218.816 139.394 221.918 Q135.922 224.996 129.603 224.996 Q127.427 224.996 125.158 224.626 Q122.913 224.256 120.506 223.515 L120.506 218.816 Q122.589 219.95 124.811 220.506 Q127.033 221.061 129.51 221.061 Q133.515 221.061 135.853 218.955 Q138.191 216.848 138.191 213.237 Q138.191 209.626 135.853 207.52 Q133.515 205.413 129.51 205.413 Q127.635 205.413 125.76 205.83 Q123.908 206.246 121.964 207.126 L121.964 189.765 Z" fill="#000000" fill-rule="nonzero" fill-opacity="1" /><path clip-path="url(#clip730)" d="M91.5706 60.5889 L99.2095 60.5889 L99.2095 34.2233 L90.8993 35.89 L90.8993 31.6308 L99.1632 29.9641 L103.839 29.9641 L103.839 60.5889 L111.478 60.5889 L111.478 64.5241 L91.5706 64.5241 L91.5706 60.5889 Z" fill="#000000" fill-rule="nonzero" fill-opacity="1" /><path clip-path="url(#clip730)" d="M130.922 33.0428 Q127.311 33.0428 125.482 36.6076 Q123.677 40.1492 123.677 47.2788 Q123.677 54.3853 125.482 57.9501 Q127.311 61.4917 130.922 61.4917 Q134.556 61.4917 136.362 57.9501 Q138.191 54.3853 138.191 47.2788 Q138.191 40.1492 136.362 36.6076 Q134.556 33.0428 130.922 33.0428 M130.922 29.3391 Q136.732 29.3391 139.788 33.9456 Q142.867 38.5289 142.867 47.2788 Q142.867 56.0056 139.788 60.6121 Q136.732 65.1954 130.922 65.1954 Q125.112 65.1954 122.033 60.6121 Q118.978 56.0056 118.978 47.2788 Q118.978 38.5289 122.033 33.9456 Q125.112 29.3391 130.922 29.3391 Z" fill="#000000" fill-rule="nonzero" fill-opacity="1" /><polyline clip-path="url(#clip732)" style="stroke:#009af9; stroke-linecap:round; stroke-linejoin:round; stroke-width:4; stroke-opacity:1; fill:none" points="240.392,334.886 242.445,332.558 244.498,396.385 246.55,336.52 248.603,335.467 250.656,348.179 252.709,347.1 254.762,344.306 256.815,339.002 258.868,378.861 260.921,372.433 262.974,346.919 265.027,346.24 267.079,369.297 269.132,380.749 271.185,380.17 273.238,380.301 275.291,380.439 277.344,381.451 279.397,383.072 281.45,383.895 283.503,358.744 285.555,358.748 287.608,354.398 289.661,347.703 291.714,345.196 293.767,345.332 295.82,335.173 297.873,329.175 299.926,327.943 301.979,329.578 304.031,404.352 306.084,367.536 308.137,364.713 310.19,372.793 312.243,372.509 314.296,372.333 316.349,372.2 318.402,354.02 320.455,354.385 322.507,354.283 324.56,363.207 326.613,351.889 328.666,359.615 330.719,341.824 332.772,351.882 334.825,350.147 336.878,350.099 338.931,348.43 340.984,354.558 343.036,357.935 345.089,360.617 347.142,362.004 349.195,361.743 351.248,356.772 353.301,350.688 355.354,351.349 357.407,352.469 359.46,352.312 361.512,352.312 363.565,352.33 365.618,338.432 367.671,338.413 369.724,338.322 371.777,338.323 373.83,339.82 375.883,347.025 377.936,346.859 379.988,346.341 382.041,348.01 384.094,347.96 386.147,346.785 388.2,341.579 390.253,358.818 392.306,362.935 394.359,353.297 396.412,353.345 398.464,355.855 400.517,355.878 402.57,363.753 404.623,363.417 406.676,362.537 408.729,368.359 410.782,394.827 412.835,404.053 414.888,405.98 416.94,406.046 418.993,396.473 421.046,388.727 423.099,388.678 425.152,388.683 427.205,385.866 429.258,384.105 431.311,378.384 433.364,347.787 435.417,343.035 437.469,342.983 439.522,328.61 441.575,328.626 443.628,327.715 445.681,326.598 447.734,320.389 449.787,328.944 451.84,314.726 453.893,299.737 455.945,397.451 457.998,389.8 460.051,349.956 462.104,350.373 464.157,320.463 466.21,323.466 468.263,323.748 470.316,313.77 472.369,362.117 474.421,359.47 476.474,364.263 478.527,374.432 480.58,374.3 482.633,373.619 484.686,355.989 486.739,362.757 488.792,361.101 490.845,360.47 492.897,359.408 494.95,362.963 497.003,365.947 499.056,366.477 501.109,366.562 503.162,366.225 505.215,362.718 507.268,346.608 509.321,345.39 511.374,345.664 513.426,348.545 515.479,336.107 517.532,335.914 519.585,335.851 521.638,335.61 523.691,335.736 525.744,342.782 527.797,336.743 529.85,337.418 531.902,337.397 533.955,337.338 536.008,337.429 538.061,337.879 540.114,339.754 542.167,343.46 544.22,356.788 546.273,372.174 548.326,317.013 550.378,318.573 552.431,307.68 554.484,312.99 556.537,317.082 558.59,327.729 560.643,295.479 562.696,295.375 564.749,296.573 566.802,297.223 568.854,290.572 570.907,290.544 572.96,290.232 575.013,303.17 577.066,303.543 579.119,303.753 581.172,340.064 583.225,315.395 585.278,315.225 587.331,335.426 589.383,335.782 591.436,358.033 593.489,357.347 595.542,357.369 597.595,357.365 599.648,357.24 601.701,364.677 603.754,368.755 605.807,361.565 607.859,358.969 609.912,365.895 611.965,365.79 614.018,368.545 616.071,359.456 618.124,358.28 620.177,359.706 622.23,362.881 624.283,359.563 626.335,358.704 628.388,353.641 630.441,354.65 632.494,354.885 634.547,355.863 636.6,342.029 638.653,337.022 640.706,345.221 642.759,361.693 644.811,369.86 646.864,398.641 648.917,358.996 650.97,359.037 653.023,364.298 655.076,365.718 657.129,366.148 659.182,364.82 661.235,361.298 663.288,361.173 665.34,359.23 667.393,352.238 669.446,347.598 671.499,344.868 673.552,349.536 675.605,350.545 677.658,351.034 679.711,351.065 681.764,346.479 683.816,348.981 685.869,352.529 687.922,352.997 689.975,351.796 692.028,351.812 694.081,353.661 696.134,371.431 698.187,371.747 700.24,374.829 702.292,374.942 704.345,374.307 706.398,374.295 708.451,374.537 710.504,376.643 712.557,346.563 714.61,353.754 716.663,352.436 718.716,353.756 720.768,364.399 722.821,364.28 724.874,360.822 726.927,360.722 728.98,359.934 731.033,360.424 733.086,360.406 735.139,364.055 737.192,369.524 739.245,352.15 741.297,381.645 743.35,382.832 745.403,377.75 747.456,375.06 749.509,379.797 751.562,379.465 753.615,372.493 755.668,368.441 757.721,394.782 759.773,359.818 761.826,374.246 763.879,384.385 765.932,385.141 767.985,385.26 770.038,362.265 772.091,348.798 774.144,373.935 776.197,376.057 778.249,373.536 780.302,373.489 782.355,385.268 784.408,388.924 786.461,378.871 788.514,379.148 790.567,377.442 792.62,398.868 794.673,370.46 796.725,360.416 798.778,365.553 800.831,367.041 802.884,366.973 804.937,365.896 806.99,363.19 809.043,378.574 811.096,384.627 813.149,384.645 815.202,383.241 817.254,395.811 819.307,379.157 821.36,379.149 823.413,377.215 825.466,374.977 827.519,375.208 829.572,376.788 831.625,376.707 833.678,377.377 835.73,377.19 837.783,377.168 839.836,378.424 841.889,363.426 843.942,364.089 845.995,352.684 848.048,356.175 850.101,356.46 852.154,356.438 854.206,354.132 856.259,364.178 858.312,362.582 860.365,370.271 862.418,367.835 864.471,368.903 866.524,400.769 868.577,407.239 870.63,400.584 872.682,407.646 874.735,410.526 876.788,411.267 878.841,389.475 880.894,389.075 882.947,329.354 885,332.503 887.053,333.043 889.106,332.495 891.159,333.768 893.211,332.462 895.264,332.464 897.317,329.56 899.37,326.217 901.423,327.063 903.476,328.318 905.529,334.243 907.582,334.038 909.635,337.17 911.687,326.222 913.74,326.185 915.793,353.61 917.846,332.112 919.899,355.184 921.952,355.606 924.005,356.046 926.058,358.458 928.111,359.585 930.163,356.337 932.216,369.747 934.269,370.498 936.322,370.44 938.375,373.313 940.428,361.642 942.481,361.626 944.534,359.884 946.587,336.631 948.639,337.126 950.692,339.294 952.745,334.64 954.798,318.839 956.851,318.427 958.904,328.331 960.957,330.606 963.01,316.41 965.063,310.211 967.116,310.428 969.168,304.998 971.221,304.201 973.274,304.789 975.327,304.673 977.38,303.582 979.433,303.653 981.486,304.15 983.539,302.159 985.592,363.553 987.644,369.525 989.697,370.637 991.75,376.81 993.803,361.171 995.856,366.537 997.909,367.129 999.962,332.726 1002.01,343.685 1004.07,342.772 1006.12,359.895 1008.17,361.204 1010.23,361.591 1012.28,361.777 1014.33,401.473 1016.38,401.409 1018.44,353.978 1020.49,365.618 1022.54,333.438 1024.6,330.54 1026.65,333.539 1028.7,334.321 1030.76,387.131 1032.81,387.173 1034.86,387.216 1036.91,385.236 1038.97,384.277 1041.02,372.211 1043.07,370.87 1045.13,368.23 1047.18,364.057 1049.23,365.43 1051.28,365.462 1053.34,365.496 1055.39,367.706 1057.44,360.674 1059.5,361.31 1061.55,360.277 1063.6,346.764 1065.65,372.154 1067.71,375.056 1069.76,324.986 1071.81,318.521 1073.87,317.973 1075.92,317.809 1077.97,320.964 1080.02,378.06 1082.08,373.238 1084.13,367.476 1086.18,367.121 1088.24,367.177 1090.29,369.713 1092.34,366.204 1094.39,366.11 1096.45,366.309 1098.5,378.99 1100.55,378.699 1102.61,377.393 1104.66,376.334 1106.71,378.213 1108.77,366.436 1110.82,366.447 1112.87,366.491 1114.92,366.859 1116.98,366.405 1119.03,366.267 1121.08,367.351 1123.14,365.25 1125.19,363.848 1127.24,364.197 1129.29,364.241 1131.35,362.705 1133.4,361.216 1135.45,358.231 1137.51,359.195 1139.56,377.39 1141.61,377.801 1143.66,378.145 1145.72,377.31 1147.77,377.315 1149.82,363.982 1151.88,365.937 1153.93,371.239 1155.98,358.264 1158.03,356.11 1160.09,356.833 1162.14,355.711 1164.19,354.383 1166.25,347.925 1168.3,363.004 1170.35,361.109 1172.4,332.781 1174.46,333.862 1176.51,333.156 1178.56,334.905 1180.62,343.004 1182.67,362.224 1184.72,354.521 1186.77,354.414 1188.83,351.556 1190.88,352.13 1192.93,345.931 1194.99,344.072 1197.04,347.252 1199.09,346.943 1201.15,346.804 1203.2,346.668 1205.25,395.83 1207.3,396.515 1209.36,385.463 1211.41,385.46 1213.46,390.938 1215.52,390.914 1217.57,387.965 1219.62,386.548 1221.67,381.331 1223.73,382.454 1225.78,381.838 1227.83,380.874 1229.89,380.707 1231.94,370.589 1233.99,405.01 1236.04,372.452 1238.1,372.626 1240.15,372.804 1242.2,390.871 1244.26,391.994 1246.31,380.495 1248.36,380.367 1250.41,380.488 1252.47,381.012 1254.52,380.494 1256.57,363.616 1258.63,364.148 1260.68,364.611 1262.73,364.778 1264.78,364.723 1266.84,364.483 1268.89,362.822 1270.94,371.128 1273,371.558 1275.05,377.285 1277.1,354.915 1279.16,351.68 1281.21,349.824 1283.26,348.059 1285.31,342.848 1287.37,342.697 1289.42,342.905 1291.47,342.968 1293.53,344.812 1295.58,345.55 1297.63,344.241 1299.68,374.139 1301.74,373.784 1303.79,374.009 1305.84,365.041 1307.9,365.521 1309.95,367.715 1312,370.443 1314.05,370.387 1316.11,370.374 1318.16,371.2 1320.21,371.254 1322.27,371.244 1324.32,371.74 1326.37,379.908 1328.42,379.716 1330.48,379.658 1332.53,379.322 1334.58,372.16 1336.64,370.475 1338.69,372.208 1340.74,372.465 1342.79,374.789 1344.85,391.478 1346.9,375.774 1348.95,377.292 1351.01,379.616 1353.06,379.375 1355.11,380.237 1357.16,380.1 1359.22,380.687 1361.27,360.061 1363.32,361.451 1365.38,361.258 1367.43,361.119 1369.48,370.231 1371.54,370.332 1373.59,372.159 1375.64,384.801 1377.69,395.47 1379.75,417.73 1381.8,318.685 1383.85,324.072 1385.91,397.829 1387.96,385.128 1390.01,330.699 1392.06,331.717 1394.12,365.006 1396.17,382.911 1398.22,390.479 1400.28,390.083 1402.33,360.675 1404.38,330.443 1406.43,412.735 1408.49,424.874 1410.54,418.001 1412.59,417.435 1414.65,410.436 1416.7,412.871 1418.75,404.151 1420.8,402.744 1422.86,402.451 1424.91,402.401 1426.96,389.16 1429.02,389.082 1431.07,380.819 1433.12,380.206 1435.17,390.416 1437.23,391.478 1439.28,391.387 1441.33,396.024 1443.39,396.032 1445.44,427.427 1447.49,410.973 1449.55,414.061 1451.6,380.564 1453.65,372.896 1455.7,366.782 1457.76,364.638 1459.81,364.787 1461.86,370.502 1463.92,369.557 1465.97,348.604 1468.02,350.922 1470.07,343.888 1472.13,351.762 1474.18,365.258 1476.23,373.997 1478.29,373.528 1480.34,373.527 1482.39,377.951 1484.44,377.39 1486.5,376.132 1488.55,376.122 1490.6,382.651 1492.66,383.506 1494.71,381.429 1496.76,379.45 1498.81,379.281 1500.87,380.866 1502.92,381.861 1504.97,383.425 1507.03,392.31 1509.08,398.383 1511.13,395.884 1513.18,395.654 1515.24,372.549 1517.29,374.618 1519.34,370.836 1521.4,368.417 1523.45,383.781 1525.5,385.442 1527.55,376.214 1529.61,337.839 1531.66,338.221 1533.71,338.286 1535.77,339.619 1537.82,340.963 1539.87,346.05 1541.93,340.858 1543.98,341.914 1546.03,341.479 1548.08,342.818 1550.14,342.55 1552.19,360.477 1554.24,381.064 1556.3,363.925 1558.35,361.924 1560.4,358.812 1562.45,366.594 1564.51,357.397 1566.56,352.654 1568.61,352.152 1570.67,349.372 1572.72,376.795 1574.77,370.082 1576.82,370.038 1578.88,371.14 1580.93,359.762 1582.98,360.087 1585.04,360.085 1587.09,360.961 1589.14,361.511 1591.19,361.731 1593.25,361.729 1595.3,358.15 1597.35,361.888 1599.41,361.859 1601.46,357.899 1603.51,356.155 1605.56,356.284 1607.62,360.843 1609.67,355.839 1611.72,355.866 1613.78,368.949 1615.83,370.192 1617.88,352.346 1619.94,353.317 1621.99,352.606 1624.04,353.297 1626.09,352.052 1628.15,351.742 1630.2,349.433 1632.25,346.255 1634.31,348.045 1636.36,340.619 1638.41,311.131 1640.46,371.738 1642.52,369.652 1644.57,369.927 1646.62,359.802 1648.68,360.089 1650.73,362.015 1652.78,361.979 1654.83,365.189 1656.89,396.522 1658.94,344.633 1660.99,360.555 1663.05,363.109 1665.1,367.284 1667.15,373.072 1669.2,373.075 1671.26,373.183 1673.31,373.538 1675.36,367.604 1677.42,350.148 1679.47,350.081 1681.52,346.941 1683.57,346.943 1685.63,345.562 1687.68,382.275 1689.73,386.417 1691.79,351.351 1693.84,383.258 1695.89,383.76 1697.94,380.374 1700,376.151 1702.05,375.171 1704.1,375.736 1706.16,375.462 1708.21,375.436 1710.26,376.399 1712.32,376.274 1714.37,378.905 1716.42,371.139 1718.47,371.358 1720.53,352.615 1722.58,352.626 1724.63,344.436 1726.69,344.551 1728.74,344.468 1730.79,342.127 1732.84,371.027 1734.9,371.321 1736.95,371.103 1739,371.494 1741.06,376.716 1743.11,376.795 1745.16,400.633 1747.21,396.47 1749.27,396.473 1751.32,396.423 1753.37,404.267 1755.43,379.114 1757.48,383.24 1759.53,384.7 1761.58,386.085 1763.64,416.113 1765.69,322.776 1767.74,323.371 1769.8,322.06 1771.85,304.537 1773.9,317.813 1775.95,319.568 1778.01,323.444 1780.06,327.696 1782.11,328.368 1784.17,331.66 1786.22,349.053 1788.27,349.053 1790.33,362.604 1792.38,362.565 1794.43,368.098 1796.48,367.597 1798.54,369.044 1800.59,368.539 1802.64,371.296 1804.7,356.381 1806.75,359.53 1808.8,360.931 1810.85,361.26 1812.91,361.345 1814.96,350.551 1817.01,350.489 1819.07,351.891 1821.12,354.894 1823.17,356.564 1825.22,357.176 1827.28,380.039 1829.33,375.721 1831.38,407.698 1833.44,393.317 1835.49,393.446 1837.54,388.649 1839.59,389.053 1841.65,387.653 1843.7,388.054 1845.75,404.521 1847.81,442.303 1849.86,429.897 1851.91,429.911 1853.96,398.743 1856.02,462.855 1858.07,463.058 1860.12,466.305 1862.18,460.368 1864.23,437.589 1866.28,431.628 1868.34,433.428 1870.39,432.887 1872.44,431.676 1874.49,442.495 1876.55,442.561 1878.6,466.286 1880.65,464.853 1882.71,449.552 1884.76,446.393 1886.81,506.419 1888.86,399.204 1890.92,402.329 1892.97,434.979 1895.02,422.998 1897.08,408.554 1899.13,410.846 1901.18,409.662 1903.23,408.027 1905.29,399.218 1907.34,387.327 1909.39,408.233 1911.45,406.786 1913.5,403.137 1915.55,399.607 1917.6,401.25 1919.66,388.843 1921.71,387.831 1923.76,382.208 1925.82,385.486 1927.87,379.042 1929.92,376.078 1931.97,375.855 1934.03,322.561 1936.08,360.272 1938.13,354.974 1940.19,356.673 1942.24,352.636 1944.29,405.245 1946.34,405.192 1948.4,407.421 1950.45,397.983 1952.5,373.119 1954.56,370.341 1956.61,391.409 1958.66,397.453 1960.72,396.033 1962.77,378.447 1964.82,387.1 1966.87,409.966 1968.93,410.169 1970.98,343.623 1973.03,341.725 1975.09,309.298 1977.14,363.303 1979.19,310.008 1981.24,304.917 1983.3,363.251 1985.35,363.94 1987.4,365.653 1989.46,375.863 1991.51,380.302 1993.56,381.136 1995.61,347.799 1997.67,347.975 1999.72,351.487 2001.77,361.708 2003.83,383.515 2005.88,388.696 2007.93,407.573 2009.98,406.521 2012.04,394.822 2014.09,397.142 2016.14,396.532 2018.2,385.561 2020.25,385.285 2022.3,422.066 2024.35,340.312 2026.41,344.12 2028.46,312.177 2030.51,310.121 2032.57,311.876 2034.62,314.899 2036.67,315.162 2038.73,315 2040.78,323.584 2042.83,324.471 2044.88,346.049 2046.94,335.514 2048.99,418.983 2051.04,430.256 2053.1,429.683 2055.15,441.215 2057.2,428.611 2059.25,378.968 2061.31,378.878 2063.36,372.903 2065.41,369.143 2067.47,325.761 2069.52,336.722 2071.57,328.449 2073.62,336.59 2075.68,399.413 2077.73,395.18 2079.78,312.582 2081.84,323.629 2083.89,322.302 2085.94,320.216 2087.99,320.22 2090.05,325.361 2092.1,270.859 2094.15,270.866 2096.21,271.631 2098.26,271.054 2100.31,295.468 2102.36,282.581 2104.42,290.458 2106.47,290.561 2108.52,304.636 2110.58,293.128 2112.63,292.918 2114.68,291.432 2116.73,292.617 2118.79,289.859 2120.84,323.312 2122.89,305.588 2124.95,305.394 2127,305.444 2129.05,368.796 2131.11,368.825 2133.16,371.411 2135.21,371.844 2137.26,370.003 2139.32,370.012 2141.37,370.302 2143.42,362.675 2145.48,358.158 2147.53,356.414 2149.58,369.176 2151.63,367.678 2153.69,367.289 2155.74,365.195 2157.79,374.24 2159.85,376.762 2161.9,377.722 2163.95,330.68 2166,330.694 2168.06,331.104 2170.11,335.962 2172.16,329.826 2174.22,328.519 2176.27,313.655 2178.32,312.244 2180.37,311.111 2182.43,310.086 2184.48,307.591 2186.53,292.782 2188.59,293.743 2190.64,273.239 2192.69,273.917 2194.74,264.353 2196.8,266.001 2198.85,268.295 2200.9,231.395 2202.96,260.763 2205.01,261.148 2207.06,251.464 2209.12,249.017 2211.17,242.119 2213.22,245.967 2215.27,258.356 2217.33,262.253 2219.38,293.076 2221.43,290.914 2223.49,223.371 2225.54,155.228 2227.59,188.149 2229.64,206.241 2231.7,180.638 2233.75,179.055 2235.8,356.579 2237.86,352.163 2239.91,403.055 2241.96,411.902 2244.01,409.263 2246.07,324.832 2248.12,246.24 2250.17,207.556 2252.23,276.457 2254.28,278.894 2256.33,283.131 2258.38,285.05 2260.44,227.383 2262.49,240.457 2264.54,247.101 2266.6,261.864 2268.65,286.825 2270.7,282.609 2272.75,400.505 2274.81,406.324 2276.86,406.705 2278.91,456.498 2280.97,450.048 2283.02,445.482 2285.07,460.941 2287.12,451.845 2289.18,423.865 2291.23,398.244 "/>
<path clip-path="url(#clip730)" d="M251.33 172.231 L548.024 172.231 L548.024 68.5509 L251.33 68.5509  Z" fill="#ffffff" fill-rule="evenodd" fill-opacity="1"/>
<polyline clip-path="url(#clip730)" style="stroke:#000000; stroke-linecap:round; stroke-linejoin:round; stroke-width:4; stroke-opacity:1; fill:none" points="251.33,172.231 548.024,172.231 548.024,68.5509 251.33,68.5509 251.33,172.231 "/>
<polyline clip-path="url(#clip730)" style="stroke:#009af9; stroke-linecap:round; stroke-linejoin:round; stroke-width:4; stroke-opacity:1; fill:none" points="275.484,120.391 420.41,120.391 "/>
<path clip-path="url(#clip730)" d="M444.564 103.111 L449.24 103.111 L449.24 133.736 L466.069 133.736 L466.069 137.671 L444.564 137.671 L444.564 103.111 Z" fill="#000000" fill-rule="nonzero" fill-opacity="1" /><path clip-path="url(#clip730)" d="M491.694 104.245 L491.694 108.805 Q489.032 107.532 486.67 106.907 Q484.309 106.282 482.11 106.282 Q478.291 106.282 476.208 107.764 Q474.147 109.245 474.147 111.977 Q474.147 114.268 475.513 115.449 Q476.902 116.606 480.745 117.324 L483.569 117.902 Q488.8 118.898 491.277 121.421 Q493.777 123.921 493.777 128.134 Q493.777 133.157 490.397 135.75 Q487.041 138.342 480.536 138.342 Q478.083 138.342 475.305 137.787 Q472.55 137.231 469.587 136.143 L469.587 131.328 Q472.434 132.926 475.166 133.736 Q477.897 134.546 480.536 134.546 Q484.541 134.546 486.717 132.972 Q488.893 131.398 488.893 128.481 Q488.893 125.935 487.319 124.5 Q485.768 123.064 482.203 122.347 L479.356 121.791 Q474.124 120.75 471.786 118.527 Q469.448 116.305 469.448 112.347 Q469.448 107.764 472.666 105.125 Q475.907 102.486 481.578 102.486 Q484.008 102.486 486.532 102.926 Q489.055 103.366 491.694 104.245 Z" fill="#000000" fill-rule="nonzero" fill-opacity="1" /><path clip-path="url(#clip730)" d="M521.786 104.245 L521.786 108.805 Q519.124 107.532 516.763 106.907 Q514.402 106.282 512.203 106.282 Q508.383 106.282 506.3 107.764 Q504.24 109.245 504.24 111.977 Q504.24 114.268 505.606 115.449 Q506.994 116.606 510.837 117.324 L513.661 117.902 Q518.893 118.898 521.369 121.421 Q523.869 123.921 523.869 128.134 Q523.869 133.157 520.49 135.75 Q517.133 138.342 510.629 138.342 Q508.175 138.342 505.397 137.787 Q502.643 137.231 499.68 136.143 L499.68 131.328 Q502.527 132.926 505.258 133.736 Q507.99 134.546 510.629 134.546 Q514.633 134.546 516.809 132.972 Q518.985 131.398 518.985 128.481 Q518.985 125.935 517.411 124.5 Q515.86 123.064 512.295 122.347 L509.448 121.791 Q504.217 120.75 501.879 118.527 Q499.541 116.305 499.541 112.347 Q499.541 107.764 502.758 105.125 Q505.999 102.486 511.67 102.486 Q514.101 102.486 516.624 102.926 Q519.147 103.366 521.786 104.245 Z" fill="#000000" fill-rule="nonzero" fill-opacity="1" /><path clip-path="url(#clip730)" d="M178.867 1486.45 L2352.76 1486.45 L2352.76 847.244 L178.867 847.244  Z" fill="#ffffff" fill-rule="evenodd" fill-opacity="1"/>
<defs>
  <clipPath id="clip733">
    <rect x="178" y="847" width="2175" height="640"/>
  </clipPath>
</defs>
<polyline clip-path="url(#clip733)" style="stroke:#000000; stroke-linecap:round; stroke-linejoin:round; stroke-width:2; stroke-opacity:0.1; fill:none" points="238.339,1486.45 238.339,847.244 "/>
<polyline clip-path="url(#clip733)" style="stroke:#000000; stroke-linecap:round; stroke-linejoin:round; stroke-width:2; stroke-opacity:0.1; fill:none" points="751.562,1486.45 751.562,847.244 "/>
<polyline clip-path="url(#clip733)" style="stroke:#000000; stroke-linecap:round; stroke-linejoin:round; stroke-width:2; stroke-opacity:0.1; fill:none" points="1264.78,1486.45 1264.78,847.244 "/>
<polyline clip-path="url(#clip733)" style="stroke:#000000; stroke-linecap:round; stroke-linejoin:round; stroke-width:2; stroke-opacity:0.1; fill:none" points="1778.01,1486.45 1778.01,847.244 "/>
<polyline clip-path="url(#clip733)" style="stroke:#000000; stroke-linecap:round; stroke-linejoin:round; stroke-width:2; stroke-opacity:0.1; fill:none" points="2291.23,1486.45 2291.23,847.244 "/>
<polyline clip-path="url(#clip733)" style="stroke:#000000; stroke-linecap:round; stroke-linejoin:round; stroke-width:2; stroke-opacity:0.1; fill:none" points="178.867,1486.45 2352.76,1486.45 "/>
<polyline clip-path="url(#clip733)" style="stroke:#000000; stroke-linecap:round; stroke-linejoin:round; stroke-width:2; stroke-opacity:0.1; fill:none" points="178.867,1326.65 2352.76,1326.65 "/>
<polyline clip-path="url(#clip733)" style="stroke:#000000; stroke-linecap:round; stroke-linejoin:round; stroke-width:2; stroke-opacity:0.1; fill:none" points="178.867,1166.85 2352.76,1166.85 "/>
<polyline clip-path="url(#clip733)" style="stroke:#000000; stroke-linecap:round; stroke-linejoin:round; stroke-width:2; stroke-opacity:0.1; fill:none" points="178.867,1007.05 2352.76,1007.05 "/>
<polyline clip-path="url(#clip733)" style="stroke:#000000; stroke-linecap:round; stroke-linejoin:round; stroke-width:2; stroke-opacity:0.1; fill:none" points="178.867,847.244 2352.76,847.244 "/>
<polyline clip-path="url(#clip730)" style="stroke:#000000; stroke-linecap:round; stroke-linejoin:round; stroke-width:4; stroke-opacity:1; fill:none" points="178.867,1486.45 2352.76,1486.45 "/>
<polyline clip-path="url(#clip730)" style="stroke:#000000; stroke-linecap:round; stroke-linejoin:round; stroke-width:4; stroke-opacity:1; fill:none" points="238.339,1486.45 238.339,1467.55 "/>
<polyline clip-path="url(#clip730)" style="stroke:#000000; stroke-linecap:round; stroke-linejoin:round; stroke-width:4; stroke-opacity:1; fill:none" points="751.562,1486.45 751.562,1467.55 "/>
<polyline clip-path="url(#clip730)" style="stroke:#000000; stroke-linecap:round; stroke-linejoin:round; stroke-width:4; stroke-opacity:1; fill:none" points="1264.78,1486.45 1264.78,1467.55 "/>
<polyline clip-path="url(#clip730)" style="stroke:#000000; stroke-linecap:round; stroke-linejoin:round; stroke-width:4; stroke-opacity:1; fill:none" points="1778.01,1486.45 1778.01,1467.55 "/>
<polyline clip-path="url(#clip730)" style="stroke:#000000; stroke-linecap:round; stroke-linejoin:round; stroke-width:4; stroke-opacity:1; fill:none" points="2291.23,1486.45 2291.23,1467.55 "/>
<path clip-path="url(#clip730)" d="M238.339 1517.37 Q234.728 1517.37 232.899 1520.93 Q231.094 1524.47 231.094 1531.6 Q231.094 1538.71 232.899 1542.27 Q234.728 1545.82 238.339 1545.82 Q241.973 1545.82 243.779 1542.27 Q245.607 1538.71 245.607 1531.6 Q245.607 1524.47 243.779 1520.93 Q241.973 1517.37 238.339 1517.37 M238.339 1513.66 Q244.149 1513.66 247.205 1518.27 Q250.283 1522.85 250.283 1531.6 Q250.283 1540.33 247.205 1544.94 Q244.149 1549.52 238.339 1549.52 Q232.529 1549.52 229.45 1544.94 Q226.395 1540.33 226.395 1531.6 Q226.395 1522.85 229.45 1518.27 Q232.529 1513.66 238.339 1513.66 Z" fill="#000000" fill-rule="nonzero" fill-opacity="1" /><path clip-path="url(#clip730)" d="M715.254 1544.91 L731.574 1544.91 L731.574 1548.85 L709.629 1548.85 L709.629 1544.91 Q712.291 1542.16 716.875 1537.53 Q721.481 1532.88 722.662 1531.53 Q724.907 1529.01 725.787 1527.27 Q726.689 1525.51 726.689 1523.82 Q726.689 1521.07 724.745 1519.33 Q722.824 1517.6 719.722 1517.6 Q717.523 1517.6 715.069 1518.36 Q712.638 1519.13 709.861 1520.68 L709.861 1515.95 Q712.685 1514.82 715.138 1514.24 Q717.592 1513.66 719.629 1513.66 Q725 1513.66 728.194 1516.35 Q731.388 1519.03 731.388 1523.52 Q731.388 1525.65 730.578 1527.57 Q729.791 1529.47 727.685 1532.07 Q727.106 1532.74 724.004 1535.95 Q720.902 1539.15 715.254 1544.91 Z" fill="#000000" fill-rule="nonzero" fill-opacity="1" /><path clip-path="url(#clip730)" d="M741.435 1514.29 L759.791 1514.29 L759.791 1518.22 L745.717 1518.22 L745.717 1526.7 Q746.736 1526.35 747.754 1526.19 Q748.773 1526 749.791 1526 Q755.578 1526 758.958 1529.17 Q762.337 1532.34 762.337 1537.76 Q762.337 1543.34 758.865 1546.44 Q755.393 1549.52 749.073 1549.52 Q746.898 1549.52 744.629 1549.15 Q742.384 1548.78 739.976 1548.04 L739.976 1543.34 Q742.06 1544.47 744.282 1545.03 Q746.504 1545.58 748.981 1545.58 Q752.985 1545.58 755.323 1543.48 Q757.661 1541.37 757.661 1537.76 Q757.661 1534.15 755.323 1532.04 Q752.985 1529.94 748.981 1529.94 Q747.106 1529.94 745.231 1530.35 Q743.379 1530.77 741.435 1531.65 L741.435 1514.29 Z" fill="#000000" fill-rule="nonzero" fill-opacity="1" /><path clip-path="url(#clip730)" d="M781.55 1517.37 Q777.939 1517.37 776.11 1520.93 Q774.305 1524.47 774.305 1531.6 Q774.305 1538.71 776.11 1542.27 Q777.939 1545.82 781.55 1545.82 Q785.184 1545.82 786.99 1542.27 Q788.819 1538.71 788.819 1531.6 Q788.819 1524.47 786.99 1520.93 Q785.184 1517.37 781.55 1517.37 M781.55 1513.66 Q787.36 1513.66 790.416 1518.27 Q793.495 1522.85 793.495 1531.6 Q793.495 1540.33 790.416 1544.94 Q787.36 1549.52 781.55 1549.52 Q775.74 1549.52 772.661 1544.94 Q769.606 1540.33 769.606 1531.6 Q769.606 1522.85 772.661 1518.27 Q775.74 1513.66 781.55 1513.66 Z" fill="#000000" fill-rule="nonzero" fill-opacity="1" /><path clip-path="url(#clip730)" d="M1224.4 1514.29 L1242.76 1514.29 L1242.76 1518.22 L1228.69 1518.22 L1228.69 1526.7 Q1229.7 1526.35 1230.72 1526.19 Q1231.74 1526 1232.76 1526 Q1238.55 1526 1241.93 1529.17 Q1245.31 1532.34 1245.31 1537.76 Q1245.31 1543.34 1241.83 1546.44 Q1238.36 1549.52 1232.04 1549.52 Q1229.87 1549.52 1227.6 1549.15 Q1225.35 1548.78 1222.94 1548.04 L1222.94 1543.34 Q1225.03 1544.47 1227.25 1545.03 Q1229.47 1545.58 1231.95 1545.58 Q1235.95 1545.58 1238.29 1543.48 Q1240.63 1541.37 1240.63 1537.76 Q1240.63 1534.15 1238.29 1532.04 Q1235.95 1529.94 1231.95 1529.94 Q1230.07 1529.94 1228.2 1530.35 Q1226.35 1530.77 1224.4 1531.65 L1224.4 1514.29 Z" fill="#000000" fill-rule="nonzero" fill-opacity="1" /><path clip-path="url(#clip730)" d="M1264.52 1517.37 Q1260.91 1517.37 1259.08 1520.93 Q1257.27 1524.47 1257.27 1531.6 Q1257.27 1538.71 1259.08 1542.27 Q1260.91 1545.82 1264.52 1545.82 Q1268.15 1545.82 1269.96 1542.27 Q1271.79 1538.71 1271.79 1531.6 Q1271.79 1524.47 1269.96 1520.93 Q1268.15 1517.37 1264.52 1517.37 M1264.52 1513.66 Q1270.33 1513.66 1273.38 1518.27 Q1276.46 1522.85 1276.46 1531.6 Q1276.46 1540.33 1273.38 1544.94 Q1270.33 1549.52 1264.52 1549.52 Q1258.71 1549.52 1255.63 1544.94 Q1252.57 1540.33 1252.57 1531.6 Q1252.57 1522.85 1255.63 1518.27 Q1258.71 1513.66 1264.52 1513.66 Z" fill="#000000" fill-rule="nonzero" fill-opacity="1" /><path clip-path="url(#clip730)" d="M1294.68 1517.37 Q1291.07 1517.37 1289.24 1520.93 Q1287.44 1524.47 1287.44 1531.6 Q1287.44 1538.71 1289.24 1542.27 Q1291.07 1545.82 1294.68 1545.82 Q1298.31 1545.82 1300.12 1542.27 Q1301.95 1538.71 1301.95 1531.6 Q1301.95 1524.47 1300.12 1520.93 Q1298.31 1517.37 1294.68 1517.37 M1294.68 1513.66 Q1300.49 1513.66 1303.55 1518.27 Q1306.62 1522.85 1306.62 1531.6 Q1306.62 1540.33 1303.55 1544.94 Q1300.49 1549.52 1294.68 1549.52 Q1288.87 1549.52 1285.79 1544.94 Q1282.74 1540.33 1282.74 1531.6 Q1282.74 1522.85 1285.79 1518.27 Q1288.87 1513.66 1294.68 1513.66 Z" fill="#000000" fill-rule="nonzero" fill-opacity="1" /><path clip-path="url(#clip730)" d="M1736.28 1514.29 L1758.51 1514.29 L1758.51 1516.28 L1745.96 1548.85 L1741.08 1548.85 L1752.88 1518.22 L1736.28 1518.22 L1736.28 1514.29 Z" fill="#000000" fill-rule="nonzero" fill-opacity="1" /><path clip-path="url(#clip730)" d="M1767.67 1514.29 L1786.03 1514.29 L1786.03 1518.22 L1771.95 1518.22 L1771.95 1526.7 Q1772.97 1526.35 1773.99 1526.19 Q1775.01 1526 1776.03 1526 Q1781.82 1526 1785.2 1529.17 Q1788.57 1532.34 1788.57 1537.76 Q1788.57 1543.34 1785.1 1546.44 Q1781.63 1549.52 1775.31 1549.52 Q1773.14 1549.52 1770.87 1549.15 Q1768.62 1548.78 1766.21 1548.04 L1766.21 1543.34 Q1768.3 1544.47 1770.52 1545.03 Q1772.74 1545.58 1775.22 1545.58 Q1779.22 1545.58 1781.56 1543.48 Q1783.9 1541.37 1783.9 1537.76 Q1783.9 1534.15 1781.56 1532.04 Q1779.22 1529.94 1775.22 1529.94 Q1773.34 1529.94 1771.47 1530.35 Q1769.62 1530.77 1767.67 1531.65 L1767.67 1514.29 Z" fill="#000000" fill-rule="nonzero" fill-opacity="1" /><path clip-path="url(#clip730)" d="M1807.79 1517.37 Q1804.18 1517.37 1802.35 1520.93 Q1800.54 1524.47 1800.54 1531.6 Q1800.54 1538.71 1802.35 1542.27 Q1804.18 1545.82 1807.79 1545.82 Q1811.42 1545.82 1813.23 1542.27 Q1815.06 1538.71 1815.06 1531.6 Q1815.06 1524.47 1813.23 1520.93 Q1811.42 1517.37 1807.79 1517.37 M1807.79 1513.66 Q1813.6 1513.66 1816.65 1518.27 Q1819.73 1522.85 1819.73 1531.6 Q1819.73 1540.33 1816.65 1544.94 Q1813.6 1549.52 1807.79 1549.52 Q1801.98 1549.52 1798.9 1544.94 Q1795.84 1540.33 1795.84 1531.6 Q1795.84 1522.85 1798.9 1518.27 Q1801.98 1513.66 1807.79 1513.66 Z" fill="#000000" fill-rule="nonzero" fill-opacity="1" /><path clip-path="url(#clip730)" d="M2235.76 1544.91 L2243.4 1544.91 L2243.4 1518.55 L2235.09 1520.21 L2235.09 1515.95 L2243.35 1514.29 L2248.02 1514.29 L2248.02 1544.91 L2255.66 1544.91 L2255.66 1548.85 L2235.76 1548.85 L2235.76 1544.91 Z" fill="#000000" fill-rule="nonzero" fill-opacity="1" /><path clip-path="url(#clip730)" d="M2275.11 1517.37 Q2271.5 1517.37 2269.67 1520.93 Q2267.86 1524.47 2267.86 1531.6 Q2267.86 1538.71 2269.67 1542.27 Q2271.5 1545.82 2275.11 1545.82 Q2278.74 1545.82 2280.55 1542.27 Q2282.38 1538.71 2282.38 1531.6 Q2282.38 1524.47 2280.55 1520.93 Q2278.74 1517.37 2275.11 1517.37 M2275.11 1513.66 Q2280.92 1513.66 2283.97 1518.27 Q2287.05 1522.85 2287.05 1531.6 Q2287.05 1540.33 2283.97 1544.94 Q2280.92 1549.52 2275.11 1549.52 Q2269.3 1549.52 2266.22 1544.94 Q2263.16 1540.33 2263.16 1531.6 Q2263.16 1522.85 2266.22 1518.27 Q2269.3 1513.66 2275.11 1513.66 Z" fill="#000000" fill-rule="nonzero" fill-opacity="1" /><path clip-path="url(#clip730)" d="M2305.27 1517.37 Q2301.66 1517.37 2299.83 1520.93 Q2298.02 1524.47 2298.02 1531.6 Q2298.02 1538.71 2299.83 1542.27 Q2301.66 1545.82 2305.27 1545.82 Q2308.9 1545.82 2310.71 1542.27 Q2312.54 1538.71 2312.54 1531.6 Q2312.54 1524.47 2310.71 1520.93 Q2308.9 1517.37 2305.27 1517.37 M2305.27 1513.66 Q2311.08 1513.66 2314.14 1518.27 Q2317.21 1522.85 2317.21 1531.6 Q2317.21 1540.33 2314.14 1544.94 Q2311.08 1549.52 2305.27 1549.52 Q2299.46 1549.52 2296.38 1544.94 Q2293.33 1540.33 2293.33 1531.6 Q2293.33 1522.85 2296.38 1518.27 Q2299.46 1513.66 2305.27 1513.66 Z" fill="#000000" fill-rule="nonzero" fill-opacity="1" /><path clip-path="url(#clip730)" d="M2335.43 1517.37 Q2331.82 1517.37 2329.99 1520.93 Q2328.19 1524.47 2328.19 1531.6 Q2328.19 1538.71 2329.99 1542.27 Q2331.82 1545.82 2335.43 1545.82 Q2339.07 1545.82 2340.87 1542.27 Q2342.7 1538.71 2342.7 1531.6 Q2342.7 1524.47 2340.87 1520.93 Q2339.07 1517.37 2335.43 1517.37 M2335.43 1513.66 Q2341.24 1513.66 2344.3 1518.27 Q2347.38 1522.85 2347.38 1531.6 Q2347.38 1540.33 2344.3 1544.94 Q2341.24 1549.52 2335.43 1549.52 Q2329.62 1549.52 2326.54 1544.94 Q2323.49 1540.33 2323.49 1531.6 Q2323.49 1522.85 2326.54 1518.27 Q2329.62 1513.66 2335.43 1513.66 Z" fill="#000000" fill-rule="nonzero" fill-opacity="1" /><polyline clip-path="url(#clip730)" style="stroke:#000000; stroke-linecap:round; stroke-linejoin:round; stroke-width:4; stroke-opacity:1; fill:none" points="178.867,1486.45 178.867,847.244 "/>
<polyline clip-path="url(#clip730)" style="stroke:#000000; stroke-linecap:round; stroke-linejoin:round; stroke-width:4; stroke-opacity:1; fill:none" points="178.867,1486.45 197.764,1486.45 "/>
<polyline clip-path="url(#clip730)" style="stroke:#000000; stroke-linecap:round; stroke-linejoin:round; stroke-width:4; stroke-opacity:1; fill:none" points="178.867,1326.65 197.764,1326.65 "/>
<polyline clip-path="url(#clip730)" style="stroke:#000000; stroke-linecap:round; stroke-linejoin:round; stroke-width:4; stroke-opacity:1; fill:none" points="178.867,1166.85 197.764,1166.85 "/>
<polyline clip-path="url(#clip730)" style="stroke:#000000; stroke-linecap:round; stroke-linejoin:round; stroke-width:4; stroke-opacity:1; fill:none" points="178.867,1007.05 197.764,1007.05 "/>
<polyline clip-path="url(#clip730)" style="stroke:#000000; stroke-linecap:round; stroke-linejoin:round; stroke-width:4; stroke-opacity:1; fill:none" points="178.867,847.244 197.764,847.244 "/>
<path clip-path="url(#clip730)" d="M50.9921 1486.9 L80.6679 1486.9 L80.6679 1490.83 L50.9921 1490.83 L50.9921 1486.9 Z" fill="#000000" fill-rule="nonzero" fill-opacity="1" /><path clip-path="url(#clip730)" d="M91.5706 1499.79 L99.2095 1499.79 L99.2095 1473.43 L90.8993 1475.09 L90.8993 1470.83 L99.1632 1469.17 L103.839 1469.17 L103.839 1499.79 L111.478 1499.79 L111.478 1503.73 L91.5706 1503.73 L91.5706 1499.79 Z" fill="#000000" fill-rule="nonzero" fill-opacity="1" /><path clip-path="url(#clip730)" d="M130.922 1472.25 Q127.311 1472.25 125.482 1475.81 Q123.677 1479.35 123.677 1486.48 Q123.677 1493.59 125.482 1497.15 Q127.311 1500.7 130.922 1500.7 Q134.556 1500.7 136.362 1497.15 Q138.191 1493.59 138.191 1486.48 Q138.191 1479.35 136.362 1475.81 Q134.556 1472.25 130.922 1472.25 M130.922 1468.54 Q136.732 1468.54 139.788 1473.15 Q142.867 1477.73 142.867 1486.48 Q142.867 1495.21 139.788 1499.82 Q136.732 1504.4 130.922 1504.4 Q125.112 1504.4 122.033 1499.82 Q118.978 1495.21 118.978 1486.48 Q118.978 1477.73 122.033 1473.15 Q125.112 1468.54 130.922 1468.54 Z" fill="#000000" fill-rule="nonzero" fill-opacity="1" /><path clip-path="url(#clip730)" d="M82.1494 1327.1 L111.825 1327.1 L111.825 1331.03 L82.1494 1331.03 L82.1494 1327.1 Z" fill="#000000" fill-rule="nonzero" fill-opacity="1" /><path clip-path="url(#clip730)" d="M121.964 1309.37 L140.32 1309.37 L140.32 1313.3 L126.246 1313.3 L126.246 1321.77 Q127.265 1321.43 128.283 1321.27 Q129.302 1321.08 130.32 1321.08 Q136.107 1321.08 139.487 1324.25 Q142.867 1327.42 142.867 1332.84 Q142.867 1338.42 139.394 1341.52 Q135.922 1344.6 129.603 1344.6 Q127.427 1344.6 125.158 1344.23 Q122.913 1343.86 120.506 1343.12 L120.506 1338.42 Q122.589 1339.55 124.811 1340.11 Q127.033 1340.66 129.51 1340.66 Q133.515 1340.66 135.853 1338.56 Q138.191 1336.45 138.191 1332.84 Q138.191 1329.23 135.853 1327.12 Q133.515 1325.01 129.51 1325.01 Q127.635 1325.01 125.76 1325.43 Q123.908 1325.85 121.964 1326.73 L121.964 1309.37 Z" fill="#000000" fill-rule="nonzero" fill-opacity="1" /><path clip-path="url(#clip730)" d="M130.922 1152.64 Q127.311 1152.64 125.482 1156.21 Q123.677 1159.75 123.677 1166.88 Q123.677 1173.99 125.482 1177.55 Q127.311 1181.09 130.922 1181.09 Q134.556 1181.09 136.362 1177.55 Q138.191 1173.99 138.191 1166.88 Q138.191 1159.75 136.362 1156.21 Q134.556 1152.64 130.922 1152.64 M130.922 1148.94 Q136.732 1148.94 139.788 1153.55 Q142.867 1158.13 142.867 1166.88 Q142.867 1175.61 139.788 1180.21 Q136.732 1184.8 130.922 1184.8 Q125.112 1184.8 122.033 1180.21 Q118.978 1175.61 118.978 1166.88 Q118.978 1158.13 122.033 1153.55 Q125.112 1148.94 130.922 1148.94 Z" fill="#000000" fill-rule="nonzero" fill-opacity="1" /><path clip-path="url(#clip730)" d="M121.964 989.765 L140.32 989.765 L140.32 993.7 L126.246 993.7 L126.246 1002.17 Q127.265 1001.83 128.283 1001.66 Q129.302 1001.48 130.32 1001.48 Q136.107 1001.48 139.487 1004.65 Q142.867 1007.82 142.867 1013.24 Q142.867 1018.82 139.394 1021.92 Q135.922 1025 129.603 1025 Q127.427 1025 125.158 1024.63 Q122.913 1024.26 120.506 1023.51 L120.506 1018.82 Q122.589 1019.95 124.811 1020.51 Q127.033 1021.06 129.51 1021.06 Q133.515 1021.06 135.853 1018.95 Q138.191 1016.85 138.191 1013.24 Q138.191 1009.63 135.853 1007.52 Q133.515 1005.41 129.51 1005.41 Q127.635 1005.41 125.76 1005.83 Q123.908 1006.25 121.964 1007.13 L121.964 989.765 Z" fill="#000000" fill-rule="nonzero" fill-opacity="1" /><path clip-path="url(#clip730)" d="M91.5706 860.589 L99.2095 860.589 L99.2095 834.223 L90.8993 835.89 L90.8993 831.631 L99.1632 829.964 L103.839 829.964 L103.839 860.589 L111.478 860.589 L111.478 864.524 L91.5706 864.524 L91.5706 860.589 Z" fill="#000000" fill-rule="nonzero" fill-opacity="1" /><path clip-path="url(#clip730)" d="M130.922 833.043 Q127.311 833.043 125.482 836.608 Q123.677 840.149 123.677 847.279 Q123.677 854.385 125.482 857.95 Q127.311 861.492 130.922 861.492 Q134.556 861.492 136.362 857.95 Q138.191 854.385 138.191 847.279 Q138.191 840.149 136.362 836.608 Q134.556 833.043 130.922 833.043 M130.922 829.339 Q136.732 829.339 139.788 833.946 Q142.867 838.529 142.867 847.279 Q142.867 856.006 139.788 860.612 Q136.732 865.195 130.922 865.195 Q125.112 865.195 122.033 860.612 Q118.978 856.006 118.978 847.279 Q118.978 838.529 122.033 833.946 Q125.112 829.339 130.922 829.339 Z" fill="#000000" fill-rule="nonzero" fill-opacity="1" /><polyline clip-path="url(#clip733)" style="stroke:#009af9; stroke-linecap:round; stroke-linejoin:round; stroke-width:4; stroke-opacity:1; fill:none" points="240.392,1134.89 242.445,1199.61 244.498,1107.73 246.55,1153.16 248.603,1160.85 250.656,1191.43 252.709,1269.3 254.762,1208.71 256.815,1208.88 258.868,1194.12 260.921,1245 262.974,1179.82 265.027,1172.12 267.079,1113.63 269.132,1242.63 271.185,1097.32 273.238,1067.26 275.291,1229.19 277.344,1227.51 279.397,1327.59 281.45,1299.27 283.503,1107.54 285.555,1993.25 287.608,2068.45 289.661,164.691 291.714,2734.56 293.767,-2201.25 295.82,4239.99 297.873,1310.55 299.926,1175 301.979,1179.5 304.031,1186.83 306.084,1144.8 308.137,1161.96 310.19,1112.82 312.243,1182.3 314.296,984.19 316.349,1122.63 318.402,1205.3 320.455,1188.13 322.507,1200.81 324.56,1141.48 326.613,1154.41 328.666,1187.76 330.719,1229.64 332.772,1244.99 334.825,1233.73 336.878,1184.02 338.931,1173.52 340.984,1182.9 343.036,1195.19 345.089,1224.34 347.142,1159.01 349.195,1255.02 351.248,1182.69 353.301,1169.34 355.354,1151.8 357.407,1079.88 359.46,1239.64 361.512,1200.29 363.565,3368.06 365.618,844.827 367.671,1161.42 369.724,1152.85 371.777,1138.97 373.83,1176.9 375.883,1167.79 377.936,1168.23 379.988,1163.42 382.041,1188.41 384.094,1158.94 386.147,1172.12 388.2,1168.31 390.253,1175.54 392.306,1144.85 394.359,1188.19 396.412,1171.67 398.464,1200.05 400.517,1141.81 402.57,1169.45 404.623,1143.98 406.676,1149.11 408.729,1147.52 410.782,1202.07 412.835,1119.07 414.888,1086.82 416.94,924.143 418.993,917.366 421.046,1024.89 423.099,1339.38 425.152,1169.23 427.205,1178.17 429.258,1150.46 431.311,1197.76 433.364,1179.78 435.417,1142.66 437.469,1067.51 439.522,1390.69 441.575,1397.26 443.628,1491.19 445.681,1311.18 447.734,1376.16 449.787,1061.8 451.84,1188.43 453.893,1165.38 455.945,1145.08 457.998,1207.42 460.051,1305.55 462.104,1249 464.157,1191.78 466.21,1163.89 468.263,1231.95 470.316,1197.87 472.369,1160.16 474.421,1180.82 476.474,1207.81 478.527,1135 480.58,1170.14 482.633,1173.29 484.686,1200.36 486.739,1084.81 488.792,1120.22 490.845,1131.13 492.897,1189.21 494.95,1174.92 497.003,1161.07 499.056,1156 501.109,1200.73 503.162,1146.17 505.215,1172.77 507.268,1173.82 509.321,1191.48 511.374,1215.74 513.426,1195 515.479,1108.97 517.532,1169.58 519.585,1186.47 521.638,1120.51 523.691,1332.39 525.744,1434.19 527.797,1182.61 529.85,1215.93 531.902,1158.37 533.955,1142.57 536.008,1103.89 538.061,1142.56 540.114,1147.04 542.167,1132.04 544.22,1167.93 546.273,1104.77 548.326,1184.87 550.378,1151.33 552.431,1143.55 554.484,1204.88 556.537,1228.53 558.59,1261.03 560.643,1172.9 562.696,1168.99 564.749,1166.52 566.802,1122.11 568.854,1129.46 570.907,1189.02 572.96,1210.66 575.013,1192.06 577.066,1102.39 579.119,1236.61 581.172,1214.08 583.225,1170.83 585.278,1137.12 587.331,1140.35 589.383,1123.02 591.436,1165.4 593.489,1162.24 595.542,1159.96 597.595,1178.92 599.648,1175.01 601.701,1202.76 603.754,1145.94 605.807,1183.16 607.859,1159.62 609.912,1218.74 611.965,1185.15 614.018,1187.55 616.071,1125.75 618.124,1126.92 620.177,1157.51 622.23,1707.02 624.283,632.226 626.335,1477.6 628.388,1197.14 630.441,1208.8 632.494,1175.67 634.547,1159.65 636.6,1210.1 638.653,1079.31 640.706,1182.05 642.759,1156.73 644.811,1114.94 646.864,1143.36 648.917,1167.63 650.97,1195.27 653.023,1162.72 655.076,1191.12 657.129,1180.38 659.182,1159.58 661.235,1191.11 663.288,1147.59 665.34,1173.39 667.393,1151.97 669.446,1176.26 671.499,1149.25 673.552,1166.74 675.605,1199.05 677.658,1075.91 679.711,1250.82 681.764,1105.91 683.816,1165.26 685.869,1188.12 687.922,1193.08 689.975,1246.12 692.028,1123.34 694.081,1178.23 696.134,1151.38 698.187,1338.7 700.24,1230.85 702.292,1152.32 704.345,1191.47 706.398,1136.43 708.451,1192.13 710.504,1168.44 712.557,1171.25 714.61,1154.67 716.663,1183.54 718.716,1159.42 720.768,1209.46 722.821,1189.17 724.874,1140.46 726.927,1170.19 728.98,1165.14 731.033,1215.76 733.086,1144.41 735.139,1183.26 737.192,1170.55 739.245,1174.23 741.297,1152.04 743.35,1177.18 745.403,1161.6 747.456,1183.23 749.509,1194.76 751.562,1160.17 753.615,1189.38 755.668,1165.52 757.721,1172.95 759.773,1173.89 761.826,1192.97 763.879,1159.23 765.932,1132.81 767.985,1157.21 770.038,1182.65 772.091,1145.27 774.144,1146.18 776.197,1181.99 778.249,1136.2 780.302,1170.37 782.355,1196 784.408,1194.08 786.461,1110.35 788.514,1205.21 790.567,1150.09 792.62,1145.19 794.673,1251.93 796.725,1105.06 798.778,1206.74 800.831,1231.28 802.884,1090.06 804.937,1078.58 806.99,953.831 809.043,1711.13 811.096,1326.35 813.149,1051.99 815.202,1271 817.254,1264.38 819.307,1133.12 821.36,1183.09 823.413,1155.08 825.466,1216.2 827.519,1154.8 829.572,1172.91 831.625,1166.71 833.678,1176.32 835.73,1180.78 837.783,1182.21 839.836,1140.46 841.889,1199.44 843.942,1172.98 845.995,1162.93 848.048,1184.2 850.101,1170.97 852.154,1036.9 854.206,1114.02 856.259,1369.64 858.312,1213.99 860.365,1159.76 862.418,1163.98 864.471,1177.7 866.524,1184 868.577,1189.23 870.63,1171.37 872.682,1169.86 874.735,1157.42 876.788,1181.03 878.841,1193.35 880.894,1230.02 882.947,1127.63 885,1253.13 887.053,946.126 889.106,1193.3 891.159,1114.53 893.211,1209.48 895.264,1217.94 897.317,1166.15 899.37,1121.97 901.423,1396.28 903.476,1094.76 905.529,1131.53 907.582,1148.48 909.635,1135.05 911.687,1140.51 913.74,1151.9 915.793,1142.8 917.846,1198.4 919.899,1159.35 921.952,1114.78 924.005,1107 926.058,1257.89 928.111,1287.23 930.163,1063.07 932.216,1210.09 934.269,1114.9 936.322,1136.11 938.375,1160.32 940.428,1168.36 942.481,1220.85 944.534,1112.72 946.587,1135.74 948.639,1163.89 950.692,1145.68 952.745,1121.94 954.798,1253.11 956.851,1209.97 958.904,1121.03 960.957,1197.7 963.01,1137.31 965.063,1183.6 967.116,1162.38 969.168,1158.15 971.221,1215.8 973.274,1162.86 975.327,1106.88 977.38,1146.59 979.433,1177.67 981.486,1167.77 983.539,1190.1 985.592,1149.15 987.644,813.311 989.697,1150.04 991.75,1136.89 993.803,1169.89 995.856,1265.14 997.909,1157.15 999.962,1152.09 1002.01,1173.82 1004.07,1419.84 1006.12,691.185 1008.17,1347.16 1010.23,1231.78 1012.28,1115.74 1014.33,-109.306 1016.38,1408.53 1018.44,1051.22 1020.49,439.983 1022.54,1345.62 1024.6,1186.07 1026.65,1412.1 1028.7,1817.86 1030.76,1101.17 1032.81,1198.23 1034.86,1187.38 1036.91,1119.3 1038.97,1258.54 1041.02,1206.76 1043.07,1034.88 1045.13,1131.76 1047.18,1194.28 1049.23,1048.3 1051.28,1278.02 1053.34,1162.37 1055.39,1128.61 1057.44,1145.03 1059.5,1141.4 1061.55,1190.81 1063.6,1196.61 1065.65,1140.72 1067.71,1180.57 1069.76,1172.88 1071.81,1162.13 1073.87,1149.45 1075.92,1184.81 1077.97,1206.6 1080.02,1151.37 1082.08,1214.81 1084.13,1102.85 1086.18,958.396 1088.24,1137.76 1090.29,1252.23 1092.34,1222.23 1094.39,1212.14 1096.45,1165.94 1098.5,1179.64 1100.55,1190.13 1102.61,1191.39 1104.66,1195.72 1106.71,1132.47 1108.77,1195.18 1110.82,1172.51 1112.87,1166.64 1114.92,1157.74 1116.98,1160.48 1119.03,1159.5 1121.08,1163.88 1123.14,1181.98 1125.19,1149.1 1127.24,1144.18 1129.29,1203.75 1131.35,1107.45 1133.4,1186.69 1135.45,1137.61 1137.51,959.963 1139.56,1235.04 1141.61,1191.88 1143.66,1223.79 1145.72,1631.97 1147.77,603.354 1149.82,1108.87 1151.88,739.227 1153.93,937.999 1155.98,1336.61 1158.03,1016.2 1160.09,40.9067 1162.14,-84.5874 1164.19,3914.13 1166.25,-7842.56 1168.3,-4755.59 1170.35,689.176 1172.4,387.34 1174.46,2031.4 1176.51,-318.161 1178.56,6604.68 1180.62,-85.3823 1182.67,1904.53 1184.72,2318.9 1186.77,3465.88 1188.83,-221.952 1190.88,-4476.06 1192.93,2648.55 1194.99,3875.02 1197.04,1464.09 1199.09,1340.32 1201.15,811.445 1203.2,1383.48 1205.25,1176.49 1207.3,1153.2 1209.36,793.195 1211.41,1045.84 1213.46,968.173 1215.52,655.944 1217.57,2592.28 1219.62,912.615 1221.67,1222.61 1223.73,1123.47 1225.78,1188.58 1227.83,1146.69 1229.89,1152.46 1231.94,1199 1233.99,1132.17 1236.04,1199.59 1238.1,1231.43 1240.15,1099.66 1242.2,951.113 1244.26,1468.48 1246.31,1110.57 1248.36,1142.73 1250.41,1134.91 1252.47,1153.76 1254.52,1146.19 1256.57,1292.71 1258.63,1288.68 1260.68,1099.99 1262.73,1168.87 1264.78,1155.84 1266.84,1182.66 1268.89,1136.43 1270.94,1148.36 1273,1126 1275.05,1100.08 1277.1,1131.31 1279.16,1189.48 1281.21,1146.24 1283.26,1118.42 1285.31,1161.89 1287.37,1156.82 1289.42,1130.48 1291.47,1205.34 1293.53,967.513 1295.58,811.846 1297.63,1192.68 1299.68,1199.25 1301.74,1048.02 1303.79,1165.19 1305.84,1161.13 1307.9,1188.27 1309.95,1128.54 1312,1133.07 1314.05,1176.92 1316.11,1132.83 1318.16,1166.35 1320.21,1202.59 1322.27,1162.82 1324.32,1184.98 1326.37,1411.43 1328.42,1000.13 1330.48,1021.99 1332.53,1146.12 1334.58,1142.56 1336.64,1121.77 1338.69,1111.34 1340.74,1205.67 1342.79,1119.4 1344.85,1204.44 1346.9,1200.24 1348.95,1162.94 1351.01,1165.74 1353.06,1180.79 1355.11,1141.88 1357.16,1156.51 1359.22,1202.73 1361.27,1126.42 1363.32,1183.18 1365.38,1184.61 1367.43,1187.53 1369.48,1135.25 1371.54,1154.7 1373.59,1125.53 1375.64,1120.25 1377.69,1096.18 1379.75,1230.54 1381.8,1234.68 1383.85,1223.62 1385.91,1229.47 1387.96,1092.54 1390.01,1225.26 1392.06,1064.82 1394.12,1146.14 1396.17,1248.43 1398.22,1003.89 1400.28,1088.02 1402.33,1240.54 1404.38,1152.45 1406.43,1117.88 1408.49,1163.62 1410.54,1161.08 1412.59,1168.79 1414.65,1169.28 1416.7,1167.07 1418.75,1176.25 1420.8,1157.84 1422.86,1190.68 1424.91,1166.31 1426.96,1052.82 1429.02,1127.31 1431.07,1187.49 1433.12,1215.5 1435.17,1363.22 1437.23,1124.36 1439.28,1152.7 1441.33,1189.77 1443.39,1207.71 1445.44,1157.41 1447.49,1146.75 1449.55,1272.04 1451.6,1114.86 1453.65,1027.5 1455.7,1304.77 1457.76,1121.62 1459.81,1129.02 1461.86,1094.16 1463.92,1149.32 1465.97,1169.37 1468.02,1169.52 1470.07,1157.95 1472.13,1177.09 1474.18,1166.67 1476.23,1193.61 1478.29,1217.92 1480.34,932.096 1482.39,1502.32 1484.44,1571.28 1486.5,1065.61 1488.55,1177.51 1490.6,1137.68 1492.66,-110.549 1494.71,434.192 1496.76,1219.9 1498.81,1176.22 1500.87,1158.7 1502.92,1178.56 1504.97,1214.94 1507.03,1024.44 1509.08,1290.2 1511.13,1135.89 1513.18,1174.32 1515.24,1125.8 1517.29,1176.83 1519.34,1253.5 1521.4,1211.39 1523.45,1179.81 1525.5,1156.38 1527.55,1138.52 1529.61,1177.18 1531.66,1213.03 1533.71,1172.17 1535.77,1174.31 1537.82,1189.03 1539.87,1187.57 1541.93,1186.09 1543.98,1174.75 1546.03,1155.46 1548.08,973.325 1550.14,1190.27 1552.19,1140.42 1554.24,1209.88 1556.3,1160.72 1558.35,1188.38 1560.4,1191.27 1562.45,1241.52 1564.51,1109.22 1566.56,1143.94 1568.61,1110.51 1570.67,1239.12 1572.72,1170.23 1574.77,1148.56 1576.82,1213.85 1578.88,1094.59 1580.93,1218.02 1582.98,1102.14 1585.04,1198.94 1587.09,1156.79 1589.14,1077.47 1591.19,1310.82 1593.25,1336.56 1595.3,-261.885 1597.35,1890.75 1599.41,1877.97 1601.46,4220.59 1603.51,6385.09 1605.56,6093.06 1607.62,-4179.25 1609.67,-715.84 1611.72,14593.2 1613.78,2736.07 1615.83,8389.68 1617.88,658.99 1619.94,459.896 1621.99,193.952 1624.04,1660.4 1626.09,1239.26 1628.15,1203.98 1630.2,1181.26 1632.25,1164.34 1634.31,1146.41 1636.36,1147.27 1638.41,1200.99 1640.46,1135.04 1642.52,1176.98 1644.57,1184.45 1646.62,1174.16 1648.68,1187.69 1650.73,1149.13 1652.78,1182.71 1654.83,1133.1 1656.89,1185.04 1658.94,1185.48 1660.99,1203.92 1663.05,1192.34 1665.1,1153.52 1667.15,1181.57 1669.2,1145.7 1671.26,1194.03 1673.31,1169.84 1675.36,1079.92 1677.42,1131.94 1679.47,1152.42 1681.52,1192.96 1683.57,808.69 1685.63,328.85 1687.68,1165.94 1689.73,1184.87 1691.79,1193.38 1693.84,1188.3 1695.89,1096.62 1697.94,1164.19 1700,1166.44 1702.05,1154.93 1704.1,1101.25 1706.16,1206.54 1708.21,1167.41 1710.26,1192.4 1712.32,1194.79 1714.37,1113.68 1716.42,1130.92 1718.47,1155.29 1720.53,1142.9 1722.58,1185.18 1724.63,1261.08 1726.69,1184.18 1728.74,1109.52 1730.79,1802.43 1732.84,1153.66 1734.9,1325.36 1736.95,2431.44 1739,496.051 1741.06,1662.84 1743.11,1244.07 1745.16,776.089 1747.21,-4495.9 1749.27,1499.78 1751.32,1175.42 1753.37,1163.42 1755.43,1166.49 1757.48,1170.62 1759.53,1183.03 1761.58,1152.7 1763.64,1165.51 1765.69,1188.01 1767.74,1186.51 1769.8,1148.78 1771.85,1010.71 1773.9,1065.14 1775.95,1140.7 1778.01,1128.65 1780.06,1119.88 1782.11,1195.49 1784.17,1216.48 1786.22,1234.01 1788.27,1164.16 1790.33,1166.28 1792.38,1167.97 1794.43,1370.72 1796.48,1178.72 1798.54,1177.9 1800.59,1162.17 1802.64,1156.76 1804.7,1174.56 1806.75,1173.28 1808.8,1161.5 1810.85,1195.91 1812.91,1158.3 1814.96,1162.96 1817.01,1172.93 1819.07,812.849 1821.12,78.0916 1823.17,869.822 1825.22,1230.97 1827.28,1151.13 1829.33,1152.32 1831.38,1172.4 1833.44,1181.85 1835.49,1170.53 1837.54,1235.73 1839.59,992.22 1841.65,1249.36 1843.7,1176.16 1845.75,1179.24 1847.81,1143.75 1849.86,1108.19 1851.91,1216.22 1853.96,1141.4 1856.02,1182.21 1858.07,1164.72 1860.12,1172.62 1862.18,1170.63 1864.23,1124.91 1866.28,1154.19 1868.34,1172.31 1870.39,1185.19 1872.44,1207.07 1874.49,1150.99 1876.55,1308.58 1878.6,1108.32 1880.65,1166.9 1882.71,1158.64 1884.76,1240.47 1886.81,1196.62 1888.86,1159.19 1890.92,1035.41 1892.97,1127.84 1895.02,1159.75 1897.08,1255.29 1899.13,1204.37 1901.18,1146.33 1903.23,1153.01 1905.29,1161.33 1907.34,1160.42 1909.39,1163.58 1911.45,1115.52 1913.5,1172.21 1915.55,1167.66 1917.6,1105.25 1919.66,1394.71 1921.71,982.879 1923.76,1247.36 1925.82,1184.86 1927.87,1257.07 1929.92,1304.76 1931.97,1047.44 1934.03,1153.64 1936.08,1284.11 1938.13,1251.55 1940.19,1172.79 1942.24,1052.67 1944.29,1083.37 1946.34,994.554 1948.4,1225.22 1950.45,1135.32 1952.5,1212.6 1954.56,1184.59 1956.61,1204.16 1958.66,940.68 1960.72,804.098 1962.77,1275.72 1964.82,1277.85 1966.87,1170.92 1968.93,1156.96 1970.98,1138.33 1973.03,1191.89 1975.09,1142.06 1977.14,1231.81 1979.19,1178.49 1981.24,1113.22 1983.3,1223.77 1985.35,1135.82 1987.4,1151.47 1989.46,1120.32 1991.51,1163.99 1993.56,1157.05 1995.61,1175.08 1997.67,1162.62 1999.72,1100.19 2001.77,1165.52 2003.83,1073.88 2005.88,1222.15 2007.93,1118.56 2009.98,1230.55 2012.04,1186.78 2014.09,1170.37 2016.14,1070.08 2018.2,1086.39 2020.25,1119.92 2022.3,1080.5 2024.35,1357.09 2026.41,1178.01 2028.46,1231.19 2030.51,1148.83 2032.57,1357.79 2034.62,1164.88 2036.67,1169.24 2038.73,1189.61 2040.78,1180.6 2042.83,1257.14 2044.88,1114.87 2046.94,1172.53 2048.99,1167.21 2051.04,1189.83 2053.1,1116.26 2055.15,1156.29 2057.2,1124.6 2059.25,1154.49 2061.31,1228.62 2063.36,1147.28 2065.41,1191.07 2067.47,1169.69 2069.52,1139.31 2071.57,1149.56 2073.62,1144.64 2075.68,1168.34 2077.73,1177.4 2079.78,1165.34 2081.84,1129.99 2083.89,1145.78 2085.94,1147.75 2087.99,1140.47 2090.05,1160.99 2092.1,1055.18 2094.15,1164.99 2096.21,1215.91 2098.26,1171.93 2100.31,1190.96 2102.36,1164.11 2104.42,1220.09 2106.47,1096.96 2108.52,1186.47 2110.58,1185.21 2112.63,1181.5 2114.68,1068.15 2116.73,1002.17 2118.79,1225.56 2120.84,1316.9 2122.89,1309.37 2124.95,597.209 2127,-72.1618 2129.05,537.825 2131.11,675.538 2133.16,1245.18 2135.21,-1090.41 2137.26,-622.022 2139.32,1032.94 2141.37,-1279.77 2143.42,-1600.18 2145.48,1016.18 2147.53,1158.04 2149.58,1153.6 2151.63,1154.32 2153.69,1165.15 2155.74,1195.21 2157.79,1106.12 2159.85,1134.08 2161.9,1025.46 2163.95,1148.78 2166,1160.94 2168.06,1184.59 2170.11,1155.94 2172.16,1150.12 2174.22,1185.43 2176.27,1165.76 2178.32,1113.92 2180.37,1233.56 2182.43,1185.24 2184.48,1160.47 2186.53,1157.45 2188.59,1215.55 2190.64,1206.71 2192.69,1099.16 2194.74,1146.57 2196.8,1231.21 2198.85,1155.4 2200.9,1182.14 2202.96,1171 2205.01,1119.83 2207.06,1164.2 2209.12,1185.81 2211.17,1281.94 2213.22,1145.47 2215.27,2270.25 2217.33,2868.92 2219.38,1565.27 2221.43,926.475 2223.49,1138.67 2225.54,1121.41 2227.59,1239.44 2229.64,1109.59 2231.7,1174.3 2233.75,1161.68 2235.8,1150.13 2237.86,1204.76 2239.91,1197.32 2241.96,1228.51 2244.01,1105.58 2246.07,1205.04 2248.12,1129.09 2250.17,1163.33 2252.23,1201.5 2254.28,1145.53 2256.33,1147.67 2258.38,1190.41 2260.44,1082.59 2262.49,1211.77 2264.54,1132.98 2266.6,1163.18 2268.65,1147.93 2270.7,1206.32 2272.75,1133.29 2274.81,1140.29 2276.86,1185.82 2278.91,1199.41 2280.97,1211.32 2283.02,1205.26 2285.07,1176.31 2287.12,1171.98 2289.18,1211.92 2291.23,1185.8 "/>
<path clip-path="url(#clip730)" d="M1942.7 1465.14 L2280.29 1465.14 L2280.29 1361.46 L1942.7 1361.46  Z" fill="#ffffff" fill-rule="evenodd" fill-opacity="1"/>
<polyline clip-path="url(#clip730)" style="stroke:#000000; stroke-linecap:round; stroke-linejoin:round; stroke-width:4; stroke-opacity:1; fill:none" points="1942.7,1465.14 2280.29,1465.14 2280.29,1361.46 1942.7,1361.46 1942.7,1465.14 "/>
<polyline clip-path="url(#clip730)" style="stroke:#009af9; stroke-linecap:round; stroke-linejoin:round; stroke-width:4; stroke-opacity:1; fill:none" points="1966.85,1413.3 2111.78,1413.3 "/>
<path clip-path="url(#clip730)" d="M2161.49 1425.65 L2161.49 1416.37 L2153.85 1416.37 L2153.85 1412.53 L2166.12 1412.53 L2166.12 1427.36 Q2163.41 1429.28 2160.14 1430.28 Q2156.88 1431.25 2153.18 1431.25 Q2145.07 1431.25 2140.49 1426.53 Q2135.93 1421.78 2135.93 1413.34 Q2135.93 1404.86 2140.49 1400.14 Q2145.07 1395.4 2153.18 1395.4 Q2156.56 1395.4 2159.59 1396.23 Q2162.64 1397.06 2165.21 1398.68 L2165.21 1403.66 Q2162.62 1401.46 2159.7 1400.35 Q2156.79 1399.24 2153.57 1399.24 Q2147.23 1399.24 2144.03 1402.78 Q2140.86 1406.32 2140.86 1413.34 Q2140.86 1420.33 2144.03 1423.87 Q2147.23 1427.41 2153.57 1427.41 Q2156.05 1427.41 2157.99 1426.99 Q2159.94 1426.55 2161.49 1425.65 Z" fill="#000000" fill-rule="nonzero" fill-opacity="1" /><path clip-path="url(#clip730)" d="M2179.33 1399.86 L2179.33 1412.85 L2185.21 1412.85 Q2188.48 1412.85 2190.26 1411.16 Q2192.04 1409.47 2192.04 1406.35 Q2192.04 1403.24 2190.26 1401.55 Q2188.48 1399.86 2185.21 1399.86 L2179.33 1399.86 M2174.66 1396.02 L2185.21 1396.02 Q2191.02 1396.02 2193.99 1398.66 Q2196.97 1401.28 2196.97 1406.35 Q2196.97 1411.46 2193.99 1414.08 Q2191.02 1416.69 2185.21 1416.69 L2179.33 1416.69 L2179.33 1430.58 L2174.66 1430.58 L2174.66 1396.02 Z" fill="#000000" fill-rule="nonzero" fill-opacity="1" /><path clip-path="url(#clip730)" d="M2223.96 1397.16 L2223.96 1401.72 Q2221.3 1400.44 2218.94 1399.82 Q2216.58 1399.19 2214.38 1399.19 Q2210.56 1399.19 2208.48 1400.67 Q2206.42 1402.16 2206.42 1404.89 Q2206.42 1407.18 2207.78 1408.36 Q2209.17 1409.52 2213.01 1410.23 L2215.84 1410.81 Q2221.07 1411.81 2223.55 1414.33 Q2226.05 1416.83 2226.05 1421.04 Q2226.05 1426.07 2222.67 1428.66 Q2219.31 1431.25 2212.81 1431.25 Q2210.35 1431.25 2207.57 1430.7 Q2204.82 1430.14 2201.86 1429.05 L2201.86 1424.24 Q2204.7 1425.84 2207.44 1426.65 Q2210.17 1427.46 2212.81 1427.46 Q2216.81 1427.46 2218.99 1425.88 Q2221.16 1424.31 2221.16 1421.39 Q2221.16 1418.85 2219.59 1417.41 Q2218.04 1415.97 2214.47 1415.26 L2211.62 1414.7 Q2206.39 1413.66 2204.06 1411.44 Q2201.72 1409.22 2201.72 1405.26 Q2201.72 1400.67 2204.94 1398.03 Q2208.18 1395.4 2213.85 1395.4 Q2216.28 1395.4 2218.8 1395.84 Q2221.32 1396.28 2223.96 1397.16 Z" fill="#000000" fill-rule="nonzero" fill-opacity="1" /><path clip-path="url(#clip730)" d="M2254.06 1397.16 L2254.06 1401.72 Q2251.39 1400.44 2249.03 1399.82 Q2246.67 1399.19 2244.47 1399.19 Q2240.65 1399.19 2238.57 1400.67 Q2236.51 1402.16 2236.51 1404.89 Q2236.51 1407.18 2237.87 1408.36 Q2239.26 1409.52 2243.11 1410.23 L2245.93 1410.81 Q2251.16 1411.81 2253.64 1414.33 Q2256.14 1416.83 2256.14 1421.04 Q2256.14 1426.07 2252.76 1428.66 Q2249.4 1431.25 2242.9 1431.25 Q2240.44 1431.25 2237.67 1430.7 Q2234.91 1430.14 2231.95 1429.05 L2231.95 1424.24 Q2234.8 1425.84 2237.53 1426.65 Q2240.26 1427.46 2242.9 1427.46 Q2246.9 1427.46 2249.08 1425.88 Q2251.25 1424.31 2251.25 1421.39 Q2251.25 1418.85 2249.68 1417.41 Q2248.13 1415.97 2244.56 1415.26 L2241.72 1414.7 Q2236.49 1413.66 2234.15 1411.44 Q2231.81 1409.22 2231.81 1405.26 Q2231.81 1400.67 2235.03 1398.03 Q2238.27 1395.4 2243.94 1395.4 Q2246.37 1395.4 2248.89 1395.84 Q2251.42 1396.28 2254.06 1397.16 Z" fill="#000000" fill-rule="nonzero" fill-opacity="1" /></svg>
