<?xml version="1.0" encoding="utf-8"?>
<svg xmlns="http://www.w3.org/2000/svg" xmlns:xlink="http://www.w3.org/1999/xlink" width="600" height="400" viewBox="0 0 2400 1600">
<defs>
  <clipPath id="clip940">
    <rect x="0" y="0" width="2400" height="1600"/>
  </clipPath>
</defs>
<path clip-path="url(#clip940)" d="M0 1600 L2400 1600 L2400 0 L0 0  Z" fill="#ffffff" fill-rule="evenodd" fill-opacity="1"/>
<defs>
  <clipPath id="clip941">
    <rect x="242" y="47" width="2112" height="1377"/>
  </clipPath>
</defs>
<path clip-path="url(#clip940)" d="M178.867 686.448 L2352.76 686.448 L2352.76 47.2441 L178.867 47.2441  Z" fill="#ffffff" fill-rule="evenodd" fill-opacity="1"/>
<defs>
  <clipPath id="clip942">
    <rect x="178" y="47" width="2175" height="640"/>
  </clipPath>
</defs>
<polyline clip-path="url(#clip942)" style="stroke:#000000; stroke-linecap:round; stroke-linejoin:round; stroke-width:2; stroke-opacity:0.1; fill:none" points="238.339,686.448 238.339,47.2441 "/>
<polyline clip-path="url(#clip942)" style="stroke:#000000; stroke-linecap:round; stroke-linejoin:round; stroke-width:2; stroke-opacity:0.1; fill:none" points="751.562,686.448 751.562,47.2441 "/>
<polyline clip-path="url(#clip942)" style="stroke:#000000; stroke-linecap:round; stroke-linejoin:round; stroke-width:2; stroke-opacity:0.1; fill:none" points="1264.78,686.448 1264.78,47.2441 "/>
<polyline clip-path="url(#clip942)" style="stroke:#000000; stroke-linecap:round; stroke-linejoin:round; stroke-width:2; stroke-opacity:0.1; fill:none" points="1778.01,686.448 1778.01,47.2441 "/>
<polyline clip-path="url(#clip942)" style="stroke:#000000; stroke-linecap:round; stroke-linejoin:round; stroke-width:2; stroke-opacity:0.1; fill:none" points="2291.23,686.448 2291.23,47.2441 "/>
<polyline clip-path="url(#clip942)" style="stroke:#000000; stroke-linecap:round; stroke-linejoin:round; stroke-width:2; stroke-opacity:0.1; fill:none" points="178.867,686.448 2352.76,686.448 "/>
<polyline clip-path="url(#clip942)" style="stroke:#000000; stroke-linecap:round; stroke-linejoin:round; stroke-width:2; stroke-opacity:0.1; fill:none" points="178.867,526.647 2352.76,526.647 "/>
<polyline clip-path="url(#clip942)" style="stroke:#000000; stroke-linecap:round; stroke-linejoin:round; stroke-width:2; stroke-opacity:0.1; fill:none" points="178.867,366.846 2352.76,366.846 "/>
<polyline clip-path="url(#clip942)" style="stroke:#000000; stroke-linecap:round; stroke-linejoin:round; stroke-width:2; stroke-opacity:0.1; fill:none" points="178.867,207.045 2352.76,207.045 "/>
<polyline clip-path="url(#clip942)" style="stroke:#000000; stroke-linecap:round; stroke-linejoin:round; stroke-width:2; stroke-opacity:0.1; fill:none" points="178.867,47.2441 2352.76,47.2441 "/>
<polyline clip-path="url(#clip940)" style="stroke:#000000; stroke-linecap:round; stroke-linejoin:round; stroke-width:4; stroke-opacity:1; fill:none" points="178.867,686.448 2352.76,686.448 "/>
<polyline clip-path="url(#clip940)" style="stroke:#000000; stroke-linecap:round; stroke-linejoin:round; stroke-width:4; stroke-opacity:1; fill:none" points="238.339,686.448 238.339,667.55 "/>
<polyline clip-path="url(#clip940)" style="stroke:#000000; stroke-linecap:round; stroke-linejoin:round; stroke-width:4; stroke-opacity:1; fill:none" points="751.562,686.448 751.562,667.55 "/>
<polyline clip-path="url(#clip940)" style="stroke:#000000; stroke-linecap:round; stroke-linejoin:round; stroke-width:4; stroke-opacity:1; fill:none" points="1264.78,686.448 1264.78,667.55 "/>
<polyline clip-path="url(#clip940)" style="stroke:#000000; stroke-linecap:round; stroke-linejoin:round; stroke-width:4; stroke-opacity:1; fill:none" points="1778.01,686.448 1778.01,667.55 "/>
<polyline clip-path="url(#clip940)" style="stroke:#000000; stroke-linecap:round; stroke-linejoin:round; stroke-width:4; stroke-opacity:1; fill:none" points="2291.23,686.448 2291.23,667.55 "/>
<path clip-path="url(#clip940)" d="M238.339 717.367 Q234.728 717.367 232.899 720.931 Q231.094 724.473 231.094 731.603 Q231.094 738.709 232.899 742.274 Q234.728 745.815 238.339 745.815 Q241.973 745.815 243.779 742.274 Q245.607 738.709 245.607 731.603 Q245.607 724.473 243.779 720.931 Q241.973 717.367 238.339 717.367 M238.339 713.663 Q244.149 713.663 247.205 718.269 Q250.283 722.853 250.283 731.603 Q250.283 740.329 247.205 744.936 Q244.149 749.519 238.339 749.519 Q232.529 749.519 229.45 744.936 Q226.395 740.329 226.395 731.603 Q226.395 722.853 229.45 718.269 Q232.529 713.663 238.339 713.663 Z" fill="#000000" fill-rule="nonzero" fill-opacity="1" /><path clip-path="url(#clip940)" d="M715.254 744.913 L731.574 744.913 L731.574 748.848 L709.629 748.848 L709.629 744.913 Q712.291 742.158 716.875 737.528 Q721.481 732.876 722.662 731.533 Q724.907 729.01 725.787 727.274 Q726.689 725.515 726.689 723.825 Q726.689 721.07 724.745 719.334 Q722.824 717.598 719.722 717.598 Q717.523 717.598 715.069 718.362 Q712.638 719.126 709.861 720.677 L709.861 715.955 Q712.685 714.82 715.138 714.242 Q717.592 713.663 719.629 713.663 Q725 713.663 728.194 716.348 Q731.388 719.033 731.388 723.524 Q731.388 725.654 730.578 727.575 Q729.791 729.473 727.685 732.066 Q727.106 732.737 724.004 735.954 Q720.902 739.149 715.254 744.913 Z" fill="#000000" fill-rule="nonzero" fill-opacity="1" /><path clip-path="url(#clip940)" d="M741.435 714.288 L759.791 714.288 L759.791 718.223 L745.717 718.223 L745.717 726.695 Q746.736 726.348 747.754 726.186 Q748.773 726.001 749.791 726.001 Q755.578 726.001 758.958 729.172 Q762.337 732.343 762.337 737.76 Q762.337 743.339 758.865 746.44 Q755.393 749.519 749.073 749.519 Q746.898 749.519 744.629 749.149 Q742.384 748.778 739.976 748.038 L739.976 743.339 Q742.06 744.473 744.282 745.028 Q746.504 745.584 748.981 745.584 Q752.985 745.584 755.323 743.478 Q757.661 741.371 757.661 737.76 Q757.661 734.149 755.323 732.042 Q752.985 729.936 748.981 729.936 Q747.106 729.936 745.231 730.353 Q743.379 730.769 741.435 731.649 L741.435 714.288 Z" fill="#000000" fill-rule="nonzero" fill-opacity="1" /><path clip-path="url(#clip940)" d="M781.55 717.367 Q777.939 717.367 776.11 720.931 Q774.305 724.473 774.305 731.603 Q774.305 738.709 776.11 742.274 Q777.939 745.815 781.55 745.815 Q785.184 745.815 786.99 742.274 Q788.819 738.709 788.819 731.603 Q788.819 724.473 786.99 720.931 Q785.184 717.367 781.55 717.367 M781.55 713.663 Q787.36 713.663 790.416 718.269 Q793.495 722.853 793.495 731.603 Q793.495 740.329 790.416 744.936 Q787.36 749.519 781.55 749.519 Q775.74 749.519 772.661 744.936 Q769.606 740.329 769.606 731.603 Q769.606 722.853 772.661 718.269 Q775.74 713.663 781.55 713.663 Z" fill="#000000" fill-rule="nonzero" fill-opacity="1" /><path clip-path="url(#clip940)" d="M1224.4 714.288 L1242.76 714.288 L1242.76 718.223 L1228.69 718.223 L1228.69 726.695 Q1229.7 726.348 1230.72 726.186 Q1231.74 726.001 1232.76 726.001 Q1238.55 726.001 1241.93 729.172 Q1245.31 732.343 1245.31 737.76 Q1245.31 743.339 1241.83 746.44 Q1238.36 749.519 1232.04 749.519 Q1229.87 749.519 1227.6 749.149 Q1225.35 748.778 1222.94 748.038 L1222.94 743.339 Q1225.03 744.473 1227.25 745.028 Q1229.47 745.584 1231.95 745.584 Q1235.95 745.584 1238.29 743.478 Q1240.63 741.371 1240.63 737.76 Q1240.63 734.149 1238.29 732.042 Q1235.95 729.936 1231.95 729.936 Q1230.07 729.936 1228.2 730.353 Q1226.35 730.769 1224.4 731.649 L1224.4 714.288 Z" fill="#000000" fill-rule="nonzero" fill-opacity="1" /><path clip-path="url(#clip940)" d="M1264.52 717.367 Q1260.91 717.367 1259.08 720.931 Q1257.27 724.473 1257.27 731.603 Q1257.27 738.709 1259.08 742.274 Q1260.91 745.815 1264.52 745.815 Q1268.15 745.815 1269.96 742.274 Q1271.79 738.709 1271.79 731.603 Q1271.79 724.473 1269.96 720.931 Q1268.15 717.367 1264.52 717.367 M1264.52 713.663 Q1270.33 713.663 1273.38 718.269 Q1276.46 722.853 1276.46 731.603 Q1276.46 740.329 1273.38 744.936 Q1270.33 749.519 1264.52 749.519 Q1258.71 749.519 1255.63 744.936 Q1252.57 740.329 1252.57 731.603 Q1252.57 722.853 1255.63 718.269 Q1258.71 713.663 1264.52 713.663 Z" fill="#000000" fill-rule="nonzero" fill-opacity="1" /><path clip-path="url(#clip940)" d="M1294.68 717.367 Q1291.07 717.367 1289.24 720.931 Q1287.44 724.473 1287.44 731.603 Q1287.44 738.709 1289.24 742.274 Q1291.07 745.815 1294.68 745.815 Q1298.31 745.815 1300.12 742.274 Q1301.95 738.709 1301.95 731.603 Q1301.95 724.473 1300.12 720.931 Q1298.31 717.367 1294.68 717.367 M1294.68 713.663 Q1300.49 713.663 1303.55 718.269 Q1306.62 722.853 1306.62 731.603 Q1306.62 740.329 1303.55 744.936 Q1300.49 749.519 1294.68 749.519 Q1288.87 749.519 1285.79 744.936 Q1282.74 740.329 1282.74 731.603 Q1282.74 722.853 1285.79 718.269 Q1288.87 713.663 1294.68 713.663 Z" fill="#000000" fill-rule="nonzero" fill-opacity="1" /><path clip-path="url(#clip940)" d="M1736.28 714.288 L1758.51 714.288 L1758.51 716.279 L1745.96 748.848 L1741.08 748.848 L1752.88 718.223 L1736.28 718.223 L1736.28 714.288 Z" fill="#000000" fill-rule="nonzero" fill-opacity="1" /><path clip-path="url(#clip940)" d="M1767.67 714.288 L1786.03 714.288 L1786.03 718.223 L1771.95 718.223 L1771.95 726.695 Q1772.97 726.348 1773.99 726.186 Q1775.01 726.001 1776.03 726.001 Q1781.82 726.001 1785.2 729.172 Q1788.57 732.343 1788.57 737.76 Q1788.57 743.339 1785.1 746.44 Q1781.63 749.519 1775.31 749.519 Q1773.14 749.519 1770.87 749.149 Q1768.62 748.778 1766.21 748.038 L1766.21 743.339 Q1768.3 744.473 1770.52 745.028 Q1772.74 745.584 1775.22 745.584 Q1779.22 745.584 1781.56 743.478 Q1783.9 741.371 1783.9 737.76 Q1783.9 734.149 1781.56 732.042 Q1779.22 729.936 1775.22 729.936 Q1773.34 729.936 1771.47 730.353 Q1769.62 730.769 1767.67 731.649 L1767.67 714.288 Z" fill="#000000" fill-rule="nonzero" fill-opacity="1" /><path clip-path="url(#clip940)" d="M1807.79 717.367 Q1804.18 717.367 1802.35 720.931 Q1800.54 724.473 1800.54 731.603 Q1800.54 738.709 1802.35 742.274 Q1804.18 745.815 1807.79 745.815 Q1811.42 745.815 1813.23 742.274 Q1815.06 738.709 1815.06 731.603 Q1815.06 724.473 1813.23 720.931 Q1811.42 717.367 1807.79 717.367 M1807.79 713.663 Q1813.6 713.663 1816.65 718.269 Q1819.73 722.853 1819.73 731.603 Q1819.73 740.329 1816.65 744.936 Q1813.6 749.519 1807.79 749.519 Q1801.98 749.519 1798.9 744.936 Q1795.84 740.329 1795.84 731.603 Q1795.84 722.853 1798.9 718.269 Q1801.98 713.663 1807.79 713.663 Z" fill="#000000" fill-rule="nonzero" fill-opacity="1" /><path clip-path="url(#clip940)" d="M2235.76 744.913 L2243.4 744.913 L2243.4 718.547 L2235.09 720.214 L2235.09 715.955 L2243.35 714.288 L2248.02 714.288 L2248.02 744.913 L2255.66 744.913 L2255.66 748.848 L2235.76 748.848 L2235.76 744.913 Z" fill="#000000" fill-rule="nonzero" fill-opacity="1" /><path clip-path="url(#clip940)" d="M2275.11 717.367 Q2271.5 717.367 2269.67 720.931 Q2267.86 724.473 2267.86 731.603 Q2267.86 738.709 2269.67 742.274 Q2271.5 745.815 2275.11 745.815 Q2278.74 745.815 2280.55 742.274 Q2282.38 738.709 2282.38 731.603 Q2282.38 724.473 2280.55 720.931 Q2278.74 717.367 2275.11 717.367 M2275.11 713.663 Q2280.92 713.663 2283.97 718.269 Q2287.05 722.853 2287.05 731.603 Q2287.05 740.329 2283.97 744.936 Q2280.92 749.519 2275.11 749.519 Q2269.3 749.519 2266.22 744.936 Q2263.16 740.329 2263.16 731.603 Q2263.16 722.853 2266.22 718.269 Q2269.3 713.663 2275.11 713.663 Z" fill="#000000" fill-rule="nonzero" fill-opacity="1" /><path clip-path="url(#clip940)" d="M2305.27 717.367 Q2301.66 717.367 2299.83 720.931 Q2298.02 724.473 2298.02 731.603 Q2298.02 738.709 2299.83 742.274 Q2301.66 745.815 2305.27 745.815 Q2308.9 745.815 2310.71 742.274 Q2312.54 738.709 2312.54 731.603 Q2312.54 724.473 2310.71 720.931 Q2308.9 717.367 2305.27 717.367 M2305.27 713.663 Q2311.08 713.663 2314.14 718.269 Q2317.21 722.853 2317.21 731.603 Q2317.21 740.329 2314.14 744.936 Q2311.08 749.519 2305.27 749.519 Q2299.46 749.519 2296.38 744.936 Q2293.33 740.329 2293.33 731.603 Q2293.33 722.853 2296.38 718.269 Q2299.46 713.663 2305.27 713.663 Z" fill="#000000" fill-rule="nonzero" fill-opacity="1" /><path clip-path="url(#clip940)" d="M2335.43 717.367 Q2331.82 717.367 2329.99 720.931 Q2328.19 724.473 2328.19 731.603 Q2328.19 738.709 2329.99 742.274 Q2331.82 745.815 2335.43 745.815 Q2339.07 745.815 2340.87 742.274 Q2342.7 738.709 2342.7 731.603 Q2342.7 724.473 2340.87 720.931 Q2339.07 717.367 2335.43 717.367 M2335.43 713.663 Q2341.24 713.663 2344.3 718.269 Q2347.38 722.853 2347.38 731.603 Q2347.38 740.329 2344.3 744.936 Q2341.24 749.519 2335.43 749.519 Q2329.62 749.519 2326.54 744.936 Q2323.49 740.329 2323.49 731.603 Q2323.49 722.853 2326.54 718.269 Q2329.62 713.663 2335.43 713.663 Z" fill="#000000" fill-rule="nonzero" fill-opacity="1" /><polyline clip-path="url(#clip940)" style="stroke:#000000; stroke-linecap:round; stroke-linejoin:round; stroke-width:4; stroke-opacity:1; fill:none" points="178.867,686.448 178.867,47.2441 "/>
<polyline clip-path="url(#clip940)" style="stroke:#000000; stroke-linecap:round; stroke-linejoin:round; stroke-width:4; stroke-opacity:1; fill:none" points="178.867,686.448 197.764,686.448 "/>
<polyline clip-path="url(#clip940)" style="stroke:#000000; stroke-linecap:round; stroke-linejoin:round; stroke-width:4; stroke-opacity:1; fill:none" points="178.867,526.647 197.764,526.647 "/>
<polyline clip-path="url(#clip940)" style="stroke:#000000; stroke-linecap:round; stroke-linejoin:round; stroke-width:4; stroke-opacity:1; fill:none" points="178.867,366.846 197.764,366.846 "/>
<polyline clip-path="url(#clip940)" style="stroke:#000000; stroke-linecap:round; stroke-linejoin:round; stroke-width:4; stroke-opacity:1; fill:none" points="178.867,207.045 197.764,207.045 "/>
<polyline clip-path="url(#clip940)" style="stroke:#000000; stroke-linecap:round; stroke-linejoin:round; stroke-width:4; stroke-opacity:1; fill:none" points="178.867,47.2441 197.764,47.2441 "/>
<path clip-path="url(#clip940)" d="M50.9921 686.899 L80.6679 686.899 L80.6679 690.834 L50.9921 690.834 L50.9921 686.899 Z" fill="#000000" fill-rule="nonzero" fill-opacity="1" /><path clip-path="url(#clip940)" d="M91.5706 699.793 L99.2095 699.793 L99.2095 673.427 L90.8993 675.094 L90.8993 670.835 L99.1632 669.168 L103.839 669.168 L103.839 699.793 L111.478 699.793 L111.478 703.728 L91.5706 703.728 L91.5706 699.793 Z" fill="#000000" fill-rule="nonzero" fill-opacity="1" /><path clip-path="url(#clip940)" d="M130.922 672.247 Q127.311 672.247 125.482 675.811 Q123.677 679.353 123.677 686.483 Q123.677 693.589 125.482 697.154 Q127.311 700.695 130.922 700.695 Q134.556 700.695 136.362 697.154 Q138.191 693.589 138.191 686.483 Q138.191 679.353 136.362 675.811 Q134.556 672.247 130.922 672.247 M130.922 668.543 Q136.732 668.543 139.788 673.149 Q142.867 677.733 142.867 686.483 Q142.867 695.209 139.788 699.816 Q136.732 704.399 130.922 704.399 Q125.112 704.399 122.033 699.816 Q118.978 695.209 118.978 686.483 Q118.978 677.733 122.033 673.149 Q125.112 668.543 130.922 668.543 Z" fill="#000000" fill-rule="nonzero" fill-opacity="1" /><path clip-path="url(#clip940)" d="M82.1494 527.098 L111.825 527.098 L111.825 531.033 L82.1494 531.033 L82.1494 527.098 Z" fill="#000000" fill-rule="nonzero" fill-opacity="1" /><path clip-path="url(#clip940)" d="M121.964 509.367 L140.32 509.367 L140.32 513.302 L126.246 513.302 L126.246 521.774 Q127.265 521.427 128.283 521.265 Q129.302 521.08 130.32 521.08 Q136.107 521.08 139.487 524.251 Q142.867 527.422 142.867 532.839 Q142.867 538.418 139.394 541.52 Q135.922 544.598 129.603 544.598 Q127.427 544.598 125.158 544.228 Q122.913 543.857 120.506 543.117 L120.506 538.418 Q122.589 539.552 124.811 540.108 Q127.033 540.663 129.51 540.663 Q133.515 540.663 135.853 538.557 Q138.191 536.45 138.191 532.839 Q138.191 529.228 135.853 527.121 Q133.515 525.015 129.51 525.015 Q127.635 525.015 125.76 525.432 Q123.908 525.848 121.964 526.728 L121.964 509.367 Z" fill="#000000" fill-rule="nonzero" fill-opacity="1" /><path clip-path="url(#clip940)" d="M130.922 352.645 Q127.311 352.645 125.482 356.209 Q123.677 359.751 123.677 366.881 Q123.677 373.987 125.482 377.552 Q127.311 381.094 130.922 381.094 Q134.556 381.094 136.362 377.552 Q138.191 373.987 138.191 366.881 Q138.191 359.751 136.362 356.209 Q134.556 352.645 130.922 352.645 M130.922 348.941 Q136.732 348.941 139.788 353.547 Q142.867 358.131 142.867 366.881 Q142.867 375.608 139.788 380.214 Q136.732 384.797 130.922 384.797 Q125.112 384.797 122.033 380.214 Q118.978 375.608 118.978 366.881 Q118.978 358.131 122.033 353.547 Q125.112 348.941 130.922 348.941 Z" fill="#000000" fill-rule="nonzero" fill-opacity="1" /><path clip-path="url(#clip940)" d="M121.964 189.765 L140.32 189.765 L140.32 193.7 L126.246 193.7 L126.246 202.172 Q127.265 201.825 128.283 201.663 Q129.302 201.478 130.32 201.478 Q136.107 201.478 139.487 204.649 Q142.867 207.82 142.867 213.237 Q142.867 218.816 139.394 221.918 Q135.922 224.996 129.603 224.996 Q127.427 224.996 125.158 224.626 Q122.913 224.256 120.506 223.515 L120.506 218.816 Q122.589 219.95 124.811 220.506 Q127.033 221.061 129.51 221.061 Q133.515 221.061 135.853 218.955 Q138.191 216.848 138.191 213.237 Q138.191 209.626 135.853 207.52 Q133.515 205.413 129.51 205.413 Q127.635 205.413 125.76 205.83 Q123.908 206.246 121.964 207.126 L121.964 189.765 Z" fill="#000000" fill-rule="nonzero" fill-opacity="1" /><path clip-path="url(#clip940)" d="M91.5706 60.5889 L99.2095 60.5889 L99.2095 34.2233 L90.8993 35.89 L90.8993 31.6308 L99.1632 29.9641 L103.839 29.9641 L103.839 60.5889 L111.478 60.5889 L111.478 64.5241 L91.5706 64.5241 L91.5706 60.5889 Z" fill="#000000" fill-rule="nonzero" fill-opacity="1" /><path clip-path="url(#clip940)" d="M130.922 33.0428 Q127.311 33.0428 125.482 36.6076 Q123.677 40.1492 123.677 47.2788 Q123.677 54.3853 125.482 57.9501 Q127.311 61.4917 130.922 61.4917 Q134.556 61.4917 136.362 57.9501 Q138.191 54.3853 138.191 47.2788 Q138.191 40.1492 136.362 36.6076 Q134.556 33.0428 130.922 33.0428 M130.922 29.3391 Q136.732 29.3391 139.788 33.9456 Q142.867 38.5289 142.867 47.2788 Q142.867 56.0056 139.788 60.6121 Q136.732 65.1954 130.922 65.1954 Q125.112 65.1954 122.033 60.6121 Q118.978 56.0056 118.978 47.2788 Q118.978 38.5289 122.033 33.9456 Q125.112 29.3391 130.922 29.3391 Z" fill="#000000" fill-rule="nonzero" fill-opacity="1" /><polyline clip-path="url(#clip942)" style="stroke:#009af9; stroke-linecap:round; stroke-linejoin:round; stroke-width:4; stroke-opacity:1; fill:none" points="240.392,334.886 242.445,335.196 244.498,359.396 246.55,340.625 248.603,335.903 250.656,328.92 252.709,309.162 254.762,321.583 256.815,323.636 258.868,323.735 260.921,357.249 262.974,358.658 265.027,358.148 267.079,358.385 269.132,356.117 271.185,335.877 273.238,335.855 275.291,336.332 277.344,335.614 279.397,335.339 281.45,335.504 283.503,335.216 285.555,345.555 287.608,367.305 289.661,367.557 291.714,369.248 293.767,367.555 295.82,367.667 297.873,353.408 299.926,348.721 301.979,407.157 304.031,443.68 306.084,433.467 308.137,444.137 310.19,426.795 312.243,395.795 314.296,445.584 316.349,498.851 318.402,494.354 320.455,506.835 322.507,497.086 324.56,496.857 326.613,351.164 328.666,363.301 330.719,363.243 332.772,364.618 334.825,364.561 336.878,370.717 338.931,362.457 340.984,329.725 343.036,329.49 345.089,295.581 347.142,304.406 349.195,288.805 351.248,309.165 353.301,309.557 355.354,335.936 357.407,298.975 359.46,299.612 361.512,299.846 363.565,298.282 365.618,335.688 367.671,335.576 369.724,335.449 371.777,388.038 373.83,388.481 375.883,275.647 377.936,274.507 379.988,334.539 382.041,353.711 384.094,365.076 386.147,376.779 388.2,366.167 390.253,338.31 392.306,414.322 394.359,413.812 396.412,375.313 398.464,408.967 400.517,402.978 402.57,408.203 404.623,436.126 406.676,360.712 408.729,356.783 410.782,351.157 412.835,347.585 414.888,372.133 416.94,429.119 418.993,429.633 421.046,439.233 423.099,438.728 425.152,452.316 427.205,469.839 429.258,410.543 431.311,352.24 433.364,352.571 435.417,355.958 437.469,339.691 439.522,363.315 441.575,339.427 443.628,341.865 445.681,334.203 447.734,352.704 449.787,365.382 451.84,365.56 453.893,363.619 455.945,362.232 457.998,359.142 460.051,359.218 462.104,363.578 464.157,396.912 466.21,503.592 468.263,484.244 470.316,426.89 472.369,424.467 474.421,413.93 476.474,422.368 478.527,422.095 480.58,376.184 482.633,362.409 484.686,364.513 486.739,364.034 488.792,357.721 490.845,294.835 492.897,323.862 494.95,325.63 497.003,313.679 499.056,304.489 501.109,304.653 503.162,303.054 505.215,314.438 507.268,310.798 509.321,310.143 511.374,324.1 513.426,401.75 515.479,286.985 517.532,286.848 519.585,287.076 521.638,291.67 523.691,296.957 525.744,303.429 527.797,309.507 529.85,276.992 531.902,246.601 533.955,254.705 536.008,291.225 538.061,298.466 540.114,302.032 542.167,307.948 544.22,400.194 546.273,354.285 548.326,388.892 550.378,390.747 552.431,389.845 554.484,379.209 556.537,380.541 558.59,393.331 560.643,380.169 562.696,381.385 564.749,381.782 566.802,378.173 568.854,371.457 570.907,373.825 572.96,373.113 575.013,368.756 577.066,363.646 579.119,353.627 581.172,348.42 583.225,435.257 585.278,276.24 587.331,279.193 589.383,272.22 591.436,271.79 593.489,273.707 595.542,274.245 597.595,274.358 599.648,274.181 601.701,274.872 603.754,383.69 605.807,380.283 607.859,417.683 609.912,415.271 611.965,415.074 614.018,403.632 616.071,401.717 618.124,404.45 620.177,404.451 622.23,407.249 624.283,406.953 626.335,399.878 628.388,399.876 630.441,404.555 632.494,403.215 634.547,407.203 636.6,406.814 638.653,406.854 640.706,406.868 642.759,403.125 644.811,405.523 646.864,404.046 648.917,350.585 650.97,368.658 653.023,368.362 655.076,368.007 657.129,363.607 659.182,378.891 661.235,378.572 663.288,377.535 665.34,380.814 667.393,376.625 669.446,376.268 671.499,382.095 673.552,382.814 675.605,375.973 677.658,375.854 679.711,375.129 681.764,377.758 683.816,388.495 685.869,383.434 687.922,398.563 689.975,399.805 692.028,369.182 694.081,356.204 696.134,346.932 698.187,331.582 700.24,332.073 702.292,334.048 704.345,330.608 706.398,336.83 708.451,339.314 710.504,340.843 712.557,345.497 714.61,343.963 716.663,344.384 718.716,344.311 720.768,332.517 722.821,333.553 724.874,334.396 726.927,334.437 728.98,341.286 731.033,339.807 733.086,339.212 735.139,335.989 737.192,335.686 739.245,335.823 741.297,332.996 743.35,336.509 745.403,336.982 747.456,350.223 749.509,351.339 751.562,398.124 753.615,413.85 755.668,413.952 757.721,415.237 759.773,399.762 761.826,394.686 763.879,396.733 765.932,399.351 767.985,399.652 770.038,413.661 772.091,411.285 774.144,413.249 776.197,413.937 778.249,413.858 780.302,405.016 782.355,404.89 784.408,406.063 786.461,400.005 788.514,395.166 790.567,401.424 792.62,401.019 794.673,402.266 796.725,411.647 798.778,407.407 800.831,413.989 802.884,409.048 804.937,399.761 806.99,388.239 809.043,384.879 811.096,383.684 813.149,382.17 815.202,359.948 817.254,358.442 819.307,357.881 821.36,360.728 823.413,350.613 825.466,316.108 827.519,316.749 829.572,353.055 831.625,348.598 833.678,341.594 835.73,334.268 837.783,339.58 839.836,339.35 841.889,347.405 843.942,351.321 845.995,357.302 848.048,354.87 850.101,358.791 852.154,359.74 854.206,361.936 856.259,363.561 858.312,360.944 860.365,365.119 862.418,362.222 864.471,362.083 866.524,362.015 868.577,361.59 870.63,378.825 872.682,386.54 874.735,391.268 876.788,393.14 878.841,391.545 880.894,392.784 882.947,391.331 885,393.645 887.053,395.398 889.106,393.436 891.159,393.417 893.211,395.652 895.264,403.407 897.317,400.535 899.37,400.875 901.423,405.129 903.476,391.24 905.529,385.479 907.582,384.136 909.635,385.761 911.687,385.756 913.74,386.261 915.793,384.386 917.846,381.784 919.899,379.239 921.952,379.231 924.005,378.309 926.058,378.432 928.111,381.02 930.163,386.536 932.216,386.27 934.269,371.056 936.322,371.799 938.375,364.699 940.428,364.672 942.481,365.967 944.534,366.033 946.587,366.12 948.639,368.254 950.692,375.564 952.745,385.798 954.798,353.463 956.851,356.521 958.904,356.432 960.957,360.406 963.01,360.526 965.063,367.538 967.116,368.81 969.168,391.267 971.221,377.602 973.274,377.572 975.327,377.077 977.38,377.03 979.433,388.909 981.486,388.434 983.539,382.111 985.592,357.194 987.644,349.36 989.697,345.02 991.75,340.697 993.803,288.223 995.856,308.419 997.909,300.87 999.962,327.759 1002.01,339.013 1004.07,338.117 1006.12,338.251 1008.17,337.613 1010.23,332.585 1012.28,336.32 1014.33,398.409 1016.38,398.079 1018.44,387.964 1020.49,387.617 1022.54,376.261 1024.6,392.905 1026.65,399.199 1028.7,398.452 1030.76,393.555 1032.81,393.549 1034.86,395.487 1036.91,395.514 1038.97,389.815 1041.02,389.203 1043.07,389.535 1045.13,389.591 1047.18,389.813 1049.23,387.249 1051.28,378.646 1053.34,357.633 1055.39,358.61 1057.44,368.342 1059.5,368.715 1061.55,376.835 1063.6,362.944 1065.65,360.867 1067.71,360.782 1069.76,362.207 1071.81,363.115 1073.87,353.187 1075.92,350.235 1077.97,374.998 1080.02,373.864 1082.08,373.717 1084.13,374.408 1086.18,351.231 1088.24,357.397 1090.29,372.498 1092.34,369.498 1094.39,367.592 1096.45,368.072 1098.5,379.236 1100.55,355.402 1102.61,336.774 1104.66,317.93 1106.71,317.222 1108.77,320.072 1110.82,318.01 1112.87,358.068 1114.92,382.849 1116.98,389.563 1119.03,397.947 1121.08,385.815 1123.14,388.771 1125.19,377.379 1127.24,421.587 1129.29,378.581 1131.35,429.557 1133.4,436.368 1135.45,448.748 1137.51,435.967 1139.56,431.149 1141.61,352.676 1143.66,352.793 1145.72,353.67 1147.77,352.674 1149.82,330.516 1151.88,331.902 1153.93,332.608 1155.98,332.778 1158.03,331.911 1160.09,333.337 1162.14,321.632 1164.19,322.514 1166.25,343.63 1168.3,345.479 1170.35,350.357 1172.4,360.921 1174.46,374.568 1176.51,344.404 1178.56,349.011 1180.62,346.953 1182.67,379.05 1184.72,359.511 1186.77,358.876 1188.83,362.683 1190.88,413.064 1192.93,395.786 1194.99,395.382 1197.04,396.389 1199.09,302.713 1201.15,316.554 1203.2,319.487 1205.25,370.195 1207.3,366.55 1209.36,366.692 1211.41,262.804 1213.46,275.028 1215.52,272.953 1217.57,275.643 1219.62,275.701 1221.67,287.25 1223.73,331.155 1225.78,331.422 1227.83,328.844 1229.89,349.462 1231.94,406.765 1233.99,412.83 1236.04,481.891 1238.1,269.413 1240.15,269.119 1242.2,266.827 1244.26,270.06 1246.31,229.366 1248.36,257.21 1250.41,162.69 1252.47,194.084 1254.52,196.809 1256.57,265.753 1258.63,143.592 1260.68,141.083 1262.73,195.698 1264.78,192.632 1266.84,172.502 1268.89,163.933 1270.94,434.227 1273,257.816 1275.05,228.237 1277.1,507.982 1279.16,370.611 1281.21,372.356 1283.26,515.648 1285.31,409.529 1287.37,406.109 1289.42,380.262 1291.47,508.673 1293.53,507.944 1295.58,539.102 1297.63,256.507 1299.68,306.293 1301.74,278.993 1303.79,270.982 1305.84,470.186 1307.9,279.262 1309.95,109.774 1312,-22.2524 1314.05,-133.723 1316.11,-151.613 1318.16,-206.227 1320.21,-208.873 1322.27,-252.185 1324.32,-39.3317 1326.37,-33.0106 1328.42,-107.868 1330.48,116.831 1332.53,420.631 1334.58,399.889 1336.64,269.108 1338.69,206.744 1340.74,214.995 1342.79,253.715 1344.85,156.857 1346.9,346.753 1348.95,349.091 1351.01,350.758 1353.06,285.13 1355.11,358.005 1357.16,353.462 1359.22,314.7 1361.27,438.646 1363.32,689.714 1365.38,387.175 1367.43,385.817 1369.48,441.123 1371.54,442.903 1373.59,452.798 1375.64,533.6 1377.69,534.842 1379.75,496.317 1381.8,449.928 1383.85,428.086 1385.91,417.758 1387.96,418.567 1390.01,411.097 1392.06,410.976 1394.12,408.026 1396.17,438.857 1398.22,387.22 1400.28,406.756 1402.33,390.293 1404.38,384.044 1406.43,402.435 1408.49,403.679 1410.54,403.492 1412.59,403.135 1414.65,402.699 1416.7,385.528 1418.75,385.577 1420.8,396.534 1422.86,300.948 1424.91,357.49 1426.96,368.257 1429.02,358.298 1431.07,362.889 1433.12,358.797 1435.17,358.02 1437.23,387.881 1439.28,396.066 1441.33,387.482 1443.39,380.967 1445.44,384.095 1447.49,423.157 1449.55,360.526 1451.6,352.283 1453.65,362.251 1455.7,354.761 1457.76,431.534 1459.81,430.515 1461.86,456.962 1463.92,555.755 1465.97,459.027 1468.02,462.532 1470.07,324.377 1472.13,324.028 1474.18,312.449 1476.23,335.77 1478.29,340.649 1480.34,344.284 1482.39,278.429 1484.44,422.52 1486.5,415.222 1488.55,428.579 1490.6,417.327 1492.66,416.231 1494.71,411.559 1496.76,404.54 1498.81,493.977 1500.87,496.236 1502.92,514.887 1504.97,508.671 1507.03,506.782 1509.08,509.066 1511.13,510.717 1513.18,494.22 1515.24,490.317 1517.29,494.532 1519.34,518.542 1521.4,505.434 1523.45,506.214 1525.5,495.907 1527.55,492.863 1529.61,416.364 1531.66,363.24 1533.71,418.3 1535.77,399.079 1537.82,450.447 1539.87,454.816 1541.93,474.117 1543.98,454.793 1546.03,578.198 1548.08,207.274 1550.14,210.974 1552.19,202.685 1554.24,224.877 1556.3,233.701 1558.35,237.358 1560.4,256.416 1562.45,245.651 1564.51,366.327 1566.56,346.507 1568.61,342.989 1570.67,336.692 1572.72,343.492 1574.77,395.835 1576.82,356.186 1578.88,466.839 1580.93,471.44 1582.98,464.075 1585.04,344.324 1587.09,345.551 1589.14,333.741 1591.19,283.301 1593.25,456.566 1595.3,451.562 1597.35,536.525 1599.41,551.195 1601.46,550.837 1603.51,513.038 1605.56,515.008 1607.62,467.082 1609.67,323.297 1611.72,420.943 1613.78,826.281 1615.83,879.584 1617.88,996.664 1619.94,1142.16 1621.99,907.158 1624.04,144.625 1626.09,31.1046 1628.15,154.92 1630.2,154.956 1632.25,113.485 1634.31,79.4814 1636.36,113.763 1638.41,225.044 1640.46,148.433 1642.52,144.571 1644.57,87.7115 1646.62,246.39 1648.68,8.65614 1650.73,-237.638 1652.78,64.9986 1654.83,61.442 1656.89,58.668 1658.94,-138.913 1660.99,-80.1777 1663.05,298.437 1665.1,287.466 1667.15,161.798 1669.2,165.284 1671.26,178.808 1673.31,93.1306 1675.36,63.4174 1677.42,131.504 1679.47,-18.5678 1681.52,29.7007 1683.57,286.284 1685.63,93.8328 1687.68,126.127 1689.73,330.031 1691.79,261.752 1693.84,140.985 1695.89,343.097 1697.94,638.901 1700,460.988 1702.05,411.174 1704.1,413.231 1706.16,440.456 1708.21,438.595 1710.26,400.858 1712.32,217.574 1714.37,305.978 1716.42,223.548 1718.47,209.008 1720.53,206.377 1722.58,281.149 1724.63,289.545 1726.69,33.4587 1728.74,602.575 1730.79,610.081 1732.84,608.37 1734.9,660.77 1736.95,656.259 1739,541.156 1741.06,398.108 1743.11,387.057 1745.16,361.143 1747.21,206.048 1749.27,90.6801 1751.32,-35.3255 1753.37,-4.67451 1755.43,5.36617 1757.48,-3.2416 1759.53,58.4619 1761.58,44.8371 1763.64,98.1478 1765.69,419.263 1767.74,420.653 1769.8,333.831 1771.85,465.284 1773.9,467.787 1775.95,466.847 1778.01,488.111 1780.06,134.582 1782.11,210.449 1784.17,209.409 1786.22,158.381 1788.27,266.685 1790.33,-187.216 1792.38,-19.7133 1794.43,369.409 1796.48,479.048 1798.54,535.926 1800.59,548.943 1802.64,554.286 1804.7,811.198 1806.75,811.396 1808.8,810.426 1810.85,611.111 1812.91,662.338 1814.96,736.961 1817.01,12.4572 1819.07,-25.8086 1821.12,-119.736 1823.17,138.579 1825.22,140.741 1827.28,143.764 1829.33,138.157 1831.38,45.0636 1833.44,45.1278 1835.49,138.955 1837.54,365.647 1839.59,382.931 1841.65,366.219 1843.7,256.781 1845.75,300.277 1847.81,482.055 1849.86,477.637 1851.91,457.129 1853.96,62.8419 1856.02,759.142 1858.07,585.126 1860.12,965.484 1862.18,911.592 1864.23,1019.54 1866.28,1053.76 1868.34,1041.5 1870.39,1031.84 1872.44,1037.35 1874.49,1075.86 1876.55,1072.82 1878.6,963.684 1880.65,966.56 1882.71,966.193 1884.76,946.361 1886.81,932.539 1888.86,904.886 1890.92,910.568 1892.97,643.448 1895.02,677.96 1897.08,674.164 1899.13,624.311 1901.18,644.689 1903.23,658.757 1905.29,295.66 1907.34,262.155 1909.39,255.379 1911.45,253.085 1913.5,323.722 1915.55,264.553 1917.6,265.377 1919.66,179.677 1921.71,208.435 1923.76,208.99 1925.82,164.013 1927.87,275.924 1929.92,274.554 1931.97,415.191 1934.03,562.772 1936.08,473.437 1938.13,375.27 1940.19,420.98 1942.24,425.555 1944.29,411.682 1946.34,410.509 1948.4,409.849 1950.45,398.277 1952.5,396.983 1954.56,396.751 1956.61,382.948 1958.66,278.245 1960.72,315.225 1962.77,322.951 1964.82,296.206 1966.87,295.6 1968.93,295.534 1970.98,289.221 1973.03,287.763 1975.09,288.604 1977.14,291.518 1979.19,294.672 1981.24,287.325 1983.3,246.667 1985.35,327.043 1987.4,320.064 1989.46,394.319 1991.51,403.39 1993.56,394.479 1995.61,362.064 1997.67,359.615 1999.72,360.327 2001.77,360.328 2003.83,352.757 2005.88,356.778 2007.93,356.77 2009.98,348.6 2012.04,348.755 2014.09,368.845 2016.14,371.834 2018.2,363.021 2020.25,394.99 2022.3,388.825 2024.35,355.923 2026.41,356.255 2028.46,361.882 2030.51,364.075 2032.57,361.524 2034.62,365.501 2036.67,366.151 2038.73,379.227 2040.78,377.808 2042.83,377.446 2044.88,377.204 2046.94,377.433 2048.99,377.009 2051.04,343.903 2053.1,343.76 2055.15,344.593 2057.2,341.478 2059.25,341.371 2061.31,339.036 2063.36,329.139 2065.41,332.919 2067.47,332.909 2069.52,340.004 2071.57,344.217 2073.62,314.814 2075.68,306.576 2077.73,305.732 2079.78,307.479 2081.84,305.626 2083.89,305.725 2085.94,300.769 2087.99,299.128 2090.05,298.564 2092.1,297.378 2094.15,292.685 2096.21,317.613 2098.26,349.36 2100.31,347.081 2102.36,343.084 2104.42,391.244 2106.47,379.916 2108.52,388.177 2110.58,401.773 2112.63,401.27 2114.68,401.765 2116.73,386.947 2118.79,365.219 2120.84,364.871 2122.89,349.11 2124.95,383.704 2127,385.541 2129.05,385.697 2131.11,352.381 2133.16,425.591 2135.21,429.254 2137.26,426.308 2139.32,426.305 2141.37,442.765 2143.42,369.565 2145.48,369.57 2147.53,367.664 2149.58,365.241 2151.63,359.594 2153.69,358.738 2155.74,360.989 2157.79,325.924 2159.85,325.88 2161.9,332.896 2163.95,336.148 2166,339.737 2168.06,352.013 2170.11,334.695 2172.16,342.414 2174.22,319.224 2176.27,319.251 2178.32,318.999 2180.37,323.764 2182.43,319.984 2184.48,348.018 2186.53,306.718 2188.59,332.244 2190.64,283.982 2192.69,348.176 2194.74,324.349 2196.8,332.442 2198.85,337.106 2200.9,336.766 2202.96,384.473 2205.01,384.155 2207.06,383.204 2209.12,385.635 2211.17,311.781 2213.22,431.501 2215.27,418.732 2217.33,418.46 2219.38,421.333 2221.43,421.588 2223.49,422.271 2225.54,422.746 2227.59,350.163 2229.64,352.457 2231.7,353.211 2233.75,352.559 2235.8,323.41 2237.86,345.371 2239.91,343.907 2241.96,343.976 2244.01,344.117 2246.07,340.33 2248.12,339.76 2250.17,359.179 2252.23,404.419 2254.28,421.056 2256.33,383.403 2258.38,374.492 2260.44,368.811 2262.49,383.38 2264.54,387.227 2266.6,404.515 2268.65,401.157 2270.7,409.263 2272.75,408.286 2274.81,407.219 2276.86,405.453 2278.91,330.414 2280.97,387.55 2283.02,395.7 2285.07,388.34 2287.12,325.234 2289.18,346.493 2291.23,329.056 "/>
<path clip-path="url(#clip940)" d="M251.33 172.231 L548.024 172.231 L548.024 68.5509 L251.33 68.5509  Z" fill="#ffffff" fill-rule="evenodd" fill-opacity="1"/>
<polyline clip-path="url(#clip940)" style="stroke:#000000; stroke-linecap:round; stroke-linejoin:round; stroke-width:4; stroke-opacity:1; fill:none" points="251.33,172.231 548.024,172.231 548.024,68.5509 251.33,68.5509 251.33,172.231 "/>
<polyline clip-path="url(#clip940)" style="stroke:#009af9; stroke-linecap:round; stroke-linejoin:round; stroke-width:4; stroke-opacity:1; fill:none" points="275.484,120.391 420.41,120.391 "/>
<path clip-path="url(#clip940)" d="M444.564 103.111 L449.24 103.111 L449.24 133.736 L466.069 133.736 L466.069 137.671 L444.564 137.671 L444.564 103.111 Z" fill="#000000" fill-rule="nonzero" fill-opacity="1" /><path clip-path="url(#clip940)" d="M491.694 104.245 L491.694 108.805 Q489.032 107.532 486.67 106.907 Q484.309 106.282 482.11 106.282 Q478.291 106.282 476.208 107.764 Q474.147 109.245 474.147 111.977 Q474.147 114.268 475.513 115.449 Q476.902 116.606 480.745 117.324 L483.569 117.902 Q488.8 118.898 491.277 121.421 Q493.777 123.921 493.777 128.134 Q493.777 133.157 490.397 135.75 Q487.041 138.342 480.536 138.342 Q478.083 138.342 475.305 137.787 Q472.55 137.231 469.587 136.143 L469.587 131.328 Q472.434 132.926 475.166 133.736 Q477.897 134.546 480.536 134.546 Q484.541 134.546 486.717 132.972 Q488.893 131.398 488.893 128.481 Q488.893 125.935 487.319 124.5 Q485.768 123.064 482.203 122.347 L479.356 121.791 Q474.124 120.75 471.786 118.527 Q469.448 116.305 469.448 112.347 Q469.448 107.764 472.666 105.125 Q475.907 102.486 481.578 102.486 Q484.008 102.486 486.532 102.926 Q489.055 103.366 491.694 104.245 Z" fill="#000000" fill-rule="nonzero" fill-opacity="1" /><path clip-path="url(#clip940)" d="M521.786 104.245 L521.786 108.805 Q519.124 107.532 516.763 106.907 Q514.402 106.282 512.203 106.282 Q508.383 106.282 506.3 107.764 Q504.24 109.245 504.24 111.977 Q504.24 114.268 505.606 115.449 Q506.994 116.606 510.837 117.324 L513.661 117.902 Q518.893 118.898 521.369 121.421 Q523.869 123.921 523.869 128.134 Q523.869 133.157 520.49 135.75 Q517.133 138.342 510.629 138.342 Q508.175 138.342 505.397 137.787 Q502.643 137.231 499.68 136.143 L499.68 131.328 Q502.527 132.926 505.258 133.736 Q507.99 134.546 510.629 134.546 Q514.633 134.546 516.809 132.972 Q518.985 131.398 518.985 128.481 Q518.985 125.935 517.411 124.5 Q515.86 123.064 512.295 122.347 L509.448 121.791 Q504.217 120.75 501.879 118.527 Q499.541 116.305 499.541 112.347 Q499.541 107.764 502.758 105.125 Q505.999 102.486 511.67 102.486 Q514.101 102.486 516.624 102.926 Q519.147 103.366 521.786 104.245 Z" fill="#000000" fill-rule="nonzero" fill-opacity="1" /><path clip-path="url(#clip940)" d="M178.867 1486.45 L2352.76 1486.45 L2352.76 847.244 L178.867 847.244  Z" fill="#ffffff" fill-rule="evenodd" fill-opacity="1"/>
<defs>
  <clipPath id="clip943">
    <rect x="178" y="847" width="2175" height="640"/>
  </clipPath>
</defs>
<polyline clip-path="url(#clip943)" style="stroke:#000000; stroke-linecap:round; stroke-linejoin:round; stroke-width:2; stroke-opacity:0.1; fill:none" points="238.339,1486.45 238.339,847.244 "/>
<polyline clip-path="url(#clip943)" style="stroke:#000000; stroke-linecap:round; stroke-linejoin:round; stroke-width:2; stroke-opacity:0.1; fill:none" points="751.562,1486.45 751.562,847.244 "/>
<polyline clip-path="url(#clip943)" style="stroke:#000000; stroke-linecap:round; stroke-linejoin:round; stroke-width:2; stroke-opacity:0.1; fill:none" points="1264.78,1486.45 1264.78,847.244 "/>
<polyline clip-path="url(#clip943)" style="stroke:#000000; stroke-linecap:round; stroke-linejoin:round; stroke-width:2; stroke-opacity:0.1; fill:none" points="1778.01,1486.45 1778.01,847.244 "/>
<polyline clip-path="url(#clip943)" style="stroke:#000000; stroke-linecap:round; stroke-linejoin:round; stroke-width:2; stroke-opacity:0.1; fill:none" points="2291.23,1486.45 2291.23,847.244 "/>
<polyline clip-path="url(#clip943)" style="stroke:#000000; stroke-linecap:round; stroke-linejoin:round; stroke-width:2; stroke-opacity:0.1; fill:none" points="178.867,1486.45 2352.76,1486.45 "/>
<polyline clip-path="url(#clip943)" style="stroke:#000000; stroke-linecap:round; stroke-linejoin:round; stroke-width:2; stroke-opacity:0.1; fill:none" points="178.867,1326.65 2352.76,1326.65 "/>
<polyline clip-path="url(#clip943)" style="stroke:#000000; stroke-linecap:round; stroke-linejoin:round; stroke-width:2; stroke-opacity:0.1; fill:none" points="178.867,1166.85 2352.76,1166.85 "/>
<polyline clip-path="url(#clip943)" style="stroke:#000000; stroke-linecap:round; stroke-linejoin:round; stroke-width:2; stroke-opacity:0.1; fill:none" points="178.867,1007.05 2352.76,1007.05 "/>
<polyline clip-path="url(#clip943)" style="stroke:#000000; stroke-linecap:round; stroke-linejoin:round; stroke-width:2; stroke-opacity:0.1; fill:none" points="178.867,847.244 2352.76,847.244 "/>
<polyline clip-path="url(#clip940)" style="stroke:#000000; stroke-linecap:round; stroke-linejoin:round; stroke-width:4; stroke-opacity:1; fill:none" points="178.867,1486.45 2352.76,1486.45 "/>
<polyline clip-path="url(#clip940)" style="stroke:#000000; stroke-linecap:round; stroke-linejoin:round; stroke-width:4; stroke-opacity:1; fill:none" points="238.339,1486.45 238.339,1467.55 "/>
<polyline clip-path="url(#clip940)" style="stroke:#000000; stroke-linecap:round; stroke-linejoin:round; stroke-width:4; stroke-opacity:1; fill:none" points="751.562,1486.45 751.562,1467.55 "/>
<polyline clip-path="url(#clip940)" style="stroke:#000000; stroke-linecap:round; stroke-linejoin:round; stroke-width:4; stroke-opacity:1; fill:none" points="1264.78,1486.45 1264.78,1467.55 "/>
<polyline clip-path="url(#clip940)" style="stroke:#000000; stroke-linecap:round; stroke-linejoin:round; stroke-width:4; stroke-opacity:1; fill:none" points="1778.01,1486.45 1778.01,1467.55 "/>
<polyline clip-path="url(#clip940)" style="stroke:#000000; stroke-linecap:round; stroke-linejoin:round; stroke-width:4; stroke-opacity:1; fill:none" points="2291.23,1486.45 2291.23,1467.55 "/>
<path clip-path="url(#clip940)" d="M238.339 1517.37 Q234.728 1517.37 232.899 1520.93 Q231.094 1524.47 231.094 1531.6 Q231.094 1538.71 232.899 1542.27 Q234.728 1545.82 238.339 1545.82 Q241.973 1545.82 243.779 1542.27 Q245.607 1538.71 245.607 1531.6 Q245.607 1524.47 243.779 1520.93 Q241.973 1517.37 238.339 1517.37 M238.339 1513.66 Q244.149 1513.66 247.205 1518.27 Q250.283 1522.85 250.283 1531.6 Q250.283 1540.33 247.205 1544.94 Q244.149 1549.52 238.339 1549.52 Q232.529 1549.52 229.45 1544.94 Q226.395 1540.33 226.395 1531.6 Q226.395 1522.85 229.45 1518.27 Q232.529 1513.66 238.339 1513.66 Z" fill="#000000" fill-rule="nonzero" fill-opacity="1" /><path clip-path="url(#clip940)" d="M715.254 1544.91 L731.574 1544.91 L731.574 1548.85 L709.629 1548.85 L709.629 1544.91 Q712.291 1542.16 716.875 1537.53 Q721.481 1532.88 722.662 1531.53 Q724.907 1529.01 725.787 1527.27 Q726.689 1525.51 726.689 1523.82 Q726.689 1521.07 724.745 1519.33 Q722.824 1517.6 719.722 1517.6 Q717.523 1517.6 715.069 1518.36 Q712.638 1519.13 709.861 1520.68 L709.861 1515.95 Q712.685 1514.82 715.138 1514.24 Q717.592 1513.66 719.629 1513.66 Q725 1513.66 728.194 1516.35 Q731.388 1519.03 731.388 1523.52 Q731.388 1525.65 730.578 1527.57 Q729.791 1529.47 727.685 1532.07 Q727.106 1532.74 724.004 1535.95 Q720.902 1539.15 715.254 1544.91 Z" fill="#000000" fill-rule="nonzero" fill-opacity="1" /><path clip-path="url(#clip940)" d="M741.435 1514.29 L759.791 1514.29 L759.791 1518.22 L745.717 1518.22 L745.717 1526.7 Q746.736 1526.35 747.754 1526.19 Q748.773 1526 749.791 1526 Q755.578 1526 758.958 1529.17 Q762.337 1532.34 762.337 1537.76 Q762.337 1543.34 758.865 1546.44 Q755.393 1549.52 749.073 1549.52 Q746.898 1549.52 744.629 1549.15 Q742.384 1548.78 739.976 1548.04 L739.976 1543.34 Q742.06 1544.47 744.282 1545.03 Q746.504 1545.58 748.981 1545.58 Q752.985 1545.58 755.323 1543.48 Q757.661 1541.37 757.661 1537.76 Q757.661 1534.15 755.323 1532.04 Q752.985 1529.94 748.981 1529.94 Q747.106 1529.94 745.231 1530.35 Q743.379 1530.77 741.435 1531.65 L741.435 1514.29 Z" fill="#000000" fill-rule="nonzero" fill-opacity="1" /><path clip-path="url(#clip940)" d="M781.55 1517.37 Q777.939 1517.37 776.11 1520.93 Q774.305 1524.47 774.305 1531.6 Q774.305 1538.71 776.11 1542.27 Q777.939 1545.82 781.55 1545.82 Q785.184 1545.82 786.99 1542.27 Q788.819 1538.71 788.819 1531.6 Q788.819 1524.47 786.99 1520.93 Q785.184 1517.37 781.55 1517.37 M781.55 1513.66 Q787.36 1513.66 790.416 1518.27 Q793.495 1522.85 793.495 1531.6 Q793.495 1540.33 790.416 1544.94 Q787.36 1549.52 781.55 1549.52 Q775.74 1549.52 772.661 1544.94 Q769.606 1540.33 769.606 1531.6 Q769.606 1522.85 772.661 1518.27 Q775.74 1513.66 781.55 1513.66 Z" fill="#000000" fill-rule="nonzero" fill-opacity="1" /><path clip-path="url(#clip940)" d="M1224.4 1514.29 L1242.76 1514.29 L1242.76 1518.22 L1228.69 1518.22 L1228.69 1526.7 Q1229.7 1526.35 1230.72 1526.19 Q1231.74 1526 1232.76 1526 Q1238.55 1526 1241.93 1529.17 Q1245.31 1532.34 1245.31 1537.76 Q1245.31 1543.34 1241.83 1546.44 Q1238.36 1549.52 1232.04 1549.52 Q1229.87 1549.52 1227.6 1549.15 Q1225.35 1548.78 1222.94 1548.04 L1222.94 1543.34 Q1225.03 1544.47 1227.25 1545.03 Q1229.47 1545.58 1231.95 1545.58 Q1235.95 1545.58 1238.29 1543.48 Q1240.63 1541.37 1240.63 1537.76 Q1240.63 1534.15 1238.29 1532.04 Q1235.95 1529.94 1231.95 1529.94 Q1230.07 1529.94 1228.2 1530.35 Q1226.35 1530.77 1224.4 1531.65 L1224.4 1514.29 Z" fill="#000000" fill-rule="nonzero" fill-opacity="1" /><path clip-path="url(#clip940)" d="M1264.52 1517.37 Q1260.91 1517.37 1259.08 1520.93 Q1257.27 1524.47 1257.27 1531.6 Q1257.27 1538.71 1259.08 1542.27 Q1260.91 1545.82 1264.52 1545.82 Q1268.15 1545.82 1269.96 1542.27 Q1271.79 1538.71 1271.79 1531.6 Q1271.79 1524.47 1269.96 1520.93 Q1268.15 1517.37 1264.52 1517.37 M1264.52 1513.66 Q1270.33 1513.66 1273.38 1518.27 Q1276.46 1522.85 1276.46 1531.6 Q1276.46 1540.33 1273.38 1544.94 Q1270.33 1549.52 1264.52 1549.52 Q1258.71 1549.52 1255.63 1544.94 Q1252.57 1540.33 1252.57 1531.6 Q1252.57 1522.85 1255.63 1518.27 Q1258.71 1513.66 1264.52 1513.66 Z" fill="#000000" fill-rule="nonzero" fill-opacity="1" /><path clip-path="url(#clip940)" d="M1294.68 1517.37 Q1291.07 1517.37 1289.24 1520.93 Q1287.44 1524.47 1287.44 1531.6 Q1287.44 1538.71 1289.24 1542.27 Q1291.07 1545.82 1294.68 1545.82 Q1298.31 1545.82 1300.12 1542.27 Q1301.95 1538.71 1301.95 1531.6 Q1301.95 1524.47 1300.12 1520.93 Q1298.31 1517.37 1294.68 1517.37 M1294.68 1513.66 Q1300.49 1513.66 1303.55 1518.27 Q1306.62 1522.85 1306.62 1531.6 Q1306.62 1540.33 1303.55 1544.94 Q1300.49 1549.52 1294.68 1549.52 Q1288.87 1549.52 1285.79 1544.94 Q1282.74 1540.33 1282.74 1531.6 Q1282.74 1522.85 1285.79 1518.27 Q1288.87 1513.66 1294.68 1513.66 Z" fill="#000000" fill-rule="nonzero" fill-opacity="1" /><path clip-path="url(#clip940)" d="M1736.28 1514.29 L1758.51 1514.29 L1758.51 1516.28 L1745.96 1548.85 L1741.08 1548.85 L1752.88 1518.22 L1736.28 1518.22 L1736.28 1514.29 Z" fill="#000000" fill-rule="nonzero" fill-opacity="1" /><path clip-path="url(#clip940)" d="M1767.67 1514.29 L1786.03 1514.29 L1786.03 1518.22 L1771.95 1518.22 L1771.95 1526.7 Q1772.97 1526.35 1773.99 1526.19 Q1775.01 1526 1776.03 1526 Q1781.82 1526 1785.2 1529.17 Q1788.57 1532.34 1788.57 1537.76 Q1788.57 1543.34 1785.1 1546.44 Q1781.63 1549.52 1775.31 1549.52 Q1773.14 1549.52 1770.87 1549.15 Q1768.62 1548.78 1766.21 1548.04 L1766.21 1543.34 Q1768.3 1544.47 1770.52 1545.03 Q1772.74 1545.58 1775.22 1545.58 Q1779.22 1545.58 1781.56 1543.48 Q1783.9 1541.37 1783.9 1537.76 Q1783.9 1534.15 1781.56 1532.04 Q1779.22 1529.94 1775.22 1529.94 Q1773.34 1529.94 1771.47 1530.35 Q1769.62 1530.77 1767.67 1531.65 L1767.67 1514.29 Z" fill="#000000" fill-rule="nonzero" fill-opacity="1" /><path clip-path="url(#clip940)" d="M1807.79 1517.37 Q1804.18 1517.37 1802.35 1520.93 Q1800.54 1524.47 1800.54 1531.6 Q1800.54 1538.71 1802.35 1542.27 Q1804.18 1545.82 1807.79 1545.82 Q1811.42 1545.82 1813.23 1542.27 Q1815.06 1538.71 1815.06 1531.6 Q1815.06 1524.47 1813.23 1520.93 Q1811.42 1517.37 1807.79 1517.37 M1807.79 1513.66 Q1813.6 1513.66 1816.65 1518.27 Q1819.73 1522.85 1819.73 1531.6 Q1819.73 1540.33 1816.65 1544.94 Q1813.6 1549.52 1807.79 1549.52 Q1801.98 1549.52 1798.9 1544.94 Q1795.84 1540.33 1795.84 1531.6 Q1795.84 1522.85 1798.9 1518.27 Q1801.98 1513.66 1807.79 1513.66 Z" fill="#000000" fill-rule="nonzero" fill-opacity="1" /><path clip-path="url(#clip940)" d="M2235.76 1544.91 L2243.4 1544.91 L2243.4 1518.55 L2235.09 1520.21 L2235.09 1515.95 L2243.35 1514.29 L2248.02 1514.29 L2248.02 1544.91 L2255.66 1544.91 L2255.66 1548.85 L2235.76 1548.85 L2235.76 1544.91 Z" fill="#000000" fill-rule="nonzero" fill-opacity="1" /><path clip-path="url(#clip940)" d="M2275.11 1517.37 Q2271.5 1517.37 2269.67 1520.93 Q2267.86 1524.47 2267.86 1531.6 Q2267.86 1538.71 2269.67 1542.27 Q2271.5 1545.82 2275.11 1545.82 Q2278.74 1545.82 2280.55 1542.27 Q2282.38 1538.71 2282.38 1531.6 Q2282.38 1524.47 2280.55 1520.93 Q2278.74 1517.37 2275.11 1517.37 M2275.11 1513.66 Q2280.92 1513.66 2283.97 1518.27 Q2287.05 1522.85 2287.05 1531.6 Q2287.05 1540.33 2283.97 1544.94 Q2280.92 1549.52 2275.11 1549.52 Q2269.3 1549.52 2266.22 1544.94 Q2263.16 1540.33 2263.16 1531.6 Q2263.16 1522.85 2266.22 1518.27 Q2269.3 1513.66 2275.11 1513.66 Z" fill="#000000" fill-rule="nonzero" fill-opacity="1" /><path clip-path="url(#clip940)" d="M2305.27 1517.37 Q2301.66 1517.37 2299.83 1520.93 Q2298.02 1524.47 2298.02 1531.6 Q2298.02 1538.71 2299.83 1542.27 Q2301.66 1545.82 2305.27 1545.82 Q2308.9 1545.82 2310.71 1542.27 Q2312.54 1538.71 2312.54 1531.6 Q2312.54 1524.47 2310.71 1520.93 Q2308.9 1517.37 2305.27 1517.37 M2305.27 1513.66 Q2311.08 1513.66 2314.14 1518.27 Q2317.21 1522.85 2317.21 1531.6 Q2317.21 1540.33 2314.14 1544.94 Q2311.08 1549.52 2305.27 1549.52 Q2299.46 1549.52 2296.38 1544.94 Q2293.33 1540.33 2293.33 1531.6 Q2293.33 1522.85 2296.38 1518.27 Q2299.46 1513.66 2305.27 1513.66 Z" fill="#000000" fill-rule="nonzero" fill-opacity="1" /><path clip-path="url(#clip940)" d="M2335.43 1517.37 Q2331.82 1517.37 2329.99 1520.93 Q2328.19 1524.47 2328.19 1531.6 Q2328.19 1538.71 2329.99 1542.27 Q2331.82 1545.82 2335.43 1545.82 Q2339.07 1545.82 2340.87 1542.27 Q2342.7 1538.71 2342.7 1531.6 Q2342.7 1524.47 2340.87 1520.93 Q2339.07 1517.37 2335.43 1517.37 M2335.43 1513.66 Q2341.24 1513.66 2344.3 1518.27 Q2347.38 1522.85 2347.38 1531.6 Q2347.38 1540.33 2344.3 1544.94 Q2341.24 1549.52 2335.43 1549.52 Q2329.62 1549.52 2326.54 1544.94 Q2323.49 1540.33 2323.49 1531.6 Q2323.49 1522.85 2326.54 1518.27 Q2329.62 1513.66 2335.43 1513.66 Z" fill="#000000" fill-rule="nonzero" fill-opacity="1" /><polyline clip-path="url(#clip940)" style="stroke:#000000; stroke-linecap:round; stroke-linejoin:round; stroke-width:4; stroke-opacity:1; fill:none" points="178.867,1486.45 178.867,847.244 "/>
<polyline clip-path="url(#clip940)" style="stroke:#000000; stroke-linecap:round; stroke-linejoin:round; stroke-width:4; stroke-opacity:1; fill:none" points="178.867,1486.45 197.764,1486.45 "/>
<polyline clip-path="url(#clip940)" style="stroke:#000000; stroke-linecap:round; stroke-linejoin:round; stroke-width:4; stroke-opacity:1; fill:none" points="178.867,1326.65 197.764,1326.65 "/>
<polyline clip-path="url(#clip940)" style="stroke:#000000; stroke-linecap:round; stroke-linejoin:round; stroke-width:4; stroke-opacity:1; fill:none" points="178.867,1166.85 197.764,1166.85 "/>
<polyline clip-path="url(#clip940)" style="stroke:#000000; stroke-linecap:round; stroke-linejoin:round; stroke-width:4; stroke-opacity:1; fill:none" points="178.867,1007.05 197.764,1007.05 "/>
<polyline clip-path="url(#clip940)" style="stroke:#000000; stroke-linecap:round; stroke-linejoin:round; stroke-width:4; stroke-opacity:1; fill:none" points="178.867,847.244 197.764,847.244 "/>
<path clip-path="url(#clip940)" d="M50.9921 1486.9 L80.6679 1486.9 L80.6679 1490.83 L50.9921 1490.83 L50.9921 1486.9 Z" fill="#000000" fill-rule="nonzero" fill-opacity="1" /><path clip-path="url(#clip940)" d="M91.5706 1499.79 L99.2095 1499.79 L99.2095 1473.43 L90.8993 1475.09 L90.8993 1470.83 L99.1632 1469.17 L103.839 1469.17 L103.839 1499.79 L111.478 1499.79 L111.478 1503.73 L91.5706 1503.73 L91.5706 1499.79 Z" fill="#000000" fill-rule="nonzero" fill-opacity="1" /><path clip-path="url(#clip940)" d="M130.922 1472.25 Q127.311 1472.25 125.482 1475.81 Q123.677 1479.35 123.677 1486.48 Q123.677 1493.59 125.482 1497.15 Q127.311 1500.7 130.922 1500.7 Q134.556 1500.7 136.362 1497.15 Q138.191 1493.59 138.191 1486.48 Q138.191 1479.35 136.362 1475.81 Q134.556 1472.25 130.922 1472.25 M130.922 1468.54 Q136.732 1468.54 139.788 1473.15 Q142.867 1477.73 142.867 1486.48 Q142.867 1495.21 139.788 1499.82 Q136.732 1504.4 130.922 1504.4 Q125.112 1504.4 122.033 1499.82 Q118.978 1495.21 118.978 1486.48 Q118.978 1477.73 122.033 1473.15 Q125.112 1468.54 130.922 1468.54 Z" fill="#000000" fill-rule="nonzero" fill-opacity="1" /><path clip-path="url(#clip940)" d="M82.1494 1327.1 L111.825 1327.1 L111.825 1331.03 L82.1494 1331.03 L82.1494 1327.1 Z" fill="#000000" fill-rule="nonzero" fill-opacity="1" /><path clip-path="url(#clip940)" d="M121.964 1309.37 L140.32 1309.37 L140.32 1313.3 L126.246 1313.3 L126.246 1321.77 Q127.265 1321.43 128.283 1321.27 Q129.302 1321.08 130.32 1321.08 Q136.107 1321.08 139.487 1324.25 Q142.867 1327.42 142.867 1332.84 Q142.867 1338.42 139.394 1341.52 Q135.922 1344.6 129.603 1344.6 Q127.427 1344.6 125.158 1344.23 Q122.913 1343.86 120.506 1343.12 L120.506 1338.42 Q122.589 1339.55 124.811 1340.11 Q127.033 1340.66 129.51 1340.66 Q133.515 1340.66 135.853 1338.56 Q138.191 1336.45 138.191 1332.84 Q138.191 1329.23 135.853 1327.12 Q133.515 1325.01 129.51 1325.01 Q127.635 1325.01 125.76 1325.43 Q123.908 1325.85 121.964 1326.73 L121.964 1309.37 Z" fill="#000000" fill-rule="nonzero" fill-opacity="1" /><path clip-path="url(#clip940)" d="M130.922 1152.64 Q127.311 1152.64 125.482 1156.21 Q123.677 1159.75 123.677 1166.88 Q123.677 1173.99 125.482 1177.55 Q127.311 1181.09 130.922 1181.09 Q134.556 1181.09 136.362 1177.55 Q138.191 1173.99 138.191 1166.88 Q138.191 1159.75 136.362 1156.21 Q134.556 1152.64 130.922 1152.64 M130.922 1148.94 Q136.732 1148.94 139.788 1153.55 Q142.867 1158.13 142.867 1166.88 Q142.867 1175.61 139.788 1180.21 Q136.732 1184.8 130.922 1184.8 Q125.112 1184.8 122.033 1180.21 Q118.978 1175.61 118.978 1166.88 Q118.978 1158.13 122.033 1153.55 Q125.112 1148.94 130.922 1148.94 Z" fill="#000000" fill-rule="nonzero" fill-opacity="1" /><path clip-path="url(#clip940)" d="M121.964 989.765 L140.32 989.765 L140.32 993.7 L126.246 993.7 L126.246 1002.17 Q127.265 1001.83 128.283 1001.66 Q129.302 1001.48 130.32 1001.48 Q136.107 1001.48 139.487 1004.65 Q142.867 1007.82 142.867 1013.24 Q142.867 1018.82 139.394 1021.92 Q135.922 1025 129.603 1025 Q127.427 1025 125.158 1024.63 Q122.913 1024.26 120.506 1023.51 L120.506 1018.82 Q122.589 1019.95 124.811 1020.51 Q127.033 1021.06 129.51 1021.06 Q133.515 1021.06 135.853 1018.95 Q138.191 1016.85 138.191 1013.24 Q138.191 1009.63 135.853 1007.52 Q133.515 1005.41 129.51 1005.41 Q127.635 1005.41 125.76 1005.83 Q123.908 1006.25 121.964 1007.13 L121.964 989.765 Z" fill="#000000" fill-rule="nonzero" fill-opacity="1" /><path clip-path="url(#clip940)" d="M91.5706 860.589 L99.2095 860.589 L99.2095 834.223 L90.8993 835.89 L90.8993 831.631 L99.1632 829.964 L103.839 829.964 L103.839 860.589 L111.478 860.589 L111.478 864.524 L91.5706 864.524 L91.5706 860.589 Z" fill="#000000" fill-rule="nonzero" fill-opacity="1" /><path clip-path="url(#clip940)" d="M130.922 833.043 Q127.311 833.043 125.482 836.608 Q123.677 840.149 123.677 847.279 Q123.677 854.385 125.482 857.95 Q127.311 861.492 130.922 861.492 Q134.556 861.492 136.362 857.95 Q138.191 854.385 138.191 847.279 Q138.191 840.149 136.362 836.608 Q134.556 833.043 130.922 833.043 M130.922 829.339 Q136.732 829.339 139.788 833.946 Q142.867 838.529 142.867 847.279 Q142.867 856.006 139.788 860.612 Q136.732 865.195 130.922 865.195 Q125.112 865.195 122.033 860.612 Q118.978 856.006 118.978 847.279 Q118.978 838.529 122.033 833.946 Q125.112 829.339 130.922 829.339 Z" fill="#000000" fill-rule="nonzero" fill-opacity="1" /><polyline clip-path="url(#clip943)" style="stroke:#009af9; stroke-linecap:round; stroke-linejoin:round; stroke-width:4; stroke-opacity:1; fill:none" points="240.392,1134.89 242.445,1179.15 244.498,1297.57 246.55,1087.19 248.603,1293.69 250.656,1108.95 252.709,1154.36 254.762,1176.14 256.815,1144.97 258.868,1172.22 260.921,1185.33 262.974,1201.09 265.027,1180.03 267.079,1167.88 269.132,1150.96 271.185,1147.85 273.238,1150.78 275.291,1177.01 277.344,1171.76 279.397,1123.36 281.45,1198.48 283.503,1175.44 285.555,1124.88 287.608,1193.1 289.661,1129.74 291.714,1176.14 293.767,1142.84 295.82,1237.86 297.873,1152.61 299.926,1244.9 301.979,1174.39 304.031,1113.5 306.084,1150.48 308.137,1157.97 310.19,1138.59 312.243,1185.14 314.296,1159.06 316.349,1189.61 318.402,1188.06 320.455,1143.43 322.507,1184.1 324.56,1130.52 326.613,1182.59 328.666,1164.25 330.719,1189.8 332.772,1198.21 334.825,1045.76 336.878,1159.95 338.931,1162.51 340.984,1141.61 343.036,1061.13 345.089,1181.01 347.142,1270.38 349.195,1296.98 351.248,1052.49 353.301,1146.36 355.354,635.404 357.407,288.451 359.46,1913 361.512,1524.79 363.565,1161.75 365.618,1171.32 367.671,1180.67 369.724,1195.94 371.777,1216.15 373.83,1231.05 375.883,1156.87 377.936,1185.76 379.988,1271.62 382.041,1085.78 384.094,1213.77 386.147,1143.1 388.2,971.603 390.253,988.112 392.306,1118.43 394.359,1091.09 396.412,857.293 398.464,1060.7 400.517,969.698 402.57,1579.28 404.623,1534.3 406.676,1715.83 408.729,1300.32 410.782,963.041 412.835,1157.35 414.888,1212.25 416.94,1132.44 418.993,1160.52 421.046,1167.68 423.099,1157.49 425.152,1161.44 427.205,1203.28 429.258,1110.33 431.311,1436.46 433.364,1460.78 435.417,1517.5 437.469,1527.93 439.522,1178.92 441.575,1148.56 443.628,1150.43 445.681,1142.09 447.734,1157.61 449.787,1191.69 451.84,1175.65 453.893,1318.9 455.945,1137.82 457.998,1150.99 460.051,1147.03 462.104,1095.19 464.157,1223.04 466.21,1193.98 468.263,1120.2 470.316,1158.12 472.369,1177.24 474.421,1272.39 476.474,1315.88 478.527,1204.27 480.58,1205.78 482.633,1100.27 484.686,1113.52 486.739,1153.88 488.792,888.05 490.845,1484.28 492.897,1252.06 494.95,1127.25 497.003,1112.95 499.056,1197.16 501.109,1204.98 503.162,1204.94 505.215,1171.65 507.268,1137.81 509.321,1171.52 511.374,1173.29 513.426,1177.45 515.479,1168.54 517.532,1214 519.585,1129.02 521.638,1148.96 523.691,1185.04 525.744,1171.84 527.797,1162.17 529.85,1168.76 531.902,1153.25 533.955,1189.49 536.008,1155.8 538.061,1244.88 540.114,1265.15 542.167,1168.52 544.22,1084.29 546.273,937.372 548.326,808.504 550.378,866.752 552.431,1404.47 554.484,1284.13 556.537,1439.7 558.59,1264.02 560.643,1066.22 562.696,1150.02 564.749,1240.73 566.802,1180.23 568.854,1156.45 570.907,1158.89 572.96,1155.72 575.013,1153.49 577.066,1192.93 579.119,1218.23 581.172,1172.37 583.225,1181.94 585.278,1191.02 587.331,1170.57 589.383,1152.16 591.436,1332.88 593.489,1248.87 595.542,1209.77 597.595,1387.24 599.648,1168.45 601.701,1163.77 603.754,1184.71 605.807,1245.75 607.859,1217.35 609.912,1155.77 611.965,1016.49 614.018,1150.99 616.071,1189.84 618.124,1188.5 620.177,1140.61 622.23,1212.54 624.283,1188.43 626.335,1261.65 628.388,1159.67 630.441,1152.85 632.494,1114.49 634.547,1186.43 636.6,1133.31 638.653,1135.79 640.706,1166.53 642.759,1167.39 644.811,1122.98 646.864,1175.98 648.917,1147.56 650.97,1141.03 653.023,1157.44 655.076,1139.35 657.129,1127.37 659.182,1107.06 661.235,1127.31 663.288,1193.38 665.34,1116.6 667.393,1235.6 669.446,1247.36 671.499,1144.37 673.552,1212.42 675.605,1199.63 677.658,1119.96 679.711,1145.65 681.764,1175.64 683.816,1166.57 685.869,1203.57 687.922,1127.88 689.975,1183.03 692.028,1194.62 694.081,1107.87 696.134,1245.11 698.187,1185.46 700.24,1171.9 702.292,1175.94 704.345,1131.82 706.398,1008.1 708.451,979.977 710.504,868.317 712.557,1414.75 714.61,1380.46 716.663,1326.77 718.716,1033.7 720.768,1215.72 722.821,1193.19 724.874,1056.49 726.927,1174.54 728.98,1129.66 731.033,1171.33 733.086,1005.9 735.139,1273.49 737.192,1133.69 739.245,1173.73 741.297,1200.94 743.35,1141 745.403,1149.59 747.456,1173.57 749.509,1158.11 751.562,1234.2 753.615,1223.12 755.668,1184.95 757.721,1141.05 759.773,1114.15 761.826,1153.86 763.879,1180.07 765.932,1119.12 767.985,1142.02 770.038,1196.82 772.091,1155.06 774.144,1189.37 776.197,1188.47 778.249,1172.89 780.302,1157.46 782.355,1088.47 784.408,1210.14 786.461,1125.11 788.514,1092.76 790.567,1283.03 792.62,1345.6 794.673,1188.51 796.725,1231.59 798.778,1247.51 800.831,1250.6 802.884,1059.46 804.937,1381.29 806.99,1138.79 809.043,1248.5 811.096,1240.29 813.149,1257.04 815.202,1256 817.254,1160.7 819.307,1173.81 821.36,1192.2 823.413,1143.66 825.466,1178.91 827.519,1163.77 829.572,1183.2 831.625,1145.3 833.678,1116.87 835.73,1117.25 837.783,1169.22 839.836,1185.03 841.889,1162.52 843.942,780.532 845.995,1094.17 848.048,956.187 850.101,1486.23 852.154,939.707 854.206,637.524 856.259,-765.089 858.312,-146.487 860.365,-1215.99 862.418,71.9958 864.471,428.047 866.524,3855.97 868.577,4898.91 870.63,690.077 872.682,208.375 874.735,-715.693 876.788,2628.68 878.841,1806.03 880.894,983.533 882.947,1139.24 885,1176.75 887.053,1302.65 889.106,1261.68 891.159,992.957 893.211,1130.49 895.264,1070.41 897.317,1011.92 899.37,1212.46 901.423,1246.03 903.476,1188.48 905.529,1026.57 907.582,1028.87 909.635,1251.16 911.687,1181.2 913.74,1156.73 915.793,1185.54 917.846,1199.35 919.899,1172.71 921.952,1135.83 924.005,1147.54 926.058,1187.24 928.111,1146.95 930.163,1055.58 932.216,1144.25 934.269,1194.23 936.322,1145.71 938.375,1157.58 940.428,1184.45 942.481,1127.09 944.534,1136.47 946.587,1160.92 948.639,1165.26 950.692,1168.54 952.745,1140.89 954.798,1112.94 956.851,1191.96 958.904,1181.31 960.957,1174.16 963.01,1130.86 965.063,1147.27 967.116,1156.1 969.168,1175.62 971.221,1144.36 973.274,1153.25 975.327,1181.05 977.38,1176.89 979.433,1155.87 981.486,1194.49 983.539,1205.66 985.592,1156.59 987.644,1139.32 989.697,1171.26 991.75,1169.78 993.803,1171.34 995.856,1174 997.909,1150.19 999.962,1120.96 1002.01,1135.84 1004.07,1189.78 1006.12,1164.74 1008.17,1141.38 1010.23,1123.42 1012.28,1253.9 1014.33,1196.38 1016.38,1238.89 1018.44,1106.56 1020.49,1079.8 1022.54,1205.01 1024.6,1065.71 1026.65,976.492 1028.7,2472.57 1030.76,2617.59 1032.81,-1959.32 1034.86,-1685.43 1036.91,-8569.05 1038.97,8433.51 1041.02,-12932.7 1043.07,-8713.69 1045.13,2108.23 1047.18,-3460.59 1049.23,5025.11 1051.28,-5597.96 1053.34,1534.4 1055.39,-122.936 1057.44,446.681 1059.5,3550.75 1061.55,1780.56 1063.6,1031.03 1065.65,1409.76 1067.71,1167.05 1069.76,1249.99 1071.81,1082.06 1073.87,1375.05 1075.92,1230.07 1077.97,1098.62 1080.02,1170.41 1082.08,1200.39 1084.13,1197.19 1086.18,1161.26 1088.24,1118.89 1090.29,1237.23 1092.34,1241.03 1094.39,1185 1096.45,1178.54 1098.5,1184.81 1100.55,1155.66 1102.61,1151.81 1104.66,1237.11 1106.71,1170.44 1108.77,1161.16 1110.82,1167.33 1112.87,1148.98 1114.92,1096.94 1116.98,1358.81 1119.03,1164.95 1121.08,1054.12 1123.14,1189.57 1125.19,1205.52 1127.24,1200.4 1129.29,1169.09 1131.35,1160.34 1133.4,1152.72 1135.45,1193.21 1137.51,1158.65 1139.56,1185.7 1141.61,1177.58 1143.66,1174.8 1145.72,1135.29 1147.77,1140.82 1149.82,1239.93 1151.88,851.039 1153.93,1729.81 1155.98,613.618 1158.03,958.137 1160.09,1510.15 1162.14,701.135 1164.19,1733.54 1166.25,1335.43 1168.3,808.039 1170.35,1061.41 1172.4,1180.59 1174.46,1134.74 1176.51,1176.06 1178.56,1168.85 1180.62,1163.87 1182.67,1156.57 1184.72,1206.22 1186.77,1180.61 1188.83,1157.03 1190.88,1158.51 1192.93,1159.26 1194.99,1186.98 1197.04,1123.75 1199.09,1452.87 1201.15,1051.59 1203.2,1258.92 1205.25,1145.39 1207.3,1224.03 1209.36,1205.93 1211.41,1149.62 1213.46,1164.84 1215.52,1168.84 1217.57,1180.05 1219.62,1182.36 1221.67,1131.67 1223.73,1172.44 1225.78,1134.94 1227.83,1162.26 1229.89,1156.01 1231.94,1210.91 1233.99,1178.19 1236.04,1196.63 1238.1,1138.67 1240.15,1192.67 1242.2,1145.98 1244.26,1132.42 1246.31,1036.43 1248.36,1248.49 1250.41,1164.76 1252.47,1154.98 1254.52,1152.46 1256.57,1156.8 1258.63,1144.53 1260.68,1164.21 1262.73,1121.16 1264.78,1124.09 1266.84,1154.37 1268.89,1183.95 1270.94,1152.12 1273,1192.13 1275.05,1135.52 1277.1,1144.09 1279.16,1176.93 1281.21,1183.58 1283.26,1175.6 1285.31,1197.29 1287.37,1153.43 1289.42,1158.92 1291.47,1169.27 1293.53,1164.23 1295.58,1163.53 1297.63,1240.24 1299.68,1150.87 1301.74,1098.44 1303.79,1081.43 1305.84,1249.06 1307.9,1172.19 1309.95,1139.33 1312,1131.77 1314.05,1143.85 1316.11,1169.7 1318.16,1149.06 1320.21,1198.66 1322.27,1204.13 1324.32,1193.53 1326.37,1180.72 1328.42,1176.26 1330.48,1167.05 1332.53,1173.33 1334.58,1163.71 1336.64,1165.66 1338.69,1192.57 1340.74,1189.01 1342.79,1129.14 1344.85,1190.88 1346.9,1386.59 1348.95,967.746 1351.01,687.56 1353.06,894.814 1355.11,1817.42 1357.16,1181.67 1359.22,1098.03 1361.27,1248.53 1363.32,1139.74 1365.38,1185.11 1367.43,1184.32 1369.48,1162.36 1371.54,1169.46 1373.59,1148.08 1375.64,1148.4 1377.69,1166.75 1379.75,1122.7 1381.8,1237.9 1383.85,905.937 1385.91,1556.81 1387.96,885.858 1390.01,1207.75 1392.06,1292.04 1394.12,1065.52 1396.17,1245.25 1398.22,621.273 1400.28,-1313.41 1402.33,4070.76 1404.38,740.615 1406.43,1418.58 1408.49,559.857 1410.54,1274.1 1412.59,1146.15 1414.65,1073.77 1416.7,1135.46 1418.75,1181.44 1420.8,1111.83 1422.86,1130.7 1424.91,1169.33 1426.96,1475.39 1429.02,1849.33 1431.07,904.978 1433.12,744.951 1435.17,898.601 1437.23,1398.56 1439.28,1108.49 1441.33,1304.76 1443.39,2639.89 1445.44,2493.37 1447.49,1582.48 1449.55,1362.2 1451.6,1024.78 1453.65,1314.96 1455.7,1969.07 1457.76,1771.99 1459.81,1497.62 1461.86,1074.12 1463.92,1128.28 1465.97,1214.19 1468.02,1165.86 1470.07,1225.43 1472.13,1190.2 1474.18,1183.14 1476.23,1167.68 1478.29,1160.45 1480.34,1175.67 1482.39,1168.91 1484.44,1161.17 1486.5,1145.97 1488.55,1209.14 1490.6,1116.89 1492.66,1124.01 1494.71,1216.03 1496.76,1104.68 1498.81,1143.9 1500.87,1188.77 1502.92,1169.01 1504.97,1161.45 1507.03,1242.18 1509.08,1227.71 1511.13,1150.86 1513.18,1206.73 1515.24,1142.87 1517.29,1152.69 1519.34,1176.77 1521.4,1177.24 1523.45,1174.68 1525.5,1204.47 1527.55,1145.92 1529.61,1171.08 1531.66,1100.8 1533.71,1199.22 1535.77,1164 1537.82,1152.6 1539.87,1176.28 1541.93,1160.53 1543.98,1181.29 1546.03,1176.12 1548.08,1164.85 1550.14,1191.41 1552.19,1179.66 1554.24,1209.05 1556.3,1166.73 1558.35,986.443 1560.4,1292.37 1562.45,1194.04 1564.51,1225.32 1566.56,1110.67 1568.61,1146.62 1570.67,1189.11 1572.72,1160.17 1574.77,1171.56 1576.82,1172.38 1578.88,1160.22 1580.93,1170.86 1582.98,1174.78 1585.04,1154.36 1587.09,1180.86 1589.14,1188.55 1591.19,1159.44 1593.25,1206.05 1595.3,1118.45 1597.35,1112.11 1599.41,1102.87 1601.46,1173.68 1603.51,1171.75 1605.56,1202.71 1607.62,1066.3 1609.67,899.697 1611.72,1413.92 1613.78,1366.13 1615.83,1183.79 1617.88,1156.59 1619.94,1049.22 1621.99,1084.09 1624.04,1189.53 1626.09,1173.42 1628.15,1151.29 1630.2,1130.22 1632.25,1232.58 1634.31,1204.89 1636.36,1191.89 1638.41,1149.26 1640.46,1124.89 1642.52,1106.74 1644.57,1184.62 1646.62,1196.64 1648.68,1120.32 1650.73,1172.3 1652.78,1108.72 1654.83,1122.67 1656.89,1199.32 1658.94,1192.11 1660.99,1199.26 1663.05,1135.02 1665.1,1153.6 1667.15,1127.08 1669.2,1176.03 1671.26,1175.77 1673.31,1153.69 1675.36,1128.2 1677.42,1171.3 1679.47,1170.34 1681.52,1206.14 1683.57,1203.85 1685.63,1153.58 1687.68,1219.1 1689.73,1158.31 1691.79,1151.84 1693.84,1184.33 1695.89,1164.85 1697.94,1147.93 1700,1179.39 1702.05,1165.37 1704.1,1171.33 1706.16,1158.93 1708.21,1087.42 1710.26,1212.45 1712.32,1054.72 1714.37,1189.96 1716.42,1355.34 1718.47,1052.02 1720.53,1113.84 1722.58,1075.16 1724.63,1244.37 1726.69,1119.49 1728.74,1139.75 1730.79,1181.51 1732.84,1191.84 1734.9,1136.36 1736.95,1195.7 1739,1235.67 1741.06,1186.67 1743.11,1163.96 1745.16,1175.93 1747.21,1163.65 1749.27,1174.02 1751.32,1110.85 1753.37,1162.73 1755.43,1189.73 1757.48,1147.96 1759.53,1171.75 1761.58,1182.3 1763.64,1047.75 1765.69,1098.99 1767.74,1142.32 1769.8,1242.25 1771.85,1222.06 1773.9,1137.37 1775.95,1115.91 1778.01,1070.37 1780.06,1156.16 1782.11,1100.52 1784.17,1207.37 1786.22,1170.88 1788.27,1171.22 1790.33,1401.53 1792.38,1125.98 1794.43,1212.76 1796.48,1197.01 1798.54,1146.17 1800.59,1154.9 1802.64,1209.05 1804.7,1117.88 1806.75,1132.12 1808.8,1107.83 1810.85,1148.93 1812.91,1233.1 1814.96,1190.69 1817.01,1197.25 1819.07,1200.29 1821.12,1156.92 1823.17,1193.56 1825.22,1181.82 1827.28,1192.38 1829.33,1181.21 1831.38,1149.01 1833.44,1208.79 1835.49,1150.05 1837.54,1166.01 1839.59,1127.45 1841.65,1389.86 1843.7,677.345 1845.75,1120.81 1847.81,1125.39 1849.86,1141.87 1851.91,1179.71 1853.96,1075.35 1856.02,1259.05 1858.07,1199.39 1860.12,1161.85 1862.18,1067.02 1864.23,1239.75 1866.28,1105.15 1868.34,1273.08 1870.39,1149.06 1872.44,1179.96 1874.49,1127.34 1876.55,1183.72 1878.6,1160.24 1880.65,1250.96 1882.71,1166.52 1884.76,1307.89 1886.81,1105.04 1888.86,1140.19 1890.92,1129.83 1892.97,1151.5 1895.02,1176.08 1897.08,1156.27 1899.13,1167.69 1901.18,1163.96 1903.23,1126.73 1905.29,1043.29 1907.34,1426.39 1909.39,1236.44 1911.45,1229.29 1913.5,1075.19 1915.55,1062.19 1917.6,1135.94 1919.66,1178.46 1921.71,1266.16 1923.76,1108.15 1925.82,1208.07 1927.87,1185.67 1929.92,1183.54 1931.97,1152.07 1934.03,1175.23 1936.08,1234.85 1938.13,1140.36 1940.19,1189.3 1942.24,1175.73 1944.29,954.651 1946.34,1126.11 1948.4,1177.37 1950.45,1126.44 1952.5,1261.25 1954.56,1207.51 1956.61,1184.97 1958.66,1125.46 1960.72,1128.57 1962.77,1188.45 1964.82,1232.45 1966.87,1253.12 1968.93,1038.22 1970.98,1206.59 1973.03,1216.39 1975.09,1163.44 1977.14,1160.6 1979.19,1166.33 1981.24,1156.4 1983.3,1174.87 1985.35,1136.54 1987.4,1199.92 1989.46,1166.64 1991.51,1169.85 1993.56,1218.17 1995.61,1207.82 1997.67,1179.69 1999.72,1120.62 2001.77,1078.71 2003.83,1306.13 2005.88,2875.15 2007.93,4389.16 2009.98,1132.55 2012.04,1063.98 2014.09,1078.56 2016.14,1079.33 2018.2,1148.78 2020.25,1154.4 2022.3,1123.69 2024.35,1158.91 2026.41,1082.97 2028.46,1087.08 2030.51,1175.36 2032.57,1188.76 2034.62,1151.46 2036.67,1161.37 2038.73,1148.64 2040.78,1158.37 2042.83,1203.26 2044.88,1159.04 2046.94,1191.09 2048.99,1152.52 2051.04,1156.58 2053.1,1182.72 2055.15,1141.24 2057.2,1169.37 2059.25,1147.25 2061.31,1151.27 2063.36,1147.44 2065.41,1155.66 2067.47,1154.44 2069.52,1180.68 2071.57,1169.09 2073.62,1166.28 2075.68,1167.53 2077.73,1151.89 2079.78,1203.55 2081.84,1150.71 2083.89,1156.57 2085.94,1173.92 2087.99,1198.62 2090.05,1099.81 2092.1,1179.55 2094.15,1135.87 2096.21,1127.7 2098.26,1103.98 2100.31,1102.48 2102.36,1151.17 2104.42,1220.31 2106.47,1173.47 2108.52,1122.86 2110.58,1160.7 2112.63,1167.75 2114.68,1194.44 2116.73,1191.08 2118.79,993.817 2120.84,1186.07 2122.89,1280.31 2124.95,1165.84 2127,1149.35 2129.05,1205.27 2131.11,1059.41 2133.16,1144.55 2135.21,1168.14 2137.26,1170.62 2139.32,1228.58 2141.37,1065.46 2143.42,1184.18 2145.48,1209.85 2147.53,1261.1 2149.58,1184.57 2151.63,1265.53 2153.69,1117.79 2155.74,1150.16 2157.79,1158.96 2159.85,1159.74 2161.9,1173.25 2163.95,1278.19 2166,1212.02 2168.06,1123.85 2170.11,1146.14 2172.16,1162.52 2174.22,1188.21 2176.27,1162.22 2178.32,1185.3 2180.37,945.873 2182.43,1282.02 2184.48,1167.5 2186.53,1177.32 2188.59,1166.99 2190.64,1214.42 2192.69,1109.68 2194.74,1179.7 2196.8,1092.82 2198.85,1216.15 2200.9,1144.43 2202.96,1203.02 2205.01,1121.52 2207.06,1091.63 2209.12,1212.26 2211.17,1179.42 2213.22,1065.5 2215.27,1430.03 2217.33,1096.81 2219.38,1154.31 2221.43,1244.58 2223.49,1165.3 2225.54,1183.4 2227.59,1187 2229.64,1140.62 2231.7,1127.35 2233.75,1035.09 2235.8,1227.95 2237.86,1036.55 2239.91,1197.58 2241.96,1196.07 2244.01,1154.3 2246.07,1217.73 2248.12,1215.34 2250.17,1210.15 2252.23,1114.63 2254.28,1637.84 2256.33,1066.67 2258.38,1164.66 2260.44,1096.82 2262.49,1269.81 2264.54,1353.63 2266.6,961.67 2268.65,761.699 2270.7,1481.7 2272.75,987.281 2274.81,1184.59 2276.86,1157.44 2278.91,1179.55 2280.97,1170.81 2283.02,1095.43 2285.07,1102.36 2287.12,1130.75 2289.18,1226.21 2291.23,1139.33 "/>
<path clip-path="url(#clip940)" d="M1942.7 972.231 L2280.29 972.231 L2280.29 868.551 L1942.7 868.551  Z" fill="#ffffff" fill-rule="evenodd" fill-opacity="1"/>
<polyline clip-path="url(#clip940)" style="stroke:#000000; stroke-linecap:round; stroke-linejoin:round; stroke-width:4; stroke-opacity:1; fill:none" points="1942.7,972.231 2280.29,972.231 2280.29,868.551 1942.7,868.551 1942.7,972.231 "/>
<polyline clip-path="url(#clip940)" style="stroke:#009af9; stroke-linecap:round; stroke-linejoin:round; stroke-width:4; stroke-opacity:1; fill:none" points="1966.85,920.391 2111.78,920.391 "/>
<path clip-path="url(#clip940)" d="M2161.49 932.74 L2161.49 923.458 L2153.85 923.458 L2153.85 919.615 L2166.12 919.615 L2166.12 934.453 Q2163.41 936.375 2160.14 937.37 Q2156.88 938.342 2153.18 938.342 Q2145.07 938.342 2140.49 933.62 Q2135.93 928.875 2135.93 920.426 Q2135.93 911.953 2140.49 907.231 Q2145.07 902.486 2153.18 902.486 Q2156.56 902.486 2159.59 903.319 Q2162.64 904.153 2165.21 905.773 L2165.21 910.75 Q2162.62 908.551 2159.7 907.44 Q2156.79 906.328 2153.57 906.328 Q2147.23 906.328 2144.03 909.87 Q2140.86 913.412 2140.86 920.426 Q2140.86 927.416 2144.03 930.958 Q2147.23 934.5 2153.57 934.5 Q2156.05 934.5 2157.99 934.083 Q2159.94 933.643 2161.49 932.74 Z" fill="#000000" fill-rule="nonzero" fill-opacity="1" /><path clip-path="url(#clip940)" d="M2179.33 906.953 L2179.33 919.94 L2185.21 919.94 Q2188.48 919.94 2190.26 918.25 Q2192.04 916.56 2192.04 913.435 Q2192.04 910.333 2190.26 908.643 Q2188.48 906.953 2185.21 906.953 L2179.33 906.953 M2174.66 903.111 L2185.21 903.111 Q2191.02 903.111 2193.99 905.75 Q2196.97 908.365 2196.97 913.435 Q2196.97 918.551 2193.99 921.166 Q2191.02 923.782 2185.21 923.782 L2179.33 923.782 L2179.33 937.671 L2174.66 937.671 L2174.66 903.111 Z" fill="#000000" fill-rule="nonzero" fill-opacity="1" /><path clip-path="url(#clip940)" d="M2223.96 904.245 L2223.96 908.805 Q2221.3 907.532 2218.94 906.907 Q2216.58 906.282 2214.38 906.282 Q2210.56 906.282 2208.48 907.764 Q2206.42 909.245 2206.42 911.977 Q2206.42 914.268 2207.78 915.449 Q2209.17 916.606 2213.01 917.324 L2215.84 917.902 Q2221.07 918.898 2223.55 921.421 Q2226.05 923.921 2226.05 928.134 Q2226.05 933.157 2222.67 935.75 Q2219.31 938.342 2212.81 938.342 Q2210.35 938.342 2207.57 937.787 Q2204.82 937.231 2201.86 936.143 L2201.86 931.328 Q2204.7 932.926 2207.44 933.736 Q2210.17 934.546 2212.81 934.546 Q2216.81 934.546 2218.99 932.972 Q2221.16 931.398 2221.16 928.481 Q2221.16 925.935 2219.59 924.5 Q2218.04 923.064 2214.47 922.347 L2211.62 921.791 Q2206.39 920.75 2204.06 918.527 Q2201.72 916.305 2201.72 912.347 Q2201.72 907.764 2204.94 905.125 Q2208.18 902.486 2213.85 902.486 Q2216.28 902.486 2218.8 902.926 Q2221.32 903.366 2223.96 904.245 Z" fill="#000000" fill-rule="nonzero" fill-opacity="1" /><path clip-path="url(#clip940)" d="M2254.06 904.245 L2254.06 908.805 Q2251.39 907.532 2249.03 906.907 Q2246.67 906.282 2244.47 906.282 Q2240.65 906.282 2238.57 907.764 Q2236.51 909.245 2236.51 911.977 Q2236.51 914.268 2237.87 915.449 Q2239.26 916.606 2243.11 917.324 L2245.93 917.902 Q2251.16 918.898 2253.64 921.421 Q2256.14 923.921 2256.14 928.134 Q2256.14 933.157 2252.76 935.75 Q2249.4 938.342 2242.9 938.342 Q2240.44 938.342 2237.67 937.787 Q2234.91 937.231 2231.95 936.143 L2231.95 931.328 Q2234.8 932.926 2237.53 933.736 Q2240.26 934.546 2242.9 934.546 Q2246.9 934.546 2249.08 932.972 Q2251.25 931.398 2251.25 928.481 Q2251.25 925.935 2249.68 924.5 Q2248.13 923.064 2244.56 922.347 L2241.72 921.791 Q2236.49 920.75 2234.15 918.527 Q2231.81 916.305 2231.81 912.347 Q2231.81 907.764 2235.03 905.125 Q2238.27 902.486 2243.94 902.486 Q2246.37 902.486 2248.89 902.926 Q2251.42 903.366 2254.06 904.245 Z" fill="#000000" fill-rule="nonzero" fill-opacity="1" /></svg>
