<?xml version="1.0" encoding="utf-8"?>
<svg xmlns="http://www.w3.org/2000/svg" xmlns:xlink="http://www.w3.org/1999/xlink" width="600" height="400" viewBox="0 0 2400 1600">
<defs>
  <clipPath id="clip030">
    <rect x="0" y="0" width="2400" height="1600"/>
  </clipPath>
</defs>
<path clip-path="url(#clip030)" d="M0 1600 L2400 1600 L2400 0 L0 0  Z" fill="#ffffff" fill-rule="evenodd" fill-opacity="1"/>
<defs>
  <clipPath id="clip031">
    <rect x="480" y="0" width="1681" height="1600"/>
  </clipPath>
</defs>
<path clip-path="url(#clip030)" d="M178.867 686.448 L2352.76 686.448 L2352.76 47.2441 L178.867 47.2441  Z" fill="#ffffff" fill-rule="evenodd" fill-opacity="1"/>
<defs>
  <clipPath id="clip032">
    <rect x="178" y="47" width="2175" height="640"/>
  </clipPath>
</defs>
<polyline clip-path="url(#clip032)" style="stroke:#000000; stroke-linecap:round; stroke-linejoin:round; stroke-width:2; stroke-opacity:0.1; fill:none" points="238.339,686.448 238.339,47.2441 "/>
<polyline clip-path="url(#clip032)" style="stroke:#000000; stroke-linecap:round; stroke-linejoin:round; stroke-width:2; stroke-opacity:0.1; fill:none" points="751.562,686.448 751.562,47.2441 "/>
<polyline clip-path="url(#clip032)" style="stroke:#000000; stroke-linecap:round; stroke-linejoin:round; stroke-width:2; stroke-opacity:0.1; fill:none" points="1264.78,686.448 1264.78,47.2441 "/>
<polyline clip-path="url(#clip032)" style="stroke:#000000; stroke-linecap:round; stroke-linejoin:round; stroke-width:2; stroke-opacity:0.1; fill:none" points="1778.01,686.448 1778.01,47.2441 "/>
<polyline clip-path="url(#clip032)" style="stroke:#000000; stroke-linecap:round; stroke-linejoin:round; stroke-width:2; stroke-opacity:0.1; fill:none" points="2291.23,686.448 2291.23,47.2441 "/>
<polyline clip-path="url(#clip032)" style="stroke:#000000; stroke-linecap:round; stroke-linejoin:round; stroke-width:2; stroke-opacity:0.1; fill:none" points="178.867,686.448 2352.76,686.448 "/>
<polyline clip-path="url(#clip032)" style="stroke:#000000; stroke-linecap:round; stroke-linejoin:round; stroke-width:2; stroke-opacity:0.1; fill:none" points="178.867,526.647 2352.76,526.647 "/>
<polyline clip-path="url(#clip032)" style="stroke:#000000; stroke-linecap:round; stroke-linejoin:round; stroke-width:2; stroke-opacity:0.1; fill:none" points="178.867,366.846 2352.76,366.846 "/>
<polyline clip-path="url(#clip032)" style="stroke:#000000; stroke-linecap:round; stroke-linejoin:round; stroke-width:2; stroke-opacity:0.1; fill:none" points="178.867,207.045 2352.76,207.045 "/>
<polyline clip-path="url(#clip032)" style="stroke:#000000; stroke-linecap:round; stroke-linejoin:round; stroke-width:2; stroke-opacity:0.1; fill:none" points="178.867,47.2441 2352.76,47.2441 "/>
<polyline clip-path="url(#clip030)" style="stroke:#000000; stroke-linecap:round; stroke-linejoin:round; stroke-width:4; stroke-opacity:1; fill:none" points="178.867,686.448 2352.76,686.448 "/>
<polyline clip-path="url(#clip030)" style="stroke:#000000; stroke-linecap:round; stroke-linejoin:round; stroke-width:4; stroke-opacity:1; fill:none" points="238.339,686.448 238.339,667.55 "/>
<polyline clip-path="url(#clip030)" style="stroke:#000000; stroke-linecap:round; stroke-linejoin:round; stroke-width:4; stroke-opacity:1; fill:none" points="751.562,686.448 751.562,667.55 "/>
<polyline clip-path="url(#clip030)" style="stroke:#000000; stroke-linecap:round; stroke-linejoin:round; stroke-width:4; stroke-opacity:1; fill:none" points="1264.78,686.448 1264.78,667.55 "/>
<polyline clip-path="url(#clip030)" style="stroke:#000000; stroke-linecap:round; stroke-linejoin:round; stroke-width:4; stroke-opacity:1; fill:none" points="1778.01,686.448 1778.01,667.55 "/>
<polyline clip-path="url(#clip030)" style="stroke:#000000; stroke-linecap:round; stroke-linejoin:round; stroke-width:4; stroke-opacity:1; fill:none" points="2291.23,686.448 2291.23,667.55 "/>
<path clip-path="url(#clip030)" d="M238.339 717.367 Q234.728 717.367 232.899 720.931 Q231.094 724.473 231.094 731.603 Q231.094 738.709 232.899 742.274 Q234.728 745.815 238.339 745.815 Q241.973 745.815 243.779 742.274 Q245.607 738.709 245.607 731.603 Q245.607 724.473 243.779 720.931 Q241.973 717.367 238.339 717.367 M238.339 713.663 Q244.149 713.663 247.205 718.269 Q250.283 722.853 250.283 731.603 Q250.283 740.329 247.205 744.936 Q244.149 749.519 238.339 749.519 Q232.529 749.519 229.45 744.936 Q226.395 740.329 226.395 731.603 Q226.395 722.853 229.45 718.269 Q232.529 713.663 238.339 713.663 Z" fill="#000000" fill-rule="nonzero" fill-opacity="1" /><path clip-path="url(#clip030)" d="M715.254 744.913 L731.574 744.913 L731.574 748.848 L709.629 748.848 L709.629 744.913 Q712.291 742.158 716.875 737.528 Q721.481 732.876 722.662 731.533 Q724.907 729.01 725.787 727.274 Q726.689 725.515 726.689 723.825 Q726.689 721.07 724.745 719.334 Q722.824 717.598 719.722 717.598 Q717.523 717.598 715.069 718.362 Q712.638 719.126 709.861 720.677 L709.861 715.955 Q712.685 714.82 715.138 714.242 Q717.592 713.663 719.629 713.663 Q725 713.663 728.194 716.348 Q731.388 719.033 731.388 723.524 Q731.388 725.654 730.578 727.575 Q729.791 729.473 727.685 732.066 Q727.106 732.737 724.004 735.954 Q720.902 739.149 715.254 744.913 Z" fill="#000000" fill-rule="nonzero" fill-opacity="1" /><path clip-path="url(#clip030)" d="M741.435 714.288 L759.791 714.288 L759.791 718.223 L745.717 718.223 L745.717 726.695 Q746.736 726.348 747.754 726.186 Q748.773 726.001 749.791 726.001 Q755.578 726.001 758.958 729.172 Q762.337 732.343 762.337 737.76 Q762.337 743.339 758.865 746.44 Q755.393 749.519 749.073 749.519 Q746.898 749.519 744.629 749.149 Q742.384 748.778 739.976 748.038 L739.976 743.339 Q742.06 744.473 744.282 745.028 Q746.504 745.584 748.981 745.584 Q752.985 745.584 755.323 743.478 Q757.661 741.371 757.661 737.76 Q757.661 734.149 755.323 732.042 Q752.985 729.936 748.981 729.936 Q747.106 729.936 745.231 730.353 Q743.379 730.769 741.435 731.649 L741.435 714.288 Z" fill="#000000" fill-rule="nonzero" fill-opacity="1" /><path clip-path="url(#clip030)" d="M781.55 717.367 Q777.939 717.367 776.11 720.931 Q774.305 724.473 774.305 731.603 Q774.305 738.709 776.11 742.274 Q777.939 745.815 781.55 745.815 Q785.184 745.815 786.99 742.274 Q788.819 738.709 788.819 731.603 Q788.819 724.473 786.99 720.931 Q785.184 717.367 781.55 717.367 M781.55 713.663 Q787.36 713.663 790.416 718.269 Q793.495 722.853 793.495 731.603 Q793.495 740.329 790.416 744.936 Q787.36 749.519 781.55 749.519 Q775.74 749.519 772.661 744.936 Q769.606 740.329 769.606 731.603 Q769.606 722.853 772.661 718.269 Q775.74 713.663 781.55 713.663 Z" fill="#000000" fill-rule="nonzero" fill-opacity="1" /><path clip-path="url(#clip030)" d="M1224.4 714.288 L1242.76 714.288 L1242.76 718.223 L1228.69 718.223 L1228.69 726.695 Q1229.7 726.348 1230.72 726.186 Q1231.74 726.001 1232.76 726.001 Q1238.55 726.001 1241.93 729.172 Q1245.31 732.343 1245.31 737.76 Q1245.31 743.339 1241.83 746.44 Q1238.36 749.519 1232.04 749.519 Q1229.87 749.519 1227.6 749.149 Q1225.35 748.778 1222.94 748.038 L1222.94 743.339 Q1225.03 744.473 1227.25 745.028 Q1229.47 745.584 1231.95 745.584 Q1235.95 745.584 1238.29 743.478 Q1240.63 741.371 1240.63 737.76 Q1240.63 734.149 1238.29 732.042 Q1235.95 729.936 1231.95 729.936 Q1230.07 729.936 1228.2 730.353 Q1226.35 730.769 1224.4 731.649 L1224.4 714.288 Z" fill="#000000" fill-rule="nonzero" fill-opacity="1" /><path clip-path="url(#clip030)" d="M1264.52 717.367 Q1260.91 717.367 1259.08 720.931 Q1257.27 724.473 1257.27 731.603 Q1257.27 738.709 1259.08 742.274 Q1260.91 745.815 1264.52 745.815 Q1268.15 745.815 1269.96 742.274 Q1271.79 738.709 1271.79 731.603 Q1271.79 724.473 1269.96 720.931 Q1268.15 717.367 1264.52 717.367 M1264.52 713.663 Q1270.33 713.663 1273.38 718.269 Q1276.46 722.853 1276.46 731.603 Q1276.46 740.329 1273.38 744.936 Q1270.33 749.519 1264.52 749.519 Q1258.71 749.519 1255.63 744.936 Q1252.57 740.329 1252.57 731.603 Q1252.57 722.853 1255.63 718.269 Q1258.71 713.663 1264.52 713.663 Z" fill="#000000" fill-rule="nonzero" fill-opacity="1" /><path clip-path="url(#clip030)" d="M1294.68 717.367 Q1291.07 717.367 1289.24 720.931 Q1287.44 724.473 1287.44 731.603 Q1287.44 738.709 1289.24 742.274 Q1291.07 745.815 1294.68 745.815 Q1298.31 745.815 1300.12 742.274 Q1301.95 738.709 1301.95 731.603 Q1301.95 724.473 1300.12 720.931 Q1298.31 717.367 1294.68 717.367 M1294.68 713.663 Q1300.49 713.663 1303.55 718.269 Q1306.62 722.853 1306.62 731.603 Q1306.62 740.329 1303.55 744.936 Q1300.49 749.519 1294.68 749.519 Q1288.87 749.519 1285.79 744.936 Q1282.74 740.329 1282.74 731.603 Q1282.74 722.853 1285.79 718.269 Q1288.87 713.663 1294.68 713.663 Z" fill="#000000" fill-rule="nonzero" fill-opacity="1" /><path clip-path="url(#clip030)" d="M1736.28 714.288 L1758.51 714.288 L1758.51 716.279 L1745.96 748.848 L1741.08 748.848 L1752.88 718.223 L1736.28 718.223 L1736.28 714.288 Z" fill="#000000" fill-rule="nonzero" fill-opacity="1" /><path clip-path="url(#clip030)" d="M1767.67 714.288 L1786.03 714.288 L1786.03 718.223 L1771.95 718.223 L1771.95 726.695 Q1772.97 726.348 1773.99 726.186 Q1775.01 726.001 1776.03 726.001 Q1781.82 726.001 1785.2 729.172 Q1788.57 732.343 1788.57 737.76 Q1788.57 743.339 1785.1 746.44 Q1781.63 749.519 1775.31 749.519 Q1773.14 749.519 1770.87 749.149 Q1768.62 748.778 1766.21 748.038 L1766.21 743.339 Q1768.3 744.473 1770.52 745.028 Q1772.74 745.584 1775.22 745.584 Q1779.22 745.584 1781.56 743.478 Q1783.9 741.371 1783.9 737.76 Q1783.9 734.149 1781.56 732.042 Q1779.22 729.936 1775.22 729.936 Q1773.34 729.936 1771.47 730.353 Q1769.62 730.769 1767.67 731.649 L1767.67 714.288 Z" fill="#000000" fill-rule="nonzero" fill-opacity="1" /><path clip-path="url(#clip030)" d="M1807.79 717.367 Q1804.18 717.367 1802.35 720.931 Q1800.54 724.473 1800.54 731.603 Q1800.54 738.709 1802.35 742.274 Q1804.18 745.815 1807.79 745.815 Q1811.42 745.815 1813.23 742.274 Q1815.06 738.709 1815.06 731.603 Q1815.06 724.473 1813.23 720.931 Q1811.42 717.367 1807.79 717.367 M1807.79 713.663 Q1813.6 713.663 1816.65 718.269 Q1819.73 722.853 1819.73 731.603 Q1819.73 740.329 1816.65 744.936 Q1813.6 749.519 1807.79 749.519 Q1801.98 749.519 1798.9 744.936 Q1795.84 740.329 1795.84 731.603 Q1795.84 722.853 1798.9 718.269 Q1801.98 713.663 1807.79 713.663 Z" fill="#000000" fill-rule="nonzero" fill-opacity="1" /><path clip-path="url(#clip030)" d="M2235.76 744.913 L2243.4 744.913 L2243.4 718.547 L2235.09 720.214 L2235.09 715.955 L2243.35 714.288 L2248.02 714.288 L2248.02 744.913 L2255.66 744.913 L2255.66 748.848 L2235.76 748.848 L2235.76 744.913 Z" fill="#000000" fill-rule="nonzero" fill-opacity="1" /><path clip-path="url(#clip030)" d="M2275.11 717.367 Q2271.5 717.367 2269.67 720.931 Q2267.86 724.473 2267.86 731.603 Q2267.86 738.709 2269.67 742.274 Q2271.5 745.815 2275.11 745.815 Q2278.74 745.815 2280.55 742.274 Q2282.38 738.709 2282.38 731.603 Q2282.38 724.473 2280.55 720.931 Q2278.74 717.367 2275.11 717.367 M2275.11 713.663 Q2280.92 713.663 2283.97 718.269 Q2287.05 722.853 2287.05 731.603 Q2287.05 740.329 2283.97 744.936 Q2280.92 749.519 2275.11 749.519 Q2269.3 749.519 2266.22 744.936 Q2263.16 740.329 2263.16 731.603 Q2263.16 722.853 2266.22 718.269 Q2269.3 713.663 2275.11 713.663 Z" fill="#000000" fill-rule="nonzero" fill-opacity="1" /><path clip-path="url(#clip030)" d="M2305.27 717.367 Q2301.66 717.367 2299.83 720.931 Q2298.02 724.473 2298.02 731.603 Q2298.02 738.709 2299.83 742.274 Q2301.66 745.815 2305.27 745.815 Q2308.9 745.815 2310.71 742.274 Q2312.54 738.709 2312.54 731.603 Q2312.54 724.473 2310.71 720.931 Q2308.9 717.367 2305.27 717.367 M2305.27 713.663 Q2311.08 713.663 2314.14 718.269 Q2317.21 722.853 2317.21 731.603 Q2317.21 740.329 2314.14 744.936 Q2311.08 749.519 2305.27 749.519 Q2299.46 749.519 2296.38 744.936 Q2293.33 740.329 2293.33 731.603 Q2293.33 722.853 2296.38 718.269 Q2299.46 713.663 2305.27 713.663 Z" fill="#000000" fill-rule="nonzero" fill-opacity="1" /><path clip-path="url(#clip030)" d="M2335.43 717.367 Q2331.82 717.367 2329.99 720.931 Q2328.19 724.473 2328.19 731.603 Q2328.19 738.709 2329.99 742.274 Q2331.82 745.815 2335.43 745.815 Q2339.07 745.815 2340.87 742.274 Q2342.7 738.709 2342.7 731.603 Q2342.7 724.473 2340.87 720.931 Q2339.07 717.367 2335.43 717.367 M2335.43 713.663 Q2341.24 713.663 2344.3 718.269 Q2347.38 722.853 2347.38 731.603 Q2347.38 740.329 2344.3 744.936 Q2341.24 749.519 2335.43 749.519 Q2329.62 749.519 2326.54 744.936 Q2323.49 740.329 2323.49 731.603 Q2323.49 722.853 2326.54 718.269 Q2329.62 713.663 2335.43 713.663 Z" fill="#000000" fill-rule="nonzero" fill-opacity="1" /><polyline clip-path="url(#clip030)" style="stroke:#000000; stroke-linecap:round; stroke-linejoin:round; stroke-width:4; stroke-opacity:1; fill:none" points="178.867,686.448 178.867,47.2441 "/>
<polyline clip-path="url(#clip030)" style="stroke:#000000; stroke-linecap:round; stroke-linejoin:round; stroke-width:4; stroke-opacity:1; fill:none" points="178.867,686.448 197.764,686.448 "/>
<polyline clip-path="url(#clip030)" style="stroke:#000000; stroke-linecap:round; stroke-linejoin:round; stroke-width:4; stroke-opacity:1; fill:none" points="178.867,526.647 197.764,526.647 "/>
<polyline clip-path="url(#clip030)" style="stroke:#000000; stroke-linecap:round; stroke-linejoin:round; stroke-width:4; stroke-opacity:1; fill:none" points="178.867,366.846 197.764,366.846 "/>
<polyline clip-path="url(#clip030)" style="stroke:#000000; stroke-linecap:round; stroke-linejoin:round; stroke-width:4; stroke-opacity:1; fill:none" points="178.867,207.045 197.764,207.045 "/>
<polyline clip-path="url(#clip030)" style="stroke:#000000; stroke-linecap:round; stroke-linejoin:round; stroke-width:4; stroke-opacity:1; fill:none" points="178.867,47.2441 197.764,47.2441 "/>
<path clip-path="url(#clip030)" d="M50.9921 686.899 L80.6679 686.899 L80.6679 690.834 L50.9921 690.834 L50.9921 686.899 Z" fill="#000000" fill-rule="nonzero" fill-opacity="1" /><path clip-path="url(#clip030)" d="M91.5706 699.793 L99.2095 699.793 L99.2095 673.427 L90.8993 675.094 L90.8993 670.835 L99.1632 669.168 L103.839 669.168 L103.839 699.793 L111.478 699.793 L111.478 703.728 L91.5706 703.728 L91.5706 699.793 Z" fill="#000000" fill-rule="nonzero" fill-opacity="1" /><path clip-path="url(#clip030)" d="M130.922 672.247 Q127.311 672.247 125.482 675.811 Q123.677 679.353 123.677 686.483 Q123.677 693.589 125.482 697.154 Q127.311 700.695 130.922 700.695 Q134.556 700.695 136.362 697.154 Q138.191 693.589 138.191 686.483 Q138.191 679.353 136.362 675.811 Q134.556 672.247 130.922 672.247 M130.922 668.543 Q136.732 668.543 139.788 673.149 Q142.867 677.733 142.867 686.483 Q142.867 695.209 139.788 699.816 Q136.732 704.399 130.922 704.399 Q125.112 704.399 122.033 699.816 Q118.978 695.209 118.978 686.483 Q118.978 677.733 122.033 673.149 Q125.112 668.543 130.922 668.543 Z" fill="#000000" fill-rule="nonzero" fill-opacity="1" /><path clip-path="url(#clip030)" d="M82.1494 527.098 L111.825 527.098 L111.825 531.033 L82.1494 531.033 L82.1494 527.098 Z" fill="#000000" fill-rule="nonzero" fill-opacity="1" /><path clip-path="url(#clip030)" d="M121.964 509.367 L140.32 509.367 L140.32 513.302 L126.246 513.302 L126.246 521.774 Q127.265 521.427 128.283 521.265 Q129.302 521.08 130.32 521.08 Q136.107 521.08 139.487 524.251 Q142.867 527.422 142.867 532.839 Q142.867 538.418 139.394 541.52 Q135.922 544.598 129.603 544.598 Q127.427 544.598 125.158 544.228 Q122.913 543.857 120.506 543.117 L120.506 538.418 Q122.589 539.552 124.811 540.108 Q127.033 540.663 129.51 540.663 Q133.515 540.663 135.853 538.557 Q138.191 536.45 138.191 532.839 Q138.191 529.228 135.853 527.121 Q133.515 525.015 129.51 525.015 Q127.635 525.015 125.76 525.432 Q123.908 525.848 121.964 526.728 L121.964 509.367 Z" fill="#000000" fill-rule="nonzero" fill-opacity="1" /><path clip-path="url(#clip030)" d="M130.922 352.645 Q127.311 352.645 125.482 356.209 Q123.677 359.751 123.677 366.881 Q123.677 373.987 125.482 377.552 Q127.311 381.094 130.922 381.094 Q134.556 381.094 136.362 377.552 Q138.191 373.987 138.191 366.881 Q138.191 359.751 136.362 356.209 Q134.556 352.645 130.922 352.645 M130.922 348.941 Q136.732 348.941 139.788 353.547 Q142.867 358.131 142.867 366.881 Q142.867 375.608 139.788 380.214 Q136.732 384.797 130.922 384.797 Q125.112 384.797 122.033 380.214 Q118.978 375.608 118.978 366.881 Q118.978 358.131 122.033 353.547 Q125.112 348.941 130.922 348.941 Z" fill="#000000" fill-rule="nonzero" fill-opacity="1" /><path clip-path="url(#clip030)" d="M121.964 189.765 L140.32 189.765 L140.32 193.7 L126.246 193.7 L126.246 202.172 Q127.265 201.825 128.283 201.663 Q129.302 201.478 130.32 201.478 Q136.107 201.478 139.487 204.649 Q142.867 207.82 142.867 213.237 Q142.867 218.816 139.394 221.918 Q135.922 224.996 129.603 224.996 Q127.427 224.996 125.158 224.626 Q122.913 224.256 120.506 223.515 L120.506 218.816 Q122.589 219.95 124.811 220.506 Q127.033 221.061 129.51 221.061 Q133.515 221.061 135.853 218.955 Q138.191 216.848 138.191 213.237 Q138.191 209.626 135.853 207.52 Q133.515 205.413 129.51 205.413 Q127.635 205.413 125.76 205.83 Q123.908 206.246 121.964 207.126 L121.964 189.765 Z" fill="#000000" fill-rule="nonzero" fill-opacity="1" /><path clip-path="url(#clip030)" d="M91.5706 60.5889 L99.2095 60.5889 L99.2095 34.2233 L90.8993 35.89 L90.8993 31.6308 L99.1632 29.9641 L103.839 29.9641 L103.839 60.5889 L111.478 60.5889 L111.478 64.5241 L91.5706 64.5241 L91.5706 60.5889 Z" fill="#000000" fill-rule="nonzero" fill-opacity="1" /><path clip-path="url(#clip030)" d="M130.922 33.0428 Q127.311 33.0428 125.482 36.6076 Q123.677 40.1492 123.677 47.2788 Q123.677 54.3853 125.482 57.9501 Q127.311 61.4917 130.922 61.4917 Q134.556 61.4917 136.362 57.9501 Q138.191 54.3853 138.191 47.2788 Q138.191 40.1492 136.362 36.6076 Q134.556 33.0428 130.922 33.0428 M130.922 29.3391 Q136.732 29.3391 139.788 33.9456 Q142.867 38.5289 142.867 47.2788 Q142.867 56.0056 139.788 60.6121 Q136.732 65.1954 130.922 65.1954 Q125.112 65.1954 122.033 60.6121 Q118.978 56.0056 118.978 47.2788 Q118.978 38.5289 122.033 33.9456 Q125.112 29.3391 130.922 29.3391 Z" fill="#000000" fill-rule="nonzero" fill-opacity="1" /><polyline clip-path="url(#clip032)" style="stroke:#009af9; stroke-linecap:round; stroke-linejoin:round; stroke-width:4; stroke-opacity:1; fill:none" points="240.392,334.886 242.445,334.443 244.498,344.542 246.55,340.63 248.603,336.218 250.656,346.371 252.709,344.635 254.762,340.655 256.815,336.109 258.868,406.724 260.921,373.352 262.974,356.787 265.027,354.905 267.079,361.234 269.132,353.99 271.185,371.239 273.238,380.805 275.291,381.83 277.344,383.871 279.397,380.57 281.45,380.83 283.503,392.781 285.555,393.039 287.608,391.997 289.661,385.707 291.714,385.82 293.767,382.453 295.82,384.377 297.873,391.471 299.926,398.631 301.979,398.523 304.031,432.463 306.084,429.545 308.137,424.164 310.19,405.964 312.243,337.434 314.296,337.06 316.349,340.531 318.402,340.353 320.455,340.865 322.507,338.641 324.56,339.427 326.613,336.387 328.666,336.129 330.719,336.3 332.772,340.66 334.825,341.037 336.878,342.287 338.931,345.036 340.984,344.515 343.036,357.028 345.089,356.2 347.142,348.647 349.195,346.205 351.248,361.529 353.301,370.502 355.354,372.521 357.407,372.499 359.46,366.266 361.512,365.725 363.565,365.594 365.618,384.498 367.671,384.718 369.724,344.888 371.777,349.431 373.83,364.186 375.883,364.402 377.936,356.478 379.988,354.186 382.041,355.141 384.094,355.035 386.147,354.263 388.2,354.75 390.253,365.865 392.306,365.496 394.359,365.556 396.412,365.99 398.464,365.954 400.517,363.625 402.57,368.706 404.623,378.255 406.676,382.577 408.729,380.836 410.782,354.14 412.835,354.941 414.888,357.507 416.94,359.719 418.993,359.655 421.046,360.331 423.099,360.452 425.152,361.396 427.205,358.712 429.258,358.739 431.311,358.883 433.364,358.859 435.417,359.058 437.469,365.953 439.522,364.999 441.575,360.781 443.628,368.531 445.681,368.523 447.734,372.983 449.787,373.221 451.84,373.227 453.893,371.083 455.945,355.165 457.998,355.175 460.051,355.104 462.104,355.152 464.157,355.36 466.21,348.26 468.263,344.225 470.316,342.754 472.369,345.275 474.421,344.901 476.474,362.501 478.527,360.414 480.58,350.997 482.633,354.328 484.686,351.004 486.739,352.644 488.792,337.224 490.845,339.753 492.897,340.275 494.95,340.465 497.003,341.306 499.056,340.212 501.109,348.097 503.162,343.869 505.215,360.837 507.268,358.721 509.321,328.781 511.374,329.86 513.426,332.403 515.479,335.212 517.532,368.907 519.585,368.928 521.638,373.051 523.691,374.002 525.744,373.979 527.797,370.391 529.85,362.277 531.902,361.627 533.955,348.629 536.008,345.281 538.061,351.917 540.114,351.878 542.167,351.514 544.22,352.807 546.273,351.585 548.326,358.403 550.378,359.706 552.431,359.762 554.484,362.048 556.537,358.148 558.59,373.426 560.643,370.033 562.696,352.108 564.749,384.752 566.802,384.319 568.854,393.557 570.907,396.792 572.96,395.246 575.013,397.177 577.066,384.48 579.119,417.599 581.172,417.506 583.225,417.451 585.278,387.568 587.331,379.259 589.383,379.793 591.436,368.436 593.489,357.255 595.542,359.153 597.595,358.157 599.648,349.344 601.701,349.746 603.754,361.933 605.807,360.054 607.859,365.365 609.912,352.97 611.965,358.302 614.018,358.538 616.071,355.506 618.124,365.059 620.177,356.308 622.23,341.982 624.283,340.868 626.335,343.874 628.388,331.121 630.441,318.982 632.494,319.792 634.547,317.797 636.6,317.655 638.653,319.379 640.706,325.964 642.759,325.718 644.811,323.809 646.864,323.874 648.917,323.568 650.97,313.073 653.023,309.849 655.076,311.594 657.129,303.353 659.182,305.026 661.235,306.5 663.288,306.339 665.34,249.039 667.393,246.856 669.446,229.446 671.499,293.68 673.552,362.807 675.605,359.65 677.658,392.447 679.711,417.434 681.764,442.482 683.816,441.347 685.869,480.852 687.922,475.331 689.975,334.819 692.028,333.436 694.081,320.164 696.134,318.414 698.187,311.698 700.24,311.366 702.292,320.947 704.345,375.913 706.398,369.524 708.451,348.832 710.504,350.433 712.557,350.201 714.61,354 716.663,338.445 718.716,338.065 720.768,339.549 722.821,339.868 724.874,289.784 726.927,359.006 728.98,448.453 731.033,435.5 733.086,467.081 735.139,451.679 737.192,443.52 739.245,457.974 741.297,396.035 743.35,466.533 745.403,466.443 747.456,466.227 749.509,355.641 751.562,373.681 753.615,375.758 755.668,377.065 757.721,370.941 759.773,366.217 761.826,334.489 763.879,341.072 765.932,338.63 767.985,360.296 770.038,362.532 772.091,341.938 774.144,354.196 776.197,353.392 778.249,354.005 780.302,353.96 782.355,360.499 784.408,374.283 786.461,374.461 788.514,373.489 790.567,373.062 792.62,377.144 794.673,367.564 796.725,366.888 798.778,377.141 800.831,376.175 802.884,362.283 804.937,383.111 806.99,382.95 809.043,383.108 811.096,382.395 813.149,383.24 815.202,364.037 817.254,350.772 819.307,423.304 821.36,420.543 823.413,363.671 825.466,377.865 827.519,378.383 829.572,386.619 831.625,388.68 833.678,418.201 835.73,420.695 837.783,418.962 839.836,419.036 841.889,419.554 843.942,403.247 845.995,383.412 848.048,383.541 850.101,388.536 852.154,388.834 854.206,388.958 856.259,388.8 858.312,389.628 860.365,431.448 862.418,432.827 864.471,431.483 866.524,431.499 868.577,429.393 870.63,429.404 872.682,426.481 874.735,426.429 876.788,423.373 878.841,372.498 880.894,351.926 882.947,351.905 885,341.367 887.053,341.545 889.106,341.406 891.159,335.687 893.211,347.917 895.264,344.022 897.317,331.572 899.37,377.5 901.423,356.011 903.476,353.514 905.529,356.59 907.582,357.201 909.635,355.589 911.687,362.055 913.74,360.741 915.793,355.723 917.846,355.714 919.899,356.823 921.952,362.007 924.005,376.11 926.058,376.617 928.111,368.017 930.163,374.647 932.216,389.5 934.269,377.479 936.322,377.529 938.375,372.237 940.428,369.817 942.481,378.193 944.534,371.135 946.587,368.402 948.639,340.652 950.692,340.817 952.745,340.111 954.798,333.218 956.851,334.812 958.904,334.855 960.957,334.324 963.01,332.643 965.063,332.232 967.116,328.789 969.168,326.7 971.221,327.477 973.274,332.875 975.327,332.375 977.38,333.84 979.433,321.043 981.486,321.055 983.539,319.458 985.592,319.769 987.644,319.982 989.697,320.442 991.75,320.442 993.803,315.318 995.856,316.579 997.909,316.548 999.962,316.214 1002.01,319.148 1004.07,362.045 1006.12,356.619 1008.17,356.081 1010.23,349.499 1012.28,368.036 1014.33,365.461 1016.38,365.091 1018.44,361.434 1020.49,360.002 1022.54,359.75 1024.6,336.687 1026.65,324.583 1028.7,324.353 1030.76,330.495 1032.81,338.144 1034.86,338.219 1036.91,340.628 1038.97,340.882 1041.02,340.676 1043.07,337.839 1045.13,385.384 1047.18,378.883 1049.23,388.425 1051.28,382.472 1053.34,356.729 1055.39,358.906 1057.44,369.493 1059.5,372.376 1061.55,375.71 1063.6,358.286 1065.65,367.557 1067.71,367.557 1069.76,368.234 1071.81,384.543 1073.87,363.444 1075.92,359.042 1077.97,364.009 1080.02,367.792 1082.08,360.523 1084.13,324.927 1086.18,325.639 1088.24,356.406 1090.29,358.08 1092.34,358.155 1094.39,354.257 1096.45,353.903 1098.5,353.895 1100.55,364.419 1102.61,364.387 1104.66,361.889 1106.71,368.892 1108.77,369.942 1110.82,357.825 1112.87,357.734 1114.92,357.745 1116.98,363.721 1119.03,367.953 1121.08,367.952 1123.14,368.034 1125.19,357.531 1127.24,357.969 1129.29,358.428 1131.35,355.833 1133.4,355.76 1135.45,350.688 1137.51,389.153 1139.56,387.147 1141.61,386.837 1143.66,385.458 1145.72,380.596 1147.77,379.573 1149.82,379.542 1151.88,378.662 1153.93,374.893 1155.98,360.221 1158.03,360.316 1160.09,360.449 1162.14,371.745 1164.19,373.891 1166.25,373.796 1168.3,353.721 1170.35,353.7 1172.4,354.421 1174.46,353.042 1176.51,353.425 1178.56,350.724 1180.62,350.719 1182.67,360.125 1184.72,353.087 1186.77,357.358 1188.83,358.038 1190.88,357.55 1192.93,358.301 1194.99,360.335 1197.04,361.709 1199.09,360.489 1201.15,381.78 1203.2,381.691 1205.25,381.388 1207.3,387.313 1209.36,385.658 1211.41,386.894 1213.46,382.225 1215.52,376.844 1217.57,342.581 1219.62,341.673 1221.67,339.951 1223.73,334.806 1225.78,334.742 1227.83,410.172 1229.89,393.882 1231.94,393.944 1233.99,398.897 1236.04,398.839 1238.1,399.073 1240.15,399.387 1242.2,378.969 1244.26,379.982 1246.31,380.298 1248.36,380.255 1250.41,377.765 1252.47,380.467 1254.52,380.453 1256.57,381.006 1258.63,389.12 1260.68,389.473 1262.73,389.546 1264.78,385.591 1266.84,385.459 1268.89,385.945 1270.94,384.288 1273,366.245 1275.05,364.034 1277.1,364.074 1279.16,392.813 1281.21,392.454 1283.26,392.489 1285.31,390.708 1287.37,390.502 1289.42,391.391 1291.47,391.542 1293.53,384.93 1295.58,384.167 1297.63,377.763 1299.68,378.166 1301.74,382.016 1303.79,362.832 1305.84,368.049 1307.9,362.507 1309.95,362.478 1312,369.049 1314.05,354.939 1316.11,368.233 1318.16,367.089 1320.21,365.398 1322.27,369.575 1324.32,385.606 1326.37,386.107 1328.42,385.063 1330.48,351.217 1332.53,382.264 1334.58,372.373 1336.64,371.153 1338.69,392.821 1340.74,392.81 1342.79,391.018 1344.85,391.067 1346.9,391.058 1348.95,391.626 1351.01,385.629 1353.06,385.561 1355.11,386.411 1357.16,358.945 1359.22,360.8 1361.27,364.599 1363.32,361.265 1365.38,359.747 1367.43,359.061 1369.48,364.178 1371.54,364.188 1373.59,366.688 1375.64,364.936 1377.69,384.761 1379.75,383.664 1381.8,399.639 1383.85,399.836 1385.91,398.091 1387.96,402.304 1390.01,395.871 1392.06,395.747 1394.12,407.048 1396.17,410.551 1398.22,389.159 1400.28,404.272 1402.33,401.289 1404.38,394.263 1406.43,411.133 1408.49,409.409 1410.54,412.844 1412.59,409.52 1414.65,358.657 1416.7,356.622 1418.75,274.197 1420.8,301.437 1422.86,302.624 1424.91,302.434 1426.96,320.191 1429.02,308.841 1431.07,335.241 1433.12,325.354 1435.17,362.873 1437.23,362.172 1439.28,363.876 1441.33,370.574 1443.39,360.407 1445.44,360.484 1447.49,360.507 1449.55,350.922 1451.6,350.832 1453.65,350.45 1455.7,358.585 1457.76,228.729 1459.81,221.578 1461.86,222.9 1463.92,286.744 1465.97,286.502 1468.02,296.728 1470.07,291.587 1472.13,285.935 1474.18,521.47 1476.23,532.936 1478.29,533.722 1480.34,295.708 1482.39,445.551 1484.44,438.629 1486.5,390.492 1488.55,333.53 1490.6,374.657 1492.66,373.305 1494.71,362.967 1496.76,424.53 1498.81,388.053 1500.87,395.486 1502.92,423.483 1504.97,362.975 1507.03,374.324 1509.08,367.892 1511.13,313.934 1513.18,313.521 1515.24,337.642 1517.29,340.105 1519.34,347.528 1521.4,352.203 1523.45,350.462 1525.5,313.46 1527.55,358.575 1529.61,302.074 1531.66,255.164 1533.71,324.456 1535.77,352.483 1537.82,353.983 1539.87,354.054 1541.93,362.968 1543.98,370.316 1546.03,392.928 1548.08,387.581 1550.14,384.655 1552.19,385.062 1554.24,388.088 1556.3,388.079 1558.35,382.738 1560.4,319.204 1562.45,318.903 1564.51,377.168 1566.56,348.587 1568.61,353.08 1570.67,358.405 1572.72,361.222 1574.77,371.164 1576.82,350.46 1578.88,350.786 1580.93,343.212 1582.98,357.847 1585.04,357.731 1587.09,358.058 1589.14,369.712 1591.19,381.408 1593.25,448.562 1595.3,440.587 1597.35,440.42 1599.41,417.673 1601.46,443.226 1603.51,424.577 1605.56,389.22 1607.62,322.065 1609.67,327.423 1611.72,322.682 1613.78,333.548 1615.83,375.565 1617.88,372.946 1619.94,382.221 1621.99,383.151 1624.04,382.797 1626.09,389.202 1628.15,258.291 1630.2,264.423 1632.25,260.143 1634.31,258.236 1636.36,257.756 1638.41,252.134 1640.46,235.256 1642.52,235.751 1644.57,214.46 1646.62,243.509 1648.68,184.09 1650.73,262.689 1652.78,249.928 1654.83,251.031 1656.89,264.853 1658.94,264.009 1660.99,263.929 1663.05,259.668 1665.1,260.021 1667.15,294.198 1669.2,292.619 1671.26,301.464 1673.31,299.633 1675.36,284.85 1677.42,293.61 1679.47,385.753 1681.52,346.989 1683.57,613.317 1685.63,595.344 1687.68,480.376 1689.73,474.188 1691.79,462.946 1693.84,466.143 1695.89,383.401 1697.94,363.837 1700,367.003 1702.05,422.495 1704.1,398.221 1706.16,337.02 1708.21,489.662 1710.26,499.883 1712.32,426.593 1714.37,419.867 1716.42,443.398 1718.47,451.307 1720.53,445.192 1722.58,172.078 1724.63,299.288 1726.69,294.54 1728.74,296.45 1730.79,296.006 1732.84,283.951 1734.9,461.342 1736.95,380.663 1739,379.64 1741.06,363.774 1743.11,343.304 1745.16,344.951 1747.21,285.27 1749.27,284.713 1751.32,289.9 1753.37,292.487 1755.43,336.33 1757.48,353.765 1759.53,562.919 1761.58,566.997 1763.64,541.629 1765.69,558.257 1767.74,224.52 1769.8,259.666 1771.85,264.291 1773.9,262.842 1775.95,367.702 1778.01,284.644 1780.06,284.579 1782.11,294.584 1784.17,311.231 1786.22,293.024 1788.27,326.605 1790.33,325.969 1792.38,348.686 1794.43,318.208 1796.48,303.769 1798.54,303.93 1800.59,239.696 1802.64,232.355 1804.7,260.744 1806.75,253.601 1808.8,244.106 1810.85,175.688 1812.91,177.187 1814.96,125.097 1817.01,163.235 1819.07,439.417 1821.12,492.71 1823.17,503.735 1825.22,444.745 1827.28,457.151 1829.33,449.769 1831.38,451.394 1833.44,459.412 1835.49,449.998 1837.54,450.299 1839.59,373.602 1841.65,387.978 1843.7,404.648 1845.75,380.456 1847.81,379.33 1849.86,349.121 1851.91,242.107 1853.96,258.274 1856.02,200.844 1858.07,255.969 1860.12,244.699 1862.18,252.385 1864.23,252.281 1866.28,196.69 1868.34,184.937 1870.39,180.454 1872.44,213.254 1874.49,124.111 1876.55,131.73 1878.6,125.28 1880.65,119.102 1882.71,120.791 1884.76,10.4763 1886.81,32.8559 1888.86,34.6603 1890.92,52.6115 1892.97,43.2871 1895.02,230.02 1897.08,248.487 1899.13,173.859 1901.18,222.006 1903.23,384.462 1905.29,395.964 1907.34,413.384 1909.39,537.8 1911.45,539.903 1913.5,544.341 1915.55,556.705 1917.6,555.506 1919.66,548.685 1921.71,439.181 1923.76,437.607 1925.82,431.092 1927.87,431.302 1929.92,414.416 1931.97,414.584 1934.03,411.986 1936.08,411.487 1938.13,375.896 1940.19,372.105 1942.24,363.481 1944.29,345.535 1946.34,344.806 1948.4,360.377 1950.45,353.622 1952.5,316.101 1954.56,359.257 1956.61,312.871 1958.66,398.565 1960.72,393.523 1962.77,381.368 1964.82,377.277 1966.87,403.023 1968.93,299.595 1970.98,341.251 1973.03,320.559 1975.09,316.848 1977.14,328.159 1979.19,332.677 1981.24,328.441 1983.3,159.78 1985.35,181.256 1987.4,271.72 1989.46,257.888 1991.51,260.586 1993.56,390.399 1995.61,453.635 1997.67,455.986 1999.72,459.171 2001.77,561.227 2003.83,561.41 2005.88,561.46 2007.93,383.106 2009.98,375.935 2012.04,182.59 2014.09,186.243 2016.14,215.915 2018.2,340.804 2020.25,352.011 2022.3,358.441 2024.35,384.753 2026.41,368.211 2028.46,368.376 2030.51,362.546 2032.57,353.384 2034.62,352.345 2036.67,338.982 2038.73,267.871 2040.78,262.585 2042.83,265.812 2044.88,285.165 2046.94,278.394 2048.99,266.504 2051.04,271.824 2053.1,262.621 2055.15,263.685 2057.2,268.814 2059.25,269.89 2061.31,270.199 2063.36,270.24 2065.41,266.717 2067.47,264.501 2069.52,267.561 2071.57,260.023 2073.62,259.976 2075.68,230.691 2077.73,221.512 2079.78,285.539 2081.84,266.512 2083.89,269.314 2085.94,426.658 2087.99,424.09 2090.05,419.223 2092.1,428.607 2094.15,433.033 2096.21,432.421 2098.26,390.866 2100.31,386.618 2102.36,370.074 2104.42,369.859 2106.47,359.564 2108.52,326.895 2110.58,335.604 2112.63,414.04 2114.68,426.704 2116.73,416.579 2118.79,425.589 2120.84,423.711 2122.89,341.734 2124.95,362.275 2127,384.892 2129.05,401.494 2131.11,401.655 2133.16,357.89 2135.21,358.943 2137.26,356.208 2139.32,352.748 2141.37,354.631 2143.42,320.785 2145.48,287.147 2147.53,425.333 2149.58,425.896 2151.63,416.971 2153.69,416.959 2155.74,405.205 2157.79,403.436 2159.85,315.904 2161.9,315.987 2163.95,315.004 2166,345.97 2168.06,334.162 2170.11,322.493 2172.16,322.991 2174.22,322.008 2176.27,320.342 2178.32,374.504 2180.37,389.098 2182.43,386.782 2184.48,366.755 2186.53,230.893 2188.59,243.607 2190.64,231.464 2192.69,374.145 2194.74,408.779 2196.8,391.681 2198.85,390.282 2200.9,391.623 2202.96,402.047 2205.01,412.932 2207.06,345.696 2209.12,342.859 2211.17,440.043 2213.22,459.19 2215.27,415.029 2217.33,394.836 2219.38,366.216 2221.43,364.921 2223.49,370.828 2225.54,515.507 2227.59,514.816 2229.64,373.82 2231.7,387.723 2233.75,388.336 2235.8,472.949 2237.86,435.648 2239.91,435.715 2241.96,419.374 2244.01,415.765 2246.07,341.727 2248.12,345.927 2250.17,359.254 2252.23,335.603 2254.28,358.929 2256.33,347.352 2258.38,332.72 2260.44,333.073 2262.49,336.636 2264.54,256.031 2266.6,346.27 2268.65,351.574 2270.7,375.98 2272.75,382.893 2274.81,382.761 2276.86,382.295 2278.91,368.282 2280.97,368.267 2283.02,358.663 2285.07,358.19 2287.12,352.18 2289.18,362.584 2291.23,353.548 "/>
<path clip-path="url(#clip030)" d="M251.33 172.231 L548.024 172.231 L548.024 68.5509 L251.33 68.5509  Z" fill="#ffffff" fill-rule="evenodd" fill-opacity="1"/>
<polyline clip-path="url(#clip030)" style="stroke:#000000; stroke-linecap:round; stroke-linejoin:round; stroke-width:4; stroke-opacity:1; fill:none" points="251.33,172.231 548.024,172.231 548.024,68.5509 251.33,68.5509 251.33,172.231 "/>
<polyline clip-path="url(#clip030)" style="stroke:#009af9; stroke-linecap:round; stroke-linejoin:round; stroke-width:4; stroke-opacity:1; fill:none" points="275.484,120.391 420.41,120.391 "/>
<path clip-path="url(#clip030)" d="M444.564 103.111 L449.24 103.111 L449.24 133.736 L466.069 133.736 L466.069 137.671 L444.564 137.671 L444.564 103.111 Z" fill="#000000" fill-rule="nonzero" fill-opacity="1" /><path clip-path="url(#clip030)" d="M491.694 104.245 L491.694 108.805 Q489.032 107.532 486.67 106.907 Q484.309 106.282 482.11 106.282 Q478.291 106.282 476.208 107.764 Q474.147 109.245 474.147 111.977 Q474.147 114.268 475.513 115.449 Q476.902 116.606 480.745 117.324 L483.569 117.902 Q488.8 118.898 491.277 121.421 Q493.777 123.921 493.777 128.134 Q493.777 133.157 490.397 135.75 Q487.041 138.342 480.536 138.342 Q478.083 138.342 475.305 137.787 Q472.55 137.231 469.587 136.143 L469.587 131.328 Q472.434 132.926 475.166 133.736 Q477.897 134.546 480.536 134.546 Q484.541 134.546 486.717 132.972 Q488.893 131.398 488.893 128.481 Q488.893 125.935 487.319 124.5 Q485.768 123.064 482.203 122.347 L479.356 121.791 Q474.124 120.75 471.786 118.527 Q469.448 116.305 469.448 112.347 Q469.448 107.764 472.666 105.125 Q475.907 102.486 481.578 102.486 Q484.008 102.486 486.532 102.926 Q489.055 103.366 491.694 104.245 Z" fill="#000000" fill-rule="nonzero" fill-opacity="1" /><path clip-path="url(#clip030)" d="M521.786 104.245 L521.786 108.805 Q519.124 107.532 516.763 106.907 Q514.402 106.282 512.203 106.282 Q508.383 106.282 506.3 107.764 Q504.24 109.245 504.24 111.977 Q504.24 114.268 505.606 115.449 Q506.994 116.606 510.837 117.324 L513.661 117.902 Q518.893 118.898 521.369 121.421 Q523.869 123.921 523.869 128.134 Q523.869 133.157 520.49 135.75 Q517.133 138.342 510.629 138.342 Q508.175 138.342 505.397 137.787 Q502.643 137.231 499.68 136.143 L499.68 131.328 Q502.527 132.926 505.258 133.736 Q507.99 134.546 510.629 134.546 Q514.633 134.546 516.809 132.972 Q518.985 131.398 518.985 128.481 Q518.985 125.935 517.411 124.5 Q515.86 123.064 512.295 122.347 L509.448 121.791 Q504.217 120.75 501.879 118.527 Q499.541 116.305 499.541 112.347 Q499.541 107.764 502.758 105.125 Q505.999 102.486 511.67 102.486 Q514.101 102.486 516.624 102.926 Q519.147 103.366 521.786 104.245 Z" fill="#000000" fill-rule="nonzero" fill-opacity="1" /><path clip-path="url(#clip030)" d="M178.867 1486.45 L2352.76 1486.45 L2352.76 847.244 L178.867 847.244  Z" fill="#ffffff" fill-rule="evenodd" fill-opacity="1"/>
<defs>
  <clipPath id="clip033">
    <rect x="178" y="847" width="2175" height="640"/>
  </clipPath>
</defs>
<polyline clip-path="url(#clip033)" style="stroke:#000000; stroke-linecap:round; stroke-linejoin:round; stroke-width:2; stroke-opacity:0.1; fill:none" points="238.339,1486.45 238.339,847.244 "/>
<polyline clip-path="url(#clip033)" style="stroke:#000000; stroke-linecap:round; stroke-linejoin:round; stroke-width:2; stroke-opacity:0.1; fill:none" points="751.562,1486.45 751.562,847.244 "/>
<polyline clip-path="url(#clip033)" style="stroke:#000000; stroke-linecap:round; stroke-linejoin:round; stroke-width:2; stroke-opacity:0.1; fill:none" points="1264.78,1486.45 1264.78,847.244 "/>
<polyline clip-path="url(#clip033)" style="stroke:#000000; stroke-linecap:round; stroke-linejoin:round; stroke-width:2; stroke-opacity:0.1; fill:none" points="1778.01,1486.45 1778.01,847.244 "/>
<polyline clip-path="url(#clip033)" style="stroke:#000000; stroke-linecap:round; stroke-linejoin:round; stroke-width:2; stroke-opacity:0.1; fill:none" points="2291.23,1486.45 2291.23,847.244 "/>
<polyline clip-path="url(#clip033)" style="stroke:#000000; stroke-linecap:round; stroke-linejoin:round; stroke-width:2; stroke-opacity:0.1; fill:none" points="178.867,1486.45 2352.76,1486.45 "/>
<polyline clip-path="url(#clip033)" style="stroke:#000000; stroke-linecap:round; stroke-linejoin:round; stroke-width:2; stroke-opacity:0.1; fill:none" points="178.867,1326.65 2352.76,1326.65 "/>
<polyline clip-path="url(#clip033)" style="stroke:#000000; stroke-linecap:round; stroke-linejoin:round; stroke-width:2; stroke-opacity:0.1; fill:none" points="178.867,1166.85 2352.76,1166.85 "/>
<polyline clip-path="url(#clip033)" style="stroke:#000000; stroke-linecap:round; stroke-linejoin:round; stroke-width:2; stroke-opacity:0.1; fill:none" points="178.867,1007.05 2352.76,1007.05 "/>
<polyline clip-path="url(#clip033)" style="stroke:#000000; stroke-linecap:round; stroke-linejoin:round; stroke-width:2; stroke-opacity:0.1; fill:none" points="178.867,847.244 2352.76,847.244 "/>
<polyline clip-path="url(#clip030)" style="stroke:#000000; stroke-linecap:round; stroke-linejoin:round; stroke-width:4; stroke-opacity:1; fill:none" points="178.867,1486.45 2352.76,1486.45 "/>
<polyline clip-path="url(#clip030)" style="stroke:#000000; stroke-linecap:round; stroke-linejoin:round; stroke-width:4; stroke-opacity:1; fill:none" points="238.339,1486.45 238.339,1467.55 "/>
<polyline clip-path="url(#clip030)" style="stroke:#000000; stroke-linecap:round; stroke-linejoin:round; stroke-width:4; stroke-opacity:1; fill:none" points="751.562,1486.45 751.562,1467.55 "/>
<polyline clip-path="url(#clip030)" style="stroke:#000000; stroke-linecap:round; stroke-linejoin:round; stroke-width:4; stroke-opacity:1; fill:none" points="1264.78,1486.45 1264.78,1467.55 "/>
<polyline clip-path="url(#clip030)" style="stroke:#000000; stroke-linecap:round; stroke-linejoin:round; stroke-width:4; stroke-opacity:1; fill:none" points="1778.01,1486.45 1778.01,1467.55 "/>
<polyline clip-path="url(#clip030)" style="stroke:#000000; stroke-linecap:round; stroke-linejoin:round; stroke-width:4; stroke-opacity:1; fill:none" points="2291.23,1486.45 2291.23,1467.55 "/>
<path clip-path="url(#clip030)" d="M238.339 1517.37 Q234.728 1517.37 232.899 1520.93 Q231.094 1524.47 231.094 1531.6 Q231.094 1538.71 232.899 1542.27 Q234.728 1545.82 238.339 1545.82 Q241.973 1545.82 243.779 1542.27 Q245.607 1538.71 245.607 1531.6 Q245.607 1524.47 243.779 1520.93 Q241.973 1517.37 238.339 1517.37 M238.339 1513.66 Q244.149 1513.66 247.205 1518.27 Q250.283 1522.85 250.283 1531.6 Q250.283 1540.33 247.205 1544.94 Q244.149 1549.52 238.339 1549.52 Q232.529 1549.52 229.45 1544.94 Q226.395 1540.33 226.395 1531.6 Q226.395 1522.85 229.45 1518.27 Q232.529 1513.66 238.339 1513.66 Z" fill="#000000" fill-rule="nonzero" fill-opacity="1" /><path clip-path="url(#clip030)" d="M715.254 1544.91 L731.574 1544.91 L731.574 1548.85 L709.629 1548.85 L709.629 1544.91 Q712.291 1542.16 716.875 1537.53 Q721.481 1532.88 722.662 1531.53 Q724.907 1529.01 725.787 1527.27 Q726.689 1525.51 726.689 1523.82 Q726.689 1521.07 724.745 1519.33 Q722.824 1517.6 719.722 1517.6 Q717.523 1517.6 715.069 1518.36 Q712.638 1519.13 709.861 1520.68 L709.861 1515.95 Q712.685 1514.82 715.138 1514.24 Q717.592 1513.66 719.629 1513.66 Q725 1513.66 728.194 1516.35 Q731.388 1519.03 731.388 1523.52 Q731.388 1525.65 730.578 1527.57 Q729.791 1529.47 727.685 1532.07 Q727.106 1532.74 724.004 1535.95 Q720.902 1539.15 715.254 1544.91 Z" fill="#000000" fill-rule="nonzero" fill-opacity="1" /><path clip-path="url(#clip030)" d="M741.435 1514.29 L759.791 1514.29 L759.791 1518.22 L745.717 1518.22 L745.717 1526.7 Q746.736 1526.35 747.754 1526.19 Q748.773 1526 749.791 1526 Q755.578 1526 758.958 1529.17 Q762.337 1532.34 762.337 1537.76 Q762.337 1543.34 758.865 1546.44 Q755.393 1549.52 749.073 1549.52 Q746.898 1549.52 744.629 1549.15 Q742.384 1548.78 739.976 1548.04 L739.976 1543.34 Q742.06 1544.47 744.282 1545.03 Q746.504 1545.58 748.981 1545.58 Q752.985 1545.58 755.323 1543.48 Q757.661 1541.37 757.661 1537.76 Q757.661 1534.15 755.323 1532.04 Q752.985 1529.94 748.981 1529.94 Q747.106 1529.94 745.231 1530.35 Q743.379 1530.77 741.435 1531.65 L741.435 1514.29 Z" fill="#000000" fill-rule="nonzero" fill-opacity="1" /><path clip-path="url(#clip030)" d="M781.55 1517.37 Q777.939 1517.37 776.11 1520.93 Q774.305 1524.47 774.305 1531.6 Q774.305 1538.71 776.11 1542.27 Q777.939 1545.82 781.55 1545.82 Q785.184 1545.82 786.99 1542.27 Q788.819 1538.71 788.819 1531.6 Q788.819 1524.47 786.99 1520.93 Q785.184 1517.37 781.55 1517.37 M781.55 1513.66 Q787.36 1513.66 790.416 1518.27 Q793.495 1522.85 793.495 1531.6 Q793.495 1540.33 790.416 1544.94 Q787.36 1549.52 781.55 1549.52 Q775.74 1549.52 772.661 1544.94 Q769.606 1540.33 769.606 1531.6 Q769.606 1522.85 772.661 1518.27 Q775.74 1513.66 781.55 1513.66 Z" fill="#000000" fill-rule="nonzero" fill-opacity="1" /><path clip-path="url(#clip030)" d="M1224.4 1514.29 L1242.76 1514.29 L1242.76 1518.22 L1228.69 1518.22 L1228.69 1526.7 Q1229.7 1526.35 1230.72 1526.19 Q1231.74 1526 1232.76 1526 Q1238.55 1526 1241.93 1529.17 Q1245.31 1532.34 1245.31 1537.76 Q1245.31 1543.34 1241.83 1546.44 Q1238.36 1549.52 1232.04 1549.52 Q1229.87 1549.52 1227.6 1549.15 Q1225.35 1548.78 1222.94 1548.04 L1222.94 1543.34 Q1225.03 1544.47 1227.25 1545.03 Q1229.47 1545.58 1231.95 1545.58 Q1235.95 1545.58 1238.29 1543.48 Q1240.63 1541.37 1240.63 1537.76 Q1240.63 1534.15 1238.29 1532.04 Q1235.95 1529.94 1231.95 1529.94 Q1230.07 1529.94 1228.2 1530.35 Q1226.35 1530.77 1224.4 1531.65 L1224.4 1514.29 Z" fill="#000000" fill-rule="nonzero" fill-opacity="1" /><path clip-path="url(#clip030)" d="M1264.52 1517.37 Q1260.91 1517.37 1259.08 1520.93 Q1257.27 1524.47 1257.27 1531.6 Q1257.27 1538.71 1259.08 1542.27 Q1260.91 1545.82 1264.52 1545.82 Q1268.15 1545.82 1269.96 1542.27 Q1271.79 1538.71 1271.79 1531.6 Q1271.79 1524.47 1269.96 1520.93 Q1268.15 1517.37 1264.52 1517.37 M1264.52 1513.66 Q1270.33 1513.66 1273.38 1518.27 Q1276.46 1522.85 1276.46 1531.6 Q1276.46 1540.33 1273.38 1544.94 Q1270.33 1549.52 1264.52 1549.52 Q1258.71 1549.52 1255.63 1544.94 Q1252.57 1540.33 1252.57 1531.6 Q1252.57 1522.85 1255.63 1518.27 Q1258.71 1513.66 1264.52 1513.66 Z" fill="#000000" fill-rule="nonzero" fill-opacity="1" /><path clip-path="url(#clip030)" d="M1294.68 1517.37 Q1291.07 1517.37 1289.24 1520.93 Q1287.44 1524.47 1287.44 1531.6 Q1287.44 1538.71 1289.24 1542.27 Q1291.07 1545.82 1294.68 1545.82 Q1298.31 1545.82 1300.12 1542.27 Q1301.95 1538.71 1301.95 1531.6 Q1301.95 1524.47 1300.12 1520.93 Q1298.31 1517.37 1294.68 1517.37 M1294.68 1513.66 Q1300.49 1513.66 1303.55 1518.27 Q1306.62 1522.85 1306.62 1531.6 Q1306.62 1540.33 1303.55 1544.94 Q1300.49 1549.52 1294.68 1549.52 Q1288.87 1549.52 1285.79 1544.94 Q1282.74 1540.33 1282.74 1531.6 Q1282.74 1522.85 1285.79 1518.27 Q1288.87 1513.66 1294.68 1513.66 Z" fill="#000000" fill-rule="nonzero" fill-opacity="1" /><path clip-path="url(#clip030)" d="M1736.28 1514.29 L1758.51 1514.29 L1758.51 1516.28 L1745.96 1548.85 L1741.08 1548.85 L1752.88 1518.22 L1736.28 1518.22 L1736.28 1514.29 Z" fill="#000000" fill-rule="nonzero" fill-opacity="1" /><path clip-path="url(#clip030)" d="M1767.67 1514.29 L1786.03 1514.29 L1786.03 1518.22 L1771.95 1518.22 L1771.95 1526.7 Q1772.97 1526.35 1773.99 1526.19 Q1775.01 1526 1776.03 1526 Q1781.82 1526 1785.2 1529.17 Q1788.57 1532.34 1788.57 1537.76 Q1788.57 1543.34 1785.1 1546.44 Q1781.63 1549.52 1775.31 1549.52 Q1773.14 1549.52 1770.87 1549.15 Q1768.62 1548.78 1766.21 1548.04 L1766.21 1543.34 Q1768.3 1544.47 1770.52 1545.03 Q1772.74 1545.58 1775.22 1545.58 Q1779.22 1545.58 1781.56 1543.48 Q1783.9 1541.37 1783.9 1537.76 Q1783.9 1534.15 1781.56 1532.04 Q1779.22 1529.94 1775.22 1529.94 Q1773.34 1529.94 1771.47 1530.35 Q1769.62 1530.77 1767.67 1531.65 L1767.67 1514.29 Z" fill="#000000" fill-rule="nonzero" fill-opacity="1" /><path clip-path="url(#clip030)" d="M1807.79 1517.37 Q1804.18 1517.37 1802.35 1520.93 Q1800.54 1524.47 1800.54 1531.6 Q1800.54 1538.71 1802.35 1542.27 Q1804.18 1545.82 1807.79 1545.82 Q1811.42 1545.82 1813.23 1542.27 Q1815.06 1538.71 1815.06 1531.6 Q1815.06 1524.47 1813.23 1520.93 Q1811.42 1517.37 1807.79 1517.37 M1807.79 1513.66 Q1813.6 1513.66 1816.65 1518.27 Q1819.73 1522.85 1819.73 1531.6 Q1819.73 1540.33 1816.65 1544.94 Q1813.6 1549.52 1807.79 1549.52 Q1801.98 1549.52 1798.9 1544.94 Q1795.84 1540.33 1795.84 1531.6 Q1795.84 1522.85 1798.9 1518.27 Q1801.98 1513.66 1807.79 1513.66 Z" fill="#000000" fill-rule="nonzero" fill-opacity="1" /><path clip-path="url(#clip030)" d="M2235.76 1544.91 L2243.4 1544.91 L2243.4 1518.55 L2235.09 1520.21 L2235.09 1515.95 L2243.35 1514.29 L2248.02 1514.29 L2248.02 1544.91 L2255.66 1544.91 L2255.66 1548.85 L2235.76 1548.85 L2235.76 1544.91 Z" fill="#000000" fill-rule="nonzero" fill-opacity="1" /><path clip-path="url(#clip030)" d="M2275.11 1517.37 Q2271.5 1517.37 2269.67 1520.93 Q2267.86 1524.47 2267.86 1531.6 Q2267.86 1538.71 2269.67 1542.27 Q2271.5 1545.82 2275.11 1545.82 Q2278.74 1545.82 2280.55 1542.27 Q2282.38 1538.71 2282.38 1531.6 Q2282.38 1524.47 2280.55 1520.93 Q2278.74 1517.37 2275.11 1517.37 M2275.11 1513.66 Q2280.92 1513.66 2283.97 1518.27 Q2287.05 1522.85 2287.05 1531.6 Q2287.05 1540.33 2283.97 1544.94 Q2280.92 1549.52 2275.11 1549.52 Q2269.3 1549.52 2266.22 1544.94 Q2263.16 1540.33 2263.16 1531.6 Q2263.16 1522.85 2266.22 1518.27 Q2269.3 1513.66 2275.11 1513.66 Z" fill="#000000" fill-rule="nonzero" fill-opacity="1" /><path clip-path="url(#clip030)" d="M2305.27 1517.37 Q2301.66 1517.37 2299.83 1520.93 Q2298.02 1524.47 2298.02 1531.6 Q2298.02 1538.71 2299.83 1542.27 Q2301.66 1545.82 2305.27 1545.82 Q2308.9 1545.82 2310.71 1542.27 Q2312.54 1538.71 2312.54 1531.6 Q2312.54 1524.47 2310.71 1520.93 Q2308.9 1517.37 2305.27 1517.37 M2305.27 1513.66 Q2311.08 1513.66 2314.14 1518.27 Q2317.21 1522.85 2317.21 1531.6 Q2317.21 1540.33 2314.14 1544.94 Q2311.08 1549.52 2305.27 1549.52 Q2299.46 1549.52 2296.38 1544.94 Q2293.33 1540.33 2293.33 1531.6 Q2293.33 1522.85 2296.38 1518.27 Q2299.46 1513.66 2305.27 1513.66 Z" fill="#000000" fill-rule="nonzero" fill-opacity="1" /><path clip-path="url(#clip030)" d="M2335.43 1517.37 Q2331.82 1517.37 2329.99 1520.93 Q2328.19 1524.47 2328.19 1531.6 Q2328.19 1538.71 2329.99 1542.27 Q2331.82 1545.82 2335.43 1545.82 Q2339.07 1545.82 2340.87 1542.27 Q2342.7 1538.71 2342.7 1531.6 Q2342.7 1524.47 2340.87 1520.93 Q2339.07 1517.37 2335.43 1517.37 M2335.43 1513.66 Q2341.24 1513.66 2344.3 1518.27 Q2347.38 1522.85 2347.38 1531.6 Q2347.38 1540.33 2344.3 1544.94 Q2341.24 1549.52 2335.43 1549.52 Q2329.62 1549.52 2326.54 1544.94 Q2323.49 1540.33 2323.49 1531.6 Q2323.49 1522.85 2326.54 1518.27 Q2329.62 1513.66 2335.43 1513.66 Z" fill="#000000" fill-rule="nonzero" fill-opacity="1" /><polyline clip-path="url(#clip030)" style="stroke:#000000; stroke-linecap:round; stroke-linejoin:round; stroke-width:4; stroke-opacity:1; fill:none" points="178.867,1486.45 178.867,847.244 "/>
<polyline clip-path="url(#clip030)" style="stroke:#000000; stroke-linecap:round; stroke-linejoin:round; stroke-width:4; stroke-opacity:1; fill:none" points="178.867,1486.45 197.764,1486.45 "/>
<polyline clip-path="url(#clip030)" style="stroke:#000000; stroke-linecap:round; stroke-linejoin:round; stroke-width:4; stroke-opacity:1; fill:none" points="178.867,1326.65 197.764,1326.65 "/>
<polyline clip-path="url(#clip030)" style="stroke:#000000; stroke-linecap:round; stroke-linejoin:round; stroke-width:4; stroke-opacity:1; fill:none" points="178.867,1166.85 197.764,1166.85 "/>
<polyline clip-path="url(#clip030)" style="stroke:#000000; stroke-linecap:round; stroke-linejoin:round; stroke-width:4; stroke-opacity:1; fill:none" points="178.867,1007.05 197.764,1007.05 "/>
<polyline clip-path="url(#clip030)" style="stroke:#000000; stroke-linecap:round; stroke-linejoin:round; stroke-width:4; stroke-opacity:1; fill:none" points="178.867,847.244 197.764,847.244 "/>
<path clip-path="url(#clip030)" d="M50.9921 1486.9 L80.6679 1486.9 L80.6679 1490.83 L50.9921 1490.83 L50.9921 1486.9 Z" fill="#000000" fill-rule="nonzero" fill-opacity="1" /><path clip-path="url(#clip030)" d="M91.5706 1499.79 L99.2095 1499.79 L99.2095 1473.43 L90.8993 1475.09 L90.8993 1470.83 L99.1632 1469.17 L103.839 1469.17 L103.839 1499.79 L111.478 1499.79 L111.478 1503.73 L91.5706 1503.73 L91.5706 1499.79 Z" fill="#000000" fill-rule="nonzero" fill-opacity="1" /><path clip-path="url(#clip030)" d="M130.922 1472.25 Q127.311 1472.25 125.482 1475.81 Q123.677 1479.35 123.677 1486.48 Q123.677 1493.59 125.482 1497.15 Q127.311 1500.7 130.922 1500.7 Q134.556 1500.7 136.362 1497.15 Q138.191 1493.59 138.191 1486.48 Q138.191 1479.35 136.362 1475.81 Q134.556 1472.25 130.922 1472.25 M130.922 1468.54 Q136.732 1468.54 139.788 1473.15 Q142.867 1477.73 142.867 1486.48 Q142.867 1495.21 139.788 1499.82 Q136.732 1504.4 130.922 1504.4 Q125.112 1504.4 122.033 1499.82 Q118.978 1495.21 118.978 1486.48 Q118.978 1477.73 122.033 1473.15 Q125.112 1468.54 130.922 1468.54 Z" fill="#000000" fill-rule="nonzero" fill-opacity="1" /><path clip-path="url(#clip030)" d="M82.1494 1327.1 L111.825 1327.1 L111.825 1331.03 L82.1494 1331.03 L82.1494 1327.1 Z" fill="#000000" fill-rule="nonzero" fill-opacity="1" /><path clip-path="url(#clip030)" d="M121.964 1309.37 L140.32 1309.37 L140.32 1313.3 L126.246 1313.3 L126.246 1321.77 Q127.265 1321.43 128.283 1321.27 Q129.302 1321.08 130.32 1321.08 Q136.107 1321.08 139.487 1324.25 Q142.867 1327.42 142.867 1332.84 Q142.867 1338.42 139.394 1341.52 Q135.922 1344.6 129.603 1344.6 Q127.427 1344.6 125.158 1344.23 Q122.913 1343.86 120.506 1343.12 L120.506 1338.42 Q122.589 1339.55 124.811 1340.11 Q127.033 1340.66 129.51 1340.66 Q133.515 1340.66 135.853 1338.56 Q138.191 1336.45 138.191 1332.84 Q138.191 1329.23 135.853 1327.12 Q133.515 1325.01 129.51 1325.01 Q127.635 1325.01 125.76 1325.43 Q123.908 1325.85 121.964 1326.73 L121.964 1309.37 Z" fill="#000000" fill-rule="nonzero" fill-opacity="1" /><path clip-path="url(#clip030)" d="M130.922 1152.64 Q127.311 1152.64 125.482 1156.21 Q123.677 1159.75 123.677 1166.88 Q123.677 1173.99 125.482 1177.55 Q127.311 1181.09 130.922 1181.09 Q134.556 1181.09 136.362 1177.55 Q138.191 1173.99 138.191 1166.88 Q138.191 1159.75 136.362 1156.21 Q134.556 1152.64 130.922 1152.64 M130.922 1148.94 Q136.732 1148.94 139.788 1153.55 Q142.867 1158.13 142.867 1166.88 Q142.867 1175.61 139.788 1180.21 Q136.732 1184.8 130.922 1184.8 Q125.112 1184.8 122.033 1180.21 Q118.978 1175.61 118.978 1166.88 Q118.978 1158.13 122.033 1153.55 Q125.112 1148.94 130.922 1148.94 Z" fill="#000000" fill-rule="nonzero" fill-opacity="1" /><path clip-path="url(#clip030)" d="M121.964 989.765 L140.32 989.765 L140.32 993.7 L126.246 993.7 L126.246 1002.17 Q127.265 1001.83 128.283 1001.66 Q129.302 1001.48 130.32 1001.48 Q136.107 1001.48 139.487 1004.65 Q142.867 1007.82 142.867 1013.24 Q142.867 1018.82 139.394 1021.92 Q135.922 1025 129.603 1025 Q127.427 1025 125.158 1024.63 Q122.913 1024.26 120.506 1023.51 L120.506 1018.82 Q122.589 1019.95 124.811 1020.51 Q127.033 1021.06 129.51 1021.06 Q133.515 1021.06 135.853 1018.95 Q138.191 1016.85 138.191 1013.24 Q138.191 1009.63 135.853 1007.52 Q133.515 1005.41 129.51 1005.41 Q127.635 1005.41 125.76 1005.83 Q123.908 1006.25 121.964 1007.13 L121.964 989.765 Z" fill="#000000" fill-rule="nonzero" fill-opacity="1" /><path clip-path="url(#clip030)" d="M91.5706 860.589 L99.2095 860.589 L99.2095 834.223 L90.8993 835.89 L90.8993 831.631 L99.1632 829.964 L103.839 829.964 L103.839 860.589 L111.478 860.589 L111.478 864.524 L91.5706 864.524 L91.5706 860.589 Z" fill="#000000" fill-rule="nonzero" fill-opacity="1" /><path clip-path="url(#clip030)" d="M130.922 833.043 Q127.311 833.043 125.482 836.608 Q123.677 840.149 123.677 847.279 Q123.677 854.385 125.482 857.95 Q127.311 861.492 130.922 861.492 Q134.556 861.492 136.362 857.95 Q138.191 854.385 138.191 847.279 Q138.191 840.149 136.362 836.608 Q134.556 833.043 130.922 833.043 M130.922 829.339 Q136.732 829.339 139.788 833.946 Q142.867 838.529 142.867 847.279 Q142.867 856.006 139.788 860.612 Q136.732 865.195 130.922 865.195 Q125.112 865.195 122.033 860.612 Q118.978 856.006 118.978 847.279 Q118.978 838.529 122.033 833.946 Q125.112 829.339 130.922 829.339 Z" fill="#000000" fill-rule="nonzero" fill-opacity="1" /><polyline clip-path="url(#clip033)" style="stroke:#009af9; stroke-linecap:round; stroke-linejoin:round; stroke-width:4; stroke-opacity:1; fill:none" points="240.392,1134.89 242.445,1207.2 244.498,1143.91 246.55,1144.98 248.603,1197.86 250.656,1203.02 252.709,1203.41 254.762,1134.16 256.815,1198.61 258.868,1188.3 260.921,1198.49 262.974,1091.31 265.027,1188.6 267.079,1340.48 269.132,1104.67 271.185,1460.62 273.238,1089.19 275.291,1038.19 277.344,1180.05 279.397,944.519 281.45,1405.6 283.503,1238.02 285.555,1175.43 287.608,1129.79 289.661,1183.51 291.714,1179.62 293.767,1165.41 295.82,1131.87 297.873,1170.1 299.926,1174.22 301.979,1144.54 304.031,1255.01 306.084,1108.11 308.137,1195.36 310.19,1310.66 312.243,1228.55 314.296,1163.47 316.349,1090.11 318.402,1124.94 320.455,1185.34 322.507,1169.3 324.56,1171.99 326.613,1171.3 328.666,1159.66 330.719,1150.48 332.772,1159.65 334.825,1198.86 336.878,1219.97 338.931,1173.11 340.984,1170.55 343.036,1168.35 345.089,1178.57 347.142,1139.81 349.195,1163.03 351.248,1234.03 353.301,1246.68 355.354,1129.66 357.407,1127.26 359.46,1076.59 361.512,1192.59 363.565,1226.65 365.618,1121.87 367.671,1188.68 369.724,1348.4 371.777,1058.05 373.83,1124.1 375.883,907.959 377.936,1188.94 379.988,1177.31 382.041,1183.04 384.094,1276.25 386.147,1173.17 388.2,1149.68 390.253,1122.82 392.306,1126.24 394.359,1215.01 396.412,1217.62 398.464,1340.66 400.517,1150.08 402.57,1021.01 404.623,1172.4 406.676,1178.86 408.729,1155.28 410.782,1188.58 412.835,1159.58 414.888,1170.35 416.94,1163.1 418.993,1178.2 421.046,1184.36 423.099,1100.36 425.152,1152.62 427.205,1249.69 429.258,1180.41 431.311,1144.08 433.364,1140.18 435.417,1366.4 437.469,848.794 439.522,1025.77 441.575,1244.4 443.628,1106.12 445.681,1163.85 447.734,1127.73 449.787,1412.56 451.84,1301.36 453.893,1182.91 455.945,1539.41 457.998,1062.18 460.051,1382.04 462.104,1063.92 464.157,1071.43 466.21,1226.84 468.263,1221.05 470.316,627.287 472.369,783.93 474.421,1153.19 476.474,1138.27 478.527,1144.1 480.58,1060.23 482.633,1186.74 484.686,1157.51 486.739,1149.55 488.792,1184.41 490.845,1142 492.897,1240.06 494.95,1166.46 497.003,1175.16 499.056,1084.16 501.109,1144.59 503.162,1202.03 505.215,1090.99 507.268,1237.61 509.321,1347.36 511.374,971.921 513.426,1116.48 515.479,1264.22 517.532,1061.69 519.585,1203.41 521.638,1189.42 523.691,1170.96 525.744,1269.62 527.797,1125.88 529.85,1145.76 531.902,1250.06 533.955,1188.92 536.008,1167.23 538.061,1168.07 540.114,1145.57 542.167,1218.91 544.22,1379.21 546.273,1020.78 548.326,1056.18 550.378,1208.99 552.431,1241.2 554.484,1023.85 556.537,1214.39 558.59,1310.6 560.643,1118.22 562.696,1181.77 564.749,1155.79 566.802,1066.64 568.854,1159.3 570.907,1139.31 572.96,1143.88 575.013,1108.47 577.066,1333.93 579.119,1206.53 581.172,1145.94 583.225,1173.16 585.278,1171.65 587.331,1088 589.383,1073.63 591.436,1111.36 593.489,1166.54 595.542,1159.84 597.595,1228.89 599.648,1176.91 601.701,1182.11 603.754,1146.86 605.807,1087.85 607.859,1201.89 609.912,1247.09 611.965,1173.43 614.018,1101.82 616.071,1233.97 618.124,1231.87 620.177,1128.15 622.23,1132.41 624.283,1154.68 626.335,1221.86 628.388,1182.95 630.441,1111.05 632.494,1259.98 634.547,1246.12 636.6,1099.31 638.653,1289.79 640.706,1100.5 642.759,1226.67 644.811,1388.55 646.864,1439.77 648.917,1294.52 650.97,1689.59 653.023,1513.91 655.076,1432.42 657.129,1410.95 659.182,1135.71 661.235,1194.77 663.288,1241.22 665.34,1096.82 667.393,1250.33 669.446,1214.73 671.499,1141.94 673.552,1259.17 675.605,1413.82 677.658,889.933 679.711,1244.66 681.764,1206.47 683.816,1141.08 685.869,1265.43 687.922,1158.2 689.975,1294.36 692.028,1161.25 694.081,1142.46 696.134,1177.99 698.187,1158.29 700.24,1112.65 702.292,1217.55 704.345,1098.17 706.398,1139.91 708.451,1184.08 710.504,1177.59 712.557,1210.94 714.61,1141.44 716.663,1196.23 718.716,1147.78 720.768,1134.62 722.821,1175.15 724.874,1342.98 726.927,1227.22 728.98,1214.06 731.033,980.618 733.086,1117.52 735.139,1162.48 737.192,1140.93 739.245,1145.17 741.297,1123.19 743.35,1101.24 745.403,1182.43 747.456,1168.21 749.509,1173.23 751.562,1227.32 753.615,1129.43 755.668,1135.95 757.721,1190.37 759.773,754.245 761.826,790.127 763.879,990.05 765.932,1311.56 767.985,1171.67 770.038,1144.63 772.091,1236.73 774.144,1190 776.197,1144.75 778.249,1050.12 780.302,1141.5 782.355,1138.37 784.408,1186.35 786.461,1166.81 788.514,1150.51 790.567,1164.69 792.62,1129.94 794.673,1153.62 796.725,1188.45 798.778,1126.01 800.831,1164.77 802.884,1169.74 804.937,1189.01 806.99,1186.8 809.043,1188.02 811.096,1098.86 813.149,1203.75 815.202,1190.47 817.254,1180.77 819.307,1154 821.36,1155.23 823.413,1166.57 825.466,1140.73 827.519,1138.08 829.572,1167.8 831.625,1170.99 833.678,1152.46 835.73,1359.86 837.783,1251.93 839.836,1119.28 841.889,1118.57 843.942,1190.68 845.995,1230.43 848.048,1157.01 850.101,1158.91 852.154,1202.71 854.206,1142.52 856.259,1188.35 858.312,1146.69 860.365,1148.82 862.418,1172.07 864.471,1151.19 866.524,1191.39 868.577,1212.77 870.63,1147.74 872.682,1137.58 874.735,1156.73 876.788,1140.4 878.841,1122.48 880.894,1135.94 882.947,1084.12 885,1198.12 887.053,1171.67 889.106,1175.57 891.159,1169.6 893.211,1163.5 895.264,1230.59 897.317,1131.1 899.37,1177.59 901.423,1176.89 903.476,1142.62 905.529,1150.07 907.582,1089.8 909.635,1060.93 911.687,1219.33 913.74,1091.07 915.793,1223.01 917.846,1216.02 919.899,1153.38 921.952,1098.26 924.005,1131.93 926.058,1108.73 928.111,1092.02 930.163,1161.68 932.216,1171.96 934.269,1125.27 936.322,1187.27 938.375,1164.57 940.428,1120.35 942.481,1224.61 944.534,1085.69 946.587,479.041 948.639,1176.77 950.692,450.939 952.745,2117.37 954.798,1497.5 956.851,1006.35 958.904,665.147 960.957,832.044 963.01,1391.17 965.063,1173.01 967.116,1048.05 969.168,1415.4 971.221,1159.17 973.274,1206.35 975.327,1109.88 977.38,1157.36 979.433,1155.9 981.486,1162.39 983.539,1201.13 985.592,1115.39 987.644,1108.42 989.697,1107.8 991.75,1055.17 993.803,1159.62 995.856,1187.84 997.909,1143.08 999.962,1178.14 1002.01,1082.41 1004.07,1315.58 1006.12,1220.08 1008.17,1235.47 1010.23,1122.89 1012.28,1227.59 1014.33,1084.98 1016.38,903.316 1018.44,961.286 1020.49,1242.15 1022.54,1217.7 1024.6,1214.18 1026.65,1164.21 1028.7,1165.53 1030.76,1126.04 1032.81,1135.35 1034.86,1160.62 1036.91,1120.55 1038.97,1151.06 1041.02,1154.87 1043.07,1148.25 1045.13,1178.99 1047.18,1220.62 1049.23,1136.15 1051.28,1154.85 1053.34,1172.05 1055.39,1179.42 1057.44,1173.25 1059.5,1151.44 1061.55,1164.64 1063.6,1138.88 1065.65,1088.99 1067.71,1131.62 1069.76,1155.49 1071.81,1122.44 1073.87,1187.31 1075.92,1217.95 1077.97,1261.71 1080.02,1218.57 1082.08,1156.24 1084.13,1174.74 1086.18,1171.46 1088.24,1081.88 1090.29,1160.9 1092.34,1105.49 1094.39,1162.31 1096.45,1193.4 1098.5,1140.16 1100.55,1134.58 1102.61,1167.87 1104.66,1155.66 1106.71,1179.92 1108.77,1122.58 1110.82,1120.78 1112.87,1194.2 1114.92,1193.05 1116.98,1277.69 1119.03,1037.95 1121.08,1155.24 1123.14,1193.49 1125.19,1171.25 1127.24,1168.43 1129.29,1133.9 1131.35,1217.09 1133.4,1150.43 1135.45,1181.8 1137.51,1196.4 1139.56,1191.13 1141.61,1193.28 1143.66,1138.11 1145.72,1188.11 1147.77,1191.13 1149.82,1221.84 1151.88,863.834 1153.93,1342.02 1155.98,2398.29 1158.03,1597.67 1160.09,2689.97 1162.14,1130.18 1164.19,927.694 1166.25,720.67 1168.3,384.429 1170.35,391.31 1172.4,-47.5389 1174.46,1169.79 1176.51,1244.28 1178.56,970.355 1180.62,1111.88 1182.67,1073.26 1184.72,1006.1 1186.77,1220.41 1188.83,1188 1190.88,1164.82 1192.93,1191.61 1194.99,1193.74 1197.04,1140.52 1199.09,1268.59 1201.15,2011.33 1203.2,2024.28 1205.25,289.723 1207.3,344.73 1209.36,1944.66 1211.41,1011.73 1213.46,1498.48 1215.52,1680.93 1217.57,1406.38 1219.62,1275.54 1221.67,1190.02 1223.73,1161.55 1225.78,1162.1 1227.83,1235.92 1229.89,1152 1231.94,1154.74 1233.99,1169.64 1236.04,1147.05 1238.1,1169.02 1240.15,1158.78 1242.2,1154.5 1244.26,1206.01 1246.31,1195.51 1248.36,1210.68 1250.41,1176.18 1252.47,1222.67 1254.52,954.277 1256.57,1055.01 1258.63,848.545 1260.68,945.973 1262.73,1374.21 1264.78,1076.23 1266.84,1179.68 1268.89,1078.27 1270.94,2426.1 1273,-245.978 1275.05,3381.49 1277.1,2354.33 1279.16,-2556.7 1281.21,985.43 1283.26,1004.3 1285.31,1040.73 1287.37,1224.07 1289.42,1155.74 1291.47,1170.73 1293.53,1163.24 1295.58,1152.78 1297.63,1165.57 1299.68,1161.06 1301.74,1180.94 1303.79,1171.42 1305.84,1168.64 1307.9,1195.27 1309.95,1101.67 1312,1261.63 1314.05,1211.09 1316.11,1142.03 1318.16,776.149 1320.21,823.192 1322.27,1830.64 1324.32,442.701 1326.37,1050.79 1328.42,177.751 1330.48,1612.14 1332.53,-5515.87 1334.58,1619.31 1336.64,781.714 1338.69,1458.64 1340.74,1119.66 1342.79,1266.12 1344.85,1138.73 1346.9,1196.36 1348.95,1151.89 1351.01,1189.96 1353.06,1248.72 1355.11,1744.44 1357.16,524.978 1359.22,1047.76 1361.27,1262.49 1363.32,1000.83 1365.38,790.171 1367.43,1252.46 1369.48,1552.11 1371.54,3712.6 1373.59,-722.324 1375.64,980.569 1377.69,2764.96 1379.75,1195.79 1381.8,909.58 1383.85,620.812 1385.91,1606.74 1387.96,-121.279 1390.01,405.986 1392.06,1247.83 1394.12,1492.06 1396.17,1481.04 1398.22,1346.22 1400.28,1452.79 1402.33,1390.65 1404.38,1320.12 1406.43,1029.26 1408.49,1249.9 1410.54,1266.79 1412.59,1379.4 1414.65,1154.94 1416.7,1102.59 1418.75,1085.89 1420.8,1182.65 1422.86,1093.09 1424.91,1068.1 1426.96,1101.07 1429.02,1100.44 1431.07,1104.91 1433.12,1119.04 1435.17,1154.21 1437.23,1162.76 1439.28,1163.99 1441.33,1294.29 1443.39,1189.33 1445.44,1148.2 1447.49,1142.1 1449.55,1167.57 1451.6,1170.65 1453.65,1175.97 1455.7,1177.98 1457.76,1177.69 1459.81,1190.7 1461.86,1188.76 1463.92,1167.04 1465.97,1166.4 1468.02,1177 1470.07,1154.85 1472.13,1144.99 1474.18,1229.22 1476.23,1107.55 1478.29,1130.69 1480.34,1157.15 1482.39,1178.65 1484.44,1179.64 1486.5,1149.74 1488.55,1121.62 1490.6,1212.44 1492.66,1223.47 1494.71,1128.49 1496.76,1192.76 1498.81,1172.78 1500.87,1169.73 1502.92,1183.6 1504.97,1162.26 1507.03,1120.55 1509.08,1129.03 1511.13,1012.54 1513.18,1072.4 1515.24,1196.7 1517.29,1139.7 1519.34,1205.74 1521.4,1212.4 1523.45,1214.75 1525.5,1181.5 1527.55,1142.78 1529.61,1142.42 1531.66,1179.07 1533.71,1181.34 1535.77,1118.67 1537.82,1159.92 1539.87,1169.47 1541.93,1156.57 1543.98,1167.33 1546.03,1165.44 1548.08,1185.56 1550.14,1168.64 1552.19,1159.46 1554.24,1185.73 1556.3,1148.08 1558.35,1178.74 1560.4,1201.65 1562.45,1252.47 1564.51,1220.32 1566.56,1342.19 1568.61,1007.52 1570.67,1197.53 1572.72,1199.84 1574.77,1164.71 1576.82,1212.49 1578.88,1162.04 1580.93,1171.26 1582.98,1175.03 1585.04,1178.8 1587.09,1177.18 1589.14,1248.88 1591.19,1144.27 1593.25,1260.48 1595.3,1247.67 1597.35,1088.63 1599.41,266.587 1601.46,1469.75 1603.51,1448.5 1605.56,1613.22 1607.62,-173.751 1609.67,505.144 1611.72,1182.46 1613.78,1172.74 1615.83,1149.41 1617.88,1158.9 1619.94,1177.8 1621.99,1279.8 1624.04,1170.88 1626.09,1170.82 1628.15,1162.75 1630.2,1156.49 1632.25,1170.62 1634.31,1168.51 1636.36,1305.49 1638.41,1235.04 1640.46,1106.42 1642.52,1170.05 1644.57,1172.17 1646.62,1214.55 1648.68,1178.08 1650.73,1132.98 1652.78,1202.1 1654.83,1080.42 1656.89,1418.6 1658.94,2226.3 1660.99,2517.7 1663.05,1171.32 1665.1,1118.56 1667.15,1127.39 1669.2,1260.31 1671.26,1228.72 1673.31,1172.27 1675.36,1177.91 1677.42,1165.56 1679.47,1165.2 1681.52,1170.33 1683.57,1168.94 1685.63,1160.02 1687.68,1157.16 1689.73,1138.5 1691.79,1119.94 1693.84,1113.5 1695.89,1115.48 1697.94,1209.77 1700,1193.32 1702.05,1195.26 1704.1,1173.43 1706.16,1151.73 1708.21,1185.17 1710.26,1160.37 1712.32,1199.31 1714.37,1228.61 1716.42,1214.56 1718.47,1183.89 1720.53,1158.43 1722.58,1160.76 1724.63,1156.87 1726.69,1178.33 1728.74,1174.19 1730.79,1118.9 1732.84,1383.45 1734.9,935.217 1736.95,1696.63 1739,1182.86 1741.06,818.272 1743.11,1343.75 1745.16,1374.53 1747.21,388.674 1749.27,1112.58 1751.32,1136.17 1753.37,1187.8 1755.43,1209.6 1757.48,1065.92 1759.53,1084.51 1761.58,1208.87 1763.64,1226.23 1765.69,1212.97 1767.74,1345.72 1769.8,1456.68 1771.85,1338.36 1773.9,1412.86 1775.95,1514.15 1778.01,1400.38 1780.06,1147.08 1782.11,1134.84 1784.17,1140.48 1786.22,1144.73 1788.27,1178.31 1790.33,1184.3 1792.38,1098.56 1794.43,1053.24 1796.48,1370.73 1798.54,1075.73 1800.59,1140.03 1802.64,1246.7 1804.7,1322.93 1806.75,1198.8 1808.8,1245.37 1810.85,1113.03 1812.91,1174.7 1814.96,1194.46 1817.01,1211 1819.07,1153.66 1821.12,1119.27 1823.17,1113.79 1825.22,1239.3 1827.28,1213.22 1829.33,1128.31 1831.38,1059.24 1833.44,1163.03 1835.49,1190.48 1837.54,1176.39 1839.59,1136.55 1841.65,1172.65 1843.7,1165.07 1845.75,1143.41 1847.81,1192.85 1849.86,1129.11 1851.91,1189.5 1853.96,1187.16 1856.02,1160.87 1858.07,1070.41 1860.12,1174.93 1862.18,1208.97 1864.23,1233.8 1866.28,1125.41 1868.34,1272.47 1870.39,1118.14 1872.44,1020.67 1874.49,1031.55 1876.55,1055.5 1878.6,1416.14 1880.65,847.132 1882.71,1340.64 1884.76,2009.8 1886.81,2373.01 1888.86,1673 1890.92,1276.52 1892.97,1311.1 1895.02,1089.43 1897.08,1226.69 1899.13,1206.55 1901.18,1119.74 1903.23,1113.07 1905.29,1195.38 1907.34,1135.73 1909.39,1163.11 1911.45,1155.37 1913.5,1177.79 1915.55,1060.89 1917.6,1177.44 1919.66,1301.07 1921.71,1218.84 1923.76,1404.14 1925.82,305.294 1927.87,2412.07 1929.92,265.407 1931.97,2029.96 1934.03,1744.32 1936.08,2357.04 1938.13,1177.08 1940.19,1134.23 1942.24,1247.16 1944.29,1076.86 1946.34,1019.63 1948.4,1190.88 1950.45,1152.59 1952.5,1186.06 1954.56,1182.65 1956.61,1161.14 1958.66,1165.43 1960.72,1165.32 1962.77,1161.66 1964.82,1167.12 1966.87,1168.38 1968.93,1166.34 1970.98,1156.71 1973.03,1193.46 1975.09,311.183 1977.14,611.899 1979.19,2377.41 1981.24,2261.26 1983.3,1367.74 1985.35,1159.67 1987.4,916.967 1989.46,1216.13 1991.51,1019.97 1993.56,1170.24 1995.61,1686.64 1997.67,1463.07 1999.72,1573.53 2001.77,1080.83 2003.83,1158.64 2005.88,1169.56 2007.93,1112.64 2009.98,1222.77 2012.04,1215.29 2014.09,1160.26 2016.14,1181.83 2018.2,1151.03 2020.25,1172.95 2022.3,1173.08 2024.35,1052.62 2026.41,1572.78 2028.46,1113.41 2030.51,1340.71 2032.57,1329.79 2034.62,1854.5 2036.67,1053.34 2038.73,1249.12 2040.78,1101.46 2042.83,1161.74 2044.88,1052.62 2046.94,1153.5 2048.99,1132.68 2051.04,1178.13 2053.1,1182.5 2055.15,1175.18 2057.2,1171.99 2059.25,1154.65 2061.31,1175.99 2063.36,998.936 2065.41,840.715 2067.47,1396.23 2069.52,1030.15 2071.57,1192.26 2073.62,882.349 2075.68,747.473 2077.73,768.902 2079.78,1179.39 2081.84,1208.12 2083.89,1124.74 2085.94,1138.56 2087.99,1206.25 2090.05,1141.41 2092.1,1212.35 2094.15,1184.35 2096.21,1152.5 2098.26,1219.11 2100.31,1187.24 2102.36,1138.27 2104.42,1147.12 2106.47,1219.41 2108.52,1200.54 2110.58,1165.71 2112.63,1257.5 2114.68,1903.74 2116.73,-43.4417 2118.79,1503.78 2120.84,1397.16 2122.89,1400.31 2124.95,1721.21 2127,2243.56 2129.05,1468.97 2131.11,984.771 2133.16,1397.11 2135.21,1510.1 2137.26,1009.41 2139.32,1338.08 2141.37,1225.44 2143.42,1201.9 2145.48,1171.21 2147.53,1167.57 2149.58,1265.22 2151.63,1034.43 2153.69,1190.99 2155.74,1177.56 2157.79,1231.48 2159.85,1156.52 2161.9,1172.12 2163.95,1163.81 2166,1172.72 2168.06,1165.43 2170.11,1168.17 2172.16,1156.55 2174.22,1192.79 2176.27,1109.18 2178.32,1146.86 2180.37,1198.25 2182.43,1200.03 2184.48,1170.89 2186.53,1178.19 2188.59,1152.67 2190.64,1166.98 2192.69,1151.9 2194.74,1199.19 2196.8,1152.02 2198.85,1154.14 2200.9,1309.14 2202.96,1113.45 2205.01,1111.53 2207.06,1141.84 2209.12,1478.58 2211.17,1067.12 2213.22,1207 2215.27,1153.12 2217.33,1147.95 2219.38,1164.84 2221.43,1209.29 2223.49,1183.58 2225.54,1129.2 2227.59,1190.33 2229.64,1212.22 2231.7,1158.42 2233.75,1178.83 2235.8,1163.04 2237.86,1203.27 2239.91,1146.48 2241.96,1228.56 2244.01,1267.82 2246.07,1242.1 2248.12,1180.2 2250.17,1080.6 2252.23,1092.6 2254.28,1190.05 2256.33,1220.64 2258.38,1223.87 2260.44,1142.85 2262.49,1159.11 2264.54,1162.45 2266.6,1161.07 2268.65,1159.27 2270.7,1155.76 2272.75,1128.04 2274.81,1132.26 2276.86,1226.92 2278.91,1197.77 2280.97,1191.85 2283.02,1197.51 2285.07,1200.75 2287.12,1207.25 2289.18,1116.33 2291.23,1207.18 "/>
<path clip-path="url(#clip030)" d="M1942.7 972.231 L2280.29 972.231 L2280.29 868.551 L1942.7 868.551  Z" fill="#ffffff" fill-rule="evenodd" fill-opacity="1"/>
<polyline clip-path="url(#clip030)" style="stroke:#000000; stroke-linecap:round; stroke-linejoin:round; stroke-width:4; stroke-opacity:1; fill:none" points="1942.7,972.231 2280.29,972.231 2280.29,868.551 1942.7,868.551 1942.7,972.231 "/>
<polyline clip-path="url(#clip030)" style="stroke:#009af9; stroke-linecap:round; stroke-linejoin:round; stroke-width:4; stroke-opacity:1; fill:none" points="1966.85,920.391 2111.78,920.391 "/>
<path clip-path="url(#clip030)" d="M2161.49 932.74 L2161.49 923.458 L2153.85 923.458 L2153.85 919.615 L2166.12 919.615 L2166.12 934.453 Q2163.41 936.375 2160.14 937.37 Q2156.88 938.342 2153.18 938.342 Q2145.07 938.342 2140.49 933.62 Q2135.93 928.875 2135.93 920.426 Q2135.93 911.953 2140.49 907.231 Q2145.07 902.486 2153.18 902.486 Q2156.56 902.486 2159.59 903.319 Q2162.64 904.153 2165.21 905.773 L2165.21 910.75 Q2162.62 908.551 2159.7 907.44 Q2156.79 906.328 2153.57 906.328 Q2147.23 906.328 2144.03 909.87 Q2140.86 913.412 2140.86 920.426 Q2140.86 927.416 2144.03 930.958 Q2147.23 934.5 2153.57 934.5 Q2156.05 934.5 2157.99 934.083 Q2159.94 933.643 2161.49 932.74 Z" fill="#000000" fill-rule="nonzero" fill-opacity="1" /><path clip-path="url(#clip030)" d="M2179.33 906.953 L2179.33 919.94 L2185.21 919.94 Q2188.48 919.94 2190.26 918.25 Q2192.04 916.56 2192.04 913.435 Q2192.04 910.333 2190.26 908.643 Q2188.48 906.953 2185.21 906.953 L2179.33 906.953 M2174.66 903.111 L2185.21 903.111 Q2191.02 903.111 2193.99 905.75 Q2196.97 908.365 2196.97 913.435 Q2196.97 918.551 2193.99 921.166 Q2191.02 923.782 2185.21 923.782 L2179.33 923.782 L2179.33 937.671 L2174.66 937.671 L2174.66 903.111 Z" fill="#000000" fill-rule="nonzero" fill-opacity="1" /><path clip-path="url(#clip030)" d="M2223.96 904.245 L2223.96 908.805 Q2221.3 907.532 2218.94 906.907 Q2216.58 906.282 2214.38 906.282 Q2210.56 906.282 2208.48 907.764 Q2206.42 909.245 2206.42 911.977 Q2206.42 914.268 2207.78 915.449 Q2209.17 916.606 2213.01 917.324 L2215.84 917.902 Q2221.07 918.898 2223.55 921.421 Q2226.05 923.921 2226.05 928.134 Q2226.05 933.157 2222.67 935.75 Q2219.31 938.342 2212.81 938.342 Q2210.35 938.342 2207.57 937.787 Q2204.82 937.231 2201.86 936.143 L2201.86 931.328 Q2204.7 932.926 2207.44 933.736 Q2210.17 934.546 2212.81 934.546 Q2216.81 934.546 2218.99 932.972 Q2221.16 931.398 2221.16 928.481 Q2221.16 925.935 2219.59 924.5 Q2218.04 923.064 2214.47 922.347 L2211.62 921.791 Q2206.39 920.75 2204.06 918.527 Q2201.72 916.305 2201.72 912.347 Q2201.72 907.764 2204.94 905.125 Q2208.18 902.486 2213.85 902.486 Q2216.28 902.486 2218.8 902.926 Q2221.32 903.366 2223.96 904.245 Z" fill="#000000" fill-rule="nonzero" fill-opacity="1" /><path clip-path="url(#clip030)" d="M2254.06 904.245 L2254.06 908.805 Q2251.39 907.532 2249.03 906.907 Q2246.67 906.282 2244.47 906.282 Q2240.65 906.282 2238.57 907.764 Q2236.51 909.245 2236.51 911.977 Q2236.51 914.268 2237.87 915.449 Q2239.26 916.606 2243.11 917.324 L2245.93 917.902 Q2251.16 918.898 2253.64 921.421 Q2256.14 923.921 2256.14 928.134 Q2256.14 933.157 2252.76 935.75 Q2249.4 938.342 2242.9 938.342 Q2240.44 938.342 2237.67 937.787 Q2234.91 937.231 2231.95 936.143 L2231.95 931.328 Q2234.8 932.926 2237.53 933.736 Q2240.26 934.546 2242.9 934.546 Q2246.9 934.546 2249.08 932.972 Q2251.25 931.398 2251.25 928.481 Q2251.25 925.935 2249.68 924.5 Q2248.13 923.064 2244.56 922.347 L2241.72 921.791 Q2236.49 920.75 2234.15 918.527 Q2231.81 916.305 2231.81 912.347 Q2231.81 907.764 2235.03 905.125 Q2238.27 902.486 2243.94 902.486 Q2246.37 902.486 2248.89 902.926 Q2251.42 903.366 2254.06 904.245 Z" fill="#000000" fill-rule="nonzero" fill-opacity="1" /></svg>
