<?xml version="1.0" encoding="utf-8"?>
<svg xmlns="http://www.w3.org/2000/svg" xmlns:xlink="http://www.w3.org/1999/xlink" width="600" height="400" viewBox="0 0 2400 1600">
<defs>
  <clipPath id="clip480">
    <rect x="0" y="0" width="2400" height="1600"/>
  </clipPath>
</defs>
<path clip-path="url(#clip480)" d="M0 1600 L2400 1600 L2400 0 L0 0  Z" fill="#ffffff" fill-rule="evenodd" fill-opacity="1"/>
<defs>
  <clipPath id="clip481">
    <rect x="480" y="0" width="1681" height="1600"/>
  </clipPath>
</defs>
<path clip-path="url(#clip480)" d="M186.274 1486.45 L2352.76 1486.45 L2352.76 47.2441 L186.274 47.2441  Z" fill="#ffffff" fill-rule="evenodd" fill-opacity="1"/>
<defs>
  <clipPath id="clip482">
    <rect x="186" y="47" width="2167" height="1440"/>
  </clipPath>
</defs>
<polyline clip-path="url(#clip482)" style="stroke:#000000; stroke-linecap:round; stroke-linejoin:round; stroke-width:2; stroke-opacity:0.1; fill:none" points="247.59,1486.45 247.59,47.2441 "/>
<polyline clip-path="url(#clip482)" style="stroke:#000000; stroke-linecap:round; stroke-linejoin:round; stroke-width:2; stroke-opacity:0.1; fill:none" points="758.552,1486.45 758.552,47.2441 "/>
<polyline clip-path="url(#clip482)" style="stroke:#000000; stroke-linecap:round; stroke-linejoin:round; stroke-width:2; stroke-opacity:0.1; fill:none" points="1269.51,1486.45 1269.51,47.2441 "/>
<polyline clip-path="url(#clip482)" style="stroke:#000000; stroke-linecap:round; stroke-linejoin:round; stroke-width:2; stroke-opacity:0.1; fill:none" points="1780.48,1486.45 1780.48,47.2441 "/>
<polyline clip-path="url(#clip482)" style="stroke:#000000; stroke-linecap:round; stroke-linejoin:round; stroke-width:2; stroke-opacity:0.1; fill:none" points="2291.44,1486.45 2291.44,47.2441 "/>
<polyline clip-path="url(#clip480)" style="stroke:#000000; stroke-linecap:round; stroke-linejoin:round; stroke-width:4; stroke-opacity:1; fill:none" points="186.274,1486.45 2352.76,1486.45 "/>
<polyline clip-path="url(#clip480)" style="stroke:#000000; stroke-linecap:round; stroke-linejoin:round; stroke-width:4; stroke-opacity:1; fill:none" points="247.59,1486.45 247.59,1467.55 "/>
<polyline clip-path="url(#clip480)" style="stroke:#000000; stroke-linecap:round; stroke-linejoin:round; stroke-width:4; stroke-opacity:1; fill:none" points="758.552,1486.45 758.552,1467.55 "/>
<polyline clip-path="url(#clip480)" style="stroke:#000000; stroke-linecap:round; stroke-linejoin:round; stroke-width:4; stroke-opacity:1; fill:none" points="1269.51,1486.45 1269.51,1467.55 "/>
<polyline clip-path="url(#clip480)" style="stroke:#000000; stroke-linecap:round; stroke-linejoin:round; stroke-width:4; stroke-opacity:1; fill:none" points="1780.48,1486.45 1780.48,1467.55 "/>
<polyline clip-path="url(#clip480)" style="stroke:#000000; stroke-linecap:round; stroke-linejoin:round; stroke-width:4; stroke-opacity:1; fill:none" points="2291.44,1486.45 2291.44,1467.55 "/>
<path clip-path="url(#clip480)" d="M201.652 1532.02 L231.328 1532.02 L231.328 1535.95 L201.652 1535.95 L201.652 1532.02 Z" fill="#000000" fill-rule="nonzero" fill-opacity="1" /><path clip-path="url(#clip480)" d="M242.231 1544.91 L249.87 1544.91 L249.87 1518.55 L241.559 1520.21 L241.559 1515.95 L249.823 1514.29 L254.499 1514.29 L254.499 1544.91 L262.138 1544.91 L262.138 1548.85 L242.231 1548.85 L242.231 1544.91 Z" fill="#000000" fill-rule="nonzero" fill-opacity="1" /><path clip-path="url(#clip480)" d="M281.582 1517.37 Q277.971 1517.37 276.143 1520.93 Q274.337 1524.47 274.337 1531.6 Q274.337 1538.71 276.143 1542.27 Q277.971 1545.82 281.582 1545.82 Q285.217 1545.82 287.022 1542.27 Q288.851 1538.71 288.851 1531.6 Q288.851 1524.47 287.022 1520.93 Q285.217 1517.37 281.582 1517.37 M281.582 1513.66 Q287.393 1513.66 290.448 1518.27 Q293.527 1522.85 293.527 1531.6 Q293.527 1540.33 290.448 1544.94 Q287.393 1549.52 281.582 1549.52 Q275.772 1549.52 272.694 1544.94 Q269.638 1540.33 269.638 1531.6 Q269.638 1522.85 272.694 1518.27 Q275.772 1513.66 281.582 1513.66 Z" fill="#000000" fill-rule="nonzero" fill-opacity="1" /><path clip-path="url(#clip480)" d="M728.194 1532.02 L757.869 1532.02 L757.869 1535.95 L728.194 1535.95 L728.194 1532.02 Z" fill="#000000" fill-rule="nonzero" fill-opacity="1" /><path clip-path="url(#clip480)" d="M768.008 1514.29 L786.365 1514.29 L786.365 1518.22 L772.291 1518.22 L772.291 1526.7 Q773.309 1526.35 774.328 1526.19 Q775.346 1526 776.365 1526 Q782.152 1526 785.531 1529.17 Q788.911 1532.34 788.911 1537.76 Q788.911 1543.34 785.439 1546.44 Q781.966 1549.52 775.647 1549.52 Q773.471 1549.52 771.203 1549.15 Q768.957 1548.78 766.55 1548.04 L766.55 1543.34 Q768.633 1544.47 770.855 1545.03 Q773.078 1545.58 775.554 1545.58 Q779.559 1545.58 781.897 1543.48 Q784.235 1541.37 784.235 1537.76 Q784.235 1534.15 781.897 1532.04 Q779.559 1529.94 775.554 1529.94 Q773.679 1529.94 771.804 1530.35 Q769.953 1530.77 768.008 1531.65 L768.008 1514.29 Z" fill="#000000" fill-rule="nonzero" fill-opacity="1" /><path clip-path="url(#clip480)" d="M1269.51 1517.37 Q1265.9 1517.37 1264.08 1520.93 Q1262.27 1524.47 1262.27 1531.6 Q1262.27 1538.71 1264.08 1542.27 Q1265.9 1545.82 1269.51 1545.82 Q1273.15 1545.82 1274.95 1542.27 Q1276.78 1538.71 1276.78 1531.6 Q1276.78 1524.47 1274.95 1520.93 Q1273.15 1517.37 1269.51 1517.37 M1269.51 1513.66 Q1275.33 1513.66 1278.38 1518.27 Q1281.46 1522.85 1281.46 1531.6 Q1281.46 1540.33 1278.38 1544.94 Q1275.33 1549.52 1269.51 1549.52 Q1263.7 1549.52 1260.63 1544.94 Q1257.57 1540.33 1257.57 1531.6 Q1257.57 1522.85 1260.63 1518.27 Q1263.7 1513.66 1269.51 1513.66 Z" fill="#000000" fill-rule="nonzero" fill-opacity="1" /><path clip-path="url(#clip480)" d="M1770.76 1514.29 L1789.11 1514.29 L1789.11 1518.22 L1775.04 1518.22 L1775.04 1526.7 Q1776.06 1526.35 1777.07 1526.19 Q1778.09 1526 1779.11 1526 Q1784.9 1526 1788.28 1529.17 Q1791.66 1532.34 1791.66 1537.76 Q1791.66 1543.34 1788.19 1546.44 Q1784.71 1549.52 1778.39 1549.52 Q1776.22 1549.52 1773.95 1549.15 Q1771.7 1548.78 1769.3 1548.04 L1769.3 1543.34 Q1771.38 1544.47 1773.6 1545.03 Q1775.82 1545.58 1778.3 1545.58 Q1782.31 1545.58 1784.64 1543.48 Q1786.98 1541.37 1786.98 1537.76 Q1786.98 1534.15 1784.64 1532.04 Q1782.31 1529.94 1778.3 1529.94 Q1776.43 1529.94 1774.55 1530.35 Q1772.7 1530.77 1770.76 1531.65 L1770.76 1514.29 Z" fill="#000000" fill-rule="nonzero" fill-opacity="1" /><path clip-path="url(#clip480)" d="M2266.13 1544.91 L2273.77 1544.91 L2273.77 1518.55 L2265.46 1520.21 L2265.46 1515.95 L2273.72 1514.29 L2278.4 1514.29 L2278.4 1544.91 L2286.04 1544.91 L2286.04 1548.85 L2266.13 1548.85 L2266.13 1544.91 Z" fill="#000000" fill-rule="nonzero" fill-opacity="1" /><path clip-path="url(#clip480)" d="M2305.48 1517.37 Q2301.87 1517.37 2300.04 1520.93 Q2298.23 1524.47 2298.23 1531.6 Q2298.23 1538.71 2300.04 1542.27 Q2301.87 1545.82 2305.48 1545.82 Q2309.11 1545.82 2310.92 1542.27 Q2312.75 1538.71 2312.75 1531.6 Q2312.75 1524.47 2310.92 1520.93 Q2309.11 1517.37 2305.48 1517.37 M2305.48 1513.66 Q2311.29 1513.66 2314.35 1518.27 Q2317.42 1522.85 2317.42 1531.6 Q2317.42 1540.33 2314.35 1544.94 Q2311.29 1549.52 2305.48 1549.52 Q2299.67 1549.52 2296.59 1544.94 Q2293.54 1540.33 2293.54 1531.6 Q2293.54 1522.85 2296.59 1518.27 Q2299.67 1513.66 2305.48 1513.66 Z" fill="#000000" fill-rule="nonzero" fill-opacity="1" /><polyline clip-path="url(#clip482)" style="stroke:#000000; stroke-linecap:round; stroke-linejoin:round; stroke-width:2; stroke-opacity:0.1; fill:none" points="186.274,1445.72 2352.76,1445.72 "/>
<polyline clip-path="url(#clip482)" style="stroke:#000000; stroke-linecap:round; stroke-linejoin:round; stroke-width:2; stroke-opacity:0.1; fill:none" points="186.274,1208.36 2352.76,1208.36 "/>
<polyline clip-path="url(#clip482)" style="stroke:#000000; stroke-linecap:round; stroke-linejoin:round; stroke-width:2; stroke-opacity:0.1; fill:none" points="186.274,971.014 2352.76,971.014 "/>
<polyline clip-path="url(#clip482)" style="stroke:#000000; stroke-linecap:round; stroke-linejoin:round; stroke-width:2; stroke-opacity:0.1; fill:none" points="186.274,733.662 2352.76,733.662 "/>
<polyline clip-path="url(#clip482)" style="stroke:#000000; stroke-linecap:round; stroke-linejoin:round; stroke-width:2; stroke-opacity:0.1; fill:none" points="186.274,496.311 2352.76,496.311 "/>
<polyline clip-path="url(#clip482)" style="stroke:#000000; stroke-linecap:round; stroke-linejoin:round; stroke-width:2; stroke-opacity:0.1; fill:none" points="186.274,258.96 2352.76,258.96 "/>
<polyline clip-path="url(#clip480)" style="stroke:#000000; stroke-linecap:round; stroke-linejoin:round; stroke-width:4; stroke-opacity:1; fill:none" points="186.274,1486.45 186.274,47.2441 "/>
<polyline clip-path="url(#clip480)" style="stroke:#000000; stroke-linecap:round; stroke-linejoin:round; stroke-width:4; stroke-opacity:1; fill:none" points="186.274,1445.72 205.172,1445.72 "/>
<polyline clip-path="url(#clip480)" style="stroke:#000000; stroke-linecap:round; stroke-linejoin:round; stroke-width:4; stroke-opacity:1; fill:none" points="186.274,1208.36 205.172,1208.36 "/>
<polyline clip-path="url(#clip480)" style="stroke:#000000; stroke-linecap:round; stroke-linejoin:round; stroke-width:4; stroke-opacity:1; fill:none" points="186.274,971.014 205.172,971.014 "/>
<polyline clip-path="url(#clip480)" style="stroke:#000000; stroke-linecap:round; stroke-linejoin:round; stroke-width:4; stroke-opacity:1; fill:none" points="186.274,733.662 205.172,733.662 "/>
<polyline clip-path="url(#clip480)" style="stroke:#000000; stroke-linecap:round; stroke-linejoin:round; stroke-width:4; stroke-opacity:1; fill:none" points="186.274,496.311 205.172,496.311 "/>
<polyline clip-path="url(#clip480)" style="stroke:#000000; stroke-linecap:round; stroke-linejoin:round; stroke-width:4; stroke-opacity:1; fill:none" points="186.274,258.96 205.172,258.96 "/>
<path clip-path="url(#clip480)" d="M62.9365 1431.51 Q59.3254 1431.51 57.4967 1435.08 Q55.6912 1438.62 55.6912 1445.75 Q55.6912 1452.86 57.4967 1456.42 Q59.3254 1459.96 62.9365 1459.96 Q66.5707 1459.96 68.3763 1456.42 Q70.205 1452.86 70.205 1445.75 Q70.205 1438.62 68.3763 1435.08 Q66.5707 1431.51 62.9365 1431.51 M62.9365 1427.81 Q68.7467 1427.81 71.8022 1432.42 Q74.8809 1437 74.8809 1445.75 Q74.8809 1454.48 71.8022 1459.08 Q68.7467 1463.67 62.9365 1463.67 Q57.1264 1463.67 54.0477 1459.08 Q50.9921 1454.48 50.9921 1445.75 Q50.9921 1437 54.0477 1432.42 Q57.1264 1427.81 62.9365 1427.81 Z" fill="#000000" fill-rule="nonzero" fill-opacity="1" /><path clip-path="url(#clip480)" d="M83.0984 1457.12 L87.9827 1457.12 L87.9827 1463 L83.0984 1463 L83.0984 1457.12 Z" fill="#000000" fill-rule="nonzero" fill-opacity="1" /><path clip-path="url(#clip480)" d="M108.168 1431.51 Q104.557 1431.51 102.728 1435.08 Q100.922 1438.62 100.922 1445.75 Q100.922 1452.86 102.728 1456.42 Q104.557 1459.96 108.168 1459.96 Q111.802 1459.96 113.608 1456.42 Q115.436 1452.86 115.436 1445.75 Q115.436 1438.62 113.608 1435.08 Q111.802 1431.51 108.168 1431.51 M108.168 1427.81 Q113.978 1427.81 117.033 1432.42 Q120.112 1437 120.112 1445.75 Q120.112 1454.48 117.033 1459.08 Q113.978 1463.67 108.168 1463.67 Q102.358 1463.67 99.2789 1459.08 Q96.2234 1454.48 96.2234 1445.75 Q96.2234 1437 99.2789 1432.42 Q102.358 1427.81 108.168 1427.81 Z" fill="#000000" fill-rule="nonzero" fill-opacity="1" /><path clip-path="url(#clip480)" d="M138.33 1431.51 Q134.719 1431.51 132.89 1435.08 Q131.084 1438.62 131.084 1445.75 Q131.084 1452.86 132.89 1456.42 Q134.719 1459.96 138.33 1459.96 Q141.964 1459.96 143.769 1456.42 Q145.598 1452.86 145.598 1445.75 Q145.598 1438.62 143.769 1435.08 Q141.964 1431.51 138.33 1431.51 M138.33 1427.81 Q144.14 1427.81 147.195 1432.42 Q150.274 1437 150.274 1445.75 Q150.274 1454.48 147.195 1459.08 Q144.14 1463.67 138.33 1463.67 Q132.519 1463.67 129.441 1459.08 Q126.385 1454.48 126.385 1445.75 Q126.385 1437 129.441 1432.42 Q132.519 1427.81 138.33 1427.81 Z" fill="#000000" fill-rule="nonzero" fill-opacity="1" /><path clip-path="url(#clip480)" d="M63.9319 1194.16 Q60.3208 1194.16 58.4921 1197.73 Q56.6865 1201.27 56.6865 1208.4 Q56.6865 1215.51 58.4921 1219.07 Q60.3208 1222.61 63.9319 1222.61 Q67.5661 1222.61 69.3717 1219.07 Q71.2004 1215.51 71.2004 1208.4 Q71.2004 1201.27 69.3717 1197.73 Q67.5661 1194.16 63.9319 1194.16 M63.9319 1190.46 Q69.742 1190.46 72.7976 1195.07 Q75.8763 1199.65 75.8763 1208.4 Q75.8763 1217.13 72.7976 1221.73 Q69.742 1226.32 63.9319 1226.32 Q58.1217 1226.32 55.043 1221.73 Q51.9875 1217.13 51.9875 1208.4 Q51.9875 1199.65 55.043 1195.07 Q58.1217 1190.46 63.9319 1190.46 Z" fill="#000000" fill-rule="nonzero" fill-opacity="1" /><path clip-path="url(#clip480)" d="M84.0938 1219.77 L88.978 1219.77 L88.978 1225.64 L84.0938 1225.64 L84.0938 1219.77 Z" fill="#000000" fill-rule="nonzero" fill-opacity="1" /><path clip-path="url(#clip480)" d="M109.163 1194.16 Q105.552 1194.16 103.723 1197.73 Q101.918 1201.27 101.918 1208.4 Q101.918 1215.51 103.723 1219.07 Q105.552 1222.61 109.163 1222.61 Q112.797 1222.61 114.603 1219.07 Q116.432 1215.51 116.432 1208.4 Q116.432 1201.27 114.603 1197.73 Q112.797 1194.16 109.163 1194.16 M109.163 1190.46 Q114.973 1190.46 118.029 1195.07 Q121.107 1199.65 121.107 1208.4 Q121.107 1217.13 118.029 1221.73 Q114.973 1226.32 109.163 1226.32 Q103.353 1226.32 100.274 1221.73 Q97.2187 1217.13 97.2187 1208.4 Q97.2187 1199.65 100.274 1195.07 Q103.353 1190.46 109.163 1190.46 Z" fill="#000000" fill-rule="nonzero" fill-opacity="1" /><path clip-path="url(#clip480)" d="M129.371 1191.08 L147.728 1191.08 L147.728 1195.02 L133.654 1195.02 L133.654 1203.49 Q134.672 1203.14 135.691 1202.98 Q136.709 1202.8 137.728 1202.8 Q143.515 1202.8 146.894 1205.97 Q150.274 1209.14 150.274 1214.56 Q150.274 1220.14 146.802 1223.24 Q143.33 1226.32 137.01 1226.32 Q134.834 1226.32 132.566 1225.95 Q130.32 1225.58 127.913 1224.83 L127.913 1220.14 Q129.996 1221.27 132.219 1221.83 Q134.441 1222.38 136.918 1222.38 Q140.922 1222.38 143.26 1220.27 Q145.598 1218.17 145.598 1214.56 Q145.598 1210.95 143.26 1208.84 Q140.922 1206.73 136.918 1206.73 Q135.043 1206.73 133.168 1207.15 Q131.316 1207.57 129.371 1208.45 L129.371 1191.08 Z" fill="#000000" fill-rule="nonzero" fill-opacity="1" /><path clip-path="url(#clip480)" d="M62.9365 956.812 Q59.3254 956.812 57.4967 960.377 Q55.6912 963.919 55.6912 971.048 Q55.6912 978.155 57.4967 981.719 Q59.3254 985.261 62.9365 985.261 Q66.5707 985.261 68.3763 981.719 Q70.205 978.155 70.205 971.048 Q70.205 963.919 68.3763 960.377 Q66.5707 956.812 62.9365 956.812 M62.9365 953.109 Q68.7467 953.109 71.8022 957.715 Q74.8809 962.298 74.8809 971.048 Q74.8809 979.775 71.8022 984.381 Q68.7467 988.965 62.9365 988.965 Q57.1264 988.965 54.0477 984.381 Q50.9921 979.775 50.9921 971.048 Q50.9921 962.298 54.0477 957.715 Q57.1264 953.109 62.9365 953.109 Z" fill="#000000" fill-rule="nonzero" fill-opacity="1" /><path clip-path="url(#clip480)" d="M83.0984 982.414 L87.9827 982.414 L87.9827 988.294 L83.0984 988.294 L83.0984 982.414 Z" fill="#000000" fill-rule="nonzero" fill-opacity="1" /><path clip-path="url(#clip480)" d="M98.978 984.358 L106.617 984.358 L106.617 957.993 L98.3067 959.659 L98.3067 955.4 L106.571 953.734 L111.246 953.734 L111.246 984.358 L118.885 984.358 L118.885 988.294 L98.978 988.294 L98.978 984.358 Z" fill="#000000" fill-rule="nonzero" fill-opacity="1" /><path clip-path="url(#clip480)" d="M138.33 956.812 Q134.719 956.812 132.89 960.377 Q131.084 963.919 131.084 971.048 Q131.084 978.155 132.89 981.719 Q134.719 985.261 138.33 985.261 Q141.964 985.261 143.769 981.719 Q145.598 978.155 145.598 971.048 Q145.598 963.919 143.769 960.377 Q141.964 956.812 138.33 956.812 M138.33 953.109 Q144.14 953.109 147.195 957.715 Q150.274 962.298 150.274 971.048 Q150.274 979.775 147.195 984.381 Q144.14 988.965 138.33 988.965 Q132.519 988.965 129.441 984.381 Q126.385 979.775 126.385 971.048 Q126.385 962.298 129.441 957.715 Q132.519 953.109 138.33 953.109 Z" fill="#000000" fill-rule="nonzero" fill-opacity="1" /><path clip-path="url(#clip480)" d="M63.9319 719.461 Q60.3208 719.461 58.4921 723.026 Q56.6865 726.568 56.6865 733.697 Q56.6865 740.804 58.4921 744.368 Q60.3208 747.91 63.9319 747.91 Q67.5661 747.91 69.3717 744.368 Q71.2004 740.804 71.2004 733.697 Q71.2004 726.568 69.3717 723.026 Q67.5661 719.461 63.9319 719.461 M63.9319 715.757 Q69.742 715.757 72.7976 720.364 Q75.8763 724.947 75.8763 733.697 Q75.8763 742.424 72.7976 747.03 Q69.742 751.614 63.9319 751.614 Q58.1217 751.614 55.043 747.03 Q51.9875 742.424 51.9875 733.697 Q51.9875 724.947 55.043 720.364 Q58.1217 715.757 63.9319 715.757 Z" fill="#000000" fill-rule="nonzero" fill-opacity="1" /><path clip-path="url(#clip480)" d="M84.0938 745.063 L88.978 745.063 L88.978 750.942 L84.0938 750.942 L84.0938 745.063 Z" fill="#000000" fill-rule="nonzero" fill-opacity="1" /><path clip-path="url(#clip480)" d="M99.9733 747.007 L107.612 747.007 L107.612 720.642 L99.3021 722.308 L99.3021 718.049 L107.566 716.382 L112.242 716.382 L112.242 747.007 L119.881 747.007 L119.881 750.942 L99.9733 750.942 L99.9733 747.007 Z" fill="#000000" fill-rule="nonzero" fill-opacity="1" /><path clip-path="url(#clip480)" d="M129.371 716.382 L147.728 716.382 L147.728 720.318 L133.654 720.318 L133.654 728.79 Q134.672 728.443 135.691 728.281 Q136.709 728.095 137.728 728.095 Q143.515 728.095 146.894 731.267 Q150.274 734.438 150.274 739.855 Q150.274 745.433 146.802 748.535 Q143.33 751.614 137.01 751.614 Q134.834 751.614 132.566 751.243 Q130.32 750.873 127.913 750.132 L127.913 745.433 Q129.996 746.567 132.219 747.123 Q134.441 747.679 136.918 747.679 Q140.922 747.679 143.26 745.572 Q145.598 743.466 145.598 739.855 Q145.598 736.243 143.26 734.137 Q140.922 732.03 136.918 732.03 Q135.043 732.03 133.168 732.447 Q131.316 732.864 129.371 733.743 L129.371 716.382 Z" fill="#000000" fill-rule="nonzero" fill-opacity="1" /><path clip-path="url(#clip480)" d="M62.9365 482.11 Q59.3254 482.11 57.4967 485.675 Q55.6912 489.216 55.6912 496.346 Q55.6912 503.453 57.4967 507.017 Q59.3254 510.559 62.9365 510.559 Q66.5707 510.559 68.3763 507.017 Q70.205 503.453 70.205 496.346 Q70.205 489.216 68.3763 485.675 Q66.5707 482.11 62.9365 482.11 M62.9365 478.406 Q68.7467 478.406 71.8022 483.013 Q74.8809 487.596 74.8809 496.346 Q74.8809 505.073 71.8022 509.679 Q68.7467 514.263 62.9365 514.263 Q57.1264 514.263 54.0477 509.679 Q50.9921 505.073 50.9921 496.346 Q50.9921 487.596 54.0477 483.013 Q57.1264 478.406 62.9365 478.406 Z" fill="#000000" fill-rule="nonzero" fill-opacity="1" /><path clip-path="url(#clip480)" d="M83.0984 507.712 L87.9827 507.712 L87.9827 513.591 L83.0984 513.591 L83.0984 507.712 Z" fill="#000000" fill-rule="nonzero" fill-opacity="1" /><path clip-path="url(#clip480)" d="M102.196 509.656 L118.515 509.656 L118.515 513.591 L96.5706 513.591 L96.5706 509.656 Q99.2326 506.902 103.816 502.272 Q108.422 497.619 109.603 496.277 Q111.848 493.753 112.728 492.017 Q113.631 490.258 113.631 488.568 Q113.631 485.814 111.686 484.078 Q109.765 482.342 106.663 482.342 Q104.464 482.342 102.01 483.105 Q99.5798 483.869 96.8021 485.42 L96.8021 480.698 Q99.6261 479.564 102.08 478.985 Q104.534 478.406 106.571 478.406 Q111.941 478.406 115.135 481.092 Q118.33 483.777 118.33 488.267 Q118.33 490.397 117.52 492.318 Q116.733 494.216 114.626 496.809 Q114.047 497.48 110.946 500.698 Q107.844 503.892 102.196 509.656 Z" fill="#000000" fill-rule="nonzero" fill-opacity="1" /><path clip-path="url(#clip480)" d="M138.33 482.11 Q134.719 482.11 132.89 485.675 Q131.084 489.216 131.084 496.346 Q131.084 503.453 132.89 507.017 Q134.719 510.559 138.33 510.559 Q141.964 510.559 143.769 507.017 Q145.598 503.453 145.598 496.346 Q145.598 489.216 143.769 485.675 Q141.964 482.11 138.33 482.11 M138.33 478.406 Q144.14 478.406 147.195 483.013 Q150.274 487.596 150.274 496.346 Q150.274 505.073 147.195 509.679 Q144.14 514.263 138.33 514.263 Q132.519 514.263 129.441 509.679 Q126.385 505.073 126.385 496.346 Q126.385 487.596 129.441 483.013 Q132.519 478.406 138.33 478.406 Z" fill="#000000" fill-rule="nonzero" fill-opacity="1" /><path clip-path="url(#clip480)" d="M63.9319 244.759 Q60.3208 244.759 58.4921 248.324 Q56.6865 251.865 56.6865 258.995 Q56.6865 266.101 58.4921 269.666 Q60.3208 273.208 63.9319 273.208 Q67.5661 273.208 69.3717 269.666 Q71.2004 266.101 71.2004 258.995 Q71.2004 251.865 69.3717 248.324 Q67.5661 244.759 63.9319 244.759 M63.9319 241.055 Q69.742 241.055 72.7976 245.662 Q75.8763 250.245 75.8763 258.995 Q75.8763 267.722 72.7976 272.328 Q69.742 276.912 63.9319 276.912 Q58.1217 276.912 55.043 272.328 Q51.9875 267.722 51.9875 258.995 Q51.9875 250.245 55.043 245.662 Q58.1217 241.055 63.9319 241.055 Z" fill="#000000" fill-rule="nonzero" fill-opacity="1" /><path clip-path="url(#clip480)" d="M84.0938 270.361 L88.978 270.361 L88.978 276.24 L84.0938 276.24 L84.0938 270.361 Z" fill="#000000" fill-rule="nonzero" fill-opacity="1" /><path clip-path="url(#clip480)" d="M103.191 272.305 L119.51 272.305 L119.51 276.24 L97.566 276.24 L97.566 272.305 Q100.228 269.55 104.811 264.921 Q109.418 260.268 110.598 258.926 Q112.844 256.402 113.723 254.666 Q114.626 252.907 114.626 251.217 Q114.626 248.463 112.682 246.727 Q110.76 244.99 107.658 244.99 Q105.459 244.99 103.006 245.754 Q100.575 246.518 97.7974 248.069 L97.7974 243.347 Q100.621 242.213 103.075 241.634 Q105.529 241.055 107.566 241.055 Q112.936 241.055 116.131 243.74 Q119.325 246.426 119.325 250.916 Q119.325 253.046 118.515 254.967 Q117.728 256.865 115.621 259.458 Q115.043 260.129 111.941 263.347 Q108.839 266.541 103.191 272.305 Z" fill="#000000" fill-rule="nonzero" fill-opacity="1" /><path clip-path="url(#clip480)" d="M129.371 241.68 L147.728 241.68 L147.728 245.615 L133.654 245.615 L133.654 254.088 Q134.672 253.74 135.691 253.578 Q136.709 253.393 137.728 253.393 Q143.515 253.393 146.894 256.564 Q150.274 259.736 150.274 265.152 Q150.274 270.731 146.802 273.833 Q143.33 276.912 137.01 276.912 Q134.834 276.912 132.566 276.541 Q130.32 276.171 127.913 275.43 L127.913 270.731 Q129.996 271.865 132.219 272.421 Q134.441 272.976 136.918 272.976 Q140.922 272.976 143.26 270.87 Q145.598 268.763 145.598 265.152 Q145.598 261.541 143.26 259.435 Q140.922 257.328 136.918 257.328 Q135.043 257.328 133.168 257.745 Q131.316 258.162 129.371 259.041 L129.371 241.68 Z" fill="#000000" fill-rule="nonzero" fill-opacity="1" /><polyline clip-path="url(#clip482)" style="stroke:#009af9; stroke-linecap:round; stroke-linejoin:round; stroke-width:12; stroke-opacity:1; fill:none" points="247.59,1445.72 247.59,1428.44 349.782,1428.44 349.782,1423.86 451.975,1423.86 451.975,1415.73 554.167,1415.73 554.167,1407.6 656.36,1407.6 656.36,1395.4 758.552,1395.4 758.552,1373.04 860.745,1373.04 860.745,1337.97 962.937,1337.97 962.937,1213.45 1065.13,1213.45 1065.13,942.043 1167.32,942.043 1167.32,169.509 1269.51,169.509 1269.51,136.473 1371.71,136.473 1371.71,933.912 1473.9,933.912 1473.9,1214.97 1576.09,1214.97 1576.09,1331.87 1678.29,1331.87 1678.29,1367.45 1780.48,1367.45 1780.48,1392.35 1882.67,1392.35 1882.67,1409.63 1984.86,1409.63 1984.86,1419.29 2087.06,1419.29 2087.06,1422.34 2189.25,1422.34 2189.25,1431.99 2291.44,1431.99 2291.44,1445.72 "/>
<path clip-path="url(#clip482)" d="M247.59 1445.72 L247.59 1440.95 L349.782 1440.95 L349.782 1445.72 L451.975 1445.72 L451.975 1421.91 L554.167 1421.91 L554.167 1407.63 L656.36 1407.63 L656.36 1407.63 L758.552 1407.63 L758.552 1274.31 L860.745 1274.31 L860.745 1102.9 L962.937 1102.9 L962.937 1012.44 L1065.13 1012.44 L1065.13 602.965 L1167.32 602.965 L1167.32 721.997 L1269.51 721.997 L1269.51 622.01 L1371.71 622.01 L1371.71 821.985 L1473.9 821.985 L1473.9 1117.19 L1576.09 1117.19 L1576.09 1255.26 L1678.29 1255.26 L1678.29 1364.77 L1780.48 1364.77 L1780.48 1421.91 L1882.67 1421.91 L1882.67 1440.95 L1984.86 1440.95 L1984.86 1426.67 L2087.06 1426.67 L2087.06 1436.19 L2189.25 1436.19 L2189.25 1421.91 L2291.44 1421.91 L2291.44 1445.72 L2291.44 1445.72 L2291.44 1445.72 L2189.25 1445.72 L2189.25 1445.72 L2087.06 1445.72 L2087.06 1445.72 L1984.86 1445.72 L1984.86 1445.72 L1882.67 1445.72 L1882.67 1445.72 L1780.48 1445.72 L1780.48 1445.72 L1678.29 1445.72 L1678.29 1445.72 L1576.09 1445.72 L1576.09 1445.72 L1473.9 1445.72 L1473.9 1445.72 L1371.71 1445.72 L1371.71 1445.72 L1269.51 1445.72 L1269.51 1445.72 L1167.32 1445.72 L1167.32 1445.72 L1065.13 1445.72 L1065.13 1445.72 L962.937 1445.72 L962.937 1445.72 L860.745 1445.72 L860.745 1445.72 L758.552 1445.72 L758.552 1445.72 L656.36 1445.72 L656.36 1445.72 L554.167 1445.72 L554.167 1445.72 L451.975 1445.72 L451.975 1445.72 L349.782 1445.72 L349.782 1445.72 L247.59 1445.72 L247.59 1445.72  Z" fill="#e26f46" fill-rule="evenodd" fill-opacity="0.5"/>
<polyline clip-path="url(#clip482)" style="stroke:#e26f46; stroke-linecap:round; stroke-linejoin:round; stroke-width:4; stroke-opacity:0.5; fill:none" points="247.59,1445.72 247.59,1440.95 349.782,1440.95 349.782,1445.72 451.975,1445.72 451.975,1421.91 554.167,1421.91 554.167,1407.63 656.36,1407.63 758.552,1407.63 758.552,1274.31 860.745,1274.31 860.745,1102.9 962.937,1102.9 962.937,1012.44 1065.13,1012.44 1065.13,602.965 1167.32,602.965 1167.32,721.997 1269.51,721.997 1269.51,622.01 1371.71,622.01 1371.71,821.985 1473.9,821.985 1473.9,1117.19 1576.09,1117.19 1576.09,1255.26 1678.29,1255.26 1678.29,1364.77 1780.48,1364.77 1780.48,1421.91 1882.67,1421.91 1882.67,1440.95 1984.86,1440.95 1984.86,1426.67 2087.06,1426.67 2087.06,1436.19 2189.25,1436.19 2189.25,1421.91 2291.44,1421.91 2291.44,1445.72 "/>
<path clip-path="url(#clip482)" d="M247.59 1445.72 L247.59 1425.45 L349.782 1425.45 L349.782 1395.05 L451.975 1395.05 L451.975 1405.19 L554.167 1405.19 L554.167 1395.05 L656.36 1395.05 L656.36 1389.99 L758.552 1389.99 L758.552 1354.52 L860.745 1354.52 L860.745 1308.93 L962.937 1308.93 L962.937 1238 L1065.13 1238 L1065.13 878.302 L1167.32 878.302 L1167.32 366.617 L1269.51 366.617 L1269.51 87.9763 L1371.71 87.9763 L1371.71 903.633 L1473.9 903.633 L1473.9 1212.67 L1576.09 1212.67 L1576.09 1308.93 L1678.29 1308.93 L1678.29 1395.05 L1780.48 1395.05 L1780.48 1415.32 L1882.67 1415.32 L1882.67 1410.25 L1984.86 1410.25 L1984.86 1420.38 L2087.06 1420.38 L2087.06 1430.52 L2189.25 1430.52 L2189.25 1425.45 L2291.44 1425.45 L2291.44 1445.72 L2291.44 1445.72 L2291.44 1445.72 L2189.25 1445.72 L2189.25 1445.72 L2087.06 1445.72 L2087.06 1445.72 L1984.86 1445.72 L1984.86 1445.72 L1882.67 1445.72 L1882.67 1445.72 L1780.48 1445.72 L1780.48 1445.72 L1678.29 1445.72 L1678.29 1445.72 L1576.09 1445.72 L1576.09 1445.72 L1473.9 1445.72 L1473.9 1445.72 L1371.71 1445.72 L1371.71 1445.72 L1269.51 1445.72 L1269.51 1445.72 L1167.32 1445.72 L1167.32 1445.72 L1065.13 1445.72 L1065.13 1445.72 L962.937 1445.72 L962.937 1445.72 L860.745 1445.72 L860.745 1445.72 L758.552 1445.72 L758.552 1445.72 L656.36 1445.72 L656.36 1445.72 L554.167 1445.72 L554.167 1445.72 L451.975 1445.72 L451.975 1445.72 L349.782 1445.72 L349.782 1445.72 L247.59 1445.72 L247.59 1445.72  Z" fill="#3da44d" fill-rule="evenodd" fill-opacity="0.5"/>
<polyline clip-path="url(#clip482)" style="stroke:#3da44d; stroke-linecap:round; stroke-linejoin:round; stroke-width:4; stroke-opacity:0.5; fill:none" points="247.59,1445.72 247.59,1425.45 349.782,1425.45 349.782,1395.05 451.975,1395.05 451.975,1405.19 554.167,1405.19 554.167,1395.05 656.36,1395.05 656.36,1389.99 758.552,1389.99 758.552,1354.52 860.745,1354.52 860.745,1308.93 962.937,1308.93 962.937,1238 1065.13,1238 1065.13,878.302 1167.32,878.302 1167.32,366.617 1269.51,366.617 1269.51,87.9763 1371.71,87.9763 1371.71,903.633 1473.9,903.633 1473.9,1212.67 1576.09,1212.67 1576.09,1308.93 1678.29,1308.93 1678.29,1395.05 1780.48,1395.05 1780.48,1415.32 1882.67,1415.32 1882.67,1410.25 1984.86,1410.25 1984.86,1420.38 2087.06,1420.38 2087.06,1430.52 2189.25,1430.52 2189.25,1425.45 2291.44,1425.45 2291.44,1445.72 "/>
<path clip-path="url(#clip480)" d="M1943.68 302.578 L2280.54 302.578 L2280.54 95.2176 L1943.68 95.2176  Z" fill="#ffffff" fill-rule="evenodd" fill-opacity="1"/>
<polyline clip-path="url(#clip480)" style="stroke:#000000; stroke-linecap:round; stroke-linejoin:round; stroke-width:4; stroke-opacity:1; fill:none" points="1943.68,302.578 2280.54,302.578 2280.54,95.2176 1943.68,95.2176 1943.68,302.578 "/>
<polyline clip-path="url(#clip480)" style="stroke:#009af9; stroke-linecap:round; stroke-linejoin:round; stroke-width:12; stroke-opacity:1; fill:none" points="1967.76,147.058 2112.19,147.058 "/>
<path clip-path="url(#clip480)" d="M2143.67 131.051 L2143.67 138.412 L2152.44 138.412 L2152.44 141.722 L2143.67 141.722 L2143.67 155.796 Q2143.67 158.967 2144.52 159.87 Q2145.4 160.773 2148.07 160.773 L2152.44 160.773 L2152.44 164.338 L2148.07 164.338 Q2143.14 164.338 2141.26 162.509 Q2139.39 160.657 2139.39 155.796 L2139.39 141.722 L2136.26 141.722 L2136.26 138.412 L2139.39 138.412 L2139.39 131.051 L2143.67 131.051 Z" fill="#000000" fill-rule="nonzero" fill-opacity="1" /><path clip-path="url(#clip480)" d="M2173.07 142.393 Q2172.35 141.977 2171.49 141.791 Q2170.66 141.583 2169.64 141.583 Q2166.03 141.583 2164.08 143.944 Q2162.16 146.282 2162.16 150.68 L2162.16 164.338 L2157.88 164.338 L2157.88 138.412 L2162.16 138.412 L2162.16 142.44 Q2163.51 140.078 2165.66 138.944 Q2167.81 137.787 2170.89 137.787 Q2171.33 137.787 2171.86 137.856 Q2172.39 137.903 2173.04 138.018 L2173.07 142.393 Z" fill="#000000" fill-rule="nonzero" fill-opacity="1" /><path clip-path="url(#clip480)" d="M2177.09 154.106 L2177.09 138.412 L2181.35 138.412 L2181.35 153.944 Q2181.35 157.625 2182.79 159.476 Q2184.22 161.305 2187.09 161.305 Q2190.54 161.305 2192.53 159.106 Q2194.55 156.907 2194.55 153.111 L2194.55 138.412 L2198.81 138.412 L2198.81 164.338 L2194.55 164.338 L2194.55 160.356 Q2193 162.717 2190.94 163.875 Q2188.9 165.009 2186.19 165.009 Q2181.72 165.009 2179.41 162.231 Q2177.09 159.453 2177.09 154.106 M2187.81 137.787 L2187.81 137.787 Z" fill="#000000" fill-rule="nonzero" fill-opacity="1" /><path clip-path="url(#clip480)" d="M2229.76 150.31 L2229.76 152.393 L2210.17 152.393 Q2210.45 156.791 2212.81 159.106 Q2215.19 161.398 2219.43 161.398 Q2221.88 161.398 2224.18 160.796 Q2226.49 160.194 2228.76 158.99 L2228.76 163.018 Q2226.47 163.99 2224.06 164.5 Q2221.65 165.009 2219.18 165.009 Q2212.97 165.009 2209.34 161.398 Q2205.73 157.787 2205.73 151.629 Q2205.73 145.264 2209.15 141.537 Q2212.6 137.787 2218.44 137.787 Q2223.67 137.787 2226.7 141.166 Q2229.76 144.523 2229.76 150.31 M2225.5 149.06 Q2225.45 145.565 2223.53 143.481 Q2221.63 141.398 2218.48 141.398 Q2214.92 141.398 2212.76 143.412 Q2210.63 145.426 2210.31 149.083 L2225.5 149.06 Z" fill="#000000" fill-rule="nonzero" fill-opacity="1" /><path clip-path="url(#clip480)" d="M1967.76 219.634 L2112.19 219.634 L2112.19 178.162 L1967.76 178.162 L1967.76 219.634  Z" fill="#e26f46" fill-rule="evenodd" fill-opacity="0.5"/>
<polyline clip-path="url(#clip480)" style="stroke:#e26f46; stroke-linecap:round; stroke-linejoin:round; stroke-width:4; stroke-opacity:0.5; fill:none" points="1967.76,178.162 2112.19,178.162 "/>
<path clip-path="url(#clip480)" d="M2136.26 181.618 L2140.94 181.618 L2140.94 212.242 L2157.76 212.242 L2157.76 216.178 L2136.26 216.178 L2136.26 181.618 Z" fill="#000000" fill-rule="nonzero" fill-opacity="1" /><path clip-path="url(#clip480)" d="M2183.39 182.752 L2183.39 187.312 Q2180.73 186.039 2178.37 185.414 Q2176.01 184.789 2173.81 184.789 Q2169.99 184.789 2167.9 186.27 Q2165.84 187.752 2165.84 190.483 Q2165.84 192.775 2167.21 193.955 Q2168.6 195.113 2172.44 195.83 L2175.26 196.409 Q2180.5 197.405 2182.97 199.928 Q2185.47 202.428 2185.47 206.641 Q2185.47 211.664 2182.09 214.256 Q2178.74 216.849 2172.23 216.849 Q2169.78 216.849 2167 216.293 Q2164.25 215.738 2161.28 214.65 L2161.28 209.835 Q2164.13 211.432 2166.86 212.242 Q2169.59 213.053 2172.23 213.053 Q2176.24 213.053 2178.41 211.479 Q2180.59 209.904 2180.59 206.988 Q2180.59 204.442 2179.01 203.006 Q2177.46 201.571 2173.9 200.854 L2171.05 200.298 Q2165.82 199.256 2163.48 197.034 Q2161.14 194.812 2161.14 190.854 Q2161.14 186.27 2164.36 183.631 Q2167.6 180.993 2173.27 180.993 Q2175.7 180.993 2178.23 181.432 Q2180.75 181.872 2183.39 182.752 Z" fill="#000000" fill-rule="nonzero" fill-opacity="1" /><path clip-path="url(#clip480)" d="M2213.48 182.752 L2213.48 187.312 Q2210.82 186.039 2208.46 185.414 Q2206.1 184.789 2203.9 184.789 Q2200.08 184.789 2198 186.27 Q2195.94 187.752 2195.94 190.483 Q2195.94 192.775 2197.3 193.955 Q2198.69 195.113 2202.53 195.83 L2205.36 196.409 Q2210.59 197.405 2213.07 199.928 Q2215.57 202.428 2215.57 206.641 Q2215.57 211.664 2212.19 214.256 Q2208.83 216.849 2202.32 216.849 Q2199.87 216.849 2197.09 216.293 Q2194.34 215.738 2191.38 214.65 L2191.38 209.835 Q2194.22 211.432 2196.95 212.242 Q2199.69 213.053 2202.32 213.053 Q2206.33 213.053 2208.51 211.479 Q2210.68 209.904 2210.68 206.988 Q2210.68 204.442 2209.11 203.006 Q2207.56 201.571 2203.99 200.854 L2201.14 200.298 Q2195.91 199.256 2193.57 197.034 Q2191.24 194.812 2191.24 190.854 Q2191.24 186.27 2194.45 183.631 Q2197.69 180.993 2203.37 180.993 Q2205.8 180.993 2208.32 181.432 Q2210.84 181.872 2213.48 182.752 Z" fill="#000000" fill-rule="nonzero" fill-opacity="1" /><path clip-path="url(#clip480)" d="M1967.76 271.474 L2112.19 271.474 L2112.19 230.002 L1967.76 230.002 L1967.76 271.474  Z" fill="#3da44d" fill-rule="evenodd" fill-opacity="0.5"/>
<polyline clip-path="url(#clip480)" style="stroke:#3da44d; stroke-linecap:round; stroke-linejoin:round; stroke-width:4; stroke-opacity:0.5; fill:none" points="1967.76,230.002 2112.19,230.002 "/>
<path clip-path="url(#clip480)" d="M2161.82 263.087 L2161.82 253.805 L2154.18 253.805 L2154.18 249.962 L2166.45 249.962 L2166.45 264.8 Q2163.74 266.721 2160.47 267.717 Q2157.21 268.689 2153.51 268.689 Q2145.4 268.689 2140.82 263.967 Q2136.26 259.221 2136.26 250.772 Q2136.26 242.3 2140.82 237.578 Q2145.4 232.833 2153.51 232.833 Q2156.89 232.833 2159.92 233.666 Q2162.97 234.499 2165.54 236.12 L2165.54 241.096 Q2162.95 238.897 2160.03 237.786 Q2157.12 236.675 2153.9 236.675 Q2147.56 236.675 2144.36 240.217 Q2141.19 243.758 2141.19 250.772 Q2141.19 257.763 2144.36 261.305 Q2147.56 264.846 2153.9 264.846 Q2156.38 264.846 2158.32 264.43 Q2160.26 263.99 2161.82 263.087 Z" fill="#000000" fill-rule="nonzero" fill-opacity="1" /><path clip-path="url(#clip480)" d="M2179.66 237.3 L2179.66 250.286 L2185.54 250.286 Q2188.81 250.286 2190.59 248.596 Q2192.37 246.907 2192.37 243.782 Q2192.37 240.68 2190.59 238.99 Q2188.81 237.3 2185.54 237.3 L2179.66 237.3 M2174.99 233.458 L2185.54 233.458 Q2191.35 233.458 2194.32 236.096 Q2197.3 238.712 2197.3 243.782 Q2197.3 248.897 2194.32 251.513 Q2191.35 254.129 2185.54 254.129 L2179.66 254.129 L2179.66 268.018 L2174.99 268.018 L2174.99 233.458 Z" fill="#000000" fill-rule="nonzero" fill-opacity="1" /><path clip-path="url(#clip480)" d="M2224.29 234.592 L2224.29 239.152 Q2221.63 237.879 2219.27 237.254 Q2216.91 236.629 2214.71 236.629 Q2210.89 236.629 2208.81 238.11 Q2206.75 239.592 2206.75 242.323 Q2206.75 244.615 2208.11 245.795 Q2209.5 246.953 2213.34 247.67 L2216.17 248.249 Q2221.4 249.245 2223.88 251.768 Q2226.38 254.268 2226.38 258.481 Q2226.38 263.504 2223 266.096 Q2219.64 268.689 2213.13 268.689 Q2210.68 268.689 2207.9 268.133 Q2205.15 267.578 2202.19 266.49 L2202.19 261.675 Q2205.03 263.272 2207.76 264.082 Q2210.5 264.893 2213.13 264.893 Q2217.14 264.893 2219.32 263.319 Q2221.49 261.744 2221.49 258.828 Q2221.49 256.282 2219.92 254.846 Q2218.37 253.411 2214.8 252.694 L2211.95 252.138 Q2206.72 251.096 2204.38 248.874 Q2202.05 246.652 2202.05 242.694 Q2202.05 238.11 2205.26 235.471 Q2208.51 232.833 2214.18 232.833 Q2216.61 232.833 2219.13 233.272 Q2221.65 233.712 2224.29 234.592 Z" fill="#000000" fill-rule="nonzero" fill-opacity="1" /><path clip-path="url(#clip480)" d="M2254.38 234.592 L2254.38 239.152 Q2251.72 237.879 2249.36 237.254 Q2247 236.629 2244.8 236.629 Q2240.98 236.629 2238.9 238.11 Q2236.84 239.592 2236.84 242.323 Q2236.84 244.615 2238.2 245.795 Q2239.59 246.953 2243.44 247.67 L2246.26 248.249 Q2251.49 249.245 2253.97 251.768 Q2256.47 254.268 2256.47 258.481 Q2256.47 263.504 2253.09 266.096 Q2249.73 268.689 2243.23 268.689 Q2240.77 268.689 2238 268.133 Q2235.24 267.578 2232.28 266.49 L2232.28 261.675 Q2235.13 263.272 2237.86 264.082 Q2240.59 264.893 2243.23 264.893 Q2247.23 264.893 2249.41 263.319 Q2251.58 261.744 2251.58 258.828 Q2251.58 256.282 2250.01 254.846 Q2248.46 253.411 2244.89 252.694 L2242.05 252.138 Q2236.82 251.096 2234.48 248.874 Q2232.14 246.652 2232.14 242.694 Q2232.14 238.11 2235.36 235.471 Q2238.6 232.833 2244.27 232.833 Q2246.7 232.833 2249.22 233.272 Q2251.75 233.712 2254.38 234.592 Z" fill="#000000" fill-rule="nonzero" fill-opacity="1" /></svg>
