<?xml version="1.0" encoding="utf-8"?>
<svg xmlns="http://www.w3.org/2000/svg" xmlns:xlink="http://www.w3.org/1999/xlink" width="600" height="400" viewBox="0 0 2400 1600">
<defs>
  <clipPath id="clip040">
    <rect x="0" y="0" width="2400" height="1600"/>
  </clipPath>
</defs>
<path clip-path="url(#clip040)" d="M0 1600 L2400 1600 L2400 0 L0 0  Z" fill="#ffffff" fill-rule="evenodd" fill-opacity="1"/>
<defs>
  <clipPath id="clip041">
    <rect x="242" y="47" width="2112" height="1377"/>
  </clipPath>
</defs>
<path clip-path="url(#clip040)" d="M178.867 686.448 L2352.76 686.448 L2352.76 47.2441 L178.867 47.2441  Z" fill="#ffffff" fill-rule="evenodd" fill-opacity="1"/>
<defs>
  <clipPath id="clip042">
    <rect x="178" y="47" width="2175" height="640"/>
  </clipPath>
</defs>
<polyline clip-path="url(#clip042)" style="stroke:#000000; stroke-linecap:round; stroke-linejoin:round; stroke-width:2; stroke-opacity:0.1; fill:none" points="238.339,686.448 238.339,47.2441 "/>
<polyline clip-path="url(#clip042)" style="stroke:#000000; stroke-linecap:round; stroke-linejoin:round; stroke-width:2; stroke-opacity:0.1; fill:none" points="751.562,686.448 751.562,47.2441 "/>
<polyline clip-path="url(#clip042)" style="stroke:#000000; stroke-linecap:round; stroke-linejoin:round; stroke-width:2; stroke-opacity:0.1; fill:none" points="1264.78,686.448 1264.78,47.2441 "/>
<polyline clip-path="url(#clip042)" style="stroke:#000000; stroke-linecap:round; stroke-linejoin:round; stroke-width:2; stroke-opacity:0.1; fill:none" points="1778.01,686.448 1778.01,47.2441 "/>
<polyline clip-path="url(#clip042)" style="stroke:#000000; stroke-linecap:round; stroke-linejoin:round; stroke-width:2; stroke-opacity:0.1; fill:none" points="2291.23,686.448 2291.23,47.2441 "/>
<polyline clip-path="url(#clip042)" style="stroke:#000000; stroke-linecap:round; stroke-linejoin:round; stroke-width:2; stroke-opacity:0.1; fill:none" points="178.867,686.448 2352.76,686.448 "/>
<polyline clip-path="url(#clip042)" style="stroke:#000000; stroke-linecap:round; stroke-linejoin:round; stroke-width:2; stroke-opacity:0.1; fill:none" points="178.867,526.647 2352.76,526.647 "/>
<polyline clip-path="url(#clip042)" style="stroke:#000000; stroke-linecap:round; stroke-linejoin:round; stroke-width:2; stroke-opacity:0.1; fill:none" points="178.867,366.846 2352.76,366.846 "/>
<polyline clip-path="url(#clip042)" style="stroke:#000000; stroke-linecap:round; stroke-linejoin:round; stroke-width:2; stroke-opacity:0.1; fill:none" points="178.867,207.045 2352.76,207.045 "/>
<polyline clip-path="url(#clip042)" style="stroke:#000000; stroke-linecap:round; stroke-linejoin:round; stroke-width:2; stroke-opacity:0.1; fill:none" points="178.867,47.2441 2352.76,47.2441 "/>
<polyline clip-path="url(#clip040)" style="stroke:#000000; stroke-linecap:round; stroke-linejoin:round; stroke-width:4; stroke-opacity:1; fill:none" points="178.867,686.448 2352.76,686.448 "/>
<polyline clip-path="url(#clip040)" style="stroke:#000000; stroke-linecap:round; stroke-linejoin:round; stroke-width:4; stroke-opacity:1; fill:none" points="238.339,686.448 238.339,667.55 "/>
<polyline clip-path="url(#clip040)" style="stroke:#000000; stroke-linecap:round; stroke-linejoin:round; stroke-width:4; stroke-opacity:1; fill:none" points="751.562,686.448 751.562,667.55 "/>
<polyline clip-path="url(#clip040)" style="stroke:#000000; stroke-linecap:round; stroke-linejoin:round; stroke-width:4; stroke-opacity:1; fill:none" points="1264.78,686.448 1264.78,667.55 "/>
<polyline clip-path="url(#clip040)" style="stroke:#000000; stroke-linecap:round; stroke-linejoin:round; stroke-width:4; stroke-opacity:1; fill:none" points="1778.01,686.448 1778.01,667.55 "/>
<polyline clip-path="url(#clip040)" style="stroke:#000000; stroke-linecap:round; stroke-linejoin:round; stroke-width:4; stroke-opacity:1; fill:none" points="2291.23,686.448 2291.23,667.55 "/>
<path clip-path="url(#clip040)" d="M238.339 717.367 Q234.728 717.367 232.899 720.931 Q231.094 724.473 231.094 731.603 Q231.094 738.709 232.899 742.274 Q234.728 745.815 238.339 745.815 Q241.973 745.815 243.779 742.274 Q245.607 738.709 245.607 731.603 Q245.607 724.473 243.779 720.931 Q241.973 717.367 238.339 717.367 M238.339 713.663 Q244.149 713.663 247.205 718.269 Q250.283 722.853 250.283 731.603 Q250.283 740.329 247.205 744.936 Q244.149 749.519 238.339 749.519 Q232.529 749.519 229.45 744.936 Q226.395 740.329 226.395 731.603 Q226.395 722.853 229.45 718.269 Q232.529 713.663 238.339 713.663 Z" fill="#000000" fill-rule="nonzero" fill-opacity="1" /><path clip-path="url(#clip040)" d="M715.254 744.913 L731.574 744.913 L731.574 748.848 L709.629 748.848 L709.629 744.913 Q712.291 742.158 716.875 737.528 Q721.481 732.876 722.662 731.533 Q724.907 729.01 725.787 727.274 Q726.689 725.515 726.689 723.825 Q726.689 721.07 724.745 719.334 Q722.824 717.598 719.722 717.598 Q717.523 717.598 715.069 718.362 Q712.638 719.126 709.861 720.677 L709.861 715.955 Q712.685 714.82 715.138 714.242 Q717.592 713.663 719.629 713.663 Q725 713.663 728.194 716.348 Q731.388 719.033 731.388 723.524 Q731.388 725.654 730.578 727.575 Q729.791 729.473 727.685 732.066 Q727.106 732.737 724.004 735.954 Q720.902 739.149 715.254 744.913 Z" fill="#000000" fill-rule="nonzero" fill-opacity="1" /><path clip-path="url(#clip040)" d="M741.435 714.288 L759.791 714.288 L759.791 718.223 L745.717 718.223 L745.717 726.695 Q746.736 726.348 747.754 726.186 Q748.773 726.001 749.791 726.001 Q755.578 726.001 758.958 729.172 Q762.337 732.343 762.337 737.76 Q762.337 743.339 758.865 746.44 Q755.393 749.519 749.073 749.519 Q746.898 749.519 744.629 749.149 Q742.384 748.778 739.976 748.038 L739.976 743.339 Q742.06 744.473 744.282 745.028 Q746.504 745.584 748.981 745.584 Q752.985 745.584 755.323 743.478 Q757.661 741.371 757.661 737.76 Q757.661 734.149 755.323 732.042 Q752.985 729.936 748.981 729.936 Q747.106 729.936 745.231 730.353 Q743.379 730.769 741.435 731.649 L741.435 714.288 Z" fill="#000000" fill-rule="nonzero" fill-opacity="1" /><path clip-path="url(#clip040)" d="M781.55 717.367 Q777.939 717.367 776.11 720.931 Q774.305 724.473 774.305 731.603 Q774.305 738.709 776.11 742.274 Q777.939 745.815 781.55 745.815 Q785.184 745.815 786.99 742.274 Q788.819 738.709 788.819 731.603 Q788.819 724.473 786.99 720.931 Q785.184 717.367 781.55 717.367 M781.55 713.663 Q787.36 713.663 790.416 718.269 Q793.495 722.853 793.495 731.603 Q793.495 740.329 790.416 744.936 Q787.36 749.519 781.55 749.519 Q775.74 749.519 772.661 744.936 Q769.606 740.329 769.606 731.603 Q769.606 722.853 772.661 718.269 Q775.74 713.663 781.55 713.663 Z" fill="#000000" fill-rule="nonzero" fill-opacity="1" /><path clip-path="url(#clip040)" d="M1224.4 714.288 L1242.76 714.288 L1242.76 718.223 L1228.69 718.223 L1228.69 726.695 Q1229.7 726.348 1230.72 726.186 Q1231.74 726.001 1232.76 726.001 Q1238.55 726.001 1241.93 729.172 Q1245.31 732.343 1245.31 737.76 Q1245.31 743.339 1241.83 746.44 Q1238.36 749.519 1232.04 749.519 Q1229.87 749.519 1227.6 749.149 Q1225.35 748.778 1222.94 748.038 L1222.94 743.339 Q1225.03 744.473 1227.25 745.028 Q1229.47 745.584 1231.95 745.584 Q1235.95 745.584 1238.29 743.478 Q1240.63 741.371 1240.63 737.76 Q1240.63 734.149 1238.29 732.042 Q1235.95 729.936 1231.95 729.936 Q1230.07 729.936 1228.2 730.353 Q1226.35 730.769 1224.4 731.649 L1224.4 714.288 Z" fill="#000000" fill-rule="nonzero" fill-opacity="1" /><path clip-path="url(#clip040)" d="M1264.52 717.367 Q1260.91 717.367 1259.08 720.931 Q1257.27 724.473 1257.27 731.603 Q1257.27 738.709 1259.08 742.274 Q1260.91 745.815 1264.52 745.815 Q1268.15 745.815 1269.96 742.274 Q1271.79 738.709 1271.79 731.603 Q1271.79 724.473 1269.96 720.931 Q1268.15 717.367 1264.52 717.367 M1264.52 713.663 Q1270.33 713.663 1273.38 718.269 Q1276.46 722.853 1276.46 731.603 Q1276.46 740.329 1273.38 744.936 Q1270.33 749.519 1264.52 749.519 Q1258.71 749.519 1255.63 744.936 Q1252.57 740.329 1252.57 731.603 Q1252.57 722.853 1255.63 718.269 Q1258.71 713.663 1264.52 713.663 Z" fill="#000000" fill-rule="nonzero" fill-opacity="1" /><path clip-path="url(#clip040)" d="M1294.68 717.367 Q1291.07 717.367 1289.24 720.931 Q1287.44 724.473 1287.44 731.603 Q1287.44 738.709 1289.24 742.274 Q1291.07 745.815 1294.68 745.815 Q1298.31 745.815 1300.12 742.274 Q1301.95 738.709 1301.95 731.603 Q1301.95 724.473 1300.12 720.931 Q1298.31 717.367 1294.68 717.367 M1294.68 713.663 Q1300.49 713.663 1303.55 718.269 Q1306.62 722.853 1306.62 731.603 Q1306.62 740.329 1303.55 744.936 Q1300.49 749.519 1294.68 749.519 Q1288.87 749.519 1285.79 744.936 Q1282.74 740.329 1282.74 731.603 Q1282.74 722.853 1285.79 718.269 Q1288.87 713.663 1294.68 713.663 Z" fill="#000000" fill-rule="nonzero" fill-opacity="1" /><path clip-path="url(#clip040)" d="M1736.28 714.288 L1758.51 714.288 L1758.51 716.279 L1745.96 748.848 L1741.08 748.848 L1752.88 718.223 L1736.28 718.223 L1736.28 714.288 Z" fill="#000000" fill-rule="nonzero" fill-opacity="1" /><path clip-path="url(#clip040)" d="M1767.67 714.288 L1786.03 714.288 L1786.03 718.223 L1771.95 718.223 L1771.95 726.695 Q1772.97 726.348 1773.99 726.186 Q1775.01 726.001 1776.03 726.001 Q1781.82 726.001 1785.2 729.172 Q1788.57 732.343 1788.57 737.76 Q1788.57 743.339 1785.1 746.44 Q1781.63 749.519 1775.31 749.519 Q1773.14 749.519 1770.87 749.149 Q1768.62 748.778 1766.21 748.038 L1766.21 743.339 Q1768.3 744.473 1770.52 745.028 Q1772.74 745.584 1775.22 745.584 Q1779.22 745.584 1781.56 743.478 Q1783.9 741.371 1783.9 737.76 Q1783.9 734.149 1781.56 732.042 Q1779.22 729.936 1775.22 729.936 Q1773.34 729.936 1771.47 730.353 Q1769.62 730.769 1767.67 731.649 L1767.67 714.288 Z" fill="#000000" fill-rule="nonzero" fill-opacity="1" /><path clip-path="url(#clip040)" d="M1807.79 717.367 Q1804.18 717.367 1802.35 720.931 Q1800.54 724.473 1800.54 731.603 Q1800.54 738.709 1802.35 742.274 Q1804.18 745.815 1807.79 745.815 Q1811.42 745.815 1813.23 742.274 Q1815.06 738.709 1815.06 731.603 Q1815.06 724.473 1813.23 720.931 Q1811.42 717.367 1807.79 717.367 M1807.79 713.663 Q1813.6 713.663 1816.65 718.269 Q1819.73 722.853 1819.73 731.603 Q1819.73 740.329 1816.65 744.936 Q1813.6 749.519 1807.79 749.519 Q1801.98 749.519 1798.9 744.936 Q1795.84 740.329 1795.84 731.603 Q1795.84 722.853 1798.9 718.269 Q1801.98 713.663 1807.79 713.663 Z" fill="#000000" fill-rule="nonzero" fill-opacity="1" /><path clip-path="url(#clip040)" d="M2235.76 744.913 L2243.4 744.913 L2243.4 718.547 L2235.09 720.214 L2235.09 715.955 L2243.35 714.288 L2248.02 714.288 L2248.02 744.913 L2255.66 744.913 L2255.66 748.848 L2235.76 748.848 L2235.76 744.913 Z" fill="#000000" fill-rule="nonzero" fill-opacity="1" /><path clip-path="url(#clip040)" d="M2275.11 717.367 Q2271.5 717.367 2269.67 720.931 Q2267.86 724.473 2267.86 731.603 Q2267.86 738.709 2269.67 742.274 Q2271.5 745.815 2275.11 745.815 Q2278.74 745.815 2280.55 742.274 Q2282.38 738.709 2282.38 731.603 Q2282.38 724.473 2280.55 720.931 Q2278.74 717.367 2275.11 717.367 M2275.11 713.663 Q2280.92 713.663 2283.97 718.269 Q2287.05 722.853 2287.05 731.603 Q2287.05 740.329 2283.97 744.936 Q2280.92 749.519 2275.11 749.519 Q2269.3 749.519 2266.22 744.936 Q2263.16 740.329 2263.16 731.603 Q2263.16 722.853 2266.22 718.269 Q2269.3 713.663 2275.11 713.663 Z" fill="#000000" fill-rule="nonzero" fill-opacity="1" /><path clip-path="url(#clip040)" d="M2305.27 717.367 Q2301.66 717.367 2299.83 720.931 Q2298.02 724.473 2298.02 731.603 Q2298.02 738.709 2299.83 742.274 Q2301.66 745.815 2305.27 745.815 Q2308.9 745.815 2310.71 742.274 Q2312.54 738.709 2312.54 731.603 Q2312.54 724.473 2310.71 720.931 Q2308.9 717.367 2305.27 717.367 M2305.27 713.663 Q2311.08 713.663 2314.14 718.269 Q2317.21 722.853 2317.21 731.603 Q2317.21 740.329 2314.14 744.936 Q2311.08 749.519 2305.27 749.519 Q2299.46 749.519 2296.38 744.936 Q2293.33 740.329 2293.33 731.603 Q2293.33 722.853 2296.38 718.269 Q2299.46 713.663 2305.27 713.663 Z" fill="#000000" fill-rule="nonzero" fill-opacity="1" /><path clip-path="url(#clip040)" d="M2335.43 717.367 Q2331.82 717.367 2329.99 720.931 Q2328.19 724.473 2328.19 731.603 Q2328.19 738.709 2329.99 742.274 Q2331.82 745.815 2335.43 745.815 Q2339.07 745.815 2340.87 742.274 Q2342.7 738.709 2342.7 731.603 Q2342.7 724.473 2340.87 720.931 Q2339.07 717.367 2335.43 717.367 M2335.43 713.663 Q2341.24 713.663 2344.3 718.269 Q2347.38 722.853 2347.38 731.603 Q2347.38 740.329 2344.3 744.936 Q2341.24 749.519 2335.43 749.519 Q2329.62 749.519 2326.54 744.936 Q2323.49 740.329 2323.49 731.603 Q2323.49 722.853 2326.54 718.269 Q2329.62 713.663 2335.43 713.663 Z" fill="#000000" fill-rule="nonzero" fill-opacity="1" /><polyline clip-path="url(#clip040)" style="stroke:#000000; stroke-linecap:round; stroke-linejoin:round; stroke-width:4; stroke-opacity:1; fill:none" points="178.867,686.448 178.867,47.2441 "/>
<polyline clip-path="url(#clip040)" style="stroke:#000000; stroke-linecap:round; stroke-linejoin:round; stroke-width:4; stroke-opacity:1; fill:none" points="178.867,686.448 197.764,686.448 "/>
<polyline clip-path="url(#clip040)" style="stroke:#000000; stroke-linecap:round; stroke-linejoin:round; stroke-width:4; stroke-opacity:1; fill:none" points="178.867,526.647 197.764,526.647 "/>
<polyline clip-path="url(#clip040)" style="stroke:#000000; stroke-linecap:round; stroke-linejoin:round; stroke-width:4; stroke-opacity:1; fill:none" points="178.867,366.846 197.764,366.846 "/>
<polyline clip-path="url(#clip040)" style="stroke:#000000; stroke-linecap:round; stroke-linejoin:round; stroke-width:4; stroke-opacity:1; fill:none" points="178.867,207.045 197.764,207.045 "/>
<polyline clip-path="url(#clip040)" style="stroke:#000000; stroke-linecap:round; stroke-linejoin:round; stroke-width:4; stroke-opacity:1; fill:none" points="178.867,47.2441 197.764,47.2441 "/>
<path clip-path="url(#clip040)" d="M50.9921 686.899 L80.6679 686.899 L80.6679 690.834 L50.9921 690.834 L50.9921 686.899 Z" fill="#000000" fill-rule="nonzero" fill-opacity="1" /><path clip-path="url(#clip040)" d="M91.5706 699.793 L99.2095 699.793 L99.2095 673.427 L90.8993 675.094 L90.8993 670.835 L99.1632 669.168 L103.839 669.168 L103.839 699.793 L111.478 699.793 L111.478 703.728 L91.5706 703.728 L91.5706 699.793 Z" fill="#000000" fill-rule="nonzero" fill-opacity="1" /><path clip-path="url(#clip040)" d="M130.922 672.247 Q127.311 672.247 125.482 675.811 Q123.677 679.353 123.677 686.483 Q123.677 693.589 125.482 697.154 Q127.311 700.695 130.922 700.695 Q134.556 700.695 136.362 697.154 Q138.191 693.589 138.191 686.483 Q138.191 679.353 136.362 675.811 Q134.556 672.247 130.922 672.247 M130.922 668.543 Q136.732 668.543 139.788 673.149 Q142.867 677.733 142.867 686.483 Q142.867 695.209 139.788 699.816 Q136.732 704.399 130.922 704.399 Q125.112 704.399 122.033 699.816 Q118.978 695.209 118.978 686.483 Q118.978 677.733 122.033 673.149 Q125.112 668.543 130.922 668.543 Z" fill="#000000" fill-rule="nonzero" fill-opacity="1" /><path clip-path="url(#clip040)" d="M82.1494 527.098 L111.825 527.098 L111.825 531.033 L82.1494 531.033 L82.1494 527.098 Z" fill="#000000" fill-rule="nonzero" fill-opacity="1" /><path clip-path="url(#clip040)" d="M121.964 509.367 L140.32 509.367 L140.32 513.302 L126.246 513.302 L126.246 521.774 Q127.265 521.427 128.283 521.265 Q129.302 521.08 130.32 521.08 Q136.107 521.08 139.487 524.251 Q142.867 527.422 142.867 532.839 Q142.867 538.418 139.394 541.52 Q135.922 544.598 129.603 544.598 Q127.427 544.598 125.158 544.228 Q122.913 543.857 120.506 543.117 L120.506 538.418 Q122.589 539.552 124.811 540.108 Q127.033 540.663 129.51 540.663 Q133.515 540.663 135.853 538.557 Q138.191 536.45 138.191 532.839 Q138.191 529.228 135.853 527.121 Q133.515 525.015 129.51 525.015 Q127.635 525.015 125.76 525.432 Q123.908 525.848 121.964 526.728 L121.964 509.367 Z" fill="#000000" fill-rule="nonzero" fill-opacity="1" /><path clip-path="url(#clip040)" d="M130.922 352.645 Q127.311 352.645 125.482 356.209 Q123.677 359.751 123.677 366.881 Q123.677 373.987 125.482 377.552 Q127.311 381.094 130.922 381.094 Q134.556 381.094 136.362 377.552 Q138.191 373.987 138.191 366.881 Q138.191 359.751 136.362 356.209 Q134.556 352.645 130.922 352.645 M130.922 348.941 Q136.732 348.941 139.788 353.547 Q142.867 358.131 142.867 366.881 Q142.867 375.608 139.788 380.214 Q136.732 384.797 130.922 384.797 Q125.112 384.797 122.033 380.214 Q118.978 375.608 118.978 366.881 Q118.978 358.131 122.033 353.547 Q125.112 348.941 130.922 348.941 Z" fill="#000000" fill-rule="nonzero" fill-opacity="1" /><path clip-path="url(#clip040)" d="M121.964 189.765 L140.32 189.765 L140.32 193.7 L126.246 193.7 L126.246 202.172 Q127.265 201.825 128.283 201.663 Q129.302 201.478 130.32 201.478 Q136.107 201.478 139.487 204.649 Q142.867 207.82 142.867 213.237 Q142.867 218.816 139.394 221.918 Q135.922 224.996 129.603 224.996 Q127.427 224.996 125.158 224.626 Q122.913 224.256 120.506 223.515 L120.506 218.816 Q122.589 219.95 124.811 220.506 Q127.033 221.061 129.51 221.061 Q133.515 221.061 135.853 218.955 Q138.191 216.848 138.191 213.237 Q138.191 209.626 135.853 207.52 Q133.515 205.413 129.51 205.413 Q127.635 205.413 125.76 205.83 Q123.908 206.246 121.964 207.126 L121.964 189.765 Z" fill="#000000" fill-rule="nonzero" fill-opacity="1" /><path clip-path="url(#clip040)" d="M91.5706 60.5889 L99.2095 60.5889 L99.2095 34.2233 L90.8993 35.89 L90.8993 31.6308 L99.1632 29.9641 L103.839 29.9641 L103.839 60.5889 L111.478 60.5889 L111.478 64.5241 L91.5706 64.5241 L91.5706 60.5889 Z" fill="#000000" fill-rule="nonzero" fill-opacity="1" /><path clip-path="url(#clip040)" d="M130.922 33.0428 Q127.311 33.0428 125.482 36.6076 Q123.677 40.1492 123.677 47.2788 Q123.677 54.3853 125.482 57.9501 Q127.311 61.4917 130.922 61.4917 Q134.556 61.4917 136.362 57.9501 Q138.191 54.3853 138.191 47.2788 Q138.191 40.1492 136.362 36.6076 Q134.556 33.0428 130.922 33.0428 M130.922 29.3391 Q136.732 29.3391 139.788 33.9456 Q142.867 38.5289 142.867 47.2788 Q142.867 56.0056 139.788 60.6121 Q136.732 65.1954 130.922 65.1954 Q125.112 65.1954 122.033 60.6121 Q118.978 56.0056 118.978 47.2788 Q118.978 38.5289 122.033 33.9456 Q125.112 29.3391 130.922 29.3391 Z" fill="#000000" fill-rule="nonzero" fill-opacity="1" /><polyline clip-path="url(#clip042)" style="stroke:#009af9; stroke-linecap:round; stroke-linejoin:round; stroke-width:4; stroke-opacity:1; fill:none" points="240.392,334.886 242.445,334.28 244.498,318.144 246.55,321.313 248.603,318.245 250.656,393.028 252.709,382.599 254.762,405.294 256.815,428.24 258.868,400.388 260.921,380.365 262.974,446.698 265.027,443.184 267.079,463.142 269.132,439.713 271.185,436.442 273.238,461.876 275.291,493.962 277.344,494.533 279.397,488.999 281.45,494.372 283.503,496.323 285.555,485.734 287.608,490.338 289.661,446.633 291.714,423.297 293.767,429.687 295.82,440.085 297.873,439.939 299.926,438.398 301.979,438.364 304.031,438.516 306.084,438.865 308.137,396.82 310.19,396.935 312.243,400.506 314.296,401.912 316.349,388.865 318.402,395.565 320.455,393.812 322.507,393.399 324.56,393.408 326.613,362.438 328.666,390.701 330.719,388.896 332.772,370.115 334.825,374.347 336.878,371.677 338.931,415.68 340.984,423.316 343.036,417.54 345.089,416.091 347.142,416.893 349.195,419.214 351.248,422.294 353.301,398.57 355.354,378.492 357.407,370.475 359.46,370.297 361.512,335.689 363.565,334.036 365.618,334.382 367.671,425.417 369.724,413.258 371.777,358.094 373.83,346.709 375.883,324.639 377.936,368.991 379.988,370.017 382.041,438.348 384.094,438.832 386.147,399.466 388.2,359.594 390.253,351.806 392.306,373.898 394.359,364.684 396.412,442.183 398.464,376.551 400.517,220.102 402.57,310.727 404.623,317.248 406.676,306.225 408.729,345.248 410.782,309.844 412.835,316.749 414.888,361.351 416.94,319.435 418.993,318.543 421.046,315.139 423.099,325.849 425.152,320.585 427.205,422.272 429.258,381.612 431.311,433.686 433.364,384.794 435.417,394.895 437.469,354.388 439.522,376.949 441.575,283.008 443.628,377.486 445.681,401.358 447.734,482.117 449.787,482.56 451.84,390.291 453.893,390.214 455.945,365.741 457.998,363.708 460.051,362.001 462.104,196.438 464.157,205.968 466.21,190.616 468.263,189.938 470.316,385.628 472.369,356.123 474.421,174.037 476.474,174.167 478.527,238.815 480.58,211.926 482.633,212.85 484.686,123.029 486.739,119.823 488.792,118.092 490.845,122.323 492.897,171.05 494.95,211.344 497.003,203.076 499.056,201.959 501.109,256.064 503.162,256.038 505.215,252.841 507.268,475.015 509.321,469.805 511.374,467.284 513.426,460.597 515.479,450.867 517.532,451.072 519.585,459.115 521.638,436.502 523.691,435.54 525.744,437.91 527.797,438.702 529.85,425.263 531.902,425.463 533.955,431.315 536.008,444.584 538.061,419.031 540.114,398.874 542.167,374.831 544.22,374.523 546.273,401.579 548.326,400.936 550.378,401.441 552.431,411.984 554.484,402.254 556.537,380.173 558.59,376.966 560.643,379.407 562.696,380.569 564.749,381.589 566.802,381.181 568.854,391.28 570.907,287.43 572.96,275.479 575.013,268.012 577.066,252.069 579.119,278.508 581.172,268.154 583.225,308.276 585.278,311.179 587.331,304.977 589.383,303.497 591.436,303.314 593.489,302.938 595.542,304.932 597.595,306.995 599.648,284.342 601.701,283.518 603.754,282.552 605.807,283.084 607.859,284.221 609.912,286.939 611.965,290.581 614.018,303.587 616.071,303.55 618.124,302.659 620.177,303.509 622.23,378.345 624.283,365.051 626.335,359.903 628.388,359.076 630.441,361.75 632.494,373.954 634.547,373.829 636.6,374.134 638.653,367.05 640.706,366.304 642.759,366.909 644.811,362.047 646.864,361.717 648.917,361.608 650.97,369.305 653.023,366.258 655.076,364.561 657.129,365.12 659.182,351.544 661.235,370.886 663.288,393.807 665.34,362.874 667.393,361.502 669.446,359.167 671.499,357.834 673.552,326.138 675.605,326.068 677.658,319.622 679.711,301.217 681.764,307.832 683.816,309.581 685.869,363.724 687.922,346.853 689.975,338.511 692.028,338.389 694.081,344.94 696.134,343.496 698.187,343.5 700.24,343.496 702.292,343.493 704.345,354.213 706.398,353.173 708.451,365.764 710.504,366.197 712.557,346.525 714.61,401.537 716.663,402.714 718.716,404.46 720.768,402.561 722.821,405.852 724.874,413.07 726.927,412.996 728.98,412.941 731.033,410.828 733.086,420.598 735.139,420.771 737.192,387.464 739.245,369.547 741.297,413.021 743.35,400.484 745.403,400.258 747.456,400.043 749.509,399.362 751.562,398.934 753.615,398.486 755.668,381.686 757.721,379.37 759.773,383.567 761.826,379.832 763.879,377.926 765.932,377.887 767.985,376.42 770.038,377.577 772.091,377.346 774.144,393.822 776.197,400.919 778.249,402.339 780.302,399.808 782.355,402.031 784.408,401.625 786.461,401.689 788.514,432.225 790.567,431.145 792.62,391.684 794.673,384.86 796.725,382.719 798.778,384.953 800.831,378.073 802.884,381.383 804.937,397.524 806.99,397.296 809.043,393.775 811.096,385.784 813.149,382.106 815.202,381.657 817.254,381.656 819.307,378.836 821.36,377.577 823.413,341.298 825.466,318.629 827.519,321.063 829.572,364.634 831.625,355.859 833.678,379.217 835.73,380.688 837.783,378.852 839.836,388.594 841.889,401.297 843.942,410.807 845.995,410.373 848.048,410.846 850.101,406.938 852.154,415.652 854.206,416.379 856.259,417.073 858.312,439.793 860.365,439.782 862.418,441.47 864.471,445.444 866.524,446.461 868.577,446.372 870.63,412.464 872.682,379.404 874.735,378.991 876.788,377.477 878.841,412.301 880.894,406.355 882.947,389.246 885,390.097 887.053,389.759 889.106,366.394 891.159,370.523 893.211,369.379 895.264,335.05 897.317,332.851 899.37,332.609 901.423,328.363 903.476,361.071 905.529,280.673 907.582,279.646 909.635,280.142 911.687,289.273 913.74,291.265 915.793,327.933 917.846,329.264 919.899,326.055 921.952,301.078 924.005,299.089 926.058,418.603 928.111,426.038 930.163,426.633 932.216,447.868 934.269,447.739 936.322,443.194 938.375,427.29 940.428,412.526 942.481,404.234 944.534,403.632 946.587,395.213 948.639,396.6 950.692,396.011 952.745,396.548 954.798,401.669 956.851,394.595 958.904,340.816 960.957,334.305 963.01,332.972 965.063,330.861 967.116,370.706 969.168,365.133 971.221,355.902 973.274,350.946 975.327,350.377 977.38,350.44 979.433,351.262 981.486,351.259 983.539,351.663 985.592,353.757 987.644,353.796 989.697,361.179 991.75,385.488 993.803,386.479 995.856,379.874 997.909,381.817 999.962,383.572 1002.01,367.835 1004.07,357.955 1006.12,351.012 1008.17,349.545 1010.23,356.741 1012.28,356.759 1014.33,356.705 1016.38,357.044 1018.44,357.367 1020.49,357.51 1022.54,350.412 1024.6,351.248 1026.65,353.687 1028.7,375.903 1030.76,373.035 1032.81,366.073 1034.86,373.94 1036.91,378.489 1038.97,377.232 1041.02,367.118 1043.07,347.877 1045.13,327.921 1047.18,304.278 1049.23,304.292 1051.28,304.171 1053.34,323.891 1055.39,313.316 1057.44,371.847 1059.5,377.361 1061.55,361.402 1063.6,361.918 1065.65,391.334 1067.71,425.349 1069.76,426.175 1071.81,423.159 1073.87,347.135 1075.92,353.175 1077.97,351.352 1080.02,350.212 1082.08,342.343 1084.13,349.411 1086.18,318.969 1088.24,364.712 1090.29,302.248 1092.34,219.099 1094.39,208.783 1096.45,292.444 1098.5,291.602 1100.55,369.196 1102.61,369.058 1104.66,362.597 1106.71,317.415 1108.77,309.832 1110.82,310.289 1112.87,322.62 1114.92,296.068 1116.98,347.11 1119.03,375.879 1121.08,377.958 1123.14,340.073 1125.19,347.121 1127.24,346.987 1129.29,346.969 1131.35,346.669 1133.4,422.957 1135.45,429.637 1137.51,384.151 1139.56,384.11 1141.61,385.664 1143.66,352.447 1145.72,346.621 1147.77,289.882 1149.82,290.141 1151.88,280.198 1153.93,283.511 1155.98,284.064 1158.03,278.001 1160.09,343.314 1162.14,358.054 1164.19,279.365 1166.25,279.132 1168.3,281.502 1170.35,281.869 1172.4,282.356 1174.46,286.317 1176.51,381.046 1178.56,376.237 1180.62,449.857 1182.67,454.739 1184.72,456.617 1186.77,466.484 1188.83,401.779 1190.88,330.866 1192.93,497.082 1194.99,482.38 1197.04,460.777 1199.09,459.477 1201.15,433.346 1203.2,435.898 1205.25,436.231 1207.3,435.21 1209.36,434.43 1211.41,384.979 1213.46,364.383 1215.52,426.072 1217.57,402.385 1219.62,315.303 1221.67,311.408 1223.73,310.558 1225.78,291.371 1227.83,323.42 1229.89,337.325 1231.94,343.965 1233.99,444.099 1236.04,369.24 1238.1,497.638 1240.15,442.799 1242.2,452.977 1244.26,453.047 1246.31,506.515 1248.36,483.246 1250.41,369.116 1252.47,225.553 1254.52,229.165 1256.57,223.325 1258.63,232.081 1260.68,305.912 1262.73,399.427 1264.78,391.908 1266.84,420.848 1268.89,419.226 1270.94,421.033 1273,421.233 1275.05,421.692 1277.1,440.124 1279.16,438.536 1281.21,469.429 1283.26,476.166 1285.31,388.795 1287.37,399.572 1289.42,399.711 1291.47,446.148 1293.53,458.38 1295.58,466.471 1297.63,456.861 1299.68,434.755 1301.74,441.774 1303.79,443.07 1305.84,587.648 1307.9,499.07 1309.95,508.509 1312,430.874 1314.05,431.391 1316.11,355.488 1318.16,404.424 1320.21,445.303 1322.27,354.795 1324.32,353.917 1326.37,355.428 1328.42,355.527 1330.48,396.587 1332.53,314.603 1334.58,339.891 1336.64,340.693 1338.69,535.749 1340.74,389.315 1342.79,381.674 1344.85,348.778 1346.9,348.786 1348.95,382.74 1351.01,367.426 1353.06,365.522 1355.11,339.533 1357.16,338.184 1359.22,369.147 1361.27,361.557 1363.32,411.794 1365.38,412.467 1367.43,396.132 1369.48,344.113 1371.54,382.229 1373.59,381.523 1375.64,331.672 1377.69,331.26 1379.75,332.338 1381.8,332.598 1383.85,332.61 1385.91,383.614 1387.96,383.706 1390.01,383.964 1392.06,383.456 1394.12,389.369 1396.17,389.868 1398.22,391.05 1400.28,390.991 1402.33,389.822 1404.38,389.855 1406.43,389.758 1408.49,386.07 1410.54,388.036 1412.59,368.394 1414.65,367.914 1416.7,387.618 1418.75,386.165 1420.8,369.174 1422.86,361.042 1424.91,346.45 1426.96,346.842 1429.02,342.054 1431.07,337.955 1433.12,352.958 1435.17,350.787 1437.23,349.578 1439.28,350.862 1441.33,350.273 1443.39,346.669 1445.44,348.165 1447.49,347.933 1449.55,347.801 1451.6,347.876 1453.65,361.397 1455.7,357.868 1457.76,369.762 1459.81,360.272 1461.86,371.154 1463.92,296.768 1465.97,320.613 1468.02,346.068 1470.07,349.298 1472.13,349.669 1474.18,356.386 1476.23,349.549 1478.29,384.624 1480.34,374.682 1482.39,381.69 1484.44,393.652 1486.5,394.933 1488.55,398.125 1490.6,393.031 1492.66,351.489 1494.71,346.589 1496.76,347.477 1498.81,345.618 1500.87,348.587 1502.92,348.674 1504.97,341.276 1507.03,339.209 1509.08,331.727 1511.13,294.241 1513.18,328.98 1515.24,338.097 1517.29,357.601 1519.34,354.745 1521.4,354.73 1523.45,349.333 1525.5,348.32 1527.55,348.393 1529.61,365.182 1531.66,382.96 1533.71,391.641 1535.77,387.958 1537.82,390.175 1539.87,370.255 1541.93,368.831 1543.98,371.931 1546.03,371.056 1548.08,364.44 1550.14,364.813 1552.19,380.642 1554.24,388.422 1556.3,383.538 1558.35,379.819 1560.4,374.943 1562.45,379.45 1564.51,377.214 1566.56,377.792 1568.61,340.633 1570.67,340.795 1572.72,342.626 1574.77,342.55 1576.82,345.757 1578.88,344.571 1580.93,344.37 1582.98,345.662 1585.04,346.849 1587.09,343.88 1589.14,343.772 1591.19,345.293 1593.25,359.481 1595.3,375.486 1597.35,375.902 1599.41,370.974 1601.46,395.794 1603.51,395.736 1605.56,398.406 1607.62,398.496 1609.67,398.705 1611.72,400.12 1613.78,385.144 1615.83,384.603 1617.88,374.815 1619.94,390.158 1621.99,388.566 1624.04,337.543 1626.09,352.037 1628.15,348.434 1630.2,344.047 1632.25,344.197 1634.31,386.033 1636.36,389.652 1638.41,410.946 1640.46,410.828 1642.52,349.559 1644.57,349.403 1646.62,349.42 1648.68,356.162 1650.73,355.898 1652.78,356.044 1654.83,357.867 1656.89,360.246 1658.94,359.582 1660.99,359.838 1663.05,360.385 1665.1,389.076 1667.15,390.239 1669.2,416.536 1671.26,400.139 1673.31,417.922 1675.36,363.368 1677.42,361.985 1679.47,361.829 1681.52,358.176 1683.57,356.197 1685.63,396.208 1687.68,440.78 1689.73,439.613 1691.79,441.488 1693.84,441.487 1695.89,441.905 1697.94,442.839 1700,443.123 1702.05,446.788 1704.1,446.497 1706.16,439.007 1708.21,430.02 1710.26,430.35 1712.32,430.372 1714.37,428.312 1716.42,427.949 1718.47,349.337 1720.53,331.72 1722.58,327.923 1724.63,323.968 1726.69,409.887 1728.74,408.009 1730.79,408.008 1732.84,406.847 1734.9,404.351 1736.95,388.641 1739,390.338 1741.06,391.281 1743.11,390.644 1745.16,399.823 1747.21,388.824 1749.27,345.723 1751.32,344.389 1753.37,344.863 1755.43,344.352 1757.48,338.296 1759.53,338.06 1761.58,337.257 1763.64,339.06 1765.69,339.028 1767.74,339.091 1769.8,339.297 1771.85,320.708 1773.9,341.745 1775.95,331.428 1778.01,313.731 1780.06,315.302 1782.11,315.395 1784.17,287.903 1786.22,349.985 1788.27,353.472 1790.33,355.32 1792.38,356.127 1794.43,356.525 1796.48,379.08 1798.54,373.428 1800.59,373.105 1802.64,366.516 1804.7,372.016 1806.75,400.126 1808.8,399.581 1810.85,400.419 1812.91,366.445 1814.96,351.654 1817.01,374.232 1819.07,382.038 1821.12,376.324 1823.17,373.269 1825.22,375.053 1827.28,369.653 1829.33,365.484 1831.38,392.107 1833.44,368.697 1835.49,368.35 1837.54,368.254 1839.59,368.401 1841.65,368.453 1843.7,365.688 1845.75,365.849 1847.81,370.575 1849.86,370.759 1851.91,369.484 1853.96,362.21 1856.02,362.209 1858.07,374.058 1860.12,373.688 1862.18,376.135 1864.23,376.627 1866.28,376.989 1868.34,380.061 1870.39,380.288 1872.44,381.472 1874.49,359.087 1876.55,357.14 1878.6,336.99 1880.65,350.51 1882.71,342.306 1884.76,338.316 1886.81,345.81 1888.86,414.106 1890.92,401.119 1892.97,411.407 1895.02,413.207 1897.08,413.222 1899.13,413.018 1901.18,412.965 1903.23,411.281 1905.29,411.237 1907.34,407.198 1909.39,405.838 1911.45,410.963 1913.5,411.189 1915.55,399.071 1917.6,399.161 1919.66,391.88 1921.71,410.465 1923.76,401.748 1925.82,394.323 1927.87,339.713 1929.92,308.709 1931.97,303.352 1934.03,301.297 1936.08,363.579 1938.13,375.138 1940.19,375.9 1942.24,377.2 1944.29,369.31 1946.34,369.211 1948.4,509.506 1950.45,510.143 1952.5,506.271 1954.56,490.336 1956.61,426.672 1958.66,426.06 1960.72,429.283 1962.77,427.565 1964.82,426.108 1966.87,427.186 1968.93,427.211 1970.98,418.54 1973.03,407.353 1975.09,404.816 1977.14,427.397 1979.19,432.248 1981.24,224.86 1983.3,232.035 1985.35,239.59 1987.4,238.58 1989.46,239.052 1991.51,243.482 1993.56,250.648 1995.61,249.742 1997.67,253.524 1999.72,248.73 2001.77,248.759 2003.83,247.273 2005.88,247.278 2007.93,247.121 2009.98,248.408 2012.04,355.875 2014.09,360.843 2016.14,365.574 2018.2,352.277 2020.25,361.377 2022.3,400.347 2024.35,369.455 2026.41,370.91 2028.46,426.025 2030.51,454.823 2032.57,327.082 2034.62,324.515 2036.67,325.478 2038.73,326.491 2040.78,326.35 2042.83,315.393 2044.88,306.436 2046.94,301.303 2048.99,292.866 2051.04,252.518 2053.1,249.717 2055.15,244.28 2057.2,241.925 2059.25,366.612 2061.31,323.394 2063.36,323.143 2065.41,312.804 2067.47,313.508 2069.52,304.997 2071.57,304.666 2073.62,303.807 2075.68,303.497 2077.73,298.278 2079.78,379.914 2081.84,398.68 2083.89,399.121 2085.94,343.155 2087.99,404.683 2090.05,402.986 2092.1,363.472 2094.15,366.055 2096.21,342.523 2098.26,376.193 2100.31,384.697 2102.36,401.024 2104.42,373.151 2106.47,349.043 2108.52,374.318 2110.58,363.132 2112.63,346.551 2114.68,293.529 2116.73,308.392 2118.79,307.568 2120.84,282.266 2122.89,289.18 2124.95,289.97 2127,289.993 2129.05,302.394 2131.11,309.192 2133.16,297.459 2135.21,299.677 2137.26,299.719 2139.32,295.446 2141.37,284.838 2143.42,286.6 2145.48,294.195 2147.53,295.261 2149.58,287.012 2151.63,289.275 2153.69,293.16 2155.74,292.818 2157.79,329.126 2159.85,321.492 2161.9,329.981 2163.95,327.822 2166,332.805 2168.06,330.735 2170.11,332.671 2172.16,374.511 2174.22,369.881 2176.27,409.243 2178.32,324.089 2180.37,344.576 2182.43,345.052 2184.48,353.034 2186.53,353.838 2188.59,353.959 2190.64,353.464 2192.69,351.04 2194.74,361.237 2196.8,360.587 2198.85,361.127 2200.9,350.461 2202.96,349.696 2205.01,349.785 2207.06,347.478 2209.12,338.836 2211.17,354.693 2213.22,354.718 2215.27,335.045 2217.33,358.817 2219.38,353.169 2221.43,355.124 2223.49,361.261 2225.54,358.862 2227.59,359.028 2229.64,439.674 2231.7,436.624 2233.75,436.772 2235.8,387.632 2237.86,384.949 2239.91,385.064 2241.96,396.078 2244.01,393.937 2246.07,392.136 2248.12,392.276 2250.17,382.507 2252.23,381.526 2254.28,380.628 2256.33,329.966 2258.38,326.848 2260.44,425.764 2262.49,430.381 2264.54,434.126 2266.6,427.287 2268.65,427.179 2270.7,432.215 2272.75,439.047 2274.81,436.767 2276.86,440.945 2278.91,461.131 2280.97,459.566 2283.02,456.946 2285.07,445.975 2287.12,447.676 2289.18,461.734 2291.23,479.038 "/>
<path clip-path="url(#clip040)" d="M1983.6 172.231 L2280.29 172.231 L2280.29 68.5509 L1983.6 68.5509  Z" fill="#ffffff" fill-rule="evenodd" fill-opacity="1"/>
<polyline clip-path="url(#clip040)" style="stroke:#000000; stroke-linecap:round; stroke-linejoin:round; stroke-width:4; stroke-opacity:1; fill:none" points="1983.6,172.231 2280.29,172.231 2280.29,68.5509 1983.6,68.5509 1983.6,172.231 "/>
<polyline clip-path="url(#clip040)" style="stroke:#009af9; stroke-linecap:round; stroke-linejoin:round; stroke-width:4; stroke-opacity:1; fill:none" points="2007.75,120.391 2152.68,120.391 "/>
<path clip-path="url(#clip040)" d="M2176.83 103.111 L2181.51 103.111 L2181.51 133.736 L2198.34 133.736 L2198.34 137.671 L2176.83 137.671 L2176.83 103.111 Z" fill="#000000" fill-rule="nonzero" fill-opacity="1" /><path clip-path="url(#clip040)" d="M2223.96 104.245 L2223.96 108.805 Q2221.3 107.532 2218.94 106.907 Q2216.58 106.282 2214.38 106.282 Q2210.56 106.282 2208.48 107.764 Q2206.42 109.245 2206.42 111.977 Q2206.42 114.268 2207.78 115.449 Q2209.17 116.606 2213.01 117.324 L2215.84 117.902 Q2221.07 118.898 2223.55 121.421 Q2226.05 123.921 2226.05 128.134 Q2226.05 133.157 2222.67 135.75 Q2219.31 138.342 2212.81 138.342 Q2210.35 138.342 2207.57 137.787 Q2204.82 137.231 2201.86 136.143 L2201.86 131.328 Q2204.7 132.926 2207.44 133.736 Q2210.17 134.546 2212.81 134.546 Q2216.81 134.546 2218.99 132.972 Q2221.16 131.398 2221.16 128.481 Q2221.16 125.935 2219.59 124.5 Q2218.04 123.064 2214.47 122.347 L2211.62 121.791 Q2206.39 120.75 2204.06 118.527 Q2201.72 116.305 2201.72 112.347 Q2201.72 107.764 2204.94 105.125 Q2208.18 102.486 2213.85 102.486 Q2216.28 102.486 2218.8 102.926 Q2221.32 103.366 2223.96 104.245 Z" fill="#000000" fill-rule="nonzero" fill-opacity="1" /><path clip-path="url(#clip040)" d="M2254.06 104.245 L2254.06 108.805 Q2251.39 107.532 2249.03 106.907 Q2246.67 106.282 2244.47 106.282 Q2240.65 106.282 2238.57 107.764 Q2236.51 109.245 2236.51 111.977 Q2236.51 114.268 2237.87 115.449 Q2239.26 116.606 2243.11 117.324 L2245.93 117.902 Q2251.16 118.898 2253.64 121.421 Q2256.14 123.921 2256.14 128.134 Q2256.14 133.157 2252.76 135.75 Q2249.4 138.342 2242.9 138.342 Q2240.44 138.342 2237.67 137.787 Q2234.91 137.231 2231.95 136.143 L2231.95 131.328 Q2234.8 132.926 2237.53 133.736 Q2240.26 134.546 2242.9 134.546 Q2246.9 134.546 2249.08 132.972 Q2251.25 131.398 2251.25 128.481 Q2251.25 125.935 2249.68 124.5 Q2248.13 123.064 2244.56 122.347 L2241.72 121.791 Q2236.49 120.75 2234.15 118.527 Q2231.81 116.305 2231.81 112.347 Q2231.81 107.764 2235.03 105.125 Q2238.27 102.486 2243.94 102.486 Q2246.37 102.486 2248.89 102.926 Q2251.42 103.366 2254.06 104.245 Z" fill="#000000" fill-rule="nonzero" fill-opacity="1" /><path clip-path="url(#clip040)" d="M178.867 1486.45 L2352.76 1486.45 L2352.76 847.244 L178.867 847.244  Z" fill="#ffffff" fill-rule="evenodd" fill-opacity="1"/>
<defs>
  <clipPath id="clip043">
    <rect x="178" y="847" width="2175" height="640"/>
  </clipPath>
</defs>
<polyline clip-path="url(#clip043)" style="stroke:#000000; stroke-linecap:round; stroke-linejoin:round; stroke-width:2; stroke-opacity:0.1; fill:none" points="238.339,1486.45 238.339,847.244 "/>
<polyline clip-path="url(#clip043)" style="stroke:#000000; stroke-linecap:round; stroke-linejoin:round; stroke-width:2; stroke-opacity:0.1; fill:none" points="751.562,1486.45 751.562,847.244 "/>
<polyline clip-path="url(#clip043)" style="stroke:#000000; stroke-linecap:round; stroke-linejoin:round; stroke-width:2; stroke-opacity:0.1; fill:none" points="1264.78,1486.45 1264.78,847.244 "/>
<polyline clip-path="url(#clip043)" style="stroke:#000000; stroke-linecap:round; stroke-linejoin:round; stroke-width:2; stroke-opacity:0.1; fill:none" points="1778.01,1486.45 1778.01,847.244 "/>
<polyline clip-path="url(#clip043)" style="stroke:#000000; stroke-linecap:round; stroke-linejoin:round; stroke-width:2; stroke-opacity:0.1; fill:none" points="2291.23,1486.45 2291.23,847.244 "/>
<polyline clip-path="url(#clip043)" style="stroke:#000000; stroke-linecap:round; stroke-linejoin:round; stroke-width:2; stroke-opacity:0.1; fill:none" points="178.867,1486.45 2352.76,1486.45 "/>
<polyline clip-path="url(#clip043)" style="stroke:#000000; stroke-linecap:round; stroke-linejoin:round; stroke-width:2; stroke-opacity:0.1; fill:none" points="178.867,1326.65 2352.76,1326.65 "/>
<polyline clip-path="url(#clip043)" style="stroke:#000000; stroke-linecap:round; stroke-linejoin:round; stroke-width:2; stroke-opacity:0.1; fill:none" points="178.867,1166.85 2352.76,1166.85 "/>
<polyline clip-path="url(#clip043)" style="stroke:#000000; stroke-linecap:round; stroke-linejoin:round; stroke-width:2; stroke-opacity:0.1; fill:none" points="178.867,1007.05 2352.76,1007.05 "/>
<polyline clip-path="url(#clip043)" style="stroke:#000000; stroke-linecap:round; stroke-linejoin:round; stroke-width:2; stroke-opacity:0.1; fill:none" points="178.867,847.244 2352.76,847.244 "/>
<polyline clip-path="url(#clip040)" style="stroke:#000000; stroke-linecap:round; stroke-linejoin:round; stroke-width:4; stroke-opacity:1; fill:none" points="178.867,1486.45 2352.76,1486.45 "/>
<polyline clip-path="url(#clip040)" style="stroke:#000000; stroke-linecap:round; stroke-linejoin:round; stroke-width:4; stroke-opacity:1; fill:none" points="238.339,1486.45 238.339,1467.55 "/>
<polyline clip-path="url(#clip040)" style="stroke:#000000; stroke-linecap:round; stroke-linejoin:round; stroke-width:4; stroke-opacity:1; fill:none" points="751.562,1486.45 751.562,1467.55 "/>
<polyline clip-path="url(#clip040)" style="stroke:#000000; stroke-linecap:round; stroke-linejoin:round; stroke-width:4; stroke-opacity:1; fill:none" points="1264.78,1486.45 1264.78,1467.55 "/>
<polyline clip-path="url(#clip040)" style="stroke:#000000; stroke-linecap:round; stroke-linejoin:round; stroke-width:4; stroke-opacity:1; fill:none" points="1778.01,1486.45 1778.01,1467.55 "/>
<polyline clip-path="url(#clip040)" style="stroke:#000000; stroke-linecap:round; stroke-linejoin:round; stroke-width:4; stroke-opacity:1; fill:none" points="2291.23,1486.45 2291.23,1467.55 "/>
<path clip-path="url(#clip040)" d="M238.339 1517.37 Q234.728 1517.37 232.899 1520.93 Q231.094 1524.47 231.094 1531.6 Q231.094 1538.71 232.899 1542.27 Q234.728 1545.82 238.339 1545.82 Q241.973 1545.82 243.779 1542.27 Q245.607 1538.71 245.607 1531.6 Q245.607 1524.47 243.779 1520.93 Q241.973 1517.37 238.339 1517.37 M238.339 1513.66 Q244.149 1513.66 247.205 1518.27 Q250.283 1522.85 250.283 1531.6 Q250.283 1540.33 247.205 1544.94 Q244.149 1549.52 238.339 1549.52 Q232.529 1549.52 229.45 1544.94 Q226.395 1540.33 226.395 1531.6 Q226.395 1522.85 229.45 1518.27 Q232.529 1513.66 238.339 1513.66 Z" fill="#000000" fill-rule="nonzero" fill-opacity="1" /><path clip-path="url(#clip040)" d="M715.254 1544.91 L731.574 1544.91 L731.574 1548.85 L709.629 1548.85 L709.629 1544.91 Q712.291 1542.16 716.875 1537.53 Q721.481 1532.88 722.662 1531.53 Q724.907 1529.01 725.787 1527.27 Q726.689 1525.51 726.689 1523.82 Q726.689 1521.07 724.745 1519.33 Q722.824 1517.6 719.722 1517.6 Q717.523 1517.6 715.069 1518.36 Q712.638 1519.13 709.861 1520.68 L709.861 1515.95 Q712.685 1514.82 715.138 1514.24 Q717.592 1513.66 719.629 1513.66 Q725 1513.66 728.194 1516.35 Q731.388 1519.03 731.388 1523.52 Q731.388 1525.65 730.578 1527.57 Q729.791 1529.47 727.685 1532.07 Q727.106 1532.74 724.004 1535.95 Q720.902 1539.15 715.254 1544.91 Z" fill="#000000" fill-rule="nonzero" fill-opacity="1" /><path clip-path="url(#clip040)" d="M741.435 1514.29 L759.791 1514.29 L759.791 1518.22 L745.717 1518.22 L745.717 1526.7 Q746.736 1526.35 747.754 1526.19 Q748.773 1526 749.791 1526 Q755.578 1526 758.958 1529.17 Q762.337 1532.34 762.337 1537.76 Q762.337 1543.34 758.865 1546.44 Q755.393 1549.52 749.073 1549.52 Q746.898 1549.52 744.629 1549.15 Q742.384 1548.78 739.976 1548.04 L739.976 1543.34 Q742.06 1544.47 744.282 1545.03 Q746.504 1545.58 748.981 1545.58 Q752.985 1545.58 755.323 1543.48 Q757.661 1541.37 757.661 1537.76 Q757.661 1534.15 755.323 1532.04 Q752.985 1529.94 748.981 1529.94 Q747.106 1529.94 745.231 1530.35 Q743.379 1530.77 741.435 1531.65 L741.435 1514.29 Z" fill="#000000" fill-rule="nonzero" fill-opacity="1" /><path clip-path="url(#clip040)" d="M781.55 1517.37 Q777.939 1517.37 776.11 1520.93 Q774.305 1524.47 774.305 1531.6 Q774.305 1538.71 776.11 1542.27 Q777.939 1545.82 781.55 1545.82 Q785.184 1545.82 786.99 1542.27 Q788.819 1538.71 788.819 1531.6 Q788.819 1524.47 786.99 1520.93 Q785.184 1517.37 781.55 1517.37 M781.55 1513.66 Q787.36 1513.66 790.416 1518.27 Q793.495 1522.85 793.495 1531.6 Q793.495 1540.33 790.416 1544.94 Q787.36 1549.52 781.55 1549.52 Q775.74 1549.52 772.661 1544.94 Q769.606 1540.33 769.606 1531.6 Q769.606 1522.85 772.661 1518.27 Q775.74 1513.66 781.55 1513.66 Z" fill="#000000" fill-rule="nonzero" fill-opacity="1" /><path clip-path="url(#clip040)" d="M1224.4 1514.29 L1242.76 1514.29 L1242.76 1518.22 L1228.69 1518.22 L1228.69 1526.7 Q1229.7 1526.35 1230.72 1526.19 Q1231.74 1526 1232.76 1526 Q1238.55 1526 1241.93 1529.17 Q1245.31 1532.34 1245.31 1537.76 Q1245.31 1543.34 1241.83 1546.44 Q1238.36 1549.52 1232.04 1549.52 Q1229.87 1549.52 1227.6 1549.15 Q1225.35 1548.78 1222.94 1548.04 L1222.94 1543.34 Q1225.03 1544.47 1227.25 1545.03 Q1229.47 1545.58 1231.95 1545.58 Q1235.95 1545.58 1238.29 1543.48 Q1240.63 1541.37 1240.63 1537.76 Q1240.63 1534.15 1238.29 1532.04 Q1235.95 1529.94 1231.95 1529.94 Q1230.07 1529.94 1228.2 1530.35 Q1226.35 1530.77 1224.4 1531.65 L1224.4 1514.29 Z" fill="#000000" fill-rule="nonzero" fill-opacity="1" /><path clip-path="url(#clip040)" d="M1264.52 1517.37 Q1260.91 1517.37 1259.08 1520.93 Q1257.27 1524.47 1257.27 1531.6 Q1257.27 1538.71 1259.08 1542.27 Q1260.91 1545.82 1264.52 1545.82 Q1268.15 1545.82 1269.96 1542.27 Q1271.79 1538.71 1271.79 1531.6 Q1271.79 1524.47 1269.96 1520.93 Q1268.15 1517.37 1264.52 1517.37 M1264.52 1513.66 Q1270.33 1513.66 1273.38 1518.27 Q1276.46 1522.85 1276.46 1531.6 Q1276.46 1540.33 1273.38 1544.94 Q1270.33 1549.52 1264.52 1549.52 Q1258.71 1549.52 1255.63 1544.94 Q1252.57 1540.33 1252.57 1531.6 Q1252.57 1522.85 1255.63 1518.27 Q1258.71 1513.66 1264.52 1513.66 Z" fill="#000000" fill-rule="nonzero" fill-opacity="1" /><path clip-path="url(#clip040)" d="M1294.68 1517.37 Q1291.07 1517.37 1289.24 1520.93 Q1287.44 1524.47 1287.44 1531.6 Q1287.44 1538.71 1289.24 1542.27 Q1291.07 1545.82 1294.68 1545.82 Q1298.31 1545.82 1300.12 1542.27 Q1301.95 1538.71 1301.95 1531.6 Q1301.95 1524.47 1300.12 1520.93 Q1298.31 1517.37 1294.68 1517.37 M1294.68 1513.66 Q1300.49 1513.66 1303.55 1518.27 Q1306.62 1522.85 1306.62 1531.6 Q1306.62 1540.33 1303.55 1544.94 Q1300.49 1549.52 1294.68 1549.52 Q1288.87 1549.52 1285.79 1544.94 Q1282.74 1540.33 1282.74 1531.6 Q1282.74 1522.85 1285.79 1518.27 Q1288.87 1513.66 1294.68 1513.66 Z" fill="#000000" fill-rule="nonzero" fill-opacity="1" /><path clip-path="url(#clip040)" d="M1736.28 1514.29 L1758.51 1514.29 L1758.51 1516.28 L1745.96 1548.85 L1741.08 1548.85 L1752.88 1518.22 L1736.28 1518.22 L1736.28 1514.29 Z" fill="#000000" fill-rule="nonzero" fill-opacity="1" /><path clip-path="url(#clip040)" d="M1767.67 1514.29 L1786.03 1514.29 L1786.03 1518.22 L1771.95 1518.22 L1771.95 1526.7 Q1772.97 1526.35 1773.99 1526.19 Q1775.01 1526 1776.03 1526 Q1781.82 1526 1785.2 1529.17 Q1788.57 1532.34 1788.57 1537.76 Q1788.57 1543.34 1785.1 1546.44 Q1781.63 1549.52 1775.31 1549.52 Q1773.14 1549.52 1770.87 1549.15 Q1768.62 1548.78 1766.21 1548.04 L1766.21 1543.34 Q1768.3 1544.47 1770.52 1545.03 Q1772.74 1545.58 1775.22 1545.58 Q1779.22 1545.58 1781.56 1543.48 Q1783.9 1541.37 1783.9 1537.76 Q1783.9 1534.15 1781.56 1532.04 Q1779.22 1529.94 1775.22 1529.94 Q1773.34 1529.94 1771.47 1530.35 Q1769.62 1530.77 1767.67 1531.65 L1767.67 1514.29 Z" fill="#000000" fill-rule="nonzero" fill-opacity="1" /><path clip-path="url(#clip040)" d="M1807.79 1517.37 Q1804.18 1517.37 1802.35 1520.93 Q1800.54 1524.47 1800.54 1531.6 Q1800.54 1538.71 1802.35 1542.27 Q1804.18 1545.82 1807.79 1545.82 Q1811.42 1545.82 1813.23 1542.27 Q1815.06 1538.71 1815.06 1531.6 Q1815.06 1524.47 1813.23 1520.93 Q1811.42 1517.37 1807.79 1517.37 M1807.79 1513.66 Q1813.6 1513.66 1816.65 1518.27 Q1819.73 1522.85 1819.73 1531.6 Q1819.73 1540.33 1816.65 1544.94 Q1813.6 1549.52 1807.79 1549.52 Q1801.98 1549.52 1798.9 1544.94 Q1795.84 1540.33 1795.84 1531.6 Q1795.84 1522.85 1798.9 1518.27 Q1801.98 1513.66 1807.79 1513.66 Z" fill="#000000" fill-rule="nonzero" fill-opacity="1" /><path clip-path="url(#clip040)" d="M2235.76 1544.91 L2243.4 1544.91 L2243.4 1518.55 L2235.09 1520.21 L2235.09 1515.95 L2243.35 1514.29 L2248.02 1514.29 L2248.02 1544.91 L2255.66 1544.91 L2255.66 1548.85 L2235.76 1548.85 L2235.76 1544.91 Z" fill="#000000" fill-rule="nonzero" fill-opacity="1" /><path clip-path="url(#clip040)" d="M2275.11 1517.37 Q2271.5 1517.37 2269.67 1520.93 Q2267.86 1524.47 2267.86 1531.6 Q2267.86 1538.71 2269.67 1542.27 Q2271.5 1545.82 2275.11 1545.82 Q2278.74 1545.82 2280.55 1542.27 Q2282.38 1538.71 2282.38 1531.6 Q2282.38 1524.47 2280.55 1520.93 Q2278.74 1517.37 2275.11 1517.37 M2275.11 1513.66 Q2280.92 1513.66 2283.97 1518.27 Q2287.05 1522.85 2287.05 1531.6 Q2287.05 1540.33 2283.97 1544.94 Q2280.92 1549.52 2275.11 1549.52 Q2269.3 1549.52 2266.22 1544.94 Q2263.16 1540.33 2263.16 1531.6 Q2263.16 1522.85 2266.22 1518.27 Q2269.3 1513.66 2275.11 1513.66 Z" fill="#000000" fill-rule="nonzero" fill-opacity="1" /><path clip-path="url(#clip040)" d="M2305.27 1517.37 Q2301.66 1517.37 2299.83 1520.93 Q2298.02 1524.47 2298.02 1531.6 Q2298.02 1538.71 2299.83 1542.27 Q2301.66 1545.82 2305.27 1545.82 Q2308.9 1545.82 2310.71 1542.27 Q2312.54 1538.71 2312.54 1531.6 Q2312.54 1524.47 2310.71 1520.93 Q2308.9 1517.37 2305.27 1517.37 M2305.27 1513.66 Q2311.08 1513.66 2314.14 1518.27 Q2317.21 1522.85 2317.21 1531.6 Q2317.21 1540.33 2314.14 1544.94 Q2311.08 1549.52 2305.27 1549.52 Q2299.46 1549.52 2296.38 1544.94 Q2293.33 1540.33 2293.33 1531.6 Q2293.33 1522.85 2296.38 1518.27 Q2299.46 1513.66 2305.27 1513.66 Z" fill="#000000" fill-rule="nonzero" fill-opacity="1" /><path clip-path="url(#clip040)" d="M2335.43 1517.37 Q2331.82 1517.37 2329.99 1520.93 Q2328.19 1524.47 2328.19 1531.6 Q2328.19 1538.71 2329.99 1542.27 Q2331.82 1545.82 2335.43 1545.82 Q2339.07 1545.82 2340.87 1542.27 Q2342.7 1538.71 2342.7 1531.6 Q2342.7 1524.47 2340.87 1520.93 Q2339.07 1517.37 2335.43 1517.37 M2335.43 1513.66 Q2341.24 1513.66 2344.3 1518.27 Q2347.38 1522.85 2347.38 1531.6 Q2347.38 1540.33 2344.3 1544.94 Q2341.24 1549.52 2335.43 1549.52 Q2329.62 1549.52 2326.54 1544.94 Q2323.49 1540.33 2323.49 1531.6 Q2323.49 1522.85 2326.54 1518.27 Q2329.62 1513.66 2335.43 1513.66 Z" fill="#000000" fill-rule="nonzero" fill-opacity="1" /><polyline clip-path="url(#clip040)" style="stroke:#000000; stroke-linecap:round; stroke-linejoin:round; stroke-width:4; stroke-opacity:1; fill:none" points="178.867,1486.45 178.867,847.244 "/>
<polyline clip-path="url(#clip040)" style="stroke:#000000; stroke-linecap:round; stroke-linejoin:round; stroke-width:4; stroke-opacity:1; fill:none" points="178.867,1486.45 197.764,1486.45 "/>
<polyline clip-path="url(#clip040)" style="stroke:#000000; stroke-linecap:round; stroke-linejoin:round; stroke-width:4; stroke-opacity:1; fill:none" points="178.867,1326.65 197.764,1326.65 "/>
<polyline clip-path="url(#clip040)" style="stroke:#000000; stroke-linecap:round; stroke-linejoin:round; stroke-width:4; stroke-opacity:1; fill:none" points="178.867,1166.85 197.764,1166.85 "/>
<polyline clip-path="url(#clip040)" style="stroke:#000000; stroke-linecap:round; stroke-linejoin:round; stroke-width:4; stroke-opacity:1; fill:none" points="178.867,1007.05 197.764,1007.05 "/>
<polyline clip-path="url(#clip040)" style="stroke:#000000; stroke-linecap:round; stroke-linejoin:round; stroke-width:4; stroke-opacity:1; fill:none" points="178.867,847.244 197.764,847.244 "/>
<path clip-path="url(#clip040)" d="M50.9921 1486.9 L80.6679 1486.9 L80.6679 1490.83 L50.9921 1490.83 L50.9921 1486.9 Z" fill="#000000" fill-rule="nonzero" fill-opacity="1" /><path clip-path="url(#clip040)" d="M91.5706 1499.79 L99.2095 1499.79 L99.2095 1473.43 L90.8993 1475.09 L90.8993 1470.83 L99.1632 1469.17 L103.839 1469.17 L103.839 1499.79 L111.478 1499.79 L111.478 1503.73 L91.5706 1503.73 L91.5706 1499.79 Z" fill="#000000" fill-rule="nonzero" fill-opacity="1" /><path clip-path="url(#clip040)" d="M130.922 1472.25 Q127.311 1472.25 125.482 1475.81 Q123.677 1479.35 123.677 1486.48 Q123.677 1493.59 125.482 1497.15 Q127.311 1500.7 130.922 1500.7 Q134.556 1500.7 136.362 1497.15 Q138.191 1493.59 138.191 1486.48 Q138.191 1479.35 136.362 1475.81 Q134.556 1472.25 130.922 1472.25 M130.922 1468.54 Q136.732 1468.54 139.788 1473.15 Q142.867 1477.73 142.867 1486.48 Q142.867 1495.21 139.788 1499.82 Q136.732 1504.4 130.922 1504.4 Q125.112 1504.4 122.033 1499.82 Q118.978 1495.21 118.978 1486.48 Q118.978 1477.73 122.033 1473.15 Q125.112 1468.54 130.922 1468.54 Z" fill="#000000" fill-rule="nonzero" fill-opacity="1" /><path clip-path="url(#clip040)" d="M82.1494 1327.1 L111.825 1327.1 L111.825 1331.03 L82.1494 1331.03 L82.1494 1327.1 Z" fill="#000000" fill-rule="nonzero" fill-opacity="1" /><path clip-path="url(#clip040)" d="M121.964 1309.37 L140.32 1309.37 L140.32 1313.3 L126.246 1313.3 L126.246 1321.77 Q127.265 1321.43 128.283 1321.27 Q129.302 1321.08 130.32 1321.08 Q136.107 1321.08 139.487 1324.25 Q142.867 1327.42 142.867 1332.84 Q142.867 1338.42 139.394 1341.52 Q135.922 1344.6 129.603 1344.6 Q127.427 1344.6 125.158 1344.23 Q122.913 1343.86 120.506 1343.12 L120.506 1338.42 Q122.589 1339.55 124.811 1340.11 Q127.033 1340.66 129.51 1340.66 Q133.515 1340.66 135.853 1338.56 Q138.191 1336.45 138.191 1332.84 Q138.191 1329.23 135.853 1327.12 Q133.515 1325.01 129.51 1325.01 Q127.635 1325.01 125.76 1325.43 Q123.908 1325.85 121.964 1326.73 L121.964 1309.37 Z" fill="#000000" fill-rule="nonzero" fill-opacity="1" /><path clip-path="url(#clip040)" d="M130.922 1152.64 Q127.311 1152.64 125.482 1156.21 Q123.677 1159.75 123.677 1166.88 Q123.677 1173.99 125.482 1177.55 Q127.311 1181.09 130.922 1181.09 Q134.556 1181.09 136.362 1177.55 Q138.191 1173.99 138.191 1166.88 Q138.191 1159.75 136.362 1156.21 Q134.556 1152.64 130.922 1152.64 M130.922 1148.94 Q136.732 1148.94 139.788 1153.55 Q142.867 1158.13 142.867 1166.88 Q142.867 1175.61 139.788 1180.21 Q136.732 1184.8 130.922 1184.8 Q125.112 1184.8 122.033 1180.21 Q118.978 1175.61 118.978 1166.88 Q118.978 1158.13 122.033 1153.55 Q125.112 1148.94 130.922 1148.94 Z" fill="#000000" fill-rule="nonzero" fill-opacity="1" /><path clip-path="url(#clip040)" d="M121.964 989.765 L140.32 989.765 L140.32 993.7 L126.246 993.7 L126.246 1002.17 Q127.265 1001.83 128.283 1001.66 Q129.302 1001.48 130.32 1001.48 Q136.107 1001.48 139.487 1004.65 Q142.867 1007.82 142.867 1013.24 Q142.867 1018.82 139.394 1021.92 Q135.922 1025 129.603 1025 Q127.427 1025 125.158 1024.63 Q122.913 1024.26 120.506 1023.51 L120.506 1018.82 Q122.589 1019.95 124.811 1020.51 Q127.033 1021.06 129.51 1021.06 Q133.515 1021.06 135.853 1018.95 Q138.191 1016.85 138.191 1013.24 Q138.191 1009.63 135.853 1007.52 Q133.515 1005.41 129.51 1005.41 Q127.635 1005.41 125.76 1005.83 Q123.908 1006.25 121.964 1007.13 L121.964 989.765 Z" fill="#000000" fill-rule="nonzero" fill-opacity="1" /><path clip-path="url(#clip040)" d="M91.5706 860.589 L99.2095 860.589 L99.2095 834.223 L90.8993 835.89 L90.8993 831.631 L99.1632 829.964 L103.839 829.964 L103.839 860.589 L111.478 860.589 L111.478 864.524 L91.5706 864.524 L91.5706 860.589 Z" fill="#000000" fill-rule="nonzero" fill-opacity="1" /><path clip-path="url(#clip040)" d="M130.922 833.043 Q127.311 833.043 125.482 836.608 Q123.677 840.149 123.677 847.279 Q123.677 854.385 125.482 857.95 Q127.311 861.492 130.922 861.492 Q134.556 861.492 136.362 857.95 Q138.191 854.385 138.191 847.279 Q138.191 840.149 136.362 836.608 Q134.556 833.043 130.922 833.043 M130.922 829.339 Q136.732 829.339 139.788 833.946 Q142.867 838.529 142.867 847.279 Q142.867 856.006 139.788 860.612 Q136.732 865.195 130.922 865.195 Q125.112 865.195 122.033 860.612 Q118.978 856.006 118.978 847.279 Q118.978 838.529 122.033 833.946 Q125.112 829.339 130.922 829.339 Z" fill="#000000" fill-rule="nonzero" fill-opacity="1" /><polyline clip-path="url(#clip043)" style="stroke:#009af9; stroke-linecap:round; stroke-linejoin:round; stroke-width:4; stroke-opacity:1; fill:none" points="240.392,1134.89 242.445,1183.62 244.498,1149.59 246.55,1137.83 248.603,1220.17 250.656,1133.51 252.709,1313.44 254.762,1163.75 256.815,1137.26 258.868,1145.63 260.921,1175.53 262.974,1167.53 265.027,1159.23 267.079,1174.68 269.132,1152.8 271.185,1176.05 273.238,1174.71 275.291,1180.94 277.344,1176.39 279.397,1199.26 281.45,1241.54 283.503,1201.32 285.555,1155.69 287.608,1047.13 289.661,1145.07 291.714,1174.05 293.767,1205.26 295.82,1142.71 297.873,1129.87 299.926,1181.85 301.979,1169.07 304.031,1122.56 306.084,1210.57 308.137,1185.25 310.19,1173.84 312.243,1142.26 314.296,1156.85 316.349,1169.15 318.402,1181.94 320.455,1157.23 322.507,1106.44 324.56,1130.9 326.613,1150.57 328.666,1163.71 330.719,1173.58 332.772,1301.96 334.825,1263.29 336.878,1154.81 338.931,1174.92 340.984,1178.69 343.036,1162.17 345.089,2172.21 347.142,579.147 349.195,859.371 351.248,1147.67 353.301,1367.63 355.354,1001.69 357.407,1216.39 359.46,1156.9 361.512,1420.74 363.565,984.644 365.618,1276.63 367.671,1151.84 369.724,1108.16 371.777,1301.25 373.83,1203.87 375.883,976.392 377.936,1072.88 379.988,1206.77 382.041,1185.44 384.094,1074.26 386.147,1309.71 388.2,1305.46 390.253,894.487 392.306,1607.83 394.359,1526.24 396.412,869.933 398.464,1191.24 400.517,1435.91 402.57,1615.9 404.623,1405.62 406.676,1267.99 408.729,1264.4 410.782,888.381 412.835,957.462 414.888,1708.42 416.94,987.637 418.993,973.035 421.046,821.279 423.099,1262.67 425.152,1217.41 427.205,1159.37 429.258,946.788 431.311,746.917 433.364,1375.74 435.417,1278.15 437.469,1182.55 439.522,1192.93 441.575,1171.5 443.628,1166.05 445.681,1139.14 447.734,1179.86 449.787,1168.39 451.84,1174.45 453.893,1159.95 455.945,1171.01 457.998,1175.06 460.051,1162.94 462.104,1150.71 464.157,1150.26 466.21,1188.12 468.263,1168.44 470.316,1174.24 472.369,1202.49 474.421,1185.32 476.474,1180.7 478.527,1210.9 480.58,1216.15 482.633,1145.97 484.686,1169.13 486.739,1181.17 488.792,1190.41 490.845,1170.88 492.897,1179.98 494.95,1168.46 497.003,1169.17 499.056,1175.69 501.109,1195.72 503.162,1131.45 505.215,1131.89 507.268,1144.92 509.321,1166.48 511.374,1195.55 513.426,1185.25 515.479,1164.84 517.532,1199.03 519.585,1179.98 521.638,1140.32 523.691,1152.15 525.744,1157.21 527.797,1158.83 529.85,1158.26 531.902,1184.19 533.955,1158.36 536.008,1148.3 538.061,1146.42 540.114,1218.5 542.167,1123.8 544.22,1146.12 546.273,1053.21 548.326,985.085 550.378,1279.56 552.431,1086.57 554.484,1075.83 556.537,1093.22 558.59,1133.49 560.643,1192.14 562.696,1171.55 564.749,1165.67 566.802,1165.94 568.854,1188.37 570.907,1167.35 572.96,1209.38 575.013,1113.59 577.066,1167.62 579.119,1160.75 581.172,1137.63 583.225,1098.31 585.278,1189.72 587.331,1182.64 589.383,1199.31 591.436,1132.4 593.489,1236.78 595.542,1071.77 597.595,1074.15 599.648,801.054 601.701,935.149 603.754,1292.99 605.807,1247.16 607.859,1138.47 609.912,1185.97 611.965,1158.01 614.018,1192.78 616.071,1153.97 618.124,1204.08 620.177,1091.69 622.23,1180.24 624.283,1211.43 626.335,1209.29 628.388,1085.92 630.441,1082.75 632.494,1085.33 634.547,1237.72 636.6,1085.95 638.653,1154.06 640.706,1281.64 642.759,1026.74 644.811,1207.57 646.864,1132.02 648.917,1266.62 650.97,1121.11 653.023,1135.75 655.076,1171.38 657.129,1171.38 659.182,1149.35 661.235,1229.74 663.288,1159.96 665.34,1167.39 667.393,1044.1 669.446,1221.82 671.499,1166.09 673.552,1157.6 675.605,1154.1 677.658,1126.08 679.711,1126.24 681.764,1185.27 683.816,1180.46 685.869,1168.73 687.922,1164.43 689.975,1154.93 692.028,1159.53 694.081,1178.91 696.134,1138.59 698.187,1183.66 700.24,1175.56 702.292,1206.71 704.345,1195.14 706.398,1181.41 708.451,1181.67 710.504,1180.58 712.557,1168.94 714.61,1196.86 716.663,872.542 718.716,5032.78 720.768,2282.83 722.821,118.347 724.874,2211.32 726.927,1258.31 728.98,816.23 731.033,541.35 733.086,-27.9545 735.139,1461.94 737.192,908.313 739.245,1434.37 741.297,1264.79 743.35,1138.6 745.403,1183.7 747.456,1139.28 749.509,1164.76 751.562,1162.35 753.615,1177.37 755.668,1176.69 757.721,1143.35 759.773,1142.39 761.826,1121.26 763.879,1049.11 765.932,1113.94 767.985,1183.07 770.038,1192.94 772.091,1091.77 774.144,1110.19 776.197,924.984 778.249,970.589 780.302,1251.72 782.355,1161.92 784.408,1245.33 786.461,1080.61 788.514,1174.47 790.567,1320.1 792.62,1582.96 794.673,1025.29 796.725,1279.02 798.778,1057.08 800.831,1229.05 802.884,1221.47 804.937,1169.69 806.99,1140.08 809.043,1137.01 811.096,1160.64 813.149,1102.49 815.202,1280.77 817.254,1114.48 819.307,1143.23 821.36,1193.91 823.413,1166.51 825.466,987.756 827.519,1237.82 829.572,1082.77 831.625,1174.91 833.678,1174.74 835.73,1134.01 837.783,1119.02 839.836,1129.54 841.889,1143.35 843.942,1113.51 845.995,1173.13 848.048,1107.5 850.101,1175.67 852.154,1158.04 854.206,1157.6 856.259,1193.9 858.312,1197.52 860.365,1086.84 862.418,1294.59 864.471,1083.73 866.524,1242.02 868.577,1295.91 870.63,1227.15 872.682,1078.6 874.735,1161.8 876.788,1149.96 878.841,1118.67 880.894,1133.19 882.947,1198.36 885,1219.48 887.053,1158.17 889.106,1179.25 891.159,1222.25 893.211,1165.24 895.264,1190.48 897.317,1185.42 899.37,1132.57 901.423,1132.97 903.476,1322.51 905.529,1416.52 907.582,802.051 909.635,2348.71 911.687,466.734 913.74,983.156 915.793,934.266 917.846,2299.09 919.899,-1619.65 921.952,-14639.6 924.005,21970 926.058,-3231.2 928.111,330.439 930.163,1180.89 932.216,1096.73 934.269,1321.5 936.322,1523.32 938.375,1373.97 940.428,1230.25 942.481,1141.19 944.534,937.621 946.587,1171.26 948.639,1176.45 950.692,1193.01 952.745,1197.77 954.798,1134.94 956.851,1137.57 958.904,1165.72 960.957,1151.88 963.01,1176.05 965.063,1140.45 967.116,1137.41 969.168,1227.47 971.221,1130.9 973.274,1171.05 975.327,1150.22 977.38,1188.44 979.433,1162.9 981.486,1290.04 983.539,1275.02 985.592,1072.28 987.644,1185.59 989.697,1202.81 991.75,1196.99 993.803,1186.49 995.856,1130.6 997.909,1121.86 999.962,1162.23 1002.01,1122.96 1004.07,1176.75 1006.12,1284.18 1008.17,1155.14 1010.23,1188.85 1012.28,1145.9 1014.33,1236.62 1016.38,1199.6 1018.44,1130.33 1020.49,1206.39 1022.54,2016.26 1024.6,-1880.1 1026.65,1676.39 1028.7,1281.28 1030.76,1368.23 1032.81,1140.71 1034.86,1149.14 1036.91,1158 1038.97,1156.54 1041.02,1133.91 1043.07,1157.89 1045.13,1166.78 1047.18,1173.29 1049.23,1149.33 1051.28,1119.26 1053.34,1231.35 1055.39,1173.46 1057.44,1172.09 1059.5,1196.76 1061.55,1149.01 1063.6,1173.85 1065.65,1161.79 1067.71,1173.61 1069.76,1174.02 1071.81,1249.64 1073.87,1114.33 1075.92,1186.77 1077.97,1120.1 1080.02,1250.79 1082.08,1118.65 1084.13,1147.92 1086.18,1245.44 1088.24,1092.32 1090.29,988.205 1092.34,1120.11 1094.39,1142.38 1096.45,1178.17 1098.5,1179.16 1100.55,1174.01 1102.61,988.417 1104.66,1158.33 1106.71,1154.08 1108.77,1175.16 1110.82,1191.04 1112.87,1196.48 1114.92,1227.21 1116.98,1223.03 1119.03,1145.21 1121.08,1153.02 1123.14,1164.82 1125.19,1156.82 1127.24,1132.88 1129.29,1210.58 1131.35,1141.11 1133.4,1182.45 1135.45,1146.74 1137.51,1169.04 1139.56,1164.97 1141.61,1162.62 1143.66,1241.36 1145.72,1160.99 1147.77,1165.61 1149.82,1148.66 1151.88,1171.47 1153.93,1195.3 1155.98,1163.17 1158.03,1192.34 1160.09,1146.2 1162.14,1174.03 1164.19,1165.56 1166.25,1179.66 1168.3,1160.95 1170.35,1157.26 1172.4,1149.48 1174.46,1152.89 1176.51,1147.39 1178.56,1199.75 1180.62,1139.85 1182.67,1186.53 1184.72,1183.14 1186.77,1142.77 1188.83,1172.09 1190.88,1162.49 1192.93,1170.27 1194.99,1186.73 1197.04,1031.78 1199.09,992.861 1201.15,1004.29 1203.2,1053.1 1205.25,1049.08 1207.3,1103.32 1209.36,1151.52 1211.41,1098.33 1213.46,968.445 1215.52,1333.73 1217.57,1126.69 1219.62,1197.41 1221.67,1140.88 1223.73,1235.36 1225.78,1117.78 1227.83,1183.49 1229.89,1166.04 1231.94,1131.93 1233.99,1145.83 1236.04,1181.17 1238.1,1167.64 1240.15,1170.28 1242.2,1160.12 1244.26,1170.38 1246.31,1172.77 1248.36,1182.09 1250.41,1158.14 1252.47,1159.22 1254.52,1160.59 1256.57,1144.21 1258.63,744.986 1260.68,1411.72 1262.73,1124.41 1264.78,969.285 1266.84,1371.32 1268.89,1008.03 1270.94,1213.31 1273,1180.29 1275.05,1190.94 1277.1,1138.12 1279.16,1146.58 1281.21,1116.89 1283.26,1212.14 1285.31,1176.24 1287.37,1166.45 1289.42,1125.96 1291.47,1142.37 1293.53,1432.1 1295.58,1174.14 1297.63,1128.95 1299.68,1111.84 1301.74,1136.51 1303.79,1154.26 1305.84,1199.05 1307.9,1125.61 1309.95,1220.78 1312,1250.15 1314.05,972.457 1316.11,1463.04 1318.16,1052.81 1320.21,1114.59 1322.27,795.214 1324.32,1109.73 1326.37,1166.9 1328.42,1157.68 1330.48,1116.34 1332.53,1133.26 1334.58,1168.99 1336.64,1239.6 1338.69,1261.15 1340.74,1147.19 1342.79,1175.69 1344.85,1201.21 1346.9,1033.75 1348.95,1238.21 1351.01,1231.25 1353.06,1195.4 1355.11,1211.38 1357.16,1133.47 1359.22,1229.75 1361.27,1193.37 1363.32,1137.66 1365.38,1237.58 1367.43,1220.45 1369.48,1123.2 1371.54,1198.55 1373.59,1182.27 1375.64,1185.44 1377.69,1205.83 1379.75,1167.76 1381.8,738.556 1383.85,1158.32 1385.91,730.336 1387.96,1166.43 1390.01,1222.63 1392.06,1215.53 1394.12,1201.97 1396.17,1160.81 1398.22,953.694 1400.28,1430.71 1402.33,1330.9 1404.38,1152.98 1406.43,1190.6 1408.49,1167.97 1410.54,1126.95 1412.59,1145.7 1414.65,1158.95 1416.7,1143.11 1418.75,1084.38 1420.8,1098.96 1422.86,1177.49 1424.91,1155.01 1426.96,1187.69 1429.02,1174.7 1431.07,1148.3 1433.12,1149.99 1435.17,1175.59 1437.23,1230.01 1439.28,1243.1 1441.33,1171.02 1443.39,1162.81 1445.44,1204.83 1447.49,1115.03 1449.55,1095.64 1451.6,1017.81 1453.65,1245.19 1455.7,1047.38 1457.76,1206.38 1459.81,1192.76 1461.86,1163.03 1463.92,1122.22 1465.97,1083.97 1468.02,1178.58 1470.07,1224.62 1472.13,1196.54 1474.18,1184.86 1476.23,1147.15 1478.29,1158.95 1480.34,1181.1 1482.39,1148.37 1484.44,1173.66 1486.5,1168.35 1488.55,1149.74 1490.6,1164.73 1492.66,1200.47 1494.71,1159.98 1496.76,1196.63 1498.81,1199.53 1500.87,1144.65 1502.92,1160.52 1504.97,1180.08 1507.03,1176.22 1509.08,1149.03 1511.13,1134.17 1513.18,1185.19 1515.24,1295.62 1517.29,1247.69 1519.34,1166.77 1521.4,1179.62 1523.45,1188.19 1525.5,1175.39 1527.55,1140.44 1529.61,1182.9 1531.66,1160.1 1533.71,1173.63 1535.77,1153.71 1537.82,1174.05 1539.87,1123.59 1541.93,1167.77 1543.98,1167.99 1546.03,1167.88 1548.08,1166.19 1550.14,1065.51 1552.19,1189.8 1554.24,1148.78 1556.3,1197.57 1558.35,1064.39 1560.4,1151.81 1562.45,1161.3 1564.51,1161.04 1566.56,1158.66 1568.61,1174.95 1570.67,1160.91 1572.72,1163.08 1574.77,1112.64 1576.82,1103.08 1578.88,1179.44 1580.93,1147.36 1582.98,1241.44 1585.04,1197 1587.09,1175.39 1589.14,1174.97 1591.19,1170.49 1593.25,1169.09 1595.3,1162.1 1597.35,1159.79 1599.41,1179.13 1601.46,1175.43 1603.51,1159.36 1605.56,1141.06 1607.62,1209.9 1609.67,1242.54 1611.72,1183.16 1613.78,1202.51 1615.83,1161.41 1617.88,1156.78 1619.94,1179.61 1621.99,1164.86 1624.04,1133.23 1626.09,1203.3 1628.15,1111.13 1630.2,1203.51 1632.25,1137.15 1634.31,1152.13 1636.36,1163.15 1638.41,1157.3 1640.46,1163.42 1642.52,1171.1 1644.57,1151.74 1646.62,1169.63 1648.68,1177.06 1650.73,1142.81 1652.78,1150.61 1654.83,1199.16 1656.89,1128.43 1658.94,1144.82 1660.99,1193.29 1663.05,1158.84 1665.1,1178.54 1667.15,1102.19 1669.2,1134.63 1671.26,1193.48 1673.31,1175.42 1675.36,1160.1 1677.42,1151.11 1679.47,1092.48 1681.52,1127.14 1683.57,1122.09 1685.63,-516.353 1687.68,67.4107 1689.73,262.504 1691.79,-337.093 1693.84,696.821 1695.89,1144.62 1697.94,1197.94 1700,1207.25 1702.05,1094.52 1704.1,1163.52 1706.16,1116.38 1708.21,1136.55 1710.26,1162.08 1712.32,1203.19 1714.37,1129.41 1716.42,1139.05 1718.47,1162.5 1720.53,1113.2 1722.58,1123.38 1724.63,1099.46 1726.69,1116.86 1728.74,1127.38 1730.79,1164.46 1732.84,1167.06 1734.9,1161.83 1736.95,1037.64 1739,1197.92 1741.06,1178.32 1743.11,1161.63 1745.16,1213.31 1747.21,1269.8 1749.27,852.827 1751.32,1219.64 1753.37,1184.3 1755.43,1201.1 1757.48,1176.31 1759.53,1090.42 1761.58,1249.42 1763.64,771.595 1765.69,1346.46 1767.74,1187.51 1769.8,1116.75 1771.85,1144.05 1773.9,1306.87 1775.95,571.989 1778.01,333.229 1780.06,1341.73 1782.11,768.377 1784.17,1060.43 1786.22,1168.77 1788.27,1277.18 1790.33,1173.46 1792.38,1169.27 1794.43,1155.81 1796.48,1176.83 1798.54,1197.11 1800.59,1102.1 1802.64,1189.74 1804.7,1276.54 1806.75,1098.34 1808.8,1150 1810.85,1109.39 1812.91,1119.33 1814.96,1117.65 1817.01,1009.82 1819.07,1135.92 1821.12,1220.9 1823.17,1167.91 1825.22,1154.58 1827.28,1124.77 1829.33,1151.06 1831.38,1198.69 1833.44,1800.88 1835.49,1329.19 1837.54,1676.63 1839.59,1121.16 1841.65,1094.91 1843.7,1305.18 1845.75,1226.33 1847.81,1215.5 1849.86,1206.15 1851.91,1086.16 1853.96,1227.72 1856.02,1234.45 1858.07,1096.53 1860.12,1200.85 1862.18,1383.21 1864.23,1179.71 1866.28,1191.4 1868.34,1063.38 1870.39,1172.76 1872.44,1131.67 1874.49,1140.66 1876.55,1135.3 1878.6,1182.05 1880.65,1131.51 1882.71,1095.05 1884.76,1211.63 1886.81,1150.68 1888.86,1176.64 1890.92,1135.22 1892.97,1153.55 1895.02,1163.46 1897.08,1176.05 1899.13,1158.99 1901.18,1161.64 1903.23,1172.8 1905.29,1131.78 1907.34,1268.44 1909.39,1069.87 1911.45,1138.3 1913.5,1276.03 1915.55,1060.73 1917.6,1218.28 1919.66,1148.19 1921.71,1135.63 1923.76,1200.4 1925.82,1173.72 1927.87,1153.85 1929.92,1080.57 1931.97,1122.4 1934.03,1122.57 1936.08,1135.12 1938.13,1142.82 1940.19,1109.76 1942.24,1240.06 1944.29,1199.15 1946.34,1187.83 1948.4,1169.23 1950.45,1180.53 1952.5,1171.64 1954.56,1178.23 1956.61,1081.4 1958.66,1229.68 1960.72,1208.94 1962.77,1137.17 1964.82,1179.7 1966.87,1106.41 1968.93,1172.13 1970.98,1160.05 1973.03,1151.71 1975.09,1190.21 1977.14,1162.08 1979.19,1145 1981.24,1239.25 1983.3,1087.81 1985.35,1182.23 1987.4,1160.7 1989.46,1173.53 1991.51,1144.84 1993.56,1153.61 1995.61,1131.09 1997.67,1203.06 1999.72,1221.31 2001.77,1123.27 2003.83,1092.62 2005.88,1233.06 2007.93,1174.7 2009.98,1091.48 2012.04,1157.68 2014.09,1235.08 2016.14,1182.38 2018.2,1131.22 2020.25,1228.58 2022.3,1258.34 2024.35,1027.19 2026.41,993.158 2028.46,1274.86 2030.51,1090.56 2032.57,1116.97 2034.62,1133.57 2036.67,442.404 2038.73,3536.55 2040.78,-907.895 2042.83,197.546 2044.88,435.742 2046.94,-704.38 2048.99,3844.2 2051.04,2419.44 2053.1,-477.769 2055.15,-1712.24 2057.2,6.06547 2059.25,1855.02 2061.31,2550.77 2063.36,179.345 2065.41,-3868.36 2067.47,3823.93 2069.52,5063.13 2071.57,1167.38 2073.62,1091.21 2075.68,1117.46 2077.73,1207.7 2079.78,1204.75 2081.84,1152.55 2083.89,1147.54 2085.94,1185.26 2087.99,1162.57 2090.05,1156.77 2092.1,1170.02 2094.15,1320.64 2096.21,1103.66 2098.26,1156.49 2100.31,1141.3 2102.36,1160.28 2104.42,1120.45 2106.47,1069.45 2108.52,1154.78 2110.58,1184.97 2112.63,1160.02 2114.68,991.989 2116.73,1209.01 2118.79,1224.97 2120.84,1118.8 2122.89,1143.88 2124.95,1174.66 2127,1168.54 2129.05,1147.67 2131.11,1189.21 2133.16,1217.01 2135.21,1197.83 2137.26,1127.12 2139.32,1060.08 2141.37,1228.63 2143.42,1107.56 2145.48,1040.55 2147.53,1210.2 2149.58,1055.45 2151.63,953.106 2153.69,1389.8 2155.74,935.529 2157.79,1065.66 2159.85,1207.36 2161.9,1092.97 2163.95,1163.45 2166,1154.66 2168.06,1310.15 2170.11,1265.92 2172.16,656.765 2174.22,1306.29 2176.27,1158.37 2178.32,1271.43 2180.37,1205.53 2182.43,1166.79 2184.48,1153.8 2186.53,1175.03 2188.59,1222.58 2190.64,1183.57 2192.69,1143.28 2194.74,1183.06 2196.8,1177.02 2198.85,1181.53 2200.9,1178.66 2202.96,1167.44 2205.01,1163.4 2207.06,1186.55 2209.12,1197.88 2211.17,1228.09 2213.22,1078.24 2215.27,1102.68 2217.33,1087.46 2219.38,1156.56 2221.43,1124.9 2223.49,1199.81 2225.54,1202.73 2227.59,1183.77 2229.64,1206.61 2231.7,1384.74 2233.75,1167.1 2235.8,1158.33 2237.86,1170.56 2239.91,1194.41 2241.96,1128.23 2244.01,1043.77 2246.07,1306.43 2248.12,1265.99 2250.17,1073.67 2252.23,1105.39 2254.28,1089.94 2256.33,1169.96 2258.38,1158.74 2260.44,1147.24 2262.49,1176.63 2264.54,1192.81 2266.6,1178.02 2268.65,1193.66 2270.7,1163.67 2272.75,1204.1 2274.81,1131.7 2276.86,1142.22 2278.91,1152.77 2280.97,1148.28 2283.02,1162.22 2285.07,1168.63 2287.12,1173.04 2289.18,1153.9 2291.23,1166.53 "/>
<path clip-path="url(#clip040)" d="M1942.7 1465.14 L2280.29 1465.14 L2280.29 1361.46 L1942.7 1361.46  Z" fill="#ffffff" fill-rule="evenodd" fill-opacity="1"/>
<polyline clip-path="url(#clip040)" style="stroke:#000000; stroke-linecap:round; stroke-linejoin:round; stroke-width:4; stroke-opacity:1; fill:none" points="1942.7,1465.14 2280.29,1465.14 2280.29,1361.46 1942.7,1361.46 1942.7,1465.14 "/>
<polyline clip-path="url(#clip040)" style="stroke:#009af9; stroke-linecap:round; stroke-linejoin:round; stroke-width:4; stroke-opacity:1; fill:none" points="1966.85,1413.3 2111.78,1413.3 "/>
<path clip-path="url(#clip040)" d="M2161.49 1425.65 L2161.49 1416.37 L2153.85 1416.37 L2153.85 1412.53 L2166.12 1412.53 L2166.12 1427.36 Q2163.41 1429.28 2160.14 1430.28 Q2156.88 1431.25 2153.18 1431.25 Q2145.07 1431.25 2140.49 1426.53 Q2135.93 1421.78 2135.93 1413.34 Q2135.93 1404.86 2140.49 1400.14 Q2145.07 1395.4 2153.18 1395.4 Q2156.56 1395.4 2159.59 1396.23 Q2162.64 1397.06 2165.21 1398.68 L2165.21 1403.66 Q2162.62 1401.46 2159.7 1400.35 Q2156.79 1399.24 2153.57 1399.24 Q2147.23 1399.24 2144.03 1402.78 Q2140.86 1406.32 2140.86 1413.34 Q2140.86 1420.33 2144.03 1423.87 Q2147.23 1427.41 2153.57 1427.41 Q2156.05 1427.41 2157.99 1426.99 Q2159.94 1426.55 2161.49 1425.65 Z" fill="#000000" fill-rule="nonzero" fill-opacity="1" /><path clip-path="url(#clip040)" d="M2179.33 1399.86 L2179.33 1412.85 L2185.21 1412.85 Q2188.48 1412.85 2190.26 1411.16 Q2192.04 1409.47 2192.04 1406.35 Q2192.04 1403.24 2190.26 1401.55 Q2188.48 1399.86 2185.21 1399.86 L2179.33 1399.86 M2174.66 1396.02 L2185.21 1396.02 Q2191.02 1396.02 2193.99 1398.66 Q2196.97 1401.28 2196.97 1406.35 Q2196.97 1411.46 2193.99 1414.08 Q2191.02 1416.69 2185.21 1416.69 L2179.33 1416.69 L2179.33 1430.58 L2174.66 1430.58 L2174.66 1396.02 Z" fill="#000000" fill-rule="nonzero" fill-opacity="1" /><path clip-path="url(#clip040)" d="M2223.96 1397.16 L2223.96 1401.72 Q2221.3 1400.44 2218.94 1399.82 Q2216.58 1399.19 2214.38 1399.19 Q2210.56 1399.19 2208.48 1400.67 Q2206.42 1402.16 2206.42 1404.89 Q2206.42 1407.18 2207.78 1408.36 Q2209.17 1409.52 2213.01 1410.23 L2215.84 1410.81 Q2221.07 1411.81 2223.55 1414.33 Q2226.05 1416.83 2226.05 1421.04 Q2226.05 1426.07 2222.67 1428.66 Q2219.31 1431.25 2212.81 1431.25 Q2210.35 1431.25 2207.57 1430.7 Q2204.82 1430.14 2201.86 1429.05 L2201.86 1424.24 Q2204.7 1425.84 2207.44 1426.65 Q2210.17 1427.46 2212.81 1427.46 Q2216.81 1427.46 2218.99 1425.88 Q2221.16 1424.31 2221.16 1421.39 Q2221.16 1418.85 2219.59 1417.41 Q2218.04 1415.97 2214.47 1415.26 L2211.62 1414.7 Q2206.39 1413.66 2204.06 1411.44 Q2201.72 1409.22 2201.72 1405.26 Q2201.72 1400.67 2204.94 1398.03 Q2208.18 1395.4 2213.85 1395.4 Q2216.28 1395.4 2218.8 1395.84 Q2221.32 1396.28 2223.96 1397.16 Z" fill="#000000" fill-rule="nonzero" fill-opacity="1" /><path clip-path="url(#clip040)" d="M2254.06 1397.16 L2254.06 1401.72 Q2251.39 1400.44 2249.03 1399.82 Q2246.67 1399.19 2244.47 1399.19 Q2240.65 1399.19 2238.57 1400.67 Q2236.51 1402.16 2236.51 1404.89 Q2236.51 1407.18 2237.87 1408.36 Q2239.26 1409.52 2243.11 1410.23 L2245.93 1410.81 Q2251.16 1411.81 2253.64 1414.33 Q2256.14 1416.83 2256.14 1421.04 Q2256.14 1426.07 2252.76 1428.66 Q2249.4 1431.25 2242.9 1431.25 Q2240.44 1431.25 2237.67 1430.7 Q2234.91 1430.14 2231.95 1429.05 L2231.95 1424.24 Q2234.8 1425.84 2237.53 1426.65 Q2240.26 1427.46 2242.9 1427.46 Q2246.9 1427.46 2249.08 1425.88 Q2251.25 1424.31 2251.25 1421.39 Q2251.25 1418.85 2249.68 1417.41 Q2248.13 1415.97 2244.56 1415.26 L2241.72 1414.7 Q2236.49 1413.66 2234.15 1411.44 Q2231.81 1409.22 2231.81 1405.26 Q2231.81 1400.67 2235.03 1398.03 Q2238.27 1395.4 2243.94 1395.4 Q2246.37 1395.4 2248.89 1395.84 Q2251.42 1396.28 2254.06 1397.16 Z" fill="#000000" fill-rule="nonzero" fill-opacity="1" /></svg>
