<?xml version="1.0" encoding="utf-8"?>
<svg xmlns="http://www.w3.org/2000/svg" xmlns:xlink="http://www.w3.org/1999/xlink" width="600" height="400" viewBox="0 0 2400 1600">
<defs>
  <clipPath id="clip070">
    <rect x="0" y="0" width="2400" height="1600"/>
  </clipPath>
</defs>
<path clip-path="url(#clip070)" d="M0 1600 L2400 1600 L2400 0 L0 0  Z" fill="#ffffff" fill-rule="evenodd" fill-opacity="1"/>
<defs>
  <clipPath id="clip071">
    <rect x="210" y="47" width="2143" height="1377"/>
  </clipPath>
</defs>
<path clip-path="url(#clip070)" d="M178.867 686.448 L2352.76 686.448 L2352.76 47.2441 L178.867 47.2441  Z" fill="#ffffff" fill-rule="evenodd" fill-opacity="1"/>
<defs>
  <clipPath id="clip072">
    <rect x="178" y="47" width="2175" height="640"/>
  </clipPath>
</defs>
<polyline clip-path="url(#clip072)" style="stroke:#000000; stroke-linecap:round; stroke-linejoin:round; stroke-width:2; stroke-opacity:0.1; fill:none" points="238.339,686.448 238.339,47.2441 "/>
<polyline clip-path="url(#clip072)" style="stroke:#000000; stroke-linecap:round; stroke-linejoin:round; stroke-width:2; stroke-opacity:0.1; fill:none" points="751.562,686.448 751.562,47.2441 "/>
<polyline clip-path="url(#clip072)" style="stroke:#000000; stroke-linecap:round; stroke-linejoin:round; stroke-width:2; stroke-opacity:0.1; fill:none" points="1264.78,686.448 1264.78,47.2441 "/>
<polyline clip-path="url(#clip072)" style="stroke:#000000; stroke-linecap:round; stroke-linejoin:round; stroke-width:2; stroke-opacity:0.1; fill:none" points="1778.01,686.448 1778.01,47.2441 "/>
<polyline clip-path="url(#clip072)" style="stroke:#000000; stroke-linecap:round; stroke-linejoin:round; stroke-width:2; stroke-opacity:0.1; fill:none" points="2291.23,686.448 2291.23,47.2441 "/>
<polyline clip-path="url(#clip072)" style="stroke:#000000; stroke-linecap:round; stroke-linejoin:round; stroke-width:2; stroke-opacity:0.1; fill:none" points="178.867,686.448 2352.76,686.448 "/>
<polyline clip-path="url(#clip072)" style="stroke:#000000; stroke-linecap:round; stroke-linejoin:round; stroke-width:2; stroke-opacity:0.1; fill:none" points="178.867,526.647 2352.76,526.647 "/>
<polyline clip-path="url(#clip072)" style="stroke:#000000; stroke-linecap:round; stroke-linejoin:round; stroke-width:2; stroke-opacity:0.1; fill:none" points="178.867,366.846 2352.76,366.846 "/>
<polyline clip-path="url(#clip072)" style="stroke:#000000; stroke-linecap:round; stroke-linejoin:round; stroke-width:2; stroke-opacity:0.1; fill:none" points="178.867,207.045 2352.76,207.045 "/>
<polyline clip-path="url(#clip072)" style="stroke:#000000; stroke-linecap:round; stroke-linejoin:round; stroke-width:2; stroke-opacity:0.1; fill:none" points="178.867,47.2441 2352.76,47.2441 "/>
<polyline clip-path="url(#clip070)" style="stroke:#000000; stroke-linecap:round; stroke-linejoin:round; stroke-width:4; stroke-opacity:1; fill:none" points="178.867,686.448 2352.76,686.448 "/>
<polyline clip-path="url(#clip070)" style="stroke:#000000; stroke-linecap:round; stroke-linejoin:round; stroke-width:4; stroke-opacity:1; fill:none" points="238.339,686.448 238.339,667.55 "/>
<polyline clip-path="url(#clip070)" style="stroke:#000000; stroke-linecap:round; stroke-linejoin:round; stroke-width:4; stroke-opacity:1; fill:none" points="751.562,686.448 751.562,667.55 "/>
<polyline clip-path="url(#clip070)" style="stroke:#000000; stroke-linecap:round; stroke-linejoin:round; stroke-width:4; stroke-opacity:1; fill:none" points="1264.78,686.448 1264.78,667.55 "/>
<polyline clip-path="url(#clip070)" style="stroke:#000000; stroke-linecap:round; stroke-linejoin:round; stroke-width:4; stroke-opacity:1; fill:none" points="1778.01,686.448 1778.01,667.55 "/>
<polyline clip-path="url(#clip070)" style="stroke:#000000; stroke-linecap:round; stroke-linejoin:round; stroke-width:4; stroke-opacity:1; fill:none" points="2291.23,686.448 2291.23,667.55 "/>
<path clip-path="url(#clip070)" d="M238.339 717.367 Q234.728 717.367 232.899 720.931 Q231.094 724.473 231.094 731.603 Q231.094 738.709 232.899 742.274 Q234.728 745.815 238.339 745.815 Q241.973 745.815 243.779 742.274 Q245.607 738.709 245.607 731.603 Q245.607 724.473 243.779 720.931 Q241.973 717.367 238.339 717.367 M238.339 713.663 Q244.149 713.663 247.205 718.269 Q250.283 722.853 250.283 731.603 Q250.283 740.329 247.205 744.936 Q244.149 749.519 238.339 749.519 Q232.529 749.519 229.45 744.936 Q226.395 740.329 226.395 731.603 Q226.395 722.853 229.45 718.269 Q232.529 713.663 238.339 713.663 Z" fill="#000000" fill-rule="nonzero" fill-opacity="1" /><path clip-path="url(#clip070)" d="M715.254 744.913 L731.574 744.913 L731.574 748.848 L709.629 748.848 L709.629 744.913 Q712.291 742.158 716.875 737.528 Q721.481 732.876 722.662 731.533 Q724.907 729.01 725.787 727.274 Q726.689 725.515 726.689 723.825 Q726.689 721.07 724.745 719.334 Q722.824 717.598 719.722 717.598 Q717.523 717.598 715.069 718.362 Q712.638 719.126 709.861 720.677 L709.861 715.955 Q712.685 714.82 715.138 714.242 Q717.592 713.663 719.629 713.663 Q725 713.663 728.194 716.348 Q731.388 719.033 731.388 723.524 Q731.388 725.654 730.578 727.575 Q729.791 729.473 727.685 732.066 Q727.106 732.737 724.004 735.954 Q720.902 739.149 715.254 744.913 Z" fill="#000000" fill-rule="nonzero" fill-opacity="1" /><path clip-path="url(#clip070)" d="M741.435 714.288 L759.791 714.288 L759.791 718.223 L745.717 718.223 L745.717 726.695 Q746.736 726.348 747.754 726.186 Q748.773 726.001 749.791 726.001 Q755.578 726.001 758.958 729.172 Q762.337 732.343 762.337 737.76 Q762.337 743.339 758.865 746.44 Q755.393 749.519 749.073 749.519 Q746.898 749.519 744.629 749.149 Q742.384 748.778 739.976 748.038 L739.976 743.339 Q742.06 744.473 744.282 745.028 Q746.504 745.584 748.981 745.584 Q752.985 745.584 755.323 743.478 Q757.661 741.371 757.661 737.76 Q757.661 734.149 755.323 732.042 Q752.985 729.936 748.981 729.936 Q747.106 729.936 745.231 730.353 Q743.379 730.769 741.435 731.649 L741.435 714.288 Z" fill="#000000" fill-rule="nonzero" fill-opacity="1" /><path clip-path="url(#clip070)" d="M781.55 717.367 Q777.939 717.367 776.11 720.931 Q774.305 724.473 774.305 731.603 Q774.305 738.709 776.11 742.274 Q777.939 745.815 781.55 745.815 Q785.184 745.815 786.99 742.274 Q788.819 738.709 788.819 731.603 Q788.819 724.473 786.99 720.931 Q785.184 717.367 781.55 717.367 M781.55 713.663 Q787.36 713.663 790.416 718.269 Q793.495 722.853 793.495 731.603 Q793.495 740.329 790.416 744.936 Q787.36 749.519 781.55 749.519 Q775.74 749.519 772.661 744.936 Q769.606 740.329 769.606 731.603 Q769.606 722.853 772.661 718.269 Q775.74 713.663 781.55 713.663 Z" fill="#000000" fill-rule="nonzero" fill-opacity="1" /><path clip-path="url(#clip070)" d="M1224.4 714.288 L1242.76 714.288 L1242.76 718.223 L1228.69 718.223 L1228.69 726.695 Q1229.7 726.348 1230.72 726.186 Q1231.74 726.001 1232.76 726.001 Q1238.55 726.001 1241.93 729.172 Q1245.31 732.343 1245.31 737.76 Q1245.31 743.339 1241.83 746.44 Q1238.36 749.519 1232.04 749.519 Q1229.87 749.519 1227.6 749.149 Q1225.35 748.778 1222.94 748.038 L1222.94 743.339 Q1225.03 744.473 1227.25 745.028 Q1229.47 745.584 1231.95 745.584 Q1235.95 745.584 1238.29 743.478 Q1240.63 741.371 1240.63 737.76 Q1240.63 734.149 1238.29 732.042 Q1235.95 729.936 1231.95 729.936 Q1230.07 729.936 1228.2 730.353 Q1226.35 730.769 1224.4 731.649 L1224.4 714.288 Z" fill="#000000" fill-rule="nonzero" fill-opacity="1" /><path clip-path="url(#clip070)" d="M1264.52 717.367 Q1260.91 717.367 1259.08 720.931 Q1257.27 724.473 1257.27 731.603 Q1257.27 738.709 1259.08 742.274 Q1260.91 745.815 1264.52 745.815 Q1268.15 745.815 1269.96 742.274 Q1271.79 738.709 1271.79 731.603 Q1271.79 724.473 1269.96 720.931 Q1268.15 717.367 1264.52 717.367 M1264.52 713.663 Q1270.33 713.663 1273.38 718.269 Q1276.46 722.853 1276.46 731.603 Q1276.46 740.329 1273.38 744.936 Q1270.33 749.519 1264.52 749.519 Q1258.71 749.519 1255.63 744.936 Q1252.57 740.329 1252.57 731.603 Q1252.57 722.853 1255.63 718.269 Q1258.71 713.663 1264.52 713.663 Z" fill="#000000" fill-rule="nonzero" fill-opacity="1" /><path clip-path="url(#clip070)" d="M1294.68 717.367 Q1291.07 717.367 1289.24 720.931 Q1287.44 724.473 1287.44 731.603 Q1287.44 738.709 1289.24 742.274 Q1291.07 745.815 1294.68 745.815 Q1298.31 745.815 1300.12 742.274 Q1301.95 738.709 1301.95 731.603 Q1301.95 724.473 1300.12 720.931 Q1298.31 717.367 1294.68 717.367 M1294.68 713.663 Q1300.49 713.663 1303.55 718.269 Q1306.62 722.853 1306.62 731.603 Q1306.62 740.329 1303.55 744.936 Q1300.49 749.519 1294.68 749.519 Q1288.87 749.519 1285.79 744.936 Q1282.74 740.329 1282.74 731.603 Q1282.74 722.853 1285.79 718.269 Q1288.87 713.663 1294.68 713.663 Z" fill="#000000" fill-rule="nonzero" fill-opacity="1" /><path clip-path="url(#clip070)" d="M1736.28 714.288 L1758.51 714.288 L1758.51 716.279 L1745.96 748.848 L1741.08 748.848 L1752.88 718.223 L1736.28 718.223 L1736.28 714.288 Z" fill="#000000" fill-rule="nonzero" fill-opacity="1" /><path clip-path="url(#clip070)" d="M1767.67 714.288 L1786.03 714.288 L1786.03 718.223 L1771.95 718.223 L1771.95 726.695 Q1772.97 726.348 1773.99 726.186 Q1775.01 726.001 1776.03 726.001 Q1781.82 726.001 1785.2 729.172 Q1788.57 732.343 1788.57 737.76 Q1788.57 743.339 1785.1 746.44 Q1781.63 749.519 1775.31 749.519 Q1773.14 749.519 1770.87 749.149 Q1768.62 748.778 1766.21 748.038 L1766.21 743.339 Q1768.3 744.473 1770.52 745.028 Q1772.74 745.584 1775.22 745.584 Q1779.22 745.584 1781.56 743.478 Q1783.9 741.371 1783.9 737.76 Q1783.9 734.149 1781.56 732.042 Q1779.22 729.936 1775.22 729.936 Q1773.34 729.936 1771.47 730.353 Q1769.62 730.769 1767.67 731.649 L1767.67 714.288 Z" fill="#000000" fill-rule="nonzero" fill-opacity="1" /><path clip-path="url(#clip070)" d="M1807.79 717.367 Q1804.18 717.367 1802.35 720.931 Q1800.54 724.473 1800.54 731.603 Q1800.54 738.709 1802.35 742.274 Q1804.18 745.815 1807.79 745.815 Q1811.42 745.815 1813.23 742.274 Q1815.06 738.709 1815.06 731.603 Q1815.06 724.473 1813.23 720.931 Q1811.42 717.367 1807.79 717.367 M1807.79 713.663 Q1813.6 713.663 1816.65 718.269 Q1819.73 722.853 1819.73 731.603 Q1819.73 740.329 1816.65 744.936 Q1813.6 749.519 1807.79 749.519 Q1801.98 749.519 1798.9 744.936 Q1795.84 740.329 1795.84 731.603 Q1795.84 722.853 1798.9 718.269 Q1801.98 713.663 1807.79 713.663 Z" fill="#000000" fill-rule="nonzero" fill-opacity="1" /><path clip-path="url(#clip070)" d="M2235.76 744.913 L2243.4 744.913 L2243.4 718.547 L2235.09 720.214 L2235.09 715.955 L2243.35 714.288 L2248.02 714.288 L2248.02 744.913 L2255.66 744.913 L2255.66 748.848 L2235.76 748.848 L2235.76 744.913 Z" fill="#000000" fill-rule="nonzero" fill-opacity="1" /><path clip-path="url(#clip070)" d="M2275.11 717.367 Q2271.5 717.367 2269.67 720.931 Q2267.86 724.473 2267.86 731.603 Q2267.86 738.709 2269.67 742.274 Q2271.5 745.815 2275.11 745.815 Q2278.74 745.815 2280.55 742.274 Q2282.38 738.709 2282.38 731.603 Q2282.38 724.473 2280.55 720.931 Q2278.74 717.367 2275.11 717.367 M2275.11 713.663 Q2280.92 713.663 2283.97 718.269 Q2287.05 722.853 2287.05 731.603 Q2287.05 740.329 2283.97 744.936 Q2280.92 749.519 2275.11 749.519 Q2269.3 749.519 2266.22 744.936 Q2263.16 740.329 2263.16 731.603 Q2263.16 722.853 2266.22 718.269 Q2269.3 713.663 2275.11 713.663 Z" fill="#000000" fill-rule="nonzero" fill-opacity="1" /><path clip-path="url(#clip070)" d="M2305.27 717.367 Q2301.66 717.367 2299.83 720.931 Q2298.02 724.473 2298.02 731.603 Q2298.02 738.709 2299.83 742.274 Q2301.66 745.815 2305.27 745.815 Q2308.9 745.815 2310.71 742.274 Q2312.54 738.709 2312.54 731.603 Q2312.54 724.473 2310.71 720.931 Q2308.9 717.367 2305.27 717.367 M2305.27 713.663 Q2311.08 713.663 2314.14 718.269 Q2317.21 722.853 2317.21 731.603 Q2317.21 740.329 2314.14 744.936 Q2311.08 749.519 2305.27 749.519 Q2299.46 749.519 2296.38 744.936 Q2293.33 740.329 2293.33 731.603 Q2293.33 722.853 2296.38 718.269 Q2299.46 713.663 2305.27 713.663 Z" fill="#000000" fill-rule="nonzero" fill-opacity="1" /><path clip-path="url(#clip070)" d="M2335.43 717.367 Q2331.82 717.367 2329.99 720.931 Q2328.19 724.473 2328.19 731.603 Q2328.19 738.709 2329.99 742.274 Q2331.82 745.815 2335.43 745.815 Q2339.07 745.815 2340.87 742.274 Q2342.7 738.709 2342.7 731.603 Q2342.7 724.473 2340.87 720.931 Q2339.07 717.367 2335.43 717.367 M2335.43 713.663 Q2341.24 713.663 2344.3 718.269 Q2347.38 722.853 2347.38 731.603 Q2347.38 740.329 2344.3 744.936 Q2341.24 749.519 2335.43 749.519 Q2329.62 749.519 2326.54 744.936 Q2323.49 740.329 2323.49 731.603 Q2323.49 722.853 2326.54 718.269 Q2329.62 713.663 2335.43 713.663 Z" fill="#000000" fill-rule="nonzero" fill-opacity="1" /><polyline clip-path="url(#clip070)" style="stroke:#000000; stroke-linecap:round; stroke-linejoin:round; stroke-width:4; stroke-opacity:1; fill:none" points="178.867,686.448 178.867,47.2441 "/>
<polyline clip-path="url(#clip070)" style="stroke:#000000; stroke-linecap:round; stroke-linejoin:round; stroke-width:4; stroke-opacity:1; fill:none" points="178.867,686.448 197.764,686.448 "/>
<polyline clip-path="url(#clip070)" style="stroke:#000000; stroke-linecap:round; stroke-linejoin:round; stroke-width:4; stroke-opacity:1; fill:none" points="178.867,526.647 197.764,526.647 "/>
<polyline clip-path="url(#clip070)" style="stroke:#000000; stroke-linecap:round; stroke-linejoin:round; stroke-width:4; stroke-opacity:1; fill:none" points="178.867,366.846 197.764,366.846 "/>
<polyline clip-path="url(#clip070)" style="stroke:#000000; stroke-linecap:round; stroke-linejoin:round; stroke-width:4; stroke-opacity:1; fill:none" points="178.867,207.045 197.764,207.045 "/>
<polyline clip-path="url(#clip070)" style="stroke:#000000; stroke-linecap:round; stroke-linejoin:round; stroke-width:4; stroke-opacity:1; fill:none" points="178.867,47.2441 197.764,47.2441 "/>
<path clip-path="url(#clip070)" d="M50.9921 686.899 L80.6679 686.899 L80.6679 690.834 L50.9921 690.834 L50.9921 686.899 Z" fill="#000000" fill-rule="nonzero" fill-opacity="1" /><path clip-path="url(#clip070)" d="M91.5706 699.793 L99.2095 699.793 L99.2095 673.427 L90.8993 675.094 L90.8993 670.835 L99.1632 669.168 L103.839 669.168 L103.839 699.793 L111.478 699.793 L111.478 703.728 L91.5706 703.728 L91.5706 699.793 Z" fill="#000000" fill-rule="nonzero" fill-opacity="1" /><path clip-path="url(#clip070)" d="M130.922 672.247 Q127.311 672.247 125.482 675.811 Q123.677 679.353 123.677 686.483 Q123.677 693.589 125.482 697.154 Q127.311 700.695 130.922 700.695 Q134.556 700.695 136.362 697.154 Q138.191 693.589 138.191 686.483 Q138.191 679.353 136.362 675.811 Q134.556 672.247 130.922 672.247 M130.922 668.543 Q136.732 668.543 139.788 673.149 Q142.867 677.733 142.867 686.483 Q142.867 695.209 139.788 699.816 Q136.732 704.399 130.922 704.399 Q125.112 704.399 122.033 699.816 Q118.978 695.209 118.978 686.483 Q118.978 677.733 122.033 673.149 Q125.112 668.543 130.922 668.543 Z" fill="#000000" fill-rule="nonzero" fill-opacity="1" /><path clip-path="url(#clip070)" d="M82.1494 527.098 L111.825 527.098 L111.825 531.033 L82.1494 531.033 L82.1494 527.098 Z" fill="#000000" fill-rule="nonzero" fill-opacity="1" /><path clip-path="url(#clip070)" d="M121.964 509.367 L140.32 509.367 L140.32 513.302 L126.246 513.302 L126.246 521.774 Q127.265 521.427 128.283 521.265 Q129.302 521.08 130.32 521.08 Q136.107 521.08 139.487 524.251 Q142.867 527.422 142.867 532.839 Q142.867 538.418 139.394 541.52 Q135.922 544.598 129.603 544.598 Q127.427 544.598 125.158 544.228 Q122.913 543.857 120.506 543.117 L120.506 538.418 Q122.589 539.552 124.811 540.108 Q127.033 540.663 129.51 540.663 Q133.515 540.663 135.853 538.557 Q138.191 536.45 138.191 532.839 Q138.191 529.228 135.853 527.121 Q133.515 525.015 129.51 525.015 Q127.635 525.015 125.76 525.432 Q123.908 525.848 121.964 526.728 L121.964 509.367 Z" fill="#000000" fill-rule="nonzero" fill-opacity="1" /><path clip-path="url(#clip070)" d="M130.922 352.645 Q127.311 352.645 125.482 356.209 Q123.677 359.751 123.677 366.881 Q123.677 373.987 125.482 377.552 Q127.311 381.094 130.922 381.094 Q134.556 381.094 136.362 377.552 Q138.191 373.987 138.191 366.881 Q138.191 359.751 136.362 356.209 Q134.556 352.645 130.922 352.645 M130.922 348.941 Q136.732 348.941 139.788 353.547 Q142.867 358.131 142.867 366.881 Q142.867 375.608 139.788 380.214 Q136.732 384.797 130.922 384.797 Q125.112 384.797 122.033 380.214 Q118.978 375.608 118.978 366.881 Q118.978 358.131 122.033 353.547 Q125.112 348.941 130.922 348.941 Z" fill="#000000" fill-rule="nonzero" fill-opacity="1" /><path clip-path="url(#clip070)" d="M121.964 189.765 L140.32 189.765 L140.32 193.7 L126.246 193.7 L126.246 202.172 Q127.265 201.825 128.283 201.663 Q129.302 201.478 130.32 201.478 Q136.107 201.478 139.487 204.649 Q142.867 207.82 142.867 213.237 Q142.867 218.816 139.394 221.918 Q135.922 224.996 129.603 224.996 Q127.427 224.996 125.158 224.626 Q122.913 224.256 120.506 223.515 L120.506 218.816 Q122.589 219.95 124.811 220.506 Q127.033 221.061 129.51 221.061 Q133.515 221.061 135.853 218.955 Q138.191 216.848 138.191 213.237 Q138.191 209.626 135.853 207.52 Q133.515 205.413 129.51 205.413 Q127.635 205.413 125.76 205.83 Q123.908 206.246 121.964 207.126 L121.964 189.765 Z" fill="#000000" fill-rule="nonzero" fill-opacity="1" /><path clip-path="url(#clip070)" d="M91.5706 60.5889 L99.2095 60.5889 L99.2095 34.2233 L90.8993 35.89 L90.8993 31.6308 L99.1632 29.9641 L103.839 29.9641 L103.839 60.5889 L111.478 60.5889 L111.478 64.5241 L91.5706 64.5241 L91.5706 60.5889 Z" fill="#000000" fill-rule="nonzero" fill-opacity="1" /><path clip-path="url(#clip070)" d="M130.922 33.0428 Q127.311 33.0428 125.482 36.6076 Q123.677 40.1492 123.677 47.2788 Q123.677 54.3853 125.482 57.9501 Q127.311 61.4917 130.922 61.4917 Q134.556 61.4917 136.362 57.9501 Q138.191 54.3853 138.191 47.2788 Q138.191 40.1492 136.362 36.6076 Q134.556 33.0428 130.922 33.0428 M130.922 29.3391 Q136.732 29.3391 139.788 33.9456 Q142.867 38.5289 142.867 47.2788 Q142.867 56.0056 139.788 60.6121 Q136.732 65.1954 130.922 65.1954 Q125.112 65.1954 122.033 60.6121 Q118.978 56.0056 118.978 47.2788 Q118.978 38.5289 122.033 33.9456 Q125.112 29.3391 130.922 29.3391 Z" fill="#000000" fill-rule="nonzero" fill-opacity="1" /><polyline clip-path="url(#clip072)" style="stroke:#009af9; stroke-linecap:round; stroke-linejoin:round; stroke-width:4; stroke-opacity:1; fill:none" points="240.392,334.886 242.445,329.637 244.498,331.968 246.55,333.846 248.603,332.597 250.656,332.776 252.709,359.058 254.762,360.591 256.815,369 258.868,368.125 260.921,363.447 262.974,366.802 265.027,363.394 267.079,418.741 269.132,416.249 271.185,415.581 273.238,412.5 275.291,421.923 277.344,419.322 279.397,419.283 281.45,414.805 283.503,414.942 285.555,411.913 287.608,405.421 289.661,415.06 291.714,411.555 293.767,460.035 295.82,445.913 297.873,421.876 299.926,422.967 301.979,195.667 304.031,287.148 306.084,277.673 308.137,309.743 310.19,327.676 312.243,395.514 314.296,411.459 316.349,404.649 318.402,278.142 320.455,338.566 322.507,329.756 324.56,329.165 326.613,325.947 328.666,313.897 330.719,327.328 332.772,336.729 334.825,323.681 336.878,221.807 338.931,216.727 340.984,215.636 343.036,365.883 345.089,365.463 347.142,325.797 349.195,335.025 351.248,334.172 353.301,314.195 355.354,314.227 357.407,405.098 359.46,354.76 361.512,349.414 363.565,356.554 365.618,458.571 367.671,444.533 369.724,452.249 371.777,448.073 373.83,432.764 375.883,517.007 377.936,352.684 379.988,202.175 382.041,229.002 384.094,206.095 386.147,212.942 388.2,213.247 390.253,387.397 392.306,390.579 394.359,379.854 396.412,241.723 398.464,244.671 400.517,210.952 402.57,200.602 404.623,414.492 406.676,335.4 408.729,337.783 410.782,338.658 412.835,366.782 414.888,349.905 416.94,329.975 418.993,302.886 421.046,303.824 423.099,376.162 425.152,465.839 427.205,471.545 429.258,416.572 431.311,350.146 433.364,344.665 435.417,215.854 437.469,208.456 439.522,338.501 441.575,343.049 443.628,358.553 445.681,385.535 447.734,427.83 449.787,454.792 451.84,451.43 453.893,469.864 455.945,441.093 457.998,424.074 460.051,216.639 462.104,252.752 464.157,262.022 466.21,272.986 468.263,267.588 470.316,189.301 472.369,190.991 474.421,255.917 476.474,233.665 478.527,237.68 480.58,260.288 482.633,380.53 484.686,427.229 486.739,312.071 488.792,363.502 490.845,360.152 492.897,309.601 494.95,363.62 497.003,369.098 499.056,377.758 501.109,304.365 503.162,391.525 505.215,391.74 507.268,392.66 509.321,394.634 511.374,401.374 513.426,516.489 515.479,515.836 517.532,514.61 519.585,514.563 521.638,535.335 523.691,531.909 525.744,533.141 527.797,562.959 529.85,548.908 531.902,528.907 533.955,526.526 536.008,516.903 538.061,513.269 540.114,480.132 542.167,483.864 544.22,491.326 546.273,487.093 548.326,384.161 550.378,365.521 552.431,315.394 554.484,299.036 556.537,299.088 558.59,354.27 560.643,351.642 562.696,388.129 564.749,388.787 566.802,399.981 568.854,411.493 570.907,203.445 572.96,208.453 575.013,146.558 577.066,189.525 579.119,92.6543 581.172,210.875 583.225,192.373 585.278,129.108 587.331,183.648 589.383,168.593 591.436,492.707 593.489,726.648 595.542,778.349 597.595,954.203 599.648,582.932 601.701,719.119 603.754,526.849 605.807,563.636 607.859,275.514 609.912,285.336 611.965,597.137 614.018,377.19 616.071,370.09 618.124,384.62 620.177,342.425 622.23,356.421 624.283,381.606 626.335,421.952 628.388,588.78 630.441,592.288 632.494,532.958 634.547,81.2109 636.6,138.101 638.653,141.323 640.706,448.734 642.759,465.42 644.811,544.586 646.864,153.649 648.917,152.907 650.97,-610.581 653.023,-202.446 655.076,-295.045 657.129,-260.364 659.182,-261.813 661.235,-259.713 663.288,-237.378 665.34,-227.042 667.393,444.503 669.446,443.506 671.499,1213.27 673.552,1275.55 675.605,1143.56 677.658,1113.41 679.711,1147.8 681.764,1123.61 683.816,1276.14 685.869,1285.76 687.922,1134.94 689.975,1009.46 692.028,884.49 694.081,883.988 696.134,978.782 698.187,899.318 700.24,900.7 702.292,906.851 704.345,876.973 706.398,859.372 708.451,932.402 710.504,967.431 712.557,947.061 714.61,952.958 716.663,837.723 718.716,930.884 720.768,949.426 722.821,1118.25 724.874,1195.97 726.927,1120.24 728.98,1073.38 731.033,1053.49 733.086,1111.51 735.139,1099.83 737.192,973.585 739.245,948.81 741.297,793.12 743.35,540.253 745.403,472.047 747.456,430.132 749.509,428.443 751.562,716.672 753.615,318.196 755.668,413.805 757.721,250.09 759.773,293.065 761.826,311.329 763.879,270.265 765.932,251.332 767.985,117.22 770.038,115.395 772.091,-141.201 774.144,-67.2112 776.197,-281.504 778.249,-282.69 780.302,-304.717 782.355,-305.344 784.408,-373.155 786.461,-361.787 788.514,-387.462 790.567,101.737 792.62,72.7071 794.673,402.157 796.725,356.64 798.778,202.215 800.831,111.681 802.884,131.54 804.937,243.97 806.99,257.851 809.043,333.981 811.096,327.624 813.149,325.161 815.202,184.791 817.254,202.393 819.307,285.647 821.36,392.35 823.413,378.786 825.466,342.859 827.519,372.847 829.572,399.125 831.625,371.11 833.678,368.394 835.73,369.29 837.783,366.602 839.836,366.583 841.889,399.461 843.942,394.646 845.995,393.811 848.048,396.811 850.101,396.608 852.154,398.907 854.206,480.149 856.259,452.016 858.312,458.515 860.365,450.537 862.418,446.75 864.471,473.429 866.524,450.105 868.577,436.817 870.63,437.186 872.682,434.427 874.735,412.97 876.788,411.321 878.841,385.346 880.894,381.037 882.947,399.845 885,399.407 887.053,389.548 889.106,395.444 891.159,417.172 893.211,449.65 895.264,405.375 897.317,405.097 899.37,404.166 901.423,448.425 903.476,447.44 905.529,408.047 907.582,432.593 909.635,412.221 911.687,304.993 913.74,304.912 915.793,309.987 917.846,311.195 919.899,526.422 921.952,513.182 924.005,565.412 926.058,570.635 928.111,614.035 930.163,607.839 932.216,604.956 934.269,382.812 936.322,385.601 938.375,376.389 940.428,607.509 942.481,300.532 944.534,446.212 946.587,446.66 948.639,390.737 950.692,393.861 952.745,350.156 954.798,438.775 956.851,569.338 958.904,334.921 960.957,204.031 963.01,93.2978 965.063,-44.0632 967.116,77.2619 969.168,64.32 971.221,186.681 973.274,280.175 975.327,285.957 977.38,269.596 979.433,-55.9589 981.486,-33.4056 983.539,49.6598 985.592,24.2439 987.644,47.9328 989.697,105.585 991.75,187.048 993.803,-232.479 995.856,-206.527 997.909,-57.24 999.962,-186.769 1002.01,-191.428 1004.07,-114.259 1006.12,-100.666 1008.17,-93.5757 1010.23,-105.351 1012.28,-78.1201 1014.33,-79.6359 1016.38,-15.4776 1018.44,91.4527 1020.49,-92.8548 1022.54,73.7127 1024.6,207.41 1026.65,481.711 1028.7,429.282 1030.76,432.214 1032.81,437.149 1034.86,418.683 1036.91,448.252 1038.97,462.622 1041.02,541.353 1043.07,544.171 1045.13,539.214 1047.18,436.469 1049.23,436.442 1051.28,428.668 1053.34,495.771 1055.39,506.773 1057.44,538.632 1059.5,383.769 1061.55,350.264 1063.6,437.576 1065.65,496.217 1067.71,463.524 1069.76,473.897 1071.81,480.174 1073.87,490.563 1075.92,371.422 1077.97,387.664 1080.02,386.257 1082.08,391.324 1084.13,392.029 1086.18,388.734 1088.24,436.754 1090.29,439.474 1092.34,428.437 1094.39,384.298 1096.45,364.336 1098.5,342.709 1100.55,228.666 1102.61,224.105 1104.66,247.916 1106.71,257.172 1108.77,255.642 1110.82,275.225 1112.87,266.678 1114.92,150.556 1116.98,149.767 1119.03,152.316 1121.08,249.107 1123.14,270.172 1125.19,240.094 1127.24,202.997 1129.29,208.266 1131.35,205.9 1133.4,158.195 1135.45,161.532 1137.51,216.762 1139.56,208.607 1141.61,209.828 1143.66,222.095 1145.72,224.648 1147.77,229.721 1149.82,187.776 1151.88,118.155 1153.93,617.407 1155.98,623.668 1158.03,617.355 1160.09,243.326 1162.14,215.538 1164.19,223.345 1166.25,236.069 1168.3,251.571 1170.35,256.577 1172.4,256.007 1174.46,263.322 1176.51,260.586 1178.56,222.407 1180.62,504.083 1182.67,425.096 1184.72,417.241 1186.77,441.469 1188.83,432.7 1190.88,418.431 1192.93,369.284 1194.99,355.073 1197.04,353.36 1199.09,316.506 1201.15,266.946 1203.2,228.576 1205.25,270.785 1207.3,384.875 1209.36,381.015 1211.41,416.739 1213.46,340.418 1215.52,344.929 1217.57,345.688 1219.62,292.095 1221.67,436.67 1223.73,327.034 1225.78,396.867 1227.83,471.361 1229.89,431.846 1231.94,422.465 1233.99,440.23 1236.04,443.15 1238.1,471.876 1240.15,413.852 1242.2,413.307 1244.26,429.588 1246.31,428.192 1248.36,433.854 1250.41,433.828 1252.47,414.931 1254.52,417.318 1256.57,415.872 1258.63,401.889 1260.68,402.343 1262.73,397.07 1264.78,404.243 1266.84,265.292 1268.89,393.609 1270.94,387.972 1273,337.85 1275.05,355.605 1277.1,360.431 1279.16,374.389 1281.21,362.611 1283.26,403.271 1285.31,445.381 1287.37,451.318 1289.42,443.998 1291.47,425.02 1293.53,276.744 1295.58,277.692 1297.63,275.064 1299.68,296.939 1301.74,298.68 1303.79,286.949 1305.84,295.289 1307.9,295.718 1309.95,308.342 1312,303.892 1314.05,303.837 1316.11,277.55 1318.16,378.291 1320.21,373.393 1322.27,388.944 1324.32,388.594 1326.37,396.264 1328.42,295.165 1330.48,419.383 1332.53,416.941 1334.58,410.759 1336.64,365.475 1338.69,383.809 1340.74,381.447 1342.79,394.84 1344.85,370.995 1346.9,413.833 1348.95,427.053 1351.01,417.542 1353.06,421.182 1355.11,417.644 1357.16,417.612 1359.22,350.117 1361.27,346.489 1363.32,258.618 1365.38,287.273 1367.43,287.684 1369.48,279.798 1371.54,295.901 1373.59,294.374 1375.64,294.335 1377.69,294.76 1379.75,294.725 1381.8,294.725 1383.85,294.612 1385.91,291.876 1387.96,291.377 1390.01,311.054 1392.06,310.983 1394.12,341.553 1396.17,341.105 1398.22,404.818 1400.28,444.581 1402.33,444.677 1404.38,443.468 1406.43,449.791 1408.49,442.489 1410.54,426.083 1412.59,425.576 1414.65,428.314 1416.7,423.271 1418.75,419.615 1420.8,420.409 1422.86,423.977 1424.91,425.446 1426.96,427.148 1429.02,432.089 1431.07,365.262 1433.12,372.076 1435.17,381.939 1437.23,383.58 1439.28,383.674 1441.33,371.271 1443.39,371.801 1445.44,363.449 1447.49,364.777 1449.55,361.824 1451.6,371.027 1453.65,391.351 1455.7,398.386 1457.76,398.026 1459.81,397.239 1461.86,392.092 1463.92,358.605 1465.97,358.727 1468.02,358.523 1470.07,359.552 1472.13,360.506 1474.18,346.179 1476.23,347.48 1478.29,345.743 1480.34,446.461 1482.39,449.108 1484.44,447.391 1486.5,374.817 1488.55,378.558 1490.6,358.889 1492.66,355.893 1494.71,355.904 1496.76,355.843 1498.81,363.429 1500.87,362.617 1502.92,358.004 1504.97,357.592 1507.03,363.409 1509.08,364.947 1511.13,370.664 1513.18,371.286 1515.24,370.954 1517.29,370.945 1519.34,350.857 1521.4,352.824 1523.45,356.971 1525.5,356.105 1527.55,354.177 1529.61,364.322 1531.66,366.717 1533.71,369.898 1535.77,369.571 1537.82,369.755 1539.87,370.863 1541.93,371.936 1543.98,372.257 1546.03,376.427 1548.08,374.384 1550.14,379.917 1552.19,379.755 1554.24,362.348 1556.3,362.459 1558.35,368.803 1560.4,362.633 1562.45,362.727 1564.51,360.838 1566.56,372.405 1568.61,365.123 1570.67,364.787 1572.72,365.194 1574.77,375.014 1576.82,380.859 1578.88,380.122 1580.93,365.291 1582.98,365.327 1585.04,373.406 1587.09,374.824 1589.14,374.71 1591.19,369.469 1593.25,370.023 1595.3,352.288 1597.35,347.047 1599.41,349.783 1601.46,372.773 1603.51,361.582 1605.56,342.66 1607.62,340.27 1609.67,348.18 1611.72,343.842 1613.78,343.043 1615.83,343.005 1617.88,366.134 1619.94,366.004 1621.99,364.298 1624.04,376.463 1626.09,376.993 1628.15,367.783 1630.2,365.49 1632.25,364.759 1634.31,389.68 1636.36,403.122 1638.41,403.076 1640.46,407.487 1642.52,407.482 1644.57,406.349 1646.62,406.412 1648.68,415.51 1650.73,410.837 1652.78,409.149 1654.83,414.092 1656.89,392.015 1658.94,386.415 1660.99,403.037 1663.05,402.175 1665.1,402.181 1667.15,390.212 1669.2,376.152 1671.26,376.252 1673.31,373.866 1675.36,359.87 1677.42,361.979 1679.47,361.106 1681.52,359.493 1683.57,356.096 1685.63,358.567 1687.68,357.362 1689.73,358.641 1691.79,369.236 1693.84,401.385 1695.89,400.071 1697.94,398.593 1700,399.066 1702.05,392.631 1704.1,348.88 1706.16,348.918 1708.21,348.384 1710.26,349.386 1712.32,365.861 1714.37,381.601 1716.42,351.29 1718.47,350.044 1720.53,349.261 1722.58,348.074 1724.63,348.08 1726.69,346.603 1728.74,355.658 1730.79,356.097 1732.84,356.712 1734.9,356.497 1736.95,336.872 1739,354.863 1741.06,354.119 1743.11,357.072 1745.16,360.984 1747.21,365.145 1749.27,365.313 1751.32,365.093 1753.37,373.014 1755.43,375.67 1757.48,347.04 1759.53,346.761 1761.58,342.003 1763.64,337.773 1765.69,346.77 1767.74,330.936 1769.8,333.94 1771.85,334.173 1773.9,358.922 1775.95,363.345 1778.01,363.25 1780.06,360.518 1782.11,360.697 1784.17,361.921 1786.22,363.313 1788.27,379.059 1790.33,390.336 1792.38,363.83 1794.43,364.783 1796.48,369.778 1798.54,379.649 1800.59,382.401 1802.64,381.36 1804.7,383.948 1806.75,394.638 1808.8,396.192 1810.85,397.558 1812.91,379.215 1814.96,377.78 1817.01,378.596 1819.07,385.299 1821.12,385.602 1823.17,386.559 1825.22,388.245 1827.28,409.822 1829.33,420.836 1831.38,423.964 1833.44,416.86 1835.49,414.94 1837.54,334.08 1839.59,346.501 1841.65,340.807 1843.7,343.276 1845.75,367.256 1847.81,363.674 1849.86,361.144 1851.91,378.988 1853.96,379.219 1856.02,378.684 1858.07,387.657 1860.12,376.021 1862.18,382.735 1864.23,382.676 1866.28,381.151 1868.34,381.108 1870.39,381.022 1872.44,379.86 1874.49,387.769 1876.55,387.598 1878.6,355.785 1880.65,365.545 1882.71,365.174 1884.76,381.795 1886.81,380.689 1888.86,380.684 1890.92,380.381 1892.97,377.079 1895.02,376.534 1897.08,384.162 1899.13,395.669 1901.18,395.49 1903.23,396.896 1905.29,389.09 1907.34,332.855 1909.39,389.604 1911.45,388.112 1913.5,384.056 1915.55,370.472 1917.6,386.534 1919.66,390.937 1921.71,369.096 1923.76,369.078 1925.82,378.068 1927.87,378.307 1929.92,376.41 1931.97,377.629 1934.03,381.34 1936.08,380.942 1938.13,383.194 1940.19,380.862 1942.24,367.218 1944.29,366.207 1946.34,369.795 1948.4,369.779 1950.45,368.139 1952.5,368.113 1954.56,373.256 1956.61,372.959 1958.66,372.746 1960.72,374.317 1962.77,373.454 1964.82,373.041 1966.87,373.537 1968.93,373.24 1970.98,373.148 1973.03,362.225 1975.09,362.377 1977.14,362.535 1979.19,364.348 1981.24,367.312 1983.3,368.537 1985.35,368.584 1987.4,370.454 1989.46,369.312 1991.51,367.045 1993.56,366.999 1995.61,366.771 1997.67,366.9 1999.72,366.901 2001.77,363.758 2003.83,364.881 2005.88,364.513 2007.93,359.864 2009.98,369.608 2012.04,369.15 2014.09,370.626 2016.14,371.843 2018.2,372.682 2020.25,371.857 2022.3,372.234 2024.35,369.818 2026.41,346.557 2028.46,351.597 2030.51,356.81 2032.57,352.028 2034.62,354.118 2036.67,345.616 2038.73,342.688 2040.78,343.622 2042.83,343.654 2044.88,346.001 2046.94,355.076 2048.99,364.238 2051.04,363.033 2053.1,357.179 2055.15,350.837 2057.2,350.545 2059.25,357.481 2061.31,356.729 2063.36,356.407 2065.41,355.412 2067.47,355.03 2069.52,354.867 2071.57,361.155 2073.62,365.715 2075.68,373.515 2077.73,364.285 2079.78,364.148 2081.84,366.91 2083.89,366.939 2085.94,372.62 2087.99,372.886 2090.05,409.115 2092.1,362.147 2094.15,362.139 2096.21,357.436 2098.26,357.383 2100.31,371.023 2102.36,371.013 2104.42,374.385 2106.47,374.438 2108.52,409.353 2110.58,404.5 2112.63,407.777 2114.68,417.384 2116.73,406.833 2118.79,354.318 2120.84,351.33 2122.89,354.568 2124.95,394.14 2127,394.887 2129.05,405.232 2131.11,407.431 2133.16,399.674 2135.21,369.486 2137.26,360.52 2139.32,361.803 2141.37,272.931 2143.42,277.22 2145.48,273.013 2147.53,345.062 2149.58,391.851 2151.63,383.357 2153.69,383.448 2155.74,299.585 2157.79,299.603 2159.85,301.497 2161.9,301.192 2163.95,441.081 2166,432.578 2168.06,433.892 2170.11,343.919 2172.16,344.193 2174.22,340.625 2176.27,333.643 2178.32,346.161 2180.37,328.777 2182.43,302.265 2184.48,302.471 2186.53,302.668 2188.59,311.432 2190.64,362.178 2192.69,363.24 2194.74,353.814 2196.8,354.698 2198.85,353.183 2200.9,354.012 2202.96,361.586 2205.01,444.136 2207.06,461.44 2209.12,452.303 2211.17,450.337 2213.22,449.929 2215.27,451.288 2217.33,455.968 2219.38,461.622 2221.43,457.6 2223.49,452.996 2225.54,347.265 2227.59,345.89 2229.64,347.58 2231.7,373.409 2233.75,394.275 2235.8,384.253 2237.86,385.034 2239.91,400.441 2241.96,400.438 2244.01,397.043 2246.07,409.844 2248.12,412.355 2250.17,412.361 2252.23,410.49 2254.28,411.296 2256.33,423.77 2258.38,408.103 2260.44,411.5 2262.49,432.81 2264.54,436.559 2266.6,434.262 2268.65,405.946 2270.7,405.056 2272.75,420.812 2274.81,366.793 2276.86,367.604 2278.91,374.667 2280.97,384.613 2283.02,372.98 2285.07,360.132 2287.12,360.263 2289.18,360.979 2291.23,360.806 "/>
<path clip-path="url(#clip070)" d="M1983.6 172.231 L2280.29 172.231 L2280.29 68.5509 L1983.6 68.5509  Z" fill="#ffffff" fill-rule="evenodd" fill-opacity="1"/>
<polyline clip-path="url(#clip070)" style="stroke:#000000; stroke-linecap:round; stroke-linejoin:round; stroke-width:4; stroke-opacity:1; fill:none" points="1983.6,172.231 2280.29,172.231 2280.29,68.5509 1983.6,68.5509 1983.6,172.231 "/>
<polyline clip-path="url(#clip070)" style="stroke:#009af9; stroke-linecap:round; stroke-linejoin:round; stroke-width:4; stroke-opacity:1; fill:none" points="2007.75,120.391 2152.68,120.391 "/>
<path clip-path="url(#clip070)" d="M2176.83 103.111 L2181.51 103.111 L2181.51 133.736 L2198.34 133.736 L2198.34 137.671 L2176.83 137.671 L2176.83 103.111 Z" fill="#000000" fill-rule="nonzero" fill-opacity="1" /><path clip-path="url(#clip070)" d="M2223.96 104.245 L2223.96 108.805 Q2221.3 107.532 2218.94 106.907 Q2216.58 106.282 2214.38 106.282 Q2210.56 106.282 2208.48 107.764 Q2206.42 109.245 2206.42 111.977 Q2206.42 114.268 2207.78 115.449 Q2209.17 116.606 2213.01 117.324 L2215.84 117.902 Q2221.07 118.898 2223.55 121.421 Q2226.05 123.921 2226.05 128.134 Q2226.05 133.157 2222.67 135.75 Q2219.31 138.342 2212.81 138.342 Q2210.35 138.342 2207.57 137.787 Q2204.82 137.231 2201.86 136.143 L2201.86 131.328 Q2204.7 132.926 2207.44 133.736 Q2210.17 134.546 2212.81 134.546 Q2216.81 134.546 2218.99 132.972 Q2221.16 131.398 2221.16 128.481 Q2221.16 125.935 2219.59 124.5 Q2218.04 123.064 2214.47 122.347 L2211.62 121.791 Q2206.39 120.75 2204.06 118.527 Q2201.72 116.305 2201.72 112.347 Q2201.72 107.764 2204.94 105.125 Q2208.18 102.486 2213.85 102.486 Q2216.28 102.486 2218.8 102.926 Q2221.32 103.366 2223.96 104.245 Z" fill="#000000" fill-rule="nonzero" fill-opacity="1" /><path clip-path="url(#clip070)" d="M2254.06 104.245 L2254.06 108.805 Q2251.39 107.532 2249.03 106.907 Q2246.67 106.282 2244.47 106.282 Q2240.65 106.282 2238.57 107.764 Q2236.51 109.245 2236.51 111.977 Q2236.51 114.268 2237.87 115.449 Q2239.26 116.606 2243.11 117.324 L2245.93 117.902 Q2251.16 118.898 2253.64 121.421 Q2256.14 123.921 2256.14 128.134 Q2256.14 133.157 2252.76 135.75 Q2249.4 138.342 2242.9 138.342 Q2240.44 138.342 2237.67 137.787 Q2234.91 137.231 2231.95 136.143 L2231.95 131.328 Q2234.8 132.926 2237.53 133.736 Q2240.26 134.546 2242.9 134.546 Q2246.9 134.546 2249.08 132.972 Q2251.25 131.398 2251.25 128.481 Q2251.25 125.935 2249.68 124.5 Q2248.13 123.064 2244.56 122.347 L2241.72 121.791 Q2236.49 120.75 2234.15 118.527 Q2231.81 116.305 2231.81 112.347 Q2231.81 107.764 2235.03 105.125 Q2238.27 102.486 2243.94 102.486 Q2246.37 102.486 2248.89 102.926 Q2251.42 103.366 2254.06 104.245 Z" fill="#000000" fill-rule="nonzero" fill-opacity="1" /><path clip-path="url(#clip070)" d="M178.867 1486.45 L2352.76 1486.45 L2352.76 847.244 L178.867 847.244  Z" fill="#ffffff" fill-rule="evenodd" fill-opacity="1"/>
<defs>
  <clipPath id="clip073">
    <rect x="178" y="847" width="2175" height="640"/>
  </clipPath>
</defs>
<polyline clip-path="url(#clip073)" style="stroke:#000000; stroke-linecap:round; stroke-linejoin:round; stroke-width:2; stroke-opacity:0.1; fill:none" points="238.339,1486.45 238.339,847.244 "/>
<polyline clip-path="url(#clip073)" style="stroke:#000000; stroke-linecap:round; stroke-linejoin:round; stroke-width:2; stroke-opacity:0.1; fill:none" points="751.562,1486.45 751.562,847.244 "/>
<polyline clip-path="url(#clip073)" style="stroke:#000000; stroke-linecap:round; stroke-linejoin:round; stroke-width:2; stroke-opacity:0.1; fill:none" points="1264.78,1486.45 1264.78,847.244 "/>
<polyline clip-path="url(#clip073)" style="stroke:#000000; stroke-linecap:round; stroke-linejoin:round; stroke-width:2; stroke-opacity:0.1; fill:none" points="1778.01,1486.45 1778.01,847.244 "/>
<polyline clip-path="url(#clip073)" style="stroke:#000000; stroke-linecap:round; stroke-linejoin:round; stroke-width:2; stroke-opacity:0.1; fill:none" points="2291.23,1486.45 2291.23,847.244 "/>
<polyline clip-path="url(#clip073)" style="stroke:#000000; stroke-linecap:round; stroke-linejoin:round; stroke-width:2; stroke-opacity:0.1; fill:none" points="178.867,1486.45 2352.76,1486.45 "/>
<polyline clip-path="url(#clip073)" style="stroke:#000000; stroke-linecap:round; stroke-linejoin:round; stroke-width:2; stroke-opacity:0.1; fill:none" points="178.867,1326.65 2352.76,1326.65 "/>
<polyline clip-path="url(#clip073)" style="stroke:#000000; stroke-linecap:round; stroke-linejoin:round; stroke-width:2; stroke-opacity:0.1; fill:none" points="178.867,1166.85 2352.76,1166.85 "/>
<polyline clip-path="url(#clip073)" style="stroke:#000000; stroke-linecap:round; stroke-linejoin:round; stroke-width:2; stroke-opacity:0.1; fill:none" points="178.867,1007.05 2352.76,1007.05 "/>
<polyline clip-path="url(#clip073)" style="stroke:#000000; stroke-linecap:round; stroke-linejoin:round; stroke-width:2; stroke-opacity:0.1; fill:none" points="178.867,847.244 2352.76,847.244 "/>
<polyline clip-path="url(#clip070)" style="stroke:#000000; stroke-linecap:round; stroke-linejoin:round; stroke-width:4; stroke-opacity:1; fill:none" points="178.867,1486.45 2352.76,1486.45 "/>
<polyline clip-path="url(#clip070)" style="stroke:#000000; stroke-linecap:round; stroke-linejoin:round; stroke-width:4; stroke-opacity:1; fill:none" points="238.339,1486.45 238.339,1467.55 "/>
<polyline clip-path="url(#clip070)" style="stroke:#000000; stroke-linecap:round; stroke-linejoin:round; stroke-width:4; stroke-opacity:1; fill:none" points="751.562,1486.45 751.562,1467.55 "/>
<polyline clip-path="url(#clip070)" style="stroke:#000000; stroke-linecap:round; stroke-linejoin:round; stroke-width:4; stroke-opacity:1; fill:none" points="1264.78,1486.45 1264.78,1467.55 "/>
<polyline clip-path="url(#clip070)" style="stroke:#000000; stroke-linecap:round; stroke-linejoin:round; stroke-width:4; stroke-opacity:1; fill:none" points="1778.01,1486.45 1778.01,1467.55 "/>
<polyline clip-path="url(#clip070)" style="stroke:#000000; stroke-linecap:round; stroke-linejoin:round; stroke-width:4; stroke-opacity:1; fill:none" points="2291.23,1486.45 2291.23,1467.55 "/>
<path clip-path="url(#clip070)" d="M238.339 1517.37 Q234.728 1517.37 232.899 1520.93 Q231.094 1524.47 231.094 1531.6 Q231.094 1538.71 232.899 1542.27 Q234.728 1545.82 238.339 1545.82 Q241.973 1545.82 243.779 1542.27 Q245.607 1538.71 245.607 1531.6 Q245.607 1524.47 243.779 1520.93 Q241.973 1517.37 238.339 1517.37 M238.339 1513.66 Q244.149 1513.66 247.205 1518.27 Q250.283 1522.85 250.283 1531.6 Q250.283 1540.33 247.205 1544.94 Q244.149 1549.52 238.339 1549.52 Q232.529 1549.52 229.45 1544.94 Q226.395 1540.33 226.395 1531.6 Q226.395 1522.85 229.45 1518.27 Q232.529 1513.66 238.339 1513.66 Z" fill="#000000" fill-rule="nonzero" fill-opacity="1" /><path clip-path="url(#clip070)" d="M715.254 1544.91 L731.574 1544.91 L731.574 1548.85 L709.629 1548.85 L709.629 1544.91 Q712.291 1542.16 716.875 1537.53 Q721.481 1532.88 722.662 1531.53 Q724.907 1529.01 725.787 1527.27 Q726.689 1525.51 726.689 1523.82 Q726.689 1521.07 724.745 1519.33 Q722.824 1517.6 719.722 1517.6 Q717.523 1517.6 715.069 1518.36 Q712.638 1519.13 709.861 1520.68 L709.861 1515.95 Q712.685 1514.82 715.138 1514.24 Q717.592 1513.66 719.629 1513.66 Q725 1513.66 728.194 1516.35 Q731.388 1519.03 731.388 1523.52 Q731.388 1525.65 730.578 1527.57 Q729.791 1529.47 727.685 1532.07 Q727.106 1532.74 724.004 1535.95 Q720.902 1539.15 715.254 1544.91 Z" fill="#000000" fill-rule="nonzero" fill-opacity="1" /><path clip-path="url(#clip070)" d="M741.435 1514.29 L759.791 1514.29 L759.791 1518.22 L745.717 1518.22 L745.717 1526.7 Q746.736 1526.35 747.754 1526.19 Q748.773 1526 749.791 1526 Q755.578 1526 758.958 1529.17 Q762.337 1532.34 762.337 1537.76 Q762.337 1543.34 758.865 1546.44 Q755.393 1549.52 749.073 1549.52 Q746.898 1549.52 744.629 1549.15 Q742.384 1548.78 739.976 1548.04 L739.976 1543.34 Q742.06 1544.47 744.282 1545.03 Q746.504 1545.58 748.981 1545.58 Q752.985 1545.58 755.323 1543.48 Q757.661 1541.37 757.661 1537.76 Q757.661 1534.15 755.323 1532.04 Q752.985 1529.94 748.981 1529.94 Q747.106 1529.94 745.231 1530.35 Q743.379 1530.77 741.435 1531.65 L741.435 1514.29 Z" fill="#000000" fill-rule="nonzero" fill-opacity="1" /><path clip-path="url(#clip070)" d="M781.55 1517.37 Q777.939 1517.37 776.11 1520.93 Q774.305 1524.47 774.305 1531.6 Q774.305 1538.71 776.11 1542.27 Q777.939 1545.82 781.55 1545.82 Q785.184 1545.82 786.99 1542.27 Q788.819 1538.71 788.819 1531.6 Q788.819 1524.47 786.99 1520.93 Q785.184 1517.37 781.55 1517.37 M781.55 1513.66 Q787.36 1513.66 790.416 1518.27 Q793.495 1522.85 793.495 1531.6 Q793.495 1540.33 790.416 1544.94 Q787.36 1549.52 781.55 1549.52 Q775.74 1549.52 772.661 1544.94 Q769.606 1540.33 769.606 1531.6 Q769.606 1522.85 772.661 1518.27 Q775.74 1513.66 781.55 1513.66 Z" fill="#000000" fill-rule="nonzero" fill-opacity="1" /><path clip-path="url(#clip070)" d="M1224.4 1514.29 L1242.76 1514.29 L1242.76 1518.22 L1228.69 1518.22 L1228.69 1526.7 Q1229.7 1526.35 1230.72 1526.19 Q1231.74 1526 1232.76 1526 Q1238.55 1526 1241.93 1529.17 Q1245.31 1532.34 1245.31 1537.76 Q1245.31 1543.34 1241.83 1546.44 Q1238.36 1549.52 1232.04 1549.52 Q1229.87 1549.52 1227.6 1549.15 Q1225.35 1548.78 1222.94 1548.04 L1222.94 1543.34 Q1225.03 1544.47 1227.25 1545.03 Q1229.47 1545.58 1231.95 1545.58 Q1235.95 1545.58 1238.29 1543.48 Q1240.63 1541.37 1240.63 1537.76 Q1240.63 1534.15 1238.29 1532.04 Q1235.95 1529.94 1231.95 1529.94 Q1230.07 1529.94 1228.2 1530.35 Q1226.35 1530.77 1224.4 1531.65 L1224.4 1514.29 Z" fill="#000000" fill-rule="nonzero" fill-opacity="1" /><path clip-path="url(#clip070)" d="M1264.52 1517.37 Q1260.91 1517.37 1259.08 1520.93 Q1257.27 1524.47 1257.27 1531.6 Q1257.27 1538.71 1259.08 1542.27 Q1260.91 1545.82 1264.52 1545.82 Q1268.15 1545.82 1269.96 1542.27 Q1271.79 1538.71 1271.79 1531.6 Q1271.79 1524.47 1269.96 1520.93 Q1268.15 1517.37 1264.52 1517.37 M1264.52 1513.66 Q1270.33 1513.66 1273.38 1518.27 Q1276.46 1522.85 1276.46 1531.6 Q1276.46 1540.33 1273.38 1544.94 Q1270.33 1549.52 1264.52 1549.52 Q1258.71 1549.52 1255.63 1544.94 Q1252.57 1540.33 1252.57 1531.6 Q1252.57 1522.85 1255.63 1518.27 Q1258.71 1513.66 1264.52 1513.66 Z" fill="#000000" fill-rule="nonzero" fill-opacity="1" /><path clip-path="url(#clip070)" d="M1294.68 1517.37 Q1291.07 1517.37 1289.24 1520.93 Q1287.44 1524.47 1287.44 1531.6 Q1287.44 1538.71 1289.24 1542.27 Q1291.07 1545.82 1294.68 1545.82 Q1298.31 1545.82 1300.12 1542.27 Q1301.95 1538.71 1301.95 1531.6 Q1301.95 1524.47 1300.12 1520.93 Q1298.31 1517.37 1294.68 1517.37 M1294.68 1513.66 Q1300.49 1513.66 1303.55 1518.27 Q1306.62 1522.85 1306.62 1531.6 Q1306.62 1540.33 1303.55 1544.94 Q1300.49 1549.52 1294.68 1549.52 Q1288.87 1549.52 1285.79 1544.94 Q1282.74 1540.33 1282.74 1531.6 Q1282.74 1522.85 1285.79 1518.27 Q1288.87 1513.66 1294.68 1513.66 Z" fill="#000000" fill-rule="nonzero" fill-opacity="1" /><path clip-path="url(#clip070)" d="M1736.28 1514.29 L1758.51 1514.29 L1758.51 1516.28 L1745.96 1548.85 L1741.08 1548.85 L1752.88 1518.22 L1736.28 1518.22 L1736.28 1514.29 Z" fill="#000000" fill-rule="nonzero" fill-opacity="1" /><path clip-path="url(#clip070)" d="M1767.67 1514.29 L1786.03 1514.29 L1786.03 1518.22 L1771.95 1518.22 L1771.95 1526.7 Q1772.97 1526.35 1773.99 1526.19 Q1775.01 1526 1776.03 1526 Q1781.82 1526 1785.2 1529.17 Q1788.57 1532.34 1788.57 1537.76 Q1788.57 1543.34 1785.1 1546.44 Q1781.63 1549.52 1775.31 1549.52 Q1773.14 1549.52 1770.87 1549.15 Q1768.62 1548.78 1766.21 1548.04 L1766.21 1543.34 Q1768.3 1544.47 1770.52 1545.03 Q1772.74 1545.58 1775.22 1545.58 Q1779.22 1545.58 1781.56 1543.48 Q1783.9 1541.37 1783.9 1537.76 Q1783.9 1534.15 1781.56 1532.04 Q1779.22 1529.94 1775.22 1529.94 Q1773.34 1529.94 1771.47 1530.35 Q1769.62 1530.77 1767.67 1531.65 L1767.67 1514.29 Z" fill="#000000" fill-rule="nonzero" fill-opacity="1" /><path clip-path="url(#clip070)" d="M1807.79 1517.37 Q1804.18 1517.37 1802.35 1520.93 Q1800.54 1524.47 1800.54 1531.6 Q1800.54 1538.71 1802.35 1542.27 Q1804.18 1545.82 1807.79 1545.82 Q1811.42 1545.82 1813.23 1542.27 Q1815.06 1538.71 1815.06 1531.6 Q1815.06 1524.47 1813.23 1520.93 Q1811.42 1517.37 1807.79 1517.37 M1807.79 1513.66 Q1813.6 1513.66 1816.65 1518.27 Q1819.73 1522.85 1819.73 1531.6 Q1819.73 1540.33 1816.65 1544.94 Q1813.6 1549.52 1807.79 1549.52 Q1801.98 1549.52 1798.9 1544.94 Q1795.84 1540.33 1795.84 1531.6 Q1795.84 1522.85 1798.9 1518.27 Q1801.98 1513.66 1807.79 1513.66 Z" fill="#000000" fill-rule="nonzero" fill-opacity="1" /><path clip-path="url(#clip070)" d="M2235.76 1544.91 L2243.4 1544.91 L2243.4 1518.55 L2235.09 1520.21 L2235.09 1515.95 L2243.35 1514.29 L2248.02 1514.29 L2248.02 1544.91 L2255.66 1544.91 L2255.66 1548.85 L2235.76 1548.85 L2235.76 1544.91 Z" fill="#000000" fill-rule="nonzero" fill-opacity="1" /><path clip-path="url(#clip070)" d="M2275.11 1517.37 Q2271.5 1517.37 2269.67 1520.93 Q2267.86 1524.47 2267.86 1531.6 Q2267.86 1538.71 2269.67 1542.27 Q2271.5 1545.82 2275.11 1545.82 Q2278.74 1545.82 2280.55 1542.27 Q2282.38 1538.71 2282.38 1531.6 Q2282.38 1524.47 2280.55 1520.93 Q2278.74 1517.37 2275.11 1517.37 M2275.11 1513.66 Q2280.92 1513.66 2283.97 1518.27 Q2287.05 1522.85 2287.05 1531.6 Q2287.05 1540.33 2283.97 1544.94 Q2280.92 1549.52 2275.11 1549.52 Q2269.3 1549.52 2266.22 1544.94 Q2263.16 1540.33 2263.16 1531.6 Q2263.16 1522.85 2266.22 1518.27 Q2269.3 1513.66 2275.11 1513.66 Z" fill="#000000" fill-rule="nonzero" fill-opacity="1" /><path clip-path="url(#clip070)" d="M2305.27 1517.37 Q2301.66 1517.37 2299.83 1520.93 Q2298.02 1524.47 2298.02 1531.6 Q2298.02 1538.71 2299.83 1542.27 Q2301.66 1545.82 2305.27 1545.82 Q2308.9 1545.82 2310.71 1542.27 Q2312.54 1538.71 2312.54 1531.6 Q2312.54 1524.47 2310.71 1520.93 Q2308.9 1517.37 2305.27 1517.37 M2305.27 1513.66 Q2311.08 1513.66 2314.14 1518.27 Q2317.21 1522.85 2317.21 1531.6 Q2317.21 1540.33 2314.14 1544.94 Q2311.08 1549.52 2305.27 1549.52 Q2299.46 1549.52 2296.38 1544.94 Q2293.33 1540.33 2293.33 1531.6 Q2293.33 1522.85 2296.38 1518.27 Q2299.46 1513.66 2305.27 1513.66 Z" fill="#000000" fill-rule="nonzero" fill-opacity="1" /><path clip-path="url(#clip070)" d="M2335.43 1517.37 Q2331.82 1517.37 2329.99 1520.93 Q2328.19 1524.47 2328.19 1531.6 Q2328.19 1538.71 2329.99 1542.27 Q2331.82 1545.82 2335.43 1545.82 Q2339.07 1545.82 2340.87 1542.27 Q2342.7 1538.71 2342.7 1531.6 Q2342.7 1524.47 2340.87 1520.93 Q2339.07 1517.37 2335.43 1517.37 M2335.43 1513.66 Q2341.24 1513.66 2344.3 1518.27 Q2347.38 1522.85 2347.38 1531.6 Q2347.38 1540.33 2344.3 1544.94 Q2341.24 1549.52 2335.43 1549.52 Q2329.62 1549.52 2326.54 1544.94 Q2323.49 1540.33 2323.49 1531.6 Q2323.49 1522.85 2326.54 1518.27 Q2329.62 1513.66 2335.43 1513.66 Z" fill="#000000" fill-rule="nonzero" fill-opacity="1" /><polyline clip-path="url(#clip070)" style="stroke:#000000; stroke-linecap:round; stroke-linejoin:round; stroke-width:4; stroke-opacity:1; fill:none" points="178.867,1486.45 178.867,847.244 "/>
<polyline clip-path="url(#clip070)" style="stroke:#000000; stroke-linecap:round; stroke-linejoin:round; stroke-width:4; stroke-opacity:1; fill:none" points="178.867,1486.45 197.764,1486.45 "/>
<polyline clip-path="url(#clip070)" style="stroke:#000000; stroke-linecap:round; stroke-linejoin:round; stroke-width:4; stroke-opacity:1; fill:none" points="178.867,1326.65 197.764,1326.65 "/>
<polyline clip-path="url(#clip070)" style="stroke:#000000; stroke-linecap:round; stroke-linejoin:round; stroke-width:4; stroke-opacity:1; fill:none" points="178.867,1166.85 197.764,1166.85 "/>
<polyline clip-path="url(#clip070)" style="stroke:#000000; stroke-linecap:round; stroke-linejoin:round; stroke-width:4; stroke-opacity:1; fill:none" points="178.867,1007.05 197.764,1007.05 "/>
<polyline clip-path="url(#clip070)" style="stroke:#000000; stroke-linecap:round; stroke-linejoin:round; stroke-width:4; stroke-opacity:1; fill:none" points="178.867,847.244 197.764,847.244 "/>
<path clip-path="url(#clip070)" d="M50.9921 1486.9 L80.6679 1486.9 L80.6679 1490.83 L50.9921 1490.83 L50.9921 1486.9 Z" fill="#000000" fill-rule="nonzero" fill-opacity="1" /><path clip-path="url(#clip070)" d="M91.5706 1499.79 L99.2095 1499.79 L99.2095 1473.43 L90.8993 1475.09 L90.8993 1470.83 L99.1632 1469.17 L103.839 1469.17 L103.839 1499.79 L111.478 1499.79 L111.478 1503.73 L91.5706 1503.73 L91.5706 1499.79 Z" fill="#000000" fill-rule="nonzero" fill-opacity="1" /><path clip-path="url(#clip070)" d="M130.922 1472.25 Q127.311 1472.25 125.482 1475.81 Q123.677 1479.35 123.677 1486.48 Q123.677 1493.59 125.482 1497.15 Q127.311 1500.7 130.922 1500.7 Q134.556 1500.7 136.362 1497.15 Q138.191 1493.59 138.191 1486.48 Q138.191 1479.35 136.362 1475.81 Q134.556 1472.25 130.922 1472.25 M130.922 1468.54 Q136.732 1468.54 139.788 1473.15 Q142.867 1477.73 142.867 1486.48 Q142.867 1495.21 139.788 1499.82 Q136.732 1504.4 130.922 1504.4 Q125.112 1504.4 122.033 1499.82 Q118.978 1495.21 118.978 1486.48 Q118.978 1477.73 122.033 1473.15 Q125.112 1468.54 130.922 1468.54 Z" fill="#000000" fill-rule="nonzero" fill-opacity="1" /><path clip-path="url(#clip070)" d="M82.1494 1327.1 L111.825 1327.1 L111.825 1331.03 L82.1494 1331.03 L82.1494 1327.1 Z" fill="#000000" fill-rule="nonzero" fill-opacity="1" /><path clip-path="url(#clip070)" d="M121.964 1309.37 L140.32 1309.37 L140.32 1313.3 L126.246 1313.3 L126.246 1321.77 Q127.265 1321.43 128.283 1321.27 Q129.302 1321.08 130.32 1321.08 Q136.107 1321.08 139.487 1324.25 Q142.867 1327.42 142.867 1332.84 Q142.867 1338.42 139.394 1341.52 Q135.922 1344.6 129.603 1344.6 Q127.427 1344.6 125.158 1344.23 Q122.913 1343.86 120.506 1343.12 L120.506 1338.42 Q122.589 1339.55 124.811 1340.11 Q127.033 1340.66 129.51 1340.66 Q133.515 1340.66 135.853 1338.56 Q138.191 1336.45 138.191 1332.84 Q138.191 1329.23 135.853 1327.12 Q133.515 1325.01 129.51 1325.01 Q127.635 1325.01 125.76 1325.43 Q123.908 1325.85 121.964 1326.73 L121.964 1309.37 Z" fill="#000000" fill-rule="nonzero" fill-opacity="1" /><path clip-path="url(#clip070)" d="M130.922 1152.64 Q127.311 1152.64 125.482 1156.21 Q123.677 1159.75 123.677 1166.88 Q123.677 1173.99 125.482 1177.55 Q127.311 1181.09 130.922 1181.09 Q134.556 1181.09 136.362 1177.55 Q138.191 1173.99 138.191 1166.88 Q138.191 1159.75 136.362 1156.21 Q134.556 1152.64 130.922 1152.64 M130.922 1148.94 Q136.732 1148.94 139.788 1153.55 Q142.867 1158.13 142.867 1166.88 Q142.867 1175.61 139.788 1180.21 Q136.732 1184.8 130.922 1184.8 Q125.112 1184.8 122.033 1180.21 Q118.978 1175.61 118.978 1166.88 Q118.978 1158.13 122.033 1153.55 Q125.112 1148.94 130.922 1148.94 Z" fill="#000000" fill-rule="nonzero" fill-opacity="1" /><path clip-path="url(#clip070)" d="M121.964 989.765 L140.32 989.765 L140.32 993.7 L126.246 993.7 L126.246 1002.17 Q127.265 1001.83 128.283 1001.66 Q129.302 1001.48 130.32 1001.48 Q136.107 1001.48 139.487 1004.65 Q142.867 1007.82 142.867 1013.24 Q142.867 1018.82 139.394 1021.92 Q135.922 1025 129.603 1025 Q127.427 1025 125.158 1024.63 Q122.913 1024.26 120.506 1023.51 L120.506 1018.82 Q122.589 1019.95 124.811 1020.51 Q127.033 1021.06 129.51 1021.06 Q133.515 1021.06 135.853 1018.95 Q138.191 1016.85 138.191 1013.24 Q138.191 1009.63 135.853 1007.52 Q133.515 1005.41 129.51 1005.41 Q127.635 1005.41 125.76 1005.83 Q123.908 1006.25 121.964 1007.13 L121.964 989.765 Z" fill="#000000" fill-rule="nonzero" fill-opacity="1" /><path clip-path="url(#clip070)" d="M91.5706 860.589 L99.2095 860.589 L99.2095 834.223 L90.8993 835.89 L90.8993 831.631 L99.1632 829.964 L103.839 829.964 L103.839 860.589 L111.478 860.589 L111.478 864.524 L91.5706 864.524 L91.5706 860.589 Z" fill="#000000" fill-rule="nonzero" fill-opacity="1" /><path clip-path="url(#clip070)" d="M130.922 833.043 Q127.311 833.043 125.482 836.608 Q123.677 840.149 123.677 847.279 Q123.677 854.385 125.482 857.95 Q127.311 861.492 130.922 861.492 Q134.556 861.492 136.362 857.95 Q138.191 854.385 138.191 847.279 Q138.191 840.149 136.362 836.608 Q134.556 833.043 130.922 833.043 M130.922 829.339 Q136.732 829.339 139.788 833.946 Q142.867 838.529 142.867 847.279 Q142.867 856.006 139.788 860.612 Q136.732 865.195 130.922 865.195 Q125.112 865.195 122.033 860.612 Q118.978 856.006 118.978 847.279 Q118.978 838.529 122.033 833.946 Q125.112 829.339 130.922 829.339 Z" fill="#000000" fill-rule="nonzero" fill-opacity="1" /><polyline clip-path="url(#clip073)" style="stroke:#009af9; stroke-linecap:round; stroke-linejoin:round; stroke-width:4; stroke-opacity:1; fill:none" points="240.392,1134.89 242.445,1125.61 244.498,1106.38 246.55,1161.45 248.603,1168.35 250.656,1164.62 252.709,1147.49 254.762,1182.93 256.815,1155.04 258.868,1162.86 260.921,1158.87 262.974,1166.95 265.027,1162.45 267.079,1122.94 269.132,1194.98 271.185,1141.87 273.238,1429.16 275.291,985.848 277.344,1265.85 279.397,1279.38 281.45,1125.26 283.503,1236.64 285.555,1187.4 287.608,1082.99 289.661,1233.57 291.714,1198.84 293.767,1169.53 295.82,1191.12 297.873,856.9 299.926,916.393 301.979,1282.78 304.031,1188.78 306.084,1159.14 308.137,1107.93 310.19,955.565 312.243,1382.12 314.296,1352.48 316.349,1262.61 318.402,1017.15 320.455,1081.43 322.507,837.25 324.56,303.112 326.613,1599.52 328.666,1243.63 330.719,1112.41 332.772,1305.44 334.825,1180.7 336.878,1141.25 338.931,1164.16 340.984,1178.48 343.036,1120.14 345.089,1140.73 347.142,1161.98 349.195,1202.48 351.248,1033.92 353.301,1235.97 355.354,1093.01 357.407,1199.1 359.46,950.083 361.512,188.374 363.565,1179.44 365.618,1164.12 367.671,1343.23 369.724,1264.17 371.777,1760.48 373.83,1039.93 375.883,1362.21 377.936,1166.32 379.988,1153.74 382.041,1190.9 384.094,1267.45 386.147,1487.34 388.2,341.346 390.253,1214.72 392.306,1181.23 394.359,1259.19 396.412,1153.48 398.464,1148.75 400.517,1173.08 402.57,1174.42 404.623,1127.07 406.676,1149.16 408.729,1179.39 410.782,1166.86 412.835,1467.51 414.888,450.235 416.94,420.556 418.993,1645.31 421.046,1097.79 423.099,1060.22 425.152,1113.89 427.205,-65.4447 429.258,2.88943 431.311,1231.78 433.364,1090.19 435.417,1184.11 437.469,1126.2 439.522,1158.49 441.575,1139.69 443.628,1173.34 445.681,1166.76 447.734,1157 449.787,1235.59 451.84,1117.97 453.893,1213.86 455.945,1215.47 457.998,1154.68 460.051,1199.77 462.104,1122.17 464.157,1151.23 466.21,1158.37 468.263,1191.41 470.316,1199.14 472.369,1184.53 474.421,1158.58 476.474,1113.04 478.527,1251.93 480.58,1119.71 482.633,1174.42 484.686,1154.27 486.739,1137.98 488.792,1169.32 490.845,1160.98 492.897,1157.96 494.95,1156.59 497.003,1156.53 499.056,1139.43 501.109,1163.39 503.162,1150.64 505.215,1107.54 507.268,1205.78 509.321,1172.98 511.374,1173.62 513.426,1209.33 515.479,1072.82 517.532,1217.51 519.585,6406.71 521.638,78.1777 523.691,1679.42 525.744,911.524 527.797,1671 529.85,949.772 531.902,1008.23 533.955,798.714 536.008,1488.51 538.061,1539.26 540.114,1255.1 542.167,1233.63 544.22,1171.39 546.273,1229.67 548.326,1140.75 550.378,1161.87 552.431,1161.96 554.484,1111.79 556.537,1206.32 558.59,1161.04 560.643,1157.67 562.696,1142.07 564.749,1144.46 566.802,1146.19 568.854,1154.16 570.907,1176.99 572.96,1201.74 575.013,1303.81 577.066,1156.19 579.119,1305.56 581.172,863.597 583.225,-1571.14 585.278,2098.3 587.331,-491.435 589.383,1506.96 591.436,2024.2 593.489,1168.94 595.542,1169.5 597.595,1128.58 599.648,1146.7 601.701,1205.52 603.754,1168.62 605.807,1189.72 607.859,1192.26 609.912,1137.77 611.965,1186.89 614.018,1137.77 616.071,1128.98 618.124,1223.33 620.177,1187.97 622.23,1163.16 624.283,1235.8 626.335,1238.92 628.388,1204.15 630.441,1192.92 632.494,1114.11 634.547,1165.08 636.6,1515.13 638.653,1343.94 640.706,1405.09 642.759,1306.93 644.811,1472.16 646.864,1427.04 648.917,1198.57 650.97,1175.6 653.023,1182.06 655.076,1172.1 657.129,1161.14 659.182,1138.99 661.235,1192.25 663.288,1168.32 665.34,1154.5 667.393,1154.27 669.446,1228.62 671.499,1158.49 673.552,1182.76 675.605,1270.6 677.658,1707.77 679.711,807.935 681.764,546.901 683.816,568.817 685.869,1295.08 687.922,2038 689.975,1195.64 692.028,1181.08 694.081,1182.72 696.134,1215.73 698.187,1209.46 700.24,1121.04 702.292,1138.69 704.345,1241.64 706.398,1165.67 708.451,1153.9 710.504,1023.72 712.557,1205.13 714.61,1193.06 716.663,1167.46 718.716,1179.17 720.768,1204.79 722.821,1122.13 724.874,1165.37 726.927,1173.03 728.98,1171.8 731.033,1175.6 733.086,1194.91 735.139,1138.22 737.192,1193.49 739.245,1213.01 741.297,1157.02 743.35,1036.52 745.403,1095.34 747.456,1099.02 749.509,833.892 751.562,595.407 753.615,1229.16 755.668,1128.5 757.721,1137.85 759.773,1164.82 761.826,1161.8 763.879,1168.46 765.932,1235.31 767.985,1085.89 770.038,1138.47 772.091,1199.48 774.144,1200.98 776.197,1181.67 778.249,1175.84 780.302,1155.75 782.355,1219.05 784.408,1125.59 786.461,1187.15 788.514,1118.23 790.567,1182.83 792.62,1264.8 794.673,1129.55 796.725,1248 798.778,1142.19 800.831,1108.13 802.884,1156.23 804.937,1188.32 806.99,1182.76 809.043,1208.84 811.096,1191.18 813.149,1190.09 815.202,1187.5 817.254,1192.59 819.307,1210.59 821.36,1176.79 823.413,1164.65 825.466,1092.77 827.519,1239.31 829.572,1169.72 831.625,1443.49 833.678,1484.4 835.73,880.336 837.783,1561.51 839.836,1200.87 841.889,1158.6 843.942,1192.54 845.995,1134.16 848.048,1170.16 850.101,1203.2 852.154,705.681 854.206,885.833 856.259,1100.13 858.312,4012.91 860.365,-2229.78 862.418,1830.14 864.471,1093 866.524,668.077 868.577,1353.67 870.63,157.494 872.682,1744.66 874.735,1318.41 876.788,1114.73 878.841,1085.63 880.894,2702.63 882.947,-91.3259 885,1732.47 887.053,-3024.36 889.106,8896.98 891.159,1454.15 893.211,-556.997 895.264,177.442 897.317,-598.382 899.37,2590.39 901.423,712.253 903.476,1411.38 905.529,1218.47 907.582,1162.59 909.635,1160.88 911.687,1104.94 913.74,1243.85 915.793,936.92 917.846,1070.7 919.899,1155.59 921.952,1160.6 924.005,1180.72 926.058,1159.8 928.111,1173.36 930.163,1151.15 932.216,1140.28 934.269,1150.77 936.322,1144.04 938.375,1173.89 940.428,1172.55 942.481,1174.81 944.534,1173.99 946.587,1180.82 948.639,1212.85 950.692,1183.01 952.745,1169.99 954.798,1161.07 956.851,1171.19 958.904,1187.06 960.957,1249.28 963.01,1131.26 965.063,1138.73 967.116,1078.48 969.168,1060.82 971.221,1079.39 973.274,1271.92 975.327,1154.29 977.38,1193.92 979.433,1163.62 981.486,1143.99 983.539,1282.58 985.592,1307.04 987.644,1485.22 989.697,1395.8 991.75,855.981 993.803,1148.47 995.856,1088.93 997.909,1251.26 999.962,1233.17 1002.01,1159 1004.07,1210.02 1006.12,1168.44 1008.17,1166.79 1010.23,1167.74 1012.28,1107.01 1014.33,1171.92 1016.38,1236.86 1018.44,1191.03 1020.49,1154.09 1022.54,1156.56 1024.6,1153.75 1026.65,1173.96 1028.7,1170.94 1030.76,1163.55 1032.81,1183.59 1034.86,1177.78 1036.91,1130.93 1038.97,1194.47 1041.02,1159.69 1043.07,1161.73 1045.13,1317.71 1047.18,1187.38 1049.23,1119.19 1051.28,826.256 1053.34,1006.36 1055.39,1103.35 1057.44,1180.78 1059.5,1135.97 1061.55,1222.71 1063.6,1095.35 1065.65,1082.47 1067.71,1071.66 1069.76,1182.62 1071.81,1124.96 1073.87,1154.13 1075.92,1159.06 1077.97,1173.84 1080.02,1163.11 1082.08,1160.72 1084.13,1151.77 1086.18,1108.3 1088.24,1249.49 1090.29,1144.74 1092.34,1126.22 1094.39,1121.8 1096.45,1211.74 1098.5,1146.26 1100.55,1178.23 1102.61,1178.38 1104.66,1180.81 1106.71,1135.22 1108.77,1215.92 1110.82,1204.55 1112.87,1143.79 1114.92,1193.91 1116.98,1284.74 1119.03,1193.08 1121.08,1226.55 1123.14,1202.05 1125.19,1234.5 1127.24,1210.98 1129.29,1147.39 1131.35,1332.39 1133.4,1189.81 1135.45,1176.31 1137.51,1169.45 1139.56,1189.98 1141.61,1205.64 1143.66,1235.26 1145.72,1192.86 1147.77,1149.14 1149.82,1176.85 1151.88,1172.4 1153.93,1278.11 1155.98,964.403 1158.03,1212.54 1160.09,1123.53 1162.14,1218.96 1164.19,1195.68 1166.25,1155.08 1168.3,1198.09 1170.35,1178.17 1172.4,1104.4 1174.46,1216.64 1176.51,1089.23 1178.56,1108.47 1180.62,1123.26 1182.67,1088.61 1184.72,1019.06 1186.77,1181.43 1188.83,1171.28 1190.88,1191.89 1192.93,1180.92 1194.99,1064.92 1197.04,1405.84 1199.09,1258.45 1201.15,919.014 1203.2,1368.54 1205.25,1168.3 1207.3,1162.99 1209.36,1151.64 1211.41,1068.84 1213.46,1199.25 1215.52,1151.55 1217.57,1184.17 1219.62,1120.12 1221.67,1238.97 1223.73,1142.67 1225.78,1167.66 1227.83,1166.55 1229.89,1138.84 1231.94,1182.69 1233.99,1193.84 1236.04,1173.35 1238.1,1164.34 1240.15,1142.48 1242.2,1002.49 1244.26,1112.39 1246.31,1060.84 1248.36,1219.19 1250.41,1142.75 1252.47,1111.45 1254.52,1026.12 1256.57,964.43 1258.63,1084.32 1260.68,1295.18 1262.73,1252.19 1264.78,1177.3 1266.84,1137.93 1268.89,1153.04 1270.94,1162.36 1273,1167.69 1275.05,1179.94 1277.1,1168.19 1279.16,1165.67 1281.21,1168.98 1283.26,1185.24 1285.31,1221.96 1287.37,1173.81 1289.42,1152.89 1291.47,1174.97 1293.53,1150.73 1295.58,1162.52 1297.63,1162.84 1299.68,1173.38 1301.74,1173.99 1303.79,1145.36 1305.84,1184.27 1307.9,1170.16 1309.95,1157.3 1312,1148.65 1314.05,1236.02 1316.11,1315.2 1318.16,1358.98 1320.21,1005.87 1322.27,1197.91 1324.32,1117.35 1326.37,938.767 1328.42,818.188 1330.48,1304.63 1332.53,1125.51 1334.58,1109.51 1336.64,1233.33 1338.69,1227.14 1340.74,1117.04 1342.79,1150.62 1344.85,1150.82 1346.9,1184.62 1348.95,1160.02 1351.01,1156.34 1353.06,1121.85 1355.11,1012.95 1357.16,1146.24 1359.22,1377.11 1361.27,1152.78 1363.32,1202.78 1365.38,1221.38 1367.43,1229.86 1369.48,1130.92 1371.54,1147.29 1373.59,1199.6 1375.64,1198.06 1377.69,1147.52 1379.75,1158.96 1381.8,1166.38 1383.85,1181.9 1385.91,1186.09 1387.96,1145.55 1390.01,1176.12 1392.06,1166.75 1394.12,1165.73 1396.17,1168.11 1398.22,1124.73 1400.28,1150.66 1402.33,1202.93 1404.38,1156.34 1406.43,1166.15 1408.49,1205.47 1410.54,1200.79 1412.59,1199.09 1414.65,1172.35 1416.7,1167.71 1418.75,1165.89 1420.8,1168.77 1422.86,1117.86 1424.91,1137.12 1426.96,1142.61 1429.02,1187.66 1431.07,1145.36 1433.12,1194.82 1435.17,1175.29 1437.23,1174.85 1439.28,1190.54 1441.33,1163.09 1443.39,1150.35 1445.44,1169.75 1447.49,1175.09 1449.55,1187.11 1451.6,1127.75 1453.65,1212.42 1455.7,1119.26 1457.76,1173.84 1459.81,1232.8 1461.86,1107.82 1463.92,1124.62 1465.97,1137.62 1468.02,1053.49 1470.07,1059.31 1472.13,1266.99 1474.18,1093.63 1476.23,1152.44 1478.29,1148.91 1480.34,1158.49 1482.39,1151.14 1484.44,1158.23 1486.5,1169.54 1488.55,1162.46 1490.6,1054.44 1492.66,1104.79 1494.71,1164.38 1496.76,1172.94 1498.81,1166.57 1500.87,1157.96 1502.92,1215.67 1504.97,1065.45 1507.03,1193.71 1509.08,1212.94 1511.13,1133.48 1513.18,1138.1 1515.24,1336.38 1517.29,1134.39 1519.34,1125.69 1521.4,1178.86 1523.45,1162.92 1525.5,1187.93 1527.55,1196.92 1529.61,1149.27 1531.66,1156.49 1533.71,1165.68 1535.77,992.369 1537.82,1688.95 1539.87,1049.37 1541.93,882.843 1543.98,792.864 1546.03,881.552 1548.08,1842.63 1550.14,1797.58 1552.19,1217.75 1554.24,1159 1556.3,1162.54 1558.35,1154.14 1560.4,1115.11 1562.45,1150.14 1564.51,1146.73 1566.56,1154.97 1568.61,1257.27 1570.67,1139.83 1572.72,1198.53 1574.77,1162.25 1576.82,1150.77 1578.88,1150.26 1580.93,1159.87 1582.98,1196.27 1585.04,1156.61 1587.09,1175.69 1589.14,1140.28 1591.19,1123.6 1593.25,939.914 1595.3,1193.47 1597.35,1132.89 1599.41,1217.57 1601.46,1084.15 1603.51,1154.47 1605.56,1195.18 1607.62,1196.04 1609.67,1129.16 1611.72,1140.9 1613.78,1227.49 1615.83,1204.95 1617.88,1121.02 1619.94,1136.49 1621.99,1426.31 1624.04,894.464 1626.09,951.084 1628.15,1326.65 1630.2,1292.45 1632.25,1161.43 1634.31,1159.95 1636.36,1184.07 1638.41,1168.04 1640.46,1156.95 1642.52,1107.24 1644.57,1213.13 1646.62,1218.35 1648.68,1139.32 1650.73,1184.95 1652.78,1147.62 1654.83,1171.61 1656.89,1180.64 1658.94,1238.59 1660.99,1108.22 1663.05,1528.01 1665.1,1153.41 1667.15,1157.08 1669.2,1168.59 1671.26,1177.51 1673.31,1170.17 1675.36,1169.63 1677.42,1148.63 1679.47,1162.7 1681.52,1169.2 1683.57,1187.93 1685.63,1247.48 1687.68,1244.07 1689.73,1019.19 1691.79,1184.43 1693.84,1152.46 1695.89,1166.48 1697.94,1171.15 1700,1184.77 1702.05,1120.16 1704.1,1174.05 1706.16,1118.73 1708.21,1193.66 1710.26,1085.75 1712.32,1128.57 1714.37,1146.38 1716.42,1206.3 1718.47,1105.85 1720.53,1199.39 1722.58,1212.14 1724.63,1127.84 1726.69,1252.27 1728.74,1244.83 1730.79,1203.71 1732.84,1208.86 1734.9,1230.44 1736.95,1171.2 1739,1101.18 1741.06,1163.35 1743.11,1055.43 1745.16,1104.42 1747.21,876.572 1749.27,1222.21 1751.32,1207.43 1753.37,1202.8 1755.43,1142.51 1757.48,1128.78 1759.53,1058.99 1761.58,1247.93 1763.64,1099.64 1765.69,1002.61 1767.74,1022.12 1769.8,1104.65 1771.85,1229.46 1773.9,1178.25 1775.95,1153.1 1778.01,1206.31 1780.06,1128.39 1782.11,1195.21 1784.17,1076.08 1786.22,1128.96 1788.27,1191.04 1790.33,1195.8 1792.38,1205.26 1794.43,1175.89 1796.48,1193.46 1798.54,1199.15 1800.59,1151.51 1802.64,1164.67 1804.7,1160.32 1806.75,1139.09 1808.8,1165.57 1810.85,1185.1 1812.91,1142.76 1814.96,1176.01 1817.01,1167.52 1819.07,1161.89 1821.12,1167.25 1823.17,1249.7 1825.22,1156.39 1827.28,1211.09 1829.33,1173.65 1831.38,1148.22 1833.44,1149.51 1835.49,1169.28 1837.54,1144.95 1839.59,1160.41 1841.65,1112.84 1843.7,1167.28 1845.75,1149.5 1847.81,1192.6 1849.86,1153.84 1851.91,1170.76 1853.96,1183.31 1856.02,1214.37 1858.07,1176.59 1860.12,1189.68 1862.18,1175.95 1864.23,1140.79 1866.28,1207.29 1868.34,1424.51 1870.39,845.164 1872.44,713.804 1874.49,1844.48 1876.55,1390.04 1878.6,1117.26 1880.65,1036.98 1882.71,822.364 1884.76,1373.38 1886.81,1067.55 1888.86,1220.63 1890.92,1095.2 1892.97,1100.87 1895.02,1230.49 1897.08,1145.03 1899.13,1060.41 1901.18,1233.76 1903.23,1208.42 1905.29,1209.78 1907.34,1006.88 1909.39,1260.11 1911.45,1157.34 1913.5,1082.98 1915.55,1078.89 1917.6,1195.81 1919.66,1187.35 1921.71,1196.85 1923.76,1157.18 1925.82,1188.86 1927.87,1143.58 1929.92,1144.06 1931.97,1211.29 1934.03,1151.96 1936.08,1195.83 1938.13,1138.1 1940.19,1153.96 1942.24,1167.93 1944.29,1170.12 1946.34,1143.49 1948.4,1184.34 1950.45,1147.73 1952.5,1197.77 1954.56,1149.73 1956.61,1162.95 1958.66,1152.41 1960.72,1160.45 1962.77,1182.9 1964.82,1119.27 1966.87,1142.7 1968.93,1164.68 1970.98,1189.51 1973.03,1196.55 1975.09,1231.43 1977.14,1217.39 1979.19,1196.85 1981.24,1143.56 1983.3,1182.34 1985.35,1164.61 1987.4,1162.78 1989.46,1238.27 1991.51,1241.3 1993.56,1155.29 1995.61,1193.59 1997.67,1183.07 1999.72,1185.79 2001.77,1198.87 2003.83,1162.65 2005.88,1155.58 2007.93,1180.56 2009.98,1180.28 2012.04,1148.43 2014.09,1230.49 2016.14,1278.21 2018.2,1203.44 2020.25,1231.21 2022.3,1258.99 2024.35,1210.05 2026.41,1083.39 2028.46,1227.44 2030.51,1174.68 2032.57,1161.69 2034.62,1252.58 2036.67,1134.38 2038.73,1228.09 2040.78,1192.79 2042.83,1399.84 2044.88,496.072 2046.94,1585.94 2048.99,1155.04 2051.04,1238.08 2053.1,1150.32 2055.15,1205.24 2057.2,1061.2 2059.25,1254.3 2061.31,1174.32 2063.36,1176.05 2065.41,1189.13 2067.47,1007.18 2069.52,1174.06 2071.57,1192.98 2073.62,1184.82 2075.68,1158.53 2077.73,1414.15 2079.78,1294.39 2081.84,1194.38 2083.89,1157.65 2085.94,1168.91 2087.99,1178.92 2090.05,1216.42 2092.1,1153.88 2094.15,1229.39 2096.21,1330.67 2098.26,1246.69 2100.31,1040.99 2102.36,1181.35 2104.42,1159.56 2106.47,1146.11 2108.52,1177.17 2110.58,1153.64 2112.63,1175.36 2114.68,1164.48 2116.73,1250.91 2118.79,1161.62 2120.84,1201.49 2122.89,1287.94 2124.95,1286.98 2127,980.283 2129.05,1139.65 2131.11,1162.89 2133.16,1133.61 2135.21,1152.7 2137.26,1141.66 2139.32,1195.27 2141.37,1176.47 2143.42,1157.76 2145.48,1162.08 2147.53,1164.96 2149.58,1159.58 2151.63,1168.29 2153.69,1195.18 2155.74,1123.98 2157.79,1128.71 2159.85,1095.85 2161.9,1105.05 2163.95,1268.28 2166,1195.31 2168.06,1167.74 2170.11,1166.41 2172.16,1141.38 2174.22,1242.01 2176.27,1286.21 2178.32,1161.9 2180.37,1079.39 2182.43,1167.57 2184.48,1165.21 2186.53,1197.95 2188.59,1163.45 2190.64,1159.02 2192.69,1176.59 2194.74,1243.2 2196.8,1233.63 2198.85,1152.45 2200.9,1191.66 2202.96,1208.3 2205.01,1024.23 2207.06,1125.15 2209.12,1135.17 2211.17,1203.51 2213.22,1166.06 2215.27,1160.32 2217.33,1154.53 2219.38,1130.53 2221.43,1170.67 2223.49,1086.98 2225.54,1222.73 2227.59,1235.74 2229.64,1169.56 2231.7,1169.85 2233.75,1195.88 2235.8,1121.79 2237.86,1194.88 2239.91,1125.09 2241.96,1159.96 2244.01,1127.77 2246.07,1040.7 2248.12,1213.55 2250.17,1145.01 2252.23,1176.57 2254.28,1155.85 2256.33,1118.18 2258.38,1302.18 2260.44,1109.96 2262.49,1149.46 2264.54,1194.72 2266.6,1231.01 2268.65,1142.64 2270.7,1190.33 2272.75,1231.65 2274.81,1125.6 2276.86,1213.03 2278.91,1197.96 2280.97,1180.34 2283.02,1124.08 2285.07,1051.91 2287.12,1359.51 2289.18,1110.17 2291.23,1201.15 "/>
<path clip-path="url(#clip070)" d="M1942.7 972.231 L2280.29 972.231 L2280.29 868.551 L1942.7 868.551  Z" fill="#ffffff" fill-rule="evenodd" fill-opacity="1"/>
<polyline clip-path="url(#clip070)" style="stroke:#000000; stroke-linecap:round; stroke-linejoin:round; stroke-width:4; stroke-opacity:1; fill:none" points="1942.7,972.231 2280.29,972.231 2280.29,868.551 1942.7,868.551 1942.7,972.231 "/>
<polyline clip-path="url(#clip070)" style="stroke:#009af9; stroke-linecap:round; stroke-linejoin:round; stroke-width:4; stroke-opacity:1; fill:none" points="1966.85,920.391 2111.78,920.391 "/>
<path clip-path="url(#clip070)" d="M2161.49 932.74 L2161.49 923.458 L2153.85 923.458 L2153.85 919.615 L2166.12 919.615 L2166.12 934.453 Q2163.41 936.375 2160.14 937.37 Q2156.88 938.342 2153.18 938.342 Q2145.07 938.342 2140.49 933.62 Q2135.93 928.875 2135.93 920.426 Q2135.93 911.953 2140.49 907.231 Q2145.07 902.486 2153.18 902.486 Q2156.56 902.486 2159.59 903.319 Q2162.64 904.153 2165.21 905.773 L2165.21 910.75 Q2162.62 908.551 2159.7 907.44 Q2156.79 906.328 2153.57 906.328 Q2147.23 906.328 2144.03 909.87 Q2140.86 913.412 2140.86 920.426 Q2140.86 927.416 2144.03 930.958 Q2147.23 934.5 2153.57 934.5 Q2156.05 934.5 2157.99 934.083 Q2159.94 933.643 2161.49 932.74 Z" fill="#000000" fill-rule="nonzero" fill-opacity="1" /><path clip-path="url(#clip070)" d="M2179.33 906.953 L2179.33 919.94 L2185.21 919.94 Q2188.48 919.94 2190.26 918.25 Q2192.04 916.56 2192.04 913.435 Q2192.04 910.333 2190.26 908.643 Q2188.48 906.953 2185.21 906.953 L2179.33 906.953 M2174.66 903.111 L2185.21 903.111 Q2191.02 903.111 2193.99 905.75 Q2196.97 908.365 2196.97 913.435 Q2196.97 918.551 2193.99 921.166 Q2191.02 923.782 2185.21 923.782 L2179.33 923.782 L2179.33 937.671 L2174.66 937.671 L2174.66 903.111 Z" fill="#000000" fill-rule="nonzero" fill-opacity="1" /><path clip-path="url(#clip070)" d="M2223.96 904.245 L2223.96 908.805 Q2221.3 907.532 2218.94 906.907 Q2216.58 906.282 2214.38 906.282 Q2210.56 906.282 2208.48 907.764 Q2206.42 909.245 2206.42 911.977 Q2206.42 914.268 2207.78 915.449 Q2209.17 916.606 2213.01 917.324 L2215.84 917.902 Q2221.07 918.898 2223.55 921.421 Q2226.05 923.921 2226.05 928.134 Q2226.05 933.157 2222.67 935.75 Q2219.31 938.342 2212.81 938.342 Q2210.35 938.342 2207.57 937.787 Q2204.82 937.231 2201.86 936.143 L2201.86 931.328 Q2204.7 932.926 2207.44 933.736 Q2210.17 934.546 2212.81 934.546 Q2216.81 934.546 2218.99 932.972 Q2221.16 931.398 2221.16 928.481 Q2221.16 925.935 2219.59 924.5 Q2218.04 923.064 2214.47 922.347 L2211.62 921.791 Q2206.39 920.75 2204.06 918.527 Q2201.72 916.305 2201.72 912.347 Q2201.72 907.764 2204.94 905.125 Q2208.18 902.486 2213.85 902.486 Q2216.28 902.486 2218.8 902.926 Q2221.32 903.366 2223.96 904.245 Z" fill="#000000" fill-rule="nonzero" fill-opacity="1" /><path clip-path="url(#clip070)" d="M2254.06 904.245 L2254.06 908.805 Q2251.39 907.532 2249.03 906.907 Q2246.67 906.282 2244.47 906.282 Q2240.65 906.282 2238.57 907.764 Q2236.51 909.245 2236.51 911.977 Q2236.51 914.268 2237.87 915.449 Q2239.26 916.606 2243.11 917.324 L2245.93 917.902 Q2251.16 918.898 2253.64 921.421 Q2256.14 923.921 2256.14 928.134 Q2256.14 933.157 2252.76 935.75 Q2249.4 938.342 2242.9 938.342 Q2240.44 938.342 2237.67 937.787 Q2234.91 937.231 2231.95 936.143 L2231.95 931.328 Q2234.8 932.926 2237.53 933.736 Q2240.26 934.546 2242.9 934.546 Q2246.9 934.546 2249.08 932.972 Q2251.25 931.398 2251.25 928.481 Q2251.25 925.935 2249.68 924.5 Q2248.13 923.064 2244.56 922.347 L2241.72 921.791 Q2236.49 920.75 2234.15 918.527 Q2231.81 916.305 2231.81 912.347 Q2231.81 907.764 2235.03 905.125 Q2238.27 902.486 2243.94 902.486 Q2246.37 902.486 2248.89 902.926 Q2251.42 903.366 2254.06 904.245 Z" fill="#000000" fill-rule="nonzero" fill-opacity="1" /></svg>
