<?xml version="1.0" encoding="utf-8"?>
<svg xmlns="http://www.w3.org/2000/svg" xmlns:xlink="http://www.w3.org/1999/xlink" width="600" height="400" viewBox="0 0 2400 1600">
<defs>
  <clipPath id="clip040">
    <rect x="0" y="0" width="2400" height="1600"/>
  </clipPath>
</defs>
<path clip-path="url(#clip040)" d="M0 1600 L2400 1600 L2400 0 L0 0  Z" fill="#ffffff" fill-rule="evenodd" fill-opacity="1"/>
<defs>
  <clipPath id="clip041">
    <rect x="480" y="0" width="1681" height="1600"/>
  </clipPath>
</defs>
<path clip-path="url(#clip040)" d="M178.867 686.448 L2352.76 686.448 L2352.76 47.2441 L178.867 47.2441  Z" fill="#ffffff" fill-rule="evenodd" fill-opacity="1"/>
<defs>
  <clipPath id="clip042">
    <rect x="178" y="47" width="2175" height="640"/>
  </clipPath>
</defs>
<polyline clip-path="url(#clip042)" style="stroke:#000000; stroke-linecap:round; stroke-linejoin:round; stroke-width:2; stroke-opacity:0.1; fill:none" points="238.339,686.448 238.339,47.2441 "/>
<polyline clip-path="url(#clip042)" style="stroke:#000000; stroke-linecap:round; stroke-linejoin:round; stroke-width:2; stroke-opacity:0.1; fill:none" points="751.562,686.448 751.562,47.2441 "/>
<polyline clip-path="url(#clip042)" style="stroke:#000000; stroke-linecap:round; stroke-linejoin:round; stroke-width:2; stroke-opacity:0.1; fill:none" points="1264.78,686.448 1264.78,47.2441 "/>
<polyline clip-path="url(#clip042)" style="stroke:#000000; stroke-linecap:round; stroke-linejoin:round; stroke-width:2; stroke-opacity:0.1; fill:none" points="1778.01,686.448 1778.01,47.2441 "/>
<polyline clip-path="url(#clip042)" style="stroke:#000000; stroke-linecap:round; stroke-linejoin:round; stroke-width:2; stroke-opacity:0.1; fill:none" points="2291.23,686.448 2291.23,47.2441 "/>
<polyline clip-path="url(#clip042)" style="stroke:#000000; stroke-linecap:round; stroke-linejoin:round; stroke-width:2; stroke-opacity:0.1; fill:none" points="178.867,686.448 2352.76,686.448 "/>
<polyline clip-path="url(#clip042)" style="stroke:#000000; stroke-linecap:round; stroke-linejoin:round; stroke-width:2; stroke-opacity:0.1; fill:none" points="178.867,526.647 2352.76,526.647 "/>
<polyline clip-path="url(#clip042)" style="stroke:#000000; stroke-linecap:round; stroke-linejoin:round; stroke-width:2; stroke-opacity:0.1; fill:none" points="178.867,366.846 2352.76,366.846 "/>
<polyline clip-path="url(#clip042)" style="stroke:#000000; stroke-linecap:round; stroke-linejoin:round; stroke-width:2; stroke-opacity:0.1; fill:none" points="178.867,207.045 2352.76,207.045 "/>
<polyline clip-path="url(#clip042)" style="stroke:#000000; stroke-linecap:round; stroke-linejoin:round; stroke-width:2; stroke-opacity:0.1; fill:none" points="178.867,47.2441 2352.76,47.2441 "/>
<polyline clip-path="url(#clip040)" style="stroke:#000000; stroke-linecap:round; stroke-linejoin:round; stroke-width:4; stroke-opacity:1; fill:none" points="178.867,686.448 2352.76,686.448 "/>
<polyline clip-path="url(#clip040)" style="stroke:#000000; stroke-linecap:round; stroke-linejoin:round; stroke-width:4; stroke-opacity:1; fill:none" points="238.339,686.448 238.339,667.55 "/>
<polyline clip-path="url(#clip040)" style="stroke:#000000; stroke-linecap:round; stroke-linejoin:round; stroke-width:4; stroke-opacity:1; fill:none" points="751.562,686.448 751.562,667.55 "/>
<polyline clip-path="url(#clip040)" style="stroke:#000000; stroke-linecap:round; stroke-linejoin:round; stroke-width:4; stroke-opacity:1; fill:none" points="1264.78,686.448 1264.78,667.55 "/>
<polyline clip-path="url(#clip040)" style="stroke:#000000; stroke-linecap:round; stroke-linejoin:round; stroke-width:4; stroke-opacity:1; fill:none" points="1778.01,686.448 1778.01,667.55 "/>
<polyline clip-path="url(#clip040)" style="stroke:#000000; stroke-linecap:round; stroke-linejoin:round; stroke-width:4; stroke-opacity:1; fill:none" points="2291.23,686.448 2291.23,667.55 "/>
<path clip-path="url(#clip040)" d="M238.339 717.367 Q234.728 717.367 232.899 720.931 Q231.094 724.473 231.094 731.603 Q231.094 738.709 232.899 742.274 Q234.728 745.815 238.339 745.815 Q241.973 745.815 243.779 742.274 Q245.607 738.709 245.607 731.603 Q245.607 724.473 243.779 720.931 Q241.973 717.367 238.339 717.367 M238.339 713.663 Q244.149 713.663 247.205 718.269 Q250.283 722.853 250.283 731.603 Q250.283 740.329 247.205 744.936 Q244.149 749.519 238.339 749.519 Q232.529 749.519 229.45 744.936 Q226.395 740.329 226.395 731.603 Q226.395 722.853 229.45 718.269 Q232.529 713.663 238.339 713.663 Z" fill="#000000" fill-rule="nonzero" fill-opacity="1" /><path clip-path="url(#clip040)" d="M715.254 744.913 L731.574 744.913 L731.574 748.848 L709.629 748.848 L709.629 744.913 Q712.291 742.158 716.875 737.528 Q721.481 732.876 722.662 731.533 Q724.907 729.01 725.787 727.274 Q726.689 725.515 726.689 723.825 Q726.689 721.07 724.745 719.334 Q722.824 717.598 719.722 717.598 Q717.523 717.598 715.069 718.362 Q712.638 719.126 709.861 720.677 L709.861 715.955 Q712.685 714.82 715.138 714.242 Q717.592 713.663 719.629 713.663 Q725 713.663 728.194 716.348 Q731.388 719.033 731.388 723.524 Q731.388 725.654 730.578 727.575 Q729.791 729.473 727.685 732.066 Q727.106 732.737 724.004 735.954 Q720.902 739.149 715.254 744.913 Z" fill="#000000" fill-rule="nonzero" fill-opacity="1" /><path clip-path="url(#clip040)" d="M741.435 714.288 L759.791 714.288 L759.791 718.223 L745.717 718.223 L745.717 726.695 Q746.736 726.348 747.754 726.186 Q748.773 726.001 749.791 726.001 Q755.578 726.001 758.958 729.172 Q762.337 732.343 762.337 737.76 Q762.337 743.339 758.865 746.44 Q755.393 749.519 749.073 749.519 Q746.898 749.519 744.629 749.149 Q742.384 748.778 739.976 748.038 L739.976 743.339 Q742.06 744.473 744.282 745.028 Q746.504 745.584 748.981 745.584 Q752.985 745.584 755.323 743.478 Q757.661 741.371 757.661 737.76 Q757.661 734.149 755.323 732.042 Q752.985 729.936 748.981 729.936 Q747.106 729.936 745.231 730.353 Q743.379 730.769 741.435 731.649 L741.435 714.288 Z" fill="#000000" fill-rule="nonzero" fill-opacity="1" /><path clip-path="url(#clip040)" d="M781.55 717.367 Q777.939 717.367 776.11 720.931 Q774.305 724.473 774.305 731.603 Q774.305 738.709 776.11 742.274 Q777.939 745.815 781.55 745.815 Q785.184 745.815 786.99 742.274 Q788.819 738.709 788.819 731.603 Q788.819 724.473 786.99 720.931 Q785.184 717.367 781.55 717.367 M781.55 713.663 Q787.36 713.663 790.416 718.269 Q793.495 722.853 793.495 731.603 Q793.495 740.329 790.416 744.936 Q787.36 749.519 781.55 749.519 Q775.74 749.519 772.661 744.936 Q769.606 740.329 769.606 731.603 Q769.606 722.853 772.661 718.269 Q775.74 713.663 781.55 713.663 Z" fill="#000000" fill-rule="nonzero" fill-opacity="1" /><path clip-path="url(#clip040)" d="M1224.4 714.288 L1242.76 714.288 L1242.76 718.223 L1228.69 718.223 L1228.69 726.695 Q1229.7 726.348 1230.72 726.186 Q1231.74 726.001 1232.76 726.001 Q1238.55 726.001 1241.93 729.172 Q1245.31 732.343 1245.31 737.76 Q1245.31 743.339 1241.83 746.44 Q1238.36 749.519 1232.04 749.519 Q1229.87 749.519 1227.6 749.149 Q1225.35 748.778 1222.94 748.038 L1222.94 743.339 Q1225.03 744.473 1227.25 745.028 Q1229.47 745.584 1231.95 745.584 Q1235.95 745.584 1238.29 743.478 Q1240.63 741.371 1240.63 737.76 Q1240.63 734.149 1238.29 732.042 Q1235.95 729.936 1231.95 729.936 Q1230.07 729.936 1228.2 730.353 Q1226.35 730.769 1224.4 731.649 L1224.4 714.288 Z" fill="#000000" fill-rule="nonzero" fill-opacity="1" /><path clip-path="url(#clip040)" d="M1264.52 717.367 Q1260.91 717.367 1259.08 720.931 Q1257.27 724.473 1257.27 731.603 Q1257.27 738.709 1259.08 742.274 Q1260.91 745.815 1264.52 745.815 Q1268.15 745.815 1269.96 742.274 Q1271.79 738.709 1271.79 731.603 Q1271.79 724.473 1269.96 720.931 Q1268.15 717.367 1264.52 717.367 M1264.52 713.663 Q1270.33 713.663 1273.38 718.269 Q1276.46 722.853 1276.46 731.603 Q1276.46 740.329 1273.38 744.936 Q1270.33 749.519 1264.52 749.519 Q1258.71 749.519 1255.63 744.936 Q1252.57 740.329 1252.57 731.603 Q1252.57 722.853 1255.63 718.269 Q1258.71 713.663 1264.52 713.663 Z" fill="#000000" fill-rule="nonzero" fill-opacity="1" /><path clip-path="url(#clip040)" d="M1294.68 717.367 Q1291.07 717.367 1289.24 720.931 Q1287.44 724.473 1287.44 731.603 Q1287.44 738.709 1289.24 742.274 Q1291.07 745.815 1294.68 745.815 Q1298.31 745.815 1300.12 742.274 Q1301.95 738.709 1301.95 731.603 Q1301.95 724.473 1300.12 720.931 Q1298.31 717.367 1294.68 717.367 M1294.68 713.663 Q1300.49 713.663 1303.55 718.269 Q1306.62 722.853 1306.62 731.603 Q1306.62 740.329 1303.55 744.936 Q1300.49 749.519 1294.68 749.519 Q1288.87 749.519 1285.79 744.936 Q1282.74 740.329 1282.74 731.603 Q1282.74 722.853 1285.79 718.269 Q1288.87 713.663 1294.68 713.663 Z" fill="#000000" fill-rule="nonzero" fill-opacity="1" /><path clip-path="url(#clip040)" d="M1736.28 714.288 L1758.51 714.288 L1758.51 716.279 L1745.96 748.848 L1741.08 748.848 L1752.88 718.223 L1736.28 718.223 L1736.28 714.288 Z" fill="#000000" fill-rule="nonzero" fill-opacity="1" /><path clip-path="url(#clip040)" d="M1767.67 714.288 L1786.03 714.288 L1786.03 718.223 L1771.95 718.223 L1771.95 726.695 Q1772.97 726.348 1773.99 726.186 Q1775.01 726.001 1776.03 726.001 Q1781.82 726.001 1785.2 729.172 Q1788.57 732.343 1788.57 737.76 Q1788.57 743.339 1785.1 746.44 Q1781.63 749.519 1775.31 749.519 Q1773.14 749.519 1770.87 749.149 Q1768.62 748.778 1766.21 748.038 L1766.21 743.339 Q1768.3 744.473 1770.52 745.028 Q1772.74 745.584 1775.22 745.584 Q1779.22 745.584 1781.56 743.478 Q1783.9 741.371 1783.9 737.76 Q1783.9 734.149 1781.56 732.042 Q1779.22 729.936 1775.22 729.936 Q1773.34 729.936 1771.47 730.353 Q1769.62 730.769 1767.67 731.649 L1767.67 714.288 Z" fill="#000000" fill-rule="nonzero" fill-opacity="1" /><path clip-path="url(#clip040)" d="M1807.79 717.367 Q1804.18 717.367 1802.35 720.931 Q1800.54 724.473 1800.54 731.603 Q1800.54 738.709 1802.35 742.274 Q1804.18 745.815 1807.79 745.815 Q1811.42 745.815 1813.23 742.274 Q1815.06 738.709 1815.06 731.603 Q1815.06 724.473 1813.23 720.931 Q1811.42 717.367 1807.79 717.367 M1807.79 713.663 Q1813.6 713.663 1816.65 718.269 Q1819.73 722.853 1819.73 731.603 Q1819.73 740.329 1816.65 744.936 Q1813.6 749.519 1807.79 749.519 Q1801.98 749.519 1798.9 744.936 Q1795.84 740.329 1795.84 731.603 Q1795.84 722.853 1798.9 718.269 Q1801.98 713.663 1807.79 713.663 Z" fill="#000000" fill-rule="nonzero" fill-opacity="1" /><path clip-path="url(#clip040)" d="M2235.76 744.913 L2243.4 744.913 L2243.4 718.547 L2235.09 720.214 L2235.09 715.955 L2243.35 714.288 L2248.02 714.288 L2248.02 744.913 L2255.66 744.913 L2255.66 748.848 L2235.76 748.848 L2235.76 744.913 Z" fill="#000000" fill-rule="nonzero" fill-opacity="1" /><path clip-path="url(#clip040)" d="M2275.11 717.367 Q2271.5 717.367 2269.67 720.931 Q2267.86 724.473 2267.86 731.603 Q2267.86 738.709 2269.67 742.274 Q2271.5 745.815 2275.11 745.815 Q2278.74 745.815 2280.55 742.274 Q2282.38 738.709 2282.38 731.603 Q2282.38 724.473 2280.55 720.931 Q2278.74 717.367 2275.11 717.367 M2275.11 713.663 Q2280.92 713.663 2283.97 718.269 Q2287.05 722.853 2287.05 731.603 Q2287.05 740.329 2283.97 744.936 Q2280.92 749.519 2275.11 749.519 Q2269.3 749.519 2266.22 744.936 Q2263.16 740.329 2263.16 731.603 Q2263.16 722.853 2266.22 718.269 Q2269.3 713.663 2275.11 713.663 Z" fill="#000000" fill-rule="nonzero" fill-opacity="1" /><path clip-path="url(#clip040)" d="M2305.27 717.367 Q2301.66 717.367 2299.83 720.931 Q2298.02 724.473 2298.02 731.603 Q2298.02 738.709 2299.83 742.274 Q2301.66 745.815 2305.27 745.815 Q2308.9 745.815 2310.71 742.274 Q2312.54 738.709 2312.54 731.603 Q2312.54 724.473 2310.71 720.931 Q2308.9 717.367 2305.27 717.367 M2305.27 713.663 Q2311.08 713.663 2314.14 718.269 Q2317.21 722.853 2317.21 731.603 Q2317.21 740.329 2314.14 744.936 Q2311.08 749.519 2305.27 749.519 Q2299.46 749.519 2296.38 744.936 Q2293.33 740.329 2293.33 731.603 Q2293.33 722.853 2296.38 718.269 Q2299.46 713.663 2305.27 713.663 Z" fill="#000000" fill-rule="nonzero" fill-opacity="1" /><path clip-path="url(#clip040)" d="M2335.43 717.367 Q2331.82 717.367 2329.99 720.931 Q2328.19 724.473 2328.19 731.603 Q2328.19 738.709 2329.99 742.274 Q2331.82 745.815 2335.43 745.815 Q2339.07 745.815 2340.87 742.274 Q2342.7 738.709 2342.7 731.603 Q2342.7 724.473 2340.87 720.931 Q2339.07 717.367 2335.43 717.367 M2335.43 713.663 Q2341.24 713.663 2344.3 718.269 Q2347.38 722.853 2347.38 731.603 Q2347.38 740.329 2344.3 744.936 Q2341.24 749.519 2335.43 749.519 Q2329.62 749.519 2326.54 744.936 Q2323.49 740.329 2323.49 731.603 Q2323.49 722.853 2326.54 718.269 Q2329.62 713.663 2335.43 713.663 Z" fill="#000000" fill-rule="nonzero" fill-opacity="1" /><polyline clip-path="url(#clip040)" style="stroke:#000000; stroke-linecap:round; stroke-linejoin:round; stroke-width:4; stroke-opacity:1; fill:none" points="178.867,686.448 178.867,47.2441 "/>
<polyline clip-path="url(#clip040)" style="stroke:#000000; stroke-linecap:round; stroke-linejoin:round; stroke-width:4; stroke-opacity:1; fill:none" points="178.867,686.448 197.764,686.448 "/>
<polyline clip-path="url(#clip040)" style="stroke:#000000; stroke-linecap:round; stroke-linejoin:round; stroke-width:4; stroke-opacity:1; fill:none" points="178.867,526.647 197.764,526.647 "/>
<polyline clip-path="url(#clip040)" style="stroke:#000000; stroke-linecap:round; stroke-linejoin:round; stroke-width:4; stroke-opacity:1; fill:none" points="178.867,366.846 197.764,366.846 "/>
<polyline clip-path="url(#clip040)" style="stroke:#000000; stroke-linecap:round; stroke-linejoin:round; stroke-width:4; stroke-opacity:1; fill:none" points="178.867,207.045 197.764,207.045 "/>
<polyline clip-path="url(#clip040)" style="stroke:#000000; stroke-linecap:round; stroke-linejoin:round; stroke-width:4; stroke-opacity:1; fill:none" points="178.867,47.2441 197.764,47.2441 "/>
<path clip-path="url(#clip040)" d="M50.9921 686.899 L80.6679 686.899 L80.6679 690.834 L50.9921 690.834 L50.9921 686.899 Z" fill="#000000" fill-rule="nonzero" fill-opacity="1" /><path clip-path="url(#clip040)" d="M91.5706 699.793 L99.2095 699.793 L99.2095 673.427 L90.8993 675.094 L90.8993 670.835 L99.1632 669.168 L103.839 669.168 L103.839 699.793 L111.478 699.793 L111.478 703.728 L91.5706 703.728 L91.5706 699.793 Z" fill="#000000" fill-rule="nonzero" fill-opacity="1" /><path clip-path="url(#clip040)" d="M130.922 672.247 Q127.311 672.247 125.482 675.811 Q123.677 679.353 123.677 686.483 Q123.677 693.589 125.482 697.154 Q127.311 700.695 130.922 700.695 Q134.556 700.695 136.362 697.154 Q138.191 693.589 138.191 686.483 Q138.191 679.353 136.362 675.811 Q134.556 672.247 130.922 672.247 M130.922 668.543 Q136.732 668.543 139.788 673.149 Q142.867 677.733 142.867 686.483 Q142.867 695.209 139.788 699.816 Q136.732 704.399 130.922 704.399 Q125.112 704.399 122.033 699.816 Q118.978 695.209 118.978 686.483 Q118.978 677.733 122.033 673.149 Q125.112 668.543 130.922 668.543 Z" fill="#000000" fill-rule="nonzero" fill-opacity="1" /><path clip-path="url(#clip040)" d="M82.1494 527.098 L111.825 527.098 L111.825 531.033 L82.1494 531.033 L82.1494 527.098 Z" fill="#000000" fill-rule="nonzero" fill-opacity="1" /><path clip-path="url(#clip040)" d="M121.964 509.367 L140.32 509.367 L140.32 513.302 L126.246 513.302 L126.246 521.774 Q127.265 521.427 128.283 521.265 Q129.302 521.08 130.32 521.08 Q136.107 521.08 139.487 524.251 Q142.867 527.422 142.867 532.839 Q142.867 538.418 139.394 541.52 Q135.922 544.598 129.603 544.598 Q127.427 544.598 125.158 544.228 Q122.913 543.857 120.506 543.117 L120.506 538.418 Q122.589 539.552 124.811 540.108 Q127.033 540.663 129.51 540.663 Q133.515 540.663 135.853 538.557 Q138.191 536.45 138.191 532.839 Q138.191 529.228 135.853 527.121 Q133.515 525.015 129.51 525.015 Q127.635 525.015 125.76 525.432 Q123.908 525.848 121.964 526.728 L121.964 509.367 Z" fill="#000000" fill-rule="nonzero" fill-opacity="1" /><path clip-path="url(#clip040)" d="M130.922 352.645 Q127.311 352.645 125.482 356.209 Q123.677 359.751 123.677 366.881 Q123.677 373.987 125.482 377.552 Q127.311 381.094 130.922 381.094 Q134.556 381.094 136.362 377.552 Q138.191 373.987 138.191 366.881 Q138.191 359.751 136.362 356.209 Q134.556 352.645 130.922 352.645 M130.922 348.941 Q136.732 348.941 139.788 353.547 Q142.867 358.131 142.867 366.881 Q142.867 375.608 139.788 380.214 Q136.732 384.797 130.922 384.797 Q125.112 384.797 122.033 380.214 Q118.978 375.608 118.978 366.881 Q118.978 358.131 122.033 353.547 Q125.112 348.941 130.922 348.941 Z" fill="#000000" fill-rule="nonzero" fill-opacity="1" /><path clip-path="url(#clip040)" d="M121.964 189.765 L140.32 189.765 L140.32 193.7 L126.246 193.7 L126.246 202.172 Q127.265 201.825 128.283 201.663 Q129.302 201.478 130.32 201.478 Q136.107 201.478 139.487 204.649 Q142.867 207.82 142.867 213.237 Q142.867 218.816 139.394 221.918 Q135.922 224.996 129.603 224.996 Q127.427 224.996 125.158 224.626 Q122.913 224.256 120.506 223.515 L120.506 218.816 Q122.589 219.95 124.811 220.506 Q127.033 221.061 129.51 221.061 Q133.515 221.061 135.853 218.955 Q138.191 216.848 138.191 213.237 Q138.191 209.626 135.853 207.52 Q133.515 205.413 129.51 205.413 Q127.635 205.413 125.76 205.83 Q123.908 206.246 121.964 207.126 L121.964 189.765 Z" fill="#000000" fill-rule="nonzero" fill-opacity="1" /><path clip-path="url(#clip040)" d="M91.5706 60.5889 L99.2095 60.5889 L99.2095 34.2233 L90.8993 35.89 L90.8993 31.6308 L99.1632 29.9641 L103.839 29.9641 L103.839 60.5889 L111.478 60.5889 L111.478 64.5241 L91.5706 64.5241 L91.5706 60.5889 Z" fill="#000000" fill-rule="nonzero" fill-opacity="1" /><path clip-path="url(#clip040)" d="M130.922 33.0428 Q127.311 33.0428 125.482 36.6076 Q123.677 40.1492 123.677 47.2788 Q123.677 54.3853 125.482 57.9501 Q127.311 61.4917 130.922 61.4917 Q134.556 61.4917 136.362 57.9501 Q138.191 54.3853 138.191 47.2788 Q138.191 40.1492 136.362 36.6076 Q134.556 33.0428 130.922 33.0428 M130.922 29.3391 Q136.732 29.3391 139.788 33.9456 Q142.867 38.5289 142.867 47.2788 Q142.867 56.0056 139.788 60.6121 Q136.732 65.1954 130.922 65.1954 Q125.112 65.1954 122.033 60.6121 Q118.978 56.0056 118.978 47.2788 Q118.978 38.5289 122.033 33.9456 Q125.112 29.3391 130.922 29.3391 Z" fill="#000000" fill-rule="nonzero" fill-opacity="1" /><polyline clip-path="url(#clip042)" style="stroke:#009af9; stroke-linecap:round; stroke-linejoin:round; stroke-width:4; stroke-opacity:1; fill:none" points="240.392,334.886 242.445,326.424 244.498,327.001 246.55,328.193 248.603,328.607 250.656,328.595 252.709,328.943 254.762,331.567 256.815,330.286 258.868,330.296 260.921,371.226 262.974,352.719 265.027,352.96 267.079,384.085 269.132,385.714 271.185,397.123 273.238,391.208 275.291,455.227 277.344,434.454 279.397,422.259 281.45,423.011 283.503,420.752 285.555,431.502 287.608,434.924 289.661,435.047 291.714,427.107 293.767,341.225 295.82,321.892 297.873,321.553 299.926,315.723 301.979,336.583 304.031,334.604 306.084,332.681 308.137,312.675 310.19,307.768 312.243,298.431 314.296,299.75 316.349,269.219 318.402,268.831 320.455,266.087 322.507,277.408 324.56,265.937 326.613,322.481 328.666,322.614 330.719,323.43 332.772,301.363 334.825,306.639 336.878,316.988 338.931,324.886 340.984,378.402 343.036,378.51 345.089,372.375 347.142,371.401 349.195,371.034 351.248,371.266 353.301,369.763 355.354,395.233 357.407,395.255 359.46,393.241 361.512,394.608 363.565,405.468 365.618,380.8 367.671,374.319 369.724,358.695 371.777,355.344 373.83,357.251 375.883,355.509 377.936,332.947 379.988,313.9 382.041,316.722 384.094,316 386.147,316.815 388.2,316.987 390.253,306.086 392.306,294.768 394.359,297.345 396.412,295.165 398.464,301.432 400.517,302.523 402.57,297.167 404.623,290.329 406.676,287.695 408.729,160.505 410.782,78.9428 412.835,102.405 414.888,164.986 416.94,272.966 418.993,279.555 421.046,451.943 423.099,438.639 425.152,442.797 427.205,440.022 429.258,445.99 431.311,376.487 433.364,326.456 435.417,343.212 437.469,359.979 439.522,319.444 441.575,321.39 443.628,325.824 445.681,337.545 447.734,342.175 449.787,375.758 451.84,363.063 453.893,364.166 455.945,382.171 457.998,362.071 460.051,363.156 462.104,352.101 464.157,306.918 466.21,312.556 468.263,307.549 470.316,386.952 472.369,367.194 474.421,332.977 476.474,330.524 478.527,330.484 480.58,330.51 482.633,333.181 484.686,426.079 486.739,409.114 488.792,409.333 490.845,409.053 492.897,436.489 494.95,464.016 497.003,462.844 499.056,466.763 501.109,323.94 503.162,323.862 505.215,324.273 507.268,371.773 509.321,373.065 511.374,373.688 513.426,373.816 515.479,357.447 517.532,355.714 519.585,335.561 521.638,336.659 523.691,285.818 525.744,236.414 527.797,290.229 529.85,250.965 531.902,214.686 533.955,211.521 536.008,240.4 538.061,231.282 540.114,201.268 542.167,200.635 544.22,201.039 546.273,251.113 548.326,214.028 550.378,214.76 552.431,225.377 554.484,216.168 556.537,207.551 558.59,205.054 560.643,207.412 562.696,353.652 564.749,344.934 566.802,302.285 568.854,278.297 570.907,275.436 572.96,238.016 575.013,253.777 577.066,267.856 579.119,235.627 581.172,235.845 583.225,286.107 585.278,294.742 587.331,269.891 589.383,248.965 591.436,278.654 593.489,345.543 595.542,304.423 597.595,295.032 599.648,306.661 601.701,316.091 603.754,322.588 605.807,318.006 607.859,320.082 609.912,318.418 611.965,308.686 614.018,324.437 616.071,319.16 618.124,330.472 620.177,325.309 622.23,312.528 624.283,437.53 626.335,456.076 628.388,549.236 630.441,453.979 632.494,426.466 634.547,440.975 636.6,418.202 638.653,451.792 640.706,452.207 642.759,341.409 644.811,308.608 646.864,281.39 648.917,274.023 650.97,352.966 653.023,358.757 655.076,402.145 657.129,503.923 659.182,528.787 661.235,543.446 663.288,452.874 665.34,420.536 667.393,319.256 669.446,392.18 671.499,202.234 673.552,303.229 675.605,426.716 677.658,431.965 679.711,401.398 681.764,400.1 683.816,264.79 685.869,256.678 687.922,32.3393 689.975,50.1001 692.028,32.8542 694.081,38.6184 696.134,32.7714 698.187,-70.5372 700.24,-28.0692 702.292,-132.466 704.345,-65.3256 706.398,-12.0105 708.451,109.397 710.504,117.118 712.557,116.631 714.61,62.269 716.663,80.8015 718.716,257.794 720.768,255.928 722.821,302.269 724.874,242.92 726.927,204.915 728.98,180.04 731.033,181.909 733.086,189.304 735.139,182.832 737.192,174.415 739.245,376.724 741.297,335.944 743.35,311.555 745.403,309.646 747.456,500.615 749.509,290.431 751.562,252.566 753.615,247.916 755.668,248.949 757.721,238.996 759.773,370.649 761.826,372.002 763.879,373.05 765.932,386.125 767.985,433.869 770.038,390.669 772.091,-102.521 774.144,-4.21321 776.197,16.9137 778.249,53.1087 780.302,78.8846 782.355,243.871 784.408,223.322 786.461,203.016 788.514,324.643 790.567,462.704 792.62,428.567 794.673,428.639 796.725,409.491 798.778,38.0719 800.831,165.191 802.884,205.214 804.937,206.867 806.99,242.72 809.043,268.001 811.096,327.458 813.149,511.66 815.202,557.429 817.254,565.987 819.307,432.438 821.36,240.809 823.413,120.653 825.466,385.207 827.519,342.613 829.572,337.061 831.625,488.77 833.678,488.984 835.73,496.432 837.783,498.322 839.836,384.369 841.889,383.732 843.942,453.764 845.995,439.304 848.048,254.941 850.101,248.5 852.154,246.948 854.206,349.349 856.259,344.137 858.312,471.568 860.365,491.447 862.418,491.197 864.471,490.594 866.524,544.192 868.577,569.423 870.63,638.234 872.682,632.773 874.735,628.289 876.788,502.353 878.841,510.212 880.894,440.661 882.947,488.075 885,490.061 887.053,472.965 889.106,474.35 891.159,345.003 893.211,349.365 895.264,333.586 897.317,327.923 899.37,326.964 901.423,327.486 903.476,339.085 905.529,325.112 907.582,325.814 909.635,290.428 911.687,287.673 913.74,306.594 915.793,303.514 917.846,333.42 919.899,340.101 921.952,363.499 924.005,362.62 926.058,349.511 928.111,346.247 930.163,357.623 932.216,356.815 934.269,356.54 936.322,424.315 938.375,424.793 940.428,418.549 942.481,422.963 944.534,418.7 946.587,440.998 948.639,412.42 950.692,421.235 952.745,421.077 954.798,411.876 956.851,248.223 958.904,244.658 960.957,243.368 963.01,244.402 965.063,245.869 967.116,245.844 969.168,252.607 971.221,245.871 973.274,255.004 975.327,243.176 977.38,245.283 979.433,243.326 981.486,248.868 983.539,252.561 985.592,264.374 987.644,315.14 989.697,313.905 991.75,314.768 993.803,346.818 995.856,359.935 997.909,362.406 999.962,401.84 1002.01,401.428 1004.07,401.355 1006.12,389.48 1008.17,387.394 1010.23,404.919 1012.28,405.23 1014.33,409.461 1016.38,414.597 1018.44,414.629 1020.49,414.634 1022.54,416.157 1024.6,443.041 1026.65,429.477 1028.7,429.758 1030.76,373.574 1032.81,368.393 1034.86,338.978 1036.91,339.201 1038.97,341.082 1041.02,340.068 1043.07,289.718 1045.13,270.151 1047.18,263.15 1049.23,375.537 1051.28,425.04 1053.34,395.486 1055.39,396.434 1057.44,396.971 1059.5,390.01 1061.55,393.097 1063.6,403.333 1065.65,406.626 1067.71,401.009 1069.76,407.397 1071.81,407.194 1073.87,411.649 1075.92,420.78 1077.97,468.591 1080.02,452.372 1082.08,450.067 1084.13,461.882 1086.18,468.984 1088.24,422.292 1090.29,436.504 1092.34,436.673 1094.39,438.183 1096.45,463.084 1098.5,464.497 1100.55,434.661 1102.61,354.045 1104.66,316.385 1106.71,310.933 1108.77,312.101 1110.82,306.165 1112.87,324.691 1114.92,337.666 1116.98,337.702 1119.03,336.967 1121.08,340.094 1123.14,343.132 1125.19,345.499 1127.24,392.92 1129.29,392.924 1131.35,374.727 1133.4,376.895 1135.45,372.458 1137.51,368.164 1139.56,327.156 1141.61,277.026 1143.66,266.723 1145.72,458.504 1147.77,431.629 1149.82,434.646 1151.88,541.681 1153.93,537.603 1155.98,538.059 1158.03,539.79 1160.09,434.738 1162.14,432.473 1164.19,417.103 1166.25,416.611 1168.3,417.768 1170.35,417.554 1172.4,436.581 1174.46,441.158 1176.51,408.685 1178.56,405.704 1180.62,398.81 1182.67,407.984 1184.72,407.234 1186.77,413.029 1188.83,467.793 1190.88,475.656 1192.93,448.593 1194.99,448.75 1197.04,411.887 1199.09,404.557 1201.15,396.864 1203.2,388.693 1205.25,388.714 1207.3,390.28 1209.36,369.098 1211.41,336.672 1213.46,338.119 1215.52,343.025 1217.57,319.042 1219.62,318.814 1221.67,331.233 1223.73,346.798 1225.78,311.201 1227.83,310.581 1229.89,338.762 1231.94,342.088 1233.99,335.27 1236.04,335.662 1238.1,330.73 1240.15,330.823 1242.2,330.279 1244.26,330.109 1246.31,329.777 1248.36,331.788 1250.41,331.495 1252.47,331.4 1254.52,336.423 1256.57,339.224 1258.63,338.936 1260.68,378.421 1262.73,350.369 1264.78,350.217 1266.84,349.854 1268.89,349.634 1270.94,349.656 1273,360.878 1275.05,338.651 1277.1,341.864 1279.16,358.045 1281.21,364.242 1283.26,367.449 1285.31,364.675 1287.37,364.698 1289.42,361.846 1291.47,367.686 1293.53,359.626 1295.58,358.374 1297.63,355.144 1299.68,355.081 1301.74,360.99 1303.79,373.467 1305.84,374.421 1307.9,370.948 1309.95,372.036 1312,370.145 1314.05,369.378 1316.11,370.663 1318.16,377.61 1320.21,377.847 1322.27,378.593 1324.32,378.58 1326.37,359.637 1328.42,359.344 1330.48,359.292 1332.53,359.3 1334.58,357.914 1336.64,358.179 1338.69,358.189 1340.74,369.441 1342.79,358.762 1344.85,372.412 1346.9,372.061 1348.95,372.067 1351.01,369.456 1353.06,369.447 1355.11,369.411 1357.16,369.422 1359.22,371.857 1361.27,372.054 1363.32,376.825 1365.38,375.58 1367.43,375.183 1369.48,374.234 1371.54,373.147 1373.59,374.149 1375.64,374.261 1377.69,373.304 1379.75,365.769 1381.8,365.78 1383.85,368.076 1385.91,373.092 1387.96,373.633 1390.01,373.409 1392.06,373.41 1394.12,373.415 1396.17,364.792 1398.22,366.213 1400.28,370.292 1402.33,369.483 1404.38,350.871 1406.43,354.337 1408.49,346.509 1410.54,350.539 1412.59,350.756 1414.65,350.757 1416.7,350.564 1418.75,351.74 1420.8,352.036 1422.86,351.056 1424.91,351.004 1426.96,341.847 1429.02,338.704 1431.07,349.241 1433.12,348.668 1435.17,347.641 1437.23,337.185 1439.28,336.817 1441.33,338.104 1443.39,338.043 1445.44,333.086 1447.49,336.81 1449.55,343.94 1451.6,342.29 1453.65,342.161 1455.7,342.277 1457.76,346.008 1459.81,346.182 1461.86,358.011 1463.92,358.063 1465.97,357.45 1468.02,357.105 1470.07,361.245 1472.13,363.1 1474.18,362.979 1476.23,360.794 1478.29,357.939 1480.34,357.769 1482.39,357.739 1484.44,358.115 1486.5,366.52 1488.55,366.238 1490.6,366.404 1492.66,387.258 1494.71,383.203 1496.76,382.535 1498.81,375.335 1500.87,375.283 1502.92,387.949 1504.97,387.547 1507.03,388.26 1509.08,380.007 1511.13,380.035 1513.18,381.606 1515.24,365.358 1517.29,367.528 1519.34,387.727 1521.4,387.884 1523.45,383.012 1525.5,383.841 1527.55,376.415 1529.61,376.533 1531.66,376.099 1533.71,360.686 1535.77,362.603 1537.82,375.93 1539.87,377.008 1541.93,376.056 1543.98,376.05 1546.03,379.869 1548.08,364.843 1550.14,365.728 1552.19,366.036 1554.24,366.046 1556.3,367.49 1558.35,367.367 1560.4,366.537 1562.45,365.741 1564.51,362.48 1566.56,362.48 1568.61,362.505 1570.67,355.214 1572.72,355.925 1574.77,355.949 1576.82,366.79 1578.88,366.824 1580.93,367.473 1582.98,371.412 1585.04,372.101 1587.09,376.641 1589.14,376.088 1591.19,377.534 1593.25,379.259 1595.3,380.92 1597.35,379.348 1599.41,379.573 1601.46,379.481 1603.51,379.498 1605.56,379.695 1607.62,380.466 1609.67,368.971 1611.72,368.937 1613.78,367.048 1615.83,368.798 1617.88,340.354 1619.94,342.741 1621.99,343.926 1624.04,352.97 1626.09,351.782 1628.15,345.636 1630.2,347.083 1632.25,350.083 1634.31,350.086 1636.36,356.136 1638.41,356.936 1640.46,338.946 1642.52,333.857 1644.57,387.587 1646.62,366.28 1648.68,386.001 1650.73,387.244 1652.78,389.381 1654.83,387.782 1656.89,361.92 1658.94,361.685 1660.99,361.656 1663.05,359.371 1665.1,338.382 1667.15,337.941 1669.2,457.106 1671.26,268.471 1673.31,269.739 1675.36,277.208 1677.42,267.017 1679.47,260.718 1681.52,281.915 1683.57,417.749 1685.63,429.023 1687.68,426.225 1689.73,436.975 1691.79,436.201 1693.84,436.091 1695.89,436.039 1697.94,433.342 1700,413.99 1702.05,417.656 1704.1,374.512 1706.16,403.674 1708.21,415.251 1710.26,415.806 1712.32,415.852 1714.37,424.037 1716.42,427.795 1718.47,399.682 1720.53,403.317 1722.58,403.496 1724.63,407.499 1726.69,392.922 1728.74,400.439 1730.79,398.017 1732.84,397.087 1734.9,387.983 1736.95,391.6 1739,391.741 1741.06,393.948 1743.11,383.975 1745.16,374.834 1747.21,369.538 1749.27,369.501 1751.32,378.077 1753.37,357.149 1755.43,357.588 1757.48,364.184 1759.53,364.144 1761.58,368.652 1763.64,361.483 1765.69,361.125 1767.74,377.156 1769.8,376.822 1771.85,233.29 1773.9,230.976 1775.95,224.915 1778.01,208.685 1780.06,208.74 1782.11,200.602 1784.17,220.129 1786.22,214.456 1788.27,215.473 1790.33,217.508 1792.38,223.697 1794.43,266.714 1796.48,266.717 1798.54,266.725 1800.59,277.336 1802.64,324.471 1804.7,335.455 1806.75,372.08 1808.8,340.627 1810.85,365.296 1812.91,517.898 1814.96,607.478 1817.01,583.974 1819.07,580.911 1821.12,151.355 1823.17,141.847 1825.22,305.832 1827.28,354.931 1829.33,419.466 1831.38,407.625 1833.44,412.024 1835.49,462.193 1837.54,184.908 1839.59,504.603 1841.65,613.783 1843.7,628.038 1845.75,607.07 1847.81,488.174 1849.86,427.505 1851.91,392.624 1853.96,391.17 1856.02,650.475 1858.07,670.198 1860.12,1075.88 1862.18,1071.28 1864.23,1135.94 1866.28,1163.33 1868.34,1057.39 1870.39,1026.24 1872.44,1046.44 1874.49,1045.43 1876.55,1020.98 1878.6,1068.04 1880.65,1056.75 1882.71,1146.07 1884.76,1176.58 1886.81,1019.44 1888.86,1169.57 1890.92,970.118 1892.97,972.787 1895.02,975.726 1897.08,960.359 1899.13,960.053 1901.18,988.284 1903.23,975.19 1905.29,975.219 1907.34,997.393 1909.39,949.253 1911.45,935.686 1913.5,368.077 1915.55,394.038 1917.6,545.294 1919.66,484.198 1921.71,646.408 1923.76,651.453 1925.82,648.574 1927.87,634.454 1929.92,646.259 1931.97,802.322 1934.03,802.464 1936.08,796.176 1938.13,906.236 1940.19,962.907 1942.24,943.531 1944.29,986.273 1946.34,983.165 1948.4,895.393 1950.45,879.825 1952.5,704.925 1954.56,717.694 1956.61,1057.14 1958.66,764.324 1960.72,777.002 1962.77,777.521 1964.82,875.082 1966.87,700.214 1968.93,829.67 1970.98,908.489 1973.03,899.267 1975.09,929.502 1977.14,944.759 1979.19,905.505 1981.24,644.978 1983.3,962.178 1985.35,441.868 1987.4,379.558 1989.46,341.394 1991.51,280.434 1993.56,354.495 1995.61,624.343 1997.67,591.377 1999.72,582.733 2001.77,616.139 2003.83,108.586 2005.88,104.721 2007.93,100.221 2009.98,572.346 2012.04,333.48 2014.09,360.126 2016.14,356.967 2018.2,244.319 2020.25,299.999 2022.3,284.831 2024.35,284.335 2026.41,280.392 2028.46,179.327 2030.51,166.851 2032.57,445.758 2034.62,414.829 2036.67,233.79 2038.73,243.135 2040.78,266.381 2042.83,284.494 2044.88,164.399 2046.94,189.812 2048.99,77.8776 2051.04,84.9428 2053.1,91.3816 2055.15,262.693 2057.2,228.676 2059.25,257.088 2061.31,261.534 2063.36,221.628 2065.41,278.573 2067.47,335.238 2069.52,346.186 2071.57,347.128 2073.62,348.722 2075.68,304.039 2077.73,285.655 2079.78,283.648 2081.84,299.008 2083.89,234.646 2085.94,218.948 2087.99,299.512 2090.05,280.95 2092.1,431.49 2094.15,426.664 2096.21,427.983 2098.26,424.855 2100.31,399.948 2102.36,398.143 2104.42,391.914 2106.47,380.952 2108.52,406.646 2110.58,388.255 2112.63,376.171 2114.68,376.124 2116.73,348.331 2118.79,336.225 2120.84,333.779 2122.89,331.073 2124.95,293.939 2127,297.526 2129.05,251.519 2131.11,258.047 2133.16,257.414 2135.21,245.466 2137.26,234.995 2139.32,235.011 2141.37,241.403 2143.42,241.388 2145.48,298.583 2147.53,294.912 2149.58,371.447 2151.63,389.585 2153.69,389.752 2155.74,399.828 2157.79,395.24 2159.85,407.003 2161.9,407.829 2163.95,401.986 2166,391.753 2168.06,380.395 2170.11,402.173 2172.16,402.317 2174.22,402.441 2176.27,404.925 2178.32,398.459 2180.37,379.136 2182.43,378.999 2184.48,367.433 2186.53,368.877 2188.59,366.051 2190.64,374.15 2192.69,379.918 2194.74,375.597 2196.8,375.178 2198.85,427.361 2200.9,281.878 2202.96,282.733 2205.01,286.442 2207.06,285.165 2209.12,286.956 2211.17,287.22 2213.22,332.447 2215.27,351.624 2217.33,349.175 2219.38,338.79 2221.43,338.713 2223.49,344.053 2225.54,343.963 2227.59,361.098 2229.64,362.509 2231.7,364.445 2233.75,349.773 2235.8,351.703 2237.86,350.609 2239.91,350 2241.96,350.591 2244.01,359.126 2246.07,357.644 2248.12,350.045 2250.17,350.09 2252.23,349.625 2254.28,349.63 2256.33,344.918 2258.38,369.629 2260.44,366.227 2262.49,369.254 2264.54,369.232 2266.6,378.717 2268.65,378.091 2270.7,371.177 2272.75,373.405 2274.81,375.04 2276.86,374.891 2278.91,315.12 2280.97,319.586 2283.02,319.092 2285.07,337.812 2287.12,307.87 2289.18,307.913 2291.23,307.935 "/>
<path clip-path="url(#clip040)" d="M251.33 665.141 L548.024 665.141 L548.024 561.461 L251.33 561.461  Z" fill="#ffffff" fill-rule="evenodd" fill-opacity="1"/>
<polyline clip-path="url(#clip040)" style="stroke:#000000; stroke-linecap:round; stroke-linejoin:round; stroke-width:4; stroke-opacity:1; fill:none" points="251.33,665.141 548.024,665.141 548.024,561.461 251.33,561.461 251.33,665.141 "/>
<polyline clip-path="url(#clip040)" style="stroke:#009af9; stroke-linecap:round; stroke-linejoin:round; stroke-width:4; stroke-opacity:1; fill:none" points="275.484,613.301 420.41,613.301 "/>
<path clip-path="url(#clip040)" d="M444.564 596.021 L449.24 596.021 L449.24 626.646 L466.069 626.646 L466.069 630.581 L444.564 630.581 L444.564 596.021 Z" fill="#000000" fill-rule="nonzero" fill-opacity="1" /><path clip-path="url(#clip040)" d="M491.694 597.155 L491.694 601.715 Q489.032 600.442 486.67 599.817 Q484.309 599.192 482.11 599.192 Q478.291 599.192 476.208 600.674 Q474.147 602.155 474.147 604.887 Q474.147 607.178 475.513 608.359 Q476.902 609.516 480.745 610.234 L483.569 610.813 Q488.8 611.808 491.277 614.331 Q493.777 616.831 493.777 621.044 Q493.777 626.067 490.397 628.66 Q487.041 631.252 480.536 631.252 Q478.083 631.252 475.305 630.697 Q472.55 630.141 469.587 629.053 L469.587 624.239 Q472.434 625.836 475.166 626.646 Q477.897 627.456 480.536 627.456 Q484.541 627.456 486.717 625.882 Q488.893 624.308 488.893 621.391 Q488.893 618.845 487.319 617.41 Q485.768 615.975 482.203 615.257 L479.356 614.702 Q474.124 613.66 471.786 611.438 Q469.448 609.215 469.448 605.257 Q469.448 600.674 472.666 598.035 Q475.907 595.396 481.578 595.396 Q484.008 595.396 486.532 595.836 Q489.055 596.276 491.694 597.155 Z" fill="#000000" fill-rule="nonzero" fill-opacity="1" /><path clip-path="url(#clip040)" d="M521.786 597.155 L521.786 601.715 Q519.124 600.442 516.763 599.817 Q514.402 599.192 512.203 599.192 Q508.383 599.192 506.3 600.674 Q504.24 602.155 504.24 604.887 Q504.24 607.178 505.606 608.359 Q506.994 609.516 510.837 610.234 L513.661 610.813 Q518.893 611.808 521.369 614.331 Q523.869 616.831 523.869 621.044 Q523.869 626.067 520.49 628.66 Q517.133 631.252 510.629 631.252 Q508.175 631.252 505.397 630.697 Q502.643 630.141 499.68 629.053 L499.68 624.239 Q502.527 625.836 505.258 626.646 Q507.99 627.456 510.629 627.456 Q514.633 627.456 516.809 625.882 Q518.985 624.308 518.985 621.391 Q518.985 618.845 517.411 617.41 Q515.86 615.975 512.295 615.257 L509.448 614.702 Q504.217 613.66 501.879 611.438 Q499.541 609.215 499.541 605.257 Q499.541 600.674 502.758 598.035 Q505.999 595.396 511.67 595.396 Q514.101 595.396 516.624 595.836 Q519.147 596.276 521.786 597.155 Z" fill="#000000" fill-rule="nonzero" fill-opacity="1" /><path clip-path="url(#clip040)" d="M178.867 1486.45 L2352.76 1486.45 L2352.76 847.244 L178.867 847.244  Z" fill="#ffffff" fill-rule="evenodd" fill-opacity="1"/>
<defs>
  <clipPath id="clip043">
    <rect x="178" y="847" width="2175" height="640"/>
  </clipPath>
</defs>
<polyline clip-path="url(#clip043)" style="stroke:#000000; stroke-linecap:round; stroke-linejoin:round; stroke-width:2; stroke-opacity:0.1; fill:none" points="238.339,1486.45 238.339,847.244 "/>
<polyline clip-path="url(#clip043)" style="stroke:#000000; stroke-linecap:round; stroke-linejoin:round; stroke-width:2; stroke-opacity:0.1; fill:none" points="751.562,1486.45 751.562,847.244 "/>
<polyline clip-path="url(#clip043)" style="stroke:#000000; stroke-linecap:round; stroke-linejoin:round; stroke-width:2; stroke-opacity:0.1; fill:none" points="1264.78,1486.45 1264.78,847.244 "/>
<polyline clip-path="url(#clip043)" style="stroke:#000000; stroke-linecap:round; stroke-linejoin:round; stroke-width:2; stroke-opacity:0.1; fill:none" points="1778.01,1486.45 1778.01,847.244 "/>
<polyline clip-path="url(#clip043)" style="stroke:#000000; stroke-linecap:round; stroke-linejoin:round; stroke-width:2; stroke-opacity:0.1; fill:none" points="2291.23,1486.45 2291.23,847.244 "/>
<polyline clip-path="url(#clip043)" style="stroke:#000000; stroke-linecap:round; stroke-linejoin:round; stroke-width:2; stroke-opacity:0.1; fill:none" points="178.867,1486.45 2352.76,1486.45 "/>
<polyline clip-path="url(#clip043)" style="stroke:#000000; stroke-linecap:round; stroke-linejoin:round; stroke-width:2; stroke-opacity:0.1; fill:none" points="178.867,1326.65 2352.76,1326.65 "/>
<polyline clip-path="url(#clip043)" style="stroke:#000000; stroke-linecap:round; stroke-linejoin:round; stroke-width:2; stroke-opacity:0.1; fill:none" points="178.867,1166.85 2352.76,1166.85 "/>
<polyline clip-path="url(#clip043)" style="stroke:#000000; stroke-linecap:round; stroke-linejoin:round; stroke-width:2; stroke-opacity:0.1; fill:none" points="178.867,1007.05 2352.76,1007.05 "/>
<polyline clip-path="url(#clip043)" style="stroke:#000000; stroke-linecap:round; stroke-linejoin:round; stroke-width:2; stroke-opacity:0.1; fill:none" points="178.867,847.244 2352.76,847.244 "/>
<polyline clip-path="url(#clip040)" style="stroke:#000000; stroke-linecap:round; stroke-linejoin:round; stroke-width:4; stroke-opacity:1; fill:none" points="178.867,1486.45 2352.76,1486.45 "/>
<polyline clip-path="url(#clip040)" style="stroke:#000000; stroke-linecap:round; stroke-linejoin:round; stroke-width:4; stroke-opacity:1; fill:none" points="238.339,1486.45 238.339,1467.55 "/>
<polyline clip-path="url(#clip040)" style="stroke:#000000; stroke-linecap:round; stroke-linejoin:round; stroke-width:4; stroke-opacity:1; fill:none" points="751.562,1486.45 751.562,1467.55 "/>
<polyline clip-path="url(#clip040)" style="stroke:#000000; stroke-linecap:round; stroke-linejoin:round; stroke-width:4; stroke-opacity:1; fill:none" points="1264.78,1486.45 1264.78,1467.55 "/>
<polyline clip-path="url(#clip040)" style="stroke:#000000; stroke-linecap:round; stroke-linejoin:round; stroke-width:4; stroke-opacity:1; fill:none" points="1778.01,1486.45 1778.01,1467.55 "/>
<polyline clip-path="url(#clip040)" style="stroke:#000000; stroke-linecap:round; stroke-linejoin:round; stroke-width:4; stroke-opacity:1; fill:none" points="2291.23,1486.45 2291.23,1467.55 "/>
<path clip-path="url(#clip040)" d="M238.339 1517.37 Q234.728 1517.37 232.899 1520.93 Q231.094 1524.47 231.094 1531.6 Q231.094 1538.71 232.899 1542.27 Q234.728 1545.82 238.339 1545.82 Q241.973 1545.82 243.779 1542.27 Q245.607 1538.71 245.607 1531.6 Q245.607 1524.47 243.779 1520.93 Q241.973 1517.37 238.339 1517.37 M238.339 1513.66 Q244.149 1513.66 247.205 1518.27 Q250.283 1522.85 250.283 1531.6 Q250.283 1540.33 247.205 1544.94 Q244.149 1549.52 238.339 1549.52 Q232.529 1549.52 229.45 1544.94 Q226.395 1540.33 226.395 1531.6 Q226.395 1522.85 229.45 1518.27 Q232.529 1513.66 238.339 1513.66 Z" fill="#000000" fill-rule="nonzero" fill-opacity="1" /><path clip-path="url(#clip040)" d="M715.254 1544.91 L731.574 1544.91 L731.574 1548.85 L709.629 1548.85 L709.629 1544.91 Q712.291 1542.16 716.875 1537.53 Q721.481 1532.88 722.662 1531.53 Q724.907 1529.01 725.787 1527.27 Q726.689 1525.51 726.689 1523.82 Q726.689 1521.07 724.745 1519.33 Q722.824 1517.6 719.722 1517.6 Q717.523 1517.6 715.069 1518.36 Q712.638 1519.13 709.861 1520.68 L709.861 1515.95 Q712.685 1514.82 715.138 1514.24 Q717.592 1513.66 719.629 1513.66 Q725 1513.66 728.194 1516.35 Q731.388 1519.03 731.388 1523.52 Q731.388 1525.65 730.578 1527.57 Q729.791 1529.47 727.685 1532.07 Q727.106 1532.74 724.004 1535.95 Q720.902 1539.15 715.254 1544.91 Z" fill="#000000" fill-rule="nonzero" fill-opacity="1" /><path clip-path="url(#clip040)" d="M741.435 1514.29 L759.791 1514.29 L759.791 1518.22 L745.717 1518.22 L745.717 1526.7 Q746.736 1526.35 747.754 1526.19 Q748.773 1526 749.791 1526 Q755.578 1526 758.958 1529.17 Q762.337 1532.34 762.337 1537.76 Q762.337 1543.34 758.865 1546.44 Q755.393 1549.52 749.073 1549.52 Q746.898 1549.52 744.629 1549.15 Q742.384 1548.78 739.976 1548.04 L739.976 1543.34 Q742.06 1544.47 744.282 1545.03 Q746.504 1545.58 748.981 1545.58 Q752.985 1545.58 755.323 1543.48 Q757.661 1541.37 757.661 1537.76 Q757.661 1534.15 755.323 1532.04 Q752.985 1529.94 748.981 1529.94 Q747.106 1529.94 745.231 1530.35 Q743.379 1530.77 741.435 1531.65 L741.435 1514.29 Z" fill="#000000" fill-rule="nonzero" fill-opacity="1" /><path clip-path="url(#clip040)" d="M781.55 1517.37 Q777.939 1517.37 776.11 1520.93 Q774.305 1524.47 774.305 1531.6 Q774.305 1538.71 776.11 1542.27 Q777.939 1545.82 781.55 1545.82 Q785.184 1545.82 786.99 1542.27 Q788.819 1538.71 788.819 1531.6 Q788.819 1524.47 786.99 1520.93 Q785.184 1517.37 781.55 1517.37 M781.55 1513.66 Q787.36 1513.66 790.416 1518.27 Q793.495 1522.85 793.495 1531.6 Q793.495 1540.33 790.416 1544.94 Q787.36 1549.52 781.55 1549.52 Q775.74 1549.52 772.661 1544.94 Q769.606 1540.33 769.606 1531.6 Q769.606 1522.85 772.661 1518.27 Q775.74 1513.66 781.55 1513.66 Z" fill="#000000" fill-rule="nonzero" fill-opacity="1" /><path clip-path="url(#clip040)" d="M1224.4 1514.29 L1242.76 1514.29 L1242.76 1518.22 L1228.69 1518.22 L1228.69 1526.7 Q1229.7 1526.35 1230.72 1526.19 Q1231.74 1526 1232.76 1526 Q1238.55 1526 1241.93 1529.17 Q1245.31 1532.34 1245.31 1537.76 Q1245.31 1543.34 1241.83 1546.44 Q1238.36 1549.52 1232.04 1549.52 Q1229.87 1549.52 1227.6 1549.15 Q1225.35 1548.78 1222.94 1548.04 L1222.94 1543.34 Q1225.03 1544.47 1227.25 1545.03 Q1229.47 1545.58 1231.95 1545.58 Q1235.95 1545.58 1238.29 1543.48 Q1240.63 1541.37 1240.63 1537.76 Q1240.63 1534.15 1238.29 1532.04 Q1235.95 1529.94 1231.95 1529.94 Q1230.07 1529.94 1228.2 1530.35 Q1226.35 1530.77 1224.4 1531.65 L1224.4 1514.29 Z" fill="#000000" fill-rule="nonzero" fill-opacity="1" /><path clip-path="url(#clip040)" d="M1264.52 1517.37 Q1260.91 1517.37 1259.08 1520.93 Q1257.27 1524.47 1257.27 1531.6 Q1257.27 1538.71 1259.08 1542.27 Q1260.91 1545.82 1264.52 1545.82 Q1268.15 1545.82 1269.96 1542.27 Q1271.79 1538.71 1271.79 1531.6 Q1271.79 1524.47 1269.96 1520.93 Q1268.15 1517.37 1264.52 1517.37 M1264.52 1513.66 Q1270.33 1513.66 1273.38 1518.27 Q1276.46 1522.85 1276.46 1531.6 Q1276.46 1540.33 1273.38 1544.94 Q1270.33 1549.52 1264.52 1549.52 Q1258.71 1549.52 1255.63 1544.94 Q1252.57 1540.33 1252.57 1531.6 Q1252.57 1522.85 1255.63 1518.27 Q1258.71 1513.66 1264.52 1513.66 Z" fill="#000000" fill-rule="nonzero" fill-opacity="1" /><path clip-path="url(#clip040)" d="M1294.68 1517.37 Q1291.07 1517.37 1289.24 1520.93 Q1287.44 1524.47 1287.44 1531.6 Q1287.44 1538.71 1289.24 1542.27 Q1291.07 1545.82 1294.68 1545.82 Q1298.31 1545.82 1300.12 1542.27 Q1301.95 1538.71 1301.95 1531.6 Q1301.95 1524.47 1300.12 1520.93 Q1298.31 1517.37 1294.68 1517.37 M1294.68 1513.66 Q1300.49 1513.66 1303.55 1518.27 Q1306.62 1522.85 1306.62 1531.6 Q1306.62 1540.33 1303.55 1544.94 Q1300.49 1549.52 1294.68 1549.52 Q1288.87 1549.52 1285.79 1544.94 Q1282.74 1540.33 1282.74 1531.6 Q1282.74 1522.85 1285.79 1518.27 Q1288.87 1513.66 1294.68 1513.66 Z" fill="#000000" fill-rule="nonzero" fill-opacity="1" /><path clip-path="url(#clip040)" d="M1736.28 1514.29 L1758.51 1514.29 L1758.51 1516.28 L1745.96 1548.85 L1741.08 1548.85 L1752.88 1518.22 L1736.28 1518.22 L1736.28 1514.29 Z" fill="#000000" fill-rule="nonzero" fill-opacity="1" /><path clip-path="url(#clip040)" d="M1767.67 1514.29 L1786.03 1514.29 L1786.03 1518.22 L1771.95 1518.22 L1771.95 1526.7 Q1772.97 1526.35 1773.99 1526.19 Q1775.01 1526 1776.03 1526 Q1781.82 1526 1785.2 1529.17 Q1788.57 1532.34 1788.57 1537.76 Q1788.57 1543.34 1785.1 1546.44 Q1781.63 1549.52 1775.31 1549.52 Q1773.14 1549.52 1770.87 1549.15 Q1768.62 1548.78 1766.21 1548.04 L1766.21 1543.34 Q1768.3 1544.47 1770.52 1545.03 Q1772.74 1545.58 1775.22 1545.58 Q1779.22 1545.58 1781.56 1543.48 Q1783.9 1541.37 1783.9 1537.76 Q1783.9 1534.15 1781.56 1532.04 Q1779.22 1529.94 1775.22 1529.94 Q1773.34 1529.94 1771.47 1530.35 Q1769.62 1530.77 1767.67 1531.65 L1767.67 1514.29 Z" fill="#000000" fill-rule="nonzero" fill-opacity="1" /><path clip-path="url(#clip040)" d="M1807.79 1517.37 Q1804.18 1517.37 1802.35 1520.93 Q1800.54 1524.47 1800.54 1531.6 Q1800.54 1538.71 1802.35 1542.27 Q1804.18 1545.82 1807.79 1545.82 Q1811.42 1545.82 1813.23 1542.27 Q1815.06 1538.71 1815.06 1531.6 Q1815.06 1524.47 1813.23 1520.93 Q1811.42 1517.37 1807.79 1517.37 M1807.79 1513.66 Q1813.6 1513.66 1816.65 1518.27 Q1819.73 1522.85 1819.73 1531.6 Q1819.73 1540.33 1816.65 1544.94 Q1813.6 1549.52 1807.79 1549.52 Q1801.98 1549.52 1798.9 1544.94 Q1795.84 1540.33 1795.84 1531.6 Q1795.84 1522.85 1798.9 1518.27 Q1801.98 1513.66 1807.79 1513.66 Z" fill="#000000" fill-rule="nonzero" fill-opacity="1" /><path clip-path="url(#clip040)" d="M2235.76 1544.91 L2243.4 1544.91 L2243.4 1518.55 L2235.09 1520.21 L2235.09 1515.95 L2243.35 1514.29 L2248.02 1514.29 L2248.02 1544.91 L2255.66 1544.91 L2255.66 1548.85 L2235.76 1548.85 L2235.76 1544.91 Z" fill="#000000" fill-rule="nonzero" fill-opacity="1" /><path clip-path="url(#clip040)" d="M2275.11 1517.37 Q2271.5 1517.37 2269.67 1520.93 Q2267.86 1524.47 2267.86 1531.6 Q2267.86 1538.71 2269.67 1542.27 Q2271.5 1545.82 2275.11 1545.82 Q2278.74 1545.82 2280.55 1542.27 Q2282.38 1538.71 2282.38 1531.6 Q2282.38 1524.47 2280.55 1520.93 Q2278.74 1517.37 2275.11 1517.37 M2275.11 1513.66 Q2280.92 1513.66 2283.97 1518.27 Q2287.05 1522.85 2287.05 1531.6 Q2287.05 1540.33 2283.97 1544.94 Q2280.92 1549.52 2275.11 1549.52 Q2269.3 1549.52 2266.22 1544.94 Q2263.16 1540.33 2263.16 1531.6 Q2263.16 1522.85 2266.22 1518.27 Q2269.3 1513.66 2275.11 1513.66 Z" fill="#000000" fill-rule="nonzero" fill-opacity="1" /><path clip-path="url(#clip040)" d="M2305.27 1517.37 Q2301.66 1517.37 2299.83 1520.93 Q2298.02 1524.47 2298.02 1531.6 Q2298.02 1538.71 2299.83 1542.27 Q2301.66 1545.82 2305.27 1545.82 Q2308.9 1545.82 2310.71 1542.27 Q2312.54 1538.71 2312.54 1531.6 Q2312.54 1524.47 2310.71 1520.93 Q2308.9 1517.37 2305.27 1517.37 M2305.27 1513.66 Q2311.08 1513.66 2314.14 1518.27 Q2317.21 1522.85 2317.21 1531.6 Q2317.21 1540.33 2314.14 1544.94 Q2311.08 1549.52 2305.27 1549.52 Q2299.46 1549.52 2296.38 1544.94 Q2293.33 1540.33 2293.33 1531.6 Q2293.33 1522.85 2296.38 1518.27 Q2299.46 1513.66 2305.27 1513.66 Z" fill="#000000" fill-rule="nonzero" fill-opacity="1" /><path clip-path="url(#clip040)" d="M2335.43 1517.37 Q2331.82 1517.37 2329.99 1520.93 Q2328.19 1524.47 2328.19 1531.6 Q2328.19 1538.71 2329.99 1542.27 Q2331.82 1545.82 2335.43 1545.82 Q2339.07 1545.82 2340.87 1542.27 Q2342.7 1538.71 2342.7 1531.6 Q2342.7 1524.47 2340.87 1520.93 Q2339.07 1517.37 2335.43 1517.37 M2335.43 1513.66 Q2341.24 1513.66 2344.3 1518.27 Q2347.38 1522.85 2347.38 1531.6 Q2347.38 1540.33 2344.3 1544.94 Q2341.24 1549.52 2335.43 1549.52 Q2329.62 1549.52 2326.54 1544.94 Q2323.49 1540.33 2323.49 1531.6 Q2323.49 1522.85 2326.54 1518.27 Q2329.62 1513.66 2335.43 1513.66 Z" fill="#000000" fill-rule="nonzero" fill-opacity="1" /><polyline clip-path="url(#clip040)" style="stroke:#000000; stroke-linecap:round; stroke-linejoin:round; stroke-width:4; stroke-opacity:1; fill:none" points="178.867,1486.45 178.867,847.244 "/>
<polyline clip-path="url(#clip040)" style="stroke:#000000; stroke-linecap:round; stroke-linejoin:round; stroke-width:4; stroke-opacity:1; fill:none" points="178.867,1486.45 197.764,1486.45 "/>
<polyline clip-path="url(#clip040)" style="stroke:#000000; stroke-linecap:round; stroke-linejoin:round; stroke-width:4; stroke-opacity:1; fill:none" points="178.867,1326.65 197.764,1326.65 "/>
<polyline clip-path="url(#clip040)" style="stroke:#000000; stroke-linecap:round; stroke-linejoin:round; stroke-width:4; stroke-opacity:1; fill:none" points="178.867,1166.85 197.764,1166.85 "/>
<polyline clip-path="url(#clip040)" style="stroke:#000000; stroke-linecap:round; stroke-linejoin:round; stroke-width:4; stroke-opacity:1; fill:none" points="178.867,1007.05 197.764,1007.05 "/>
<polyline clip-path="url(#clip040)" style="stroke:#000000; stroke-linecap:round; stroke-linejoin:round; stroke-width:4; stroke-opacity:1; fill:none" points="178.867,847.244 197.764,847.244 "/>
<path clip-path="url(#clip040)" d="M50.9921 1486.9 L80.6679 1486.9 L80.6679 1490.83 L50.9921 1490.83 L50.9921 1486.9 Z" fill="#000000" fill-rule="nonzero" fill-opacity="1" /><path clip-path="url(#clip040)" d="M91.5706 1499.79 L99.2095 1499.79 L99.2095 1473.43 L90.8993 1475.09 L90.8993 1470.83 L99.1632 1469.17 L103.839 1469.17 L103.839 1499.79 L111.478 1499.79 L111.478 1503.73 L91.5706 1503.73 L91.5706 1499.79 Z" fill="#000000" fill-rule="nonzero" fill-opacity="1" /><path clip-path="url(#clip040)" d="M130.922 1472.25 Q127.311 1472.25 125.482 1475.81 Q123.677 1479.35 123.677 1486.48 Q123.677 1493.59 125.482 1497.15 Q127.311 1500.7 130.922 1500.7 Q134.556 1500.7 136.362 1497.15 Q138.191 1493.59 138.191 1486.48 Q138.191 1479.35 136.362 1475.81 Q134.556 1472.25 130.922 1472.25 M130.922 1468.54 Q136.732 1468.54 139.788 1473.15 Q142.867 1477.73 142.867 1486.48 Q142.867 1495.21 139.788 1499.82 Q136.732 1504.4 130.922 1504.4 Q125.112 1504.4 122.033 1499.82 Q118.978 1495.21 118.978 1486.48 Q118.978 1477.73 122.033 1473.15 Q125.112 1468.54 130.922 1468.54 Z" fill="#000000" fill-rule="nonzero" fill-opacity="1" /><path clip-path="url(#clip040)" d="M82.1494 1327.1 L111.825 1327.1 L111.825 1331.03 L82.1494 1331.03 L82.1494 1327.1 Z" fill="#000000" fill-rule="nonzero" fill-opacity="1" /><path clip-path="url(#clip040)" d="M121.964 1309.37 L140.32 1309.37 L140.32 1313.3 L126.246 1313.3 L126.246 1321.77 Q127.265 1321.43 128.283 1321.27 Q129.302 1321.08 130.32 1321.08 Q136.107 1321.08 139.487 1324.25 Q142.867 1327.42 142.867 1332.84 Q142.867 1338.42 139.394 1341.52 Q135.922 1344.6 129.603 1344.6 Q127.427 1344.6 125.158 1344.23 Q122.913 1343.86 120.506 1343.12 L120.506 1338.42 Q122.589 1339.55 124.811 1340.11 Q127.033 1340.66 129.51 1340.66 Q133.515 1340.66 135.853 1338.56 Q138.191 1336.45 138.191 1332.84 Q138.191 1329.23 135.853 1327.12 Q133.515 1325.01 129.51 1325.01 Q127.635 1325.01 125.76 1325.43 Q123.908 1325.85 121.964 1326.73 L121.964 1309.37 Z" fill="#000000" fill-rule="nonzero" fill-opacity="1" /><path clip-path="url(#clip040)" d="M130.922 1152.64 Q127.311 1152.64 125.482 1156.21 Q123.677 1159.75 123.677 1166.88 Q123.677 1173.99 125.482 1177.55 Q127.311 1181.09 130.922 1181.09 Q134.556 1181.09 136.362 1177.55 Q138.191 1173.99 138.191 1166.88 Q138.191 1159.75 136.362 1156.21 Q134.556 1152.64 130.922 1152.64 M130.922 1148.94 Q136.732 1148.94 139.788 1153.55 Q142.867 1158.13 142.867 1166.88 Q142.867 1175.61 139.788 1180.21 Q136.732 1184.8 130.922 1184.8 Q125.112 1184.8 122.033 1180.21 Q118.978 1175.61 118.978 1166.88 Q118.978 1158.13 122.033 1153.55 Q125.112 1148.94 130.922 1148.94 Z" fill="#000000" fill-rule="nonzero" fill-opacity="1" /><path clip-path="url(#clip040)" d="M121.964 989.765 L140.32 989.765 L140.32 993.7 L126.246 993.7 L126.246 1002.17 Q127.265 1001.83 128.283 1001.66 Q129.302 1001.48 130.32 1001.48 Q136.107 1001.48 139.487 1004.65 Q142.867 1007.82 142.867 1013.24 Q142.867 1018.82 139.394 1021.92 Q135.922 1025 129.603 1025 Q127.427 1025 125.158 1024.63 Q122.913 1024.26 120.506 1023.51 L120.506 1018.82 Q122.589 1019.95 124.811 1020.51 Q127.033 1021.06 129.51 1021.06 Q133.515 1021.06 135.853 1018.95 Q138.191 1016.85 138.191 1013.24 Q138.191 1009.63 135.853 1007.52 Q133.515 1005.41 129.51 1005.41 Q127.635 1005.41 125.76 1005.83 Q123.908 1006.25 121.964 1007.13 L121.964 989.765 Z" fill="#000000" fill-rule="nonzero" fill-opacity="1" /><path clip-path="url(#clip040)" d="M91.5706 860.589 L99.2095 860.589 L99.2095 834.223 L90.8993 835.89 L90.8993 831.631 L99.1632 829.964 L103.839 829.964 L103.839 860.589 L111.478 860.589 L111.478 864.524 L91.5706 864.524 L91.5706 860.589 Z" fill="#000000" fill-rule="nonzero" fill-opacity="1" /><path clip-path="url(#clip040)" d="M130.922 833.043 Q127.311 833.043 125.482 836.608 Q123.677 840.149 123.677 847.279 Q123.677 854.385 125.482 857.95 Q127.311 861.492 130.922 861.492 Q134.556 861.492 136.362 857.95 Q138.191 854.385 138.191 847.279 Q138.191 840.149 136.362 836.608 Q134.556 833.043 130.922 833.043 M130.922 829.339 Q136.732 829.339 139.788 833.946 Q142.867 838.529 142.867 847.279 Q142.867 856.006 139.788 860.612 Q136.732 865.195 130.922 865.195 Q125.112 865.195 122.033 860.612 Q118.978 856.006 118.978 847.279 Q118.978 838.529 122.033 833.946 Q125.112 829.339 130.922 829.339 Z" fill="#000000" fill-rule="nonzero" fill-opacity="1" /><polyline clip-path="url(#clip043)" style="stroke:#009af9; stroke-linecap:round; stroke-linejoin:round; stroke-width:4; stroke-opacity:1; fill:none" points="240.392,1134.89 242.445,1182.18 244.498,1342.41 246.55,1174.23 248.603,1170.94 250.656,1176.43 252.709,1172.69 254.762,1145.71 256.815,1160.45 258.868,1186.34 260.921,1126.63 262.974,1113.49 265.027,1166.52 267.079,1175.93 269.132,1165.87 271.185,1152.82 273.238,1185.91 275.291,1125.14 277.344,1110.86 279.397,1111.91 281.45,1118.23 283.503,1190.9 285.555,1206.6 287.608,1105.85 289.661,1121.67 291.714,1222.83 293.767,1196.19 295.82,1144.06 297.873,1192.59 299.926,1124.99 301.979,1304.93 304.031,1079.95 306.084,659.489 308.137,2200.29 310.19,1090.41 312.243,1199.47 314.296,1160.3 316.349,1146.23 318.402,1139.98 320.455,1175 322.507,1166.76 324.56,1167.85 326.613,890.008 328.666,1456.65 330.719,1123.28 332.772,1059.79 334.825,1152.91 336.878,1141.29 338.931,1173.47 340.984,1183.84 343.036,1190.44 345.089,1147.52 347.142,1205.92 349.195,1261.39 351.248,1189.62 353.301,1158.45 355.354,1236.31 357.407,1156.22 359.46,1214.72 361.512,1177.46 363.565,1174.79 365.618,1164.39 367.671,1164.81 369.724,1127.52 371.777,1156.29 373.83,1217.48 375.883,1149.86 377.936,1156 379.988,1201.24 382.041,1151.27 384.094,1177.44 386.147,1154.27 388.2,1141.71 390.253,1162.49 392.306,1197.67 394.359,1235.25 396.412,1224.66 398.464,1129.59 400.517,1162.77 402.57,1152.55 404.623,1167 406.676,1172.78 408.729,1136.57 410.782,1128.81 412.835,1165.06 414.888,1170.69 416.94,1187.8 418.993,1197.78 421.046,1217.23 423.099,1176.08 425.152,1143.52 427.205,1154.68 429.258,1183.43 431.311,1206.13 433.364,1394.73 435.417,1171.2 437.469,1159.18 439.522,1112.94 441.575,1114.47 443.628,1159.25 445.681,1426.49 447.734,310.575 449.787,1737.54 451.84,1877.39 453.893,838.037 455.945,316.797 457.998,1287.25 460.051,1263.44 462.104,1243.43 464.157,1103.05 466.21,1253.43 468.263,1156.58 470.316,1176.3 472.369,1198.61 474.421,1208.87 476.474,1169.8 478.527,1198.34 480.58,1068.9 482.633,979.235 484.686,542.538 486.739,1335.55 488.792,1032.46 490.845,1159.05 492.897,1133.77 494.95,1143.19 497.003,1178.76 499.056,1155.66 501.109,1188.64 503.162,1192.77 505.215,1080.56 507.268,1141.84 509.321,1177.78 511.374,1161.01 513.426,1162.97 515.479,1164.2 517.532,1177.67 519.585,1158.27 521.638,1170.2 523.691,1148.28 525.744,1155.09 527.797,1149.9 529.85,1175.05 531.902,1181.01 533.955,1182.41 536.008,842.947 538.061,-943.593 540.114,-445.976 542.167,-42.8433 544.22,-453.362 546.273,1351.02 548.326,1148.99 550.378,1152.42 552.431,1167.15 554.484,1111.87 556.537,1238.18 558.59,1088.92 560.643,1115.67 562.696,1196.25 564.749,1178.49 566.802,1177.98 568.854,1061.8 570.907,1202.95 572.96,1161.53 575.013,1167.32 577.066,1165.7 579.119,1168.43 581.172,1169.19 583.225,1112.22 585.278,1068.07 587.331,842.047 589.383,946.649 591.436,965.968 593.489,896.567 595.542,827.068 597.595,1208.6 599.648,1225.35 601.701,1181.39 603.754,1152.59 605.807,1161.51 607.859,1121.95 609.912,1198.71 611.965,1148.92 614.018,1191.91 616.071,1054.97 618.124,1195.62 620.177,1260.61 622.23,1172.44 624.283,1177.44 626.335,1163.49 628.388,1103.93 630.441,1189.62 632.494,862.29 634.547,689.252 636.6,401.343 638.653,323.254 640.706,1126.34 642.759,1068.48 644.811,1118.14 646.864,1140.52 648.917,1166.93 650.97,1171.13 653.023,1175.29 655.076,1207.12 657.129,1179.02 659.182,1248.9 661.235,1130.85 663.288,1161.2 665.34,1126.2 667.393,1128.52 669.446,1052.27 671.499,1432.85 673.552,779.723 675.605,1308.21 677.658,1140.69 679.711,1174.68 681.764,1163.55 683.816,1169.31 685.869,1124.53 687.922,1159.67 689.975,1151.51 692.028,1204.78 694.081,1217.43 696.134,1136.21 698.187,1151.39 700.24,1201.87 702.292,1183.25 704.345,1178.27 706.398,1173.22 708.451,1193.5 710.504,1153.36 712.557,1304.29 714.61,1515.14 716.663,966.043 718.716,1250.36 720.768,892.241 722.821,1133.41 724.874,1154.08 726.927,1166.76 728.98,1158.92 731.033,1098.18 733.086,1146.82 735.139,1262.12 737.192,1123.6 739.245,1140.59 741.297,1111.57 743.35,1151.77 745.403,1144.54 747.456,1174.52 749.509,1189.85 751.562,1202.54 753.615,1153.14 755.668,1149.16 757.721,1162 759.773,1146.08 761.826,1175.88 763.879,1108.69 765.932,1247.42 767.985,1102.81 770.038,1167.35 772.091,1218.92 774.144,1130.7 776.197,1225.15 778.249,1257.47 780.302,1189.51 782.355,1191.63 784.408,1189.5 786.461,1196.76 788.514,1178.92 790.567,1181.55 792.62,1158.99 794.673,1157.22 796.725,1238.77 798.778,1165.63 800.831,-1383.22 802.884,883.984 804.937,1169.01 806.99,1439.82 809.043,1339.43 811.096,1121.68 813.149,1117.47 815.202,1188.5 817.254,1259.19 819.307,1218.55 821.36,1296.62 823.413,1186.4 825.466,1180.09 827.519,1156.9 829.572,1174.97 831.625,1170.06 833.678,1130.13 835.73,1258.3 837.783,1265.44 839.836,1042.67 841.889,1119 843.942,1094.78 845.995,1386.83 848.048,1193.4 850.101,1060.07 852.154,1143.85 854.206,1142.49 856.259,1245.62 858.312,1194.74 860.365,1147.94 862.418,1093.11 864.471,1164.21 866.524,1166.42 868.577,1206.16 870.63,1127.59 872.682,1092.05 874.735,1159.54 876.788,1162.21 878.841,1152.64 880.894,1229.46 882.947,1129.61 885,1189.23 887.053,1143.21 889.106,1223.59 891.159,1242.85 893.211,1178.64 895.264,1275.9 897.317,1186.4 899.37,1155.49 901.423,1172.79 903.476,1153.98 905.529,1125.3 907.582,1182.87 909.635,1187.59 911.687,1214.3 913.74,1192.16 915.793,1196.39 917.846,1276.08 919.899,1033.81 921.952,1321.69 924.005,1232.32 926.058,1155.14 928.111,1273.85 930.163,1052.91 932.216,1173.21 934.269,1166.12 936.322,1171.01 938.375,1102.22 940.428,1235.89 942.481,1134.57 944.534,1158.15 946.587,1126.14 948.639,1145.89 950.692,1200.18 952.745,1170.55 954.798,1143.26 956.851,1172.36 958.904,1200.01 960.957,1028.71 963.01,1159.85 965.063,1155.09 967.116,1097.39 969.168,1195.29 971.221,1156.07 973.274,1156.75 975.327,1161.23 977.38,1159.32 979.433,1175.46 981.486,1168 983.539,1139.18 985.592,1195.33 987.644,1178.81 989.697,1150.95 991.75,1170.88 993.803,1171.38 995.856,1209.05 997.909,1161.9 999.962,1175.63 1002.01,1144.8 1004.07,1147.22 1006.12,1242.27 1008.17,1074.3 1010.23,1120.03 1012.28,1188.57 1014.33,1220.59 1016.38,1078.95 1018.44,1187.24 1020.49,1140.39 1022.54,1152.24 1024.6,1173.55 1026.65,1225 1028.7,1166.46 1030.76,1183.4 1032.81,1294.11 1034.86,1189.2 1036.91,1182.32 1038.97,1167.7 1041.02,1170.19 1043.07,1166.59 1045.13,1160.11 1047.18,1159.74 1049.23,1145.04 1051.28,1178.35 1053.34,1189.9 1055.39,1192.45 1057.44,550.243 1059.5,463.752 1061.55,1836.32 1063.6,1005.06 1065.65,1209.12 1067.71,941.456 1069.76,1167.49 1071.81,1175.21 1073.87,1188.47 1075.92,1166.35 1077.97,1213.4 1080.02,1137.86 1082.08,1059.39 1084.13,540.8 1086.18,1287.85 1088.24,1121.02 1090.29,1338.53 1092.34,1126.62 1094.39,1162.19 1096.45,1124.95 1098.5,1123.39 1100.55,1137.2 1102.61,1143.7 1104.66,1214.4 1106.71,1156.76 1108.77,1171.01 1110.82,1179.46 1112.87,1145.25 1114.92,1155.13 1116.98,1171.24 1119.03,1167.69 1121.08,1158.15 1123.14,1141.55 1125.19,1140.38 1127.24,1253.86 1129.29,1122.57 1131.35,1213.11 1133.4,1155.72 1135.45,1186.89 1137.51,1143.82 1139.56,1156.01 1141.61,1208.36 1143.66,1160.23 1145.72,1253.7 1147.77,1240.93 1149.82,1180.2 1151.88,1154.42 1153.93,1162.11 1155.98,1202.04 1158.03,1159.56 1160.09,1201.78 1162.14,1163.38 1164.19,1156.52 1166.25,1172.7 1168.3,1185.19 1170.35,1165.34 1172.4,1162.13 1174.46,1161.63 1176.51,1143.28 1178.56,1143.67 1180.62,1149.83 1182.67,1165.19 1184.72,1168.32 1186.77,1170.85 1188.83,1083.41 1190.88,1544.16 1192.93,-1026.26 1194.99,2592.77 1197.04,2270.31 1199.09,2785.46 1201.15,2741.46 1203.2,1327.3 1205.25,1253.45 1207.3,1271.56 1209.36,1281.17 1211.41,1093.91 1213.46,1219.96 1215.52,1070.8 1217.57,1308.66 1219.62,1117.03 1221.67,1193.47 1223.73,1237.39 1225.78,1188.44 1227.83,1188.42 1229.89,1175.01 1231.94,1155.48 1233.99,1186.88 1236.04,1164.85 1238.1,1179.81 1240.15,1117.22 1242.2,1191.7 1244.26,1149.3 1246.31,1193.89 1248.36,1110.01 1250.41,1198.08 1252.47,1143.67 1254.52,1151.36 1256.57,1139.95 1258.63,966.521 1260.68,867.039 1262.73,1015.86 1264.78,1226.45 1266.84,1035.04 1268.89,1245.06 1270.94,1154.85 1273,1131.97 1275.05,1174.61 1277.1,1398.88 1279.16,1148.26 1281.21,1139.1 1283.26,955.786 1285.31,1250.31 1287.37,1112.15 1289.42,1138.8 1291.47,1117.32 1293.53,1196.74 1295.58,1207.24 1297.63,1159.25 1299.68,1184.79 1301.74,1239.9 1303.79,1052.01 1305.84,1235.37 1307.9,1129.37 1309.95,1187.55 1312,1172.98 1314.05,1171.9 1316.11,1187.29 1318.16,1144.12 1320.21,1214.64 1322.27,1154.89 1324.32,1215.96 1326.37,1224.94 1328.42,1277.87 1330.48,1305.1 1332.53,1176.6 1334.58,1163.97 1336.64,1185.25 1338.69,1176.23 1340.74,1158.57 1342.79,1163.83 1344.85,1161.41 1346.9,1203.65 1348.95,1262.2 1351.01,1158.43 1353.06,1176.67 1355.11,1172.74 1357.16,1160.04 1359.22,1125.07 1361.27,1145.57 1363.32,1176.75 1365.38,1166 1367.43,1195.83 1369.48,1174.3 1371.54,1165.77 1373.59,1133.01 1375.64,1127.78 1377.69,1150.87 1379.75,1164.46 1381.8,1144.44 1383.85,1186.62 1385.91,1188.91 1387.96,1183.28 1390.01,1199.22 1392.06,1242.57 1394.12,1049.65 1396.17,1077.91 1398.22,1201.1 1400.28,1218.99 1402.33,1170.79 1404.38,1159.77 1406.43,1163.16 1408.49,1159.74 1410.54,1123.06 1412.59,933.968 1414.65,1524.78 1416.7,960.604 1418.75,1144.25 1420.8,1140.94 1422.86,1179.71 1424.91,1198.92 1426.96,1159.67 1429.02,1165.56 1431.07,1127.15 1433.12,1182.51 1435.17,1136.9 1437.23,1126.31 1439.28,1114.71 1441.33,1255.81 1443.39,1154.49 1445.44,1179.25 1447.49,1217.11 1449.55,1214.42 1451.6,1289.98 1453.65,1331.07 1455.7,1184.52 1457.76,1170.72 1459.81,1171.22 1461.86,1150.08 1463.92,1177.42 1465.97,1121.83 1468.02,1145 1470.07,1207.7 1472.13,1145.46 1474.18,1174.78 1476.23,1156.6 1478.29,833.862 1480.34,1152.04 1482.39,1203.96 1484.44,998.917 1486.5,1460.26 1488.55,1114.5 1490.6,1213.87 1492.66,1279.6 1494.71,1155.16 1496.76,1201.02 1498.81,1202.56 1500.87,1138.85 1502.92,1173.52 1504.97,1167.15 1507.03,1210.66 1509.08,1171.68 1511.13,1163.39 1513.18,1196.83 1515.24,1160.47 1517.29,1171.17 1519.34,1160.37 1521.4,1189.71 1523.45,1213.68 1525.5,1228.77 1527.55,1221.31 1529.61,1193.54 1531.66,1174.33 1533.71,1175.77 1535.77,1205.31 1537.82,1169.67 1539.87,1052.94 1541.93,1158.45 1543.98,1171.06 1546.03,1310.7 1548.08,1188.63 1550.14,1025.31 1552.19,897.204 1554.24,921.225 1556.3,1044.12 1558.35,1088.04 1560.4,1169.13 1562.45,1167.46 1564.51,1163.58 1566.56,1137.85 1568.61,1164.47 1570.67,1144.06 1572.72,1150.19 1574.77,1154.39 1576.82,1207.65 1578.88,1113.46 1580.93,1183.22 1582.98,1161.68 1585.04,1151.08 1587.09,1149.86 1589.14,1307.46 1591.19,1210.77 1593.25,1171.06 1595.3,1170.39 1597.35,1224.21 1599.41,1074.91 1601.46,1247.98 1603.51,1170.12 1605.56,1223.74 1607.62,852.701 1609.67,1912.12 1611.72,2543.56 1613.78,454.941 1615.83,782.352 1617.88,972.026 1619.94,1299.27 1621.99,1175.31 1624.04,1086.42 1626.09,1420.72 1628.15,1303.47 1630.2,1507.65 1632.25,1375.38 1634.31,1426.64 1636.36,1143.44 1638.41,1177 1640.46,1156.62 1642.52,1114.65 1644.57,1049.46 1646.62,1219.25 1648.68,1230.21 1650.73,1195.44 1652.78,1137 1654.83,1154.62 1656.89,1144.49 1658.94,1213.98 1660.99,1152.17 1663.05,1230.71 1665.1,1229.14 1667.15,1120.15 1669.2,1128.01 1671.26,1207.69 1673.31,1135 1675.36,1211.54 1677.42,1156.09 1679.47,1182.22 1681.52,1093.67 1683.57,1076.97 1685.63,1023 1687.68,1135.28 1689.73,1147.94 1691.79,1134.35 1693.84,1135.97 1695.89,973.074 1697.94,1086.22 1700,995.23 1702.05,1126.82 1704.1,1135.3 1706.16,1168.17 1708.21,1181.47 1710.26,1191.5 1712.32,1156.31 1714.37,1139.57 1716.42,1138.46 1718.47,1140.3 1720.53,1205.21 1722.58,1191.23 1724.63,1135.79 1726.69,1207.34 1728.74,1124.16 1730.79,1097.27 1732.84,1096.12 1734.9,1294.74 1736.95,1010.58 1739,1172.76 1741.06,1241.17 1743.11,1173.59 1745.16,1166.89 1747.21,1190.68 1749.27,1791.66 1751.32,1245.01 1753.37,1029.24 1755.43,890.333 1757.48,942.639 1759.53,1130.58 1761.58,1209.28 1763.64,1152.43 1765.69,1120.82 1767.74,1302.13 1769.8,1290.04 1771.85,1147.31 1773.9,1172.68 1775.95,1152.07 1778.01,1161.86 1780.06,1102.04 1782.11,1402.13 1784.17,1183.92 1786.22,1146.45 1788.27,1167.51 1790.33,1296.85 1792.38,1288.01 1794.43,1448.78 1796.48,1387.83 1798.54,1144.54 1800.59,1176.2 1802.64,1177.49 1804.7,1177.13 1806.75,1148.83 1808.8,1185.61 1810.85,1162.66 1812.91,1169.87 1814.96,1180.88 1817.01,1165.7 1819.07,1183.36 1821.12,1154.55 1823.17,1153.73 1825.22,1131.42 1827.28,1277.54 1829.33,996.645 1831.38,909.408 1833.44,1151.14 1835.49,1207.76 1837.54,1024.29 1839.59,1266.42 1841.65,1272.07 1843.7,1134.47 1845.75,1001.62 1847.81,1312.17 1849.86,1113.76 1851.91,1168.42 1853.96,1127.53 1856.02,1081.58 1858.07,1106.44 1860.12,1248.53 1862.18,1186.26 1864.23,1149.08 1866.28,1177.26 1868.34,1121.7 1870.39,1033.15 1872.44,988.404 1874.49,1146.42 1876.55,3623.74 1878.6,3584.61 1880.65,201.587 1882.71,3801.99 1884.76,-344.159 1886.81,-222.067 1888.86,939.416 1890.92,963.581 1892.97,1156.45 1895.02,1186.85 1897.08,1134.03 1899.13,1194.86 1901.18,1144.03 1903.23,1160.11 1905.29,1164.49 1907.34,1188.39 1909.39,1139.38 1911.45,1182.91 1913.5,1015.78 1915.55,1278.92 1917.6,595.351 1919.66,1417.94 1921.71,1117.22 1923.76,1155.51 1925.82,1169.22 1927.87,1158.18 1929.92,1164.57 1931.97,1149.12 1934.03,1126.24 1936.08,1176.35 1938.13,1155.15 1940.19,1172.82 1942.24,1157.69 1944.29,1160.16 1946.34,1090.63 1948.4,1107.58 1950.45,1166.67 1952.5,1158.7 1954.56,1167.84 1956.61,1153.4 1958.66,1314.47 1960.72,1241.25 1962.77,1193.48 1964.82,1082.18 1966.87,1084.14 1968.93,1065.04 1970.98,1190.94 1973.03,1173.18 1975.09,1152.12 1977.14,1144.41 1979.19,1191.98 1981.24,1211.37 1983.3,1150.74 1985.35,1184.84 1987.4,1141.05 1989.46,1153.52 1991.51,1166.64 1993.56,1168.69 1995.61,1190.35 1997.67,1186.62 1999.72,1283.78 2001.77,1150.12 2003.83,1183.93 2005.88,1294.05 2007.93,1322.79 2009.98,1157.67 2012.04,1160.91 2014.09,1150.84 2016.14,1200.4 2018.2,1195.55 2020.25,1193.26 2022.3,1144.07 2024.35,1154.93 2026.41,1172.57 2028.46,1166.6 2030.51,1147.67 2032.57,1198.58 2034.62,1172.93 2036.67,1225.19 2038.73,1161 2040.78,1088.49 2042.83,1153.62 2044.88,1156.71 2046.94,1160.34 2048.99,1082.42 2051.04,991.125 2053.1,1136.21 2055.15,807.246 2057.2,1101.07 2059.25,1217.88 2061.31,1072.47 2063.36,2814.21 2065.41,-670.551 2067.47,-9607.62 2069.52,-15153.4 2071.57,4391.34 2073.62,-1406.53 2075.68,4997.22 2077.73,2824.79 2079.78,733.816 2081.84,1573.09 2083.89,163.946 2085.94,1181.52 2087.99,1161.76 2090.05,1182 2092.1,1133.5 2094.15,1176.69 2096.21,1106.47 2098.26,1531.26 2100.31,1056.77 2102.36,1259.92 2104.42,1161.7 2106.47,1070.08 2108.52,1070.66 2110.58,1179.75 2112.63,1177.08 2114.68,1173.44 2116.73,1169.46 2118.79,1199.85 2120.84,1183.7 2122.89,1155.31 2124.95,1143.3 2127,1199.73 2129.05,1182.77 2131.11,1156.01 2133.16,1249.24 2135.21,1085.87 2137.26,1218.05 2139.32,1110.57 2141.37,1227.09 2143.42,1068.12 2145.48,1139.46 2147.53,1207.29 2149.58,1147.71 2151.63,1163.2 2153.69,1156.7 2155.74,1176.27 2157.79,1179.79 2159.85,1168.1 2161.9,1178.95 2163.95,1150.66 2166,1185 2168.06,1166.61 2170.11,1219.86 2172.16,1187.29 2174.22,1157.63 2176.27,1055.54 2178.32,1280.67 2180.37,1165.38 2182.43,1168.65 2184.48,1104.55 2186.53,1155 2188.59,1154.83 2190.64,1204.74 2192.69,921.479 2194.74,806.974 2196.8,1161.51 2198.85,1224.07 2200.9,1172.56 2202.96,1164 2205.01,1214.19 2207.06,1157.79 2209.12,1165.48 2211.17,1175.96 2213.22,1172.08 2215.27,1161.35 2217.33,1162.62 2219.38,1161.26 2221.43,1177.51 2223.49,1170.06 2225.54,1210.02 2227.59,1140.11 2229.64,1165.01 2231.7,1168.65 2233.75,1277.25 2235.8,906.702 2237.86,824.778 2239.91,5891.05 2241.96,3360.26 2244.01,-800.939 2246.07,810.422 2248.12,1007.15 2250.17,1119.28 2252.23,804.217 2254.28,685.764 2256.33,1105.49 2258.38,1307.7 2260.44,1172.27 2262.49,2022.26 2264.54,2317.71 2266.6,4953.9 2268.65,-5392.23 2270.7,428.374 2272.75,2385.53 2274.81,-1037.41 2276.86,1234.17 2278.91,1036.01 2280.97,1027.82 2283.02,1225.02 2285.07,1169.66 2287.12,1162.07 2289.18,1167.91 2291.23,1155.97 "/>
<path clip-path="url(#clip040)" d="M1942.7 1465.14 L2280.29 1465.14 L2280.29 1361.46 L1942.7 1361.46  Z" fill="#ffffff" fill-rule="evenodd" fill-opacity="1"/>
<polyline clip-path="url(#clip040)" style="stroke:#000000; stroke-linecap:round; stroke-linejoin:round; stroke-width:4; stroke-opacity:1; fill:none" points="1942.7,1465.14 2280.29,1465.14 2280.29,1361.46 1942.7,1361.46 1942.7,1465.14 "/>
<polyline clip-path="url(#clip040)" style="stroke:#009af9; stroke-linecap:round; stroke-linejoin:round; stroke-width:4; stroke-opacity:1; fill:none" points="1966.85,1413.3 2111.78,1413.3 "/>
<path clip-path="url(#clip040)" d="M2161.49 1425.65 L2161.49 1416.37 L2153.85 1416.37 L2153.85 1412.53 L2166.12 1412.53 L2166.12 1427.36 Q2163.41 1429.28 2160.14 1430.28 Q2156.88 1431.25 2153.18 1431.25 Q2145.07 1431.25 2140.49 1426.53 Q2135.93 1421.78 2135.93 1413.34 Q2135.93 1404.86 2140.49 1400.14 Q2145.07 1395.4 2153.18 1395.4 Q2156.56 1395.4 2159.59 1396.23 Q2162.64 1397.06 2165.21 1398.68 L2165.21 1403.66 Q2162.62 1401.46 2159.7 1400.35 Q2156.79 1399.24 2153.57 1399.24 Q2147.23 1399.24 2144.03 1402.78 Q2140.86 1406.32 2140.86 1413.34 Q2140.86 1420.33 2144.03 1423.87 Q2147.23 1427.41 2153.57 1427.41 Q2156.05 1427.41 2157.99 1426.99 Q2159.94 1426.55 2161.49 1425.65 Z" fill="#000000" fill-rule="nonzero" fill-opacity="1" /><path clip-path="url(#clip040)" d="M2179.33 1399.86 L2179.33 1412.85 L2185.21 1412.85 Q2188.48 1412.85 2190.26 1411.16 Q2192.04 1409.47 2192.04 1406.35 Q2192.04 1403.24 2190.26 1401.55 Q2188.48 1399.86 2185.21 1399.86 L2179.33 1399.86 M2174.66 1396.02 L2185.21 1396.02 Q2191.02 1396.02 2193.99 1398.66 Q2196.97 1401.28 2196.97 1406.35 Q2196.97 1411.46 2193.99 1414.08 Q2191.02 1416.69 2185.21 1416.69 L2179.33 1416.69 L2179.33 1430.58 L2174.66 1430.58 L2174.66 1396.02 Z" fill="#000000" fill-rule="nonzero" fill-opacity="1" /><path clip-path="url(#clip040)" d="M2223.96 1397.16 L2223.96 1401.72 Q2221.3 1400.44 2218.94 1399.82 Q2216.58 1399.19 2214.38 1399.19 Q2210.56 1399.19 2208.48 1400.67 Q2206.42 1402.16 2206.42 1404.89 Q2206.42 1407.18 2207.78 1408.36 Q2209.17 1409.52 2213.01 1410.23 L2215.84 1410.81 Q2221.07 1411.81 2223.55 1414.33 Q2226.05 1416.83 2226.05 1421.04 Q2226.05 1426.07 2222.67 1428.66 Q2219.31 1431.25 2212.81 1431.25 Q2210.35 1431.25 2207.57 1430.7 Q2204.82 1430.14 2201.86 1429.05 L2201.86 1424.24 Q2204.7 1425.84 2207.44 1426.65 Q2210.17 1427.46 2212.81 1427.46 Q2216.81 1427.46 2218.99 1425.88 Q2221.16 1424.31 2221.16 1421.39 Q2221.16 1418.85 2219.59 1417.41 Q2218.04 1415.97 2214.47 1415.26 L2211.62 1414.7 Q2206.39 1413.66 2204.06 1411.44 Q2201.72 1409.22 2201.72 1405.26 Q2201.72 1400.67 2204.94 1398.03 Q2208.18 1395.4 2213.85 1395.4 Q2216.28 1395.4 2218.8 1395.84 Q2221.32 1396.28 2223.96 1397.16 Z" fill="#000000" fill-rule="nonzero" fill-opacity="1" /><path clip-path="url(#clip040)" d="M2254.06 1397.16 L2254.06 1401.72 Q2251.39 1400.44 2249.03 1399.82 Q2246.67 1399.19 2244.47 1399.19 Q2240.65 1399.19 2238.57 1400.67 Q2236.51 1402.16 2236.51 1404.89 Q2236.51 1407.18 2237.87 1408.36 Q2239.26 1409.52 2243.11 1410.23 L2245.93 1410.81 Q2251.16 1411.81 2253.64 1414.33 Q2256.14 1416.83 2256.14 1421.04 Q2256.14 1426.07 2252.76 1428.66 Q2249.4 1431.25 2242.9 1431.25 Q2240.44 1431.25 2237.67 1430.7 Q2234.91 1430.14 2231.95 1429.05 L2231.95 1424.24 Q2234.8 1425.84 2237.53 1426.65 Q2240.26 1427.46 2242.9 1427.46 Q2246.9 1427.46 2249.08 1425.88 Q2251.25 1424.31 2251.25 1421.39 Q2251.25 1418.85 2249.68 1417.41 Q2248.13 1415.97 2244.56 1415.26 L2241.72 1414.7 Q2236.49 1413.66 2234.15 1411.44 Q2231.81 1409.22 2231.81 1405.26 Q2231.81 1400.67 2235.03 1398.03 Q2238.27 1395.4 2243.94 1395.4 Q2246.37 1395.4 2248.89 1395.84 Q2251.42 1396.28 2254.06 1397.16 Z" fill="#000000" fill-rule="nonzero" fill-opacity="1" /></svg>
