<?xml version="1.0" encoding="utf-8"?>
<svg xmlns="http://www.w3.org/2000/svg" xmlns:xlink="http://www.w3.org/1999/xlink" width="600" height="400" viewBox="0 0 2400 1600">
<defs>
  <clipPath id="clip240">
    <rect x="0" y="0" width="2400" height="1600"/>
  </clipPath>
</defs>
<path clip-path="url(#clip240)" d="M0 1600 L2400 1600 L2400 0 L0 0  Z" fill="#ffffff" fill-rule="evenodd" fill-opacity="1"/>
<defs>
  <clipPath id="clip241">
    <rect x="480" y="0" width="1681" height="1600"/>
  </clipPath>
</defs>
<path clip-path="url(#clip240)" d="M178.867 686.448 L2352.76 686.448 L2352.76 47.2441 L178.867 47.2441  Z" fill="#ffffff" fill-rule="evenodd" fill-opacity="1"/>
<defs>
  <clipPath id="clip242">
    <rect x="178" y="47" width="2175" height="640"/>
  </clipPath>
</defs>
<polyline clip-path="url(#clip242)" style="stroke:#000000; stroke-linecap:round; stroke-linejoin:round; stroke-width:2; stroke-opacity:0.1; fill:none" points="238.339,686.448 238.339,47.2441 "/>
<polyline clip-path="url(#clip242)" style="stroke:#000000; stroke-linecap:round; stroke-linejoin:round; stroke-width:2; stroke-opacity:0.1; fill:none" points="751.562,686.448 751.562,47.2441 "/>
<polyline clip-path="url(#clip242)" style="stroke:#000000; stroke-linecap:round; stroke-linejoin:round; stroke-width:2; stroke-opacity:0.1; fill:none" points="1264.78,686.448 1264.78,47.2441 "/>
<polyline clip-path="url(#clip242)" style="stroke:#000000; stroke-linecap:round; stroke-linejoin:round; stroke-width:2; stroke-opacity:0.1; fill:none" points="1778.01,686.448 1778.01,47.2441 "/>
<polyline clip-path="url(#clip242)" style="stroke:#000000; stroke-linecap:round; stroke-linejoin:round; stroke-width:2; stroke-opacity:0.1; fill:none" points="2291.23,686.448 2291.23,47.2441 "/>
<polyline clip-path="url(#clip242)" style="stroke:#000000; stroke-linecap:round; stroke-linejoin:round; stroke-width:2; stroke-opacity:0.1; fill:none" points="178.867,686.448 2352.76,686.448 "/>
<polyline clip-path="url(#clip242)" style="stroke:#000000; stroke-linecap:round; stroke-linejoin:round; stroke-width:2; stroke-opacity:0.1; fill:none" points="178.867,526.647 2352.76,526.647 "/>
<polyline clip-path="url(#clip242)" style="stroke:#000000; stroke-linecap:round; stroke-linejoin:round; stroke-width:2; stroke-opacity:0.1; fill:none" points="178.867,366.846 2352.76,366.846 "/>
<polyline clip-path="url(#clip242)" style="stroke:#000000; stroke-linecap:round; stroke-linejoin:round; stroke-width:2; stroke-opacity:0.1; fill:none" points="178.867,207.045 2352.76,207.045 "/>
<polyline clip-path="url(#clip242)" style="stroke:#000000; stroke-linecap:round; stroke-linejoin:round; stroke-width:2; stroke-opacity:0.1; fill:none" points="178.867,47.2441 2352.76,47.2441 "/>
<polyline clip-path="url(#clip240)" style="stroke:#000000; stroke-linecap:round; stroke-linejoin:round; stroke-width:4; stroke-opacity:1; fill:none" points="178.867,686.448 2352.76,686.448 "/>
<polyline clip-path="url(#clip240)" style="stroke:#000000; stroke-linecap:round; stroke-linejoin:round; stroke-width:4; stroke-opacity:1; fill:none" points="238.339,686.448 238.339,667.55 "/>
<polyline clip-path="url(#clip240)" style="stroke:#000000; stroke-linecap:round; stroke-linejoin:round; stroke-width:4; stroke-opacity:1; fill:none" points="751.562,686.448 751.562,667.55 "/>
<polyline clip-path="url(#clip240)" style="stroke:#000000; stroke-linecap:round; stroke-linejoin:round; stroke-width:4; stroke-opacity:1; fill:none" points="1264.78,686.448 1264.78,667.55 "/>
<polyline clip-path="url(#clip240)" style="stroke:#000000; stroke-linecap:round; stroke-linejoin:round; stroke-width:4; stroke-opacity:1; fill:none" points="1778.01,686.448 1778.01,667.55 "/>
<polyline clip-path="url(#clip240)" style="stroke:#000000; stroke-linecap:round; stroke-linejoin:round; stroke-width:4; stroke-opacity:1; fill:none" points="2291.23,686.448 2291.23,667.55 "/>
<path clip-path="url(#clip240)" d="M238.339 717.367 Q234.728 717.367 232.899 720.931 Q231.094 724.473 231.094 731.603 Q231.094 738.709 232.899 742.274 Q234.728 745.815 238.339 745.815 Q241.973 745.815 243.779 742.274 Q245.607 738.709 245.607 731.603 Q245.607 724.473 243.779 720.931 Q241.973 717.367 238.339 717.367 M238.339 713.663 Q244.149 713.663 247.205 718.269 Q250.283 722.853 250.283 731.603 Q250.283 740.329 247.205 744.936 Q244.149 749.519 238.339 749.519 Q232.529 749.519 229.45 744.936 Q226.395 740.329 226.395 731.603 Q226.395 722.853 229.45 718.269 Q232.529 713.663 238.339 713.663 Z" fill="#000000" fill-rule="nonzero" fill-opacity="1" /><path clip-path="url(#clip240)" d="M715.254 744.913 L731.574 744.913 L731.574 748.848 L709.629 748.848 L709.629 744.913 Q712.291 742.158 716.875 737.528 Q721.481 732.876 722.662 731.533 Q724.907 729.01 725.787 727.274 Q726.689 725.515 726.689 723.825 Q726.689 721.07 724.745 719.334 Q722.824 717.598 719.722 717.598 Q717.523 717.598 715.069 718.362 Q712.638 719.126 709.861 720.677 L709.861 715.955 Q712.685 714.82 715.138 714.242 Q717.592 713.663 719.629 713.663 Q725 713.663 728.194 716.348 Q731.388 719.033 731.388 723.524 Q731.388 725.654 730.578 727.575 Q729.791 729.473 727.685 732.066 Q727.106 732.737 724.004 735.954 Q720.902 739.149 715.254 744.913 Z" fill="#000000" fill-rule="nonzero" fill-opacity="1" /><path clip-path="url(#clip240)" d="M741.435 714.288 L759.791 714.288 L759.791 718.223 L745.717 718.223 L745.717 726.695 Q746.736 726.348 747.754 726.186 Q748.773 726.001 749.791 726.001 Q755.578 726.001 758.958 729.172 Q762.337 732.343 762.337 737.76 Q762.337 743.339 758.865 746.44 Q755.393 749.519 749.073 749.519 Q746.898 749.519 744.629 749.149 Q742.384 748.778 739.976 748.038 L739.976 743.339 Q742.06 744.473 744.282 745.028 Q746.504 745.584 748.981 745.584 Q752.985 745.584 755.323 743.478 Q757.661 741.371 757.661 737.76 Q757.661 734.149 755.323 732.042 Q752.985 729.936 748.981 729.936 Q747.106 729.936 745.231 730.353 Q743.379 730.769 741.435 731.649 L741.435 714.288 Z" fill="#000000" fill-rule="nonzero" fill-opacity="1" /><path clip-path="url(#clip240)" d="M781.55 717.367 Q777.939 717.367 776.11 720.931 Q774.305 724.473 774.305 731.603 Q774.305 738.709 776.11 742.274 Q777.939 745.815 781.55 745.815 Q785.184 745.815 786.99 742.274 Q788.819 738.709 788.819 731.603 Q788.819 724.473 786.99 720.931 Q785.184 717.367 781.55 717.367 M781.55 713.663 Q787.36 713.663 790.416 718.269 Q793.495 722.853 793.495 731.603 Q793.495 740.329 790.416 744.936 Q787.36 749.519 781.55 749.519 Q775.74 749.519 772.661 744.936 Q769.606 740.329 769.606 731.603 Q769.606 722.853 772.661 718.269 Q775.74 713.663 781.55 713.663 Z" fill="#000000" fill-rule="nonzero" fill-opacity="1" /><path clip-path="url(#clip240)" d="M1224.4 714.288 L1242.76 714.288 L1242.76 718.223 L1228.69 718.223 L1228.69 726.695 Q1229.7 726.348 1230.72 726.186 Q1231.74 726.001 1232.76 726.001 Q1238.55 726.001 1241.93 729.172 Q1245.31 732.343 1245.31 737.76 Q1245.31 743.339 1241.83 746.44 Q1238.36 749.519 1232.04 749.519 Q1229.87 749.519 1227.6 749.149 Q1225.35 748.778 1222.94 748.038 L1222.94 743.339 Q1225.03 744.473 1227.25 745.028 Q1229.47 745.584 1231.95 745.584 Q1235.95 745.584 1238.29 743.478 Q1240.63 741.371 1240.63 737.76 Q1240.63 734.149 1238.29 732.042 Q1235.95 729.936 1231.95 729.936 Q1230.07 729.936 1228.2 730.353 Q1226.35 730.769 1224.4 731.649 L1224.4 714.288 Z" fill="#000000" fill-rule="nonzero" fill-opacity="1" /><path clip-path="url(#clip240)" d="M1264.52 717.367 Q1260.91 717.367 1259.08 720.931 Q1257.27 724.473 1257.27 731.603 Q1257.27 738.709 1259.08 742.274 Q1260.91 745.815 1264.52 745.815 Q1268.15 745.815 1269.96 742.274 Q1271.79 738.709 1271.79 731.603 Q1271.79 724.473 1269.96 720.931 Q1268.15 717.367 1264.52 717.367 M1264.52 713.663 Q1270.33 713.663 1273.38 718.269 Q1276.46 722.853 1276.46 731.603 Q1276.46 740.329 1273.38 744.936 Q1270.33 749.519 1264.52 749.519 Q1258.71 749.519 1255.63 744.936 Q1252.57 740.329 1252.57 731.603 Q1252.57 722.853 1255.63 718.269 Q1258.71 713.663 1264.52 713.663 Z" fill="#000000" fill-rule="nonzero" fill-opacity="1" /><path clip-path="url(#clip240)" d="M1294.68 717.367 Q1291.07 717.367 1289.24 720.931 Q1287.44 724.473 1287.44 731.603 Q1287.44 738.709 1289.24 742.274 Q1291.07 745.815 1294.68 745.815 Q1298.31 745.815 1300.12 742.274 Q1301.95 738.709 1301.95 731.603 Q1301.95 724.473 1300.12 720.931 Q1298.31 717.367 1294.68 717.367 M1294.68 713.663 Q1300.49 713.663 1303.55 718.269 Q1306.62 722.853 1306.62 731.603 Q1306.62 740.329 1303.55 744.936 Q1300.49 749.519 1294.68 749.519 Q1288.87 749.519 1285.79 744.936 Q1282.74 740.329 1282.74 731.603 Q1282.74 722.853 1285.79 718.269 Q1288.87 713.663 1294.68 713.663 Z" fill="#000000" fill-rule="nonzero" fill-opacity="1" /><path clip-path="url(#clip240)" d="M1736.28 714.288 L1758.51 714.288 L1758.51 716.279 L1745.96 748.848 L1741.08 748.848 L1752.88 718.223 L1736.28 718.223 L1736.28 714.288 Z" fill="#000000" fill-rule="nonzero" fill-opacity="1" /><path clip-path="url(#clip240)" d="M1767.67 714.288 L1786.03 714.288 L1786.03 718.223 L1771.95 718.223 L1771.95 726.695 Q1772.97 726.348 1773.99 726.186 Q1775.01 726.001 1776.03 726.001 Q1781.82 726.001 1785.2 729.172 Q1788.57 732.343 1788.57 737.76 Q1788.57 743.339 1785.1 746.44 Q1781.63 749.519 1775.31 749.519 Q1773.14 749.519 1770.87 749.149 Q1768.62 748.778 1766.21 748.038 L1766.21 743.339 Q1768.3 744.473 1770.52 745.028 Q1772.74 745.584 1775.22 745.584 Q1779.22 745.584 1781.56 743.478 Q1783.9 741.371 1783.9 737.76 Q1783.9 734.149 1781.56 732.042 Q1779.22 729.936 1775.22 729.936 Q1773.34 729.936 1771.47 730.353 Q1769.62 730.769 1767.67 731.649 L1767.67 714.288 Z" fill="#000000" fill-rule="nonzero" fill-opacity="1" /><path clip-path="url(#clip240)" d="M1807.79 717.367 Q1804.18 717.367 1802.35 720.931 Q1800.54 724.473 1800.54 731.603 Q1800.54 738.709 1802.35 742.274 Q1804.18 745.815 1807.79 745.815 Q1811.42 745.815 1813.23 742.274 Q1815.06 738.709 1815.06 731.603 Q1815.06 724.473 1813.23 720.931 Q1811.42 717.367 1807.79 717.367 M1807.79 713.663 Q1813.6 713.663 1816.65 718.269 Q1819.73 722.853 1819.73 731.603 Q1819.73 740.329 1816.65 744.936 Q1813.6 749.519 1807.79 749.519 Q1801.98 749.519 1798.9 744.936 Q1795.84 740.329 1795.84 731.603 Q1795.84 722.853 1798.9 718.269 Q1801.98 713.663 1807.79 713.663 Z" fill="#000000" fill-rule="nonzero" fill-opacity="1" /><path clip-path="url(#clip240)" d="M2235.76 744.913 L2243.4 744.913 L2243.4 718.547 L2235.09 720.214 L2235.09 715.955 L2243.35 714.288 L2248.02 714.288 L2248.02 744.913 L2255.66 744.913 L2255.66 748.848 L2235.76 748.848 L2235.76 744.913 Z" fill="#000000" fill-rule="nonzero" fill-opacity="1" /><path clip-path="url(#clip240)" d="M2275.11 717.367 Q2271.5 717.367 2269.67 720.931 Q2267.86 724.473 2267.86 731.603 Q2267.86 738.709 2269.67 742.274 Q2271.5 745.815 2275.11 745.815 Q2278.74 745.815 2280.55 742.274 Q2282.38 738.709 2282.38 731.603 Q2282.38 724.473 2280.55 720.931 Q2278.74 717.367 2275.11 717.367 M2275.11 713.663 Q2280.92 713.663 2283.97 718.269 Q2287.05 722.853 2287.05 731.603 Q2287.05 740.329 2283.97 744.936 Q2280.92 749.519 2275.11 749.519 Q2269.3 749.519 2266.22 744.936 Q2263.16 740.329 2263.16 731.603 Q2263.16 722.853 2266.22 718.269 Q2269.3 713.663 2275.11 713.663 Z" fill="#000000" fill-rule="nonzero" fill-opacity="1" /><path clip-path="url(#clip240)" d="M2305.27 717.367 Q2301.66 717.367 2299.83 720.931 Q2298.02 724.473 2298.02 731.603 Q2298.02 738.709 2299.83 742.274 Q2301.66 745.815 2305.27 745.815 Q2308.9 745.815 2310.71 742.274 Q2312.54 738.709 2312.54 731.603 Q2312.54 724.473 2310.71 720.931 Q2308.9 717.367 2305.27 717.367 M2305.27 713.663 Q2311.08 713.663 2314.14 718.269 Q2317.21 722.853 2317.21 731.603 Q2317.21 740.329 2314.14 744.936 Q2311.08 749.519 2305.27 749.519 Q2299.46 749.519 2296.38 744.936 Q2293.33 740.329 2293.33 731.603 Q2293.33 722.853 2296.38 718.269 Q2299.46 713.663 2305.27 713.663 Z" fill="#000000" fill-rule="nonzero" fill-opacity="1" /><path clip-path="url(#clip240)" d="M2335.43 717.367 Q2331.82 717.367 2329.99 720.931 Q2328.19 724.473 2328.19 731.603 Q2328.19 738.709 2329.99 742.274 Q2331.82 745.815 2335.43 745.815 Q2339.07 745.815 2340.87 742.274 Q2342.7 738.709 2342.7 731.603 Q2342.7 724.473 2340.87 720.931 Q2339.07 717.367 2335.43 717.367 M2335.43 713.663 Q2341.24 713.663 2344.3 718.269 Q2347.38 722.853 2347.38 731.603 Q2347.38 740.329 2344.3 744.936 Q2341.24 749.519 2335.43 749.519 Q2329.62 749.519 2326.54 744.936 Q2323.49 740.329 2323.49 731.603 Q2323.49 722.853 2326.54 718.269 Q2329.62 713.663 2335.43 713.663 Z" fill="#000000" fill-rule="nonzero" fill-opacity="1" /><polyline clip-path="url(#clip240)" style="stroke:#000000; stroke-linecap:round; stroke-linejoin:round; stroke-width:4; stroke-opacity:1; fill:none" points="178.867,686.448 178.867,47.2441 "/>
<polyline clip-path="url(#clip240)" style="stroke:#000000; stroke-linecap:round; stroke-linejoin:round; stroke-width:4; stroke-opacity:1; fill:none" points="178.867,686.448 197.764,686.448 "/>
<polyline clip-path="url(#clip240)" style="stroke:#000000; stroke-linecap:round; stroke-linejoin:round; stroke-width:4; stroke-opacity:1; fill:none" points="178.867,526.647 197.764,526.647 "/>
<polyline clip-path="url(#clip240)" style="stroke:#000000; stroke-linecap:round; stroke-linejoin:round; stroke-width:4; stroke-opacity:1; fill:none" points="178.867,366.846 197.764,366.846 "/>
<polyline clip-path="url(#clip240)" style="stroke:#000000; stroke-linecap:round; stroke-linejoin:round; stroke-width:4; stroke-opacity:1; fill:none" points="178.867,207.045 197.764,207.045 "/>
<polyline clip-path="url(#clip240)" style="stroke:#000000; stroke-linecap:round; stroke-linejoin:round; stroke-width:4; stroke-opacity:1; fill:none" points="178.867,47.2441 197.764,47.2441 "/>
<path clip-path="url(#clip240)" d="M50.9921 686.899 L80.6679 686.899 L80.6679 690.834 L50.9921 690.834 L50.9921 686.899 Z" fill="#000000" fill-rule="nonzero" fill-opacity="1" /><path clip-path="url(#clip240)" d="M91.5706 699.793 L99.2095 699.793 L99.2095 673.427 L90.8993 675.094 L90.8993 670.835 L99.1632 669.168 L103.839 669.168 L103.839 699.793 L111.478 699.793 L111.478 703.728 L91.5706 703.728 L91.5706 699.793 Z" fill="#000000" fill-rule="nonzero" fill-opacity="1" /><path clip-path="url(#clip240)" d="M130.922 672.247 Q127.311 672.247 125.482 675.811 Q123.677 679.353 123.677 686.483 Q123.677 693.589 125.482 697.154 Q127.311 700.695 130.922 700.695 Q134.556 700.695 136.362 697.154 Q138.191 693.589 138.191 686.483 Q138.191 679.353 136.362 675.811 Q134.556 672.247 130.922 672.247 M130.922 668.543 Q136.732 668.543 139.788 673.149 Q142.867 677.733 142.867 686.483 Q142.867 695.209 139.788 699.816 Q136.732 704.399 130.922 704.399 Q125.112 704.399 122.033 699.816 Q118.978 695.209 118.978 686.483 Q118.978 677.733 122.033 673.149 Q125.112 668.543 130.922 668.543 Z" fill="#000000" fill-rule="nonzero" fill-opacity="1" /><path clip-path="url(#clip240)" d="M82.1494 527.098 L111.825 527.098 L111.825 531.033 L82.1494 531.033 L82.1494 527.098 Z" fill="#000000" fill-rule="nonzero" fill-opacity="1" /><path clip-path="url(#clip240)" d="M121.964 509.367 L140.32 509.367 L140.32 513.302 L126.246 513.302 L126.246 521.774 Q127.265 521.427 128.283 521.265 Q129.302 521.08 130.32 521.08 Q136.107 521.08 139.487 524.251 Q142.867 527.422 142.867 532.839 Q142.867 538.418 139.394 541.52 Q135.922 544.598 129.603 544.598 Q127.427 544.598 125.158 544.228 Q122.913 543.857 120.506 543.117 L120.506 538.418 Q122.589 539.552 124.811 540.108 Q127.033 540.663 129.51 540.663 Q133.515 540.663 135.853 538.557 Q138.191 536.45 138.191 532.839 Q138.191 529.228 135.853 527.121 Q133.515 525.015 129.51 525.015 Q127.635 525.015 125.76 525.432 Q123.908 525.848 121.964 526.728 L121.964 509.367 Z" fill="#000000" fill-rule="nonzero" fill-opacity="1" /><path clip-path="url(#clip240)" d="M130.922 352.645 Q127.311 352.645 125.482 356.209 Q123.677 359.751 123.677 366.881 Q123.677 373.987 125.482 377.552 Q127.311 381.094 130.922 381.094 Q134.556 381.094 136.362 377.552 Q138.191 373.987 138.191 366.881 Q138.191 359.751 136.362 356.209 Q134.556 352.645 130.922 352.645 M130.922 348.941 Q136.732 348.941 139.788 353.547 Q142.867 358.131 142.867 366.881 Q142.867 375.608 139.788 380.214 Q136.732 384.797 130.922 384.797 Q125.112 384.797 122.033 380.214 Q118.978 375.608 118.978 366.881 Q118.978 358.131 122.033 353.547 Q125.112 348.941 130.922 348.941 Z" fill="#000000" fill-rule="nonzero" fill-opacity="1" /><path clip-path="url(#clip240)" d="M121.964 189.765 L140.32 189.765 L140.32 193.7 L126.246 193.7 L126.246 202.172 Q127.265 201.825 128.283 201.663 Q129.302 201.478 130.32 201.478 Q136.107 201.478 139.487 204.649 Q142.867 207.82 142.867 213.237 Q142.867 218.816 139.394 221.918 Q135.922 224.996 129.603 224.996 Q127.427 224.996 125.158 224.626 Q122.913 224.256 120.506 223.515 L120.506 218.816 Q122.589 219.95 124.811 220.506 Q127.033 221.061 129.51 221.061 Q133.515 221.061 135.853 218.955 Q138.191 216.848 138.191 213.237 Q138.191 209.626 135.853 207.52 Q133.515 205.413 129.51 205.413 Q127.635 205.413 125.76 205.83 Q123.908 206.246 121.964 207.126 L121.964 189.765 Z" fill="#000000" fill-rule="nonzero" fill-opacity="1" /><path clip-path="url(#clip240)" d="M91.5706 60.5889 L99.2095 60.5889 L99.2095 34.2233 L90.8993 35.89 L90.8993 31.6308 L99.1632 29.9641 L103.839 29.9641 L103.839 60.5889 L111.478 60.5889 L111.478 64.5241 L91.5706 64.5241 L91.5706 60.5889 Z" fill="#000000" fill-rule="nonzero" fill-opacity="1" /><path clip-path="url(#clip240)" d="M130.922 33.0428 Q127.311 33.0428 125.482 36.6076 Q123.677 40.1492 123.677 47.2788 Q123.677 54.3853 125.482 57.9501 Q127.311 61.4917 130.922 61.4917 Q134.556 61.4917 136.362 57.9501 Q138.191 54.3853 138.191 47.2788 Q138.191 40.1492 136.362 36.6076 Q134.556 33.0428 130.922 33.0428 M130.922 29.3391 Q136.732 29.3391 139.788 33.9456 Q142.867 38.5289 142.867 47.2788 Q142.867 56.0056 139.788 60.6121 Q136.732 65.1954 130.922 65.1954 Q125.112 65.1954 122.033 60.6121 Q118.978 56.0056 118.978 47.2788 Q118.978 38.5289 122.033 33.9456 Q125.112 29.3391 130.922 29.3391 Z" fill="#000000" fill-rule="nonzero" fill-opacity="1" /><polyline clip-path="url(#clip242)" style="stroke:#009af9; stroke-linecap:round; stroke-linejoin:round; stroke-width:4; stroke-opacity:1; fill:none" points="240.392,334.886 242.445,327.493 244.498,376.561 246.55,376.54 248.603,379.031 250.656,379.29 252.709,334.184 254.762,335.078 256.815,334.43 258.868,335.525 260.921,350.909 262.974,350.554 265.027,350.793 267.079,356.685 269.132,380.119 271.185,379.332 273.238,379.362 275.291,389.37 277.344,396.008 279.397,395.956 281.45,393.726 283.503,393.402 285.555,392.217 287.608,411.733 289.661,417.384 291.714,417.144 293.767,416.201 295.82,427.639 297.873,421.101 299.926,421.067 301.979,420.957 304.031,420.88 306.084,420.925 308.137,429.897 310.19,407.42 312.243,374.234 314.296,385.11 316.349,384.732 318.402,328.88 320.455,325.532 322.507,325.404 324.56,324.536 326.613,323.233 328.666,366.682 330.719,366.358 332.772,378.256 334.825,374.761 336.878,374.849 338.931,371.803 340.984,376.055 343.036,376.634 345.089,377.68 347.142,378.833 349.195,377.576 351.248,378.851 353.301,382.998 355.354,385.916 357.407,378.718 359.46,356.801 361.512,357.631 363.565,358.472 365.618,359.362 367.671,365.54 369.724,360.344 371.777,360.424 373.83,364.085 375.883,364.084 377.936,362.604 379.988,363.985 382.041,364.074 384.094,369.354 386.147,366.129 388.2,380.575 390.253,386.845 392.306,388.33 394.359,396.091 396.412,397.272 398.464,352.79 400.517,352.78 402.57,340.88 404.623,330.665 406.676,332.085 408.729,332.061 410.782,332.137 412.835,325.769 414.888,327.12 416.94,338.031 418.993,369.899 421.046,370.437 423.099,374.093 425.152,377.072 427.205,384.514 429.258,384.991 431.311,385.481 433.364,379.279 435.417,375.423 437.469,375.123 439.522,383.748 441.575,383.057 443.628,382.291 445.681,382.505 447.734,329.684 449.787,315.239 451.84,313.496 453.893,315.374 455.945,324.26 457.998,327.017 460.051,330.571 462.104,331.435 464.157,333.68 466.21,334.138 468.263,343.24 470.316,343.27 472.369,335.261 474.421,335.895 476.474,348.073 478.527,347.314 480.58,351.387 482.633,347.875 484.686,339.171 486.739,340.123 488.792,333.564 490.845,337.26 492.897,337.999 494.95,336.84 497.003,336.839 499.056,397.233 501.109,397.414 503.162,395.801 505.215,395.758 507.268,349.051 509.321,348.44 511.374,351.129 513.426,348.511 515.479,348.393 517.532,348.271 519.585,349.851 521.638,349.043 523.691,349.806 525.744,343.722 527.797,345.726 529.85,336.845 531.902,336.454 533.955,336.112 536.008,336.256 538.061,385.564 540.114,391.426 542.167,391.464 544.22,393.862 546.273,393.864 548.326,393.904 550.378,395.662 552.431,394.126 554.484,393.985 556.537,394.759 558.59,396.533 560.643,395.472 562.696,388.507 564.749,388.383 566.802,388.738 568.854,388.646 570.907,388.9 572.96,387.65 575.013,387.587 577.066,389.176 579.119,389.173 581.172,391.276 583.225,396.975 585.278,382.156 587.331,381.289 589.383,381.157 591.436,362.519 593.489,362.806 595.542,374.577 597.595,365.112 599.648,362.287 601.701,353.949 603.754,355.104 605.807,354.303 607.859,350.827 609.912,347.195 611.965,365.178 614.018,366.756 616.071,356.027 618.124,356.002 620.177,369.833 622.23,369.828 624.283,375.038 626.335,374.664 628.388,373.956 630.441,373.927 632.494,374.609 634.547,374.943 636.6,374.907 638.653,374.815 640.706,374.891 642.759,373.638 644.811,374.628 646.864,393.812 648.917,392.297 650.97,387.45 653.023,386.516 655.076,385.947 657.129,380.863 659.182,376.647 661.235,376.137 663.288,402.646 665.34,396.573 667.393,406.174 669.446,380.715 671.499,385.757 673.552,340.841 675.605,341.806 677.658,339.771 679.711,344.469 681.764,344.346 683.816,414.71 685.869,414.408 687.922,416.805 689.975,417.329 692.028,413.825 694.081,430.491 696.134,431.905 698.187,414.011 700.24,413.356 702.292,413.304 704.345,414.706 706.398,412.228 708.451,405.324 710.504,396.427 712.557,398.796 714.61,396.747 716.663,379.004 718.716,384.049 720.768,384.081 722.821,384.046 724.874,385.311 726.927,393.225 728.98,393.242 731.033,393.905 733.086,393.92 735.139,398.026 737.192,384.127 739.245,380.658 741.297,380.52 743.35,361.971 745.403,358.13 747.456,356.16 749.509,347.828 751.562,346.723 753.615,350.366 755.668,373.48 757.721,381.183 759.773,382.299 761.826,385.144 763.879,385.102 765.932,405.492 767.985,406.523 770.038,402.486 772.091,376.73 774.144,375.582 776.197,376.403 778.249,377.467 780.302,378.15 782.355,377.296 784.408,368.503 786.461,383.003 788.514,384.077 790.567,380.416 792.62,381.479 794.673,386.707 796.725,382.602 798.778,386.063 800.831,392.801 802.884,389.071 804.937,391.436 806.99,392.813 809.043,392.757 811.096,395.18 813.149,395.273 815.202,398.592 817.254,395.211 819.307,368.237 821.36,368.286 823.413,349.944 825.466,349.489 827.519,366.134 829.572,366.867 831.625,367.176 833.678,355.586 835.73,350.93 837.783,377.143 839.836,385.33 841.889,384.822 843.942,384.815 845.995,369.724 848.048,353.713 850.101,352.259 852.154,341.38 854.206,338.028 856.259,338.381 858.312,338.357 860.365,349.766 862.418,343.689 864.471,342.379 866.524,341.283 868.577,341.424 870.63,341.129 872.682,341.967 874.735,336.566 876.788,319.953 878.841,320.527 880.894,383.904 882.947,380.423 885,381.538 887.053,381.788 889.106,388.347 891.159,385.471 893.211,381.979 895.264,386.989 897.317,349.006 899.37,395.689 901.423,395.765 903.476,394.174 905.529,392.689 907.582,392.693 909.635,394.377 911.687,391.199 913.74,372.321 915.793,372.554 917.846,391.947 919.899,391.987 921.952,392.392 924.005,393.718 926.058,384.491 928.111,380.15 930.163,379.694 932.216,379.795 934.269,382.405 936.322,382.326 938.375,346.329 940.428,346.956 942.481,349.798 944.534,375.069 946.587,360.911 948.639,345.098 950.692,347.841 952.745,348.516 954.798,348.793 956.851,348.101 958.904,342.251 960.957,324.625 963.01,369.107 965.063,359.32 967.116,363.177 969.168,370.87 971.221,365.65 973.274,368.307 975.327,384.379 977.38,391.245 979.433,365.592 981.486,347.931 983.539,347.982 985.592,359.759 987.644,359.756 989.697,363.329 991.75,364.077 993.803,361.12 995.856,360.733 997.909,352.521 999.962,358.601 1002.01,341.144 1004.07,338.515 1006.12,357.474 1008.17,351.064 1010.23,350.721 1012.28,350.957 1014.33,351.504 1016.38,348.311 1018.44,348.29 1020.49,348.853 1022.54,348.882 1024.6,348.836 1026.65,349.373 1028.7,350.258 1030.76,345.15 1032.81,345.394 1034.86,345.262 1036.91,348.562 1038.97,355.89 1041.02,351.69 1043.07,350.729 1045.13,349.434 1047.18,343.007 1049.23,350.471 1051.28,354.877 1053.34,353.573 1055.39,358.078 1057.44,357.882 1059.5,357.463 1061.55,357.553 1063.6,352.482 1065.65,361.356 1067.71,360.95 1069.76,360.586 1071.81,359.849 1073.87,357.891 1075.92,359.417 1077.97,359.169 1080.02,359.151 1082.08,358.999 1084.13,358.891 1086.18,358.762 1088.24,357.905 1090.29,357.66 1092.34,357.07 1094.39,369.367 1096.45,369.672 1098.5,369.693 1100.55,369.794 1102.61,371.989 1104.66,361.703 1106.71,361.714 1108.77,363.709 1110.82,363.607 1112.87,362.989 1114.92,368.056 1116.98,368.242 1119.03,366.441 1121.08,370.742 1123.14,343.942 1125.19,343.305 1127.24,342.178 1129.29,342.189 1131.35,341.95 1133.4,347.91 1135.45,354.717 1137.51,366.876 1139.56,362.23 1141.61,361.971 1143.66,361.955 1145.72,357.759 1147.77,358.412 1149.82,358.108 1151.88,354.829 1153.93,352.194 1155.98,387.688 1158.03,392.481 1160.09,392.242 1162.14,392.247 1164.19,392.098 1166.25,387.465 1168.3,394.212 1170.35,384.201 1172.4,379.993 1174.46,386.251 1176.51,404.028 1178.56,406.216 1180.62,340.095 1182.67,340.214 1184.72,365.346 1186.77,367.456 1188.83,367.552 1190.88,361.321 1192.93,357.134 1194.99,355.385 1197.04,360.112 1199.09,361.162 1201.15,361.049 1203.2,366.623 1205.25,366.226 1207.3,379.628 1209.36,379.186 1211.41,378.404 1213.46,378.271 1215.52,369.18 1217.57,373.233 1219.62,373.191 1221.67,372.662 1223.73,372.193 1225.78,375.591 1227.83,367.675 1229.89,367.812 1231.94,367.865 1233.99,361.976 1236.04,361.238 1238.1,361.239 1240.15,357.498 1242.2,367.088 1244.26,367.03 1246.31,368.05 1248.36,369.377 1250.41,378.776 1252.47,387.366 1254.52,383.811 1256.57,341.044 1258.63,341.622 1260.68,340.802 1262.73,381.673 1264.78,382.516 1266.84,385.113 1268.89,381.719 1270.94,374.354 1273,380.357 1275.05,380.655 1277.1,369.903 1279.16,369.798 1281.21,376.925 1283.26,376.917 1285.31,372.48 1287.37,376.862 1289.42,376.619 1291.47,379.881 1293.53,386.246 1295.58,394.197 1297.63,389.314 1299.68,390.03 1301.74,388.139 1303.79,381.695 1305.84,373.467 1307.9,369.689 1309.95,379.196 1312,380.614 1314.05,364.146 1316.11,363.847 1318.16,367.085 1320.21,365.952 1322.27,365.909 1324.32,376.697 1326.37,377.443 1328.42,364.602 1330.48,364.596 1332.53,369.323 1334.58,369.368 1336.64,374.833 1338.69,372.649 1340.74,372.707 1342.79,377.88 1344.85,341.748 1346.9,339.984 1348.95,338.712 1351.01,341.59 1353.06,341.634 1355.11,394.643 1357.16,388.498 1359.22,388.235 1361.27,404.109 1363.32,390.918 1365.38,389.312 1367.43,389.327 1369.48,388.962 1371.54,388.951 1373.59,379.765 1375.64,382.55 1377.69,382.709 1379.75,363.844 1381.8,362.661 1383.85,402.91 1385.91,376.089 1387.96,375.468 1390.01,376.016 1392.06,376.018 1394.12,377.24 1396.17,377.602 1398.22,377.738 1400.28,377.737 1402.33,375.14 1404.38,365.135 1406.43,365.115 1408.49,368.311 1410.54,326.98 1412.59,329.974 1414.65,384.789 1416.7,374.54 1418.75,374.767 1420.8,359.026 1422.86,366.668 1424.91,365.79 1426.96,359.139 1429.02,359.141 1431.07,355.688 1433.12,357.185 1435.17,357.185 1437.23,353.712 1439.28,325.346 1441.33,322.755 1443.39,314.861 1445.44,314.458 1447.49,343.415 1449.55,343.9 1451.6,345.805 1453.65,356.075 1455.7,358.549 1457.76,365.067 1459.81,365.054 1461.86,367.891 1463.92,365.219 1465.97,334.073 1468.02,349.834 1470.07,347.076 1472.13,347.255 1474.18,347.679 1476.23,334.51 1478.29,333.908 1480.34,327.686 1482.39,337.724 1484.44,346.794 1486.5,345.701 1488.55,326.282 1490.6,340.897 1492.66,341.162 1494.71,337.362 1496.76,338.375 1498.81,340.51 1500.87,315.842 1502.92,317.668 1504.97,318.752 1507.03,318.044 1509.08,308.53 1511.13,313.742 1513.18,334.273 1515.24,334.705 1517.29,342.118 1519.34,341.823 1521.4,340.155 1523.45,341.023 1525.5,341.723 1527.55,364.701 1529.61,364.608 1531.66,364.788 1533.71,371.869 1535.77,364.728 1537.82,364.266 1539.87,363.034 1541.93,369.475 1543.98,379.403 1546.03,379.633 1548.08,379.403 1550.14,381.472 1552.19,382.032 1554.24,387.346 1556.3,387.59 1558.35,386.87 1560.4,386.114 1562.45,376.059 1564.51,380.302 1566.56,376.358 1568.61,360.561 1570.67,360.591 1572.72,360.571 1574.77,360.86 1576.82,361.592 1578.88,363.869 1580.93,363.497 1582.98,364.053 1585.04,385.544 1587.09,384.108 1589.14,392.4 1591.19,392.387 1593.25,383.878 1595.3,370.781 1597.35,370.694 1599.41,373.879 1601.46,396.401 1603.51,397.089 1605.56,386.751 1607.62,386.859 1609.67,379.019 1611.72,379.237 1613.78,379.33 1615.83,314.529 1617.88,314.53 1619.94,320.14 1621.99,321.834 1624.04,321.836 1626.09,320.205 1628.15,319.785 1630.2,319.782 1632.25,328.891 1634.31,327.539 1636.36,331.464 1638.41,382.259 1640.46,381.985 1642.52,380.965 1644.57,383.028 1646.62,379.819 1648.68,379.238 1650.73,376.265 1652.78,374.48 1654.83,373.583 1656.89,375.868 1658.94,362.403 1660.99,362.33 1663.05,363.175 1665.1,363.221 1667.15,358.76 1669.2,359.83 1671.26,393.802 1673.31,393.963 1675.36,396.335 1677.42,396.367 1679.47,396.42 1681.52,401.456 1683.57,324.888 1685.63,326.895 1687.68,326.562 1689.73,326.697 1691.79,327.09 1693.84,327.645 1695.89,328.31 1697.94,328.788 1700,330.402 1702.05,332.042 1704.1,300.366 1706.16,301.611 1708.21,299.022 1710.26,298.536 1712.32,301.312 1714.37,320.105 1716.42,324.343 1718.47,324.321 1720.53,324.969 1722.58,323.258 1724.63,317.063 1726.69,313.76 1728.74,324.135 1730.79,322.579 1732.84,322.773 1734.9,309.14 1736.95,371.444 1739,361.411 1741.06,360.976 1743.11,389.948 1745.16,391.261 1747.21,378.685 1749.27,378.637 1751.32,379.193 1753.37,349.434 1755.43,350.053 1757.48,349.688 1759.53,350.714 1761.58,348.394 1763.64,333.431 1765.69,335.162 1767.74,335.038 1769.8,335.005 1771.85,334.504 1773.9,337.745 1775.95,341.455 1778.01,341.967 1780.06,358.354 1782.11,358.347 1784.17,358.505 1786.22,355.965 1788.27,355.951 1790.33,362.766 1792.38,351.375 1794.43,350.631 1796.48,348.704 1798.54,341.224 1800.59,368.409 1802.64,373.437 1804.7,362.264 1806.75,362.025 1808.8,361.585 1810.85,361.46 1812.91,356.683 1814.96,353.56 1817.01,353.61 1819.07,345.187 1821.12,344.606 1823.17,343.148 1825.22,346.705 1827.28,347.034 1829.33,355.867 1831.38,354.132 1833.44,354.151 1835.49,354.157 1837.54,352.578 1839.59,350.652 1841.65,350.733 1843.7,351.416 1845.75,358.227 1847.81,360.823 1849.86,366.037 1851.91,375.02 1853.96,380.936 1856.02,350.874 1858.07,349.332 1860.12,349.319 1862.18,361.516 1864.23,362.145 1866.28,329.485 1868.34,346.737 1870.39,346.858 1872.44,376.617 1874.49,375.911 1876.55,382.248 1878.6,382.736 1880.65,382.656 1882.71,389.326 1884.76,389.27 1886.81,393.616 1888.86,405.117 1890.92,405.188 1892.97,405.344 1895.02,405.706 1897.08,390.438 1899.13,390.467 1901.18,390.95 1903.23,368.198 1905.29,356.368 1907.34,345.752 1909.39,345.725 1911.45,361.265 1913.5,362.347 1915.55,362.369 1917.6,368.8 1919.66,349.31 1921.71,363.151 1923.76,362.824 1925.82,362.813 1927.87,362.906 1929.92,363.387 1931.97,363.429 1934.03,358.999 1936.08,358.975 1938.13,359.68 1940.19,358.868 1942.24,358.721 1944.29,360.313 1946.34,361.295 1948.4,365.177 1950.45,365.272 1952.5,363.773 1954.56,369.334 1956.61,372.73 1958.66,377.862 1960.72,377.738 1962.77,379.591 1964.82,379.141 1966.87,378.27 1968.93,379.173 1970.98,379.171 1973.03,379.225 1975.09,336.107 1977.14,336.14 1979.19,335.44 1981.24,335.349 1983.3,334.985 1985.35,336.361 1987.4,336.295 1989.46,336.356 1991.51,336.734 1993.56,336.977 1995.61,339.134 1997.67,340.088 1999.72,334.147 2001.77,333.551 2003.83,333.123 2005.88,332.353 2007.93,332.164 2009.98,332.153 2012.04,331.944 2014.09,331.027 2016.14,331.017 2018.2,330.971 2020.25,329.331 2022.3,329.878 2024.35,329.114 2026.41,332.689 2028.46,332.715 2030.51,332.729 2032.57,331.034 2034.62,358.624 2036.67,358.352 2038.73,393.705 2040.78,384.39 2042.83,384.69 2044.88,394.492 2046.94,401.298 2048.99,393.072 2051.04,392.861 2053.1,392.545 2055.15,401.014 2057.2,399.318 2059.25,399.561 2061.31,391.844 2063.36,391.255 2065.41,398.093 2067.47,394.604 2069.52,400.998 2071.57,397.816 2073.62,370.574 2075.68,412.446 2077.73,411.73 2079.78,391.634 2081.84,388.746 2083.89,398.134 2085.94,407.946 2087.99,411.557 2090.05,417.762 2092.1,418.506 2094.15,409.19 2096.21,409.119 2098.26,408.793 2100.31,408.62 2102.36,409.462 2104.42,426.554 2106.47,426.55 2108.52,416.608 2110.58,413.135 2112.63,415.149 2114.68,423.826 2116.73,411.822 2118.79,419.658 2120.84,357.031 2122.89,355.128 2124.95,347.221 2127,350.132 2129.05,350.12 2131.11,349.841 2133.16,355.831 2135.21,356.259 2137.26,358.847 2139.32,372.368 2141.37,372.576 2143.42,367.737 2145.48,336.026 2147.53,335.651 2149.58,334.246 2151.63,437.112 2153.69,437.771 2155.74,436.699 2157.79,431.823 2159.85,437.78 2161.9,431.503 2163.95,330.711 2166,330.145 2168.06,333.662 2170.11,384.784 2172.16,394.114 2174.22,372.704 2176.27,362.24 2178.32,392.809 2180.37,392.785 2182.43,383.997 2184.48,383.263 2186.53,386.127 2188.59,380.85 2190.64,391.725 2192.69,390.148 2194.74,384.616 2196.8,378.112 2198.85,384.512 2200.9,384.614 2202.96,493.022 2205.01,492.661 2207.06,491.551 2209.12,499.408 2211.17,521.853 2213.22,520.512 2215.27,522.63 2217.33,385.939 2219.38,456.035 2221.43,469.535 2223.49,455.539 2225.54,438.968 2227.59,443.908 2229.64,437.942 2231.7,432.156 2233.75,477.629 2235.8,444.515 2237.86,443.407 2239.91,387.391 2241.96,386.611 2244.01,414.184 2246.07,415.437 2248.12,449.642 2250.17,161.942 2252.23,250.341 2254.28,311.886 2256.33,180.727 2258.38,124.03 2260.44,127.956 2262.49,96.7814 2264.54,92.4034 2266.6,102.803 2268.65,115.501 2270.7,108.218 2272.75,119.742 2274.81,125.649 2276.86,121.551 2278.91,120.895 2280.97,120.312 2283.02,120.838 2285.07,132.127 2287.12,149.73 2289.18,138.215 2291.23,201.551 "/>
<path clip-path="url(#clip240)" d="M251.33 172.231 L548.024 172.231 L548.024 68.5509 L251.33 68.5509  Z" fill="#ffffff" fill-rule="evenodd" fill-opacity="1"/>
<polyline clip-path="url(#clip240)" style="stroke:#000000; stroke-linecap:round; stroke-linejoin:round; stroke-width:4; stroke-opacity:1; fill:none" points="251.33,172.231 548.024,172.231 548.024,68.5509 251.33,68.5509 251.33,172.231 "/>
<polyline clip-path="url(#clip240)" style="stroke:#009af9; stroke-linecap:round; stroke-linejoin:round; stroke-width:4; stroke-opacity:1; fill:none" points="275.484,120.391 420.41,120.391 "/>
<path clip-path="url(#clip240)" d="M444.564 103.111 L449.24 103.111 L449.24 133.736 L466.069 133.736 L466.069 137.671 L444.564 137.671 L444.564 103.111 Z" fill="#000000" fill-rule="nonzero" fill-opacity="1" /><path clip-path="url(#clip240)" d="M491.694 104.245 L491.694 108.805 Q489.032 107.532 486.67 106.907 Q484.309 106.282 482.11 106.282 Q478.291 106.282 476.208 107.764 Q474.147 109.245 474.147 111.977 Q474.147 114.268 475.513 115.449 Q476.902 116.606 480.745 117.324 L483.569 117.902 Q488.8 118.898 491.277 121.421 Q493.777 123.921 493.777 128.134 Q493.777 133.157 490.397 135.75 Q487.041 138.342 480.536 138.342 Q478.083 138.342 475.305 137.787 Q472.55 137.231 469.587 136.143 L469.587 131.328 Q472.434 132.926 475.166 133.736 Q477.897 134.546 480.536 134.546 Q484.541 134.546 486.717 132.972 Q488.893 131.398 488.893 128.481 Q488.893 125.935 487.319 124.5 Q485.768 123.064 482.203 122.347 L479.356 121.791 Q474.124 120.75 471.786 118.527 Q469.448 116.305 469.448 112.347 Q469.448 107.764 472.666 105.125 Q475.907 102.486 481.578 102.486 Q484.008 102.486 486.532 102.926 Q489.055 103.366 491.694 104.245 Z" fill="#000000" fill-rule="nonzero" fill-opacity="1" /><path clip-path="url(#clip240)" d="M521.786 104.245 L521.786 108.805 Q519.124 107.532 516.763 106.907 Q514.402 106.282 512.203 106.282 Q508.383 106.282 506.3 107.764 Q504.24 109.245 504.24 111.977 Q504.24 114.268 505.606 115.449 Q506.994 116.606 510.837 117.324 L513.661 117.902 Q518.893 118.898 521.369 121.421 Q523.869 123.921 523.869 128.134 Q523.869 133.157 520.49 135.75 Q517.133 138.342 510.629 138.342 Q508.175 138.342 505.397 137.787 Q502.643 137.231 499.68 136.143 L499.68 131.328 Q502.527 132.926 505.258 133.736 Q507.99 134.546 510.629 134.546 Q514.633 134.546 516.809 132.972 Q518.985 131.398 518.985 128.481 Q518.985 125.935 517.411 124.5 Q515.86 123.064 512.295 122.347 L509.448 121.791 Q504.217 120.75 501.879 118.527 Q499.541 116.305 499.541 112.347 Q499.541 107.764 502.758 105.125 Q505.999 102.486 511.67 102.486 Q514.101 102.486 516.624 102.926 Q519.147 103.366 521.786 104.245 Z" fill="#000000" fill-rule="nonzero" fill-opacity="1" /><path clip-path="url(#clip240)" d="M178.867 1486.45 L2352.76 1486.45 L2352.76 847.244 L178.867 847.244  Z" fill="#ffffff" fill-rule="evenodd" fill-opacity="1"/>
<defs>
  <clipPath id="clip243">
    <rect x="178" y="847" width="2175" height="640"/>
  </clipPath>
</defs>
<polyline clip-path="url(#clip243)" style="stroke:#000000; stroke-linecap:round; stroke-linejoin:round; stroke-width:2; stroke-opacity:0.1; fill:none" points="238.339,1486.45 238.339,847.244 "/>
<polyline clip-path="url(#clip243)" style="stroke:#000000; stroke-linecap:round; stroke-linejoin:round; stroke-width:2; stroke-opacity:0.1; fill:none" points="751.562,1486.45 751.562,847.244 "/>
<polyline clip-path="url(#clip243)" style="stroke:#000000; stroke-linecap:round; stroke-linejoin:round; stroke-width:2; stroke-opacity:0.1; fill:none" points="1264.78,1486.45 1264.78,847.244 "/>
<polyline clip-path="url(#clip243)" style="stroke:#000000; stroke-linecap:round; stroke-linejoin:round; stroke-width:2; stroke-opacity:0.1; fill:none" points="1778.01,1486.45 1778.01,847.244 "/>
<polyline clip-path="url(#clip243)" style="stroke:#000000; stroke-linecap:round; stroke-linejoin:round; stroke-width:2; stroke-opacity:0.1; fill:none" points="2291.23,1486.45 2291.23,847.244 "/>
<polyline clip-path="url(#clip243)" style="stroke:#000000; stroke-linecap:round; stroke-linejoin:round; stroke-width:2; stroke-opacity:0.1; fill:none" points="178.867,1486.45 2352.76,1486.45 "/>
<polyline clip-path="url(#clip243)" style="stroke:#000000; stroke-linecap:round; stroke-linejoin:round; stroke-width:2; stroke-opacity:0.1; fill:none" points="178.867,1326.65 2352.76,1326.65 "/>
<polyline clip-path="url(#clip243)" style="stroke:#000000; stroke-linecap:round; stroke-linejoin:round; stroke-width:2; stroke-opacity:0.1; fill:none" points="178.867,1166.85 2352.76,1166.85 "/>
<polyline clip-path="url(#clip243)" style="stroke:#000000; stroke-linecap:round; stroke-linejoin:round; stroke-width:2; stroke-opacity:0.1; fill:none" points="178.867,1007.05 2352.76,1007.05 "/>
<polyline clip-path="url(#clip243)" style="stroke:#000000; stroke-linecap:round; stroke-linejoin:round; stroke-width:2; stroke-opacity:0.1; fill:none" points="178.867,847.244 2352.76,847.244 "/>
<polyline clip-path="url(#clip240)" style="stroke:#000000; stroke-linecap:round; stroke-linejoin:round; stroke-width:4; stroke-opacity:1; fill:none" points="178.867,1486.45 2352.76,1486.45 "/>
<polyline clip-path="url(#clip240)" style="stroke:#000000; stroke-linecap:round; stroke-linejoin:round; stroke-width:4; stroke-opacity:1; fill:none" points="238.339,1486.45 238.339,1467.55 "/>
<polyline clip-path="url(#clip240)" style="stroke:#000000; stroke-linecap:round; stroke-linejoin:round; stroke-width:4; stroke-opacity:1; fill:none" points="751.562,1486.45 751.562,1467.55 "/>
<polyline clip-path="url(#clip240)" style="stroke:#000000; stroke-linecap:round; stroke-linejoin:round; stroke-width:4; stroke-opacity:1; fill:none" points="1264.78,1486.45 1264.78,1467.55 "/>
<polyline clip-path="url(#clip240)" style="stroke:#000000; stroke-linecap:round; stroke-linejoin:round; stroke-width:4; stroke-opacity:1; fill:none" points="1778.01,1486.45 1778.01,1467.55 "/>
<polyline clip-path="url(#clip240)" style="stroke:#000000; stroke-linecap:round; stroke-linejoin:round; stroke-width:4; stroke-opacity:1; fill:none" points="2291.23,1486.45 2291.23,1467.55 "/>
<path clip-path="url(#clip240)" d="M238.339 1517.37 Q234.728 1517.37 232.899 1520.93 Q231.094 1524.47 231.094 1531.6 Q231.094 1538.71 232.899 1542.27 Q234.728 1545.82 238.339 1545.82 Q241.973 1545.82 243.779 1542.27 Q245.607 1538.71 245.607 1531.6 Q245.607 1524.47 243.779 1520.93 Q241.973 1517.37 238.339 1517.37 M238.339 1513.66 Q244.149 1513.66 247.205 1518.27 Q250.283 1522.85 250.283 1531.6 Q250.283 1540.33 247.205 1544.94 Q244.149 1549.52 238.339 1549.52 Q232.529 1549.52 229.45 1544.94 Q226.395 1540.33 226.395 1531.6 Q226.395 1522.85 229.45 1518.27 Q232.529 1513.66 238.339 1513.66 Z" fill="#000000" fill-rule="nonzero" fill-opacity="1" /><path clip-path="url(#clip240)" d="M715.254 1544.91 L731.574 1544.91 L731.574 1548.85 L709.629 1548.85 L709.629 1544.91 Q712.291 1542.16 716.875 1537.53 Q721.481 1532.88 722.662 1531.53 Q724.907 1529.01 725.787 1527.27 Q726.689 1525.51 726.689 1523.82 Q726.689 1521.07 724.745 1519.33 Q722.824 1517.6 719.722 1517.6 Q717.523 1517.6 715.069 1518.36 Q712.638 1519.13 709.861 1520.68 L709.861 1515.95 Q712.685 1514.82 715.138 1514.24 Q717.592 1513.66 719.629 1513.66 Q725 1513.66 728.194 1516.35 Q731.388 1519.03 731.388 1523.52 Q731.388 1525.65 730.578 1527.57 Q729.791 1529.47 727.685 1532.07 Q727.106 1532.74 724.004 1535.95 Q720.902 1539.15 715.254 1544.91 Z" fill="#000000" fill-rule="nonzero" fill-opacity="1" /><path clip-path="url(#clip240)" d="M741.435 1514.29 L759.791 1514.29 L759.791 1518.22 L745.717 1518.22 L745.717 1526.7 Q746.736 1526.35 747.754 1526.19 Q748.773 1526 749.791 1526 Q755.578 1526 758.958 1529.17 Q762.337 1532.34 762.337 1537.76 Q762.337 1543.34 758.865 1546.44 Q755.393 1549.52 749.073 1549.52 Q746.898 1549.52 744.629 1549.15 Q742.384 1548.78 739.976 1548.04 L739.976 1543.34 Q742.06 1544.47 744.282 1545.03 Q746.504 1545.58 748.981 1545.58 Q752.985 1545.58 755.323 1543.48 Q757.661 1541.37 757.661 1537.76 Q757.661 1534.15 755.323 1532.04 Q752.985 1529.94 748.981 1529.94 Q747.106 1529.94 745.231 1530.35 Q743.379 1530.77 741.435 1531.65 L741.435 1514.29 Z" fill="#000000" fill-rule="nonzero" fill-opacity="1" /><path clip-path="url(#clip240)" d="M781.55 1517.37 Q777.939 1517.37 776.11 1520.93 Q774.305 1524.47 774.305 1531.6 Q774.305 1538.71 776.11 1542.27 Q777.939 1545.82 781.55 1545.82 Q785.184 1545.82 786.99 1542.27 Q788.819 1538.71 788.819 1531.6 Q788.819 1524.47 786.99 1520.93 Q785.184 1517.37 781.55 1517.37 M781.55 1513.66 Q787.36 1513.66 790.416 1518.27 Q793.495 1522.85 793.495 1531.6 Q793.495 1540.33 790.416 1544.94 Q787.36 1549.52 781.55 1549.52 Q775.74 1549.52 772.661 1544.94 Q769.606 1540.33 769.606 1531.6 Q769.606 1522.85 772.661 1518.27 Q775.74 1513.66 781.55 1513.66 Z" fill="#000000" fill-rule="nonzero" fill-opacity="1" /><path clip-path="url(#clip240)" d="M1224.4 1514.29 L1242.76 1514.29 L1242.76 1518.22 L1228.69 1518.22 L1228.69 1526.7 Q1229.7 1526.35 1230.72 1526.19 Q1231.74 1526 1232.76 1526 Q1238.55 1526 1241.93 1529.17 Q1245.31 1532.34 1245.31 1537.76 Q1245.31 1543.34 1241.83 1546.44 Q1238.36 1549.52 1232.04 1549.52 Q1229.87 1549.52 1227.6 1549.15 Q1225.35 1548.78 1222.94 1548.04 L1222.94 1543.34 Q1225.03 1544.47 1227.25 1545.03 Q1229.47 1545.58 1231.95 1545.58 Q1235.95 1545.58 1238.29 1543.48 Q1240.63 1541.37 1240.63 1537.76 Q1240.63 1534.15 1238.29 1532.04 Q1235.95 1529.94 1231.95 1529.94 Q1230.07 1529.94 1228.2 1530.35 Q1226.35 1530.77 1224.4 1531.65 L1224.4 1514.29 Z" fill="#000000" fill-rule="nonzero" fill-opacity="1" /><path clip-path="url(#clip240)" d="M1264.52 1517.37 Q1260.91 1517.37 1259.08 1520.93 Q1257.27 1524.47 1257.27 1531.6 Q1257.27 1538.71 1259.08 1542.27 Q1260.91 1545.82 1264.52 1545.82 Q1268.15 1545.82 1269.96 1542.27 Q1271.79 1538.71 1271.79 1531.6 Q1271.79 1524.47 1269.96 1520.93 Q1268.15 1517.37 1264.52 1517.37 M1264.52 1513.66 Q1270.33 1513.66 1273.38 1518.27 Q1276.46 1522.85 1276.46 1531.6 Q1276.46 1540.33 1273.38 1544.94 Q1270.33 1549.52 1264.52 1549.52 Q1258.71 1549.52 1255.63 1544.94 Q1252.57 1540.33 1252.57 1531.6 Q1252.57 1522.85 1255.63 1518.27 Q1258.71 1513.66 1264.52 1513.66 Z" fill="#000000" fill-rule="nonzero" fill-opacity="1" /><path clip-path="url(#clip240)" d="M1294.68 1517.37 Q1291.07 1517.37 1289.24 1520.93 Q1287.44 1524.47 1287.44 1531.6 Q1287.44 1538.71 1289.24 1542.27 Q1291.07 1545.82 1294.68 1545.82 Q1298.31 1545.82 1300.12 1542.27 Q1301.95 1538.71 1301.95 1531.6 Q1301.95 1524.47 1300.12 1520.93 Q1298.31 1517.37 1294.68 1517.37 M1294.68 1513.66 Q1300.49 1513.66 1303.55 1518.27 Q1306.62 1522.85 1306.62 1531.6 Q1306.62 1540.33 1303.55 1544.94 Q1300.49 1549.52 1294.68 1549.52 Q1288.87 1549.52 1285.79 1544.94 Q1282.74 1540.33 1282.74 1531.6 Q1282.74 1522.85 1285.79 1518.27 Q1288.87 1513.66 1294.68 1513.66 Z" fill="#000000" fill-rule="nonzero" fill-opacity="1" /><path clip-path="url(#clip240)" d="M1736.28 1514.29 L1758.51 1514.29 L1758.51 1516.28 L1745.96 1548.85 L1741.08 1548.85 L1752.88 1518.22 L1736.28 1518.22 L1736.28 1514.29 Z" fill="#000000" fill-rule="nonzero" fill-opacity="1" /><path clip-path="url(#clip240)" d="M1767.67 1514.29 L1786.03 1514.29 L1786.03 1518.22 L1771.95 1518.22 L1771.95 1526.7 Q1772.97 1526.35 1773.99 1526.19 Q1775.01 1526 1776.03 1526 Q1781.82 1526 1785.2 1529.17 Q1788.57 1532.34 1788.57 1537.76 Q1788.57 1543.34 1785.1 1546.44 Q1781.63 1549.52 1775.31 1549.52 Q1773.14 1549.52 1770.87 1549.15 Q1768.62 1548.78 1766.21 1548.04 L1766.21 1543.34 Q1768.3 1544.47 1770.52 1545.03 Q1772.74 1545.58 1775.22 1545.58 Q1779.22 1545.58 1781.56 1543.48 Q1783.9 1541.37 1783.9 1537.76 Q1783.9 1534.15 1781.56 1532.04 Q1779.22 1529.94 1775.22 1529.94 Q1773.34 1529.94 1771.47 1530.35 Q1769.62 1530.77 1767.67 1531.65 L1767.67 1514.29 Z" fill="#000000" fill-rule="nonzero" fill-opacity="1" /><path clip-path="url(#clip240)" d="M1807.79 1517.37 Q1804.18 1517.37 1802.35 1520.93 Q1800.54 1524.47 1800.54 1531.6 Q1800.54 1538.71 1802.35 1542.27 Q1804.18 1545.82 1807.79 1545.82 Q1811.42 1545.82 1813.23 1542.27 Q1815.06 1538.71 1815.06 1531.6 Q1815.06 1524.47 1813.23 1520.93 Q1811.42 1517.37 1807.79 1517.37 M1807.79 1513.66 Q1813.6 1513.66 1816.65 1518.27 Q1819.73 1522.85 1819.73 1531.6 Q1819.73 1540.33 1816.65 1544.94 Q1813.6 1549.52 1807.79 1549.52 Q1801.98 1549.52 1798.9 1544.94 Q1795.84 1540.33 1795.84 1531.6 Q1795.84 1522.85 1798.9 1518.27 Q1801.98 1513.66 1807.79 1513.66 Z" fill="#000000" fill-rule="nonzero" fill-opacity="1" /><path clip-path="url(#clip240)" d="M2235.76 1544.91 L2243.4 1544.91 L2243.4 1518.55 L2235.09 1520.21 L2235.09 1515.95 L2243.35 1514.29 L2248.02 1514.29 L2248.02 1544.91 L2255.66 1544.91 L2255.66 1548.85 L2235.76 1548.85 L2235.76 1544.91 Z" fill="#000000" fill-rule="nonzero" fill-opacity="1" /><path clip-path="url(#clip240)" d="M2275.11 1517.37 Q2271.5 1517.37 2269.67 1520.93 Q2267.86 1524.47 2267.86 1531.6 Q2267.86 1538.71 2269.67 1542.27 Q2271.5 1545.82 2275.11 1545.82 Q2278.74 1545.82 2280.55 1542.27 Q2282.38 1538.71 2282.38 1531.6 Q2282.38 1524.47 2280.55 1520.93 Q2278.74 1517.37 2275.11 1517.37 M2275.11 1513.66 Q2280.92 1513.66 2283.97 1518.27 Q2287.05 1522.85 2287.05 1531.6 Q2287.05 1540.33 2283.97 1544.94 Q2280.92 1549.52 2275.11 1549.52 Q2269.3 1549.52 2266.22 1544.94 Q2263.16 1540.33 2263.16 1531.6 Q2263.16 1522.85 2266.22 1518.27 Q2269.3 1513.66 2275.11 1513.66 Z" fill="#000000" fill-rule="nonzero" fill-opacity="1" /><path clip-path="url(#clip240)" d="M2305.27 1517.37 Q2301.66 1517.37 2299.83 1520.93 Q2298.02 1524.47 2298.02 1531.6 Q2298.02 1538.71 2299.83 1542.27 Q2301.66 1545.82 2305.27 1545.82 Q2308.9 1545.82 2310.71 1542.27 Q2312.54 1538.71 2312.54 1531.6 Q2312.54 1524.47 2310.71 1520.93 Q2308.9 1517.37 2305.27 1517.37 M2305.27 1513.66 Q2311.08 1513.66 2314.14 1518.27 Q2317.21 1522.85 2317.21 1531.6 Q2317.21 1540.33 2314.14 1544.94 Q2311.08 1549.52 2305.27 1549.52 Q2299.46 1549.52 2296.38 1544.94 Q2293.33 1540.33 2293.33 1531.6 Q2293.33 1522.85 2296.38 1518.27 Q2299.46 1513.66 2305.27 1513.66 Z" fill="#000000" fill-rule="nonzero" fill-opacity="1" /><path clip-path="url(#clip240)" d="M2335.43 1517.37 Q2331.82 1517.37 2329.99 1520.93 Q2328.19 1524.47 2328.19 1531.6 Q2328.19 1538.71 2329.99 1542.27 Q2331.82 1545.82 2335.43 1545.82 Q2339.07 1545.82 2340.87 1542.27 Q2342.7 1538.71 2342.7 1531.6 Q2342.7 1524.47 2340.87 1520.93 Q2339.07 1517.37 2335.43 1517.37 M2335.43 1513.66 Q2341.24 1513.66 2344.3 1518.27 Q2347.38 1522.85 2347.38 1531.6 Q2347.38 1540.33 2344.3 1544.94 Q2341.24 1549.52 2335.43 1549.52 Q2329.62 1549.52 2326.54 1544.94 Q2323.49 1540.33 2323.49 1531.6 Q2323.49 1522.85 2326.54 1518.27 Q2329.62 1513.66 2335.43 1513.66 Z" fill="#000000" fill-rule="nonzero" fill-opacity="1" /><polyline clip-path="url(#clip240)" style="stroke:#000000; stroke-linecap:round; stroke-linejoin:round; stroke-width:4; stroke-opacity:1; fill:none" points="178.867,1486.45 178.867,847.244 "/>
<polyline clip-path="url(#clip240)" style="stroke:#000000; stroke-linecap:round; stroke-linejoin:round; stroke-width:4; stroke-opacity:1; fill:none" points="178.867,1486.45 197.764,1486.45 "/>
<polyline clip-path="url(#clip240)" style="stroke:#000000; stroke-linecap:round; stroke-linejoin:round; stroke-width:4; stroke-opacity:1; fill:none" points="178.867,1326.65 197.764,1326.65 "/>
<polyline clip-path="url(#clip240)" style="stroke:#000000; stroke-linecap:round; stroke-linejoin:round; stroke-width:4; stroke-opacity:1; fill:none" points="178.867,1166.85 197.764,1166.85 "/>
<polyline clip-path="url(#clip240)" style="stroke:#000000; stroke-linecap:round; stroke-linejoin:round; stroke-width:4; stroke-opacity:1; fill:none" points="178.867,1007.05 197.764,1007.05 "/>
<polyline clip-path="url(#clip240)" style="stroke:#000000; stroke-linecap:round; stroke-linejoin:round; stroke-width:4; stroke-opacity:1; fill:none" points="178.867,847.244 197.764,847.244 "/>
<path clip-path="url(#clip240)" d="M50.9921 1486.9 L80.6679 1486.9 L80.6679 1490.83 L50.9921 1490.83 L50.9921 1486.9 Z" fill="#000000" fill-rule="nonzero" fill-opacity="1" /><path clip-path="url(#clip240)" d="M91.5706 1499.79 L99.2095 1499.79 L99.2095 1473.43 L90.8993 1475.09 L90.8993 1470.83 L99.1632 1469.17 L103.839 1469.17 L103.839 1499.79 L111.478 1499.79 L111.478 1503.73 L91.5706 1503.73 L91.5706 1499.79 Z" fill="#000000" fill-rule="nonzero" fill-opacity="1" /><path clip-path="url(#clip240)" d="M130.922 1472.25 Q127.311 1472.25 125.482 1475.81 Q123.677 1479.35 123.677 1486.48 Q123.677 1493.59 125.482 1497.15 Q127.311 1500.7 130.922 1500.7 Q134.556 1500.7 136.362 1497.15 Q138.191 1493.59 138.191 1486.48 Q138.191 1479.35 136.362 1475.81 Q134.556 1472.25 130.922 1472.25 M130.922 1468.54 Q136.732 1468.54 139.788 1473.15 Q142.867 1477.73 142.867 1486.48 Q142.867 1495.21 139.788 1499.82 Q136.732 1504.4 130.922 1504.4 Q125.112 1504.4 122.033 1499.82 Q118.978 1495.21 118.978 1486.48 Q118.978 1477.73 122.033 1473.15 Q125.112 1468.54 130.922 1468.54 Z" fill="#000000" fill-rule="nonzero" fill-opacity="1" /><path clip-path="url(#clip240)" d="M82.1494 1327.1 L111.825 1327.1 L111.825 1331.03 L82.1494 1331.03 L82.1494 1327.1 Z" fill="#000000" fill-rule="nonzero" fill-opacity="1" /><path clip-path="url(#clip240)" d="M121.964 1309.37 L140.32 1309.37 L140.32 1313.3 L126.246 1313.3 L126.246 1321.77 Q127.265 1321.43 128.283 1321.27 Q129.302 1321.08 130.32 1321.08 Q136.107 1321.08 139.487 1324.25 Q142.867 1327.42 142.867 1332.84 Q142.867 1338.42 139.394 1341.52 Q135.922 1344.6 129.603 1344.6 Q127.427 1344.6 125.158 1344.23 Q122.913 1343.86 120.506 1343.12 L120.506 1338.42 Q122.589 1339.55 124.811 1340.11 Q127.033 1340.66 129.51 1340.66 Q133.515 1340.66 135.853 1338.56 Q138.191 1336.45 138.191 1332.84 Q138.191 1329.23 135.853 1327.12 Q133.515 1325.01 129.51 1325.01 Q127.635 1325.01 125.76 1325.43 Q123.908 1325.85 121.964 1326.73 L121.964 1309.37 Z" fill="#000000" fill-rule="nonzero" fill-opacity="1" /><path clip-path="url(#clip240)" d="M130.922 1152.64 Q127.311 1152.64 125.482 1156.21 Q123.677 1159.75 123.677 1166.88 Q123.677 1173.99 125.482 1177.55 Q127.311 1181.09 130.922 1181.09 Q134.556 1181.09 136.362 1177.55 Q138.191 1173.99 138.191 1166.88 Q138.191 1159.75 136.362 1156.21 Q134.556 1152.64 130.922 1152.64 M130.922 1148.94 Q136.732 1148.94 139.788 1153.55 Q142.867 1158.13 142.867 1166.88 Q142.867 1175.61 139.788 1180.21 Q136.732 1184.8 130.922 1184.8 Q125.112 1184.8 122.033 1180.21 Q118.978 1175.61 118.978 1166.88 Q118.978 1158.13 122.033 1153.55 Q125.112 1148.94 130.922 1148.94 Z" fill="#000000" fill-rule="nonzero" fill-opacity="1" /><path clip-path="url(#clip240)" d="M121.964 989.765 L140.32 989.765 L140.32 993.7 L126.246 993.7 L126.246 1002.17 Q127.265 1001.83 128.283 1001.66 Q129.302 1001.48 130.32 1001.48 Q136.107 1001.48 139.487 1004.65 Q142.867 1007.82 142.867 1013.24 Q142.867 1018.82 139.394 1021.92 Q135.922 1025 129.603 1025 Q127.427 1025 125.158 1024.63 Q122.913 1024.26 120.506 1023.51 L120.506 1018.82 Q122.589 1019.95 124.811 1020.51 Q127.033 1021.06 129.51 1021.06 Q133.515 1021.06 135.853 1018.95 Q138.191 1016.85 138.191 1013.24 Q138.191 1009.63 135.853 1007.52 Q133.515 1005.41 129.51 1005.41 Q127.635 1005.41 125.76 1005.83 Q123.908 1006.25 121.964 1007.13 L121.964 989.765 Z" fill="#000000" fill-rule="nonzero" fill-opacity="1" /><path clip-path="url(#clip240)" d="M91.5706 860.589 L99.2095 860.589 L99.2095 834.223 L90.8993 835.89 L90.8993 831.631 L99.1632 829.964 L103.839 829.964 L103.839 860.589 L111.478 860.589 L111.478 864.524 L91.5706 864.524 L91.5706 860.589 Z" fill="#000000" fill-rule="nonzero" fill-opacity="1" /><path clip-path="url(#clip240)" d="M130.922 833.043 Q127.311 833.043 125.482 836.608 Q123.677 840.149 123.677 847.279 Q123.677 854.385 125.482 857.95 Q127.311 861.492 130.922 861.492 Q134.556 861.492 136.362 857.95 Q138.191 854.385 138.191 847.279 Q138.191 840.149 136.362 836.608 Q134.556 833.043 130.922 833.043 M130.922 829.339 Q136.732 829.339 139.788 833.946 Q142.867 838.529 142.867 847.279 Q142.867 856.006 139.788 860.612 Q136.732 865.195 130.922 865.195 Q125.112 865.195 122.033 860.612 Q118.978 856.006 118.978 847.279 Q118.978 838.529 122.033 833.946 Q125.112 829.339 130.922 829.339 Z" fill="#000000" fill-rule="nonzero" fill-opacity="1" /><polyline clip-path="url(#clip243)" style="stroke:#009af9; stroke-linecap:round; stroke-linejoin:round; stroke-width:4; stroke-opacity:1; fill:none" points="240.392,1134.89 242.445,1232.47 244.498,1178.95 246.55,1047.96 248.603,1178.16 250.656,1184.23 252.709,1193.03 254.762,1187.61 256.815,1129.03 258.868,1221.93 260.921,1103.29 262.974,1090.34 265.027,1081.6 267.079,1039.11 269.132,1186.8 271.185,1132.86 273.238,1154.92 275.291,1175.92 277.344,1134.03 279.397,1144.91 281.45,1187.47 283.503,1200.95 285.555,1218.11 287.608,1091.51 289.661,1219.28 291.714,1205.08 293.767,1172.71 295.82,1168.16 297.873,1171.95 299.926,1173.34 301.979,1158.62 304.031,1161.7 306.084,1168.59 308.137,1138.88 310.19,1164.5 312.243,1176.58 314.296,1192.17 316.349,1192.24 318.402,1081.18 320.455,1117.15 322.507,1142.39 324.56,1144.38 326.613,1114.91 328.666,1189.55 330.719,1180.55 332.772,1118.31 334.825,1198.37 336.878,1178.78 338.931,1170.25 340.984,1312.79 343.036,1509.31 345.089,1235.34 347.142,1202.56 349.195,1122.71 351.248,1235.71 353.301,1231.09 355.354,1191.91 357.407,1142.1 359.46,1152.21 361.512,1142.55 363.565,1142.75 365.618,1202.66 367.671,1204.04 369.724,1209.89 371.777,1146.09 373.83,1189.17 375.883,1205.53 377.936,1178.28 379.988,1175.65 382.041,1133.44 384.094,1155.82 386.147,1163.65 388.2,1135.97 390.253,1205.76 392.306,1188.81 394.359,1187.76 396.412,1212.7 398.464,1123.16 400.517,1284.01 402.57,1126.83 404.623,1330.89 406.676,1154.48 408.729,1189.29 410.782,1173.98 412.835,1198.35 414.888,993.95 416.94,972.11 418.993,1300.72 421.046,1135.95 423.099,1133.44 425.152,1131.14 427.205,1096.36 429.258,1151.31 431.311,1176.3 433.364,1179.45 435.417,1173.95 437.469,1164.5 439.522,1170.59 441.575,1150.19 443.628,1170.87 445.681,1284.83 447.734,1207.1 449.787,1197.98 451.84,1169.78 453.893,1166.05 455.945,1148.15 457.998,1212.15 460.051,1022.23 462.104,1310.29 464.157,1155.57 466.21,1003.31 468.263,1269.34 470.316,1089.91 472.369,1085.16 474.421,1258.1 476.474,2114.81 478.527,1004.58 480.58,1553.95 482.633,490.829 484.686,1297.79 486.739,950.402 488.792,1329.42 490.845,1105.81 492.897,1190.46 494.95,1161.16 497.003,1165.66 499.056,1101.99 501.109,1140.33 503.162,1239.1 505.215,1125.85 507.268,1170.56 509.321,1477.8 511.374,2039.9 513.426,1893.56 515.479,2482.12 517.532,1149.47 519.585,1012.8 521.638,1124.33 523.691,1715.27 525.744,1719.28 527.797,1065.48 529.85,1209.17 531.902,1172.3 533.955,1167.29 536.008,1265.15 538.061,1151.29 540.114,1181.68 542.167,1078.55 544.22,1755.03 546.273,1655.28 548.326,1194.64 550.378,1196.55 552.431,1137.15 554.484,1186.5 556.537,1152.8 558.59,1158.43 560.643,1158.54 562.696,1142.71 564.749,1120.21 566.802,1148.57 568.854,1234.11 570.907,1142.24 572.96,1199.31 575.013,1198.9 577.066,1162.8 579.119,1198.48 581.172,1208.69 583.225,1030.7 585.278,1005.67 587.331,1159.85 589.383,1213.03 591.436,1118.19 593.489,1070.12 595.542,1165.45 597.595,1194.71 599.648,1151.48 601.701,1182.59 603.754,1179.01 605.807,1218.56 607.859,1124.23 609.912,1193.94 611.965,1132.68 614.018,1183.68 616.071,1151.69 618.124,1179.63 620.177,1159.55 622.23,1157.57 624.283,1163.66 626.335,1152.69 628.388,1255.92 630.441,1215.76 632.494,1168.56 634.547,1141.46 636.6,1168.31 638.653,1176.94 640.706,1274.69 642.759,1270.3 644.811,1174.83 646.864,1162.66 648.917,1305.24 650.97,1244.63 653.023,1156.16 655.076,1153.61 657.129,1134.26 659.182,1153.47 661.235,1186.49 663.288,1165.85 665.34,1202.31 667.393,1203.05 669.446,1171.04 671.499,1153.34 673.552,984.635 675.605,1269.32 677.658,1356.95 679.711,1133.44 681.764,1217.94 683.816,1139.44 685.869,1128 687.922,1172.52 689.975,1201.1 692.028,1102.48 694.081,1202.67 696.134,1330.31 698.187,972.946 700.24,796.815 702.292,1090.18 704.345,1209.57 706.398,1123.13 708.451,1139.71 710.504,1183.16 712.557,1147.75 714.61,1174.41 716.663,1261.13 718.716,1229.16 720.768,1141.52 722.821,1227.1 724.874,1236.82 726.927,1253.35 728.98,1054.07 731.033,1258.97 733.086,1176.12 735.139,1167.38 737.192,1161.35 739.245,1182.89 741.297,1206.45 743.35,1244.79 745.403,1194.53 747.456,1193.97 749.509,1109.42 751.562,1164.83 753.615,1202.82 755.668,1101.83 757.721,1161.33 759.773,1186.36 761.826,1061.99 763.879,1272.1 765.932,1189.04 767.985,1214.7 770.038,1245.99 772.091,1096.99 774.144,1138.93 776.197,1170.72 778.249,1170.15 780.302,1216.01 782.355,1120.29 784.408,1087.48 786.461,1037.07 788.514,1284.97 790.567,774.728 792.62,1266.53 794.673,1191.71 796.725,1176.26 798.778,1120.11 800.831,1130.36 802.884,1153.72 804.937,1127.33 806.99,1196.31 809.043,1170.5 811.096,1138.62 813.149,1189.8 815.202,1149.99 817.254,1143.5 819.307,1170.44 821.36,1113.31 823.413,1053.41 825.466,1244.6 827.519,1180.35 829.572,1185.57 831.625,1156.86 833.678,1170.41 835.73,1229.59 837.783,1134.33 839.836,1197.89 841.889,1181.04 843.942,1188.47 845.995,1103.73 848.048,1181.7 850.101,1219.3 852.154,1191.56 854.206,1125.12 856.259,1173.25 858.312,1092.81 860.365,1177.26 862.418,1146.72 864.471,1265.16 866.524,1167.28 868.577,1151.61 870.63,1160.92 872.682,1144.14 874.735,1204.99 876.788,1208.91 878.841,1108.65 880.894,1208.1 882.947,1205.33 885,1152.1 887.053,1205.85 889.106,1079.57 891.159,1134.18 893.211,1200.36 895.264,1237.69 897.317,1205.25 899.37,1189.74 901.423,1172.93 903.476,1197.71 905.529,1130.13 907.582,1058.06 909.635,1177.53 911.687,1137.94 913.74,1148.57 915.793,1134.83 917.846,1139.47 919.899,1157.07 921.952,1227.36 924.005,1021.92 926.058,1158.74 928.111,1167.05 930.163,796.995 932.216,988.572 934.269,1402.92 936.322,1425.36 938.375,1533.71 940.428,-58.2302 942.481,1758 944.534,-2728.27 946.587,817.376 948.639,63.8017 950.692,1248 952.745,1845.1 954.798,-517.134 956.851,1507.82 958.904,1174.8 960.957,1151.15 963.01,1177.01 965.063,1124.36 967.116,1159.68 969.168,1170.82 971.221,1191.68 973.274,794.38 975.327,1096.62 977.38,991.085 979.433,1293.49 981.486,1074.75 983.539,1392.58 985.592,1176.56 987.644,1181.47 989.697,1053.6 991.75,1122.22 993.803,1139.38 995.856,1185.31 997.909,1123.03 999.962,1089.02 1002.01,1245.78 1004.07,1143.27 1006.12,1137.12 1008.17,1169.98 1010.23,1209.56 1012.28,1229.72 1014.33,1131.43 1016.38,1157.95 1018.44,1095.61 1020.49,1133.81 1022.54,1079.73 1024.6,1318.02 1026.65,-209.78 1028.7,2600.31 1030.76,3413.28 1032.81,2316.23 1034.86,-10911.2 1036.91,-14723.5 1038.97,29582.8 1041.02,-9994.65 1043.07,10949.7 1045.13,-2232.08 1047.18,11736.6 1049.23,-1946.79 1051.28,90.4822 1053.34,1263.06 1055.39,292.991 1057.44,1930.16 1059.5,830.214 1061.55,1091.56 1063.6,1256.11 1065.65,1088.83 1067.71,1149.77 1069.76,1186.71 1071.81,1039.72 1073.87,1141.57 1075.92,1103.18 1077.97,1080.92 1080.02,1290.07 1082.08,1282.39 1084.13,1198.08 1086.18,1145.33 1088.24,1148.51 1090.29,1163.81 1092.34,969.204 1094.39,357.52 1096.45,248.129 1098.5,4681.89 1100.55,1266.2 1102.61,1271.76 1104.66,1677.31 1106.71,-1820.61 1108.77,1133.71 1110.82,1331.25 1112.87,1003.87 1114.92,1331.9 1116.98,1115.73 1119.03,1202.33 1121.08,1161.94 1123.14,1167.4 1125.19,1179.76 1127.24,1181.01 1129.29,1180.87 1131.35,1133.77 1133.4,1185.73 1135.45,1128.96 1137.51,1138.04 1139.56,1191.45 1141.61,1135.19 1143.66,1195.91 1145.72,1178.78 1147.77,1165.34 1149.82,1178.75 1151.88,1210.3 1153.93,1198 1155.98,1100.53 1158.03,1131.55 1160.09,1187.07 1162.14,1200.58 1164.19,1179.55 1166.25,1189.44 1168.3,1180.29 1170.35,1137.96 1172.4,1146.59 1174.46,1138.14 1176.51,1210.24 1178.56,1144.97 1180.62,1088.75 1182.67,1106.94 1184.72,1171.34 1186.77,1195.98 1188.83,1154.47 1190.88,1142.45 1192.93,1156.48 1194.99,1176.01 1197.04,1169.25 1199.09,1169.24 1201.15,1164.91 1203.2,1178.19 1205.25,1145.55 1207.3,1139.54 1209.36,1157.04 1211.41,1186.63 1213.46,1126.86 1215.52,1147.6 1217.57,1157.51 1219.62,1200.24 1221.67,1199.95 1223.73,1131.23 1225.78,1195.65 1227.83,1136.43 1229.89,1191.33 1231.94,1178.03 1233.99,1085.15 1236.04,1201.73 1238.1,1169.96 1240.15,1165.29 1242.2,1169.22 1244.26,1129.62 1246.31,1173.2 1248.36,1128.55 1250.41,1047.51 1252.47,1123.43 1254.52,1174.57 1256.57,1118.76 1258.63,1225.98 1260.68,1311.35 1262.73,996.59 1264.78,1130.95 1266.84,1155.14 1268.89,1166.96 1270.94,1141.7 1273,1195.83 1275.05,1131.1 1277.1,1172.99 1279.16,1218.34 1281.21,1159.52 1283.26,1177.48 1285.31,1184.88 1287.37,1166.1 1289.42,1167.9 1291.47,1162.15 1293.53,1197.19 1295.58,1169.46 1297.63,1161.63 1299.68,1246.15 1301.74,1193.47 1303.79,1019.44 1305.84,1089.63 1307.9,1235.8 1309.95,1107.73 1312,1162.96 1314.05,858.703 1316.11,1266.12 1318.16,1064.18 1320.21,1079.82 1322.27,1137.21 1324.32,1164.87 1326.37,1184.56 1328.42,1199.85 1330.48,1112.33 1332.53,1168.15 1334.58,1168.12 1336.64,1166.95 1338.69,1174.98 1340.74,1115.3 1342.79,685.394 1344.85,1170.78 1346.9,1171.08 1348.95,1155.42 1351.01,1165.6 1353.06,1175.52 1355.11,1126.9 1357.16,1238.66 1359.22,1147.52 1361.27,1113.48 1363.32,1180.45 1365.38,1177.84 1367.43,1160.29 1369.48,1163.59 1371.54,1168.79 1373.59,1167.88 1375.64,1342.14 1377.69,1775.5 1379.75,-590.26 1381.8,1082.5 1383.85,1010.39 1385.91,3135.81 1387.96,4224.42 1390.01,3638.62 1392.06,-1196.17 1394.12,1166.35 1396.17,981.235 1398.22,927.061 1400.28,762.503 1402.33,1201.11 1404.38,1243.01 1406.43,1238.5 1408.49,1040.36 1410.54,1063.25 1412.59,1191.2 1414.65,1207.47 1416.7,1249.46 1418.75,1193.24 1420.8,1139.33 1422.86,1157.75 1424.91,1146.85 1426.96,1138.21 1429.02,1157.85 1431.07,1213.63 1433.12,1143.64 1435.17,1199.3 1437.23,1160.4 1439.28,1107.69 1441.33,1072.27 1443.39,933.768 1445.44,1164.17 1447.49,1149.6 1449.55,1098.54 1451.6,1264.97 1453.65,1037.35 1455.7,1471.33 1457.76,975.211 1459.81,1150.85 1461.86,1146.31 1463.92,1160.95 1465.97,1168.61 1468.02,1178.15 1470.07,1176.04 1472.13,1146.88 1474.18,1196.33 1476.23,1213.86 1478.29,1257.81 1480.34,1149.67 1482.39,1193.58 1484.44,1217.94 1486.5,1160.55 1488.55,1221.36 1490.6,1153.24 1492.66,1248.87 1494.71,1244.43 1496.76,1286.43 1498.81,1060.75 1500.87,1251.52 1502.92,1098.32 1504.97,1156.06 1507.03,1105.36 1509.08,1183.93 1511.13,1204.06 1513.18,1184.88 1515.24,1224.41 1517.29,1162.66 1519.34,1166.91 1521.4,1134.37 1523.45,1187.87 1525.5,1196.45 1527.55,1145.18 1529.61,1060.36 1531.66,1098.07 1533.71,1228.62 1535.77,1108.68 1537.82,1266.96 1539.87,1185.33 1541.93,1159.99 1543.98,1177.05 1546.03,1228.62 1548.08,1105.61 1550.14,1367.43 1552.19,1604.42 1554.24,995.861 1556.3,1048.03 1558.35,1110.58 1560.4,1258.66 1562.45,1147.78 1564.51,1181.93 1566.56,1136.19 1568.61,1192.56 1570.67,1194.46 1572.72,1091.23 1574.77,1188.87 1576.82,1133 1578.88,1141.18 1580.93,1214.68 1582.98,1101.79 1585.04,1178.86 1587.09,1207.63 1589.14,1061.3 1591.19,1091.65 1593.25,1192.73 1595.3,1176.54 1597.35,1146.72 1599.41,1202.7 1601.46,1118.3 1603.51,1133.36 1605.56,1167.72 1607.62,1162.71 1609.67,1165.64 1611.72,1159.94 1613.78,1149.34 1615.83,1141.29 1617.88,1159.5 1619.94,1165.25 1621.99,1140.67 1624.04,1119.98 1626.09,1159.65 1628.15,-345.051 1630.2,-1165.19 1632.25,2902.75 1634.31,41.2869 1636.36,1460.9 1638.41,1579.69 1640.46,628.138 1642.52,1525.48 1644.57,1311.07 1646.62,1133.19 1648.68,1148.46 1650.73,1199.79 1652.78,1279.34 1654.83,1274.42 1656.89,1176.18 1658.94,1190.82 1660.99,1138.94 1663.05,1141.53 1665.1,1136.09 1667.15,1192.22 1669.2,1182.97 1671.26,1194.66 1673.31,1199.77 1675.36,1120.5 1677.42,1122.23 1679.47,1204.8 1681.52,1216.05 1683.57,1144.83 1685.63,1155.32 1687.68,1180.88 1689.73,1170.51 1691.79,1150.48 1693.84,1151.35 1695.89,1393.35 1697.94,860.458 1700,1758.8 1702.05,1322.28 1704.1,1013.1 1706.16,1187.99 1708.21,1082.43 1710.26,1053.6 1712.32,1163.55 1714.37,1201.17 1716.42,1288.51 1718.47,1274.84 1720.53,1110.91 1722.58,1102.74 1724.63,1133.88 1726.69,1329.78 1728.74,1320.2 1730.79,1120.27 1732.84,995.812 1734.9,1254.86 1736.95,1179.24 1739,1169.38 1741.06,1185.55 1743.11,1181.46 1745.16,1099.93 1747.21,1082.73 1749.27,1114.94 1751.32,1168.01 1753.37,1161.65 1755.43,1161.98 1757.48,1395.19 1759.53,1236.78 1761.58,1177.48 1763.64,1194.74 1765.69,1100.51 1767.74,1165.11 1769.8,1182.33 1771.85,1151.58 1773.9,1165.85 1775.95,1149.05 1778.01,1078.11 1780.06,1330.97 1782.11,1631.26 1784.17,1530.48 1786.22,1131.95 1788.27,1970.02 1790.33,496.588 1792.38,832.614 1794.43,-1431.3 1796.48,5745.31 1798.54,3863.85 1800.59,5568.74 1802.64,-9605.19 1804.7,1233.01 1806.75,1100.8 1808.8,1144.96 1810.85,1212.52 1812.91,1198.43 1814.96,1029.59 1817.01,1087.78 1819.07,1213.05 1821.12,1119.14 1823.17,1149.93 1825.22,1215.73 1827.28,1212.05 1829.33,1135.45 1831.38,1147.39 1833.44,1032.62 1835.49,1175.76 1837.54,1194.89 1839.59,1136.08 1841.65,1212.36 1843.7,1039.99 1845.75,1541.46 1847.81,1159.98 1849.86,1194.99 1851.91,1259.73 1853.96,1171.95 1856.02,1176.02 1858.07,1156.37 1860.12,1171.71 1862.18,1175.19 1864.23,1183.5 1866.28,1145.15 1868.34,1155.83 1870.39,1155.65 1872.44,1136.76 1874.49,1235.7 1876.55,1156.63 1878.6,1116.22 1880.65,1296.48 1882.71,1452.96 1884.76,1166.36 1886.81,1250.45 1888.86,1548.79 1890.92,1214.42 1892.97,1057.76 1895.02,1310.26 1897.08,1168.29 1899.13,1179.48 1901.18,1205.78 1903.23,1232.59 1905.29,1072.8 1907.34,954.023 1909.39,1289.58 1911.45,1252.01 1913.5,1246.46 1915.55,1192.61 1917.6,1182.19 1919.66,1186.75 1921.71,1138.6 1923.76,1157.3 1925.82,1165.51 1927.87,1136.11 1929.92,1134.77 1931.97,1140.46 1934.03,1318.95 1936.08,1779.68 1938.13,882.968 1940.19,1431.24 1942.24,1496.93 1944.29,10584.2 1946.34,-61114.7 1948.4,-95514.9 1950.45,13365.2 1952.5,43775.7 1954.56,29072.2 1956.61,7133.45 1958.66,1429.46 1960.72,1566.19 1962.77,1380.2 1964.82,1026.51 1966.87,1423.69 1968.93,1430.5 1970.98,1159.85 1973.03,1161.47 1975.09,1165.8 1977.14,1221.59 1979.19,998.082 1981.24,1333.69 1983.3,1251.99 1985.35,1245.73 1987.4,1103.31 1989.46,1073.86 1991.51,1191.09 1993.56,1171.1 1995.61,1161.87 1997.67,1154.08 1999.72,1156.03 2001.77,1180.5 2003.83,1266.94 2005.88,1204.25 2007.93,1282.41 2009.98,1199.37 2012.04,1137.59 2014.09,1166.69 2016.14,1191.03 2018.2,1176.77 2020.25,1158.58 2022.3,1159.01 2024.35,1181.02 2026.41,1211.54 2028.46,1142.38 2030.51,1193.66 2032.57,1179.08 2034.62,1184.58 2036.67,1163.42 2038.73,1165.12 2040.78,1162.79 2042.83,1162.23 2044.88,1176.54 2046.94,1172.21 2048.99,1056.57 2051.04,1070.05 2053.1,1291.85 2055.15,1201.43 2057.2,1165.35 2059.25,1182.54 2061.31,1183.7 2063.36,1215.33 2065.41,1173.99 2067.47,457.856 2069.52,1481.81 2071.57,1189.99 2073.62,1172.95 2075.68,1165.52 2077.73,1194.81 2079.78,1178.88 2081.84,1169.18 2083.89,1171.26 2085.94,1166.57 2087.99,1190.57 2090.05,1185.97 2092.1,1185.16 2094.15,1244.94 2096.21,1177.13 2098.26,1178.55 2100.31,1187.79 2102.36,1179.81 2104.42,1165.61 2106.47,1192.38 2108.52,1152.33 2110.58,1143.07 2112.63,1175.42 2114.68,1144.42 2116.73,1164.54 2118.79,1137.49 2120.84,1182.51 2122.89,1161.02 2124.95,1152.44 2127,1186.25 2129.05,1194.79 2131.11,1160.07 2133.16,1203.03 2135.21,1259.23 2137.26,1039.42 2139.32,1198.34 2141.37,1177.55 2143.42,1203.11 2145.48,1182.88 2147.53,1065.37 2149.58,1153.67 2151.63,1127.43 2153.69,1158.5 2155.74,1160.43 2157.79,1142.9 2159.85,1189.13 2161.9,1164.82 2163.95,1175.57 2166,1079.11 2168.06,1248.05 2170.11,1195.83 2172.16,1231.94 2174.22,1175.27 2176.27,1157.93 2178.32,1088.17 2180.37,1070.65 2182.43,1276.78 2184.48,749.683 2186.53,1534.61 2188.59,1258.12 2190.64,1250.33 2192.69,1053.12 2194.74,1166.2 2196.8,1075.55 2198.85,994.337 2200.9,1237.36 2202.96,1160.36 2205.01,1199.57 2207.06,1142.52 2209.12,1099.38 2211.17,1210.64 2213.22,1152.49 2215.27,1146.91 2217.33,1155.82 2219.38,1143.1 2221.43,1206.58 2223.49,1152.02 2225.54,1279.6 2227.59,1157.68 2229.64,1189.98 2231.7,1162.08 2233.75,1101.7 2235.8,1244.09 2237.86,1110.59 2239.91,1147.38 2241.96,1194.45 2244.01,1159.68 2246.07,1155.63 2248.12,1199.45 2250.17,1202.59 2252.23,1205.31 2254.28,1159.75 2256.33,1169.31 2258.38,1188.56 2260.44,1206.02 2262.49,1158.63 2264.54,1126.01 2266.6,1194.31 2268.65,1142.93 2270.7,1152.71 2272.75,1144.73 2274.81,1079.82 2276.86,1300.43 2278.91,1335.07 2280.97,1033.4 2283.02,988.961 2285.07,1576.04 2287.12,1020.44 2289.18,1381.17 2291.23,-5354.41 "/>
<path clip-path="url(#clip240)" d="M251.33 1465.14 L588.926 1465.14 L588.926 1361.46 L251.33 1361.46  Z" fill="#ffffff" fill-rule="evenodd" fill-opacity="1"/>
<polyline clip-path="url(#clip240)" style="stroke:#000000; stroke-linecap:round; stroke-linejoin:round; stroke-width:4; stroke-opacity:1; fill:none" points="251.33,1465.14 588.926,1465.14 588.926,1361.46 251.33,1361.46 251.33,1465.14 "/>
<polyline clip-path="url(#clip240)" style="stroke:#009af9; stroke-linecap:round; stroke-linejoin:round; stroke-width:4; stroke-opacity:1; fill:none" points="275.484,1413.3 420.41,1413.3 "/>
<path clip-path="url(#clip240)" d="M470.12 1425.65 L470.12 1416.37 L462.481 1416.37 L462.481 1412.53 L474.749 1412.53 L474.749 1427.36 Q472.041 1429.28 468.777 1430.28 Q465.513 1431.25 461.809 1431.25 Q453.708 1431.25 449.124 1426.53 Q444.564 1421.78 444.564 1413.34 Q444.564 1404.86 449.124 1400.14 Q453.708 1395.4 461.809 1395.4 Q465.189 1395.4 468.221 1396.23 Q471.277 1397.06 473.846 1398.68 L473.846 1403.66 Q471.254 1401.46 468.337 1400.35 Q465.421 1399.24 462.203 1399.24 Q455.86 1399.24 452.666 1402.78 Q449.495 1406.32 449.495 1413.34 Q449.495 1420.33 452.666 1423.87 Q455.86 1427.41 462.203 1427.41 Q464.68 1427.41 466.624 1426.99 Q468.569 1426.55 470.12 1425.65 Z" fill="#000000" fill-rule="nonzero" fill-opacity="1" /><path clip-path="url(#clip240)" d="M487.967 1399.86 L487.967 1412.85 L493.846 1412.85 Q497.11 1412.85 498.893 1411.16 Q500.675 1409.47 500.675 1406.35 Q500.675 1403.24 498.893 1401.55 Q497.11 1399.86 493.846 1399.86 L487.967 1399.86 M483.291 1396.02 L493.846 1396.02 Q499.657 1396.02 502.619 1398.66 Q505.606 1401.28 505.606 1406.35 Q505.606 1411.46 502.619 1414.08 Q499.657 1416.69 493.846 1416.69 L487.967 1416.69 L487.967 1430.58 L483.291 1430.58 L483.291 1396.02 Z" fill="#000000" fill-rule="nonzero" fill-opacity="1" /><path clip-path="url(#clip240)" d="M532.596 1397.16 L532.596 1401.72 Q529.934 1400.44 527.573 1399.82 Q525.212 1399.19 523.013 1399.19 Q519.193 1399.19 517.11 1400.67 Q515.05 1402.16 515.05 1404.89 Q515.05 1407.18 516.416 1408.36 Q517.805 1409.52 521.647 1410.23 L524.471 1410.81 Q529.703 1411.81 532.179 1414.33 Q534.679 1416.83 534.679 1421.04 Q534.679 1426.07 531.3 1428.66 Q527.943 1431.25 521.439 1431.25 Q518.985 1431.25 516.207 1430.7 Q513.453 1430.14 510.49 1429.05 L510.49 1424.24 Q513.337 1425.84 516.068 1426.65 Q518.8 1427.46 521.439 1427.46 Q525.443 1427.46 527.619 1425.88 Q529.795 1424.31 529.795 1421.39 Q529.795 1418.85 528.221 1417.41 Q526.67 1415.97 523.105 1415.26 L520.258 1414.7 Q515.027 1413.66 512.689 1411.44 Q510.351 1409.22 510.351 1405.26 Q510.351 1400.67 513.568 1398.03 Q516.809 1395.4 522.48 1395.4 Q524.911 1395.4 527.434 1395.84 Q529.957 1396.28 532.596 1397.16 Z" fill="#000000" fill-rule="nonzero" fill-opacity="1" /><path clip-path="url(#clip240)" d="M562.689 1397.16 L562.689 1401.72 Q560.027 1400.44 557.665 1399.82 Q555.304 1399.19 553.105 1399.19 Q549.286 1399.19 547.203 1400.67 Q545.142 1402.16 545.142 1404.89 Q545.142 1407.18 546.508 1408.36 Q547.897 1409.52 551.74 1410.23 L554.564 1410.81 Q559.795 1411.81 562.272 1414.33 Q564.772 1416.83 564.772 1421.04 Q564.772 1426.07 561.392 1428.66 Q558.036 1431.25 551.531 1431.25 Q549.078 1431.25 546.3 1430.7 Q543.545 1430.14 540.582 1429.05 L540.582 1424.24 Q543.429 1425.84 546.161 1426.65 Q548.892 1427.46 551.531 1427.46 Q555.536 1427.46 557.712 1425.88 Q559.888 1424.31 559.888 1421.39 Q559.888 1418.85 558.314 1417.41 Q556.763 1415.97 553.198 1415.26 L550.351 1414.7 Q545.119 1413.66 542.781 1411.44 Q540.443 1409.22 540.443 1405.26 Q540.443 1400.67 543.661 1398.03 Q546.902 1395.4 552.573 1395.4 Q555.003 1395.4 557.527 1395.84 Q560.05 1396.28 562.689 1397.16 Z" fill="#000000" fill-rule="nonzero" fill-opacity="1" /></svg>
