<?xml version="1.0" encoding="utf-8"?>
<svg xmlns="http://www.w3.org/2000/svg" xmlns:xlink="http://www.w3.org/1999/xlink" width="600" height="400" viewBox="0 0 2400 1600">
<defs>
  <clipPath id="clip280">
    <rect x="0" y="0" width="2400" height="1600"/>
  </clipPath>
</defs>
<path clip-path="url(#clip280)" d="M0 1600 L2400 1600 L2400 0 L0 0  Z" fill="#ffffff" fill-rule="evenodd" fill-opacity="1"/>
<defs>
  <clipPath id="clip281">
    <rect x="480" y="0" width="1681" height="1600"/>
  </clipPath>
</defs>
<path clip-path="url(#clip280)" d="M178.867 686.448 L2352.76 686.448 L2352.76 47.2441 L178.867 47.2441  Z" fill="#ffffff" fill-rule="evenodd" fill-opacity="1"/>
<defs>
  <clipPath id="clip282">
    <rect x="178" y="47" width="2175" height="640"/>
  </clipPath>
</defs>
<polyline clip-path="url(#clip282)" style="stroke:#000000; stroke-linecap:round; stroke-linejoin:round; stroke-width:2; stroke-opacity:0.1; fill:none" points="238.339,686.448 238.339,47.2441 "/>
<polyline clip-path="url(#clip282)" style="stroke:#000000; stroke-linecap:round; stroke-linejoin:round; stroke-width:2; stroke-opacity:0.1; fill:none" points="751.562,686.448 751.562,47.2441 "/>
<polyline clip-path="url(#clip282)" style="stroke:#000000; stroke-linecap:round; stroke-linejoin:round; stroke-width:2; stroke-opacity:0.1; fill:none" points="1264.78,686.448 1264.78,47.2441 "/>
<polyline clip-path="url(#clip282)" style="stroke:#000000; stroke-linecap:round; stroke-linejoin:round; stroke-width:2; stroke-opacity:0.1; fill:none" points="1778.01,686.448 1778.01,47.2441 "/>
<polyline clip-path="url(#clip282)" style="stroke:#000000; stroke-linecap:round; stroke-linejoin:round; stroke-width:2; stroke-opacity:0.1; fill:none" points="2291.23,686.448 2291.23,47.2441 "/>
<polyline clip-path="url(#clip282)" style="stroke:#000000; stroke-linecap:round; stroke-linejoin:round; stroke-width:2; stroke-opacity:0.1; fill:none" points="178.867,686.448 2352.76,686.448 "/>
<polyline clip-path="url(#clip282)" style="stroke:#000000; stroke-linecap:round; stroke-linejoin:round; stroke-width:2; stroke-opacity:0.1; fill:none" points="178.867,526.647 2352.76,526.647 "/>
<polyline clip-path="url(#clip282)" style="stroke:#000000; stroke-linecap:round; stroke-linejoin:round; stroke-width:2; stroke-opacity:0.1; fill:none" points="178.867,366.846 2352.76,366.846 "/>
<polyline clip-path="url(#clip282)" style="stroke:#000000; stroke-linecap:round; stroke-linejoin:round; stroke-width:2; stroke-opacity:0.1; fill:none" points="178.867,207.045 2352.76,207.045 "/>
<polyline clip-path="url(#clip282)" style="stroke:#000000; stroke-linecap:round; stroke-linejoin:round; stroke-width:2; stroke-opacity:0.1; fill:none" points="178.867,47.2441 2352.76,47.2441 "/>
<polyline clip-path="url(#clip280)" style="stroke:#000000; stroke-linecap:round; stroke-linejoin:round; stroke-width:4; stroke-opacity:1; fill:none" points="178.867,686.448 2352.76,686.448 "/>
<polyline clip-path="url(#clip280)" style="stroke:#000000; stroke-linecap:round; stroke-linejoin:round; stroke-width:4; stroke-opacity:1; fill:none" points="238.339,686.448 238.339,667.55 "/>
<polyline clip-path="url(#clip280)" style="stroke:#000000; stroke-linecap:round; stroke-linejoin:round; stroke-width:4; stroke-opacity:1; fill:none" points="751.562,686.448 751.562,667.55 "/>
<polyline clip-path="url(#clip280)" style="stroke:#000000; stroke-linecap:round; stroke-linejoin:round; stroke-width:4; stroke-opacity:1; fill:none" points="1264.78,686.448 1264.78,667.55 "/>
<polyline clip-path="url(#clip280)" style="stroke:#000000; stroke-linecap:round; stroke-linejoin:round; stroke-width:4; stroke-opacity:1; fill:none" points="1778.01,686.448 1778.01,667.55 "/>
<polyline clip-path="url(#clip280)" style="stroke:#000000; stroke-linecap:round; stroke-linejoin:round; stroke-width:4; stroke-opacity:1; fill:none" points="2291.23,686.448 2291.23,667.55 "/>
<path clip-path="url(#clip280)" d="M238.339 717.367 Q234.728 717.367 232.899 720.931 Q231.094 724.473 231.094 731.603 Q231.094 738.709 232.899 742.274 Q234.728 745.815 238.339 745.815 Q241.973 745.815 243.779 742.274 Q245.607 738.709 245.607 731.603 Q245.607 724.473 243.779 720.931 Q241.973 717.367 238.339 717.367 M238.339 713.663 Q244.149 713.663 247.205 718.269 Q250.283 722.853 250.283 731.603 Q250.283 740.329 247.205 744.936 Q244.149 749.519 238.339 749.519 Q232.529 749.519 229.45 744.936 Q226.395 740.329 226.395 731.603 Q226.395 722.853 229.45 718.269 Q232.529 713.663 238.339 713.663 Z" fill="#000000" fill-rule="nonzero" fill-opacity="1" /><path clip-path="url(#clip280)" d="M715.254 744.913 L731.574 744.913 L731.574 748.848 L709.629 748.848 L709.629 744.913 Q712.291 742.158 716.875 737.528 Q721.481 732.876 722.662 731.533 Q724.907 729.01 725.787 727.274 Q726.689 725.515 726.689 723.825 Q726.689 721.07 724.745 719.334 Q722.824 717.598 719.722 717.598 Q717.523 717.598 715.069 718.362 Q712.638 719.126 709.861 720.677 L709.861 715.955 Q712.685 714.82 715.138 714.242 Q717.592 713.663 719.629 713.663 Q725 713.663 728.194 716.348 Q731.388 719.033 731.388 723.524 Q731.388 725.654 730.578 727.575 Q729.791 729.473 727.685 732.066 Q727.106 732.737 724.004 735.954 Q720.902 739.149 715.254 744.913 Z" fill="#000000" fill-rule="nonzero" fill-opacity="1" /><path clip-path="url(#clip280)" d="M741.435 714.288 L759.791 714.288 L759.791 718.223 L745.717 718.223 L745.717 726.695 Q746.736 726.348 747.754 726.186 Q748.773 726.001 749.791 726.001 Q755.578 726.001 758.958 729.172 Q762.337 732.343 762.337 737.76 Q762.337 743.339 758.865 746.44 Q755.393 749.519 749.073 749.519 Q746.898 749.519 744.629 749.149 Q742.384 748.778 739.976 748.038 L739.976 743.339 Q742.06 744.473 744.282 745.028 Q746.504 745.584 748.981 745.584 Q752.985 745.584 755.323 743.478 Q757.661 741.371 757.661 737.76 Q757.661 734.149 755.323 732.042 Q752.985 729.936 748.981 729.936 Q747.106 729.936 745.231 730.353 Q743.379 730.769 741.435 731.649 L741.435 714.288 Z" fill="#000000" fill-rule="nonzero" fill-opacity="1" /><path clip-path="url(#clip280)" d="M781.55 717.367 Q777.939 717.367 776.11 720.931 Q774.305 724.473 774.305 731.603 Q774.305 738.709 776.11 742.274 Q777.939 745.815 781.55 745.815 Q785.184 745.815 786.99 742.274 Q788.819 738.709 788.819 731.603 Q788.819 724.473 786.99 720.931 Q785.184 717.367 781.55 717.367 M781.55 713.663 Q787.36 713.663 790.416 718.269 Q793.495 722.853 793.495 731.603 Q793.495 740.329 790.416 744.936 Q787.36 749.519 781.55 749.519 Q775.74 749.519 772.661 744.936 Q769.606 740.329 769.606 731.603 Q769.606 722.853 772.661 718.269 Q775.74 713.663 781.55 713.663 Z" fill="#000000" fill-rule="nonzero" fill-opacity="1" /><path clip-path="url(#clip280)" d="M1224.4 714.288 L1242.76 714.288 L1242.76 718.223 L1228.69 718.223 L1228.69 726.695 Q1229.7 726.348 1230.72 726.186 Q1231.74 726.001 1232.76 726.001 Q1238.55 726.001 1241.93 729.172 Q1245.31 732.343 1245.31 737.76 Q1245.31 743.339 1241.83 746.44 Q1238.36 749.519 1232.04 749.519 Q1229.87 749.519 1227.6 749.149 Q1225.35 748.778 1222.94 748.038 L1222.94 743.339 Q1225.03 744.473 1227.25 745.028 Q1229.47 745.584 1231.95 745.584 Q1235.95 745.584 1238.29 743.478 Q1240.63 741.371 1240.63 737.76 Q1240.63 734.149 1238.29 732.042 Q1235.95 729.936 1231.95 729.936 Q1230.07 729.936 1228.2 730.353 Q1226.35 730.769 1224.4 731.649 L1224.4 714.288 Z" fill="#000000" fill-rule="nonzero" fill-opacity="1" /><path clip-path="url(#clip280)" d="M1264.52 717.367 Q1260.91 717.367 1259.08 720.931 Q1257.27 724.473 1257.27 731.603 Q1257.27 738.709 1259.08 742.274 Q1260.91 745.815 1264.52 745.815 Q1268.15 745.815 1269.96 742.274 Q1271.79 738.709 1271.79 731.603 Q1271.79 724.473 1269.96 720.931 Q1268.15 717.367 1264.52 717.367 M1264.52 713.663 Q1270.33 713.663 1273.38 718.269 Q1276.46 722.853 1276.46 731.603 Q1276.46 740.329 1273.38 744.936 Q1270.33 749.519 1264.52 749.519 Q1258.71 749.519 1255.63 744.936 Q1252.57 740.329 1252.57 731.603 Q1252.57 722.853 1255.63 718.269 Q1258.71 713.663 1264.52 713.663 Z" fill="#000000" fill-rule="nonzero" fill-opacity="1" /><path clip-path="url(#clip280)" d="M1294.68 717.367 Q1291.07 717.367 1289.24 720.931 Q1287.44 724.473 1287.44 731.603 Q1287.44 738.709 1289.24 742.274 Q1291.07 745.815 1294.68 745.815 Q1298.31 745.815 1300.12 742.274 Q1301.95 738.709 1301.95 731.603 Q1301.95 724.473 1300.12 720.931 Q1298.31 717.367 1294.68 717.367 M1294.68 713.663 Q1300.49 713.663 1303.55 718.269 Q1306.62 722.853 1306.62 731.603 Q1306.62 740.329 1303.55 744.936 Q1300.49 749.519 1294.68 749.519 Q1288.87 749.519 1285.79 744.936 Q1282.74 740.329 1282.74 731.603 Q1282.74 722.853 1285.79 718.269 Q1288.87 713.663 1294.68 713.663 Z" fill="#000000" fill-rule="nonzero" fill-opacity="1" /><path clip-path="url(#clip280)" d="M1736.28 714.288 L1758.51 714.288 L1758.51 716.279 L1745.96 748.848 L1741.08 748.848 L1752.88 718.223 L1736.28 718.223 L1736.28 714.288 Z" fill="#000000" fill-rule="nonzero" fill-opacity="1" /><path clip-path="url(#clip280)" d="M1767.67 714.288 L1786.03 714.288 L1786.03 718.223 L1771.95 718.223 L1771.95 726.695 Q1772.97 726.348 1773.99 726.186 Q1775.01 726.001 1776.03 726.001 Q1781.82 726.001 1785.2 729.172 Q1788.57 732.343 1788.57 737.76 Q1788.57 743.339 1785.1 746.44 Q1781.63 749.519 1775.31 749.519 Q1773.14 749.519 1770.87 749.149 Q1768.62 748.778 1766.21 748.038 L1766.21 743.339 Q1768.3 744.473 1770.52 745.028 Q1772.74 745.584 1775.22 745.584 Q1779.22 745.584 1781.56 743.478 Q1783.9 741.371 1783.9 737.76 Q1783.9 734.149 1781.56 732.042 Q1779.22 729.936 1775.22 729.936 Q1773.34 729.936 1771.47 730.353 Q1769.62 730.769 1767.67 731.649 L1767.67 714.288 Z" fill="#000000" fill-rule="nonzero" fill-opacity="1" /><path clip-path="url(#clip280)" d="M1807.79 717.367 Q1804.18 717.367 1802.35 720.931 Q1800.54 724.473 1800.54 731.603 Q1800.54 738.709 1802.35 742.274 Q1804.18 745.815 1807.79 745.815 Q1811.42 745.815 1813.23 742.274 Q1815.06 738.709 1815.06 731.603 Q1815.06 724.473 1813.23 720.931 Q1811.42 717.367 1807.79 717.367 M1807.79 713.663 Q1813.6 713.663 1816.65 718.269 Q1819.73 722.853 1819.73 731.603 Q1819.73 740.329 1816.65 744.936 Q1813.6 749.519 1807.79 749.519 Q1801.98 749.519 1798.9 744.936 Q1795.84 740.329 1795.84 731.603 Q1795.84 722.853 1798.9 718.269 Q1801.98 713.663 1807.79 713.663 Z" fill="#000000" fill-rule="nonzero" fill-opacity="1" /><path clip-path="url(#clip280)" d="M2235.76 744.913 L2243.4 744.913 L2243.4 718.547 L2235.09 720.214 L2235.09 715.955 L2243.35 714.288 L2248.02 714.288 L2248.02 744.913 L2255.66 744.913 L2255.66 748.848 L2235.76 748.848 L2235.76 744.913 Z" fill="#000000" fill-rule="nonzero" fill-opacity="1" /><path clip-path="url(#clip280)" d="M2275.11 717.367 Q2271.5 717.367 2269.67 720.931 Q2267.86 724.473 2267.86 731.603 Q2267.86 738.709 2269.67 742.274 Q2271.5 745.815 2275.11 745.815 Q2278.74 745.815 2280.55 742.274 Q2282.38 738.709 2282.38 731.603 Q2282.38 724.473 2280.55 720.931 Q2278.74 717.367 2275.11 717.367 M2275.11 713.663 Q2280.92 713.663 2283.97 718.269 Q2287.05 722.853 2287.05 731.603 Q2287.05 740.329 2283.97 744.936 Q2280.92 749.519 2275.11 749.519 Q2269.3 749.519 2266.22 744.936 Q2263.16 740.329 2263.16 731.603 Q2263.16 722.853 2266.22 718.269 Q2269.3 713.663 2275.11 713.663 Z" fill="#000000" fill-rule="nonzero" fill-opacity="1" /><path clip-path="url(#clip280)" d="M2305.27 717.367 Q2301.66 717.367 2299.83 720.931 Q2298.02 724.473 2298.02 731.603 Q2298.02 738.709 2299.83 742.274 Q2301.66 745.815 2305.27 745.815 Q2308.9 745.815 2310.71 742.274 Q2312.54 738.709 2312.54 731.603 Q2312.54 724.473 2310.71 720.931 Q2308.9 717.367 2305.27 717.367 M2305.27 713.663 Q2311.08 713.663 2314.14 718.269 Q2317.21 722.853 2317.21 731.603 Q2317.21 740.329 2314.14 744.936 Q2311.08 749.519 2305.27 749.519 Q2299.46 749.519 2296.38 744.936 Q2293.33 740.329 2293.33 731.603 Q2293.33 722.853 2296.38 718.269 Q2299.46 713.663 2305.27 713.663 Z" fill="#000000" fill-rule="nonzero" fill-opacity="1" /><path clip-path="url(#clip280)" d="M2335.43 717.367 Q2331.82 717.367 2329.99 720.931 Q2328.19 724.473 2328.19 731.603 Q2328.19 738.709 2329.99 742.274 Q2331.82 745.815 2335.43 745.815 Q2339.07 745.815 2340.87 742.274 Q2342.7 738.709 2342.7 731.603 Q2342.7 724.473 2340.87 720.931 Q2339.07 717.367 2335.43 717.367 M2335.43 713.663 Q2341.24 713.663 2344.3 718.269 Q2347.38 722.853 2347.38 731.603 Q2347.38 740.329 2344.3 744.936 Q2341.24 749.519 2335.43 749.519 Q2329.62 749.519 2326.54 744.936 Q2323.49 740.329 2323.49 731.603 Q2323.49 722.853 2326.54 718.269 Q2329.62 713.663 2335.43 713.663 Z" fill="#000000" fill-rule="nonzero" fill-opacity="1" /><polyline clip-path="url(#clip280)" style="stroke:#000000; stroke-linecap:round; stroke-linejoin:round; stroke-width:4; stroke-opacity:1; fill:none" points="178.867,686.448 178.867,47.2441 "/>
<polyline clip-path="url(#clip280)" style="stroke:#000000; stroke-linecap:round; stroke-linejoin:round; stroke-width:4; stroke-opacity:1; fill:none" points="178.867,686.448 197.764,686.448 "/>
<polyline clip-path="url(#clip280)" style="stroke:#000000; stroke-linecap:round; stroke-linejoin:round; stroke-width:4; stroke-opacity:1; fill:none" points="178.867,526.647 197.764,526.647 "/>
<polyline clip-path="url(#clip280)" style="stroke:#000000; stroke-linecap:round; stroke-linejoin:round; stroke-width:4; stroke-opacity:1; fill:none" points="178.867,366.846 197.764,366.846 "/>
<polyline clip-path="url(#clip280)" style="stroke:#000000; stroke-linecap:round; stroke-linejoin:round; stroke-width:4; stroke-opacity:1; fill:none" points="178.867,207.045 197.764,207.045 "/>
<polyline clip-path="url(#clip280)" style="stroke:#000000; stroke-linecap:round; stroke-linejoin:round; stroke-width:4; stroke-opacity:1; fill:none" points="178.867,47.2441 197.764,47.2441 "/>
<path clip-path="url(#clip280)" d="M50.9921 686.899 L80.6679 686.899 L80.6679 690.834 L50.9921 690.834 L50.9921 686.899 Z" fill="#000000" fill-rule="nonzero" fill-opacity="1" /><path clip-path="url(#clip280)" d="M91.5706 699.793 L99.2095 699.793 L99.2095 673.427 L90.8993 675.094 L90.8993 670.835 L99.1632 669.168 L103.839 669.168 L103.839 699.793 L111.478 699.793 L111.478 703.728 L91.5706 703.728 L91.5706 699.793 Z" fill="#000000" fill-rule="nonzero" fill-opacity="1" /><path clip-path="url(#clip280)" d="M130.922 672.247 Q127.311 672.247 125.482 675.811 Q123.677 679.353 123.677 686.483 Q123.677 693.589 125.482 697.154 Q127.311 700.695 130.922 700.695 Q134.556 700.695 136.362 697.154 Q138.191 693.589 138.191 686.483 Q138.191 679.353 136.362 675.811 Q134.556 672.247 130.922 672.247 M130.922 668.543 Q136.732 668.543 139.788 673.149 Q142.867 677.733 142.867 686.483 Q142.867 695.209 139.788 699.816 Q136.732 704.399 130.922 704.399 Q125.112 704.399 122.033 699.816 Q118.978 695.209 118.978 686.483 Q118.978 677.733 122.033 673.149 Q125.112 668.543 130.922 668.543 Z" fill="#000000" fill-rule="nonzero" fill-opacity="1" /><path clip-path="url(#clip280)" d="M82.1494 527.098 L111.825 527.098 L111.825 531.033 L82.1494 531.033 L82.1494 527.098 Z" fill="#000000" fill-rule="nonzero" fill-opacity="1" /><path clip-path="url(#clip280)" d="M121.964 509.367 L140.32 509.367 L140.32 513.302 L126.246 513.302 L126.246 521.774 Q127.265 521.427 128.283 521.265 Q129.302 521.08 130.32 521.08 Q136.107 521.08 139.487 524.251 Q142.867 527.422 142.867 532.839 Q142.867 538.418 139.394 541.52 Q135.922 544.598 129.603 544.598 Q127.427 544.598 125.158 544.228 Q122.913 543.857 120.506 543.117 L120.506 538.418 Q122.589 539.552 124.811 540.108 Q127.033 540.663 129.51 540.663 Q133.515 540.663 135.853 538.557 Q138.191 536.45 138.191 532.839 Q138.191 529.228 135.853 527.121 Q133.515 525.015 129.51 525.015 Q127.635 525.015 125.76 525.432 Q123.908 525.848 121.964 526.728 L121.964 509.367 Z" fill="#000000" fill-rule="nonzero" fill-opacity="1" /><path clip-path="url(#clip280)" d="M130.922 352.645 Q127.311 352.645 125.482 356.209 Q123.677 359.751 123.677 366.881 Q123.677 373.987 125.482 377.552 Q127.311 381.094 130.922 381.094 Q134.556 381.094 136.362 377.552 Q138.191 373.987 138.191 366.881 Q138.191 359.751 136.362 356.209 Q134.556 352.645 130.922 352.645 M130.922 348.941 Q136.732 348.941 139.788 353.547 Q142.867 358.131 142.867 366.881 Q142.867 375.608 139.788 380.214 Q136.732 384.797 130.922 384.797 Q125.112 384.797 122.033 380.214 Q118.978 375.608 118.978 366.881 Q118.978 358.131 122.033 353.547 Q125.112 348.941 130.922 348.941 Z" fill="#000000" fill-rule="nonzero" fill-opacity="1" /><path clip-path="url(#clip280)" d="M121.964 189.765 L140.32 189.765 L140.32 193.7 L126.246 193.7 L126.246 202.172 Q127.265 201.825 128.283 201.663 Q129.302 201.478 130.32 201.478 Q136.107 201.478 139.487 204.649 Q142.867 207.82 142.867 213.237 Q142.867 218.816 139.394 221.918 Q135.922 224.996 129.603 224.996 Q127.427 224.996 125.158 224.626 Q122.913 224.256 120.506 223.515 L120.506 218.816 Q122.589 219.95 124.811 220.506 Q127.033 221.061 129.51 221.061 Q133.515 221.061 135.853 218.955 Q138.191 216.848 138.191 213.237 Q138.191 209.626 135.853 207.52 Q133.515 205.413 129.51 205.413 Q127.635 205.413 125.76 205.83 Q123.908 206.246 121.964 207.126 L121.964 189.765 Z" fill="#000000" fill-rule="nonzero" fill-opacity="1" /><path clip-path="url(#clip280)" d="M91.5706 60.5889 L99.2095 60.5889 L99.2095 34.2233 L90.8993 35.89 L90.8993 31.6308 L99.1632 29.9641 L103.839 29.9641 L103.839 60.5889 L111.478 60.5889 L111.478 64.5241 L91.5706 64.5241 L91.5706 60.5889 Z" fill="#000000" fill-rule="nonzero" fill-opacity="1" /><path clip-path="url(#clip280)" d="M130.922 33.0428 Q127.311 33.0428 125.482 36.6076 Q123.677 40.1492 123.677 47.2788 Q123.677 54.3853 125.482 57.9501 Q127.311 61.4917 130.922 61.4917 Q134.556 61.4917 136.362 57.9501 Q138.191 54.3853 138.191 47.2788 Q138.191 40.1492 136.362 36.6076 Q134.556 33.0428 130.922 33.0428 M130.922 29.3391 Q136.732 29.3391 139.788 33.9456 Q142.867 38.5289 142.867 47.2788 Q142.867 56.0056 139.788 60.6121 Q136.732 65.1954 130.922 65.1954 Q125.112 65.1954 122.033 60.6121 Q118.978 56.0056 118.978 47.2788 Q118.978 38.5289 122.033 33.9456 Q125.112 29.3391 130.922 29.3391 Z" fill="#000000" fill-rule="nonzero" fill-opacity="1" /><polyline clip-path="url(#clip282)" style="stroke:#009af9; stroke-linecap:round; stroke-linejoin:round; stroke-width:4; stroke-opacity:1; fill:none" points="240.392,334.886 242.445,334.163 244.498,334.338 246.55,334.482 248.603,334.493 250.656,330.547 252.709,327.858 254.762,332.567 256.815,333.448 258.868,334.275 260.921,323.856 262.974,334.575 265.027,334.626 267.079,334.42 269.132,347.276 271.185,348.127 273.238,348.477 275.291,347.176 277.344,349.568 279.397,341.974 281.45,341.339 283.503,335.922 285.555,446.223 287.608,448.081 289.661,410.615 291.714,407.104 293.767,379.227 295.82,379.23 297.873,379.085 299.926,409.655 301.979,417.627 304.031,416.28 306.084,417.75 308.137,417.162 310.19,406.422 312.243,406.479 314.296,401.286 316.349,401.303 318.402,396.965 320.455,402.446 322.507,407.851 324.56,452.866 326.613,451.356 328.666,451.253 330.719,450.12 332.772,448.631 334.825,474.753 336.878,321.947 338.931,318.922 340.984,321.53 343.036,329.779 345.089,340.168 347.142,339.853 349.195,344.939 351.248,345.373 353.301,345.373 355.354,347.68 357.407,347.362 359.46,334.276 361.512,335.951 363.565,332.339 365.618,333.525 367.671,337.722 369.724,337.699 371.777,349.213 373.83,347.738 375.883,347.671 377.936,344.944 379.988,342.354 382.041,349.258 384.094,366.124 386.147,365.477 388.2,370.557 390.253,370.804 392.306,370.895 394.359,371.14 396.412,370.548 398.464,370.802 400.517,370.024 402.57,366.055 404.623,366.16 406.676,366.076 408.729,347.962 410.782,355.533 412.835,354.401 414.888,354.303 416.94,354.323 418.993,355.782 421.046,355.283 423.099,358.307 425.152,354.878 427.205,355.247 429.258,359.308 431.311,359.428 433.364,359.398 435.417,367.14 437.469,382.007 439.522,372.724 441.575,372.31 443.628,370.282 445.681,370.652 447.734,370.719 449.787,363.908 451.84,360.916 453.893,368.197 455.945,369.576 457.998,369.332 460.051,370.164 462.104,371.265 464.157,370.582 466.21,371.009 468.263,363.556 470.316,358.541 472.369,360.44 474.421,377.935 476.474,356.929 478.527,388.234 480.58,367.263 482.633,368.394 484.686,359.305 486.739,375.311 488.792,375.082 490.845,366.323 492.897,358.934 494.95,346.586 497.003,344.495 499.056,341.165 501.109,370.825 503.162,400.803 505.215,400.916 507.268,399.594 509.321,396.371 511.374,384.627 513.426,384.441 515.479,385.968 517.532,369.032 519.585,369.096 521.638,371.334 523.691,371.327 525.744,369.278 527.797,379.485 529.85,377.351 531.902,390.107 533.955,389.173 536.008,389.172 538.061,391.001 540.114,380.044 542.167,352.548 544.22,354.95 546.273,354.952 548.326,367.347 550.378,362.708 552.431,364.648 554.484,348.883 556.537,348.929 558.59,349.024 560.643,346.661 562.696,341.493 564.749,340.227 566.802,340.667 568.854,340.631 570.907,343.724 572.96,342.917 575.013,340.82 577.066,341.067 579.119,340.357 581.172,340.711 583.225,339.039 585.278,338.299 587.331,387.495 589.383,386.019 591.436,387.969 593.489,387.714 595.542,365.786 597.595,357.615 599.648,357.614 601.701,357.499 603.754,357.678 605.807,342.678 607.859,342.61 609.912,342.628 611.965,342.697 614.018,341.523 616.071,339.7 618.124,339.908 620.177,342.134 622.23,342.008 624.283,342.15 626.335,348.54 628.388,347.264 630.441,348.102 632.494,353.916 634.547,363.701 636.6,368.024 638.653,366.74 640.706,359.705 642.759,363.17 644.811,341.857 646.864,332.274 648.917,339.87 650.97,373.557 653.023,374.954 655.076,374.927 657.129,369.797 659.182,367.65 661.235,368.118 663.288,367.997 665.34,419.895 667.393,418.037 669.446,422.481 671.499,423.239 673.552,401.768 675.605,402.093 677.658,404.093 679.711,401.912 681.764,403.585 683.816,403.591 685.869,388.513 687.922,389.068 689.975,392.397 692.028,392.4 694.081,386.466 696.134,402.986 698.187,380.974 700.24,376.403 702.292,364.023 704.345,380.896 706.398,377.367 708.451,376.443 710.504,378.158 712.557,379.832 714.61,375.773 716.663,380.208 718.716,379.614 720.768,385.765 722.821,277.12 724.874,322.217 726.927,334.67 728.98,318.408 731.033,334.969 733.086,341.487 735.139,361.916 737.192,362.01 739.245,358.032 741.297,371.662 743.35,437.516 745.403,427.418 747.456,427.53 749.509,428.046 751.562,410.834 753.615,357.28 755.668,351.007 757.721,342.65 759.773,340.559 761.826,340.614 763.879,347.704 765.932,347.674 767.985,394.506 770.038,393.444 772.091,396.414 774.144,419.11 776.197,446.624 778.249,450.044 780.302,449.861 782.355,450.085 784.408,449.446 786.461,456.282 788.514,463.286 790.567,463.193 792.62,443.529 794.673,456.38 796.725,481.796 798.778,476.198 800.831,480.437 802.884,444.399 804.937,444.185 806.99,452.928 809.043,444.637 811.096,437.654 813.149,437.724 815.202,497.761 817.254,495.824 819.307,457.487 821.36,469.348 823.413,456.745 825.466,453.557 827.519,464.523 829.572,292.885 831.625,299.934 833.678,305.954 835.73,185.347 837.783,312.78 839.836,310.143 841.889,423.097 843.942,470.778 845.995,452.92 848.048,447.476 850.101,455.002 852.154,436.498 854.206,454.661 856.259,454.058 858.312,484.783 860.365,395.041 862.418,341.22 864.471,321.078 866.524,308.329 868.577,310.139 870.63,388.622 872.682,376.572 874.735,301.182 876.788,315.628 878.841,250.088 880.894,237.425 882.947,245.627 885,275.164 887.053,273.776 889.106,255.214 891.159,258.016 893.211,273.767 895.264,270.435 897.317,426.339 899.37,456.551 901.423,448.706 903.476,313.595 905.529,317.648 907.582,320.769 909.635,320.662 911.687,285.097 913.74,288.783 915.793,275.896 917.846,282.073 919.899,282.088 921.952,276.906 924.005,275.707 926.058,263.666 928.111,286.802 930.163,256.059 932.216,230.962 934.269,228.934 936.322,234.87 938.375,253.593 940.428,254.085 942.481,301.075 944.534,295.604 946.587,304.325 948.639,304.878 950.692,292.381 952.745,229.06 954.798,221.915 956.851,309.568 958.904,335.553 960.957,227.057 963.01,160.074 965.063,148.102 967.116,28.7738 969.168,20.6387 971.221,-72.9478 973.274,-99.1543 975.327,-73.7735 977.38,-95.066 979.433,-94.7642 981.486,-83.8657 983.539,24.0693 985.592,-6.95757 987.644,-53.6713 989.697,-0.732216 991.75,-10.9147 993.803,-12.8597 995.856,2.77902 997.909,47.0758 999.962,14.6987 1002.01,-59.3052 1004.07,-99.3712 1006.12,119.596 1008.17,114.933 1010.23,130.222 1012.28,104.285 1014.33,86.5467 1016.38,45.8307 1018.44,14.4724 1020.49,68.6482 1022.54,-69.4473 1024.6,69.8255 1026.65,116.941 1028.7,149.71 1030.76,84.8178 1032.81,79.8022 1034.86,100.36 1036.91,205.301 1038.97,160.109 1041.02,154.21 1043.07,449.23 1045.13,291.668 1047.18,288.345 1049.23,278.582 1051.28,265.033 1053.34,266.269 1055.39,562.643 1057.44,530.73 1059.5,507.217 1061.55,551.392 1063.6,528.018 1065.65,145.909 1067.71,575.625 1069.76,643.117 1071.81,648.892 1073.87,503.954 1075.92,288.466 1077.97,309.919 1080.02,303.75 1082.08,271.451 1084.13,512.351 1086.18,500.324 1088.24,506.864 1090.29,852.227 1092.34,828.249 1094.39,820.174 1096.45,841.185 1098.5,817.795 1100.55,818.051 1102.61,674.9 1104.66,660.207 1106.71,618.948 1108.77,637.99 1110.82,638.376 1112.87,684.99 1114.92,686.731 1116.98,677.244 1119.03,516.574 1121.08,382.241 1123.14,390.691 1125.19,391.231 1127.24,337.595 1129.29,311.132 1131.35,254.369 1133.4,384.17 1135.45,368.309 1137.51,342.545 1139.56,552.865 1141.61,502.34 1143.66,517.415 1145.72,534.594 1147.77,603.581 1149.82,604.069 1151.88,491.564 1153.93,684.932 1155.98,477.214 1158.03,506.267 1160.09,504.444 1162.14,557.17 1164.19,558.663 1166.25,566.921 1168.3,740.788 1170.35,726.376 1172.4,714.836 1174.46,736.005 1176.51,719.967 1178.56,703.921 1180.62,701.261 1182.67,612.622 1184.72,470.638 1186.77,279.689 1188.83,171.525 1190.88,224.016 1192.93,300.839 1194.99,296.914 1197.04,333.167 1199.09,413.368 1201.15,408.093 1203.2,400.567 1205.25,376.584 1207.3,376.655 1209.36,363.896 1211.41,330.032 1213.46,328.997 1215.52,311.098 1217.57,454.78 1219.62,505.019 1221.67,611.366 1223.73,612.814 1225.78,670.32 1227.83,754.417 1229.89,734.536 1231.94,574.788 1233.99,595.194 1236.04,351.941 1238.1,414.442 1240.15,393.45 1242.2,339.949 1244.26,234.933 1246.31,331.176 1248.36,226.958 1250.41,177.889 1252.47,389.81 1254.52,348.868 1256.57,402.185 1258.63,408.375 1260.68,496.065 1262.73,328.031 1264.78,445.087 1266.84,457.099 1268.89,492.374 1270.94,492.4 1273,495.154 1275.05,337.078 1277.1,328.224 1279.16,350.033 1281.21,351.417 1283.26,407.559 1285.31,490.606 1287.37,445.333 1289.42,440.23 1291.47,416.818 1293.53,441.358 1295.58,492.454 1297.63,450.875 1299.68,504.998 1301.74,507.862 1303.79,402.774 1305.84,326.611 1307.9,274.958 1309.95,269.702 1312,266.703 1314.05,266.728 1316.11,267.894 1318.16,432.868 1320.21,516.01 1322.27,527.43 1324.32,540.429 1326.37,482.573 1328.42,484.542 1330.48,514.824 1332.53,377.021 1334.58,361.001 1336.64,374.97 1338.69,375.156 1340.74,375.139 1342.79,360.36 1344.85,317.579 1346.9,330.614 1348.95,330.987 1351.01,340.004 1353.06,343.208 1355.11,344.827 1357.16,345.279 1359.22,338.765 1361.27,348.37 1363.32,130.391 1365.38,351.306 1367.43,340.464 1369.48,348.371 1371.54,345.429 1373.59,218.141 1375.64,216.6 1377.69,258.964 1379.75,542.116 1381.8,557.395 1383.85,557.343 1385.91,557.833 1387.96,557.793 1390.01,549.93 1392.06,468.916 1394.12,467.858 1396.17,466.096 1398.22,463.925 1400.28,492.405 1402.33,505.446 1404.38,519.475 1406.43,535.919 1408.49,538.932 1410.54,512.733 1412.59,511.756 1414.65,479.022 1416.7,464.447 1418.75,482.435 1420.8,502.467 1422.86,446.228 1424.91,470.132 1426.96,352.717 1429.02,361.323 1431.07,308.015 1433.12,318.513 1435.17,319.678 1437.23,330.356 1439.28,350.833 1441.33,404.603 1443.39,395.395 1445.44,415.504 1447.49,389.169 1449.55,389.849 1451.6,394.719 1453.65,384.829 1455.7,384.732 1457.76,375.889 1459.81,376.028 1461.86,381.889 1463.92,379.545 1465.97,347.675 1468.02,329.329 1470.07,381.388 1472.13,413.424 1474.18,403.789 1476.23,378.057 1478.29,360.342 1480.34,358.606 1482.39,357.341 1484.44,365.172 1486.5,377.697 1488.55,377.746 1490.6,343.293 1492.66,363.139 1494.71,353.928 1496.76,353.887 1498.81,362.886 1500.87,364.609 1502.92,378.756 1504.97,372.832 1507.03,372.445 1509.08,372.89 1511.13,372.447 1513.18,368.902 1515.24,343.917 1517.29,348.867 1519.34,359.963 1521.4,372.275 1523.45,372.325 1525.5,379.606 1527.55,376.614 1529.61,380.648 1531.66,373.15 1533.71,374.169 1535.77,382.214 1537.82,381.598 1539.87,374.418 1541.93,374.499 1543.98,365.882 1546.03,340.849 1548.08,340.944 1550.14,336.152 1552.19,336.093 1554.24,335.597 1556.3,382.682 1558.35,381.845 1560.4,381.803 1562.45,381.142 1564.51,379.861 1566.56,389.126 1568.61,389.479 1570.67,389.818 1572.72,385.422 1574.77,386.826 1576.82,384.281 1578.88,383.264 1580.93,383.418 1582.98,386.11 1585.04,386.312 1587.09,384.2 1589.14,382.247 1591.19,380.246 1593.25,380.249 1595.3,380.284 1597.35,384.923 1599.41,361.767 1601.46,351.415 1603.51,356.129 1605.56,363.414 1607.62,364.158 1609.67,364.126 1611.72,364.174 1613.78,363.569 1615.83,385.117 1617.88,383.353 1619.94,380.427 1621.99,384.54 1624.04,408.994 1626.09,422.493 1628.15,405.124 1630.2,404.802 1632.25,434.121 1634.31,432.731 1636.36,416.315 1638.41,424.47 1640.46,430.033 1642.52,430.801 1644.57,430.798 1646.62,414.791 1648.68,415.516 1650.73,416.172 1652.78,414.083 1654.83,414.032 1656.89,419.32 1658.94,419.79 1660.99,424.34 1663.05,399.012 1665.1,404.007 1667.15,407.834 1669.2,400.758 1671.26,397.753 1673.31,383.593 1675.36,384.506 1677.42,371.582 1679.47,379.733 1681.52,380.129 1683.57,375.596 1685.63,376.527 1687.68,389.548 1689.73,377.085 1691.79,373.584 1693.84,373.12 1695.89,375.424 1697.94,376.379 1700,379.357 1702.05,355.229 1704.1,375.545 1706.16,374.506 1708.21,374.523 1710.26,390.709 1712.32,389.795 1714.37,388.995 1716.42,389.639 1718.47,389.819 1720.53,389.916 1722.58,389.993 1724.63,384.778 1726.69,381.737 1728.74,380.095 1730.79,379.975 1732.84,380 1734.9,388.201 1736.95,388.213 1739,368.557 1741.06,369.341 1743.11,370.152 1745.16,376.73 1747.21,342.206 1749.27,343.685 1751.32,340.945 1753.37,307.55 1755.43,331.546 1757.48,332.03 1759.53,271.818 1761.58,273.776 1763.64,294.914 1765.69,286.044 1767.74,286.052 1769.8,323.737 1771.85,322.913 1773.9,319.493 1775.95,359.457 1778.01,359.286 1780.06,359.834 1782.11,354.154 1784.17,354.992 1786.22,351.78 1788.27,351.245 1790.33,351.954 1792.38,328.328 1794.43,326.505 1796.48,319.281 1798.54,314.295 1800.59,337.49 1802.64,317.07 1804.7,341.776 1806.75,301.886 1808.8,301.855 1810.85,488.601 1812.91,478.857 1814.96,475.682 1817.01,518.842 1819.07,507.908 1821.12,507.934 1823.17,459.289 1825.22,546.205 1827.28,527.044 1829.33,526.989 1831.38,289.119 1833.44,255.181 1835.49,255.203 1837.54,236.643 1839.59,228.908 1841.65,219.958 1843.7,215.887 1845.75,207.397 1847.81,189.209 1849.86,204.267 1851.91,208.707 1853.96,192.771 1856.02,196.883 1858.07,193.687 1860.12,192.508 1862.18,222.086 1864.23,252.836 1866.28,219.506 1868.34,280.24 1870.39,390.983 1872.44,369.01 1874.49,340.937 1876.55,375.873 1878.6,362.038 1880.65,361.122 1882.71,399.181 1884.76,398.425 1886.81,399.457 1888.86,441.75 1890.92,443.238 1892.97,435.543 1895.02,437.425 1897.08,412.317 1899.13,475.663 1901.18,476.658 1903.23,478.609 1905.29,280.294 1907.34,277.459 1909.39,277.351 1911.45,279.643 1913.5,258.38 1915.55,264.773 1917.6,281.861 1919.66,283.861 1921.71,329.42 1923.76,332.166 1925.82,331.681 1927.87,336.883 1929.92,340.403 1931.97,338.91 1934.03,339.405 1936.08,339.104 1938.13,340.572 1940.19,394.988 1942.24,393.633 1944.29,395.537 1946.34,343.588 1948.4,362.646 1950.45,369.839 1952.5,367.242 1954.56,370.739 1956.61,370.536 1958.66,366.406 1960.72,360.517 1962.77,356.963 1964.82,358.314 1966.87,332.046 1968.93,367.209 1970.98,367.382 1973.03,393.517 1975.09,349.759 1977.14,327.747 1979.19,321.733 1981.24,320.691 1983.3,326.914 1985.35,311.991 1987.4,345.885 1989.46,317.08 1991.51,332.779 1993.56,335.073 1995.61,428.046 1997.67,515.543 1999.72,529.382 2001.77,525.329 2003.83,514.228 2005.88,460.065 2007.93,458.188 2009.98,457.02 2012.04,457.119 2014.09,439.813 2016.14,439.715 2018.2,454.477 2020.25,442.124 2022.3,407.815 2024.35,405.292 2026.41,395.673 2028.46,335.946 2030.51,329.998 2032.57,330.055 2034.62,325.894 2036.67,330.748 2038.73,329.875 2040.78,322.384 2042.83,323.332 2044.88,318.38 2046.94,319.876 2048.99,377.778 2051.04,398.029 2053.1,401.077 2055.15,374.352 2057.2,375.498 2059.25,372.945 2061.31,378.129 2063.36,371.194 2065.41,367.664 2067.47,365.647 2069.52,390.437 2071.57,381.605 2073.62,318.284 2075.68,317.655 2077.73,313.908 2079.78,318.429 2081.84,318.81 2083.89,318.82 2085.94,318.823 2087.99,317.906 2090.05,317.201 2092.1,322.75 2094.15,330.224 2096.21,330.231 2098.26,330.11 2100.31,334.668 2102.36,331.354 2104.42,333.096 2106.47,338.511 2108.52,338.809 2110.58,338.373 2112.63,337.785 2114.68,337.814 2116.73,337.627 2118.79,334.091 2120.84,334.856 2122.89,335.546 2124.95,331.907 2127,362.769 2129.05,362.746 2131.11,367.173 2133.16,333.484 2135.21,333.769 2137.26,331.925 2139.32,341.47 2141.37,336.517 2143.42,346.621 2145.48,346.346 2147.53,344.048 2149.58,344.939 2151.63,346.237 2153.69,341.181 2155.74,327.712 2157.79,329.557 2159.85,329.452 2161.9,329.615 2163.95,337.26 2166,336.437 2168.06,326.462 2170.11,326.408 2172.16,335.92 2174.22,335.906 2176.27,366.489 2178.32,378.023 2180.37,377.487 2182.43,374.169 2184.48,369.343 2186.53,372.855 2188.59,372.605 2190.64,350.909 2192.69,351.499 2194.74,356.259 2196.8,344.735 2198.85,366.663 2200.9,349.663 2202.96,310.968 2205.01,332.597 2207.06,342.276 2209.12,360.944 2211.17,364.65 2213.22,364.624 2215.27,364.665 2217.33,365.215 2219.38,362.622 2221.43,362.471 2223.49,361.966 2225.54,361.995 2227.59,362.386 2229.64,362.784 2231.7,361.535 2233.75,377.293 2235.8,380.181 2237.86,381.282 2239.91,369.166 2241.96,382.647 2244.01,383.593 2246.07,382.198 2248.12,381.047 2250.17,381.695 2252.23,346.145 2254.28,349.239 2256.33,350.143 2258.38,386.802 2260.44,386.538 2262.49,380.641 2264.54,377.442 2266.6,373.107 2268.65,373.131 2270.7,372.788 2272.75,373.014 2274.81,390.575 2276.86,390.587 2278.91,391.272 2280.97,368.858 2283.02,366.956 2285.07,340.251 2287.12,361.02 2289.18,361.027 2291.23,368.737 "/>
<path clip-path="url(#clip280)" d="M251.33 172.231 L548.024 172.231 L548.024 68.5509 L251.33 68.5509  Z" fill="#ffffff" fill-rule="evenodd" fill-opacity="1"/>
<polyline clip-path="url(#clip280)" style="stroke:#000000; stroke-linecap:round; stroke-linejoin:round; stroke-width:4; stroke-opacity:1; fill:none" points="251.33,172.231 548.024,172.231 548.024,68.5509 251.33,68.5509 251.33,172.231 "/>
<polyline clip-path="url(#clip280)" style="stroke:#009af9; stroke-linecap:round; stroke-linejoin:round; stroke-width:4; stroke-opacity:1; fill:none" points="275.484,120.391 420.41,120.391 "/>
<path clip-path="url(#clip280)" d="M444.564 103.111 L449.24 103.111 L449.24 133.736 L466.069 133.736 L466.069 137.671 L444.564 137.671 L444.564 103.111 Z" fill="#000000" fill-rule="nonzero" fill-opacity="1" /><path clip-path="url(#clip280)" d="M491.694 104.245 L491.694 108.805 Q489.032 107.532 486.67 106.907 Q484.309 106.282 482.11 106.282 Q478.291 106.282 476.208 107.764 Q474.147 109.245 474.147 111.977 Q474.147 114.268 475.513 115.449 Q476.902 116.606 480.745 117.324 L483.569 117.902 Q488.8 118.898 491.277 121.421 Q493.777 123.921 493.777 128.134 Q493.777 133.157 490.397 135.75 Q487.041 138.342 480.536 138.342 Q478.083 138.342 475.305 137.787 Q472.55 137.231 469.587 136.143 L469.587 131.328 Q472.434 132.926 475.166 133.736 Q477.897 134.546 480.536 134.546 Q484.541 134.546 486.717 132.972 Q488.893 131.398 488.893 128.481 Q488.893 125.935 487.319 124.5 Q485.768 123.064 482.203 122.347 L479.356 121.791 Q474.124 120.75 471.786 118.527 Q469.448 116.305 469.448 112.347 Q469.448 107.764 472.666 105.125 Q475.907 102.486 481.578 102.486 Q484.008 102.486 486.532 102.926 Q489.055 103.366 491.694 104.245 Z" fill="#000000" fill-rule="nonzero" fill-opacity="1" /><path clip-path="url(#clip280)" d="M521.786 104.245 L521.786 108.805 Q519.124 107.532 516.763 106.907 Q514.402 106.282 512.203 106.282 Q508.383 106.282 506.3 107.764 Q504.24 109.245 504.24 111.977 Q504.24 114.268 505.606 115.449 Q506.994 116.606 510.837 117.324 L513.661 117.902 Q518.893 118.898 521.369 121.421 Q523.869 123.921 523.869 128.134 Q523.869 133.157 520.49 135.75 Q517.133 138.342 510.629 138.342 Q508.175 138.342 505.397 137.787 Q502.643 137.231 499.68 136.143 L499.68 131.328 Q502.527 132.926 505.258 133.736 Q507.99 134.546 510.629 134.546 Q514.633 134.546 516.809 132.972 Q518.985 131.398 518.985 128.481 Q518.985 125.935 517.411 124.5 Q515.86 123.064 512.295 122.347 L509.448 121.791 Q504.217 120.75 501.879 118.527 Q499.541 116.305 499.541 112.347 Q499.541 107.764 502.758 105.125 Q505.999 102.486 511.67 102.486 Q514.101 102.486 516.624 102.926 Q519.147 103.366 521.786 104.245 Z" fill="#000000" fill-rule="nonzero" fill-opacity="1" /><path clip-path="url(#clip280)" d="M178.867 1486.45 L2352.76 1486.45 L2352.76 847.244 L178.867 847.244  Z" fill="#ffffff" fill-rule="evenodd" fill-opacity="1"/>
<defs>
  <clipPath id="clip283">
    <rect x="178" y="847" width="2175" height="640"/>
  </clipPath>
</defs>
<polyline clip-path="url(#clip283)" style="stroke:#000000; stroke-linecap:round; stroke-linejoin:round; stroke-width:2; stroke-opacity:0.1; fill:none" points="238.339,1486.45 238.339,847.244 "/>
<polyline clip-path="url(#clip283)" style="stroke:#000000; stroke-linecap:round; stroke-linejoin:round; stroke-width:2; stroke-opacity:0.1; fill:none" points="751.562,1486.45 751.562,847.244 "/>
<polyline clip-path="url(#clip283)" style="stroke:#000000; stroke-linecap:round; stroke-linejoin:round; stroke-width:2; stroke-opacity:0.1; fill:none" points="1264.78,1486.45 1264.78,847.244 "/>
<polyline clip-path="url(#clip283)" style="stroke:#000000; stroke-linecap:round; stroke-linejoin:round; stroke-width:2; stroke-opacity:0.1; fill:none" points="1778.01,1486.45 1778.01,847.244 "/>
<polyline clip-path="url(#clip283)" style="stroke:#000000; stroke-linecap:round; stroke-linejoin:round; stroke-width:2; stroke-opacity:0.1; fill:none" points="2291.23,1486.45 2291.23,847.244 "/>
<polyline clip-path="url(#clip283)" style="stroke:#000000; stroke-linecap:round; stroke-linejoin:round; stroke-width:2; stroke-opacity:0.1; fill:none" points="178.867,1486.45 2352.76,1486.45 "/>
<polyline clip-path="url(#clip283)" style="stroke:#000000; stroke-linecap:round; stroke-linejoin:round; stroke-width:2; stroke-opacity:0.1; fill:none" points="178.867,1326.65 2352.76,1326.65 "/>
<polyline clip-path="url(#clip283)" style="stroke:#000000; stroke-linecap:round; stroke-linejoin:round; stroke-width:2; stroke-opacity:0.1; fill:none" points="178.867,1166.85 2352.76,1166.85 "/>
<polyline clip-path="url(#clip283)" style="stroke:#000000; stroke-linecap:round; stroke-linejoin:round; stroke-width:2; stroke-opacity:0.1; fill:none" points="178.867,1007.05 2352.76,1007.05 "/>
<polyline clip-path="url(#clip283)" style="stroke:#000000; stroke-linecap:round; stroke-linejoin:round; stroke-width:2; stroke-opacity:0.1; fill:none" points="178.867,847.244 2352.76,847.244 "/>
<polyline clip-path="url(#clip280)" style="stroke:#000000; stroke-linecap:round; stroke-linejoin:round; stroke-width:4; stroke-opacity:1; fill:none" points="178.867,1486.45 2352.76,1486.45 "/>
<polyline clip-path="url(#clip280)" style="stroke:#000000; stroke-linecap:round; stroke-linejoin:round; stroke-width:4; stroke-opacity:1; fill:none" points="238.339,1486.45 238.339,1467.55 "/>
<polyline clip-path="url(#clip280)" style="stroke:#000000; stroke-linecap:round; stroke-linejoin:round; stroke-width:4; stroke-opacity:1; fill:none" points="751.562,1486.45 751.562,1467.55 "/>
<polyline clip-path="url(#clip280)" style="stroke:#000000; stroke-linecap:round; stroke-linejoin:round; stroke-width:4; stroke-opacity:1; fill:none" points="1264.78,1486.45 1264.78,1467.55 "/>
<polyline clip-path="url(#clip280)" style="stroke:#000000; stroke-linecap:round; stroke-linejoin:round; stroke-width:4; stroke-opacity:1; fill:none" points="1778.01,1486.45 1778.01,1467.55 "/>
<polyline clip-path="url(#clip280)" style="stroke:#000000; stroke-linecap:round; stroke-linejoin:round; stroke-width:4; stroke-opacity:1; fill:none" points="2291.23,1486.45 2291.23,1467.55 "/>
<path clip-path="url(#clip280)" d="M238.339 1517.37 Q234.728 1517.37 232.899 1520.93 Q231.094 1524.47 231.094 1531.6 Q231.094 1538.71 232.899 1542.27 Q234.728 1545.82 238.339 1545.82 Q241.973 1545.82 243.779 1542.27 Q245.607 1538.71 245.607 1531.6 Q245.607 1524.47 243.779 1520.93 Q241.973 1517.37 238.339 1517.37 M238.339 1513.66 Q244.149 1513.66 247.205 1518.27 Q250.283 1522.85 250.283 1531.6 Q250.283 1540.33 247.205 1544.94 Q244.149 1549.52 238.339 1549.52 Q232.529 1549.52 229.45 1544.94 Q226.395 1540.33 226.395 1531.6 Q226.395 1522.85 229.45 1518.27 Q232.529 1513.66 238.339 1513.66 Z" fill="#000000" fill-rule="nonzero" fill-opacity="1" /><path clip-path="url(#clip280)" d="M715.254 1544.91 L731.574 1544.91 L731.574 1548.85 L709.629 1548.85 L709.629 1544.91 Q712.291 1542.16 716.875 1537.53 Q721.481 1532.88 722.662 1531.53 Q724.907 1529.01 725.787 1527.27 Q726.689 1525.51 726.689 1523.82 Q726.689 1521.07 724.745 1519.33 Q722.824 1517.6 719.722 1517.6 Q717.523 1517.6 715.069 1518.36 Q712.638 1519.13 709.861 1520.68 L709.861 1515.95 Q712.685 1514.82 715.138 1514.24 Q717.592 1513.66 719.629 1513.66 Q725 1513.66 728.194 1516.35 Q731.388 1519.03 731.388 1523.52 Q731.388 1525.65 730.578 1527.57 Q729.791 1529.47 727.685 1532.07 Q727.106 1532.74 724.004 1535.95 Q720.902 1539.15 715.254 1544.91 Z" fill="#000000" fill-rule="nonzero" fill-opacity="1" /><path clip-path="url(#clip280)" d="M741.435 1514.29 L759.791 1514.29 L759.791 1518.22 L745.717 1518.22 L745.717 1526.7 Q746.736 1526.35 747.754 1526.19 Q748.773 1526 749.791 1526 Q755.578 1526 758.958 1529.17 Q762.337 1532.34 762.337 1537.76 Q762.337 1543.34 758.865 1546.44 Q755.393 1549.52 749.073 1549.52 Q746.898 1549.52 744.629 1549.15 Q742.384 1548.78 739.976 1548.04 L739.976 1543.34 Q742.06 1544.47 744.282 1545.03 Q746.504 1545.58 748.981 1545.58 Q752.985 1545.58 755.323 1543.48 Q757.661 1541.37 757.661 1537.76 Q757.661 1534.15 755.323 1532.04 Q752.985 1529.94 748.981 1529.94 Q747.106 1529.94 745.231 1530.35 Q743.379 1530.77 741.435 1531.65 L741.435 1514.29 Z" fill="#000000" fill-rule="nonzero" fill-opacity="1" /><path clip-path="url(#clip280)" d="M781.55 1517.37 Q777.939 1517.37 776.11 1520.93 Q774.305 1524.47 774.305 1531.6 Q774.305 1538.71 776.11 1542.27 Q777.939 1545.82 781.55 1545.82 Q785.184 1545.82 786.99 1542.27 Q788.819 1538.71 788.819 1531.6 Q788.819 1524.47 786.99 1520.93 Q785.184 1517.37 781.55 1517.37 M781.55 1513.66 Q787.36 1513.66 790.416 1518.27 Q793.495 1522.85 793.495 1531.6 Q793.495 1540.33 790.416 1544.94 Q787.36 1549.52 781.55 1549.52 Q775.74 1549.52 772.661 1544.94 Q769.606 1540.33 769.606 1531.6 Q769.606 1522.85 772.661 1518.27 Q775.74 1513.66 781.55 1513.66 Z" fill="#000000" fill-rule="nonzero" fill-opacity="1" /><path clip-path="url(#clip280)" d="M1224.4 1514.29 L1242.76 1514.29 L1242.76 1518.22 L1228.69 1518.22 L1228.69 1526.7 Q1229.7 1526.35 1230.72 1526.19 Q1231.74 1526 1232.76 1526 Q1238.55 1526 1241.93 1529.17 Q1245.31 1532.34 1245.31 1537.76 Q1245.31 1543.34 1241.83 1546.44 Q1238.36 1549.52 1232.04 1549.52 Q1229.87 1549.52 1227.6 1549.15 Q1225.35 1548.78 1222.94 1548.04 L1222.94 1543.34 Q1225.03 1544.47 1227.25 1545.03 Q1229.47 1545.58 1231.95 1545.58 Q1235.95 1545.58 1238.29 1543.48 Q1240.63 1541.37 1240.63 1537.76 Q1240.63 1534.15 1238.29 1532.04 Q1235.95 1529.94 1231.95 1529.94 Q1230.07 1529.94 1228.2 1530.35 Q1226.35 1530.77 1224.4 1531.65 L1224.4 1514.29 Z" fill="#000000" fill-rule="nonzero" fill-opacity="1" /><path clip-path="url(#clip280)" d="M1264.52 1517.37 Q1260.91 1517.37 1259.08 1520.93 Q1257.27 1524.47 1257.27 1531.6 Q1257.27 1538.71 1259.08 1542.27 Q1260.91 1545.82 1264.52 1545.82 Q1268.15 1545.82 1269.96 1542.27 Q1271.79 1538.71 1271.79 1531.6 Q1271.79 1524.47 1269.96 1520.93 Q1268.15 1517.37 1264.52 1517.37 M1264.52 1513.66 Q1270.33 1513.66 1273.38 1518.27 Q1276.46 1522.85 1276.46 1531.6 Q1276.46 1540.33 1273.38 1544.94 Q1270.33 1549.52 1264.52 1549.52 Q1258.71 1549.52 1255.63 1544.94 Q1252.57 1540.33 1252.57 1531.6 Q1252.57 1522.85 1255.63 1518.27 Q1258.71 1513.66 1264.52 1513.66 Z" fill="#000000" fill-rule="nonzero" fill-opacity="1" /><path clip-path="url(#clip280)" d="M1294.68 1517.37 Q1291.07 1517.37 1289.24 1520.93 Q1287.44 1524.47 1287.44 1531.6 Q1287.44 1538.71 1289.24 1542.27 Q1291.07 1545.82 1294.68 1545.82 Q1298.31 1545.82 1300.12 1542.27 Q1301.95 1538.71 1301.95 1531.6 Q1301.95 1524.47 1300.12 1520.93 Q1298.31 1517.37 1294.68 1517.37 M1294.68 1513.66 Q1300.49 1513.66 1303.55 1518.27 Q1306.62 1522.85 1306.62 1531.6 Q1306.62 1540.33 1303.55 1544.94 Q1300.49 1549.52 1294.68 1549.52 Q1288.87 1549.52 1285.79 1544.94 Q1282.74 1540.33 1282.74 1531.6 Q1282.74 1522.85 1285.79 1518.27 Q1288.87 1513.66 1294.68 1513.66 Z" fill="#000000" fill-rule="nonzero" fill-opacity="1" /><path clip-path="url(#clip280)" d="M1736.28 1514.29 L1758.51 1514.29 L1758.51 1516.28 L1745.96 1548.85 L1741.08 1548.85 L1752.88 1518.22 L1736.28 1518.22 L1736.28 1514.29 Z" fill="#000000" fill-rule="nonzero" fill-opacity="1" /><path clip-path="url(#clip280)" d="M1767.67 1514.29 L1786.03 1514.29 L1786.03 1518.22 L1771.95 1518.22 L1771.95 1526.7 Q1772.97 1526.35 1773.99 1526.19 Q1775.01 1526 1776.03 1526 Q1781.82 1526 1785.2 1529.17 Q1788.57 1532.34 1788.57 1537.76 Q1788.57 1543.34 1785.1 1546.44 Q1781.63 1549.52 1775.31 1549.52 Q1773.14 1549.52 1770.87 1549.15 Q1768.62 1548.78 1766.21 1548.04 L1766.21 1543.34 Q1768.3 1544.47 1770.52 1545.03 Q1772.74 1545.58 1775.22 1545.58 Q1779.22 1545.58 1781.56 1543.48 Q1783.9 1541.37 1783.9 1537.76 Q1783.9 1534.15 1781.56 1532.04 Q1779.22 1529.94 1775.22 1529.94 Q1773.34 1529.94 1771.47 1530.35 Q1769.62 1530.77 1767.67 1531.65 L1767.67 1514.29 Z" fill="#000000" fill-rule="nonzero" fill-opacity="1" /><path clip-path="url(#clip280)" d="M1807.79 1517.37 Q1804.18 1517.37 1802.35 1520.93 Q1800.54 1524.47 1800.54 1531.6 Q1800.54 1538.71 1802.35 1542.27 Q1804.18 1545.82 1807.79 1545.82 Q1811.42 1545.82 1813.23 1542.27 Q1815.06 1538.71 1815.06 1531.6 Q1815.06 1524.47 1813.23 1520.93 Q1811.42 1517.37 1807.79 1517.37 M1807.79 1513.66 Q1813.6 1513.66 1816.65 1518.27 Q1819.73 1522.85 1819.73 1531.6 Q1819.73 1540.33 1816.65 1544.94 Q1813.6 1549.52 1807.79 1549.52 Q1801.98 1549.52 1798.9 1544.94 Q1795.84 1540.33 1795.84 1531.6 Q1795.84 1522.85 1798.9 1518.27 Q1801.98 1513.66 1807.79 1513.66 Z" fill="#000000" fill-rule="nonzero" fill-opacity="1" /><path clip-path="url(#clip280)" d="M2235.76 1544.91 L2243.4 1544.91 L2243.4 1518.55 L2235.09 1520.21 L2235.09 1515.95 L2243.35 1514.29 L2248.02 1514.29 L2248.02 1544.91 L2255.66 1544.91 L2255.66 1548.85 L2235.76 1548.85 L2235.76 1544.91 Z" fill="#000000" fill-rule="nonzero" fill-opacity="1" /><path clip-path="url(#clip280)" d="M2275.11 1517.37 Q2271.5 1517.37 2269.67 1520.93 Q2267.86 1524.47 2267.86 1531.6 Q2267.86 1538.71 2269.67 1542.27 Q2271.5 1545.82 2275.11 1545.82 Q2278.74 1545.82 2280.55 1542.27 Q2282.38 1538.71 2282.38 1531.6 Q2282.38 1524.47 2280.55 1520.93 Q2278.74 1517.37 2275.11 1517.37 M2275.11 1513.66 Q2280.92 1513.66 2283.97 1518.27 Q2287.05 1522.85 2287.05 1531.6 Q2287.05 1540.33 2283.97 1544.94 Q2280.92 1549.52 2275.11 1549.52 Q2269.3 1549.52 2266.22 1544.94 Q2263.16 1540.33 2263.16 1531.6 Q2263.16 1522.85 2266.22 1518.27 Q2269.3 1513.66 2275.11 1513.66 Z" fill="#000000" fill-rule="nonzero" fill-opacity="1" /><path clip-path="url(#clip280)" d="M2305.27 1517.37 Q2301.66 1517.37 2299.83 1520.93 Q2298.02 1524.47 2298.02 1531.6 Q2298.02 1538.71 2299.83 1542.27 Q2301.66 1545.82 2305.27 1545.82 Q2308.9 1545.82 2310.71 1542.27 Q2312.54 1538.71 2312.54 1531.6 Q2312.54 1524.47 2310.71 1520.93 Q2308.9 1517.37 2305.27 1517.37 M2305.27 1513.66 Q2311.08 1513.66 2314.14 1518.27 Q2317.21 1522.85 2317.21 1531.6 Q2317.21 1540.33 2314.14 1544.94 Q2311.08 1549.52 2305.27 1549.52 Q2299.46 1549.52 2296.38 1544.94 Q2293.33 1540.33 2293.33 1531.6 Q2293.33 1522.85 2296.38 1518.27 Q2299.46 1513.66 2305.27 1513.66 Z" fill="#000000" fill-rule="nonzero" fill-opacity="1" /><path clip-path="url(#clip280)" d="M2335.43 1517.37 Q2331.82 1517.37 2329.99 1520.93 Q2328.19 1524.47 2328.19 1531.6 Q2328.19 1538.71 2329.99 1542.27 Q2331.82 1545.82 2335.43 1545.82 Q2339.07 1545.82 2340.87 1542.27 Q2342.7 1538.71 2342.7 1531.6 Q2342.7 1524.47 2340.87 1520.93 Q2339.07 1517.37 2335.43 1517.37 M2335.43 1513.66 Q2341.24 1513.66 2344.3 1518.27 Q2347.38 1522.85 2347.38 1531.6 Q2347.38 1540.33 2344.3 1544.94 Q2341.24 1549.52 2335.43 1549.52 Q2329.62 1549.52 2326.54 1544.94 Q2323.49 1540.33 2323.49 1531.6 Q2323.49 1522.85 2326.54 1518.27 Q2329.62 1513.66 2335.43 1513.66 Z" fill="#000000" fill-rule="nonzero" fill-opacity="1" /><polyline clip-path="url(#clip280)" style="stroke:#000000; stroke-linecap:round; stroke-linejoin:round; stroke-width:4; stroke-opacity:1; fill:none" points="178.867,1486.45 178.867,847.244 "/>
<polyline clip-path="url(#clip280)" style="stroke:#000000; stroke-linecap:round; stroke-linejoin:round; stroke-width:4; stroke-opacity:1; fill:none" points="178.867,1486.45 197.764,1486.45 "/>
<polyline clip-path="url(#clip280)" style="stroke:#000000; stroke-linecap:round; stroke-linejoin:round; stroke-width:4; stroke-opacity:1; fill:none" points="178.867,1326.65 197.764,1326.65 "/>
<polyline clip-path="url(#clip280)" style="stroke:#000000; stroke-linecap:round; stroke-linejoin:round; stroke-width:4; stroke-opacity:1; fill:none" points="178.867,1166.85 197.764,1166.85 "/>
<polyline clip-path="url(#clip280)" style="stroke:#000000; stroke-linecap:round; stroke-linejoin:round; stroke-width:4; stroke-opacity:1; fill:none" points="178.867,1007.05 197.764,1007.05 "/>
<polyline clip-path="url(#clip280)" style="stroke:#000000; stroke-linecap:round; stroke-linejoin:round; stroke-width:4; stroke-opacity:1; fill:none" points="178.867,847.244 197.764,847.244 "/>
<path clip-path="url(#clip280)" d="M50.9921 1486.9 L80.6679 1486.9 L80.6679 1490.83 L50.9921 1490.83 L50.9921 1486.9 Z" fill="#000000" fill-rule="nonzero" fill-opacity="1" /><path clip-path="url(#clip280)" d="M91.5706 1499.79 L99.2095 1499.79 L99.2095 1473.43 L90.8993 1475.09 L90.8993 1470.83 L99.1632 1469.17 L103.839 1469.17 L103.839 1499.79 L111.478 1499.79 L111.478 1503.73 L91.5706 1503.73 L91.5706 1499.79 Z" fill="#000000" fill-rule="nonzero" fill-opacity="1" /><path clip-path="url(#clip280)" d="M130.922 1472.25 Q127.311 1472.25 125.482 1475.81 Q123.677 1479.35 123.677 1486.48 Q123.677 1493.59 125.482 1497.15 Q127.311 1500.7 130.922 1500.7 Q134.556 1500.7 136.362 1497.15 Q138.191 1493.59 138.191 1486.48 Q138.191 1479.35 136.362 1475.81 Q134.556 1472.25 130.922 1472.25 M130.922 1468.54 Q136.732 1468.54 139.788 1473.15 Q142.867 1477.73 142.867 1486.48 Q142.867 1495.21 139.788 1499.82 Q136.732 1504.4 130.922 1504.4 Q125.112 1504.4 122.033 1499.82 Q118.978 1495.21 118.978 1486.48 Q118.978 1477.73 122.033 1473.15 Q125.112 1468.54 130.922 1468.54 Z" fill="#000000" fill-rule="nonzero" fill-opacity="1" /><path clip-path="url(#clip280)" d="M82.1494 1327.1 L111.825 1327.1 L111.825 1331.03 L82.1494 1331.03 L82.1494 1327.1 Z" fill="#000000" fill-rule="nonzero" fill-opacity="1" /><path clip-path="url(#clip280)" d="M121.964 1309.37 L140.32 1309.37 L140.32 1313.3 L126.246 1313.3 L126.246 1321.77 Q127.265 1321.43 128.283 1321.27 Q129.302 1321.08 130.32 1321.08 Q136.107 1321.08 139.487 1324.25 Q142.867 1327.42 142.867 1332.84 Q142.867 1338.42 139.394 1341.52 Q135.922 1344.6 129.603 1344.6 Q127.427 1344.6 125.158 1344.23 Q122.913 1343.86 120.506 1343.12 L120.506 1338.42 Q122.589 1339.55 124.811 1340.11 Q127.033 1340.66 129.51 1340.66 Q133.515 1340.66 135.853 1338.56 Q138.191 1336.45 138.191 1332.84 Q138.191 1329.23 135.853 1327.12 Q133.515 1325.01 129.51 1325.01 Q127.635 1325.01 125.76 1325.43 Q123.908 1325.85 121.964 1326.73 L121.964 1309.37 Z" fill="#000000" fill-rule="nonzero" fill-opacity="1" /><path clip-path="url(#clip280)" d="M130.922 1152.64 Q127.311 1152.64 125.482 1156.21 Q123.677 1159.75 123.677 1166.88 Q123.677 1173.99 125.482 1177.55 Q127.311 1181.09 130.922 1181.09 Q134.556 1181.09 136.362 1177.55 Q138.191 1173.99 138.191 1166.88 Q138.191 1159.75 136.362 1156.21 Q134.556 1152.64 130.922 1152.64 M130.922 1148.94 Q136.732 1148.94 139.788 1153.55 Q142.867 1158.13 142.867 1166.88 Q142.867 1175.61 139.788 1180.21 Q136.732 1184.8 130.922 1184.8 Q125.112 1184.8 122.033 1180.21 Q118.978 1175.61 118.978 1166.88 Q118.978 1158.13 122.033 1153.55 Q125.112 1148.94 130.922 1148.94 Z" fill="#000000" fill-rule="nonzero" fill-opacity="1" /><path clip-path="url(#clip280)" d="M121.964 989.765 L140.32 989.765 L140.32 993.7 L126.246 993.7 L126.246 1002.17 Q127.265 1001.83 128.283 1001.66 Q129.302 1001.48 130.32 1001.48 Q136.107 1001.48 139.487 1004.65 Q142.867 1007.82 142.867 1013.24 Q142.867 1018.82 139.394 1021.92 Q135.922 1025 129.603 1025 Q127.427 1025 125.158 1024.63 Q122.913 1024.26 120.506 1023.51 L120.506 1018.82 Q122.589 1019.95 124.811 1020.51 Q127.033 1021.06 129.51 1021.06 Q133.515 1021.06 135.853 1018.95 Q138.191 1016.85 138.191 1013.24 Q138.191 1009.63 135.853 1007.52 Q133.515 1005.41 129.51 1005.41 Q127.635 1005.41 125.76 1005.83 Q123.908 1006.25 121.964 1007.13 L121.964 989.765 Z" fill="#000000" fill-rule="nonzero" fill-opacity="1" /><path clip-path="url(#clip280)" d="M91.5706 860.589 L99.2095 860.589 L99.2095 834.223 L90.8993 835.89 L90.8993 831.631 L99.1632 829.964 L103.839 829.964 L103.839 860.589 L111.478 860.589 L111.478 864.524 L91.5706 864.524 L91.5706 860.589 Z" fill="#000000" fill-rule="nonzero" fill-opacity="1" /><path clip-path="url(#clip280)" d="M130.922 833.043 Q127.311 833.043 125.482 836.608 Q123.677 840.149 123.677 847.279 Q123.677 854.385 125.482 857.95 Q127.311 861.492 130.922 861.492 Q134.556 861.492 136.362 857.95 Q138.191 854.385 138.191 847.279 Q138.191 840.149 136.362 836.608 Q134.556 833.043 130.922 833.043 M130.922 829.339 Q136.732 829.339 139.788 833.946 Q142.867 838.529 142.867 847.279 Q142.867 856.006 139.788 860.612 Q136.732 865.195 130.922 865.195 Q125.112 865.195 122.033 860.612 Q118.978 856.006 118.978 847.279 Q118.978 838.529 122.033 833.946 Q125.112 829.339 130.922 829.339 Z" fill="#000000" fill-rule="nonzero" fill-opacity="1" /><polyline clip-path="url(#clip283)" style="stroke:#009af9; stroke-linecap:round; stroke-linejoin:round; stroke-width:4; stroke-opacity:1; fill:none" points="240.392,1134.89 242.445,1269.8 244.498,1290.99 246.55,1227.43 248.603,1156.3 250.656,1219.64 252.709,1211.79 254.762,1187.11 256.815,1188.88 258.868,1361.55 260.921,1246.7 262.974,1153.31 265.027,1176.42 267.079,961.169 269.132,1016.02 271.185,1075.8 273.238,1045.6 275.291,1229.05 277.344,1152.04 279.397,1159.24 281.45,1145.27 283.503,1173.79 285.555,1129.67 287.608,1148.87 289.661,1134.22 291.714,1071.01 293.767,1092.71 295.82,1188.12 297.873,1177.23 299.926,1198.22 301.979,1196.59 304.031,1053.65 306.084,1257.93 308.137,1461.04 310.19,-214.435 312.243,1303.61 314.296,1404.09 316.349,1405.11 318.402,233.525 320.455,2650.65 322.507,1501.7 324.56,1080.48 326.613,1126.36 328.666,1306.98 330.719,1087.33 332.772,1273.83 334.825,1239.18 336.878,1248.81 338.931,1114.48 340.984,1111.06 343.036,1150.41 345.089,1150.48 347.142,1137.42 349.195,1185.28 351.248,1160.39 353.301,1135.88 355.354,1135.74 357.407,1176.13 359.46,1197.67 361.512,1156.64 363.565,1151.44 365.618,1058.2 367.671,1185.92 369.724,1161.43 371.777,1155.39 373.83,1195.12 375.883,1137.39 377.936,1212.94 379.988,1203.13 382.041,1221.36 384.094,1142.93 386.147,1216.24 388.2,917.274 390.253,1187.81 392.306,1003.11 394.359,1132.34 396.412,1131.98 398.464,1091.57 400.517,1181.11 402.57,1121.17 404.623,1195 406.676,1209.2 408.729,1225.89 410.782,1134.27 412.835,1170.75 414.888,1160.75 416.94,1180.5 418.993,1211.6 421.046,1172.25 423.099,1202.97 425.152,2042.43 427.205,272.113 429.258,2392.47 431.311,1014.3 433.364,1255.85 435.417,1225.32 437.469,1023.34 439.522,601.57 441.575,1593.06 443.628,-225.614 445.681,2459.49 447.734,1141.75 449.787,1152.6 451.84,1186.1 453.893,1148.91 455.945,1122.76 457.998,1180.67 460.051,1183.33 462.104,782.796 464.157,1522.32 466.21,1412.45 468.263,952.622 470.316,1132.24 472.369,916.372 474.421,965.064 476.474,1117.01 478.527,1259.81 480.58,1191.76 482.633,1183.7 484.686,1238.77 486.739,1050.2 488.792,1118.45 490.845,1201.31 492.897,1148.69 494.95,1169.53 497.003,1189.03 499.056,1137.33 501.109,1153.65 503.162,1218.98 505.215,1210.87 507.268,1129.67 509.321,1154.2 511.374,1173 513.426,1205.83 515.479,1109.39 517.532,1130.35 519.585,1246.37 521.638,1264.05 523.691,1145.55 525.744,1154.59 527.797,1170.61 529.85,1194.2 531.902,1164.67 533.955,1178.51 536.008,1170.58 538.061,1156.76 540.114,1174.26 542.167,1179.18 544.22,1194.98 546.273,1083.02 548.326,1096.46 550.378,1241.62 552.431,1183.05 554.484,1095.82 556.537,1203.42 558.59,1138.34 560.643,1138 562.696,1157.94 564.749,1184.2 566.802,1141.69 568.854,1188.19 570.907,1179.25 572.96,1156.82 575.013,1148.3 577.066,1171.84 579.119,1192.89 581.172,1196.69 583.225,1191.28 585.278,1223.17 587.331,1152.21 589.383,1113.16 591.436,1139.86 593.489,1195.7 595.542,1112.98 597.595,1208.36 599.648,1110.05 601.701,1172.11 603.754,1561.1 605.807,1205.71 607.859,1217.51 609.912,1240.21 611.965,1086.55 614.018,1112.56 616.071,1094.37 618.124,1115.63 620.177,1150.66 622.23,1174.97 624.283,1209.52 626.335,1215.89 628.388,1260.95 630.441,1052.43 632.494,1203.95 634.547,1134.13 636.6,1183.11 638.653,1208.66 640.706,1217.39 642.759,1157.49 644.811,1182.97 646.864,1167.95 648.917,1142.86 650.97,1143.91 653.023,1179.17 655.076,1148.69 657.129,1132.75 659.182,1184.5 661.235,1128.54 663.288,1174.15 665.34,1170.59 667.393,1174.41 669.446,1178.51 671.499,1169.71 673.552,1184.01 675.605,1186.63 677.658,1158.71 679.711,1245.24 681.764,1052.26 683.816,950.099 685.869,955.985 687.922,1133.74 689.975,1245.99 692.028,1197.13 694.081,1272.45 696.134,965.196 698.187,1827.92 700.24,1394.79 702.292,1102.58 704.345,1227.56 706.398,1061.04 708.451,1121.51 710.504,1166.82 712.557,1142.66 714.61,1157.59 716.663,1198.79 718.716,1178.84 720.768,1235.7 722.821,1312.82 724.874,1112.82 726.927,1167.52 728.98,1088.24 731.033,1203.44 733.086,1212.98 735.139,1218.21 737.192,1171.24 739.245,1158.62 741.297,1086.27 743.35,1234.82 745.403,1218.43 747.456,1224.29 749.509,1200.76 751.562,1157.91 753.615,1185.15 755.668,1147.14 757.721,1220.13 759.773,1151.7 761.826,1182.59 763.879,1175.74 765.932,1131.17 767.985,1146.88 770.038,1173.57 772.091,1162.15 774.144,1187.56 776.197,1067.28 778.249,1237.11 780.302,1142.6 782.355,1209.4 784.408,1075.87 786.461,1134.26 788.514,1201.33 790.567,1126.09 792.62,1098.62 794.673,1146.62 796.725,1128.55 798.778,1177.15 800.831,1130.41 802.884,1138.94 804.937,1085.7 806.99,1090.73 809.043,1089.87 811.096,1235.44 813.149,1202.58 815.202,1209.88 817.254,1149.71 819.307,1122.04 821.36,1201.43 823.413,1192.35 825.466,1199.31 827.519,1195.27 829.572,1184.6 831.625,1039.21 833.678,1257.33 835.73,1136.82 837.783,1196.2 839.836,1165.96 841.889,1163.33 843.942,1168.41 845.995,1156.71 848.048,1138.83 850.101,1145.59 852.154,1200.09 854.206,1183.1 856.259,1262.02 858.312,1209.11 860.365,1154.4 862.418,1157.38 864.471,1186.57 866.524,1282.19 868.577,1268.34 870.63,1151.52 872.682,1129.45 874.735,1178.84 876.788,1140.06 878.841,1196.8 880.894,1138.08 882.947,1120.84 885,1167.23 887.053,1186.31 889.106,1178.88 891.159,1144.98 893.211,1186.46 895.264,1422.47 897.317,967.122 899.37,1314.14 901.423,1028.19 903.476,1284.25 905.529,1077.44 907.582,1033.75 909.635,1164.06 911.687,1193.47 913.74,1195.72 915.793,1193.83 917.846,1187.64 919.899,1191.35 921.952,1246.16 924.005,1164.81 926.058,1152.03 928.111,1355.26 930.163,1301.57 932.216,1295.1 934.269,1203.52 936.322,1159.01 938.375,1132.88 940.428,1121.15 942.481,1180.61 944.534,1197.62 946.587,1148.05 948.639,1154.38 950.692,1064.93 952.745,1112.59 954.798,1311.02 956.851,1285.36 958.904,1036.44 960.957,974.567 963.01,1292.58 965.063,1198.33 967.116,1142.21 969.168,1220.76 971.221,1143.27 973.274,1143.11 975.327,1191.29 977.38,1252.2 979.433,1117.01 981.486,1195.38 983.539,1152.46 985.592,1200.54 987.644,1168.54 989.697,1195.98 991.75,500.069 993.803,1604.68 995.856,1095.12 997.909,1065.52 999.962,1203.13 1002.01,1189.83 1004.07,1155.1 1006.12,1179.13 1008.17,1156.38 1010.23,1171.07 1012.28,1167.52 1014.33,1221.33 1016.38,1167.36 1018.44,1214.92 1020.49,1972.13 1022.54,1623.83 1024.6,1292.03 1026.65,1186.39 1028.7,1163.59 1030.76,1167.82 1032.81,1163.81 1034.86,1168.04 1036.91,1209.59 1038.97,1069.88 1041.02,1154.1 1043.07,1134.42 1045.13,1151.02 1047.18,1172.69 1049.23,1185.58 1051.28,1242.86 1053.34,1149.01 1055.39,1197.93 1057.44,1186.21 1059.5,1218.03 1061.55,1209.73 1063.6,1143.04 1065.65,1171.25 1067.71,1175.4 1069.76,1159.94 1071.81,1119.91 1073.87,1217.13 1075.92,1267.73 1077.97,1093.03 1080.02,1315.51 1082.08,1101.04 1084.13,1171.68 1086.18,1163.27 1088.24,1165.24 1090.29,1165.82 1092.34,1207.19 1094.39,1185.77 1096.45,1165.18 1098.5,1153.61 1100.55,1162.01 1102.61,1168.85 1104.66,1151.06 1106.71,1130.4 1108.77,1187.85 1110.82,1173.2 1112.87,1161.2 1114.92,1173.18 1116.98,1161.23 1119.03,1174.45 1121.08,1150.07 1123.14,1179.14 1125.19,1094.25 1127.24,1132.36 1129.29,1210.96 1131.35,1294.81 1133.4,1285.81 1135.45,1029.76 1137.51,1233.98 1139.56,1339.09 1141.61,1106 1143.66,1169.9 1145.72,1198.52 1147.77,1189.54 1149.82,1172.86 1151.88,1250.87 1153.93,1239.61 1155.98,1158.68 1158.03,1071.51 1160.09,1122.02 1162.14,1121.14 1164.19,1144.51 1166.25,1162.35 1168.3,1174.73 1170.35,1178.15 1172.4,1144.43 1174.46,1181.76 1176.51,1233.57 1178.56,1167.58 1180.62,1153.67 1182.67,1204.07 1184.72,954.313 1186.77,1462.94 1188.83,1079 1190.88,1584.76 1192.93,600.034 1194.99,579.158 1197.04,673.659 1199.09,3551.78 1201.15,2086.61 1203.2,1201.79 1205.25,1213.26 1207.3,1116.16 1209.36,1377.51 1211.41,920.003 1213.46,1292.01 1215.52,1184.73 1217.57,1189.97 1219.62,1172.81 1221.67,1131.04 1223.73,1160.89 1225.78,1197.64 1227.83,1157.28 1229.89,1182.43 1231.94,1222.29 1233.99,1136.1 1236.04,1191.76 1238.1,1134.95 1240.15,1182.64 1242.2,1125.82 1244.26,1216.19 1246.31,1175.54 1248.36,1143.36 1250.41,1189.61 1252.47,1148.37 1254.52,1132.06 1256.57,1224.74 1258.63,1195.97 1260.68,1134.87 1262.73,1131.54 1264.78,1145.11 1266.84,1233.64 1268.89,1284.49 1270.94,1199.78 1273,1275.58 1275.05,1158.05 1277.1,1153.77 1279.16,1159.95 1281.21,1191.85 1283.26,1161.02 1285.31,1154.53 1287.37,1174.14 1289.42,1177.09 1291.47,1161.23 1293.53,1153.93 1295.58,1194.19 1297.63,1160.96 1299.68,1145.03 1301.74,1138.11 1303.79,1145.46 1305.84,1173.25 1307.9,1189.65 1309.95,1162.91 1312,1182.34 1314.05,1163.54 1316.11,1195.27 1318.16,1177.07 1320.21,1185.88 1322.27,1139.5 1324.32,1117.7 1326.37,1137.67 1328.42,1252.82 1330.48,1174.41 1332.53,1116.18 1334.58,1152.88 1336.64,924.173 1338.69,1068.52 1340.74,1266.18 1342.79,1210.73 1344.85,1158.07 1346.9,1154.93 1348.95,1148.18 1351.01,1149.99 1353.06,1179.96 1355.11,1735.63 1357.16,921.184 1359.22,1681.14 1361.27,2472.85 1363.32,9499.43 1365.38,1674.28 1367.43,1703.05 1369.48,1110.1 1371.54,1724.69 1373.59,1153.45 1375.64,1169.73 1377.69,1099.6 1379.75,1216.95 1381.8,1192.83 1383.85,1191.62 1385.91,1101.52 1387.96,1193.59 1390.01,1181.58 1392.06,1104.47 1394.12,1151.84 1396.17,1174.37 1398.22,1146.69 1400.28,1125.3 1402.33,1139 1404.38,1166.26 1406.43,1166.56 1408.49,1101.26 1410.54,1193.96 1412.59,1211.91 1414.65,1168.49 1416.7,1179.71 1418.75,1157.1 1420.8,1173.96 1422.86,1114.56 1424.91,1188 1426.96,1318.74 1429.02,574.246 1431.07,2285.59 1433.12,4359.13 1435.17,2134.71 1437.23,1265.64 1439.28,1287.63 1441.33,1073.08 1443.39,1157.53 1445.44,1147.24 1447.49,1208.22 1449.55,1244.75 1451.6,1085.17 1453.65,1151.05 1455.7,1256.08 1457.76,1155.48 1459.81,1154.44 1461.86,1215.78 1463.92,1164.18 1465.97,1150.75 1468.02,1168.91 1470.07,1064.87 1472.13,398.647 1474.18,1658.07 1476.23,1135.69 1478.29,1163.55 1480.34,1393.05 1482.39,1306.71 1484.44,463.985 1486.5,1371.07 1488.55,1046.32 1490.6,554.695 1492.66,1105.96 1494.71,1244.23 1496.76,1221.81 1498.81,1203.29 1500.87,1096.13 1502.92,1195.55 1504.97,1113.35 1507.03,1067.84 1509.08,1207.89 1511.13,1124.72 1513.18,1132.31 1515.24,1201.18 1517.29,1139.74 1519.34,1182.13 1521.4,1164 1523.45,1173.02 1525.5,1160.07 1527.55,1029.81 1529.61,1359.69 1531.66,971.951 1533.71,1304.26 1535.77,1140.48 1537.82,1025.48 1539.87,1216.3 1541.93,1141.39 1543.98,1184.02 1546.03,1102.48 1548.08,1156.56 1550.14,1194.04 1552.19,1098.23 1554.24,1317.02 1556.3,1081.74 1558.35,1009.52 1560.4,1255.17 1562.45,1127.78 1564.51,1179.51 1566.56,1174.46 1568.61,1114.24 1570.67,1127.88 1572.72,1183.76 1574.77,1155.33 1576.82,1147.82 1578.88,1197.11 1580.93,1199.75 1582.98,1116.29 1585.04,1350.76 1587.09,1088.67 1589.14,1200.48 1591.19,1200.41 1593.25,1172.92 1595.3,1176.9 1597.35,1130.9 1599.41,1205.76 1601.46,1119.9 1603.51,1165.26 1605.56,1191.33 1607.62,1134.89 1609.67,1674.77 1611.72,1432.93 1613.78,1425.96 1615.83,1414.01 1617.88,1530.99 1619.94,885.279 1621.99,1772.86 1624.04,277.091 1626.09,21.2583 1628.15,503.137 1630.2,926.326 1632.25,2446.09 1634.31,6014.03 1636.36,-10444.4 1638.41,-3570.5 1640.46,-3196.51 1642.52,-6128.6 1644.57,4607.23 1646.62,1591.63 1648.68,1350.34 1650.73,1203.48 1652.78,1169.42 1654.83,1153.42 1656.89,1175.57 1658.94,1202.53 1660.99,1150.07 1663.05,1152.16 1665.1,1280.25 1667.15,1198.41 1669.2,1163.24 1671.26,1214.31 1673.31,1098.23 1675.36,1209.55 1677.42,1141.81 1679.47,1235.03 1681.52,1106.02 1683.57,1128.05 1685.63,1118.31 1687.68,1136.38 1689.73,1211.78 1691.79,1113.58 1693.84,1163.48 1695.89,1134.8 1697.94,1245.07 1700,1320.84 1702.05,1145.16 1704.1,1318 1706.16,1117.59 1708.21,1179.55 1710.26,1258.68 1712.32,1375.14 1714.37,1217.84 1716.42,1163.64 1718.47,1163.31 1720.53,1166.71 1722.58,1103.26 1724.63,1208.47 1726.69,1279.05 1728.74,1177.15 1730.79,810.078 1732.84,1233.94 1734.9,1188.45 1736.95,1193.22 1739,1230.11 1741.06,1273.35 1743.11,1073.56 1745.16,1231.84 1747.21,1111.31 1749.27,1150.22 1751.32,1121.16 1753.37,1257.77 1755.43,1239.14 1757.48,1168.04 1759.53,1166.99 1761.58,1159.76 1763.64,1150.66 1765.69,1172.83 1767.74,1174.54 1769.8,1181.59 1771.85,1155.09 1773.9,1166.53 1775.95,1156.23 1778.01,1226.96 1780.06,1243.44 1782.11,1174.43 1784.17,1681.43 1786.22,1589.21 1788.27,1122.71 1790.33,1101.01 1792.38,1234.48 1794.43,1175.7 1796.48,1169 1798.54,1174.4 1800.59,1161.81 1802.64,1177.85 1804.7,1219.9 1806.75,1109.65 1808.8,1114.09 1810.85,1144.13 1812.91,1139.78 1814.96,1055.9 1817.01,1116.73 1819.07,1196.53 1821.12,1212.09 1823.17,1136.78 1825.22,1155.91 1827.28,1185.68 1829.33,1186.25 1831.38,1184.56 1833.44,1108.3 1835.49,1096.43 1837.54,1090.41 1839.59,1205.25 1841.65,1211.32 1843.7,1180.85 1845.75,1142.08 1847.81,1099.32 1849.86,1206.97 1851.91,-270.176 1853.96,1111.94 1856.02,1233 1858.07,1142.92 1860.12,1195.54 1862.18,1138.01 1864.23,1126.84 1866.28,1242.17 1868.34,1230.51 1870.39,1312.05 1872.44,1107.24 1874.49,1137.15 1876.55,1187.11 1878.6,1185.38 1880.65,1180.46 1882.71,1205.3 1884.76,1087.17 1886.81,1110.58 1888.86,1213.91 1890.92,1140.61 1892.97,1116.64 1895.02,1259.72 1897.08,1189.26 1899.13,1145.77 1901.18,1170.68 1903.23,1168.74 1905.29,1081.2 1907.34,1178.61 1909.39,1157.29 1911.45,1145.66 1913.5,1201.8 1915.55,1171.78 1917.6,1184.44 1919.66,1175.47 1921.71,1028.05 1923.76,1016.18 1925.82,1250.92 1927.87,1097.58 1929.92,1352.88 1931.97,1097.2 1934.03,1062.06 1936.08,1231.09 1938.13,1100.24 1940.19,1147.4 1942.24,1147.5 1944.29,1136.06 1946.34,1116.8 1948.4,1090.24 1950.45,1233.45 1952.5,1145.28 1954.56,1220.01 1956.61,1134.42 1958.66,1149.98 1960.72,1170.65 1962.77,1171.83 1964.82,1171.67 1966.87,1095.68 1968.93,1264.33 1970.98,1169.28 1973.03,1152.64 1975.09,1191.11 1977.14,1182.33 1979.19,1204 1981.24,1180.46 1983.3,944.906 1985.35,1238.38 1987.4,1235.72 1989.46,969.166 1991.51,1168.08 1993.56,1109.03 1995.61,1075.12 1997.67,1255.16 1999.72,1115.58 2001.77,1087.37 2003.83,1244.23 2005.88,1142.43 2007.93,1245.99 2009.98,1314.83 2012.04,1067.74 2014.09,1214.01 2016.14,1144.66 2018.2,1123.38 2020.25,1198.94 2022.3,1169.84 2024.35,1158.68 2026.41,1172.45 2028.46,1157.23 2030.51,1858.68 2032.57,1324.87 2034.62,513.996 2036.67,1791.61 2038.73,1458.86 2040.78,794.818 2042.83,976.361 2044.88,1144.97 2046.94,1151.09 2048.99,1171.01 2051.04,1142.72 2053.1,1157.1 2055.15,1168.25 2057.2,1181.41 2059.25,1154.41 2061.31,1336.73 2063.36,1040.98 2065.41,1162.64 2067.47,1182.83 2069.52,1227.04 2071.57,1095.65 2073.62,1202.02 2075.68,1161.72 2077.73,1215.94 2079.78,1136.31 2081.84,1176.45 2083.89,1158.9 2085.94,1142.42 2087.99,1203.33 2090.05,1162.03 2092.1,1151.63 2094.15,1173.78 2096.21,1139.6 2098.26,1174.94 2100.31,1081.06 2102.36,1170.06 2104.42,1185.36 2106.47,1151.54 2108.52,1195.24 2110.58,1191.02 2112.63,1004.98 2114.68,1161.59 2116.73,1038.03 2118.79,978.936 2120.84,1406.9 2122.89,831.604 2124.95,699.059 2127,1804.81 2129.05,1015.9 2131.11,1099.56 2133.16,1018.07 2135.21,1103.07 2137.26,1202.78 2139.32,1212.13 2141.37,1140.77 2143.42,1170.41 2145.48,1170.46 2147.53,1192.99 2149.58,1139.07 2151.63,1113.82 2153.69,1135.66 2155.74,1158.95 2157.79,1215.31 2159.85,1128.99 2161.9,1130.94 2163.95,1168.06 2166,1183.28 2168.06,1180.19 2170.11,1123.55 2172.16,1151.28 2174.22,1179 2176.27,1135.9 2178.32,1132.73 2180.37,1183.7 2182.43,1140.39 2184.48,1178.74 2186.53,1127.98 2188.59,1171.75 2190.64,1182.17 2192.69,1058.68 2194.74,1175.38 2196.8,1087.87 2198.85,1197.32 2200.9,1157.58 2202.96,1188.57 2205.01,1084.74 2207.06,1171.91 2209.12,1180.36 2211.17,1158.96 2213.22,1112.65 2215.27,1258.12 2217.33,1164.5 2219.38,1165.8 2221.43,1174.83 2223.49,1156.9 2225.54,1182.55 2227.59,1209.91 2229.64,1156.62 2231.7,1167.31 2233.75,1198.96 2235.8,1224.57 2237.86,1251.79 2239.91,1131.51 2241.96,1144.55 2244.01,1139.65 2246.07,1120 2248.12,1159.08 2250.17,1175.19 2252.23,1158.34 2254.28,1184.43 2256.33,1116.38 2258.38,1180.59 2260.44,1160.12 2262.49,1169.88 2264.54,1119.97 2266.6,1245.77 2268.65,657.103 2270.7,895.134 2272.75,1227.6 2274.81,1205.27 2276.86,1177.07 2278.91,1157.18 2280.97,1159.44 2283.02,1177.78 2285.07,1098.51 2287.12,1311.8 2289.18,1406.05 2291.23,875.424 "/>
<path clip-path="url(#clip280)" d="M1942.7 1465.14 L2280.29 1465.14 L2280.29 1361.46 L1942.7 1361.46  Z" fill="#ffffff" fill-rule="evenodd" fill-opacity="1"/>
<polyline clip-path="url(#clip280)" style="stroke:#000000; stroke-linecap:round; stroke-linejoin:round; stroke-width:4; stroke-opacity:1; fill:none" points="1942.7,1465.14 2280.29,1465.14 2280.29,1361.46 1942.7,1361.46 1942.7,1465.14 "/>
<polyline clip-path="url(#clip280)" style="stroke:#009af9; stroke-linecap:round; stroke-linejoin:round; stroke-width:4; stroke-opacity:1; fill:none" points="1966.85,1413.3 2111.78,1413.3 "/>
<path clip-path="url(#clip280)" d="M2161.49 1425.65 L2161.49 1416.37 L2153.85 1416.37 L2153.85 1412.53 L2166.12 1412.53 L2166.12 1427.36 Q2163.41 1429.28 2160.14 1430.28 Q2156.88 1431.25 2153.18 1431.25 Q2145.07 1431.25 2140.49 1426.53 Q2135.93 1421.78 2135.93 1413.34 Q2135.93 1404.86 2140.49 1400.14 Q2145.07 1395.4 2153.18 1395.4 Q2156.56 1395.4 2159.59 1396.23 Q2162.64 1397.06 2165.21 1398.68 L2165.21 1403.66 Q2162.62 1401.46 2159.7 1400.35 Q2156.79 1399.24 2153.57 1399.24 Q2147.23 1399.24 2144.03 1402.78 Q2140.86 1406.32 2140.86 1413.34 Q2140.86 1420.33 2144.03 1423.87 Q2147.23 1427.41 2153.57 1427.41 Q2156.05 1427.41 2157.99 1426.99 Q2159.94 1426.55 2161.49 1425.65 Z" fill="#000000" fill-rule="nonzero" fill-opacity="1" /><path clip-path="url(#clip280)" d="M2179.33 1399.86 L2179.33 1412.85 L2185.21 1412.85 Q2188.48 1412.85 2190.26 1411.16 Q2192.04 1409.47 2192.04 1406.35 Q2192.04 1403.24 2190.26 1401.55 Q2188.48 1399.86 2185.21 1399.86 L2179.33 1399.86 M2174.66 1396.02 L2185.21 1396.02 Q2191.02 1396.02 2193.99 1398.66 Q2196.97 1401.28 2196.97 1406.35 Q2196.97 1411.46 2193.99 1414.08 Q2191.02 1416.69 2185.21 1416.69 L2179.33 1416.69 L2179.33 1430.58 L2174.66 1430.58 L2174.66 1396.02 Z" fill="#000000" fill-rule="nonzero" fill-opacity="1" /><path clip-path="url(#clip280)" d="M2223.96 1397.16 L2223.96 1401.72 Q2221.3 1400.44 2218.94 1399.82 Q2216.58 1399.19 2214.38 1399.19 Q2210.56 1399.19 2208.48 1400.67 Q2206.42 1402.16 2206.42 1404.89 Q2206.42 1407.18 2207.78 1408.36 Q2209.17 1409.52 2213.01 1410.23 L2215.84 1410.81 Q2221.07 1411.81 2223.55 1414.33 Q2226.05 1416.83 2226.05 1421.04 Q2226.05 1426.07 2222.67 1428.66 Q2219.31 1431.25 2212.81 1431.25 Q2210.35 1431.25 2207.57 1430.7 Q2204.82 1430.14 2201.86 1429.05 L2201.86 1424.24 Q2204.7 1425.84 2207.44 1426.65 Q2210.17 1427.46 2212.81 1427.46 Q2216.81 1427.46 2218.99 1425.88 Q2221.16 1424.31 2221.16 1421.39 Q2221.16 1418.85 2219.59 1417.41 Q2218.04 1415.97 2214.47 1415.26 L2211.62 1414.7 Q2206.39 1413.66 2204.06 1411.44 Q2201.72 1409.22 2201.72 1405.26 Q2201.72 1400.67 2204.94 1398.03 Q2208.18 1395.4 2213.85 1395.4 Q2216.28 1395.4 2218.8 1395.84 Q2221.32 1396.28 2223.96 1397.16 Z" fill="#000000" fill-rule="nonzero" fill-opacity="1" /><path clip-path="url(#clip280)" d="M2254.06 1397.16 L2254.06 1401.72 Q2251.39 1400.44 2249.03 1399.82 Q2246.67 1399.19 2244.47 1399.19 Q2240.65 1399.19 2238.57 1400.67 Q2236.51 1402.16 2236.51 1404.89 Q2236.51 1407.18 2237.87 1408.36 Q2239.26 1409.52 2243.11 1410.23 L2245.93 1410.81 Q2251.16 1411.81 2253.64 1414.33 Q2256.14 1416.83 2256.14 1421.04 Q2256.14 1426.07 2252.76 1428.66 Q2249.4 1431.25 2242.9 1431.25 Q2240.44 1431.25 2237.67 1430.7 Q2234.91 1430.14 2231.95 1429.05 L2231.95 1424.24 Q2234.8 1425.84 2237.53 1426.65 Q2240.26 1427.46 2242.9 1427.46 Q2246.9 1427.46 2249.08 1425.88 Q2251.25 1424.31 2251.25 1421.39 Q2251.25 1418.85 2249.68 1417.41 Q2248.13 1415.97 2244.56 1415.26 L2241.72 1414.7 Q2236.49 1413.66 2234.15 1411.44 Q2231.81 1409.22 2231.81 1405.26 Q2231.81 1400.67 2235.03 1398.03 Q2238.27 1395.4 2243.94 1395.4 Q2246.37 1395.4 2248.89 1395.84 Q2251.42 1396.28 2254.06 1397.16 Z" fill="#000000" fill-rule="nonzero" fill-opacity="1" /></svg>
