<?xml version="1.0" encoding="utf-8"?>
<svg xmlns="http://www.w3.org/2000/svg" xmlns:xlink="http://www.w3.org/1999/xlink" width="600" height="400" viewBox="0 0 2400 1600">
<defs>
  <clipPath id="clip990">
    <rect x="0" y="0" width="2400" height="1600"/>
  </clipPath>
</defs>
<path clip-path="url(#clip990)" d="M0 1600 L2400 1600 L2400 0 L0 0  Z" fill="#ffffff" fill-rule="evenodd" fill-opacity="1"/>
<defs>
  <clipPath id="clip991">
    <rect x="480" y="0" width="1681" height="1600"/>
  </clipPath>
</defs>
<path clip-path="url(#clip990)" d="M178.867 686.448 L2352.76 686.448 L2352.76 47.2441 L178.867 47.2441  Z" fill="#ffffff" fill-rule="evenodd" fill-opacity="1"/>
<defs>
  <clipPath id="clip992">
    <rect x="178" y="47" width="2175" height="640"/>
  </clipPath>
</defs>
<polyline clip-path="url(#clip992)" style="stroke:#000000; stroke-linecap:round; stroke-linejoin:round; stroke-width:2; stroke-opacity:0.1; fill:none" points="238.339,686.448 238.339,47.2441 "/>
<polyline clip-path="url(#clip992)" style="stroke:#000000; stroke-linecap:round; stroke-linejoin:round; stroke-width:2; stroke-opacity:0.1; fill:none" points="751.562,686.448 751.562,47.2441 "/>
<polyline clip-path="url(#clip992)" style="stroke:#000000; stroke-linecap:round; stroke-linejoin:round; stroke-width:2; stroke-opacity:0.1; fill:none" points="1264.78,686.448 1264.78,47.2441 "/>
<polyline clip-path="url(#clip992)" style="stroke:#000000; stroke-linecap:round; stroke-linejoin:round; stroke-width:2; stroke-opacity:0.1; fill:none" points="1778.01,686.448 1778.01,47.2441 "/>
<polyline clip-path="url(#clip992)" style="stroke:#000000; stroke-linecap:round; stroke-linejoin:round; stroke-width:2; stroke-opacity:0.1; fill:none" points="2291.23,686.448 2291.23,47.2441 "/>
<polyline clip-path="url(#clip992)" style="stroke:#000000; stroke-linecap:round; stroke-linejoin:round; stroke-width:2; stroke-opacity:0.1; fill:none" points="178.867,686.448 2352.76,686.448 "/>
<polyline clip-path="url(#clip992)" style="stroke:#000000; stroke-linecap:round; stroke-linejoin:round; stroke-width:2; stroke-opacity:0.1; fill:none" points="178.867,526.647 2352.76,526.647 "/>
<polyline clip-path="url(#clip992)" style="stroke:#000000; stroke-linecap:round; stroke-linejoin:round; stroke-width:2; stroke-opacity:0.1; fill:none" points="178.867,366.846 2352.76,366.846 "/>
<polyline clip-path="url(#clip992)" style="stroke:#000000; stroke-linecap:round; stroke-linejoin:round; stroke-width:2; stroke-opacity:0.1; fill:none" points="178.867,207.045 2352.76,207.045 "/>
<polyline clip-path="url(#clip992)" style="stroke:#000000; stroke-linecap:round; stroke-linejoin:round; stroke-width:2; stroke-opacity:0.1; fill:none" points="178.867,47.2441 2352.76,47.2441 "/>
<polyline clip-path="url(#clip990)" style="stroke:#000000; stroke-linecap:round; stroke-linejoin:round; stroke-width:4; stroke-opacity:1; fill:none" points="178.867,686.448 2352.76,686.448 "/>
<polyline clip-path="url(#clip990)" style="stroke:#000000; stroke-linecap:round; stroke-linejoin:round; stroke-width:4; stroke-opacity:1; fill:none" points="238.339,686.448 238.339,667.55 "/>
<polyline clip-path="url(#clip990)" style="stroke:#000000; stroke-linecap:round; stroke-linejoin:round; stroke-width:4; stroke-opacity:1; fill:none" points="751.562,686.448 751.562,667.55 "/>
<polyline clip-path="url(#clip990)" style="stroke:#000000; stroke-linecap:round; stroke-linejoin:round; stroke-width:4; stroke-opacity:1; fill:none" points="1264.78,686.448 1264.78,667.55 "/>
<polyline clip-path="url(#clip990)" style="stroke:#000000; stroke-linecap:round; stroke-linejoin:round; stroke-width:4; stroke-opacity:1; fill:none" points="1778.01,686.448 1778.01,667.55 "/>
<polyline clip-path="url(#clip990)" style="stroke:#000000; stroke-linecap:round; stroke-linejoin:round; stroke-width:4; stroke-opacity:1; fill:none" points="2291.23,686.448 2291.23,667.55 "/>
<path clip-path="url(#clip990)" d="M238.339 717.367 Q234.728 717.367 232.899 720.931 Q231.094 724.473 231.094 731.603 Q231.094 738.709 232.899 742.274 Q234.728 745.815 238.339 745.815 Q241.973 745.815 243.779 742.274 Q245.607 738.709 245.607 731.603 Q245.607 724.473 243.779 720.931 Q241.973 717.367 238.339 717.367 M238.339 713.663 Q244.149 713.663 247.205 718.269 Q250.283 722.853 250.283 731.603 Q250.283 740.329 247.205 744.936 Q244.149 749.519 238.339 749.519 Q232.529 749.519 229.45 744.936 Q226.395 740.329 226.395 731.603 Q226.395 722.853 229.45 718.269 Q232.529 713.663 238.339 713.663 Z" fill="#000000" fill-rule="nonzero" fill-opacity="1" /><path clip-path="url(#clip990)" d="M715.254 744.913 L731.574 744.913 L731.574 748.848 L709.629 748.848 L709.629 744.913 Q712.291 742.158 716.875 737.528 Q721.481 732.876 722.662 731.533 Q724.907 729.01 725.787 727.274 Q726.689 725.515 726.689 723.825 Q726.689 721.07 724.745 719.334 Q722.824 717.598 719.722 717.598 Q717.523 717.598 715.069 718.362 Q712.638 719.126 709.861 720.677 L709.861 715.955 Q712.685 714.82 715.138 714.242 Q717.592 713.663 719.629 713.663 Q725 713.663 728.194 716.348 Q731.388 719.033 731.388 723.524 Q731.388 725.654 730.578 727.575 Q729.791 729.473 727.685 732.066 Q727.106 732.737 724.004 735.954 Q720.902 739.149 715.254 744.913 Z" fill="#000000" fill-rule="nonzero" fill-opacity="1" /><path clip-path="url(#clip990)" d="M741.435 714.288 L759.791 714.288 L759.791 718.223 L745.717 718.223 L745.717 726.695 Q746.736 726.348 747.754 726.186 Q748.773 726.001 749.791 726.001 Q755.578 726.001 758.958 729.172 Q762.337 732.343 762.337 737.76 Q762.337 743.339 758.865 746.44 Q755.393 749.519 749.073 749.519 Q746.898 749.519 744.629 749.149 Q742.384 748.778 739.976 748.038 L739.976 743.339 Q742.06 744.473 744.282 745.028 Q746.504 745.584 748.981 745.584 Q752.985 745.584 755.323 743.478 Q757.661 741.371 757.661 737.76 Q757.661 734.149 755.323 732.042 Q752.985 729.936 748.981 729.936 Q747.106 729.936 745.231 730.353 Q743.379 730.769 741.435 731.649 L741.435 714.288 Z" fill="#000000" fill-rule="nonzero" fill-opacity="1" /><path clip-path="url(#clip990)" d="M781.55 717.367 Q777.939 717.367 776.11 720.931 Q774.305 724.473 774.305 731.603 Q774.305 738.709 776.11 742.274 Q777.939 745.815 781.55 745.815 Q785.184 745.815 786.99 742.274 Q788.819 738.709 788.819 731.603 Q788.819 724.473 786.99 720.931 Q785.184 717.367 781.55 717.367 M781.55 713.663 Q787.36 713.663 790.416 718.269 Q793.495 722.853 793.495 731.603 Q793.495 740.329 790.416 744.936 Q787.36 749.519 781.55 749.519 Q775.74 749.519 772.661 744.936 Q769.606 740.329 769.606 731.603 Q769.606 722.853 772.661 718.269 Q775.74 713.663 781.55 713.663 Z" fill="#000000" fill-rule="nonzero" fill-opacity="1" /><path clip-path="url(#clip990)" d="M1224.4 714.288 L1242.76 714.288 L1242.76 718.223 L1228.69 718.223 L1228.69 726.695 Q1229.7 726.348 1230.72 726.186 Q1231.74 726.001 1232.76 726.001 Q1238.55 726.001 1241.93 729.172 Q1245.31 732.343 1245.31 737.76 Q1245.31 743.339 1241.83 746.44 Q1238.36 749.519 1232.04 749.519 Q1229.87 749.519 1227.6 749.149 Q1225.35 748.778 1222.94 748.038 L1222.94 743.339 Q1225.03 744.473 1227.25 745.028 Q1229.47 745.584 1231.95 745.584 Q1235.95 745.584 1238.29 743.478 Q1240.63 741.371 1240.63 737.76 Q1240.63 734.149 1238.29 732.042 Q1235.95 729.936 1231.95 729.936 Q1230.07 729.936 1228.2 730.353 Q1226.35 730.769 1224.4 731.649 L1224.4 714.288 Z" fill="#000000" fill-rule="nonzero" fill-opacity="1" /><path clip-path="url(#clip990)" d="M1264.52 717.367 Q1260.91 717.367 1259.08 720.931 Q1257.27 724.473 1257.27 731.603 Q1257.27 738.709 1259.08 742.274 Q1260.91 745.815 1264.52 745.815 Q1268.15 745.815 1269.96 742.274 Q1271.79 738.709 1271.79 731.603 Q1271.79 724.473 1269.96 720.931 Q1268.15 717.367 1264.52 717.367 M1264.52 713.663 Q1270.33 713.663 1273.38 718.269 Q1276.46 722.853 1276.46 731.603 Q1276.46 740.329 1273.38 744.936 Q1270.33 749.519 1264.52 749.519 Q1258.71 749.519 1255.63 744.936 Q1252.57 740.329 1252.57 731.603 Q1252.57 722.853 1255.63 718.269 Q1258.71 713.663 1264.52 713.663 Z" fill="#000000" fill-rule="nonzero" fill-opacity="1" /><path clip-path="url(#clip990)" d="M1294.68 717.367 Q1291.07 717.367 1289.24 720.931 Q1287.44 724.473 1287.44 731.603 Q1287.44 738.709 1289.24 742.274 Q1291.07 745.815 1294.68 745.815 Q1298.31 745.815 1300.12 742.274 Q1301.95 738.709 1301.95 731.603 Q1301.95 724.473 1300.12 720.931 Q1298.31 717.367 1294.68 717.367 M1294.68 713.663 Q1300.49 713.663 1303.55 718.269 Q1306.62 722.853 1306.62 731.603 Q1306.62 740.329 1303.55 744.936 Q1300.49 749.519 1294.68 749.519 Q1288.87 749.519 1285.79 744.936 Q1282.74 740.329 1282.74 731.603 Q1282.74 722.853 1285.79 718.269 Q1288.87 713.663 1294.68 713.663 Z" fill="#000000" fill-rule="nonzero" fill-opacity="1" /><path clip-path="url(#clip990)" d="M1736.28 714.288 L1758.51 714.288 L1758.51 716.279 L1745.96 748.848 L1741.08 748.848 L1752.88 718.223 L1736.28 718.223 L1736.28 714.288 Z" fill="#000000" fill-rule="nonzero" fill-opacity="1" /><path clip-path="url(#clip990)" d="M1767.67 714.288 L1786.03 714.288 L1786.03 718.223 L1771.95 718.223 L1771.95 726.695 Q1772.97 726.348 1773.99 726.186 Q1775.01 726.001 1776.03 726.001 Q1781.82 726.001 1785.2 729.172 Q1788.57 732.343 1788.57 737.76 Q1788.57 743.339 1785.1 746.44 Q1781.63 749.519 1775.31 749.519 Q1773.14 749.519 1770.87 749.149 Q1768.62 748.778 1766.21 748.038 L1766.21 743.339 Q1768.3 744.473 1770.52 745.028 Q1772.74 745.584 1775.22 745.584 Q1779.22 745.584 1781.56 743.478 Q1783.9 741.371 1783.9 737.76 Q1783.9 734.149 1781.56 732.042 Q1779.22 729.936 1775.22 729.936 Q1773.34 729.936 1771.47 730.353 Q1769.62 730.769 1767.67 731.649 L1767.67 714.288 Z" fill="#000000" fill-rule="nonzero" fill-opacity="1" /><path clip-path="url(#clip990)" d="M1807.79 717.367 Q1804.18 717.367 1802.35 720.931 Q1800.54 724.473 1800.54 731.603 Q1800.54 738.709 1802.35 742.274 Q1804.18 745.815 1807.79 745.815 Q1811.42 745.815 1813.23 742.274 Q1815.06 738.709 1815.06 731.603 Q1815.06 724.473 1813.23 720.931 Q1811.42 717.367 1807.79 717.367 M1807.79 713.663 Q1813.6 713.663 1816.65 718.269 Q1819.73 722.853 1819.73 731.603 Q1819.73 740.329 1816.65 744.936 Q1813.6 749.519 1807.79 749.519 Q1801.98 749.519 1798.9 744.936 Q1795.84 740.329 1795.84 731.603 Q1795.84 722.853 1798.9 718.269 Q1801.98 713.663 1807.79 713.663 Z" fill="#000000" fill-rule="nonzero" fill-opacity="1" /><path clip-path="url(#clip990)" d="M2235.76 744.913 L2243.4 744.913 L2243.4 718.547 L2235.09 720.214 L2235.09 715.955 L2243.35 714.288 L2248.02 714.288 L2248.02 744.913 L2255.66 744.913 L2255.66 748.848 L2235.76 748.848 L2235.76 744.913 Z" fill="#000000" fill-rule="nonzero" fill-opacity="1" /><path clip-path="url(#clip990)" d="M2275.11 717.367 Q2271.5 717.367 2269.67 720.931 Q2267.86 724.473 2267.86 731.603 Q2267.86 738.709 2269.67 742.274 Q2271.5 745.815 2275.11 745.815 Q2278.74 745.815 2280.55 742.274 Q2282.38 738.709 2282.38 731.603 Q2282.38 724.473 2280.55 720.931 Q2278.74 717.367 2275.11 717.367 M2275.11 713.663 Q2280.92 713.663 2283.97 718.269 Q2287.05 722.853 2287.05 731.603 Q2287.05 740.329 2283.97 744.936 Q2280.92 749.519 2275.11 749.519 Q2269.3 749.519 2266.22 744.936 Q2263.16 740.329 2263.16 731.603 Q2263.16 722.853 2266.22 718.269 Q2269.3 713.663 2275.11 713.663 Z" fill="#000000" fill-rule="nonzero" fill-opacity="1" /><path clip-path="url(#clip990)" d="M2305.27 717.367 Q2301.66 717.367 2299.83 720.931 Q2298.02 724.473 2298.02 731.603 Q2298.02 738.709 2299.83 742.274 Q2301.66 745.815 2305.27 745.815 Q2308.9 745.815 2310.71 742.274 Q2312.54 738.709 2312.54 731.603 Q2312.54 724.473 2310.71 720.931 Q2308.9 717.367 2305.27 717.367 M2305.27 713.663 Q2311.08 713.663 2314.14 718.269 Q2317.21 722.853 2317.21 731.603 Q2317.21 740.329 2314.14 744.936 Q2311.08 749.519 2305.27 749.519 Q2299.46 749.519 2296.38 744.936 Q2293.33 740.329 2293.33 731.603 Q2293.33 722.853 2296.38 718.269 Q2299.46 713.663 2305.27 713.663 Z" fill="#000000" fill-rule="nonzero" fill-opacity="1" /><path clip-path="url(#clip990)" d="M2335.43 717.367 Q2331.82 717.367 2329.99 720.931 Q2328.19 724.473 2328.19 731.603 Q2328.19 738.709 2329.99 742.274 Q2331.82 745.815 2335.43 745.815 Q2339.07 745.815 2340.87 742.274 Q2342.7 738.709 2342.7 731.603 Q2342.7 724.473 2340.87 720.931 Q2339.07 717.367 2335.43 717.367 M2335.43 713.663 Q2341.24 713.663 2344.3 718.269 Q2347.38 722.853 2347.38 731.603 Q2347.38 740.329 2344.3 744.936 Q2341.24 749.519 2335.43 749.519 Q2329.62 749.519 2326.54 744.936 Q2323.49 740.329 2323.49 731.603 Q2323.49 722.853 2326.54 718.269 Q2329.62 713.663 2335.43 713.663 Z" fill="#000000" fill-rule="nonzero" fill-opacity="1" /><polyline clip-path="url(#clip990)" style="stroke:#000000; stroke-linecap:round; stroke-linejoin:round; stroke-width:4; stroke-opacity:1; fill:none" points="178.867,686.448 178.867,47.2441 "/>
<polyline clip-path="url(#clip990)" style="stroke:#000000; stroke-linecap:round; stroke-linejoin:round; stroke-width:4; stroke-opacity:1; fill:none" points="178.867,686.448 197.764,686.448 "/>
<polyline clip-path="url(#clip990)" style="stroke:#000000; stroke-linecap:round; stroke-linejoin:round; stroke-width:4; stroke-opacity:1; fill:none" points="178.867,526.647 197.764,526.647 "/>
<polyline clip-path="url(#clip990)" style="stroke:#000000; stroke-linecap:round; stroke-linejoin:round; stroke-width:4; stroke-opacity:1; fill:none" points="178.867,366.846 197.764,366.846 "/>
<polyline clip-path="url(#clip990)" style="stroke:#000000; stroke-linecap:round; stroke-linejoin:round; stroke-width:4; stroke-opacity:1; fill:none" points="178.867,207.045 197.764,207.045 "/>
<polyline clip-path="url(#clip990)" style="stroke:#000000; stroke-linecap:round; stroke-linejoin:round; stroke-width:4; stroke-opacity:1; fill:none" points="178.867,47.2441 197.764,47.2441 "/>
<path clip-path="url(#clip990)" d="M50.9921 686.899 L80.6679 686.899 L80.6679 690.834 L50.9921 690.834 L50.9921 686.899 Z" fill="#000000" fill-rule="nonzero" fill-opacity="1" /><path clip-path="url(#clip990)" d="M91.5706 699.793 L99.2095 699.793 L99.2095 673.427 L90.8993 675.094 L90.8993 670.835 L99.1632 669.168 L103.839 669.168 L103.839 699.793 L111.478 699.793 L111.478 703.728 L91.5706 703.728 L91.5706 699.793 Z" fill="#000000" fill-rule="nonzero" fill-opacity="1" /><path clip-path="url(#clip990)" d="M130.922 672.247 Q127.311 672.247 125.482 675.811 Q123.677 679.353 123.677 686.483 Q123.677 693.589 125.482 697.154 Q127.311 700.695 130.922 700.695 Q134.556 700.695 136.362 697.154 Q138.191 693.589 138.191 686.483 Q138.191 679.353 136.362 675.811 Q134.556 672.247 130.922 672.247 M130.922 668.543 Q136.732 668.543 139.788 673.149 Q142.867 677.733 142.867 686.483 Q142.867 695.209 139.788 699.816 Q136.732 704.399 130.922 704.399 Q125.112 704.399 122.033 699.816 Q118.978 695.209 118.978 686.483 Q118.978 677.733 122.033 673.149 Q125.112 668.543 130.922 668.543 Z" fill="#000000" fill-rule="nonzero" fill-opacity="1" /><path clip-path="url(#clip990)" d="M82.1494 527.098 L111.825 527.098 L111.825 531.033 L82.1494 531.033 L82.1494 527.098 Z" fill="#000000" fill-rule="nonzero" fill-opacity="1" /><path clip-path="url(#clip990)" d="M121.964 509.367 L140.32 509.367 L140.32 513.302 L126.246 513.302 L126.246 521.774 Q127.265 521.427 128.283 521.265 Q129.302 521.08 130.32 521.08 Q136.107 521.08 139.487 524.251 Q142.867 527.422 142.867 532.839 Q142.867 538.418 139.394 541.52 Q135.922 544.598 129.603 544.598 Q127.427 544.598 125.158 544.228 Q122.913 543.857 120.506 543.117 L120.506 538.418 Q122.589 539.552 124.811 540.108 Q127.033 540.663 129.51 540.663 Q133.515 540.663 135.853 538.557 Q138.191 536.45 138.191 532.839 Q138.191 529.228 135.853 527.121 Q133.515 525.015 129.51 525.015 Q127.635 525.015 125.76 525.432 Q123.908 525.848 121.964 526.728 L121.964 509.367 Z" fill="#000000" fill-rule="nonzero" fill-opacity="1" /><path clip-path="url(#clip990)" d="M130.922 352.645 Q127.311 352.645 125.482 356.209 Q123.677 359.751 123.677 366.881 Q123.677 373.987 125.482 377.552 Q127.311 381.094 130.922 381.094 Q134.556 381.094 136.362 377.552 Q138.191 373.987 138.191 366.881 Q138.191 359.751 136.362 356.209 Q134.556 352.645 130.922 352.645 M130.922 348.941 Q136.732 348.941 139.788 353.547 Q142.867 358.131 142.867 366.881 Q142.867 375.608 139.788 380.214 Q136.732 384.797 130.922 384.797 Q125.112 384.797 122.033 380.214 Q118.978 375.608 118.978 366.881 Q118.978 358.131 122.033 353.547 Q125.112 348.941 130.922 348.941 Z" fill="#000000" fill-rule="nonzero" fill-opacity="1" /><path clip-path="url(#clip990)" d="M121.964 189.765 L140.32 189.765 L140.32 193.7 L126.246 193.7 L126.246 202.172 Q127.265 201.825 128.283 201.663 Q129.302 201.478 130.32 201.478 Q136.107 201.478 139.487 204.649 Q142.867 207.82 142.867 213.237 Q142.867 218.816 139.394 221.918 Q135.922 224.996 129.603 224.996 Q127.427 224.996 125.158 224.626 Q122.913 224.256 120.506 223.515 L120.506 218.816 Q122.589 219.95 124.811 220.506 Q127.033 221.061 129.51 221.061 Q133.515 221.061 135.853 218.955 Q138.191 216.848 138.191 213.237 Q138.191 209.626 135.853 207.52 Q133.515 205.413 129.51 205.413 Q127.635 205.413 125.76 205.83 Q123.908 206.246 121.964 207.126 L121.964 189.765 Z" fill="#000000" fill-rule="nonzero" fill-opacity="1" /><path clip-path="url(#clip990)" d="M91.5706 60.5889 L99.2095 60.5889 L99.2095 34.2233 L90.8993 35.89 L90.8993 31.6308 L99.1632 29.9641 L103.839 29.9641 L103.839 60.5889 L111.478 60.5889 L111.478 64.5241 L91.5706 64.5241 L91.5706 60.5889 Z" fill="#000000" fill-rule="nonzero" fill-opacity="1" /><path clip-path="url(#clip990)" d="M130.922 33.0428 Q127.311 33.0428 125.482 36.6076 Q123.677 40.1492 123.677 47.2788 Q123.677 54.3853 125.482 57.9501 Q127.311 61.4917 130.922 61.4917 Q134.556 61.4917 136.362 57.9501 Q138.191 54.3853 138.191 47.2788 Q138.191 40.1492 136.362 36.6076 Q134.556 33.0428 130.922 33.0428 M130.922 29.3391 Q136.732 29.3391 139.788 33.9456 Q142.867 38.5289 142.867 47.2788 Q142.867 56.0056 139.788 60.6121 Q136.732 65.1954 130.922 65.1954 Q125.112 65.1954 122.033 60.6121 Q118.978 56.0056 118.978 47.2788 Q118.978 38.5289 122.033 33.9456 Q125.112 29.3391 130.922 29.3391 Z" fill="#000000" fill-rule="nonzero" fill-opacity="1" /><polyline clip-path="url(#clip992)" style="stroke:#009af9; stroke-linecap:round; stroke-linejoin:round; stroke-width:4; stroke-opacity:1; fill:none" points="240.392,334.886 242.445,341.26 244.498,348.44 246.55,349.72 248.603,341.065 250.656,351.88 252.709,379.355 254.762,379.357 256.815,384.176 258.868,383.882 260.921,381.514 262.974,381.323 265.027,390.989 267.079,391.055 269.132,378.65 271.185,377.85 273.238,376.415 275.291,356.065 277.344,361.178 279.397,357.232 281.45,354.425 283.503,349.523 285.555,385.907 287.608,382.742 289.661,383.485 291.714,386.62 293.767,343.19 295.82,378.757 297.873,401.818 299.926,412.277 301.979,361.322 304.031,407.8 306.084,407.375 308.137,378.74 310.19,357.386 312.243,350.626 314.296,350.046 316.349,348.129 318.402,377.11 320.455,377.021 322.507,385.098 324.56,411.917 326.613,392.929 328.666,395.978 330.719,378.277 332.772,367.56 334.825,366.709 336.878,370.597 338.931,364.807 340.984,363.037 343.036,355.079 345.089,355.55 347.142,369.808 349.195,389.319 351.248,370.505 353.301,353.836 355.354,356.042 357.407,357.578 359.46,375.229 361.512,375.424 363.565,370.842 365.618,370.824 367.671,372.852 369.724,373.783 371.777,373.618 373.83,376.973 375.883,376.969 377.936,371.523 379.988,366.541 382.041,369.116 384.094,369.329 386.147,369.469 388.2,360.311 390.253,368.079 392.306,345.185 394.359,413.852 396.412,413.849 398.464,413.533 400.517,411.814 402.57,410.901 404.623,396.311 406.676,390.033 408.729,390.325 410.782,379.477 412.835,375.344 414.888,384.506 416.94,427.855 418.993,432.303 421.046,406.937 423.099,399.995 425.152,374.008 427.205,374.477 429.258,358.934 431.311,350.084 433.364,355.363 435.417,330.058 437.469,337.71 439.522,346.605 441.575,347.608 443.628,345.678 445.681,344.644 447.734,353.876 449.787,353.878 451.84,370.258 453.893,376.67 455.945,367.638 457.998,367.479 460.051,368.19 462.104,381.285 464.157,383.074 466.21,386.799 468.263,390.366 470.316,395.298 472.369,456.475 474.421,454.279 476.474,483.943 478.527,492.183 480.58,471.217 482.633,436.177 484.686,435.348 486.739,435.355 488.792,439.202 490.845,439.394 492.897,395.861 494.95,365.812 497.003,304.77 499.056,340.839 501.109,345.399 503.162,278.393 505.215,312.216 507.268,316.11 509.321,322.174 511.374,357.842 513.426,343.241 515.479,307.292 517.532,306.014 519.585,301.75 521.638,304.99 523.691,303.539 525.744,371.514 527.797,312.682 529.85,367.762 531.902,346.699 533.955,346.662 536.008,322.487 538.061,330.316 540.114,320.864 542.167,331.896 544.22,331.905 546.273,330.74 548.326,421.254 550.378,408.96 552.431,400.666 554.484,394.174 556.537,393.938 558.59,368.69 560.643,360.46 562.696,364.876 564.749,359.52 566.802,348.9 568.854,346.814 570.907,342.303 572.96,310.918 575.013,316.614 577.066,315.542 579.119,315.814 581.172,316.013 583.225,331.475 585.278,333.767 587.331,329.367 589.383,329.162 591.436,315.925 593.489,313.568 595.542,314.304 597.595,329.08 599.648,328.633 601.701,351.767 603.754,353.051 605.807,352.185 607.859,352.287 609.912,366.424 611.965,398.36 614.018,398.446 616.071,379.745 618.124,382.354 620.177,382.348 622.23,402.94 624.283,396.779 626.335,395.669 628.388,270.769 630.441,271.08 632.494,273.621 634.547,272.271 636.6,271.802 638.653,271.415 640.706,285.433 642.759,284.886 644.811,281.264 646.864,260.736 648.917,238.821 650.97,238.318 653.023,237.176 655.076,236.798 657.129,236.296 659.182,235.305 661.235,264.32 663.288,263.053 665.34,260.493 667.393,333.12 669.446,330.487 671.499,333.017 673.552,343.944 675.605,339.664 677.658,340.906 679.711,340.956 681.764,353.499 683.816,360.859 685.869,362.096 687.922,362.553 689.975,362.56 692.028,357.6 694.081,344.758 696.134,349.598 698.187,349.524 700.24,350.114 702.292,388.039 704.345,388.661 706.398,388.605 708.451,381.001 710.504,338.785 712.557,339.241 714.61,338.998 716.663,334.794 718.716,318.691 720.768,332.549 722.821,331.36 724.874,331.515 726.927,339.417 728.98,346.384 731.033,328.291 733.086,328.529 735.139,326.223 737.192,326.139 739.245,326.353 741.297,331.613 743.35,329.441 745.403,361.071 747.456,356.499 749.509,356.828 751.562,356.8 753.615,364.368 755.668,382.541 757.721,382.789 759.773,371.207 761.826,371.168 763.879,367.023 765.932,367.942 767.985,356.973 770.038,359.805 772.091,360.474 774.144,387.609 776.197,413.804 778.249,412.735 780.302,423.254 782.355,412.649 784.408,444.082 786.461,388.228 788.514,387.581 790.567,313.192 792.62,315.946 794.673,330.893 796.725,368.061 798.778,364.462 800.831,364.762 802.884,364.293 804.937,374.827 806.99,374.173 809.043,383.396 811.096,378.324 813.149,364.314 815.202,382.644 817.254,384.199 819.307,367.46 821.36,374.534 823.413,359.445 825.466,377.276 827.519,376.989 829.572,376.123 831.625,371.752 833.678,402.338 835.73,427.562 837.783,422.955 839.836,423.618 841.889,389.884 843.942,391.502 845.995,391.922 848.048,382.907 850.101,382.905 852.154,339.26 854.206,333.865 856.259,332.431 858.312,343.042 860.365,343.836 862.418,342.996 864.471,346.212 866.524,349.774 868.577,349.877 870.63,347.119 872.682,346.95 874.735,372.422 876.788,370.546 878.841,370.533 880.894,370.757 882.947,369.717 885,371.451 887.053,371.987 889.106,367.865 891.159,367.796 893.211,367.077 895.264,367.343 897.317,377.686 899.37,365.05 901.423,365.439 903.476,365.352 905.529,364.543 907.582,367.029 909.635,366.499 911.687,366.564 913.74,367.462 915.793,361.013 917.846,361.001 919.899,361.028 921.952,362.769 924.005,354.853 926.058,350.508 928.111,345.898 930.163,345.49 932.216,345.586 934.269,344.455 936.322,340.598 938.375,348.859 940.428,347.683 942.481,341.877 944.534,339.162 946.587,339.093 948.639,355.133 950.692,355.157 952.745,355.277 954.798,366.01 956.851,362.272 958.904,362.986 960.957,363.256 963.01,363.531 965.063,363.689 967.116,363.661 969.168,363.619 971.221,362.701 973.274,360.006 975.327,362.698 977.38,362.907 979.433,363.48 981.486,367.335 983.539,358.302 985.592,353.839 987.644,340.219 989.697,343.009 991.75,398.084 993.803,398.043 995.856,391.359 997.909,389.806 999.962,380.93 1002.01,380.52 1004.07,363.206 1006.12,363.675 1008.17,363.681 1010.23,363.488 1012.28,365.491 1014.33,369.745 1016.38,347.736 1018.44,322.812 1020.49,322.487 1022.54,356.945 1024.6,354.149 1026.65,355.486 1028.7,356.122 1030.76,355.438 1032.81,357.498 1034.86,357.499 1036.91,352.344 1038.97,352.607 1041.02,417.505 1043.07,416.816 1045.13,426.068 1047.18,414.051 1049.23,418.336 1051.28,400.824 1053.34,400.857 1055.39,400.949 1057.44,399.549 1059.5,399.553 1061.55,399.587 1063.6,339.302 1065.65,331.637 1067.71,327.014 1069.76,337.221 1071.81,337.109 1073.87,335.665 1075.92,334.852 1077.97,330.889 1080.02,331.331 1082.08,331.026 1084.13,332.627 1086.18,356.257 1088.24,360.222 1090.29,376.608 1092.34,384.096 1094.39,363.416 1096.45,384.871 1098.5,383.382 1100.55,347.058 1102.61,346.341 1104.66,345.39 1106.71,343.875 1108.77,343.361 1110.82,340.267 1112.87,309.943 1114.92,313.45 1116.98,313.258 1119.03,315.372 1121.08,314.407 1123.14,311.585 1125.19,324.466 1127.24,286.805 1129.29,292.313 1131.35,292.165 1133.4,292.949 1135.45,283.575 1137.51,284.261 1139.56,284.101 1141.61,341.89 1143.66,339.413 1145.72,339.724 1147.77,343.641 1149.82,373.139 1151.88,389.005 1153.93,388.666 1155.98,399.765 1158.03,348.537 1160.09,359.714 1162.14,363.005 1164.19,368.761 1166.25,369.969 1168.3,371.405 1170.35,371.433 1172.4,337.896 1174.46,337.399 1176.51,351.358 1178.56,343.867 1180.62,343.781 1182.67,354.221 1184.72,356.539 1186.77,403.134 1188.83,403.455 1190.88,429.94 1192.93,429.302 1194.99,419.304 1197.04,418.561 1199.09,428.314 1201.15,428.171 1203.2,408.901 1205.25,392.553 1207.3,392.494 1209.36,392.137 1211.41,392.17 1213.46,392.197 1215.52,383.142 1217.57,382.742 1219.62,391.24 1221.67,392.14 1223.73,397.031 1225.78,388.323 1227.83,389.453 1229.89,389.511 1231.94,386.751 1233.99,387.113 1236.04,387.015 1238.1,398.191 1240.15,399.279 1242.2,382.821 1244.26,382.808 1246.31,365.996 1248.36,357.761 1250.41,358.451 1252.47,366.965 1254.52,364.337 1256.57,368.529 1258.63,282.361 1260.68,281.838 1262.73,280.775 1264.78,281.202 1266.84,281.414 1268.89,280.968 1270.94,284.909 1273,329.061 1275.05,328.871 1277.1,326.065 1279.16,362.259 1281.21,320.296 1283.26,332.431 1285.31,354.437 1287.37,363.586 1289.42,380.61 1291.47,381.537 1293.53,385.576 1295.58,395.35 1297.63,397.134 1299.68,396.999 1301.74,396.887 1303.79,383.523 1305.84,384.459 1307.9,382.691 1309.95,384.835 1312,347.765 1314.05,347.373 1316.11,304.154 1318.16,303.58 1320.21,313.728 1322.27,310.697 1324.32,291.311 1326.37,291.563 1328.42,291.862 1330.48,291.838 1332.53,360.584 1334.58,358.39 1336.64,358.171 1338.69,349.712 1340.74,349.664 1342.79,347.183 1344.85,348.997 1346.9,343.456 1348.95,354.789 1351.01,355.042 1353.06,359.325 1355.11,339.665 1357.16,339.638 1359.22,323.635 1361.27,325.501 1363.32,327.364 1365.38,327.536 1367.43,329.913 1369.48,331.067 1371.54,323.385 1373.59,454.405 1375.64,450.239 1377.69,439.454 1379.75,440.015 1381.8,396.714 1383.85,383.607 1385.91,384.182 1387.96,365.518 1390.01,365.807 1392.06,365.829 1394.12,354.742 1396.17,401.34 1398.22,390.705 1400.28,399.126 1402.33,399.33 1404.38,428.651 1406.43,428.303 1408.49,427.185 1410.54,406.912 1412.59,398.805 1414.65,404.758 1416.7,421.905 1418.75,421.521 1420.8,378.095 1422.86,375.634 1424.91,337.293 1426.96,336.633 1429.02,332.747 1431.07,334.006 1433.12,320.051 1435.17,322.049 1437.23,322.841 1439.28,335.469 1441.33,328.726 1443.39,313.717 1445.44,330.711 1447.49,333.813 1449.55,337.286 1451.6,352.152 1453.65,353.493 1455.7,353.92 1457.76,348.557 1459.81,347.88 1461.86,348.145 1463.92,348.375 1465.97,348.8 1468.02,348.495 1470.07,350.567 1472.13,373.505 1474.18,365.244 1476.23,355.59 1478.29,365.441 1480.34,364.961 1482.39,370.986 1484.44,355.634 1486.5,372.645 1488.55,385.502 1490.6,389.296 1492.66,360.779 1494.71,364.769 1496.76,353.976 1498.81,373.458 1500.87,368.583 1502.92,369.075 1504.97,356.414 1507.03,335.752 1509.08,312.971 1511.13,314.104 1513.18,312.37 1515.24,320.208 1517.29,310.809 1519.34,325.204 1521.4,319.238 1523.45,296.041 1525.5,297.559 1527.55,336.805 1529.61,375.399 1531.66,382.449 1533.71,383.41 1535.77,378.207 1537.82,378.282 1539.87,378.371 1541.93,377.356 1543.98,380.222 1546.03,363.371 1548.08,376.854 1550.14,374.708 1552.19,370.21 1554.24,379.676 1556.3,376.397 1558.35,372.31 1560.4,381.198 1562.45,370.565 1564.51,370.544 1566.56,379.595 1568.61,380.742 1570.67,380.702 1572.72,378.025 1574.77,378.758 1576.82,365.355 1578.88,358.233 1580.93,359.631 1582.98,353.935 1585.04,361.547 1587.09,372.398 1589.14,369.695 1591.19,373.301 1593.25,376.167 1595.3,374.448 1597.35,374.217 1599.41,378.191 1601.46,377.741 1603.51,384.174 1605.56,380.876 1607.62,347.109 1609.67,356.529 1611.72,317.395 1613.78,317.445 1615.83,330.87 1617.88,372.831 1619.94,372.038 1621.99,338.33 1624.04,345.764 1626.09,346.304 1628.15,346.301 1630.2,353.959 1632.25,350.601 1634.31,367.622 1636.36,362.941 1638.41,354.896 1640.46,371.285 1642.52,372.307 1644.57,372.811 1646.62,410.122 1648.68,321.797 1650.73,308.742 1652.78,308.746 1654.83,342.516 1656.89,349.17 1658.94,349.096 1660.99,349.326 1663.05,355.752 1665.1,334.832 1667.15,409.846 1669.2,372.883 1671.26,372.729 1673.31,371.662 1675.36,372.192 1677.42,397.056 1679.47,404.281 1681.52,420.014 1683.57,385.909 1685.63,385.884 1687.68,367.403 1689.73,431.762 1691.79,431.557 1693.84,414.697 1695.89,366.128 1697.94,377.703 1700,377.483 1702.05,374.463 1704.1,402.198 1706.16,418.538 1708.21,396.834 1710.26,396.827 1712.32,410.215 1714.37,424.564 1716.42,417.57 1718.47,417.566 1720.53,418.249 1722.58,418.063 1724.63,416.178 1726.69,416.92 1728.74,407.752 1730.79,404.675 1732.84,405.961 1734.9,418.306 1736.95,440.292 1739,402.909 1741.06,402.15 1743.11,307.659 1745.16,348.88 1747.21,350.198 1749.27,366.416 1751.32,366.444 1753.37,351.236 1755.43,351.572 1757.48,340.618 1759.53,298.493 1761.58,323.251 1763.64,314.45 1765.69,333.145 1767.74,333.115 1769.8,332.582 1771.85,333.126 1773.9,339.118 1775.95,358.277 1778.01,367.583 1780.06,363.464 1782.11,362.944 1784.17,381.835 1786.22,383.927 1788.27,360.259 1790.33,362.138 1792.38,368.287 1794.43,380.309 1796.48,381.195 1798.54,369.851 1800.59,398.281 1802.64,469.002 1804.7,561.814 1806.75,539.851 1808.8,540.114 1810.85,623.995 1812.91,584.592 1814.96,549.317 1817.01,505.235 1819.07,505.291 1821.12,505.048 1823.17,502.753 1825.22,506.574 1827.28,558.403 1829.33,606.915 1831.38,640.912 1833.44,652.145 1835.49,572.185 1837.54,561.499 1839.59,568.48 1841.65,502.93 1843.7,553.694 1845.75,554.314 1847.81,557.396 1849.86,517.107 1851.91,515.492 1853.96,531.428 1856.02,533.075 1858.07,511.343 1860.12,587.486 1862.18,530.135 1864.23,351.133 1866.28,393.144 1868.34,344.711 1870.39,410.988 1872.44,405.69 1874.49,385.859 1876.55,686.669 1878.6,683.832 1880.65,463.719 1882.71,498.581 1884.76,514.21 1886.81,511.986 1888.86,523.208 1890.92,487.132 1892.97,486.705 1895.02,486.692 1897.08,70.8516 1899.13,77.5413 1901.18,66.1947 1903.23,415.283 1905.29,621.321 1907.34,620.973 1909.39,665.496 1911.45,583.142 1913.5,574.892 1915.55,295.349 1917.6,145.969 1919.66,329.151 1921.71,368.277 1923.76,385.629 1925.82,384.833 1927.87,394.395 1929.92,438.099 1931.97,312.392 1934.03,410.759 1936.08,392.282 1938.13,591.35 1940.19,561.088 1942.24,637.073 1944.29,561.461 1946.34,537.004 1948.4,455.298 1950.45,565.755 1952.5,559.998 1954.56,533.119 1956.61,373.207 1958.66,357.788 1960.72,481.375 1962.77,359.752 1964.82,267.978 1966.87,266.118 1968.93,396.076 1970.98,369.019 1973.03,331.865 1975.09,474.644 1977.14,414.845 1979.19,451.152 1981.24,428.157 1983.3,287.639 1985.35,303.513 1987.4,353.069 1989.46,352.727 1991.51,171.645 1993.56,216.178 1995.61,207.327 1997.67,236.969 1999.72,340.143 2001.77,315.571 2003.83,318.076 2005.88,236.865 2007.93,269.319 2009.98,342.496 2012.04,383.533 2014.09,262.619 2016.14,368.556 2018.2,373.649 2020.25,344.521 2022.3,571.588 2024.35,584.518 2026.41,642.071 2028.46,585.497 2030.51,580.866 2032.57,565.906 2034.62,554.384 2036.67,549.621 2038.73,321.749 2040.78,275.209 2042.83,281.809 2044.88,286.726 2046.94,285.094 2048.99,350.532 2051.04,355.986 2053.1,509.384 2055.15,105.202 2057.2,101.465 2059.25,110.504 2061.31,83.3478 2063.36,84.194 2065.41,126.272 2067.47,126.986 2069.52,80.2168 2071.57,132.489 2073.62,133.024 2075.68,198.034 2077.73,184.583 2079.78,190.717 2081.84,525.882 2083.89,508.497 2085.94,508.982 2087.99,489.053 2090.05,501.355 2092.1,472.979 2094.15,558.854 2096.21,516.476 2098.26,497.164 2100.31,474.083 2102.36,319.102 2104.42,318.841 2106.47,362.286 2108.52,698.547 2110.58,572.612 2112.63,572.469 2114.68,597.696 2116.73,591.145 2118.79,466.236 2120.84,496.774 2122.89,495.053 2124.95,477.642 2127,477.664 2129.05,509.076 2131.11,499.507 2133.16,452.094 2135.21,423.253 2137.26,497.166 2139.32,483.901 2141.37,483.318 2143.42,381.115 2145.48,394.174 2147.53,445.002 2149.58,407.32 2151.63,332.193 2153.69,309.002 2155.74,315.138 2157.79,320.189 2159.85,234.848 2161.9,232.855 2163.95,365.134 2166,405.525 2168.06,406.724 2170.11,472.293 2172.16,476.715 2174.22,480.16 2176.27,470.383 2178.32,478.035 2180.37,498.988 2182.43,508.986 2184.48,489.294 2186.53,500.341 2188.59,557.842 2190.64,508.583 2192.69,491.475 2194.74,477.723 2196.8,515.073 2198.85,505.3 2200.9,504.902 2202.96,487.499 2205.01,494.365 2207.06,498.757 2209.12,543.356 2211.17,534.252 2213.22,320.841 2215.27,316.589 2217.33,272.857 2219.38,269.689 2221.43,388.143 2223.49,420.638 2225.54,419.467 2227.59,423.128 2229.64,416.188 2231.7,373.824 2233.75,375.432 2235.8,447.2 2237.86,425.51 2239.91,411.808 2241.96,416.469 2244.01,418.169 2246.07,416.771 2248.12,432.421 2250.17,431.813 2252.23,425.134 2254.28,422.201 2256.33,385.559 2258.38,515.169 2260.44,518.845 2262.49,573.009 2264.54,500.059 2266.6,325.213 2268.65,327.884 2270.7,326.483 2272.75,326.355 2274.81,292.697 2276.86,328.231 2278.91,310.888 2280.97,310.613 2283.02,254.478 2285.07,395.803 2287.12,371.508 2289.18,372.31 2291.23,379.454 "/>
<path clip-path="url(#clip990)" d="M251.33 172.231 L548.024 172.231 L548.024 68.5509 L251.33 68.5509  Z" fill="#ffffff" fill-rule="evenodd" fill-opacity="1"/>
<polyline clip-path="url(#clip990)" style="stroke:#000000; stroke-linecap:round; stroke-linejoin:round; stroke-width:4; stroke-opacity:1; fill:none" points="251.33,172.231 548.024,172.231 548.024,68.5509 251.33,68.5509 251.33,172.231 "/>
<polyline clip-path="url(#clip990)" style="stroke:#009af9; stroke-linecap:round; stroke-linejoin:round; stroke-width:4; stroke-opacity:1; fill:none" points="275.484,120.391 420.41,120.391 "/>
<path clip-path="url(#clip990)" d="M444.564 103.111 L449.24 103.111 L449.24 133.736 L466.069 133.736 L466.069 137.671 L444.564 137.671 L444.564 103.111 Z" fill="#000000" fill-rule="nonzero" fill-opacity="1" /><path clip-path="url(#clip990)" d="M491.694 104.245 L491.694 108.805 Q489.032 107.532 486.67 106.907 Q484.309 106.282 482.11 106.282 Q478.291 106.282 476.208 107.764 Q474.147 109.245 474.147 111.977 Q474.147 114.268 475.513 115.449 Q476.902 116.606 480.745 117.324 L483.569 117.902 Q488.8 118.898 491.277 121.421 Q493.777 123.921 493.777 128.134 Q493.777 133.157 490.397 135.75 Q487.041 138.342 480.536 138.342 Q478.083 138.342 475.305 137.787 Q472.55 137.231 469.587 136.143 L469.587 131.328 Q472.434 132.926 475.166 133.736 Q477.897 134.546 480.536 134.546 Q484.541 134.546 486.717 132.972 Q488.893 131.398 488.893 128.481 Q488.893 125.935 487.319 124.5 Q485.768 123.064 482.203 122.347 L479.356 121.791 Q474.124 120.75 471.786 118.527 Q469.448 116.305 469.448 112.347 Q469.448 107.764 472.666 105.125 Q475.907 102.486 481.578 102.486 Q484.008 102.486 486.532 102.926 Q489.055 103.366 491.694 104.245 Z" fill="#000000" fill-rule="nonzero" fill-opacity="1" /><path clip-path="url(#clip990)" d="M521.786 104.245 L521.786 108.805 Q519.124 107.532 516.763 106.907 Q514.402 106.282 512.203 106.282 Q508.383 106.282 506.3 107.764 Q504.24 109.245 504.24 111.977 Q504.24 114.268 505.606 115.449 Q506.994 116.606 510.837 117.324 L513.661 117.902 Q518.893 118.898 521.369 121.421 Q523.869 123.921 523.869 128.134 Q523.869 133.157 520.49 135.75 Q517.133 138.342 510.629 138.342 Q508.175 138.342 505.397 137.787 Q502.643 137.231 499.68 136.143 L499.68 131.328 Q502.527 132.926 505.258 133.736 Q507.99 134.546 510.629 134.546 Q514.633 134.546 516.809 132.972 Q518.985 131.398 518.985 128.481 Q518.985 125.935 517.411 124.5 Q515.86 123.064 512.295 122.347 L509.448 121.791 Q504.217 120.75 501.879 118.527 Q499.541 116.305 499.541 112.347 Q499.541 107.764 502.758 105.125 Q505.999 102.486 511.67 102.486 Q514.101 102.486 516.624 102.926 Q519.147 103.366 521.786 104.245 Z" fill="#000000" fill-rule="nonzero" fill-opacity="1" /><path clip-path="url(#clip990)" d="M178.867 1486.45 L2352.76 1486.45 L2352.76 847.244 L178.867 847.244  Z" fill="#ffffff" fill-rule="evenodd" fill-opacity="1"/>
<defs>
  <clipPath id="clip993">
    <rect x="178" y="847" width="2175" height="640"/>
  </clipPath>
</defs>
<polyline clip-path="url(#clip993)" style="stroke:#000000; stroke-linecap:round; stroke-linejoin:round; stroke-width:2; stroke-opacity:0.1; fill:none" points="238.339,1486.45 238.339,847.244 "/>
<polyline clip-path="url(#clip993)" style="stroke:#000000; stroke-linecap:round; stroke-linejoin:round; stroke-width:2; stroke-opacity:0.1; fill:none" points="751.562,1486.45 751.562,847.244 "/>
<polyline clip-path="url(#clip993)" style="stroke:#000000; stroke-linecap:round; stroke-linejoin:round; stroke-width:2; stroke-opacity:0.1; fill:none" points="1264.78,1486.45 1264.78,847.244 "/>
<polyline clip-path="url(#clip993)" style="stroke:#000000; stroke-linecap:round; stroke-linejoin:round; stroke-width:2; stroke-opacity:0.1; fill:none" points="1778.01,1486.45 1778.01,847.244 "/>
<polyline clip-path="url(#clip993)" style="stroke:#000000; stroke-linecap:round; stroke-linejoin:round; stroke-width:2; stroke-opacity:0.1; fill:none" points="2291.23,1486.45 2291.23,847.244 "/>
<polyline clip-path="url(#clip993)" style="stroke:#000000; stroke-linecap:round; stroke-linejoin:round; stroke-width:2; stroke-opacity:0.1; fill:none" points="178.867,1486.45 2352.76,1486.45 "/>
<polyline clip-path="url(#clip993)" style="stroke:#000000; stroke-linecap:round; stroke-linejoin:round; stroke-width:2; stroke-opacity:0.1; fill:none" points="178.867,1326.65 2352.76,1326.65 "/>
<polyline clip-path="url(#clip993)" style="stroke:#000000; stroke-linecap:round; stroke-linejoin:round; stroke-width:2; stroke-opacity:0.1; fill:none" points="178.867,1166.85 2352.76,1166.85 "/>
<polyline clip-path="url(#clip993)" style="stroke:#000000; stroke-linecap:round; stroke-linejoin:round; stroke-width:2; stroke-opacity:0.1; fill:none" points="178.867,1007.05 2352.76,1007.05 "/>
<polyline clip-path="url(#clip993)" style="stroke:#000000; stroke-linecap:round; stroke-linejoin:round; stroke-width:2; stroke-opacity:0.1; fill:none" points="178.867,847.244 2352.76,847.244 "/>
<polyline clip-path="url(#clip990)" style="stroke:#000000; stroke-linecap:round; stroke-linejoin:round; stroke-width:4; stroke-opacity:1; fill:none" points="178.867,1486.45 2352.76,1486.45 "/>
<polyline clip-path="url(#clip990)" style="stroke:#000000; stroke-linecap:round; stroke-linejoin:round; stroke-width:4; stroke-opacity:1; fill:none" points="238.339,1486.45 238.339,1467.55 "/>
<polyline clip-path="url(#clip990)" style="stroke:#000000; stroke-linecap:round; stroke-linejoin:round; stroke-width:4; stroke-opacity:1; fill:none" points="751.562,1486.45 751.562,1467.55 "/>
<polyline clip-path="url(#clip990)" style="stroke:#000000; stroke-linecap:round; stroke-linejoin:round; stroke-width:4; stroke-opacity:1; fill:none" points="1264.78,1486.45 1264.78,1467.55 "/>
<polyline clip-path="url(#clip990)" style="stroke:#000000; stroke-linecap:round; stroke-linejoin:round; stroke-width:4; stroke-opacity:1; fill:none" points="1778.01,1486.45 1778.01,1467.55 "/>
<polyline clip-path="url(#clip990)" style="stroke:#000000; stroke-linecap:round; stroke-linejoin:round; stroke-width:4; stroke-opacity:1; fill:none" points="2291.23,1486.45 2291.23,1467.55 "/>
<path clip-path="url(#clip990)" d="M238.339 1517.37 Q234.728 1517.37 232.899 1520.93 Q231.094 1524.47 231.094 1531.6 Q231.094 1538.71 232.899 1542.27 Q234.728 1545.82 238.339 1545.82 Q241.973 1545.82 243.779 1542.27 Q245.607 1538.71 245.607 1531.6 Q245.607 1524.47 243.779 1520.93 Q241.973 1517.37 238.339 1517.37 M238.339 1513.66 Q244.149 1513.66 247.205 1518.27 Q250.283 1522.85 250.283 1531.6 Q250.283 1540.33 247.205 1544.94 Q244.149 1549.52 238.339 1549.52 Q232.529 1549.52 229.45 1544.94 Q226.395 1540.33 226.395 1531.6 Q226.395 1522.85 229.45 1518.27 Q232.529 1513.66 238.339 1513.66 Z" fill="#000000" fill-rule="nonzero" fill-opacity="1" /><path clip-path="url(#clip990)" d="M715.254 1544.91 L731.574 1544.91 L731.574 1548.85 L709.629 1548.85 L709.629 1544.91 Q712.291 1542.16 716.875 1537.53 Q721.481 1532.88 722.662 1531.53 Q724.907 1529.01 725.787 1527.27 Q726.689 1525.51 726.689 1523.82 Q726.689 1521.07 724.745 1519.33 Q722.824 1517.6 719.722 1517.6 Q717.523 1517.6 715.069 1518.36 Q712.638 1519.13 709.861 1520.68 L709.861 1515.95 Q712.685 1514.82 715.138 1514.24 Q717.592 1513.66 719.629 1513.66 Q725 1513.66 728.194 1516.35 Q731.388 1519.03 731.388 1523.52 Q731.388 1525.65 730.578 1527.57 Q729.791 1529.47 727.685 1532.07 Q727.106 1532.74 724.004 1535.95 Q720.902 1539.15 715.254 1544.91 Z" fill="#000000" fill-rule="nonzero" fill-opacity="1" /><path clip-path="url(#clip990)" d="M741.435 1514.29 L759.791 1514.29 L759.791 1518.22 L745.717 1518.22 L745.717 1526.7 Q746.736 1526.35 747.754 1526.19 Q748.773 1526 749.791 1526 Q755.578 1526 758.958 1529.17 Q762.337 1532.34 762.337 1537.76 Q762.337 1543.34 758.865 1546.44 Q755.393 1549.52 749.073 1549.52 Q746.898 1549.52 744.629 1549.15 Q742.384 1548.78 739.976 1548.04 L739.976 1543.34 Q742.06 1544.47 744.282 1545.03 Q746.504 1545.58 748.981 1545.58 Q752.985 1545.58 755.323 1543.48 Q757.661 1541.37 757.661 1537.76 Q757.661 1534.15 755.323 1532.04 Q752.985 1529.94 748.981 1529.94 Q747.106 1529.94 745.231 1530.35 Q743.379 1530.77 741.435 1531.65 L741.435 1514.29 Z" fill="#000000" fill-rule="nonzero" fill-opacity="1" /><path clip-path="url(#clip990)" d="M781.55 1517.37 Q777.939 1517.37 776.11 1520.93 Q774.305 1524.47 774.305 1531.6 Q774.305 1538.71 776.11 1542.27 Q777.939 1545.82 781.55 1545.82 Q785.184 1545.82 786.99 1542.27 Q788.819 1538.71 788.819 1531.6 Q788.819 1524.47 786.99 1520.93 Q785.184 1517.37 781.55 1517.37 M781.55 1513.66 Q787.36 1513.66 790.416 1518.27 Q793.495 1522.85 793.495 1531.6 Q793.495 1540.33 790.416 1544.94 Q787.36 1549.52 781.55 1549.52 Q775.74 1549.52 772.661 1544.94 Q769.606 1540.33 769.606 1531.6 Q769.606 1522.85 772.661 1518.27 Q775.74 1513.66 781.55 1513.66 Z" fill="#000000" fill-rule="nonzero" fill-opacity="1" /><path clip-path="url(#clip990)" d="M1224.4 1514.29 L1242.76 1514.29 L1242.76 1518.22 L1228.69 1518.22 L1228.69 1526.7 Q1229.7 1526.35 1230.72 1526.19 Q1231.74 1526 1232.76 1526 Q1238.55 1526 1241.93 1529.17 Q1245.31 1532.34 1245.31 1537.76 Q1245.31 1543.34 1241.83 1546.44 Q1238.36 1549.52 1232.04 1549.52 Q1229.87 1549.52 1227.6 1549.15 Q1225.35 1548.78 1222.94 1548.04 L1222.94 1543.34 Q1225.03 1544.47 1227.25 1545.03 Q1229.47 1545.58 1231.95 1545.58 Q1235.95 1545.58 1238.29 1543.48 Q1240.63 1541.37 1240.63 1537.76 Q1240.63 1534.15 1238.29 1532.04 Q1235.95 1529.94 1231.95 1529.94 Q1230.07 1529.94 1228.2 1530.35 Q1226.35 1530.77 1224.4 1531.65 L1224.4 1514.29 Z" fill="#000000" fill-rule="nonzero" fill-opacity="1" /><path clip-path="url(#clip990)" d="M1264.52 1517.37 Q1260.91 1517.37 1259.08 1520.93 Q1257.27 1524.47 1257.27 1531.6 Q1257.27 1538.71 1259.08 1542.27 Q1260.91 1545.82 1264.52 1545.82 Q1268.15 1545.82 1269.96 1542.27 Q1271.79 1538.71 1271.79 1531.6 Q1271.79 1524.47 1269.96 1520.93 Q1268.15 1517.37 1264.52 1517.37 M1264.52 1513.66 Q1270.33 1513.66 1273.38 1518.27 Q1276.46 1522.85 1276.46 1531.6 Q1276.46 1540.33 1273.38 1544.94 Q1270.33 1549.52 1264.52 1549.52 Q1258.71 1549.52 1255.63 1544.94 Q1252.57 1540.33 1252.57 1531.6 Q1252.57 1522.85 1255.63 1518.27 Q1258.71 1513.66 1264.52 1513.66 Z" fill="#000000" fill-rule="nonzero" fill-opacity="1" /><path clip-path="url(#clip990)" d="M1294.68 1517.37 Q1291.07 1517.37 1289.24 1520.93 Q1287.44 1524.47 1287.44 1531.6 Q1287.44 1538.71 1289.24 1542.27 Q1291.07 1545.82 1294.68 1545.82 Q1298.31 1545.82 1300.12 1542.27 Q1301.95 1538.71 1301.95 1531.6 Q1301.95 1524.47 1300.12 1520.93 Q1298.31 1517.37 1294.68 1517.37 M1294.68 1513.66 Q1300.49 1513.66 1303.55 1518.27 Q1306.62 1522.85 1306.62 1531.6 Q1306.62 1540.33 1303.55 1544.94 Q1300.49 1549.52 1294.68 1549.52 Q1288.87 1549.52 1285.79 1544.94 Q1282.74 1540.33 1282.74 1531.6 Q1282.74 1522.85 1285.79 1518.27 Q1288.87 1513.66 1294.68 1513.66 Z" fill="#000000" fill-rule="nonzero" fill-opacity="1" /><path clip-path="url(#clip990)" d="M1736.28 1514.29 L1758.51 1514.29 L1758.51 1516.28 L1745.96 1548.85 L1741.08 1548.85 L1752.88 1518.22 L1736.28 1518.22 L1736.28 1514.29 Z" fill="#000000" fill-rule="nonzero" fill-opacity="1" /><path clip-path="url(#clip990)" d="M1767.67 1514.29 L1786.03 1514.29 L1786.03 1518.22 L1771.95 1518.22 L1771.95 1526.7 Q1772.97 1526.35 1773.99 1526.19 Q1775.01 1526 1776.03 1526 Q1781.82 1526 1785.2 1529.17 Q1788.57 1532.34 1788.57 1537.76 Q1788.57 1543.34 1785.1 1546.44 Q1781.63 1549.52 1775.31 1549.52 Q1773.14 1549.52 1770.87 1549.15 Q1768.62 1548.78 1766.21 1548.04 L1766.21 1543.34 Q1768.3 1544.47 1770.52 1545.03 Q1772.74 1545.58 1775.22 1545.58 Q1779.22 1545.58 1781.56 1543.48 Q1783.9 1541.37 1783.9 1537.76 Q1783.9 1534.15 1781.56 1532.04 Q1779.22 1529.94 1775.22 1529.94 Q1773.34 1529.94 1771.47 1530.35 Q1769.62 1530.77 1767.67 1531.65 L1767.67 1514.29 Z" fill="#000000" fill-rule="nonzero" fill-opacity="1" /><path clip-path="url(#clip990)" d="M1807.79 1517.37 Q1804.18 1517.37 1802.35 1520.93 Q1800.54 1524.47 1800.54 1531.6 Q1800.54 1538.71 1802.35 1542.27 Q1804.18 1545.82 1807.79 1545.82 Q1811.42 1545.82 1813.23 1542.27 Q1815.06 1538.71 1815.06 1531.6 Q1815.06 1524.47 1813.23 1520.93 Q1811.42 1517.37 1807.79 1517.37 M1807.79 1513.66 Q1813.6 1513.66 1816.65 1518.27 Q1819.73 1522.85 1819.73 1531.6 Q1819.73 1540.33 1816.65 1544.94 Q1813.6 1549.52 1807.79 1549.52 Q1801.98 1549.52 1798.9 1544.94 Q1795.84 1540.33 1795.84 1531.6 Q1795.84 1522.85 1798.9 1518.27 Q1801.98 1513.66 1807.79 1513.66 Z" fill="#000000" fill-rule="nonzero" fill-opacity="1" /><path clip-path="url(#clip990)" d="M2235.76 1544.91 L2243.4 1544.91 L2243.4 1518.55 L2235.09 1520.21 L2235.09 1515.95 L2243.35 1514.29 L2248.02 1514.29 L2248.02 1544.91 L2255.66 1544.91 L2255.66 1548.85 L2235.76 1548.85 L2235.76 1544.91 Z" fill="#000000" fill-rule="nonzero" fill-opacity="1" /><path clip-path="url(#clip990)" d="M2275.11 1517.37 Q2271.5 1517.37 2269.67 1520.93 Q2267.86 1524.47 2267.86 1531.6 Q2267.86 1538.71 2269.67 1542.27 Q2271.5 1545.82 2275.11 1545.82 Q2278.74 1545.82 2280.55 1542.27 Q2282.38 1538.71 2282.38 1531.6 Q2282.38 1524.47 2280.55 1520.93 Q2278.74 1517.37 2275.11 1517.37 M2275.11 1513.66 Q2280.92 1513.66 2283.97 1518.27 Q2287.05 1522.85 2287.05 1531.6 Q2287.05 1540.33 2283.97 1544.94 Q2280.92 1549.52 2275.11 1549.52 Q2269.3 1549.52 2266.22 1544.94 Q2263.16 1540.33 2263.16 1531.6 Q2263.16 1522.85 2266.22 1518.27 Q2269.3 1513.66 2275.11 1513.66 Z" fill="#000000" fill-rule="nonzero" fill-opacity="1" /><path clip-path="url(#clip990)" d="M2305.27 1517.37 Q2301.66 1517.37 2299.83 1520.93 Q2298.02 1524.47 2298.02 1531.6 Q2298.02 1538.71 2299.83 1542.27 Q2301.66 1545.82 2305.27 1545.82 Q2308.9 1545.82 2310.71 1542.27 Q2312.54 1538.71 2312.54 1531.6 Q2312.54 1524.47 2310.71 1520.93 Q2308.9 1517.37 2305.27 1517.37 M2305.27 1513.66 Q2311.08 1513.66 2314.14 1518.27 Q2317.21 1522.85 2317.21 1531.6 Q2317.21 1540.33 2314.14 1544.94 Q2311.08 1549.52 2305.27 1549.52 Q2299.46 1549.52 2296.38 1544.94 Q2293.33 1540.33 2293.33 1531.6 Q2293.33 1522.85 2296.38 1518.27 Q2299.46 1513.66 2305.27 1513.66 Z" fill="#000000" fill-rule="nonzero" fill-opacity="1" /><path clip-path="url(#clip990)" d="M2335.43 1517.37 Q2331.82 1517.37 2329.99 1520.93 Q2328.19 1524.47 2328.19 1531.6 Q2328.19 1538.71 2329.99 1542.27 Q2331.82 1545.82 2335.43 1545.82 Q2339.07 1545.82 2340.87 1542.27 Q2342.7 1538.71 2342.7 1531.6 Q2342.7 1524.47 2340.87 1520.93 Q2339.07 1517.37 2335.43 1517.37 M2335.43 1513.66 Q2341.24 1513.66 2344.3 1518.27 Q2347.38 1522.85 2347.38 1531.6 Q2347.38 1540.33 2344.3 1544.94 Q2341.24 1549.52 2335.43 1549.52 Q2329.62 1549.52 2326.54 1544.94 Q2323.49 1540.33 2323.49 1531.6 Q2323.49 1522.85 2326.54 1518.27 Q2329.62 1513.66 2335.43 1513.66 Z" fill="#000000" fill-rule="nonzero" fill-opacity="1" /><polyline clip-path="url(#clip990)" style="stroke:#000000; stroke-linecap:round; stroke-linejoin:round; stroke-width:4; stroke-opacity:1; fill:none" points="178.867,1486.45 178.867,847.244 "/>
<polyline clip-path="url(#clip990)" style="stroke:#000000; stroke-linecap:round; stroke-linejoin:round; stroke-width:4; stroke-opacity:1; fill:none" points="178.867,1486.45 197.764,1486.45 "/>
<polyline clip-path="url(#clip990)" style="stroke:#000000; stroke-linecap:round; stroke-linejoin:round; stroke-width:4; stroke-opacity:1; fill:none" points="178.867,1326.65 197.764,1326.65 "/>
<polyline clip-path="url(#clip990)" style="stroke:#000000; stroke-linecap:round; stroke-linejoin:round; stroke-width:4; stroke-opacity:1; fill:none" points="178.867,1166.85 197.764,1166.85 "/>
<polyline clip-path="url(#clip990)" style="stroke:#000000; stroke-linecap:round; stroke-linejoin:round; stroke-width:4; stroke-opacity:1; fill:none" points="178.867,1007.05 197.764,1007.05 "/>
<polyline clip-path="url(#clip990)" style="stroke:#000000; stroke-linecap:round; stroke-linejoin:round; stroke-width:4; stroke-opacity:1; fill:none" points="178.867,847.244 197.764,847.244 "/>
<path clip-path="url(#clip990)" d="M50.9921 1486.9 L80.6679 1486.9 L80.6679 1490.83 L50.9921 1490.83 L50.9921 1486.9 Z" fill="#000000" fill-rule="nonzero" fill-opacity="1" /><path clip-path="url(#clip990)" d="M91.5706 1499.79 L99.2095 1499.79 L99.2095 1473.43 L90.8993 1475.09 L90.8993 1470.83 L99.1632 1469.17 L103.839 1469.17 L103.839 1499.79 L111.478 1499.79 L111.478 1503.73 L91.5706 1503.73 L91.5706 1499.79 Z" fill="#000000" fill-rule="nonzero" fill-opacity="1" /><path clip-path="url(#clip990)" d="M130.922 1472.25 Q127.311 1472.25 125.482 1475.81 Q123.677 1479.35 123.677 1486.48 Q123.677 1493.59 125.482 1497.15 Q127.311 1500.7 130.922 1500.7 Q134.556 1500.7 136.362 1497.15 Q138.191 1493.59 138.191 1486.48 Q138.191 1479.35 136.362 1475.81 Q134.556 1472.25 130.922 1472.25 M130.922 1468.54 Q136.732 1468.54 139.788 1473.15 Q142.867 1477.73 142.867 1486.48 Q142.867 1495.21 139.788 1499.82 Q136.732 1504.4 130.922 1504.4 Q125.112 1504.4 122.033 1499.82 Q118.978 1495.21 118.978 1486.48 Q118.978 1477.73 122.033 1473.15 Q125.112 1468.54 130.922 1468.54 Z" fill="#000000" fill-rule="nonzero" fill-opacity="1" /><path clip-path="url(#clip990)" d="M82.1494 1327.1 L111.825 1327.1 L111.825 1331.03 L82.1494 1331.03 L82.1494 1327.1 Z" fill="#000000" fill-rule="nonzero" fill-opacity="1" /><path clip-path="url(#clip990)" d="M121.964 1309.37 L140.32 1309.37 L140.32 1313.3 L126.246 1313.3 L126.246 1321.77 Q127.265 1321.43 128.283 1321.27 Q129.302 1321.08 130.32 1321.08 Q136.107 1321.08 139.487 1324.25 Q142.867 1327.42 142.867 1332.84 Q142.867 1338.42 139.394 1341.52 Q135.922 1344.6 129.603 1344.6 Q127.427 1344.6 125.158 1344.23 Q122.913 1343.86 120.506 1343.12 L120.506 1338.42 Q122.589 1339.55 124.811 1340.11 Q127.033 1340.66 129.51 1340.66 Q133.515 1340.66 135.853 1338.56 Q138.191 1336.45 138.191 1332.84 Q138.191 1329.23 135.853 1327.12 Q133.515 1325.01 129.51 1325.01 Q127.635 1325.01 125.76 1325.43 Q123.908 1325.85 121.964 1326.73 L121.964 1309.37 Z" fill="#000000" fill-rule="nonzero" fill-opacity="1" /><path clip-path="url(#clip990)" d="M130.922 1152.64 Q127.311 1152.64 125.482 1156.21 Q123.677 1159.75 123.677 1166.88 Q123.677 1173.99 125.482 1177.55 Q127.311 1181.09 130.922 1181.09 Q134.556 1181.09 136.362 1177.55 Q138.191 1173.99 138.191 1166.88 Q138.191 1159.75 136.362 1156.21 Q134.556 1152.64 130.922 1152.64 M130.922 1148.94 Q136.732 1148.94 139.788 1153.55 Q142.867 1158.13 142.867 1166.88 Q142.867 1175.61 139.788 1180.21 Q136.732 1184.8 130.922 1184.8 Q125.112 1184.8 122.033 1180.21 Q118.978 1175.61 118.978 1166.88 Q118.978 1158.13 122.033 1153.55 Q125.112 1148.94 130.922 1148.94 Z" fill="#000000" fill-rule="nonzero" fill-opacity="1" /><path clip-path="url(#clip990)" d="M121.964 989.765 L140.32 989.765 L140.32 993.7 L126.246 993.7 L126.246 1002.17 Q127.265 1001.83 128.283 1001.66 Q129.302 1001.48 130.32 1001.48 Q136.107 1001.48 139.487 1004.65 Q142.867 1007.82 142.867 1013.24 Q142.867 1018.82 139.394 1021.92 Q135.922 1025 129.603 1025 Q127.427 1025 125.158 1024.63 Q122.913 1024.26 120.506 1023.51 L120.506 1018.82 Q122.589 1019.95 124.811 1020.51 Q127.033 1021.06 129.51 1021.06 Q133.515 1021.06 135.853 1018.95 Q138.191 1016.85 138.191 1013.24 Q138.191 1009.63 135.853 1007.52 Q133.515 1005.41 129.51 1005.41 Q127.635 1005.41 125.76 1005.83 Q123.908 1006.25 121.964 1007.13 L121.964 989.765 Z" fill="#000000" fill-rule="nonzero" fill-opacity="1" /><path clip-path="url(#clip990)" d="M91.5706 860.589 L99.2095 860.589 L99.2095 834.223 L90.8993 835.89 L90.8993 831.631 L99.1632 829.964 L103.839 829.964 L103.839 860.589 L111.478 860.589 L111.478 864.524 L91.5706 864.524 L91.5706 860.589 Z" fill="#000000" fill-rule="nonzero" fill-opacity="1" /><path clip-path="url(#clip990)" d="M130.922 833.043 Q127.311 833.043 125.482 836.608 Q123.677 840.149 123.677 847.279 Q123.677 854.385 125.482 857.95 Q127.311 861.492 130.922 861.492 Q134.556 861.492 136.362 857.95 Q138.191 854.385 138.191 847.279 Q138.191 840.149 136.362 836.608 Q134.556 833.043 130.922 833.043 M130.922 829.339 Q136.732 829.339 139.788 833.946 Q142.867 838.529 142.867 847.279 Q142.867 856.006 139.788 860.612 Q136.732 865.195 130.922 865.195 Q125.112 865.195 122.033 860.612 Q118.978 856.006 118.978 847.279 Q118.978 838.529 122.033 833.946 Q125.112 829.339 130.922 829.339 Z" fill="#000000" fill-rule="nonzero" fill-opacity="1" /><polyline clip-path="url(#clip993)" style="stroke:#009af9; stroke-linecap:round; stroke-linejoin:round; stroke-width:4; stroke-opacity:1; fill:none" points="240.392,1134.89 242.445,1154.69 244.498,1166.82 246.55,1105.51 248.603,1178.16 250.656,1065.5 252.709,1065.82 254.762,1180.12 256.815,1151.95 258.868,1173.65 260.921,1158.39 262.974,1161.83 265.027,1162.59 267.079,1167.16 269.132,1180.99 271.185,1184.2 273.238,1178.41 275.291,1103.29 277.344,1217.24 279.397,1181.28 281.45,1133.59 283.503,1156.28 285.555,1152.17 287.608,1135.72 289.661,1147.43 291.714,1155.13 293.767,1168.46 295.82,1165.26 297.873,1149.29 299.926,1150.64 301.979,1193.69 304.031,1177.55 306.084,1169.92 308.137,1185.4 310.19,1168.29 312.243,1170.76 314.296,1189.66 316.349,1173.31 318.402,1159.83 320.455,1154.54 322.507,1129.47 324.56,1195.2 326.613,1173.29 328.666,564.899 330.719,1128.76 332.772,2930.73 334.825,-620.359 336.878,1169.29 338.931,1416.87 340.984,1224.31 343.036,1093.75 345.089,1118.81 347.142,1236.92 349.195,1213.28 351.248,1192.24 353.301,1145.29 355.354,1182.74 357.407,1231.08 359.46,1372.78 361.512,1401.44 363.565,-3105.84 365.618,5523.24 367.671,1749.14 369.724,532.051 371.777,1403.53 373.83,297.619 375.883,700.434 377.936,482.091 379.988,1234.43 382.041,1364.44 384.094,1523.59 386.147,1574.7 388.2,1113.57 390.253,1286.57 392.306,1311.55 394.359,283.365 396.412,1588.58 398.464,611.532 400.517,986.019 402.57,1364.41 404.623,1147.36 406.676,1168.1 408.729,1153.79 410.782,1168.71 412.835,1167.8 414.888,1167.59 416.94,1152.3 418.993,1180.35 421.046,1178 423.099,1133.15 425.152,1174.27 427.205,1157.28 429.258,1150.75 431.311,1198.2 433.364,1146.83 435.417,1134.77 437.469,1099.46 439.522,1228.56 441.575,454.895 443.628,2818.44 445.681,3767.03 447.734,1645.9 449.787,678.992 451.84,1644.95 453.893,1873.7 455.945,968.858 457.998,1324.23 460.051,587.199 462.104,989.293 464.157,1141.95 466.21,1045.52 468.263,1117.96 470.316,1067.69 472.369,1157.06 474.421,1176.3 476.474,1148.68 478.527,1176.17 480.58,1155.83 482.633,1175.55 484.686,1144 486.739,1166.84 488.792,1171.77 490.845,1133.84 492.897,1040.41 494.95,993.237 497.003,1106.25 499.056,1078.05 501.109,1113.25 503.162,1187.96 505.215,1201.04 507.268,1168.26 509.321,1180.9 511.374,1144.88 513.426,1151.15 515.479,1159.78 517.532,1194.18 519.585,1178.3 521.638,1176.97 523.691,1189.92 525.744,1220.24 527.797,1103.49 529.85,1162.03 531.902,1134.6 533.955,1150.53 536.008,1155.61 538.061,1142.7 540.114,1158.44 542.167,1200.75 544.22,1126.59 546.273,1114.5 548.326,1087.86 550.378,1067.53 552.431,1235.62 554.484,1255.36 556.537,1176.86 558.59,1196.8 560.643,1159.55 562.696,1169.78 564.749,1134.72 566.802,1134.67 568.854,1285.6 570.907,1099.52 572.96,1097.84 575.013,1142.74 577.066,1217.98 579.119,1189.89 581.172,1091.66 583.225,1158.54 585.278,1152.73 587.331,1154.56 589.383,1164.8 591.436,1143.64 593.489,1156.08 595.542,1183.41 597.595,1289.41 599.648,1266.15 601.701,1180.08 603.754,1150.7 605.807,1229.79 607.859,1120.27 609.912,1125.62 611.965,1139.34 614.018,1178.47 616.071,1069.13 618.124,1116.99 620.177,1100.75 622.23,1146.79 624.283,1162.97 626.335,1192.69 628.388,1171.22 630.441,1174.66 632.494,1204.12 634.547,1171.75 636.6,1169.76 638.653,1155.1 640.706,1140.62 642.759,1113.76 644.811,1143.73 646.864,1141.3 648.917,1179.19 650.97,1136.16 653.023,1176.63 655.076,1149.98 657.129,1073.97 659.182,1150.86 661.235,1196.04 663.288,1157.07 665.34,1190.7 667.393,1150.15 669.446,1189.3 671.499,1169.59 673.552,1168.05 675.605,1129.04 677.658,1171.23 679.711,1141.48 681.764,1129.89 683.816,1171.62 685.869,1176.72 687.922,1181.33 689.975,1163.61 692.028,1133.63 694.081,1136.21 696.134,1202.07 698.187,1214.64 700.24,1213.64 702.292,1136.42 704.345,1079.82 706.398,1308.02 708.451,1160.18 710.504,1164.1 712.557,1209.86 714.61,1255.52 716.663,1037.58 718.716,933.158 720.768,1178.91 722.821,800.697 724.874,793.643 726.927,988.504 728.98,483.778 731.033,1177.24 733.086,1187.89 735.139,1147.26 737.192,1108.31 739.245,1185.31 741.297,1233.59 743.35,1259.58 745.403,1318.09 747.456,1240.16 749.509,1130.92 751.562,1157.73 753.615,1164.3 755.668,1176.14 757.721,1158.27 759.773,1185.5 761.826,1205.82 763.879,1151.51 765.932,1137.7 767.985,1172.29 770.038,1185.37 772.091,1159.83 774.144,1162.45 776.197,1159.93 778.249,1159.14 780.302,1153.37 782.355,1187.56 784.408,1182.57 786.461,1207.02 788.514,1191.63 790.567,1145.89 792.62,1137.17 794.673,1117.56 796.725,1166.41 798.778,1203.1 800.831,1168.77 802.884,1171.73 804.937,1147.99 806.99,1168.87 809.043,1166.25 811.096,1205.93 813.149,1250.11 815.202,1285.54 817.254,907.167 819.307,1404.48 821.36,1348.87 823.413,1150.01 825.466,1243.42 827.519,1135.63 829.572,1209.91 831.625,1184.77 833.678,1079.55 835.73,1154.03 837.783,1107.68 839.836,1144.8 841.889,1202.67 843.942,1123.61 845.995,1188.17 848.048,1275.38 850.101,1177.44 852.154,1157.1 854.206,1216.33 856.259,1156.8 858.312,83.8625 860.365,2551.53 862.418,1815.41 864.471,1188.27 866.524,1157.39 868.577,1163.35 870.63,1126.87 872.682,1145.44 874.735,1132.29 876.788,1249.23 878.841,1072.03 880.894,1141.1 882.947,1243.44 885,1280.26 887.053,1154.9 889.106,1173.9 891.159,1156.84 893.211,1181.27 895.264,1203.43 897.317,1120.61 899.37,1152.72 901.423,1180.82 903.476,1093.57 905.529,1182.96 907.582,1009.04 909.635,1266.06 911.687,1156.88 913.74,1192.63 915.793,1176.68 917.846,1140.75 919.899,1212.28 921.952,1134.07 924.005,1151.56 926.058,1163.46 928.111,1128.19 930.163,1432.65 932.216,1143.28 934.269,1176.12 936.322,1130.35 938.375,1200.66 940.428,1151.98 942.481,1154.5 944.534,1168.26 946.587,1189.38 948.639,1127.81 950.692,1165.1 952.745,1170.84 954.798,1156.05 956.851,1185.25 958.904,1155.38 960.957,1180.18 963.01,1189 965.063,1170.73 967.116,1159.03 969.168,1157.34 971.221,1228.42 973.274,1347.36 975.327,1174.53 977.38,1174.89 979.433,1170.81 981.486,1141.32 983.539,1195.89 985.592,1201.58 987.644,1201.9 989.697,1128.23 991.75,1193.49 993.803,1098.21 995.856,1251.42 997.909,1268.03 999.962,1403.5 1002.01,1070.45 1004.07,1218.12 1006.12,1214.62 1008.17,1121.14 1010.23,1174.08 1012.28,1173.29 1014.33,1138.78 1016.38,1144.16 1018.44,1174.48 1020.49,1181.96 1022.54,1113.66 1024.6,1317.05 1026.65,1298.69 1028.7,1054.5 1030.76,1304.31 1032.81,941.833 1034.86,1125.63 1036.91,1152.48 1038.97,1322.54 1041.02,994.772 1043.07,1548.35 1045.13,1245.04 1047.18,993.778 1049.23,990.842 1051.28,681.679 1053.34,1774.99 1055.39,1243.48 1057.44,1240.52 1059.5,2150.22 1061.55,1592.7 1063.6,-539.424 1065.65,5024.21 1067.71,13541.9 1069.76,42003.7 1071.81,51106.5 1073.87,-20752 1075.92,13866.5 1077.97,49714.9 1080.02,25776.5 1082.08,-1365.91 1084.13,2976.44 1086.18,4296.12 1088.24,28870.4 1090.29,-5088.62 1092.34,874.444 1094.39,1141.94 1096.45,1137.58 1098.5,1185.43 1100.55,1089.97 1102.61,1078.56 1104.66,1108.97 1106.71,898.818 1108.77,923.869 1110.82,1251.9 1112.87,1228.79 1114.92,1122.49 1116.98,1178.98 1119.03,1127.91 1121.08,1199.84 1123.14,1152.7 1125.19,1177.07 1127.24,1221.02 1129.29,1223.53 1131.35,1190.04 1133.4,1062.58 1135.45,1167.36 1137.51,1169.77 1139.56,1194.7 1141.61,1150.79 1143.66,1214.41 1145.72,1184.97 1147.77,1161.31 1149.82,1203.26 1151.88,1174.47 1153.93,1159.95 1155.98,929.152 1158.03,1229.16 1160.09,1074.9 1162.14,1121.37 1164.19,1102.28 1166.25,965.251 1168.3,1465.45 1170.35,1257.26 1172.4,1012.2 1174.46,728.456 1176.51,1191.61 1178.56,1186.38 1180.62,1153.07 1182.67,1170.15 1184.72,1164.66 1186.77,1131.39 1188.83,1128.47 1190.88,1161.79 1192.93,1157.07 1194.99,1148.92 1197.04,1159.06 1199.09,1155.74 1201.15,1160.75 1203.2,1246.39 1205.25,1142.98 1207.3,1145.27 1209.36,1210.9 1211.41,1019.56 1213.46,1162.25 1215.52,1233.51 1217.57,1073.72 1219.62,1158.51 1221.67,1069.1 1223.73,1247.83 1225.78,1441.25 1227.83,1358.57 1229.89,1576.64 1231.94,990.721 1233.99,1605.81 1236.04,1339.71 1238.1,1156.09 1240.15,1163.33 1242.2,1194.77 1244.26,1188.01 1246.31,1094.69 1248.36,1080.68 1250.41,1230.42 1252.47,1098.04 1254.52,1165.05 1256.57,1179.72 1258.63,1150.34 1260.68,1257.94 1262.73,1129.28 1264.78,1136.12 1266.84,1177.77 1268.89,1199.59 1270.94,1205.83 1273,972.719 1275.05,1419.18 1277.1,1164.6 1279.16,1170.39 1281.21,1135.16 1283.26,1496.04 1285.31,1036.38 1287.37,1240.76 1289.42,1093.75 1291.47,1267.54 1293.53,1009.2 1295.58,1117.49 1297.63,1135.27 1299.68,1196.63 1301.74,1190.53 1303.79,1183.25 1305.84,1178.69 1307.9,1182.45 1309.95,1153.83 1312,1047.43 1314.05,1283.14 1316.11,1208.46 1318.16,1269.9 1320.21,1210.67 1322.27,1211.15 1324.32,1109.7 1326.37,1232.8 1328.42,1055.56 1330.48,1262.73 1332.53,1186.9 1334.58,1115.7 1336.64,1173.79 1338.69,1209.88 1340.74,1159.63 1342.79,1245.85 1344.85,1186.08 1346.9,1198.15 1348.95,1281.1 1351.01,1115.25 1353.06,959.777 1355.11,1198.55 1357.16,1207.93 1359.22,1149.79 1361.27,1132.35 1363.32,1186.71 1365.38,1100.24 1367.43,1115.53 1369.48,1183.3 1371.54,1175.64 1373.59,1175.91 1375.64,1160.33 1377.69,1157.21 1379.75,1152.26 1381.8,1176.14 1383.85,1120.67 1385.91,1085.02 1387.96,1181.35 1390.01,1202.1 1392.06,1179.04 1394.12,1200.46 1396.17,1306.52 1398.22,1163.58 1400.28,1174.29 1402.33,1160.4 1404.38,1132.53 1406.43,1212.26 1408.49,1033.32 1410.54,1250.68 1412.59,1121.43 1414.65,1270.46 1416.7,1164.28 1418.75,1167.42 1420.8,1156.19 1422.86,1190.63 1424.91,1144.94 1426.96,1218.41 1429.02,1165.34 1431.07,1211.56 1433.12,1176.03 1435.17,1160.5 1437.23,1165.02 1439.28,1165.48 1441.33,1157.06 1443.39,1117.42 1445.44,1128.27 1447.49,1180.26 1449.55,1170.53 1451.6,1386.64 1453.65,1111.95 1455.7,1148.28 1457.76,1223.86 1459.81,1221.17 1461.86,1248.9 1463.92,1152.66 1465.97,1226.68 1468.02,1185.61 1470.07,1203.72 1472.13,1191.74 1474.18,1135.16 1476.23,1112.81 1478.29,1143.12 1480.34,1143.3 1482.39,1094.3 1484.44,1315.8 1486.5,1118.09 1488.55,1191.89 1490.6,1175.33 1492.66,1264.75 1494.71,1087.29 1496.76,1153.15 1498.81,1180.01 1500.87,1186.53 1502.92,1191.98 1504.97,1197.79 1507.03,1149.84 1509.08,1154.75 1511.13,1171.12 1513.18,1164.36 1515.24,1110.56 1517.29,1085.1 1519.34,1269.58 1521.4,1182.18 1523.45,1127.68 1525.5,1146.59 1527.55,1224.58 1529.61,1178.67 1531.66,1051.04 1533.71,1137.94 1535.77,1196.22 1537.82,1176.35 1539.87,1183.03 1541.93,1136.63 1543.98,1144.28 1546.03,1161.84 1548.08,1157.03 1550.14,1185.87 1552.19,1178.97 1554.24,1166.44 1556.3,1165.08 1558.35,1164.55 1560.4,1164.81 1562.45,1175.16 1564.51,1184.44 1566.56,1142.62 1568.61,1256.43 1570.67,1182.08 1572.72,1200.46 1574.77,1143.04 1576.82,1191.14 1578.88,1193.96 1580.93,1127.49 1582.98,1130.31 1585.04,1137.23 1587.09,1199.96 1589.14,1149.82 1591.19,1123.17 1593.25,1224.25 1595.3,1236.32 1597.35,1206.87 1599.41,1192.16 1601.46,1149.9 1603.51,1156.57 1605.56,1173.78 1607.62,1134.26 1609.67,1151.63 1611.72,1167.81 1613.78,1168.91 1615.83,1163.35 1617.88,1203.89 1619.94,1083.26 1621.99,1156.01 1624.04,1207.42 1626.09,1151.67 1628.15,1114.58 1630.2,1098.93 1632.25,1065.93 1634.31,1365.36 1636.36,1166.51 1638.41,1166.86 1640.46,1155.57 1642.52,250.187 1644.57,2717.55 1646.62,3795.43 1648.68,1789.09 1650.73,997.283 1652.78,1008.33 1654.83,1298.37 1656.89,1300.33 1658.94,1168.81 1660.99,1166.64 1663.05,1190.5 1665.1,1149.63 1667.15,1272.54 1669.2,973.956 1671.26,1307.44 1673.31,1071.4 1675.36,1103.62 1677.42,1183.9 1679.47,1220.59 1681.52,494.019 1683.57,565.312 1685.63,749.347 1687.68,1309.17 1689.73,1300.71 1691.79,1195.75 1693.84,1174.91 1695.89,1165.07 1697.94,1166.32 1700,1094.51 1702.05,1198.86 1704.1,1164.06 1706.16,1223.11 1708.21,1300.03 1710.26,957.796 1712.32,1217.01 1714.37,1165.85 1716.42,1138.2 1718.47,1029.88 1720.53,1021.54 1722.58,1230.12 1724.63,1096.2 1726.69,1264.56 1728.74,1322.29 1730.79,1219.7 1732.84,1184.29 1734.9,1198.38 1736.95,1230.14 1739,1161.02 1741.06,1168.36 1743.11,1199.27 1745.16,1097.49 1747.21,1370.08 1749.27,1596.36 1751.32,3859.16 1753.37,1396.22 1755.43,1229.63 1757.48,1157.97 1759.53,1146.42 1761.58,1147.09 1763.64,1136.09 1765.69,1157.48 1767.74,1126.69 1769.8,1162.44 1771.85,1156.39 1773.9,1184.39 1775.95,1170.95 1778.01,1151.85 1780.06,1231.12 1782.11,1053.52 1784.17,1226.81 1786.22,1200.45 1788.27,1166.7 1790.33,1174.59 1792.38,1166.35 1794.43,1125.33 1796.48,1199.44 1798.54,1077.59 1800.59,1341.73 1802.64,1162.94 1804.7,1176.98 1806.75,1158.77 1808.8,1127.48 1810.85,1151.04 1812.91,1210.61 1814.96,1358.2 1817.01,1144.1 1819.07,1159.16 1821.12,1225.25 1823.17,1239.13 1825.22,1205.25 1827.28,1164.3 1829.33,1141.45 1831.38,1146.79 1833.44,1180.08 1835.49,1163.4 1837.54,1130.8 1839.59,1177.54 1841.65,1121.96 1843.7,1258.49 1845.75,1119.07 1847.81,1193.43 1849.86,1200.94 1851.91,1214.92 1853.96,1128.63 1856.02,1229.78 1858.07,1122.37 1860.12,1166.65 1862.18,1161.14 1864.23,1172.33 1866.28,1209.3 1868.34,1080.86 1870.39,1394.81 1872.44,1150.74 1874.49,1833.86 1876.55,1411.75 1878.6,1157.23 1880.65,1169.03 1882.71,1175.17 1884.76,1157.16 1886.81,1240.75 1888.86,1312.78 1890.92,1135.85 1892.97,1104.5 1895.02,1180.45 1897.08,1362.72 1899.13,1433.84 1901.18,410.365 1903.23,503.344 1905.29,414.815 1907.34,3402.15 1909.39,1458.35 1911.45,843.452 1913.5,1157.91 1915.55,1174.06 1917.6,1176.68 1919.66,1171.84 1921.71,1171.09 1923.76,1164.9 1925.82,1118.37 1927.87,1240.98 1929.92,1094.33 1931.97,1154.35 1934.03,1115.24 1936.08,1036.51 1938.13,1161.77 1940.19,1233.61 1942.24,1067.06 1944.29,1190.51 1946.34,1132.4 1948.4,1182.59 1950.45,1159.16 1952.5,1176.91 1954.56,1201.33 1956.61,1191.83 1958.66,1177.97 1960.72,1162.12 1962.77,1120.26 1964.82,1187.45 1966.87,1228.71 1968.93,1156.61 1970.98,1145.55 1973.03,1198.18 1975.09,1137.83 1977.14,1120.36 1979.19,1122.11 1981.24,1161.21 1983.3,1173.06 1985.35,1190.84 1987.4,1185.99 1989.46,1082.07 1991.51,1176.45 1993.56,1155.91 1995.61,1171.25 1997.67,1170.68 1999.72,1151.37 2001.77,1169.27 2003.83,1169.52 2005.88,1161.17 2007.93,1158.51 2009.98,1070.17 2012.04,1068.13 2014.09,1200.66 2016.14,1138.59 2018.2,1197.25 2020.25,1190.62 2022.3,1148.32 2024.35,1156.27 2026.41,1173.54 2028.46,1166.41 2030.51,1137.96 2032.57,1133.17 2034.62,1246.97 2036.67,1088.6 2038.73,1110.26 2040.78,1279.82 2042.83,994.418 2044.88,1161.56 2046.94,1265.19 2048.99,1351.48 2051.04,1973.82 2053.1,2395.14 2055.15,1261.03 2057.2,1474.63 2059.25,1731.08 2061.31,1514.51 2063.36,776.759 2065.41,1037.67 2067.47,1118.26 2069.52,1177.46 2071.57,1154.49 2073.62,1157.96 2075.68,1163.55 2077.73,1135.82 2079.78,1152.74 2081.84,1186.17 2083.89,1212.71 2085.94,1102.78 2087.99,1122.74 2090.05,1137.45 2092.1,1228.32 2094.15,1147.16 2096.21,1159.43 2098.26,1213.81 2100.31,1132.92 2102.36,1134.5 2104.42,1141.79 2106.47,1146.64 2108.52,1236.94 2110.58,1122.77 2112.63,1204.5 2114.68,1197.61 2116.73,1174.48 2118.79,1209.89 2120.84,1133.41 2122.89,1131.26 2124.95,1191.33 2127,1163.1 2129.05,1143.7 2131.11,1207.44 2133.16,1180.13 2135.21,1161.38 2137.26,1154.24 2139.32,1146.16 2141.37,1224.12 2143.42,1225.71 2145.48,1288.56 2147.53,649.784 2149.58,1125.12 2151.63,1225.36 2153.69,290.121 2155.74,541.408 2157.79,790.966 2159.85,1499.51 2161.9,1559.07 2163.95,1876.99 2166,561.788 2168.06,1673.02 2170.11,963.726 2172.16,1324.25 2174.22,1120.76 2176.27,1161.02 2178.32,1171.47 2180.37,1167.46 2182.43,1175.57 2184.48,1153.04 2186.53,1172.37 2188.59,1181.09 2190.64,1128.21 2192.69,1108.55 2194.74,1153.81 2196.8,1181.31 2198.85,1187.69 2200.9,1134.21 2202.96,1159.38 2205.01,1205.37 2207.06,1166.52 2209.12,1179.28 2211.17,1178.42 2213.22,1218.17 2215.27,1125.49 2217.33,3357.29 2219.38,1186.8 2221.43,1180.28 2223.49,1184.51 2225.54,1130.7 2227.59,1205.58 2229.64,1182.93 2231.7,1152.32 2233.75,1094.4 2235.8,1261.03 2237.86,1129.44 2239.91,1215.61 2241.96,1274.08 2244.01,1207.08 2246.07,1205.37 2248.12,1159.54 2250.17,1170.01 2252.23,1182.6 2254.28,1246.59 2256.33,1174.36 2258.38,1162.78 2260.44,1124.56 2262.49,1033.39 2264.54,1157.33 2266.6,1032.1 2268.65,1220.1 2270.7,1122.56 2272.75,1067.89 2274.81,1414.57 2276.86,1113.29 2278.91,1221.63 2280.97,1307.11 2283.02,997.073 2285.07,1049.74 2287.12,1107.35 2289.18,1124.62 2291.23,1240.5 "/>
<path clip-path="url(#clip990)" d="M1942.7 972.231 L2280.29 972.231 L2280.29 868.551 L1942.7 868.551  Z" fill="#ffffff" fill-rule="evenodd" fill-opacity="1"/>
<polyline clip-path="url(#clip990)" style="stroke:#000000; stroke-linecap:round; stroke-linejoin:round; stroke-width:4; stroke-opacity:1; fill:none" points="1942.7,972.231 2280.29,972.231 2280.29,868.551 1942.7,868.551 1942.7,972.231 "/>
<polyline clip-path="url(#clip990)" style="stroke:#009af9; stroke-linecap:round; stroke-linejoin:round; stroke-width:4; stroke-opacity:1; fill:none" points="1966.85,920.391 2111.78,920.391 "/>
<path clip-path="url(#clip990)" d="M2161.49 932.74 L2161.49 923.458 L2153.85 923.458 L2153.85 919.615 L2166.12 919.615 L2166.12 934.453 Q2163.41 936.375 2160.14 937.37 Q2156.88 938.342 2153.18 938.342 Q2145.07 938.342 2140.49 933.62 Q2135.93 928.875 2135.93 920.426 Q2135.93 911.953 2140.49 907.231 Q2145.07 902.486 2153.18 902.486 Q2156.56 902.486 2159.59 903.319 Q2162.64 904.153 2165.21 905.773 L2165.21 910.75 Q2162.62 908.551 2159.7 907.44 Q2156.79 906.328 2153.57 906.328 Q2147.23 906.328 2144.03 909.87 Q2140.86 913.412 2140.86 920.426 Q2140.86 927.416 2144.03 930.958 Q2147.23 934.5 2153.57 934.5 Q2156.05 934.5 2157.99 934.083 Q2159.94 933.643 2161.49 932.74 Z" fill="#000000" fill-rule="nonzero" fill-opacity="1" /><path clip-path="url(#clip990)" d="M2179.33 906.953 L2179.33 919.94 L2185.21 919.94 Q2188.48 919.94 2190.26 918.25 Q2192.04 916.56 2192.04 913.435 Q2192.04 910.333 2190.26 908.643 Q2188.48 906.953 2185.21 906.953 L2179.33 906.953 M2174.66 903.111 L2185.21 903.111 Q2191.02 903.111 2193.99 905.75 Q2196.97 908.365 2196.97 913.435 Q2196.97 918.551 2193.99 921.166 Q2191.02 923.782 2185.21 923.782 L2179.33 923.782 L2179.33 937.671 L2174.66 937.671 L2174.66 903.111 Z" fill="#000000" fill-rule="nonzero" fill-opacity="1" /><path clip-path="url(#clip990)" d="M2223.96 904.245 L2223.96 908.805 Q2221.3 907.532 2218.94 906.907 Q2216.58 906.282 2214.38 906.282 Q2210.56 906.282 2208.48 907.764 Q2206.42 909.245 2206.42 911.977 Q2206.42 914.268 2207.78 915.449 Q2209.17 916.606 2213.01 917.324 L2215.84 917.902 Q2221.07 918.898 2223.55 921.421 Q2226.05 923.921 2226.05 928.134 Q2226.05 933.157 2222.67 935.75 Q2219.31 938.342 2212.81 938.342 Q2210.35 938.342 2207.57 937.787 Q2204.82 937.231 2201.86 936.143 L2201.86 931.328 Q2204.7 932.926 2207.44 933.736 Q2210.17 934.546 2212.81 934.546 Q2216.81 934.546 2218.99 932.972 Q2221.16 931.398 2221.16 928.481 Q2221.16 925.935 2219.59 924.5 Q2218.04 923.064 2214.47 922.347 L2211.62 921.791 Q2206.39 920.75 2204.06 918.527 Q2201.72 916.305 2201.72 912.347 Q2201.72 907.764 2204.94 905.125 Q2208.18 902.486 2213.85 902.486 Q2216.28 902.486 2218.8 902.926 Q2221.32 903.366 2223.96 904.245 Z" fill="#000000" fill-rule="nonzero" fill-opacity="1" /><path clip-path="url(#clip990)" d="M2254.06 904.245 L2254.06 908.805 Q2251.39 907.532 2249.03 906.907 Q2246.67 906.282 2244.47 906.282 Q2240.65 906.282 2238.57 907.764 Q2236.51 909.245 2236.51 911.977 Q2236.51 914.268 2237.87 915.449 Q2239.26 916.606 2243.11 917.324 L2245.93 917.902 Q2251.16 918.898 2253.64 921.421 Q2256.14 923.921 2256.14 928.134 Q2256.14 933.157 2252.76 935.75 Q2249.4 938.342 2242.9 938.342 Q2240.44 938.342 2237.67 937.787 Q2234.91 937.231 2231.95 936.143 L2231.95 931.328 Q2234.8 932.926 2237.53 933.736 Q2240.26 934.546 2242.9 934.546 Q2246.9 934.546 2249.08 932.972 Q2251.25 931.398 2251.25 928.481 Q2251.25 925.935 2249.68 924.5 Q2248.13 923.064 2244.56 922.347 L2241.72 921.791 Q2236.49 920.75 2234.15 918.527 Q2231.81 916.305 2231.81 912.347 Q2231.81 907.764 2235.03 905.125 Q2238.27 902.486 2243.94 902.486 Q2246.37 902.486 2248.89 902.926 Q2251.42 903.366 2254.06 904.245 Z" fill="#000000" fill-rule="nonzero" fill-opacity="1" /></svg>
