<?xml version="1.0" encoding="utf-8"?>
<svg xmlns="http://www.w3.org/2000/svg" xmlns:xlink="http://www.w3.org/1999/xlink" width="600" height="400" viewBox="0 0 2400 1600">
<defs>
  <clipPath id="clip860">
    <rect x="0" y="0" width="2400" height="1600"/>
  </clipPath>
</defs>
<path clip-path="url(#clip860)" d="M0 1600 L2400 1600 L2400 0 L0 0  Z" fill="#ffffff" fill-rule="evenodd" fill-opacity="1"/>
<defs>
  <clipPath id="clip861">
    <rect x="480" y="0" width="1681" height="1600"/>
  </clipPath>
</defs>
<path clip-path="url(#clip860)" d="M186.274 1486.45 L2352.76 1486.45 L2352.76 47.2441 L186.274 47.2441  Z" fill="#ffffff" fill-rule="evenodd" fill-opacity="1"/>
<defs>
  <clipPath id="clip862">
    <rect x="186" y="47" width="2167" height="1440"/>
  </clipPath>
</defs>
<polyline clip-path="url(#clip862)" style="stroke:#000000; stroke-linecap:round; stroke-linejoin:round; stroke-width:2; stroke-opacity:0.1; fill:none" points="247.59,1486.45 247.59,47.2441 "/>
<polyline clip-path="url(#clip862)" style="stroke:#000000; stroke-linecap:round; stroke-linejoin:round; stroke-width:2; stroke-opacity:0.1; fill:none" points="758.552,1486.45 758.552,47.2441 "/>
<polyline clip-path="url(#clip862)" style="stroke:#000000; stroke-linecap:round; stroke-linejoin:round; stroke-width:2; stroke-opacity:0.1; fill:none" points="1269.51,1486.45 1269.51,47.2441 "/>
<polyline clip-path="url(#clip862)" style="stroke:#000000; stroke-linecap:round; stroke-linejoin:round; stroke-width:2; stroke-opacity:0.1; fill:none" points="1780.48,1486.45 1780.48,47.2441 "/>
<polyline clip-path="url(#clip862)" style="stroke:#000000; stroke-linecap:round; stroke-linejoin:round; stroke-width:2; stroke-opacity:0.1; fill:none" points="2291.44,1486.45 2291.44,47.2441 "/>
<polyline clip-path="url(#clip860)" style="stroke:#000000; stroke-linecap:round; stroke-linejoin:round; stroke-width:4; stroke-opacity:1; fill:none" points="186.274,1486.45 2352.76,1486.45 "/>
<polyline clip-path="url(#clip860)" style="stroke:#000000; stroke-linecap:round; stroke-linejoin:round; stroke-width:4; stroke-opacity:1; fill:none" points="247.59,1486.45 247.59,1467.55 "/>
<polyline clip-path="url(#clip860)" style="stroke:#000000; stroke-linecap:round; stroke-linejoin:round; stroke-width:4; stroke-opacity:1; fill:none" points="758.552,1486.45 758.552,1467.55 "/>
<polyline clip-path="url(#clip860)" style="stroke:#000000; stroke-linecap:round; stroke-linejoin:round; stroke-width:4; stroke-opacity:1; fill:none" points="1269.51,1486.45 1269.51,1467.55 "/>
<polyline clip-path="url(#clip860)" style="stroke:#000000; stroke-linecap:round; stroke-linejoin:round; stroke-width:4; stroke-opacity:1; fill:none" points="1780.48,1486.45 1780.48,1467.55 "/>
<polyline clip-path="url(#clip860)" style="stroke:#000000; stroke-linecap:round; stroke-linejoin:round; stroke-width:4; stroke-opacity:1; fill:none" points="2291.44,1486.45 2291.44,1467.55 "/>
<path clip-path="url(#clip860)" d="M201.652 1532.02 L231.328 1532.02 L231.328 1535.95 L201.652 1535.95 L201.652 1532.02 Z" fill="#000000" fill-rule="nonzero" fill-opacity="1" /><path clip-path="url(#clip860)" d="M242.231 1544.91 L249.87 1544.91 L249.87 1518.55 L241.559 1520.21 L241.559 1515.95 L249.823 1514.29 L254.499 1514.29 L254.499 1544.91 L262.138 1544.91 L262.138 1548.85 L242.231 1548.85 L242.231 1544.91 Z" fill="#000000" fill-rule="nonzero" fill-opacity="1" /><path clip-path="url(#clip860)" d="M281.582 1517.37 Q277.971 1517.37 276.143 1520.93 Q274.337 1524.47 274.337 1531.6 Q274.337 1538.71 276.143 1542.27 Q277.971 1545.82 281.582 1545.82 Q285.217 1545.82 287.022 1542.27 Q288.851 1538.71 288.851 1531.6 Q288.851 1524.47 287.022 1520.93 Q285.217 1517.37 281.582 1517.37 M281.582 1513.66 Q287.393 1513.66 290.448 1518.27 Q293.527 1522.85 293.527 1531.6 Q293.527 1540.33 290.448 1544.94 Q287.393 1549.52 281.582 1549.52 Q275.772 1549.52 272.694 1544.94 Q269.638 1540.33 269.638 1531.6 Q269.638 1522.85 272.694 1518.27 Q275.772 1513.66 281.582 1513.66 Z" fill="#000000" fill-rule="nonzero" fill-opacity="1" /><path clip-path="url(#clip860)" d="M728.194 1532.02 L757.869 1532.02 L757.869 1535.95 L728.194 1535.95 L728.194 1532.02 Z" fill="#000000" fill-rule="nonzero" fill-opacity="1" /><path clip-path="url(#clip860)" d="M768.008 1514.29 L786.365 1514.29 L786.365 1518.22 L772.291 1518.22 L772.291 1526.7 Q773.309 1526.35 774.328 1526.19 Q775.346 1526 776.365 1526 Q782.152 1526 785.531 1529.17 Q788.911 1532.34 788.911 1537.76 Q788.911 1543.34 785.439 1546.44 Q781.966 1549.52 775.647 1549.52 Q773.471 1549.52 771.203 1549.15 Q768.957 1548.78 766.55 1548.04 L766.55 1543.34 Q768.633 1544.47 770.855 1545.03 Q773.078 1545.58 775.554 1545.58 Q779.559 1545.58 781.897 1543.48 Q784.235 1541.37 784.235 1537.76 Q784.235 1534.15 781.897 1532.04 Q779.559 1529.94 775.554 1529.94 Q773.679 1529.94 771.804 1530.35 Q769.953 1530.77 768.008 1531.65 L768.008 1514.29 Z" fill="#000000" fill-rule="nonzero" fill-opacity="1" /><path clip-path="url(#clip860)" d="M1269.51 1517.37 Q1265.9 1517.37 1264.08 1520.93 Q1262.27 1524.47 1262.27 1531.6 Q1262.27 1538.71 1264.08 1542.27 Q1265.9 1545.82 1269.51 1545.82 Q1273.15 1545.82 1274.95 1542.27 Q1276.78 1538.71 1276.78 1531.6 Q1276.78 1524.47 1274.95 1520.93 Q1273.15 1517.37 1269.51 1517.37 M1269.51 1513.66 Q1275.33 1513.66 1278.38 1518.27 Q1281.46 1522.85 1281.46 1531.6 Q1281.46 1540.33 1278.38 1544.94 Q1275.33 1549.52 1269.51 1549.52 Q1263.7 1549.52 1260.63 1544.94 Q1257.57 1540.33 1257.57 1531.6 Q1257.57 1522.85 1260.63 1518.27 Q1263.7 1513.66 1269.51 1513.66 Z" fill="#000000" fill-rule="nonzero" fill-opacity="1" /><path clip-path="url(#clip860)" d="M1770.76 1514.29 L1789.11 1514.29 L1789.11 1518.22 L1775.04 1518.22 L1775.04 1526.7 Q1776.06 1526.35 1777.07 1526.19 Q1778.09 1526 1779.11 1526 Q1784.9 1526 1788.28 1529.17 Q1791.66 1532.34 1791.66 1537.76 Q1791.66 1543.34 1788.19 1546.44 Q1784.71 1549.52 1778.39 1549.52 Q1776.22 1549.52 1773.95 1549.15 Q1771.7 1548.78 1769.3 1548.04 L1769.3 1543.34 Q1771.38 1544.47 1773.6 1545.03 Q1775.82 1545.58 1778.3 1545.58 Q1782.31 1545.58 1784.64 1543.48 Q1786.98 1541.37 1786.98 1537.76 Q1786.98 1534.15 1784.64 1532.04 Q1782.31 1529.94 1778.3 1529.94 Q1776.43 1529.94 1774.55 1530.35 Q1772.7 1530.77 1770.76 1531.65 L1770.76 1514.29 Z" fill="#000000" fill-rule="nonzero" fill-opacity="1" /><path clip-path="url(#clip860)" d="M2266.13 1544.91 L2273.77 1544.91 L2273.77 1518.55 L2265.46 1520.21 L2265.46 1515.95 L2273.72 1514.29 L2278.4 1514.29 L2278.4 1544.91 L2286.04 1544.91 L2286.04 1548.85 L2266.13 1548.85 L2266.13 1544.91 Z" fill="#000000" fill-rule="nonzero" fill-opacity="1" /><path clip-path="url(#clip860)" d="M2305.48 1517.37 Q2301.87 1517.37 2300.04 1520.93 Q2298.23 1524.47 2298.23 1531.6 Q2298.23 1538.71 2300.04 1542.27 Q2301.87 1545.82 2305.48 1545.82 Q2309.11 1545.82 2310.92 1542.27 Q2312.75 1538.71 2312.75 1531.6 Q2312.75 1524.47 2310.92 1520.93 Q2309.11 1517.37 2305.48 1517.37 M2305.48 1513.66 Q2311.29 1513.66 2314.35 1518.27 Q2317.42 1522.85 2317.42 1531.6 Q2317.42 1540.33 2314.35 1544.94 Q2311.29 1549.52 2305.48 1549.52 Q2299.67 1549.52 2296.59 1544.94 Q2293.54 1540.33 2293.54 1531.6 Q2293.54 1522.85 2296.59 1518.27 Q2299.67 1513.66 2305.48 1513.66 Z" fill="#000000" fill-rule="nonzero" fill-opacity="1" /><polyline clip-path="url(#clip862)" style="stroke:#000000; stroke-linecap:round; stroke-linejoin:round; stroke-width:2; stroke-opacity:0.1; fill:none" points="186.274,1445.72 2352.76,1445.72 "/>
<polyline clip-path="url(#clip862)" style="stroke:#000000; stroke-linecap:round; stroke-linejoin:round; stroke-width:2; stroke-opacity:0.1; fill:none" points="186.274,1202.39 2352.76,1202.39 "/>
<polyline clip-path="url(#clip862)" style="stroke:#000000; stroke-linecap:round; stroke-linejoin:round; stroke-width:2; stroke-opacity:0.1; fill:none" points="186.274,959.071 2352.76,959.071 "/>
<polyline clip-path="url(#clip862)" style="stroke:#000000; stroke-linecap:round; stroke-linejoin:round; stroke-width:2; stroke-opacity:0.1; fill:none" points="186.274,715.748 2352.76,715.748 "/>
<polyline clip-path="url(#clip862)" style="stroke:#000000; stroke-linecap:round; stroke-linejoin:round; stroke-width:2; stroke-opacity:0.1; fill:none" points="186.274,472.426 2352.76,472.426 "/>
<polyline clip-path="url(#clip862)" style="stroke:#000000; stroke-linecap:round; stroke-linejoin:round; stroke-width:2; stroke-opacity:0.1; fill:none" points="186.274,229.103 2352.76,229.103 "/>
<polyline clip-path="url(#clip860)" style="stroke:#000000; stroke-linecap:round; stroke-linejoin:round; stroke-width:4; stroke-opacity:1; fill:none" points="186.274,1486.45 186.274,47.2441 "/>
<polyline clip-path="url(#clip860)" style="stroke:#000000; stroke-linecap:round; stroke-linejoin:round; stroke-width:4; stroke-opacity:1; fill:none" points="186.274,1445.72 205.172,1445.72 "/>
<polyline clip-path="url(#clip860)" style="stroke:#000000; stroke-linecap:round; stroke-linejoin:round; stroke-width:4; stroke-opacity:1; fill:none" points="186.274,1202.39 205.172,1202.39 "/>
<polyline clip-path="url(#clip860)" style="stroke:#000000; stroke-linecap:round; stroke-linejoin:round; stroke-width:4; stroke-opacity:1; fill:none" points="186.274,959.071 205.172,959.071 "/>
<polyline clip-path="url(#clip860)" style="stroke:#000000; stroke-linecap:round; stroke-linejoin:round; stroke-width:4; stroke-opacity:1; fill:none" points="186.274,715.748 205.172,715.748 "/>
<polyline clip-path="url(#clip860)" style="stroke:#000000; stroke-linecap:round; stroke-linejoin:round; stroke-width:4; stroke-opacity:1; fill:none" points="186.274,472.426 205.172,472.426 "/>
<polyline clip-path="url(#clip860)" style="stroke:#000000; stroke-linecap:round; stroke-linejoin:round; stroke-width:4; stroke-opacity:1; fill:none" points="186.274,229.103 205.172,229.103 "/>
<path clip-path="url(#clip860)" d="M62.9365 1431.51 Q59.3254 1431.51 57.4967 1435.08 Q55.6912 1438.62 55.6912 1445.75 Q55.6912 1452.86 57.4967 1456.42 Q59.3254 1459.96 62.9365 1459.96 Q66.5707 1459.96 68.3763 1456.42 Q70.205 1452.86 70.205 1445.75 Q70.205 1438.62 68.3763 1435.08 Q66.5707 1431.51 62.9365 1431.51 M62.9365 1427.81 Q68.7467 1427.81 71.8022 1432.42 Q74.8809 1437 74.8809 1445.75 Q74.8809 1454.48 71.8022 1459.08 Q68.7467 1463.67 62.9365 1463.67 Q57.1264 1463.67 54.0477 1459.08 Q50.9921 1454.48 50.9921 1445.75 Q50.9921 1437 54.0477 1432.42 Q57.1264 1427.81 62.9365 1427.81 Z" fill="#000000" fill-rule="nonzero" fill-opacity="1" /><path clip-path="url(#clip860)" d="M83.0984 1457.12 L87.9827 1457.12 L87.9827 1463 L83.0984 1463 L83.0984 1457.12 Z" fill="#000000" fill-rule="nonzero" fill-opacity="1" /><path clip-path="url(#clip860)" d="M108.168 1431.51 Q104.557 1431.51 102.728 1435.08 Q100.922 1438.62 100.922 1445.75 Q100.922 1452.86 102.728 1456.42 Q104.557 1459.96 108.168 1459.96 Q111.802 1459.96 113.608 1456.42 Q115.436 1452.86 115.436 1445.75 Q115.436 1438.62 113.608 1435.08 Q111.802 1431.51 108.168 1431.51 M108.168 1427.81 Q113.978 1427.81 117.033 1432.42 Q120.112 1437 120.112 1445.75 Q120.112 1454.48 117.033 1459.08 Q113.978 1463.67 108.168 1463.67 Q102.358 1463.67 99.2789 1459.08 Q96.2234 1454.48 96.2234 1445.75 Q96.2234 1437 99.2789 1432.42 Q102.358 1427.81 108.168 1427.81 Z" fill="#000000" fill-rule="nonzero" fill-opacity="1" /><path clip-path="url(#clip860)" d="M138.33 1431.51 Q134.719 1431.51 132.89 1435.08 Q131.084 1438.62 131.084 1445.75 Q131.084 1452.86 132.89 1456.42 Q134.719 1459.96 138.33 1459.96 Q141.964 1459.96 143.769 1456.42 Q145.598 1452.86 145.598 1445.75 Q145.598 1438.62 143.769 1435.08 Q141.964 1431.51 138.33 1431.51 M138.33 1427.81 Q144.14 1427.81 147.195 1432.42 Q150.274 1437 150.274 1445.75 Q150.274 1454.48 147.195 1459.08 Q144.14 1463.67 138.33 1463.67 Q132.519 1463.67 129.441 1459.08 Q126.385 1454.48 126.385 1445.75 Q126.385 1437 129.441 1432.42 Q132.519 1427.81 138.33 1427.81 Z" fill="#000000" fill-rule="nonzero" fill-opacity="1" /><path clip-path="url(#clip860)" d="M63.9319 1188.19 Q60.3208 1188.19 58.4921 1191.76 Q56.6865 1195.3 56.6865 1202.43 Q56.6865 1209.53 58.4921 1213.1 Q60.3208 1216.64 63.9319 1216.64 Q67.5661 1216.64 69.3717 1213.1 Q71.2004 1209.53 71.2004 1202.43 Q71.2004 1195.3 69.3717 1191.76 Q67.5661 1188.19 63.9319 1188.19 M63.9319 1184.49 Q69.742 1184.49 72.7976 1189.09 Q75.8763 1193.68 75.8763 1202.43 Q75.8763 1211.15 72.7976 1215.76 Q69.742 1220.34 63.9319 1220.34 Q58.1217 1220.34 55.043 1215.76 Q51.9875 1211.15 51.9875 1202.43 Q51.9875 1193.68 55.043 1189.09 Q58.1217 1184.49 63.9319 1184.49 Z" fill="#000000" fill-rule="nonzero" fill-opacity="1" /><path clip-path="url(#clip860)" d="M84.0938 1213.79 L88.978 1213.79 L88.978 1219.67 L84.0938 1219.67 L84.0938 1213.79 Z" fill="#000000" fill-rule="nonzero" fill-opacity="1" /><path clip-path="url(#clip860)" d="M109.163 1188.19 Q105.552 1188.19 103.723 1191.76 Q101.918 1195.3 101.918 1202.43 Q101.918 1209.53 103.723 1213.1 Q105.552 1216.64 109.163 1216.64 Q112.797 1216.64 114.603 1213.1 Q116.432 1209.53 116.432 1202.43 Q116.432 1195.3 114.603 1191.76 Q112.797 1188.19 109.163 1188.19 M109.163 1184.49 Q114.973 1184.49 118.029 1189.09 Q121.107 1193.68 121.107 1202.43 Q121.107 1211.15 118.029 1215.76 Q114.973 1220.34 109.163 1220.34 Q103.353 1220.34 100.274 1215.76 Q97.2187 1211.15 97.2187 1202.43 Q97.2187 1193.68 100.274 1189.09 Q103.353 1184.49 109.163 1184.49 Z" fill="#000000" fill-rule="nonzero" fill-opacity="1" /><path clip-path="url(#clip860)" d="M129.371 1185.11 L147.728 1185.11 L147.728 1189.05 L133.654 1189.05 L133.654 1197.52 Q134.672 1197.17 135.691 1197.01 Q136.709 1196.83 137.728 1196.83 Q143.515 1196.83 146.894 1200 Q150.274 1203.17 150.274 1208.59 Q150.274 1214.16 146.802 1217.27 Q143.33 1220.34 137.01 1220.34 Q134.834 1220.34 132.566 1219.97 Q130.32 1219.6 127.913 1218.86 L127.913 1214.16 Q129.996 1215.3 132.219 1215.85 Q134.441 1216.41 136.918 1216.41 Q140.922 1216.41 143.26 1214.3 Q145.598 1212.2 145.598 1208.59 Q145.598 1204.97 143.26 1202.87 Q140.922 1200.76 136.918 1200.76 Q135.043 1200.76 133.168 1201.18 Q131.316 1201.59 129.371 1202.47 L129.371 1185.11 Z" fill="#000000" fill-rule="nonzero" fill-opacity="1" /><path clip-path="url(#clip860)" d="M62.9365 944.869 Q59.3254 944.869 57.4967 948.434 Q55.6912 951.976 55.6912 959.105 Q55.6912 966.212 57.4967 969.777 Q59.3254 973.318 62.9365 973.318 Q66.5707 973.318 68.3763 969.777 Q70.205 966.212 70.205 959.105 Q70.205 951.976 68.3763 948.434 Q66.5707 944.869 62.9365 944.869 M62.9365 941.166 Q68.7467 941.166 71.8022 945.772 Q74.8809 950.356 74.8809 959.105 Q74.8809 967.832 71.8022 972.439 Q68.7467 977.022 62.9365 977.022 Q57.1264 977.022 54.0477 972.439 Q50.9921 967.832 50.9921 959.105 Q50.9921 950.356 54.0477 945.772 Q57.1264 941.166 62.9365 941.166 Z" fill="#000000" fill-rule="nonzero" fill-opacity="1" /><path clip-path="url(#clip860)" d="M83.0984 970.471 L87.9827 970.471 L87.9827 976.351 L83.0984 976.351 L83.0984 970.471 Z" fill="#000000" fill-rule="nonzero" fill-opacity="1" /><path clip-path="url(#clip860)" d="M98.978 972.416 L106.617 972.416 L106.617 946.05 L98.3067 947.717 L98.3067 943.457 L106.571 941.791 L111.246 941.791 L111.246 972.416 L118.885 972.416 L118.885 976.351 L98.978 976.351 L98.978 972.416 Z" fill="#000000" fill-rule="nonzero" fill-opacity="1" /><path clip-path="url(#clip860)" d="M138.33 944.869 Q134.719 944.869 132.89 948.434 Q131.084 951.976 131.084 959.105 Q131.084 966.212 132.89 969.777 Q134.719 973.318 138.33 973.318 Q141.964 973.318 143.769 969.777 Q145.598 966.212 145.598 959.105 Q145.598 951.976 143.769 948.434 Q141.964 944.869 138.33 944.869 M138.33 941.166 Q144.14 941.166 147.195 945.772 Q150.274 950.356 150.274 959.105 Q150.274 967.832 147.195 972.439 Q144.14 977.022 138.33 977.022 Q132.519 977.022 129.441 972.439 Q126.385 967.832 126.385 959.105 Q126.385 950.356 129.441 945.772 Q132.519 941.166 138.33 941.166 Z" fill="#000000" fill-rule="nonzero" fill-opacity="1" /><path clip-path="url(#clip860)" d="M63.9319 701.547 Q60.3208 701.547 58.4921 705.112 Q56.6865 708.653 56.6865 715.783 Q56.6865 722.889 58.4921 726.454 Q60.3208 729.996 63.9319 729.996 Q67.5661 729.996 69.3717 726.454 Q71.2004 722.889 71.2004 715.783 Q71.2004 708.653 69.3717 705.112 Q67.5661 701.547 63.9319 701.547 M63.9319 697.843 Q69.742 697.843 72.7976 702.45 Q75.8763 707.033 75.8763 715.783 Q75.8763 724.51 72.7976 729.116 Q69.742 733.7 63.9319 733.7 Q58.1217 733.7 55.043 729.116 Q51.9875 724.51 51.9875 715.783 Q51.9875 707.033 55.043 702.45 Q58.1217 697.843 63.9319 697.843 Z" fill="#000000" fill-rule="nonzero" fill-opacity="1" /><path clip-path="url(#clip860)" d="M84.0938 727.149 L88.978 727.149 L88.978 733.028 L84.0938 733.028 L84.0938 727.149 Z" fill="#000000" fill-rule="nonzero" fill-opacity="1" /><path clip-path="url(#clip860)" d="M99.9733 729.093 L107.612 729.093 L107.612 702.728 L99.3021 704.394 L99.3021 700.135 L107.566 698.468 L112.242 698.468 L112.242 729.093 L119.881 729.093 L119.881 733.028 L99.9733 733.028 L99.9733 729.093 Z" fill="#000000" fill-rule="nonzero" fill-opacity="1" /><path clip-path="url(#clip860)" d="M129.371 698.468 L147.728 698.468 L147.728 702.403 L133.654 702.403 L133.654 710.876 Q134.672 710.528 135.691 710.366 Q136.709 710.181 137.728 710.181 Q143.515 710.181 146.894 713.352 Q150.274 716.524 150.274 721.94 Q150.274 727.519 146.802 730.621 Q143.33 733.7 137.01 733.7 Q134.834 733.7 132.566 733.329 Q130.32 732.959 127.913 732.218 L127.913 727.519 Q129.996 728.653 132.219 729.209 Q134.441 729.764 136.918 729.764 Q140.922 729.764 143.26 727.658 Q145.598 725.551 145.598 721.94 Q145.598 718.329 143.26 716.223 Q140.922 714.116 136.918 714.116 Q135.043 714.116 133.168 714.533 Q131.316 714.95 129.371 715.829 L129.371 698.468 Z" fill="#000000" fill-rule="nonzero" fill-opacity="1" /><path clip-path="url(#clip860)" d="M62.9365 458.224 Q59.3254 458.224 57.4967 461.789 Q55.6912 465.331 55.6912 472.461 Q55.6912 479.567 57.4967 483.132 Q59.3254 486.673 62.9365 486.673 Q66.5707 486.673 68.3763 483.132 Q70.205 479.567 70.205 472.461 Q70.205 465.331 68.3763 461.789 Q66.5707 458.224 62.9365 458.224 M62.9365 454.521 Q68.7467 454.521 71.8022 459.127 Q74.8809 463.711 74.8809 472.461 Q74.8809 481.187 71.8022 485.794 Q68.7467 490.377 62.9365 490.377 Q57.1264 490.377 54.0477 485.794 Q50.9921 481.187 50.9921 472.461 Q50.9921 463.711 54.0477 459.127 Q57.1264 454.521 62.9365 454.521 Z" fill="#000000" fill-rule="nonzero" fill-opacity="1" /><path clip-path="url(#clip860)" d="M83.0984 483.826 L87.9827 483.826 L87.9827 489.706 L83.0984 489.706 L83.0984 483.826 Z" fill="#000000" fill-rule="nonzero" fill-opacity="1" /><path clip-path="url(#clip860)" d="M102.196 485.771 L118.515 485.771 L118.515 489.706 L96.5706 489.706 L96.5706 485.771 Q99.2326 483.016 103.816 478.386 Q108.422 473.734 109.603 472.391 Q111.848 469.868 112.728 468.132 Q113.631 466.373 113.631 464.683 Q113.631 461.928 111.686 460.192 Q109.765 458.456 106.663 458.456 Q104.464 458.456 102.01 459.22 Q99.5798 459.984 96.8021 461.535 L96.8021 456.812 Q99.6261 455.678 102.08 455.099 Q104.534 454.521 106.571 454.521 Q111.941 454.521 115.135 457.206 Q118.33 459.891 118.33 464.382 Q118.33 466.511 117.52 468.433 Q116.733 470.331 114.626 472.923 Q114.047 473.595 110.946 476.812 Q107.844 480.007 102.196 485.771 Z" fill="#000000" fill-rule="nonzero" fill-opacity="1" /><path clip-path="url(#clip860)" d="M138.33 458.224 Q134.719 458.224 132.89 461.789 Q131.084 465.331 131.084 472.461 Q131.084 479.567 132.89 483.132 Q134.719 486.673 138.33 486.673 Q141.964 486.673 143.769 483.132 Q145.598 479.567 145.598 472.461 Q145.598 465.331 143.769 461.789 Q141.964 458.224 138.33 458.224 M138.33 454.521 Q144.14 454.521 147.195 459.127 Q150.274 463.711 150.274 472.461 Q150.274 481.187 147.195 485.794 Q144.14 490.377 138.33 490.377 Q132.519 490.377 129.441 485.794 Q126.385 481.187 126.385 472.461 Q126.385 463.711 129.441 459.127 Q132.519 454.521 138.33 454.521 Z" fill="#000000" fill-rule="nonzero" fill-opacity="1" /><path clip-path="url(#clip860)" d="M63.9319 214.902 Q60.3208 214.902 58.4921 218.467 Q56.6865 222.008 56.6865 229.138 Q56.6865 236.244 58.4921 239.809 Q60.3208 243.351 63.9319 243.351 Q67.5661 243.351 69.3717 239.809 Q71.2004 236.244 71.2004 229.138 Q71.2004 222.008 69.3717 218.467 Q67.5661 214.902 63.9319 214.902 M63.9319 211.198 Q69.742 211.198 72.7976 215.805 Q75.8763 220.388 75.8763 229.138 Q75.8763 237.865 72.7976 242.471 Q69.742 247.055 63.9319 247.055 Q58.1217 247.055 55.043 242.471 Q51.9875 237.865 51.9875 229.138 Q51.9875 220.388 55.043 215.805 Q58.1217 211.198 63.9319 211.198 Z" fill="#000000" fill-rule="nonzero" fill-opacity="1" /><path clip-path="url(#clip860)" d="M84.0938 240.504 L88.978 240.504 L88.978 246.383 L84.0938 246.383 L84.0938 240.504 Z" fill="#000000" fill-rule="nonzero" fill-opacity="1" /><path clip-path="url(#clip860)" d="M103.191 242.448 L119.51 242.448 L119.51 246.383 L97.566 246.383 L97.566 242.448 Q100.228 239.694 104.811 235.064 Q109.418 230.411 110.598 229.069 Q112.844 226.545 113.723 224.809 Q114.626 223.05 114.626 221.36 Q114.626 218.606 112.682 216.87 Q110.76 215.133 107.658 215.133 Q105.459 215.133 103.006 215.897 Q100.575 216.661 97.7974 218.212 L97.7974 213.49 Q100.621 212.356 103.075 211.777 Q105.529 211.198 107.566 211.198 Q112.936 211.198 116.131 213.883 Q119.325 216.569 119.325 221.059 Q119.325 223.189 118.515 225.11 Q117.728 227.008 115.621 229.601 Q115.043 230.272 111.941 233.49 Q108.839 236.684 103.191 242.448 Z" fill="#000000" fill-rule="nonzero" fill-opacity="1" /><path clip-path="url(#clip860)" d="M129.371 211.823 L147.728 211.823 L147.728 215.758 L133.654 215.758 L133.654 224.231 Q134.672 223.883 135.691 223.721 Q136.709 223.536 137.728 223.536 Q143.515 223.536 146.894 226.707 Q150.274 229.879 150.274 235.295 Q150.274 240.874 146.802 243.976 Q143.33 247.055 137.01 247.055 Q134.834 247.055 132.566 246.684 Q130.32 246.314 127.913 245.573 L127.913 240.874 Q129.996 242.008 132.219 242.564 Q134.441 243.119 136.918 243.119 Q140.922 243.119 143.26 241.013 Q145.598 238.907 145.598 235.295 Q145.598 231.684 143.26 229.578 Q140.922 227.471 136.918 227.471 Q135.043 227.471 133.168 227.888 Q131.316 228.305 129.371 229.184 L129.371 211.823 Z" fill="#000000" fill-rule="nonzero" fill-opacity="1" /><polyline clip-path="url(#clip862)" style="stroke:#009af9; stroke-linecap:round; stroke-linejoin:round; stroke-width:12; stroke-opacity:1; fill:none" points="247.59,1445.72 247.59,1432.74 349.782,1432.74 349.782,1419.76 451.975,1419.76 451.975,1420.28 554.167,1420.28 554.167,1410.42 656.36,1410.42 656.36,1389.14 758.552,1389.14 758.552,1368.9 860.745,1368.9 860.745,1314.92 962.937,1314.92 962.937,1211.63 1065.13,1211.63 1065.13,920.455 1167.32,920.455 1167.32,100.383 1269.51,100.383 1269.51,162.667 1371.71,162.667 1371.71,915.264 1473.9,915.264 1473.9,1212.67 1576.09,1212.67 1576.09,1319.07 1678.29,1319.07 1678.29,1367.34 1780.48,1367.34 1780.48,1393.29 1882.67,1393.29 1882.67,1405.75 1984.86,1405.75 1984.86,1422.88 2087.06,1422.88 2087.06,1429.63 2189.25,1429.63 2189.25,1430.66 2291.44,1430.66 2291.44,1445.72 "/>
<path clip-path="url(#clip862)" d="M247.59 1445.72 L247.59 1431.12 L349.782 1431.12 L349.782 1431.12 L451.975 1431.12 L451.975 1411.65 L554.167 1411.65 L554.167 1401.92 L656.36 1401.92 L656.36 1431.12 L758.552 1431.12 L758.552 1401.92 L860.745 1401.92 L860.745 1328.92 L962.937 1328.92 L962.937 1216.99 L1065.13 1216.99 L1065.13 808.211 L1167.32 808.211 L1167.32 126.908 L1269.51 126.908 L1269.51 87.9763 L1371.71 87.9763 L1371.71 861.742 L1473.9 861.742 L1473.9 1144 L1576.09 1144 L1576.09 1362.99 L1678.29 1362.99 L1678.29 1416.52 L1780.48 1416.52 L1780.48 1401.92 L1882.67 1401.92 L1882.67 1445.72 L1984.86 1445.72 L1984.86 1445.72 L2087.06 1445.72 L2087.06 1445.72 L2189.25 1445.72 L2189.25 1445.72 L2291.44 1445.72 L2291.44 1445.72 L2189.25 1445.72 L2189.25 1445.72 L2087.06 1445.72 L2087.06 1445.72 L1984.86 1445.72 L1984.86 1445.72 L1882.67 1445.72 L1882.67 1445.72 L1780.48 1445.72 L1780.48 1445.72 L1678.29 1445.72 L1678.29 1445.72 L1576.09 1445.72 L1576.09 1445.72 L1473.9 1445.72 L1473.9 1445.72 L1371.71 1445.72 L1371.71 1445.72 L1269.51 1445.72 L1269.51 1445.72 L1167.32 1445.72 L1167.32 1445.72 L1065.13 1445.72 L1065.13 1445.72 L962.937 1445.72 L962.937 1445.72 L860.745 1445.72 L860.745 1445.72 L758.552 1445.72 L758.552 1445.72 L656.36 1445.72 L656.36 1445.72 L554.167 1445.72 L554.167 1445.72 L451.975 1445.72 L451.975 1445.72 L349.782 1445.72 L349.782 1445.72 L247.59 1445.72 L247.59 1445.72  Z" fill="#e26f46" fill-rule="evenodd" fill-opacity="0.5"/>
<polyline clip-path="url(#clip862)" style="stroke:#e26f46; stroke-linecap:round; stroke-linejoin:round; stroke-width:4; stroke-opacity:0.5; fill:none" points="247.59,1445.72 247.59,1431.12 349.782,1431.12 451.975,1431.12 451.975,1411.65 554.167,1411.65 554.167,1401.92 656.36,1401.92 656.36,1431.12 758.552,1431.12 758.552,1401.92 860.745,1401.92 860.745,1328.92 962.937,1328.92 962.937,1216.99 1065.13,1216.99 1065.13,808.211 1167.32,808.211 1167.32,126.908 1269.51,126.908 1269.51,87.9763 1371.71,87.9763 1371.71,861.742 1473.9,861.742 1473.9,1144 1576.09,1144 1576.09,1362.99 1678.29,1362.99 1678.29,1416.52 1780.48,1416.52 1780.48,1401.92 1882.67,1401.92 1882.67,1445.72 1984.86,1445.72 2087.06,1445.72 2189.25,1445.72 2291.44,1445.72 "/>
<path clip-path="url(#clip862)" d="M247.59 1445.72 L247.59 1435.22 L349.782 1435.22 L349.782 1424.72 L451.975 1424.72 L451.975 1419.47 L554.167 1419.47 L554.167 1414.22 L656.36 1414.22 L656.36 1424.72 L758.552 1424.72 L758.552 1351.22 L860.745 1351.22 L860.745 1303.97 L962.937 1303.97 L962.937 1209.48 L1065.13 1209.48 L1065.13 784.257 L1167.32 784.257 L1167.32 327.535 L1269.51 327.535 L1269.51 180.544 L1371.71 180.544 L1371.71 805.255 L1473.9 805.255 L1473.9 1214.73 L1576.09 1214.73 L1576.09 1351.22 L1678.29 1351.22 L1678.29 1356.47 L1780.48 1356.47 L1780.48 1382.72 L1882.67 1382.72 L1882.67 1419.47 L1984.86 1419.47 L1984.86 1408.97 L2087.06 1408.97 L2087.06 1424.72 L2189.25 1424.72 L2189.25 1408.97 L2291.44 1408.97 L2291.44 1445.72 L2291.44 1445.72 L2291.44 1445.72 L2189.25 1445.72 L2189.25 1445.72 L2087.06 1445.72 L2087.06 1445.72 L1984.86 1445.72 L1984.86 1445.72 L1882.67 1445.72 L1882.67 1445.72 L1780.48 1445.72 L1780.48 1445.72 L1678.29 1445.72 L1678.29 1445.72 L1576.09 1445.72 L1576.09 1445.72 L1473.9 1445.72 L1473.9 1445.72 L1371.71 1445.72 L1371.71 1445.72 L1269.51 1445.72 L1269.51 1445.72 L1167.32 1445.72 L1167.32 1445.72 L1065.13 1445.72 L1065.13 1445.72 L962.937 1445.72 L962.937 1445.72 L860.745 1445.72 L860.745 1445.72 L758.552 1445.72 L758.552 1445.72 L656.36 1445.72 L656.36 1445.72 L554.167 1445.72 L554.167 1445.72 L451.975 1445.72 L451.975 1445.72 L349.782 1445.72 L349.782 1445.72 L247.59 1445.72 L247.59 1445.72  Z" fill="#3da44d" fill-rule="evenodd" fill-opacity="0.5"/>
<polyline clip-path="url(#clip862)" style="stroke:#3da44d; stroke-linecap:round; stroke-linejoin:round; stroke-width:4; stroke-opacity:0.5; fill:none" points="247.59,1445.72 247.59,1435.22 349.782,1435.22 349.782,1424.72 451.975,1424.72 451.975,1419.47 554.167,1419.47 554.167,1414.22 656.36,1414.22 656.36,1424.72 758.552,1424.72 758.552,1351.22 860.745,1351.22 860.745,1303.97 962.937,1303.97 962.937,1209.48 1065.13,1209.48 1065.13,784.257 1167.32,784.257 1167.32,327.535 1269.51,327.535 1269.51,180.544 1371.71,180.544 1371.71,805.255 1473.9,805.255 1473.9,1214.73 1576.09,1214.73 1576.09,1351.22 1678.29,1351.22 1678.29,1356.47 1780.48,1356.47 1780.48,1382.72 1882.67,1382.72 1882.67,1419.47 1984.86,1419.47 1984.86,1408.97 2087.06,1408.97 2087.06,1424.72 2189.25,1424.72 2189.25,1408.97 2291.44,1408.97 2291.44,1445.72 "/>
<path clip-path="url(#clip860)" d="M1943.68 302.578 L2280.54 302.578 L2280.54 95.2176 L1943.68 95.2176  Z" fill="#ffffff" fill-rule="evenodd" fill-opacity="1"/>
<polyline clip-path="url(#clip860)" style="stroke:#000000; stroke-linecap:round; stroke-linejoin:round; stroke-width:4; stroke-opacity:1; fill:none" points="1943.68,302.578 2280.54,302.578 2280.54,95.2176 1943.68,95.2176 1943.68,302.578 "/>
<polyline clip-path="url(#clip860)" style="stroke:#009af9; stroke-linecap:round; stroke-linejoin:round; stroke-width:12; stroke-opacity:1; fill:none" points="1967.76,147.058 2112.19,147.058 "/>
<path clip-path="url(#clip860)" d="M2143.67 131.051 L2143.67 138.412 L2152.44 138.412 L2152.44 141.722 L2143.67 141.722 L2143.67 155.796 Q2143.67 158.967 2144.52 159.87 Q2145.4 160.773 2148.07 160.773 L2152.44 160.773 L2152.44 164.338 L2148.07 164.338 Q2143.14 164.338 2141.26 162.509 Q2139.39 160.657 2139.39 155.796 L2139.39 141.722 L2136.26 141.722 L2136.26 138.412 L2139.39 138.412 L2139.39 131.051 L2143.67 131.051 Z" fill="#000000" fill-rule="nonzero" fill-opacity="1" /><path clip-path="url(#clip860)" d="M2173.07 142.393 Q2172.35 141.977 2171.49 141.791 Q2170.66 141.583 2169.64 141.583 Q2166.03 141.583 2164.08 143.944 Q2162.16 146.282 2162.16 150.68 L2162.16 164.338 L2157.88 164.338 L2157.88 138.412 L2162.16 138.412 L2162.16 142.44 Q2163.51 140.078 2165.66 138.944 Q2167.81 137.787 2170.89 137.787 Q2171.33 137.787 2171.86 137.856 Q2172.39 137.903 2173.04 138.018 L2173.07 142.393 Z" fill="#000000" fill-rule="nonzero" fill-opacity="1" /><path clip-path="url(#clip860)" d="M2177.09 154.106 L2177.09 138.412 L2181.35 138.412 L2181.35 153.944 Q2181.35 157.625 2182.79 159.476 Q2184.22 161.305 2187.09 161.305 Q2190.54 161.305 2192.53 159.106 Q2194.55 156.907 2194.55 153.111 L2194.55 138.412 L2198.81 138.412 L2198.81 164.338 L2194.55 164.338 L2194.55 160.356 Q2193 162.717 2190.94 163.875 Q2188.9 165.009 2186.19 165.009 Q2181.72 165.009 2179.41 162.231 Q2177.09 159.453 2177.09 154.106 M2187.81 137.787 L2187.81 137.787 Z" fill="#000000" fill-rule="nonzero" fill-opacity="1" /><path clip-path="url(#clip860)" d="M2229.76 150.31 L2229.76 152.393 L2210.17 152.393 Q2210.45 156.791 2212.81 159.106 Q2215.19 161.398 2219.43 161.398 Q2221.88 161.398 2224.18 160.796 Q2226.49 160.194 2228.76 158.99 L2228.76 163.018 Q2226.47 163.99 2224.06 164.5 Q2221.65 165.009 2219.18 165.009 Q2212.97 165.009 2209.34 161.398 Q2205.73 157.787 2205.73 151.629 Q2205.73 145.264 2209.15 141.537 Q2212.6 137.787 2218.44 137.787 Q2223.67 137.787 2226.7 141.166 Q2229.76 144.523 2229.76 150.31 M2225.5 149.06 Q2225.45 145.565 2223.53 143.481 Q2221.63 141.398 2218.48 141.398 Q2214.92 141.398 2212.76 143.412 Q2210.63 145.426 2210.31 149.083 L2225.5 149.06 Z" fill="#000000" fill-rule="nonzero" fill-opacity="1" /><path clip-path="url(#clip860)" d="M1967.76 219.634 L2112.19 219.634 L2112.19 178.162 L1967.76 178.162 L1967.76 219.634  Z" fill="#e26f46" fill-rule="evenodd" fill-opacity="0.5"/>
<polyline clip-path="url(#clip860)" style="stroke:#e26f46; stroke-linecap:round; stroke-linejoin:round; stroke-width:4; stroke-opacity:0.5; fill:none" points="1967.76,178.162 2112.19,178.162 "/>
<path clip-path="url(#clip860)" d="M2136.26 181.618 L2140.94 181.618 L2140.94 212.242 L2157.76 212.242 L2157.76 216.178 L2136.26 216.178 L2136.26 181.618 Z" fill="#000000" fill-rule="nonzero" fill-opacity="1" /><path clip-path="url(#clip860)" d="M2183.39 182.752 L2183.39 187.312 Q2180.73 186.039 2178.37 185.414 Q2176.01 184.789 2173.81 184.789 Q2169.99 184.789 2167.9 186.27 Q2165.84 187.752 2165.84 190.483 Q2165.84 192.775 2167.21 193.955 Q2168.6 195.113 2172.44 195.83 L2175.26 196.409 Q2180.5 197.405 2182.97 199.928 Q2185.47 202.428 2185.47 206.641 Q2185.47 211.664 2182.09 214.256 Q2178.74 216.849 2172.23 216.849 Q2169.78 216.849 2167 216.293 Q2164.25 215.738 2161.28 214.65 L2161.28 209.835 Q2164.13 211.432 2166.86 212.242 Q2169.59 213.053 2172.23 213.053 Q2176.24 213.053 2178.41 211.479 Q2180.59 209.904 2180.59 206.988 Q2180.59 204.442 2179.01 203.006 Q2177.46 201.571 2173.9 200.854 L2171.05 200.298 Q2165.82 199.256 2163.48 197.034 Q2161.14 194.812 2161.14 190.854 Q2161.14 186.27 2164.36 183.631 Q2167.6 180.993 2173.27 180.993 Q2175.7 180.993 2178.23 181.432 Q2180.75 181.872 2183.39 182.752 Z" fill="#000000" fill-rule="nonzero" fill-opacity="1" /><path clip-path="url(#clip860)" d="M2213.48 182.752 L2213.48 187.312 Q2210.82 186.039 2208.46 185.414 Q2206.1 184.789 2203.9 184.789 Q2200.08 184.789 2198 186.27 Q2195.94 187.752 2195.94 190.483 Q2195.94 192.775 2197.3 193.955 Q2198.69 195.113 2202.53 195.83 L2205.36 196.409 Q2210.59 197.405 2213.07 199.928 Q2215.57 202.428 2215.57 206.641 Q2215.57 211.664 2212.19 214.256 Q2208.83 216.849 2202.32 216.849 Q2199.87 216.849 2197.09 216.293 Q2194.34 215.738 2191.38 214.65 L2191.38 209.835 Q2194.22 211.432 2196.95 212.242 Q2199.69 213.053 2202.32 213.053 Q2206.33 213.053 2208.51 211.479 Q2210.68 209.904 2210.68 206.988 Q2210.68 204.442 2209.11 203.006 Q2207.56 201.571 2203.99 200.854 L2201.14 200.298 Q2195.91 199.256 2193.57 197.034 Q2191.24 194.812 2191.24 190.854 Q2191.24 186.27 2194.45 183.631 Q2197.69 180.993 2203.37 180.993 Q2205.8 180.993 2208.32 181.432 Q2210.84 181.872 2213.48 182.752 Z" fill="#000000" fill-rule="nonzero" fill-opacity="1" /><path clip-path="url(#clip860)" d="M1967.76 271.474 L2112.19 271.474 L2112.19 230.002 L1967.76 230.002 L1967.76 271.474  Z" fill="#3da44d" fill-rule="evenodd" fill-opacity="0.5"/>
<polyline clip-path="url(#clip860)" style="stroke:#3da44d; stroke-linecap:round; stroke-linejoin:round; stroke-width:4; stroke-opacity:0.5; fill:none" points="1967.76,230.002 2112.19,230.002 "/>
<path clip-path="url(#clip860)" d="M2161.82 263.087 L2161.82 253.805 L2154.18 253.805 L2154.18 249.962 L2166.45 249.962 L2166.45 264.8 Q2163.74 266.721 2160.47 267.717 Q2157.21 268.689 2153.51 268.689 Q2145.4 268.689 2140.82 263.967 Q2136.26 259.221 2136.26 250.772 Q2136.26 242.3 2140.82 237.578 Q2145.4 232.833 2153.51 232.833 Q2156.89 232.833 2159.92 233.666 Q2162.97 234.499 2165.54 236.12 L2165.54 241.096 Q2162.95 238.897 2160.03 237.786 Q2157.12 236.675 2153.9 236.675 Q2147.56 236.675 2144.36 240.217 Q2141.19 243.758 2141.19 250.772 Q2141.19 257.763 2144.36 261.305 Q2147.56 264.846 2153.9 264.846 Q2156.38 264.846 2158.32 264.43 Q2160.26 263.99 2161.82 263.087 Z" fill="#000000" fill-rule="nonzero" fill-opacity="1" /><path clip-path="url(#clip860)" d="M2179.66 237.3 L2179.66 250.286 L2185.54 250.286 Q2188.81 250.286 2190.59 248.596 Q2192.37 246.907 2192.37 243.782 Q2192.37 240.68 2190.59 238.99 Q2188.81 237.3 2185.54 237.3 L2179.66 237.3 M2174.99 233.458 L2185.54 233.458 Q2191.35 233.458 2194.32 236.096 Q2197.3 238.712 2197.3 243.782 Q2197.3 248.897 2194.32 251.513 Q2191.35 254.129 2185.54 254.129 L2179.66 254.129 L2179.66 268.018 L2174.99 268.018 L2174.99 233.458 Z" fill="#000000" fill-rule="nonzero" fill-opacity="1" /><path clip-path="url(#clip860)" d="M2224.29 234.592 L2224.29 239.152 Q2221.63 237.879 2219.27 237.254 Q2216.91 236.629 2214.71 236.629 Q2210.89 236.629 2208.81 238.11 Q2206.75 239.592 2206.75 242.323 Q2206.75 244.615 2208.11 245.795 Q2209.5 246.953 2213.34 247.67 L2216.17 248.249 Q2221.4 249.245 2223.88 251.768 Q2226.38 254.268 2226.38 258.481 Q2226.38 263.504 2223 266.096 Q2219.64 268.689 2213.13 268.689 Q2210.68 268.689 2207.9 268.133 Q2205.15 267.578 2202.19 266.49 L2202.19 261.675 Q2205.03 263.272 2207.76 264.082 Q2210.5 264.893 2213.13 264.893 Q2217.14 264.893 2219.32 263.319 Q2221.49 261.744 2221.49 258.828 Q2221.49 256.282 2219.92 254.846 Q2218.37 253.411 2214.8 252.694 L2211.95 252.138 Q2206.72 251.096 2204.38 248.874 Q2202.05 246.652 2202.05 242.694 Q2202.05 238.11 2205.26 235.471 Q2208.51 232.833 2214.18 232.833 Q2216.61 232.833 2219.13 233.272 Q2221.65 233.712 2224.29 234.592 Z" fill="#000000" fill-rule="nonzero" fill-opacity="1" /><path clip-path="url(#clip860)" d="M2254.38 234.592 L2254.38 239.152 Q2251.72 237.879 2249.36 237.254 Q2247 236.629 2244.8 236.629 Q2240.98 236.629 2238.9 238.11 Q2236.84 239.592 2236.84 242.323 Q2236.84 244.615 2238.2 245.795 Q2239.59 246.953 2243.44 247.67 L2246.26 248.249 Q2251.49 249.245 2253.97 251.768 Q2256.47 254.268 2256.47 258.481 Q2256.47 263.504 2253.09 266.096 Q2249.73 268.689 2243.23 268.689 Q2240.77 268.689 2238 268.133 Q2235.24 267.578 2232.28 266.49 L2232.28 261.675 Q2235.13 263.272 2237.86 264.082 Q2240.59 264.893 2243.23 264.893 Q2247.23 264.893 2249.41 263.319 Q2251.58 261.744 2251.58 258.828 Q2251.58 256.282 2250.01 254.846 Q2248.46 253.411 2244.89 252.694 L2242.05 252.138 Q2236.82 251.096 2234.48 248.874 Q2232.14 246.652 2232.14 242.694 Q2232.14 238.11 2235.36 235.471 Q2238.6 232.833 2244.27 232.833 Q2246.7 232.833 2249.22 233.272 Q2251.75 233.712 2254.38 234.592 Z" fill="#000000" fill-rule="nonzero" fill-opacity="1" /></svg>
