<?xml version="1.0" encoding="utf-8"?>
<svg xmlns="http://www.w3.org/2000/svg" xmlns:xlink="http://www.w3.org/1999/xlink" width="600" height="400" viewBox="0 0 2400 1600">
<defs>
  <clipPath id="clip370">
    <rect x="0" y="0" width="2400" height="1600"/>
  </clipPath>
</defs>
<path clip-path="url(#clip370)" d="M0 1600 L2400 1600 L2400 0 L0 0  Z" fill="#ffffff" fill-rule="evenodd" fill-opacity="1"/>
<defs>
  <clipPath id="clip371">
    <rect x="480" y="0" width="1681" height="1600"/>
  </clipPath>
</defs>
<path clip-path="url(#clip370)" d="M178.867 686.448 L2352.76 686.448 L2352.76 47.2441 L178.867 47.2441  Z" fill="#ffffff" fill-rule="evenodd" fill-opacity="1"/>
<defs>
  <clipPath id="clip372">
    <rect x="178" y="47" width="2175" height="640"/>
  </clipPath>
</defs>
<polyline clip-path="url(#clip372)" style="stroke:#000000; stroke-linecap:round; stroke-linejoin:round; stroke-width:2; stroke-opacity:0.1; fill:none" points="238.339,686.448 238.339,47.2441 "/>
<polyline clip-path="url(#clip372)" style="stroke:#000000; stroke-linecap:round; stroke-linejoin:round; stroke-width:2; stroke-opacity:0.1; fill:none" points="751.562,686.448 751.562,47.2441 "/>
<polyline clip-path="url(#clip372)" style="stroke:#000000; stroke-linecap:round; stroke-linejoin:round; stroke-width:2; stroke-opacity:0.1; fill:none" points="1264.78,686.448 1264.78,47.2441 "/>
<polyline clip-path="url(#clip372)" style="stroke:#000000; stroke-linecap:round; stroke-linejoin:round; stroke-width:2; stroke-opacity:0.1; fill:none" points="1778.01,686.448 1778.01,47.2441 "/>
<polyline clip-path="url(#clip372)" style="stroke:#000000; stroke-linecap:round; stroke-linejoin:round; stroke-width:2; stroke-opacity:0.1; fill:none" points="2291.23,686.448 2291.23,47.2441 "/>
<polyline clip-path="url(#clip372)" style="stroke:#000000; stroke-linecap:round; stroke-linejoin:round; stroke-width:2; stroke-opacity:0.1; fill:none" points="178.867,686.448 2352.76,686.448 "/>
<polyline clip-path="url(#clip372)" style="stroke:#000000; stroke-linecap:round; stroke-linejoin:round; stroke-width:2; stroke-opacity:0.1; fill:none" points="178.867,526.647 2352.76,526.647 "/>
<polyline clip-path="url(#clip372)" style="stroke:#000000; stroke-linecap:round; stroke-linejoin:round; stroke-width:2; stroke-opacity:0.1; fill:none" points="178.867,366.846 2352.76,366.846 "/>
<polyline clip-path="url(#clip372)" style="stroke:#000000; stroke-linecap:round; stroke-linejoin:round; stroke-width:2; stroke-opacity:0.1; fill:none" points="178.867,207.045 2352.76,207.045 "/>
<polyline clip-path="url(#clip372)" style="stroke:#000000; stroke-linecap:round; stroke-linejoin:round; stroke-width:2; stroke-opacity:0.1; fill:none" points="178.867,47.2441 2352.76,47.2441 "/>
<polyline clip-path="url(#clip370)" style="stroke:#000000; stroke-linecap:round; stroke-linejoin:round; stroke-width:4; stroke-opacity:1; fill:none" points="178.867,686.448 2352.76,686.448 "/>
<polyline clip-path="url(#clip370)" style="stroke:#000000; stroke-linecap:round; stroke-linejoin:round; stroke-width:4; stroke-opacity:1; fill:none" points="238.339,686.448 238.339,667.55 "/>
<polyline clip-path="url(#clip370)" style="stroke:#000000; stroke-linecap:round; stroke-linejoin:round; stroke-width:4; stroke-opacity:1; fill:none" points="751.562,686.448 751.562,667.55 "/>
<polyline clip-path="url(#clip370)" style="stroke:#000000; stroke-linecap:round; stroke-linejoin:round; stroke-width:4; stroke-opacity:1; fill:none" points="1264.78,686.448 1264.78,667.55 "/>
<polyline clip-path="url(#clip370)" style="stroke:#000000; stroke-linecap:round; stroke-linejoin:round; stroke-width:4; stroke-opacity:1; fill:none" points="1778.01,686.448 1778.01,667.55 "/>
<polyline clip-path="url(#clip370)" style="stroke:#000000; stroke-linecap:round; stroke-linejoin:round; stroke-width:4; stroke-opacity:1; fill:none" points="2291.23,686.448 2291.23,667.55 "/>
<path clip-path="url(#clip370)" d="M238.339 717.367 Q234.728 717.367 232.899 720.931 Q231.094 724.473 231.094 731.603 Q231.094 738.709 232.899 742.274 Q234.728 745.815 238.339 745.815 Q241.973 745.815 243.779 742.274 Q245.607 738.709 245.607 731.603 Q245.607 724.473 243.779 720.931 Q241.973 717.367 238.339 717.367 M238.339 713.663 Q244.149 713.663 247.205 718.269 Q250.283 722.853 250.283 731.603 Q250.283 740.329 247.205 744.936 Q244.149 749.519 238.339 749.519 Q232.529 749.519 229.45 744.936 Q226.395 740.329 226.395 731.603 Q226.395 722.853 229.45 718.269 Q232.529 713.663 238.339 713.663 Z" fill="#000000" fill-rule="nonzero" fill-opacity="1" /><path clip-path="url(#clip370)" d="M715.254 744.913 L731.574 744.913 L731.574 748.848 L709.629 748.848 L709.629 744.913 Q712.291 742.158 716.875 737.528 Q721.481 732.876 722.662 731.533 Q724.907 729.01 725.787 727.274 Q726.689 725.515 726.689 723.825 Q726.689 721.07 724.745 719.334 Q722.824 717.598 719.722 717.598 Q717.523 717.598 715.069 718.362 Q712.638 719.126 709.861 720.677 L709.861 715.955 Q712.685 714.82 715.138 714.242 Q717.592 713.663 719.629 713.663 Q725 713.663 728.194 716.348 Q731.388 719.033 731.388 723.524 Q731.388 725.654 730.578 727.575 Q729.791 729.473 727.685 732.066 Q727.106 732.737 724.004 735.954 Q720.902 739.149 715.254 744.913 Z" fill="#000000" fill-rule="nonzero" fill-opacity="1" /><path clip-path="url(#clip370)" d="M741.435 714.288 L759.791 714.288 L759.791 718.223 L745.717 718.223 L745.717 726.695 Q746.736 726.348 747.754 726.186 Q748.773 726.001 749.791 726.001 Q755.578 726.001 758.958 729.172 Q762.337 732.343 762.337 737.76 Q762.337 743.339 758.865 746.44 Q755.393 749.519 749.073 749.519 Q746.898 749.519 744.629 749.149 Q742.384 748.778 739.976 748.038 L739.976 743.339 Q742.06 744.473 744.282 745.028 Q746.504 745.584 748.981 745.584 Q752.985 745.584 755.323 743.478 Q757.661 741.371 757.661 737.76 Q757.661 734.149 755.323 732.042 Q752.985 729.936 748.981 729.936 Q747.106 729.936 745.231 730.353 Q743.379 730.769 741.435 731.649 L741.435 714.288 Z" fill="#000000" fill-rule="nonzero" fill-opacity="1" /><path clip-path="url(#clip370)" d="M781.55 717.367 Q777.939 717.367 776.11 720.931 Q774.305 724.473 774.305 731.603 Q774.305 738.709 776.11 742.274 Q777.939 745.815 781.55 745.815 Q785.184 745.815 786.99 742.274 Q788.819 738.709 788.819 731.603 Q788.819 724.473 786.99 720.931 Q785.184 717.367 781.55 717.367 M781.55 713.663 Q787.36 713.663 790.416 718.269 Q793.495 722.853 793.495 731.603 Q793.495 740.329 790.416 744.936 Q787.36 749.519 781.55 749.519 Q775.74 749.519 772.661 744.936 Q769.606 740.329 769.606 731.603 Q769.606 722.853 772.661 718.269 Q775.74 713.663 781.55 713.663 Z" fill="#000000" fill-rule="nonzero" fill-opacity="1" /><path clip-path="url(#clip370)" d="M1224.4 714.288 L1242.76 714.288 L1242.76 718.223 L1228.69 718.223 L1228.69 726.695 Q1229.7 726.348 1230.72 726.186 Q1231.74 726.001 1232.76 726.001 Q1238.55 726.001 1241.93 729.172 Q1245.31 732.343 1245.31 737.76 Q1245.31 743.339 1241.83 746.44 Q1238.36 749.519 1232.04 749.519 Q1229.87 749.519 1227.6 749.149 Q1225.35 748.778 1222.94 748.038 L1222.94 743.339 Q1225.03 744.473 1227.25 745.028 Q1229.47 745.584 1231.95 745.584 Q1235.95 745.584 1238.29 743.478 Q1240.63 741.371 1240.63 737.76 Q1240.63 734.149 1238.29 732.042 Q1235.95 729.936 1231.95 729.936 Q1230.07 729.936 1228.2 730.353 Q1226.35 730.769 1224.4 731.649 L1224.4 714.288 Z" fill="#000000" fill-rule="nonzero" fill-opacity="1" /><path clip-path="url(#clip370)" d="M1264.52 717.367 Q1260.91 717.367 1259.08 720.931 Q1257.27 724.473 1257.27 731.603 Q1257.27 738.709 1259.08 742.274 Q1260.91 745.815 1264.52 745.815 Q1268.15 745.815 1269.96 742.274 Q1271.79 738.709 1271.79 731.603 Q1271.79 724.473 1269.96 720.931 Q1268.15 717.367 1264.52 717.367 M1264.52 713.663 Q1270.33 713.663 1273.38 718.269 Q1276.46 722.853 1276.46 731.603 Q1276.46 740.329 1273.38 744.936 Q1270.33 749.519 1264.52 749.519 Q1258.71 749.519 1255.63 744.936 Q1252.57 740.329 1252.57 731.603 Q1252.57 722.853 1255.63 718.269 Q1258.71 713.663 1264.52 713.663 Z" fill="#000000" fill-rule="nonzero" fill-opacity="1" /><path clip-path="url(#clip370)" d="M1294.68 717.367 Q1291.07 717.367 1289.24 720.931 Q1287.44 724.473 1287.44 731.603 Q1287.44 738.709 1289.24 742.274 Q1291.07 745.815 1294.68 745.815 Q1298.31 745.815 1300.12 742.274 Q1301.95 738.709 1301.95 731.603 Q1301.95 724.473 1300.12 720.931 Q1298.31 717.367 1294.68 717.367 M1294.68 713.663 Q1300.49 713.663 1303.55 718.269 Q1306.62 722.853 1306.62 731.603 Q1306.62 740.329 1303.55 744.936 Q1300.49 749.519 1294.68 749.519 Q1288.87 749.519 1285.79 744.936 Q1282.74 740.329 1282.74 731.603 Q1282.74 722.853 1285.79 718.269 Q1288.87 713.663 1294.68 713.663 Z" fill="#000000" fill-rule="nonzero" fill-opacity="1" /><path clip-path="url(#clip370)" d="M1736.28 714.288 L1758.51 714.288 L1758.51 716.279 L1745.96 748.848 L1741.08 748.848 L1752.88 718.223 L1736.28 718.223 L1736.28 714.288 Z" fill="#000000" fill-rule="nonzero" fill-opacity="1" /><path clip-path="url(#clip370)" d="M1767.67 714.288 L1786.03 714.288 L1786.03 718.223 L1771.95 718.223 L1771.95 726.695 Q1772.97 726.348 1773.99 726.186 Q1775.01 726.001 1776.03 726.001 Q1781.82 726.001 1785.2 729.172 Q1788.57 732.343 1788.57 737.76 Q1788.57 743.339 1785.1 746.44 Q1781.63 749.519 1775.31 749.519 Q1773.14 749.519 1770.87 749.149 Q1768.62 748.778 1766.21 748.038 L1766.21 743.339 Q1768.3 744.473 1770.52 745.028 Q1772.74 745.584 1775.22 745.584 Q1779.22 745.584 1781.56 743.478 Q1783.9 741.371 1783.9 737.76 Q1783.9 734.149 1781.56 732.042 Q1779.22 729.936 1775.22 729.936 Q1773.34 729.936 1771.47 730.353 Q1769.62 730.769 1767.67 731.649 L1767.67 714.288 Z" fill="#000000" fill-rule="nonzero" fill-opacity="1" /><path clip-path="url(#clip370)" d="M1807.79 717.367 Q1804.18 717.367 1802.35 720.931 Q1800.54 724.473 1800.54 731.603 Q1800.54 738.709 1802.35 742.274 Q1804.18 745.815 1807.79 745.815 Q1811.42 745.815 1813.23 742.274 Q1815.06 738.709 1815.06 731.603 Q1815.06 724.473 1813.23 720.931 Q1811.42 717.367 1807.79 717.367 M1807.79 713.663 Q1813.6 713.663 1816.65 718.269 Q1819.73 722.853 1819.73 731.603 Q1819.73 740.329 1816.65 744.936 Q1813.6 749.519 1807.79 749.519 Q1801.98 749.519 1798.9 744.936 Q1795.84 740.329 1795.84 731.603 Q1795.84 722.853 1798.9 718.269 Q1801.98 713.663 1807.79 713.663 Z" fill="#000000" fill-rule="nonzero" fill-opacity="1" /><path clip-path="url(#clip370)" d="M2235.76 744.913 L2243.4 744.913 L2243.4 718.547 L2235.09 720.214 L2235.09 715.955 L2243.35 714.288 L2248.02 714.288 L2248.02 744.913 L2255.66 744.913 L2255.66 748.848 L2235.76 748.848 L2235.76 744.913 Z" fill="#000000" fill-rule="nonzero" fill-opacity="1" /><path clip-path="url(#clip370)" d="M2275.11 717.367 Q2271.5 717.367 2269.67 720.931 Q2267.86 724.473 2267.86 731.603 Q2267.86 738.709 2269.67 742.274 Q2271.5 745.815 2275.11 745.815 Q2278.74 745.815 2280.55 742.274 Q2282.38 738.709 2282.38 731.603 Q2282.38 724.473 2280.55 720.931 Q2278.74 717.367 2275.11 717.367 M2275.11 713.663 Q2280.92 713.663 2283.97 718.269 Q2287.05 722.853 2287.05 731.603 Q2287.05 740.329 2283.97 744.936 Q2280.92 749.519 2275.11 749.519 Q2269.3 749.519 2266.22 744.936 Q2263.16 740.329 2263.16 731.603 Q2263.16 722.853 2266.22 718.269 Q2269.3 713.663 2275.11 713.663 Z" fill="#000000" fill-rule="nonzero" fill-opacity="1" /><path clip-path="url(#clip370)" d="M2305.27 717.367 Q2301.66 717.367 2299.83 720.931 Q2298.02 724.473 2298.02 731.603 Q2298.02 738.709 2299.83 742.274 Q2301.66 745.815 2305.27 745.815 Q2308.9 745.815 2310.71 742.274 Q2312.54 738.709 2312.54 731.603 Q2312.54 724.473 2310.71 720.931 Q2308.9 717.367 2305.27 717.367 M2305.27 713.663 Q2311.08 713.663 2314.14 718.269 Q2317.21 722.853 2317.21 731.603 Q2317.21 740.329 2314.14 744.936 Q2311.08 749.519 2305.27 749.519 Q2299.46 749.519 2296.38 744.936 Q2293.33 740.329 2293.33 731.603 Q2293.33 722.853 2296.38 718.269 Q2299.46 713.663 2305.27 713.663 Z" fill="#000000" fill-rule="nonzero" fill-opacity="1" /><path clip-path="url(#clip370)" d="M2335.43 717.367 Q2331.82 717.367 2329.99 720.931 Q2328.19 724.473 2328.19 731.603 Q2328.19 738.709 2329.99 742.274 Q2331.82 745.815 2335.43 745.815 Q2339.07 745.815 2340.87 742.274 Q2342.7 738.709 2342.7 731.603 Q2342.7 724.473 2340.87 720.931 Q2339.07 717.367 2335.43 717.367 M2335.43 713.663 Q2341.24 713.663 2344.3 718.269 Q2347.38 722.853 2347.38 731.603 Q2347.38 740.329 2344.3 744.936 Q2341.24 749.519 2335.43 749.519 Q2329.62 749.519 2326.54 744.936 Q2323.49 740.329 2323.49 731.603 Q2323.49 722.853 2326.54 718.269 Q2329.62 713.663 2335.43 713.663 Z" fill="#000000" fill-rule="nonzero" fill-opacity="1" /><polyline clip-path="url(#clip370)" style="stroke:#000000; stroke-linecap:round; stroke-linejoin:round; stroke-width:4; stroke-opacity:1; fill:none" points="178.867,686.448 178.867,47.2441 "/>
<polyline clip-path="url(#clip370)" style="stroke:#000000; stroke-linecap:round; stroke-linejoin:round; stroke-width:4; stroke-opacity:1; fill:none" points="178.867,686.448 197.764,686.448 "/>
<polyline clip-path="url(#clip370)" style="stroke:#000000; stroke-linecap:round; stroke-linejoin:round; stroke-width:4; stroke-opacity:1; fill:none" points="178.867,526.647 197.764,526.647 "/>
<polyline clip-path="url(#clip370)" style="stroke:#000000; stroke-linecap:round; stroke-linejoin:round; stroke-width:4; stroke-opacity:1; fill:none" points="178.867,366.846 197.764,366.846 "/>
<polyline clip-path="url(#clip370)" style="stroke:#000000; stroke-linecap:round; stroke-linejoin:round; stroke-width:4; stroke-opacity:1; fill:none" points="178.867,207.045 197.764,207.045 "/>
<polyline clip-path="url(#clip370)" style="stroke:#000000; stroke-linecap:round; stroke-linejoin:round; stroke-width:4; stroke-opacity:1; fill:none" points="178.867,47.2441 197.764,47.2441 "/>
<path clip-path="url(#clip370)" d="M50.9921 686.899 L80.6679 686.899 L80.6679 690.834 L50.9921 690.834 L50.9921 686.899 Z" fill="#000000" fill-rule="nonzero" fill-opacity="1" /><path clip-path="url(#clip370)" d="M91.5706 699.793 L99.2095 699.793 L99.2095 673.427 L90.8993 675.094 L90.8993 670.835 L99.1632 669.168 L103.839 669.168 L103.839 699.793 L111.478 699.793 L111.478 703.728 L91.5706 703.728 L91.5706 699.793 Z" fill="#000000" fill-rule="nonzero" fill-opacity="1" /><path clip-path="url(#clip370)" d="M130.922 672.247 Q127.311 672.247 125.482 675.811 Q123.677 679.353 123.677 686.483 Q123.677 693.589 125.482 697.154 Q127.311 700.695 130.922 700.695 Q134.556 700.695 136.362 697.154 Q138.191 693.589 138.191 686.483 Q138.191 679.353 136.362 675.811 Q134.556 672.247 130.922 672.247 M130.922 668.543 Q136.732 668.543 139.788 673.149 Q142.867 677.733 142.867 686.483 Q142.867 695.209 139.788 699.816 Q136.732 704.399 130.922 704.399 Q125.112 704.399 122.033 699.816 Q118.978 695.209 118.978 686.483 Q118.978 677.733 122.033 673.149 Q125.112 668.543 130.922 668.543 Z" fill="#000000" fill-rule="nonzero" fill-opacity="1" /><path clip-path="url(#clip370)" d="M82.1494 527.098 L111.825 527.098 L111.825 531.033 L82.1494 531.033 L82.1494 527.098 Z" fill="#000000" fill-rule="nonzero" fill-opacity="1" /><path clip-path="url(#clip370)" d="M121.964 509.367 L140.32 509.367 L140.32 513.302 L126.246 513.302 L126.246 521.774 Q127.265 521.427 128.283 521.265 Q129.302 521.08 130.32 521.08 Q136.107 521.08 139.487 524.251 Q142.867 527.422 142.867 532.839 Q142.867 538.418 139.394 541.52 Q135.922 544.598 129.603 544.598 Q127.427 544.598 125.158 544.228 Q122.913 543.857 120.506 543.117 L120.506 538.418 Q122.589 539.552 124.811 540.108 Q127.033 540.663 129.51 540.663 Q133.515 540.663 135.853 538.557 Q138.191 536.45 138.191 532.839 Q138.191 529.228 135.853 527.121 Q133.515 525.015 129.51 525.015 Q127.635 525.015 125.76 525.432 Q123.908 525.848 121.964 526.728 L121.964 509.367 Z" fill="#000000" fill-rule="nonzero" fill-opacity="1" /><path clip-path="url(#clip370)" d="M130.922 352.645 Q127.311 352.645 125.482 356.209 Q123.677 359.751 123.677 366.881 Q123.677 373.987 125.482 377.552 Q127.311 381.094 130.922 381.094 Q134.556 381.094 136.362 377.552 Q138.191 373.987 138.191 366.881 Q138.191 359.751 136.362 356.209 Q134.556 352.645 130.922 352.645 M130.922 348.941 Q136.732 348.941 139.788 353.547 Q142.867 358.131 142.867 366.881 Q142.867 375.608 139.788 380.214 Q136.732 384.797 130.922 384.797 Q125.112 384.797 122.033 380.214 Q118.978 375.608 118.978 366.881 Q118.978 358.131 122.033 353.547 Q125.112 348.941 130.922 348.941 Z" fill="#000000" fill-rule="nonzero" fill-opacity="1" /><path clip-path="url(#clip370)" d="M121.964 189.765 L140.32 189.765 L140.32 193.7 L126.246 193.7 L126.246 202.172 Q127.265 201.825 128.283 201.663 Q129.302 201.478 130.32 201.478 Q136.107 201.478 139.487 204.649 Q142.867 207.82 142.867 213.237 Q142.867 218.816 139.394 221.918 Q135.922 224.996 129.603 224.996 Q127.427 224.996 125.158 224.626 Q122.913 224.256 120.506 223.515 L120.506 218.816 Q122.589 219.95 124.811 220.506 Q127.033 221.061 129.51 221.061 Q133.515 221.061 135.853 218.955 Q138.191 216.848 138.191 213.237 Q138.191 209.626 135.853 207.52 Q133.515 205.413 129.51 205.413 Q127.635 205.413 125.76 205.83 Q123.908 206.246 121.964 207.126 L121.964 189.765 Z" fill="#000000" fill-rule="nonzero" fill-opacity="1" /><path clip-path="url(#clip370)" d="M91.5706 60.5889 L99.2095 60.5889 L99.2095 34.2233 L90.8993 35.89 L90.8993 31.6308 L99.1632 29.9641 L103.839 29.9641 L103.839 60.5889 L111.478 60.5889 L111.478 64.5241 L91.5706 64.5241 L91.5706 60.5889 Z" fill="#000000" fill-rule="nonzero" fill-opacity="1" /><path clip-path="url(#clip370)" d="M130.922 33.0428 Q127.311 33.0428 125.482 36.6076 Q123.677 40.1492 123.677 47.2788 Q123.677 54.3853 125.482 57.9501 Q127.311 61.4917 130.922 61.4917 Q134.556 61.4917 136.362 57.9501 Q138.191 54.3853 138.191 47.2788 Q138.191 40.1492 136.362 36.6076 Q134.556 33.0428 130.922 33.0428 M130.922 29.3391 Q136.732 29.3391 139.788 33.9456 Q142.867 38.5289 142.867 47.2788 Q142.867 56.0056 139.788 60.6121 Q136.732 65.1954 130.922 65.1954 Q125.112 65.1954 122.033 60.6121 Q118.978 56.0056 118.978 47.2788 Q118.978 38.5289 122.033 33.9456 Q125.112 29.3391 130.922 29.3391 Z" fill="#000000" fill-rule="nonzero" fill-opacity="1" /><polyline clip-path="url(#clip372)" style="stroke:#009af9; stroke-linecap:round; stroke-linejoin:round; stroke-width:4; stroke-opacity:1; fill:none" points="240.392,334.886 242.445,333.405 244.498,331.412 246.55,331.875 248.603,322.195 250.656,315.632 252.709,315.705 254.762,326.359 256.815,326.365 258.868,331.219 260.921,331.569 262.974,328.658 265.027,329.301 267.079,329.091 269.132,346.743 271.185,366.527 273.238,356.544 275.291,357.89 277.344,357.141 279.397,355.925 281.45,356.245 283.503,357.877 285.555,360.418 287.608,370.181 289.661,369.718 291.714,367.469 293.767,360.236 295.82,360.161 297.873,361.118 299.926,370.116 301.979,370.196 304.031,369.952 306.084,372.04 308.137,372.356 310.19,380.851 312.243,378.612 314.296,371.652 316.349,364.265 318.402,363.705 320.455,363.915 322.507,354.078 324.56,354.108 326.613,358.871 328.666,356.735 330.719,355.207 332.772,355.643 334.825,360.054 336.878,358.76 338.931,361.205 340.984,364.459 343.036,367.433 345.089,365.986 347.142,364.934 349.195,366.053 351.248,362.98 353.301,366.012 355.354,377.524 357.407,378.252 359.46,348.929 361.512,348.908 363.565,346.208 365.618,346.402 367.671,335.85 369.724,340.153 371.777,385.9 373.83,387.163 375.883,387.586 377.936,377.093 379.988,376.237 382.041,376.387 384.094,382.229 386.147,357.923 388.2,364.49 390.253,356.712 392.306,375.023 394.359,380.098 396.412,380.142 398.464,378.164 400.517,378.204 402.57,364.575 404.623,379.827 406.676,380.308 408.729,375.82 410.782,378.679 412.835,375.408 414.888,375.579 416.94,361.66 418.993,370.657 421.046,349.178 423.099,347.906 425.152,343.404 427.205,346.971 429.258,339.683 431.311,339.683 433.364,335.238 435.417,339.177 437.469,337.336 439.522,338.564 441.575,340.358 443.628,340.561 445.681,340.586 447.734,341.373 449.787,375.706 451.84,367.41 453.893,372.112 455.945,374.905 457.998,374.952 460.051,375.468 462.104,339.235 464.157,343.342 466.21,337.659 468.263,337.702 470.316,336.816 472.369,336.044 474.421,358.521 476.474,359.186 478.527,364.218 480.58,363.937 482.633,376.538 484.686,323.587 486.739,339.682 488.792,340.369 490.845,342.419 492.897,350.531 494.95,373.585 497.003,379.666 499.056,365.025 501.109,364.885 503.162,364.844 505.215,361.493 507.268,359.513 509.321,359.737 511.374,356.654 513.426,357.799 515.479,360.17 517.532,360.065 519.585,355.048 521.638,370.9 523.691,364.959 525.744,361.38 527.797,364.302 529.85,361 531.902,377.689 533.955,385.44 536.008,372.187 538.061,413.508 540.114,413.504 542.167,367.885 544.22,370.148 546.273,372.294 548.326,373.619 550.378,370.759 552.431,371.159 554.484,365.418 556.537,367.569 558.59,364.823 560.643,364.135 562.696,364.106 564.749,359.358 566.802,359.168 568.854,356.469 570.907,356.59 572.96,356.553 575.013,355.384 577.066,363.529 579.119,391.871 581.172,391.096 583.225,383.63 585.278,383.65 587.331,380.427 589.383,380.427 591.436,382.067 593.489,382.304 595.542,379.985 597.595,369.521 599.648,369.529 601.701,345.238 603.754,355.046 605.807,354.485 607.859,344.631 609.912,344.233 611.965,344.232 614.018,339.638 616.071,345.06 618.124,344.984 620.177,347.479 622.23,347.479 624.283,340.443 626.335,334.938 628.388,367.223 630.441,366.497 632.494,366.466 634.547,366.385 636.6,395.765 638.653,393.921 640.706,393.457 642.759,393.075 644.811,393.028 646.864,393.076 648.917,392.659 650.97,363.081 653.023,363.92 655.076,367.948 657.129,367.435 659.182,359.571 661.235,359.832 663.288,366.312 665.34,366.527 667.393,364.105 669.446,347.092 671.499,367.868 673.552,367.86 675.605,366.331 677.658,366.752 679.711,365.614 681.764,365.91 683.816,363.524 685.869,364.676 687.922,364.863 689.975,387.396 692.028,397.246 694.081,394.517 696.134,372.146 698.187,351.187 700.24,357.317 702.292,356.079 704.345,351.781 706.398,351.8 708.451,355.241 710.504,353.518 712.557,354.176 714.61,349.426 716.663,349.888 718.716,351.469 720.768,375.073 722.821,375.345 724.874,375.948 726.927,374.874 728.98,374.883 731.033,369.929 733.086,378.393 735.139,398.125 737.192,403.796 739.245,404.01 741.297,425.33 743.35,415.638 745.403,414.479 747.456,421.22 749.509,420.468 751.562,420.234 753.615,414.213 755.668,365.809 757.721,365.425 759.773,355.373 761.826,354.998 763.879,427.737 765.932,427.008 767.985,426.016 770.038,429.557 772.091,423.293 774.144,430.253 776.197,405.816 778.249,409.675 780.302,400.995 782.355,400.258 784.408,440.989 786.461,361.014 788.514,304.377 790.567,306.625 792.62,374.042 794.673,378.264 796.725,357.903 798.778,353.719 800.831,459.536 802.884,463.18 804.937,463.251 806.99,468.22 809.043,476.337 811.096,473.756 813.149,507.274 815.202,526.732 817.254,565.811 819.307,569.337 821.36,578.936 823.413,582.548 825.466,565.249 827.519,257.119 829.572,296.323 831.625,308.964 833.678,347.393 835.73,373.328 837.783,382.046 839.836,366.966 841.889,366.621 843.942,368.395 845.995,328.728 848.048,421.559 850.101,422.317 852.154,316.654 854.206,323.094 856.259,366.796 858.312,364.992 860.365,375.083 862.418,400.805 864.471,405.874 866.524,263.809 868.577,247.556 870.63,326.473 872.682,328.628 874.735,323.402 876.788,327.842 878.841,286.273 880.894,280.918 882.947,260.259 885,388.238 887.053,387.914 889.106,406.497 891.159,407.008 893.211,426.999 895.264,288.382 897.317,288.574 899.37,236.36 901.423,378.056 903.476,449.997 905.529,446.506 907.582,377.655 909.635,397.733 911.687,400.547 913.74,487.357 915.793,376.722 917.846,421.514 919.899,421.009 921.952,420.547 924.005,389.24 926.058,362.25 928.111,354.528 930.163,355.067 932.216,348.501 934.269,347.371 936.322,344.86 938.375,316.149 940.428,302.208 942.481,300.019 944.534,380.35 946.587,378.663 948.639,377.703 950.692,377.465 952.745,373.405 954.798,379.25 956.851,378.905 958.904,417.513 960.957,416.658 963.01,417.656 965.063,417.533 967.116,417.685 969.168,416.281 971.221,410.753 973.274,399.062 975.327,409.457 977.38,407.058 979.433,399.819 981.486,399.457 983.539,390.922 985.592,351.876 987.644,352.64 989.697,352.344 991.75,384.418 993.803,382.479 995.856,348.067 997.909,353.772 999.962,347.167 1002.01,380.516 1004.07,379.39 1006.12,389.557 1008.17,389.533 1010.23,371.513 1012.28,369.221 1014.33,369.625 1016.38,369.291 1018.44,373.375 1020.49,369.981 1022.54,370.557 1024.6,358.747 1026.65,347.892 1028.7,327.213 1030.76,335.594 1032.81,338.664 1034.86,342.839 1036.91,341.726 1038.97,337.704 1041.02,320.636 1043.07,320.495 1045.13,412.632 1047.18,406.131 1049.23,404.448 1051.28,405.032 1053.34,405.858 1055.39,405.813 1057.44,386.314 1059.5,386.06 1061.55,386.061 1063.6,386.058 1065.65,389.338 1067.71,385.061 1069.76,416.226 1071.81,399.833 1073.87,400.075 1075.92,398.832 1077.97,397.543 1080.02,395.73 1082.08,414.341 1084.13,412.455 1086.18,385.578 1088.24,385.399 1090.29,388.685 1092.34,389.652 1094.39,392.615 1096.45,367.333 1098.5,366.604 1100.55,366.286 1102.61,366.213 1104.66,367.334 1106.71,367.36 1108.77,389.007 1110.82,389.317 1112.87,379.258 1114.92,384.025 1116.98,385.435 1119.03,411.612 1121.08,411.734 1123.14,391.125 1125.19,392.912 1127.24,390.586 1129.29,389.838 1131.35,388.438 1133.4,383.162 1135.45,401.813 1137.51,401.125 1139.56,375.076 1141.61,348.301 1143.66,344.023 1145.72,369.968 1147.77,371.074 1149.82,311.407 1151.88,308.963 1153.93,176.586 1155.98,221.162 1158.03,151.512 1160.09,227.631 1162.14,227.511 1164.19,196.385 1166.25,196.364 1168.3,196.651 1170.35,199.934 1172.4,214.765 1174.46,208.746 1176.51,249.907 1178.56,245.969 1180.62,247.564 1182.67,220.065 1184.72,216.778 1186.77,211.458 1188.83,399.733 1190.88,394.96 1192.93,394.249 1194.99,393.462 1197.04,391.448 1199.09,543.675 1201.15,536.575 1203.2,532.611 1205.25,466.202 1207.3,438.362 1209.36,427.684 1211.41,427.641 1213.46,389.183 1215.52,383.517 1217.57,376.953 1219.62,415.878 1221.67,264.796 1223.73,319.953 1225.78,313.005 1227.83,305.461 1229.89,402.642 1231.94,403.419 1233.99,403.15 1236.04,387.423 1238.1,343.234 1240.15,347.263 1242.2,344.573 1244.26,343.99 1246.31,343.863 1248.36,343.763 1250.41,341.841 1252.47,324.775 1254.52,326.784 1256.57,329.296 1258.63,329.931 1260.68,329.767 1262.73,316.382 1264.78,316.396 1266.84,314.781 1268.89,315.878 1270.94,316.523 1273,313.251 1275.05,312.557 1277.1,313.232 1279.16,329.486 1281.21,329.596 1283.26,331.603 1285.31,327.121 1287.37,326.113 1289.42,333.669 1291.47,332.251 1293.53,362.174 1295.58,337.339 1297.63,346.912 1299.68,394.309 1301.74,393.93 1303.79,395.647 1305.84,399.411 1307.9,400.494 1309.95,250.22 1312,277.983 1314.05,444.618 1316.11,446.196 1318.16,473.103 1320.21,459.988 1322.27,444.39 1324.32,443.67 1326.37,475.32 1328.42,520.826 1330.48,528.828 1332.53,518.714 1334.58,521.156 1336.64,489.002 1338.69,364.338 1340.74,360.41 1342.79,360.819 1344.85,365.754 1346.9,323.152 1348.95,420.049 1351.01,384.987 1353.06,388.541 1355.11,390.526 1357.16,392.125 1359.22,392.528 1361.27,443.485 1363.32,475.382 1365.38,457.777 1367.43,440.622 1369.48,442.527 1371.54,396.712 1373.59,351.912 1375.64,350.824 1377.69,373.453 1379.75,379.289 1381.8,379.278 1383.85,314.33 1385.91,364.311 1387.96,368.402 1390.01,400.298 1392.06,402.633 1394.12,392.264 1396.17,391.765 1398.22,391.446 1400.28,390.958 1402.33,373.081 1404.38,368.38 1406.43,377.844 1408.49,375.932 1410.54,374.05 1412.59,392.463 1414.65,392.647 1416.7,402.898 1418.75,401.077 1420.8,398.273 1422.86,363.009 1424.91,364.742 1426.96,404.29 1429.02,404.301 1431.07,397.947 1433.12,399.463 1435.17,390.956 1437.23,389.479 1439.28,389.11 1441.33,380.937 1443.39,383.652 1445.44,381.406 1447.49,382.852 1449.55,368.841 1451.6,372.605 1453.65,372.402 1455.7,373.06 1457.76,371.457 1459.81,371.368 1461.86,361.043 1463.92,361.025 1465.97,371.928 1468.02,347.218 1470.07,359.637 1472.13,372.778 1474.18,372.782 1476.23,366.711 1478.29,366.571 1480.34,366.376 1482.39,363.649 1484.44,370.196 1486.5,375.729 1488.55,376.231 1490.6,376.92 1492.66,383.992 1494.71,383.695 1496.76,384.908 1498.81,388.53 1500.87,390.776 1502.92,376.597 1504.97,369.761 1507.03,350.818 1509.08,350.269 1511.13,350.529 1513.18,349.858 1515.24,349.821 1517.29,348.094 1519.34,351.783 1521.4,413.855 1523.45,310.651 1525.5,307.543 1527.55,314.889 1529.61,316.522 1531.66,322.742 1533.71,342.059 1535.77,343.214 1537.82,335.921 1539.87,337.45 1541.93,342.685 1543.98,332.743 1546.03,315.022 1548.08,320.778 1550.14,313.721 1552.19,281.087 1554.24,279.359 1556.3,280.624 1558.35,280.652 1560.4,341.433 1562.45,341.467 1564.51,341.462 1566.56,343.365 1568.61,343.767 1570.67,341.272 1572.72,386.994 1574.77,385.121 1576.82,384.951 1578.88,373.803 1580.93,373.134 1582.98,373.126 1585.04,387.302 1587.09,341.863 1589.14,342.751 1591.19,342.317 1593.25,367.599 1595.3,386.134 1597.35,385.04 1599.41,385.153 1601.46,380.195 1603.51,364.507 1605.56,392.357 1607.62,391.839 1609.67,390.638 1611.72,390.64 1613.78,390.978 1615.83,393.9 1617.88,398.193 1619.94,395.452 1621.99,395.106 1624.04,395.113 1626.09,394.983 1628.15,395.883 1630.2,396.011 1632.25,396.356 1634.31,400.26 1636.36,401.364 1638.41,400.094 1640.46,354.742 1642.52,354.165 1644.57,353.893 1646.62,351.463 1648.68,361.073 1650.73,361.435 1652.78,361.215 1654.83,367.604 1656.89,324.371 1658.94,332.03 1660.99,332.295 1663.05,333.336 1665.1,333.416 1667.15,333.234 1669.2,340.392 1671.26,335.716 1673.31,328.936 1675.36,328.202 1677.42,323.622 1679.47,383.452 1681.52,383.466 1683.57,382.466 1685.63,379.672 1687.68,382.699 1689.73,378.263 1691.79,377.599 1693.84,420 1695.89,407.795 1697.94,401.886 1700,362.654 1702.05,369.804 1704.1,370.678 1706.16,376.452 1708.21,356.225 1710.26,356.321 1712.32,356.325 1714.37,357.432 1716.42,357.848 1718.47,357.715 1720.53,357.093 1722.58,356.792 1724.63,354.414 1726.69,356.165 1728.74,327.675 1730.79,334.776 1732.84,330.619 1734.9,396.732 1736.95,393.731 1739,394.205 1741.06,395.748 1743.11,377.365 1745.16,377.285 1747.21,371.875 1749.27,363.566 1751.32,417.219 1753.37,418.169 1755.43,420.879 1757.48,420.988 1759.53,405.223 1761.58,402.716 1763.64,402.531 1765.69,406.884 1767.74,407.091 1769.8,422.121 1771.85,405.523 1773.9,398.981 1775.95,413.695 1778.01,413.753 1780.06,424.957 1782.11,426.718 1784.17,427.118 1786.22,426.584 1788.27,424.856 1790.33,420.332 1792.38,419.543 1794.43,418.903 1796.48,414.118 1798.54,407.573 1800.59,406.765 1802.64,408.738 1804.7,410.134 1806.75,387.129 1808.8,387.318 1810.85,359.051 1812.91,343.229 1814.96,344.035 1817.01,342.364 1819.07,343.323 1821.12,345.053 1823.17,340.993 1825.22,389.191 1827.28,389.82 1829.33,389.986 1831.38,384.685 1833.44,385.049 1835.49,384.763 1837.54,401.733 1839.59,373.058 1841.65,373.304 1843.7,368.719 1845.75,374.65 1847.81,363.755 1849.86,363.288 1851.91,362.837 1853.96,363.269 1856.02,363.431 1858.07,361.223 1860.12,377.948 1862.18,366.346 1864.23,367.037 1866.28,366.811 1868.34,368.125 1870.39,369.813 1872.44,369.84 1874.49,390.448 1876.55,390.193 1878.6,384.858 1880.65,383.076 1882.71,391.126 1884.76,363.026 1886.81,362.592 1888.86,363.392 1890.92,340.946 1892.97,357.691 1895.02,361.007 1897.08,359.651 1899.13,351.961 1901.18,352.748 1903.23,328.814 1905.29,319.546 1907.34,322.226 1909.39,322.226 1911.45,331.111 1913.5,339.975 1915.55,339.891 1917.6,351.062 1919.66,368.472 1921.71,360.293 1923.76,359.802 1925.82,359.799 1927.87,400.628 1929.92,383.276 1931.97,374.903 1934.03,377.799 1936.08,378.492 1938.13,374.435 1940.19,375.084 1942.24,382.279 1944.29,381.601 1946.34,383.673 1948.4,383.31 1950.45,387.016 1952.5,379.227 1954.56,378.602 1956.61,379.07 1958.66,338.233 1960.72,339.832 1962.77,339.845 1964.82,369.047 1966.87,327.966 1968.93,340.678 1970.98,342.058 1973.03,386.242 1975.09,384.336 1977.14,309.938 1979.19,309.944 1981.24,327.682 1983.3,374.966 1985.35,359.395 1987.4,357.747 1989.46,358.59 1991.51,358.762 1993.56,400.842 1995.61,412.557 1997.67,411.594 1999.72,373.459 2001.77,370.758 2003.83,370.737 2005.88,396.678 2007.93,396.255 2009.98,351.505 2012.04,347.179 2014.09,367.538 2016.14,371.299 2018.2,368.272 2020.25,364.068 2022.3,438.112 2024.35,436.354 2026.41,414.686 2028.46,428.635 2030.51,320.193 2032.57,321.134 2034.62,338.144 2036.67,338.787 2038.73,370.765 2040.78,375.339 2042.83,373.113 2044.88,310.543 2046.94,370.153 2048.99,429.979 2051.04,429.89 2053.1,426.877 2055.15,426.843 2057.2,457.851 2059.25,463.414 2061.31,436.181 2063.36,423.573 2065.41,453.063 2067.47,475.463 2069.52,474.939 2071.57,391.638 2073.62,384.718 2075.68,382.108 2077.73,381.966 2079.78,384.934 2081.84,383.034 2083.89,356.019 2085.94,352.04 2087.99,352.496 2090.05,351.461 2092.1,351.152 2094.15,347.772 2096.21,335.583 2098.26,336.037 2100.31,345.17 2102.36,370.611 2104.42,368.694 2106.47,369.137 2108.52,429.939 2110.58,401.525 2112.63,395.818 2114.68,406.173 2116.73,408.674 2118.79,409.478 2120.84,456.325 2122.89,462.263 2124.95,496.858 2127,462.483 2129.05,470.81 2131.11,373.292 2133.16,373.754 2135.21,369.388 2137.26,369.155 2139.32,370.12 2141.37,370.222 2143.42,364.653 2145.48,416.156 2147.53,407.673 2149.58,409.496 2151.63,406.033 2153.69,404.156 2155.74,423.407 2157.79,417.732 2159.85,333.319 2161.9,336.397 2163.95,345.755 2166,345.562 2168.06,334.661 2170.11,343.906 2172.16,345.121 2174.22,339.117 2176.27,338.876 2178.32,340.52 2180.37,336.915 2182.43,337.187 2184.48,359.054 2186.53,359.078 2188.59,356.872 2190.64,379.206 2192.69,380.125 2194.74,380.168 2196.8,384.537 2198.85,384.826 2200.9,388.046 2202.96,405.06 2205.01,362.073 2207.06,381.916 2209.12,381.925 2211.17,383.905 2213.22,383.875 2215.27,381.499 2217.33,381.234 2219.38,364.53 2221.43,352.211 2223.49,350.447 2225.54,333.613 2227.59,330.579 2229.64,325.581 2231.7,321.298 2233.75,291.056 2235.8,291.159 2237.86,299.207 2239.91,313.067 2241.96,326.235 2244.01,392.852 2246.07,415.306 2248.12,413.687 2250.17,448.168 2252.23,502.89 2254.28,543.634 2256.33,549.746 2258.38,544.901 2260.44,588.131 2262.49,579.361 2264.54,561.387 2266.6,562.144 2268.65,421.289 2270.7,553.768 2272.75,544.163 2274.81,545.41 2276.86,444.549 2278.91,531.194 2280.97,525.669 2283.02,592.29 2285.07,594.853 2287.12,381.109 2289.18,381.167 2291.23,381.745 "/>
<path clip-path="url(#clip370)" d="M1983.6 172.231 L2280.29 172.231 L2280.29 68.5509 L1983.6 68.5509  Z" fill="#ffffff" fill-rule="evenodd" fill-opacity="1"/>
<polyline clip-path="url(#clip370)" style="stroke:#000000; stroke-linecap:round; stroke-linejoin:round; stroke-width:4; stroke-opacity:1; fill:none" points="1983.6,172.231 2280.29,172.231 2280.29,68.5509 1983.6,68.5509 1983.6,172.231 "/>
<polyline clip-path="url(#clip370)" style="stroke:#009af9; stroke-linecap:round; stroke-linejoin:round; stroke-width:4; stroke-opacity:1; fill:none" points="2007.75,120.391 2152.68,120.391 "/>
<path clip-path="url(#clip370)" d="M2176.83 103.111 L2181.51 103.111 L2181.51 133.736 L2198.34 133.736 L2198.34 137.671 L2176.83 137.671 L2176.83 103.111 Z" fill="#000000" fill-rule="nonzero" fill-opacity="1" /><path clip-path="url(#clip370)" d="M2223.96 104.245 L2223.96 108.805 Q2221.3 107.532 2218.94 106.907 Q2216.58 106.282 2214.38 106.282 Q2210.56 106.282 2208.48 107.764 Q2206.42 109.245 2206.42 111.977 Q2206.42 114.268 2207.78 115.449 Q2209.17 116.606 2213.01 117.324 L2215.84 117.902 Q2221.07 118.898 2223.55 121.421 Q2226.05 123.921 2226.05 128.134 Q2226.05 133.157 2222.67 135.75 Q2219.31 138.342 2212.81 138.342 Q2210.35 138.342 2207.57 137.787 Q2204.82 137.231 2201.86 136.143 L2201.86 131.328 Q2204.7 132.926 2207.44 133.736 Q2210.17 134.546 2212.81 134.546 Q2216.81 134.546 2218.99 132.972 Q2221.16 131.398 2221.16 128.481 Q2221.16 125.935 2219.59 124.5 Q2218.04 123.064 2214.47 122.347 L2211.62 121.791 Q2206.39 120.75 2204.06 118.527 Q2201.72 116.305 2201.72 112.347 Q2201.72 107.764 2204.94 105.125 Q2208.18 102.486 2213.85 102.486 Q2216.28 102.486 2218.8 102.926 Q2221.32 103.366 2223.96 104.245 Z" fill="#000000" fill-rule="nonzero" fill-opacity="1" /><path clip-path="url(#clip370)" d="M2254.06 104.245 L2254.06 108.805 Q2251.39 107.532 2249.03 106.907 Q2246.67 106.282 2244.47 106.282 Q2240.65 106.282 2238.57 107.764 Q2236.51 109.245 2236.51 111.977 Q2236.51 114.268 2237.87 115.449 Q2239.26 116.606 2243.11 117.324 L2245.93 117.902 Q2251.16 118.898 2253.64 121.421 Q2256.14 123.921 2256.14 128.134 Q2256.14 133.157 2252.76 135.75 Q2249.4 138.342 2242.9 138.342 Q2240.44 138.342 2237.67 137.787 Q2234.91 137.231 2231.95 136.143 L2231.95 131.328 Q2234.8 132.926 2237.53 133.736 Q2240.26 134.546 2242.9 134.546 Q2246.9 134.546 2249.08 132.972 Q2251.25 131.398 2251.25 128.481 Q2251.25 125.935 2249.68 124.5 Q2248.13 123.064 2244.56 122.347 L2241.72 121.791 Q2236.49 120.75 2234.15 118.527 Q2231.81 116.305 2231.81 112.347 Q2231.81 107.764 2235.03 105.125 Q2238.27 102.486 2243.94 102.486 Q2246.37 102.486 2248.89 102.926 Q2251.42 103.366 2254.06 104.245 Z" fill="#000000" fill-rule="nonzero" fill-opacity="1" /><path clip-path="url(#clip370)" d="M178.867 1486.45 L2352.76 1486.45 L2352.76 847.244 L178.867 847.244  Z" fill="#ffffff" fill-rule="evenodd" fill-opacity="1"/>
<defs>
  <clipPath id="clip373">
    <rect x="178" y="847" width="2175" height="640"/>
  </clipPath>
</defs>
<polyline clip-path="url(#clip373)" style="stroke:#000000; stroke-linecap:round; stroke-linejoin:round; stroke-width:2; stroke-opacity:0.1; fill:none" points="238.339,1486.45 238.339,847.244 "/>
<polyline clip-path="url(#clip373)" style="stroke:#000000; stroke-linecap:round; stroke-linejoin:round; stroke-width:2; stroke-opacity:0.1; fill:none" points="751.562,1486.45 751.562,847.244 "/>
<polyline clip-path="url(#clip373)" style="stroke:#000000; stroke-linecap:round; stroke-linejoin:round; stroke-width:2; stroke-opacity:0.1; fill:none" points="1264.78,1486.45 1264.78,847.244 "/>
<polyline clip-path="url(#clip373)" style="stroke:#000000; stroke-linecap:round; stroke-linejoin:round; stroke-width:2; stroke-opacity:0.1; fill:none" points="1778.01,1486.45 1778.01,847.244 "/>
<polyline clip-path="url(#clip373)" style="stroke:#000000; stroke-linecap:round; stroke-linejoin:round; stroke-width:2; stroke-opacity:0.1; fill:none" points="2291.23,1486.45 2291.23,847.244 "/>
<polyline clip-path="url(#clip373)" style="stroke:#000000; stroke-linecap:round; stroke-linejoin:round; stroke-width:2; stroke-opacity:0.1; fill:none" points="178.867,1486.45 2352.76,1486.45 "/>
<polyline clip-path="url(#clip373)" style="stroke:#000000; stroke-linecap:round; stroke-linejoin:round; stroke-width:2; stroke-opacity:0.1; fill:none" points="178.867,1326.65 2352.76,1326.65 "/>
<polyline clip-path="url(#clip373)" style="stroke:#000000; stroke-linecap:round; stroke-linejoin:round; stroke-width:2; stroke-opacity:0.1; fill:none" points="178.867,1166.85 2352.76,1166.85 "/>
<polyline clip-path="url(#clip373)" style="stroke:#000000; stroke-linecap:round; stroke-linejoin:round; stroke-width:2; stroke-opacity:0.1; fill:none" points="178.867,1007.05 2352.76,1007.05 "/>
<polyline clip-path="url(#clip373)" style="stroke:#000000; stroke-linecap:round; stroke-linejoin:round; stroke-width:2; stroke-opacity:0.1; fill:none" points="178.867,847.244 2352.76,847.244 "/>
<polyline clip-path="url(#clip370)" style="stroke:#000000; stroke-linecap:round; stroke-linejoin:round; stroke-width:4; stroke-opacity:1; fill:none" points="178.867,1486.45 2352.76,1486.45 "/>
<polyline clip-path="url(#clip370)" style="stroke:#000000; stroke-linecap:round; stroke-linejoin:round; stroke-width:4; stroke-opacity:1; fill:none" points="238.339,1486.45 238.339,1467.55 "/>
<polyline clip-path="url(#clip370)" style="stroke:#000000; stroke-linecap:round; stroke-linejoin:round; stroke-width:4; stroke-opacity:1; fill:none" points="751.562,1486.45 751.562,1467.55 "/>
<polyline clip-path="url(#clip370)" style="stroke:#000000; stroke-linecap:round; stroke-linejoin:round; stroke-width:4; stroke-opacity:1; fill:none" points="1264.78,1486.45 1264.78,1467.55 "/>
<polyline clip-path="url(#clip370)" style="stroke:#000000; stroke-linecap:round; stroke-linejoin:round; stroke-width:4; stroke-opacity:1; fill:none" points="1778.01,1486.45 1778.01,1467.55 "/>
<polyline clip-path="url(#clip370)" style="stroke:#000000; stroke-linecap:round; stroke-linejoin:round; stroke-width:4; stroke-opacity:1; fill:none" points="2291.23,1486.45 2291.23,1467.55 "/>
<path clip-path="url(#clip370)" d="M238.339 1517.37 Q234.728 1517.37 232.899 1520.93 Q231.094 1524.47 231.094 1531.6 Q231.094 1538.71 232.899 1542.27 Q234.728 1545.82 238.339 1545.82 Q241.973 1545.82 243.779 1542.27 Q245.607 1538.71 245.607 1531.6 Q245.607 1524.47 243.779 1520.93 Q241.973 1517.37 238.339 1517.37 M238.339 1513.66 Q244.149 1513.66 247.205 1518.27 Q250.283 1522.85 250.283 1531.6 Q250.283 1540.33 247.205 1544.94 Q244.149 1549.52 238.339 1549.52 Q232.529 1549.52 229.45 1544.94 Q226.395 1540.33 226.395 1531.6 Q226.395 1522.85 229.45 1518.27 Q232.529 1513.66 238.339 1513.66 Z" fill="#000000" fill-rule="nonzero" fill-opacity="1" /><path clip-path="url(#clip370)" d="M715.254 1544.91 L731.574 1544.91 L731.574 1548.85 L709.629 1548.85 L709.629 1544.91 Q712.291 1542.16 716.875 1537.53 Q721.481 1532.88 722.662 1531.53 Q724.907 1529.01 725.787 1527.27 Q726.689 1525.51 726.689 1523.82 Q726.689 1521.07 724.745 1519.33 Q722.824 1517.6 719.722 1517.6 Q717.523 1517.6 715.069 1518.36 Q712.638 1519.13 709.861 1520.68 L709.861 1515.95 Q712.685 1514.82 715.138 1514.24 Q717.592 1513.66 719.629 1513.66 Q725 1513.66 728.194 1516.35 Q731.388 1519.03 731.388 1523.52 Q731.388 1525.65 730.578 1527.57 Q729.791 1529.47 727.685 1532.07 Q727.106 1532.74 724.004 1535.95 Q720.902 1539.15 715.254 1544.91 Z" fill="#000000" fill-rule="nonzero" fill-opacity="1" /><path clip-path="url(#clip370)" d="M741.435 1514.29 L759.791 1514.29 L759.791 1518.22 L745.717 1518.22 L745.717 1526.7 Q746.736 1526.35 747.754 1526.19 Q748.773 1526 749.791 1526 Q755.578 1526 758.958 1529.17 Q762.337 1532.34 762.337 1537.76 Q762.337 1543.34 758.865 1546.44 Q755.393 1549.52 749.073 1549.52 Q746.898 1549.52 744.629 1549.15 Q742.384 1548.78 739.976 1548.04 L739.976 1543.34 Q742.06 1544.47 744.282 1545.03 Q746.504 1545.58 748.981 1545.58 Q752.985 1545.58 755.323 1543.48 Q757.661 1541.37 757.661 1537.76 Q757.661 1534.15 755.323 1532.04 Q752.985 1529.94 748.981 1529.94 Q747.106 1529.94 745.231 1530.35 Q743.379 1530.77 741.435 1531.65 L741.435 1514.29 Z" fill="#000000" fill-rule="nonzero" fill-opacity="1" /><path clip-path="url(#clip370)" d="M781.55 1517.37 Q777.939 1517.37 776.11 1520.93 Q774.305 1524.47 774.305 1531.6 Q774.305 1538.71 776.11 1542.27 Q777.939 1545.82 781.55 1545.82 Q785.184 1545.82 786.99 1542.27 Q788.819 1538.71 788.819 1531.6 Q788.819 1524.47 786.99 1520.93 Q785.184 1517.37 781.55 1517.37 M781.55 1513.66 Q787.36 1513.66 790.416 1518.27 Q793.495 1522.85 793.495 1531.6 Q793.495 1540.33 790.416 1544.94 Q787.36 1549.52 781.55 1549.52 Q775.74 1549.52 772.661 1544.94 Q769.606 1540.33 769.606 1531.6 Q769.606 1522.85 772.661 1518.27 Q775.74 1513.66 781.55 1513.66 Z" fill="#000000" fill-rule="nonzero" fill-opacity="1" /><path clip-path="url(#clip370)" d="M1224.4 1514.29 L1242.76 1514.29 L1242.76 1518.22 L1228.69 1518.22 L1228.69 1526.7 Q1229.7 1526.35 1230.72 1526.19 Q1231.74 1526 1232.76 1526 Q1238.55 1526 1241.93 1529.17 Q1245.31 1532.34 1245.31 1537.76 Q1245.31 1543.34 1241.83 1546.44 Q1238.36 1549.52 1232.04 1549.52 Q1229.87 1549.52 1227.6 1549.15 Q1225.35 1548.78 1222.94 1548.04 L1222.94 1543.34 Q1225.03 1544.47 1227.25 1545.03 Q1229.47 1545.58 1231.95 1545.58 Q1235.95 1545.58 1238.29 1543.48 Q1240.63 1541.37 1240.63 1537.76 Q1240.63 1534.15 1238.29 1532.04 Q1235.95 1529.94 1231.95 1529.94 Q1230.07 1529.94 1228.2 1530.35 Q1226.35 1530.77 1224.4 1531.65 L1224.4 1514.29 Z" fill="#000000" fill-rule="nonzero" fill-opacity="1" /><path clip-path="url(#clip370)" d="M1264.52 1517.37 Q1260.91 1517.37 1259.08 1520.93 Q1257.27 1524.47 1257.27 1531.6 Q1257.27 1538.71 1259.08 1542.27 Q1260.91 1545.82 1264.52 1545.82 Q1268.15 1545.82 1269.96 1542.27 Q1271.79 1538.71 1271.79 1531.6 Q1271.79 1524.47 1269.96 1520.93 Q1268.15 1517.37 1264.52 1517.37 M1264.52 1513.66 Q1270.33 1513.66 1273.38 1518.27 Q1276.46 1522.85 1276.46 1531.6 Q1276.46 1540.33 1273.38 1544.94 Q1270.33 1549.52 1264.52 1549.52 Q1258.71 1549.52 1255.63 1544.94 Q1252.57 1540.33 1252.57 1531.6 Q1252.57 1522.85 1255.63 1518.27 Q1258.71 1513.66 1264.52 1513.66 Z" fill="#000000" fill-rule="nonzero" fill-opacity="1" /><path clip-path="url(#clip370)" d="M1294.68 1517.37 Q1291.07 1517.37 1289.24 1520.93 Q1287.44 1524.47 1287.44 1531.6 Q1287.44 1538.71 1289.24 1542.27 Q1291.07 1545.82 1294.68 1545.82 Q1298.31 1545.82 1300.12 1542.27 Q1301.95 1538.71 1301.95 1531.6 Q1301.95 1524.47 1300.12 1520.93 Q1298.31 1517.37 1294.68 1517.37 M1294.68 1513.66 Q1300.49 1513.66 1303.55 1518.27 Q1306.62 1522.85 1306.62 1531.6 Q1306.62 1540.33 1303.55 1544.94 Q1300.49 1549.52 1294.68 1549.52 Q1288.87 1549.52 1285.79 1544.94 Q1282.74 1540.33 1282.74 1531.6 Q1282.74 1522.85 1285.79 1518.27 Q1288.87 1513.66 1294.68 1513.66 Z" fill="#000000" fill-rule="nonzero" fill-opacity="1" /><path clip-path="url(#clip370)" d="M1736.28 1514.29 L1758.51 1514.29 L1758.51 1516.28 L1745.96 1548.85 L1741.08 1548.85 L1752.88 1518.22 L1736.28 1518.22 L1736.28 1514.29 Z" fill="#000000" fill-rule="nonzero" fill-opacity="1" /><path clip-path="url(#clip370)" d="M1767.67 1514.29 L1786.03 1514.29 L1786.03 1518.22 L1771.95 1518.22 L1771.95 1526.7 Q1772.97 1526.35 1773.99 1526.19 Q1775.01 1526 1776.03 1526 Q1781.82 1526 1785.2 1529.17 Q1788.57 1532.34 1788.57 1537.76 Q1788.57 1543.34 1785.1 1546.44 Q1781.63 1549.52 1775.31 1549.52 Q1773.14 1549.52 1770.87 1549.15 Q1768.62 1548.78 1766.21 1548.04 L1766.21 1543.34 Q1768.3 1544.47 1770.52 1545.03 Q1772.74 1545.58 1775.22 1545.58 Q1779.22 1545.58 1781.56 1543.48 Q1783.9 1541.37 1783.9 1537.76 Q1783.9 1534.15 1781.56 1532.04 Q1779.22 1529.94 1775.22 1529.94 Q1773.34 1529.94 1771.47 1530.35 Q1769.62 1530.77 1767.67 1531.65 L1767.67 1514.29 Z" fill="#000000" fill-rule="nonzero" fill-opacity="1" /><path clip-path="url(#clip370)" d="M1807.79 1517.37 Q1804.18 1517.37 1802.35 1520.93 Q1800.54 1524.47 1800.54 1531.6 Q1800.54 1538.71 1802.35 1542.27 Q1804.18 1545.82 1807.79 1545.82 Q1811.42 1545.82 1813.23 1542.27 Q1815.06 1538.71 1815.06 1531.6 Q1815.06 1524.47 1813.23 1520.93 Q1811.42 1517.37 1807.79 1517.37 M1807.79 1513.66 Q1813.6 1513.66 1816.65 1518.27 Q1819.73 1522.85 1819.73 1531.6 Q1819.73 1540.33 1816.65 1544.94 Q1813.6 1549.52 1807.79 1549.52 Q1801.98 1549.52 1798.9 1544.94 Q1795.84 1540.33 1795.84 1531.6 Q1795.84 1522.85 1798.9 1518.27 Q1801.98 1513.66 1807.79 1513.66 Z" fill="#000000" fill-rule="nonzero" fill-opacity="1" /><path clip-path="url(#clip370)" d="M2235.76 1544.91 L2243.4 1544.91 L2243.4 1518.55 L2235.09 1520.21 L2235.09 1515.95 L2243.35 1514.29 L2248.02 1514.29 L2248.02 1544.91 L2255.66 1544.91 L2255.66 1548.85 L2235.76 1548.85 L2235.76 1544.91 Z" fill="#000000" fill-rule="nonzero" fill-opacity="1" /><path clip-path="url(#clip370)" d="M2275.11 1517.37 Q2271.5 1517.37 2269.67 1520.93 Q2267.86 1524.47 2267.86 1531.6 Q2267.86 1538.71 2269.67 1542.27 Q2271.5 1545.82 2275.11 1545.82 Q2278.74 1545.82 2280.55 1542.27 Q2282.38 1538.71 2282.38 1531.6 Q2282.38 1524.47 2280.55 1520.93 Q2278.74 1517.37 2275.11 1517.37 M2275.11 1513.66 Q2280.92 1513.66 2283.97 1518.27 Q2287.05 1522.85 2287.05 1531.6 Q2287.05 1540.33 2283.97 1544.94 Q2280.92 1549.52 2275.11 1549.52 Q2269.3 1549.52 2266.22 1544.94 Q2263.16 1540.33 2263.16 1531.6 Q2263.16 1522.85 2266.22 1518.27 Q2269.3 1513.66 2275.11 1513.66 Z" fill="#000000" fill-rule="nonzero" fill-opacity="1" /><path clip-path="url(#clip370)" d="M2305.27 1517.37 Q2301.66 1517.37 2299.83 1520.93 Q2298.02 1524.47 2298.02 1531.6 Q2298.02 1538.71 2299.83 1542.27 Q2301.66 1545.82 2305.27 1545.82 Q2308.9 1545.82 2310.71 1542.27 Q2312.54 1538.71 2312.54 1531.6 Q2312.54 1524.47 2310.71 1520.93 Q2308.9 1517.37 2305.27 1517.37 M2305.27 1513.66 Q2311.08 1513.66 2314.14 1518.27 Q2317.21 1522.85 2317.21 1531.6 Q2317.21 1540.33 2314.14 1544.94 Q2311.08 1549.52 2305.27 1549.52 Q2299.46 1549.52 2296.38 1544.94 Q2293.33 1540.33 2293.33 1531.6 Q2293.33 1522.85 2296.38 1518.27 Q2299.46 1513.66 2305.27 1513.66 Z" fill="#000000" fill-rule="nonzero" fill-opacity="1" /><path clip-path="url(#clip370)" d="M2335.43 1517.37 Q2331.82 1517.37 2329.99 1520.93 Q2328.19 1524.47 2328.19 1531.6 Q2328.19 1538.71 2329.99 1542.27 Q2331.82 1545.82 2335.43 1545.82 Q2339.07 1545.82 2340.87 1542.27 Q2342.7 1538.71 2342.7 1531.6 Q2342.7 1524.47 2340.87 1520.93 Q2339.07 1517.37 2335.43 1517.37 M2335.43 1513.66 Q2341.24 1513.66 2344.3 1518.27 Q2347.38 1522.85 2347.38 1531.6 Q2347.38 1540.33 2344.3 1544.94 Q2341.24 1549.52 2335.43 1549.52 Q2329.62 1549.52 2326.54 1544.94 Q2323.49 1540.33 2323.49 1531.6 Q2323.49 1522.85 2326.54 1518.27 Q2329.62 1513.66 2335.43 1513.66 Z" fill="#000000" fill-rule="nonzero" fill-opacity="1" /><polyline clip-path="url(#clip370)" style="stroke:#000000; stroke-linecap:round; stroke-linejoin:round; stroke-width:4; stroke-opacity:1; fill:none" points="178.867,1486.45 178.867,847.244 "/>
<polyline clip-path="url(#clip370)" style="stroke:#000000; stroke-linecap:round; stroke-linejoin:round; stroke-width:4; stroke-opacity:1; fill:none" points="178.867,1486.45 197.764,1486.45 "/>
<polyline clip-path="url(#clip370)" style="stroke:#000000; stroke-linecap:round; stroke-linejoin:round; stroke-width:4; stroke-opacity:1; fill:none" points="178.867,1326.65 197.764,1326.65 "/>
<polyline clip-path="url(#clip370)" style="stroke:#000000; stroke-linecap:round; stroke-linejoin:round; stroke-width:4; stroke-opacity:1; fill:none" points="178.867,1166.85 197.764,1166.85 "/>
<polyline clip-path="url(#clip370)" style="stroke:#000000; stroke-linecap:round; stroke-linejoin:round; stroke-width:4; stroke-opacity:1; fill:none" points="178.867,1007.05 197.764,1007.05 "/>
<polyline clip-path="url(#clip370)" style="stroke:#000000; stroke-linecap:round; stroke-linejoin:round; stroke-width:4; stroke-opacity:1; fill:none" points="178.867,847.244 197.764,847.244 "/>
<path clip-path="url(#clip370)" d="M50.9921 1486.9 L80.6679 1486.9 L80.6679 1490.83 L50.9921 1490.83 L50.9921 1486.9 Z" fill="#000000" fill-rule="nonzero" fill-opacity="1" /><path clip-path="url(#clip370)" d="M91.5706 1499.79 L99.2095 1499.79 L99.2095 1473.43 L90.8993 1475.09 L90.8993 1470.83 L99.1632 1469.17 L103.839 1469.17 L103.839 1499.79 L111.478 1499.79 L111.478 1503.73 L91.5706 1503.73 L91.5706 1499.79 Z" fill="#000000" fill-rule="nonzero" fill-opacity="1" /><path clip-path="url(#clip370)" d="M130.922 1472.25 Q127.311 1472.25 125.482 1475.81 Q123.677 1479.35 123.677 1486.48 Q123.677 1493.59 125.482 1497.15 Q127.311 1500.7 130.922 1500.7 Q134.556 1500.7 136.362 1497.15 Q138.191 1493.59 138.191 1486.48 Q138.191 1479.35 136.362 1475.81 Q134.556 1472.25 130.922 1472.25 M130.922 1468.54 Q136.732 1468.54 139.788 1473.15 Q142.867 1477.73 142.867 1486.48 Q142.867 1495.21 139.788 1499.82 Q136.732 1504.4 130.922 1504.4 Q125.112 1504.4 122.033 1499.82 Q118.978 1495.21 118.978 1486.48 Q118.978 1477.73 122.033 1473.15 Q125.112 1468.54 130.922 1468.54 Z" fill="#000000" fill-rule="nonzero" fill-opacity="1" /><path clip-path="url(#clip370)" d="M82.1494 1327.1 L111.825 1327.1 L111.825 1331.03 L82.1494 1331.03 L82.1494 1327.1 Z" fill="#000000" fill-rule="nonzero" fill-opacity="1" /><path clip-path="url(#clip370)" d="M121.964 1309.37 L140.32 1309.37 L140.32 1313.3 L126.246 1313.3 L126.246 1321.77 Q127.265 1321.43 128.283 1321.27 Q129.302 1321.08 130.32 1321.08 Q136.107 1321.08 139.487 1324.25 Q142.867 1327.42 142.867 1332.84 Q142.867 1338.42 139.394 1341.52 Q135.922 1344.6 129.603 1344.6 Q127.427 1344.6 125.158 1344.23 Q122.913 1343.86 120.506 1343.12 L120.506 1338.42 Q122.589 1339.55 124.811 1340.11 Q127.033 1340.66 129.51 1340.66 Q133.515 1340.66 135.853 1338.56 Q138.191 1336.45 138.191 1332.84 Q138.191 1329.23 135.853 1327.12 Q133.515 1325.01 129.51 1325.01 Q127.635 1325.01 125.76 1325.43 Q123.908 1325.85 121.964 1326.73 L121.964 1309.37 Z" fill="#000000" fill-rule="nonzero" fill-opacity="1" /><path clip-path="url(#clip370)" d="M130.922 1152.64 Q127.311 1152.64 125.482 1156.21 Q123.677 1159.75 123.677 1166.88 Q123.677 1173.99 125.482 1177.55 Q127.311 1181.09 130.922 1181.09 Q134.556 1181.09 136.362 1177.55 Q138.191 1173.99 138.191 1166.88 Q138.191 1159.75 136.362 1156.21 Q134.556 1152.64 130.922 1152.64 M130.922 1148.94 Q136.732 1148.94 139.788 1153.55 Q142.867 1158.13 142.867 1166.88 Q142.867 1175.61 139.788 1180.21 Q136.732 1184.8 130.922 1184.8 Q125.112 1184.8 122.033 1180.21 Q118.978 1175.61 118.978 1166.88 Q118.978 1158.13 122.033 1153.55 Q125.112 1148.94 130.922 1148.94 Z" fill="#000000" fill-rule="nonzero" fill-opacity="1" /><path clip-path="url(#clip370)" d="M121.964 989.765 L140.32 989.765 L140.32 993.7 L126.246 993.7 L126.246 1002.17 Q127.265 1001.83 128.283 1001.66 Q129.302 1001.48 130.32 1001.48 Q136.107 1001.48 139.487 1004.65 Q142.867 1007.82 142.867 1013.24 Q142.867 1018.82 139.394 1021.92 Q135.922 1025 129.603 1025 Q127.427 1025 125.158 1024.63 Q122.913 1024.26 120.506 1023.51 L120.506 1018.82 Q122.589 1019.95 124.811 1020.51 Q127.033 1021.06 129.51 1021.06 Q133.515 1021.06 135.853 1018.95 Q138.191 1016.85 138.191 1013.24 Q138.191 1009.63 135.853 1007.52 Q133.515 1005.41 129.51 1005.41 Q127.635 1005.41 125.76 1005.83 Q123.908 1006.25 121.964 1007.13 L121.964 989.765 Z" fill="#000000" fill-rule="nonzero" fill-opacity="1" /><path clip-path="url(#clip370)" d="M91.5706 860.589 L99.2095 860.589 L99.2095 834.223 L90.8993 835.89 L90.8993 831.631 L99.1632 829.964 L103.839 829.964 L103.839 860.589 L111.478 860.589 L111.478 864.524 L91.5706 864.524 L91.5706 860.589 Z" fill="#000000" fill-rule="nonzero" fill-opacity="1" /><path clip-path="url(#clip370)" d="M130.922 833.043 Q127.311 833.043 125.482 836.608 Q123.677 840.149 123.677 847.279 Q123.677 854.385 125.482 857.95 Q127.311 861.492 130.922 861.492 Q134.556 861.492 136.362 857.95 Q138.191 854.385 138.191 847.279 Q138.191 840.149 136.362 836.608 Q134.556 833.043 130.922 833.043 M130.922 829.339 Q136.732 829.339 139.788 833.946 Q142.867 838.529 142.867 847.279 Q142.867 856.006 139.788 860.612 Q136.732 865.195 130.922 865.195 Q125.112 865.195 122.033 860.612 Q118.978 856.006 118.978 847.279 Q118.978 838.529 122.033 833.946 Q125.112 829.339 130.922 829.339 Z" fill="#000000" fill-rule="nonzero" fill-opacity="1" /><polyline clip-path="url(#clip373)" style="stroke:#009af9; stroke-linecap:round; stroke-linejoin:round; stroke-width:4; stroke-opacity:1; fill:none" points="240.392,1134.89 242.445,1185.29 244.498,1142.3 246.55,1119.61 248.603,1135.83 250.656,1247.52 252.709,1068.82 254.762,1091.84 256.815,1280.14 258.868,1148.07 260.921,1142.55 262.974,1180.14 265.027,1192.92 267.079,1196.8 269.132,1201.49 271.185,1188.11 273.238,1261.87 275.291,1050 277.344,1328.47 279.397,1176.24 281.45,1178.18 283.503,1199 285.555,1264.45 287.608,1179.45 289.661,1221.42 291.714,1195.26 293.767,1153.88 295.82,1171.2 297.873,1141.57 299.926,1152.1 301.979,1181.98 304.031,1199.45 306.084,1161.39 308.137,1226.36 310.19,1143.47 312.243,1204.25 314.296,1159.2 316.349,1171.27 318.402,1157.05 320.455,1205.92 322.507,1150.19 324.56,1172.87 326.613,1134.29 328.666,1193.37 330.719,1184.15 332.772,1162.25 334.825,1188.45 336.878,1145.88 338.931,1180.08 340.984,1165.81 343.036,1160.24 345.089,1167.99 347.142,1154.16 349.195,1126.86 351.248,1171.1 353.301,1122.51 355.354,1381.6 357.407,1002.21 359.46,789.722 361.512,992.556 363.565,1158.76 365.618,1172.88 367.671,1055.04 369.724,1187.34 371.777,1194.09 373.83,1147.9 375.883,1212.03 377.936,1156.29 379.988,1151.32 382.041,1229.51 384.094,1489.11 386.147,1429.53 388.2,1295.62 390.253,1134.78 392.306,1157.22 394.359,1155.78 396.412,1168 398.464,1159.19 400.517,1176.71 402.57,1580.9 404.623,1621.9 406.676,824.277 408.729,1266.82 410.782,1123.85 412.835,1136.78 414.888,1104.14 416.94,1151.05 418.993,1149.27 421.046,1166.25 423.099,1180.31 425.152,1184.27 427.205,1101.82 429.258,1152.83 431.311,1022.19 433.364,1613.31 435.417,1047.56 437.469,1177.5 439.522,1099.98 441.575,1125.67 443.628,1148.83 445.681,1114.69 447.734,1135.47 449.787,1237.74 451.84,1110.58 453.893,1164.28 455.945,1167.68 457.998,1205.99 460.051,1168.04 462.104,1171.33 464.157,1160.87 466.21,1201.94 468.263,1173.52 470.316,1165.09 472.369,1160.59 474.421,1165.24 476.474,1179.04 478.527,1004.98 480.58,993.97 482.633,1009.66 484.686,1281.2 486.739,1223.03 488.792,1255.48 490.845,834.603 492.897,1147.02 494.95,1305.73 497.003,1353.26 499.056,1251.16 501.109,947.982 503.162,1135.65 505.215,1177.57 507.268,1157.48 509.321,1191.2 511.374,1187.4 513.426,1145.12 515.479,1145.93 517.532,1185.23 519.585,1125.94 521.638,1096.56 523.691,1193.13 525.744,1217.13 527.797,1096.15 529.85,1212.39 531.902,1101.28 533.955,800.994 536.008,1015.09 538.061,1641.41 540.114,1540.5 542.167,1351.82 544.22,965.553 546.273,856.017 548.326,1403.84 550.378,998.181 552.431,1239.4 554.484,1170.35 556.537,1177.91 558.59,1162.63 560.643,1158.95 562.696,1144.93 564.749,1191.27 566.802,1327.25 568.854,1230.76 570.907,1188.54 572.96,353.848 575.013,3262.23 577.066,1296.95 579.119,1248.65 581.172,1145.49 583.225,1115.2 585.278,1158.26 587.331,1163.93 589.383,1145.44 591.436,1196.67 593.489,1206.44 595.542,1182.59 597.595,1213.01 599.648,1120.47 601.701,1298.99 603.754,1168.14 605.807,1201.06 607.859,1124.1 609.912,1219.05 611.965,1115.23 614.018,1121.57 616.071,1279.86 618.124,3115.27 620.177,547.077 622.23,1288.94 624.283,1150.02 626.335,1156.89 628.388,1171.94 630.441,1174.94 632.494,1119.24 634.547,1150.02 636.6,1146.83 638.653,1136.9 640.706,1175.67 642.759,1174.8 644.811,1170.29 646.864,1166.08 648.917,1066.82 650.97,1153.49 653.023,1111.22 655.076,1207.4 657.129,1236.8 659.182,1201.82 661.235,1198.65 663.288,1074.16 665.34,1245.43 667.393,1191.83 669.446,1262.75 671.499,1216.26 673.552,1200.34 675.605,1222.53 677.658,1160.74 679.711,1157.08 681.764,1107.41 683.816,1190.41 685.869,1176.35 687.922,1179.74 689.975,1241.65 692.028,1171.05 694.081,1159.75 696.134,1165.54 698.187,1145.65 700.24,1205.9 702.292,1153.84 704.345,1212.11 706.398,1207.54 708.451,1154.98 710.504,1222.16 712.557,1088.02 714.61,1151.53 716.663,1174.77 718.716,1182.59 720.768,1154.78 722.821,1167.43 724.874,1163.47 726.927,1161 728.98,1171.75 731.033,1153.43 733.086,1164.64 735.139,1166.83 737.192,1166.47 739.245,1194.17 741.297,1111.73 743.35,1104.69 745.403,1097.42 747.456,1139.06 749.509,1152.18 751.562,1325.45 753.615,1132.62 755.668,1188.93 757.721,1145.67 759.773,1199.59 761.826,1161.67 763.879,1170.39 765.932,1192.86 767.985,1209.66 770.038,1113.45 772.091,1105.8 774.144,1176.81 776.197,1199.02 778.249,1216.19 780.302,1175.96 782.355,1063.64 784.408,1261.37 786.461,1197.25 788.514,1145.36 790.567,1126.04 792.62,1131.61 794.673,1108.07 796.725,1268.99 798.778,1115.66 800.831,1171.96 802.884,1174.43 804.937,1153.34 806.99,1185.86 809.043,1160.67 811.096,1112.86 813.149,1175.95 815.202,1158.49 817.254,1186.15 819.307,1173.39 821.36,1148.56 823.413,1134.8 825.466,1163.9 827.519,1159.61 829.572,1097.38 831.625,1239.49 833.678,1067.39 835.73,1193.41 837.783,1182.92 839.836,1252.42 841.889,1281.4 843.942,1205.02 845.995,1130.17 848.048,1215.65 850.101,1166.19 852.154,1145.88 854.206,1169.5 856.259,1173.31 858.312,1113.64 860.365,1131.88 862.418,1190.11 864.471,1178.66 866.524,1153.17 868.577,1218.93 870.63,1089.62 872.682,1228.09 874.735,1158.94 876.788,1213.2 878.841,1051.35 880.894,923.526 882.947,1010.63 885,2871.3 887.053,3164.28 889.106,2192.1 891.159,4610.88 893.211,1331.3 895.264,94.4541 897.317,96.7471 899.37,1222.76 901.423,1119.38 903.476,1182.64 905.529,1162.84 907.582,1153.09 909.635,1130.03 911.687,1183.3 913.74,1164.45 915.793,1057.93 917.846,1072.65 919.899,1060.29 921.952,1144.33 924.005,1201.24 926.058,1210.89 928.111,1135.2 930.163,1135.57 932.216,1141.4 934.269,1236.02 936.322,1138.97 938.375,1163.62 940.428,1165.42 942.481,1178.79 944.534,1128.22 946.587,1107.42 948.639,1158.92 950.692,1163.88 952.745,1166.29 954.798,1167.05 956.851,1172.43 958.904,1175.78 960.957,1205.41 963.01,1135.69 965.063,1283.7 967.116,1258.61 969.168,1011.56 971.221,1171.17 973.274,1212.61 975.327,1144.16 977.38,1174.48 979.433,1172.84 981.486,1142.89 983.539,1154.16 985.592,1153.66 987.644,1171.29 989.697,1209.6 991.75,1197.06 993.803,1276.98 995.856,1152.81 997.909,1194.88 999.962,1189.63 1002.01,1212.66 1004.07,1205.35 1006.12,1131.99 1008.17,1207.2 1010.23,1110.37 1012.28,1116.69 1014.33,1133.84 1016.38,1173.08 1018.44,1177.44 1020.49,1178.58 1022.54,1185.66 1024.6,1166.35 1026.65,1163 1028.7,1172.58 1030.76,1170.98 1032.81,1143.11 1034.86,1140.62 1036.91,1234.09 1038.97,1118.22 1041.02,1148.08 1043.07,1167.87 1045.13,1183.34 1047.18,1150.08 1049.23,1210.58 1051.28,1196.87 1053.34,1116.54 1055.39,1170.68 1057.44,1159.94 1059.5,1137.76 1061.55,1154.78 1063.6,1112.33 1065.65,1222.6 1067.71,1112.84 1069.76,1240.54 1071.81,1145.57 1073.87,1189.46 1075.92,1207.36 1077.97,1242.23 1080.02,1183.6 1082.08,1213.33 1084.13,1176.89 1086.18,1139.3 1088.24,1200.23 1090.29,1174.79 1092.34,1186.8 1094.39,1288.43 1096.45,1613.22 1098.5,1195.07 1100.55,1070.69 1102.61,1156.94 1104.66,1230.3 1106.71,1303.51 1108.77,1254.63 1110.82,1210.31 1112.87,1217.89 1114.92,1198.82 1116.98,1131.63 1119.03,1241.05 1121.08,1219.39 1123.14,1635.77 1125.19,649.762 1127.24,1001.82 1129.29,1148.8 1131.35,1645.92 1133.4,135.325 1135.45,1231.83 1137.51,1220.52 1139.56,1170.65 1141.61,1127.03 1143.66,1174.32 1145.72,1163.18 1147.77,1212.31 1149.82,1158.86 1151.88,1193.98 1153.93,1185.38 1155.98,1273.07 1158.03,1098.78 1160.09,1089.32 1162.14,1153.05 1164.19,1167.05 1166.25,1154.42 1168.3,1180.7 1170.35,1087.32 1172.4,1131.85 1174.46,1188.78 1176.51,1179.83 1178.56,1119.02 1180.62,1165.35 1182.67,1299.66 1184.72,1219.14 1186.77,1194.46 1188.83,1932.34 1190.88,1163.9 1192.93,1136.48 1194.99,1210.86 1197.04,1166.79 1199.09,1111.94 1201.15,1216.63 1203.2,1141.98 1205.25,1022.72 1207.3,699.365 1209.36,293.178 1211.41,1756.33 1213.46,1288.39 1215.52,1151.35 1217.57,1181.02 1219.62,1133.86 1221.67,1258.78 1223.73,878.282 1225.78,2244.35 1227.83,1700.52 1229.89,893.892 1231.94,862.236 1233.99,1275.26 1236.04,1119.64 1238.1,1123.72 1240.15,1130.11 1242.2,1159.37 1244.26,1166 1246.31,1172.68 1248.36,1174.3 1250.41,1037.62 1252.47,1262.34 1254.52,908.183 1256.57,829.493 1258.63,2207.91 1260.68,65.2646 1262.73,1625.93 1264.78,1188.32 1266.84,1150.36 1268.89,1191.67 1270.94,1187.97 1273,1142.74 1275.05,1224.78 1277.1,1162.51 1279.16,1157.7 1281.21,1216.21 1283.26,1178.43 1285.31,1215.21 1287.37,1157.6 1289.42,1164.25 1291.47,1168.39 1293.53,1134.11 1295.58,1195.46 1297.63,1195.9 1299.68,1215.19 1301.74,1259.82 1303.79,1198.48 1305.84,1200 1307.9,1145.83 1309.95,1138.01 1312,1177.36 1314.05,1178.18 1316.11,1187.05 1318.16,1182.89 1320.21,1192.52 1322.27,1139.51 1324.32,1164.58 1326.37,1148.73 1328.42,1130.69 1330.48,1156.94 1332.53,1194.03 1334.58,1148.07 1336.64,1187.09 1338.69,1154.03 1340.74,1185.49 1342.79,1155.23 1344.85,1189.53 1346.9,1185.74 1348.95,1136.75 1351.01,1208.09 1353.06,1429.5 1355.11,1253.01 1357.16,1211.59 1359.22,1199.17 1361.27,1140.51 1363.32,1123.72 1365.38,1151.05 1367.43,1154 1369.48,1148.31 1371.54,1204.54 1373.59,1140.21 1375.64,1161.63 1377.69,1167.12 1379.75,1232.82 1381.8,840.378 1383.85,1067.16 1385.91,973.173 1387.96,1367.69 1390.01,1080.55 1392.06,1206.74 1394.12,1196.64 1396.17,1136.98 1398.22,1230.94 1400.28,1059.83 1402.33,1039.75 1404.38,1177.29 1406.43,1175.36 1408.49,1178.24 1410.54,1146.33 1412.59,1140.02 1414.65,1210.04 1416.7,1183.75 1418.75,1144.79 1420.8,1226.08 1422.86,1204.39 1424.91,1111.89 1426.96,1148.96 1429.02,1166.02 1431.07,1176.65 1433.12,1144.24 1435.17,1123.47 1437.23,1237.33 1439.28,1194.54 1441.33,1189.41 1443.39,1189.4 1445.44,1158.56 1447.49,1190.88 1449.55,1141.59 1451.6,1155.32 1453.65,1141.22 1455.7,1144.69 1457.76,1130.92 1459.81,1182.04 1461.86,1167.24 1463.92,1177.85 1465.97,1172.88 1468.02,1156.12 1470.07,1162.1 1472.13,1119.8 1474.18,1124.8 1476.23,1152.86 1478.29,1150.89 1480.34,1214.55 1482.39,1191.89 1484.44,1196.27 1486.5,1179.76 1488.55,1157.57 1490.6,1145.56 1492.66,1207.59 1494.71,1146.4 1496.76,1180.18 1498.81,1152.14 1500.87,1148.26 1502.92,1149.63 1504.97,1176.24 1507.03,1128.5 1509.08,1125.66 1511.13,1355.33 1513.18,1202.49 1515.24,1163.07 1517.29,1167.2 1519.34,1171.3 1521.4,1171.91 1523.45,1154.97 1525.5,1185.14 1527.55,1143.8 1529.61,1179.82 1531.66,1183.24 1533.71,1224.29 1535.77,1237.69 1537.82,1241.65 1539.87,1139.49 1541.93,1188.18 1543.98,1014.88 1546.03,1204.71 1548.08,1106.85 1550.14,1297.21 1552.19,984.333 1554.24,1486.67 1556.3,1651.61 1558.35,1158.09 1560.4,1161.22 1562.45,1148.66 1564.51,1173.79 1566.56,1177.65 1568.61,1173.24 1570.67,1212.66 1572.72,1214.38 1574.77,1137.07 1576.82,1146.93 1578.88,1186.96 1580.93,1172.46 1582.98,1175.03 1585.04,1159.56 1587.09,1173.95 1589.14,1158.57 1591.19,1144.29 1593.25,1154.39 1595.3,1152.01 1597.35,1157.96 1599.41,1203.76 1601.46,1274.52 1603.51,1144.29 1605.56,1216.27 1607.62,1169.75 1609.67,1167.97 1611.72,1205.53 1613.78,1269.14 1615.83,1246 1617.88,1108.69 1619.94,1149.58 1621.99,1174.15 1624.04,1163.32 1626.09,1164.95 1628.15,1172.82 1630.2,1194.78 1632.25,1188.76 1634.31,1147.11 1636.36,1193.82 1638.41,1246.92 1640.46,1267.7 1642.52,1217.86 1644.57,1280.74 1646.62,-133.026 1648.68,3440.75 1650.73,902.893 1652.78,1036.51 1654.83,934.745 1656.89,1166.39 1658.94,1364.14 1660.99,-272.07 1663.05,989.533 1665.1,1296.15 1667.15,1242.87 1669.2,1667.62 1671.26,1451.57 1673.31,1138.78 1675.36,1047.7 1677.42,1153.19 1679.47,1089.74 1681.52,1205.04 1683.57,1231.57 1685.63,1182.11 1687.68,1185.76 1689.73,1233.1 1691.79,1309.16 1693.84,1151.37 1695.89,1186.54 1697.94,1167.21 1700,1179.21 1702.05,1155.57 1704.1,1156.33 1706.16,1154.84 1708.21,1133.26 1710.26,1131.68 1712.32,1115.07 1714.37,1194.77 1716.42,1167.11 1718.47,1366.78 1720.53,1057.4 1722.58,1257.29 1724.63,1147.69 1726.69,1146.36 1728.74,1131.95 1730.79,1200.05 1732.84,1211.72 1734.9,1150.6 1736.95,1236.65 1739,1154.93 1741.06,1152.2 1743.11,1085.88 1745.16,1152.82 1747.21,1141.01 1749.27,1144.49 1751.32,1170.5 1753.37,1158.42 1755.43,1170.51 1757.48,1165.68 1759.53,1110.49 1761.58,1149.64 1763.64,1154.15 1765.69,1169.77 1767.74,1179.68 1769.8,1182.36 1771.85,1153.93 1773.9,1178.2 1775.95,1166.58 1778.01,1119.87 1780.06,1181.52 1782.11,1141.06 1784.17,1148.44 1786.22,1108.07 1788.27,1086.3 1790.33,1100.37 1792.38,1214.92 1794.43,1188.49 1796.48,1139.27 1798.54,1176.77 1800.59,1159.36 1802.64,1100.83 1804.7,1207.41 1806.75,1180.52 1808.8,1071.95 1810.85,1133.55 1812.91,1203.81 1814.96,1077.49 1817.01,1152.02 1819.07,1134.35 1821.12,1138.9 1823.17,625.746 1825.22,583.814 1827.28,1382.28 1829.33,4127.21 1831.38,861.75 1833.44,900.025 1835.49,1231.96 1837.54,1312.86 1839.59,1120.25 1841.65,1162.43 1843.7,1177.7 1845.75,1155.45 1847.81,1145.38 1849.86,1144.36 1851.91,1145.79 1853.96,1162.62 1856.02,1167.73 1858.07,1152.26 1860.12,1169.61 1862.18,1140.72 1864.23,1116.22 1866.28,1170.1 1868.34,1166.76 1870.39,1187.58 1872.44,1166.74 1874.49,1167.1 1876.55,1176.58 1878.6,1191.05 1880.65,1144.68 1882.71,1108.44 1884.76,1168.63 1886.81,1154.07 1888.86,1154.46 1890.92,1144.55 1892.97,1109.39 1895.02,1182.4 1897.08,1054.81 1899.13,1026.41 1901.18,1112.45 1903.23,1080.55 1905.29,1182.9 1907.34,1150.98 1909.39,1155.7 1911.45,1178.13 1913.5,1191.4 1915.55,1149.33 1917.6,1187.29 1919.66,1246.78 1921.71,1196.06 1923.76,1105.95 1925.82,1119.21 1927.87,1245.33 1929.92,1061.73 1931.97,1197.75 1934.03,1132.36 1936.08,1188.45 1938.13,1215.77 1940.19,1124.34 1942.24,975.754 1944.29,1140.44 1946.34,1254.31 1948.4,1178.85 1950.45,1080.05 1952.5,1682.42 1954.56,1539.14 1956.61,1021.28 1958.66,930.901 1960.72,1206.55 1962.77,1089.3 1964.82,1191.4 1966.87,1133.06 1968.93,1196.53 1970.98,1092.04 1973.03,1244.54 1975.09,1194.45 1977.14,1176 1979.19,1185.08 1981.24,1094.04 1983.3,1126.37 1985.35,1308.25 1987.4,1182.86 1989.46,1165.94 1991.51,1172.5 1993.56,1177.49 1995.61,1142.54 1997.67,1189.88 1999.72,1173.03 2001.77,1133.4 2003.83,1191.13 2005.88,1148.25 2007.93,1178.95 2009.98,1214.11 2012.04,1134.5 2014.09,1126.17 2016.14,1097.68 2018.2,1055.57 2020.25,1201.27 2022.3,1137.49 2024.35,1207.7 2026.41,1120.98 2028.46,1140.14 2030.51,1164.57 2032.57,1035.72 2034.62,1206.4 2036.67,1185.76 2038.73,1143.45 2040.78,1134.65 2042.83,1196.86 2044.88,925.464 2046.94,1206.18 2048.99,1139.77 2051.04,1147.79 2053.1,1209.54 2055.15,1190.18 2057.2,1197.39 2059.25,1164.28 2061.31,1080.28 2063.36,1358.87 2065.41,1267.64 2067.47,1112.62 2069.52,1171.1 2071.57,1132.72 2073.62,1157.06 2075.68,1153.84 2077.73,1133.73 2079.78,1176.07 2081.84,1181.91 2083.89,1157.8 2085.94,1161 2087.99,1163.57 2090.05,1184.4 2092.1,1172.85 2094.15,1301 2096.21,936.17 2098.26,1108.27 2100.31,715.647 2102.36,663.903 2104.42,170.818 2106.47,1712.77 2108.52,3193.63 2110.58,1642.75 2112.63,1799.96 2114.68,1171.59 2116.73,638.931 2118.79,1174.4 2120.84,1061.42 2122.89,1203.98 2124.95,1255.56 2127,1246.48 2129.05,1058.01 2131.11,1047.99 2133.16,1232.71 2135.21,1236.13 2137.26,1089.31 2139.32,1184.17 2141.37,1175.12 2143.42,1173.91 2145.48,1168.91 2147.53,863.57 2149.58,1114.8 2151.63,1242.16 2153.69,1260.65 2155.74,1194.96 2157.79,1078.5 2159.85,1375.98 2161.9,897.324 2163.95,728.273 2166,1493.89 2168.06,956.047 2170.11,1441.48 2172.16,1265.15 2174.22,973.94 2176.27,897.879 2178.32,1386.13 2180.37,1406.62 2182.43,735.738 2184.48,1214.1 2186.53,997.572 2188.59,948.248 2190.64,1127.87 2192.69,1139.58 2194.74,1198.25 2196.8,1178.79 2198.85,1180.94 2200.9,1139.68 2202.96,1174.32 2205.01,1158.07 2207.06,1196.46 2209.12,1147.32 2211.17,1251.7 2213.22,1966.56 2215.27,749.806 2217.33,1141.26 2219.38,1263.29 2221.43,1165.95 2223.49,1149.67 2225.54,1148.25 2227.59,1173.65 2229.64,1223.72 2231.7,1223.96 2233.75,1051.05 2235.8,1084.03 2237.86,1046.6 2239.91,1133.33 2241.96,1137.59 2244.01,968.081 2246.07,1121.52 2248.12,1107.43 2250.17,1144.24 2252.23,1512.79 2254.28,1039.77 2256.33,1147.23 2258.38,1193.55 2260.44,1144.62 2262.49,1165.61 2264.54,1158.61 2266.6,1167.31 2268.65,1118.45 2270.7,1180.47 2272.75,1110.21 2274.81,1092.94 2276.86,1077.83 2278.91,1075.45 2280.97,1997.06 2283.02,-319.854 2285.07,-2875.1 2287.12,-224.272 2289.18,1284.35 2291.23,1180.93 "/>
<path clip-path="url(#clip370)" d="M251.33 972.231 L588.926 972.231 L588.926 868.551 L251.33 868.551  Z" fill="#ffffff" fill-rule="evenodd" fill-opacity="1"/>
<polyline clip-path="url(#clip370)" style="stroke:#000000; stroke-linecap:round; stroke-linejoin:round; stroke-width:4; stroke-opacity:1; fill:none" points="251.33,972.231 588.926,972.231 588.926,868.551 251.33,868.551 251.33,972.231 "/>
<polyline clip-path="url(#clip370)" style="stroke:#009af9; stroke-linecap:round; stroke-linejoin:round; stroke-width:4; stroke-opacity:1; fill:none" points="275.484,920.391 420.41,920.391 "/>
<path clip-path="url(#clip370)" d="M470.12 932.74 L470.12 923.458 L462.481 923.458 L462.481 919.615 L474.749 919.615 L474.749 934.453 Q472.041 936.375 468.777 937.37 Q465.513 938.342 461.809 938.342 Q453.708 938.342 449.124 933.62 Q444.564 928.875 444.564 920.426 Q444.564 911.953 449.124 907.231 Q453.708 902.486 461.809 902.486 Q465.189 902.486 468.221 903.319 Q471.277 904.153 473.846 905.773 L473.846 910.75 Q471.254 908.551 468.337 907.44 Q465.421 906.328 462.203 906.328 Q455.86 906.328 452.666 909.87 Q449.495 913.412 449.495 920.426 Q449.495 927.416 452.666 930.958 Q455.86 934.5 462.203 934.5 Q464.68 934.5 466.624 934.083 Q468.569 933.643 470.12 932.74 Z" fill="#000000" fill-rule="nonzero" fill-opacity="1" /><path clip-path="url(#clip370)" d="M487.967 906.953 L487.967 919.94 L493.846 919.94 Q497.11 919.94 498.893 918.25 Q500.675 916.56 500.675 913.435 Q500.675 910.333 498.893 908.643 Q497.11 906.953 493.846 906.953 L487.967 906.953 M483.291 903.111 L493.846 903.111 Q499.657 903.111 502.619 905.75 Q505.606 908.365 505.606 913.435 Q505.606 918.551 502.619 921.166 Q499.657 923.782 493.846 923.782 L487.967 923.782 L487.967 937.671 L483.291 937.671 L483.291 903.111 Z" fill="#000000" fill-rule="nonzero" fill-opacity="1" /><path clip-path="url(#clip370)" d="M532.596 904.245 L532.596 908.805 Q529.934 907.532 527.573 906.907 Q525.212 906.282 523.013 906.282 Q519.193 906.282 517.11 907.764 Q515.05 909.245 515.05 911.977 Q515.05 914.268 516.416 915.449 Q517.805 916.606 521.647 917.324 L524.471 917.902 Q529.703 918.898 532.179 921.421 Q534.679 923.921 534.679 928.134 Q534.679 933.157 531.3 935.75 Q527.943 938.342 521.439 938.342 Q518.985 938.342 516.207 937.787 Q513.453 937.231 510.49 936.143 L510.49 931.328 Q513.337 932.926 516.068 933.736 Q518.8 934.546 521.439 934.546 Q525.443 934.546 527.619 932.972 Q529.795 931.398 529.795 928.481 Q529.795 925.935 528.221 924.5 Q526.67 923.064 523.105 922.347 L520.258 921.791 Q515.027 920.75 512.689 918.527 Q510.351 916.305 510.351 912.347 Q510.351 907.764 513.568 905.125 Q516.809 902.486 522.48 902.486 Q524.911 902.486 527.434 902.926 Q529.957 903.366 532.596 904.245 Z" fill="#000000" fill-rule="nonzero" fill-opacity="1" /><path clip-path="url(#clip370)" d="M562.689 904.245 L562.689 908.805 Q560.027 907.532 557.665 906.907 Q555.304 906.282 553.105 906.282 Q549.286 906.282 547.203 907.764 Q545.142 909.245 545.142 911.977 Q545.142 914.268 546.508 915.449 Q547.897 916.606 551.74 917.324 L554.564 917.902 Q559.795 918.898 562.272 921.421 Q564.772 923.921 564.772 928.134 Q564.772 933.157 561.392 935.75 Q558.036 938.342 551.531 938.342 Q549.078 938.342 546.3 937.787 Q543.545 937.231 540.582 936.143 L540.582 931.328 Q543.429 932.926 546.161 933.736 Q548.892 934.546 551.531 934.546 Q555.536 934.546 557.712 932.972 Q559.888 931.398 559.888 928.481 Q559.888 925.935 558.314 924.5 Q556.763 923.064 553.198 922.347 L550.351 921.791 Q545.119 920.75 542.781 918.527 Q540.443 916.305 540.443 912.347 Q540.443 907.764 543.661 905.125 Q546.902 902.486 552.573 902.486 Q555.003 902.486 557.527 902.926 Q560.05 903.366 562.689 904.245 Z" fill="#000000" fill-rule="nonzero" fill-opacity="1" /></svg>
