<?xml version="1.0" encoding="utf-8"?>
<svg xmlns="http://www.w3.org/2000/svg" xmlns:xlink="http://www.w3.org/1999/xlink" width="600" height="400" viewBox="0 0 2400 1600">
<defs>
  <clipPath id="clip920">
    <rect x="0" y="0" width="2400" height="1600"/>
  </clipPath>
</defs>
<path clip-path="url(#clip920)" d="M0 1600 L2400 1600 L2400 0 L0 0  Z" fill="#ffffff" fill-rule="evenodd" fill-opacity="1"/>
<defs>
  <clipPath id="clip921">
    <rect x="480" y="0" width="1681" height="1600"/>
  </clipPath>
</defs>
<path clip-path="url(#clip920)" d="M186.274 1486.45 L2352.76 1486.45 L2352.76 47.2441 L186.274 47.2441  Z" fill="#ffffff" fill-rule="evenodd" fill-opacity="1"/>
<defs>
  <clipPath id="clip922">
    <rect x="186" y="47" width="2167" height="1440"/>
  </clipPath>
</defs>
<polyline clip-path="url(#clip922)" style="stroke:#000000; stroke-linecap:round; stroke-linejoin:round; stroke-width:2; stroke-opacity:0.1; fill:none" points="247.59,1486.45 247.59,47.2441 "/>
<polyline clip-path="url(#clip922)" style="stroke:#000000; stroke-linecap:round; stroke-linejoin:round; stroke-width:2; stroke-opacity:0.1; fill:none" points="758.552,1486.45 758.552,47.2441 "/>
<polyline clip-path="url(#clip922)" style="stroke:#000000; stroke-linecap:round; stroke-linejoin:round; stroke-width:2; stroke-opacity:0.1; fill:none" points="1269.51,1486.45 1269.51,47.2441 "/>
<polyline clip-path="url(#clip922)" style="stroke:#000000; stroke-linecap:round; stroke-linejoin:round; stroke-width:2; stroke-opacity:0.1; fill:none" points="1780.48,1486.45 1780.48,47.2441 "/>
<polyline clip-path="url(#clip922)" style="stroke:#000000; stroke-linecap:round; stroke-linejoin:round; stroke-width:2; stroke-opacity:0.1; fill:none" points="2291.44,1486.45 2291.44,47.2441 "/>
<polyline clip-path="url(#clip920)" style="stroke:#000000; stroke-linecap:round; stroke-linejoin:round; stroke-width:4; stroke-opacity:1; fill:none" points="186.274,1486.45 2352.76,1486.45 "/>
<polyline clip-path="url(#clip920)" style="stroke:#000000; stroke-linecap:round; stroke-linejoin:round; stroke-width:4; stroke-opacity:1; fill:none" points="247.59,1486.45 247.59,1467.55 "/>
<polyline clip-path="url(#clip920)" style="stroke:#000000; stroke-linecap:round; stroke-linejoin:round; stroke-width:4; stroke-opacity:1; fill:none" points="758.552,1486.45 758.552,1467.55 "/>
<polyline clip-path="url(#clip920)" style="stroke:#000000; stroke-linecap:round; stroke-linejoin:round; stroke-width:4; stroke-opacity:1; fill:none" points="1269.51,1486.45 1269.51,1467.55 "/>
<polyline clip-path="url(#clip920)" style="stroke:#000000; stroke-linecap:round; stroke-linejoin:round; stroke-width:4; stroke-opacity:1; fill:none" points="1780.48,1486.45 1780.48,1467.55 "/>
<polyline clip-path="url(#clip920)" style="stroke:#000000; stroke-linecap:round; stroke-linejoin:round; stroke-width:4; stroke-opacity:1; fill:none" points="2291.44,1486.45 2291.44,1467.55 "/>
<path clip-path="url(#clip920)" d="M201.652 1532.02 L231.328 1532.02 L231.328 1535.95 L201.652 1535.95 L201.652 1532.02 Z" fill="#000000" fill-rule="nonzero" fill-opacity="1" /><path clip-path="url(#clip920)" d="M242.231 1544.91 L249.87 1544.91 L249.87 1518.55 L241.559 1520.21 L241.559 1515.95 L249.823 1514.29 L254.499 1514.29 L254.499 1544.91 L262.138 1544.91 L262.138 1548.85 L242.231 1548.85 L242.231 1544.91 Z" fill="#000000" fill-rule="nonzero" fill-opacity="1" /><path clip-path="url(#clip920)" d="M281.582 1517.37 Q277.971 1517.37 276.143 1520.93 Q274.337 1524.47 274.337 1531.6 Q274.337 1538.71 276.143 1542.27 Q277.971 1545.82 281.582 1545.82 Q285.217 1545.82 287.022 1542.27 Q288.851 1538.71 288.851 1531.6 Q288.851 1524.47 287.022 1520.93 Q285.217 1517.37 281.582 1517.37 M281.582 1513.66 Q287.393 1513.66 290.448 1518.27 Q293.527 1522.85 293.527 1531.6 Q293.527 1540.33 290.448 1544.94 Q287.393 1549.52 281.582 1549.52 Q275.772 1549.52 272.694 1544.94 Q269.638 1540.33 269.638 1531.6 Q269.638 1522.85 272.694 1518.27 Q275.772 1513.66 281.582 1513.66 Z" fill="#000000" fill-rule="nonzero" fill-opacity="1" /><path clip-path="url(#clip920)" d="M728.194 1532.02 L757.869 1532.02 L757.869 1535.95 L728.194 1535.95 L728.194 1532.02 Z" fill="#000000" fill-rule="nonzero" fill-opacity="1" /><path clip-path="url(#clip920)" d="M768.008 1514.29 L786.365 1514.29 L786.365 1518.22 L772.291 1518.22 L772.291 1526.7 Q773.309 1526.35 774.328 1526.19 Q775.346 1526 776.365 1526 Q782.152 1526 785.531 1529.17 Q788.911 1532.34 788.911 1537.76 Q788.911 1543.34 785.439 1546.44 Q781.966 1549.52 775.647 1549.52 Q773.471 1549.52 771.203 1549.15 Q768.957 1548.78 766.55 1548.04 L766.55 1543.34 Q768.633 1544.47 770.855 1545.03 Q773.078 1545.58 775.554 1545.58 Q779.559 1545.58 781.897 1543.48 Q784.235 1541.37 784.235 1537.76 Q784.235 1534.15 781.897 1532.04 Q779.559 1529.94 775.554 1529.94 Q773.679 1529.94 771.804 1530.35 Q769.953 1530.77 768.008 1531.65 L768.008 1514.29 Z" fill="#000000" fill-rule="nonzero" fill-opacity="1" /><path clip-path="url(#clip920)" d="M1269.51 1517.37 Q1265.9 1517.37 1264.08 1520.93 Q1262.27 1524.47 1262.27 1531.6 Q1262.27 1538.71 1264.08 1542.27 Q1265.9 1545.82 1269.51 1545.82 Q1273.15 1545.82 1274.95 1542.27 Q1276.78 1538.71 1276.78 1531.6 Q1276.78 1524.47 1274.95 1520.93 Q1273.15 1517.37 1269.51 1517.37 M1269.51 1513.66 Q1275.33 1513.66 1278.38 1518.27 Q1281.46 1522.85 1281.46 1531.6 Q1281.46 1540.33 1278.38 1544.94 Q1275.33 1549.52 1269.51 1549.52 Q1263.7 1549.52 1260.63 1544.94 Q1257.57 1540.33 1257.57 1531.6 Q1257.57 1522.85 1260.63 1518.27 Q1263.7 1513.66 1269.51 1513.66 Z" fill="#000000" fill-rule="nonzero" fill-opacity="1" /><path clip-path="url(#clip920)" d="M1770.76 1514.29 L1789.11 1514.29 L1789.11 1518.22 L1775.04 1518.22 L1775.04 1526.7 Q1776.06 1526.35 1777.07 1526.19 Q1778.09 1526 1779.11 1526 Q1784.9 1526 1788.28 1529.17 Q1791.66 1532.34 1791.66 1537.76 Q1791.66 1543.34 1788.19 1546.44 Q1784.71 1549.52 1778.39 1549.52 Q1776.22 1549.52 1773.95 1549.15 Q1771.7 1548.78 1769.3 1548.04 L1769.3 1543.34 Q1771.38 1544.47 1773.6 1545.03 Q1775.82 1545.58 1778.3 1545.58 Q1782.31 1545.58 1784.64 1543.48 Q1786.98 1541.37 1786.98 1537.76 Q1786.98 1534.15 1784.64 1532.04 Q1782.31 1529.94 1778.3 1529.94 Q1776.43 1529.94 1774.55 1530.35 Q1772.7 1530.77 1770.76 1531.65 L1770.76 1514.29 Z" fill="#000000" fill-rule="nonzero" fill-opacity="1" /><path clip-path="url(#clip920)" d="M2266.13 1544.91 L2273.77 1544.91 L2273.77 1518.55 L2265.46 1520.21 L2265.46 1515.95 L2273.72 1514.29 L2278.4 1514.29 L2278.4 1544.91 L2286.04 1544.91 L2286.04 1548.85 L2266.13 1548.85 L2266.13 1544.91 Z" fill="#000000" fill-rule="nonzero" fill-opacity="1" /><path clip-path="url(#clip920)" d="M2305.48 1517.37 Q2301.87 1517.37 2300.04 1520.93 Q2298.23 1524.47 2298.23 1531.6 Q2298.23 1538.71 2300.04 1542.27 Q2301.87 1545.82 2305.48 1545.82 Q2309.11 1545.82 2310.92 1542.27 Q2312.75 1538.71 2312.75 1531.6 Q2312.75 1524.47 2310.92 1520.93 Q2309.11 1517.37 2305.48 1517.37 M2305.48 1513.66 Q2311.29 1513.66 2314.35 1518.27 Q2317.42 1522.85 2317.42 1531.6 Q2317.42 1540.33 2314.35 1544.94 Q2311.29 1549.52 2305.48 1549.52 Q2299.67 1549.52 2296.59 1544.94 Q2293.54 1540.33 2293.54 1531.6 Q2293.54 1522.85 2296.59 1518.27 Q2299.67 1513.66 2305.48 1513.66 Z" fill="#000000" fill-rule="nonzero" fill-opacity="1" /><polyline clip-path="url(#clip922)" style="stroke:#000000; stroke-linecap:round; stroke-linejoin:round; stroke-width:2; stroke-opacity:0.1; fill:none" points="186.274,1445.72 2352.76,1445.72 "/>
<polyline clip-path="url(#clip922)" style="stroke:#000000; stroke-linecap:round; stroke-linejoin:round; stroke-width:2; stroke-opacity:0.1; fill:none" points="186.274,1205.3 2352.76,1205.3 "/>
<polyline clip-path="url(#clip922)" style="stroke:#000000; stroke-linecap:round; stroke-linejoin:round; stroke-width:2; stroke-opacity:0.1; fill:none" points="186.274,964.892 2352.76,964.892 "/>
<polyline clip-path="url(#clip922)" style="stroke:#000000; stroke-linecap:round; stroke-linejoin:round; stroke-width:2; stroke-opacity:0.1; fill:none" points="186.274,724.48 2352.76,724.48 "/>
<polyline clip-path="url(#clip922)" style="stroke:#000000; stroke-linecap:round; stroke-linejoin:round; stroke-width:2; stroke-opacity:0.1; fill:none" points="186.274,484.069 2352.76,484.069 "/>
<polyline clip-path="url(#clip922)" style="stroke:#000000; stroke-linecap:round; stroke-linejoin:round; stroke-width:2; stroke-opacity:0.1; fill:none" points="186.274,243.657 2352.76,243.657 "/>
<polyline clip-path="url(#clip920)" style="stroke:#000000; stroke-linecap:round; stroke-linejoin:round; stroke-width:4; stroke-opacity:1; fill:none" points="186.274,1486.45 186.274,47.2441 "/>
<polyline clip-path="url(#clip920)" style="stroke:#000000; stroke-linecap:round; stroke-linejoin:round; stroke-width:4; stroke-opacity:1; fill:none" points="186.274,1445.72 205.172,1445.72 "/>
<polyline clip-path="url(#clip920)" style="stroke:#000000; stroke-linecap:round; stroke-linejoin:round; stroke-width:4; stroke-opacity:1; fill:none" points="186.274,1205.3 205.172,1205.3 "/>
<polyline clip-path="url(#clip920)" style="stroke:#000000; stroke-linecap:round; stroke-linejoin:round; stroke-width:4; stroke-opacity:1; fill:none" points="186.274,964.892 205.172,964.892 "/>
<polyline clip-path="url(#clip920)" style="stroke:#000000; stroke-linecap:round; stroke-linejoin:round; stroke-width:4; stroke-opacity:1; fill:none" points="186.274,724.48 205.172,724.48 "/>
<polyline clip-path="url(#clip920)" style="stroke:#000000; stroke-linecap:round; stroke-linejoin:round; stroke-width:4; stroke-opacity:1; fill:none" points="186.274,484.069 205.172,484.069 "/>
<polyline clip-path="url(#clip920)" style="stroke:#000000; stroke-linecap:round; stroke-linejoin:round; stroke-width:4; stroke-opacity:1; fill:none" points="186.274,243.657 205.172,243.657 "/>
<path clip-path="url(#clip920)" d="M62.9365 1431.51 Q59.3254 1431.51 57.4967 1435.08 Q55.6912 1438.62 55.6912 1445.75 Q55.6912 1452.86 57.4967 1456.42 Q59.3254 1459.96 62.9365 1459.96 Q66.5707 1459.96 68.3763 1456.42 Q70.205 1452.86 70.205 1445.75 Q70.205 1438.62 68.3763 1435.08 Q66.5707 1431.51 62.9365 1431.51 M62.9365 1427.81 Q68.7467 1427.81 71.8022 1432.42 Q74.8809 1437 74.8809 1445.75 Q74.8809 1454.48 71.8022 1459.08 Q68.7467 1463.67 62.9365 1463.67 Q57.1264 1463.67 54.0477 1459.08 Q50.9921 1454.48 50.9921 1445.75 Q50.9921 1437 54.0477 1432.42 Q57.1264 1427.81 62.9365 1427.81 Z" fill="#000000" fill-rule="nonzero" fill-opacity="1" /><path clip-path="url(#clip920)" d="M83.0984 1457.12 L87.9827 1457.12 L87.9827 1463 L83.0984 1463 L83.0984 1457.12 Z" fill="#000000" fill-rule="nonzero" fill-opacity="1" /><path clip-path="url(#clip920)" d="M108.168 1431.51 Q104.557 1431.51 102.728 1435.08 Q100.922 1438.62 100.922 1445.75 Q100.922 1452.86 102.728 1456.42 Q104.557 1459.96 108.168 1459.96 Q111.802 1459.96 113.608 1456.42 Q115.436 1452.86 115.436 1445.75 Q115.436 1438.62 113.608 1435.08 Q111.802 1431.51 108.168 1431.51 M108.168 1427.81 Q113.978 1427.81 117.033 1432.42 Q120.112 1437 120.112 1445.75 Q120.112 1454.48 117.033 1459.08 Q113.978 1463.67 108.168 1463.67 Q102.358 1463.67 99.2789 1459.08 Q96.2234 1454.48 96.2234 1445.75 Q96.2234 1437 99.2789 1432.42 Q102.358 1427.81 108.168 1427.81 Z" fill="#000000" fill-rule="nonzero" fill-opacity="1" /><path clip-path="url(#clip920)" d="M138.33 1431.51 Q134.719 1431.51 132.89 1435.08 Q131.084 1438.62 131.084 1445.75 Q131.084 1452.86 132.89 1456.42 Q134.719 1459.96 138.33 1459.96 Q141.964 1459.96 143.769 1456.42 Q145.598 1452.86 145.598 1445.75 Q145.598 1438.62 143.769 1435.08 Q141.964 1431.51 138.33 1431.51 M138.33 1427.81 Q144.14 1427.81 147.195 1432.42 Q150.274 1437 150.274 1445.75 Q150.274 1454.48 147.195 1459.08 Q144.14 1463.67 138.33 1463.67 Q132.519 1463.67 129.441 1459.08 Q126.385 1454.48 126.385 1445.75 Q126.385 1437 129.441 1432.42 Q132.519 1427.81 138.33 1427.81 Z" fill="#000000" fill-rule="nonzero" fill-opacity="1" /><path clip-path="url(#clip920)" d="M63.9319 1191.1 Q60.3208 1191.1 58.4921 1194.67 Q56.6865 1198.21 56.6865 1205.34 Q56.6865 1212.45 58.4921 1216.01 Q60.3208 1219.55 63.9319 1219.55 Q67.5661 1219.55 69.3717 1216.01 Q71.2004 1212.45 71.2004 1205.34 Q71.2004 1198.21 69.3717 1194.67 Q67.5661 1191.1 63.9319 1191.1 M63.9319 1187.4 Q69.742 1187.4 72.7976 1192.01 Q75.8763 1196.59 75.8763 1205.34 Q75.8763 1214.07 72.7976 1218.67 Q69.742 1223.26 63.9319 1223.26 Q58.1217 1223.26 55.043 1218.67 Q51.9875 1214.07 51.9875 1205.34 Q51.9875 1196.59 55.043 1192.01 Q58.1217 1187.4 63.9319 1187.4 Z" fill="#000000" fill-rule="nonzero" fill-opacity="1" /><path clip-path="url(#clip920)" d="M84.0938 1216.7 L88.978 1216.7 L88.978 1222.58 L84.0938 1222.58 L84.0938 1216.7 Z" fill="#000000" fill-rule="nonzero" fill-opacity="1" /><path clip-path="url(#clip920)" d="M109.163 1191.1 Q105.552 1191.1 103.723 1194.67 Q101.918 1198.21 101.918 1205.34 Q101.918 1212.45 103.723 1216.01 Q105.552 1219.55 109.163 1219.55 Q112.797 1219.55 114.603 1216.01 Q116.432 1212.45 116.432 1205.34 Q116.432 1198.21 114.603 1194.67 Q112.797 1191.1 109.163 1191.1 M109.163 1187.4 Q114.973 1187.4 118.029 1192.01 Q121.107 1196.59 121.107 1205.34 Q121.107 1214.07 118.029 1218.67 Q114.973 1223.26 109.163 1223.26 Q103.353 1223.26 100.274 1218.67 Q97.2187 1214.07 97.2187 1205.34 Q97.2187 1196.59 100.274 1192.01 Q103.353 1187.4 109.163 1187.4 Z" fill="#000000" fill-rule="nonzero" fill-opacity="1" /><path clip-path="url(#clip920)" d="M129.371 1188.02 L147.728 1188.02 L147.728 1191.96 L133.654 1191.96 L133.654 1200.43 Q134.672 1200.08 135.691 1199.92 Q136.709 1199.74 137.728 1199.74 Q143.515 1199.74 146.894 1202.91 Q150.274 1206.08 150.274 1211.5 Q150.274 1217.07 146.802 1220.18 Q143.33 1223.26 137.01 1223.26 Q134.834 1223.26 132.566 1222.88 Q130.32 1222.51 127.913 1221.77 L127.913 1217.07 Q129.996 1218.21 132.219 1218.76 Q134.441 1219.32 136.918 1219.32 Q140.922 1219.32 143.26 1217.21 Q145.598 1215.11 145.598 1211.5 Q145.598 1207.88 143.26 1205.78 Q140.922 1203.67 136.918 1203.67 Q135.043 1203.67 133.168 1204.09 Q131.316 1204.51 129.371 1205.38 L129.371 1188.02 Z" fill="#000000" fill-rule="nonzero" fill-opacity="1" /><path clip-path="url(#clip920)" d="M62.9365 950.691 Q59.3254 950.691 57.4967 954.256 Q55.6912 957.797 55.6912 964.927 Q55.6912 972.033 57.4967 975.598 Q59.3254 979.14 62.9365 979.14 Q66.5707 979.14 68.3763 975.598 Q70.205 972.033 70.205 964.927 Q70.205 957.797 68.3763 954.256 Q66.5707 950.691 62.9365 950.691 M62.9365 946.987 Q68.7467 946.987 71.8022 951.594 Q74.8809 956.177 74.8809 964.927 Q74.8809 973.654 71.8022 978.26 Q68.7467 982.843 62.9365 982.843 Q57.1264 982.843 54.0477 978.26 Q50.9921 973.654 50.9921 964.927 Q50.9921 956.177 54.0477 951.594 Q57.1264 946.987 62.9365 946.987 Z" fill="#000000" fill-rule="nonzero" fill-opacity="1" /><path clip-path="url(#clip920)" d="M83.0984 976.293 L87.9827 976.293 L87.9827 982.172 L83.0984 982.172 L83.0984 976.293 Z" fill="#000000" fill-rule="nonzero" fill-opacity="1" /><path clip-path="url(#clip920)" d="M98.978 978.237 L106.617 978.237 L106.617 951.871 L98.3067 953.538 L98.3067 949.279 L106.571 947.612 L111.246 947.612 L111.246 978.237 L118.885 978.237 L118.885 982.172 L98.978 982.172 L98.978 978.237 Z" fill="#000000" fill-rule="nonzero" fill-opacity="1" /><path clip-path="url(#clip920)" d="M138.33 950.691 Q134.719 950.691 132.89 954.256 Q131.084 957.797 131.084 964.927 Q131.084 972.033 132.89 975.598 Q134.719 979.14 138.33 979.14 Q141.964 979.14 143.769 975.598 Q145.598 972.033 145.598 964.927 Q145.598 957.797 143.769 954.256 Q141.964 950.691 138.33 950.691 M138.33 946.987 Q144.14 946.987 147.195 951.594 Q150.274 956.177 150.274 964.927 Q150.274 973.654 147.195 978.26 Q144.14 982.843 138.33 982.843 Q132.519 982.843 129.441 978.26 Q126.385 973.654 126.385 964.927 Q126.385 956.177 129.441 951.594 Q132.519 946.987 138.33 946.987 Z" fill="#000000" fill-rule="nonzero" fill-opacity="1" /><path clip-path="url(#clip920)" d="M63.9319 710.279 Q60.3208 710.279 58.4921 713.844 Q56.6865 717.386 56.6865 724.515 Q56.6865 731.622 58.4921 735.186 Q60.3208 738.728 63.9319 738.728 Q67.5661 738.728 69.3717 735.186 Q71.2004 731.622 71.2004 724.515 Q71.2004 717.386 69.3717 713.844 Q67.5661 710.279 63.9319 710.279 M63.9319 706.575 Q69.742 706.575 72.7976 711.182 Q75.8763 715.765 75.8763 724.515 Q75.8763 733.242 72.7976 737.848 Q69.742 742.432 63.9319 742.432 Q58.1217 742.432 55.043 737.848 Q51.9875 733.242 51.9875 724.515 Q51.9875 715.765 55.043 711.182 Q58.1217 706.575 63.9319 706.575 Z" fill="#000000" fill-rule="nonzero" fill-opacity="1" /><path clip-path="url(#clip920)" d="M84.0938 735.881 L88.978 735.881 L88.978 741.76 L84.0938 741.76 L84.0938 735.881 Z" fill="#000000" fill-rule="nonzero" fill-opacity="1" /><path clip-path="url(#clip920)" d="M99.9733 737.825 L107.612 737.825 L107.612 711.46 L99.3021 713.126 L99.3021 708.867 L107.566 707.2 L112.242 707.2 L112.242 737.825 L119.881 737.825 L119.881 741.76 L99.9733 741.76 L99.9733 737.825 Z" fill="#000000" fill-rule="nonzero" fill-opacity="1" /><path clip-path="url(#clip920)" d="M129.371 707.2 L147.728 707.2 L147.728 711.136 L133.654 711.136 L133.654 719.608 Q134.672 719.261 135.691 719.099 Q136.709 718.913 137.728 718.913 Q143.515 718.913 146.894 722.085 Q150.274 725.256 150.274 730.673 Q150.274 736.251 146.802 739.353 Q143.33 742.432 137.01 742.432 Q134.834 742.432 132.566 742.061 Q130.32 741.691 127.913 740.95 L127.913 736.251 Q129.996 737.385 132.219 737.941 Q134.441 738.497 136.918 738.497 Q140.922 738.497 143.26 736.39 Q145.598 734.284 145.598 730.673 Q145.598 727.061 143.26 724.955 Q140.922 722.848 136.918 722.848 Q135.043 722.848 133.168 723.265 Q131.316 723.682 129.371 724.561 L129.371 707.2 Z" fill="#000000" fill-rule="nonzero" fill-opacity="1" /><path clip-path="url(#clip920)" d="M62.9365 469.867 Q59.3254 469.867 57.4967 473.432 Q55.6912 476.974 55.6912 484.103 Q55.6912 491.21 57.4967 494.775 Q59.3254 498.316 62.9365 498.316 Q66.5707 498.316 68.3763 494.775 Q70.205 491.21 70.205 484.103 Q70.205 476.974 68.3763 473.432 Q66.5707 469.867 62.9365 469.867 M62.9365 466.164 Q68.7467 466.164 71.8022 470.77 Q74.8809 475.353 74.8809 484.103 Q74.8809 492.83 71.8022 497.437 Q68.7467 502.02 62.9365 502.02 Q57.1264 502.02 54.0477 497.437 Q50.9921 492.83 50.9921 484.103 Q50.9921 475.353 54.0477 470.77 Q57.1264 466.164 62.9365 466.164 Z" fill="#000000" fill-rule="nonzero" fill-opacity="1" /><path clip-path="url(#clip920)" d="M83.0984 495.469 L87.9827 495.469 L87.9827 501.349 L83.0984 501.349 L83.0984 495.469 Z" fill="#000000" fill-rule="nonzero" fill-opacity="1" /><path clip-path="url(#clip920)" d="M102.196 497.414 L118.515 497.414 L118.515 501.349 L96.5706 501.349 L96.5706 497.414 Q99.2326 494.659 103.816 490.029 Q108.422 485.377 109.603 484.034 Q111.848 481.511 112.728 479.775 Q113.631 478.015 113.631 476.326 Q113.631 473.571 111.686 471.835 Q109.765 470.099 106.663 470.099 Q104.464 470.099 102.01 470.863 Q99.5798 471.627 96.8021 473.178 L96.8021 468.455 Q99.6261 467.321 102.08 466.742 Q104.534 466.164 106.571 466.164 Q111.941 466.164 115.135 468.849 Q118.33 471.534 118.33 476.025 Q118.33 478.154 117.52 480.076 Q116.733 481.974 114.626 484.566 Q114.047 485.238 110.946 488.455 Q107.844 491.65 102.196 497.414 Z" fill="#000000" fill-rule="nonzero" fill-opacity="1" /><path clip-path="url(#clip920)" d="M138.33 469.867 Q134.719 469.867 132.89 473.432 Q131.084 476.974 131.084 484.103 Q131.084 491.21 132.89 494.775 Q134.719 498.316 138.33 498.316 Q141.964 498.316 143.769 494.775 Q145.598 491.21 145.598 484.103 Q145.598 476.974 143.769 473.432 Q141.964 469.867 138.33 469.867 M138.33 466.164 Q144.14 466.164 147.195 470.77 Q150.274 475.353 150.274 484.103 Q150.274 492.83 147.195 497.437 Q144.14 502.02 138.33 502.02 Q132.519 502.02 129.441 497.437 Q126.385 492.83 126.385 484.103 Q126.385 475.353 129.441 470.77 Q132.519 466.164 138.33 466.164 Z" fill="#000000" fill-rule="nonzero" fill-opacity="1" /><path clip-path="url(#clip920)" d="M63.9319 229.456 Q60.3208 229.456 58.4921 233.02 Q56.6865 236.562 56.6865 243.692 Q56.6865 250.798 58.4921 254.363 Q60.3208 257.905 63.9319 257.905 Q67.5661 257.905 69.3717 254.363 Q71.2004 250.798 71.2004 243.692 Q71.2004 236.562 69.3717 233.02 Q67.5661 229.456 63.9319 229.456 M63.9319 225.752 Q69.742 225.752 72.7976 230.358 Q75.8763 234.942 75.8763 243.692 Q75.8763 252.418 72.7976 257.025 Q69.742 261.608 63.9319 261.608 Q58.1217 261.608 55.043 257.025 Q51.9875 252.418 51.9875 243.692 Q51.9875 234.942 55.043 230.358 Q58.1217 225.752 63.9319 225.752 Z" fill="#000000" fill-rule="nonzero" fill-opacity="1" /><path clip-path="url(#clip920)" d="M84.0938 255.057 L88.978 255.057 L88.978 260.937 L84.0938 260.937 L84.0938 255.057 Z" fill="#000000" fill-rule="nonzero" fill-opacity="1" /><path clip-path="url(#clip920)" d="M103.191 257.002 L119.51 257.002 L119.51 260.937 L97.566 260.937 L97.566 257.002 Q100.228 254.247 104.811 249.618 Q109.418 244.965 110.598 243.622 Q112.844 241.099 113.723 239.363 Q114.626 237.604 114.626 235.914 Q114.626 233.159 112.682 231.423 Q110.76 229.687 107.658 229.687 Q105.459 229.687 103.006 230.451 Q100.575 231.215 97.7974 232.766 L97.7974 228.044 Q100.621 226.909 103.075 226.331 Q105.529 225.752 107.566 225.752 Q112.936 225.752 116.131 228.437 Q119.325 231.122 119.325 235.613 Q119.325 237.743 118.515 239.664 Q117.728 241.562 115.621 244.155 Q115.043 244.826 111.941 248.043 Q108.839 251.238 103.191 257.002 Z" fill="#000000" fill-rule="nonzero" fill-opacity="1" /><path clip-path="url(#clip920)" d="M129.371 226.377 L147.728 226.377 L147.728 230.312 L133.654 230.312 L133.654 238.784 Q134.672 238.437 135.691 238.275 Q136.709 238.09 137.728 238.09 Q143.515 238.09 146.894 241.261 Q150.274 244.432 150.274 249.849 Q150.274 255.428 146.802 258.53 Q143.33 261.608 137.01 261.608 Q134.834 261.608 132.566 261.238 Q130.32 260.867 127.913 260.127 L127.913 255.428 Q129.996 256.562 132.219 257.118 Q134.441 257.673 136.918 257.673 Q140.922 257.673 143.26 255.567 Q145.598 253.46 145.598 249.849 Q145.598 246.238 143.26 244.131 Q140.922 242.025 136.918 242.025 Q135.043 242.025 133.168 242.442 Q131.316 242.858 129.371 243.738 L129.371 226.377 Z" fill="#000000" fill-rule="nonzero" fill-opacity="1" /><polyline clip-path="url(#clip922)" style="stroke:#009af9; stroke-linecap:round; stroke-linejoin:round; stroke-width:12; stroke-opacity:1; fill:none" points="247.59,1445.72 247.59,1427.27 349.782,1427.27 349.782,1429.32 451.975,1429.32 451.975,1411.89 554.167,1411.89 554.167,1408.82 656.36,1408.82 656.36,1391.4 758.552,1391.4 758.552,1383.2 860.745,1383.2 860.745,1318.12 962.937,1318.12 962.937,1222.8 1065.13,1222.8 1065.13,934.812 1167.32,934.812 1167.32,173.837 1269.51,173.837 1269.51,131.817 1371.71,131.817 1371.71,898.941 1473.9,898.941 1473.9,1203.33 1576.09,1203.33 1576.09,1325.29 1678.29,1325.29 1678.29,1364.24 1780.48,1364.24 1780.48,1394.98 1882.67,1394.98 1882.67,1411.38 1984.86,1411.38 1984.86,1425.73 2087.06,1425.73 2087.06,1422.66 2189.25,1422.66 2189.25,1426.24 2291.44,1426.24 2291.44,1445.72 "/>
<path clip-path="url(#clip922)" d="M247.59 1445.72 L247.59 1358.4 L349.782 1358.4 L349.782 1346.76 L451.975 1346.76 L451.975 1329.29 L554.167 1329.29 L554.167 1340.94 L656.36 1340.94 L656.36 1340.94 L758.552 1340.94 L758.552 1218.69 L860.745 1218.69 L860.745 1183.77 L962.937 1183.77 L962.937 1067.34 L1065.13 1067.34 L1065.13 939.279 L1167.32 939.279 L1167.32 793.752 L1269.51 793.752 L1269.51 735.541 L1371.71 735.541 L1371.71 1073.16 L1473.9 1073.16 L1473.9 1218.69 L1576.09 1218.69 L1576.09 1212.87 L1678.29 1212.87 L1678.29 1241.98 L1780.48 1241.98 L1780.48 1294.37 L1882.67 1294.37 L1882.67 1364.22 L1984.86 1364.22 L1984.86 1311.83 L2087.06 1311.83 L2087.06 1329.29 L2189.25 1329.29 L2189.25 1404.97 L2291.44 1404.97 L2291.44 1445.72 L2291.44 1445.72 L2291.44 1445.72 L2189.25 1445.72 L2189.25 1445.72 L2087.06 1445.72 L2087.06 1445.72 L1984.86 1445.72 L1984.86 1445.72 L1882.67 1445.72 L1882.67 1445.72 L1780.48 1445.72 L1780.48 1445.72 L1678.29 1445.72 L1678.29 1445.72 L1576.09 1445.72 L1576.09 1445.72 L1473.9 1445.72 L1473.9 1445.72 L1371.71 1445.72 L1371.71 1445.72 L1269.51 1445.72 L1269.51 1445.72 L1167.32 1445.72 L1167.32 1445.72 L1065.13 1445.72 L1065.13 1445.72 L962.937 1445.72 L962.937 1445.72 L860.745 1445.72 L860.745 1445.72 L758.552 1445.72 L758.552 1445.72 L656.36 1445.72 L656.36 1445.72 L554.167 1445.72 L554.167 1445.72 L451.975 1445.72 L451.975 1445.72 L349.782 1445.72 L349.782 1445.72 L247.59 1445.72 L247.59 1445.72  Z" fill="#e26f46" fill-rule="evenodd" fill-opacity="0.5"/>
<polyline clip-path="url(#clip922)" style="stroke:#e26f46; stroke-linecap:round; stroke-linejoin:round; stroke-width:4; stroke-opacity:0.5; fill:none" points="247.59,1445.72 247.59,1358.4 349.782,1358.4 349.782,1346.76 451.975,1346.76 451.975,1329.29 554.167,1329.29 554.167,1340.94 656.36,1340.94 758.552,1340.94 758.552,1218.69 860.745,1218.69 860.745,1183.77 962.937,1183.77 962.937,1067.34 1065.13,1067.34 1065.13,939.279 1167.32,939.279 1167.32,793.752 1269.51,793.752 1269.51,735.541 1371.71,735.541 1371.71,1073.16 1473.9,1073.16 1473.9,1218.69 1576.09,1218.69 1576.09,1212.87 1678.29,1212.87 1678.29,1241.98 1780.48,1241.98 1780.48,1294.37 1882.67,1294.37 1882.67,1364.22 1984.86,1364.22 1984.86,1311.83 2087.06,1311.83 2087.06,1329.29 2189.25,1329.29 2189.25,1404.97 2291.44,1404.97 2291.44,1445.72 "/>
<path clip-path="url(#clip922)" d="M247.59 1445.72 L247.59 1409.99 L349.782 1409.99 L349.782 1430.4 L451.975 1430.4 L451.975 1425.3 L554.167 1425.3 L554.167 1399.78 L656.36 1399.78 L656.36 1379.36 L758.552 1379.36 L758.552 1328.32 L860.745 1328.32 L860.745 1261.96 L962.937 1261.96 L962.937 1139.46 L1065.13 1139.46 L1065.13 1006.75 L1167.32 1006.75 L1167.32 87.9763 L1269.51 87.9763 L1269.51 118.602 L1371.71 118.602 L1371.71 1016.96 L1473.9 1016.96 L1473.9 1256.86 L1576.09 1256.86 L1576.09 1358.94 L1678.29 1358.94 L1678.29 1394.67 L1780.48 1394.67 L1780.48 1399.78 L1882.67 1399.78 L1882.67 1399.78 L1984.86 1399.78 L1984.86 1435.51 L2087.06 1435.51 L2087.06 1425.3 L2189.25 1425.3 L2189.25 1430.4 L2291.44 1430.4 L2291.44 1445.72 L2291.44 1445.72 L2291.44 1445.72 L2189.25 1445.72 L2189.25 1445.72 L2087.06 1445.72 L2087.06 1445.72 L1984.86 1445.72 L1984.86 1445.72 L1882.67 1445.72 L1882.67 1445.72 L1780.48 1445.72 L1780.48 1445.72 L1678.29 1445.72 L1678.29 1445.72 L1576.09 1445.72 L1576.09 1445.72 L1473.9 1445.72 L1473.9 1445.72 L1371.71 1445.72 L1371.71 1445.72 L1269.51 1445.72 L1269.51 1445.72 L1167.32 1445.72 L1167.32 1445.72 L1065.13 1445.72 L1065.13 1445.72 L962.937 1445.72 L962.937 1445.72 L860.745 1445.72 L860.745 1445.72 L758.552 1445.72 L758.552 1445.72 L656.36 1445.72 L656.36 1445.72 L554.167 1445.72 L554.167 1445.72 L451.975 1445.72 L451.975 1445.72 L349.782 1445.72 L349.782 1445.72 L247.59 1445.72 L247.59 1445.72  Z" fill="#3da44d" fill-rule="evenodd" fill-opacity="0.5"/>
<polyline clip-path="url(#clip922)" style="stroke:#3da44d; stroke-linecap:round; stroke-linejoin:round; stroke-width:4; stroke-opacity:0.5; fill:none" points="247.59,1445.72 247.59,1409.99 349.782,1409.99 349.782,1430.4 451.975,1430.4 451.975,1425.3 554.167,1425.3 554.167,1399.78 656.36,1399.78 656.36,1379.36 758.552,1379.36 758.552,1328.32 860.745,1328.32 860.745,1261.96 962.937,1261.96 962.937,1139.46 1065.13,1139.46 1065.13,1006.75 1167.32,1006.75 1167.32,87.9763 1269.51,87.9763 1269.51,118.602 1371.71,118.602 1371.71,1016.96 1473.9,1016.96 1473.9,1256.86 1576.09,1256.86 1576.09,1358.94 1678.29,1358.94 1678.29,1394.67 1780.48,1394.67 1780.48,1399.78 1882.67,1399.78 1984.86,1399.78 1984.86,1435.51 2087.06,1435.51 2087.06,1425.3 2189.25,1425.3 2189.25,1430.4 2291.44,1430.4 2291.44,1445.72 "/>
<path clip-path="url(#clip920)" d="M1943.68 302.578 L2280.54 302.578 L2280.54 95.2176 L1943.68 95.2176  Z" fill="#ffffff" fill-rule="evenodd" fill-opacity="1"/>
<polyline clip-path="url(#clip920)" style="stroke:#000000; stroke-linecap:round; stroke-linejoin:round; stroke-width:4; stroke-opacity:1; fill:none" points="1943.68,302.578 2280.54,302.578 2280.54,95.2176 1943.68,95.2176 1943.68,302.578 "/>
<polyline clip-path="url(#clip920)" style="stroke:#009af9; stroke-linecap:round; stroke-linejoin:round; stroke-width:12; stroke-opacity:1; fill:none" points="1967.76,147.058 2112.19,147.058 "/>
<path clip-path="url(#clip920)" d="M2143.67 131.051 L2143.67 138.412 L2152.44 138.412 L2152.44 141.722 L2143.67 141.722 L2143.67 155.796 Q2143.67 158.967 2144.52 159.87 Q2145.4 160.773 2148.07 160.773 L2152.44 160.773 L2152.44 164.338 L2148.07 164.338 Q2143.14 164.338 2141.26 162.509 Q2139.39 160.657 2139.39 155.796 L2139.39 141.722 L2136.26 141.722 L2136.26 138.412 L2139.39 138.412 L2139.39 131.051 L2143.67 131.051 Z" fill="#000000" fill-rule="nonzero" fill-opacity="1" /><path clip-path="url(#clip920)" d="M2173.07 142.393 Q2172.35 141.977 2171.49 141.791 Q2170.66 141.583 2169.64 141.583 Q2166.03 141.583 2164.08 143.944 Q2162.16 146.282 2162.16 150.68 L2162.16 164.338 L2157.88 164.338 L2157.88 138.412 L2162.16 138.412 L2162.16 142.44 Q2163.51 140.078 2165.66 138.944 Q2167.81 137.787 2170.89 137.787 Q2171.33 137.787 2171.86 137.856 Q2172.39 137.903 2173.04 138.018 L2173.07 142.393 Z" fill="#000000" fill-rule="nonzero" fill-opacity="1" /><path clip-path="url(#clip920)" d="M2177.09 154.106 L2177.09 138.412 L2181.35 138.412 L2181.35 153.944 Q2181.35 157.625 2182.79 159.476 Q2184.22 161.305 2187.09 161.305 Q2190.54 161.305 2192.53 159.106 Q2194.55 156.907 2194.55 153.111 L2194.55 138.412 L2198.81 138.412 L2198.81 164.338 L2194.55 164.338 L2194.55 160.356 Q2193 162.717 2190.94 163.875 Q2188.9 165.009 2186.19 165.009 Q2181.72 165.009 2179.41 162.231 Q2177.09 159.453 2177.09 154.106 M2187.81 137.787 L2187.81 137.787 Z" fill="#000000" fill-rule="nonzero" fill-opacity="1" /><path clip-path="url(#clip920)" d="M2229.76 150.31 L2229.76 152.393 L2210.17 152.393 Q2210.45 156.791 2212.81 159.106 Q2215.19 161.398 2219.43 161.398 Q2221.88 161.398 2224.18 160.796 Q2226.49 160.194 2228.76 158.99 L2228.76 163.018 Q2226.47 163.99 2224.06 164.5 Q2221.65 165.009 2219.18 165.009 Q2212.97 165.009 2209.34 161.398 Q2205.73 157.787 2205.73 151.629 Q2205.73 145.264 2209.15 141.537 Q2212.6 137.787 2218.44 137.787 Q2223.67 137.787 2226.7 141.166 Q2229.76 144.523 2229.76 150.31 M2225.5 149.06 Q2225.45 145.565 2223.53 143.481 Q2221.63 141.398 2218.48 141.398 Q2214.92 141.398 2212.76 143.412 Q2210.63 145.426 2210.31 149.083 L2225.5 149.06 Z" fill="#000000" fill-rule="nonzero" fill-opacity="1" /><path clip-path="url(#clip920)" d="M1967.76 219.634 L2112.19 219.634 L2112.19 178.162 L1967.76 178.162 L1967.76 219.634  Z" fill="#e26f46" fill-rule="evenodd" fill-opacity="0.5"/>
<polyline clip-path="url(#clip920)" style="stroke:#e26f46; stroke-linecap:round; stroke-linejoin:round; stroke-width:4; stroke-opacity:0.5; fill:none" points="1967.76,178.162 2112.19,178.162 "/>
<path clip-path="url(#clip920)" d="M2136.26 181.618 L2140.94 181.618 L2140.94 212.242 L2157.76 212.242 L2157.76 216.178 L2136.26 216.178 L2136.26 181.618 Z" fill="#000000" fill-rule="nonzero" fill-opacity="1" /><path clip-path="url(#clip920)" d="M2183.39 182.752 L2183.39 187.312 Q2180.73 186.039 2178.37 185.414 Q2176.01 184.789 2173.81 184.789 Q2169.99 184.789 2167.9 186.27 Q2165.84 187.752 2165.84 190.483 Q2165.84 192.775 2167.21 193.955 Q2168.6 195.113 2172.44 195.83 L2175.26 196.409 Q2180.5 197.405 2182.97 199.928 Q2185.47 202.428 2185.47 206.641 Q2185.47 211.664 2182.09 214.256 Q2178.74 216.849 2172.23 216.849 Q2169.78 216.849 2167 216.293 Q2164.25 215.738 2161.28 214.65 L2161.28 209.835 Q2164.13 211.432 2166.86 212.242 Q2169.59 213.053 2172.23 213.053 Q2176.24 213.053 2178.41 211.479 Q2180.59 209.904 2180.59 206.988 Q2180.59 204.442 2179.01 203.006 Q2177.46 201.571 2173.9 200.854 L2171.05 200.298 Q2165.82 199.256 2163.48 197.034 Q2161.14 194.812 2161.14 190.854 Q2161.14 186.27 2164.36 183.631 Q2167.6 180.993 2173.27 180.993 Q2175.7 180.993 2178.23 181.432 Q2180.75 181.872 2183.39 182.752 Z" fill="#000000" fill-rule="nonzero" fill-opacity="1" /><path clip-path="url(#clip920)" d="M2213.48 182.752 L2213.48 187.312 Q2210.82 186.039 2208.46 185.414 Q2206.1 184.789 2203.9 184.789 Q2200.08 184.789 2198 186.27 Q2195.94 187.752 2195.94 190.483 Q2195.94 192.775 2197.3 193.955 Q2198.69 195.113 2202.53 195.83 L2205.36 196.409 Q2210.59 197.405 2213.07 199.928 Q2215.57 202.428 2215.57 206.641 Q2215.57 211.664 2212.19 214.256 Q2208.83 216.849 2202.32 216.849 Q2199.87 216.849 2197.09 216.293 Q2194.34 215.738 2191.38 214.65 L2191.38 209.835 Q2194.22 211.432 2196.95 212.242 Q2199.69 213.053 2202.32 213.053 Q2206.33 213.053 2208.51 211.479 Q2210.68 209.904 2210.68 206.988 Q2210.68 204.442 2209.11 203.006 Q2207.56 201.571 2203.99 200.854 L2201.14 200.298 Q2195.91 199.256 2193.57 197.034 Q2191.24 194.812 2191.24 190.854 Q2191.24 186.27 2194.45 183.631 Q2197.69 180.993 2203.37 180.993 Q2205.8 180.993 2208.32 181.432 Q2210.84 181.872 2213.48 182.752 Z" fill="#000000" fill-rule="nonzero" fill-opacity="1" /><path clip-path="url(#clip920)" d="M1967.76 271.474 L2112.19 271.474 L2112.19 230.002 L1967.76 230.002 L1967.76 271.474  Z" fill="#3da44d" fill-rule="evenodd" fill-opacity="0.5"/>
<polyline clip-path="url(#clip920)" style="stroke:#3da44d; stroke-linecap:round; stroke-linejoin:round; stroke-width:4; stroke-opacity:0.5; fill:none" points="1967.76,230.002 2112.19,230.002 "/>
<path clip-path="url(#clip920)" d="M2161.82 263.087 L2161.82 253.805 L2154.18 253.805 L2154.18 249.962 L2166.45 249.962 L2166.45 264.8 Q2163.74 266.721 2160.47 267.717 Q2157.21 268.689 2153.51 268.689 Q2145.4 268.689 2140.82 263.967 Q2136.26 259.221 2136.26 250.772 Q2136.26 242.3 2140.82 237.578 Q2145.4 232.833 2153.51 232.833 Q2156.89 232.833 2159.92 233.666 Q2162.97 234.499 2165.54 236.12 L2165.54 241.096 Q2162.95 238.897 2160.03 237.786 Q2157.12 236.675 2153.9 236.675 Q2147.56 236.675 2144.36 240.217 Q2141.19 243.758 2141.19 250.772 Q2141.19 257.763 2144.36 261.305 Q2147.56 264.846 2153.9 264.846 Q2156.38 264.846 2158.32 264.43 Q2160.26 263.99 2161.82 263.087 Z" fill="#000000" fill-rule="nonzero" fill-opacity="1" /><path clip-path="url(#clip920)" d="M2179.66 237.3 L2179.66 250.286 L2185.54 250.286 Q2188.81 250.286 2190.59 248.596 Q2192.37 246.907 2192.37 243.782 Q2192.37 240.68 2190.59 238.99 Q2188.81 237.3 2185.54 237.3 L2179.66 237.3 M2174.99 233.458 L2185.54 233.458 Q2191.35 233.458 2194.32 236.096 Q2197.3 238.712 2197.3 243.782 Q2197.3 248.897 2194.32 251.513 Q2191.35 254.129 2185.54 254.129 L2179.66 254.129 L2179.66 268.018 L2174.99 268.018 L2174.99 233.458 Z" fill="#000000" fill-rule="nonzero" fill-opacity="1" /><path clip-path="url(#clip920)" d="M2224.29 234.592 L2224.29 239.152 Q2221.63 237.879 2219.27 237.254 Q2216.91 236.629 2214.71 236.629 Q2210.89 236.629 2208.81 238.11 Q2206.75 239.592 2206.75 242.323 Q2206.75 244.615 2208.11 245.795 Q2209.5 246.953 2213.34 247.67 L2216.17 248.249 Q2221.4 249.245 2223.88 251.768 Q2226.38 254.268 2226.38 258.481 Q2226.38 263.504 2223 266.096 Q2219.64 268.689 2213.13 268.689 Q2210.68 268.689 2207.9 268.133 Q2205.15 267.578 2202.19 266.49 L2202.19 261.675 Q2205.03 263.272 2207.76 264.082 Q2210.5 264.893 2213.13 264.893 Q2217.14 264.893 2219.32 263.319 Q2221.49 261.744 2221.49 258.828 Q2221.49 256.282 2219.92 254.846 Q2218.37 253.411 2214.8 252.694 L2211.95 252.138 Q2206.72 251.096 2204.38 248.874 Q2202.05 246.652 2202.05 242.694 Q2202.05 238.11 2205.26 235.471 Q2208.51 232.833 2214.18 232.833 Q2216.61 232.833 2219.13 233.272 Q2221.65 233.712 2224.29 234.592 Z" fill="#000000" fill-rule="nonzero" fill-opacity="1" /><path clip-path="url(#clip920)" d="M2254.38 234.592 L2254.38 239.152 Q2251.72 237.879 2249.36 237.254 Q2247 236.629 2244.8 236.629 Q2240.98 236.629 2238.9 238.11 Q2236.84 239.592 2236.84 242.323 Q2236.84 244.615 2238.2 245.795 Q2239.59 246.953 2243.44 247.67 L2246.26 248.249 Q2251.49 249.245 2253.97 251.768 Q2256.47 254.268 2256.47 258.481 Q2256.47 263.504 2253.09 266.096 Q2249.73 268.689 2243.23 268.689 Q2240.77 268.689 2238 268.133 Q2235.24 267.578 2232.28 266.49 L2232.28 261.675 Q2235.13 263.272 2237.86 264.082 Q2240.59 264.893 2243.23 264.893 Q2247.23 264.893 2249.41 263.319 Q2251.58 261.744 2251.58 258.828 Q2251.58 256.282 2250.01 254.846 Q2248.46 253.411 2244.89 252.694 L2242.05 252.138 Q2236.82 251.096 2234.48 248.874 Q2232.14 246.652 2232.14 242.694 Q2232.14 238.11 2235.36 235.471 Q2238.6 232.833 2244.27 232.833 Q2246.7 232.833 2249.22 233.272 Q2251.75 233.712 2254.38 234.592 Z" fill="#000000" fill-rule="nonzero" fill-opacity="1" /></svg>
