<?xml version="1.0" encoding="utf-8"?>
<svg xmlns="http://www.w3.org/2000/svg" xmlns:xlink="http://www.w3.org/1999/xlink" width="600" height="400" viewBox="0 0 2400 1600">
<defs>
  <clipPath id="clip810">
    <rect x="0" y="0" width="2400" height="1600"/>
  </clipPath>
</defs>
<path clip-path="url(#clip810)" d="M0 1600 L2400 1600 L2400 0 L0 0  Z" fill="#ffffff" fill-rule="evenodd" fill-opacity="1"/>
<defs>
  <clipPath id="clip811">
    <rect x="480" y="0" width="1681" height="1600"/>
  </clipPath>
</defs>
<path clip-path="url(#clip810)" d="M178.867 686.448 L2352.76 686.448 L2352.76 47.2441 L178.867 47.2441  Z" fill="#ffffff" fill-rule="evenodd" fill-opacity="1"/>
<defs>
  <clipPath id="clip812">
    <rect x="178" y="47" width="2175" height="640"/>
  </clipPath>
</defs>
<polyline clip-path="url(#clip812)" style="stroke:#000000; stroke-linecap:round; stroke-linejoin:round; stroke-width:2; stroke-opacity:0.1; fill:none" points="238.339,686.448 238.339,47.2441 "/>
<polyline clip-path="url(#clip812)" style="stroke:#000000; stroke-linecap:round; stroke-linejoin:round; stroke-width:2; stroke-opacity:0.1; fill:none" points="751.562,686.448 751.562,47.2441 "/>
<polyline clip-path="url(#clip812)" style="stroke:#000000; stroke-linecap:round; stroke-linejoin:round; stroke-width:2; stroke-opacity:0.1; fill:none" points="1264.78,686.448 1264.78,47.2441 "/>
<polyline clip-path="url(#clip812)" style="stroke:#000000; stroke-linecap:round; stroke-linejoin:round; stroke-width:2; stroke-opacity:0.1; fill:none" points="1778.01,686.448 1778.01,47.2441 "/>
<polyline clip-path="url(#clip812)" style="stroke:#000000; stroke-linecap:round; stroke-linejoin:round; stroke-width:2; stroke-opacity:0.1; fill:none" points="2291.23,686.448 2291.23,47.2441 "/>
<polyline clip-path="url(#clip812)" style="stroke:#000000; stroke-linecap:round; stroke-linejoin:round; stroke-width:2; stroke-opacity:0.1; fill:none" points="178.867,686.448 2352.76,686.448 "/>
<polyline clip-path="url(#clip812)" style="stroke:#000000; stroke-linecap:round; stroke-linejoin:round; stroke-width:2; stroke-opacity:0.1; fill:none" points="178.867,526.647 2352.76,526.647 "/>
<polyline clip-path="url(#clip812)" style="stroke:#000000; stroke-linecap:round; stroke-linejoin:round; stroke-width:2; stroke-opacity:0.1; fill:none" points="178.867,366.846 2352.76,366.846 "/>
<polyline clip-path="url(#clip812)" style="stroke:#000000; stroke-linecap:round; stroke-linejoin:round; stroke-width:2; stroke-opacity:0.1; fill:none" points="178.867,207.045 2352.76,207.045 "/>
<polyline clip-path="url(#clip812)" style="stroke:#000000; stroke-linecap:round; stroke-linejoin:round; stroke-width:2; stroke-opacity:0.1; fill:none" points="178.867,47.2441 2352.76,47.2441 "/>
<polyline clip-path="url(#clip810)" style="stroke:#000000; stroke-linecap:round; stroke-linejoin:round; stroke-width:4; stroke-opacity:1; fill:none" points="178.867,686.448 2352.76,686.448 "/>
<polyline clip-path="url(#clip810)" style="stroke:#000000; stroke-linecap:round; stroke-linejoin:round; stroke-width:4; stroke-opacity:1; fill:none" points="238.339,686.448 238.339,667.55 "/>
<polyline clip-path="url(#clip810)" style="stroke:#000000; stroke-linecap:round; stroke-linejoin:round; stroke-width:4; stroke-opacity:1; fill:none" points="751.562,686.448 751.562,667.55 "/>
<polyline clip-path="url(#clip810)" style="stroke:#000000; stroke-linecap:round; stroke-linejoin:round; stroke-width:4; stroke-opacity:1; fill:none" points="1264.78,686.448 1264.78,667.55 "/>
<polyline clip-path="url(#clip810)" style="stroke:#000000; stroke-linecap:round; stroke-linejoin:round; stroke-width:4; stroke-opacity:1; fill:none" points="1778.01,686.448 1778.01,667.55 "/>
<polyline clip-path="url(#clip810)" style="stroke:#000000; stroke-linecap:round; stroke-linejoin:round; stroke-width:4; stroke-opacity:1; fill:none" points="2291.23,686.448 2291.23,667.55 "/>
<path clip-path="url(#clip810)" d="M238.339 717.367 Q234.728 717.367 232.899 720.931 Q231.094 724.473 231.094 731.603 Q231.094 738.709 232.899 742.274 Q234.728 745.815 238.339 745.815 Q241.973 745.815 243.779 742.274 Q245.607 738.709 245.607 731.603 Q245.607 724.473 243.779 720.931 Q241.973 717.367 238.339 717.367 M238.339 713.663 Q244.149 713.663 247.205 718.269 Q250.283 722.853 250.283 731.603 Q250.283 740.329 247.205 744.936 Q244.149 749.519 238.339 749.519 Q232.529 749.519 229.45 744.936 Q226.395 740.329 226.395 731.603 Q226.395 722.853 229.45 718.269 Q232.529 713.663 238.339 713.663 Z" fill="#000000" fill-rule="nonzero" fill-opacity="1" /><path clip-path="url(#clip810)" d="M715.254 744.913 L731.574 744.913 L731.574 748.848 L709.629 748.848 L709.629 744.913 Q712.291 742.158 716.875 737.528 Q721.481 732.876 722.662 731.533 Q724.907 729.01 725.787 727.274 Q726.689 725.515 726.689 723.825 Q726.689 721.07 724.745 719.334 Q722.824 717.598 719.722 717.598 Q717.523 717.598 715.069 718.362 Q712.638 719.126 709.861 720.677 L709.861 715.955 Q712.685 714.82 715.138 714.242 Q717.592 713.663 719.629 713.663 Q725 713.663 728.194 716.348 Q731.388 719.033 731.388 723.524 Q731.388 725.654 730.578 727.575 Q729.791 729.473 727.685 732.066 Q727.106 732.737 724.004 735.954 Q720.902 739.149 715.254 744.913 Z" fill="#000000" fill-rule="nonzero" fill-opacity="1" /><path clip-path="url(#clip810)" d="M741.435 714.288 L759.791 714.288 L759.791 718.223 L745.717 718.223 L745.717 726.695 Q746.736 726.348 747.754 726.186 Q748.773 726.001 749.791 726.001 Q755.578 726.001 758.958 729.172 Q762.337 732.343 762.337 737.76 Q762.337 743.339 758.865 746.44 Q755.393 749.519 749.073 749.519 Q746.898 749.519 744.629 749.149 Q742.384 748.778 739.976 748.038 L739.976 743.339 Q742.06 744.473 744.282 745.028 Q746.504 745.584 748.981 745.584 Q752.985 745.584 755.323 743.478 Q757.661 741.371 757.661 737.76 Q757.661 734.149 755.323 732.042 Q752.985 729.936 748.981 729.936 Q747.106 729.936 745.231 730.353 Q743.379 730.769 741.435 731.649 L741.435 714.288 Z" fill="#000000" fill-rule="nonzero" fill-opacity="1" /><path clip-path="url(#clip810)" d="M781.55 717.367 Q777.939 717.367 776.11 720.931 Q774.305 724.473 774.305 731.603 Q774.305 738.709 776.11 742.274 Q777.939 745.815 781.55 745.815 Q785.184 745.815 786.99 742.274 Q788.819 738.709 788.819 731.603 Q788.819 724.473 786.99 720.931 Q785.184 717.367 781.55 717.367 M781.55 713.663 Q787.36 713.663 790.416 718.269 Q793.495 722.853 793.495 731.603 Q793.495 740.329 790.416 744.936 Q787.36 749.519 781.55 749.519 Q775.74 749.519 772.661 744.936 Q769.606 740.329 769.606 731.603 Q769.606 722.853 772.661 718.269 Q775.74 713.663 781.55 713.663 Z" fill="#000000" fill-rule="nonzero" fill-opacity="1" /><path clip-path="url(#clip810)" d="M1224.4 714.288 L1242.76 714.288 L1242.76 718.223 L1228.69 718.223 L1228.69 726.695 Q1229.7 726.348 1230.72 726.186 Q1231.74 726.001 1232.76 726.001 Q1238.55 726.001 1241.93 729.172 Q1245.31 732.343 1245.31 737.76 Q1245.31 743.339 1241.83 746.44 Q1238.36 749.519 1232.04 749.519 Q1229.87 749.519 1227.6 749.149 Q1225.35 748.778 1222.94 748.038 L1222.94 743.339 Q1225.03 744.473 1227.25 745.028 Q1229.47 745.584 1231.95 745.584 Q1235.95 745.584 1238.29 743.478 Q1240.63 741.371 1240.63 737.76 Q1240.63 734.149 1238.29 732.042 Q1235.95 729.936 1231.95 729.936 Q1230.07 729.936 1228.2 730.353 Q1226.35 730.769 1224.4 731.649 L1224.4 714.288 Z" fill="#000000" fill-rule="nonzero" fill-opacity="1" /><path clip-path="url(#clip810)" d="M1264.52 717.367 Q1260.91 717.367 1259.08 720.931 Q1257.27 724.473 1257.27 731.603 Q1257.27 738.709 1259.08 742.274 Q1260.91 745.815 1264.52 745.815 Q1268.15 745.815 1269.96 742.274 Q1271.79 738.709 1271.79 731.603 Q1271.79 724.473 1269.96 720.931 Q1268.15 717.367 1264.52 717.367 M1264.52 713.663 Q1270.33 713.663 1273.38 718.269 Q1276.46 722.853 1276.46 731.603 Q1276.46 740.329 1273.38 744.936 Q1270.33 749.519 1264.52 749.519 Q1258.71 749.519 1255.63 744.936 Q1252.57 740.329 1252.57 731.603 Q1252.57 722.853 1255.63 718.269 Q1258.71 713.663 1264.52 713.663 Z" fill="#000000" fill-rule="nonzero" fill-opacity="1" /><path clip-path="url(#clip810)" d="M1294.68 717.367 Q1291.07 717.367 1289.24 720.931 Q1287.44 724.473 1287.44 731.603 Q1287.44 738.709 1289.24 742.274 Q1291.07 745.815 1294.68 745.815 Q1298.31 745.815 1300.12 742.274 Q1301.95 738.709 1301.95 731.603 Q1301.95 724.473 1300.12 720.931 Q1298.31 717.367 1294.68 717.367 M1294.68 713.663 Q1300.49 713.663 1303.55 718.269 Q1306.62 722.853 1306.62 731.603 Q1306.62 740.329 1303.55 744.936 Q1300.49 749.519 1294.68 749.519 Q1288.87 749.519 1285.79 744.936 Q1282.74 740.329 1282.74 731.603 Q1282.74 722.853 1285.79 718.269 Q1288.87 713.663 1294.68 713.663 Z" fill="#000000" fill-rule="nonzero" fill-opacity="1" /><path clip-path="url(#clip810)" d="M1736.28 714.288 L1758.51 714.288 L1758.51 716.279 L1745.96 748.848 L1741.08 748.848 L1752.88 718.223 L1736.28 718.223 L1736.28 714.288 Z" fill="#000000" fill-rule="nonzero" fill-opacity="1" /><path clip-path="url(#clip810)" d="M1767.67 714.288 L1786.03 714.288 L1786.03 718.223 L1771.95 718.223 L1771.95 726.695 Q1772.97 726.348 1773.99 726.186 Q1775.01 726.001 1776.03 726.001 Q1781.82 726.001 1785.2 729.172 Q1788.57 732.343 1788.57 737.76 Q1788.57 743.339 1785.1 746.44 Q1781.63 749.519 1775.31 749.519 Q1773.14 749.519 1770.87 749.149 Q1768.62 748.778 1766.21 748.038 L1766.21 743.339 Q1768.3 744.473 1770.52 745.028 Q1772.74 745.584 1775.22 745.584 Q1779.22 745.584 1781.56 743.478 Q1783.9 741.371 1783.9 737.76 Q1783.9 734.149 1781.56 732.042 Q1779.22 729.936 1775.22 729.936 Q1773.34 729.936 1771.47 730.353 Q1769.62 730.769 1767.67 731.649 L1767.67 714.288 Z" fill="#000000" fill-rule="nonzero" fill-opacity="1" /><path clip-path="url(#clip810)" d="M1807.79 717.367 Q1804.18 717.367 1802.35 720.931 Q1800.54 724.473 1800.54 731.603 Q1800.54 738.709 1802.35 742.274 Q1804.18 745.815 1807.79 745.815 Q1811.42 745.815 1813.23 742.274 Q1815.06 738.709 1815.06 731.603 Q1815.06 724.473 1813.23 720.931 Q1811.42 717.367 1807.79 717.367 M1807.79 713.663 Q1813.6 713.663 1816.65 718.269 Q1819.73 722.853 1819.73 731.603 Q1819.73 740.329 1816.65 744.936 Q1813.6 749.519 1807.79 749.519 Q1801.98 749.519 1798.9 744.936 Q1795.84 740.329 1795.84 731.603 Q1795.84 722.853 1798.9 718.269 Q1801.98 713.663 1807.79 713.663 Z" fill="#000000" fill-rule="nonzero" fill-opacity="1" /><path clip-path="url(#clip810)" d="M2235.76 744.913 L2243.4 744.913 L2243.4 718.547 L2235.09 720.214 L2235.09 715.955 L2243.35 714.288 L2248.02 714.288 L2248.02 744.913 L2255.66 744.913 L2255.66 748.848 L2235.76 748.848 L2235.76 744.913 Z" fill="#000000" fill-rule="nonzero" fill-opacity="1" /><path clip-path="url(#clip810)" d="M2275.11 717.367 Q2271.5 717.367 2269.67 720.931 Q2267.86 724.473 2267.86 731.603 Q2267.86 738.709 2269.67 742.274 Q2271.5 745.815 2275.11 745.815 Q2278.74 745.815 2280.55 742.274 Q2282.38 738.709 2282.38 731.603 Q2282.38 724.473 2280.55 720.931 Q2278.74 717.367 2275.11 717.367 M2275.11 713.663 Q2280.92 713.663 2283.97 718.269 Q2287.05 722.853 2287.05 731.603 Q2287.05 740.329 2283.97 744.936 Q2280.92 749.519 2275.11 749.519 Q2269.3 749.519 2266.22 744.936 Q2263.16 740.329 2263.16 731.603 Q2263.16 722.853 2266.22 718.269 Q2269.3 713.663 2275.11 713.663 Z" fill="#000000" fill-rule="nonzero" fill-opacity="1" /><path clip-path="url(#clip810)" d="M2305.27 717.367 Q2301.66 717.367 2299.83 720.931 Q2298.02 724.473 2298.02 731.603 Q2298.02 738.709 2299.83 742.274 Q2301.66 745.815 2305.27 745.815 Q2308.9 745.815 2310.71 742.274 Q2312.54 738.709 2312.54 731.603 Q2312.54 724.473 2310.71 720.931 Q2308.9 717.367 2305.27 717.367 M2305.27 713.663 Q2311.08 713.663 2314.14 718.269 Q2317.21 722.853 2317.21 731.603 Q2317.21 740.329 2314.14 744.936 Q2311.08 749.519 2305.27 749.519 Q2299.46 749.519 2296.38 744.936 Q2293.33 740.329 2293.33 731.603 Q2293.33 722.853 2296.38 718.269 Q2299.46 713.663 2305.27 713.663 Z" fill="#000000" fill-rule="nonzero" fill-opacity="1" /><path clip-path="url(#clip810)" d="M2335.43 717.367 Q2331.82 717.367 2329.99 720.931 Q2328.19 724.473 2328.19 731.603 Q2328.19 738.709 2329.99 742.274 Q2331.82 745.815 2335.43 745.815 Q2339.07 745.815 2340.87 742.274 Q2342.7 738.709 2342.7 731.603 Q2342.7 724.473 2340.87 720.931 Q2339.07 717.367 2335.43 717.367 M2335.43 713.663 Q2341.24 713.663 2344.3 718.269 Q2347.38 722.853 2347.38 731.603 Q2347.38 740.329 2344.3 744.936 Q2341.24 749.519 2335.43 749.519 Q2329.62 749.519 2326.54 744.936 Q2323.49 740.329 2323.49 731.603 Q2323.49 722.853 2326.54 718.269 Q2329.62 713.663 2335.43 713.663 Z" fill="#000000" fill-rule="nonzero" fill-opacity="1" /><polyline clip-path="url(#clip810)" style="stroke:#000000; stroke-linecap:round; stroke-linejoin:round; stroke-width:4; stroke-opacity:1; fill:none" points="178.867,686.448 178.867,47.2441 "/>
<polyline clip-path="url(#clip810)" style="stroke:#000000; stroke-linecap:round; stroke-linejoin:round; stroke-width:4; stroke-opacity:1; fill:none" points="178.867,686.448 197.764,686.448 "/>
<polyline clip-path="url(#clip810)" style="stroke:#000000; stroke-linecap:round; stroke-linejoin:round; stroke-width:4; stroke-opacity:1; fill:none" points="178.867,526.647 197.764,526.647 "/>
<polyline clip-path="url(#clip810)" style="stroke:#000000; stroke-linecap:round; stroke-linejoin:round; stroke-width:4; stroke-opacity:1; fill:none" points="178.867,366.846 197.764,366.846 "/>
<polyline clip-path="url(#clip810)" style="stroke:#000000; stroke-linecap:round; stroke-linejoin:round; stroke-width:4; stroke-opacity:1; fill:none" points="178.867,207.045 197.764,207.045 "/>
<polyline clip-path="url(#clip810)" style="stroke:#000000; stroke-linecap:round; stroke-linejoin:round; stroke-width:4; stroke-opacity:1; fill:none" points="178.867,47.2441 197.764,47.2441 "/>
<path clip-path="url(#clip810)" d="M50.9921 686.899 L80.6679 686.899 L80.6679 690.834 L50.9921 690.834 L50.9921 686.899 Z" fill="#000000" fill-rule="nonzero" fill-opacity="1" /><path clip-path="url(#clip810)" d="M91.5706 699.793 L99.2095 699.793 L99.2095 673.427 L90.8993 675.094 L90.8993 670.835 L99.1632 669.168 L103.839 669.168 L103.839 699.793 L111.478 699.793 L111.478 703.728 L91.5706 703.728 L91.5706 699.793 Z" fill="#000000" fill-rule="nonzero" fill-opacity="1" /><path clip-path="url(#clip810)" d="M130.922 672.247 Q127.311 672.247 125.482 675.811 Q123.677 679.353 123.677 686.483 Q123.677 693.589 125.482 697.154 Q127.311 700.695 130.922 700.695 Q134.556 700.695 136.362 697.154 Q138.191 693.589 138.191 686.483 Q138.191 679.353 136.362 675.811 Q134.556 672.247 130.922 672.247 M130.922 668.543 Q136.732 668.543 139.788 673.149 Q142.867 677.733 142.867 686.483 Q142.867 695.209 139.788 699.816 Q136.732 704.399 130.922 704.399 Q125.112 704.399 122.033 699.816 Q118.978 695.209 118.978 686.483 Q118.978 677.733 122.033 673.149 Q125.112 668.543 130.922 668.543 Z" fill="#000000" fill-rule="nonzero" fill-opacity="1" /><path clip-path="url(#clip810)" d="M82.1494 527.098 L111.825 527.098 L111.825 531.033 L82.1494 531.033 L82.1494 527.098 Z" fill="#000000" fill-rule="nonzero" fill-opacity="1" /><path clip-path="url(#clip810)" d="M121.964 509.367 L140.32 509.367 L140.32 513.302 L126.246 513.302 L126.246 521.774 Q127.265 521.427 128.283 521.265 Q129.302 521.08 130.32 521.08 Q136.107 521.08 139.487 524.251 Q142.867 527.422 142.867 532.839 Q142.867 538.418 139.394 541.52 Q135.922 544.598 129.603 544.598 Q127.427 544.598 125.158 544.228 Q122.913 543.857 120.506 543.117 L120.506 538.418 Q122.589 539.552 124.811 540.108 Q127.033 540.663 129.51 540.663 Q133.515 540.663 135.853 538.557 Q138.191 536.45 138.191 532.839 Q138.191 529.228 135.853 527.121 Q133.515 525.015 129.51 525.015 Q127.635 525.015 125.76 525.432 Q123.908 525.848 121.964 526.728 L121.964 509.367 Z" fill="#000000" fill-rule="nonzero" fill-opacity="1" /><path clip-path="url(#clip810)" d="M130.922 352.645 Q127.311 352.645 125.482 356.209 Q123.677 359.751 123.677 366.881 Q123.677 373.987 125.482 377.552 Q127.311 381.094 130.922 381.094 Q134.556 381.094 136.362 377.552 Q138.191 373.987 138.191 366.881 Q138.191 359.751 136.362 356.209 Q134.556 352.645 130.922 352.645 M130.922 348.941 Q136.732 348.941 139.788 353.547 Q142.867 358.131 142.867 366.881 Q142.867 375.608 139.788 380.214 Q136.732 384.797 130.922 384.797 Q125.112 384.797 122.033 380.214 Q118.978 375.608 118.978 366.881 Q118.978 358.131 122.033 353.547 Q125.112 348.941 130.922 348.941 Z" fill="#000000" fill-rule="nonzero" fill-opacity="1" /><path clip-path="url(#clip810)" d="M121.964 189.765 L140.32 189.765 L140.32 193.7 L126.246 193.7 L126.246 202.172 Q127.265 201.825 128.283 201.663 Q129.302 201.478 130.32 201.478 Q136.107 201.478 139.487 204.649 Q142.867 207.82 142.867 213.237 Q142.867 218.816 139.394 221.918 Q135.922 224.996 129.603 224.996 Q127.427 224.996 125.158 224.626 Q122.913 224.256 120.506 223.515 L120.506 218.816 Q122.589 219.95 124.811 220.506 Q127.033 221.061 129.51 221.061 Q133.515 221.061 135.853 218.955 Q138.191 216.848 138.191 213.237 Q138.191 209.626 135.853 207.52 Q133.515 205.413 129.51 205.413 Q127.635 205.413 125.76 205.83 Q123.908 206.246 121.964 207.126 L121.964 189.765 Z" fill="#000000" fill-rule="nonzero" fill-opacity="1" /><path clip-path="url(#clip810)" d="M91.5706 60.5889 L99.2095 60.5889 L99.2095 34.2233 L90.8993 35.89 L90.8993 31.6308 L99.1632 29.9641 L103.839 29.9641 L103.839 60.5889 L111.478 60.5889 L111.478 64.5241 L91.5706 64.5241 L91.5706 60.5889 Z" fill="#000000" fill-rule="nonzero" fill-opacity="1" /><path clip-path="url(#clip810)" d="M130.922 33.0428 Q127.311 33.0428 125.482 36.6076 Q123.677 40.1492 123.677 47.2788 Q123.677 54.3853 125.482 57.9501 Q127.311 61.4917 130.922 61.4917 Q134.556 61.4917 136.362 57.9501 Q138.191 54.3853 138.191 47.2788 Q138.191 40.1492 136.362 36.6076 Q134.556 33.0428 130.922 33.0428 M130.922 29.3391 Q136.732 29.3391 139.788 33.9456 Q142.867 38.5289 142.867 47.2788 Q142.867 56.0056 139.788 60.6121 Q136.732 65.1954 130.922 65.1954 Q125.112 65.1954 122.033 60.6121 Q118.978 56.0056 118.978 47.2788 Q118.978 38.5289 122.033 33.9456 Q125.112 29.3391 130.922 29.3391 Z" fill="#000000" fill-rule="nonzero" fill-opacity="1" /><polyline clip-path="url(#clip812)" style="stroke:#009af9; stroke-linecap:round; stroke-linejoin:round; stroke-width:4; stroke-opacity:1; fill:none" points="240.392,334.886 242.445,329.238 244.498,331.233 246.55,327.698 248.603,323.259 250.656,313.756 252.709,313.867 254.762,315.266 256.815,308.772 258.868,346.55 260.921,349.818 262.974,354.811 265.027,354.532 267.079,354.916 269.132,355.139 271.185,353.429 273.238,353.104 275.291,344.687 277.344,344.684 279.397,344.816 281.45,349.06 283.503,349.396 285.555,364.471 287.608,363.426 289.661,362.298 291.714,361.339 293.767,359.018 295.82,356.373 297.873,354.491 299.926,347.272 301.979,383.071 304.031,383.031 306.084,382.496 308.137,382.497 310.19,381.656 312.243,381.632 314.296,381.548 316.349,381.699 318.402,380.298 320.455,369.965 322.507,374.193 324.56,371.35 326.613,371.501 328.666,371.494 330.719,369.445 332.772,370.322 334.825,382.547 336.878,383.242 338.931,381.397 340.984,381.622 343.036,381.822 345.089,372.475 347.142,372.17 349.195,390.054 351.248,391.546 353.301,382.552 355.354,363.229 357.407,367.634 359.46,363.762 361.512,363.228 363.565,371.434 365.618,370.749 367.671,371.485 369.724,378.63 371.777,367.737 373.83,375.91 375.883,372.178 377.936,371.857 379.988,373.788 382.041,375.125 384.094,375.075 386.147,372.465 388.2,373.612 390.253,327.502 392.306,375.503 394.359,375.153 396.412,371.227 398.464,374.697 400.517,374.53 402.57,371.142 404.623,361.052 406.676,369.981 408.729,370.335 410.782,415.716 412.835,424.626 414.888,423.465 416.94,395.439 418.993,393.627 421.046,392.883 423.099,391.928 425.152,393.324 427.205,398.82 429.258,392.167 431.311,392.837 433.364,384.904 435.417,384.938 437.469,388.833 439.522,404.862 441.575,405.386 443.628,403.912 445.681,441.434 447.734,439.986 449.787,440.04 451.84,440.279 453.893,439.919 455.945,444.897 457.998,440.401 460.051,419.56 462.104,419.687 464.157,431.026 466.21,423.371 468.263,434.646 470.316,434.633 472.369,435.58 474.421,405.103 476.474,402.596 478.527,401.927 480.58,403.992 482.633,402.902 484.686,411.968 486.739,410.921 488.792,390.127 490.845,370.718 492.897,293.281 494.95,296.821 497.003,301.932 499.056,303.354 501.109,264.32 503.162,260.231 505.215,263.562 507.268,261.072 509.321,260.851 511.374,257.144 513.426,259.171 515.479,261.252 517.532,255.798 519.585,267.238 521.638,267.209 523.691,250.499 525.744,347.462 527.797,347.994 529.85,355.794 531.902,358.116 533.955,271.52 536.008,272.769 538.061,273.286 540.114,273.408 542.167,274.39 544.22,274.251 546.273,261.633 548.326,219.26 550.378,219.35 552.431,205.42 554.484,205.614 556.537,427.663 558.59,428.015 560.643,425.41 562.696,419.048 564.749,355.429 566.802,352.234 568.854,329.162 570.907,331.718 572.96,348.378 575.013,349.556 577.066,348.974 579.119,348.449 581.172,348.401 583.225,333.523 585.278,337.435 587.331,337.054 589.383,340.76 591.436,339.46 593.489,339.688 595.542,326.121 597.595,326.065 599.648,330.881 601.701,332.108 603.754,338.362 605.807,338.616 607.859,347.579 609.912,340.888 611.965,318.107 614.018,311.008 616.071,338.906 618.124,333.416 620.177,341.065 622.23,362.159 624.283,358.008 626.335,357.98 628.388,360.368 630.441,340.894 632.494,360.16 634.547,360.1 636.6,361.72 638.653,361.788 640.706,361.088 642.759,360.581 644.811,332.635 646.864,449.337 648.917,287.472 650.97,282.716 653.023,290.031 655.076,288.06 657.129,275.219 659.182,282.568 661.235,286.191 663.288,344.078 665.34,349.473 667.393,348.004 669.446,347.954 671.499,348.126 673.552,348.062 675.605,342.641 677.658,341.822 679.711,340.629 681.764,373.047 683.816,373.245 685.869,373.555 687.922,399.279 689.975,331.665 692.028,348.673 694.081,349.095 696.134,339.258 698.187,331.369 700.24,333.563 702.292,333.979 704.345,319.75 706.398,373.828 708.451,391.519 710.504,389.153 712.557,351.954 714.61,365.9 716.663,370.718 718.716,370.565 720.768,373.766 722.821,374.721 724.874,381.808 726.927,425.948 728.98,415.505 731.033,411.203 733.086,405.223 735.139,382.688 737.192,430.601 739.245,434.668 741.297,434.419 743.35,437.568 745.403,386.207 747.456,377.326 749.509,379.622 751.562,379.57 753.615,419.688 755.668,351.426 757.721,354.124 759.773,357.243 761.826,348.677 763.879,346.328 765.932,308.969 767.985,321.796 770.038,325.116 772.091,330.088 774.144,327.605 776.197,327.001 778.249,332.662 780.302,330.648 782.355,318.194 784.408,320.417 786.461,320.123 788.514,319.287 790.567,319.087 792.62,327.199 794.673,328.297 796.725,327.121 798.778,325.627 800.831,326.08 802.884,325.502 804.937,329.626 806.99,374.261 809.043,365.375 811.096,390.296 813.149,414.515 815.202,414.22 817.254,415.632 819.307,412.609 821.36,411.96 823.413,411.641 825.466,414.794 827.519,414.924 829.572,417.472 831.625,416.494 833.678,421.59 835.73,336.375 837.783,334.538 839.836,335.619 841.889,383.121 843.942,382.56 845.995,391.806 848.048,390.914 850.101,387.452 852.154,387.6 854.206,372.322 856.259,379.56 858.312,362.279 860.365,361.954 862.418,364.971 864.471,364.607 866.524,367.717 868.577,366.951 870.63,366.428 872.682,365.948 874.735,365.255 876.788,371.455 878.841,369.472 880.894,377.521 882.947,372.333 885,372.487 887.053,372.58 889.106,372.581 891.159,361.099 893.211,364.442 895.264,398.669 897.317,408.688 899.37,408.664 901.423,394.413 903.476,394.874 905.529,406.863 907.582,381.788 909.635,330.332 911.687,331.022 913.74,415.846 915.793,426.179 917.846,372.216 919.899,398.147 921.952,391.684 924.005,351.251 926.058,353.509 928.111,355.988 930.163,363.51 932.216,363.006 934.269,384.723 936.322,394.178 938.375,380.18 940.428,332.979 942.481,333.171 944.534,336.212 946.587,306.412 948.639,303.418 950.692,303.932 952.745,363.581 954.798,362.285 956.851,362.985 958.904,367.76 960.957,358.126 963.01,366.038 965.063,364.893 967.116,363.378 969.168,363.527 971.221,361.444 973.274,322.685 975.327,344.038 977.38,351.538 979.433,349.289 981.486,348.904 983.539,343.77 985.592,348.314 987.644,332.85 989.697,332.764 991.75,338.932 993.803,349.651 995.856,348.449 997.909,354.558 999.962,362.662 1002.01,362.598 1004.07,358.405 1006.12,358.514 1008.17,354.247 1010.23,353.72 1012.28,339.788 1014.33,351.799 1016.38,386.185 1018.44,357.978 1020.49,360.245 1022.54,361.031 1024.6,360.752 1026.65,358.927 1028.7,351.845 1030.76,374.521 1032.81,376.521 1034.86,376.854 1036.91,376.972 1038.97,348.801 1041.02,350.754 1043.07,351.277 1045.13,353.281 1047.18,353.053 1049.23,352.663 1051.28,352.189 1053.34,344.715 1055.39,358.71 1057.44,374.767 1059.5,390.909 1061.55,390.863 1063.6,389.133 1065.65,393.414 1067.71,396.971 1069.76,396.988 1071.81,397.028 1073.87,337.262 1075.92,331.517 1077.97,332.017 1080.02,326.715 1082.08,448.773 1084.13,289.625 1086.18,282.107 1088.24,282.599 1090.29,283.206 1092.34,431.529 1094.39,434.29 1096.45,401.601 1098.5,404.433 1100.55,411.252 1102.61,416.729 1104.66,416.637 1106.71,292.896 1108.77,291.017 1110.82,298.535 1112.87,297.284 1114.92,297.359 1116.98,300.257 1119.03,297.272 1121.08,297.272 1123.14,297.269 1125.19,297.605 1127.24,297.179 1129.29,296.473 1131.35,296.711 1133.4,295.59 1135.45,297.842 1137.51,419.662 1139.56,407.785 1141.61,424.954 1143.66,424.155 1145.72,434.595 1147.77,433.62 1149.82,422.694 1151.88,359.821 1153.93,470.861 1155.98,466.299 1158.03,464.373 1160.09,467.233 1162.14,468.574 1164.19,468.685 1166.25,451.129 1168.3,450.897 1170.35,323.813 1172.4,307.214 1174.46,400.012 1176.51,400.438 1178.56,382.697 1180.62,396.19 1182.67,424.349 1184.72,427.574 1186.77,449.682 1188.83,484.994 1190.88,458.994 1192.93,426.322 1194.99,328.241 1197.04,447.337 1199.09,419.659 1201.15,468.111 1203.2,524.14 1205.25,541.007 1207.3,539.47 1209.36,511.616 1211.41,484.289 1213.46,483.923 1215.52,480.636 1217.57,482.338 1219.62,476.106 1221.67,476.601 1223.73,425.899 1225.78,560.843 1227.83,554.295 1229.89,548.488 1231.94,548.282 1233.99,580.902 1236.04,592.888 1238.1,593.012 1240.15,513.394 1242.2,457.807 1244.26,457.729 1246.31,276.633 1248.36,272.565 1250.41,268.626 1252.47,265.082 1254.52,264.988 1256.57,260.391 1258.63,297.334 1260.68,307.221 1262.73,215.384 1264.78,198.747 1266.84,201.642 1268.89,190.363 1270.94,200.128 1273,186.26 1275.05,213.674 1277.1,344.88 1279.16,491.832 1281.21,479.244 1283.26,463.194 1285.31,312.173 1287.37,275.727 1289.42,275.592 1291.47,277.508 1293.53,276.083 1295.58,280.842 1297.63,309.405 1299.68,334.304 1301.74,321.978 1303.79,370.575 1305.84,372.56 1307.9,372.908 1309.95,409.109 1312,409.94 1314.05,384.294 1316.11,347.191 1318.16,347.243 1320.21,376.704 1322.27,373.922 1324.32,464.283 1326.37,549.645 1328.42,551.519 1330.48,557.61 1332.53,533.198 1334.58,535.474 1336.64,534.022 1338.69,532.613 1340.74,533.655 1342.79,482.19 1344.85,455.797 1346.9,421.641 1348.95,358.412 1351.01,344.19 1353.06,342.847 1355.11,422.801 1357.16,473.471 1359.22,473.544 1361.27,305.562 1363.32,314.179 1365.38,369.42 1367.43,353.83 1369.48,360.479 1371.54,431.167 1373.59,411.306 1375.64,411.427 1377.69,466.301 1379.75,471.039 1381.8,472.233 1383.85,476.066 1385.91,459.135 1387.96,484.394 1390.01,478.302 1392.06,476.099 1394.12,413.837 1396.17,416.171 1398.22,146.342 1400.28,70.9373 1402.33,74.4015 1404.38,21.5096 1406.43,7.10867 1408.49,18.2175 1410.54,31.1911 1412.59,44.5176 1414.65,308.802 1416.7,356.218 1418.75,379.569 1420.8,432.706 1422.86,227.122 1424.91,279.142 1426.96,276.621 1429.02,243.505 1431.07,501.28 1433.12,457.229 1435.17,465.984 1437.23,464.801 1439.28,413.053 1441.33,384 1443.39,385.96 1445.44,393.989 1447.49,395.754 1449.55,413.329 1451.6,413.015 1453.65,532.961 1455.7,575.251 1457.76,575.236 1459.81,586.049 1461.86,375.161 1463.92,521.032 1465.97,509.405 1468.02,511.643 1470.07,363.408 1472.13,388.664 1474.18,373.388 1476.23,404.415 1478.29,337.732 1480.34,624.858 1482.39,636.64 1484.44,670.885 1486.5,660.205 1488.55,658.806 1490.6,588.074 1492.66,596.107 1494.71,590.411 1496.76,590.269 1498.81,589.865 1500.87,627.109 1502.92,737.235 1504.97,805.61 1507.03,833.942 1509.08,831.718 1511.13,793.25 1513.18,873.131 1515.24,876.762 1517.29,753.249 1519.34,735.569 1521.4,307.282 1523.45,934.3 1525.5,942.175 1527.55,931.217 1529.61,966.575 1531.66,1013.75 1533.71,1120.12 1535.77,1061.18 1537.82,1056.46 1539.87,1062.34 1541.93,1373.28 1543.98,1302.61 1546.03,1237.15 1548.08,1298.17 1550.14,1258.09 1552.19,1249.03 1554.24,1099.53 1556.3,1078.45 1558.35,1059.65 1560.4,1013.88 1562.45,1037.95 1564.51,1115.5 1566.56,1162.43 1568.61,1145.68 1570.67,1031.64 1572.72,749.709 1574.77,656.723 1576.82,1156.33 1578.88,1151.18 1580.93,1135.92 1582.98,700.307 1585.04,687.621 1587.09,697.601 1589.14,697.185 1591.19,585.196 1593.25,816.125 1595.3,552.612 1597.35,588.673 1599.41,619.008 1601.46,749.476 1603.51,747.102 1605.56,585.436 1607.62,650.774 1609.67,667.361 1611.72,673.098 1613.78,654.999 1615.83,593.267 1617.88,326.277 1619.94,218.256 1621.99,-296.048 1624.04,-306.383 1626.09,-285.896 1628.15,-297.493 1630.2,26.6524 1632.25,81.946 1634.31,375.649 1636.36,763.335 1638.41,755.361 1640.46,756.385 1642.52,757.295 1644.57,757.869 1646.62,619.723 1648.68,416.293 1650.73,450.105 1652.78,465.286 1654.83,401.827 1656.89,407.818 1658.94,687.603 1660.99,696.795 1663.05,626.617 1665.1,642.218 1667.15,368.418 1669.2,609.844 1671.26,376.422 1673.31,381.073 1675.36,320.757 1677.42,325.588 1679.47,401.707 1681.52,388.342 1683.57,391.772 1685.63,401.29 1687.68,371.689 1689.73,314.326 1691.79,426.748 1693.84,160.288 1695.89,193.723 1697.94,102.174 1700,39.4622 1702.05,34.3611 1704.1,80.8936 1706.16,93.1236 1708.21,274.44 1710.26,367.968 1712.32,478.894 1714.37,472.338 1716.42,473.194 1718.47,450.296 1720.53,446.895 1722.58,399.326 1724.63,516.791 1726.69,541.46 1728.74,544.245 1730.79,640.984 1732.84,562.575 1734.9,574.485 1736.95,532.166 1739,572.405 1741.06,560.767 1743.11,580.659 1745.16,582.02 1747.21,572.46 1749.27,509.574 1751.32,513.799 1753.37,383.91 1755.43,355.109 1757.48,629.981 1759.53,767.758 1761.58,824.781 1763.64,805.213 1765.69,801.75 1767.74,703.295 1769.8,888.074 1771.85,867.499 1773.9,107.281 1775.95,106.917 1778.01,197.287 1780.06,259.715 1782.11,253.399 1784.17,220.432 1786.22,223.782 1788.27,408.891 1790.33,341.086 1792.38,233.419 1794.43,272.245 1796.48,283.951 1798.54,183.179 1800.59,184.993 1802.64,283.501 1804.7,285.333 1806.75,259.722 1808.8,263.068 1810.85,450.373 1812.91,499.027 1814.96,575.892 1817.01,575.257 1819.07,455.2 1821.12,444.876 1823.17,435.476 1825.22,556.628 1827.28,555.486 1829.33,512.395 1831.38,512.328 1833.44,739.738 1835.49,652.167 1837.54,655.226 1839.59,457.977 1841.65,487.606 1843.7,458.132 1845.75,457.306 1847.81,284.802 1849.86,667.597 1851.91,684.191 1853.96,685.113 1856.02,723.511 1858.07,714.341 1860.12,435.843 1862.18,549.65 1864.23,546.308 1866.28,533.757 1868.34,547.981 1870.39,721.171 1872.44,660.526 1874.49,203.671 1876.55,285.246 1878.6,252.472 1880.65,363.079 1882.71,347.6 1884.76,354.73 1886.81,362.33 1888.86,361.33 1890.92,346.9 1892.97,219.433 1895.02,263.27 1897.08,99.1941 1899.13,99.179 1901.18,117.384 1903.23,155.94 1905.29,145.553 1907.34,234.152 1909.39,280.799 1911.45,409.028 1913.5,530.675 1915.55,536.716 1917.6,573.928 1919.66,551.288 1921.71,661.37 1923.76,665.573 1925.82,685.125 1927.87,685.691 1929.92,728.427 1931.97,730.016 1934.03,824.212 1936.08,673.79 1938.13,700.213 1940.19,747.861 1942.24,744.216 1944.29,685.149 1946.34,358.819 1948.4,485.043 1950.45,530.511 1952.5,489.895 1954.56,456.69 1956.61,512.066 1958.66,349.255 1960.72,286.377 1962.77,287.572 1964.82,166.953 1966.87,166.116 1968.93,177.754 1970.98,148.301 1973.03,293.671 1975.09,369.111 1977.14,402.21 1979.19,390.449 1981.24,424.245 1983.3,401.694 1985.35,527.623 1987.4,530.942 1989.46,557.216 1991.51,720.267 1993.56,688.543 1995.61,665.019 1997.67,705.199 1999.72,666.506 2001.77,671.509 2003.83,802.143 2005.88,812.715 2007.93,-45.0754 2009.98,185.508 2012.04,95.9454 2014.09,102.141 2016.14,107.815 2018.2,91.8239 2020.25,515.19 2022.3,585.59 2024.35,504.925 2026.41,511.217 2028.46,560.189 2030.51,383.919 2032.57,266.309 2034.62,51.7848 2036.67,206.859 2038.73,197.703 2040.78,159.344 2042.83,263.415 2044.88,212.241 2046.94,226.068 2048.99,226.867 2051.04,226.655 2053.1,200.517 2055.15,219.251 2057.2,339.61 2059.25,284.319 2061.31,284.583 2063.36,316.323 2065.41,400.935 2067.47,422.586 2069.52,408.78 2071.57,412.362 2073.62,447.068 2075.68,410.081 2077.73,381.071 2079.78,418.174 2081.84,356.302 2083.89,453.579 2085.94,447.578 2087.99,480.761 2090.05,460.056 2092.1,389.283 2094.15,450.638 2096.21,385.318 2098.26,380.551 2100.31,381.22 2102.36,374.906 2104.42,319.404 2106.47,325.75 2108.52,327.253 2110.58,311.103 2112.63,303.101 2114.68,311.006 2116.73,312.456 2118.79,321.96 2120.84,368.698 2122.89,424.498 2124.95,410.607 2127,369.531 2129.05,365.318 2131.11,365.513 2133.16,365.464 2135.21,364.789 2137.26,352.29 2139.32,354.217 2141.37,354.69 2143.42,356.622 2145.48,371.457 2147.53,378.518 2149.58,400.986 2151.63,382.536 2153.69,400.895 2155.74,376.225 2157.79,375.406 2159.85,382.323 2161.9,380.212 2163.95,561.366 2166,533.316 2168.06,444.878 2170.11,493.782 2172.16,489.439 2174.22,449.59 2176.27,421.118 2178.32,541.219 2180.37,514.767 2182.43,461.088 2184.48,363.586 2186.53,345.795 2188.59,327.204 2190.64,383.963 2192.69,453.991 2194.74,413.262 2196.8,429.045 2198.85,432.445 2200.9,402.352 2202.96,379.209 2205.01,379.542 2207.06,365.515 2209.12,227.907 2211.17,585.187 2213.22,566.11 2215.27,614.262 2217.33,608.293 2219.38,344.489 2221.43,380.644 2223.49,342.514 2225.54,404.159 2227.59,405.433 2229.64,423.178 2231.7,439.39 2233.75,444.359 2235.8,416.874 2237.86,405.006 2239.91,337.406 2241.96,231.207 2244.01,224.7 2246.07,197.557 2248.12,176.729 2250.17,77.0137 2252.23,54.9898 2254.28,281.484 2256.33,348.5 2258.38,342.332 2260.44,343.61 2262.49,342.668 2264.54,364.091 2266.6,362.258 2268.65,361.594 2270.7,366.213 2272.75,368.518 2274.81,311.781 2276.86,327.84 2278.91,327.823 2280.97,322.164 2283.02,320.386 2285.07,340.886 2287.12,336.898 2289.18,336.963 2291.23,357.725 "/>
<path clip-path="url(#clip810)" d="M251.33 665.141 L548.024 665.141 L548.024 561.461 L251.33 561.461  Z" fill="#ffffff" fill-rule="evenodd" fill-opacity="1"/>
<polyline clip-path="url(#clip810)" style="stroke:#000000; stroke-linecap:round; stroke-linejoin:round; stroke-width:4; stroke-opacity:1; fill:none" points="251.33,665.141 548.024,665.141 548.024,561.461 251.33,561.461 251.33,665.141 "/>
<polyline clip-path="url(#clip810)" style="stroke:#009af9; stroke-linecap:round; stroke-linejoin:round; stroke-width:4; stroke-opacity:1; fill:none" points="275.484,613.301 420.41,613.301 "/>
<path clip-path="url(#clip810)" d="M444.564 596.021 L449.24 596.021 L449.24 626.646 L466.069 626.646 L466.069 630.581 L444.564 630.581 L444.564 596.021 Z" fill="#000000" fill-rule="nonzero" fill-opacity="1" /><path clip-path="url(#clip810)" d="M491.694 597.155 L491.694 601.715 Q489.032 600.442 486.67 599.817 Q484.309 599.192 482.11 599.192 Q478.291 599.192 476.208 600.674 Q474.147 602.155 474.147 604.887 Q474.147 607.178 475.513 608.359 Q476.902 609.516 480.745 610.234 L483.569 610.813 Q488.8 611.808 491.277 614.331 Q493.777 616.831 493.777 621.044 Q493.777 626.067 490.397 628.66 Q487.041 631.252 480.536 631.252 Q478.083 631.252 475.305 630.697 Q472.55 630.141 469.587 629.053 L469.587 624.239 Q472.434 625.836 475.166 626.646 Q477.897 627.456 480.536 627.456 Q484.541 627.456 486.717 625.882 Q488.893 624.308 488.893 621.391 Q488.893 618.845 487.319 617.41 Q485.768 615.975 482.203 615.257 L479.356 614.702 Q474.124 613.66 471.786 611.438 Q469.448 609.215 469.448 605.257 Q469.448 600.674 472.666 598.035 Q475.907 595.396 481.578 595.396 Q484.008 595.396 486.532 595.836 Q489.055 596.276 491.694 597.155 Z" fill="#000000" fill-rule="nonzero" fill-opacity="1" /><path clip-path="url(#clip810)" d="M521.786 597.155 L521.786 601.715 Q519.124 600.442 516.763 599.817 Q514.402 599.192 512.203 599.192 Q508.383 599.192 506.3 600.674 Q504.24 602.155 504.24 604.887 Q504.24 607.178 505.606 608.359 Q506.994 609.516 510.837 610.234 L513.661 610.813 Q518.893 611.808 521.369 614.331 Q523.869 616.831 523.869 621.044 Q523.869 626.067 520.49 628.66 Q517.133 631.252 510.629 631.252 Q508.175 631.252 505.397 630.697 Q502.643 630.141 499.68 629.053 L499.68 624.239 Q502.527 625.836 505.258 626.646 Q507.99 627.456 510.629 627.456 Q514.633 627.456 516.809 625.882 Q518.985 624.308 518.985 621.391 Q518.985 618.845 517.411 617.41 Q515.86 615.975 512.295 615.257 L509.448 614.702 Q504.217 613.66 501.879 611.438 Q499.541 609.215 499.541 605.257 Q499.541 600.674 502.758 598.035 Q505.999 595.396 511.67 595.396 Q514.101 595.396 516.624 595.836 Q519.147 596.276 521.786 597.155 Z" fill="#000000" fill-rule="nonzero" fill-opacity="1" /><path clip-path="url(#clip810)" d="M178.867 1486.45 L2352.76 1486.45 L2352.76 847.244 L178.867 847.244  Z" fill="#ffffff" fill-rule="evenodd" fill-opacity="1"/>
<defs>
  <clipPath id="clip813">
    <rect x="178" y="847" width="2175" height="640"/>
  </clipPath>
</defs>
<polyline clip-path="url(#clip813)" style="stroke:#000000; stroke-linecap:round; stroke-linejoin:round; stroke-width:2; stroke-opacity:0.1; fill:none" points="238.339,1486.45 238.339,847.244 "/>
<polyline clip-path="url(#clip813)" style="stroke:#000000; stroke-linecap:round; stroke-linejoin:round; stroke-width:2; stroke-opacity:0.1; fill:none" points="751.562,1486.45 751.562,847.244 "/>
<polyline clip-path="url(#clip813)" style="stroke:#000000; stroke-linecap:round; stroke-linejoin:round; stroke-width:2; stroke-opacity:0.1; fill:none" points="1264.78,1486.45 1264.78,847.244 "/>
<polyline clip-path="url(#clip813)" style="stroke:#000000; stroke-linecap:round; stroke-linejoin:round; stroke-width:2; stroke-opacity:0.1; fill:none" points="1778.01,1486.45 1778.01,847.244 "/>
<polyline clip-path="url(#clip813)" style="stroke:#000000; stroke-linecap:round; stroke-linejoin:round; stroke-width:2; stroke-opacity:0.1; fill:none" points="2291.23,1486.45 2291.23,847.244 "/>
<polyline clip-path="url(#clip813)" style="stroke:#000000; stroke-linecap:round; stroke-linejoin:round; stroke-width:2; stroke-opacity:0.1; fill:none" points="178.867,1486.45 2352.76,1486.45 "/>
<polyline clip-path="url(#clip813)" style="stroke:#000000; stroke-linecap:round; stroke-linejoin:round; stroke-width:2; stroke-opacity:0.1; fill:none" points="178.867,1326.65 2352.76,1326.65 "/>
<polyline clip-path="url(#clip813)" style="stroke:#000000; stroke-linecap:round; stroke-linejoin:round; stroke-width:2; stroke-opacity:0.1; fill:none" points="178.867,1166.85 2352.76,1166.85 "/>
<polyline clip-path="url(#clip813)" style="stroke:#000000; stroke-linecap:round; stroke-linejoin:round; stroke-width:2; stroke-opacity:0.1; fill:none" points="178.867,1007.05 2352.76,1007.05 "/>
<polyline clip-path="url(#clip813)" style="stroke:#000000; stroke-linecap:round; stroke-linejoin:round; stroke-width:2; stroke-opacity:0.1; fill:none" points="178.867,847.244 2352.76,847.244 "/>
<polyline clip-path="url(#clip810)" style="stroke:#000000; stroke-linecap:round; stroke-linejoin:round; stroke-width:4; stroke-opacity:1; fill:none" points="178.867,1486.45 2352.76,1486.45 "/>
<polyline clip-path="url(#clip810)" style="stroke:#000000; stroke-linecap:round; stroke-linejoin:round; stroke-width:4; stroke-opacity:1; fill:none" points="238.339,1486.45 238.339,1467.55 "/>
<polyline clip-path="url(#clip810)" style="stroke:#000000; stroke-linecap:round; stroke-linejoin:round; stroke-width:4; stroke-opacity:1; fill:none" points="751.562,1486.45 751.562,1467.55 "/>
<polyline clip-path="url(#clip810)" style="stroke:#000000; stroke-linecap:round; stroke-linejoin:round; stroke-width:4; stroke-opacity:1; fill:none" points="1264.78,1486.45 1264.78,1467.55 "/>
<polyline clip-path="url(#clip810)" style="stroke:#000000; stroke-linecap:round; stroke-linejoin:round; stroke-width:4; stroke-opacity:1; fill:none" points="1778.01,1486.45 1778.01,1467.55 "/>
<polyline clip-path="url(#clip810)" style="stroke:#000000; stroke-linecap:round; stroke-linejoin:round; stroke-width:4; stroke-opacity:1; fill:none" points="2291.23,1486.45 2291.23,1467.55 "/>
<path clip-path="url(#clip810)" d="M238.339 1517.37 Q234.728 1517.37 232.899 1520.93 Q231.094 1524.47 231.094 1531.6 Q231.094 1538.71 232.899 1542.27 Q234.728 1545.82 238.339 1545.82 Q241.973 1545.82 243.779 1542.27 Q245.607 1538.71 245.607 1531.6 Q245.607 1524.47 243.779 1520.93 Q241.973 1517.37 238.339 1517.37 M238.339 1513.66 Q244.149 1513.66 247.205 1518.27 Q250.283 1522.85 250.283 1531.6 Q250.283 1540.33 247.205 1544.94 Q244.149 1549.52 238.339 1549.52 Q232.529 1549.52 229.45 1544.94 Q226.395 1540.33 226.395 1531.6 Q226.395 1522.85 229.45 1518.27 Q232.529 1513.66 238.339 1513.66 Z" fill="#000000" fill-rule="nonzero" fill-opacity="1" /><path clip-path="url(#clip810)" d="M715.254 1544.91 L731.574 1544.91 L731.574 1548.85 L709.629 1548.85 L709.629 1544.91 Q712.291 1542.16 716.875 1537.53 Q721.481 1532.88 722.662 1531.53 Q724.907 1529.01 725.787 1527.27 Q726.689 1525.51 726.689 1523.82 Q726.689 1521.07 724.745 1519.33 Q722.824 1517.6 719.722 1517.6 Q717.523 1517.6 715.069 1518.36 Q712.638 1519.13 709.861 1520.68 L709.861 1515.95 Q712.685 1514.82 715.138 1514.24 Q717.592 1513.66 719.629 1513.66 Q725 1513.66 728.194 1516.35 Q731.388 1519.03 731.388 1523.52 Q731.388 1525.65 730.578 1527.57 Q729.791 1529.47 727.685 1532.07 Q727.106 1532.74 724.004 1535.95 Q720.902 1539.15 715.254 1544.91 Z" fill="#000000" fill-rule="nonzero" fill-opacity="1" /><path clip-path="url(#clip810)" d="M741.435 1514.29 L759.791 1514.29 L759.791 1518.22 L745.717 1518.22 L745.717 1526.7 Q746.736 1526.35 747.754 1526.19 Q748.773 1526 749.791 1526 Q755.578 1526 758.958 1529.17 Q762.337 1532.34 762.337 1537.76 Q762.337 1543.34 758.865 1546.44 Q755.393 1549.52 749.073 1549.52 Q746.898 1549.52 744.629 1549.15 Q742.384 1548.78 739.976 1548.04 L739.976 1543.34 Q742.06 1544.47 744.282 1545.03 Q746.504 1545.58 748.981 1545.58 Q752.985 1545.58 755.323 1543.48 Q757.661 1541.37 757.661 1537.76 Q757.661 1534.15 755.323 1532.04 Q752.985 1529.94 748.981 1529.94 Q747.106 1529.94 745.231 1530.35 Q743.379 1530.77 741.435 1531.65 L741.435 1514.29 Z" fill="#000000" fill-rule="nonzero" fill-opacity="1" /><path clip-path="url(#clip810)" d="M781.55 1517.37 Q777.939 1517.37 776.11 1520.93 Q774.305 1524.47 774.305 1531.6 Q774.305 1538.71 776.11 1542.27 Q777.939 1545.82 781.55 1545.82 Q785.184 1545.82 786.99 1542.27 Q788.819 1538.71 788.819 1531.6 Q788.819 1524.47 786.99 1520.93 Q785.184 1517.37 781.55 1517.37 M781.55 1513.66 Q787.36 1513.66 790.416 1518.27 Q793.495 1522.85 793.495 1531.6 Q793.495 1540.33 790.416 1544.94 Q787.36 1549.52 781.55 1549.52 Q775.74 1549.52 772.661 1544.94 Q769.606 1540.33 769.606 1531.6 Q769.606 1522.85 772.661 1518.27 Q775.74 1513.66 781.55 1513.66 Z" fill="#000000" fill-rule="nonzero" fill-opacity="1" /><path clip-path="url(#clip810)" d="M1224.4 1514.29 L1242.76 1514.29 L1242.76 1518.22 L1228.69 1518.22 L1228.69 1526.7 Q1229.7 1526.35 1230.72 1526.19 Q1231.74 1526 1232.76 1526 Q1238.55 1526 1241.93 1529.17 Q1245.31 1532.34 1245.31 1537.76 Q1245.31 1543.34 1241.83 1546.44 Q1238.36 1549.52 1232.04 1549.52 Q1229.87 1549.52 1227.6 1549.15 Q1225.35 1548.78 1222.94 1548.04 L1222.94 1543.34 Q1225.03 1544.47 1227.25 1545.03 Q1229.47 1545.58 1231.95 1545.58 Q1235.95 1545.58 1238.29 1543.48 Q1240.63 1541.37 1240.63 1537.76 Q1240.63 1534.15 1238.29 1532.04 Q1235.95 1529.94 1231.95 1529.94 Q1230.07 1529.94 1228.2 1530.35 Q1226.35 1530.77 1224.4 1531.65 L1224.4 1514.29 Z" fill="#000000" fill-rule="nonzero" fill-opacity="1" /><path clip-path="url(#clip810)" d="M1264.52 1517.37 Q1260.91 1517.37 1259.08 1520.93 Q1257.27 1524.47 1257.27 1531.6 Q1257.27 1538.71 1259.08 1542.27 Q1260.91 1545.82 1264.52 1545.82 Q1268.15 1545.82 1269.96 1542.27 Q1271.79 1538.71 1271.79 1531.6 Q1271.79 1524.47 1269.96 1520.93 Q1268.15 1517.37 1264.52 1517.37 M1264.52 1513.66 Q1270.33 1513.66 1273.38 1518.27 Q1276.46 1522.85 1276.46 1531.6 Q1276.46 1540.33 1273.38 1544.94 Q1270.33 1549.52 1264.52 1549.52 Q1258.71 1549.52 1255.63 1544.94 Q1252.57 1540.33 1252.57 1531.6 Q1252.57 1522.85 1255.63 1518.27 Q1258.71 1513.66 1264.52 1513.66 Z" fill="#000000" fill-rule="nonzero" fill-opacity="1" /><path clip-path="url(#clip810)" d="M1294.68 1517.37 Q1291.07 1517.37 1289.24 1520.93 Q1287.44 1524.47 1287.44 1531.6 Q1287.44 1538.71 1289.24 1542.27 Q1291.07 1545.82 1294.68 1545.82 Q1298.31 1545.82 1300.12 1542.27 Q1301.95 1538.71 1301.95 1531.6 Q1301.95 1524.47 1300.12 1520.93 Q1298.31 1517.37 1294.68 1517.37 M1294.68 1513.66 Q1300.49 1513.66 1303.55 1518.27 Q1306.62 1522.85 1306.62 1531.6 Q1306.62 1540.33 1303.55 1544.94 Q1300.49 1549.52 1294.68 1549.52 Q1288.87 1549.52 1285.79 1544.94 Q1282.74 1540.33 1282.74 1531.6 Q1282.74 1522.85 1285.79 1518.27 Q1288.87 1513.66 1294.68 1513.66 Z" fill="#000000" fill-rule="nonzero" fill-opacity="1" /><path clip-path="url(#clip810)" d="M1736.28 1514.29 L1758.51 1514.29 L1758.51 1516.28 L1745.96 1548.85 L1741.08 1548.85 L1752.88 1518.22 L1736.28 1518.22 L1736.28 1514.29 Z" fill="#000000" fill-rule="nonzero" fill-opacity="1" /><path clip-path="url(#clip810)" d="M1767.67 1514.29 L1786.03 1514.29 L1786.03 1518.22 L1771.95 1518.22 L1771.95 1526.7 Q1772.97 1526.35 1773.99 1526.19 Q1775.01 1526 1776.03 1526 Q1781.82 1526 1785.2 1529.17 Q1788.57 1532.34 1788.57 1537.76 Q1788.57 1543.34 1785.1 1546.44 Q1781.63 1549.52 1775.31 1549.52 Q1773.14 1549.52 1770.87 1549.15 Q1768.62 1548.78 1766.21 1548.04 L1766.21 1543.34 Q1768.3 1544.47 1770.52 1545.03 Q1772.74 1545.58 1775.22 1545.58 Q1779.22 1545.58 1781.56 1543.48 Q1783.9 1541.37 1783.9 1537.76 Q1783.9 1534.15 1781.56 1532.04 Q1779.22 1529.94 1775.22 1529.94 Q1773.34 1529.94 1771.47 1530.35 Q1769.62 1530.77 1767.67 1531.65 L1767.67 1514.29 Z" fill="#000000" fill-rule="nonzero" fill-opacity="1" /><path clip-path="url(#clip810)" d="M1807.79 1517.37 Q1804.18 1517.37 1802.35 1520.93 Q1800.54 1524.47 1800.54 1531.6 Q1800.54 1538.71 1802.35 1542.27 Q1804.18 1545.82 1807.79 1545.82 Q1811.42 1545.82 1813.23 1542.27 Q1815.06 1538.71 1815.06 1531.6 Q1815.06 1524.47 1813.23 1520.93 Q1811.42 1517.37 1807.79 1517.37 M1807.79 1513.66 Q1813.6 1513.66 1816.65 1518.27 Q1819.73 1522.85 1819.73 1531.6 Q1819.73 1540.33 1816.65 1544.94 Q1813.6 1549.52 1807.79 1549.52 Q1801.98 1549.52 1798.9 1544.94 Q1795.84 1540.33 1795.84 1531.6 Q1795.84 1522.85 1798.9 1518.27 Q1801.98 1513.66 1807.79 1513.66 Z" fill="#000000" fill-rule="nonzero" fill-opacity="1" /><path clip-path="url(#clip810)" d="M2235.76 1544.91 L2243.4 1544.91 L2243.4 1518.55 L2235.09 1520.21 L2235.09 1515.95 L2243.35 1514.29 L2248.02 1514.29 L2248.02 1544.91 L2255.66 1544.91 L2255.66 1548.85 L2235.76 1548.85 L2235.76 1544.91 Z" fill="#000000" fill-rule="nonzero" fill-opacity="1" /><path clip-path="url(#clip810)" d="M2275.11 1517.37 Q2271.5 1517.37 2269.67 1520.93 Q2267.86 1524.47 2267.86 1531.6 Q2267.86 1538.71 2269.67 1542.27 Q2271.5 1545.82 2275.11 1545.82 Q2278.74 1545.82 2280.55 1542.27 Q2282.38 1538.71 2282.38 1531.6 Q2282.38 1524.47 2280.55 1520.93 Q2278.74 1517.37 2275.11 1517.37 M2275.11 1513.66 Q2280.92 1513.66 2283.97 1518.27 Q2287.05 1522.85 2287.05 1531.6 Q2287.05 1540.33 2283.97 1544.94 Q2280.92 1549.52 2275.11 1549.52 Q2269.3 1549.52 2266.22 1544.94 Q2263.16 1540.33 2263.16 1531.6 Q2263.16 1522.85 2266.22 1518.27 Q2269.3 1513.66 2275.11 1513.66 Z" fill="#000000" fill-rule="nonzero" fill-opacity="1" /><path clip-path="url(#clip810)" d="M2305.27 1517.37 Q2301.66 1517.37 2299.83 1520.93 Q2298.02 1524.47 2298.02 1531.6 Q2298.02 1538.71 2299.83 1542.27 Q2301.66 1545.82 2305.27 1545.82 Q2308.9 1545.82 2310.71 1542.27 Q2312.54 1538.71 2312.54 1531.6 Q2312.54 1524.47 2310.71 1520.93 Q2308.9 1517.37 2305.27 1517.37 M2305.27 1513.66 Q2311.08 1513.66 2314.14 1518.27 Q2317.21 1522.85 2317.21 1531.6 Q2317.21 1540.33 2314.14 1544.94 Q2311.08 1549.52 2305.27 1549.52 Q2299.46 1549.52 2296.38 1544.94 Q2293.33 1540.33 2293.33 1531.6 Q2293.33 1522.85 2296.38 1518.27 Q2299.46 1513.66 2305.27 1513.66 Z" fill="#000000" fill-rule="nonzero" fill-opacity="1" /><path clip-path="url(#clip810)" d="M2335.43 1517.37 Q2331.82 1517.37 2329.99 1520.93 Q2328.19 1524.47 2328.19 1531.6 Q2328.19 1538.71 2329.99 1542.27 Q2331.82 1545.82 2335.43 1545.82 Q2339.07 1545.82 2340.87 1542.27 Q2342.7 1538.71 2342.7 1531.6 Q2342.7 1524.47 2340.87 1520.93 Q2339.07 1517.37 2335.43 1517.37 M2335.43 1513.66 Q2341.24 1513.66 2344.3 1518.27 Q2347.38 1522.85 2347.38 1531.6 Q2347.38 1540.33 2344.3 1544.94 Q2341.24 1549.52 2335.43 1549.52 Q2329.62 1549.52 2326.54 1544.94 Q2323.49 1540.33 2323.49 1531.6 Q2323.49 1522.85 2326.54 1518.27 Q2329.62 1513.66 2335.43 1513.66 Z" fill="#000000" fill-rule="nonzero" fill-opacity="1" /><polyline clip-path="url(#clip810)" style="stroke:#000000; stroke-linecap:round; stroke-linejoin:round; stroke-width:4; stroke-opacity:1; fill:none" points="178.867,1486.45 178.867,847.244 "/>
<polyline clip-path="url(#clip810)" style="stroke:#000000; stroke-linecap:round; stroke-linejoin:round; stroke-width:4; stroke-opacity:1; fill:none" points="178.867,1486.45 197.764,1486.45 "/>
<polyline clip-path="url(#clip810)" style="stroke:#000000; stroke-linecap:round; stroke-linejoin:round; stroke-width:4; stroke-opacity:1; fill:none" points="178.867,1326.65 197.764,1326.65 "/>
<polyline clip-path="url(#clip810)" style="stroke:#000000; stroke-linecap:round; stroke-linejoin:round; stroke-width:4; stroke-opacity:1; fill:none" points="178.867,1166.85 197.764,1166.85 "/>
<polyline clip-path="url(#clip810)" style="stroke:#000000; stroke-linecap:round; stroke-linejoin:round; stroke-width:4; stroke-opacity:1; fill:none" points="178.867,1007.05 197.764,1007.05 "/>
<polyline clip-path="url(#clip810)" style="stroke:#000000; stroke-linecap:round; stroke-linejoin:round; stroke-width:4; stroke-opacity:1; fill:none" points="178.867,847.244 197.764,847.244 "/>
<path clip-path="url(#clip810)" d="M50.9921 1486.9 L80.6679 1486.9 L80.6679 1490.83 L50.9921 1490.83 L50.9921 1486.9 Z" fill="#000000" fill-rule="nonzero" fill-opacity="1" /><path clip-path="url(#clip810)" d="M91.5706 1499.79 L99.2095 1499.79 L99.2095 1473.43 L90.8993 1475.09 L90.8993 1470.83 L99.1632 1469.17 L103.839 1469.17 L103.839 1499.79 L111.478 1499.79 L111.478 1503.73 L91.5706 1503.73 L91.5706 1499.79 Z" fill="#000000" fill-rule="nonzero" fill-opacity="1" /><path clip-path="url(#clip810)" d="M130.922 1472.25 Q127.311 1472.25 125.482 1475.81 Q123.677 1479.35 123.677 1486.48 Q123.677 1493.59 125.482 1497.15 Q127.311 1500.7 130.922 1500.7 Q134.556 1500.7 136.362 1497.15 Q138.191 1493.59 138.191 1486.48 Q138.191 1479.35 136.362 1475.81 Q134.556 1472.25 130.922 1472.25 M130.922 1468.54 Q136.732 1468.54 139.788 1473.15 Q142.867 1477.73 142.867 1486.48 Q142.867 1495.21 139.788 1499.82 Q136.732 1504.4 130.922 1504.4 Q125.112 1504.4 122.033 1499.82 Q118.978 1495.21 118.978 1486.48 Q118.978 1477.73 122.033 1473.15 Q125.112 1468.54 130.922 1468.54 Z" fill="#000000" fill-rule="nonzero" fill-opacity="1" /><path clip-path="url(#clip810)" d="M82.1494 1327.1 L111.825 1327.1 L111.825 1331.03 L82.1494 1331.03 L82.1494 1327.1 Z" fill="#000000" fill-rule="nonzero" fill-opacity="1" /><path clip-path="url(#clip810)" d="M121.964 1309.37 L140.32 1309.37 L140.32 1313.3 L126.246 1313.3 L126.246 1321.77 Q127.265 1321.43 128.283 1321.27 Q129.302 1321.08 130.32 1321.08 Q136.107 1321.08 139.487 1324.25 Q142.867 1327.42 142.867 1332.84 Q142.867 1338.42 139.394 1341.52 Q135.922 1344.6 129.603 1344.6 Q127.427 1344.6 125.158 1344.23 Q122.913 1343.86 120.506 1343.12 L120.506 1338.42 Q122.589 1339.55 124.811 1340.11 Q127.033 1340.66 129.51 1340.66 Q133.515 1340.66 135.853 1338.56 Q138.191 1336.45 138.191 1332.84 Q138.191 1329.23 135.853 1327.12 Q133.515 1325.01 129.51 1325.01 Q127.635 1325.01 125.76 1325.43 Q123.908 1325.85 121.964 1326.73 L121.964 1309.37 Z" fill="#000000" fill-rule="nonzero" fill-opacity="1" /><path clip-path="url(#clip810)" d="M130.922 1152.64 Q127.311 1152.64 125.482 1156.21 Q123.677 1159.75 123.677 1166.88 Q123.677 1173.99 125.482 1177.55 Q127.311 1181.09 130.922 1181.09 Q134.556 1181.09 136.362 1177.55 Q138.191 1173.99 138.191 1166.88 Q138.191 1159.75 136.362 1156.21 Q134.556 1152.64 130.922 1152.64 M130.922 1148.94 Q136.732 1148.94 139.788 1153.55 Q142.867 1158.13 142.867 1166.88 Q142.867 1175.61 139.788 1180.21 Q136.732 1184.8 130.922 1184.8 Q125.112 1184.8 122.033 1180.21 Q118.978 1175.61 118.978 1166.88 Q118.978 1158.13 122.033 1153.55 Q125.112 1148.94 130.922 1148.94 Z" fill="#000000" fill-rule="nonzero" fill-opacity="1" /><path clip-path="url(#clip810)" d="M121.964 989.765 L140.32 989.765 L140.32 993.7 L126.246 993.7 L126.246 1002.17 Q127.265 1001.83 128.283 1001.66 Q129.302 1001.48 130.32 1001.48 Q136.107 1001.48 139.487 1004.65 Q142.867 1007.82 142.867 1013.24 Q142.867 1018.82 139.394 1021.92 Q135.922 1025 129.603 1025 Q127.427 1025 125.158 1024.63 Q122.913 1024.26 120.506 1023.51 L120.506 1018.82 Q122.589 1019.95 124.811 1020.51 Q127.033 1021.06 129.51 1021.06 Q133.515 1021.06 135.853 1018.95 Q138.191 1016.85 138.191 1013.24 Q138.191 1009.63 135.853 1007.52 Q133.515 1005.41 129.51 1005.41 Q127.635 1005.41 125.76 1005.83 Q123.908 1006.25 121.964 1007.13 L121.964 989.765 Z" fill="#000000" fill-rule="nonzero" fill-opacity="1" /><path clip-path="url(#clip810)" d="M91.5706 860.589 L99.2095 860.589 L99.2095 834.223 L90.8993 835.89 L90.8993 831.631 L99.1632 829.964 L103.839 829.964 L103.839 860.589 L111.478 860.589 L111.478 864.524 L91.5706 864.524 L91.5706 860.589 Z" fill="#000000" fill-rule="nonzero" fill-opacity="1" /><path clip-path="url(#clip810)" d="M130.922 833.043 Q127.311 833.043 125.482 836.608 Q123.677 840.149 123.677 847.279 Q123.677 854.385 125.482 857.95 Q127.311 861.492 130.922 861.492 Q134.556 861.492 136.362 857.95 Q138.191 854.385 138.191 847.279 Q138.191 840.149 136.362 836.608 Q134.556 833.043 130.922 833.043 M130.922 829.339 Q136.732 829.339 139.788 833.946 Q142.867 838.529 142.867 847.279 Q142.867 856.006 139.788 860.612 Q136.732 865.195 130.922 865.195 Q125.112 865.195 122.033 860.612 Q118.978 856.006 118.978 847.279 Q118.978 838.529 122.033 833.946 Q125.112 829.339 130.922 829.339 Z" fill="#000000" fill-rule="nonzero" fill-opacity="1" /><polyline clip-path="url(#clip813)" style="stroke:#009af9; stroke-linecap:round; stroke-linejoin:round; stroke-width:4; stroke-opacity:1; fill:none" points="240.392,1134.89 242.445,1407.67 244.498,1307.4 246.55,1199.57 248.603,1102.66 250.656,1234.23 252.709,1094.22 254.762,1160.13 256.815,1155.54 258.868,1172.15 260.921,1116.78 262.974,1250.24 265.027,1169.13 267.079,1179.06 269.132,1188.22 271.185,1135.09 273.238,1187.45 275.291,1186.78 277.344,1162.74 279.397,1189.25 281.45,1169.21 283.503,1169.33 285.555,1161.71 287.608,1140.9 289.661,1197.74 291.714,1141.2 293.767,1198.49 295.82,1171.56 297.873,1155.53 299.926,1144.74 301.979,1174.03 304.031,1185.85 306.084,794.309 308.137,1491.4 310.19,1329.88 312.243,1199.71 314.296,1149.88 316.349,1173.69 318.402,1180.61 320.455,1197.52 322.507,1161.56 324.56,1170.05 326.613,1131.09 328.666,1174.1 330.719,1169.09 332.772,1162.5 334.825,1181.69 336.878,1182.31 338.931,1169.27 340.984,1178.11 343.036,1096.8 345.089,1128.68 347.142,1200.61 349.195,1130.72 351.248,1150.2 353.301,1175.23 355.354,1199.36 357.407,1154.02 359.46,1151.95 361.512,1146.31 363.565,1164.85 365.618,1143.02 367.671,1153.67 369.724,1133.62 371.777,1138.66 373.83,1199.78 375.883,1158.9 377.936,1161.12 379.988,1105.04 382.041,1160.74 384.094,1157.43 386.147,1176.72 388.2,1148.03 390.253,1163.02 392.306,1169.31 394.359,1157.77 396.412,1139.79 398.464,874.59 400.517,1183.54 402.57,1116.18 404.623,1220.69 406.676,1270.46 408.729,1050.59 410.782,1047.97 412.835,949.747 414.888,1652.93 416.94,289.66 418.993,947.022 421.046,1231.16 423.099,1112.32 425.152,1221.74 427.205,1082.81 429.258,1172.67 431.311,1204.52 433.364,1208.14 435.417,1143.18 437.469,1120.48 439.522,1183.07 441.575,1132.43 443.628,1192.54 445.681,1173.26 447.734,1138.65 449.787,1229.51 451.84,1300.78 453.893,1456.74 455.945,1199.29 457.998,1127.01 460.051,1212.99 462.104,1168.12 464.157,1126.92 466.21,1237.46 468.263,1198.77 470.316,1122.71 472.369,1128.5 474.421,1340.25 476.474,1189.84 478.527,1127.68 480.58,1226.73 482.633,1184.25 484.686,1153.76 486.739,1181.89 488.792,1154.46 490.845,1159.29 492.897,1156.14 494.95,1161.12 497.003,1212.17 499.056,1212.55 501.109,1231.2 503.162,1181.88 505.215,1111.6 507.268,1011.12 509.321,1125.03 511.374,1184.6 513.426,1149.81 515.479,1052.19 517.532,1208.21 519.585,1230.5 521.638,1254.49 523.691,1286.78 525.744,1135.27 527.797,1178.12 529.85,1174.88 531.902,1122.85 533.955,1107.14 536.008,1192.66 538.061,1169.28 540.114,1157.74 542.167,1200.61 544.22,1185.81 546.273,1141.09 548.326,1257.22 550.378,1229.25 552.431,1139.37 554.484,1162.35 556.537,1204.6 558.59,1371.53 560.643,1380.97 562.696,1286.6 564.749,977.015 566.802,773.337 568.854,1175.86 570.907,1136.15 572.96,1178.05 575.013,1166.64 577.066,1169.63 579.119,1177.06 581.172,1211.56 583.225,1162.45 585.278,1152.28 587.331,1174.98 589.383,1175.37 591.436,1165.75 593.489,1204.02 595.542,1318.18 597.595,1682.36 599.648,2924.19 601.701,687.134 603.754,1470.81 605.807,1190.04 607.859,1175.31 609.912,1172.46 611.965,1160.45 614.018,1167.81 616.071,1182.06 618.124,1201.08 620.177,1234.3 622.23,1224.24 624.283,1126.35 626.335,1189.13 628.388,1148.13 630.441,1176.86 632.494,1196.98 634.547,1200.09 636.6,925 638.653,1052.41 640.706,706.654 642.759,1350.58 644.811,751.483 646.864,940.253 648.917,1241.08 650.97,1180.29 653.023,1176.83 655.076,1251.88 657.129,1346.03 659.182,1411.54 661.235,1191.27 663.288,1251.9 665.34,1146.4 667.393,1155.96 669.446,1146.02 671.499,1187.75 673.552,1273.26 675.605,1115.82 677.658,1073.47 679.711,1029.61 681.764,1178.76 683.816,1194.89 685.869,1195.43 687.922,1110.45 689.975,1205.22 692.028,1148.95 694.081,1148 696.134,1185.85 698.187,1198.49 700.24,1157.84 702.292,1135.69 704.345,1172.1 706.398,1194.51 708.451,1255.27 710.504,1156.61 712.557,1146.97 714.61,1138.77 716.663,1155.37 718.716,1175.57 720.768,1163.87 722.821,1159.19 724.874,1176.06 726.927,1085.43 728.98,1159.34 731.033,1159.68 733.086,1164.37 735.139,1170.7 737.192,1122.7 739.245,1151.05 741.297,1175.47 743.35,1116.84 745.403,1150.03 747.456,1197.34 749.509,1272.7 751.562,1080.92 753.615,1176.94 755.668,1158.95 757.721,1163.23 759.773,1196.51 761.826,1203.29 763.879,1214.01 765.932,1136.54 767.985,1132.35 770.038,1240.97 772.091,1206.69 774.144,1156.62 776.197,1139.01 778.249,1121.89 780.302,1215.3 782.355,1168.41 784.408,1211.13 786.461,1194.75 788.514,1147.39 790.567,1193.71 792.62,1155.4 794.673,1149.3 796.725,1165.51 798.778,1203.36 800.831,1222 802.884,1158.84 804.937,1158.23 806.99,980.957 809.043,1018.98 811.096,1282.92 813.149,842.955 815.202,1012.29 817.254,1220.48 819.307,1161.95 821.36,1090.84 823.413,1090.71 825.466,1199.85 827.519,1150.27 829.572,1143.77 831.625,1160.23 833.678,1157.4 835.73,1148.24 837.783,1154.45 839.836,1116.12 841.889,1123.3 843.942,1227.17 845.995,1194.69 848.048,1109.89 850.101,1256.4 852.154,1031.73 854.206,1341.99 856.259,925.712 858.312,1166.91 860.365,1796.21 862.418,410.365 864.471,1133.41 866.524,1235.07 868.577,1273.55 870.63,1732.69 872.682,399.057 874.735,394.373 876.788,1405.2 878.841,1357.97 880.894,982.411 882.947,1252.02 885,1294.94 887.053,1328.82 889.106,1430.47 891.159,1483.28 893.211,1171.14 895.264,1161.92 897.317,1171.09 899.37,1174.26 901.423,1065.79 903.476,1207.9 905.529,1290.69 907.582,1402.74 909.635,1276.64 911.687,1303.79 913.74,1182.45 915.793,1189.68 917.846,1207.52 919.899,1184.51 921.952,1116.71 924.005,1204.48 926.058,1142.95 928.111,1125.35 930.163,1121.94 932.216,1104.75 934.269,1183.27 936.322,1199.08 938.375,1128.86 940.428,1104.94 942.481,1151.38 944.534,1186.86 946.587,1195.35 948.639,1182.04 950.692,1191.38 952.745,1016.6 954.798,1130.23 956.851,1184.51 958.904,1139.56 960.957,1138.37 963.01,1178.77 965.063,1151.96 967.116,1188.23 969.168,1156.72 971.221,1148.86 973.274,1162.39 975.327,1120.42 977.38,1201.79 979.433,1246.54 981.486,1109.75 983.539,1095.96 985.592,1454.79 987.644,-419.938 989.697,1280.33 991.75,1449.74 993.803,-909.096 995.856,2236.19 997.909,1520.41 999.962,1226.43 1002.01,1159.3 1004.07,1173.93 1006.12,1185.98 1008.17,1161.69 1010.23,1149.01 1012.28,1175.97 1014.33,1388.83 1016.38,1294.43 1018.44,1164.76 1020.49,1124.45 1022.54,1141.21 1024.6,1159.13 1026.65,1177.74 1028.7,1165.23 1030.76,1162.37 1032.81,1186.38 1034.86,1141.71 1036.91,1251.54 1038.97,1204.43 1041.02,1148.34 1043.07,1174.29 1045.13,1122.33 1047.18,1087.9 1049.23,1251.22 1051.28,1125.12 1053.34,1110.83 1055.39,1040.45 1057.44,1185.25 1059.5,1197.75 1061.55,1104.79 1063.6,1231.7 1065.65,1193.96 1067.71,1174.38 1069.76,1174.53 1071.81,1168.41 1073.87,1170.25 1075.92,1191.97 1077.97,1247.36 1080.02,1256.24 1082.08,742.945 1084.13,1485.19 1086.18,1356.37 1088.24,1159.24 1090.29,1189.05 1092.34,1144.1 1094.39,1136.55 1096.45,1170.43 1098.5,1159.24 1100.55,1145.22 1102.61,1163.39 1104.66,1163.26 1106.71,1143.6 1108.77,1131.75 1110.82,1138.65 1112.87,1158.94 1114.92,1174.85 1116.98,1168.57 1119.03,1138.88 1121.08,1161.88 1123.14,1067.39 1125.19,1222.18 1127.24,1088.94 1129.29,1267.77 1131.35,970.178 1133.4,862.039 1135.45,903.202 1137.51,1096 1139.56,1167.81 1141.61,1073.5 1143.66,1090.36 1145.72,1129.85 1147.77,1156.88 1149.82,1149.52 1151.88,1142.81 1153.93,1138.37 1155.98,1191.93 1158.03,1169.43 1160.09,1105.68 1162.14,1152.98 1164.19,1173 1166.25,1161.74 1168.3,1186.01 1170.35,1531.18 1172.4,1264.65 1174.46,1157.69 1176.51,1127.62 1178.56,1260.15 1180.62,1134.58 1182.67,1235.89 1184.72,1566.84 1186.77,1563.69 1188.83,255.515 1190.88,604.078 1192.93,1308.17 1194.99,1392.08 1197.04,1099.02 1199.09,1146.8 1201.15,1168.85 1203.2,1167.52 1205.25,1140.05 1207.3,1186.78 1209.36,1197.08 1211.41,1135.94 1213.46,1094.57 1215.52,1156.23 1217.57,1133.97 1219.62,1194 1221.67,1188.31 1223.73,1157.08 1225.78,1149.13 1227.83,1191.04 1229.89,1143.56 1231.94,1136.7 1233.99,1125.8 1236.04,1237.75 1238.1,1140.09 1240.15,1194.99 1242.2,1135.26 1244.26,1151.19 1246.31,1040.14 1248.36,1167.81 1250.41,1194.07 1252.47,1090.05 1254.52,1143.38 1256.57,1199.77 1258.63,1173.14 1260.68,1184.68 1262.73,1165.59 1264.78,1151.1 1266.84,1186.5 1268.89,1146.03 1270.94,1126.86 1273,1145.18 1275.05,1171.18 1277.1,1168.06 1279.16,1164.86 1281.21,1122.53 1283.26,1136.33 1285.31,1195.15 1287.37,1103.02 1289.42,1149.04 1291.47,1137.31 1293.53,1158.53 1295.58,1188.93 1297.63,1187.57 1299.68,1161.92 1301.74,1024.65 1303.79,1199.52 1305.84,1211.67 1307.9,1121.53 1309.95,1483.19 1312,1021.62 1314.05,780.292 1316.11,1523.19 1318.16,1168.14 1320.21,1162.87 1322.27,1176.96 1324.32,1108.19 1326.37,1214.86 1328.42,1114.78 1330.48,1127.16 1332.53,1118.51 1334.58,1124.03 1336.64,1213.75 1338.69,1219.93 1340.74,1134.71 1342.79,1197.15 1344.85,1149.28 1346.9,1082.44 1348.95,1243.96 1351.01,1236.28 1353.06,1085.98 1355.11,1076.4 1357.16,1221.97 1359.22,1140.07 1361.27,1207.24 1363.32,1214.35 1365.38,1090.26 1367.43,1098.85 1369.48,1189.16 1371.54,1187.91 1373.59,1069.94 1375.64,1095.79 1377.69,1214.93 1379.75,1053.56 1381.8,1203.21 1383.85,1180.01 1385.91,1148.7 1387.96,1191.42 1390.01,893.592 1392.06,1259.7 1394.12,1200.7 1396.17,1168.25 1398.22,1163.16 1400.28,1166.28 1402.33,1163.02 1404.38,1161.86 1406.43,1159.55 1408.49,1130.98 1410.54,1149.09 1412.59,1149.82 1414.65,1187.45 1416.7,1192.15 1418.75,1184.81 1420.8,1245.19 1422.86,1113.16 1424.91,1187.62 1426.96,1179.41 1429.02,1178.92 1431.07,1177 1433.12,1204.87 1435.17,1069.7 1437.23,1152.52 1439.28,1176.05 1441.33,1221.32 1443.39,1184.82 1445.44,1206.25 1447.49,1169.66 1449.55,1257.68 1451.6,1246.23 1453.65,1262.68 1455.7,1316.59 1457.76,1067.83 1459.81,1133.38 1461.86,1155.59 1463.92,1065.85 1465.97,1174.1 1468.02,1125.36 1470.07,1202.66 1472.13,1220.05 1474.18,1022.64 1476.23,1138.26 1478.29,1142 1480.34,1128.11 1482.39,1165.74 1484.44,1166.17 1486.5,1186.37 1488.55,1239.54 1490.6,1159.07 1492.66,1180.58 1494.71,1269.32 1496.76,1185.87 1498.81,1135.95 1500.87,1186.24 1502.92,1196.29 1504.97,1132.53 1507.03,1194.03 1509.08,1142.77 1511.13,1258.32 1513.18,1206.68 1515.24,1169.92 1517.29,1180.67 1519.34,1166.3 1521.4,1152.83 1523.45,1196.35 1525.5,1143.62 1527.55,1196.04 1529.61,1159.3 1531.66,1152.67 1533.71,1189.81 1535.77,1184.89 1537.82,1178.03 1539.87,1169.19 1541.93,1598.62 1543.98,968.032 1546.03,1663.38 1548.08,1210.87 1550.14,1098.11 1552.19,1031.36 1554.24,686.439 1556.3,1039.51 1558.35,1026.44 1560.4,1305.65 1562.45,1074.03 1564.51,1180.14 1566.56,1160.18 1568.61,1201.76 1570.67,1102.84 1572.72,1285.29 1574.77,1074.81 1576.82,1103.83 1578.88,1158.42 1580.93,1096.94 1582.98,1174.93 1585.04,1275.56 1587.09,1330.54 1589.14,993.404 1591.19,1176.21 1593.25,1165.54 1595.3,1129.67 1597.35,1199.31 1599.41,1158.06 1601.46,1164.71 1603.51,1174.39 1605.56,1186.32 1607.62,1195.66 1609.67,1168.68 1611.72,1155.75 1613.78,1119.02 1615.83,1146.55 1617.88,1189.35 1619.94,969.059 1621.99,1142.02 1624.04,1147.28 1626.09,1173.06 1628.15,1199.59 1630.2,1139.59 1632.25,1199.12 1634.31,1162.8 1636.36,1169.69 1638.41,1185.42 1640.46,1187.68 1642.52,1148.73 1644.57,1174.05 1646.62,1148.06 1648.68,1192.43 1650.73,1142.91 1652.78,1191.67 1654.83,1088.82 1656.89,1236.51 1658.94,1192.56 1660.99,1132.2 1663.05,1482.38 1665.1,1152.97 1667.15,832.87 1669.2,1776.49 1671.26,706.261 1673.31,1340.21 1675.36,1689.72 1677.42,1165.42 1679.47,1165.16 1681.52,1154.27 1683.57,1208.16 1685.63,1206.9 1687.68,1207.77 1689.73,1121.99 1691.79,1196.44 1693.84,1176.07 1695.89,1171.93 1697.94,1087.69 1700,1204.87 1702.05,805.877 1704.1,1206.05 1706.16,1207.75 1708.21,1205.75 1710.26,1145.76 1712.32,1190.1 1714.37,1190.56 1716.42,1170.01 1718.47,1218.55 1720.53,1217.37 1722.58,1117.14 1724.63,1144.42 1726.69,1188.45 1728.74,1147.05 1730.79,1193.99 1732.84,1186.17 1734.9,1084.1 1736.95,1141.54 1739,1195.67 1741.06,1200.93 1743.11,1165.35 1745.16,1217.69 1747.21,1156.15 1749.27,1255.42 1751.32,1257.35 1753.37,1174.45 1755.43,1183.84 1757.48,1019.67 1759.53,1259.69 1761.58,1152.6 1763.64,1170.85 1765.69,1284.04 1767.74,1041.95 1769.8,1314.33 1771.85,1282.16 1773.9,1213.9 1775.95,1323.67 1778.01,1186.34 1780.06,1018.26 1782.11,709.452 1784.17,1338.27 1786.22,1028.78 1788.27,1085.62 1790.33,1073.12 1792.38,1251.68 1794.43,1002.61 1796.48,1134.68 1798.54,1120.04 1800.59,1289.54 1802.64,1224.3 1804.7,1207.29 1806.75,1161.77 1808.8,1162.24 1810.85,1162.07 1812.91,1963.88 1814.96,343.141 1817.01,1851.14 1819.07,1283.05 1821.12,1196.02 1823.17,1174.56 1825.22,1170.49 1827.28,1197.6 1829.33,1207.15 1831.38,1153.11 1833.44,1182.27 1835.49,1260.71 1837.54,1060.57 1839.59,1262.36 1841.65,1196.61 1843.7,1215.69 1845.75,1200.13 1847.81,1137.86 1849.86,1084.15 1851.91,1315.71 1853.96,1157 1856.02,1158.99 1858.07,1163.18 1860.12,1170.92 1862.18,1139.33 1864.23,1174.81 1866.28,1104.26 1868.34,1093.44 1870.39,1175.74 1872.44,1163.66 1874.49,1184.91 1876.55,1225.38 1878.6,1178.27 1880.65,1144.99 1882.71,1115.39 1884.76,1111.14 1886.81,1099.11 1888.86,1183.82 1890.92,1264.27 1892.97,1195.11 1895.02,1163.34 1897.08,1188.16 1899.13,1193.63 1901.18,1182.9 1903.23,1161.94 1905.29,1202.03 1907.34,1115.38 1909.39,1191.81 1911.45,1182.89 1913.5,1163.55 1915.55,1168.9 1917.6,1190.47 1919.66,1135.84 1921.71,1142.77 1923.76,1142.24 1925.82,1143.36 1927.87,1167.26 1929.92,1150.56 1931.97,1147.59 1934.03,1189.61 1936.08,1186.57 1938.13,1147.53 1940.19,1156.38 1942.24,1105.39 1944.29,1234.95 1946.34,1189.5 1948.4,1174.62 1950.45,1270.19 1952.5,1049.96 1954.56,1258.34 1956.61,1137.83 1958.66,1116.93 1960.72,1206.31 1962.77,1218.91 1964.82,1215.62 1966.87,1049.06 1968.93,1238.61 1970.98,1163.94 1973.03,1090.53 1975.09,1119.49 1977.14,1200.35 1979.19,1149.85 1981.24,1241.39 1983.3,1188.5 1985.35,1248.51 1987.4,1097.59 1989.46,1181.7 1991.51,1128.36 1993.56,1194.59 1995.61,1133.41 1997.67,1158.61 1999.72,1172.42 2001.77,1189.26 2003.83,1189.64 2005.88,1186.12 2007.93,1289.88 2009.98,1137.76 2012.04,1196.31 2014.09,1193.11 2016.14,1148.85 2018.2,1158 2020.25,1148.99 2022.3,1185.36 2024.35,1172.66 2026.41,1171.11 2028.46,1166.9 2030.51,1166.66 2032.57,1163.77 2034.62,1138.08 2036.67,1139.45 2038.73,1090.4 2040.78,1175.71 2042.83,1159.03 2044.88,1276.04 2046.94,1352.44 2048.99,1122.33 2051.04,1213.86 2053.1,1120.72 2055.15,1138.95 2057.2,1052.04 2059.25,1158.4 2061.31,1168.17 2063.36,1185.59 2065.41,1156.02 2067.47,1171.2 2069.52,1175.24 2071.57,1164.32 2073.62,1165.95 2075.68,1163.95 2077.73,1131.54 2079.78,1252.99 2081.84,1225.68 2083.89,1153.94 2085.94,1187.83 2087.99,1148.5 2090.05,1157.51 2092.1,1170.94 2094.15,1160.31 2096.21,1132.64 2098.26,1200.67 2100.31,1112.22 2102.36,1133.04 2104.42,1143.85 2106.47,1175.22 2108.52,1153.08 2110.58,1148.49 2112.63,1177.63 2114.68,1241.3 2116.73,916.821 2118.79,1156.96 2120.84,1176.85 2122.89,1382.33 2124.95,730.037 2127,1171.98 2129.05,1135.98 2131.11,1209.14 2133.16,1237.15 2135.21,1200.6 2137.26,1193.68 2139.32,1179.58 2141.37,1133 2143.42,1183.97 2145.48,1178.59 2147.53,1141 2149.58,1171.27 2151.63,1155.82 2153.69,1201.48 2155.74,1201.96 2157.79,1192.84 2159.85,1113.4 2161.9,1105.66 2163.95,1109.74 2166,1054.46 2168.06,1004.28 2170.11,1205 2172.16,1153.47 2174.22,1144.57 2176.27,1112.59 2178.32,1142.37 2180.37,1146.56 2182.43,1156.33 2184.48,1152.36 2186.53,1113.58 2188.59,1185.6 2190.64,1046.91 2192.69,1096.64 2194.74,1161.16 2196.8,1179.22 2198.85,1162.23 2200.9,1152.69 2202.96,1138.37 2205.01,1206.31 2207.06,1166.34 2209.12,1177.6 2211.17,1139.53 2213.22,1192.95 2215.27,1261.01 2217.33,1290.1 2219.38,1173.36 2221.43,1043.87 2223.49,1332.25 2225.54,-772.247 2227.59,4268.65 2229.64,4225.16 2231.7,3333.58 2233.75,-11539.7 2235.8,4003.01 2237.86,476.534 2239.91,1346.75 2241.96,551.36 2244.01,1695.45 2246.07,744.765 2248.12,1243.75 2250.17,998.298 2252.23,1221.65 2254.28,1188.71 2256.33,1162.95 2258.38,1177.73 2260.44,1106.95 2262.49,1148.05 2264.54,1192.86 2266.6,1189.5 2268.65,1177.55 2270.7,1143.95 2272.75,1274.95 2274.81,1202.77 2276.86,1069.48 2278.91,1273.13 2280.97,1190.63 2283.02,1252.45 2285.07,1164.36 2287.12,1171.86 2289.18,1193.4 2291.23,1189.34 "/>
<path clip-path="url(#clip810)" d="M1942.7 972.231 L2280.29 972.231 L2280.29 868.551 L1942.7 868.551  Z" fill="#ffffff" fill-rule="evenodd" fill-opacity="1"/>
<polyline clip-path="url(#clip810)" style="stroke:#000000; stroke-linecap:round; stroke-linejoin:round; stroke-width:4; stroke-opacity:1; fill:none" points="1942.7,972.231 2280.29,972.231 2280.29,868.551 1942.7,868.551 1942.7,972.231 "/>
<polyline clip-path="url(#clip810)" style="stroke:#009af9; stroke-linecap:round; stroke-linejoin:round; stroke-width:4; stroke-opacity:1; fill:none" points="1966.85,920.391 2111.78,920.391 "/>
<path clip-path="url(#clip810)" d="M2161.49 932.74 L2161.49 923.458 L2153.85 923.458 L2153.85 919.615 L2166.12 919.615 L2166.12 934.453 Q2163.41 936.375 2160.14 937.37 Q2156.88 938.342 2153.18 938.342 Q2145.07 938.342 2140.49 933.62 Q2135.93 928.875 2135.93 920.426 Q2135.93 911.953 2140.49 907.231 Q2145.07 902.486 2153.18 902.486 Q2156.56 902.486 2159.59 903.319 Q2162.64 904.153 2165.21 905.773 L2165.21 910.75 Q2162.62 908.551 2159.7 907.44 Q2156.79 906.328 2153.57 906.328 Q2147.23 906.328 2144.03 909.87 Q2140.86 913.412 2140.86 920.426 Q2140.86 927.416 2144.03 930.958 Q2147.23 934.5 2153.57 934.5 Q2156.05 934.5 2157.99 934.083 Q2159.94 933.643 2161.49 932.74 Z" fill="#000000" fill-rule="nonzero" fill-opacity="1" /><path clip-path="url(#clip810)" d="M2179.33 906.953 L2179.33 919.94 L2185.21 919.94 Q2188.48 919.94 2190.26 918.25 Q2192.04 916.56 2192.04 913.435 Q2192.04 910.333 2190.26 908.643 Q2188.48 906.953 2185.21 906.953 L2179.33 906.953 M2174.66 903.111 L2185.21 903.111 Q2191.02 903.111 2193.99 905.75 Q2196.97 908.365 2196.97 913.435 Q2196.97 918.551 2193.99 921.166 Q2191.02 923.782 2185.21 923.782 L2179.33 923.782 L2179.33 937.671 L2174.66 937.671 L2174.66 903.111 Z" fill="#000000" fill-rule="nonzero" fill-opacity="1" /><path clip-path="url(#clip810)" d="M2223.96 904.245 L2223.96 908.805 Q2221.3 907.532 2218.94 906.907 Q2216.58 906.282 2214.38 906.282 Q2210.56 906.282 2208.48 907.764 Q2206.42 909.245 2206.42 911.977 Q2206.42 914.268 2207.78 915.449 Q2209.17 916.606 2213.01 917.324 L2215.84 917.902 Q2221.07 918.898 2223.55 921.421 Q2226.05 923.921 2226.05 928.134 Q2226.05 933.157 2222.67 935.75 Q2219.31 938.342 2212.81 938.342 Q2210.35 938.342 2207.57 937.787 Q2204.82 937.231 2201.86 936.143 L2201.86 931.328 Q2204.7 932.926 2207.44 933.736 Q2210.17 934.546 2212.81 934.546 Q2216.81 934.546 2218.99 932.972 Q2221.16 931.398 2221.16 928.481 Q2221.16 925.935 2219.59 924.5 Q2218.04 923.064 2214.47 922.347 L2211.62 921.791 Q2206.39 920.75 2204.06 918.527 Q2201.72 916.305 2201.72 912.347 Q2201.72 907.764 2204.94 905.125 Q2208.18 902.486 2213.85 902.486 Q2216.28 902.486 2218.8 902.926 Q2221.32 903.366 2223.96 904.245 Z" fill="#000000" fill-rule="nonzero" fill-opacity="1" /><path clip-path="url(#clip810)" d="M2254.06 904.245 L2254.06 908.805 Q2251.39 907.532 2249.03 906.907 Q2246.67 906.282 2244.47 906.282 Q2240.65 906.282 2238.57 907.764 Q2236.51 909.245 2236.51 911.977 Q2236.51 914.268 2237.87 915.449 Q2239.26 916.606 2243.11 917.324 L2245.93 917.902 Q2251.16 918.898 2253.64 921.421 Q2256.14 923.921 2256.14 928.134 Q2256.14 933.157 2252.76 935.75 Q2249.4 938.342 2242.9 938.342 Q2240.44 938.342 2237.67 937.787 Q2234.91 937.231 2231.95 936.143 L2231.95 931.328 Q2234.8 932.926 2237.53 933.736 Q2240.26 934.546 2242.9 934.546 Q2246.9 934.546 2249.08 932.972 Q2251.25 931.398 2251.25 928.481 Q2251.25 925.935 2249.68 924.5 Q2248.13 923.064 2244.56 922.347 L2241.72 921.791 Q2236.49 920.75 2234.15 918.527 Q2231.81 916.305 2231.81 912.347 Q2231.81 907.764 2235.03 905.125 Q2238.27 902.486 2243.94 902.486 Q2246.37 902.486 2248.89 902.926 Q2251.42 903.366 2254.06 904.245 Z" fill="#000000" fill-rule="nonzero" fill-opacity="1" /></svg>
