<?xml version="1.0" encoding="utf-8"?>
<svg xmlns="http://www.w3.org/2000/svg" xmlns:xlink="http://www.w3.org/1999/xlink" width="600" height="400" viewBox="0 0 2400 1600">
<defs>
  <clipPath id="clip430">
    <rect x="0" y="0" width="2400" height="1600"/>
  </clipPath>
</defs>
<path clip-path="url(#clip430)" d="M0 1600 L2400 1600 L2400 0 L0 0  Z" fill="#ffffff" fill-rule="evenodd" fill-opacity="1"/>
<defs>
  <clipPath id="clip431">
    <rect x="480" y="0" width="1681" height="1600"/>
  </clipPath>
</defs>
<path clip-path="url(#clip430)" d="M178.867 686.448 L2352.76 686.448 L2352.76 47.2441 L178.867 47.2441  Z" fill="#ffffff" fill-rule="evenodd" fill-opacity="1"/>
<defs>
  <clipPath id="clip432">
    <rect x="178" y="47" width="2175" height="640"/>
  </clipPath>
</defs>
<polyline clip-path="url(#clip432)" style="stroke:#000000; stroke-linecap:round; stroke-linejoin:round; stroke-width:2; stroke-opacity:0.1; fill:none" points="238.339,686.448 238.339,47.2441 "/>
<polyline clip-path="url(#clip432)" style="stroke:#000000; stroke-linecap:round; stroke-linejoin:round; stroke-width:2; stroke-opacity:0.1; fill:none" points="751.562,686.448 751.562,47.2441 "/>
<polyline clip-path="url(#clip432)" style="stroke:#000000; stroke-linecap:round; stroke-linejoin:round; stroke-width:2; stroke-opacity:0.1; fill:none" points="1264.78,686.448 1264.78,47.2441 "/>
<polyline clip-path="url(#clip432)" style="stroke:#000000; stroke-linecap:round; stroke-linejoin:round; stroke-width:2; stroke-opacity:0.1; fill:none" points="1778.01,686.448 1778.01,47.2441 "/>
<polyline clip-path="url(#clip432)" style="stroke:#000000; stroke-linecap:round; stroke-linejoin:round; stroke-width:2; stroke-opacity:0.1; fill:none" points="2291.23,686.448 2291.23,47.2441 "/>
<polyline clip-path="url(#clip432)" style="stroke:#000000; stroke-linecap:round; stroke-linejoin:round; stroke-width:2; stroke-opacity:0.1; fill:none" points="178.867,686.448 2352.76,686.448 "/>
<polyline clip-path="url(#clip432)" style="stroke:#000000; stroke-linecap:round; stroke-linejoin:round; stroke-width:2; stroke-opacity:0.1; fill:none" points="178.867,526.647 2352.76,526.647 "/>
<polyline clip-path="url(#clip432)" style="stroke:#000000; stroke-linecap:round; stroke-linejoin:round; stroke-width:2; stroke-opacity:0.1; fill:none" points="178.867,366.846 2352.76,366.846 "/>
<polyline clip-path="url(#clip432)" style="stroke:#000000; stroke-linecap:round; stroke-linejoin:round; stroke-width:2; stroke-opacity:0.1; fill:none" points="178.867,207.045 2352.76,207.045 "/>
<polyline clip-path="url(#clip432)" style="stroke:#000000; stroke-linecap:round; stroke-linejoin:round; stroke-width:2; stroke-opacity:0.1; fill:none" points="178.867,47.2441 2352.76,47.2441 "/>
<polyline clip-path="url(#clip430)" style="stroke:#000000; stroke-linecap:round; stroke-linejoin:round; stroke-width:4; stroke-opacity:1; fill:none" points="178.867,686.448 2352.76,686.448 "/>
<polyline clip-path="url(#clip430)" style="stroke:#000000; stroke-linecap:round; stroke-linejoin:round; stroke-width:4; stroke-opacity:1; fill:none" points="238.339,686.448 238.339,667.55 "/>
<polyline clip-path="url(#clip430)" style="stroke:#000000; stroke-linecap:round; stroke-linejoin:round; stroke-width:4; stroke-opacity:1; fill:none" points="751.562,686.448 751.562,667.55 "/>
<polyline clip-path="url(#clip430)" style="stroke:#000000; stroke-linecap:round; stroke-linejoin:round; stroke-width:4; stroke-opacity:1; fill:none" points="1264.78,686.448 1264.78,667.55 "/>
<polyline clip-path="url(#clip430)" style="stroke:#000000; stroke-linecap:round; stroke-linejoin:round; stroke-width:4; stroke-opacity:1; fill:none" points="1778.01,686.448 1778.01,667.55 "/>
<polyline clip-path="url(#clip430)" style="stroke:#000000; stroke-linecap:round; stroke-linejoin:round; stroke-width:4; stroke-opacity:1; fill:none" points="2291.23,686.448 2291.23,667.55 "/>
<path clip-path="url(#clip430)" d="M238.339 717.367 Q234.728 717.367 232.899 720.931 Q231.094 724.473 231.094 731.603 Q231.094 738.709 232.899 742.274 Q234.728 745.815 238.339 745.815 Q241.973 745.815 243.779 742.274 Q245.607 738.709 245.607 731.603 Q245.607 724.473 243.779 720.931 Q241.973 717.367 238.339 717.367 M238.339 713.663 Q244.149 713.663 247.205 718.269 Q250.283 722.853 250.283 731.603 Q250.283 740.329 247.205 744.936 Q244.149 749.519 238.339 749.519 Q232.529 749.519 229.45 744.936 Q226.395 740.329 226.395 731.603 Q226.395 722.853 229.45 718.269 Q232.529 713.663 238.339 713.663 Z" fill="#000000" fill-rule="nonzero" fill-opacity="1" /><path clip-path="url(#clip430)" d="M715.254 744.913 L731.574 744.913 L731.574 748.848 L709.629 748.848 L709.629 744.913 Q712.291 742.158 716.875 737.528 Q721.481 732.876 722.662 731.533 Q724.907 729.01 725.787 727.274 Q726.689 725.515 726.689 723.825 Q726.689 721.07 724.745 719.334 Q722.824 717.598 719.722 717.598 Q717.523 717.598 715.069 718.362 Q712.638 719.126 709.861 720.677 L709.861 715.955 Q712.685 714.82 715.138 714.242 Q717.592 713.663 719.629 713.663 Q725 713.663 728.194 716.348 Q731.388 719.033 731.388 723.524 Q731.388 725.654 730.578 727.575 Q729.791 729.473 727.685 732.066 Q727.106 732.737 724.004 735.954 Q720.902 739.149 715.254 744.913 Z" fill="#000000" fill-rule="nonzero" fill-opacity="1" /><path clip-path="url(#clip430)" d="M741.435 714.288 L759.791 714.288 L759.791 718.223 L745.717 718.223 L745.717 726.695 Q746.736 726.348 747.754 726.186 Q748.773 726.001 749.791 726.001 Q755.578 726.001 758.958 729.172 Q762.337 732.343 762.337 737.76 Q762.337 743.339 758.865 746.44 Q755.393 749.519 749.073 749.519 Q746.898 749.519 744.629 749.149 Q742.384 748.778 739.976 748.038 L739.976 743.339 Q742.06 744.473 744.282 745.028 Q746.504 745.584 748.981 745.584 Q752.985 745.584 755.323 743.478 Q757.661 741.371 757.661 737.76 Q757.661 734.149 755.323 732.042 Q752.985 729.936 748.981 729.936 Q747.106 729.936 745.231 730.353 Q743.379 730.769 741.435 731.649 L741.435 714.288 Z" fill="#000000" fill-rule="nonzero" fill-opacity="1" /><path clip-path="url(#clip430)" d="M781.55 717.367 Q777.939 717.367 776.11 720.931 Q774.305 724.473 774.305 731.603 Q774.305 738.709 776.11 742.274 Q777.939 745.815 781.55 745.815 Q785.184 745.815 786.99 742.274 Q788.819 738.709 788.819 731.603 Q788.819 724.473 786.99 720.931 Q785.184 717.367 781.55 717.367 M781.55 713.663 Q787.36 713.663 790.416 718.269 Q793.495 722.853 793.495 731.603 Q793.495 740.329 790.416 744.936 Q787.36 749.519 781.55 749.519 Q775.74 749.519 772.661 744.936 Q769.606 740.329 769.606 731.603 Q769.606 722.853 772.661 718.269 Q775.74 713.663 781.55 713.663 Z" fill="#000000" fill-rule="nonzero" fill-opacity="1" /><path clip-path="url(#clip430)" d="M1224.4 714.288 L1242.76 714.288 L1242.76 718.223 L1228.69 718.223 L1228.69 726.695 Q1229.7 726.348 1230.72 726.186 Q1231.74 726.001 1232.76 726.001 Q1238.55 726.001 1241.93 729.172 Q1245.31 732.343 1245.31 737.76 Q1245.31 743.339 1241.83 746.44 Q1238.36 749.519 1232.04 749.519 Q1229.87 749.519 1227.6 749.149 Q1225.35 748.778 1222.94 748.038 L1222.94 743.339 Q1225.03 744.473 1227.25 745.028 Q1229.47 745.584 1231.95 745.584 Q1235.95 745.584 1238.29 743.478 Q1240.63 741.371 1240.63 737.76 Q1240.63 734.149 1238.29 732.042 Q1235.95 729.936 1231.95 729.936 Q1230.07 729.936 1228.2 730.353 Q1226.35 730.769 1224.4 731.649 L1224.4 714.288 Z" fill="#000000" fill-rule="nonzero" fill-opacity="1" /><path clip-path="url(#clip430)" d="M1264.52 717.367 Q1260.91 717.367 1259.08 720.931 Q1257.27 724.473 1257.27 731.603 Q1257.27 738.709 1259.08 742.274 Q1260.91 745.815 1264.52 745.815 Q1268.15 745.815 1269.96 742.274 Q1271.79 738.709 1271.79 731.603 Q1271.79 724.473 1269.96 720.931 Q1268.15 717.367 1264.52 717.367 M1264.52 713.663 Q1270.33 713.663 1273.38 718.269 Q1276.46 722.853 1276.46 731.603 Q1276.46 740.329 1273.38 744.936 Q1270.33 749.519 1264.52 749.519 Q1258.71 749.519 1255.63 744.936 Q1252.57 740.329 1252.57 731.603 Q1252.57 722.853 1255.63 718.269 Q1258.71 713.663 1264.52 713.663 Z" fill="#000000" fill-rule="nonzero" fill-opacity="1" /><path clip-path="url(#clip430)" d="M1294.68 717.367 Q1291.07 717.367 1289.24 720.931 Q1287.44 724.473 1287.44 731.603 Q1287.44 738.709 1289.24 742.274 Q1291.07 745.815 1294.68 745.815 Q1298.31 745.815 1300.12 742.274 Q1301.95 738.709 1301.95 731.603 Q1301.95 724.473 1300.12 720.931 Q1298.31 717.367 1294.68 717.367 M1294.68 713.663 Q1300.49 713.663 1303.55 718.269 Q1306.62 722.853 1306.62 731.603 Q1306.62 740.329 1303.55 744.936 Q1300.49 749.519 1294.68 749.519 Q1288.87 749.519 1285.79 744.936 Q1282.74 740.329 1282.74 731.603 Q1282.74 722.853 1285.79 718.269 Q1288.87 713.663 1294.68 713.663 Z" fill="#000000" fill-rule="nonzero" fill-opacity="1" /><path clip-path="url(#clip430)" d="M1736.28 714.288 L1758.51 714.288 L1758.51 716.279 L1745.96 748.848 L1741.08 748.848 L1752.88 718.223 L1736.28 718.223 L1736.28 714.288 Z" fill="#000000" fill-rule="nonzero" fill-opacity="1" /><path clip-path="url(#clip430)" d="M1767.67 714.288 L1786.03 714.288 L1786.03 718.223 L1771.95 718.223 L1771.95 726.695 Q1772.97 726.348 1773.99 726.186 Q1775.01 726.001 1776.03 726.001 Q1781.82 726.001 1785.2 729.172 Q1788.57 732.343 1788.57 737.76 Q1788.57 743.339 1785.1 746.44 Q1781.63 749.519 1775.31 749.519 Q1773.14 749.519 1770.87 749.149 Q1768.62 748.778 1766.21 748.038 L1766.21 743.339 Q1768.3 744.473 1770.52 745.028 Q1772.74 745.584 1775.22 745.584 Q1779.22 745.584 1781.56 743.478 Q1783.9 741.371 1783.9 737.76 Q1783.9 734.149 1781.56 732.042 Q1779.22 729.936 1775.22 729.936 Q1773.34 729.936 1771.47 730.353 Q1769.62 730.769 1767.67 731.649 L1767.67 714.288 Z" fill="#000000" fill-rule="nonzero" fill-opacity="1" /><path clip-path="url(#clip430)" d="M1807.79 717.367 Q1804.18 717.367 1802.35 720.931 Q1800.54 724.473 1800.54 731.603 Q1800.54 738.709 1802.35 742.274 Q1804.18 745.815 1807.79 745.815 Q1811.42 745.815 1813.23 742.274 Q1815.06 738.709 1815.06 731.603 Q1815.06 724.473 1813.23 720.931 Q1811.42 717.367 1807.79 717.367 M1807.79 713.663 Q1813.6 713.663 1816.65 718.269 Q1819.73 722.853 1819.73 731.603 Q1819.73 740.329 1816.65 744.936 Q1813.6 749.519 1807.79 749.519 Q1801.98 749.519 1798.9 744.936 Q1795.84 740.329 1795.84 731.603 Q1795.84 722.853 1798.9 718.269 Q1801.98 713.663 1807.79 713.663 Z" fill="#000000" fill-rule="nonzero" fill-opacity="1" /><path clip-path="url(#clip430)" d="M2235.76 744.913 L2243.4 744.913 L2243.4 718.547 L2235.09 720.214 L2235.09 715.955 L2243.35 714.288 L2248.02 714.288 L2248.02 744.913 L2255.66 744.913 L2255.66 748.848 L2235.76 748.848 L2235.76 744.913 Z" fill="#000000" fill-rule="nonzero" fill-opacity="1" /><path clip-path="url(#clip430)" d="M2275.11 717.367 Q2271.5 717.367 2269.67 720.931 Q2267.86 724.473 2267.86 731.603 Q2267.86 738.709 2269.67 742.274 Q2271.5 745.815 2275.11 745.815 Q2278.74 745.815 2280.55 742.274 Q2282.38 738.709 2282.38 731.603 Q2282.38 724.473 2280.55 720.931 Q2278.74 717.367 2275.11 717.367 M2275.11 713.663 Q2280.92 713.663 2283.97 718.269 Q2287.05 722.853 2287.05 731.603 Q2287.05 740.329 2283.97 744.936 Q2280.92 749.519 2275.11 749.519 Q2269.3 749.519 2266.22 744.936 Q2263.16 740.329 2263.16 731.603 Q2263.16 722.853 2266.22 718.269 Q2269.3 713.663 2275.11 713.663 Z" fill="#000000" fill-rule="nonzero" fill-opacity="1" /><path clip-path="url(#clip430)" d="M2305.27 717.367 Q2301.66 717.367 2299.83 720.931 Q2298.02 724.473 2298.02 731.603 Q2298.02 738.709 2299.83 742.274 Q2301.66 745.815 2305.27 745.815 Q2308.9 745.815 2310.71 742.274 Q2312.54 738.709 2312.54 731.603 Q2312.54 724.473 2310.71 720.931 Q2308.9 717.367 2305.27 717.367 M2305.27 713.663 Q2311.08 713.663 2314.14 718.269 Q2317.21 722.853 2317.21 731.603 Q2317.21 740.329 2314.14 744.936 Q2311.08 749.519 2305.27 749.519 Q2299.46 749.519 2296.38 744.936 Q2293.33 740.329 2293.33 731.603 Q2293.33 722.853 2296.38 718.269 Q2299.46 713.663 2305.27 713.663 Z" fill="#000000" fill-rule="nonzero" fill-opacity="1" /><path clip-path="url(#clip430)" d="M2335.43 717.367 Q2331.82 717.367 2329.99 720.931 Q2328.19 724.473 2328.19 731.603 Q2328.19 738.709 2329.99 742.274 Q2331.82 745.815 2335.43 745.815 Q2339.07 745.815 2340.87 742.274 Q2342.7 738.709 2342.7 731.603 Q2342.7 724.473 2340.87 720.931 Q2339.07 717.367 2335.43 717.367 M2335.43 713.663 Q2341.24 713.663 2344.3 718.269 Q2347.38 722.853 2347.38 731.603 Q2347.38 740.329 2344.3 744.936 Q2341.24 749.519 2335.43 749.519 Q2329.62 749.519 2326.54 744.936 Q2323.49 740.329 2323.49 731.603 Q2323.49 722.853 2326.54 718.269 Q2329.62 713.663 2335.43 713.663 Z" fill="#000000" fill-rule="nonzero" fill-opacity="1" /><polyline clip-path="url(#clip430)" style="stroke:#000000; stroke-linecap:round; stroke-linejoin:round; stroke-width:4; stroke-opacity:1; fill:none" points="178.867,686.448 178.867,47.2441 "/>
<polyline clip-path="url(#clip430)" style="stroke:#000000; stroke-linecap:round; stroke-linejoin:round; stroke-width:4; stroke-opacity:1; fill:none" points="178.867,686.448 197.764,686.448 "/>
<polyline clip-path="url(#clip430)" style="stroke:#000000; stroke-linecap:round; stroke-linejoin:round; stroke-width:4; stroke-opacity:1; fill:none" points="178.867,526.647 197.764,526.647 "/>
<polyline clip-path="url(#clip430)" style="stroke:#000000; stroke-linecap:round; stroke-linejoin:round; stroke-width:4; stroke-opacity:1; fill:none" points="178.867,366.846 197.764,366.846 "/>
<polyline clip-path="url(#clip430)" style="stroke:#000000; stroke-linecap:round; stroke-linejoin:round; stroke-width:4; stroke-opacity:1; fill:none" points="178.867,207.045 197.764,207.045 "/>
<polyline clip-path="url(#clip430)" style="stroke:#000000; stroke-linecap:round; stroke-linejoin:round; stroke-width:4; stroke-opacity:1; fill:none" points="178.867,47.2441 197.764,47.2441 "/>
<path clip-path="url(#clip430)" d="M50.9921 686.899 L80.6679 686.899 L80.6679 690.834 L50.9921 690.834 L50.9921 686.899 Z" fill="#000000" fill-rule="nonzero" fill-opacity="1" /><path clip-path="url(#clip430)" d="M91.5706 699.793 L99.2095 699.793 L99.2095 673.427 L90.8993 675.094 L90.8993 670.835 L99.1632 669.168 L103.839 669.168 L103.839 699.793 L111.478 699.793 L111.478 703.728 L91.5706 703.728 L91.5706 699.793 Z" fill="#000000" fill-rule="nonzero" fill-opacity="1" /><path clip-path="url(#clip430)" d="M130.922 672.247 Q127.311 672.247 125.482 675.811 Q123.677 679.353 123.677 686.483 Q123.677 693.589 125.482 697.154 Q127.311 700.695 130.922 700.695 Q134.556 700.695 136.362 697.154 Q138.191 693.589 138.191 686.483 Q138.191 679.353 136.362 675.811 Q134.556 672.247 130.922 672.247 M130.922 668.543 Q136.732 668.543 139.788 673.149 Q142.867 677.733 142.867 686.483 Q142.867 695.209 139.788 699.816 Q136.732 704.399 130.922 704.399 Q125.112 704.399 122.033 699.816 Q118.978 695.209 118.978 686.483 Q118.978 677.733 122.033 673.149 Q125.112 668.543 130.922 668.543 Z" fill="#000000" fill-rule="nonzero" fill-opacity="1" /><path clip-path="url(#clip430)" d="M82.1494 527.098 L111.825 527.098 L111.825 531.033 L82.1494 531.033 L82.1494 527.098 Z" fill="#000000" fill-rule="nonzero" fill-opacity="1" /><path clip-path="url(#clip430)" d="M121.964 509.367 L140.32 509.367 L140.32 513.302 L126.246 513.302 L126.246 521.774 Q127.265 521.427 128.283 521.265 Q129.302 521.08 130.32 521.08 Q136.107 521.08 139.487 524.251 Q142.867 527.422 142.867 532.839 Q142.867 538.418 139.394 541.52 Q135.922 544.598 129.603 544.598 Q127.427 544.598 125.158 544.228 Q122.913 543.857 120.506 543.117 L120.506 538.418 Q122.589 539.552 124.811 540.108 Q127.033 540.663 129.51 540.663 Q133.515 540.663 135.853 538.557 Q138.191 536.45 138.191 532.839 Q138.191 529.228 135.853 527.121 Q133.515 525.015 129.51 525.015 Q127.635 525.015 125.76 525.432 Q123.908 525.848 121.964 526.728 L121.964 509.367 Z" fill="#000000" fill-rule="nonzero" fill-opacity="1" /><path clip-path="url(#clip430)" d="M130.922 352.645 Q127.311 352.645 125.482 356.209 Q123.677 359.751 123.677 366.881 Q123.677 373.987 125.482 377.552 Q127.311 381.094 130.922 381.094 Q134.556 381.094 136.362 377.552 Q138.191 373.987 138.191 366.881 Q138.191 359.751 136.362 356.209 Q134.556 352.645 130.922 352.645 M130.922 348.941 Q136.732 348.941 139.788 353.547 Q142.867 358.131 142.867 366.881 Q142.867 375.608 139.788 380.214 Q136.732 384.797 130.922 384.797 Q125.112 384.797 122.033 380.214 Q118.978 375.608 118.978 366.881 Q118.978 358.131 122.033 353.547 Q125.112 348.941 130.922 348.941 Z" fill="#000000" fill-rule="nonzero" fill-opacity="1" /><path clip-path="url(#clip430)" d="M121.964 189.765 L140.32 189.765 L140.32 193.7 L126.246 193.7 L126.246 202.172 Q127.265 201.825 128.283 201.663 Q129.302 201.478 130.32 201.478 Q136.107 201.478 139.487 204.649 Q142.867 207.82 142.867 213.237 Q142.867 218.816 139.394 221.918 Q135.922 224.996 129.603 224.996 Q127.427 224.996 125.158 224.626 Q122.913 224.256 120.506 223.515 L120.506 218.816 Q122.589 219.95 124.811 220.506 Q127.033 221.061 129.51 221.061 Q133.515 221.061 135.853 218.955 Q138.191 216.848 138.191 213.237 Q138.191 209.626 135.853 207.52 Q133.515 205.413 129.51 205.413 Q127.635 205.413 125.76 205.83 Q123.908 206.246 121.964 207.126 L121.964 189.765 Z" fill="#000000" fill-rule="nonzero" fill-opacity="1" /><path clip-path="url(#clip430)" d="M91.5706 60.5889 L99.2095 60.5889 L99.2095 34.2233 L90.8993 35.89 L90.8993 31.6308 L99.1632 29.9641 L103.839 29.9641 L103.839 60.5889 L111.478 60.5889 L111.478 64.5241 L91.5706 64.5241 L91.5706 60.5889 Z" fill="#000000" fill-rule="nonzero" fill-opacity="1" /><path clip-path="url(#clip430)" d="M130.922 33.0428 Q127.311 33.0428 125.482 36.6076 Q123.677 40.1492 123.677 47.2788 Q123.677 54.3853 125.482 57.9501 Q127.311 61.4917 130.922 61.4917 Q134.556 61.4917 136.362 57.9501 Q138.191 54.3853 138.191 47.2788 Q138.191 40.1492 136.362 36.6076 Q134.556 33.0428 130.922 33.0428 M130.922 29.3391 Q136.732 29.3391 139.788 33.9456 Q142.867 38.5289 142.867 47.2788 Q142.867 56.0056 139.788 60.6121 Q136.732 65.1954 130.922 65.1954 Q125.112 65.1954 122.033 60.6121 Q118.978 56.0056 118.978 47.2788 Q118.978 38.5289 122.033 33.9456 Q125.112 29.3391 130.922 29.3391 Z" fill="#000000" fill-rule="nonzero" fill-opacity="1" /><polyline clip-path="url(#clip432)" style="stroke:#009af9; stroke-linecap:round; stroke-linejoin:round; stroke-width:4; stroke-opacity:1; fill:none" points="240.392,334.886 242.445,335.597 244.498,344.281 246.55,345.634 248.603,345.373 250.656,342.253 252.709,354.046 254.762,312.522 256.815,310.739 258.868,307.532 260.921,357.026 262.974,360.08 265.027,357.849 267.079,357.504 269.132,360.201 271.185,361.933 273.238,363.345 275.291,360.278 277.344,357.243 279.397,356.682 281.45,356.692 283.503,372.105 285.555,380.018 287.608,385.563 289.661,385.567 291.714,386.664 293.767,392.334 295.82,425.751 297.873,425.437 299.926,428.136 301.979,395.954 304.031,383.734 306.084,355.893 308.137,356.564 310.19,357.635 312.243,355.439 314.296,351.245 316.349,350.436 318.402,360.899 320.455,358.62 322.507,360.103 324.56,361.456 326.613,361.686 328.666,360.175 330.719,375.42 332.772,375.463 334.825,376.115 336.878,373.914 338.931,369.259 340.984,369.444 343.036,368.301 345.089,367.839 347.142,367.344 349.195,331.812 351.248,330.19 353.301,324.784 355.354,334.802 357.407,335.026 359.46,334.921 361.512,335.132 363.565,335.138 365.618,335.167 367.671,336.201 369.724,336.701 371.777,328.378 373.83,327.533 375.883,334.371 377.936,334.279 379.988,336.655 382.041,356.156 384.094,357.162 386.147,357.136 388.2,357.084 390.253,358.258 392.306,361.475 394.359,363.117 396.412,364.077 398.464,363.805 400.517,363.899 402.57,369.788 404.623,351.598 406.676,351.411 408.729,351.416 410.782,355.421 412.835,370.774 414.888,370.686 416.94,369.026 418.993,378.082 421.046,380.502 423.099,375.461 425.152,375.07 427.205,353.627 429.258,356.7 431.311,353.375 433.364,352.785 435.417,345.452 437.469,356.906 439.522,359.786 441.575,359.979 443.628,368.248 445.681,367.537 447.734,398.762 449.787,400.103 451.84,400.799 453.893,389.839 455.945,388.638 457.998,384.124 460.051,383.819 462.104,383.548 464.157,383.202 466.21,381.985 468.263,383.926 470.316,383.634 472.369,386.634 474.421,387.527 476.474,383.065 478.527,380.062 480.58,374.928 482.633,373.646 484.686,373.686 486.739,373.76 488.792,339.581 490.845,343.636 492.897,310.271 494.95,310.877 497.003,308.366 499.056,307.558 501.109,303.963 503.162,304.241 505.215,305.637 507.268,311.458 509.321,322.636 511.374,322.572 513.426,317.948 515.479,348.033 517.532,361.71 519.585,370.525 521.638,366.912 523.691,360.365 525.744,360.313 527.797,364.931 529.85,355.76 531.902,362.696 533.955,372.734 536.008,375.182 538.061,372.723 540.114,372.751 542.167,359.369 544.22,365.84 546.273,356.732 548.326,360.465 550.378,348.662 552.431,348.207 554.484,351.105 556.537,372.87 558.59,376.147 560.643,372.866 562.696,371.754 564.749,372.041 566.802,396.494 568.854,418.363 570.907,387.087 572.96,421.812 575.013,396.394 577.066,391.351 579.119,366.643 581.172,374.417 583.225,370.383 585.278,372.122 587.331,372.581 589.383,366.535 591.436,366.254 593.489,366.254 595.542,359.181 597.595,359.611 599.648,359.207 601.701,360.879 603.754,390.658 605.807,386.648 607.859,387.67 609.912,381.387 611.965,352.826 614.018,349.554 616.071,353.066 618.124,351.861 620.177,355.757 622.23,355.923 624.283,357.129 626.335,364.88 628.388,364.757 630.441,364.757 632.494,364.754 634.547,392.295 636.6,386.387 638.653,385.404 640.706,382.231 642.759,389.03 644.811,365.233 646.864,356.629 648.917,357.514 650.97,356.571 653.023,348.649 655.076,345.554 657.129,328.647 659.182,398.75 661.235,389.063 663.288,356.302 665.34,355.696 667.393,349.054 669.446,360.982 671.499,361.595 673.552,356.232 675.605,357.569 677.658,356.971 679.711,371.651 681.764,374.704 683.816,378.554 685.869,420.504 687.922,415.154 689.975,415.559 692.028,415.628 694.081,394.596 696.134,383.892 698.187,396.117 700.24,389.646 702.292,389.158 704.345,387.295 706.398,379.091 708.451,385.255 710.504,363.213 712.557,363.171 714.61,363.423 716.663,346.157 718.716,346.174 720.768,354.183 722.821,354.096 724.874,373.396 726.927,351.299 728.98,351.756 731.033,352.238 733.086,352.223 735.139,352.133 737.192,352.564 739.245,359.925 741.297,358.822 743.35,359.058 745.403,360.467 747.456,360.365 749.509,361.727 751.562,361.563 753.615,362.404 755.668,322.807 757.721,321.017 759.773,322.836 761.826,328.056 763.879,328.704 765.932,328.728 767.985,322.911 770.038,322.796 772.091,322.918 774.144,321.334 776.197,321.415 778.249,322.752 780.302,322.848 782.355,324.347 784.408,350.646 786.461,348.981 788.514,347.74 790.567,307.118 792.62,366.608 794.673,374.033 796.725,377.198 798.778,393.733 800.831,399.19 802.884,391.949 804.937,393.108 806.99,422.662 809.043,423.425 811.096,405.845 813.149,365.771 815.202,301.038 817.254,303.396 819.307,370.828 821.36,323.399 823.413,195.458 825.466,220.676 827.519,266.414 829.572,253.176 831.625,253.617 833.678,252.939 835.73,246.625 837.783,260.733 839.836,272.334 841.889,272.5 843.942,273.492 845.995,276.498 848.048,322.797 850.101,325.391 852.154,368.171 854.206,371.854 856.259,344.788 858.312,355.467 860.365,348.193 862.418,344.502 864.471,344.949 866.524,345.699 868.577,344.69 870.63,344.327 872.682,337.043 874.735,340.781 876.788,336.725 878.841,341.938 880.894,318.299 882.947,311.811 885,370.986 887.053,376.794 889.106,373.087 891.159,376.761 893.211,376.551 895.264,376.63 897.317,366.519 899.37,363.083 901.423,363.059 903.476,366.276 905.529,410.95 907.582,409.336 909.635,406.438 911.687,407.032 913.74,392.568 915.793,388.476 917.846,387.044 919.899,388.669 921.952,371.514 924.005,366.774 926.058,335.852 928.111,292.257 930.163,288.307 932.216,290.357 934.269,325.339 936.322,321.941 938.375,320.713 940.428,313.087 942.481,310.795 944.534,329.515 946.587,331.631 948.639,340.148 950.692,340.155 952.745,341.434 954.798,337.86 956.851,337.79 958.904,345.198 960.957,345.018 963.01,347.865 965.063,357.876 967.116,359.461 969.168,359.495 971.221,361.615 973.274,359.819 975.327,359.763 977.38,359.692 979.433,359.73 981.486,332.784 983.539,324.232 985.592,329.173 987.644,313.528 989.697,317.558 991.75,316.675 993.803,312.984 995.856,383.449 997.909,383.592 999.962,351.54 1002.01,353.278 1004.07,350.956 1006.12,363.434 1008.17,363.439 1010.23,387.507 1012.28,395.445 1014.33,395.811 1016.38,405.287 1018.44,410.301 1020.49,410.057 1022.54,409.843 1024.6,409.874 1026.65,367.124 1028.7,367.088 1030.76,350.53 1032.81,348.506 1034.86,348.862 1036.91,349.742 1038.97,357.553 1041.02,354.416 1043.07,342.829 1045.13,336.768 1047.18,344.104 1049.23,365.032 1051.28,354.055 1053.34,354.095 1055.39,378.953 1057.44,385.22 1059.5,415.74 1061.55,413.647 1063.6,406.711 1065.65,404.456 1067.71,405.114 1069.76,405.906 1071.81,396.511 1073.87,396.954 1075.92,389.549 1077.97,390.651 1080.02,379.145 1082.08,379.679 1084.13,367.611 1086.18,367.405 1088.24,367.927 1090.29,343.466 1092.34,339.813 1094.39,346.616 1096.45,373.673 1098.5,373.847 1100.55,373.885 1102.61,377.836 1104.66,385.461 1106.71,383.042 1108.77,385.361 1110.82,385.449 1112.87,374.824 1114.92,374.764 1116.98,374.486 1119.03,374.729 1121.08,363.054 1123.14,379.911 1125.19,381.592 1127.24,321.569 1129.29,325.093 1131.35,317.903 1133.4,323.049 1135.45,328.095 1137.51,324.959 1139.56,324.59 1141.61,320.331 1143.66,317.735 1145.72,334.568 1147.77,335.522 1149.82,321.051 1151.88,339.045 1153.93,339.979 1155.98,339.699 1158.03,333.36 1160.09,313.595 1162.14,313.907 1164.19,313.906 1166.25,320.368 1168.3,317.142 1170.35,318.967 1172.4,327.374 1174.46,343.849 1176.51,347.151 1178.56,347.073 1180.62,365.212 1182.67,363.602 1184.72,363.598 1186.77,363.618 1188.83,362.294 1190.88,353.918 1192.93,355.664 1194.99,354.832 1197.04,354.898 1199.09,355.199 1201.15,348.111 1203.2,348.063 1205.25,347.929 1207.3,348.009 1209.36,348.873 1211.41,347.764 1213.46,339.532 1215.52,361.551 1217.57,364.1 1219.62,398.873 1221.67,367.181 1223.73,333.675 1225.78,322.756 1227.83,379.09 1229.89,387.174 1231.94,384.605 1233.99,382.329 1236.04,390.089 1238.1,389.822 1240.15,380.265 1242.2,382.411 1244.26,387.732 1246.31,320.97 1248.36,319.021 1250.41,316.78 1252.47,373.224 1254.52,364.787 1256.57,365.353 1258.63,356.86 1260.68,356.496 1262.73,358.462 1264.78,383.543 1266.84,383.159 1268.89,365.621 1270.94,366.385 1273,361.466 1275.05,372.479 1277.1,371.9 1279.16,369.916 1281.21,372.528 1283.26,374.948 1285.31,375.566 1287.37,372.985 1289.42,369.605 1291.47,369.641 1293.53,354.458 1295.58,348.011 1297.63,347.95 1299.68,344.241 1301.74,342.811 1303.79,342.79 1305.84,342.628 1307.9,342.556 1309.95,342.102 1312,338.867 1314.05,338.887 1316.11,338.986 1318.16,336.457 1320.21,335.904 1322.27,330.066 1324.32,330.843 1326.37,330.724 1328.42,330.689 1330.48,330.707 1332.53,330.59 1334.58,333.288 1336.64,346.213 1338.69,347.924 1340.74,348.256 1342.79,348.006 1344.85,352.617 1346.9,352.564 1348.95,361.441 1351.01,370.224 1353.06,365.065 1355.11,373.447 1357.16,375.066 1359.22,375.025 1361.27,390.881 1363.32,393.109 1365.38,409.137 1367.43,408.728 1369.48,385.075 1371.54,385.176 1373.59,385.249 1375.64,385.168 1377.69,380.506 1379.75,381.61 1381.8,382.036 1383.85,373.606 1385.91,382.563 1387.96,385.693 1390.01,385.687 1392.06,385.497 1394.12,384.237 1396.17,388.484 1398.22,388.96 1400.28,388.185 1402.33,387.385 1404.38,377.346 1406.43,382.156 1408.49,381.986 1410.54,381.698 1412.59,381.694 1414.65,382.205 1416.7,382.204 1418.75,382.202 1420.8,380.304 1422.86,373.979 1424.91,375.324 1426.96,372.576 1429.02,370.258 1431.07,370.858 1433.12,365.897 1435.17,365.828 1437.23,366.582 1439.28,364.533 1441.33,364.48 1443.39,365.526 1445.44,367.002 1447.49,364.707 1449.55,361.992 1451.6,362.386 1453.65,377.084 1455.7,377.073 1457.76,373.377 1459.81,391.435 1461.86,391.768 1463.92,370.326 1465.97,365.558 1468.02,384.42 1470.07,382.609 1472.13,382.765 1474.18,377.655 1476.23,350.781 1478.29,350.463 1480.34,350.337 1482.39,348.602 1484.44,344.904 1486.5,346.174 1488.55,346.211 1490.6,361.781 1492.66,373.535 1494.71,374.228 1496.76,373.801 1498.81,374.882 1500.87,372.703 1502.92,379.961 1504.97,380.026 1507.03,379.735 1509.08,380.004 1511.13,379.316 1513.18,380.022 1515.24,380.678 1517.29,380.302 1519.34,365.256 1521.4,364.071 1523.45,363.08 1525.5,378.391 1527.55,344.613 1529.61,345.421 1531.66,345.481 1533.71,345.537 1535.77,347.682 1537.82,344.752 1539.87,344.736 1541.93,344.554 1543.98,344.556 1546.03,346.955 1548.08,345.263 1550.14,350.625 1552.19,372.516 1554.24,372.036 1556.3,372.031 1558.35,372.132 1560.4,371.708 1562.45,376.029 1564.51,376.929 1566.56,369.113 1568.61,369.11 1570.67,369.626 1572.72,369.609 1574.77,336.645 1576.82,367.036 1578.88,370.773 1580.93,359.961 1582.98,364.019 1585.04,364.123 1587.09,364.143 1589.14,362.281 1591.19,366.693 1593.25,366.618 1595.3,367.037 1597.35,364.633 1599.41,361.464 1601.46,360.543 1603.51,357.908 1605.56,353.613 1607.62,348.835 1609.67,348.807 1611.72,350.881 1613.78,350.78 1615.83,386.031 1617.88,378.555 1619.94,409.852 1621.99,414.815 1624.04,415.999 1626.09,415.424 1628.15,415.488 1630.2,412.163 1632.25,409.508 1634.31,411.531 1636.36,411.915 1638.41,410.107 1640.46,410.093 1642.52,400.965 1644.57,390.809 1646.62,391.891 1648.68,390.841 1650.73,344.588 1652.78,420.606 1654.83,433.272 1656.89,431.554 1658.94,436.931 1660.99,438.349 1663.05,423.909 1665.1,423.472 1667.15,402.224 1669.2,382.155 1671.26,382.059 1673.31,382.852 1675.36,382.146 1677.42,385.442 1679.47,385.857 1681.52,398.192 1683.57,380.663 1685.63,380.758 1687.68,387.237 1689.73,386.986 1691.79,388.419 1693.84,387.304 1695.89,385.911 1697.94,385.838 1700,385.834 1702.05,389.722 1704.1,393.3 1706.16,393.343 1708.21,394.866 1710.26,394.989 1712.32,395.428 1714.37,362.492 1716.42,360.944 1718.47,361.221 1720.53,376.756 1722.58,376.851 1724.63,377.005 1726.69,380.418 1728.74,380.322 1730.79,382.847 1732.84,354.236 1734.9,361.344 1736.95,364.737 1739,349.565 1741.06,349.155 1743.11,348.203 1745.16,349.442 1747.21,349.326 1749.27,350.652 1751.32,348.382 1753.37,355.746 1755.43,355.025 1757.48,353.688 1759.53,343.58 1761.58,343.024 1763.64,342.864 1765.69,340.26 1767.74,340.346 1769.8,340.166 1771.85,333.835 1773.9,333.977 1775.95,337.676 1778.01,358.465 1780.06,355.197 1782.11,356.444 1784.17,354.734 1786.22,354.834 1788.27,355.047 1790.33,356.219 1792.38,355.895 1794.43,355.749 1796.48,355.953 1798.54,356.663 1800.59,357.002 1802.64,366.593 1804.7,366.568 1806.75,367.059 1808.8,383.107 1810.85,370.486 1812.91,370.384 1814.96,413.821 1817.01,328.149 1819.07,308.409 1821.12,313.79 1823.17,247.971 1825.22,250.876 1827.28,248.962 1829.33,412.069 1831.38,410.178 1833.44,420.269 1835.49,297.477 1837.54,308.373 1839.59,390.003 1841.65,407.266 1843.7,400.946 1845.75,423.453 1847.81,466.542 1849.86,475.006 1851.91,476.046 1853.96,476.214 1856.02,478.808 1858.07,474.393 1860.12,376.363 1862.18,369.923 1864.23,370.553 1866.28,243.614 1868.34,314.473 1870.39,310.414 1872.44,329.45 1874.49,329.101 1876.55,324.694 1878.6,197.512 1880.65,205.663 1882.71,339.591 1884.76,338.797 1886.81,300.138 1888.86,299.624 1890.92,301.487 1892.97,310.863 1895.02,301.762 1897.08,256.189 1899.13,261.954 1901.18,253.202 1903.23,250.495 1905.29,242.56 1907.34,236.096 1909.39,230.671 1911.45,153.725 1913.5,125.044 1915.55,207.049 1917.6,88.7531 1919.66,153.43 1921.71,120.27 1923.76,359.316 1925.82,359.157 1927.87,359.706 1929.92,416.725 1931.97,292.385 1934.03,288.395 1936.08,462.242 1938.13,434.215 1940.19,459.876 1942.24,354.274 1944.29,317.07 1946.34,253.993 1948.4,211.681 1950.45,389.103 1952.5,393.428 1954.56,393.281 1956.61,397.432 1958.66,382.824 1960.72,382.388 1962.77,388.278 1964.82,355.063 1966.87,379.053 1968.93,362.406 1970.98,360.344 1973.03,370.579 1975.09,371.886 1977.14,339.136 1979.19,335.543 1981.24,335.531 1983.3,345.768 1985.35,340.471 1987.4,311.036 1989.46,306.953 1991.51,328.806 1993.56,332.612 1995.61,340.483 1997.67,357.527 1999.72,376.222 2001.77,277.604 2003.83,329.893 2005.88,315.999 2007.93,320.562 2009.98,327.597 2012.04,328.146 2014.09,326.672 2016.14,334.538 2018.2,339.944 2020.25,327.658 2022.3,337.772 2024.35,338.427 2026.41,338.472 2028.46,352.701 2030.51,357.373 2032.57,290.772 2034.62,319.339 2036.67,318.692 2038.73,341.417 2040.78,349.751 2042.83,382.228 2044.88,380.484 2046.94,383.071 2048.99,380.676 2051.04,405.023 2053.1,402.84 2055.15,390.857 2057.2,420.645 2059.25,420.078 2061.31,424.98 2063.36,410.643 2065.41,403.371 2067.47,406.854 2069.52,421.223 2071.57,421.362 2073.62,434.796 2075.68,431.234 2077.73,430.267 2079.78,430.5 2081.84,449.332 2083.89,449.11 2085.94,393.896 2087.99,393.572 2090.05,393.787 2092.1,393.402 2094.15,411.757 2096.21,399.597 2098.26,415.043 2100.31,427.653 2102.36,437.703 2104.42,450.145 2106.47,447.829 2108.52,450.722 2110.58,458.183 2112.63,457.45 2114.68,457.539 2116.73,462.873 2118.79,341.264 2120.84,346.464 2122.89,345.856 2124.95,345.763 2127,339.417 2129.05,340.738 2131.11,337.335 2133.16,333.774 2135.21,337.214 2137.26,337.818 2139.32,341.286 2141.37,409.898 2143.42,397.327 2145.48,396.03 2147.53,399.186 2149.58,398.501 2151.63,399.706 2153.69,384.356 2155.74,377.483 2157.79,376.566 2159.85,377.395 2161.9,366.523 2163.95,357.474 2166,357.117 2168.06,366.551 2170.11,356.068 2172.16,353.284 2174.22,353.277 2176.27,353.553 2178.32,376.48 2180.37,380.821 2182.43,365.921 2184.48,366.628 2186.53,366.671 2188.59,375.673 2190.64,375.933 2192.69,396.603 2194.74,372.925 2196.8,371.327 2198.85,370.981 2200.9,397 2202.96,383.422 2205.01,318.857 2207.06,324.92 2209.12,358.073 2211.17,354.343 2213.22,318.074 2215.27,387.09 2217.33,384.891 2219.38,385.083 2221.43,306.011 2223.49,306.214 2225.54,356.694 2227.59,304.906 2229.64,332.934 2231.7,308.802 2233.75,309.377 2235.8,309.477 2237.86,296.851 2239.91,342.543 2241.96,346.641 2244.01,353.906 2246.07,354.24 2248.12,354.378 2250.17,359.183 2252.23,358.535 2254.28,360.146 2256.33,359.888 2258.38,313.897 2260.44,317.284 2262.49,328.541 2264.54,322.966 2266.6,318.5 2268.65,313.485 2270.7,349.03 2272.75,411.182 2274.81,423.328 2276.86,411.531 2278.91,412.638 2280.97,417.669 2283.02,417.705 2285.07,417.812 2287.12,418.658 2289.18,418.671 2291.23,418.512 "/>
<path clip-path="url(#clip430)" d="M251.33 172.231 L548.024 172.231 L548.024 68.5509 L251.33 68.5509  Z" fill="#ffffff" fill-rule="evenodd" fill-opacity="1"/>
<polyline clip-path="url(#clip430)" style="stroke:#000000; stroke-linecap:round; stroke-linejoin:round; stroke-width:4; stroke-opacity:1; fill:none" points="251.33,172.231 548.024,172.231 548.024,68.5509 251.33,68.5509 251.33,172.231 "/>
<polyline clip-path="url(#clip430)" style="stroke:#009af9; stroke-linecap:round; stroke-linejoin:round; stroke-width:4; stroke-opacity:1; fill:none" points="275.484,120.391 420.41,120.391 "/>
<path clip-path="url(#clip430)" d="M444.564 103.111 L449.24 103.111 L449.24 133.736 L466.069 133.736 L466.069 137.671 L444.564 137.671 L444.564 103.111 Z" fill="#000000" fill-rule="nonzero" fill-opacity="1" /><path clip-path="url(#clip430)" d="M491.694 104.245 L491.694 108.805 Q489.032 107.532 486.67 106.907 Q484.309 106.282 482.11 106.282 Q478.291 106.282 476.208 107.764 Q474.147 109.245 474.147 111.977 Q474.147 114.268 475.513 115.449 Q476.902 116.606 480.745 117.324 L483.569 117.902 Q488.8 118.898 491.277 121.421 Q493.777 123.921 493.777 128.134 Q493.777 133.157 490.397 135.75 Q487.041 138.342 480.536 138.342 Q478.083 138.342 475.305 137.787 Q472.55 137.231 469.587 136.143 L469.587 131.328 Q472.434 132.926 475.166 133.736 Q477.897 134.546 480.536 134.546 Q484.541 134.546 486.717 132.972 Q488.893 131.398 488.893 128.481 Q488.893 125.935 487.319 124.5 Q485.768 123.064 482.203 122.347 L479.356 121.791 Q474.124 120.75 471.786 118.527 Q469.448 116.305 469.448 112.347 Q469.448 107.764 472.666 105.125 Q475.907 102.486 481.578 102.486 Q484.008 102.486 486.532 102.926 Q489.055 103.366 491.694 104.245 Z" fill="#000000" fill-rule="nonzero" fill-opacity="1" /><path clip-path="url(#clip430)" d="M521.786 104.245 L521.786 108.805 Q519.124 107.532 516.763 106.907 Q514.402 106.282 512.203 106.282 Q508.383 106.282 506.3 107.764 Q504.24 109.245 504.24 111.977 Q504.24 114.268 505.606 115.449 Q506.994 116.606 510.837 117.324 L513.661 117.902 Q518.893 118.898 521.369 121.421 Q523.869 123.921 523.869 128.134 Q523.869 133.157 520.49 135.75 Q517.133 138.342 510.629 138.342 Q508.175 138.342 505.397 137.787 Q502.643 137.231 499.68 136.143 L499.68 131.328 Q502.527 132.926 505.258 133.736 Q507.99 134.546 510.629 134.546 Q514.633 134.546 516.809 132.972 Q518.985 131.398 518.985 128.481 Q518.985 125.935 517.411 124.5 Q515.86 123.064 512.295 122.347 L509.448 121.791 Q504.217 120.75 501.879 118.527 Q499.541 116.305 499.541 112.347 Q499.541 107.764 502.758 105.125 Q505.999 102.486 511.67 102.486 Q514.101 102.486 516.624 102.926 Q519.147 103.366 521.786 104.245 Z" fill="#000000" fill-rule="nonzero" fill-opacity="1" /><path clip-path="url(#clip430)" d="M178.867 1486.45 L2352.76 1486.45 L2352.76 847.244 L178.867 847.244  Z" fill="#ffffff" fill-rule="evenodd" fill-opacity="1"/>
<defs>
  <clipPath id="clip433">
    <rect x="178" y="847" width="2175" height="640"/>
  </clipPath>
</defs>
<polyline clip-path="url(#clip433)" style="stroke:#000000; stroke-linecap:round; stroke-linejoin:round; stroke-width:2; stroke-opacity:0.1; fill:none" points="238.339,1486.45 238.339,847.244 "/>
<polyline clip-path="url(#clip433)" style="stroke:#000000; stroke-linecap:round; stroke-linejoin:round; stroke-width:2; stroke-opacity:0.1; fill:none" points="751.562,1486.45 751.562,847.244 "/>
<polyline clip-path="url(#clip433)" style="stroke:#000000; stroke-linecap:round; stroke-linejoin:round; stroke-width:2; stroke-opacity:0.1; fill:none" points="1264.78,1486.45 1264.78,847.244 "/>
<polyline clip-path="url(#clip433)" style="stroke:#000000; stroke-linecap:round; stroke-linejoin:round; stroke-width:2; stroke-opacity:0.1; fill:none" points="1778.01,1486.45 1778.01,847.244 "/>
<polyline clip-path="url(#clip433)" style="stroke:#000000; stroke-linecap:round; stroke-linejoin:round; stroke-width:2; stroke-opacity:0.1; fill:none" points="2291.23,1486.45 2291.23,847.244 "/>
<polyline clip-path="url(#clip433)" style="stroke:#000000; stroke-linecap:round; stroke-linejoin:round; stroke-width:2; stroke-opacity:0.1; fill:none" points="178.867,1486.45 2352.76,1486.45 "/>
<polyline clip-path="url(#clip433)" style="stroke:#000000; stroke-linecap:round; stroke-linejoin:round; stroke-width:2; stroke-opacity:0.1; fill:none" points="178.867,1326.65 2352.76,1326.65 "/>
<polyline clip-path="url(#clip433)" style="stroke:#000000; stroke-linecap:round; stroke-linejoin:round; stroke-width:2; stroke-opacity:0.1; fill:none" points="178.867,1166.85 2352.76,1166.85 "/>
<polyline clip-path="url(#clip433)" style="stroke:#000000; stroke-linecap:round; stroke-linejoin:round; stroke-width:2; stroke-opacity:0.1; fill:none" points="178.867,1007.05 2352.76,1007.05 "/>
<polyline clip-path="url(#clip433)" style="stroke:#000000; stroke-linecap:round; stroke-linejoin:round; stroke-width:2; stroke-opacity:0.1; fill:none" points="178.867,847.244 2352.76,847.244 "/>
<polyline clip-path="url(#clip430)" style="stroke:#000000; stroke-linecap:round; stroke-linejoin:round; stroke-width:4; stroke-opacity:1; fill:none" points="178.867,1486.45 2352.76,1486.45 "/>
<polyline clip-path="url(#clip430)" style="stroke:#000000; stroke-linecap:round; stroke-linejoin:round; stroke-width:4; stroke-opacity:1; fill:none" points="238.339,1486.45 238.339,1467.55 "/>
<polyline clip-path="url(#clip430)" style="stroke:#000000; stroke-linecap:round; stroke-linejoin:round; stroke-width:4; stroke-opacity:1; fill:none" points="751.562,1486.45 751.562,1467.55 "/>
<polyline clip-path="url(#clip430)" style="stroke:#000000; stroke-linecap:round; stroke-linejoin:round; stroke-width:4; stroke-opacity:1; fill:none" points="1264.78,1486.45 1264.78,1467.55 "/>
<polyline clip-path="url(#clip430)" style="stroke:#000000; stroke-linecap:round; stroke-linejoin:round; stroke-width:4; stroke-opacity:1; fill:none" points="1778.01,1486.45 1778.01,1467.55 "/>
<polyline clip-path="url(#clip430)" style="stroke:#000000; stroke-linecap:round; stroke-linejoin:round; stroke-width:4; stroke-opacity:1; fill:none" points="2291.23,1486.45 2291.23,1467.55 "/>
<path clip-path="url(#clip430)" d="M238.339 1517.37 Q234.728 1517.37 232.899 1520.93 Q231.094 1524.47 231.094 1531.6 Q231.094 1538.71 232.899 1542.27 Q234.728 1545.82 238.339 1545.82 Q241.973 1545.82 243.779 1542.27 Q245.607 1538.71 245.607 1531.6 Q245.607 1524.47 243.779 1520.93 Q241.973 1517.37 238.339 1517.37 M238.339 1513.66 Q244.149 1513.66 247.205 1518.27 Q250.283 1522.85 250.283 1531.6 Q250.283 1540.33 247.205 1544.94 Q244.149 1549.52 238.339 1549.52 Q232.529 1549.52 229.45 1544.94 Q226.395 1540.33 226.395 1531.6 Q226.395 1522.85 229.45 1518.27 Q232.529 1513.66 238.339 1513.66 Z" fill="#000000" fill-rule="nonzero" fill-opacity="1" /><path clip-path="url(#clip430)" d="M715.254 1544.91 L731.574 1544.91 L731.574 1548.85 L709.629 1548.85 L709.629 1544.91 Q712.291 1542.16 716.875 1537.53 Q721.481 1532.88 722.662 1531.53 Q724.907 1529.01 725.787 1527.27 Q726.689 1525.51 726.689 1523.82 Q726.689 1521.07 724.745 1519.33 Q722.824 1517.6 719.722 1517.6 Q717.523 1517.6 715.069 1518.36 Q712.638 1519.13 709.861 1520.68 L709.861 1515.95 Q712.685 1514.82 715.138 1514.24 Q717.592 1513.66 719.629 1513.66 Q725 1513.66 728.194 1516.35 Q731.388 1519.03 731.388 1523.52 Q731.388 1525.65 730.578 1527.57 Q729.791 1529.47 727.685 1532.07 Q727.106 1532.74 724.004 1535.95 Q720.902 1539.15 715.254 1544.91 Z" fill="#000000" fill-rule="nonzero" fill-opacity="1" /><path clip-path="url(#clip430)" d="M741.435 1514.29 L759.791 1514.29 L759.791 1518.22 L745.717 1518.22 L745.717 1526.7 Q746.736 1526.35 747.754 1526.19 Q748.773 1526 749.791 1526 Q755.578 1526 758.958 1529.17 Q762.337 1532.34 762.337 1537.76 Q762.337 1543.34 758.865 1546.44 Q755.393 1549.52 749.073 1549.52 Q746.898 1549.52 744.629 1549.15 Q742.384 1548.78 739.976 1548.04 L739.976 1543.34 Q742.06 1544.47 744.282 1545.03 Q746.504 1545.58 748.981 1545.58 Q752.985 1545.58 755.323 1543.48 Q757.661 1541.37 757.661 1537.76 Q757.661 1534.15 755.323 1532.04 Q752.985 1529.94 748.981 1529.94 Q747.106 1529.94 745.231 1530.35 Q743.379 1530.77 741.435 1531.65 L741.435 1514.29 Z" fill="#000000" fill-rule="nonzero" fill-opacity="1" /><path clip-path="url(#clip430)" d="M781.55 1517.37 Q777.939 1517.37 776.11 1520.93 Q774.305 1524.47 774.305 1531.6 Q774.305 1538.71 776.11 1542.27 Q777.939 1545.82 781.55 1545.82 Q785.184 1545.82 786.99 1542.27 Q788.819 1538.71 788.819 1531.6 Q788.819 1524.47 786.99 1520.93 Q785.184 1517.37 781.55 1517.37 M781.55 1513.66 Q787.36 1513.66 790.416 1518.27 Q793.495 1522.85 793.495 1531.6 Q793.495 1540.33 790.416 1544.94 Q787.36 1549.52 781.55 1549.52 Q775.74 1549.52 772.661 1544.94 Q769.606 1540.33 769.606 1531.6 Q769.606 1522.85 772.661 1518.27 Q775.74 1513.66 781.55 1513.66 Z" fill="#000000" fill-rule="nonzero" fill-opacity="1" /><path clip-path="url(#clip430)" d="M1224.4 1514.29 L1242.76 1514.29 L1242.76 1518.22 L1228.69 1518.22 L1228.69 1526.7 Q1229.7 1526.35 1230.72 1526.19 Q1231.74 1526 1232.76 1526 Q1238.55 1526 1241.93 1529.17 Q1245.31 1532.34 1245.31 1537.76 Q1245.31 1543.34 1241.83 1546.44 Q1238.36 1549.52 1232.04 1549.52 Q1229.87 1549.52 1227.6 1549.15 Q1225.35 1548.78 1222.94 1548.04 L1222.94 1543.34 Q1225.03 1544.47 1227.25 1545.03 Q1229.47 1545.58 1231.95 1545.58 Q1235.95 1545.58 1238.29 1543.48 Q1240.63 1541.37 1240.63 1537.76 Q1240.63 1534.15 1238.29 1532.04 Q1235.95 1529.94 1231.95 1529.94 Q1230.07 1529.94 1228.2 1530.35 Q1226.35 1530.77 1224.4 1531.65 L1224.4 1514.29 Z" fill="#000000" fill-rule="nonzero" fill-opacity="1" /><path clip-path="url(#clip430)" d="M1264.52 1517.37 Q1260.91 1517.37 1259.08 1520.93 Q1257.27 1524.47 1257.27 1531.6 Q1257.27 1538.71 1259.08 1542.27 Q1260.91 1545.82 1264.52 1545.82 Q1268.15 1545.82 1269.96 1542.27 Q1271.79 1538.71 1271.79 1531.6 Q1271.79 1524.47 1269.96 1520.93 Q1268.15 1517.37 1264.52 1517.37 M1264.52 1513.66 Q1270.33 1513.66 1273.38 1518.27 Q1276.46 1522.85 1276.46 1531.6 Q1276.46 1540.33 1273.38 1544.94 Q1270.33 1549.52 1264.52 1549.52 Q1258.71 1549.52 1255.63 1544.94 Q1252.57 1540.33 1252.57 1531.6 Q1252.57 1522.85 1255.63 1518.27 Q1258.71 1513.66 1264.52 1513.66 Z" fill="#000000" fill-rule="nonzero" fill-opacity="1" /><path clip-path="url(#clip430)" d="M1294.68 1517.37 Q1291.07 1517.37 1289.24 1520.93 Q1287.44 1524.47 1287.44 1531.6 Q1287.44 1538.71 1289.24 1542.27 Q1291.07 1545.82 1294.68 1545.82 Q1298.31 1545.82 1300.12 1542.27 Q1301.95 1538.71 1301.95 1531.6 Q1301.95 1524.47 1300.12 1520.93 Q1298.31 1517.37 1294.68 1517.37 M1294.68 1513.66 Q1300.49 1513.66 1303.55 1518.27 Q1306.62 1522.85 1306.62 1531.6 Q1306.62 1540.33 1303.55 1544.94 Q1300.49 1549.52 1294.68 1549.52 Q1288.87 1549.52 1285.79 1544.94 Q1282.74 1540.33 1282.74 1531.6 Q1282.74 1522.85 1285.79 1518.27 Q1288.87 1513.66 1294.68 1513.66 Z" fill="#000000" fill-rule="nonzero" fill-opacity="1" /><path clip-path="url(#clip430)" d="M1736.28 1514.29 L1758.51 1514.29 L1758.51 1516.28 L1745.96 1548.85 L1741.08 1548.85 L1752.88 1518.22 L1736.28 1518.22 L1736.28 1514.29 Z" fill="#000000" fill-rule="nonzero" fill-opacity="1" /><path clip-path="url(#clip430)" d="M1767.67 1514.29 L1786.03 1514.29 L1786.03 1518.22 L1771.95 1518.22 L1771.95 1526.7 Q1772.97 1526.35 1773.99 1526.19 Q1775.01 1526 1776.03 1526 Q1781.82 1526 1785.2 1529.17 Q1788.57 1532.34 1788.57 1537.76 Q1788.57 1543.34 1785.1 1546.44 Q1781.63 1549.52 1775.31 1549.52 Q1773.14 1549.52 1770.87 1549.15 Q1768.62 1548.78 1766.21 1548.04 L1766.21 1543.34 Q1768.3 1544.47 1770.52 1545.03 Q1772.74 1545.58 1775.22 1545.58 Q1779.22 1545.58 1781.56 1543.48 Q1783.9 1541.37 1783.9 1537.76 Q1783.9 1534.15 1781.56 1532.04 Q1779.22 1529.94 1775.22 1529.94 Q1773.34 1529.94 1771.47 1530.35 Q1769.62 1530.77 1767.67 1531.65 L1767.67 1514.29 Z" fill="#000000" fill-rule="nonzero" fill-opacity="1" /><path clip-path="url(#clip430)" d="M1807.79 1517.37 Q1804.18 1517.37 1802.35 1520.93 Q1800.54 1524.47 1800.54 1531.6 Q1800.54 1538.71 1802.35 1542.27 Q1804.18 1545.82 1807.79 1545.82 Q1811.42 1545.82 1813.23 1542.27 Q1815.06 1538.71 1815.06 1531.6 Q1815.06 1524.47 1813.23 1520.93 Q1811.42 1517.37 1807.79 1517.37 M1807.79 1513.66 Q1813.6 1513.66 1816.65 1518.27 Q1819.73 1522.85 1819.73 1531.6 Q1819.73 1540.33 1816.65 1544.94 Q1813.6 1549.52 1807.79 1549.52 Q1801.98 1549.52 1798.9 1544.94 Q1795.84 1540.33 1795.84 1531.6 Q1795.84 1522.85 1798.9 1518.27 Q1801.98 1513.66 1807.79 1513.66 Z" fill="#000000" fill-rule="nonzero" fill-opacity="1" /><path clip-path="url(#clip430)" d="M2235.76 1544.91 L2243.4 1544.91 L2243.4 1518.55 L2235.09 1520.21 L2235.09 1515.95 L2243.35 1514.29 L2248.02 1514.29 L2248.02 1544.91 L2255.66 1544.91 L2255.66 1548.85 L2235.76 1548.85 L2235.76 1544.91 Z" fill="#000000" fill-rule="nonzero" fill-opacity="1" /><path clip-path="url(#clip430)" d="M2275.11 1517.37 Q2271.5 1517.37 2269.67 1520.93 Q2267.86 1524.47 2267.86 1531.6 Q2267.86 1538.71 2269.67 1542.27 Q2271.5 1545.82 2275.11 1545.82 Q2278.74 1545.82 2280.55 1542.27 Q2282.38 1538.71 2282.38 1531.6 Q2282.38 1524.47 2280.55 1520.93 Q2278.74 1517.37 2275.11 1517.37 M2275.11 1513.66 Q2280.92 1513.66 2283.97 1518.27 Q2287.05 1522.85 2287.05 1531.6 Q2287.05 1540.33 2283.97 1544.94 Q2280.92 1549.52 2275.11 1549.52 Q2269.3 1549.52 2266.22 1544.94 Q2263.16 1540.33 2263.16 1531.6 Q2263.16 1522.85 2266.22 1518.27 Q2269.3 1513.66 2275.11 1513.66 Z" fill="#000000" fill-rule="nonzero" fill-opacity="1" /><path clip-path="url(#clip430)" d="M2305.27 1517.37 Q2301.66 1517.37 2299.83 1520.93 Q2298.02 1524.47 2298.02 1531.6 Q2298.02 1538.71 2299.83 1542.27 Q2301.66 1545.82 2305.27 1545.82 Q2308.9 1545.82 2310.71 1542.27 Q2312.54 1538.71 2312.54 1531.6 Q2312.54 1524.47 2310.71 1520.93 Q2308.9 1517.37 2305.27 1517.37 M2305.27 1513.66 Q2311.08 1513.66 2314.14 1518.27 Q2317.21 1522.85 2317.21 1531.6 Q2317.21 1540.33 2314.14 1544.94 Q2311.08 1549.52 2305.27 1549.52 Q2299.46 1549.52 2296.38 1544.94 Q2293.33 1540.33 2293.33 1531.6 Q2293.33 1522.85 2296.38 1518.27 Q2299.46 1513.66 2305.27 1513.66 Z" fill="#000000" fill-rule="nonzero" fill-opacity="1" /><path clip-path="url(#clip430)" d="M2335.43 1517.37 Q2331.82 1517.37 2329.99 1520.93 Q2328.19 1524.47 2328.19 1531.6 Q2328.19 1538.71 2329.99 1542.27 Q2331.82 1545.82 2335.43 1545.82 Q2339.07 1545.82 2340.87 1542.27 Q2342.7 1538.71 2342.7 1531.6 Q2342.7 1524.47 2340.87 1520.93 Q2339.07 1517.37 2335.43 1517.37 M2335.43 1513.66 Q2341.24 1513.66 2344.3 1518.27 Q2347.38 1522.85 2347.38 1531.6 Q2347.38 1540.33 2344.3 1544.94 Q2341.24 1549.52 2335.43 1549.52 Q2329.62 1549.52 2326.54 1544.94 Q2323.49 1540.33 2323.49 1531.6 Q2323.49 1522.85 2326.54 1518.27 Q2329.62 1513.66 2335.43 1513.66 Z" fill="#000000" fill-rule="nonzero" fill-opacity="1" /><polyline clip-path="url(#clip430)" style="stroke:#000000; stroke-linecap:round; stroke-linejoin:round; stroke-width:4; stroke-opacity:1; fill:none" points="178.867,1486.45 178.867,847.244 "/>
<polyline clip-path="url(#clip430)" style="stroke:#000000; stroke-linecap:round; stroke-linejoin:round; stroke-width:4; stroke-opacity:1; fill:none" points="178.867,1486.45 197.764,1486.45 "/>
<polyline clip-path="url(#clip430)" style="stroke:#000000; stroke-linecap:round; stroke-linejoin:round; stroke-width:4; stroke-opacity:1; fill:none" points="178.867,1326.65 197.764,1326.65 "/>
<polyline clip-path="url(#clip430)" style="stroke:#000000; stroke-linecap:round; stroke-linejoin:round; stroke-width:4; stroke-opacity:1; fill:none" points="178.867,1166.85 197.764,1166.85 "/>
<polyline clip-path="url(#clip430)" style="stroke:#000000; stroke-linecap:round; stroke-linejoin:round; stroke-width:4; stroke-opacity:1; fill:none" points="178.867,1007.05 197.764,1007.05 "/>
<polyline clip-path="url(#clip430)" style="stroke:#000000; stroke-linecap:round; stroke-linejoin:round; stroke-width:4; stroke-opacity:1; fill:none" points="178.867,847.244 197.764,847.244 "/>
<path clip-path="url(#clip430)" d="M50.9921 1486.9 L80.6679 1486.9 L80.6679 1490.83 L50.9921 1490.83 L50.9921 1486.9 Z" fill="#000000" fill-rule="nonzero" fill-opacity="1" /><path clip-path="url(#clip430)" d="M91.5706 1499.79 L99.2095 1499.79 L99.2095 1473.43 L90.8993 1475.09 L90.8993 1470.83 L99.1632 1469.17 L103.839 1469.17 L103.839 1499.79 L111.478 1499.79 L111.478 1503.73 L91.5706 1503.73 L91.5706 1499.79 Z" fill="#000000" fill-rule="nonzero" fill-opacity="1" /><path clip-path="url(#clip430)" d="M130.922 1472.25 Q127.311 1472.25 125.482 1475.81 Q123.677 1479.35 123.677 1486.48 Q123.677 1493.59 125.482 1497.15 Q127.311 1500.7 130.922 1500.7 Q134.556 1500.7 136.362 1497.15 Q138.191 1493.59 138.191 1486.48 Q138.191 1479.35 136.362 1475.81 Q134.556 1472.25 130.922 1472.25 M130.922 1468.54 Q136.732 1468.54 139.788 1473.15 Q142.867 1477.73 142.867 1486.48 Q142.867 1495.21 139.788 1499.82 Q136.732 1504.4 130.922 1504.4 Q125.112 1504.4 122.033 1499.82 Q118.978 1495.21 118.978 1486.48 Q118.978 1477.73 122.033 1473.15 Q125.112 1468.54 130.922 1468.54 Z" fill="#000000" fill-rule="nonzero" fill-opacity="1" /><path clip-path="url(#clip430)" d="M82.1494 1327.1 L111.825 1327.1 L111.825 1331.03 L82.1494 1331.03 L82.1494 1327.1 Z" fill="#000000" fill-rule="nonzero" fill-opacity="1" /><path clip-path="url(#clip430)" d="M121.964 1309.37 L140.32 1309.37 L140.32 1313.3 L126.246 1313.3 L126.246 1321.77 Q127.265 1321.43 128.283 1321.27 Q129.302 1321.08 130.32 1321.08 Q136.107 1321.08 139.487 1324.25 Q142.867 1327.42 142.867 1332.84 Q142.867 1338.42 139.394 1341.52 Q135.922 1344.6 129.603 1344.6 Q127.427 1344.6 125.158 1344.23 Q122.913 1343.86 120.506 1343.12 L120.506 1338.42 Q122.589 1339.55 124.811 1340.11 Q127.033 1340.66 129.51 1340.66 Q133.515 1340.66 135.853 1338.56 Q138.191 1336.45 138.191 1332.84 Q138.191 1329.23 135.853 1327.12 Q133.515 1325.01 129.51 1325.01 Q127.635 1325.01 125.76 1325.43 Q123.908 1325.85 121.964 1326.73 L121.964 1309.37 Z" fill="#000000" fill-rule="nonzero" fill-opacity="1" /><path clip-path="url(#clip430)" d="M130.922 1152.64 Q127.311 1152.64 125.482 1156.21 Q123.677 1159.75 123.677 1166.88 Q123.677 1173.99 125.482 1177.55 Q127.311 1181.09 130.922 1181.09 Q134.556 1181.09 136.362 1177.55 Q138.191 1173.99 138.191 1166.88 Q138.191 1159.75 136.362 1156.21 Q134.556 1152.64 130.922 1152.64 M130.922 1148.94 Q136.732 1148.94 139.788 1153.55 Q142.867 1158.13 142.867 1166.88 Q142.867 1175.61 139.788 1180.21 Q136.732 1184.8 130.922 1184.8 Q125.112 1184.8 122.033 1180.21 Q118.978 1175.61 118.978 1166.88 Q118.978 1158.13 122.033 1153.55 Q125.112 1148.94 130.922 1148.94 Z" fill="#000000" fill-rule="nonzero" fill-opacity="1" /><path clip-path="url(#clip430)" d="M121.964 989.765 L140.32 989.765 L140.32 993.7 L126.246 993.7 L126.246 1002.17 Q127.265 1001.83 128.283 1001.66 Q129.302 1001.48 130.32 1001.48 Q136.107 1001.48 139.487 1004.65 Q142.867 1007.82 142.867 1013.24 Q142.867 1018.82 139.394 1021.92 Q135.922 1025 129.603 1025 Q127.427 1025 125.158 1024.63 Q122.913 1024.26 120.506 1023.51 L120.506 1018.82 Q122.589 1019.95 124.811 1020.51 Q127.033 1021.06 129.51 1021.06 Q133.515 1021.06 135.853 1018.95 Q138.191 1016.85 138.191 1013.24 Q138.191 1009.63 135.853 1007.52 Q133.515 1005.41 129.51 1005.41 Q127.635 1005.41 125.76 1005.83 Q123.908 1006.25 121.964 1007.13 L121.964 989.765 Z" fill="#000000" fill-rule="nonzero" fill-opacity="1" /><path clip-path="url(#clip430)" d="M91.5706 860.589 L99.2095 860.589 L99.2095 834.223 L90.8993 835.89 L90.8993 831.631 L99.1632 829.964 L103.839 829.964 L103.839 860.589 L111.478 860.589 L111.478 864.524 L91.5706 864.524 L91.5706 860.589 Z" fill="#000000" fill-rule="nonzero" fill-opacity="1" /><path clip-path="url(#clip430)" d="M130.922 833.043 Q127.311 833.043 125.482 836.608 Q123.677 840.149 123.677 847.279 Q123.677 854.385 125.482 857.95 Q127.311 861.492 130.922 861.492 Q134.556 861.492 136.362 857.95 Q138.191 854.385 138.191 847.279 Q138.191 840.149 136.362 836.608 Q134.556 833.043 130.922 833.043 M130.922 829.339 Q136.732 829.339 139.788 833.946 Q142.867 838.529 142.867 847.279 Q142.867 856.006 139.788 860.612 Q136.732 865.195 130.922 865.195 Q125.112 865.195 122.033 860.612 Q118.978 856.006 118.978 847.279 Q118.978 838.529 122.033 833.946 Q125.112 829.339 130.922 829.339 Z" fill="#000000" fill-rule="nonzero" fill-opacity="1" /><polyline clip-path="url(#clip433)" style="stroke:#009af9; stroke-linecap:round; stroke-linejoin:round; stroke-width:4; stroke-opacity:1; fill:none" points="240.392,1134.89 242.445,1147.74 244.498,1024.26 246.55,1223.32 248.603,1184.65 250.656,1151.88 252.709,1143.03 254.762,1143.94 256.815,1162.49 258.868,1295.99 260.921,918.237 262.974,1037.37 265.027,1099.4 267.079,1200.66 269.132,1205.14 271.185,1097.76 273.238,1220.68 275.291,1153.59 277.344,1186.22 279.397,1287.14 281.45,1266.75 283.503,1158.46 285.555,1203.86 287.608,1262.63 289.661,1082.54 291.714,702.323 293.767,-430.089 295.82,5083.9 297.873,2843.45 299.926,1209.74 301.979,1190.51 304.031,2434.5 306.084,547.645 308.137,520.329 310.19,1633.13 312.243,1136.69 314.296,1261.25 316.349,1187.72 318.402,1135.56 320.455,1210.19 322.507,1194.22 324.56,1155.92 326.613,1200.35 328.666,1217.35 330.719,1136.02 332.772,1203.13 334.825,1165.04 336.878,1157.17 338.931,983.649 340.984,1050.09 343.036,1129.18 345.089,1114.12 347.142,1068.88 349.195,1260.75 351.248,1170.9 353.301,1204.32 355.354,961.094 357.407,1348.96 359.46,989.012 361.512,1142.44 363.565,1097.09 365.618,1279.36 367.671,1164.95 369.724,1123.64 371.777,1009.16 373.83,1091.86 375.883,1148.99 377.936,1138.64 379.988,1169.13 382.041,1171.96 384.094,1136.95 386.147,1222.59 388.2,1184.7 390.253,1170.96 392.306,1228.18 394.359,1074.88 396.412,814.323 398.464,1025.97 400.517,1177.9 402.57,1196.99 404.623,1119.01 406.676,1451.42 408.729,1539.45 410.782,1059.27 412.835,1415.91 414.888,1081.7 416.94,1100.87 418.993,1092.8 421.046,1196.64 423.099,1147.33 425.152,1190.61 427.205,1177.39 429.258,1137.74 431.311,1136.21 433.364,1126.1 435.417,1162.2 437.469,1179.43 439.522,1160.27 441.575,1183.59 443.628,1131.98 445.681,1214.12 447.734,1119.66 449.787,1193.34 451.84,1167.93 453.893,1167.72 455.945,1166.92 457.998,1135.06 460.051,1198.78 462.104,1157.8 464.157,1162.73 466.21,1192.73 468.263,1084.27 470.316,1074.02 472.369,1114.09 474.421,1228.74 476.474,1181.79 478.527,1186.26 480.58,1187.87 482.633,1134.38 484.686,1029.51 486.739,1192.17 488.792,1116.66 490.845,1184.69 492.897,1185.72 494.95,1144.65 497.003,1175.44 499.056,1186.95 501.109,1150.08 503.162,1178.49 505.215,960.307 507.268,1031.29 509.321,1174.16 511.374,1150.13 513.426,1041.6 515.479,1204.91 517.532,1177.56 519.585,1161.75 521.638,1190 523.691,1485.65 525.744,1227.3 527.797,1127.06 529.85,1222.28 531.902,1065.97 533.955,923.985 536.008,1108.69 538.061,1219.22 540.114,1147.69 542.167,1109.27 544.22,1219.76 546.273,1153.68 548.326,1157.02 550.378,1177.41 552.431,1392.87 554.484,1169.69 556.537,1376.59 558.59,1355.33 560.643,1600.75 562.696,1205.63 564.749,1187.86 566.802,1133 568.854,1129.59 570.907,1123.48 572.96,1285.71 575.013,1154.65 577.066,1210.6 579.119,1131.99 581.172,1028.7 583.225,1191.64 585.278,1221.03 587.331,1188.63 589.383,1182.17 591.436,1197.21 593.489,1156.54 595.542,1104.41 597.595,1148.23 599.648,1138.24 601.701,950.798 603.754,1437.69 605.807,1207.61 607.859,1181.67 609.912,1148.55 611.965,1157.58 614.018,1211.01 616.071,1095.76 618.124,1136.17 620.177,1211.77 622.23,1139.04 624.283,1189.56 626.335,1146.49 628.388,1184.27 630.441,1167.33 632.494,1270.9 634.547,1274.37 636.6,1241.1 638.653,1260.86 640.706,1201.02 642.759,1022.79 644.811,1205.05 646.864,874.875 648.917,1281.36 650.97,1251.99 653.023,1121.38 655.076,1194.7 657.129,1203.18 659.182,1329.19 661.235,1130.03 663.288,1242.06 665.34,1089.19 667.393,1187.83 669.446,1174 671.499,1156.99 673.552,1145.82 675.605,1005.19 677.658,1155.81 679.711,1171.26 681.764,1160.22 683.816,1120.66 685.869,1085.72 687.922,1183.35 689.975,1174.67 692.028,1107.62 694.081,1069.48 696.134,965.734 698.187,1196.73 700.24,1268.95 702.292,928.714 704.345,1306.42 706.398,1115.5 708.451,1241.02 710.504,1197.77 712.557,1190.73 714.61,1168.23 716.663,1152.26 718.716,1177.8 720.768,1131.86 722.821,1195.4 724.874,1377.82 726.927,1245.5 728.98,1242.22 731.033,1176.47 733.086,1149.43 735.139,1144.99 737.192,1536.47 739.245,1543.63 741.297,1580.99 743.35,1095.13 745.403,1082.44 747.456,1267.49 749.509,1130.47 751.562,1213.03 753.615,1215.31 755.668,1186.2 757.721,1117.31 759.773,1239.83 761.826,1226.24 763.879,1127.38 765.932,1150.62 767.985,1150.12 770.038,1189.43 772.091,1157.49 774.144,1140.47 776.197,1179.1 778.249,1202.53 780.302,1162.83 782.355,1174.91 784.408,1163.14 786.461,1173.36 788.514,1151.01 790.567,1138.43 792.62,1135.65 794.673,1151.63 796.725,1190.07 798.778,1148.53 800.831,1092.96 802.884,1305.54 804.937,1014.56 806.99,992.417 809.043,1103.04 811.096,962.842 813.149,1411.43 815.202,1338.87 817.254,1246.08 819.307,1341.72 821.36,1439.82 823.413,1932.38 825.466,2481.48 827.519,1180.45 829.572,1138.49 831.625,1233.52 833.678,1177.99 835.73,1204.67 837.783,1178.25 839.836,1135.75 841.889,1179.38 843.942,1148.43 845.995,1149.74 848.048,1172.03 850.101,1173.3 852.154,1232.56 854.206,1136.64 856.259,999.055 858.312,1161.86 860.365,1184.89 862.418,1169.17 864.471,1210.79 866.524,1134.34 868.577,1180.14 870.63,1163.53 872.682,1139.18 874.735,1274.51 876.788,1051.99 878.841,1339.24 880.894,1236.75 882.947,1156.09 885,1141.89 887.053,1194.88 889.106,1136.52 891.159,1147.16 893.211,1157.13 895.264,1151.46 897.317,1136.38 899.37,1197.96 901.423,1199.83 903.476,1224.58 905.529,1305.22 907.582,1133.08 909.635,1385.61 911.687,1192.75 913.74,1141.75 915.793,1165.83 917.846,1168.58 919.899,1196.98 921.952,1137.83 924.005,1109.71 926.058,1071.64 928.111,1285.9 930.163,1244.99 932.216,1153.73 934.269,1174.45 936.322,1102.58 938.375,1101.97 940.428,1179.44 942.481,1113.87 944.534,1188.43 946.587,1210.22 948.639,1129.67 950.692,1250.38 952.745,1136 954.798,1145.04 956.851,1181.82 958.904,1167.78 960.957,1165.47 963.01,1160.64 965.063,1169.06 967.116,1153.9 969.168,1181.86 971.221,1093.68 973.274,1126.01 975.327,1238.9 977.38,1081.62 979.433,1192.22 981.486,1176.12 983.539,1156.72 985.592,1353.35 987.644,1142.77 989.697,1139.17 991.75,1198.37 993.803,1099.92 995.856,1108.49 997.909,1125.58 999.962,1222.46 1002.01,1141.17 1004.07,1114.78 1006.12,988.176 1008.17,1145.4 1010.23,1098.18 1012.28,1164.97 1014.33,1261.23 1016.38,1287.7 1018.44,1186.92 1020.49,1094.03 1022.54,1200.75 1024.6,1125.42 1026.65,1485.28 1028.7,712.233 1030.76,2176.22 1032.81,3135.98 1034.86,-216.018 1036.91,-3347.61 1038.97,3181.58 1041.02,1439.99 1043.07,1290.6 1045.13,1126.68 1047.18,1067 1049.23,1132.39 1051.28,1139.31 1053.34,1176.26 1055.39,1157.02 1057.44,1219.51 1059.5,1013.12 1061.55,1343.15 1063.6,1426.37 1065.65,1206.73 1067.71,1764.79 1069.76,1310 1071.81,1073.8 1073.87,1165.93 1075.92,1157.49 1077.97,1168.5 1080.02,1168.02 1082.08,1171.85 1084.13,1150.7 1086.18,1355.32 1088.24,1192.26 1090.29,1129.3 1092.34,1212.15 1094.39,1234.71 1096.45,1212.77 1098.5,1192.01 1100.55,1147.57 1102.61,1157.28 1104.66,1187.55 1106.71,1125.14 1108.77,1385.51 1110.82,452.908 1112.87,1815.27 1114.92,1146.78 1116.98,1162.36 1119.03,1143.69 1121.08,1149.57 1123.14,1173.74 1125.19,1231.37 1127.24,1188.46 1129.29,1192.59 1131.35,1137.78 1133.4,1136.74 1135.45,1248.36 1137.51,1200.33 1139.56,1112.67 1141.61,1126.52 1143.66,1123.72 1145.72,1131.19 1147.77,1170.91 1149.82,1165.61 1151.88,1104.02 1153.93,1068.81 1155.98,569.579 1158.03,-210.004 1160.09,1022.64 1162.14,1336.62 1164.19,1177.27 1166.25,1219.15 1168.3,1300.96 1170.35,872.568 1172.4,1280.8 1174.46,1193.62 1176.51,1154.55 1178.56,1164.2 1180.62,1173.19 1182.67,1168.91 1184.72,1176.57 1186.77,1200.21 1188.83,1266.9 1190.88,1154.6 1192.93,1155.99 1194.99,1185.51 1197.04,1194.24 1199.09,1163.57 1201.15,1161.85 1203.2,1186.49 1205.25,1214.82 1207.3,1172.05 1209.36,1151.4 1211.41,1257.44 1213.46,1174.16 1215.52,1171.4 1217.57,1190.6 1219.62,1133.13 1221.67,1138.21 1223.73,1165.05 1225.78,1153.35 1227.83,1204.04 1229.89,1036.67 1231.94,1277.84 1233.99,1229.31 1236.04,1198.32 1238.1,1145.25 1240.15,1182.51 1242.2,1145.64 1244.26,1163.96 1246.31,1180.74 1248.36,1137.93 1250.41,1225.02 1252.47,1186.51 1254.52,1127.16 1256.57,1234.41 1258.63,1540.24 1260.68,968.942 1262.73,1235.11 1264.78,1167.71 1266.84,1163.64 1268.89,1136.67 1270.94,1137.5 1273,1150.97 1275.05,1161.99 1277.1,1222.23 1279.16,1134.41 1281.21,1195.74 1283.26,1213.84 1285.31,1180.44 1287.37,1152.2 1289.42,1211.65 1291.47,1151.08 1293.53,1206.92 1295.58,1220.74 1297.63,1110.71 1299.68,1176.75 1301.74,1193.54 1303.79,1153.42 1305.84,1162.42 1307.9,1221.49 1309.95,1157.21 1312,1199.59 1314.05,1163.18 1316.11,1153.07 1318.16,1153.43 1320.21,1161.8 1322.27,1188 1324.32,1137.78 1326.37,1236.83 1328.42,1280.46 1330.48,1170.78 1332.53,1171.15 1334.58,1168.2 1336.64,1147.25 1338.69,1134.74 1340.74,1247.2 1342.79,1171.43 1344.85,1135.3 1346.9,1172.95 1348.95,1179.96 1351.01,1158.16 1353.06,893.641 1355.11,811.783 1357.16,1351.75 1359.22,1342.95 1361.27,1205.07 1363.32,1124.28 1365.38,1001.04 1367.43,1285.66 1369.48,1060.33 1371.54,1182.82 1373.59,1233.4 1375.64,1074.35 1377.69,1312.58 1379.75,1125.01 1381.8,1109.57 1383.85,1145.84 1385.91,1153.65 1387.96,1162.26 1390.01,1169.47 1392.06,1181.12 1394.12,1245.77 1396.17,1085.26 1398.22,1176.25 1400.28,1162.1 1402.33,1240.91 1404.38,1165.7 1406.43,1187.05 1408.49,1149.04 1410.54,1148.94 1412.59,1311.6 1414.65,1116.29 1416.7,904.055 1418.75,1150.71 1420.8,1196.21 1422.86,1160.47 1424.91,1159.92 1426.96,1143.98 1429.02,1222.5 1431.07,1269.55 1433.12,997.697 1435.17,996.185 1437.23,1156.52 1439.28,1156.4 1441.33,1148.2 1443.39,1161.11 1445.44,1123.68 1447.49,1400.78 1449.55,1215.82 1451.6,1024.05 1453.65,961.878 1455.7,1124.72 1457.76,1170.66 1459.81,1181.73 1461.86,1086.84 1463.92,988.102 1465.97,835.763 1468.02,1780.36 1470.07,979.534 1472.13,1249.76 1474.18,1201.66 1476.23,1227.48 1478.29,1300.07 1480.34,1610.07 1482.39,1025.3 1484.44,844.321 1486.5,819.949 1488.55,1113.75 1490.6,1277.44 1492.66,1275.97 1494.71,1166.06 1496.76,1168.38 1498.81,1262.26 1500.87,1351.47 1502.92,896.284 1504.97,886.252 1507.03,1139.7 1509.08,1140.03 1511.13,1167.11 1513.18,1154 1515.24,1192.37 1517.29,1173.36 1519.34,1156.19 1521.4,1187.45 1523.45,1214.7 1525.5,1147.38 1527.55,1146.81 1529.61,1047.04 1531.66,1140.89 1533.71,1133.66 1535.77,1126.27 1537.82,1138.99 1539.87,1153.2 1541.93,1067.72 1543.98,1165.4 1546.03,1175.23 1548.08,1856.57 1550.14,608.052 1552.19,1278.4 1554.24,1374.48 1556.3,-988.971 1558.35,1184.72 1560.4,1062.87 1562.45,1175.89 1564.51,1143.67 1566.56,1182.95 1568.61,1215.39 1570.67,1211.56 1572.72,1147.36 1574.77,1188.3 1576.82,1143.48 1578.88,1205.92 1580.93,1096.8 1582.98,1234.93 1585.04,1183.72 1587.09,1149.11 1589.14,1085.53 1591.19,1140.44 1593.25,1180.51 1595.3,1181.24 1597.35,1170.76 1599.41,1192.48 1601.46,1168.34 1603.51,1163.43 1605.56,1011.07 1607.62,1134.02 1609.67,1151.89 1611.72,1156.02 1613.78,1181.02 1615.83,1173.07 1617.88,1260.82 1619.94,1181.73 1621.99,1351.49 1624.04,870.697 1626.09,1045.43 1628.15,1247.9 1630.2,1165.53 1632.25,1182.87 1634.31,1176.1 1636.36,1123.35 1638.41,1112.08 1640.46,1181.33 1642.52,1167.53 1644.57,1123.85 1646.62,1186.05 1648.68,1148.41 1650.73,1110.53 1652.78,903.497 1654.83,1404.84 1656.89,1292.28 1658.94,1140.29 1660.99,1144.94 1663.05,1202.58 1665.1,1086.37 1667.15,1117.62 1669.2,1069.01 1671.26,1156.42 1673.31,1248.54 1675.36,1150.58 1677.42,1242 1679.47,1379.55 1681.52,1182.49 1683.57,1163.73 1685.63,1183.92 1687.68,1149.52 1689.73,1079.69 1691.79,1137 1693.84,1140.44 1695.89,588.923 1697.94,1179.59 1700,1094.73 1702.05,1273.68 1704.1,1159.79 1706.16,1168.41 1708.21,1168.66 1710.26,1109.17 1712.32,1267.07 1714.37,1047.33 1716.42,1218.53 1718.47,1218.72 1720.53,1172.78 1722.58,1135.88 1724.63,1141.77 1726.69,1125.46 1728.74,1158.03 1730.79,1098.6 1732.84,1220.96 1734.9,1154.41 1736.95,1214.83 1739,1209.25 1741.06,1163.01 1743.11,1141.89 1745.16,1122.05 1747.21,1031.31 1749.27,1037.23 1751.32,1166.28 1753.37,1183.22 1755.43,1257.87 1757.48,1168.52 1759.53,1132.95 1761.58,1195.84 1763.64,1217.88 1765.69,1135.22 1767.74,1300.29 1769.8,1265.59 1771.85,1149.65 1773.9,1169.19 1775.95,1165.88 1778.01,1165.79 1780.06,1286.74 1782.11,1147.06 1784.17,1227.86 1786.22,1142.98 1788.27,1184.87 1790.33,1176.04 1792.38,1108.38 1794.43,1119.38 1796.48,1068.79 1798.54,1122.38 1800.59,1207.43 1802.64,1198.25 1804.7,1179.47 1806.75,1161.49 1808.8,1163.7 1810.85,1184.33 1812.91,1173.75 1814.96,1123.08 1817.01,1188.75 1819.07,1232.07 1821.12,1146.91 1823.17,1237.35 1825.22,1097.29 1827.28,1162.96 1829.33,1100.33 1831.38,1713.02 1833.44,1131.2 1835.49,1109.94 1837.54,1706.84 1839.59,937.327 1841.65,-763.78 1843.7,1035.91 1845.75,1103.34 1847.81,1276.08 1849.86,1167.04 1851.91,1156.22 1853.96,1094.62 1856.02,1200.56 1858.07,1190.29 1860.12,1182.47 1862.18,1179.67 1864.23,403.956 1866.28,-103.14 1868.34,2392.2 1870.39,-46.7105 1872.44,1451.74 1874.49,901.711 1876.55,1119.75 1878.6,1094.76 1880.65,1118.81 1882.71,1140.65 1884.76,1154.14 1886.81,1188.05 1888.86,1116.1 1890.92,1182.12 1892.97,1144.05 1895.02,1198.63 1897.08,1223.14 1899.13,1180.61 1901.18,1151.69 1903.23,1166.13 1905.29,1108.16 1907.34,1172.33 1909.39,1098.59 1911.45,1171.31 1913.5,1193.92 1915.55,1151.65 1917.6,1190.18 1919.66,1200.87 1921.71,1166.98 1923.76,1189.12 1925.82,1189.07 1927.87,1117.8 1929.92,1187.77 1931.97,1153.67 1934.03,1199.21 1936.08,1229.52 1938.13,236.247 1940.19,1025.75 1942.24,1436.37 1944.29,1210.15 1946.34,1303.96 1948.4,1062.87 1950.45,1186.09 1952.5,1180.06 1954.56,1189.98 1956.61,1154.34 1958.66,1160.9 1960.72,1156.75 1962.77,1174.14 1964.82,1161.03 1966.87,1142.83 1968.93,1103.35 1970.98,1169.89 1973.03,1164.98 1975.09,1168.92 1977.14,1128.44 1979.19,1127.76 1981.24,1136.12 1983.3,1178.42 1985.35,1138.76 1987.4,1208.27 1989.46,1146.57 1991.51,1151.24 1993.56,1167.58 1995.61,1136.02 1997.67,1203.29 1999.72,1109.95 2001.77,1169.99 2003.83,1174.03 2005.88,1156.29 2007.93,1230.55 2009.98,1151.13 2012.04,1156.47 2014.09,1176.36 2016.14,1167.34 2018.2,1160.41 2020.25,1000.96 2022.3,1172.78 2024.35,1162.12 2026.41,1174.35 2028.46,1175.04 2030.51,1193.88 2032.57,1183.81 2034.62,1146.62 2036.67,1147.27 2038.73,1153.65 2040.78,1209.97 2042.83,1142.1 2044.88,1158.9 2046.94,1179.01 2048.99,1179.46 2051.04,1171 2053.1,1160.85 2055.15,1204.79 2057.2,1233.23 2059.25,1153.23 2061.31,1168.27 2063.36,1184.66 2065.41,1208.93 2067.47,1229.01 2069.52,1338.08 2071.57,1101.58 2073.62,1183.9 2075.68,1151.43 2077.73,1190.12 2079.78,1197.83 2081.84,1133.62 2083.89,1169.86 2085.94,1169.88 2087.99,1184.15 2090.05,1135.86 2092.1,1181.91 2094.15,1206.75 2096.21,1190.2 2098.26,1161.53 2100.31,1139.16 2102.36,1178.9 2104.42,1179.54 2106.47,1119.05 2108.52,1188.65 2110.58,1211.68 2112.63,1198.15 2114.68,1252.19 2116.73,1052.21 2118.79,1159.58 2120.84,968.566 2122.89,1266.37 2124.95,1141.88 2127,1227.66 2129.05,1204.99 2131.11,1128.84 2133.16,1329.42 2135.21,1117.54 2137.26,1150.8 2139.32,1173.59 2141.37,1163.8 2143.42,1188.38 2145.48,1131.16 2147.53,1180.38 2149.58,1171.86 2151.63,1164.04 2153.69,1327.37 2155.74,1134.73 2157.79,1317.08 2159.85,1096.66 2161.9,1231.55 2163.95,1243.67 2166,1203.07 2168.06,1161.35 2170.11,1184.49 2172.16,1160.05 2174.22,1164.42 2176.27,1181.58 2178.32,1119.18 2180.37,1168.03 2182.43,1154.98 2184.48,1135.98 2186.53,1318.6 2188.59,971.254 2190.64,1298.09 2192.69,1277.99 2194.74,1129.42 2196.8,1151.9 2198.85,1181.55 2200.9,1177.81 2202.96,1817.4 2205.01,751.943 2207.06,1147.47 2209.12,1702.43 2211.17,1131.73 2213.22,1143.89 2215.27,1222.69 2217.33,1135.42 2219.38,1151.33 2221.43,1209.75 2223.49,1242.21 2225.54,1153.56 2227.59,1252.65 2229.64,2225.33 2231.7,2200.6 2233.75,167.512 2235.8,1478.5 2237.86,1635.24 2239.91,1009.43 2241.96,1025.27 2244.01,1273.97 2246.07,1178.44 2248.12,1182.13 2250.17,1152.35 2252.23,1208.37 2254.28,1243.76 2256.33,945.779 2258.38,1231.74 2260.44,1178.25 2262.49,1191.06 2264.54,1183.64 2266.6,1165.18 2268.65,1157.48 2270.7,1159.73 2272.75,1162.13 2274.81,780.361 2276.86,1247.76 2278.91,715.054 2280.97,1059.14 2283.02,1060.33 2285.07,2393.05 2287.12,807.208 2289.18,1139.73 2291.23,1140.56 "/>
<path clip-path="url(#clip430)" d="M1942.7 972.231 L2280.29 972.231 L2280.29 868.551 L1942.7 868.551  Z" fill="#ffffff" fill-rule="evenodd" fill-opacity="1"/>
<polyline clip-path="url(#clip430)" style="stroke:#000000; stroke-linecap:round; stroke-linejoin:round; stroke-width:4; stroke-opacity:1; fill:none" points="1942.7,972.231 2280.29,972.231 2280.29,868.551 1942.7,868.551 1942.7,972.231 "/>
<polyline clip-path="url(#clip430)" style="stroke:#009af9; stroke-linecap:round; stroke-linejoin:round; stroke-width:4; stroke-opacity:1; fill:none" points="1966.85,920.391 2111.78,920.391 "/>
<path clip-path="url(#clip430)" d="M2161.49 932.74 L2161.49 923.458 L2153.85 923.458 L2153.85 919.615 L2166.12 919.615 L2166.12 934.453 Q2163.41 936.375 2160.14 937.37 Q2156.88 938.342 2153.18 938.342 Q2145.07 938.342 2140.49 933.62 Q2135.93 928.875 2135.93 920.426 Q2135.93 911.953 2140.49 907.231 Q2145.07 902.486 2153.18 902.486 Q2156.56 902.486 2159.59 903.319 Q2162.64 904.153 2165.21 905.773 L2165.21 910.75 Q2162.62 908.551 2159.7 907.44 Q2156.79 906.328 2153.57 906.328 Q2147.23 906.328 2144.03 909.87 Q2140.86 913.412 2140.86 920.426 Q2140.86 927.416 2144.03 930.958 Q2147.23 934.5 2153.57 934.5 Q2156.05 934.5 2157.99 934.083 Q2159.94 933.643 2161.49 932.74 Z" fill="#000000" fill-rule="nonzero" fill-opacity="1" /><path clip-path="url(#clip430)" d="M2179.33 906.953 L2179.33 919.94 L2185.21 919.94 Q2188.48 919.94 2190.26 918.25 Q2192.04 916.56 2192.04 913.435 Q2192.04 910.333 2190.26 908.643 Q2188.48 906.953 2185.21 906.953 L2179.33 906.953 M2174.66 903.111 L2185.21 903.111 Q2191.02 903.111 2193.99 905.75 Q2196.97 908.365 2196.97 913.435 Q2196.97 918.551 2193.99 921.166 Q2191.02 923.782 2185.21 923.782 L2179.33 923.782 L2179.33 937.671 L2174.66 937.671 L2174.66 903.111 Z" fill="#000000" fill-rule="nonzero" fill-opacity="1" /><path clip-path="url(#clip430)" d="M2223.96 904.245 L2223.96 908.805 Q2221.3 907.532 2218.94 906.907 Q2216.58 906.282 2214.38 906.282 Q2210.56 906.282 2208.48 907.764 Q2206.42 909.245 2206.42 911.977 Q2206.42 914.268 2207.78 915.449 Q2209.17 916.606 2213.01 917.324 L2215.84 917.902 Q2221.07 918.898 2223.55 921.421 Q2226.05 923.921 2226.05 928.134 Q2226.05 933.157 2222.67 935.75 Q2219.31 938.342 2212.81 938.342 Q2210.35 938.342 2207.57 937.787 Q2204.82 937.231 2201.86 936.143 L2201.86 931.328 Q2204.7 932.926 2207.44 933.736 Q2210.17 934.546 2212.81 934.546 Q2216.81 934.546 2218.99 932.972 Q2221.16 931.398 2221.16 928.481 Q2221.16 925.935 2219.59 924.5 Q2218.04 923.064 2214.47 922.347 L2211.62 921.791 Q2206.39 920.75 2204.06 918.527 Q2201.72 916.305 2201.72 912.347 Q2201.72 907.764 2204.94 905.125 Q2208.18 902.486 2213.85 902.486 Q2216.28 902.486 2218.8 902.926 Q2221.32 903.366 2223.96 904.245 Z" fill="#000000" fill-rule="nonzero" fill-opacity="1" /><path clip-path="url(#clip430)" d="M2254.06 904.245 L2254.06 908.805 Q2251.39 907.532 2249.03 906.907 Q2246.67 906.282 2244.47 906.282 Q2240.65 906.282 2238.57 907.764 Q2236.51 909.245 2236.51 911.977 Q2236.51 914.268 2237.87 915.449 Q2239.26 916.606 2243.11 917.324 L2245.93 917.902 Q2251.16 918.898 2253.64 921.421 Q2256.14 923.921 2256.14 928.134 Q2256.14 933.157 2252.76 935.75 Q2249.4 938.342 2242.9 938.342 Q2240.44 938.342 2237.67 937.787 Q2234.91 937.231 2231.95 936.143 L2231.95 931.328 Q2234.8 932.926 2237.53 933.736 Q2240.26 934.546 2242.9 934.546 Q2246.9 934.546 2249.08 932.972 Q2251.25 931.398 2251.25 928.481 Q2251.25 925.935 2249.68 924.5 Q2248.13 923.064 2244.56 922.347 L2241.72 921.791 Q2236.49 920.75 2234.15 918.527 Q2231.81 916.305 2231.81 912.347 Q2231.81 907.764 2235.03 905.125 Q2238.27 902.486 2243.94 902.486 Q2246.37 902.486 2248.89 902.926 Q2251.42 903.366 2254.06 904.245 Z" fill="#000000" fill-rule="nonzero" fill-opacity="1" /></svg>
