<?xml version="1.0" encoding="utf-8"?>
<svg xmlns="http://www.w3.org/2000/svg" xmlns:xlink="http://www.w3.org/1999/xlink" width="600" height="400" viewBox="0 0 2400 1600">
<defs>
  <clipPath id="clip980">
    <rect x="0" y="0" width="2400" height="1600"/>
  </clipPath>
</defs>
<path clip-path="url(#clip980)" d="M0 1600 L2400 1600 L2400 0 L0 0  Z" fill="#ffffff" fill-rule="evenodd" fill-opacity="1"/>
<defs>
  <clipPath id="clip981">
    <rect x="210" y="47" width="2143" height="1377"/>
  </clipPath>
</defs>
<path clip-path="url(#clip980)" d="M178.867 686.448 L2352.76 686.448 L2352.76 47.2441 L178.867 47.2441  Z" fill="#ffffff" fill-rule="evenodd" fill-opacity="1"/>
<defs>
  <clipPath id="clip982">
    <rect x="178" y="47" width="2175" height="640"/>
  </clipPath>
</defs>
<polyline clip-path="url(#clip982)" style="stroke:#000000; stroke-linecap:round; stroke-linejoin:round; stroke-width:2; stroke-opacity:0.1; fill:none" points="238.339,686.448 238.339,47.2441 "/>
<polyline clip-path="url(#clip982)" style="stroke:#000000; stroke-linecap:round; stroke-linejoin:round; stroke-width:2; stroke-opacity:0.1; fill:none" points="751.562,686.448 751.562,47.2441 "/>
<polyline clip-path="url(#clip982)" style="stroke:#000000; stroke-linecap:round; stroke-linejoin:round; stroke-width:2; stroke-opacity:0.1; fill:none" points="1264.78,686.448 1264.78,47.2441 "/>
<polyline clip-path="url(#clip982)" style="stroke:#000000; stroke-linecap:round; stroke-linejoin:round; stroke-width:2; stroke-opacity:0.1; fill:none" points="1778.01,686.448 1778.01,47.2441 "/>
<polyline clip-path="url(#clip982)" style="stroke:#000000; stroke-linecap:round; stroke-linejoin:round; stroke-width:2; stroke-opacity:0.1; fill:none" points="2291.23,686.448 2291.23,47.2441 "/>
<polyline clip-path="url(#clip982)" style="stroke:#000000; stroke-linecap:round; stroke-linejoin:round; stroke-width:2; stroke-opacity:0.1; fill:none" points="178.867,686.448 2352.76,686.448 "/>
<polyline clip-path="url(#clip982)" style="stroke:#000000; stroke-linecap:round; stroke-linejoin:round; stroke-width:2; stroke-opacity:0.1; fill:none" points="178.867,526.647 2352.76,526.647 "/>
<polyline clip-path="url(#clip982)" style="stroke:#000000; stroke-linecap:round; stroke-linejoin:round; stroke-width:2; stroke-opacity:0.1; fill:none" points="178.867,366.846 2352.76,366.846 "/>
<polyline clip-path="url(#clip982)" style="stroke:#000000; stroke-linecap:round; stroke-linejoin:round; stroke-width:2; stroke-opacity:0.1; fill:none" points="178.867,207.045 2352.76,207.045 "/>
<polyline clip-path="url(#clip982)" style="stroke:#000000; stroke-linecap:round; stroke-linejoin:round; stroke-width:2; stroke-opacity:0.1; fill:none" points="178.867,47.2441 2352.76,47.2441 "/>
<polyline clip-path="url(#clip980)" style="stroke:#000000; stroke-linecap:round; stroke-linejoin:round; stroke-width:4; stroke-opacity:1; fill:none" points="178.867,686.448 2352.76,686.448 "/>
<polyline clip-path="url(#clip980)" style="stroke:#000000; stroke-linecap:round; stroke-linejoin:round; stroke-width:4; stroke-opacity:1; fill:none" points="238.339,686.448 238.339,667.55 "/>
<polyline clip-path="url(#clip980)" style="stroke:#000000; stroke-linecap:round; stroke-linejoin:round; stroke-width:4; stroke-opacity:1; fill:none" points="751.562,686.448 751.562,667.55 "/>
<polyline clip-path="url(#clip980)" style="stroke:#000000; stroke-linecap:round; stroke-linejoin:round; stroke-width:4; stroke-opacity:1; fill:none" points="1264.78,686.448 1264.78,667.55 "/>
<polyline clip-path="url(#clip980)" style="stroke:#000000; stroke-linecap:round; stroke-linejoin:round; stroke-width:4; stroke-opacity:1; fill:none" points="1778.01,686.448 1778.01,667.55 "/>
<polyline clip-path="url(#clip980)" style="stroke:#000000; stroke-linecap:round; stroke-linejoin:round; stroke-width:4; stroke-opacity:1; fill:none" points="2291.23,686.448 2291.23,667.55 "/>
<path clip-path="url(#clip980)" d="M238.339 717.367 Q234.728 717.367 232.899 720.931 Q231.094 724.473 231.094 731.603 Q231.094 738.709 232.899 742.274 Q234.728 745.815 238.339 745.815 Q241.973 745.815 243.779 742.274 Q245.607 738.709 245.607 731.603 Q245.607 724.473 243.779 720.931 Q241.973 717.367 238.339 717.367 M238.339 713.663 Q244.149 713.663 247.205 718.269 Q250.283 722.853 250.283 731.603 Q250.283 740.329 247.205 744.936 Q244.149 749.519 238.339 749.519 Q232.529 749.519 229.45 744.936 Q226.395 740.329 226.395 731.603 Q226.395 722.853 229.45 718.269 Q232.529 713.663 238.339 713.663 Z" fill="#000000" fill-rule="nonzero" fill-opacity="1" /><path clip-path="url(#clip980)" d="M715.254 744.913 L731.574 744.913 L731.574 748.848 L709.629 748.848 L709.629 744.913 Q712.291 742.158 716.875 737.528 Q721.481 732.876 722.662 731.533 Q724.907 729.01 725.787 727.274 Q726.689 725.515 726.689 723.825 Q726.689 721.07 724.745 719.334 Q722.824 717.598 719.722 717.598 Q717.523 717.598 715.069 718.362 Q712.638 719.126 709.861 720.677 L709.861 715.955 Q712.685 714.82 715.138 714.242 Q717.592 713.663 719.629 713.663 Q725 713.663 728.194 716.348 Q731.388 719.033 731.388 723.524 Q731.388 725.654 730.578 727.575 Q729.791 729.473 727.685 732.066 Q727.106 732.737 724.004 735.954 Q720.902 739.149 715.254 744.913 Z" fill="#000000" fill-rule="nonzero" fill-opacity="1" /><path clip-path="url(#clip980)" d="M741.435 714.288 L759.791 714.288 L759.791 718.223 L745.717 718.223 L745.717 726.695 Q746.736 726.348 747.754 726.186 Q748.773 726.001 749.791 726.001 Q755.578 726.001 758.958 729.172 Q762.337 732.343 762.337 737.76 Q762.337 743.339 758.865 746.44 Q755.393 749.519 749.073 749.519 Q746.898 749.519 744.629 749.149 Q742.384 748.778 739.976 748.038 L739.976 743.339 Q742.06 744.473 744.282 745.028 Q746.504 745.584 748.981 745.584 Q752.985 745.584 755.323 743.478 Q757.661 741.371 757.661 737.76 Q757.661 734.149 755.323 732.042 Q752.985 729.936 748.981 729.936 Q747.106 729.936 745.231 730.353 Q743.379 730.769 741.435 731.649 L741.435 714.288 Z" fill="#000000" fill-rule="nonzero" fill-opacity="1" /><path clip-path="url(#clip980)" d="M781.55 717.367 Q777.939 717.367 776.11 720.931 Q774.305 724.473 774.305 731.603 Q774.305 738.709 776.11 742.274 Q777.939 745.815 781.55 745.815 Q785.184 745.815 786.99 742.274 Q788.819 738.709 788.819 731.603 Q788.819 724.473 786.99 720.931 Q785.184 717.367 781.55 717.367 M781.55 713.663 Q787.36 713.663 790.416 718.269 Q793.495 722.853 793.495 731.603 Q793.495 740.329 790.416 744.936 Q787.36 749.519 781.55 749.519 Q775.74 749.519 772.661 744.936 Q769.606 740.329 769.606 731.603 Q769.606 722.853 772.661 718.269 Q775.74 713.663 781.55 713.663 Z" fill="#000000" fill-rule="nonzero" fill-opacity="1" /><path clip-path="url(#clip980)" d="M1224.4 714.288 L1242.76 714.288 L1242.76 718.223 L1228.69 718.223 L1228.69 726.695 Q1229.7 726.348 1230.72 726.186 Q1231.74 726.001 1232.76 726.001 Q1238.55 726.001 1241.93 729.172 Q1245.31 732.343 1245.31 737.76 Q1245.31 743.339 1241.83 746.44 Q1238.36 749.519 1232.04 749.519 Q1229.87 749.519 1227.6 749.149 Q1225.35 748.778 1222.94 748.038 L1222.94 743.339 Q1225.03 744.473 1227.25 745.028 Q1229.47 745.584 1231.95 745.584 Q1235.95 745.584 1238.29 743.478 Q1240.63 741.371 1240.63 737.76 Q1240.63 734.149 1238.29 732.042 Q1235.95 729.936 1231.95 729.936 Q1230.07 729.936 1228.2 730.353 Q1226.35 730.769 1224.4 731.649 L1224.4 714.288 Z" fill="#000000" fill-rule="nonzero" fill-opacity="1" /><path clip-path="url(#clip980)" d="M1264.52 717.367 Q1260.91 717.367 1259.08 720.931 Q1257.27 724.473 1257.27 731.603 Q1257.27 738.709 1259.08 742.274 Q1260.91 745.815 1264.52 745.815 Q1268.15 745.815 1269.96 742.274 Q1271.79 738.709 1271.79 731.603 Q1271.79 724.473 1269.96 720.931 Q1268.15 717.367 1264.52 717.367 M1264.52 713.663 Q1270.33 713.663 1273.38 718.269 Q1276.46 722.853 1276.46 731.603 Q1276.46 740.329 1273.38 744.936 Q1270.33 749.519 1264.52 749.519 Q1258.71 749.519 1255.63 744.936 Q1252.57 740.329 1252.57 731.603 Q1252.57 722.853 1255.63 718.269 Q1258.71 713.663 1264.52 713.663 Z" fill="#000000" fill-rule="nonzero" fill-opacity="1" /><path clip-path="url(#clip980)" d="M1294.68 717.367 Q1291.07 717.367 1289.24 720.931 Q1287.44 724.473 1287.44 731.603 Q1287.44 738.709 1289.24 742.274 Q1291.07 745.815 1294.68 745.815 Q1298.31 745.815 1300.12 742.274 Q1301.95 738.709 1301.95 731.603 Q1301.95 724.473 1300.12 720.931 Q1298.31 717.367 1294.68 717.367 M1294.68 713.663 Q1300.49 713.663 1303.55 718.269 Q1306.62 722.853 1306.62 731.603 Q1306.62 740.329 1303.55 744.936 Q1300.49 749.519 1294.68 749.519 Q1288.87 749.519 1285.79 744.936 Q1282.74 740.329 1282.74 731.603 Q1282.74 722.853 1285.79 718.269 Q1288.87 713.663 1294.68 713.663 Z" fill="#000000" fill-rule="nonzero" fill-opacity="1" /><path clip-path="url(#clip980)" d="M1736.28 714.288 L1758.51 714.288 L1758.51 716.279 L1745.96 748.848 L1741.08 748.848 L1752.88 718.223 L1736.28 718.223 L1736.28 714.288 Z" fill="#000000" fill-rule="nonzero" fill-opacity="1" /><path clip-path="url(#clip980)" d="M1767.67 714.288 L1786.03 714.288 L1786.03 718.223 L1771.95 718.223 L1771.95 726.695 Q1772.97 726.348 1773.99 726.186 Q1775.01 726.001 1776.03 726.001 Q1781.82 726.001 1785.2 729.172 Q1788.57 732.343 1788.57 737.76 Q1788.57 743.339 1785.1 746.44 Q1781.63 749.519 1775.31 749.519 Q1773.14 749.519 1770.87 749.149 Q1768.62 748.778 1766.21 748.038 L1766.21 743.339 Q1768.3 744.473 1770.52 745.028 Q1772.74 745.584 1775.22 745.584 Q1779.22 745.584 1781.56 743.478 Q1783.9 741.371 1783.9 737.76 Q1783.9 734.149 1781.56 732.042 Q1779.22 729.936 1775.22 729.936 Q1773.34 729.936 1771.47 730.353 Q1769.62 730.769 1767.67 731.649 L1767.67 714.288 Z" fill="#000000" fill-rule="nonzero" fill-opacity="1" /><path clip-path="url(#clip980)" d="M1807.79 717.367 Q1804.18 717.367 1802.35 720.931 Q1800.54 724.473 1800.54 731.603 Q1800.54 738.709 1802.35 742.274 Q1804.18 745.815 1807.79 745.815 Q1811.42 745.815 1813.23 742.274 Q1815.06 738.709 1815.06 731.603 Q1815.06 724.473 1813.23 720.931 Q1811.42 717.367 1807.79 717.367 M1807.79 713.663 Q1813.6 713.663 1816.65 718.269 Q1819.73 722.853 1819.73 731.603 Q1819.73 740.329 1816.65 744.936 Q1813.6 749.519 1807.79 749.519 Q1801.98 749.519 1798.9 744.936 Q1795.84 740.329 1795.84 731.603 Q1795.84 722.853 1798.9 718.269 Q1801.98 713.663 1807.79 713.663 Z" fill="#000000" fill-rule="nonzero" fill-opacity="1" /><path clip-path="url(#clip980)" d="M2235.76 744.913 L2243.4 744.913 L2243.4 718.547 L2235.09 720.214 L2235.09 715.955 L2243.35 714.288 L2248.02 714.288 L2248.02 744.913 L2255.66 744.913 L2255.66 748.848 L2235.76 748.848 L2235.76 744.913 Z" fill="#000000" fill-rule="nonzero" fill-opacity="1" /><path clip-path="url(#clip980)" d="M2275.11 717.367 Q2271.5 717.367 2269.67 720.931 Q2267.86 724.473 2267.86 731.603 Q2267.86 738.709 2269.67 742.274 Q2271.5 745.815 2275.11 745.815 Q2278.74 745.815 2280.55 742.274 Q2282.38 738.709 2282.38 731.603 Q2282.38 724.473 2280.55 720.931 Q2278.74 717.367 2275.11 717.367 M2275.11 713.663 Q2280.92 713.663 2283.97 718.269 Q2287.05 722.853 2287.05 731.603 Q2287.05 740.329 2283.97 744.936 Q2280.92 749.519 2275.11 749.519 Q2269.3 749.519 2266.22 744.936 Q2263.16 740.329 2263.16 731.603 Q2263.16 722.853 2266.22 718.269 Q2269.3 713.663 2275.11 713.663 Z" fill="#000000" fill-rule="nonzero" fill-opacity="1" /><path clip-path="url(#clip980)" d="M2305.27 717.367 Q2301.66 717.367 2299.83 720.931 Q2298.02 724.473 2298.02 731.603 Q2298.02 738.709 2299.83 742.274 Q2301.66 745.815 2305.27 745.815 Q2308.9 745.815 2310.71 742.274 Q2312.54 738.709 2312.54 731.603 Q2312.54 724.473 2310.71 720.931 Q2308.9 717.367 2305.27 717.367 M2305.27 713.663 Q2311.08 713.663 2314.14 718.269 Q2317.21 722.853 2317.21 731.603 Q2317.21 740.329 2314.14 744.936 Q2311.08 749.519 2305.27 749.519 Q2299.46 749.519 2296.38 744.936 Q2293.33 740.329 2293.33 731.603 Q2293.33 722.853 2296.38 718.269 Q2299.46 713.663 2305.27 713.663 Z" fill="#000000" fill-rule="nonzero" fill-opacity="1" /><path clip-path="url(#clip980)" d="M2335.43 717.367 Q2331.82 717.367 2329.99 720.931 Q2328.19 724.473 2328.19 731.603 Q2328.19 738.709 2329.99 742.274 Q2331.82 745.815 2335.43 745.815 Q2339.07 745.815 2340.87 742.274 Q2342.7 738.709 2342.7 731.603 Q2342.7 724.473 2340.87 720.931 Q2339.07 717.367 2335.43 717.367 M2335.43 713.663 Q2341.24 713.663 2344.3 718.269 Q2347.38 722.853 2347.38 731.603 Q2347.38 740.329 2344.3 744.936 Q2341.24 749.519 2335.43 749.519 Q2329.62 749.519 2326.54 744.936 Q2323.49 740.329 2323.49 731.603 Q2323.49 722.853 2326.54 718.269 Q2329.62 713.663 2335.43 713.663 Z" fill="#000000" fill-rule="nonzero" fill-opacity="1" /><polyline clip-path="url(#clip980)" style="stroke:#000000; stroke-linecap:round; stroke-linejoin:round; stroke-width:4; stroke-opacity:1; fill:none" points="178.867,686.448 178.867,47.2441 "/>
<polyline clip-path="url(#clip980)" style="stroke:#000000; stroke-linecap:round; stroke-linejoin:round; stroke-width:4; stroke-opacity:1; fill:none" points="178.867,686.448 197.764,686.448 "/>
<polyline clip-path="url(#clip980)" style="stroke:#000000; stroke-linecap:round; stroke-linejoin:round; stroke-width:4; stroke-opacity:1; fill:none" points="178.867,526.647 197.764,526.647 "/>
<polyline clip-path="url(#clip980)" style="stroke:#000000; stroke-linecap:round; stroke-linejoin:round; stroke-width:4; stroke-opacity:1; fill:none" points="178.867,366.846 197.764,366.846 "/>
<polyline clip-path="url(#clip980)" style="stroke:#000000; stroke-linecap:round; stroke-linejoin:round; stroke-width:4; stroke-opacity:1; fill:none" points="178.867,207.045 197.764,207.045 "/>
<polyline clip-path="url(#clip980)" style="stroke:#000000; stroke-linecap:round; stroke-linejoin:round; stroke-width:4; stroke-opacity:1; fill:none" points="178.867,47.2441 197.764,47.2441 "/>
<path clip-path="url(#clip980)" d="M50.9921 686.899 L80.6679 686.899 L80.6679 690.834 L50.9921 690.834 L50.9921 686.899 Z" fill="#000000" fill-rule="nonzero" fill-opacity="1" /><path clip-path="url(#clip980)" d="M91.5706 699.793 L99.2095 699.793 L99.2095 673.427 L90.8993 675.094 L90.8993 670.835 L99.1632 669.168 L103.839 669.168 L103.839 699.793 L111.478 699.793 L111.478 703.728 L91.5706 703.728 L91.5706 699.793 Z" fill="#000000" fill-rule="nonzero" fill-opacity="1" /><path clip-path="url(#clip980)" d="M130.922 672.247 Q127.311 672.247 125.482 675.811 Q123.677 679.353 123.677 686.483 Q123.677 693.589 125.482 697.154 Q127.311 700.695 130.922 700.695 Q134.556 700.695 136.362 697.154 Q138.191 693.589 138.191 686.483 Q138.191 679.353 136.362 675.811 Q134.556 672.247 130.922 672.247 M130.922 668.543 Q136.732 668.543 139.788 673.149 Q142.867 677.733 142.867 686.483 Q142.867 695.209 139.788 699.816 Q136.732 704.399 130.922 704.399 Q125.112 704.399 122.033 699.816 Q118.978 695.209 118.978 686.483 Q118.978 677.733 122.033 673.149 Q125.112 668.543 130.922 668.543 Z" fill="#000000" fill-rule="nonzero" fill-opacity="1" /><path clip-path="url(#clip980)" d="M82.1494 527.098 L111.825 527.098 L111.825 531.033 L82.1494 531.033 L82.1494 527.098 Z" fill="#000000" fill-rule="nonzero" fill-opacity="1" /><path clip-path="url(#clip980)" d="M121.964 509.367 L140.32 509.367 L140.32 513.302 L126.246 513.302 L126.246 521.774 Q127.265 521.427 128.283 521.265 Q129.302 521.08 130.32 521.08 Q136.107 521.08 139.487 524.251 Q142.867 527.422 142.867 532.839 Q142.867 538.418 139.394 541.52 Q135.922 544.598 129.603 544.598 Q127.427 544.598 125.158 544.228 Q122.913 543.857 120.506 543.117 L120.506 538.418 Q122.589 539.552 124.811 540.108 Q127.033 540.663 129.51 540.663 Q133.515 540.663 135.853 538.557 Q138.191 536.45 138.191 532.839 Q138.191 529.228 135.853 527.121 Q133.515 525.015 129.51 525.015 Q127.635 525.015 125.76 525.432 Q123.908 525.848 121.964 526.728 L121.964 509.367 Z" fill="#000000" fill-rule="nonzero" fill-opacity="1" /><path clip-path="url(#clip980)" d="M130.922 352.645 Q127.311 352.645 125.482 356.209 Q123.677 359.751 123.677 366.881 Q123.677 373.987 125.482 377.552 Q127.311 381.094 130.922 381.094 Q134.556 381.094 136.362 377.552 Q138.191 373.987 138.191 366.881 Q138.191 359.751 136.362 356.209 Q134.556 352.645 130.922 352.645 M130.922 348.941 Q136.732 348.941 139.788 353.547 Q142.867 358.131 142.867 366.881 Q142.867 375.608 139.788 380.214 Q136.732 384.797 130.922 384.797 Q125.112 384.797 122.033 380.214 Q118.978 375.608 118.978 366.881 Q118.978 358.131 122.033 353.547 Q125.112 348.941 130.922 348.941 Z" fill="#000000" fill-rule="nonzero" fill-opacity="1" /><path clip-path="url(#clip980)" d="M121.964 189.765 L140.32 189.765 L140.32 193.7 L126.246 193.7 L126.246 202.172 Q127.265 201.825 128.283 201.663 Q129.302 201.478 130.32 201.478 Q136.107 201.478 139.487 204.649 Q142.867 207.82 142.867 213.237 Q142.867 218.816 139.394 221.918 Q135.922 224.996 129.603 224.996 Q127.427 224.996 125.158 224.626 Q122.913 224.256 120.506 223.515 L120.506 218.816 Q122.589 219.95 124.811 220.506 Q127.033 221.061 129.51 221.061 Q133.515 221.061 135.853 218.955 Q138.191 216.848 138.191 213.237 Q138.191 209.626 135.853 207.52 Q133.515 205.413 129.51 205.413 Q127.635 205.413 125.76 205.83 Q123.908 206.246 121.964 207.126 L121.964 189.765 Z" fill="#000000" fill-rule="nonzero" fill-opacity="1" /><path clip-path="url(#clip980)" d="M91.5706 60.5889 L99.2095 60.5889 L99.2095 34.2233 L90.8993 35.89 L90.8993 31.6308 L99.1632 29.9641 L103.839 29.9641 L103.839 60.5889 L111.478 60.5889 L111.478 64.5241 L91.5706 64.5241 L91.5706 60.5889 Z" fill="#000000" fill-rule="nonzero" fill-opacity="1" /><path clip-path="url(#clip980)" d="M130.922 33.0428 Q127.311 33.0428 125.482 36.6076 Q123.677 40.1492 123.677 47.2788 Q123.677 54.3853 125.482 57.9501 Q127.311 61.4917 130.922 61.4917 Q134.556 61.4917 136.362 57.9501 Q138.191 54.3853 138.191 47.2788 Q138.191 40.1492 136.362 36.6076 Q134.556 33.0428 130.922 33.0428 M130.922 29.3391 Q136.732 29.3391 139.788 33.9456 Q142.867 38.5289 142.867 47.2788 Q142.867 56.0056 139.788 60.6121 Q136.732 65.1954 130.922 65.1954 Q125.112 65.1954 122.033 60.6121 Q118.978 56.0056 118.978 47.2788 Q118.978 38.5289 122.033 33.9456 Q125.112 29.3391 130.922 29.3391 Z" fill="#000000" fill-rule="nonzero" fill-opacity="1" /><polyline clip-path="url(#clip982)" style="stroke:#009af9; stroke-linecap:round; stroke-linejoin:round; stroke-width:4; stroke-opacity:1; fill:none" points="240.392,334.886 242.445,334.554 244.498,400.825 246.55,398.921 248.603,396.749 250.656,396.632 252.709,398.326 254.762,398.121 256.815,374.41 258.868,367.626 260.921,377.707 262.974,307.493 265.027,307.998 267.079,307.971 269.132,319.521 271.185,320.006 273.238,320.254 275.291,319.513 277.344,350.64 279.397,349.989 281.45,379.371 283.503,379.923 285.555,404.216 287.608,399.508 289.661,360.55 291.714,362.162 293.767,350.56 295.82,350.615 297.873,351.556 299.926,350.979 301.979,338.361 304.031,336.409 306.084,336.474 308.137,334.512 310.19,341.443 312.243,338.938 314.296,338.935 316.349,343.78 318.402,351.16 320.455,357.054 322.507,356.858 324.56,356.941 326.613,380.108 328.666,369.167 330.719,369.226 332.772,371.117 334.825,368.054 336.878,368.333 338.931,368.331 340.984,371.125 343.036,371.129 345.089,380.292 347.142,383.73 349.195,383.814 351.248,383.398 353.301,383.669 355.354,383.85 357.407,382.505 359.46,381.526 361.512,381.408 363.565,384.786 365.618,389.014 367.671,389.676 369.724,378.282 371.777,350.494 373.83,350.526 375.883,353.363 377.936,364.001 379.988,363.632 382.041,357.802 384.094,375.559 386.147,375.682 388.2,333.743 390.253,333.751 392.306,336.663 394.359,339.279 396.412,339.264 398.464,338.949 400.517,358.799 402.57,358.557 404.623,357.977 406.676,361.144 408.729,360.79 410.782,360.713 412.835,359.136 414.888,363.23 416.94,360.126 418.993,379.105 421.046,379.083 423.099,363.041 425.152,358.325 427.205,359.3 429.258,358.407 431.311,358.192 433.364,363.153 435.417,363.079 437.469,363.072 439.522,363.514 441.575,361.651 443.628,360.87 445.681,362.109 447.734,362.544 449.787,361.584 451.84,371.556 453.893,371.54 455.945,370.721 457.998,360.006 460.051,389.809 462.104,376.386 464.157,374.138 466.21,403.556 468.263,390.479 470.316,388.339 472.369,389.518 474.421,397.378 476.474,396.245 478.527,394.54 480.58,394.663 482.633,386.972 484.686,418.814 486.739,424.888 488.792,400.046 490.845,394.679 492.897,380.8 494.95,380.8 497.003,377.821 499.056,381.761 501.109,381.127 503.162,392.628 505.215,404.564 507.268,404.688 509.321,404.49 511.374,400.492 513.426,414.417 515.479,414.264 517.532,428.354 519.585,428.43 521.638,420.395 523.691,420.528 525.744,422.275 527.797,422.676 529.85,393.991 531.902,388.484 533.955,388.418 536.008,388.291 538.061,387.888 540.114,362.897 542.167,399.415 544.22,430.543 546.273,430.561 548.326,432.402 550.378,430.863 552.431,431.612 554.484,432.655 556.537,432.684 558.59,436.303 560.643,436.459 562.696,443.148 564.749,442.87 566.802,445.82 568.854,445.857 570.907,450.582 572.96,451.564 575.013,455.08 577.066,455.331 579.119,426.556 581.172,377.915 583.225,407.866 585.278,405.923 587.331,405.791 589.383,399.854 591.436,379.813 593.489,374.292 595.542,383.213 597.595,365.774 599.648,365.277 601.701,361.557 603.754,328.779 605.807,363.342 607.859,363.788 609.912,367.209 611.965,329.436 614.018,296.055 616.071,285.728 618.124,271.693 620.177,300.099 622.23,300.044 624.283,268.422 626.335,284.475 628.388,397.228 630.441,395.994 632.494,320.734 634.547,319.496 636.6,269.795 638.653,270.024 640.706,261.81 642.759,240.433 644.811,240.449 646.864,240.587 648.917,207.232 650.97,209.569 653.023,220.423 655.076,198.927 657.129,195.841 659.182,173.994 661.235,173.727 663.288,217.59 665.34,169.972 667.393,166.888 669.446,168.017 671.499,147.702 673.552,148.044 675.605,168.854 677.658,156.027 679.711,187.156 681.764,225.173 683.816,201.281 685.869,440.539 687.922,421.217 689.975,381.075 692.028,383.88 694.081,384.036 696.134,421.816 698.187,452.233 700.24,440.85 702.292,427.654 704.345,437.666 706.398,437.96 708.451,428.015 710.504,425.815 712.557,467.051 714.61,479.035 716.663,440.869 718.716,455.737 720.768,285.232 722.821,380.402 724.874,378.894 726.927,390.37 728.98,392.422 731.033,382.628 733.086,383.128 735.139,350.069 737.192,318.85 739.245,318.461 741.297,325.082 743.35,271.754 745.403,279.693 747.456,289.356 749.509,322.394 751.562,322.741 753.615,323.03 755.668,324.519 757.721,297.846 759.773,299.489 761.826,308.515 763.879,312.453 765.932,312.493 767.985,312.535 770.038,322.043 772.091,322.733 774.144,317.323 776.197,317.308 778.249,334.171 780.302,334.1 782.355,331.853 784.408,324.865 786.461,332.523 788.514,329.335 790.567,371.713 792.62,370.827 794.673,369.514 796.725,369.562 798.778,368.808 800.831,373.342 802.884,349.337 804.937,334.541 806.99,345.262 809.043,336.91 811.096,363.117 813.149,358.351 815.202,362.913 817.254,378.629 819.307,382.445 821.36,383.757 823.413,383.841 825.466,383.869 827.519,374.242 829.572,354.132 831.625,347.756 833.678,347.734 835.73,320.26 837.783,324.804 839.836,324.204 841.889,324.524 843.942,316.157 845.995,315.188 848.048,315.016 850.101,317.013 852.154,348.068 854.206,347.586 856.259,344.251 858.312,331.667 860.365,333.218 862.418,342.008 864.471,348.167 866.524,357.663 868.577,356.998 870.63,371.229 872.682,371.752 874.735,369.641 876.788,408.451 878.841,406.492 880.894,398.038 882.947,398.075 885,395.051 887.053,395.052 889.106,395.995 891.159,402.899 893.211,429.058 895.264,429.017 897.317,432.489 899.37,437.538 901.423,450.87 903.476,448.724 905.529,450.974 907.582,440.687 909.635,390.566 911.687,391.521 913.74,359.238 915.793,357.255 917.846,383.169 919.899,379.996 921.952,371.143 924.005,371.03 926.058,372.503 928.111,378.45 930.163,314.014 932.216,314.289 934.269,324.16 936.322,321.67 938.375,317.658 940.428,332.721 942.481,332.537 944.534,317.575 946.587,327.777 948.639,330.755 950.692,326.183 952.745,326.093 954.798,334.716 956.851,406.262 958.904,406.256 960.957,406.715 963.01,377.236 965.063,375.942 967.116,366.779 969.168,366.255 971.221,366.924 973.274,366.636 975.327,374.623 977.38,368.836 979.433,345.288 981.486,321.431 983.539,333.988 985.592,335.127 987.644,287.941 989.697,283.868 991.75,285.366 993.803,285.101 995.856,323.794 997.909,325.983 999.962,325.41 1002.01,349.063 1004.07,373.926 1006.12,385.769 1008.17,387.207 1010.23,329.246 1012.28,247.031 1014.33,251.87 1016.38,267.876 1018.44,242.843 1020.49,410.568 1022.54,304.177 1024.6,306.779 1026.65,342.72 1028.7,307.799 1030.76,297.186 1032.81,327.164 1034.86,321.766 1036.91,318.561 1038.97,317.944 1041.02,312.348 1043.07,307.331 1045.13,242.525 1047.18,249.609 1049.23,250.472 1051.28,328.397 1053.34,333.102 1055.39,360.049 1057.44,349.577 1059.5,371.505 1061.55,362.273 1063.6,353.475 1065.65,354.254 1067.71,407.404 1069.76,374.129 1071.81,374.373 1073.87,336.662 1075.92,345.926 1077.97,409.233 1080.02,414.598 1082.08,402.563 1084.13,361.585 1086.18,335.212 1088.24,340.306 1090.29,329.935 1092.34,376.571 1094.39,454.227 1096.45,454.411 1098.5,435.847 1100.55,333.804 1102.61,333.973 1104.66,333.125 1106.71,328.254 1108.77,333.105 1110.82,332.486 1112.87,346.227 1114.92,327.613 1116.98,301.515 1119.03,301.467 1121.08,353.918 1123.14,342.176 1125.19,346.44 1127.24,347.637 1129.29,392.279 1131.35,393.619 1133.4,387.877 1135.45,369.172 1137.51,330.223 1139.56,346.669 1141.61,388.306 1143.66,389.512 1145.72,358.555 1147.77,287.738 1149.82,263.473 1151.88,267.563 1153.93,311.249 1155.98,359.479 1158.03,400.61 1160.09,334.285 1162.14,339.573 1164.19,398.206 1166.25,435.524 1168.3,435.899 1170.35,441.451 1172.4,437.402 1174.46,443.819 1176.51,367.939 1178.56,368.584 1180.62,392.2 1182.67,395.284 1184.72,399.366 1186.77,399.534 1188.83,388.493 1190.88,389.085 1192.93,398.777 1194.99,376.67 1197.04,296.692 1199.09,296.505 1201.15,275.749 1203.2,289.235 1205.25,335.421 1207.3,335.411 1209.36,385.542 1211.41,376.541 1213.46,373.989 1215.52,330.202 1217.57,338.741 1219.62,338.019 1221.67,338.103 1223.73,338.433 1225.78,358.349 1227.83,350.688 1229.89,320.931 1231.94,319.954 1233.99,314.504 1236.04,383.761 1238.1,385.933 1240.15,389.283 1242.2,389.935 1244.26,396.696 1246.31,344.029 1248.36,345.415 1250.41,357.835 1252.47,355.233 1254.52,338.938 1256.57,323.033 1258.63,313.209 1260.68,310.459 1262.73,347.4 1264.78,353.007 1266.84,387.716 1268.89,398.207 1270.94,381.394 1273,385.082 1275.05,486.18 1277.1,460.547 1279.16,430.162 1281.21,427.143 1283.26,419.262 1285.31,419.262 1287.37,457.165 1289.42,458.675 1291.47,458.198 1293.53,479.681 1295.58,479.393 1297.63,463.573 1299.68,472.026 1301.74,471.602 1303.79,489.813 1305.84,471.005 1307.9,473.438 1309.95,432.295 1312,450.641 1314.05,436.986 1316.11,418.095 1318.16,355.532 1320.21,388.341 1322.27,319.093 1324.32,306.122 1326.37,289.075 1328.42,297.18 1330.48,297.552 1332.53,366.707 1334.58,363.127 1336.64,355.093 1338.69,354.948 1340.74,353.574 1342.79,338.338 1344.85,360.476 1346.9,363.584 1348.95,341.475 1351.01,322.63 1353.06,311.208 1355.11,317.801 1357.16,313.774 1359.22,318.132 1361.27,318.147 1363.32,278.466 1365.38,290.386 1367.43,295.847 1369.48,329.5 1371.54,436.577 1373.59,441.836 1375.64,357.966 1377.69,325.102 1379.75,325.555 1381.8,346.125 1383.85,385.026 1385.91,337.791 1387.96,319.591 1390.01,318.126 1392.06,316.897 1394.12,316.901 1396.17,314.716 1398.22,328.889 1400.28,323.313 1402.33,396.867 1404.38,375.301 1406.43,406.172 1408.49,422.281 1410.54,343.275 1412.59,312.237 1414.65,335.459 1416.7,337.477 1418.75,363.676 1420.8,388.565 1422.86,393.712 1424.91,393.311 1426.96,368.003 1429.02,363.102 1431.07,355.377 1433.12,357.695 1435.17,388.596 1437.23,359.876 1439.28,342.264 1441.33,341.474 1443.39,341.745 1445.44,348.397 1447.49,349.407 1449.55,350.551 1451.6,292.487 1453.65,276.854 1455.7,281.862 1457.76,216.597 1459.81,217.237 1461.86,284.894 1463.92,289.337 1465.97,289.21 1468.02,285.202 1470.07,286.183 1472.13,287.294 1474.18,321.604 1476.23,324.007 1478.29,321.306 1480.34,345.027 1482.39,359.029 1484.44,595.198 1486.5,581.765 1488.55,604.587 1490.6,509.915 1492.66,511.039 1494.71,414.544 1496.76,409.358 1498.81,413.029 1500.87,467.05 1502.92,461.693 1504.97,458.373 1507.03,505.513 1509.08,511.662 1511.13,566.299 1513.18,573.013 1515.24,630.899 1517.29,538.954 1519.34,558.6 1521.4,593.167 1523.45,507.266 1525.5,743.037 1527.55,786.939 1529.61,799.19 1531.66,606.446 1533.71,577.895 1535.77,577.026 1537.82,508.571 1539.87,508.689 1541.93,508.619 1543.98,514.904 1546.03,739.443 1548.08,692.979 1550.14,617.101 1552.19,561.457 1554.24,574.505 1556.3,685.424 1558.35,674.158 1560.4,678.496 1562.45,619.377 1564.51,376.378 1566.56,362.858 1568.61,353.531 1570.67,223.84 1572.72,158.496 1574.77,157.756 1576.82,-54.813 1578.88,-62.5281 1580.93,-96.7444 1582.98,-94.1929 1585.04,-103.248 1587.09,61.7549 1589.14,117.846 1591.19,273.193 1593.25,15.6164 1595.3,167.701 1597.35,167.86 1599.41,216.128 1601.46,328.509 1603.51,257.02 1605.56,220.622 1607.62,220.134 1609.67,415.93 1611.72,422.86 1613.78,514.378 1615.83,310.257 1617.88,252.307 1619.94,134.924 1621.99,244.256 1624.04,307.425 1626.09,327.884 1628.15,463.198 1630.2,417.416 1632.25,336.094 1634.31,336.676 1636.36,448.817 1638.41,438.678 1640.46,403.216 1642.52,411.555 1644.57,402.769 1646.62,410.771 1648.68,410.778 1650.73,425.459 1652.78,404.925 1654.83,403.951 1656.89,401.255 1658.94,317.566 1660.99,291.434 1663.05,249.936 1665.1,40.4508 1667.15,149.479 1669.2,221.571 1671.26,115.274 1673.31,-20.9538 1675.36,-12.9379 1677.42,-16.585 1679.47,-12.7774 1681.52,-12.0764 1683.57,84.7301 1685.63,126.822 1687.68,54.1695 1689.73,46.4528 1691.79,36.9032 1693.84,11.2399 1695.89,214.035 1697.94,126.579 1700,-31.0168 1702.05,403.183 1704.1,130.307 1706.16,550.993 1708.21,613.227 1710.26,610.468 1712.32,675.034 1714.37,703.169 1716.42,642.411 1718.47,646.622 1720.53,673.977 1722.58,361.371 1724.63,333.261 1726.69,1160.71 1728.74,906.095 1730.79,725.211 1732.84,772.605 1734.9,776.129 1736.95,1033.03 1739,1037.8 1741.06,1037.78 1743.11,916.589 1745.16,912.641 1747.21,577.238 1749.27,525.796 1751.32,528.36 1753.37,231.689 1755.43,391.268 1757.48,406.272 1759.53,419.26 1761.58,367.16 1763.64,333.787 1765.69,313.211 1767.74,195.825 1769.8,185.097 1771.85,225.181 1773.9,267.678 1775.95,-175.115 1778.01,-14.4364 1780.06,777.96 1782.11,745.651 1784.17,767.471 1786.22,358.71 1788.27,359.483 1790.33,262.275 1792.38,245.131 1794.43,-28.2543 1796.48,-101.093 1798.54,-108.526 1800.59,320.012 1802.64,325.278 1804.7,102.766 1806.75,125.631 1808.8,131.235 1810.85,76.5637 1812.91,90.8059 1814.96,250.187 1817.01,436.265 1819.07,39.3673 1821.12,24.3093 1823.17,-74.4835 1825.22,568.304 1827.28,951.117 1829.33,772.113 1831.38,764.38 1833.44,-440.036 1835.49,-1434.97 1837.54,-1271.26 1839.59,-982.037 1841.65,-836.73 1843.7,-887.05 1845.75,-836.5 1847.81,-1011.58 1849.86,-255.85 1851.91,-359.38 1853.96,-201.471 1856.02,-514.81 1858.07,-1054.44 1860.12,-950.022 1862.18,-120.055 1864.23,-196.285 1866.28,-488.466 1868.34,-519.188 1870.39,-630.716 1872.44,-565.669 1874.49,-655.746 1876.55,-548.093 1878.6,-531.404 1880.65,110.163 1882.71,1580.29 1884.76,133.604 1886.81,711.316 1888.86,341.727 1890.92,812.624 1892.97,833.401 1895.02,802.749 1897.08,979.861 1899.13,961.445 1901.18,1045.1 1903.23,1081.54 1905.29,1023.29 1907.34,798.839 1909.39,590.368 1911.45,612.668 1913.5,611.481 1915.55,611.989 1917.6,577.415 1919.66,601.408 1921.71,749.119 1923.76,696.768 1925.82,737.32 1927.87,522.29 1929.92,1822.3 1931.97,1890.16 1934.03,1857.28 1936.08,1775.73 1938.13,1679.93 1940.19,1710.75 1942.24,1577.11 1944.29,1515.87 1946.34,1328.36 1948.4,1302.87 1950.45,1411.61 1952.5,1328.8 1954.56,1269.81 1956.61,2030.92 1958.66,1754.9 1960.72,1715.1 1962.77,1772.73 1964.82,1976.87 1966.87,1996.75 1968.93,1817.48 1970.98,1841.92 1973.03,1349.82 1975.09,975.988 1977.14,920.404 1979.19,920.664 1981.24,1368.38 1983.3,1420.36 1985.35,735.875 1987.4,1290.68 1989.46,1357.81 1991.51,1332.99 1993.56,1265.17 1995.61,1312.14 1997.67,1290.83 1999.72,1211.38 2001.77,1078.89 2003.83,1054.27 2005.88,1015.49 2007.93,419.5 2009.98,-106.869 2012.04,24.8285 2014.09,226.275 2016.14,499.933 2018.2,703.099 2020.25,823.211 2022.3,871.374 2024.35,904.226 2026.41,900.678 2028.46,870.446 2030.51,879.709 2032.57,1110.11 2034.62,1073.87 2036.67,1129.68 2038.73,1170.44 2040.78,1076.93 2042.83,1055.32 2044.88,994.314 2046.94,982.213 2048.99,770.202 2051.04,756.565 2053.1,726.095 2055.15,795.177 2057.2,782.591 2059.25,847.951 2061.31,820.963 2063.36,1011.03 2065.41,705.064 2067.47,766.95 2069.52,540.503 2071.57,451.937 2073.62,658.121 2075.68,720.306 2077.73,651.459 2079.78,354.505 2081.84,359.707 2083.89,481.195 2085.94,836.071 2087.99,334.278 2090.05,559.511 2092.1,452.788 2094.15,398.992 2096.21,472.694 2098.26,408.785 2100.31,400.57 2102.36,408.981 2104.42,416.419 2106.47,392.104 2108.52,379.523 2110.58,296.716 2112.63,614.406 2114.68,640.827 2116.73,552.536 2118.79,588.931 2120.84,594.026 2122.89,600.641 2124.95,591.274 2127,623.877 2129.05,624.977 2131.11,629.829 2133.16,626.348 2135.21,496.43 2137.26,497.393 2139.32,496.563 2141.37,346.826 2143.42,342.256 2145.48,198.061 2147.53,135.256 2149.58,224.223 2151.63,211.508 2153.69,243.355 2155.74,313.314 2157.79,130.503 2159.85,94.9679 2161.9,88.1794 2163.95,59.9939 2166,-11.0884 2168.06,-2.33465 2170.11,-42.2571 2172.16,-28.8949 2174.22,6.06599 2176.27,-21.1111 2178.32,9.11389 2180.37,5.08122 2182.43,-31.1731 2184.48,-27.7573 2186.53,143.285 2188.59,270.169 2190.64,310.521 2192.69,188.091 2194.74,217.649 2196.8,219.452 2198.85,287.162 2200.9,248.367 2202.96,463.651 2205.01,431.168 2207.06,426.184 2209.12,462.94 2211.17,404.516 2213.22,212.163 2215.27,347.848 2217.33,350.003 2219.38,343.984 2221.43,358.981 2223.49,360.246 2225.54,323.072 2227.59,323.996 2229.64,334.264 2231.7,430.035 2233.75,445.693 2235.8,434.288 2237.86,439.122 2239.91,442.636 2241.96,437.497 2244.01,435.757 2246.07,417.3 2248.12,377.99 2250.17,366.173 2252.23,352.196 2254.28,352.746 2256.33,351.763 2258.38,345.406 2260.44,340.436 2262.49,343.042 2264.54,327.333 2266.6,327.245 2268.65,325.653 2270.7,333.965 2272.75,333.612 2274.81,334.721 2276.86,334.3 2278.91,311.588 2280.97,311.554 2283.02,386.694 2285.07,405.092 2287.12,406.92 2289.18,398.272 2291.23,398.548 "/>
<path clip-path="url(#clip980)" d="M251.33 665.141 L548.024 665.141 L548.024 561.461 L251.33 561.461  Z" fill="#ffffff" fill-rule="evenodd" fill-opacity="1"/>
<polyline clip-path="url(#clip980)" style="stroke:#000000; stroke-linecap:round; stroke-linejoin:round; stroke-width:4; stroke-opacity:1; fill:none" points="251.33,665.141 548.024,665.141 548.024,561.461 251.33,561.461 251.33,665.141 "/>
<polyline clip-path="url(#clip980)" style="stroke:#009af9; stroke-linecap:round; stroke-linejoin:round; stroke-width:4; stroke-opacity:1; fill:none" points="275.484,613.301 420.41,613.301 "/>
<path clip-path="url(#clip980)" d="M444.564 596.021 L449.24 596.021 L449.24 626.646 L466.069 626.646 L466.069 630.581 L444.564 630.581 L444.564 596.021 Z" fill="#000000" fill-rule="nonzero" fill-opacity="1" /><path clip-path="url(#clip980)" d="M491.694 597.155 L491.694 601.715 Q489.032 600.442 486.67 599.817 Q484.309 599.192 482.11 599.192 Q478.291 599.192 476.208 600.674 Q474.147 602.155 474.147 604.887 Q474.147 607.178 475.513 608.359 Q476.902 609.516 480.745 610.234 L483.569 610.813 Q488.8 611.808 491.277 614.331 Q493.777 616.831 493.777 621.044 Q493.777 626.067 490.397 628.66 Q487.041 631.252 480.536 631.252 Q478.083 631.252 475.305 630.697 Q472.55 630.141 469.587 629.053 L469.587 624.239 Q472.434 625.836 475.166 626.646 Q477.897 627.456 480.536 627.456 Q484.541 627.456 486.717 625.882 Q488.893 624.308 488.893 621.391 Q488.893 618.845 487.319 617.41 Q485.768 615.975 482.203 615.257 L479.356 614.702 Q474.124 613.66 471.786 611.438 Q469.448 609.215 469.448 605.257 Q469.448 600.674 472.666 598.035 Q475.907 595.396 481.578 595.396 Q484.008 595.396 486.532 595.836 Q489.055 596.276 491.694 597.155 Z" fill="#000000" fill-rule="nonzero" fill-opacity="1" /><path clip-path="url(#clip980)" d="M521.786 597.155 L521.786 601.715 Q519.124 600.442 516.763 599.817 Q514.402 599.192 512.203 599.192 Q508.383 599.192 506.3 600.674 Q504.24 602.155 504.24 604.887 Q504.24 607.178 505.606 608.359 Q506.994 609.516 510.837 610.234 L513.661 610.813 Q518.893 611.808 521.369 614.331 Q523.869 616.831 523.869 621.044 Q523.869 626.067 520.49 628.66 Q517.133 631.252 510.629 631.252 Q508.175 631.252 505.397 630.697 Q502.643 630.141 499.68 629.053 L499.68 624.239 Q502.527 625.836 505.258 626.646 Q507.99 627.456 510.629 627.456 Q514.633 627.456 516.809 625.882 Q518.985 624.308 518.985 621.391 Q518.985 618.845 517.411 617.41 Q515.86 615.975 512.295 615.257 L509.448 614.702 Q504.217 613.66 501.879 611.438 Q499.541 609.215 499.541 605.257 Q499.541 600.674 502.758 598.035 Q505.999 595.396 511.67 595.396 Q514.101 595.396 516.624 595.836 Q519.147 596.276 521.786 597.155 Z" fill="#000000" fill-rule="nonzero" fill-opacity="1" /><path clip-path="url(#clip980)" d="M178.867 1486.45 L2352.76 1486.45 L2352.76 847.244 L178.867 847.244  Z" fill="#ffffff" fill-rule="evenodd" fill-opacity="1"/>
<defs>
  <clipPath id="clip983">
    <rect x="178" y="847" width="2175" height="640"/>
  </clipPath>
</defs>
<polyline clip-path="url(#clip983)" style="stroke:#000000; stroke-linecap:round; stroke-linejoin:round; stroke-width:2; stroke-opacity:0.1; fill:none" points="238.339,1486.45 238.339,847.244 "/>
<polyline clip-path="url(#clip983)" style="stroke:#000000; stroke-linecap:round; stroke-linejoin:round; stroke-width:2; stroke-opacity:0.1; fill:none" points="751.562,1486.45 751.562,847.244 "/>
<polyline clip-path="url(#clip983)" style="stroke:#000000; stroke-linecap:round; stroke-linejoin:round; stroke-width:2; stroke-opacity:0.1; fill:none" points="1264.78,1486.45 1264.78,847.244 "/>
<polyline clip-path="url(#clip983)" style="stroke:#000000; stroke-linecap:round; stroke-linejoin:round; stroke-width:2; stroke-opacity:0.1; fill:none" points="1778.01,1486.45 1778.01,847.244 "/>
<polyline clip-path="url(#clip983)" style="stroke:#000000; stroke-linecap:round; stroke-linejoin:round; stroke-width:2; stroke-opacity:0.1; fill:none" points="2291.23,1486.45 2291.23,847.244 "/>
<polyline clip-path="url(#clip983)" style="stroke:#000000; stroke-linecap:round; stroke-linejoin:round; stroke-width:2; stroke-opacity:0.1; fill:none" points="178.867,1486.45 2352.76,1486.45 "/>
<polyline clip-path="url(#clip983)" style="stroke:#000000; stroke-linecap:round; stroke-linejoin:round; stroke-width:2; stroke-opacity:0.1; fill:none" points="178.867,1326.65 2352.76,1326.65 "/>
<polyline clip-path="url(#clip983)" style="stroke:#000000; stroke-linecap:round; stroke-linejoin:round; stroke-width:2; stroke-opacity:0.1; fill:none" points="178.867,1166.85 2352.76,1166.85 "/>
<polyline clip-path="url(#clip983)" style="stroke:#000000; stroke-linecap:round; stroke-linejoin:round; stroke-width:2; stroke-opacity:0.1; fill:none" points="178.867,1007.05 2352.76,1007.05 "/>
<polyline clip-path="url(#clip983)" style="stroke:#000000; stroke-linecap:round; stroke-linejoin:round; stroke-width:2; stroke-opacity:0.1; fill:none" points="178.867,847.244 2352.76,847.244 "/>
<polyline clip-path="url(#clip980)" style="stroke:#000000; stroke-linecap:round; stroke-linejoin:round; stroke-width:4; stroke-opacity:1; fill:none" points="178.867,1486.45 2352.76,1486.45 "/>
<polyline clip-path="url(#clip980)" style="stroke:#000000; stroke-linecap:round; stroke-linejoin:round; stroke-width:4; stroke-opacity:1; fill:none" points="238.339,1486.45 238.339,1467.55 "/>
<polyline clip-path="url(#clip980)" style="stroke:#000000; stroke-linecap:round; stroke-linejoin:round; stroke-width:4; stroke-opacity:1; fill:none" points="751.562,1486.45 751.562,1467.55 "/>
<polyline clip-path="url(#clip980)" style="stroke:#000000; stroke-linecap:round; stroke-linejoin:round; stroke-width:4; stroke-opacity:1; fill:none" points="1264.78,1486.45 1264.78,1467.55 "/>
<polyline clip-path="url(#clip980)" style="stroke:#000000; stroke-linecap:round; stroke-linejoin:round; stroke-width:4; stroke-opacity:1; fill:none" points="1778.01,1486.45 1778.01,1467.55 "/>
<polyline clip-path="url(#clip980)" style="stroke:#000000; stroke-linecap:round; stroke-linejoin:round; stroke-width:4; stroke-opacity:1; fill:none" points="2291.23,1486.45 2291.23,1467.55 "/>
<path clip-path="url(#clip980)" d="M238.339 1517.37 Q234.728 1517.37 232.899 1520.93 Q231.094 1524.47 231.094 1531.6 Q231.094 1538.71 232.899 1542.27 Q234.728 1545.82 238.339 1545.82 Q241.973 1545.82 243.779 1542.27 Q245.607 1538.71 245.607 1531.6 Q245.607 1524.47 243.779 1520.93 Q241.973 1517.37 238.339 1517.37 M238.339 1513.66 Q244.149 1513.66 247.205 1518.27 Q250.283 1522.85 250.283 1531.6 Q250.283 1540.33 247.205 1544.94 Q244.149 1549.52 238.339 1549.52 Q232.529 1549.52 229.45 1544.94 Q226.395 1540.33 226.395 1531.6 Q226.395 1522.85 229.45 1518.27 Q232.529 1513.66 238.339 1513.66 Z" fill="#000000" fill-rule="nonzero" fill-opacity="1" /><path clip-path="url(#clip980)" d="M715.254 1544.91 L731.574 1544.91 L731.574 1548.85 L709.629 1548.85 L709.629 1544.91 Q712.291 1542.16 716.875 1537.53 Q721.481 1532.88 722.662 1531.53 Q724.907 1529.01 725.787 1527.27 Q726.689 1525.51 726.689 1523.82 Q726.689 1521.07 724.745 1519.33 Q722.824 1517.6 719.722 1517.6 Q717.523 1517.6 715.069 1518.36 Q712.638 1519.13 709.861 1520.68 L709.861 1515.95 Q712.685 1514.82 715.138 1514.24 Q717.592 1513.66 719.629 1513.66 Q725 1513.66 728.194 1516.35 Q731.388 1519.03 731.388 1523.52 Q731.388 1525.65 730.578 1527.57 Q729.791 1529.47 727.685 1532.07 Q727.106 1532.74 724.004 1535.95 Q720.902 1539.15 715.254 1544.91 Z" fill="#000000" fill-rule="nonzero" fill-opacity="1" /><path clip-path="url(#clip980)" d="M741.435 1514.29 L759.791 1514.29 L759.791 1518.22 L745.717 1518.22 L745.717 1526.7 Q746.736 1526.35 747.754 1526.19 Q748.773 1526 749.791 1526 Q755.578 1526 758.958 1529.17 Q762.337 1532.34 762.337 1537.76 Q762.337 1543.34 758.865 1546.44 Q755.393 1549.52 749.073 1549.52 Q746.898 1549.52 744.629 1549.15 Q742.384 1548.78 739.976 1548.04 L739.976 1543.34 Q742.06 1544.47 744.282 1545.03 Q746.504 1545.58 748.981 1545.58 Q752.985 1545.58 755.323 1543.48 Q757.661 1541.37 757.661 1537.76 Q757.661 1534.15 755.323 1532.04 Q752.985 1529.94 748.981 1529.94 Q747.106 1529.94 745.231 1530.35 Q743.379 1530.77 741.435 1531.65 L741.435 1514.29 Z" fill="#000000" fill-rule="nonzero" fill-opacity="1" /><path clip-path="url(#clip980)" d="M781.55 1517.37 Q777.939 1517.37 776.11 1520.93 Q774.305 1524.47 774.305 1531.6 Q774.305 1538.71 776.11 1542.27 Q777.939 1545.82 781.55 1545.82 Q785.184 1545.82 786.99 1542.27 Q788.819 1538.71 788.819 1531.6 Q788.819 1524.47 786.99 1520.93 Q785.184 1517.37 781.55 1517.37 M781.55 1513.66 Q787.36 1513.66 790.416 1518.27 Q793.495 1522.85 793.495 1531.6 Q793.495 1540.33 790.416 1544.94 Q787.36 1549.52 781.55 1549.52 Q775.74 1549.52 772.661 1544.94 Q769.606 1540.33 769.606 1531.6 Q769.606 1522.85 772.661 1518.27 Q775.74 1513.66 781.55 1513.66 Z" fill="#000000" fill-rule="nonzero" fill-opacity="1" /><path clip-path="url(#clip980)" d="M1224.4 1514.29 L1242.76 1514.29 L1242.76 1518.22 L1228.69 1518.22 L1228.69 1526.7 Q1229.7 1526.35 1230.72 1526.19 Q1231.74 1526 1232.76 1526 Q1238.55 1526 1241.93 1529.17 Q1245.31 1532.34 1245.31 1537.76 Q1245.31 1543.34 1241.83 1546.44 Q1238.36 1549.52 1232.04 1549.52 Q1229.87 1549.52 1227.6 1549.15 Q1225.35 1548.78 1222.94 1548.04 L1222.94 1543.34 Q1225.03 1544.47 1227.25 1545.03 Q1229.47 1545.58 1231.95 1545.58 Q1235.95 1545.58 1238.29 1543.48 Q1240.63 1541.37 1240.63 1537.76 Q1240.63 1534.15 1238.29 1532.04 Q1235.95 1529.94 1231.95 1529.94 Q1230.07 1529.94 1228.2 1530.35 Q1226.35 1530.77 1224.4 1531.65 L1224.4 1514.29 Z" fill="#000000" fill-rule="nonzero" fill-opacity="1" /><path clip-path="url(#clip980)" d="M1264.52 1517.37 Q1260.91 1517.37 1259.08 1520.93 Q1257.27 1524.47 1257.27 1531.6 Q1257.27 1538.71 1259.08 1542.27 Q1260.91 1545.82 1264.52 1545.82 Q1268.15 1545.82 1269.96 1542.27 Q1271.79 1538.71 1271.79 1531.6 Q1271.79 1524.47 1269.96 1520.93 Q1268.15 1517.37 1264.52 1517.37 M1264.52 1513.66 Q1270.33 1513.66 1273.38 1518.27 Q1276.46 1522.85 1276.46 1531.6 Q1276.46 1540.33 1273.38 1544.94 Q1270.33 1549.52 1264.52 1549.52 Q1258.71 1549.52 1255.63 1544.94 Q1252.57 1540.33 1252.57 1531.6 Q1252.57 1522.85 1255.63 1518.27 Q1258.71 1513.66 1264.52 1513.66 Z" fill="#000000" fill-rule="nonzero" fill-opacity="1" /><path clip-path="url(#clip980)" d="M1294.68 1517.37 Q1291.07 1517.37 1289.24 1520.93 Q1287.44 1524.47 1287.44 1531.6 Q1287.44 1538.71 1289.24 1542.27 Q1291.07 1545.82 1294.68 1545.82 Q1298.31 1545.82 1300.12 1542.27 Q1301.95 1538.71 1301.95 1531.6 Q1301.95 1524.47 1300.12 1520.93 Q1298.31 1517.37 1294.68 1517.37 M1294.68 1513.66 Q1300.49 1513.66 1303.55 1518.27 Q1306.62 1522.85 1306.62 1531.6 Q1306.62 1540.33 1303.55 1544.94 Q1300.49 1549.52 1294.68 1549.52 Q1288.87 1549.52 1285.79 1544.94 Q1282.74 1540.33 1282.74 1531.6 Q1282.74 1522.85 1285.79 1518.27 Q1288.87 1513.66 1294.68 1513.66 Z" fill="#000000" fill-rule="nonzero" fill-opacity="1" /><path clip-path="url(#clip980)" d="M1736.28 1514.29 L1758.51 1514.29 L1758.51 1516.28 L1745.96 1548.85 L1741.08 1548.85 L1752.88 1518.22 L1736.28 1518.22 L1736.28 1514.29 Z" fill="#000000" fill-rule="nonzero" fill-opacity="1" /><path clip-path="url(#clip980)" d="M1767.67 1514.29 L1786.03 1514.29 L1786.03 1518.22 L1771.95 1518.22 L1771.95 1526.7 Q1772.97 1526.35 1773.99 1526.19 Q1775.01 1526 1776.03 1526 Q1781.82 1526 1785.2 1529.17 Q1788.57 1532.34 1788.57 1537.76 Q1788.57 1543.34 1785.1 1546.44 Q1781.63 1549.52 1775.31 1549.52 Q1773.14 1549.52 1770.87 1549.15 Q1768.62 1548.78 1766.21 1548.04 L1766.21 1543.34 Q1768.3 1544.47 1770.52 1545.03 Q1772.74 1545.58 1775.22 1545.58 Q1779.22 1545.58 1781.56 1543.48 Q1783.9 1541.37 1783.9 1537.76 Q1783.9 1534.15 1781.56 1532.04 Q1779.22 1529.94 1775.22 1529.94 Q1773.34 1529.94 1771.47 1530.35 Q1769.62 1530.77 1767.67 1531.65 L1767.67 1514.29 Z" fill="#000000" fill-rule="nonzero" fill-opacity="1" /><path clip-path="url(#clip980)" d="M1807.79 1517.37 Q1804.18 1517.37 1802.35 1520.93 Q1800.54 1524.47 1800.54 1531.6 Q1800.54 1538.71 1802.35 1542.27 Q1804.18 1545.82 1807.79 1545.82 Q1811.42 1545.82 1813.23 1542.27 Q1815.06 1538.71 1815.06 1531.6 Q1815.06 1524.47 1813.23 1520.93 Q1811.42 1517.37 1807.79 1517.37 M1807.79 1513.66 Q1813.6 1513.66 1816.65 1518.27 Q1819.73 1522.85 1819.73 1531.6 Q1819.73 1540.33 1816.65 1544.94 Q1813.6 1549.52 1807.79 1549.52 Q1801.98 1549.52 1798.9 1544.94 Q1795.84 1540.33 1795.84 1531.6 Q1795.84 1522.85 1798.9 1518.27 Q1801.98 1513.66 1807.79 1513.66 Z" fill="#000000" fill-rule="nonzero" fill-opacity="1" /><path clip-path="url(#clip980)" d="M2235.76 1544.91 L2243.4 1544.91 L2243.4 1518.55 L2235.09 1520.21 L2235.09 1515.95 L2243.35 1514.29 L2248.02 1514.29 L2248.02 1544.91 L2255.66 1544.91 L2255.66 1548.85 L2235.76 1548.85 L2235.76 1544.91 Z" fill="#000000" fill-rule="nonzero" fill-opacity="1" /><path clip-path="url(#clip980)" d="M2275.11 1517.37 Q2271.5 1517.37 2269.67 1520.93 Q2267.86 1524.47 2267.86 1531.6 Q2267.86 1538.71 2269.67 1542.27 Q2271.5 1545.82 2275.11 1545.82 Q2278.74 1545.82 2280.55 1542.27 Q2282.38 1538.71 2282.38 1531.6 Q2282.38 1524.47 2280.55 1520.93 Q2278.74 1517.37 2275.11 1517.37 M2275.11 1513.66 Q2280.92 1513.66 2283.97 1518.27 Q2287.05 1522.85 2287.05 1531.6 Q2287.05 1540.33 2283.97 1544.94 Q2280.92 1549.52 2275.11 1549.52 Q2269.3 1549.52 2266.22 1544.94 Q2263.16 1540.33 2263.16 1531.6 Q2263.16 1522.85 2266.22 1518.27 Q2269.3 1513.66 2275.11 1513.66 Z" fill="#000000" fill-rule="nonzero" fill-opacity="1" /><path clip-path="url(#clip980)" d="M2305.27 1517.37 Q2301.66 1517.37 2299.83 1520.93 Q2298.02 1524.47 2298.02 1531.6 Q2298.02 1538.71 2299.83 1542.27 Q2301.66 1545.82 2305.27 1545.82 Q2308.9 1545.82 2310.71 1542.27 Q2312.54 1538.71 2312.54 1531.6 Q2312.54 1524.47 2310.71 1520.93 Q2308.9 1517.37 2305.27 1517.37 M2305.27 1513.66 Q2311.08 1513.66 2314.14 1518.27 Q2317.21 1522.85 2317.21 1531.6 Q2317.21 1540.33 2314.14 1544.94 Q2311.08 1549.52 2305.27 1549.52 Q2299.46 1549.52 2296.38 1544.94 Q2293.33 1540.33 2293.33 1531.6 Q2293.33 1522.85 2296.38 1518.27 Q2299.46 1513.66 2305.27 1513.66 Z" fill="#000000" fill-rule="nonzero" fill-opacity="1" /><path clip-path="url(#clip980)" d="M2335.43 1517.37 Q2331.82 1517.37 2329.99 1520.93 Q2328.19 1524.47 2328.19 1531.6 Q2328.19 1538.71 2329.99 1542.27 Q2331.82 1545.82 2335.43 1545.82 Q2339.07 1545.82 2340.87 1542.27 Q2342.7 1538.71 2342.7 1531.6 Q2342.7 1524.47 2340.87 1520.93 Q2339.07 1517.37 2335.43 1517.37 M2335.43 1513.66 Q2341.24 1513.66 2344.3 1518.27 Q2347.38 1522.85 2347.38 1531.6 Q2347.38 1540.33 2344.3 1544.94 Q2341.24 1549.52 2335.43 1549.52 Q2329.62 1549.52 2326.54 1544.94 Q2323.49 1540.33 2323.49 1531.6 Q2323.49 1522.85 2326.54 1518.27 Q2329.62 1513.66 2335.43 1513.66 Z" fill="#000000" fill-rule="nonzero" fill-opacity="1" /><polyline clip-path="url(#clip980)" style="stroke:#000000; stroke-linecap:round; stroke-linejoin:round; stroke-width:4; stroke-opacity:1; fill:none" points="178.867,1486.45 178.867,847.244 "/>
<polyline clip-path="url(#clip980)" style="stroke:#000000; stroke-linecap:round; stroke-linejoin:round; stroke-width:4; stroke-opacity:1; fill:none" points="178.867,1486.45 197.764,1486.45 "/>
<polyline clip-path="url(#clip980)" style="stroke:#000000; stroke-linecap:round; stroke-linejoin:round; stroke-width:4; stroke-opacity:1; fill:none" points="178.867,1326.65 197.764,1326.65 "/>
<polyline clip-path="url(#clip980)" style="stroke:#000000; stroke-linecap:round; stroke-linejoin:round; stroke-width:4; stroke-opacity:1; fill:none" points="178.867,1166.85 197.764,1166.85 "/>
<polyline clip-path="url(#clip980)" style="stroke:#000000; stroke-linecap:round; stroke-linejoin:round; stroke-width:4; stroke-opacity:1; fill:none" points="178.867,1007.05 197.764,1007.05 "/>
<polyline clip-path="url(#clip980)" style="stroke:#000000; stroke-linecap:round; stroke-linejoin:round; stroke-width:4; stroke-opacity:1; fill:none" points="178.867,847.244 197.764,847.244 "/>
<path clip-path="url(#clip980)" d="M50.9921 1486.9 L80.6679 1486.9 L80.6679 1490.83 L50.9921 1490.83 L50.9921 1486.9 Z" fill="#000000" fill-rule="nonzero" fill-opacity="1" /><path clip-path="url(#clip980)" d="M91.5706 1499.79 L99.2095 1499.79 L99.2095 1473.43 L90.8993 1475.09 L90.8993 1470.83 L99.1632 1469.17 L103.839 1469.17 L103.839 1499.79 L111.478 1499.79 L111.478 1503.73 L91.5706 1503.73 L91.5706 1499.79 Z" fill="#000000" fill-rule="nonzero" fill-opacity="1" /><path clip-path="url(#clip980)" d="M130.922 1472.25 Q127.311 1472.25 125.482 1475.81 Q123.677 1479.35 123.677 1486.48 Q123.677 1493.59 125.482 1497.15 Q127.311 1500.7 130.922 1500.7 Q134.556 1500.7 136.362 1497.15 Q138.191 1493.59 138.191 1486.48 Q138.191 1479.35 136.362 1475.81 Q134.556 1472.25 130.922 1472.25 M130.922 1468.54 Q136.732 1468.54 139.788 1473.15 Q142.867 1477.73 142.867 1486.48 Q142.867 1495.21 139.788 1499.82 Q136.732 1504.4 130.922 1504.4 Q125.112 1504.4 122.033 1499.82 Q118.978 1495.21 118.978 1486.48 Q118.978 1477.73 122.033 1473.15 Q125.112 1468.54 130.922 1468.54 Z" fill="#000000" fill-rule="nonzero" fill-opacity="1" /><path clip-path="url(#clip980)" d="M82.1494 1327.1 L111.825 1327.1 L111.825 1331.03 L82.1494 1331.03 L82.1494 1327.1 Z" fill="#000000" fill-rule="nonzero" fill-opacity="1" /><path clip-path="url(#clip980)" d="M121.964 1309.37 L140.32 1309.37 L140.32 1313.3 L126.246 1313.3 L126.246 1321.77 Q127.265 1321.43 128.283 1321.27 Q129.302 1321.08 130.32 1321.08 Q136.107 1321.08 139.487 1324.25 Q142.867 1327.42 142.867 1332.84 Q142.867 1338.42 139.394 1341.52 Q135.922 1344.6 129.603 1344.6 Q127.427 1344.6 125.158 1344.23 Q122.913 1343.86 120.506 1343.12 L120.506 1338.42 Q122.589 1339.55 124.811 1340.11 Q127.033 1340.66 129.51 1340.66 Q133.515 1340.66 135.853 1338.56 Q138.191 1336.45 138.191 1332.84 Q138.191 1329.23 135.853 1327.12 Q133.515 1325.01 129.51 1325.01 Q127.635 1325.01 125.76 1325.43 Q123.908 1325.85 121.964 1326.73 L121.964 1309.37 Z" fill="#000000" fill-rule="nonzero" fill-opacity="1" /><path clip-path="url(#clip980)" d="M130.922 1152.64 Q127.311 1152.64 125.482 1156.21 Q123.677 1159.75 123.677 1166.88 Q123.677 1173.99 125.482 1177.55 Q127.311 1181.09 130.922 1181.09 Q134.556 1181.09 136.362 1177.55 Q138.191 1173.99 138.191 1166.88 Q138.191 1159.75 136.362 1156.21 Q134.556 1152.64 130.922 1152.64 M130.922 1148.94 Q136.732 1148.94 139.788 1153.55 Q142.867 1158.13 142.867 1166.88 Q142.867 1175.61 139.788 1180.21 Q136.732 1184.8 130.922 1184.8 Q125.112 1184.8 122.033 1180.21 Q118.978 1175.61 118.978 1166.88 Q118.978 1158.13 122.033 1153.55 Q125.112 1148.94 130.922 1148.94 Z" fill="#000000" fill-rule="nonzero" fill-opacity="1" /><path clip-path="url(#clip980)" d="M121.964 989.765 L140.32 989.765 L140.32 993.7 L126.246 993.7 L126.246 1002.17 Q127.265 1001.83 128.283 1001.66 Q129.302 1001.48 130.32 1001.48 Q136.107 1001.48 139.487 1004.65 Q142.867 1007.82 142.867 1013.24 Q142.867 1018.82 139.394 1021.92 Q135.922 1025 129.603 1025 Q127.427 1025 125.158 1024.63 Q122.913 1024.26 120.506 1023.51 L120.506 1018.82 Q122.589 1019.95 124.811 1020.51 Q127.033 1021.06 129.51 1021.06 Q133.515 1021.06 135.853 1018.95 Q138.191 1016.85 138.191 1013.24 Q138.191 1009.63 135.853 1007.52 Q133.515 1005.41 129.51 1005.41 Q127.635 1005.41 125.76 1005.83 Q123.908 1006.25 121.964 1007.13 L121.964 989.765 Z" fill="#000000" fill-rule="nonzero" fill-opacity="1" /><path clip-path="url(#clip980)" d="M91.5706 860.589 L99.2095 860.589 L99.2095 834.223 L90.8993 835.89 L90.8993 831.631 L99.1632 829.964 L103.839 829.964 L103.839 860.589 L111.478 860.589 L111.478 864.524 L91.5706 864.524 L91.5706 860.589 Z" fill="#000000" fill-rule="nonzero" fill-opacity="1" /><path clip-path="url(#clip980)" d="M130.922 833.043 Q127.311 833.043 125.482 836.608 Q123.677 840.149 123.677 847.279 Q123.677 854.385 125.482 857.95 Q127.311 861.492 130.922 861.492 Q134.556 861.492 136.362 857.95 Q138.191 854.385 138.191 847.279 Q138.191 840.149 136.362 836.608 Q134.556 833.043 130.922 833.043 M130.922 829.339 Q136.732 829.339 139.788 833.946 Q142.867 838.529 142.867 847.279 Q142.867 856.006 139.788 860.612 Q136.732 865.195 130.922 865.195 Q125.112 865.195 122.033 860.612 Q118.978 856.006 118.978 847.279 Q118.978 838.529 122.033 833.946 Q125.112 829.339 130.922 829.339 Z" fill="#000000" fill-rule="nonzero" fill-opacity="1" /><polyline clip-path="url(#clip983)" style="stroke:#009af9; stroke-linecap:round; stroke-linejoin:round; stroke-width:4; stroke-opacity:1; fill:none" points="240.392,1134.89 242.445,1157.81 244.498,1138.94 246.55,1088 248.603,1186.83 250.656,1183.03 252.709,1219.2 254.762,1288.04 256.815,1145.66 258.868,1323.73 260.921,1271.92 262.974,1322.09 265.027,952.658 267.079,1135.72 269.132,1287.12 271.185,1211.36 273.238,1595.23 275.291,635.51 277.344,522.633 279.397,1258.48 281.45,1084.81 283.503,1163.33 285.555,1103.43 287.608,1127.67 289.661,1189.74 291.714,1153.53 293.767,1169.88 295.82,1205.96 297.873,1205.38 299.926,1133.97 301.979,1144.06 304.031,1191.92 306.084,1031.49 308.137,998.427 310.19,790.653 312.243,1143.23 314.296,1138.17 316.349,1124.62 318.402,1150.92 320.455,1241.41 322.507,974.896 324.56,1567.08 326.613,1123.53 328.666,1380.68 330.719,1178.11 332.772,1116.89 334.825,1114.5 336.878,1180.92 338.931,1197.81 340.984,1149.27 343.036,1139.1 345.089,1233.44 347.142,1031.42 349.195,1191.5 351.248,1190.47 353.301,1312.1 355.354,1289.98 357.407,1067.67 359.46,1314.54 361.512,1181.74 363.565,1192.26 365.618,1139.7 367.671,1147.75 369.724,1160.56 371.777,1176.08 373.83,1108.6 375.883,1148.17 377.936,1127.65 379.988,1188.12 382.041,1153.07 384.094,1141.95 386.147,1175.09 388.2,1149.82 390.253,1053.35 392.306,1232.9 394.359,1118.62 396.412,1079.22 398.464,1142.4 400.517,1128.72 402.57,1169.71 404.623,1170.34 406.676,1166.01 408.729,1172.09 410.782,1148.5 412.835,1199.45 414.888,1292 416.94,1374.6 418.993,-88.8504 421.046,1305.85 423.099,1193.19 425.152,1154.28 427.205,1249.86 429.258,1085.3 431.311,1131.86 433.364,1146.33 435.417,1054.67 437.469,1313.12 439.522,1160.35 441.575,1244.98 443.628,1291.85 445.681,1183.28 447.734,1211.58 449.787,1156.9 451.84,743.739 453.893,418.393 455.945,891.3 457.998,1025.77 460.051,1178.53 462.104,1159.35 464.157,1280 466.21,913.884 468.263,1153.37 470.316,1148.51 472.369,1171.2 474.421,1158.95 476.474,1182.09 478.527,1146.22 480.58,1169.41 482.633,1163.89 484.686,1197.27 486.739,1052.8 488.792,1268.35 490.845,1146.47 492.897,1198.49 494.95,1090.76 497.003,1286.97 499.056,1093.7 501.109,1051 503.162,1126.68 505.215,1114.33 507.268,1180.27 509.321,1200.06 511.374,1218.12 513.426,1173.29 515.479,1138.36 517.532,1103.84 519.585,1450.37 521.638,68.198 523.691,7151.98 525.744,5757.78 527.797,3062.55 529.85,3927.5 531.902,2182.77 533.955,1700.56 536.008,1169.18 538.061,1194.96 540.114,1117.29 542.167,1227.02 544.22,1142.5 546.273,1209.55 548.326,1298.77 550.378,1382.91 552.431,1334.39 554.484,1186.94 556.537,1032.24 558.59,1376.55 560.643,1146.19 562.696,1252.56 564.749,1274.19 566.802,1188.74 568.854,947.365 570.907,1144.9 572.96,1319.2 575.013,1095.6 577.066,1157.2 579.119,1144.64 581.172,1202.28 583.225,1203.79 585.278,1176 587.331,1117.69 589.383,1132.6 591.436,1147.68 593.489,1357.97 595.542,2322.66 597.595,1419.46 599.648,1041.04 601.701,1141.31 603.754,1154.21 605.807,1072.68 607.859,860.604 609.912,1109.2 611.965,1182.24 614.018,1189.65 616.071,1174.46 618.124,1201.79 620.177,1142.5 622.23,1155.58 624.283,1149.69 626.335,1192.1 628.388,1173.67 630.441,1190.54 632.494,1176.05 634.547,1180.65 636.6,1150.05 638.653,1175.3 640.706,1177.14 642.759,1220.61 644.811,1147.06 646.864,1222.44 648.917,1286.12 650.97,1235.88 653.023,1310.6 655.076,1069.93 657.129,1158.56 659.182,1163.64 661.235,835.79 663.288,1363.35 665.34,930.793 667.393,947.207 669.446,1631.02 671.499,876.169 673.552,586.775 675.605,663.537 677.658,580.096 679.711,1648.4 681.764,1366.14 683.816,1410.4 685.869,1184.27 687.922,1197.62 689.975,1174.75 692.028,1175.3 694.081,1167.17 696.134,1188.59 698.187,1168.28 700.24,1136.89 702.292,1138.32 704.345,1138.42 706.398,1188.35 708.451,1219.45 710.504,1162.01 712.557,1176.13 714.61,1182.17 716.663,1180.12 718.716,1103.82 720.768,1190.99 722.821,1178.04 724.874,1182.45 726.927,1158.29 728.98,1152.93 731.033,1154.09 733.086,1153.55 735.139,1174.97 737.192,1163.14 739.245,1152.56 741.297,1108.64 743.35,1185.02 745.403,1063.13 747.456,1192.3 749.509,1150.47 751.562,1192.17 753.615,1148.92 755.668,1171.06 757.721,1154.66 759.773,1181.22 761.826,1159.23 763.879,1156.55 765.932,1164.76 767.985,1158.71 770.038,1125.89 772.091,1244.66 774.144,1130.95 776.197,1313.73 778.249,1249.21 780.302,1356.18 782.355,952.191 784.408,892.053 786.461,1485.51 788.514,1614.64 790.567,702.387 792.62,1529.04 794.673,1731.95 796.725,605.695 798.778,1242.14 800.831,1149.97 802.884,1115.8 804.937,1243.29 806.99,903.335 809.043,1241.66 811.096,1181.21 813.149,1264.07 815.202,1330.37 817.254,1148.1 819.307,1266.08 821.36,1248.32 823.413,1147.36 825.466,1111.82 827.519,1126.26 829.572,1418.58 831.625,1075.21 833.678,1214.51 835.73,1111.49 837.783,1092.14 839.836,1220.13 841.889,1051.5 843.942,1075.33 845.995,1186.6 848.048,1145.85 850.101,1178.35 852.154,1195.66 854.206,1371.54 856.259,1182.74 858.312,1183.6 860.365,1222.71 862.418,1241.18 864.471,1079.73 866.524,1338.37 868.577,1328.88 870.63,1413.45 872.682,1117.78 874.735,1115.38 876.788,1095.84 878.841,1151.44 880.894,1114.97 882.947,1288.99 885,1187.33 887.053,1170.74 889.106,1184.03 891.159,1186.88 893.211,1144.73 895.264,1223.74 897.317,1253.4 899.37,1095.78 901.423,1209.57 903.476,1144.12 905.529,1164.26 907.582,1130.17 909.635,1372.05 911.687,1134.11 913.74,1143.68 915.793,1201.28 917.846,1234.41 919.899,1126.86 921.952,1120.71 924.005,1188.92 926.058,1187.34 928.111,1221.59 930.163,1154.1 932.216,1215.46 934.269,1272.02 936.322,1222.79 938.375,1148.11 940.428,1215.9 942.481,1131.86 944.534,1280.12 946.587,1056.63 948.639,1143.85 950.692,1211.23 952.745,1146.17 954.798,1144.71 956.851,1179.75 958.904,1116.15 960.957,1103.33 963.01,997.584 965.063,1139.42 967.116,1190.04 969.168,1249.99 971.221,1127.11 973.274,1100.09 975.327,1024.95 977.38,1025.66 979.433,1203.51 981.486,1028.31 983.539,1334.81 985.592,1129.68 987.644,1352.66 989.697,1122.59 991.75,1144.32 993.803,1232.63 995.856,1158.43 997.909,1183.89 999.962,1216.85 1002.01,1189.08 1004.07,1183.59 1006.12,1130.19 1008.17,1140.19 1010.23,1185.67 1012.28,1132.48 1014.33,1174.85 1016.38,1191.65 1018.44,1163.23 1020.49,1170.26 1022.54,1169.83 1024.6,1169.96 1026.65,1153.15 1028.7,1163.78 1030.76,1242.19 1032.81,1206.32 1034.86,1145.78 1036.91,1274.07 1038.97,1165.22 1041.02,1165.44 1043.07,1152.4 1045.13,1129.58 1047.18,1175.1 1049.23,1161.39 1051.28,1204.99 1053.34,1232.79 1055.39,1091.67 1057.44,1260.66 1059.5,1235.16 1061.55,1228.21 1063.6,1143.4 1065.65,1235.16 1067.71,1214.34 1069.76,1077.89 1071.81,1248.31 1073.87,1097.35 1075.92,1207.07 1077.97,1159.18 1080.02,1123.59 1082.08,1261.4 1084.13,1175.39 1086.18,995.387 1088.24,1830.46 1090.29,1502.35 1092.34,927.511 1094.39,1193.59 1096.45,1206 1098.5,1164.22 1100.55,1170.04 1102.61,1171 1104.66,1181.37 1106.71,1102.69 1108.77,1146.44 1110.82,1199.03 1112.87,1221.21 1114.92,1148.03 1116.98,1171.65 1119.03,1136.41 1121.08,1197.23 1123.14,1326.17 1125.19,1060 1127.24,1091.83 1129.29,1284.78 1131.35,1136.4 1133.4,1224.14 1135.45,1180.2 1137.51,1030.65 1139.56,1172.3 1141.61,1192.08 1143.66,1208.21 1145.72,1096.68 1147.77,1092.07 1149.82,1131.26 1151.88,1103.26 1153.93,1268.72 1155.98,913.892 1158.03,1106.72 1160.09,1076.5 1162.14,1158.73 1164.19,1154.08 1166.25,1122.37 1168.3,1018.81 1170.35,1006.18 1172.4,1088.21 1174.46,1198.73 1176.51,1206.08 1178.56,1247.93 1180.62,1206.25 1182.67,1071.09 1184.72,1110.04 1186.77,1186.08 1188.83,1235.43 1190.88,1259.32 1192.93,1242.39 1194.99,1044.1 1197.04,1018.74 1199.09,1034.52 1201.15,1141.61 1203.2,1182.27 1205.25,1140.84 1207.3,1179.64 1209.36,1167.64 1211.41,1177.48 1213.46,1169.06 1215.52,1192.37 1217.57,1196.83 1219.62,1146.12 1221.67,1095.42 1223.73,1302.97 1225.78,1140.94 1227.83,1201.24 1229.89,1155.62 1231.94,1172.66 1233.99,1170.22 1236.04,1168.43 1238.1,1182.7 1240.15,1157.24 1242.2,1205.16 1244.26,1233.06 1246.31,1097.57 1248.36,1180.41 1250.41,1176.39 1252.47,1111.79 1254.52,1197.92 1256.57,1148.39 1258.63,1118.68 1260.68,1200.23 1262.73,1157.49 1264.78,1133.84 1266.84,1130.27 1268.89,1211.41 1270.94,1235.8 1273,1184.75 1275.05,1148.41 1277.1,1221.98 1279.16,1081.44 1281.21,1359.3 1283.26,1185.87 1285.31,1197.13 1287.37,1162.41 1289.42,1170.05 1291.47,1163.26 1293.53,1152.53 1295.58,1155.18 1297.63,1111.68 1299.68,1140.27 1301.74,1175.32 1303.79,1153.71 1305.84,1172.75 1307.9,1138.04 1309.95,1193.46 1312,1186.39 1314.05,1190.36 1316.11,1209.5 1318.16,1170.28 1320.21,1156.13 1322.27,1176.28 1324.32,1158.19 1326.37,1175.5 1328.42,1189.85 1330.48,1150.42 1332.53,1143.01 1334.58,993.73 1336.64,1168.82 1338.69,1219.86 1340.74,1180.21 1342.79,1169.68 1344.85,1228.92 1346.9,1127.05 1348.95,1125.89 1351.01,1140.13 1353.06,1188.49 1355.11,1159.4 1357.16,1155.59 1359.22,1156.15 1361.27,1150.89 1363.32,1147.51 1365.38,1162.44 1367.43,1208.82 1369.48,1247.97 1371.54,928.006 1373.59,1438.04 1375.64,143.499 1377.69,1489.47 1379.75,1536.5 1381.8,1547.14 1383.85,1176.78 1385.91,1181.04 1387.96,1124.53 1390.01,1077.78 1392.06,1154.35 1394.12,1227.4 1396.17,1186.64 1398.22,1155.61 1400.28,1194.48 1402.33,1191.61 1404.38,1187.02 1406.43,1144.6 1408.49,1192.97 1410.54,1191.05 1412.59,1150.33 1414.65,1173.81 1416.7,1169.21 1418.75,1162.5 1420.8,1167.41 1422.86,1175.5 1424.91,1061.7 1426.96,1103.24 1429.02,1177.36 1431.07,1185.99 1433.12,1067.21 1435.17,1199.23 1437.23,1173.43 1439.28,1182.18 1441.33,1129.38 1443.39,1218.25 1445.44,1145.63 1447.49,1165.56 1449.55,1152.8 1451.6,1192.12 1453.65,1161.28 1455.7,1175.53 1457.76,1162.79 1459.81,1181.32 1461.86,1191.7 1463.92,1191.45 1465.97,1010.93 1468.02,1056.72 1470.07,-569.071 1472.13,4046.74 1474.18,-1854.8 1476.23,3186.93 1478.29,521.775 1480.34,1190.06 1482.39,1218.65 1484.44,1192.72 1486.5,1183.56 1488.55,1172.41 1490.6,1175.49 1492.66,1232.02 1494.71,1199.22 1496.76,1473.23 1498.81,-93.8146 1500.87,-147.297 1502.92,4792.69 1504.97,2855.53 1507.03,2218.35 1509.08,895.908 1511.13,1376.63 1513.18,1226.31 1515.24,1670.4 1517.29,-1092.81 1519.34,868.682 1521.4,1037.91 1523.45,1318.04 1525.5,877.989 1527.55,444.253 1529.61,2425.74 1531.66,935.732 1533.71,1179.18 1535.77,1144.39 1537.82,1163.15 1539.87,1168.42 1541.93,1169.09 1543.98,1165.21 1546.03,1159.85 1548.08,1130.89 1550.14,1190.57 1552.19,1215.19 1554.24,1172.3 1556.3,1200.34 1558.35,1232.63 1560.4,853.158 1562.45,611.561 1564.51,760.351 1566.56,1293.59 1568.61,889.116 1570.67,1202.51 1572.72,1229.34 1574.77,1255.48 1576.82,1275.65 1578.88,1155.23 1580.93,1178.98 1582.98,1148.57 1585.04,1136.6 1587.09,1208.35 1589.14,1219.31 1591.19,1222.52 1593.25,1092.08 1595.3,1120.4 1597.35,1064.34 1599.41,1158.77 1601.46,1124.78 1603.51,1275.75 1605.56,1196.74 1607.62,1213.03 1609.67,1039.19 1611.72,1083.42 1613.78,1148.82 1615.83,1183.54 1617.88,1004.89 1619.94,1038.07 1621.99,1283.46 1624.04,1160.43 1626.09,1202.77 1628.15,1144.9 1630.2,1140.74 1632.25,1188.15 1634.31,1187.07 1636.36,1231.92 1638.41,930.899 1640.46,1080.86 1642.52,1249.76 1644.57,1100.56 1646.62,1157.65 1648.68,1115.07 1650.73,1200.98 1652.78,1209.3 1654.83,1147.66 1656.89,1131.37 1658.94,1155.6 1660.99,1136.95 1663.05,1068.03 1665.1,1234.91 1667.15,1239.08 1669.2,1201.46 1671.26,1172.83 1673.31,1155.92 1675.36,1161.86 1677.42,1198.4 1679.47,1185.65 1681.52,1155.76 1683.57,1149.14 1685.63,1206.49 1687.68,1285.51 1689.73,1085.65 1691.79,1137.67 1693.84,1130.31 1695.89,1095.27 1697.94,875.848 1700,1554.66 1702.05,943.347 1704.1,1273.64 1706.16,1161.55 1708.21,1178.49 1710.26,1184.23 1712.32,1036.07 1714.37,1063.94 1716.42,1082.44 1718.47,1293.63 1720.53,1006.19 1722.58,1010.31 1724.63,1063.12 1726.69,1294.1 1728.74,1044.34 1730.79,1133.16 1732.84,1166.05 1734.9,1168.13 1736.95,1180.42 1739,1321.52 1741.06,1122.66 1743.11,1164.66 1745.16,1168.27 1747.21,1137.02 1749.27,1230.61 1751.32,1211.9 1753.37,1062.07 1755.43,1035.82 1757.48,1374.56 1759.53,1268.33 1761.58,1221.59 1763.64,1146.33 1765.69,1194.65 1767.74,1131.55 1769.8,1185.81 1771.85,1220.24 1773.9,1207.95 1775.95,1142.64 1778.01,1143.53 1780.06,1205.26 1782.11,1148.01 1784.17,1225.78 1786.22,1144.72 1788.27,1230.55 1790.33,1194.86 1792.38,1153.82 1794.43,1150.53 1796.48,1151.22 1798.54,1165.55 1800.59,1331.95 1802.64,1179.45 1804.7,1240.77 1806.75,1198.09 1808.8,1171.65 1810.85,1178.04 1812.91,1115.84 1814.96,1149.71 1817.01,1159.29 1819.07,1173.69 1821.12,1161.79 1823.17,1262.75 1825.22,1197.4 1827.28,1157.33 1829.33,1111.96 1831.38,1155.52 1833.44,1034.28 1835.49,2408.19 1837.54,1228.81 1839.59,838.399 1841.65,1667.9 1843.7,1240.2 1845.75,1111.52 1847.81,1197.37 1849.86,1151.47 1851.91,1126.69 1853.96,1146.38 1856.02,1157.47 1858.07,1149.78 1860.12,1160.67 1862.18,1252.35 1864.23,1191.2 1866.28,1183.84 1868.34,1074.83 1870.39,1179.01 1872.44,1144.56 1874.49,1145.02 1876.55,1118.6 1878.6,1136.24 1880.65,1108.08 1882.71,1216.6 1884.76,1106.89 1886.81,1144.7 1888.86,1186.49 1890.92,1154.61 1892.97,1091.7 1895.02,1113.51 1897.08,1118.57 1899.13,1119.09 1901.18,1135.08 1903.23,1236.8 1905.29,1180.63 1907.34,1159.28 1909.39,1157.41 1911.45,1228.52 1913.5,1181.62 1915.55,1182.95 1917.6,1170.32 1919.66,1164.8 1921.71,1095.42 1923.76,1337.04 1925.82,886.061 1927.87,1519.13 1929.92,1273.53 1931.97,1313.11 1934.03,1534.02 1936.08,1339.3 1938.13,1090.21 1940.19,1126.28 1942.24,1143.35 1944.29,1258.21 1946.34,1242.19 1948.4,1176.67 1950.45,1178.6 1952.5,1160.14 1954.56,1312 1956.61,1185.2 1958.66,1300.71 1960.72,1224.24 1962.77,1189.66 1964.82,1127.93 1966.87,1226.69 1968.93,1176.13 1970.98,1129.53 1973.03,1148.31 1975.09,1114.64 1977.14,1214.33 1979.19,1136.52 1981.24,1147.46 1983.3,1144.09 1985.35,1173.94 1987.4,1120.66 1989.46,1085.85 1991.51,1131.82 1993.56,1167.19 1995.61,1155.19 1997.67,1167.03 1999.72,1187.24 2001.77,1155.31 2003.83,1240.48 2005.88,1085.98 2007.93,1169.53 2009.98,1168.22 2012.04,1166.67 2014.09,1205.81 2016.14,1155.64 2018.2,1216.45 2020.25,1180.55 2022.3,1185.89 2024.35,1164.76 2026.41,785.727 2028.46,1206.96 2030.51,1213.42 2032.57,1279.04 2034.62,823.135 2036.67,1198.35 2038.73,1187.51 2040.78,1236.67 2042.83,1178.64 2044.88,1166.22 2046.94,1193.93 2048.99,1126.57 2051.04,1209.88 2053.1,1196.54 2055.15,1110.53 2057.2,1147.85 2059.25,1177.24 2061.31,1191.88 2063.36,1183.71 2065.41,1118.75 2067.47,1233.32 2069.52,1217.79 2071.57,1191.95 2073.62,1145.38 2075.68,1074.5 2077.73,1127.41 2079.78,1158.6 2081.84,468.981 2083.89,1287.19 2085.94,1174.7 2087.99,1154.43 2090.05,973.21 2092.1,1182.6 2094.15,1205.48 2096.21,1188.81 2098.26,1238.59 2100.31,1151.54 2102.36,1142.99 2104.42,1163.85 2106.47,1157.01 2108.52,1157.78 2110.58,1091.86 2112.63,1077.91 2114.68,1249.97 2116.73,1219.99 2118.79,1283.89 2120.84,1246.19 2122.89,1192.39 2124.95,1148.77 2127,1166.76 2129.05,1179.39 2131.11,1169.8 2133.16,1162.77 2135.21,1154.61 2137.26,1243.59 2139.32,1205.99 2141.37,1161.86 2143.42,1184.18 2145.48,1156.08 2147.53,1167.82 2149.58,1156.33 2151.63,1069.87 2153.69,1160.02 2155.74,1185.52 2157.79,1166.04 2159.85,1209.66 2161.9,1151.09 2163.95,1188.82 2166,1254.84 2168.06,1295.58 2170.11,1175.54 2172.16,1160.26 2174.22,1168.02 2176.27,1171.22 2178.32,1156.34 2180.37,1174.72 2182.43,1169.37 2184.48,1141.96 2186.53,1232.44 2188.59,1246.26 2190.64,1257.57 2192.69,1330.99 2194.74,1233 2196.8,1118.17 2198.85,1232.85 2200.9,1111.87 2202.96,1029.6 2205.01,1282.19 2207.06,1088.29 2209.12,1185.07 2211.17,1161.69 2213.22,1154.27 2215.27,1182.08 2217.33,1175.5 2219.38,1156.71 2221.43,1169.17 2223.49,1161.25 2225.54,1190.09 2227.59,1139.17 2229.64,1145.27 2231.7,1135.18 2233.75,1167.19 2235.8,1173.69 2237.86,1169.38 2239.91,1424.31 2241.96,1396.64 2244.01,1133.29 2246.07,1184.44 2248.12,1156.27 2250.17,1143.18 2252.23,1204.39 2254.28,1095.95 2256.33,1132.34 2258.38,1160.11 2260.44,1182.23 2262.49,1141.99 2264.54,1209.84 2266.6,1175.28 2268.65,1163.47 2270.7,858.113 2272.75,1155.4 2274.81,1249.72 2276.86,1558.77 2278.91,775.417 2280.97,1161.16 2283.02,1032.67 2285.07,1286.15 2287.12,1142.59 2289.18,1167.43 2291.23,1160.54 "/>
<path clip-path="url(#clip980)" d="M1942.7 1465.14 L2280.29 1465.14 L2280.29 1361.46 L1942.7 1361.46  Z" fill="#ffffff" fill-rule="evenodd" fill-opacity="1"/>
<polyline clip-path="url(#clip980)" style="stroke:#000000; stroke-linecap:round; stroke-linejoin:round; stroke-width:4; stroke-opacity:1; fill:none" points="1942.7,1465.14 2280.29,1465.14 2280.29,1361.46 1942.7,1361.46 1942.7,1465.14 "/>
<polyline clip-path="url(#clip980)" style="stroke:#009af9; stroke-linecap:round; stroke-linejoin:round; stroke-width:4; stroke-opacity:1; fill:none" points="1966.85,1413.3 2111.78,1413.3 "/>
<path clip-path="url(#clip980)" d="M2161.49 1425.65 L2161.49 1416.37 L2153.85 1416.37 L2153.85 1412.53 L2166.12 1412.53 L2166.12 1427.36 Q2163.41 1429.28 2160.14 1430.28 Q2156.88 1431.25 2153.18 1431.25 Q2145.07 1431.25 2140.49 1426.53 Q2135.93 1421.78 2135.93 1413.34 Q2135.93 1404.86 2140.49 1400.14 Q2145.07 1395.4 2153.18 1395.4 Q2156.56 1395.4 2159.59 1396.23 Q2162.64 1397.06 2165.21 1398.68 L2165.21 1403.66 Q2162.62 1401.46 2159.7 1400.35 Q2156.79 1399.24 2153.57 1399.24 Q2147.23 1399.24 2144.03 1402.78 Q2140.86 1406.32 2140.86 1413.34 Q2140.86 1420.33 2144.03 1423.87 Q2147.23 1427.41 2153.57 1427.41 Q2156.05 1427.41 2157.99 1426.99 Q2159.94 1426.55 2161.49 1425.65 Z" fill="#000000" fill-rule="nonzero" fill-opacity="1" /><path clip-path="url(#clip980)" d="M2179.33 1399.86 L2179.33 1412.85 L2185.21 1412.85 Q2188.48 1412.85 2190.26 1411.16 Q2192.04 1409.47 2192.04 1406.35 Q2192.04 1403.24 2190.26 1401.55 Q2188.48 1399.86 2185.21 1399.86 L2179.33 1399.86 M2174.66 1396.02 L2185.21 1396.02 Q2191.02 1396.02 2193.99 1398.66 Q2196.97 1401.28 2196.97 1406.35 Q2196.97 1411.46 2193.99 1414.08 Q2191.02 1416.69 2185.21 1416.69 L2179.33 1416.69 L2179.33 1430.58 L2174.66 1430.58 L2174.66 1396.02 Z" fill="#000000" fill-rule="nonzero" fill-opacity="1" /><path clip-path="url(#clip980)" d="M2223.96 1397.16 L2223.96 1401.72 Q2221.3 1400.44 2218.94 1399.82 Q2216.58 1399.19 2214.38 1399.19 Q2210.56 1399.19 2208.48 1400.67 Q2206.42 1402.16 2206.42 1404.89 Q2206.42 1407.18 2207.78 1408.36 Q2209.17 1409.52 2213.01 1410.23 L2215.84 1410.81 Q2221.07 1411.81 2223.55 1414.33 Q2226.05 1416.83 2226.05 1421.04 Q2226.05 1426.07 2222.67 1428.66 Q2219.31 1431.25 2212.81 1431.25 Q2210.35 1431.25 2207.57 1430.7 Q2204.82 1430.14 2201.86 1429.05 L2201.86 1424.24 Q2204.7 1425.84 2207.44 1426.65 Q2210.17 1427.46 2212.81 1427.46 Q2216.81 1427.46 2218.99 1425.88 Q2221.16 1424.31 2221.16 1421.39 Q2221.16 1418.85 2219.59 1417.41 Q2218.04 1415.97 2214.47 1415.26 L2211.62 1414.7 Q2206.39 1413.66 2204.06 1411.44 Q2201.72 1409.22 2201.72 1405.26 Q2201.72 1400.67 2204.94 1398.03 Q2208.18 1395.4 2213.85 1395.4 Q2216.28 1395.4 2218.8 1395.84 Q2221.32 1396.28 2223.96 1397.16 Z" fill="#000000" fill-rule="nonzero" fill-opacity="1" /><path clip-path="url(#clip980)" d="M2254.06 1397.16 L2254.06 1401.72 Q2251.39 1400.44 2249.03 1399.82 Q2246.67 1399.19 2244.47 1399.19 Q2240.65 1399.19 2238.57 1400.67 Q2236.51 1402.16 2236.51 1404.89 Q2236.51 1407.18 2237.87 1408.36 Q2239.26 1409.52 2243.11 1410.23 L2245.93 1410.81 Q2251.16 1411.81 2253.64 1414.33 Q2256.14 1416.83 2256.14 1421.04 Q2256.14 1426.07 2252.76 1428.66 Q2249.4 1431.25 2242.9 1431.25 Q2240.44 1431.25 2237.67 1430.7 Q2234.91 1430.14 2231.95 1429.05 L2231.95 1424.24 Q2234.8 1425.84 2237.53 1426.65 Q2240.26 1427.46 2242.9 1427.46 Q2246.9 1427.46 2249.08 1425.88 Q2251.25 1424.31 2251.25 1421.39 Q2251.25 1418.85 2249.68 1417.41 Q2248.13 1415.97 2244.56 1415.26 L2241.72 1414.7 Q2236.49 1413.66 2234.15 1411.44 Q2231.81 1409.22 2231.81 1405.26 Q2231.81 1400.67 2235.03 1398.03 Q2238.27 1395.4 2243.94 1395.4 Q2246.37 1395.4 2248.89 1395.84 Q2251.42 1396.28 2254.06 1397.16 Z" fill="#000000" fill-rule="nonzero" fill-opacity="1" /></svg>
