<?xml version="1.0" encoding="utf-8"?>
<svg xmlns="http://www.w3.org/2000/svg" xmlns:xlink="http://www.w3.org/1999/xlink" width="600" height="400" viewBox="0 0 2400 1600">
<defs>
  <clipPath id="clip150">
    <rect x="0" y="0" width="2400" height="1600"/>
  </clipPath>
</defs>
<path clip-path="url(#clip150)" d="M0 1600 L2400 1600 L2400 0 L0 0  Z" fill="#ffffff" fill-rule="evenodd" fill-opacity="1"/>
<defs>
  <clipPath id="clip151">
    <rect x="242" y="47" width="2112" height="1377"/>
  </clipPath>
</defs>
<path clip-path="url(#clip150)" d="M178.867 686.448 L2352.76 686.448 L2352.76 47.2441 L178.867 47.2441  Z" fill="#ffffff" fill-rule="evenodd" fill-opacity="1"/>
<defs>
  <clipPath id="clip152">
    <rect x="178" y="47" width="2175" height="640"/>
  </clipPath>
</defs>
<polyline clip-path="url(#clip152)" style="stroke:#000000; stroke-linecap:round; stroke-linejoin:round; stroke-width:2; stroke-opacity:0.1; fill:none" points="238.339,686.448 238.339,47.2441 "/>
<polyline clip-path="url(#clip152)" style="stroke:#000000; stroke-linecap:round; stroke-linejoin:round; stroke-width:2; stroke-opacity:0.1; fill:none" points="751.562,686.448 751.562,47.2441 "/>
<polyline clip-path="url(#clip152)" style="stroke:#000000; stroke-linecap:round; stroke-linejoin:round; stroke-width:2; stroke-opacity:0.1; fill:none" points="1264.78,686.448 1264.78,47.2441 "/>
<polyline clip-path="url(#clip152)" style="stroke:#000000; stroke-linecap:round; stroke-linejoin:round; stroke-width:2; stroke-opacity:0.1; fill:none" points="1778.01,686.448 1778.01,47.2441 "/>
<polyline clip-path="url(#clip152)" style="stroke:#000000; stroke-linecap:round; stroke-linejoin:round; stroke-width:2; stroke-opacity:0.1; fill:none" points="2291.23,686.448 2291.23,47.2441 "/>
<polyline clip-path="url(#clip152)" style="stroke:#000000; stroke-linecap:round; stroke-linejoin:round; stroke-width:2; stroke-opacity:0.1; fill:none" points="178.867,686.448 2352.76,686.448 "/>
<polyline clip-path="url(#clip152)" style="stroke:#000000; stroke-linecap:round; stroke-linejoin:round; stroke-width:2; stroke-opacity:0.1; fill:none" points="178.867,526.647 2352.76,526.647 "/>
<polyline clip-path="url(#clip152)" style="stroke:#000000; stroke-linecap:round; stroke-linejoin:round; stroke-width:2; stroke-opacity:0.1; fill:none" points="178.867,366.846 2352.76,366.846 "/>
<polyline clip-path="url(#clip152)" style="stroke:#000000; stroke-linecap:round; stroke-linejoin:round; stroke-width:2; stroke-opacity:0.1; fill:none" points="178.867,207.045 2352.76,207.045 "/>
<polyline clip-path="url(#clip152)" style="stroke:#000000; stroke-linecap:round; stroke-linejoin:round; stroke-width:2; stroke-opacity:0.1; fill:none" points="178.867,47.2441 2352.76,47.2441 "/>
<polyline clip-path="url(#clip150)" style="stroke:#000000; stroke-linecap:round; stroke-linejoin:round; stroke-width:4; stroke-opacity:1; fill:none" points="178.867,686.448 2352.76,686.448 "/>
<polyline clip-path="url(#clip150)" style="stroke:#000000; stroke-linecap:round; stroke-linejoin:round; stroke-width:4; stroke-opacity:1; fill:none" points="238.339,686.448 238.339,667.55 "/>
<polyline clip-path="url(#clip150)" style="stroke:#000000; stroke-linecap:round; stroke-linejoin:round; stroke-width:4; stroke-opacity:1; fill:none" points="751.562,686.448 751.562,667.55 "/>
<polyline clip-path="url(#clip150)" style="stroke:#000000; stroke-linecap:round; stroke-linejoin:round; stroke-width:4; stroke-opacity:1; fill:none" points="1264.78,686.448 1264.78,667.55 "/>
<polyline clip-path="url(#clip150)" style="stroke:#000000; stroke-linecap:round; stroke-linejoin:round; stroke-width:4; stroke-opacity:1; fill:none" points="1778.01,686.448 1778.01,667.55 "/>
<polyline clip-path="url(#clip150)" style="stroke:#000000; stroke-linecap:round; stroke-linejoin:round; stroke-width:4; stroke-opacity:1; fill:none" points="2291.23,686.448 2291.23,667.55 "/>
<path clip-path="url(#clip150)" d="M238.339 717.367 Q234.728 717.367 232.899 720.931 Q231.094 724.473 231.094 731.603 Q231.094 738.709 232.899 742.274 Q234.728 745.815 238.339 745.815 Q241.973 745.815 243.779 742.274 Q245.607 738.709 245.607 731.603 Q245.607 724.473 243.779 720.931 Q241.973 717.367 238.339 717.367 M238.339 713.663 Q244.149 713.663 247.205 718.269 Q250.283 722.853 250.283 731.603 Q250.283 740.329 247.205 744.936 Q244.149 749.519 238.339 749.519 Q232.529 749.519 229.45 744.936 Q226.395 740.329 226.395 731.603 Q226.395 722.853 229.45 718.269 Q232.529 713.663 238.339 713.663 Z" fill="#000000" fill-rule="nonzero" fill-opacity="1" /><path clip-path="url(#clip150)" d="M715.254 744.913 L731.574 744.913 L731.574 748.848 L709.629 748.848 L709.629 744.913 Q712.291 742.158 716.875 737.528 Q721.481 732.876 722.662 731.533 Q724.907 729.01 725.787 727.274 Q726.689 725.515 726.689 723.825 Q726.689 721.07 724.745 719.334 Q722.824 717.598 719.722 717.598 Q717.523 717.598 715.069 718.362 Q712.638 719.126 709.861 720.677 L709.861 715.955 Q712.685 714.82 715.138 714.242 Q717.592 713.663 719.629 713.663 Q725 713.663 728.194 716.348 Q731.388 719.033 731.388 723.524 Q731.388 725.654 730.578 727.575 Q729.791 729.473 727.685 732.066 Q727.106 732.737 724.004 735.954 Q720.902 739.149 715.254 744.913 Z" fill="#000000" fill-rule="nonzero" fill-opacity="1" /><path clip-path="url(#clip150)" d="M741.435 714.288 L759.791 714.288 L759.791 718.223 L745.717 718.223 L745.717 726.695 Q746.736 726.348 747.754 726.186 Q748.773 726.001 749.791 726.001 Q755.578 726.001 758.958 729.172 Q762.337 732.343 762.337 737.76 Q762.337 743.339 758.865 746.44 Q755.393 749.519 749.073 749.519 Q746.898 749.519 744.629 749.149 Q742.384 748.778 739.976 748.038 L739.976 743.339 Q742.06 744.473 744.282 745.028 Q746.504 745.584 748.981 745.584 Q752.985 745.584 755.323 743.478 Q757.661 741.371 757.661 737.76 Q757.661 734.149 755.323 732.042 Q752.985 729.936 748.981 729.936 Q747.106 729.936 745.231 730.353 Q743.379 730.769 741.435 731.649 L741.435 714.288 Z" fill="#000000" fill-rule="nonzero" fill-opacity="1" /><path clip-path="url(#clip150)" d="M781.55 717.367 Q777.939 717.367 776.11 720.931 Q774.305 724.473 774.305 731.603 Q774.305 738.709 776.11 742.274 Q777.939 745.815 781.55 745.815 Q785.184 745.815 786.99 742.274 Q788.819 738.709 788.819 731.603 Q788.819 724.473 786.99 720.931 Q785.184 717.367 781.55 717.367 M781.55 713.663 Q787.36 713.663 790.416 718.269 Q793.495 722.853 793.495 731.603 Q793.495 740.329 790.416 744.936 Q787.36 749.519 781.55 749.519 Q775.74 749.519 772.661 744.936 Q769.606 740.329 769.606 731.603 Q769.606 722.853 772.661 718.269 Q775.74 713.663 781.55 713.663 Z" fill="#000000" fill-rule="nonzero" fill-opacity="1" /><path clip-path="url(#clip150)" d="M1224.4 714.288 L1242.76 714.288 L1242.76 718.223 L1228.69 718.223 L1228.69 726.695 Q1229.7 726.348 1230.72 726.186 Q1231.74 726.001 1232.76 726.001 Q1238.55 726.001 1241.93 729.172 Q1245.31 732.343 1245.31 737.76 Q1245.31 743.339 1241.83 746.44 Q1238.36 749.519 1232.04 749.519 Q1229.87 749.519 1227.6 749.149 Q1225.35 748.778 1222.94 748.038 L1222.94 743.339 Q1225.03 744.473 1227.25 745.028 Q1229.47 745.584 1231.95 745.584 Q1235.95 745.584 1238.29 743.478 Q1240.63 741.371 1240.63 737.76 Q1240.63 734.149 1238.29 732.042 Q1235.95 729.936 1231.95 729.936 Q1230.07 729.936 1228.2 730.353 Q1226.35 730.769 1224.4 731.649 L1224.4 714.288 Z" fill="#000000" fill-rule="nonzero" fill-opacity="1" /><path clip-path="url(#clip150)" d="M1264.52 717.367 Q1260.91 717.367 1259.08 720.931 Q1257.27 724.473 1257.27 731.603 Q1257.27 738.709 1259.08 742.274 Q1260.91 745.815 1264.52 745.815 Q1268.15 745.815 1269.96 742.274 Q1271.79 738.709 1271.79 731.603 Q1271.79 724.473 1269.96 720.931 Q1268.15 717.367 1264.52 717.367 M1264.52 713.663 Q1270.33 713.663 1273.38 718.269 Q1276.46 722.853 1276.46 731.603 Q1276.46 740.329 1273.38 744.936 Q1270.33 749.519 1264.52 749.519 Q1258.71 749.519 1255.63 744.936 Q1252.57 740.329 1252.57 731.603 Q1252.57 722.853 1255.63 718.269 Q1258.71 713.663 1264.52 713.663 Z" fill="#000000" fill-rule="nonzero" fill-opacity="1" /><path clip-path="url(#clip150)" d="M1294.68 717.367 Q1291.07 717.367 1289.24 720.931 Q1287.44 724.473 1287.44 731.603 Q1287.44 738.709 1289.24 742.274 Q1291.07 745.815 1294.68 745.815 Q1298.31 745.815 1300.12 742.274 Q1301.95 738.709 1301.95 731.603 Q1301.95 724.473 1300.12 720.931 Q1298.31 717.367 1294.68 717.367 M1294.68 713.663 Q1300.49 713.663 1303.55 718.269 Q1306.62 722.853 1306.62 731.603 Q1306.62 740.329 1303.55 744.936 Q1300.49 749.519 1294.68 749.519 Q1288.87 749.519 1285.79 744.936 Q1282.74 740.329 1282.74 731.603 Q1282.74 722.853 1285.79 718.269 Q1288.87 713.663 1294.68 713.663 Z" fill="#000000" fill-rule="nonzero" fill-opacity="1" /><path clip-path="url(#clip150)" d="M1736.28 714.288 L1758.51 714.288 L1758.51 716.279 L1745.96 748.848 L1741.08 748.848 L1752.88 718.223 L1736.28 718.223 L1736.28 714.288 Z" fill="#000000" fill-rule="nonzero" fill-opacity="1" /><path clip-path="url(#clip150)" d="M1767.67 714.288 L1786.03 714.288 L1786.03 718.223 L1771.95 718.223 L1771.95 726.695 Q1772.97 726.348 1773.99 726.186 Q1775.01 726.001 1776.03 726.001 Q1781.82 726.001 1785.2 729.172 Q1788.57 732.343 1788.57 737.76 Q1788.57 743.339 1785.1 746.44 Q1781.63 749.519 1775.31 749.519 Q1773.14 749.519 1770.87 749.149 Q1768.62 748.778 1766.21 748.038 L1766.21 743.339 Q1768.3 744.473 1770.52 745.028 Q1772.74 745.584 1775.22 745.584 Q1779.22 745.584 1781.56 743.478 Q1783.9 741.371 1783.9 737.76 Q1783.9 734.149 1781.56 732.042 Q1779.22 729.936 1775.22 729.936 Q1773.34 729.936 1771.47 730.353 Q1769.62 730.769 1767.67 731.649 L1767.67 714.288 Z" fill="#000000" fill-rule="nonzero" fill-opacity="1" /><path clip-path="url(#clip150)" d="M1807.79 717.367 Q1804.18 717.367 1802.35 720.931 Q1800.54 724.473 1800.54 731.603 Q1800.54 738.709 1802.35 742.274 Q1804.18 745.815 1807.79 745.815 Q1811.42 745.815 1813.23 742.274 Q1815.06 738.709 1815.06 731.603 Q1815.06 724.473 1813.23 720.931 Q1811.42 717.367 1807.79 717.367 M1807.79 713.663 Q1813.6 713.663 1816.65 718.269 Q1819.73 722.853 1819.73 731.603 Q1819.73 740.329 1816.65 744.936 Q1813.6 749.519 1807.79 749.519 Q1801.98 749.519 1798.9 744.936 Q1795.84 740.329 1795.84 731.603 Q1795.84 722.853 1798.9 718.269 Q1801.98 713.663 1807.79 713.663 Z" fill="#000000" fill-rule="nonzero" fill-opacity="1" /><path clip-path="url(#clip150)" d="M2235.76 744.913 L2243.4 744.913 L2243.4 718.547 L2235.09 720.214 L2235.09 715.955 L2243.35 714.288 L2248.02 714.288 L2248.02 744.913 L2255.66 744.913 L2255.66 748.848 L2235.76 748.848 L2235.76 744.913 Z" fill="#000000" fill-rule="nonzero" fill-opacity="1" /><path clip-path="url(#clip150)" d="M2275.11 717.367 Q2271.5 717.367 2269.67 720.931 Q2267.86 724.473 2267.86 731.603 Q2267.86 738.709 2269.67 742.274 Q2271.5 745.815 2275.11 745.815 Q2278.74 745.815 2280.55 742.274 Q2282.38 738.709 2282.38 731.603 Q2282.38 724.473 2280.55 720.931 Q2278.74 717.367 2275.11 717.367 M2275.11 713.663 Q2280.92 713.663 2283.97 718.269 Q2287.05 722.853 2287.05 731.603 Q2287.05 740.329 2283.97 744.936 Q2280.92 749.519 2275.11 749.519 Q2269.3 749.519 2266.22 744.936 Q2263.16 740.329 2263.16 731.603 Q2263.16 722.853 2266.22 718.269 Q2269.3 713.663 2275.11 713.663 Z" fill="#000000" fill-rule="nonzero" fill-opacity="1" /><path clip-path="url(#clip150)" d="M2305.27 717.367 Q2301.66 717.367 2299.83 720.931 Q2298.02 724.473 2298.02 731.603 Q2298.02 738.709 2299.83 742.274 Q2301.66 745.815 2305.27 745.815 Q2308.9 745.815 2310.71 742.274 Q2312.54 738.709 2312.54 731.603 Q2312.54 724.473 2310.71 720.931 Q2308.9 717.367 2305.27 717.367 M2305.27 713.663 Q2311.08 713.663 2314.14 718.269 Q2317.21 722.853 2317.21 731.603 Q2317.21 740.329 2314.14 744.936 Q2311.08 749.519 2305.27 749.519 Q2299.46 749.519 2296.38 744.936 Q2293.33 740.329 2293.33 731.603 Q2293.33 722.853 2296.38 718.269 Q2299.46 713.663 2305.27 713.663 Z" fill="#000000" fill-rule="nonzero" fill-opacity="1" /><path clip-path="url(#clip150)" d="M2335.43 717.367 Q2331.82 717.367 2329.99 720.931 Q2328.19 724.473 2328.19 731.603 Q2328.19 738.709 2329.99 742.274 Q2331.82 745.815 2335.43 745.815 Q2339.07 745.815 2340.87 742.274 Q2342.7 738.709 2342.7 731.603 Q2342.7 724.473 2340.87 720.931 Q2339.07 717.367 2335.43 717.367 M2335.43 713.663 Q2341.24 713.663 2344.3 718.269 Q2347.38 722.853 2347.38 731.603 Q2347.38 740.329 2344.3 744.936 Q2341.24 749.519 2335.43 749.519 Q2329.62 749.519 2326.54 744.936 Q2323.49 740.329 2323.49 731.603 Q2323.49 722.853 2326.54 718.269 Q2329.62 713.663 2335.43 713.663 Z" fill="#000000" fill-rule="nonzero" fill-opacity="1" /><polyline clip-path="url(#clip150)" style="stroke:#000000; stroke-linecap:round; stroke-linejoin:round; stroke-width:4; stroke-opacity:1; fill:none" points="178.867,686.448 178.867,47.2441 "/>
<polyline clip-path="url(#clip150)" style="stroke:#000000; stroke-linecap:round; stroke-linejoin:round; stroke-width:4; stroke-opacity:1; fill:none" points="178.867,686.448 197.764,686.448 "/>
<polyline clip-path="url(#clip150)" style="stroke:#000000; stroke-linecap:round; stroke-linejoin:round; stroke-width:4; stroke-opacity:1; fill:none" points="178.867,526.647 197.764,526.647 "/>
<polyline clip-path="url(#clip150)" style="stroke:#000000; stroke-linecap:round; stroke-linejoin:round; stroke-width:4; stroke-opacity:1; fill:none" points="178.867,366.846 197.764,366.846 "/>
<polyline clip-path="url(#clip150)" style="stroke:#000000; stroke-linecap:round; stroke-linejoin:round; stroke-width:4; stroke-opacity:1; fill:none" points="178.867,207.045 197.764,207.045 "/>
<polyline clip-path="url(#clip150)" style="stroke:#000000; stroke-linecap:round; stroke-linejoin:round; stroke-width:4; stroke-opacity:1; fill:none" points="178.867,47.2441 197.764,47.2441 "/>
<path clip-path="url(#clip150)" d="M50.9921 686.899 L80.6679 686.899 L80.6679 690.834 L50.9921 690.834 L50.9921 686.899 Z" fill="#000000" fill-rule="nonzero" fill-opacity="1" /><path clip-path="url(#clip150)" d="M91.5706 699.793 L99.2095 699.793 L99.2095 673.427 L90.8993 675.094 L90.8993 670.835 L99.1632 669.168 L103.839 669.168 L103.839 699.793 L111.478 699.793 L111.478 703.728 L91.5706 703.728 L91.5706 699.793 Z" fill="#000000" fill-rule="nonzero" fill-opacity="1" /><path clip-path="url(#clip150)" d="M130.922 672.247 Q127.311 672.247 125.482 675.811 Q123.677 679.353 123.677 686.483 Q123.677 693.589 125.482 697.154 Q127.311 700.695 130.922 700.695 Q134.556 700.695 136.362 697.154 Q138.191 693.589 138.191 686.483 Q138.191 679.353 136.362 675.811 Q134.556 672.247 130.922 672.247 M130.922 668.543 Q136.732 668.543 139.788 673.149 Q142.867 677.733 142.867 686.483 Q142.867 695.209 139.788 699.816 Q136.732 704.399 130.922 704.399 Q125.112 704.399 122.033 699.816 Q118.978 695.209 118.978 686.483 Q118.978 677.733 122.033 673.149 Q125.112 668.543 130.922 668.543 Z" fill="#000000" fill-rule="nonzero" fill-opacity="1" /><path clip-path="url(#clip150)" d="M82.1494 527.098 L111.825 527.098 L111.825 531.033 L82.1494 531.033 L82.1494 527.098 Z" fill="#000000" fill-rule="nonzero" fill-opacity="1" /><path clip-path="url(#clip150)" d="M121.964 509.367 L140.32 509.367 L140.32 513.302 L126.246 513.302 L126.246 521.774 Q127.265 521.427 128.283 521.265 Q129.302 521.08 130.32 521.08 Q136.107 521.08 139.487 524.251 Q142.867 527.422 142.867 532.839 Q142.867 538.418 139.394 541.52 Q135.922 544.598 129.603 544.598 Q127.427 544.598 125.158 544.228 Q122.913 543.857 120.506 543.117 L120.506 538.418 Q122.589 539.552 124.811 540.108 Q127.033 540.663 129.51 540.663 Q133.515 540.663 135.853 538.557 Q138.191 536.45 138.191 532.839 Q138.191 529.228 135.853 527.121 Q133.515 525.015 129.51 525.015 Q127.635 525.015 125.76 525.432 Q123.908 525.848 121.964 526.728 L121.964 509.367 Z" fill="#000000" fill-rule="nonzero" fill-opacity="1" /><path clip-path="url(#clip150)" d="M130.922 352.645 Q127.311 352.645 125.482 356.209 Q123.677 359.751 123.677 366.881 Q123.677 373.987 125.482 377.552 Q127.311 381.094 130.922 381.094 Q134.556 381.094 136.362 377.552 Q138.191 373.987 138.191 366.881 Q138.191 359.751 136.362 356.209 Q134.556 352.645 130.922 352.645 M130.922 348.941 Q136.732 348.941 139.788 353.547 Q142.867 358.131 142.867 366.881 Q142.867 375.608 139.788 380.214 Q136.732 384.797 130.922 384.797 Q125.112 384.797 122.033 380.214 Q118.978 375.608 118.978 366.881 Q118.978 358.131 122.033 353.547 Q125.112 348.941 130.922 348.941 Z" fill="#000000" fill-rule="nonzero" fill-opacity="1" /><path clip-path="url(#clip150)" d="M121.964 189.765 L140.32 189.765 L140.32 193.7 L126.246 193.7 L126.246 202.172 Q127.265 201.825 128.283 201.663 Q129.302 201.478 130.32 201.478 Q136.107 201.478 139.487 204.649 Q142.867 207.82 142.867 213.237 Q142.867 218.816 139.394 221.918 Q135.922 224.996 129.603 224.996 Q127.427 224.996 125.158 224.626 Q122.913 224.256 120.506 223.515 L120.506 218.816 Q122.589 219.95 124.811 220.506 Q127.033 221.061 129.51 221.061 Q133.515 221.061 135.853 218.955 Q138.191 216.848 138.191 213.237 Q138.191 209.626 135.853 207.52 Q133.515 205.413 129.51 205.413 Q127.635 205.413 125.76 205.83 Q123.908 206.246 121.964 207.126 L121.964 189.765 Z" fill="#000000" fill-rule="nonzero" fill-opacity="1" /><path clip-path="url(#clip150)" d="M91.5706 60.5889 L99.2095 60.5889 L99.2095 34.2233 L90.8993 35.89 L90.8993 31.6308 L99.1632 29.9641 L103.839 29.9641 L103.839 60.5889 L111.478 60.5889 L111.478 64.5241 L91.5706 64.5241 L91.5706 60.5889 Z" fill="#000000" fill-rule="nonzero" fill-opacity="1" /><path clip-path="url(#clip150)" d="M130.922 33.0428 Q127.311 33.0428 125.482 36.6076 Q123.677 40.1492 123.677 47.2788 Q123.677 54.3853 125.482 57.9501 Q127.311 61.4917 130.922 61.4917 Q134.556 61.4917 136.362 57.9501 Q138.191 54.3853 138.191 47.2788 Q138.191 40.1492 136.362 36.6076 Q134.556 33.0428 130.922 33.0428 M130.922 29.3391 Q136.732 29.3391 139.788 33.9456 Q142.867 38.5289 142.867 47.2788 Q142.867 56.0056 139.788 60.6121 Q136.732 65.1954 130.922 65.1954 Q125.112 65.1954 122.033 60.6121 Q118.978 56.0056 118.978 47.2788 Q118.978 38.5289 122.033 33.9456 Q125.112 29.3391 130.922 29.3391 Z" fill="#000000" fill-rule="nonzero" fill-opacity="1" /><polyline clip-path="url(#clip152)" style="stroke:#009af9; stroke-linecap:round; stroke-linejoin:round; stroke-width:4; stroke-opacity:1; fill:none" points="240.392,334.886 242.445,336.921 244.498,336.565 246.55,386.831 248.603,387.287 250.656,434.987 252.709,415.228 254.762,424.478 256.815,356.688 258.868,397.636 260.921,416.902 262.974,409.155 265.027,408.645 267.079,404.844 269.132,403.355 271.185,406.626 273.238,408.881 275.291,413.402 277.344,406.719 279.397,418.207 281.45,410.276 283.503,410.716 285.555,410.705 287.608,413.062 289.661,397.713 291.714,396.931 293.767,396.789 295.82,382.361 297.873,382.573 299.926,386.609 301.979,384.754 304.031,403.147 306.084,401.487 308.137,400.834 310.19,402.527 312.243,408.474 314.296,412.852 316.349,412.707 318.402,410.155 320.455,409.267 322.507,410.983 324.56,410.894 326.613,410.939 328.666,399.999 330.719,394.244 332.772,392.765 334.825,373.609 336.878,376.466 338.931,372.173 340.984,372.154 343.036,372.135 345.089,372.772 347.142,372.386 349.195,368.906 351.248,370.365 353.301,370.595 355.354,370.03 357.407,359.067 359.46,358.583 361.512,348.111 363.565,348.171 365.618,384.496 367.671,384.437 369.724,384.53 371.777,383.423 373.83,382.581 375.883,382.46 377.936,400.6 379.988,400.415 382.041,398.378 384.094,398.351 386.147,387.053 388.2,376.254 390.253,376.455 392.306,375.248 394.359,375.164 396.412,375.31 398.464,364.762 400.517,368.352 402.57,365.526 404.623,361.858 406.676,361.679 408.729,360.459 410.782,414.282 412.835,393.086 414.888,391.105 416.94,391.962 418.993,391.312 421.046,393.096 423.099,370.923 425.152,372.612 427.205,370.575 429.258,371.136 431.311,371.152 433.364,359.452 435.417,362.538 437.469,362.122 439.522,360.259 441.575,360.022 443.628,359.985 445.681,360.031 447.734,361.248 449.787,360.898 451.84,360.895 453.893,360.698 455.945,362.158 457.998,365.732 460.051,365.844 462.104,358.554 464.157,351.093 466.21,351.039 468.263,387.593 470.316,389.895 472.369,393.418 474.421,417.698 476.474,364.655 478.527,368.828 480.58,367.273 482.633,347.632 484.686,330.687 486.739,322.361 488.792,341.253 490.845,347.668 492.897,359.829 494.95,359.097 497.003,357.537 499.056,342.902 501.109,391.096 503.162,391.913 505.215,373.084 507.268,356.954 509.321,355.269 511.374,372.841 513.426,259.853 515.479,258.068 517.532,257.511 519.585,291.088 521.638,258.57 523.691,339.889 525.744,322.678 527.797,319.999 529.85,323.173 531.902,344.702 533.955,340.685 536.008,341.838 538.061,338.148 540.114,338.308 542.167,344.013 544.22,339.328 546.273,339.253 548.326,328.533 550.378,332.746 552.431,325.449 554.484,325.458 556.537,325.318 558.59,325.567 560.643,333.528 562.696,333.361 564.749,372.765 566.802,405.439 568.854,406.342 570.907,406.825 572.96,407.388 575.013,406.543 577.066,420.171 579.119,423.038 581.172,359.145 583.225,359.401 585.278,362.594 587.331,355.556 589.383,315.454 591.436,318.023 593.489,313.345 595.542,305.962 597.595,295.076 599.648,289.78 601.701,290.221 603.754,436.263 605.807,442.352 607.859,444.462 609.912,444.513 611.965,379.593 614.018,394.328 616.071,398.543 618.124,356.381 620.177,354.626 622.23,350.499 624.283,351.08 626.335,347.163 628.388,349.309 630.441,327.444 632.494,328.228 634.547,342.889 636.6,353.923 638.653,353.925 640.706,371.396 642.759,370.899 644.811,381.221 646.864,341.79 648.917,355.467 650.97,355.713 653.023,355.642 655.076,353.169 657.129,351.615 659.182,392.626 661.235,393.91 663.288,396.08 665.34,375.997 667.393,372.634 669.446,380.651 671.499,386.744 673.552,388.387 675.605,390.966 677.658,391.298 679.711,391.025 681.764,398.132 683.816,397.89 685.869,397.025 687.922,387.443 689.975,399.702 692.028,399.983 694.081,402.727 696.134,400.926 698.187,405.062 700.24,404.74 702.292,404.548 704.345,401.977 706.398,409.767 708.451,407.727 710.504,408.975 712.557,375.993 714.61,378.909 716.663,376.715 718.716,394.216 720.768,395.104 722.821,395.713 724.874,388.302 726.927,392.957 728.98,390.333 731.033,360.328 733.086,359.964 735.139,375.447 737.192,389.978 739.245,395.855 741.297,404.223 743.35,402.619 745.403,401.417 747.456,336.802 749.509,335.352 751.562,318.742 753.615,319.791 755.668,333.641 757.721,320.41 759.773,320.401 761.826,316.894 763.879,329.153 765.932,367.207 767.985,367.294 770.038,362.176 772.091,358.637 774.144,335.365 776.197,329.407 778.249,331.6 780.302,328.764 782.355,310.612 784.408,309.399 786.461,315.481 788.514,317.328 790.567,317.797 792.62,318.608 794.673,333.948 796.725,353.437 798.778,348.193 800.831,348.739 802.884,323.877 804.937,340.069 806.99,339.961 809.043,336.773 811.096,341.369 813.149,345.474 815.202,346.019 817.254,376.438 819.307,374.884 821.36,379.421 823.413,379.198 825.466,381.299 827.519,384.029 829.572,384.952 831.625,388.951 833.678,377.393 835.73,380.589 837.783,352.79 839.836,352.088 841.889,351.622 843.942,351.337 845.995,351.306 848.048,354.025 850.101,360.085 852.154,360.87 854.206,356.33 856.259,353.902 858.312,335.99 860.365,324.988 862.418,336.183 864.471,331.768 866.524,330.43 868.577,325.384 870.63,326.13 872.682,331.678 874.735,338.472 876.788,323.665 878.841,374.032 880.894,381.305 882.947,361.942 885,340.385 887.053,366.266 889.106,367.172 891.159,362.62 893.211,358.382 895.264,357.426 897.317,336.778 899.37,323.399 901.423,342.607 903.476,342.555 905.529,345.405 907.582,341.725 909.635,342.733 911.687,342.371 913.74,347.173 915.793,328.51 917.846,329.596 919.899,329.586 921.952,333.088 924.005,321.852 926.058,329.324 928.111,384.972 930.163,392.896 932.216,389.419 934.269,390.117 936.322,387.082 938.375,355.598 940.428,355.323 942.481,363.15 944.534,365.106 946.587,445.731 948.639,445.543 950.692,445.744 952.745,443.678 954.798,444.372 956.851,442.567 958.904,430.605 960.957,430.205 963.01,431.253 965.063,431.248 967.116,433.822 969.168,412.21 971.221,413.165 973.274,412.583 975.327,418.471 977.38,412.605 979.433,409.629 981.486,494.835 983.539,407.143 985.592,409.4 987.644,403.341 989.697,401.191 991.75,406.638 993.803,404.678 995.856,404.693 997.909,420.104 999.962,422.594 1002.01,434.198 1004.07,431.404 1006.12,432.9 1008.17,433.259 1010.23,433.749 1012.28,302.737 1014.33,320.53 1016.38,322.397 1018.44,325.941 1020.49,276.256 1022.54,276.661 1024.6,274.766 1026.65,279.247 1028.7,272.642 1030.76,280.023 1032.81,317.443 1034.86,304.44 1036.91,304.18 1038.97,303.452 1041.02,352.923 1043.07,349.261 1045.13,335.859 1047.18,335.855 1049.23,337.044 1051.28,367.103 1053.34,427.384 1055.39,424.519 1057.44,442.243 1059.5,382.704 1061.55,385.904 1063.6,385.461 1065.65,376.778 1067.71,379.64 1069.76,379.606 1071.81,360.574 1073.87,359.352 1075.92,359.557 1077.97,363.584 1080.02,355.082 1082.08,355.275 1084.13,352.718 1086.18,362.755 1088.24,362.019 1090.29,361.782 1092.34,350.723 1094.39,351.58 1096.45,345.978 1098.5,347.528 1100.55,348.241 1102.61,354.638 1104.66,380.038 1106.71,348.817 1108.77,361.79 1110.82,352.709 1112.87,352.655 1114.92,329.919 1116.98,332.083 1119.03,331.908 1121.08,344.118 1123.14,345.528 1125.19,339.472 1127.24,372.251 1129.29,369.875 1131.35,374.068 1133.4,370.616 1135.45,369.5 1137.51,355.046 1139.56,355.146 1141.61,357.232 1143.66,356.159 1145.72,364.858 1147.77,360.486 1149.82,365.967 1151.88,401.974 1153.93,412.775 1155.98,307.499 1158.03,313.459 1160.09,304.597 1162.14,304.41 1164.19,306.988 1166.25,308.99 1168.3,302.788 1170.35,303.121 1172.4,344.676 1174.46,344.24 1176.51,345.035 1178.56,455.358 1180.62,454.864 1182.67,453.027 1184.72,455.431 1186.77,429.386 1188.83,411.677 1190.88,411.581 1192.93,391.144 1194.99,389.061 1197.04,348.15 1199.09,348.017 1201.15,335.304 1203.2,361.593 1205.25,363.336 1207.3,381.397 1209.36,381.468 1211.41,362.25 1213.46,362.723 1215.52,337.278 1217.57,340.138 1219.62,337.993 1221.67,321.611 1223.73,319.797 1225.78,320.142 1227.83,322.681 1229.89,331.019 1231.94,327.726 1233.99,343.316 1236.04,321.79 1238.1,322.302 1240.15,316.371 1242.2,316.156 1244.26,316.379 1246.31,415.407 1248.36,448.973 1250.41,431.472 1252.47,393.538 1254.52,381.057 1256.57,384.764 1258.63,384.978 1260.68,378.903 1262.73,356.823 1264.78,350.22 1266.84,350.281 1268.89,361.993 1270.94,363.371 1273,363.797 1275.05,364.368 1277.1,366.37 1279.16,344.899 1281.21,333.436 1283.26,333.939 1285.31,330.521 1287.37,350.696 1289.42,352.776 1291.47,360.135 1293.53,369.222 1295.58,432.765 1297.63,432.715 1299.68,433.165 1301.74,377.681 1303.79,376.702 1305.84,383.478 1307.9,355.643 1309.95,318.113 1312,332.811 1314.05,333.68 1316.11,330.129 1318.16,324.848 1320.21,316.649 1322.27,324.096 1324.32,324.139 1326.37,325.32 1328.42,323.594 1330.48,328.11 1332.53,328.086 1334.58,325.46 1336.64,325.366 1338.69,310.056 1340.74,298.675 1342.79,298.518 1344.85,298.825 1346.9,299.14 1348.95,419.663 1351.01,418.812 1353.06,419.504 1355.11,416.449 1357.16,414.499 1359.22,415.288 1361.27,402.143 1363.32,401.37 1365.38,391.342 1367.43,390.763 1369.48,388.515 1371.54,366.964 1373.59,340.646 1375.64,333.252 1377.69,373.791 1379.75,383.934 1381.8,385.973 1383.85,387.374 1385.91,389.017 1387.96,393.182 1390.01,417.255 1392.06,411.964 1394.12,411.242 1396.17,326.736 1398.22,323.076 1400.28,322.957 1402.33,323.185 1404.38,319.111 1406.43,316.513 1408.49,311.834 1410.54,413.207 1412.59,409.296 1414.65,320.201 1416.7,436.048 1418.75,433.699 1420.8,449.242 1422.86,449.543 1424.91,443.205 1426.96,442.388 1429.02,409.974 1431.07,393.92 1433.12,393.503 1435.17,376.647 1437.23,376.241 1439.28,375.459 1441.33,365.723 1443.39,348.726 1445.44,367.664 1447.49,372.91 1449.55,369.072 1451.6,368.134 1453.65,368.623 1455.7,379.408 1457.76,379.376 1459.81,388.558 1461.86,393.88 1463.92,370.261 1465.97,364.966 1468.02,365.302 1470.07,369.877 1472.13,373.439 1474.18,373.311 1476.23,371.127 1478.29,371.203 1480.34,361.285 1482.39,361.194 1484.44,361.773 1486.5,364.386 1488.55,368.953 1490.6,373.079 1492.66,362.697 1494.71,366.458 1496.76,378.801 1498.81,364.08 1500.87,370.663 1502.92,410.779 1504.97,410.805 1507.03,400.758 1509.08,400.965 1511.13,398.348 1513.18,401.188 1515.24,396.003 1517.29,363.8 1519.34,347.515 1521.4,348.532 1523.45,343.698 1525.5,344.86 1527.55,376.126 1529.61,382.211 1531.66,384.824 1533.71,384.805 1535.77,379.441 1537.82,379.286 1539.87,379.592 1541.93,379.149 1543.98,378.502 1546.03,381.296 1548.08,388.743 1550.14,399.178 1552.19,401.554 1554.24,403.564 1556.3,386.03 1558.35,383.971 1560.4,383.969 1562.45,383.745 1564.51,383.827 1566.56,383.471 1568.61,381.859 1570.67,382.577 1572.72,380.367 1574.77,383.445 1576.82,379.034 1578.88,379.028 1580.93,374.108 1582.98,374.14 1585.04,374.292 1587.09,365.908 1589.14,366.069 1591.19,366.026 1593.25,365.316 1595.3,400.098 1597.35,400.891 1599.41,378.982 1601.46,378.955 1603.51,379.178 1605.56,351.568 1607.62,352.152 1609.67,345.283 1611.72,344.476 1613.78,338.455 1615.83,337.418 1617.88,363.407 1619.94,367.567 1621.99,369.627 1624.04,366.239 1626.09,369.516 1628.15,369.51 1630.2,367.506 1632.25,366.495 1634.31,364.292 1636.36,364.99 1638.41,364.75 1640.46,364.746 1642.52,364.861 1644.57,364.479 1646.62,364.49 1648.68,365.161 1650.73,365.708 1652.78,366.461 1654.83,367.633 1656.89,367.251 1658.94,364.292 1660.99,363.709 1663.05,365.369 1665.1,369.804 1667.15,369.898 1669.2,371.889 1671.26,369.564 1673.31,369.39 1675.36,368.624 1677.42,368.662 1679.47,367.926 1681.52,366.665 1683.57,368.239 1685.63,367.361 1687.68,365.366 1689.73,365.377 1691.79,365.298 1693.84,364.068 1695.89,364.887 1697.94,359.608 1700,358.724 1702.05,355.801 1704.1,353.305 1706.16,358.182 1708.21,355.756 1710.26,357.613 1712.32,357.668 1714.37,342.975 1716.42,348.838 1718.47,368.004 1720.53,367.618 1722.58,362.668 1724.63,362.878 1726.69,360.984 1728.74,379.689 1730.79,387.046 1732.84,386.661 1734.9,391.226 1736.95,389.865 1739,381.555 1741.06,382.817 1743.11,384.35 1745.16,384.165 1747.21,384.146 1749.27,384.109 1751.32,402.901 1753.37,413.363 1755.43,414.039 1757.48,406.815 1759.53,401.502 1761.58,388.471 1763.64,387.092 1765.69,387.016 1767.74,377.176 1769.8,371.448 1771.85,401.531 1773.9,403.823 1775.95,377.102 1778.01,376.943 1780.06,375.085 1782.11,392.017 1784.17,389.026 1786.22,390.222 1788.27,386.979 1790.33,387.69 1792.38,369.51 1794.43,371.703 1796.48,392.01 1798.54,374.571 1800.59,374.64 1802.64,375.851 1804.7,389.836 1806.75,389.11 1808.8,391.529 1810.85,391.497 1812.91,376.914 1814.96,396.085 1817.01,389.293 1819.07,388.284 1821.12,380.654 1823.17,381.361 1825.22,365.49 1827.28,363.984 1829.33,356.313 1831.38,361.612 1833.44,351.864 1835.49,344.372 1837.54,344.383 1839.59,344.483 1841.65,343.156 1843.7,343.506 1845.75,368.605 1847.81,367.308 1849.86,350.858 1851.91,354.412 1853.96,357.324 1856.02,357.193 1858.07,356.679 1860.12,356.383 1862.18,368.493 1864.23,368.919 1866.28,368.921 1868.34,370.699 1870.39,370.789 1872.44,374.989 1874.49,364.738 1876.55,364.974 1878.6,376.01 1880.65,384.093 1882.71,381.309 1884.76,382.021 1886.81,380.145 1888.86,379.181 1890.92,379.632 1892.97,372.614 1895.02,361.462 1897.08,364.572 1899.13,366.281 1901.18,365.503 1903.23,375.352 1905.29,376.347 1907.34,377.936 1909.39,380.219 1911.45,377.574 1913.5,377.481 1915.55,373.254 1917.6,375.422 1919.66,376.922 1921.71,376.926 1923.76,365.168 1925.82,360.159 1927.87,362.591 1929.92,361.045 1931.97,361.036 1934.03,361.427 1936.08,361.497 1938.13,360.729 1940.19,362.631 1942.24,379.424 1944.29,380.039 1946.34,380.024 1948.4,379.724 1950.45,379.634 1952.5,379.18 1954.56,379.187 1956.61,380.046 1958.66,382.148 1960.72,380.798 1962.77,382.424 1964.82,382.035 1966.87,358.467 1968.93,358.723 1970.98,358.731 1973.03,369.391 1975.09,369.619 1977.14,369.618 1979.19,366.94 1981.24,370.4 1983.3,370.521 1985.35,370.595 1987.4,386.487 1989.46,389.727 1991.51,388.841 1993.56,384.607 1995.61,380.538 1997.67,396.942 1999.72,376.743 2001.77,363.428 2003.83,361.037 2005.88,359.886 2007.93,383.783 2009.98,390.863 2012.04,394.658 2014.09,396.015 2016.14,376.142 2018.2,369.995 2020.25,370.133 2022.3,370.786 2024.35,369.489 2026.41,374.027 2028.46,367.628 2030.51,382.555 2032.57,383.446 2034.62,380.824 2036.67,324.376 2038.73,363.481 2040.78,362.9 2042.83,373.655 2044.88,379.943 2046.94,379.927 2048.99,381.074 2051.04,350.291 2053.1,373.403 2055.15,378.723 2057.2,379.278 2059.25,379.187 2061.31,369.215 2063.36,368.995 2065.41,369.334 2067.47,363.46 2069.52,351.809 2071.57,364.126 2073.62,382.037 2075.68,386.826 2077.73,363.512 2079.78,363.831 2081.84,362.518 2083.89,366.765 2085.94,366.765 2087.99,372.101 2090.05,401.533 2092.1,398.361 2094.15,424.128 2096.21,410.579 2098.26,392.904 2100.31,395.317 2102.36,373.63 2104.42,370.621 2106.47,357.168 2108.52,358.045 2110.58,357.707 2112.63,361.747 2114.68,371.728 2116.73,348.838 2118.79,358.272 2120.84,331.544 2122.89,333.577 2124.95,344.143 2127,359.056 2129.05,358.681 2131.11,358.934 2133.16,359.041 2135.21,356.999 2137.26,355.224 2139.32,398.645 2141.37,389.135 2143.42,378.288 2145.48,379.273 2147.53,377.918 2149.58,378.244 2151.63,370.964 2153.69,380.311 2155.74,377.627 2157.79,370.881 2159.85,371.569 2161.9,371.624 2163.95,375.351 2166,375.067 2168.06,374.638 2170.11,378.743 2172.16,370.368 2174.22,369.642 2176.27,369.852 2178.32,366.338 2180.37,365.334 2182.43,360.909 2184.48,360.33 2186.53,360.339 2188.59,375.141 2190.64,380.211 2192.69,361.204 2194.74,361.929 2196.8,360.509 2198.85,360.181 2200.9,354.602 2202.96,351.255 2205.01,370.686 2207.06,368.53 2209.12,368.175 2211.17,367.155 2213.22,360.504 2215.27,360.621 2217.33,360.646 2219.38,369.065 2221.43,386.523 2223.49,386.53 2225.54,386.707 2227.59,381.859 2229.64,379.875 2231.7,375.684 2233.75,375.674 2235.8,380.962 2237.86,381.812 2239.91,378.121 2241.96,377.938 2244.01,378.06 2246.07,377.668 2248.12,377.253 2250.17,376.379 2252.23,368.212 2254.28,370.295 2256.33,363.493 2258.38,362.594 2260.44,373.076 2262.49,370.765 2264.54,369.927 2266.6,369.651 2268.65,371.221 2270.7,371.872 2272.75,371.873 2274.81,371.055 2276.86,370.828 2278.91,373.272 2280.97,371.666 2283.02,372.477 2285.07,372.434 2287.12,372.427 2289.18,372.49 2291.23,355.305 "/>
<path clip-path="url(#clip150)" d="M1983.6 172.231 L2280.29 172.231 L2280.29 68.5509 L1983.6 68.5509  Z" fill="#ffffff" fill-rule="evenodd" fill-opacity="1"/>
<polyline clip-path="url(#clip150)" style="stroke:#000000; stroke-linecap:round; stroke-linejoin:round; stroke-width:4; stroke-opacity:1; fill:none" points="1983.6,172.231 2280.29,172.231 2280.29,68.5509 1983.6,68.5509 1983.6,172.231 "/>
<polyline clip-path="url(#clip150)" style="stroke:#009af9; stroke-linecap:round; stroke-linejoin:round; stroke-width:4; stroke-opacity:1; fill:none" points="2007.75,120.391 2152.68,120.391 "/>
<path clip-path="url(#clip150)" d="M2176.83 103.111 L2181.51 103.111 L2181.51 133.736 L2198.34 133.736 L2198.34 137.671 L2176.83 137.671 L2176.83 103.111 Z" fill="#000000" fill-rule="nonzero" fill-opacity="1" /><path clip-path="url(#clip150)" d="M2223.96 104.245 L2223.96 108.805 Q2221.3 107.532 2218.94 106.907 Q2216.58 106.282 2214.38 106.282 Q2210.56 106.282 2208.48 107.764 Q2206.42 109.245 2206.42 111.977 Q2206.42 114.268 2207.78 115.449 Q2209.17 116.606 2213.01 117.324 L2215.84 117.902 Q2221.07 118.898 2223.55 121.421 Q2226.05 123.921 2226.05 128.134 Q2226.05 133.157 2222.67 135.75 Q2219.31 138.342 2212.81 138.342 Q2210.35 138.342 2207.57 137.787 Q2204.82 137.231 2201.86 136.143 L2201.86 131.328 Q2204.7 132.926 2207.44 133.736 Q2210.17 134.546 2212.81 134.546 Q2216.81 134.546 2218.99 132.972 Q2221.16 131.398 2221.16 128.481 Q2221.16 125.935 2219.59 124.5 Q2218.04 123.064 2214.47 122.347 L2211.62 121.791 Q2206.39 120.75 2204.06 118.527 Q2201.72 116.305 2201.72 112.347 Q2201.72 107.764 2204.94 105.125 Q2208.18 102.486 2213.85 102.486 Q2216.28 102.486 2218.8 102.926 Q2221.32 103.366 2223.96 104.245 Z" fill="#000000" fill-rule="nonzero" fill-opacity="1" /><path clip-path="url(#clip150)" d="M2254.06 104.245 L2254.06 108.805 Q2251.39 107.532 2249.03 106.907 Q2246.67 106.282 2244.47 106.282 Q2240.65 106.282 2238.57 107.764 Q2236.51 109.245 2236.51 111.977 Q2236.51 114.268 2237.87 115.449 Q2239.26 116.606 2243.11 117.324 L2245.93 117.902 Q2251.16 118.898 2253.64 121.421 Q2256.14 123.921 2256.14 128.134 Q2256.14 133.157 2252.76 135.75 Q2249.4 138.342 2242.9 138.342 Q2240.44 138.342 2237.67 137.787 Q2234.91 137.231 2231.95 136.143 L2231.95 131.328 Q2234.8 132.926 2237.53 133.736 Q2240.26 134.546 2242.9 134.546 Q2246.9 134.546 2249.08 132.972 Q2251.25 131.398 2251.25 128.481 Q2251.25 125.935 2249.68 124.5 Q2248.13 123.064 2244.56 122.347 L2241.72 121.791 Q2236.49 120.75 2234.15 118.527 Q2231.81 116.305 2231.81 112.347 Q2231.81 107.764 2235.03 105.125 Q2238.27 102.486 2243.94 102.486 Q2246.37 102.486 2248.89 102.926 Q2251.42 103.366 2254.06 104.245 Z" fill="#000000" fill-rule="nonzero" fill-opacity="1" /><path clip-path="url(#clip150)" d="M178.867 1486.45 L2352.76 1486.45 L2352.76 847.244 L178.867 847.244  Z" fill="#ffffff" fill-rule="evenodd" fill-opacity="1"/>
<defs>
  <clipPath id="clip153">
    <rect x="178" y="847" width="2175" height="640"/>
  </clipPath>
</defs>
<polyline clip-path="url(#clip153)" style="stroke:#000000; stroke-linecap:round; stroke-linejoin:round; stroke-width:2; stroke-opacity:0.1; fill:none" points="238.339,1486.45 238.339,847.244 "/>
<polyline clip-path="url(#clip153)" style="stroke:#000000; stroke-linecap:round; stroke-linejoin:round; stroke-width:2; stroke-opacity:0.1; fill:none" points="751.562,1486.45 751.562,847.244 "/>
<polyline clip-path="url(#clip153)" style="stroke:#000000; stroke-linecap:round; stroke-linejoin:round; stroke-width:2; stroke-opacity:0.1; fill:none" points="1264.78,1486.45 1264.78,847.244 "/>
<polyline clip-path="url(#clip153)" style="stroke:#000000; stroke-linecap:round; stroke-linejoin:round; stroke-width:2; stroke-opacity:0.1; fill:none" points="1778.01,1486.45 1778.01,847.244 "/>
<polyline clip-path="url(#clip153)" style="stroke:#000000; stroke-linecap:round; stroke-linejoin:round; stroke-width:2; stroke-opacity:0.1; fill:none" points="2291.23,1486.45 2291.23,847.244 "/>
<polyline clip-path="url(#clip153)" style="stroke:#000000; stroke-linecap:round; stroke-linejoin:round; stroke-width:2; stroke-opacity:0.1; fill:none" points="178.867,1486.45 2352.76,1486.45 "/>
<polyline clip-path="url(#clip153)" style="stroke:#000000; stroke-linecap:round; stroke-linejoin:round; stroke-width:2; stroke-opacity:0.1; fill:none" points="178.867,1326.65 2352.76,1326.65 "/>
<polyline clip-path="url(#clip153)" style="stroke:#000000; stroke-linecap:round; stroke-linejoin:round; stroke-width:2; stroke-opacity:0.1; fill:none" points="178.867,1166.85 2352.76,1166.85 "/>
<polyline clip-path="url(#clip153)" style="stroke:#000000; stroke-linecap:round; stroke-linejoin:round; stroke-width:2; stroke-opacity:0.1; fill:none" points="178.867,1007.05 2352.76,1007.05 "/>
<polyline clip-path="url(#clip153)" style="stroke:#000000; stroke-linecap:round; stroke-linejoin:round; stroke-width:2; stroke-opacity:0.1; fill:none" points="178.867,847.244 2352.76,847.244 "/>
<polyline clip-path="url(#clip150)" style="stroke:#000000; stroke-linecap:round; stroke-linejoin:round; stroke-width:4; stroke-opacity:1; fill:none" points="178.867,1486.45 2352.76,1486.45 "/>
<polyline clip-path="url(#clip150)" style="stroke:#000000; stroke-linecap:round; stroke-linejoin:round; stroke-width:4; stroke-opacity:1; fill:none" points="238.339,1486.45 238.339,1467.55 "/>
<polyline clip-path="url(#clip150)" style="stroke:#000000; stroke-linecap:round; stroke-linejoin:round; stroke-width:4; stroke-opacity:1; fill:none" points="751.562,1486.45 751.562,1467.55 "/>
<polyline clip-path="url(#clip150)" style="stroke:#000000; stroke-linecap:round; stroke-linejoin:round; stroke-width:4; stroke-opacity:1; fill:none" points="1264.78,1486.45 1264.78,1467.55 "/>
<polyline clip-path="url(#clip150)" style="stroke:#000000; stroke-linecap:round; stroke-linejoin:round; stroke-width:4; stroke-opacity:1; fill:none" points="1778.01,1486.45 1778.01,1467.55 "/>
<polyline clip-path="url(#clip150)" style="stroke:#000000; stroke-linecap:round; stroke-linejoin:round; stroke-width:4; stroke-opacity:1; fill:none" points="2291.23,1486.45 2291.23,1467.55 "/>
<path clip-path="url(#clip150)" d="M238.339 1517.37 Q234.728 1517.37 232.899 1520.93 Q231.094 1524.47 231.094 1531.6 Q231.094 1538.71 232.899 1542.27 Q234.728 1545.82 238.339 1545.82 Q241.973 1545.82 243.779 1542.27 Q245.607 1538.71 245.607 1531.6 Q245.607 1524.47 243.779 1520.93 Q241.973 1517.37 238.339 1517.37 M238.339 1513.66 Q244.149 1513.66 247.205 1518.27 Q250.283 1522.85 250.283 1531.6 Q250.283 1540.33 247.205 1544.94 Q244.149 1549.52 238.339 1549.52 Q232.529 1549.52 229.45 1544.94 Q226.395 1540.33 226.395 1531.6 Q226.395 1522.85 229.45 1518.27 Q232.529 1513.66 238.339 1513.66 Z" fill="#000000" fill-rule="nonzero" fill-opacity="1" /><path clip-path="url(#clip150)" d="M715.254 1544.91 L731.574 1544.91 L731.574 1548.85 L709.629 1548.85 L709.629 1544.91 Q712.291 1542.16 716.875 1537.53 Q721.481 1532.88 722.662 1531.53 Q724.907 1529.01 725.787 1527.27 Q726.689 1525.51 726.689 1523.82 Q726.689 1521.07 724.745 1519.33 Q722.824 1517.6 719.722 1517.6 Q717.523 1517.6 715.069 1518.36 Q712.638 1519.13 709.861 1520.68 L709.861 1515.95 Q712.685 1514.82 715.138 1514.24 Q717.592 1513.66 719.629 1513.66 Q725 1513.66 728.194 1516.35 Q731.388 1519.03 731.388 1523.52 Q731.388 1525.65 730.578 1527.57 Q729.791 1529.47 727.685 1532.07 Q727.106 1532.74 724.004 1535.95 Q720.902 1539.15 715.254 1544.91 Z" fill="#000000" fill-rule="nonzero" fill-opacity="1" /><path clip-path="url(#clip150)" d="M741.435 1514.29 L759.791 1514.29 L759.791 1518.22 L745.717 1518.22 L745.717 1526.7 Q746.736 1526.35 747.754 1526.19 Q748.773 1526 749.791 1526 Q755.578 1526 758.958 1529.17 Q762.337 1532.34 762.337 1537.76 Q762.337 1543.34 758.865 1546.44 Q755.393 1549.52 749.073 1549.52 Q746.898 1549.52 744.629 1549.15 Q742.384 1548.78 739.976 1548.04 L739.976 1543.34 Q742.06 1544.47 744.282 1545.03 Q746.504 1545.58 748.981 1545.58 Q752.985 1545.58 755.323 1543.48 Q757.661 1541.37 757.661 1537.76 Q757.661 1534.15 755.323 1532.04 Q752.985 1529.94 748.981 1529.94 Q747.106 1529.94 745.231 1530.35 Q743.379 1530.77 741.435 1531.65 L741.435 1514.29 Z" fill="#000000" fill-rule="nonzero" fill-opacity="1" /><path clip-path="url(#clip150)" d="M781.55 1517.37 Q777.939 1517.37 776.11 1520.93 Q774.305 1524.47 774.305 1531.6 Q774.305 1538.71 776.11 1542.27 Q777.939 1545.82 781.55 1545.82 Q785.184 1545.82 786.99 1542.27 Q788.819 1538.71 788.819 1531.6 Q788.819 1524.47 786.99 1520.93 Q785.184 1517.37 781.55 1517.37 M781.55 1513.66 Q787.36 1513.66 790.416 1518.27 Q793.495 1522.85 793.495 1531.6 Q793.495 1540.33 790.416 1544.94 Q787.36 1549.52 781.55 1549.52 Q775.74 1549.52 772.661 1544.94 Q769.606 1540.33 769.606 1531.6 Q769.606 1522.85 772.661 1518.27 Q775.74 1513.66 781.55 1513.66 Z" fill="#000000" fill-rule="nonzero" fill-opacity="1" /><path clip-path="url(#clip150)" d="M1224.4 1514.29 L1242.76 1514.29 L1242.76 1518.22 L1228.69 1518.22 L1228.69 1526.7 Q1229.7 1526.35 1230.72 1526.19 Q1231.74 1526 1232.76 1526 Q1238.55 1526 1241.93 1529.17 Q1245.31 1532.34 1245.31 1537.76 Q1245.31 1543.34 1241.83 1546.44 Q1238.36 1549.52 1232.04 1549.52 Q1229.87 1549.52 1227.6 1549.15 Q1225.35 1548.78 1222.94 1548.04 L1222.94 1543.34 Q1225.03 1544.47 1227.25 1545.03 Q1229.47 1545.58 1231.95 1545.58 Q1235.95 1545.58 1238.29 1543.48 Q1240.63 1541.37 1240.63 1537.76 Q1240.63 1534.15 1238.29 1532.04 Q1235.95 1529.94 1231.95 1529.94 Q1230.07 1529.94 1228.2 1530.35 Q1226.35 1530.77 1224.4 1531.65 L1224.4 1514.29 Z" fill="#000000" fill-rule="nonzero" fill-opacity="1" /><path clip-path="url(#clip150)" d="M1264.52 1517.37 Q1260.91 1517.37 1259.08 1520.93 Q1257.27 1524.47 1257.27 1531.6 Q1257.27 1538.71 1259.08 1542.27 Q1260.91 1545.82 1264.52 1545.82 Q1268.15 1545.82 1269.96 1542.27 Q1271.79 1538.71 1271.79 1531.6 Q1271.79 1524.47 1269.96 1520.93 Q1268.15 1517.37 1264.52 1517.37 M1264.52 1513.66 Q1270.33 1513.66 1273.38 1518.27 Q1276.46 1522.85 1276.46 1531.6 Q1276.46 1540.33 1273.38 1544.94 Q1270.33 1549.52 1264.52 1549.52 Q1258.71 1549.52 1255.63 1544.94 Q1252.57 1540.33 1252.57 1531.6 Q1252.57 1522.85 1255.63 1518.27 Q1258.71 1513.66 1264.52 1513.66 Z" fill="#000000" fill-rule="nonzero" fill-opacity="1" /><path clip-path="url(#clip150)" d="M1294.68 1517.37 Q1291.07 1517.37 1289.24 1520.93 Q1287.44 1524.47 1287.44 1531.6 Q1287.44 1538.71 1289.24 1542.27 Q1291.07 1545.82 1294.68 1545.82 Q1298.31 1545.82 1300.12 1542.27 Q1301.95 1538.71 1301.95 1531.6 Q1301.95 1524.47 1300.12 1520.93 Q1298.31 1517.37 1294.68 1517.37 M1294.68 1513.66 Q1300.49 1513.66 1303.55 1518.27 Q1306.62 1522.85 1306.62 1531.6 Q1306.62 1540.33 1303.55 1544.94 Q1300.49 1549.52 1294.68 1549.52 Q1288.87 1549.52 1285.79 1544.94 Q1282.74 1540.33 1282.74 1531.6 Q1282.74 1522.85 1285.79 1518.27 Q1288.87 1513.66 1294.68 1513.66 Z" fill="#000000" fill-rule="nonzero" fill-opacity="1" /><path clip-path="url(#clip150)" d="M1736.28 1514.29 L1758.51 1514.29 L1758.51 1516.28 L1745.96 1548.85 L1741.08 1548.85 L1752.88 1518.22 L1736.28 1518.22 L1736.28 1514.29 Z" fill="#000000" fill-rule="nonzero" fill-opacity="1" /><path clip-path="url(#clip150)" d="M1767.67 1514.29 L1786.03 1514.29 L1786.03 1518.22 L1771.95 1518.22 L1771.95 1526.7 Q1772.97 1526.35 1773.99 1526.19 Q1775.01 1526 1776.03 1526 Q1781.82 1526 1785.2 1529.17 Q1788.57 1532.34 1788.57 1537.76 Q1788.57 1543.34 1785.1 1546.44 Q1781.63 1549.52 1775.31 1549.52 Q1773.14 1549.52 1770.87 1549.15 Q1768.62 1548.78 1766.21 1548.04 L1766.21 1543.34 Q1768.3 1544.47 1770.52 1545.03 Q1772.74 1545.58 1775.22 1545.58 Q1779.22 1545.58 1781.56 1543.48 Q1783.9 1541.37 1783.9 1537.76 Q1783.9 1534.15 1781.56 1532.04 Q1779.22 1529.94 1775.22 1529.94 Q1773.34 1529.94 1771.47 1530.35 Q1769.62 1530.77 1767.67 1531.65 L1767.67 1514.29 Z" fill="#000000" fill-rule="nonzero" fill-opacity="1" /><path clip-path="url(#clip150)" d="M1807.79 1517.37 Q1804.18 1517.37 1802.35 1520.93 Q1800.54 1524.47 1800.54 1531.6 Q1800.54 1538.71 1802.35 1542.27 Q1804.18 1545.82 1807.79 1545.82 Q1811.42 1545.82 1813.23 1542.27 Q1815.06 1538.71 1815.06 1531.6 Q1815.06 1524.47 1813.23 1520.93 Q1811.42 1517.37 1807.79 1517.37 M1807.79 1513.66 Q1813.6 1513.66 1816.65 1518.27 Q1819.73 1522.85 1819.73 1531.6 Q1819.73 1540.33 1816.65 1544.94 Q1813.6 1549.52 1807.79 1549.52 Q1801.98 1549.52 1798.9 1544.94 Q1795.84 1540.33 1795.84 1531.6 Q1795.84 1522.85 1798.9 1518.27 Q1801.98 1513.66 1807.79 1513.66 Z" fill="#000000" fill-rule="nonzero" fill-opacity="1" /><path clip-path="url(#clip150)" d="M2235.76 1544.91 L2243.4 1544.91 L2243.4 1518.55 L2235.09 1520.21 L2235.09 1515.95 L2243.35 1514.29 L2248.02 1514.29 L2248.02 1544.91 L2255.66 1544.91 L2255.66 1548.85 L2235.76 1548.85 L2235.76 1544.91 Z" fill="#000000" fill-rule="nonzero" fill-opacity="1" /><path clip-path="url(#clip150)" d="M2275.11 1517.37 Q2271.5 1517.37 2269.67 1520.93 Q2267.86 1524.47 2267.86 1531.6 Q2267.86 1538.71 2269.67 1542.27 Q2271.5 1545.82 2275.11 1545.82 Q2278.74 1545.82 2280.55 1542.27 Q2282.38 1538.71 2282.38 1531.6 Q2282.38 1524.47 2280.55 1520.93 Q2278.74 1517.37 2275.11 1517.37 M2275.11 1513.66 Q2280.92 1513.66 2283.97 1518.27 Q2287.05 1522.85 2287.05 1531.6 Q2287.05 1540.33 2283.97 1544.94 Q2280.92 1549.52 2275.11 1549.52 Q2269.3 1549.52 2266.22 1544.94 Q2263.16 1540.33 2263.16 1531.6 Q2263.16 1522.85 2266.22 1518.27 Q2269.3 1513.66 2275.11 1513.66 Z" fill="#000000" fill-rule="nonzero" fill-opacity="1" /><path clip-path="url(#clip150)" d="M2305.27 1517.37 Q2301.66 1517.37 2299.83 1520.93 Q2298.02 1524.47 2298.02 1531.6 Q2298.02 1538.71 2299.83 1542.27 Q2301.66 1545.82 2305.27 1545.82 Q2308.9 1545.82 2310.71 1542.27 Q2312.54 1538.71 2312.54 1531.6 Q2312.54 1524.47 2310.71 1520.93 Q2308.9 1517.37 2305.27 1517.37 M2305.27 1513.66 Q2311.08 1513.66 2314.14 1518.27 Q2317.21 1522.85 2317.21 1531.6 Q2317.21 1540.33 2314.14 1544.94 Q2311.08 1549.52 2305.27 1549.52 Q2299.46 1549.52 2296.38 1544.94 Q2293.33 1540.33 2293.33 1531.6 Q2293.33 1522.85 2296.38 1518.27 Q2299.46 1513.66 2305.27 1513.66 Z" fill="#000000" fill-rule="nonzero" fill-opacity="1" /><path clip-path="url(#clip150)" d="M2335.43 1517.37 Q2331.82 1517.37 2329.99 1520.93 Q2328.19 1524.47 2328.19 1531.6 Q2328.19 1538.71 2329.99 1542.27 Q2331.82 1545.82 2335.43 1545.82 Q2339.07 1545.82 2340.87 1542.27 Q2342.7 1538.71 2342.7 1531.6 Q2342.7 1524.47 2340.87 1520.93 Q2339.07 1517.37 2335.43 1517.37 M2335.43 1513.66 Q2341.24 1513.66 2344.3 1518.27 Q2347.38 1522.85 2347.38 1531.6 Q2347.38 1540.33 2344.3 1544.94 Q2341.24 1549.52 2335.43 1549.52 Q2329.62 1549.52 2326.54 1544.94 Q2323.49 1540.33 2323.49 1531.6 Q2323.49 1522.85 2326.54 1518.27 Q2329.62 1513.66 2335.43 1513.66 Z" fill="#000000" fill-rule="nonzero" fill-opacity="1" /><polyline clip-path="url(#clip150)" style="stroke:#000000; stroke-linecap:round; stroke-linejoin:round; stroke-width:4; stroke-opacity:1; fill:none" points="178.867,1486.45 178.867,847.244 "/>
<polyline clip-path="url(#clip150)" style="stroke:#000000; stroke-linecap:round; stroke-linejoin:round; stroke-width:4; stroke-opacity:1; fill:none" points="178.867,1486.45 197.764,1486.45 "/>
<polyline clip-path="url(#clip150)" style="stroke:#000000; stroke-linecap:round; stroke-linejoin:round; stroke-width:4; stroke-opacity:1; fill:none" points="178.867,1326.65 197.764,1326.65 "/>
<polyline clip-path="url(#clip150)" style="stroke:#000000; stroke-linecap:round; stroke-linejoin:round; stroke-width:4; stroke-opacity:1; fill:none" points="178.867,1166.85 197.764,1166.85 "/>
<polyline clip-path="url(#clip150)" style="stroke:#000000; stroke-linecap:round; stroke-linejoin:round; stroke-width:4; stroke-opacity:1; fill:none" points="178.867,1007.05 197.764,1007.05 "/>
<polyline clip-path="url(#clip150)" style="stroke:#000000; stroke-linecap:round; stroke-linejoin:round; stroke-width:4; stroke-opacity:1; fill:none" points="178.867,847.244 197.764,847.244 "/>
<path clip-path="url(#clip150)" d="M50.9921 1486.9 L80.6679 1486.9 L80.6679 1490.83 L50.9921 1490.83 L50.9921 1486.9 Z" fill="#000000" fill-rule="nonzero" fill-opacity="1" /><path clip-path="url(#clip150)" d="M91.5706 1499.79 L99.2095 1499.79 L99.2095 1473.43 L90.8993 1475.09 L90.8993 1470.83 L99.1632 1469.17 L103.839 1469.17 L103.839 1499.79 L111.478 1499.79 L111.478 1503.73 L91.5706 1503.73 L91.5706 1499.79 Z" fill="#000000" fill-rule="nonzero" fill-opacity="1" /><path clip-path="url(#clip150)" d="M130.922 1472.25 Q127.311 1472.25 125.482 1475.81 Q123.677 1479.35 123.677 1486.48 Q123.677 1493.59 125.482 1497.15 Q127.311 1500.7 130.922 1500.7 Q134.556 1500.7 136.362 1497.15 Q138.191 1493.59 138.191 1486.48 Q138.191 1479.35 136.362 1475.81 Q134.556 1472.25 130.922 1472.25 M130.922 1468.54 Q136.732 1468.54 139.788 1473.15 Q142.867 1477.73 142.867 1486.48 Q142.867 1495.21 139.788 1499.82 Q136.732 1504.4 130.922 1504.4 Q125.112 1504.4 122.033 1499.82 Q118.978 1495.21 118.978 1486.48 Q118.978 1477.73 122.033 1473.15 Q125.112 1468.54 130.922 1468.54 Z" fill="#000000" fill-rule="nonzero" fill-opacity="1" /><path clip-path="url(#clip150)" d="M82.1494 1327.1 L111.825 1327.1 L111.825 1331.03 L82.1494 1331.03 L82.1494 1327.1 Z" fill="#000000" fill-rule="nonzero" fill-opacity="1" /><path clip-path="url(#clip150)" d="M121.964 1309.37 L140.32 1309.37 L140.32 1313.3 L126.246 1313.3 L126.246 1321.77 Q127.265 1321.43 128.283 1321.27 Q129.302 1321.08 130.32 1321.08 Q136.107 1321.08 139.487 1324.25 Q142.867 1327.42 142.867 1332.84 Q142.867 1338.42 139.394 1341.52 Q135.922 1344.6 129.603 1344.6 Q127.427 1344.6 125.158 1344.23 Q122.913 1343.86 120.506 1343.12 L120.506 1338.42 Q122.589 1339.55 124.811 1340.11 Q127.033 1340.66 129.51 1340.66 Q133.515 1340.66 135.853 1338.56 Q138.191 1336.45 138.191 1332.84 Q138.191 1329.23 135.853 1327.12 Q133.515 1325.01 129.51 1325.01 Q127.635 1325.01 125.76 1325.43 Q123.908 1325.85 121.964 1326.73 L121.964 1309.37 Z" fill="#000000" fill-rule="nonzero" fill-opacity="1" /><path clip-path="url(#clip150)" d="M130.922 1152.64 Q127.311 1152.64 125.482 1156.21 Q123.677 1159.75 123.677 1166.88 Q123.677 1173.99 125.482 1177.55 Q127.311 1181.09 130.922 1181.09 Q134.556 1181.09 136.362 1177.55 Q138.191 1173.99 138.191 1166.88 Q138.191 1159.75 136.362 1156.21 Q134.556 1152.64 130.922 1152.64 M130.922 1148.94 Q136.732 1148.94 139.788 1153.55 Q142.867 1158.13 142.867 1166.88 Q142.867 1175.61 139.788 1180.21 Q136.732 1184.8 130.922 1184.8 Q125.112 1184.8 122.033 1180.21 Q118.978 1175.61 118.978 1166.88 Q118.978 1158.13 122.033 1153.55 Q125.112 1148.94 130.922 1148.94 Z" fill="#000000" fill-rule="nonzero" fill-opacity="1" /><path clip-path="url(#clip150)" d="M121.964 989.765 L140.32 989.765 L140.32 993.7 L126.246 993.7 L126.246 1002.17 Q127.265 1001.83 128.283 1001.66 Q129.302 1001.48 130.32 1001.48 Q136.107 1001.48 139.487 1004.65 Q142.867 1007.82 142.867 1013.24 Q142.867 1018.82 139.394 1021.92 Q135.922 1025 129.603 1025 Q127.427 1025 125.158 1024.63 Q122.913 1024.26 120.506 1023.51 L120.506 1018.82 Q122.589 1019.95 124.811 1020.51 Q127.033 1021.06 129.51 1021.06 Q133.515 1021.06 135.853 1018.95 Q138.191 1016.85 138.191 1013.24 Q138.191 1009.63 135.853 1007.52 Q133.515 1005.41 129.51 1005.41 Q127.635 1005.41 125.76 1005.83 Q123.908 1006.25 121.964 1007.13 L121.964 989.765 Z" fill="#000000" fill-rule="nonzero" fill-opacity="1" /><path clip-path="url(#clip150)" d="M91.5706 860.589 L99.2095 860.589 L99.2095 834.223 L90.8993 835.89 L90.8993 831.631 L99.1632 829.964 L103.839 829.964 L103.839 860.589 L111.478 860.589 L111.478 864.524 L91.5706 864.524 L91.5706 860.589 Z" fill="#000000" fill-rule="nonzero" fill-opacity="1" /><path clip-path="url(#clip150)" d="M130.922 833.043 Q127.311 833.043 125.482 836.608 Q123.677 840.149 123.677 847.279 Q123.677 854.385 125.482 857.95 Q127.311 861.492 130.922 861.492 Q134.556 861.492 136.362 857.95 Q138.191 854.385 138.191 847.279 Q138.191 840.149 136.362 836.608 Q134.556 833.043 130.922 833.043 M130.922 829.339 Q136.732 829.339 139.788 833.946 Q142.867 838.529 142.867 847.279 Q142.867 856.006 139.788 860.612 Q136.732 865.195 130.922 865.195 Q125.112 865.195 122.033 860.612 Q118.978 856.006 118.978 847.279 Q118.978 838.529 122.033 833.946 Q125.112 829.339 130.922 829.339 Z" fill="#000000" fill-rule="nonzero" fill-opacity="1" /><polyline clip-path="url(#clip153)" style="stroke:#009af9; stroke-linecap:round; stroke-linejoin:round; stroke-width:4; stroke-opacity:1; fill:none" points="240.392,1134.89 242.445,1005.29 244.498,1184.96 246.55,1174.28 248.603,1217.58 250.656,1233.48 252.709,1142.27 254.762,1111.47 256.815,1217.71 258.868,1167.46 260.921,1116.84 262.974,1198.72 265.027,1191.36 267.079,1131.99 269.132,1124.01 271.185,1236.16 273.238,1211.03 275.291,1194.6 277.344,1114.81 279.397,1199.82 281.45,843.808 283.503,1592.38 285.555,1844.18 287.608,1231.53 289.661,1248.64 291.714,931.452 293.767,898.352 295.82,1099.2 297.873,1135.3 299.926,1185.27 301.979,1220.95 304.031,1202.99 306.084,1164.29 308.137,1170.93 310.19,1153.93 312.243,1149.2 314.296,1189.3 316.349,1203.64 318.402,1131.77 320.455,1489.81 322.507,988.099 324.56,1350.95 326.613,988.786 328.666,1095.93 330.719,1105.23 332.772,1178.49 334.825,1273 336.878,1216.49 338.931,1194.53 340.984,1162.72 343.036,1174.85 345.089,1160.45 347.142,1185.62 349.195,1206.14 351.248,1131.7 353.301,1208.94 355.354,1191.38 357.407,1159.41 359.46,1192.68 361.512,1175 363.565,1175.65 365.618,1148.1 367.671,1155.01 369.724,1153.6 371.777,1122.89 373.83,1130.3 375.883,1115.69 377.936,1156.12 379.988,1151.17 382.041,1167.31 384.094,1166.1 386.147,1012.36 388.2,1069.74 390.253,1263.46 392.306,1144.68 394.359,1150.07 396.412,1177.9 398.464,1183.35 400.517,1144.56 402.57,1161.43 404.623,1171.66 406.676,1176.43 408.729,1157.79 410.782,1166.74 412.835,1161.78 414.888,1145.91 416.94,1182.06 418.993,1164.12 421.046,1163.36 423.099,1134.55 425.152,1200.06 427.205,1180.59 429.258,1130.56 431.311,1145.25 433.364,1189.26 435.417,1178.56 437.469,1066.1 439.522,1189.6 441.575,1239.25 443.628,1292.7 445.681,1049.6 447.734,1222.2 449.787,1177.64 451.84,1190.43 453.893,1150.22 455.945,1157.15 457.998,1144.57 460.051,1168.48 462.104,1175.81 464.157,1171.23 466.21,1195.86 468.263,1163.39 470.316,1166.51 472.369,1177.52 474.421,1204.25 476.474,1198.54 478.527,1198.08 480.58,1145.13 482.633,1194.82 484.686,1111.43 486.739,1148.39 488.792,1180.23 490.845,1152.63 492.897,1152.8 494.95,1092.52 497.003,997.485 499.056,1082.43 501.109,1190.81 503.162,1204.47 505.215,1213.05 507.268,1189.15 509.321,1162.84 511.374,1127.71 513.426,1146.78 515.479,-133.887 517.532,146.959 519.585,-325.198 521.638,1455.9 523.691,-2031.29 525.744,497.053 527.797,1031.2 529.85,1183.57 531.902,1189.43 533.955,1139.46 536.008,1120.27 538.061,1235.87 540.114,1166.8 542.167,1162.63 544.22,1178.39 546.273,1146.56 548.326,1208.96 550.378,1153.26 552.431,1214.26 554.484,1076.64 556.537,1136.24 558.59,1205.27 560.643,1224.24 562.696,1199.22 564.749,1197.01 566.802,1142.74 568.854,1173.2 570.907,1089.59 572.96,1098.16 575.013,1255.47 577.066,1156.41 579.119,1181.28 581.172,1183.29 583.225,1144.38 585.278,1135.6 587.331,1120.72 589.383,1147.41 591.436,1531.51 593.489,1148.61 595.542,1224.85 597.595,1152.07 599.648,1174.77 601.701,1134.74 603.754,1444.66 605.807,1636.82 607.859,1105.56 609.912,1163.31 611.965,1157.88 614.018,1202.14 616.071,1155.67 618.124,1175.23 620.177,1180.99 622.23,1144.47 624.283,1186.37 626.335,1165.1 628.388,1178.59 630.441,1157.64 632.494,1198.51 634.547,1154.09 636.6,1164.09 638.653,1157.9 640.706,1320.94 642.759,1114.31 644.811,1143.89 646.864,1167.23 648.917,1153.54 650.97,1222.42 653.023,1119.63 655.076,1135.03 657.129,1166.12 659.182,1151.52 661.235,1134.17 663.288,1208.81 665.34,1161.91 667.393,1167.26 669.446,1129.72 671.499,1194.42 673.552,1225.83 675.605,1178.89 677.658,1188.29 679.711,1143.99 681.764,1251.52 683.816,1175.29 685.869,1114.81 687.922,1186.6 689.975,1149.85 692.028,1167.36 694.081,1202.43 696.134,1163.32 698.187,1201.41 700.24,1197.58 702.292,1211.56 704.345,1130.22 706.398,1166.1 708.451,1154.84 710.504,1163.05 712.557,1175.77 714.61,1156.81 716.663,1120.66 718.716,1202.16 720.768,1099.17 722.821,1066.64 724.874,1182.21 726.927,1678.63 728.98,1218.46 731.033,1129.56 733.086,1136.78 735.139,1204.19 737.192,1192.37 739.245,1143.43 741.297,1204.88 743.35,1118.47 745.403,1098.5 747.456,1159.19 749.509,1024.22 751.562,1194.66 753.615,1169.82 755.668,1192.87 757.721,1120.65 759.773,1149.01 761.826,1172.48 763.879,1236.68 765.932,1109.27 767.985,1398.56 770.038,964.078 772.091,1024.48 774.144,475.082 776.197,202.439 778.249,1740.46 780.302,3401.4 782.355,1091.99 784.408,1226.13 786.461,1099.21 788.514,1132.25 790.567,1169.24 792.62,1217.28 794.673,1203.15 796.725,1277.43 798.778,1368.74 800.831,1176.84 802.884,1185.08 804.937,1227.62 806.99,1168 809.043,1137.53 811.096,1245.14 813.149,1253.33 815.202,1201.43 817.254,1216.04 819.307,1279.93 821.36,1787.94 823.413,699.982 825.466,1035.49 827.519,1269.08 829.572,1192.52 831.625,1194.35 833.678,1147.18 835.73,1182.03 837.783,1147.61 839.836,1167.37 841.889,1131.76 843.942,1140.51 845.995,1179.43 848.048,1151.31 850.101,1180.43 852.154,1180.57 854.206,1183.67 856.259,1144.49 858.312,1200.06 860.365,1172.06 862.418,1175.66 864.471,1165.71 866.524,1197.79 868.577,691.712 870.63,1213.06 872.682,1183.5 874.735,1149.3 876.788,1161.55 878.841,1170.61 880.894,1187.23 882.947,1191.59 885,1134.67 887.053,1185.54 889.106,1179.35 891.159,1121.86 893.211,1158.45 895.264,1165.12 897.317,1191.15 899.37,1168.97 901.423,1165.43 903.476,1158.65 905.529,1166.74 907.582,1167.19 909.635,1170.77 911.687,1143.7 913.74,1236.72 915.793,1231.93 917.846,1184.6 919.899,1178.69 921.952,1426.09 924.005,1183.99 926.058,1168.58 928.111,1171 930.163,1161.85 932.216,1184.14 934.269,305.25 936.322,930.964 938.375,1475.82 940.428,947.653 942.481,1115.03 944.534,1094.68 946.587,1108.49 948.639,1121.41 950.692,1143.16 952.745,1140.82 954.798,1170.63 956.851,1139.8 958.904,1234.65 960.957,1185.48 963.01,1135.63 965.063,1100.61 967.116,1147.99 969.168,1096.4 971.221,1224.34 973.274,1187.65 975.327,1236.56 977.38,1203.38 979.433,1250.19 981.486,1162.88 983.539,1129.87 985.592,1137.6 987.644,1139.23 989.697,1160.2 991.75,1189.76 993.803,1145.19 995.856,1158.25 997.909,1165.83 999.962,1167.84 1002.01,1187.3 1004.07,1181 1006.12,1097.49 1008.17,1354.69 1010.23,1469.72 1012.28,1187.57 1014.33,1147.95 1016.38,1167.64 1018.44,1196.38 1020.49,990.009 1022.54,1316.44 1024.6,1225.73 1026.65,879.362 1028.7,993.522 1030.76,976.4 1032.81,1211.28 1034.86,1127.67 1036.91,1282 1038.97,1068.23 1041.02,1250.24 1043.07,1116.43 1045.13,1228.65 1047.18,1116.79 1049.23,1162.15 1051.28,1159.43 1053.34,1172.93 1055.39,1156.09 1057.44,1164.25 1059.5,1196.14 1061.55,1177.24 1063.6,1145.21 1065.65,1136.76 1067.71,1123.92 1069.76,1184.17 1071.81,1185.4 1073.87,1165.95 1075.92,1159.32 1077.97,1164.72 1080.02,1139.45 1082.08,1207.8 1084.13,1320.05 1086.18,488.818 1088.24,1139.42 1090.29,1157.34 1092.34,1159.67 1094.39,1153.41 1096.45,1158.91 1098.5,1178.65 1100.55,1146.52 1102.61,1120.54 1104.66,1218.62 1106.71,1178.53 1108.77,1146.66 1110.82,1125.12 1112.87,1121.98 1114.92,1132.99 1116.98,1083.74 1119.03,1368.49 1121.08,1167.11 1123.14,-583.971 1125.19,1357.12 1127.24,839.33 1129.29,838.147 1131.35,2089.79 1133.4,1688.79 1135.45,1812.71 1137.51,1092.24 1139.56,2608.04 1141.61,3340.97 1143.66,903.702 1145.72,1544.06 1147.77,-8593.71 1149.82,3436.35 1151.88,501.243 1153.93,2232.63 1155.98,-345.546 1158.03,-3404.32 1160.09,1711.89 1162.14,-512.591 1164.19,2652.29 1166.25,4024.23 1168.3,129.977 1170.35,2056.83 1172.4,883.904 1174.46,1209.96 1176.51,1059.67 1178.56,2226.12 1180.62,2715.81 1182.67,-18.5266 1184.72,320.314 1186.77,293.673 1188.83,1806.61 1190.88,1312.09 1192.93,1775.62 1194.99,792.468 1197.04,477.558 1199.09,2560.9 1201.15,-430.941 1203.2,1387.66 1205.25,1103.85 1207.3,1159.41 1209.36,1174.67 1211.41,1155.67 1213.46,1139.26 1215.52,1197.75 1217.57,1207.69 1219.62,1159.76 1221.67,1179.75 1223.73,1168.94 1225.78,1128.36 1227.83,1239.15 1229.89,1220.44 1231.94,1126.21 1233.99,1164.03 1236.04,1179.28 1238.1,1157.01 1240.15,1171.55 1242.2,1168.87 1244.26,1148.21 1246.31,1195.77 1248.36,1198.13 1250.41,1190.77 1252.47,1151.15 1254.52,1149.27 1256.57,1207.97 1258.63,1159.21 1260.68,1172.24 1262.73,1157.54 1264.78,1168.99 1266.84,1092.27 1268.89,1253.58 1270.94,1195.36 1273,1135.97 1275.05,1297.32 1277.1,1165.76 1279.16,1212.86 1281.21,1212.01 1283.26,1090.79 1285.31,1083.53 1287.37,1218.25 1289.42,1223.27 1291.47,1100.65 1293.53,1219.23 1295.58,1222.2 1297.63,1090.85 1299.68,1122.86 1301.74,1070.59 1303.79,1143.08 1305.84,1152.64 1307.9,1240.64 1309.95,1022.53 1312,919.949 1314.05,1387.46 1316.11,1266.86 1318.16,1190.47 1320.21,915.675 1322.27,1249.09 1324.32,1349.73 1326.37,1083.89 1328.42,1057.39 1330.48,1191.04 1332.53,1184.24 1334.58,1157.52 1336.64,1134.24 1338.69,1169.02 1340.74,1160.13 1342.79,1188.66 1344.85,1132.66 1346.9,1121.79 1348.95,1147.54 1351.01,1233.37 1353.06,1143.96 1355.11,1123.71 1357.16,1197.67 1359.22,1136.64 1361.27,1204.37 1363.32,1096.7 1365.38,1474.16 1367.43,1092.4 1369.48,1155.38 1371.54,1145.26 1373.59,1273.92 1375.64,1214.69 1377.69,1120.46 1379.75,1210.22 1381.8,1131.85 1383.85,1141.91 1385.91,1169.64 1387.96,1167.98 1390.01,1160.84 1392.06,1182.67 1394.12,1211.03 1396.17,1070.91 1398.22,1225.83 1400.28,1196.75 1402.33,1164.86 1404.38,1145.24 1406.43,1125.62 1408.49,1092.91 1410.54,1217.56 1412.59,1134.62 1414.65,1148.84 1416.7,1150.39 1418.75,1141.58 1420.8,1204.19 1422.86,1425.37 1424.91,1195.26 1426.96,1194.3 1429.02,1141.22 1431.07,1072.94 1433.12,1217.37 1435.17,1223.71 1437.23,1106.85 1439.28,1200.06 1441.33,1165.77 1443.39,1150.53 1445.44,1159.78 1447.49,1150.3 1449.55,1172.81 1451.6,1155.93 1453.65,1157.34 1455.7,1147.86 1457.76,1167.82 1459.81,1183.99 1461.86,1177.47 1463.92,1203.9 1465.97,1102.8 1468.02,1046.28 1470.07,1225.85 1472.13,1353.18 1474.18,1142.93 1476.23,1130.58 1478.29,1199.47 1480.34,1152.3 1482.39,1152.15 1484.44,1146.46 1486.5,1163.5 1488.55,1149.2 1490.6,1205.59 1492.66,1186.58 1494.71,1170.67 1496.76,1180.31 1498.81,1134.13 1500.87,1110.53 1502.92,1124.41 1504.97,1139.23 1507.03,1025.79 1509.08,1104.21 1511.13,1207.27 1513.18,1243.76 1515.24,1120.97 1517.29,1101.5 1519.34,1188.06 1521.4,1115.69 1523.45,1126.23 1525.5,1043.85 1527.55,1326.29 1529.61,1180.32 1531.66,1094.12 1533.71,1232.46 1535.77,1264.6 1537.82,1262.73 1539.87,1200.03 1541.93,1226.65 1543.98,1194.31 1546.03,1179 1548.08,1138.12 1550.14,1156.42 1552.19,1149.18 1554.24,1153.74 1556.3,1260.2 1558.35,1196.36 1560.4,1215.29 1562.45,1207.73 1564.51,1170.15 1566.56,1235.77 1568.61,1163.64 1570.67,1164.47 1572.72,1125.82 1574.77,1187.99 1576.82,1153.01 1578.88,1214.08 1580.93,1207.3 1582.98,1247.4 1585.04,1155.44 1587.09,1173.25 1589.14,1182.45 1591.19,1165.73 1593.25,1114.97 1595.3,1244.45 1597.35,1074.91 1599.41,1160.25 1601.46,1156.85 1603.51,1188.42 1605.56,1176.48 1607.62,1201.69 1609.67,1182.84 1611.72,1254.07 1613.78,1103.96 1615.83,1296.71 1617.88,951.734 1619.94,1159.6 1621.99,1182.26 1624.04,1145.5 1626.09,1165.85 1628.15,1124.39 1630.2,1188.07 1632.25,1124.04 1634.31,1141.15 1636.36,1107.17 1638.41,1155.52 1640.46,1191.36 1642.52,1178.07 1644.57,1139.99 1646.62,1169.56 1648.68,1154.3 1650.73,1216.89 1652.78,1143.25 1654.83,1118.84 1656.89,1168.24 1658.94,1182.92 1660.99,1178.75 1663.05,1143.27 1665.1,1172.63 1667.15,1185.2 1669.2,1124.94 1671.26,1165.38 1673.31,1193.6 1675.36,1181.22 1677.42,1151.93 1679.47,1177.73 1681.52,1190.46 1683.57,1181.24 1685.63,1154.44 1687.68,1232.12 1689.73,1237.53 1691.79,1050.88 1693.84,926.338 1695.89,1215.69 1697.94,3360.48 1700,2790.78 1702.05,1945.63 1704.1,2039.77 1706.16,417.912 1708.21,-838.605 1710.26,1032.03 1712.32,1592.83 1714.37,1396.05 1716.42,1091.48 1718.47,1131.65 1720.53,1175.38 1722.58,1236.43 1724.63,1132.36 1726.69,1188.04 1728.74,1266.32 1730.79,1137.28 1732.84,1173.64 1734.9,1160.97 1736.95,791.532 1739,1222.86 1741.06,1165.18 1743.11,991.96 1745.16,1019.69 1747.21,1313.02 1749.27,1272.89 1751.32,1072.73 1753.37,1097.09 1755.43,1091.63 1757.48,1127.01 1759.53,1146.29 1761.58,1308.06 1763.64,1194.26 1765.69,1101.36 1767.74,1209.75 1769.8,1137.58 1771.85,1228.46 1773.9,1676.81 1775.95,1551.51 1778.01,1235.34 1780.06,1111.68 1782.11,1166.76 1784.17,869.999 1786.22,827.37 1788.27,1472.81 1790.33,1199.07 1792.38,1190.55 1794.43,1185.41 1796.48,1172.63 1798.54,1142.75 1800.59,1207.7 1802.64,1121.05 1804.7,1193.77 1806.75,1936.99 1808.8,919.939 1810.85,981.82 1812.91,991.636 1814.96,1144.29 1817.01,1216.69 1819.07,1123.81 1821.12,1170.02 1823.17,1211.32 1825.22,1208.1 1827.28,1217.52 1829.33,1240.86 1831.38,1066.59 1833.44,1122.1 1835.49,1204.09 1837.54,1128.54 1839.59,1214 1841.65,1154.76 1843.7,1204.12 1845.75,1205.64 1847.81,1151.28 1849.86,1135.36 1851.91,1135.96 1853.96,1175.46 1856.02,1177.01 1858.07,1291.42 1860.12,1262.43 1862.18,1152.13 1864.23,1122 1866.28,1068.26 1868.34,1337.02 1870.39,1002.95 1872.44,926.469 1874.49,529.721 1876.55,1731.42 1878.6,1356.2 1880.65,1186.72 1882.71,1286.03 1884.76,1241.75 1886.81,1176.31 1888.86,1350.03 1890.92,1346.26 1892.97,935.708 1895.02,1303.93 1897.08,1152.02 1899.13,1163.46 1901.18,1171.85 1903.23,1136.82 1905.29,1183.84 1907.34,1066.65 1909.39,1056.92 1911.45,1268.6 1913.5,1168.63 1915.55,1165.66 1917.6,1181.85 1919.66,1162.39 1921.71,1152.67 1923.76,1212.84 1925.82,1206.36 1927.87,1081.36 1929.92,1162.43 1931.97,1203.61 1934.03,923.865 1936.08,1091.5 1938.13,947.507 1940.19,874.605 1942.24,940.08 1944.29,1198.43 1946.34,1198.56 1948.4,1192.54 1950.45,1228.71 1952.5,1171.97 1954.56,949.278 1956.61,1004.81 1958.66,1205.61 1960.72,1161.95 1962.77,1112.33 1964.82,1145.91 1966.87,1134.86 1968.93,1671.5 1970.98,303.35 1973.03,476.112 1975.09,4308.9 1977.14,5157.06 1979.19,-77.6518 1981.24,890.575 1983.3,1142.45 1985.35,1181.83 1987.4,1133.5 1989.46,1121.91 1991.51,1323.99 1993.56,1126.01 1995.61,1153.99 1997.67,1204.94 1999.72,1256.22 2001.77,1203.28 2003.83,1085.03 2005.88,1149.81 2007.93,1155.26 2009.98,1176.23 2012.04,1206.46 2014.09,1095.82 2016.14,1143 2018.2,1164.62 2020.25,1152.45 2022.3,1178.82 2024.35,1298.53 2026.41,1245.51 2028.46,1244.55 2030.51,1200.94 2032.57,1156.51 2034.62,1163.74 2036.67,1218.56 2038.73,1177.13 2040.78,1143.64 2042.83,1118.79 2044.88,1133.51 2046.94,1180.37 2048.99,788.395 2051.04,1160.76 2053.1,1272.03 2055.15,1124.66 2057.2,1027.54 2059.25,995.188 2061.31,1125.49 2063.36,1107.68 2065.41,1117.65 2067.47,1243.55 2069.52,1178.88 2071.57,1137.13 2073.62,1139.85 2075.68,1187.79 2077.73,1120.6 2079.78,1228.93 2081.84,1156.4 2083.89,1190.56 2085.94,1182.82 2087.99,1279.94 2090.05,1180.5 2092.1,1174.95 2094.15,1140.95 2096.21,1138.4 2098.26,1124.38 2100.31,1169.89 2102.36,1162.91 2104.42,1185.12 2106.47,1216.37 2108.52,1148.21 2110.58,1165.54 2112.63,1169.28 2114.68,1137.05 2116.73,1195.93 2118.79,1179.93 2120.84,1163.57 2122.89,1182.8 2124.95,1101.33 2127,1124.45 2129.05,1180.16 2131.11,1162.56 2133.16,1167.37 2135.21,1166.27 2137.26,1166.41 2139.32,1198.92 2141.37,1297.38 2143.42,1372.83 2145.48,1118.03 2147.53,1245.77 2149.58,1204.92 2151.63,1201.44 2153.69,1154.47 2155.74,1108.01 2157.79,1237.49 2159.85,1264.01 2161.9,933.488 2163.95,1485.62 2166,1937.72 2168.06,-895.507 2170.11,-4678.29 2172.16,-12392.9 2174.22,25907.7 2176.27,173701 2178.32,-27264.9 2180.37,21952.2 2182.43,211185 2184.48,-316663 2186.53,548973 2188.59,20836.5 2190.64,-9604.28 2192.69,-8482.85 2194.74,8637.1 2196.8,4516.56 2198.85,1124.94 2200.9,1123.45 2202.96,1165.29 2205.01,1169.62 2207.06,1159.68 2209.12,1172.01 2211.17,1207.79 2213.22,1286.93 2215.27,1144.74 2217.33,1169.71 2219.38,1161.84 2221.43,1144.95 2223.49,1165.8 2225.54,1155.58 2227.59,1159.35 2229.64,1162.21 2231.7,1213.4 2233.75,1116.48 2235.8,1247.07 2237.86,1207.47 2239.91,1262.43 2241.96,1218.86 2244.01,1197.36 2246.07,1100.56 2248.12,1150.7 2250.17,1173.63 2252.23,1168.44 2254.28,1225.28 2256.33,1118.76 2258.38,1133.32 2260.44,1198.5 2262.49,1144.64 2264.54,1218.23 2266.6,1197.98 2268.65,1141.54 2270.7,1183.08 2272.75,1189.94 2274.81,1161.26 2276.86,1174.13 2278.91,1167.1 2280.97,1136.93 2283.02,1181.07 2285.07,1169.51 2287.12,1168.24 2289.18,1225.88 2291.23,907.762 "/>
<path clip-path="url(#clip150)" d="M251.33 1465.14 L588.926 1465.14 L588.926 1361.46 L251.33 1361.46  Z" fill="#ffffff" fill-rule="evenodd" fill-opacity="1"/>
<polyline clip-path="url(#clip150)" style="stroke:#000000; stroke-linecap:round; stroke-linejoin:round; stroke-width:4; stroke-opacity:1; fill:none" points="251.33,1465.14 588.926,1465.14 588.926,1361.46 251.33,1361.46 251.33,1465.14 "/>
<polyline clip-path="url(#clip150)" style="stroke:#009af9; stroke-linecap:round; stroke-linejoin:round; stroke-width:4; stroke-opacity:1; fill:none" points="275.484,1413.3 420.41,1413.3 "/>
<path clip-path="url(#clip150)" d="M470.12 1425.65 L470.12 1416.37 L462.481 1416.37 L462.481 1412.53 L474.749 1412.53 L474.749 1427.36 Q472.041 1429.28 468.777 1430.28 Q465.513 1431.25 461.809 1431.25 Q453.708 1431.25 449.124 1426.53 Q444.564 1421.78 444.564 1413.34 Q444.564 1404.86 449.124 1400.14 Q453.708 1395.4 461.809 1395.4 Q465.189 1395.4 468.221 1396.23 Q471.277 1397.06 473.846 1398.68 L473.846 1403.66 Q471.254 1401.46 468.337 1400.35 Q465.421 1399.24 462.203 1399.24 Q455.86 1399.24 452.666 1402.78 Q449.495 1406.32 449.495 1413.34 Q449.495 1420.33 452.666 1423.87 Q455.86 1427.41 462.203 1427.41 Q464.68 1427.41 466.624 1426.99 Q468.569 1426.55 470.12 1425.65 Z" fill="#000000" fill-rule="nonzero" fill-opacity="1" /><path clip-path="url(#clip150)" d="M487.967 1399.86 L487.967 1412.85 L493.846 1412.85 Q497.11 1412.85 498.893 1411.16 Q500.675 1409.47 500.675 1406.35 Q500.675 1403.24 498.893 1401.55 Q497.11 1399.86 493.846 1399.86 L487.967 1399.86 M483.291 1396.02 L493.846 1396.02 Q499.657 1396.02 502.619 1398.66 Q505.606 1401.28 505.606 1406.35 Q505.606 1411.46 502.619 1414.08 Q499.657 1416.69 493.846 1416.69 L487.967 1416.69 L487.967 1430.58 L483.291 1430.58 L483.291 1396.02 Z" fill="#000000" fill-rule="nonzero" fill-opacity="1" /><path clip-path="url(#clip150)" d="M532.596 1397.16 L532.596 1401.72 Q529.934 1400.44 527.573 1399.82 Q525.212 1399.19 523.013 1399.19 Q519.193 1399.19 517.11 1400.67 Q515.05 1402.16 515.05 1404.89 Q515.05 1407.18 516.416 1408.36 Q517.805 1409.52 521.647 1410.23 L524.471 1410.81 Q529.703 1411.81 532.179 1414.33 Q534.679 1416.83 534.679 1421.04 Q534.679 1426.07 531.3 1428.66 Q527.943 1431.25 521.439 1431.25 Q518.985 1431.25 516.207 1430.7 Q513.453 1430.14 510.49 1429.05 L510.49 1424.24 Q513.337 1425.84 516.068 1426.65 Q518.8 1427.46 521.439 1427.46 Q525.443 1427.46 527.619 1425.88 Q529.795 1424.31 529.795 1421.39 Q529.795 1418.85 528.221 1417.41 Q526.67 1415.97 523.105 1415.26 L520.258 1414.7 Q515.027 1413.66 512.689 1411.44 Q510.351 1409.22 510.351 1405.26 Q510.351 1400.67 513.568 1398.03 Q516.809 1395.4 522.48 1395.4 Q524.911 1395.4 527.434 1395.84 Q529.957 1396.28 532.596 1397.16 Z" fill="#000000" fill-rule="nonzero" fill-opacity="1" /><path clip-path="url(#clip150)" d="M562.689 1397.16 L562.689 1401.72 Q560.027 1400.44 557.665 1399.82 Q555.304 1399.19 553.105 1399.19 Q549.286 1399.19 547.203 1400.67 Q545.142 1402.16 545.142 1404.89 Q545.142 1407.18 546.508 1408.36 Q547.897 1409.52 551.74 1410.23 L554.564 1410.81 Q559.795 1411.81 562.272 1414.33 Q564.772 1416.83 564.772 1421.04 Q564.772 1426.07 561.392 1428.66 Q558.036 1431.25 551.531 1431.25 Q549.078 1431.25 546.3 1430.7 Q543.545 1430.14 540.582 1429.05 L540.582 1424.24 Q543.429 1425.84 546.161 1426.65 Q548.892 1427.46 551.531 1427.46 Q555.536 1427.46 557.712 1425.88 Q559.888 1424.31 559.888 1421.39 Q559.888 1418.85 558.314 1417.41 Q556.763 1415.97 553.198 1415.26 L550.351 1414.7 Q545.119 1413.66 542.781 1411.44 Q540.443 1409.22 540.443 1405.26 Q540.443 1400.67 543.661 1398.03 Q546.902 1395.4 552.573 1395.4 Q555.003 1395.4 557.527 1395.84 Q560.05 1396.28 562.689 1397.16 Z" fill="#000000" fill-rule="nonzero" fill-opacity="1" /></svg>
