<?xml version="1.0" encoding="utf-8"?>
<svg xmlns="http://www.w3.org/2000/svg" xmlns:xlink="http://www.w3.org/1999/xlink" width="600" height="400" viewBox="0 0 2400 1600">
<defs>
  <clipPath id="clip920">
    <rect x="0" y="0" width="2400" height="1600"/>
  </clipPath>
</defs>
<path clip-path="url(#clip920)" d="M0 1600 L2400 1600 L2400 0 L0 0  Z" fill="#ffffff" fill-rule="evenodd" fill-opacity="1"/>
<defs>
  <clipPath id="clip921">
    <rect x="480" y="0" width="1681" height="1600"/>
  </clipPath>
</defs>
<path clip-path="url(#clip920)" d="M178.867 686.448 L2352.76 686.448 L2352.76 47.2441 L178.867 47.2441  Z" fill="#ffffff" fill-rule="evenodd" fill-opacity="1"/>
<defs>
  <clipPath id="clip922">
    <rect x="178" y="47" width="2175" height="640"/>
  </clipPath>
</defs>
<polyline clip-path="url(#clip922)" style="stroke:#000000; stroke-linecap:round; stroke-linejoin:round; stroke-width:2; stroke-opacity:0.1; fill:none" points="238.339,686.448 238.339,47.2441 "/>
<polyline clip-path="url(#clip922)" style="stroke:#000000; stroke-linecap:round; stroke-linejoin:round; stroke-width:2; stroke-opacity:0.1; fill:none" points="751.562,686.448 751.562,47.2441 "/>
<polyline clip-path="url(#clip922)" style="stroke:#000000; stroke-linecap:round; stroke-linejoin:round; stroke-width:2; stroke-opacity:0.1; fill:none" points="1264.78,686.448 1264.78,47.2441 "/>
<polyline clip-path="url(#clip922)" style="stroke:#000000; stroke-linecap:round; stroke-linejoin:round; stroke-width:2; stroke-opacity:0.1; fill:none" points="1778.01,686.448 1778.01,47.2441 "/>
<polyline clip-path="url(#clip922)" style="stroke:#000000; stroke-linecap:round; stroke-linejoin:round; stroke-width:2; stroke-opacity:0.1; fill:none" points="2291.23,686.448 2291.23,47.2441 "/>
<polyline clip-path="url(#clip922)" style="stroke:#000000; stroke-linecap:round; stroke-linejoin:round; stroke-width:2; stroke-opacity:0.1; fill:none" points="178.867,686.448 2352.76,686.448 "/>
<polyline clip-path="url(#clip922)" style="stroke:#000000; stroke-linecap:round; stroke-linejoin:round; stroke-width:2; stroke-opacity:0.1; fill:none" points="178.867,526.647 2352.76,526.647 "/>
<polyline clip-path="url(#clip922)" style="stroke:#000000; stroke-linecap:round; stroke-linejoin:round; stroke-width:2; stroke-opacity:0.1; fill:none" points="178.867,366.846 2352.76,366.846 "/>
<polyline clip-path="url(#clip922)" style="stroke:#000000; stroke-linecap:round; stroke-linejoin:round; stroke-width:2; stroke-opacity:0.1; fill:none" points="178.867,207.045 2352.76,207.045 "/>
<polyline clip-path="url(#clip922)" style="stroke:#000000; stroke-linecap:round; stroke-linejoin:round; stroke-width:2; stroke-opacity:0.1; fill:none" points="178.867,47.2441 2352.76,47.2441 "/>
<polyline clip-path="url(#clip920)" style="stroke:#000000; stroke-linecap:round; stroke-linejoin:round; stroke-width:4; stroke-opacity:1; fill:none" points="178.867,686.448 2352.76,686.448 "/>
<polyline clip-path="url(#clip920)" style="stroke:#000000; stroke-linecap:round; stroke-linejoin:round; stroke-width:4; stroke-opacity:1; fill:none" points="238.339,686.448 238.339,667.55 "/>
<polyline clip-path="url(#clip920)" style="stroke:#000000; stroke-linecap:round; stroke-linejoin:round; stroke-width:4; stroke-opacity:1; fill:none" points="751.562,686.448 751.562,667.55 "/>
<polyline clip-path="url(#clip920)" style="stroke:#000000; stroke-linecap:round; stroke-linejoin:round; stroke-width:4; stroke-opacity:1; fill:none" points="1264.78,686.448 1264.78,667.55 "/>
<polyline clip-path="url(#clip920)" style="stroke:#000000; stroke-linecap:round; stroke-linejoin:round; stroke-width:4; stroke-opacity:1; fill:none" points="1778.01,686.448 1778.01,667.55 "/>
<polyline clip-path="url(#clip920)" style="stroke:#000000; stroke-linecap:round; stroke-linejoin:round; stroke-width:4; stroke-opacity:1; fill:none" points="2291.23,686.448 2291.23,667.55 "/>
<path clip-path="url(#clip920)" d="M238.339 717.367 Q234.728 717.367 232.899 720.931 Q231.094 724.473 231.094 731.603 Q231.094 738.709 232.899 742.274 Q234.728 745.815 238.339 745.815 Q241.973 745.815 243.779 742.274 Q245.607 738.709 245.607 731.603 Q245.607 724.473 243.779 720.931 Q241.973 717.367 238.339 717.367 M238.339 713.663 Q244.149 713.663 247.205 718.269 Q250.283 722.853 250.283 731.603 Q250.283 740.329 247.205 744.936 Q244.149 749.519 238.339 749.519 Q232.529 749.519 229.45 744.936 Q226.395 740.329 226.395 731.603 Q226.395 722.853 229.45 718.269 Q232.529 713.663 238.339 713.663 Z" fill="#000000" fill-rule="nonzero" fill-opacity="1" /><path clip-path="url(#clip920)" d="M715.254 744.913 L731.574 744.913 L731.574 748.848 L709.629 748.848 L709.629 744.913 Q712.291 742.158 716.875 737.528 Q721.481 732.876 722.662 731.533 Q724.907 729.01 725.787 727.274 Q726.689 725.515 726.689 723.825 Q726.689 721.07 724.745 719.334 Q722.824 717.598 719.722 717.598 Q717.523 717.598 715.069 718.362 Q712.638 719.126 709.861 720.677 L709.861 715.955 Q712.685 714.82 715.138 714.242 Q717.592 713.663 719.629 713.663 Q725 713.663 728.194 716.348 Q731.388 719.033 731.388 723.524 Q731.388 725.654 730.578 727.575 Q729.791 729.473 727.685 732.066 Q727.106 732.737 724.004 735.954 Q720.902 739.149 715.254 744.913 Z" fill="#000000" fill-rule="nonzero" fill-opacity="1" /><path clip-path="url(#clip920)" d="M741.435 714.288 L759.791 714.288 L759.791 718.223 L745.717 718.223 L745.717 726.695 Q746.736 726.348 747.754 726.186 Q748.773 726.001 749.791 726.001 Q755.578 726.001 758.958 729.172 Q762.337 732.343 762.337 737.76 Q762.337 743.339 758.865 746.44 Q755.393 749.519 749.073 749.519 Q746.898 749.519 744.629 749.149 Q742.384 748.778 739.976 748.038 L739.976 743.339 Q742.06 744.473 744.282 745.028 Q746.504 745.584 748.981 745.584 Q752.985 745.584 755.323 743.478 Q757.661 741.371 757.661 737.76 Q757.661 734.149 755.323 732.042 Q752.985 729.936 748.981 729.936 Q747.106 729.936 745.231 730.353 Q743.379 730.769 741.435 731.649 L741.435 714.288 Z" fill="#000000" fill-rule="nonzero" fill-opacity="1" /><path clip-path="url(#clip920)" d="M781.55 717.367 Q777.939 717.367 776.11 720.931 Q774.305 724.473 774.305 731.603 Q774.305 738.709 776.11 742.274 Q777.939 745.815 781.55 745.815 Q785.184 745.815 786.99 742.274 Q788.819 738.709 788.819 731.603 Q788.819 724.473 786.99 720.931 Q785.184 717.367 781.55 717.367 M781.55 713.663 Q787.36 713.663 790.416 718.269 Q793.495 722.853 793.495 731.603 Q793.495 740.329 790.416 744.936 Q787.36 749.519 781.55 749.519 Q775.74 749.519 772.661 744.936 Q769.606 740.329 769.606 731.603 Q769.606 722.853 772.661 718.269 Q775.74 713.663 781.55 713.663 Z" fill="#000000" fill-rule="nonzero" fill-opacity="1" /><path clip-path="url(#clip920)" d="M1224.4 714.288 L1242.76 714.288 L1242.76 718.223 L1228.69 718.223 L1228.69 726.695 Q1229.7 726.348 1230.72 726.186 Q1231.74 726.001 1232.76 726.001 Q1238.55 726.001 1241.93 729.172 Q1245.31 732.343 1245.31 737.76 Q1245.31 743.339 1241.83 746.44 Q1238.36 749.519 1232.04 749.519 Q1229.87 749.519 1227.6 749.149 Q1225.35 748.778 1222.94 748.038 L1222.94 743.339 Q1225.03 744.473 1227.25 745.028 Q1229.47 745.584 1231.95 745.584 Q1235.95 745.584 1238.29 743.478 Q1240.63 741.371 1240.63 737.76 Q1240.63 734.149 1238.29 732.042 Q1235.95 729.936 1231.95 729.936 Q1230.07 729.936 1228.2 730.353 Q1226.35 730.769 1224.4 731.649 L1224.4 714.288 Z" fill="#000000" fill-rule="nonzero" fill-opacity="1" /><path clip-path="url(#clip920)" d="M1264.52 717.367 Q1260.91 717.367 1259.08 720.931 Q1257.27 724.473 1257.27 731.603 Q1257.27 738.709 1259.08 742.274 Q1260.91 745.815 1264.52 745.815 Q1268.15 745.815 1269.96 742.274 Q1271.79 738.709 1271.79 731.603 Q1271.79 724.473 1269.96 720.931 Q1268.15 717.367 1264.52 717.367 M1264.52 713.663 Q1270.33 713.663 1273.38 718.269 Q1276.46 722.853 1276.46 731.603 Q1276.46 740.329 1273.38 744.936 Q1270.33 749.519 1264.52 749.519 Q1258.71 749.519 1255.63 744.936 Q1252.57 740.329 1252.57 731.603 Q1252.57 722.853 1255.63 718.269 Q1258.71 713.663 1264.52 713.663 Z" fill="#000000" fill-rule="nonzero" fill-opacity="1" /><path clip-path="url(#clip920)" d="M1294.68 717.367 Q1291.07 717.367 1289.24 720.931 Q1287.44 724.473 1287.44 731.603 Q1287.44 738.709 1289.24 742.274 Q1291.07 745.815 1294.68 745.815 Q1298.31 745.815 1300.12 742.274 Q1301.95 738.709 1301.95 731.603 Q1301.95 724.473 1300.12 720.931 Q1298.31 717.367 1294.68 717.367 M1294.68 713.663 Q1300.49 713.663 1303.55 718.269 Q1306.62 722.853 1306.62 731.603 Q1306.62 740.329 1303.55 744.936 Q1300.49 749.519 1294.68 749.519 Q1288.87 749.519 1285.79 744.936 Q1282.74 740.329 1282.74 731.603 Q1282.74 722.853 1285.79 718.269 Q1288.87 713.663 1294.68 713.663 Z" fill="#000000" fill-rule="nonzero" fill-opacity="1" /><path clip-path="url(#clip920)" d="M1736.28 714.288 L1758.51 714.288 L1758.51 716.279 L1745.96 748.848 L1741.08 748.848 L1752.88 718.223 L1736.28 718.223 L1736.28 714.288 Z" fill="#000000" fill-rule="nonzero" fill-opacity="1" /><path clip-path="url(#clip920)" d="M1767.67 714.288 L1786.03 714.288 L1786.03 718.223 L1771.95 718.223 L1771.95 726.695 Q1772.97 726.348 1773.99 726.186 Q1775.01 726.001 1776.03 726.001 Q1781.82 726.001 1785.2 729.172 Q1788.57 732.343 1788.57 737.76 Q1788.57 743.339 1785.1 746.44 Q1781.63 749.519 1775.31 749.519 Q1773.14 749.519 1770.87 749.149 Q1768.62 748.778 1766.21 748.038 L1766.21 743.339 Q1768.3 744.473 1770.52 745.028 Q1772.74 745.584 1775.22 745.584 Q1779.22 745.584 1781.56 743.478 Q1783.9 741.371 1783.9 737.76 Q1783.9 734.149 1781.56 732.042 Q1779.22 729.936 1775.22 729.936 Q1773.34 729.936 1771.47 730.353 Q1769.62 730.769 1767.67 731.649 L1767.67 714.288 Z" fill="#000000" fill-rule="nonzero" fill-opacity="1" /><path clip-path="url(#clip920)" d="M1807.79 717.367 Q1804.18 717.367 1802.35 720.931 Q1800.54 724.473 1800.54 731.603 Q1800.54 738.709 1802.35 742.274 Q1804.18 745.815 1807.79 745.815 Q1811.42 745.815 1813.23 742.274 Q1815.06 738.709 1815.06 731.603 Q1815.06 724.473 1813.23 720.931 Q1811.42 717.367 1807.79 717.367 M1807.79 713.663 Q1813.6 713.663 1816.65 718.269 Q1819.73 722.853 1819.73 731.603 Q1819.73 740.329 1816.65 744.936 Q1813.6 749.519 1807.79 749.519 Q1801.98 749.519 1798.9 744.936 Q1795.84 740.329 1795.84 731.603 Q1795.84 722.853 1798.9 718.269 Q1801.98 713.663 1807.79 713.663 Z" fill="#000000" fill-rule="nonzero" fill-opacity="1" /><path clip-path="url(#clip920)" d="M2235.76 744.913 L2243.4 744.913 L2243.4 718.547 L2235.09 720.214 L2235.09 715.955 L2243.35 714.288 L2248.02 714.288 L2248.02 744.913 L2255.66 744.913 L2255.66 748.848 L2235.76 748.848 L2235.76 744.913 Z" fill="#000000" fill-rule="nonzero" fill-opacity="1" /><path clip-path="url(#clip920)" d="M2275.11 717.367 Q2271.5 717.367 2269.67 720.931 Q2267.86 724.473 2267.86 731.603 Q2267.86 738.709 2269.67 742.274 Q2271.5 745.815 2275.11 745.815 Q2278.74 745.815 2280.55 742.274 Q2282.38 738.709 2282.38 731.603 Q2282.38 724.473 2280.55 720.931 Q2278.74 717.367 2275.11 717.367 M2275.11 713.663 Q2280.92 713.663 2283.97 718.269 Q2287.05 722.853 2287.05 731.603 Q2287.05 740.329 2283.97 744.936 Q2280.92 749.519 2275.11 749.519 Q2269.3 749.519 2266.22 744.936 Q2263.16 740.329 2263.16 731.603 Q2263.16 722.853 2266.22 718.269 Q2269.3 713.663 2275.11 713.663 Z" fill="#000000" fill-rule="nonzero" fill-opacity="1" /><path clip-path="url(#clip920)" d="M2305.27 717.367 Q2301.66 717.367 2299.83 720.931 Q2298.02 724.473 2298.02 731.603 Q2298.02 738.709 2299.83 742.274 Q2301.66 745.815 2305.27 745.815 Q2308.9 745.815 2310.71 742.274 Q2312.54 738.709 2312.54 731.603 Q2312.54 724.473 2310.71 720.931 Q2308.9 717.367 2305.27 717.367 M2305.27 713.663 Q2311.08 713.663 2314.14 718.269 Q2317.21 722.853 2317.21 731.603 Q2317.21 740.329 2314.14 744.936 Q2311.08 749.519 2305.27 749.519 Q2299.46 749.519 2296.38 744.936 Q2293.33 740.329 2293.33 731.603 Q2293.33 722.853 2296.38 718.269 Q2299.46 713.663 2305.27 713.663 Z" fill="#000000" fill-rule="nonzero" fill-opacity="1" /><path clip-path="url(#clip920)" d="M2335.43 717.367 Q2331.82 717.367 2329.99 720.931 Q2328.19 724.473 2328.19 731.603 Q2328.19 738.709 2329.99 742.274 Q2331.82 745.815 2335.43 745.815 Q2339.07 745.815 2340.87 742.274 Q2342.7 738.709 2342.7 731.603 Q2342.7 724.473 2340.87 720.931 Q2339.07 717.367 2335.43 717.367 M2335.43 713.663 Q2341.24 713.663 2344.3 718.269 Q2347.38 722.853 2347.38 731.603 Q2347.38 740.329 2344.3 744.936 Q2341.24 749.519 2335.43 749.519 Q2329.62 749.519 2326.54 744.936 Q2323.49 740.329 2323.49 731.603 Q2323.49 722.853 2326.54 718.269 Q2329.62 713.663 2335.43 713.663 Z" fill="#000000" fill-rule="nonzero" fill-opacity="1" /><polyline clip-path="url(#clip920)" style="stroke:#000000; stroke-linecap:round; stroke-linejoin:round; stroke-width:4; stroke-opacity:1; fill:none" points="178.867,686.448 178.867,47.2441 "/>
<polyline clip-path="url(#clip920)" style="stroke:#000000; stroke-linecap:round; stroke-linejoin:round; stroke-width:4; stroke-opacity:1; fill:none" points="178.867,686.448 197.764,686.448 "/>
<polyline clip-path="url(#clip920)" style="stroke:#000000; stroke-linecap:round; stroke-linejoin:round; stroke-width:4; stroke-opacity:1; fill:none" points="178.867,526.647 197.764,526.647 "/>
<polyline clip-path="url(#clip920)" style="stroke:#000000; stroke-linecap:round; stroke-linejoin:round; stroke-width:4; stroke-opacity:1; fill:none" points="178.867,366.846 197.764,366.846 "/>
<polyline clip-path="url(#clip920)" style="stroke:#000000; stroke-linecap:round; stroke-linejoin:round; stroke-width:4; stroke-opacity:1; fill:none" points="178.867,207.045 197.764,207.045 "/>
<polyline clip-path="url(#clip920)" style="stroke:#000000; stroke-linecap:round; stroke-linejoin:round; stroke-width:4; stroke-opacity:1; fill:none" points="178.867,47.2441 197.764,47.2441 "/>
<path clip-path="url(#clip920)" d="M50.9921 686.899 L80.6679 686.899 L80.6679 690.834 L50.9921 690.834 L50.9921 686.899 Z" fill="#000000" fill-rule="nonzero" fill-opacity="1" /><path clip-path="url(#clip920)" d="M91.5706 699.793 L99.2095 699.793 L99.2095 673.427 L90.8993 675.094 L90.8993 670.835 L99.1632 669.168 L103.839 669.168 L103.839 699.793 L111.478 699.793 L111.478 703.728 L91.5706 703.728 L91.5706 699.793 Z" fill="#000000" fill-rule="nonzero" fill-opacity="1" /><path clip-path="url(#clip920)" d="M130.922 672.247 Q127.311 672.247 125.482 675.811 Q123.677 679.353 123.677 686.483 Q123.677 693.589 125.482 697.154 Q127.311 700.695 130.922 700.695 Q134.556 700.695 136.362 697.154 Q138.191 693.589 138.191 686.483 Q138.191 679.353 136.362 675.811 Q134.556 672.247 130.922 672.247 M130.922 668.543 Q136.732 668.543 139.788 673.149 Q142.867 677.733 142.867 686.483 Q142.867 695.209 139.788 699.816 Q136.732 704.399 130.922 704.399 Q125.112 704.399 122.033 699.816 Q118.978 695.209 118.978 686.483 Q118.978 677.733 122.033 673.149 Q125.112 668.543 130.922 668.543 Z" fill="#000000" fill-rule="nonzero" fill-opacity="1" /><path clip-path="url(#clip920)" d="M82.1494 527.098 L111.825 527.098 L111.825 531.033 L82.1494 531.033 L82.1494 527.098 Z" fill="#000000" fill-rule="nonzero" fill-opacity="1" /><path clip-path="url(#clip920)" d="M121.964 509.367 L140.32 509.367 L140.32 513.302 L126.246 513.302 L126.246 521.774 Q127.265 521.427 128.283 521.265 Q129.302 521.08 130.32 521.08 Q136.107 521.08 139.487 524.251 Q142.867 527.422 142.867 532.839 Q142.867 538.418 139.394 541.52 Q135.922 544.598 129.603 544.598 Q127.427 544.598 125.158 544.228 Q122.913 543.857 120.506 543.117 L120.506 538.418 Q122.589 539.552 124.811 540.108 Q127.033 540.663 129.51 540.663 Q133.515 540.663 135.853 538.557 Q138.191 536.45 138.191 532.839 Q138.191 529.228 135.853 527.121 Q133.515 525.015 129.51 525.015 Q127.635 525.015 125.76 525.432 Q123.908 525.848 121.964 526.728 L121.964 509.367 Z" fill="#000000" fill-rule="nonzero" fill-opacity="1" /><path clip-path="url(#clip920)" d="M130.922 352.645 Q127.311 352.645 125.482 356.209 Q123.677 359.751 123.677 366.881 Q123.677 373.987 125.482 377.552 Q127.311 381.094 130.922 381.094 Q134.556 381.094 136.362 377.552 Q138.191 373.987 138.191 366.881 Q138.191 359.751 136.362 356.209 Q134.556 352.645 130.922 352.645 M130.922 348.941 Q136.732 348.941 139.788 353.547 Q142.867 358.131 142.867 366.881 Q142.867 375.608 139.788 380.214 Q136.732 384.797 130.922 384.797 Q125.112 384.797 122.033 380.214 Q118.978 375.608 118.978 366.881 Q118.978 358.131 122.033 353.547 Q125.112 348.941 130.922 348.941 Z" fill="#000000" fill-rule="nonzero" fill-opacity="1" /><path clip-path="url(#clip920)" d="M121.964 189.765 L140.32 189.765 L140.32 193.7 L126.246 193.7 L126.246 202.172 Q127.265 201.825 128.283 201.663 Q129.302 201.478 130.32 201.478 Q136.107 201.478 139.487 204.649 Q142.867 207.82 142.867 213.237 Q142.867 218.816 139.394 221.918 Q135.922 224.996 129.603 224.996 Q127.427 224.996 125.158 224.626 Q122.913 224.256 120.506 223.515 L120.506 218.816 Q122.589 219.95 124.811 220.506 Q127.033 221.061 129.51 221.061 Q133.515 221.061 135.853 218.955 Q138.191 216.848 138.191 213.237 Q138.191 209.626 135.853 207.52 Q133.515 205.413 129.51 205.413 Q127.635 205.413 125.76 205.83 Q123.908 206.246 121.964 207.126 L121.964 189.765 Z" fill="#000000" fill-rule="nonzero" fill-opacity="1" /><path clip-path="url(#clip920)" d="M91.5706 60.5889 L99.2095 60.5889 L99.2095 34.2233 L90.8993 35.89 L90.8993 31.6308 L99.1632 29.9641 L103.839 29.9641 L103.839 60.5889 L111.478 60.5889 L111.478 64.5241 L91.5706 64.5241 L91.5706 60.5889 Z" fill="#000000" fill-rule="nonzero" fill-opacity="1" /><path clip-path="url(#clip920)" d="M130.922 33.0428 Q127.311 33.0428 125.482 36.6076 Q123.677 40.1492 123.677 47.2788 Q123.677 54.3853 125.482 57.9501 Q127.311 61.4917 130.922 61.4917 Q134.556 61.4917 136.362 57.9501 Q138.191 54.3853 138.191 47.2788 Q138.191 40.1492 136.362 36.6076 Q134.556 33.0428 130.922 33.0428 M130.922 29.3391 Q136.732 29.3391 139.788 33.9456 Q142.867 38.5289 142.867 47.2788 Q142.867 56.0056 139.788 60.6121 Q136.732 65.1954 130.922 65.1954 Q125.112 65.1954 122.033 60.6121 Q118.978 56.0056 118.978 47.2788 Q118.978 38.5289 122.033 33.9456 Q125.112 29.3391 130.922 29.3391 Z" fill="#000000" fill-rule="nonzero" fill-opacity="1" /><polyline clip-path="url(#clip922)" style="stroke:#009af9; stroke-linecap:round; stroke-linejoin:round; stroke-width:4; stroke-opacity:1; fill:none" points="240.392,334.886 242.445,334.732 244.498,332.336 246.55,332.887 248.603,353.215 250.656,355.492 252.709,355.961 254.762,356.048 256.815,355.634 258.868,326.155 260.921,326.254 262.974,327.881 265.027,327.855 267.079,345.504 269.132,345.419 271.185,345.353 273.238,344.504 275.291,345.199 277.344,343.195 279.397,342.949 281.45,345.947 283.503,345.455 285.555,345.667 287.608,331.113 289.661,324.715 291.714,326.112 293.767,324.12 295.82,324.793 297.873,324.81 299.926,324.859 301.979,324.838 304.031,325.859 306.084,343.829 308.137,350.766 310.19,353.046 312.243,393.873 314.296,392.806 316.349,402.57 318.402,400.565 320.455,404.221 322.507,406.568 324.56,416.096 326.613,416.076 328.666,416.622 330.719,379.547 332.772,374.845 334.825,374.591 336.878,370.542 338.931,377.423 340.984,377.213 343.036,384.203 345.089,366.623 347.142,367.335 349.195,378.24 351.248,380.103 353.301,384.635 355.354,386.343 357.407,386.513 359.46,386.508 361.512,390.799 363.565,380.835 365.618,383.509 367.671,366.732 369.724,365.54 371.777,362.925 373.83,337.966 375.883,337.841 377.936,304.445 379.988,406.678 382.041,387.856 384.094,365.164 386.147,339.321 388.2,398.827 390.253,387.946 392.306,387.679 394.359,367.593 396.412,366.243 398.464,368.921 400.517,433.022 402.57,371.651 404.623,371.626 406.676,372.308 408.729,365.608 410.782,365.503 412.835,346.416 414.888,347.385 416.94,369.081 418.993,369.144 421.046,372.471 423.099,373.33 425.152,376.38 427.205,385.376 429.258,385.896 431.311,384.116 433.364,384.335 435.417,384.37 437.469,397.914 439.522,404.538 441.575,406.006 443.628,406.506 445.681,403.823 447.734,378.541 449.787,378.411 451.84,373.74 453.893,371.443 455.945,371.086 457.998,371.101 460.051,371.1 462.104,369.688 464.157,381.6 466.21,381.695 468.263,365.975 470.316,355.445 472.369,343.626 474.421,348.624 476.474,350.324 478.527,342.175 480.58,342.334 482.633,342.629 484.686,343.48 486.739,366.046 488.792,353.801 490.845,368.253 492.897,368.112 494.95,368.258 497.003,366.525 499.056,366.505 501.109,367.084 503.162,358.258 505.215,394.397 507.268,393.819 509.321,385.202 511.374,356.354 513.426,354.877 515.479,354.839 517.532,354.832 519.585,373.138 521.638,377.774 523.691,363.558 525.744,362.108 527.797,362.366 529.85,362.362 531.902,367.033 533.955,365.296 536.008,368.186 538.061,380.348 540.114,379.584 542.167,382.186 544.22,377.056 546.273,370.853 548.326,370.599 550.378,370.676 552.431,371.906 554.484,371.469 556.537,376.407 558.59,387.429 560.643,396.946 562.696,393.309 564.749,388.611 566.802,392.564 568.854,393.268 570.907,391.884 572.96,382.765 575.013,380.832 577.066,387.888 579.119,391.539 581.172,394.638 583.225,392.901 585.278,412.871 587.331,414.484 589.383,402.04 591.436,400.748 593.489,369.412 595.542,355.788 597.595,356.948 599.648,367.608 601.701,364.067 603.754,364.258 605.807,364.377 607.859,356.815 609.912,356.434 611.965,377.068 614.018,376.811 616.071,376.369 618.124,373.546 620.177,372.542 622.23,375.5 624.283,372.429 626.335,375.453 628.388,377.908 630.441,377.91 632.494,383.55 634.547,317.759 636.6,317.74 638.653,340.206 640.706,329.456 642.759,328.967 644.811,336.184 646.864,335.768 648.917,335.835 650.97,335.846 653.023,335.804 655.076,335.838 657.129,339.004 659.182,339.325 661.235,339.234 663.288,358.01 665.34,346.111 667.393,346.51 669.446,324.257 671.499,316.24 673.552,316.451 675.605,298.076 677.658,298.059 679.711,267.468 681.764,271.012 683.816,273.758 685.869,313.654 687.922,337.313 689.975,332.813 692.028,329.763 694.081,434.484 696.134,433.623 698.187,363.112 700.24,364.23 702.292,370.01 704.345,370.877 706.398,370.701 708.451,397.613 710.504,396.152 712.557,395.786 714.61,319.271 716.663,327.734 718.716,350.894 720.768,353.418 722.821,353.854 724.874,346.066 726.927,353.285 728.98,353.07 731.033,345.581 733.086,345.061 735.139,346.083 737.192,342.028 739.245,339.006 741.297,338.518 743.35,338.256 745.403,338.498 747.456,338.507 749.509,348.551 751.562,349.012 753.615,350.286 755.668,350.48 757.721,350.184 759.773,340.33 761.826,339.24 763.879,365.285 765.932,365.281 767.985,368.915 770.038,375.428 772.091,374.376 774.144,374.08 776.197,365.637 778.249,365.645 780.302,365.467 782.355,366.668 784.408,363.866 786.461,375.769 788.514,361.632 790.567,360.967 792.62,360.32 794.673,370.907 796.725,370.964 798.778,370.849 800.831,345.001 802.884,342.902 804.937,341.935 806.99,341.56 809.043,340.478 811.096,333.097 813.149,336.471 815.202,333.682 817.254,335.895 819.307,335.537 821.36,364.68 823.413,369.998 825.466,371.715 827.519,372.614 829.572,372.573 831.625,370.112 833.678,399.542 835.73,392.864 837.783,395.121 839.836,397.792 841.889,409.518 843.942,410.215 845.995,374.777 848.048,376.336 850.101,398.191 852.154,396.5 854.206,396.019 856.259,392.234 858.312,392.221 860.365,395.8 862.418,395.703 864.471,362.791 866.524,357.037 868.577,358.756 870.63,361.59 872.682,353.509 874.735,358.174 876.788,349.23 878.841,418.387 880.894,391.81 882.947,361.612 885,361.134 887.053,360.828 889.106,349.196 891.159,349.224 893.211,346.565 895.264,351.322 897.317,352.841 899.37,363.923 901.423,368.955 903.476,385.323 905.529,385.057 907.582,385.637 909.635,383.401 911.687,374.315 913.74,360.504 915.793,358.3 917.846,361.509 919.899,358.897 921.952,365.858 924.005,366.023 926.058,366.021 928.111,343.524 930.163,360.921 932.216,352.766 934.269,348.723 936.322,358.231 938.375,364.714 940.428,354.338 942.481,355.758 944.534,350.756 946.587,366.721 948.639,366.395 950.692,366.077 952.745,368.395 954.798,364.203 956.851,375.804 958.904,376.47 960.957,374.076 963.01,372.808 965.063,372.853 967.116,375.97 969.168,376.575 971.221,378.253 973.274,359.588 975.327,356.529 977.38,406.971 979.433,407.351 981.486,397.295 983.539,417.787 985.592,410.403 987.644,410.082 989.697,411.241 991.75,407.269 993.803,333.95 995.856,335.169 997.909,325.249 999.962,320.892 1002.01,318.287 1004.07,339.753 1006.12,367.11 1008.17,332.163 1010.23,330.377 1012.28,352.533 1014.33,362.864 1016.38,363.212 1018.44,362.943 1020.49,387.444 1022.54,387.359 1024.6,387.756 1026.65,374.307 1028.7,371.941 1030.76,373.333 1032.81,382.083 1034.86,381.161 1036.91,356.275 1038.97,359.457 1041.02,359.184 1043.07,359.185 1045.13,367.506 1047.18,367.506 1049.23,365.933 1051.28,368.273 1053.34,378.372 1055.39,392.71 1057.44,392.71 1059.5,373.233 1061.55,371.077 1063.6,372.243 1065.65,371.162 1067.71,378.815 1069.76,378.476 1071.81,378.565 1073.87,367.312 1075.92,359.577 1077.97,375.893 1080.02,375.507 1082.08,377.826 1084.13,378.569 1086.18,380.238 1088.24,377.639 1090.29,379.512 1092.34,380.006 1094.39,383.499 1096.45,382.954 1098.5,382.139 1100.55,382.58 1102.61,380.121 1104.66,369.049 1106.71,370.169 1108.77,368.162 1110.82,368.228 1112.87,364.418 1114.92,378.245 1116.98,374.008 1119.03,385.299 1121.08,371.548 1123.14,371.472 1125.19,361.785 1127.24,349.956 1129.29,346.473 1131.35,346.906 1133.4,351.71 1135.45,350.492 1137.51,359.923 1139.56,360.24 1141.61,360.24 1143.66,361.026 1145.72,362.16 1147.77,362.164 1149.82,362.272 1151.88,355.682 1153.93,355.704 1155.98,357.509 1158.03,356.233 1160.09,357.547 1162.14,357.588 1164.19,357.302 1166.25,342.462 1168.3,342.559 1170.35,342.375 1172.4,342.381 1174.46,344.275 1176.51,343.257 1178.56,343.763 1180.62,343.907 1182.67,345.975 1184.72,345.171 1186.77,338.692 1188.83,340.124 1190.88,340.124 1192.93,340.146 1194.99,336.395 1197.04,352.948 1199.09,352.815 1201.15,351.934 1203.2,352.742 1205.25,351.277 1207.3,351.278 1209.36,352.451 1211.41,351.964 1213.46,348.024 1215.52,348.867 1217.57,348.789 1219.62,347.246 1221.67,361.963 1223.73,355.655 1225.78,383.472 1227.83,379.187 1229.89,378.301 1231.94,382.15 1233.99,384.709 1236.04,375.311 1238.1,415.126 1240.15,414.108 1242.2,427.273 1244.26,427.318 1246.31,429.964 1248.36,433.86 1250.41,433.276 1252.47,429.639 1254.52,429.31 1256.57,328.117 1258.63,338.128 1260.68,334.846 1262.73,334.829 1264.78,333.807 1266.84,372.371 1268.89,377.693 1270.94,375.742 1273,383.238 1275.05,417.333 1277.1,435.067 1279.16,435.148 1281.21,442.433 1283.26,440.595 1285.31,446.412 1287.37,400.677 1289.42,368.473 1291.47,369.705 1293.53,421.061 1295.58,334.465 1297.63,337.07 1299.68,297.652 1301.74,303.122 1303.79,301.101 1305.84,302.43 1307.9,300.764 1309.95,296.262 1312,334.845 1314.05,333.885 1316.11,334.891 1318.16,355.14 1320.21,371.003 1322.27,421.138 1324.32,434.992 1326.37,435.134 1328.42,435.363 1330.48,408.93 1332.53,414.875 1334.58,416.696 1336.64,415.672 1338.69,416.808 1340.74,382.502 1342.79,386.313 1344.85,388.341 1346.9,378.421 1348.95,378.419 1351.01,376.792 1353.06,374.292 1355.11,375.327 1357.16,375.598 1359.22,375.479 1361.27,374.994 1363.32,372.816 1365.38,370.229 1367.43,371.192 1369.48,371.229 1371.54,371.09 1373.59,369.777 1375.64,363.733 1377.69,364.971 1379.75,375.045 1381.8,371.374 1383.85,373.652 1385.91,373.482 1387.96,379.41 1390.01,379.972 1392.06,363.889 1394.12,357.667 1396.17,359.012 1398.22,358.655 1400.28,361.472 1402.33,373.134 1404.38,379.395 1406.43,378.406 1408.49,375.602 1410.54,375.692 1412.59,374.993 1414.65,375.464 1416.7,378.228 1418.75,378.025 1420.8,375.312 1422.86,380.84 1424.91,381.077 1426.96,371.176 1429.02,370.877 1431.07,362.007 1433.12,369.799 1435.17,368.963 1437.23,367.198 1439.28,367.634 1441.33,362.361 1443.39,366.998 1445.44,367.695 1447.49,385.234 1449.55,387.268 1451.6,383.481 1453.65,380.896 1455.7,380.883 1457.76,373.593 1459.81,392.018 1461.86,379.129 1463.92,379.083 1465.97,379.079 1468.02,379.893 1470.07,379.89 1472.13,386.225 1474.18,392.713 1476.23,392.531 1478.29,393.548 1480.34,395.287 1482.39,395.257 1484.44,390.452 1486.5,369.05 1488.55,372.296 1490.6,361.378 1492.66,358.356 1494.71,358.272 1496.76,330.715 1498.81,331.611 1500.87,342.088 1502.92,359.257 1504.97,360.806 1507.03,359.439 1509.08,358.372 1511.13,358.588 1513.18,353.696 1515.24,322.696 1517.29,398.013 1519.34,401.326 1521.4,401.078 1523.45,389.269 1525.5,372.395 1527.55,366.868 1529.61,361.891 1531.66,363.793 1533.71,362.627 1535.77,382.426 1537.82,387.366 1539.87,387.379 1541.93,384.543 1543.98,381.013 1546.03,362.088 1548.08,361.926 1550.14,362.981 1552.19,379.676 1554.24,379.669 1556.3,381.577 1558.35,386.601 1560.4,387.335 1562.45,386.667 1564.51,386.573 1566.56,386.413 1568.61,389.139 1570.67,389.622 1572.72,389.626 1574.77,385.383 1576.82,385.825 1578.88,383.557 1580.93,374.891 1582.98,375.063 1585.04,374.644 1587.09,360.785 1589.14,360.011 1591.19,358.255 1593.25,358.478 1595.3,334.655 1597.35,369.072 1599.41,366.947 1601.46,364.534 1603.51,366.461 1605.56,366.556 1607.62,360.753 1609.67,375.318 1611.72,314.917 1613.78,316.313 1615.83,323.716 1617.88,331.381 1619.94,363.251 1621.99,338.684 1624.04,337.785 1626.09,361.635 1628.15,361.518 1630.2,372.808 1632.25,358.471 1634.31,399.791 1636.36,384.355 1638.41,369.249 1640.46,384.271 1642.52,385.245 1644.57,384.76 1646.62,387.085 1648.68,383.004 1650.73,407.778 1652.78,408.626 1654.83,400.95 1656.89,403.115 1658.94,400.81 1660.99,400.87 1663.05,415.478 1665.1,414.951 1667.15,420.43 1669.2,411.997 1671.26,411.483 1673.31,426.653 1675.36,419.93 1677.42,373.26 1679.47,371.478 1681.52,371.297 1683.57,371.856 1685.63,436.681 1687.68,436.662 1689.73,457.119 1691.79,448.946 1693.84,434.474 1695.89,430.195 1697.94,425.62 1700,422.46 1702.05,406.172 1704.1,410.026 1706.16,405.548 1708.21,404.641 1710.26,409.472 1712.32,413.519 1714.37,431.302 1716.42,420.038 1718.47,420.007 1720.53,419.736 1722.58,449.708 1724.63,376.583 1726.69,376.684 1728.74,375.527 1730.79,496.72 1732.84,355.147 1734.9,353.248 1736.95,394.332 1739,312.501 1741.06,315.601 1743.11,299.701 1745.16,265.144 1747.21,265.216 1749.27,286.878 1751.32,287.7 1753.37,288.953 1755.43,294.609 1757.48,299.065 1759.53,297.709 1761.58,299.559 1763.64,289.348 1765.69,302.819 1767.74,303.72 1769.8,303.92 1771.85,302.676 1773.9,334.165 1775.95,331.517 1778.01,332.265 1780.06,334.032 1782.11,333.977 1784.17,344.693 1786.22,344.587 1788.27,344.59 1790.33,363.849 1792.38,361.615 1794.43,360.399 1796.48,365.776 1798.54,350.161 1800.59,336.26 1802.64,355.659 1804.7,360.613 1806.75,382.825 1808.8,378.416 1810.85,372.649 1812.91,373.927 1814.96,373.284 1817.01,375.518 1819.07,378.413 1821.12,360.153 1823.17,360.152 1825.22,360.15 1827.28,364.426 1829.33,364.31 1831.38,364.027 1833.44,363.912 1835.49,375.052 1837.54,381.045 1839.59,381.916 1841.65,383.372 1843.7,358.503 1845.75,351.17 1847.81,367.554 1849.86,349.435 1851.91,349.411 1853.96,346.344 1856.02,356.342 1858.07,351.297 1860.12,353.072 1862.18,340.379 1864.23,316.548 1866.28,382.362 1868.34,393.484 1870.39,393.458 1872.44,386.702 1874.49,388.33 1876.55,375.75 1878.6,409.11 1880.65,415.291 1882.71,397.779 1884.76,286.204 1886.81,295.637 1888.86,337.869 1890.92,344.063 1892.97,326.817 1895.02,329.432 1897.08,330.211 1899.13,331.296 1901.18,352.545 1903.23,364.434 1905.29,375.965 1907.34,375.51 1909.39,377.664 1911.45,362.691 1913.5,362.72 1915.55,362.659 1917.6,371.213 1919.66,373.037 1921.71,370.898 1923.76,370.847 1925.82,370.801 1927.87,366.799 1929.92,364.311 1931.97,365.46 1934.03,362.77 1936.08,362.135 1938.13,357.244 1940.19,359.775 1942.24,362.054 1944.29,362.015 1946.34,363.267 1948.4,360.794 1950.45,352.468 1952.5,353.582 1954.56,355.359 1956.61,376.901 1958.66,376.67 1960.72,363.293 1962.77,354.991 1964.82,354.368 1966.87,356.591 1968.93,356.796 1970.98,356.803 1973.03,356.606 1975.09,352.97 1977.14,349.375 1979.19,346.164 1981.24,348.513 1983.3,348.31 1985.35,347.234 1987.4,347.825 1989.46,348.452 1991.51,346.825 1993.56,351.971 1995.61,365.919 1997.67,370.657 1999.72,367.099 2001.77,369.037 2003.83,370.664 2005.88,370.482 2007.93,375.017 2009.98,378.27 2012.04,376.91 2014.09,375.316 2016.14,388.093 2018.2,387.265 2020.25,384.144 2022.3,384.145 2024.35,377.364 2026.41,377.035 2028.46,379.585 2030.51,379.42 2032.57,379.782 2034.62,339.253 2036.67,340.366 2038.73,340.034 2040.78,339.661 2042.83,340.074 2044.88,342.72 2046.94,344.583 2048.99,345.573 2051.04,346.321 2053.1,342.616 2055.15,363.477 2057.2,362.307 2059.25,362.248 2061.31,362.053 2063.36,353.485 2065.41,355.869 2067.47,356.332 2069.52,354.059 2071.57,353.598 2073.62,337.744 2075.68,343.463 2077.73,340.475 2079.78,357.68 2081.84,356.46 2083.89,358.547 2085.94,362.447 2087.99,363.448 2090.05,365.792 2092.1,374.051 2094.15,368.688 2096.21,368.507 2098.26,366.993 2100.31,367.064 2102.36,366.166 2104.42,366.636 2106.47,367.528 2108.52,367.538 2110.58,368.079 2112.63,368.08 2114.68,366.564 2116.73,366.213 2118.79,366.292 2120.84,361.385 2122.89,363.208 2124.95,364.429 2127,364.377 2129.05,367.336 2131.11,358.544 2133.16,358.656 2135.21,347.945 2137.26,387.617 2139.32,387.604 2141.37,387.083 2143.42,350.225 2145.48,350.248 2147.53,340.513 2149.58,339.662 2151.63,339.244 2153.69,343.73 2155.74,347.221 2157.79,346.957 2159.85,347.12 2161.9,347.299 2163.95,344.652 2166,344.615 2168.06,342.73 2170.11,342.259 2172.16,341.42 2174.22,340.371 2176.27,340.873 2178.32,348.342 2180.37,346.586 2182.43,346.223 2184.48,344.971 2186.53,344.978 2188.59,344.947 2190.64,326.779 2192.69,329.259 2194.74,328.37 2196.8,346.758 2198.85,346.7 2200.9,346.817 2202.96,349.797 2205.01,349.111 2207.06,377.309 2209.12,354.363 2211.17,375.04 2213.22,375.551 2215.27,369.953 2217.33,372.872 2219.38,340.745 2221.43,363.218 2223.49,359.543 2225.54,362.632 2227.59,362.598 2229.64,373.534 2231.7,330.283 2233.75,330.361 2235.8,334.684 2237.86,331.349 2239.91,294.591 2241.96,294.707 2244.01,294.709 2246.07,289.387 2248.12,296.382 2250.17,287.497 2252.23,272.588 2254.28,274.236 2256.33,277.586 2258.38,312.194 2260.44,313.7 2262.49,330.206 2264.54,297.266 2266.6,299.475 2268.65,298.809 2270.7,268.084 2272.75,269.845 2274.81,281.244 2276.86,280.571 2278.91,305.592 2280.97,311.085 2283.02,318.349 2285.07,384.035 2287.12,396.242 2289.18,390.144 2291.23,345.851 "/>
<path clip-path="url(#clip920)" d="M1983.6 172.231 L2280.29 172.231 L2280.29 68.5509 L1983.6 68.5509  Z" fill="#ffffff" fill-rule="evenodd" fill-opacity="1"/>
<polyline clip-path="url(#clip920)" style="stroke:#000000; stroke-linecap:round; stroke-linejoin:round; stroke-width:4; stroke-opacity:1; fill:none" points="1983.6,172.231 2280.29,172.231 2280.29,68.5509 1983.6,68.5509 1983.6,172.231 "/>
<polyline clip-path="url(#clip920)" style="stroke:#009af9; stroke-linecap:round; stroke-linejoin:round; stroke-width:4; stroke-opacity:1; fill:none" points="2007.75,120.391 2152.68,120.391 "/>
<path clip-path="url(#clip920)" d="M2176.83 103.111 L2181.51 103.111 L2181.51 133.736 L2198.34 133.736 L2198.34 137.671 L2176.83 137.671 L2176.83 103.111 Z" fill="#000000" fill-rule="nonzero" fill-opacity="1" /><path clip-path="url(#clip920)" d="M2223.96 104.245 L2223.96 108.805 Q2221.3 107.532 2218.94 106.907 Q2216.58 106.282 2214.38 106.282 Q2210.56 106.282 2208.48 107.764 Q2206.42 109.245 2206.42 111.977 Q2206.42 114.268 2207.78 115.449 Q2209.17 116.606 2213.01 117.324 L2215.84 117.902 Q2221.07 118.898 2223.55 121.421 Q2226.05 123.921 2226.05 128.134 Q2226.05 133.157 2222.67 135.75 Q2219.31 138.342 2212.81 138.342 Q2210.35 138.342 2207.57 137.787 Q2204.82 137.231 2201.86 136.143 L2201.86 131.328 Q2204.7 132.926 2207.44 133.736 Q2210.17 134.546 2212.81 134.546 Q2216.81 134.546 2218.99 132.972 Q2221.16 131.398 2221.16 128.481 Q2221.16 125.935 2219.59 124.5 Q2218.04 123.064 2214.47 122.347 L2211.62 121.791 Q2206.39 120.75 2204.06 118.527 Q2201.72 116.305 2201.72 112.347 Q2201.72 107.764 2204.94 105.125 Q2208.18 102.486 2213.85 102.486 Q2216.28 102.486 2218.8 102.926 Q2221.32 103.366 2223.96 104.245 Z" fill="#000000" fill-rule="nonzero" fill-opacity="1" /><path clip-path="url(#clip920)" d="M2254.06 104.245 L2254.06 108.805 Q2251.39 107.532 2249.03 106.907 Q2246.67 106.282 2244.47 106.282 Q2240.65 106.282 2238.57 107.764 Q2236.51 109.245 2236.51 111.977 Q2236.51 114.268 2237.87 115.449 Q2239.26 116.606 2243.11 117.324 L2245.93 117.902 Q2251.16 118.898 2253.64 121.421 Q2256.14 123.921 2256.14 128.134 Q2256.14 133.157 2252.76 135.75 Q2249.4 138.342 2242.9 138.342 Q2240.44 138.342 2237.67 137.787 Q2234.91 137.231 2231.95 136.143 L2231.95 131.328 Q2234.8 132.926 2237.53 133.736 Q2240.26 134.546 2242.9 134.546 Q2246.9 134.546 2249.08 132.972 Q2251.25 131.398 2251.25 128.481 Q2251.25 125.935 2249.68 124.5 Q2248.13 123.064 2244.56 122.347 L2241.72 121.791 Q2236.49 120.75 2234.15 118.527 Q2231.81 116.305 2231.81 112.347 Q2231.81 107.764 2235.03 105.125 Q2238.27 102.486 2243.94 102.486 Q2246.37 102.486 2248.89 102.926 Q2251.42 103.366 2254.06 104.245 Z" fill="#000000" fill-rule="nonzero" fill-opacity="1" /><path clip-path="url(#clip920)" d="M178.867 1486.45 L2352.76 1486.45 L2352.76 847.244 L178.867 847.244  Z" fill="#ffffff" fill-rule="evenodd" fill-opacity="1"/>
<defs>
  <clipPath id="clip923">
    <rect x="178" y="847" width="2175" height="640"/>
  </clipPath>
</defs>
<polyline clip-path="url(#clip923)" style="stroke:#000000; stroke-linecap:round; stroke-linejoin:round; stroke-width:2; stroke-opacity:0.1; fill:none" points="238.339,1486.45 238.339,847.244 "/>
<polyline clip-path="url(#clip923)" style="stroke:#000000; stroke-linecap:round; stroke-linejoin:round; stroke-width:2; stroke-opacity:0.1; fill:none" points="751.562,1486.45 751.562,847.244 "/>
<polyline clip-path="url(#clip923)" style="stroke:#000000; stroke-linecap:round; stroke-linejoin:round; stroke-width:2; stroke-opacity:0.1; fill:none" points="1264.78,1486.45 1264.78,847.244 "/>
<polyline clip-path="url(#clip923)" style="stroke:#000000; stroke-linecap:round; stroke-linejoin:round; stroke-width:2; stroke-opacity:0.1; fill:none" points="1778.01,1486.45 1778.01,847.244 "/>
<polyline clip-path="url(#clip923)" style="stroke:#000000; stroke-linecap:round; stroke-linejoin:round; stroke-width:2; stroke-opacity:0.1; fill:none" points="2291.23,1486.45 2291.23,847.244 "/>
<polyline clip-path="url(#clip923)" style="stroke:#000000; stroke-linecap:round; stroke-linejoin:round; stroke-width:2; stroke-opacity:0.1; fill:none" points="178.867,1486.45 2352.76,1486.45 "/>
<polyline clip-path="url(#clip923)" style="stroke:#000000; stroke-linecap:round; stroke-linejoin:round; stroke-width:2; stroke-opacity:0.1; fill:none" points="178.867,1326.65 2352.76,1326.65 "/>
<polyline clip-path="url(#clip923)" style="stroke:#000000; stroke-linecap:round; stroke-linejoin:round; stroke-width:2; stroke-opacity:0.1; fill:none" points="178.867,1166.85 2352.76,1166.85 "/>
<polyline clip-path="url(#clip923)" style="stroke:#000000; stroke-linecap:round; stroke-linejoin:round; stroke-width:2; stroke-opacity:0.1; fill:none" points="178.867,1007.05 2352.76,1007.05 "/>
<polyline clip-path="url(#clip923)" style="stroke:#000000; stroke-linecap:round; stroke-linejoin:round; stroke-width:2; stroke-opacity:0.1; fill:none" points="178.867,847.244 2352.76,847.244 "/>
<polyline clip-path="url(#clip920)" style="stroke:#000000; stroke-linecap:round; stroke-linejoin:round; stroke-width:4; stroke-opacity:1; fill:none" points="178.867,1486.45 2352.76,1486.45 "/>
<polyline clip-path="url(#clip920)" style="stroke:#000000; stroke-linecap:round; stroke-linejoin:round; stroke-width:4; stroke-opacity:1; fill:none" points="238.339,1486.45 238.339,1467.55 "/>
<polyline clip-path="url(#clip920)" style="stroke:#000000; stroke-linecap:round; stroke-linejoin:round; stroke-width:4; stroke-opacity:1; fill:none" points="751.562,1486.45 751.562,1467.55 "/>
<polyline clip-path="url(#clip920)" style="stroke:#000000; stroke-linecap:round; stroke-linejoin:round; stroke-width:4; stroke-opacity:1; fill:none" points="1264.78,1486.45 1264.78,1467.55 "/>
<polyline clip-path="url(#clip920)" style="stroke:#000000; stroke-linecap:round; stroke-linejoin:round; stroke-width:4; stroke-opacity:1; fill:none" points="1778.01,1486.45 1778.01,1467.55 "/>
<polyline clip-path="url(#clip920)" style="stroke:#000000; stroke-linecap:round; stroke-linejoin:round; stroke-width:4; stroke-opacity:1; fill:none" points="2291.23,1486.45 2291.23,1467.55 "/>
<path clip-path="url(#clip920)" d="M238.339 1517.37 Q234.728 1517.37 232.899 1520.93 Q231.094 1524.47 231.094 1531.6 Q231.094 1538.71 232.899 1542.27 Q234.728 1545.82 238.339 1545.82 Q241.973 1545.82 243.779 1542.27 Q245.607 1538.71 245.607 1531.6 Q245.607 1524.47 243.779 1520.93 Q241.973 1517.37 238.339 1517.37 M238.339 1513.66 Q244.149 1513.66 247.205 1518.27 Q250.283 1522.85 250.283 1531.6 Q250.283 1540.33 247.205 1544.94 Q244.149 1549.52 238.339 1549.52 Q232.529 1549.52 229.45 1544.94 Q226.395 1540.33 226.395 1531.6 Q226.395 1522.85 229.45 1518.27 Q232.529 1513.66 238.339 1513.66 Z" fill="#000000" fill-rule="nonzero" fill-opacity="1" /><path clip-path="url(#clip920)" d="M715.254 1544.91 L731.574 1544.91 L731.574 1548.85 L709.629 1548.85 L709.629 1544.91 Q712.291 1542.16 716.875 1537.53 Q721.481 1532.88 722.662 1531.53 Q724.907 1529.01 725.787 1527.27 Q726.689 1525.51 726.689 1523.82 Q726.689 1521.07 724.745 1519.33 Q722.824 1517.6 719.722 1517.6 Q717.523 1517.6 715.069 1518.36 Q712.638 1519.13 709.861 1520.68 L709.861 1515.95 Q712.685 1514.82 715.138 1514.24 Q717.592 1513.66 719.629 1513.66 Q725 1513.66 728.194 1516.35 Q731.388 1519.03 731.388 1523.52 Q731.388 1525.65 730.578 1527.57 Q729.791 1529.47 727.685 1532.07 Q727.106 1532.74 724.004 1535.95 Q720.902 1539.15 715.254 1544.91 Z" fill="#000000" fill-rule="nonzero" fill-opacity="1" /><path clip-path="url(#clip920)" d="M741.435 1514.29 L759.791 1514.29 L759.791 1518.22 L745.717 1518.22 L745.717 1526.7 Q746.736 1526.35 747.754 1526.19 Q748.773 1526 749.791 1526 Q755.578 1526 758.958 1529.17 Q762.337 1532.34 762.337 1537.76 Q762.337 1543.34 758.865 1546.44 Q755.393 1549.52 749.073 1549.52 Q746.898 1549.52 744.629 1549.15 Q742.384 1548.78 739.976 1548.04 L739.976 1543.34 Q742.06 1544.47 744.282 1545.03 Q746.504 1545.58 748.981 1545.58 Q752.985 1545.58 755.323 1543.48 Q757.661 1541.37 757.661 1537.76 Q757.661 1534.15 755.323 1532.04 Q752.985 1529.94 748.981 1529.94 Q747.106 1529.94 745.231 1530.35 Q743.379 1530.77 741.435 1531.65 L741.435 1514.29 Z" fill="#000000" fill-rule="nonzero" fill-opacity="1" /><path clip-path="url(#clip920)" d="M781.55 1517.37 Q777.939 1517.37 776.11 1520.93 Q774.305 1524.47 774.305 1531.6 Q774.305 1538.71 776.11 1542.27 Q777.939 1545.82 781.55 1545.82 Q785.184 1545.82 786.99 1542.27 Q788.819 1538.71 788.819 1531.6 Q788.819 1524.47 786.99 1520.93 Q785.184 1517.37 781.55 1517.37 M781.55 1513.66 Q787.36 1513.66 790.416 1518.27 Q793.495 1522.85 793.495 1531.6 Q793.495 1540.33 790.416 1544.94 Q787.36 1549.52 781.55 1549.52 Q775.74 1549.52 772.661 1544.94 Q769.606 1540.33 769.606 1531.6 Q769.606 1522.85 772.661 1518.27 Q775.74 1513.66 781.55 1513.66 Z" fill="#000000" fill-rule="nonzero" fill-opacity="1" /><path clip-path="url(#clip920)" d="M1224.4 1514.29 L1242.76 1514.29 L1242.76 1518.22 L1228.69 1518.22 L1228.69 1526.7 Q1229.7 1526.35 1230.72 1526.19 Q1231.74 1526 1232.76 1526 Q1238.55 1526 1241.93 1529.17 Q1245.31 1532.34 1245.31 1537.76 Q1245.31 1543.34 1241.83 1546.44 Q1238.36 1549.52 1232.04 1549.52 Q1229.87 1549.52 1227.6 1549.15 Q1225.35 1548.78 1222.94 1548.04 L1222.94 1543.34 Q1225.03 1544.47 1227.25 1545.03 Q1229.47 1545.58 1231.95 1545.58 Q1235.95 1545.58 1238.29 1543.48 Q1240.63 1541.37 1240.63 1537.76 Q1240.63 1534.15 1238.29 1532.04 Q1235.95 1529.94 1231.95 1529.94 Q1230.07 1529.94 1228.2 1530.35 Q1226.35 1530.77 1224.4 1531.65 L1224.4 1514.29 Z" fill="#000000" fill-rule="nonzero" fill-opacity="1" /><path clip-path="url(#clip920)" d="M1264.52 1517.37 Q1260.91 1517.37 1259.08 1520.93 Q1257.27 1524.47 1257.27 1531.6 Q1257.27 1538.71 1259.08 1542.27 Q1260.91 1545.82 1264.52 1545.82 Q1268.15 1545.82 1269.96 1542.27 Q1271.79 1538.71 1271.79 1531.6 Q1271.79 1524.47 1269.96 1520.93 Q1268.15 1517.37 1264.52 1517.37 M1264.52 1513.66 Q1270.33 1513.66 1273.38 1518.27 Q1276.46 1522.85 1276.46 1531.6 Q1276.46 1540.33 1273.38 1544.94 Q1270.33 1549.52 1264.52 1549.52 Q1258.71 1549.52 1255.63 1544.94 Q1252.57 1540.33 1252.57 1531.6 Q1252.57 1522.85 1255.63 1518.27 Q1258.71 1513.66 1264.52 1513.66 Z" fill="#000000" fill-rule="nonzero" fill-opacity="1" /><path clip-path="url(#clip920)" d="M1294.68 1517.37 Q1291.07 1517.37 1289.24 1520.93 Q1287.44 1524.47 1287.44 1531.6 Q1287.44 1538.71 1289.24 1542.27 Q1291.07 1545.82 1294.68 1545.82 Q1298.31 1545.82 1300.12 1542.27 Q1301.95 1538.71 1301.95 1531.6 Q1301.95 1524.47 1300.12 1520.93 Q1298.31 1517.37 1294.68 1517.37 M1294.68 1513.66 Q1300.49 1513.66 1303.55 1518.27 Q1306.62 1522.85 1306.62 1531.6 Q1306.62 1540.33 1303.55 1544.94 Q1300.49 1549.52 1294.68 1549.52 Q1288.87 1549.52 1285.79 1544.94 Q1282.74 1540.33 1282.74 1531.6 Q1282.74 1522.85 1285.79 1518.27 Q1288.87 1513.66 1294.68 1513.66 Z" fill="#000000" fill-rule="nonzero" fill-opacity="1" /><path clip-path="url(#clip920)" d="M1736.28 1514.29 L1758.51 1514.29 L1758.51 1516.28 L1745.96 1548.85 L1741.08 1548.85 L1752.88 1518.22 L1736.28 1518.22 L1736.28 1514.29 Z" fill="#000000" fill-rule="nonzero" fill-opacity="1" /><path clip-path="url(#clip920)" d="M1767.67 1514.29 L1786.03 1514.29 L1786.03 1518.22 L1771.95 1518.22 L1771.95 1526.7 Q1772.97 1526.35 1773.99 1526.19 Q1775.01 1526 1776.03 1526 Q1781.82 1526 1785.2 1529.17 Q1788.57 1532.34 1788.57 1537.76 Q1788.57 1543.34 1785.1 1546.44 Q1781.63 1549.52 1775.31 1549.52 Q1773.14 1549.52 1770.87 1549.15 Q1768.62 1548.78 1766.21 1548.04 L1766.21 1543.34 Q1768.3 1544.47 1770.52 1545.03 Q1772.74 1545.58 1775.22 1545.58 Q1779.22 1545.58 1781.56 1543.48 Q1783.9 1541.37 1783.9 1537.76 Q1783.9 1534.15 1781.56 1532.04 Q1779.22 1529.94 1775.22 1529.94 Q1773.34 1529.94 1771.47 1530.35 Q1769.62 1530.77 1767.67 1531.65 L1767.67 1514.29 Z" fill="#000000" fill-rule="nonzero" fill-opacity="1" /><path clip-path="url(#clip920)" d="M1807.79 1517.37 Q1804.18 1517.37 1802.35 1520.93 Q1800.54 1524.47 1800.54 1531.6 Q1800.54 1538.71 1802.35 1542.27 Q1804.18 1545.82 1807.79 1545.82 Q1811.42 1545.82 1813.23 1542.27 Q1815.06 1538.71 1815.06 1531.6 Q1815.06 1524.47 1813.23 1520.93 Q1811.42 1517.37 1807.79 1517.37 M1807.79 1513.66 Q1813.6 1513.66 1816.65 1518.27 Q1819.73 1522.85 1819.73 1531.6 Q1819.73 1540.33 1816.65 1544.94 Q1813.6 1549.52 1807.79 1549.52 Q1801.98 1549.52 1798.9 1544.94 Q1795.84 1540.33 1795.84 1531.6 Q1795.84 1522.85 1798.9 1518.27 Q1801.98 1513.66 1807.79 1513.66 Z" fill="#000000" fill-rule="nonzero" fill-opacity="1" /><path clip-path="url(#clip920)" d="M2235.76 1544.91 L2243.4 1544.91 L2243.4 1518.55 L2235.09 1520.21 L2235.09 1515.95 L2243.35 1514.29 L2248.02 1514.29 L2248.02 1544.91 L2255.66 1544.91 L2255.66 1548.85 L2235.76 1548.85 L2235.76 1544.91 Z" fill="#000000" fill-rule="nonzero" fill-opacity="1" /><path clip-path="url(#clip920)" d="M2275.11 1517.37 Q2271.5 1517.37 2269.67 1520.93 Q2267.86 1524.47 2267.86 1531.6 Q2267.86 1538.71 2269.67 1542.27 Q2271.5 1545.82 2275.11 1545.82 Q2278.74 1545.82 2280.55 1542.27 Q2282.38 1538.71 2282.38 1531.6 Q2282.38 1524.47 2280.55 1520.93 Q2278.74 1517.37 2275.11 1517.37 M2275.11 1513.66 Q2280.92 1513.66 2283.97 1518.27 Q2287.05 1522.85 2287.05 1531.6 Q2287.05 1540.33 2283.97 1544.94 Q2280.92 1549.52 2275.11 1549.52 Q2269.3 1549.52 2266.22 1544.94 Q2263.16 1540.33 2263.16 1531.6 Q2263.16 1522.85 2266.22 1518.27 Q2269.3 1513.66 2275.11 1513.66 Z" fill="#000000" fill-rule="nonzero" fill-opacity="1" /><path clip-path="url(#clip920)" d="M2305.27 1517.37 Q2301.66 1517.37 2299.83 1520.93 Q2298.02 1524.47 2298.02 1531.6 Q2298.02 1538.71 2299.83 1542.27 Q2301.66 1545.82 2305.27 1545.82 Q2308.9 1545.82 2310.71 1542.27 Q2312.54 1538.71 2312.54 1531.6 Q2312.54 1524.47 2310.71 1520.93 Q2308.9 1517.37 2305.27 1517.37 M2305.27 1513.66 Q2311.08 1513.66 2314.14 1518.27 Q2317.21 1522.85 2317.21 1531.6 Q2317.21 1540.33 2314.14 1544.94 Q2311.08 1549.52 2305.27 1549.52 Q2299.46 1549.52 2296.38 1544.94 Q2293.33 1540.33 2293.33 1531.6 Q2293.33 1522.85 2296.38 1518.27 Q2299.46 1513.66 2305.27 1513.66 Z" fill="#000000" fill-rule="nonzero" fill-opacity="1" /><path clip-path="url(#clip920)" d="M2335.43 1517.37 Q2331.82 1517.37 2329.99 1520.93 Q2328.19 1524.47 2328.19 1531.6 Q2328.19 1538.71 2329.99 1542.27 Q2331.82 1545.82 2335.43 1545.82 Q2339.07 1545.82 2340.87 1542.27 Q2342.7 1538.71 2342.7 1531.6 Q2342.7 1524.47 2340.87 1520.93 Q2339.07 1517.37 2335.43 1517.37 M2335.43 1513.66 Q2341.24 1513.66 2344.3 1518.27 Q2347.38 1522.85 2347.38 1531.6 Q2347.38 1540.33 2344.3 1544.94 Q2341.24 1549.52 2335.43 1549.52 Q2329.62 1549.52 2326.54 1544.94 Q2323.49 1540.33 2323.49 1531.6 Q2323.49 1522.85 2326.54 1518.27 Q2329.62 1513.66 2335.43 1513.66 Z" fill="#000000" fill-rule="nonzero" fill-opacity="1" /><polyline clip-path="url(#clip920)" style="stroke:#000000; stroke-linecap:round; stroke-linejoin:round; stroke-width:4; stroke-opacity:1; fill:none" points="178.867,1486.45 178.867,847.244 "/>
<polyline clip-path="url(#clip920)" style="stroke:#000000; stroke-linecap:round; stroke-linejoin:round; stroke-width:4; stroke-opacity:1; fill:none" points="178.867,1486.45 197.764,1486.45 "/>
<polyline clip-path="url(#clip920)" style="stroke:#000000; stroke-linecap:round; stroke-linejoin:round; stroke-width:4; stroke-opacity:1; fill:none" points="178.867,1326.65 197.764,1326.65 "/>
<polyline clip-path="url(#clip920)" style="stroke:#000000; stroke-linecap:round; stroke-linejoin:round; stroke-width:4; stroke-opacity:1; fill:none" points="178.867,1166.85 197.764,1166.85 "/>
<polyline clip-path="url(#clip920)" style="stroke:#000000; stroke-linecap:round; stroke-linejoin:round; stroke-width:4; stroke-opacity:1; fill:none" points="178.867,1007.05 197.764,1007.05 "/>
<polyline clip-path="url(#clip920)" style="stroke:#000000; stroke-linecap:round; stroke-linejoin:round; stroke-width:4; stroke-opacity:1; fill:none" points="178.867,847.244 197.764,847.244 "/>
<path clip-path="url(#clip920)" d="M50.9921 1486.9 L80.6679 1486.9 L80.6679 1490.83 L50.9921 1490.83 L50.9921 1486.9 Z" fill="#000000" fill-rule="nonzero" fill-opacity="1" /><path clip-path="url(#clip920)" d="M91.5706 1499.79 L99.2095 1499.79 L99.2095 1473.43 L90.8993 1475.09 L90.8993 1470.83 L99.1632 1469.17 L103.839 1469.17 L103.839 1499.79 L111.478 1499.79 L111.478 1503.73 L91.5706 1503.73 L91.5706 1499.79 Z" fill="#000000" fill-rule="nonzero" fill-opacity="1" /><path clip-path="url(#clip920)" d="M130.922 1472.25 Q127.311 1472.25 125.482 1475.81 Q123.677 1479.35 123.677 1486.48 Q123.677 1493.59 125.482 1497.15 Q127.311 1500.7 130.922 1500.7 Q134.556 1500.7 136.362 1497.15 Q138.191 1493.59 138.191 1486.48 Q138.191 1479.35 136.362 1475.81 Q134.556 1472.25 130.922 1472.25 M130.922 1468.54 Q136.732 1468.54 139.788 1473.15 Q142.867 1477.73 142.867 1486.48 Q142.867 1495.21 139.788 1499.82 Q136.732 1504.4 130.922 1504.4 Q125.112 1504.4 122.033 1499.82 Q118.978 1495.21 118.978 1486.48 Q118.978 1477.73 122.033 1473.15 Q125.112 1468.54 130.922 1468.54 Z" fill="#000000" fill-rule="nonzero" fill-opacity="1" /><path clip-path="url(#clip920)" d="M82.1494 1327.1 L111.825 1327.1 L111.825 1331.03 L82.1494 1331.03 L82.1494 1327.1 Z" fill="#000000" fill-rule="nonzero" fill-opacity="1" /><path clip-path="url(#clip920)" d="M121.964 1309.37 L140.32 1309.37 L140.32 1313.3 L126.246 1313.3 L126.246 1321.77 Q127.265 1321.43 128.283 1321.27 Q129.302 1321.08 130.32 1321.08 Q136.107 1321.08 139.487 1324.25 Q142.867 1327.42 142.867 1332.84 Q142.867 1338.42 139.394 1341.52 Q135.922 1344.6 129.603 1344.6 Q127.427 1344.6 125.158 1344.23 Q122.913 1343.86 120.506 1343.12 L120.506 1338.42 Q122.589 1339.55 124.811 1340.11 Q127.033 1340.66 129.51 1340.66 Q133.515 1340.66 135.853 1338.56 Q138.191 1336.45 138.191 1332.84 Q138.191 1329.23 135.853 1327.12 Q133.515 1325.01 129.51 1325.01 Q127.635 1325.01 125.76 1325.43 Q123.908 1325.85 121.964 1326.73 L121.964 1309.37 Z" fill="#000000" fill-rule="nonzero" fill-opacity="1" /><path clip-path="url(#clip920)" d="M130.922 1152.64 Q127.311 1152.64 125.482 1156.21 Q123.677 1159.75 123.677 1166.88 Q123.677 1173.99 125.482 1177.55 Q127.311 1181.09 130.922 1181.09 Q134.556 1181.09 136.362 1177.55 Q138.191 1173.99 138.191 1166.88 Q138.191 1159.75 136.362 1156.21 Q134.556 1152.64 130.922 1152.64 M130.922 1148.94 Q136.732 1148.94 139.788 1153.55 Q142.867 1158.13 142.867 1166.88 Q142.867 1175.61 139.788 1180.21 Q136.732 1184.8 130.922 1184.8 Q125.112 1184.8 122.033 1180.21 Q118.978 1175.61 118.978 1166.88 Q118.978 1158.13 122.033 1153.55 Q125.112 1148.94 130.922 1148.94 Z" fill="#000000" fill-rule="nonzero" fill-opacity="1" /><path clip-path="url(#clip920)" d="M121.964 989.765 L140.32 989.765 L140.32 993.7 L126.246 993.7 L126.246 1002.17 Q127.265 1001.83 128.283 1001.66 Q129.302 1001.48 130.32 1001.48 Q136.107 1001.48 139.487 1004.65 Q142.867 1007.82 142.867 1013.24 Q142.867 1018.82 139.394 1021.92 Q135.922 1025 129.603 1025 Q127.427 1025 125.158 1024.63 Q122.913 1024.26 120.506 1023.51 L120.506 1018.82 Q122.589 1019.95 124.811 1020.51 Q127.033 1021.06 129.51 1021.06 Q133.515 1021.06 135.853 1018.95 Q138.191 1016.85 138.191 1013.24 Q138.191 1009.63 135.853 1007.52 Q133.515 1005.41 129.51 1005.41 Q127.635 1005.41 125.76 1005.83 Q123.908 1006.25 121.964 1007.13 L121.964 989.765 Z" fill="#000000" fill-rule="nonzero" fill-opacity="1" /><path clip-path="url(#clip920)" d="M91.5706 860.589 L99.2095 860.589 L99.2095 834.223 L90.8993 835.89 L90.8993 831.631 L99.1632 829.964 L103.839 829.964 L103.839 860.589 L111.478 860.589 L111.478 864.524 L91.5706 864.524 L91.5706 860.589 Z" fill="#000000" fill-rule="nonzero" fill-opacity="1" /><path clip-path="url(#clip920)" d="M130.922 833.043 Q127.311 833.043 125.482 836.608 Q123.677 840.149 123.677 847.279 Q123.677 854.385 125.482 857.95 Q127.311 861.492 130.922 861.492 Q134.556 861.492 136.362 857.95 Q138.191 854.385 138.191 847.279 Q138.191 840.149 136.362 836.608 Q134.556 833.043 130.922 833.043 M130.922 829.339 Q136.732 829.339 139.788 833.946 Q142.867 838.529 142.867 847.279 Q142.867 856.006 139.788 860.612 Q136.732 865.195 130.922 865.195 Q125.112 865.195 122.033 860.612 Q118.978 856.006 118.978 847.279 Q118.978 838.529 122.033 833.946 Q125.112 829.339 130.922 829.339 Z" fill="#000000" fill-rule="nonzero" fill-opacity="1" /><polyline clip-path="url(#clip923)" style="stroke:#009af9; stroke-linecap:round; stroke-linejoin:round; stroke-width:4; stroke-opacity:1; fill:none" points="240.392,1134.89 242.445,1370.96 244.498,1222.91 246.55,1193.98 248.603,1164.74 250.656,1149.54 252.709,1115.48 254.762,1164.49 256.815,1177.24 258.868,1176.26 260.921,1203.57 262.974,1174.32 265.027,1162.16 267.079,1181.53 269.132,1147.13 271.185,1168.21 273.238,1159.15 275.291,1165.72 277.344,1295.91 279.397,1149.23 281.45,1164.14 283.503,1187.24 285.555,1054.02 287.608,1166.96 289.661,1180.24 291.714,1190.14 293.767,1187.16 295.82,1161.81 297.873,1191.89 299.926,1127.71 301.979,1199.31 304.031,1182.63 306.084,1020.79 308.137,938.847 310.19,1066.15 312.243,737.896 314.296,1254.17 316.349,1115.04 318.402,1156.53 320.455,1028.81 322.507,1167.86 324.56,1195.02 326.613,1178.22 328.666,1463.65 330.719,1708.48 332.772,1445.1 334.825,2074.27 336.878,1253.12 338.931,1190.89 340.984,1173.53 343.036,1238.1 345.089,1145.28 347.142,1098.62 349.195,1067.28 351.248,1193.34 353.301,1254.12 355.354,1137.56 357.407,1181.94 359.46,1149.17 361.512,1187.13 363.565,1063.43 365.618,1181.99 367.671,1088.88 369.724,1147.37 371.777,1152.79 373.83,1149.24 375.883,1272 377.936,1187.55 379.988,1210.5 382.041,1160.01 384.094,1160.88 386.147,1209.88 388.2,1121.26 390.253,1058.11 392.306,1654.21 394.359,1290.02 396.412,1182.38 398.464,1101.94 400.517,1162.72 402.57,1198.29 404.623,1260.66 406.676,1104.54 408.729,1219.28 410.782,1190.05 412.835,1189.73 414.888,1372.99 416.94,956.665 418.993,1819.9 421.046,1418.61 423.099,1135.81 425.152,1122.39 427.205,1202.35 429.258,1208.19 431.311,1185.85 433.364,1206.24 435.417,1269.68 437.469,1362.57 439.522,2723.52 441.575,111.158 443.628,150.146 445.681,-4930.05 447.734,233.647 449.787,1480.12 451.84,1138.39 453.893,1052.15 455.945,1322.06 457.998,719.081 460.051,954.005 462.104,1773.01 464.157,503.634 466.21,829.605 468.263,-69.4344 470.316,2915.28 472.369,-321.091 474.421,967.124 476.474,3728.94 478.527,4146.81 480.58,852.454 482.633,1618.14 484.686,1170.38 486.739,1444.72 488.792,1234.35 490.845,1144.5 492.897,1226.51 494.95,1424.95 497.003,1063.33 499.056,1162.47 501.109,1163.78 503.162,1219.77 505.215,1213.62 507.268,1206.43 509.321,1259.14 511.374,1150.54 513.426,1161.47 515.479,1179.13 517.532,1188.65 519.585,1184.82 521.638,1131.35 523.691,1168.33 525.744,1163.01 527.797,1172.91 529.85,1171.39 531.902,1175.72 533.955,965.652 536.008,1149.59 538.061,1167.72 540.114,732.595 542.167,548.932 544.22,1362.1 546.273,1161.49 548.326,1110.09 550.378,1457.62 552.431,1410.86 554.484,756.968 556.537,764.144 558.59,1187.38 560.643,1090.66 562.696,1127.65 564.749,1117.49 566.802,1199.44 568.854,1257.5 570.907,1240.95 572.96,1235.97 575.013,1121.31 577.066,1146.49 579.119,1214.43 581.172,1126.92 583.225,1183.57 585.278,1152.49 587.331,1179.54 589.383,1159.79 591.436,1100.75 593.489,1181.36 595.542,1214.07 597.595,1119.5 599.648,1168.7 601.701,1234.67 603.754,1218.98 605.807,1125.25 607.859,1136.59 609.912,1105.43 611.965,1122.29 614.018,1137.58 616.071,1160.29 618.124,1163.33 620.177,1192.57 622.23,1167.24 624.283,1150.21 626.335,909.059 628.388,1352.5 630.441,1184.17 632.494,1262.2 634.547,1112.31 636.6,1347.09 638.653,1074.57 640.706,1155.84 642.759,1211.59 644.811,1169.68 646.864,1170.64 648.917,1169.66 650.97,1161.06 653.023,1188.81 655.076,1167.92 657.129,1167.38 659.182,1169.06 661.235,1169.95 663.288,1152.49 665.34,1141.22 667.393,1190.59 669.446,1186.89 671.499,1149.53 673.552,1386.26 675.605,1046.43 677.658,1484.25 679.711,849.687 681.764,1086.19 683.816,1525 685.869,890.351 687.922,1181.02 689.975,1266.7 692.028,1146.33 694.081,1188.92 696.134,1168.77 698.187,1176.45 700.24,1175.67 702.292,1237.41 704.345,1216.62 706.398,1088.13 708.451,1090.4 710.504,1181.34 712.557,1105.34 714.61,1180.52 716.663,1215.84 718.716,1110.3 720.768,1144.78 722.821,1106.07 724.874,1402.53 726.927,1154.4 728.98,1149.14 731.033,1182.29 733.086,1086.54 735.139,1105.63 737.192,1121.2 739.245,1199.27 741.297,1489.96 743.35,2009.8 745.403,3849.83 747.456,3942.16 749.509,3819.57 751.562,4771.05 753.615,2306.32 755.668,940.874 757.721,1484.26 759.773,1186.48 761.826,1181.51 763.879,1150.6 765.932,1186.41 767.985,1158.05 770.038,1197.48 772.091,722.625 774.144,626.799 776.197,879.79 778.249,1154.97 780.302,1137.75 782.355,1119.02 784.408,1137.81 786.461,1181.27 788.514,1166.07 790.567,1188.48 792.62,1123.62 794.673,1217.76 796.725,1214.77 798.778,1122.3 800.831,1212.19 802.884,1100.49 804.937,1247.94 806.99,680.617 809.043,754.862 811.096,1130.12 813.149,1199.19 815.202,1026.77 817.254,1303.54 819.307,954.713 821.36,1243.84 823.413,1222.1 825.466,1210.77 827.519,1206.32 829.572,1223.12 831.625,1281.02 833.678,904.69 835.73,1307 837.783,1232.8 839.836,1189.82 841.889,1145.19 843.942,1169.48 845.995,1164.28 848.048,1128.8 850.101,1143.5 852.154,1172.83 854.206,1219.85 856.259,1173.51 858.312,1178.09 860.365,967.124 862.418,1329.39 864.471,1830.04 866.524,1271.34 868.577,1014.98 870.63,1127.16 872.682,1166.87 874.735,1166.75 876.788,1149.93 878.841,1177.81 880.894,1180.42 882.947,1157.12 885,1117.2 887.053,1155.8 889.106,1188.21 891.159,1177.79 893.211,1225.55 895.264,1155.76 897.317,1176.95 899.37,1120.95 901.423,1178.1 903.476,1171.62 905.529,1218.83 907.582,1140.4 909.635,1163.24 911.687,1123.34 913.74,1115.52 915.793,1206.94 917.846,1171.77 919.899,1159.95 921.952,1175.23 924.005,1163.52 926.058,1138.04 928.111,1042.27 930.163,1130.16 932.216,1166.37 934.269,1143.51 936.322,1140.6 938.375,1219.02 940.428,1188.04 942.481,1156.66 944.534,1176.77 946.587,1169.19 948.639,1187.78 950.692,1168.84 952.745,1180.89 954.798,1123.63 956.851,1132.35 958.904,1169.72 960.957,1168.37 963.01,1173.65 965.063,1162.97 967.116,1159.13 969.168,1130.69 971.221,1324.45 973.274,1213.65 975.327,1102.06 977.38,1110.99 979.433,1146.45 981.486,1237.95 983.539,1155.23 985.592,1136.66 987.644,1141.37 989.697,1145.15 991.75,1171.8 993.803,1157.53 995.856,1132.01 997.909,1125.05 999.962,1175 1002.01,1195.99 1004.07,1191.79 1006.12,1199.79 1008.17,1155.35 1010.23,1155.72 1012.28,1199.78 1014.33,1133.7 1016.38,1204.27 1018.44,1179.39 1020.49,1152.81 1022.54,1176.43 1024.6,1200.31 1026.65,1082.93 1028.7,1195.74 1030.76,1210.64 1032.81,1180.31 1034.86,1182 1036.91,1215.28 1038.97,1162.34 1041.02,1168.44 1043.07,1161 1045.13,1153.9 1047.18,1187.08 1049.23,1172.15 1051.28,1188.99 1053.34,1133.24 1055.39,1140.91 1057.44,1093.44 1059.5,1147.29 1061.55,1194.33 1063.6,1221.44 1065.65,1210.57 1067.71,1213.68 1069.76,1190.87 1071.81,1184.5 1073.87,1141.48 1075.92,1168.3 1077.97,1198.34 1080.02,1118.95 1082.08,1176.52 1084.13,1173.05 1086.18,1123.2 1088.24,1163.94 1090.29,1170.28 1092.34,1156.21 1094.39,1214.35 1096.45,1165.27 1098.5,1181.39 1100.55,1177.84 1102.61,1135.88 1104.66,1141.84 1106.71,1215.73 1108.77,1168.88 1110.82,1158.3 1112.87,1177.02 1114.92,1101.71 1116.98,1197.57 1119.03,1109.65 1121.08,1132.7 1123.14,1241.39 1125.19,1244.36 1127.24,1041.83 1129.29,1108.76 1131.35,1211.95 1133.4,1212.68 1135.45,1118.73 1137.51,1133.18 1139.56,1147.32 1141.61,1106.6 1143.66,1200.96 1145.72,1141.62 1147.77,1145.5 1149.82,1153.3 1151.88,1213.07 1153.93,1136.69 1155.98,1163.8 1158.03,1063.42 1160.09,1236.35 1162.14,902.768 1164.19,1035.58 1166.25,1074.02 1168.3,1114.36 1170.35,1359 1172.4,1351.79 1174.46,1404.35 1176.51,1197.03 1178.56,1145.48 1180.62,1250.73 1182.67,1105.55 1184.72,1162.29 1186.77,1165.98 1188.83,1176.09 1190.88,1143.41 1192.93,1130.43 1194.99,1119.17 1197.04,1328.64 1199.09,1126.43 1201.15,1195.95 1203.2,1288.08 1205.25,1343.15 1207.3,1153.32 1209.36,1144.39 1211.41,1245.94 1213.46,1194.77 1215.52,1166.43 1217.57,1161.08 1219.62,1157.04 1221.67,1171.75 1223.73,1185.96 1225.78,1153.18 1227.83,1164.58 1229.89,1115.16 1231.94,1140.01 1233.99,1155.93 1236.04,1219.31 1238.1,1224.26 1240.15,1218.66 1242.2,1216.8 1244.26,1155.42 1246.31,1150.79 1248.36,1198.66 1250.41,1182.34 1252.47,1174.14 1254.52,1201.15 1256.57,1187.96 1258.63,1203.37 1260.68,1107.76 1262.73,1174.5 1264.78,1218.58 1266.84,1209.96 1268.89,1212.89 1270.94,1194.66 1273,1119.75 1275.05,1191.09 1277.1,1128.38 1279.16,1216.97 1281.21,1249.91 1283.26,1246.15 1285.31,1253.06 1287.37,1156.47 1289.42,1142.95 1291.47,1078.45 1293.53,1069.66 1295.58,1155.99 1297.63,1189.19 1299.68,1353.09 1301.74,-830.301 1303.79,170.966 1305.84,-196.228 1307.9,4782.56 1309.95,308.452 1312,2249.62 1314.05,-2491.47 1316.11,556.998 1318.16,944.938 1320.21,861.54 1322.27,1467.3 1324.32,909.485 1326.37,1135.48 1328.42,1193.59 1330.48,1190.48 1332.53,1503.93 1334.58,985.55 1336.64,1375.55 1338.69,1164.36 1340.74,1152.14 1342.79,1180.73 1344.85,1153.21 1346.9,1161.36 1348.95,1175.61 1351.01,1170.11 1353.06,1214.98 1355.11,1187.51 1357.16,1461.92 1359.22,979.689 1361.27,1227 1363.32,1220.86 1365.38,1126.83 1367.43,1132.62 1369.48,1129.48 1371.54,1170.67 1373.59,1164.31 1375.64,1168.13 1377.69,1205.68 1379.75,1200.52 1381.8,1155.1 1383.85,1217.85 1385.91,1207.53 1387.96,1158.56 1390.01,1263.21 1392.06,1463.98 1394.12,897.942 1396.17,1193.9 1398.22,1167.65 1400.28,1159.25 1402.33,1494.83 1404.38,720.788 1406.43,1575.68 1408.49,563.216 1410.54,1551.75 1412.59,1272.55 1414.65,1154.53 1416.7,1219.73 1418.75,1173.02 1420.8,1189.74 1422.86,1142.5 1424.91,1097.31 1426.96,1190.05 1429.02,1048.79 1431.07,1277.19 1433.12,1075.65 1435.17,1245.37 1437.23,1230.8 1439.28,1026.88 1441.33,1078.81 1443.39,1197.25 1445.44,1182.44 1447.49,1167.57 1449.55,1201.72 1451.6,1126.42 1453.65,1183.94 1455.7,1158.82 1457.76,1192.7 1459.81,1301.02 1461.86,1074.28 1463.92,1199.1 1465.97,1227.7 1468.02,1348 1470.07,1244.12 1472.13,1231.46 1474.18,1181.97 1476.23,1170.75 1478.29,1138.6 1480.34,1134.87 1482.39,1164.57 1484.44,1046.86 1486.5,1141.56 1488.55,1140.98 1490.6,1140.78 1492.66,1156.58 1494.71,1029.68 1496.76,1191.32 1498.81,1172.72 1500.87,1192.1 1502.92,1139.99 1504.97,1218.86 1507.03,1072.94 1509.08,1326.66 1511.13,1215.37 1513.18,1166.86 1515.24,1168.99 1517.29,1160.36 1519.34,1160.76 1521.4,1200.62 1523.45,1165.64 1525.5,1197.35 1527.55,1221.74 1529.61,1582.63 1531.66,1779.37 1533.71,1581.29 1535.77,767.587 1537.82,1216.42 1539.87,1145.87 1541.93,1156.78 1543.98,1209.04 1546.03,1131.67 1548.08,1065.39 1550.14,1248.27 1552.19,1190.88 1554.24,1170.68 1556.3,1155.4 1558.35,1175.59 1560.4,1180.72 1562.45,1178.64 1564.51,1215.01 1566.56,1160.42 1568.61,1132.57 1570.67,1163.76 1572.72,1158.83 1574.77,1064.2 1576.82,1309.22 1578.88,1380.24 1580.93,1465.13 1582.98,1316.65 1585.04,1156.58 1587.09,1201.12 1589.14,1126.81 1591.19,1098.62 1593.25,1128.29 1595.3,1159.26 1597.35,1155.33 1599.41,1183.97 1601.46,1170.1 1603.51,1157.12 1605.56,1160.13 1607.62,1158.35 1609.67,1163.46 1611.72,1172.92 1613.78,1125.65 1615.83,1175.11 1617.88,1142.26 1619.94,1158.61 1621.99,1208.12 1624.04,1104.39 1626.09,1290.48 1628.15,1169.54 1630.2,1198.06 1632.25,1167.28 1634.31,1169.71 1636.36,1227 1638.41,1175.63 1640.46,1151.28 1642.52,1107.46 1644.57,1119.02 1646.62,1155.26 1648.68,1150.81 1650.73,1245.02 1652.78,1161.23 1654.83,1163.57 1656.89,1177.53 1658.94,1158.63 1660.99,1192.82 1663.05,1242.48 1665.1,1220.59 1667.15,1051 1669.2,1390.77 1671.26,1122.66 1673.31,1212.49 1675.36,1079.14 1677.42,1346.28 1679.47,1235.67 1681.52,1114.6 1683.57,1225.23 1685.63,1093.83 1687.68,558.452 1689.73,1563.46 1691.79,1119.76 1693.84,1001.85 1695.89,1172.51 1697.94,1160.14 1700,1219.53 1702.05,1072.29 1704.1,1239.91 1706.16,1350.49 1708.21,1119.95 1710.26,1122.49 1712.32,1110.36 1714.37,1176.7 1716.42,1188.59 1718.47,1154.29 1720.53,1157.45 1722.58,1110.64 1724.63,1123.25 1726.69,1237.45 1728.74,1193.91 1730.79,1176.02 1732.84,1161.3 1734.9,1136.23 1736.95,1188.11 1739,1125.02 1741.06,1110.21 1743.11,1139.47 1745.16,1353.59 1747.21,1081.62 1749.27,1122.49 1751.32,1014.48 1753.37,1168.23 1755.43,1213.7 1757.48,1137.64 1759.53,1148.91 1761.58,1190.02 1763.64,1170.68 1765.69,1163.68 1767.74,1237.85 1769.8,1213.25 1771.85,1188.66 1773.9,1193.86 1775.95,1147.83 1778.01,1195.43 1780.06,1203.36 1782.11,1161.02 1784.17,1159.25 1786.22,1094.4 1788.27,1161.3 1790.33,1190.45 1792.38,1158.95 1794.43,1155.83 1796.48,1156.26 1798.54,1155.97 1800.59,1160.56 1802.64,1147.71 1804.7,1241.45 1806.75,1136.45 1808.8,1182.75 1810.85,1155.28 1812.91,1182.02 1814.96,1147.2 1817.01,1150.71 1819.07,1092.6 1821.12,1114.55 1823.17,1132.59 1825.22,1100.93 1827.28,1199.46 1829.33,1170.78 1831.38,1170.59 1833.44,1151.12 1835.49,1181.76 1837.54,1173.54 1839.59,1166.12 1841.65,1175.19 1843.7,1162.15 1845.75,1189.2 1847.81,1166.67 1849.86,1157.84 1851.91,1188.08 1853.96,1161.87 1856.02,1161.69 1858.07,1197.21 1860.12,1073.64 1862.18,1177.67 1864.23,1162.22 1866.28,1124.58 1868.34,1172.6 1870.39,1192.14 1872.44,1127.62 1874.49,1107.58 1876.55,1158.4 1878.6,1057.67 1880.65,1195.06 1882.71,1197.12 1884.76,1195.09 1886.81,1269.81 1888.86,1130.32 1890.92,1228.64 1892.97,1171 1895.02,1189.33 1897.08,1118.98 1899.13,1138.98 1901.18,2895.77 1903.23,1256.01 1905.29,1224.49 1907.34,1237.06 1909.39,1183.81 1911.45,1165.57 1913.5,1193.69 1915.55,1164.75 1917.6,1214.72 1919.66,1238.22 1921.71,1242.46 1923.76,1168.27 1925.82,1166.35 1927.87,1096.06 1929.92,1184.28 1931.97,1194.7 1934.03,1149.86 1936.08,1165.74 1938.13,1140.44 1940.19,994.536 1942.24,1285.9 1944.29,1155.02 1946.34,1149.11 1948.4,1176.5 1950.45,1156.12 1952.5,1172.66 1954.56,1210.37 1956.61,1189.85 1958.66,1175.09 1960.72,1171.67 1962.77,1150.46 1964.82,1187.49 1966.87,1184.59 1968.93,1131.46 1970.98,1163.18 1973.03,1165.7 1975.09,1144.79 1977.14,1160.74 1979.19,1181.69 1981.24,1173.29 1983.3,1195.3 1985.35,1157.15 1987.4,1188.23 1989.46,1145.56 1991.51,1219.12 1993.56,1104.05 1995.61,1245.92 1997.67,1160.62 1999.72,1200.65 2001.77,1227.94 2003.83,1268.61 2005.88,1153.34 2007.93,1162.88 2009.98,1178.08 2012.04,1197.9 2014.09,1057.79 2016.14,1209.32 2018.2,1167.39 2020.25,1203.2 2022.3,1152.66 2024.35,1149.64 2026.41,1206.54 2028.46,1198.4 2030.51,1157.97 2032.57,1125.71 2034.62,1181.36 2036.67,1189.57 2038.73,1122.2 2040.78,1141.8 2042.83,1204.92 2044.88,1122.53 2046.94,1226.83 2048.99,1148.48 2051.04,1196.46 2053.1,1195.2 2055.15,1180.26 2057.2,1115.6 2059.25,1186.69 2061.31,1185.17 2063.36,1150.7 2065.41,1079.38 2067.47,1088.77 2069.52,1156.83 2071.57,1281.84 2073.62,1142.74 2075.68,1167.09 2077.73,1198.52 2079.78,1158.27 2081.84,1346.98 2083.89,1253.13 2085.94,1246.58 2087.99,1248.12 2090.05,1096.89 2092.1,1133.7 2094.15,1423.61 2096.21,1138.1 2098.26,1121.75 2100.31,841.07 2102.36,1687.5 2104.42,1289.82 2106.47,1764.95 2108.52,1174.62 2110.58,429.334 2112.63,1287.44 2114.68,949.641 2116.73,1157.98 2118.79,1359.49 2120.84,822.828 2122.89,776.625 2124.95,1019.67 2127,1284.64 2129.05,1146.64 2131.11,1175.64 2133.16,1101.38 2135.21,1247.47 2137.26,1206.89 2139.32,1295.18 2141.37,1154.9 2143.42,1171.6 2145.48,1148.97 2147.53,1193.38 2149.58,1151.64 2151.63,1194.59 2153.69,1176.11 2155.74,1161.33 2157.79,1180.91 2159.85,1226.6 2161.9,1163.88 2163.95,1034.33 2166,1129.22 2168.06,1159.65 2170.11,1159.92 2172.16,1170.26 2174.22,1203.45 2176.27,1198.97 2178.32,1171.29 2180.37,1304.75 2182.43,1429.36 2184.48,1140.52 2186.53,1197.8 2188.59,1270.92 2190.64,1258.29 2192.69,1136.71 2194.74,1194.45 2196.8,1179.23 2198.85,1126.66 2200.9,1133.39 2202.96,1142.04 2205.01,1269.87 2207.06,1056.33 2209.12,1104.65 2211.17,1227.54 2213.22,1126.55 2215.27,1381.1 2217.33,1113.45 2219.38,518.469 2221.43,1175.21 2223.49,1174.43 2225.54,1240.23 2227.59,1148.76 2229.64,1171.9 2231.7,1161.65 2233.75,1149.75 2235.8,1145.33 2237.86,1128.29 2239.91,1151.7 2241.96,1321.43 2244.01,1155.42 2246.07,1198.42 2248.12,1268.71 2250.17,1285.49 2252.23,1098.53 2254.28,1206.28 2256.33,1183.29 2258.38,1161.51 2260.44,1173.86 2262.49,1184.3 2264.54,1183.98 2266.6,1135.01 2268.65,1165.37 2270.7,1169.18 2272.75,1219.45 2274.81,1116.44 2276.86,1166 2278.91,1170.69 2280.97,1174.5 2283.02,1139.41 2285.07,1190.72 2287.12,1117.87 2289.18,1175.86 2291.23,1474.04 "/>
<path clip-path="url(#clip920)" d="M1942.7 972.231 L2280.29 972.231 L2280.29 868.551 L1942.7 868.551  Z" fill="#ffffff" fill-rule="evenodd" fill-opacity="1"/>
<polyline clip-path="url(#clip920)" style="stroke:#000000; stroke-linecap:round; stroke-linejoin:round; stroke-width:4; stroke-opacity:1; fill:none" points="1942.7,972.231 2280.29,972.231 2280.29,868.551 1942.7,868.551 1942.7,972.231 "/>
<polyline clip-path="url(#clip920)" style="stroke:#009af9; stroke-linecap:round; stroke-linejoin:round; stroke-width:4; stroke-opacity:1; fill:none" points="1966.85,920.391 2111.78,920.391 "/>
<path clip-path="url(#clip920)" d="M2161.49 932.74 L2161.49 923.458 L2153.85 923.458 L2153.85 919.615 L2166.12 919.615 L2166.12 934.453 Q2163.41 936.375 2160.14 937.37 Q2156.88 938.342 2153.18 938.342 Q2145.07 938.342 2140.49 933.62 Q2135.93 928.875 2135.93 920.426 Q2135.93 911.953 2140.49 907.231 Q2145.07 902.486 2153.18 902.486 Q2156.56 902.486 2159.59 903.319 Q2162.64 904.153 2165.21 905.773 L2165.21 910.75 Q2162.62 908.551 2159.7 907.44 Q2156.79 906.328 2153.57 906.328 Q2147.23 906.328 2144.03 909.87 Q2140.86 913.412 2140.86 920.426 Q2140.86 927.416 2144.03 930.958 Q2147.23 934.5 2153.57 934.5 Q2156.05 934.5 2157.99 934.083 Q2159.94 933.643 2161.49 932.74 Z" fill="#000000" fill-rule="nonzero" fill-opacity="1" /><path clip-path="url(#clip920)" d="M2179.33 906.953 L2179.33 919.94 L2185.21 919.94 Q2188.48 919.94 2190.26 918.25 Q2192.04 916.56 2192.04 913.435 Q2192.04 910.333 2190.26 908.643 Q2188.48 906.953 2185.21 906.953 L2179.33 906.953 M2174.66 903.111 L2185.21 903.111 Q2191.02 903.111 2193.99 905.75 Q2196.97 908.365 2196.97 913.435 Q2196.97 918.551 2193.99 921.166 Q2191.02 923.782 2185.21 923.782 L2179.33 923.782 L2179.33 937.671 L2174.66 937.671 L2174.66 903.111 Z" fill="#000000" fill-rule="nonzero" fill-opacity="1" /><path clip-path="url(#clip920)" d="M2223.96 904.245 L2223.96 908.805 Q2221.3 907.532 2218.94 906.907 Q2216.58 906.282 2214.38 906.282 Q2210.56 906.282 2208.48 907.764 Q2206.42 909.245 2206.42 911.977 Q2206.42 914.268 2207.78 915.449 Q2209.17 916.606 2213.01 917.324 L2215.84 917.902 Q2221.07 918.898 2223.55 921.421 Q2226.05 923.921 2226.05 928.134 Q2226.05 933.157 2222.67 935.75 Q2219.31 938.342 2212.81 938.342 Q2210.35 938.342 2207.57 937.787 Q2204.82 937.231 2201.86 936.143 L2201.86 931.328 Q2204.7 932.926 2207.44 933.736 Q2210.17 934.546 2212.81 934.546 Q2216.81 934.546 2218.99 932.972 Q2221.16 931.398 2221.16 928.481 Q2221.16 925.935 2219.59 924.5 Q2218.04 923.064 2214.47 922.347 L2211.62 921.791 Q2206.39 920.75 2204.06 918.527 Q2201.72 916.305 2201.72 912.347 Q2201.72 907.764 2204.94 905.125 Q2208.18 902.486 2213.85 902.486 Q2216.28 902.486 2218.8 902.926 Q2221.32 903.366 2223.96 904.245 Z" fill="#000000" fill-rule="nonzero" fill-opacity="1" /><path clip-path="url(#clip920)" d="M2254.06 904.245 L2254.06 908.805 Q2251.39 907.532 2249.03 906.907 Q2246.67 906.282 2244.47 906.282 Q2240.65 906.282 2238.57 907.764 Q2236.51 909.245 2236.51 911.977 Q2236.51 914.268 2237.87 915.449 Q2239.26 916.606 2243.11 917.324 L2245.93 917.902 Q2251.16 918.898 2253.64 921.421 Q2256.14 923.921 2256.14 928.134 Q2256.14 933.157 2252.76 935.75 Q2249.4 938.342 2242.9 938.342 Q2240.44 938.342 2237.67 937.787 Q2234.91 937.231 2231.95 936.143 L2231.95 931.328 Q2234.8 932.926 2237.53 933.736 Q2240.26 934.546 2242.9 934.546 Q2246.9 934.546 2249.08 932.972 Q2251.25 931.398 2251.25 928.481 Q2251.25 925.935 2249.68 924.5 Q2248.13 923.064 2244.56 922.347 L2241.72 921.791 Q2236.49 920.75 2234.15 918.527 Q2231.81 916.305 2231.81 912.347 Q2231.81 907.764 2235.03 905.125 Q2238.27 902.486 2243.94 902.486 Q2246.37 902.486 2248.89 902.926 Q2251.42 903.366 2254.06 904.245 Z" fill="#000000" fill-rule="nonzero" fill-opacity="1" /></svg>
