<?xml version="1.0" encoding="utf-8"?>
<svg xmlns="http://www.w3.org/2000/svg" xmlns:xlink="http://www.w3.org/1999/xlink" width="600" height="400" viewBox="0 0 2400 1600">
<defs>
  <clipPath id="clip170">
    <rect x="0" y="0" width="2400" height="1600"/>
  </clipPath>
</defs>
<path clip-path="url(#clip170)" d="M0 1600 L2400 1600 L2400 0 L0 0  Z" fill="#ffffff" fill-rule="evenodd" fill-opacity="1"/>
<defs>
  <clipPath id="clip171">
    <rect x="480" y="0" width="1681" height="1600"/>
  </clipPath>
</defs>
<path clip-path="url(#clip170)" d="M178.867 686.448 L2352.76 686.448 L2352.76 47.2441 L178.867 47.2441  Z" fill="#ffffff" fill-rule="evenodd" fill-opacity="1"/>
<defs>
  <clipPath id="clip172">
    <rect x="178" y="47" width="2175" height="640"/>
  </clipPath>
</defs>
<polyline clip-path="url(#clip172)" style="stroke:#000000; stroke-linecap:round; stroke-linejoin:round; stroke-width:2; stroke-opacity:0.1; fill:none" points="238.339,686.448 238.339,47.2441 "/>
<polyline clip-path="url(#clip172)" style="stroke:#000000; stroke-linecap:round; stroke-linejoin:round; stroke-width:2; stroke-opacity:0.1; fill:none" points="751.562,686.448 751.562,47.2441 "/>
<polyline clip-path="url(#clip172)" style="stroke:#000000; stroke-linecap:round; stroke-linejoin:round; stroke-width:2; stroke-opacity:0.1; fill:none" points="1264.78,686.448 1264.78,47.2441 "/>
<polyline clip-path="url(#clip172)" style="stroke:#000000; stroke-linecap:round; stroke-linejoin:round; stroke-width:2; stroke-opacity:0.1; fill:none" points="1778.01,686.448 1778.01,47.2441 "/>
<polyline clip-path="url(#clip172)" style="stroke:#000000; stroke-linecap:round; stroke-linejoin:round; stroke-width:2; stroke-opacity:0.1; fill:none" points="2291.23,686.448 2291.23,47.2441 "/>
<polyline clip-path="url(#clip172)" style="stroke:#000000; stroke-linecap:round; stroke-linejoin:round; stroke-width:2; stroke-opacity:0.1; fill:none" points="178.867,686.448 2352.76,686.448 "/>
<polyline clip-path="url(#clip172)" style="stroke:#000000; stroke-linecap:round; stroke-linejoin:round; stroke-width:2; stroke-opacity:0.1; fill:none" points="178.867,526.647 2352.76,526.647 "/>
<polyline clip-path="url(#clip172)" style="stroke:#000000; stroke-linecap:round; stroke-linejoin:round; stroke-width:2; stroke-opacity:0.1; fill:none" points="178.867,366.846 2352.76,366.846 "/>
<polyline clip-path="url(#clip172)" style="stroke:#000000; stroke-linecap:round; stroke-linejoin:round; stroke-width:2; stroke-opacity:0.1; fill:none" points="178.867,207.045 2352.76,207.045 "/>
<polyline clip-path="url(#clip172)" style="stroke:#000000; stroke-linecap:round; stroke-linejoin:round; stroke-width:2; stroke-opacity:0.1; fill:none" points="178.867,47.2441 2352.76,47.2441 "/>
<polyline clip-path="url(#clip170)" style="stroke:#000000; stroke-linecap:round; stroke-linejoin:round; stroke-width:4; stroke-opacity:1; fill:none" points="178.867,686.448 2352.76,686.448 "/>
<polyline clip-path="url(#clip170)" style="stroke:#000000; stroke-linecap:round; stroke-linejoin:round; stroke-width:4; stroke-opacity:1; fill:none" points="238.339,686.448 238.339,667.55 "/>
<polyline clip-path="url(#clip170)" style="stroke:#000000; stroke-linecap:round; stroke-linejoin:round; stroke-width:4; stroke-opacity:1; fill:none" points="751.562,686.448 751.562,667.55 "/>
<polyline clip-path="url(#clip170)" style="stroke:#000000; stroke-linecap:round; stroke-linejoin:round; stroke-width:4; stroke-opacity:1; fill:none" points="1264.78,686.448 1264.78,667.55 "/>
<polyline clip-path="url(#clip170)" style="stroke:#000000; stroke-linecap:round; stroke-linejoin:round; stroke-width:4; stroke-opacity:1; fill:none" points="1778.01,686.448 1778.01,667.55 "/>
<polyline clip-path="url(#clip170)" style="stroke:#000000; stroke-linecap:round; stroke-linejoin:round; stroke-width:4; stroke-opacity:1; fill:none" points="2291.23,686.448 2291.23,667.55 "/>
<path clip-path="url(#clip170)" d="M238.339 717.367 Q234.728 717.367 232.899 720.931 Q231.094 724.473 231.094 731.603 Q231.094 738.709 232.899 742.274 Q234.728 745.815 238.339 745.815 Q241.973 745.815 243.779 742.274 Q245.607 738.709 245.607 731.603 Q245.607 724.473 243.779 720.931 Q241.973 717.367 238.339 717.367 M238.339 713.663 Q244.149 713.663 247.205 718.269 Q250.283 722.853 250.283 731.603 Q250.283 740.329 247.205 744.936 Q244.149 749.519 238.339 749.519 Q232.529 749.519 229.45 744.936 Q226.395 740.329 226.395 731.603 Q226.395 722.853 229.45 718.269 Q232.529 713.663 238.339 713.663 Z" fill="#000000" fill-rule="nonzero" fill-opacity="1" /><path clip-path="url(#clip170)" d="M715.254 744.913 L731.574 744.913 L731.574 748.848 L709.629 748.848 L709.629 744.913 Q712.291 742.158 716.875 737.528 Q721.481 732.876 722.662 731.533 Q724.907 729.01 725.787 727.274 Q726.689 725.515 726.689 723.825 Q726.689 721.07 724.745 719.334 Q722.824 717.598 719.722 717.598 Q717.523 717.598 715.069 718.362 Q712.638 719.126 709.861 720.677 L709.861 715.955 Q712.685 714.82 715.138 714.242 Q717.592 713.663 719.629 713.663 Q725 713.663 728.194 716.348 Q731.388 719.033 731.388 723.524 Q731.388 725.654 730.578 727.575 Q729.791 729.473 727.685 732.066 Q727.106 732.737 724.004 735.954 Q720.902 739.149 715.254 744.913 Z" fill="#000000" fill-rule="nonzero" fill-opacity="1" /><path clip-path="url(#clip170)" d="M741.435 714.288 L759.791 714.288 L759.791 718.223 L745.717 718.223 L745.717 726.695 Q746.736 726.348 747.754 726.186 Q748.773 726.001 749.791 726.001 Q755.578 726.001 758.958 729.172 Q762.337 732.343 762.337 737.76 Q762.337 743.339 758.865 746.44 Q755.393 749.519 749.073 749.519 Q746.898 749.519 744.629 749.149 Q742.384 748.778 739.976 748.038 L739.976 743.339 Q742.06 744.473 744.282 745.028 Q746.504 745.584 748.981 745.584 Q752.985 745.584 755.323 743.478 Q757.661 741.371 757.661 737.76 Q757.661 734.149 755.323 732.042 Q752.985 729.936 748.981 729.936 Q747.106 729.936 745.231 730.353 Q743.379 730.769 741.435 731.649 L741.435 714.288 Z" fill="#000000" fill-rule="nonzero" fill-opacity="1" /><path clip-path="url(#clip170)" d="M781.55 717.367 Q777.939 717.367 776.11 720.931 Q774.305 724.473 774.305 731.603 Q774.305 738.709 776.11 742.274 Q777.939 745.815 781.55 745.815 Q785.184 745.815 786.99 742.274 Q788.819 738.709 788.819 731.603 Q788.819 724.473 786.99 720.931 Q785.184 717.367 781.55 717.367 M781.55 713.663 Q787.36 713.663 790.416 718.269 Q793.495 722.853 793.495 731.603 Q793.495 740.329 790.416 744.936 Q787.36 749.519 781.55 749.519 Q775.74 749.519 772.661 744.936 Q769.606 740.329 769.606 731.603 Q769.606 722.853 772.661 718.269 Q775.74 713.663 781.55 713.663 Z" fill="#000000" fill-rule="nonzero" fill-opacity="1" /><path clip-path="url(#clip170)" d="M1224.4 714.288 L1242.76 714.288 L1242.76 718.223 L1228.69 718.223 L1228.69 726.695 Q1229.7 726.348 1230.72 726.186 Q1231.74 726.001 1232.76 726.001 Q1238.55 726.001 1241.93 729.172 Q1245.31 732.343 1245.31 737.76 Q1245.31 743.339 1241.83 746.44 Q1238.36 749.519 1232.04 749.519 Q1229.87 749.519 1227.6 749.149 Q1225.35 748.778 1222.94 748.038 L1222.94 743.339 Q1225.03 744.473 1227.25 745.028 Q1229.47 745.584 1231.95 745.584 Q1235.95 745.584 1238.29 743.478 Q1240.63 741.371 1240.63 737.76 Q1240.63 734.149 1238.29 732.042 Q1235.95 729.936 1231.95 729.936 Q1230.07 729.936 1228.2 730.353 Q1226.35 730.769 1224.4 731.649 L1224.4 714.288 Z" fill="#000000" fill-rule="nonzero" fill-opacity="1" /><path clip-path="url(#clip170)" d="M1264.52 717.367 Q1260.91 717.367 1259.08 720.931 Q1257.27 724.473 1257.27 731.603 Q1257.27 738.709 1259.08 742.274 Q1260.91 745.815 1264.52 745.815 Q1268.15 745.815 1269.96 742.274 Q1271.79 738.709 1271.79 731.603 Q1271.79 724.473 1269.96 720.931 Q1268.15 717.367 1264.52 717.367 M1264.52 713.663 Q1270.33 713.663 1273.38 718.269 Q1276.46 722.853 1276.46 731.603 Q1276.46 740.329 1273.38 744.936 Q1270.33 749.519 1264.52 749.519 Q1258.71 749.519 1255.63 744.936 Q1252.57 740.329 1252.57 731.603 Q1252.57 722.853 1255.63 718.269 Q1258.71 713.663 1264.52 713.663 Z" fill="#000000" fill-rule="nonzero" fill-opacity="1" /><path clip-path="url(#clip170)" d="M1294.68 717.367 Q1291.07 717.367 1289.24 720.931 Q1287.44 724.473 1287.44 731.603 Q1287.44 738.709 1289.24 742.274 Q1291.07 745.815 1294.68 745.815 Q1298.31 745.815 1300.12 742.274 Q1301.95 738.709 1301.95 731.603 Q1301.95 724.473 1300.12 720.931 Q1298.31 717.367 1294.68 717.367 M1294.68 713.663 Q1300.49 713.663 1303.55 718.269 Q1306.62 722.853 1306.62 731.603 Q1306.62 740.329 1303.55 744.936 Q1300.49 749.519 1294.68 749.519 Q1288.87 749.519 1285.79 744.936 Q1282.74 740.329 1282.74 731.603 Q1282.74 722.853 1285.79 718.269 Q1288.87 713.663 1294.68 713.663 Z" fill="#000000" fill-rule="nonzero" fill-opacity="1" /><path clip-path="url(#clip170)" d="M1736.28 714.288 L1758.51 714.288 L1758.51 716.279 L1745.96 748.848 L1741.08 748.848 L1752.88 718.223 L1736.28 718.223 L1736.28 714.288 Z" fill="#000000" fill-rule="nonzero" fill-opacity="1" /><path clip-path="url(#clip170)" d="M1767.67 714.288 L1786.03 714.288 L1786.03 718.223 L1771.95 718.223 L1771.95 726.695 Q1772.97 726.348 1773.99 726.186 Q1775.01 726.001 1776.03 726.001 Q1781.82 726.001 1785.2 729.172 Q1788.57 732.343 1788.57 737.76 Q1788.57 743.339 1785.1 746.44 Q1781.63 749.519 1775.31 749.519 Q1773.14 749.519 1770.87 749.149 Q1768.62 748.778 1766.21 748.038 L1766.21 743.339 Q1768.3 744.473 1770.52 745.028 Q1772.74 745.584 1775.22 745.584 Q1779.22 745.584 1781.56 743.478 Q1783.9 741.371 1783.9 737.76 Q1783.9 734.149 1781.56 732.042 Q1779.22 729.936 1775.22 729.936 Q1773.34 729.936 1771.47 730.353 Q1769.62 730.769 1767.67 731.649 L1767.67 714.288 Z" fill="#000000" fill-rule="nonzero" fill-opacity="1" /><path clip-path="url(#clip170)" d="M1807.79 717.367 Q1804.18 717.367 1802.35 720.931 Q1800.54 724.473 1800.54 731.603 Q1800.54 738.709 1802.35 742.274 Q1804.18 745.815 1807.79 745.815 Q1811.42 745.815 1813.23 742.274 Q1815.06 738.709 1815.06 731.603 Q1815.06 724.473 1813.23 720.931 Q1811.42 717.367 1807.79 717.367 M1807.79 713.663 Q1813.6 713.663 1816.65 718.269 Q1819.73 722.853 1819.73 731.603 Q1819.73 740.329 1816.65 744.936 Q1813.6 749.519 1807.79 749.519 Q1801.98 749.519 1798.9 744.936 Q1795.84 740.329 1795.84 731.603 Q1795.84 722.853 1798.9 718.269 Q1801.98 713.663 1807.79 713.663 Z" fill="#000000" fill-rule="nonzero" fill-opacity="1" /><path clip-path="url(#clip170)" d="M2235.76 744.913 L2243.4 744.913 L2243.4 718.547 L2235.09 720.214 L2235.09 715.955 L2243.35 714.288 L2248.02 714.288 L2248.02 744.913 L2255.66 744.913 L2255.66 748.848 L2235.76 748.848 L2235.76 744.913 Z" fill="#000000" fill-rule="nonzero" fill-opacity="1" /><path clip-path="url(#clip170)" d="M2275.11 717.367 Q2271.5 717.367 2269.67 720.931 Q2267.86 724.473 2267.86 731.603 Q2267.86 738.709 2269.67 742.274 Q2271.5 745.815 2275.11 745.815 Q2278.74 745.815 2280.55 742.274 Q2282.38 738.709 2282.38 731.603 Q2282.38 724.473 2280.55 720.931 Q2278.74 717.367 2275.11 717.367 M2275.11 713.663 Q2280.92 713.663 2283.97 718.269 Q2287.05 722.853 2287.05 731.603 Q2287.05 740.329 2283.97 744.936 Q2280.92 749.519 2275.11 749.519 Q2269.3 749.519 2266.22 744.936 Q2263.16 740.329 2263.16 731.603 Q2263.16 722.853 2266.22 718.269 Q2269.3 713.663 2275.11 713.663 Z" fill="#000000" fill-rule="nonzero" fill-opacity="1" /><path clip-path="url(#clip170)" d="M2305.27 717.367 Q2301.66 717.367 2299.83 720.931 Q2298.02 724.473 2298.02 731.603 Q2298.02 738.709 2299.83 742.274 Q2301.66 745.815 2305.27 745.815 Q2308.9 745.815 2310.71 742.274 Q2312.54 738.709 2312.54 731.603 Q2312.54 724.473 2310.71 720.931 Q2308.9 717.367 2305.27 717.367 M2305.27 713.663 Q2311.08 713.663 2314.14 718.269 Q2317.21 722.853 2317.21 731.603 Q2317.21 740.329 2314.14 744.936 Q2311.08 749.519 2305.27 749.519 Q2299.46 749.519 2296.38 744.936 Q2293.33 740.329 2293.33 731.603 Q2293.33 722.853 2296.38 718.269 Q2299.46 713.663 2305.27 713.663 Z" fill="#000000" fill-rule="nonzero" fill-opacity="1" /><path clip-path="url(#clip170)" d="M2335.43 717.367 Q2331.82 717.367 2329.99 720.931 Q2328.19 724.473 2328.19 731.603 Q2328.19 738.709 2329.99 742.274 Q2331.82 745.815 2335.43 745.815 Q2339.07 745.815 2340.87 742.274 Q2342.7 738.709 2342.7 731.603 Q2342.7 724.473 2340.87 720.931 Q2339.07 717.367 2335.43 717.367 M2335.43 713.663 Q2341.24 713.663 2344.3 718.269 Q2347.38 722.853 2347.38 731.603 Q2347.38 740.329 2344.3 744.936 Q2341.24 749.519 2335.43 749.519 Q2329.62 749.519 2326.54 744.936 Q2323.49 740.329 2323.49 731.603 Q2323.49 722.853 2326.54 718.269 Q2329.62 713.663 2335.43 713.663 Z" fill="#000000" fill-rule="nonzero" fill-opacity="1" /><polyline clip-path="url(#clip170)" style="stroke:#000000; stroke-linecap:round; stroke-linejoin:round; stroke-width:4; stroke-opacity:1; fill:none" points="178.867,686.448 178.867,47.2441 "/>
<polyline clip-path="url(#clip170)" style="stroke:#000000; stroke-linecap:round; stroke-linejoin:round; stroke-width:4; stroke-opacity:1; fill:none" points="178.867,686.448 197.764,686.448 "/>
<polyline clip-path="url(#clip170)" style="stroke:#000000; stroke-linecap:round; stroke-linejoin:round; stroke-width:4; stroke-opacity:1; fill:none" points="178.867,526.647 197.764,526.647 "/>
<polyline clip-path="url(#clip170)" style="stroke:#000000; stroke-linecap:round; stroke-linejoin:round; stroke-width:4; stroke-opacity:1; fill:none" points="178.867,366.846 197.764,366.846 "/>
<polyline clip-path="url(#clip170)" style="stroke:#000000; stroke-linecap:round; stroke-linejoin:round; stroke-width:4; stroke-opacity:1; fill:none" points="178.867,207.045 197.764,207.045 "/>
<polyline clip-path="url(#clip170)" style="stroke:#000000; stroke-linecap:round; stroke-linejoin:round; stroke-width:4; stroke-opacity:1; fill:none" points="178.867,47.2441 197.764,47.2441 "/>
<path clip-path="url(#clip170)" d="M50.9921 686.899 L80.6679 686.899 L80.6679 690.834 L50.9921 690.834 L50.9921 686.899 Z" fill="#000000" fill-rule="nonzero" fill-opacity="1" /><path clip-path="url(#clip170)" d="M91.5706 699.793 L99.2095 699.793 L99.2095 673.427 L90.8993 675.094 L90.8993 670.835 L99.1632 669.168 L103.839 669.168 L103.839 699.793 L111.478 699.793 L111.478 703.728 L91.5706 703.728 L91.5706 699.793 Z" fill="#000000" fill-rule="nonzero" fill-opacity="1" /><path clip-path="url(#clip170)" d="M130.922 672.247 Q127.311 672.247 125.482 675.811 Q123.677 679.353 123.677 686.483 Q123.677 693.589 125.482 697.154 Q127.311 700.695 130.922 700.695 Q134.556 700.695 136.362 697.154 Q138.191 693.589 138.191 686.483 Q138.191 679.353 136.362 675.811 Q134.556 672.247 130.922 672.247 M130.922 668.543 Q136.732 668.543 139.788 673.149 Q142.867 677.733 142.867 686.483 Q142.867 695.209 139.788 699.816 Q136.732 704.399 130.922 704.399 Q125.112 704.399 122.033 699.816 Q118.978 695.209 118.978 686.483 Q118.978 677.733 122.033 673.149 Q125.112 668.543 130.922 668.543 Z" fill="#000000" fill-rule="nonzero" fill-opacity="1" /><path clip-path="url(#clip170)" d="M82.1494 527.098 L111.825 527.098 L111.825 531.033 L82.1494 531.033 L82.1494 527.098 Z" fill="#000000" fill-rule="nonzero" fill-opacity="1" /><path clip-path="url(#clip170)" d="M121.964 509.367 L140.32 509.367 L140.32 513.302 L126.246 513.302 L126.246 521.774 Q127.265 521.427 128.283 521.265 Q129.302 521.08 130.32 521.08 Q136.107 521.08 139.487 524.251 Q142.867 527.422 142.867 532.839 Q142.867 538.418 139.394 541.52 Q135.922 544.598 129.603 544.598 Q127.427 544.598 125.158 544.228 Q122.913 543.857 120.506 543.117 L120.506 538.418 Q122.589 539.552 124.811 540.108 Q127.033 540.663 129.51 540.663 Q133.515 540.663 135.853 538.557 Q138.191 536.45 138.191 532.839 Q138.191 529.228 135.853 527.121 Q133.515 525.015 129.51 525.015 Q127.635 525.015 125.76 525.432 Q123.908 525.848 121.964 526.728 L121.964 509.367 Z" fill="#000000" fill-rule="nonzero" fill-opacity="1" /><path clip-path="url(#clip170)" d="M130.922 352.645 Q127.311 352.645 125.482 356.209 Q123.677 359.751 123.677 366.881 Q123.677 373.987 125.482 377.552 Q127.311 381.094 130.922 381.094 Q134.556 381.094 136.362 377.552 Q138.191 373.987 138.191 366.881 Q138.191 359.751 136.362 356.209 Q134.556 352.645 130.922 352.645 M130.922 348.941 Q136.732 348.941 139.788 353.547 Q142.867 358.131 142.867 366.881 Q142.867 375.608 139.788 380.214 Q136.732 384.797 130.922 384.797 Q125.112 384.797 122.033 380.214 Q118.978 375.608 118.978 366.881 Q118.978 358.131 122.033 353.547 Q125.112 348.941 130.922 348.941 Z" fill="#000000" fill-rule="nonzero" fill-opacity="1" /><path clip-path="url(#clip170)" d="M121.964 189.765 L140.32 189.765 L140.32 193.7 L126.246 193.7 L126.246 202.172 Q127.265 201.825 128.283 201.663 Q129.302 201.478 130.32 201.478 Q136.107 201.478 139.487 204.649 Q142.867 207.82 142.867 213.237 Q142.867 218.816 139.394 221.918 Q135.922 224.996 129.603 224.996 Q127.427 224.996 125.158 224.626 Q122.913 224.256 120.506 223.515 L120.506 218.816 Q122.589 219.95 124.811 220.506 Q127.033 221.061 129.51 221.061 Q133.515 221.061 135.853 218.955 Q138.191 216.848 138.191 213.237 Q138.191 209.626 135.853 207.52 Q133.515 205.413 129.51 205.413 Q127.635 205.413 125.76 205.83 Q123.908 206.246 121.964 207.126 L121.964 189.765 Z" fill="#000000" fill-rule="nonzero" fill-opacity="1" /><path clip-path="url(#clip170)" d="M91.5706 60.5889 L99.2095 60.5889 L99.2095 34.2233 L90.8993 35.89 L90.8993 31.6308 L99.1632 29.9641 L103.839 29.9641 L103.839 60.5889 L111.478 60.5889 L111.478 64.5241 L91.5706 64.5241 L91.5706 60.5889 Z" fill="#000000" fill-rule="nonzero" fill-opacity="1" /><path clip-path="url(#clip170)" d="M130.922 33.0428 Q127.311 33.0428 125.482 36.6076 Q123.677 40.1492 123.677 47.2788 Q123.677 54.3853 125.482 57.9501 Q127.311 61.4917 130.922 61.4917 Q134.556 61.4917 136.362 57.9501 Q138.191 54.3853 138.191 47.2788 Q138.191 40.1492 136.362 36.6076 Q134.556 33.0428 130.922 33.0428 M130.922 29.3391 Q136.732 29.3391 139.788 33.9456 Q142.867 38.5289 142.867 47.2788 Q142.867 56.0056 139.788 60.6121 Q136.732 65.1954 130.922 65.1954 Q125.112 65.1954 122.033 60.6121 Q118.978 56.0056 118.978 47.2788 Q118.978 38.5289 122.033 33.9456 Q125.112 29.3391 130.922 29.3391 Z" fill="#000000" fill-rule="nonzero" fill-opacity="1" /><polyline clip-path="url(#clip172)" style="stroke:#009af9; stroke-linecap:round; stroke-linejoin:round; stroke-width:4; stroke-opacity:1; fill:none" points="240.392,334.886 242.445,331.52 244.498,336.085 246.55,336.202 248.603,363.764 250.656,362.162 252.709,348.048 254.762,340.713 256.815,338.328 258.868,338.547 260.921,339.346 262.974,325.909 265.027,325.813 267.079,369.8 269.132,373.342 271.185,376.604 273.238,400.89 275.291,395.787 277.344,370.768 279.397,369.564 281.45,371.781 283.503,374.146 285.555,372.937 287.608,372.858 289.661,372.502 291.714,372.449 293.767,372.353 295.82,372.726 297.873,372.563 299.926,365.686 301.979,370.145 304.031,370.118 306.084,361.626 308.137,363.625 310.19,362.903 312.243,362.807 314.296,351.178 316.349,354.16 318.402,354.504 320.455,354.932 322.507,357.756 324.56,357.787 326.613,364.723 328.666,396.962 330.719,396.102 332.772,396.028 334.825,411.93 336.878,411.26 338.931,412.433 340.984,428.231 343.036,430.293 345.089,412.827 347.142,370.006 349.195,371.352 351.248,371.233 353.301,371.158 355.354,373.866 357.407,379.813 359.46,376.249 361.512,376.464 363.565,376.465 365.618,376.339 367.671,390.203 369.724,385.516 371.777,384.775 373.83,382.957 375.883,363.079 377.936,335.268 379.988,350.088 382.041,338.028 384.094,352.361 386.147,351.432 388.2,349.446 390.253,350.118 392.306,389.066 394.359,391.367 396.412,393.567 398.464,392.659 400.517,389.512 402.57,358.133 404.623,376.888 406.676,376.708 408.729,344.612 410.782,344.979 412.835,345.188 414.888,343.466 416.94,353.601 418.993,350.391 421.046,348.837 423.099,341.834 425.152,311.909 427.205,316.542 429.258,316.563 431.311,326.45 433.364,327.181 435.417,327.502 437.469,316.403 439.522,318.776 441.575,318.685 443.628,319.049 445.681,368.194 447.734,385.814 449.787,388.181 451.84,367.61 453.893,370.689 455.945,370.733 457.998,373.816 460.051,357.083 462.104,362.126 464.157,365.716 466.21,351.78 468.263,382.918 470.316,373.467 472.369,372.549 474.421,364.435 476.474,372.397 478.527,373.528 480.58,384.576 482.633,342.308 484.686,340.177 486.739,340.038 488.792,340.065 490.845,345.905 492.897,350.798 494.95,348.791 497.003,362.177 499.056,362.44 501.109,378.852 503.162,378.831 505.215,366.298 507.268,366.331 509.321,363.795 511.374,358.838 513.426,347.539 515.479,336.512 517.532,351.498 519.585,350.046 521.638,354.479 523.691,343.316 525.744,408.126 527.797,400.247 529.85,398.205 531.902,398.263 533.955,379.488 536.008,368.159 538.061,364.645 540.114,364.095 542.167,376.863 544.22,368.215 546.273,368.171 548.326,379.884 550.378,369.003 552.431,364.343 554.484,363.849 556.537,356.817 558.59,364.742 560.643,365.314 562.696,359.384 564.749,359.394 566.802,357.836 568.854,366.022 570.907,366.514 572.96,369.034 575.013,369.178 577.066,369.115 579.119,369.239 581.172,369.092 583.225,368.654 585.278,413.148 587.331,408.843 589.383,405.48 591.436,384.974 593.489,386.702 595.542,387.368 597.595,385.093 599.648,385.604 601.701,386.12 603.754,357.657 605.807,357.73 607.859,359.62 609.912,349.219 611.965,354.736 614.018,354.928 616.071,355.204 618.124,353.941 620.177,353.907 622.23,333.924 624.283,363.55 626.335,361.255 628.388,344.515 630.441,322.243 632.494,328.829 634.547,328.639 636.6,323.853 638.653,326.547 640.706,334.889 642.759,336.254 644.811,341.589 646.864,352.633 648.917,341.221 650.97,349.257 653.023,349.295 655.076,297.711 657.129,298.424 659.182,312.723 661.235,372.766 663.288,369.219 665.34,369.543 667.393,361.245 669.446,403.018 671.499,405.395 673.552,416.536 675.605,437.064 677.658,437.748 679.711,453.307 681.764,472.941 683.816,321.579 685.869,354.866 687.922,370.865 689.975,353.495 692.028,340.487 694.081,343.041 696.134,354.676 698.187,319.405 700.24,316.63 702.292,442.374 704.345,442.24 706.398,452.576 708.451,453.538 710.504,451.551 712.557,451.225 714.61,450.872 716.663,452.448 718.716,446.449 720.768,446.497 722.821,445.906 724.874,460.947 726.927,454.95 728.98,428.266 731.033,469.615 733.086,469.106 735.139,527.831 737.192,528.721 739.245,522.537 741.297,480.028 743.35,473.096 745.403,473.568 747.456,505.787 749.509,501.203 751.562,483.874 753.615,460.763 755.668,491.785 757.721,447.167 759.773,491.42 761.826,424.628 763.879,350.642 765.932,349.699 767.985,253.477 770.038,369.917 772.091,349.654 774.144,335.31 776.197,319.865 778.249,294.662 780.302,348.895 782.355,347.067 784.408,337.01 786.461,375.863 788.514,407.502 790.567,429.863 792.62,443.106 794.673,373.626 796.725,355.474 798.778,341.887 800.831,341.939 802.884,359.798 804.937,395.959 806.99,246.177 809.043,248.257 811.096,248.413 813.149,209.831 815.202,188.946 817.254,189.657 819.307,184.661 821.36,257.055 823.413,261.906 825.466,295.107 827.519,470.912 829.572,468.432 831.625,366.509 833.678,185.788 835.73,195.813 837.783,205.782 839.836,190.788 841.889,159.138 843.942,161.084 845.995,158.464 848.048,159.084 850.101,149.891 852.154,154.452 854.206,148.344 856.259,159.545 858.312,159.773 860.365,367.785 862.418,370.082 864.471,378.002 866.524,376.351 868.577,406.154 870.63,407.165 872.682,407.177 874.735,408.703 876.788,409.432 878.841,412.254 880.894,408.882 882.947,396.726 885,300.961 887.053,316.971 889.106,322.055 891.159,343.706 893.211,305.786 895.264,288.923 897.317,361.736 899.37,361.963 901.423,359.434 903.476,362.169 905.529,352.485 907.582,328.066 909.635,321.143 911.687,358.468 913.74,358.888 915.793,360.767 917.846,360.074 919.899,362.976 921.952,383.133 924.005,377.269 926.058,379.031 928.111,383.427 930.163,382.652 932.216,379.885 934.269,386.31 936.322,386.285 938.375,388.025 940.428,388.313 942.481,387.961 944.534,387.552 946.587,386.796 948.639,397.866 950.692,394.22 952.745,382.809 954.798,380.363 956.851,375.134 958.904,375.983 960.957,375.975 963.01,372.076 965.063,372.722 967.116,388.504 969.168,388.461 971.221,385.551 973.274,386.668 975.327,385.201 977.38,386.311 979.433,387.306 981.486,374.58 983.539,363.064 985.592,360.762 987.644,361.462 989.697,361.47 991.75,358.507 993.803,357.494 995.856,363.264 997.909,368.998 999.962,367.861 1002.01,364.59 1004.07,367.021 1006.12,360.07 1008.17,370.388 1010.23,370.528 1012.28,372.214 1014.33,365.845 1016.38,370.827 1018.44,371.518 1020.49,371.908 1022.54,356.172 1024.6,357.698 1026.65,369.806 1028.7,369.869 1030.76,362.527 1032.81,440.093 1034.86,362.135 1036.91,406.723 1038.97,385.155 1041.02,385.56 1043.07,385.503 1045.13,389.072 1047.18,389.2 1049.23,389.068 1051.28,388.329 1053.34,381.959 1055.39,379.979 1057.44,386.318 1059.5,397.797 1061.55,359.299 1063.6,356.683 1065.65,357.084 1067.71,354.535 1069.76,353.383 1071.81,354.193 1073.87,354.847 1075.92,345.514 1077.97,345.7 1080.02,345.784 1082.08,361.728 1084.13,343.299 1086.18,343.249 1088.24,376.97 1090.29,372.899 1092.34,370.635 1094.39,370.446 1096.45,378.526 1098.5,351.271 1100.55,348.616 1102.61,344.245 1104.66,344.536 1106.71,344.583 1108.77,346.69 1110.82,339.629 1112.87,336.786 1114.92,345.011 1116.98,345.137 1119.03,328.819 1121.08,324.654 1123.14,322.088 1125.19,322.138 1127.24,329.514 1129.29,324.96 1131.35,316.397 1133.4,315.957 1135.45,348.354 1137.51,336.912 1139.56,335.677 1141.61,409.373 1143.66,411.741 1145.72,417.745 1147.77,412.195 1149.82,376.154 1151.88,377.039 1153.93,367.441 1155.98,368.846 1158.03,365.01 1160.09,365.02 1162.14,364.975 1164.19,364.351 1166.25,364.925 1168.3,365.116 1170.35,349.693 1172.4,353.901 1174.46,345.329 1176.51,345.449 1178.56,343.198 1180.62,384.655 1182.67,366.432 1184.72,366.101 1186.77,366.4 1188.83,377.096 1190.88,370.012 1192.93,369.733 1194.99,375.139 1197.04,376.96 1199.09,377.087 1201.15,368.529 1203.2,368.527 1205.25,375.465 1207.3,376.742 1209.36,377.855 1211.41,381.79 1213.46,399.588 1215.52,399.821 1217.57,399.131 1219.62,397.333 1221.67,395.543 1223.73,395.635 1225.78,396.222 1227.83,350.055 1229.89,350.437 1231.94,350.238 1233.99,351.974 1236.04,350.977 1238.1,342.097 1240.15,336.758 1242.2,363.836 1244.26,362.394 1246.31,363.05 1248.36,347.567 1250.41,368.35 1252.47,387.428 1254.52,371.297 1256.57,381.192 1258.63,383.717 1260.68,383.753 1262.73,386.184 1264.78,394.968 1266.84,386.17 1268.89,386.314 1270.94,396.158 1273,390.794 1275.05,391.609 1277.1,384.692 1279.16,383.756 1281.21,386.612 1283.26,374.551 1285.31,381.726 1287.37,370.74 1289.42,367.987 1291.47,365.545 1293.53,365.551 1295.58,364.633 1297.63,373.469 1299.68,372.752 1301.74,371.963 1303.79,370.743 1305.84,370.811 1307.9,342.156 1309.95,337.82 1312,346.064 1314.05,346.384 1316.11,369.111 1318.16,373.965 1320.21,372.526 1322.27,366.155 1324.32,375.401 1326.37,381.112 1328.42,371.632 1330.48,370.396 1332.53,370.318 1334.58,371.507 1336.64,376.452 1338.69,366.123 1340.74,366.054 1342.79,366.723 1344.85,366.732 1346.9,366.66 1348.95,365.36 1351.01,365.367 1353.06,365.156 1355.11,365.618 1357.16,351.366 1359.22,350.561 1361.27,350.143 1363.32,355.869 1365.38,361.256 1367.43,361.635 1369.48,361.704 1371.54,392.717 1373.59,390.597 1375.64,367.517 1377.69,370.41 1379.75,370.438 1381.8,368.07 1383.85,367.955 1385.91,363.171 1387.96,363.246 1390.01,369.532 1392.06,369.944 1394.12,372.001 1396.17,372.346 1398.22,372.115 1400.28,371.843 1402.33,393.091 1404.38,384.928 1406.43,392.433 1408.49,384.207 1410.54,396.489 1412.59,399.806 1414.65,400.683 1416.7,382.78 1418.75,366.151 1420.8,371.044 1422.86,349.474 1424.91,350.093 1426.96,350.592 1429.02,350.607 1431.07,350.321 1433.12,350.392 1435.17,351.822 1437.23,351.293 1439.28,346.958 1441.33,346.798 1443.39,366.223 1445.44,358.916 1447.49,359.738 1449.55,403.803 1451.6,362.448 1453.65,368.16 1455.7,382.451 1457.76,381.878 1459.81,369.356 1461.86,370.281 1463.92,366.351 1465.97,323.603 1468.02,306.932 1470.07,305.582 1472.13,305.582 1474.18,317.055 1476.23,317.217 1478.29,315.977 1480.34,327.444 1482.39,333.356 1484.44,332.134 1486.5,332.092 1488.55,346.733 1490.6,346.374 1492.66,361.49 1494.71,317.888 1496.76,331.882 1498.81,331.161 1500.87,326.194 1502.92,339.937 1504.97,331.096 1507.03,262.704 1509.08,256.149 1511.13,256.786 1513.18,266.785 1515.24,266.441 1517.29,266.252 1519.34,303.389 1521.4,261.301 1523.45,261.149 1525.5,278.324 1527.55,278.164 1529.61,276.155 1531.66,276.087 1533.71,274.325 1535.77,278.35 1537.82,277.099 1539.87,330.952 1541.93,331.998 1543.98,362.508 1546.03,337.297 1548.08,336.725 1550.14,342.977 1552.19,340.489 1554.24,339.957 1556.3,340.291 1558.35,345.465 1560.4,374.265 1562.45,373.267 1564.51,401.756 1566.56,400.31 1568.61,402.327 1570.67,407.154 1572.72,407.116 1574.77,378.899 1576.82,377.93 1578.88,374.605 1580.93,373.042 1582.98,372.966 1585.04,372.94 1587.09,374.569 1589.14,374.719 1591.19,374.243 1593.25,378.19 1595.3,379.865 1597.35,382.246 1599.41,382.263 1601.46,382.302 1603.51,384.237 1605.56,381.231 1607.62,383.137 1609.67,385.667 1611.72,381.249 1613.78,381.167 1615.83,380.641 1617.88,381.457 1619.94,380.241 1621.99,371.842 1624.04,349.189 1626.09,351.515 1628.15,352.942 1630.2,369.032 1632.25,377.753 1634.31,376.378 1636.36,375.507 1638.41,381.092 1640.46,374.901 1642.52,391.474 1644.57,349.64 1646.62,350.337 1648.68,350.065 1650.73,349.696 1652.78,360.747 1654.83,360.385 1656.89,360.653 1658.94,358.818 1660.99,358.741 1663.05,369.86 1665.1,374.94 1667.15,375.088 1669.2,375.09 1671.26,375.021 1673.31,374.998 1675.36,374.961 1677.42,375.282 1679.47,366.568 1681.52,367.244 1683.57,367.496 1685.63,367.769 1687.68,367.873 1689.73,367.565 1691.79,376.034 1693.84,366.575 1695.89,366.452 1697.94,367.673 1700,368.266 1702.05,367.169 1704.1,365.855 1706.16,366.474 1708.21,366.637 1710.26,374.485 1712.32,373.45 1714.37,356.945 1716.42,331.857 1718.47,331.648 1720.53,345.134 1722.58,345.163 1724.63,342.506 1726.69,349.936 1728.74,365.326 1730.79,365.588 1732.84,374.006 1734.9,374.251 1736.95,331.373 1739,336.239 1741.06,331.838 1743.11,325.45 1745.16,326.436 1747.21,360.993 1749.27,345.13 1751.32,348.254 1753.37,349.729 1755.43,345.463 1757.48,344.315 1759.53,350.744 1761.58,343.536 1763.64,385.325 1765.69,383.963 1767.74,385.415 1769.8,399.683 1771.85,416.352 1773.9,415.935 1775.95,410.887 1778.01,412.608 1780.06,413.385 1782.11,412.684 1784.17,385.657 1786.22,384.733 1788.27,369.575 1790.33,370.095 1792.38,348.995 1794.43,346.55 1796.48,346.657 1798.54,380.994 1800.59,383.349 1802.64,352.965 1804.7,355.613 1806.75,355.613 1808.8,356.452 1810.85,358.934 1812.91,359.259 1814.96,373.329 1817.01,366.663 1819.07,356.994 1821.12,358.424 1823.17,358.534 1825.22,343.592 1827.28,342.052 1829.33,337.195 1831.38,345.612 1833.44,359.359 1835.49,359.3 1837.54,358.914 1839.59,358.543 1841.65,357.582 1843.7,351.313 1845.75,344.008 1847.81,339.299 1849.86,377.396 1851.91,377.657 1853.96,356.141 1856.02,350.798 1858.07,372.348 1860.12,404.563 1862.18,403.319 1864.23,402.281 1866.28,402.421 1868.34,401.73 1870.39,350.3 1872.44,356.176 1874.49,357.992 1876.55,388.974 1878.6,389.831 1880.65,348.848 1882.71,394.137 1884.76,368.589 1886.81,383.676 1888.86,386.993 1890.92,387.123 1892.97,382.745 1895.02,388.732 1897.08,251.779 1899.13,282.888 1901.18,306.882 1903.23,306.117 1905.29,370.576 1907.34,374.233 1909.39,362.173 1911.45,408.847 1913.5,403.082 1915.55,429.81 1917.6,436.42 1919.66,424.457 1921.71,339.925 1923.76,334.974 1925.82,349.01 1927.87,355.177 1929.92,344.678 1931.97,283.517 1934.03,265.663 1936.08,372.029 1938.13,351.427 1940.19,345.915 1942.24,369.668 1944.29,346.534 1946.34,380.825 1948.4,380.031 1950.45,378.111 1952.5,344.709 1954.56,342.444 1956.61,366.823 1958.66,345.741 1960.72,326.865 1962.77,352.6 1964.82,353.74 1966.87,352.289 1968.93,375.073 1970.98,371.671 1973.03,455.338 1975.09,455.428 1977.14,455.368 1979.19,459.714 1981.24,475.368 1983.3,475.187 1985.35,474.681 1987.4,491.523 1989.46,474.163 1991.51,468.494 1993.56,422.743 1995.61,423.951 1997.67,348.517 1999.72,344.008 2001.77,331.912 2003.83,331.308 2005.88,293.798 2007.93,388.586 2009.98,469.132 2012.04,502.703 2014.09,505.605 2016.14,506.503 2018.2,506.515 2020.25,506.365 2022.3,499.178 2024.35,490.911 2026.41,468.442 2028.46,506.587 2030.51,486.638 2032.57,461.587 2034.62,446.768 2036.67,441.862 2038.73,442.648 2040.78,445.215 2042.83,432.577 2044.88,432.324 2046.94,414.573 2048.99,449.581 2051.04,448.427 2053.1,462.035 2055.15,259.396 2057.2,272.19 2059.25,253.559 2061.31,254.728 2063.36,254.759 2065.41,243.525 2067.47,242.898 2069.52,391.747 2071.57,391.803 2073.62,400.733 2075.68,400.596 2077.73,395.599 2079.78,403.301 2081.84,408.298 2083.89,379.593 2085.94,380.571 2087.99,379.614 2090.05,374.734 2092.1,375.368 2094.15,381.754 2096.21,337.593 2098.26,337.676 2100.31,350.069 2102.36,368.152 2104.42,338.514 2106.47,358.054 2108.52,346.726 2110.58,413.349 2112.63,359.077 2114.68,357.454 2116.73,306.393 2118.79,280.281 2120.84,320.286 2122.89,311.723 2124.95,307.468 2127,314.418 2129.05,319.307 2131.11,311.544 2133.16,274.485 2135.21,274.097 2137.26,283.161 2139.32,294.142 2141.37,246.376 2143.42,244.776 2145.48,251.175 2147.53,249.03 2149.58,248.801 2151.63,459.656 2153.69,508.415 2155.74,508.794 2157.79,507.478 2159.85,505.082 2161.9,507.287 2163.95,507.507 2166,441.053 2168.06,356.27 2170.11,360.319 2172.16,387.584 2174.22,387.611 2176.27,378.91 2178.32,411.209 2180.37,410.937 2182.43,408.407 2184.48,405.252 2186.53,372.281 2188.59,363.145 2190.64,360.653 2192.69,358.935 2194.74,354.374 2196.8,355.228 2198.85,355.249 2200.9,333.502 2202.96,348.289 2205.01,347.624 2207.06,340.524 2209.12,340.542 2211.17,343.904 2213.22,357.838 2215.27,318.991 2217.33,320.373 2219.38,303.465 2221.43,348.88 2223.49,349.379 2225.54,362.95 2227.59,374.455 2229.64,372.407 2231.7,366.425 2233.75,341.66 2235.8,313.034 2237.86,320.649 2239.91,305.091 2241.96,322.47 2244.01,337.1 2246.07,339.233 2248.12,335.49 2250.17,348.855 2252.23,352.851 2254.28,353.386 2256.33,345.454 2258.38,348.003 2260.44,353.986 2262.49,352.681 2264.54,353.488 2266.6,471.27 2268.65,469.549 2270.7,462.517 2272.75,463.794 2274.81,462.391 2276.86,462.386 2278.91,393.289 2280.97,358.881 2283.02,413.485 2285.07,499.084 2287.12,551.121 2289.18,527.056 2291.23,503.925 "/>
<path clip-path="url(#clip170)" d="M1983.6 172.231 L2280.29 172.231 L2280.29 68.5509 L1983.6 68.5509  Z" fill="#ffffff" fill-rule="evenodd" fill-opacity="1"/>
<polyline clip-path="url(#clip170)" style="stroke:#000000; stroke-linecap:round; stroke-linejoin:round; stroke-width:4; stroke-opacity:1; fill:none" points="1983.6,172.231 2280.29,172.231 2280.29,68.5509 1983.6,68.5509 1983.6,172.231 "/>
<polyline clip-path="url(#clip170)" style="stroke:#009af9; stroke-linecap:round; stroke-linejoin:round; stroke-width:4; stroke-opacity:1; fill:none" points="2007.75,120.391 2152.68,120.391 "/>
<path clip-path="url(#clip170)" d="M2176.83 103.111 L2181.51 103.111 L2181.51 133.736 L2198.34 133.736 L2198.34 137.671 L2176.83 137.671 L2176.83 103.111 Z" fill="#000000" fill-rule="nonzero" fill-opacity="1" /><path clip-path="url(#clip170)" d="M2223.96 104.245 L2223.96 108.805 Q2221.3 107.532 2218.94 106.907 Q2216.58 106.282 2214.38 106.282 Q2210.56 106.282 2208.48 107.764 Q2206.42 109.245 2206.42 111.977 Q2206.42 114.268 2207.78 115.449 Q2209.17 116.606 2213.01 117.324 L2215.84 117.902 Q2221.07 118.898 2223.55 121.421 Q2226.05 123.921 2226.05 128.134 Q2226.05 133.157 2222.67 135.75 Q2219.31 138.342 2212.81 138.342 Q2210.35 138.342 2207.57 137.787 Q2204.82 137.231 2201.86 136.143 L2201.86 131.328 Q2204.7 132.926 2207.44 133.736 Q2210.17 134.546 2212.81 134.546 Q2216.81 134.546 2218.99 132.972 Q2221.16 131.398 2221.16 128.481 Q2221.16 125.935 2219.59 124.5 Q2218.04 123.064 2214.47 122.347 L2211.62 121.791 Q2206.39 120.75 2204.06 118.527 Q2201.72 116.305 2201.72 112.347 Q2201.72 107.764 2204.94 105.125 Q2208.18 102.486 2213.85 102.486 Q2216.28 102.486 2218.8 102.926 Q2221.32 103.366 2223.96 104.245 Z" fill="#000000" fill-rule="nonzero" fill-opacity="1" /><path clip-path="url(#clip170)" d="M2254.06 104.245 L2254.06 108.805 Q2251.39 107.532 2249.03 106.907 Q2246.67 106.282 2244.47 106.282 Q2240.65 106.282 2238.57 107.764 Q2236.51 109.245 2236.51 111.977 Q2236.51 114.268 2237.87 115.449 Q2239.26 116.606 2243.11 117.324 L2245.93 117.902 Q2251.16 118.898 2253.64 121.421 Q2256.14 123.921 2256.14 128.134 Q2256.14 133.157 2252.76 135.75 Q2249.4 138.342 2242.9 138.342 Q2240.44 138.342 2237.67 137.787 Q2234.91 137.231 2231.95 136.143 L2231.95 131.328 Q2234.8 132.926 2237.53 133.736 Q2240.26 134.546 2242.9 134.546 Q2246.9 134.546 2249.08 132.972 Q2251.25 131.398 2251.25 128.481 Q2251.25 125.935 2249.68 124.5 Q2248.13 123.064 2244.56 122.347 L2241.72 121.791 Q2236.49 120.75 2234.15 118.527 Q2231.81 116.305 2231.81 112.347 Q2231.81 107.764 2235.03 105.125 Q2238.27 102.486 2243.94 102.486 Q2246.37 102.486 2248.89 102.926 Q2251.42 103.366 2254.06 104.245 Z" fill="#000000" fill-rule="nonzero" fill-opacity="1" /><path clip-path="url(#clip170)" d="M178.867 1486.45 L2352.76 1486.45 L2352.76 847.244 L178.867 847.244  Z" fill="#ffffff" fill-rule="evenodd" fill-opacity="1"/>
<defs>
  <clipPath id="clip173">
    <rect x="178" y="847" width="2175" height="640"/>
  </clipPath>
</defs>
<polyline clip-path="url(#clip173)" style="stroke:#000000; stroke-linecap:round; stroke-linejoin:round; stroke-width:2; stroke-opacity:0.1; fill:none" points="238.339,1486.45 238.339,847.244 "/>
<polyline clip-path="url(#clip173)" style="stroke:#000000; stroke-linecap:round; stroke-linejoin:round; stroke-width:2; stroke-opacity:0.1; fill:none" points="751.562,1486.45 751.562,847.244 "/>
<polyline clip-path="url(#clip173)" style="stroke:#000000; stroke-linecap:round; stroke-linejoin:round; stroke-width:2; stroke-opacity:0.1; fill:none" points="1264.78,1486.45 1264.78,847.244 "/>
<polyline clip-path="url(#clip173)" style="stroke:#000000; stroke-linecap:round; stroke-linejoin:round; stroke-width:2; stroke-opacity:0.1; fill:none" points="1778.01,1486.45 1778.01,847.244 "/>
<polyline clip-path="url(#clip173)" style="stroke:#000000; stroke-linecap:round; stroke-linejoin:round; stroke-width:2; stroke-opacity:0.1; fill:none" points="2291.23,1486.45 2291.23,847.244 "/>
<polyline clip-path="url(#clip173)" style="stroke:#000000; stroke-linecap:round; stroke-linejoin:round; stroke-width:2; stroke-opacity:0.1; fill:none" points="178.867,1486.45 2352.76,1486.45 "/>
<polyline clip-path="url(#clip173)" style="stroke:#000000; stroke-linecap:round; stroke-linejoin:round; stroke-width:2; stroke-opacity:0.1; fill:none" points="178.867,1326.65 2352.76,1326.65 "/>
<polyline clip-path="url(#clip173)" style="stroke:#000000; stroke-linecap:round; stroke-linejoin:round; stroke-width:2; stroke-opacity:0.1; fill:none" points="178.867,1166.85 2352.76,1166.85 "/>
<polyline clip-path="url(#clip173)" style="stroke:#000000; stroke-linecap:round; stroke-linejoin:round; stroke-width:2; stroke-opacity:0.1; fill:none" points="178.867,1007.05 2352.76,1007.05 "/>
<polyline clip-path="url(#clip173)" style="stroke:#000000; stroke-linecap:round; stroke-linejoin:round; stroke-width:2; stroke-opacity:0.1; fill:none" points="178.867,847.244 2352.76,847.244 "/>
<polyline clip-path="url(#clip170)" style="stroke:#000000; stroke-linecap:round; stroke-linejoin:round; stroke-width:4; stroke-opacity:1; fill:none" points="178.867,1486.45 2352.76,1486.45 "/>
<polyline clip-path="url(#clip170)" style="stroke:#000000; stroke-linecap:round; stroke-linejoin:round; stroke-width:4; stroke-opacity:1; fill:none" points="238.339,1486.45 238.339,1467.55 "/>
<polyline clip-path="url(#clip170)" style="stroke:#000000; stroke-linecap:round; stroke-linejoin:round; stroke-width:4; stroke-opacity:1; fill:none" points="751.562,1486.45 751.562,1467.55 "/>
<polyline clip-path="url(#clip170)" style="stroke:#000000; stroke-linecap:round; stroke-linejoin:round; stroke-width:4; stroke-opacity:1; fill:none" points="1264.78,1486.45 1264.78,1467.55 "/>
<polyline clip-path="url(#clip170)" style="stroke:#000000; stroke-linecap:round; stroke-linejoin:round; stroke-width:4; stroke-opacity:1; fill:none" points="1778.01,1486.45 1778.01,1467.55 "/>
<polyline clip-path="url(#clip170)" style="stroke:#000000; stroke-linecap:round; stroke-linejoin:round; stroke-width:4; stroke-opacity:1; fill:none" points="2291.23,1486.45 2291.23,1467.55 "/>
<path clip-path="url(#clip170)" d="M238.339 1517.37 Q234.728 1517.37 232.899 1520.93 Q231.094 1524.47 231.094 1531.6 Q231.094 1538.71 232.899 1542.27 Q234.728 1545.82 238.339 1545.82 Q241.973 1545.82 243.779 1542.27 Q245.607 1538.71 245.607 1531.6 Q245.607 1524.47 243.779 1520.93 Q241.973 1517.37 238.339 1517.37 M238.339 1513.66 Q244.149 1513.66 247.205 1518.27 Q250.283 1522.85 250.283 1531.6 Q250.283 1540.33 247.205 1544.94 Q244.149 1549.52 238.339 1549.52 Q232.529 1549.52 229.45 1544.94 Q226.395 1540.33 226.395 1531.6 Q226.395 1522.85 229.45 1518.27 Q232.529 1513.66 238.339 1513.66 Z" fill="#000000" fill-rule="nonzero" fill-opacity="1" /><path clip-path="url(#clip170)" d="M715.254 1544.91 L731.574 1544.91 L731.574 1548.85 L709.629 1548.85 L709.629 1544.91 Q712.291 1542.16 716.875 1537.53 Q721.481 1532.88 722.662 1531.53 Q724.907 1529.01 725.787 1527.27 Q726.689 1525.51 726.689 1523.82 Q726.689 1521.07 724.745 1519.33 Q722.824 1517.6 719.722 1517.6 Q717.523 1517.6 715.069 1518.36 Q712.638 1519.13 709.861 1520.68 L709.861 1515.95 Q712.685 1514.82 715.138 1514.24 Q717.592 1513.66 719.629 1513.66 Q725 1513.66 728.194 1516.35 Q731.388 1519.03 731.388 1523.52 Q731.388 1525.65 730.578 1527.57 Q729.791 1529.47 727.685 1532.07 Q727.106 1532.74 724.004 1535.95 Q720.902 1539.15 715.254 1544.91 Z" fill="#000000" fill-rule="nonzero" fill-opacity="1" /><path clip-path="url(#clip170)" d="M741.435 1514.29 L759.791 1514.29 L759.791 1518.22 L745.717 1518.22 L745.717 1526.7 Q746.736 1526.35 747.754 1526.19 Q748.773 1526 749.791 1526 Q755.578 1526 758.958 1529.17 Q762.337 1532.34 762.337 1537.76 Q762.337 1543.34 758.865 1546.44 Q755.393 1549.52 749.073 1549.52 Q746.898 1549.52 744.629 1549.15 Q742.384 1548.78 739.976 1548.04 L739.976 1543.34 Q742.06 1544.47 744.282 1545.03 Q746.504 1545.58 748.981 1545.58 Q752.985 1545.58 755.323 1543.48 Q757.661 1541.37 757.661 1537.76 Q757.661 1534.15 755.323 1532.04 Q752.985 1529.94 748.981 1529.94 Q747.106 1529.94 745.231 1530.35 Q743.379 1530.77 741.435 1531.65 L741.435 1514.29 Z" fill="#000000" fill-rule="nonzero" fill-opacity="1" /><path clip-path="url(#clip170)" d="M781.55 1517.37 Q777.939 1517.37 776.11 1520.93 Q774.305 1524.47 774.305 1531.6 Q774.305 1538.71 776.11 1542.27 Q777.939 1545.82 781.55 1545.82 Q785.184 1545.82 786.99 1542.27 Q788.819 1538.71 788.819 1531.6 Q788.819 1524.47 786.99 1520.93 Q785.184 1517.37 781.55 1517.37 M781.55 1513.66 Q787.36 1513.66 790.416 1518.27 Q793.495 1522.85 793.495 1531.6 Q793.495 1540.33 790.416 1544.94 Q787.36 1549.52 781.55 1549.52 Q775.74 1549.52 772.661 1544.94 Q769.606 1540.33 769.606 1531.6 Q769.606 1522.85 772.661 1518.27 Q775.74 1513.66 781.55 1513.66 Z" fill="#000000" fill-rule="nonzero" fill-opacity="1" /><path clip-path="url(#clip170)" d="M1224.4 1514.29 L1242.76 1514.29 L1242.76 1518.22 L1228.69 1518.22 L1228.69 1526.7 Q1229.7 1526.35 1230.72 1526.19 Q1231.74 1526 1232.76 1526 Q1238.55 1526 1241.93 1529.17 Q1245.31 1532.34 1245.31 1537.76 Q1245.31 1543.34 1241.83 1546.44 Q1238.36 1549.52 1232.04 1549.52 Q1229.87 1549.52 1227.6 1549.15 Q1225.35 1548.78 1222.94 1548.04 L1222.94 1543.34 Q1225.03 1544.47 1227.25 1545.03 Q1229.47 1545.58 1231.95 1545.58 Q1235.95 1545.58 1238.29 1543.48 Q1240.63 1541.37 1240.63 1537.76 Q1240.63 1534.15 1238.29 1532.04 Q1235.95 1529.94 1231.95 1529.94 Q1230.07 1529.94 1228.2 1530.35 Q1226.35 1530.77 1224.4 1531.65 L1224.4 1514.29 Z" fill="#000000" fill-rule="nonzero" fill-opacity="1" /><path clip-path="url(#clip170)" d="M1264.52 1517.37 Q1260.91 1517.37 1259.08 1520.93 Q1257.27 1524.47 1257.27 1531.6 Q1257.27 1538.71 1259.08 1542.27 Q1260.91 1545.82 1264.52 1545.82 Q1268.15 1545.82 1269.96 1542.27 Q1271.79 1538.71 1271.79 1531.6 Q1271.79 1524.47 1269.96 1520.93 Q1268.15 1517.37 1264.52 1517.37 M1264.52 1513.66 Q1270.33 1513.66 1273.38 1518.27 Q1276.46 1522.85 1276.46 1531.6 Q1276.46 1540.33 1273.38 1544.94 Q1270.33 1549.52 1264.52 1549.52 Q1258.71 1549.52 1255.63 1544.94 Q1252.57 1540.33 1252.57 1531.6 Q1252.57 1522.85 1255.63 1518.27 Q1258.71 1513.66 1264.52 1513.66 Z" fill="#000000" fill-rule="nonzero" fill-opacity="1" /><path clip-path="url(#clip170)" d="M1294.68 1517.37 Q1291.07 1517.37 1289.24 1520.93 Q1287.44 1524.47 1287.44 1531.6 Q1287.44 1538.71 1289.24 1542.27 Q1291.07 1545.82 1294.68 1545.82 Q1298.31 1545.82 1300.12 1542.27 Q1301.95 1538.71 1301.95 1531.6 Q1301.95 1524.47 1300.12 1520.93 Q1298.31 1517.37 1294.68 1517.37 M1294.68 1513.66 Q1300.49 1513.66 1303.55 1518.27 Q1306.62 1522.85 1306.62 1531.6 Q1306.62 1540.33 1303.55 1544.94 Q1300.49 1549.52 1294.68 1549.52 Q1288.87 1549.52 1285.79 1544.94 Q1282.74 1540.33 1282.74 1531.6 Q1282.74 1522.85 1285.79 1518.27 Q1288.87 1513.66 1294.68 1513.66 Z" fill="#000000" fill-rule="nonzero" fill-opacity="1" /><path clip-path="url(#clip170)" d="M1736.28 1514.29 L1758.51 1514.29 L1758.51 1516.28 L1745.96 1548.85 L1741.08 1548.85 L1752.88 1518.22 L1736.28 1518.22 L1736.28 1514.29 Z" fill="#000000" fill-rule="nonzero" fill-opacity="1" /><path clip-path="url(#clip170)" d="M1767.67 1514.29 L1786.03 1514.29 L1786.03 1518.22 L1771.95 1518.22 L1771.95 1526.7 Q1772.97 1526.35 1773.99 1526.19 Q1775.01 1526 1776.03 1526 Q1781.82 1526 1785.2 1529.17 Q1788.57 1532.34 1788.57 1537.76 Q1788.57 1543.34 1785.1 1546.44 Q1781.63 1549.52 1775.31 1549.52 Q1773.14 1549.52 1770.87 1549.15 Q1768.62 1548.78 1766.21 1548.04 L1766.21 1543.34 Q1768.3 1544.47 1770.52 1545.03 Q1772.74 1545.58 1775.22 1545.58 Q1779.22 1545.58 1781.56 1543.48 Q1783.9 1541.37 1783.9 1537.76 Q1783.9 1534.15 1781.56 1532.04 Q1779.22 1529.94 1775.22 1529.94 Q1773.34 1529.94 1771.47 1530.35 Q1769.62 1530.77 1767.67 1531.65 L1767.67 1514.29 Z" fill="#000000" fill-rule="nonzero" fill-opacity="1" /><path clip-path="url(#clip170)" d="M1807.79 1517.37 Q1804.18 1517.37 1802.35 1520.93 Q1800.54 1524.47 1800.54 1531.6 Q1800.54 1538.71 1802.35 1542.27 Q1804.18 1545.82 1807.79 1545.82 Q1811.42 1545.82 1813.23 1542.27 Q1815.06 1538.71 1815.06 1531.6 Q1815.06 1524.47 1813.23 1520.93 Q1811.42 1517.37 1807.79 1517.37 M1807.79 1513.66 Q1813.6 1513.66 1816.65 1518.27 Q1819.73 1522.85 1819.73 1531.6 Q1819.73 1540.33 1816.65 1544.94 Q1813.6 1549.52 1807.79 1549.52 Q1801.98 1549.52 1798.9 1544.94 Q1795.84 1540.33 1795.84 1531.6 Q1795.84 1522.85 1798.9 1518.27 Q1801.98 1513.66 1807.79 1513.66 Z" fill="#000000" fill-rule="nonzero" fill-opacity="1" /><path clip-path="url(#clip170)" d="M2235.76 1544.91 L2243.4 1544.91 L2243.4 1518.55 L2235.09 1520.21 L2235.09 1515.95 L2243.35 1514.29 L2248.02 1514.29 L2248.02 1544.91 L2255.66 1544.91 L2255.66 1548.85 L2235.76 1548.85 L2235.76 1544.91 Z" fill="#000000" fill-rule="nonzero" fill-opacity="1" /><path clip-path="url(#clip170)" d="M2275.11 1517.37 Q2271.5 1517.37 2269.67 1520.93 Q2267.86 1524.47 2267.86 1531.6 Q2267.86 1538.71 2269.67 1542.27 Q2271.5 1545.82 2275.11 1545.82 Q2278.74 1545.82 2280.55 1542.27 Q2282.38 1538.71 2282.38 1531.6 Q2282.38 1524.47 2280.55 1520.93 Q2278.74 1517.37 2275.11 1517.37 M2275.11 1513.66 Q2280.92 1513.66 2283.97 1518.27 Q2287.05 1522.85 2287.05 1531.6 Q2287.05 1540.33 2283.97 1544.94 Q2280.92 1549.52 2275.11 1549.52 Q2269.3 1549.52 2266.22 1544.94 Q2263.16 1540.33 2263.16 1531.6 Q2263.16 1522.85 2266.22 1518.27 Q2269.3 1513.66 2275.11 1513.66 Z" fill="#000000" fill-rule="nonzero" fill-opacity="1" /><path clip-path="url(#clip170)" d="M2305.27 1517.37 Q2301.66 1517.37 2299.83 1520.93 Q2298.02 1524.47 2298.02 1531.6 Q2298.02 1538.71 2299.83 1542.27 Q2301.66 1545.82 2305.27 1545.82 Q2308.9 1545.82 2310.71 1542.27 Q2312.54 1538.71 2312.54 1531.6 Q2312.54 1524.47 2310.71 1520.93 Q2308.9 1517.37 2305.27 1517.37 M2305.27 1513.66 Q2311.08 1513.66 2314.14 1518.27 Q2317.21 1522.85 2317.21 1531.6 Q2317.21 1540.33 2314.14 1544.94 Q2311.08 1549.52 2305.27 1549.52 Q2299.46 1549.52 2296.38 1544.94 Q2293.33 1540.33 2293.33 1531.6 Q2293.33 1522.85 2296.38 1518.27 Q2299.46 1513.66 2305.27 1513.66 Z" fill="#000000" fill-rule="nonzero" fill-opacity="1" /><path clip-path="url(#clip170)" d="M2335.43 1517.37 Q2331.82 1517.37 2329.99 1520.93 Q2328.19 1524.47 2328.19 1531.6 Q2328.19 1538.71 2329.99 1542.27 Q2331.82 1545.82 2335.43 1545.82 Q2339.07 1545.82 2340.87 1542.27 Q2342.7 1538.71 2342.7 1531.6 Q2342.7 1524.47 2340.87 1520.93 Q2339.07 1517.37 2335.43 1517.37 M2335.43 1513.66 Q2341.24 1513.66 2344.3 1518.27 Q2347.38 1522.85 2347.38 1531.6 Q2347.38 1540.33 2344.3 1544.94 Q2341.24 1549.52 2335.43 1549.52 Q2329.62 1549.52 2326.54 1544.94 Q2323.49 1540.33 2323.49 1531.6 Q2323.49 1522.85 2326.54 1518.27 Q2329.62 1513.66 2335.43 1513.66 Z" fill="#000000" fill-rule="nonzero" fill-opacity="1" /><polyline clip-path="url(#clip170)" style="stroke:#000000; stroke-linecap:round; stroke-linejoin:round; stroke-width:4; stroke-opacity:1; fill:none" points="178.867,1486.45 178.867,847.244 "/>
<polyline clip-path="url(#clip170)" style="stroke:#000000; stroke-linecap:round; stroke-linejoin:round; stroke-width:4; stroke-opacity:1; fill:none" points="178.867,1486.45 197.764,1486.45 "/>
<polyline clip-path="url(#clip170)" style="stroke:#000000; stroke-linecap:round; stroke-linejoin:round; stroke-width:4; stroke-opacity:1; fill:none" points="178.867,1326.65 197.764,1326.65 "/>
<polyline clip-path="url(#clip170)" style="stroke:#000000; stroke-linecap:round; stroke-linejoin:round; stroke-width:4; stroke-opacity:1; fill:none" points="178.867,1166.85 197.764,1166.85 "/>
<polyline clip-path="url(#clip170)" style="stroke:#000000; stroke-linecap:round; stroke-linejoin:round; stroke-width:4; stroke-opacity:1; fill:none" points="178.867,1007.05 197.764,1007.05 "/>
<polyline clip-path="url(#clip170)" style="stroke:#000000; stroke-linecap:round; stroke-linejoin:round; stroke-width:4; stroke-opacity:1; fill:none" points="178.867,847.244 197.764,847.244 "/>
<path clip-path="url(#clip170)" d="M50.9921 1486.9 L80.6679 1486.9 L80.6679 1490.83 L50.9921 1490.83 L50.9921 1486.9 Z" fill="#000000" fill-rule="nonzero" fill-opacity="1" /><path clip-path="url(#clip170)" d="M91.5706 1499.79 L99.2095 1499.79 L99.2095 1473.43 L90.8993 1475.09 L90.8993 1470.83 L99.1632 1469.17 L103.839 1469.17 L103.839 1499.79 L111.478 1499.79 L111.478 1503.73 L91.5706 1503.73 L91.5706 1499.79 Z" fill="#000000" fill-rule="nonzero" fill-opacity="1" /><path clip-path="url(#clip170)" d="M130.922 1472.25 Q127.311 1472.25 125.482 1475.81 Q123.677 1479.35 123.677 1486.48 Q123.677 1493.59 125.482 1497.15 Q127.311 1500.7 130.922 1500.7 Q134.556 1500.7 136.362 1497.15 Q138.191 1493.59 138.191 1486.48 Q138.191 1479.35 136.362 1475.81 Q134.556 1472.25 130.922 1472.25 M130.922 1468.54 Q136.732 1468.54 139.788 1473.15 Q142.867 1477.73 142.867 1486.48 Q142.867 1495.21 139.788 1499.82 Q136.732 1504.4 130.922 1504.4 Q125.112 1504.4 122.033 1499.82 Q118.978 1495.21 118.978 1486.48 Q118.978 1477.73 122.033 1473.15 Q125.112 1468.54 130.922 1468.54 Z" fill="#000000" fill-rule="nonzero" fill-opacity="1" /><path clip-path="url(#clip170)" d="M82.1494 1327.1 L111.825 1327.1 L111.825 1331.03 L82.1494 1331.03 L82.1494 1327.1 Z" fill="#000000" fill-rule="nonzero" fill-opacity="1" /><path clip-path="url(#clip170)" d="M121.964 1309.37 L140.32 1309.37 L140.32 1313.3 L126.246 1313.3 L126.246 1321.77 Q127.265 1321.43 128.283 1321.27 Q129.302 1321.08 130.32 1321.08 Q136.107 1321.08 139.487 1324.25 Q142.867 1327.42 142.867 1332.84 Q142.867 1338.42 139.394 1341.52 Q135.922 1344.6 129.603 1344.6 Q127.427 1344.6 125.158 1344.23 Q122.913 1343.86 120.506 1343.12 L120.506 1338.42 Q122.589 1339.55 124.811 1340.11 Q127.033 1340.66 129.51 1340.66 Q133.515 1340.66 135.853 1338.56 Q138.191 1336.45 138.191 1332.84 Q138.191 1329.23 135.853 1327.12 Q133.515 1325.01 129.51 1325.01 Q127.635 1325.01 125.76 1325.43 Q123.908 1325.85 121.964 1326.73 L121.964 1309.37 Z" fill="#000000" fill-rule="nonzero" fill-opacity="1" /><path clip-path="url(#clip170)" d="M130.922 1152.64 Q127.311 1152.64 125.482 1156.21 Q123.677 1159.75 123.677 1166.88 Q123.677 1173.99 125.482 1177.55 Q127.311 1181.09 130.922 1181.09 Q134.556 1181.09 136.362 1177.55 Q138.191 1173.99 138.191 1166.88 Q138.191 1159.75 136.362 1156.21 Q134.556 1152.64 130.922 1152.64 M130.922 1148.94 Q136.732 1148.94 139.788 1153.55 Q142.867 1158.13 142.867 1166.88 Q142.867 1175.61 139.788 1180.21 Q136.732 1184.8 130.922 1184.8 Q125.112 1184.8 122.033 1180.21 Q118.978 1175.61 118.978 1166.88 Q118.978 1158.13 122.033 1153.55 Q125.112 1148.94 130.922 1148.94 Z" fill="#000000" fill-rule="nonzero" fill-opacity="1" /><path clip-path="url(#clip170)" d="M121.964 989.765 L140.32 989.765 L140.32 993.7 L126.246 993.7 L126.246 1002.17 Q127.265 1001.83 128.283 1001.66 Q129.302 1001.48 130.32 1001.48 Q136.107 1001.48 139.487 1004.65 Q142.867 1007.82 142.867 1013.24 Q142.867 1018.82 139.394 1021.92 Q135.922 1025 129.603 1025 Q127.427 1025 125.158 1024.63 Q122.913 1024.26 120.506 1023.51 L120.506 1018.82 Q122.589 1019.95 124.811 1020.51 Q127.033 1021.06 129.51 1021.06 Q133.515 1021.06 135.853 1018.95 Q138.191 1016.85 138.191 1013.24 Q138.191 1009.63 135.853 1007.52 Q133.515 1005.41 129.51 1005.41 Q127.635 1005.41 125.76 1005.83 Q123.908 1006.25 121.964 1007.13 L121.964 989.765 Z" fill="#000000" fill-rule="nonzero" fill-opacity="1" /><path clip-path="url(#clip170)" d="M91.5706 860.589 L99.2095 860.589 L99.2095 834.223 L90.8993 835.89 L90.8993 831.631 L99.1632 829.964 L103.839 829.964 L103.839 860.589 L111.478 860.589 L111.478 864.524 L91.5706 864.524 L91.5706 860.589 Z" fill="#000000" fill-rule="nonzero" fill-opacity="1" /><path clip-path="url(#clip170)" d="M130.922 833.043 Q127.311 833.043 125.482 836.608 Q123.677 840.149 123.677 847.279 Q123.677 854.385 125.482 857.95 Q127.311 861.492 130.922 861.492 Q134.556 861.492 136.362 857.95 Q138.191 854.385 138.191 847.279 Q138.191 840.149 136.362 836.608 Q134.556 833.043 130.922 833.043 M130.922 829.339 Q136.732 829.339 139.788 833.946 Q142.867 838.529 142.867 847.279 Q142.867 856.006 139.788 860.612 Q136.732 865.195 130.922 865.195 Q125.112 865.195 122.033 860.612 Q118.978 856.006 118.978 847.279 Q118.978 838.529 122.033 833.946 Q125.112 829.339 130.922 829.339 Z" fill="#000000" fill-rule="nonzero" fill-opacity="1" /><polyline clip-path="url(#clip173)" style="stroke:#009af9; stroke-linecap:round; stroke-linejoin:round; stroke-width:4; stroke-opacity:1; fill:none" points="240.392,1134.89 242.445,1183.9 244.498,1147.45 246.55,1180.97 248.603,1183.74 250.656,1186.43 252.709,1183.45 254.762,1193.75 256.815,1253.04 258.868,1072.33 260.921,1200.77 262.974,1216.44 265.027,1150.14 267.079,1053.23 269.132,1379.69 271.185,1114.69 273.238,1152.48 275.291,1200.85 277.344,1216.73 279.397,1251.95 281.45,1220.01 283.503,1158.3 285.555,1170.09 287.608,1160.41 289.661,1182.25 291.714,1140.27 293.767,1141.47 295.82,1156.33 297.873,1148.56 299.926,1197.86 301.979,1341.91 304.031,1102.55 306.084,1054.16 308.137,1095.76 310.19,908.935 312.243,1210.89 314.296,1277.65 316.349,1143.61 318.402,1191.89 320.455,1190.31 322.507,1156.2 324.56,1161.41 326.613,1190.25 328.666,1201.75 330.719,1237.88 332.772,1220.14 334.825,1135.16 336.878,993.691 338.931,1247.51 340.984,1031.56 343.036,747.235 345.089,519.55 347.142,935.111 349.195,1108.23 351.248,1225.88 353.301,1202.72 355.354,1341.15 357.407,1041.79 359.46,613.033 361.512,1367.29 363.565,1051.04 365.618,1753.11 367.671,1200.17 369.724,1170.74 371.777,1301.73 373.83,1159.88 375.883,1249.85 377.936,1243.32 379.988,1136.5 382.041,1141.88 384.094,1226.79 386.147,1121.66 388.2,1208.9 390.253,1208.75 392.306,656.747 394.359,1487.5 396.412,1404.22 398.464,1132.6 400.517,1182.45 402.57,845.944 404.623,1591.62 406.676,647.956 408.729,1376.1 410.782,1183.09 412.835,1238.9 414.888,1433.04 416.94,1360.8 418.993,1371.44 421.046,1163.09 423.099,1165.62 425.152,1145.96 427.205,1144.61 429.258,1131.67 431.311,1166.88 433.364,1161.08 435.417,1170.43 437.469,1163.76 439.522,1153.24 441.575,1019.34 443.628,1152.88 445.681,1148.7 447.734,1177.73 449.787,1191.42 451.84,1181.77 453.893,1136.47 455.945,1201.33 457.998,1197.41 460.051,1154.08 462.104,1171.09 464.157,1167.98 466.21,1161.75 468.263,1235.84 470.316,1160.15 472.369,1166.92 474.421,1169.3 476.474,1172.72 478.527,1178.02 480.58,1146.35 482.633,1222.47 484.686,1168.9 486.739,1167.44 488.792,1163.31 490.845,1183.66 492.897,1156.19 494.95,1153.59 497.003,1116.77 499.056,1167.48 501.109,1046.06 503.162,1273.35 505.215,977.549 507.268,1166.11 509.321,1122.23 511.374,1194.54 513.426,1151.96 515.479,1706.59 517.532,1269.17 519.585,1395.17 521.638,1238.29 523.691,1156.29 525.744,1216.25 527.797,1099.31 529.85,1165.56 531.902,1188.85 533.955,1236.98 536.008,1193.1 538.061,1123.73 540.114,1172.7 542.167,1195.29 544.22,1181.54 546.273,1133.39 548.326,1156.58 550.378,1121.19 552.431,1188.42 554.484,1111.1 556.537,1219.27 558.59,1171.82 560.643,1177.04 562.696,1163.54 564.749,1168.67 566.802,1164.24 568.854,1162.83 570.907,1152.23 572.96,1114.14 575.013,1053.35 577.066,1188.72 579.119,1024.75 581.172,1141.99 583.225,1153.43 585.278,1180.24 587.331,1205.29 589.383,1184.18 591.436,1180.42 593.489,1138.64 595.542,992.181 597.595,1359.81 599.648,1305.86 601.701,1031.48 603.754,1226.78 605.807,1196.53 607.859,1192.26 609.912,1251.4 611.965,1353.88 614.018,1193.69 616.071,1130.04 618.124,1165.92 620.177,1166.47 622.23,1168.71 624.283,1171.53 626.335,1174.29 628.388,1151.97 630.441,1230.65 632.494,1092.53 634.547,1251.46 636.6,112.26 638.653,3124.78 640.706,3927.69 642.759,1286.24 644.811,1432.2 646.864,1377.77 648.917,1125.19 650.97,359.769 653.023,1264.69 655.076,1121.46 657.129,1200.38 659.182,1208.92 661.235,1175.6 663.288,1129.52 665.34,1159.75 667.393,1129.64 669.446,1201.21 671.499,1131.62 673.552,1112.97 675.605,1001.99 677.658,1011.36 679.711,1295.73 681.764,1092.88 683.816,1086.58 685.869,1099.21 687.922,1104.62 689.975,1158.15 692.028,1141.06 694.081,1187.04 696.134,1218.33 698.187,1175.86 700.24,1154.88 702.292,1160.87 704.345,1204.07 706.398,1158.73 708.451,1363.96 710.504,1092.7 712.557,2340.88 714.61,1199.78 716.663,1110.24 718.716,1152.44 720.768,991.47 722.821,1207.24 724.874,1229.88 726.927,1182.45 728.98,1182.14 731.033,1157.51 733.086,1313.74 735.139,1013.29 737.192,1200.99 739.245,1219.44 741.297,1089.21 743.35,1288.43 745.403,1225.54 747.456,1131.8 749.509,1034.37 751.562,1156.87 753.615,1177.85 755.668,1134.16 757.721,1159.19 759.773,1139.18 761.826,1176.46 763.879,1181.76 765.932,1218.49 767.985,1270.14 770.038,1195.92 772.091,1136.88 774.144,1196.69 776.197,1175.35 778.249,1128.28 780.302,1123.03 782.355,1263.37 784.408,1038.14 786.461,1146.15 788.514,1064.99 790.567,639.305 792.62,834.936 794.673,1204.64 796.725,1159.24 798.778,1205.06 800.831,1163.95 802.884,1297.08 804.937,840.429 806.99,955.332 809.043,1322.58 811.096,1294.58 813.149,1223.72 815.202,1154.91 817.254,1193.27 819.307,1103.5 821.36,1092.59 823.413,999.307 825.466,1092.17 827.519,1012.61 829.572,1143.9 831.625,1180.36 833.678,1162.95 835.73,1169.68 837.783,1253.66 839.836,988.083 841.889,1057.81 843.942,1612.56 845.995,1146.55 848.048,1161.18 850.101,1176.47 852.154,1244.34 854.206,1144.78 856.259,1169.28 858.312,1119.75 860.365,1199.35 862.418,1181.83 864.471,1171.29 866.524,1134.32 868.577,1157.36 870.63,1186.04 872.682,918.443 874.735,1423.65 876.788,1055.25 878.841,1210.17 880.894,1162.23 882.947,1138.12 885,1168.33 887.053,1158.73 889.106,1132.28 891.159,1152.57 893.211,1178.73 895.264,1166.77 897.317,1160.66 899.37,1136.77 901.423,1200.55 903.476,1253.26 905.529,1151.44 907.582,985.92 909.635,1239.18 911.687,1408.28 913.74,1132.12 915.793,895.542 917.846,1145.23 919.899,1141.98 921.952,1136.19 924.005,1276.27 926.058,948.27 928.111,1438.28 930.163,969.586 932.216,1147.28 934.269,1181.45 936.322,1209.38 938.375,1163.97 940.428,1145.36 942.481,1222.98 944.534,1110.29 946.587,1081.42 948.639,1183.21 950.692,1205.34 952.745,1160.13 954.798,1163.25 956.851,1188.8 958.904,1127.58 960.957,1196.08 963.01,1137.45 965.063,1204.79 967.116,1185.19 969.168,1197.14 971.221,1169.74 973.274,1176.83 975.327,1128.65 977.38,1128.13 979.433,1130.33 981.486,1203.58 983.539,1145.77 985.592,1161.96 987.644,1160.35 989.697,1136.03 991.75,1239.57 993.803,1182.16 995.856,1228.23 997.909,1179.83 999.962,1130.17 1002.01,1127.52 1004.07,1195.11 1006.12,1150.16 1008.17,1200.22 1010.23,1117.2 1012.28,1106.84 1014.33,1130.13 1016.38,1138.74 1018.44,1176.98 1020.49,1075.32 1022.54,1164.52 1024.6,1109.29 1026.65,1019.47 1028.7,1394.82 1030.76,1140.59 1032.81,1800.53 1034.86,1888.47 1036.91,195.604 1038.97,1375.24 1041.02,992.776 1043.07,1182.42 1045.13,1153.53 1047.18,1214.81 1049.23,1208.27 1051.28,1151.03 1053.34,1213.3 1055.39,1176.76 1057.44,1155.93 1059.5,1171.29 1061.55,1169.14 1063.6,1162.23 1065.65,1170.1 1067.71,1160.33 1069.76,1137.79 1071.81,1189.29 1073.87,1177.27 1075.92,1151.67 1077.97,1110.15 1080.02,1116.86 1082.08,1230.5 1084.13,1148.92 1086.18,1187.49 1088.24,1145.24 1090.29,1202.92 1092.34,1143.03 1094.39,1093.09 1096.45,1174.8 1098.5,1176.89 1100.55,1185.38 1102.61,1173.53 1104.66,1180.83 1106.71,1167.6 1108.77,1169.27 1110.82,1173.64 1112.87,1173.03 1114.92,1149.82 1116.98,1205.26 1119.03,1129.78 1121.08,1326.36 1123.14,1186.63 1125.19,1030.11 1127.24,1447.41 1129.29,1183.52 1131.35,1158.12 1133.4,1159.01 1135.45,1112.95 1137.51,1146.94 1139.56,911.322 1141.61,937.266 1143.66,751.209 1145.72,779.377 1147.77,1461.41 1149.82,1751.54 1151.88,1978.25 1153.93,877.192 1155.98,1122.23 1158.03,1214.81 1160.09,1140.22 1162.14,1218.7 1164.19,1173.44 1166.25,1138.74 1168.3,1154.33 1170.35,1161.48 1172.4,1171.62 1174.46,1133.62 1176.51,1120.58 1178.56,1121.72 1180.62,1129.32 1182.67,1226.93 1184.72,1048.63 1186.77,1806.62 1188.83,1077.5 1190.88,1140.63 1192.93,1226.16 1194.99,1220.22 1197.04,1197.65 1199.09,1197.24 1201.15,1183.84 1203.2,1167 1205.25,1210.4 1207.3,1175.19 1209.36,1182.26 1211.41,1176.43 1213.46,1167.4 1215.52,1178.37 1217.57,1151.53 1219.62,1156.84 1221.67,1165.58 1223.73,1165.76 1225.78,1209.98 1227.83,1152.94 1229.89,1203.16 1231.94,1184.04 1233.99,1108.88 1236.04,1162.65 1238.1,1175.08 1240.15,1147.24 1242.2,1155.64 1244.26,1118.9 1246.31,1149.94 1248.36,1175.13 1250.41,1203.96 1252.47,1215.47 1254.52,1150.33 1256.57,1192.9 1258.63,1184.04 1260.68,1186.8 1262.73,1165.34 1264.78,1174.85 1266.84,1091.08 1268.89,1239.99 1270.94,1160.79 1273,1155.97 1275.05,1276.29 1277.1,1206.48 1279.16,1254.7 1281.21,1107.55 1283.26,1220.71 1285.31,1220.68 1287.37,1150.94 1289.42,1157 1291.47,1202.23 1293.53,1212.37 1295.58,1168.81 1297.63,1208.39 1299.68,1218.75 1301.74,1196.08 1303.79,1169.86 1305.84,1095.32 1307.9,1127.72 1309.95,1203.5 1312,1152.92 1314.05,1190.79 1316.11,1200.51 1318.16,1139.75 1320.21,1167.46 1322.27,1155.55 1324.32,995.866 1326.37,1271.78 1328.42,1233.97 1330.48,985.395 1332.53,1233.74 1334.58,1580.66 1336.64,1477.41 1338.69,1076.2 1340.74,1034.88 1342.79,1114.19 1344.85,1270.15 1346.9,1057.27 1348.95,1195.69 1351.01,1196.04 1353.06,1182.93 1355.11,1046.08 1357.16,1189.58 1359.22,1154.71 1361.27,1172.15 1363.32,1141.24 1365.38,1126.32 1367.43,1214.81 1369.48,1033.84 1371.54,818.92 1373.59,1474.44 1375.64,1155.9 1377.69,954.328 1379.75,941.974 1381.8,1636.73 1383.85,650.643 1385.91,1215.7 1387.96,1153.07 1390.01,1238.04 1392.06,1061.79 1394.12,1229.42 1396.17,1134.06 1398.22,1172.72 1400.28,1223.51 1402.33,1006.48 1404.38,1442.72 1406.43,1438.35 1408.49,893.404 1410.54,1216.44 1412.59,1212.36 1414.65,1159.49 1416.7,1140.84 1418.75,1285.58 1420.8,1136.34 1422.86,1122.79 1424.91,1144.56 1426.96,1147.26 1429.02,1172.17 1431.07,1196.79 1433.12,1143.05 1435.17,1155.97 1437.23,1160.34 1439.28,1144.88 1441.33,1135.57 1443.39,1155.15 1445.44,1180.69 1447.49,1159.55 1449.55,1164.39 1451.6,1168.61 1453.65,1120.55 1455.7,1211.22 1457.76,1165.7 1459.81,1164.42 1461.86,1169.82 1463.92,1180.33 1465.97,1123.57 1468.02,1112.17 1470.07,1049.76 1472.13,1134.2 1474.18,1120.8 1476.23,1281.41 1478.29,765.923 1480.34,524.609 1482.39,1457.44 1484.44,1035.58 1486.5,-2539.98 1488.55,3219.3 1490.6,-2100.62 1492.66,1100.63 1494.71,1169.27 1496.76,1020.05 1498.81,1046.7 1500.87,1309.11 1502.92,1103.39 1504.97,1081.04 1507.03,1206.96 1509.08,1258.21 1511.13,1155.84 1513.18,1174.42 1515.24,1156.17 1517.29,1173.52 1519.34,1173.56 1521.4,1152.06 1523.45,1284.58 1525.5,481.661 1527.55,1202.77 1529.61,1389.6 1531.66,717.514 1533.71,649.605 1535.77,1668.5 1537.82,1100.9 1539.87,1148.79 1541.93,1184.55 1543.98,1181.53 1546.03,1138.32 1548.08,1075.15 1550.14,1186.42 1552.19,1191.39 1554.24,1163.89 1556.3,1156.23 1558.35,1174.73 1560.4,1161.09 1562.45,1170.65 1564.51,1151.11 1566.56,1195.94 1568.61,1101.38 1570.67,1120.82 1572.72,1149.28 1574.77,1156.41 1576.82,1138.23 1578.88,1163.42 1580.93,1149.53 1582.98,1185.47 1585.04,1183.19 1587.09,1178.49 1589.14,1163.17 1591.19,1152.15 1593.25,1093.49 1595.3,1179.96 1597.35,1143.36 1599.41,1237.32 1601.46,1129.05 1603.51,1163.73 1605.56,1172.02 1607.62,1197.93 1609.67,1158.3 1611.72,1168.54 1613.78,1104.22 1615.83,1090.22 1617.88,1222.45 1619.94,1205.9 1621.99,1158.08 1624.04,1186.12 1626.09,1165.82 1628.15,1167.27 1630.2,1131.59 1632.25,1168.47 1634.31,1186.05 1636.36,1095.23 1638.41,1076.8 1640.46,771.307 1642.52,583.474 1644.57,1083.41 1646.62,1157.06 1648.68,1176.23 1650.73,1153.93 1652.78,1307.1 1654.83,1285.17 1656.89,1158.4 1658.94,858.223 1660.99,1397.27 1663.05,601.258 1665.1,1743.51 1667.15,580.047 1669.2,850.45 1671.26,1730.93 1673.31,1254.2 1675.36,1402.93 1677.42,1056.26 1679.47,1087.03 1681.52,1301.82 1683.57,1197.34 1685.63,1184.04 1687.68,1207.33 1689.73,1164.3 1691.79,1145.74 1693.84,1153.02 1695.89,1163.84 1697.94,1163.46 1700,1162.34 1702.05,1157.81 1704.1,1170.4 1706.16,1182.69 1708.21,1179.27 1710.26,1178.42 1712.32,1157.04 1714.37,1181.38 1716.42,1148.88 1718.47,1166.71 1720.53,1157.67 1722.58,1214.5 1724.63,1060.66 1726.69,1141.82 1728.74,1184.46 1730.79,1234.51 1732.84,1104.12 1734.9,1156.39 1736.95,1207.38 1739,1161.1 1741.06,1180.9 1743.11,1206.3 1745.16,1027.75 1747.21,1395.26 1749.27,1018.75 1751.32,1043.13 1753.37,1147.68 1755.43,1176.34 1757.48,1185.46 1759.53,1202.66 1761.58,1232.78 1763.64,1065.42 1765.69,1183.81 1767.74,1152.52 1769.8,1590.5 1771.85,1149.14 1773.9,1206.32 1775.95,1176.43 1778.01,1244.13 1780.06,1096.15 1782.11,1080.02 1784.17,1204.01 1786.22,1191.21 1788.27,1065.9 1790.33,1488.15 1792.38,1192.09 1794.43,1324.35 1796.48,1192.23 1798.54,1160.62 1800.59,1157.28 1802.64,1162.71 1804.7,1216.07 1806.75,1096.84 1808.8,1142.03 1810.85,1147.15 1812.91,1217.09 1814.96,1136.05 1817.01,1185.06 1819.07,1199.34 1821.12,1135.85 1823.17,1194 1825.22,1140.19 1827.28,1177.49 1829.33,1146.76 1831.38,1178.12 1833.44,1184.95 1835.49,1102.33 1837.54,1233.63 1839.59,1165.59 1841.65,1379.55 1843.7,1179.64 1845.75,1188.41 1847.81,1185.19 1849.86,1157.21 1851.91,1160.36 1853.96,1201.92 1856.02,1139.57 1858.07,1131.02 1860.12,1168.66 1862.18,1134.78 1864.23,1143.58 1866.28,1158.55 1868.34,1233.29 1870.39,1171.92 1872.44,1166.16 1874.49,1203.66 1876.55,1181.37 1878.6,1191.27 1880.65,1089.78 1882.71,1102.03 1884.76,1249.61 1886.81,1217.47 1888.86,1228.24 1890.92,652.119 1892.97,1712.66 1895.02,1054.68 1897.08,1052.98 1899.13,1220.45 1901.18,1183.05 1903.23,1150.63 1905.29,1170.98 1907.34,1164.6 1909.39,1108.52 1911.45,1153.59 1913.5,1192.19 1915.55,1220.07 1917.6,1183.46 1919.66,1228.16 1921.71,1171.68 1923.76,1109.07 1925.82,1152.21 1927.87,1204.41 1929.92,1109.2 1931.97,1298.6 1934.03,1226.76 1936.08,1208.19 1938.13,1145.06 1940.19,991.068 1942.24,1146.21 1944.29,1150.81 1946.34,1162.19 1948.4,1182.55 1950.45,1416.8 1952.5,647.183 1954.56,296.874 1956.61,1760.77 1958.66,1141.41 1960.72,988.382 1962.77,1159.28 1964.82,1166.43 1966.87,1164.36 1968.93,1167.57 1970.98,1165.78 1973.03,1156.07 1975.09,1043.13 1977.14,1215.32 1979.19,1165.86 1981.24,1175.59 1983.3,1173.45 1985.35,1174.8 1987.4,1137.41 1989.46,1184.4 1991.51,1145.63 1993.56,1191.1 1995.61,1162.51 1997.67,1175.32 1999.72,935.751 2001.77,1020.48 2003.83,1137.2 2005.88,1121.11 2007.93,1169.49 2009.98,1209.93 2012.04,1134.89 2014.09,1102.9 2016.14,948.975 2018.2,1321.52 2020.25,971.089 2022.3,1311.2 2024.35,1088.93 2026.41,1171.52 2028.46,1137.99 2030.51,1182.23 2032.57,1187.99 2034.62,1184.52 2036.67,1185.82 2038.73,1150.39 2040.78,1178.76 2042.83,1163.98 2044.88,1168.62 2046.94,1197.81 2048.99,1341.14 2051.04,1165.31 2053.1,1141.54 2055.15,1255.49 2057.2,1284.77 2059.25,1316.01 2061.31,1323.87 2063.36,1266.64 2065.41,1204.73 2067.47,1166.59 2069.52,1157.16 2071.57,1251 2073.62,738.284 2075.68,1062.4 2077.73,1700.46 2079.78,1470.12 2081.84,1705.18 2083.89,1530.98 2085.94,1529.11 2087.99,1002.82 2090.05,936.189 2092.1,1428.4 2094.15,1041.19 2096.21,-122.709 2098.26,892.289 2100.31,3519.44 2102.36,6629.41 2104.42,4458.36 2106.47,4420.11 2108.52,6132.08 2110.58,1680.27 2112.63,986.699 2114.68,1358.96 2116.73,666.823 2118.79,938.472 2120.84,1075.47 2122.89,925.1 2124.95,9628.73 2127,-1952.76 2129.05,2765.39 2131.11,2503.03 2133.16,2232.04 2135.21,3022.21 2137.26,1483.57 2139.32,2299.16 2141.37,551.652 2143.42,1119.35 2145.48,1235.99 2147.53,1170.72 2149.58,1077.9 2151.63,982.859 2153.69,1091.1 2155.74,1120.21 2157.79,1165.02 2159.85,1177.84 2161.9,1083.18 2163.95,1202.77 2166,1166.59 2168.06,1196.75 2170.11,1145.36 2172.16,1079.01 2174.22,1043.18 2176.27,1105.91 2178.32,1139.65 2180.37,1046.34 2182.43,1312.8 2184.48,1197.54 2186.53,1156.68 2188.59,1179.88 2190.64,1210.68 2192.69,1201.48 2194.74,1131.38 2196.8,1211.46 2198.85,1193.8 2200.9,1226.07 2202.96,965.117 2205.01,1272.49 2207.06,1335.01 2209.12,1006.06 2211.17,1016.95 2213.22,1105.71 2215.27,1353.91 2217.33,1053.47 2219.38,867.402 2221.43,1403.92 2223.49,468.589 2225.54,815.069 2227.59,1179.79 2229.64,1182.13 2231.7,1162.11 2233.75,1207.14 2235.8,1132.11 2237.86,1196.36 2239.91,1184.34 2241.96,1160.7 2244.01,1135.85 2246.07,980.033 2248.12,1587.34 2250.17,1395.29 2252.23,1044.81 2254.28,1325.63 2256.33,1192.71 2258.38,1182.62 2260.44,1162.3 2262.49,1193.69 2264.54,1189.45 2266.6,1184.57 2268.65,1164.4 2270.7,1146.24 2272.75,1186.55 2274.81,1173.5 2276.86,1215.29 2278.91,1099.9 2280.97,1067.03 2283.02,1519.6 2285.07,567.716 2287.12,1525.1 2289.18,657.467 2291.23,1842 "/>
<path clip-path="url(#clip170)" d="M251.33 972.231 L588.926 972.231 L588.926 868.551 L251.33 868.551  Z" fill="#ffffff" fill-rule="evenodd" fill-opacity="1"/>
<polyline clip-path="url(#clip170)" style="stroke:#000000; stroke-linecap:round; stroke-linejoin:round; stroke-width:4; stroke-opacity:1; fill:none" points="251.33,972.231 588.926,972.231 588.926,868.551 251.33,868.551 251.33,972.231 "/>
<polyline clip-path="url(#clip170)" style="stroke:#009af9; stroke-linecap:round; stroke-linejoin:round; stroke-width:4; stroke-opacity:1; fill:none" points="275.484,920.391 420.41,920.391 "/>
<path clip-path="url(#clip170)" d="M470.12 932.74 L470.12 923.458 L462.481 923.458 L462.481 919.615 L474.749 919.615 L474.749 934.453 Q472.041 936.375 468.777 937.37 Q465.513 938.342 461.809 938.342 Q453.708 938.342 449.124 933.62 Q444.564 928.875 444.564 920.426 Q444.564 911.953 449.124 907.231 Q453.708 902.486 461.809 902.486 Q465.189 902.486 468.221 903.319 Q471.277 904.153 473.846 905.773 L473.846 910.75 Q471.254 908.551 468.337 907.44 Q465.421 906.328 462.203 906.328 Q455.86 906.328 452.666 909.87 Q449.495 913.412 449.495 920.426 Q449.495 927.416 452.666 930.958 Q455.86 934.5 462.203 934.5 Q464.68 934.5 466.624 934.083 Q468.569 933.643 470.12 932.74 Z" fill="#000000" fill-rule="nonzero" fill-opacity="1" /><path clip-path="url(#clip170)" d="M487.967 906.953 L487.967 919.94 L493.846 919.94 Q497.11 919.94 498.893 918.25 Q500.675 916.56 500.675 913.435 Q500.675 910.333 498.893 908.643 Q497.11 906.953 493.846 906.953 L487.967 906.953 M483.291 903.111 L493.846 903.111 Q499.657 903.111 502.619 905.75 Q505.606 908.365 505.606 913.435 Q505.606 918.551 502.619 921.166 Q499.657 923.782 493.846 923.782 L487.967 923.782 L487.967 937.671 L483.291 937.671 L483.291 903.111 Z" fill="#000000" fill-rule="nonzero" fill-opacity="1" /><path clip-path="url(#clip170)" d="M532.596 904.245 L532.596 908.805 Q529.934 907.532 527.573 906.907 Q525.212 906.282 523.013 906.282 Q519.193 906.282 517.11 907.764 Q515.05 909.245 515.05 911.977 Q515.05 914.268 516.416 915.449 Q517.805 916.606 521.647 917.324 L524.471 917.902 Q529.703 918.898 532.179 921.421 Q534.679 923.921 534.679 928.134 Q534.679 933.157 531.3 935.75 Q527.943 938.342 521.439 938.342 Q518.985 938.342 516.207 937.787 Q513.453 937.231 510.49 936.143 L510.49 931.328 Q513.337 932.926 516.068 933.736 Q518.8 934.546 521.439 934.546 Q525.443 934.546 527.619 932.972 Q529.795 931.398 529.795 928.481 Q529.795 925.935 528.221 924.5 Q526.67 923.064 523.105 922.347 L520.258 921.791 Q515.027 920.75 512.689 918.527 Q510.351 916.305 510.351 912.347 Q510.351 907.764 513.568 905.125 Q516.809 902.486 522.48 902.486 Q524.911 902.486 527.434 902.926 Q529.957 903.366 532.596 904.245 Z" fill="#000000" fill-rule="nonzero" fill-opacity="1" /><path clip-path="url(#clip170)" d="M562.689 904.245 L562.689 908.805 Q560.027 907.532 557.665 906.907 Q555.304 906.282 553.105 906.282 Q549.286 906.282 547.203 907.764 Q545.142 909.245 545.142 911.977 Q545.142 914.268 546.508 915.449 Q547.897 916.606 551.74 917.324 L554.564 917.902 Q559.795 918.898 562.272 921.421 Q564.772 923.921 564.772 928.134 Q564.772 933.157 561.392 935.75 Q558.036 938.342 551.531 938.342 Q549.078 938.342 546.3 937.787 Q543.545 937.231 540.582 936.143 L540.582 931.328 Q543.429 932.926 546.161 933.736 Q548.892 934.546 551.531 934.546 Q555.536 934.546 557.712 932.972 Q559.888 931.398 559.888 928.481 Q559.888 925.935 558.314 924.5 Q556.763 923.064 553.198 922.347 L550.351 921.791 Q545.119 920.75 542.781 918.527 Q540.443 916.305 540.443 912.347 Q540.443 907.764 543.661 905.125 Q546.902 902.486 552.573 902.486 Q555.003 902.486 557.527 902.926 Q560.05 903.366 562.689 904.245 Z" fill="#000000" fill-rule="nonzero" fill-opacity="1" /></svg>
