<?xml version="1.0" encoding="utf-8"?>
<svg xmlns="http://www.w3.org/2000/svg" xmlns:xlink="http://www.w3.org/1999/xlink" width="600" height="400" viewBox="0 0 2400 1600">
<defs>
  <clipPath id="clip950">
    <rect x="0" y="0" width="2400" height="1600"/>
  </clipPath>
</defs>
<path clip-path="url(#clip950)" d="M0 1600 L2400 1600 L2400 0 L0 0  Z" fill="#ffffff" fill-rule="evenodd" fill-opacity="1"/>
<defs>
  <clipPath id="clip951">
    <rect x="480" y="0" width="1681" height="1600"/>
  </clipPath>
</defs>
<path clip-path="url(#clip950)" d="M178.867 686.448 L2352.76 686.448 L2352.76 47.2441 L178.867 47.2441  Z" fill="#ffffff" fill-rule="evenodd" fill-opacity="1"/>
<defs>
  <clipPath id="clip952">
    <rect x="178" y="47" width="2175" height="640"/>
  </clipPath>
</defs>
<polyline clip-path="url(#clip952)" style="stroke:#000000; stroke-linecap:round; stroke-linejoin:round; stroke-width:2; stroke-opacity:0.1; fill:none" points="238.339,686.448 238.339,47.2441 "/>
<polyline clip-path="url(#clip952)" style="stroke:#000000; stroke-linecap:round; stroke-linejoin:round; stroke-width:2; stroke-opacity:0.1; fill:none" points="751.562,686.448 751.562,47.2441 "/>
<polyline clip-path="url(#clip952)" style="stroke:#000000; stroke-linecap:round; stroke-linejoin:round; stroke-width:2; stroke-opacity:0.1; fill:none" points="1264.78,686.448 1264.78,47.2441 "/>
<polyline clip-path="url(#clip952)" style="stroke:#000000; stroke-linecap:round; stroke-linejoin:round; stroke-width:2; stroke-opacity:0.1; fill:none" points="1778.01,686.448 1778.01,47.2441 "/>
<polyline clip-path="url(#clip952)" style="stroke:#000000; stroke-linecap:round; stroke-linejoin:round; stroke-width:2; stroke-opacity:0.1; fill:none" points="2291.23,686.448 2291.23,47.2441 "/>
<polyline clip-path="url(#clip952)" style="stroke:#000000; stroke-linecap:round; stroke-linejoin:round; stroke-width:2; stroke-opacity:0.1; fill:none" points="178.867,686.448 2352.76,686.448 "/>
<polyline clip-path="url(#clip952)" style="stroke:#000000; stroke-linecap:round; stroke-linejoin:round; stroke-width:2; stroke-opacity:0.1; fill:none" points="178.867,526.647 2352.76,526.647 "/>
<polyline clip-path="url(#clip952)" style="stroke:#000000; stroke-linecap:round; stroke-linejoin:round; stroke-width:2; stroke-opacity:0.1; fill:none" points="178.867,366.846 2352.76,366.846 "/>
<polyline clip-path="url(#clip952)" style="stroke:#000000; stroke-linecap:round; stroke-linejoin:round; stroke-width:2; stroke-opacity:0.1; fill:none" points="178.867,207.045 2352.76,207.045 "/>
<polyline clip-path="url(#clip952)" style="stroke:#000000; stroke-linecap:round; stroke-linejoin:round; stroke-width:2; stroke-opacity:0.1; fill:none" points="178.867,47.2441 2352.76,47.2441 "/>
<polyline clip-path="url(#clip950)" style="stroke:#000000; stroke-linecap:round; stroke-linejoin:round; stroke-width:4; stroke-opacity:1; fill:none" points="178.867,686.448 2352.76,686.448 "/>
<polyline clip-path="url(#clip950)" style="stroke:#000000; stroke-linecap:round; stroke-linejoin:round; stroke-width:4; stroke-opacity:1; fill:none" points="238.339,686.448 238.339,667.55 "/>
<polyline clip-path="url(#clip950)" style="stroke:#000000; stroke-linecap:round; stroke-linejoin:round; stroke-width:4; stroke-opacity:1; fill:none" points="751.562,686.448 751.562,667.55 "/>
<polyline clip-path="url(#clip950)" style="stroke:#000000; stroke-linecap:round; stroke-linejoin:round; stroke-width:4; stroke-opacity:1; fill:none" points="1264.78,686.448 1264.78,667.55 "/>
<polyline clip-path="url(#clip950)" style="stroke:#000000; stroke-linecap:round; stroke-linejoin:round; stroke-width:4; stroke-opacity:1; fill:none" points="1778.01,686.448 1778.01,667.55 "/>
<polyline clip-path="url(#clip950)" style="stroke:#000000; stroke-linecap:round; stroke-linejoin:round; stroke-width:4; stroke-opacity:1; fill:none" points="2291.23,686.448 2291.23,667.55 "/>
<path clip-path="url(#clip950)" d="M238.339 717.367 Q234.728 717.367 232.899 720.931 Q231.094 724.473 231.094 731.603 Q231.094 738.709 232.899 742.274 Q234.728 745.815 238.339 745.815 Q241.973 745.815 243.779 742.274 Q245.607 738.709 245.607 731.603 Q245.607 724.473 243.779 720.931 Q241.973 717.367 238.339 717.367 M238.339 713.663 Q244.149 713.663 247.205 718.269 Q250.283 722.853 250.283 731.603 Q250.283 740.329 247.205 744.936 Q244.149 749.519 238.339 749.519 Q232.529 749.519 229.45 744.936 Q226.395 740.329 226.395 731.603 Q226.395 722.853 229.45 718.269 Q232.529 713.663 238.339 713.663 Z" fill="#000000" fill-rule="nonzero" fill-opacity="1" /><path clip-path="url(#clip950)" d="M715.254 744.913 L731.574 744.913 L731.574 748.848 L709.629 748.848 L709.629 744.913 Q712.291 742.158 716.875 737.528 Q721.481 732.876 722.662 731.533 Q724.907 729.01 725.787 727.274 Q726.689 725.515 726.689 723.825 Q726.689 721.07 724.745 719.334 Q722.824 717.598 719.722 717.598 Q717.523 717.598 715.069 718.362 Q712.638 719.126 709.861 720.677 L709.861 715.955 Q712.685 714.82 715.138 714.242 Q717.592 713.663 719.629 713.663 Q725 713.663 728.194 716.348 Q731.388 719.033 731.388 723.524 Q731.388 725.654 730.578 727.575 Q729.791 729.473 727.685 732.066 Q727.106 732.737 724.004 735.954 Q720.902 739.149 715.254 744.913 Z" fill="#000000" fill-rule="nonzero" fill-opacity="1" /><path clip-path="url(#clip950)" d="M741.435 714.288 L759.791 714.288 L759.791 718.223 L745.717 718.223 L745.717 726.695 Q746.736 726.348 747.754 726.186 Q748.773 726.001 749.791 726.001 Q755.578 726.001 758.958 729.172 Q762.337 732.343 762.337 737.76 Q762.337 743.339 758.865 746.44 Q755.393 749.519 749.073 749.519 Q746.898 749.519 744.629 749.149 Q742.384 748.778 739.976 748.038 L739.976 743.339 Q742.06 744.473 744.282 745.028 Q746.504 745.584 748.981 745.584 Q752.985 745.584 755.323 743.478 Q757.661 741.371 757.661 737.76 Q757.661 734.149 755.323 732.042 Q752.985 729.936 748.981 729.936 Q747.106 729.936 745.231 730.353 Q743.379 730.769 741.435 731.649 L741.435 714.288 Z" fill="#000000" fill-rule="nonzero" fill-opacity="1" /><path clip-path="url(#clip950)" d="M781.55 717.367 Q777.939 717.367 776.11 720.931 Q774.305 724.473 774.305 731.603 Q774.305 738.709 776.11 742.274 Q777.939 745.815 781.55 745.815 Q785.184 745.815 786.99 742.274 Q788.819 738.709 788.819 731.603 Q788.819 724.473 786.99 720.931 Q785.184 717.367 781.55 717.367 M781.55 713.663 Q787.36 713.663 790.416 718.269 Q793.495 722.853 793.495 731.603 Q793.495 740.329 790.416 744.936 Q787.36 749.519 781.55 749.519 Q775.74 749.519 772.661 744.936 Q769.606 740.329 769.606 731.603 Q769.606 722.853 772.661 718.269 Q775.74 713.663 781.55 713.663 Z" fill="#000000" fill-rule="nonzero" fill-opacity="1" /><path clip-path="url(#clip950)" d="M1224.4 714.288 L1242.76 714.288 L1242.76 718.223 L1228.69 718.223 L1228.69 726.695 Q1229.7 726.348 1230.72 726.186 Q1231.74 726.001 1232.76 726.001 Q1238.55 726.001 1241.93 729.172 Q1245.31 732.343 1245.31 737.76 Q1245.31 743.339 1241.83 746.44 Q1238.36 749.519 1232.04 749.519 Q1229.87 749.519 1227.6 749.149 Q1225.35 748.778 1222.94 748.038 L1222.94 743.339 Q1225.03 744.473 1227.25 745.028 Q1229.47 745.584 1231.95 745.584 Q1235.95 745.584 1238.29 743.478 Q1240.63 741.371 1240.63 737.76 Q1240.63 734.149 1238.29 732.042 Q1235.95 729.936 1231.95 729.936 Q1230.07 729.936 1228.2 730.353 Q1226.35 730.769 1224.4 731.649 L1224.4 714.288 Z" fill="#000000" fill-rule="nonzero" fill-opacity="1" /><path clip-path="url(#clip950)" d="M1264.52 717.367 Q1260.91 717.367 1259.08 720.931 Q1257.27 724.473 1257.27 731.603 Q1257.27 738.709 1259.08 742.274 Q1260.91 745.815 1264.52 745.815 Q1268.15 745.815 1269.96 742.274 Q1271.79 738.709 1271.79 731.603 Q1271.79 724.473 1269.96 720.931 Q1268.15 717.367 1264.52 717.367 M1264.52 713.663 Q1270.33 713.663 1273.38 718.269 Q1276.46 722.853 1276.46 731.603 Q1276.46 740.329 1273.38 744.936 Q1270.33 749.519 1264.52 749.519 Q1258.71 749.519 1255.63 744.936 Q1252.57 740.329 1252.57 731.603 Q1252.57 722.853 1255.63 718.269 Q1258.71 713.663 1264.52 713.663 Z" fill="#000000" fill-rule="nonzero" fill-opacity="1" /><path clip-path="url(#clip950)" d="M1294.68 717.367 Q1291.07 717.367 1289.24 720.931 Q1287.44 724.473 1287.44 731.603 Q1287.44 738.709 1289.24 742.274 Q1291.07 745.815 1294.68 745.815 Q1298.31 745.815 1300.12 742.274 Q1301.95 738.709 1301.95 731.603 Q1301.95 724.473 1300.12 720.931 Q1298.31 717.367 1294.68 717.367 M1294.68 713.663 Q1300.49 713.663 1303.55 718.269 Q1306.62 722.853 1306.62 731.603 Q1306.62 740.329 1303.55 744.936 Q1300.49 749.519 1294.68 749.519 Q1288.87 749.519 1285.79 744.936 Q1282.74 740.329 1282.74 731.603 Q1282.74 722.853 1285.79 718.269 Q1288.87 713.663 1294.68 713.663 Z" fill="#000000" fill-rule="nonzero" fill-opacity="1" /><path clip-path="url(#clip950)" d="M1736.28 714.288 L1758.51 714.288 L1758.51 716.279 L1745.96 748.848 L1741.08 748.848 L1752.88 718.223 L1736.28 718.223 L1736.28 714.288 Z" fill="#000000" fill-rule="nonzero" fill-opacity="1" /><path clip-path="url(#clip950)" d="M1767.67 714.288 L1786.03 714.288 L1786.03 718.223 L1771.95 718.223 L1771.95 726.695 Q1772.97 726.348 1773.99 726.186 Q1775.01 726.001 1776.03 726.001 Q1781.82 726.001 1785.2 729.172 Q1788.57 732.343 1788.57 737.76 Q1788.57 743.339 1785.1 746.44 Q1781.63 749.519 1775.31 749.519 Q1773.14 749.519 1770.87 749.149 Q1768.62 748.778 1766.21 748.038 L1766.21 743.339 Q1768.3 744.473 1770.52 745.028 Q1772.74 745.584 1775.22 745.584 Q1779.22 745.584 1781.56 743.478 Q1783.9 741.371 1783.9 737.76 Q1783.9 734.149 1781.56 732.042 Q1779.22 729.936 1775.22 729.936 Q1773.34 729.936 1771.47 730.353 Q1769.62 730.769 1767.67 731.649 L1767.67 714.288 Z" fill="#000000" fill-rule="nonzero" fill-opacity="1" /><path clip-path="url(#clip950)" d="M1807.79 717.367 Q1804.18 717.367 1802.35 720.931 Q1800.54 724.473 1800.54 731.603 Q1800.54 738.709 1802.35 742.274 Q1804.18 745.815 1807.79 745.815 Q1811.42 745.815 1813.23 742.274 Q1815.06 738.709 1815.06 731.603 Q1815.06 724.473 1813.23 720.931 Q1811.42 717.367 1807.79 717.367 M1807.79 713.663 Q1813.6 713.663 1816.65 718.269 Q1819.73 722.853 1819.73 731.603 Q1819.73 740.329 1816.65 744.936 Q1813.6 749.519 1807.79 749.519 Q1801.98 749.519 1798.9 744.936 Q1795.84 740.329 1795.84 731.603 Q1795.84 722.853 1798.9 718.269 Q1801.98 713.663 1807.79 713.663 Z" fill="#000000" fill-rule="nonzero" fill-opacity="1" /><path clip-path="url(#clip950)" d="M2235.76 744.913 L2243.4 744.913 L2243.4 718.547 L2235.09 720.214 L2235.09 715.955 L2243.35 714.288 L2248.02 714.288 L2248.02 744.913 L2255.66 744.913 L2255.66 748.848 L2235.76 748.848 L2235.76 744.913 Z" fill="#000000" fill-rule="nonzero" fill-opacity="1" /><path clip-path="url(#clip950)" d="M2275.11 717.367 Q2271.5 717.367 2269.67 720.931 Q2267.86 724.473 2267.86 731.603 Q2267.86 738.709 2269.67 742.274 Q2271.5 745.815 2275.11 745.815 Q2278.74 745.815 2280.55 742.274 Q2282.38 738.709 2282.38 731.603 Q2282.38 724.473 2280.55 720.931 Q2278.74 717.367 2275.11 717.367 M2275.11 713.663 Q2280.92 713.663 2283.97 718.269 Q2287.05 722.853 2287.05 731.603 Q2287.05 740.329 2283.97 744.936 Q2280.92 749.519 2275.11 749.519 Q2269.3 749.519 2266.22 744.936 Q2263.16 740.329 2263.16 731.603 Q2263.16 722.853 2266.22 718.269 Q2269.3 713.663 2275.11 713.663 Z" fill="#000000" fill-rule="nonzero" fill-opacity="1" /><path clip-path="url(#clip950)" d="M2305.27 717.367 Q2301.66 717.367 2299.83 720.931 Q2298.02 724.473 2298.02 731.603 Q2298.02 738.709 2299.83 742.274 Q2301.66 745.815 2305.27 745.815 Q2308.9 745.815 2310.71 742.274 Q2312.54 738.709 2312.54 731.603 Q2312.54 724.473 2310.71 720.931 Q2308.9 717.367 2305.27 717.367 M2305.27 713.663 Q2311.08 713.663 2314.14 718.269 Q2317.21 722.853 2317.21 731.603 Q2317.21 740.329 2314.14 744.936 Q2311.08 749.519 2305.27 749.519 Q2299.46 749.519 2296.38 744.936 Q2293.33 740.329 2293.33 731.603 Q2293.33 722.853 2296.38 718.269 Q2299.46 713.663 2305.27 713.663 Z" fill="#000000" fill-rule="nonzero" fill-opacity="1" /><path clip-path="url(#clip950)" d="M2335.43 717.367 Q2331.82 717.367 2329.99 720.931 Q2328.19 724.473 2328.19 731.603 Q2328.19 738.709 2329.99 742.274 Q2331.82 745.815 2335.43 745.815 Q2339.07 745.815 2340.87 742.274 Q2342.7 738.709 2342.7 731.603 Q2342.7 724.473 2340.87 720.931 Q2339.07 717.367 2335.43 717.367 M2335.43 713.663 Q2341.24 713.663 2344.3 718.269 Q2347.38 722.853 2347.38 731.603 Q2347.38 740.329 2344.3 744.936 Q2341.24 749.519 2335.43 749.519 Q2329.62 749.519 2326.54 744.936 Q2323.49 740.329 2323.49 731.603 Q2323.49 722.853 2326.54 718.269 Q2329.62 713.663 2335.43 713.663 Z" fill="#000000" fill-rule="nonzero" fill-opacity="1" /><polyline clip-path="url(#clip950)" style="stroke:#000000; stroke-linecap:round; stroke-linejoin:round; stroke-width:4; stroke-opacity:1; fill:none" points="178.867,686.448 178.867,47.2441 "/>
<polyline clip-path="url(#clip950)" style="stroke:#000000; stroke-linecap:round; stroke-linejoin:round; stroke-width:4; stroke-opacity:1; fill:none" points="178.867,686.448 197.764,686.448 "/>
<polyline clip-path="url(#clip950)" style="stroke:#000000; stroke-linecap:round; stroke-linejoin:round; stroke-width:4; stroke-opacity:1; fill:none" points="178.867,526.647 197.764,526.647 "/>
<polyline clip-path="url(#clip950)" style="stroke:#000000; stroke-linecap:round; stroke-linejoin:round; stroke-width:4; stroke-opacity:1; fill:none" points="178.867,366.846 197.764,366.846 "/>
<polyline clip-path="url(#clip950)" style="stroke:#000000; stroke-linecap:round; stroke-linejoin:round; stroke-width:4; stroke-opacity:1; fill:none" points="178.867,207.045 197.764,207.045 "/>
<polyline clip-path="url(#clip950)" style="stroke:#000000; stroke-linecap:round; stroke-linejoin:round; stroke-width:4; stroke-opacity:1; fill:none" points="178.867,47.2441 197.764,47.2441 "/>
<path clip-path="url(#clip950)" d="M50.9921 686.899 L80.6679 686.899 L80.6679 690.834 L50.9921 690.834 L50.9921 686.899 Z" fill="#000000" fill-rule="nonzero" fill-opacity="1" /><path clip-path="url(#clip950)" d="M91.5706 699.793 L99.2095 699.793 L99.2095 673.427 L90.8993 675.094 L90.8993 670.835 L99.1632 669.168 L103.839 669.168 L103.839 699.793 L111.478 699.793 L111.478 703.728 L91.5706 703.728 L91.5706 699.793 Z" fill="#000000" fill-rule="nonzero" fill-opacity="1" /><path clip-path="url(#clip950)" d="M130.922 672.247 Q127.311 672.247 125.482 675.811 Q123.677 679.353 123.677 686.483 Q123.677 693.589 125.482 697.154 Q127.311 700.695 130.922 700.695 Q134.556 700.695 136.362 697.154 Q138.191 693.589 138.191 686.483 Q138.191 679.353 136.362 675.811 Q134.556 672.247 130.922 672.247 M130.922 668.543 Q136.732 668.543 139.788 673.149 Q142.867 677.733 142.867 686.483 Q142.867 695.209 139.788 699.816 Q136.732 704.399 130.922 704.399 Q125.112 704.399 122.033 699.816 Q118.978 695.209 118.978 686.483 Q118.978 677.733 122.033 673.149 Q125.112 668.543 130.922 668.543 Z" fill="#000000" fill-rule="nonzero" fill-opacity="1" /><path clip-path="url(#clip950)" d="M82.1494 527.098 L111.825 527.098 L111.825 531.033 L82.1494 531.033 L82.1494 527.098 Z" fill="#000000" fill-rule="nonzero" fill-opacity="1" /><path clip-path="url(#clip950)" d="M121.964 509.367 L140.32 509.367 L140.32 513.302 L126.246 513.302 L126.246 521.774 Q127.265 521.427 128.283 521.265 Q129.302 521.08 130.32 521.08 Q136.107 521.08 139.487 524.251 Q142.867 527.422 142.867 532.839 Q142.867 538.418 139.394 541.52 Q135.922 544.598 129.603 544.598 Q127.427 544.598 125.158 544.228 Q122.913 543.857 120.506 543.117 L120.506 538.418 Q122.589 539.552 124.811 540.108 Q127.033 540.663 129.51 540.663 Q133.515 540.663 135.853 538.557 Q138.191 536.45 138.191 532.839 Q138.191 529.228 135.853 527.121 Q133.515 525.015 129.51 525.015 Q127.635 525.015 125.76 525.432 Q123.908 525.848 121.964 526.728 L121.964 509.367 Z" fill="#000000" fill-rule="nonzero" fill-opacity="1" /><path clip-path="url(#clip950)" d="M130.922 352.645 Q127.311 352.645 125.482 356.209 Q123.677 359.751 123.677 366.881 Q123.677 373.987 125.482 377.552 Q127.311 381.094 130.922 381.094 Q134.556 381.094 136.362 377.552 Q138.191 373.987 138.191 366.881 Q138.191 359.751 136.362 356.209 Q134.556 352.645 130.922 352.645 M130.922 348.941 Q136.732 348.941 139.788 353.547 Q142.867 358.131 142.867 366.881 Q142.867 375.608 139.788 380.214 Q136.732 384.797 130.922 384.797 Q125.112 384.797 122.033 380.214 Q118.978 375.608 118.978 366.881 Q118.978 358.131 122.033 353.547 Q125.112 348.941 130.922 348.941 Z" fill="#000000" fill-rule="nonzero" fill-opacity="1" /><path clip-path="url(#clip950)" d="M121.964 189.765 L140.32 189.765 L140.32 193.7 L126.246 193.7 L126.246 202.172 Q127.265 201.825 128.283 201.663 Q129.302 201.478 130.32 201.478 Q136.107 201.478 139.487 204.649 Q142.867 207.82 142.867 213.237 Q142.867 218.816 139.394 221.918 Q135.922 224.996 129.603 224.996 Q127.427 224.996 125.158 224.626 Q122.913 224.256 120.506 223.515 L120.506 218.816 Q122.589 219.95 124.811 220.506 Q127.033 221.061 129.51 221.061 Q133.515 221.061 135.853 218.955 Q138.191 216.848 138.191 213.237 Q138.191 209.626 135.853 207.52 Q133.515 205.413 129.51 205.413 Q127.635 205.413 125.76 205.83 Q123.908 206.246 121.964 207.126 L121.964 189.765 Z" fill="#000000" fill-rule="nonzero" fill-opacity="1" /><path clip-path="url(#clip950)" d="M91.5706 60.5889 L99.2095 60.5889 L99.2095 34.2233 L90.8993 35.89 L90.8993 31.6308 L99.1632 29.9641 L103.839 29.9641 L103.839 60.5889 L111.478 60.5889 L111.478 64.5241 L91.5706 64.5241 L91.5706 60.5889 Z" fill="#000000" fill-rule="nonzero" fill-opacity="1" /><path clip-path="url(#clip950)" d="M130.922 33.0428 Q127.311 33.0428 125.482 36.6076 Q123.677 40.1492 123.677 47.2788 Q123.677 54.3853 125.482 57.9501 Q127.311 61.4917 130.922 61.4917 Q134.556 61.4917 136.362 57.9501 Q138.191 54.3853 138.191 47.2788 Q138.191 40.1492 136.362 36.6076 Q134.556 33.0428 130.922 33.0428 M130.922 29.3391 Q136.732 29.3391 139.788 33.9456 Q142.867 38.5289 142.867 47.2788 Q142.867 56.0056 139.788 60.6121 Q136.732 65.1954 130.922 65.1954 Q125.112 65.1954 122.033 60.6121 Q118.978 56.0056 118.978 47.2788 Q118.978 38.5289 122.033 33.9456 Q125.112 29.3391 130.922 29.3391 Z" fill="#000000" fill-rule="nonzero" fill-opacity="1" /><polyline clip-path="url(#clip952)" style="stroke:#009af9; stroke-linecap:round; stroke-linejoin:round; stroke-width:4; stroke-opacity:1; fill:none" points="240.392,334.886 242.445,335.331 244.498,346.691 246.55,358.878 248.603,361.035 250.656,358.79 252.709,358.796 254.762,360.377 256.815,359.874 258.868,398.293 260.921,397.691 262.974,397.727 265.027,396.854 267.079,397.236 269.132,394.714 271.185,394.746 273.238,393.973 275.291,393.965 277.344,393.964 279.397,375.672 281.45,380.011 283.503,373.023 285.555,373.067 287.608,373.322 289.661,373.782 291.714,373.928 293.767,365.876 295.82,364.956 297.873,360.035 299.926,415.358 301.979,397.954 304.031,366.609 306.084,371.945 308.137,371.299 310.19,374.333 312.243,374.396 314.296,373.45 316.349,374.72 318.402,364.997 320.455,420.015 322.507,347.601 324.56,407.434 326.613,401.822 328.666,402.093 330.719,400.607 332.772,409.937 334.825,410.008 336.878,399.943 338.931,327.864 340.984,329.271 343.036,306.63 345.089,327.164 347.142,327.774 349.195,327.871 351.248,312.256 353.301,312.256 355.354,335.094 357.407,394.353 359.46,381.688 361.512,381.695 363.565,385.204 365.618,296.794 367.671,293.765 369.724,294.348 371.777,317.289 373.83,316.712 375.883,318.204 377.936,318.578 379.988,318.731 382.041,324.901 384.094,352.021 386.147,371.269 388.2,365.547 390.253,365.681 392.306,331.2 394.359,332.611 396.412,331.743 398.464,332.26 400.517,334.015 402.57,324.752 404.623,433.577 406.676,398.141 408.729,398.635 410.782,398.695 412.835,518.834 414.888,518.324 416.94,518.523 418.993,482.895 421.046,474.347 423.099,406.553 425.152,405.161 427.205,397.284 429.258,381.473 431.311,365.755 433.364,366.044 435.417,319.005 437.469,330.11 439.522,328.348 441.575,304.602 443.628,306.828 445.681,311.236 447.734,309.944 449.787,309.319 451.84,312.047 453.893,314.593 455.945,313.792 457.998,336.292 460.051,385.408 462.104,360.474 464.157,358.989 466.21,341.531 468.263,338.543 470.316,340.583 472.369,349.411 474.421,330.913 476.474,330.62 478.527,333.412 480.58,289.83 482.633,296.873 484.686,394.594 486.739,356.584 488.792,379.757 490.845,397.996 492.897,394.682 494.95,403.411 497.003,404.388 499.056,377.42 501.109,376.451 503.162,376.317 505.215,376.335 507.268,418.214 509.321,387.947 511.374,395.501 513.426,396.057 515.479,393.71 517.532,393.906 519.585,364.535 521.638,368.747 523.691,368.744 525.744,400.729 527.797,416.785 529.85,417.668 531.902,424.958 533.955,423.784 536.008,390.334 538.061,388.906 540.114,388.951 542.167,343.705 544.22,345.859 546.273,343.129 548.326,353.85 550.378,353.846 552.431,350.831 554.484,342.259 556.537,330.466 558.59,317.026 560.643,345.21 562.696,343.271 564.749,345.489 566.802,304.33 568.854,303.898 570.907,303.899 572.96,309.501 575.013,315.9 577.066,314.925 579.119,304.712 581.172,304.307 583.225,306.839 585.278,304.386 587.331,303.579 589.383,299.548 591.436,299.982 593.489,304.34 595.542,349.709 597.595,339.719 599.648,357.974 601.701,361.047 603.754,361.279 605.807,351.481 607.859,354.152 609.912,356.598 611.965,340.596 614.018,332.355 616.071,331.071 618.124,328.951 620.177,362.941 622.23,358.936 624.283,358.85 626.335,352.295 628.388,351.14 630.441,347.193 632.494,343.172 634.547,365.693 636.6,368.096 638.653,368.058 640.706,367.899 642.759,368.756 644.811,365.14 646.864,367.851 648.917,364.315 650.97,356.915 653.023,356.128 655.076,344.509 657.129,356.649 659.182,366.785 661.235,365.369 663.288,361.379 665.34,357.538 667.393,357.581 669.446,360.273 671.499,373.794 673.552,374.737 675.605,374.697 677.658,377.949 679.711,383.29 681.764,398.389 683.816,395.683 685.869,395.683 687.922,392.765 689.975,391.957 692.028,388.997 694.081,386.806 696.134,386.372 698.187,389.478 700.24,388.718 702.292,387.928 704.345,387.813 706.398,377.788 708.451,371.691 710.504,382.068 712.557,381.692 714.61,371.664 716.663,393.671 718.716,394.301 720.768,387.578 722.821,386.173 724.874,387.548 726.927,374.347 728.98,374.825 731.033,375.952 733.086,375.942 735.139,375.954 737.192,376.301 739.245,355.191 741.297,354.021 743.35,360.2 745.403,360.192 747.456,360.804 749.509,355.386 751.562,355.913 753.615,352.799 755.668,349.641 757.721,346.427 759.773,347.32 761.826,358.737 763.879,379.195 765.932,379.577 767.985,377.645 770.038,376.556 772.091,376.558 774.144,376.691 776.197,385.127 778.249,384.3 780.302,384.435 782.355,383.76 784.408,382.576 786.461,382.103 788.514,387.766 790.567,385.299 792.62,353.961 794.673,353.568 796.725,353.614 798.778,353.254 800.831,353.467 802.884,349.705 804.937,346.844 806.99,348.686 809.043,348.634 811.096,350.825 813.149,351.23 815.202,367.312 817.254,367.1 819.307,371.453 821.36,384.938 823.413,370.387 825.466,370.298 827.519,369.032 829.572,368.018 831.625,368.117 833.678,371.48 835.73,351.337 837.783,351.63 839.836,352.015 841.889,351.821 843.942,351.26 845.995,351.382 848.048,351.183 850.101,350.899 852.154,349.909 854.206,352.394 856.259,338.293 858.312,338.36 860.365,331.501 862.418,330.061 864.471,330.805 866.524,331.081 868.577,330.082 870.63,328.301 872.682,328.082 874.735,363.921 876.788,363.853 878.841,363.886 880.894,363.821 882.947,364.62 885,365.247 887.053,365.393 889.106,361.004 891.159,360.507 893.211,359.736 895.264,359.672 897.317,357.015 899.37,361.941 901.423,361.889 903.476,361.458 905.529,360.909 907.582,365.241 909.635,362.583 911.687,360.447 913.74,360.474 915.793,360.458 917.846,358.796 919.899,365.353 921.952,367.14 924.005,368.139 926.058,371.407 928.111,369.619 930.163,367.228 932.216,367.303 934.269,367.467 936.322,367.467 938.375,366.979 940.428,367.125 942.481,367.224 944.534,366.553 946.587,365.348 948.639,372.528 950.692,372.733 952.745,373.294 954.798,372.986 956.851,369.422 958.904,363.497 960.957,363.548 963.01,364.053 965.063,364.049 967.116,364.718 969.168,364.713 971.221,364.72 973.274,365.094 975.327,364.951 977.38,368.932 979.433,369.215 981.486,369.525 983.539,369.529 985.592,369.444 987.644,362.214 989.697,359.9 991.75,360.76 993.803,358.72 995.856,359.089 997.909,358.976 999.962,360.681 1002.01,361.014 1004.07,360.968 1006.12,363.25 1008.17,361.714 1010.23,363.137 1012.28,362.947 1014.33,361.139 1016.38,360.065 1018.44,360.704 1020.49,363.065 1022.54,363.245 1024.6,364.456 1026.65,377.211 1028.7,358.321 1030.76,360.522 1032.81,360.494 1034.86,360.013 1036.91,362.824 1038.97,353.028 1041.02,356.112 1043.07,359.092 1045.13,365.832 1047.18,365.044 1049.23,356.098 1051.28,362.203 1053.34,361.993 1055.39,361.995 1057.44,363.392 1059.5,362.486 1061.55,385.903 1063.6,385.062 1065.65,376.719 1067.71,379.184 1069.76,378.015 1071.81,375.328 1073.87,369.891 1075.92,395.529 1077.97,395.176 1080.02,389.462 1082.08,399.4 1084.13,399.371 1086.18,396.873 1088.24,396.835 1090.29,395.072 1092.34,395.307 1094.39,395.755 1096.45,395.732 1098.5,396.055 1100.55,390.494 1102.61,390.424 1104.66,389.524 1106.71,378.949 1108.77,369.613 1110.82,369.631 1112.87,368.269 1114.92,369.763 1116.98,369.631 1119.03,374.96 1121.08,373.194 1123.14,364.584 1125.19,368.411 1127.24,367.112 1129.29,366.538 1131.35,379.696 1133.4,379.23 1135.45,378.802 1137.51,380.09 1139.56,356.221 1141.61,353.27 1143.66,353.317 1145.72,361.098 1147.77,369.974 1149.82,370.565 1151.88,373.057 1153.93,373.619 1155.98,359.355 1158.03,359.424 1160.09,369.865 1162.14,367.896 1164.19,368.614 1166.25,362.329 1168.3,394.445 1170.35,391.878 1172.4,392.54 1174.46,392.922 1176.51,373.983 1178.56,448.235 1180.62,422.436 1182.67,423.493 1184.72,423.615 1186.77,423.542 1188.83,418.226 1190.88,403.01 1192.93,369.657 1194.99,369.868 1197.04,369.07 1199.09,372.581 1201.15,372.573 1203.2,369.079 1205.25,367.945 1207.3,374.884 1209.36,394 1211.41,402.606 1213.46,400.787 1215.52,396.195 1217.57,397.141 1219.62,391.418 1221.67,384.923 1223.73,384.909 1225.78,391.461 1227.83,390.958 1229.89,391.321 1231.94,387.823 1233.99,382.481 1236.04,391.648 1238.1,402.377 1240.15,391.218 1242.2,354.34 1244.26,346.881 1246.31,344.462 1248.36,378.154 1250.41,378.56 1252.47,379.515 1254.52,339.418 1256.57,335.021 1258.63,326.6 1260.68,327.488 1262.73,317.918 1264.78,318.587 1266.84,315.963 1268.89,337.592 1270.94,336.461 1273,336.206 1275.05,337.24 1277.1,336.099 1279.16,336.525 1281.21,303.096 1283.26,287.498 1285.31,287.61 1287.37,304.04 1289.42,303.019 1291.47,301.631 1293.53,301.719 1295.58,301.535 1297.63,302.525 1299.68,302.608 1301.74,303.283 1303.79,302.253 1305.84,300.992 1307.9,352.433 1309.95,386.417 1312,392.057 1314.05,390.209 1316.11,388.823 1318.16,342.705 1320.21,327.8 1322.27,312.759 1324.32,294.646 1326.37,311.144 1328.42,291.329 1330.48,303.128 1332.53,295.274 1334.58,417.964 1336.64,412.757 1338.69,413.279 1340.74,408.12 1342.79,414.564 1344.85,400.152 1346.9,409.588 1348.95,404.033 1351.01,404.026 1353.06,431.57 1355.11,430.927 1357.16,415.141 1359.22,415.457 1361.27,438.467 1363.32,438.038 1365.38,415.887 1367.43,382.531 1369.48,331.176 1371.54,331.378 1373.59,325.294 1375.64,413.033 1377.69,412.685 1379.75,395.024 1381.8,402.486 1383.85,357.009 1385.91,357.586 1387.96,358.802 1390.01,361.516 1392.06,376.634 1394.12,419.413 1396.17,419.254 1398.22,417.522 1400.28,399.282 1402.33,384.153 1404.38,384.164 1406.43,375.622 1408.49,373.541 1410.54,371.753 1412.59,371.93 1414.65,370.84 1416.7,344.394 1418.75,344.422 1420.8,342.896 1422.86,343.453 1424.91,343.178 1426.96,363.952 1429.02,364.037 1431.07,364.786 1433.12,364.95 1435.17,364.691 1437.23,364.075 1439.28,364.376 1441.33,363.935 1443.39,364.204 1445.44,407.473 1447.49,401.614 1449.55,401.694 1451.6,401.474 1453.65,403.16 1455.7,403.22 1457.76,393.567 1459.81,441.153 1461.86,438.424 1463.92,445.361 1465.97,453.311 1468.02,467.672 1470.07,468.823 1472.13,457.841 1474.18,457.668 1476.23,465.539 1478.29,422.363 1480.34,431.767 1482.39,431.837 1484.44,429.686 1486.5,430.575 1488.55,430.406 1490.6,396.036 1492.66,398.677 1494.71,427.263 1496.76,426.984 1498.81,445.531 1500.87,443.468 1502.92,436.368 1504.97,433.045 1507.03,433.893 1509.08,469.828 1511.13,471.234 1513.18,471.236 1515.24,470.886 1517.29,489.8 1519.34,489.247 1521.4,451.639 1523.45,451.496 1525.5,437.524 1527.55,444.796 1529.61,464.716 1531.66,483.507 1533.71,495.877 1535.77,493.567 1537.82,517.196 1539.87,436.714 1541.93,437.191 1543.98,439.936 1546.03,441.632 1548.08,441.424 1550.14,557.833 1552.19,526.434 1554.24,485.99 1556.3,479.059 1558.35,472.49 1560.4,457.514 1562.45,465.181 1564.51,395.466 1566.56,395.657 1568.61,395.681 1570.67,380.086 1572.72,415.067 1574.77,406.156 1576.82,407.468 1578.88,401.128 1580.93,403.785 1582.98,402.125 1585.04,389.107 1587.09,389.219 1589.14,389.87 1591.19,368.469 1593.25,371.884 1595.3,373.608 1597.35,374.702 1599.41,373.116 1601.46,363.268 1603.51,364.476 1605.56,364.53 1607.62,367.303 1609.67,344.119 1611.72,343.226 1613.78,347.745 1615.83,337.453 1617.88,339.06 1619.94,340.868 1621.99,339.461 1624.04,336.325 1626.09,336.25 1628.15,362.869 1630.2,369.68 1632.25,300.268 1634.31,342.82 1636.36,354.796 1638.41,355.492 1640.46,360.059 1642.52,359.023 1644.57,367.742 1646.62,361.256 1648.68,361.089 1650.73,333.401 1652.78,350.772 1654.83,349.953 1656.89,351.055 1658.94,370.154 1660.99,369.53 1663.05,369.403 1665.1,324.228 1667.15,258.042 1669.2,257.037 1671.26,255.725 1673.31,254.718 1675.36,244.811 1677.42,239.848 1679.47,256.785 1681.52,244.138 1683.57,316.628 1685.63,337.607 1687.68,381.564 1689.73,417.769 1691.79,379.641 1693.84,379.465 1695.89,377.663 1697.94,399.816 1700,416.126 1702.05,416.368 1704.1,401.047 1706.16,409.52 1708.21,387.926 1710.26,407.266 1712.32,407.533 1714.37,386.816 1716.42,348.641 1718.47,349.841 1720.53,349.859 1722.58,341.542 1724.63,343.713 1726.69,348.656 1728.74,346.085 1730.79,346.118 1732.84,342.362 1734.9,348.3 1736.95,346.773 1739,362.04 1741.06,356.61 1743.11,343.195 1745.16,350.187 1747.21,339.409 1749.27,340.621 1751.32,340.703 1753.37,339.98 1755.43,345.617 1757.48,397.282 1759.53,397.656 1761.58,396.982 1763.64,389.738 1765.69,374.687 1767.74,364.603 1769.8,363.144 1771.85,368.159 1773.9,374.072 1775.95,366.959 1778.01,365.755 1780.06,360.91 1782.11,367.287 1784.17,368.325 1786.22,359.926 1788.27,358.336 1790.33,360.605 1792.38,356.781 1794.43,355.169 1796.48,347.065 1798.54,346.905 1800.59,346.701 1802.64,349.915 1804.7,350.488 1806.75,343.971 1808.8,342.955 1810.85,342.945 1812.91,355.366 1814.96,355.297 1817.01,346.479 1819.07,345.913 1821.12,351.469 1823.17,348.274 1825.22,350.319 1827.28,334.464 1829.33,334.126 1831.38,331.925 1833.44,331.824 1835.49,330.474 1837.54,330.246 1839.59,329.033 1841.65,329.185 1843.7,327.061 1845.75,326.52 1847.81,322.947 1849.86,343.6 1851.91,349.521 1853.96,349.381 1856.02,345.079 1858.07,345.104 1860.12,345.13 1862.18,348.502 1864.23,349.446 1866.28,349.286 1868.34,340.45 1870.39,339.979 1872.44,339.271 1874.49,339.231 1876.55,349.874 1878.6,342.075 1880.65,341.786 1882.71,342.72 1884.76,342.759 1886.81,343.035 1888.86,373.499 1890.92,344.596 1892.97,460.588 1895.02,460.532 1897.08,478.436 1899.13,478.611 1901.18,478.109 1903.23,479.741 1905.29,495.798 1907.34,496.45 1909.39,486.266 1911.45,495.433 1913.5,456.165 1915.55,422.684 1917.6,520.848 1919.66,515.114 1921.71,492.377 1923.76,493.57 1925.82,489.603 1927.87,487.16 1929.92,476.835 1931.97,460.956 1934.03,453.301 1936.08,452.319 1938.13,454.498 1940.19,445.175 1942.24,369.487 1944.29,319.579 1946.34,319.723 1948.4,305.635 1950.45,184.453 1952.5,346.915 1954.56,320.663 1956.61,323.677 1958.66,323.85 1960.72,362.954 1962.77,358.532 1964.82,314.478 1966.87,285.151 1968.93,287.5 1970.98,300.649 1973.03,312.797 1975.09,313.065 1977.14,309.284 1979.19,310.849 1981.24,309.756 1983.3,372.82 1985.35,372.686 1987.4,361.639 1989.46,352.53 1991.51,349.47 1993.56,336.583 1995.61,334.98 1997.67,359.048 1999.72,307.187 2001.77,345.544 2003.83,358.469 2005.88,396.658 2007.93,394.289 2009.98,364.073 2012.04,374.425 2014.09,361.691 2016.14,362.068 2018.2,380.967 2020.25,373.229 2022.3,367.818 2024.35,362.006 2026.41,351.625 2028.46,304.857 2030.51,295.506 2032.57,247.864 2034.62,374.045 2036.67,377.08 2038.73,377.017 2040.78,404.839 2042.83,405.038 2044.88,391.174 2046.94,388.511 2048.99,340.185 2051.04,319.357 2053.1,318.765 2055.15,319.429 2057.2,319.011 2059.25,308.226 2061.31,303.61 2063.36,329.095 2065.41,266.428 2067.47,309.001 2069.52,216.458 2071.57,219.744 2073.62,219.838 2075.68,346.526 2077.73,328.706 2079.78,345.892 2081.84,266.967 2083.89,284.186 2085.94,261.902 2087.99,263.141 2090.05,272.789 2092.1,276.541 2094.15,369.183 2096.21,419.501 2098.26,413.09 2100.31,422.474 2102.36,420.406 2104.42,441.102 2106.47,445.651 2108.52,418.835 2110.58,335.401 2112.63,311.065 2114.68,316.766 2116.73,317.885 2118.79,318.395 2120.84,311.434 2122.89,311.526 2124.95,336.8 2127,352.581 2129.05,348.814 2131.11,346.146 2133.16,343.957 2135.21,360.488 2137.26,346.782 2139.32,340.898 2141.37,315.156 2143.42,314.045 2145.48,314.723 2147.53,320.552 2149.58,320.187 2151.63,314.794 2153.69,312.444 2155.74,315.216 2157.79,317.305 2159.85,317.159 2161.9,313.692 2163.95,310.662 2166,313.984 2168.06,290.789 2170.11,268.82 2172.16,269.313 2174.22,296.946 2176.27,300.726 2178.32,300.575 2180.37,297.046 2182.43,356.529 2184.48,356.852 2186.53,356.553 2188.59,357.252 2190.64,350.596 2192.69,349.837 2194.74,346.672 2196.8,345.273 2198.85,370.108 2200.9,367.013 2202.96,382.996 2205.01,393.974 2207.06,393.883 2209.12,387.687 2211.17,390.833 2213.22,390.553 2215.27,389.965 2217.33,383.611 2219.38,429.051 2221.43,401.336 2223.49,394.321 2225.54,397.453 2227.59,407.748 2229.64,373.913 2231.7,374.23 2233.75,361.95 2235.8,357.395 2237.86,359.713 2239.91,363.477 2241.96,298.895 2244.01,307.986 2246.07,303.347 2248.12,359.777 2250.17,356.045 2252.23,349.933 2254.28,355.554 2256.33,353.706 2258.38,359.69 2260.44,359.601 2262.49,352.776 2264.54,353.468 2266.6,357.878 2268.65,356.92 2270.7,356.311 2272.75,357.516 2274.81,357.016 2276.86,352.758 2278.91,352.563 2280.97,354.14 2283.02,354.795 2285.07,354.779 2287.12,346.392 2289.18,346.394 2291.23,345.289 "/>
<path clip-path="url(#clip950)" d="M251.33 172.231 L548.024 172.231 L548.024 68.5509 L251.33 68.5509  Z" fill="#ffffff" fill-rule="evenodd" fill-opacity="1"/>
<polyline clip-path="url(#clip950)" style="stroke:#000000; stroke-linecap:round; stroke-linejoin:round; stroke-width:4; stroke-opacity:1; fill:none" points="251.33,172.231 548.024,172.231 548.024,68.5509 251.33,68.5509 251.33,172.231 "/>
<polyline clip-path="url(#clip950)" style="stroke:#009af9; stroke-linecap:round; stroke-linejoin:round; stroke-width:4; stroke-opacity:1; fill:none" points="275.484,120.391 420.41,120.391 "/>
<path clip-path="url(#clip950)" d="M444.564 103.111 L449.24 103.111 L449.24 133.736 L466.069 133.736 L466.069 137.671 L444.564 137.671 L444.564 103.111 Z" fill="#000000" fill-rule="nonzero" fill-opacity="1" /><path clip-path="url(#clip950)" d="M491.694 104.245 L491.694 108.805 Q489.032 107.532 486.67 106.907 Q484.309 106.282 482.11 106.282 Q478.291 106.282 476.208 107.764 Q474.147 109.245 474.147 111.977 Q474.147 114.268 475.513 115.449 Q476.902 116.606 480.745 117.324 L483.569 117.902 Q488.8 118.898 491.277 121.421 Q493.777 123.921 493.777 128.134 Q493.777 133.157 490.397 135.75 Q487.041 138.342 480.536 138.342 Q478.083 138.342 475.305 137.787 Q472.55 137.231 469.587 136.143 L469.587 131.328 Q472.434 132.926 475.166 133.736 Q477.897 134.546 480.536 134.546 Q484.541 134.546 486.717 132.972 Q488.893 131.398 488.893 128.481 Q488.893 125.935 487.319 124.5 Q485.768 123.064 482.203 122.347 L479.356 121.791 Q474.124 120.75 471.786 118.527 Q469.448 116.305 469.448 112.347 Q469.448 107.764 472.666 105.125 Q475.907 102.486 481.578 102.486 Q484.008 102.486 486.532 102.926 Q489.055 103.366 491.694 104.245 Z" fill="#000000" fill-rule="nonzero" fill-opacity="1" /><path clip-path="url(#clip950)" d="M521.786 104.245 L521.786 108.805 Q519.124 107.532 516.763 106.907 Q514.402 106.282 512.203 106.282 Q508.383 106.282 506.3 107.764 Q504.24 109.245 504.24 111.977 Q504.24 114.268 505.606 115.449 Q506.994 116.606 510.837 117.324 L513.661 117.902 Q518.893 118.898 521.369 121.421 Q523.869 123.921 523.869 128.134 Q523.869 133.157 520.49 135.75 Q517.133 138.342 510.629 138.342 Q508.175 138.342 505.397 137.787 Q502.643 137.231 499.68 136.143 L499.68 131.328 Q502.527 132.926 505.258 133.736 Q507.99 134.546 510.629 134.546 Q514.633 134.546 516.809 132.972 Q518.985 131.398 518.985 128.481 Q518.985 125.935 517.411 124.5 Q515.86 123.064 512.295 122.347 L509.448 121.791 Q504.217 120.75 501.879 118.527 Q499.541 116.305 499.541 112.347 Q499.541 107.764 502.758 105.125 Q505.999 102.486 511.67 102.486 Q514.101 102.486 516.624 102.926 Q519.147 103.366 521.786 104.245 Z" fill="#000000" fill-rule="nonzero" fill-opacity="1" /><path clip-path="url(#clip950)" d="M178.867 1486.45 L2352.76 1486.45 L2352.76 847.244 L178.867 847.244  Z" fill="#ffffff" fill-rule="evenodd" fill-opacity="1"/>
<defs>
  <clipPath id="clip953">
    <rect x="178" y="847" width="2175" height="640"/>
  </clipPath>
</defs>
<polyline clip-path="url(#clip953)" style="stroke:#000000; stroke-linecap:round; stroke-linejoin:round; stroke-width:2; stroke-opacity:0.1; fill:none" points="238.339,1486.45 238.339,847.244 "/>
<polyline clip-path="url(#clip953)" style="stroke:#000000; stroke-linecap:round; stroke-linejoin:round; stroke-width:2; stroke-opacity:0.1; fill:none" points="751.562,1486.45 751.562,847.244 "/>
<polyline clip-path="url(#clip953)" style="stroke:#000000; stroke-linecap:round; stroke-linejoin:round; stroke-width:2; stroke-opacity:0.1; fill:none" points="1264.78,1486.45 1264.78,847.244 "/>
<polyline clip-path="url(#clip953)" style="stroke:#000000; stroke-linecap:round; stroke-linejoin:round; stroke-width:2; stroke-opacity:0.1; fill:none" points="1778.01,1486.45 1778.01,847.244 "/>
<polyline clip-path="url(#clip953)" style="stroke:#000000; stroke-linecap:round; stroke-linejoin:round; stroke-width:2; stroke-opacity:0.1; fill:none" points="2291.23,1486.45 2291.23,847.244 "/>
<polyline clip-path="url(#clip953)" style="stroke:#000000; stroke-linecap:round; stroke-linejoin:round; stroke-width:2; stroke-opacity:0.1; fill:none" points="178.867,1486.45 2352.76,1486.45 "/>
<polyline clip-path="url(#clip953)" style="stroke:#000000; stroke-linecap:round; stroke-linejoin:round; stroke-width:2; stroke-opacity:0.1; fill:none" points="178.867,1326.65 2352.76,1326.65 "/>
<polyline clip-path="url(#clip953)" style="stroke:#000000; stroke-linecap:round; stroke-linejoin:round; stroke-width:2; stroke-opacity:0.1; fill:none" points="178.867,1166.85 2352.76,1166.85 "/>
<polyline clip-path="url(#clip953)" style="stroke:#000000; stroke-linecap:round; stroke-linejoin:round; stroke-width:2; stroke-opacity:0.1; fill:none" points="178.867,1007.05 2352.76,1007.05 "/>
<polyline clip-path="url(#clip953)" style="stroke:#000000; stroke-linecap:round; stroke-linejoin:round; stroke-width:2; stroke-opacity:0.1; fill:none" points="178.867,847.244 2352.76,847.244 "/>
<polyline clip-path="url(#clip950)" style="stroke:#000000; stroke-linecap:round; stroke-linejoin:round; stroke-width:4; stroke-opacity:1; fill:none" points="178.867,1486.45 2352.76,1486.45 "/>
<polyline clip-path="url(#clip950)" style="stroke:#000000; stroke-linecap:round; stroke-linejoin:round; stroke-width:4; stroke-opacity:1; fill:none" points="238.339,1486.45 238.339,1467.55 "/>
<polyline clip-path="url(#clip950)" style="stroke:#000000; stroke-linecap:round; stroke-linejoin:round; stroke-width:4; stroke-opacity:1; fill:none" points="751.562,1486.45 751.562,1467.55 "/>
<polyline clip-path="url(#clip950)" style="stroke:#000000; stroke-linecap:round; stroke-linejoin:round; stroke-width:4; stroke-opacity:1; fill:none" points="1264.78,1486.45 1264.78,1467.55 "/>
<polyline clip-path="url(#clip950)" style="stroke:#000000; stroke-linecap:round; stroke-linejoin:round; stroke-width:4; stroke-opacity:1; fill:none" points="1778.01,1486.45 1778.01,1467.55 "/>
<polyline clip-path="url(#clip950)" style="stroke:#000000; stroke-linecap:round; stroke-linejoin:round; stroke-width:4; stroke-opacity:1; fill:none" points="2291.23,1486.45 2291.23,1467.55 "/>
<path clip-path="url(#clip950)" d="M238.339 1517.37 Q234.728 1517.37 232.899 1520.93 Q231.094 1524.47 231.094 1531.6 Q231.094 1538.71 232.899 1542.27 Q234.728 1545.82 238.339 1545.82 Q241.973 1545.82 243.779 1542.27 Q245.607 1538.71 245.607 1531.6 Q245.607 1524.47 243.779 1520.93 Q241.973 1517.37 238.339 1517.37 M238.339 1513.66 Q244.149 1513.66 247.205 1518.27 Q250.283 1522.85 250.283 1531.6 Q250.283 1540.33 247.205 1544.94 Q244.149 1549.52 238.339 1549.52 Q232.529 1549.52 229.45 1544.94 Q226.395 1540.33 226.395 1531.6 Q226.395 1522.85 229.45 1518.27 Q232.529 1513.66 238.339 1513.66 Z" fill="#000000" fill-rule="nonzero" fill-opacity="1" /><path clip-path="url(#clip950)" d="M715.254 1544.91 L731.574 1544.91 L731.574 1548.85 L709.629 1548.85 L709.629 1544.91 Q712.291 1542.16 716.875 1537.53 Q721.481 1532.88 722.662 1531.53 Q724.907 1529.01 725.787 1527.27 Q726.689 1525.51 726.689 1523.82 Q726.689 1521.07 724.745 1519.33 Q722.824 1517.6 719.722 1517.6 Q717.523 1517.6 715.069 1518.36 Q712.638 1519.13 709.861 1520.68 L709.861 1515.95 Q712.685 1514.82 715.138 1514.24 Q717.592 1513.66 719.629 1513.66 Q725 1513.66 728.194 1516.35 Q731.388 1519.03 731.388 1523.52 Q731.388 1525.65 730.578 1527.57 Q729.791 1529.47 727.685 1532.07 Q727.106 1532.74 724.004 1535.95 Q720.902 1539.15 715.254 1544.91 Z" fill="#000000" fill-rule="nonzero" fill-opacity="1" /><path clip-path="url(#clip950)" d="M741.435 1514.29 L759.791 1514.29 L759.791 1518.22 L745.717 1518.22 L745.717 1526.7 Q746.736 1526.35 747.754 1526.19 Q748.773 1526 749.791 1526 Q755.578 1526 758.958 1529.17 Q762.337 1532.34 762.337 1537.76 Q762.337 1543.34 758.865 1546.44 Q755.393 1549.52 749.073 1549.52 Q746.898 1549.52 744.629 1549.15 Q742.384 1548.78 739.976 1548.04 L739.976 1543.34 Q742.06 1544.47 744.282 1545.03 Q746.504 1545.58 748.981 1545.58 Q752.985 1545.58 755.323 1543.48 Q757.661 1541.37 757.661 1537.76 Q757.661 1534.15 755.323 1532.04 Q752.985 1529.94 748.981 1529.94 Q747.106 1529.94 745.231 1530.35 Q743.379 1530.77 741.435 1531.65 L741.435 1514.29 Z" fill="#000000" fill-rule="nonzero" fill-opacity="1" /><path clip-path="url(#clip950)" d="M781.55 1517.37 Q777.939 1517.37 776.11 1520.93 Q774.305 1524.47 774.305 1531.6 Q774.305 1538.71 776.11 1542.27 Q777.939 1545.82 781.55 1545.82 Q785.184 1545.82 786.99 1542.27 Q788.819 1538.71 788.819 1531.6 Q788.819 1524.47 786.99 1520.93 Q785.184 1517.37 781.55 1517.37 M781.55 1513.66 Q787.36 1513.66 790.416 1518.27 Q793.495 1522.85 793.495 1531.6 Q793.495 1540.33 790.416 1544.94 Q787.36 1549.52 781.55 1549.52 Q775.74 1549.52 772.661 1544.94 Q769.606 1540.33 769.606 1531.6 Q769.606 1522.85 772.661 1518.27 Q775.74 1513.66 781.55 1513.66 Z" fill="#000000" fill-rule="nonzero" fill-opacity="1" /><path clip-path="url(#clip950)" d="M1224.4 1514.29 L1242.76 1514.29 L1242.76 1518.22 L1228.69 1518.22 L1228.69 1526.7 Q1229.7 1526.35 1230.72 1526.19 Q1231.74 1526 1232.76 1526 Q1238.55 1526 1241.93 1529.17 Q1245.31 1532.34 1245.31 1537.76 Q1245.31 1543.34 1241.83 1546.44 Q1238.36 1549.52 1232.04 1549.52 Q1229.87 1549.52 1227.6 1549.15 Q1225.35 1548.78 1222.94 1548.04 L1222.94 1543.34 Q1225.03 1544.47 1227.25 1545.03 Q1229.47 1545.58 1231.95 1545.58 Q1235.95 1545.58 1238.29 1543.48 Q1240.63 1541.37 1240.63 1537.76 Q1240.63 1534.15 1238.29 1532.04 Q1235.95 1529.94 1231.95 1529.94 Q1230.07 1529.94 1228.2 1530.35 Q1226.35 1530.77 1224.4 1531.65 L1224.4 1514.29 Z" fill="#000000" fill-rule="nonzero" fill-opacity="1" /><path clip-path="url(#clip950)" d="M1264.52 1517.37 Q1260.91 1517.37 1259.08 1520.93 Q1257.27 1524.47 1257.27 1531.6 Q1257.27 1538.71 1259.08 1542.27 Q1260.91 1545.82 1264.52 1545.82 Q1268.15 1545.82 1269.96 1542.27 Q1271.79 1538.71 1271.79 1531.6 Q1271.79 1524.47 1269.96 1520.93 Q1268.15 1517.37 1264.52 1517.37 M1264.52 1513.66 Q1270.33 1513.66 1273.38 1518.27 Q1276.46 1522.85 1276.46 1531.6 Q1276.46 1540.33 1273.38 1544.94 Q1270.33 1549.52 1264.52 1549.52 Q1258.71 1549.52 1255.63 1544.94 Q1252.57 1540.33 1252.57 1531.6 Q1252.57 1522.85 1255.63 1518.27 Q1258.71 1513.66 1264.52 1513.66 Z" fill="#000000" fill-rule="nonzero" fill-opacity="1" /><path clip-path="url(#clip950)" d="M1294.68 1517.37 Q1291.07 1517.37 1289.24 1520.93 Q1287.44 1524.47 1287.44 1531.6 Q1287.44 1538.71 1289.24 1542.27 Q1291.07 1545.82 1294.68 1545.82 Q1298.31 1545.82 1300.12 1542.27 Q1301.95 1538.71 1301.95 1531.6 Q1301.95 1524.47 1300.12 1520.93 Q1298.31 1517.37 1294.68 1517.37 M1294.68 1513.66 Q1300.49 1513.66 1303.55 1518.27 Q1306.62 1522.85 1306.62 1531.6 Q1306.62 1540.33 1303.55 1544.94 Q1300.49 1549.52 1294.68 1549.52 Q1288.87 1549.52 1285.79 1544.94 Q1282.74 1540.33 1282.74 1531.6 Q1282.74 1522.85 1285.79 1518.27 Q1288.87 1513.66 1294.68 1513.66 Z" fill="#000000" fill-rule="nonzero" fill-opacity="1" /><path clip-path="url(#clip950)" d="M1736.28 1514.29 L1758.51 1514.29 L1758.51 1516.28 L1745.96 1548.85 L1741.08 1548.85 L1752.88 1518.22 L1736.28 1518.22 L1736.28 1514.29 Z" fill="#000000" fill-rule="nonzero" fill-opacity="1" /><path clip-path="url(#clip950)" d="M1767.67 1514.29 L1786.03 1514.29 L1786.03 1518.22 L1771.95 1518.22 L1771.95 1526.7 Q1772.97 1526.35 1773.99 1526.19 Q1775.01 1526 1776.03 1526 Q1781.82 1526 1785.2 1529.17 Q1788.57 1532.34 1788.57 1537.76 Q1788.57 1543.34 1785.1 1546.44 Q1781.63 1549.52 1775.31 1549.52 Q1773.14 1549.52 1770.87 1549.15 Q1768.62 1548.78 1766.21 1548.04 L1766.21 1543.34 Q1768.3 1544.47 1770.52 1545.03 Q1772.74 1545.58 1775.22 1545.58 Q1779.22 1545.58 1781.56 1543.48 Q1783.9 1541.37 1783.9 1537.76 Q1783.9 1534.15 1781.56 1532.04 Q1779.22 1529.94 1775.22 1529.94 Q1773.34 1529.94 1771.47 1530.35 Q1769.62 1530.77 1767.67 1531.65 L1767.67 1514.29 Z" fill="#000000" fill-rule="nonzero" fill-opacity="1" /><path clip-path="url(#clip950)" d="M1807.79 1517.37 Q1804.18 1517.37 1802.35 1520.93 Q1800.54 1524.47 1800.54 1531.6 Q1800.54 1538.71 1802.35 1542.27 Q1804.18 1545.82 1807.79 1545.82 Q1811.42 1545.82 1813.23 1542.27 Q1815.06 1538.71 1815.06 1531.6 Q1815.06 1524.47 1813.23 1520.93 Q1811.42 1517.37 1807.79 1517.37 M1807.79 1513.66 Q1813.6 1513.66 1816.65 1518.27 Q1819.73 1522.85 1819.73 1531.6 Q1819.73 1540.33 1816.65 1544.94 Q1813.6 1549.52 1807.79 1549.52 Q1801.98 1549.52 1798.9 1544.94 Q1795.84 1540.33 1795.84 1531.6 Q1795.84 1522.85 1798.9 1518.27 Q1801.98 1513.66 1807.79 1513.66 Z" fill="#000000" fill-rule="nonzero" fill-opacity="1" /><path clip-path="url(#clip950)" d="M2235.76 1544.91 L2243.4 1544.91 L2243.4 1518.55 L2235.09 1520.21 L2235.09 1515.95 L2243.35 1514.29 L2248.02 1514.29 L2248.02 1544.91 L2255.66 1544.91 L2255.66 1548.85 L2235.76 1548.85 L2235.76 1544.91 Z" fill="#000000" fill-rule="nonzero" fill-opacity="1" /><path clip-path="url(#clip950)" d="M2275.11 1517.37 Q2271.5 1517.37 2269.67 1520.93 Q2267.86 1524.47 2267.86 1531.6 Q2267.86 1538.71 2269.67 1542.27 Q2271.5 1545.82 2275.11 1545.82 Q2278.74 1545.82 2280.55 1542.27 Q2282.38 1538.71 2282.38 1531.6 Q2282.38 1524.47 2280.55 1520.93 Q2278.74 1517.37 2275.11 1517.37 M2275.11 1513.66 Q2280.92 1513.66 2283.97 1518.27 Q2287.05 1522.85 2287.05 1531.6 Q2287.05 1540.33 2283.97 1544.94 Q2280.92 1549.52 2275.11 1549.52 Q2269.3 1549.52 2266.22 1544.94 Q2263.16 1540.33 2263.16 1531.6 Q2263.16 1522.85 2266.22 1518.27 Q2269.3 1513.66 2275.11 1513.66 Z" fill="#000000" fill-rule="nonzero" fill-opacity="1" /><path clip-path="url(#clip950)" d="M2305.27 1517.37 Q2301.66 1517.37 2299.83 1520.93 Q2298.02 1524.47 2298.02 1531.6 Q2298.02 1538.71 2299.83 1542.27 Q2301.66 1545.82 2305.27 1545.82 Q2308.9 1545.82 2310.71 1542.27 Q2312.54 1538.71 2312.54 1531.6 Q2312.54 1524.47 2310.71 1520.93 Q2308.9 1517.37 2305.27 1517.37 M2305.27 1513.66 Q2311.08 1513.66 2314.14 1518.27 Q2317.21 1522.85 2317.21 1531.6 Q2317.21 1540.33 2314.14 1544.94 Q2311.08 1549.52 2305.27 1549.52 Q2299.46 1549.52 2296.38 1544.94 Q2293.33 1540.33 2293.33 1531.6 Q2293.33 1522.85 2296.38 1518.27 Q2299.46 1513.66 2305.27 1513.66 Z" fill="#000000" fill-rule="nonzero" fill-opacity="1" /><path clip-path="url(#clip950)" d="M2335.43 1517.37 Q2331.82 1517.37 2329.99 1520.93 Q2328.19 1524.47 2328.19 1531.6 Q2328.19 1538.71 2329.99 1542.27 Q2331.82 1545.82 2335.43 1545.82 Q2339.07 1545.82 2340.87 1542.27 Q2342.7 1538.71 2342.7 1531.6 Q2342.7 1524.47 2340.87 1520.93 Q2339.07 1517.37 2335.43 1517.37 M2335.43 1513.66 Q2341.24 1513.66 2344.3 1518.27 Q2347.38 1522.85 2347.38 1531.6 Q2347.38 1540.33 2344.3 1544.94 Q2341.24 1549.52 2335.43 1549.52 Q2329.62 1549.52 2326.54 1544.94 Q2323.49 1540.33 2323.49 1531.6 Q2323.49 1522.85 2326.54 1518.27 Q2329.62 1513.66 2335.43 1513.66 Z" fill="#000000" fill-rule="nonzero" fill-opacity="1" /><polyline clip-path="url(#clip950)" style="stroke:#000000; stroke-linecap:round; stroke-linejoin:round; stroke-width:4; stroke-opacity:1; fill:none" points="178.867,1486.45 178.867,847.244 "/>
<polyline clip-path="url(#clip950)" style="stroke:#000000; stroke-linecap:round; stroke-linejoin:round; stroke-width:4; stroke-opacity:1; fill:none" points="178.867,1486.45 197.764,1486.45 "/>
<polyline clip-path="url(#clip950)" style="stroke:#000000; stroke-linecap:round; stroke-linejoin:round; stroke-width:4; stroke-opacity:1; fill:none" points="178.867,1326.65 197.764,1326.65 "/>
<polyline clip-path="url(#clip950)" style="stroke:#000000; stroke-linecap:round; stroke-linejoin:round; stroke-width:4; stroke-opacity:1; fill:none" points="178.867,1166.85 197.764,1166.85 "/>
<polyline clip-path="url(#clip950)" style="stroke:#000000; stroke-linecap:round; stroke-linejoin:round; stroke-width:4; stroke-opacity:1; fill:none" points="178.867,1007.05 197.764,1007.05 "/>
<polyline clip-path="url(#clip950)" style="stroke:#000000; stroke-linecap:round; stroke-linejoin:round; stroke-width:4; stroke-opacity:1; fill:none" points="178.867,847.244 197.764,847.244 "/>
<path clip-path="url(#clip950)" d="M50.9921 1486.9 L80.6679 1486.9 L80.6679 1490.83 L50.9921 1490.83 L50.9921 1486.9 Z" fill="#000000" fill-rule="nonzero" fill-opacity="1" /><path clip-path="url(#clip950)" d="M91.5706 1499.79 L99.2095 1499.79 L99.2095 1473.43 L90.8993 1475.09 L90.8993 1470.83 L99.1632 1469.17 L103.839 1469.17 L103.839 1499.79 L111.478 1499.79 L111.478 1503.73 L91.5706 1503.73 L91.5706 1499.79 Z" fill="#000000" fill-rule="nonzero" fill-opacity="1" /><path clip-path="url(#clip950)" d="M130.922 1472.25 Q127.311 1472.25 125.482 1475.81 Q123.677 1479.35 123.677 1486.48 Q123.677 1493.59 125.482 1497.15 Q127.311 1500.7 130.922 1500.7 Q134.556 1500.7 136.362 1497.15 Q138.191 1493.59 138.191 1486.48 Q138.191 1479.35 136.362 1475.81 Q134.556 1472.25 130.922 1472.25 M130.922 1468.54 Q136.732 1468.54 139.788 1473.15 Q142.867 1477.73 142.867 1486.48 Q142.867 1495.21 139.788 1499.82 Q136.732 1504.4 130.922 1504.4 Q125.112 1504.4 122.033 1499.82 Q118.978 1495.21 118.978 1486.48 Q118.978 1477.73 122.033 1473.15 Q125.112 1468.54 130.922 1468.54 Z" fill="#000000" fill-rule="nonzero" fill-opacity="1" /><path clip-path="url(#clip950)" d="M82.1494 1327.1 L111.825 1327.1 L111.825 1331.03 L82.1494 1331.03 L82.1494 1327.1 Z" fill="#000000" fill-rule="nonzero" fill-opacity="1" /><path clip-path="url(#clip950)" d="M121.964 1309.37 L140.32 1309.37 L140.32 1313.3 L126.246 1313.3 L126.246 1321.77 Q127.265 1321.43 128.283 1321.27 Q129.302 1321.08 130.32 1321.08 Q136.107 1321.08 139.487 1324.25 Q142.867 1327.42 142.867 1332.84 Q142.867 1338.42 139.394 1341.52 Q135.922 1344.6 129.603 1344.6 Q127.427 1344.6 125.158 1344.23 Q122.913 1343.86 120.506 1343.12 L120.506 1338.42 Q122.589 1339.55 124.811 1340.11 Q127.033 1340.66 129.51 1340.66 Q133.515 1340.66 135.853 1338.56 Q138.191 1336.45 138.191 1332.84 Q138.191 1329.23 135.853 1327.12 Q133.515 1325.01 129.51 1325.01 Q127.635 1325.01 125.76 1325.43 Q123.908 1325.85 121.964 1326.73 L121.964 1309.37 Z" fill="#000000" fill-rule="nonzero" fill-opacity="1" /><path clip-path="url(#clip950)" d="M130.922 1152.64 Q127.311 1152.64 125.482 1156.21 Q123.677 1159.75 123.677 1166.88 Q123.677 1173.99 125.482 1177.55 Q127.311 1181.09 130.922 1181.09 Q134.556 1181.09 136.362 1177.55 Q138.191 1173.99 138.191 1166.88 Q138.191 1159.75 136.362 1156.21 Q134.556 1152.64 130.922 1152.64 M130.922 1148.94 Q136.732 1148.94 139.788 1153.55 Q142.867 1158.13 142.867 1166.88 Q142.867 1175.61 139.788 1180.21 Q136.732 1184.8 130.922 1184.8 Q125.112 1184.8 122.033 1180.21 Q118.978 1175.61 118.978 1166.88 Q118.978 1158.13 122.033 1153.55 Q125.112 1148.94 130.922 1148.94 Z" fill="#000000" fill-rule="nonzero" fill-opacity="1" /><path clip-path="url(#clip950)" d="M121.964 989.765 L140.32 989.765 L140.32 993.7 L126.246 993.7 L126.246 1002.17 Q127.265 1001.83 128.283 1001.66 Q129.302 1001.48 130.32 1001.48 Q136.107 1001.48 139.487 1004.65 Q142.867 1007.82 142.867 1013.24 Q142.867 1018.82 139.394 1021.92 Q135.922 1025 129.603 1025 Q127.427 1025 125.158 1024.63 Q122.913 1024.26 120.506 1023.51 L120.506 1018.82 Q122.589 1019.95 124.811 1020.51 Q127.033 1021.06 129.51 1021.06 Q133.515 1021.06 135.853 1018.95 Q138.191 1016.85 138.191 1013.24 Q138.191 1009.63 135.853 1007.52 Q133.515 1005.41 129.51 1005.41 Q127.635 1005.41 125.76 1005.83 Q123.908 1006.25 121.964 1007.13 L121.964 989.765 Z" fill="#000000" fill-rule="nonzero" fill-opacity="1" /><path clip-path="url(#clip950)" d="M91.5706 860.589 L99.2095 860.589 L99.2095 834.223 L90.8993 835.89 L90.8993 831.631 L99.1632 829.964 L103.839 829.964 L103.839 860.589 L111.478 860.589 L111.478 864.524 L91.5706 864.524 L91.5706 860.589 Z" fill="#000000" fill-rule="nonzero" fill-opacity="1" /><path clip-path="url(#clip950)" d="M130.922 833.043 Q127.311 833.043 125.482 836.608 Q123.677 840.149 123.677 847.279 Q123.677 854.385 125.482 857.95 Q127.311 861.492 130.922 861.492 Q134.556 861.492 136.362 857.95 Q138.191 854.385 138.191 847.279 Q138.191 840.149 136.362 836.608 Q134.556 833.043 130.922 833.043 M130.922 829.339 Q136.732 829.339 139.788 833.946 Q142.867 838.529 142.867 847.279 Q142.867 856.006 139.788 860.612 Q136.732 865.195 130.922 865.195 Q125.112 865.195 122.033 860.612 Q118.978 856.006 118.978 847.279 Q118.978 838.529 122.033 833.946 Q125.112 829.339 130.922 829.339 Z" fill="#000000" fill-rule="nonzero" fill-opacity="1" /><polyline clip-path="url(#clip953)" style="stroke:#009af9; stroke-linecap:round; stroke-linejoin:round; stroke-width:4; stroke-opacity:1; fill:none" points="240.392,1134.89 242.445,1128.61 244.498,1164.7 246.55,1170.26 248.603,1170.43 250.656,1154.96 252.709,1160.67 254.762,1166.75 256.815,1063.86 258.868,959.696 260.921,1080.62 262.974,1147.88 265.027,1170.55 267.079,1153.03 269.132,1205.8 271.185,1178.58 273.238,1132.32 275.291,1144.22 277.344,1154.14 279.397,1189.2 281.45,1197.87 283.503,1142.19 285.555,994.491 287.608,1601.91 289.661,1135.15 291.714,1202.86 293.767,1174.33 295.82,1149.3 297.873,1153.6 299.926,1178.82 301.979,1179.7 304.031,1181.61 306.084,1141.44 308.137,1184.62 310.19,1181.67 312.243,1154.13 314.296,1166.68 316.349,1143.9 318.402,1289.36 320.455,1256.43 322.507,1255.72 324.56,1294.69 326.613,700.879 328.666,181.594 330.719,936.092 332.772,1150.31 334.825,1027.45 336.878,655.464 338.931,1280.89 340.984,1161.37 343.036,1171.98 345.089,1212.7 347.142,1305.23 349.195,1208.83 351.248,1169.37 353.301,874.438 355.354,1122.1 357.407,1196.42 359.46,1187.85 361.512,1142.54 363.565,1176.87 365.618,1205.58 367.671,1210.27 369.724,1165.97 371.777,1102 373.83,1114.67 375.883,1212.01 377.936,1154.38 379.988,1179.34 382.041,1175.71 384.094,1200.42 386.147,1166.95 388.2,1117.37 390.253,1152.81 392.306,1165.43 394.359,1155.19 396.412,1295.11 398.464,979.988 400.517,634.583 402.57,1097.27 404.623,1145.68 406.676,1140.3 408.729,1138.33 410.782,920.359 412.835,1276.77 414.888,1255.75 416.94,1037.09 418.993,1169.3 421.046,1165.45 423.099,1123.23 425.152,1111.41 427.205,1271.53 429.258,1380.94 431.311,1299.08 433.364,1111.73 435.417,1238.22 437.469,1218.28 439.522,1309.52 441.575,1115.88 443.628,1102.09 445.681,1165.25 447.734,1165.51 449.787,1169.77 451.84,1163.31 453.893,1245.28 455.945,1062.11 457.998,1213.4 460.051,1009.11 462.104,857.326 464.157,1539.22 466.21,1231.92 468.263,1092.33 470.316,1153.9 472.369,1104.31 474.421,1287.35 476.474,1251.47 478.527,1201.17 480.58,1153.61 482.633,1157.51 484.686,1240.95 486.739,914.764 488.792,1546.24 490.845,1506.48 492.897,1142.9 494.95,1200.18 497.003,1216.2 499.056,1165.3 501.109,1153.05 503.162,1178.24 505.215,1193.99 507.268,1149.18 509.321,1158.38 511.374,1187.85 513.426,1087.44 515.479,1201.74 517.532,1207.62 519.585,1137.42 521.638,1128.39 523.691,1091.31 525.744,1417.68 527.797,1284.59 529.85,1262.99 531.902,1192.83 533.955,1136.56 536.008,1122.07 538.061,1132.63 540.114,1148.79 542.167,1176.96 544.22,1192.93 546.273,1101.44 548.326,1188.79 550.378,1051.68 552.431,1196.77 554.484,1230.03 556.537,1201.71 558.59,1083.62 560.643,1176.83 562.696,1175.17 564.749,1166.85 566.802,1154.13 568.854,1075.33 570.907,1230.6 572.96,1143.86 575.013,1143.91 577.066,1174.17 579.119,880.395 581.172,1285.53 583.225,1160.8 585.278,1047.84 587.331,1167.79 589.383,1175.19 591.436,1147.16 593.489,1103.62 595.542,1112.63 597.595,1334.7 599.648,1857.57 601.701,628.445 603.754,-4633.7 605.807,6528.04 607.859,-24882.3 609.912,53485.6 611.965,61023.8 614.018,47594.1 616.071,20530.5 618.124,-729.086 620.177,412.031 622.23,709.81 624.283,779.41 626.335,1119.5 628.388,1155.96 630.441,1179.27 632.494,1180.2 634.547,1160.75 636.6,1154.37 638.653,1047.87 640.706,1251.18 642.759,1127.73 644.811,1134.25 646.864,1133.55 648.917,1150.35 650.97,1140.06 653.023,1181.31 655.076,1190.54 657.129,1176.17 659.182,1150.25 661.235,1111.96 663.288,1197.89 665.34,1146.88 667.393,1151.37 669.446,1130.37 671.499,1170.13 673.552,1148.82 675.605,1195.14 677.658,1196.59 679.711,1131.42 681.764,1175.28 683.816,1201.56 685.869,1190.44 687.922,1229.06 689.975,871.807 692.028,1085.03 694.081,1082 696.134,1199.83 698.187,1179.62 700.24,1131.35 702.292,1122.73 704.345,1294.81 706.398,1210.95 708.451,1176.62 710.504,969.566 712.557,965.034 714.61,1197.02 716.663,1266.68 718.716,1182.68 720.768,1181.52 722.821,1167.36 724.874,1170.32 726.927,1122.1 728.98,955.048 731.033,1371.2 733.086,1269.24 735.139,1321.25 737.192,1278.39 739.245,1206.92 741.297,1028.26 743.35,1213.33 745.403,1186.98 747.456,1176.55 749.509,1170.74 751.562,1176.29 753.615,1181.28 755.668,1143.38 757.721,1197.59 759.773,1222.86 761.826,1181.08 763.879,1082.7 765.932,1159.3 767.985,1190.17 770.038,1140.27 772.091,1222.15 774.144,1152.78 776.197,1125.59 778.249,1202.63 780.302,1023.08 782.355,1085.84 784.408,1050.98 786.461,1115.38 788.514,1145.1 790.567,1134.69 792.62,1198.94 794.673,1037.25 796.725,1073.97 798.778,1263.77 800.831,1132.38 802.884,1326.5 804.937,1186.65 806.99,1176.21 809.043,1151.73 811.096,1163.04 813.149,1108.15 815.202,1136.15 817.254,1170.26 819.307,1125.33 821.36,1103.73 823.413,1133.13 825.466,1112.12 827.519,1196.31 829.572,1153.7 831.625,1137.87 833.678,1164.47 835.73,782.146 837.783,1151.94 839.836,1174.45 841.889,1143.51 843.942,1189.94 845.995,1080.99 848.048,1073.27 850.101,1103.26 852.154,1231.38 854.206,1177.45 856.259,1169.73 858.312,1182.62 860.365,1202.48 862.418,1013.62 864.471,1255.18 866.524,1005.92 868.577,1378.15 870.63,197.833 872.682,1545.46 874.735,1218.99 876.788,1192.46 878.841,1180.71 880.894,1166.49 882.947,1174.18 885,1180.28 887.053,1179.76 889.106,1185.17 891.159,1153.46 893.211,1218.67 895.264,1078.28 897.317,1158.07 899.37,1118.58 901.423,1129.67 903.476,1160.46 905.529,1296.86 907.582,811.166 909.635,1555.56 911.687,1398.66 913.74,1111.78 915.793,1118.66 917.846,994.502 919.899,1154.97 921.952,1134.44 924.005,1275.01 926.058,1219.81 928.111,1130.75 930.163,1203.9 932.216,1162.08 934.269,1180 936.322,1156.29 938.375,1178.89 940.428,1169.34 942.481,1172.27 944.534,1166.55 946.587,1147.44 948.639,1155.26 950.692,1086.86 952.745,1090.21 954.798,1067.25 956.851,1202.84 958.904,1141.6 960.957,1195.69 963.01,1112.25 965.063,1156.81 967.116,1157.13 969.168,1168.14 971.221,1176.98 973.274,1191.2 975.327,1148.66 977.38,1160.47 979.433,1185.1 981.486,1079.14 983.539,1118.42 985.592,1176.03 987.644,1036.11 989.697,1083.26 991.75,1447 993.803,1975.52 995.856,301.88 997.909,1135.56 999.962,1088.35 1002.01,1216.79 1004.07,956.848 1006.12,-367.024 1008.17,72.6933 1010.23,1583.26 1012.28,1048.93 1014.33,1136.16 1016.38,1329.24 1018.44,1059.55 1020.49,1179.62 1022.54,1183.44 1024.6,1230.59 1026.65,1070.92 1028.7,1324.1 1030.76,848.255 1032.81,1001.89 1034.86,1092.25 1036.91,1196.66 1038.97,1165.07 1041.02,1137.65 1043.07,1147.92 1045.13,1130.5 1047.18,1085.33 1049.23,1100.51 1051.28,1209.92 1053.34,1197.46 1055.39,1202.71 1057.44,1144.42 1059.5,1196.43 1061.55,1144.37 1063.6,1235.46 1065.65,1141.06 1067.71,1222.61 1069.76,902.991 1071.81,1088.77 1073.87,1753.24 1075.92,2740.45 1077.97,2535.38 1080.02,1553.87 1082.08,1672.43 1084.13,884.123 1086.18,1073.65 1088.24,1197.8 1090.29,1101.93 1092.34,953.65 1094.39,721.01 1096.45,1466.43 1098.5,1320.62 1100.55,1215.83 1102.61,1095.19 1104.66,1102.04 1106.71,600.305 1108.77,971.127 1110.82,1294.68 1112.87,1141.11 1114.92,1143.11 1116.98,1130.49 1119.03,1152.09 1121.08,1171.07 1123.14,1127.29 1125.19,1089.84 1127.24,954.373 1129.29,1198.08 1131.35,1232.96 1133.4,1091.6 1135.45,1261.34 1137.51,1267.73 1139.56,968.766 1141.61,1156.5 1143.66,1172.08 1145.72,1139.69 1147.77,1109.13 1149.82,1101.43 1151.88,1505.94 1153.93,1262.27 1155.98,1166.1 1158.03,1178.29 1160.09,1295.21 1162.14,1164.84 1164.19,1164.38 1166.25,1156.2 1168.3,1194.24 1170.35,1149.56 1172.4,1216.04 1174.46,1203.55 1176.51,1127.69 1178.56,1181.62 1180.62,1175.8 1182.67,1161.15 1184.72,1084.45 1186.77,1148.96 1188.83,1224.17 1190.88,1141.74 1192.93,1111.51 1194.99,1118.72 1197.04,1065.71 1199.09,1115.11 1201.15,1137.42 1203.2,952.276 1205.25,1333.47 1207.3,1122.44 1209.36,1287.07 1211.41,1005.51 1213.46,1163.83 1215.52,1173.2 1217.57,1187.23 1219.62,1148.82 1221.67,1091.15 1223.73,1273.74 1225.78,1325.87 1227.83,1143.92 1229.89,1130.71 1231.94,1155.63 1233.99,1156.81 1236.04,1218.61 1238.1,1206.73 1240.15,1191.75 1242.2,1169.1 1244.26,1181.94 1246.31,1169.82 1248.36,1162.78 1250.41,1155.4 1252.47,1143.2 1254.52,1183.59 1256.57,1191.82 1258.63,1161.3 1260.68,1138.18 1262.73,1155.42 1264.78,1171.86 1266.84,1198.21 1268.89,1144.45 1270.94,1201.75 1273,1146.86 1275.05,1179.5 1277.1,1194.82 1279.16,1193.18 1281.21,1176.59 1283.26,1263.59 1285.31,1172.19 1287.37,1488.82 1289.42,874.581 1291.47,1600.18 1293.53,1279.56 1295.58,1295.04 1297.63,1181.11 1299.68,1134.02 1301.74,1160.33 1303.79,1153.75 1305.84,1163.71 1307.9,1177.22 1309.95,1152.48 1312,1171 1314.05,1104.37 1316.11,1186.07 1318.16,1194.45 1320.21,1189.14 1322.27,1164.04 1324.32,1139.27 1326.37,1181.17 1328.42,1160.19 1330.48,1140.91 1332.53,1169.85 1334.58,1184.54 1336.64,1216.82 1338.69,964.056 1340.74,1056.57 1342.79,1024.53 1344.85,1152.23 1346.9,1135.8 1348.95,1139.37 1351.01,1070.43 1353.06,1138.81 1355.11,1147.09 1357.16,1197.82 1359.22,1152.29 1361.27,1132.58 1363.32,1153.33 1365.38,1211.91 1367.43,1201.02 1369.48,1116.28 1371.54,1096.26 1373.59,1120.6 1375.64,1168.61 1377.69,1078.87 1379.75,1150.82 1381.8,1112 1383.85,1166.7 1385.91,1166.51 1387.96,1162.52 1390.01,1163.65 1392.06,1163.9 1394.12,1184.21 1396.17,1140.86 1398.22,1145.67 1400.28,1118.86 1402.33,1232.18 1404.38,1042.83 1406.43,1107.09 1408.49,1085.84 1410.54,1406.4 1412.59,1111.92 1414.65,1259.9 1416.7,1196.62 1418.75,1093.74 1420.8,1359.98 1422.86,1319.02 1424.91,1224.39 1426.96,1128.66 1429.02,971.692 1431.07,1362.1 1433.12,977.648 1435.17,1277.07 1437.23,1273.15 1439.28,1057.78 1441.33,1242.01 1443.39,1278.37 1445.44,1098.71 1447.49,1211.53 1449.55,1124.28 1451.6,1227.12 1453.65,1179.88 1455.7,1243.37 1457.76,977.252 1459.81,1153.5 1461.86,1176.49 1463.92,1177.09 1465.97,1176.84 1468.02,1149.63 1470.07,1156.38 1472.13,1221.28 1474.18,1118.44 1476.23,1085.3 1478.29,1071.97 1480.34,1044.62 1482.39,1124.78 1484.44,1140.85 1486.5,1142.67 1488.55,1168.76 1490.6,1175.87 1492.66,1196.36 1494.71,1233.84 1496.76,1149.48 1498.81,1180.48 1500.87,1157.1 1502.92,1153.62 1504.97,1184.91 1507.03,1167.88 1509.08,1145.61 1511.13,1212.49 1513.18,1205.1 1515.24,963.568 1517.29,1136.04 1519.34,1138.04 1521.4,1142.52 1523.45,1254.5 1525.5,1217.37 1527.55,1161.71 1529.61,1172.76 1531.66,1193.38 1533.71,1146.27 1535.77,1154.04 1537.82,1165.34 1539.87,1132.8 1541.93,1161.88 1543.98,1171.54 1546.03,1150.43 1548.08,1256.22 1550.14,1161.19 1552.19,1193.36 1554.24,1172.7 1556.3,1171.94 1558.35,1203.5 1560.4,1189.35 1562.45,1163.96 1564.51,1148.63 1566.56,1177.5 1568.61,1173.56 1570.67,1172.22 1572.72,1163.4 1574.77,1162.69 1576.82,1215.74 1578.88,1279.47 1580.93,1143.98 1582.98,1187.34 1585.04,1136.56 1587.09,1218.95 1589.14,1195.75 1591.19,1145.07 1593.25,1145.21 1595.3,1235.93 1597.35,1070.01 1599.41,1279.48 1601.46,1115.56 1603.51,1277.24 1605.56,1054.58 1607.62,1191.68 1609.67,1147.3 1611.72,1149.14 1613.78,1133.06 1615.83,1144.03 1617.88,1215.1 1619.94,1120.32 1621.99,1118.32 1624.04,1118.87 1626.09,1230.25 1628.15,1214.4 1630.2,1147.61 1632.25,1144.54 1634.31,1176.22 1636.36,1183.17 1638.41,1171.13 1640.46,1148.57 1642.52,1237.75 1644.57,1165.14 1646.62,1174.59 1648.68,1161.8 1650.73,1121.54 1652.78,1093.47 1654.83,1149.84 1656.89,1196.81 1658.94,1135.5 1660.99,1186.67 1663.05,1137.43 1665.1,1294.12 1667.15,1194.21 1669.2,1162.16 1671.26,1302.47 1673.31,1110.13 1675.36,1122.68 1677.42,1060.68 1679.47,1038.73 1681.52,1169.82 1683.57,1390.16 1685.63,927.815 1687.68,297.796 1689.73,578.723 1691.79,1429.22 1693.84,1531.95 1695.89,1033.32 1697.94,1665.84 1700,751.902 1702.05,2489.2 1704.1,1710.19 1706.16,1713.65 1708.21,740.55 1710.26,-780.969 1712.32,-34.7676 1714.37,1217.83 1716.42,1248.35 1718.47,1173.13 1720.53,1144.89 1722.58,1193.09 1724.63,1140.66 1726.69,1328.95 1728.74,1134.05 1730.79,1165.13 1732.84,1006.73 1734.9,1085.83 1736.95,1180.31 1739,1172.66 1741.06,1477.39 1743.11,949.358 1745.16,1276.06 1747.21,1112.43 1749.27,1230.91 1751.32,1175.16 1753.37,1175.07 1755.43,1162.45 1757.48,1156.02 1759.53,1173.18 1761.58,934.966 1763.64,1762.19 1765.69,828.038 1767.74,1316.46 1769.8,1161.06 1771.85,1182.46 1773.9,1176.65 1775.95,1155.62 1778.01,1150.74 1780.06,1139.87 1782.11,1195.36 1784.17,1199.23 1786.22,1170.88 1788.27,1117.37 1790.33,1188.1 1792.38,1135.37 1794.43,1103.44 1796.48,1158.95 1798.54,974.771 1800.59,963.214 1802.64,1419.62 1804.7,1388.52 1806.75,1722.96 1808.8,719.127 1810.85,1203.48 1812.91,1227.2 1814.96,991.593 1817.01,1132.05 1819.07,1137.27 1821.12,1095.36 1823.17,1161.42 1825.22,1105.52 1827.28,1101.91 1829.33,1169.8 1831.38,1145.79 1833.44,1161.59 1835.49,1144.89 1837.54,1230.37 1839.59,1122.91 1841.65,1217.56 1843.7,1143.21 1845.75,1188.51 1847.81,1198.21 1849.86,1182.43 1851.91,1178.59 1853.96,1260.21 1856.02,1185.75 1858.07,1260.52 1860.12,1160.16 1862.18,1160.31 1864.23,1181.62 1866.28,1188.68 1868.34,1149.2 1870.39,1226.73 1872.44,1168.37 1874.49,1173.29 1876.55,1178.26 1878.6,1133.3 1880.65,1230.84 1882.71,1139.33 1884.76,1147.68 1886.81,1166.87 1888.86,1265.22 1890.92,1142.67 1892.97,1169.38 1895.02,1167.07 1897.08,1207.97 1899.13,1130.72 1901.18,1149.68 1903.23,1196.75 1905.29,1192.58 1907.34,1232.18 1909.39,1216.46 1911.45,1245.08 1913.5,1139.19 1915.55,1196 1917.6,1179.88 1919.66,1157.02 1921.71,1107.98 1923.76,1210.48 1925.82,1128.45 1927.87,1145.64 1929.92,1173.97 1931.97,1143 1934.03,1156.33 1936.08,1212.46 1938.13,1166.49 1940.19,1193.66 1942.24,1208.47 1944.29,1166.16 1946.34,1167.99 1948.4,1140.89 1950.45,1117.72 1952.5,1194.9 1954.56,1166.46 1956.61,1154.35 1958.66,1223.68 1960.72,1054.5 1962.77,1658.63 1964.82,-1393.79 1966.87,718.706 1968.93,1219.3 1970.98,-1378.19 1973.03,1208.95 1975.09,1185.51 1977.14,1155.29 1979.19,1190.05 1981.24,1173.16 1983.3,1158.35 1985.35,1203.36 1987.4,1141.89 1989.46,1195.96 1991.51,1148.22 1993.56,1186.94 1995.61,1177.49 1997.67,1162.06 1999.72,1169.53 2001.77,1153.52 2003.83,1205.88 2005.88,1199.43 2007.93,1122.42 2009.98,1176.7 2012.04,1184.3 2014.09,1220.6 2016.14,1215.18 2018.2,1235.71 2020.25,1196.56 2022.3,1180.89 2024.35,1139.46 2026.41,1144.36 2028.46,1197.37 2030.51,1271.59 2032.57,1328.35 2034.62,1279.53 2036.67,1121.1 2038.73,1202.21 2040.78,1162.1 2042.83,1187.23 2044.88,1149.56 2046.94,1182.91 2048.99,1199.68 2051.04,1075.76 2053.1,1197.54 2055.15,1138 2057.2,1139.78 2059.25,1247.95 2061.31,1238.71 2063.36,1265.17 2065.41,1158.48 2067.47,1149.9 2069.52,1127.67 2071.57,1098.61 2073.62,1129.99 2075.68,1155.32 2077.73,1124.64 2079.78,1176.95 2081.84,1107.43 2083.89,1174.37 2085.94,1140.42 2087.99,1132.18 2090.05,1193.23 2092.1,1034.73 2094.15,1146.52 2096.21,1186.84 2098.26,1156.42 2100.31,1152.85 2102.36,1173.34 2104.42,1153.05 2106.47,1168.47 2108.52,1137.03 2110.58,1135.6 2112.63,1181.89 2114.68,1174.08 2116.73,1163.99 2118.79,1156.32 2120.84,1199.22 2122.89,1228.42 2124.95,1296.8 2127,1174.05 2129.05,1172.41 2131.11,1170.25 2133.16,1103.47 2135.21,1190.72 2137.26,1152.88 2139.32,1090.72 2141.37,1187.5 2143.42,1133.87 2145.48,1158.39 2147.53,1497.47 2149.58,1158.2 2151.63,1117.18 2153.69,1185.62 2155.74,1208.79 2157.79,1095.52 2159.85,1010.01 2161.9,1644.49 2163.95,1251.25 2166,1072.68 2168.06,1184.29 2170.11,1062.82 2172.16,1131.08 2174.22,1215.74 2176.27,1170.13 2178.32,1226.6 2180.37,1182.57 2182.43,1159.62 2184.48,1153.76 2186.53,1152.64 2188.59,1742.76 2190.64,944.447 2192.69,1195.28 2194.74,997.974 2196.8,1568.28 2198.85,1527.2 2200.9,860.531 2202.96,1365.72 2205.01,1071.4 2207.06,1151.1 2209.12,1155.35 2211.17,1131.27 2213.22,1174.44 2215.27,882.941 2217.33,1131.55 2219.38,1134.49 2221.43,1184.02 2223.49,1157.49 2225.54,1158.6 2227.59,1264.42 2229.64,975.872 2231.7,1217.24 2233.75,1328.59 2235.8,1330.83 2237.86,1201.87 2239.91,1136.15 2241.96,1140.91 2244.01,1177.12 2246.07,1154.44 2248.12,1188.78 2250.17,1171.22 2252.23,1164.09 2254.28,1197.26 2256.33,1119.72 2258.38,1087.66 2260.44,1139.84 2262.49,1225.01 2264.54,1143.69 2266.6,1148.76 2268.65,1147.62 2270.7,1144.36 2272.75,1166.51 2274.81,1171.06 2276.86,1185.43 2278.91,1146.87 2280.97,1199.34 2283.02,1125.11 2285.07,1129.47 2287.12,1304.65 2289.18,1221.88 2291.23,1117.03 "/>
<path clip-path="url(#clip950)" d="M251.33 1465.14 L588.926 1465.14 L588.926 1361.46 L251.33 1361.46  Z" fill="#ffffff" fill-rule="evenodd" fill-opacity="1"/>
<polyline clip-path="url(#clip950)" style="stroke:#000000; stroke-linecap:round; stroke-linejoin:round; stroke-width:4; stroke-opacity:1; fill:none" points="251.33,1465.14 588.926,1465.14 588.926,1361.46 251.33,1361.46 251.33,1465.14 "/>
<polyline clip-path="url(#clip950)" style="stroke:#009af9; stroke-linecap:round; stroke-linejoin:round; stroke-width:4; stroke-opacity:1; fill:none" points="275.484,1413.3 420.41,1413.3 "/>
<path clip-path="url(#clip950)" d="M470.12 1425.65 L470.12 1416.37 L462.481 1416.37 L462.481 1412.53 L474.749 1412.53 L474.749 1427.36 Q472.041 1429.28 468.777 1430.28 Q465.513 1431.25 461.809 1431.25 Q453.708 1431.25 449.124 1426.53 Q444.564 1421.78 444.564 1413.34 Q444.564 1404.86 449.124 1400.14 Q453.708 1395.4 461.809 1395.4 Q465.189 1395.4 468.221 1396.23 Q471.277 1397.06 473.846 1398.68 L473.846 1403.66 Q471.254 1401.46 468.337 1400.35 Q465.421 1399.24 462.203 1399.24 Q455.86 1399.24 452.666 1402.78 Q449.495 1406.32 449.495 1413.34 Q449.495 1420.33 452.666 1423.87 Q455.86 1427.41 462.203 1427.41 Q464.68 1427.41 466.624 1426.99 Q468.569 1426.55 470.12 1425.65 Z" fill="#000000" fill-rule="nonzero" fill-opacity="1" /><path clip-path="url(#clip950)" d="M487.967 1399.86 L487.967 1412.85 L493.846 1412.85 Q497.11 1412.85 498.893 1411.16 Q500.675 1409.47 500.675 1406.35 Q500.675 1403.24 498.893 1401.55 Q497.11 1399.86 493.846 1399.86 L487.967 1399.86 M483.291 1396.02 L493.846 1396.02 Q499.657 1396.02 502.619 1398.66 Q505.606 1401.28 505.606 1406.35 Q505.606 1411.46 502.619 1414.08 Q499.657 1416.69 493.846 1416.69 L487.967 1416.69 L487.967 1430.58 L483.291 1430.58 L483.291 1396.02 Z" fill="#000000" fill-rule="nonzero" fill-opacity="1" /><path clip-path="url(#clip950)" d="M532.596 1397.16 L532.596 1401.72 Q529.934 1400.44 527.573 1399.82 Q525.212 1399.19 523.013 1399.19 Q519.193 1399.19 517.11 1400.67 Q515.05 1402.16 515.05 1404.89 Q515.05 1407.18 516.416 1408.36 Q517.805 1409.52 521.647 1410.23 L524.471 1410.81 Q529.703 1411.81 532.179 1414.33 Q534.679 1416.83 534.679 1421.04 Q534.679 1426.07 531.3 1428.66 Q527.943 1431.25 521.439 1431.25 Q518.985 1431.25 516.207 1430.7 Q513.453 1430.14 510.49 1429.05 L510.49 1424.24 Q513.337 1425.84 516.068 1426.65 Q518.8 1427.46 521.439 1427.46 Q525.443 1427.46 527.619 1425.88 Q529.795 1424.31 529.795 1421.39 Q529.795 1418.85 528.221 1417.41 Q526.67 1415.97 523.105 1415.26 L520.258 1414.7 Q515.027 1413.66 512.689 1411.44 Q510.351 1409.22 510.351 1405.26 Q510.351 1400.67 513.568 1398.03 Q516.809 1395.4 522.48 1395.4 Q524.911 1395.4 527.434 1395.84 Q529.957 1396.28 532.596 1397.16 Z" fill="#000000" fill-rule="nonzero" fill-opacity="1" /><path clip-path="url(#clip950)" d="M562.689 1397.16 L562.689 1401.72 Q560.027 1400.44 557.665 1399.82 Q555.304 1399.19 553.105 1399.19 Q549.286 1399.19 547.203 1400.67 Q545.142 1402.16 545.142 1404.89 Q545.142 1407.18 546.508 1408.36 Q547.897 1409.52 551.74 1410.23 L554.564 1410.81 Q559.795 1411.81 562.272 1414.33 Q564.772 1416.83 564.772 1421.04 Q564.772 1426.07 561.392 1428.66 Q558.036 1431.25 551.531 1431.25 Q549.078 1431.25 546.3 1430.7 Q543.545 1430.14 540.582 1429.05 L540.582 1424.24 Q543.429 1425.84 546.161 1426.65 Q548.892 1427.46 551.531 1427.46 Q555.536 1427.46 557.712 1425.88 Q559.888 1424.31 559.888 1421.39 Q559.888 1418.85 558.314 1417.41 Q556.763 1415.97 553.198 1415.26 L550.351 1414.7 Q545.119 1413.66 542.781 1411.44 Q540.443 1409.22 540.443 1405.26 Q540.443 1400.67 543.661 1398.03 Q546.902 1395.4 552.573 1395.4 Q555.003 1395.4 557.527 1395.84 Q560.05 1396.28 562.689 1397.16 Z" fill="#000000" fill-rule="nonzero" fill-opacity="1" /></svg>
