<?xml version="1.0" encoding="utf-8"?>
<svg xmlns="http://www.w3.org/2000/svg" xmlns:xlink="http://www.w3.org/1999/xlink" width="600" height="400" viewBox="0 0 2400 1600">
<defs>
  <clipPath id="clip990">
    <rect x="0" y="0" width="2400" height="1600"/>
  </clipPath>
</defs>
<path clip-path="url(#clip990)" d="M0 1600 L2400 1600 L2400 0 L0 0  Z" fill="#ffffff" fill-rule="evenodd" fill-opacity="1"/>
<defs>
  <clipPath id="clip991">
    <rect x="480" y="0" width="1681" height="1600"/>
  </clipPath>
</defs>
<path clip-path="url(#clip990)" d="M178.867 686.448 L2352.76 686.448 L2352.76 47.2441 L178.867 47.2441  Z" fill="#ffffff" fill-rule="evenodd" fill-opacity="1"/>
<defs>
  <clipPath id="clip992">
    <rect x="178" y="47" width="2175" height="640"/>
  </clipPath>
</defs>
<polyline clip-path="url(#clip992)" style="stroke:#000000; stroke-linecap:round; stroke-linejoin:round; stroke-width:2; stroke-opacity:0.1; fill:none" points="238.339,686.448 238.339,47.2441 "/>
<polyline clip-path="url(#clip992)" style="stroke:#000000; stroke-linecap:round; stroke-linejoin:round; stroke-width:2; stroke-opacity:0.1; fill:none" points="751.562,686.448 751.562,47.2441 "/>
<polyline clip-path="url(#clip992)" style="stroke:#000000; stroke-linecap:round; stroke-linejoin:round; stroke-width:2; stroke-opacity:0.1; fill:none" points="1264.78,686.448 1264.78,47.2441 "/>
<polyline clip-path="url(#clip992)" style="stroke:#000000; stroke-linecap:round; stroke-linejoin:round; stroke-width:2; stroke-opacity:0.1; fill:none" points="1778.01,686.448 1778.01,47.2441 "/>
<polyline clip-path="url(#clip992)" style="stroke:#000000; stroke-linecap:round; stroke-linejoin:round; stroke-width:2; stroke-opacity:0.1; fill:none" points="2291.23,686.448 2291.23,47.2441 "/>
<polyline clip-path="url(#clip992)" style="stroke:#000000; stroke-linecap:round; stroke-linejoin:round; stroke-width:2; stroke-opacity:0.1; fill:none" points="178.867,686.448 2352.76,686.448 "/>
<polyline clip-path="url(#clip992)" style="stroke:#000000; stroke-linecap:round; stroke-linejoin:round; stroke-width:2; stroke-opacity:0.1; fill:none" points="178.867,526.647 2352.76,526.647 "/>
<polyline clip-path="url(#clip992)" style="stroke:#000000; stroke-linecap:round; stroke-linejoin:round; stroke-width:2; stroke-opacity:0.1; fill:none" points="178.867,366.846 2352.76,366.846 "/>
<polyline clip-path="url(#clip992)" style="stroke:#000000; stroke-linecap:round; stroke-linejoin:round; stroke-width:2; stroke-opacity:0.1; fill:none" points="178.867,207.045 2352.76,207.045 "/>
<polyline clip-path="url(#clip992)" style="stroke:#000000; stroke-linecap:round; stroke-linejoin:round; stroke-width:2; stroke-opacity:0.1; fill:none" points="178.867,47.2441 2352.76,47.2441 "/>
<polyline clip-path="url(#clip990)" style="stroke:#000000; stroke-linecap:round; stroke-linejoin:round; stroke-width:4; stroke-opacity:1; fill:none" points="178.867,686.448 2352.76,686.448 "/>
<polyline clip-path="url(#clip990)" style="stroke:#000000; stroke-linecap:round; stroke-linejoin:round; stroke-width:4; stroke-opacity:1; fill:none" points="238.339,686.448 238.339,667.55 "/>
<polyline clip-path="url(#clip990)" style="stroke:#000000; stroke-linecap:round; stroke-linejoin:round; stroke-width:4; stroke-opacity:1; fill:none" points="751.562,686.448 751.562,667.55 "/>
<polyline clip-path="url(#clip990)" style="stroke:#000000; stroke-linecap:round; stroke-linejoin:round; stroke-width:4; stroke-opacity:1; fill:none" points="1264.78,686.448 1264.78,667.55 "/>
<polyline clip-path="url(#clip990)" style="stroke:#000000; stroke-linecap:round; stroke-linejoin:round; stroke-width:4; stroke-opacity:1; fill:none" points="1778.01,686.448 1778.01,667.55 "/>
<polyline clip-path="url(#clip990)" style="stroke:#000000; stroke-linecap:round; stroke-linejoin:round; stroke-width:4; stroke-opacity:1; fill:none" points="2291.23,686.448 2291.23,667.55 "/>
<path clip-path="url(#clip990)" d="M238.339 717.367 Q234.728 717.367 232.899 720.931 Q231.094 724.473 231.094 731.603 Q231.094 738.709 232.899 742.274 Q234.728 745.815 238.339 745.815 Q241.973 745.815 243.779 742.274 Q245.607 738.709 245.607 731.603 Q245.607 724.473 243.779 720.931 Q241.973 717.367 238.339 717.367 M238.339 713.663 Q244.149 713.663 247.205 718.269 Q250.283 722.853 250.283 731.603 Q250.283 740.329 247.205 744.936 Q244.149 749.519 238.339 749.519 Q232.529 749.519 229.45 744.936 Q226.395 740.329 226.395 731.603 Q226.395 722.853 229.45 718.269 Q232.529 713.663 238.339 713.663 Z" fill="#000000" fill-rule="nonzero" fill-opacity="1" /><path clip-path="url(#clip990)" d="M715.254 744.913 L731.574 744.913 L731.574 748.848 L709.629 748.848 L709.629 744.913 Q712.291 742.158 716.875 737.528 Q721.481 732.876 722.662 731.533 Q724.907 729.01 725.787 727.274 Q726.689 725.515 726.689 723.825 Q726.689 721.07 724.745 719.334 Q722.824 717.598 719.722 717.598 Q717.523 717.598 715.069 718.362 Q712.638 719.126 709.861 720.677 L709.861 715.955 Q712.685 714.82 715.138 714.242 Q717.592 713.663 719.629 713.663 Q725 713.663 728.194 716.348 Q731.388 719.033 731.388 723.524 Q731.388 725.654 730.578 727.575 Q729.791 729.473 727.685 732.066 Q727.106 732.737 724.004 735.954 Q720.902 739.149 715.254 744.913 Z" fill="#000000" fill-rule="nonzero" fill-opacity="1" /><path clip-path="url(#clip990)" d="M741.435 714.288 L759.791 714.288 L759.791 718.223 L745.717 718.223 L745.717 726.695 Q746.736 726.348 747.754 726.186 Q748.773 726.001 749.791 726.001 Q755.578 726.001 758.958 729.172 Q762.337 732.343 762.337 737.76 Q762.337 743.339 758.865 746.44 Q755.393 749.519 749.073 749.519 Q746.898 749.519 744.629 749.149 Q742.384 748.778 739.976 748.038 L739.976 743.339 Q742.06 744.473 744.282 745.028 Q746.504 745.584 748.981 745.584 Q752.985 745.584 755.323 743.478 Q757.661 741.371 757.661 737.76 Q757.661 734.149 755.323 732.042 Q752.985 729.936 748.981 729.936 Q747.106 729.936 745.231 730.353 Q743.379 730.769 741.435 731.649 L741.435 714.288 Z" fill="#000000" fill-rule="nonzero" fill-opacity="1" /><path clip-path="url(#clip990)" d="M781.55 717.367 Q777.939 717.367 776.11 720.931 Q774.305 724.473 774.305 731.603 Q774.305 738.709 776.11 742.274 Q777.939 745.815 781.55 745.815 Q785.184 745.815 786.99 742.274 Q788.819 738.709 788.819 731.603 Q788.819 724.473 786.99 720.931 Q785.184 717.367 781.55 717.367 M781.55 713.663 Q787.36 713.663 790.416 718.269 Q793.495 722.853 793.495 731.603 Q793.495 740.329 790.416 744.936 Q787.36 749.519 781.55 749.519 Q775.74 749.519 772.661 744.936 Q769.606 740.329 769.606 731.603 Q769.606 722.853 772.661 718.269 Q775.74 713.663 781.55 713.663 Z" fill="#000000" fill-rule="nonzero" fill-opacity="1" /><path clip-path="url(#clip990)" d="M1224.4 714.288 L1242.76 714.288 L1242.76 718.223 L1228.69 718.223 L1228.69 726.695 Q1229.7 726.348 1230.72 726.186 Q1231.74 726.001 1232.76 726.001 Q1238.55 726.001 1241.93 729.172 Q1245.31 732.343 1245.31 737.76 Q1245.31 743.339 1241.83 746.44 Q1238.36 749.519 1232.04 749.519 Q1229.87 749.519 1227.6 749.149 Q1225.35 748.778 1222.94 748.038 L1222.94 743.339 Q1225.03 744.473 1227.25 745.028 Q1229.47 745.584 1231.95 745.584 Q1235.95 745.584 1238.29 743.478 Q1240.63 741.371 1240.63 737.76 Q1240.63 734.149 1238.29 732.042 Q1235.95 729.936 1231.95 729.936 Q1230.07 729.936 1228.2 730.353 Q1226.35 730.769 1224.4 731.649 L1224.4 714.288 Z" fill="#000000" fill-rule="nonzero" fill-opacity="1" /><path clip-path="url(#clip990)" d="M1264.52 717.367 Q1260.91 717.367 1259.08 720.931 Q1257.27 724.473 1257.27 731.603 Q1257.27 738.709 1259.08 742.274 Q1260.91 745.815 1264.52 745.815 Q1268.15 745.815 1269.96 742.274 Q1271.79 738.709 1271.79 731.603 Q1271.79 724.473 1269.96 720.931 Q1268.15 717.367 1264.52 717.367 M1264.52 713.663 Q1270.33 713.663 1273.38 718.269 Q1276.46 722.853 1276.46 731.603 Q1276.46 740.329 1273.38 744.936 Q1270.33 749.519 1264.52 749.519 Q1258.71 749.519 1255.63 744.936 Q1252.57 740.329 1252.57 731.603 Q1252.57 722.853 1255.63 718.269 Q1258.71 713.663 1264.52 713.663 Z" fill="#000000" fill-rule="nonzero" fill-opacity="1" /><path clip-path="url(#clip990)" d="M1294.68 717.367 Q1291.07 717.367 1289.24 720.931 Q1287.44 724.473 1287.44 731.603 Q1287.44 738.709 1289.24 742.274 Q1291.07 745.815 1294.68 745.815 Q1298.31 745.815 1300.12 742.274 Q1301.95 738.709 1301.95 731.603 Q1301.95 724.473 1300.12 720.931 Q1298.31 717.367 1294.68 717.367 M1294.68 713.663 Q1300.49 713.663 1303.55 718.269 Q1306.62 722.853 1306.62 731.603 Q1306.62 740.329 1303.55 744.936 Q1300.49 749.519 1294.68 749.519 Q1288.87 749.519 1285.79 744.936 Q1282.74 740.329 1282.74 731.603 Q1282.74 722.853 1285.79 718.269 Q1288.87 713.663 1294.68 713.663 Z" fill="#000000" fill-rule="nonzero" fill-opacity="1" /><path clip-path="url(#clip990)" d="M1736.28 714.288 L1758.51 714.288 L1758.51 716.279 L1745.96 748.848 L1741.08 748.848 L1752.88 718.223 L1736.28 718.223 L1736.28 714.288 Z" fill="#000000" fill-rule="nonzero" fill-opacity="1" /><path clip-path="url(#clip990)" d="M1767.67 714.288 L1786.03 714.288 L1786.03 718.223 L1771.95 718.223 L1771.95 726.695 Q1772.97 726.348 1773.99 726.186 Q1775.01 726.001 1776.03 726.001 Q1781.82 726.001 1785.2 729.172 Q1788.57 732.343 1788.57 737.76 Q1788.57 743.339 1785.1 746.44 Q1781.63 749.519 1775.31 749.519 Q1773.14 749.519 1770.87 749.149 Q1768.62 748.778 1766.21 748.038 L1766.21 743.339 Q1768.3 744.473 1770.52 745.028 Q1772.74 745.584 1775.22 745.584 Q1779.22 745.584 1781.56 743.478 Q1783.9 741.371 1783.9 737.76 Q1783.9 734.149 1781.56 732.042 Q1779.22 729.936 1775.22 729.936 Q1773.34 729.936 1771.47 730.353 Q1769.62 730.769 1767.67 731.649 L1767.67 714.288 Z" fill="#000000" fill-rule="nonzero" fill-opacity="1" /><path clip-path="url(#clip990)" d="M1807.79 717.367 Q1804.18 717.367 1802.35 720.931 Q1800.54 724.473 1800.54 731.603 Q1800.54 738.709 1802.35 742.274 Q1804.18 745.815 1807.79 745.815 Q1811.42 745.815 1813.23 742.274 Q1815.06 738.709 1815.06 731.603 Q1815.06 724.473 1813.23 720.931 Q1811.42 717.367 1807.79 717.367 M1807.79 713.663 Q1813.6 713.663 1816.65 718.269 Q1819.73 722.853 1819.73 731.603 Q1819.73 740.329 1816.65 744.936 Q1813.6 749.519 1807.79 749.519 Q1801.98 749.519 1798.9 744.936 Q1795.84 740.329 1795.84 731.603 Q1795.84 722.853 1798.9 718.269 Q1801.98 713.663 1807.79 713.663 Z" fill="#000000" fill-rule="nonzero" fill-opacity="1" /><path clip-path="url(#clip990)" d="M2235.76 744.913 L2243.4 744.913 L2243.4 718.547 L2235.09 720.214 L2235.09 715.955 L2243.35 714.288 L2248.02 714.288 L2248.02 744.913 L2255.66 744.913 L2255.66 748.848 L2235.76 748.848 L2235.76 744.913 Z" fill="#000000" fill-rule="nonzero" fill-opacity="1" /><path clip-path="url(#clip990)" d="M2275.11 717.367 Q2271.5 717.367 2269.67 720.931 Q2267.86 724.473 2267.86 731.603 Q2267.86 738.709 2269.67 742.274 Q2271.5 745.815 2275.11 745.815 Q2278.74 745.815 2280.55 742.274 Q2282.38 738.709 2282.38 731.603 Q2282.38 724.473 2280.55 720.931 Q2278.74 717.367 2275.11 717.367 M2275.11 713.663 Q2280.92 713.663 2283.97 718.269 Q2287.05 722.853 2287.05 731.603 Q2287.05 740.329 2283.97 744.936 Q2280.92 749.519 2275.11 749.519 Q2269.3 749.519 2266.22 744.936 Q2263.16 740.329 2263.16 731.603 Q2263.16 722.853 2266.22 718.269 Q2269.3 713.663 2275.11 713.663 Z" fill="#000000" fill-rule="nonzero" fill-opacity="1" /><path clip-path="url(#clip990)" d="M2305.27 717.367 Q2301.66 717.367 2299.83 720.931 Q2298.02 724.473 2298.02 731.603 Q2298.02 738.709 2299.83 742.274 Q2301.66 745.815 2305.27 745.815 Q2308.9 745.815 2310.71 742.274 Q2312.54 738.709 2312.54 731.603 Q2312.54 724.473 2310.71 720.931 Q2308.9 717.367 2305.27 717.367 M2305.27 713.663 Q2311.08 713.663 2314.14 718.269 Q2317.21 722.853 2317.21 731.603 Q2317.21 740.329 2314.14 744.936 Q2311.08 749.519 2305.27 749.519 Q2299.46 749.519 2296.38 744.936 Q2293.33 740.329 2293.33 731.603 Q2293.33 722.853 2296.38 718.269 Q2299.46 713.663 2305.27 713.663 Z" fill="#000000" fill-rule="nonzero" fill-opacity="1" /><path clip-path="url(#clip990)" d="M2335.43 717.367 Q2331.82 717.367 2329.99 720.931 Q2328.19 724.473 2328.19 731.603 Q2328.19 738.709 2329.99 742.274 Q2331.82 745.815 2335.43 745.815 Q2339.07 745.815 2340.87 742.274 Q2342.7 738.709 2342.7 731.603 Q2342.7 724.473 2340.87 720.931 Q2339.07 717.367 2335.43 717.367 M2335.43 713.663 Q2341.24 713.663 2344.3 718.269 Q2347.38 722.853 2347.38 731.603 Q2347.38 740.329 2344.3 744.936 Q2341.24 749.519 2335.43 749.519 Q2329.62 749.519 2326.54 744.936 Q2323.49 740.329 2323.49 731.603 Q2323.49 722.853 2326.54 718.269 Q2329.62 713.663 2335.43 713.663 Z" fill="#000000" fill-rule="nonzero" fill-opacity="1" /><polyline clip-path="url(#clip990)" style="stroke:#000000; stroke-linecap:round; stroke-linejoin:round; stroke-width:4; stroke-opacity:1; fill:none" points="178.867,686.448 178.867,47.2441 "/>
<polyline clip-path="url(#clip990)" style="stroke:#000000; stroke-linecap:round; stroke-linejoin:round; stroke-width:4; stroke-opacity:1; fill:none" points="178.867,686.448 197.764,686.448 "/>
<polyline clip-path="url(#clip990)" style="stroke:#000000; stroke-linecap:round; stroke-linejoin:round; stroke-width:4; stroke-opacity:1; fill:none" points="178.867,526.647 197.764,526.647 "/>
<polyline clip-path="url(#clip990)" style="stroke:#000000; stroke-linecap:round; stroke-linejoin:round; stroke-width:4; stroke-opacity:1; fill:none" points="178.867,366.846 197.764,366.846 "/>
<polyline clip-path="url(#clip990)" style="stroke:#000000; stroke-linecap:round; stroke-linejoin:round; stroke-width:4; stroke-opacity:1; fill:none" points="178.867,207.045 197.764,207.045 "/>
<polyline clip-path="url(#clip990)" style="stroke:#000000; stroke-linecap:round; stroke-linejoin:round; stroke-width:4; stroke-opacity:1; fill:none" points="178.867,47.2441 197.764,47.2441 "/>
<path clip-path="url(#clip990)" d="M50.9921 686.899 L80.6679 686.899 L80.6679 690.834 L50.9921 690.834 L50.9921 686.899 Z" fill="#000000" fill-rule="nonzero" fill-opacity="1" /><path clip-path="url(#clip990)" d="M91.5706 699.793 L99.2095 699.793 L99.2095 673.427 L90.8993 675.094 L90.8993 670.835 L99.1632 669.168 L103.839 669.168 L103.839 699.793 L111.478 699.793 L111.478 703.728 L91.5706 703.728 L91.5706 699.793 Z" fill="#000000" fill-rule="nonzero" fill-opacity="1" /><path clip-path="url(#clip990)" d="M130.922 672.247 Q127.311 672.247 125.482 675.811 Q123.677 679.353 123.677 686.483 Q123.677 693.589 125.482 697.154 Q127.311 700.695 130.922 700.695 Q134.556 700.695 136.362 697.154 Q138.191 693.589 138.191 686.483 Q138.191 679.353 136.362 675.811 Q134.556 672.247 130.922 672.247 M130.922 668.543 Q136.732 668.543 139.788 673.149 Q142.867 677.733 142.867 686.483 Q142.867 695.209 139.788 699.816 Q136.732 704.399 130.922 704.399 Q125.112 704.399 122.033 699.816 Q118.978 695.209 118.978 686.483 Q118.978 677.733 122.033 673.149 Q125.112 668.543 130.922 668.543 Z" fill="#000000" fill-rule="nonzero" fill-opacity="1" /><path clip-path="url(#clip990)" d="M82.1494 527.098 L111.825 527.098 L111.825 531.033 L82.1494 531.033 L82.1494 527.098 Z" fill="#000000" fill-rule="nonzero" fill-opacity="1" /><path clip-path="url(#clip990)" d="M121.964 509.367 L140.32 509.367 L140.32 513.302 L126.246 513.302 L126.246 521.774 Q127.265 521.427 128.283 521.265 Q129.302 521.08 130.32 521.08 Q136.107 521.08 139.487 524.251 Q142.867 527.422 142.867 532.839 Q142.867 538.418 139.394 541.52 Q135.922 544.598 129.603 544.598 Q127.427 544.598 125.158 544.228 Q122.913 543.857 120.506 543.117 L120.506 538.418 Q122.589 539.552 124.811 540.108 Q127.033 540.663 129.51 540.663 Q133.515 540.663 135.853 538.557 Q138.191 536.45 138.191 532.839 Q138.191 529.228 135.853 527.121 Q133.515 525.015 129.51 525.015 Q127.635 525.015 125.76 525.432 Q123.908 525.848 121.964 526.728 L121.964 509.367 Z" fill="#000000" fill-rule="nonzero" fill-opacity="1" /><path clip-path="url(#clip990)" d="M130.922 352.645 Q127.311 352.645 125.482 356.209 Q123.677 359.751 123.677 366.881 Q123.677 373.987 125.482 377.552 Q127.311 381.094 130.922 381.094 Q134.556 381.094 136.362 377.552 Q138.191 373.987 138.191 366.881 Q138.191 359.751 136.362 356.209 Q134.556 352.645 130.922 352.645 M130.922 348.941 Q136.732 348.941 139.788 353.547 Q142.867 358.131 142.867 366.881 Q142.867 375.608 139.788 380.214 Q136.732 384.797 130.922 384.797 Q125.112 384.797 122.033 380.214 Q118.978 375.608 118.978 366.881 Q118.978 358.131 122.033 353.547 Q125.112 348.941 130.922 348.941 Z" fill="#000000" fill-rule="nonzero" fill-opacity="1" /><path clip-path="url(#clip990)" d="M121.964 189.765 L140.32 189.765 L140.32 193.7 L126.246 193.7 L126.246 202.172 Q127.265 201.825 128.283 201.663 Q129.302 201.478 130.32 201.478 Q136.107 201.478 139.487 204.649 Q142.867 207.82 142.867 213.237 Q142.867 218.816 139.394 221.918 Q135.922 224.996 129.603 224.996 Q127.427 224.996 125.158 224.626 Q122.913 224.256 120.506 223.515 L120.506 218.816 Q122.589 219.95 124.811 220.506 Q127.033 221.061 129.51 221.061 Q133.515 221.061 135.853 218.955 Q138.191 216.848 138.191 213.237 Q138.191 209.626 135.853 207.52 Q133.515 205.413 129.51 205.413 Q127.635 205.413 125.76 205.83 Q123.908 206.246 121.964 207.126 L121.964 189.765 Z" fill="#000000" fill-rule="nonzero" fill-opacity="1" /><path clip-path="url(#clip990)" d="M91.5706 60.5889 L99.2095 60.5889 L99.2095 34.2233 L90.8993 35.89 L90.8993 31.6308 L99.1632 29.9641 L103.839 29.9641 L103.839 60.5889 L111.478 60.5889 L111.478 64.5241 L91.5706 64.5241 L91.5706 60.5889 Z" fill="#000000" fill-rule="nonzero" fill-opacity="1" /><path clip-path="url(#clip990)" d="M130.922 33.0428 Q127.311 33.0428 125.482 36.6076 Q123.677 40.1492 123.677 47.2788 Q123.677 54.3853 125.482 57.9501 Q127.311 61.4917 130.922 61.4917 Q134.556 61.4917 136.362 57.9501 Q138.191 54.3853 138.191 47.2788 Q138.191 40.1492 136.362 36.6076 Q134.556 33.0428 130.922 33.0428 M130.922 29.3391 Q136.732 29.3391 139.788 33.9456 Q142.867 38.5289 142.867 47.2788 Q142.867 56.0056 139.788 60.6121 Q136.732 65.1954 130.922 65.1954 Q125.112 65.1954 122.033 60.6121 Q118.978 56.0056 118.978 47.2788 Q118.978 38.5289 122.033 33.9456 Q125.112 29.3391 130.922 29.3391 Z" fill="#000000" fill-rule="nonzero" fill-opacity="1" /><polyline clip-path="url(#clip992)" style="stroke:#009af9; stroke-linecap:round; stroke-linejoin:round; stroke-width:4; stroke-opacity:1; fill:none" points="240.392,334.886 242.445,332.911 244.498,332.477 246.55,329.812 248.603,350.888 250.656,350.918 252.709,350.478 254.762,345.253 256.815,405.959 258.868,351.213 260.921,351.816 262.974,354.422 265.027,370.265 267.079,355.26 269.132,341.895 271.185,344.675 273.238,349.223 275.291,348.616 277.344,348.619 279.397,357.519 281.45,442.914 283.503,395.798 285.555,408.248 287.608,407.119 289.661,357.058 291.714,397.568 293.767,399.268 295.82,397.893 297.873,398.305 299.926,395.266 301.979,407.41 304.031,406.743 306.084,408.787 308.137,372.708 310.19,377.366 312.243,381.11 314.296,381.11 316.349,390.536 318.402,394.782 320.455,353.772 322.507,359.113 324.56,334.564 326.613,355.244 328.666,352.084 330.719,351.546 332.772,353.64 334.825,358.401 336.878,358.383 338.931,350.887 340.984,345.625 343.036,307.51 345.089,306.913 347.142,307.055 349.195,302.048 351.248,360.199 353.301,362.699 355.354,357.063 357.407,357.068 359.46,359.841 361.512,388.966 363.565,389.19 365.618,361.078 367.671,362.295 369.724,334.576 371.777,332.093 373.83,365.767 375.883,367.05 377.936,376.164 379.988,367.812 382.041,370.346 384.094,369.943 386.147,355.794 388.2,424.369 390.253,423.889 392.306,427.038 394.359,427.226 396.412,400.425 398.464,358.084 400.517,356.709 402.57,352.277 404.623,352.288 406.676,334.907 408.729,333.462 410.782,348.295 412.835,356.704 414.888,345.224 416.94,344.355 418.993,365.351 421.046,387.133 423.099,389.711 425.152,395.54 427.205,403.195 429.258,450.131 431.311,411.827 433.364,370.368 435.417,370.315 437.469,372.06 439.522,372.517 441.575,372.796 443.628,359.975 445.681,367.788 447.734,365.553 449.787,289.517 451.84,289.599 453.893,352.375 455.945,360.436 457.998,382.428 460.051,387.159 462.104,387.637 464.157,387.582 466.21,380.63 468.263,380.067 470.316,380.092 472.369,198.206 474.421,198.928 476.474,197.737 478.527,192.865 480.58,196.46 482.633,199.095 484.686,194.632 486.739,276.427 488.792,296.215 490.845,314.997 492.897,302.555 494.95,234.292 497.003,225.6 499.056,252.611 501.109,254.131 503.162,251.34 505.215,250.529 507.268,304.521 509.321,317.115 511.374,320.445 513.426,349.498 515.479,349.987 517.532,231.753 519.585,234.245 521.638,220.674 523.691,214.171 525.744,218.785 527.797,265.494 529.85,273.994 531.902,278.021 533.955,297.102 536.008,299.396 538.061,283.071 540.114,279.826 542.167,274.726 544.22,330.545 546.273,330.744 548.326,332.129 550.378,330.599 552.431,359.646 554.484,384.563 556.537,369.599 558.59,366.637 560.643,531.896 562.696,489.288 564.749,494.854 566.802,491.106 568.854,483.4 570.907,432.572 572.96,426.916 575.013,404.334 577.066,355.738 579.119,372.322 581.172,367.567 583.225,371.529 585.278,369.854 587.331,370.702 589.383,382.444 591.436,395.9 593.489,379.961 595.542,400.375 597.595,403.036 599.648,393.834 601.701,396.691 603.754,396.383 605.807,394.989 607.859,394.33 609.912,362.205 611.965,371.605 614.018,374.658 616.071,376.643 618.124,314.785 620.177,310.53 622.23,310.31 624.283,310.719 626.335,311.152 628.388,326.98 630.441,326.081 632.494,385.124 634.547,422.628 636.6,426.619 638.653,426.623 640.706,412.348 642.759,408.029 644.811,380.924 646.864,358.221 648.917,355.714 650.97,354.541 653.023,353.486 655.076,353.899 657.129,350.857 659.182,350.194 661.235,349.785 663.288,373.183 665.34,372.761 667.393,372.757 669.446,354.433 671.499,353.592 673.552,353.573 675.605,346.063 677.658,346.731 679.711,346.723 681.764,346.712 683.816,345.932 685.869,343.192 687.922,335.71 689.975,337.649 692.028,337.548 694.081,337.291 696.134,336.265 698.187,368.43 700.24,368.482 702.292,360.731 704.345,360.07 706.398,366.772 708.451,366.949 710.504,366.226 712.557,382.578 714.61,387.347 716.663,358.495 718.716,358.43 720.768,358.633 722.821,358.686 724.874,348.298 726.927,337.333 728.98,341.648 731.033,340.158 733.086,340.38 735.139,344.309 737.192,364.586 739.245,364.468 741.297,364.205 743.35,364.73 745.403,364.763 747.456,364.2 749.509,369.614 751.562,367.76 753.615,367.67 755.668,367.718 757.721,367.211 759.773,367.31 761.826,367.881 763.879,376.632 765.932,365.732 767.985,356.394 770.038,358.158 772.091,359.899 774.144,359.478 776.197,359.574 778.249,340.155 780.302,372.575 782.355,370.722 784.408,370.216 786.461,370.211 788.514,389.626 790.567,380.438 792.62,381.865 794.673,394.608 796.725,394.677 798.778,382.036 800.831,384.109 802.884,398.371 804.937,494.181 806.99,498.389 809.043,494.985 811.096,518.017 813.149,518.661 815.202,524.033 817.254,529.967 819.307,531.066 821.36,476.078 823.413,486.351 825.466,487.84 827.519,480.49 829.572,438.702 831.625,449.649 833.678,441.265 835.73,400.057 837.783,385.112 839.836,374.295 841.889,351.909 843.942,357.959 845.995,293.607 848.048,300.728 850.101,305.17 852.154,311.107 854.206,309.477 856.259,322.345 858.312,322.343 860.365,327.447 862.418,328.814 864.471,319.166 866.524,363.394 868.577,333.055 870.63,425.667 872.682,424.032 874.735,391.366 876.788,404.166 878.841,391.327 880.894,403.475 882.947,409.026 885,414.125 887.053,411.567 889.106,400.897 891.159,398.906 893.211,412.02 895.264,479.218 897.317,471.017 899.37,478.432 901.423,479.403 903.476,479.456 905.529,485.075 907.582,542.502 909.635,430.307 911.687,229.46 913.74,220.104 915.793,241.484 917.846,233.304 919.899,234.018 921.952,238.95 924.005,230.158 926.058,223.867 928.111,219.772 930.163,228.115 932.216,228.236 934.269,228.827 936.322,386.632 938.375,388.136 940.428,388.191 942.481,388.151 944.534,461.816 946.587,446.897 948.639,383.923 950.692,384.848 952.745,384.256 954.798,384.939 956.851,383.059 958.904,385.474 960.957,385.666 963.01,382.637 965.063,399.456 967.116,397.727 969.168,398.709 971.221,401.184 973.274,424.144 975.327,415.459 977.38,399.527 979.433,393.645 981.486,357.843 983.539,352.145 985.592,359.451 987.644,358.738 989.697,357.863 991.75,376.109 993.803,377.862 995.856,389.526 997.909,379.301 999.962,414.78 1002.01,415.416 1004.07,426.768 1006.12,427.023 1008.17,427.646 1010.23,336.624 1012.28,360.597 1014.33,352.928 1016.38,338.895 1018.44,338.963 1020.49,372.122 1022.54,381.872 1024.6,406.676 1026.65,395.173 1028.7,402.193 1030.76,396.011 1032.81,401.141 1034.86,395.434 1036.91,434.966 1038.97,416.69 1041.02,399.577 1043.07,396.578 1045.13,401.326 1047.18,401.58 1049.23,404.625 1051.28,394.794 1053.34,394.795 1055.39,372.998 1057.44,378.243 1059.5,381.626 1061.55,381.37 1063.6,389.584 1065.65,413.196 1067.71,413.59 1069.76,410.928 1071.81,406.203 1073.87,403.565 1075.92,406.83 1077.97,389.372 1080.02,367.182 1082.08,367.186 1084.13,351.331 1086.18,384.018 1088.24,390.056 1090.29,390.207 1092.34,386.962 1094.39,410.514 1096.45,475.884 1098.5,475.987 1100.55,386.486 1102.61,376.689 1104.66,435.524 1106.71,432.67 1108.77,441.947 1110.82,443.292 1112.87,366.819 1114.92,357.475 1116.98,343.81 1119.03,335.698 1121.08,328.263 1123.14,328.012 1125.19,319.656 1127.24,319.417 1129.29,337.593 1131.35,339.884 1133.4,317.872 1135.45,320.021 1137.51,316.49 1139.56,339.056 1141.61,317.714 1143.66,317.552 1145.72,310.299 1147.77,342.683 1149.82,342.584 1151.88,368.3 1153.93,404.125 1155.98,403.015 1158.03,399.487 1160.09,393.102 1162.14,390.678 1164.19,390.692 1166.25,395.821 1168.3,400.913 1170.35,423.436 1172.4,417.447 1174.46,424.922 1176.51,412.897 1178.56,419.712 1180.62,408.802 1182.67,373.948 1184.72,368.971 1186.77,396.472 1188.83,394.464 1190.88,352.422 1192.93,352.474 1194.99,348.668 1197.04,337.207 1199.09,377.225 1201.15,378.582 1203.2,378.434 1205.25,387.458 1207.3,373.653 1209.36,482.734 1211.41,462.595 1213.46,444.399 1215.52,332.971 1217.57,361.021 1219.62,386.969 1221.67,351.007 1223.73,351.065 1225.78,396.222 1227.83,383.95 1229.89,385.59 1231.94,404.201 1233.99,404.766 1236.04,406.639 1238.1,406.871 1240.15,393.907 1242.2,398.6 1244.26,401.666 1246.31,430.939 1248.36,433.82 1250.41,437.588 1252.47,243.622 1254.52,261.119 1256.57,261.534 1258.63,262.515 1260.68,261.548 1262.73,275.865 1264.78,264.429 1266.84,263.6 1268.89,354.216 1270.94,302.596 1273,303.824 1275.05,273.311 1277.1,253.079 1279.16,362.167 1281.21,377.888 1283.26,272.713 1285.31,273.668 1287.37,237.014 1289.42,243.071 1291.47,241.68 1293.53,241.163 1295.58,243.506 1297.63,409.427 1299.68,418.885 1301.74,405.786 1303.79,405.632 1305.84,406.514 1307.9,401.819 1309.95,396.495 1312,439.594 1314.05,338.507 1316.11,375.988 1318.16,379.086 1320.21,379.411 1322.27,380.907 1324.32,389.693 1326.37,389.941 1328.42,392.617 1330.48,371.266 1332.53,367.138 1334.58,372.114 1336.64,371.97 1338.69,371.674 1340.74,371.686 1342.79,363.409 1344.85,361.218 1346.9,345.752 1348.95,347.756 1351.01,352.245 1353.06,351.258 1355.11,353.425 1357.16,353.919 1359.22,347.505 1361.27,348.07 1363.32,357.301 1365.38,361.962 1367.43,363.905 1369.48,320.42 1371.54,325.374 1373.59,330.021 1375.64,329.397 1377.69,329.245 1379.75,324.217 1381.8,323.972 1383.85,324.784 1385.91,324.058 1387.96,324.064 1390.01,329.672 1392.06,319.2 1394.12,318.48 1396.17,332.591 1398.22,325.199 1400.28,326.487 1402.33,325.701 1404.38,390.888 1406.43,347.691 1408.49,379.227 1410.54,330.419 1412.59,322.335 1414.65,301.399 1416.7,300.546 1418.75,301.304 1420.8,289.824 1422.86,286.948 1424.91,289.477 1426.96,253.643 1429.02,246.287 1431.07,250.458 1433.12,282.471 1435.17,274.532 1437.23,274.95 1439.28,264.148 1441.33,263.678 1443.39,295.12 1445.44,361.502 1447.49,369.209 1449.55,363.224 1451.6,380.039 1453.65,387.496 1455.7,373.61 1457.76,329.883 1459.81,290.894 1461.86,317.294 1463.92,317.532 1465.97,317.57 1468.02,301.908 1470.07,303.057 1472.13,297.694 1474.18,296.024 1476.23,295.628 1478.29,296.846 1480.34,270.458 1482.39,273.8 1484.44,286.463 1486.5,287.345 1488.55,372.641 1490.6,417.539 1492.66,370.792 1494.71,372.15 1496.76,395.189 1498.81,395.188 1500.87,392.805 1502.92,393.416 1504.97,403.967 1507.03,389.121 1509.08,424.059 1511.13,416.557 1513.18,424.046 1515.24,415.917 1517.29,292.113 1519.34,294.768 1521.4,295.95 1523.45,294.788 1525.5,290.222 1527.55,289.538 1529.61,288.54 1531.66,288.096 1533.71,273.966 1535.77,275.754 1537.82,280.417 1539.87,276.147 1541.93,264.226 1543.98,264.326 1546.03,266.88 1548.08,259.727 1550.14,262.183 1552.19,257.313 1554.24,257.366 1556.3,307.356 1558.35,307.258 1560.4,307.259 1562.45,309.261 1564.51,304.626 1566.56,306.621 1568.61,341.155 1570.67,366.773 1572.72,366.151 1574.77,358.829 1576.82,350.782 1578.88,346.098 1580.93,346.991 1582.98,345.372 1585.04,340.673 1587.09,384.094 1589.14,379.208 1591.19,377.428 1593.25,373.344 1595.3,380.904 1597.35,518.264 1599.41,311.903 1601.46,299.465 1603.51,412.322 1605.56,354.765 1607.62,377.207 1609.67,376.555 1611.72,362.868 1613.78,562.188 1615.83,543.536 1617.88,541.826 1619.94,550.206 1621.99,547.059 1624.04,537.576 1626.09,565.441 1628.15,567.001 1630.2,567.178 1632.25,558.056 1634.31,376.194 1636.36,377.367 1638.41,342.144 1640.46,343.777 1642.52,418.167 1644.57,251.17 1646.62,247.033 1648.68,314.56 1650.73,318.992 1652.78,325.07 1654.83,218.172 1656.89,199.993 1658.94,224.661 1660.99,239.436 1663.05,249.578 1665.1,249.284 1667.15,311.092 1669.2,308.081 1671.26,322.095 1673.31,321.937 1675.36,329.153 1677.42,368.144 1679.47,350.794 1681.52,323.196 1683.57,427.848 1685.63,428.195 1687.68,490.079 1689.73,489.476 1691.79,500.914 1693.84,437.056 1695.89,340.447 1697.94,299.48 1700,331.727 1702.05,333.113 1704.1,328.397 1706.16,302.755 1708.21,346.203 1710.26,382.17 1712.32,347.611 1714.37,395.524 1716.42,401.302 1718.47,401.099 1720.53,357.502 1722.58,295.776 1724.63,395.366 1726.69,401.115 1728.74,400.731 1730.79,384.421 1732.84,383.827 1734.9,464.959 1736.95,460.88 1739,460.374 1741.06,459.621 1743.11,459.199 1745.16,455.316 1747.21,449.579 1749.27,445.247 1751.32,393.536 1753.37,394.67 1755.43,400.275 1757.48,443.965 1759.53,279.977 1761.58,249.263 1763.64,219.128 1765.69,218.936 1767.74,219.408 1769.8,195.08 1771.85,306.956 1773.9,310.029 1775.95,301.877 1778.01,305.306 1780.06,302.32 1782.11,306.815 1784.17,335.834 1786.22,337.871 1788.27,324.014 1790.33,316.846 1792.38,317.507 1794.43,317.383 1796.48,315.102 1798.54,344.473 1800.59,333 1802.64,332.971 1804.7,333.147 1806.75,333.689 1808.8,315.02 1810.85,317.122 1812.91,329.629 1814.96,337.105 1817.01,357.245 1819.07,355.36 1821.12,356.397 1823.17,356.53 1825.22,349.672 1827.28,338.215 1829.33,364.409 1831.38,360.85 1833.44,364.009 1835.49,361.71 1837.54,361.26 1839.59,364.304 1841.65,369.472 1843.7,369.468 1845.75,369.275 1847.81,375.514 1849.86,371.355 1851.91,392.673 1853.96,431.58 1856.02,431.874 1858.07,425.262 1860.12,425.277 1862.18,411.743 1864.23,412.562 1866.28,321.547 1868.34,320.805 1870.39,332.173 1872.44,331.876 1874.49,332.59 1876.55,332.6 1878.6,336.829 1880.65,337.917 1882.71,337.421 1884.76,335.795 1886.81,335.133 1888.86,333.572 1890.92,336.582 1892.97,336.513 1895.02,395.639 1897.08,397.347 1899.13,405.606 1901.18,393.353 1903.23,365.129 1905.29,365.935 1907.34,365.219 1909.39,375.409 1911.45,374.985 1913.5,352.817 1915.55,352.726 1917.6,351.132 1919.66,312.103 1921.71,347.468 1923.76,346.581 1925.82,346.532 1927.87,341.999 1929.92,342.571 1931.97,343.421 1934.03,348.492 1936.08,348.023 1938.13,368.559 1940.19,347.838 1942.24,348.276 1944.29,324.773 1946.34,347.165 1948.4,375.717 1950.45,366.8 1952.5,371.096 1954.56,361.83 1956.61,360.014 1958.66,348.9 1960.72,345.922 1962.77,346.538 1964.82,353.065 1966.87,368.651 1968.93,369.494 1970.98,308.731 1973.03,342.713 1975.09,343.283 1977.14,343.407 1979.19,355.746 1981.24,355.728 1983.3,350.782 1985.35,346.655 1987.4,371.183 1989.46,373.369 1991.51,346.381 1993.56,346.29 1995.61,346.135 1997.67,360.825 1999.72,365.533 2001.77,366.316 2003.83,367.997 2005.88,371.025 2007.93,334.956 2009.98,316.67 2012.04,316.305 2014.09,320.115 2016.14,319.926 2018.2,341.001 2020.25,337.53 2022.3,338.369 2024.35,338.995 2026.41,339.296 2028.46,339.513 2030.51,335.581 2032.57,335.676 2034.62,363.293 2036.67,362.134 2038.73,380.267 2040.78,381.549 2042.83,381.448 2044.88,388.827 2046.94,390.163 2048.99,390.16 2051.04,389.835 2053.1,374.308 2055.15,372.197 2057.2,372.498 2059.25,397.073 2061.31,399.065 2063.36,334.363 2065.41,334.458 2067.47,301.328 2069.52,303.96 2071.57,386.445 2073.62,385.958 2075.68,383.588 2077.73,379.161 2079.78,413.954 2081.84,408.184 2083.89,412.616 2085.94,404.336 2087.99,412.474 2090.05,363.291 2092.1,361.686 2094.15,376.453 2096.21,372.043 2098.26,371.669 2100.31,371.579 2102.36,344.458 2104.42,345.231 2106.47,300.804 2108.52,281.95 2110.58,376.537 2112.63,299.381 2114.68,313.086 2116.73,323.421 2118.79,324.472 2120.84,330.269 2122.89,343.002 2124.95,312.666 2127,327.042 2129.05,318.529 2131.11,325.031 2133.16,312.809 2135.21,341.722 2137.26,341.729 2139.32,341.485 2141.37,316.541 2143.42,313.607 2145.48,313.864 2147.53,383.397 2149.58,384.091 2151.63,384.53 2153.69,385.382 2155.74,432.118 2157.79,430.292 2159.85,392.028 2161.9,388.696 2163.95,329.347 2166,335.988 2168.06,340.05 2170.11,339.679 2172.16,347.543 2174.22,348.351 2176.27,339.624 2178.32,338.099 2180.37,342.016 2182.43,351.099 2184.48,367.787 2186.53,358.915 2188.59,358.896 2190.64,358.757 2192.69,357.52 2194.74,336.919 2196.8,337.53 2198.85,337.707 2200.9,331.907 2202.96,337.794 2205.01,346.106 2207.06,346.348 2209.12,339.341 2211.17,341.671 2213.22,341.692 2215.27,332.731 2217.33,333.352 2219.38,334.545 2221.43,335.76 2223.49,365.816 2225.54,363.656 2227.59,358.512 2229.64,333.778 2231.7,333.726 2233.75,333.736 2235.8,331.222 2237.86,331.655 2239.91,322.634 2241.96,316.593 2244.01,296.267 2246.07,353.014 2248.12,353.23 2250.17,354.13 2252.23,301.482 2254.28,300.834 2256.33,300.853 2258.38,300.693 2260.44,299.433 2262.49,299.022 2264.54,370.87 2266.6,376.317 2268.65,376.697 2270.7,374.875 2272.75,374.888 2274.81,373.101 2276.86,365.253 2278.91,363.863 2280.97,363.737 2283.02,371.33 2285.07,365.688 2287.12,365.655 2289.18,369.261 2291.23,361.594 "/>
<path clip-path="url(#clip990)" d="M1983.6 172.231 L2280.29 172.231 L2280.29 68.5509 L1983.6 68.5509  Z" fill="#ffffff" fill-rule="evenodd" fill-opacity="1"/>
<polyline clip-path="url(#clip990)" style="stroke:#000000; stroke-linecap:round; stroke-linejoin:round; stroke-width:4; stroke-opacity:1; fill:none" points="1983.6,172.231 2280.29,172.231 2280.29,68.5509 1983.6,68.5509 1983.6,172.231 "/>
<polyline clip-path="url(#clip990)" style="stroke:#009af9; stroke-linecap:round; stroke-linejoin:round; stroke-width:4; stroke-opacity:1; fill:none" points="2007.75,120.391 2152.68,120.391 "/>
<path clip-path="url(#clip990)" d="M2176.83 103.111 L2181.51 103.111 L2181.51 133.736 L2198.34 133.736 L2198.34 137.671 L2176.83 137.671 L2176.83 103.111 Z" fill="#000000" fill-rule="nonzero" fill-opacity="1" /><path clip-path="url(#clip990)" d="M2223.96 104.245 L2223.96 108.805 Q2221.3 107.532 2218.94 106.907 Q2216.58 106.282 2214.38 106.282 Q2210.56 106.282 2208.48 107.764 Q2206.42 109.245 2206.42 111.977 Q2206.42 114.268 2207.78 115.449 Q2209.17 116.606 2213.01 117.324 L2215.84 117.902 Q2221.07 118.898 2223.55 121.421 Q2226.05 123.921 2226.05 128.134 Q2226.05 133.157 2222.67 135.75 Q2219.31 138.342 2212.81 138.342 Q2210.35 138.342 2207.57 137.787 Q2204.82 137.231 2201.86 136.143 L2201.86 131.328 Q2204.7 132.926 2207.44 133.736 Q2210.17 134.546 2212.81 134.546 Q2216.81 134.546 2218.99 132.972 Q2221.16 131.398 2221.16 128.481 Q2221.16 125.935 2219.59 124.5 Q2218.04 123.064 2214.47 122.347 L2211.62 121.791 Q2206.39 120.75 2204.06 118.527 Q2201.72 116.305 2201.72 112.347 Q2201.72 107.764 2204.94 105.125 Q2208.18 102.486 2213.85 102.486 Q2216.28 102.486 2218.8 102.926 Q2221.32 103.366 2223.96 104.245 Z" fill="#000000" fill-rule="nonzero" fill-opacity="1" /><path clip-path="url(#clip990)" d="M2254.06 104.245 L2254.06 108.805 Q2251.39 107.532 2249.03 106.907 Q2246.67 106.282 2244.47 106.282 Q2240.65 106.282 2238.57 107.764 Q2236.51 109.245 2236.51 111.977 Q2236.51 114.268 2237.87 115.449 Q2239.26 116.606 2243.11 117.324 L2245.93 117.902 Q2251.16 118.898 2253.64 121.421 Q2256.14 123.921 2256.14 128.134 Q2256.14 133.157 2252.76 135.75 Q2249.4 138.342 2242.9 138.342 Q2240.44 138.342 2237.67 137.787 Q2234.91 137.231 2231.95 136.143 L2231.95 131.328 Q2234.8 132.926 2237.53 133.736 Q2240.26 134.546 2242.9 134.546 Q2246.9 134.546 2249.08 132.972 Q2251.25 131.398 2251.25 128.481 Q2251.25 125.935 2249.68 124.5 Q2248.13 123.064 2244.56 122.347 L2241.72 121.791 Q2236.49 120.75 2234.15 118.527 Q2231.81 116.305 2231.81 112.347 Q2231.81 107.764 2235.03 105.125 Q2238.27 102.486 2243.94 102.486 Q2246.37 102.486 2248.89 102.926 Q2251.42 103.366 2254.06 104.245 Z" fill="#000000" fill-rule="nonzero" fill-opacity="1" /><path clip-path="url(#clip990)" d="M178.867 1486.45 L2352.76 1486.45 L2352.76 847.244 L178.867 847.244  Z" fill="#ffffff" fill-rule="evenodd" fill-opacity="1"/>
<defs>
  <clipPath id="clip993">
    <rect x="178" y="847" width="2175" height="640"/>
  </clipPath>
</defs>
<polyline clip-path="url(#clip993)" style="stroke:#000000; stroke-linecap:round; stroke-linejoin:round; stroke-width:2; stroke-opacity:0.1; fill:none" points="238.339,1486.45 238.339,847.244 "/>
<polyline clip-path="url(#clip993)" style="stroke:#000000; stroke-linecap:round; stroke-linejoin:round; stroke-width:2; stroke-opacity:0.1; fill:none" points="751.562,1486.45 751.562,847.244 "/>
<polyline clip-path="url(#clip993)" style="stroke:#000000; stroke-linecap:round; stroke-linejoin:round; stroke-width:2; stroke-opacity:0.1; fill:none" points="1264.78,1486.45 1264.78,847.244 "/>
<polyline clip-path="url(#clip993)" style="stroke:#000000; stroke-linecap:round; stroke-linejoin:round; stroke-width:2; stroke-opacity:0.1; fill:none" points="1778.01,1486.45 1778.01,847.244 "/>
<polyline clip-path="url(#clip993)" style="stroke:#000000; stroke-linecap:round; stroke-linejoin:round; stroke-width:2; stroke-opacity:0.1; fill:none" points="2291.23,1486.45 2291.23,847.244 "/>
<polyline clip-path="url(#clip993)" style="stroke:#000000; stroke-linecap:round; stroke-linejoin:round; stroke-width:2; stroke-opacity:0.1; fill:none" points="178.867,1486.45 2352.76,1486.45 "/>
<polyline clip-path="url(#clip993)" style="stroke:#000000; stroke-linecap:round; stroke-linejoin:round; stroke-width:2; stroke-opacity:0.1; fill:none" points="178.867,1326.65 2352.76,1326.65 "/>
<polyline clip-path="url(#clip993)" style="stroke:#000000; stroke-linecap:round; stroke-linejoin:round; stroke-width:2; stroke-opacity:0.1; fill:none" points="178.867,1166.85 2352.76,1166.85 "/>
<polyline clip-path="url(#clip993)" style="stroke:#000000; stroke-linecap:round; stroke-linejoin:round; stroke-width:2; stroke-opacity:0.1; fill:none" points="178.867,1007.05 2352.76,1007.05 "/>
<polyline clip-path="url(#clip993)" style="stroke:#000000; stroke-linecap:round; stroke-linejoin:round; stroke-width:2; stroke-opacity:0.1; fill:none" points="178.867,847.244 2352.76,847.244 "/>
<polyline clip-path="url(#clip990)" style="stroke:#000000; stroke-linecap:round; stroke-linejoin:round; stroke-width:4; stroke-opacity:1; fill:none" points="178.867,1486.45 2352.76,1486.45 "/>
<polyline clip-path="url(#clip990)" style="stroke:#000000; stroke-linecap:round; stroke-linejoin:round; stroke-width:4; stroke-opacity:1; fill:none" points="238.339,1486.45 238.339,1467.55 "/>
<polyline clip-path="url(#clip990)" style="stroke:#000000; stroke-linecap:round; stroke-linejoin:round; stroke-width:4; stroke-opacity:1; fill:none" points="751.562,1486.45 751.562,1467.55 "/>
<polyline clip-path="url(#clip990)" style="stroke:#000000; stroke-linecap:round; stroke-linejoin:round; stroke-width:4; stroke-opacity:1; fill:none" points="1264.78,1486.45 1264.78,1467.55 "/>
<polyline clip-path="url(#clip990)" style="stroke:#000000; stroke-linecap:round; stroke-linejoin:round; stroke-width:4; stroke-opacity:1; fill:none" points="1778.01,1486.45 1778.01,1467.55 "/>
<polyline clip-path="url(#clip990)" style="stroke:#000000; stroke-linecap:round; stroke-linejoin:round; stroke-width:4; stroke-opacity:1; fill:none" points="2291.23,1486.45 2291.23,1467.55 "/>
<path clip-path="url(#clip990)" d="M238.339 1517.37 Q234.728 1517.37 232.899 1520.93 Q231.094 1524.47 231.094 1531.6 Q231.094 1538.71 232.899 1542.27 Q234.728 1545.82 238.339 1545.82 Q241.973 1545.82 243.779 1542.27 Q245.607 1538.71 245.607 1531.6 Q245.607 1524.47 243.779 1520.93 Q241.973 1517.37 238.339 1517.37 M238.339 1513.66 Q244.149 1513.66 247.205 1518.27 Q250.283 1522.85 250.283 1531.6 Q250.283 1540.33 247.205 1544.94 Q244.149 1549.52 238.339 1549.52 Q232.529 1549.52 229.45 1544.94 Q226.395 1540.33 226.395 1531.6 Q226.395 1522.85 229.45 1518.27 Q232.529 1513.66 238.339 1513.66 Z" fill="#000000" fill-rule="nonzero" fill-opacity="1" /><path clip-path="url(#clip990)" d="M715.254 1544.91 L731.574 1544.91 L731.574 1548.85 L709.629 1548.85 L709.629 1544.91 Q712.291 1542.16 716.875 1537.53 Q721.481 1532.88 722.662 1531.53 Q724.907 1529.01 725.787 1527.27 Q726.689 1525.51 726.689 1523.82 Q726.689 1521.07 724.745 1519.33 Q722.824 1517.6 719.722 1517.6 Q717.523 1517.6 715.069 1518.36 Q712.638 1519.13 709.861 1520.68 L709.861 1515.95 Q712.685 1514.82 715.138 1514.24 Q717.592 1513.66 719.629 1513.66 Q725 1513.66 728.194 1516.35 Q731.388 1519.03 731.388 1523.52 Q731.388 1525.65 730.578 1527.57 Q729.791 1529.47 727.685 1532.07 Q727.106 1532.74 724.004 1535.95 Q720.902 1539.15 715.254 1544.91 Z" fill="#000000" fill-rule="nonzero" fill-opacity="1" /><path clip-path="url(#clip990)" d="M741.435 1514.29 L759.791 1514.29 L759.791 1518.22 L745.717 1518.22 L745.717 1526.7 Q746.736 1526.35 747.754 1526.19 Q748.773 1526 749.791 1526 Q755.578 1526 758.958 1529.17 Q762.337 1532.34 762.337 1537.76 Q762.337 1543.34 758.865 1546.44 Q755.393 1549.52 749.073 1549.52 Q746.898 1549.52 744.629 1549.15 Q742.384 1548.78 739.976 1548.04 L739.976 1543.34 Q742.06 1544.47 744.282 1545.03 Q746.504 1545.58 748.981 1545.58 Q752.985 1545.58 755.323 1543.48 Q757.661 1541.37 757.661 1537.76 Q757.661 1534.15 755.323 1532.04 Q752.985 1529.94 748.981 1529.94 Q747.106 1529.94 745.231 1530.35 Q743.379 1530.77 741.435 1531.65 L741.435 1514.29 Z" fill="#000000" fill-rule="nonzero" fill-opacity="1" /><path clip-path="url(#clip990)" d="M781.55 1517.37 Q777.939 1517.37 776.11 1520.93 Q774.305 1524.47 774.305 1531.6 Q774.305 1538.71 776.11 1542.27 Q777.939 1545.82 781.55 1545.82 Q785.184 1545.82 786.99 1542.27 Q788.819 1538.71 788.819 1531.6 Q788.819 1524.47 786.99 1520.93 Q785.184 1517.37 781.55 1517.37 M781.55 1513.66 Q787.36 1513.66 790.416 1518.27 Q793.495 1522.85 793.495 1531.6 Q793.495 1540.33 790.416 1544.94 Q787.36 1549.52 781.55 1549.52 Q775.74 1549.52 772.661 1544.94 Q769.606 1540.33 769.606 1531.6 Q769.606 1522.85 772.661 1518.27 Q775.74 1513.66 781.55 1513.66 Z" fill="#000000" fill-rule="nonzero" fill-opacity="1" /><path clip-path="url(#clip990)" d="M1224.4 1514.29 L1242.76 1514.29 L1242.76 1518.22 L1228.69 1518.22 L1228.69 1526.7 Q1229.7 1526.35 1230.72 1526.19 Q1231.74 1526 1232.76 1526 Q1238.55 1526 1241.93 1529.17 Q1245.31 1532.34 1245.31 1537.76 Q1245.31 1543.34 1241.83 1546.44 Q1238.36 1549.52 1232.04 1549.52 Q1229.87 1549.52 1227.6 1549.15 Q1225.35 1548.78 1222.94 1548.04 L1222.94 1543.34 Q1225.03 1544.47 1227.25 1545.03 Q1229.47 1545.58 1231.95 1545.58 Q1235.95 1545.58 1238.29 1543.48 Q1240.63 1541.37 1240.63 1537.76 Q1240.63 1534.15 1238.29 1532.04 Q1235.95 1529.94 1231.95 1529.94 Q1230.07 1529.94 1228.2 1530.35 Q1226.35 1530.77 1224.4 1531.65 L1224.4 1514.29 Z" fill="#000000" fill-rule="nonzero" fill-opacity="1" /><path clip-path="url(#clip990)" d="M1264.52 1517.37 Q1260.91 1517.37 1259.08 1520.93 Q1257.27 1524.47 1257.27 1531.6 Q1257.27 1538.71 1259.08 1542.27 Q1260.91 1545.82 1264.52 1545.82 Q1268.15 1545.82 1269.96 1542.27 Q1271.79 1538.71 1271.79 1531.6 Q1271.79 1524.47 1269.96 1520.93 Q1268.15 1517.37 1264.52 1517.37 M1264.52 1513.66 Q1270.33 1513.66 1273.38 1518.27 Q1276.46 1522.85 1276.46 1531.6 Q1276.46 1540.33 1273.38 1544.94 Q1270.33 1549.52 1264.52 1549.52 Q1258.71 1549.52 1255.63 1544.94 Q1252.57 1540.33 1252.57 1531.6 Q1252.57 1522.85 1255.63 1518.27 Q1258.71 1513.66 1264.52 1513.66 Z" fill="#000000" fill-rule="nonzero" fill-opacity="1" /><path clip-path="url(#clip990)" d="M1294.68 1517.37 Q1291.07 1517.37 1289.24 1520.93 Q1287.44 1524.47 1287.44 1531.6 Q1287.44 1538.71 1289.24 1542.27 Q1291.07 1545.82 1294.68 1545.82 Q1298.31 1545.82 1300.12 1542.27 Q1301.95 1538.71 1301.95 1531.6 Q1301.95 1524.47 1300.12 1520.93 Q1298.31 1517.37 1294.68 1517.37 M1294.68 1513.66 Q1300.49 1513.66 1303.55 1518.27 Q1306.62 1522.85 1306.62 1531.6 Q1306.62 1540.33 1303.55 1544.94 Q1300.49 1549.52 1294.68 1549.52 Q1288.87 1549.52 1285.79 1544.94 Q1282.74 1540.33 1282.74 1531.6 Q1282.74 1522.85 1285.79 1518.27 Q1288.87 1513.66 1294.68 1513.66 Z" fill="#000000" fill-rule="nonzero" fill-opacity="1" /><path clip-path="url(#clip990)" d="M1736.28 1514.29 L1758.51 1514.29 L1758.51 1516.28 L1745.96 1548.85 L1741.08 1548.85 L1752.88 1518.22 L1736.28 1518.22 L1736.28 1514.29 Z" fill="#000000" fill-rule="nonzero" fill-opacity="1" /><path clip-path="url(#clip990)" d="M1767.67 1514.29 L1786.03 1514.29 L1786.03 1518.22 L1771.95 1518.22 L1771.95 1526.7 Q1772.97 1526.35 1773.99 1526.19 Q1775.01 1526 1776.03 1526 Q1781.82 1526 1785.2 1529.17 Q1788.57 1532.34 1788.57 1537.76 Q1788.57 1543.34 1785.1 1546.44 Q1781.63 1549.52 1775.31 1549.52 Q1773.14 1549.52 1770.87 1549.15 Q1768.62 1548.78 1766.21 1548.04 L1766.21 1543.34 Q1768.3 1544.47 1770.52 1545.03 Q1772.74 1545.58 1775.22 1545.58 Q1779.22 1545.58 1781.56 1543.48 Q1783.9 1541.37 1783.9 1537.76 Q1783.9 1534.15 1781.56 1532.04 Q1779.22 1529.94 1775.22 1529.94 Q1773.34 1529.94 1771.47 1530.35 Q1769.62 1530.77 1767.67 1531.65 L1767.67 1514.29 Z" fill="#000000" fill-rule="nonzero" fill-opacity="1" /><path clip-path="url(#clip990)" d="M1807.79 1517.37 Q1804.18 1517.37 1802.35 1520.93 Q1800.54 1524.47 1800.54 1531.6 Q1800.54 1538.71 1802.35 1542.27 Q1804.18 1545.82 1807.79 1545.82 Q1811.42 1545.82 1813.23 1542.27 Q1815.06 1538.71 1815.06 1531.6 Q1815.06 1524.47 1813.23 1520.93 Q1811.42 1517.37 1807.79 1517.37 M1807.79 1513.66 Q1813.6 1513.66 1816.65 1518.27 Q1819.73 1522.85 1819.73 1531.6 Q1819.73 1540.33 1816.65 1544.94 Q1813.6 1549.52 1807.79 1549.52 Q1801.98 1549.52 1798.9 1544.94 Q1795.84 1540.33 1795.84 1531.6 Q1795.84 1522.85 1798.9 1518.27 Q1801.98 1513.66 1807.79 1513.66 Z" fill="#000000" fill-rule="nonzero" fill-opacity="1" /><path clip-path="url(#clip990)" d="M2235.76 1544.91 L2243.4 1544.91 L2243.4 1518.55 L2235.09 1520.21 L2235.09 1515.95 L2243.35 1514.29 L2248.02 1514.29 L2248.02 1544.91 L2255.66 1544.91 L2255.66 1548.85 L2235.76 1548.85 L2235.76 1544.91 Z" fill="#000000" fill-rule="nonzero" fill-opacity="1" /><path clip-path="url(#clip990)" d="M2275.11 1517.37 Q2271.5 1517.37 2269.67 1520.93 Q2267.86 1524.47 2267.86 1531.6 Q2267.86 1538.71 2269.67 1542.27 Q2271.5 1545.82 2275.11 1545.82 Q2278.74 1545.82 2280.55 1542.27 Q2282.38 1538.71 2282.38 1531.6 Q2282.38 1524.47 2280.55 1520.93 Q2278.74 1517.37 2275.11 1517.37 M2275.11 1513.66 Q2280.92 1513.66 2283.97 1518.27 Q2287.05 1522.85 2287.05 1531.6 Q2287.05 1540.33 2283.97 1544.94 Q2280.92 1549.52 2275.11 1549.52 Q2269.3 1549.52 2266.22 1544.94 Q2263.16 1540.33 2263.16 1531.6 Q2263.16 1522.85 2266.22 1518.27 Q2269.3 1513.66 2275.11 1513.66 Z" fill="#000000" fill-rule="nonzero" fill-opacity="1" /><path clip-path="url(#clip990)" d="M2305.27 1517.37 Q2301.66 1517.37 2299.83 1520.93 Q2298.02 1524.47 2298.02 1531.6 Q2298.02 1538.71 2299.83 1542.27 Q2301.66 1545.82 2305.27 1545.82 Q2308.9 1545.82 2310.71 1542.27 Q2312.54 1538.71 2312.54 1531.6 Q2312.54 1524.47 2310.71 1520.93 Q2308.9 1517.37 2305.27 1517.37 M2305.27 1513.66 Q2311.08 1513.66 2314.14 1518.27 Q2317.21 1522.85 2317.21 1531.6 Q2317.21 1540.33 2314.14 1544.94 Q2311.08 1549.52 2305.27 1549.52 Q2299.46 1549.52 2296.38 1544.94 Q2293.33 1540.33 2293.33 1531.6 Q2293.33 1522.85 2296.38 1518.27 Q2299.46 1513.66 2305.27 1513.66 Z" fill="#000000" fill-rule="nonzero" fill-opacity="1" /><path clip-path="url(#clip990)" d="M2335.43 1517.37 Q2331.82 1517.37 2329.99 1520.93 Q2328.19 1524.47 2328.19 1531.6 Q2328.19 1538.71 2329.99 1542.27 Q2331.82 1545.82 2335.43 1545.82 Q2339.07 1545.82 2340.87 1542.27 Q2342.7 1538.71 2342.7 1531.6 Q2342.7 1524.47 2340.87 1520.93 Q2339.07 1517.37 2335.43 1517.37 M2335.43 1513.66 Q2341.24 1513.66 2344.3 1518.27 Q2347.38 1522.85 2347.38 1531.6 Q2347.38 1540.33 2344.3 1544.94 Q2341.24 1549.52 2335.43 1549.52 Q2329.62 1549.52 2326.54 1544.94 Q2323.49 1540.33 2323.49 1531.6 Q2323.49 1522.85 2326.54 1518.27 Q2329.62 1513.66 2335.43 1513.66 Z" fill="#000000" fill-rule="nonzero" fill-opacity="1" /><polyline clip-path="url(#clip990)" style="stroke:#000000; stroke-linecap:round; stroke-linejoin:round; stroke-width:4; stroke-opacity:1; fill:none" points="178.867,1486.45 178.867,847.244 "/>
<polyline clip-path="url(#clip990)" style="stroke:#000000; stroke-linecap:round; stroke-linejoin:round; stroke-width:4; stroke-opacity:1; fill:none" points="178.867,1486.45 197.764,1486.45 "/>
<polyline clip-path="url(#clip990)" style="stroke:#000000; stroke-linecap:round; stroke-linejoin:round; stroke-width:4; stroke-opacity:1; fill:none" points="178.867,1326.65 197.764,1326.65 "/>
<polyline clip-path="url(#clip990)" style="stroke:#000000; stroke-linecap:round; stroke-linejoin:round; stroke-width:4; stroke-opacity:1; fill:none" points="178.867,1166.85 197.764,1166.85 "/>
<polyline clip-path="url(#clip990)" style="stroke:#000000; stroke-linecap:round; stroke-linejoin:round; stroke-width:4; stroke-opacity:1; fill:none" points="178.867,1007.05 197.764,1007.05 "/>
<polyline clip-path="url(#clip990)" style="stroke:#000000; stroke-linecap:round; stroke-linejoin:round; stroke-width:4; stroke-opacity:1; fill:none" points="178.867,847.244 197.764,847.244 "/>
<path clip-path="url(#clip990)" d="M50.9921 1486.9 L80.6679 1486.9 L80.6679 1490.83 L50.9921 1490.83 L50.9921 1486.9 Z" fill="#000000" fill-rule="nonzero" fill-opacity="1" /><path clip-path="url(#clip990)" d="M91.5706 1499.79 L99.2095 1499.79 L99.2095 1473.43 L90.8993 1475.09 L90.8993 1470.83 L99.1632 1469.17 L103.839 1469.17 L103.839 1499.79 L111.478 1499.79 L111.478 1503.73 L91.5706 1503.73 L91.5706 1499.79 Z" fill="#000000" fill-rule="nonzero" fill-opacity="1" /><path clip-path="url(#clip990)" d="M130.922 1472.25 Q127.311 1472.25 125.482 1475.81 Q123.677 1479.35 123.677 1486.48 Q123.677 1493.59 125.482 1497.15 Q127.311 1500.7 130.922 1500.7 Q134.556 1500.7 136.362 1497.15 Q138.191 1493.59 138.191 1486.48 Q138.191 1479.35 136.362 1475.81 Q134.556 1472.25 130.922 1472.25 M130.922 1468.54 Q136.732 1468.54 139.788 1473.15 Q142.867 1477.73 142.867 1486.48 Q142.867 1495.21 139.788 1499.82 Q136.732 1504.4 130.922 1504.4 Q125.112 1504.4 122.033 1499.82 Q118.978 1495.21 118.978 1486.48 Q118.978 1477.73 122.033 1473.15 Q125.112 1468.54 130.922 1468.54 Z" fill="#000000" fill-rule="nonzero" fill-opacity="1" /><path clip-path="url(#clip990)" d="M82.1494 1327.1 L111.825 1327.1 L111.825 1331.03 L82.1494 1331.03 L82.1494 1327.1 Z" fill="#000000" fill-rule="nonzero" fill-opacity="1" /><path clip-path="url(#clip990)" d="M121.964 1309.37 L140.32 1309.37 L140.32 1313.3 L126.246 1313.3 L126.246 1321.77 Q127.265 1321.43 128.283 1321.27 Q129.302 1321.08 130.32 1321.08 Q136.107 1321.08 139.487 1324.25 Q142.867 1327.42 142.867 1332.84 Q142.867 1338.42 139.394 1341.52 Q135.922 1344.6 129.603 1344.6 Q127.427 1344.6 125.158 1344.23 Q122.913 1343.86 120.506 1343.12 L120.506 1338.42 Q122.589 1339.55 124.811 1340.11 Q127.033 1340.66 129.51 1340.66 Q133.515 1340.66 135.853 1338.56 Q138.191 1336.45 138.191 1332.84 Q138.191 1329.23 135.853 1327.12 Q133.515 1325.01 129.51 1325.01 Q127.635 1325.01 125.76 1325.43 Q123.908 1325.85 121.964 1326.73 L121.964 1309.37 Z" fill="#000000" fill-rule="nonzero" fill-opacity="1" /><path clip-path="url(#clip990)" d="M130.922 1152.64 Q127.311 1152.64 125.482 1156.21 Q123.677 1159.75 123.677 1166.88 Q123.677 1173.99 125.482 1177.55 Q127.311 1181.09 130.922 1181.09 Q134.556 1181.09 136.362 1177.55 Q138.191 1173.99 138.191 1166.88 Q138.191 1159.75 136.362 1156.21 Q134.556 1152.64 130.922 1152.64 M130.922 1148.94 Q136.732 1148.94 139.788 1153.55 Q142.867 1158.13 142.867 1166.88 Q142.867 1175.61 139.788 1180.21 Q136.732 1184.8 130.922 1184.8 Q125.112 1184.8 122.033 1180.21 Q118.978 1175.61 118.978 1166.88 Q118.978 1158.13 122.033 1153.55 Q125.112 1148.94 130.922 1148.94 Z" fill="#000000" fill-rule="nonzero" fill-opacity="1" /><path clip-path="url(#clip990)" d="M121.964 989.765 L140.32 989.765 L140.32 993.7 L126.246 993.7 L126.246 1002.17 Q127.265 1001.83 128.283 1001.66 Q129.302 1001.48 130.32 1001.48 Q136.107 1001.48 139.487 1004.65 Q142.867 1007.82 142.867 1013.24 Q142.867 1018.82 139.394 1021.92 Q135.922 1025 129.603 1025 Q127.427 1025 125.158 1024.63 Q122.913 1024.26 120.506 1023.51 L120.506 1018.82 Q122.589 1019.95 124.811 1020.51 Q127.033 1021.06 129.51 1021.06 Q133.515 1021.06 135.853 1018.95 Q138.191 1016.85 138.191 1013.24 Q138.191 1009.63 135.853 1007.52 Q133.515 1005.41 129.51 1005.41 Q127.635 1005.41 125.76 1005.83 Q123.908 1006.25 121.964 1007.13 L121.964 989.765 Z" fill="#000000" fill-rule="nonzero" fill-opacity="1" /><path clip-path="url(#clip990)" d="M91.5706 860.589 L99.2095 860.589 L99.2095 834.223 L90.8993 835.89 L90.8993 831.631 L99.1632 829.964 L103.839 829.964 L103.839 860.589 L111.478 860.589 L111.478 864.524 L91.5706 864.524 L91.5706 860.589 Z" fill="#000000" fill-rule="nonzero" fill-opacity="1" /><path clip-path="url(#clip990)" d="M130.922 833.043 Q127.311 833.043 125.482 836.608 Q123.677 840.149 123.677 847.279 Q123.677 854.385 125.482 857.95 Q127.311 861.492 130.922 861.492 Q134.556 861.492 136.362 857.95 Q138.191 854.385 138.191 847.279 Q138.191 840.149 136.362 836.608 Q134.556 833.043 130.922 833.043 M130.922 829.339 Q136.732 829.339 139.788 833.946 Q142.867 838.529 142.867 847.279 Q142.867 856.006 139.788 860.612 Q136.732 865.195 130.922 865.195 Q125.112 865.195 122.033 860.612 Q118.978 856.006 118.978 847.279 Q118.978 838.529 122.033 833.946 Q125.112 829.339 130.922 829.339 Z" fill="#000000" fill-rule="nonzero" fill-opacity="1" /><polyline clip-path="url(#clip993)" style="stroke:#009af9; stroke-linecap:round; stroke-linejoin:round; stroke-width:4; stroke-opacity:1; fill:none" points="240.392,1134.89 242.445,1157.29 244.498,1189.71 246.55,1134.27 248.603,1141.33 250.656,1154.72 252.709,1178.73 254.762,1285.86 256.815,1165.97 258.868,1175.64 260.921,1253.16 262.974,1158.05 265.027,987.887 267.079,1170.51 269.132,1209.89 271.185,637.443 273.238,1219.95 275.291,1158.61 277.344,1151.12 279.397,1169.74 281.45,1150.19 283.503,1147.59 285.555,1187.02 287.608,1191.48 289.661,1156.88 291.714,1108.07 293.767,1355.65 295.82,-373.585 297.873,1041.19 299.926,1188.8 301.979,512.285 304.031,1238.55 306.084,1142.08 308.137,1171.18 310.19,1147.52 312.243,1242.28 314.296,1153.69 316.349,1036.86 318.402,1157.92 320.455,1152.09 322.507,1132.88 324.56,1201.01 326.613,1223.74 328.666,1179.82 330.719,1225.46 332.772,1240.14 334.825,1265.92 336.878,1296.63 338.931,1128.41 340.984,1158.64 343.036,1238.51 345.089,1206.44 347.142,1151.15 349.195,1173.61 351.248,1176.61 353.301,1135.66 355.354,1181.99 357.407,992.133 359.46,1066.64 361.512,1163.27 363.565,1169.78 365.618,1170.03 367.671,1153.14 369.724,1200.85 371.777,1151.18 373.83,1141.97 375.883,1133.34 377.936,1159.22 379.988,1185.01 382.041,1160.27 384.094,1198.36 386.147,1160.54 388.2,1172.51 390.253,1175.77 392.306,1185.03 394.359,1200.02 396.412,1160.24 398.464,1145.47 400.517,1165.28 402.57,1207.94 404.623,1142.3 406.676,1195.37 408.729,1187.3 410.782,1169.87 412.835,1162.28 414.888,1083.98 416.94,989.013 418.993,1251.08 421.046,1202.98 423.099,1222.08 425.152,1193.39 427.205,1164.98 429.258,1168.63 431.311,1218.59 433.364,1329.21 435.417,1215.99 437.469,1194.41 439.522,1141.85 441.575,1094.06 443.628,1089.88 445.681,1247.63 447.734,1172.16 449.787,1174.76 451.84,1044.33 453.893,1144.03 455.945,1139.27 457.998,1185.46 460.051,1151.96 462.104,1181.8 464.157,1158.79 466.21,1165.79 468.263,1191.67 470.316,1169.83 472.369,1140.85 474.421,1206.69 476.474,1096.32 478.527,1159.01 480.58,1173.67 482.633,1146.41 484.686,1178.83 486.739,1178.93 488.792,1147.19 490.845,1185.9 492.897,1116.52 494.95,1192.12 497.003,1144.86 499.056,1181.54 501.109,1143.44 503.162,1141.08 505.215,1162.49 507.268,1204.98 509.321,1319.81 511.374,1416.82 513.426,821.891 515.479,1298.83 517.532,1187.6 519.585,1154.48 521.638,1237.45 523.691,1185.46 525.744,1170.41 527.797,1237.64 529.85,1263.19 531.902,791.386 533.955,1637.94 536.008,391.299 538.061,1343.68 540.114,1172.38 542.167,1205.46 544.22,976.427 546.273,1146.82 548.326,1235.73 550.378,1706.26 552.431,1204.38 554.484,926.028 556.537,1386.64 558.59,1704.84 560.643,1147.33 562.696,1467.49 564.749,885.663 566.802,770.261 568.854,755.613 570.907,765.573 572.96,1251.5 575.013,1210.51 577.066,1135.79 579.119,1161.16 581.172,1181.35 583.225,1164.15 585.278,1192.86 587.331,1165.18 589.383,1152.9 591.436,1173.98 593.489,1154.64 595.542,1191.34 597.595,1176.36 599.648,1629.92 601.701,1071.74 603.754,1113.03 605.807,1153.38 607.859,1199.61 609.912,1171.73 611.965,1251.23 614.018,1264.55 616.071,1324.5 618.124,1168.15 620.177,1246.38 622.23,1245.81 624.283,1168.26 626.335,1167 628.388,1165.47 630.441,1149.11 632.494,950.001 634.547,1172.32 636.6,1114.77 638.653,1164.56 640.706,1168.29 642.759,1160.37 644.811,1151.02 646.864,1140.44 648.917,1170.07 650.97,933.759 653.023,1036.03 655.076,1298.59 657.129,942.419 659.182,721.466 661.235,1291.68 663.288,1143.29 665.34,982.916 667.393,1157.46 669.446,1136.86 671.499,1250.98 673.552,1054.25 675.605,1144.26 677.658,1150.21 679.711,1174.06 681.764,1152.07 683.816,1203.62 685.869,1217.98 687.922,1145.28 689.975,1156.52 692.028,1161.8 694.081,1155.77 696.134,1167.25 698.187,1184.57 700.24,1188.31 702.292,1183.7 704.345,1140.87 706.398,1194.7 708.451,1084.87 710.504,1108.29 712.557,1321.34 714.61,1272.79 716.663,1059.82 718.716,1189.02 720.768,1219.36 722.821,1111.27 724.874,1132.44 726.927,1169.16 728.98,1155.8 731.033,1188.39 733.086,1141.5 735.139,1146.06 737.192,1236.7 739.245,1136.95 741.297,1175.06 743.35,1166.18 745.403,1168.21 747.456,1157.85 749.509,1132.35 751.562,1238.98 753.615,1143.65 755.668,1138.57 757.721,1195.91 759.773,1182.43 761.826,1122.57 763.879,1519.45 765.932,1317.89 767.985,943.41 770.038,1202.98 772.091,1254.13 774.144,1115.01 776.197,1158.17 778.249,1232.64 780.302,1261.54 782.355,1186.62 784.408,1201.94 786.461,1102.85 788.514,1180.6 790.567,1173.47 792.62,1173.31 794.673,1169.21 796.725,1154.26 798.778,1153.28 800.831,1174.09 802.884,1108.75 804.937,1284.55 806.99,1143.28 809.043,1180.79 811.096,1204.15 813.149,1229.36 815.202,1044.33 817.254,1154.7 819.307,1327.69 821.36,1233.89 823.413,1243.37 825.466,1173.26 827.519,1171.06 829.572,1005.93 831.625,983.138 833.678,1077.67 835.73,1297.58 837.783,1194.09 839.836,1197.44 841.889,1202.84 843.942,1230.16 845.995,1180.67 848.048,1117.1 850.101,1129.56 852.154,1171.02 854.206,1241.22 856.259,1175.1 858.312,1101.13 860.365,1183.83 862.418,1190.81 864.471,1141.88 866.524,1173.1 868.577,1174.72 870.63,1177.93 872.682,1153.7 874.735,1152.4 876.788,1175.62 878.841,1171.82 880.894,1158.65 882.947,1155.07 885,1165.05 887.053,1158.55 889.106,1153.43 891.159,1133.57 893.211,1327.93 895.264,1240.98 897.317,1223.1 899.37,1166.25 901.423,1109.57 903.476,1176.24 905.529,1166.07 907.582,1163.89 909.635,1150.01 911.687,1153.13 913.74,1163.32 915.793,1161.28 917.846,1209.8 919.899,1340.79 921.952,1181.77 924.005,1193.89 926.058,1183.87 928.111,1188.05 930.163,1155.95 932.216,1172.25 934.269,1176.36 936.322,1148.78 938.375,1162.29 940.428,1172.32 942.481,1173.7 944.534,1164.61 946.587,1177.76 948.639,1230.39 950.692,1313.71 952.745,1244.25 954.798,1135.47 956.851,1171.94 958.904,1209.01 960.957,1149.22 963.01,1084.86 965.063,1137.53 967.116,1182.39 969.168,1129.24 971.221,1023.81 973.274,1087.02 975.327,769.664 977.38,1499.05 979.433,1172 981.486,1177.85 983.539,1160 985.592,1165.9 987.644,1150.53 989.697,1087.9 991.75,1124.93 993.803,1276.62 995.856,1224.27 997.909,1099.82 999.962,1178.79 1002.01,1142.77 1004.07,1162.89 1006.12,1191.52 1008.17,1141.91 1010.23,1142.11 1012.28,1166.59 1014.33,1169.2 1016.38,1161.79 1018.44,1185.7 1020.49,1222.12 1022.54,935.282 1024.6,802.233 1026.65,1184.03 1028.7,1140.22 1030.76,1506.28 1032.81,1104.08 1034.86,1189.41 1036.91,1159.49 1038.97,1153.69 1041.02,1159.23 1043.07,1152.55 1045.13,1177.95 1047.18,1021.37 1049.23,1278.69 1051.28,1222.42 1053.34,1221.21 1055.39,1237.34 1057.44,1114.24 1059.5,1095.96 1061.55,1148.73 1063.6,1138.36 1065.65,1193.28 1067.71,1134.99 1069.76,1161.43 1071.81,1174.35 1073.87,1096.47 1075.92,1133.07 1077.97,890.47 1080.02,979.658 1082.08,1017.08 1084.13,1071.99 1086.18,634.94 1088.24,603.835 1090.29,621.02 1092.34,1011.79 1094.39,964.228 1096.45,1158.62 1098.5,1184.6 1100.55,1157.7 1102.61,1194.47 1104.66,1186.51 1106.71,1226.79 1108.77,1184.76 1110.82,1105.81 1112.87,1243.27 1114.92,1177.2 1116.98,1126.83 1119.03,1215.4 1121.08,1375.79 1123.14,2087.56 1125.19,1669.67 1127.24,1397.28 1129.29,1155.74 1131.35,1163.77 1133.4,1201.17 1135.45,1101.91 1137.51,1164.09 1139.56,1201.27 1141.61,1178.3 1143.66,1128.08 1145.72,1203.48 1147.77,1175.52 1149.82,1166.37 1151.88,1168.27 1153.93,1158.17 1155.98,1144.18 1158.03,1123.18 1160.09,1174.58 1162.14,1393.29 1164.19,1010.82 1166.25,1033.94 1168.3,1255.8 1170.35,1326.99 1172.4,1171.19 1174.46,1171.14 1176.51,1136.12 1178.56,1090.09 1180.62,1131.48 1182.67,1176.56 1184.72,1088.86 1186.77,1248.18 1188.83,1271.34 1190.88,1186.39 1192.93,738.099 1194.99,1006.46 1197.04,1290.97 1199.09,1380.29 1201.15,1061.88 1203.2,1084.05 1205.25,1309.87 1207.3,565.114 1209.36,1427.15 1211.41,1209.65 1213.46,1432.97 1215.52,936.854 1217.57,938.69 1219.62,1178.03 1221.67,1135.28 1223.73,1213.75 1225.78,1197.91 1227.83,1145.34 1229.89,1148.89 1231.94,1143.63 1233.99,1132.79 1236.04,1199.31 1238.1,1152.3 1240.15,1161.18 1242.2,1171.66 1244.26,1194.29 1246.31,1195.94 1248.36,1209.14 1250.41,1212.02 1252.47,1241.12 1254.52,1251.74 1256.57,1234.61 1258.63,1017.15 1260.68,1226.41 1262.73,1234.33 1264.78,1206.17 1266.84,1136.15 1268.89,1209.22 1270.94,1227.48 1273,1124.01 1275.05,1139.05 1277.1,1128.73 1279.16,1170.73 1281.21,1200.4 1283.26,1192.68 1285.31,1167.12 1287.37,1179.98 1289.42,1188.28 1291.47,1155.48 1293.53,1198.57 1295.58,1216.54 1297.63,1171.82 1299.68,1187.4 1301.74,1181.56 1303.79,1204.19 1305.84,1153.73 1307.9,1189.35 1309.95,1184.8 1312,1184 1314.05,1177.14 1316.11,1213.95 1318.16,1190.08 1320.21,1170.74 1322.27,1179.9 1324.32,1158.83 1326.37,1151.99 1328.42,1155.99 1330.48,1169.14 1332.53,1139.59 1334.58,1154.66 1336.64,1171.88 1338.69,1190.27 1340.74,1154.79 1342.79,1157.17 1344.85,1171.66 1346.9,1192.91 1348.95,1191.27 1351.01,1186.89 1353.06,1147.26 1355.11,1160.17 1357.16,1164.63 1359.22,1168.93 1361.27,1158.19 1363.32,1206.55 1365.38,1196.56 1367.43,1210.35 1369.48,1242.06 1371.54,1186.97 1373.59,1186.73 1375.64,1153.29 1377.69,1183.43 1379.75,1222.37 1381.8,1112.29 1383.85,1215.66 1385.91,1130.4 1387.96,1198.54 1390.01,1179.82 1392.06,1159.94 1394.12,1163.46 1396.17,1161.75 1398.22,1211.72 1400.28,1247.71 1402.33,1036.59 1404.38,1156.26 1406.43,1158.89 1408.49,1238.38 1410.54,1079.29 1412.59,1136.63 1414.65,1133.96 1416.7,1148 1418.75,1154.83 1420.8,1176.28 1422.86,1140.39 1424.91,1158.76 1426.96,1171.12 1429.02,1154.49 1431.07,1165.19 1433.12,1009.07 1435.17,1547.79 1437.23,1049.36 1439.28,1371.45 1441.33,1167.39 1443.39,1197.81 1445.44,1150.56 1447.49,1182.84 1449.55,1176.82 1451.6,1170.55 1453.65,1174.31 1455.7,1189.72 1457.76,1216.29 1459.81,1203.88 1461.86,1178.14 1463.92,1172.95 1465.97,1183.78 1468.02,1148.98 1470.07,1189.93 1472.13,1173.86 1474.18,1155.42 1476.23,1176.96 1478.29,1164.22 1480.34,1166.58 1482.39,1167.04 1484.44,1127.48 1486.5,1174.07 1488.55,1163.86 1490.6,1154.45 1492.66,1227.76 1494.71,1139.24 1496.76,1155.23 1498.81,1170.7 1500.87,1238.39 1502.92,1134.95 1504.97,1151.73 1507.03,1276.4 1509.08,1806.05 1511.13,359.551 1513.18,1364.77 1515.24,1033.07 1517.29,1233.86 1519.34,1031.19 1521.4,1100.16 1523.45,1173.43 1525.5,1047.63 1527.55,1096.1 1529.61,1054.94 1531.66,1217.57 1533.71,1136.3 1535.77,1177.06 1537.82,1175.52 1539.87,1177.24 1541.93,1180.56 1543.98,1155.97 1546.03,1172.86 1548.08,1184.38 1550.14,1126.12 1552.19,1157.48 1554.24,898.551 1556.3,1170.17 1558.35,1168.94 1560.4,1220.76 1562.45,1152.23 1564.51,1179.69 1566.56,1062.35 1568.61,1206.25 1570.67,1185.53 1572.72,1146.75 1574.77,1092.88 1576.82,1199.45 1578.88,1167.08 1580.93,1239.51 1582.98,1109.59 1585.04,1196.44 1587.09,1152.77 1589.14,1205.52 1591.19,1138.7 1593.25,1200.2 1595.3,1053.98 1597.35,1170.78 1599.41,1083.94 1601.46,1180.56 1603.51,1178.95 1605.56,1190.2 1607.62,1361.01 1609.67,1279.56 1611.72,1413.54 1613.78,1322.44 1615.83,1210.18 1617.88,1160.93 1619.94,1128.21 1621.99,1208.45 1624.04,1189.83 1626.09,1138.53 1628.15,1189.28 1630.2,1139.79 1632.25,1198.6 1634.31,1176.79 1636.36,1170.23 1638.41,1172.09 1640.46,1194.44 1642.52,1169.42 1644.57,1155.43 1646.62,1153.77 1648.68,1139.2 1650.73,1237.11 1652.78,1112.39 1654.83,1174.15 1656.89,1138.29 1658.94,1133.46 1660.99,1145.02 1663.05,1171.44 1665.1,1147.56 1667.15,1164.58 1669.2,1140.48 1671.26,1165.01 1673.31,1167.27 1675.36,1121.31 1677.42,1111.49 1679.47,1120.06 1681.52,1115.07 1683.57,810.812 1685.63,1453.89 1687.68,1210.02 1689.73,1164.02 1691.79,1156.21 1693.84,1213.08 1695.89,1179.76 1697.94,1173.02 1700,1158.61 1702.05,1151.25 1704.1,1166.56 1706.16,1142.67 1708.21,1069.19 1710.26,1049.92 1712.32,1433 1714.37,1150.85 1716.42,1191.71 1718.47,1166.6 1720.53,1189.34 1722.58,1047.68 1724.63,996.571 1726.69,1061.84 1728.74,1249.42 1730.79,1109.97 1732.84,1181.09 1734.9,1144.4 1736.95,1167.98 1739,1145.89 1741.06,1150.69 1743.11,1145.73 1745.16,1116.62 1747.21,1152.28 1749.27,1171.59 1751.32,1209.83 1753.37,1144.38 1755.43,1143.64 1757.48,1186.78 1759.53,1155.97 1761.58,1173.95 1763.64,1213.09 1765.69,899.763 1767.74,1234.96 1769.8,1072.94 1771.85,1152.62 1773.9,1182.05 1775.95,1161.96 1778.01,1146.34 1780.06,1176.41 1782.11,1235.05 1784.17,1064.93 1786.22,1211.29 1788.27,1117.68 1790.33,1201.69 1792.38,1149.71 1794.43,1193.47 1796.48,1200.3 1798.54,1166.42 1800.59,1246.37 1802.64,1205.34 1804.7,1189.7 1806.75,1072.95 1808.8,-83.1287 1810.85,900.66 1812.91,1241.07 1814.96,1210.78 1817.01,1192.02 1819.07,1137.87 1821.12,1154.11 1823.17,1164.75 1825.22,1160.05 1827.28,1162.7 1829.33,1174.03 1831.38,1134.89 1833.44,1182.33 1835.49,1230.2 1837.54,1235.1 1839.59,1236.97 1841.65,1176.75 1843.7,1159.6 1845.75,1236.78 1847.81,1295.65 1849.86,870.404 1851.91,1542.96 1853.96,1202.17 1856.02,1112.3 1858.07,1185.97 1860.12,1127.3 1862.18,1191.51 1864.23,1190.2 1866.28,1130.84 1868.34,1125.68 1870.39,1115.37 1872.44,1105.95 1874.49,1129.23 1876.55,1065.27 1878.6,1159.79 1880.65,1163.85 1882.71,1133.44 1884.76,1104.36 1886.81,1181.6 1888.86,1208.52 1890.92,1054.4 1892.97,1065.21 1895.02,1427.94 1897.08,1292.8 1899.13,1161.47 1901.18,1163.72 1903.23,1189.3 1905.29,1165.57 1907.34,1164.06 1909.39,1155.16 1911.45,1156.11 1913.5,1099.54 1915.55,1087.03 1917.6,1177.94 1919.66,1145.71 1921.71,1165.89 1923.76,1168.75 1925.82,1176.71 1927.87,1218.95 1929.92,1186.25 1931.97,1147.88 1934.03,1165.82 1936.08,1173.82 1938.13,1160.89 1940.19,1139.78 1942.24,1152.67 1944.29,1153.34 1946.34,1203.8 1948.4,1048.68 1950.45,1260.6 1952.5,1195.06 1954.56,1142.6 1956.61,1180.02 1958.66,1156.09 1960.72,1170.77 1962.77,1242.67 1964.82,1189.03 1966.87,1155.3 1968.93,1174.74 1970.98,1154.78 1973.03,1162.59 1975.09,1078.68 1977.14,1071.31 1979.19,1156.18 1981.24,1180.14 1983.3,1060.37 1985.35,1061.13 1987.4,1173.45 1989.46,1153.6 1991.51,1170.34 1993.56,1161.12 1995.61,1300.28 1997.67,1585.64 1999.72,1275.23 2001.77,1050.81 2003.83,1479.09 2005.88,806.032 2007.93,1051.12 2009.98,1070.01 2012.04,1272.38 2014.09,1241.44 2016.14,1121.3 2018.2,1183.31 2020.25,1125.55 2022.3,1210.6 2024.35,1065.53 2026.41,1359.78 2028.46,1106.68 2030.51,1091.08 2032.57,1175.51 2034.62,1161.05 2036.67,1172.58 2038.73,1134.56 2040.78,1252.8 2042.83,1125.96 2044.88,1144.21 2046.94,1156.43 2048.99,1159.64 2051.04,1175.71 2053.1,1215.72 2055.15,1157.34 2057.2,1086.98 2059.25,1182.99 2061.31,1190.05 2063.36,1233.19 2065.41,1162.33 2067.47,1190.15 2069.52,1130.56 2071.57,1174.78 2073.62,1168.15 2075.68,1079.3 2077.73,1127.95 2079.78,1164.3 2081.84,1199.61 2083.89,1124.02 2085.94,1148.19 2087.99,1138.66 2090.05,1190.93 2092.1,1167.07 2094.15,1169.87 2096.21,1186.56 2098.26,1132.54 2100.31,1419.45 2102.36,859.02 2104.42,1394.99 2106.47,875.383 2108.52,1189.9 2110.58,1179.37 2112.63,1168.37 2114.68,1171.07 2116.73,1129.69 2118.79,1110.12 2120.84,1190.66 2122.89,1186.98 2124.95,1135.03 2127,1177.95 2129.05,1093.36 2131.11,1215.68 2133.16,1335.5 2135.21,1573.25 2137.26,1997.14 2139.32,1585.77 2141.37,1752.04 2143.42,1215.98 2145.48,1224.3 2147.53,1215.55 2149.58,1299.04 2151.63,1142.24 2153.69,1188.23 2155.74,1292.15 2157.79,1147.94 2159.85,1224.69 2161.9,1131.91 2163.95,1119.85 2166,1132.51 2168.06,1186.94 2170.11,1122.56 2172.16,1178.23 2174.22,1111.94 2176.27,1037.77 2178.32,1159.94 2180.37,1155.61 2182.43,1176.11 2184.48,1156.14 2186.53,1103.08 2188.59,924.316 2190.64,934.719 2192.69,1365.62 2194.74,1176.53 2196.8,1183.07 2198.85,1148.34 2200.9,1182.08 2202.96,1161.92 2205.01,1170.37 2207.06,1165.33 2209.12,1169.42 2211.17,1177.65 2213.22,1183.57 2215.27,1188.18 2217.33,1220.9 2219.38,1077.7 2221.43,1159.12 2223.49,1156.48 2225.54,1218.6 2227.59,1147.46 2229.64,1177.53 2231.7,1165.66 2233.75,1143.21 2235.8,1175.99 2237.86,1164.51 2239.91,1160.03 2241.96,1194.46 2244.01,1102.8 2246.07,1177.29 2248.12,1049.92 2250.17,1068.97 2252.23,1255.89 2254.28,1191.71 2256.33,1180.68 2258.38,1193.5 2260.44,1160.74 2262.49,1168.68 2264.54,1165.66 2266.6,1119.52 2268.65,1181.87 2270.7,1159.65 2272.75,1156.56 2274.81,1152.7 2276.86,1172.7 2278.91,1218.53 2280.97,938.996 2283.02,695.05 2285.07,850.119 2287.12,1331.93 2289.18,906.858 2291.23,1112.64 "/>
<path clip-path="url(#clip990)" d="M251.33 1465.14 L588.926 1465.14 L588.926 1361.46 L251.33 1361.46  Z" fill="#ffffff" fill-rule="evenodd" fill-opacity="1"/>
<polyline clip-path="url(#clip990)" style="stroke:#000000; stroke-linecap:round; stroke-linejoin:round; stroke-width:4; stroke-opacity:1; fill:none" points="251.33,1465.14 588.926,1465.14 588.926,1361.46 251.33,1361.46 251.33,1465.14 "/>
<polyline clip-path="url(#clip990)" style="stroke:#009af9; stroke-linecap:round; stroke-linejoin:round; stroke-width:4; stroke-opacity:1; fill:none" points="275.484,1413.3 420.41,1413.3 "/>
<path clip-path="url(#clip990)" d="M470.12 1425.65 L470.12 1416.37 L462.481 1416.37 L462.481 1412.53 L474.749 1412.53 L474.749 1427.36 Q472.041 1429.28 468.777 1430.28 Q465.513 1431.25 461.809 1431.25 Q453.708 1431.25 449.124 1426.53 Q444.564 1421.78 444.564 1413.34 Q444.564 1404.86 449.124 1400.14 Q453.708 1395.4 461.809 1395.4 Q465.189 1395.4 468.221 1396.23 Q471.277 1397.06 473.846 1398.68 L473.846 1403.66 Q471.254 1401.46 468.337 1400.35 Q465.421 1399.24 462.203 1399.24 Q455.86 1399.24 452.666 1402.78 Q449.495 1406.32 449.495 1413.34 Q449.495 1420.33 452.666 1423.87 Q455.86 1427.41 462.203 1427.41 Q464.68 1427.41 466.624 1426.99 Q468.569 1426.55 470.12 1425.65 Z" fill="#000000" fill-rule="nonzero" fill-opacity="1" /><path clip-path="url(#clip990)" d="M487.967 1399.86 L487.967 1412.85 L493.846 1412.85 Q497.11 1412.85 498.893 1411.16 Q500.675 1409.47 500.675 1406.35 Q500.675 1403.24 498.893 1401.55 Q497.11 1399.86 493.846 1399.86 L487.967 1399.86 M483.291 1396.02 L493.846 1396.02 Q499.657 1396.02 502.619 1398.66 Q505.606 1401.28 505.606 1406.35 Q505.606 1411.46 502.619 1414.08 Q499.657 1416.69 493.846 1416.69 L487.967 1416.69 L487.967 1430.58 L483.291 1430.58 L483.291 1396.02 Z" fill="#000000" fill-rule="nonzero" fill-opacity="1" /><path clip-path="url(#clip990)" d="M532.596 1397.16 L532.596 1401.72 Q529.934 1400.44 527.573 1399.82 Q525.212 1399.19 523.013 1399.19 Q519.193 1399.19 517.11 1400.67 Q515.05 1402.16 515.05 1404.89 Q515.05 1407.18 516.416 1408.36 Q517.805 1409.52 521.647 1410.23 L524.471 1410.81 Q529.703 1411.81 532.179 1414.33 Q534.679 1416.83 534.679 1421.04 Q534.679 1426.07 531.3 1428.66 Q527.943 1431.25 521.439 1431.25 Q518.985 1431.25 516.207 1430.7 Q513.453 1430.14 510.49 1429.05 L510.49 1424.24 Q513.337 1425.84 516.068 1426.65 Q518.8 1427.46 521.439 1427.46 Q525.443 1427.46 527.619 1425.88 Q529.795 1424.31 529.795 1421.39 Q529.795 1418.85 528.221 1417.41 Q526.67 1415.97 523.105 1415.26 L520.258 1414.7 Q515.027 1413.66 512.689 1411.44 Q510.351 1409.22 510.351 1405.26 Q510.351 1400.67 513.568 1398.03 Q516.809 1395.4 522.48 1395.4 Q524.911 1395.4 527.434 1395.84 Q529.957 1396.28 532.596 1397.16 Z" fill="#000000" fill-rule="nonzero" fill-opacity="1" /><path clip-path="url(#clip990)" d="M562.689 1397.16 L562.689 1401.72 Q560.027 1400.44 557.665 1399.82 Q555.304 1399.19 553.105 1399.19 Q549.286 1399.19 547.203 1400.67 Q545.142 1402.16 545.142 1404.89 Q545.142 1407.18 546.508 1408.36 Q547.897 1409.52 551.74 1410.23 L554.564 1410.81 Q559.795 1411.81 562.272 1414.33 Q564.772 1416.83 564.772 1421.04 Q564.772 1426.07 561.392 1428.66 Q558.036 1431.25 551.531 1431.25 Q549.078 1431.25 546.3 1430.7 Q543.545 1430.14 540.582 1429.05 L540.582 1424.24 Q543.429 1425.84 546.161 1426.65 Q548.892 1427.46 551.531 1427.46 Q555.536 1427.46 557.712 1425.88 Q559.888 1424.31 559.888 1421.39 Q559.888 1418.85 558.314 1417.41 Q556.763 1415.97 553.198 1415.26 L550.351 1414.7 Q545.119 1413.66 542.781 1411.44 Q540.443 1409.22 540.443 1405.26 Q540.443 1400.67 543.661 1398.03 Q546.902 1395.4 552.573 1395.4 Q555.003 1395.4 557.527 1395.84 Q560.05 1396.28 562.689 1397.16 Z" fill="#000000" fill-rule="nonzero" fill-opacity="1" /></svg>
