<?xml version="1.0" encoding="utf-8"?>
<svg xmlns="http://www.w3.org/2000/svg" xmlns:xlink="http://www.w3.org/1999/xlink" width="600" height="400" viewBox="0 0 2400 1600">
<defs>
  <clipPath id="clip320">
    <rect x="0" y="0" width="2400" height="1600"/>
  </clipPath>
</defs>
<path clip-path="url(#clip320)" d="M0 1600 L2400 1600 L2400 0 L0 0  Z" fill="#ffffff" fill-rule="evenodd" fill-opacity="1"/>
<defs>
  <clipPath id="clip321">
    <rect x="480" y="0" width="1681" height="1600"/>
  </clipPath>
</defs>
<path clip-path="url(#clip320)" d="M178.867 686.448 L2352.76 686.448 L2352.76 47.2441 L178.867 47.2441  Z" fill="#ffffff" fill-rule="evenodd" fill-opacity="1"/>
<defs>
  <clipPath id="clip322">
    <rect x="178" y="47" width="2175" height="640"/>
  </clipPath>
</defs>
<polyline clip-path="url(#clip322)" style="stroke:#000000; stroke-linecap:round; stroke-linejoin:round; stroke-width:2; stroke-opacity:0.1; fill:none" points="238.339,686.448 238.339,47.2441 "/>
<polyline clip-path="url(#clip322)" style="stroke:#000000; stroke-linecap:round; stroke-linejoin:round; stroke-width:2; stroke-opacity:0.1; fill:none" points="751.562,686.448 751.562,47.2441 "/>
<polyline clip-path="url(#clip322)" style="stroke:#000000; stroke-linecap:round; stroke-linejoin:round; stroke-width:2; stroke-opacity:0.1; fill:none" points="1264.78,686.448 1264.78,47.2441 "/>
<polyline clip-path="url(#clip322)" style="stroke:#000000; stroke-linecap:round; stroke-linejoin:round; stroke-width:2; stroke-opacity:0.1; fill:none" points="1778.01,686.448 1778.01,47.2441 "/>
<polyline clip-path="url(#clip322)" style="stroke:#000000; stroke-linecap:round; stroke-linejoin:round; stroke-width:2; stroke-opacity:0.1; fill:none" points="2291.23,686.448 2291.23,47.2441 "/>
<polyline clip-path="url(#clip322)" style="stroke:#000000; stroke-linecap:round; stroke-linejoin:round; stroke-width:2; stroke-opacity:0.1; fill:none" points="178.867,686.448 2352.76,686.448 "/>
<polyline clip-path="url(#clip322)" style="stroke:#000000; stroke-linecap:round; stroke-linejoin:round; stroke-width:2; stroke-opacity:0.1; fill:none" points="178.867,526.647 2352.76,526.647 "/>
<polyline clip-path="url(#clip322)" style="stroke:#000000; stroke-linecap:round; stroke-linejoin:round; stroke-width:2; stroke-opacity:0.1; fill:none" points="178.867,366.846 2352.76,366.846 "/>
<polyline clip-path="url(#clip322)" style="stroke:#000000; stroke-linecap:round; stroke-linejoin:round; stroke-width:2; stroke-opacity:0.1; fill:none" points="178.867,207.045 2352.76,207.045 "/>
<polyline clip-path="url(#clip322)" style="stroke:#000000; stroke-linecap:round; stroke-linejoin:round; stroke-width:2; stroke-opacity:0.1; fill:none" points="178.867,47.2441 2352.76,47.2441 "/>
<polyline clip-path="url(#clip320)" style="stroke:#000000; stroke-linecap:round; stroke-linejoin:round; stroke-width:4; stroke-opacity:1; fill:none" points="178.867,686.448 2352.76,686.448 "/>
<polyline clip-path="url(#clip320)" style="stroke:#000000; stroke-linecap:round; stroke-linejoin:round; stroke-width:4; stroke-opacity:1; fill:none" points="238.339,686.448 238.339,667.55 "/>
<polyline clip-path="url(#clip320)" style="stroke:#000000; stroke-linecap:round; stroke-linejoin:round; stroke-width:4; stroke-opacity:1; fill:none" points="751.562,686.448 751.562,667.55 "/>
<polyline clip-path="url(#clip320)" style="stroke:#000000; stroke-linecap:round; stroke-linejoin:round; stroke-width:4; stroke-opacity:1; fill:none" points="1264.78,686.448 1264.78,667.55 "/>
<polyline clip-path="url(#clip320)" style="stroke:#000000; stroke-linecap:round; stroke-linejoin:round; stroke-width:4; stroke-opacity:1; fill:none" points="1778.01,686.448 1778.01,667.55 "/>
<polyline clip-path="url(#clip320)" style="stroke:#000000; stroke-linecap:round; stroke-linejoin:round; stroke-width:4; stroke-opacity:1; fill:none" points="2291.23,686.448 2291.23,667.55 "/>
<path clip-path="url(#clip320)" d="M238.339 717.367 Q234.728 717.367 232.899 720.931 Q231.094 724.473 231.094 731.603 Q231.094 738.709 232.899 742.274 Q234.728 745.815 238.339 745.815 Q241.973 745.815 243.779 742.274 Q245.607 738.709 245.607 731.603 Q245.607 724.473 243.779 720.931 Q241.973 717.367 238.339 717.367 M238.339 713.663 Q244.149 713.663 247.205 718.269 Q250.283 722.853 250.283 731.603 Q250.283 740.329 247.205 744.936 Q244.149 749.519 238.339 749.519 Q232.529 749.519 229.45 744.936 Q226.395 740.329 226.395 731.603 Q226.395 722.853 229.45 718.269 Q232.529 713.663 238.339 713.663 Z" fill="#000000" fill-rule="nonzero" fill-opacity="1" /><path clip-path="url(#clip320)" d="M715.254 744.913 L731.574 744.913 L731.574 748.848 L709.629 748.848 L709.629 744.913 Q712.291 742.158 716.875 737.528 Q721.481 732.876 722.662 731.533 Q724.907 729.01 725.787 727.274 Q726.689 725.515 726.689 723.825 Q726.689 721.07 724.745 719.334 Q722.824 717.598 719.722 717.598 Q717.523 717.598 715.069 718.362 Q712.638 719.126 709.861 720.677 L709.861 715.955 Q712.685 714.82 715.138 714.242 Q717.592 713.663 719.629 713.663 Q725 713.663 728.194 716.348 Q731.388 719.033 731.388 723.524 Q731.388 725.654 730.578 727.575 Q729.791 729.473 727.685 732.066 Q727.106 732.737 724.004 735.954 Q720.902 739.149 715.254 744.913 Z" fill="#000000" fill-rule="nonzero" fill-opacity="1" /><path clip-path="url(#clip320)" d="M741.435 714.288 L759.791 714.288 L759.791 718.223 L745.717 718.223 L745.717 726.695 Q746.736 726.348 747.754 726.186 Q748.773 726.001 749.791 726.001 Q755.578 726.001 758.958 729.172 Q762.337 732.343 762.337 737.76 Q762.337 743.339 758.865 746.44 Q755.393 749.519 749.073 749.519 Q746.898 749.519 744.629 749.149 Q742.384 748.778 739.976 748.038 L739.976 743.339 Q742.06 744.473 744.282 745.028 Q746.504 745.584 748.981 745.584 Q752.985 745.584 755.323 743.478 Q757.661 741.371 757.661 737.76 Q757.661 734.149 755.323 732.042 Q752.985 729.936 748.981 729.936 Q747.106 729.936 745.231 730.353 Q743.379 730.769 741.435 731.649 L741.435 714.288 Z" fill="#000000" fill-rule="nonzero" fill-opacity="1" /><path clip-path="url(#clip320)" d="M781.55 717.367 Q777.939 717.367 776.11 720.931 Q774.305 724.473 774.305 731.603 Q774.305 738.709 776.11 742.274 Q777.939 745.815 781.55 745.815 Q785.184 745.815 786.99 742.274 Q788.819 738.709 788.819 731.603 Q788.819 724.473 786.99 720.931 Q785.184 717.367 781.55 717.367 M781.55 713.663 Q787.36 713.663 790.416 718.269 Q793.495 722.853 793.495 731.603 Q793.495 740.329 790.416 744.936 Q787.36 749.519 781.55 749.519 Q775.74 749.519 772.661 744.936 Q769.606 740.329 769.606 731.603 Q769.606 722.853 772.661 718.269 Q775.74 713.663 781.55 713.663 Z" fill="#000000" fill-rule="nonzero" fill-opacity="1" /><path clip-path="url(#clip320)" d="M1224.4 714.288 L1242.76 714.288 L1242.76 718.223 L1228.69 718.223 L1228.69 726.695 Q1229.7 726.348 1230.72 726.186 Q1231.74 726.001 1232.76 726.001 Q1238.55 726.001 1241.93 729.172 Q1245.31 732.343 1245.31 737.76 Q1245.31 743.339 1241.83 746.44 Q1238.36 749.519 1232.04 749.519 Q1229.87 749.519 1227.6 749.149 Q1225.35 748.778 1222.94 748.038 L1222.94 743.339 Q1225.03 744.473 1227.25 745.028 Q1229.47 745.584 1231.95 745.584 Q1235.95 745.584 1238.29 743.478 Q1240.63 741.371 1240.63 737.76 Q1240.63 734.149 1238.29 732.042 Q1235.95 729.936 1231.95 729.936 Q1230.07 729.936 1228.2 730.353 Q1226.35 730.769 1224.4 731.649 L1224.4 714.288 Z" fill="#000000" fill-rule="nonzero" fill-opacity="1" /><path clip-path="url(#clip320)" d="M1264.52 717.367 Q1260.91 717.367 1259.08 720.931 Q1257.27 724.473 1257.27 731.603 Q1257.27 738.709 1259.08 742.274 Q1260.91 745.815 1264.52 745.815 Q1268.15 745.815 1269.96 742.274 Q1271.79 738.709 1271.79 731.603 Q1271.79 724.473 1269.96 720.931 Q1268.15 717.367 1264.52 717.367 M1264.52 713.663 Q1270.33 713.663 1273.38 718.269 Q1276.46 722.853 1276.46 731.603 Q1276.46 740.329 1273.38 744.936 Q1270.33 749.519 1264.52 749.519 Q1258.71 749.519 1255.63 744.936 Q1252.57 740.329 1252.57 731.603 Q1252.57 722.853 1255.63 718.269 Q1258.71 713.663 1264.52 713.663 Z" fill="#000000" fill-rule="nonzero" fill-opacity="1" /><path clip-path="url(#clip320)" d="M1294.68 717.367 Q1291.07 717.367 1289.24 720.931 Q1287.44 724.473 1287.44 731.603 Q1287.44 738.709 1289.24 742.274 Q1291.07 745.815 1294.68 745.815 Q1298.31 745.815 1300.12 742.274 Q1301.95 738.709 1301.95 731.603 Q1301.95 724.473 1300.12 720.931 Q1298.31 717.367 1294.68 717.367 M1294.68 713.663 Q1300.49 713.663 1303.55 718.269 Q1306.62 722.853 1306.62 731.603 Q1306.62 740.329 1303.55 744.936 Q1300.49 749.519 1294.68 749.519 Q1288.87 749.519 1285.79 744.936 Q1282.74 740.329 1282.74 731.603 Q1282.74 722.853 1285.79 718.269 Q1288.87 713.663 1294.68 713.663 Z" fill="#000000" fill-rule="nonzero" fill-opacity="1" /><path clip-path="url(#clip320)" d="M1736.28 714.288 L1758.51 714.288 L1758.51 716.279 L1745.96 748.848 L1741.08 748.848 L1752.88 718.223 L1736.28 718.223 L1736.28 714.288 Z" fill="#000000" fill-rule="nonzero" fill-opacity="1" /><path clip-path="url(#clip320)" d="M1767.67 714.288 L1786.03 714.288 L1786.03 718.223 L1771.95 718.223 L1771.95 726.695 Q1772.97 726.348 1773.99 726.186 Q1775.01 726.001 1776.03 726.001 Q1781.82 726.001 1785.2 729.172 Q1788.57 732.343 1788.57 737.76 Q1788.57 743.339 1785.1 746.44 Q1781.63 749.519 1775.31 749.519 Q1773.14 749.519 1770.87 749.149 Q1768.62 748.778 1766.21 748.038 L1766.21 743.339 Q1768.3 744.473 1770.52 745.028 Q1772.74 745.584 1775.22 745.584 Q1779.22 745.584 1781.56 743.478 Q1783.9 741.371 1783.9 737.76 Q1783.9 734.149 1781.56 732.042 Q1779.22 729.936 1775.22 729.936 Q1773.34 729.936 1771.47 730.353 Q1769.62 730.769 1767.67 731.649 L1767.67 714.288 Z" fill="#000000" fill-rule="nonzero" fill-opacity="1" /><path clip-path="url(#clip320)" d="M1807.79 717.367 Q1804.18 717.367 1802.35 720.931 Q1800.54 724.473 1800.54 731.603 Q1800.54 738.709 1802.35 742.274 Q1804.18 745.815 1807.79 745.815 Q1811.42 745.815 1813.23 742.274 Q1815.06 738.709 1815.06 731.603 Q1815.06 724.473 1813.23 720.931 Q1811.42 717.367 1807.79 717.367 M1807.79 713.663 Q1813.6 713.663 1816.65 718.269 Q1819.73 722.853 1819.73 731.603 Q1819.73 740.329 1816.65 744.936 Q1813.6 749.519 1807.79 749.519 Q1801.98 749.519 1798.9 744.936 Q1795.84 740.329 1795.84 731.603 Q1795.84 722.853 1798.9 718.269 Q1801.98 713.663 1807.79 713.663 Z" fill="#000000" fill-rule="nonzero" fill-opacity="1" /><path clip-path="url(#clip320)" d="M2235.76 744.913 L2243.4 744.913 L2243.4 718.547 L2235.09 720.214 L2235.09 715.955 L2243.35 714.288 L2248.02 714.288 L2248.02 744.913 L2255.66 744.913 L2255.66 748.848 L2235.76 748.848 L2235.76 744.913 Z" fill="#000000" fill-rule="nonzero" fill-opacity="1" /><path clip-path="url(#clip320)" d="M2275.11 717.367 Q2271.5 717.367 2269.67 720.931 Q2267.86 724.473 2267.86 731.603 Q2267.86 738.709 2269.67 742.274 Q2271.5 745.815 2275.11 745.815 Q2278.74 745.815 2280.55 742.274 Q2282.38 738.709 2282.38 731.603 Q2282.38 724.473 2280.55 720.931 Q2278.74 717.367 2275.11 717.367 M2275.11 713.663 Q2280.92 713.663 2283.97 718.269 Q2287.05 722.853 2287.05 731.603 Q2287.05 740.329 2283.97 744.936 Q2280.92 749.519 2275.11 749.519 Q2269.3 749.519 2266.22 744.936 Q2263.16 740.329 2263.16 731.603 Q2263.16 722.853 2266.22 718.269 Q2269.3 713.663 2275.11 713.663 Z" fill="#000000" fill-rule="nonzero" fill-opacity="1" /><path clip-path="url(#clip320)" d="M2305.27 717.367 Q2301.66 717.367 2299.83 720.931 Q2298.02 724.473 2298.02 731.603 Q2298.02 738.709 2299.83 742.274 Q2301.66 745.815 2305.27 745.815 Q2308.9 745.815 2310.71 742.274 Q2312.54 738.709 2312.54 731.603 Q2312.54 724.473 2310.71 720.931 Q2308.9 717.367 2305.27 717.367 M2305.27 713.663 Q2311.08 713.663 2314.14 718.269 Q2317.21 722.853 2317.21 731.603 Q2317.21 740.329 2314.14 744.936 Q2311.08 749.519 2305.27 749.519 Q2299.46 749.519 2296.38 744.936 Q2293.33 740.329 2293.33 731.603 Q2293.33 722.853 2296.38 718.269 Q2299.46 713.663 2305.27 713.663 Z" fill="#000000" fill-rule="nonzero" fill-opacity="1" /><path clip-path="url(#clip320)" d="M2335.43 717.367 Q2331.82 717.367 2329.99 720.931 Q2328.19 724.473 2328.19 731.603 Q2328.19 738.709 2329.99 742.274 Q2331.82 745.815 2335.43 745.815 Q2339.07 745.815 2340.87 742.274 Q2342.7 738.709 2342.7 731.603 Q2342.7 724.473 2340.87 720.931 Q2339.07 717.367 2335.43 717.367 M2335.43 713.663 Q2341.24 713.663 2344.3 718.269 Q2347.38 722.853 2347.38 731.603 Q2347.38 740.329 2344.3 744.936 Q2341.24 749.519 2335.43 749.519 Q2329.62 749.519 2326.54 744.936 Q2323.49 740.329 2323.49 731.603 Q2323.49 722.853 2326.54 718.269 Q2329.62 713.663 2335.43 713.663 Z" fill="#000000" fill-rule="nonzero" fill-opacity="1" /><polyline clip-path="url(#clip320)" style="stroke:#000000; stroke-linecap:round; stroke-linejoin:round; stroke-width:4; stroke-opacity:1; fill:none" points="178.867,686.448 178.867,47.2441 "/>
<polyline clip-path="url(#clip320)" style="stroke:#000000; stroke-linecap:round; stroke-linejoin:round; stroke-width:4; stroke-opacity:1; fill:none" points="178.867,686.448 197.764,686.448 "/>
<polyline clip-path="url(#clip320)" style="stroke:#000000; stroke-linecap:round; stroke-linejoin:round; stroke-width:4; stroke-opacity:1; fill:none" points="178.867,526.647 197.764,526.647 "/>
<polyline clip-path="url(#clip320)" style="stroke:#000000; stroke-linecap:round; stroke-linejoin:round; stroke-width:4; stroke-opacity:1; fill:none" points="178.867,366.846 197.764,366.846 "/>
<polyline clip-path="url(#clip320)" style="stroke:#000000; stroke-linecap:round; stroke-linejoin:round; stroke-width:4; stroke-opacity:1; fill:none" points="178.867,207.045 197.764,207.045 "/>
<polyline clip-path="url(#clip320)" style="stroke:#000000; stroke-linecap:round; stroke-linejoin:round; stroke-width:4; stroke-opacity:1; fill:none" points="178.867,47.2441 197.764,47.2441 "/>
<path clip-path="url(#clip320)" d="M50.9921 686.899 L80.6679 686.899 L80.6679 690.834 L50.9921 690.834 L50.9921 686.899 Z" fill="#000000" fill-rule="nonzero" fill-opacity="1" /><path clip-path="url(#clip320)" d="M91.5706 699.793 L99.2095 699.793 L99.2095 673.427 L90.8993 675.094 L90.8993 670.835 L99.1632 669.168 L103.839 669.168 L103.839 699.793 L111.478 699.793 L111.478 703.728 L91.5706 703.728 L91.5706 699.793 Z" fill="#000000" fill-rule="nonzero" fill-opacity="1" /><path clip-path="url(#clip320)" d="M130.922 672.247 Q127.311 672.247 125.482 675.811 Q123.677 679.353 123.677 686.483 Q123.677 693.589 125.482 697.154 Q127.311 700.695 130.922 700.695 Q134.556 700.695 136.362 697.154 Q138.191 693.589 138.191 686.483 Q138.191 679.353 136.362 675.811 Q134.556 672.247 130.922 672.247 M130.922 668.543 Q136.732 668.543 139.788 673.149 Q142.867 677.733 142.867 686.483 Q142.867 695.209 139.788 699.816 Q136.732 704.399 130.922 704.399 Q125.112 704.399 122.033 699.816 Q118.978 695.209 118.978 686.483 Q118.978 677.733 122.033 673.149 Q125.112 668.543 130.922 668.543 Z" fill="#000000" fill-rule="nonzero" fill-opacity="1" /><path clip-path="url(#clip320)" d="M82.1494 527.098 L111.825 527.098 L111.825 531.033 L82.1494 531.033 L82.1494 527.098 Z" fill="#000000" fill-rule="nonzero" fill-opacity="1" /><path clip-path="url(#clip320)" d="M121.964 509.367 L140.32 509.367 L140.32 513.302 L126.246 513.302 L126.246 521.774 Q127.265 521.427 128.283 521.265 Q129.302 521.08 130.32 521.08 Q136.107 521.08 139.487 524.251 Q142.867 527.422 142.867 532.839 Q142.867 538.418 139.394 541.52 Q135.922 544.598 129.603 544.598 Q127.427 544.598 125.158 544.228 Q122.913 543.857 120.506 543.117 L120.506 538.418 Q122.589 539.552 124.811 540.108 Q127.033 540.663 129.51 540.663 Q133.515 540.663 135.853 538.557 Q138.191 536.45 138.191 532.839 Q138.191 529.228 135.853 527.121 Q133.515 525.015 129.51 525.015 Q127.635 525.015 125.76 525.432 Q123.908 525.848 121.964 526.728 L121.964 509.367 Z" fill="#000000" fill-rule="nonzero" fill-opacity="1" /><path clip-path="url(#clip320)" d="M130.922 352.645 Q127.311 352.645 125.482 356.209 Q123.677 359.751 123.677 366.881 Q123.677 373.987 125.482 377.552 Q127.311 381.094 130.922 381.094 Q134.556 381.094 136.362 377.552 Q138.191 373.987 138.191 366.881 Q138.191 359.751 136.362 356.209 Q134.556 352.645 130.922 352.645 M130.922 348.941 Q136.732 348.941 139.788 353.547 Q142.867 358.131 142.867 366.881 Q142.867 375.608 139.788 380.214 Q136.732 384.797 130.922 384.797 Q125.112 384.797 122.033 380.214 Q118.978 375.608 118.978 366.881 Q118.978 358.131 122.033 353.547 Q125.112 348.941 130.922 348.941 Z" fill="#000000" fill-rule="nonzero" fill-opacity="1" /><path clip-path="url(#clip320)" d="M121.964 189.765 L140.32 189.765 L140.32 193.7 L126.246 193.7 L126.246 202.172 Q127.265 201.825 128.283 201.663 Q129.302 201.478 130.32 201.478 Q136.107 201.478 139.487 204.649 Q142.867 207.82 142.867 213.237 Q142.867 218.816 139.394 221.918 Q135.922 224.996 129.603 224.996 Q127.427 224.996 125.158 224.626 Q122.913 224.256 120.506 223.515 L120.506 218.816 Q122.589 219.95 124.811 220.506 Q127.033 221.061 129.51 221.061 Q133.515 221.061 135.853 218.955 Q138.191 216.848 138.191 213.237 Q138.191 209.626 135.853 207.52 Q133.515 205.413 129.51 205.413 Q127.635 205.413 125.76 205.83 Q123.908 206.246 121.964 207.126 L121.964 189.765 Z" fill="#000000" fill-rule="nonzero" fill-opacity="1" /><path clip-path="url(#clip320)" d="M91.5706 60.5889 L99.2095 60.5889 L99.2095 34.2233 L90.8993 35.89 L90.8993 31.6308 L99.1632 29.9641 L103.839 29.9641 L103.839 60.5889 L111.478 60.5889 L111.478 64.5241 L91.5706 64.5241 L91.5706 60.5889 Z" fill="#000000" fill-rule="nonzero" fill-opacity="1" /><path clip-path="url(#clip320)" d="M130.922 33.0428 Q127.311 33.0428 125.482 36.6076 Q123.677 40.1492 123.677 47.2788 Q123.677 54.3853 125.482 57.9501 Q127.311 61.4917 130.922 61.4917 Q134.556 61.4917 136.362 57.9501 Q138.191 54.3853 138.191 47.2788 Q138.191 40.1492 136.362 36.6076 Q134.556 33.0428 130.922 33.0428 M130.922 29.3391 Q136.732 29.3391 139.788 33.9456 Q142.867 38.5289 142.867 47.2788 Q142.867 56.0056 139.788 60.6121 Q136.732 65.1954 130.922 65.1954 Q125.112 65.1954 122.033 60.6121 Q118.978 56.0056 118.978 47.2788 Q118.978 38.5289 122.033 33.9456 Q125.112 29.3391 130.922 29.3391 Z" fill="#000000" fill-rule="nonzero" fill-opacity="1" /><polyline clip-path="url(#clip322)" style="stroke:#009af9; stroke-linecap:round; stroke-linejoin:round; stroke-width:4; stroke-opacity:1; fill:none" points="240.392,334.886 242.445,333.228 244.498,321.919 246.55,327.661 248.603,343.37 250.656,324.518 252.709,321.934 254.762,316.965 256.815,317.433 258.868,344.876 260.921,367.874 262.974,368.034 265.027,368.833 267.079,330.359 269.132,313.179 271.185,333.366 273.238,404.441 275.291,334.711 277.344,359.142 279.397,359.063 281.45,358.638 283.503,359.938 285.555,368.522 287.608,359.864 289.661,358.467 291.714,360.503 293.767,346.215 295.82,364.261 297.873,309.479 299.926,272.521 301.979,274.164 304.031,294.165 306.084,298.561 308.137,331.803 310.19,328.519 312.243,320.129 314.296,321.721 316.349,341.088 318.402,342.321 320.455,337.419 322.507,337.416 324.56,334.265 326.613,326.811 328.666,328.25 330.719,327.989 332.772,344.943 334.825,326.541 336.878,334.525 338.931,334.572 340.984,353.769 343.036,364.109 345.089,338.467 347.142,336.063 349.195,221.674 351.248,314.237 353.301,386.55 355.354,431.724 357.407,467.686 359.46,469.046 361.512,560.708 363.565,555.486 365.618,551.26 367.671,543.719 369.724,553.039 371.777,543.99 373.83,551.64 375.883,450.903 377.936,423.043 379.988,425.975 382.041,412.054 384.094,361.923 386.147,330.554 388.2,330.576 390.253,321.285 392.306,314.872 394.359,337.672 396.412,360.106 398.464,387.518 400.517,349.259 402.57,342.617 404.623,344.282 406.676,343.13 408.729,422.682 410.782,427.227 412.835,427.714 414.888,426.384 416.94,420.555 418.993,418.395 421.046,417.666 423.099,417.134 425.152,376.054 427.205,371.724 429.258,370.179 431.311,371.726 433.364,304.552 435.417,318.399 437.469,326.931 439.522,328.484 441.575,328.488 443.628,351.996 445.681,351.952 447.734,351.963 449.787,358.348 451.84,358.484 453.893,350.402 455.945,288.706 457.998,271.629 460.051,271.22 462.104,270.724 464.157,270.089 466.21,268.382 468.263,266.173 470.316,377.038 472.369,376.857 474.421,376.849 476.474,381.939 478.527,370.083 480.58,339.08 482.633,333.585 484.686,336.551 486.739,336.271 488.792,335.265 490.845,333.971 492.897,333.915 494.95,335.226 497.003,327.767 499.056,324.775 501.109,324.5 503.162,324.431 505.215,324.394 507.268,313.454 509.321,347.361 511.374,347.388 513.426,351.998 515.479,352.061 517.532,357.052 519.585,357.05 521.638,359.231 523.691,340.217 525.744,329.384 527.797,329.887 529.85,329.886 531.902,330.042 533.955,331.743 536.008,331.167 538.061,340.835 540.114,418.788 542.167,415.875 544.22,416.97 546.273,376.797 548.326,442.786 550.378,460.032 552.431,432.146 554.484,466.532 556.537,465.158 558.59,473.125 560.643,476.541 562.696,476.79 564.749,475.153 566.802,485.146 568.854,487.161 570.907,419.663 572.96,396.43 575.013,396.395 577.066,337.703 579.119,337.637 581.172,337.005 583.225,333.141 585.278,273.225 587.331,276.844 589.383,366.927 591.436,369.933 593.489,377.103 595.542,377.105 597.595,379.338 599.648,386.849 601.701,386.183 603.754,451.294 605.807,460.857 607.859,474.104 609.912,474.065 611.965,466.259 614.018,434.316 616.071,434.009 618.124,474.949 620.177,381.681 622.23,343.862 624.283,366.268 626.335,362.355 628.388,354.581 630.441,369.479 632.494,365.494 634.547,429.429 636.6,425.926 638.653,294.129 640.706,466.764 642.759,255.138 644.811,276.738 646.864,275.455 648.917,268.724 650.97,269.281 653.023,270.076 655.076,259.613 657.129,259.61 659.182,299.515 661.235,297.75 663.288,290.865 665.34,359.288 667.393,395.569 669.446,395.718 671.499,384.422 673.552,383.731 675.605,370.968 677.658,371.461 679.711,371.487 681.764,370.801 683.816,369.059 685.869,369.626 687.922,385.037 689.975,385.057 692.028,384.944 694.081,380.699 696.134,383.407 698.187,383.479 700.24,382.942 702.292,383.46 704.345,394.092 706.398,397.849 708.451,397.78 710.504,396.532 712.557,370.777 714.61,390.436 716.663,383.059 718.716,390.311 720.768,387.41 722.821,345.232 724.874,356.025 726.927,364.203 728.98,362.647 731.033,359.228 733.086,359.048 735.139,401.153 737.192,401.921 739.245,394.816 741.297,395.543 743.35,395.041 745.403,395.211 747.456,397.644 749.509,396.574 751.562,396.287 753.615,388.786 755.668,411.584 757.721,400.962 759.773,393.027 761.826,384.747 763.879,384.86 765.932,383.952 767.985,385.514 770.038,385.139 772.091,397.345 774.144,396.061 776.197,395.916 778.249,395.351 780.302,391.654 782.355,389.048 784.408,381.44 786.461,381.444 788.514,375.289 790.567,375.286 792.62,374.728 794.673,375.638 796.725,384.223 798.778,379.432 800.831,375.049 802.884,358.175 804.937,378.216 806.99,374.392 809.043,374.412 811.096,374.446 813.149,374.436 815.202,374.555 817.254,374.618 819.307,375.543 821.36,371.358 823.413,374.398 825.466,377.167 827.519,378.913 829.572,378.267 831.625,384.118 833.678,384.03 835.73,383.762 837.783,383.548 839.836,383.179 841.889,380.288 843.942,415.614 845.995,414.637 848.048,410.221 850.101,379.034 852.154,370.262 854.206,363.331 856.259,362.942 858.312,360.125 860.365,356.094 862.418,353.55 864.471,339.016 866.524,377.437 868.577,382.854 870.63,362.426 872.682,360.774 874.735,366.039 876.788,449.737 878.841,462.737 880.894,472.796 882.947,465.88 885,405.26 887.053,399.575 889.106,392.378 891.159,391.514 893.211,423.102 895.264,422.831 897.317,418.779 899.37,419.921 901.423,416.858 903.476,397.777 905.529,398.185 907.582,398.77 909.635,369.696 911.687,372.445 913.74,356.859 915.793,355.535 917.846,356.421 919.899,296.897 921.952,322.084 924.005,331.691 926.058,362.041 928.111,362.692 930.163,349.401 932.216,353.795 934.269,415.606 936.322,415.725 938.375,416.53 940.428,411.845 942.481,368.366 944.534,374.874 946.587,338.214 948.639,342.339 950.692,261.246 952.745,289.899 954.798,289.896 956.851,289.594 958.904,288.089 960.957,317.122 963.01,312.904 965.063,311.166 967.116,365.241 969.168,355.31 971.221,341.735 973.274,343.608 975.327,346.844 977.38,356.887 979.433,356.735 981.486,337.618 983.539,337.523 985.592,352.797 987.644,355.528 989.697,434.35 991.75,425.908 993.803,434.208 995.856,425.124 997.909,420.212 999.962,399.681 1002.01,399.118 1004.07,352.141 1006.12,397.743 1008.17,392.271 1010.23,397.209 1012.28,396.157 1014.33,326.263 1016.38,270.127 1018.44,138.118 1020.49,511.393 1022.54,589.123 1024.6,586.21 1026.65,598.369 1028.7,597.787 1030.76,617.827 1032.81,651.73 1034.86,640.837 1036.91,640.662 1038.97,580.317 1041.02,591.04 1043.07,378.637 1045.13,377.244 1047.18,380.853 1049.23,366.039 1051.28,422.007 1053.34,373.24 1055.39,276.592 1057.44,284.69 1059.5,344.917 1061.55,349.99 1063.6,349.891 1065.65,338.404 1067.71,363.359 1069.76,371.661 1071.81,354.421 1073.87,387.787 1075.92,377.194 1077.97,228.622 1080.02,222.14 1082.08,270.172 1084.13,170.584 1086.18,186.037 1088.24,176.778 1090.29,308.838 1092.34,205.728 1094.39,81.0237 1096.45,72.2624 1098.5,87.5818 1100.55,293.624 1102.61,457.35 1104.66,500.798 1106.71,449.629 1108.77,427.112 1110.82,19.6637 1112.87,138.184 1114.92,168.789 1116.98,256.361 1119.03,275.583 1121.08,450.139 1123.14,393.242 1125.19,432.387 1127.24,302.954 1129.29,201.173 1131.35,200.469 1133.4,210.967 1135.45,238.305 1137.51,193.405 1139.56,167.786 1141.61,136.044 1143.66,132.351 1145.72,151.564 1147.77,131.983 1149.82,105.12 1151.88,114.947 1153.93,158.232 1155.98,144.397 1158.03,140.379 1160.09,77.6566 1162.14,77.9175 1164.19,270.625 1166.25,233.155 1168.3,226.357 1170.35,227.784 1172.4,237.119 1174.46,237.469 1176.51,240.19 1178.56,235.712 1180.62,236.68 1182.67,230.39 1184.72,237.972 1186.77,251.917 1188.83,282.01 1190.88,268.821 1192.93,327.583 1194.99,300 1197.04,325.228 1199.09,308.325 1201.15,369.386 1203.2,402.849 1205.25,403.648 1207.3,394.042 1209.36,395.021 1211.41,393.904 1213.46,393.091 1215.52,392.23 1217.57,397.048 1219.62,367.631 1221.67,375.744 1223.73,374.473 1225.78,364.725 1227.83,364.924 1229.89,362.232 1231.94,365.966 1233.99,366.113 1236.04,355.702 1238.1,357.621 1240.15,341.643 1242.2,341.135 1244.26,364.858 1246.31,364.849 1248.36,414.648 1250.41,401.243 1252.47,400.487 1254.52,382.922 1256.57,382.794 1258.63,382.766 1260.68,384.815 1262.73,373.519 1264.78,352.73 1266.84,351.695 1268.89,352.406 1270.94,359.21 1273,367.411 1275.05,366.224 1277.1,363.384 1279.16,362.777 1281.21,363.35 1283.26,363.959 1285.31,363.928 1287.37,364.052 1289.42,355.567 1291.47,364.55 1293.53,364.009 1295.58,337.977 1297.63,337.775 1299.68,337.785 1301.74,338.261 1303.79,334.664 1305.84,339.51 1307.9,347.89 1309.95,345.756 1312,348.396 1314.05,348.623 1316.11,347.867 1318.16,347.981 1320.21,340.944 1322.27,343.019 1324.32,339.394 1326.37,336.851 1328.42,336.928 1330.48,333.265 1332.53,338.051 1334.58,339.364 1336.64,319.743 1338.69,324.901 1340.74,326.325 1342.79,331.912 1344.85,323.794 1346.9,322.98 1348.95,330.363 1351.01,329.959 1353.06,322.095 1355.11,319.441 1357.16,301.954 1359.22,348.044 1361.27,347.934 1363.32,359.705 1365.38,356.049 1367.43,373.282 1369.48,373.861 1371.54,376.642 1373.59,387.069 1375.64,385.298 1377.69,392.447 1379.75,390.699 1381.8,370.568 1383.85,372.862 1385.91,372.461 1387.96,392.158 1390.01,389.542 1392.06,388.117 1394.12,396.061 1396.17,396.389 1398.22,400.888 1400.28,409.066 1402.33,377.578 1404.38,373.161 1406.43,372.989 1408.49,397.778 1410.54,387.844 1412.59,387.906 1414.65,361.795 1416.7,362.445 1418.75,408.233 1420.8,398.11 1422.86,412.801 1424.91,407.553 1426.96,405.754 1429.02,407.948 1431.07,415.001 1433.12,409.953 1435.17,390.998 1437.23,382.113 1439.28,380.125 1441.33,379.663 1443.39,367.154 1445.44,348.731 1447.49,348.433 1449.55,350.643 1451.6,357.763 1453.65,349.956 1455.7,347.148 1457.76,327.567 1459.81,327.58 1461.86,324.172 1463.92,343.597 1465.97,348.165 1468.02,340.775 1470.07,341.32 1472.13,341.699 1474.18,353.227 1476.23,352.817 1478.29,349.007 1480.34,343.218 1482.39,341.78 1484.44,339.947 1486.5,396.581 1488.55,373.989 1490.6,279.624 1492.66,288.586 1494.71,280.344 1496.76,287.269 1498.81,327.75 1500.87,337.586 1502.92,322.731 1504.97,323.768 1507.03,318.634 1509.08,316.982 1511.13,350.106 1513.18,342.873 1515.24,344.59 1517.29,338.256 1519.34,339.043 1521.4,339.098 1523.45,338.648 1525.5,339.882 1527.55,336.05 1529.61,335.204 1531.66,332 1533.71,335.276 1535.77,335.698 1537.82,336.862 1539.87,336.47 1541.93,336.461 1543.98,365.929 1546.03,365.982 1548.08,348.108 1550.14,343.24 1552.19,365.229 1554.24,378.599 1556.3,388.615 1558.35,385.995 1560.4,383.801 1562.45,383.921 1564.51,383.63 1566.56,383.555 1568.61,383.665 1570.67,349.836 1572.72,360.589 1574.77,361.189 1576.82,361.132 1578.88,297.18 1580.93,336.615 1582.98,321.427 1585.04,327.28 1587.09,328.608 1589.14,328.652 1591.19,353.754 1593.25,357.679 1595.3,351.027 1597.35,342.918 1599.41,347.107 1601.46,346.452 1603.51,347.616 1605.56,366.396 1607.62,351.857 1609.67,379.46 1611.72,386.755 1613.78,386.7 1615.83,387.763 1617.88,390.386 1619.94,367.302 1621.99,369.481 1624.04,356.873 1626.09,353.35 1628.15,346.377 1630.2,343.612 1632.25,343.617 1634.31,345.957 1636.36,365.922 1638.41,379.416 1640.46,378.583 1642.52,363.384 1644.57,375.565 1646.62,377.852 1648.68,365.217 1650.73,372.2 1652.78,371.561 1654.83,364.953 1656.89,378.852 1658.94,364.721 1660.99,370.471 1663.05,392.946 1665.1,385.277 1667.15,384.95 1669.2,382.324 1671.26,391.035 1673.31,391.141 1675.36,392.072 1677.42,387.813 1679.47,357.473 1681.52,364.45 1683.57,364.049 1685.63,363.556 1687.68,364.648 1689.73,370.243 1691.79,397.337 1693.84,396.354 1695.89,397.179 1697.94,354.166 1700,368.907 1702.05,355.746 1704.1,341.74 1706.16,365.7 1708.21,367.96 1710.26,368.03 1712.32,366.837 1714.37,371.522 1716.42,378.697 1718.47,364.932 1720.53,361.017 1722.58,360.86 1724.63,380.825 1726.69,380.826 1728.74,380.859 1730.79,405.098 1732.84,405.102 1734.9,405.168 1736.95,399.146 1739,390.59 1741.06,390.807 1743.11,390.364 1745.16,390.299 1747.21,388.121 1749.27,394.638 1751.32,381.662 1753.37,381.572 1755.43,331.083 1757.48,330.985 1759.53,331.676 1761.58,331.741 1763.64,328.266 1765.69,366.015 1767.74,366.042 1769.8,365.378 1771.85,352.425 1773.9,363.245 1775.95,323.503 1778.01,323.549 1780.06,323.232 1782.11,325.978 1784.17,327.05 1786.22,326.784 1788.27,316.292 1790.33,316.206 1792.38,325.667 1794.43,325.278 1796.48,408.919 1798.54,419.041 1800.59,422.851 1802.64,422.428 1804.7,437.221 1806.75,417.12 1808.8,420.707 1810.85,423.841 1812.91,351.744 1814.96,258.087 1817.01,231.816 1819.07,209.765 1821.12,400.689 1823.17,424.99 1825.22,458.757 1827.28,517.853 1829.33,514.782 1831.38,512.232 1833.44,479.68 1835.49,480.097 1837.54,479.056 1839.59,478.553 1841.65,477.001 1843.7,500.28 1845.75,488.859 1847.81,561.43 1849.86,547.598 1851.91,521.176 1853.96,514.363 1856.02,348.984 1858.07,349.519 1860.12,349.518 1862.18,349.773 1864.23,289.335 1866.28,287.241 1868.34,287.164 1870.39,294.011 1872.44,304.705 1874.49,439.552 1876.55,438.595 1878.6,356.105 1880.65,359.904 1882.71,342.7 1884.76,344.12 1886.81,335.377 1888.86,335.517 1890.92,327.359 1892.97,327.42 1895.02,326.682 1897.08,327.218 1899.13,326.473 1901.18,345.057 1903.23,345.828 1905.29,368.763 1907.34,328.741 1909.39,328.499 1911.45,333.876 1913.5,337.678 1915.55,326.806 1917.6,326.071 1919.66,337.293 1921.71,338.775 1923.76,339.096 1925.82,335.028 1927.87,326.902 1929.92,325.668 1931.97,325.609 1934.03,320.754 1936.08,320.604 1938.13,305.654 1940.19,322.631 1942.24,350.734 1944.29,355.133 1946.34,422.79 1948.4,422.744 1950.45,423.18 1952.5,430.702 1954.56,440.014 1956.61,439.298 1958.66,437.087 1960.72,401.334 1962.77,399.04 1964.82,401.755 1966.87,369.782 1968.93,354.106 1970.98,354.302 1973.03,354.459 1975.09,324.769 1977.14,341.697 1979.19,340.316 1981.24,341.997 1983.3,343.101 1985.35,407.48 1987.4,405.432 1989.46,397.891 1991.51,411.238 1993.56,402.325 1995.61,397.84 1997.67,459.233 1999.72,391.145 2001.77,382.689 2003.83,366.69 2005.88,366.782 2007.93,352.94 2009.98,351.304 2012.04,351.581 2014.09,350.972 2016.14,350.014 2018.2,349.984 2020.25,351.964 2022.3,351.484 2024.35,366.164 2026.41,365.815 2028.46,369.833 2030.51,365.934 2032.57,366.543 2034.62,359.762 2036.67,365.961 2038.73,361.153 2040.78,360.121 2042.83,360.412 2044.88,362.475 2046.94,353.878 2048.99,359.959 2051.04,367.446 2053.1,368.034 2055.15,368.583 2057.2,384.9 2059.25,398.963 2061.31,396.99 2063.36,407.753 2065.41,410.945 2067.47,399.236 2069.52,399.201 2071.57,399.229 2073.62,399.227 2075.68,403.873 2077.73,389.403 2079.78,389.686 2081.84,403.684 2083.89,379.313 2085.94,383.057 2087.99,381.379 2090.05,382.397 2092.1,382.472 2094.15,380.176 2096.21,375.762 2098.26,376.702 2100.31,376.688 2102.36,380.174 2104.42,386.048 2106.47,386.89 2108.52,376.439 2110.58,370.785 2112.63,383.593 2114.68,359.613 2116.73,356.735 2118.79,338.088 2120.84,330.689 2122.89,331.418 2124.95,331.56 2127,329.28 2129.05,333.525 2131.11,334.201 2133.16,335.09 2135.21,334.726 2137.26,332.761 2139.32,337.191 2141.37,323.164 2143.42,341.64 2145.48,345.439 2147.53,385.772 2149.58,381.932 2151.63,273.072 2153.69,306.666 2155.74,312.375 2157.79,312.928 2159.85,312.361 2161.9,308 2163.95,308.056 2166,380.827 2168.06,380.365 2170.11,363.931 2172.16,361.648 2174.22,366.276 2176.27,368.196 2178.32,369.272 2180.37,370.438 2182.43,363.922 2184.48,363.582 2186.53,355.573 2188.59,356.076 2190.64,323.019 2192.69,322.748 2194.74,341.418 2196.8,340.343 2198.85,342.764 2200.9,342.829 2202.96,343.344 2205.01,343.105 2207.06,339.435 2209.12,339.431 2211.17,345.583 2213.22,351.001 2215.27,352.986 2217.33,353.117 2219.38,352.892 2221.43,352.314 2223.49,352.092 2225.54,366.783 2227.59,369.108 2229.64,373.317 2231.7,363.448 2233.75,366.43 2235.8,365.219 2237.86,365.257 2239.91,364.767 2241.96,365.997 2244.01,361.687 2246.07,358.987 2248.12,360.892 2250.17,373.045 2252.23,378.352 2254.28,387.155 2256.33,375.434 2258.38,366.831 2260.44,370.112 2262.49,370.089 2264.54,372.656 2266.6,372.793 2268.65,366.185 2270.7,366.41 2272.75,363.204 2274.81,362.604 2276.86,357.636 2278.91,374.686 2280.97,374.628 2283.02,377.523 2285.07,377.882 2287.12,379.947 2289.18,370.834 2291.23,370.759 "/>
<path clip-path="url(#clip320)" d="M1983.6 172.231 L2280.29 172.231 L2280.29 68.5509 L1983.6 68.5509  Z" fill="#ffffff" fill-rule="evenodd" fill-opacity="1"/>
<polyline clip-path="url(#clip320)" style="stroke:#000000; stroke-linecap:round; stroke-linejoin:round; stroke-width:4; stroke-opacity:1; fill:none" points="1983.6,172.231 2280.29,172.231 2280.29,68.5509 1983.6,68.5509 1983.6,172.231 "/>
<polyline clip-path="url(#clip320)" style="stroke:#009af9; stroke-linecap:round; stroke-linejoin:round; stroke-width:4; stroke-opacity:1; fill:none" points="2007.75,120.391 2152.68,120.391 "/>
<path clip-path="url(#clip320)" d="M2176.83 103.111 L2181.51 103.111 L2181.51 133.736 L2198.34 133.736 L2198.34 137.671 L2176.83 137.671 L2176.83 103.111 Z" fill="#000000" fill-rule="nonzero" fill-opacity="1" /><path clip-path="url(#clip320)" d="M2223.96 104.245 L2223.96 108.805 Q2221.3 107.532 2218.94 106.907 Q2216.58 106.282 2214.38 106.282 Q2210.56 106.282 2208.48 107.764 Q2206.42 109.245 2206.42 111.977 Q2206.42 114.268 2207.78 115.449 Q2209.17 116.606 2213.01 117.324 L2215.84 117.902 Q2221.07 118.898 2223.55 121.421 Q2226.05 123.921 2226.05 128.134 Q2226.05 133.157 2222.67 135.75 Q2219.31 138.342 2212.81 138.342 Q2210.35 138.342 2207.57 137.787 Q2204.82 137.231 2201.86 136.143 L2201.86 131.328 Q2204.7 132.926 2207.44 133.736 Q2210.17 134.546 2212.81 134.546 Q2216.81 134.546 2218.99 132.972 Q2221.16 131.398 2221.16 128.481 Q2221.16 125.935 2219.59 124.5 Q2218.04 123.064 2214.47 122.347 L2211.62 121.791 Q2206.39 120.75 2204.06 118.527 Q2201.72 116.305 2201.72 112.347 Q2201.72 107.764 2204.94 105.125 Q2208.18 102.486 2213.85 102.486 Q2216.28 102.486 2218.8 102.926 Q2221.32 103.366 2223.96 104.245 Z" fill="#000000" fill-rule="nonzero" fill-opacity="1" /><path clip-path="url(#clip320)" d="M2254.06 104.245 L2254.06 108.805 Q2251.39 107.532 2249.03 106.907 Q2246.67 106.282 2244.47 106.282 Q2240.65 106.282 2238.57 107.764 Q2236.51 109.245 2236.51 111.977 Q2236.51 114.268 2237.87 115.449 Q2239.26 116.606 2243.11 117.324 L2245.93 117.902 Q2251.16 118.898 2253.64 121.421 Q2256.14 123.921 2256.14 128.134 Q2256.14 133.157 2252.76 135.75 Q2249.4 138.342 2242.9 138.342 Q2240.44 138.342 2237.67 137.787 Q2234.91 137.231 2231.95 136.143 L2231.95 131.328 Q2234.8 132.926 2237.53 133.736 Q2240.26 134.546 2242.9 134.546 Q2246.9 134.546 2249.08 132.972 Q2251.25 131.398 2251.25 128.481 Q2251.25 125.935 2249.68 124.5 Q2248.13 123.064 2244.56 122.347 L2241.72 121.791 Q2236.49 120.75 2234.15 118.527 Q2231.81 116.305 2231.81 112.347 Q2231.81 107.764 2235.03 105.125 Q2238.27 102.486 2243.94 102.486 Q2246.37 102.486 2248.89 102.926 Q2251.42 103.366 2254.06 104.245 Z" fill="#000000" fill-rule="nonzero" fill-opacity="1" /><path clip-path="url(#clip320)" d="M178.867 1486.45 L2352.76 1486.45 L2352.76 847.244 L178.867 847.244  Z" fill="#ffffff" fill-rule="evenodd" fill-opacity="1"/>
<defs>
  <clipPath id="clip323">
    <rect x="178" y="847" width="2175" height="640"/>
  </clipPath>
</defs>
<polyline clip-path="url(#clip323)" style="stroke:#000000; stroke-linecap:round; stroke-linejoin:round; stroke-width:2; stroke-opacity:0.1; fill:none" points="238.339,1486.45 238.339,847.244 "/>
<polyline clip-path="url(#clip323)" style="stroke:#000000; stroke-linecap:round; stroke-linejoin:round; stroke-width:2; stroke-opacity:0.1; fill:none" points="751.562,1486.45 751.562,847.244 "/>
<polyline clip-path="url(#clip323)" style="stroke:#000000; stroke-linecap:round; stroke-linejoin:round; stroke-width:2; stroke-opacity:0.1; fill:none" points="1264.78,1486.45 1264.78,847.244 "/>
<polyline clip-path="url(#clip323)" style="stroke:#000000; stroke-linecap:round; stroke-linejoin:round; stroke-width:2; stroke-opacity:0.1; fill:none" points="1778.01,1486.45 1778.01,847.244 "/>
<polyline clip-path="url(#clip323)" style="stroke:#000000; stroke-linecap:round; stroke-linejoin:round; stroke-width:2; stroke-opacity:0.1; fill:none" points="2291.23,1486.45 2291.23,847.244 "/>
<polyline clip-path="url(#clip323)" style="stroke:#000000; stroke-linecap:round; stroke-linejoin:round; stroke-width:2; stroke-opacity:0.1; fill:none" points="178.867,1486.45 2352.76,1486.45 "/>
<polyline clip-path="url(#clip323)" style="stroke:#000000; stroke-linecap:round; stroke-linejoin:round; stroke-width:2; stroke-opacity:0.1; fill:none" points="178.867,1326.65 2352.76,1326.65 "/>
<polyline clip-path="url(#clip323)" style="stroke:#000000; stroke-linecap:round; stroke-linejoin:round; stroke-width:2; stroke-opacity:0.1; fill:none" points="178.867,1166.85 2352.76,1166.85 "/>
<polyline clip-path="url(#clip323)" style="stroke:#000000; stroke-linecap:round; stroke-linejoin:round; stroke-width:2; stroke-opacity:0.1; fill:none" points="178.867,1007.05 2352.76,1007.05 "/>
<polyline clip-path="url(#clip323)" style="stroke:#000000; stroke-linecap:round; stroke-linejoin:round; stroke-width:2; stroke-opacity:0.1; fill:none" points="178.867,847.244 2352.76,847.244 "/>
<polyline clip-path="url(#clip320)" style="stroke:#000000; stroke-linecap:round; stroke-linejoin:round; stroke-width:4; stroke-opacity:1; fill:none" points="178.867,1486.45 2352.76,1486.45 "/>
<polyline clip-path="url(#clip320)" style="stroke:#000000; stroke-linecap:round; stroke-linejoin:round; stroke-width:4; stroke-opacity:1; fill:none" points="238.339,1486.45 238.339,1467.55 "/>
<polyline clip-path="url(#clip320)" style="stroke:#000000; stroke-linecap:round; stroke-linejoin:round; stroke-width:4; stroke-opacity:1; fill:none" points="751.562,1486.45 751.562,1467.55 "/>
<polyline clip-path="url(#clip320)" style="stroke:#000000; stroke-linecap:round; stroke-linejoin:round; stroke-width:4; stroke-opacity:1; fill:none" points="1264.78,1486.45 1264.78,1467.55 "/>
<polyline clip-path="url(#clip320)" style="stroke:#000000; stroke-linecap:round; stroke-linejoin:round; stroke-width:4; stroke-opacity:1; fill:none" points="1778.01,1486.45 1778.01,1467.55 "/>
<polyline clip-path="url(#clip320)" style="stroke:#000000; stroke-linecap:round; stroke-linejoin:round; stroke-width:4; stroke-opacity:1; fill:none" points="2291.23,1486.45 2291.23,1467.55 "/>
<path clip-path="url(#clip320)" d="M238.339 1517.37 Q234.728 1517.37 232.899 1520.93 Q231.094 1524.47 231.094 1531.6 Q231.094 1538.71 232.899 1542.27 Q234.728 1545.82 238.339 1545.82 Q241.973 1545.82 243.779 1542.27 Q245.607 1538.71 245.607 1531.6 Q245.607 1524.47 243.779 1520.93 Q241.973 1517.37 238.339 1517.37 M238.339 1513.66 Q244.149 1513.66 247.205 1518.27 Q250.283 1522.85 250.283 1531.6 Q250.283 1540.33 247.205 1544.94 Q244.149 1549.52 238.339 1549.52 Q232.529 1549.52 229.45 1544.94 Q226.395 1540.33 226.395 1531.6 Q226.395 1522.85 229.45 1518.27 Q232.529 1513.66 238.339 1513.66 Z" fill="#000000" fill-rule="nonzero" fill-opacity="1" /><path clip-path="url(#clip320)" d="M715.254 1544.91 L731.574 1544.91 L731.574 1548.85 L709.629 1548.85 L709.629 1544.91 Q712.291 1542.16 716.875 1537.53 Q721.481 1532.88 722.662 1531.53 Q724.907 1529.01 725.787 1527.27 Q726.689 1525.51 726.689 1523.82 Q726.689 1521.07 724.745 1519.33 Q722.824 1517.6 719.722 1517.6 Q717.523 1517.6 715.069 1518.36 Q712.638 1519.13 709.861 1520.68 L709.861 1515.95 Q712.685 1514.82 715.138 1514.24 Q717.592 1513.66 719.629 1513.66 Q725 1513.66 728.194 1516.35 Q731.388 1519.03 731.388 1523.52 Q731.388 1525.65 730.578 1527.57 Q729.791 1529.47 727.685 1532.07 Q727.106 1532.74 724.004 1535.95 Q720.902 1539.15 715.254 1544.91 Z" fill="#000000" fill-rule="nonzero" fill-opacity="1" /><path clip-path="url(#clip320)" d="M741.435 1514.29 L759.791 1514.29 L759.791 1518.22 L745.717 1518.22 L745.717 1526.7 Q746.736 1526.35 747.754 1526.19 Q748.773 1526 749.791 1526 Q755.578 1526 758.958 1529.17 Q762.337 1532.34 762.337 1537.76 Q762.337 1543.34 758.865 1546.44 Q755.393 1549.52 749.073 1549.52 Q746.898 1549.52 744.629 1549.15 Q742.384 1548.78 739.976 1548.04 L739.976 1543.34 Q742.06 1544.47 744.282 1545.03 Q746.504 1545.58 748.981 1545.58 Q752.985 1545.58 755.323 1543.48 Q757.661 1541.37 757.661 1537.76 Q757.661 1534.15 755.323 1532.04 Q752.985 1529.94 748.981 1529.94 Q747.106 1529.94 745.231 1530.35 Q743.379 1530.77 741.435 1531.65 L741.435 1514.29 Z" fill="#000000" fill-rule="nonzero" fill-opacity="1" /><path clip-path="url(#clip320)" d="M781.55 1517.37 Q777.939 1517.37 776.11 1520.93 Q774.305 1524.47 774.305 1531.6 Q774.305 1538.71 776.11 1542.27 Q777.939 1545.82 781.55 1545.82 Q785.184 1545.82 786.99 1542.27 Q788.819 1538.71 788.819 1531.6 Q788.819 1524.47 786.99 1520.93 Q785.184 1517.37 781.55 1517.37 M781.55 1513.66 Q787.36 1513.66 790.416 1518.27 Q793.495 1522.85 793.495 1531.6 Q793.495 1540.33 790.416 1544.94 Q787.36 1549.52 781.55 1549.52 Q775.74 1549.52 772.661 1544.94 Q769.606 1540.33 769.606 1531.6 Q769.606 1522.85 772.661 1518.27 Q775.74 1513.66 781.55 1513.66 Z" fill="#000000" fill-rule="nonzero" fill-opacity="1" /><path clip-path="url(#clip320)" d="M1224.4 1514.29 L1242.76 1514.29 L1242.76 1518.22 L1228.69 1518.22 L1228.69 1526.7 Q1229.7 1526.35 1230.72 1526.19 Q1231.74 1526 1232.76 1526 Q1238.55 1526 1241.93 1529.17 Q1245.31 1532.34 1245.31 1537.76 Q1245.31 1543.34 1241.83 1546.44 Q1238.36 1549.52 1232.04 1549.52 Q1229.87 1549.52 1227.6 1549.15 Q1225.35 1548.78 1222.94 1548.04 L1222.94 1543.34 Q1225.03 1544.47 1227.25 1545.03 Q1229.47 1545.58 1231.95 1545.58 Q1235.95 1545.58 1238.29 1543.48 Q1240.63 1541.37 1240.63 1537.76 Q1240.63 1534.15 1238.29 1532.04 Q1235.95 1529.94 1231.95 1529.94 Q1230.07 1529.94 1228.2 1530.35 Q1226.35 1530.77 1224.4 1531.65 L1224.4 1514.29 Z" fill="#000000" fill-rule="nonzero" fill-opacity="1" /><path clip-path="url(#clip320)" d="M1264.52 1517.37 Q1260.91 1517.37 1259.08 1520.93 Q1257.27 1524.47 1257.27 1531.6 Q1257.27 1538.71 1259.08 1542.27 Q1260.91 1545.82 1264.52 1545.82 Q1268.15 1545.82 1269.96 1542.27 Q1271.79 1538.71 1271.79 1531.6 Q1271.79 1524.47 1269.96 1520.93 Q1268.15 1517.37 1264.52 1517.37 M1264.52 1513.66 Q1270.33 1513.66 1273.38 1518.27 Q1276.46 1522.85 1276.46 1531.6 Q1276.46 1540.33 1273.38 1544.94 Q1270.33 1549.52 1264.52 1549.52 Q1258.71 1549.52 1255.63 1544.94 Q1252.57 1540.33 1252.57 1531.6 Q1252.57 1522.85 1255.63 1518.27 Q1258.71 1513.66 1264.52 1513.66 Z" fill="#000000" fill-rule="nonzero" fill-opacity="1" /><path clip-path="url(#clip320)" d="M1294.68 1517.37 Q1291.07 1517.37 1289.24 1520.93 Q1287.44 1524.47 1287.44 1531.6 Q1287.44 1538.71 1289.24 1542.27 Q1291.07 1545.82 1294.68 1545.82 Q1298.31 1545.82 1300.12 1542.27 Q1301.95 1538.71 1301.95 1531.6 Q1301.95 1524.47 1300.12 1520.93 Q1298.31 1517.37 1294.68 1517.37 M1294.68 1513.66 Q1300.49 1513.66 1303.55 1518.27 Q1306.62 1522.85 1306.62 1531.6 Q1306.62 1540.33 1303.55 1544.94 Q1300.49 1549.52 1294.68 1549.52 Q1288.87 1549.52 1285.79 1544.94 Q1282.74 1540.33 1282.74 1531.6 Q1282.74 1522.85 1285.79 1518.27 Q1288.87 1513.66 1294.68 1513.66 Z" fill="#000000" fill-rule="nonzero" fill-opacity="1" /><path clip-path="url(#clip320)" d="M1736.28 1514.29 L1758.51 1514.29 L1758.51 1516.28 L1745.96 1548.85 L1741.08 1548.85 L1752.88 1518.22 L1736.28 1518.22 L1736.28 1514.29 Z" fill="#000000" fill-rule="nonzero" fill-opacity="1" /><path clip-path="url(#clip320)" d="M1767.67 1514.29 L1786.03 1514.29 L1786.03 1518.22 L1771.95 1518.22 L1771.95 1526.7 Q1772.97 1526.35 1773.99 1526.19 Q1775.01 1526 1776.03 1526 Q1781.82 1526 1785.2 1529.17 Q1788.57 1532.34 1788.57 1537.76 Q1788.57 1543.34 1785.1 1546.44 Q1781.63 1549.52 1775.31 1549.52 Q1773.14 1549.52 1770.87 1549.15 Q1768.62 1548.78 1766.21 1548.04 L1766.21 1543.34 Q1768.3 1544.47 1770.52 1545.03 Q1772.74 1545.58 1775.22 1545.58 Q1779.22 1545.58 1781.56 1543.48 Q1783.9 1541.37 1783.9 1537.76 Q1783.9 1534.15 1781.56 1532.04 Q1779.22 1529.94 1775.22 1529.94 Q1773.34 1529.94 1771.47 1530.35 Q1769.62 1530.77 1767.67 1531.65 L1767.67 1514.29 Z" fill="#000000" fill-rule="nonzero" fill-opacity="1" /><path clip-path="url(#clip320)" d="M1807.79 1517.37 Q1804.18 1517.37 1802.35 1520.93 Q1800.54 1524.47 1800.54 1531.6 Q1800.54 1538.71 1802.35 1542.27 Q1804.18 1545.82 1807.79 1545.82 Q1811.42 1545.82 1813.23 1542.27 Q1815.06 1538.71 1815.06 1531.6 Q1815.06 1524.47 1813.23 1520.93 Q1811.42 1517.37 1807.79 1517.37 M1807.79 1513.66 Q1813.6 1513.66 1816.65 1518.27 Q1819.73 1522.85 1819.73 1531.6 Q1819.73 1540.33 1816.65 1544.94 Q1813.6 1549.52 1807.79 1549.52 Q1801.98 1549.52 1798.9 1544.94 Q1795.84 1540.33 1795.84 1531.6 Q1795.84 1522.85 1798.9 1518.27 Q1801.98 1513.66 1807.79 1513.66 Z" fill="#000000" fill-rule="nonzero" fill-opacity="1" /><path clip-path="url(#clip320)" d="M2235.76 1544.91 L2243.4 1544.91 L2243.4 1518.55 L2235.09 1520.21 L2235.09 1515.95 L2243.35 1514.29 L2248.02 1514.29 L2248.02 1544.91 L2255.66 1544.91 L2255.66 1548.85 L2235.76 1548.85 L2235.76 1544.91 Z" fill="#000000" fill-rule="nonzero" fill-opacity="1" /><path clip-path="url(#clip320)" d="M2275.11 1517.37 Q2271.5 1517.37 2269.67 1520.93 Q2267.86 1524.47 2267.86 1531.6 Q2267.86 1538.71 2269.67 1542.27 Q2271.5 1545.82 2275.11 1545.82 Q2278.74 1545.82 2280.55 1542.27 Q2282.38 1538.71 2282.38 1531.6 Q2282.38 1524.47 2280.55 1520.93 Q2278.74 1517.37 2275.11 1517.37 M2275.11 1513.66 Q2280.92 1513.66 2283.97 1518.27 Q2287.05 1522.85 2287.05 1531.6 Q2287.05 1540.33 2283.97 1544.94 Q2280.92 1549.52 2275.11 1549.52 Q2269.3 1549.52 2266.22 1544.94 Q2263.16 1540.33 2263.16 1531.6 Q2263.16 1522.85 2266.22 1518.27 Q2269.3 1513.66 2275.11 1513.66 Z" fill="#000000" fill-rule="nonzero" fill-opacity="1" /><path clip-path="url(#clip320)" d="M2305.27 1517.37 Q2301.66 1517.37 2299.83 1520.93 Q2298.02 1524.47 2298.02 1531.6 Q2298.02 1538.71 2299.83 1542.27 Q2301.66 1545.82 2305.27 1545.82 Q2308.9 1545.82 2310.71 1542.27 Q2312.54 1538.71 2312.54 1531.6 Q2312.54 1524.47 2310.71 1520.93 Q2308.9 1517.37 2305.27 1517.37 M2305.27 1513.66 Q2311.08 1513.66 2314.14 1518.27 Q2317.21 1522.85 2317.21 1531.6 Q2317.21 1540.33 2314.14 1544.94 Q2311.08 1549.52 2305.27 1549.52 Q2299.46 1549.52 2296.38 1544.94 Q2293.33 1540.33 2293.33 1531.6 Q2293.33 1522.85 2296.38 1518.27 Q2299.46 1513.66 2305.27 1513.66 Z" fill="#000000" fill-rule="nonzero" fill-opacity="1" /><path clip-path="url(#clip320)" d="M2335.43 1517.37 Q2331.82 1517.37 2329.99 1520.93 Q2328.19 1524.47 2328.19 1531.6 Q2328.19 1538.71 2329.99 1542.27 Q2331.82 1545.82 2335.43 1545.82 Q2339.07 1545.82 2340.87 1542.27 Q2342.7 1538.71 2342.7 1531.6 Q2342.7 1524.47 2340.87 1520.93 Q2339.07 1517.37 2335.43 1517.37 M2335.43 1513.66 Q2341.24 1513.66 2344.3 1518.27 Q2347.38 1522.85 2347.38 1531.6 Q2347.38 1540.33 2344.3 1544.94 Q2341.24 1549.52 2335.43 1549.52 Q2329.62 1549.52 2326.54 1544.94 Q2323.49 1540.33 2323.49 1531.6 Q2323.49 1522.85 2326.54 1518.27 Q2329.62 1513.66 2335.43 1513.66 Z" fill="#000000" fill-rule="nonzero" fill-opacity="1" /><polyline clip-path="url(#clip320)" style="stroke:#000000; stroke-linecap:round; stroke-linejoin:round; stroke-width:4; stroke-opacity:1; fill:none" points="178.867,1486.45 178.867,847.244 "/>
<polyline clip-path="url(#clip320)" style="stroke:#000000; stroke-linecap:round; stroke-linejoin:round; stroke-width:4; stroke-opacity:1; fill:none" points="178.867,1486.45 197.764,1486.45 "/>
<polyline clip-path="url(#clip320)" style="stroke:#000000; stroke-linecap:round; stroke-linejoin:round; stroke-width:4; stroke-opacity:1; fill:none" points="178.867,1326.65 197.764,1326.65 "/>
<polyline clip-path="url(#clip320)" style="stroke:#000000; stroke-linecap:round; stroke-linejoin:round; stroke-width:4; stroke-opacity:1; fill:none" points="178.867,1166.85 197.764,1166.85 "/>
<polyline clip-path="url(#clip320)" style="stroke:#000000; stroke-linecap:round; stroke-linejoin:round; stroke-width:4; stroke-opacity:1; fill:none" points="178.867,1007.05 197.764,1007.05 "/>
<polyline clip-path="url(#clip320)" style="stroke:#000000; stroke-linecap:round; stroke-linejoin:round; stroke-width:4; stroke-opacity:1; fill:none" points="178.867,847.244 197.764,847.244 "/>
<path clip-path="url(#clip320)" d="M50.9921 1486.9 L80.6679 1486.9 L80.6679 1490.83 L50.9921 1490.83 L50.9921 1486.9 Z" fill="#000000" fill-rule="nonzero" fill-opacity="1" /><path clip-path="url(#clip320)" d="M91.5706 1499.79 L99.2095 1499.79 L99.2095 1473.43 L90.8993 1475.09 L90.8993 1470.83 L99.1632 1469.17 L103.839 1469.17 L103.839 1499.79 L111.478 1499.79 L111.478 1503.73 L91.5706 1503.73 L91.5706 1499.79 Z" fill="#000000" fill-rule="nonzero" fill-opacity="1" /><path clip-path="url(#clip320)" d="M130.922 1472.25 Q127.311 1472.25 125.482 1475.81 Q123.677 1479.35 123.677 1486.48 Q123.677 1493.59 125.482 1497.15 Q127.311 1500.7 130.922 1500.7 Q134.556 1500.7 136.362 1497.15 Q138.191 1493.59 138.191 1486.48 Q138.191 1479.35 136.362 1475.81 Q134.556 1472.25 130.922 1472.25 M130.922 1468.54 Q136.732 1468.54 139.788 1473.15 Q142.867 1477.73 142.867 1486.48 Q142.867 1495.21 139.788 1499.82 Q136.732 1504.4 130.922 1504.4 Q125.112 1504.4 122.033 1499.82 Q118.978 1495.21 118.978 1486.48 Q118.978 1477.73 122.033 1473.15 Q125.112 1468.54 130.922 1468.54 Z" fill="#000000" fill-rule="nonzero" fill-opacity="1" /><path clip-path="url(#clip320)" d="M82.1494 1327.1 L111.825 1327.1 L111.825 1331.03 L82.1494 1331.03 L82.1494 1327.1 Z" fill="#000000" fill-rule="nonzero" fill-opacity="1" /><path clip-path="url(#clip320)" d="M121.964 1309.37 L140.32 1309.37 L140.32 1313.3 L126.246 1313.3 L126.246 1321.77 Q127.265 1321.43 128.283 1321.27 Q129.302 1321.08 130.32 1321.08 Q136.107 1321.08 139.487 1324.25 Q142.867 1327.42 142.867 1332.84 Q142.867 1338.42 139.394 1341.52 Q135.922 1344.6 129.603 1344.6 Q127.427 1344.6 125.158 1344.23 Q122.913 1343.86 120.506 1343.12 L120.506 1338.42 Q122.589 1339.55 124.811 1340.11 Q127.033 1340.66 129.51 1340.66 Q133.515 1340.66 135.853 1338.56 Q138.191 1336.45 138.191 1332.84 Q138.191 1329.23 135.853 1327.12 Q133.515 1325.01 129.51 1325.01 Q127.635 1325.01 125.76 1325.43 Q123.908 1325.85 121.964 1326.73 L121.964 1309.37 Z" fill="#000000" fill-rule="nonzero" fill-opacity="1" /><path clip-path="url(#clip320)" d="M130.922 1152.64 Q127.311 1152.64 125.482 1156.21 Q123.677 1159.75 123.677 1166.88 Q123.677 1173.99 125.482 1177.55 Q127.311 1181.09 130.922 1181.09 Q134.556 1181.09 136.362 1177.55 Q138.191 1173.99 138.191 1166.88 Q138.191 1159.75 136.362 1156.21 Q134.556 1152.64 130.922 1152.64 M130.922 1148.94 Q136.732 1148.94 139.788 1153.55 Q142.867 1158.13 142.867 1166.88 Q142.867 1175.61 139.788 1180.21 Q136.732 1184.8 130.922 1184.8 Q125.112 1184.8 122.033 1180.21 Q118.978 1175.61 118.978 1166.88 Q118.978 1158.13 122.033 1153.55 Q125.112 1148.94 130.922 1148.94 Z" fill="#000000" fill-rule="nonzero" fill-opacity="1" /><path clip-path="url(#clip320)" d="M121.964 989.765 L140.32 989.765 L140.32 993.7 L126.246 993.7 L126.246 1002.17 Q127.265 1001.83 128.283 1001.66 Q129.302 1001.48 130.32 1001.48 Q136.107 1001.48 139.487 1004.65 Q142.867 1007.82 142.867 1013.24 Q142.867 1018.82 139.394 1021.92 Q135.922 1025 129.603 1025 Q127.427 1025 125.158 1024.63 Q122.913 1024.26 120.506 1023.51 L120.506 1018.82 Q122.589 1019.95 124.811 1020.51 Q127.033 1021.06 129.51 1021.06 Q133.515 1021.06 135.853 1018.95 Q138.191 1016.85 138.191 1013.24 Q138.191 1009.63 135.853 1007.52 Q133.515 1005.41 129.51 1005.41 Q127.635 1005.41 125.76 1005.83 Q123.908 1006.25 121.964 1007.13 L121.964 989.765 Z" fill="#000000" fill-rule="nonzero" fill-opacity="1" /><path clip-path="url(#clip320)" d="M91.5706 860.589 L99.2095 860.589 L99.2095 834.223 L90.8993 835.89 L90.8993 831.631 L99.1632 829.964 L103.839 829.964 L103.839 860.589 L111.478 860.589 L111.478 864.524 L91.5706 864.524 L91.5706 860.589 Z" fill="#000000" fill-rule="nonzero" fill-opacity="1" /><path clip-path="url(#clip320)" d="M130.922 833.043 Q127.311 833.043 125.482 836.608 Q123.677 840.149 123.677 847.279 Q123.677 854.385 125.482 857.95 Q127.311 861.492 130.922 861.492 Q134.556 861.492 136.362 857.95 Q138.191 854.385 138.191 847.279 Q138.191 840.149 136.362 836.608 Q134.556 833.043 130.922 833.043 M130.922 829.339 Q136.732 829.339 139.788 833.946 Q142.867 838.529 142.867 847.279 Q142.867 856.006 139.788 860.612 Q136.732 865.195 130.922 865.195 Q125.112 865.195 122.033 860.612 Q118.978 856.006 118.978 847.279 Q118.978 838.529 122.033 833.946 Q125.112 829.339 130.922 829.339 Z" fill="#000000" fill-rule="nonzero" fill-opacity="1" /><polyline clip-path="url(#clip323)" style="stroke:#009af9; stroke-linecap:round; stroke-linejoin:round; stroke-width:4; stroke-opacity:1; fill:none" points="240.392,1134.89 242.445,1148.67 244.498,1140.46 246.55,1135.64 248.603,1162.93 250.656,1168.16 252.709,1168.54 254.762,1177.46 256.815,1214.54 258.868,1306.66 260.921,1202.66 262.974,1152.5 265.027,1162.72 267.079,1180.4 269.132,1191.47 271.185,1241.25 273.238,1147.27 275.291,1052.62 277.344,1111.81 279.397,1093.35 281.45,1174.49 283.503,1506.59 285.555,1150.56 287.608,1017.58 289.661,1482.82 291.714,1312.12 293.767,839.976 295.82,1533.05 297.873,1087.51 299.926,1126.2 301.979,1106.97 304.031,1177.91 306.084,1292.92 308.137,1172.73 310.19,1179.01 312.243,1174.63 314.296,1165.75 316.349,1164.92 318.402,1176.06 320.455,1214.48 322.507,1085 324.56,1015.82 326.613,1329.89 328.666,1229.16 330.719,1269.5 332.772,1096.58 334.825,1208.28 336.878,1177.3 338.931,1137.87 340.984,1163.2 343.036,1159.95 345.089,1154.79 347.142,1154.97 349.195,1196.3 351.248,1082.55 353.301,1151.19 355.354,1166.65 357.407,1171.97 359.46,1149.39 361.512,1141.07 363.565,1253.53 365.618,1186.63 367.671,147.706 369.724,283.248 371.777,775.994 373.83,1289.47 375.883,2564.57 377.936,1150.14 379.988,1239.95 382.041,4198.91 384.094,4565.06 386.147,5887.13 388.2,2951.2 390.253,1229.97 392.306,1905.99 394.359,982.393 396.412,1225.13 398.464,1083.82 400.517,1981.31 402.57,1434.13 404.623,986.305 406.676,940.045 408.729,1456.06 410.782,1394.99 412.835,-4838.13 414.888,2432.25 416.94,-134.405 418.993,-557.236 421.046,-19354.4 423.099,32716.8 425.152,-1215.02 427.205,13540.8 429.258,54809 431.311,-27947.1 433.364,-136828 435.417,-44002.8 437.469,-21233.5 439.522,19868.3 441.575,5349.35 443.628,1565.04 445.681,2028.31 447.734,1002.42 449.787,1304.54 451.84,1246.76 453.893,1135.17 455.945,1160.4 457.998,1085.56 460.051,1235.51 462.104,1290.04 464.157,1037.86 466.21,1329.01 468.263,1086.54 470.316,1174.39 472.369,1150.02 474.421,1149.18 476.474,1132.06 478.527,1174.53 480.58,1173.69 482.633,1199.33 484.686,1161.25 486.739,1221.75 488.792,1037.5 490.845,1138.17 492.897,1173.17 494.95,1152.69 497.003,1175.87 499.056,1198.67 501.109,1009.22 503.162,1187.9 505.215,1186.65 507.268,1127.57 509.321,1164.1 511.374,1209.51 513.426,1188.08 515.479,1301.69 517.532,1311.03 519.585,1076 521.638,1488.22 523.691,1082.57 525.744,1021.27 527.797,1045.63 529.85,1051.79 531.902,1140.76 533.955,1169.19 536.008,1149.74 538.061,1180.25 540.114,1202.95 542.167,1173.89 544.22,1206.31 546.273,1162.82 548.326,1166.98 550.378,1159.52 552.431,1278.5 554.484,1130.67 556.537,1147.09 558.59,1200.65 560.643,1112.86 562.696,1202.08 564.749,2277.31 566.802,1995.32 568.854,1066.58 570.907,998.37 572.96,1104.4 575.013,1006.2 577.066,1371.77 579.119,1083.39 581.172,1150.91 583.225,1194.65 585.278,1074.1 587.331,1075.1 589.383,1173.76 591.436,1161.92 593.489,1187.15 595.542,1160.37 597.595,1223.2 599.648,1164.13 601.701,1127.93 603.754,1128.51 605.807,1194.08 607.859,1198.56 609.912,1188.92 611.965,1162.87 614.018,1168.07 616.071,1114.97 618.124,1107.62 620.177,1204.23 622.23,1250.57 624.283,1259.43 626.335,1149.59 628.388,1152.17 630.441,1180.59 632.494,1182.58 634.547,1124.03 636.6,1206.33 638.653,1100.01 640.706,1166.37 642.759,1126.61 644.811,1148.16 646.864,1150.95 648.917,1171.31 650.97,1180.75 653.023,1144.35 655.076,1077.2 657.129,1170.45 659.182,1192.27 661.235,1170.62 663.288,1149.78 665.34,1070.96 667.393,1137.05 669.446,1213 671.499,1222.35 673.552,1124.37 675.605,1429.56 677.658,992.48 679.711,1458.9 681.764,954.674 683.816,1199.41 685.869,1168.32 687.922,1177.02 689.975,1110.67 692.028,1108.99 694.081,1027.93 696.134,436.982 698.187,776.06 700.24,1332.08 702.292,1235.58 704.345,1144.09 706.398,1161.33 708.451,1185.56 710.504,1141.73 712.557,1172.95 714.61,1196.33 716.663,1184.87 718.716,1185.87 720.768,1178.26 722.821,1125.48 724.874,1179.5 726.927,1140.1 728.98,1156.9 731.033,1194.64 733.086,1155.32 735.139,1127.13 737.192,936.938 739.245,1037.35 741.297,1262.55 743.35,1182.06 745.403,1149.2 747.456,1117.15 749.509,1290.38 751.562,1266.61 753.615,1221.35 755.668,1155.84 757.721,1167.1 759.773,1156.38 761.826,1184.83 763.879,1150.56 765.932,1140.49 767.985,1153.8 770.038,1193.34 772.091,1207.04 774.144,1189.98 776.197,1059.91 778.249,1408.66 780.302,1407.51 782.355,1165.34 784.408,1151.65 786.461,1115.36 788.514,1173.48 790.567,1164.09 792.62,1279.35 794.673,1267.63 796.725,1235.41 798.778,1012.88 800.831,1264.81 802.884,1210.07 804.937,1111.86 806.99,1151.29 809.043,1172.84 811.096,1057.21 813.149,1121.04 815.202,1176.56 817.254,1064.37 819.307,1191.92 821.36,1153.34 823.413,1176.35 825.466,1115.43 827.519,1119.48 829.572,1332.43 831.625,1083.34 833.678,963.681 835.73,1085.08 837.783,1139.8 839.836,1170.57 841.889,1175.59 843.942,1126.06 845.995,1327.15 848.048,1142.56 850.101,1210.89 852.154,1192.21 854.206,1146.03 856.259,1157.31 858.312,1134.55 860.365,1145.43 862.418,1084.24 864.471,1378.19 866.524,988.493 868.577,1389.01 870.63,1249.63 872.682,1237.22 874.735,1117.89 876.788,1176.33 878.841,1044.64 880.894,1157.79 882.947,1141.25 885,1172.2 887.053,1169.07 889.106,1166.22 891.159,1174.76 893.211,1110.26 895.264,1111.68 897.317,1161.27 899.37,1180.91 901.423,1115.44 903.476,1112.21 905.529,1142.36 907.582,1146.76 909.635,1111.83 911.687,1172.25 913.74,1151.53 915.793,1164.23 917.846,1128.16 919.899,1183.73 921.952,1175.96 924.005,1128.79 926.058,1149.06 928.111,1169.88 930.163,1166.72 932.216,1168.53 934.269,1136.44 936.322,1153.13 938.375,1199.61 940.428,1102.75 942.481,1275.38 944.534,1107.28 946.587,1087.97 948.639,1260.14 950.692,1138.08 952.745,1124.7 954.798,1128.05 956.851,1090.33 958.904,1222.69 960.957,1111.74 963.01,1215.21 965.063,1132.36 967.116,1165.06 969.168,1152.5 971.221,1307.5 973.274,1078.71 975.327,1054.15 977.38,1278.27 979.433,1096.9 981.486,1190.58 983.539,1208.76 985.592,1153.02 987.644,1309.7 989.697,1389.24 991.75,889.781 993.803,1252.15 995.856,1195.36 997.909,1166.85 999.962,1143.32 1002.01,1166.85 1004.07,1172.91 1006.12,1189.69 1008.17,1192.69 1010.23,1157.7 1012.28,1215.84 1014.33,1192.42 1016.38,1047.56 1018.44,1269.77 1020.49,1232.51 1022.54,934.419 1024.6,983.696 1026.65,982.161 1028.7,1062.11 1030.76,864.798 1032.81,1355.91 1034.86,1284.07 1036.91,1156.89 1038.97,1245.52 1041.02,1153.75 1043.07,1163.59 1045.13,1136.35 1047.18,1139.01 1049.23,1110.19 1051.28,1148.71 1053.34,1154.87 1055.39,1099.9 1057.44,1207.41 1059.5,1224.92 1061.55,1207.99 1063.6,1171.58 1065.65,1200.71 1067.71,1132.19 1069.76,1304.19 1071.81,1209.61 1073.87,1011.21 1075.92,1074.73 1077.97,1090.19 1080.02,1328.51 1082.08,1168.17 1084.13,1203.5 1086.18,1206.12 1088.24,1141.95 1090.29,1199.42 1092.34,1196.86 1094.39,1138.9 1096.45,1170.29 1098.5,1174.53 1100.55,1186.96 1102.61,1144.09 1104.66,1368.32 1106.71,1263.26 1108.77,1147.83 1110.82,1150.24 1112.87,1175.38 1114.92,1158.98 1116.98,1122.18 1119.03,1192.93 1121.08,1135.06 1123.14,1107.66 1125.19,1162.99 1127.24,1183.69 1129.29,1161.05 1131.35,1372.95 1133.4,1160.06 1135.45,1140 1137.51,1150.49 1139.56,1189.69 1141.61,1185.62 1143.66,1192.31 1145.72,1187.64 1147.77,1197.09 1149.82,1204.99 1151.88,1197.06 1153.93,1249.48 1155.98,1179.94 1158.03,1176.64 1160.09,1134.67 1162.14,1116.4 1164.19,1203.95 1166.25,1227.46 1168.3,1141.72 1170.35,1126.36 1172.4,1144.54 1174.46,1152.69 1176.51,1184.15 1178.56,1160.81 1180.62,1421.67 1182.67,905.481 1184.72,1023.05 1186.77,1546.02 1188.83,1771.65 1190.88,1196.25 1192.93,1162.81 1194.99,1169.56 1197.04,1178.84 1199.09,1144.3 1201.15,1208.74 1203.2,1150.31 1205.25,1136.35 1207.3,1140.72 1209.36,1219.78 1211.41,1144.22 1213.46,1176.77 1215.52,1155.47 1217.57,1233.36 1219.62,705.667 1221.67,859.176 1223.73,1229.14 1225.78,1122.36 1227.83,877.265 1229.89,1076.8 1231.94,1177.42 1233.99,748.154 1236.04,1367.18 1238.1,891.704 1240.15,1523.87 1242.2,1274.11 1244.26,1235.65 1246.31,1120.57 1248.36,1148.63 1250.41,1196.61 1252.47,1145.38 1254.52,1212.14 1256.57,1110.47 1258.63,1264.42 1260.68,1614.23 1262.73,1805.26 1264.78,1072.74 1266.84,1258.22 1268.89,1143.97 1270.94,1173.05 1273,1147.35 1275.05,965.287 1277.1,1023.89 1279.16,1135.32 1281.21,1090.68 1283.26,1254.42 1285.31,1046.06 1287.37,1193.02 1289.42,1163.71 1291.47,1173.9 1293.53,1192.07 1295.58,1158.05 1297.63,1168.41 1299.68,1197.95 1301.74,1163.25 1303.79,1129.5 1305.84,1173.7 1307.9,1196.7 1309.95,1187.1 1312,1268.82 1314.05,1228.83 1316.11,1065.71 1318.16,1251.76 1320.21,1301.47 1322.27,1045.99 1324.32,933.174 1326.37,1290.64 1328.42,1215.28 1330.48,1112.3 1332.53,1164 1334.58,1190.02 1336.64,1215.07 1338.69,1159.51 1340.74,1173.62 1342.79,1182.06 1344.85,1268.39 1346.9,1203.72 1348.95,1181.13 1351.01,1188.1 1353.06,1167.18 1355.11,1156.66 1357.16,1180.51 1359.22,1211.14 1361.27,1141.94 1363.32,1153.5 1365.38,1133.57 1367.43,1202.95 1369.48,1200.54 1371.54,1185.35 1373.59,1137.71 1375.64,1132.54 1377.69,1160.84 1379.75,1179.87 1381.8,1218.63 1383.85,1132.92 1385.91,1142.2 1387.96,1185.61 1390.01,1154.55 1392.06,1210.21 1394.12,1238.25 1396.17,1134.71 1398.22,1172.49 1400.28,1118.37 1402.33,1173.25 1404.38,1194.35 1406.43,1186.96 1408.49,1174.7 1410.54,1189.93 1412.59,1166.91 1414.65,1155.19 1416.7,1115.76 1418.75,1196.24 1420.8,1150.9 1422.86,1193.37 1424.91,1113.79 1426.96,1140.84 1429.02,1157.32 1431.07,1176.52 1433.12,1184.33 1435.17,1175.72 1437.23,1138.55 1439.28,1220.87 1441.33,1144.28 1443.39,1156.56 1445.44,1168.01 1447.49,1165.95 1449.55,1169.98 1451.6,1170.86 1453.65,1166.95 1455.7,1157.63 1457.76,1158.58 1459.81,1179.69 1461.86,1153.43 1463.92,1142.47 1465.97,1206.41 1468.02,1099.53 1470.07,1119.89 1472.13,1322.4 1474.18,1069.61 1476.23,549.443 1478.29,652.576 1480.34,4408.36 1482.39,189.473 1484.44,2228.25 1486.5,2041.95 1488.55,1365.07 1490.6,1179.3 1492.66,1205.17 1494.71,1165.57 1496.76,1163.16 1498.81,1160.65 1500.87,1164.81 1502.92,1170.72 1504.97,1164.24 1507.03,1173.33 1509.08,1163.51 1511.13,1177.15 1513.18,1163.99 1515.24,1165.79 1517.29,1176.66 1519.34,1169.96 1521.4,1157.18 1523.45,1153.13 1525.5,1165.05 1527.55,1166.45 1529.61,1198.54 1531.66,945.325 1533.71,1117.39 1535.77,1114.35 1537.82,1160.52 1539.87,1129.58 1541.93,1196 1543.98,1137.29 1546.03,1167.91 1548.08,1100.04 1550.14,1237.67 1552.19,1170.52 1554.24,1162.8 1556.3,1070.1 1558.35,1052.64 1560.4,1131.95 1562.45,1156.2 1564.51,1179.2 1566.56,1171.09 1568.61,1175.68 1570.67,1114.48 1572.72,1160.33 1574.77,1170.45 1576.82,1169.48 1578.88,1191.06 1580.93,1035.31 1582.98,937.155 1585.04,813.738 1587.09,1072.69 1589.14,1362.5 1591.19,-446.901 1593.25,1537.27 1595.3,-522.194 1597.35,-1339.69 1599.41,1737.66 1601.46,1466.82 1603.51,833.729 1605.56,1220.45 1607.62,1180.89 1609.67,1153 1611.72,1173.7 1613.78,1179.15 1615.83,1179.52 1617.88,1183.07 1619.94,1117.79 1621.99,1192.45 1624.04,1119.2 1626.09,1072.63 1628.15,1176.09 1630.2,1152.76 1632.25,1188.5 1634.31,1218.45 1636.36,1191.33 1638.41,1152.9 1640.46,1214.87 1642.52,1130.92 1644.57,1137.59 1646.62,1171.4 1648.68,1144.99 1650.73,1173.37 1652.78,846.52 1654.83,2852.57 1656.89,2823.39 1658.94,-728.749 1660.99,5863.35 1663.05,2695.35 1665.1,-692.54 1667.15,-21.6058 1669.2,2279.4 1671.26,1989.69 1673.31,2860.35 1675.36,762.281 1677.42,1238.24 1679.47,1059.48 1681.52,1104.21 1683.57,1149.75 1685.63,1183.55 1687.68,1151.19 1689.73,1184.81 1691.79,1181.43 1693.84,1153.75 1695.89,1175.46 1697.94,1167.42 1700,1143.45 1702.05,1014.89 1704.1,1273.14 1706.16,1220.1 1708.21,1168.55 1710.26,1166.74 1712.32,1173.37 1714.37,1171.32 1716.42,1131.24 1718.47,1250.56 1720.53,1241.86 1722.58,-525.909 1724.63,1436.8 1726.69,767.347 1728.74,1072.5 1730.79,1173.58 1732.84,1154.73 1734.9,1145.5 1736.95,1177.46 1739,1167.49 1741.06,1176.67 1743.11,1186.15 1745.16,1147.9 1747.21,1117.57 1749.27,1147.09 1751.32,1132.01 1753.37,1177.17 1755.43,1159.54 1757.48,1234.76 1759.53,1363.74 1761.58,1041.21 1763.64,1195.25 1765.69,1186.38 1767.74,1221.23 1769.8,1032.77 1771.85,1084.85 1773.9,1045.66 1775.95,1037.44 1778.01,1186.09 1780.06,1171.45 1782.11,1126.32 1784.17,1192.45 1786.22,1124.39 1788.27,1190.88 1790.33,1181.85 1792.38,1169.96 1794.43,1152.99 1796.48,1181 1798.54,1161.83 1800.59,1178.58 1802.64,1161.42 1804.7,1165.4 1806.75,1218.26 1808.8,1185.5 1810.85,1242.64 1812.91,1121.73 1814.96,1170.06 1817.01,1146.31 1819.07,1277.42 1821.12,1249.19 1823.17,1128.92 1825.22,1195.2 1827.28,1143.09 1829.33,1248.22 1831.38,1087.18 1833.44,1145.5 1835.49,1210.47 1837.54,1151.23 1839.59,1117.96 1841.65,1229.07 1843.7,1412.14 1845.75,990.278 1847.81,1255.79 1849.86,1307.26 1851.91,1357.31 1853.96,1088.36 1856.02,1241.52 1858.07,1151.81 1860.12,1199.24 1862.18,1171.18 1864.23,1218.68 1866.28,1180.32 1868.34,1139 1870.39,1153.39 1872.44,1180.88 1874.49,1135.29 1876.55,1156.02 1878.6,1124.23 1880.65,1121.88 1882.71,1184.36 1884.76,1038.82 1886.81,1188.12 1888.86,1114.17 1890.92,1178.62 1892.97,1163.09 1895.02,1169.28 1897.08,1172.35 1899.13,1136.21 1901.18,1183.91 1903.23,1151.22 1905.29,1190.04 1907.34,1186.44 1909.39,1175.12 1911.45,1199.66 1913.5,1149.46 1915.55,1189.22 1917.6,1267.2 1919.66,1072.53 1921.71,1168.79 1923.76,1155.88 1925.82,1262.23 1927.87,1076.23 1929.92,1277.88 1931.97,1190.29 1934.03,1161.38 1936.08,1151.59 1938.13,1188.14 1940.19,1149.87 1942.24,1173.18 1944.29,1274.21 1946.34,1206.98 1948.4,1180.64 1950.45,1150.76 1952.5,1064.53 1954.56,1253.66 1956.61,1124.94 1958.66,1568.34 1960.72,1373.41 1962.77,301.444 1964.82,-583.566 1966.87,-354.329 1968.93,450.166 1970.98,2954.52 1973.03,576.916 1975.09,1195.68 1977.14,1177.43 1979.19,1189.9 1981.24,1195.3 1983.3,1137.94 1985.35,1242.3 1987.4,1163.97 1989.46,1171.72 1991.51,1160.38 1993.56,1191.1 1995.61,1182.01 1997.67,1155.72 1999.72,1180.3 2001.77,1217.67 2003.83,1148.12 2005.88,1103.84 2007.93,1211.72 2009.98,1126.81 2012.04,1054.64 2014.09,1186.44 2016.14,1158.31 2018.2,1166.69 2020.25,1181.13 2022.3,1267.75 2024.35,1325.67 2026.41,982.6 2028.46,1255.2 2030.51,1159.91 2032.57,1261.14 2034.62,986.64 2036.67,1156.7 2038.73,1129.56 2040.78,1129.38 2042.83,981.092 2044.88,1114.78 2046.94,1186.69 2048.99,1229.4 2051.04,1150.23 2053.1,1150.11 2055.15,1203.18 2057.2,1195.57 2059.25,1158.28 2061.31,1108.9 2063.36,1187.89 2065.41,1180.83 2067.47,1116.76 2069.52,1317.03 2071.57,1235.87 2073.62,1165.34 2075.68,1120.46 2077.73,1187.59 2079.78,1162.4 2081.84,1191 2083.89,1207.84 2085.94,1155.32 2087.99,1221.42 2090.05,1169.43 2092.1,1133.58 2094.15,1262.31 2096.21,1105.17 2098.26,1130.32 2100.31,1127.36 2102.36,1104.22 2104.42,1195.11 2106.47,1133.04 2108.52,1169.54 2110.58,1168.66 2112.63,1177.05 2114.68,1121.51 2116.73,1156.05 2118.79,1206.94 2120.84,1163.32 2122.89,1153.42 2124.95,1187.23 2127,1238.91 2129.05,1113.22 2131.11,1114.8 2133.16,1168.88 2135.21,1188.49 2137.26,1178.37 2139.32,1192.69 2141.37,1145.76 2143.42,1140.95 2145.48,1089.14 2147.53,1154.1 2149.58,1193.47 2151.63,1145.23 2153.69,1151.62 2155.74,1132.66 2157.79,1147.17 2159.85,1260.05 2161.9,1128.62 2163.95,1139.93 2166,989.682 2168.06,1222.79 2170.11,1200.61 2172.16,1149.58 2174.22,1167.16 2176.27,1151.64 2178.32,1243 2180.37,1153.75 2182.43,1190.01 2184.48,1249.66 2186.53,1121.16 2188.59,1167.76 2190.64,1160.15 2192.69,1156.89 2194.74,1198.42 2196.8,1204.78 2198.85,1186.32 2200.9,1147.58 2202.96,1175.45 2205.01,1135.01 2207.06,1185.53 2209.12,1158.24 2211.17,1164.86 2213.22,1144.54 2215.27,1169.92 2217.33,1164.79 2219.38,1182.97 2221.43,1214.2 2223.49,1140.44 2225.54,1164.52 2227.59,1217.23 2229.64,1177.72 2231.7,1173.95 2233.75,1165.86 2235.8,1171.06 2237.86,1173.13 2239.91,1235.21 2241.96,1237.34 2244.01,1289.02 2246.07,1147.93 2248.12,1219.61 2250.17,1146.73 2252.23,1292.72 2254.28,1305.13 2256.33,1179.4 2258.38,1140.68 2260.44,1185.11 2262.49,1148.11 2264.54,1142.85 2266.6,1147.36 2268.65,1186.22 2270.7,1166.92 2272.75,1168 2274.81,1141.29 2276.86,1082.63 2278.91,1185.29 2280.97,1192.79 2283.02,1178.79 2285.07,1217.21 2287.12,1248.14 2289.18,1295.36 2291.23,1421.03 "/>
<path clip-path="url(#clip320)" d="M1942.7 972.231 L2280.29 972.231 L2280.29 868.551 L1942.7 868.551  Z" fill="#ffffff" fill-rule="evenodd" fill-opacity="1"/>
<polyline clip-path="url(#clip320)" style="stroke:#000000; stroke-linecap:round; stroke-linejoin:round; stroke-width:4; stroke-opacity:1; fill:none" points="1942.7,972.231 2280.29,972.231 2280.29,868.551 1942.7,868.551 1942.7,972.231 "/>
<polyline clip-path="url(#clip320)" style="stroke:#009af9; stroke-linecap:round; stroke-linejoin:round; stroke-width:4; stroke-opacity:1; fill:none" points="1966.85,920.391 2111.78,920.391 "/>
<path clip-path="url(#clip320)" d="M2161.49 932.74 L2161.49 923.458 L2153.85 923.458 L2153.85 919.615 L2166.12 919.615 L2166.12 934.453 Q2163.41 936.375 2160.14 937.37 Q2156.88 938.342 2153.18 938.342 Q2145.07 938.342 2140.49 933.62 Q2135.93 928.875 2135.93 920.426 Q2135.93 911.953 2140.49 907.231 Q2145.07 902.486 2153.18 902.486 Q2156.56 902.486 2159.59 903.319 Q2162.64 904.153 2165.21 905.773 L2165.21 910.75 Q2162.62 908.551 2159.7 907.44 Q2156.79 906.328 2153.57 906.328 Q2147.23 906.328 2144.03 909.87 Q2140.86 913.412 2140.86 920.426 Q2140.86 927.416 2144.03 930.958 Q2147.23 934.5 2153.57 934.5 Q2156.05 934.5 2157.99 934.083 Q2159.94 933.643 2161.49 932.74 Z" fill="#000000" fill-rule="nonzero" fill-opacity="1" /><path clip-path="url(#clip320)" d="M2179.33 906.953 L2179.33 919.94 L2185.21 919.94 Q2188.48 919.94 2190.26 918.25 Q2192.04 916.56 2192.04 913.435 Q2192.04 910.333 2190.26 908.643 Q2188.48 906.953 2185.21 906.953 L2179.33 906.953 M2174.66 903.111 L2185.21 903.111 Q2191.02 903.111 2193.99 905.75 Q2196.97 908.365 2196.97 913.435 Q2196.97 918.551 2193.99 921.166 Q2191.02 923.782 2185.21 923.782 L2179.33 923.782 L2179.33 937.671 L2174.66 937.671 L2174.66 903.111 Z" fill="#000000" fill-rule="nonzero" fill-opacity="1" /><path clip-path="url(#clip320)" d="M2223.96 904.245 L2223.96 908.805 Q2221.3 907.532 2218.94 906.907 Q2216.58 906.282 2214.38 906.282 Q2210.56 906.282 2208.48 907.764 Q2206.42 909.245 2206.42 911.977 Q2206.42 914.268 2207.78 915.449 Q2209.17 916.606 2213.01 917.324 L2215.84 917.902 Q2221.07 918.898 2223.55 921.421 Q2226.05 923.921 2226.05 928.134 Q2226.05 933.157 2222.67 935.75 Q2219.31 938.342 2212.81 938.342 Q2210.35 938.342 2207.57 937.787 Q2204.82 937.231 2201.86 936.143 L2201.86 931.328 Q2204.7 932.926 2207.44 933.736 Q2210.17 934.546 2212.81 934.546 Q2216.81 934.546 2218.99 932.972 Q2221.16 931.398 2221.16 928.481 Q2221.16 925.935 2219.59 924.5 Q2218.04 923.064 2214.47 922.347 L2211.62 921.791 Q2206.39 920.75 2204.06 918.527 Q2201.72 916.305 2201.72 912.347 Q2201.72 907.764 2204.94 905.125 Q2208.18 902.486 2213.85 902.486 Q2216.28 902.486 2218.8 902.926 Q2221.32 903.366 2223.96 904.245 Z" fill="#000000" fill-rule="nonzero" fill-opacity="1" /><path clip-path="url(#clip320)" d="M2254.06 904.245 L2254.06 908.805 Q2251.39 907.532 2249.03 906.907 Q2246.67 906.282 2244.47 906.282 Q2240.65 906.282 2238.57 907.764 Q2236.51 909.245 2236.51 911.977 Q2236.51 914.268 2237.87 915.449 Q2239.26 916.606 2243.11 917.324 L2245.93 917.902 Q2251.16 918.898 2253.64 921.421 Q2256.14 923.921 2256.14 928.134 Q2256.14 933.157 2252.76 935.75 Q2249.4 938.342 2242.9 938.342 Q2240.44 938.342 2237.67 937.787 Q2234.91 937.231 2231.95 936.143 L2231.95 931.328 Q2234.8 932.926 2237.53 933.736 Q2240.26 934.546 2242.9 934.546 Q2246.9 934.546 2249.08 932.972 Q2251.25 931.398 2251.25 928.481 Q2251.25 925.935 2249.68 924.5 Q2248.13 923.064 2244.56 922.347 L2241.72 921.791 Q2236.49 920.75 2234.15 918.527 Q2231.81 916.305 2231.81 912.347 Q2231.81 907.764 2235.03 905.125 Q2238.27 902.486 2243.94 902.486 Q2246.37 902.486 2248.89 902.926 Q2251.42 903.366 2254.06 904.245 Z" fill="#000000" fill-rule="nonzero" fill-opacity="1" /></svg>
