<?xml version="1.0" encoding="utf-8"?>
<svg xmlns="http://www.w3.org/2000/svg" xmlns:xlink="http://www.w3.org/1999/xlink" width="600" height="400" viewBox="0 0 2400 1600">
<defs>
  <clipPath id="clip530">
    <rect x="0" y="0" width="2400" height="1600"/>
  </clipPath>
</defs>
<path clip-path="url(#clip530)" d="M0 1600 L2400 1600 L2400 0 L0 0  Z" fill="#ffffff" fill-rule="evenodd" fill-opacity="1"/>
<defs>
  <clipPath id="clip531">
    <rect x="242" y="47" width="2112" height="1377"/>
  </clipPath>
</defs>
<path clip-path="url(#clip530)" d="M178.867 686.448 L2352.76 686.448 L2352.76 47.2441 L178.867 47.2441  Z" fill="#ffffff" fill-rule="evenodd" fill-opacity="1"/>
<defs>
  <clipPath id="clip532">
    <rect x="178" y="47" width="2175" height="640"/>
  </clipPath>
</defs>
<polyline clip-path="url(#clip532)" style="stroke:#000000; stroke-linecap:round; stroke-linejoin:round; stroke-width:2; stroke-opacity:0.1; fill:none" points="238.339,686.448 238.339,47.2441 "/>
<polyline clip-path="url(#clip532)" style="stroke:#000000; stroke-linecap:round; stroke-linejoin:round; stroke-width:2; stroke-opacity:0.1; fill:none" points="751.562,686.448 751.562,47.2441 "/>
<polyline clip-path="url(#clip532)" style="stroke:#000000; stroke-linecap:round; stroke-linejoin:round; stroke-width:2; stroke-opacity:0.1; fill:none" points="1264.78,686.448 1264.78,47.2441 "/>
<polyline clip-path="url(#clip532)" style="stroke:#000000; stroke-linecap:round; stroke-linejoin:round; stroke-width:2; stroke-opacity:0.1; fill:none" points="1778.01,686.448 1778.01,47.2441 "/>
<polyline clip-path="url(#clip532)" style="stroke:#000000; stroke-linecap:round; stroke-linejoin:round; stroke-width:2; stroke-opacity:0.1; fill:none" points="2291.23,686.448 2291.23,47.2441 "/>
<polyline clip-path="url(#clip532)" style="stroke:#000000; stroke-linecap:round; stroke-linejoin:round; stroke-width:2; stroke-opacity:0.1; fill:none" points="178.867,686.448 2352.76,686.448 "/>
<polyline clip-path="url(#clip532)" style="stroke:#000000; stroke-linecap:round; stroke-linejoin:round; stroke-width:2; stroke-opacity:0.1; fill:none" points="178.867,526.647 2352.76,526.647 "/>
<polyline clip-path="url(#clip532)" style="stroke:#000000; stroke-linecap:round; stroke-linejoin:round; stroke-width:2; stroke-opacity:0.1; fill:none" points="178.867,366.846 2352.76,366.846 "/>
<polyline clip-path="url(#clip532)" style="stroke:#000000; stroke-linecap:round; stroke-linejoin:round; stroke-width:2; stroke-opacity:0.1; fill:none" points="178.867,207.045 2352.76,207.045 "/>
<polyline clip-path="url(#clip532)" style="stroke:#000000; stroke-linecap:round; stroke-linejoin:round; stroke-width:2; stroke-opacity:0.1; fill:none" points="178.867,47.2441 2352.76,47.2441 "/>
<polyline clip-path="url(#clip530)" style="stroke:#000000; stroke-linecap:round; stroke-linejoin:round; stroke-width:4; stroke-opacity:1; fill:none" points="178.867,686.448 2352.76,686.448 "/>
<polyline clip-path="url(#clip530)" style="stroke:#000000; stroke-linecap:round; stroke-linejoin:round; stroke-width:4; stroke-opacity:1; fill:none" points="238.339,686.448 238.339,667.55 "/>
<polyline clip-path="url(#clip530)" style="stroke:#000000; stroke-linecap:round; stroke-linejoin:round; stroke-width:4; stroke-opacity:1; fill:none" points="751.562,686.448 751.562,667.55 "/>
<polyline clip-path="url(#clip530)" style="stroke:#000000; stroke-linecap:round; stroke-linejoin:round; stroke-width:4; stroke-opacity:1; fill:none" points="1264.78,686.448 1264.78,667.55 "/>
<polyline clip-path="url(#clip530)" style="stroke:#000000; stroke-linecap:round; stroke-linejoin:round; stroke-width:4; stroke-opacity:1; fill:none" points="1778.01,686.448 1778.01,667.55 "/>
<polyline clip-path="url(#clip530)" style="stroke:#000000; stroke-linecap:round; stroke-linejoin:round; stroke-width:4; stroke-opacity:1; fill:none" points="2291.23,686.448 2291.23,667.55 "/>
<path clip-path="url(#clip530)" d="M238.339 717.367 Q234.728 717.367 232.899 720.931 Q231.094 724.473 231.094 731.603 Q231.094 738.709 232.899 742.274 Q234.728 745.815 238.339 745.815 Q241.973 745.815 243.779 742.274 Q245.607 738.709 245.607 731.603 Q245.607 724.473 243.779 720.931 Q241.973 717.367 238.339 717.367 M238.339 713.663 Q244.149 713.663 247.205 718.269 Q250.283 722.853 250.283 731.603 Q250.283 740.329 247.205 744.936 Q244.149 749.519 238.339 749.519 Q232.529 749.519 229.45 744.936 Q226.395 740.329 226.395 731.603 Q226.395 722.853 229.45 718.269 Q232.529 713.663 238.339 713.663 Z" fill="#000000" fill-rule="nonzero" fill-opacity="1" /><path clip-path="url(#clip530)" d="M715.254 744.913 L731.574 744.913 L731.574 748.848 L709.629 748.848 L709.629 744.913 Q712.291 742.158 716.875 737.528 Q721.481 732.876 722.662 731.533 Q724.907 729.01 725.787 727.274 Q726.689 725.515 726.689 723.825 Q726.689 721.07 724.745 719.334 Q722.824 717.598 719.722 717.598 Q717.523 717.598 715.069 718.362 Q712.638 719.126 709.861 720.677 L709.861 715.955 Q712.685 714.82 715.138 714.242 Q717.592 713.663 719.629 713.663 Q725 713.663 728.194 716.348 Q731.388 719.033 731.388 723.524 Q731.388 725.654 730.578 727.575 Q729.791 729.473 727.685 732.066 Q727.106 732.737 724.004 735.954 Q720.902 739.149 715.254 744.913 Z" fill="#000000" fill-rule="nonzero" fill-opacity="1" /><path clip-path="url(#clip530)" d="M741.435 714.288 L759.791 714.288 L759.791 718.223 L745.717 718.223 L745.717 726.695 Q746.736 726.348 747.754 726.186 Q748.773 726.001 749.791 726.001 Q755.578 726.001 758.958 729.172 Q762.337 732.343 762.337 737.76 Q762.337 743.339 758.865 746.44 Q755.393 749.519 749.073 749.519 Q746.898 749.519 744.629 749.149 Q742.384 748.778 739.976 748.038 L739.976 743.339 Q742.06 744.473 744.282 745.028 Q746.504 745.584 748.981 745.584 Q752.985 745.584 755.323 743.478 Q757.661 741.371 757.661 737.76 Q757.661 734.149 755.323 732.042 Q752.985 729.936 748.981 729.936 Q747.106 729.936 745.231 730.353 Q743.379 730.769 741.435 731.649 L741.435 714.288 Z" fill="#000000" fill-rule="nonzero" fill-opacity="1" /><path clip-path="url(#clip530)" d="M781.55 717.367 Q777.939 717.367 776.11 720.931 Q774.305 724.473 774.305 731.603 Q774.305 738.709 776.11 742.274 Q777.939 745.815 781.55 745.815 Q785.184 745.815 786.99 742.274 Q788.819 738.709 788.819 731.603 Q788.819 724.473 786.99 720.931 Q785.184 717.367 781.55 717.367 M781.55 713.663 Q787.36 713.663 790.416 718.269 Q793.495 722.853 793.495 731.603 Q793.495 740.329 790.416 744.936 Q787.36 749.519 781.55 749.519 Q775.74 749.519 772.661 744.936 Q769.606 740.329 769.606 731.603 Q769.606 722.853 772.661 718.269 Q775.74 713.663 781.55 713.663 Z" fill="#000000" fill-rule="nonzero" fill-opacity="1" /><path clip-path="url(#clip530)" d="M1224.4 714.288 L1242.76 714.288 L1242.76 718.223 L1228.69 718.223 L1228.69 726.695 Q1229.7 726.348 1230.72 726.186 Q1231.74 726.001 1232.76 726.001 Q1238.55 726.001 1241.93 729.172 Q1245.31 732.343 1245.31 737.76 Q1245.31 743.339 1241.83 746.44 Q1238.36 749.519 1232.04 749.519 Q1229.87 749.519 1227.6 749.149 Q1225.35 748.778 1222.94 748.038 L1222.94 743.339 Q1225.03 744.473 1227.25 745.028 Q1229.47 745.584 1231.95 745.584 Q1235.95 745.584 1238.29 743.478 Q1240.63 741.371 1240.63 737.76 Q1240.63 734.149 1238.29 732.042 Q1235.95 729.936 1231.95 729.936 Q1230.07 729.936 1228.2 730.353 Q1226.35 730.769 1224.4 731.649 L1224.4 714.288 Z" fill="#000000" fill-rule="nonzero" fill-opacity="1" /><path clip-path="url(#clip530)" d="M1264.52 717.367 Q1260.91 717.367 1259.08 720.931 Q1257.27 724.473 1257.27 731.603 Q1257.27 738.709 1259.08 742.274 Q1260.91 745.815 1264.52 745.815 Q1268.15 745.815 1269.96 742.274 Q1271.79 738.709 1271.79 731.603 Q1271.79 724.473 1269.96 720.931 Q1268.15 717.367 1264.52 717.367 M1264.52 713.663 Q1270.33 713.663 1273.38 718.269 Q1276.46 722.853 1276.46 731.603 Q1276.46 740.329 1273.38 744.936 Q1270.33 749.519 1264.52 749.519 Q1258.71 749.519 1255.63 744.936 Q1252.57 740.329 1252.57 731.603 Q1252.57 722.853 1255.63 718.269 Q1258.71 713.663 1264.52 713.663 Z" fill="#000000" fill-rule="nonzero" fill-opacity="1" /><path clip-path="url(#clip530)" d="M1294.68 717.367 Q1291.07 717.367 1289.24 720.931 Q1287.44 724.473 1287.44 731.603 Q1287.44 738.709 1289.24 742.274 Q1291.07 745.815 1294.68 745.815 Q1298.31 745.815 1300.12 742.274 Q1301.95 738.709 1301.95 731.603 Q1301.95 724.473 1300.12 720.931 Q1298.31 717.367 1294.68 717.367 M1294.68 713.663 Q1300.49 713.663 1303.55 718.269 Q1306.62 722.853 1306.62 731.603 Q1306.62 740.329 1303.55 744.936 Q1300.49 749.519 1294.68 749.519 Q1288.87 749.519 1285.79 744.936 Q1282.74 740.329 1282.74 731.603 Q1282.74 722.853 1285.79 718.269 Q1288.87 713.663 1294.68 713.663 Z" fill="#000000" fill-rule="nonzero" fill-opacity="1" /><path clip-path="url(#clip530)" d="M1736.28 714.288 L1758.51 714.288 L1758.51 716.279 L1745.96 748.848 L1741.08 748.848 L1752.88 718.223 L1736.28 718.223 L1736.28 714.288 Z" fill="#000000" fill-rule="nonzero" fill-opacity="1" /><path clip-path="url(#clip530)" d="M1767.67 714.288 L1786.03 714.288 L1786.03 718.223 L1771.95 718.223 L1771.95 726.695 Q1772.97 726.348 1773.99 726.186 Q1775.01 726.001 1776.03 726.001 Q1781.82 726.001 1785.2 729.172 Q1788.57 732.343 1788.57 737.76 Q1788.57 743.339 1785.1 746.44 Q1781.63 749.519 1775.31 749.519 Q1773.14 749.519 1770.87 749.149 Q1768.62 748.778 1766.21 748.038 L1766.21 743.339 Q1768.3 744.473 1770.52 745.028 Q1772.74 745.584 1775.22 745.584 Q1779.22 745.584 1781.56 743.478 Q1783.9 741.371 1783.9 737.76 Q1783.9 734.149 1781.56 732.042 Q1779.22 729.936 1775.22 729.936 Q1773.34 729.936 1771.47 730.353 Q1769.62 730.769 1767.67 731.649 L1767.67 714.288 Z" fill="#000000" fill-rule="nonzero" fill-opacity="1" /><path clip-path="url(#clip530)" d="M1807.79 717.367 Q1804.18 717.367 1802.35 720.931 Q1800.54 724.473 1800.54 731.603 Q1800.54 738.709 1802.35 742.274 Q1804.18 745.815 1807.79 745.815 Q1811.42 745.815 1813.23 742.274 Q1815.06 738.709 1815.06 731.603 Q1815.06 724.473 1813.23 720.931 Q1811.42 717.367 1807.79 717.367 M1807.79 713.663 Q1813.6 713.663 1816.65 718.269 Q1819.73 722.853 1819.73 731.603 Q1819.73 740.329 1816.65 744.936 Q1813.6 749.519 1807.79 749.519 Q1801.98 749.519 1798.9 744.936 Q1795.84 740.329 1795.84 731.603 Q1795.84 722.853 1798.9 718.269 Q1801.98 713.663 1807.79 713.663 Z" fill="#000000" fill-rule="nonzero" fill-opacity="1" /><path clip-path="url(#clip530)" d="M2235.76 744.913 L2243.4 744.913 L2243.4 718.547 L2235.09 720.214 L2235.09 715.955 L2243.35 714.288 L2248.02 714.288 L2248.02 744.913 L2255.66 744.913 L2255.66 748.848 L2235.76 748.848 L2235.76 744.913 Z" fill="#000000" fill-rule="nonzero" fill-opacity="1" /><path clip-path="url(#clip530)" d="M2275.11 717.367 Q2271.5 717.367 2269.67 720.931 Q2267.86 724.473 2267.86 731.603 Q2267.86 738.709 2269.67 742.274 Q2271.5 745.815 2275.11 745.815 Q2278.74 745.815 2280.55 742.274 Q2282.38 738.709 2282.38 731.603 Q2282.38 724.473 2280.55 720.931 Q2278.74 717.367 2275.11 717.367 M2275.11 713.663 Q2280.92 713.663 2283.97 718.269 Q2287.05 722.853 2287.05 731.603 Q2287.05 740.329 2283.97 744.936 Q2280.92 749.519 2275.11 749.519 Q2269.3 749.519 2266.22 744.936 Q2263.16 740.329 2263.16 731.603 Q2263.16 722.853 2266.22 718.269 Q2269.3 713.663 2275.11 713.663 Z" fill="#000000" fill-rule="nonzero" fill-opacity="1" /><path clip-path="url(#clip530)" d="M2305.27 717.367 Q2301.66 717.367 2299.83 720.931 Q2298.02 724.473 2298.02 731.603 Q2298.02 738.709 2299.83 742.274 Q2301.66 745.815 2305.27 745.815 Q2308.9 745.815 2310.71 742.274 Q2312.54 738.709 2312.54 731.603 Q2312.54 724.473 2310.71 720.931 Q2308.9 717.367 2305.27 717.367 M2305.27 713.663 Q2311.08 713.663 2314.14 718.269 Q2317.21 722.853 2317.21 731.603 Q2317.21 740.329 2314.14 744.936 Q2311.08 749.519 2305.27 749.519 Q2299.46 749.519 2296.38 744.936 Q2293.33 740.329 2293.33 731.603 Q2293.33 722.853 2296.38 718.269 Q2299.46 713.663 2305.27 713.663 Z" fill="#000000" fill-rule="nonzero" fill-opacity="1" /><path clip-path="url(#clip530)" d="M2335.43 717.367 Q2331.82 717.367 2329.99 720.931 Q2328.19 724.473 2328.19 731.603 Q2328.19 738.709 2329.99 742.274 Q2331.82 745.815 2335.43 745.815 Q2339.07 745.815 2340.87 742.274 Q2342.7 738.709 2342.7 731.603 Q2342.7 724.473 2340.87 720.931 Q2339.07 717.367 2335.43 717.367 M2335.43 713.663 Q2341.24 713.663 2344.3 718.269 Q2347.38 722.853 2347.38 731.603 Q2347.38 740.329 2344.3 744.936 Q2341.24 749.519 2335.43 749.519 Q2329.62 749.519 2326.54 744.936 Q2323.49 740.329 2323.49 731.603 Q2323.49 722.853 2326.54 718.269 Q2329.62 713.663 2335.43 713.663 Z" fill="#000000" fill-rule="nonzero" fill-opacity="1" /><polyline clip-path="url(#clip530)" style="stroke:#000000; stroke-linecap:round; stroke-linejoin:round; stroke-width:4; stroke-opacity:1; fill:none" points="178.867,686.448 178.867,47.2441 "/>
<polyline clip-path="url(#clip530)" style="stroke:#000000; stroke-linecap:round; stroke-linejoin:round; stroke-width:4; stroke-opacity:1; fill:none" points="178.867,686.448 197.764,686.448 "/>
<polyline clip-path="url(#clip530)" style="stroke:#000000; stroke-linecap:round; stroke-linejoin:round; stroke-width:4; stroke-opacity:1; fill:none" points="178.867,526.647 197.764,526.647 "/>
<polyline clip-path="url(#clip530)" style="stroke:#000000; stroke-linecap:round; stroke-linejoin:round; stroke-width:4; stroke-opacity:1; fill:none" points="178.867,366.846 197.764,366.846 "/>
<polyline clip-path="url(#clip530)" style="stroke:#000000; stroke-linecap:round; stroke-linejoin:round; stroke-width:4; stroke-opacity:1; fill:none" points="178.867,207.045 197.764,207.045 "/>
<polyline clip-path="url(#clip530)" style="stroke:#000000; stroke-linecap:round; stroke-linejoin:round; stroke-width:4; stroke-opacity:1; fill:none" points="178.867,47.2441 197.764,47.2441 "/>
<path clip-path="url(#clip530)" d="M50.9921 686.899 L80.6679 686.899 L80.6679 690.834 L50.9921 690.834 L50.9921 686.899 Z" fill="#000000" fill-rule="nonzero" fill-opacity="1" /><path clip-path="url(#clip530)" d="M91.5706 699.793 L99.2095 699.793 L99.2095 673.427 L90.8993 675.094 L90.8993 670.835 L99.1632 669.168 L103.839 669.168 L103.839 699.793 L111.478 699.793 L111.478 703.728 L91.5706 703.728 L91.5706 699.793 Z" fill="#000000" fill-rule="nonzero" fill-opacity="1" /><path clip-path="url(#clip530)" d="M130.922 672.247 Q127.311 672.247 125.482 675.811 Q123.677 679.353 123.677 686.483 Q123.677 693.589 125.482 697.154 Q127.311 700.695 130.922 700.695 Q134.556 700.695 136.362 697.154 Q138.191 693.589 138.191 686.483 Q138.191 679.353 136.362 675.811 Q134.556 672.247 130.922 672.247 M130.922 668.543 Q136.732 668.543 139.788 673.149 Q142.867 677.733 142.867 686.483 Q142.867 695.209 139.788 699.816 Q136.732 704.399 130.922 704.399 Q125.112 704.399 122.033 699.816 Q118.978 695.209 118.978 686.483 Q118.978 677.733 122.033 673.149 Q125.112 668.543 130.922 668.543 Z" fill="#000000" fill-rule="nonzero" fill-opacity="1" /><path clip-path="url(#clip530)" d="M82.1494 527.098 L111.825 527.098 L111.825 531.033 L82.1494 531.033 L82.1494 527.098 Z" fill="#000000" fill-rule="nonzero" fill-opacity="1" /><path clip-path="url(#clip530)" d="M121.964 509.367 L140.32 509.367 L140.32 513.302 L126.246 513.302 L126.246 521.774 Q127.265 521.427 128.283 521.265 Q129.302 521.08 130.32 521.08 Q136.107 521.08 139.487 524.251 Q142.867 527.422 142.867 532.839 Q142.867 538.418 139.394 541.52 Q135.922 544.598 129.603 544.598 Q127.427 544.598 125.158 544.228 Q122.913 543.857 120.506 543.117 L120.506 538.418 Q122.589 539.552 124.811 540.108 Q127.033 540.663 129.51 540.663 Q133.515 540.663 135.853 538.557 Q138.191 536.45 138.191 532.839 Q138.191 529.228 135.853 527.121 Q133.515 525.015 129.51 525.015 Q127.635 525.015 125.76 525.432 Q123.908 525.848 121.964 526.728 L121.964 509.367 Z" fill="#000000" fill-rule="nonzero" fill-opacity="1" /><path clip-path="url(#clip530)" d="M130.922 352.645 Q127.311 352.645 125.482 356.209 Q123.677 359.751 123.677 366.881 Q123.677 373.987 125.482 377.552 Q127.311 381.094 130.922 381.094 Q134.556 381.094 136.362 377.552 Q138.191 373.987 138.191 366.881 Q138.191 359.751 136.362 356.209 Q134.556 352.645 130.922 352.645 M130.922 348.941 Q136.732 348.941 139.788 353.547 Q142.867 358.131 142.867 366.881 Q142.867 375.608 139.788 380.214 Q136.732 384.797 130.922 384.797 Q125.112 384.797 122.033 380.214 Q118.978 375.608 118.978 366.881 Q118.978 358.131 122.033 353.547 Q125.112 348.941 130.922 348.941 Z" fill="#000000" fill-rule="nonzero" fill-opacity="1" /><path clip-path="url(#clip530)" d="M121.964 189.765 L140.32 189.765 L140.32 193.7 L126.246 193.7 L126.246 202.172 Q127.265 201.825 128.283 201.663 Q129.302 201.478 130.32 201.478 Q136.107 201.478 139.487 204.649 Q142.867 207.82 142.867 213.237 Q142.867 218.816 139.394 221.918 Q135.922 224.996 129.603 224.996 Q127.427 224.996 125.158 224.626 Q122.913 224.256 120.506 223.515 L120.506 218.816 Q122.589 219.95 124.811 220.506 Q127.033 221.061 129.51 221.061 Q133.515 221.061 135.853 218.955 Q138.191 216.848 138.191 213.237 Q138.191 209.626 135.853 207.52 Q133.515 205.413 129.51 205.413 Q127.635 205.413 125.76 205.83 Q123.908 206.246 121.964 207.126 L121.964 189.765 Z" fill="#000000" fill-rule="nonzero" fill-opacity="1" /><path clip-path="url(#clip530)" d="M91.5706 60.5889 L99.2095 60.5889 L99.2095 34.2233 L90.8993 35.89 L90.8993 31.6308 L99.1632 29.9641 L103.839 29.9641 L103.839 60.5889 L111.478 60.5889 L111.478 64.5241 L91.5706 64.5241 L91.5706 60.5889 Z" fill="#000000" fill-rule="nonzero" fill-opacity="1" /><path clip-path="url(#clip530)" d="M130.922 33.0428 Q127.311 33.0428 125.482 36.6076 Q123.677 40.1492 123.677 47.2788 Q123.677 54.3853 125.482 57.9501 Q127.311 61.4917 130.922 61.4917 Q134.556 61.4917 136.362 57.9501 Q138.191 54.3853 138.191 47.2788 Q138.191 40.1492 136.362 36.6076 Q134.556 33.0428 130.922 33.0428 M130.922 29.3391 Q136.732 29.3391 139.788 33.9456 Q142.867 38.5289 142.867 47.2788 Q142.867 56.0056 139.788 60.6121 Q136.732 65.1954 130.922 65.1954 Q125.112 65.1954 122.033 60.6121 Q118.978 56.0056 118.978 47.2788 Q118.978 38.5289 122.033 33.9456 Q125.112 29.3391 130.922 29.3391 Z" fill="#000000" fill-rule="nonzero" fill-opacity="1" /><polyline clip-path="url(#clip532)" style="stroke:#009af9; stroke-linecap:round; stroke-linejoin:round; stroke-width:4; stroke-opacity:1; fill:none" points="240.392,334.886 242.445,346.475 244.498,416.664 246.55,416.063 248.603,417.024 250.656,411.62 252.709,411.544 254.762,412.305 256.815,411.646 258.868,412.014 260.921,406.479 262.974,405.017 265.027,404.89 267.079,389.142 269.132,389.229 271.185,390.184 273.238,388.179 275.291,388.248 277.344,378.62 279.397,378.258 281.45,398.913 283.503,398.137 285.555,400.114 287.608,400.393 289.661,398.184 291.714,373.408 293.767,380.225 295.82,380.139 297.873,379.106 299.926,377.984 301.979,378.844 304.031,376.944 306.084,377.394 308.137,381.064 310.19,390.342 312.243,390.28 314.296,391.565 316.349,391.303 318.402,390.925 320.455,397.02 322.507,397.994 324.56,411.542 326.613,412.175 328.666,411.251 330.719,410.906 332.772,407.804 334.825,402.924 336.878,401.804 338.931,409.246 340.984,408.287 343.036,404.23 345.089,396.705 347.142,396.083 349.195,388.519 351.248,379.634 353.301,328.686 355.354,358.38 357.407,383.154 359.46,386.202 361.512,382.89 363.565,378.505 365.618,376.487 367.671,383.492 369.724,425.153 371.777,380.366 373.83,379.231 375.883,380.318 377.936,378.183 379.988,380.72 382.041,378.549 384.094,385.218 386.147,385.877 388.2,385.879 390.253,381.391 392.306,382.01 394.359,385.188 396.412,385.56 398.464,384.597 400.517,387.282 402.57,388.589 404.623,404.707 406.676,404.715 408.729,412.001 410.782,412.194 412.835,411.817 414.888,411.889 416.94,414.981 418.993,414.334 421.046,414.944 423.099,416.063 425.152,406.368 427.205,413.027 429.258,359.272 431.311,347.723 433.364,348.47 435.417,341.854 437.469,387.967 439.522,404.324 441.575,378.447 443.628,375.809 445.681,379.224 447.734,384.615 449.787,364.569 451.84,371.979 453.893,372.198 455.945,408.624 457.998,407.583 460.051,401.786 462.104,401.778 464.157,402.516 466.21,399.906 468.263,384.826 470.316,386.339 472.369,387.095 474.421,402.234 476.474,398.728 478.527,398.896 480.58,363.908 482.633,363.897 484.686,363.654 486.739,364.981 488.792,368.818 490.845,369.499 492.897,367.586 494.95,371.954 497.003,390.245 499.056,388.398 501.109,369.657 503.162,370.096 505.215,366.36 507.268,359.044 509.321,359.161 511.374,360.845 513.426,311.69 515.479,327.415 517.532,327.84 519.585,326.655 521.638,329.734 523.691,330.752 525.744,344.321 527.797,332.098 529.85,338.306 531.902,329.747 533.955,337.056 536.008,337.419 538.061,347.365 540.114,356.689 542.167,348.274 544.22,376.339 546.273,388.713 548.326,373.502 550.378,375.409 552.431,377.396 554.484,377.215 556.537,372.128 558.59,372.14 560.643,384.585 562.696,378.126 564.749,377.048 566.802,374.224 568.854,374.223 570.907,374.225 572.96,374.233 575.013,373.228 577.066,368.631 579.119,413.537 581.172,413.12 583.225,361.944 585.278,368.602 587.331,368.293 589.383,354.006 591.436,353.575 593.489,360.161 595.542,363.268 597.595,363.276 599.648,364.095 601.701,364.023 603.754,364.017 605.807,338.918 607.859,339.106 609.912,340.356 611.965,340.495 614.018,323.231 616.071,314.067 618.124,312.721 620.177,372.989 622.23,364.186 624.283,368.473 626.335,350.543 628.388,350.31 630.441,385.43 632.494,385.441 634.547,427.879 636.6,415.881 638.653,415.864 640.706,428.245 642.759,428.264 644.811,429.948 646.864,426.869 648.917,425.228 650.97,424.645 653.023,377.677 655.076,378.154 657.129,373.391 659.182,371.474 661.235,371.397 663.288,369.046 665.34,423.697 667.393,429.554 669.446,429.619 671.499,430.243 673.552,432.296 675.605,429.135 677.658,434.679 679.711,360.974 681.764,362.115 683.816,365.97 685.869,367.061 687.922,367.408 689.975,377.295 692.028,405.779 694.081,391.287 696.134,392.366 698.187,390.479 700.24,397.99 702.292,380.452 704.345,378.743 706.398,375.474 708.451,358.02 710.504,357.589 712.557,353.788 714.61,341.886 716.663,339.532 718.716,345.141 720.768,340.251 722.821,315.822 724.874,371.594 726.927,374.509 728.98,375.899 731.033,378.482 733.086,378.622 735.139,390.764 737.192,417.516 739.245,391.902 741.297,385.572 743.35,373.503 745.403,374.036 747.456,372.468 749.509,372.718 751.562,373.471 753.615,378.311 755.668,378.415 757.721,377.394 759.773,377.248 761.826,391.116 763.879,391.545 765.932,390.632 767.985,390.525 770.038,390.658 772.091,390.403 774.144,387.889 776.197,389.381 778.249,370.835 780.302,372.619 782.355,364.423 784.408,366.008 786.461,364.622 788.514,364.625 790.567,364.683 792.62,364.699 794.673,364.61 796.725,370.412 798.778,355.783 800.831,375.084 802.884,374.891 804.937,374.845 806.99,376.393 809.043,376.264 811.096,369.626 813.149,371.569 815.202,368.904 817.254,360.535 819.307,360.405 821.36,357.56 823.413,358.203 825.466,354.236 827.519,354.27 829.572,355.45 831.625,355.45 833.678,355.478 835.73,355.761 837.783,357.574 839.836,358.822 841.889,358.287 843.942,386.683 845.995,384.236 848.048,384.097 850.101,383.735 852.154,390.348 854.206,389.619 856.259,392.012 858.312,393.359 860.365,393.747 862.418,386.552 864.471,351.784 866.524,350.794 868.577,344.14 870.63,343.713 872.682,344.233 874.735,348.161 876.788,363.399 878.841,353.948 880.894,357.274 882.947,394.043 885,391.625 887.053,392.176 889.106,391.59 891.159,401.723 893.211,405.285 895.264,406.796 897.317,430.804 899.37,429.395 901.423,430.833 903.476,382.104 905.529,393.303 907.582,390.891 909.635,366.508 911.687,366.567 913.74,368.567 915.793,435.121 917.846,450.251 919.899,288.164 921.952,301.027 924.005,301.017 926.058,302.872 928.111,384.567 930.163,381.816 932.216,376.859 934.269,257.575 936.322,360.62 938.375,365.026 940.428,403.308 942.481,403.332 944.534,403.125 946.587,406.535 948.639,384.376 950.692,391.548 952.745,392.892 954.798,395.293 956.851,408.547 958.904,418.694 960.957,411.983 963.01,410.638 965.063,297.558 967.116,272.935 969.168,274.607 971.221,275.258 973.274,277.985 975.327,348.547 977.38,322.964 979.433,319.429 981.486,318.066 983.539,302.848 985.592,302.325 987.644,302.76 989.697,325.97 991.75,351.37 993.803,388.406 995.856,409.162 997.909,408.824 999.962,393.879 1002.01,394.324 1004.07,448.76 1006.12,439.647 1008.17,415.615 1010.23,521.627 1012.28,473.994 1014.33,468.416 1016.38,422.567 1018.44,380.106 1020.49,366.316 1022.54,346.427 1024.6,394.492 1026.65,395.511 1028.7,395.552 1030.76,392.59 1032.81,316.065 1034.86,308.229 1036.91,288.607 1038.97,288.506 1041.02,278.663 1043.07,276.088 1045.13,398.472 1047.18,430.917 1049.23,392.894 1051.28,389.781 1053.34,392.056 1055.39,394.465 1057.44,398.762 1059.5,398.584 1061.55,393.724 1063.6,393.581 1065.65,393.576 1067.71,350.8 1069.76,350.57 1071.81,353.953 1073.87,326.192 1075.92,327.527 1077.97,328.165 1080.02,326.575 1082.08,335.458 1084.13,346.426 1086.18,353.088 1088.24,376.394 1090.29,377.391 1092.34,369.884 1094.39,398.147 1096.45,412.232 1098.5,413.977 1100.55,414.273 1102.61,394.228 1104.66,397.527 1106.71,394.8 1108.77,386.13 1110.82,385.714 1112.87,413.628 1114.92,406.392 1116.98,383.3 1119.03,328.885 1121.08,329.125 1123.14,338.274 1125.19,326.123 1127.24,325.874 1129.29,351.122 1131.35,350.881 1133.4,350.739 1135.45,347.778 1137.51,349.999 1139.56,349.729 1141.61,353.633 1143.66,345.439 1145.72,395.498 1147.77,391.278 1149.82,391.34 1151.88,391.587 1153.93,382.156 1155.98,332.077 1158.03,339.469 1160.09,366.802 1162.14,368.801 1164.19,371.599 1166.25,328.763 1168.3,329.069 1170.35,329.254 1172.4,386.651 1174.46,386.744 1176.51,387.429 1178.56,383.646 1180.62,383.105 1182.67,370.765 1184.72,368.893 1186.77,368.277 1188.83,368.29 1190.88,368.183 1192.93,369.386 1194.99,369.917 1197.04,383.741 1199.09,351.208 1201.15,328.369 1203.2,332.613 1205.25,332.66 1207.3,333.133 1209.36,335.158 1211.41,338.03 1213.46,337.729 1215.52,374.013 1217.57,370.581 1219.62,365.331 1221.67,362.663 1223.73,369.145 1225.78,369.145 1227.83,371.514 1229.89,367.964 1231.94,367.858 1233.99,373.482 1236.04,371.977 1238.1,327.589 1240.15,328.033 1242.2,329.897 1244.26,323.635 1246.31,358.848 1248.36,359.685 1250.41,359.607 1252.47,360.317 1254.52,358.668 1256.57,363.208 1258.63,363.329 1260.68,363.038 1262.73,362.796 1264.78,355.793 1266.84,356.863 1268.89,385.15 1270.94,385.363 1273,380.676 1275.05,436.594 1277.1,438.048 1279.16,437.272 1281.21,362.491 1283.26,362.429 1285.31,363.7 1287.37,363.407 1289.42,363.737 1291.47,348.372 1293.53,333.986 1295.58,341.009 1297.63,344.267 1299.68,346.815 1301.74,346.167 1303.79,346.172 1305.84,371.531 1307.9,400.483 1309.95,399.921 1312,425.742 1314.05,431.985 1316.11,445.046 1318.16,437.186 1320.21,435.909 1322.27,311.79 1324.32,310.266 1326.37,353.621 1328.42,354.656 1330.48,356.628 1332.53,345.66 1334.58,347.596 1336.64,400.252 1338.69,456.508 1340.74,454.843 1342.79,447.226 1344.85,449.773 1346.9,457.71 1348.95,457.689 1351.01,457.663 1353.06,426.549 1355.11,442.766 1357.16,443.018 1359.22,482.449 1361.27,483.188 1363.32,444.225 1365.38,511.438 1367.43,468.733 1369.48,497.114 1371.54,500.114 1373.59,502.732 1375.64,505.811 1377.69,519.437 1379.75,523.398 1381.8,528.82 1383.85,627.187 1385.91,637.783 1387.96,490.519 1390.01,367.258 1392.06,402.258 1394.12,362.236 1396.17,362.033 1398.22,438.745 1400.28,426.57 1402.33,422.762 1404.38,423.618 1406.43,394.329 1408.49,446.97 1410.54,426.55 1412.59,395.158 1414.65,403.888 1416.7,538.79 1418.75,476.816 1420.8,634.866 1422.86,633.722 1424.91,624.899 1426.96,612.179 1429.02,603.959 1431.07,601.525 1433.12,514.879 1435.17,423.668 1437.23,425.69 1439.28,440.951 1441.33,234.461 1443.39,246.398 1445.44,241.013 1447.49,222.486 1449.55,292.842 1451.6,295.261 1453.65,300.144 1455.7,422.01 1457.76,371.996 1459.81,374.175 1461.86,402.112 1463.92,535.397 1465.97,498.878 1468.02,603.07 1470.07,563.456 1472.13,374.773 1474.18,366.182 1476.23,321.148 1478.29,269.645 1480.34,277.432 1482.39,277.578 1484.44,326.403 1486.5,379.039 1488.55,367.553 1490.6,560.558 1492.66,581.235 1494.71,577.345 1496.76,601.876 1498.81,239.866 1500.87,207.177 1502.92,177.423 1504.97,369.977 1507.03,523.51 1509.08,522.583 1511.13,514.966 1513.18,504.716 1515.24,504.809 1517.29,568.405 1519.34,589.067 1521.4,571.02 1523.45,534.141 1525.5,506.005 1527.55,471.041 1529.61,512.645 1531.66,508.541 1533.71,482.628 1535.77,461.799 1537.82,419.124 1539.87,461.509 1541.93,444.085 1543.98,203.038 1546.03,200.238 1548.08,62.7565 1550.14,48.5961 1552.19,48.6536 1554.24,130.728 1556.3,541.312 1558.35,512.479 1560.4,491.631 1562.45,472.183 1564.51,394.573 1566.56,385.077 1568.61,393.919 1570.67,245.337 1572.72,261.393 1574.77,380.765 1576.82,696.368 1578.88,730.323 1580.93,355.584 1582.98,409.408 1585.04,-632.536 1587.09,-910.966 1589.14,-674.911 1591.19,-240.133 1593.25,-109.307 1595.3,-177.299 1597.35,-229.802 1599.41,-169.892 1601.46,-169.993 1603.51,27.9684 1605.56,24.3999 1607.62,188.632 1609.67,236.85 1611.72,335.771 1613.78,279.749 1615.83,230.635 1617.88,308.743 1619.94,334.565 1621.99,186.642 1624.04,-31.0877 1626.09,-81.7467 1628.15,-96.0612 1630.2,-418.106 1632.25,119.432 1634.31,469.413 1636.36,921.821 1638.41,941.61 1640.46,751.403 1642.52,811.584 1644.57,799.517 1646.62,743.955 1648.68,788.468 1650.73,737.233 1652.78,704.941 1654.83,603.256 1656.89,547.59 1658.94,311.815 1660.99,339.9 1663.05,605.703 1665.1,594.098 1667.15,571.176 1669.2,624.77 1671.26,626.57 1673.31,638.101 1675.36,416.752 1677.42,340.144 1679.47,581.646 1681.52,621.713 1683.57,905.204 1685.63,772.873 1687.68,939.802 1689.73,14.9167 1691.79,19.3069 1693.84,-142.836 1695.89,-267.434 1697.94,739.007 1700,223.416 1702.05,-34.23 1704.1,732.241 1706.16,704.199 1708.21,598.712 1710.26,581.481 1712.32,679.026 1714.37,477.856 1716.42,458.614 1718.47,752.621 1720.53,384.356 1722.58,582.326 1724.63,754.948 1726.69,446.019 1728.74,541.669 1730.79,93.1268 1732.84,113.328 1734.9,-51.0266 1736.95,10.931 1739,39.677 1741.06,30.2214 1743.11,30.7841 1745.16,37.5158 1747.21,303.068 1749.27,311.105 1751.32,268.839 1753.37,297.567 1755.43,161.116 1757.48,333.29 1759.53,330.535 1761.58,364.069 1763.64,499.323 1765.69,450.818 1767.74,441.073 1769.8,435.584 1771.85,434.64 1773.9,488.689 1775.95,490.375 1778.01,259.435 1780.06,254.315 1782.11,265.794 1784.17,271.524 1786.22,265.975 1788.27,188.589 1790.33,189.898 1792.38,182.447 1794.43,216.311 1796.48,124.911 1798.54,352.332 1800.59,258.32 1802.64,297.559 1804.7,357.825 1806.75,280.405 1808.8,347.472 1810.85,341.837 1812.91,340.309 1814.96,250.207 1817.01,276.78 1819.07,258.418 1821.12,261.009 1823.17,259.931 1825.22,253.552 1827.28,248.178 1829.33,234.665 1831.38,185.88 1833.44,184.444 1835.49,28.0438 1837.54,13.3965 1839.59,34.377 1841.65,-25.059 1843.7,57.8298 1845.75,120.407 1847.81,107.802 1849.86,97.794 1851.91,184.265 1853.96,-106.664 1856.02,-154.821 1858.07,205.268 1860.12,193.147 1862.18,234.677 1864.23,191.492 1866.28,276.458 1868.34,411.868 1870.39,404.843 1872.44,397.731 1874.49,414.293 1876.55,405.671 1878.6,523.963 1880.65,399.091 1882.71,0.29504 1884.76,-75.4749 1886.81,-101.469 1888.86,-13.1224 1890.92,377.974 1892.97,459.415 1895.02,672.264 1897.08,998.547 1899.13,997.627 1901.18,1002.6 1903.23,471.413 1905.29,523.796 1907.34,174.542 1909.39,634.847 1911.45,586.899 1913.5,636.8 1915.55,649.302 1917.6,719.496 1919.66,728.477 1921.71,943.447 1923.76,968.676 1925.82,959.786 1927.87,1102.48 1929.92,1091.6 1931.97,1089.26 1934.03,1171.3 1936.08,1217.46 1938.13,1218.11 1940.19,1211.3 1942.24,1121.57 1944.29,1067.53 1946.34,1117.06 1948.4,1169.91 1950.45,1171.48 1952.5,1168.04 1954.56,1156.4 1956.61,1157.23 1958.66,984.312 1960.72,913.571 1962.77,810.497 1964.82,656.748 1966.87,590.71 1968.93,548.029 1970.98,1059.69 1973.03,1092.05 1975.09,1010.01 1977.14,1022.05 1979.19,1082.53 1981.24,1043.58 1983.3,1106.25 1985.35,1157.05 1987.4,1153.45 1989.46,1188.58 1991.51,1015.87 1993.56,1018.69 1995.61,1283.16 1997.67,1295.51 1999.72,1282.57 2001.77,1074.77 2003.83,506.61 2005.88,421.315 2007.93,385.978 2009.98,370.199 2012.04,285.126 2014.09,277.724 2016.14,357.027 2018.2,355.913 2020.25,197.088 2022.3,251.578 2024.35,259.628 2026.41,236.943 2028.46,346.9 2030.51,348.6 2032.57,340.57 2034.62,130.376 2036.67,96.5133 2038.73,97.2284 2040.78,110.361 2042.83,140.912 2044.88,137.146 2046.94,142.092 2048.99,141.159 2051.04,123.381 2053.1,223.835 2055.15,231.183 2057.2,205.98 2059.25,175.51 2061.31,187.471 2063.36,189.108 2065.41,95.7786 2067.47,130.65 2069.52,121.54 2071.57,126.823 2073.62,126.921 2075.68,93.6774 2077.73,95.6905 2079.78,119.195 2081.84,220.069 2083.89,221.426 2085.94,162.361 2087.99,254.46 2090.05,276.608 2092.1,308.218 2094.15,305.58 2096.21,190.354 2098.26,198.228 2100.31,196.69 2102.36,346.438 2104.42,360.925 2106.47,364.077 2108.52,393.289 2110.58,396.003 2112.63,374.92 2114.68,151.669 2116.73,163.276 2118.79,301.075 2120.84,291.653 2122.89,357.021 2124.95,282.569 2127,305.511 2129.05,297.376 2131.11,376.201 2133.16,145.481 2135.21,279.465 2137.26,280.046 2139.32,277.549 2141.37,151.096 2143.42,129.345 2145.48,63.409 2147.53,223.902 2149.58,367.904 2151.63,387.657 2153.69,466.286 2155.74,468.592 2157.79,364.269 2159.85,486.282 2161.9,455.107 2163.95,483.212 2166,466.551 2168.06,452.672 2170.11,395.282 2172.16,412.837 2174.22,381.702 2176.27,356.93 2178.32,423.69 2180.37,344.333 2182.43,242.919 2184.48,288.96 2186.53,285.3 2188.59,174.416 2190.64,174.429 2192.69,158.939 2194.74,205.333 2196.8,207.651 2198.85,-34.8617 2200.9,445.135 2202.96,482.261 2205.01,485.172 2207.06,485.344 2209.12,382.114 2211.17,360.653 2213.22,549.811 2215.27,570.194 2217.33,519.512 2219.38,521.303 2221.43,783.266 2223.49,784.196 2225.54,739.626 2227.59,565.516 2229.64,196.358 2231.7,-26.0764 2233.75,60.0959 2235.8,153.581 2237.86,137.099 2239.91,39.9164 2241.96,104.022 2244.01,-267.539 2246.07,-372.242 2248.12,250.661 2250.17,329.53 2252.23,760.557 2254.28,815.544 2256.33,453.023 2258.38,159.622 2260.44,225.651 2262.49,-15.9379 2264.54,-460.149 2266.6,-526.157 2268.65,-369.174 2270.7,-368.639 2272.75,-247.044 2274.81,80.1303 2276.86,3.21573 2278.91,-6.3833 2280.97,-116.295 2283.02,-255.838 2285.07,-249.691 2287.12,-40.8744 2289.18,-124.478 2291.23,-86.2145 "/>
<path clip-path="url(#clip530)" d="M251.33 172.231 L548.024 172.231 L548.024 68.5509 L251.33 68.5509  Z" fill="#ffffff" fill-rule="evenodd" fill-opacity="1"/>
<polyline clip-path="url(#clip530)" style="stroke:#000000; stroke-linecap:round; stroke-linejoin:round; stroke-width:4; stroke-opacity:1; fill:none" points="251.33,172.231 548.024,172.231 548.024,68.5509 251.33,68.5509 251.33,172.231 "/>
<polyline clip-path="url(#clip530)" style="stroke:#009af9; stroke-linecap:round; stroke-linejoin:round; stroke-width:4; stroke-opacity:1; fill:none" points="275.484,120.391 420.41,120.391 "/>
<path clip-path="url(#clip530)" d="M444.564 103.111 L449.24 103.111 L449.24 133.736 L466.069 133.736 L466.069 137.671 L444.564 137.671 L444.564 103.111 Z" fill="#000000" fill-rule="nonzero" fill-opacity="1" /><path clip-path="url(#clip530)" d="M491.694 104.245 L491.694 108.805 Q489.032 107.532 486.67 106.907 Q484.309 106.282 482.11 106.282 Q478.291 106.282 476.208 107.764 Q474.147 109.245 474.147 111.977 Q474.147 114.268 475.513 115.449 Q476.902 116.606 480.745 117.324 L483.569 117.902 Q488.8 118.898 491.277 121.421 Q493.777 123.921 493.777 128.134 Q493.777 133.157 490.397 135.75 Q487.041 138.342 480.536 138.342 Q478.083 138.342 475.305 137.787 Q472.55 137.231 469.587 136.143 L469.587 131.328 Q472.434 132.926 475.166 133.736 Q477.897 134.546 480.536 134.546 Q484.541 134.546 486.717 132.972 Q488.893 131.398 488.893 128.481 Q488.893 125.935 487.319 124.5 Q485.768 123.064 482.203 122.347 L479.356 121.791 Q474.124 120.75 471.786 118.527 Q469.448 116.305 469.448 112.347 Q469.448 107.764 472.666 105.125 Q475.907 102.486 481.578 102.486 Q484.008 102.486 486.532 102.926 Q489.055 103.366 491.694 104.245 Z" fill="#000000" fill-rule="nonzero" fill-opacity="1" /><path clip-path="url(#clip530)" d="M521.786 104.245 L521.786 108.805 Q519.124 107.532 516.763 106.907 Q514.402 106.282 512.203 106.282 Q508.383 106.282 506.3 107.764 Q504.24 109.245 504.24 111.977 Q504.24 114.268 505.606 115.449 Q506.994 116.606 510.837 117.324 L513.661 117.902 Q518.893 118.898 521.369 121.421 Q523.869 123.921 523.869 128.134 Q523.869 133.157 520.49 135.75 Q517.133 138.342 510.629 138.342 Q508.175 138.342 505.397 137.787 Q502.643 137.231 499.68 136.143 L499.68 131.328 Q502.527 132.926 505.258 133.736 Q507.99 134.546 510.629 134.546 Q514.633 134.546 516.809 132.972 Q518.985 131.398 518.985 128.481 Q518.985 125.935 517.411 124.5 Q515.86 123.064 512.295 122.347 L509.448 121.791 Q504.217 120.75 501.879 118.527 Q499.541 116.305 499.541 112.347 Q499.541 107.764 502.758 105.125 Q505.999 102.486 511.67 102.486 Q514.101 102.486 516.624 102.926 Q519.147 103.366 521.786 104.245 Z" fill="#000000" fill-rule="nonzero" fill-opacity="1" /><path clip-path="url(#clip530)" d="M178.867 1486.45 L2352.76 1486.45 L2352.76 847.244 L178.867 847.244  Z" fill="#ffffff" fill-rule="evenodd" fill-opacity="1"/>
<defs>
  <clipPath id="clip533">
    <rect x="178" y="847" width="2175" height="640"/>
  </clipPath>
</defs>
<polyline clip-path="url(#clip533)" style="stroke:#000000; stroke-linecap:round; stroke-linejoin:round; stroke-width:2; stroke-opacity:0.1; fill:none" points="238.339,1486.45 238.339,847.244 "/>
<polyline clip-path="url(#clip533)" style="stroke:#000000; stroke-linecap:round; stroke-linejoin:round; stroke-width:2; stroke-opacity:0.1; fill:none" points="751.562,1486.45 751.562,847.244 "/>
<polyline clip-path="url(#clip533)" style="stroke:#000000; stroke-linecap:round; stroke-linejoin:round; stroke-width:2; stroke-opacity:0.1; fill:none" points="1264.78,1486.45 1264.78,847.244 "/>
<polyline clip-path="url(#clip533)" style="stroke:#000000; stroke-linecap:round; stroke-linejoin:round; stroke-width:2; stroke-opacity:0.1; fill:none" points="1778.01,1486.45 1778.01,847.244 "/>
<polyline clip-path="url(#clip533)" style="stroke:#000000; stroke-linecap:round; stroke-linejoin:round; stroke-width:2; stroke-opacity:0.1; fill:none" points="2291.23,1486.45 2291.23,847.244 "/>
<polyline clip-path="url(#clip533)" style="stroke:#000000; stroke-linecap:round; stroke-linejoin:round; stroke-width:2; stroke-opacity:0.1; fill:none" points="178.867,1486.45 2352.76,1486.45 "/>
<polyline clip-path="url(#clip533)" style="stroke:#000000; stroke-linecap:round; stroke-linejoin:round; stroke-width:2; stroke-opacity:0.1; fill:none" points="178.867,1326.65 2352.76,1326.65 "/>
<polyline clip-path="url(#clip533)" style="stroke:#000000; stroke-linecap:round; stroke-linejoin:round; stroke-width:2; stroke-opacity:0.1; fill:none" points="178.867,1166.85 2352.76,1166.85 "/>
<polyline clip-path="url(#clip533)" style="stroke:#000000; stroke-linecap:round; stroke-linejoin:round; stroke-width:2; stroke-opacity:0.1; fill:none" points="178.867,1007.05 2352.76,1007.05 "/>
<polyline clip-path="url(#clip533)" style="stroke:#000000; stroke-linecap:round; stroke-linejoin:round; stroke-width:2; stroke-opacity:0.1; fill:none" points="178.867,847.244 2352.76,847.244 "/>
<polyline clip-path="url(#clip530)" style="stroke:#000000; stroke-linecap:round; stroke-linejoin:round; stroke-width:4; stroke-opacity:1; fill:none" points="178.867,1486.45 2352.76,1486.45 "/>
<polyline clip-path="url(#clip530)" style="stroke:#000000; stroke-linecap:round; stroke-linejoin:round; stroke-width:4; stroke-opacity:1; fill:none" points="238.339,1486.45 238.339,1467.55 "/>
<polyline clip-path="url(#clip530)" style="stroke:#000000; stroke-linecap:round; stroke-linejoin:round; stroke-width:4; stroke-opacity:1; fill:none" points="751.562,1486.45 751.562,1467.55 "/>
<polyline clip-path="url(#clip530)" style="stroke:#000000; stroke-linecap:round; stroke-linejoin:round; stroke-width:4; stroke-opacity:1; fill:none" points="1264.78,1486.45 1264.78,1467.55 "/>
<polyline clip-path="url(#clip530)" style="stroke:#000000; stroke-linecap:round; stroke-linejoin:round; stroke-width:4; stroke-opacity:1; fill:none" points="1778.01,1486.45 1778.01,1467.55 "/>
<polyline clip-path="url(#clip530)" style="stroke:#000000; stroke-linecap:round; stroke-linejoin:round; stroke-width:4; stroke-opacity:1; fill:none" points="2291.23,1486.45 2291.23,1467.55 "/>
<path clip-path="url(#clip530)" d="M238.339 1517.37 Q234.728 1517.37 232.899 1520.93 Q231.094 1524.47 231.094 1531.6 Q231.094 1538.71 232.899 1542.27 Q234.728 1545.82 238.339 1545.82 Q241.973 1545.82 243.779 1542.27 Q245.607 1538.71 245.607 1531.6 Q245.607 1524.47 243.779 1520.93 Q241.973 1517.37 238.339 1517.37 M238.339 1513.66 Q244.149 1513.66 247.205 1518.27 Q250.283 1522.85 250.283 1531.6 Q250.283 1540.33 247.205 1544.94 Q244.149 1549.52 238.339 1549.52 Q232.529 1549.52 229.45 1544.94 Q226.395 1540.33 226.395 1531.6 Q226.395 1522.85 229.45 1518.27 Q232.529 1513.66 238.339 1513.66 Z" fill="#000000" fill-rule="nonzero" fill-opacity="1" /><path clip-path="url(#clip530)" d="M715.254 1544.91 L731.574 1544.91 L731.574 1548.85 L709.629 1548.85 L709.629 1544.91 Q712.291 1542.16 716.875 1537.53 Q721.481 1532.88 722.662 1531.53 Q724.907 1529.01 725.787 1527.27 Q726.689 1525.51 726.689 1523.82 Q726.689 1521.07 724.745 1519.33 Q722.824 1517.6 719.722 1517.6 Q717.523 1517.6 715.069 1518.36 Q712.638 1519.13 709.861 1520.68 L709.861 1515.95 Q712.685 1514.82 715.138 1514.24 Q717.592 1513.66 719.629 1513.66 Q725 1513.66 728.194 1516.35 Q731.388 1519.03 731.388 1523.52 Q731.388 1525.65 730.578 1527.57 Q729.791 1529.47 727.685 1532.07 Q727.106 1532.74 724.004 1535.95 Q720.902 1539.15 715.254 1544.91 Z" fill="#000000" fill-rule="nonzero" fill-opacity="1" /><path clip-path="url(#clip530)" d="M741.435 1514.29 L759.791 1514.29 L759.791 1518.22 L745.717 1518.22 L745.717 1526.7 Q746.736 1526.35 747.754 1526.19 Q748.773 1526 749.791 1526 Q755.578 1526 758.958 1529.17 Q762.337 1532.34 762.337 1537.76 Q762.337 1543.34 758.865 1546.44 Q755.393 1549.52 749.073 1549.52 Q746.898 1549.52 744.629 1549.15 Q742.384 1548.78 739.976 1548.04 L739.976 1543.34 Q742.06 1544.47 744.282 1545.03 Q746.504 1545.58 748.981 1545.58 Q752.985 1545.58 755.323 1543.48 Q757.661 1541.37 757.661 1537.76 Q757.661 1534.15 755.323 1532.04 Q752.985 1529.94 748.981 1529.94 Q747.106 1529.94 745.231 1530.35 Q743.379 1530.77 741.435 1531.65 L741.435 1514.29 Z" fill="#000000" fill-rule="nonzero" fill-opacity="1" /><path clip-path="url(#clip530)" d="M781.55 1517.37 Q777.939 1517.37 776.11 1520.93 Q774.305 1524.47 774.305 1531.6 Q774.305 1538.71 776.11 1542.27 Q777.939 1545.82 781.55 1545.82 Q785.184 1545.82 786.99 1542.27 Q788.819 1538.71 788.819 1531.6 Q788.819 1524.47 786.99 1520.93 Q785.184 1517.37 781.55 1517.37 M781.55 1513.66 Q787.36 1513.66 790.416 1518.27 Q793.495 1522.85 793.495 1531.6 Q793.495 1540.33 790.416 1544.94 Q787.36 1549.52 781.55 1549.52 Q775.74 1549.52 772.661 1544.94 Q769.606 1540.33 769.606 1531.6 Q769.606 1522.85 772.661 1518.27 Q775.74 1513.66 781.55 1513.66 Z" fill="#000000" fill-rule="nonzero" fill-opacity="1" /><path clip-path="url(#clip530)" d="M1224.4 1514.29 L1242.76 1514.29 L1242.76 1518.22 L1228.69 1518.22 L1228.69 1526.7 Q1229.7 1526.35 1230.72 1526.19 Q1231.74 1526 1232.76 1526 Q1238.55 1526 1241.93 1529.17 Q1245.31 1532.34 1245.31 1537.76 Q1245.31 1543.34 1241.83 1546.44 Q1238.36 1549.52 1232.04 1549.52 Q1229.87 1549.52 1227.6 1549.15 Q1225.35 1548.78 1222.94 1548.04 L1222.94 1543.34 Q1225.03 1544.47 1227.25 1545.03 Q1229.47 1545.58 1231.95 1545.58 Q1235.95 1545.58 1238.29 1543.48 Q1240.63 1541.37 1240.63 1537.76 Q1240.63 1534.15 1238.29 1532.04 Q1235.95 1529.94 1231.95 1529.94 Q1230.07 1529.94 1228.2 1530.35 Q1226.35 1530.77 1224.4 1531.65 L1224.4 1514.29 Z" fill="#000000" fill-rule="nonzero" fill-opacity="1" /><path clip-path="url(#clip530)" d="M1264.52 1517.37 Q1260.91 1517.37 1259.08 1520.93 Q1257.27 1524.47 1257.27 1531.6 Q1257.27 1538.71 1259.08 1542.27 Q1260.91 1545.82 1264.52 1545.82 Q1268.15 1545.82 1269.96 1542.27 Q1271.79 1538.71 1271.79 1531.6 Q1271.79 1524.47 1269.96 1520.93 Q1268.15 1517.37 1264.52 1517.37 M1264.52 1513.66 Q1270.33 1513.66 1273.38 1518.27 Q1276.46 1522.85 1276.46 1531.6 Q1276.46 1540.33 1273.38 1544.94 Q1270.33 1549.52 1264.52 1549.52 Q1258.71 1549.52 1255.63 1544.94 Q1252.57 1540.33 1252.57 1531.6 Q1252.57 1522.85 1255.63 1518.27 Q1258.71 1513.66 1264.52 1513.66 Z" fill="#000000" fill-rule="nonzero" fill-opacity="1" /><path clip-path="url(#clip530)" d="M1294.68 1517.37 Q1291.07 1517.37 1289.24 1520.93 Q1287.44 1524.47 1287.44 1531.6 Q1287.44 1538.71 1289.24 1542.27 Q1291.07 1545.82 1294.68 1545.82 Q1298.31 1545.82 1300.12 1542.27 Q1301.95 1538.71 1301.95 1531.6 Q1301.95 1524.47 1300.12 1520.93 Q1298.31 1517.37 1294.68 1517.37 M1294.68 1513.66 Q1300.49 1513.66 1303.55 1518.27 Q1306.62 1522.85 1306.62 1531.6 Q1306.62 1540.33 1303.55 1544.94 Q1300.49 1549.52 1294.68 1549.52 Q1288.87 1549.52 1285.79 1544.94 Q1282.74 1540.33 1282.74 1531.6 Q1282.74 1522.85 1285.79 1518.27 Q1288.87 1513.66 1294.68 1513.66 Z" fill="#000000" fill-rule="nonzero" fill-opacity="1" /><path clip-path="url(#clip530)" d="M1736.28 1514.29 L1758.51 1514.29 L1758.51 1516.28 L1745.96 1548.85 L1741.08 1548.85 L1752.88 1518.22 L1736.28 1518.22 L1736.28 1514.29 Z" fill="#000000" fill-rule="nonzero" fill-opacity="1" /><path clip-path="url(#clip530)" d="M1767.67 1514.29 L1786.03 1514.29 L1786.03 1518.22 L1771.95 1518.22 L1771.95 1526.7 Q1772.97 1526.35 1773.99 1526.19 Q1775.01 1526 1776.03 1526 Q1781.82 1526 1785.2 1529.17 Q1788.57 1532.34 1788.57 1537.76 Q1788.57 1543.34 1785.1 1546.44 Q1781.63 1549.52 1775.31 1549.52 Q1773.14 1549.52 1770.87 1549.15 Q1768.62 1548.78 1766.21 1548.04 L1766.21 1543.34 Q1768.3 1544.47 1770.52 1545.03 Q1772.74 1545.58 1775.22 1545.58 Q1779.22 1545.58 1781.56 1543.48 Q1783.9 1541.37 1783.9 1537.76 Q1783.9 1534.15 1781.56 1532.04 Q1779.22 1529.94 1775.22 1529.94 Q1773.34 1529.94 1771.47 1530.35 Q1769.62 1530.77 1767.67 1531.65 L1767.67 1514.29 Z" fill="#000000" fill-rule="nonzero" fill-opacity="1" /><path clip-path="url(#clip530)" d="M1807.79 1517.37 Q1804.18 1517.37 1802.35 1520.93 Q1800.54 1524.47 1800.54 1531.6 Q1800.54 1538.71 1802.35 1542.27 Q1804.18 1545.82 1807.79 1545.82 Q1811.42 1545.82 1813.23 1542.27 Q1815.06 1538.71 1815.06 1531.6 Q1815.06 1524.47 1813.23 1520.93 Q1811.42 1517.37 1807.79 1517.37 M1807.79 1513.66 Q1813.6 1513.66 1816.65 1518.27 Q1819.73 1522.85 1819.73 1531.6 Q1819.73 1540.33 1816.65 1544.94 Q1813.6 1549.52 1807.79 1549.52 Q1801.98 1549.52 1798.9 1544.94 Q1795.84 1540.33 1795.84 1531.6 Q1795.84 1522.85 1798.9 1518.27 Q1801.98 1513.66 1807.79 1513.66 Z" fill="#000000" fill-rule="nonzero" fill-opacity="1" /><path clip-path="url(#clip530)" d="M2235.76 1544.91 L2243.4 1544.91 L2243.4 1518.55 L2235.09 1520.21 L2235.09 1515.95 L2243.35 1514.29 L2248.02 1514.29 L2248.02 1544.91 L2255.66 1544.91 L2255.66 1548.85 L2235.76 1548.85 L2235.76 1544.91 Z" fill="#000000" fill-rule="nonzero" fill-opacity="1" /><path clip-path="url(#clip530)" d="M2275.11 1517.37 Q2271.5 1517.37 2269.67 1520.93 Q2267.86 1524.47 2267.86 1531.6 Q2267.86 1538.71 2269.67 1542.27 Q2271.5 1545.82 2275.11 1545.82 Q2278.74 1545.82 2280.55 1542.27 Q2282.38 1538.71 2282.38 1531.6 Q2282.38 1524.47 2280.55 1520.93 Q2278.74 1517.37 2275.11 1517.37 M2275.11 1513.66 Q2280.92 1513.66 2283.97 1518.27 Q2287.05 1522.85 2287.05 1531.6 Q2287.05 1540.33 2283.97 1544.94 Q2280.92 1549.52 2275.11 1549.52 Q2269.3 1549.52 2266.22 1544.94 Q2263.16 1540.33 2263.16 1531.6 Q2263.16 1522.85 2266.22 1518.27 Q2269.3 1513.66 2275.11 1513.66 Z" fill="#000000" fill-rule="nonzero" fill-opacity="1" /><path clip-path="url(#clip530)" d="M2305.27 1517.37 Q2301.66 1517.37 2299.83 1520.93 Q2298.02 1524.47 2298.02 1531.6 Q2298.02 1538.71 2299.83 1542.27 Q2301.66 1545.82 2305.27 1545.82 Q2308.9 1545.82 2310.71 1542.27 Q2312.54 1538.71 2312.54 1531.6 Q2312.54 1524.47 2310.71 1520.93 Q2308.9 1517.37 2305.27 1517.37 M2305.27 1513.66 Q2311.08 1513.66 2314.14 1518.27 Q2317.21 1522.85 2317.21 1531.6 Q2317.21 1540.33 2314.14 1544.94 Q2311.08 1549.52 2305.27 1549.52 Q2299.46 1549.52 2296.38 1544.94 Q2293.33 1540.33 2293.33 1531.6 Q2293.33 1522.85 2296.38 1518.27 Q2299.46 1513.66 2305.27 1513.66 Z" fill="#000000" fill-rule="nonzero" fill-opacity="1" /><path clip-path="url(#clip530)" d="M2335.43 1517.37 Q2331.82 1517.37 2329.99 1520.93 Q2328.19 1524.47 2328.19 1531.6 Q2328.19 1538.71 2329.99 1542.27 Q2331.82 1545.82 2335.43 1545.82 Q2339.07 1545.82 2340.87 1542.27 Q2342.7 1538.71 2342.7 1531.6 Q2342.7 1524.47 2340.87 1520.93 Q2339.07 1517.37 2335.43 1517.37 M2335.43 1513.66 Q2341.24 1513.66 2344.3 1518.27 Q2347.38 1522.85 2347.38 1531.6 Q2347.38 1540.33 2344.3 1544.94 Q2341.24 1549.52 2335.43 1549.52 Q2329.62 1549.52 2326.54 1544.94 Q2323.49 1540.33 2323.49 1531.6 Q2323.49 1522.85 2326.54 1518.27 Q2329.62 1513.66 2335.43 1513.66 Z" fill="#000000" fill-rule="nonzero" fill-opacity="1" /><polyline clip-path="url(#clip530)" style="stroke:#000000; stroke-linecap:round; stroke-linejoin:round; stroke-width:4; stroke-opacity:1; fill:none" points="178.867,1486.45 178.867,847.244 "/>
<polyline clip-path="url(#clip530)" style="stroke:#000000; stroke-linecap:round; stroke-linejoin:round; stroke-width:4; stroke-opacity:1; fill:none" points="178.867,1486.45 197.764,1486.45 "/>
<polyline clip-path="url(#clip530)" style="stroke:#000000; stroke-linecap:round; stroke-linejoin:round; stroke-width:4; stroke-opacity:1; fill:none" points="178.867,1326.65 197.764,1326.65 "/>
<polyline clip-path="url(#clip530)" style="stroke:#000000; stroke-linecap:round; stroke-linejoin:round; stroke-width:4; stroke-opacity:1; fill:none" points="178.867,1166.85 197.764,1166.85 "/>
<polyline clip-path="url(#clip530)" style="stroke:#000000; stroke-linecap:round; stroke-linejoin:round; stroke-width:4; stroke-opacity:1; fill:none" points="178.867,1007.05 197.764,1007.05 "/>
<polyline clip-path="url(#clip530)" style="stroke:#000000; stroke-linecap:round; stroke-linejoin:round; stroke-width:4; stroke-opacity:1; fill:none" points="178.867,847.244 197.764,847.244 "/>
<path clip-path="url(#clip530)" d="M50.9921 1486.9 L80.6679 1486.9 L80.6679 1490.83 L50.9921 1490.83 L50.9921 1486.9 Z" fill="#000000" fill-rule="nonzero" fill-opacity="1" /><path clip-path="url(#clip530)" d="M91.5706 1499.79 L99.2095 1499.79 L99.2095 1473.43 L90.8993 1475.09 L90.8993 1470.83 L99.1632 1469.17 L103.839 1469.17 L103.839 1499.79 L111.478 1499.79 L111.478 1503.73 L91.5706 1503.73 L91.5706 1499.79 Z" fill="#000000" fill-rule="nonzero" fill-opacity="1" /><path clip-path="url(#clip530)" d="M130.922 1472.25 Q127.311 1472.25 125.482 1475.81 Q123.677 1479.35 123.677 1486.48 Q123.677 1493.59 125.482 1497.15 Q127.311 1500.7 130.922 1500.7 Q134.556 1500.7 136.362 1497.15 Q138.191 1493.59 138.191 1486.48 Q138.191 1479.35 136.362 1475.81 Q134.556 1472.25 130.922 1472.25 M130.922 1468.54 Q136.732 1468.54 139.788 1473.15 Q142.867 1477.73 142.867 1486.48 Q142.867 1495.21 139.788 1499.82 Q136.732 1504.4 130.922 1504.4 Q125.112 1504.4 122.033 1499.82 Q118.978 1495.21 118.978 1486.48 Q118.978 1477.73 122.033 1473.15 Q125.112 1468.54 130.922 1468.54 Z" fill="#000000" fill-rule="nonzero" fill-opacity="1" /><path clip-path="url(#clip530)" d="M82.1494 1327.1 L111.825 1327.1 L111.825 1331.03 L82.1494 1331.03 L82.1494 1327.1 Z" fill="#000000" fill-rule="nonzero" fill-opacity="1" /><path clip-path="url(#clip530)" d="M121.964 1309.37 L140.32 1309.37 L140.32 1313.3 L126.246 1313.3 L126.246 1321.77 Q127.265 1321.43 128.283 1321.27 Q129.302 1321.08 130.32 1321.08 Q136.107 1321.08 139.487 1324.25 Q142.867 1327.42 142.867 1332.84 Q142.867 1338.42 139.394 1341.52 Q135.922 1344.6 129.603 1344.6 Q127.427 1344.6 125.158 1344.23 Q122.913 1343.86 120.506 1343.12 L120.506 1338.42 Q122.589 1339.55 124.811 1340.11 Q127.033 1340.66 129.51 1340.66 Q133.515 1340.66 135.853 1338.56 Q138.191 1336.45 138.191 1332.84 Q138.191 1329.23 135.853 1327.12 Q133.515 1325.01 129.51 1325.01 Q127.635 1325.01 125.76 1325.43 Q123.908 1325.85 121.964 1326.73 L121.964 1309.37 Z" fill="#000000" fill-rule="nonzero" fill-opacity="1" /><path clip-path="url(#clip530)" d="M130.922 1152.64 Q127.311 1152.64 125.482 1156.21 Q123.677 1159.75 123.677 1166.88 Q123.677 1173.99 125.482 1177.55 Q127.311 1181.09 130.922 1181.09 Q134.556 1181.09 136.362 1177.55 Q138.191 1173.99 138.191 1166.88 Q138.191 1159.75 136.362 1156.21 Q134.556 1152.64 130.922 1152.64 M130.922 1148.94 Q136.732 1148.94 139.788 1153.55 Q142.867 1158.13 142.867 1166.88 Q142.867 1175.61 139.788 1180.21 Q136.732 1184.8 130.922 1184.8 Q125.112 1184.8 122.033 1180.21 Q118.978 1175.61 118.978 1166.88 Q118.978 1158.13 122.033 1153.55 Q125.112 1148.94 130.922 1148.94 Z" fill="#000000" fill-rule="nonzero" fill-opacity="1" /><path clip-path="url(#clip530)" d="M121.964 989.765 L140.32 989.765 L140.32 993.7 L126.246 993.7 L126.246 1002.17 Q127.265 1001.83 128.283 1001.66 Q129.302 1001.48 130.32 1001.48 Q136.107 1001.48 139.487 1004.65 Q142.867 1007.82 142.867 1013.24 Q142.867 1018.82 139.394 1021.92 Q135.922 1025 129.603 1025 Q127.427 1025 125.158 1024.63 Q122.913 1024.26 120.506 1023.51 L120.506 1018.82 Q122.589 1019.95 124.811 1020.51 Q127.033 1021.06 129.51 1021.06 Q133.515 1021.06 135.853 1018.95 Q138.191 1016.85 138.191 1013.24 Q138.191 1009.63 135.853 1007.52 Q133.515 1005.41 129.51 1005.41 Q127.635 1005.41 125.76 1005.83 Q123.908 1006.25 121.964 1007.13 L121.964 989.765 Z" fill="#000000" fill-rule="nonzero" fill-opacity="1" /><path clip-path="url(#clip530)" d="M91.5706 860.589 L99.2095 860.589 L99.2095 834.223 L90.8993 835.89 L90.8993 831.631 L99.1632 829.964 L103.839 829.964 L103.839 860.589 L111.478 860.589 L111.478 864.524 L91.5706 864.524 L91.5706 860.589 Z" fill="#000000" fill-rule="nonzero" fill-opacity="1" /><path clip-path="url(#clip530)" d="M130.922 833.043 Q127.311 833.043 125.482 836.608 Q123.677 840.149 123.677 847.279 Q123.677 854.385 125.482 857.95 Q127.311 861.492 130.922 861.492 Q134.556 861.492 136.362 857.95 Q138.191 854.385 138.191 847.279 Q138.191 840.149 136.362 836.608 Q134.556 833.043 130.922 833.043 M130.922 829.339 Q136.732 829.339 139.788 833.946 Q142.867 838.529 142.867 847.279 Q142.867 856.006 139.788 860.612 Q136.732 865.195 130.922 865.195 Q125.112 865.195 122.033 860.612 Q118.978 856.006 118.978 847.279 Q118.978 838.529 122.033 833.946 Q125.112 829.339 130.922 829.339 Z" fill="#000000" fill-rule="nonzero" fill-opacity="1" /><polyline clip-path="url(#clip533)" style="stroke:#009af9; stroke-linecap:round; stroke-linejoin:round; stroke-width:4; stroke-opacity:1; fill:none" points="240.392,1134.89 242.445,1165.19 244.498,1141.43 246.55,1177.14 248.603,1175.64 250.656,1167.99 252.709,1117.17 254.762,1317.31 256.815,1371.16 258.868,1230.29 260.921,1223.86 262.974,1120.24 265.027,1157.98 267.079,1214.92 269.132,1175.82 271.185,1151.56 273.238,1137.01 275.291,1177.61 277.344,1270.03 279.397,1170.9 281.45,1175.91 283.503,1165.71 285.555,1168.39 287.608,1159.63 289.661,1143.53 291.714,1074.68 293.767,1152.4 295.82,1165.12 297.873,1153.59 299.926,1105.71 301.979,958.471 304.031,1484.72 306.084,1122.57 308.137,1078.66 310.19,1117.23 312.243,1173.18 314.296,1196.48 316.349,1191.56 318.402,1260.89 320.455,1249.45 322.507,1198.53 324.56,1183.18 326.613,1149.26 328.666,1154.82 330.719,1168.22 332.772,1193.61 334.825,1174.19 336.878,1161.25 338.931,1162.13 340.984,1222.81 343.036,1236.61 345.089,1028.52 347.142,1114.61 349.195,1158.85 351.248,1184.51 353.301,1173.41 355.354,1169.62 357.407,1175.96 359.46,1211.77 361.512,1250.5 363.565,1168.39 365.618,1178.81 367.671,1162.14 369.724,1084.97 371.777,1296.94 373.83,1527.3 375.883,1248.65 377.936,1112 379.988,1075.97 382.041,1092.21 384.094,1209.27 386.147,1137.53 388.2,1204.9 390.253,1179.11 392.306,1297.99 394.359,1196.98 396.412,1229.49 398.464,1091.26 400.517,1146.42 402.57,1253.33 404.623,1143.16 406.676,1208.26 408.729,1176.57 410.782,1171.99 412.835,1074.41 414.888,1313.15 416.94,1554.42 418.993,1751.53 421.046,-488.582 423.099,1379.18 425.152,1136.46 427.205,1167.06 429.258,1148.58 431.311,1108.28 433.364,1106.06 435.417,1228.93 437.469,1163.66 439.522,1163.54 441.575,1145.27 443.628,1150.14 445.681,1186.82 447.734,1181.28 449.787,1130.7 451.84,1449.25 453.893,1433.79 455.945,907.059 457.998,1374.78 460.051,1320.18 462.104,1132.67 464.157,1222.3 466.21,1136.87 468.263,1170.99 470.316,1171.4 472.369,1174.37 474.421,1188.81 476.474,1134.4 478.527,1123.3 480.58,1275.64 482.633,1050.07 484.686,1113.26 486.739,1161.59 488.792,1138.23 490.845,1203.62 492.897,1107.83 494.95,1209.26 497.003,1162.07 499.056,1166.88 501.109,1157.67 503.162,1151.42 505.215,1080.28 507.268,1150.7 509.321,1146.81 511.374,1179.99 513.426,1178.03 515.479,1174.62 517.532,1163.97 519.585,1134.32 521.638,1085.28 523.691,1119.74 525.744,1151.57 527.797,1131.26 529.85,1149.53 531.902,1184.85 533.955,1151.43 536.008,1184.4 538.061,1146.44 540.114,1157.85 542.167,1197.51 544.22,1171.43 546.273,1124.96 548.326,1172.29 550.378,1032.81 552.431,1085.57 554.484,1223.57 556.537,1175.72 558.59,1102.92 560.643,1196.53 562.696,1117.57 564.749,1146.1 566.802,1176.66 568.854,1186.53 570.907,1165 572.96,1175.19 575.013,1140.71 577.066,1154.49 579.119,1152.03 581.172,1158.42 583.225,1126.38 585.278,1195.29 587.331,1278.58 589.383,1024.72 591.436,983.494 593.489,1162.75 595.542,1137.76 597.595,1157.02 599.648,1151.95 601.701,1145.32 603.754,1158.74 605.807,1149.4 607.859,1142.69 609.912,1209.38 611.965,1336.59 614.018,1098.21 616.071,1162.03 618.124,1139.28 620.177,1112.22 622.23,1171.81 624.283,1106.29 626.335,1175.39 628.388,1168.52 630.441,1064.66 632.494,1151.84 634.547,1447.49 636.6,848.255 638.653,-10.7572 640.706,397.819 642.759,671.517 644.811,1345.83 646.864,1160.41 648.917,1173.04 650.97,1127.12 653.023,1140.64 655.076,1201.98 657.129,1193.06 659.182,1157.17 661.235,1184.55 663.288,1136.08 665.34,1116.22 667.393,948.148 669.446,1321.28 671.499,1286.25 673.552,1148.91 675.605,1167.02 677.658,1202.63 679.711,1143.99 681.764,1186.81 683.816,1158.39 685.869,1182.78 687.922,1137.58 689.975,1204.63 692.028,1221.53 694.081,1172.35 696.134,1146.9 698.187,1163.83 700.24,1334.6 702.292,994.099 704.345,1513.2 706.398,1439.94 708.451,1067.1 710.504,399.151 712.557,595.183 714.61,771.103 716.663,886.663 718.716,1830.65 720.768,876.23 722.821,1198.73 724.874,1192.52 726.927,1137.86 728.98,1150.02 731.033,1149.84 733.086,1218.97 735.139,1151.66 737.192,1167.67 739.245,1158.51 741.297,1154.41 743.35,1223.25 745.403,1200.34 747.456,1241.94 749.509,1156.25 751.562,1034.22 753.615,1268.24 755.668,1258.59 757.721,1242.13 759.773,1059.29 761.826,1256.73 763.879,1092.46 765.932,1058.63 767.985,1134.67 770.038,1169.17 772.091,1107.94 774.144,1147.33 776.197,1171.07 778.249,1242.16 780.302,1218.59 782.355,1125.79 784.408,1230.08 786.461,1292.69 788.514,1217.09 790.567,1224.32 792.62,1312.13 794.673,1206.32 796.725,1120.14 798.778,1202.1 800.831,1169.93 802.884,1156.17 804.937,1140.49 806.99,1203.13 809.043,1027.83 811.096,1319.09 813.149,1213.56 815.202,1191.24 817.254,1171.24 819.307,1153.8 821.36,1161.98 823.413,1165.92 825.466,1106.89 827.519,1087.12 829.572,1131.52 831.625,1182.18 833.678,1146.27 835.73,934.527 837.783,1510.16 839.836,1365.21 841.889,1278.44 843.942,1098.53 845.995,1152.29 848.048,1089.29 850.101,1241.45 852.154,1308.82 854.206,1346.83 856.259,1239.26 858.312,1112.03 860.365,948.016 862.418,1354.38 864.471,1464.71 866.524,1431.91 868.577,981.027 870.63,1174.94 872.682,1215.49 874.735,1188.64 876.788,1192.42 878.841,1198.55 880.894,1202.74 882.947,1216.33 885,1196.66 887.053,1161.33 889.106,1193.99 891.159,1193.42 893.211,1214.02 895.264,1200.66 897.317,1168.35 899.37,1136.82 901.423,1157.18 903.476,1179.07 905.529,1133.29 907.582,1130.34 909.635,1202.97 911.687,1140.43 913.74,1211.16 915.793,1230.03 917.846,1159.22 919.899,1129.33 921.952,1190.25 924.005,1160.28 926.058,1182.59 928.111,1149.71 930.163,1155.1 932.216,1176.57 934.269,1159.52 936.322,1171.93 938.375,1126.7 940.428,1173.18 942.481,1206.31 944.534,1240.25 946.587,1238.56 948.639,1116.32 950.692,1172.17 952.745,969.523 954.798,1206.17 956.851,1159.32 958.904,1180.09 960.957,1182.04 963.01,1182.97 965.063,1164.09 967.116,1160.66 969.168,1171.85 971.221,1166.63 973.274,1317.78 975.327,1327.15 977.38,1160.19 979.433,1197.05 981.486,1096.96 983.539,975.461 985.592,1143.83 987.644,1207.65 989.697,1189.26 991.75,1142.33 993.803,1106.43 995.856,1252.47 997.909,1496.05 999.962,1275.28 1002.01,1033.69 1004.07,582.752 1006.12,962.634 1008.17,1188.65 1010.23,1142.12 1012.28,1208.27 1014.33,1177.77 1016.38,1170.06 1018.44,1166.15 1020.49,1127.18 1022.54,1220.28 1024.6,1101.31 1026.65,1130.77 1028.7,1650.43 1030.76,1171.83 1032.81,1152.39 1034.86,985.337 1036.91,1030.93 1038.97,1061.26 1041.02,1020.98 1043.07,1172.91 1045.13,1028.13 1047.18,1005.64 1049.23,990.949 1051.28,1189.16 1053.34,1260.38 1055.39,1096.44 1057.44,1128.43 1059.5,1153.69 1061.55,1092.75 1063.6,1037.52 1065.65,1172.57 1067.71,1144.47 1069.76,1161.33 1071.81,1132.32 1073.87,1176.96 1075.92,1123.54 1077.97,1225.15 1080.02,1060.54 1082.08,1188.72 1084.13,1184.41 1086.18,1164.67 1088.24,1169.72 1090.29,1182.85 1092.34,1148.97 1094.39,1195.3 1096.45,1166.64 1098.5,1167.29 1100.55,1165.73 1102.61,1151.27 1104.66,1185.94 1106.71,1100.13 1108.77,993.684 1110.82,1158.93 1112.87,1150.79 1114.92,1159.49 1116.98,1147.68 1119.03,1337.94 1121.08,978.285 1123.14,1063.89 1125.19,1244.06 1127.24,1114.64 1129.29,996.187 1131.35,1131.05 1133.4,1202.21 1135.45,959.78 1137.51,1038.94 1139.56,1195.73 1141.61,1169.96 1143.66,1162.73 1145.72,1184.59 1147.77,1082.16 1149.82,1345.03 1151.88,1163.52 1153.93,1171.64 1155.98,1132.3 1158.03,1180.44 1160.09,1108.61 1162.14,1225.18 1164.19,1183.48 1166.25,1338.2 1168.3,39.7148 1170.35,2276.91 1172.4,568.035 1174.46,976.664 1176.51,1378.85 1178.56,952.149 1180.62,1180.83 1182.67,1067.33 1184.72,1217.28 1186.77,1120.14 1188.83,1100.97 1190.88,1205.13 1192.93,1110.61 1194.99,1104.71 1197.04,1174.6 1199.09,1165.28 1201.15,1153.95 1203.2,974.649 1205.25,1059.43 1207.3,1092.49 1209.36,1141 1211.41,1125.68 1213.46,1162.82 1215.52,1168.36 1217.57,1158.74 1219.62,1153.88 1221.67,1141.47 1223.73,1146.19 1225.78,1132.53 1227.83,1151.66 1229.89,1210.85 1231.94,1118.38 1233.99,1178.35 1236.04,1167.24 1238.1,1149.43 1240.15,1162.17 1242.2,1220.12 1244.26,1142.91 1246.31,1147.69 1248.36,1180.79 1250.41,1199.55 1252.47,1136.71 1254.52,1067.86 1256.57,1278.03 1258.63,1178.91 1260.68,1154.51 1262.73,1173.32 1264.78,1173.96 1266.84,1104.88 1268.89,1128.18 1270.94,1214.32 1273,1132.48 1275.05,1176.93 1277.1,1165.58 1279.16,1143.55 1281.21,1197.66 1283.26,1257.63 1285.31,1144.25 1287.37,1154.25 1289.42,1176.73 1291.47,1168.45 1293.53,1179.91 1295.58,1193.16 1297.63,1148.13 1299.68,1144.07 1301.74,1175.67 1303.79,1356.81 1305.84,1433.61 1307.9,1181.4 1309.95,1010.08 1312,1169.56 1314.05,1121.03 1316.11,1184.48 1318.16,1174.91 1320.21,1249.13 1322.27,1029.44 1324.32,766.621 1326.37,1250.12 1328.42,1138.58 1330.48,1122.24 1332.53,1329.17 1334.58,1283.6 1336.64,1154.6 1338.69,1216.4 1340.74,1150.1 1342.79,1156.96 1344.85,1174.95 1346.9,1172.53 1348.95,1198.54 1351.01,1216.14 1353.06,1080.35 1355.11,1161.43 1357.16,1182.62 1359.22,1178.86 1361.27,1129.98 1363.32,1224.91 1365.38,1313.32 1367.43,1250.67 1369.48,972.117 1371.54,1425.3 1373.59,975.307 1375.64,1169.79 1377.69,1134.42 1379.75,1464.07 1381.8,1108.56 1383.85,1166.24 1385.91,1305.02 1387.96,1314.62 1390.01,1173.34 1392.06,1072.98 1394.12,1042.98 1396.17,1763.62 1398.22,1207.37 1400.28,1245.52 1402.33,1455.49 1404.38,1647.43 1406.43,1078.18 1408.49,1414.39 1410.54,1236.41 1412.59,1077.86 1414.65,902.847 1416.7,1060.78 1418.75,1221.11 1420.8,1155.1 1422.86,1184.23 1424.91,1174.23 1426.96,1171.06 1429.02,1202.28 1431.07,1240.97 1433.12,1266.44 1435.17,1255.27 1437.23,1294.45 1439.28,1322.47 1441.33,1187.47 1443.39,1157.37 1445.44,1244.35 1447.49,1158.35 1449.55,1321.81 1451.6,1199.69 1453.65,1166.05 1455.7,1206.13 1457.76,1127.43 1459.81,1180.84 1461.86,1197.33 1463.92,1122.51 1465.97,1178.9 1468.02,1172.03 1470.07,1174.2 1472.13,1150.59 1474.18,1183.4 1476.23,1162.46 1478.29,1151.81 1480.34,1073.11 1482.39,1043.88 1484.44,977.204 1486.5,897.095 1488.55,1046.58 1490.6,1286.52 1492.66,1214.88 1494.71,1191.47 1496.76,1210.37 1498.81,1149.02 1500.87,1196.79 1502.92,1089.26 1504.97,1197.04 1507.03,1238.27 1509.08,1029.01 1511.13,1130.38 1513.18,1189.4 1515.24,1166.96 1517.29,1179.54 1519.34,1136.02 1521.4,1168.91 1523.45,1174.68 1525.5,1200.97 1527.55,1184.04 1529.61,1181.8 1531.66,1144.81 1533.71,1160.62 1535.77,1167.86 1537.82,1157.6 1539.87,1166.9 1541.93,1165.12 1543.98,1166.35 1546.03,1149.39 1548.08,1169.79 1550.14,1186.68 1552.19,1177.94 1554.24,1111.55 1556.3,1169.78 1558.35,1239.87 1560.4,1115.38 1562.45,1047.71 1564.51,1077.92 1566.56,1300.84 1568.61,1152.59 1570.67,1222.12 1572.72,1232.91 1574.77,1155.58 1576.82,979.459 1578.88,1328.72 1580.93,1033.36 1582.98,1027.67 1585.04,1177.68 1587.09,1079.55 1589.14,1208.3 1591.19,1124.19 1593.25,1222.38 1595.3,1270.23 1597.35,1134.31 1599.41,1232.55 1601.46,1182.6 1603.51,1116.48 1605.56,1383.09 1607.62,1281.73 1609.67,1098.24 1611.72,1117.85 1613.78,1089.16 1615.83,1227.48 1617.88,1256.6 1619.94,968.72 1621.99,1237.71 1624.04,1192.52 1626.09,1309.39 1628.15,1221.58 1630.2,1202.79 1632.25,1155.4 1634.31,1113.2 1636.36,1192.05 1638.41,1191.62 1640.46,1107.76 1642.52,1169.9 1644.57,1135.29 1646.62,1124.49 1648.68,1242.94 1650.73,1038.29 1652.78,873.011 1654.83,1281.97 1656.89,1165.11 1658.94,1291.88 1660.99,1141.41 1663.05,1187.89 1665.1,1231.88 1667.15,1186.84 1669.2,1172.47 1671.26,1176.71 1673.31,1180.89 1675.36,1168.8 1677.42,1159.2 1679.47,1159.91 1681.52,1209.43 1683.57,1227.35 1685.63,1159.61 1687.68,1112.49 1689.73,1116.29 1691.79,1137.83 1693.84,1164.54 1695.89,1166.7 1697.94,1197.5 1700,1150.35 1702.05,1109.35 1704.1,1229.55 1706.16,1156.98 1708.21,1142.53 1710.26,1169.39 1712.32,1210.63 1714.37,1225.09 1716.42,1093.14 1718.47,1145.94 1720.53,1187.77 1722.58,1235.06 1724.63,1321.91 1726.69,1016.85 1728.74,1157.87 1730.79,1357.49 1732.84,1758.59 1734.9,928.236 1736.95,632.994 1739,1344.58 1741.06,1159.68 1743.11,1144.17 1745.16,1160.65 1747.21,1230.87 1749.27,1098.43 1751.32,1157.12 1753.37,1155.86 1755.43,1158.24 1757.48,1180.38 1759.53,1191.95 1761.58,1153.6 1763.64,1175.88 1765.69,1194.81 1767.74,1159.88 1769.8,1165.63 1771.85,1194.01 1773.9,1153.53 1775.95,1221.89 1778.01,1138.98 1780.06,1143.28 1782.11,1192.28 1784.17,834.96 1786.22,1068.85 1788.27,8035.2 1790.33,-17420.1 1792.38,10502.9 1794.43,3328.83 1796.48,5005.94 1798.54,-4051.84 1800.59,-2153.87 1802.64,3859.49 1804.7,-1607.79 1806.75,3820.97 1808.8,-410.247 1810.85,1126.29 1812.91,1125.31 1814.96,1172.38 1817.01,1232.44 1819.07,1239.44 1821.12,1232.68 1823.17,1108.8 1825.22,1205.94 1827.28,1130.57 1829.33,1186.41 1831.38,1168.57 1833.44,1173.81 1835.49,1169.15 1837.54,1172.35 1839.59,1187.08 1841.65,1191.19 1843.7,1206.29 1845.75,1207.51 1847.81,1166.06 1849.86,1183.82 1851.91,1111.43 1853.96,1085.18 1856.02,1190.06 1858.07,979.819 1860.12,1297.75 1862.18,1136.57 1864.23,1155.94 1866.28,1232.96 1868.34,903.925 1870.39,1186.32 1872.44,1179.07 1874.49,1150.5 1876.55,1205.47 1878.6,1130.01 1880.65,1151.71 1882.71,1164.55 1884.76,1181.21 1886.81,1135.92 1888.86,1157.52 1890.92,1168.29 1892.97,1169.01 1895.02,1111.73 1897.08,1170.1 1899.13,1164.65 1901.18,1137.22 1903.23,1156.43 1905.29,1199.21 1907.34,1149.89 1909.39,1153.42 1911.45,1254.55 1913.5,1211.97 1915.55,1097.17 1917.6,1226.9 1919.66,951.789 1921.71,1144.76 1923.76,1100.34 1925.82,1215 1927.87,1204.69 1929.92,1072.42 1931.97,1130.11 1934.03,1170.2 1936.08,1164.19 1938.13,1145.33 1940.19,1103.81 1942.24,1206.74 1944.29,1262.97 1946.34,1011.52 1948.4,1120.16 1950.45,1142.83 1952.5,1117.97 1954.56,1185.4 1956.61,1118.57 1958.66,1158.71 1960.72,1128.97 1962.77,1145.98 1964.82,1280.41 1966.87,1228.22 1968.93,1082.95 1970.98,1076.72 1973.03,1457.28 1975.09,590.769 1977.14,1223.99 1979.19,1162.2 1981.24,1165.04 1983.3,1169.07 1985.35,1203.03 1987.4,1182.4 1989.46,1195.4 1991.51,1195.38 1993.56,1188.47 1995.61,1118.33 1997.67,1191.38 1999.72,1137.11 2001.77,1165.44 2003.83,1119.35 2005.88,1249.15 2007.93,1176 2009.98,1173.7 2012.04,1216.79 2014.09,1250.24 2016.14,1205.39 2018.2,1170.82 2020.25,1177.56 2022.3,1011.12 2024.35,1223.62 2026.41,1127.99 2028.46,1181.13 2030.51,1155.53 2032.57,1215.57 2034.62,1192.64 2036.67,1165.28 2038.73,1155.73 2040.78,1148.96 2042.83,1176.79 2044.88,1367.3 2046.94,1231.19 2048.99,1067.07 2051.04,1074.45 2053.1,1093.65 2055.15,1122.67 2057.2,1146.91 2059.25,1116.66 2061.31,1188.83 2063.36,1194.63 2065.41,1254.02 2067.47,1190.51 2069.52,1195.54 2071.57,1170.83 2073.62,1177.76 2075.68,1205.53 2077.73,1343.96 2079.78,1438.7 2081.84,1277.94 2083.89,1146.54 2085.94,1134.45 2087.99,1193.78 2090.05,1181.21 2092.1,1183.99 2094.15,1145.47 2096.21,1175.41 2098.26,1186.26 2100.31,1171.31 2102.36,1187.72 2104.42,1180.29 2106.47,1183.9 2108.52,1188.06 2110.58,1198.49 2112.63,1191.97 2114.68,1111.6 2116.73,1199.85 2118.79,1219.16 2120.84,1251.5 2122.89,1172.69 2124.95,1179.11 2127,1229.56 2129.05,1116.49 2131.11,1116.9 2133.16,2208.72 2135.21,460.188 2137.26,1515.49 2139.32,2041.5 2141.37,633.955 2143.42,169.39 2145.48,1299.6 2147.53,1181.89 2149.58,1197.48 2151.63,1148.95 2153.69,1216.37 2155.74,1209.07 2157.79,1125.24 2159.85,1093.67 2161.9,1249.49 2163.95,1208.58 2166,1192.76 2168.06,1152.51 2170.11,1268.46 2172.16,1225.61 2174.22,1094.23 2176.27,1114.8 2178.32,1042.97 2180.37,1061.47 2182.43,1077.39 2184.48,1200.04 2186.53,1146.03 2188.59,1044.1 2190.64,1180.1 2192.69,1109 2194.74,1200.27 2196.8,1167.97 2198.85,1099.24 2200.9,1192.11 2202.96,1152.72 2205.01,1187.16 2207.06,1198.37 2209.12,1280.68 2211.17,1081.94 2213.22,1182.8 2215.27,1200.58 2217.33,1210.07 2219.38,1251.21 2221.43,1196.89 2223.49,1054.67 2225.54,1145.06 2227.59,1136.02 2229.64,1180.3 2231.7,1179 2233.75,1168.7 2235.8,1129.54 2237.86,1243.01 2239.91,1050.33 2241.96,1252.18 2244.01,1237.9 2246.07,1452.36 2248.12,1015.38 2250.17,1136.62 2252.23,1177.99 2254.28,1167.01 2256.33,1205.46 2258.38,1154.38 2260.44,1117.89 2262.49,1224.93 2264.54,1172.92 2266.6,1096.19 2268.65,1239.96 2270.7,1192.52 2272.75,1000.78 2274.81,1227.1 2276.86,1262.59 2278.91,1185.07 2280.97,1155.09 2283.02,1193.63 2285.07,1163 2287.12,1177.26 2289.18,1048.69 2291.23,1006.67 "/>
<path clip-path="url(#clip530)" d="M1942.7 972.231 L2280.29 972.231 L2280.29 868.551 L1942.7 868.551  Z" fill="#ffffff" fill-rule="evenodd" fill-opacity="1"/>
<polyline clip-path="url(#clip530)" style="stroke:#000000; stroke-linecap:round; stroke-linejoin:round; stroke-width:4; stroke-opacity:1; fill:none" points="1942.7,972.231 2280.29,972.231 2280.29,868.551 1942.7,868.551 1942.7,972.231 "/>
<polyline clip-path="url(#clip530)" style="stroke:#009af9; stroke-linecap:round; stroke-linejoin:round; stroke-width:4; stroke-opacity:1; fill:none" points="1966.85,920.391 2111.78,920.391 "/>
<path clip-path="url(#clip530)" d="M2161.49 932.74 L2161.49 923.458 L2153.85 923.458 L2153.85 919.615 L2166.12 919.615 L2166.12 934.453 Q2163.41 936.375 2160.14 937.37 Q2156.88 938.342 2153.18 938.342 Q2145.07 938.342 2140.49 933.62 Q2135.93 928.875 2135.93 920.426 Q2135.93 911.953 2140.49 907.231 Q2145.07 902.486 2153.18 902.486 Q2156.56 902.486 2159.59 903.319 Q2162.64 904.153 2165.21 905.773 L2165.21 910.75 Q2162.62 908.551 2159.7 907.44 Q2156.79 906.328 2153.57 906.328 Q2147.23 906.328 2144.03 909.87 Q2140.86 913.412 2140.86 920.426 Q2140.86 927.416 2144.03 930.958 Q2147.23 934.5 2153.57 934.5 Q2156.05 934.5 2157.99 934.083 Q2159.94 933.643 2161.49 932.74 Z" fill="#000000" fill-rule="nonzero" fill-opacity="1" /><path clip-path="url(#clip530)" d="M2179.33 906.953 L2179.33 919.94 L2185.21 919.94 Q2188.48 919.94 2190.26 918.25 Q2192.04 916.56 2192.04 913.435 Q2192.04 910.333 2190.26 908.643 Q2188.48 906.953 2185.21 906.953 L2179.33 906.953 M2174.66 903.111 L2185.21 903.111 Q2191.02 903.111 2193.99 905.75 Q2196.97 908.365 2196.97 913.435 Q2196.97 918.551 2193.99 921.166 Q2191.02 923.782 2185.21 923.782 L2179.33 923.782 L2179.33 937.671 L2174.66 937.671 L2174.66 903.111 Z" fill="#000000" fill-rule="nonzero" fill-opacity="1" /><path clip-path="url(#clip530)" d="M2223.96 904.245 L2223.96 908.805 Q2221.3 907.532 2218.94 906.907 Q2216.58 906.282 2214.38 906.282 Q2210.56 906.282 2208.48 907.764 Q2206.42 909.245 2206.42 911.977 Q2206.42 914.268 2207.78 915.449 Q2209.17 916.606 2213.01 917.324 L2215.84 917.902 Q2221.07 918.898 2223.55 921.421 Q2226.05 923.921 2226.05 928.134 Q2226.05 933.157 2222.67 935.75 Q2219.31 938.342 2212.81 938.342 Q2210.35 938.342 2207.57 937.787 Q2204.82 937.231 2201.86 936.143 L2201.86 931.328 Q2204.7 932.926 2207.44 933.736 Q2210.17 934.546 2212.81 934.546 Q2216.81 934.546 2218.99 932.972 Q2221.16 931.398 2221.16 928.481 Q2221.16 925.935 2219.59 924.5 Q2218.04 923.064 2214.47 922.347 L2211.62 921.791 Q2206.39 920.75 2204.06 918.527 Q2201.72 916.305 2201.72 912.347 Q2201.72 907.764 2204.94 905.125 Q2208.18 902.486 2213.85 902.486 Q2216.28 902.486 2218.8 902.926 Q2221.32 903.366 2223.96 904.245 Z" fill="#000000" fill-rule="nonzero" fill-opacity="1" /><path clip-path="url(#clip530)" d="M2254.06 904.245 L2254.06 908.805 Q2251.39 907.532 2249.03 906.907 Q2246.67 906.282 2244.47 906.282 Q2240.65 906.282 2238.57 907.764 Q2236.51 909.245 2236.51 911.977 Q2236.51 914.268 2237.87 915.449 Q2239.26 916.606 2243.11 917.324 L2245.93 917.902 Q2251.16 918.898 2253.64 921.421 Q2256.14 923.921 2256.14 928.134 Q2256.14 933.157 2252.76 935.75 Q2249.4 938.342 2242.9 938.342 Q2240.44 938.342 2237.67 937.787 Q2234.91 937.231 2231.95 936.143 L2231.95 931.328 Q2234.8 932.926 2237.53 933.736 Q2240.26 934.546 2242.9 934.546 Q2246.9 934.546 2249.08 932.972 Q2251.25 931.398 2251.25 928.481 Q2251.25 925.935 2249.68 924.5 Q2248.13 923.064 2244.56 922.347 L2241.72 921.791 Q2236.49 920.75 2234.15 918.527 Q2231.81 916.305 2231.81 912.347 Q2231.81 907.764 2235.03 905.125 Q2238.27 902.486 2243.94 902.486 Q2246.37 902.486 2248.89 902.926 Q2251.42 903.366 2254.06 904.245 Z" fill="#000000" fill-rule="nonzero" fill-opacity="1" /></svg>
