<?xml version="1.0" encoding="utf-8"?>
<svg xmlns="http://www.w3.org/2000/svg" xmlns:xlink="http://www.w3.org/1999/xlink" width="600" height="400" viewBox="0 0 2400 1600">
<defs>
  <clipPath id="clip390">
    <rect x="0" y="0" width="2400" height="1600"/>
  </clipPath>
</defs>
<path clip-path="url(#clip390)" d="M0 1600 L2400 1600 L2400 0 L0 0  Z" fill="#ffffff" fill-rule="evenodd" fill-opacity="1"/>
<defs>
  <clipPath id="clip391">
    <rect x="480" y="0" width="1681" height="1600"/>
  </clipPath>
</defs>
<path clip-path="url(#clip390)" d="M178.867 686.448 L2352.76 686.448 L2352.76 47.2441 L178.867 47.2441  Z" fill="#ffffff" fill-rule="evenodd" fill-opacity="1"/>
<defs>
  <clipPath id="clip392">
    <rect x="178" y="47" width="2175" height="640"/>
  </clipPath>
</defs>
<polyline clip-path="url(#clip392)" style="stroke:#000000; stroke-linecap:round; stroke-linejoin:round; stroke-width:2; stroke-opacity:0.1; fill:none" points="238.339,686.448 238.339,47.2441 "/>
<polyline clip-path="url(#clip392)" style="stroke:#000000; stroke-linecap:round; stroke-linejoin:round; stroke-width:2; stroke-opacity:0.1; fill:none" points="751.562,686.448 751.562,47.2441 "/>
<polyline clip-path="url(#clip392)" style="stroke:#000000; stroke-linecap:round; stroke-linejoin:round; stroke-width:2; stroke-opacity:0.1; fill:none" points="1264.78,686.448 1264.78,47.2441 "/>
<polyline clip-path="url(#clip392)" style="stroke:#000000; stroke-linecap:round; stroke-linejoin:round; stroke-width:2; stroke-opacity:0.1; fill:none" points="1778.01,686.448 1778.01,47.2441 "/>
<polyline clip-path="url(#clip392)" style="stroke:#000000; stroke-linecap:round; stroke-linejoin:round; stroke-width:2; stroke-opacity:0.1; fill:none" points="2291.23,686.448 2291.23,47.2441 "/>
<polyline clip-path="url(#clip392)" style="stroke:#000000; stroke-linecap:round; stroke-linejoin:round; stroke-width:2; stroke-opacity:0.1; fill:none" points="178.867,686.448 2352.76,686.448 "/>
<polyline clip-path="url(#clip392)" style="stroke:#000000; stroke-linecap:round; stroke-linejoin:round; stroke-width:2; stroke-opacity:0.1; fill:none" points="178.867,526.647 2352.76,526.647 "/>
<polyline clip-path="url(#clip392)" style="stroke:#000000; stroke-linecap:round; stroke-linejoin:round; stroke-width:2; stroke-opacity:0.1; fill:none" points="178.867,366.846 2352.76,366.846 "/>
<polyline clip-path="url(#clip392)" style="stroke:#000000; stroke-linecap:round; stroke-linejoin:round; stroke-width:2; stroke-opacity:0.1; fill:none" points="178.867,207.045 2352.76,207.045 "/>
<polyline clip-path="url(#clip392)" style="stroke:#000000; stroke-linecap:round; stroke-linejoin:round; stroke-width:2; stroke-opacity:0.1; fill:none" points="178.867,47.2441 2352.76,47.2441 "/>
<polyline clip-path="url(#clip390)" style="stroke:#000000; stroke-linecap:round; stroke-linejoin:round; stroke-width:4; stroke-opacity:1; fill:none" points="178.867,686.448 2352.76,686.448 "/>
<polyline clip-path="url(#clip390)" style="stroke:#000000; stroke-linecap:round; stroke-linejoin:round; stroke-width:4; stroke-opacity:1; fill:none" points="238.339,686.448 238.339,667.55 "/>
<polyline clip-path="url(#clip390)" style="stroke:#000000; stroke-linecap:round; stroke-linejoin:round; stroke-width:4; stroke-opacity:1; fill:none" points="751.562,686.448 751.562,667.55 "/>
<polyline clip-path="url(#clip390)" style="stroke:#000000; stroke-linecap:round; stroke-linejoin:round; stroke-width:4; stroke-opacity:1; fill:none" points="1264.78,686.448 1264.78,667.55 "/>
<polyline clip-path="url(#clip390)" style="stroke:#000000; stroke-linecap:round; stroke-linejoin:round; stroke-width:4; stroke-opacity:1; fill:none" points="1778.01,686.448 1778.01,667.55 "/>
<polyline clip-path="url(#clip390)" style="stroke:#000000; stroke-linecap:round; stroke-linejoin:round; stroke-width:4; stroke-opacity:1; fill:none" points="2291.23,686.448 2291.23,667.55 "/>
<path clip-path="url(#clip390)" d="M238.339 717.367 Q234.728 717.367 232.899 720.931 Q231.094 724.473 231.094 731.603 Q231.094 738.709 232.899 742.274 Q234.728 745.815 238.339 745.815 Q241.973 745.815 243.779 742.274 Q245.607 738.709 245.607 731.603 Q245.607 724.473 243.779 720.931 Q241.973 717.367 238.339 717.367 M238.339 713.663 Q244.149 713.663 247.205 718.269 Q250.283 722.853 250.283 731.603 Q250.283 740.329 247.205 744.936 Q244.149 749.519 238.339 749.519 Q232.529 749.519 229.45 744.936 Q226.395 740.329 226.395 731.603 Q226.395 722.853 229.45 718.269 Q232.529 713.663 238.339 713.663 Z" fill="#000000" fill-rule="nonzero" fill-opacity="1" /><path clip-path="url(#clip390)" d="M715.254 744.913 L731.574 744.913 L731.574 748.848 L709.629 748.848 L709.629 744.913 Q712.291 742.158 716.875 737.528 Q721.481 732.876 722.662 731.533 Q724.907 729.01 725.787 727.274 Q726.689 725.515 726.689 723.825 Q726.689 721.07 724.745 719.334 Q722.824 717.598 719.722 717.598 Q717.523 717.598 715.069 718.362 Q712.638 719.126 709.861 720.677 L709.861 715.955 Q712.685 714.82 715.138 714.242 Q717.592 713.663 719.629 713.663 Q725 713.663 728.194 716.348 Q731.388 719.033 731.388 723.524 Q731.388 725.654 730.578 727.575 Q729.791 729.473 727.685 732.066 Q727.106 732.737 724.004 735.954 Q720.902 739.149 715.254 744.913 Z" fill="#000000" fill-rule="nonzero" fill-opacity="1" /><path clip-path="url(#clip390)" d="M741.435 714.288 L759.791 714.288 L759.791 718.223 L745.717 718.223 L745.717 726.695 Q746.736 726.348 747.754 726.186 Q748.773 726.001 749.791 726.001 Q755.578 726.001 758.958 729.172 Q762.337 732.343 762.337 737.76 Q762.337 743.339 758.865 746.44 Q755.393 749.519 749.073 749.519 Q746.898 749.519 744.629 749.149 Q742.384 748.778 739.976 748.038 L739.976 743.339 Q742.06 744.473 744.282 745.028 Q746.504 745.584 748.981 745.584 Q752.985 745.584 755.323 743.478 Q757.661 741.371 757.661 737.76 Q757.661 734.149 755.323 732.042 Q752.985 729.936 748.981 729.936 Q747.106 729.936 745.231 730.353 Q743.379 730.769 741.435 731.649 L741.435 714.288 Z" fill="#000000" fill-rule="nonzero" fill-opacity="1" /><path clip-path="url(#clip390)" d="M781.55 717.367 Q777.939 717.367 776.11 720.931 Q774.305 724.473 774.305 731.603 Q774.305 738.709 776.11 742.274 Q777.939 745.815 781.55 745.815 Q785.184 745.815 786.99 742.274 Q788.819 738.709 788.819 731.603 Q788.819 724.473 786.99 720.931 Q785.184 717.367 781.55 717.367 M781.55 713.663 Q787.36 713.663 790.416 718.269 Q793.495 722.853 793.495 731.603 Q793.495 740.329 790.416 744.936 Q787.36 749.519 781.55 749.519 Q775.74 749.519 772.661 744.936 Q769.606 740.329 769.606 731.603 Q769.606 722.853 772.661 718.269 Q775.74 713.663 781.55 713.663 Z" fill="#000000" fill-rule="nonzero" fill-opacity="1" /><path clip-path="url(#clip390)" d="M1224.4 714.288 L1242.76 714.288 L1242.76 718.223 L1228.69 718.223 L1228.69 726.695 Q1229.7 726.348 1230.72 726.186 Q1231.74 726.001 1232.76 726.001 Q1238.55 726.001 1241.93 729.172 Q1245.31 732.343 1245.31 737.76 Q1245.31 743.339 1241.83 746.44 Q1238.36 749.519 1232.04 749.519 Q1229.87 749.519 1227.6 749.149 Q1225.35 748.778 1222.94 748.038 L1222.94 743.339 Q1225.03 744.473 1227.25 745.028 Q1229.47 745.584 1231.95 745.584 Q1235.95 745.584 1238.29 743.478 Q1240.63 741.371 1240.63 737.76 Q1240.63 734.149 1238.29 732.042 Q1235.95 729.936 1231.95 729.936 Q1230.07 729.936 1228.2 730.353 Q1226.35 730.769 1224.4 731.649 L1224.4 714.288 Z" fill="#000000" fill-rule="nonzero" fill-opacity="1" /><path clip-path="url(#clip390)" d="M1264.52 717.367 Q1260.91 717.367 1259.08 720.931 Q1257.27 724.473 1257.27 731.603 Q1257.27 738.709 1259.08 742.274 Q1260.91 745.815 1264.52 745.815 Q1268.15 745.815 1269.96 742.274 Q1271.79 738.709 1271.79 731.603 Q1271.79 724.473 1269.96 720.931 Q1268.15 717.367 1264.52 717.367 M1264.52 713.663 Q1270.33 713.663 1273.38 718.269 Q1276.46 722.853 1276.46 731.603 Q1276.46 740.329 1273.38 744.936 Q1270.33 749.519 1264.52 749.519 Q1258.71 749.519 1255.63 744.936 Q1252.57 740.329 1252.57 731.603 Q1252.57 722.853 1255.63 718.269 Q1258.71 713.663 1264.52 713.663 Z" fill="#000000" fill-rule="nonzero" fill-opacity="1" /><path clip-path="url(#clip390)" d="M1294.68 717.367 Q1291.07 717.367 1289.24 720.931 Q1287.44 724.473 1287.44 731.603 Q1287.44 738.709 1289.24 742.274 Q1291.07 745.815 1294.68 745.815 Q1298.31 745.815 1300.12 742.274 Q1301.95 738.709 1301.95 731.603 Q1301.95 724.473 1300.12 720.931 Q1298.31 717.367 1294.68 717.367 M1294.68 713.663 Q1300.49 713.663 1303.55 718.269 Q1306.62 722.853 1306.62 731.603 Q1306.62 740.329 1303.55 744.936 Q1300.49 749.519 1294.68 749.519 Q1288.87 749.519 1285.79 744.936 Q1282.74 740.329 1282.74 731.603 Q1282.74 722.853 1285.79 718.269 Q1288.87 713.663 1294.68 713.663 Z" fill="#000000" fill-rule="nonzero" fill-opacity="1" /><path clip-path="url(#clip390)" d="M1736.28 714.288 L1758.51 714.288 L1758.51 716.279 L1745.96 748.848 L1741.08 748.848 L1752.88 718.223 L1736.28 718.223 L1736.28 714.288 Z" fill="#000000" fill-rule="nonzero" fill-opacity="1" /><path clip-path="url(#clip390)" d="M1767.67 714.288 L1786.03 714.288 L1786.03 718.223 L1771.95 718.223 L1771.95 726.695 Q1772.97 726.348 1773.99 726.186 Q1775.01 726.001 1776.03 726.001 Q1781.82 726.001 1785.2 729.172 Q1788.57 732.343 1788.57 737.76 Q1788.57 743.339 1785.1 746.44 Q1781.63 749.519 1775.31 749.519 Q1773.14 749.519 1770.87 749.149 Q1768.62 748.778 1766.21 748.038 L1766.21 743.339 Q1768.3 744.473 1770.52 745.028 Q1772.74 745.584 1775.22 745.584 Q1779.22 745.584 1781.56 743.478 Q1783.9 741.371 1783.9 737.76 Q1783.9 734.149 1781.56 732.042 Q1779.22 729.936 1775.22 729.936 Q1773.34 729.936 1771.47 730.353 Q1769.62 730.769 1767.67 731.649 L1767.67 714.288 Z" fill="#000000" fill-rule="nonzero" fill-opacity="1" /><path clip-path="url(#clip390)" d="M1807.79 717.367 Q1804.18 717.367 1802.35 720.931 Q1800.54 724.473 1800.54 731.603 Q1800.54 738.709 1802.35 742.274 Q1804.18 745.815 1807.79 745.815 Q1811.42 745.815 1813.23 742.274 Q1815.06 738.709 1815.06 731.603 Q1815.06 724.473 1813.23 720.931 Q1811.42 717.367 1807.79 717.367 M1807.79 713.663 Q1813.6 713.663 1816.65 718.269 Q1819.73 722.853 1819.73 731.603 Q1819.73 740.329 1816.65 744.936 Q1813.6 749.519 1807.79 749.519 Q1801.98 749.519 1798.9 744.936 Q1795.84 740.329 1795.84 731.603 Q1795.84 722.853 1798.9 718.269 Q1801.98 713.663 1807.79 713.663 Z" fill="#000000" fill-rule="nonzero" fill-opacity="1" /><path clip-path="url(#clip390)" d="M2235.76 744.913 L2243.4 744.913 L2243.4 718.547 L2235.09 720.214 L2235.09 715.955 L2243.35 714.288 L2248.02 714.288 L2248.02 744.913 L2255.66 744.913 L2255.66 748.848 L2235.76 748.848 L2235.76 744.913 Z" fill="#000000" fill-rule="nonzero" fill-opacity="1" /><path clip-path="url(#clip390)" d="M2275.11 717.367 Q2271.5 717.367 2269.67 720.931 Q2267.86 724.473 2267.86 731.603 Q2267.86 738.709 2269.67 742.274 Q2271.5 745.815 2275.11 745.815 Q2278.74 745.815 2280.55 742.274 Q2282.38 738.709 2282.38 731.603 Q2282.38 724.473 2280.55 720.931 Q2278.74 717.367 2275.11 717.367 M2275.11 713.663 Q2280.92 713.663 2283.97 718.269 Q2287.05 722.853 2287.05 731.603 Q2287.05 740.329 2283.97 744.936 Q2280.92 749.519 2275.11 749.519 Q2269.3 749.519 2266.22 744.936 Q2263.16 740.329 2263.16 731.603 Q2263.16 722.853 2266.22 718.269 Q2269.3 713.663 2275.11 713.663 Z" fill="#000000" fill-rule="nonzero" fill-opacity="1" /><path clip-path="url(#clip390)" d="M2305.27 717.367 Q2301.66 717.367 2299.83 720.931 Q2298.02 724.473 2298.02 731.603 Q2298.02 738.709 2299.83 742.274 Q2301.66 745.815 2305.27 745.815 Q2308.9 745.815 2310.71 742.274 Q2312.54 738.709 2312.54 731.603 Q2312.54 724.473 2310.71 720.931 Q2308.9 717.367 2305.27 717.367 M2305.27 713.663 Q2311.08 713.663 2314.14 718.269 Q2317.21 722.853 2317.21 731.603 Q2317.21 740.329 2314.14 744.936 Q2311.08 749.519 2305.27 749.519 Q2299.46 749.519 2296.38 744.936 Q2293.33 740.329 2293.33 731.603 Q2293.33 722.853 2296.38 718.269 Q2299.46 713.663 2305.27 713.663 Z" fill="#000000" fill-rule="nonzero" fill-opacity="1" /><path clip-path="url(#clip390)" d="M2335.43 717.367 Q2331.82 717.367 2329.99 720.931 Q2328.19 724.473 2328.19 731.603 Q2328.19 738.709 2329.99 742.274 Q2331.82 745.815 2335.43 745.815 Q2339.07 745.815 2340.87 742.274 Q2342.7 738.709 2342.7 731.603 Q2342.7 724.473 2340.87 720.931 Q2339.07 717.367 2335.43 717.367 M2335.43 713.663 Q2341.24 713.663 2344.3 718.269 Q2347.38 722.853 2347.38 731.603 Q2347.38 740.329 2344.3 744.936 Q2341.24 749.519 2335.43 749.519 Q2329.62 749.519 2326.54 744.936 Q2323.49 740.329 2323.49 731.603 Q2323.49 722.853 2326.54 718.269 Q2329.62 713.663 2335.43 713.663 Z" fill="#000000" fill-rule="nonzero" fill-opacity="1" /><polyline clip-path="url(#clip390)" style="stroke:#000000; stroke-linecap:round; stroke-linejoin:round; stroke-width:4; stroke-opacity:1; fill:none" points="178.867,686.448 178.867,47.2441 "/>
<polyline clip-path="url(#clip390)" style="stroke:#000000; stroke-linecap:round; stroke-linejoin:round; stroke-width:4; stroke-opacity:1; fill:none" points="178.867,686.448 197.764,686.448 "/>
<polyline clip-path="url(#clip390)" style="stroke:#000000; stroke-linecap:round; stroke-linejoin:round; stroke-width:4; stroke-opacity:1; fill:none" points="178.867,526.647 197.764,526.647 "/>
<polyline clip-path="url(#clip390)" style="stroke:#000000; stroke-linecap:round; stroke-linejoin:round; stroke-width:4; stroke-opacity:1; fill:none" points="178.867,366.846 197.764,366.846 "/>
<polyline clip-path="url(#clip390)" style="stroke:#000000; stroke-linecap:round; stroke-linejoin:round; stroke-width:4; stroke-opacity:1; fill:none" points="178.867,207.045 197.764,207.045 "/>
<polyline clip-path="url(#clip390)" style="stroke:#000000; stroke-linecap:round; stroke-linejoin:round; stroke-width:4; stroke-opacity:1; fill:none" points="178.867,47.2441 197.764,47.2441 "/>
<path clip-path="url(#clip390)" d="M50.9921 686.899 L80.6679 686.899 L80.6679 690.834 L50.9921 690.834 L50.9921 686.899 Z" fill="#000000" fill-rule="nonzero" fill-opacity="1" /><path clip-path="url(#clip390)" d="M91.5706 699.793 L99.2095 699.793 L99.2095 673.427 L90.8993 675.094 L90.8993 670.835 L99.1632 669.168 L103.839 669.168 L103.839 699.793 L111.478 699.793 L111.478 703.728 L91.5706 703.728 L91.5706 699.793 Z" fill="#000000" fill-rule="nonzero" fill-opacity="1" /><path clip-path="url(#clip390)" d="M130.922 672.247 Q127.311 672.247 125.482 675.811 Q123.677 679.353 123.677 686.483 Q123.677 693.589 125.482 697.154 Q127.311 700.695 130.922 700.695 Q134.556 700.695 136.362 697.154 Q138.191 693.589 138.191 686.483 Q138.191 679.353 136.362 675.811 Q134.556 672.247 130.922 672.247 M130.922 668.543 Q136.732 668.543 139.788 673.149 Q142.867 677.733 142.867 686.483 Q142.867 695.209 139.788 699.816 Q136.732 704.399 130.922 704.399 Q125.112 704.399 122.033 699.816 Q118.978 695.209 118.978 686.483 Q118.978 677.733 122.033 673.149 Q125.112 668.543 130.922 668.543 Z" fill="#000000" fill-rule="nonzero" fill-opacity="1" /><path clip-path="url(#clip390)" d="M82.1494 527.098 L111.825 527.098 L111.825 531.033 L82.1494 531.033 L82.1494 527.098 Z" fill="#000000" fill-rule="nonzero" fill-opacity="1" /><path clip-path="url(#clip390)" d="M121.964 509.367 L140.32 509.367 L140.32 513.302 L126.246 513.302 L126.246 521.774 Q127.265 521.427 128.283 521.265 Q129.302 521.08 130.32 521.08 Q136.107 521.08 139.487 524.251 Q142.867 527.422 142.867 532.839 Q142.867 538.418 139.394 541.52 Q135.922 544.598 129.603 544.598 Q127.427 544.598 125.158 544.228 Q122.913 543.857 120.506 543.117 L120.506 538.418 Q122.589 539.552 124.811 540.108 Q127.033 540.663 129.51 540.663 Q133.515 540.663 135.853 538.557 Q138.191 536.45 138.191 532.839 Q138.191 529.228 135.853 527.121 Q133.515 525.015 129.51 525.015 Q127.635 525.015 125.76 525.432 Q123.908 525.848 121.964 526.728 L121.964 509.367 Z" fill="#000000" fill-rule="nonzero" fill-opacity="1" /><path clip-path="url(#clip390)" d="M130.922 352.645 Q127.311 352.645 125.482 356.209 Q123.677 359.751 123.677 366.881 Q123.677 373.987 125.482 377.552 Q127.311 381.094 130.922 381.094 Q134.556 381.094 136.362 377.552 Q138.191 373.987 138.191 366.881 Q138.191 359.751 136.362 356.209 Q134.556 352.645 130.922 352.645 M130.922 348.941 Q136.732 348.941 139.788 353.547 Q142.867 358.131 142.867 366.881 Q142.867 375.608 139.788 380.214 Q136.732 384.797 130.922 384.797 Q125.112 384.797 122.033 380.214 Q118.978 375.608 118.978 366.881 Q118.978 358.131 122.033 353.547 Q125.112 348.941 130.922 348.941 Z" fill="#000000" fill-rule="nonzero" fill-opacity="1" /><path clip-path="url(#clip390)" d="M121.964 189.765 L140.32 189.765 L140.32 193.7 L126.246 193.7 L126.246 202.172 Q127.265 201.825 128.283 201.663 Q129.302 201.478 130.32 201.478 Q136.107 201.478 139.487 204.649 Q142.867 207.82 142.867 213.237 Q142.867 218.816 139.394 221.918 Q135.922 224.996 129.603 224.996 Q127.427 224.996 125.158 224.626 Q122.913 224.256 120.506 223.515 L120.506 218.816 Q122.589 219.95 124.811 220.506 Q127.033 221.061 129.51 221.061 Q133.515 221.061 135.853 218.955 Q138.191 216.848 138.191 213.237 Q138.191 209.626 135.853 207.52 Q133.515 205.413 129.51 205.413 Q127.635 205.413 125.76 205.83 Q123.908 206.246 121.964 207.126 L121.964 189.765 Z" fill="#000000" fill-rule="nonzero" fill-opacity="1" /><path clip-path="url(#clip390)" d="M91.5706 60.5889 L99.2095 60.5889 L99.2095 34.2233 L90.8993 35.89 L90.8993 31.6308 L99.1632 29.9641 L103.839 29.9641 L103.839 60.5889 L111.478 60.5889 L111.478 64.5241 L91.5706 64.5241 L91.5706 60.5889 Z" fill="#000000" fill-rule="nonzero" fill-opacity="1" /><path clip-path="url(#clip390)" d="M130.922 33.0428 Q127.311 33.0428 125.482 36.6076 Q123.677 40.1492 123.677 47.2788 Q123.677 54.3853 125.482 57.9501 Q127.311 61.4917 130.922 61.4917 Q134.556 61.4917 136.362 57.9501 Q138.191 54.3853 138.191 47.2788 Q138.191 40.1492 136.362 36.6076 Q134.556 33.0428 130.922 33.0428 M130.922 29.3391 Q136.732 29.3391 139.788 33.9456 Q142.867 38.5289 142.867 47.2788 Q142.867 56.0056 139.788 60.6121 Q136.732 65.1954 130.922 65.1954 Q125.112 65.1954 122.033 60.6121 Q118.978 56.0056 118.978 47.2788 Q118.978 38.5289 122.033 33.9456 Q125.112 29.3391 130.922 29.3391 Z" fill="#000000" fill-rule="nonzero" fill-opacity="1" /><polyline clip-path="url(#clip392)" style="stroke:#009af9; stroke-linecap:round; stroke-linejoin:round; stroke-width:4; stroke-opacity:1; fill:none" points="240.392,334.886 242.445,340.78 244.498,338.96 246.55,337.576 248.603,376.667 250.656,379.668 252.709,379.588 254.762,379.257 256.815,386.513 258.868,391.587 260.921,391.229 262.974,410.654 265.027,411.54 267.079,411.54 269.132,411.078 271.185,322.72 273.238,319.312 275.291,368.941 277.344,234.806 279.397,233.981 281.45,234.861 283.503,232.406 285.555,209.917 287.608,212.958 289.661,212.577 291.714,318.515 293.767,314.811 295.82,313.419 297.873,303.966 299.926,242.004 301.979,264.307 304.031,301.941 306.084,303.779 308.137,342.089 310.19,391.132 312.243,391.597 314.296,366.587 316.349,368.073 318.402,367.774 320.455,392.801 322.507,395.264 324.56,394.969 326.613,443.031 328.666,443.759 330.719,442.561 332.772,384.45 334.825,362.125 336.878,397.951 338.931,401.252 340.984,400.918 343.036,385.217 345.089,387.617 347.142,385.082 349.195,377.363 351.248,390.447 353.301,392.735 355.354,364.415 357.407,339.404 359.46,352.313 361.512,353.392 363.565,349.211 365.618,349.965 367.671,350.378 369.724,346.277 371.777,346.716 373.83,346.104 375.883,341.923 377.936,342.079 379.988,352.276 382.041,366.64 384.094,362.068 386.147,376.636 388.2,377.507 390.253,371.716 392.306,357.328 394.359,359.757 396.412,359.675 398.464,360.06 400.517,381.355 402.57,374.887 404.623,375.365 406.676,347.246 408.729,372.664 410.782,375.386 412.835,381.947 414.888,380.305 416.94,382.135 418.993,388.388 421.046,389.569 423.099,390.497 425.152,390.398 427.205,390.027 429.258,390.047 431.311,385.22 433.364,384.691 435.417,339.681 437.469,348.502 439.522,374.173 441.575,369.539 443.628,368.075 445.681,381.423 447.734,336.87 449.787,345.417 451.84,344.758 453.893,344.945 455.945,363.473 457.998,362.666 460.051,374.573 462.104,374.908 464.157,373.22 466.21,378.156 468.263,378.379 470.316,377.83 472.369,377.79 474.421,378.252 476.474,378.594 478.527,380.099 480.58,329.282 482.633,324.753 484.686,337.453 486.739,337.423 488.792,336.838 490.845,321.062 492.897,321.167 494.95,381.22 497.003,378.51 499.056,355.815 501.109,355.894 503.162,355.803 505.215,355.104 507.268,353.519 509.321,353.63 511.374,383.058 513.426,383.754 515.479,383.341 517.532,380.474 519.585,381.681 521.638,396.58 523.691,400.381 525.744,403.163 527.797,385.8 529.85,385.787 531.902,385.771 533.955,369.586 536.008,368.673 538.061,339.956 540.114,334.507 542.167,323.731 544.22,323.728 546.273,353.456 548.326,352.419 550.378,353.07 552.431,354.771 554.484,358.904 556.537,358.995 558.59,358.078 560.643,362.095 562.696,362.058 564.749,362.542 566.802,363.348 568.854,361.562 570.907,360.76 572.96,359.847 575.013,360.201 577.066,357.96 579.119,357.787 581.172,336.844 583.225,336.623 585.278,336.531 587.331,336.796 589.383,340.343 591.436,340.436 593.489,340.45 595.542,340.476 597.595,340.976 599.648,341.509 601.701,342.006 603.754,341.445 605.807,353.095 607.859,352.842 609.912,344.856 611.965,346.329 614.018,346.331 616.071,405.346 618.124,367.665 620.177,367.966 622.23,395.806 624.283,398.851 626.335,381.748 628.388,404.034 630.441,413.891 632.494,407.413 634.547,429.184 636.6,422.242 638.653,419.208 640.706,419.211 642.759,366.678 644.811,368.159 646.864,368.212 648.917,364.828 650.97,409.391 653.023,374.665 655.076,375.449 657.129,398.048 659.182,392.17 661.235,410.081 663.288,412.447 665.34,404.43 667.393,403.142 669.446,389.17 671.499,389.115 673.552,396.209 675.605,405.332 677.658,374.704 679.711,389.088 681.764,378.848 683.816,345.456 685.869,324.9 687.922,503.331 689.975,513.834 692.028,513.852 694.081,502.53 696.134,499.401 698.187,500.095 700.24,483.911 702.292,485.362 704.345,484.723 706.398,484.411 708.451,486.287 710.504,436.352 712.557,436.825 714.61,328.322 716.663,374.311 718.716,374.333 720.768,352.651 722.821,349.816 724.874,366.328 726.927,366.163 728.98,368.275 731.033,383.064 733.086,365.676 735.139,365.51 737.192,365.485 739.245,365.484 741.297,365.435 743.35,374.763 745.403,387.775 747.456,368.379 749.509,366.527 751.562,365.778 753.615,369.405 755.668,402.022 757.721,407.739 759.773,397.507 761.826,420.733 763.879,395.787 765.932,391.267 767.985,387.449 770.038,372.206 772.091,347.723 774.144,403.115 776.197,382.29 778.249,395.835 780.302,395.923 782.355,372.609 784.408,370.14 786.461,364.064 788.514,379.593 790.567,377.079 792.62,385.734 794.673,386.22 796.725,385.836 798.778,396.478 800.831,387.038 802.884,358.233 804.937,377.944 806.99,419.294 809.043,432.011 811.096,439.165 813.149,438.56 815.202,363.33 817.254,364.801 819.307,365.752 821.36,336.366 823.413,346.912 825.466,338.833 827.519,338.607 829.572,335.66 831.625,342.17 833.678,355.513 835.73,348.439 837.783,362.311 839.836,254.539 841.889,392.452 843.942,372.728 845.995,367.417 848.048,362.596 850.101,362.039 852.154,347.064 854.206,303.944 856.259,313.586 858.312,337.102 860.365,329.871 862.418,330.659 864.471,267.635 866.524,266.835 868.577,276.943 870.63,299.524 872.682,318.13 874.735,318.16 876.788,307.953 878.841,297.609 880.894,309.684 882.947,314.11 885,357.565 887.053,359.361 889.106,344.978 891.159,478.566 893.211,430.38 895.264,438.553 897.317,439.009 899.37,401.114 901.423,417.838 903.476,419.332 905.529,371.209 907.582,352.593 909.635,352.687 911.687,351.725 913.74,331.63 915.793,337.146 917.846,309.521 919.899,328.252 921.952,318.462 924.005,294.074 926.058,260.411 928.111,304.28 930.163,307.246 932.216,356.219 934.269,239.045 936.322,55.9661 938.375,50.4803 940.428,300.697 942.481,268.776 944.534,247.002 946.587,254.619 948.639,257.67 950.692,323.885 952.745,364.91 954.798,375.755 956.851,456.788 958.904,450.17 960.957,440.077 963.01,410.734 965.063,323.709 967.116,338.2 969.168,321.834 971.221,320.726 973.274,317.492 975.327,299.123 977.38,315.468 979.433,320.321 981.486,318.438 983.539,319.628 985.592,378.199 987.644,385.277 989.697,388.022 991.75,387.956 993.803,381.775 995.856,366.077 997.909,392.832 999.962,413.983 1002.01,368.644 1004.07,345.389 1006.12,345.583 1008.17,451.257 1010.23,458.086 1012.28,343.775 1014.33,346.872 1016.38,357.504 1018.44,313.469 1020.49,312.601 1022.54,317.114 1024.6,299.369 1026.65,312.577 1028.7,310.392 1030.76,340.171 1032.81,340.947 1034.86,342.129 1036.91,373.278 1038.97,383.102 1041.02,363.688 1043.07,363.428 1045.13,358.32 1047.18,351.409 1049.23,311.594 1051.28,313.524 1053.34,286.676 1055.39,271.258 1057.44,455.706 1059.5,456.031 1061.55,469.647 1063.6,549.499 1065.65,525.059 1067.71,512.308 1069.76,530.79 1071.81,542.488 1073.87,534.25 1075.92,519.314 1077.97,501.784 1080.02,440.039 1082.08,424.092 1084.13,500.972 1086.18,467.356 1088.24,459.73 1090.29,360.719 1092.34,315.579 1094.39,311.588 1096.45,318.26 1098.5,400.04 1100.55,381.166 1102.61,391.604 1104.66,407.706 1106.71,330.069 1108.77,329.737 1110.82,326.325 1112.87,318.249 1114.92,309.483 1116.98,310.749 1119.03,318.294 1121.08,385.145 1123.14,284.649 1125.19,332.874 1127.24,333.722 1129.29,295.857 1131.35,308.805 1133.4,309.103 1135.45,299.274 1137.51,306.619 1139.56,360.196 1141.61,369.924 1143.66,305.671 1145.72,463.406 1147.77,417.054 1149.82,373.783 1151.88,370.734 1153.93,377.446 1155.98,396.591 1158.03,409.677 1160.09,408.216 1162.14,393.64 1164.19,391.773 1166.25,386.299 1168.3,376.155 1170.35,374.51 1172.4,369.097 1174.46,367.035 1176.51,380.01 1178.56,392.198 1180.62,367.304 1182.67,375.321 1184.72,312.257 1186.77,312.037 1188.83,327.319 1190.88,332.614 1192.93,332.746 1194.99,360.777 1197.04,339.659 1199.09,335.841 1201.15,384.166 1203.2,380.496 1205.25,308.28 1207.3,255.229 1209.36,258.485 1211.41,268.308 1213.46,279.952 1215.52,67.1518 1217.57,88.6283 1219.62,186.932 1221.67,208.362 1223.73,164.558 1225.78,171.453 1227.83,167.957 1229.89,166.226 1231.94,134.222 1233.99,125.425 1236.04,133.45 1238.1,216.276 1240.15,216.781 1242.2,207.389 1244.26,241.185 1246.31,240.776 1248.36,296.283 1250.41,298.133 1252.47,299.413 1254.52,291.651 1256.57,290.808 1258.63,280.832 1260.68,270.196 1262.73,385.755 1264.78,384.359 1266.84,384.326 1268.89,371.825 1270.94,387.233 1273,382.779 1275.05,381.114 1277.1,380.818 1279.16,381.423 1281.21,381.709 1283.26,252.61 1285.31,269.849 1287.37,272.015 1289.42,293.688 1291.47,246.319 1293.53,239.144 1295.58,365.117 1297.63,351.302 1299.68,355.644 1301.74,420.842 1303.79,428.682 1305.84,428.356 1307.9,325.262 1309.95,306.95 1312,300.923 1314.05,297.622 1316.11,297.105 1318.16,328.222 1320.21,324.058 1322.27,324.465 1324.32,311.591 1326.37,318.725 1328.42,319.868 1330.48,320.045 1332.53,319.424 1334.58,388.505 1336.64,382.335 1338.69,395.193 1340.74,339.611 1342.79,336.203 1344.85,359.428 1346.9,363.139 1348.95,384.831 1351.01,384.34 1353.06,391.208 1355.11,398.57 1357.16,409.623 1359.22,407.687 1361.27,408.139 1363.32,408.337 1365.38,442.713 1367.43,464.309 1369.48,464.195 1371.54,407.262 1373.59,409.367 1375.64,404.826 1377.69,404.687 1379.75,404.713 1381.8,403.507 1383.85,400.747 1385.91,397.885 1387.96,392.324 1390.01,382.892 1392.06,389.587 1394.12,407.445 1396.17,408.273 1398.22,409.806 1400.28,407.144 1402.33,406.702 1404.38,422.475 1406.43,419.062 1408.49,419.066 1410.54,409.374 1412.59,408.134 1414.65,407.752 1416.7,385.315 1418.75,391.819 1420.8,409.583 1422.86,383.876 1424.91,370.834 1426.96,377.063 1429.02,327.083 1431.07,391.882 1433.12,381.64 1435.17,381.323 1437.23,395.531 1439.28,394.746 1441.33,389.542 1443.39,352.035 1445.44,346.714 1447.49,350.272 1449.55,353.625 1451.6,353.719 1453.65,361.256 1455.7,387.234 1457.76,384.848 1459.81,390.079 1461.86,390.367 1463.92,388.549 1465.97,389.093 1468.02,389.982 1470.07,405.728 1472.13,406.061 1474.18,405.611 1476.23,405.627 1478.29,394.691 1480.34,346.812 1482.39,329.461 1484.44,377 1486.5,375 1488.55,297.621 1490.6,293.963 1492.66,311.957 1494.71,314.522 1496.76,303.807 1498.81,293.368 1500.87,297.704 1502.92,248.495 1504.97,250.355 1507.03,263.653 1509.08,266.185 1511.13,268.016 1513.18,268.19 1515.24,263.769 1517.29,279.888 1519.34,281.007 1521.4,279.615 1523.45,313.805 1525.5,307.414 1527.55,307.44 1529.61,388.561 1531.66,388.566 1533.71,380.27 1535.77,379.97 1537.82,396.134 1539.87,393.737 1541.93,393.679 1543.98,393.708 1546.03,393.792 1548.08,375.846 1550.14,374.937 1552.19,377.063 1554.24,376.229 1556.3,363.318 1558.35,357.862 1560.4,357.798 1562.45,369.066 1564.51,369.709 1566.56,371.173 1568.61,371.176 1570.67,392.974 1572.72,393.409 1574.77,393.435 1576.82,386.867 1578.88,370.969 1580.93,374.901 1582.98,375.498 1585.04,375.56 1587.09,377.455 1589.14,377.494 1591.19,380.002 1593.25,359.348 1595.3,372.692 1597.35,371.803 1599.41,371.104 1601.46,379.919 1603.51,379.251 1605.56,382.061 1607.62,382.087 1609.67,396.641 1611.72,346.821 1613.78,353.551 1615.83,351.869 1617.88,374.957 1619.94,373.105 1621.99,370.848 1624.04,364.316 1626.09,356.848 1628.15,356.867 1630.2,356.967 1632.25,361.329 1634.31,367.691 1636.36,367.66 1638.41,376.65 1640.46,376.942 1642.52,377.221 1644.57,377.791 1646.62,379.702 1648.68,380.088 1650.73,369.326 1652.78,362.592 1654.83,362.59 1656.89,364.207 1658.94,364.211 1660.99,358.998 1663.05,359.861 1665.1,359.71 1667.15,360.526 1669.2,359.562 1671.26,374.287 1673.31,371.613 1675.36,366.908 1677.42,361.431 1679.47,372.177 1681.52,372.074 1683.57,369.722 1685.63,369.313 1687.68,371.791 1689.73,371.967 1691.79,370.33 1693.84,371.125 1695.89,371.427 1697.94,371.404 1700,367.987 1702.05,363.646 1704.1,359.829 1706.16,358.041 1708.21,357.902 1710.26,355.015 1712.32,355.15 1714.37,365.664 1716.42,366.236 1718.47,363.894 1720.53,364.281 1722.58,362.021 1724.63,355.343 1726.69,354.971 1728.74,355.244 1730.79,354.347 1732.84,367.634 1734.9,367.655 1736.95,367.707 1739,367.824 1741.06,368.231 1743.11,368.377 1745.16,369.913 1747.21,374.175 1749.27,365.559 1751.32,373.397 1753.37,374.722 1755.43,376.778 1757.48,377.066 1759.53,376.271 1761.58,387.35 1763.64,412.967 1765.69,412.845 1767.74,396.341 1769.8,384.503 1771.85,384.822 1773.9,384.687 1775.95,382.763 1778.01,388.042 1780.06,387.809 1782.11,389.366 1784.17,390.12 1786.22,390.395 1788.27,388.896 1790.33,388.916 1792.38,392.33 1794.43,391.618 1796.48,382.772 1798.54,383.283 1800.59,384.117 1802.64,381.117 1804.7,380.83 1806.75,382.703 1808.8,382.984 1810.85,382.89 1812.91,395.529 1814.96,392.662 1817.01,387.613 1819.07,410.816 1821.12,411.192 1823.17,411.372 1825.22,403.397 1827.28,337.458 1829.33,337.12 1831.38,362.637 1833.44,363.721 1835.49,360.417 1837.54,369.79 1839.59,393.395 1841.65,406.18 1843.7,406.143 1845.75,406.124 1847.81,395.196 1849.86,392.731 1851.91,396.341 1853.96,389.058 1856.02,352.464 1858.07,354.63 1860.12,339.653 1862.18,339.484 1864.23,340.674 1866.28,347.962 1868.34,348.719 1870.39,351.263 1872.44,362.133 1874.49,368.795 1876.55,350.003 1878.6,350.571 1880.65,354.737 1882.71,354.601 1884.76,353.521 1886.81,350.801 1888.86,351.231 1890.92,352.47 1892.97,350.377 1895.02,349.958 1897.08,349.53 1899.13,368.077 1901.18,368.541 1903.23,377.777 1905.29,379.381 1907.34,377.826 1909.39,378.006 1911.45,344.003 1913.5,345.823 1915.55,348.959 1917.6,362.352 1919.66,362.585 1921.71,368.435 1923.76,368.161 1925.82,367.756 1927.87,366.333 1929.92,366.413 1931.97,363.404 1934.03,362.955 1936.08,367.457 1938.13,362.72 1940.19,359.419 1942.24,367.783 1944.29,368.126 1946.34,365.592 1948.4,365.474 1950.45,363.595 1952.5,365.583 1954.56,365.856 1956.61,366.886 1958.66,365.682 1960.72,365.458 1962.77,365.596 1964.82,363.935 1966.87,364.72 1968.93,364.672 1970.98,361.593 1973.03,376.51 1975.09,376.323 1977.14,378.796 1979.19,379.177 1981.24,379.89 1983.3,399.656 1985.35,392.666 1987.4,386.751 1989.46,387.021 1991.51,390.67 1993.56,390.517 1995.61,390.948 1997.67,395.84 1999.72,370.603 2001.77,370.658 2003.83,367.233 2005.88,367.616 2007.93,371.11 2009.98,384.292 2012.04,383.949 2014.09,361.13 2016.14,361.048 2018.2,353.745 2020.25,346.139 2022.3,375.419 2024.35,429.853 2026.41,428.936 2028.46,439.957 2030.51,427.931 2032.57,433.789 2034.62,440.897 2036.67,441.309 2038.73,441.382 2040.78,440.777 2042.83,440.493 2044.88,338.571 2046.94,361.183 2048.99,360.418 2051.04,352.316 2053.1,361.125 2055.15,358.307 2057.2,359.303 2059.25,359.627 2061.31,359.23 2063.36,377.747 2065.41,354.151 2067.47,353.215 2069.52,352.749 2071.57,349.073 2073.62,354.33 2075.68,354.178 2077.73,351.099 2079.78,323.852 2081.84,323.798 2083.89,321.293 2085.94,337.966 2087.99,328.888 2090.05,328.846 2092.1,329.443 2094.15,358.242 2096.21,364.822 2098.26,370.826 2100.31,377.144 2102.36,378.318 2104.42,378.436 2106.47,381.832 2108.52,391.416 2110.58,391.248 2112.63,391.109 2114.68,391.705 2116.73,387.773 2118.79,390.247 2120.84,373.121 2122.89,372.331 2124.95,374.64 2127,372.607 2129.05,381.738 2131.11,375.489 2133.16,348.907 2135.21,352.846 2137.26,355.285 2139.32,355.298 2141.37,336.953 2143.42,336.892 2145.48,336.615 2147.53,334.865 2149.58,334.778 2151.63,395.902 2153.69,410.116 2155.74,398.319 2157.79,387.489 2159.85,387.532 2161.9,385.084 2163.95,389.495 2166,392.643 2168.06,393.299 2170.11,392.389 2172.16,392.413 2174.22,348.618 2176.27,348.74 2178.32,349.475 2180.37,349.617 2182.43,350.197 2184.48,354.069 2186.53,353.929 2188.59,355.345 2190.64,356.963 2192.69,356.954 2194.74,357.811 2196.8,388.393 2198.85,386.877 2200.9,386.901 2202.96,391.192 2205.01,392.663 2207.06,394.37 2209.12,390.92 2211.17,393.114 2213.22,393.209 2215.27,375.988 2217.33,378.092 2219.38,375.521 2221.43,375.715 2223.49,381.828 2225.54,333.836 2227.59,329.97 2229.64,327.919 2231.7,334.607 2233.75,335.33 2235.8,334.454 2237.86,340.284 2239.91,338.744 2241.96,338.832 2244.01,339.08 2246.07,338.683 2248.12,338.683 2250.17,328.048 2252.23,364.123 2254.28,360.046 2256.33,354.937 2258.38,355.824 2260.44,355.524 2262.49,355.474 2264.54,346.069 2266.6,380.221 2268.65,374.572 2270.7,373.546 2272.75,378.044 2274.81,378.381 2276.86,382.424 2278.91,374.721 2280.97,381.079 2283.02,381.463 2285.07,381.817 2287.12,381.691 2289.18,382.045 2291.23,384.192 "/>
<path clip-path="url(#clip390)" d="M1983.6 172.231 L2280.29 172.231 L2280.29 68.5509 L1983.6 68.5509  Z" fill="#ffffff" fill-rule="evenodd" fill-opacity="1"/>
<polyline clip-path="url(#clip390)" style="stroke:#000000; stroke-linecap:round; stroke-linejoin:round; stroke-width:4; stroke-opacity:1; fill:none" points="1983.6,172.231 2280.29,172.231 2280.29,68.5509 1983.6,68.5509 1983.6,172.231 "/>
<polyline clip-path="url(#clip390)" style="stroke:#009af9; stroke-linecap:round; stroke-linejoin:round; stroke-width:4; stroke-opacity:1; fill:none" points="2007.75,120.391 2152.68,120.391 "/>
<path clip-path="url(#clip390)" d="M2176.83 103.111 L2181.51 103.111 L2181.51 133.736 L2198.34 133.736 L2198.34 137.671 L2176.83 137.671 L2176.83 103.111 Z" fill="#000000" fill-rule="nonzero" fill-opacity="1" /><path clip-path="url(#clip390)" d="M2223.96 104.245 L2223.96 108.805 Q2221.3 107.532 2218.94 106.907 Q2216.58 106.282 2214.38 106.282 Q2210.56 106.282 2208.48 107.764 Q2206.42 109.245 2206.42 111.977 Q2206.42 114.268 2207.78 115.449 Q2209.17 116.606 2213.01 117.324 L2215.84 117.902 Q2221.07 118.898 2223.55 121.421 Q2226.05 123.921 2226.05 128.134 Q2226.05 133.157 2222.67 135.75 Q2219.31 138.342 2212.81 138.342 Q2210.35 138.342 2207.57 137.787 Q2204.82 137.231 2201.86 136.143 L2201.86 131.328 Q2204.7 132.926 2207.44 133.736 Q2210.17 134.546 2212.81 134.546 Q2216.81 134.546 2218.99 132.972 Q2221.16 131.398 2221.16 128.481 Q2221.16 125.935 2219.59 124.5 Q2218.04 123.064 2214.47 122.347 L2211.62 121.791 Q2206.39 120.75 2204.06 118.527 Q2201.72 116.305 2201.72 112.347 Q2201.72 107.764 2204.94 105.125 Q2208.18 102.486 2213.85 102.486 Q2216.28 102.486 2218.8 102.926 Q2221.32 103.366 2223.96 104.245 Z" fill="#000000" fill-rule="nonzero" fill-opacity="1" /><path clip-path="url(#clip390)" d="M2254.06 104.245 L2254.06 108.805 Q2251.39 107.532 2249.03 106.907 Q2246.67 106.282 2244.47 106.282 Q2240.65 106.282 2238.57 107.764 Q2236.51 109.245 2236.51 111.977 Q2236.51 114.268 2237.87 115.449 Q2239.26 116.606 2243.11 117.324 L2245.93 117.902 Q2251.16 118.898 2253.64 121.421 Q2256.14 123.921 2256.14 128.134 Q2256.14 133.157 2252.76 135.75 Q2249.4 138.342 2242.9 138.342 Q2240.44 138.342 2237.67 137.787 Q2234.91 137.231 2231.95 136.143 L2231.95 131.328 Q2234.8 132.926 2237.53 133.736 Q2240.26 134.546 2242.9 134.546 Q2246.9 134.546 2249.08 132.972 Q2251.25 131.398 2251.25 128.481 Q2251.25 125.935 2249.68 124.5 Q2248.13 123.064 2244.56 122.347 L2241.72 121.791 Q2236.49 120.75 2234.15 118.527 Q2231.81 116.305 2231.81 112.347 Q2231.81 107.764 2235.03 105.125 Q2238.27 102.486 2243.94 102.486 Q2246.37 102.486 2248.89 102.926 Q2251.42 103.366 2254.06 104.245 Z" fill="#000000" fill-rule="nonzero" fill-opacity="1" /><path clip-path="url(#clip390)" d="M178.867 1486.45 L2352.76 1486.45 L2352.76 847.244 L178.867 847.244  Z" fill="#ffffff" fill-rule="evenodd" fill-opacity="1"/>
<defs>
  <clipPath id="clip393">
    <rect x="178" y="847" width="2175" height="640"/>
  </clipPath>
</defs>
<polyline clip-path="url(#clip393)" style="stroke:#000000; stroke-linecap:round; stroke-linejoin:round; stroke-width:2; stroke-opacity:0.1; fill:none" points="238.339,1486.45 238.339,847.244 "/>
<polyline clip-path="url(#clip393)" style="stroke:#000000; stroke-linecap:round; stroke-linejoin:round; stroke-width:2; stroke-opacity:0.1; fill:none" points="751.562,1486.45 751.562,847.244 "/>
<polyline clip-path="url(#clip393)" style="stroke:#000000; stroke-linecap:round; stroke-linejoin:round; stroke-width:2; stroke-opacity:0.1; fill:none" points="1264.78,1486.45 1264.78,847.244 "/>
<polyline clip-path="url(#clip393)" style="stroke:#000000; stroke-linecap:round; stroke-linejoin:round; stroke-width:2; stroke-opacity:0.1; fill:none" points="1778.01,1486.45 1778.01,847.244 "/>
<polyline clip-path="url(#clip393)" style="stroke:#000000; stroke-linecap:round; stroke-linejoin:round; stroke-width:2; stroke-opacity:0.1; fill:none" points="2291.23,1486.45 2291.23,847.244 "/>
<polyline clip-path="url(#clip393)" style="stroke:#000000; stroke-linecap:round; stroke-linejoin:round; stroke-width:2; stroke-opacity:0.1; fill:none" points="178.867,1486.45 2352.76,1486.45 "/>
<polyline clip-path="url(#clip393)" style="stroke:#000000; stroke-linecap:round; stroke-linejoin:round; stroke-width:2; stroke-opacity:0.1; fill:none" points="178.867,1326.65 2352.76,1326.65 "/>
<polyline clip-path="url(#clip393)" style="stroke:#000000; stroke-linecap:round; stroke-linejoin:round; stroke-width:2; stroke-opacity:0.1; fill:none" points="178.867,1166.85 2352.76,1166.85 "/>
<polyline clip-path="url(#clip393)" style="stroke:#000000; stroke-linecap:round; stroke-linejoin:round; stroke-width:2; stroke-opacity:0.1; fill:none" points="178.867,1007.05 2352.76,1007.05 "/>
<polyline clip-path="url(#clip393)" style="stroke:#000000; stroke-linecap:round; stroke-linejoin:round; stroke-width:2; stroke-opacity:0.1; fill:none" points="178.867,847.244 2352.76,847.244 "/>
<polyline clip-path="url(#clip390)" style="stroke:#000000; stroke-linecap:round; stroke-linejoin:round; stroke-width:4; stroke-opacity:1; fill:none" points="178.867,1486.45 2352.76,1486.45 "/>
<polyline clip-path="url(#clip390)" style="stroke:#000000; stroke-linecap:round; stroke-linejoin:round; stroke-width:4; stroke-opacity:1; fill:none" points="238.339,1486.45 238.339,1467.55 "/>
<polyline clip-path="url(#clip390)" style="stroke:#000000; stroke-linecap:round; stroke-linejoin:round; stroke-width:4; stroke-opacity:1; fill:none" points="751.562,1486.45 751.562,1467.55 "/>
<polyline clip-path="url(#clip390)" style="stroke:#000000; stroke-linecap:round; stroke-linejoin:round; stroke-width:4; stroke-opacity:1; fill:none" points="1264.78,1486.45 1264.78,1467.55 "/>
<polyline clip-path="url(#clip390)" style="stroke:#000000; stroke-linecap:round; stroke-linejoin:round; stroke-width:4; stroke-opacity:1; fill:none" points="1778.01,1486.45 1778.01,1467.55 "/>
<polyline clip-path="url(#clip390)" style="stroke:#000000; stroke-linecap:round; stroke-linejoin:round; stroke-width:4; stroke-opacity:1; fill:none" points="2291.23,1486.45 2291.23,1467.55 "/>
<path clip-path="url(#clip390)" d="M238.339 1517.37 Q234.728 1517.37 232.899 1520.93 Q231.094 1524.47 231.094 1531.6 Q231.094 1538.71 232.899 1542.27 Q234.728 1545.82 238.339 1545.82 Q241.973 1545.82 243.779 1542.27 Q245.607 1538.71 245.607 1531.6 Q245.607 1524.47 243.779 1520.93 Q241.973 1517.37 238.339 1517.37 M238.339 1513.66 Q244.149 1513.66 247.205 1518.27 Q250.283 1522.85 250.283 1531.6 Q250.283 1540.33 247.205 1544.94 Q244.149 1549.52 238.339 1549.52 Q232.529 1549.52 229.45 1544.94 Q226.395 1540.33 226.395 1531.6 Q226.395 1522.85 229.45 1518.27 Q232.529 1513.66 238.339 1513.66 Z" fill="#000000" fill-rule="nonzero" fill-opacity="1" /><path clip-path="url(#clip390)" d="M715.254 1544.91 L731.574 1544.91 L731.574 1548.85 L709.629 1548.85 L709.629 1544.91 Q712.291 1542.16 716.875 1537.53 Q721.481 1532.88 722.662 1531.53 Q724.907 1529.01 725.787 1527.27 Q726.689 1525.51 726.689 1523.82 Q726.689 1521.07 724.745 1519.33 Q722.824 1517.6 719.722 1517.6 Q717.523 1517.6 715.069 1518.36 Q712.638 1519.13 709.861 1520.68 L709.861 1515.95 Q712.685 1514.82 715.138 1514.24 Q717.592 1513.66 719.629 1513.66 Q725 1513.66 728.194 1516.35 Q731.388 1519.03 731.388 1523.52 Q731.388 1525.65 730.578 1527.57 Q729.791 1529.47 727.685 1532.07 Q727.106 1532.74 724.004 1535.95 Q720.902 1539.15 715.254 1544.91 Z" fill="#000000" fill-rule="nonzero" fill-opacity="1" /><path clip-path="url(#clip390)" d="M741.435 1514.29 L759.791 1514.29 L759.791 1518.22 L745.717 1518.22 L745.717 1526.7 Q746.736 1526.35 747.754 1526.19 Q748.773 1526 749.791 1526 Q755.578 1526 758.958 1529.17 Q762.337 1532.34 762.337 1537.76 Q762.337 1543.34 758.865 1546.44 Q755.393 1549.52 749.073 1549.52 Q746.898 1549.52 744.629 1549.15 Q742.384 1548.78 739.976 1548.04 L739.976 1543.34 Q742.06 1544.47 744.282 1545.03 Q746.504 1545.58 748.981 1545.58 Q752.985 1545.58 755.323 1543.48 Q757.661 1541.37 757.661 1537.76 Q757.661 1534.15 755.323 1532.04 Q752.985 1529.94 748.981 1529.94 Q747.106 1529.94 745.231 1530.35 Q743.379 1530.77 741.435 1531.65 L741.435 1514.29 Z" fill="#000000" fill-rule="nonzero" fill-opacity="1" /><path clip-path="url(#clip390)" d="M781.55 1517.37 Q777.939 1517.37 776.11 1520.93 Q774.305 1524.47 774.305 1531.6 Q774.305 1538.71 776.11 1542.27 Q777.939 1545.82 781.55 1545.82 Q785.184 1545.82 786.99 1542.27 Q788.819 1538.71 788.819 1531.6 Q788.819 1524.47 786.99 1520.93 Q785.184 1517.37 781.55 1517.37 M781.55 1513.66 Q787.36 1513.66 790.416 1518.27 Q793.495 1522.85 793.495 1531.6 Q793.495 1540.33 790.416 1544.94 Q787.36 1549.52 781.55 1549.52 Q775.74 1549.52 772.661 1544.94 Q769.606 1540.33 769.606 1531.6 Q769.606 1522.85 772.661 1518.27 Q775.74 1513.66 781.55 1513.66 Z" fill="#000000" fill-rule="nonzero" fill-opacity="1" /><path clip-path="url(#clip390)" d="M1224.4 1514.29 L1242.76 1514.29 L1242.76 1518.22 L1228.69 1518.22 L1228.69 1526.7 Q1229.7 1526.35 1230.72 1526.19 Q1231.74 1526 1232.76 1526 Q1238.55 1526 1241.93 1529.17 Q1245.31 1532.34 1245.31 1537.76 Q1245.31 1543.34 1241.83 1546.44 Q1238.36 1549.52 1232.04 1549.52 Q1229.87 1549.52 1227.6 1549.15 Q1225.35 1548.78 1222.94 1548.04 L1222.94 1543.34 Q1225.03 1544.47 1227.25 1545.03 Q1229.47 1545.58 1231.95 1545.58 Q1235.95 1545.58 1238.29 1543.48 Q1240.63 1541.37 1240.63 1537.76 Q1240.63 1534.15 1238.29 1532.04 Q1235.95 1529.94 1231.95 1529.94 Q1230.07 1529.94 1228.2 1530.35 Q1226.35 1530.77 1224.4 1531.65 L1224.4 1514.29 Z" fill="#000000" fill-rule="nonzero" fill-opacity="1" /><path clip-path="url(#clip390)" d="M1264.52 1517.37 Q1260.91 1517.37 1259.08 1520.93 Q1257.27 1524.47 1257.27 1531.6 Q1257.27 1538.71 1259.08 1542.27 Q1260.91 1545.82 1264.52 1545.82 Q1268.15 1545.82 1269.96 1542.27 Q1271.79 1538.71 1271.79 1531.6 Q1271.79 1524.47 1269.96 1520.93 Q1268.15 1517.37 1264.52 1517.37 M1264.52 1513.66 Q1270.33 1513.66 1273.38 1518.27 Q1276.46 1522.85 1276.46 1531.6 Q1276.46 1540.33 1273.38 1544.94 Q1270.33 1549.52 1264.52 1549.52 Q1258.71 1549.52 1255.63 1544.94 Q1252.57 1540.33 1252.57 1531.6 Q1252.57 1522.85 1255.63 1518.27 Q1258.71 1513.66 1264.52 1513.66 Z" fill="#000000" fill-rule="nonzero" fill-opacity="1" /><path clip-path="url(#clip390)" d="M1294.68 1517.37 Q1291.07 1517.37 1289.24 1520.93 Q1287.44 1524.47 1287.44 1531.6 Q1287.44 1538.71 1289.24 1542.27 Q1291.07 1545.82 1294.68 1545.82 Q1298.31 1545.82 1300.12 1542.27 Q1301.95 1538.71 1301.95 1531.6 Q1301.95 1524.47 1300.12 1520.93 Q1298.31 1517.37 1294.68 1517.37 M1294.68 1513.66 Q1300.49 1513.66 1303.55 1518.27 Q1306.62 1522.85 1306.62 1531.6 Q1306.62 1540.33 1303.55 1544.94 Q1300.49 1549.52 1294.68 1549.52 Q1288.87 1549.52 1285.79 1544.94 Q1282.74 1540.33 1282.74 1531.6 Q1282.74 1522.85 1285.79 1518.27 Q1288.87 1513.66 1294.68 1513.66 Z" fill="#000000" fill-rule="nonzero" fill-opacity="1" /><path clip-path="url(#clip390)" d="M1736.28 1514.29 L1758.51 1514.29 L1758.51 1516.28 L1745.96 1548.85 L1741.08 1548.85 L1752.88 1518.22 L1736.28 1518.22 L1736.28 1514.29 Z" fill="#000000" fill-rule="nonzero" fill-opacity="1" /><path clip-path="url(#clip390)" d="M1767.67 1514.29 L1786.03 1514.29 L1786.03 1518.22 L1771.95 1518.22 L1771.95 1526.7 Q1772.97 1526.35 1773.99 1526.19 Q1775.01 1526 1776.03 1526 Q1781.82 1526 1785.2 1529.17 Q1788.57 1532.34 1788.57 1537.76 Q1788.57 1543.34 1785.1 1546.44 Q1781.63 1549.52 1775.31 1549.52 Q1773.14 1549.52 1770.87 1549.15 Q1768.62 1548.78 1766.21 1548.04 L1766.21 1543.34 Q1768.3 1544.47 1770.52 1545.03 Q1772.74 1545.58 1775.22 1545.58 Q1779.22 1545.58 1781.56 1543.48 Q1783.9 1541.37 1783.9 1537.76 Q1783.9 1534.15 1781.56 1532.04 Q1779.22 1529.94 1775.22 1529.94 Q1773.34 1529.94 1771.47 1530.35 Q1769.62 1530.77 1767.67 1531.65 L1767.67 1514.29 Z" fill="#000000" fill-rule="nonzero" fill-opacity="1" /><path clip-path="url(#clip390)" d="M1807.79 1517.37 Q1804.18 1517.37 1802.35 1520.93 Q1800.54 1524.47 1800.54 1531.6 Q1800.54 1538.71 1802.35 1542.27 Q1804.18 1545.82 1807.79 1545.82 Q1811.42 1545.82 1813.23 1542.27 Q1815.06 1538.71 1815.06 1531.6 Q1815.06 1524.47 1813.23 1520.93 Q1811.42 1517.37 1807.79 1517.37 M1807.79 1513.66 Q1813.6 1513.66 1816.65 1518.27 Q1819.73 1522.85 1819.73 1531.6 Q1819.73 1540.33 1816.65 1544.94 Q1813.6 1549.52 1807.79 1549.52 Q1801.98 1549.52 1798.9 1544.94 Q1795.84 1540.33 1795.84 1531.6 Q1795.84 1522.85 1798.9 1518.27 Q1801.98 1513.66 1807.79 1513.66 Z" fill="#000000" fill-rule="nonzero" fill-opacity="1" /><path clip-path="url(#clip390)" d="M2235.76 1544.91 L2243.4 1544.91 L2243.4 1518.55 L2235.09 1520.21 L2235.09 1515.95 L2243.35 1514.29 L2248.02 1514.29 L2248.02 1544.91 L2255.66 1544.91 L2255.66 1548.85 L2235.76 1548.85 L2235.76 1544.91 Z" fill="#000000" fill-rule="nonzero" fill-opacity="1" /><path clip-path="url(#clip390)" d="M2275.11 1517.37 Q2271.5 1517.37 2269.67 1520.93 Q2267.86 1524.47 2267.86 1531.6 Q2267.86 1538.71 2269.67 1542.27 Q2271.5 1545.82 2275.11 1545.82 Q2278.74 1545.82 2280.55 1542.27 Q2282.38 1538.71 2282.38 1531.6 Q2282.38 1524.47 2280.55 1520.93 Q2278.74 1517.37 2275.11 1517.37 M2275.11 1513.66 Q2280.92 1513.66 2283.97 1518.27 Q2287.05 1522.85 2287.05 1531.6 Q2287.05 1540.33 2283.97 1544.94 Q2280.92 1549.52 2275.11 1549.52 Q2269.3 1549.52 2266.22 1544.94 Q2263.16 1540.33 2263.16 1531.6 Q2263.16 1522.85 2266.22 1518.27 Q2269.3 1513.66 2275.11 1513.66 Z" fill="#000000" fill-rule="nonzero" fill-opacity="1" /><path clip-path="url(#clip390)" d="M2305.27 1517.37 Q2301.66 1517.37 2299.83 1520.93 Q2298.02 1524.47 2298.02 1531.6 Q2298.02 1538.71 2299.83 1542.27 Q2301.66 1545.82 2305.27 1545.82 Q2308.9 1545.82 2310.71 1542.27 Q2312.54 1538.71 2312.54 1531.6 Q2312.54 1524.47 2310.71 1520.93 Q2308.9 1517.37 2305.27 1517.37 M2305.27 1513.66 Q2311.08 1513.66 2314.14 1518.27 Q2317.21 1522.85 2317.21 1531.6 Q2317.21 1540.33 2314.14 1544.94 Q2311.08 1549.52 2305.27 1549.52 Q2299.46 1549.52 2296.38 1544.94 Q2293.33 1540.33 2293.33 1531.6 Q2293.33 1522.85 2296.38 1518.27 Q2299.46 1513.66 2305.27 1513.66 Z" fill="#000000" fill-rule="nonzero" fill-opacity="1" /><path clip-path="url(#clip390)" d="M2335.43 1517.37 Q2331.82 1517.37 2329.99 1520.93 Q2328.19 1524.47 2328.19 1531.6 Q2328.19 1538.71 2329.99 1542.27 Q2331.82 1545.82 2335.43 1545.82 Q2339.07 1545.82 2340.87 1542.27 Q2342.7 1538.71 2342.7 1531.6 Q2342.7 1524.47 2340.87 1520.93 Q2339.07 1517.37 2335.43 1517.37 M2335.43 1513.66 Q2341.24 1513.66 2344.3 1518.27 Q2347.38 1522.85 2347.38 1531.6 Q2347.38 1540.33 2344.3 1544.94 Q2341.24 1549.52 2335.43 1549.52 Q2329.62 1549.52 2326.54 1544.94 Q2323.49 1540.33 2323.49 1531.6 Q2323.49 1522.85 2326.54 1518.27 Q2329.62 1513.66 2335.43 1513.66 Z" fill="#000000" fill-rule="nonzero" fill-opacity="1" /><polyline clip-path="url(#clip390)" style="stroke:#000000; stroke-linecap:round; stroke-linejoin:round; stroke-width:4; stroke-opacity:1; fill:none" points="178.867,1486.45 178.867,847.244 "/>
<polyline clip-path="url(#clip390)" style="stroke:#000000; stroke-linecap:round; stroke-linejoin:round; stroke-width:4; stroke-opacity:1; fill:none" points="178.867,1486.45 197.764,1486.45 "/>
<polyline clip-path="url(#clip390)" style="stroke:#000000; stroke-linecap:round; stroke-linejoin:round; stroke-width:4; stroke-opacity:1; fill:none" points="178.867,1326.65 197.764,1326.65 "/>
<polyline clip-path="url(#clip390)" style="stroke:#000000; stroke-linecap:round; stroke-linejoin:round; stroke-width:4; stroke-opacity:1; fill:none" points="178.867,1166.85 197.764,1166.85 "/>
<polyline clip-path="url(#clip390)" style="stroke:#000000; stroke-linecap:round; stroke-linejoin:round; stroke-width:4; stroke-opacity:1; fill:none" points="178.867,1007.05 197.764,1007.05 "/>
<polyline clip-path="url(#clip390)" style="stroke:#000000; stroke-linecap:round; stroke-linejoin:round; stroke-width:4; stroke-opacity:1; fill:none" points="178.867,847.244 197.764,847.244 "/>
<path clip-path="url(#clip390)" d="M50.9921 1486.9 L80.6679 1486.9 L80.6679 1490.83 L50.9921 1490.83 L50.9921 1486.9 Z" fill="#000000" fill-rule="nonzero" fill-opacity="1" /><path clip-path="url(#clip390)" d="M91.5706 1499.79 L99.2095 1499.79 L99.2095 1473.43 L90.8993 1475.09 L90.8993 1470.83 L99.1632 1469.17 L103.839 1469.17 L103.839 1499.79 L111.478 1499.79 L111.478 1503.73 L91.5706 1503.73 L91.5706 1499.79 Z" fill="#000000" fill-rule="nonzero" fill-opacity="1" /><path clip-path="url(#clip390)" d="M130.922 1472.25 Q127.311 1472.25 125.482 1475.81 Q123.677 1479.35 123.677 1486.48 Q123.677 1493.59 125.482 1497.15 Q127.311 1500.7 130.922 1500.7 Q134.556 1500.7 136.362 1497.15 Q138.191 1493.59 138.191 1486.48 Q138.191 1479.35 136.362 1475.81 Q134.556 1472.25 130.922 1472.25 M130.922 1468.54 Q136.732 1468.54 139.788 1473.15 Q142.867 1477.73 142.867 1486.48 Q142.867 1495.21 139.788 1499.82 Q136.732 1504.4 130.922 1504.4 Q125.112 1504.4 122.033 1499.82 Q118.978 1495.21 118.978 1486.48 Q118.978 1477.73 122.033 1473.15 Q125.112 1468.54 130.922 1468.54 Z" fill="#000000" fill-rule="nonzero" fill-opacity="1" /><path clip-path="url(#clip390)" d="M82.1494 1327.1 L111.825 1327.1 L111.825 1331.03 L82.1494 1331.03 L82.1494 1327.1 Z" fill="#000000" fill-rule="nonzero" fill-opacity="1" /><path clip-path="url(#clip390)" d="M121.964 1309.37 L140.32 1309.37 L140.32 1313.3 L126.246 1313.3 L126.246 1321.77 Q127.265 1321.43 128.283 1321.27 Q129.302 1321.08 130.32 1321.08 Q136.107 1321.08 139.487 1324.25 Q142.867 1327.42 142.867 1332.84 Q142.867 1338.42 139.394 1341.52 Q135.922 1344.6 129.603 1344.6 Q127.427 1344.6 125.158 1344.23 Q122.913 1343.86 120.506 1343.12 L120.506 1338.42 Q122.589 1339.55 124.811 1340.11 Q127.033 1340.66 129.51 1340.66 Q133.515 1340.66 135.853 1338.56 Q138.191 1336.45 138.191 1332.84 Q138.191 1329.23 135.853 1327.12 Q133.515 1325.01 129.51 1325.01 Q127.635 1325.01 125.76 1325.43 Q123.908 1325.85 121.964 1326.73 L121.964 1309.37 Z" fill="#000000" fill-rule="nonzero" fill-opacity="1" /><path clip-path="url(#clip390)" d="M130.922 1152.64 Q127.311 1152.64 125.482 1156.21 Q123.677 1159.75 123.677 1166.88 Q123.677 1173.99 125.482 1177.55 Q127.311 1181.09 130.922 1181.09 Q134.556 1181.09 136.362 1177.55 Q138.191 1173.99 138.191 1166.88 Q138.191 1159.75 136.362 1156.21 Q134.556 1152.64 130.922 1152.64 M130.922 1148.94 Q136.732 1148.94 139.788 1153.55 Q142.867 1158.13 142.867 1166.88 Q142.867 1175.61 139.788 1180.21 Q136.732 1184.8 130.922 1184.8 Q125.112 1184.8 122.033 1180.21 Q118.978 1175.61 118.978 1166.88 Q118.978 1158.13 122.033 1153.55 Q125.112 1148.94 130.922 1148.94 Z" fill="#000000" fill-rule="nonzero" fill-opacity="1" /><path clip-path="url(#clip390)" d="M121.964 989.765 L140.32 989.765 L140.32 993.7 L126.246 993.7 L126.246 1002.17 Q127.265 1001.83 128.283 1001.66 Q129.302 1001.48 130.32 1001.48 Q136.107 1001.48 139.487 1004.65 Q142.867 1007.82 142.867 1013.24 Q142.867 1018.82 139.394 1021.92 Q135.922 1025 129.603 1025 Q127.427 1025 125.158 1024.63 Q122.913 1024.26 120.506 1023.51 L120.506 1018.82 Q122.589 1019.95 124.811 1020.51 Q127.033 1021.06 129.51 1021.06 Q133.515 1021.06 135.853 1018.95 Q138.191 1016.85 138.191 1013.24 Q138.191 1009.63 135.853 1007.52 Q133.515 1005.41 129.51 1005.41 Q127.635 1005.41 125.76 1005.83 Q123.908 1006.25 121.964 1007.13 L121.964 989.765 Z" fill="#000000" fill-rule="nonzero" fill-opacity="1" /><path clip-path="url(#clip390)" d="M91.5706 860.589 L99.2095 860.589 L99.2095 834.223 L90.8993 835.89 L90.8993 831.631 L99.1632 829.964 L103.839 829.964 L103.839 860.589 L111.478 860.589 L111.478 864.524 L91.5706 864.524 L91.5706 860.589 Z" fill="#000000" fill-rule="nonzero" fill-opacity="1" /><path clip-path="url(#clip390)" d="M130.922 833.043 Q127.311 833.043 125.482 836.608 Q123.677 840.149 123.677 847.279 Q123.677 854.385 125.482 857.95 Q127.311 861.492 130.922 861.492 Q134.556 861.492 136.362 857.95 Q138.191 854.385 138.191 847.279 Q138.191 840.149 136.362 836.608 Q134.556 833.043 130.922 833.043 M130.922 829.339 Q136.732 829.339 139.788 833.946 Q142.867 838.529 142.867 847.279 Q142.867 856.006 139.788 860.612 Q136.732 865.195 130.922 865.195 Q125.112 865.195 122.033 860.612 Q118.978 856.006 118.978 847.279 Q118.978 838.529 122.033 833.946 Q125.112 829.339 130.922 829.339 Z" fill="#000000" fill-rule="nonzero" fill-opacity="1" /><polyline clip-path="url(#clip393)" style="stroke:#009af9; stroke-linecap:round; stroke-linejoin:round; stroke-width:4; stroke-opacity:1; fill:none" points="240.392,1134.89 242.445,1185.32 244.498,1168.98 246.55,1091.53 248.603,1028.26 250.656,1167.79 252.709,1146.09 254.762,769.582 256.815,1201.41 258.868,1226.61 260.921,1215.2 262.974,1042.63 265.027,1179.34 267.079,1160.77 269.132,1170.59 271.185,1161.5 273.238,1155.14 275.291,1179.2 277.344,1191.92 279.397,1172.71 281.45,1181.77 283.503,1130.4 285.555,1229.88 287.608,1091.89 289.661,1222.85 291.714,1148.19 293.767,1124.74 295.82,1149.82 297.873,1168.12 299.926,1153.24 301.979,1175.78 304.031,1385.18 306.084,1152.92 308.137,1167.37 310.19,1195.3 312.243,1133.91 314.296,1184.91 316.349,1139.69 318.402,1120.83 320.455,1148.66 322.507,1157.1 324.56,1166 326.613,1176.26 328.666,1181.09 330.719,1143.23 332.772,1220.83 334.825,1196.79 336.878,1106.43 338.931,1166.45 340.984,1147.14 343.036,1163.09 345.089,1169.35 347.142,1155.45 349.195,1186.48 351.248,1216.22 353.301,1214.72 355.354,1124.47 357.407,1200.46 359.46,1171.54 361.512,1132.85 363.565,1159.06 365.618,1169.32 367.671,1156.14 369.724,1219.53 371.777,1154.26 373.83,1142.7 375.883,1159.04 377.936,1160.79 379.988,1159.29 382.041,1171.92 384.094,1160.75 386.147,1169.44 388.2,1146.25 390.253,1159.33 392.306,1099.24 394.359,1187.74 396.412,1203.03 398.464,1144.02 400.517,1137.58 402.57,1236.84 404.623,1166.1 406.676,1177.9 408.729,1162.7 410.782,1165.61 412.835,1160.34 414.888,1256.27 416.94,1306.65 418.993,1296.79 421.046,1176.21 423.099,1175.36 425.152,1138.8 427.205,1251.69 429.258,1156.93 431.311,1199.14 433.364,1169.34 435.417,1114.28 437.469,1312.23 439.522,1136.8 441.575,1177.64 443.628,1163.37 445.681,1164.12 447.734,1158.2 449.787,1162.77 451.84,1265.8 453.893,1181.03 455.945,1202.88 457.998,1152.93 460.051,1229.99 462.104,1180.01 464.157,1184.88 466.21,1181.75 468.263,1167.25 470.316,1173.56 472.369,1192.66 474.421,1111.18 476.474,1130.71 478.527,1167.23 480.58,1121.94 482.633,1211.99 484.686,1129.98 486.739,1120.95 488.792,1173.85 490.845,1191.83 492.897,1146.41 494.95,1110.96 497.003,1158.4 499.056,1131.93 501.109,1164.72 503.162,1107.77 505.215,1262.19 507.268,1157.14 509.321,1203.62 511.374,1221.21 513.426,1210.48 515.479,873.207 517.532,903.726 519.585,1364.4 521.638,974.533 523.691,1220.51 525.744,1118.7 527.797,1210.78 529.85,1227.8 531.902,1184.23 533.955,1171 536.008,1175.88 538.061,1176.16 540.114,1164.2 542.167,1165.76 544.22,1205.72 546.273,1199.33 548.326,1138.16 550.378,1211.89 552.431,1129.78 554.484,1154.99 556.537,1154.99 558.59,1183.97 560.643,1138.12 562.696,1102.44 564.749,1171.63 566.802,1182.25 568.854,1145.31 570.907,1176.24 572.96,1151.13 575.013,1203.62 577.066,1137.15 579.119,1186.41 581.172,1188.15 583.225,1124.68 585.278,1119.24 587.331,1148.85 589.383,1100.79 591.436,1213.45 593.489,1228.56 595.542,1117.58 597.595,1156.22 599.648,1176.99 601.701,1150.17 603.754,1154.28 605.807,1159.61 607.859,1163.21 609.912,1171.13 611.965,1169.46 614.018,1168.27 616.071,1150.64 618.124,1151.37 620.177,1139.59 622.23,1179.39 624.283,1142.36 626.335,1159.18 628.388,1167.51 630.441,1171.46 632.494,1178.63 634.547,1153.23 636.6,1142.84 638.653,1190.44 640.706,1148.35 642.759,1167.11 644.811,1167.4 646.864,1130.49 648.917,1170.34 650.97,1105.04 653.023,1101.92 655.076,1215.84 657.129,1139.44 659.182,1175.63 661.235,1153.97 663.288,1170.45 665.34,1162.14 667.393,1148.77 669.446,1178.73 671.499,1135.7 673.552,1180.44 675.605,1237.72 677.658,1256.64 679.711,1126.87 681.764,1262.8 683.816,1113.6 685.869,1146.81 687.922,1075.82 689.975,833.55 692.028,1106.6 694.081,740.897 696.134,1078 698.187,1070.25 700.24,969.204 702.292,1177.33 704.345,1496.16 706.398,772.642 708.451,1120.41 710.504,1182.27 712.557,1103.18 714.61,1140.94 716.663,1092.99 718.716,1098.66 720.768,494.543 722.821,1147.47 724.874,1170.17 726.927,224.293 728.98,-36.2887 731.033,879.681 733.086,1075.83 735.139,1168.93 737.192,1169.34 739.245,1210.65 741.297,1132.92 743.35,1059.41 745.403,1125.1 747.456,1229.23 749.509,1132.75 751.562,1142.91 753.615,1178.11 755.668,1128.93 757.721,1197.47 759.773,1181.48 761.826,1146.5 763.879,1192.79 765.932,1164.62 767.985,1165.05 770.038,1184.07 772.091,1076.11 774.144,1283.66 776.197,1097.15 778.249,1259.14 780.302,1278.52 782.355,1133.85 784.408,1147.41 786.461,1197.2 788.514,1220.28 790.567,1176.52 792.62,1159.88 794.673,1153.1 796.725,1140.52 798.778,1185.72 800.831,1108.43 802.884,1027.86 804.937,1183 806.99,1141.47 809.043,1205.27 811.096,1166.74 813.149,1190.3 815.202,1176.84 817.254,1139.56 819.307,1194.91 821.36,1163.05 823.413,1161.98 825.466,1189.08 827.519,1060.02 829.572,1381.91 831.625,1227.31 833.678,1195.77 835.73,1161.27 837.783,1161.06 839.836,1173.85 841.889,1189.8 843.942,1165.67 845.995,1182.7 848.048,1183.54 850.101,1213.33 852.154,1156.71 854.206,1235.74 856.259,1249.6 858.312,1092.99 860.365,1167.74 862.418,1226.67 864.471,1204.43 866.524,1168 868.577,1170.5 870.63,1170.73 872.682,1138.61 874.735,1171.26 876.788,1199.49 878.841,1087.29 880.894,995.601 882.947,1157.68 885,1225.74 887.053,1253.01 889.106,1244.17 891.159,1227.59 893.211,1173.37 895.264,929.418 897.317,1054.48 899.37,1158.59 901.423,1176.84 903.476,1159.41 905.529,1139.45 907.582,1144.03 909.635,1149.68 911.687,1140.16 913.74,1145.79 915.793,1199.08 917.846,1192.13 919.899,1108.66 921.952,1293.53 924.005,785.427 926.058,918.844 928.111,877.716 930.163,898.691 932.216,1161.99 934.269,1160.88 936.322,1218.78 938.375,1376.15 940.428,1330.31 942.481,960.832 944.534,1106.19 946.587,1224.56 948.639,1140.42 950.692,1131.28 952.745,1123.22 954.798,1148.17 956.851,1158.16 958.904,1189.9 960.957,1167.29 963.01,1180.75 965.063,1105.35 967.116,1227.04 969.168,278.784 971.221,327.815 973.274,-137.072 975.327,1721.64 977.38,1015.96 979.433,1184.97 981.486,1234.84 983.539,1268.66 985.592,1148.02 987.644,1160.05 989.697,1187.32 991.75,1164.17 993.803,1192.45 995.856,1252.99 997.909,1120.7 999.962,1181.03 1002.01,1180.38 1004.07,1164.42 1006.12,1100.25 1008.17,1189.22 1010.23,1202.69 1012.28,1128.28 1014.33,1167.63 1016.38,1222.71 1018.44,1133.34 1020.49,1174.33 1022.54,1177.15 1024.6,1278.87 1026.65,1179.22 1028.7,1182.78 1030.76,1174.25 1032.81,1155.97 1034.86,1187 1036.91,1131.73 1038.97,1159.39 1041.02,1160.88 1043.07,1212.21 1045.13,1465.16 1047.18,1264.1 1049.23,1143.57 1051.28,1212.41 1053.34,985.946 1055.39,1006.34 1057.44,1194.72 1059.5,1290.6 1061.55,1060.27 1063.6,1119.35 1065.65,1155.16 1067.71,1163.17 1069.76,1186.79 1071.81,1149.07 1073.87,1144.58 1075.92,1172.7 1077.97,1262.74 1080.02,1260.64 1082.08,1234.48 1084.13,1162.23 1086.18,1205.59 1088.24,1144.73 1090.29,1142.54 1092.34,1204.6 1094.39,1142.87 1096.45,1072.35 1098.5,1226.47 1100.55,1194.87 1102.61,1160.01 1104.66,1129.28 1106.71,1246.94 1108.77,1107.51 1110.82,1096.13 1112.87,1145.24 1114.92,1158.16 1116.98,1154.16 1119.03,1199.76 1121.08,1105.1 1123.14,1076.49 1125.19,1193.12 1127.24,1222.62 1129.29,1212.19 1131.35,1214.64 1133.4,1204.3 1135.45,1152.68 1137.51,1200.04 1139.56,1150.55 1141.61,1154.65 1143.66,1150.21 1145.72,1250.34 1147.77,663.552 1149.82,1340.2 1151.88,1118.74 1153.93,1211.11 1155.98,1183.02 1158.03,1137.99 1160.09,1137 1162.14,1112.92 1164.19,1201.12 1166.25,1103.74 1168.3,1098.43 1170.35,1138.97 1172.4,1137.02 1174.46,1182.35 1176.51,1176.49 1178.56,1180.3 1180.62,1155.81 1182.67,1227.17 1184.72,1241.71 1186.77,1230.34 1188.83,1844.57 1190.88,804.177 1192.93,-289.992 1194.99,1095.31 1197.04,874.683 1199.09,708.139 1201.15,788.098 1203.2,1113.15 1205.25,1133.39 1207.3,1117.29 1209.36,1168.61 1211.41,1247.82 1213.46,1320.97 1215.52,1138 1217.57,1132.26 1219.62,1211.26 1221.67,1159.96 1223.73,1162.1 1225.78,1188.4 1227.83,1149.8 1229.89,1177.76 1231.94,1363.21 1233.99,1621.43 1236.04,284.838 1238.1,63.51 1240.15,1742.34 1242.2,1693.01 1244.26,1218.11 1246.31,1163.47 1248.36,1156.13 1250.41,1145.49 1252.47,1258.78 1254.52,1162.28 1256.57,1198.11 1258.63,1112.5 1260.68,1209.97 1262.73,1005.87 1264.78,1074.73 1266.84,1180.61 1268.89,1140.56 1270.94,1160.65 1273,1098.66 1275.05,1252.99 1277.1,1073.95 1279.16,1242.93 1281.21,1313.09 1283.26,1372.59 1285.31,1190.27 1287.37,1129.96 1289.42,1164.21 1291.47,1214.8 1293.53,1193.04 1295.58,1162.75 1297.63,1185.71 1299.68,1183.99 1301.74,1037.86 1303.79,1059.29 1305.84,1267.86 1307.9,1169.72 1309.95,1167.8 1312,1164.51 1314.05,1142.55 1316.11,1139.58 1318.16,960.347 1320.21,926.335 1322.27,1168.76 1324.32,1184.48 1326.37,1261.14 1328.42,1108 1330.48,1193.76 1332.53,1084.04 1334.58,1161.58 1336.64,1162.82 1338.69,1150.9 1340.74,1210.16 1342.79,1147.82 1344.85,1159.31 1346.9,1032.67 1348.95,1131.96 1351.01,1155.61 1353.06,1152.7 1355.11,1177.85 1357.16,1102.93 1359.22,1159.29 1361.27,1177.81 1363.32,1084.37 1365.38,1326.5 1367.43,1232.89 1369.48,1166.74 1371.54,1163.3 1373.59,1166.36 1375.64,1160.06 1377.69,1169.81 1379.75,1084.59 1381.8,1169.12 1383.85,1168.36 1385.91,1163.88 1387.96,1172.42 1390.01,1163.26 1392.06,1201.72 1394.12,1193.62 1396.17,1150.46 1398.22,1175.38 1400.28,1217.96 1402.33,1172.35 1404.38,1210.74 1406.43,1057.97 1408.49,1259.29 1410.54,1254.43 1412.59,1196.8 1414.65,1138.93 1416.7,1126.34 1418.75,1221.34 1420.8,1135.23 1422.86,1210.44 1424.91,1198.4 1426.96,1181.8 1429.02,1175.91 1431.07,1070.83 1433.12,1120.91 1435.17,1204.26 1437.23,1181.88 1439.28,1157.43 1441.33,1195.42 1443.39,1164.24 1445.44,589.472 1447.49,1640.05 1449.55,1428.73 1451.6,870.255 1453.65,1101.83 1455.7,1077.86 1457.76,1504.1 1459.81,1149.11 1461.86,1162.5 1463.92,1156.53 1465.97,1124.16 1468.02,1138.39 1470.07,1208 1472.13,1195.27 1474.18,1186.15 1476.23,1191.4 1478.29,1151.33 1480.34,1154.22 1482.39,1194.85 1484.44,1236.21 1486.5,1199.24 1488.55,1141.02 1490.6,1141.63 1492.66,1204.73 1494.71,1028.21 1496.76,1146.17 1498.81,1190.34 1500.87,1159.86 1502.92,1219.71 1504.97,1091.21 1507.03,994.229 1509.08,1105.05 1511.13,1182.11 1513.18,1161.49 1515.24,1188.36 1517.29,1174.86 1519.34,1155.14 1521.4,1197.6 1523.45,1166.59 1525.5,1169.82 1527.55,1126.54 1529.61,1206.31 1531.66,1183.59 1533.71,1167 1535.77,1172.76 1537.82,1157.58 1539.87,1148.71 1541.93,1188.98 1543.98,1124.62 1546.03,1169.64 1548.08,1219.47 1550.14,1156.05 1552.19,1192.69 1554.24,1196.98 1556.3,1146.62 1558.35,1082.37 1560.4,1044.93 1562.45,1210.62 1564.51,1198.39 1566.56,1070.67 1568.61,1197.7 1570.67,1158.33 1572.72,1194.04 1574.77,1197.33 1576.82,1183.33 1578.88,1138.76 1580.93,1089.54 1582.98,1117.59 1585.04,1029.73 1587.09,986.452 1589.14,800.504 1591.19,1200.05 1593.25,554.929 1595.3,924.266 1597.35,1732.27 1599.41,678.682 1601.46,947.906 1603.51,1497.8 1605.56,1051.41 1607.62,1489.12 1609.67,917.865 1611.72,1738.03 1613.78,4726.69 1615.83,1114.67 1617.88,791.621 1619.94,2006.87 1621.99,13036 1624.04,7682.16 1626.09,-994.654 1628.15,-811.049 1630.2,3438.8 1632.25,-3761.53 1634.31,4353.22 1636.36,943.913 1638.41,-359.892 1640.46,117.406 1642.52,5715.26 1644.57,-452.703 1646.62,53.0155 1648.68,604.19 1650.73,1176.82 1652.78,1198.05 1654.83,1133.62 1656.89,1183.89 1658.94,1195.98 1660.99,1226.85 1663.05,1151.31 1665.1,1185.12 1667.15,1205.77 1669.2,1176.98 1671.26,1162.48 1673.31,1155.5 1675.36,1161.36 1677.42,1126.16 1679.47,1193.32 1681.52,1157.73 1683.57,1184.4 1685.63,1148.15 1687.68,1190.96 1689.73,1150.08 1691.79,1194.8 1693.84,1158.39 1695.89,1160.11 1697.94,1143.78 1700,1140.37 1702.05,1195.77 1704.1,1014.47 1706.16,1186.35 1708.21,1184.79 1710.26,1148.28 1712.32,1160.92 1714.37,1166.99 1716.42,1179.24 1718.47,1192.5 1720.53,1044.4 1722.58,1111.37 1724.63,1137.62 1726.69,1211.62 1728.74,1183.82 1730.79,1164.18 1732.84,1167.24 1734.9,1165.36 1736.95,1192.77 1739,1158.36 1741.06,1178.58 1743.11,1202.77 1745.16,1144.66 1747.21,1157.85 1749.27,1224.21 1751.32,1177.83 1753.37,1169.1 1755.43,1200.9 1757.48,1180.98 1759.53,1152.51 1761.58,1162.21 1763.64,1227.77 1765.69,1140.78 1767.74,1163.39 1769.8,1204.71 1771.85,1194.19 1773.9,1135.06 1775.95,1380.47 1778.01,966.976 1780.06,1142.64 1782.11,1138.19 1784.17,1020.12 1786.22,1027.87 1788.27,1150.54 1790.33,1163.82 1792.38,1075.37 1794.43,1579.69 1796.48,885.917 1798.54,179.736 1800.59,727.208 1802.64,1290.15 1804.7,1402.69 1806.75,1329.31 1808.8,1028.89 1810.85,1075.19 1812.91,1282.28 1814.96,1102.72 1817.01,1492.21 1819.07,1076.79 1821.12,1281.57 1823.17,1062.93 1825.22,1098.76 1827.28,1272.35 1829.33,1120.58 1831.38,1074.17 1833.44,1039.78 1835.49,1129.58 1837.54,1092.35 1839.59,1203.67 1841.65,1169.87 1843.7,1175.47 1845.75,1166.19 1847.81,1159.35 1849.86,1160.68 1851.91,1189.86 1853.96,1210.54 1856.02,1272.36 1858.07,2196.33 1860.12,2183.99 1862.18,763.634 1864.23,1141.08 1866.28,1126.7 1868.34,1155.77 1870.39,1270.88 1872.44,1240.84 1874.49,1115.44 1876.55,1213.41 1878.6,1156.38 1880.65,1174.83 1882.71,1175.73 1884.76,1168.31 1886.81,1166.61 1888.86,1180.85 1890.92,1178.57 1892.97,1291.61 1895.02,1201.11 1897.08,1076.25 1899.13,1501.73 1901.18,1303.17 1903.23,1234.39 1905.29,1393.23 1907.34,1359.94 1909.39,1191.89 1911.45,998.194 1913.5,1168.38 1915.55,1280.86 1917.6,924.67 1919.66,1161.67 1921.71,1192.63 1923.76,1193.42 1925.82,1204.85 1927.87,1175.14 1929.92,1169.98 1931.97,1412.24 1934.03,976.679 1936.08,1216.75 1938.13,1162.42 1940.19,1163.11 1942.24,1149.18 1944.29,1197.58 1946.34,1204.43 1948.4,1200.73 1950.45,1224.68 1952.5,1193.95 1954.56,1128.22 1956.61,1223.93 1958.66,1122.01 1960.72,1122.3 1962.77,1138.61 1964.82,1141.53 1966.87,1153.75 1968.93,1218.51 1970.98,1094.25 1973.03,1147.33 1975.09,1220.49 1977.14,1225.18 1979.19,1247.4 1981.24,1202.12 1983.3,1205.51 1985.35,1189.99 1987.4,1123.22 1989.46,1226.92 1991.51,1187.65 1993.56,1198.79 1995.61,1183.78 1997.67,1124.36 1999.72,1125.25 2001.77,1191.41 2003.83,1164.55 2005.88,1171.79 2007.93,1159.54 2009.98,1212.57 2012.04,1183.59 2014.09,1221.08 2016.14,1172.75 2018.2,1193.26 2020.25,1244.62 2022.3,1155.6 2024.35,1164.73 2026.41,1151.59 2028.46,1128.36 2030.51,1298.19 2032.57,1195.44 2034.62,1133.8 2036.67,1188.36 2038.73,1170.21 2040.78,1171.55 2042.83,1167.66 2044.88,1163.88 2046.94,1194.64 2048.99,1165.83 2051.04,1148.63 2053.1,1182.71 2055.15,1178.88 2057.2,1152.31 2059.25,1145.77 2061.31,1155.36 2063.36,1129.9 2065.41,1179.49 2067.47,1155.46 2069.52,1192.65 2071.57,1185.73 2073.62,1153.42 2075.68,1151.71 2077.73,1174.33 2079.78,1134.81 2081.84,1188.89 2083.89,1153.89 2085.94,1153.63 2087.99,1135.23 2090.05,1186.01 2092.1,1175.03 2094.15,1173.08 2096.21,1148.98 2098.26,1180.3 2100.31,1202.68 2102.36,1119.97 2104.42,1174.39 2106.47,1168.94 2108.52,1175.24 2110.58,1191.91 2112.63,1163.65 2114.68,1162.96 2116.73,1247.44 2118.79,1187.28 2120.84,1152.79 2122.89,1191.78 2124.95,1144.41 2127,1141.52 2129.05,1170.65 2131.11,1194.92 2133.16,1150.36 2135.21,1198.07 2137.26,1221.88 2139.32,1284.56 2141.37,790.331 2143.42,1026 2145.48,1325.79 2147.53,1028.86 2149.58,1214.44 2151.63,1125.3 2153.69,1140.1 2155.74,1179.91 2157.79,1227.67 2159.85,1141.63 2161.9,1224.42 2163.95,1128.51 2166,1117.83 2168.06,1188.13 2170.11,1193.15 2172.16,1158.94 2174.22,1208.92 2176.27,1152.56 2178.32,1192.66 2180.37,1118.9 2182.43,1223.5 2184.48,1151.35 2186.53,1154.14 2188.59,1165.95 2190.64,1221.45 2192.69,1127 2194.74,1153.88 2196.8,1166.06 2198.85,1164.07 2200.9,1160.64 2202.96,1183.76 2205.01,1149.68 2207.06,1176.69 2209.12,1111.87 2211.17,1159.98 2213.22,1191.88 2215.27,1187.02 2217.33,1208.1 2219.38,1140.13 2221.43,1243.26 2223.49,1154.03 2225.54,1183.55 2227.59,1190.15 2229.64,1160.27 2231.7,1153.51 2233.75,1166.84 2235.8,1166.28 2237.86,1152.58 2239.91,1025 2241.96,1142.6 2244.01,1146.29 2246.07,1163.89 2248.12,1206.44 2250.17,1105.6 2252.23,1176.75 2254.28,1125.85 2256.33,1118.45 2258.38,1219.71 2260.44,1196.2 2262.49,1166.17 2264.54,1166.23 2266.6,1192.23 2268.65,1149.9 2270.7,1143.72 2272.75,1144.05 2274.81,1167.86 2276.86,1152.15 2278.91,1187.34 2280.97,1144.94 2283.02,1124.66 2285.07,1150.84 2287.12,1147.37 2289.18,1216 2291.23,1121.97 "/>
<path clip-path="url(#clip390)" d="M1942.7 972.231 L2280.29 972.231 L2280.29 868.551 L1942.7 868.551  Z" fill="#ffffff" fill-rule="evenodd" fill-opacity="1"/>
<polyline clip-path="url(#clip390)" style="stroke:#000000; stroke-linecap:round; stroke-linejoin:round; stroke-width:4; stroke-opacity:1; fill:none" points="1942.7,972.231 2280.29,972.231 2280.29,868.551 1942.7,868.551 1942.7,972.231 "/>
<polyline clip-path="url(#clip390)" style="stroke:#009af9; stroke-linecap:round; stroke-linejoin:round; stroke-width:4; stroke-opacity:1; fill:none" points="1966.85,920.391 2111.78,920.391 "/>
<path clip-path="url(#clip390)" d="M2161.49 932.74 L2161.49 923.458 L2153.85 923.458 L2153.85 919.615 L2166.12 919.615 L2166.12 934.453 Q2163.41 936.375 2160.14 937.37 Q2156.88 938.342 2153.18 938.342 Q2145.07 938.342 2140.49 933.62 Q2135.93 928.875 2135.93 920.426 Q2135.93 911.953 2140.49 907.231 Q2145.07 902.486 2153.18 902.486 Q2156.56 902.486 2159.59 903.319 Q2162.64 904.153 2165.21 905.773 L2165.21 910.75 Q2162.62 908.551 2159.7 907.44 Q2156.79 906.328 2153.57 906.328 Q2147.23 906.328 2144.03 909.87 Q2140.86 913.412 2140.86 920.426 Q2140.86 927.416 2144.03 930.958 Q2147.23 934.5 2153.57 934.5 Q2156.05 934.5 2157.99 934.083 Q2159.94 933.643 2161.49 932.74 Z" fill="#000000" fill-rule="nonzero" fill-opacity="1" /><path clip-path="url(#clip390)" d="M2179.33 906.953 L2179.33 919.94 L2185.21 919.94 Q2188.48 919.94 2190.26 918.25 Q2192.04 916.56 2192.04 913.435 Q2192.04 910.333 2190.26 908.643 Q2188.48 906.953 2185.21 906.953 L2179.33 906.953 M2174.66 903.111 L2185.21 903.111 Q2191.02 903.111 2193.99 905.75 Q2196.97 908.365 2196.97 913.435 Q2196.97 918.551 2193.99 921.166 Q2191.02 923.782 2185.21 923.782 L2179.33 923.782 L2179.33 937.671 L2174.66 937.671 L2174.66 903.111 Z" fill="#000000" fill-rule="nonzero" fill-opacity="1" /><path clip-path="url(#clip390)" d="M2223.96 904.245 L2223.96 908.805 Q2221.3 907.532 2218.94 906.907 Q2216.58 906.282 2214.38 906.282 Q2210.56 906.282 2208.48 907.764 Q2206.42 909.245 2206.42 911.977 Q2206.42 914.268 2207.78 915.449 Q2209.17 916.606 2213.01 917.324 L2215.84 917.902 Q2221.07 918.898 2223.55 921.421 Q2226.05 923.921 2226.05 928.134 Q2226.05 933.157 2222.67 935.75 Q2219.31 938.342 2212.81 938.342 Q2210.35 938.342 2207.57 937.787 Q2204.82 937.231 2201.86 936.143 L2201.86 931.328 Q2204.7 932.926 2207.44 933.736 Q2210.17 934.546 2212.81 934.546 Q2216.81 934.546 2218.99 932.972 Q2221.16 931.398 2221.16 928.481 Q2221.16 925.935 2219.59 924.5 Q2218.04 923.064 2214.47 922.347 L2211.62 921.791 Q2206.39 920.75 2204.06 918.527 Q2201.72 916.305 2201.72 912.347 Q2201.72 907.764 2204.94 905.125 Q2208.18 902.486 2213.85 902.486 Q2216.28 902.486 2218.8 902.926 Q2221.32 903.366 2223.96 904.245 Z" fill="#000000" fill-rule="nonzero" fill-opacity="1" /><path clip-path="url(#clip390)" d="M2254.06 904.245 L2254.06 908.805 Q2251.39 907.532 2249.03 906.907 Q2246.67 906.282 2244.47 906.282 Q2240.65 906.282 2238.57 907.764 Q2236.51 909.245 2236.51 911.977 Q2236.51 914.268 2237.87 915.449 Q2239.26 916.606 2243.11 917.324 L2245.93 917.902 Q2251.16 918.898 2253.64 921.421 Q2256.14 923.921 2256.14 928.134 Q2256.14 933.157 2252.76 935.75 Q2249.4 938.342 2242.9 938.342 Q2240.44 938.342 2237.67 937.787 Q2234.91 937.231 2231.95 936.143 L2231.95 931.328 Q2234.8 932.926 2237.53 933.736 Q2240.26 934.546 2242.9 934.546 Q2246.9 934.546 2249.08 932.972 Q2251.25 931.398 2251.25 928.481 Q2251.25 925.935 2249.68 924.5 Q2248.13 923.064 2244.56 922.347 L2241.72 921.791 Q2236.49 920.75 2234.15 918.527 Q2231.81 916.305 2231.81 912.347 Q2231.81 907.764 2235.03 905.125 Q2238.27 902.486 2243.94 902.486 Q2246.37 902.486 2248.89 902.926 Q2251.42 903.366 2254.06 904.245 Z" fill="#000000" fill-rule="nonzero" fill-opacity="1" /></svg>
