<?xml version="1.0" encoding="utf-8"?>
<svg xmlns="http://www.w3.org/2000/svg" xmlns:xlink="http://www.w3.org/1999/xlink" width="600" height="400" viewBox="0 0 2400 1600">
<defs>
  <clipPath id="clip960">
    <rect x="0" y="0" width="2400" height="1600"/>
  </clipPath>
</defs>
<path clip-path="url(#clip960)" d="M0 1600 L2400 1600 L2400 0 L0 0  Z" fill="#ffffff" fill-rule="evenodd" fill-opacity="1"/>
<defs>
  <clipPath id="clip961">
    <rect x="480" y="0" width="1681" height="1600"/>
  </clipPath>
</defs>
<path clip-path="url(#clip960)" d="M178.867 686.448 L2352.76 686.448 L2352.76 47.2441 L178.867 47.2441  Z" fill="#ffffff" fill-rule="evenodd" fill-opacity="1"/>
<defs>
  <clipPath id="clip962">
    <rect x="178" y="47" width="2175" height="640"/>
  </clipPath>
</defs>
<polyline clip-path="url(#clip962)" style="stroke:#000000; stroke-linecap:round; stroke-linejoin:round; stroke-width:2; stroke-opacity:0.1; fill:none" points="238.339,686.448 238.339,47.2441 "/>
<polyline clip-path="url(#clip962)" style="stroke:#000000; stroke-linecap:round; stroke-linejoin:round; stroke-width:2; stroke-opacity:0.1; fill:none" points="751.562,686.448 751.562,47.2441 "/>
<polyline clip-path="url(#clip962)" style="stroke:#000000; stroke-linecap:round; stroke-linejoin:round; stroke-width:2; stroke-opacity:0.1; fill:none" points="1264.78,686.448 1264.78,47.2441 "/>
<polyline clip-path="url(#clip962)" style="stroke:#000000; stroke-linecap:round; stroke-linejoin:round; stroke-width:2; stroke-opacity:0.1; fill:none" points="1778.01,686.448 1778.01,47.2441 "/>
<polyline clip-path="url(#clip962)" style="stroke:#000000; stroke-linecap:round; stroke-linejoin:round; stroke-width:2; stroke-opacity:0.1; fill:none" points="2291.23,686.448 2291.23,47.2441 "/>
<polyline clip-path="url(#clip962)" style="stroke:#000000; stroke-linecap:round; stroke-linejoin:round; stroke-width:2; stroke-opacity:0.1; fill:none" points="178.867,686.448 2352.76,686.448 "/>
<polyline clip-path="url(#clip962)" style="stroke:#000000; stroke-linecap:round; stroke-linejoin:round; stroke-width:2; stroke-opacity:0.1; fill:none" points="178.867,526.647 2352.76,526.647 "/>
<polyline clip-path="url(#clip962)" style="stroke:#000000; stroke-linecap:round; stroke-linejoin:round; stroke-width:2; stroke-opacity:0.1; fill:none" points="178.867,366.846 2352.76,366.846 "/>
<polyline clip-path="url(#clip962)" style="stroke:#000000; stroke-linecap:round; stroke-linejoin:round; stroke-width:2; stroke-opacity:0.1; fill:none" points="178.867,207.045 2352.76,207.045 "/>
<polyline clip-path="url(#clip962)" style="stroke:#000000; stroke-linecap:round; stroke-linejoin:round; stroke-width:2; stroke-opacity:0.1; fill:none" points="178.867,47.2441 2352.76,47.2441 "/>
<polyline clip-path="url(#clip960)" style="stroke:#000000; stroke-linecap:round; stroke-linejoin:round; stroke-width:4; stroke-opacity:1; fill:none" points="178.867,686.448 2352.76,686.448 "/>
<polyline clip-path="url(#clip960)" style="stroke:#000000; stroke-linecap:round; stroke-linejoin:round; stroke-width:4; stroke-opacity:1; fill:none" points="238.339,686.448 238.339,667.55 "/>
<polyline clip-path="url(#clip960)" style="stroke:#000000; stroke-linecap:round; stroke-linejoin:round; stroke-width:4; stroke-opacity:1; fill:none" points="751.562,686.448 751.562,667.55 "/>
<polyline clip-path="url(#clip960)" style="stroke:#000000; stroke-linecap:round; stroke-linejoin:round; stroke-width:4; stroke-opacity:1; fill:none" points="1264.78,686.448 1264.78,667.55 "/>
<polyline clip-path="url(#clip960)" style="stroke:#000000; stroke-linecap:round; stroke-linejoin:round; stroke-width:4; stroke-opacity:1; fill:none" points="1778.01,686.448 1778.01,667.55 "/>
<polyline clip-path="url(#clip960)" style="stroke:#000000; stroke-linecap:round; stroke-linejoin:round; stroke-width:4; stroke-opacity:1; fill:none" points="2291.23,686.448 2291.23,667.55 "/>
<path clip-path="url(#clip960)" d="M238.339 717.367 Q234.728 717.367 232.899 720.931 Q231.094 724.473 231.094 731.603 Q231.094 738.709 232.899 742.274 Q234.728 745.815 238.339 745.815 Q241.973 745.815 243.779 742.274 Q245.607 738.709 245.607 731.603 Q245.607 724.473 243.779 720.931 Q241.973 717.367 238.339 717.367 M238.339 713.663 Q244.149 713.663 247.205 718.269 Q250.283 722.853 250.283 731.603 Q250.283 740.329 247.205 744.936 Q244.149 749.519 238.339 749.519 Q232.529 749.519 229.45 744.936 Q226.395 740.329 226.395 731.603 Q226.395 722.853 229.45 718.269 Q232.529 713.663 238.339 713.663 Z" fill="#000000" fill-rule="nonzero" fill-opacity="1" /><path clip-path="url(#clip960)" d="M715.254 744.913 L731.574 744.913 L731.574 748.848 L709.629 748.848 L709.629 744.913 Q712.291 742.158 716.875 737.528 Q721.481 732.876 722.662 731.533 Q724.907 729.01 725.787 727.274 Q726.689 725.515 726.689 723.825 Q726.689 721.07 724.745 719.334 Q722.824 717.598 719.722 717.598 Q717.523 717.598 715.069 718.362 Q712.638 719.126 709.861 720.677 L709.861 715.955 Q712.685 714.82 715.138 714.242 Q717.592 713.663 719.629 713.663 Q725 713.663 728.194 716.348 Q731.388 719.033 731.388 723.524 Q731.388 725.654 730.578 727.575 Q729.791 729.473 727.685 732.066 Q727.106 732.737 724.004 735.954 Q720.902 739.149 715.254 744.913 Z" fill="#000000" fill-rule="nonzero" fill-opacity="1" /><path clip-path="url(#clip960)" d="M741.435 714.288 L759.791 714.288 L759.791 718.223 L745.717 718.223 L745.717 726.695 Q746.736 726.348 747.754 726.186 Q748.773 726.001 749.791 726.001 Q755.578 726.001 758.958 729.172 Q762.337 732.343 762.337 737.76 Q762.337 743.339 758.865 746.44 Q755.393 749.519 749.073 749.519 Q746.898 749.519 744.629 749.149 Q742.384 748.778 739.976 748.038 L739.976 743.339 Q742.06 744.473 744.282 745.028 Q746.504 745.584 748.981 745.584 Q752.985 745.584 755.323 743.478 Q757.661 741.371 757.661 737.76 Q757.661 734.149 755.323 732.042 Q752.985 729.936 748.981 729.936 Q747.106 729.936 745.231 730.353 Q743.379 730.769 741.435 731.649 L741.435 714.288 Z" fill="#000000" fill-rule="nonzero" fill-opacity="1" /><path clip-path="url(#clip960)" d="M781.55 717.367 Q777.939 717.367 776.11 720.931 Q774.305 724.473 774.305 731.603 Q774.305 738.709 776.11 742.274 Q777.939 745.815 781.55 745.815 Q785.184 745.815 786.99 742.274 Q788.819 738.709 788.819 731.603 Q788.819 724.473 786.99 720.931 Q785.184 717.367 781.55 717.367 M781.55 713.663 Q787.36 713.663 790.416 718.269 Q793.495 722.853 793.495 731.603 Q793.495 740.329 790.416 744.936 Q787.36 749.519 781.55 749.519 Q775.74 749.519 772.661 744.936 Q769.606 740.329 769.606 731.603 Q769.606 722.853 772.661 718.269 Q775.74 713.663 781.55 713.663 Z" fill="#000000" fill-rule="nonzero" fill-opacity="1" /><path clip-path="url(#clip960)" d="M1224.4 714.288 L1242.76 714.288 L1242.76 718.223 L1228.69 718.223 L1228.69 726.695 Q1229.7 726.348 1230.72 726.186 Q1231.74 726.001 1232.76 726.001 Q1238.55 726.001 1241.93 729.172 Q1245.31 732.343 1245.31 737.76 Q1245.31 743.339 1241.83 746.44 Q1238.36 749.519 1232.04 749.519 Q1229.87 749.519 1227.6 749.149 Q1225.35 748.778 1222.94 748.038 L1222.94 743.339 Q1225.03 744.473 1227.25 745.028 Q1229.47 745.584 1231.95 745.584 Q1235.95 745.584 1238.29 743.478 Q1240.63 741.371 1240.63 737.76 Q1240.63 734.149 1238.29 732.042 Q1235.95 729.936 1231.95 729.936 Q1230.07 729.936 1228.2 730.353 Q1226.35 730.769 1224.4 731.649 L1224.4 714.288 Z" fill="#000000" fill-rule="nonzero" fill-opacity="1" /><path clip-path="url(#clip960)" d="M1264.52 717.367 Q1260.91 717.367 1259.08 720.931 Q1257.27 724.473 1257.27 731.603 Q1257.27 738.709 1259.08 742.274 Q1260.91 745.815 1264.52 745.815 Q1268.15 745.815 1269.96 742.274 Q1271.79 738.709 1271.79 731.603 Q1271.79 724.473 1269.96 720.931 Q1268.15 717.367 1264.52 717.367 M1264.52 713.663 Q1270.33 713.663 1273.38 718.269 Q1276.46 722.853 1276.46 731.603 Q1276.46 740.329 1273.38 744.936 Q1270.33 749.519 1264.52 749.519 Q1258.71 749.519 1255.63 744.936 Q1252.57 740.329 1252.57 731.603 Q1252.57 722.853 1255.63 718.269 Q1258.71 713.663 1264.52 713.663 Z" fill="#000000" fill-rule="nonzero" fill-opacity="1" /><path clip-path="url(#clip960)" d="M1294.68 717.367 Q1291.07 717.367 1289.24 720.931 Q1287.44 724.473 1287.44 731.603 Q1287.44 738.709 1289.24 742.274 Q1291.07 745.815 1294.68 745.815 Q1298.31 745.815 1300.12 742.274 Q1301.95 738.709 1301.95 731.603 Q1301.95 724.473 1300.12 720.931 Q1298.31 717.367 1294.68 717.367 M1294.68 713.663 Q1300.49 713.663 1303.55 718.269 Q1306.62 722.853 1306.62 731.603 Q1306.62 740.329 1303.55 744.936 Q1300.49 749.519 1294.68 749.519 Q1288.87 749.519 1285.79 744.936 Q1282.74 740.329 1282.74 731.603 Q1282.74 722.853 1285.79 718.269 Q1288.87 713.663 1294.68 713.663 Z" fill="#000000" fill-rule="nonzero" fill-opacity="1" /><path clip-path="url(#clip960)" d="M1736.28 714.288 L1758.51 714.288 L1758.51 716.279 L1745.96 748.848 L1741.08 748.848 L1752.88 718.223 L1736.28 718.223 L1736.28 714.288 Z" fill="#000000" fill-rule="nonzero" fill-opacity="1" /><path clip-path="url(#clip960)" d="M1767.67 714.288 L1786.03 714.288 L1786.03 718.223 L1771.95 718.223 L1771.95 726.695 Q1772.97 726.348 1773.99 726.186 Q1775.01 726.001 1776.03 726.001 Q1781.82 726.001 1785.2 729.172 Q1788.57 732.343 1788.57 737.76 Q1788.57 743.339 1785.1 746.44 Q1781.63 749.519 1775.31 749.519 Q1773.14 749.519 1770.87 749.149 Q1768.62 748.778 1766.21 748.038 L1766.21 743.339 Q1768.3 744.473 1770.52 745.028 Q1772.74 745.584 1775.22 745.584 Q1779.22 745.584 1781.56 743.478 Q1783.9 741.371 1783.9 737.76 Q1783.9 734.149 1781.56 732.042 Q1779.22 729.936 1775.22 729.936 Q1773.34 729.936 1771.47 730.353 Q1769.62 730.769 1767.67 731.649 L1767.67 714.288 Z" fill="#000000" fill-rule="nonzero" fill-opacity="1" /><path clip-path="url(#clip960)" d="M1807.79 717.367 Q1804.18 717.367 1802.35 720.931 Q1800.54 724.473 1800.54 731.603 Q1800.54 738.709 1802.35 742.274 Q1804.18 745.815 1807.79 745.815 Q1811.42 745.815 1813.23 742.274 Q1815.06 738.709 1815.06 731.603 Q1815.06 724.473 1813.23 720.931 Q1811.42 717.367 1807.79 717.367 M1807.79 713.663 Q1813.6 713.663 1816.65 718.269 Q1819.73 722.853 1819.73 731.603 Q1819.73 740.329 1816.65 744.936 Q1813.6 749.519 1807.79 749.519 Q1801.98 749.519 1798.9 744.936 Q1795.84 740.329 1795.84 731.603 Q1795.84 722.853 1798.9 718.269 Q1801.98 713.663 1807.79 713.663 Z" fill="#000000" fill-rule="nonzero" fill-opacity="1" /><path clip-path="url(#clip960)" d="M2235.76 744.913 L2243.4 744.913 L2243.4 718.547 L2235.09 720.214 L2235.09 715.955 L2243.35 714.288 L2248.02 714.288 L2248.02 744.913 L2255.66 744.913 L2255.66 748.848 L2235.76 748.848 L2235.76 744.913 Z" fill="#000000" fill-rule="nonzero" fill-opacity="1" /><path clip-path="url(#clip960)" d="M2275.11 717.367 Q2271.5 717.367 2269.67 720.931 Q2267.86 724.473 2267.86 731.603 Q2267.86 738.709 2269.67 742.274 Q2271.5 745.815 2275.11 745.815 Q2278.74 745.815 2280.55 742.274 Q2282.38 738.709 2282.38 731.603 Q2282.38 724.473 2280.55 720.931 Q2278.74 717.367 2275.11 717.367 M2275.11 713.663 Q2280.92 713.663 2283.97 718.269 Q2287.05 722.853 2287.05 731.603 Q2287.05 740.329 2283.97 744.936 Q2280.92 749.519 2275.11 749.519 Q2269.3 749.519 2266.22 744.936 Q2263.16 740.329 2263.16 731.603 Q2263.16 722.853 2266.22 718.269 Q2269.3 713.663 2275.11 713.663 Z" fill="#000000" fill-rule="nonzero" fill-opacity="1" /><path clip-path="url(#clip960)" d="M2305.27 717.367 Q2301.66 717.367 2299.83 720.931 Q2298.02 724.473 2298.02 731.603 Q2298.02 738.709 2299.83 742.274 Q2301.66 745.815 2305.27 745.815 Q2308.9 745.815 2310.71 742.274 Q2312.54 738.709 2312.54 731.603 Q2312.54 724.473 2310.71 720.931 Q2308.9 717.367 2305.27 717.367 M2305.27 713.663 Q2311.08 713.663 2314.14 718.269 Q2317.21 722.853 2317.21 731.603 Q2317.21 740.329 2314.14 744.936 Q2311.08 749.519 2305.27 749.519 Q2299.46 749.519 2296.38 744.936 Q2293.33 740.329 2293.33 731.603 Q2293.33 722.853 2296.38 718.269 Q2299.46 713.663 2305.27 713.663 Z" fill="#000000" fill-rule="nonzero" fill-opacity="1" /><path clip-path="url(#clip960)" d="M2335.43 717.367 Q2331.82 717.367 2329.99 720.931 Q2328.19 724.473 2328.19 731.603 Q2328.19 738.709 2329.99 742.274 Q2331.82 745.815 2335.43 745.815 Q2339.07 745.815 2340.87 742.274 Q2342.7 738.709 2342.7 731.603 Q2342.7 724.473 2340.87 720.931 Q2339.07 717.367 2335.43 717.367 M2335.43 713.663 Q2341.24 713.663 2344.3 718.269 Q2347.38 722.853 2347.38 731.603 Q2347.38 740.329 2344.3 744.936 Q2341.24 749.519 2335.43 749.519 Q2329.62 749.519 2326.54 744.936 Q2323.49 740.329 2323.49 731.603 Q2323.49 722.853 2326.54 718.269 Q2329.62 713.663 2335.43 713.663 Z" fill="#000000" fill-rule="nonzero" fill-opacity="1" /><polyline clip-path="url(#clip960)" style="stroke:#000000; stroke-linecap:round; stroke-linejoin:round; stroke-width:4; stroke-opacity:1; fill:none" points="178.867,686.448 178.867,47.2441 "/>
<polyline clip-path="url(#clip960)" style="stroke:#000000; stroke-linecap:round; stroke-linejoin:round; stroke-width:4; stroke-opacity:1; fill:none" points="178.867,686.448 197.764,686.448 "/>
<polyline clip-path="url(#clip960)" style="stroke:#000000; stroke-linecap:round; stroke-linejoin:round; stroke-width:4; stroke-opacity:1; fill:none" points="178.867,526.647 197.764,526.647 "/>
<polyline clip-path="url(#clip960)" style="stroke:#000000; stroke-linecap:round; stroke-linejoin:round; stroke-width:4; stroke-opacity:1; fill:none" points="178.867,366.846 197.764,366.846 "/>
<polyline clip-path="url(#clip960)" style="stroke:#000000; stroke-linecap:round; stroke-linejoin:round; stroke-width:4; stroke-opacity:1; fill:none" points="178.867,207.045 197.764,207.045 "/>
<polyline clip-path="url(#clip960)" style="stroke:#000000; stroke-linecap:round; stroke-linejoin:round; stroke-width:4; stroke-opacity:1; fill:none" points="178.867,47.2441 197.764,47.2441 "/>
<path clip-path="url(#clip960)" d="M50.9921 686.899 L80.6679 686.899 L80.6679 690.834 L50.9921 690.834 L50.9921 686.899 Z" fill="#000000" fill-rule="nonzero" fill-opacity="1" /><path clip-path="url(#clip960)" d="M91.5706 699.793 L99.2095 699.793 L99.2095 673.427 L90.8993 675.094 L90.8993 670.835 L99.1632 669.168 L103.839 669.168 L103.839 699.793 L111.478 699.793 L111.478 703.728 L91.5706 703.728 L91.5706 699.793 Z" fill="#000000" fill-rule="nonzero" fill-opacity="1" /><path clip-path="url(#clip960)" d="M130.922 672.247 Q127.311 672.247 125.482 675.811 Q123.677 679.353 123.677 686.483 Q123.677 693.589 125.482 697.154 Q127.311 700.695 130.922 700.695 Q134.556 700.695 136.362 697.154 Q138.191 693.589 138.191 686.483 Q138.191 679.353 136.362 675.811 Q134.556 672.247 130.922 672.247 M130.922 668.543 Q136.732 668.543 139.788 673.149 Q142.867 677.733 142.867 686.483 Q142.867 695.209 139.788 699.816 Q136.732 704.399 130.922 704.399 Q125.112 704.399 122.033 699.816 Q118.978 695.209 118.978 686.483 Q118.978 677.733 122.033 673.149 Q125.112 668.543 130.922 668.543 Z" fill="#000000" fill-rule="nonzero" fill-opacity="1" /><path clip-path="url(#clip960)" d="M82.1494 527.098 L111.825 527.098 L111.825 531.033 L82.1494 531.033 L82.1494 527.098 Z" fill="#000000" fill-rule="nonzero" fill-opacity="1" /><path clip-path="url(#clip960)" d="M121.964 509.367 L140.32 509.367 L140.32 513.302 L126.246 513.302 L126.246 521.774 Q127.265 521.427 128.283 521.265 Q129.302 521.08 130.32 521.08 Q136.107 521.08 139.487 524.251 Q142.867 527.422 142.867 532.839 Q142.867 538.418 139.394 541.52 Q135.922 544.598 129.603 544.598 Q127.427 544.598 125.158 544.228 Q122.913 543.857 120.506 543.117 L120.506 538.418 Q122.589 539.552 124.811 540.108 Q127.033 540.663 129.51 540.663 Q133.515 540.663 135.853 538.557 Q138.191 536.45 138.191 532.839 Q138.191 529.228 135.853 527.121 Q133.515 525.015 129.51 525.015 Q127.635 525.015 125.76 525.432 Q123.908 525.848 121.964 526.728 L121.964 509.367 Z" fill="#000000" fill-rule="nonzero" fill-opacity="1" /><path clip-path="url(#clip960)" d="M130.922 352.645 Q127.311 352.645 125.482 356.209 Q123.677 359.751 123.677 366.881 Q123.677 373.987 125.482 377.552 Q127.311 381.094 130.922 381.094 Q134.556 381.094 136.362 377.552 Q138.191 373.987 138.191 366.881 Q138.191 359.751 136.362 356.209 Q134.556 352.645 130.922 352.645 M130.922 348.941 Q136.732 348.941 139.788 353.547 Q142.867 358.131 142.867 366.881 Q142.867 375.608 139.788 380.214 Q136.732 384.797 130.922 384.797 Q125.112 384.797 122.033 380.214 Q118.978 375.608 118.978 366.881 Q118.978 358.131 122.033 353.547 Q125.112 348.941 130.922 348.941 Z" fill="#000000" fill-rule="nonzero" fill-opacity="1" /><path clip-path="url(#clip960)" d="M121.964 189.765 L140.32 189.765 L140.32 193.7 L126.246 193.7 L126.246 202.172 Q127.265 201.825 128.283 201.663 Q129.302 201.478 130.32 201.478 Q136.107 201.478 139.487 204.649 Q142.867 207.82 142.867 213.237 Q142.867 218.816 139.394 221.918 Q135.922 224.996 129.603 224.996 Q127.427 224.996 125.158 224.626 Q122.913 224.256 120.506 223.515 L120.506 218.816 Q122.589 219.95 124.811 220.506 Q127.033 221.061 129.51 221.061 Q133.515 221.061 135.853 218.955 Q138.191 216.848 138.191 213.237 Q138.191 209.626 135.853 207.52 Q133.515 205.413 129.51 205.413 Q127.635 205.413 125.76 205.83 Q123.908 206.246 121.964 207.126 L121.964 189.765 Z" fill="#000000" fill-rule="nonzero" fill-opacity="1" /><path clip-path="url(#clip960)" d="M91.5706 60.5889 L99.2095 60.5889 L99.2095 34.2233 L90.8993 35.89 L90.8993 31.6308 L99.1632 29.9641 L103.839 29.9641 L103.839 60.5889 L111.478 60.5889 L111.478 64.5241 L91.5706 64.5241 L91.5706 60.5889 Z" fill="#000000" fill-rule="nonzero" fill-opacity="1" /><path clip-path="url(#clip960)" d="M130.922 33.0428 Q127.311 33.0428 125.482 36.6076 Q123.677 40.1492 123.677 47.2788 Q123.677 54.3853 125.482 57.9501 Q127.311 61.4917 130.922 61.4917 Q134.556 61.4917 136.362 57.9501 Q138.191 54.3853 138.191 47.2788 Q138.191 40.1492 136.362 36.6076 Q134.556 33.0428 130.922 33.0428 M130.922 29.3391 Q136.732 29.3391 139.788 33.9456 Q142.867 38.5289 142.867 47.2788 Q142.867 56.0056 139.788 60.6121 Q136.732 65.1954 130.922 65.1954 Q125.112 65.1954 122.033 60.6121 Q118.978 56.0056 118.978 47.2788 Q118.978 38.5289 122.033 33.9456 Q125.112 29.3391 130.922 29.3391 Z" fill="#000000" fill-rule="nonzero" fill-opacity="1" /><polyline clip-path="url(#clip962)" style="stroke:#009af9; stroke-linecap:round; stroke-linejoin:round; stroke-width:4; stroke-opacity:1; fill:none" points="240.392,334.886 242.445,331.968 244.498,338.425 246.55,357.607 248.603,357.484 250.656,357.369 252.709,359.411 254.762,362.047 256.815,362.435 258.868,337.14 260.921,364.128 262.974,358.42 265.027,427.366 267.079,438.585 269.132,431.755 271.185,429.701 273.238,439.794 275.291,429.19 277.344,448.925 279.397,425.301 281.45,418.148 283.503,408.62 285.555,405.733 287.608,405.377 289.661,397.53 291.714,389.713 293.767,371.403 295.82,375.087 297.873,373.916 299.926,377.51 301.979,388.616 304.031,389.037 306.084,387.674 308.137,346.312 310.19,371.169 312.243,382.178 314.296,388.972 316.349,389.057 318.402,385.688 320.455,385.586 322.507,367.335 324.56,367.416 326.613,353.119 328.666,353.302 330.719,353.91 332.772,344.562 334.825,347.446 336.878,354.317 338.931,339.338 340.984,341.663 343.036,353.382 345.089,351.131 347.142,349.929 349.195,359.379 351.248,346.088 353.301,348.367 355.354,347.906 357.407,345.019 359.46,347.524 361.512,345.075 363.565,344.958 365.618,342.342 367.671,350.144 369.724,321.164 371.777,346.034 373.83,345.623 375.883,345.875 377.936,347.801 379.988,339.368 382.041,339.432 384.094,335.677 386.147,332.112 388.2,332.094 390.253,323.8 392.306,324.01 394.359,323.291 396.412,335.777 398.464,335.821 400.517,337.742 402.57,337.826 404.623,340.529 406.676,324.62 408.729,322.74 410.782,320.351 412.835,305.441 414.888,310.991 416.94,335.324 418.993,336.347 421.046,332.568 423.099,333.445 425.152,340.451 427.205,340.04 429.258,320.02 431.311,320.092 433.364,324.241 435.417,323.579 437.469,307.195 439.522,308.194 441.575,279.487 443.628,273.241 445.681,278.278 447.734,304.42 449.787,305.901 451.84,299.927 453.893,329.792 455.945,335.868 457.998,361.493 460.051,425.558 462.104,380.714 464.157,330.254 466.21,327.633 468.263,327.291 470.316,317.325 472.369,395.439 474.421,396.939 476.474,396.674 478.527,405.615 480.58,402.426 482.633,402.572 484.686,405.348 486.739,407.168 488.792,405.759 490.845,407.716 492.897,394.448 494.95,381.683 497.003,381.898 499.056,401.901 501.109,403.194 503.162,416.688 505.215,392.428 507.268,392.424 509.321,395.587 511.374,391.999 513.426,379.142 515.479,376.556 517.532,376.5 519.585,376.416 521.638,377.348 523.691,374.42 525.744,376.765 527.797,380.952 529.85,383.158 531.902,383.151 533.955,343.034 536.008,338.201 538.061,333.269 540.114,333.278 542.167,341.846 544.22,338.496 546.273,338.668 548.326,340.732 550.378,340.601 552.431,340.565 554.484,340.525 556.537,377.231 558.59,364.838 560.643,369.261 562.696,340.222 564.749,339.792 566.802,338.152 568.854,341.385 570.907,341.378 572.96,341.388 575.013,338.748 577.066,347.697 579.119,341.768 581.172,336.348 583.225,338.318 585.278,338.769 587.331,356.746 589.383,356.575 591.436,356.575 593.489,356.796 595.542,361.205 597.595,348.171 599.648,360.217 601.701,352.228 603.754,385.107 605.807,347.286 607.859,356.124 609.912,356.125 611.965,348.858 614.018,344.941 616.071,387.493 618.124,384.61 620.177,384.776 622.23,390.042 624.283,391.963 626.335,393.816 628.388,394.813 630.441,388.468 632.494,387.285 634.547,350.829 636.6,343.985 638.653,344.268 640.706,343.296 642.759,342.917 644.811,336.491 646.864,336.956 648.917,333.225 650.97,331.825 653.023,350.568 655.076,350.422 657.129,341.475 659.182,342.399 661.235,340.09 663.288,347.55 665.34,359.693 667.393,372.156 669.446,349.187 671.499,356.215 673.552,365.411 675.605,365.211 677.658,375.907 679.711,387.827 681.764,387.83 683.816,393.517 685.869,331.995 687.922,371.431 689.975,371.262 692.028,353.957 694.081,353.174 696.134,363.18 698.187,382.069 700.24,394.807 702.292,383.958 704.345,383.935 706.398,385.289 708.451,388.916 710.504,395.835 712.557,386.392 714.61,386.403 716.663,402.451 718.716,399.055 720.768,399.339 722.821,408.978 724.874,409.5 726.927,382.46 728.98,382.74 731.033,383.913 733.086,371.257 735.139,390.756 737.192,389.628 739.245,382.087 741.297,378.798 743.35,370.331 745.403,369.625 747.456,369.754 749.509,364.4 751.562,367.812 753.615,401.735 755.668,401.363 757.721,401.203 759.773,397.91 761.826,413.543 763.879,394.54 765.932,405.573 767.985,415.856 770.038,409.592 772.091,439.551 774.144,421.177 776.197,420.803 778.249,380.748 780.302,337.195 782.355,338.511 784.408,258.598 786.461,250.527 788.514,219.102 790.567,218.615 792.62,250.984 794.673,277.794 796.725,260.378 798.778,445.247 800.831,442.164 802.884,449.516 804.937,450.548 806.99,364.392 809.043,344.219 811.096,344.355 813.149,312.425 815.202,287.596 817.254,287.253 819.307,347.772 821.36,340.059 823.413,340.343 825.466,336.402 827.519,338.877 829.572,336.189 831.625,335.119 833.678,357.337 835.73,287.443 837.783,286.155 839.836,415.975 841.889,416.273 843.942,333.368 845.995,321.108 848.048,318.411 850.101,344.058 852.154,376.149 854.206,396.647 856.259,408.518 858.312,383.107 860.365,383.281 862.418,398.841 864.471,414.417 866.524,395.995 868.577,265.751 870.63,264.718 872.682,265.411 874.735,257.395 876.788,256.486 878.841,240.472 880.894,241.681 882.947,241.523 885,245.626 887.053,261.747 889.106,286.771 891.159,238.528 893.211,251.983 895.264,279.787 897.317,234.272 899.37,232.275 901.423,296.459 903.476,204.682 905.529,201.784 907.582,202.657 909.635,447.632 911.687,447.146 913.74,374.915 915.793,320.832 917.846,378.987 919.899,379.34 921.952,394.361 924.005,421.06 926.058,420.852 928.111,205.05 930.163,163.153 932.216,194.543 934.269,219.606 936.322,316.775 938.375,316.665 940.428,427.652 942.481,563.182 944.534,567.685 946.587,566.445 948.639,570.622 950.692,561.723 952.745,433.256 954.798,327.072 956.851,334.264 958.904,337.636 960.957,238.93 963.01,190.146 965.063,199.839 967.116,197.932 969.168,313.615 971.221,262.493 973.274,278.186 975.327,282.367 977.38,283.15 979.433,362.164 981.486,342.292 983.539,319.881 985.592,338.919 987.644,336.568 989.697,332.853 991.75,292.603 993.803,305.313 995.856,313.123 997.909,313.008 999.962,335.994 1002.01,335.315 1004.07,334.99 1006.12,325.558 1008.17,316.909 1010.23,316.775 1012.28,334.44 1014.33,321.016 1016.38,320.021 1018.44,303.304 1020.49,326.88 1022.54,290.72 1024.6,263.115 1026.65,259.518 1028.7,261.251 1030.76,255.126 1032.81,250.838 1034.86,245.109 1036.91,234.989 1038.97,248.628 1041.02,169.694 1043.07,168.332 1045.13,168.391 1047.18,176.959 1049.23,178.058 1051.28,235.847 1053.34,235.529 1055.39,277.01 1057.44,221.341 1059.5,227.34 1061.55,236.438 1063.6,199.907 1065.65,242.18 1067.71,587.501 1069.76,546.131 1071.81,530.495 1073.87,441.595 1075.92,413.502 1077.97,420.715 1080.02,420.002 1082.08,383.239 1084.13,487.976 1086.18,504.343 1088.24,527.714 1090.29,498.371 1092.34,498.366 1094.39,481.947 1096.45,417.453 1098.5,433.681 1100.55,383.133 1102.61,372.096 1104.66,365.077 1106.71,416.706 1108.77,421.175 1110.82,396.538 1112.87,398.206 1114.92,360.521 1116.98,367.007 1119.03,358.526 1121.08,347.898 1123.14,342.699 1125.19,353.865 1127.24,379.68 1129.29,321.418 1131.35,316.27 1133.4,368.33 1135.45,610.02 1137.51,608.843 1139.56,636.076 1141.61,611.265 1143.66,620.417 1145.72,621.434 1147.77,585.289 1149.82,582.54 1151.88,611.197 1153.93,577.23 1155.98,416.386 1158.03,348.486 1160.09,342.234 1162.14,355.992 1164.19,353.926 1166.25,387.128 1168.3,348.714 1170.35,424.644 1172.4,451.831 1174.46,506.315 1176.51,331.981 1178.56,308.157 1180.62,242.213 1182.67,242.74 1184.72,261.577 1186.77,265.629 1188.83,275.412 1190.88,345.755 1192.93,341.506 1194.99,340.166 1197.04,348.729 1199.09,349.833 1201.15,339.178 1203.2,339.166 1205.25,356.886 1207.3,369.329 1209.36,364.329 1211.41,316.364 1213.46,287.925 1215.52,321.107 1217.57,320.748 1219.62,320.958 1221.67,400.985 1223.73,675.62 1225.78,717.987 1227.83,715.921 1229.89,624.474 1231.94,634.622 1233.99,694.945 1236.04,657.086 1238.1,632.881 1240.15,628.076 1242.2,599.893 1244.26,563.889 1246.31,376.653 1248.36,375.9 1250.41,369.253 1252.47,360.961 1254.52,322.148 1256.57,340.088 1258.63,325.61 1260.68,281.122 1262.73,283.355 1264.78,276.814 1266.84,274.515 1268.89,274.698 1270.94,333.895 1273,333.895 1275.05,339.28 1277.1,350.03 1279.16,364.845 1281.21,338.453 1283.26,335.687 1285.31,390.304 1287.37,386.936 1289.42,381.485 1291.47,429.155 1293.53,426.396 1295.58,424.609 1297.63,400.232 1299.68,400.376 1301.74,405.83 1303.79,405.853 1305.84,405.832 1307.9,404.234 1309.95,393.546 1312,466.538 1314.05,480.834 1316.11,479.388 1318.16,475.809 1320.21,476.16 1322.27,441.327 1324.32,450.458 1326.37,454.099 1328.42,493.203 1330.48,425.682 1332.53,486.033 1334.58,484.862 1336.64,372.647 1338.69,375.147 1340.74,408.901 1342.79,425.751 1344.85,426.717 1346.9,426.692 1348.95,419.55 1351.01,418.438 1353.06,360.926 1355.11,361.415 1357.16,368.349 1359.22,359.582 1361.27,363.247 1363.32,362.988 1365.38,374.007 1367.43,383.311 1369.48,385.419 1371.54,382.804 1373.59,370.868 1375.64,365.835 1377.69,368.768 1379.75,360.239 1381.8,362.426 1383.85,335.756 1385.91,326.543 1387.96,329.464 1390.01,330.57 1392.06,330.812 1394.12,307.128 1396.17,359.528 1398.22,360.61 1400.28,361.153 1402.33,361.398 1404.38,361.678 1406.43,361.73 1408.49,360.999 1410.54,403.116 1412.59,400.737 1414.65,403.075 1416.7,407.118 1418.75,423.649 1420.8,385.206 1422.86,385.669 1424.91,387.953 1426.96,388.618 1429.02,389.732 1431.07,389.644 1433.12,387.757 1435.17,411.855 1437.23,392.238 1439.28,387.501 1441.33,351.252 1443.39,312.503 1445.44,312.544 1447.49,317.291 1449.55,317.656 1451.6,328.687 1453.65,327.599 1455.7,323.259 1457.76,323.569 1459.81,341.515 1461.86,351.01 1463.92,301.852 1465.97,302.288 1468.02,299.921 1470.07,299.281 1472.13,298.774 1474.18,299.273 1476.23,302.237 1478.29,301.634 1480.34,303.885 1482.39,305.289 1484.44,292.512 1486.5,288.39 1488.55,349.159 1490.6,348.936 1492.66,350.483 1494.71,391.67 1496.76,355.601 1498.81,349.366 1500.87,346.008 1502.92,324.17 1504.97,337.912 1507.03,312.234 1509.08,312.608 1511.13,312.545 1513.18,314.018 1515.24,313.946 1517.29,317.314 1519.34,317.023 1521.4,320.419 1523.45,354.591 1525.5,356.769 1527.55,386.724 1529.61,395.45 1531.66,393.824 1533.71,394.366 1535.77,392.317 1537.82,391.653 1539.87,395.269 1541.93,394.972 1543.98,380.98 1546.03,380.741 1548.08,371.014 1550.14,382.074 1552.19,388.056 1554.24,389.89 1556.3,391.385 1558.35,388.25 1560.4,388.703 1562.45,397.348 1564.51,392.175 1566.56,392.161 1568.61,392.532 1570.67,388.472 1572.72,400.571 1574.77,359.596 1576.82,401.611 1578.88,402.198 1580.93,402.511 1582.98,396.363 1585.04,396.223 1587.09,382.385 1589.14,381.012 1591.19,381.269 1593.25,385.323 1595.3,381.792 1597.35,402.671 1599.41,402.64 1601.46,402.665 1603.51,402.661 1605.56,402.823 1607.62,403.292 1609.67,366.859 1611.72,389.205 1613.78,386.227 1615.83,374.603 1617.88,362.193 1619.94,362.193 1621.99,362.395 1624.04,362.806 1626.09,362.825 1628.15,362.902 1630.2,362.902 1632.25,363.054 1634.31,362.126 1636.36,366.519 1638.41,366.239 1640.46,342.809 1642.52,356.665 1644.57,355.734 1646.62,355.757 1648.68,351.54 1650.73,349.513 1652.78,359.803 1654.83,359.995 1656.89,367.088 1658.94,401.057 1660.99,400.966 1663.05,400.059 1665.1,394.684 1667.15,394.8 1669.2,408.084 1671.26,380.1 1673.31,366.957 1675.36,365.093 1677.42,351.414 1679.47,352.449 1681.52,351.813 1683.57,336.869 1685.63,335.587 1687.68,337.782 1689.73,331.389 1691.79,293.16 1693.84,279.103 1695.89,278.01 1697.94,348.877 1700,348.999 1702.05,350.79 1704.1,349.72 1706.16,391.289 1708.21,401.019 1710.26,433.897 1712.32,377.63 1714.37,378.759 1716.42,377.152 1718.47,370.117 1720.53,369.831 1722.58,371.058 1724.63,370.406 1726.69,344.346 1728.74,360.706 1730.79,360.273 1732.84,360.472 1734.9,357.393 1736.95,384.637 1739,382.826 1741.06,382.878 1743.11,383.361 1745.16,378.931 1747.21,358.212 1749.27,390.805 1751.32,384.767 1753.37,389.756 1755.43,389.681 1757.48,386.269 1759.53,392.718 1761.58,389.113 1763.64,391.319 1765.69,340.235 1767.74,339.66 1769.8,335.354 1771.85,347.543 1773.9,352.661 1775.95,381.64 1778.01,377.375 1780.06,370.68 1782.11,361.665 1784.17,355.49 1786.22,348.651 1788.27,348.426 1790.33,357.741 1792.38,358.278 1794.43,341.663 1796.48,355.344 1798.54,355.314 1800.59,351.12 1802.64,391.91 1804.7,391.995 1806.75,391.046 1808.8,389.91 1810.85,387.954 1812.91,387.975 1814.96,381.03 1817.01,385.641 1819.07,398.377 1821.12,399.513 1823.17,396.625 1825.22,396.076 1827.28,394.415 1829.33,386.826 1831.38,340.785 1833.44,341.505 1835.49,339.619 1837.54,337.998 1839.59,311.212 1841.65,306.07 1843.7,305.11 1845.75,299.282 1847.81,299.021 1849.86,298.347 1851.91,295.983 1853.96,297.354 1856.02,392.146 1858.07,392.147 1860.12,392.446 1862.18,393.78 1864.23,391.32 1866.28,389.019 1868.34,389.217 1870.39,388.092 1872.44,382.594 1874.49,382.918 1876.55,390.278 1878.6,380.792 1880.65,380.774 1882.71,381.058 1884.76,383.085 1886.81,377.511 1888.86,377.773 1890.92,366.263 1892.97,364.563 1895.02,373.342 1897.08,360.49 1899.13,358.811 1901.18,352.268 1903.23,352.053 1905.29,355.772 1907.34,354.637 1909.39,354.941 1911.45,356.73 1913.5,329.873 1915.55,329.902 1917.6,348.487 1919.66,349.1 1921.71,347.472 1923.76,366.191 1925.82,367.561 1927.87,372.214 1929.92,336.6 1931.97,334.025 1934.03,333.272 1936.08,332.572 1938.13,333.692 1940.19,362.459 1942.24,363.956 1944.29,362.125 1946.34,364.127 1948.4,351.895 1950.45,374.222 1952.5,375.889 1954.56,346.371 1956.61,344.763 1958.66,345.177 1960.72,344.522 1962.77,344.501 1964.82,342.243 1966.87,343.921 1968.93,343.984 1970.98,344.589 1973.03,343.168 1975.09,344.347 1977.14,345.734 1979.19,344.891 1981.24,346.409 1983.3,346.316 1985.35,346.788 1987.4,343.283 1989.46,342.535 1991.51,342.318 1993.56,346.183 1995.61,367.886 1997.67,367.823 1999.72,368.676 2001.77,368.857 2003.83,368.31 2005.88,368.494 2007.93,370.595 2009.98,370.976 2012.04,370.872 2014.09,372.552 2016.14,371.198 2018.2,372.048 2020.25,331.747 2022.3,314.067 2024.35,347.265 2026.41,347.96 2028.46,314.142 2030.51,313.119 2032.57,313.114 2034.62,326.898 2036.67,353.91 2038.73,353.077 2040.78,355.948 2042.83,384.718 2044.88,343.037 2046.94,402.737 2048.99,389.447 2051.04,390.572 2053.1,389.967 2055.15,390.583 2057.2,389.948 2059.25,397.018 2061.31,393.162 2063.36,393.005 2065.41,411.15 2067.47,410.46 2069.52,411.18 2071.57,350.006 2073.62,315.761 2075.68,335.341 2077.73,335.731 2079.78,336.919 2081.84,392.513 2083.89,397.654 2085.94,281.872 2087.99,260.167 2090.05,386.166 2092.1,427.294 2094.15,467.756 2096.21,285.478 2098.26,324.45 2100.31,365.017 2102.36,378.626 2104.42,379.401 2106.47,351.898 2108.52,356.075 2110.58,355.522 2112.63,340.948 2114.68,341.044 2116.73,347.821 2118.79,347.05 2120.84,346.812 2122.89,368.685 2124.95,363.198 2127,363.174 2129.05,362.391 2131.11,362.603 2133.16,361.957 2135.21,362.185 2137.26,362.191 2139.32,353.717 2141.37,350.667 2143.42,372.057 2145.48,372.301 2147.53,374.06 2149.58,379.695 2151.63,389.773 2153.69,365.16 2155.74,365.304 2157.79,365.013 2159.85,359.463 2161.9,309.737 2163.95,293.514 2166,296.1 2168.06,295.279 2170.11,276.848 2172.16,277.8 2174.22,280.993 2176.27,272.603 2178.32,305.776 2180.37,304.37 2182.43,312.036 2184.48,326.918 2186.53,340.825 2188.59,343.982 2190.64,342.336 2192.69,342.592 2194.74,354.814 2196.8,360.713 2198.85,360.628 2200.9,357.771 2202.96,357.115 2205.01,394.178 2207.06,395.304 2209.12,392.813 2211.17,393.659 2213.22,387.146 2215.27,397.778 2217.33,399.342 2219.38,406.339 2221.43,400.136 2223.49,359.464 2225.54,359.438 2227.59,340.707 2229.64,339.329 2231.7,335.543 2233.75,336.028 2235.8,373.838 2237.86,371.323 2239.91,379.817 2241.96,380.161 2244.01,380.232 2246.07,380.376 2248.12,380.426 2250.17,370.063 2252.23,369.758 2254.28,369.023 2256.33,368.437 2258.38,364.576 2260.44,360.605 2262.49,350.942 2264.54,347.87 2266.6,333.284 2268.65,328.862 2270.7,328.902 2272.75,325.324 2274.81,326.074 2276.86,324.934 2278.91,326.553 2280.97,325.312 2283.02,325.308 2285.07,324.939 2287.12,325.093 2289.18,328.499 2291.23,356.608 "/>
<path clip-path="url(#clip960)" d="M1983.6 172.231 L2280.29 172.231 L2280.29 68.5509 L1983.6 68.5509  Z" fill="#ffffff" fill-rule="evenodd" fill-opacity="1"/>
<polyline clip-path="url(#clip960)" style="stroke:#000000; stroke-linecap:round; stroke-linejoin:round; stroke-width:4; stroke-opacity:1; fill:none" points="1983.6,172.231 2280.29,172.231 2280.29,68.5509 1983.6,68.5509 1983.6,172.231 "/>
<polyline clip-path="url(#clip960)" style="stroke:#009af9; stroke-linecap:round; stroke-linejoin:round; stroke-width:4; stroke-opacity:1; fill:none" points="2007.75,120.391 2152.68,120.391 "/>
<path clip-path="url(#clip960)" d="M2176.83 103.111 L2181.51 103.111 L2181.51 133.736 L2198.34 133.736 L2198.34 137.671 L2176.83 137.671 L2176.83 103.111 Z" fill="#000000" fill-rule="nonzero" fill-opacity="1" /><path clip-path="url(#clip960)" d="M2223.96 104.245 L2223.96 108.805 Q2221.3 107.532 2218.94 106.907 Q2216.58 106.282 2214.38 106.282 Q2210.56 106.282 2208.48 107.764 Q2206.42 109.245 2206.42 111.977 Q2206.42 114.268 2207.78 115.449 Q2209.17 116.606 2213.01 117.324 L2215.84 117.902 Q2221.07 118.898 2223.55 121.421 Q2226.05 123.921 2226.05 128.134 Q2226.05 133.157 2222.67 135.75 Q2219.31 138.342 2212.81 138.342 Q2210.35 138.342 2207.57 137.787 Q2204.82 137.231 2201.86 136.143 L2201.86 131.328 Q2204.7 132.926 2207.44 133.736 Q2210.17 134.546 2212.81 134.546 Q2216.81 134.546 2218.99 132.972 Q2221.16 131.398 2221.16 128.481 Q2221.16 125.935 2219.59 124.5 Q2218.04 123.064 2214.47 122.347 L2211.62 121.791 Q2206.39 120.75 2204.06 118.527 Q2201.72 116.305 2201.72 112.347 Q2201.72 107.764 2204.94 105.125 Q2208.18 102.486 2213.85 102.486 Q2216.28 102.486 2218.8 102.926 Q2221.32 103.366 2223.96 104.245 Z" fill="#000000" fill-rule="nonzero" fill-opacity="1" /><path clip-path="url(#clip960)" d="M2254.06 104.245 L2254.06 108.805 Q2251.39 107.532 2249.03 106.907 Q2246.67 106.282 2244.47 106.282 Q2240.65 106.282 2238.57 107.764 Q2236.51 109.245 2236.51 111.977 Q2236.51 114.268 2237.87 115.449 Q2239.26 116.606 2243.11 117.324 L2245.93 117.902 Q2251.16 118.898 2253.64 121.421 Q2256.14 123.921 2256.14 128.134 Q2256.14 133.157 2252.76 135.75 Q2249.4 138.342 2242.9 138.342 Q2240.44 138.342 2237.67 137.787 Q2234.91 137.231 2231.95 136.143 L2231.95 131.328 Q2234.8 132.926 2237.53 133.736 Q2240.26 134.546 2242.9 134.546 Q2246.9 134.546 2249.08 132.972 Q2251.25 131.398 2251.25 128.481 Q2251.25 125.935 2249.68 124.5 Q2248.13 123.064 2244.56 122.347 L2241.72 121.791 Q2236.49 120.75 2234.15 118.527 Q2231.81 116.305 2231.81 112.347 Q2231.81 107.764 2235.03 105.125 Q2238.27 102.486 2243.94 102.486 Q2246.37 102.486 2248.89 102.926 Q2251.42 103.366 2254.06 104.245 Z" fill="#000000" fill-rule="nonzero" fill-opacity="1" /><path clip-path="url(#clip960)" d="M178.867 1486.45 L2352.76 1486.45 L2352.76 847.244 L178.867 847.244  Z" fill="#ffffff" fill-rule="evenodd" fill-opacity="1"/>
<defs>
  <clipPath id="clip963">
    <rect x="178" y="847" width="2175" height="640"/>
  </clipPath>
</defs>
<polyline clip-path="url(#clip963)" style="stroke:#000000; stroke-linecap:round; stroke-linejoin:round; stroke-width:2; stroke-opacity:0.1; fill:none" points="238.339,1486.45 238.339,847.244 "/>
<polyline clip-path="url(#clip963)" style="stroke:#000000; stroke-linecap:round; stroke-linejoin:round; stroke-width:2; stroke-opacity:0.1; fill:none" points="751.562,1486.45 751.562,847.244 "/>
<polyline clip-path="url(#clip963)" style="stroke:#000000; stroke-linecap:round; stroke-linejoin:round; stroke-width:2; stroke-opacity:0.1; fill:none" points="1264.78,1486.45 1264.78,847.244 "/>
<polyline clip-path="url(#clip963)" style="stroke:#000000; stroke-linecap:round; stroke-linejoin:round; stroke-width:2; stroke-opacity:0.1; fill:none" points="1778.01,1486.45 1778.01,847.244 "/>
<polyline clip-path="url(#clip963)" style="stroke:#000000; stroke-linecap:round; stroke-linejoin:round; stroke-width:2; stroke-opacity:0.1; fill:none" points="2291.23,1486.45 2291.23,847.244 "/>
<polyline clip-path="url(#clip963)" style="stroke:#000000; stroke-linecap:round; stroke-linejoin:round; stroke-width:2; stroke-opacity:0.1; fill:none" points="178.867,1486.45 2352.76,1486.45 "/>
<polyline clip-path="url(#clip963)" style="stroke:#000000; stroke-linecap:round; stroke-linejoin:round; stroke-width:2; stroke-opacity:0.1; fill:none" points="178.867,1326.65 2352.76,1326.65 "/>
<polyline clip-path="url(#clip963)" style="stroke:#000000; stroke-linecap:round; stroke-linejoin:round; stroke-width:2; stroke-opacity:0.1; fill:none" points="178.867,1166.85 2352.76,1166.85 "/>
<polyline clip-path="url(#clip963)" style="stroke:#000000; stroke-linecap:round; stroke-linejoin:round; stroke-width:2; stroke-opacity:0.1; fill:none" points="178.867,1007.05 2352.76,1007.05 "/>
<polyline clip-path="url(#clip963)" style="stroke:#000000; stroke-linecap:round; stroke-linejoin:round; stroke-width:2; stroke-opacity:0.1; fill:none" points="178.867,847.244 2352.76,847.244 "/>
<polyline clip-path="url(#clip960)" style="stroke:#000000; stroke-linecap:round; stroke-linejoin:round; stroke-width:4; stroke-opacity:1; fill:none" points="178.867,1486.45 2352.76,1486.45 "/>
<polyline clip-path="url(#clip960)" style="stroke:#000000; stroke-linecap:round; stroke-linejoin:round; stroke-width:4; stroke-opacity:1; fill:none" points="238.339,1486.45 238.339,1467.55 "/>
<polyline clip-path="url(#clip960)" style="stroke:#000000; stroke-linecap:round; stroke-linejoin:round; stroke-width:4; stroke-opacity:1; fill:none" points="751.562,1486.45 751.562,1467.55 "/>
<polyline clip-path="url(#clip960)" style="stroke:#000000; stroke-linecap:round; stroke-linejoin:round; stroke-width:4; stroke-opacity:1; fill:none" points="1264.78,1486.45 1264.78,1467.55 "/>
<polyline clip-path="url(#clip960)" style="stroke:#000000; stroke-linecap:round; stroke-linejoin:round; stroke-width:4; stroke-opacity:1; fill:none" points="1778.01,1486.45 1778.01,1467.55 "/>
<polyline clip-path="url(#clip960)" style="stroke:#000000; stroke-linecap:round; stroke-linejoin:round; stroke-width:4; stroke-opacity:1; fill:none" points="2291.23,1486.45 2291.23,1467.55 "/>
<path clip-path="url(#clip960)" d="M238.339 1517.37 Q234.728 1517.37 232.899 1520.93 Q231.094 1524.47 231.094 1531.6 Q231.094 1538.71 232.899 1542.27 Q234.728 1545.82 238.339 1545.82 Q241.973 1545.82 243.779 1542.27 Q245.607 1538.71 245.607 1531.6 Q245.607 1524.47 243.779 1520.93 Q241.973 1517.37 238.339 1517.37 M238.339 1513.66 Q244.149 1513.66 247.205 1518.27 Q250.283 1522.85 250.283 1531.6 Q250.283 1540.33 247.205 1544.94 Q244.149 1549.52 238.339 1549.52 Q232.529 1549.52 229.45 1544.94 Q226.395 1540.33 226.395 1531.6 Q226.395 1522.85 229.45 1518.27 Q232.529 1513.66 238.339 1513.66 Z" fill="#000000" fill-rule="nonzero" fill-opacity="1" /><path clip-path="url(#clip960)" d="M715.254 1544.91 L731.574 1544.91 L731.574 1548.85 L709.629 1548.85 L709.629 1544.91 Q712.291 1542.16 716.875 1537.53 Q721.481 1532.88 722.662 1531.53 Q724.907 1529.01 725.787 1527.27 Q726.689 1525.51 726.689 1523.82 Q726.689 1521.07 724.745 1519.33 Q722.824 1517.6 719.722 1517.6 Q717.523 1517.6 715.069 1518.36 Q712.638 1519.13 709.861 1520.68 L709.861 1515.95 Q712.685 1514.82 715.138 1514.24 Q717.592 1513.66 719.629 1513.66 Q725 1513.66 728.194 1516.35 Q731.388 1519.03 731.388 1523.52 Q731.388 1525.65 730.578 1527.57 Q729.791 1529.47 727.685 1532.07 Q727.106 1532.74 724.004 1535.95 Q720.902 1539.15 715.254 1544.91 Z" fill="#000000" fill-rule="nonzero" fill-opacity="1" /><path clip-path="url(#clip960)" d="M741.435 1514.29 L759.791 1514.29 L759.791 1518.22 L745.717 1518.22 L745.717 1526.7 Q746.736 1526.35 747.754 1526.19 Q748.773 1526 749.791 1526 Q755.578 1526 758.958 1529.17 Q762.337 1532.34 762.337 1537.76 Q762.337 1543.34 758.865 1546.44 Q755.393 1549.52 749.073 1549.52 Q746.898 1549.52 744.629 1549.15 Q742.384 1548.78 739.976 1548.04 L739.976 1543.34 Q742.06 1544.47 744.282 1545.03 Q746.504 1545.58 748.981 1545.58 Q752.985 1545.58 755.323 1543.48 Q757.661 1541.37 757.661 1537.76 Q757.661 1534.15 755.323 1532.04 Q752.985 1529.94 748.981 1529.94 Q747.106 1529.94 745.231 1530.35 Q743.379 1530.77 741.435 1531.65 L741.435 1514.29 Z" fill="#000000" fill-rule="nonzero" fill-opacity="1" /><path clip-path="url(#clip960)" d="M781.55 1517.37 Q777.939 1517.37 776.11 1520.93 Q774.305 1524.47 774.305 1531.6 Q774.305 1538.71 776.11 1542.27 Q777.939 1545.82 781.55 1545.82 Q785.184 1545.82 786.99 1542.27 Q788.819 1538.71 788.819 1531.6 Q788.819 1524.47 786.99 1520.93 Q785.184 1517.37 781.55 1517.37 M781.55 1513.66 Q787.36 1513.66 790.416 1518.27 Q793.495 1522.85 793.495 1531.6 Q793.495 1540.33 790.416 1544.94 Q787.36 1549.52 781.55 1549.52 Q775.74 1549.52 772.661 1544.94 Q769.606 1540.33 769.606 1531.6 Q769.606 1522.85 772.661 1518.27 Q775.74 1513.66 781.55 1513.66 Z" fill="#000000" fill-rule="nonzero" fill-opacity="1" /><path clip-path="url(#clip960)" d="M1224.4 1514.29 L1242.76 1514.29 L1242.76 1518.22 L1228.69 1518.22 L1228.69 1526.7 Q1229.7 1526.35 1230.72 1526.19 Q1231.74 1526 1232.76 1526 Q1238.55 1526 1241.93 1529.17 Q1245.31 1532.34 1245.31 1537.76 Q1245.31 1543.34 1241.83 1546.44 Q1238.36 1549.52 1232.04 1549.52 Q1229.87 1549.52 1227.6 1549.15 Q1225.35 1548.78 1222.94 1548.04 L1222.94 1543.34 Q1225.03 1544.47 1227.25 1545.03 Q1229.47 1545.58 1231.95 1545.58 Q1235.95 1545.58 1238.29 1543.48 Q1240.63 1541.37 1240.63 1537.76 Q1240.63 1534.15 1238.29 1532.04 Q1235.95 1529.94 1231.95 1529.94 Q1230.07 1529.94 1228.2 1530.35 Q1226.35 1530.77 1224.4 1531.65 L1224.4 1514.29 Z" fill="#000000" fill-rule="nonzero" fill-opacity="1" /><path clip-path="url(#clip960)" d="M1264.52 1517.37 Q1260.91 1517.37 1259.08 1520.93 Q1257.27 1524.47 1257.27 1531.6 Q1257.27 1538.71 1259.08 1542.27 Q1260.91 1545.82 1264.52 1545.82 Q1268.15 1545.82 1269.96 1542.27 Q1271.79 1538.71 1271.79 1531.6 Q1271.79 1524.47 1269.96 1520.93 Q1268.15 1517.37 1264.52 1517.37 M1264.52 1513.66 Q1270.33 1513.66 1273.38 1518.27 Q1276.46 1522.85 1276.46 1531.6 Q1276.46 1540.33 1273.38 1544.94 Q1270.33 1549.52 1264.52 1549.52 Q1258.71 1549.52 1255.63 1544.94 Q1252.57 1540.33 1252.57 1531.6 Q1252.57 1522.85 1255.63 1518.27 Q1258.71 1513.66 1264.52 1513.66 Z" fill="#000000" fill-rule="nonzero" fill-opacity="1" /><path clip-path="url(#clip960)" d="M1294.68 1517.37 Q1291.07 1517.37 1289.24 1520.93 Q1287.44 1524.47 1287.44 1531.6 Q1287.44 1538.71 1289.24 1542.27 Q1291.07 1545.82 1294.68 1545.82 Q1298.31 1545.82 1300.12 1542.27 Q1301.95 1538.71 1301.95 1531.6 Q1301.95 1524.47 1300.12 1520.93 Q1298.31 1517.37 1294.68 1517.37 M1294.68 1513.66 Q1300.49 1513.66 1303.55 1518.27 Q1306.62 1522.85 1306.62 1531.6 Q1306.62 1540.33 1303.55 1544.94 Q1300.49 1549.52 1294.68 1549.52 Q1288.87 1549.52 1285.79 1544.94 Q1282.74 1540.33 1282.74 1531.6 Q1282.74 1522.85 1285.79 1518.27 Q1288.87 1513.66 1294.68 1513.66 Z" fill="#000000" fill-rule="nonzero" fill-opacity="1" /><path clip-path="url(#clip960)" d="M1736.28 1514.29 L1758.51 1514.29 L1758.51 1516.28 L1745.96 1548.85 L1741.08 1548.85 L1752.88 1518.22 L1736.28 1518.22 L1736.28 1514.29 Z" fill="#000000" fill-rule="nonzero" fill-opacity="1" /><path clip-path="url(#clip960)" d="M1767.67 1514.29 L1786.03 1514.29 L1786.03 1518.22 L1771.95 1518.22 L1771.95 1526.7 Q1772.97 1526.35 1773.99 1526.19 Q1775.01 1526 1776.03 1526 Q1781.82 1526 1785.2 1529.17 Q1788.57 1532.34 1788.57 1537.76 Q1788.57 1543.34 1785.1 1546.44 Q1781.63 1549.52 1775.31 1549.52 Q1773.14 1549.52 1770.87 1549.15 Q1768.62 1548.78 1766.21 1548.04 L1766.21 1543.34 Q1768.3 1544.47 1770.52 1545.03 Q1772.74 1545.58 1775.22 1545.58 Q1779.22 1545.58 1781.56 1543.48 Q1783.9 1541.37 1783.9 1537.76 Q1783.9 1534.15 1781.56 1532.04 Q1779.22 1529.94 1775.22 1529.94 Q1773.34 1529.94 1771.47 1530.35 Q1769.62 1530.77 1767.67 1531.65 L1767.67 1514.29 Z" fill="#000000" fill-rule="nonzero" fill-opacity="1" /><path clip-path="url(#clip960)" d="M1807.79 1517.37 Q1804.18 1517.37 1802.35 1520.93 Q1800.54 1524.47 1800.54 1531.6 Q1800.54 1538.71 1802.35 1542.27 Q1804.18 1545.82 1807.79 1545.82 Q1811.42 1545.82 1813.23 1542.27 Q1815.06 1538.71 1815.06 1531.6 Q1815.06 1524.47 1813.23 1520.93 Q1811.42 1517.37 1807.79 1517.37 M1807.79 1513.66 Q1813.6 1513.66 1816.65 1518.27 Q1819.73 1522.85 1819.73 1531.6 Q1819.73 1540.33 1816.65 1544.94 Q1813.6 1549.52 1807.79 1549.52 Q1801.98 1549.52 1798.9 1544.94 Q1795.84 1540.33 1795.84 1531.6 Q1795.84 1522.85 1798.9 1518.27 Q1801.98 1513.66 1807.79 1513.66 Z" fill="#000000" fill-rule="nonzero" fill-opacity="1" /><path clip-path="url(#clip960)" d="M2235.76 1544.91 L2243.4 1544.91 L2243.4 1518.55 L2235.09 1520.21 L2235.09 1515.95 L2243.35 1514.29 L2248.02 1514.29 L2248.02 1544.91 L2255.66 1544.91 L2255.66 1548.85 L2235.76 1548.85 L2235.76 1544.91 Z" fill="#000000" fill-rule="nonzero" fill-opacity="1" /><path clip-path="url(#clip960)" d="M2275.11 1517.37 Q2271.5 1517.37 2269.67 1520.93 Q2267.86 1524.47 2267.86 1531.6 Q2267.86 1538.71 2269.67 1542.27 Q2271.5 1545.82 2275.11 1545.82 Q2278.74 1545.82 2280.55 1542.27 Q2282.38 1538.71 2282.38 1531.6 Q2282.38 1524.47 2280.55 1520.93 Q2278.74 1517.37 2275.11 1517.37 M2275.11 1513.66 Q2280.92 1513.66 2283.97 1518.27 Q2287.05 1522.85 2287.05 1531.6 Q2287.05 1540.33 2283.97 1544.94 Q2280.92 1549.52 2275.11 1549.52 Q2269.3 1549.52 2266.22 1544.94 Q2263.16 1540.33 2263.16 1531.6 Q2263.16 1522.85 2266.22 1518.27 Q2269.3 1513.66 2275.11 1513.66 Z" fill="#000000" fill-rule="nonzero" fill-opacity="1" /><path clip-path="url(#clip960)" d="M2305.27 1517.37 Q2301.66 1517.37 2299.83 1520.93 Q2298.02 1524.47 2298.02 1531.6 Q2298.02 1538.71 2299.83 1542.27 Q2301.66 1545.82 2305.27 1545.82 Q2308.9 1545.82 2310.71 1542.27 Q2312.54 1538.71 2312.54 1531.6 Q2312.54 1524.47 2310.71 1520.93 Q2308.9 1517.37 2305.27 1517.37 M2305.27 1513.66 Q2311.08 1513.66 2314.14 1518.27 Q2317.21 1522.85 2317.21 1531.6 Q2317.21 1540.33 2314.14 1544.94 Q2311.08 1549.52 2305.27 1549.52 Q2299.46 1549.52 2296.38 1544.94 Q2293.33 1540.33 2293.33 1531.6 Q2293.33 1522.85 2296.38 1518.27 Q2299.46 1513.66 2305.27 1513.66 Z" fill="#000000" fill-rule="nonzero" fill-opacity="1" /><path clip-path="url(#clip960)" d="M2335.43 1517.37 Q2331.82 1517.37 2329.99 1520.93 Q2328.19 1524.47 2328.19 1531.6 Q2328.19 1538.71 2329.99 1542.27 Q2331.82 1545.82 2335.43 1545.82 Q2339.07 1545.82 2340.87 1542.27 Q2342.7 1538.71 2342.7 1531.6 Q2342.7 1524.47 2340.87 1520.93 Q2339.07 1517.37 2335.43 1517.37 M2335.43 1513.66 Q2341.24 1513.66 2344.3 1518.27 Q2347.38 1522.85 2347.38 1531.6 Q2347.38 1540.33 2344.3 1544.94 Q2341.24 1549.52 2335.43 1549.52 Q2329.62 1549.52 2326.54 1544.94 Q2323.49 1540.33 2323.49 1531.6 Q2323.49 1522.85 2326.54 1518.27 Q2329.62 1513.66 2335.43 1513.66 Z" fill="#000000" fill-rule="nonzero" fill-opacity="1" /><polyline clip-path="url(#clip960)" style="stroke:#000000; stroke-linecap:round; stroke-linejoin:round; stroke-width:4; stroke-opacity:1; fill:none" points="178.867,1486.45 178.867,847.244 "/>
<polyline clip-path="url(#clip960)" style="stroke:#000000; stroke-linecap:round; stroke-linejoin:round; stroke-width:4; stroke-opacity:1; fill:none" points="178.867,1486.45 197.764,1486.45 "/>
<polyline clip-path="url(#clip960)" style="stroke:#000000; stroke-linecap:round; stroke-linejoin:round; stroke-width:4; stroke-opacity:1; fill:none" points="178.867,1326.65 197.764,1326.65 "/>
<polyline clip-path="url(#clip960)" style="stroke:#000000; stroke-linecap:round; stroke-linejoin:round; stroke-width:4; stroke-opacity:1; fill:none" points="178.867,1166.85 197.764,1166.85 "/>
<polyline clip-path="url(#clip960)" style="stroke:#000000; stroke-linecap:round; stroke-linejoin:round; stroke-width:4; stroke-opacity:1; fill:none" points="178.867,1007.05 197.764,1007.05 "/>
<polyline clip-path="url(#clip960)" style="stroke:#000000; stroke-linecap:round; stroke-linejoin:round; stroke-width:4; stroke-opacity:1; fill:none" points="178.867,847.244 197.764,847.244 "/>
<path clip-path="url(#clip960)" d="M50.9921 1486.9 L80.6679 1486.9 L80.6679 1490.83 L50.9921 1490.83 L50.9921 1486.9 Z" fill="#000000" fill-rule="nonzero" fill-opacity="1" /><path clip-path="url(#clip960)" d="M91.5706 1499.79 L99.2095 1499.79 L99.2095 1473.43 L90.8993 1475.09 L90.8993 1470.83 L99.1632 1469.17 L103.839 1469.17 L103.839 1499.79 L111.478 1499.79 L111.478 1503.73 L91.5706 1503.73 L91.5706 1499.79 Z" fill="#000000" fill-rule="nonzero" fill-opacity="1" /><path clip-path="url(#clip960)" d="M130.922 1472.25 Q127.311 1472.25 125.482 1475.81 Q123.677 1479.35 123.677 1486.48 Q123.677 1493.59 125.482 1497.15 Q127.311 1500.7 130.922 1500.7 Q134.556 1500.7 136.362 1497.15 Q138.191 1493.59 138.191 1486.48 Q138.191 1479.35 136.362 1475.81 Q134.556 1472.25 130.922 1472.25 M130.922 1468.54 Q136.732 1468.54 139.788 1473.15 Q142.867 1477.73 142.867 1486.48 Q142.867 1495.21 139.788 1499.82 Q136.732 1504.4 130.922 1504.4 Q125.112 1504.4 122.033 1499.82 Q118.978 1495.21 118.978 1486.48 Q118.978 1477.73 122.033 1473.15 Q125.112 1468.54 130.922 1468.54 Z" fill="#000000" fill-rule="nonzero" fill-opacity="1" /><path clip-path="url(#clip960)" d="M82.1494 1327.1 L111.825 1327.1 L111.825 1331.03 L82.1494 1331.03 L82.1494 1327.1 Z" fill="#000000" fill-rule="nonzero" fill-opacity="1" /><path clip-path="url(#clip960)" d="M121.964 1309.37 L140.32 1309.37 L140.32 1313.3 L126.246 1313.3 L126.246 1321.77 Q127.265 1321.43 128.283 1321.27 Q129.302 1321.08 130.32 1321.08 Q136.107 1321.08 139.487 1324.25 Q142.867 1327.42 142.867 1332.84 Q142.867 1338.42 139.394 1341.52 Q135.922 1344.6 129.603 1344.6 Q127.427 1344.6 125.158 1344.23 Q122.913 1343.86 120.506 1343.12 L120.506 1338.42 Q122.589 1339.55 124.811 1340.11 Q127.033 1340.66 129.51 1340.66 Q133.515 1340.66 135.853 1338.56 Q138.191 1336.45 138.191 1332.84 Q138.191 1329.23 135.853 1327.12 Q133.515 1325.01 129.51 1325.01 Q127.635 1325.01 125.76 1325.43 Q123.908 1325.85 121.964 1326.73 L121.964 1309.37 Z" fill="#000000" fill-rule="nonzero" fill-opacity="1" /><path clip-path="url(#clip960)" d="M130.922 1152.64 Q127.311 1152.64 125.482 1156.21 Q123.677 1159.75 123.677 1166.88 Q123.677 1173.99 125.482 1177.55 Q127.311 1181.09 130.922 1181.09 Q134.556 1181.09 136.362 1177.55 Q138.191 1173.99 138.191 1166.88 Q138.191 1159.75 136.362 1156.21 Q134.556 1152.64 130.922 1152.64 M130.922 1148.94 Q136.732 1148.94 139.788 1153.55 Q142.867 1158.13 142.867 1166.88 Q142.867 1175.61 139.788 1180.21 Q136.732 1184.8 130.922 1184.8 Q125.112 1184.8 122.033 1180.21 Q118.978 1175.61 118.978 1166.88 Q118.978 1158.13 122.033 1153.55 Q125.112 1148.94 130.922 1148.94 Z" fill="#000000" fill-rule="nonzero" fill-opacity="1" /><path clip-path="url(#clip960)" d="M121.964 989.765 L140.32 989.765 L140.32 993.7 L126.246 993.7 L126.246 1002.17 Q127.265 1001.83 128.283 1001.66 Q129.302 1001.48 130.32 1001.48 Q136.107 1001.48 139.487 1004.65 Q142.867 1007.82 142.867 1013.24 Q142.867 1018.82 139.394 1021.92 Q135.922 1025 129.603 1025 Q127.427 1025 125.158 1024.63 Q122.913 1024.26 120.506 1023.51 L120.506 1018.82 Q122.589 1019.95 124.811 1020.51 Q127.033 1021.06 129.51 1021.06 Q133.515 1021.06 135.853 1018.95 Q138.191 1016.85 138.191 1013.24 Q138.191 1009.63 135.853 1007.52 Q133.515 1005.41 129.51 1005.41 Q127.635 1005.41 125.76 1005.83 Q123.908 1006.25 121.964 1007.13 L121.964 989.765 Z" fill="#000000" fill-rule="nonzero" fill-opacity="1" /><path clip-path="url(#clip960)" d="M91.5706 860.589 L99.2095 860.589 L99.2095 834.223 L90.8993 835.89 L90.8993 831.631 L99.1632 829.964 L103.839 829.964 L103.839 860.589 L111.478 860.589 L111.478 864.524 L91.5706 864.524 L91.5706 860.589 Z" fill="#000000" fill-rule="nonzero" fill-opacity="1" /><path clip-path="url(#clip960)" d="M130.922 833.043 Q127.311 833.043 125.482 836.608 Q123.677 840.149 123.677 847.279 Q123.677 854.385 125.482 857.95 Q127.311 861.492 130.922 861.492 Q134.556 861.492 136.362 857.95 Q138.191 854.385 138.191 847.279 Q138.191 840.149 136.362 836.608 Q134.556 833.043 130.922 833.043 M130.922 829.339 Q136.732 829.339 139.788 833.946 Q142.867 838.529 142.867 847.279 Q142.867 856.006 139.788 860.612 Q136.732 865.195 130.922 865.195 Q125.112 865.195 122.033 860.612 Q118.978 856.006 118.978 847.279 Q118.978 838.529 122.033 833.946 Q125.112 829.339 130.922 829.339 Z" fill="#000000" fill-rule="nonzero" fill-opacity="1" /><polyline clip-path="url(#clip963)" style="stroke:#009af9; stroke-linecap:round; stroke-linejoin:round; stroke-width:4; stroke-opacity:1; fill:none" points="240.392,1134.89 242.445,1134.77 244.498,1179.78 246.55,1160.61 248.603,1189.21 250.656,2181.4 252.709,1026.89 254.762,897.613 256.815,1180.58 258.868,1202.85 260.921,1116.31 262.974,1475.29 265.027,1393.02 267.079,1173.78 269.132,1116.81 271.185,1189.91 273.238,1139.45 275.291,1166.61 277.344,1185.75 279.397,1178.27 281.45,1149.94 283.503,1120.91 285.555,1084.76 287.608,1257.91 289.661,1342.67 291.714,1296.46 293.767,1048.46 295.82,891.185 297.873,1167.88 299.926,1167.96 301.979,1170.95 304.031,1183.62 306.084,1164.5 308.137,1148.25 310.19,1182.67 312.243,1173.51 314.296,1164.91 316.349,1137.78 318.402,1153.74 320.455,1208.53 322.507,1156.47 324.56,1157.16 326.613,1141.51 328.666,1063.66 330.719,1315.63 332.772,1198.37 334.825,1106.2 336.878,1101.03 338.931,1203.46 340.984,1176.24 343.036,1227.66 345.089,1112.9 347.142,1185.5 349.195,1225.73 351.248,1147.75 353.301,1113.91 355.354,1208.81 357.407,1228.19 359.46,1037.93 361.512,985.47 363.565,973.705 365.618,1037.32 367.671,1103.53 369.724,1095.18 371.777,1278.98 373.83,1216.01 375.883,1134.11 377.936,1179.55 379.988,1173.21 382.041,1158.99 384.094,1146.89 386.147,1186.41 388.2,1161.39 390.253,1172.3 392.306,1153.66 394.359,1177.91 396.412,1174.66 398.464,1146.04 400.517,1159.65 402.57,1209.67 404.623,1279.71 406.676,1281.34 408.729,1254.92 410.782,1087.06 412.835,1199.85 414.888,1149.47 416.94,1166.67 418.993,1151.93 421.046,1178.69 423.099,1166.7 425.152,1175.81 427.205,1151.08 429.258,1095.21 431.311,1127.42 433.364,1115.77 435.417,1125 437.469,1195.4 439.522,1173.22 441.575,1185.73 443.628,1173.44 445.681,1152.51 447.734,1033.76 449.787,1099.8 451.84,1250.65 453.893,1460.01 455.945,697.762 457.998,1295.56 460.051,1247.99 462.104,1199.41 464.157,1198.57 466.21,1143.91 468.263,1150.36 470.316,999.883 472.369,1157.43 474.421,1166.44 476.474,1124.97 478.527,1184.77 480.58,1158.87 482.633,1127.21 484.686,1194.29 486.739,1090.32 488.792,1218.82 490.845,1233.8 492.897,1118.75 494.95,1060.58 497.003,1233.98 499.056,1302.35 501.109,1211.36 503.162,1193.33 505.215,1077.9 507.268,1211.32 509.321,1146.51 511.374,1130.95 513.426,1183.42 515.479,1185.18 517.532,1157.54 519.585,1254.31 521.638,1123.5 523.691,1206.02 525.744,1143.68 527.797,1025.95 529.85,1135.16 531.902,1193.79 533.955,1178.99 536.008,1148.14 538.061,1202.71 540.114,1149.89 542.167,1139.43 544.22,1170.37 546.273,1173.4 548.326,1178.28 550.378,1157.39 552.431,1150.53 554.484,1211.1 556.537,1162.08 558.59,1166.74 560.643,1167.18 562.696,1135.97 564.749,1181.84 566.802,1136.86 568.854,1117.28 570.907,1195.03 572.96,1108.31 575.013,1206.89 577.066,1196.59 579.119,1141.15 581.172,1194.32 583.225,1188.91 585.278,1143.09 587.331,1193.13 589.383,1197.57 591.436,1007.17 593.489,1051.86 595.542,1063.04 597.595,1248.1 599.648,1100.68 601.701,1210.22 603.754,1156.16 605.807,1199.45 607.859,1208.5 609.912,1133.71 611.965,1176.34 614.018,1178.29 616.071,1234.39 618.124,1178.44 620.177,1183.16 622.23,1204.95 624.283,1129.23 626.335,1191.52 628.388,1155.37 630.441,1185.11 632.494,1152.04 634.547,1181.91 636.6,1174.67 638.653,1122.34 640.706,1145.85 642.759,1185.01 644.811,1159.8 646.864,1178.18 648.917,1160.73 650.97,1168.34 653.023,1171.67 655.076,1167.5 657.129,1133.33 659.182,1161.16 661.235,1110.05 663.288,1183.12 665.34,1182.54 667.393,1144.04 669.446,1095.24 671.499,1253.45 673.552,1207.11 675.605,1129.53 677.658,1117.27 679.711,1220.5 681.764,1188.9 683.816,1189.57 685.869,1191.83 687.922,1139.18 689.975,1191.11 692.028,1190.35 694.081,1133.01 696.134,1170.67 698.187,1160.96 700.24,1175.49 702.292,1164.13 704.345,1178.18 706.398,1086.46 708.451,1109.91 710.504,1201.5 712.557,1168.38 714.61,1152.19 716.663,1132.01 718.716,1182.5 720.768,1135.62 722.821,1141.87 724.874,1205.31 726.927,1170.04 728.98,1168.39 731.033,1312.33 733.086,1192.57 735.139,1006.75 737.192,1835.05 739.245,1744.45 741.297,517.82 743.35,1039.57 745.403,1128.21 747.456,1123.29 749.509,1194.45 751.562,1125.72 753.615,1207.07 755.668,1057.29 757.721,1127.08 759.773,1206.19 761.826,1146.82 763.879,1166.64 765.932,1144.89 767.985,1154.39 770.038,1196.6 772.091,1192.5 774.144,1174.05 776.197,1164.91 778.249,1167.36 780.302,1133.18 782.355,1130.14 784.408,1187.11 786.461,1206.21 788.514,1047.11 790.567,1185.91 792.62,1181.67 794.673,1170.38 796.725,1164.08 798.778,1135.09 800.831,1215.26 802.884,1123.36 804.937,925.368 806.99,1166.93 809.043,970.5 811.096,678.91 813.149,100.001 815.202,1295.94 817.254,1536.48 819.307,8.16002 821.36,839.94 823.413,1276.42 825.466,1110.85 827.519,1280.19 829.572,1006.99 831.625,1503.59 833.678,1177.68 835.73,1176.08 837.783,1134.75 839.836,990.408 841.889,1154.11 843.942,1194.91 845.995,1136.7 848.048,1170.67 850.101,1163.52 852.154,1167.91 854.206,1219.12 856.259,1175.39 858.312,1174.45 860.365,1188.38 862.418,1146.64 864.471,1165.65 866.524,1163.95 868.577,1160.4 870.63,1181.09 872.682,1145.55 874.735,1174.36 876.788,1157.85 878.841,1147.94 880.894,1148.8 882.947,1138.11 885,1163.24 887.053,1156.91 889.106,1159.17 891.159,1123.6 893.211,1199.51 895.264,1123.82 897.317,1122.66 899.37,1189.71 901.423,1187.77 903.476,1136.32 905.529,1152.99 907.582,1168.52 909.635,1125.55 911.687,1056.57 913.74,1475.37 915.793,1708.32 917.846,-4294 919.899,-2351.8 921.952,-2910.66 924.005,1899.29 926.058,1631.04 928.111,1632.39 930.163,1136.16 932.216,1226.71 934.269,1166.67 936.322,1112.73 938.375,1252.15 940.428,1069.87 942.481,1214.56 944.534,1114.26 946.587,1135.77 948.639,1155.85 950.692,1149.57 952.745,1064.97 954.798,1477.89 956.851,1350.59 958.904,1148.32 960.957,1134.77 963.01,1154.42 965.063,1167.76 967.116,1154.65 969.168,1174.93 971.221,1130.61 973.274,1184.57 975.327,1138.96 977.38,1078.31 979.433,1237.04 981.486,1198.71 983.539,1210.26 985.592,1158.7 987.644,1182.06 989.697,1150.91 991.75,1136.19 993.803,1232.71 995.856,1244.9 997.909,1094.29 999.962,1122.97 1002.01,1220.07 1004.07,1259.29 1006.12,1122.99 1008.17,1152.56 1010.23,1171.85 1012.28,827.735 1014.33,1488.96 1016.38,1147.89 1018.44,666.621 1020.49,2440.74 1022.54,1369.91 1024.6,1508.57 1026.65,1264.49 1028.7,1413.76 1030.76,1145.8 1032.81,1189.81 1034.86,1224.27 1036.91,1161.04 1038.97,1152.89 1041.02,1186.44 1043.07,1119.65 1045.13,1181.91 1047.18,1125.65 1049.23,1179.4 1051.28,1220.01 1053.34,1133.9 1055.39,1216.61 1057.44,1231.64 1059.5,1153.09 1061.55,1164.47 1063.6,1192.72 1065.65,1204.9 1067.71,1144.83 1069.76,1158.27 1071.81,1099.26 1073.87,1128.15 1075.92,1116.62 1077.97,1226.28 1080.02,1159.5 1082.08,1144.42 1084.13,1147.85 1086.18,1132.98 1088.24,1198.09 1090.29,1137.86 1092.34,1134.69 1094.39,1146.89 1096.45,1146.85 1098.5,1127 1100.55,1208.91 1102.61,1218.89 1104.66,1178.32 1106.71,1171.13 1108.77,1165.36 1110.82,1222.85 1112.87,1273.14 1114.92,927.12 1116.98,1185.09 1119.03,1314.43 1121.08,1178.89 1123.14,1008.53 1125.19,1127.99 1127.24,1208.17 1129.29,1182.98 1131.35,1159.73 1133.4,1189.6 1135.45,1138.46 1137.51,1146.14 1139.56,1234.08 1141.61,1232.79 1143.66,1258.75 1145.72,1160.38 1147.77,1212.98 1149.82,1168.39 1151.88,1212.88 1153.93,1147.53 1155.98,1213.19 1158.03,1191.67 1160.09,1185.21 1162.14,1231.18 1164.19,1151.33 1166.25,1180.54 1168.3,1145.9 1170.35,1120.2 1172.4,1201.38 1174.46,1508.8 1176.51,659.381 1178.56,2035.77 1180.62,3646.74 1182.67,4356.87 1184.72,-703.205 1186.77,1100.13 1188.83,1350.54 1190.88,1286.4 1192.93,1226.13 1194.99,1154.46 1197.04,1152.4 1199.09,1176.13 1201.15,1140.65 1203.2,1163.75 1205.25,1176.88 1207.3,1157.04 1209.36,1184.67 1211.41,1165.75 1213.46,1158.56 1215.52,1178.21 1217.57,1175.86 1219.62,1146.28 1221.67,1197.14 1223.73,1240.2 1225.78,1245.48 1227.83,1151.3 1229.89,1163.18 1231.94,1162.45 1233.99,1151.23 1236.04,1156.81 1238.1,1160.96 1240.15,1275.79 1242.2,1039.06 1244.26,1258.42 1246.31,1096.26 1248.36,1181.89 1250.41,1236.49 1252.47,1171.59 1254.52,1150.72 1256.57,1188.62 1258.63,1186.52 1260.68,1242.22 1262.73,1176.82 1264.78,1187.52 1266.84,1069.48 1268.89,1126.75 1270.94,954.852 1273,1177.04 1275.05,1253.48 1277.1,1297.12 1279.16,1170.82 1281.21,1127.88 1283.26,1072.23 1285.31,1083.68 1287.37,1795.45 1289.42,-618.082 1291.47,1171.02 1293.53,1151 1295.58,1167.58 1297.63,1135.64 1299.68,1141.51 1301.74,1301.88 1303.79,1010.7 1305.84,1064.44 1307.9,1187.3 1309.95,1169.54 1312,1141.48 1314.05,1152.87 1316.11,1425.6 1318.16,1389.33 1320.21,1187.66 1322.27,1128.16 1324.32,1247.04 1326.37,1262.61 1328.42,1157.96 1330.48,1193.52 1332.53,1133.73 1334.58,1187.53 1336.64,1186.21 1338.69,1345.6 1340.74,1325.97 1342.79,1258.01 1344.85,1232.66 1346.9,1137.78 1348.95,1264.51 1351.01,1116.63 1353.06,1118.89 1355.11,1194.37 1357.16,1157.11 1359.22,1179.89 1361.27,1159.69 1363.32,1146.63 1365.38,1144.73 1367.43,1176.43 1369.48,1163.69 1371.54,1162.43 1373.59,1154.45 1375.64,1048.99 1377.69,1445.34 1379.75,1164.61 1381.8,1188.1 1383.85,1167.71 1385.91,1031.08 1387.96,958.791 1390.01,1501.94 1392.06,1457.88 1394.12,1280.23 1396.17,1254.05 1398.22,1111.35 1400.28,1152.3 1402.33,1184.94 1404.38,1211.3 1406.43,1202.93 1408.49,1110.11 1410.54,1082.82 1412.59,1114.07 1414.65,1350.05 1416.7,1026.39 1418.75,1336.06 1420.8,1587.51 1422.86,-100.417 1424.91,887.542 1426.96,1600.74 1429.02,634.962 1431.07,1182.81 1433.12,1162.23 1435.17,1178 1437.23,1155.48 1439.28,1029.74 1441.33,981.588 1443.39,1088.69 1445.44,929.075 1447.49,1269.77 1449.55,1327.48 1451.6,1234.99 1453.65,1043.38 1455.7,1277.81 1457.76,1189.07 1459.81,1193.58 1461.86,1189.06 1463.92,1207.83 1465.97,1125.23 1468.02,1216.11 1470.07,1164.16 1472.13,1164.82 1474.18,1178.51 1476.23,1217.16 1478.29,1066.84 1480.34,1231.27 1482.39,1203.63 1484.44,1163.78 1486.5,1185.47 1488.55,1196.08 1490.6,1209.34 1492.66,1238.58 1494.71,1163.43 1496.76,1140.7 1498.81,1190.39 1500.87,1213.06 1502.92,1170.62 1504.97,1140.39 1507.03,1097.57 1509.08,1092.84 1511.13,1215.65 1513.18,1123.22 1515.24,1152.4 1517.29,1181.67 1519.34,1169.12 1521.4,1412.21 1523.45,1108 1525.5,1185.3 1527.55,1199.95 1529.61,1145.36 1531.66,1140.29 1533.71,1128.21 1535.77,1116.03 1537.82,1160.05 1539.87,1118.13 1541.93,1136.07 1543.98,1043.83 1546.03,1277.92 1548.08,1262.01 1550.14,1158.48 1552.19,1116.65 1554.24,1299.21 1556.3,1366.17 1558.35,1181.44 1560.4,1117.64 1562.45,1195.75 1564.51,1107.93 1566.56,1209.66 1568.61,1148.66 1570.67,1107.94 1572.72,1168.54 1574.77,1150.44 1576.82,1195.49 1578.88,1176.8 1580.93,1024.15 1582.98,1267.47 1585.04,616.285 1587.09,1522.88 1589.14,1427.55 1591.19,1158.5 1593.25,1128.37 1595.3,1105.37 1597.35,1061.54 1599.41,1003.4 1601.46,1342.87 1603.51,1048.04 1605.56,1059.01 1607.62,1144.82 1609.67,1115.78 1611.72,1015.61 1613.78,978.175 1615.83,1267.58 1617.88,1034.05 1619.94,1202.74 1621.99,1199.12 1624.04,1176.7 1626.09,1179.64 1628.15,1157.4 1630.2,1177.09 1632.25,1193.97 1634.31,1104.03 1636.36,1256.88 1638.41,1134.44 1640.46,1161.84 1642.52,1168.02 1644.57,1169.77 1646.62,1171.84 1648.68,1268.29 1650.73,941.443 1652.78,1397.37 1654.83,1153.94 1656.89,1164.18 1658.94,1118.32 1660.99,1168.73 1663.05,1189.68 1665.1,1167.78 1667.15,1158.06 1669.2,1189.55 1671.26,1222.69 1673.31,1160.89 1675.36,1146.86 1677.42,1103.96 1679.47,811.963 1681.52,827.318 1683.57,869.649 1685.63,1607.61 1687.68,1536.84 1689.73,1833.7 1691.79,1176.38 1693.84,1160.57 1695.89,1171.14 1697.94,1100.24 1700,1311.33 1702.05,1216.27 1704.1,1165.27 1706.16,1202.68 1708.21,850.282 1710.26,1077.1 1712.32,1327.93 1714.37,1205.46 1716.42,1259.51 1718.47,1142.26 1720.53,1141.29 1722.58,1201.08 1724.63,1223.02 1726.69,1109.97 1728.74,1144.63 1730.79,1192.9 1732.84,1165.8 1734.9,1174.21 1736.95,1150.17 1739,1126.2 1741.06,1154.46 1743.11,1187.88 1745.16,1173.08 1747.21,1185.71 1749.27,1159.54 1751.32,1183.76 1753.37,1125.77 1755.43,1158.12 1757.48,1083.43 1759.53,1207.73 1761.58,1105.37 1763.64,1146.6 1765.69,1179.43 1767.74,1172.68 1769.8,1192.43 1771.85,1181.82 1773.9,1170.55 1775.95,1163.66 1778.01,1147.74 1780.06,1163.25 1782.11,1165.96 1784.17,1164.18 1786.22,1125.77 1788.27,1421.39 1790.33,807.102 1792.38,1415.29 1794.43,1212.89 1796.48,1294.16 1798.54,1159.53 1800.59,1104.35 1802.64,1215.66 1804.7,1171.68 1806.75,1170.27 1808.8,1168.55 1810.85,1174.17 1812.91,1150.64 1814.96,1208.17 1817.01,1196.32 1819.07,1142.41 1821.12,1163.22 1823.17,1637.09 1825.22,1036.27 1827.28,1230.02 1829.33,1349.25 1831.38,1183.72 1833.44,295.442 1835.49,1653.46 1837.54,1020.03 1839.59,1260.55 1841.65,1311.9 1843.7,656.903 1845.75,1637.87 1847.81,744.123 1849.86,1094.2 1851.91,1213.08 1853.96,1185.84 1856.02,1190.39 1858.07,1182.06 1860.12,1100.93 1862.18,1231.61 1864.23,1285.03 1866.28,1529.03 1868.34,1163.72 1870.39,1169.86 1872.44,1160.32 1874.49,1168.06 1876.55,1150.69 1878.6,1226.2 1880.65,1605.56 1882.71,733.253 1884.76,1693.1 1886.81,305.811 1888.86,167.981 1890.92,1003.11 1892.97,1179.92 1895.02,-533.319 1897.08,2973.74 1899.13,1187.91 1901.18,1058.75 1903.23,1826.07 1905.29,1602.23 1907.34,1388.88 1909.39,1044.61 1911.45,1021.05 1913.5,1151.26 1915.55,1126.71 1917.6,1193.86 1919.66,1180.34 1921.71,1160 1923.76,1200.91 1925.82,1234.22 1927.87,1233.66 1929.92,1105.49 1931.97,1163.55 1934.03,1190.59 1936.08,1155.14 1938.13,1169.83 1940.19,1166.48 1942.24,1154.65 1944.29,1147.48 1946.34,1376.1 1948.4,1176.01 1950.45,1179.05 1952.5,1170.05 1954.56,1282.18 1956.61,1156.14 1958.66,1174.01 1960.72,1170.03 1962.77,1146.35 1964.82,1195.6 1966.87,1161.9 1968.93,1152.61 1970.98,1170.67 1973.03,1179.72 1975.09,1163.76 1977.14,1147.15 1979.19,1148.18 1981.24,1162.72 1983.3,1179.65 1985.35,1164.01 1987.4,1175.16 1989.46,1190.85 1991.51,1173.93 1993.56,1250.34 1995.61,1198.98 1997.67,1112.12 1999.72,1194.69 2001.77,1189.92 2003.83,1156.19 2005.88,1252.57 2007.93,1101.87 2009.98,1201.79 2012.04,1039.26 2014.09,1264.38 2016.14,1196.58 2018.2,1152.61 2020.25,1181.07 2022.3,1184.22 2024.35,1173.1 2026.41,1171.32 2028.46,1185.43 2030.51,1176 2032.57,1168.13 2034.62,1166.28 2036.67,1065.27 2038.73,1183.77 2040.78,1009.49 2042.83,907.169 2044.88,1787.48 2046.94,853.787 2048.99,1041.63 2051.04,1255.77 2053.1,1086 2055.15,1239.61 2057.2,1241.83 2059.25,1227.41 2061.31,1207.58 2063.36,1117.86 2065.41,1170.24 2067.47,1183.91 2069.52,1198.01 2071.57,1224.2 2073.62,1170.79 2075.68,1169.8 2077.73,1257.44 2079.78,1138.95 2081.84,1128.07 2083.89,1098.05 2085.94,1252.05 2087.99,1335.01 2090.05,1236.4 2092.1,1198.02 2094.15,1163.07 2096.21,1171.45 2098.26,1177.73 2100.31,1423.49 2102.36,1101 2104.42,945.126 2106.47,1135.61 2108.52,1072.11 2110.58,954.555 2112.63,1051.38 2114.68,1202.65 2116.73,1172.44 2118.79,1177.36 2120.84,1157.85 2122.89,1152.71 2124.95,1119.57 2127,1185.6 2129.05,1173.84 2131.11,1209.88 2133.16,1223.13 2135.21,1151.41 2137.26,1155.64 2139.32,1176.89 2141.37,1184.89 2143.42,1159.62 2145.48,1145.85 2147.53,1179.21 2149.58,1119.58 2151.63,1154.47 2153.69,1171.56 2155.74,1208.56 2157.79,1210.39 2159.85,1149.29 2161.9,1136.3 2163.95,1195.67 2166,1166.22 2168.06,1148.4 2170.11,1111.16 2172.16,1147.93 2174.22,1143.96 2176.27,1119.25 2178.32,1167.78 2180.37,1190.96 2182.43,1136.34 2184.48,1151.87 2186.53,1155.15 2188.59,1178.86 2190.64,1158.52 2192.69,1149.25 2194.74,1152.67 2196.8,1151.43 2198.85,1112.26 2200.9,1145.69 2202.96,1153.75 2205.01,1200.16 2207.06,1124.16 2209.12,1184.17 2211.17,1183.59 2213.22,1208.95 2215.27,1144.81 2217.33,1203.57 2219.38,1221.18 2221.43,1259.96 2223.49,1197.35 2225.54,1130.84 2227.59,1223.87 2229.64,1089.65 2231.7,1228.2 2233.75,1371.91 2235.8,1446.53 2237.86,859.481 2239.91,1089.5 2241.96,1118.97 2244.01,1223.43 2246.07,1091.31 2248.12,1158.63 2250.17,1163.03 2252.23,1222.6 2254.28,1165.27 2256.33,1149.16 2258.38,1147.63 2260.44,1164.56 2262.49,1158.79 2264.54,1186.85 2266.6,1178.68 2268.65,1127.53 2270.7,1193.6 2272.75,1148.6 2274.81,1130.31 2276.86,1208.57 2278.91,1172.96 2280.97,1160.92 2283.02,1192.82 2285.07,1150.77 2287.12,1135.56 2289.18,1108.88 2291.23,1129.23 "/>
<path clip-path="url(#clip960)" d="M251.33 972.231 L588.926 972.231 L588.926 868.551 L251.33 868.551  Z" fill="#ffffff" fill-rule="evenodd" fill-opacity="1"/>
<polyline clip-path="url(#clip960)" style="stroke:#000000; stroke-linecap:round; stroke-linejoin:round; stroke-width:4; stroke-opacity:1; fill:none" points="251.33,972.231 588.926,972.231 588.926,868.551 251.33,868.551 251.33,972.231 "/>
<polyline clip-path="url(#clip960)" style="stroke:#009af9; stroke-linecap:round; stroke-linejoin:round; stroke-width:4; stroke-opacity:1; fill:none" points="275.484,920.391 420.41,920.391 "/>
<path clip-path="url(#clip960)" d="M470.12 932.74 L470.12 923.458 L462.481 923.458 L462.481 919.615 L474.749 919.615 L474.749 934.453 Q472.041 936.375 468.777 937.37 Q465.513 938.342 461.809 938.342 Q453.708 938.342 449.124 933.62 Q444.564 928.875 444.564 920.426 Q444.564 911.953 449.124 907.231 Q453.708 902.486 461.809 902.486 Q465.189 902.486 468.221 903.319 Q471.277 904.153 473.846 905.773 L473.846 910.75 Q471.254 908.551 468.337 907.44 Q465.421 906.328 462.203 906.328 Q455.86 906.328 452.666 909.87 Q449.495 913.412 449.495 920.426 Q449.495 927.416 452.666 930.958 Q455.86 934.5 462.203 934.5 Q464.68 934.5 466.624 934.083 Q468.569 933.643 470.12 932.74 Z" fill="#000000" fill-rule="nonzero" fill-opacity="1" /><path clip-path="url(#clip960)" d="M487.967 906.953 L487.967 919.94 L493.846 919.94 Q497.11 919.94 498.893 918.25 Q500.675 916.56 500.675 913.435 Q500.675 910.333 498.893 908.643 Q497.11 906.953 493.846 906.953 L487.967 906.953 M483.291 903.111 L493.846 903.111 Q499.657 903.111 502.619 905.75 Q505.606 908.365 505.606 913.435 Q505.606 918.551 502.619 921.166 Q499.657 923.782 493.846 923.782 L487.967 923.782 L487.967 937.671 L483.291 937.671 L483.291 903.111 Z" fill="#000000" fill-rule="nonzero" fill-opacity="1" /><path clip-path="url(#clip960)" d="M532.596 904.245 L532.596 908.805 Q529.934 907.532 527.573 906.907 Q525.212 906.282 523.013 906.282 Q519.193 906.282 517.11 907.764 Q515.05 909.245 515.05 911.977 Q515.05 914.268 516.416 915.449 Q517.805 916.606 521.647 917.324 L524.471 917.902 Q529.703 918.898 532.179 921.421 Q534.679 923.921 534.679 928.134 Q534.679 933.157 531.3 935.75 Q527.943 938.342 521.439 938.342 Q518.985 938.342 516.207 937.787 Q513.453 937.231 510.49 936.143 L510.49 931.328 Q513.337 932.926 516.068 933.736 Q518.8 934.546 521.439 934.546 Q525.443 934.546 527.619 932.972 Q529.795 931.398 529.795 928.481 Q529.795 925.935 528.221 924.5 Q526.67 923.064 523.105 922.347 L520.258 921.791 Q515.027 920.75 512.689 918.527 Q510.351 916.305 510.351 912.347 Q510.351 907.764 513.568 905.125 Q516.809 902.486 522.48 902.486 Q524.911 902.486 527.434 902.926 Q529.957 903.366 532.596 904.245 Z" fill="#000000" fill-rule="nonzero" fill-opacity="1" /><path clip-path="url(#clip960)" d="M562.689 904.245 L562.689 908.805 Q560.027 907.532 557.665 906.907 Q555.304 906.282 553.105 906.282 Q549.286 906.282 547.203 907.764 Q545.142 909.245 545.142 911.977 Q545.142 914.268 546.508 915.449 Q547.897 916.606 551.74 917.324 L554.564 917.902 Q559.795 918.898 562.272 921.421 Q564.772 923.921 564.772 928.134 Q564.772 933.157 561.392 935.75 Q558.036 938.342 551.531 938.342 Q549.078 938.342 546.3 937.787 Q543.545 937.231 540.582 936.143 L540.582 931.328 Q543.429 932.926 546.161 933.736 Q548.892 934.546 551.531 934.546 Q555.536 934.546 557.712 932.972 Q559.888 931.398 559.888 928.481 Q559.888 925.935 558.314 924.5 Q556.763 923.064 553.198 922.347 L550.351 921.791 Q545.119 920.75 542.781 918.527 Q540.443 916.305 540.443 912.347 Q540.443 907.764 543.661 905.125 Q546.902 902.486 552.573 902.486 Q555.003 902.486 557.527 902.926 Q560.05 903.366 562.689 904.245 Z" fill="#000000" fill-rule="nonzero" fill-opacity="1" /></svg>
