<?xml version="1.0" encoding="utf-8"?>
<svg xmlns="http://www.w3.org/2000/svg" xmlns:xlink="http://www.w3.org/1999/xlink" width="600" height="400" viewBox="0 0 2400 1600">
<defs>
  <clipPath id="clip850">
    <rect x="0" y="0" width="2400" height="1600"/>
  </clipPath>
</defs>
<path clip-path="url(#clip850)" d="M0 1600 L2400 1600 L2400 0 L0 0  Z" fill="#ffffff" fill-rule="evenodd" fill-opacity="1"/>
<defs>
  <clipPath id="clip851">
    <rect x="480" y="0" width="1681" height="1600"/>
  </clipPath>
</defs>
<path clip-path="url(#clip850)" d="M178.867 686.448 L2352.76 686.448 L2352.76 47.2441 L178.867 47.2441  Z" fill="#ffffff" fill-rule="evenodd" fill-opacity="1"/>
<defs>
  <clipPath id="clip852">
    <rect x="178" y="47" width="2175" height="640"/>
  </clipPath>
</defs>
<polyline clip-path="url(#clip852)" style="stroke:#000000; stroke-linecap:round; stroke-linejoin:round; stroke-width:2; stroke-opacity:0.1; fill:none" points="238.339,686.448 238.339,47.2441 "/>
<polyline clip-path="url(#clip852)" style="stroke:#000000; stroke-linecap:round; stroke-linejoin:round; stroke-width:2; stroke-opacity:0.1; fill:none" points="751.562,686.448 751.562,47.2441 "/>
<polyline clip-path="url(#clip852)" style="stroke:#000000; stroke-linecap:round; stroke-linejoin:round; stroke-width:2; stroke-opacity:0.1; fill:none" points="1264.78,686.448 1264.78,47.2441 "/>
<polyline clip-path="url(#clip852)" style="stroke:#000000; stroke-linecap:round; stroke-linejoin:round; stroke-width:2; stroke-opacity:0.1; fill:none" points="1778.01,686.448 1778.01,47.2441 "/>
<polyline clip-path="url(#clip852)" style="stroke:#000000; stroke-linecap:round; stroke-linejoin:round; stroke-width:2; stroke-opacity:0.1; fill:none" points="2291.23,686.448 2291.23,47.2441 "/>
<polyline clip-path="url(#clip852)" style="stroke:#000000; stroke-linecap:round; stroke-linejoin:round; stroke-width:2; stroke-opacity:0.1; fill:none" points="178.867,686.448 2352.76,686.448 "/>
<polyline clip-path="url(#clip852)" style="stroke:#000000; stroke-linecap:round; stroke-linejoin:round; stroke-width:2; stroke-opacity:0.1; fill:none" points="178.867,526.647 2352.76,526.647 "/>
<polyline clip-path="url(#clip852)" style="stroke:#000000; stroke-linecap:round; stroke-linejoin:round; stroke-width:2; stroke-opacity:0.1; fill:none" points="178.867,366.846 2352.76,366.846 "/>
<polyline clip-path="url(#clip852)" style="stroke:#000000; stroke-linecap:round; stroke-linejoin:round; stroke-width:2; stroke-opacity:0.1; fill:none" points="178.867,207.045 2352.76,207.045 "/>
<polyline clip-path="url(#clip852)" style="stroke:#000000; stroke-linecap:round; stroke-linejoin:round; stroke-width:2; stroke-opacity:0.1; fill:none" points="178.867,47.2441 2352.76,47.2441 "/>
<polyline clip-path="url(#clip850)" style="stroke:#000000; stroke-linecap:round; stroke-linejoin:round; stroke-width:4; stroke-opacity:1; fill:none" points="178.867,686.448 2352.76,686.448 "/>
<polyline clip-path="url(#clip850)" style="stroke:#000000; stroke-linecap:round; stroke-linejoin:round; stroke-width:4; stroke-opacity:1; fill:none" points="238.339,686.448 238.339,667.55 "/>
<polyline clip-path="url(#clip850)" style="stroke:#000000; stroke-linecap:round; stroke-linejoin:round; stroke-width:4; stroke-opacity:1; fill:none" points="751.562,686.448 751.562,667.55 "/>
<polyline clip-path="url(#clip850)" style="stroke:#000000; stroke-linecap:round; stroke-linejoin:round; stroke-width:4; stroke-opacity:1; fill:none" points="1264.78,686.448 1264.78,667.55 "/>
<polyline clip-path="url(#clip850)" style="stroke:#000000; stroke-linecap:round; stroke-linejoin:round; stroke-width:4; stroke-opacity:1; fill:none" points="1778.01,686.448 1778.01,667.55 "/>
<polyline clip-path="url(#clip850)" style="stroke:#000000; stroke-linecap:round; stroke-linejoin:round; stroke-width:4; stroke-opacity:1; fill:none" points="2291.23,686.448 2291.23,667.55 "/>
<path clip-path="url(#clip850)" d="M238.339 717.367 Q234.728 717.367 232.899 720.931 Q231.094 724.473 231.094 731.603 Q231.094 738.709 232.899 742.274 Q234.728 745.815 238.339 745.815 Q241.973 745.815 243.779 742.274 Q245.607 738.709 245.607 731.603 Q245.607 724.473 243.779 720.931 Q241.973 717.367 238.339 717.367 M238.339 713.663 Q244.149 713.663 247.205 718.269 Q250.283 722.853 250.283 731.603 Q250.283 740.329 247.205 744.936 Q244.149 749.519 238.339 749.519 Q232.529 749.519 229.45 744.936 Q226.395 740.329 226.395 731.603 Q226.395 722.853 229.45 718.269 Q232.529 713.663 238.339 713.663 Z" fill="#000000" fill-rule="nonzero" fill-opacity="1" /><path clip-path="url(#clip850)" d="M715.254 744.913 L731.574 744.913 L731.574 748.848 L709.629 748.848 L709.629 744.913 Q712.291 742.158 716.875 737.528 Q721.481 732.876 722.662 731.533 Q724.907 729.01 725.787 727.274 Q726.689 725.515 726.689 723.825 Q726.689 721.07 724.745 719.334 Q722.824 717.598 719.722 717.598 Q717.523 717.598 715.069 718.362 Q712.638 719.126 709.861 720.677 L709.861 715.955 Q712.685 714.82 715.138 714.242 Q717.592 713.663 719.629 713.663 Q725 713.663 728.194 716.348 Q731.388 719.033 731.388 723.524 Q731.388 725.654 730.578 727.575 Q729.791 729.473 727.685 732.066 Q727.106 732.737 724.004 735.954 Q720.902 739.149 715.254 744.913 Z" fill="#000000" fill-rule="nonzero" fill-opacity="1" /><path clip-path="url(#clip850)" d="M741.435 714.288 L759.791 714.288 L759.791 718.223 L745.717 718.223 L745.717 726.695 Q746.736 726.348 747.754 726.186 Q748.773 726.001 749.791 726.001 Q755.578 726.001 758.958 729.172 Q762.337 732.343 762.337 737.76 Q762.337 743.339 758.865 746.44 Q755.393 749.519 749.073 749.519 Q746.898 749.519 744.629 749.149 Q742.384 748.778 739.976 748.038 L739.976 743.339 Q742.06 744.473 744.282 745.028 Q746.504 745.584 748.981 745.584 Q752.985 745.584 755.323 743.478 Q757.661 741.371 757.661 737.76 Q757.661 734.149 755.323 732.042 Q752.985 729.936 748.981 729.936 Q747.106 729.936 745.231 730.353 Q743.379 730.769 741.435 731.649 L741.435 714.288 Z" fill="#000000" fill-rule="nonzero" fill-opacity="1" /><path clip-path="url(#clip850)" d="M781.55 717.367 Q777.939 717.367 776.11 720.931 Q774.305 724.473 774.305 731.603 Q774.305 738.709 776.11 742.274 Q777.939 745.815 781.55 745.815 Q785.184 745.815 786.99 742.274 Q788.819 738.709 788.819 731.603 Q788.819 724.473 786.99 720.931 Q785.184 717.367 781.55 717.367 M781.55 713.663 Q787.36 713.663 790.416 718.269 Q793.495 722.853 793.495 731.603 Q793.495 740.329 790.416 744.936 Q787.36 749.519 781.55 749.519 Q775.74 749.519 772.661 744.936 Q769.606 740.329 769.606 731.603 Q769.606 722.853 772.661 718.269 Q775.74 713.663 781.55 713.663 Z" fill="#000000" fill-rule="nonzero" fill-opacity="1" /><path clip-path="url(#clip850)" d="M1224.4 714.288 L1242.76 714.288 L1242.76 718.223 L1228.69 718.223 L1228.69 726.695 Q1229.7 726.348 1230.72 726.186 Q1231.74 726.001 1232.76 726.001 Q1238.55 726.001 1241.93 729.172 Q1245.31 732.343 1245.31 737.76 Q1245.31 743.339 1241.83 746.44 Q1238.36 749.519 1232.04 749.519 Q1229.87 749.519 1227.6 749.149 Q1225.35 748.778 1222.94 748.038 L1222.94 743.339 Q1225.03 744.473 1227.25 745.028 Q1229.47 745.584 1231.95 745.584 Q1235.95 745.584 1238.29 743.478 Q1240.63 741.371 1240.63 737.76 Q1240.63 734.149 1238.29 732.042 Q1235.95 729.936 1231.95 729.936 Q1230.07 729.936 1228.2 730.353 Q1226.35 730.769 1224.4 731.649 L1224.4 714.288 Z" fill="#000000" fill-rule="nonzero" fill-opacity="1" /><path clip-path="url(#clip850)" d="M1264.52 717.367 Q1260.91 717.367 1259.08 720.931 Q1257.27 724.473 1257.27 731.603 Q1257.27 738.709 1259.08 742.274 Q1260.91 745.815 1264.52 745.815 Q1268.15 745.815 1269.96 742.274 Q1271.79 738.709 1271.79 731.603 Q1271.79 724.473 1269.96 720.931 Q1268.15 717.367 1264.52 717.367 M1264.52 713.663 Q1270.33 713.663 1273.38 718.269 Q1276.46 722.853 1276.46 731.603 Q1276.46 740.329 1273.38 744.936 Q1270.33 749.519 1264.52 749.519 Q1258.71 749.519 1255.63 744.936 Q1252.57 740.329 1252.57 731.603 Q1252.57 722.853 1255.63 718.269 Q1258.71 713.663 1264.52 713.663 Z" fill="#000000" fill-rule="nonzero" fill-opacity="1" /><path clip-path="url(#clip850)" d="M1294.68 717.367 Q1291.07 717.367 1289.24 720.931 Q1287.44 724.473 1287.44 731.603 Q1287.44 738.709 1289.24 742.274 Q1291.07 745.815 1294.68 745.815 Q1298.31 745.815 1300.12 742.274 Q1301.95 738.709 1301.95 731.603 Q1301.95 724.473 1300.12 720.931 Q1298.31 717.367 1294.68 717.367 M1294.68 713.663 Q1300.49 713.663 1303.55 718.269 Q1306.62 722.853 1306.62 731.603 Q1306.62 740.329 1303.55 744.936 Q1300.49 749.519 1294.68 749.519 Q1288.87 749.519 1285.79 744.936 Q1282.74 740.329 1282.74 731.603 Q1282.74 722.853 1285.79 718.269 Q1288.87 713.663 1294.68 713.663 Z" fill="#000000" fill-rule="nonzero" fill-opacity="1" /><path clip-path="url(#clip850)" d="M1736.28 714.288 L1758.51 714.288 L1758.51 716.279 L1745.96 748.848 L1741.08 748.848 L1752.88 718.223 L1736.28 718.223 L1736.28 714.288 Z" fill="#000000" fill-rule="nonzero" fill-opacity="1" /><path clip-path="url(#clip850)" d="M1767.67 714.288 L1786.03 714.288 L1786.03 718.223 L1771.95 718.223 L1771.95 726.695 Q1772.97 726.348 1773.99 726.186 Q1775.01 726.001 1776.03 726.001 Q1781.82 726.001 1785.2 729.172 Q1788.57 732.343 1788.57 737.76 Q1788.57 743.339 1785.1 746.44 Q1781.63 749.519 1775.31 749.519 Q1773.14 749.519 1770.87 749.149 Q1768.62 748.778 1766.21 748.038 L1766.21 743.339 Q1768.3 744.473 1770.52 745.028 Q1772.74 745.584 1775.22 745.584 Q1779.22 745.584 1781.56 743.478 Q1783.9 741.371 1783.9 737.76 Q1783.9 734.149 1781.56 732.042 Q1779.22 729.936 1775.22 729.936 Q1773.34 729.936 1771.47 730.353 Q1769.62 730.769 1767.67 731.649 L1767.67 714.288 Z" fill="#000000" fill-rule="nonzero" fill-opacity="1" /><path clip-path="url(#clip850)" d="M1807.79 717.367 Q1804.18 717.367 1802.35 720.931 Q1800.54 724.473 1800.54 731.603 Q1800.54 738.709 1802.35 742.274 Q1804.18 745.815 1807.79 745.815 Q1811.42 745.815 1813.23 742.274 Q1815.06 738.709 1815.06 731.603 Q1815.06 724.473 1813.23 720.931 Q1811.42 717.367 1807.79 717.367 M1807.79 713.663 Q1813.6 713.663 1816.65 718.269 Q1819.73 722.853 1819.73 731.603 Q1819.73 740.329 1816.65 744.936 Q1813.6 749.519 1807.79 749.519 Q1801.98 749.519 1798.9 744.936 Q1795.84 740.329 1795.84 731.603 Q1795.84 722.853 1798.9 718.269 Q1801.98 713.663 1807.79 713.663 Z" fill="#000000" fill-rule="nonzero" fill-opacity="1" /><path clip-path="url(#clip850)" d="M2235.76 744.913 L2243.4 744.913 L2243.4 718.547 L2235.09 720.214 L2235.09 715.955 L2243.35 714.288 L2248.02 714.288 L2248.02 744.913 L2255.66 744.913 L2255.66 748.848 L2235.76 748.848 L2235.76 744.913 Z" fill="#000000" fill-rule="nonzero" fill-opacity="1" /><path clip-path="url(#clip850)" d="M2275.11 717.367 Q2271.5 717.367 2269.67 720.931 Q2267.86 724.473 2267.86 731.603 Q2267.86 738.709 2269.67 742.274 Q2271.5 745.815 2275.11 745.815 Q2278.74 745.815 2280.55 742.274 Q2282.38 738.709 2282.38 731.603 Q2282.38 724.473 2280.55 720.931 Q2278.74 717.367 2275.11 717.367 M2275.11 713.663 Q2280.92 713.663 2283.97 718.269 Q2287.05 722.853 2287.05 731.603 Q2287.05 740.329 2283.97 744.936 Q2280.92 749.519 2275.11 749.519 Q2269.3 749.519 2266.22 744.936 Q2263.16 740.329 2263.16 731.603 Q2263.16 722.853 2266.22 718.269 Q2269.3 713.663 2275.11 713.663 Z" fill="#000000" fill-rule="nonzero" fill-opacity="1" /><path clip-path="url(#clip850)" d="M2305.27 717.367 Q2301.66 717.367 2299.83 720.931 Q2298.02 724.473 2298.02 731.603 Q2298.02 738.709 2299.83 742.274 Q2301.66 745.815 2305.27 745.815 Q2308.9 745.815 2310.71 742.274 Q2312.54 738.709 2312.54 731.603 Q2312.54 724.473 2310.71 720.931 Q2308.9 717.367 2305.27 717.367 M2305.27 713.663 Q2311.08 713.663 2314.14 718.269 Q2317.21 722.853 2317.21 731.603 Q2317.21 740.329 2314.14 744.936 Q2311.08 749.519 2305.27 749.519 Q2299.46 749.519 2296.38 744.936 Q2293.33 740.329 2293.33 731.603 Q2293.33 722.853 2296.38 718.269 Q2299.46 713.663 2305.27 713.663 Z" fill="#000000" fill-rule="nonzero" fill-opacity="1" /><path clip-path="url(#clip850)" d="M2335.43 717.367 Q2331.82 717.367 2329.99 720.931 Q2328.19 724.473 2328.19 731.603 Q2328.19 738.709 2329.99 742.274 Q2331.82 745.815 2335.43 745.815 Q2339.07 745.815 2340.87 742.274 Q2342.7 738.709 2342.7 731.603 Q2342.7 724.473 2340.87 720.931 Q2339.07 717.367 2335.43 717.367 M2335.43 713.663 Q2341.24 713.663 2344.3 718.269 Q2347.38 722.853 2347.38 731.603 Q2347.38 740.329 2344.3 744.936 Q2341.24 749.519 2335.43 749.519 Q2329.62 749.519 2326.54 744.936 Q2323.49 740.329 2323.49 731.603 Q2323.49 722.853 2326.54 718.269 Q2329.62 713.663 2335.43 713.663 Z" fill="#000000" fill-rule="nonzero" fill-opacity="1" /><polyline clip-path="url(#clip850)" style="stroke:#000000; stroke-linecap:round; stroke-linejoin:round; stroke-width:4; stroke-opacity:1; fill:none" points="178.867,686.448 178.867,47.2441 "/>
<polyline clip-path="url(#clip850)" style="stroke:#000000; stroke-linecap:round; stroke-linejoin:round; stroke-width:4; stroke-opacity:1; fill:none" points="178.867,686.448 197.764,686.448 "/>
<polyline clip-path="url(#clip850)" style="stroke:#000000; stroke-linecap:round; stroke-linejoin:round; stroke-width:4; stroke-opacity:1; fill:none" points="178.867,526.647 197.764,526.647 "/>
<polyline clip-path="url(#clip850)" style="stroke:#000000; stroke-linecap:round; stroke-linejoin:round; stroke-width:4; stroke-opacity:1; fill:none" points="178.867,366.846 197.764,366.846 "/>
<polyline clip-path="url(#clip850)" style="stroke:#000000; stroke-linecap:round; stroke-linejoin:round; stroke-width:4; stroke-opacity:1; fill:none" points="178.867,207.045 197.764,207.045 "/>
<polyline clip-path="url(#clip850)" style="stroke:#000000; stroke-linecap:round; stroke-linejoin:round; stroke-width:4; stroke-opacity:1; fill:none" points="178.867,47.2441 197.764,47.2441 "/>
<path clip-path="url(#clip850)" d="M50.9921 686.899 L80.6679 686.899 L80.6679 690.834 L50.9921 690.834 L50.9921 686.899 Z" fill="#000000" fill-rule="nonzero" fill-opacity="1" /><path clip-path="url(#clip850)" d="M91.5706 699.793 L99.2095 699.793 L99.2095 673.427 L90.8993 675.094 L90.8993 670.835 L99.1632 669.168 L103.839 669.168 L103.839 699.793 L111.478 699.793 L111.478 703.728 L91.5706 703.728 L91.5706 699.793 Z" fill="#000000" fill-rule="nonzero" fill-opacity="1" /><path clip-path="url(#clip850)" d="M130.922 672.247 Q127.311 672.247 125.482 675.811 Q123.677 679.353 123.677 686.483 Q123.677 693.589 125.482 697.154 Q127.311 700.695 130.922 700.695 Q134.556 700.695 136.362 697.154 Q138.191 693.589 138.191 686.483 Q138.191 679.353 136.362 675.811 Q134.556 672.247 130.922 672.247 M130.922 668.543 Q136.732 668.543 139.788 673.149 Q142.867 677.733 142.867 686.483 Q142.867 695.209 139.788 699.816 Q136.732 704.399 130.922 704.399 Q125.112 704.399 122.033 699.816 Q118.978 695.209 118.978 686.483 Q118.978 677.733 122.033 673.149 Q125.112 668.543 130.922 668.543 Z" fill="#000000" fill-rule="nonzero" fill-opacity="1" /><path clip-path="url(#clip850)" d="M82.1494 527.098 L111.825 527.098 L111.825 531.033 L82.1494 531.033 L82.1494 527.098 Z" fill="#000000" fill-rule="nonzero" fill-opacity="1" /><path clip-path="url(#clip850)" d="M121.964 509.367 L140.32 509.367 L140.32 513.302 L126.246 513.302 L126.246 521.774 Q127.265 521.427 128.283 521.265 Q129.302 521.08 130.32 521.08 Q136.107 521.08 139.487 524.251 Q142.867 527.422 142.867 532.839 Q142.867 538.418 139.394 541.52 Q135.922 544.598 129.603 544.598 Q127.427 544.598 125.158 544.228 Q122.913 543.857 120.506 543.117 L120.506 538.418 Q122.589 539.552 124.811 540.108 Q127.033 540.663 129.51 540.663 Q133.515 540.663 135.853 538.557 Q138.191 536.45 138.191 532.839 Q138.191 529.228 135.853 527.121 Q133.515 525.015 129.51 525.015 Q127.635 525.015 125.76 525.432 Q123.908 525.848 121.964 526.728 L121.964 509.367 Z" fill="#000000" fill-rule="nonzero" fill-opacity="1" /><path clip-path="url(#clip850)" d="M130.922 352.645 Q127.311 352.645 125.482 356.209 Q123.677 359.751 123.677 366.881 Q123.677 373.987 125.482 377.552 Q127.311 381.094 130.922 381.094 Q134.556 381.094 136.362 377.552 Q138.191 373.987 138.191 366.881 Q138.191 359.751 136.362 356.209 Q134.556 352.645 130.922 352.645 M130.922 348.941 Q136.732 348.941 139.788 353.547 Q142.867 358.131 142.867 366.881 Q142.867 375.608 139.788 380.214 Q136.732 384.797 130.922 384.797 Q125.112 384.797 122.033 380.214 Q118.978 375.608 118.978 366.881 Q118.978 358.131 122.033 353.547 Q125.112 348.941 130.922 348.941 Z" fill="#000000" fill-rule="nonzero" fill-opacity="1" /><path clip-path="url(#clip850)" d="M121.964 189.765 L140.32 189.765 L140.32 193.7 L126.246 193.7 L126.246 202.172 Q127.265 201.825 128.283 201.663 Q129.302 201.478 130.32 201.478 Q136.107 201.478 139.487 204.649 Q142.867 207.82 142.867 213.237 Q142.867 218.816 139.394 221.918 Q135.922 224.996 129.603 224.996 Q127.427 224.996 125.158 224.626 Q122.913 224.256 120.506 223.515 L120.506 218.816 Q122.589 219.95 124.811 220.506 Q127.033 221.061 129.51 221.061 Q133.515 221.061 135.853 218.955 Q138.191 216.848 138.191 213.237 Q138.191 209.626 135.853 207.52 Q133.515 205.413 129.51 205.413 Q127.635 205.413 125.76 205.83 Q123.908 206.246 121.964 207.126 L121.964 189.765 Z" fill="#000000" fill-rule="nonzero" fill-opacity="1" /><path clip-path="url(#clip850)" d="M91.5706 60.5889 L99.2095 60.5889 L99.2095 34.2233 L90.8993 35.89 L90.8993 31.6308 L99.1632 29.9641 L103.839 29.9641 L103.839 60.5889 L111.478 60.5889 L111.478 64.5241 L91.5706 64.5241 L91.5706 60.5889 Z" fill="#000000" fill-rule="nonzero" fill-opacity="1" /><path clip-path="url(#clip850)" d="M130.922 33.0428 Q127.311 33.0428 125.482 36.6076 Q123.677 40.1492 123.677 47.2788 Q123.677 54.3853 125.482 57.9501 Q127.311 61.4917 130.922 61.4917 Q134.556 61.4917 136.362 57.9501 Q138.191 54.3853 138.191 47.2788 Q138.191 40.1492 136.362 36.6076 Q134.556 33.0428 130.922 33.0428 M130.922 29.3391 Q136.732 29.3391 139.788 33.9456 Q142.867 38.5289 142.867 47.2788 Q142.867 56.0056 139.788 60.6121 Q136.732 65.1954 130.922 65.1954 Q125.112 65.1954 122.033 60.6121 Q118.978 56.0056 118.978 47.2788 Q118.978 38.5289 122.033 33.9456 Q125.112 29.3391 130.922 29.3391 Z" fill="#000000" fill-rule="nonzero" fill-opacity="1" /><polyline clip-path="url(#clip852)" style="stroke:#009af9; stroke-linecap:round; stroke-linejoin:round; stroke-width:4; stroke-opacity:1; fill:none" points="240.392,334.886 242.445,333.299 244.498,330.024 246.55,326.04 248.603,342.725 250.656,363.422 252.709,365.248 254.762,363.338 256.815,360.779 258.868,366.058 260.921,366.272 262.974,365.972 265.027,366.631 267.079,365.558 269.132,379.426 271.185,351.82 273.238,349.312 275.291,427.762 277.344,427.456 279.397,435.709 281.45,442.582 283.503,443.156 285.555,421.435 287.608,377.009 289.661,373.435 291.714,289.297 293.767,305.319 295.82,311.481 297.873,417.182 299.926,393.757 301.979,386.337 304.031,348.329 306.084,352.024 308.137,367.477 310.19,366.909 312.243,379.6 314.296,394.54 316.349,395.746 318.402,392.377 320.455,392.368 322.507,380.56 324.56,351.416 326.613,351.255 328.666,342.103 330.719,346.138 332.772,368.852 334.825,375.794 336.878,372.911 338.931,366.812 340.984,368.894 343.036,369.921 345.089,365.078 347.142,354.684 349.195,368.301 351.248,368.231 353.301,368.1 355.354,360.835 357.407,354.048 359.46,356.755 361.512,357.519 363.565,357.405 365.618,356.037 367.671,365.471 369.724,362.405 371.777,359.301 373.83,388.596 375.883,363.069 377.936,331.078 379.988,332.851 382.041,333.346 384.094,319.344 386.147,350.036 388.2,343.081 390.253,317.291 392.306,317.319 394.359,317.437 396.412,326.252 398.464,365.487 400.517,323.308 402.57,300.059 404.623,304.609 406.676,304.292 408.729,302.889 410.782,299.765 412.835,298.505 414.888,296.658 416.94,297.246 418.993,305.564 421.046,328.107 423.099,326.906 425.152,314.173 427.205,315.721 429.258,313.891 431.311,381.614 433.364,380.466 435.417,377.231 437.469,355.706 439.522,385.077 441.575,384.798 443.628,386.68 445.681,386.141 447.734,371.031 449.787,370.786 451.84,371.294 453.893,377.527 455.945,267.391 457.998,276.048 460.051,265.338 462.104,270.156 464.157,246.359 466.21,357.918 468.263,362.795 470.316,372.87 472.369,259.856 474.421,304.209 476.474,372.012 478.527,383.623 480.58,392.488 482.633,392.657 484.686,438.159 486.739,455.079 488.792,450.934 490.845,411.634 492.897,409.596 494.95,407.991 497.003,432.369 499.056,424.326 501.109,496.791 503.162,492.823 505.215,495.155 507.268,472.812 509.321,473.185 511.374,478.765 513.426,470.127 515.479,491.669 517.532,574.377 519.585,571.91 521.638,562.679 523.691,419.489 525.744,419.208 527.797,-13.7704 529.85,-23.5036 531.902,-22.43 533.955,38.4206 536.008,54.6497 538.061,362.804 540.114,675.504 542.167,678.737 544.22,682.335 546.273,755.541 548.326,887.029 550.378,887.658 552.431,886.509 554.484,879.016 556.537,900.613 558.59,665.594 560.643,633.771 562.696,547.872 564.749,461.018 566.802,410.118 568.854,395.759 570.907,355.48 572.96,185.477 575.013,183.549 577.066,165.649 579.119,165.666 581.172,255.217 583.225,264.872 585.278,270.687 587.331,524.285 589.383,565.385 591.436,561.247 593.489,575.22 595.542,574.942 597.595,604.969 599.648,480.981 601.701,311.071 603.754,350.694 605.807,351.959 607.859,643.281 609.912,626.962 611.965,617.336 614.018,635.521 616.071,512.186 618.124,402.209 620.177,530.76 622.23,531.124 624.283,482.473 626.335,560.358 628.388,546.842 630.441,506.954 632.494,526.944 634.547,546.452 636.6,544.575 638.653,512.082 640.706,556.061 642.759,210.398 644.811,221.26 646.864,267.444 648.917,169.754 650.97,171.338 653.023,152.119 655.076,136.373 657.129,107.291 659.182,105.104 661.235,147.511 663.288,190.539 665.34,454.709 667.393,482.786 669.446,490.61 671.499,510.213 673.552,512.593 675.605,514.339 677.658,514.18 679.711,514.87 681.764,302.462 683.816,351.041 685.869,350.071 687.922,507.611 689.975,452.237 692.028,350.333 694.081,345.772 696.134,336.235 698.187,336.779 700.24,326.816 702.292,328.1 704.345,295.106 706.398,427.357 708.451,419.162 710.504,406.879 712.557,166.713 714.61,166.806 716.663,139.708 718.716,263.651 720.768,276.525 722.821,281.807 724.874,277.752 726.927,492.208 728.98,366.635 731.033,376.506 733.086,374.609 735.139,375.464 737.192,375.387 739.245,379.598 741.297,338.432 743.35,342.223 745.403,341.49 747.456,334.1 749.509,331.176 751.562,331.128 753.615,331.253 755.668,336.721 757.721,337.08 759.773,350.831 761.826,350.4 763.879,390.254 765.932,390.089 767.985,395.796 770.038,292.544 772.091,293.138 774.144,266.869 776.197,338.827 778.249,488.415 780.302,466.989 782.355,484.269 784.408,308.516 786.461,308.577 788.514,308.279 790.567,336.658 792.62,336.05 794.673,334.683 796.725,334.09 798.778,332.362 800.831,328.484 802.884,397.185 804.937,347.051 806.99,343.059 809.043,355.006 811.096,353.169 813.149,386.433 815.202,370.578 817.254,354.454 819.307,239.13 821.36,274.447 823.413,306.75 825.466,304.004 827.519,210.03 829.572,211.533 831.625,130.273 833.678,148.902 835.73,161.423 837.783,156.774 839.836,299.702 841.889,232.293 843.942,218.785 845.995,289.978 848.048,331.557 850.101,342.167 852.154,99.0251 854.206,99.2343 856.259,289.65 858.312,342.994 860.365,347.657 862.418,323.379 864.471,287.826 866.524,327.953 868.577,312.482 870.63,311.378 872.682,310.826 874.735,310.605 876.788,311.561 878.841,232.548 880.894,234.475 882.947,206.827 885,221.339 887.053,356.297 889.106,363.372 891.159,357.904 893.211,428.64 895.264,431.555 897.317,453.459 899.37,277.543 901.423,165.747 903.476,166.778 905.529,188.704 907.582,455.575 909.635,253.534 911.687,184.496 913.74,185.534 915.793,166.975 917.846,239.783 919.899,224.786 921.952,227.513 924.005,220.025 926.058,210.713 928.111,312.632 930.163,309.506 932.216,309.729 934.269,309.692 936.322,266.814 938.375,271.344 940.428,260.297 942.481,270.962 944.534,359.024 946.587,328.371 948.639,345.516 950.692,351.481 952.745,350.867 954.798,279.197 956.851,279.168 958.904,279.336 960.957,262.287 963.01,267.245 965.063,341.139 967.116,342.09 969.168,341.746 971.221,325.937 973.274,381.554 975.327,340.239 977.38,371.786 979.433,403.789 981.486,328.186 983.539,329.006 985.592,280.185 987.644,360.657 989.697,371.224 991.75,163.994 993.803,307.397 995.856,328.208 997.909,327.25 999.962,169.311 1002.01,97.7659 1004.07,116.174 1006.12,117.486 1008.17,191.869 1010.23,289.892 1012.28,231.602 1014.33,342.781 1016.38,293.904 1018.44,287.963 1020.49,347.553 1022.54,226.163 1024.6,267.176 1026.65,233.503 1028.7,231.491 1030.76,115.034 1032.81,116.359 1034.86,132.522 1036.91,292.727 1038.97,416.66 1041.02,383.211 1043.07,410.494 1045.13,405.293 1047.18,405.722 1049.23,385.702 1051.28,404.341 1053.34,383.46 1055.39,363.463 1057.44,360.215 1059.5,379.725 1061.55,208.295 1063.6,262.129 1065.65,25.6948 1067.71,-211.927 1069.76,-185.3 1071.81,-194.229 1073.87,-198.22 1075.92,-164.079 1077.97,-5.38115 1080.02,452.729 1082.08,427.067 1084.13,595.527 1086.18,472.506 1088.24,463.005 1090.29,496.508 1092.34,515.068 1094.39,650.972 1096.45,901.517 1098.5,911.909 1100.55,817.645 1102.61,423.491 1104.66,441.363 1106.71,560.28 1108.77,594.763 1110.82,536.363 1112.87,534.636 1114.92,467.803 1116.98,469.571 1119.03,457.388 1121.08,510.944 1123.14,511.829 1125.19,490.355 1127.24,498.008 1129.29,494.585 1131.35,488.747 1133.4,488.644 1135.45,479.847 1137.51,440.305 1139.56,439.232 1141.61,439.3 1143.66,439.086 1145.72,439.176 1147.77,439.285 1149.82,442.748 1151.88,439.615 1153.93,444.371 1155.98,393.708 1158.03,389.019 1160.09,373.045 1162.14,369.168 1164.19,394.036 1166.25,399.908 1168.3,399.015 1170.35,377.362 1172.4,377.345 1174.46,376.482 1176.51,320.468 1178.56,338.945 1180.62,344.508 1182.67,349.027 1184.72,383.907 1186.77,400.271 1188.83,399.505 1190.88,398.573 1192.93,397.348 1194.99,396.932 1197.04,418.629 1199.09,419.534 1201.15,407.797 1203.2,407.866 1205.25,415.547 1207.3,413.843 1209.36,407.003 1211.41,353.824 1213.46,353.856 1215.52,343.311 1217.57,342.963 1219.62,339.041 1221.67,346.31 1223.73,372.085 1225.78,407.986 1227.83,391.965 1229.89,390.869 1231.94,390.307 1233.99,394.397 1236.04,379.637 1238.1,378.5 1240.15,378.29 1242.2,397.657 1244.26,395.012 1246.31,408.19 1248.36,408.692 1250.41,413.106 1252.47,402.37 1254.52,404.162 1256.57,403.119 1258.63,440.877 1260.68,328.897 1262.73,350.42 1264.78,357.348 1266.84,363.399 1268.89,299.885 1270.94,287.8 1273,291.8 1275.05,288.661 1277.1,288.953 1279.16,341.773 1281.21,350.948 1283.26,348.167 1285.31,316.606 1287.37,314.011 1289.42,314.18 1291.47,352.055 1293.53,377.03 1295.58,420.567 1297.63,423.656 1299.68,422.773 1301.74,417.495 1303.79,416.727 1305.84,417.812 1307.9,420.514 1309.95,415.553 1312,346.7 1314.05,351.89 1316.11,424.42 1318.16,445.324 1320.21,484.142 1322.27,490.304 1324.32,485.861 1326.37,485.343 1328.42,366.57 1330.48,365.154 1332.53,372.754 1334.58,402.731 1336.64,406.166 1338.69,418.992 1340.74,406.309 1342.79,400.933 1344.85,355.22 1346.9,371.636 1348.95,373.779 1351.01,322.586 1353.06,359.341 1355.11,380.639 1357.16,379.985 1359.22,503.123 1361.27,442.118 1363.32,435.714 1365.38,435.68 1367.43,427.084 1369.48,361.712 1371.54,329.094 1373.59,327.235 1375.64,327.68 1377.69,324.452 1379.75,306.382 1381.8,308.994 1383.85,292.877 1385.91,400.199 1387.96,385.785 1390.01,383.785 1392.06,381.305 1394.12,371.938 1396.17,375.129 1398.22,387.394 1400.28,387.571 1402.33,338.786 1404.38,331.845 1406.43,340.053 1408.49,349.502 1410.54,349.353 1412.59,350.062 1414.65,358.193 1416.7,369.582 1418.75,371.771 1420.8,369.655 1422.86,367.15 1424.91,367.406 1426.96,370.308 1429.02,298.901 1431.07,299.269 1433.12,314.346 1435.17,316.273 1437.23,316.588 1439.28,316.686 1441.33,313.852 1443.39,318.572 1445.44,336.044 1447.49,388.296 1449.55,410.295 1451.6,412.61 1453.65,411.887 1455.7,412.186 1457.76,411.422 1459.81,410.628 1461.86,447.666 1463.92,473.576 1465.97,463.323 1468.02,465.218 1470.07,467.949 1472.13,487.314 1474.18,488.52 1476.23,495.215 1478.29,499.748 1480.34,587.556 1482.39,560.848 1484.44,534.727 1486.5,535.449 1488.55,543.792 1490.6,589.181 1492.66,602.165 1494.71,562.478 1496.76,558.87 1498.81,519.836 1500.87,506.429 1502.92,229.377 1504.97,314.95 1507.03,291.833 1509.08,269.253 1511.13,445.324 1513.18,509.178 1515.24,510.132 1517.29,518.815 1519.34,407.354 1521.4,390.55 1523.45,387.116 1525.5,389.636 1527.55,387.724 1529.61,388.143 1531.66,389.226 1533.71,392.093 1535.77,392.056 1537.82,370.35 1539.87,381.062 1541.93,378.72 1543.98,380.561 1546.03,389.218 1548.08,389.298 1550.14,456.451 1552.19,264.13 1554.24,249.854 1556.3,241.392 1558.35,251.724 1560.4,256.301 1562.45,268.133 1564.51,293.95 1566.56,262.232 1568.61,302.387 1570.67,307.641 1572.72,308.433 1574.77,273.115 1576.82,286.808 1578.88,299.504 1580.93,315.265 1582.98,327.173 1585.04,310.691 1587.09,271.597 1589.14,398.013 1591.19,379.166 1593.25,360.119 1595.3,343.136 1597.35,424.461 1599.41,400.214 1601.46,372.946 1603.51,371.492 1605.56,344.217 1607.62,344.928 1609.67,346.306 1611.72,343.607 1613.78,413.756 1615.83,455.38 1617.88,478.234 1619.94,474.647 1621.99,473.453 1624.04,484.435 1626.09,444.041 1628.15,321.342 1630.2,513.092 1632.25,518.404 1634.31,504.401 1636.36,509.639 1638.41,509.525 1640.46,512.941 1642.52,509.294 1644.57,512.155 1646.62,502.222 1648.68,502.334 1650.73,493.473 1652.78,494.866 1654.83,477.019 1656.89,472.907 1658.94,502.911 1660.99,485.9 1663.05,485.447 1665.1,509.073 1667.15,508.203 1669.2,509.1 1671.26,502.866 1673.31,500.108 1675.36,386.973 1677.42,387.741 1679.47,302.231 1681.52,302.638 1683.57,316.678 1685.63,330.659 1687.68,325.27 1689.73,333.039 1691.79,338.264 1693.84,347.575 1695.89,291.817 1697.94,288.577 1700,263.463 1702.05,253.564 1704.1,292.083 1706.16,292.014 1708.21,293.152 1710.26,293.674 1712.32,291.572 1714.37,288.927 1716.42,281.968 1718.47,331.134 1720.53,324.643 1722.58,334.453 1724.63,335.071 1726.69,331.54 1728.74,418.346 1730.79,486.906 1732.84,490.192 1734.9,487.147 1736.95,435.484 1739,341.96 1741.06,378.933 1743.11,376.522 1745.16,370.221 1747.21,303.021 1749.27,303.958 1751.32,397.996 1753.37,570.696 1755.43,317.495 1757.48,258.902 1759.53,303.449 1761.58,266.399 1763.64,296.158 1765.69,297.205 1767.74,289.239 1769.8,261.378 1771.85,275.555 1773.9,271.955 1775.95,257.219 1778.01,363.856 1780.06,404.606 1782.11,429.982 1784.17,429.71 1786.22,426.207 1788.27,525.503 1790.33,422.169 1792.38,429.645 1794.43,432.445 1796.48,427.357 1798.54,415.672 1800.59,425.464 1802.64,411.487 1804.7,409.88 1806.75,323.486 1808.8,317.464 1810.85,318.365 1812.91,329.023 1814.96,328.871 1817.01,323.362 1819.07,323.593 1821.12,276.536 1823.17,290.628 1825.22,346.138 1827.28,367.124 1829.33,367.226 1831.38,433.667 1833.44,445.912 1835.49,444.752 1837.54,438.64 1839.59,435.601 1841.65,434.66 1843.7,404.985 1845.75,405.586 1847.81,405.699 1849.86,405.663 1851.91,396.872 1853.96,393.773 1856.02,380.339 1858.07,363.78 1860.12,363.274 1862.18,362.547 1864.23,317.157 1866.28,395.848 1868.34,396.698 1870.39,393.624 1872.44,392.837 1874.49,393.206 1876.55,421.986 1878.6,413.176 1880.65,413.31 1882.71,415.408 1884.76,374.802 1886.81,374.516 1888.86,372.921 1890.92,373.767 1892.97,374.366 1895.02,396.579 1897.08,392.903 1899.13,352.935 1901.18,359.729 1903.23,366.43 1905.29,411.045 1907.34,471.194 1909.39,475.266 1911.45,439.033 1913.5,431.005 1915.55,426.082 1917.6,424.555 1919.66,426.722 1921.71,422.933 1923.76,423.028 1925.82,434.244 1927.87,430.827 1929.92,427.469 1931.97,417.928 1934.03,420.582 1936.08,420.165 1938.13,427.285 1940.19,427.999 1942.24,408.192 1944.29,404.694 1946.34,406.794 1948.4,418.153 1950.45,418.776 1952.5,418.279 1954.56,419.787 1956.61,420.036 1958.66,400.467 1960.72,358.761 1962.77,358.644 1964.82,363.453 1966.87,370.599 1968.93,372.134 1970.98,374.303 1973.03,377.886 1975.09,317.094 1977.14,321.879 1979.19,324.485 1981.24,348.178 1983.3,351.789 1985.35,350.749 1987.4,360.05 1989.46,362.381 1991.51,362.621 1993.56,358.424 1995.61,358.849 1997.67,361.164 1999.72,352.208 2001.77,337.998 2003.83,341.501 2005.88,341.296 2007.93,340.095 2009.98,339.945 2012.04,348.972 2014.09,348.953 2016.14,349.09 2018.2,349.015 2020.25,349.316 2022.3,359.463 2024.35,359.881 2026.41,348.357 2028.46,348.341 2030.51,342.579 2032.57,342.365 2034.62,342.437 2036.67,344.543 2038.73,358.203 2040.78,358.313 2042.83,362.201 2044.88,362.146 2046.94,362.801 2048.99,356.991 2051.04,353.599 2053.1,349.619 2055.15,349.621 2057.2,354.686 2059.25,368.791 2061.31,370.523 2063.36,370.936 2065.41,371.214 2067.47,381.026 2069.52,351.926 2071.57,355.464 2073.62,348.257 2075.68,350.891 2077.73,342.76 2079.78,342.248 2081.84,339.69 2083.89,310.373 2085.94,311.044 2087.99,321.473 2090.05,319.323 2092.1,401.31 2094.15,416.531 2096.21,416.583 2098.26,422.296 2100.31,393.662 2102.36,393.732 2104.42,336.851 2106.47,346.295 2108.52,357.953 2110.58,358.145 2112.63,358.184 2114.68,357.42 2116.73,350.449 2118.79,355.176 2120.84,350.194 2122.89,352.193 2124.95,375.397 2127,377.917 2129.05,387.173 2131.11,388.521 2133.16,390.01 2135.21,390.494 2137.26,388.836 2139.32,384.463 2141.37,372.196 2143.42,408.134 2145.48,407.706 2147.53,408.341 2149.58,396.969 2151.63,403.421 2153.69,411.047 2155.74,402.686 2157.79,402.016 2159.85,387.146 2161.9,385.793 2163.95,381.467 2166,380.813 2168.06,379.612 2170.11,379.655 2172.16,378.411 2174.22,362.535 2176.27,362.51 2178.32,388.738 2180.37,388.307 2182.43,390.063 2184.48,380.075 2186.53,303.489 2188.59,303.033 2190.64,292.371 2192.69,290.37 2194.74,290.633 2196.8,290.375 2198.85,289.474 2200.9,289.144 2202.96,289.239 2205.01,289.665 2207.06,302.253 2209.12,303.272 2211.17,303.533 2213.22,301.068 2215.27,303.174 2217.33,308.857 2219.38,312.42 2221.43,316.476 2223.49,313.467 2225.54,344.166 2227.59,348.291 2229.64,348.349 2231.7,361.457 2233.75,360.99 2235.8,353.96 2237.86,354.409 2239.91,353.823 2241.96,364.727 2244.01,364.703 2246.07,369.575 2248.12,369.238 2250.17,369.197 2252.23,370.268 2254.28,370.055 2256.33,368.635 2258.38,370.441 2260.44,370.855 2262.49,371.775 2264.54,373.333 2266.6,372.635 2268.65,362.349 2270.7,362.196 2272.75,365.586 2274.81,364.354 2276.86,361.249 2278.91,354.334 2280.97,354.607 2283.02,342.027 2285.07,351.113 2287.12,347.077 2289.18,342.06 2291.23,342.719 "/>
<path clip-path="url(#clip850)" d="M1983.6 172.231 L2280.29 172.231 L2280.29 68.5509 L1983.6 68.5509  Z" fill="#ffffff" fill-rule="evenodd" fill-opacity="1"/>
<polyline clip-path="url(#clip850)" style="stroke:#000000; stroke-linecap:round; stroke-linejoin:round; stroke-width:4; stroke-opacity:1; fill:none" points="1983.6,172.231 2280.29,172.231 2280.29,68.5509 1983.6,68.5509 1983.6,172.231 "/>
<polyline clip-path="url(#clip850)" style="stroke:#009af9; stroke-linecap:round; stroke-linejoin:round; stroke-width:4; stroke-opacity:1; fill:none" points="2007.75,120.391 2152.68,120.391 "/>
<path clip-path="url(#clip850)" d="M2176.83 103.111 L2181.51 103.111 L2181.51 133.736 L2198.34 133.736 L2198.34 137.671 L2176.83 137.671 L2176.83 103.111 Z" fill="#000000" fill-rule="nonzero" fill-opacity="1" /><path clip-path="url(#clip850)" d="M2223.96 104.245 L2223.96 108.805 Q2221.3 107.532 2218.94 106.907 Q2216.58 106.282 2214.38 106.282 Q2210.56 106.282 2208.48 107.764 Q2206.42 109.245 2206.42 111.977 Q2206.42 114.268 2207.78 115.449 Q2209.17 116.606 2213.01 117.324 L2215.84 117.902 Q2221.07 118.898 2223.55 121.421 Q2226.05 123.921 2226.05 128.134 Q2226.05 133.157 2222.67 135.75 Q2219.31 138.342 2212.81 138.342 Q2210.35 138.342 2207.57 137.787 Q2204.82 137.231 2201.86 136.143 L2201.86 131.328 Q2204.7 132.926 2207.44 133.736 Q2210.17 134.546 2212.81 134.546 Q2216.81 134.546 2218.99 132.972 Q2221.16 131.398 2221.16 128.481 Q2221.16 125.935 2219.59 124.5 Q2218.04 123.064 2214.47 122.347 L2211.62 121.791 Q2206.39 120.75 2204.06 118.527 Q2201.72 116.305 2201.72 112.347 Q2201.72 107.764 2204.94 105.125 Q2208.18 102.486 2213.85 102.486 Q2216.28 102.486 2218.8 102.926 Q2221.32 103.366 2223.96 104.245 Z" fill="#000000" fill-rule="nonzero" fill-opacity="1" /><path clip-path="url(#clip850)" d="M2254.06 104.245 L2254.06 108.805 Q2251.39 107.532 2249.03 106.907 Q2246.67 106.282 2244.47 106.282 Q2240.65 106.282 2238.57 107.764 Q2236.51 109.245 2236.51 111.977 Q2236.51 114.268 2237.87 115.449 Q2239.26 116.606 2243.11 117.324 L2245.93 117.902 Q2251.16 118.898 2253.64 121.421 Q2256.14 123.921 2256.14 128.134 Q2256.14 133.157 2252.76 135.75 Q2249.4 138.342 2242.9 138.342 Q2240.44 138.342 2237.67 137.787 Q2234.91 137.231 2231.95 136.143 L2231.95 131.328 Q2234.8 132.926 2237.53 133.736 Q2240.26 134.546 2242.9 134.546 Q2246.9 134.546 2249.08 132.972 Q2251.25 131.398 2251.25 128.481 Q2251.25 125.935 2249.68 124.5 Q2248.13 123.064 2244.56 122.347 L2241.72 121.791 Q2236.49 120.75 2234.15 118.527 Q2231.81 116.305 2231.81 112.347 Q2231.81 107.764 2235.03 105.125 Q2238.27 102.486 2243.94 102.486 Q2246.37 102.486 2248.89 102.926 Q2251.42 103.366 2254.06 104.245 Z" fill="#000000" fill-rule="nonzero" fill-opacity="1" /><path clip-path="url(#clip850)" d="M178.867 1486.45 L2352.76 1486.45 L2352.76 847.244 L178.867 847.244  Z" fill="#ffffff" fill-rule="evenodd" fill-opacity="1"/>
<defs>
  <clipPath id="clip853">
    <rect x="178" y="847" width="2175" height="640"/>
  </clipPath>
</defs>
<polyline clip-path="url(#clip853)" style="stroke:#000000; stroke-linecap:round; stroke-linejoin:round; stroke-width:2; stroke-opacity:0.1; fill:none" points="238.339,1486.45 238.339,847.244 "/>
<polyline clip-path="url(#clip853)" style="stroke:#000000; stroke-linecap:round; stroke-linejoin:round; stroke-width:2; stroke-opacity:0.1; fill:none" points="751.562,1486.45 751.562,847.244 "/>
<polyline clip-path="url(#clip853)" style="stroke:#000000; stroke-linecap:round; stroke-linejoin:round; stroke-width:2; stroke-opacity:0.1; fill:none" points="1264.78,1486.45 1264.78,847.244 "/>
<polyline clip-path="url(#clip853)" style="stroke:#000000; stroke-linecap:round; stroke-linejoin:round; stroke-width:2; stroke-opacity:0.1; fill:none" points="1778.01,1486.45 1778.01,847.244 "/>
<polyline clip-path="url(#clip853)" style="stroke:#000000; stroke-linecap:round; stroke-linejoin:round; stroke-width:2; stroke-opacity:0.1; fill:none" points="2291.23,1486.45 2291.23,847.244 "/>
<polyline clip-path="url(#clip853)" style="stroke:#000000; stroke-linecap:round; stroke-linejoin:round; stroke-width:2; stroke-opacity:0.1; fill:none" points="178.867,1486.45 2352.76,1486.45 "/>
<polyline clip-path="url(#clip853)" style="stroke:#000000; stroke-linecap:round; stroke-linejoin:round; stroke-width:2; stroke-opacity:0.1; fill:none" points="178.867,1326.65 2352.76,1326.65 "/>
<polyline clip-path="url(#clip853)" style="stroke:#000000; stroke-linecap:round; stroke-linejoin:round; stroke-width:2; stroke-opacity:0.1; fill:none" points="178.867,1166.85 2352.76,1166.85 "/>
<polyline clip-path="url(#clip853)" style="stroke:#000000; stroke-linecap:round; stroke-linejoin:round; stroke-width:2; stroke-opacity:0.1; fill:none" points="178.867,1007.05 2352.76,1007.05 "/>
<polyline clip-path="url(#clip853)" style="stroke:#000000; stroke-linecap:round; stroke-linejoin:round; stroke-width:2; stroke-opacity:0.1; fill:none" points="178.867,847.244 2352.76,847.244 "/>
<polyline clip-path="url(#clip850)" style="stroke:#000000; stroke-linecap:round; stroke-linejoin:round; stroke-width:4; stroke-opacity:1; fill:none" points="178.867,1486.45 2352.76,1486.45 "/>
<polyline clip-path="url(#clip850)" style="stroke:#000000; stroke-linecap:round; stroke-linejoin:round; stroke-width:4; stroke-opacity:1; fill:none" points="238.339,1486.45 238.339,1467.55 "/>
<polyline clip-path="url(#clip850)" style="stroke:#000000; stroke-linecap:round; stroke-linejoin:round; stroke-width:4; stroke-opacity:1; fill:none" points="751.562,1486.45 751.562,1467.55 "/>
<polyline clip-path="url(#clip850)" style="stroke:#000000; stroke-linecap:round; stroke-linejoin:round; stroke-width:4; stroke-opacity:1; fill:none" points="1264.78,1486.45 1264.78,1467.55 "/>
<polyline clip-path="url(#clip850)" style="stroke:#000000; stroke-linecap:round; stroke-linejoin:round; stroke-width:4; stroke-opacity:1; fill:none" points="1778.01,1486.45 1778.01,1467.55 "/>
<polyline clip-path="url(#clip850)" style="stroke:#000000; stroke-linecap:round; stroke-linejoin:round; stroke-width:4; stroke-opacity:1; fill:none" points="2291.23,1486.45 2291.23,1467.55 "/>
<path clip-path="url(#clip850)" d="M238.339 1517.37 Q234.728 1517.37 232.899 1520.93 Q231.094 1524.47 231.094 1531.6 Q231.094 1538.71 232.899 1542.27 Q234.728 1545.82 238.339 1545.82 Q241.973 1545.82 243.779 1542.27 Q245.607 1538.71 245.607 1531.6 Q245.607 1524.47 243.779 1520.93 Q241.973 1517.37 238.339 1517.37 M238.339 1513.66 Q244.149 1513.66 247.205 1518.27 Q250.283 1522.85 250.283 1531.6 Q250.283 1540.33 247.205 1544.94 Q244.149 1549.52 238.339 1549.52 Q232.529 1549.52 229.45 1544.94 Q226.395 1540.33 226.395 1531.6 Q226.395 1522.85 229.45 1518.27 Q232.529 1513.66 238.339 1513.66 Z" fill="#000000" fill-rule="nonzero" fill-opacity="1" /><path clip-path="url(#clip850)" d="M715.254 1544.91 L731.574 1544.91 L731.574 1548.85 L709.629 1548.85 L709.629 1544.91 Q712.291 1542.16 716.875 1537.53 Q721.481 1532.88 722.662 1531.53 Q724.907 1529.01 725.787 1527.27 Q726.689 1525.51 726.689 1523.82 Q726.689 1521.07 724.745 1519.33 Q722.824 1517.6 719.722 1517.6 Q717.523 1517.6 715.069 1518.36 Q712.638 1519.13 709.861 1520.68 L709.861 1515.95 Q712.685 1514.82 715.138 1514.24 Q717.592 1513.66 719.629 1513.66 Q725 1513.66 728.194 1516.35 Q731.388 1519.03 731.388 1523.52 Q731.388 1525.65 730.578 1527.57 Q729.791 1529.47 727.685 1532.07 Q727.106 1532.74 724.004 1535.95 Q720.902 1539.15 715.254 1544.91 Z" fill="#000000" fill-rule="nonzero" fill-opacity="1" /><path clip-path="url(#clip850)" d="M741.435 1514.29 L759.791 1514.29 L759.791 1518.22 L745.717 1518.22 L745.717 1526.7 Q746.736 1526.35 747.754 1526.19 Q748.773 1526 749.791 1526 Q755.578 1526 758.958 1529.17 Q762.337 1532.34 762.337 1537.76 Q762.337 1543.34 758.865 1546.44 Q755.393 1549.52 749.073 1549.52 Q746.898 1549.52 744.629 1549.15 Q742.384 1548.78 739.976 1548.04 L739.976 1543.34 Q742.06 1544.47 744.282 1545.03 Q746.504 1545.58 748.981 1545.58 Q752.985 1545.58 755.323 1543.48 Q757.661 1541.37 757.661 1537.76 Q757.661 1534.15 755.323 1532.04 Q752.985 1529.94 748.981 1529.94 Q747.106 1529.94 745.231 1530.35 Q743.379 1530.77 741.435 1531.65 L741.435 1514.29 Z" fill="#000000" fill-rule="nonzero" fill-opacity="1" /><path clip-path="url(#clip850)" d="M781.55 1517.37 Q777.939 1517.37 776.11 1520.93 Q774.305 1524.47 774.305 1531.6 Q774.305 1538.71 776.11 1542.27 Q777.939 1545.82 781.55 1545.82 Q785.184 1545.82 786.99 1542.27 Q788.819 1538.71 788.819 1531.6 Q788.819 1524.47 786.99 1520.93 Q785.184 1517.37 781.55 1517.37 M781.55 1513.66 Q787.36 1513.66 790.416 1518.27 Q793.495 1522.85 793.495 1531.6 Q793.495 1540.33 790.416 1544.94 Q787.36 1549.52 781.55 1549.52 Q775.74 1549.52 772.661 1544.94 Q769.606 1540.33 769.606 1531.6 Q769.606 1522.85 772.661 1518.27 Q775.74 1513.66 781.55 1513.66 Z" fill="#000000" fill-rule="nonzero" fill-opacity="1" /><path clip-path="url(#clip850)" d="M1224.4 1514.29 L1242.76 1514.29 L1242.76 1518.22 L1228.69 1518.22 L1228.69 1526.7 Q1229.7 1526.35 1230.72 1526.19 Q1231.74 1526 1232.76 1526 Q1238.55 1526 1241.93 1529.17 Q1245.31 1532.34 1245.31 1537.76 Q1245.31 1543.34 1241.83 1546.44 Q1238.36 1549.52 1232.04 1549.52 Q1229.87 1549.52 1227.6 1549.15 Q1225.35 1548.78 1222.94 1548.04 L1222.94 1543.34 Q1225.03 1544.47 1227.25 1545.03 Q1229.47 1545.58 1231.95 1545.58 Q1235.95 1545.58 1238.29 1543.48 Q1240.63 1541.37 1240.63 1537.76 Q1240.63 1534.15 1238.29 1532.04 Q1235.95 1529.94 1231.95 1529.94 Q1230.07 1529.94 1228.2 1530.35 Q1226.35 1530.77 1224.4 1531.65 L1224.4 1514.29 Z" fill="#000000" fill-rule="nonzero" fill-opacity="1" /><path clip-path="url(#clip850)" d="M1264.52 1517.37 Q1260.91 1517.37 1259.08 1520.93 Q1257.27 1524.47 1257.27 1531.6 Q1257.27 1538.71 1259.08 1542.27 Q1260.91 1545.82 1264.52 1545.82 Q1268.15 1545.82 1269.96 1542.27 Q1271.79 1538.71 1271.79 1531.6 Q1271.79 1524.47 1269.96 1520.93 Q1268.15 1517.37 1264.52 1517.37 M1264.52 1513.66 Q1270.33 1513.66 1273.38 1518.27 Q1276.46 1522.85 1276.46 1531.6 Q1276.46 1540.33 1273.38 1544.94 Q1270.33 1549.52 1264.52 1549.52 Q1258.71 1549.52 1255.63 1544.94 Q1252.57 1540.33 1252.57 1531.6 Q1252.57 1522.85 1255.63 1518.27 Q1258.71 1513.66 1264.52 1513.66 Z" fill="#000000" fill-rule="nonzero" fill-opacity="1" /><path clip-path="url(#clip850)" d="M1294.68 1517.37 Q1291.07 1517.37 1289.24 1520.93 Q1287.44 1524.47 1287.44 1531.6 Q1287.44 1538.71 1289.24 1542.27 Q1291.07 1545.82 1294.68 1545.82 Q1298.31 1545.82 1300.12 1542.27 Q1301.95 1538.71 1301.95 1531.6 Q1301.95 1524.47 1300.12 1520.93 Q1298.31 1517.37 1294.68 1517.37 M1294.68 1513.66 Q1300.49 1513.66 1303.55 1518.27 Q1306.62 1522.85 1306.62 1531.6 Q1306.62 1540.33 1303.55 1544.94 Q1300.49 1549.52 1294.68 1549.52 Q1288.87 1549.52 1285.79 1544.94 Q1282.74 1540.33 1282.74 1531.6 Q1282.74 1522.85 1285.79 1518.27 Q1288.87 1513.66 1294.68 1513.66 Z" fill="#000000" fill-rule="nonzero" fill-opacity="1" /><path clip-path="url(#clip850)" d="M1736.28 1514.29 L1758.51 1514.29 L1758.51 1516.28 L1745.96 1548.85 L1741.08 1548.85 L1752.88 1518.22 L1736.28 1518.22 L1736.28 1514.29 Z" fill="#000000" fill-rule="nonzero" fill-opacity="1" /><path clip-path="url(#clip850)" d="M1767.67 1514.29 L1786.03 1514.29 L1786.03 1518.22 L1771.95 1518.22 L1771.95 1526.7 Q1772.97 1526.35 1773.99 1526.19 Q1775.01 1526 1776.03 1526 Q1781.82 1526 1785.2 1529.17 Q1788.57 1532.34 1788.57 1537.76 Q1788.57 1543.34 1785.1 1546.44 Q1781.63 1549.52 1775.31 1549.52 Q1773.14 1549.52 1770.87 1549.15 Q1768.62 1548.78 1766.21 1548.04 L1766.21 1543.34 Q1768.3 1544.47 1770.52 1545.03 Q1772.74 1545.58 1775.22 1545.58 Q1779.22 1545.58 1781.56 1543.48 Q1783.9 1541.37 1783.9 1537.76 Q1783.9 1534.15 1781.56 1532.04 Q1779.22 1529.94 1775.22 1529.94 Q1773.34 1529.94 1771.47 1530.35 Q1769.62 1530.77 1767.67 1531.65 L1767.67 1514.29 Z" fill="#000000" fill-rule="nonzero" fill-opacity="1" /><path clip-path="url(#clip850)" d="M1807.79 1517.37 Q1804.18 1517.37 1802.35 1520.93 Q1800.54 1524.47 1800.54 1531.6 Q1800.54 1538.71 1802.35 1542.27 Q1804.18 1545.82 1807.79 1545.82 Q1811.42 1545.82 1813.23 1542.27 Q1815.06 1538.71 1815.06 1531.6 Q1815.06 1524.47 1813.23 1520.93 Q1811.42 1517.37 1807.79 1517.37 M1807.79 1513.66 Q1813.6 1513.66 1816.65 1518.27 Q1819.73 1522.85 1819.73 1531.6 Q1819.73 1540.33 1816.65 1544.94 Q1813.6 1549.52 1807.79 1549.52 Q1801.98 1549.52 1798.9 1544.94 Q1795.84 1540.33 1795.84 1531.6 Q1795.84 1522.85 1798.9 1518.27 Q1801.98 1513.66 1807.79 1513.66 Z" fill="#000000" fill-rule="nonzero" fill-opacity="1" /><path clip-path="url(#clip850)" d="M2235.76 1544.91 L2243.4 1544.91 L2243.4 1518.55 L2235.09 1520.21 L2235.09 1515.95 L2243.35 1514.29 L2248.02 1514.29 L2248.02 1544.91 L2255.66 1544.91 L2255.66 1548.85 L2235.76 1548.85 L2235.76 1544.91 Z" fill="#000000" fill-rule="nonzero" fill-opacity="1" /><path clip-path="url(#clip850)" d="M2275.11 1517.37 Q2271.5 1517.37 2269.67 1520.93 Q2267.86 1524.47 2267.86 1531.6 Q2267.86 1538.71 2269.67 1542.27 Q2271.5 1545.82 2275.11 1545.82 Q2278.74 1545.82 2280.55 1542.27 Q2282.38 1538.71 2282.38 1531.6 Q2282.38 1524.47 2280.55 1520.93 Q2278.74 1517.37 2275.11 1517.37 M2275.11 1513.66 Q2280.92 1513.66 2283.97 1518.27 Q2287.05 1522.85 2287.05 1531.6 Q2287.05 1540.33 2283.97 1544.94 Q2280.92 1549.52 2275.11 1549.52 Q2269.3 1549.52 2266.22 1544.94 Q2263.16 1540.33 2263.16 1531.6 Q2263.16 1522.85 2266.22 1518.27 Q2269.3 1513.66 2275.11 1513.66 Z" fill="#000000" fill-rule="nonzero" fill-opacity="1" /><path clip-path="url(#clip850)" d="M2305.27 1517.37 Q2301.66 1517.37 2299.83 1520.93 Q2298.02 1524.47 2298.02 1531.6 Q2298.02 1538.71 2299.83 1542.27 Q2301.66 1545.82 2305.27 1545.82 Q2308.9 1545.82 2310.71 1542.27 Q2312.54 1538.71 2312.54 1531.6 Q2312.54 1524.47 2310.71 1520.93 Q2308.9 1517.37 2305.27 1517.37 M2305.27 1513.66 Q2311.08 1513.66 2314.14 1518.27 Q2317.21 1522.85 2317.21 1531.6 Q2317.21 1540.33 2314.14 1544.94 Q2311.08 1549.52 2305.27 1549.52 Q2299.46 1549.52 2296.38 1544.94 Q2293.33 1540.33 2293.33 1531.6 Q2293.33 1522.85 2296.38 1518.27 Q2299.46 1513.66 2305.27 1513.66 Z" fill="#000000" fill-rule="nonzero" fill-opacity="1" /><path clip-path="url(#clip850)" d="M2335.43 1517.37 Q2331.82 1517.37 2329.99 1520.93 Q2328.19 1524.47 2328.19 1531.6 Q2328.19 1538.71 2329.99 1542.27 Q2331.82 1545.82 2335.43 1545.82 Q2339.07 1545.82 2340.87 1542.27 Q2342.7 1538.71 2342.7 1531.6 Q2342.7 1524.47 2340.87 1520.93 Q2339.07 1517.37 2335.43 1517.37 M2335.43 1513.66 Q2341.24 1513.66 2344.3 1518.27 Q2347.38 1522.85 2347.38 1531.6 Q2347.38 1540.33 2344.3 1544.94 Q2341.24 1549.52 2335.43 1549.52 Q2329.62 1549.52 2326.54 1544.94 Q2323.49 1540.33 2323.49 1531.6 Q2323.49 1522.85 2326.54 1518.27 Q2329.62 1513.66 2335.43 1513.66 Z" fill="#000000" fill-rule="nonzero" fill-opacity="1" /><polyline clip-path="url(#clip850)" style="stroke:#000000; stroke-linecap:round; stroke-linejoin:round; stroke-width:4; stroke-opacity:1; fill:none" points="178.867,1486.45 178.867,847.244 "/>
<polyline clip-path="url(#clip850)" style="stroke:#000000; stroke-linecap:round; stroke-linejoin:round; stroke-width:4; stroke-opacity:1; fill:none" points="178.867,1486.45 197.764,1486.45 "/>
<polyline clip-path="url(#clip850)" style="stroke:#000000; stroke-linecap:round; stroke-linejoin:round; stroke-width:4; stroke-opacity:1; fill:none" points="178.867,1326.65 197.764,1326.65 "/>
<polyline clip-path="url(#clip850)" style="stroke:#000000; stroke-linecap:round; stroke-linejoin:round; stroke-width:4; stroke-opacity:1; fill:none" points="178.867,1166.85 197.764,1166.85 "/>
<polyline clip-path="url(#clip850)" style="stroke:#000000; stroke-linecap:round; stroke-linejoin:round; stroke-width:4; stroke-opacity:1; fill:none" points="178.867,1007.05 197.764,1007.05 "/>
<polyline clip-path="url(#clip850)" style="stroke:#000000; stroke-linecap:round; stroke-linejoin:round; stroke-width:4; stroke-opacity:1; fill:none" points="178.867,847.244 197.764,847.244 "/>
<path clip-path="url(#clip850)" d="M50.9921 1486.9 L80.6679 1486.9 L80.6679 1490.83 L50.9921 1490.83 L50.9921 1486.9 Z" fill="#000000" fill-rule="nonzero" fill-opacity="1" /><path clip-path="url(#clip850)" d="M91.5706 1499.79 L99.2095 1499.79 L99.2095 1473.43 L90.8993 1475.09 L90.8993 1470.83 L99.1632 1469.17 L103.839 1469.17 L103.839 1499.79 L111.478 1499.79 L111.478 1503.73 L91.5706 1503.73 L91.5706 1499.79 Z" fill="#000000" fill-rule="nonzero" fill-opacity="1" /><path clip-path="url(#clip850)" d="M130.922 1472.25 Q127.311 1472.25 125.482 1475.81 Q123.677 1479.35 123.677 1486.48 Q123.677 1493.59 125.482 1497.15 Q127.311 1500.7 130.922 1500.7 Q134.556 1500.7 136.362 1497.15 Q138.191 1493.59 138.191 1486.48 Q138.191 1479.35 136.362 1475.81 Q134.556 1472.25 130.922 1472.25 M130.922 1468.54 Q136.732 1468.54 139.788 1473.15 Q142.867 1477.73 142.867 1486.48 Q142.867 1495.21 139.788 1499.82 Q136.732 1504.4 130.922 1504.4 Q125.112 1504.4 122.033 1499.82 Q118.978 1495.21 118.978 1486.48 Q118.978 1477.73 122.033 1473.15 Q125.112 1468.54 130.922 1468.54 Z" fill="#000000" fill-rule="nonzero" fill-opacity="1" /><path clip-path="url(#clip850)" d="M82.1494 1327.1 L111.825 1327.1 L111.825 1331.03 L82.1494 1331.03 L82.1494 1327.1 Z" fill="#000000" fill-rule="nonzero" fill-opacity="1" /><path clip-path="url(#clip850)" d="M121.964 1309.37 L140.32 1309.37 L140.32 1313.3 L126.246 1313.3 L126.246 1321.77 Q127.265 1321.43 128.283 1321.27 Q129.302 1321.08 130.32 1321.08 Q136.107 1321.08 139.487 1324.25 Q142.867 1327.42 142.867 1332.84 Q142.867 1338.42 139.394 1341.52 Q135.922 1344.6 129.603 1344.6 Q127.427 1344.6 125.158 1344.23 Q122.913 1343.86 120.506 1343.12 L120.506 1338.42 Q122.589 1339.55 124.811 1340.11 Q127.033 1340.66 129.51 1340.66 Q133.515 1340.66 135.853 1338.56 Q138.191 1336.45 138.191 1332.84 Q138.191 1329.23 135.853 1327.12 Q133.515 1325.01 129.51 1325.01 Q127.635 1325.01 125.76 1325.43 Q123.908 1325.85 121.964 1326.73 L121.964 1309.37 Z" fill="#000000" fill-rule="nonzero" fill-opacity="1" /><path clip-path="url(#clip850)" d="M130.922 1152.64 Q127.311 1152.64 125.482 1156.21 Q123.677 1159.75 123.677 1166.88 Q123.677 1173.99 125.482 1177.55 Q127.311 1181.09 130.922 1181.09 Q134.556 1181.09 136.362 1177.55 Q138.191 1173.99 138.191 1166.88 Q138.191 1159.75 136.362 1156.21 Q134.556 1152.64 130.922 1152.64 M130.922 1148.94 Q136.732 1148.94 139.788 1153.55 Q142.867 1158.13 142.867 1166.88 Q142.867 1175.61 139.788 1180.21 Q136.732 1184.8 130.922 1184.8 Q125.112 1184.8 122.033 1180.21 Q118.978 1175.61 118.978 1166.88 Q118.978 1158.13 122.033 1153.55 Q125.112 1148.94 130.922 1148.94 Z" fill="#000000" fill-rule="nonzero" fill-opacity="1" /><path clip-path="url(#clip850)" d="M121.964 989.765 L140.32 989.765 L140.32 993.7 L126.246 993.7 L126.246 1002.17 Q127.265 1001.83 128.283 1001.66 Q129.302 1001.48 130.32 1001.48 Q136.107 1001.48 139.487 1004.65 Q142.867 1007.82 142.867 1013.24 Q142.867 1018.82 139.394 1021.92 Q135.922 1025 129.603 1025 Q127.427 1025 125.158 1024.63 Q122.913 1024.26 120.506 1023.51 L120.506 1018.82 Q122.589 1019.95 124.811 1020.51 Q127.033 1021.06 129.51 1021.06 Q133.515 1021.06 135.853 1018.95 Q138.191 1016.85 138.191 1013.24 Q138.191 1009.63 135.853 1007.52 Q133.515 1005.41 129.51 1005.41 Q127.635 1005.41 125.76 1005.83 Q123.908 1006.25 121.964 1007.13 L121.964 989.765 Z" fill="#000000" fill-rule="nonzero" fill-opacity="1" /><path clip-path="url(#clip850)" d="M91.5706 860.589 L99.2095 860.589 L99.2095 834.223 L90.8993 835.89 L90.8993 831.631 L99.1632 829.964 L103.839 829.964 L103.839 860.589 L111.478 860.589 L111.478 864.524 L91.5706 864.524 L91.5706 860.589 Z" fill="#000000" fill-rule="nonzero" fill-opacity="1" /><path clip-path="url(#clip850)" d="M130.922 833.043 Q127.311 833.043 125.482 836.608 Q123.677 840.149 123.677 847.279 Q123.677 854.385 125.482 857.95 Q127.311 861.492 130.922 861.492 Q134.556 861.492 136.362 857.95 Q138.191 854.385 138.191 847.279 Q138.191 840.149 136.362 836.608 Q134.556 833.043 130.922 833.043 M130.922 829.339 Q136.732 829.339 139.788 833.946 Q142.867 838.529 142.867 847.279 Q142.867 856.006 139.788 860.612 Q136.732 865.195 130.922 865.195 Q125.112 865.195 122.033 860.612 Q118.978 856.006 118.978 847.279 Q118.978 838.529 122.033 833.946 Q125.112 829.339 130.922 829.339 Z" fill="#000000" fill-rule="nonzero" fill-opacity="1" /><polyline clip-path="url(#clip853)" style="stroke:#009af9; stroke-linecap:round; stroke-linejoin:round; stroke-width:4; stroke-opacity:1; fill:none" points="240.392,1134.89 242.445,1068.79 244.498,1112.2 246.55,1137.96 248.603,1294.56 250.656,1038.77 252.709,1096.54 254.762,1170.16 256.815,1222.88 258.868,1087.33 260.921,1148.59 262.974,1257.83 265.027,1189.13 267.079,1173.67 269.132,1178.68 271.185,1194.22 273.238,1173.57 275.291,1159.98 277.344,1155.82 279.397,1176.48 281.45,1194.45 283.503,1197.3 285.555,1224.05 287.608,1279.34 289.661,589.396 291.714,1516.63 293.767,711.992 295.82,1365.93 297.873,1400.33 299.926,1484.84 301.979,1470.44 304.031,679.376 306.084,815.5 308.137,1248.24 310.19,1194.85 312.243,1189.48 314.296,1188.92 316.349,1167.35 318.402,1171.62 320.455,1165.3 322.507,1167.24 324.56,1115.36 326.613,1094.26 328.666,1156.69 330.719,1183.43 332.772,1168.62 334.825,1328.03 336.878,1115.23 338.931,1097.59 340.984,1144.57 343.036,1155.75 345.089,1129.81 347.142,1223.7 349.195,1159.88 351.248,1145.18 353.301,1219.51 355.354,1249.96 357.407,1155.18 359.46,1072.93 361.512,1350.67 363.565,982.76 365.618,1030.96 367.671,1120.24 369.724,1194.88 371.777,1136.07 373.83,1175.59 375.883,1187.89 377.936,1207.72 379.988,1148.61 382.041,1106.71 384.094,1199.43 386.147,1139.75 388.2,1175.65 390.253,1066.42 392.306,1059.5 394.359,1091.16 396.412,1237.48 398.464,1119.15 400.517,1152.06 402.57,1175.73 404.623,1205.07 406.676,1231.97 408.729,929.511 410.782,1788.94 412.835,1882.82 414.888,1465.45 416.94,1253.54 418.993,1288.06 421.046,1627.62 423.099,1188.61 425.152,1284.15 427.205,1310.81 429.258,1230.33 431.311,1260.46 433.364,1216.29 435.417,1245.45 437.469,1168.01 439.522,1218.57 441.575,1040.53 443.628,1213.45 445.681,987.577 447.734,1169.31 449.787,1061.85 451.84,1463.51 453.893,876.376 455.945,1154 457.998,1315.29 460.051,1228.53 462.104,1202.35 464.157,1149.28 466.21,1188.06 468.263,1175.3 470.316,1128 472.369,1283.66 474.421,1295.87 476.474,1477.41 478.527,37.7038 480.58,864.13 482.633,1053.72 484.686,1003.98 486.739,1178.46 488.792,1505.5 490.845,-169.088 492.897,1107.55 494.95,1060.33 497.003,1057.35 499.056,1073.77 501.109,1269.72 503.162,1091.23 505.215,1221.37 507.268,2194.62 509.321,1193.47 511.374,1420.42 513.426,1855.97 515.479,1185.4 517.532,1149.23 519.585,1178.45 521.638,1179.28 523.691,1135.17 525.744,1201.42 527.797,1190.44 529.85,1153.75 531.902,1084.43 533.955,1176.89 536.008,1141.39 538.061,1139.81 540.114,1204.5 542.167,1139.97 544.22,1200.99 546.273,1191.26 548.326,1148.06 550.378,1152.74 552.431,1141 554.484,1202.97 556.537,1179.93 558.59,1162.01 560.643,1175.05 562.696,1154.23 564.749,1142.65 566.802,1146.57 568.854,1126.06 570.907,1169.15 572.96,994.169 575.013,827.226 577.066,1173.3 579.119,1186.22 581.172,1154.47 583.225,1167.94 585.278,1149.69 587.331,1235.95 589.383,1171.84 591.436,1167.7 593.489,1238.37 595.542,1041.41 597.595,998.086 599.648,882.931 601.701,1060.5 603.754,1161.43 605.807,1092 607.859,1148.86 609.912,1128.41 611.965,1102.15 614.018,1201.74 616.071,1233.59 618.124,1217.13 620.177,1221.57 622.23,1132.77 624.283,1174.6 626.335,1169.59 628.388,1166.13 630.441,1176.12 632.494,1154.72 634.547,1162.84 636.6,1240.73 638.653,1248.79 640.706,1152.42 642.759,1170.8 644.811,1150.86 646.864,1142.82 648.917,1193.6 650.97,1162.01 653.023,1162.49 655.076,1159.02 657.129,1198.75 659.182,1143.36 661.235,1160.27 663.288,1205.38 665.34,1203.88 667.393,1155.28 669.446,1199.96 671.499,1195.69 673.552,1162.17 675.605,1187.85 677.658,1109.17 679.711,1181.26 681.764,1183.53 683.816,1167.63 685.869,1165.21 687.922,1208.37 689.975,1204.54 692.028,1172.4 694.081,1170.06 696.134,1176.94 698.187,1175.03 700.24,1176.87 702.292,1184.63 704.345,1160.96 706.398,1165.81 708.451,1089.82 710.504,1131.09 712.557,1176.07 714.61,1226.35 716.663,1132.19 718.716,1128.82 720.768,1097.11 722.821,1168.68 724.874,1164.56 726.927,1184.26 728.98,1153.67 731.033,1179.5 733.086,1143.96 735.139,1166.69 737.192,1195.4 739.245,1161.7 741.297,1177.86 743.35,1166.21 745.403,1163.07 747.456,1226.89 749.509,1086.55 751.562,1160.86 753.615,1164.16 755.668,1165.61 757.721,1164.67 759.773,1109.5 761.826,1093.24 763.879,1211.7 765.932,1197.05 767.985,1229.02 770.038,1327.51 772.091,1156.09 774.144,1204.1 776.197,1400.04 778.249,1280.52 780.302,1315.79 782.355,1205.76 784.408,1434.37 786.461,1322.61 788.514,1191.25 790.567,1139.66 792.62,1130.4 794.673,1200.25 796.725,1121.64 798.778,1176.59 800.831,1354.57 802.884,1181.57 804.937,1171.12 806.99,1075.19 809.043,1478.47 811.096,1425 813.149,382.336 815.202,614.717 817.254,484.417 819.307,2591.31 821.36,835.519 823.413,704.592 825.466,1720.24 827.519,2086.45 829.572,-2155.73 831.625,2347.31 833.678,513.008 835.73,484.791 837.783,1529.72 839.836,654.118 841.889,811.547 843.942,764.531 845.995,2168.83 848.048,1959.07 850.101,389.35 852.154,1132.25 854.206,1233.99 856.259,1231.8 858.312,1228.7 860.365,1188.98 862.418,1170.98 864.471,1130.8 866.524,1204.41 868.577,1170.98 870.63,1168.09 872.682,1246.13 874.735,1174.45 876.788,1162.89 878.841,1183.54 880.894,1171.04 882.947,1180.08 885,1154.03 887.053,1170.31 889.106,1157.16 891.159,1178.36 893.211,1156.98 895.264,1160.84 897.317,1162.8 899.37,1179.01 901.423,1168.16 903.476,1164.74 905.529,1150.38 907.582,1141.42 909.635,1163.43 911.687,1164.47 913.74,1165.37 915.793,1154.92 917.846,1170.25 919.899,1160.62 921.952,1160.83 924.005,1172.79 926.058,1187.9 928.111,1156.13 930.163,1132.62 932.216,1171.14 934.269,1176 936.322,1174.02 938.375,1171.11 940.428,1150.21 942.481,1157.52 944.534,1181.48 946.587,1197.13 948.639,1148.67 950.692,1140.54 952.745,1172.52 954.798,1158.21 956.851,1130.15 958.904,1279.16 960.957,1128.2 963.01,1221.27 965.063,1124.95 967.116,1226.27 969.168,889.058 971.221,1339.16 973.274,801.23 975.327,755.505 977.38,1433.44 979.433,1049.82 981.486,1253.2 983.539,1198.04 985.592,1167.57 987.644,1160.76 989.697,1149.04 991.75,1175.3 993.803,1179.78 995.856,1218.36 997.909,1219.56 999.962,1115.21 1002.01,1228.19 1004.07,1188.32 1006.12,1178.47 1008.17,1163.52 1010.23,1170.16 1012.28,1122.19 1014.33,1199.55 1016.38,1235.81 1018.44,1135.01 1020.49,1207.29 1022.54,1022.62 1024.6,1252.33 1026.65,1158.19 1028.7,1186.83 1030.76,1186.01 1032.81,1201.28 1034.86,1188.01 1036.91,1195.34 1038.97,1179.14 1041.02,1168.94 1043.07,1066.5 1045.13,1258.49 1047.18,1150.88 1049.23,1151.39 1051.28,1103.38 1053.34,1219.36 1055.39,1199.64 1057.44,1238.55 1059.5,1268.5 1061.55,1141.57 1063.6,1166.96 1065.65,1166.12 1067.71,1187.01 1069.76,1130.61 1071.81,1215.11 1073.87,1199.02 1075.92,1228.85 1077.97,1125.21 1080.02,1201.49 1082.08,1136.65 1084.13,1175.76 1086.18,1140.47 1088.24,1207.55 1090.29,1151.86 1092.34,1179.01 1094.39,1135.55 1096.45,1147.23 1098.5,1146.58 1100.55,1188.41 1102.61,1206.86 1104.66,1148.78 1106.71,1124.42 1108.77,1166.1 1110.82,1224.87 1112.87,1146.04 1114.92,1148.43 1116.98,1085.82 1119.03,1157.03 1121.08,1211.65 1123.14,1249.74 1125.19,1320.33 1127.24,1163.91 1129.29,1196.39 1131.35,1252.47 1133.4,1209.21 1135.45,1052.55 1137.51,1061.59 1139.56,1120.06 1141.61,1148.86 1143.66,1151.7 1145.72,1182.05 1147.77,1179.28 1149.82,1155.66 1151.88,1170.2 1153.93,1146.15 1155.98,1154.26 1158.03,1217.36 1160.09,1086.18 1162.14,1285.08 1164.19,1171.84 1166.25,478.463 1168.3,1199 1170.35,1234.72 1172.4,1118.89 1174.46,1160.87 1176.51,1156.35 1178.56,1192.58 1180.62,1209.11 1182.67,1127.39 1184.72,1188.45 1186.77,1155.62 1188.83,1161.7 1190.88,1183.84 1192.93,1158.75 1194.99,1183.36 1197.04,1144.74 1199.09,1157.51 1201.15,1310.45 1203.2,1067.12 1205.25,1383.84 1207.3,1384.28 1209.36,899.559 1211.41,-113.16 1213.46,1135.86 1215.52,1000.13 1217.57,1339.98 1219.62,1178.6 1221.67,1152.35 1223.73,1191.13 1225.78,1184.45 1227.83,1129.81 1229.89,1180.52 1231.94,1181.88 1233.99,1162.06 1236.04,1163.21 1238.1,1164.83 1240.15,1171.26 1242.2,1171.9 1244.26,1157.81 1246.31,1153.4 1248.36,1149.28 1250.41,1165.62 1252.47,1160.46 1254.52,1184.11 1256.57,1135.98 1258.63,1062.64 1260.68,1130.46 1262.73,1195.47 1264.78,1103.38 1266.84,1201.48 1268.89,1193.26 1270.94,1161.55 1273,1617.55 1275.05,916.393 1277.1,1223.96 1279.16,1109.96 1281.21,1266.43 1283.26,1235.27 1285.31,1134.86 1287.37,1146.61 1289.42,1196.67 1291.47,1161.32 1293.53,1103.03 1295.58,1188.55 1297.63,1265 1299.68,1161.41 1301.74,1170.67 1303.79,1141.14 1305.84,1154.14 1307.9,1193.43 1309.95,1208.28 1312,1151.78 1314.05,1173.29 1316.11,1164.08 1318.16,1274.62 1320.21,1209.78 1322.27,1114.28 1324.32,1204.41 1326.37,1152.63 1328.42,1044.65 1330.48,1063.53 1332.53,1087.59 1334.58,1054.87 1336.64,1181.05 1338.69,1187.64 1340.74,1108.85 1342.79,1142.07 1344.85,1119.33 1346.9,1117.28 1348.95,1139.39 1351.01,1183.99 1353.06,1150.52 1355.11,1124.53 1357.16,1189.46 1359.22,1358.76 1361.27,1223.71 1363.32,1234.37 1365.38,968.142 1367.43,1169.13 1369.48,1181.49 1371.54,1152.59 1373.59,1301.73 1375.64,1020.67 1377.69,1506.59 1379.75,265.417 1381.8,1195.46 1383.85,1152.87 1385.91,1190.9 1387.96,1149.56 1390.01,1201.1 1392.06,1139.56 1394.12,1159.25 1396.17,1183.25 1398.22,1155.57 1400.28,1133.13 1402.33,1148.7 1404.38,1200.27 1406.43,1196.91 1408.49,1136.57 1410.54,1169 1412.59,1177 1414.65,1141.21 1416.7,1175.57 1418.75,1164.37 1420.8,1167.32 1422.86,1151.66 1424.91,1133.91 1426.96,1086.99 1429.02,1187.42 1431.07,1231.38 1433.12,1193.46 1435.17,1260.24 1437.23,1084.96 1439.28,1310.15 1441.33,1333.66 1443.39,1112.49 1445.44,1090.63 1447.49,1157.31 1449.55,1209.69 1451.6,1136.97 1453.65,1107.79 1455.7,1189.68 1457.76,1134.78 1459.81,1196.36 1461.86,1224.91 1463.92,1197.11 1465.97,975.869 1468.02,961.387 1470.07,1265.58 1472.13,1143.49 1474.18,1163.54 1476.23,1167.45 1478.29,1177.95 1480.34,1108.11 1482.39,1225.51 1484.44,1156.62 1486.5,1029.96 1488.55,1176.91 1490.6,1244.47 1492.66,1274.57 1494.71,2776.95 1496.76,2992.26 1498.81,-422.343 1500.87,155.525 1502.92,1188.58 1504.97,1194.1 1507.03,1185.74 1509.08,1181.22 1511.13,1194.77 1513.18,1239.49 1515.24,1193.75 1517.29,1195.57 1519.34,1192.36 1521.4,1150.55 1523.45,1164.24 1525.5,1268.29 1527.55,1143.74 1529.61,1217.2 1531.66,1149.98 1533.71,1192.35 1535.77,1183.96 1537.82,1111.91 1539.87,1164.13 1541.93,1083.35 1543.98,1177.35 1546.03,1242.44 1548.08,1154.12 1550.14,1184.92 1552.19,1168.39 1554.24,1104.99 1556.3,1188.23 1558.35,1182.54 1560.4,1115.84 1562.45,1066.19 1564.51,1251.13 1566.56,1198.25 1568.61,1195.96 1570.67,1459.72 1572.72,1153.39 1574.77,1136.65 1576.82,1182.63 1578.88,1204.37 1580.93,1172.99 1582.98,1162.6 1585.04,1163.99 1587.09,1137.91 1589.14,1156.93 1591.19,801.989 1593.25,1008.4 1595.3,1369.43 1597.35,1147.11 1599.41,1314.34 1601.46,1234.32 1603.51,1426.27 1605.56,1606.87 1607.62,686.892 1609.67,1208.37 1611.72,1204.58 1613.78,1267.16 1615.83,1310.05 1617.88,1260.73 1619.94,1235.55 1621.99,1242.78 1624.04,1076.18 1626.09,1123.55 1628.15,1171.35 1630.2,1177.23 1632.25,1173.05 1634.31,1183.97 1636.36,1335.84 1638.41,1347.22 1640.46,990.152 1642.52,1463.95 1644.57,1259.25 1646.62,933.739 1648.68,1176.74 1650.73,1200.84 1652.78,1014.85 1654.83,996.815 1656.89,1049.75 1658.94,1240.87 1660.99,1117.42 1663.05,1099.41 1665.1,1260.63 1667.15,1148.52 1669.2,1073.11 1671.26,1222.32 1673.31,1187.31 1675.36,1154.7 1677.42,1174.35 1679.47,1161.3 1681.52,1202.84 1683.57,1546.99 1685.63,1341.1 1687.68,1078.27 1689.73,857.535 1691.79,1053.6 1693.84,1257.71 1695.89,1037.01 1697.94,1187.43 1700,1167.57 1702.05,969.788 1704.1,1108.88 1706.16,1034.08 1708.21,1243.03 1710.26,1213.39 1712.32,1173.82 1714.37,1186.85 1716.42,1151.8 1718.47,1164.9 1720.53,1182.99 1722.58,1163.41 1724.63,1175.73 1726.69,1144.77 1728.74,1217.39 1730.79,1282.19 1732.84,1194.62 1734.9,1156.93 1736.95,1153.1 1739,1179.77 1741.06,1174.43 1743.11,1149.49 1745.16,1145.38 1747.21,1105.64 1749.27,1111.51 1751.32,1186.46 1753.37,1006.65 1755.43,1211.04 1757.48,1243.88 1759.53,1282.59 1761.58,1162.06 1763.64,1222.96 1765.69,1176.84 1767.74,1196.86 1769.8,1202.14 1771.85,1128.17 1773.9,1095.26 1775.95,1084.27 1778.01,1014.65 1780.06,956.1 1782.11,1100.9 1784.17,1121.97 1786.22,1052.49 1788.27,860.504 1790.33,1183.99 1792.38,1163.58 1794.43,1245.11 1796.48,1181.23 1798.54,1188.71 1800.59,1200.05 1802.64,1152.82 1804.7,1220.61 1806.75,1184.58 1808.8,1165.7 1810.85,1164.49 1812.91,1179.53 1814.96,1215.71 1817.01,1174.04 1819.07,1088.48 1821.12,1259.09 1823.17,1276.49 1825.22,1211.29 1827.28,1222.82 1829.33,1151.06 1831.38,1203.47 1833.44,1178.77 1835.49,1112.79 1837.54,1239.73 1839.59,1348.99 1841.65,1655.29 1843.7,1707.63 1845.75,1064.9 1847.81,540.695 1849.86,2438.32 1851.91,750.264 1853.96,1040.21 1856.02,371.578 1858.07,1088.68 1860.12,1163.84 1862.18,1148.11 1864.23,1178.59 1866.28,1094.75 1868.34,1074.36 1870.39,1114.31 1872.44,1139.87 1874.49,1156.62 1876.55,1176.32 1878.6,1172.09 1880.65,1167.26 1882.71,1175.13 1884.76,1249.92 1886.81,1089.1 1888.86,1197.14 1890.92,1103.4 1892.97,1223 1895.02,1187.71 1897.08,1139.34 1899.13,1200.43 1901.18,1154.96 1903.23,1180.69 1905.29,1197.6 1907.34,1148.68 1909.39,1138.77 1911.45,1160.37 1913.5,1197.73 1915.55,1182.26 1917.6,1148.65 1919.66,1200.51 1921.71,1159.11 1923.76,1131.13 1925.82,1067.37 1927.87,958.627 1929.92,1041.09 1931.97,1257.75 1934.03,1185.72 1936.08,1159.94 1938.13,1167.32 1940.19,1154.73 1942.24,1204.3 1944.29,1167.23 1946.34,1172.04 1948.4,1230.42 1950.45,1190.21 1952.5,1181.82 1954.56,1141.24 1956.61,1190.58 1958.66,1182.12 1960.72,1459.78 1962.77,1487.69 1964.82,1104.15 1966.87,1291.1 1968.93,1146.86 1970.98,1195.99 1973.03,1146.51 1975.09,1206.87 1977.14,1184.16 1979.19,1177.54 1981.24,1083.81 1983.3,1175.66 1985.35,1149.63 1987.4,1213.14 1989.46,1149.64 1991.51,1235.06 1993.56,1188.34 1995.61,1150.18 1997.67,1191.13 1999.72,1091.19 2001.77,1189.8 2003.83,1171.21 2005.88,1164.82 2007.93,1093.32 2009.98,1149.31 2012.04,1187.74 2014.09,1243.51 2016.14,1205.49 2018.2,1228.24 2020.25,1183.21 2022.3,1220.11 2024.35,1122.26 2026.41,1118.99 2028.46,1134.65 2030.51,1166.72 2032.57,1150.92 2034.62,1105.64 2036.67,1200.91 2038.73,1181.15 2040.78,1125.1 2042.83,1191.54 2044.88,1133.29 2046.94,1188.45 2048.99,1191.18 2051.04,1068.29 2053.1,852.864 2055.15,1064.36 2057.2,947.572 2059.25,1295.47 2061.31,1035.25 2063.36,1142.39 2065.41,1163.04 2067.47,1148.92 2069.52,1173.07 2071.57,1246.33 2073.62,1249.25 2075.68,1283.02 2077.73,1070.48 2079.78,1110.92 2081.84,1045.19 2083.89,1073.64 2085.94,1137.07 2087.99,1129.76 2090.05,1149.34 2092.1,1193.29 2094.15,1196.27 2096.21,1150 2098.26,1122.08 2100.31,1244.3 2102.36,1157.9 2104.42,1108.89 2106.47,1174.18 2108.52,1175.49 2110.58,1028.04 2112.63,1072.1 2114.68,1188.49 2116.73,1089.58 2118.79,1011.97 2120.84,1247.97 2122.89,1211.47 2124.95,1138.91 2127,1151.58 2129.05,1144.21 2131.11,1161.73 2133.16,1169.03 2135.21,1344.77 2137.26,1131.75 2139.32,1195.29 2141.37,1151.53 2143.42,1126.62 2145.48,1177.69 2147.53,1173.58 2149.58,1173.52 2151.63,977.561 2153.69,1343.5 2155.74,1114.62 2157.79,1210.86 2159.85,1023.84 2161.9,1121.59 2163.95,1105.52 2166,1130.43 2168.06,1242.43 2170.11,921.668 2172.16,1023.48 2174.22,1180.49 2176.27,1257.71 2178.32,1202.69 2180.37,1213.44 2182.43,1046.24 2184.48,1010.42 2186.53,787.146 2188.59,999.386 2190.64,1295.62 2192.69,1070.38 2194.74,1104.44 2196.8,1158.63 2198.85,1161.78 2200.9,1147.41 2202.96,1140.19 2205.01,1131.53 2207.06,1223.66 2209.12,1128.4 2211.17,1125.29 2213.22,1135.06 2215.27,1102.2 2217.33,1069.73 2219.38,1182.72 2221.43,1144.88 2223.49,1154.8 2225.54,1170.26 2227.59,1213.07 2229.64,1119.45 2231.7,1214.31 2233.75,1171.34 2235.8,1200.97 2237.86,1170.37 2239.91,1175.39 2241.96,1164.7 2244.01,1168.88 2246.07,1154.95 2248.12,1172.51 2250.17,1171.09 2252.23,1160.46 2254.28,1205.64 2256.33,1145.67 2258.38,1149.82 2260.44,1126.37 2262.49,1196.78 2264.54,1242.93 2266.6,1151.34 2268.65,1300.49 2270.7,1102.89 2272.75,1341 2274.81,1601.86 2276.86,1321.53 2278.91,1152.64 2280.97,1131.83 2283.02,970.074 2285.07,1032.99 2287.12,908.807 2289.18,1182.89 2291.23,1357.41 "/>
<path clip-path="url(#clip850)" d="M1942.7 1465.14 L2280.29 1465.14 L2280.29 1361.46 L1942.7 1361.46  Z" fill="#ffffff" fill-rule="evenodd" fill-opacity="1"/>
<polyline clip-path="url(#clip850)" style="stroke:#000000; stroke-linecap:round; stroke-linejoin:round; stroke-width:4; stroke-opacity:1; fill:none" points="1942.7,1465.14 2280.29,1465.14 2280.29,1361.46 1942.7,1361.46 1942.7,1465.14 "/>
<polyline clip-path="url(#clip850)" style="stroke:#009af9; stroke-linecap:round; stroke-linejoin:round; stroke-width:4; stroke-opacity:1; fill:none" points="1966.85,1413.3 2111.78,1413.3 "/>
<path clip-path="url(#clip850)" d="M2161.49 1425.65 L2161.49 1416.37 L2153.85 1416.37 L2153.85 1412.53 L2166.12 1412.53 L2166.12 1427.36 Q2163.41 1429.28 2160.14 1430.28 Q2156.88 1431.25 2153.18 1431.25 Q2145.07 1431.25 2140.49 1426.53 Q2135.93 1421.78 2135.93 1413.34 Q2135.93 1404.86 2140.49 1400.14 Q2145.07 1395.4 2153.18 1395.4 Q2156.56 1395.4 2159.59 1396.23 Q2162.64 1397.06 2165.21 1398.68 L2165.21 1403.66 Q2162.62 1401.46 2159.7 1400.35 Q2156.79 1399.24 2153.57 1399.24 Q2147.23 1399.24 2144.03 1402.78 Q2140.86 1406.32 2140.86 1413.34 Q2140.86 1420.33 2144.03 1423.87 Q2147.23 1427.41 2153.57 1427.41 Q2156.05 1427.41 2157.99 1426.99 Q2159.94 1426.55 2161.49 1425.65 Z" fill="#000000" fill-rule="nonzero" fill-opacity="1" /><path clip-path="url(#clip850)" d="M2179.33 1399.86 L2179.33 1412.85 L2185.21 1412.85 Q2188.48 1412.85 2190.26 1411.16 Q2192.04 1409.47 2192.04 1406.35 Q2192.04 1403.24 2190.26 1401.55 Q2188.48 1399.86 2185.21 1399.86 L2179.33 1399.86 M2174.66 1396.02 L2185.21 1396.02 Q2191.02 1396.02 2193.99 1398.66 Q2196.97 1401.28 2196.97 1406.35 Q2196.97 1411.46 2193.99 1414.08 Q2191.02 1416.69 2185.21 1416.69 L2179.33 1416.69 L2179.33 1430.58 L2174.66 1430.58 L2174.66 1396.02 Z" fill="#000000" fill-rule="nonzero" fill-opacity="1" /><path clip-path="url(#clip850)" d="M2223.96 1397.16 L2223.96 1401.72 Q2221.3 1400.44 2218.94 1399.82 Q2216.58 1399.19 2214.38 1399.19 Q2210.56 1399.19 2208.48 1400.67 Q2206.42 1402.16 2206.42 1404.89 Q2206.42 1407.18 2207.78 1408.36 Q2209.17 1409.52 2213.01 1410.23 L2215.84 1410.81 Q2221.07 1411.81 2223.55 1414.33 Q2226.05 1416.83 2226.05 1421.04 Q2226.05 1426.07 2222.67 1428.66 Q2219.31 1431.25 2212.81 1431.25 Q2210.35 1431.25 2207.57 1430.7 Q2204.82 1430.14 2201.86 1429.05 L2201.86 1424.24 Q2204.7 1425.84 2207.44 1426.65 Q2210.17 1427.46 2212.81 1427.46 Q2216.81 1427.46 2218.99 1425.88 Q2221.16 1424.31 2221.16 1421.39 Q2221.16 1418.85 2219.59 1417.41 Q2218.04 1415.97 2214.47 1415.26 L2211.62 1414.7 Q2206.39 1413.66 2204.06 1411.44 Q2201.72 1409.22 2201.72 1405.26 Q2201.72 1400.67 2204.94 1398.03 Q2208.18 1395.4 2213.85 1395.4 Q2216.28 1395.4 2218.8 1395.84 Q2221.32 1396.28 2223.96 1397.16 Z" fill="#000000" fill-rule="nonzero" fill-opacity="1" /><path clip-path="url(#clip850)" d="M2254.06 1397.16 L2254.06 1401.72 Q2251.39 1400.44 2249.03 1399.82 Q2246.67 1399.19 2244.47 1399.19 Q2240.65 1399.19 2238.57 1400.67 Q2236.51 1402.16 2236.51 1404.89 Q2236.51 1407.18 2237.87 1408.36 Q2239.26 1409.52 2243.11 1410.23 L2245.93 1410.81 Q2251.16 1411.81 2253.64 1414.33 Q2256.14 1416.83 2256.14 1421.04 Q2256.14 1426.07 2252.76 1428.66 Q2249.4 1431.25 2242.9 1431.25 Q2240.44 1431.25 2237.67 1430.7 Q2234.91 1430.14 2231.95 1429.05 L2231.95 1424.24 Q2234.8 1425.84 2237.53 1426.65 Q2240.26 1427.46 2242.9 1427.46 Q2246.9 1427.46 2249.08 1425.88 Q2251.25 1424.31 2251.25 1421.39 Q2251.25 1418.85 2249.68 1417.41 Q2248.13 1415.97 2244.56 1415.26 L2241.72 1414.7 Q2236.49 1413.66 2234.15 1411.44 Q2231.81 1409.22 2231.81 1405.26 Q2231.81 1400.67 2235.03 1398.03 Q2238.27 1395.4 2243.94 1395.4 Q2246.37 1395.4 2248.89 1395.84 Q2251.42 1396.28 2254.06 1397.16 Z" fill="#000000" fill-rule="nonzero" fill-opacity="1" /></svg>
