<?xml version="1.0" encoding="utf-8"?>
<svg xmlns="http://www.w3.org/2000/svg" xmlns:xlink="http://www.w3.org/1999/xlink" width="600" height="400" viewBox="0 0 2400 1600">
<defs>
  <clipPath id="clip810">
    <rect x="0" y="0" width="2400" height="1600"/>
  </clipPath>
</defs>
<path clip-path="url(#clip810)" d="M0 1600 L2400 1600 L2400 0 L0 0  Z" fill="#ffffff" fill-rule="evenodd" fill-opacity="1"/>
<defs>
  <clipPath id="clip811">
    <rect x="480" y="0" width="1681" height="1600"/>
  </clipPath>
</defs>
<path clip-path="url(#clip810)" d="M178.867 686.448 L2352.76 686.448 L2352.76 47.2441 L178.867 47.2441  Z" fill="#ffffff" fill-rule="evenodd" fill-opacity="1"/>
<defs>
  <clipPath id="clip812">
    <rect x="178" y="47" width="2175" height="640"/>
  </clipPath>
</defs>
<polyline clip-path="url(#clip812)" style="stroke:#000000; stroke-linecap:round; stroke-linejoin:round; stroke-width:2; stroke-opacity:0.1; fill:none" points="238.339,686.448 238.339,47.2441 "/>
<polyline clip-path="url(#clip812)" style="stroke:#000000; stroke-linecap:round; stroke-linejoin:round; stroke-width:2; stroke-opacity:0.1; fill:none" points="751.562,686.448 751.562,47.2441 "/>
<polyline clip-path="url(#clip812)" style="stroke:#000000; stroke-linecap:round; stroke-linejoin:round; stroke-width:2; stroke-opacity:0.1; fill:none" points="1264.78,686.448 1264.78,47.2441 "/>
<polyline clip-path="url(#clip812)" style="stroke:#000000; stroke-linecap:round; stroke-linejoin:round; stroke-width:2; stroke-opacity:0.1; fill:none" points="1778.01,686.448 1778.01,47.2441 "/>
<polyline clip-path="url(#clip812)" style="stroke:#000000; stroke-linecap:round; stroke-linejoin:round; stroke-width:2; stroke-opacity:0.1; fill:none" points="2291.23,686.448 2291.23,47.2441 "/>
<polyline clip-path="url(#clip812)" style="stroke:#000000; stroke-linecap:round; stroke-linejoin:round; stroke-width:2; stroke-opacity:0.1; fill:none" points="178.867,686.448 2352.76,686.448 "/>
<polyline clip-path="url(#clip812)" style="stroke:#000000; stroke-linecap:round; stroke-linejoin:round; stroke-width:2; stroke-opacity:0.1; fill:none" points="178.867,526.647 2352.76,526.647 "/>
<polyline clip-path="url(#clip812)" style="stroke:#000000; stroke-linecap:round; stroke-linejoin:round; stroke-width:2; stroke-opacity:0.1; fill:none" points="178.867,366.846 2352.76,366.846 "/>
<polyline clip-path="url(#clip812)" style="stroke:#000000; stroke-linecap:round; stroke-linejoin:round; stroke-width:2; stroke-opacity:0.1; fill:none" points="178.867,207.045 2352.76,207.045 "/>
<polyline clip-path="url(#clip812)" style="stroke:#000000; stroke-linecap:round; stroke-linejoin:round; stroke-width:2; stroke-opacity:0.1; fill:none" points="178.867,47.2441 2352.76,47.2441 "/>
<polyline clip-path="url(#clip810)" style="stroke:#000000; stroke-linecap:round; stroke-linejoin:round; stroke-width:4; stroke-opacity:1; fill:none" points="178.867,686.448 2352.76,686.448 "/>
<polyline clip-path="url(#clip810)" style="stroke:#000000; stroke-linecap:round; stroke-linejoin:round; stroke-width:4; stroke-opacity:1; fill:none" points="238.339,686.448 238.339,667.55 "/>
<polyline clip-path="url(#clip810)" style="stroke:#000000; stroke-linecap:round; stroke-linejoin:round; stroke-width:4; stroke-opacity:1; fill:none" points="751.562,686.448 751.562,667.55 "/>
<polyline clip-path="url(#clip810)" style="stroke:#000000; stroke-linecap:round; stroke-linejoin:round; stroke-width:4; stroke-opacity:1; fill:none" points="1264.78,686.448 1264.78,667.55 "/>
<polyline clip-path="url(#clip810)" style="stroke:#000000; stroke-linecap:round; stroke-linejoin:round; stroke-width:4; stroke-opacity:1; fill:none" points="1778.01,686.448 1778.01,667.55 "/>
<polyline clip-path="url(#clip810)" style="stroke:#000000; stroke-linecap:round; stroke-linejoin:round; stroke-width:4; stroke-opacity:1; fill:none" points="2291.23,686.448 2291.23,667.55 "/>
<path clip-path="url(#clip810)" d="M238.339 717.367 Q234.728 717.367 232.899 720.931 Q231.094 724.473 231.094 731.603 Q231.094 738.709 232.899 742.274 Q234.728 745.815 238.339 745.815 Q241.973 745.815 243.779 742.274 Q245.607 738.709 245.607 731.603 Q245.607 724.473 243.779 720.931 Q241.973 717.367 238.339 717.367 M238.339 713.663 Q244.149 713.663 247.205 718.269 Q250.283 722.853 250.283 731.603 Q250.283 740.329 247.205 744.936 Q244.149 749.519 238.339 749.519 Q232.529 749.519 229.45 744.936 Q226.395 740.329 226.395 731.603 Q226.395 722.853 229.45 718.269 Q232.529 713.663 238.339 713.663 Z" fill="#000000" fill-rule="nonzero" fill-opacity="1" /><path clip-path="url(#clip810)" d="M715.254 744.913 L731.574 744.913 L731.574 748.848 L709.629 748.848 L709.629 744.913 Q712.291 742.158 716.875 737.528 Q721.481 732.876 722.662 731.533 Q724.907 729.01 725.787 727.274 Q726.689 725.515 726.689 723.825 Q726.689 721.07 724.745 719.334 Q722.824 717.598 719.722 717.598 Q717.523 717.598 715.069 718.362 Q712.638 719.126 709.861 720.677 L709.861 715.955 Q712.685 714.82 715.138 714.242 Q717.592 713.663 719.629 713.663 Q725 713.663 728.194 716.348 Q731.388 719.033 731.388 723.524 Q731.388 725.654 730.578 727.575 Q729.791 729.473 727.685 732.066 Q727.106 732.737 724.004 735.954 Q720.902 739.149 715.254 744.913 Z" fill="#000000" fill-rule="nonzero" fill-opacity="1" /><path clip-path="url(#clip810)" d="M741.435 714.288 L759.791 714.288 L759.791 718.223 L745.717 718.223 L745.717 726.695 Q746.736 726.348 747.754 726.186 Q748.773 726.001 749.791 726.001 Q755.578 726.001 758.958 729.172 Q762.337 732.343 762.337 737.76 Q762.337 743.339 758.865 746.44 Q755.393 749.519 749.073 749.519 Q746.898 749.519 744.629 749.149 Q742.384 748.778 739.976 748.038 L739.976 743.339 Q742.06 744.473 744.282 745.028 Q746.504 745.584 748.981 745.584 Q752.985 745.584 755.323 743.478 Q757.661 741.371 757.661 737.76 Q757.661 734.149 755.323 732.042 Q752.985 729.936 748.981 729.936 Q747.106 729.936 745.231 730.353 Q743.379 730.769 741.435 731.649 L741.435 714.288 Z" fill="#000000" fill-rule="nonzero" fill-opacity="1" /><path clip-path="url(#clip810)" d="M781.55 717.367 Q777.939 717.367 776.11 720.931 Q774.305 724.473 774.305 731.603 Q774.305 738.709 776.11 742.274 Q777.939 745.815 781.55 745.815 Q785.184 745.815 786.99 742.274 Q788.819 738.709 788.819 731.603 Q788.819 724.473 786.99 720.931 Q785.184 717.367 781.55 717.367 M781.55 713.663 Q787.36 713.663 790.416 718.269 Q793.495 722.853 793.495 731.603 Q793.495 740.329 790.416 744.936 Q787.36 749.519 781.55 749.519 Q775.74 749.519 772.661 744.936 Q769.606 740.329 769.606 731.603 Q769.606 722.853 772.661 718.269 Q775.74 713.663 781.55 713.663 Z" fill="#000000" fill-rule="nonzero" fill-opacity="1" /><path clip-path="url(#clip810)" d="M1224.4 714.288 L1242.76 714.288 L1242.76 718.223 L1228.69 718.223 L1228.69 726.695 Q1229.7 726.348 1230.72 726.186 Q1231.74 726.001 1232.76 726.001 Q1238.55 726.001 1241.93 729.172 Q1245.31 732.343 1245.31 737.76 Q1245.31 743.339 1241.83 746.44 Q1238.36 749.519 1232.04 749.519 Q1229.87 749.519 1227.6 749.149 Q1225.35 748.778 1222.94 748.038 L1222.94 743.339 Q1225.03 744.473 1227.25 745.028 Q1229.47 745.584 1231.95 745.584 Q1235.95 745.584 1238.29 743.478 Q1240.63 741.371 1240.63 737.76 Q1240.63 734.149 1238.29 732.042 Q1235.95 729.936 1231.95 729.936 Q1230.07 729.936 1228.2 730.353 Q1226.35 730.769 1224.4 731.649 L1224.4 714.288 Z" fill="#000000" fill-rule="nonzero" fill-opacity="1" /><path clip-path="url(#clip810)" d="M1264.52 717.367 Q1260.91 717.367 1259.08 720.931 Q1257.27 724.473 1257.27 731.603 Q1257.27 738.709 1259.08 742.274 Q1260.91 745.815 1264.52 745.815 Q1268.15 745.815 1269.96 742.274 Q1271.79 738.709 1271.79 731.603 Q1271.79 724.473 1269.96 720.931 Q1268.15 717.367 1264.52 717.367 M1264.52 713.663 Q1270.33 713.663 1273.38 718.269 Q1276.46 722.853 1276.46 731.603 Q1276.46 740.329 1273.38 744.936 Q1270.33 749.519 1264.52 749.519 Q1258.71 749.519 1255.63 744.936 Q1252.57 740.329 1252.57 731.603 Q1252.57 722.853 1255.63 718.269 Q1258.71 713.663 1264.52 713.663 Z" fill="#000000" fill-rule="nonzero" fill-opacity="1" /><path clip-path="url(#clip810)" d="M1294.68 717.367 Q1291.07 717.367 1289.24 720.931 Q1287.44 724.473 1287.44 731.603 Q1287.44 738.709 1289.24 742.274 Q1291.07 745.815 1294.68 745.815 Q1298.31 745.815 1300.12 742.274 Q1301.95 738.709 1301.95 731.603 Q1301.95 724.473 1300.12 720.931 Q1298.31 717.367 1294.68 717.367 M1294.68 713.663 Q1300.49 713.663 1303.55 718.269 Q1306.62 722.853 1306.62 731.603 Q1306.62 740.329 1303.55 744.936 Q1300.49 749.519 1294.68 749.519 Q1288.87 749.519 1285.79 744.936 Q1282.74 740.329 1282.74 731.603 Q1282.74 722.853 1285.79 718.269 Q1288.87 713.663 1294.68 713.663 Z" fill="#000000" fill-rule="nonzero" fill-opacity="1" /><path clip-path="url(#clip810)" d="M1736.28 714.288 L1758.51 714.288 L1758.51 716.279 L1745.96 748.848 L1741.08 748.848 L1752.88 718.223 L1736.28 718.223 L1736.28 714.288 Z" fill="#000000" fill-rule="nonzero" fill-opacity="1" /><path clip-path="url(#clip810)" d="M1767.67 714.288 L1786.03 714.288 L1786.03 718.223 L1771.95 718.223 L1771.95 726.695 Q1772.97 726.348 1773.99 726.186 Q1775.01 726.001 1776.03 726.001 Q1781.82 726.001 1785.2 729.172 Q1788.57 732.343 1788.57 737.76 Q1788.57 743.339 1785.1 746.44 Q1781.63 749.519 1775.31 749.519 Q1773.14 749.519 1770.87 749.149 Q1768.62 748.778 1766.21 748.038 L1766.21 743.339 Q1768.3 744.473 1770.52 745.028 Q1772.74 745.584 1775.22 745.584 Q1779.22 745.584 1781.56 743.478 Q1783.9 741.371 1783.9 737.76 Q1783.9 734.149 1781.56 732.042 Q1779.22 729.936 1775.22 729.936 Q1773.34 729.936 1771.47 730.353 Q1769.62 730.769 1767.67 731.649 L1767.67 714.288 Z" fill="#000000" fill-rule="nonzero" fill-opacity="1" /><path clip-path="url(#clip810)" d="M1807.79 717.367 Q1804.18 717.367 1802.35 720.931 Q1800.54 724.473 1800.54 731.603 Q1800.54 738.709 1802.35 742.274 Q1804.18 745.815 1807.79 745.815 Q1811.42 745.815 1813.23 742.274 Q1815.06 738.709 1815.06 731.603 Q1815.06 724.473 1813.23 720.931 Q1811.42 717.367 1807.79 717.367 M1807.79 713.663 Q1813.6 713.663 1816.65 718.269 Q1819.73 722.853 1819.73 731.603 Q1819.73 740.329 1816.65 744.936 Q1813.6 749.519 1807.79 749.519 Q1801.98 749.519 1798.9 744.936 Q1795.84 740.329 1795.84 731.603 Q1795.84 722.853 1798.9 718.269 Q1801.98 713.663 1807.79 713.663 Z" fill="#000000" fill-rule="nonzero" fill-opacity="1" /><path clip-path="url(#clip810)" d="M2235.76 744.913 L2243.4 744.913 L2243.4 718.547 L2235.09 720.214 L2235.09 715.955 L2243.35 714.288 L2248.02 714.288 L2248.02 744.913 L2255.66 744.913 L2255.66 748.848 L2235.76 748.848 L2235.76 744.913 Z" fill="#000000" fill-rule="nonzero" fill-opacity="1" /><path clip-path="url(#clip810)" d="M2275.11 717.367 Q2271.5 717.367 2269.67 720.931 Q2267.86 724.473 2267.86 731.603 Q2267.86 738.709 2269.67 742.274 Q2271.5 745.815 2275.11 745.815 Q2278.74 745.815 2280.55 742.274 Q2282.38 738.709 2282.38 731.603 Q2282.38 724.473 2280.55 720.931 Q2278.74 717.367 2275.11 717.367 M2275.11 713.663 Q2280.92 713.663 2283.97 718.269 Q2287.05 722.853 2287.05 731.603 Q2287.05 740.329 2283.97 744.936 Q2280.92 749.519 2275.11 749.519 Q2269.3 749.519 2266.22 744.936 Q2263.16 740.329 2263.16 731.603 Q2263.16 722.853 2266.22 718.269 Q2269.3 713.663 2275.11 713.663 Z" fill="#000000" fill-rule="nonzero" fill-opacity="1" /><path clip-path="url(#clip810)" d="M2305.27 717.367 Q2301.66 717.367 2299.83 720.931 Q2298.02 724.473 2298.02 731.603 Q2298.02 738.709 2299.83 742.274 Q2301.66 745.815 2305.27 745.815 Q2308.9 745.815 2310.71 742.274 Q2312.54 738.709 2312.54 731.603 Q2312.54 724.473 2310.71 720.931 Q2308.9 717.367 2305.27 717.367 M2305.27 713.663 Q2311.08 713.663 2314.14 718.269 Q2317.21 722.853 2317.21 731.603 Q2317.21 740.329 2314.14 744.936 Q2311.08 749.519 2305.27 749.519 Q2299.46 749.519 2296.38 744.936 Q2293.33 740.329 2293.33 731.603 Q2293.33 722.853 2296.38 718.269 Q2299.46 713.663 2305.27 713.663 Z" fill="#000000" fill-rule="nonzero" fill-opacity="1" /><path clip-path="url(#clip810)" d="M2335.43 717.367 Q2331.82 717.367 2329.99 720.931 Q2328.19 724.473 2328.19 731.603 Q2328.19 738.709 2329.99 742.274 Q2331.82 745.815 2335.43 745.815 Q2339.07 745.815 2340.87 742.274 Q2342.7 738.709 2342.7 731.603 Q2342.7 724.473 2340.87 720.931 Q2339.07 717.367 2335.43 717.367 M2335.43 713.663 Q2341.24 713.663 2344.3 718.269 Q2347.38 722.853 2347.38 731.603 Q2347.38 740.329 2344.3 744.936 Q2341.24 749.519 2335.43 749.519 Q2329.62 749.519 2326.54 744.936 Q2323.49 740.329 2323.49 731.603 Q2323.49 722.853 2326.54 718.269 Q2329.62 713.663 2335.43 713.663 Z" fill="#000000" fill-rule="nonzero" fill-opacity="1" /><polyline clip-path="url(#clip810)" style="stroke:#000000; stroke-linecap:round; stroke-linejoin:round; stroke-width:4; stroke-opacity:1; fill:none" points="178.867,686.448 178.867,47.2441 "/>
<polyline clip-path="url(#clip810)" style="stroke:#000000; stroke-linecap:round; stroke-linejoin:round; stroke-width:4; stroke-opacity:1; fill:none" points="178.867,686.448 197.764,686.448 "/>
<polyline clip-path="url(#clip810)" style="stroke:#000000; stroke-linecap:round; stroke-linejoin:round; stroke-width:4; stroke-opacity:1; fill:none" points="178.867,526.647 197.764,526.647 "/>
<polyline clip-path="url(#clip810)" style="stroke:#000000; stroke-linecap:round; stroke-linejoin:round; stroke-width:4; stroke-opacity:1; fill:none" points="178.867,366.846 197.764,366.846 "/>
<polyline clip-path="url(#clip810)" style="stroke:#000000; stroke-linecap:round; stroke-linejoin:round; stroke-width:4; stroke-opacity:1; fill:none" points="178.867,207.045 197.764,207.045 "/>
<polyline clip-path="url(#clip810)" style="stroke:#000000; stroke-linecap:round; stroke-linejoin:round; stroke-width:4; stroke-opacity:1; fill:none" points="178.867,47.2441 197.764,47.2441 "/>
<path clip-path="url(#clip810)" d="M50.9921 686.899 L80.6679 686.899 L80.6679 690.834 L50.9921 690.834 L50.9921 686.899 Z" fill="#000000" fill-rule="nonzero" fill-opacity="1" /><path clip-path="url(#clip810)" d="M91.5706 699.793 L99.2095 699.793 L99.2095 673.427 L90.8993 675.094 L90.8993 670.835 L99.1632 669.168 L103.839 669.168 L103.839 699.793 L111.478 699.793 L111.478 703.728 L91.5706 703.728 L91.5706 699.793 Z" fill="#000000" fill-rule="nonzero" fill-opacity="1" /><path clip-path="url(#clip810)" d="M130.922 672.247 Q127.311 672.247 125.482 675.811 Q123.677 679.353 123.677 686.483 Q123.677 693.589 125.482 697.154 Q127.311 700.695 130.922 700.695 Q134.556 700.695 136.362 697.154 Q138.191 693.589 138.191 686.483 Q138.191 679.353 136.362 675.811 Q134.556 672.247 130.922 672.247 M130.922 668.543 Q136.732 668.543 139.788 673.149 Q142.867 677.733 142.867 686.483 Q142.867 695.209 139.788 699.816 Q136.732 704.399 130.922 704.399 Q125.112 704.399 122.033 699.816 Q118.978 695.209 118.978 686.483 Q118.978 677.733 122.033 673.149 Q125.112 668.543 130.922 668.543 Z" fill="#000000" fill-rule="nonzero" fill-opacity="1" /><path clip-path="url(#clip810)" d="M82.1494 527.098 L111.825 527.098 L111.825 531.033 L82.1494 531.033 L82.1494 527.098 Z" fill="#000000" fill-rule="nonzero" fill-opacity="1" /><path clip-path="url(#clip810)" d="M121.964 509.367 L140.32 509.367 L140.32 513.302 L126.246 513.302 L126.246 521.774 Q127.265 521.427 128.283 521.265 Q129.302 521.08 130.32 521.08 Q136.107 521.08 139.487 524.251 Q142.867 527.422 142.867 532.839 Q142.867 538.418 139.394 541.52 Q135.922 544.598 129.603 544.598 Q127.427 544.598 125.158 544.228 Q122.913 543.857 120.506 543.117 L120.506 538.418 Q122.589 539.552 124.811 540.108 Q127.033 540.663 129.51 540.663 Q133.515 540.663 135.853 538.557 Q138.191 536.45 138.191 532.839 Q138.191 529.228 135.853 527.121 Q133.515 525.015 129.51 525.015 Q127.635 525.015 125.76 525.432 Q123.908 525.848 121.964 526.728 L121.964 509.367 Z" fill="#000000" fill-rule="nonzero" fill-opacity="1" /><path clip-path="url(#clip810)" d="M130.922 352.645 Q127.311 352.645 125.482 356.209 Q123.677 359.751 123.677 366.881 Q123.677 373.987 125.482 377.552 Q127.311 381.094 130.922 381.094 Q134.556 381.094 136.362 377.552 Q138.191 373.987 138.191 366.881 Q138.191 359.751 136.362 356.209 Q134.556 352.645 130.922 352.645 M130.922 348.941 Q136.732 348.941 139.788 353.547 Q142.867 358.131 142.867 366.881 Q142.867 375.608 139.788 380.214 Q136.732 384.797 130.922 384.797 Q125.112 384.797 122.033 380.214 Q118.978 375.608 118.978 366.881 Q118.978 358.131 122.033 353.547 Q125.112 348.941 130.922 348.941 Z" fill="#000000" fill-rule="nonzero" fill-opacity="1" /><path clip-path="url(#clip810)" d="M121.964 189.765 L140.32 189.765 L140.32 193.7 L126.246 193.7 L126.246 202.172 Q127.265 201.825 128.283 201.663 Q129.302 201.478 130.32 201.478 Q136.107 201.478 139.487 204.649 Q142.867 207.82 142.867 213.237 Q142.867 218.816 139.394 221.918 Q135.922 224.996 129.603 224.996 Q127.427 224.996 125.158 224.626 Q122.913 224.256 120.506 223.515 L120.506 218.816 Q122.589 219.95 124.811 220.506 Q127.033 221.061 129.51 221.061 Q133.515 221.061 135.853 218.955 Q138.191 216.848 138.191 213.237 Q138.191 209.626 135.853 207.52 Q133.515 205.413 129.51 205.413 Q127.635 205.413 125.76 205.83 Q123.908 206.246 121.964 207.126 L121.964 189.765 Z" fill="#000000" fill-rule="nonzero" fill-opacity="1" /><path clip-path="url(#clip810)" d="M91.5706 60.5889 L99.2095 60.5889 L99.2095 34.2233 L90.8993 35.89 L90.8993 31.6308 L99.1632 29.9641 L103.839 29.9641 L103.839 60.5889 L111.478 60.5889 L111.478 64.5241 L91.5706 64.5241 L91.5706 60.5889 Z" fill="#000000" fill-rule="nonzero" fill-opacity="1" /><path clip-path="url(#clip810)" d="M130.922 33.0428 Q127.311 33.0428 125.482 36.6076 Q123.677 40.1492 123.677 47.2788 Q123.677 54.3853 125.482 57.9501 Q127.311 61.4917 130.922 61.4917 Q134.556 61.4917 136.362 57.9501 Q138.191 54.3853 138.191 47.2788 Q138.191 40.1492 136.362 36.6076 Q134.556 33.0428 130.922 33.0428 M130.922 29.3391 Q136.732 29.3391 139.788 33.9456 Q142.867 38.5289 142.867 47.2788 Q142.867 56.0056 139.788 60.6121 Q136.732 65.1954 130.922 65.1954 Q125.112 65.1954 122.033 60.6121 Q118.978 56.0056 118.978 47.2788 Q118.978 38.5289 122.033 33.9456 Q125.112 29.3391 130.922 29.3391 Z" fill="#000000" fill-rule="nonzero" fill-opacity="1" /><polyline clip-path="url(#clip812)" style="stroke:#009af9; stroke-linecap:round; stroke-linejoin:round; stroke-width:4; stroke-opacity:1; fill:none" points="240.392,334.886 242.445,335.175 244.498,335.177 246.55,337.16 248.603,337.259 250.656,337.817 252.709,337.846 254.762,364.313 256.815,364.3 258.868,363.464 260.921,387.619 262.974,387.675 265.027,385.474 267.079,383.491 269.132,383.911 271.185,384.157 273.238,402.674 275.291,399.634 277.344,400.612 279.397,397.919 281.45,396.575 283.503,395.644 285.555,395.927 287.608,395.776 289.661,396.718 291.714,397.629 293.767,397.025 295.82,396.078 297.873,395.958 299.926,396.18 301.979,396.185 304.031,422.687 306.084,416.262 308.137,416.254 310.19,425.63 312.243,425.148 314.296,455.805 316.349,460.433 318.402,270.931 320.455,291.374 322.507,292.36 324.56,296.133 326.613,297.226 328.666,302.891 330.719,302.896 332.772,310.329 334.825,310.744 336.878,317.476 338.931,315.463 340.984,320.836 343.036,359.432 345.089,355.914 347.142,350.388 349.195,359.265 351.248,322.085 353.301,331.492 355.354,330.859 357.407,331.804 359.46,328.545 361.512,302.556 363.565,373.846 365.618,374.429 367.671,368.962 369.724,399.916 371.777,407.105 373.83,406.222 375.883,432.513 377.936,432.255 379.988,368.671 382.041,381.742 384.094,381.325 386.147,381.335 388.2,360.772 390.253,360.635 392.306,361.68 394.359,375.966 396.412,373.207 398.464,385.424 400.517,387.275 402.57,377.578 404.623,376.056 406.676,373.506 408.729,373.908 410.782,373.744 412.835,378.243 414.888,375.966 416.94,376.067 418.993,375.242 421.046,385.745 423.099,385.914 425.152,389.644 427.205,392.473 429.258,392.52 431.311,367.69 433.364,368.914 435.417,371.201 437.469,375.849 439.522,376.586 441.575,377.134 443.628,369.157 445.681,370.185 447.734,369.652 449.787,369.7 451.84,405.419 453.893,393.755 455.945,393.117 457.998,393.156 460.051,364.572 462.104,351.317 464.157,351.552 466.21,348.476 468.263,347.628 470.316,308.472 472.369,321.899 474.421,321.106 476.474,366.365 478.527,381.52 480.58,381.669 482.633,331.924 484.686,333.772 486.739,335.397 488.792,331.448 490.845,380.325 492.897,378.178 494.95,394.495 497.003,388.88 499.056,327.389 501.109,332.582 503.162,327.765 505.215,341.864 507.268,376.433 509.321,376.031 511.374,375.987 513.426,398.105 515.479,402.584 517.532,397.36 519.585,401.746 521.638,386.359 523.691,384.583 525.744,375.201 527.797,373.426 529.85,369.481 531.902,381.615 533.955,368.849 536.008,364.906 538.061,363.392 540.114,362.372 542.167,332.497 544.22,338.723 546.273,353.605 548.326,369.868 550.378,378.532 552.431,378.522 554.484,380.828 556.537,380.884 558.59,380.877 560.643,382.081 562.696,358.113 564.749,356.852 566.802,356.862 568.854,362.863 570.907,365.188 572.96,364.722 575.013,365.649 577.066,368.328 579.119,350.337 581.172,346.69 583.225,335.105 585.278,335.869 587.331,332.437 589.383,338.868 591.436,370.442 593.489,368.844 595.542,368.156 597.595,390.596 599.648,401.085 601.701,400.743 603.754,393.796 605.807,391.319 607.859,387.806 609.912,355.898 611.965,355.924 614.018,358.43 616.071,343.74 618.124,294.852 620.177,289.215 622.23,363.78 624.283,357.854 626.335,356.648 628.388,328.545 630.441,332.147 632.494,345.888 634.547,335.532 636.6,342.556 638.653,357.639 640.706,357.707 642.759,353.991 644.811,342.962 646.864,343.414 648.917,361.179 650.97,348.122 653.023,330.431 655.076,327.845 657.129,328.063 659.182,328.104 661.235,328.595 663.288,328.371 665.34,333.867 667.393,323.677 669.446,365.728 671.499,364.224 673.552,369.308 675.605,343.891 677.658,339.966 679.711,327.982 681.764,324.878 683.816,325.37 685.869,325.204 687.922,332.136 689.975,324.326 692.028,326.665 694.081,327.378 696.134,358.6 698.187,357.337 700.24,358.319 702.292,359.541 704.345,359.549 706.398,342.334 708.451,342.321 710.504,342.731 712.557,351.176 714.61,357.482 716.663,393.246 718.716,393.309 720.768,391.107 722.821,391.099 724.874,401.753 726.927,401.193 728.98,401.611 731.033,400.277 733.086,399.275 735.139,399.333 737.192,383.666 739.245,383.666 741.297,375.814 743.35,368.888 745.403,370.234 747.456,368.034 749.509,364.468 751.562,369.64 753.615,362.021 755.668,333 757.721,332.734 759.773,326.944 761.826,410.795 763.879,412.684 765.932,416.185 767.985,414.88 770.038,413.312 772.091,388.428 774.144,388.056 776.197,388.64 778.249,356.274 780.302,353.65 782.355,354.307 784.408,356.302 786.461,342.098 788.514,343.208 790.567,343.971 792.62,342.509 794.673,330.774 796.725,323.478 798.778,324.551 800.831,308.035 802.884,307.079 804.937,301.98 806.99,301.998 809.043,302.305 811.096,326.873 813.149,416.514 815.202,407.037 817.254,412.465 819.307,413.747 821.36,384.777 823.413,386.787 825.466,410.479 827.519,407.114 829.572,407.122 831.625,404.942 833.678,357.087 835.73,361.474 837.783,318.309 839.836,400.672 841.889,386.603 843.942,361.902 845.995,328.549 848.048,326.383 850.101,325.318 852.154,321.581 854.206,331.941 856.259,378.882 858.312,346.452 860.365,369.147 862.418,536.466 864.471,529.948 866.524,528.58 868.577,513.084 870.63,474.019 872.682,420.722 874.735,417.12 876.788,343.871 878.841,348.81 880.894,349.611 882.947,376.253 885,369.333 887.053,361.929 889.106,352.851 891.159,354.117 893.211,357.95 895.264,347.956 897.317,322.782 899.37,394.122 901.423,352.646 903.476,346.679 905.529,346.375 907.582,347.005 909.635,346.895 911.687,345.8 913.74,331.906 915.793,332.133 917.846,332.068 919.899,332.006 921.952,331.825 924.005,332.375 926.058,315.602 928.111,316.383 930.163,316.6 932.216,289.338 934.269,289.302 936.322,327.863 938.375,322.821 940.428,377.35 942.481,407.446 944.534,425.231 946.587,408.333 948.639,411.174 950.692,455.349 952.745,453.554 954.798,438.238 956.851,423.56 958.904,383.828 960.957,383.89 963.01,360.81 965.063,360.828 967.116,425.863 969.168,424.33 971.221,424.34 973.274,424.353 975.327,428.297 977.38,431.874 979.433,433.063 981.486,433.56 983.539,432.555 985.592,432.491 987.644,424.43 989.697,422.023 991.75,321.62 993.803,322.519 995.856,320.502 997.909,331.622 999.962,331.817 1002.01,329.126 1004.07,324.95 1006.12,347.169 1008.17,371.701 1010.23,365.781 1012.28,376.839 1014.33,390.119 1016.38,396.385 1018.44,388.456 1020.49,355.462 1022.54,356.27 1024.6,310.746 1026.65,308.919 1028.7,280.535 1030.76,255.29 1032.81,216.459 1034.86,233.464 1036.91,223.937 1038.97,413.195 1041.02,338.118 1043.07,339.306 1045.13,252.984 1047.18,353.959 1049.23,353.511 1051.28,356.513 1053.34,336.304 1055.39,359.878 1057.44,370.144 1059.5,355.625 1061.55,365.014 1063.6,344.927 1065.65,389.95 1067.71,342.032 1069.76,347.783 1071.81,349.2 1073.87,364.272 1075.92,449.523 1077.97,314.758 1080.02,309.189 1082.08,340.013 1084.13,351.139 1086.18,353.332 1088.24,347.045 1090.29,350.613 1092.34,353.584 1094.39,350.182 1096.45,344.595 1098.5,340.101 1100.55,337.535 1102.61,330.481 1104.66,335.458 1106.71,334.946 1108.77,343.591 1110.82,349.352 1112.87,336.449 1114.92,330.235 1116.98,333.93 1119.03,333.881 1121.08,402.12 1123.14,400.085 1125.19,400.866 1127.24,400.557 1129.29,413.035 1131.35,406.411 1133.4,403.748 1135.45,395.117 1137.51,392.536 1139.56,432.67 1141.61,439.194 1143.66,335.105 1145.72,341.267 1147.77,363.931 1149.82,373.726 1151.88,372.574 1153.93,374.289 1155.98,374.278 1158.03,355.72 1160.09,353.843 1162.14,353.841 1164.19,354.319 1166.25,355.752 1168.3,355.832 1170.35,352.127 1172.4,389.318 1174.46,389.628 1176.51,378.858 1178.56,361.764 1180.62,364.734 1182.67,356.199 1184.72,346.109 1186.77,348.998 1188.83,357.295 1190.88,350.239 1192.93,319.204 1194.99,325.569 1197.04,327.461 1199.09,328.562 1201.15,321.379 1203.2,325.63 1205.25,322.922 1207.3,318.641 1209.36,316.512 1211.41,317.394 1213.46,311.296 1215.52,305.657 1217.57,305.537 1219.62,304.416 1221.67,299.477 1223.73,324.47 1225.78,324.224 1227.83,325.739 1229.89,332.874 1231.94,333.508 1233.99,379.09 1236.04,387.446 1238.1,370.315 1240.15,392.625 1242.2,381.255 1244.26,381.246 1246.31,387.442 1248.36,384.076 1250.41,384.075 1252.47,379.55 1254.52,379.257 1256.57,381.033 1258.63,382.71 1260.68,382.019 1262.73,382.164 1264.78,382.021 1266.84,382.153 1268.89,394.593 1270.94,382.193 1273,319.61 1275.05,330.76 1277.1,318.814 1279.16,332.435 1281.21,336.939 1283.26,345.778 1285.31,345.468 1287.37,356.547 1289.42,356.529 1291.47,357.762 1293.53,357.334 1295.58,366.721 1297.63,381.549 1299.68,382.357 1301.74,387.168 1303.79,386.513 1305.84,376.105 1307.9,366.886 1309.95,365.69 1312,379.463 1314.05,355.47 1316.11,356.903 1318.16,358.251 1320.21,358.612 1322.27,359.38 1324.32,357.098 1326.37,363.36 1328.42,359.326 1330.48,359.532 1332.53,357.25 1334.58,356.56 1336.64,355.43 1338.69,354.123 1340.74,356.209 1342.79,352.101 1344.85,354.524 1346.9,354.788 1348.95,344.38 1351.01,340.601 1353.06,342.907 1355.11,344.858 1357.16,343.818 1359.22,360.969 1361.27,384.088 1363.32,387.254 1365.38,387.32 1367.43,385.847 1369.48,385.201 1371.54,382.342 1373.59,381.432 1375.64,393.453 1377.69,388.755 1379.75,396.431 1381.8,394.077 1383.85,404.729 1385.91,408.627 1387.96,393.534 1390.01,393.507 1392.06,393.498 1394.12,386.034 1396.17,350.963 1398.22,323.91 1400.28,408.07 1402.33,407.702 1404.38,406.963 1406.43,409.274 1408.49,411.41 1410.54,396.413 1412.59,399.518 1414.65,423.111 1416.7,391.854 1418.75,401.194 1420.8,418.22 1422.86,404.869 1424.91,406.73 1426.96,406.05 1429.02,407.565 1431.07,416.987 1433.12,417.084 1435.17,416.381 1437.23,423.516 1439.28,419.377 1441.33,426.414 1443.39,425.181 1445.44,409.075 1447.49,409.244 1449.55,425.218 1451.6,424.893 1453.65,424.492 1455.7,423.613 1457.76,398.374 1459.81,396.31 1461.86,396.752 1463.92,397.859 1465.97,357.546 1468.02,357.676 1470.07,357.714 1472.13,324.257 1474.18,329.584 1476.23,331.47 1478.29,330.362 1480.34,332.817 1482.39,338.987 1484.44,338.915 1486.5,339.988 1488.55,343.843 1490.6,368.531 1492.66,371.844 1494.71,376.213 1496.76,369.451 1498.81,366.887 1500.87,366.783 1502.92,366.693 1504.97,368.625 1507.03,350.711 1509.08,361.865 1511.13,362.959 1513.18,351.418 1515.24,346.146 1517.29,339.448 1519.34,339.44 1521.4,339.489 1523.45,337.743 1525.5,342.491 1527.55,342.508 1529.61,369.422 1531.66,369.003 1533.71,374.078 1535.77,377.131 1537.82,386.179 1539.87,408.964 1541.93,400.228 1543.98,397.118 1546.03,354.032 1548.08,356.292 1550.14,356.538 1552.19,356.944 1554.24,371.174 1556.3,391.545 1558.35,390.1 1560.4,389.109 1562.45,389.296 1564.51,389.475 1566.56,384.27 1568.61,384.127 1570.67,383.95 1572.72,383.909 1574.77,345.008 1576.82,345.028 1578.88,345.057 1580.93,354.776 1582.98,353.55 1585.04,367.879 1587.09,365.696 1589.14,365.736 1591.19,365.168 1593.25,365.168 1595.3,393.735 1597.35,395.019 1599.41,394.37 1601.46,371.378 1603.51,371.379 1605.56,338.445 1607.62,337.257 1609.67,356.766 1611.72,342.282 1613.78,354.938 1615.83,356.773 1617.88,369.45 1619.94,369.036 1621.99,362.86 1624.04,389.339 1626.09,389.063 1628.15,378.762 1630.2,378.36 1632.25,374.715 1634.31,414.928 1636.36,430.806 1638.41,438.04 1640.46,440.744 1642.52,413.055 1644.57,380.929 1646.62,381.782 1648.68,380.767 1650.73,381.609 1652.78,384.127 1654.83,384.908 1656.89,381.662 1658.94,355.449 1660.99,347.815 1663.05,348.125 1665.1,348.774 1667.15,349.945 1669.2,350.94 1671.26,347.507 1673.31,348.369 1675.36,348.144 1677.42,370.33 1679.47,368.276 1681.52,368.075 1683.57,368.365 1685.63,370.343 1687.68,369.418 1689.73,364.504 1691.79,373.538 1693.84,375.243 1695.89,368.519 1697.94,409.387 1700,403.786 1702.05,405.389 1704.1,401.729 1706.16,401.378 1708.21,402.014 1710.26,361.849 1712.32,382.932 1714.37,384.482 1716.42,384.142 1718.47,384.395 1720.53,363.433 1722.58,338.61 1724.63,339.891 1726.69,339.735 1728.74,339.381 1730.79,374.052 1732.84,372.04 1734.9,370.556 1736.95,369.742 1739,370.054 1741.06,331.829 1743.11,339.082 1745.16,342.299 1747.21,342.536 1749.27,345.081 1751.32,343.922 1753.37,345.267 1755.43,348.015 1757.48,347.114 1759.53,339.626 1761.58,348.39 1763.64,340.163 1765.69,334.337 1767.74,335.534 1769.8,336.245 1771.85,337.057 1773.9,336.97 1775.95,316.512 1778.01,332.886 1780.06,332.957 1782.11,371.529 1784.17,368.616 1786.22,367.554 1788.27,367.87 1790.33,358.765 1792.38,387.098 1794.43,387.015 1796.48,382.109 1798.54,384.112 1800.59,383.875 1802.64,371.347 1804.7,363.873 1806.75,363.923 1808.8,364.673 1810.85,365.579 1812.91,365.479 1814.96,369.983 1817.01,366.403 1819.07,326.561 1821.12,326.532 1823.17,325.695 1825.22,325.686 1827.28,326.647 1829.33,325.688 1831.38,325.54 1833.44,323.88 1835.49,321.373 1837.54,321.375 1839.59,324.336 1841.65,389.396 1843.7,385.138 1845.75,385.288 1847.81,384.555 1849.86,384.655 1851.91,385.793 1853.96,342.328 1856.02,348.73 1858.07,343.404 1860.12,343.042 1862.18,355.479 1864.23,356.438 1866.28,351.884 1868.34,344.977 1870.39,345.156 1872.44,345.393 1874.49,345.501 1876.55,345.601 1878.6,348.524 1880.65,350.075 1882.71,348.358 1884.76,345.939 1886.81,341.736 1888.86,341.782 1890.92,341.903 1892.97,342.368 1895.02,346.62 1897.08,354.451 1899.13,353.838 1901.18,384.613 1903.23,383.743 1905.29,379.596 1907.34,380.623 1909.39,380.676 1911.45,384.666 1913.5,344.013 1915.55,344.655 1917.6,346.207 1919.66,344.23 1921.71,343.961 1923.76,343.758 1925.82,344.314 1927.87,350.529 1929.92,379.957 1931.97,371.687 1934.03,363.116 1936.08,362.986 1938.13,355.566 1940.19,355.631 1942.24,355.561 1944.29,353.834 1946.34,357.093 1948.4,382.004 1950.45,381.307 1952.5,367.156 1954.56,358.55 1956.61,359.221 1958.66,342.354 1960.72,342.467 1962.77,342.573 1964.82,341.21 1966.87,337.772 1968.93,348.37 1970.98,346.615 1973.03,346.104 1975.09,346.486 1977.14,345.42 1979.19,344.257 1981.24,343.707 1983.3,344.185 1985.35,343.517 1987.4,346.551 1989.46,347.123 1991.51,351.247 1993.56,353.977 1995.61,354.502 1997.67,378.466 1999.72,415.093 2001.77,421.464 2003.83,421.389 2005.88,419.181 2007.93,412.411 2009.98,415.303 2012.04,415.182 2014.09,398.844 2016.14,411.95 2018.2,394.638 2020.25,394.132 2022.3,388.822 2024.35,388.918 2026.41,389.392 2028.46,363.657 2030.51,360.806 2032.57,365.877 2034.62,365.943 2036.67,345.563 2038.73,346.8 2040.78,354.969 2042.83,355.246 2044.88,356.668 2046.94,358.668 2048.99,359.281 2051.04,359.55 2053.1,359.902 2055.15,360.395 2057.2,358.93 2059.25,358.403 2061.31,351.898 2063.36,335.401 2065.41,319.111 2067.47,347.107 2069.52,354.08 2071.57,345.13 2073.62,347.146 2075.68,349.82 2077.73,354.516 2079.78,358.562 2081.84,331.002 2083.89,321.338 2085.94,365.207 2087.99,341.129 2090.05,339.852 2092.1,356.048 2094.15,355.198 2096.21,353.301 2098.26,352.455 2100.31,349.372 2102.36,349.696 2104.42,354.046 2106.47,348.562 2108.52,364.259 2110.58,360.195 2112.63,362.683 2114.68,363.335 2116.73,361.1 2118.79,361.095 2120.84,360.505 2122.89,368.427 2124.95,373.311 2127,373.31 2129.05,372.859 2131.11,372.464 2133.16,372.575 2135.21,375.354 2137.26,379.405 2139.32,378.777 2141.37,381.627 2143.42,382.072 2145.48,355.291 2147.53,357.399 2149.58,358.327 2151.63,357.889 2153.69,356.084 2155.74,356.161 2157.79,400.499 2159.85,401.117 2161.9,401.013 2163.95,401.539 2166,400.726 2168.06,397.376 2170.11,385.131 2172.16,385.844 2174.22,385.86 2176.27,385.95 2178.32,385.546 2180.37,361.648 2182.43,362.818 2184.48,360.232 2186.53,360.869 2188.59,355.081 2190.64,354.629 2192.69,355.264 2194.74,355.487 2196.8,355.993 2198.85,355.979 2200.9,355.437 2202.96,355.413 2205.01,367.678 2207.06,352.417 2209.12,345.416 2211.17,338.793 2213.22,338.118 2215.27,338.767 2217.33,336.713 2219.38,339.286 2221.43,359.062 2223.49,374.2 2225.54,373.965 2227.59,366.623 2229.64,364.208 2231.7,357.808 2233.75,368.421 2235.8,376.224 2237.86,382.728 2239.91,340.883 2241.96,340.174 2244.01,347.17 2246.07,348.033 2248.12,347.636 2250.17,347.169 2252.23,350.798 2254.28,357.527 2256.33,356.901 2258.38,357.037 2260.44,372.545 2262.49,378.784 2264.54,379.718 2266.6,379.041 2268.65,380.041 2270.7,360.745 2272.75,363.072 2274.81,363.205 2276.86,363.518 2278.91,357.722 2280.97,365.238 2283.02,377.938 2285.07,378.289 2287.12,376.268 2289.18,376.899 2291.23,376.119 "/>
<path clip-path="url(#clip810)" d="M1983.6 172.231 L2280.29 172.231 L2280.29 68.5509 L1983.6 68.5509  Z" fill="#ffffff" fill-rule="evenodd" fill-opacity="1"/>
<polyline clip-path="url(#clip810)" style="stroke:#000000; stroke-linecap:round; stroke-linejoin:round; stroke-width:4; stroke-opacity:1; fill:none" points="1983.6,172.231 2280.29,172.231 2280.29,68.5509 1983.6,68.5509 1983.6,172.231 "/>
<polyline clip-path="url(#clip810)" style="stroke:#009af9; stroke-linecap:round; stroke-linejoin:round; stroke-width:4; stroke-opacity:1; fill:none" points="2007.75,120.391 2152.68,120.391 "/>
<path clip-path="url(#clip810)" d="M2176.83 103.111 L2181.51 103.111 L2181.51 133.736 L2198.34 133.736 L2198.34 137.671 L2176.83 137.671 L2176.83 103.111 Z" fill="#000000" fill-rule="nonzero" fill-opacity="1" /><path clip-path="url(#clip810)" d="M2223.96 104.245 L2223.96 108.805 Q2221.3 107.532 2218.94 106.907 Q2216.58 106.282 2214.38 106.282 Q2210.56 106.282 2208.48 107.764 Q2206.42 109.245 2206.42 111.977 Q2206.42 114.268 2207.78 115.449 Q2209.17 116.606 2213.01 117.324 L2215.84 117.902 Q2221.07 118.898 2223.55 121.421 Q2226.05 123.921 2226.05 128.134 Q2226.05 133.157 2222.67 135.75 Q2219.31 138.342 2212.81 138.342 Q2210.35 138.342 2207.57 137.787 Q2204.82 137.231 2201.86 136.143 L2201.86 131.328 Q2204.7 132.926 2207.44 133.736 Q2210.17 134.546 2212.81 134.546 Q2216.81 134.546 2218.99 132.972 Q2221.16 131.398 2221.16 128.481 Q2221.16 125.935 2219.59 124.5 Q2218.04 123.064 2214.47 122.347 L2211.62 121.791 Q2206.39 120.75 2204.06 118.527 Q2201.72 116.305 2201.72 112.347 Q2201.72 107.764 2204.94 105.125 Q2208.18 102.486 2213.85 102.486 Q2216.28 102.486 2218.8 102.926 Q2221.32 103.366 2223.96 104.245 Z" fill="#000000" fill-rule="nonzero" fill-opacity="1" /><path clip-path="url(#clip810)" d="M2254.06 104.245 L2254.06 108.805 Q2251.39 107.532 2249.03 106.907 Q2246.67 106.282 2244.47 106.282 Q2240.65 106.282 2238.57 107.764 Q2236.51 109.245 2236.51 111.977 Q2236.51 114.268 2237.87 115.449 Q2239.26 116.606 2243.11 117.324 L2245.93 117.902 Q2251.16 118.898 2253.64 121.421 Q2256.14 123.921 2256.14 128.134 Q2256.14 133.157 2252.76 135.75 Q2249.4 138.342 2242.9 138.342 Q2240.44 138.342 2237.67 137.787 Q2234.91 137.231 2231.95 136.143 L2231.95 131.328 Q2234.8 132.926 2237.53 133.736 Q2240.26 134.546 2242.9 134.546 Q2246.9 134.546 2249.08 132.972 Q2251.25 131.398 2251.25 128.481 Q2251.25 125.935 2249.68 124.5 Q2248.13 123.064 2244.56 122.347 L2241.72 121.791 Q2236.49 120.75 2234.15 118.527 Q2231.81 116.305 2231.81 112.347 Q2231.81 107.764 2235.03 105.125 Q2238.27 102.486 2243.94 102.486 Q2246.37 102.486 2248.89 102.926 Q2251.42 103.366 2254.06 104.245 Z" fill="#000000" fill-rule="nonzero" fill-opacity="1" /><path clip-path="url(#clip810)" d="M178.867 1486.45 L2352.76 1486.45 L2352.76 847.244 L178.867 847.244  Z" fill="#ffffff" fill-rule="evenodd" fill-opacity="1"/>
<defs>
  <clipPath id="clip813">
    <rect x="178" y="847" width="2175" height="640"/>
  </clipPath>
</defs>
<polyline clip-path="url(#clip813)" style="stroke:#000000; stroke-linecap:round; stroke-linejoin:round; stroke-width:2; stroke-opacity:0.1; fill:none" points="238.339,1486.45 238.339,847.244 "/>
<polyline clip-path="url(#clip813)" style="stroke:#000000; stroke-linecap:round; stroke-linejoin:round; stroke-width:2; stroke-opacity:0.1; fill:none" points="751.562,1486.45 751.562,847.244 "/>
<polyline clip-path="url(#clip813)" style="stroke:#000000; stroke-linecap:round; stroke-linejoin:round; stroke-width:2; stroke-opacity:0.1; fill:none" points="1264.78,1486.45 1264.78,847.244 "/>
<polyline clip-path="url(#clip813)" style="stroke:#000000; stroke-linecap:round; stroke-linejoin:round; stroke-width:2; stroke-opacity:0.1; fill:none" points="1778.01,1486.45 1778.01,847.244 "/>
<polyline clip-path="url(#clip813)" style="stroke:#000000; stroke-linecap:round; stroke-linejoin:round; stroke-width:2; stroke-opacity:0.1; fill:none" points="2291.23,1486.45 2291.23,847.244 "/>
<polyline clip-path="url(#clip813)" style="stroke:#000000; stroke-linecap:round; stroke-linejoin:round; stroke-width:2; stroke-opacity:0.1; fill:none" points="178.867,1486.45 2352.76,1486.45 "/>
<polyline clip-path="url(#clip813)" style="stroke:#000000; stroke-linecap:round; stroke-linejoin:round; stroke-width:2; stroke-opacity:0.1; fill:none" points="178.867,1326.65 2352.76,1326.65 "/>
<polyline clip-path="url(#clip813)" style="stroke:#000000; stroke-linecap:round; stroke-linejoin:round; stroke-width:2; stroke-opacity:0.1; fill:none" points="178.867,1166.85 2352.76,1166.85 "/>
<polyline clip-path="url(#clip813)" style="stroke:#000000; stroke-linecap:round; stroke-linejoin:round; stroke-width:2; stroke-opacity:0.1; fill:none" points="178.867,1007.05 2352.76,1007.05 "/>
<polyline clip-path="url(#clip813)" style="stroke:#000000; stroke-linecap:round; stroke-linejoin:round; stroke-width:2; stroke-opacity:0.1; fill:none" points="178.867,847.244 2352.76,847.244 "/>
<polyline clip-path="url(#clip810)" style="stroke:#000000; stroke-linecap:round; stroke-linejoin:round; stroke-width:4; stroke-opacity:1; fill:none" points="178.867,1486.45 2352.76,1486.45 "/>
<polyline clip-path="url(#clip810)" style="stroke:#000000; stroke-linecap:round; stroke-linejoin:round; stroke-width:4; stroke-opacity:1; fill:none" points="238.339,1486.45 238.339,1467.55 "/>
<polyline clip-path="url(#clip810)" style="stroke:#000000; stroke-linecap:round; stroke-linejoin:round; stroke-width:4; stroke-opacity:1; fill:none" points="751.562,1486.45 751.562,1467.55 "/>
<polyline clip-path="url(#clip810)" style="stroke:#000000; stroke-linecap:round; stroke-linejoin:round; stroke-width:4; stroke-opacity:1; fill:none" points="1264.78,1486.45 1264.78,1467.55 "/>
<polyline clip-path="url(#clip810)" style="stroke:#000000; stroke-linecap:round; stroke-linejoin:round; stroke-width:4; stroke-opacity:1; fill:none" points="1778.01,1486.45 1778.01,1467.55 "/>
<polyline clip-path="url(#clip810)" style="stroke:#000000; stroke-linecap:round; stroke-linejoin:round; stroke-width:4; stroke-opacity:1; fill:none" points="2291.23,1486.45 2291.23,1467.55 "/>
<path clip-path="url(#clip810)" d="M238.339 1517.37 Q234.728 1517.37 232.899 1520.93 Q231.094 1524.47 231.094 1531.6 Q231.094 1538.71 232.899 1542.27 Q234.728 1545.82 238.339 1545.82 Q241.973 1545.82 243.779 1542.27 Q245.607 1538.71 245.607 1531.6 Q245.607 1524.47 243.779 1520.93 Q241.973 1517.37 238.339 1517.37 M238.339 1513.66 Q244.149 1513.66 247.205 1518.27 Q250.283 1522.85 250.283 1531.6 Q250.283 1540.33 247.205 1544.94 Q244.149 1549.52 238.339 1549.52 Q232.529 1549.52 229.45 1544.94 Q226.395 1540.33 226.395 1531.6 Q226.395 1522.85 229.45 1518.27 Q232.529 1513.66 238.339 1513.66 Z" fill="#000000" fill-rule="nonzero" fill-opacity="1" /><path clip-path="url(#clip810)" d="M715.254 1544.91 L731.574 1544.91 L731.574 1548.85 L709.629 1548.85 L709.629 1544.91 Q712.291 1542.16 716.875 1537.53 Q721.481 1532.88 722.662 1531.53 Q724.907 1529.01 725.787 1527.27 Q726.689 1525.51 726.689 1523.82 Q726.689 1521.07 724.745 1519.33 Q722.824 1517.6 719.722 1517.6 Q717.523 1517.6 715.069 1518.36 Q712.638 1519.13 709.861 1520.68 L709.861 1515.95 Q712.685 1514.82 715.138 1514.24 Q717.592 1513.66 719.629 1513.66 Q725 1513.66 728.194 1516.35 Q731.388 1519.03 731.388 1523.52 Q731.388 1525.65 730.578 1527.57 Q729.791 1529.47 727.685 1532.07 Q727.106 1532.74 724.004 1535.95 Q720.902 1539.15 715.254 1544.91 Z" fill="#000000" fill-rule="nonzero" fill-opacity="1" /><path clip-path="url(#clip810)" d="M741.435 1514.29 L759.791 1514.29 L759.791 1518.22 L745.717 1518.22 L745.717 1526.7 Q746.736 1526.35 747.754 1526.19 Q748.773 1526 749.791 1526 Q755.578 1526 758.958 1529.17 Q762.337 1532.34 762.337 1537.76 Q762.337 1543.34 758.865 1546.44 Q755.393 1549.52 749.073 1549.52 Q746.898 1549.52 744.629 1549.15 Q742.384 1548.78 739.976 1548.04 L739.976 1543.34 Q742.06 1544.47 744.282 1545.03 Q746.504 1545.58 748.981 1545.58 Q752.985 1545.58 755.323 1543.48 Q757.661 1541.37 757.661 1537.76 Q757.661 1534.15 755.323 1532.04 Q752.985 1529.94 748.981 1529.94 Q747.106 1529.94 745.231 1530.35 Q743.379 1530.77 741.435 1531.65 L741.435 1514.29 Z" fill="#000000" fill-rule="nonzero" fill-opacity="1" /><path clip-path="url(#clip810)" d="M781.55 1517.37 Q777.939 1517.37 776.11 1520.93 Q774.305 1524.47 774.305 1531.6 Q774.305 1538.71 776.11 1542.27 Q777.939 1545.82 781.55 1545.82 Q785.184 1545.82 786.99 1542.27 Q788.819 1538.71 788.819 1531.6 Q788.819 1524.47 786.99 1520.93 Q785.184 1517.37 781.55 1517.37 M781.55 1513.66 Q787.36 1513.66 790.416 1518.27 Q793.495 1522.85 793.495 1531.6 Q793.495 1540.33 790.416 1544.94 Q787.36 1549.52 781.55 1549.52 Q775.74 1549.52 772.661 1544.94 Q769.606 1540.33 769.606 1531.6 Q769.606 1522.85 772.661 1518.27 Q775.74 1513.66 781.55 1513.66 Z" fill="#000000" fill-rule="nonzero" fill-opacity="1" /><path clip-path="url(#clip810)" d="M1224.4 1514.29 L1242.76 1514.29 L1242.76 1518.22 L1228.69 1518.22 L1228.69 1526.7 Q1229.7 1526.35 1230.72 1526.19 Q1231.74 1526 1232.76 1526 Q1238.55 1526 1241.93 1529.17 Q1245.31 1532.34 1245.31 1537.76 Q1245.31 1543.34 1241.83 1546.44 Q1238.36 1549.52 1232.04 1549.52 Q1229.87 1549.52 1227.6 1549.15 Q1225.35 1548.78 1222.94 1548.04 L1222.94 1543.34 Q1225.03 1544.47 1227.25 1545.03 Q1229.47 1545.58 1231.95 1545.58 Q1235.95 1545.58 1238.29 1543.48 Q1240.63 1541.37 1240.63 1537.76 Q1240.63 1534.15 1238.29 1532.04 Q1235.95 1529.94 1231.95 1529.94 Q1230.07 1529.94 1228.2 1530.35 Q1226.35 1530.77 1224.4 1531.65 L1224.4 1514.29 Z" fill="#000000" fill-rule="nonzero" fill-opacity="1" /><path clip-path="url(#clip810)" d="M1264.52 1517.37 Q1260.91 1517.37 1259.08 1520.93 Q1257.27 1524.47 1257.27 1531.6 Q1257.27 1538.71 1259.08 1542.27 Q1260.91 1545.82 1264.52 1545.82 Q1268.15 1545.82 1269.96 1542.27 Q1271.79 1538.71 1271.79 1531.6 Q1271.79 1524.47 1269.96 1520.93 Q1268.15 1517.37 1264.52 1517.37 M1264.52 1513.66 Q1270.33 1513.66 1273.38 1518.27 Q1276.46 1522.85 1276.46 1531.6 Q1276.46 1540.33 1273.38 1544.94 Q1270.33 1549.52 1264.52 1549.52 Q1258.71 1549.52 1255.63 1544.94 Q1252.57 1540.33 1252.57 1531.6 Q1252.57 1522.85 1255.63 1518.27 Q1258.71 1513.66 1264.52 1513.66 Z" fill="#000000" fill-rule="nonzero" fill-opacity="1" /><path clip-path="url(#clip810)" d="M1294.68 1517.37 Q1291.07 1517.37 1289.24 1520.93 Q1287.44 1524.47 1287.44 1531.6 Q1287.44 1538.71 1289.24 1542.27 Q1291.07 1545.82 1294.68 1545.82 Q1298.31 1545.82 1300.12 1542.27 Q1301.95 1538.71 1301.95 1531.6 Q1301.95 1524.47 1300.12 1520.93 Q1298.31 1517.37 1294.68 1517.37 M1294.68 1513.66 Q1300.49 1513.66 1303.55 1518.27 Q1306.62 1522.85 1306.62 1531.6 Q1306.62 1540.33 1303.55 1544.94 Q1300.49 1549.52 1294.68 1549.52 Q1288.87 1549.52 1285.79 1544.94 Q1282.74 1540.33 1282.74 1531.6 Q1282.74 1522.85 1285.79 1518.27 Q1288.87 1513.66 1294.68 1513.66 Z" fill="#000000" fill-rule="nonzero" fill-opacity="1" /><path clip-path="url(#clip810)" d="M1736.28 1514.29 L1758.51 1514.29 L1758.51 1516.28 L1745.96 1548.85 L1741.08 1548.85 L1752.88 1518.22 L1736.28 1518.22 L1736.28 1514.29 Z" fill="#000000" fill-rule="nonzero" fill-opacity="1" /><path clip-path="url(#clip810)" d="M1767.67 1514.29 L1786.03 1514.29 L1786.03 1518.22 L1771.95 1518.22 L1771.95 1526.7 Q1772.97 1526.35 1773.99 1526.19 Q1775.01 1526 1776.03 1526 Q1781.82 1526 1785.2 1529.17 Q1788.57 1532.34 1788.57 1537.76 Q1788.57 1543.34 1785.1 1546.44 Q1781.63 1549.52 1775.31 1549.52 Q1773.14 1549.52 1770.87 1549.15 Q1768.62 1548.78 1766.21 1548.04 L1766.21 1543.34 Q1768.3 1544.47 1770.52 1545.03 Q1772.74 1545.58 1775.22 1545.58 Q1779.22 1545.58 1781.56 1543.48 Q1783.9 1541.37 1783.9 1537.76 Q1783.9 1534.15 1781.56 1532.04 Q1779.22 1529.94 1775.22 1529.94 Q1773.34 1529.94 1771.47 1530.35 Q1769.62 1530.77 1767.67 1531.65 L1767.67 1514.29 Z" fill="#000000" fill-rule="nonzero" fill-opacity="1" /><path clip-path="url(#clip810)" d="M1807.79 1517.37 Q1804.18 1517.37 1802.35 1520.93 Q1800.54 1524.47 1800.54 1531.6 Q1800.54 1538.71 1802.35 1542.27 Q1804.18 1545.82 1807.79 1545.82 Q1811.42 1545.82 1813.23 1542.27 Q1815.06 1538.71 1815.06 1531.6 Q1815.06 1524.47 1813.23 1520.93 Q1811.42 1517.37 1807.79 1517.37 M1807.79 1513.66 Q1813.6 1513.66 1816.65 1518.27 Q1819.73 1522.85 1819.73 1531.6 Q1819.73 1540.33 1816.65 1544.94 Q1813.6 1549.52 1807.79 1549.52 Q1801.98 1549.52 1798.9 1544.94 Q1795.84 1540.33 1795.84 1531.6 Q1795.84 1522.85 1798.9 1518.27 Q1801.98 1513.66 1807.79 1513.66 Z" fill="#000000" fill-rule="nonzero" fill-opacity="1" /><path clip-path="url(#clip810)" d="M2235.76 1544.91 L2243.4 1544.91 L2243.4 1518.55 L2235.09 1520.21 L2235.09 1515.95 L2243.35 1514.29 L2248.02 1514.29 L2248.02 1544.91 L2255.66 1544.91 L2255.66 1548.85 L2235.76 1548.85 L2235.76 1544.91 Z" fill="#000000" fill-rule="nonzero" fill-opacity="1" /><path clip-path="url(#clip810)" d="M2275.11 1517.37 Q2271.5 1517.37 2269.67 1520.93 Q2267.86 1524.47 2267.86 1531.6 Q2267.86 1538.71 2269.67 1542.27 Q2271.5 1545.82 2275.11 1545.82 Q2278.74 1545.82 2280.55 1542.27 Q2282.38 1538.71 2282.38 1531.6 Q2282.38 1524.47 2280.55 1520.93 Q2278.74 1517.37 2275.11 1517.37 M2275.11 1513.66 Q2280.92 1513.66 2283.97 1518.27 Q2287.05 1522.85 2287.05 1531.6 Q2287.05 1540.33 2283.97 1544.94 Q2280.92 1549.52 2275.11 1549.52 Q2269.3 1549.52 2266.22 1544.94 Q2263.16 1540.33 2263.16 1531.6 Q2263.16 1522.85 2266.22 1518.27 Q2269.3 1513.66 2275.11 1513.66 Z" fill="#000000" fill-rule="nonzero" fill-opacity="1" /><path clip-path="url(#clip810)" d="M2305.27 1517.37 Q2301.66 1517.37 2299.83 1520.93 Q2298.02 1524.47 2298.02 1531.6 Q2298.02 1538.71 2299.83 1542.27 Q2301.66 1545.82 2305.27 1545.82 Q2308.9 1545.82 2310.71 1542.27 Q2312.54 1538.71 2312.54 1531.6 Q2312.54 1524.47 2310.71 1520.93 Q2308.9 1517.37 2305.27 1517.37 M2305.27 1513.66 Q2311.08 1513.66 2314.14 1518.27 Q2317.21 1522.85 2317.21 1531.6 Q2317.21 1540.33 2314.14 1544.94 Q2311.08 1549.52 2305.27 1549.52 Q2299.46 1549.52 2296.38 1544.94 Q2293.33 1540.33 2293.33 1531.6 Q2293.33 1522.85 2296.38 1518.27 Q2299.46 1513.66 2305.27 1513.66 Z" fill="#000000" fill-rule="nonzero" fill-opacity="1" /><path clip-path="url(#clip810)" d="M2335.43 1517.37 Q2331.82 1517.37 2329.99 1520.93 Q2328.19 1524.47 2328.19 1531.6 Q2328.19 1538.71 2329.99 1542.27 Q2331.82 1545.82 2335.43 1545.82 Q2339.07 1545.82 2340.87 1542.27 Q2342.7 1538.71 2342.7 1531.6 Q2342.7 1524.47 2340.87 1520.93 Q2339.07 1517.37 2335.43 1517.37 M2335.43 1513.66 Q2341.24 1513.66 2344.3 1518.27 Q2347.38 1522.85 2347.38 1531.6 Q2347.38 1540.33 2344.3 1544.94 Q2341.24 1549.52 2335.43 1549.52 Q2329.62 1549.52 2326.54 1544.94 Q2323.49 1540.33 2323.49 1531.6 Q2323.49 1522.85 2326.54 1518.27 Q2329.62 1513.66 2335.43 1513.66 Z" fill="#000000" fill-rule="nonzero" fill-opacity="1" /><polyline clip-path="url(#clip810)" style="stroke:#000000; stroke-linecap:round; stroke-linejoin:round; stroke-width:4; stroke-opacity:1; fill:none" points="178.867,1486.45 178.867,847.244 "/>
<polyline clip-path="url(#clip810)" style="stroke:#000000; stroke-linecap:round; stroke-linejoin:round; stroke-width:4; stroke-opacity:1; fill:none" points="178.867,1486.45 197.764,1486.45 "/>
<polyline clip-path="url(#clip810)" style="stroke:#000000; stroke-linecap:round; stroke-linejoin:round; stroke-width:4; stroke-opacity:1; fill:none" points="178.867,1326.65 197.764,1326.65 "/>
<polyline clip-path="url(#clip810)" style="stroke:#000000; stroke-linecap:round; stroke-linejoin:round; stroke-width:4; stroke-opacity:1; fill:none" points="178.867,1166.85 197.764,1166.85 "/>
<polyline clip-path="url(#clip810)" style="stroke:#000000; stroke-linecap:round; stroke-linejoin:round; stroke-width:4; stroke-opacity:1; fill:none" points="178.867,1007.05 197.764,1007.05 "/>
<polyline clip-path="url(#clip810)" style="stroke:#000000; stroke-linecap:round; stroke-linejoin:round; stroke-width:4; stroke-opacity:1; fill:none" points="178.867,847.244 197.764,847.244 "/>
<path clip-path="url(#clip810)" d="M50.9921 1486.9 L80.6679 1486.9 L80.6679 1490.83 L50.9921 1490.83 L50.9921 1486.9 Z" fill="#000000" fill-rule="nonzero" fill-opacity="1" /><path clip-path="url(#clip810)" d="M91.5706 1499.79 L99.2095 1499.79 L99.2095 1473.43 L90.8993 1475.09 L90.8993 1470.83 L99.1632 1469.17 L103.839 1469.17 L103.839 1499.79 L111.478 1499.79 L111.478 1503.73 L91.5706 1503.73 L91.5706 1499.79 Z" fill="#000000" fill-rule="nonzero" fill-opacity="1" /><path clip-path="url(#clip810)" d="M130.922 1472.25 Q127.311 1472.25 125.482 1475.81 Q123.677 1479.35 123.677 1486.48 Q123.677 1493.59 125.482 1497.15 Q127.311 1500.7 130.922 1500.7 Q134.556 1500.7 136.362 1497.15 Q138.191 1493.59 138.191 1486.48 Q138.191 1479.35 136.362 1475.81 Q134.556 1472.25 130.922 1472.25 M130.922 1468.54 Q136.732 1468.54 139.788 1473.15 Q142.867 1477.73 142.867 1486.48 Q142.867 1495.21 139.788 1499.82 Q136.732 1504.4 130.922 1504.4 Q125.112 1504.4 122.033 1499.82 Q118.978 1495.21 118.978 1486.48 Q118.978 1477.73 122.033 1473.15 Q125.112 1468.54 130.922 1468.54 Z" fill="#000000" fill-rule="nonzero" fill-opacity="1" /><path clip-path="url(#clip810)" d="M82.1494 1327.1 L111.825 1327.1 L111.825 1331.03 L82.1494 1331.03 L82.1494 1327.1 Z" fill="#000000" fill-rule="nonzero" fill-opacity="1" /><path clip-path="url(#clip810)" d="M121.964 1309.37 L140.32 1309.37 L140.32 1313.3 L126.246 1313.3 L126.246 1321.77 Q127.265 1321.43 128.283 1321.27 Q129.302 1321.08 130.32 1321.08 Q136.107 1321.08 139.487 1324.25 Q142.867 1327.42 142.867 1332.84 Q142.867 1338.42 139.394 1341.52 Q135.922 1344.6 129.603 1344.6 Q127.427 1344.6 125.158 1344.23 Q122.913 1343.86 120.506 1343.12 L120.506 1338.42 Q122.589 1339.55 124.811 1340.11 Q127.033 1340.66 129.51 1340.66 Q133.515 1340.66 135.853 1338.56 Q138.191 1336.45 138.191 1332.84 Q138.191 1329.23 135.853 1327.12 Q133.515 1325.01 129.51 1325.01 Q127.635 1325.01 125.76 1325.43 Q123.908 1325.85 121.964 1326.73 L121.964 1309.37 Z" fill="#000000" fill-rule="nonzero" fill-opacity="1" /><path clip-path="url(#clip810)" d="M130.922 1152.64 Q127.311 1152.64 125.482 1156.21 Q123.677 1159.75 123.677 1166.88 Q123.677 1173.99 125.482 1177.55 Q127.311 1181.09 130.922 1181.09 Q134.556 1181.09 136.362 1177.55 Q138.191 1173.99 138.191 1166.88 Q138.191 1159.75 136.362 1156.21 Q134.556 1152.64 130.922 1152.64 M130.922 1148.94 Q136.732 1148.94 139.788 1153.55 Q142.867 1158.13 142.867 1166.88 Q142.867 1175.61 139.788 1180.21 Q136.732 1184.8 130.922 1184.8 Q125.112 1184.8 122.033 1180.21 Q118.978 1175.61 118.978 1166.88 Q118.978 1158.13 122.033 1153.55 Q125.112 1148.94 130.922 1148.94 Z" fill="#000000" fill-rule="nonzero" fill-opacity="1" /><path clip-path="url(#clip810)" d="M121.964 989.765 L140.32 989.765 L140.32 993.7 L126.246 993.7 L126.246 1002.17 Q127.265 1001.83 128.283 1001.66 Q129.302 1001.48 130.32 1001.48 Q136.107 1001.48 139.487 1004.65 Q142.867 1007.82 142.867 1013.24 Q142.867 1018.82 139.394 1021.92 Q135.922 1025 129.603 1025 Q127.427 1025 125.158 1024.63 Q122.913 1024.26 120.506 1023.51 L120.506 1018.82 Q122.589 1019.95 124.811 1020.51 Q127.033 1021.06 129.51 1021.06 Q133.515 1021.06 135.853 1018.95 Q138.191 1016.85 138.191 1013.24 Q138.191 1009.63 135.853 1007.52 Q133.515 1005.41 129.51 1005.41 Q127.635 1005.41 125.76 1005.83 Q123.908 1006.25 121.964 1007.13 L121.964 989.765 Z" fill="#000000" fill-rule="nonzero" fill-opacity="1" /><path clip-path="url(#clip810)" d="M91.5706 860.589 L99.2095 860.589 L99.2095 834.223 L90.8993 835.89 L90.8993 831.631 L99.1632 829.964 L103.839 829.964 L103.839 860.589 L111.478 860.589 L111.478 864.524 L91.5706 864.524 L91.5706 860.589 Z" fill="#000000" fill-rule="nonzero" fill-opacity="1" /><path clip-path="url(#clip810)" d="M130.922 833.043 Q127.311 833.043 125.482 836.608 Q123.677 840.149 123.677 847.279 Q123.677 854.385 125.482 857.95 Q127.311 861.492 130.922 861.492 Q134.556 861.492 136.362 857.95 Q138.191 854.385 138.191 847.279 Q138.191 840.149 136.362 836.608 Q134.556 833.043 130.922 833.043 M130.922 829.339 Q136.732 829.339 139.788 833.946 Q142.867 838.529 142.867 847.279 Q142.867 856.006 139.788 860.612 Q136.732 865.195 130.922 865.195 Q125.112 865.195 122.033 860.612 Q118.978 856.006 118.978 847.279 Q118.978 838.529 122.033 833.946 Q125.112 829.339 130.922 829.339 Z" fill="#000000" fill-rule="nonzero" fill-opacity="1" /><polyline clip-path="url(#clip813)" style="stroke:#009af9; stroke-linecap:round; stroke-linejoin:round; stroke-width:4; stroke-opacity:1; fill:none" points="240.392,1134.89 242.445,1195 244.498,1147.76 246.55,1122.54 248.603,1056.55 250.656,1295.9 252.709,1160.23 254.762,1164.78 256.815,1123.11 258.868,1213.96 260.921,1105.12 262.974,1164.06 265.027,1139.17 267.079,1079.87 269.132,1165.29 271.185,1168.41 273.238,1166.84 275.291,1173.28 277.344,1175.11 279.397,1106.23 281.45,1147.8 283.503,1146.44 285.555,1185.5 287.608,1155.06 289.661,1268.44 291.714,1115.51 293.767,1090.84 295.82,1179.01 297.873,1156.62 299.926,1176.1 301.979,1135.31 304.031,918.242 306.084,1189.19 308.137,1140.46 310.19,1138.85 312.243,1144.68 314.296,1114.87 316.349,1134.57 318.402,1227.25 320.455,1190.57 322.507,1170.58 324.56,1144.88 326.613,1150.31 328.666,1143.82 330.719,1180.86 332.772,1161.11 334.825,1169.82 336.878,1173.26 338.931,1135.9 340.984,1178.83 343.036,1162.27 345.089,1170.03 347.142,1127.63 349.195,1168.55 351.248,1236.54 353.301,1403.56 355.354,752.193 357.407,1139.93 359.46,1168.37 361.512,1238.83 363.565,1159.78 365.618,1203.95 367.671,1177.04 369.724,1122.85 371.777,1256.3 373.83,1193.62 375.883,1212.15 377.936,1126.29 379.988,1196.97 382.041,1137.8 384.094,1214.33 386.147,1168.51 388.2,1183.03 390.253,1204.1 392.306,1142.85 394.359,1160.34 396.412,1169.65 398.464,1174.22 400.517,1119.2 402.57,1224.7 404.623,1252.02 406.676,1012.6 408.729,1407.26 410.782,1178.02 412.835,1166 414.888,1167.58 416.94,1168.52 418.993,1153.29 421.046,1130.26 423.099,1127.69 425.152,1188.01 427.205,1053.26 429.258,1106.08 431.311,1177.01 433.364,1130.88 435.417,1279.5 437.469,1259.33 439.522,1260.7 441.575,1003.94 443.628,1227.1 445.681,1177.63 447.734,1186.64 449.787,1185.79 451.84,1232.49 453.893,1219.28 455.945,952.406 457.998,1214.73 460.051,1111.56 462.104,941.891 464.157,1203.78 466.21,1206.34 468.263,1182 470.316,1124.77 472.369,1248.78 474.421,1484 476.474,1068.13 478.527,1120.54 480.58,1153.76 482.633,1187.96 484.686,1145.26 486.739,1196.04 488.792,1227.53 490.845,1167.27 492.897,1182.96 494.95,1217.54 497.003,1175.06 499.056,1172.98 501.109,1062.33 503.162,1210.36 505.215,1182.35 507.268,1170.19 509.321,1180.77 511.374,1157.49 513.426,1168.21 515.479,1189.2 517.532,1132.22 519.585,1181.59 521.638,1155.22 523.691,1223.93 525.744,1029.61 527.797,1333.44 529.85,739.511 531.902,789.257 533.955,1136.82 536.008,979.167 538.061,1187.63 540.114,1224.88 542.167,1200.05 544.22,1212.23 546.273,1004.29 548.326,1199.95 550.378,1051.3 552.431,1149.61 554.484,1196.37 556.537,1193.93 558.59,1194.2 560.643,1184.91 562.696,1167.22 564.749,1144.95 566.802,1142.13 568.854,1194.34 570.907,1258.76 572.96,1173.62 575.013,1202.9 577.066,1179.39 579.119,1182.3 581.172,1157.69 583.225,1143.64 585.278,1113.92 587.331,1154.42 589.383,1140.4 591.436,1140.31 593.489,1212.82 595.542,1257.93 597.595,1040.6 599.648,1131.75 601.701,1208.06 603.754,1227.61 605.807,1156.11 607.859,1140.44 609.912,1162.22 611.965,1150.17 614.018,1002.93 616.071,1335.04 618.124,1138.34 620.177,1091.53 622.23,1269.06 624.283,1183.62 626.335,1164.56 628.388,1168.56 630.441,1139.65 632.494,1173.23 634.547,1176 636.6,1134.34 638.653,1204 640.706,1159.39 642.759,1101.53 644.811,1111.19 646.864,1030.55 648.917,1191.23 650.97,1174.74 653.023,1175.78 655.076,1189.62 657.129,1196.31 659.182,1214.4 661.235,1116.59 663.288,1266.7 665.34,1197.26 667.393,1160.12 669.446,1169.23 671.499,1152.95 673.552,1151.85 675.605,1227.16 677.658,1182.48 679.711,1126.27 681.764,1172.9 683.816,1206.56 685.869,1259.89 687.922,1160.97 689.975,1151.9 692.028,1212.33 694.081,1139.67 696.134,1197.7 698.187,1166.11 700.24,1168.56 702.292,1145.85 704.345,1151.6 706.398,1166.66 708.451,1158.21 710.504,1166.89 712.557,1090.49 714.61,1132.72 716.663,1178.49 718.716,1172.32 720.768,1147.78 722.821,1198.97 724.874,1190.29 726.927,1086.32 728.98,1250.6 731.033,1249.28 733.086,1168.66 735.139,1166.97 737.192,1148.24 739.245,1018.75 741.297,1184.06 743.35,1177.11 745.403,1179.58 747.456,1171.47 749.509,1163.44 751.562,1182.99 753.615,1172.85 755.668,1160.82 757.721,1182.39 759.773,1121.87 761.826,1152.95 763.879,1009.9 765.932,1143.2 767.985,1144.56 770.038,1141.62 772.091,1103.89 774.144,1310.79 776.197,1182.41 778.249,1125.93 780.302,1157.56 782.355,1149.77 784.408,1174.69 786.461,1169.36 788.514,1183.53 790.567,1172.12 792.62,1170.95 794.673,1170.32 796.725,1192.17 798.778,1159.32 800.831,1163.66 802.884,1134.31 804.937,1199.81 806.99,1047.68 809.043,1037.16 811.096,937.28 813.149,1199.45 815.202,1158.96 817.254,1162.33 819.307,1158.61 821.36,1231.83 823.413,1165.04 825.466,1142.7 827.519,1129.16 829.572,1202.85 831.625,1193.03 833.678,1236.24 835.73,1124.84 837.783,1259.12 839.836,1195.73 841.889,1187.19 843.942,1166.62 845.995,1198.41 848.048,1148.55 850.101,1207.58 852.154,1249.29 854.206,1399.67 856.259,1041.41 858.312,1307.24 860.365,1092.2 862.418,1234.14 864.471,1141.72 866.524,1142.25 868.577,1230.33 870.63,1165.13 872.682,1188.95 874.735,1159.57 876.788,1144.17 878.841,1151.06 880.894,1164.51 882.947,1183.26 885,1183.06 887.053,1220.59 889.106,1287.96 891.159,1105.62 893.211,1255.84 895.264,1182.6 897.317,1215.12 899.37,1157 901.423,1169.85 903.476,1177.46 905.529,1170.56 907.582,1172.66 909.635,1120.64 911.687,1212.8 913.74,1144.11 915.793,1171.48 917.846,1188.22 919.899,1229.79 921.952,1156.58 924.005,1205.51 926.058,1170.9 928.111,1152.34 930.163,1157.16 932.216,1187.01 934.269,1144.86 936.322,1207.07 938.375,1193.8 940.428,1153.49 942.481,1169.87 944.534,1169.97 946.587,1160.99 948.639,1068.85 950.692,1414.22 952.745,1210.5 954.798,1216.92 956.851,1144.9 958.904,1177.46 960.957,1074.46 963.01,1193.24 965.063,1172.37 967.116,1177.51 969.168,1127.03 971.221,1123.92 973.274,1122.81 975.327,1132.74 977.38,1155.93 979.433,1194.9 981.486,1121.03 983.539,1186.2 985.592,1107.11 987.644,1165.61 989.697,1164 991.75,1183.43 993.803,1178.97 995.856,1162.79 997.909,1145.91 999.962,1146.97 1002.01,1174.9 1004.07,1196.18 1006.12,1165.89 1008.17,1227.39 1010.23,1206.82 1012.28,1217.2 1014.33,1170.93 1016.38,1142.3 1018.44,1174.4 1020.49,1165.84 1022.54,1215.57 1024.6,987.336 1026.65,1087.57 1028.7,1171.4 1030.76,1178.08 1032.81,1221.17 1034.86,1145.2 1036.91,920.681 1038.97,978.375 1041.02,1164.95 1043.07,1166.02 1045.13,1172.3 1047.18,1162.47 1049.23,1172.88 1051.28,1137.23 1053.34,1161.88 1055.39,1193.18 1057.44,1155.25 1059.5,1140.92 1061.55,1188.47 1063.6,1186.44 1065.65,1117.12 1067.71,1312.98 1069.76,286.625 1071.81,1740.91 1073.87,377.378 1075.92,1455.34 1077.97,1225.62 1080.02,1165.29 1082.08,925.89 1084.13,676.321 1086.18,1696.72 1088.24,231.011 1090.29,-769.65 1092.34,503.083 1094.39,748.238 1096.45,849.938 1098.5,1264.45 1100.55,1295.42 1102.61,916.845 1104.66,1341.5 1106.71,1156.34 1108.77,1151.58 1110.82,1185.45 1112.87,1233.26 1114.92,1237.99 1116.98,1156.52 1119.03,1188.1 1121.08,1131.65 1123.14,1179.76 1125.19,1211.1 1127.24,1126.73 1129.29,1135.37 1131.35,1173.01 1133.4,1161.4 1135.45,1159.82 1137.51,1161.77 1139.56,1211.49 1141.61,1250.31 1143.66,1105.64 1145.72,1132.27 1147.77,1115.28 1149.82,1102.99 1151.88,1136.51 1153.93,1218.42 1155.98,1163.2 1158.03,1091.32 1160.09,1160.88 1162.14,1165.81 1164.19,1191.4 1166.25,1188.02 1168.3,1136.61 1170.35,1166.42 1172.4,1138.59 1174.46,1165.76 1176.51,1279.14 1178.56,1302.5 1180.62,1334 1182.67,1058.98 1184.72,1269.56 1186.77,1174.95 1188.83,1239.58 1190.88,1142.15 1192.93,1117.93 1194.99,1151.13 1197.04,1194.9 1199.09,1152.49 1201.15,1154.56 1203.2,1247.36 1205.25,1269.91 1207.3,1252.75 1209.36,1277.51 1211.41,-1760.25 1213.46,1504.18 1215.52,1582.7 1217.57,1190.37 1219.62,1196.74 1221.67,1134.48 1223.73,1177.67 1225.78,1165.4 1227.83,1124.7 1229.89,1094.92 1231.94,1222.88 1233.99,1200 1236.04,1183.7 1238.1,1172.47 1240.15,1209.98 1242.2,1344.23 1244.26,933.191 1246.31,1424.19 1248.36,1144.34 1250.41,1034.79 1252.47,1179.02 1254.52,1234.06 1256.57,1203.32 1258.63,1110.74 1260.68,1146.01 1262.73,1205.41 1264.78,1114.03 1266.84,1103.38 1268.89,1162.66 1270.94,1160.95 1273,1171.02 1275.05,1173.11 1277.1,1226.32 1279.16,1147.52 1281.21,1148.96 1283.26,1526.59 1285.31,325.538 1287.37,857.043 1289.42,1010.58 1291.47,1109.93 1293.53,1239.11 1295.58,1212.89 1297.63,1197.87 1299.68,1176.37 1301.74,1164.06 1303.79,1171.25 1305.84,1117.13 1307.9,1267.36 1309.95,1261.81 1312,1073.04 1314.05,1115.25 1316.11,1208.34 1318.16,1092.42 1320.21,1272.5 1322.27,1380.58 1324.32,1212.27 1326.37,1597.07 1328.42,1978.18 1330.48,1206.51 1332.53,1556.21 1334.58,956.79 1336.64,948.009 1338.69,1208.19 1340.74,1191.14 1342.79,1174.24 1344.85,1202.35 1346.9,1121.97 1348.95,1154.24 1351.01,1203.43 1353.06,1111.25 1355.11,1104.42 1357.16,1145.44 1359.22,1126.14 1361.27,1188.11 1363.32,1151.15 1365.38,1144.21 1367.43,1208.97 1369.48,1111.62 1371.54,1119.04 1373.59,1232.21 1375.64,1185.12 1377.69,1113.37 1379.75,1150.07 1381.8,1178.66 1383.85,1203.13 1385.91,1205.39 1387.96,1247.07 1390.01,1201.63 1392.06,1141.87 1394.12,1196.16 1396.17,1079.16 1398.22,1130.05 1400.28,1197.23 1402.33,1118.23 1404.38,1147.86 1406.43,1144.44 1408.49,1056.28 1410.54,1200.28 1412.59,1155.25 1414.65,1177.5 1416.7,1216.77 1418.75,1121.32 1420.8,1202.44 1422.86,1151.63 1424.91,1168.71 1426.96,1165.87 1429.02,1165.47 1431.07,1197.52 1433.12,1178.39 1435.17,1158.01 1437.23,1153.25 1439.28,1137.65 1441.33,1072.79 1443.39,1851.15 1445.44,1724.88 1447.49,527.037 1449.55,353.081 1451.6,888.109 1453.65,1082.93 1455.7,513.306 1457.76,1424.6 1459.81,1362.21 1461.86,1147.81 1463.92,1156.87 1465.97,1164.81 1468.02,1154.9 1470.07,1160.75 1472.13,1188.64 1474.18,1146.81 1476.23,1117.51 1478.29,1117.38 1480.34,1168.13 1482.39,1175.53 1484.44,1193.18 1486.5,1162.44 1488.55,1106.29 1490.6,1064.15 1492.66,1137.81 1494.71,1139.5 1496.76,1101.33 1498.81,1163.07 1500.87,1127.87 1502.92,1218.9 1504.97,1286.41 1507.03,873.293 1509.08,1100 1511.13,1112.03 1513.18,1224.78 1515.24,1215 1517.29,1214.2 1519.34,1287.93 1521.4,1154.17 1523.45,1152.34 1525.5,1200.84 1527.55,1136.85 1529.61,1218.65 1531.66,1201.06 1533.71,1392.03 1535.77,1248.51 1537.82,1234.69 1539.87,1193.11 1541.93,1194.81 1543.98,1238.1 1546.03,1109.62 1548.08,1145.92 1550.14,1147.87 1552.19,1286.76 1554.24,1120.24 1556.3,1146.37 1558.35,1211.72 1560.4,1076.81 1562.45,1258.2 1564.51,1086.98 1566.56,1190.69 1568.61,1129.35 1570.67,1069.77 1572.72,1037.62 1574.77,1190.51 1576.82,1178.36 1578.88,1158.09 1580.93,1181.15 1582.98,1162.47 1585.04,1150.91 1587.09,1170.93 1589.14,1177.44 1591.19,1168.42 1593.25,1181.53 1595.3,1149.23 1597.35,1186.25 1599.41,1175 1601.46,1149.05 1603.51,1161.47 1605.56,1167.31 1607.62,1181.45 1609.67,1202.97 1611.72,1121.7 1613.78,1142.59 1615.83,1103.12 1617.88,1175.39 1619.94,1237.42 1621.99,1185.55 1624.04,1218.97 1626.09,1204.21 1628.15,1299.09 1630.2,840.746 1632.25,1072.05 1634.31,1475.83 1636.36,1186.26 1638.41,810.77 1640.46,1753.27 1642.52,1429.81 1644.57,1332.14 1646.62,1294.19 1648.68,1374.29 1650.73,574.988 1652.78,435.873 1654.83,1063.57 1656.89,1201.46 1658.94,1048.97 1660.99,1070.73 1663.05,1089.08 1665.1,1169.11 1667.15,1149.8 1669.2,668.569 1671.26,1343.76 1673.31,865.827 1675.36,1261.82 1677.42,1300.34 1679.47,1208.04 1681.52,1138.03 1683.57,1100.06 1685.63,1145.87 1687.68,1171.63 1689.73,1146.35 1691.79,1174.02 1693.84,1152.16 1695.89,1174.82 1697.94,1139.73 1700,1156.16 1702.05,1176.55 1704.1,1183.15 1706.16,1109.2 1708.21,1276.27 1710.26,1145.93 1712.32,1070.12 1714.37,1089.41 1716.42,1206.42 1718.47,1166.08 1720.53,1017.98 1722.58,1152.62 1724.63,1165.02 1726.69,1173.74 1728.74,1184.64 1730.79,1158.73 1732.84,1162.9 1734.9,1152.12 1736.95,1128.63 1739,1161.45 1741.06,1132.26 1743.11,1116.14 1745.16,1185.81 1747.21,1154.15 1749.27,1167.47 1751.32,1167.58 1753.37,1191.67 1755.43,1123.03 1757.48,1192.34 1759.53,1158.41 1761.58,1181.81 1763.64,1114.79 1765.69,1265.72 1767.74,1140.88 1769.8,1064.49 1771.85,1199.86 1773.9,1111.09 1775.95,1114.45 1778.01,1201.74 1780.06,1118.66 1782.11,1339.4 1784.17,1048.85 1786.22,1390.41 1788.27,1182.03 1790.33,1162.57 1792.38,1164.3 1794.43,1162.42 1796.48,1184 1798.54,1192.76 1800.59,1207.75 1802.64,1157.88 1804.7,1237.96 1806.75,1224.52 1808.8,1165.93 1810.85,955.592 1812.91,972.807 1814.96,1253 1817.01,1135.53 1819.07,1114.89 1821.12,1144.21 1823.17,1176.72 1825.22,1193.38 1827.28,1134.2 1829.33,1104.35 1831.38,1238.08 1833.44,1164.18 1835.49,1175.6 1837.54,1164.89 1839.59,1160.74 1841.65,1179.85 1843.7,1195.25 1845.75,1149.53 1847.81,1132.04 1849.86,1115.44 1851.91,1205.72 1853.96,1136.59 1856.02,1091.52 1858.07,1177.95 1860.12,1289.7 1862.18,1040.49 1864.23,1041.25 1866.28,1546.32 1868.34,1095.33 1870.39,812.043 1872.44,983.465 1874.49,1517.49 1876.55,1334.76 1878.6,1251.08 1880.65,1251.99 1882.71,1106.09 1884.76,1247.94 1886.81,1219.19 1888.86,1183.75 1890.92,1166.73 1892.97,1178.02 1895.02,1189.03 1897.08,1198.65 1899.13,1122.67 1901.18,941.309 1903.23,1095.51 1905.29,1205.03 1907.34,1221.42 1909.39,1156.24 1911.45,1220.27 1913.5,1177.77 1915.55,1147.82 1917.6,1149.75 1919.66,1225.55 1921.71,1224.69 1923.76,1237.79 1925.82,1138.6 1927.87,1098.03 1929.92,1169.43 1931.97,1589.72 1934.03,2658.09 1936.08,-1866.48 1938.13,-10760.8 1940.19,1169.69 1942.24,14378.8 1944.29,39650.3 1946.34,-27265 1948.4,213.707 1950.45,809.149 1952.5,-179.412 1954.56,1119.33 1956.61,1571.5 1958.66,1547.68 1960.72,1889.92 1962.77,963.436 1964.82,1468.9 1966.87,529.847 1968.93,662.546 1970.98,2073.31 1973.03,-1228.74 1975.09,-2584.52 1977.14,2911.99 1979.19,28.4031 1981.24,1257.91 1983.3,1058.83 1985.35,1112.09 1987.4,1180.01 1989.46,1195.52 1991.51,1129.83 1993.56,1246.4 1995.61,1141.86 1997.67,1192.13 1999.72,1181.7 2001.77,1226.96 2003.83,1171.19 2005.88,1223.67 2007.93,1150.29 2009.98,1154.48 2012.04,1134.94 2014.09,1111.81 2016.14,1129.12 2018.2,1105.49 2020.25,1293.1 2022.3,1142.69 2024.35,1116.96 2026.41,1662.44 2028.46,1586.39 2030.51,1162.22 2032.57,1177.36 2034.62,1159.88 2036.67,1193.91 2038.73,1207 2040.78,1145.11 2042.83,1184.4 2044.88,1179.81 2046.94,1118.59 2048.99,1185.57 2051.04,1166.8 2053.1,1196.7 2055.15,1272.05 2057.2,1261.53 2059.25,1194.99 2061.31,1160.25 2063.36,1093.83 2065.41,1204.09 2067.47,1239.67 2069.52,1141.37 2071.57,1197.3 2073.62,1175.02 2075.68,1146.5 2077.73,1166.09 2079.78,1176.92 2081.84,1179.81 2083.89,1186.6 2085.94,1174 2087.99,1162.48 2090.05,1155.49 2092.1,1219.79 2094.15,1216.82 2096.21,1153.38 2098.26,1231.97 2100.31,1373.41 2102.36,1180.73 2104.42,1157.01 2106.47,1156.92 2108.52,1083.9 2110.58,1387.05 2112.63,1460.22 2114.68,943.27 2116.73,1430.15 2118.79,1196.36 2120.84,1154.08 2122.89,1169.26 2124.95,1162 2127,1224.93 2129.05,1226.19 2131.11,1165.54 2133.16,1094.85 2135.21,1245.19 2137.26,1168.28 2139.32,1222.7 2141.37,1161.83 2143.42,1155.57 2145.48,1284.32 2147.53,1028.35 2149.58,1136.83 2151.63,1148.55 2153.69,1173.34 2155.74,1170.01 2157.79,1156.47 2159.85,1158.68 2161.9,1215.66 2163.95,1184.02 2166,1165.01 2168.06,1142.51 2170.11,1173.62 2172.16,1123.86 2174.22,1184.99 2176.27,1079.58 2178.32,1699.81 2180.37,1136.96 2182.43,1143.81 2184.48,1219.42 2186.53,1162.56 2188.59,1161.58 2190.64,1169.7 2192.69,1161.21 2194.74,1191.53 2196.8,1101.78 2198.85,1136.16 2200.9,1134.24 2202.96,1122.11 2205.01,1240.9 2207.06,1156.38 2209.12,1145.85 2211.17,1214.03 2213.22,1113.34 2215.27,1155.5 2217.33,1160.14 2219.38,1181.41 2221.43,1149.61 2223.49,1165.12 2225.54,1196.14 2227.59,1072.19 2229.64,1158.52 2231.7,1062.53 2233.75,1265.83 2235.8,1192.22 2237.86,1224.32 2239.91,1122.11 2241.96,1151.31 2244.01,1194.62 2246.07,1088.49 2248.12,1108.78 2250.17,1190.81 2252.23,1098.75 2254.28,1196.28 2256.33,1150.72 2258.38,1059.49 2260.44,1041.46 2262.49,1191.25 2264.54,1173.46 2266.6,1199.25 2268.65,1067.97 2270.7,1325.44 2272.75,1168.59 2274.81,1162.68 2276.86,1162.09 2278.91,1164.94 2280.97,1214.66 2283.02,1206.79 2285.07,998.871 2287.12,1179.57 2289.18,1157.89 2291.23,1146.05 "/>
<path clip-path="url(#clip810)" d="M1942.7 972.231 L2280.29 972.231 L2280.29 868.551 L1942.7 868.551  Z" fill="#ffffff" fill-rule="evenodd" fill-opacity="1"/>
<polyline clip-path="url(#clip810)" style="stroke:#000000; stroke-linecap:round; stroke-linejoin:round; stroke-width:4; stroke-opacity:1; fill:none" points="1942.7,972.231 2280.29,972.231 2280.29,868.551 1942.7,868.551 1942.7,972.231 "/>
<polyline clip-path="url(#clip810)" style="stroke:#009af9; stroke-linecap:round; stroke-linejoin:round; stroke-width:4; stroke-opacity:1; fill:none" points="1966.85,920.391 2111.78,920.391 "/>
<path clip-path="url(#clip810)" d="M2161.49 932.74 L2161.49 923.458 L2153.85 923.458 L2153.85 919.615 L2166.12 919.615 L2166.12 934.453 Q2163.41 936.375 2160.14 937.37 Q2156.88 938.342 2153.18 938.342 Q2145.07 938.342 2140.49 933.62 Q2135.93 928.875 2135.93 920.426 Q2135.93 911.953 2140.49 907.231 Q2145.07 902.486 2153.18 902.486 Q2156.56 902.486 2159.59 903.319 Q2162.64 904.153 2165.21 905.773 L2165.21 910.75 Q2162.62 908.551 2159.7 907.44 Q2156.79 906.328 2153.57 906.328 Q2147.23 906.328 2144.03 909.87 Q2140.86 913.412 2140.86 920.426 Q2140.86 927.416 2144.03 930.958 Q2147.23 934.5 2153.57 934.5 Q2156.05 934.5 2157.99 934.083 Q2159.94 933.643 2161.49 932.74 Z" fill="#000000" fill-rule="nonzero" fill-opacity="1" /><path clip-path="url(#clip810)" d="M2179.33 906.953 L2179.33 919.94 L2185.21 919.94 Q2188.48 919.94 2190.26 918.25 Q2192.04 916.56 2192.04 913.435 Q2192.04 910.333 2190.26 908.643 Q2188.48 906.953 2185.21 906.953 L2179.33 906.953 M2174.66 903.111 L2185.21 903.111 Q2191.02 903.111 2193.99 905.75 Q2196.97 908.365 2196.97 913.435 Q2196.97 918.551 2193.99 921.166 Q2191.02 923.782 2185.21 923.782 L2179.33 923.782 L2179.33 937.671 L2174.66 937.671 L2174.66 903.111 Z" fill="#000000" fill-rule="nonzero" fill-opacity="1" /><path clip-path="url(#clip810)" d="M2223.96 904.245 L2223.96 908.805 Q2221.3 907.532 2218.94 906.907 Q2216.58 906.282 2214.38 906.282 Q2210.56 906.282 2208.48 907.764 Q2206.42 909.245 2206.42 911.977 Q2206.42 914.268 2207.78 915.449 Q2209.17 916.606 2213.01 917.324 L2215.84 917.902 Q2221.07 918.898 2223.55 921.421 Q2226.05 923.921 2226.05 928.134 Q2226.05 933.157 2222.67 935.75 Q2219.31 938.342 2212.81 938.342 Q2210.35 938.342 2207.57 937.787 Q2204.82 937.231 2201.86 936.143 L2201.86 931.328 Q2204.7 932.926 2207.44 933.736 Q2210.17 934.546 2212.81 934.546 Q2216.81 934.546 2218.99 932.972 Q2221.16 931.398 2221.16 928.481 Q2221.16 925.935 2219.59 924.5 Q2218.04 923.064 2214.47 922.347 L2211.62 921.791 Q2206.39 920.75 2204.06 918.527 Q2201.72 916.305 2201.72 912.347 Q2201.72 907.764 2204.94 905.125 Q2208.18 902.486 2213.85 902.486 Q2216.28 902.486 2218.8 902.926 Q2221.32 903.366 2223.96 904.245 Z" fill="#000000" fill-rule="nonzero" fill-opacity="1" /><path clip-path="url(#clip810)" d="M2254.06 904.245 L2254.06 908.805 Q2251.39 907.532 2249.03 906.907 Q2246.67 906.282 2244.47 906.282 Q2240.65 906.282 2238.57 907.764 Q2236.51 909.245 2236.51 911.977 Q2236.51 914.268 2237.87 915.449 Q2239.26 916.606 2243.11 917.324 L2245.93 917.902 Q2251.16 918.898 2253.64 921.421 Q2256.14 923.921 2256.14 928.134 Q2256.14 933.157 2252.76 935.75 Q2249.4 938.342 2242.9 938.342 Q2240.44 938.342 2237.67 937.787 Q2234.91 937.231 2231.95 936.143 L2231.95 931.328 Q2234.8 932.926 2237.53 933.736 Q2240.26 934.546 2242.9 934.546 Q2246.9 934.546 2249.08 932.972 Q2251.25 931.398 2251.25 928.481 Q2251.25 925.935 2249.68 924.5 Q2248.13 923.064 2244.56 922.347 L2241.72 921.791 Q2236.49 920.75 2234.15 918.527 Q2231.81 916.305 2231.81 912.347 Q2231.81 907.764 2235.03 905.125 Q2238.27 902.486 2243.94 902.486 Q2246.37 902.486 2248.89 902.926 Q2251.42 903.366 2254.06 904.245 Z" fill="#000000" fill-rule="nonzero" fill-opacity="1" /></svg>
