<?xml version="1.0" encoding="utf-8"?>
<svg xmlns="http://www.w3.org/2000/svg" xmlns:xlink="http://www.w3.org/1999/xlink" width="600" height="400" viewBox="0 0 2400 1600">
<defs>
  <clipPath id="clip580">
    <rect x="0" y="0" width="2400" height="1600"/>
  </clipPath>
</defs>
<path clip-path="url(#clip580)" d="M0 1600 L2400 1600 L2400 0 L0 0  Z" fill="#ffffff" fill-rule="evenodd" fill-opacity="1"/>
<defs>
  <clipPath id="clip581">
    <rect x="242" y="47" width="2112" height="1377"/>
  </clipPath>
</defs>
<path clip-path="url(#clip580)" d="M178.867 686.448 L2352.76 686.448 L2352.76 47.2441 L178.867 47.2441  Z" fill="#ffffff" fill-rule="evenodd" fill-opacity="1"/>
<defs>
  <clipPath id="clip582">
    <rect x="178" y="47" width="2175" height="640"/>
  </clipPath>
</defs>
<polyline clip-path="url(#clip582)" style="stroke:#000000; stroke-linecap:round; stroke-linejoin:round; stroke-width:2; stroke-opacity:0.1; fill:none" points="238.339,686.448 238.339,47.2441 "/>
<polyline clip-path="url(#clip582)" style="stroke:#000000; stroke-linecap:round; stroke-linejoin:round; stroke-width:2; stroke-opacity:0.1; fill:none" points="751.562,686.448 751.562,47.2441 "/>
<polyline clip-path="url(#clip582)" style="stroke:#000000; stroke-linecap:round; stroke-linejoin:round; stroke-width:2; stroke-opacity:0.1; fill:none" points="1264.78,686.448 1264.78,47.2441 "/>
<polyline clip-path="url(#clip582)" style="stroke:#000000; stroke-linecap:round; stroke-linejoin:round; stroke-width:2; stroke-opacity:0.1; fill:none" points="1778.01,686.448 1778.01,47.2441 "/>
<polyline clip-path="url(#clip582)" style="stroke:#000000; stroke-linecap:round; stroke-linejoin:round; stroke-width:2; stroke-opacity:0.1; fill:none" points="2291.23,686.448 2291.23,47.2441 "/>
<polyline clip-path="url(#clip582)" style="stroke:#000000; stroke-linecap:round; stroke-linejoin:round; stroke-width:2; stroke-opacity:0.1; fill:none" points="178.867,686.448 2352.76,686.448 "/>
<polyline clip-path="url(#clip582)" style="stroke:#000000; stroke-linecap:round; stroke-linejoin:round; stroke-width:2; stroke-opacity:0.1; fill:none" points="178.867,526.647 2352.76,526.647 "/>
<polyline clip-path="url(#clip582)" style="stroke:#000000; stroke-linecap:round; stroke-linejoin:round; stroke-width:2; stroke-opacity:0.1; fill:none" points="178.867,366.846 2352.76,366.846 "/>
<polyline clip-path="url(#clip582)" style="stroke:#000000; stroke-linecap:round; stroke-linejoin:round; stroke-width:2; stroke-opacity:0.1; fill:none" points="178.867,207.045 2352.76,207.045 "/>
<polyline clip-path="url(#clip582)" style="stroke:#000000; stroke-linecap:round; stroke-linejoin:round; stroke-width:2; stroke-opacity:0.1; fill:none" points="178.867,47.2441 2352.76,47.2441 "/>
<polyline clip-path="url(#clip580)" style="stroke:#000000; stroke-linecap:round; stroke-linejoin:round; stroke-width:4; stroke-opacity:1; fill:none" points="178.867,686.448 2352.76,686.448 "/>
<polyline clip-path="url(#clip580)" style="stroke:#000000; stroke-linecap:round; stroke-linejoin:round; stroke-width:4; stroke-opacity:1; fill:none" points="238.339,686.448 238.339,667.55 "/>
<polyline clip-path="url(#clip580)" style="stroke:#000000; stroke-linecap:round; stroke-linejoin:round; stroke-width:4; stroke-opacity:1; fill:none" points="751.562,686.448 751.562,667.55 "/>
<polyline clip-path="url(#clip580)" style="stroke:#000000; stroke-linecap:round; stroke-linejoin:round; stroke-width:4; stroke-opacity:1; fill:none" points="1264.78,686.448 1264.78,667.55 "/>
<polyline clip-path="url(#clip580)" style="stroke:#000000; stroke-linecap:round; stroke-linejoin:round; stroke-width:4; stroke-opacity:1; fill:none" points="1778.01,686.448 1778.01,667.55 "/>
<polyline clip-path="url(#clip580)" style="stroke:#000000; stroke-linecap:round; stroke-linejoin:round; stroke-width:4; stroke-opacity:1; fill:none" points="2291.23,686.448 2291.23,667.55 "/>
<path clip-path="url(#clip580)" d="M238.339 717.367 Q234.728 717.367 232.899 720.931 Q231.094 724.473 231.094 731.603 Q231.094 738.709 232.899 742.274 Q234.728 745.815 238.339 745.815 Q241.973 745.815 243.779 742.274 Q245.607 738.709 245.607 731.603 Q245.607 724.473 243.779 720.931 Q241.973 717.367 238.339 717.367 M238.339 713.663 Q244.149 713.663 247.205 718.269 Q250.283 722.853 250.283 731.603 Q250.283 740.329 247.205 744.936 Q244.149 749.519 238.339 749.519 Q232.529 749.519 229.45 744.936 Q226.395 740.329 226.395 731.603 Q226.395 722.853 229.45 718.269 Q232.529 713.663 238.339 713.663 Z" fill="#000000" fill-rule="nonzero" fill-opacity="1" /><path clip-path="url(#clip580)" d="M715.254 744.913 L731.574 744.913 L731.574 748.848 L709.629 748.848 L709.629 744.913 Q712.291 742.158 716.875 737.528 Q721.481 732.876 722.662 731.533 Q724.907 729.01 725.787 727.274 Q726.689 725.515 726.689 723.825 Q726.689 721.07 724.745 719.334 Q722.824 717.598 719.722 717.598 Q717.523 717.598 715.069 718.362 Q712.638 719.126 709.861 720.677 L709.861 715.955 Q712.685 714.82 715.138 714.242 Q717.592 713.663 719.629 713.663 Q725 713.663 728.194 716.348 Q731.388 719.033 731.388 723.524 Q731.388 725.654 730.578 727.575 Q729.791 729.473 727.685 732.066 Q727.106 732.737 724.004 735.954 Q720.902 739.149 715.254 744.913 Z" fill="#000000" fill-rule="nonzero" fill-opacity="1" /><path clip-path="url(#clip580)" d="M741.435 714.288 L759.791 714.288 L759.791 718.223 L745.717 718.223 L745.717 726.695 Q746.736 726.348 747.754 726.186 Q748.773 726.001 749.791 726.001 Q755.578 726.001 758.958 729.172 Q762.337 732.343 762.337 737.76 Q762.337 743.339 758.865 746.44 Q755.393 749.519 749.073 749.519 Q746.898 749.519 744.629 749.149 Q742.384 748.778 739.976 748.038 L739.976 743.339 Q742.06 744.473 744.282 745.028 Q746.504 745.584 748.981 745.584 Q752.985 745.584 755.323 743.478 Q757.661 741.371 757.661 737.76 Q757.661 734.149 755.323 732.042 Q752.985 729.936 748.981 729.936 Q747.106 729.936 745.231 730.353 Q743.379 730.769 741.435 731.649 L741.435 714.288 Z" fill="#000000" fill-rule="nonzero" fill-opacity="1" /><path clip-path="url(#clip580)" d="M781.55 717.367 Q777.939 717.367 776.11 720.931 Q774.305 724.473 774.305 731.603 Q774.305 738.709 776.11 742.274 Q777.939 745.815 781.55 745.815 Q785.184 745.815 786.99 742.274 Q788.819 738.709 788.819 731.603 Q788.819 724.473 786.99 720.931 Q785.184 717.367 781.55 717.367 M781.55 713.663 Q787.36 713.663 790.416 718.269 Q793.495 722.853 793.495 731.603 Q793.495 740.329 790.416 744.936 Q787.36 749.519 781.55 749.519 Q775.74 749.519 772.661 744.936 Q769.606 740.329 769.606 731.603 Q769.606 722.853 772.661 718.269 Q775.74 713.663 781.55 713.663 Z" fill="#000000" fill-rule="nonzero" fill-opacity="1" /><path clip-path="url(#clip580)" d="M1224.4 714.288 L1242.76 714.288 L1242.76 718.223 L1228.69 718.223 L1228.69 726.695 Q1229.7 726.348 1230.72 726.186 Q1231.74 726.001 1232.76 726.001 Q1238.55 726.001 1241.93 729.172 Q1245.31 732.343 1245.31 737.76 Q1245.31 743.339 1241.83 746.44 Q1238.36 749.519 1232.04 749.519 Q1229.87 749.519 1227.6 749.149 Q1225.35 748.778 1222.94 748.038 L1222.94 743.339 Q1225.03 744.473 1227.25 745.028 Q1229.47 745.584 1231.95 745.584 Q1235.95 745.584 1238.29 743.478 Q1240.63 741.371 1240.63 737.76 Q1240.63 734.149 1238.29 732.042 Q1235.95 729.936 1231.95 729.936 Q1230.07 729.936 1228.2 730.353 Q1226.35 730.769 1224.4 731.649 L1224.4 714.288 Z" fill="#000000" fill-rule="nonzero" fill-opacity="1" /><path clip-path="url(#clip580)" d="M1264.52 717.367 Q1260.91 717.367 1259.08 720.931 Q1257.27 724.473 1257.27 731.603 Q1257.27 738.709 1259.08 742.274 Q1260.91 745.815 1264.52 745.815 Q1268.15 745.815 1269.96 742.274 Q1271.79 738.709 1271.79 731.603 Q1271.79 724.473 1269.96 720.931 Q1268.15 717.367 1264.52 717.367 M1264.52 713.663 Q1270.33 713.663 1273.38 718.269 Q1276.46 722.853 1276.46 731.603 Q1276.46 740.329 1273.38 744.936 Q1270.33 749.519 1264.52 749.519 Q1258.71 749.519 1255.63 744.936 Q1252.57 740.329 1252.57 731.603 Q1252.57 722.853 1255.63 718.269 Q1258.71 713.663 1264.52 713.663 Z" fill="#000000" fill-rule="nonzero" fill-opacity="1" /><path clip-path="url(#clip580)" d="M1294.68 717.367 Q1291.07 717.367 1289.24 720.931 Q1287.44 724.473 1287.44 731.603 Q1287.44 738.709 1289.24 742.274 Q1291.07 745.815 1294.68 745.815 Q1298.31 745.815 1300.12 742.274 Q1301.95 738.709 1301.95 731.603 Q1301.95 724.473 1300.12 720.931 Q1298.31 717.367 1294.68 717.367 M1294.68 713.663 Q1300.49 713.663 1303.55 718.269 Q1306.62 722.853 1306.62 731.603 Q1306.62 740.329 1303.55 744.936 Q1300.49 749.519 1294.68 749.519 Q1288.87 749.519 1285.79 744.936 Q1282.74 740.329 1282.74 731.603 Q1282.74 722.853 1285.79 718.269 Q1288.87 713.663 1294.68 713.663 Z" fill="#000000" fill-rule="nonzero" fill-opacity="1" /><path clip-path="url(#clip580)" d="M1736.28 714.288 L1758.51 714.288 L1758.51 716.279 L1745.96 748.848 L1741.08 748.848 L1752.88 718.223 L1736.28 718.223 L1736.28 714.288 Z" fill="#000000" fill-rule="nonzero" fill-opacity="1" /><path clip-path="url(#clip580)" d="M1767.67 714.288 L1786.03 714.288 L1786.03 718.223 L1771.95 718.223 L1771.95 726.695 Q1772.97 726.348 1773.99 726.186 Q1775.01 726.001 1776.03 726.001 Q1781.82 726.001 1785.2 729.172 Q1788.57 732.343 1788.57 737.76 Q1788.57 743.339 1785.1 746.44 Q1781.63 749.519 1775.31 749.519 Q1773.14 749.519 1770.87 749.149 Q1768.62 748.778 1766.21 748.038 L1766.21 743.339 Q1768.3 744.473 1770.52 745.028 Q1772.74 745.584 1775.22 745.584 Q1779.22 745.584 1781.56 743.478 Q1783.9 741.371 1783.9 737.76 Q1783.9 734.149 1781.56 732.042 Q1779.22 729.936 1775.22 729.936 Q1773.34 729.936 1771.47 730.353 Q1769.62 730.769 1767.67 731.649 L1767.67 714.288 Z" fill="#000000" fill-rule="nonzero" fill-opacity="1" /><path clip-path="url(#clip580)" d="M1807.79 717.367 Q1804.18 717.367 1802.35 720.931 Q1800.54 724.473 1800.54 731.603 Q1800.54 738.709 1802.35 742.274 Q1804.18 745.815 1807.79 745.815 Q1811.42 745.815 1813.23 742.274 Q1815.06 738.709 1815.06 731.603 Q1815.06 724.473 1813.23 720.931 Q1811.42 717.367 1807.79 717.367 M1807.79 713.663 Q1813.6 713.663 1816.65 718.269 Q1819.73 722.853 1819.73 731.603 Q1819.73 740.329 1816.65 744.936 Q1813.6 749.519 1807.79 749.519 Q1801.98 749.519 1798.9 744.936 Q1795.84 740.329 1795.84 731.603 Q1795.84 722.853 1798.9 718.269 Q1801.98 713.663 1807.79 713.663 Z" fill="#000000" fill-rule="nonzero" fill-opacity="1" /><path clip-path="url(#clip580)" d="M2235.76 744.913 L2243.4 744.913 L2243.4 718.547 L2235.09 720.214 L2235.09 715.955 L2243.35 714.288 L2248.02 714.288 L2248.02 744.913 L2255.66 744.913 L2255.66 748.848 L2235.76 748.848 L2235.76 744.913 Z" fill="#000000" fill-rule="nonzero" fill-opacity="1" /><path clip-path="url(#clip580)" d="M2275.11 717.367 Q2271.5 717.367 2269.67 720.931 Q2267.86 724.473 2267.86 731.603 Q2267.86 738.709 2269.67 742.274 Q2271.5 745.815 2275.11 745.815 Q2278.74 745.815 2280.55 742.274 Q2282.38 738.709 2282.38 731.603 Q2282.38 724.473 2280.55 720.931 Q2278.74 717.367 2275.11 717.367 M2275.11 713.663 Q2280.92 713.663 2283.97 718.269 Q2287.05 722.853 2287.05 731.603 Q2287.05 740.329 2283.97 744.936 Q2280.92 749.519 2275.11 749.519 Q2269.3 749.519 2266.22 744.936 Q2263.16 740.329 2263.16 731.603 Q2263.16 722.853 2266.22 718.269 Q2269.3 713.663 2275.11 713.663 Z" fill="#000000" fill-rule="nonzero" fill-opacity="1" /><path clip-path="url(#clip580)" d="M2305.27 717.367 Q2301.66 717.367 2299.83 720.931 Q2298.02 724.473 2298.02 731.603 Q2298.02 738.709 2299.83 742.274 Q2301.66 745.815 2305.27 745.815 Q2308.9 745.815 2310.71 742.274 Q2312.54 738.709 2312.54 731.603 Q2312.54 724.473 2310.71 720.931 Q2308.9 717.367 2305.27 717.367 M2305.27 713.663 Q2311.08 713.663 2314.14 718.269 Q2317.21 722.853 2317.21 731.603 Q2317.21 740.329 2314.14 744.936 Q2311.08 749.519 2305.27 749.519 Q2299.46 749.519 2296.38 744.936 Q2293.33 740.329 2293.33 731.603 Q2293.33 722.853 2296.38 718.269 Q2299.46 713.663 2305.27 713.663 Z" fill="#000000" fill-rule="nonzero" fill-opacity="1" /><path clip-path="url(#clip580)" d="M2335.43 717.367 Q2331.82 717.367 2329.99 720.931 Q2328.19 724.473 2328.19 731.603 Q2328.19 738.709 2329.99 742.274 Q2331.82 745.815 2335.43 745.815 Q2339.07 745.815 2340.87 742.274 Q2342.7 738.709 2342.7 731.603 Q2342.7 724.473 2340.87 720.931 Q2339.07 717.367 2335.43 717.367 M2335.43 713.663 Q2341.24 713.663 2344.3 718.269 Q2347.38 722.853 2347.38 731.603 Q2347.38 740.329 2344.3 744.936 Q2341.24 749.519 2335.43 749.519 Q2329.62 749.519 2326.54 744.936 Q2323.49 740.329 2323.49 731.603 Q2323.49 722.853 2326.54 718.269 Q2329.62 713.663 2335.43 713.663 Z" fill="#000000" fill-rule="nonzero" fill-opacity="1" /><polyline clip-path="url(#clip580)" style="stroke:#000000; stroke-linecap:round; stroke-linejoin:round; stroke-width:4; stroke-opacity:1; fill:none" points="178.867,686.448 178.867,47.2441 "/>
<polyline clip-path="url(#clip580)" style="stroke:#000000; stroke-linecap:round; stroke-linejoin:round; stroke-width:4; stroke-opacity:1; fill:none" points="178.867,686.448 197.764,686.448 "/>
<polyline clip-path="url(#clip580)" style="stroke:#000000; stroke-linecap:round; stroke-linejoin:round; stroke-width:4; stroke-opacity:1; fill:none" points="178.867,526.647 197.764,526.647 "/>
<polyline clip-path="url(#clip580)" style="stroke:#000000; stroke-linecap:round; stroke-linejoin:round; stroke-width:4; stroke-opacity:1; fill:none" points="178.867,366.846 197.764,366.846 "/>
<polyline clip-path="url(#clip580)" style="stroke:#000000; stroke-linecap:round; stroke-linejoin:round; stroke-width:4; stroke-opacity:1; fill:none" points="178.867,207.045 197.764,207.045 "/>
<polyline clip-path="url(#clip580)" style="stroke:#000000; stroke-linecap:round; stroke-linejoin:round; stroke-width:4; stroke-opacity:1; fill:none" points="178.867,47.2441 197.764,47.2441 "/>
<path clip-path="url(#clip580)" d="M50.9921 686.899 L80.6679 686.899 L80.6679 690.834 L50.9921 690.834 L50.9921 686.899 Z" fill="#000000" fill-rule="nonzero" fill-opacity="1" /><path clip-path="url(#clip580)" d="M91.5706 699.793 L99.2095 699.793 L99.2095 673.427 L90.8993 675.094 L90.8993 670.835 L99.1632 669.168 L103.839 669.168 L103.839 699.793 L111.478 699.793 L111.478 703.728 L91.5706 703.728 L91.5706 699.793 Z" fill="#000000" fill-rule="nonzero" fill-opacity="1" /><path clip-path="url(#clip580)" d="M130.922 672.247 Q127.311 672.247 125.482 675.811 Q123.677 679.353 123.677 686.483 Q123.677 693.589 125.482 697.154 Q127.311 700.695 130.922 700.695 Q134.556 700.695 136.362 697.154 Q138.191 693.589 138.191 686.483 Q138.191 679.353 136.362 675.811 Q134.556 672.247 130.922 672.247 M130.922 668.543 Q136.732 668.543 139.788 673.149 Q142.867 677.733 142.867 686.483 Q142.867 695.209 139.788 699.816 Q136.732 704.399 130.922 704.399 Q125.112 704.399 122.033 699.816 Q118.978 695.209 118.978 686.483 Q118.978 677.733 122.033 673.149 Q125.112 668.543 130.922 668.543 Z" fill="#000000" fill-rule="nonzero" fill-opacity="1" /><path clip-path="url(#clip580)" d="M82.1494 527.098 L111.825 527.098 L111.825 531.033 L82.1494 531.033 L82.1494 527.098 Z" fill="#000000" fill-rule="nonzero" fill-opacity="1" /><path clip-path="url(#clip580)" d="M121.964 509.367 L140.32 509.367 L140.32 513.302 L126.246 513.302 L126.246 521.774 Q127.265 521.427 128.283 521.265 Q129.302 521.08 130.32 521.08 Q136.107 521.08 139.487 524.251 Q142.867 527.422 142.867 532.839 Q142.867 538.418 139.394 541.52 Q135.922 544.598 129.603 544.598 Q127.427 544.598 125.158 544.228 Q122.913 543.857 120.506 543.117 L120.506 538.418 Q122.589 539.552 124.811 540.108 Q127.033 540.663 129.51 540.663 Q133.515 540.663 135.853 538.557 Q138.191 536.45 138.191 532.839 Q138.191 529.228 135.853 527.121 Q133.515 525.015 129.51 525.015 Q127.635 525.015 125.76 525.432 Q123.908 525.848 121.964 526.728 L121.964 509.367 Z" fill="#000000" fill-rule="nonzero" fill-opacity="1" /><path clip-path="url(#clip580)" d="M130.922 352.645 Q127.311 352.645 125.482 356.209 Q123.677 359.751 123.677 366.881 Q123.677 373.987 125.482 377.552 Q127.311 381.094 130.922 381.094 Q134.556 381.094 136.362 377.552 Q138.191 373.987 138.191 366.881 Q138.191 359.751 136.362 356.209 Q134.556 352.645 130.922 352.645 M130.922 348.941 Q136.732 348.941 139.788 353.547 Q142.867 358.131 142.867 366.881 Q142.867 375.608 139.788 380.214 Q136.732 384.797 130.922 384.797 Q125.112 384.797 122.033 380.214 Q118.978 375.608 118.978 366.881 Q118.978 358.131 122.033 353.547 Q125.112 348.941 130.922 348.941 Z" fill="#000000" fill-rule="nonzero" fill-opacity="1" /><path clip-path="url(#clip580)" d="M121.964 189.765 L140.32 189.765 L140.32 193.7 L126.246 193.7 L126.246 202.172 Q127.265 201.825 128.283 201.663 Q129.302 201.478 130.32 201.478 Q136.107 201.478 139.487 204.649 Q142.867 207.82 142.867 213.237 Q142.867 218.816 139.394 221.918 Q135.922 224.996 129.603 224.996 Q127.427 224.996 125.158 224.626 Q122.913 224.256 120.506 223.515 L120.506 218.816 Q122.589 219.95 124.811 220.506 Q127.033 221.061 129.51 221.061 Q133.515 221.061 135.853 218.955 Q138.191 216.848 138.191 213.237 Q138.191 209.626 135.853 207.52 Q133.515 205.413 129.51 205.413 Q127.635 205.413 125.76 205.83 Q123.908 206.246 121.964 207.126 L121.964 189.765 Z" fill="#000000" fill-rule="nonzero" fill-opacity="1" /><path clip-path="url(#clip580)" d="M91.5706 60.5889 L99.2095 60.5889 L99.2095 34.2233 L90.8993 35.89 L90.8993 31.6308 L99.1632 29.9641 L103.839 29.9641 L103.839 60.5889 L111.478 60.5889 L111.478 64.5241 L91.5706 64.5241 L91.5706 60.5889 Z" fill="#000000" fill-rule="nonzero" fill-opacity="1" /><path clip-path="url(#clip580)" d="M130.922 33.0428 Q127.311 33.0428 125.482 36.6076 Q123.677 40.1492 123.677 47.2788 Q123.677 54.3853 125.482 57.9501 Q127.311 61.4917 130.922 61.4917 Q134.556 61.4917 136.362 57.9501 Q138.191 54.3853 138.191 47.2788 Q138.191 40.1492 136.362 36.6076 Q134.556 33.0428 130.922 33.0428 M130.922 29.3391 Q136.732 29.3391 139.788 33.9456 Q142.867 38.5289 142.867 47.2788 Q142.867 56.0056 139.788 60.6121 Q136.732 65.1954 130.922 65.1954 Q125.112 65.1954 122.033 60.6121 Q118.978 56.0056 118.978 47.2788 Q118.978 38.5289 122.033 33.9456 Q125.112 29.3391 130.922 29.3391 Z" fill="#000000" fill-rule="nonzero" fill-opacity="1" /><polyline clip-path="url(#clip582)" style="stroke:#009af9; stroke-linecap:round; stroke-linejoin:round; stroke-width:4; stroke-opacity:1; fill:none" points="240.392,334.886 242.445,338.995 244.498,340.16 246.55,397.217 248.603,388.466 250.656,370.016 252.709,367.281 254.762,354.307 256.815,336.805 258.868,336.064 260.921,312.652 262.974,311.698 265.027,316.802 267.079,317.723 269.132,298.65 271.185,300.263 273.238,304.935 275.291,305.859 277.344,319.928 279.397,326.841 281.45,372.003 283.503,378.968 285.555,399.292 287.608,392.523 289.661,395.13 291.714,396.421 293.767,412.619 295.82,324.938 297.873,323.181 299.926,319.71 301.979,321.719 304.031,322.613 306.084,475.272 308.137,475.117 310.19,480.085 312.243,472.011 314.296,330.772 316.349,332.496 318.402,332.46 320.455,361.256 322.507,368.977 324.56,365.729 326.613,368.153 328.666,382.613 330.719,401.619 332.772,393.557 334.825,393.268 336.878,405.364 338.931,382.716 340.984,332.84 343.036,350.619 345.089,441.784 347.142,24.4473 349.195,135.583 351.248,143.181 353.301,352.636 355.354,514.539 357.407,509.914 359.46,510.386 361.512,340.177 363.565,352.931 365.618,348.301 367.671,345.896 369.724,337.549 371.777,263.991 373.83,257.119 375.883,259.02 377.936,228.852 379.988,186.5 382.041,140.332 384.094,147.586 386.147,166.993 388.2,141.557 390.253,145.535 392.306,139.911 394.359,140.829 396.412,143.905 398.464,122.772 400.517,147.375 402.57,147.651 404.623,250.35 406.676,207.925 408.729,250.066 410.782,490.78 412.835,504.052 414.888,431.962 416.94,416.659 418.993,302.349 421.046,211.915 423.099,232.911 425.152,257.951 427.205,258.658 429.258,172.927 431.311,319.074 433.364,301.233 435.417,303.305 437.469,291.58 439.522,581.961 441.575,581.149 443.628,599.479 445.681,303.656 447.734,318.078 449.787,325.002 451.84,298.657 453.893,525.889 455.945,654.778 457.998,683.203 460.051,702.914 462.104,732.986 464.157,703.13 466.21,706.044 468.263,683.622 470.316,670.188 472.369,589.081 474.421,589.093 476.474,611.321 478.527,610.278 480.58,390.263 482.633,342.392 484.686,489.031 486.739,235.599 488.792,221.785 490.845,220.648 492.897,211.318 494.95,211.366 497.003,181.828 499.056,101.872 501.109,-58.0509 503.162,-60.0105 505.215,-81.6633 507.268,-81.6058 509.321,-46.2969 511.374,-43.9689 513.426,157.403 515.479,157.429 517.532,225.736 519.585,277.046 521.638,280.357 523.691,295.128 525.744,276.146 527.797,292.646 529.85,339.212 531.902,215.528 533.955,202.022 536.008,229.324 538.061,249.992 540.114,402.694 542.167,630.386 544.22,654.126 546.273,565.757 548.326,791.945 550.378,777.973 552.431,777.998 554.484,698.242 556.537,701.022 558.59,721.051 560.643,811.129 562.696,823.571 564.749,798.134 566.802,770.32 568.854,796.697 570.907,612.677 572.96,619.939 575.013,623.788 577.066,631.453 579.119,641.843 581.172,580.964 583.225,590.783 585.278,577.487 587.331,609.754 589.383,601.688 591.436,603.337 593.489,594.72 595.542,575.734 597.595,578.876 599.648,464.826 601.701,559.029 603.754,632.495 605.807,633.209 607.859,593.415 609.912,576.702 611.965,570.038 614.018,573.311 616.071,589.716 618.124,589.226 620.177,590.41 622.23,579.44 624.283,544.71 626.335,549.951 628.388,551.424 630.441,548.627 632.494,549.039 634.547,548.098 636.6,546.547 638.653,528.614 640.706,530.187 642.759,527.989 644.811,496.254 646.864,496.242 648.917,482.336 650.97,476.582 653.023,421.618 655.076,420.792 657.129,356.6 659.182,342.8 661.235,372.159 663.288,420.852 665.34,421.288 667.393,293.341 669.446,266.711 671.499,263.189 673.552,247.852 675.605,247.982 677.658,251.817 679.711,251.755 681.764,255.18 683.816,279.613 685.869,353.084 687.922,323.746 689.975,316.785 692.028,224.69 694.081,227.925 696.134,229.048 698.187,230.841 700.24,226.824 702.292,288.819 704.345,564.067 706.398,621.385 708.451,528.682 710.504,519.431 712.557,519.867 714.61,518.577 716.663,523.39 718.716,528.793 720.768,556.862 722.821,554.208 724.874,548.584 726.927,398.97 728.98,470.966 731.033,338.32 733.086,325.862 735.139,326.484 737.192,302.858 739.245,335.873 741.297,335.526 743.35,328.379 745.403,335.036 747.456,442.8 749.509,442.779 751.562,448.691 753.615,488.087 755.668,484.767 757.721,487.359 759.773,488.061 761.826,445.65 763.879,456.453 765.932,437.288 767.985,448.26 770.038,420.906 772.091,410.695 774.144,387.81 776.197,361.629 778.249,423.345 780.302,413.652 782.355,385.023 784.408,307.014 786.461,444.677 788.514,448.666 790.567,439.661 792.62,437.643 794.673,436.726 796.725,482.214 798.778,403.193 800.831,359.286 802.884,349.689 804.937,270.636 806.99,270.801 809.043,371.977 811.096,451.581 813.149,651.114 815.202,623.566 817.254,400.152 819.307,395.435 821.36,490.317 823.413,454.355 825.466,471.806 827.519,554.344 829.572,560.978 831.625,433.735 833.678,429.448 835.73,420.645 837.783,416.857 839.836,275.001 841.889,263.89 843.942,294.843 845.995,356.329 848.048,283.635 850.101,322.148 852.154,382.622 854.206,288.205 856.259,283.078 858.312,283.021 860.365,283.123 862.418,288.611 864.471,101.25 866.524,117.306 868.577,515.499 870.63,423.154 872.682,425.481 874.735,424.592 876.788,431.749 878.841,425.247 880.894,408.257 882.947,419.509 885,417.164 887.053,438.633 889.106,444.754 891.159,438.606 893.211,437.926 895.264,431.984 897.317,432.977 899.37,437.278 901.423,438.128 903.476,437.89 905.529,438.597 907.582,411.764 909.635,429.069 911.687,413.815 913.74,417.345 915.793,417.545 917.846,417.27 919.899,343.763 921.952,367.722 924.005,371.671 926.058,371.881 928.111,370.275 930.163,372.063 932.216,374.04 934.269,374.098 936.322,384.35 938.375,384.57 940.428,382.125 942.481,371.336 944.534,383.749 946.587,369.252 948.639,359.741 950.692,351.02 952.745,345.889 954.798,351.23 956.851,351.217 958.904,350.107 960.957,352.192 963.01,382.624 965.063,382.508 967.116,371.926 969.168,371.922 971.221,372.832 973.274,375.104 975.327,374.768 977.38,374.54 979.433,370.036 981.486,342.547 983.539,340.035 985.592,344.578 987.644,344.431 989.697,346.865 991.75,347.017 993.803,352.492 995.856,365.805 997.909,365.966 999.962,366.018 1002.01,363.649 1004.07,361.395 1006.12,361.192 1008.17,362.288 1010.23,397.666 1012.28,390.381 1014.33,389.383 1016.38,419.337 1018.44,432.552 1020.49,435.366 1022.54,436.788 1024.6,430.678 1026.65,424.602 1028.7,424.201 1030.76,439.365 1032.81,459.355 1034.86,386.974 1036.91,370.89 1038.97,389.592 1041.02,389.521 1043.07,382.427 1045.13,375.05 1047.18,375.041 1049.23,371.203 1051.28,387.709 1053.34,393.495 1055.39,346.748 1057.44,344.98 1059.5,331.742 1061.55,331.038 1063.6,341.831 1065.65,347.142 1067.71,442.27 1069.76,428.259 1071.81,405.651 1073.87,332.651 1075.92,333.519 1077.97,334.799 1080.02,334.189 1082.08,306.915 1084.13,308.102 1086.18,358.093 1088.24,355.996 1090.29,443.128 1092.34,595.987 1094.39,483.853 1096.45,482.268 1098.5,486.161 1100.55,441.477 1102.61,405.004 1104.66,403.277 1106.71,359.999 1108.77,328.242 1110.82,331.569 1112.87,336.733 1114.92,421.545 1116.98,385.571 1119.03,415.334 1121.08,426.348 1123.14,426.227 1125.19,441.001 1127.24,442.551 1129.29,377.606 1131.35,431.395 1133.4,550.861 1135.45,513.661 1137.51,515.125 1139.56,506.535 1141.61,472.224 1143.66,473.404 1145.72,446.521 1147.77,403.204 1149.82,537.864 1151.88,563.411 1153.93,598.568 1155.98,600.13 1158.03,388.329 1160.09,407.663 1162.14,376.022 1164.19,369.03 1166.25,366.159 1168.3,368.994 1170.35,412.227 1172.4,406.094 1174.46,405.794 1176.51,395.967 1178.56,394.566 1180.62,391.955 1182.67,352.909 1184.72,394.23 1186.77,403.413 1188.83,413.34 1190.88,397.995 1192.93,410.758 1194.99,409.553 1197.04,427.733 1199.09,396.745 1201.15,392.441 1203.2,443.882 1205.25,412.629 1207.3,263.913 1209.36,417.062 1211.41,407.895 1213.46,404.239 1215.52,371.98 1217.57,357.198 1219.62,361.134 1221.67,357.502 1223.73,357.718 1225.78,332.009 1227.83,327.702 1229.89,282.801 1231.94,263.061 1233.99,209.152 1236.04,190.737 1238.1,343.795 1240.15,403.431 1242.2,357.174 1244.26,321.374 1246.31,312.624 1248.36,321.088 1250.41,317.606 1252.47,317.845 1254.52,327.337 1256.57,323.591 1258.63,328.518 1260.68,331.688 1262.73,340.663 1264.78,345.581 1266.84,339.514 1268.89,350.588 1270.94,318.105 1273,335.062 1275.05,427.617 1277.1,484.865 1279.16,277.32 1281.21,269.608 1283.26,266.729 1285.31,268.334 1287.37,273.967 1289.42,283.68 1291.47,283.727 1293.53,293.249 1295.58,357.994 1297.63,359.054 1299.68,368.882 1301.74,369.749 1303.79,360.533 1305.84,359.816 1307.9,359.083 1309.95,366.135 1312,366.166 1314.05,380.922 1316.11,374.293 1318.16,372.956 1320.21,383.88 1322.27,376.567 1324.32,372.043 1326.37,369.497 1328.42,368.797 1330.48,364.525 1332.53,362.79 1334.58,379.27 1336.64,374.846 1338.69,375.505 1340.74,351.053 1342.79,350.113 1344.85,350.128 1346.9,349.821 1348.95,409.351 1351.01,426.914 1353.06,370.873 1355.11,390.43 1357.16,394.059 1359.22,389.725 1361.27,383.752 1363.32,375.731 1365.38,406.306 1367.43,407.421 1369.48,401.699 1371.54,401.8 1373.59,387.677 1375.64,386.33 1377.69,386.739 1379.75,383.49 1381.8,366.847 1383.85,337.417 1385.91,346.9 1387.96,356.09 1390.01,363.059 1392.06,365.044 1394.12,371.134 1396.17,371.12 1398.22,373.656 1400.28,310.838 1402.33,335.435 1404.38,335.426 1406.43,335.257 1408.49,325.337 1410.54,325.875 1412.59,325.594 1414.65,317.638 1416.7,317.621 1418.75,317.413 1420.8,330.949 1422.86,329.299 1424.91,327.824 1426.96,337.506 1429.02,337.223 1431.07,326.409 1433.12,317.102 1435.17,318.195 1437.23,353.245 1439.28,353.053 1441.33,361.214 1443.39,333.686 1445.44,363.008 1447.49,348.972 1449.55,367.215 1451.6,367.166 1453.65,368.063 1455.7,368.586 1457.76,393.914 1459.81,398.834 1461.86,398.171 1463.92,398.33 1465.97,420.9 1468.02,289.057 1470.07,289.837 1472.13,290.078 1474.18,290.546 1476.23,290.33 1478.29,373.401 1480.34,399.997 1482.39,389.413 1484.44,382.376 1486.5,382.421 1488.55,383.166 1490.6,386.826 1492.66,380.078 1494.71,381.487 1496.76,381.352 1498.81,381.309 1500.87,389.32 1502.92,388.411 1504.97,368.468 1507.03,367.475 1509.08,380.75 1511.13,381.249 1513.18,381.388 1515.24,384.206 1517.29,384.209 1519.34,386.43 1521.4,407.577 1523.45,410.299 1525.5,429.63 1527.55,417.742 1529.61,374.671 1531.66,368.158 1533.71,372.386 1535.77,372.481 1537.82,372.683 1539.87,375.122 1541.93,445.127 1543.98,445.113 1546.03,439.289 1548.08,439.018 1550.14,439.912 1552.19,440.669 1554.24,450.341 1556.3,449.492 1558.35,449.58 1560.4,441.168 1562.45,441.314 1564.51,428.024 1566.56,284.332 1568.61,294.334 1570.67,309.853 1572.72,308.997 1574.77,309.896 1576.82,321.449 1578.88,327.265 1580.93,294.68 1582.98,289.365 1585.04,291.067 1587.09,290.872 1589.14,290.239 1591.19,288.387 1593.25,302.69 1595.3,300.947 1597.35,322.774 1599.41,335.035 1601.46,334.13 1603.51,333.913 1605.56,351.48 1607.62,356.993 1609.67,354.429 1611.72,361.233 1613.78,375.724 1615.83,374.109 1617.88,381.51 1619.94,462.519 1621.99,467.815 1624.04,461.14 1626.09,445.895 1628.15,445.928 1630.2,450.731 1632.25,449.875 1634.31,447.251 1636.36,447.605 1638.41,409.125 1640.46,417.753 1642.52,419.992 1644.57,410.976 1646.62,415.713 1648.68,416.163 1650.73,413.375 1652.78,413.314 1654.83,413.208 1656.89,347.735 1658.94,331.113 1660.99,336.573 1663.05,332.879 1665.1,331.529 1667.15,331.814 1669.2,342.177 1671.26,342.13 1673.31,344.695 1675.36,344.312 1677.42,343.99 1679.47,350.569 1681.52,395.118 1683.57,389.06 1685.63,397.373 1687.68,348.514 1689.73,348.73 1691.79,396.75 1693.84,432.366 1695.89,432.768 1697.94,416.046 1700,416.405 1702.05,414.95 1704.1,422.43 1706.16,423.574 1708.21,421.225 1710.26,421.979 1712.32,411.981 1714.37,411.692 1716.42,414.004 1718.47,421.531 1720.53,419.485 1722.58,419.517 1724.63,407.961 1726.69,409.538 1728.74,412.059 1730.79,412.006 1732.84,412.678 1734.9,398.376 1736.95,392.528 1739,387.163 1741.06,397.439 1743.11,394.096 1745.16,394.199 1747.21,381.816 1749.27,381.69 1751.32,381.508 1753.37,381.245 1755.43,380.144 1757.48,383.668 1759.53,382.937 1761.58,384.662 1763.64,388.505 1765.69,388.881 1767.74,390.485 1769.8,386.45 1771.85,379.57 1773.9,378.469 1775.95,368.707 1778.01,370.574 1780.06,361.668 1782.11,356.145 1784.17,361.833 1786.22,360.82 1788.27,366.906 1790.33,366.899 1792.38,377.23 1794.43,376.816 1796.48,374.699 1798.54,374.734 1800.59,375.591 1802.64,377.672 1804.7,365.722 1806.75,366.599 1808.8,366.958 1810.85,370.531 1812.91,370.453 1814.96,374.253 1817.01,373.689 1819.07,369.1 1821.12,370.654 1823.17,372.991 1825.22,373.878 1827.28,373.061 1829.33,360.122 1831.38,359.843 1833.44,375.695 1835.49,375.655 1837.54,374.683 1839.59,373.668 1841.65,373.53 1843.7,372.999 1845.75,372.83 1847.81,372.435 1849.86,373.136 1851.91,369.185 1853.96,375.618 1856.02,377.689 1858.07,375.713 1860.12,371.896 1862.18,375.638 1864.23,381.821 1866.28,390.629 1868.34,391.186 1870.39,390.66 1872.44,386.383 1874.49,386.39 1876.55,377.56 1878.6,383.34 1880.65,382.819 1882.71,424.031 1884.76,408.948 1886.81,411.01 1888.86,409.627 1890.92,370.631 1892.97,393.642 1895.02,393.509 1897.08,399.793 1899.13,402.188 1901.18,399.051 1903.23,398.382 1905.29,408.852 1907.34,408.188 1909.39,404.074 1911.45,399.308 1913.5,401.109 1915.55,383.418 1917.6,385.742 1919.66,376.066 1921.71,391.228 1923.76,376.307 1925.82,364.639 1927.87,363.7 1929.92,325.245 1931.97,325.578 1934.03,338.205 1936.08,338.122 1938.13,345.432 1940.19,408.456 1942.24,390.743 1944.29,325.481 1946.34,323.634 1948.4,279.927 1950.45,251.655 1952.5,242.653 1954.56,249.523 1956.61,328.553 1958.66,321.872 1960.72,283.194 1962.77,259.045 1964.82,281.611 1966.87,279.392 1968.93,296.819 1970.98,296.527 1973.03,297.688 1975.09,303.568 1977.14,298.588 1979.19,277.426 1981.24,277.583 1983.3,278.161 1985.35,271.434 1987.4,198.735 1989.46,196.712 1991.51,169.231 1993.56,185.339 1995.61,195.886 1997.67,186.881 1999.72,184.975 2001.77,590.605 2003.83,601.365 2005.88,606.981 2007.93,636.958 2009.98,676.848 2012.04,676.766 2014.09,673.536 2016.14,687.084 2018.2,656.759 2020.25,683.333 2022.3,659.866 2024.35,653.975 2026.41,641.049 2028.46,656.935 2030.51,535.429 2032.57,535.171 2034.62,534.937 2036.67,438.849 2038.73,431.9 2040.78,421.152 2042.83,420.638 2044.88,407.005 2046.94,398.56 2048.99,390.668 2051.04,385.465 2053.1,385.259 2055.15,386.54 2057.2,384.839 2059.25,415.142 2061.31,415.331 2063.36,412.969 2065.41,372.533 2067.47,370.45 2069.52,362.081 2071.57,362.276 2073.62,362.27 2075.68,385.5 2077.73,400.531 2079.78,369.387 2081.84,395.83 2083.89,406.256 2085.94,409.483 2087.99,423.736 2090.05,430.625 2092.1,435.559 2094.15,443.76 2096.21,393.742 2098.26,394.636 2100.31,394.692 2102.36,390.895 2104.42,393.499 2106.47,398.669 2108.52,389.676 2110.58,373.355 2112.63,380.455 2114.68,377.137 2116.73,377.212 2118.79,375.462 2120.84,378.592 2122.89,380.976 2124.95,381.722 2127,381.795 2129.05,381.853 2131.11,383.915 2133.16,383.924 2135.21,381.294 2137.26,381.139 2139.32,381.151 2141.37,379.79 2143.42,385.747 2145.48,383.149 2147.53,377.944 2149.58,375.675 2151.63,375.352 2153.69,375.334 2155.74,375.248 2157.79,375.687 2159.85,375.912 2161.9,375.057 2163.95,382.09 2166,372.603 2168.06,371.423 2170.11,365.748 2172.16,366.065 2174.22,356.62 2176.27,358.151 2178.32,358.168 2180.37,357.886 2182.43,358.598 2184.48,350.956 2186.53,369.829 2188.59,368.809 2190.64,366.682 2192.69,366.85 2194.74,362.328 2196.8,364.964 2198.85,357.825 2200.9,332.859 2202.96,333.514 2205.01,340.851 2207.06,332.892 2209.12,332.719 2211.17,333.04 2213.22,333.476 2215.27,334.088 2217.33,333.972 2219.38,330.819 2221.43,327.898 2223.49,326.228 2225.54,327.703 2227.59,397.816 2229.64,395.439 2231.7,364.952 2233.75,364.559 2235.8,371.593 2237.86,369.114 2239.91,369.681 2241.96,365.681 2244.01,372.121 2246.07,372.184 2248.12,371.661 2250.17,361.958 2252.23,360.251 2254.28,361.17 2256.33,359.935 2258.38,360.086 2260.44,360.084 2262.49,366.815 2264.54,358.304 2266.6,358.916 2268.65,358.706 2270.7,352.77 2272.75,360.133 2274.81,376.911 2276.86,380.528 2278.91,379.291 2280.97,379.286 2283.02,379.729 2285.07,378.968 2287.12,369.32 2289.18,369.701 2291.23,367.459 "/>
<path clip-path="url(#clip580)" d="M1983.6 172.231 L2280.29 172.231 L2280.29 68.5509 L1983.6 68.5509  Z" fill="#ffffff" fill-rule="evenodd" fill-opacity="1"/>
<polyline clip-path="url(#clip580)" style="stroke:#000000; stroke-linecap:round; stroke-linejoin:round; stroke-width:4; stroke-opacity:1; fill:none" points="1983.6,172.231 2280.29,172.231 2280.29,68.5509 1983.6,68.5509 1983.6,172.231 "/>
<polyline clip-path="url(#clip580)" style="stroke:#009af9; stroke-linecap:round; stroke-linejoin:round; stroke-width:4; stroke-opacity:1; fill:none" points="2007.75,120.391 2152.68,120.391 "/>
<path clip-path="url(#clip580)" d="M2176.83 103.111 L2181.51 103.111 L2181.51 133.736 L2198.34 133.736 L2198.34 137.671 L2176.83 137.671 L2176.83 103.111 Z" fill="#000000" fill-rule="nonzero" fill-opacity="1" /><path clip-path="url(#clip580)" d="M2223.96 104.245 L2223.96 108.805 Q2221.3 107.532 2218.94 106.907 Q2216.58 106.282 2214.38 106.282 Q2210.56 106.282 2208.48 107.764 Q2206.42 109.245 2206.42 111.977 Q2206.42 114.268 2207.78 115.449 Q2209.17 116.606 2213.01 117.324 L2215.84 117.902 Q2221.07 118.898 2223.55 121.421 Q2226.05 123.921 2226.05 128.134 Q2226.05 133.157 2222.67 135.75 Q2219.31 138.342 2212.81 138.342 Q2210.35 138.342 2207.57 137.787 Q2204.82 137.231 2201.86 136.143 L2201.86 131.328 Q2204.7 132.926 2207.44 133.736 Q2210.17 134.546 2212.81 134.546 Q2216.81 134.546 2218.99 132.972 Q2221.16 131.398 2221.16 128.481 Q2221.16 125.935 2219.59 124.5 Q2218.04 123.064 2214.47 122.347 L2211.62 121.791 Q2206.39 120.75 2204.06 118.527 Q2201.72 116.305 2201.72 112.347 Q2201.72 107.764 2204.94 105.125 Q2208.18 102.486 2213.85 102.486 Q2216.28 102.486 2218.8 102.926 Q2221.32 103.366 2223.96 104.245 Z" fill="#000000" fill-rule="nonzero" fill-opacity="1" /><path clip-path="url(#clip580)" d="M2254.06 104.245 L2254.06 108.805 Q2251.39 107.532 2249.03 106.907 Q2246.67 106.282 2244.47 106.282 Q2240.65 106.282 2238.57 107.764 Q2236.51 109.245 2236.51 111.977 Q2236.51 114.268 2237.87 115.449 Q2239.26 116.606 2243.11 117.324 L2245.93 117.902 Q2251.16 118.898 2253.64 121.421 Q2256.14 123.921 2256.14 128.134 Q2256.14 133.157 2252.76 135.75 Q2249.4 138.342 2242.9 138.342 Q2240.44 138.342 2237.67 137.787 Q2234.91 137.231 2231.95 136.143 L2231.95 131.328 Q2234.8 132.926 2237.53 133.736 Q2240.26 134.546 2242.9 134.546 Q2246.9 134.546 2249.08 132.972 Q2251.25 131.398 2251.25 128.481 Q2251.25 125.935 2249.68 124.5 Q2248.13 123.064 2244.56 122.347 L2241.72 121.791 Q2236.49 120.75 2234.15 118.527 Q2231.81 116.305 2231.81 112.347 Q2231.81 107.764 2235.03 105.125 Q2238.27 102.486 2243.94 102.486 Q2246.37 102.486 2248.89 102.926 Q2251.42 103.366 2254.06 104.245 Z" fill="#000000" fill-rule="nonzero" fill-opacity="1" /><path clip-path="url(#clip580)" d="M178.867 1486.45 L2352.76 1486.45 L2352.76 847.244 L178.867 847.244  Z" fill="#ffffff" fill-rule="evenodd" fill-opacity="1"/>
<defs>
  <clipPath id="clip583">
    <rect x="178" y="847" width="2175" height="640"/>
  </clipPath>
</defs>
<polyline clip-path="url(#clip583)" style="stroke:#000000; stroke-linecap:round; stroke-linejoin:round; stroke-width:2; stroke-opacity:0.1; fill:none" points="238.339,1486.45 238.339,847.244 "/>
<polyline clip-path="url(#clip583)" style="stroke:#000000; stroke-linecap:round; stroke-linejoin:round; stroke-width:2; stroke-opacity:0.1; fill:none" points="751.562,1486.45 751.562,847.244 "/>
<polyline clip-path="url(#clip583)" style="stroke:#000000; stroke-linecap:round; stroke-linejoin:round; stroke-width:2; stroke-opacity:0.1; fill:none" points="1264.78,1486.45 1264.78,847.244 "/>
<polyline clip-path="url(#clip583)" style="stroke:#000000; stroke-linecap:round; stroke-linejoin:round; stroke-width:2; stroke-opacity:0.1; fill:none" points="1778.01,1486.45 1778.01,847.244 "/>
<polyline clip-path="url(#clip583)" style="stroke:#000000; stroke-linecap:round; stroke-linejoin:round; stroke-width:2; stroke-opacity:0.1; fill:none" points="2291.23,1486.45 2291.23,847.244 "/>
<polyline clip-path="url(#clip583)" style="stroke:#000000; stroke-linecap:round; stroke-linejoin:round; stroke-width:2; stroke-opacity:0.1; fill:none" points="178.867,1486.45 2352.76,1486.45 "/>
<polyline clip-path="url(#clip583)" style="stroke:#000000; stroke-linecap:round; stroke-linejoin:round; stroke-width:2; stroke-opacity:0.1; fill:none" points="178.867,1326.65 2352.76,1326.65 "/>
<polyline clip-path="url(#clip583)" style="stroke:#000000; stroke-linecap:round; stroke-linejoin:round; stroke-width:2; stroke-opacity:0.1; fill:none" points="178.867,1166.85 2352.76,1166.85 "/>
<polyline clip-path="url(#clip583)" style="stroke:#000000; stroke-linecap:round; stroke-linejoin:round; stroke-width:2; stroke-opacity:0.1; fill:none" points="178.867,1007.05 2352.76,1007.05 "/>
<polyline clip-path="url(#clip583)" style="stroke:#000000; stroke-linecap:round; stroke-linejoin:round; stroke-width:2; stroke-opacity:0.1; fill:none" points="178.867,847.244 2352.76,847.244 "/>
<polyline clip-path="url(#clip580)" style="stroke:#000000; stroke-linecap:round; stroke-linejoin:round; stroke-width:4; stroke-opacity:1; fill:none" points="178.867,1486.45 2352.76,1486.45 "/>
<polyline clip-path="url(#clip580)" style="stroke:#000000; stroke-linecap:round; stroke-linejoin:round; stroke-width:4; stroke-opacity:1; fill:none" points="238.339,1486.45 238.339,1467.55 "/>
<polyline clip-path="url(#clip580)" style="stroke:#000000; stroke-linecap:round; stroke-linejoin:round; stroke-width:4; stroke-opacity:1; fill:none" points="751.562,1486.45 751.562,1467.55 "/>
<polyline clip-path="url(#clip580)" style="stroke:#000000; stroke-linecap:round; stroke-linejoin:round; stroke-width:4; stroke-opacity:1; fill:none" points="1264.78,1486.45 1264.78,1467.55 "/>
<polyline clip-path="url(#clip580)" style="stroke:#000000; stroke-linecap:round; stroke-linejoin:round; stroke-width:4; stroke-opacity:1; fill:none" points="1778.01,1486.45 1778.01,1467.55 "/>
<polyline clip-path="url(#clip580)" style="stroke:#000000; stroke-linecap:round; stroke-linejoin:round; stroke-width:4; stroke-opacity:1; fill:none" points="2291.23,1486.45 2291.23,1467.55 "/>
<path clip-path="url(#clip580)" d="M238.339 1517.37 Q234.728 1517.37 232.899 1520.93 Q231.094 1524.47 231.094 1531.6 Q231.094 1538.71 232.899 1542.27 Q234.728 1545.82 238.339 1545.82 Q241.973 1545.82 243.779 1542.27 Q245.607 1538.71 245.607 1531.6 Q245.607 1524.47 243.779 1520.93 Q241.973 1517.37 238.339 1517.37 M238.339 1513.66 Q244.149 1513.66 247.205 1518.27 Q250.283 1522.85 250.283 1531.6 Q250.283 1540.33 247.205 1544.94 Q244.149 1549.52 238.339 1549.52 Q232.529 1549.52 229.45 1544.94 Q226.395 1540.33 226.395 1531.6 Q226.395 1522.85 229.45 1518.27 Q232.529 1513.66 238.339 1513.66 Z" fill="#000000" fill-rule="nonzero" fill-opacity="1" /><path clip-path="url(#clip580)" d="M715.254 1544.91 L731.574 1544.91 L731.574 1548.85 L709.629 1548.85 L709.629 1544.91 Q712.291 1542.16 716.875 1537.53 Q721.481 1532.88 722.662 1531.53 Q724.907 1529.01 725.787 1527.27 Q726.689 1525.51 726.689 1523.82 Q726.689 1521.07 724.745 1519.33 Q722.824 1517.6 719.722 1517.6 Q717.523 1517.6 715.069 1518.36 Q712.638 1519.13 709.861 1520.68 L709.861 1515.95 Q712.685 1514.82 715.138 1514.24 Q717.592 1513.66 719.629 1513.66 Q725 1513.66 728.194 1516.35 Q731.388 1519.03 731.388 1523.52 Q731.388 1525.65 730.578 1527.57 Q729.791 1529.47 727.685 1532.07 Q727.106 1532.74 724.004 1535.95 Q720.902 1539.15 715.254 1544.91 Z" fill="#000000" fill-rule="nonzero" fill-opacity="1" /><path clip-path="url(#clip580)" d="M741.435 1514.29 L759.791 1514.29 L759.791 1518.22 L745.717 1518.22 L745.717 1526.7 Q746.736 1526.35 747.754 1526.19 Q748.773 1526 749.791 1526 Q755.578 1526 758.958 1529.17 Q762.337 1532.34 762.337 1537.76 Q762.337 1543.34 758.865 1546.44 Q755.393 1549.52 749.073 1549.52 Q746.898 1549.52 744.629 1549.15 Q742.384 1548.78 739.976 1548.04 L739.976 1543.34 Q742.06 1544.47 744.282 1545.03 Q746.504 1545.58 748.981 1545.58 Q752.985 1545.58 755.323 1543.48 Q757.661 1541.37 757.661 1537.76 Q757.661 1534.15 755.323 1532.04 Q752.985 1529.94 748.981 1529.94 Q747.106 1529.94 745.231 1530.35 Q743.379 1530.77 741.435 1531.65 L741.435 1514.29 Z" fill="#000000" fill-rule="nonzero" fill-opacity="1" /><path clip-path="url(#clip580)" d="M781.55 1517.37 Q777.939 1517.37 776.11 1520.93 Q774.305 1524.47 774.305 1531.6 Q774.305 1538.71 776.11 1542.27 Q777.939 1545.82 781.55 1545.82 Q785.184 1545.82 786.99 1542.27 Q788.819 1538.71 788.819 1531.6 Q788.819 1524.47 786.99 1520.93 Q785.184 1517.37 781.55 1517.37 M781.55 1513.66 Q787.36 1513.66 790.416 1518.27 Q793.495 1522.85 793.495 1531.6 Q793.495 1540.33 790.416 1544.94 Q787.36 1549.52 781.55 1549.52 Q775.74 1549.52 772.661 1544.94 Q769.606 1540.33 769.606 1531.6 Q769.606 1522.85 772.661 1518.27 Q775.74 1513.66 781.55 1513.66 Z" fill="#000000" fill-rule="nonzero" fill-opacity="1" /><path clip-path="url(#clip580)" d="M1224.4 1514.29 L1242.76 1514.29 L1242.76 1518.22 L1228.69 1518.22 L1228.69 1526.7 Q1229.7 1526.35 1230.72 1526.19 Q1231.74 1526 1232.76 1526 Q1238.55 1526 1241.93 1529.17 Q1245.31 1532.34 1245.31 1537.76 Q1245.31 1543.34 1241.83 1546.44 Q1238.36 1549.52 1232.04 1549.52 Q1229.87 1549.52 1227.6 1549.15 Q1225.35 1548.78 1222.94 1548.04 L1222.94 1543.34 Q1225.03 1544.47 1227.25 1545.03 Q1229.47 1545.58 1231.95 1545.58 Q1235.95 1545.58 1238.29 1543.48 Q1240.63 1541.37 1240.63 1537.76 Q1240.63 1534.15 1238.29 1532.04 Q1235.95 1529.94 1231.95 1529.94 Q1230.07 1529.94 1228.2 1530.35 Q1226.35 1530.77 1224.4 1531.65 L1224.4 1514.29 Z" fill="#000000" fill-rule="nonzero" fill-opacity="1" /><path clip-path="url(#clip580)" d="M1264.52 1517.37 Q1260.91 1517.37 1259.08 1520.93 Q1257.27 1524.47 1257.27 1531.6 Q1257.27 1538.71 1259.08 1542.27 Q1260.91 1545.82 1264.52 1545.82 Q1268.15 1545.82 1269.96 1542.27 Q1271.79 1538.71 1271.79 1531.6 Q1271.79 1524.47 1269.96 1520.93 Q1268.15 1517.37 1264.52 1517.37 M1264.52 1513.66 Q1270.33 1513.66 1273.38 1518.27 Q1276.46 1522.85 1276.46 1531.6 Q1276.46 1540.33 1273.38 1544.94 Q1270.33 1549.52 1264.52 1549.52 Q1258.71 1549.52 1255.63 1544.94 Q1252.57 1540.33 1252.57 1531.6 Q1252.57 1522.85 1255.63 1518.27 Q1258.71 1513.66 1264.52 1513.66 Z" fill="#000000" fill-rule="nonzero" fill-opacity="1" /><path clip-path="url(#clip580)" d="M1294.68 1517.37 Q1291.07 1517.37 1289.24 1520.93 Q1287.44 1524.47 1287.44 1531.6 Q1287.44 1538.71 1289.24 1542.27 Q1291.07 1545.82 1294.68 1545.82 Q1298.31 1545.82 1300.12 1542.27 Q1301.95 1538.71 1301.95 1531.6 Q1301.95 1524.47 1300.12 1520.93 Q1298.31 1517.37 1294.68 1517.37 M1294.68 1513.66 Q1300.49 1513.66 1303.55 1518.27 Q1306.62 1522.85 1306.62 1531.6 Q1306.62 1540.33 1303.55 1544.94 Q1300.49 1549.52 1294.68 1549.52 Q1288.87 1549.52 1285.79 1544.94 Q1282.74 1540.33 1282.74 1531.6 Q1282.74 1522.85 1285.79 1518.27 Q1288.87 1513.66 1294.68 1513.66 Z" fill="#000000" fill-rule="nonzero" fill-opacity="1" /><path clip-path="url(#clip580)" d="M1736.28 1514.29 L1758.51 1514.29 L1758.51 1516.28 L1745.96 1548.85 L1741.08 1548.85 L1752.88 1518.22 L1736.28 1518.22 L1736.28 1514.29 Z" fill="#000000" fill-rule="nonzero" fill-opacity="1" /><path clip-path="url(#clip580)" d="M1767.67 1514.29 L1786.03 1514.29 L1786.03 1518.22 L1771.95 1518.22 L1771.95 1526.7 Q1772.97 1526.35 1773.99 1526.19 Q1775.01 1526 1776.03 1526 Q1781.82 1526 1785.2 1529.17 Q1788.57 1532.34 1788.57 1537.76 Q1788.57 1543.34 1785.1 1546.44 Q1781.63 1549.52 1775.31 1549.52 Q1773.14 1549.52 1770.87 1549.15 Q1768.62 1548.78 1766.21 1548.04 L1766.21 1543.34 Q1768.3 1544.47 1770.52 1545.03 Q1772.74 1545.58 1775.22 1545.58 Q1779.22 1545.58 1781.56 1543.48 Q1783.9 1541.37 1783.9 1537.76 Q1783.9 1534.15 1781.56 1532.04 Q1779.22 1529.94 1775.22 1529.94 Q1773.34 1529.94 1771.47 1530.35 Q1769.62 1530.77 1767.67 1531.65 L1767.67 1514.29 Z" fill="#000000" fill-rule="nonzero" fill-opacity="1" /><path clip-path="url(#clip580)" d="M1807.79 1517.37 Q1804.18 1517.37 1802.35 1520.93 Q1800.54 1524.47 1800.54 1531.6 Q1800.54 1538.71 1802.35 1542.27 Q1804.18 1545.82 1807.79 1545.82 Q1811.42 1545.82 1813.23 1542.27 Q1815.06 1538.71 1815.06 1531.6 Q1815.06 1524.47 1813.23 1520.93 Q1811.42 1517.37 1807.79 1517.37 M1807.79 1513.66 Q1813.6 1513.66 1816.65 1518.27 Q1819.73 1522.85 1819.73 1531.6 Q1819.73 1540.33 1816.65 1544.94 Q1813.6 1549.52 1807.79 1549.52 Q1801.98 1549.52 1798.9 1544.94 Q1795.84 1540.33 1795.84 1531.6 Q1795.84 1522.85 1798.9 1518.27 Q1801.98 1513.66 1807.79 1513.66 Z" fill="#000000" fill-rule="nonzero" fill-opacity="1" /><path clip-path="url(#clip580)" d="M2235.76 1544.91 L2243.4 1544.91 L2243.4 1518.55 L2235.09 1520.21 L2235.09 1515.95 L2243.35 1514.29 L2248.02 1514.29 L2248.02 1544.91 L2255.66 1544.91 L2255.66 1548.85 L2235.76 1548.85 L2235.76 1544.91 Z" fill="#000000" fill-rule="nonzero" fill-opacity="1" /><path clip-path="url(#clip580)" d="M2275.11 1517.37 Q2271.5 1517.37 2269.67 1520.93 Q2267.86 1524.47 2267.86 1531.6 Q2267.86 1538.71 2269.67 1542.27 Q2271.5 1545.82 2275.11 1545.82 Q2278.74 1545.82 2280.55 1542.27 Q2282.38 1538.71 2282.38 1531.6 Q2282.38 1524.47 2280.55 1520.93 Q2278.74 1517.37 2275.11 1517.37 M2275.11 1513.66 Q2280.92 1513.66 2283.97 1518.27 Q2287.05 1522.85 2287.05 1531.6 Q2287.05 1540.33 2283.97 1544.94 Q2280.92 1549.52 2275.11 1549.52 Q2269.3 1549.52 2266.22 1544.94 Q2263.16 1540.33 2263.16 1531.6 Q2263.16 1522.85 2266.22 1518.27 Q2269.3 1513.66 2275.11 1513.66 Z" fill="#000000" fill-rule="nonzero" fill-opacity="1" /><path clip-path="url(#clip580)" d="M2305.27 1517.37 Q2301.66 1517.37 2299.83 1520.93 Q2298.02 1524.47 2298.02 1531.6 Q2298.02 1538.71 2299.83 1542.27 Q2301.66 1545.82 2305.27 1545.82 Q2308.9 1545.82 2310.71 1542.27 Q2312.54 1538.71 2312.54 1531.6 Q2312.54 1524.47 2310.71 1520.93 Q2308.9 1517.37 2305.27 1517.37 M2305.27 1513.66 Q2311.08 1513.66 2314.14 1518.27 Q2317.21 1522.85 2317.21 1531.6 Q2317.21 1540.33 2314.14 1544.94 Q2311.08 1549.52 2305.27 1549.52 Q2299.46 1549.52 2296.38 1544.94 Q2293.33 1540.33 2293.33 1531.6 Q2293.33 1522.85 2296.38 1518.27 Q2299.46 1513.66 2305.27 1513.66 Z" fill="#000000" fill-rule="nonzero" fill-opacity="1" /><path clip-path="url(#clip580)" d="M2335.43 1517.37 Q2331.82 1517.37 2329.99 1520.93 Q2328.19 1524.47 2328.19 1531.6 Q2328.19 1538.71 2329.99 1542.27 Q2331.82 1545.82 2335.43 1545.82 Q2339.07 1545.82 2340.87 1542.27 Q2342.7 1538.71 2342.7 1531.6 Q2342.7 1524.47 2340.87 1520.93 Q2339.07 1517.37 2335.43 1517.37 M2335.43 1513.66 Q2341.24 1513.66 2344.3 1518.27 Q2347.38 1522.85 2347.38 1531.6 Q2347.38 1540.33 2344.3 1544.94 Q2341.24 1549.52 2335.43 1549.52 Q2329.62 1549.52 2326.54 1544.94 Q2323.49 1540.33 2323.49 1531.6 Q2323.49 1522.85 2326.54 1518.27 Q2329.62 1513.66 2335.43 1513.66 Z" fill="#000000" fill-rule="nonzero" fill-opacity="1" /><polyline clip-path="url(#clip580)" style="stroke:#000000; stroke-linecap:round; stroke-linejoin:round; stroke-width:4; stroke-opacity:1; fill:none" points="178.867,1486.45 178.867,847.244 "/>
<polyline clip-path="url(#clip580)" style="stroke:#000000; stroke-linecap:round; stroke-linejoin:round; stroke-width:4; stroke-opacity:1; fill:none" points="178.867,1486.45 197.764,1486.45 "/>
<polyline clip-path="url(#clip580)" style="stroke:#000000; stroke-linecap:round; stroke-linejoin:round; stroke-width:4; stroke-opacity:1; fill:none" points="178.867,1326.65 197.764,1326.65 "/>
<polyline clip-path="url(#clip580)" style="stroke:#000000; stroke-linecap:round; stroke-linejoin:round; stroke-width:4; stroke-opacity:1; fill:none" points="178.867,1166.85 197.764,1166.85 "/>
<polyline clip-path="url(#clip580)" style="stroke:#000000; stroke-linecap:round; stroke-linejoin:round; stroke-width:4; stroke-opacity:1; fill:none" points="178.867,1007.05 197.764,1007.05 "/>
<polyline clip-path="url(#clip580)" style="stroke:#000000; stroke-linecap:round; stroke-linejoin:round; stroke-width:4; stroke-opacity:1; fill:none" points="178.867,847.244 197.764,847.244 "/>
<path clip-path="url(#clip580)" d="M50.9921 1486.9 L80.6679 1486.9 L80.6679 1490.83 L50.9921 1490.83 L50.9921 1486.9 Z" fill="#000000" fill-rule="nonzero" fill-opacity="1" /><path clip-path="url(#clip580)" d="M91.5706 1499.79 L99.2095 1499.79 L99.2095 1473.43 L90.8993 1475.09 L90.8993 1470.83 L99.1632 1469.17 L103.839 1469.17 L103.839 1499.79 L111.478 1499.79 L111.478 1503.73 L91.5706 1503.73 L91.5706 1499.79 Z" fill="#000000" fill-rule="nonzero" fill-opacity="1" /><path clip-path="url(#clip580)" d="M130.922 1472.25 Q127.311 1472.25 125.482 1475.81 Q123.677 1479.35 123.677 1486.48 Q123.677 1493.59 125.482 1497.15 Q127.311 1500.7 130.922 1500.7 Q134.556 1500.7 136.362 1497.15 Q138.191 1493.59 138.191 1486.48 Q138.191 1479.35 136.362 1475.81 Q134.556 1472.25 130.922 1472.25 M130.922 1468.54 Q136.732 1468.54 139.788 1473.15 Q142.867 1477.73 142.867 1486.48 Q142.867 1495.21 139.788 1499.82 Q136.732 1504.4 130.922 1504.4 Q125.112 1504.4 122.033 1499.82 Q118.978 1495.21 118.978 1486.48 Q118.978 1477.73 122.033 1473.15 Q125.112 1468.54 130.922 1468.54 Z" fill="#000000" fill-rule="nonzero" fill-opacity="1" /><path clip-path="url(#clip580)" d="M82.1494 1327.1 L111.825 1327.1 L111.825 1331.03 L82.1494 1331.03 L82.1494 1327.1 Z" fill="#000000" fill-rule="nonzero" fill-opacity="1" /><path clip-path="url(#clip580)" d="M121.964 1309.37 L140.32 1309.37 L140.32 1313.3 L126.246 1313.3 L126.246 1321.77 Q127.265 1321.43 128.283 1321.27 Q129.302 1321.08 130.32 1321.08 Q136.107 1321.08 139.487 1324.25 Q142.867 1327.42 142.867 1332.84 Q142.867 1338.42 139.394 1341.52 Q135.922 1344.6 129.603 1344.6 Q127.427 1344.6 125.158 1344.23 Q122.913 1343.86 120.506 1343.12 L120.506 1338.42 Q122.589 1339.55 124.811 1340.11 Q127.033 1340.66 129.51 1340.66 Q133.515 1340.66 135.853 1338.56 Q138.191 1336.45 138.191 1332.84 Q138.191 1329.23 135.853 1327.12 Q133.515 1325.01 129.51 1325.01 Q127.635 1325.01 125.76 1325.43 Q123.908 1325.85 121.964 1326.73 L121.964 1309.37 Z" fill="#000000" fill-rule="nonzero" fill-opacity="1" /><path clip-path="url(#clip580)" d="M130.922 1152.64 Q127.311 1152.64 125.482 1156.21 Q123.677 1159.75 123.677 1166.88 Q123.677 1173.99 125.482 1177.55 Q127.311 1181.09 130.922 1181.09 Q134.556 1181.09 136.362 1177.55 Q138.191 1173.99 138.191 1166.88 Q138.191 1159.75 136.362 1156.21 Q134.556 1152.64 130.922 1152.64 M130.922 1148.94 Q136.732 1148.94 139.788 1153.55 Q142.867 1158.13 142.867 1166.88 Q142.867 1175.61 139.788 1180.21 Q136.732 1184.8 130.922 1184.8 Q125.112 1184.8 122.033 1180.21 Q118.978 1175.61 118.978 1166.88 Q118.978 1158.13 122.033 1153.55 Q125.112 1148.94 130.922 1148.94 Z" fill="#000000" fill-rule="nonzero" fill-opacity="1" /><path clip-path="url(#clip580)" d="M121.964 989.765 L140.32 989.765 L140.32 993.7 L126.246 993.7 L126.246 1002.17 Q127.265 1001.83 128.283 1001.66 Q129.302 1001.48 130.32 1001.48 Q136.107 1001.48 139.487 1004.65 Q142.867 1007.82 142.867 1013.24 Q142.867 1018.82 139.394 1021.92 Q135.922 1025 129.603 1025 Q127.427 1025 125.158 1024.63 Q122.913 1024.26 120.506 1023.51 L120.506 1018.82 Q122.589 1019.95 124.811 1020.51 Q127.033 1021.06 129.51 1021.06 Q133.515 1021.06 135.853 1018.95 Q138.191 1016.85 138.191 1013.24 Q138.191 1009.63 135.853 1007.52 Q133.515 1005.41 129.51 1005.41 Q127.635 1005.41 125.76 1005.83 Q123.908 1006.25 121.964 1007.13 L121.964 989.765 Z" fill="#000000" fill-rule="nonzero" fill-opacity="1" /><path clip-path="url(#clip580)" d="M91.5706 860.589 L99.2095 860.589 L99.2095 834.223 L90.8993 835.89 L90.8993 831.631 L99.1632 829.964 L103.839 829.964 L103.839 860.589 L111.478 860.589 L111.478 864.524 L91.5706 864.524 L91.5706 860.589 Z" fill="#000000" fill-rule="nonzero" fill-opacity="1" /><path clip-path="url(#clip580)" d="M130.922 833.043 Q127.311 833.043 125.482 836.608 Q123.677 840.149 123.677 847.279 Q123.677 854.385 125.482 857.95 Q127.311 861.492 130.922 861.492 Q134.556 861.492 136.362 857.95 Q138.191 854.385 138.191 847.279 Q138.191 840.149 136.362 836.608 Q134.556 833.043 130.922 833.043 M130.922 829.339 Q136.732 829.339 139.788 833.946 Q142.867 838.529 142.867 847.279 Q142.867 856.006 139.788 860.612 Q136.732 865.195 130.922 865.195 Q125.112 865.195 122.033 860.612 Q118.978 856.006 118.978 847.279 Q118.978 838.529 122.033 833.946 Q125.112 829.339 130.922 829.339 Z" fill="#000000" fill-rule="nonzero" fill-opacity="1" /><polyline clip-path="url(#clip583)" style="stroke:#009af9; stroke-linecap:round; stroke-linejoin:round; stroke-width:4; stroke-opacity:1; fill:none" points="240.392,1134.89 242.445,1130.13 244.498,1153.41 246.55,1145.11 248.603,1188.41 250.656,1179.84 252.709,1168.75 254.762,1188.67 256.815,1183.39 258.868,1182.97 260.921,1182.23 262.974,1164.4 265.027,1256.44 267.079,1179.66 269.132,1144.18 271.185,1206.36 273.238,1215.99 275.291,1130.24 277.344,1171.04 279.397,1172.37 281.45,1152.28 283.503,1198.22 285.555,1163.4 287.608,1174.35 289.661,1172.78 291.714,1159.51 293.767,1160.49 295.82,1153.43 297.873,1172.75 299.926,1157.58 301.979,1148.45 304.031,1147.04 306.084,1211.11 308.137,1124.37 310.19,1196.34 312.243,1252.68 314.296,1240.92 316.349,1101.68 318.402,1166.69 320.455,1160.18 322.507,1169.82 324.56,1200.32 326.613,1240.22 328.666,975.392 330.719,1435.36 332.772,1267.54 334.825,1232.65 336.878,1173.05 338.931,1269.52 340.984,985.015 343.036,1049.57 345.089,1197.08 347.142,1209.69 349.195,1184.71 351.248,1136.3 353.301,1159.45 355.354,1153.07 357.407,1175.85 359.46,1183.38 361.512,1171.57 363.565,1175.2 365.618,1186.63 367.671,1307.86 369.724,1483.38 371.777,1100.85 373.83,1186.37 375.883,1149.44 377.936,1165.81 379.988,1190.6 382.041,1176.47 384.094,1139.02 386.147,1108.15 388.2,1218.13 390.253,1165.02 392.306,1161.72 394.359,1194.07 396.412,1212.17 398.464,1126.41 400.517,1223.37 402.57,1232.37 404.623,1072.21 406.676,1025.06 408.729,895.682 410.782,508.598 412.835,1213.97 414.888,1245.93 416.94,1099.35 418.993,1101.87 421.046,1208.65 423.099,1136 425.152,1120.9 427.205,1144.95 429.258,1105.06 431.311,1134.05 433.364,1094.61 435.417,1149.17 437.469,1213.83 439.522,1135.23 441.575,1167.5 443.628,1195.76 445.681,1151.46 447.734,1175.34 449.787,1183.03 451.84,1153.33 453.893,1174.08 455.945,1162.09 457.998,1153.53 460.051,1216.53 462.104,1164.2 464.157,1164.99 466.21,1205.99 468.263,906.591 470.316,1093.7 472.369,1198.19 474.421,1242.09 476.474,1139.62 478.527,1202.11 480.58,1220.71 482.633,1183.69 484.686,1151.01 486.739,1179 488.792,1229.75 490.845,1161.01 492.897,1140.2 494.95,1154.18 497.003,1190.02 499.056,1173.4 501.109,1234.03 503.162,1199.46 505.215,1173.14 507.268,1160.04 509.321,1163.43 511.374,1192.87 513.426,1166.52 515.479,1258.47 517.532,1791.72 519.585,569.224 521.638,1380.03 523.691,1160.7 525.744,977.66 527.797,1073.63 529.85,1232.82 531.902,1326.67 533.955,1183.67 536.008,811.662 538.061,1129.67 540.114,1153.69 542.167,1227.46 544.22,1202.63 546.273,1144.09 548.326,629.575 550.378,490.814 552.431,1189.88 554.484,1197.33 556.537,1188.19 558.59,1195.22 560.643,1136.03 562.696,1203 564.749,1128.56 566.802,1192.03 568.854,1187.16 570.907,1221.7 572.96,1151.91 575.013,1145.54 577.066,1134.58 579.119,1174.13 581.172,1132.63 583.225,1233.71 585.278,1163.17 587.331,1142.01 589.383,1133.18 591.436,1153.74 593.489,1137.46 595.542,1124.72 597.595,1150.43 599.648,1202.7 601.701,1210.69 603.754,1112.37 605.807,1249.48 607.859,1311.81 609.912,892.039 611.965,1449.81 614.018,745.32 616.071,4761.11 618.124,2631.02 620.177,358.352 622.23,888.148 624.283,866.502 626.335,1167.12 628.388,1349.21 630.441,1158.07 632.494,1158.87 634.547,1165.75 636.6,1171.45 638.653,1167.74 640.706,1214.36 642.759,1169.08 644.811,1226.82 646.864,1248.12 648.917,963.057 650.97,1196.02 653.023,1289.96 655.076,1197.3 657.129,1250.13 659.182,1157.71 661.235,1176.73 663.288,1132.23 665.34,1104.12 667.393,1176.57 669.446,1166.87 671.499,1157.23 673.552,1165.82 675.605,1162.76 677.658,1158.09 679.711,1186.82 681.764,1170.63 683.816,1164.84 685.869,1196.46 687.922,1147.11 689.975,1206.17 692.028,1208.5 694.081,1182.82 696.134,1200.1 698.187,1106.71 700.24,1196.28 702.292,1187.63 704.345,1151.07 706.398,1155.12 708.451,1105.21 710.504,1230.54 712.557,1264.13 714.61,1188.96 716.663,1230.32 718.716,1222.85 720.768,898.326 722.821,930.581 724.874,1149.5 726.927,1137.94 728.98,1223.28 731.033,1237.46 733.086,1166.13 735.139,1128.1 737.192,1257 739.245,1305.1 741.297,1134.8 743.35,1177.42 745.403,1138.44 747.456,1174.85 749.509,1173.18 751.562,1160.48 753.615,1172.6 755.668,1168.19 757.721,1207.38 759.773,1221.69 761.826,1221.23 763.879,1232.8 765.932,1149.75 767.985,1106.69 770.038,1261.22 772.091,1213.43 774.144,1159.98 776.197,1128.23 778.249,1128.75 780.302,1192.04 782.355,1151.24 784.408,1138.74 786.461,1165.53 788.514,1159.49 790.567,1110.42 792.62,1133.32 794.673,1186.54 796.725,1084.73 798.778,1193.47 800.831,1164.87 802.884,1194.05 804.937,1187.01 806.99,1165.86 809.043,1190.31 811.096,1163.21 813.149,1169.93 815.202,1177.09 817.254,1170.41 819.307,1155.69 821.36,1161.63 823.413,1149.12 825.466,1275.99 827.519,1125.8 829.572,1056.69 831.625,1276.62 833.678,1223.85 835.73,1129.94 837.783,1147.34 839.836,1184.28 841.889,1136.02 843.942,1187.16 845.995,1118.03 848.048,1175.08 850.101,1087.63 852.154,1220.48 854.206,-718.948 856.259,2101.04 858.312,-34.3327 860.365,1803.21 862.418,1999.43 864.471,1372.83 866.524,1005.41 868.577,719.198 870.63,85.4643 872.682,-1548.26 874.735,-2471.33 876.788,-3564.19 878.841,7958.4 880.894,-608.376 882.947,98.1456 885,1774.04 887.053,841.93 889.106,2416.22 891.159,1515.59 893.211,1462.04 895.264,1290.61 897.317,1082.59 899.37,1117.76 901.423,1526.43 903.476,923.177 905.529,805.713 907.582,774.722 909.635,1326.69 911.687,899.684 913.74,1285.21 915.793,1157.6 917.846,1191.03 919.899,1163.05 921.952,1184.51 924.005,1103.21 926.058,1131.72 928.111,1132.18 930.163,1132.06 932.216,1533.21 934.269,1017.58 936.322,1362.7 938.375,780.495 940.428,4055.77 942.481,-656.11 944.534,1033.13 946.587,1108.19 948.639,1125.75 950.692,1116.52 952.745,1121.73 954.798,1000.68 956.851,1306.61 958.904,1240.56 960.957,1025.86 963.01,1100.46 965.063,1159.94 967.116,1261.76 969.168,1120.57 971.221,1086.65 973.274,1096.37 975.327,1103.69 977.38,1285.94 979.433,984.138 981.486,911.986 983.539,1456.83 985.592,1193.51 987.644,1102.55 989.697,1236.46 991.75,1158.93 993.803,1211.62 995.856,1243.85 997.909,1114.69 999.962,1134 1002.01,1193.76 1004.07,1134.7 1006.12,1138.07 1008.17,1227.57 1010.23,1135.84 1012.28,1151.6 1014.33,1150.69 1016.38,1127.29 1018.44,1187.76 1020.49,1163.77 1022.54,1159.15 1024.6,1179.94 1026.65,1162.6 1028.7,1163.99 1030.76,1150.78 1032.81,1122.08 1034.86,1145.85 1036.91,1200.37 1038.97,1039.87 1041.02,1292.21 1043.07,1128.12 1045.13,1120.91 1047.18,1135.28 1049.23,1109.21 1051.28,1119.43 1053.34,1247.55 1055.39,1396.98 1057.44,1663.03 1059.5,1577.52 1061.55,1437.18 1063.6,1074.86 1065.65,1249.96 1067.71,1094.17 1069.76,1155.2 1071.81,1178.86 1073.87,1121.64 1075.92,1184.89 1077.97,1172.41 1080.02,1228.2 1082.08,1104.35 1084.13,1210.75 1086.18,1108.37 1088.24,1129.52 1090.29,1166.2 1092.34,1161.55 1094.39,1138.15 1096.45,1274.22 1098.5,1090.17 1100.55,1037.31 1102.61,1108.89 1104.66,208.73 1106.71,472.432 1108.77,1114.11 1110.82,828.114 1112.87,1185.46 1114.92,1348.84 1116.98,1654.76 1119.03,1169.55 1121.08,1219.24 1123.14,1310.21 1125.19,1410.97 1127.24,808.396 1129.29,1877.69 1131.35,1228.22 1133.4,1188.28 1135.45,1083.66 1137.51,1150.77 1139.56,1158.99 1141.61,1240.58 1143.66,1219.73 1145.72,1225.69 1147.77,1068.83 1149.82,1068.42 1151.88,1123.75 1153.93,1164.35 1155.98,1209.26 1158.03,1197.38 1160.09,1180.99 1162.14,1183.55 1164.19,1156.08 1166.25,1139.9 1168.3,1206.16 1170.35,1167.8 1172.4,1128.83 1174.46,1030.92 1176.51,1142.62 1178.56,1028.38 1180.62,1306.36 1182.67,1041.34 1184.72,1248.44 1186.77,1180.17 1188.83,1113.79 1190.88,1144.34 1192.93,1139.9 1194.99,1084.27 1197.04,1177.89 1199.09,1184.7 1201.15,1141.67 1203.2,1171.54 1205.25,1182.4 1207.3,1099.5 1209.36,1108.5 1211.41,1118.44 1213.46,1033.89 1215.52,1085.85 1217.57,1088.69 1219.62,1124.6 1221.67,1039.64 1223.73,916.563 1225.78,1130.38 1227.83,1195.46 1229.89,1153.04 1231.94,1245.38 1233.99,1174.54 1236.04,1139.13 1238.1,1081.97 1240.15,1183.52 1242.2,1170.71 1244.26,1155.79 1246.31,1132.82 1248.36,1194.4 1250.41,1100.67 1252.47,1109.44 1254.52,1053.88 1256.57,1185.01 1258.63,1233.15 1260.68,1175.62 1262.73,1203.12 1264.78,1034.56 1266.84,1265.04 1268.89,1181.23 1270.94,1127.97 1273,1193.53 1275.05,1130.89 1277.1,1189.75 1279.16,1156.93 1281.21,1172.98 1283.26,1168.16 1285.31,1215.83 1287.37,1146.29 1289.42,1330.02 1291.47,1274.57 1293.53,1044.94 1295.58,1129.27 1297.63,1152.28 1299.68,1183.23 1301.74,1131.91 1303.79,1126.02 1305.84,1158.04 1307.9,1288.67 1309.95,1328.19 1312,971.716 1314.05,1217.44 1316.11,1243.92 1318.16,1095.53 1320.21,1210.08 1322.27,1197.49 1324.32,1141.14 1326.37,1201.04 1328.42,1107.95 1330.48,1156.6 1332.53,1148.82 1334.58,1141.68 1336.64,1213.12 1338.69,1168.07 1340.74,1128.46 1342.79,1154.49 1344.85,1152.01 1346.9,1167.64 1348.95,1152.95 1351.01,1210.79 1353.06,1190.42 1355.11,1187.48 1357.16,1182.17 1359.22,1255.89 1361.27,1009.16 1363.32,1213.84 1365.38,1116.34 1367.43,1201.97 1369.48,1133.39 1371.54,1201.02 1373.59,1167.54 1375.64,1176.27 1377.69,1193.17 1379.75,1079.28 1381.8,1126.77 1383.85,1136.3 1385.91,1178.66 1387.96,1163.47 1390.01,1168.39 1392.06,1163.3 1394.12,1137.87 1396.17,1146.29 1398.22,1184.07 1400.28,1179.03 1402.33,1163.37 1404.38,1239.9 1406.43,1182.35 1408.49,1176.07 1410.54,1193.13 1412.59,1155.38 1414.65,1144.97 1416.7,1187.81 1418.75,1162.82 1420.8,1106.96 1422.86,1070.62 1424.91,1187.55 1426.96,1130.83 1429.02,1119.3 1431.07,1315.59 1433.12,1419.01 1435.17,1041.91 1437.23,1090.6 1439.28,1161.22 1441.33,1144.32 1443.39,1189.09 1445.44,1150.46 1447.49,1157.91 1449.55,956.487 1451.6,1313.08 1453.65,596.132 1455.7,1076.14 1457.76,-965.2 1459.81,1278.22 1461.86,947.866 1463.92,1187.06 1465.97,1271.97 1468.02,1164.44 1470.07,1200.32 1472.13,1278.55 1474.18,1184.79 1476.23,1202.39 1478.29,1188.47 1480.34,1194.43 1482.39,1186.87 1484.44,1216.79 1486.5,1191.81 1488.55,1167.26 1490.6,1145.55 1492.66,1044.52 1494.71,1133.7 1496.76,1176.26 1498.81,1136.04 1500.87,1158.53 1502.92,1212.69 1504.97,1145.82 1507.03,1159.97 1509.08,1159.29 1511.13,1064.25 1513.18,1493.91 1515.24,1314.26 1517.29,746.239 1519.34,1622.36 1521.4,1320.26 1523.45,1321.25 1525.5,1438.24 1527.55,518.483 1529.61,1143.4 1531.66,772.146 1533.71,988.573 1535.77,1324.15 1537.82,1277.46 1539.87,1184.08 1541.93,1164.67 1543.98,1170.93 1546.03,1113.22 1548.08,1266.91 1550.14,1097.77 1552.19,1122.13 1554.24,1126.69 1556.3,987.073 1558.35,1007.03 1560.4,1229.75 1562.45,1253.93 1564.51,1271.05 1566.56,1297.59 1568.61,1431.14 1570.67,1767.01 1572.72,1282.5 1574.77,928.568 1576.82,2203.31 1578.88,-278.033 1580.93,1184.72 1582.98,1169.82 1585.04,1148.77 1587.09,1294.58 1589.14,1458.63 1591.19,822.846 1593.25,794.31 1595.3,958.609 1597.35,1066.45 1599.41,1135.28 1601.46,1176.82 1603.51,1353.66 1605.56,1052.28 1607.62,1179.34 1609.67,1194.83 1611.72,1149.06 1613.78,1193.55 1615.83,1121.2 1617.88,1210.45 1619.94,1128.58 1621.99,987.802 1624.04,1004.43 1626.09,1290.97 1628.15,1161.51 1630.2,1085.23 1632.25,1076.38 1634.31,402.054 1636.36,1203.12 1638.41,1127.07 1640.46,1117.22 1642.52,1143.53 1644.57,1181.65 1646.62,1339.18 1648.68,1189.63 1650.73,1331.95 1652.78,2221.18 1654.83,2336.79 1656.89,1044.91 1658.94,1103.64 1660.99,1177.39 1663.05,1213.66 1665.1,1156.01 1667.15,1179.97 1669.2,1145.09 1671.26,1151.76 1673.31,1196.87 1675.36,1183.09 1677.42,1174.62 1679.47,1172.67 1681.52,1158.7 1683.57,1151.17 1685.63,1176.36 1687.68,1181.46 1689.73,1193.29 1691.79,1101.76 1693.84,1101.77 1695.89,1193.01 1697.94,1157.25 1700,1129.11 1702.05,1187.36 1704.1,1144.34 1706.16,1152.38 1708.21,1240.3 1710.26,1116.88 1712.32,1215.99 1714.37,1126.8 1716.42,1214.61 1718.47,1200.41 1720.53,1143.04 1722.58,1154.12 1724.63,1184.7 1726.69,1140.42 1728.74,1115.9 1730.79,1155.28 1732.84,1139.39 1734.9,1139.61 1736.95,1161.04 1739,1163.48 1741.06,1110.06 1743.11,1513.26 1745.16,1439.18 1747.21,831.153 1749.27,1127.29 1751.32,1227.13 1753.37,1130.79 1755.43,1109.08 1757.48,1083.06 1759.53,1115.67 1761.58,1145.19 1763.64,1191.28 1765.69,1164.47 1767.74,1179.62 1769.8,1153.56 1771.85,1139.54 1773.9,1200.81 1775.95,1133.77 1778.01,1169.76 1780.06,1158.73 1782.11,1179.63 1784.17,1159.24 1786.22,1247.11 1788.27,1092.23 1790.33,1234.33 1792.38,1279.27 1794.43,1236.34 1796.48,1219.52 1798.54,1093.2 1800.59,1132.7 1802.64,1197.36 1804.7,1061.57 1806.75,1235.76 1808.8,1319.3 1810.85,1172.5 1812.91,1207.99 1814.96,1198.1 1817.01,1161.33 1819.07,1204.74 1821.12,1246.9 1823.17,1276.71 1825.22,1154.47 1827.28,1170.44 1829.33,1168.78 1831.38,1165.49 1833.44,1168.56 1835.49,1186.41 1837.54,1177.37 1839.59,1368.76 1841.65,1190.58 1843.7,1398.1 1845.75,1005.18 1847.81,1427.71 1849.86,873.955 1851.91,1588.76 1853.96,1020 1856.02,1144.42 1858.07,1155.19 1860.12,1160.55 1862.18,1188.04 1864.23,1157.71 1866.28,1148.53 1868.34,1159.1 1870.39,1188.35 1872.44,1042.76 1874.49,1167.9 1876.55,1290.88 1878.6,1042.48 1880.65,1167.69 1882.71,1139.03 1884.76,1202.18 1886.81,1159.33 1888.86,1167.1 1890.92,1166.57 1892.97,1146.71 1895.02,1180.41 1897.08,1174.39 1899.13,1180.79 1901.18,1161.06 1903.23,1161.73 1905.29,1199.88 1907.34,1172.31 1909.39,1189.06 1911.45,1132.45 1913.5,1208.39 1915.55,1199.78 1917.6,1097.62 1919.66,1172.46 1921.71,1182.03 1923.76,1145.43 1925.82,1109.81 1927.87,1237.36 1929.92,1170.67 1931.97,1154.73 1934.03,1178.53 1936.08,1341.58 1938.13,1163.73 1940.19,1154.4 1942.24,1177.8 1944.29,1146.15 1946.34,1183.32 1948.4,1159.01 1950.45,1151.63 1952.5,1121.61 1954.56,1211.41 1956.61,1212.9 1958.66,1116.95 1960.72,1185 1962.77,1153.13 1964.82,1177.75 1966.87,1153.04 1968.93,1137.57 1970.98,1162.43 1973.03,1175.37 1975.09,1172.27 1977.14,1169.84 1979.19,1169.27 1981.24,1185.11 1983.3,1177.63 1985.35,1156.3 1987.4,1188.08 1989.46,1199.45 1991.51,1133.62 1993.56,900.6 1995.61,1103.49 1997.67,1212.14 1999.72,1247.67 2001.77,1241.84 2003.83,1159.89 2005.88,1152.42 2007.93,1182.78 2009.98,1147.16 2012.04,1198.79 2014.09,1183.65 2016.14,1078.04 2018.2,1247.42 2020.25,922.045 2022.3,1150.13 2024.35,1123.89 2026.41,1202.76 2028.46,1146.87 2030.51,1170.52 2032.57,1193.86 2034.62,1163.67 2036.67,1152.94 2038.73,1165.52 2040.78,1110.62 2042.83,1201.44 2044.88,1078.59 2046.94,1089.1 2048.99,1138.3 2051.04,1283.4 2053.1,1286.8 2055.15,1512.99 2057.2,955.235 2059.25,1249.86 2061.31,1258.41 2063.36,1201.46 2065.41,1002.49 2067.47,1356.15 2069.52,1046.1 2071.57,1095.73 2073.62,1155.94 2075.68,1208.26 2077.73,1070.52 2079.78,1336.34 2081.84,1200.59 2083.89,1078.07 2085.94,1135.26 2087.99,1149.9 2090.05,1151.4 2092.1,1197.5 2094.15,1294.94 2096.21,1196.37 2098.26,1122.59 2100.31,1087.8 2102.36,1145.74 2104.42,1195.87 2106.47,1140.82 2108.52,1152.62 2110.58,1136.17 2112.63,1127.32 2114.68,1205.43 2116.73,1105.1 2118.79,1078.98 2120.84,1187.96 2122.89,1176.44 2124.95,1146.89 2127,1142.58 2129.05,1180.78 2131.11,1165.26 2133.16,1164.99 2135.21,1190.78 2137.26,1326.23 2139.32,1052.96 2141.37,1341.95 2143.42,964.5 2145.48,902.863 2147.53,-221.691 2149.58,-539.818 2151.63,966.674 2153.69,329.241 2155.74,1796.63 2157.79,-169.479 2159.85,1442.81 2161.9,611.885 2163.95,716.324 2166,1605.22 2168.06,991.338 2170.11,1111.93 2172.16,1359.41 2174.22,1048.88 2176.27,985.06 2178.32,612.868 2180.37,1910.15 2182.43,1252.84 2184.48,1148.4 2186.53,1291.29 2188.59,663.218 2190.64,598.261 2192.69,2446.06 2194.74,-6367.24 2196.8,1003.97 2198.85,1075.55 2200.9,1179.46 2202.96,1188.05 2205.01,1426.63 2207.06,216.724 2209.12,1868.13 2211.17,1102.69 2213.22,1326.89 2215.27,1284.23 2217.33,1116.53 2219.38,1043.31 2221.43,1077.03 2223.49,1173.53 2225.54,1197.45 2227.59,1175.16 2229.64,1193.02 2231.7,1094.87 2233.75,1202.85 2235.8,1212.65 2237.86,1186.78 2239.91,1175.84 2241.96,1140.9 2244.01,1150.66 2246.07,1182.57 2248.12,1199.77 2250.17,1188.69 2252.23,1173.45 2254.28,1242.23 2256.33,1172.77 2258.38,1140.03 2260.44,1136.18 2262.49,1191.57 2264.54,1170.73 2266.6,1162.01 2268.65,1382.1 2270.7,1026.63 2272.75,1129.2 2274.81,1205.76 2276.86,1144.01 2278.91,1122.13 2280.97,1170.58 2283.02,1128.03 2285.07,1147.63 2287.12,1211.16 2289.18,1087.8 2291.23,1191.59 "/>
<path clip-path="url(#clip580)" d="M251.33 1465.14 L588.926 1465.14 L588.926 1361.46 L251.33 1361.46  Z" fill="#ffffff" fill-rule="evenodd" fill-opacity="1"/>
<polyline clip-path="url(#clip580)" style="stroke:#000000; stroke-linecap:round; stroke-linejoin:round; stroke-width:4; stroke-opacity:1; fill:none" points="251.33,1465.14 588.926,1465.14 588.926,1361.46 251.33,1361.46 251.33,1465.14 "/>
<polyline clip-path="url(#clip580)" style="stroke:#009af9; stroke-linecap:round; stroke-linejoin:round; stroke-width:4; stroke-opacity:1; fill:none" points="275.484,1413.3 420.41,1413.3 "/>
<path clip-path="url(#clip580)" d="M470.12 1425.65 L470.12 1416.37 L462.481 1416.37 L462.481 1412.53 L474.749 1412.53 L474.749 1427.36 Q472.041 1429.28 468.777 1430.28 Q465.513 1431.25 461.809 1431.25 Q453.708 1431.25 449.124 1426.53 Q444.564 1421.78 444.564 1413.34 Q444.564 1404.86 449.124 1400.14 Q453.708 1395.4 461.809 1395.4 Q465.189 1395.4 468.221 1396.23 Q471.277 1397.06 473.846 1398.68 L473.846 1403.66 Q471.254 1401.46 468.337 1400.35 Q465.421 1399.24 462.203 1399.24 Q455.86 1399.24 452.666 1402.78 Q449.495 1406.32 449.495 1413.34 Q449.495 1420.33 452.666 1423.87 Q455.86 1427.41 462.203 1427.41 Q464.68 1427.41 466.624 1426.99 Q468.569 1426.55 470.12 1425.65 Z" fill="#000000" fill-rule="nonzero" fill-opacity="1" /><path clip-path="url(#clip580)" d="M487.967 1399.86 L487.967 1412.85 L493.846 1412.85 Q497.11 1412.85 498.893 1411.16 Q500.675 1409.47 500.675 1406.35 Q500.675 1403.24 498.893 1401.55 Q497.11 1399.86 493.846 1399.86 L487.967 1399.86 M483.291 1396.02 L493.846 1396.02 Q499.657 1396.02 502.619 1398.66 Q505.606 1401.28 505.606 1406.35 Q505.606 1411.46 502.619 1414.08 Q499.657 1416.69 493.846 1416.69 L487.967 1416.69 L487.967 1430.58 L483.291 1430.58 L483.291 1396.02 Z" fill="#000000" fill-rule="nonzero" fill-opacity="1" /><path clip-path="url(#clip580)" d="M532.596 1397.16 L532.596 1401.72 Q529.934 1400.44 527.573 1399.82 Q525.212 1399.19 523.013 1399.19 Q519.193 1399.19 517.11 1400.67 Q515.05 1402.16 515.05 1404.89 Q515.05 1407.18 516.416 1408.36 Q517.805 1409.52 521.647 1410.23 L524.471 1410.81 Q529.703 1411.81 532.179 1414.33 Q534.679 1416.83 534.679 1421.04 Q534.679 1426.07 531.3 1428.66 Q527.943 1431.25 521.439 1431.25 Q518.985 1431.25 516.207 1430.7 Q513.453 1430.14 510.49 1429.05 L510.49 1424.24 Q513.337 1425.84 516.068 1426.65 Q518.8 1427.46 521.439 1427.46 Q525.443 1427.46 527.619 1425.88 Q529.795 1424.31 529.795 1421.39 Q529.795 1418.85 528.221 1417.41 Q526.67 1415.97 523.105 1415.26 L520.258 1414.7 Q515.027 1413.66 512.689 1411.44 Q510.351 1409.22 510.351 1405.26 Q510.351 1400.67 513.568 1398.03 Q516.809 1395.4 522.48 1395.4 Q524.911 1395.4 527.434 1395.84 Q529.957 1396.28 532.596 1397.16 Z" fill="#000000" fill-rule="nonzero" fill-opacity="1" /><path clip-path="url(#clip580)" d="M562.689 1397.16 L562.689 1401.72 Q560.027 1400.44 557.665 1399.82 Q555.304 1399.19 553.105 1399.19 Q549.286 1399.19 547.203 1400.67 Q545.142 1402.16 545.142 1404.89 Q545.142 1407.18 546.508 1408.36 Q547.897 1409.52 551.74 1410.23 L554.564 1410.81 Q559.795 1411.81 562.272 1414.33 Q564.772 1416.83 564.772 1421.04 Q564.772 1426.07 561.392 1428.66 Q558.036 1431.25 551.531 1431.25 Q549.078 1431.25 546.3 1430.7 Q543.545 1430.14 540.582 1429.05 L540.582 1424.24 Q543.429 1425.84 546.161 1426.65 Q548.892 1427.46 551.531 1427.46 Q555.536 1427.46 557.712 1425.88 Q559.888 1424.31 559.888 1421.39 Q559.888 1418.85 558.314 1417.41 Q556.763 1415.97 553.198 1415.26 L550.351 1414.7 Q545.119 1413.66 542.781 1411.44 Q540.443 1409.22 540.443 1405.26 Q540.443 1400.67 543.661 1398.03 Q546.902 1395.4 552.573 1395.4 Q555.003 1395.4 557.527 1395.84 Q560.05 1396.28 562.689 1397.16 Z" fill="#000000" fill-rule="nonzero" fill-opacity="1" /></svg>
