<?xml version="1.0" encoding="utf-8"?>
<svg xmlns="http://www.w3.org/2000/svg" xmlns:xlink="http://www.w3.org/1999/xlink" width="600" height="400" viewBox="0 0 2400 1600">
<defs>
  <clipPath id="clip310">
    <rect x="0" y="0" width="2400" height="1600"/>
  </clipPath>
</defs>
<path clip-path="url(#clip310)" d="M0 1600 L2400 1600 L2400 0 L0 0  Z" fill="#ffffff" fill-rule="evenodd" fill-opacity="1"/>
<defs>
  <clipPath id="clip311">
    <rect x="480" y="0" width="1681" height="1600"/>
  </clipPath>
</defs>
<path clip-path="url(#clip310)" d="M178.867 686.448 L2352.76 686.448 L2352.76 47.2441 L178.867 47.2441  Z" fill="#ffffff" fill-rule="evenodd" fill-opacity="1"/>
<defs>
  <clipPath id="clip312">
    <rect x="178" y="47" width="2175" height="640"/>
  </clipPath>
</defs>
<polyline clip-path="url(#clip312)" style="stroke:#000000; stroke-linecap:round; stroke-linejoin:round; stroke-width:2; stroke-opacity:0.1; fill:none" points="238.339,686.448 238.339,47.2441 "/>
<polyline clip-path="url(#clip312)" style="stroke:#000000; stroke-linecap:round; stroke-linejoin:round; stroke-width:2; stroke-opacity:0.1; fill:none" points="751.562,686.448 751.562,47.2441 "/>
<polyline clip-path="url(#clip312)" style="stroke:#000000; stroke-linecap:round; stroke-linejoin:round; stroke-width:2; stroke-opacity:0.1; fill:none" points="1264.78,686.448 1264.78,47.2441 "/>
<polyline clip-path="url(#clip312)" style="stroke:#000000; stroke-linecap:round; stroke-linejoin:round; stroke-width:2; stroke-opacity:0.1; fill:none" points="1778.01,686.448 1778.01,47.2441 "/>
<polyline clip-path="url(#clip312)" style="stroke:#000000; stroke-linecap:round; stroke-linejoin:round; stroke-width:2; stroke-opacity:0.1; fill:none" points="2291.23,686.448 2291.23,47.2441 "/>
<polyline clip-path="url(#clip312)" style="stroke:#000000; stroke-linecap:round; stroke-linejoin:round; stroke-width:2; stroke-opacity:0.1; fill:none" points="178.867,686.448 2352.76,686.448 "/>
<polyline clip-path="url(#clip312)" style="stroke:#000000; stroke-linecap:round; stroke-linejoin:round; stroke-width:2; stroke-opacity:0.1; fill:none" points="178.867,526.647 2352.76,526.647 "/>
<polyline clip-path="url(#clip312)" style="stroke:#000000; stroke-linecap:round; stroke-linejoin:round; stroke-width:2; stroke-opacity:0.1; fill:none" points="178.867,366.846 2352.76,366.846 "/>
<polyline clip-path="url(#clip312)" style="stroke:#000000; stroke-linecap:round; stroke-linejoin:round; stroke-width:2; stroke-opacity:0.1; fill:none" points="178.867,207.045 2352.76,207.045 "/>
<polyline clip-path="url(#clip312)" style="stroke:#000000; stroke-linecap:round; stroke-linejoin:round; stroke-width:2; stroke-opacity:0.1; fill:none" points="178.867,47.2441 2352.76,47.2441 "/>
<polyline clip-path="url(#clip310)" style="stroke:#000000; stroke-linecap:round; stroke-linejoin:round; stroke-width:4; stroke-opacity:1; fill:none" points="178.867,686.448 2352.76,686.448 "/>
<polyline clip-path="url(#clip310)" style="stroke:#000000; stroke-linecap:round; stroke-linejoin:round; stroke-width:4; stroke-opacity:1; fill:none" points="238.339,686.448 238.339,667.55 "/>
<polyline clip-path="url(#clip310)" style="stroke:#000000; stroke-linecap:round; stroke-linejoin:round; stroke-width:4; stroke-opacity:1; fill:none" points="751.562,686.448 751.562,667.55 "/>
<polyline clip-path="url(#clip310)" style="stroke:#000000; stroke-linecap:round; stroke-linejoin:round; stroke-width:4; stroke-opacity:1; fill:none" points="1264.78,686.448 1264.78,667.55 "/>
<polyline clip-path="url(#clip310)" style="stroke:#000000; stroke-linecap:round; stroke-linejoin:round; stroke-width:4; stroke-opacity:1; fill:none" points="1778.01,686.448 1778.01,667.55 "/>
<polyline clip-path="url(#clip310)" style="stroke:#000000; stroke-linecap:round; stroke-linejoin:round; stroke-width:4; stroke-opacity:1; fill:none" points="2291.23,686.448 2291.23,667.55 "/>
<path clip-path="url(#clip310)" d="M238.339 717.367 Q234.728 717.367 232.899 720.931 Q231.094 724.473 231.094 731.603 Q231.094 738.709 232.899 742.274 Q234.728 745.815 238.339 745.815 Q241.973 745.815 243.779 742.274 Q245.607 738.709 245.607 731.603 Q245.607 724.473 243.779 720.931 Q241.973 717.367 238.339 717.367 M238.339 713.663 Q244.149 713.663 247.205 718.269 Q250.283 722.853 250.283 731.603 Q250.283 740.329 247.205 744.936 Q244.149 749.519 238.339 749.519 Q232.529 749.519 229.45 744.936 Q226.395 740.329 226.395 731.603 Q226.395 722.853 229.45 718.269 Q232.529 713.663 238.339 713.663 Z" fill="#000000" fill-rule="nonzero" fill-opacity="1" /><path clip-path="url(#clip310)" d="M715.254 744.913 L731.574 744.913 L731.574 748.848 L709.629 748.848 L709.629 744.913 Q712.291 742.158 716.875 737.528 Q721.481 732.876 722.662 731.533 Q724.907 729.01 725.787 727.274 Q726.689 725.515 726.689 723.825 Q726.689 721.07 724.745 719.334 Q722.824 717.598 719.722 717.598 Q717.523 717.598 715.069 718.362 Q712.638 719.126 709.861 720.677 L709.861 715.955 Q712.685 714.82 715.138 714.242 Q717.592 713.663 719.629 713.663 Q725 713.663 728.194 716.348 Q731.388 719.033 731.388 723.524 Q731.388 725.654 730.578 727.575 Q729.791 729.473 727.685 732.066 Q727.106 732.737 724.004 735.954 Q720.902 739.149 715.254 744.913 Z" fill="#000000" fill-rule="nonzero" fill-opacity="1" /><path clip-path="url(#clip310)" d="M741.435 714.288 L759.791 714.288 L759.791 718.223 L745.717 718.223 L745.717 726.695 Q746.736 726.348 747.754 726.186 Q748.773 726.001 749.791 726.001 Q755.578 726.001 758.958 729.172 Q762.337 732.343 762.337 737.76 Q762.337 743.339 758.865 746.44 Q755.393 749.519 749.073 749.519 Q746.898 749.519 744.629 749.149 Q742.384 748.778 739.976 748.038 L739.976 743.339 Q742.06 744.473 744.282 745.028 Q746.504 745.584 748.981 745.584 Q752.985 745.584 755.323 743.478 Q757.661 741.371 757.661 737.76 Q757.661 734.149 755.323 732.042 Q752.985 729.936 748.981 729.936 Q747.106 729.936 745.231 730.353 Q743.379 730.769 741.435 731.649 L741.435 714.288 Z" fill="#000000" fill-rule="nonzero" fill-opacity="1" /><path clip-path="url(#clip310)" d="M781.55 717.367 Q777.939 717.367 776.11 720.931 Q774.305 724.473 774.305 731.603 Q774.305 738.709 776.11 742.274 Q777.939 745.815 781.55 745.815 Q785.184 745.815 786.99 742.274 Q788.819 738.709 788.819 731.603 Q788.819 724.473 786.99 720.931 Q785.184 717.367 781.55 717.367 M781.55 713.663 Q787.36 713.663 790.416 718.269 Q793.495 722.853 793.495 731.603 Q793.495 740.329 790.416 744.936 Q787.36 749.519 781.55 749.519 Q775.74 749.519 772.661 744.936 Q769.606 740.329 769.606 731.603 Q769.606 722.853 772.661 718.269 Q775.74 713.663 781.55 713.663 Z" fill="#000000" fill-rule="nonzero" fill-opacity="1" /><path clip-path="url(#clip310)" d="M1224.4 714.288 L1242.76 714.288 L1242.76 718.223 L1228.69 718.223 L1228.69 726.695 Q1229.7 726.348 1230.72 726.186 Q1231.74 726.001 1232.76 726.001 Q1238.55 726.001 1241.93 729.172 Q1245.31 732.343 1245.31 737.76 Q1245.31 743.339 1241.83 746.44 Q1238.36 749.519 1232.04 749.519 Q1229.87 749.519 1227.6 749.149 Q1225.35 748.778 1222.94 748.038 L1222.94 743.339 Q1225.03 744.473 1227.25 745.028 Q1229.47 745.584 1231.95 745.584 Q1235.95 745.584 1238.29 743.478 Q1240.63 741.371 1240.63 737.76 Q1240.63 734.149 1238.29 732.042 Q1235.95 729.936 1231.95 729.936 Q1230.07 729.936 1228.2 730.353 Q1226.35 730.769 1224.4 731.649 L1224.4 714.288 Z" fill="#000000" fill-rule="nonzero" fill-opacity="1" /><path clip-path="url(#clip310)" d="M1264.52 717.367 Q1260.91 717.367 1259.08 720.931 Q1257.27 724.473 1257.27 731.603 Q1257.27 738.709 1259.08 742.274 Q1260.91 745.815 1264.52 745.815 Q1268.15 745.815 1269.96 742.274 Q1271.79 738.709 1271.79 731.603 Q1271.79 724.473 1269.96 720.931 Q1268.15 717.367 1264.52 717.367 M1264.52 713.663 Q1270.33 713.663 1273.38 718.269 Q1276.46 722.853 1276.46 731.603 Q1276.46 740.329 1273.38 744.936 Q1270.33 749.519 1264.52 749.519 Q1258.71 749.519 1255.63 744.936 Q1252.57 740.329 1252.57 731.603 Q1252.57 722.853 1255.63 718.269 Q1258.71 713.663 1264.52 713.663 Z" fill="#000000" fill-rule="nonzero" fill-opacity="1" /><path clip-path="url(#clip310)" d="M1294.68 717.367 Q1291.07 717.367 1289.24 720.931 Q1287.44 724.473 1287.44 731.603 Q1287.44 738.709 1289.24 742.274 Q1291.07 745.815 1294.68 745.815 Q1298.31 745.815 1300.12 742.274 Q1301.95 738.709 1301.95 731.603 Q1301.95 724.473 1300.12 720.931 Q1298.31 717.367 1294.68 717.367 M1294.68 713.663 Q1300.49 713.663 1303.55 718.269 Q1306.62 722.853 1306.62 731.603 Q1306.62 740.329 1303.55 744.936 Q1300.49 749.519 1294.68 749.519 Q1288.87 749.519 1285.79 744.936 Q1282.74 740.329 1282.74 731.603 Q1282.74 722.853 1285.79 718.269 Q1288.87 713.663 1294.68 713.663 Z" fill="#000000" fill-rule="nonzero" fill-opacity="1" /><path clip-path="url(#clip310)" d="M1736.28 714.288 L1758.51 714.288 L1758.51 716.279 L1745.96 748.848 L1741.08 748.848 L1752.88 718.223 L1736.28 718.223 L1736.28 714.288 Z" fill="#000000" fill-rule="nonzero" fill-opacity="1" /><path clip-path="url(#clip310)" d="M1767.67 714.288 L1786.03 714.288 L1786.03 718.223 L1771.95 718.223 L1771.95 726.695 Q1772.97 726.348 1773.99 726.186 Q1775.01 726.001 1776.03 726.001 Q1781.82 726.001 1785.2 729.172 Q1788.57 732.343 1788.57 737.76 Q1788.57 743.339 1785.1 746.44 Q1781.63 749.519 1775.31 749.519 Q1773.14 749.519 1770.87 749.149 Q1768.62 748.778 1766.21 748.038 L1766.21 743.339 Q1768.3 744.473 1770.52 745.028 Q1772.74 745.584 1775.22 745.584 Q1779.22 745.584 1781.56 743.478 Q1783.9 741.371 1783.9 737.76 Q1783.9 734.149 1781.56 732.042 Q1779.22 729.936 1775.22 729.936 Q1773.34 729.936 1771.47 730.353 Q1769.62 730.769 1767.67 731.649 L1767.67 714.288 Z" fill="#000000" fill-rule="nonzero" fill-opacity="1" /><path clip-path="url(#clip310)" d="M1807.79 717.367 Q1804.18 717.367 1802.35 720.931 Q1800.54 724.473 1800.54 731.603 Q1800.54 738.709 1802.35 742.274 Q1804.18 745.815 1807.79 745.815 Q1811.42 745.815 1813.23 742.274 Q1815.06 738.709 1815.06 731.603 Q1815.06 724.473 1813.23 720.931 Q1811.42 717.367 1807.79 717.367 M1807.79 713.663 Q1813.6 713.663 1816.65 718.269 Q1819.73 722.853 1819.73 731.603 Q1819.73 740.329 1816.65 744.936 Q1813.6 749.519 1807.79 749.519 Q1801.98 749.519 1798.9 744.936 Q1795.84 740.329 1795.84 731.603 Q1795.84 722.853 1798.9 718.269 Q1801.98 713.663 1807.79 713.663 Z" fill="#000000" fill-rule="nonzero" fill-opacity="1" /><path clip-path="url(#clip310)" d="M2235.76 744.913 L2243.4 744.913 L2243.4 718.547 L2235.09 720.214 L2235.09 715.955 L2243.35 714.288 L2248.02 714.288 L2248.02 744.913 L2255.66 744.913 L2255.66 748.848 L2235.76 748.848 L2235.76 744.913 Z" fill="#000000" fill-rule="nonzero" fill-opacity="1" /><path clip-path="url(#clip310)" d="M2275.11 717.367 Q2271.5 717.367 2269.67 720.931 Q2267.86 724.473 2267.86 731.603 Q2267.86 738.709 2269.67 742.274 Q2271.5 745.815 2275.11 745.815 Q2278.74 745.815 2280.55 742.274 Q2282.38 738.709 2282.38 731.603 Q2282.38 724.473 2280.55 720.931 Q2278.74 717.367 2275.11 717.367 M2275.11 713.663 Q2280.92 713.663 2283.97 718.269 Q2287.05 722.853 2287.05 731.603 Q2287.05 740.329 2283.97 744.936 Q2280.92 749.519 2275.11 749.519 Q2269.3 749.519 2266.22 744.936 Q2263.16 740.329 2263.16 731.603 Q2263.16 722.853 2266.22 718.269 Q2269.3 713.663 2275.11 713.663 Z" fill="#000000" fill-rule="nonzero" fill-opacity="1" /><path clip-path="url(#clip310)" d="M2305.27 717.367 Q2301.66 717.367 2299.83 720.931 Q2298.02 724.473 2298.02 731.603 Q2298.02 738.709 2299.83 742.274 Q2301.66 745.815 2305.27 745.815 Q2308.9 745.815 2310.71 742.274 Q2312.54 738.709 2312.54 731.603 Q2312.54 724.473 2310.71 720.931 Q2308.9 717.367 2305.27 717.367 M2305.27 713.663 Q2311.08 713.663 2314.14 718.269 Q2317.21 722.853 2317.21 731.603 Q2317.21 740.329 2314.14 744.936 Q2311.08 749.519 2305.27 749.519 Q2299.46 749.519 2296.38 744.936 Q2293.33 740.329 2293.33 731.603 Q2293.33 722.853 2296.38 718.269 Q2299.46 713.663 2305.27 713.663 Z" fill="#000000" fill-rule="nonzero" fill-opacity="1" /><path clip-path="url(#clip310)" d="M2335.43 717.367 Q2331.82 717.367 2329.99 720.931 Q2328.19 724.473 2328.19 731.603 Q2328.19 738.709 2329.99 742.274 Q2331.82 745.815 2335.43 745.815 Q2339.07 745.815 2340.87 742.274 Q2342.7 738.709 2342.7 731.603 Q2342.7 724.473 2340.87 720.931 Q2339.07 717.367 2335.43 717.367 M2335.43 713.663 Q2341.24 713.663 2344.3 718.269 Q2347.38 722.853 2347.38 731.603 Q2347.38 740.329 2344.3 744.936 Q2341.24 749.519 2335.43 749.519 Q2329.62 749.519 2326.54 744.936 Q2323.49 740.329 2323.49 731.603 Q2323.49 722.853 2326.54 718.269 Q2329.62 713.663 2335.43 713.663 Z" fill="#000000" fill-rule="nonzero" fill-opacity="1" /><polyline clip-path="url(#clip310)" style="stroke:#000000; stroke-linecap:round; stroke-linejoin:round; stroke-width:4; stroke-opacity:1; fill:none" points="178.867,686.448 178.867,47.2441 "/>
<polyline clip-path="url(#clip310)" style="stroke:#000000; stroke-linecap:round; stroke-linejoin:round; stroke-width:4; stroke-opacity:1; fill:none" points="178.867,686.448 197.764,686.448 "/>
<polyline clip-path="url(#clip310)" style="stroke:#000000; stroke-linecap:round; stroke-linejoin:round; stroke-width:4; stroke-opacity:1; fill:none" points="178.867,526.647 197.764,526.647 "/>
<polyline clip-path="url(#clip310)" style="stroke:#000000; stroke-linecap:round; stroke-linejoin:round; stroke-width:4; stroke-opacity:1; fill:none" points="178.867,366.846 197.764,366.846 "/>
<polyline clip-path="url(#clip310)" style="stroke:#000000; stroke-linecap:round; stroke-linejoin:round; stroke-width:4; stroke-opacity:1; fill:none" points="178.867,207.045 197.764,207.045 "/>
<polyline clip-path="url(#clip310)" style="stroke:#000000; stroke-linecap:round; stroke-linejoin:round; stroke-width:4; stroke-opacity:1; fill:none" points="178.867,47.2441 197.764,47.2441 "/>
<path clip-path="url(#clip310)" d="M50.9921 686.899 L80.6679 686.899 L80.6679 690.834 L50.9921 690.834 L50.9921 686.899 Z" fill="#000000" fill-rule="nonzero" fill-opacity="1" /><path clip-path="url(#clip310)" d="M91.5706 699.793 L99.2095 699.793 L99.2095 673.427 L90.8993 675.094 L90.8993 670.835 L99.1632 669.168 L103.839 669.168 L103.839 699.793 L111.478 699.793 L111.478 703.728 L91.5706 703.728 L91.5706 699.793 Z" fill="#000000" fill-rule="nonzero" fill-opacity="1" /><path clip-path="url(#clip310)" d="M130.922 672.247 Q127.311 672.247 125.482 675.811 Q123.677 679.353 123.677 686.483 Q123.677 693.589 125.482 697.154 Q127.311 700.695 130.922 700.695 Q134.556 700.695 136.362 697.154 Q138.191 693.589 138.191 686.483 Q138.191 679.353 136.362 675.811 Q134.556 672.247 130.922 672.247 M130.922 668.543 Q136.732 668.543 139.788 673.149 Q142.867 677.733 142.867 686.483 Q142.867 695.209 139.788 699.816 Q136.732 704.399 130.922 704.399 Q125.112 704.399 122.033 699.816 Q118.978 695.209 118.978 686.483 Q118.978 677.733 122.033 673.149 Q125.112 668.543 130.922 668.543 Z" fill="#000000" fill-rule="nonzero" fill-opacity="1" /><path clip-path="url(#clip310)" d="M82.1494 527.098 L111.825 527.098 L111.825 531.033 L82.1494 531.033 L82.1494 527.098 Z" fill="#000000" fill-rule="nonzero" fill-opacity="1" /><path clip-path="url(#clip310)" d="M121.964 509.367 L140.32 509.367 L140.32 513.302 L126.246 513.302 L126.246 521.774 Q127.265 521.427 128.283 521.265 Q129.302 521.08 130.32 521.08 Q136.107 521.08 139.487 524.251 Q142.867 527.422 142.867 532.839 Q142.867 538.418 139.394 541.52 Q135.922 544.598 129.603 544.598 Q127.427 544.598 125.158 544.228 Q122.913 543.857 120.506 543.117 L120.506 538.418 Q122.589 539.552 124.811 540.108 Q127.033 540.663 129.51 540.663 Q133.515 540.663 135.853 538.557 Q138.191 536.45 138.191 532.839 Q138.191 529.228 135.853 527.121 Q133.515 525.015 129.51 525.015 Q127.635 525.015 125.76 525.432 Q123.908 525.848 121.964 526.728 L121.964 509.367 Z" fill="#000000" fill-rule="nonzero" fill-opacity="1" /><path clip-path="url(#clip310)" d="M130.922 352.645 Q127.311 352.645 125.482 356.209 Q123.677 359.751 123.677 366.881 Q123.677 373.987 125.482 377.552 Q127.311 381.094 130.922 381.094 Q134.556 381.094 136.362 377.552 Q138.191 373.987 138.191 366.881 Q138.191 359.751 136.362 356.209 Q134.556 352.645 130.922 352.645 M130.922 348.941 Q136.732 348.941 139.788 353.547 Q142.867 358.131 142.867 366.881 Q142.867 375.608 139.788 380.214 Q136.732 384.797 130.922 384.797 Q125.112 384.797 122.033 380.214 Q118.978 375.608 118.978 366.881 Q118.978 358.131 122.033 353.547 Q125.112 348.941 130.922 348.941 Z" fill="#000000" fill-rule="nonzero" fill-opacity="1" /><path clip-path="url(#clip310)" d="M121.964 189.765 L140.32 189.765 L140.32 193.7 L126.246 193.7 L126.246 202.172 Q127.265 201.825 128.283 201.663 Q129.302 201.478 130.32 201.478 Q136.107 201.478 139.487 204.649 Q142.867 207.82 142.867 213.237 Q142.867 218.816 139.394 221.918 Q135.922 224.996 129.603 224.996 Q127.427 224.996 125.158 224.626 Q122.913 224.256 120.506 223.515 L120.506 218.816 Q122.589 219.95 124.811 220.506 Q127.033 221.061 129.51 221.061 Q133.515 221.061 135.853 218.955 Q138.191 216.848 138.191 213.237 Q138.191 209.626 135.853 207.52 Q133.515 205.413 129.51 205.413 Q127.635 205.413 125.76 205.83 Q123.908 206.246 121.964 207.126 L121.964 189.765 Z" fill="#000000" fill-rule="nonzero" fill-opacity="1" /><path clip-path="url(#clip310)" d="M91.5706 60.5889 L99.2095 60.5889 L99.2095 34.2233 L90.8993 35.89 L90.8993 31.6308 L99.1632 29.9641 L103.839 29.9641 L103.839 60.5889 L111.478 60.5889 L111.478 64.5241 L91.5706 64.5241 L91.5706 60.5889 Z" fill="#000000" fill-rule="nonzero" fill-opacity="1" /><path clip-path="url(#clip310)" d="M130.922 33.0428 Q127.311 33.0428 125.482 36.6076 Q123.677 40.1492 123.677 47.2788 Q123.677 54.3853 125.482 57.9501 Q127.311 61.4917 130.922 61.4917 Q134.556 61.4917 136.362 57.9501 Q138.191 54.3853 138.191 47.2788 Q138.191 40.1492 136.362 36.6076 Q134.556 33.0428 130.922 33.0428 M130.922 29.3391 Q136.732 29.3391 139.788 33.9456 Q142.867 38.5289 142.867 47.2788 Q142.867 56.0056 139.788 60.6121 Q136.732 65.1954 130.922 65.1954 Q125.112 65.1954 122.033 60.6121 Q118.978 56.0056 118.978 47.2788 Q118.978 38.5289 122.033 33.9456 Q125.112 29.3391 130.922 29.3391 Z" fill="#000000" fill-rule="nonzero" fill-opacity="1" /><polyline clip-path="url(#clip312)" style="stroke:#009af9; stroke-linecap:round; stroke-linejoin:round; stroke-width:4; stroke-opacity:1; fill:none" points="240.392,334.886 242.445,337.006 244.498,336.072 246.55,336.168 248.603,335.888 250.656,335.61 252.709,335.318 254.762,335.316 256.815,335.381 258.868,335.539 260.921,335.056 262.974,335.007 265.027,336.122 267.079,336.385 269.132,343.433 271.185,346.582 273.238,345.015 275.291,350.577 277.344,353.928 279.397,354.233 281.45,354.454 283.503,351.574 285.555,344.771 287.608,343.842 289.661,344.158 291.714,344.989 293.767,347.889 295.82,325.468 297.873,325.696 299.926,322.877 301.979,322.87 304.031,324.212 306.084,326.965 308.137,327.063 310.19,326.953 312.243,329.875 314.296,332.323 316.349,331.284 318.402,331.353 320.455,332.51 322.507,332.226 324.56,331.258 326.613,343.376 328.666,337.125 330.719,336.559 332.772,347.958 334.825,366.317 336.878,394.91 338.931,393.358 340.984,362.257 343.036,357.32 345.089,349.954 347.142,360.156 349.195,341.866 351.248,356.085 353.301,355.461 355.354,339.996 357.407,339.99 359.46,315.157 361.512,291.322 363.565,291.371 365.618,297.94 367.671,297.907 369.724,297.067 371.777,301.857 373.83,313.821 375.883,331.532 377.936,320.551 379.988,317.645 382.041,317.335 384.094,317.894 386.147,305.136 388.2,311.833 390.253,311.859 392.306,311.923 394.359,324.226 396.412,343.804 398.464,343.936 400.517,344.818 402.57,343.468 404.623,291.736 406.676,446.363 408.729,445.816 410.782,444.039 412.835,409.36 414.888,396.911 416.94,409.028 418.993,400.301 421.046,345.783 423.099,346.001 425.152,345.738 427.205,345.092 429.258,347.41 431.311,388.11 433.364,332.989 435.417,295.829 437.469,343.137 439.522,336.612 441.575,328.373 443.628,332.54 445.681,289.882 447.734,261.698 449.787,261.386 451.84,303.525 453.893,442.706 455.945,432.684 457.998,410.803 460.051,416.902 462.104,437.392 464.157,440.718 466.21,285.411 468.263,283.717 470.316,295.422 472.369,362.374 474.421,319.405 476.474,316.096 478.527,314.362 480.58,342.692 482.633,342.609 484.686,339.105 486.739,318.647 488.792,315.25 490.845,314.658 492.897,317.727 494.95,338.415 497.003,372.431 499.056,367.72 501.109,363.639 503.162,346.629 505.215,342.125 507.268,342.347 509.321,342.295 511.374,430.599 513.426,362.174 515.479,390.068 517.532,435.662 519.585,484.966 521.638,356.968 523.691,319.08 525.744,335.89 527.797,326.825 529.85,378.516 531.902,375.519 533.955,314.756 536.008,288.652 538.061,276.368 540.114,276.327 542.167,290.943 544.22,199.646 546.273,381.281 548.326,388.755 550.378,401.68 552.431,481.57 554.484,566.2 556.537,546.569 558.59,546.174 560.643,546.41 562.696,494.367 564.749,496.409 566.802,428.274 568.854,442.116 570.907,445.604 572.96,472.449 575.013,484.896 577.066,505.639 579.119,511.735 581.172,512.476 583.225,560.414 585.278,563.214 587.331,558.994 589.383,399.739 591.436,232.738 593.489,273.754 595.542,271.809 597.595,315.641 599.648,322.801 601.701,502.037 603.754,517.757 605.807,511.713 607.859,442.141 609.912,456.03 611.965,422.988 614.018,295.623 616.071,180.841 618.124,177.116 620.177,184.839 622.23,185.435 624.283,180.252 626.335,248.373 628.388,187.188 630.441,75.597 632.494,32.4147 634.547,363.229 636.6,348.78 638.653,334.173 640.706,273.597 642.759,277.846 644.811,338.318 646.864,444.436 648.917,413.462 650.97,495.64 653.023,492.065 655.076,550.472 657.129,487.984 659.182,488.716 661.235,522.526 663.288,474.17 665.34,469.753 667.393,467.908 669.446,463.835 671.499,507.162 673.552,510.601 675.605,493.789 677.658,501.64 679.711,501.653 681.764,551.113 683.816,536.073 685.869,517.277 687.922,511.862 689.975,401.399 692.028,388.647 694.081,384.083 696.134,396.965 698.187,400.382 700.24,399.406 702.292,395.586 704.345,397.473 706.398,390.081 708.451,365.641 710.504,366.698 712.557,365.336 714.61,349.223 716.663,322.598 718.716,321.104 720.768,357.462 722.821,355.834 724.874,355.571 726.927,355.57 728.98,378.928 731.033,350.386 733.086,351.748 735.139,353.187 737.192,352.805 739.245,362.833 741.297,376.965 743.35,350.672 745.403,349.759 747.456,341.63 749.509,320.026 751.562,324.239 753.615,340.845 755.668,345.342 757.721,343.861 759.773,343.522 761.826,344.133 763.879,336.814 765.932,336.286 767.985,336.285 770.038,384.616 772.091,383.762 774.144,383.673 776.197,383.674 778.249,383.62 780.302,384.356 782.355,384.131 784.408,384.16 786.461,379.032 788.514,376.272 790.567,377.488 792.62,377.128 794.673,363.815 796.725,353.783 798.778,340.256 800.831,340.412 802.884,329.919 804.937,357.228 806.99,360.191 809.043,359.622 811.096,373.165 813.149,362.533 815.202,373.677 817.254,372.312 819.307,371.704 821.36,380.884 823.413,381.288 825.466,380.821 827.519,381.529 829.572,361.35 831.625,354.521 833.678,361.524 835.73,372.511 837.783,372.544 839.836,372.699 841.889,370.74 843.942,363.591 845.995,369.752 848.048,369.023 850.101,370.407 852.154,370.668 854.206,368.974 856.259,376.52 858.312,379.293 860.365,401.815 862.418,402.382 864.471,401.976 866.524,402.407 868.577,407.433 870.63,409.7 872.682,403.5 874.735,334.547 876.788,333.996 878.841,339.075 880.894,339.241 882.947,339.46 885,347.192 887.053,347.62 889.106,361.343 891.159,371.781 893.211,370.538 895.264,370.386 897.317,369.067 899.37,359.318 901.423,359.344 903.476,364.055 905.529,370.862 907.582,350.542 909.635,350.544 911.687,351.048 913.74,351.35 915.793,350.148 917.846,352.641 919.899,357.967 921.952,357.108 924.005,350.33 926.058,356.842 928.111,362.031 930.163,362.498 932.216,363.791 934.269,365.056 936.322,370.217 938.375,369.997 940.428,370.032 942.481,369.335 944.534,366.36 946.587,365.842 948.639,365.287 950.692,377.424 952.745,378.513 954.798,378.561 956.851,378.52 958.904,380.03 960.957,380.27 963.01,380.206 965.063,384.07 967.116,383.416 969.168,380.511 971.221,380.507 973.274,380.713 975.327,376.567 977.38,376.439 979.433,372.145 981.486,372.339 983.539,371.318 985.592,371.358 987.644,371.313 989.697,387.993 991.75,387.995 993.803,360.953 995.856,361.236 997.909,357.94 999.962,357.362 1002.01,353.498 1004.07,355.471 1006.12,357.578 1008.17,360.458 1010.23,360.03 1012.28,361.835 1014.33,360.216 1016.38,349.598 1018.44,346.544 1020.49,343.538 1022.54,343.429 1024.6,342.723 1026.65,351.444 1028.7,351.432 1030.76,352.369 1032.81,352.993 1034.86,357.71 1036.91,357.973 1038.97,369.106 1041.02,387.587 1043.07,406.72 1045.13,416.543 1047.18,392.302 1049.23,396.327 1051.28,401.89 1053.34,401.612 1055.39,399.718 1057.44,393.616 1059.5,393.647 1061.55,393.729 1063.6,393.731 1065.65,395.398 1067.71,383.994 1069.76,394.01 1071.81,391.108 1073.87,391.194 1075.92,369.563 1077.97,368.506 1080.02,370.513 1082.08,360.869 1084.13,373.555 1086.18,375.86 1088.24,323.79 1090.29,327.795 1092.34,320.819 1094.39,403.904 1096.45,403.097 1098.5,403.246 1100.55,396.259 1102.61,395.201 1104.66,397.854 1106.71,397.939 1108.77,382.544 1110.82,376.19 1112.87,380.132 1114.92,384.659 1116.98,381.724 1119.03,385.421 1121.08,386.74 1123.14,386.142 1125.19,394.676 1127.24,391.729 1129.29,421.66 1131.35,427.091 1133.4,424.305 1135.45,427.763 1137.51,427.491 1139.56,427.598 1141.61,428.636 1143.66,431.032 1145.72,438.146 1147.77,437.198 1149.82,421.226 1151.88,416.135 1153.93,410.585 1155.98,411.941 1158.03,407.11 1160.09,408.755 1162.14,408.688 1164.19,407.787 1166.25,407.911 1168.3,403.281 1170.35,399.062 1172.4,406.298 1174.46,422.703 1176.51,422.305 1178.56,407.186 1180.62,406.835 1182.67,404.527 1184.72,403.106 1186.77,401.695 1188.83,403.06 1190.88,399.434 1192.93,417.473 1194.99,419.957 1197.04,412.807 1199.09,416.28 1201.15,414.328 1203.2,418.653 1205.25,421.784 1207.3,422.195 1209.36,417.008 1211.41,416.918 1213.46,391.732 1215.52,389.92 1217.57,389.126 1219.62,388.827 1221.67,375.465 1223.73,396.683 1225.78,394.231 1227.83,397.435 1229.89,398.855 1231.94,398.853 1233.99,388.196 1236.04,381.757 1238.1,382.628 1240.15,386.061 1242.2,378.827 1244.26,372.385 1246.31,372.247 1248.36,376.09 1250.41,380.401 1252.47,381.292 1254.52,384.404 1256.57,381.248 1258.63,381.438 1260.68,380.189 1262.73,380.145 1264.78,371.123 1266.84,398.316 1268.89,395.743 1270.94,393.799 1273,395.782 1275.05,395.37 1277.1,396.604 1279.16,395.893 1281.21,395.355 1283.26,395.55 1285.31,381.13 1287.37,381.141 1289.42,343.791 1291.47,372.322 1293.53,373.755 1295.58,369.36 1297.63,362.333 1299.68,364.086 1301.74,374.683 1303.79,373.431 1305.84,405.641 1307.9,412.113 1309.95,423.319 1312,422.888 1314.05,439.555 1316.11,433.959 1318.16,328.39 1320.21,328.388 1322.27,328.43 1324.32,306.994 1326.37,305.02 1328.42,295.239 1330.48,294.865 1332.53,384.423 1334.58,382.726 1336.64,430.451 1338.69,438.762 1340.74,406.291 1342.79,264.387 1344.85,264.849 1346.9,458.59 1348.95,473.518 1351.01,473.078 1353.06,432.607 1355.11,403.819 1357.16,418.412 1359.22,418.386 1361.27,413.307 1363.32,466.873 1365.38,464.233 1367.43,472.021 1369.48,423.018 1371.54,446.079 1373.59,445.704 1375.64,450.917 1377.69,450.929 1379.75,451.13 1381.8,455.497 1383.85,455.501 1385.91,459.328 1387.96,458.354 1390.01,452.274 1392.06,354.773 1394.12,349.873 1396.17,335.921 1398.22,329.735 1400.28,329.504 1402.33,374.404 1404.38,345.098 1406.43,336.917 1408.49,334.247 1410.54,377.337 1412.59,393.751 1414.65,383.691 1416.7,373.629 1418.75,360.469 1420.8,360.678 1422.86,358.889 1424.91,358.836 1426.96,358.684 1429.02,362.592 1431.07,383.738 1433.12,388.948 1435.17,290.064 1437.23,308.481 1439.28,316.057 1441.33,319.603 1443.39,322.57 1445.44,321.621 1447.49,321.6 1449.55,319.173 1451.6,319.229 1453.65,275.905 1455.7,272.484 1457.76,349.451 1459.81,425.938 1461.86,338.838 1463.92,336.919 1465.97,343.103 1468.02,344.307 1470.07,350.005 1472.13,360.455 1474.18,361.384 1476.23,371.988 1478.29,374.975 1480.34,395.43 1482.39,316.406 1484.44,405.094 1486.5,442.32 1488.55,427.041 1490.6,384.389 1492.66,377.332 1494.71,380.67 1496.76,384.831 1498.81,387.392 1500.87,388.808 1502.92,369.329 1504.97,371.477 1507.03,347.812 1509.08,350.096 1511.13,350.43 1513.18,374.698 1515.24,371.993 1517.29,363.621 1519.34,363.643 1521.4,354.03 1523.45,354.304 1525.5,356.749 1527.55,374.052 1529.61,376.603 1531.66,345.944 1533.71,348.826 1535.77,347.863 1537.82,341.131 1539.87,350.899 1541.93,367.755 1543.98,325.788 1546.03,311.68 1548.08,317.161 1550.14,327.694 1552.19,327.721 1554.24,366.255 1556.3,367.556 1558.35,360.749 1560.4,357.538 1562.45,369.689 1564.51,369.853 1566.56,274.894 1568.61,283.111 1570.67,325.607 1572.72,324.743 1574.77,315.941 1576.82,404.724 1578.88,417.592 1580.93,417.496 1582.98,429.76 1585.04,429.385 1587.09,372.056 1589.14,377.583 1591.19,376.841 1593.25,376.91 1595.3,376.819 1597.35,368.784 1599.41,368.445 1601.46,379.212 1603.51,378.761 1605.56,347.076 1607.62,347.496 1609.67,347.292 1611.72,347.911 1613.78,386.286 1615.83,381.932 1617.88,397.756 1619.94,396.7 1621.99,396.185 1624.04,395.847 1626.09,354.847 1628.15,333.593 1630.2,327.534 1632.25,336.98 1634.31,341.952 1636.36,357.436 1638.41,354.555 1640.46,354.57 1642.52,354.839 1644.57,353.571 1646.62,353.548 1648.68,335.352 1650.73,342.752 1652.78,341.718 1654.83,340.508 1656.89,344.272 1658.94,358.391 1660.99,375.232 1663.05,378.264 1665.1,378.223 1667.15,386.288 1669.2,332.349 1671.26,407.897 1673.31,427.034 1675.36,420.236 1677.42,419.465 1679.47,457.979 1681.52,467.997 1683.57,476.381 1685.63,471.583 1687.68,472.881 1689.73,469.533 1691.79,466.159 1693.84,448.238 1695.89,443.384 1697.94,450.856 1700,450.885 1702.05,452.378 1704.1,458.155 1706.16,458.271 1708.21,432.14 1710.26,460.43 1712.32,452.558 1714.37,451.331 1716.42,443.279 1718.47,435.887 1720.53,423.53 1722.58,420.979 1724.63,399.752 1726.69,396.494 1728.74,385.374 1730.79,386.718 1732.84,387.083 1734.9,373.537 1736.95,363.454 1739,376.09 1741.06,370.919 1743.11,375.479 1745.16,373.382 1747.21,370.33 1749.27,380.881 1751.32,350.842 1753.37,304.652 1755.43,350.942 1757.48,387.083 1759.53,380.023 1761.58,380.271 1763.64,379.934 1765.69,391.692 1767.74,385.684 1769.8,390.803 1771.85,381.263 1773.9,381.283 1775.95,380.913 1778.01,380.639 1780.06,424.673 1782.11,424.699 1784.17,421.857 1786.22,461.279 1788.27,459.588 1790.33,459.57 1792.38,444.454 1794.43,438.343 1796.48,438.375 1798.54,438.257 1800.59,438.84 1802.64,441.96 1804.7,374.4 1806.75,374.19 1808.8,375.067 1810.85,376.804 1812.91,377.234 1814.96,361.893 1817.01,377.571 1819.07,364.836 1821.12,363.529 1823.17,375.6 1825.22,366.654 1827.28,354.18 1829.33,338.547 1831.38,338.58 1833.44,338.415 1835.49,337.938 1837.54,337.821 1839.59,333.377 1841.65,330.424 1843.7,327.731 1845.75,319.592 1847.81,319.63 1849.86,288.095 1851.91,288.596 1853.96,303.806 1856.02,305.362 1858.07,336.304 1860.12,343.241 1862.18,353.551 1864.23,367.346 1866.28,366.633 1868.34,366.746 1870.39,394.517 1872.44,395.261 1874.49,384.822 1876.55,372.155 1878.6,361.77 1880.65,317.787 1882.71,333.598 1884.76,339.26 1886.81,338.995 1888.86,345.829 1890.92,351.435 1892.97,351.905 1895.02,351.831 1897.08,353.486 1899.13,356.71 1901.18,355.518 1903.23,355.882 1905.29,363.023 1907.34,382.451 1909.39,384.483 1911.45,393.478 1913.5,387.226 1915.55,383.039 1917.6,384.866 1919.66,379.906 1921.71,428.669 1923.76,430.505 1925.82,430.968 1927.87,430.737 1929.92,430.704 1931.97,431.637 1934.03,431.808 1936.08,418.597 1938.13,418.768 1940.19,418.763 1942.24,321.741 1944.29,335.905 1946.34,344.288 1948.4,343.114 1950.45,336.938 1952.5,339.659 1954.56,340.483 1956.61,340.494 1958.66,340.043 1960.72,341.076 1962.77,341.123 1964.82,341.097 1966.87,341.247 1968.93,340.634 1970.98,340.378 1973.03,343.618 1975.09,345.724 1977.14,341.598 1979.19,345.728 1981.24,342.005 1983.3,344.991 1985.35,314.415 1987.4,316.234 1989.46,384.154 1991.51,391.666 1993.56,331.045 1995.61,306.886 1997.67,404.973 1999.72,405.041 2001.77,405.563 2003.83,413.125 2005.88,403.195 2007.93,399.246 2009.98,381.186 2012.04,381.078 2014.09,380.35 2016.14,359.695 2018.2,356.954 2020.25,357.028 2022.3,352.852 2024.35,353.135 2026.41,369.254 2028.46,380.949 2030.51,376.246 2032.57,387.838 2034.62,386.172 2036.67,399.551 2038.73,416.892 2040.78,417.296 2042.83,411.758 2044.88,410.78 2046.94,383.84 2048.99,387.452 2051.04,389.154 2053.1,391.498 2055.15,357.753 2057.2,357.678 2059.25,381.816 2061.31,381.602 2063.36,380.59 2065.41,373.777 2067.47,374.536 2069.52,374.609 2071.57,374.593 2073.62,374.55 2075.68,374.522 2077.73,374.087 2079.78,374.184 2081.84,365.592 2083.89,366.986 2085.94,367.041 2087.99,366.634 2090.05,367.234 2092.1,367.175 2094.15,383.123 2096.21,391.928 2098.26,391.902 2100.31,385.51 2102.36,346.237 2104.42,333.111 2106.47,416.89 2108.52,419.907 2110.58,410.777 2112.63,410.971 2114.68,343.96 2116.73,338.972 2118.79,337.804 2120.84,337.244 2122.89,336.553 2124.95,336.158 2127,336.213 2129.05,331.846 2131.11,329.846 2133.16,326.491 2135.21,313.304 2137.26,318.915 2139.32,318.689 2141.37,318.033 2143.42,318.103 2145.48,322.42 2147.53,324.686 2149.58,324.4 2151.63,318.857 2153.69,310.711 2155.74,310.795 2157.79,308.456 2159.85,335.165 2161.9,333.983 2163.95,336.567 2166,379.75 2168.06,379.109 2170.11,398.862 2172.16,399.543 2174.22,400.658 2176.27,397.708 2178.32,388.894 2180.37,389.513 2182.43,389.707 2184.48,389.697 2186.53,371.376 2188.59,371.749 2190.64,388.904 2192.69,354.444 2194.74,391.219 2196.8,391.768 2198.85,381.632 2200.9,381.793 2202.96,385.064 2205.01,376.401 2207.06,381.977 2209.12,384.599 2211.17,384.56 2213.22,365.223 2215.27,368.547 2217.33,360.107 2219.38,354.828 2221.43,356.364 2223.49,357.334 2225.54,355.101 2227.59,356.235 2229.64,344.487 2231.7,344.445 2233.75,345.166 2235.8,349.527 2237.86,354.113 2239.91,353.787 2241.96,355.088 2244.01,357.318 2246.07,358.109 2248.12,357.109 2250.17,377.533 2252.23,375.186 2254.28,390.672 2256.33,390.651 2258.38,391.742 2260.44,391.205 2262.49,407.335 2264.54,414.798 2266.6,405.217 2268.65,405.753 2270.7,394.749 2272.75,394.729 2274.81,399.921 2276.86,403.813 2278.91,403.487 2280.97,403.756 2283.02,370.243 2285.07,370.192 2287.12,360.942 2289.18,360.197 2291.23,374.43 "/>
<path clip-path="url(#clip310)" d="M1983.6 172.231 L2280.29 172.231 L2280.29 68.5509 L1983.6 68.5509  Z" fill="#ffffff" fill-rule="evenodd" fill-opacity="1"/>
<polyline clip-path="url(#clip310)" style="stroke:#000000; stroke-linecap:round; stroke-linejoin:round; stroke-width:4; stroke-opacity:1; fill:none" points="1983.6,172.231 2280.29,172.231 2280.29,68.5509 1983.6,68.5509 1983.6,172.231 "/>
<polyline clip-path="url(#clip310)" style="stroke:#009af9; stroke-linecap:round; stroke-linejoin:round; stroke-width:4; stroke-opacity:1; fill:none" points="2007.75,120.391 2152.68,120.391 "/>
<path clip-path="url(#clip310)" d="M2176.83 103.111 L2181.51 103.111 L2181.51 133.736 L2198.34 133.736 L2198.34 137.671 L2176.83 137.671 L2176.83 103.111 Z" fill="#000000" fill-rule="nonzero" fill-opacity="1" /><path clip-path="url(#clip310)" d="M2223.96 104.245 L2223.96 108.805 Q2221.3 107.532 2218.94 106.907 Q2216.58 106.282 2214.38 106.282 Q2210.56 106.282 2208.48 107.764 Q2206.42 109.245 2206.42 111.977 Q2206.42 114.268 2207.78 115.449 Q2209.17 116.606 2213.01 117.324 L2215.84 117.902 Q2221.07 118.898 2223.55 121.421 Q2226.05 123.921 2226.05 128.134 Q2226.05 133.157 2222.67 135.75 Q2219.31 138.342 2212.81 138.342 Q2210.35 138.342 2207.57 137.787 Q2204.82 137.231 2201.86 136.143 L2201.86 131.328 Q2204.7 132.926 2207.44 133.736 Q2210.17 134.546 2212.81 134.546 Q2216.81 134.546 2218.99 132.972 Q2221.16 131.398 2221.16 128.481 Q2221.16 125.935 2219.59 124.5 Q2218.04 123.064 2214.47 122.347 L2211.62 121.791 Q2206.39 120.75 2204.06 118.527 Q2201.72 116.305 2201.72 112.347 Q2201.72 107.764 2204.94 105.125 Q2208.18 102.486 2213.85 102.486 Q2216.28 102.486 2218.8 102.926 Q2221.32 103.366 2223.96 104.245 Z" fill="#000000" fill-rule="nonzero" fill-opacity="1" /><path clip-path="url(#clip310)" d="M2254.06 104.245 L2254.06 108.805 Q2251.39 107.532 2249.03 106.907 Q2246.67 106.282 2244.47 106.282 Q2240.65 106.282 2238.57 107.764 Q2236.51 109.245 2236.51 111.977 Q2236.51 114.268 2237.87 115.449 Q2239.26 116.606 2243.11 117.324 L2245.93 117.902 Q2251.16 118.898 2253.64 121.421 Q2256.14 123.921 2256.14 128.134 Q2256.14 133.157 2252.76 135.75 Q2249.4 138.342 2242.9 138.342 Q2240.44 138.342 2237.67 137.787 Q2234.91 137.231 2231.95 136.143 L2231.95 131.328 Q2234.8 132.926 2237.53 133.736 Q2240.26 134.546 2242.9 134.546 Q2246.9 134.546 2249.08 132.972 Q2251.25 131.398 2251.25 128.481 Q2251.25 125.935 2249.68 124.5 Q2248.13 123.064 2244.56 122.347 L2241.72 121.791 Q2236.49 120.75 2234.15 118.527 Q2231.81 116.305 2231.81 112.347 Q2231.81 107.764 2235.03 105.125 Q2238.27 102.486 2243.94 102.486 Q2246.37 102.486 2248.89 102.926 Q2251.42 103.366 2254.06 104.245 Z" fill="#000000" fill-rule="nonzero" fill-opacity="1" /><path clip-path="url(#clip310)" d="M178.867 1486.45 L2352.76 1486.45 L2352.76 847.244 L178.867 847.244  Z" fill="#ffffff" fill-rule="evenodd" fill-opacity="1"/>
<defs>
  <clipPath id="clip313">
    <rect x="178" y="847" width="2175" height="640"/>
  </clipPath>
</defs>
<polyline clip-path="url(#clip313)" style="stroke:#000000; stroke-linecap:round; stroke-linejoin:round; stroke-width:2; stroke-opacity:0.1; fill:none" points="238.339,1486.45 238.339,847.244 "/>
<polyline clip-path="url(#clip313)" style="stroke:#000000; stroke-linecap:round; stroke-linejoin:round; stroke-width:2; stroke-opacity:0.1; fill:none" points="751.562,1486.45 751.562,847.244 "/>
<polyline clip-path="url(#clip313)" style="stroke:#000000; stroke-linecap:round; stroke-linejoin:round; stroke-width:2; stroke-opacity:0.1; fill:none" points="1264.78,1486.45 1264.78,847.244 "/>
<polyline clip-path="url(#clip313)" style="stroke:#000000; stroke-linecap:round; stroke-linejoin:round; stroke-width:2; stroke-opacity:0.1; fill:none" points="1778.01,1486.45 1778.01,847.244 "/>
<polyline clip-path="url(#clip313)" style="stroke:#000000; stroke-linecap:round; stroke-linejoin:round; stroke-width:2; stroke-opacity:0.1; fill:none" points="2291.23,1486.45 2291.23,847.244 "/>
<polyline clip-path="url(#clip313)" style="stroke:#000000; stroke-linecap:round; stroke-linejoin:round; stroke-width:2; stroke-opacity:0.1; fill:none" points="178.867,1486.45 2352.76,1486.45 "/>
<polyline clip-path="url(#clip313)" style="stroke:#000000; stroke-linecap:round; stroke-linejoin:round; stroke-width:2; stroke-opacity:0.1; fill:none" points="178.867,1326.65 2352.76,1326.65 "/>
<polyline clip-path="url(#clip313)" style="stroke:#000000; stroke-linecap:round; stroke-linejoin:round; stroke-width:2; stroke-opacity:0.1; fill:none" points="178.867,1166.85 2352.76,1166.85 "/>
<polyline clip-path="url(#clip313)" style="stroke:#000000; stroke-linecap:round; stroke-linejoin:round; stroke-width:2; stroke-opacity:0.1; fill:none" points="178.867,1007.05 2352.76,1007.05 "/>
<polyline clip-path="url(#clip313)" style="stroke:#000000; stroke-linecap:round; stroke-linejoin:round; stroke-width:2; stroke-opacity:0.1; fill:none" points="178.867,847.244 2352.76,847.244 "/>
<polyline clip-path="url(#clip310)" style="stroke:#000000; stroke-linecap:round; stroke-linejoin:round; stroke-width:4; stroke-opacity:1; fill:none" points="178.867,1486.45 2352.76,1486.45 "/>
<polyline clip-path="url(#clip310)" style="stroke:#000000; stroke-linecap:round; stroke-linejoin:round; stroke-width:4; stroke-opacity:1; fill:none" points="238.339,1486.45 238.339,1467.55 "/>
<polyline clip-path="url(#clip310)" style="stroke:#000000; stroke-linecap:round; stroke-linejoin:round; stroke-width:4; stroke-opacity:1; fill:none" points="751.562,1486.45 751.562,1467.55 "/>
<polyline clip-path="url(#clip310)" style="stroke:#000000; stroke-linecap:round; stroke-linejoin:round; stroke-width:4; stroke-opacity:1; fill:none" points="1264.78,1486.45 1264.78,1467.55 "/>
<polyline clip-path="url(#clip310)" style="stroke:#000000; stroke-linecap:round; stroke-linejoin:round; stroke-width:4; stroke-opacity:1; fill:none" points="1778.01,1486.45 1778.01,1467.55 "/>
<polyline clip-path="url(#clip310)" style="stroke:#000000; stroke-linecap:round; stroke-linejoin:round; stroke-width:4; stroke-opacity:1; fill:none" points="2291.23,1486.45 2291.23,1467.55 "/>
<path clip-path="url(#clip310)" d="M238.339 1517.37 Q234.728 1517.37 232.899 1520.93 Q231.094 1524.47 231.094 1531.6 Q231.094 1538.71 232.899 1542.27 Q234.728 1545.82 238.339 1545.82 Q241.973 1545.82 243.779 1542.27 Q245.607 1538.71 245.607 1531.6 Q245.607 1524.47 243.779 1520.93 Q241.973 1517.37 238.339 1517.37 M238.339 1513.66 Q244.149 1513.66 247.205 1518.27 Q250.283 1522.85 250.283 1531.6 Q250.283 1540.33 247.205 1544.94 Q244.149 1549.52 238.339 1549.52 Q232.529 1549.52 229.45 1544.94 Q226.395 1540.33 226.395 1531.6 Q226.395 1522.85 229.45 1518.27 Q232.529 1513.66 238.339 1513.66 Z" fill="#000000" fill-rule="nonzero" fill-opacity="1" /><path clip-path="url(#clip310)" d="M715.254 1544.91 L731.574 1544.91 L731.574 1548.85 L709.629 1548.85 L709.629 1544.91 Q712.291 1542.16 716.875 1537.53 Q721.481 1532.88 722.662 1531.53 Q724.907 1529.01 725.787 1527.27 Q726.689 1525.51 726.689 1523.82 Q726.689 1521.07 724.745 1519.33 Q722.824 1517.6 719.722 1517.6 Q717.523 1517.6 715.069 1518.36 Q712.638 1519.13 709.861 1520.68 L709.861 1515.95 Q712.685 1514.82 715.138 1514.24 Q717.592 1513.66 719.629 1513.66 Q725 1513.66 728.194 1516.35 Q731.388 1519.03 731.388 1523.52 Q731.388 1525.65 730.578 1527.57 Q729.791 1529.47 727.685 1532.07 Q727.106 1532.74 724.004 1535.95 Q720.902 1539.15 715.254 1544.91 Z" fill="#000000" fill-rule="nonzero" fill-opacity="1" /><path clip-path="url(#clip310)" d="M741.435 1514.29 L759.791 1514.29 L759.791 1518.22 L745.717 1518.22 L745.717 1526.7 Q746.736 1526.35 747.754 1526.19 Q748.773 1526 749.791 1526 Q755.578 1526 758.958 1529.17 Q762.337 1532.34 762.337 1537.76 Q762.337 1543.34 758.865 1546.44 Q755.393 1549.52 749.073 1549.52 Q746.898 1549.52 744.629 1549.15 Q742.384 1548.78 739.976 1548.04 L739.976 1543.34 Q742.06 1544.47 744.282 1545.03 Q746.504 1545.58 748.981 1545.58 Q752.985 1545.58 755.323 1543.48 Q757.661 1541.37 757.661 1537.76 Q757.661 1534.15 755.323 1532.04 Q752.985 1529.94 748.981 1529.94 Q747.106 1529.94 745.231 1530.35 Q743.379 1530.77 741.435 1531.65 L741.435 1514.29 Z" fill="#000000" fill-rule="nonzero" fill-opacity="1" /><path clip-path="url(#clip310)" d="M781.55 1517.37 Q777.939 1517.37 776.11 1520.93 Q774.305 1524.47 774.305 1531.6 Q774.305 1538.71 776.11 1542.27 Q777.939 1545.82 781.55 1545.82 Q785.184 1545.82 786.99 1542.27 Q788.819 1538.71 788.819 1531.6 Q788.819 1524.47 786.99 1520.93 Q785.184 1517.37 781.55 1517.37 M781.55 1513.66 Q787.36 1513.66 790.416 1518.27 Q793.495 1522.85 793.495 1531.6 Q793.495 1540.33 790.416 1544.94 Q787.36 1549.52 781.55 1549.52 Q775.74 1549.52 772.661 1544.94 Q769.606 1540.33 769.606 1531.6 Q769.606 1522.85 772.661 1518.27 Q775.74 1513.66 781.55 1513.66 Z" fill="#000000" fill-rule="nonzero" fill-opacity="1" /><path clip-path="url(#clip310)" d="M1224.4 1514.29 L1242.76 1514.29 L1242.76 1518.22 L1228.69 1518.22 L1228.69 1526.7 Q1229.7 1526.35 1230.72 1526.19 Q1231.74 1526 1232.76 1526 Q1238.55 1526 1241.93 1529.17 Q1245.31 1532.34 1245.31 1537.76 Q1245.31 1543.34 1241.83 1546.44 Q1238.36 1549.52 1232.04 1549.52 Q1229.87 1549.52 1227.6 1549.15 Q1225.35 1548.78 1222.94 1548.04 L1222.94 1543.34 Q1225.03 1544.47 1227.25 1545.03 Q1229.47 1545.58 1231.95 1545.58 Q1235.95 1545.58 1238.29 1543.48 Q1240.63 1541.37 1240.63 1537.76 Q1240.63 1534.15 1238.29 1532.04 Q1235.95 1529.94 1231.95 1529.94 Q1230.07 1529.94 1228.2 1530.35 Q1226.35 1530.77 1224.4 1531.65 L1224.4 1514.29 Z" fill="#000000" fill-rule="nonzero" fill-opacity="1" /><path clip-path="url(#clip310)" d="M1264.52 1517.37 Q1260.91 1517.37 1259.08 1520.93 Q1257.27 1524.47 1257.27 1531.6 Q1257.27 1538.71 1259.08 1542.27 Q1260.91 1545.82 1264.52 1545.82 Q1268.15 1545.82 1269.96 1542.27 Q1271.79 1538.71 1271.79 1531.6 Q1271.79 1524.47 1269.96 1520.93 Q1268.15 1517.37 1264.52 1517.37 M1264.52 1513.66 Q1270.33 1513.66 1273.38 1518.27 Q1276.46 1522.85 1276.46 1531.6 Q1276.46 1540.33 1273.38 1544.94 Q1270.33 1549.52 1264.52 1549.52 Q1258.71 1549.52 1255.63 1544.94 Q1252.57 1540.33 1252.57 1531.6 Q1252.57 1522.85 1255.63 1518.27 Q1258.71 1513.66 1264.52 1513.66 Z" fill="#000000" fill-rule="nonzero" fill-opacity="1" /><path clip-path="url(#clip310)" d="M1294.68 1517.37 Q1291.07 1517.37 1289.24 1520.93 Q1287.44 1524.47 1287.44 1531.6 Q1287.44 1538.71 1289.24 1542.27 Q1291.07 1545.82 1294.68 1545.82 Q1298.31 1545.82 1300.12 1542.27 Q1301.95 1538.71 1301.95 1531.6 Q1301.95 1524.47 1300.12 1520.93 Q1298.31 1517.37 1294.68 1517.37 M1294.68 1513.66 Q1300.49 1513.66 1303.55 1518.27 Q1306.62 1522.85 1306.62 1531.6 Q1306.62 1540.33 1303.55 1544.94 Q1300.49 1549.52 1294.68 1549.52 Q1288.87 1549.52 1285.79 1544.94 Q1282.74 1540.33 1282.74 1531.6 Q1282.74 1522.85 1285.79 1518.27 Q1288.87 1513.66 1294.68 1513.66 Z" fill="#000000" fill-rule="nonzero" fill-opacity="1" /><path clip-path="url(#clip310)" d="M1736.28 1514.29 L1758.51 1514.29 L1758.51 1516.28 L1745.96 1548.85 L1741.08 1548.85 L1752.88 1518.22 L1736.28 1518.22 L1736.28 1514.29 Z" fill="#000000" fill-rule="nonzero" fill-opacity="1" /><path clip-path="url(#clip310)" d="M1767.67 1514.29 L1786.03 1514.29 L1786.03 1518.22 L1771.95 1518.22 L1771.95 1526.7 Q1772.97 1526.35 1773.99 1526.19 Q1775.01 1526 1776.03 1526 Q1781.82 1526 1785.2 1529.17 Q1788.57 1532.34 1788.57 1537.76 Q1788.57 1543.34 1785.1 1546.44 Q1781.63 1549.52 1775.31 1549.52 Q1773.14 1549.52 1770.87 1549.15 Q1768.62 1548.78 1766.21 1548.04 L1766.21 1543.34 Q1768.3 1544.47 1770.52 1545.03 Q1772.74 1545.58 1775.22 1545.58 Q1779.22 1545.58 1781.56 1543.48 Q1783.9 1541.37 1783.9 1537.76 Q1783.9 1534.15 1781.56 1532.04 Q1779.22 1529.94 1775.22 1529.94 Q1773.34 1529.94 1771.47 1530.35 Q1769.62 1530.77 1767.67 1531.65 L1767.67 1514.29 Z" fill="#000000" fill-rule="nonzero" fill-opacity="1" /><path clip-path="url(#clip310)" d="M1807.79 1517.37 Q1804.18 1517.37 1802.35 1520.93 Q1800.54 1524.47 1800.54 1531.6 Q1800.54 1538.71 1802.35 1542.27 Q1804.18 1545.82 1807.79 1545.82 Q1811.42 1545.82 1813.23 1542.27 Q1815.06 1538.71 1815.06 1531.6 Q1815.06 1524.47 1813.23 1520.93 Q1811.42 1517.37 1807.79 1517.37 M1807.79 1513.66 Q1813.6 1513.66 1816.65 1518.27 Q1819.73 1522.85 1819.73 1531.6 Q1819.73 1540.33 1816.65 1544.94 Q1813.6 1549.52 1807.79 1549.52 Q1801.98 1549.52 1798.9 1544.94 Q1795.84 1540.33 1795.84 1531.6 Q1795.84 1522.85 1798.9 1518.27 Q1801.98 1513.66 1807.79 1513.66 Z" fill="#000000" fill-rule="nonzero" fill-opacity="1" /><path clip-path="url(#clip310)" d="M2235.76 1544.91 L2243.4 1544.91 L2243.4 1518.55 L2235.09 1520.21 L2235.09 1515.95 L2243.35 1514.29 L2248.02 1514.29 L2248.02 1544.91 L2255.66 1544.91 L2255.66 1548.85 L2235.76 1548.85 L2235.76 1544.91 Z" fill="#000000" fill-rule="nonzero" fill-opacity="1" /><path clip-path="url(#clip310)" d="M2275.11 1517.37 Q2271.5 1517.37 2269.67 1520.93 Q2267.86 1524.47 2267.86 1531.6 Q2267.86 1538.71 2269.67 1542.27 Q2271.5 1545.82 2275.11 1545.82 Q2278.74 1545.82 2280.55 1542.27 Q2282.38 1538.71 2282.38 1531.6 Q2282.38 1524.47 2280.55 1520.93 Q2278.74 1517.37 2275.11 1517.37 M2275.11 1513.66 Q2280.92 1513.66 2283.97 1518.27 Q2287.05 1522.85 2287.05 1531.6 Q2287.05 1540.33 2283.97 1544.94 Q2280.92 1549.52 2275.11 1549.52 Q2269.3 1549.52 2266.22 1544.94 Q2263.16 1540.33 2263.16 1531.6 Q2263.16 1522.85 2266.22 1518.27 Q2269.3 1513.66 2275.11 1513.66 Z" fill="#000000" fill-rule="nonzero" fill-opacity="1" /><path clip-path="url(#clip310)" d="M2305.27 1517.37 Q2301.66 1517.37 2299.83 1520.93 Q2298.02 1524.47 2298.02 1531.6 Q2298.02 1538.71 2299.83 1542.27 Q2301.66 1545.82 2305.27 1545.82 Q2308.9 1545.82 2310.71 1542.27 Q2312.54 1538.71 2312.54 1531.6 Q2312.54 1524.47 2310.71 1520.93 Q2308.9 1517.37 2305.27 1517.37 M2305.27 1513.66 Q2311.08 1513.66 2314.14 1518.27 Q2317.21 1522.85 2317.21 1531.6 Q2317.21 1540.33 2314.14 1544.94 Q2311.08 1549.52 2305.27 1549.52 Q2299.46 1549.52 2296.38 1544.94 Q2293.33 1540.33 2293.33 1531.6 Q2293.33 1522.85 2296.38 1518.27 Q2299.46 1513.66 2305.27 1513.66 Z" fill="#000000" fill-rule="nonzero" fill-opacity="1" /><path clip-path="url(#clip310)" d="M2335.43 1517.37 Q2331.82 1517.37 2329.99 1520.93 Q2328.19 1524.47 2328.19 1531.6 Q2328.19 1538.71 2329.99 1542.27 Q2331.82 1545.82 2335.43 1545.82 Q2339.07 1545.82 2340.87 1542.27 Q2342.7 1538.71 2342.7 1531.6 Q2342.7 1524.47 2340.87 1520.93 Q2339.07 1517.37 2335.43 1517.37 M2335.43 1513.66 Q2341.24 1513.66 2344.3 1518.27 Q2347.38 1522.85 2347.38 1531.6 Q2347.38 1540.33 2344.3 1544.94 Q2341.24 1549.52 2335.43 1549.52 Q2329.62 1549.52 2326.54 1544.94 Q2323.49 1540.33 2323.49 1531.6 Q2323.49 1522.85 2326.54 1518.27 Q2329.62 1513.66 2335.43 1513.66 Z" fill="#000000" fill-rule="nonzero" fill-opacity="1" /><polyline clip-path="url(#clip310)" style="stroke:#000000; stroke-linecap:round; stroke-linejoin:round; stroke-width:4; stroke-opacity:1; fill:none" points="178.867,1486.45 178.867,847.244 "/>
<polyline clip-path="url(#clip310)" style="stroke:#000000; stroke-linecap:round; stroke-linejoin:round; stroke-width:4; stroke-opacity:1; fill:none" points="178.867,1486.45 197.764,1486.45 "/>
<polyline clip-path="url(#clip310)" style="stroke:#000000; stroke-linecap:round; stroke-linejoin:round; stroke-width:4; stroke-opacity:1; fill:none" points="178.867,1326.65 197.764,1326.65 "/>
<polyline clip-path="url(#clip310)" style="stroke:#000000; stroke-linecap:round; stroke-linejoin:round; stroke-width:4; stroke-opacity:1; fill:none" points="178.867,1166.85 197.764,1166.85 "/>
<polyline clip-path="url(#clip310)" style="stroke:#000000; stroke-linecap:round; stroke-linejoin:round; stroke-width:4; stroke-opacity:1; fill:none" points="178.867,1007.05 197.764,1007.05 "/>
<polyline clip-path="url(#clip310)" style="stroke:#000000; stroke-linecap:round; stroke-linejoin:round; stroke-width:4; stroke-opacity:1; fill:none" points="178.867,847.244 197.764,847.244 "/>
<path clip-path="url(#clip310)" d="M50.9921 1486.9 L80.6679 1486.9 L80.6679 1490.83 L50.9921 1490.83 L50.9921 1486.9 Z" fill="#000000" fill-rule="nonzero" fill-opacity="1" /><path clip-path="url(#clip310)" d="M91.5706 1499.79 L99.2095 1499.79 L99.2095 1473.43 L90.8993 1475.09 L90.8993 1470.83 L99.1632 1469.17 L103.839 1469.17 L103.839 1499.79 L111.478 1499.79 L111.478 1503.73 L91.5706 1503.73 L91.5706 1499.79 Z" fill="#000000" fill-rule="nonzero" fill-opacity="1" /><path clip-path="url(#clip310)" d="M130.922 1472.25 Q127.311 1472.25 125.482 1475.81 Q123.677 1479.35 123.677 1486.48 Q123.677 1493.59 125.482 1497.15 Q127.311 1500.7 130.922 1500.7 Q134.556 1500.7 136.362 1497.15 Q138.191 1493.59 138.191 1486.48 Q138.191 1479.35 136.362 1475.81 Q134.556 1472.25 130.922 1472.25 M130.922 1468.54 Q136.732 1468.54 139.788 1473.15 Q142.867 1477.73 142.867 1486.48 Q142.867 1495.21 139.788 1499.82 Q136.732 1504.4 130.922 1504.4 Q125.112 1504.4 122.033 1499.82 Q118.978 1495.21 118.978 1486.48 Q118.978 1477.73 122.033 1473.15 Q125.112 1468.54 130.922 1468.54 Z" fill="#000000" fill-rule="nonzero" fill-opacity="1" /><path clip-path="url(#clip310)" d="M82.1494 1327.1 L111.825 1327.1 L111.825 1331.03 L82.1494 1331.03 L82.1494 1327.1 Z" fill="#000000" fill-rule="nonzero" fill-opacity="1" /><path clip-path="url(#clip310)" d="M121.964 1309.37 L140.32 1309.37 L140.32 1313.3 L126.246 1313.3 L126.246 1321.77 Q127.265 1321.43 128.283 1321.27 Q129.302 1321.08 130.32 1321.08 Q136.107 1321.08 139.487 1324.25 Q142.867 1327.42 142.867 1332.84 Q142.867 1338.42 139.394 1341.52 Q135.922 1344.6 129.603 1344.6 Q127.427 1344.6 125.158 1344.23 Q122.913 1343.86 120.506 1343.12 L120.506 1338.42 Q122.589 1339.55 124.811 1340.11 Q127.033 1340.66 129.51 1340.66 Q133.515 1340.66 135.853 1338.56 Q138.191 1336.45 138.191 1332.84 Q138.191 1329.23 135.853 1327.12 Q133.515 1325.01 129.51 1325.01 Q127.635 1325.01 125.76 1325.43 Q123.908 1325.85 121.964 1326.73 L121.964 1309.37 Z" fill="#000000" fill-rule="nonzero" fill-opacity="1" /><path clip-path="url(#clip310)" d="M130.922 1152.64 Q127.311 1152.64 125.482 1156.21 Q123.677 1159.75 123.677 1166.88 Q123.677 1173.99 125.482 1177.55 Q127.311 1181.09 130.922 1181.09 Q134.556 1181.09 136.362 1177.55 Q138.191 1173.99 138.191 1166.88 Q138.191 1159.75 136.362 1156.21 Q134.556 1152.64 130.922 1152.64 M130.922 1148.94 Q136.732 1148.94 139.788 1153.55 Q142.867 1158.13 142.867 1166.88 Q142.867 1175.61 139.788 1180.21 Q136.732 1184.8 130.922 1184.8 Q125.112 1184.8 122.033 1180.21 Q118.978 1175.61 118.978 1166.88 Q118.978 1158.13 122.033 1153.55 Q125.112 1148.94 130.922 1148.94 Z" fill="#000000" fill-rule="nonzero" fill-opacity="1" /><path clip-path="url(#clip310)" d="M121.964 989.765 L140.32 989.765 L140.32 993.7 L126.246 993.7 L126.246 1002.17 Q127.265 1001.83 128.283 1001.66 Q129.302 1001.48 130.32 1001.48 Q136.107 1001.48 139.487 1004.65 Q142.867 1007.82 142.867 1013.24 Q142.867 1018.82 139.394 1021.92 Q135.922 1025 129.603 1025 Q127.427 1025 125.158 1024.63 Q122.913 1024.26 120.506 1023.51 L120.506 1018.82 Q122.589 1019.95 124.811 1020.51 Q127.033 1021.06 129.51 1021.06 Q133.515 1021.06 135.853 1018.95 Q138.191 1016.85 138.191 1013.24 Q138.191 1009.63 135.853 1007.52 Q133.515 1005.41 129.51 1005.41 Q127.635 1005.41 125.76 1005.83 Q123.908 1006.25 121.964 1007.13 L121.964 989.765 Z" fill="#000000" fill-rule="nonzero" fill-opacity="1" /><path clip-path="url(#clip310)" d="M91.5706 860.589 L99.2095 860.589 L99.2095 834.223 L90.8993 835.89 L90.8993 831.631 L99.1632 829.964 L103.839 829.964 L103.839 860.589 L111.478 860.589 L111.478 864.524 L91.5706 864.524 L91.5706 860.589 Z" fill="#000000" fill-rule="nonzero" fill-opacity="1" /><path clip-path="url(#clip310)" d="M130.922 833.043 Q127.311 833.043 125.482 836.608 Q123.677 840.149 123.677 847.279 Q123.677 854.385 125.482 857.95 Q127.311 861.492 130.922 861.492 Q134.556 861.492 136.362 857.95 Q138.191 854.385 138.191 847.279 Q138.191 840.149 136.362 836.608 Q134.556 833.043 130.922 833.043 M130.922 829.339 Q136.732 829.339 139.788 833.946 Q142.867 838.529 142.867 847.279 Q142.867 856.006 139.788 860.612 Q136.732 865.195 130.922 865.195 Q125.112 865.195 122.033 860.612 Q118.978 856.006 118.978 847.279 Q118.978 838.529 122.033 833.946 Q125.112 829.339 130.922 829.339 Z" fill="#000000" fill-rule="nonzero" fill-opacity="1" /><polyline clip-path="url(#clip313)" style="stroke:#009af9; stroke-linecap:round; stroke-linejoin:round; stroke-width:4; stroke-opacity:1; fill:none" points="240.392,1134.89 242.445,1188.44 244.498,1159.27 246.55,1184.76 248.603,1150.52 250.656,1163.54 252.709,1206.48 254.762,1188.5 256.815,1213.04 258.868,1156.51 260.921,1175.54 262.974,1170.41 265.027,1156.18 267.079,1201.11 269.132,1178.49 271.185,1177.5 273.238,1188.33 275.291,1011.89 277.344,1119.35 279.397,1122.05 281.45,1176.63 283.503,1188.6 285.555,1189.52 287.608,1187.23 289.661,1118.43 291.714,1128.5 293.767,1183.48 295.82,1199.11 297.873,1296.83 299.926,1194.98 301.979,1257.99 304.031,1073.12 306.084,1151.25 308.137,1175.95 310.19,1168.11 312.243,1072.49 314.296,1390.36 316.349,865.195 318.402,1110.23 320.455,1145.66 322.507,1112.46 324.56,1237.63 326.613,1064.84 328.666,1267.12 330.719,1179.07 332.772,1163.92 334.825,1161.61 336.878,1119.23 338.931,1172.14 340.984,1181.82 343.036,1146.93 345.089,1171.83 347.142,1148.45 349.195,1157.77 351.248,1168.87 353.301,1183.18 355.354,1190.45 357.407,1150.35 359.46,1096.56 361.512,1169.02 363.565,1086.56 365.618,1035.74 367.671,1670.57 369.724,1132.32 371.777,1188.17 373.83,1183.09 375.883,1123.65 377.936,1331.3 379.988,1267.32 382.041,1167.62 384.094,1166.67 386.147,1141.58 388.2,1084.17 390.253,1140.47 392.306,1179.04 394.359,1191.37 396.412,1229.97 398.464,1173.73 400.517,1115.22 402.57,1189.94 404.623,1073.61 406.676,1163.29 408.729,1180.76 410.782,1175.43 412.835,1154.75 414.888,1113.85 416.94,1150.71 418.993,1126.74 421.046,1143.29 423.099,1195.3 425.152,1121.86 427.205,1211.59 429.258,1178.22 431.311,1182.25 433.364,1140.75 435.417,1184.6 437.469,1119.48 439.522,1212.08 441.575,931.527 443.628,1399.41 445.681,1183.13 447.734,1120.33 449.787,1210.74 451.84,1169.58 453.893,1164.75 455.945,1175.6 457.998,1180.77 460.051,1190.24 462.104,1197.35 464.157,1457.41 466.21,1248.93 468.263,967.855 470.316,1120.19 472.369,1123.66 474.421,1211.04 476.474,1195.31 478.527,1195.81 480.58,1136.69 482.633,1188.17 484.686,1153.64 486.739,1140.01 488.792,1217.52 490.845,1210.83 492.897,1082.15 494.95,1214.34 497.003,1198.02 499.056,1136.72 501.109,1152.05 503.162,1137.44 505.215,1179.81 507.268,1150.16 509.321,1120.29 511.374,1104.53 513.426,1199.36 515.479,1085.84 517.532,1205.65 519.585,1133.12 521.638,1075.35 523.691,1236.98 525.744,1124.15 527.797,1219.45 529.85,1146.94 531.902,1167.71 533.955,1167.64 536.008,1115.55 538.061,1166.07 540.114,1165.63 542.167,1160.39 544.22,1173.76 546.273,1161.06 548.326,1177.78 550.378,1121.68 552.431,1156.28 554.484,1195.26 556.537,1198.85 558.59,1190.6 560.643,1167.66 562.696,1158.72 564.749,1175.76 566.802,1392.12 568.854,1205.31 570.907,1100.44 572.96,1159.35 575.013,1236.2 577.066,1167.81 579.119,1236.81 581.172,1133.9 583.225,1177.57 585.278,1177.6 587.331,1181.02 589.383,1178.52 591.436,1302.48 593.489,1182.75 595.542,1147.8 597.595,1173.6 599.648,1138.86 601.701,1144.03 603.754,1179.67 605.807,1158.71 607.859,1170.81 609.912,1200.92 611.965,1182.69 614.018,1182.24 616.071,1173.65 618.124,1178.97 620.177,1157.54 622.23,1157.91 624.283,1133.79 626.335,1176.53 628.388,1190.67 630.441,1192.11 632.494,1152.91 634.547,1191.29 636.6,1169.34 638.653,1172.39 640.706,1162.54 642.759,1159.51 644.811,1218.53 646.864,1208.45 648.917,1206.54 650.97,1118.17 653.023,1208.37 655.076,1222.81 657.129,1207.39 659.182,1142.98 661.235,1142.02 663.288,1143.77 665.34,1164.59 667.393,1257.72 669.446,1252.08 671.499,1188.75 673.552,1160.01 675.605,1161.35 677.658,1282.59 679.711,797.819 681.764,1768.11 683.816,966.406 685.869,1157.25 687.922,1506.52 689.975,1338.27 692.028,1238.31 694.081,805.182 696.134,885.12 698.187,980.693 700.24,1354.36 702.292,1427.66 704.345,1256.24 706.398,1119 708.451,1169.67 710.504,1089.71 712.557,1130.21 714.61,1194.99 716.663,1171.81 718.716,1154.28 720.768,1192.44 722.821,1155.98 724.874,1226.36 726.927,1170.85 728.98,1171.88 731.033,1129.86 733.086,1168.84 735.139,1054.05 737.192,1166.49 739.245,1156.01 741.297,1100.94 743.35,1285.68 745.403,1149.86 747.456,1114.31 749.509,1226.64 751.562,1089.83 753.615,1235.17 755.668,1146.75 757.721,1252.33 759.773,1116.76 761.826,1131.58 763.879,1176.9 765.932,971.827 767.985,210.486 770.038,1297.52 772.091,2316.4 774.144,1314.09 776.197,1067.02 778.249,1178.02 780.302,1189.25 782.355,843.301 784.408,1327.45 786.461,1172.42 788.514,1113.25 790.567,1292 792.62,1076.63 794.673,1199.62 796.725,1206.88 798.778,1165.58 800.831,1170.34 802.884,1047.08 804.937,1284.71 806.99,1225.47 809.043,1177.56 811.096,1184.57 813.149,1191.1 815.202,1196.69 817.254,1160.34 819.307,1176.19 821.36,1147.16 823.413,1131.22 825.466,1222.4 827.519,1197.48 829.572,1120.92 831.625,1079.26 833.678,1102.41 835.73,1141.18 837.783,1079.44 839.836,1177.46 841.889,1298.35 843.942,1317.42 845.995,1178.35 848.048,1171.9 850.101,1224.02 852.154,1170.34 854.206,1162.87 856.259,1162.71 858.312,1137.09 860.365,1141.11 862.418,1215.62 864.471,1114.68 866.524,1274.9 868.577,1197.48 870.63,1185.51 872.682,1180.23 874.735,1154.01 876.788,1168.34 878.841,1164.88 880.894,1143.38 882.947,1120.99 885,1208.62 887.053,1196.71 889.106,1206.76 891.159,1150.49 893.211,1144.86 895.264,1190.88 897.317,1205.22 899.37,1203.85 901.423,1129.3 903.476,1217.85 905.529,1183.06 907.582,1168.44 909.635,1139.33 911.687,1127.98 913.74,1177.7 915.793,1120.62 917.846,1139.92 919.899,1159.82 921.952,1176.52 924.005,1175.01 926.058,1173.53 928.111,1161.28 930.163,1140.9 932.216,1152.68 934.269,1089.35 936.322,1154.85 938.375,1169.9 940.428,1159.7 942.481,1107.77 944.534,1284.67 946.587,1231.41 948.639,1135.51 950.692,1146.08 952.745,1153.05 954.798,1178.28 956.851,1172.15 958.904,1168.02 960.957,1165.49 963.01,1159.7 965.063,1210.38 967.116,1172.57 969.168,1168.2 971.221,1146.12 973.274,1206.55 975.327,1183.35 977.38,894.27 979.433,1275.29 981.486,1108.28 983.539,1128.13 985.592,1180.57 987.644,1137.24 989.697,1095.32 991.75,1169.11 993.803,1206.96 995.856,1157.63 997.909,1160.71 999.962,1385.91 1002.01,1218.15 1004.07,481.452 1006.12,451.142 1008.17,1.06411 1010.23,1118.78 1012.28,1141.62 1014.33,1331.93 1016.38,1275.46 1018.44,1037.68 1020.49,979.29 1022.54,1330.8 1024.6,1216.24 1026.65,1162.41 1028.7,1225.37 1030.76,1197.39 1032.81,1112.88 1034.86,1097.73 1036.91,1176.96 1038.97,1141.49 1041.02,1162.49 1043.07,1116.04 1045.13,1222.15 1047.18,1209.84 1049.23,1124.96 1051.28,1187.81 1053.34,1218.76 1055.39,1152.8 1057.44,1185.71 1059.5,1175.67 1061.55,1213.98 1063.6,1162.02 1065.65,1110.67 1067.71,1834.29 1069.76,914.062 1071.81,1142.8 1073.87,1179.81 1075.92,1156.75 1077.97,1189.93 1080.02,1135.99 1082.08,1107.81 1084.13,1190.78 1086.18,1180.18 1088.24,1142.44 1090.29,1121.48 1092.34,1160.56 1094.39,1156.44 1096.45,1202.16 1098.5,1130.15 1100.55,1197.36 1102.61,1209.01 1104.66,1220.08 1106.71,1221 1108.77,1181.64 1110.82,1154.27 1112.87,1161.54 1114.92,1206.96 1116.98,1122.69 1119.03,1200.06 1121.08,1161.26 1123.14,1142.01 1125.19,1164.37 1127.24,1171.2 1129.29,1137.22 1131.35,1124.14 1133.4,1157.27 1135.45,1659.72 1137.51,1073.82 1139.56,1209.79 1141.61,1006.55 1143.66,1131.37 1145.72,1185.97 1147.77,1203.22 1149.82,1112.35 1151.88,1183.14 1153.93,1179.73 1155.98,1163.26 1158.03,1185.41 1160.09,969.383 1162.14,1006.87 1164.19,1278.89 1166.25,1240.29 1168.3,1103.57 1170.35,1226.95 1172.4,932.334 1174.46,1040.13 1176.51,1303.12 1178.56,1476.69 1180.62,1256.71 1182.67,1228.24 1184.72,1169.55 1186.77,1185.4 1188.83,1241.99 1190.88,1144.92 1192.93,1231.38 1194.99,1137.81 1197.04,1179.21 1199.09,1117.21 1201.15,1204.59 1203.2,1196.66 1205.25,1147.69 1207.3,1134.59 1209.36,1225.52 1211.41,1157.77 1213.46,1181.06 1215.52,1135.84 1217.57,1155.45 1219.62,1056.68 1221.67,1244.91 1223.73,1207.27 1225.78,1175.23 1227.83,1164.22 1229.89,1201.93 1231.94,1179.88 1233.99,1186.42 1236.04,1185.43 1238.1,1168.29 1240.15,1158.51 1242.2,1171.91 1244.26,1171.9 1246.31,1120.8 1248.36,1159.12 1250.41,1178.56 1252.47,1127.05 1254.52,1171.07 1256.57,1199.55 1258.63,1192.57 1260.68,1205.04 1262.73,1125.59 1264.78,1154.21 1266.84,1183.39 1268.89,1123.6 1270.94,1200.5 1273,1207.67 1275.05,1132.37 1277.1,1132.77 1279.16,1146.92 1281.21,1115.92 1283.26,850.434 1285.31,1176.11 1287.37,1158.36 1289.42,1175.46 1291.47,1148.72 1293.53,1185.71 1295.58,1188.4 1297.63,1207.27 1299.68,1223.8 1301.74,1118.75 1303.79,1177.08 1305.84,1151.9 1307.9,1100.82 1309.95,1048.86 1312,1148.23 1314.05,1214.92 1316.11,1259.98 1318.16,1140.25 1320.21,1185.14 1322.27,1168.94 1324.32,1133.28 1326.37,1232.17 1328.42,1204.9 1330.48,1257.88 1332.53,1062.7 1334.58,1069.67 1336.64,1172.86 1338.69,1146.12 1340.74,1219 1342.79,1237.53 1344.85,1173.56 1346.9,1044.3 1348.95,1163.68 1351.01,1173.49 1353.06,1172.75 1355.11,1083.44 1357.16,1270.88 1359.22,1218.71 1361.27,1105.61 1363.32,1111.98 1365.38,1130.31 1367.43,1187.79 1369.48,1191.64 1371.54,1167.03 1373.59,1202.74 1375.64,1116.21 1377.69,1167.65 1379.75,1133.7 1381.8,1102.64 1383.85,1119.55 1385.91,1167.54 1387.96,1149.53 1390.01,1139.57 1392.06,1151.64 1394.12,1185.89 1396.17,1136.96 1398.22,1186.32 1400.28,1164.41 1402.33,1167.85 1404.38,1163.99 1406.43,1144.58 1408.49,1159.64 1410.54,1176.51 1412.59,1172.42 1414.65,1176.66 1416.7,1316.58 1418.75,2387.27 1420.8,773.151 1422.86,3319.17 1424.91,3873.38 1426.96,-1654.4 1429.02,605.196 1431.07,-20034.8 1433.12,-14319.9 1435.17,35.0993 1437.23,-658.417 1439.28,1258.49 1441.33,1087.61 1443.39,1053.11 1445.44,1054.58 1447.49,1172.42 1449.55,1150.46 1451.6,1208.47 1453.65,1181.27 1455.7,1226.57 1457.76,1155.11 1459.81,1428.26 1461.86,1254.49 1463.92,1178.61 1465.97,1130.37 1468.02,1147.21 1470.07,1185.42 1472.13,1374.23 1474.18,1383.32 1476.23,1268.47 1478.29,1217.76 1480.34,1146.6 1482.39,1118.34 1484.44,1182.65 1486.5,1185.67 1488.55,1217.18 1490.6,1163.9 1492.66,1179.91 1494.71,1153.26 1496.76,1141.04 1498.81,1203.73 1500.87,1093.37 1502.92,1120.84 1504.97,1133.89 1507.03,1151.72 1509.08,1114.27 1511.13,1222.91 1513.18,1179.88 1515.24,1167.39 1517.29,1153.72 1519.34,1209.32 1521.4,1137.84 1523.45,1096.43 1525.5,1399.83 1527.55,1223.14 1529.61,1177.33 1531.66,1162.78 1533.71,1159.87 1535.77,1172.26 1537.82,1176.18 1539.87,1110.75 1541.93,1114.01 1543.98,1112.89 1546.03,1177.95 1548.08,1180.43 1550.14,1169.22 1552.19,1207.49 1554.24,1235.03 1556.3,1624.28 1558.35,1342.94 1560.4,1452.4 1562.45,985.391 1564.51,2010.98 1566.56,1065.58 1568.61,1235.75 1570.67,1259.48 1572.72,1487.06 1574.77,1332.52 1576.82,1648.77 1578.88,1329.71 1580.93,1213.15 1582.98,1070.12 1585.04,1087.25 1587.09,1244.76 1589.14,1197.8 1591.19,1189.71 1593.25,1168.59 1595.3,1157.47 1597.35,1181.68 1599.41,2269.5 1601.46,1028.27 1603.51,1321.1 1605.56,997.811 1607.62,1096.64 1609.67,1097.06 1611.72,1136.56 1613.78,1133.55 1615.83,1138.05 1617.88,1162.61 1619.94,1176.45 1621.99,1220.74 1624.04,1115.5 1626.09,1201.93 1628.15,1206.71 1630.2,1054.31 1632.25,1234.63 1634.31,1511.35 1636.36,1401.99 1638.41,1691.89 1640.46,1297.9 1642.52,1296.82 1644.57,1197.24 1646.62,1184.29 1648.68,1132.61 1650.73,1207.37 1652.78,1253.98 1654.83,1197.77 1656.89,1104.89 1658.94,1143.29 1660.99,1241.96 1663.05,1406.8 1665.1,936.502 1667.15,1040.22 1669.2,1056.59 1671.26,1175.24 1673.31,1153.57 1675.36,1173.58 1677.42,1135.59 1679.47,1166.44 1681.52,1210.32 1683.57,1106.23 1685.63,1159.56 1687.68,1151.61 1689.73,1163.99 1691.79,1156.09 1693.84,1179.29 1695.89,1151.05 1697.94,1205.91 1700,1185.88 1702.05,1177.22 1704.1,1253.11 1706.16,1184.16 1708.21,1147.91 1710.26,1162.09 1712.32,1168.4 1714.37,1169.76 1716.42,1160.97 1718.47,1138.99 1720.53,1132.8 1722.58,1118.6 1724.63,1164.72 1726.69,1165.71 1728.74,1164.36 1730.79,1169.54 1732.84,1218.85 1734.9,1279.21 1736.95,1115.11 1739,1169.58 1741.06,1197.31 1743.11,1184.94 1745.16,1160.85 1747.21,1197.96 1749.27,1156.07 1751.32,1249.31 1753.37,1293.74 1755.43,1513.82 1757.48,1094.29 1759.53,1102.6 1761.58,1214.01 1763.64,1155.31 1765.69,1370.11 1767.74,1190.36 1769.8,1168.71 1771.85,1167.54 1773.9,1204.03 1775.95,1203.59 1778.01,1164.51 1780.06,1147.98 1782.11,1182.43 1784.17,1180.64 1786.22,1161.62 1788.27,1156.05 1790.33,1161.71 1792.38,1200.48 1794.43,1133.89 1796.48,1162.95 1798.54,1135.82 1800.59,1176.76 1802.64,1131.06 1804.7,1130.8 1806.75,1199.95 1808.8,1235.5 1810.85,1356.73 1812.91,1133.84 1814.96,1233.6 1817.01,1117.29 1819.07,1105.05 1821.12,1140.67 1823.17,1122.73 1825.22,1149.38 1827.28,1165.97 1829.33,1183.38 1831.38,1195.2 1833.44,1186.9 1835.49,974.895 1837.54,1118.99 1839.59,1122.06 1841.65,1193.53 1843.7,1157.27 1845.75,1124.74 1847.81,1147.09 1849.86,1152.84 1851.91,1147.2 1853.96,1187.03 1856.02,1177.17 1858.07,1199.5 1860.12,1138.35 1862.18,1036.35 1864.23,1230.34 1866.28,1064.83 1868.34,1086.43 1870.39,1175.3 1872.44,1109.03 1874.49,1161.63 1876.55,1154.55 1878.6,1168.42 1880.65,1140.58 1882.71,1046.78 1884.76,1226.43 1886.81,1206.93 1888.86,1210.56 1890.92,1124.63 1892.97,1153.46 1895.02,1359.1 1897.08,1181.03 1899.13,1171.14 1901.18,1211.91 1903.23,1255.82 1905.29,1217.47 1907.34,1252.88 1909.39,1259.84 1911.45,1222.63 1913.5,1292.67 1915.55,1140.71 1917.6,1180.33 1919.66,1189.08 1921.71,1160.55 1923.76,1188.57 1925.82,1143.42 1927.87,1175.47 1929.92,1158.35 1931.97,1142.67 1934.03,1075.64 1936.08,1192.06 1938.13,1211.29 1940.19,1137.22 1942.24,1211.67 1944.29,1204.7 1946.34,1205.26 1948.4,1122.99 1950.45,1124.85 1952.5,1236.16 1954.56,1221.72 1956.61,1120.16 1958.66,1144.96 1960.72,670.033 1962.77,1141.17 1964.82,563.843 1966.87,409.802 1968.93,716.538 1970.98,1171.12 1973.03,1188.91 1975.09,1058.12 1977.14,1213.54 1979.19,1135.76 1981.24,1157.21 1983.3,1173.76 1985.35,1163.49 1987.4,1161.3 1989.46,1134.58 1991.51,1191.75 1993.56,1147.34 1995.61,1166.74 1997.67,1136.79 1999.72,1154.34 2001.77,1178.41 2003.83,1160.02 2005.88,1200.65 2007.93,1132.36 2009.98,1184.78 2012.04,1250.06 2014.09,1266.59 2016.14,1185.4 2018.2,1097.63 2020.25,1134.68 2022.3,1139.83 2024.35,1143.67 2026.41,1180.72 2028.46,1155.96 2030.51,1131.49 2032.57,1128.13 2034.62,1190.83 2036.67,1214.99 2038.73,1031.8 2040.78,1261.16 2042.83,1278.56 2044.88,1100.12 2046.94,1106.22 2048.99,1173.98 2051.04,1172.08 2053.1,1131.73 2055.15,1197.45 2057.2,1232.53 2059.25,1119.04 2061.31,1190.39 2063.36,1165.23 2065.41,1163.46 2067.47,1172.93 2069.52,1195.64 2071.57,1172.83 2073.62,1129.21 2075.68,1172.62 2077.73,1062 2079.78,1046.31 2081.84,1097.93 2083.89,1159.25 2085.94,1122.35 2087.99,1121.31 2090.05,1082.76 2092.1,1156.84 2094.15,1210.14 2096.21,1161.43 2098.26,1164.77 2100.31,1130.12 2102.36,1157.22 2104.42,1136.88 2106.47,1076.09 2108.52,1042.62 2110.58,1171.87 2112.63,1196.46 2114.68,1179.34 2116.73,1156.14 2118.79,1176.52 2120.84,1046.29 2122.89,1097.99 2124.95,1173.92 2127,1138.53 2129.05,1162.31 2131.11,1149.64 2133.16,1169.42 2135.21,1218.67 2137.26,1060.72 2139.32,1093.83 2141.37,1208.42 2143.42,861.592 2145.48,-537.298 2147.53,442.197 2149.58,1007.39 2151.63,178.209 2153.69,1043.66 2155.74,1116.58 2157.79,1146.72 2159.85,1180.06 2161.9,1217.31 2163.95,1128.07 2166,1159.47 2168.06,1138.36 2170.11,1150.28 2172.16,1072.3 2174.22,1181.93 2176.27,1170.12 2178.32,1322.85 2180.37,1232.88 2182.43,1263.07 2184.48,1188.06 2186.53,1177.59 2188.59,1078.17 2190.64,1198.4 2192.69,1217.57 2194.74,1152.59 2196.8,1295.06 2198.85,1352.83 2200.9,1203.85 2202.96,1075.95 2205.01,2987.19 2207.06,1076.45 2209.12,361.838 2211.17,2248.22 2213.22,755.294 2215.27,964.098 2217.33,1299.92 2219.38,811.851 2221.43,1533.44 2223.49,873.701 2225.54,1204.01 2227.59,1222.68 2229.64,1085.55 2231.7,1206.19 2233.75,1232.7 2235.8,1173.31 2237.86,1152.49 2239.91,1118.11 2241.96,1146.67 2244.01,1166.65 2246.07,1179.22 2248.12,1157.66 2250.17,1144.77 2252.23,1231.2 2254.28,1197.35 2256.33,1160.75 2258.38,1162.75 2260.44,1151.83 2262.49,1130.4 2264.54,1351.39 2266.6,1064.04 2268.65,1137.92 2270.7,1188.33 2272.75,1206.33 2274.81,1112.66 2276.86,1200.64 2278.91,1154.49 2280.97,1070.28 2283.02,1186.33 2285.07,1192.81 2287.12,1132.75 2289.18,1229.68 2291.23,1058.74 "/>
<path clip-path="url(#clip310)" d="M1942.7 1465.14 L2280.29 1465.14 L2280.29 1361.46 L1942.7 1361.46  Z" fill="#ffffff" fill-rule="evenodd" fill-opacity="1"/>
<polyline clip-path="url(#clip310)" style="stroke:#000000; stroke-linecap:round; stroke-linejoin:round; stroke-width:4; stroke-opacity:1; fill:none" points="1942.7,1465.14 2280.29,1465.14 2280.29,1361.46 1942.7,1361.46 1942.7,1465.14 "/>
<polyline clip-path="url(#clip310)" style="stroke:#009af9; stroke-linecap:round; stroke-linejoin:round; stroke-width:4; stroke-opacity:1; fill:none" points="1966.85,1413.3 2111.78,1413.3 "/>
<path clip-path="url(#clip310)" d="M2161.49 1425.65 L2161.49 1416.37 L2153.85 1416.37 L2153.85 1412.53 L2166.12 1412.53 L2166.12 1427.36 Q2163.41 1429.28 2160.14 1430.28 Q2156.88 1431.25 2153.18 1431.25 Q2145.07 1431.25 2140.49 1426.53 Q2135.93 1421.78 2135.93 1413.34 Q2135.93 1404.86 2140.49 1400.14 Q2145.07 1395.4 2153.18 1395.4 Q2156.56 1395.4 2159.59 1396.23 Q2162.64 1397.06 2165.21 1398.68 L2165.21 1403.66 Q2162.62 1401.46 2159.7 1400.35 Q2156.79 1399.24 2153.57 1399.24 Q2147.23 1399.24 2144.03 1402.78 Q2140.86 1406.32 2140.86 1413.34 Q2140.86 1420.33 2144.03 1423.87 Q2147.23 1427.41 2153.57 1427.41 Q2156.05 1427.41 2157.99 1426.99 Q2159.94 1426.55 2161.49 1425.65 Z" fill="#000000" fill-rule="nonzero" fill-opacity="1" /><path clip-path="url(#clip310)" d="M2179.33 1399.86 L2179.33 1412.85 L2185.21 1412.85 Q2188.48 1412.85 2190.26 1411.16 Q2192.04 1409.47 2192.04 1406.35 Q2192.04 1403.24 2190.26 1401.55 Q2188.48 1399.86 2185.21 1399.86 L2179.33 1399.86 M2174.66 1396.02 L2185.21 1396.02 Q2191.02 1396.02 2193.99 1398.66 Q2196.97 1401.28 2196.97 1406.35 Q2196.97 1411.46 2193.99 1414.08 Q2191.02 1416.69 2185.21 1416.69 L2179.33 1416.69 L2179.33 1430.58 L2174.66 1430.58 L2174.66 1396.02 Z" fill="#000000" fill-rule="nonzero" fill-opacity="1" /><path clip-path="url(#clip310)" d="M2223.96 1397.16 L2223.96 1401.72 Q2221.3 1400.44 2218.94 1399.82 Q2216.58 1399.19 2214.38 1399.19 Q2210.56 1399.19 2208.48 1400.67 Q2206.42 1402.16 2206.42 1404.89 Q2206.42 1407.18 2207.78 1408.36 Q2209.17 1409.52 2213.01 1410.23 L2215.84 1410.81 Q2221.07 1411.81 2223.55 1414.33 Q2226.05 1416.83 2226.05 1421.04 Q2226.05 1426.07 2222.67 1428.66 Q2219.31 1431.25 2212.81 1431.25 Q2210.35 1431.25 2207.57 1430.7 Q2204.82 1430.14 2201.86 1429.05 L2201.86 1424.24 Q2204.7 1425.84 2207.44 1426.65 Q2210.17 1427.46 2212.81 1427.46 Q2216.81 1427.46 2218.99 1425.88 Q2221.16 1424.31 2221.16 1421.39 Q2221.16 1418.85 2219.59 1417.41 Q2218.04 1415.97 2214.47 1415.26 L2211.62 1414.7 Q2206.39 1413.66 2204.06 1411.44 Q2201.72 1409.22 2201.72 1405.26 Q2201.72 1400.67 2204.94 1398.03 Q2208.18 1395.4 2213.85 1395.4 Q2216.28 1395.4 2218.8 1395.84 Q2221.32 1396.28 2223.96 1397.16 Z" fill="#000000" fill-rule="nonzero" fill-opacity="1" /><path clip-path="url(#clip310)" d="M2254.06 1397.16 L2254.06 1401.72 Q2251.39 1400.44 2249.03 1399.82 Q2246.67 1399.19 2244.47 1399.19 Q2240.65 1399.19 2238.57 1400.67 Q2236.51 1402.16 2236.51 1404.89 Q2236.51 1407.18 2237.87 1408.36 Q2239.26 1409.52 2243.11 1410.23 L2245.93 1410.81 Q2251.16 1411.81 2253.64 1414.33 Q2256.14 1416.83 2256.14 1421.04 Q2256.14 1426.07 2252.76 1428.66 Q2249.4 1431.25 2242.9 1431.25 Q2240.44 1431.25 2237.67 1430.7 Q2234.91 1430.14 2231.95 1429.05 L2231.95 1424.24 Q2234.8 1425.84 2237.53 1426.65 Q2240.26 1427.46 2242.9 1427.46 Q2246.9 1427.46 2249.08 1425.88 Q2251.25 1424.31 2251.25 1421.39 Q2251.25 1418.85 2249.68 1417.41 Q2248.13 1415.97 2244.56 1415.26 L2241.72 1414.7 Q2236.49 1413.66 2234.15 1411.44 Q2231.81 1409.22 2231.81 1405.26 Q2231.81 1400.67 2235.03 1398.03 Q2238.27 1395.4 2243.94 1395.4 Q2246.37 1395.4 2248.89 1395.84 Q2251.42 1396.28 2254.06 1397.16 Z" fill="#000000" fill-rule="nonzero" fill-opacity="1" /></svg>
