<?xml version="1.0" encoding="utf-8"?>
<svg xmlns="http://www.w3.org/2000/svg" xmlns:xlink="http://www.w3.org/1999/xlink" width="600" height="400" viewBox="0 0 2400 1600">
<defs>
  <clipPath id="clip280">
    <rect x="0" y="0" width="2400" height="1600"/>
  </clipPath>
</defs>
<path clip-path="url(#clip280)" d="M0 1600 L2400 1600 L2400 0 L0 0  Z" fill="#ffffff" fill-rule="evenodd" fill-opacity="1"/>
<defs>
  <clipPath id="clip281">
    <rect x="480" y="0" width="1681" height="1600"/>
  </clipPath>
</defs>
<path clip-path="url(#clip280)" d="M178.867 686.448 L2352.76 686.448 L2352.76 47.2441 L178.867 47.2441  Z" fill="#ffffff" fill-rule="evenodd" fill-opacity="1"/>
<defs>
  <clipPath id="clip282">
    <rect x="178" y="47" width="2175" height="640"/>
  </clipPath>
</defs>
<polyline clip-path="url(#clip282)" style="stroke:#000000; stroke-linecap:round; stroke-linejoin:round; stroke-width:2; stroke-opacity:0.1; fill:none" points="238.339,686.448 238.339,47.2441 "/>
<polyline clip-path="url(#clip282)" style="stroke:#000000; stroke-linecap:round; stroke-linejoin:round; stroke-width:2; stroke-opacity:0.1; fill:none" points="751.562,686.448 751.562,47.2441 "/>
<polyline clip-path="url(#clip282)" style="stroke:#000000; stroke-linecap:round; stroke-linejoin:round; stroke-width:2; stroke-opacity:0.1; fill:none" points="1264.78,686.448 1264.78,47.2441 "/>
<polyline clip-path="url(#clip282)" style="stroke:#000000; stroke-linecap:round; stroke-linejoin:round; stroke-width:2; stroke-opacity:0.1; fill:none" points="1778.01,686.448 1778.01,47.2441 "/>
<polyline clip-path="url(#clip282)" style="stroke:#000000; stroke-linecap:round; stroke-linejoin:round; stroke-width:2; stroke-opacity:0.1; fill:none" points="2291.23,686.448 2291.23,47.2441 "/>
<polyline clip-path="url(#clip282)" style="stroke:#000000; stroke-linecap:round; stroke-linejoin:round; stroke-width:2; stroke-opacity:0.1; fill:none" points="178.867,686.448 2352.76,686.448 "/>
<polyline clip-path="url(#clip282)" style="stroke:#000000; stroke-linecap:round; stroke-linejoin:round; stroke-width:2; stroke-opacity:0.1; fill:none" points="178.867,526.647 2352.76,526.647 "/>
<polyline clip-path="url(#clip282)" style="stroke:#000000; stroke-linecap:round; stroke-linejoin:round; stroke-width:2; stroke-opacity:0.1; fill:none" points="178.867,366.846 2352.76,366.846 "/>
<polyline clip-path="url(#clip282)" style="stroke:#000000; stroke-linecap:round; stroke-linejoin:round; stroke-width:2; stroke-opacity:0.1; fill:none" points="178.867,207.045 2352.76,207.045 "/>
<polyline clip-path="url(#clip282)" style="stroke:#000000; stroke-linecap:round; stroke-linejoin:round; stroke-width:2; stroke-opacity:0.1; fill:none" points="178.867,47.2441 2352.76,47.2441 "/>
<polyline clip-path="url(#clip280)" style="stroke:#000000; stroke-linecap:round; stroke-linejoin:round; stroke-width:4; stroke-opacity:1; fill:none" points="178.867,686.448 2352.76,686.448 "/>
<polyline clip-path="url(#clip280)" style="stroke:#000000; stroke-linecap:round; stroke-linejoin:round; stroke-width:4; stroke-opacity:1; fill:none" points="238.339,686.448 238.339,667.55 "/>
<polyline clip-path="url(#clip280)" style="stroke:#000000; stroke-linecap:round; stroke-linejoin:round; stroke-width:4; stroke-opacity:1; fill:none" points="751.562,686.448 751.562,667.55 "/>
<polyline clip-path="url(#clip280)" style="stroke:#000000; stroke-linecap:round; stroke-linejoin:round; stroke-width:4; stroke-opacity:1; fill:none" points="1264.78,686.448 1264.78,667.55 "/>
<polyline clip-path="url(#clip280)" style="stroke:#000000; stroke-linecap:round; stroke-linejoin:round; stroke-width:4; stroke-opacity:1; fill:none" points="1778.01,686.448 1778.01,667.55 "/>
<polyline clip-path="url(#clip280)" style="stroke:#000000; stroke-linecap:round; stroke-linejoin:round; stroke-width:4; stroke-opacity:1; fill:none" points="2291.23,686.448 2291.23,667.55 "/>
<path clip-path="url(#clip280)" d="M238.339 717.367 Q234.728 717.367 232.899 720.931 Q231.094 724.473 231.094 731.603 Q231.094 738.709 232.899 742.274 Q234.728 745.815 238.339 745.815 Q241.973 745.815 243.779 742.274 Q245.607 738.709 245.607 731.603 Q245.607 724.473 243.779 720.931 Q241.973 717.367 238.339 717.367 M238.339 713.663 Q244.149 713.663 247.205 718.269 Q250.283 722.853 250.283 731.603 Q250.283 740.329 247.205 744.936 Q244.149 749.519 238.339 749.519 Q232.529 749.519 229.45 744.936 Q226.395 740.329 226.395 731.603 Q226.395 722.853 229.45 718.269 Q232.529 713.663 238.339 713.663 Z" fill="#000000" fill-rule="nonzero" fill-opacity="1" /><path clip-path="url(#clip280)" d="M715.254 744.913 L731.574 744.913 L731.574 748.848 L709.629 748.848 L709.629 744.913 Q712.291 742.158 716.875 737.528 Q721.481 732.876 722.662 731.533 Q724.907 729.01 725.787 727.274 Q726.689 725.515 726.689 723.825 Q726.689 721.07 724.745 719.334 Q722.824 717.598 719.722 717.598 Q717.523 717.598 715.069 718.362 Q712.638 719.126 709.861 720.677 L709.861 715.955 Q712.685 714.82 715.138 714.242 Q717.592 713.663 719.629 713.663 Q725 713.663 728.194 716.348 Q731.388 719.033 731.388 723.524 Q731.388 725.654 730.578 727.575 Q729.791 729.473 727.685 732.066 Q727.106 732.737 724.004 735.954 Q720.902 739.149 715.254 744.913 Z" fill="#000000" fill-rule="nonzero" fill-opacity="1" /><path clip-path="url(#clip280)" d="M741.435 714.288 L759.791 714.288 L759.791 718.223 L745.717 718.223 L745.717 726.695 Q746.736 726.348 747.754 726.186 Q748.773 726.001 749.791 726.001 Q755.578 726.001 758.958 729.172 Q762.337 732.343 762.337 737.76 Q762.337 743.339 758.865 746.44 Q755.393 749.519 749.073 749.519 Q746.898 749.519 744.629 749.149 Q742.384 748.778 739.976 748.038 L739.976 743.339 Q742.06 744.473 744.282 745.028 Q746.504 745.584 748.981 745.584 Q752.985 745.584 755.323 743.478 Q757.661 741.371 757.661 737.76 Q757.661 734.149 755.323 732.042 Q752.985 729.936 748.981 729.936 Q747.106 729.936 745.231 730.353 Q743.379 730.769 741.435 731.649 L741.435 714.288 Z" fill="#000000" fill-rule="nonzero" fill-opacity="1" /><path clip-path="url(#clip280)" d="M781.55 717.367 Q777.939 717.367 776.11 720.931 Q774.305 724.473 774.305 731.603 Q774.305 738.709 776.11 742.274 Q777.939 745.815 781.55 745.815 Q785.184 745.815 786.99 742.274 Q788.819 738.709 788.819 731.603 Q788.819 724.473 786.99 720.931 Q785.184 717.367 781.55 717.367 M781.55 713.663 Q787.36 713.663 790.416 718.269 Q793.495 722.853 793.495 731.603 Q793.495 740.329 790.416 744.936 Q787.36 749.519 781.55 749.519 Q775.74 749.519 772.661 744.936 Q769.606 740.329 769.606 731.603 Q769.606 722.853 772.661 718.269 Q775.74 713.663 781.55 713.663 Z" fill="#000000" fill-rule="nonzero" fill-opacity="1" /><path clip-path="url(#clip280)" d="M1224.4 714.288 L1242.76 714.288 L1242.76 718.223 L1228.69 718.223 L1228.69 726.695 Q1229.7 726.348 1230.72 726.186 Q1231.74 726.001 1232.76 726.001 Q1238.55 726.001 1241.93 729.172 Q1245.31 732.343 1245.31 737.76 Q1245.31 743.339 1241.83 746.44 Q1238.36 749.519 1232.04 749.519 Q1229.87 749.519 1227.6 749.149 Q1225.35 748.778 1222.94 748.038 L1222.94 743.339 Q1225.03 744.473 1227.25 745.028 Q1229.47 745.584 1231.95 745.584 Q1235.95 745.584 1238.29 743.478 Q1240.63 741.371 1240.63 737.76 Q1240.63 734.149 1238.29 732.042 Q1235.95 729.936 1231.95 729.936 Q1230.07 729.936 1228.2 730.353 Q1226.35 730.769 1224.4 731.649 L1224.4 714.288 Z" fill="#000000" fill-rule="nonzero" fill-opacity="1" /><path clip-path="url(#clip280)" d="M1264.52 717.367 Q1260.91 717.367 1259.08 720.931 Q1257.27 724.473 1257.27 731.603 Q1257.27 738.709 1259.08 742.274 Q1260.91 745.815 1264.52 745.815 Q1268.15 745.815 1269.96 742.274 Q1271.79 738.709 1271.79 731.603 Q1271.79 724.473 1269.96 720.931 Q1268.15 717.367 1264.52 717.367 M1264.52 713.663 Q1270.33 713.663 1273.38 718.269 Q1276.46 722.853 1276.46 731.603 Q1276.46 740.329 1273.38 744.936 Q1270.33 749.519 1264.52 749.519 Q1258.71 749.519 1255.63 744.936 Q1252.57 740.329 1252.57 731.603 Q1252.57 722.853 1255.63 718.269 Q1258.71 713.663 1264.52 713.663 Z" fill="#000000" fill-rule="nonzero" fill-opacity="1" /><path clip-path="url(#clip280)" d="M1294.68 717.367 Q1291.07 717.367 1289.24 720.931 Q1287.44 724.473 1287.44 731.603 Q1287.44 738.709 1289.24 742.274 Q1291.07 745.815 1294.68 745.815 Q1298.31 745.815 1300.12 742.274 Q1301.95 738.709 1301.95 731.603 Q1301.95 724.473 1300.12 720.931 Q1298.31 717.367 1294.68 717.367 M1294.68 713.663 Q1300.49 713.663 1303.55 718.269 Q1306.62 722.853 1306.62 731.603 Q1306.62 740.329 1303.55 744.936 Q1300.49 749.519 1294.68 749.519 Q1288.87 749.519 1285.79 744.936 Q1282.74 740.329 1282.74 731.603 Q1282.74 722.853 1285.79 718.269 Q1288.87 713.663 1294.68 713.663 Z" fill="#000000" fill-rule="nonzero" fill-opacity="1" /><path clip-path="url(#clip280)" d="M1736.28 714.288 L1758.51 714.288 L1758.51 716.279 L1745.96 748.848 L1741.08 748.848 L1752.88 718.223 L1736.28 718.223 L1736.28 714.288 Z" fill="#000000" fill-rule="nonzero" fill-opacity="1" /><path clip-path="url(#clip280)" d="M1767.67 714.288 L1786.03 714.288 L1786.03 718.223 L1771.95 718.223 L1771.95 726.695 Q1772.97 726.348 1773.99 726.186 Q1775.01 726.001 1776.03 726.001 Q1781.82 726.001 1785.2 729.172 Q1788.57 732.343 1788.57 737.76 Q1788.57 743.339 1785.1 746.44 Q1781.63 749.519 1775.31 749.519 Q1773.14 749.519 1770.87 749.149 Q1768.62 748.778 1766.21 748.038 L1766.21 743.339 Q1768.3 744.473 1770.52 745.028 Q1772.74 745.584 1775.22 745.584 Q1779.22 745.584 1781.56 743.478 Q1783.9 741.371 1783.9 737.76 Q1783.9 734.149 1781.56 732.042 Q1779.22 729.936 1775.22 729.936 Q1773.34 729.936 1771.47 730.353 Q1769.62 730.769 1767.67 731.649 L1767.67 714.288 Z" fill="#000000" fill-rule="nonzero" fill-opacity="1" /><path clip-path="url(#clip280)" d="M1807.79 717.367 Q1804.18 717.367 1802.35 720.931 Q1800.54 724.473 1800.54 731.603 Q1800.54 738.709 1802.35 742.274 Q1804.18 745.815 1807.79 745.815 Q1811.42 745.815 1813.23 742.274 Q1815.06 738.709 1815.06 731.603 Q1815.06 724.473 1813.23 720.931 Q1811.42 717.367 1807.79 717.367 M1807.79 713.663 Q1813.6 713.663 1816.65 718.269 Q1819.73 722.853 1819.73 731.603 Q1819.73 740.329 1816.65 744.936 Q1813.6 749.519 1807.79 749.519 Q1801.98 749.519 1798.9 744.936 Q1795.84 740.329 1795.84 731.603 Q1795.84 722.853 1798.9 718.269 Q1801.98 713.663 1807.79 713.663 Z" fill="#000000" fill-rule="nonzero" fill-opacity="1" /><path clip-path="url(#clip280)" d="M2235.76 744.913 L2243.4 744.913 L2243.4 718.547 L2235.09 720.214 L2235.09 715.955 L2243.35 714.288 L2248.02 714.288 L2248.02 744.913 L2255.66 744.913 L2255.66 748.848 L2235.76 748.848 L2235.76 744.913 Z" fill="#000000" fill-rule="nonzero" fill-opacity="1" /><path clip-path="url(#clip280)" d="M2275.11 717.367 Q2271.5 717.367 2269.67 720.931 Q2267.86 724.473 2267.86 731.603 Q2267.86 738.709 2269.67 742.274 Q2271.5 745.815 2275.11 745.815 Q2278.74 745.815 2280.55 742.274 Q2282.38 738.709 2282.38 731.603 Q2282.38 724.473 2280.55 720.931 Q2278.74 717.367 2275.11 717.367 M2275.11 713.663 Q2280.92 713.663 2283.97 718.269 Q2287.05 722.853 2287.05 731.603 Q2287.05 740.329 2283.97 744.936 Q2280.92 749.519 2275.11 749.519 Q2269.3 749.519 2266.22 744.936 Q2263.16 740.329 2263.16 731.603 Q2263.16 722.853 2266.22 718.269 Q2269.3 713.663 2275.11 713.663 Z" fill="#000000" fill-rule="nonzero" fill-opacity="1" /><path clip-path="url(#clip280)" d="M2305.27 717.367 Q2301.66 717.367 2299.83 720.931 Q2298.02 724.473 2298.02 731.603 Q2298.02 738.709 2299.83 742.274 Q2301.66 745.815 2305.27 745.815 Q2308.9 745.815 2310.71 742.274 Q2312.54 738.709 2312.54 731.603 Q2312.54 724.473 2310.71 720.931 Q2308.9 717.367 2305.27 717.367 M2305.27 713.663 Q2311.08 713.663 2314.14 718.269 Q2317.21 722.853 2317.21 731.603 Q2317.21 740.329 2314.14 744.936 Q2311.08 749.519 2305.27 749.519 Q2299.46 749.519 2296.38 744.936 Q2293.33 740.329 2293.33 731.603 Q2293.33 722.853 2296.38 718.269 Q2299.46 713.663 2305.27 713.663 Z" fill="#000000" fill-rule="nonzero" fill-opacity="1" /><path clip-path="url(#clip280)" d="M2335.43 717.367 Q2331.82 717.367 2329.99 720.931 Q2328.19 724.473 2328.19 731.603 Q2328.19 738.709 2329.99 742.274 Q2331.82 745.815 2335.43 745.815 Q2339.07 745.815 2340.87 742.274 Q2342.7 738.709 2342.7 731.603 Q2342.7 724.473 2340.87 720.931 Q2339.07 717.367 2335.43 717.367 M2335.43 713.663 Q2341.24 713.663 2344.3 718.269 Q2347.38 722.853 2347.38 731.603 Q2347.38 740.329 2344.3 744.936 Q2341.24 749.519 2335.43 749.519 Q2329.62 749.519 2326.54 744.936 Q2323.49 740.329 2323.49 731.603 Q2323.49 722.853 2326.54 718.269 Q2329.62 713.663 2335.43 713.663 Z" fill="#000000" fill-rule="nonzero" fill-opacity="1" /><polyline clip-path="url(#clip280)" style="stroke:#000000; stroke-linecap:round; stroke-linejoin:round; stroke-width:4; stroke-opacity:1; fill:none" points="178.867,686.448 178.867,47.2441 "/>
<polyline clip-path="url(#clip280)" style="stroke:#000000; stroke-linecap:round; stroke-linejoin:round; stroke-width:4; stroke-opacity:1; fill:none" points="178.867,686.448 197.764,686.448 "/>
<polyline clip-path="url(#clip280)" style="stroke:#000000; stroke-linecap:round; stroke-linejoin:round; stroke-width:4; stroke-opacity:1; fill:none" points="178.867,526.647 197.764,526.647 "/>
<polyline clip-path="url(#clip280)" style="stroke:#000000; stroke-linecap:round; stroke-linejoin:round; stroke-width:4; stroke-opacity:1; fill:none" points="178.867,366.846 197.764,366.846 "/>
<polyline clip-path="url(#clip280)" style="stroke:#000000; stroke-linecap:round; stroke-linejoin:round; stroke-width:4; stroke-opacity:1; fill:none" points="178.867,207.045 197.764,207.045 "/>
<polyline clip-path="url(#clip280)" style="stroke:#000000; stroke-linecap:round; stroke-linejoin:round; stroke-width:4; stroke-opacity:1; fill:none" points="178.867,47.2441 197.764,47.2441 "/>
<path clip-path="url(#clip280)" d="M50.9921 686.899 L80.6679 686.899 L80.6679 690.834 L50.9921 690.834 L50.9921 686.899 Z" fill="#000000" fill-rule="nonzero" fill-opacity="1" /><path clip-path="url(#clip280)" d="M91.5706 699.793 L99.2095 699.793 L99.2095 673.427 L90.8993 675.094 L90.8993 670.835 L99.1632 669.168 L103.839 669.168 L103.839 699.793 L111.478 699.793 L111.478 703.728 L91.5706 703.728 L91.5706 699.793 Z" fill="#000000" fill-rule="nonzero" fill-opacity="1" /><path clip-path="url(#clip280)" d="M130.922 672.247 Q127.311 672.247 125.482 675.811 Q123.677 679.353 123.677 686.483 Q123.677 693.589 125.482 697.154 Q127.311 700.695 130.922 700.695 Q134.556 700.695 136.362 697.154 Q138.191 693.589 138.191 686.483 Q138.191 679.353 136.362 675.811 Q134.556 672.247 130.922 672.247 M130.922 668.543 Q136.732 668.543 139.788 673.149 Q142.867 677.733 142.867 686.483 Q142.867 695.209 139.788 699.816 Q136.732 704.399 130.922 704.399 Q125.112 704.399 122.033 699.816 Q118.978 695.209 118.978 686.483 Q118.978 677.733 122.033 673.149 Q125.112 668.543 130.922 668.543 Z" fill="#000000" fill-rule="nonzero" fill-opacity="1" /><path clip-path="url(#clip280)" d="M82.1494 527.098 L111.825 527.098 L111.825 531.033 L82.1494 531.033 L82.1494 527.098 Z" fill="#000000" fill-rule="nonzero" fill-opacity="1" /><path clip-path="url(#clip280)" d="M121.964 509.367 L140.32 509.367 L140.32 513.302 L126.246 513.302 L126.246 521.774 Q127.265 521.427 128.283 521.265 Q129.302 521.08 130.32 521.08 Q136.107 521.08 139.487 524.251 Q142.867 527.422 142.867 532.839 Q142.867 538.418 139.394 541.52 Q135.922 544.598 129.603 544.598 Q127.427 544.598 125.158 544.228 Q122.913 543.857 120.506 543.117 L120.506 538.418 Q122.589 539.552 124.811 540.108 Q127.033 540.663 129.51 540.663 Q133.515 540.663 135.853 538.557 Q138.191 536.45 138.191 532.839 Q138.191 529.228 135.853 527.121 Q133.515 525.015 129.51 525.015 Q127.635 525.015 125.76 525.432 Q123.908 525.848 121.964 526.728 L121.964 509.367 Z" fill="#000000" fill-rule="nonzero" fill-opacity="1" /><path clip-path="url(#clip280)" d="M130.922 352.645 Q127.311 352.645 125.482 356.209 Q123.677 359.751 123.677 366.881 Q123.677 373.987 125.482 377.552 Q127.311 381.094 130.922 381.094 Q134.556 381.094 136.362 377.552 Q138.191 373.987 138.191 366.881 Q138.191 359.751 136.362 356.209 Q134.556 352.645 130.922 352.645 M130.922 348.941 Q136.732 348.941 139.788 353.547 Q142.867 358.131 142.867 366.881 Q142.867 375.608 139.788 380.214 Q136.732 384.797 130.922 384.797 Q125.112 384.797 122.033 380.214 Q118.978 375.608 118.978 366.881 Q118.978 358.131 122.033 353.547 Q125.112 348.941 130.922 348.941 Z" fill="#000000" fill-rule="nonzero" fill-opacity="1" /><path clip-path="url(#clip280)" d="M121.964 189.765 L140.32 189.765 L140.32 193.7 L126.246 193.7 L126.246 202.172 Q127.265 201.825 128.283 201.663 Q129.302 201.478 130.32 201.478 Q136.107 201.478 139.487 204.649 Q142.867 207.82 142.867 213.237 Q142.867 218.816 139.394 221.918 Q135.922 224.996 129.603 224.996 Q127.427 224.996 125.158 224.626 Q122.913 224.256 120.506 223.515 L120.506 218.816 Q122.589 219.95 124.811 220.506 Q127.033 221.061 129.51 221.061 Q133.515 221.061 135.853 218.955 Q138.191 216.848 138.191 213.237 Q138.191 209.626 135.853 207.52 Q133.515 205.413 129.51 205.413 Q127.635 205.413 125.76 205.83 Q123.908 206.246 121.964 207.126 L121.964 189.765 Z" fill="#000000" fill-rule="nonzero" fill-opacity="1" /><path clip-path="url(#clip280)" d="M91.5706 60.5889 L99.2095 60.5889 L99.2095 34.2233 L90.8993 35.89 L90.8993 31.6308 L99.1632 29.9641 L103.839 29.9641 L103.839 60.5889 L111.478 60.5889 L111.478 64.5241 L91.5706 64.5241 L91.5706 60.5889 Z" fill="#000000" fill-rule="nonzero" fill-opacity="1" /><path clip-path="url(#clip280)" d="M130.922 33.0428 Q127.311 33.0428 125.482 36.6076 Q123.677 40.1492 123.677 47.2788 Q123.677 54.3853 125.482 57.9501 Q127.311 61.4917 130.922 61.4917 Q134.556 61.4917 136.362 57.9501 Q138.191 54.3853 138.191 47.2788 Q138.191 40.1492 136.362 36.6076 Q134.556 33.0428 130.922 33.0428 M130.922 29.3391 Q136.732 29.3391 139.788 33.9456 Q142.867 38.5289 142.867 47.2788 Q142.867 56.0056 139.788 60.6121 Q136.732 65.1954 130.922 65.1954 Q125.112 65.1954 122.033 60.6121 Q118.978 56.0056 118.978 47.2788 Q118.978 38.5289 122.033 33.9456 Q125.112 29.3391 130.922 29.3391 Z" fill="#000000" fill-rule="nonzero" fill-opacity="1" /><polyline clip-path="url(#clip282)" style="stroke:#009af9; stroke-linecap:round; stroke-linejoin:round; stroke-width:4; stroke-opacity:1; fill:none" points="240.392,334.886 242.445,335.138 244.498,335.497 246.55,324.904 248.603,324.864 250.656,325.293 252.709,358.008 254.762,368.026 256.815,356.286 258.868,355.667 260.921,350.507 262.974,370.532 265.027,372.345 267.079,372.838 269.132,375.814 271.185,363.274 273.238,350.647 275.291,349.766 277.344,349.154 279.397,349.457 281.45,349.711 283.503,360.252 285.555,358.104 287.608,384.507 289.661,403.733 291.714,419.084 293.767,397.694 295.82,400.834 297.873,422.098 299.926,375.855 301.979,378.665 304.031,378.673 306.084,351.049 308.137,371.589 310.19,374.743 312.243,366.517 314.296,360.915 316.349,404.904 318.402,455.201 320.455,244.359 322.507,233.727 324.56,307.476 326.613,238.88 328.666,163.794 330.719,168.859 332.772,183.741 334.825,157.228 336.878,153.598 338.931,170.788 340.984,159.448 343.036,137.337 345.089,357.351 347.142,207.163 349.195,217.438 351.248,629.1 353.301,384.323 355.354,397.861 357.407,331.773 359.46,350.027 361.512,330.825 363.565,360.847 365.618,338.139 367.671,338.87 369.724,344.148 371.777,515.813 373.83,771.259 375.883,702.436 377.936,693.485 379.988,530.203 382.041,464.575 384.094,448.957 386.147,395.872 388.2,389.956 390.253,419.391 392.306,409.897 394.359,463.003 396.412,541.001 398.464,541.786 400.517,512.334 402.57,546.728 404.623,556.777 406.676,556.315 408.729,861.887 410.782,860.885 412.835,857.914 414.888,811.294 416.94,811.421 418.993,811.636 421.046,768.171 423.099,265.523 425.152,246.612 427.205,245.015 429.258,245.565 431.311,604.62 433.364,622.171 435.417,622.216 437.469,432.76 439.522,382.01 441.575,497.417 443.628,418.686 445.681,610.63 447.734,842.625 449.787,837.608 451.84,252.347 453.893,217.85 455.945,291.34 457.998,293.61 460.051,618.861 462.104,621.522 464.157,603.449 466.21,527.803 468.263,526.649 470.316,518.46 472.369,518.463 474.421,514.268 476.474,511.544 478.527,521.82 480.58,215.683 482.633,242.056 484.686,174.818 486.739,174.807 488.792,-60.1094 490.845,339.678 492.897,433.525 494.95,304.379 497.003,294.198 499.056,303.825 501.109,327.44 503.162,347.508 505.215,347.612 507.268,347.111 509.321,339.51 511.374,349.485 513.426,324.605 515.479,325.675 517.532,331.247 519.585,345.907 521.638,345.843 523.691,433.865 525.744,434.361 527.797,434.38 529.85,408.367 531.902,394.159 533.955,375.064 536.008,373.617 538.061,371.958 540.114,367.033 542.167,376.442 544.22,378.402 546.273,398.857 548.326,388.532 550.378,363.057 552.431,371.036 554.484,380.028 556.537,376.444 558.59,376.363 560.643,313.859 562.696,313.834 564.749,317.323 566.802,328.043 568.854,331.3 570.907,332.634 572.96,338.403 575.013,340.897 577.066,381.521 579.119,379.968 581.172,380.13 583.225,387.312 585.278,387.936 587.331,384.578 589.383,396.811 591.436,320.56 593.489,320.699 595.542,298.065 597.595,365.84 599.648,363.829 601.701,366.028 603.754,366 605.807,360.556 607.859,367.87 609.912,352.301 611.965,351.208 614.018,344.398 616.071,345.181 618.124,330.685 620.177,333.899 622.23,340.551 624.283,341.102 626.335,332.627 628.388,332.973 630.441,335.811 632.494,335.867 634.547,335.293 636.6,327.825 638.653,364.092 640.706,350.563 642.759,385.601 644.811,389.653 646.864,371.971 648.917,371.621 650.97,364.049 653.023,390.966 655.076,390.968 657.129,368.982 659.182,388.249 661.235,379.152 663.288,386.015 665.34,389.172 667.393,390.8 669.446,391.799 671.499,362.24 673.552,330.873 675.605,329.067 677.658,328.722 679.711,351.221 681.764,350.851 683.816,327.417 685.869,365.861 687.922,319.088 689.975,322.064 692.028,324.06 694.081,327.544 696.134,327.335 698.187,327.5 700.24,325.185 702.292,325.143 704.345,319.543 706.398,335.314 708.451,343.398 710.504,354.195 712.557,354.438 714.61,392.488 716.663,388.57 718.716,362.927 720.768,351.177 722.821,338.389 724.874,338.598 726.927,336.623 728.98,341.923 731.033,318.656 733.086,330.99 735.139,330.05 737.192,330.282 739.245,352.321 741.297,351.88 743.35,351.817 745.403,352.448 747.456,353.056 749.509,367.776 751.562,368.158 753.615,374.073 755.668,377.721 757.721,378.118 759.773,378.162 761.826,384.973 763.879,383.199 765.932,369.896 767.985,370.745 770.038,370.757 772.091,370.517 774.144,377.941 776.197,382.602 778.249,386.018 780.302,396.709 782.355,395.371 784.408,395.586 786.461,372.187 788.514,378.518 790.567,379.698 792.62,379.703 794.673,380.353 796.725,397.11 798.778,374.9 800.831,367.278 802.884,377.384 804.937,376.533 806.99,377.475 809.043,375.545 811.096,396.549 813.149,292.571 815.202,292.515 817.254,290.549 819.307,292.066 821.36,292.906 823.413,312.365 825.466,308.507 827.519,270.394 829.572,281.464 831.625,229.447 833.678,228.225 835.73,254.128 837.783,251.49 839.836,249.78 841.889,151.121 843.942,235.374 845.995,233.928 848.048,248.116 850.101,240.782 852.154,241.689 854.206,238.15 856.259,210.306 858.312,192.055 860.365,254.258 862.418,254.59 864.471,299.575 866.524,594.92 868.577,523.222 870.63,527.445 872.682,505.476 874.735,490.536 876.788,520.036 878.841,595.186 880.894,643.152 882.947,654.19 885,648.077 887.053,703.997 889.106,737.431 891.159,740.92 893.211,713.853 895.264,681.652 897.317,760.152 899.37,809.332 901.423,791.205 903.476,461.971 905.529,461.962 907.582,489.106 909.635,533.918 911.687,472.225 913.74,463.738 915.793,468.937 917.846,495.919 919.899,510.666 921.952,495.851 924.005,497.998 926.058,511.942 928.111,648.902 930.163,627.949 932.216,628.393 934.269,733.397 936.322,717.959 938.375,631.503 940.428,177.978 942.481,158.744 944.534,149.461 946.587,159.618 948.639,156.134 950.692,156.081 952.745,185.365 954.798,85.0628 956.851,101.4 958.904,156.342 960.957,159.621 963.01,108.86 965.063,131.797 967.116,189.098 969.168,192.32 971.221,187.359 973.274,186.922 975.327,173.387 977.38,205.295 979.433,187.714 981.486,183.061 983.539,180.692 985.592,181.171 987.644,378.806 989.697,538.272 991.75,567.855 993.803,562.663 995.856,572.933 997.909,586.945 999.962,475.455 1002.01,585.077 1004.07,675.652 1006.12,655.475 1008.17,656.272 1010.23,640.929 1012.28,537.79 1014.33,548.698 1016.38,517.936 1018.44,520.074 1020.49,599.02 1022.54,598.71 1024.6,593.735 1026.65,571.505 1028.7,519.851 1030.76,508.643 1032.81,508.207 1034.86,491.559 1036.91,487.301 1038.97,482.911 1041.02,482.935 1043.07,483.898 1045.13,489.669 1047.18,493.742 1049.23,388.464 1051.28,333.31 1053.34,395.434 1055.39,278.597 1057.44,227.746 1059.5,223.457 1061.55,230.385 1063.6,286.736 1065.65,329.308 1067.71,329.752 1069.76,363.986 1071.81,499.738 1073.87,512.157 1075.92,481.406 1077.97,481.79 1080.02,478.62 1082.08,470.46 1084.13,480.469 1086.18,476.905 1088.24,494.689 1090.29,409.858 1092.34,411.932 1094.39,423.286 1096.45,343.298 1098.5,362.453 1100.55,424.981 1102.61,369.621 1104.66,293.88 1106.71,248.107 1108.77,252.111 1110.82,426.625 1112.87,342.221 1114.92,401.988 1116.98,383.695 1119.03,363.206 1121.08,368.946 1123.14,370.535 1125.19,370.468 1127.24,379.642 1129.29,289.875 1131.35,295.015 1133.4,284.135 1135.45,284.103 1137.51,436.527 1139.56,432.29 1141.61,431.323 1143.66,443.267 1145.72,399.15 1147.77,379.956 1149.82,380.583 1151.88,206.781 1153.93,156.654 1155.98,226.641 1158.03,233.524 1160.09,234.923 1162.14,235.105 1164.19,414.582 1166.25,403.339 1168.3,275.334 1170.35,255.034 1172.4,255.244 1174.46,333.022 1176.51,342.27 1178.56,340.815 1180.62,341.533 1182.67,341.524 1184.72,341.855 1186.77,343.484 1188.83,344.003 1190.88,342.484 1192.93,341.685 1194.99,361.138 1197.04,363.421 1199.09,361.367 1201.15,415.063 1203.2,414.205 1205.25,391.09 1207.3,423.37 1209.36,432.63 1211.41,433.083 1213.46,433.288 1215.52,435.461 1217.57,432.585 1219.62,444.385 1221.67,443.239 1223.73,353.286 1225.78,338.811 1227.83,332.95 1229.89,326.467 1231.94,335.454 1233.99,375.399 1236.04,389.261 1238.1,387.923 1240.15,335.239 1242.2,310.67 1244.26,294.546 1246.31,321.72 1248.36,322.67 1250.41,302.646 1252.47,540.829 1254.52,548.232 1256.57,554.654 1258.63,569.092 1260.68,573.27 1262.73,556.875 1264.78,552.485 1266.84,545.009 1268.89,536.618 1270.94,532.988 1273,533.686 1275.05,532.416 1277.1,570.997 1279.16,530.758 1281.21,545.499 1283.26,540.196 1285.31,459.163 1287.37,754.43 1289.42,734.736 1291.47,589.406 1293.53,211.966 1295.58,278.783 1297.63,215.256 1299.68,280.2 1301.74,268.85 1303.79,148.33 1305.84,414.497 1307.9,394.672 1309.95,396.592 1312,369.268 1314.05,353.627 1316.11,282.638 1318.16,450.132 1320.21,390.579 1322.27,324.495 1324.32,161.702 1326.37,157.63 1328.42,169.241 1330.48,195.293 1332.53,398.82 1334.58,356.681 1336.64,321.642 1338.69,272.674 1340.74,302.165 1342.79,301.376 1344.85,366.276 1346.9,365.894 1348.95,346.353 1351.01,349.916 1353.06,337.874 1355.11,377.49 1357.16,402.507 1359.22,408.764 1361.27,397.885 1363.32,401.308 1365.38,438.067 1367.43,330.358 1369.48,351.999 1371.54,284.578 1373.59,290.369 1375.64,282.533 1377.69,339.097 1379.75,343.09 1381.8,343.057 1383.85,347.241 1385.91,348.2 1387.96,349.161 1390.01,348.046 1392.06,315.34 1394.12,317.459 1396.17,275.147 1398.22,275.504 1400.28,257.34 1402.33,406.9 1404.38,491.507 1406.43,435.293 1408.49,474.178 1410.54,473.406 1412.59,451.727 1414.65,454.072 1416.7,471.83 1418.75,464.797 1420.8,431.325 1422.86,432.589 1424.91,401.488 1426.96,392.695 1429.02,371.509 1431.07,371.724 1433.12,359.214 1435.17,296.975 1437.23,327.521 1439.28,330.821 1441.33,301.952 1443.39,259.789 1445.44,329.103 1447.49,278.511 1449.55,205.736 1451.6,282.11 1453.65,276.038 1455.7,317.373 1457.76,320.207 1459.81,312.519 1461.86,311.937 1463.92,300.792 1465.97,254.002 1468.02,262.924 1470.07,257.885 1472.13,258.79 1474.18,279.173 1476.23,284.582 1478.29,285.696 1480.34,344.209 1482.39,342.242 1484.44,434.421 1486.5,442.198 1488.55,436.998 1490.6,437.265 1492.66,434.906 1494.71,453.679 1496.76,474.927 1498.81,450.861 1500.87,494.357 1502.92,493.283 1504.97,484.844 1507.03,504.379 1509.08,507.379 1511.13,515.2 1513.18,515.279 1515.24,488.515 1517.29,480.56 1519.34,481.037 1521.4,487.134 1523.45,487.852 1525.5,487.637 1527.55,496.278 1529.61,478.696 1531.66,490.189 1533.71,308.455 1535.77,343.322 1537.82,348.652 1539.87,353.246 1541.93,377.886 1543.98,370.306 1546.03,371.137 1548.08,371.014 1550.14,390.599 1552.19,372.53 1554.24,373.266 1556.3,419.462 1558.35,386.654 1560.4,389.32 1562.45,415.851 1564.51,423.179 1566.56,324.553 1568.61,425.345 1570.67,419.302 1572.72,458.95 1574.77,428.883 1576.82,340.946 1578.88,347.312 1580.93,481.35 1582.98,459.79 1585.04,544.503 1587.09,541.415 1589.14,535.446 1591.19,526.878 1593.25,574.814 1595.3,573.127 1597.35,570.283 1599.41,595.749 1601.46,600.957 1603.51,601.352 1605.56,598.448 1607.62,616.57 1609.67,498.518 1611.72,490.147 1613.78,538.367 1615.83,532.909 1617.88,538.55 1619.94,540.186 1621.99,534.667 1624.04,537.964 1626.09,540.365 1628.15,540.639 1630.2,578.642 1632.25,458.431 1634.31,457.773 1636.36,459.575 1638.41,381.443 1640.46,384.838 1642.52,409.803 1644.57,348.396 1646.62,348.024 1648.68,354.208 1650.73,354.834 1652.78,351.48 1654.83,370.551 1656.89,283.408 1658.94,284.365 1660.99,286.573 1663.05,346.967 1665.1,346.92 1667.15,329.176 1669.2,404.747 1671.26,429.553 1673.31,421.123 1675.36,421.079 1677.42,314.699 1679.47,462.931 1681.52,461.334 1683.57,414.027 1685.63,414.112 1687.68,412.353 1689.73,413.011 1691.79,410.801 1693.84,404.964 1695.89,409.111 1697.94,407.456 1700,414.999 1702.05,419.558 1704.1,350.205 1706.16,350.205 1708.21,366.947 1710.26,366.398 1712.32,365.634 1714.37,365.63 1716.42,365.517 1718.47,365.495 1720.53,369.255 1722.58,380.34 1724.63,346.747 1726.69,348.09 1728.74,347.658 1730.79,348.52 1732.84,349.51 1734.9,349.538 1736.95,354.259 1739,353.138 1741.06,359.558 1743.11,402.795 1745.16,405.86 1747.21,412.304 1749.27,401.01 1751.32,400.994 1753.37,390.65 1755.43,363.895 1757.48,363.836 1759.53,361.489 1761.58,366.255 1763.64,365.063 1765.69,364.545 1767.74,386.074 1769.8,383.41 1771.85,389.437 1773.9,368.253 1775.95,331.892 1778.01,322.773 1780.06,335.39 1782.11,334.555 1784.17,333.982 1786.22,335.068 1788.27,333.509 1790.33,333.35 1792.38,332.956 1794.43,336.399 1796.48,336.642 1798.54,337.049 1800.59,344.347 1802.64,344.434 1804.7,344.4 1806.75,348.105 1808.8,346.908 1810.85,349.235 1812.91,348.679 1814.96,345.658 1817.01,342.329 1819.07,345.614 1821.12,345.69 1823.17,345.846 1825.22,343.034 1827.28,299.082 1829.33,296.51 1831.38,300.002 1833.44,306.806 1835.49,364.157 1837.54,364.581 1839.59,364.668 1841.65,365.201 1843.7,312.606 1845.75,309.24 1847.81,309.26 1849.86,295.3 1851.91,304.247 1853.96,298.844 1856.02,308.379 1858.07,265.359 1860.12,265.702 1862.18,265.448 1864.23,265.078 1866.28,261.95 1868.34,245.995 1870.39,253.851 1872.44,261.058 1874.49,257.739 1876.55,254.998 1878.6,257.67 1880.65,526.117 1882.71,295.47 1884.76,275.268 1886.81,275.871 1888.86,281.843 1890.92,282.086 1892.97,278.867 1895.02,295.235 1897.08,307.767 1899.13,304.925 1901.18,304.876 1903.23,305.745 1905.29,288.334 1907.34,286.864 1909.39,318.537 1911.45,318.78 1913.5,314.625 1915.55,292.287 1917.6,292.437 1919.66,290.496 1921.71,293.117 1923.76,308.643 1925.82,316.434 1927.87,317.237 1929.92,316.38 1931.97,319.164 1934.03,318.232 1936.08,318.052 1938.13,344.99 1940.19,338.719 1942.24,330.376 1944.29,323.483 1946.34,324.111 1948.4,337.318 1950.45,326.752 1952.5,325.7 1954.56,346.172 1956.61,356.399 1958.66,358.474 1960.72,363.828 1962.77,363.421 1964.82,407.46 1966.87,410.214 1968.93,396.444 1970.98,398.394 1973.03,374.432 1975.09,371.309 1977.14,372.001 1979.19,448.695 1981.24,387.191 1983.3,384.623 1985.35,391.626 1987.4,393.433 1989.46,361.581 1991.51,365.983 1993.56,365.898 1995.61,366.119 1997.67,366.254 1999.72,368.566 2001.77,365.481 2003.83,364.293 2005.88,401.946 2007.93,396.327 2009.98,400.118 2012.04,395.5 2014.09,396.848 2016.14,401.934 2018.2,372.665 2020.25,383.939 2022.3,385.649 2024.35,391.003 2026.41,423.744 2028.46,424.47 2030.51,422.026 2032.57,420.412 2034.62,364.293 2036.67,364.229 2038.73,359.281 2040.78,370.58 2042.83,375.534 2044.88,376.54 2046.94,374.553 2048.99,372.907 2051.04,373.031 2053.1,372.904 2055.15,381.494 2057.2,378.21 2059.25,378.074 2061.31,389.136 2063.36,388.896 2065.41,375.835 2067.47,375.853 2069.52,375.991 2071.57,382.082 2073.62,357.891 2075.68,380.513 2077.73,379.736 2079.78,389.356 2081.84,389.03 2083.89,391.275 2085.94,391.038 2087.99,393.125 2090.05,385.887 2092.1,377.418 2094.15,376.364 2096.21,372.448 2098.26,360.773 2100.31,343.784 2102.36,346.422 2104.42,347.438 2106.47,346.773 2108.52,345.65 2110.58,345.484 2112.63,346.936 2114.68,358.613 2116.73,358.178 2118.79,362.936 2120.84,354.136 2122.89,358.943 2124.95,361.544 2127,392.685 2129.05,406.753 2131.11,398.593 2133.16,382.671 2135.21,381.774 2137.26,373.674 2139.32,371.713 2141.37,371.613 2143.42,373.271 2145.48,373.221 2147.53,372.66 2149.58,372.666 2151.63,372.172 2153.69,364.768 2155.74,368.79 2157.79,369.944 2159.85,373.764 2161.9,365.723 2163.95,379.652 2166,385.602 2168.06,394.664 2170.11,402.659 2172.16,402.493 2174.22,404.688 2176.27,404.601 2178.32,404.321 2180.37,404.304 2182.43,404.521 2184.48,401.38 2186.53,398.839 2188.59,393.476 2190.64,344.178 2192.69,347.008 2194.74,342.849 2196.8,338.721 2198.85,350.448 2200.9,350.452 2202.96,350.405 2205.01,348.579 2207.06,347.283 2209.12,346.862 2211.17,346.851 2213.22,346.887 2215.27,347.847 2217.33,347.848 2219.38,347.854 2221.43,342.702 2223.49,343.605 2225.54,346.547 2227.59,349.948 2229.64,384.049 2231.7,357.064 2233.75,356.001 2235.8,352.825 2237.86,360.091 2239.91,376.162 2241.96,374.209 2244.01,375.906 2246.07,373.735 2248.12,373.637 2250.17,373.352 2252.23,390.755 2254.28,356.534 2256.33,344.942 2258.38,337.359 2260.44,337.723 2262.49,361.299 2264.54,355.21 2266.6,354.677 2268.65,352.6 2270.7,340.217 2272.75,327.555 2274.81,355.5 2276.86,347.121 2278.91,355.125 2280.97,347.019 2283.02,340.531 2285.07,341.047 2287.12,337.988 2289.18,339.761 2291.23,332.777 "/>
<path clip-path="url(#clip280)" d="M1983.6 172.231 L2280.29 172.231 L2280.29 68.5509 L1983.6 68.5509  Z" fill="#ffffff" fill-rule="evenodd" fill-opacity="1"/>
<polyline clip-path="url(#clip280)" style="stroke:#000000; stroke-linecap:round; stroke-linejoin:round; stroke-width:4; stroke-opacity:1; fill:none" points="1983.6,172.231 2280.29,172.231 2280.29,68.5509 1983.6,68.5509 1983.6,172.231 "/>
<polyline clip-path="url(#clip280)" style="stroke:#009af9; stroke-linecap:round; stroke-linejoin:round; stroke-width:4; stroke-opacity:1; fill:none" points="2007.75,120.391 2152.68,120.391 "/>
<path clip-path="url(#clip280)" d="M2176.83 103.111 L2181.51 103.111 L2181.51 133.736 L2198.34 133.736 L2198.34 137.671 L2176.83 137.671 L2176.83 103.111 Z" fill="#000000" fill-rule="nonzero" fill-opacity="1" /><path clip-path="url(#clip280)" d="M2223.96 104.245 L2223.96 108.805 Q2221.3 107.532 2218.94 106.907 Q2216.58 106.282 2214.38 106.282 Q2210.56 106.282 2208.48 107.764 Q2206.42 109.245 2206.42 111.977 Q2206.42 114.268 2207.78 115.449 Q2209.17 116.606 2213.01 117.324 L2215.84 117.902 Q2221.07 118.898 2223.55 121.421 Q2226.05 123.921 2226.05 128.134 Q2226.05 133.157 2222.67 135.75 Q2219.31 138.342 2212.81 138.342 Q2210.35 138.342 2207.57 137.787 Q2204.82 137.231 2201.86 136.143 L2201.86 131.328 Q2204.7 132.926 2207.44 133.736 Q2210.17 134.546 2212.81 134.546 Q2216.81 134.546 2218.99 132.972 Q2221.16 131.398 2221.16 128.481 Q2221.16 125.935 2219.59 124.5 Q2218.04 123.064 2214.47 122.347 L2211.62 121.791 Q2206.39 120.75 2204.06 118.527 Q2201.72 116.305 2201.72 112.347 Q2201.72 107.764 2204.94 105.125 Q2208.18 102.486 2213.85 102.486 Q2216.28 102.486 2218.8 102.926 Q2221.32 103.366 2223.96 104.245 Z" fill="#000000" fill-rule="nonzero" fill-opacity="1" /><path clip-path="url(#clip280)" d="M2254.06 104.245 L2254.06 108.805 Q2251.39 107.532 2249.03 106.907 Q2246.67 106.282 2244.47 106.282 Q2240.65 106.282 2238.57 107.764 Q2236.51 109.245 2236.51 111.977 Q2236.51 114.268 2237.87 115.449 Q2239.26 116.606 2243.11 117.324 L2245.93 117.902 Q2251.16 118.898 2253.64 121.421 Q2256.14 123.921 2256.14 128.134 Q2256.14 133.157 2252.76 135.75 Q2249.4 138.342 2242.9 138.342 Q2240.44 138.342 2237.67 137.787 Q2234.91 137.231 2231.95 136.143 L2231.95 131.328 Q2234.8 132.926 2237.53 133.736 Q2240.26 134.546 2242.9 134.546 Q2246.9 134.546 2249.08 132.972 Q2251.25 131.398 2251.25 128.481 Q2251.25 125.935 2249.68 124.5 Q2248.13 123.064 2244.56 122.347 L2241.72 121.791 Q2236.49 120.75 2234.15 118.527 Q2231.81 116.305 2231.81 112.347 Q2231.81 107.764 2235.03 105.125 Q2238.27 102.486 2243.94 102.486 Q2246.37 102.486 2248.89 102.926 Q2251.42 103.366 2254.06 104.245 Z" fill="#000000" fill-rule="nonzero" fill-opacity="1" /><path clip-path="url(#clip280)" d="M178.867 1486.45 L2352.76 1486.45 L2352.76 847.244 L178.867 847.244  Z" fill="#ffffff" fill-rule="evenodd" fill-opacity="1"/>
<defs>
  <clipPath id="clip283">
    <rect x="178" y="847" width="2175" height="640"/>
  </clipPath>
</defs>
<polyline clip-path="url(#clip283)" style="stroke:#000000; stroke-linecap:round; stroke-linejoin:round; stroke-width:2; stroke-opacity:0.1; fill:none" points="238.339,1486.45 238.339,847.244 "/>
<polyline clip-path="url(#clip283)" style="stroke:#000000; stroke-linecap:round; stroke-linejoin:round; stroke-width:2; stroke-opacity:0.1; fill:none" points="751.562,1486.45 751.562,847.244 "/>
<polyline clip-path="url(#clip283)" style="stroke:#000000; stroke-linecap:round; stroke-linejoin:round; stroke-width:2; stroke-opacity:0.1; fill:none" points="1264.78,1486.45 1264.78,847.244 "/>
<polyline clip-path="url(#clip283)" style="stroke:#000000; stroke-linecap:round; stroke-linejoin:round; stroke-width:2; stroke-opacity:0.1; fill:none" points="1778.01,1486.45 1778.01,847.244 "/>
<polyline clip-path="url(#clip283)" style="stroke:#000000; stroke-linecap:round; stroke-linejoin:round; stroke-width:2; stroke-opacity:0.1; fill:none" points="2291.23,1486.45 2291.23,847.244 "/>
<polyline clip-path="url(#clip283)" style="stroke:#000000; stroke-linecap:round; stroke-linejoin:round; stroke-width:2; stroke-opacity:0.1; fill:none" points="178.867,1486.45 2352.76,1486.45 "/>
<polyline clip-path="url(#clip283)" style="stroke:#000000; stroke-linecap:round; stroke-linejoin:round; stroke-width:2; stroke-opacity:0.1; fill:none" points="178.867,1326.65 2352.76,1326.65 "/>
<polyline clip-path="url(#clip283)" style="stroke:#000000; stroke-linecap:round; stroke-linejoin:round; stroke-width:2; stroke-opacity:0.1; fill:none" points="178.867,1166.85 2352.76,1166.85 "/>
<polyline clip-path="url(#clip283)" style="stroke:#000000; stroke-linecap:round; stroke-linejoin:round; stroke-width:2; stroke-opacity:0.1; fill:none" points="178.867,1007.05 2352.76,1007.05 "/>
<polyline clip-path="url(#clip283)" style="stroke:#000000; stroke-linecap:round; stroke-linejoin:round; stroke-width:2; stroke-opacity:0.1; fill:none" points="178.867,847.244 2352.76,847.244 "/>
<polyline clip-path="url(#clip280)" style="stroke:#000000; stroke-linecap:round; stroke-linejoin:round; stroke-width:4; stroke-opacity:1; fill:none" points="178.867,1486.45 2352.76,1486.45 "/>
<polyline clip-path="url(#clip280)" style="stroke:#000000; stroke-linecap:round; stroke-linejoin:round; stroke-width:4; stroke-opacity:1; fill:none" points="238.339,1486.45 238.339,1467.55 "/>
<polyline clip-path="url(#clip280)" style="stroke:#000000; stroke-linecap:round; stroke-linejoin:round; stroke-width:4; stroke-opacity:1; fill:none" points="751.562,1486.45 751.562,1467.55 "/>
<polyline clip-path="url(#clip280)" style="stroke:#000000; stroke-linecap:round; stroke-linejoin:round; stroke-width:4; stroke-opacity:1; fill:none" points="1264.78,1486.45 1264.78,1467.55 "/>
<polyline clip-path="url(#clip280)" style="stroke:#000000; stroke-linecap:round; stroke-linejoin:round; stroke-width:4; stroke-opacity:1; fill:none" points="1778.01,1486.45 1778.01,1467.55 "/>
<polyline clip-path="url(#clip280)" style="stroke:#000000; stroke-linecap:round; stroke-linejoin:round; stroke-width:4; stroke-opacity:1; fill:none" points="2291.23,1486.45 2291.23,1467.55 "/>
<path clip-path="url(#clip280)" d="M238.339 1517.37 Q234.728 1517.37 232.899 1520.93 Q231.094 1524.47 231.094 1531.6 Q231.094 1538.71 232.899 1542.27 Q234.728 1545.82 238.339 1545.82 Q241.973 1545.82 243.779 1542.27 Q245.607 1538.71 245.607 1531.6 Q245.607 1524.47 243.779 1520.93 Q241.973 1517.37 238.339 1517.37 M238.339 1513.66 Q244.149 1513.66 247.205 1518.27 Q250.283 1522.85 250.283 1531.6 Q250.283 1540.33 247.205 1544.94 Q244.149 1549.52 238.339 1549.52 Q232.529 1549.52 229.45 1544.94 Q226.395 1540.33 226.395 1531.6 Q226.395 1522.85 229.45 1518.27 Q232.529 1513.66 238.339 1513.66 Z" fill="#000000" fill-rule="nonzero" fill-opacity="1" /><path clip-path="url(#clip280)" d="M715.254 1544.91 L731.574 1544.91 L731.574 1548.85 L709.629 1548.85 L709.629 1544.91 Q712.291 1542.16 716.875 1537.53 Q721.481 1532.88 722.662 1531.53 Q724.907 1529.01 725.787 1527.27 Q726.689 1525.51 726.689 1523.82 Q726.689 1521.07 724.745 1519.33 Q722.824 1517.6 719.722 1517.6 Q717.523 1517.6 715.069 1518.36 Q712.638 1519.13 709.861 1520.68 L709.861 1515.95 Q712.685 1514.82 715.138 1514.24 Q717.592 1513.66 719.629 1513.66 Q725 1513.66 728.194 1516.35 Q731.388 1519.03 731.388 1523.52 Q731.388 1525.65 730.578 1527.57 Q729.791 1529.47 727.685 1532.07 Q727.106 1532.74 724.004 1535.95 Q720.902 1539.15 715.254 1544.91 Z" fill="#000000" fill-rule="nonzero" fill-opacity="1" /><path clip-path="url(#clip280)" d="M741.435 1514.29 L759.791 1514.29 L759.791 1518.22 L745.717 1518.22 L745.717 1526.7 Q746.736 1526.35 747.754 1526.19 Q748.773 1526 749.791 1526 Q755.578 1526 758.958 1529.17 Q762.337 1532.34 762.337 1537.76 Q762.337 1543.34 758.865 1546.44 Q755.393 1549.52 749.073 1549.52 Q746.898 1549.52 744.629 1549.15 Q742.384 1548.78 739.976 1548.04 L739.976 1543.34 Q742.06 1544.47 744.282 1545.03 Q746.504 1545.58 748.981 1545.58 Q752.985 1545.58 755.323 1543.48 Q757.661 1541.37 757.661 1537.76 Q757.661 1534.15 755.323 1532.04 Q752.985 1529.94 748.981 1529.94 Q747.106 1529.94 745.231 1530.35 Q743.379 1530.77 741.435 1531.65 L741.435 1514.29 Z" fill="#000000" fill-rule="nonzero" fill-opacity="1" /><path clip-path="url(#clip280)" d="M781.55 1517.37 Q777.939 1517.37 776.11 1520.93 Q774.305 1524.47 774.305 1531.6 Q774.305 1538.71 776.11 1542.27 Q777.939 1545.82 781.55 1545.82 Q785.184 1545.82 786.99 1542.27 Q788.819 1538.71 788.819 1531.6 Q788.819 1524.47 786.99 1520.93 Q785.184 1517.37 781.55 1517.37 M781.55 1513.66 Q787.36 1513.66 790.416 1518.27 Q793.495 1522.85 793.495 1531.6 Q793.495 1540.33 790.416 1544.94 Q787.36 1549.52 781.55 1549.52 Q775.74 1549.52 772.661 1544.94 Q769.606 1540.33 769.606 1531.6 Q769.606 1522.85 772.661 1518.27 Q775.74 1513.66 781.55 1513.66 Z" fill="#000000" fill-rule="nonzero" fill-opacity="1" /><path clip-path="url(#clip280)" d="M1224.4 1514.29 L1242.76 1514.29 L1242.76 1518.22 L1228.69 1518.22 L1228.69 1526.7 Q1229.7 1526.35 1230.72 1526.19 Q1231.74 1526 1232.76 1526 Q1238.55 1526 1241.93 1529.17 Q1245.31 1532.34 1245.31 1537.76 Q1245.31 1543.34 1241.83 1546.44 Q1238.36 1549.52 1232.04 1549.52 Q1229.87 1549.52 1227.6 1549.15 Q1225.35 1548.78 1222.94 1548.04 L1222.94 1543.34 Q1225.03 1544.47 1227.25 1545.03 Q1229.47 1545.58 1231.95 1545.58 Q1235.95 1545.58 1238.29 1543.48 Q1240.63 1541.37 1240.63 1537.76 Q1240.63 1534.15 1238.29 1532.04 Q1235.95 1529.94 1231.95 1529.94 Q1230.07 1529.94 1228.2 1530.35 Q1226.35 1530.77 1224.4 1531.65 L1224.4 1514.29 Z" fill="#000000" fill-rule="nonzero" fill-opacity="1" /><path clip-path="url(#clip280)" d="M1264.52 1517.37 Q1260.91 1517.37 1259.08 1520.93 Q1257.27 1524.47 1257.27 1531.6 Q1257.27 1538.71 1259.08 1542.27 Q1260.91 1545.82 1264.52 1545.82 Q1268.15 1545.82 1269.96 1542.27 Q1271.79 1538.71 1271.79 1531.6 Q1271.79 1524.47 1269.96 1520.93 Q1268.15 1517.37 1264.52 1517.37 M1264.52 1513.66 Q1270.33 1513.66 1273.38 1518.27 Q1276.46 1522.85 1276.46 1531.6 Q1276.46 1540.33 1273.38 1544.94 Q1270.33 1549.52 1264.52 1549.52 Q1258.71 1549.52 1255.63 1544.94 Q1252.57 1540.33 1252.57 1531.6 Q1252.57 1522.85 1255.63 1518.27 Q1258.71 1513.66 1264.52 1513.66 Z" fill="#000000" fill-rule="nonzero" fill-opacity="1" /><path clip-path="url(#clip280)" d="M1294.68 1517.37 Q1291.07 1517.37 1289.24 1520.93 Q1287.44 1524.47 1287.44 1531.6 Q1287.44 1538.71 1289.24 1542.27 Q1291.07 1545.82 1294.68 1545.82 Q1298.31 1545.82 1300.12 1542.27 Q1301.95 1538.71 1301.95 1531.6 Q1301.95 1524.47 1300.12 1520.93 Q1298.31 1517.37 1294.68 1517.37 M1294.68 1513.66 Q1300.49 1513.66 1303.55 1518.27 Q1306.62 1522.85 1306.62 1531.6 Q1306.62 1540.33 1303.55 1544.94 Q1300.49 1549.52 1294.68 1549.52 Q1288.87 1549.52 1285.79 1544.94 Q1282.74 1540.33 1282.74 1531.6 Q1282.74 1522.85 1285.79 1518.27 Q1288.87 1513.66 1294.68 1513.66 Z" fill="#000000" fill-rule="nonzero" fill-opacity="1" /><path clip-path="url(#clip280)" d="M1736.28 1514.29 L1758.51 1514.29 L1758.51 1516.28 L1745.96 1548.85 L1741.08 1548.85 L1752.88 1518.22 L1736.28 1518.22 L1736.28 1514.29 Z" fill="#000000" fill-rule="nonzero" fill-opacity="1" /><path clip-path="url(#clip280)" d="M1767.67 1514.29 L1786.03 1514.29 L1786.03 1518.22 L1771.95 1518.22 L1771.95 1526.7 Q1772.97 1526.35 1773.99 1526.19 Q1775.01 1526 1776.03 1526 Q1781.82 1526 1785.2 1529.17 Q1788.57 1532.34 1788.57 1537.76 Q1788.57 1543.34 1785.1 1546.44 Q1781.63 1549.52 1775.31 1549.52 Q1773.14 1549.52 1770.87 1549.15 Q1768.62 1548.78 1766.21 1548.04 L1766.21 1543.34 Q1768.3 1544.47 1770.52 1545.03 Q1772.74 1545.58 1775.22 1545.58 Q1779.22 1545.58 1781.56 1543.48 Q1783.9 1541.37 1783.9 1537.76 Q1783.9 1534.15 1781.56 1532.04 Q1779.22 1529.94 1775.22 1529.94 Q1773.34 1529.94 1771.47 1530.35 Q1769.62 1530.77 1767.67 1531.65 L1767.67 1514.29 Z" fill="#000000" fill-rule="nonzero" fill-opacity="1" /><path clip-path="url(#clip280)" d="M1807.79 1517.37 Q1804.18 1517.37 1802.35 1520.93 Q1800.54 1524.47 1800.54 1531.6 Q1800.54 1538.71 1802.35 1542.27 Q1804.18 1545.82 1807.79 1545.82 Q1811.42 1545.82 1813.23 1542.27 Q1815.06 1538.71 1815.06 1531.6 Q1815.06 1524.47 1813.23 1520.93 Q1811.42 1517.37 1807.79 1517.37 M1807.79 1513.66 Q1813.6 1513.66 1816.65 1518.27 Q1819.73 1522.85 1819.73 1531.6 Q1819.73 1540.33 1816.65 1544.94 Q1813.6 1549.52 1807.79 1549.52 Q1801.98 1549.52 1798.9 1544.94 Q1795.84 1540.33 1795.84 1531.6 Q1795.84 1522.85 1798.9 1518.27 Q1801.98 1513.66 1807.79 1513.66 Z" fill="#000000" fill-rule="nonzero" fill-opacity="1" /><path clip-path="url(#clip280)" d="M2235.76 1544.91 L2243.4 1544.91 L2243.4 1518.55 L2235.09 1520.21 L2235.09 1515.95 L2243.35 1514.29 L2248.02 1514.29 L2248.02 1544.91 L2255.66 1544.91 L2255.66 1548.85 L2235.76 1548.85 L2235.76 1544.91 Z" fill="#000000" fill-rule="nonzero" fill-opacity="1" /><path clip-path="url(#clip280)" d="M2275.11 1517.37 Q2271.5 1517.37 2269.67 1520.93 Q2267.86 1524.47 2267.86 1531.6 Q2267.86 1538.71 2269.67 1542.27 Q2271.5 1545.82 2275.11 1545.82 Q2278.74 1545.82 2280.55 1542.27 Q2282.38 1538.71 2282.38 1531.6 Q2282.38 1524.47 2280.55 1520.93 Q2278.74 1517.37 2275.11 1517.37 M2275.11 1513.66 Q2280.92 1513.66 2283.97 1518.27 Q2287.05 1522.85 2287.05 1531.6 Q2287.05 1540.33 2283.97 1544.94 Q2280.92 1549.52 2275.11 1549.52 Q2269.3 1549.52 2266.22 1544.94 Q2263.16 1540.33 2263.16 1531.6 Q2263.16 1522.85 2266.22 1518.27 Q2269.3 1513.66 2275.11 1513.66 Z" fill="#000000" fill-rule="nonzero" fill-opacity="1" /><path clip-path="url(#clip280)" d="M2305.27 1517.37 Q2301.66 1517.37 2299.83 1520.93 Q2298.02 1524.47 2298.02 1531.6 Q2298.02 1538.71 2299.83 1542.27 Q2301.66 1545.82 2305.27 1545.82 Q2308.9 1545.82 2310.71 1542.27 Q2312.54 1538.71 2312.54 1531.6 Q2312.54 1524.47 2310.71 1520.93 Q2308.9 1517.37 2305.27 1517.37 M2305.27 1513.66 Q2311.08 1513.66 2314.14 1518.27 Q2317.21 1522.85 2317.21 1531.6 Q2317.21 1540.33 2314.14 1544.94 Q2311.08 1549.52 2305.27 1549.52 Q2299.46 1549.52 2296.38 1544.94 Q2293.33 1540.33 2293.33 1531.6 Q2293.33 1522.85 2296.38 1518.27 Q2299.46 1513.66 2305.27 1513.66 Z" fill="#000000" fill-rule="nonzero" fill-opacity="1" /><path clip-path="url(#clip280)" d="M2335.43 1517.37 Q2331.82 1517.37 2329.99 1520.93 Q2328.19 1524.47 2328.19 1531.6 Q2328.19 1538.71 2329.99 1542.27 Q2331.82 1545.82 2335.43 1545.82 Q2339.07 1545.82 2340.87 1542.27 Q2342.7 1538.71 2342.7 1531.6 Q2342.7 1524.47 2340.87 1520.93 Q2339.07 1517.37 2335.43 1517.37 M2335.43 1513.66 Q2341.24 1513.66 2344.3 1518.27 Q2347.38 1522.85 2347.38 1531.6 Q2347.38 1540.33 2344.3 1544.94 Q2341.24 1549.52 2335.43 1549.52 Q2329.62 1549.52 2326.54 1544.94 Q2323.49 1540.33 2323.49 1531.6 Q2323.49 1522.85 2326.54 1518.27 Q2329.62 1513.66 2335.43 1513.66 Z" fill="#000000" fill-rule="nonzero" fill-opacity="1" /><polyline clip-path="url(#clip280)" style="stroke:#000000; stroke-linecap:round; stroke-linejoin:round; stroke-width:4; stroke-opacity:1; fill:none" points="178.867,1486.45 178.867,847.244 "/>
<polyline clip-path="url(#clip280)" style="stroke:#000000; stroke-linecap:round; stroke-linejoin:round; stroke-width:4; stroke-opacity:1; fill:none" points="178.867,1486.45 197.764,1486.45 "/>
<polyline clip-path="url(#clip280)" style="stroke:#000000; stroke-linecap:round; stroke-linejoin:round; stroke-width:4; stroke-opacity:1; fill:none" points="178.867,1326.65 197.764,1326.65 "/>
<polyline clip-path="url(#clip280)" style="stroke:#000000; stroke-linecap:round; stroke-linejoin:round; stroke-width:4; stroke-opacity:1; fill:none" points="178.867,1166.85 197.764,1166.85 "/>
<polyline clip-path="url(#clip280)" style="stroke:#000000; stroke-linecap:round; stroke-linejoin:round; stroke-width:4; stroke-opacity:1; fill:none" points="178.867,1007.05 197.764,1007.05 "/>
<polyline clip-path="url(#clip280)" style="stroke:#000000; stroke-linecap:round; stroke-linejoin:round; stroke-width:4; stroke-opacity:1; fill:none" points="178.867,847.244 197.764,847.244 "/>
<path clip-path="url(#clip280)" d="M50.9921 1486.9 L80.6679 1486.9 L80.6679 1490.83 L50.9921 1490.83 L50.9921 1486.9 Z" fill="#000000" fill-rule="nonzero" fill-opacity="1" /><path clip-path="url(#clip280)" d="M91.5706 1499.79 L99.2095 1499.79 L99.2095 1473.43 L90.8993 1475.09 L90.8993 1470.83 L99.1632 1469.17 L103.839 1469.17 L103.839 1499.79 L111.478 1499.79 L111.478 1503.73 L91.5706 1503.73 L91.5706 1499.79 Z" fill="#000000" fill-rule="nonzero" fill-opacity="1" /><path clip-path="url(#clip280)" d="M130.922 1472.25 Q127.311 1472.25 125.482 1475.81 Q123.677 1479.35 123.677 1486.48 Q123.677 1493.59 125.482 1497.15 Q127.311 1500.7 130.922 1500.7 Q134.556 1500.7 136.362 1497.15 Q138.191 1493.59 138.191 1486.48 Q138.191 1479.35 136.362 1475.81 Q134.556 1472.25 130.922 1472.25 M130.922 1468.54 Q136.732 1468.54 139.788 1473.15 Q142.867 1477.73 142.867 1486.48 Q142.867 1495.21 139.788 1499.82 Q136.732 1504.4 130.922 1504.4 Q125.112 1504.4 122.033 1499.82 Q118.978 1495.21 118.978 1486.48 Q118.978 1477.73 122.033 1473.15 Q125.112 1468.54 130.922 1468.54 Z" fill="#000000" fill-rule="nonzero" fill-opacity="1" /><path clip-path="url(#clip280)" d="M82.1494 1327.1 L111.825 1327.1 L111.825 1331.03 L82.1494 1331.03 L82.1494 1327.1 Z" fill="#000000" fill-rule="nonzero" fill-opacity="1" /><path clip-path="url(#clip280)" d="M121.964 1309.37 L140.32 1309.37 L140.32 1313.3 L126.246 1313.3 L126.246 1321.77 Q127.265 1321.43 128.283 1321.27 Q129.302 1321.08 130.32 1321.08 Q136.107 1321.08 139.487 1324.25 Q142.867 1327.42 142.867 1332.84 Q142.867 1338.42 139.394 1341.52 Q135.922 1344.6 129.603 1344.6 Q127.427 1344.6 125.158 1344.23 Q122.913 1343.86 120.506 1343.12 L120.506 1338.42 Q122.589 1339.55 124.811 1340.11 Q127.033 1340.66 129.51 1340.66 Q133.515 1340.66 135.853 1338.56 Q138.191 1336.45 138.191 1332.84 Q138.191 1329.23 135.853 1327.12 Q133.515 1325.01 129.51 1325.01 Q127.635 1325.01 125.76 1325.43 Q123.908 1325.85 121.964 1326.73 L121.964 1309.37 Z" fill="#000000" fill-rule="nonzero" fill-opacity="1" /><path clip-path="url(#clip280)" d="M130.922 1152.64 Q127.311 1152.64 125.482 1156.21 Q123.677 1159.75 123.677 1166.88 Q123.677 1173.99 125.482 1177.55 Q127.311 1181.09 130.922 1181.09 Q134.556 1181.09 136.362 1177.55 Q138.191 1173.99 138.191 1166.88 Q138.191 1159.75 136.362 1156.21 Q134.556 1152.64 130.922 1152.64 M130.922 1148.94 Q136.732 1148.94 139.788 1153.55 Q142.867 1158.13 142.867 1166.88 Q142.867 1175.61 139.788 1180.21 Q136.732 1184.8 130.922 1184.8 Q125.112 1184.8 122.033 1180.21 Q118.978 1175.61 118.978 1166.88 Q118.978 1158.13 122.033 1153.55 Q125.112 1148.94 130.922 1148.94 Z" fill="#000000" fill-rule="nonzero" fill-opacity="1" /><path clip-path="url(#clip280)" d="M121.964 989.765 L140.32 989.765 L140.32 993.7 L126.246 993.7 L126.246 1002.17 Q127.265 1001.83 128.283 1001.66 Q129.302 1001.48 130.32 1001.48 Q136.107 1001.48 139.487 1004.65 Q142.867 1007.82 142.867 1013.24 Q142.867 1018.82 139.394 1021.92 Q135.922 1025 129.603 1025 Q127.427 1025 125.158 1024.63 Q122.913 1024.26 120.506 1023.51 L120.506 1018.82 Q122.589 1019.95 124.811 1020.51 Q127.033 1021.06 129.51 1021.06 Q133.515 1021.06 135.853 1018.95 Q138.191 1016.85 138.191 1013.24 Q138.191 1009.63 135.853 1007.52 Q133.515 1005.41 129.51 1005.41 Q127.635 1005.41 125.76 1005.83 Q123.908 1006.25 121.964 1007.13 L121.964 989.765 Z" fill="#000000" fill-rule="nonzero" fill-opacity="1" /><path clip-path="url(#clip280)" d="M91.5706 860.589 L99.2095 860.589 L99.2095 834.223 L90.8993 835.89 L90.8993 831.631 L99.1632 829.964 L103.839 829.964 L103.839 860.589 L111.478 860.589 L111.478 864.524 L91.5706 864.524 L91.5706 860.589 Z" fill="#000000" fill-rule="nonzero" fill-opacity="1" /><path clip-path="url(#clip280)" d="M130.922 833.043 Q127.311 833.043 125.482 836.608 Q123.677 840.149 123.677 847.279 Q123.677 854.385 125.482 857.95 Q127.311 861.492 130.922 861.492 Q134.556 861.492 136.362 857.95 Q138.191 854.385 138.191 847.279 Q138.191 840.149 136.362 836.608 Q134.556 833.043 130.922 833.043 M130.922 829.339 Q136.732 829.339 139.788 833.946 Q142.867 838.529 142.867 847.279 Q142.867 856.006 139.788 860.612 Q136.732 865.195 130.922 865.195 Q125.112 865.195 122.033 860.612 Q118.978 856.006 118.978 847.279 Q118.978 838.529 122.033 833.946 Q125.112 829.339 130.922 829.339 Z" fill="#000000" fill-rule="nonzero" fill-opacity="1" /><polyline clip-path="url(#clip283)" style="stroke:#009af9; stroke-linecap:round; stroke-linejoin:round; stroke-width:4; stroke-opacity:1; fill:none" points="240.392,1134.89 242.445,1141.29 244.498,1247.47 246.55,1092.12 248.603,1186.14 250.656,1159.85 252.709,1162.91 254.762,1198.86 256.815,1094.79 258.868,1154.24 260.921,1158.63 262.974,1153.94 265.027,1122.92 267.079,1158.16 269.132,1102.54 271.185,1141.7 273.238,1118.31 275.291,1220.62 277.344,1193.02 279.397,1209.55 281.45,985.283 283.503,1140.95 285.555,1185.59 287.608,1205.99 289.661,1074.98 291.714,1249.68 293.767,810.3 295.82,1156.72 297.873,1161.02 299.926,1160.52 301.979,1122.95 304.031,1137.13 306.084,1153.3 308.137,1309.76 310.19,1197.21 312.243,1134.42 314.296,1207.86 316.349,1101.63 318.402,1188.34 320.455,1436.13 322.507,1184.18 324.56,1101.4 326.613,1198.68 328.666,1188.2 330.719,1054.92 332.772,1288.1 334.825,1177.64 336.878,1157.68 338.931,1175.57 340.984,1183.39 343.036,992.85 345.089,1129.48 347.142,1182.77 349.195,1214.11 351.248,1153.32 353.301,1186.41 355.354,1137.8 357.407,1145.87 359.46,1222.45 361.512,1152.24 363.565,1163.43 365.618,1157.89 367.671,1190.35 369.724,1040.9 371.777,835.767 373.83,645.543 375.883,577.68 377.936,3512.4 379.988,-9139.74 382.041,-3273.65 384.094,4866.73 386.147,882.076 388.2,1135.63 390.253,1172.24 392.306,1175.15 394.359,1096.46 396.412,1095.71 398.464,1174.96 400.517,1087.43 402.57,1210.11 404.623,1134.42 406.676,1221.86 408.729,1197.36 410.782,1208.36 412.835,1177.89 414.888,842.152 416.94,1549.98 418.993,1494.18 421.046,1373.46 423.099,901.232 425.152,1513.91 427.205,1371.54 429.258,1233.73 431.311,1164.68 433.364,1193.01 435.417,1227.55 437.469,1193.27 439.522,1223.8 441.575,1163.06 443.628,1164.67 445.681,1198.96 447.734,1175.2 449.787,1149.08 451.84,1151.33 453.893,1164.92 455.945,1166.52 457.998,1205.45 460.051,1188.05 462.104,1173.75 464.157,1195.44 466.21,1164.85 468.263,1142.71 470.316,1139.71 472.369,1185.1 474.421,1192.29 476.474,1179.22 478.527,1163.42 480.58,1171.65 482.633,1154.36 484.686,1153.61 486.739,1131.77 488.792,1113.83 490.845,1201.5 492.897,1166.11 494.95,1166.97 497.003,1166.52 499.056,1214.29 501.109,1202.32 503.162,1145.55 505.215,1155.9 507.268,1330.37 509.321,1057.51 511.374,1161.07 513.426,1199.6 515.479,1151.06 517.532,1189.29 519.585,1216.47 521.638,1149.8 523.691,1145.44 525.744,1179.6 527.797,1119.64 529.85,1180.92 531.902,1033.11 533.955,1103.26 536.008,1232.31 538.061,1156.86 540.114,1188.89 542.167,1180.35 544.22,1130.23 546.273,1189.81 548.326,1170.24 550.378,1176.96 552.431,1099.16 554.484,1157.91 556.537,1171.16 558.59,1151.2 560.643,1172.34 562.696,1131.36 564.749,1200.81 566.802,1137.94 568.854,1219.74 570.907,1187.54 572.96,1139.02 575.013,1216.21 577.066,1272.19 579.119,1145.1 581.172,1209.75 583.225,1140.75 585.278,1238.75 587.331,1086.05 589.383,1380.08 591.436,1104.29 593.489,1198.86 595.542,1198.2 597.595,1182.1 599.648,852.543 601.701,1034.01 603.754,1200.22 605.807,1140.97 607.859,1154.58 609.912,1177.11 611.965,1186.55 614.018,1219.16 616.071,1154.18 618.124,1083.51 620.177,1258.67 622.23,1151.9 624.283,1178.54 626.335,1258.91 628.388,1193.85 630.441,1198.52 632.494,1106 634.547,1179.65 636.6,1139.74 638.653,1129.27 640.706,1133.04 642.759,1120.43 644.811,1132.96 646.864,1065.1 648.917,1163.64 650.97,1180.49 653.023,1140.21 655.076,1156.85 657.129,1149.91 659.182,1238.98 661.235,1197.78 663.288,1145.34 665.34,1159.72 667.393,1175.73 669.446,1170.5 671.499,1152.98 673.552,1132.36 675.605,1188.32 677.658,1147.34 679.711,1148.69 681.764,1085.93 683.816,1195.24 685.869,1416.47 687.922,989.771 689.975,1163.06 692.028,1157.07 694.081,1172.55 696.134,1151.77 698.187,1186.36 700.24,1183.18 702.292,1150.16 704.345,1172.39 706.398,1156.41 708.451,1142.89 710.504,1203.27 712.557,1133.98 714.61,1178.3 716.663,1151.7 718.716,1221.7 720.768,1222.24 722.821,1095.67 724.874,1167.05 726.927,1311.98 728.98,1042.1 731.033,1214.65 733.086,1101.68 735.139,1196.65 737.192,1203.26 739.245,1112.49 741.297,1160.91 743.35,1159.57 745.403,1159.89 747.456,1146.67 749.509,1137.61 751.562,1349.99 753.615,1117.31 755.668,1112.82 757.721,926.581 759.773,964.576 761.826,1208.91 763.879,1170.56 765.932,1135.08 767.985,1053.86 770.038,1262.29 772.091,1213.26 774.144,1105.21 776.197,1160.13 778.249,1187.35 780.302,1184.35 782.355,1198.88 784.408,1199.21 786.461,1130.84 788.514,1176.36 790.567,1114.27 792.62,1149.78 794.673,1141.89 796.725,1181.03 798.778,1152.77 800.831,1177.51 802.884,1193.55 804.937,1183.21 806.99,1148.52 809.043,1155.58 811.096,1163.49 813.149,1124.52 815.202,1141.12 817.254,1174.64 819.307,1149.59 821.36,1178 823.413,1133.4 825.466,1260.52 827.519,930.489 829.572,731.336 831.625,1143.66 833.678,1111.55 835.73,1051.84 837.783,1006.87 839.836,1162.07 841.889,1122.67 843.942,1082.3 845.995,1219.43 848.048,1163.81 850.101,1160.84 852.154,1178.91 854.206,1194.51 856.259,1153.87 858.312,1134.28 860.365,1217.13 862.418,1148.93 864.471,1148.58 866.524,1240.8 868.577,1321.19 870.63,1353.65 872.682,1136.69 874.735,1215.49 876.788,1249.08 878.841,1219.39 880.894,1202.24 882.947,1135.33 885,1188.19 887.053,1224.57 889.106,1136.91 891.159,1199.82 893.211,1187.4 895.264,1150.71 897.317,1129.28 899.37,1195.41 901.423,1150.65 903.476,1079.66 905.529,1075.58 907.582,1205.42 909.635,1197.68 911.687,1186.54 913.74,1154.11 915.793,1172.88 917.846,1446.72 919.899,2067.3 921.952,129.571 924.005,310.357 926.058,1183.31 928.111,1146.2 930.163,1202.98 932.216,1164.14 934.269,1158.08 936.322,1174.48 938.375,1217.95 940.428,1092.09 942.481,1242.15 944.534,1225.16 946.587,1240.13 948.639,1135.76 950.692,1127.55 952.745,1182.05 954.798,1167.28 956.851,1166.87 958.904,1204.26 960.957,1139.63 963.01,1284.94 965.063,1166.91 967.116,1129.78 969.168,1155.15 971.221,1012.48 973.274,1263.2 975.327,1071.55 977.38,1199.62 979.433,1224.89 981.486,1231.7 983.539,1242.26 985.592,1144.08 987.644,1171.06 989.697,1161.88 991.75,1165.41 993.803,1199.06 995.856,1148.26 997.909,1165.47 999.962,1129.01 1002.01,1091.71 1004.07,1199.48 1006.12,1197.57 1008.17,1198.37 1010.23,1209.66 1012.28,1119.19 1014.33,1190.05 1016.38,1039.2 1018.44,1319.47 1020.49,1295.3 1022.54,1262.69 1024.6,955.656 1026.65,1152.83 1028.7,1225.71 1030.76,1139.84 1032.81,1157.82 1034.86,1151.75 1036.91,1125.79 1038.97,1111.3 1041.02,1204.79 1043.07,1156.43 1045.13,1153.39 1047.18,1173.66 1049.23,1180.25 1051.28,1199.19 1053.34,1248.95 1055.39,1085.55 1057.44,1160.39 1059.5,1150.36 1061.55,1139.3 1063.6,1157.18 1065.65,1188.2 1067.71,1167.64 1069.76,1149.27 1071.81,1144.02 1073.87,1286.52 1075.92,1076.54 1077.97,1242.67 1080.02,1327.44 1082.08,1290.41 1084.13,1311.44 1086.18,1255.13 1088.24,1222.16 1090.29,1303.25 1092.34,1020.34 1094.39,1141 1096.45,850.994 1098.5,1021.17 1100.55,1536.96 1102.61,1256.44 1104.66,1037.7 1106.71,1052.85 1108.77,1210.13 1110.82,1214.4 1112.87,1063.11 1114.92,1206.87 1116.98,1165.7 1119.03,1218.87 1121.08,1153.46 1123.14,1130.84 1125.19,1206.85 1127.24,1156.2 1129.29,1216.71 1131.35,1081.21 1133.4,1160.38 1135.45,1167.78 1137.51,1172.91 1139.56,1203.53 1141.61,1219.77 1143.66,1266.53 1145.72,1099.94 1147.77,1163.69 1149.82,1169.84 1151.88,1153.37 1153.93,1159.28 1155.98,1110.34 1158.03,1176.8 1160.09,1128.02 1162.14,1194.06 1164.19,1182.66 1166.25,1165.11 1168.3,1153 1170.35,1176.81 1172.4,1202.17 1174.46,1173.02 1176.51,1250.88 1178.56,1350.69 1180.62,1180.45 1182.67,1199.29 1184.72,1123.25 1186.77,1208.57 1188.83,1165.82 1190.88,1188.55 1192.93,1185.27 1194.99,1187.16 1197.04,1107.31 1199.09,1288.09 1201.15,1242.59 1203.2,1126.11 1205.25,1340.61 1207.3,891.031 1209.36,1080.34 1211.41,1157.03 1213.46,1176.35 1215.52,1175.32 1217.57,1165.65 1219.62,1156.95 1221.67,1179.86 1223.73,1152.75 1225.78,1165.39 1227.83,1204.36 1229.89,1117.44 1231.94,1104.9 1233.99,1199.21 1236.04,1197.49 1238.1,1179.64 1240.15,830.183 1242.2,1449.03 1244.26,1209.76 1246.31,1207.68 1248.36,1080.45 1250.41,1141.77 1252.47,1178.1 1254.52,1164.13 1256.57,1113.38 1258.63,1249.32 1260.68,1023.92 1262.73,1070.63 1264.78,919.967 1266.84,1330.92 1268.89,1667.89 1270.94,1523.07 1273,606.409 1275.05,874.537 1277.1,1172.72 1279.16,1580.76 1281.21,406.564 1283.26,2053.75 1285.31,1823.12 1287.37,1029.85 1289.42,889.999 1291.47,1042.52 1293.53,1138.58 1295.58,1144.82 1297.63,1203.39 1299.68,1192.53 1301.74,1112.35 1303.79,1137.61 1305.84,1225.65 1307.9,1186 1309.95,1157.72 1312,1188.25 1314.05,1144.94 1316.11,1135.82 1318.16,1131.55 1320.21,1122.56 1322.27,1215.33 1324.32,1165.93 1326.37,1149.93 1328.42,1170.58 1330.48,1147.61 1332.53,1172.51 1334.58,1161.17 1336.64,1262.19 1338.69,1332.04 1340.74,1405.44 1342.79,1155.94 1344.85,932.251 1346.9,1124.26 1348.95,1221.77 1351.01,1180.61 1353.06,1186.83 1355.11,1157.63 1357.16,1208.4 1359.22,1152.9 1361.27,1181.41 1363.32,1039.45 1365.38,1162.34 1367.43,1175.9 1369.48,1214.65 1371.54,941.897 1373.59,1101.73 1375.64,1271.2 1377.69,1057.43 1379.75,1176.12 1381.8,1214.93 1383.85,1114.42 1385.91,1276.64 1387.96,1197.45 1390.01,919.018 1392.06,881.109 1394.12,1087.46 1396.17,1170.88 1398.22,1130.64 1400.28,1196.22 1402.33,1247.68 1404.38,1038.97 1406.43,1191.6 1408.49,1138.21 1410.54,1133.92 1412.59,1163.28 1414.65,1154 1416.7,1154.43 1418.75,1183.5 1420.8,1151.54 1422.86,1215.94 1424.91,1212.83 1426.96,1348.93 1429.02,1127.09 1431.07,1625.36 1433.12,790.717 1435.17,1152.89 1437.23,1249.3 1439.28,1147.58 1441.33,1168.63 1443.39,1167.96 1445.44,1200.6 1447.49,1194.37 1449.55,1180.84 1451.6,1139.42 1453.65,1178.68 1455.7,1127.97 1457.76,1225.73 1459.81,1141.82 1461.86,1158.38 1463.92,1191.18 1465.97,1172.72 1468.02,1162.51 1470.07,1183.43 1472.13,1136.73 1474.18,1233.81 1476.23,1145.8 1478.29,1124.15 1480.34,1130.24 1482.39,1186.28 1484.44,1160.98 1486.5,1182.24 1488.55,1181.38 1490.6,1228.25 1492.66,1204.98 1494.71,1045.97 1496.76,1245.49 1498.81,1222.43 1500.87,1130.65 1502.92,1223.8 1504.97,1135.76 1507.03,1124.03 1509.08,1266.17 1511.13,1067.56 1513.18,1179.91 1515.24,1149.45 1517.29,1166.7 1519.34,1151.9 1521.4,1177.25 1523.45,1172.67 1525.5,1153.48 1527.55,1183.67 1529.61,1172.06 1531.66,1177.9 1533.71,1159.04 1535.77,1177.21 1537.82,1198.42 1539.87,1106.82 1541.93,1171.81 1543.98,1136.27 1546.03,1397.59 1548.08,828.526 1550.14,2546.92 1552.19,-817.019 1554.24,1105.84 1556.3,1146.49 1558.35,1165.66 1560.4,1167.53 1562.45,1164.17 1564.51,1149.59 1566.56,1177.38 1568.61,1153.24 1570.67,1188.92 1572.72,1181.34 1574.77,1172.67 1576.82,1172.52 1578.88,1164.35 1580.93,1151.08 1582.98,1155.13 1585.04,1165.56 1587.09,1164.5 1589.14,1143.27 1591.19,1138.81 1593.25,1102.76 1595.3,1211.57 1597.35,1173.54 1599.41,1185.4 1601.46,1170.48 1603.51,1152.38 1605.56,1195.4 1607.62,1153.64 1609.67,1181.24 1611.72,1172.11 1613.78,1157.51 1615.83,1138.68 1617.88,1229.72 1619.94,1133.05 1621.99,1132.75 1624.04,1195.37 1626.09,1193.5 1628.15,1249.29 1630.2,981.102 1632.25,1508.58 1634.31,2445.4 1636.36,1815.45 1638.41,1005.62 1640.46,1883.12 1642.52,1180.67 1644.57,1770.71 1646.62,1085.58 1648.68,1149.33 1650.73,1243.71 1652.78,1148 1654.83,1217.39 1656.89,1184.58 1658.94,1163.66 1660.99,1121.31 1663.05,1220.71 1665.1,1006.28 1667.15,1197.21 1669.2,1195.34 1671.26,1176.48 1673.31,1187.1 1675.36,1121.36 1677.42,1177.36 1679.47,1128.1 1681.52,1143.25 1683.57,1179.53 1685.63,1169.02 1687.68,1181.56 1689.73,1200.55 1691.79,1167.71 1693.84,1269.41 1695.89,1119.18 1697.94,1079.18 1700,1273.61 1702.05,1260.32 1704.1,1427.21 1706.16,1036.28 1708.21,1161.66 1710.26,1137.73 1712.32,1149.3 1714.37,1140.62 1716.42,1224.02 1718.47,1067.91 1720.53,1058.31 1722.58,1234.27 1724.63,1234.99 1726.69,1113.99 1728.74,1248.11 1730.79,1194.9 1732.84,1190.99 1734.9,1213.15 1736.95,1088.65 1739,1216.14 1741.06,1120.78 1743.11,1177.88 1745.16,1178.49 1747.21,1139.82 1749.27,1127.89 1751.32,1128.8 1753.37,1152.47 1755.43,1129.17 1757.48,1196.42 1759.53,1134.13 1761.58,1125.01 1763.64,1133.97 1765.69,1184.42 1767.74,1158.37 1769.8,1190.84 1771.85,1032.99 1773.9,1288.05 1775.95,1205.28 1778.01,1160.83 1780.06,1173.6 1782.11,1165.23 1784.17,1135.63 1786.22,1179.41 1788.27,1190.47 1790.33,1167.99 1792.38,1096.74 1794.43,1131.92 1796.48,1162.89 1798.54,1203.03 1800.59,1162.28 1802.64,1170.41 1804.7,1154.51 1806.75,1207.89 1808.8,1219.92 1810.85,1118.04 1812.91,1232.36 1814.96,1207.64 1817.01,1167.44 1819.07,1181.28 1821.12,1208.69 1823.17,1147.03 1825.22,1157.42 1827.28,1150.47 1829.33,1136.85 1831.38,1172.92 1833.44,1132.54 1835.49,1156.2 1837.54,1213.4 1839.59,1127.46 1841.65,1156.26 1843.7,1168.82 1845.75,1161.06 1847.81,1147.91 1849.86,1184 1851.91,1153.5 1853.96,1144.15 1856.02,1164.87 1858.07,1164.74 1860.12,1171.37 1862.18,1152.07 1864.23,1167.38 1866.28,1173.58 1868.34,1141.28 1870.39,1219.5 1872.44,1178.67 1874.49,1174.73 1876.55,955.435 1878.6,399.386 1880.65,761.912 1882.71,1151.51 1884.76,1195.42 1886.81,1144.19 1888.86,1120.86 1890.92,1183.89 1892.97,1215.3 1895.02,1163.44 1897.08,1113.38 1899.13,1169.34 1901.18,1149.17 1903.23,1185.15 1905.29,1129.56 1907.34,1108.4 1909.39,1180.2 1911.45,1171.61 1913.5,1182.88 1915.55,1154.32 1917.6,1153.63 1919.66,1149.86 1921.71,1187.74 1923.76,1129.46 1925.82,1128.22 1927.87,1143.39 1929.92,1179.58 1931.97,1195.19 1934.03,1114.13 1936.08,1105.54 1938.13,1123.3 1940.19,1057.23 1942.24,1181.42 1944.29,1217.27 1946.34,1194.56 1948.4,1203.35 1950.45,1188.08 1952.5,1247.56 1954.56,1155.52 1956.61,1135.06 1958.66,1217.96 1960.72,1129.68 1962.77,1178.81 1964.82,1167.01 1966.87,990.988 1968.93,1066.88 1970.98,1225.28 1973.03,1302.67 1975.09,1430.57 1977.14,1187.21 1979.19,1153.21 1981.24,1169.29 1983.3,1243.75 1985.35,1335.7 1987.4,1206.8 1989.46,1116.8 1991.51,1176.76 1993.56,1148.46 1995.61,1207.21 1997.67,1174.92 1999.72,1158.45 2001.77,1161.51 2003.83,1193.62 2005.88,1104.24 2007.93,957.394 2009.98,1169.89 2012.04,1176.04 2014.09,1176.46 2016.14,1167.45 2018.2,1171.27 2020.25,1170.82 2022.3,1163.75 2024.35,1154.49 2026.41,1181.95 2028.46,1172.77 2030.51,1129.15 2032.57,1403.95 2034.62,1080.18 2036.67,1259.43 2038.73,1264.43 2040.78,1148.25 2042.83,1213.04 2044.88,1117.32 2046.94,968.92 2048.99,1350.08 2051.04,864.105 2053.1,1423.31 2055.15,718.901 2057.2,1133.55 2059.25,1159.87 2061.31,1017.32 2063.36,1278.04 2065.41,1226.79 2067.47,1217.21 2069.52,1171.36 2071.57,1179.04 2073.62,1175.58 2075.68,1183.64 2077.73,1218.02 2079.78,1169.94 2081.84,1119.98 2083.89,1203.79 2085.94,1180.14 2087.99,1184.98 2090.05,1175.78 2092.1,1196.68 2094.15,1201.09 2096.21,1170.04 2098.26,1169.55 2100.31,1141.36 2102.36,1191.05 2104.42,1180.21 2106.47,1159.38 2108.52,1174.09 2110.58,1187.54 2112.63,1172.9 2114.68,1149.15 2116.73,1156.85 2118.79,1192.12 2120.84,1143.03 2122.89,1152.75 2124.95,1171.68 2127,1253.85 2129.05,1040.21 2131.11,1107.16 2133.16,1245.57 2135.21,1141.25 2137.26,1224.74 2139.32,1182.92 2141.37,1126.93 2143.42,1151.8 2145.48,1134.91 2147.53,1207.57 2149.58,1123.17 2151.63,1150.47 2153.69,1186.74 2155.74,1158.37 2157.79,1170.35 2159.85,1149.86 2161.9,1210.68 2163.95,1183.45 2166,1182.11 2168.06,1206.08 2170.11,951.135 2172.16,1027.1 2174.22,1199.67 2176.27,1117.14 2178.32,1174.49 2180.37,1178.06 2182.43,1207.15 2184.48,1170.1 2186.53,1171.58 2188.59,1153.74 2190.64,1142.49 2192.69,1133.07 2194.74,1156.27 2196.8,1172.26 2198.85,1252.6 2200.9,1158.17 2202.96,1140.64 2205.01,1175.41 2207.06,1150.78 2209.12,1205.02 2211.17,1127.08 2213.22,1200.71 2215.27,1130.48 2217.33,1211.04 2219.38,1203.7 2221.43,1112.93 2223.49,939.821 2225.54,1383.39 2227.59,1153.84 2229.64,1256.06 2231.7,1210.32 2233.75,1201.08 2235.8,1180.67 2237.86,1187.69 2239.91,1072.82 2241.96,1120.48 2244.01,1327.93 2246.07,981.068 2248.12,1244.16 2250.17,848.345 2252.23,1285.09 2254.28,1154.62 2256.33,1152.96 2258.38,1164.93 2260.44,1075.02 2262.49,1204.96 2264.54,1154.58 2266.6,1148.43 2268.65,1182.47 2270.7,1135.82 2272.75,1285.52 2274.81,917.022 2276.86,988.239 2278.91,1069.44 2280.97,1193.83 2283.02,1188 2285.07,1162.28 2287.12,1166.22 2289.18,1149.29 2291.23,1188.68 "/>
<path clip-path="url(#clip280)" d="M251.33 1465.14 L588.926 1465.14 L588.926 1361.46 L251.33 1361.46  Z" fill="#ffffff" fill-rule="evenodd" fill-opacity="1"/>
<polyline clip-path="url(#clip280)" style="stroke:#000000; stroke-linecap:round; stroke-linejoin:round; stroke-width:4; stroke-opacity:1; fill:none" points="251.33,1465.14 588.926,1465.14 588.926,1361.46 251.33,1361.46 251.33,1465.14 "/>
<polyline clip-path="url(#clip280)" style="stroke:#009af9; stroke-linecap:round; stroke-linejoin:round; stroke-width:4; stroke-opacity:1; fill:none" points="275.484,1413.3 420.41,1413.3 "/>
<path clip-path="url(#clip280)" d="M470.12 1425.65 L470.12 1416.37 L462.481 1416.37 L462.481 1412.53 L474.749 1412.53 L474.749 1427.36 Q472.041 1429.28 468.777 1430.28 Q465.513 1431.25 461.809 1431.25 Q453.708 1431.25 449.124 1426.53 Q444.564 1421.78 444.564 1413.34 Q444.564 1404.86 449.124 1400.14 Q453.708 1395.4 461.809 1395.4 Q465.189 1395.4 468.221 1396.23 Q471.277 1397.06 473.846 1398.68 L473.846 1403.66 Q471.254 1401.46 468.337 1400.35 Q465.421 1399.24 462.203 1399.24 Q455.86 1399.24 452.666 1402.78 Q449.495 1406.32 449.495 1413.34 Q449.495 1420.33 452.666 1423.87 Q455.86 1427.41 462.203 1427.41 Q464.68 1427.41 466.624 1426.99 Q468.569 1426.55 470.12 1425.65 Z" fill="#000000" fill-rule="nonzero" fill-opacity="1" /><path clip-path="url(#clip280)" d="M487.967 1399.86 L487.967 1412.85 L493.846 1412.85 Q497.11 1412.85 498.893 1411.16 Q500.675 1409.47 500.675 1406.35 Q500.675 1403.24 498.893 1401.55 Q497.11 1399.86 493.846 1399.86 L487.967 1399.86 M483.291 1396.02 L493.846 1396.02 Q499.657 1396.02 502.619 1398.66 Q505.606 1401.28 505.606 1406.35 Q505.606 1411.46 502.619 1414.08 Q499.657 1416.69 493.846 1416.69 L487.967 1416.69 L487.967 1430.58 L483.291 1430.58 L483.291 1396.02 Z" fill="#000000" fill-rule="nonzero" fill-opacity="1" /><path clip-path="url(#clip280)" d="M532.596 1397.16 L532.596 1401.72 Q529.934 1400.44 527.573 1399.82 Q525.212 1399.19 523.013 1399.19 Q519.193 1399.19 517.11 1400.67 Q515.05 1402.16 515.05 1404.89 Q515.05 1407.18 516.416 1408.36 Q517.805 1409.52 521.647 1410.23 L524.471 1410.81 Q529.703 1411.81 532.179 1414.33 Q534.679 1416.83 534.679 1421.04 Q534.679 1426.07 531.3 1428.66 Q527.943 1431.25 521.439 1431.25 Q518.985 1431.25 516.207 1430.7 Q513.453 1430.14 510.49 1429.05 L510.49 1424.24 Q513.337 1425.84 516.068 1426.65 Q518.8 1427.46 521.439 1427.46 Q525.443 1427.46 527.619 1425.88 Q529.795 1424.31 529.795 1421.39 Q529.795 1418.85 528.221 1417.41 Q526.67 1415.97 523.105 1415.26 L520.258 1414.7 Q515.027 1413.66 512.689 1411.44 Q510.351 1409.22 510.351 1405.26 Q510.351 1400.67 513.568 1398.03 Q516.809 1395.4 522.48 1395.4 Q524.911 1395.4 527.434 1395.84 Q529.957 1396.28 532.596 1397.16 Z" fill="#000000" fill-rule="nonzero" fill-opacity="1" /><path clip-path="url(#clip280)" d="M562.689 1397.16 L562.689 1401.72 Q560.027 1400.44 557.665 1399.82 Q555.304 1399.19 553.105 1399.19 Q549.286 1399.19 547.203 1400.67 Q545.142 1402.16 545.142 1404.89 Q545.142 1407.18 546.508 1408.36 Q547.897 1409.52 551.74 1410.23 L554.564 1410.81 Q559.795 1411.81 562.272 1414.33 Q564.772 1416.83 564.772 1421.04 Q564.772 1426.07 561.392 1428.66 Q558.036 1431.25 551.531 1431.25 Q549.078 1431.25 546.3 1430.7 Q543.545 1430.14 540.582 1429.05 L540.582 1424.24 Q543.429 1425.84 546.161 1426.65 Q548.892 1427.46 551.531 1427.46 Q555.536 1427.46 557.712 1425.88 Q559.888 1424.31 559.888 1421.39 Q559.888 1418.85 558.314 1417.41 Q556.763 1415.97 553.198 1415.26 L550.351 1414.7 Q545.119 1413.66 542.781 1411.44 Q540.443 1409.22 540.443 1405.26 Q540.443 1400.67 543.661 1398.03 Q546.902 1395.4 552.573 1395.4 Q555.003 1395.4 557.527 1395.84 Q560.05 1396.28 562.689 1397.16 Z" fill="#000000" fill-rule="nonzero" fill-opacity="1" /></svg>
