<?xml version="1.0" encoding="utf-8"?>
<svg xmlns="http://www.w3.org/2000/svg" xmlns:xlink="http://www.w3.org/1999/xlink" width="600" height="400" viewBox="0 0 2400 1600">
<defs>
  <clipPath id="clip050">
    <rect x="0" y="0" width="2400" height="1600"/>
  </clipPath>
</defs>
<path clip-path="url(#clip050)" d="M0 1600 L2400 1600 L2400 0 L0 0  Z" fill="#ffffff" fill-rule="evenodd" fill-opacity="1"/>
<defs>
  <clipPath id="clip051">
    <rect x="480" y="0" width="1681" height="1600"/>
  </clipPath>
</defs>
<path clip-path="url(#clip050)" d="M178.867 686.448 L2352.76 686.448 L2352.76 47.2441 L178.867 47.2441  Z" fill="#ffffff" fill-rule="evenodd" fill-opacity="1"/>
<defs>
  <clipPath id="clip052">
    <rect x="178" y="47" width="2175" height="640"/>
  </clipPath>
</defs>
<polyline clip-path="url(#clip052)" style="stroke:#000000; stroke-linecap:round; stroke-linejoin:round; stroke-width:2; stroke-opacity:0.1; fill:none" points="238.339,686.448 238.339,47.2441 "/>
<polyline clip-path="url(#clip052)" style="stroke:#000000; stroke-linecap:round; stroke-linejoin:round; stroke-width:2; stroke-opacity:0.1; fill:none" points="751.562,686.448 751.562,47.2441 "/>
<polyline clip-path="url(#clip052)" style="stroke:#000000; stroke-linecap:round; stroke-linejoin:round; stroke-width:2; stroke-opacity:0.1; fill:none" points="1264.78,686.448 1264.78,47.2441 "/>
<polyline clip-path="url(#clip052)" style="stroke:#000000; stroke-linecap:round; stroke-linejoin:round; stroke-width:2; stroke-opacity:0.1; fill:none" points="1778.01,686.448 1778.01,47.2441 "/>
<polyline clip-path="url(#clip052)" style="stroke:#000000; stroke-linecap:round; stroke-linejoin:round; stroke-width:2; stroke-opacity:0.1; fill:none" points="2291.23,686.448 2291.23,47.2441 "/>
<polyline clip-path="url(#clip052)" style="stroke:#000000; stroke-linecap:round; stroke-linejoin:round; stroke-width:2; stroke-opacity:0.1; fill:none" points="178.867,686.448 2352.76,686.448 "/>
<polyline clip-path="url(#clip052)" style="stroke:#000000; stroke-linecap:round; stroke-linejoin:round; stroke-width:2; stroke-opacity:0.1; fill:none" points="178.867,526.647 2352.76,526.647 "/>
<polyline clip-path="url(#clip052)" style="stroke:#000000; stroke-linecap:round; stroke-linejoin:round; stroke-width:2; stroke-opacity:0.1; fill:none" points="178.867,366.846 2352.76,366.846 "/>
<polyline clip-path="url(#clip052)" style="stroke:#000000; stroke-linecap:round; stroke-linejoin:round; stroke-width:2; stroke-opacity:0.1; fill:none" points="178.867,207.045 2352.76,207.045 "/>
<polyline clip-path="url(#clip052)" style="stroke:#000000; stroke-linecap:round; stroke-linejoin:round; stroke-width:2; stroke-opacity:0.1; fill:none" points="178.867,47.2441 2352.76,47.2441 "/>
<polyline clip-path="url(#clip050)" style="stroke:#000000; stroke-linecap:round; stroke-linejoin:round; stroke-width:4; stroke-opacity:1; fill:none" points="178.867,686.448 2352.76,686.448 "/>
<polyline clip-path="url(#clip050)" style="stroke:#000000; stroke-linecap:round; stroke-linejoin:round; stroke-width:4; stroke-opacity:1; fill:none" points="238.339,686.448 238.339,667.55 "/>
<polyline clip-path="url(#clip050)" style="stroke:#000000; stroke-linecap:round; stroke-linejoin:round; stroke-width:4; stroke-opacity:1; fill:none" points="751.562,686.448 751.562,667.55 "/>
<polyline clip-path="url(#clip050)" style="stroke:#000000; stroke-linecap:round; stroke-linejoin:round; stroke-width:4; stroke-opacity:1; fill:none" points="1264.78,686.448 1264.78,667.55 "/>
<polyline clip-path="url(#clip050)" style="stroke:#000000; stroke-linecap:round; stroke-linejoin:round; stroke-width:4; stroke-opacity:1; fill:none" points="1778.01,686.448 1778.01,667.55 "/>
<polyline clip-path="url(#clip050)" style="stroke:#000000; stroke-linecap:round; stroke-linejoin:round; stroke-width:4; stroke-opacity:1; fill:none" points="2291.23,686.448 2291.23,667.55 "/>
<path clip-path="url(#clip050)" d="M238.339 717.367 Q234.728 717.367 232.899 720.931 Q231.094 724.473 231.094 731.603 Q231.094 738.709 232.899 742.274 Q234.728 745.815 238.339 745.815 Q241.973 745.815 243.779 742.274 Q245.607 738.709 245.607 731.603 Q245.607 724.473 243.779 720.931 Q241.973 717.367 238.339 717.367 M238.339 713.663 Q244.149 713.663 247.205 718.269 Q250.283 722.853 250.283 731.603 Q250.283 740.329 247.205 744.936 Q244.149 749.519 238.339 749.519 Q232.529 749.519 229.45 744.936 Q226.395 740.329 226.395 731.603 Q226.395 722.853 229.45 718.269 Q232.529 713.663 238.339 713.663 Z" fill="#000000" fill-rule="nonzero" fill-opacity="1" /><path clip-path="url(#clip050)" d="M715.254 744.913 L731.574 744.913 L731.574 748.848 L709.629 748.848 L709.629 744.913 Q712.291 742.158 716.875 737.528 Q721.481 732.876 722.662 731.533 Q724.907 729.01 725.787 727.274 Q726.689 725.515 726.689 723.825 Q726.689 721.07 724.745 719.334 Q722.824 717.598 719.722 717.598 Q717.523 717.598 715.069 718.362 Q712.638 719.126 709.861 720.677 L709.861 715.955 Q712.685 714.82 715.138 714.242 Q717.592 713.663 719.629 713.663 Q725 713.663 728.194 716.348 Q731.388 719.033 731.388 723.524 Q731.388 725.654 730.578 727.575 Q729.791 729.473 727.685 732.066 Q727.106 732.737 724.004 735.954 Q720.902 739.149 715.254 744.913 Z" fill="#000000" fill-rule="nonzero" fill-opacity="1" /><path clip-path="url(#clip050)" d="M741.435 714.288 L759.791 714.288 L759.791 718.223 L745.717 718.223 L745.717 726.695 Q746.736 726.348 747.754 726.186 Q748.773 726.001 749.791 726.001 Q755.578 726.001 758.958 729.172 Q762.337 732.343 762.337 737.76 Q762.337 743.339 758.865 746.44 Q755.393 749.519 749.073 749.519 Q746.898 749.519 744.629 749.149 Q742.384 748.778 739.976 748.038 L739.976 743.339 Q742.06 744.473 744.282 745.028 Q746.504 745.584 748.981 745.584 Q752.985 745.584 755.323 743.478 Q757.661 741.371 757.661 737.76 Q757.661 734.149 755.323 732.042 Q752.985 729.936 748.981 729.936 Q747.106 729.936 745.231 730.353 Q743.379 730.769 741.435 731.649 L741.435 714.288 Z" fill="#000000" fill-rule="nonzero" fill-opacity="1" /><path clip-path="url(#clip050)" d="M781.55 717.367 Q777.939 717.367 776.11 720.931 Q774.305 724.473 774.305 731.603 Q774.305 738.709 776.11 742.274 Q777.939 745.815 781.55 745.815 Q785.184 745.815 786.99 742.274 Q788.819 738.709 788.819 731.603 Q788.819 724.473 786.99 720.931 Q785.184 717.367 781.55 717.367 M781.55 713.663 Q787.36 713.663 790.416 718.269 Q793.495 722.853 793.495 731.603 Q793.495 740.329 790.416 744.936 Q787.36 749.519 781.55 749.519 Q775.74 749.519 772.661 744.936 Q769.606 740.329 769.606 731.603 Q769.606 722.853 772.661 718.269 Q775.74 713.663 781.55 713.663 Z" fill="#000000" fill-rule="nonzero" fill-opacity="1" /><path clip-path="url(#clip050)" d="M1224.4 714.288 L1242.76 714.288 L1242.76 718.223 L1228.69 718.223 L1228.69 726.695 Q1229.7 726.348 1230.72 726.186 Q1231.74 726.001 1232.76 726.001 Q1238.55 726.001 1241.93 729.172 Q1245.31 732.343 1245.31 737.76 Q1245.31 743.339 1241.83 746.44 Q1238.36 749.519 1232.04 749.519 Q1229.87 749.519 1227.6 749.149 Q1225.35 748.778 1222.94 748.038 L1222.94 743.339 Q1225.03 744.473 1227.25 745.028 Q1229.47 745.584 1231.95 745.584 Q1235.95 745.584 1238.29 743.478 Q1240.63 741.371 1240.63 737.76 Q1240.63 734.149 1238.29 732.042 Q1235.95 729.936 1231.95 729.936 Q1230.07 729.936 1228.2 730.353 Q1226.35 730.769 1224.4 731.649 L1224.4 714.288 Z" fill="#000000" fill-rule="nonzero" fill-opacity="1" /><path clip-path="url(#clip050)" d="M1264.52 717.367 Q1260.91 717.367 1259.08 720.931 Q1257.27 724.473 1257.27 731.603 Q1257.27 738.709 1259.08 742.274 Q1260.91 745.815 1264.52 745.815 Q1268.15 745.815 1269.96 742.274 Q1271.79 738.709 1271.79 731.603 Q1271.79 724.473 1269.96 720.931 Q1268.15 717.367 1264.52 717.367 M1264.52 713.663 Q1270.33 713.663 1273.38 718.269 Q1276.46 722.853 1276.46 731.603 Q1276.46 740.329 1273.38 744.936 Q1270.33 749.519 1264.52 749.519 Q1258.71 749.519 1255.63 744.936 Q1252.57 740.329 1252.57 731.603 Q1252.57 722.853 1255.63 718.269 Q1258.71 713.663 1264.52 713.663 Z" fill="#000000" fill-rule="nonzero" fill-opacity="1" /><path clip-path="url(#clip050)" d="M1294.68 717.367 Q1291.07 717.367 1289.24 720.931 Q1287.44 724.473 1287.44 731.603 Q1287.44 738.709 1289.24 742.274 Q1291.07 745.815 1294.68 745.815 Q1298.31 745.815 1300.12 742.274 Q1301.95 738.709 1301.95 731.603 Q1301.95 724.473 1300.12 720.931 Q1298.31 717.367 1294.68 717.367 M1294.68 713.663 Q1300.49 713.663 1303.55 718.269 Q1306.62 722.853 1306.62 731.603 Q1306.62 740.329 1303.55 744.936 Q1300.49 749.519 1294.68 749.519 Q1288.87 749.519 1285.79 744.936 Q1282.74 740.329 1282.74 731.603 Q1282.74 722.853 1285.79 718.269 Q1288.87 713.663 1294.68 713.663 Z" fill="#000000" fill-rule="nonzero" fill-opacity="1" /><path clip-path="url(#clip050)" d="M1736.28 714.288 L1758.51 714.288 L1758.51 716.279 L1745.96 748.848 L1741.08 748.848 L1752.88 718.223 L1736.28 718.223 L1736.28 714.288 Z" fill="#000000" fill-rule="nonzero" fill-opacity="1" /><path clip-path="url(#clip050)" d="M1767.67 714.288 L1786.03 714.288 L1786.03 718.223 L1771.95 718.223 L1771.95 726.695 Q1772.97 726.348 1773.99 726.186 Q1775.01 726.001 1776.03 726.001 Q1781.82 726.001 1785.2 729.172 Q1788.57 732.343 1788.57 737.76 Q1788.57 743.339 1785.1 746.44 Q1781.63 749.519 1775.31 749.519 Q1773.14 749.519 1770.87 749.149 Q1768.62 748.778 1766.21 748.038 L1766.21 743.339 Q1768.3 744.473 1770.52 745.028 Q1772.74 745.584 1775.22 745.584 Q1779.22 745.584 1781.56 743.478 Q1783.9 741.371 1783.9 737.76 Q1783.9 734.149 1781.56 732.042 Q1779.22 729.936 1775.22 729.936 Q1773.34 729.936 1771.47 730.353 Q1769.62 730.769 1767.67 731.649 L1767.67 714.288 Z" fill="#000000" fill-rule="nonzero" fill-opacity="1" /><path clip-path="url(#clip050)" d="M1807.79 717.367 Q1804.18 717.367 1802.35 720.931 Q1800.54 724.473 1800.54 731.603 Q1800.54 738.709 1802.35 742.274 Q1804.18 745.815 1807.79 745.815 Q1811.42 745.815 1813.23 742.274 Q1815.06 738.709 1815.06 731.603 Q1815.06 724.473 1813.23 720.931 Q1811.42 717.367 1807.79 717.367 M1807.79 713.663 Q1813.6 713.663 1816.65 718.269 Q1819.73 722.853 1819.73 731.603 Q1819.73 740.329 1816.65 744.936 Q1813.6 749.519 1807.79 749.519 Q1801.98 749.519 1798.9 744.936 Q1795.84 740.329 1795.84 731.603 Q1795.84 722.853 1798.9 718.269 Q1801.98 713.663 1807.79 713.663 Z" fill="#000000" fill-rule="nonzero" fill-opacity="1" /><path clip-path="url(#clip050)" d="M2235.76 744.913 L2243.4 744.913 L2243.4 718.547 L2235.09 720.214 L2235.09 715.955 L2243.35 714.288 L2248.02 714.288 L2248.02 744.913 L2255.66 744.913 L2255.66 748.848 L2235.76 748.848 L2235.76 744.913 Z" fill="#000000" fill-rule="nonzero" fill-opacity="1" /><path clip-path="url(#clip050)" d="M2275.11 717.367 Q2271.5 717.367 2269.67 720.931 Q2267.86 724.473 2267.86 731.603 Q2267.86 738.709 2269.67 742.274 Q2271.5 745.815 2275.11 745.815 Q2278.74 745.815 2280.55 742.274 Q2282.38 738.709 2282.38 731.603 Q2282.38 724.473 2280.55 720.931 Q2278.74 717.367 2275.11 717.367 M2275.11 713.663 Q2280.92 713.663 2283.97 718.269 Q2287.05 722.853 2287.05 731.603 Q2287.05 740.329 2283.97 744.936 Q2280.92 749.519 2275.11 749.519 Q2269.3 749.519 2266.22 744.936 Q2263.16 740.329 2263.16 731.603 Q2263.16 722.853 2266.22 718.269 Q2269.3 713.663 2275.11 713.663 Z" fill="#000000" fill-rule="nonzero" fill-opacity="1" /><path clip-path="url(#clip050)" d="M2305.27 717.367 Q2301.66 717.367 2299.83 720.931 Q2298.02 724.473 2298.02 731.603 Q2298.02 738.709 2299.83 742.274 Q2301.66 745.815 2305.27 745.815 Q2308.9 745.815 2310.71 742.274 Q2312.54 738.709 2312.54 731.603 Q2312.54 724.473 2310.71 720.931 Q2308.9 717.367 2305.27 717.367 M2305.27 713.663 Q2311.08 713.663 2314.14 718.269 Q2317.21 722.853 2317.21 731.603 Q2317.21 740.329 2314.14 744.936 Q2311.08 749.519 2305.27 749.519 Q2299.46 749.519 2296.38 744.936 Q2293.33 740.329 2293.33 731.603 Q2293.33 722.853 2296.38 718.269 Q2299.46 713.663 2305.27 713.663 Z" fill="#000000" fill-rule="nonzero" fill-opacity="1" /><path clip-path="url(#clip050)" d="M2335.43 717.367 Q2331.82 717.367 2329.99 720.931 Q2328.19 724.473 2328.19 731.603 Q2328.19 738.709 2329.99 742.274 Q2331.82 745.815 2335.43 745.815 Q2339.07 745.815 2340.87 742.274 Q2342.7 738.709 2342.7 731.603 Q2342.7 724.473 2340.87 720.931 Q2339.07 717.367 2335.43 717.367 M2335.43 713.663 Q2341.24 713.663 2344.3 718.269 Q2347.38 722.853 2347.38 731.603 Q2347.38 740.329 2344.3 744.936 Q2341.24 749.519 2335.43 749.519 Q2329.62 749.519 2326.54 744.936 Q2323.49 740.329 2323.49 731.603 Q2323.49 722.853 2326.54 718.269 Q2329.62 713.663 2335.43 713.663 Z" fill="#000000" fill-rule="nonzero" fill-opacity="1" /><polyline clip-path="url(#clip050)" style="stroke:#000000; stroke-linecap:round; stroke-linejoin:round; stroke-width:4; stroke-opacity:1; fill:none" points="178.867,686.448 178.867,47.2441 "/>
<polyline clip-path="url(#clip050)" style="stroke:#000000; stroke-linecap:round; stroke-linejoin:round; stroke-width:4; stroke-opacity:1; fill:none" points="178.867,686.448 197.764,686.448 "/>
<polyline clip-path="url(#clip050)" style="stroke:#000000; stroke-linecap:round; stroke-linejoin:round; stroke-width:4; stroke-opacity:1; fill:none" points="178.867,526.647 197.764,526.647 "/>
<polyline clip-path="url(#clip050)" style="stroke:#000000; stroke-linecap:round; stroke-linejoin:round; stroke-width:4; stroke-opacity:1; fill:none" points="178.867,366.846 197.764,366.846 "/>
<polyline clip-path="url(#clip050)" style="stroke:#000000; stroke-linecap:round; stroke-linejoin:round; stroke-width:4; stroke-opacity:1; fill:none" points="178.867,207.045 197.764,207.045 "/>
<polyline clip-path="url(#clip050)" style="stroke:#000000; stroke-linecap:round; stroke-linejoin:round; stroke-width:4; stroke-opacity:1; fill:none" points="178.867,47.2441 197.764,47.2441 "/>
<path clip-path="url(#clip050)" d="M50.9921 686.899 L80.6679 686.899 L80.6679 690.834 L50.9921 690.834 L50.9921 686.899 Z" fill="#000000" fill-rule="nonzero" fill-opacity="1" /><path clip-path="url(#clip050)" d="M91.5706 699.793 L99.2095 699.793 L99.2095 673.427 L90.8993 675.094 L90.8993 670.835 L99.1632 669.168 L103.839 669.168 L103.839 699.793 L111.478 699.793 L111.478 703.728 L91.5706 703.728 L91.5706 699.793 Z" fill="#000000" fill-rule="nonzero" fill-opacity="1" /><path clip-path="url(#clip050)" d="M130.922 672.247 Q127.311 672.247 125.482 675.811 Q123.677 679.353 123.677 686.483 Q123.677 693.589 125.482 697.154 Q127.311 700.695 130.922 700.695 Q134.556 700.695 136.362 697.154 Q138.191 693.589 138.191 686.483 Q138.191 679.353 136.362 675.811 Q134.556 672.247 130.922 672.247 M130.922 668.543 Q136.732 668.543 139.788 673.149 Q142.867 677.733 142.867 686.483 Q142.867 695.209 139.788 699.816 Q136.732 704.399 130.922 704.399 Q125.112 704.399 122.033 699.816 Q118.978 695.209 118.978 686.483 Q118.978 677.733 122.033 673.149 Q125.112 668.543 130.922 668.543 Z" fill="#000000" fill-rule="nonzero" fill-opacity="1" /><path clip-path="url(#clip050)" d="M82.1494 527.098 L111.825 527.098 L111.825 531.033 L82.1494 531.033 L82.1494 527.098 Z" fill="#000000" fill-rule="nonzero" fill-opacity="1" /><path clip-path="url(#clip050)" d="M121.964 509.367 L140.32 509.367 L140.32 513.302 L126.246 513.302 L126.246 521.774 Q127.265 521.427 128.283 521.265 Q129.302 521.08 130.32 521.08 Q136.107 521.08 139.487 524.251 Q142.867 527.422 142.867 532.839 Q142.867 538.418 139.394 541.52 Q135.922 544.598 129.603 544.598 Q127.427 544.598 125.158 544.228 Q122.913 543.857 120.506 543.117 L120.506 538.418 Q122.589 539.552 124.811 540.108 Q127.033 540.663 129.51 540.663 Q133.515 540.663 135.853 538.557 Q138.191 536.45 138.191 532.839 Q138.191 529.228 135.853 527.121 Q133.515 525.015 129.51 525.015 Q127.635 525.015 125.76 525.432 Q123.908 525.848 121.964 526.728 L121.964 509.367 Z" fill="#000000" fill-rule="nonzero" fill-opacity="1" /><path clip-path="url(#clip050)" d="M130.922 352.645 Q127.311 352.645 125.482 356.209 Q123.677 359.751 123.677 366.881 Q123.677 373.987 125.482 377.552 Q127.311 381.094 130.922 381.094 Q134.556 381.094 136.362 377.552 Q138.191 373.987 138.191 366.881 Q138.191 359.751 136.362 356.209 Q134.556 352.645 130.922 352.645 M130.922 348.941 Q136.732 348.941 139.788 353.547 Q142.867 358.131 142.867 366.881 Q142.867 375.608 139.788 380.214 Q136.732 384.797 130.922 384.797 Q125.112 384.797 122.033 380.214 Q118.978 375.608 118.978 366.881 Q118.978 358.131 122.033 353.547 Q125.112 348.941 130.922 348.941 Z" fill="#000000" fill-rule="nonzero" fill-opacity="1" /><path clip-path="url(#clip050)" d="M121.964 189.765 L140.32 189.765 L140.32 193.7 L126.246 193.7 L126.246 202.172 Q127.265 201.825 128.283 201.663 Q129.302 201.478 130.32 201.478 Q136.107 201.478 139.487 204.649 Q142.867 207.82 142.867 213.237 Q142.867 218.816 139.394 221.918 Q135.922 224.996 129.603 224.996 Q127.427 224.996 125.158 224.626 Q122.913 224.256 120.506 223.515 L120.506 218.816 Q122.589 219.95 124.811 220.506 Q127.033 221.061 129.51 221.061 Q133.515 221.061 135.853 218.955 Q138.191 216.848 138.191 213.237 Q138.191 209.626 135.853 207.52 Q133.515 205.413 129.51 205.413 Q127.635 205.413 125.76 205.83 Q123.908 206.246 121.964 207.126 L121.964 189.765 Z" fill="#000000" fill-rule="nonzero" fill-opacity="1" /><path clip-path="url(#clip050)" d="M91.5706 60.5889 L99.2095 60.5889 L99.2095 34.2233 L90.8993 35.89 L90.8993 31.6308 L99.1632 29.9641 L103.839 29.9641 L103.839 60.5889 L111.478 60.5889 L111.478 64.5241 L91.5706 64.5241 L91.5706 60.5889 Z" fill="#000000" fill-rule="nonzero" fill-opacity="1" /><path clip-path="url(#clip050)" d="M130.922 33.0428 Q127.311 33.0428 125.482 36.6076 Q123.677 40.1492 123.677 47.2788 Q123.677 54.3853 125.482 57.9501 Q127.311 61.4917 130.922 61.4917 Q134.556 61.4917 136.362 57.9501 Q138.191 54.3853 138.191 47.2788 Q138.191 40.1492 136.362 36.6076 Q134.556 33.0428 130.922 33.0428 M130.922 29.3391 Q136.732 29.3391 139.788 33.9456 Q142.867 38.5289 142.867 47.2788 Q142.867 56.0056 139.788 60.6121 Q136.732 65.1954 130.922 65.1954 Q125.112 65.1954 122.033 60.6121 Q118.978 56.0056 118.978 47.2788 Q118.978 38.5289 122.033 33.9456 Q125.112 29.3391 130.922 29.3391 Z" fill="#000000" fill-rule="nonzero" fill-opacity="1" /><polyline clip-path="url(#clip052)" style="stroke:#009af9; stroke-linecap:round; stroke-linejoin:round; stroke-width:4; stroke-opacity:1; fill:none" points="240.392,334.886 242.445,340.788 244.498,425.561 246.55,439.972 248.603,399.437 250.656,399.053 252.709,393.836 254.762,393.82 256.815,335.172 258.868,335.452 260.921,329.058 262.974,338.38 265.027,347.749 267.079,349.409 269.132,350.474 271.185,347.186 273.238,362.947 275.291,363.096 277.344,355.384 279.397,355.574 281.45,355.523 283.503,373.668 285.555,371.288 287.608,371.188 289.661,371.403 291.714,327.932 293.767,327.943 295.82,341.136 297.873,341.42 299.926,340.563 301.979,341.168 304.031,340.738 306.084,342.594 308.137,332.408 310.19,332.729 312.243,333.396 314.296,339.118 316.349,338.978 318.402,339.011 320.455,350.84 322.507,383.396 324.56,386.143 326.613,296.36 328.666,296.429 330.719,264.182 332.772,283.642 334.825,292.254 336.878,294.57 338.931,294.34 340.984,346.381 343.036,329.804 345.089,328.018 347.142,328.126 349.195,337.613 351.248,335.968 353.301,332.807 355.354,332.348 357.407,361.304 359.46,345.294 361.512,405.477 363.565,388.242 365.618,388.064 367.671,384.101 369.724,380.928 371.777,364.73 373.83,390.025 375.883,398.184 377.936,399.261 379.988,398.731 382.041,391.402 384.094,391.299 386.147,390.866 388.2,329.551 390.253,371.013 392.306,372.212 394.359,376.544 396.412,377.436 398.464,375.738 400.517,393.684 402.57,384.69 404.623,392.905 406.676,394.043 408.729,382.782 410.782,376.653 412.835,376.667 414.888,376.47 416.94,375.415 418.993,343.408 421.046,371.798 423.099,376.691 425.152,375.573 427.205,400.362 429.258,400.777 431.311,400.458 433.364,349.261 435.417,349.312 437.469,349.368 439.522,349.007 441.575,342.807 443.628,342.6 445.681,342.764 447.734,342.709 449.787,341.767 451.84,342.602 453.893,323.623 455.945,323.83 457.998,324.06 460.051,323.742 462.104,330.918 464.157,330.786 466.21,330.176 468.263,369.034 470.316,348.561 472.369,356.451 474.421,356.645 476.474,359.344 478.527,364.568 480.58,386.008 482.633,381.96 484.686,329.847 486.739,344.813 488.792,344.66 490.845,407.534 492.897,406.817 494.95,403.707 497.003,410.985 499.056,391.501 501.109,423.589 503.162,402.412 505.215,402.355 507.268,404.434 509.321,384.118 511.374,382.727 513.426,378.997 515.479,383.148 517.532,382.776 519.585,384.197 521.638,383.964 523.691,380.446 525.744,378.487 527.797,387.606 529.85,387.808 531.902,368.33 533.955,390.199 536.008,391.481 538.061,391.211 540.114,378.578 542.167,386.899 544.22,387.434 546.273,389.04 548.326,379.895 550.378,343.145 552.431,346.389 554.484,347.476 556.537,385.611 558.59,381.732 560.643,383.354 562.696,355.185 564.749,355.207 566.802,354.98 568.854,368.887 570.907,368.9 572.96,366.076 575.013,372.853 577.066,378.947 579.119,378.87 581.172,379.022 583.225,390.904 585.278,383.572 587.331,382.597 589.383,360.29 591.436,353.897 593.489,373.622 595.542,375.711 597.595,376.781 599.648,355.84 601.701,356.033 603.754,360.484 605.807,358.884 607.859,361.703 609.912,347 611.965,347.524 614.018,347.469 616.071,347.545 618.124,339.088 620.177,334.254 622.23,340.36 624.283,335.239 626.335,339.34 628.388,338.167 630.441,350.464 632.494,353.482 634.547,340.681 636.6,343.059 638.653,342.864 640.706,380.536 642.759,381.374 644.811,387.85 646.864,388.161 648.917,402.187 650.97,401.743 653.023,370.122 655.076,369.47 657.129,369.56 659.182,373.215 661.235,383.178 663.288,386.315 665.34,386.657 667.393,388.705 669.446,402.108 671.499,399.892 673.552,396.703 675.605,396.564 677.658,378.719 679.711,377.059 681.764,378.046 683.816,372.96 685.869,373.142 687.922,371.962 689.975,368.971 692.028,368.686 694.081,366.237 696.134,363.105 698.187,362.856 700.24,362.081 702.292,363.878 704.345,392.483 706.398,394.022 708.451,394.031 710.504,394.372 712.557,393.963 714.61,393.961 716.663,394.458 718.716,392.836 720.768,395.391 722.821,390.781 724.874,390.658 726.927,372.377 728.98,371.707 731.033,373.372 733.086,375.881 735.139,375.893 737.192,375.831 739.245,377.769 741.297,378.418 743.35,378.287 745.403,378.665 747.456,378.727 749.509,377.139 751.562,376.592 753.615,378.855 755.668,382.198 757.721,407.271 759.773,405.671 761.826,361.464 763.879,363.059 765.932,363.486 767.985,363.491 770.038,363.534 772.091,363.639 774.144,360.735 776.197,349.359 778.249,341.258 780.302,341.937 782.355,381.399 784.408,356.019 786.461,356.22 788.514,355.552 790.567,334.305 792.62,333.808 794.673,332.308 796.725,328.594 798.778,328.62 800.831,328.592 802.884,311.648 804.937,311.366 806.99,370.642 809.043,359.94 811.096,368.475 813.149,364.037 815.202,365.451 817.254,392.629 819.307,399.937 821.36,390.221 823.413,390.19 825.466,394.516 827.519,389.608 829.572,389.775 831.625,408.771 833.678,406.015 835.73,404.68 837.783,405.069 839.836,405.041 841.889,402.964 843.942,401.886 845.995,403.028 848.048,403.061 850.101,394.697 852.154,399.692 854.206,400.495 856.259,381.671 858.312,416.339 860.365,418.197 862.418,420.593 864.471,412.836 866.524,413.079 868.577,412.421 870.63,394.055 872.682,381.101 874.735,382.926 876.788,382.384 878.841,381.169 880.894,389.653 882.947,388.341 885,388.652 887.053,389.026 889.106,380.988 891.159,397.7 893.211,402.135 895.264,401.728 897.317,397.561 899.37,372.667 901.423,372.301 903.476,377.677 905.529,367.581 907.582,367.44 909.635,367.944 911.687,363.961 913.74,339.004 915.793,338.365 917.846,338.765 919.899,365.105 921.952,358.021 924.005,359.896 926.058,381.341 928.111,379.208 930.163,381.765 932.216,368.369 934.269,370.106 936.322,368.891 938.375,364.415 940.428,365.387 942.481,375.371 944.534,374.123 946.587,390.575 948.639,390.503 950.692,390.986 952.745,390.996 954.798,384.758 956.851,383.407 958.904,378.234 960.957,378.433 963.01,356.767 965.063,356.824 967.116,355.451 969.168,371.703 971.221,367.517 973.274,353.491 975.327,353.64 977.38,360.168 979.433,359.513 981.486,359.63 983.539,372.011 985.592,406.438 987.644,389.633 989.697,389.698 991.75,389.005 993.803,388.516 995.856,360.816 997.909,389.492 999.962,413.909 1002.01,389.226 1004.07,426.669 1006.12,426.823 1008.17,429.345 1010.23,396.275 1012.28,389.744 1014.33,357.708 1016.38,352.484 1018.44,389.498 1020.49,392.249 1022.54,390.536 1024.6,337.242 1026.65,360.3 1028.7,359.594 1030.76,358.689 1032.81,358.828 1034.86,358.261 1036.91,356.758 1038.97,351.774 1041.02,380.49 1043.07,383.501 1045.13,382.731 1047.18,381.015 1049.23,380.841 1051.28,372.751 1053.34,384.045 1055.39,381.754 1057.44,385.494 1059.5,382.084 1061.55,382.965 1063.6,380.432 1065.65,379.968 1067.71,373.957 1069.76,348.555 1071.81,348.362 1073.87,382.599 1075.92,372.16 1077.97,372.153 1080.02,362.016 1082.08,361.585 1084.13,369.062 1086.18,369.079 1088.24,369.847 1090.29,369.508 1092.34,362.74 1094.39,362.793 1096.45,363.911 1098.5,357.066 1100.55,353.842 1102.61,355.142 1104.66,351.415 1106.71,360.191 1108.77,360.132 1110.82,363.705 1112.87,359.058 1114.92,356.54 1116.98,359.674 1119.03,355.84 1121.08,356.593 1123.14,374.848 1125.19,372.333 1127.24,372.334 1129.29,369.642 1131.35,369.154 1133.4,370.957 1135.45,374.886 1137.51,356.196 1139.56,356.246 1141.61,351.401 1143.66,348.848 1145.72,352.922 1147.77,346.363 1149.82,342.812 1151.88,404.456 1153.93,404.191 1155.98,321.166 1158.03,318.398 1160.09,300.637 1162.14,300.376 1164.19,304.465 1166.25,300.712 1168.3,302.276 1170.35,305.654 1172.4,306.002 1174.46,319.68 1176.51,325.462 1178.56,338.991 1180.62,332.938 1182.67,308.223 1184.72,382.851 1186.77,359.098 1188.83,363.451 1190.88,363.053 1192.93,352.575 1194.99,343.761 1197.04,338.437 1199.09,338.744 1201.15,331.04 1203.2,331.172 1205.25,331.28 1207.3,330.611 1209.36,340.042 1211.41,338.922 1213.46,338.899 1215.52,337.175 1217.57,346.936 1219.62,345.277 1221.67,378.359 1223.73,375.082 1225.78,366.73 1227.83,370.807 1229.89,364.716 1231.94,383.006 1233.99,382.919 1236.04,367.791 1238.1,389.755 1240.15,389.539 1242.2,380.76 1244.26,380.767 1246.31,381.378 1248.36,390.787 1250.41,388.053 1252.47,388.147 1254.52,386.868 1256.57,382.927 1258.63,383.13 1260.68,360.354 1262.73,361.915 1264.78,361.945 1266.84,378.978 1268.89,378.817 1270.94,379.979 1273,339.704 1275.05,339.575 1277.1,339.426 1279.16,339.436 1281.21,340.954 1283.26,342.805 1285.31,370.698 1287.37,370.74 1289.42,370.78 1291.47,370.744 1293.53,374.306 1295.58,374.25 1297.63,372.963 1299.68,372.834 1301.74,369.191 1303.79,376.757 1305.84,376.763 1307.9,346.964 1309.95,346.208 1312,360.36 1314.05,363.851 1316.11,360.629 1318.16,349.167 1320.21,346.622 1322.27,335.52 1324.32,330.58 1326.37,328.303 1328.42,344.877 1330.48,344.015 1332.53,344.109 1334.58,344.416 1336.64,345.679 1338.69,355.5 1340.74,355.29 1342.79,359.199 1344.85,359.209 1346.9,363.729 1348.95,276.153 1351.01,281.047 1353.06,279.666 1355.11,280.258 1357.16,289.836 1359.22,289.736 1361.27,343.264 1363.32,343.31 1365.38,343.323 1367.43,345.071 1369.48,346.711 1371.54,343.559 1373.59,343.7 1375.64,371.33 1377.69,371.067 1379.75,387.34 1381.8,346.588 1383.85,346.756 1385.91,346.655 1387.96,341.919 1390.01,386.478 1392.06,376.753 1394.12,368.817 1396.17,368.414 1398.22,371.775 1400.28,377.594 1402.33,374.388 1404.38,370.953 1406.43,370.971 1408.49,373.173 1410.54,374.834 1412.59,373.461 1414.65,373.819 1416.7,390.371 1418.75,399.283 1420.8,343.074 1422.86,339.057 1424.91,342.383 1426.96,322.098 1429.02,349.099 1431.07,322.525 1433.12,363.444 1435.17,367.254 1437.23,367.243 1439.28,368.629 1441.33,349.336 1443.39,349.983 1445.44,349.436 1447.49,305.407 1449.55,306.368 1451.6,306.467 1453.65,306.002 1455.7,299.8 1457.76,299.125 1459.81,295.672 1461.86,291.671 1463.92,291.805 1465.97,278.797 1468.02,306.717 1470.07,304.588 1472.13,304.587 1474.18,316.784 1476.23,347.101 1478.29,343.701 1480.34,411.417 1482.39,414.7 1484.44,431.015 1486.5,407.923 1488.55,415.424 1490.6,415.448 1492.66,414.792 1494.71,415.205 1496.76,408.739 1498.81,407.072 1500.87,408.082 1502.92,409.747 1504.97,410.581 1507.03,411.657 1509.08,369.859 1511.13,379.59 1513.18,376.832 1515.24,391.465 1517.29,391.507 1519.34,397.81 1521.4,444.374 1523.45,444.468 1525.5,378.437 1527.55,368.606 1529.61,367.908 1531.66,367.074 1533.71,360.218 1535.77,353.541 1537.82,379.912 1539.87,377.329 1541.93,385.451 1543.98,358.651 1546.03,343.599 1548.08,343.761 1550.14,343.852 1552.19,354.661 1554.24,348.933 1556.3,348.891 1558.35,349.657 1560.4,353.37 1562.45,382.356 1564.51,382.423 1566.56,356.35 1568.61,353.682 1570.67,354.398 1572.72,359.476 1574.77,359.264 1576.82,359.229 1578.88,359.316 1580.93,372.727 1582.98,377.468 1585.04,377.808 1587.09,378.168 1589.14,378.116 1591.19,378.278 1593.25,365.022 1595.3,364.484 1597.35,367.968 1599.41,359.178 1601.46,376.601 1603.51,376.175 1605.56,381.4 1607.62,348.892 1609.67,354.568 1611.72,354.486 1613.78,354.699 1615.83,353.077 1617.88,353.007 1619.94,353.149 1621.99,357.912 1624.04,354.693 1626.09,379.832 1628.15,379.829 1630.2,383.494 1632.25,384.488 1634.31,384.523 1636.36,382.326 1638.41,380.263 1640.46,381.503 1642.52,380.961 1644.57,371.064 1646.62,370.837 1648.68,370.746 1650.73,370.773 1652.78,349.581 1654.83,349.985 1656.89,355.204 1658.94,391.723 1660.99,392.614 1663.05,385.303 1665.1,362.755 1667.15,368.741 1669.2,369.302 1671.26,369.244 1673.31,368.178 1675.36,366.561 1677.42,373.133 1679.47,373.14 1681.52,373.202 1683.57,365.342 1685.63,365.537 1687.68,369.083 1689.73,368.57 1691.79,367.544 1693.84,367.693 1695.89,361.341 1697.94,355.949 1700,356.353 1702.05,356.376 1704.1,373.803 1706.16,371.023 1708.21,371.793 1710.26,356.609 1712.32,370.042 1714.37,372.623 1716.42,373.003 1718.47,377.506 1720.53,383.644 1722.58,383.209 1724.63,383.075 1726.69,382.275 1728.74,377.603 1730.79,386.183 1732.84,389.041 1734.9,386.12 1736.95,386.224 1739,404.158 1741.06,307.304 1743.11,307.302 1745.16,304.575 1747.21,321.314 1749.27,327.415 1751.32,355.903 1753.37,355.541 1755.43,355.329 1757.48,353.732 1759.53,353.577 1761.58,353.555 1763.64,354.039 1765.69,372.826 1767.74,385.269 1769.8,387.817 1771.85,392.612 1773.9,383.228 1775.95,382.663 1778.01,374.571 1780.06,374.668 1782.11,365.055 1784.17,366.872 1786.22,379.357 1788.27,379.353 1790.33,376.32 1792.38,357.964 1794.43,312.138 1796.48,323.802 1798.54,322.913 1800.59,322.378 1802.64,299.105 1804.7,299.766 1806.75,303.966 1808.8,301.254 1810.85,316.242 1812.91,300.376 1814.96,298.493 1817.01,303.527 1819.07,290.885 1821.12,291.046 1823.17,291.002 1825.22,305.382 1827.28,288.24 1829.33,280.58 1831.38,279.661 1833.44,274.669 1835.49,410.017 1837.54,410.187 1839.59,365.862 1841.65,360.736 1843.7,362.274 1845.75,338.533 1847.81,396.965 1849.86,399.156 1851.91,399.279 1853.96,399.186 1856.02,398.921 1858.07,391.162 1860.12,388.996 1862.18,410.749 1864.23,338.769 1866.28,333.374 1868.34,333.347 1870.39,347.539 1872.44,348.086 1874.49,347.972 1876.55,327.664 1878.6,327.823 1880.65,329.894 1882.71,329.906 1884.76,315.884 1886.81,318.66 1888.86,318.064 1890.92,316.788 1892.97,320.038 1895.02,319.882 1897.08,315.167 1899.13,317.512 1901.18,317.711 1903.23,294.44 1905.29,293.329 1907.34,291.811 1909.39,296.473 1911.45,296.46 1913.5,296.46 1915.55,407.462 1917.6,402.34 1919.66,402.668 1921.71,401.753 1923.76,403.42 1925.82,406.124 1927.87,406.115 1929.92,400.325 1931.97,401.556 1934.03,401.638 1936.08,401.759 1938.13,392.443 1940.19,400.675 1942.24,398.985 1944.29,417.611 1946.34,433.698 1948.4,433.875 1950.45,398.828 1952.5,398.6 1954.56,369.184 1956.61,369.33 1958.66,372.095 1960.72,372.135 1962.77,373.568 1964.82,373.593 1966.87,373.263 1968.93,374.988 1970.98,329.575 1973.03,364.336 1975.09,364.245 1977.14,308.757 1979.19,358.604 1981.24,358.922 1983.3,329.161 1985.35,329.842 1987.4,328.265 1989.46,309.966 1991.51,310.969 1993.56,311.066 1995.61,311.066 1997.67,314.99 1999.72,413.111 2001.77,501.574 2003.83,476.754 2005.88,480.272 2007.93,471.723 2009.98,463.767 2012.04,494.088 2014.09,494.115 2016.14,361.486 2018.2,335.135 2020.25,332.725 2022.3,332.705 2024.35,332.044 2026.41,332.472 2028.46,325.613 2030.51,416.23 2032.57,404.994 2034.62,405.468 2036.67,382.315 2038.73,380.131 2040.78,380.596 2042.83,381.462 2044.88,381.463 2046.94,377.52 2048.99,376.959 2051.04,448.638 2053.1,479.242 2055.15,464.525 2057.2,424.338 2059.25,411.42 2061.31,363.193 2063.36,371.159 2065.41,342.963 2067.47,310.745 2069.52,422.611 2071.57,390.576 2073.62,366.937 2075.68,360.409 2077.73,476.089 2079.78,475.653 2081.84,411.949 2083.89,415.479 2085.94,428.052 2087.99,426.11 2090.05,438.178 2092.1,425.084 2094.15,422.646 2096.21,416.047 2098.26,423.769 2100.31,531.672 2102.36,551.056 2104.42,361.05 2106.47,350.163 2108.52,344.231 2110.58,299.229 2112.63,294.154 2114.68,295.133 2116.73,303.003 2118.79,300.99 2120.84,303.706 2122.89,303.131 2124.95,304.049 2127,309.692 2129.05,322.776 2131.11,327.23 2133.16,311.644 2135.21,304.441 2137.26,314.378 2139.32,314.356 2141.37,326.011 2143.42,366.194 2145.48,352.461 2147.53,351.053 2149.58,339.49 2151.63,339.521 2153.69,383.957 2155.74,384.873 2157.79,372.446 2159.85,372.773 2161.9,369.579 2163.95,371.647 2166,378.753 2168.06,353.048 2170.11,350.417 2172.16,344.54 2174.22,344.304 2176.27,349.211 2178.32,349.237 2180.37,361.975 2182.43,343.678 2184.48,367.787 2186.53,373.047 2188.59,370.243 2190.64,419.366 2192.69,417.888 2194.74,411.213 2196.8,411.578 2198.85,408.714 2200.9,415.056 2202.96,413.304 2205.01,371.816 2207.06,372.363 2209.12,376.335 2211.17,371.924 2213.22,408.213 2215.27,389.131 2217.33,386.535 2219.38,340.17 2221.43,296.916 2223.49,308.478 2225.54,308.919 2227.59,309.206 2229.64,320.424 2231.7,341.998 2233.75,317.902 2235.8,316.891 2237.86,315.906 2239.91,320.851 2241.96,361.871 2244.01,383.986 2246.07,402.854 2248.12,402.594 2250.17,406.62 2252.23,406.591 2254.28,411.52 2256.33,396.565 2258.38,396.811 2260.44,437.179 2262.49,440.077 2264.54,470.845 2266.6,469.99 2268.65,377.834 2270.7,397.415 2272.75,254.929 2274.81,338.256 2276.86,349.254 2278.91,318.645 2280.97,333.327 2283.02,301.402 2285.07,309.279 2287.12,306.575 2289.18,270.988 2291.23,329.007 "/>
<path clip-path="url(#clip050)" d="M1983.6 172.231 L2280.29 172.231 L2280.29 68.5509 L1983.6 68.5509  Z" fill="#ffffff" fill-rule="evenodd" fill-opacity="1"/>
<polyline clip-path="url(#clip050)" style="stroke:#000000; stroke-linecap:round; stroke-linejoin:round; stroke-width:4; stroke-opacity:1; fill:none" points="1983.6,172.231 2280.29,172.231 2280.29,68.5509 1983.6,68.5509 1983.6,172.231 "/>
<polyline clip-path="url(#clip050)" style="stroke:#009af9; stroke-linecap:round; stroke-linejoin:round; stroke-width:4; stroke-opacity:1; fill:none" points="2007.75,120.391 2152.68,120.391 "/>
<path clip-path="url(#clip050)" d="M2176.83 103.111 L2181.51 103.111 L2181.51 133.736 L2198.34 133.736 L2198.34 137.671 L2176.83 137.671 L2176.83 103.111 Z" fill="#000000" fill-rule="nonzero" fill-opacity="1" /><path clip-path="url(#clip050)" d="M2223.96 104.245 L2223.96 108.805 Q2221.3 107.532 2218.94 106.907 Q2216.58 106.282 2214.38 106.282 Q2210.56 106.282 2208.48 107.764 Q2206.42 109.245 2206.42 111.977 Q2206.42 114.268 2207.78 115.449 Q2209.17 116.606 2213.01 117.324 L2215.84 117.902 Q2221.07 118.898 2223.55 121.421 Q2226.05 123.921 2226.05 128.134 Q2226.05 133.157 2222.67 135.75 Q2219.31 138.342 2212.81 138.342 Q2210.35 138.342 2207.57 137.787 Q2204.82 137.231 2201.86 136.143 L2201.86 131.328 Q2204.7 132.926 2207.44 133.736 Q2210.17 134.546 2212.81 134.546 Q2216.81 134.546 2218.99 132.972 Q2221.16 131.398 2221.16 128.481 Q2221.16 125.935 2219.59 124.5 Q2218.04 123.064 2214.47 122.347 L2211.62 121.791 Q2206.39 120.75 2204.06 118.527 Q2201.72 116.305 2201.72 112.347 Q2201.72 107.764 2204.94 105.125 Q2208.18 102.486 2213.85 102.486 Q2216.28 102.486 2218.8 102.926 Q2221.32 103.366 2223.96 104.245 Z" fill="#000000" fill-rule="nonzero" fill-opacity="1" /><path clip-path="url(#clip050)" d="M2254.06 104.245 L2254.06 108.805 Q2251.39 107.532 2249.03 106.907 Q2246.67 106.282 2244.47 106.282 Q2240.65 106.282 2238.57 107.764 Q2236.51 109.245 2236.51 111.977 Q2236.51 114.268 2237.87 115.449 Q2239.26 116.606 2243.11 117.324 L2245.93 117.902 Q2251.16 118.898 2253.64 121.421 Q2256.14 123.921 2256.14 128.134 Q2256.14 133.157 2252.76 135.75 Q2249.4 138.342 2242.9 138.342 Q2240.44 138.342 2237.67 137.787 Q2234.91 137.231 2231.95 136.143 L2231.95 131.328 Q2234.8 132.926 2237.53 133.736 Q2240.26 134.546 2242.9 134.546 Q2246.9 134.546 2249.08 132.972 Q2251.25 131.398 2251.25 128.481 Q2251.25 125.935 2249.68 124.5 Q2248.13 123.064 2244.56 122.347 L2241.72 121.791 Q2236.49 120.75 2234.15 118.527 Q2231.81 116.305 2231.81 112.347 Q2231.81 107.764 2235.03 105.125 Q2238.27 102.486 2243.94 102.486 Q2246.37 102.486 2248.89 102.926 Q2251.42 103.366 2254.06 104.245 Z" fill="#000000" fill-rule="nonzero" fill-opacity="1" /><path clip-path="url(#clip050)" d="M178.867 1486.45 L2352.76 1486.45 L2352.76 847.244 L178.867 847.244  Z" fill="#ffffff" fill-rule="evenodd" fill-opacity="1"/>
<defs>
  <clipPath id="clip053">
    <rect x="178" y="847" width="2175" height="640"/>
  </clipPath>
</defs>
<polyline clip-path="url(#clip053)" style="stroke:#000000; stroke-linecap:round; stroke-linejoin:round; stroke-width:2; stroke-opacity:0.1; fill:none" points="238.339,1486.45 238.339,847.244 "/>
<polyline clip-path="url(#clip053)" style="stroke:#000000; stroke-linecap:round; stroke-linejoin:round; stroke-width:2; stroke-opacity:0.1; fill:none" points="751.562,1486.45 751.562,847.244 "/>
<polyline clip-path="url(#clip053)" style="stroke:#000000; stroke-linecap:round; stroke-linejoin:round; stroke-width:2; stroke-opacity:0.1; fill:none" points="1264.78,1486.45 1264.78,847.244 "/>
<polyline clip-path="url(#clip053)" style="stroke:#000000; stroke-linecap:round; stroke-linejoin:round; stroke-width:2; stroke-opacity:0.1; fill:none" points="1778.01,1486.45 1778.01,847.244 "/>
<polyline clip-path="url(#clip053)" style="stroke:#000000; stroke-linecap:round; stroke-linejoin:round; stroke-width:2; stroke-opacity:0.1; fill:none" points="2291.23,1486.45 2291.23,847.244 "/>
<polyline clip-path="url(#clip053)" style="stroke:#000000; stroke-linecap:round; stroke-linejoin:round; stroke-width:2; stroke-opacity:0.1; fill:none" points="178.867,1486.45 2352.76,1486.45 "/>
<polyline clip-path="url(#clip053)" style="stroke:#000000; stroke-linecap:round; stroke-linejoin:round; stroke-width:2; stroke-opacity:0.1; fill:none" points="178.867,1326.65 2352.76,1326.65 "/>
<polyline clip-path="url(#clip053)" style="stroke:#000000; stroke-linecap:round; stroke-linejoin:round; stroke-width:2; stroke-opacity:0.1; fill:none" points="178.867,1166.85 2352.76,1166.85 "/>
<polyline clip-path="url(#clip053)" style="stroke:#000000; stroke-linecap:round; stroke-linejoin:round; stroke-width:2; stroke-opacity:0.1; fill:none" points="178.867,1007.05 2352.76,1007.05 "/>
<polyline clip-path="url(#clip053)" style="stroke:#000000; stroke-linecap:round; stroke-linejoin:round; stroke-width:2; stroke-opacity:0.1; fill:none" points="178.867,847.244 2352.76,847.244 "/>
<polyline clip-path="url(#clip050)" style="stroke:#000000; stroke-linecap:round; stroke-linejoin:round; stroke-width:4; stroke-opacity:1; fill:none" points="178.867,1486.45 2352.76,1486.45 "/>
<polyline clip-path="url(#clip050)" style="stroke:#000000; stroke-linecap:round; stroke-linejoin:round; stroke-width:4; stroke-opacity:1; fill:none" points="238.339,1486.45 238.339,1467.55 "/>
<polyline clip-path="url(#clip050)" style="stroke:#000000; stroke-linecap:round; stroke-linejoin:round; stroke-width:4; stroke-opacity:1; fill:none" points="751.562,1486.45 751.562,1467.55 "/>
<polyline clip-path="url(#clip050)" style="stroke:#000000; stroke-linecap:round; stroke-linejoin:round; stroke-width:4; stroke-opacity:1; fill:none" points="1264.78,1486.45 1264.78,1467.55 "/>
<polyline clip-path="url(#clip050)" style="stroke:#000000; stroke-linecap:round; stroke-linejoin:round; stroke-width:4; stroke-opacity:1; fill:none" points="1778.01,1486.45 1778.01,1467.55 "/>
<polyline clip-path="url(#clip050)" style="stroke:#000000; stroke-linecap:round; stroke-linejoin:round; stroke-width:4; stroke-opacity:1; fill:none" points="2291.23,1486.45 2291.23,1467.55 "/>
<path clip-path="url(#clip050)" d="M238.339 1517.37 Q234.728 1517.37 232.899 1520.93 Q231.094 1524.47 231.094 1531.6 Q231.094 1538.71 232.899 1542.27 Q234.728 1545.82 238.339 1545.82 Q241.973 1545.82 243.779 1542.27 Q245.607 1538.71 245.607 1531.6 Q245.607 1524.47 243.779 1520.93 Q241.973 1517.37 238.339 1517.37 M238.339 1513.66 Q244.149 1513.66 247.205 1518.27 Q250.283 1522.85 250.283 1531.6 Q250.283 1540.33 247.205 1544.94 Q244.149 1549.52 238.339 1549.52 Q232.529 1549.52 229.45 1544.94 Q226.395 1540.33 226.395 1531.6 Q226.395 1522.85 229.45 1518.27 Q232.529 1513.66 238.339 1513.66 Z" fill="#000000" fill-rule="nonzero" fill-opacity="1" /><path clip-path="url(#clip050)" d="M715.254 1544.91 L731.574 1544.91 L731.574 1548.85 L709.629 1548.85 L709.629 1544.91 Q712.291 1542.16 716.875 1537.53 Q721.481 1532.88 722.662 1531.53 Q724.907 1529.01 725.787 1527.27 Q726.689 1525.51 726.689 1523.82 Q726.689 1521.07 724.745 1519.33 Q722.824 1517.6 719.722 1517.6 Q717.523 1517.6 715.069 1518.36 Q712.638 1519.13 709.861 1520.68 L709.861 1515.95 Q712.685 1514.82 715.138 1514.24 Q717.592 1513.66 719.629 1513.66 Q725 1513.66 728.194 1516.35 Q731.388 1519.03 731.388 1523.52 Q731.388 1525.65 730.578 1527.57 Q729.791 1529.47 727.685 1532.07 Q727.106 1532.74 724.004 1535.95 Q720.902 1539.15 715.254 1544.91 Z" fill="#000000" fill-rule="nonzero" fill-opacity="1" /><path clip-path="url(#clip050)" d="M741.435 1514.29 L759.791 1514.29 L759.791 1518.22 L745.717 1518.22 L745.717 1526.7 Q746.736 1526.35 747.754 1526.19 Q748.773 1526 749.791 1526 Q755.578 1526 758.958 1529.17 Q762.337 1532.34 762.337 1537.76 Q762.337 1543.34 758.865 1546.44 Q755.393 1549.52 749.073 1549.52 Q746.898 1549.52 744.629 1549.15 Q742.384 1548.78 739.976 1548.04 L739.976 1543.34 Q742.06 1544.47 744.282 1545.03 Q746.504 1545.58 748.981 1545.58 Q752.985 1545.58 755.323 1543.48 Q757.661 1541.37 757.661 1537.76 Q757.661 1534.15 755.323 1532.04 Q752.985 1529.94 748.981 1529.94 Q747.106 1529.94 745.231 1530.35 Q743.379 1530.77 741.435 1531.65 L741.435 1514.29 Z" fill="#000000" fill-rule="nonzero" fill-opacity="1" /><path clip-path="url(#clip050)" d="M781.55 1517.37 Q777.939 1517.37 776.11 1520.93 Q774.305 1524.47 774.305 1531.6 Q774.305 1538.71 776.11 1542.27 Q777.939 1545.82 781.55 1545.82 Q785.184 1545.82 786.99 1542.27 Q788.819 1538.71 788.819 1531.6 Q788.819 1524.47 786.99 1520.93 Q785.184 1517.37 781.55 1517.37 M781.55 1513.66 Q787.36 1513.66 790.416 1518.27 Q793.495 1522.85 793.495 1531.6 Q793.495 1540.33 790.416 1544.94 Q787.36 1549.52 781.55 1549.52 Q775.74 1549.52 772.661 1544.94 Q769.606 1540.33 769.606 1531.6 Q769.606 1522.85 772.661 1518.27 Q775.74 1513.66 781.55 1513.66 Z" fill="#000000" fill-rule="nonzero" fill-opacity="1" /><path clip-path="url(#clip050)" d="M1224.4 1514.29 L1242.76 1514.29 L1242.76 1518.22 L1228.69 1518.22 L1228.69 1526.7 Q1229.7 1526.35 1230.72 1526.19 Q1231.74 1526 1232.76 1526 Q1238.55 1526 1241.93 1529.17 Q1245.31 1532.34 1245.31 1537.76 Q1245.31 1543.34 1241.83 1546.44 Q1238.36 1549.52 1232.04 1549.52 Q1229.87 1549.52 1227.6 1549.15 Q1225.35 1548.78 1222.94 1548.04 L1222.94 1543.34 Q1225.03 1544.47 1227.25 1545.03 Q1229.47 1545.58 1231.95 1545.58 Q1235.95 1545.58 1238.29 1543.48 Q1240.63 1541.37 1240.63 1537.76 Q1240.63 1534.15 1238.29 1532.04 Q1235.95 1529.94 1231.95 1529.94 Q1230.07 1529.94 1228.2 1530.35 Q1226.35 1530.77 1224.4 1531.65 L1224.4 1514.29 Z" fill="#000000" fill-rule="nonzero" fill-opacity="1" /><path clip-path="url(#clip050)" d="M1264.52 1517.37 Q1260.91 1517.37 1259.08 1520.93 Q1257.27 1524.47 1257.27 1531.6 Q1257.27 1538.71 1259.08 1542.27 Q1260.91 1545.82 1264.52 1545.82 Q1268.15 1545.82 1269.96 1542.27 Q1271.79 1538.71 1271.79 1531.6 Q1271.79 1524.47 1269.96 1520.93 Q1268.15 1517.37 1264.52 1517.37 M1264.52 1513.66 Q1270.33 1513.66 1273.38 1518.27 Q1276.46 1522.85 1276.46 1531.6 Q1276.46 1540.33 1273.38 1544.94 Q1270.33 1549.52 1264.52 1549.52 Q1258.71 1549.52 1255.63 1544.94 Q1252.57 1540.33 1252.57 1531.6 Q1252.57 1522.85 1255.63 1518.27 Q1258.71 1513.66 1264.52 1513.66 Z" fill="#000000" fill-rule="nonzero" fill-opacity="1" /><path clip-path="url(#clip050)" d="M1294.68 1517.37 Q1291.07 1517.37 1289.24 1520.93 Q1287.44 1524.47 1287.44 1531.6 Q1287.44 1538.71 1289.24 1542.27 Q1291.07 1545.82 1294.68 1545.82 Q1298.31 1545.82 1300.12 1542.27 Q1301.95 1538.71 1301.95 1531.6 Q1301.95 1524.47 1300.12 1520.93 Q1298.31 1517.37 1294.68 1517.37 M1294.68 1513.66 Q1300.49 1513.66 1303.55 1518.27 Q1306.62 1522.85 1306.62 1531.6 Q1306.62 1540.33 1303.55 1544.94 Q1300.49 1549.52 1294.68 1549.52 Q1288.87 1549.52 1285.79 1544.94 Q1282.74 1540.33 1282.74 1531.6 Q1282.74 1522.85 1285.79 1518.27 Q1288.87 1513.66 1294.68 1513.66 Z" fill="#000000" fill-rule="nonzero" fill-opacity="1" /><path clip-path="url(#clip050)" d="M1736.28 1514.29 L1758.51 1514.29 L1758.51 1516.28 L1745.96 1548.85 L1741.08 1548.85 L1752.88 1518.22 L1736.28 1518.22 L1736.28 1514.29 Z" fill="#000000" fill-rule="nonzero" fill-opacity="1" /><path clip-path="url(#clip050)" d="M1767.67 1514.29 L1786.03 1514.29 L1786.03 1518.22 L1771.95 1518.22 L1771.95 1526.7 Q1772.97 1526.35 1773.99 1526.19 Q1775.01 1526 1776.03 1526 Q1781.82 1526 1785.2 1529.17 Q1788.57 1532.34 1788.57 1537.76 Q1788.57 1543.34 1785.1 1546.44 Q1781.63 1549.52 1775.31 1549.52 Q1773.14 1549.52 1770.87 1549.15 Q1768.62 1548.78 1766.21 1548.04 L1766.21 1543.34 Q1768.3 1544.47 1770.52 1545.03 Q1772.74 1545.58 1775.22 1545.58 Q1779.22 1545.58 1781.56 1543.48 Q1783.9 1541.37 1783.9 1537.76 Q1783.9 1534.15 1781.56 1532.04 Q1779.22 1529.94 1775.22 1529.94 Q1773.34 1529.94 1771.47 1530.35 Q1769.62 1530.77 1767.67 1531.65 L1767.67 1514.29 Z" fill="#000000" fill-rule="nonzero" fill-opacity="1" /><path clip-path="url(#clip050)" d="M1807.79 1517.37 Q1804.18 1517.37 1802.35 1520.93 Q1800.54 1524.47 1800.54 1531.6 Q1800.54 1538.71 1802.35 1542.27 Q1804.18 1545.82 1807.79 1545.82 Q1811.42 1545.82 1813.23 1542.27 Q1815.06 1538.71 1815.06 1531.6 Q1815.06 1524.47 1813.23 1520.93 Q1811.42 1517.37 1807.79 1517.37 M1807.79 1513.66 Q1813.6 1513.66 1816.65 1518.27 Q1819.73 1522.85 1819.73 1531.6 Q1819.73 1540.33 1816.65 1544.94 Q1813.6 1549.52 1807.79 1549.52 Q1801.98 1549.52 1798.9 1544.94 Q1795.84 1540.33 1795.84 1531.6 Q1795.84 1522.85 1798.9 1518.27 Q1801.98 1513.66 1807.79 1513.66 Z" fill="#000000" fill-rule="nonzero" fill-opacity="1" /><path clip-path="url(#clip050)" d="M2235.76 1544.91 L2243.4 1544.91 L2243.4 1518.55 L2235.09 1520.21 L2235.09 1515.95 L2243.35 1514.29 L2248.02 1514.29 L2248.02 1544.91 L2255.66 1544.91 L2255.66 1548.85 L2235.76 1548.85 L2235.76 1544.91 Z" fill="#000000" fill-rule="nonzero" fill-opacity="1" /><path clip-path="url(#clip050)" d="M2275.11 1517.37 Q2271.5 1517.37 2269.67 1520.93 Q2267.86 1524.47 2267.86 1531.6 Q2267.86 1538.71 2269.67 1542.27 Q2271.5 1545.82 2275.11 1545.82 Q2278.74 1545.82 2280.55 1542.27 Q2282.38 1538.71 2282.38 1531.6 Q2282.38 1524.47 2280.55 1520.93 Q2278.74 1517.37 2275.11 1517.37 M2275.11 1513.66 Q2280.92 1513.66 2283.97 1518.27 Q2287.05 1522.85 2287.05 1531.6 Q2287.05 1540.33 2283.97 1544.94 Q2280.92 1549.52 2275.11 1549.52 Q2269.3 1549.52 2266.22 1544.94 Q2263.16 1540.33 2263.16 1531.6 Q2263.16 1522.85 2266.22 1518.27 Q2269.3 1513.66 2275.11 1513.66 Z" fill="#000000" fill-rule="nonzero" fill-opacity="1" /><path clip-path="url(#clip050)" d="M2305.27 1517.37 Q2301.66 1517.37 2299.83 1520.93 Q2298.02 1524.47 2298.02 1531.6 Q2298.02 1538.71 2299.83 1542.27 Q2301.66 1545.82 2305.27 1545.82 Q2308.9 1545.82 2310.71 1542.27 Q2312.54 1538.71 2312.54 1531.6 Q2312.54 1524.47 2310.71 1520.93 Q2308.9 1517.37 2305.27 1517.37 M2305.27 1513.66 Q2311.08 1513.66 2314.14 1518.27 Q2317.21 1522.85 2317.21 1531.6 Q2317.21 1540.33 2314.14 1544.94 Q2311.08 1549.52 2305.27 1549.52 Q2299.46 1549.52 2296.38 1544.94 Q2293.33 1540.33 2293.33 1531.6 Q2293.33 1522.85 2296.38 1518.27 Q2299.46 1513.66 2305.27 1513.66 Z" fill="#000000" fill-rule="nonzero" fill-opacity="1" /><path clip-path="url(#clip050)" d="M2335.43 1517.37 Q2331.82 1517.37 2329.99 1520.93 Q2328.19 1524.47 2328.19 1531.6 Q2328.19 1538.71 2329.99 1542.27 Q2331.82 1545.82 2335.43 1545.82 Q2339.07 1545.82 2340.87 1542.27 Q2342.7 1538.71 2342.7 1531.6 Q2342.7 1524.47 2340.87 1520.93 Q2339.07 1517.37 2335.43 1517.37 M2335.43 1513.66 Q2341.24 1513.66 2344.3 1518.27 Q2347.38 1522.85 2347.38 1531.6 Q2347.38 1540.33 2344.3 1544.94 Q2341.24 1549.52 2335.43 1549.52 Q2329.62 1549.52 2326.54 1544.94 Q2323.49 1540.33 2323.49 1531.6 Q2323.49 1522.85 2326.54 1518.27 Q2329.62 1513.66 2335.43 1513.66 Z" fill="#000000" fill-rule="nonzero" fill-opacity="1" /><polyline clip-path="url(#clip050)" style="stroke:#000000; stroke-linecap:round; stroke-linejoin:round; stroke-width:4; stroke-opacity:1; fill:none" points="178.867,1486.45 178.867,847.244 "/>
<polyline clip-path="url(#clip050)" style="stroke:#000000; stroke-linecap:round; stroke-linejoin:round; stroke-width:4; stroke-opacity:1; fill:none" points="178.867,1486.45 197.764,1486.45 "/>
<polyline clip-path="url(#clip050)" style="stroke:#000000; stroke-linecap:round; stroke-linejoin:round; stroke-width:4; stroke-opacity:1; fill:none" points="178.867,1326.65 197.764,1326.65 "/>
<polyline clip-path="url(#clip050)" style="stroke:#000000; stroke-linecap:round; stroke-linejoin:round; stroke-width:4; stroke-opacity:1; fill:none" points="178.867,1166.85 197.764,1166.85 "/>
<polyline clip-path="url(#clip050)" style="stroke:#000000; stroke-linecap:round; stroke-linejoin:round; stroke-width:4; stroke-opacity:1; fill:none" points="178.867,1007.05 197.764,1007.05 "/>
<polyline clip-path="url(#clip050)" style="stroke:#000000; stroke-linecap:round; stroke-linejoin:round; stroke-width:4; stroke-opacity:1; fill:none" points="178.867,847.244 197.764,847.244 "/>
<path clip-path="url(#clip050)" d="M50.9921 1486.9 L80.6679 1486.9 L80.6679 1490.83 L50.9921 1490.83 L50.9921 1486.9 Z" fill="#000000" fill-rule="nonzero" fill-opacity="1" /><path clip-path="url(#clip050)" d="M91.5706 1499.79 L99.2095 1499.79 L99.2095 1473.43 L90.8993 1475.09 L90.8993 1470.83 L99.1632 1469.17 L103.839 1469.17 L103.839 1499.79 L111.478 1499.79 L111.478 1503.73 L91.5706 1503.73 L91.5706 1499.79 Z" fill="#000000" fill-rule="nonzero" fill-opacity="1" /><path clip-path="url(#clip050)" d="M130.922 1472.25 Q127.311 1472.25 125.482 1475.81 Q123.677 1479.35 123.677 1486.48 Q123.677 1493.59 125.482 1497.15 Q127.311 1500.7 130.922 1500.7 Q134.556 1500.7 136.362 1497.15 Q138.191 1493.59 138.191 1486.48 Q138.191 1479.35 136.362 1475.81 Q134.556 1472.25 130.922 1472.25 M130.922 1468.54 Q136.732 1468.54 139.788 1473.15 Q142.867 1477.73 142.867 1486.48 Q142.867 1495.21 139.788 1499.82 Q136.732 1504.4 130.922 1504.4 Q125.112 1504.4 122.033 1499.82 Q118.978 1495.21 118.978 1486.48 Q118.978 1477.73 122.033 1473.15 Q125.112 1468.54 130.922 1468.54 Z" fill="#000000" fill-rule="nonzero" fill-opacity="1" /><path clip-path="url(#clip050)" d="M82.1494 1327.1 L111.825 1327.1 L111.825 1331.03 L82.1494 1331.03 L82.1494 1327.1 Z" fill="#000000" fill-rule="nonzero" fill-opacity="1" /><path clip-path="url(#clip050)" d="M121.964 1309.37 L140.32 1309.37 L140.32 1313.3 L126.246 1313.3 L126.246 1321.77 Q127.265 1321.43 128.283 1321.27 Q129.302 1321.08 130.32 1321.08 Q136.107 1321.08 139.487 1324.25 Q142.867 1327.42 142.867 1332.84 Q142.867 1338.42 139.394 1341.52 Q135.922 1344.6 129.603 1344.6 Q127.427 1344.6 125.158 1344.23 Q122.913 1343.86 120.506 1343.12 L120.506 1338.42 Q122.589 1339.55 124.811 1340.11 Q127.033 1340.66 129.51 1340.66 Q133.515 1340.66 135.853 1338.56 Q138.191 1336.45 138.191 1332.84 Q138.191 1329.23 135.853 1327.12 Q133.515 1325.01 129.51 1325.01 Q127.635 1325.01 125.76 1325.43 Q123.908 1325.85 121.964 1326.73 L121.964 1309.37 Z" fill="#000000" fill-rule="nonzero" fill-opacity="1" /><path clip-path="url(#clip050)" d="M130.922 1152.64 Q127.311 1152.64 125.482 1156.21 Q123.677 1159.75 123.677 1166.88 Q123.677 1173.99 125.482 1177.55 Q127.311 1181.09 130.922 1181.09 Q134.556 1181.09 136.362 1177.55 Q138.191 1173.99 138.191 1166.88 Q138.191 1159.75 136.362 1156.21 Q134.556 1152.64 130.922 1152.64 M130.922 1148.94 Q136.732 1148.94 139.788 1153.55 Q142.867 1158.13 142.867 1166.88 Q142.867 1175.61 139.788 1180.21 Q136.732 1184.8 130.922 1184.8 Q125.112 1184.8 122.033 1180.21 Q118.978 1175.61 118.978 1166.88 Q118.978 1158.13 122.033 1153.55 Q125.112 1148.94 130.922 1148.94 Z" fill="#000000" fill-rule="nonzero" fill-opacity="1" /><path clip-path="url(#clip050)" d="M121.964 989.765 L140.32 989.765 L140.32 993.7 L126.246 993.7 L126.246 1002.17 Q127.265 1001.83 128.283 1001.66 Q129.302 1001.48 130.32 1001.48 Q136.107 1001.48 139.487 1004.65 Q142.867 1007.82 142.867 1013.24 Q142.867 1018.82 139.394 1021.92 Q135.922 1025 129.603 1025 Q127.427 1025 125.158 1024.63 Q122.913 1024.26 120.506 1023.51 L120.506 1018.82 Q122.589 1019.95 124.811 1020.51 Q127.033 1021.06 129.51 1021.06 Q133.515 1021.06 135.853 1018.95 Q138.191 1016.85 138.191 1013.24 Q138.191 1009.63 135.853 1007.52 Q133.515 1005.41 129.51 1005.41 Q127.635 1005.41 125.76 1005.83 Q123.908 1006.25 121.964 1007.13 L121.964 989.765 Z" fill="#000000" fill-rule="nonzero" fill-opacity="1" /><path clip-path="url(#clip050)" d="M91.5706 860.589 L99.2095 860.589 L99.2095 834.223 L90.8993 835.89 L90.8993 831.631 L99.1632 829.964 L103.839 829.964 L103.839 860.589 L111.478 860.589 L111.478 864.524 L91.5706 864.524 L91.5706 860.589 Z" fill="#000000" fill-rule="nonzero" fill-opacity="1" /><path clip-path="url(#clip050)" d="M130.922 833.043 Q127.311 833.043 125.482 836.608 Q123.677 840.149 123.677 847.279 Q123.677 854.385 125.482 857.95 Q127.311 861.492 130.922 861.492 Q134.556 861.492 136.362 857.95 Q138.191 854.385 138.191 847.279 Q138.191 840.149 136.362 836.608 Q134.556 833.043 130.922 833.043 M130.922 829.339 Q136.732 829.339 139.788 833.946 Q142.867 838.529 142.867 847.279 Q142.867 856.006 139.788 860.612 Q136.732 865.195 130.922 865.195 Q125.112 865.195 122.033 860.612 Q118.978 856.006 118.978 847.279 Q118.978 838.529 122.033 833.946 Q125.112 829.339 130.922 829.339 Z" fill="#000000" fill-rule="nonzero" fill-opacity="1" /><polyline clip-path="url(#clip053)" style="stroke:#009af9; stroke-linecap:round; stroke-linejoin:round; stroke-width:4; stroke-opacity:1; fill:none" points="240.392,1134.89 242.445,1185.22 244.498,1205.41 246.55,1189.28 248.603,1155.75 250.656,1118.21 252.709,1168.42 254.762,1154.47 256.815,1156.83 258.868,1186.74 260.921,1126.3 262.974,1034.5 265.027,1138.2 267.079,1128.81 269.132,1163.02 271.185,1140.81 273.238,1189.68 275.291,1142.24 277.344,1263.07 279.397,1303.33 281.45,1189.53 283.503,1094.96 285.555,1138.18 287.608,1291.59 289.661,1160.04 291.714,1168.61 293.767,1157.79 295.82,1195.01 297.873,1215.23 299.926,1213.36 301.979,1146.24 304.031,1130.06 306.084,1095.56 308.137,1219.63 310.19,1170.08 312.243,1100.03 314.296,1325.4 316.349,1231.24 318.402,1118.32 320.455,1176.19 322.507,1223.02 324.56,1046.79 326.613,1126.27 328.666,1111.85 330.719,1290.5 332.772,1139.79 334.825,1195.67 336.878,900.61 338.931,1050.65 340.984,1285.85 343.036,1212.15 345.089,1113.12 347.142,1159.84 349.195,1143.28 351.248,1130.28 353.301,1139.01 355.354,1175.13 357.407,1179.88 359.46,1158.87 361.512,1175.44 363.565,1166.93 365.618,1135.82 367.671,1179.81 369.724,1229.2 371.777,1137.86 373.83,1165 375.883,1173.86 377.936,1150.23 379.988,1199.25 382.041,1099.03 384.094,1097.53 386.147,1176.76 388.2,1229.55 390.253,1200.92 392.306,1212.45 394.359,1254.41 396.412,1126.51 398.464,1121.43 400.517,1175.66 402.57,1175.6 404.623,1077.62 406.676,962.61 408.729,1592.06 410.782,1606.61 412.835,1086.7 414.888,1195.71 416.94,1208.19 418.993,1163.16 421.046,1129.92 423.099,1303.18 425.152,1199.33 427.205,1136.71 429.258,894.342 431.311,1361.03 433.364,1279.44 435.417,1196.82 437.469,1142.23 439.522,1178.11 441.575,1206.89 443.628,1191.05 445.681,1175.19 447.734,1139.56 449.787,1167.02 451.84,1175.94 453.893,1155.23 455.945,1223.24 457.998,1122.64 460.051,1094.31 462.104,1092.21 464.157,1197.85 466.21,1207.7 468.263,1132.35 470.316,1052.32 472.369,1044.43 474.421,1843.01 476.474,2094 478.527,2551.16 480.58,1321.26 482.633,1117.67 484.686,1194.28 486.739,1182.8 488.792,1160.65 490.845,1152.77 492.897,1139.18 494.95,1146.32 497.003,1181.25 499.056,1205.15 501.109,1172.9 503.162,1166.54 505.215,1166.87 507.268,1164.12 509.321,1181.48 511.374,1184.97 513.426,1137.88 515.479,1179.17 517.532,1198.28 519.585,1208.21 521.638,1126.05 523.691,1094.3 525.744,1163.8 527.797,1212.95 529.85,1149.92 531.902,1174.9 533.955,1203.04 536.008,1080.89 538.061,1324.68 540.114,1188.28 542.167,1340.5 544.22,1082.36 546.273,1190.14 548.326,1137.87 550.378,1402.3 552.431,1109.82 554.484,1198.23 556.537,1253.53 558.59,1972.59 560.643,933.013 562.696,1069.25 564.749,1267.62 566.802,1597.48 568.854,1110.01 570.907,1165.03 572.96,1044.24 575.013,1270.21 577.066,1132.54 579.119,1159.81 581.172,1163.08 583.225,1158.1 585.278,1176.32 587.331,1130.17 589.383,1168.81 591.436,1187.96 593.489,1196.61 595.542,1214.64 597.595,1196.97 599.648,1144 601.701,1209.33 603.754,1113.53 605.807,1215.05 607.859,1165.18 609.912,1108.65 611.965,1193.38 614.018,1189.87 616.071,1111.12 618.124,1200.65 620.177,1168.35 622.23,1141.83 624.283,1071.37 626.335,1116.11 628.388,1165.32 630.441,1189.37 632.494,1186.12 634.547,1091.6 636.6,886.677 638.653,1155.77 640.706,1220.31 642.759,1178.96 644.811,1144.59 646.864,1117.03 648.917,853.779 650.97,1059.62 653.023,1075.34 655.076,1195.89 657.129,1164.09 659.182,1216.05 661.235,1180 663.288,1128.19 665.34,1132.09 667.393,1210.87 669.446,1131.57 671.499,1201.79 673.552,1125.93 675.605,1159.47 677.658,1069.34 679.711,1239.95 681.764,1004.7 683.816,1147.37 685.869,1152.8 687.922,1193.38 689.975,1109.75 692.028,1186.03 694.081,1112.95 696.134,1149.84 698.187,1154.98 700.24,1145.67 702.292,1202.07 704.345,1233.91 706.398,1114.86 708.451,1213.82 710.504,1189.07 712.557,1161.07 714.61,1143.65 716.663,1179.99 718.716,1152.86 720.768,1152.21 722.821,1151.93 724.874,1323.12 726.927,1164.12 728.98,1391.48 731.033,781.506 733.086,1055.07 735.139,1358.95 737.192,1105.17 739.245,1224.14 741.297,1249.48 743.35,1081.06 745.403,1266.99 747.456,1120.92 749.509,1121.6 751.562,1130 753.615,1140.58 755.668,1186.48 757.721,1185.14 759.773,1179.11 761.826,1165.03 763.879,1340.35 765.932,1149.9 767.985,1127.82 770.038,1140.77 772.091,1203.26 774.144,1187.21 776.197,1135.65 778.249,1196.81 780.302,1139.56 782.355,1207.98 784.408,1207.64 786.461,1185.7 788.514,1177.65 790.567,1144.56 792.62,1142.53 794.673,1171.79 796.725,1169.33 798.778,1163.34 800.831,1149.69 802.884,1224.71 804.937,1140.91 806.99,1153.79 809.043,1221.66 811.096,1171.43 813.149,1155.64 815.202,1160.31 817.254,1171.32 819.307,1168.16 821.36,1171.1 823.413,1350.74 825.466,1645.2 827.519,-2014.82 829.572,9802.18 831.625,17405.8 833.678,4819.73 835.73,-22.1272 837.783,-932.469 839.836,1911.34 841.889,-343.789 843.942,760.416 845.995,1818.52 848.048,1746.19 850.101,1342.67 852.154,1188.52 854.206,1143.9 856.259,1214.97 858.312,-306.135 860.365,2901.48 862.418,1147.96 864.471,1147.61 866.524,1151.23 868.577,1282.92 870.63,1225.06 872.682,1384.98 874.735,1342.18 876.788,1603.96 878.841,1216.56 880.894,1103.44 882.947,1188.53 885,1157.47 887.053,1175.7 889.106,1165.8 891.159,1144.04 893.211,1269.52 895.264,1251.32 897.317,1226.74 899.37,1195 901.423,1157.5 903.476,1160.59 905.529,1155.68 907.582,1214.32 909.635,1151.27 911.687,1203.93 913.74,1104.18 915.793,825.053 917.846,1253.3 919.899,1069.58 921.952,1097.66 924.005,1090.01 926.058,1862.45 928.111,757.517 930.163,1062.47 932.216,1048.97 934.269,1104.76 936.322,1235.63 938.375,1142.88 940.428,1179.21 942.481,1157.28 944.534,1180.98 946.587,1168.45 948.639,1056.82 950.692,1116.84 952.745,1195.27 954.798,1153.86 956.851,1188.47 958.904,1136.6 960.957,1192.15 963.01,1182.5 965.063,1127.67 967.116,1144.71 969.168,1162.98 971.221,1176.48 973.274,282.872 975.327,204.995 977.38,1236.86 979.433,1178.49 981.486,1172.71 983.539,1150.4 985.592,1110.32 987.644,1220.08 989.697,1145.56 991.75,1170.68 993.803,1153.91 995.856,1193.19 997.909,1155.68 999.962,1175.57 1002.01,1163.58 1004.07,1101.61 1006.12,1161.2 1008.17,1195.04 1010.23,1122.26 1012.28,1225.82 1014.33,1090.91 1016.38,1182.87 1018.44,1150.99 1020.49,1162.04 1022.54,1151.68 1024.6,1171.77 1026.65,1207.74 1028.7,1181.07 1030.76,1160.55 1032.81,1164.32 1034.86,1162.22 1036.91,1175.03 1038.97,1165.07 1041.02,1198.29 1043.07,1128.12 1045.13,1130.35 1047.18,1045.37 1049.23,1290.34 1051.28,1280.61 1053.34,1191.52 1055.39,1208.54 1057.44,1188.84 1059.5,1145.67 1061.55,1106.25 1063.6,1133.76 1065.65,1151.74 1067.71,1243.54 1069.76,1144.45 1071.81,1182.23 1073.87,1134.51 1075.92,1192.65 1077.97,1179.49 1080.02,1190.37 1082.08,1144.53 1084.13,1182.66 1086.18,1172.18 1088.24,1167.6 1090.29,1194.59 1092.34,1128.36 1094.39,1149.63 1096.45,1151.87 1098.5,1170.34 1100.55,1168.71 1102.61,1168.96 1104.66,1173.97 1106.71,1180.54 1108.77,1182.41 1110.82,1183.28 1112.87,1138.85 1114.92,1176.58 1116.98,1135.03 1119.03,1062.6 1121.08,841.636 1123.14,568.634 1125.19,1935.77 1127.24,1219.49 1129.29,1070.22 1131.35,667.679 1133.4,1156.63 1135.45,1182.36 1137.51,1196.63 1139.56,1163.74 1141.61,1176.27 1143.66,1144.92 1145.72,1172.7 1147.77,1233.5 1149.82,912.64 1151.88,1016.42 1153.93,1339.03 1155.98,1138.81 1158.03,1135.58 1160.09,1166.45 1162.14,1190.91 1164.19,1197.38 1166.25,1128.26 1168.3,1258.96 1170.35,1033.01 1172.4,1334.32 1174.46,1003.91 1176.51,1078.93 1178.56,1046.77 1180.62,1199.53 1182.67,1154.52 1184.72,1147.93 1186.77,1239.34 1188.83,1034.11 1190.88,1183.35 1192.93,1128.86 1194.99,1291.3 1197.04,1079.7 1199.09,1148.49 1201.15,1184.15 1203.2,1169.66 1205.25,1163.67 1207.3,1169.67 1209.36,1157.3 1211.41,1172.46 1213.46,1288.26 1215.52,1384 1217.57,1232.31 1219.62,888.133 1221.67,1139.38 1223.73,1069.04 1225.78,1185.06 1227.83,1143.78 1229.89,1145.97 1231.94,1202.79 1233.99,1122.72 1236.04,1124.73 1238.1,1182.57 1240.15,1147.79 1242.2,1257.61 1244.26,1159.26 1246.31,1149.16 1248.36,1153.6 1250.41,1171.37 1252.47,1159.25 1254.52,1147.89 1256.57,1197.91 1258.63,1214.91 1260.68,1228.73 1262.73,1176.91 1264.78,1158 1266.84,1195.56 1268.89,1231.25 1270.94,1368.58 1273,1203.59 1275.05,1364.83 1277.1,980.776 1279.16,1213.49 1281.21,1096.98 1283.26,1209 1285.31,1257.94 1287.37,1328.78 1289.42,1192.28 1291.47,1228.32 1293.53,1177.79 1295.58,1156.89 1297.63,1149.46 1299.68,1203.36 1301.74,1183.84 1303.79,1268.05 1305.84,1114.02 1307.9,1191.61 1309.95,1148.79 1312,1130.05 1314.05,1156.43 1316.11,1172.78 1318.16,1144.94 1320.21,1155.75 1322.27,1168.1 1324.32,1159.75 1326.37,1127.15 1328.42,1131.05 1330.48,1025.93 1332.53,1158.57 1334.58,1193.34 1336.64,1241.06 1338.69,1154.63 1340.74,1099.26 1342.79,1119.35 1344.85,1201.96 1346.9,1177.92 1348.95,1023.37 1351.01,935.961 1353.06,1093.06 1355.11,1545.55 1357.16,1322.8 1359.22,1240.81 1361.27,1169.25 1363.32,1164.85 1365.38,1165.55 1367.43,1179.13 1369.48,1110.78 1371.54,1164.34 1373.59,1161.85 1375.64,1181.57 1377.69,1148.93 1379.75,1178.38 1381.8,1269.39 1383.85,1517.44 1385.91,1204.22 1387.96,1152.96 1390.01,1154.52 1392.06,1148.16 1394.12,1143.61 1396.17,1137.62 1398.22,1183.7 1400.28,1162.51 1402.33,1153.75 1404.38,1214.4 1406.43,1164.03 1408.49,1172.6 1410.54,1148.2 1412.59,1151.62 1414.65,1166.61 1416.7,1143.61 1418.75,1165.76 1420.8,1148.62 1422.86,1113.13 1424.91,1108.02 1426.96,1007.16 1429.02,1219.22 1431.07,1126.2 1433.12,1175.93 1435.17,1141.51 1437.23,1174.9 1439.28,1183.53 1441.33,1254.16 1443.39,1030.26 1445.44,1017.02 1447.49,981.209 1449.55,979.956 1451.6,1181.65 1453.65,878.144 1455.7,1126.57 1457.76,1002.89 1459.81,1522.16 1461.86,1685.06 1463.92,857.716 1465.97,1182.63 1468.02,1325.36 1470.07,1384.22 1472.13,1064.46 1474.18,1282.38 1476.23,1065.48 1478.29,972.269 1480.34,876.824 1482.39,1236.56 1484.44,1108.84 1486.5,1198.4 1488.55,1186.02 1490.6,1080.74 1492.66,1091.62 1494.71,1108.52 1496.76,1146.01 1498.81,1144.92 1500.87,1200.88 1502.92,1154.45 1504.97,1190.99 1507.03,1153.29 1509.08,1170.99 1511.13,1161.72 1513.18,1151.32 1515.24,1170.52 1517.29,1165.05 1519.34,1153.63 1521.4,1162.1 1523.45,1164.45 1525.5,1167.74 1527.55,1173.73 1529.61,1113.06 1531.66,1137.38 1533.71,1196.1 1535.77,1150.25 1537.82,1178.68 1539.87,1133.96 1541.93,1172.95 1543.98,1149.03 1546.03,1154.82 1548.08,1161.62 1550.14,1083.37 1552.19,1212.37 1554.24,1152.16 1556.3,1153.01 1558.35,1277.17 1560.4,1066.91 1562.45,1112.98 1564.51,1126.92 1566.56,1167.55 1568.61,1175.58 1570.67,1173.32 1572.72,1173.62 1574.77,1139.73 1576.82,1208.61 1578.88,1155.18 1580.93,1199.61 1582.98,1118.85 1585.04,1189.57 1587.09,1143.53 1589.14,1160.41 1591.19,1173.09 1593.25,1172.89 1595.3,1066.86 1597.35,1171.34 1599.41,1114.85 1601.46,1206.37 1603.51,1045.66 1605.56,1184.87 1607.62,1112.51 1609.67,878.058 1611.72,1102.65 1613.78,1188.78 1615.83,1223.42 1617.88,1201.2 1619.94,1207.25 1621.99,1189.67 1624.04,1337.66 1626.09,1079.91 1628.15,348.264 1630.2,3864.45 1632.25,848.706 1634.31,1100.63 1636.36,551.367 1638.41,1389.99 1640.46,1347.81 1642.52,1323.16 1644.57,1150.89 1646.62,1138.1 1648.68,1071.52 1650.73,1181.58 1652.78,1211.32 1654.83,1188.48 1656.89,1200.97 1658.94,1160.12 1660.99,1174.58 1663.05,1243.64 1665.1,1172.49 1667.15,1166.42 1669.2,1169.17 1671.26,1189.56 1673.31,1172.7 1675.36,1124.98 1677.42,1187.33 1679.47,1188.56 1681.52,1194.2 1683.57,1178.7 1685.63,1137.54 1687.68,1151.99 1689.73,1201.11 1691.79,1189.87 1693.84,1045.63 1695.89,1169.67 1697.94,1251.51 1700,1173.59 1702.05,1098.96 1704.1,1187.77 1706.16,1170.46 1708.21,1143.35 1710.26,1263.62 1712.32,1175.04 1714.37,1204.41 1716.42,1140.24 1718.47,1263.56 1720.53,1165.62 1722.58,1151.23 1724.63,1172.38 1726.69,1136.16 1728.74,1202.14 1730.79,1199.19 1732.84,1243.19 1734.9,1171.37 1736.95,1170.64 1739,1161.87 1741.06,1186.79 1743.11,1188.63 1745.16,1135.93 1747.21,1178.81 1749.27,1157.24 1751.32,1163.19 1753.37,1156.97 1755.43,1166.77 1757.48,1174.9 1759.53,1153.63 1761.58,1151.05 1763.64,1150.99 1765.69,1156.08 1767.74,1178.88 1769.8,1132.32 1771.85,1171.6 1773.9,1187.39 1775.95,1190.37 1778.01,1173.73 1780.06,1070.14 1782.11,1101.71 1784.17,983.943 1786.22,1140.33 1788.27,1132.73 1790.33,1145.94 1792.38,1196.16 1794.43,1177.2 1796.48,1214.6 1798.54,1190.86 1800.59,1145.23 1802.64,1170.62 1804.7,1160.52 1806.75,1147.24 1808.8,1158.94 1810.85,1173.86 1812.91,1279.96 1814.96,1257.86 1817.01,1087.85 1819.07,1186.51 1821.12,1112.95 1823.17,1163.9 1825.22,1158.57 1827.28,1159.5 1829.33,1142.46 1831.38,1179.23 1833.44,1061.42 1835.49,1166.25 1837.54,1241.76 1839.59,1194.41 1841.65,1218.92 1843.7,1212.52 1845.75,1117.99 1847.81,1164.05 1849.86,1173.47 1851.91,1159.72 1853.96,1212.74 1856.02,1183.25 1858.07,1144.89 1860.12,1130.42 1862.18,1179.36 1864.23,1134.47 1866.28,1221.4 1868.34,1130.43 1870.39,1297.4 1872.44,1162.12 1874.49,1142.28 1876.55,1173.59 1878.6,1176.51 1880.65,1149.07 1882.71,1053.63 1884.76,1309.9 1886.81,1206.02 1888.86,122.712 1890.92,2229.85 1892.97,2609.87 1895.02,1249.61 1897.08,-1473.01 1899.13,620.695 1901.18,-6362.08 1903.23,2486.09 1905.29,1128.07 1907.34,1058.45 1909.39,1069.38 1911.45,1169.31 1913.5,1123.44 1915.55,1152.55 1917.6,1368.1 1919.66,1291.2 1921.71,1255.15 1923.76,1371.85 1925.82,1175.56 1927.87,1191.42 1929.92,1169.76 1931.97,1194.34 1934.03,1131.19 1936.08,1323.78 1938.13,1112.43 1940.19,1129.07 1942.24,1132.08 1944.29,1112.64 1946.34,1158.83 1948.4,1181.69 1950.45,1168.46 1952.5,1167.22 1954.56,1170.42 1956.61,1177.65 1958.66,1237.37 1960.72,1294.63 1962.77,1116.48 1964.82,1202.66 1966.87,994.635 1968.93,1020.41 1970.98,1159.12 1973.03,1071.62 1975.09,945.09 1977.14,1261.5 1979.19,1163.42 1981.24,1151 1983.3,1205.64 1985.35,1175.04 1987.4,1192.74 1989.46,1221.07 1991.51,1217.75 1993.56,1173.2 1995.61,1140.89 1997.67,1145.52 1999.72,1182.55 2001.77,1186.03 2003.83,1129.3 2005.88,1033.19 2007.93,1314.03 2009.98,1230.35 2012.04,1164.3 2014.09,1175.12 2016.14,1184.75 2018.2,1226.71 2020.25,1060.46 2022.3,940.439 2024.35,1193.11 2026.41,1200.95 2028.46,1141.61 2030.51,1124.99 2032.57,1163.29 2034.62,1180.93 2036.67,1146.17 2038.73,992.713 2040.78,1384.85 2042.83,1266.9 2044.88,2062.08 2046.94,274.192 2048.99,287.107 2051.04,1042.98 2053.1,1064.11 2055.15,1284.73 2057.2,1137.66 2059.25,1153.3 2061.31,1114.28 2063.36,1160.39 2065.41,1200.72 2067.47,1150.83 2069.52,1179.58 2071.57,1175.92 2073.62,1020.2 2075.68,1042.43 2077.73,1062.54 2079.78,790.331 2081.84,1273.83 2083.89,1202.61 2085.94,1223.87 2087.99,1301.99 2090.05,1322.82 2092.1,1058.44 2094.15,1192.51 2096.21,1205.77 2098.26,1196.8 2100.31,1125.75 2102.36,1172.24 2104.42,1171.83 2106.47,1105.87 2108.52,1148.87 2110.58,1154.65 2112.63,1166.88 2114.68,1112.18 2116.73,1183.56 2118.79,1202.99 2120.84,1130.71 2122.89,1139.34 2124.95,1189.86 2127,1144.23 2129.05,1184.93 2131.11,1119.01 2133.16,1094.19 2135.21,1067.77 2137.26,1116.91 2139.32,1167.52 2141.37,1120.22 2143.42,1159.71 2145.48,1202.06 2147.53,1281.19 2149.58,1157.19 2151.63,1155.03 2153.69,1190.98 2155.74,1119.37 2157.79,1178.54 2159.85,1166.86 2161.9,1165.89 2163.95,1164.13 2166,1205.02 2168.06,1160.52 2170.11,1189.3 2172.16,1131.95 2174.22,1125.36 2176.27,1195.37 2178.32,1129.96 2180.37,1142.01 2182.43,1153.37 2184.48,1159.87 2186.53,1170.2 2188.59,1155.66 2190.64,1175.77 2192.69,1188.22 2194.74,1186.91 2196.8,1161.62 2198.85,1157.87 2200.9,1174.14 2202.96,1258.5 2205.01,1162.88 2207.06,1175.98 2209.12,1147.11 2211.17,1128.15 2213.22,1121.52 2215.27,1155.49 2217.33,1179.14 2219.38,1182.84 2221.43,1136.7 2223.49,1096.31 2225.54,1180.4 2227.59,1137.37 2229.64,1245.3 2231.7,1093.77 2233.75,1166.75 2235.8,1178.41 2237.86,1171.88 2239.91,1170.58 2241.96,1179.27 2244.01,1189.15 2246.07,1142.09 2248.12,1158.75 2250.17,1203.47 2252.23,1195.91 2254.28,1194.26 2256.33,1165.43 2258.38,1163.88 2260.44,1141.05 2262.49,1119.38 2264.54,1237.81 2266.6,1140.03 2268.65,1160.33 2270.7,1179.83 2272.75,1262.83 2274.81,1205.56 2276.86,1271.32 2278.91,1095.47 2280.97,1224.12 2283.02,1093.44 2285.07,1315.6 2287.12,920.037 2289.18,1194.66 2291.23,1197.91 "/>
<path clip-path="url(#clip050)" d="M1942.7 1465.14 L2280.29 1465.14 L2280.29 1361.46 L1942.7 1361.46  Z" fill="#ffffff" fill-rule="evenodd" fill-opacity="1"/>
<polyline clip-path="url(#clip050)" style="stroke:#000000; stroke-linecap:round; stroke-linejoin:round; stroke-width:4; stroke-opacity:1; fill:none" points="1942.7,1465.14 2280.29,1465.14 2280.29,1361.46 1942.7,1361.46 1942.7,1465.14 "/>
<polyline clip-path="url(#clip050)" style="stroke:#009af9; stroke-linecap:round; stroke-linejoin:round; stroke-width:4; stroke-opacity:1; fill:none" points="1966.85,1413.3 2111.78,1413.3 "/>
<path clip-path="url(#clip050)" d="M2161.49 1425.65 L2161.49 1416.37 L2153.85 1416.37 L2153.85 1412.53 L2166.12 1412.53 L2166.12 1427.36 Q2163.41 1429.28 2160.14 1430.28 Q2156.88 1431.25 2153.18 1431.25 Q2145.07 1431.25 2140.49 1426.53 Q2135.93 1421.78 2135.93 1413.34 Q2135.93 1404.86 2140.49 1400.14 Q2145.07 1395.4 2153.18 1395.4 Q2156.56 1395.4 2159.59 1396.23 Q2162.64 1397.06 2165.21 1398.68 L2165.21 1403.66 Q2162.62 1401.46 2159.7 1400.35 Q2156.79 1399.24 2153.57 1399.24 Q2147.23 1399.24 2144.03 1402.78 Q2140.86 1406.32 2140.86 1413.34 Q2140.86 1420.33 2144.03 1423.87 Q2147.23 1427.41 2153.57 1427.41 Q2156.05 1427.41 2157.99 1426.99 Q2159.94 1426.55 2161.49 1425.65 Z" fill="#000000" fill-rule="nonzero" fill-opacity="1" /><path clip-path="url(#clip050)" d="M2179.33 1399.86 L2179.33 1412.85 L2185.21 1412.85 Q2188.48 1412.85 2190.26 1411.16 Q2192.04 1409.47 2192.04 1406.35 Q2192.04 1403.24 2190.26 1401.55 Q2188.48 1399.86 2185.21 1399.86 L2179.33 1399.86 M2174.66 1396.02 L2185.21 1396.02 Q2191.02 1396.02 2193.99 1398.66 Q2196.97 1401.28 2196.97 1406.35 Q2196.97 1411.46 2193.99 1414.08 Q2191.02 1416.69 2185.21 1416.69 L2179.33 1416.69 L2179.33 1430.58 L2174.66 1430.58 L2174.66 1396.02 Z" fill="#000000" fill-rule="nonzero" fill-opacity="1" /><path clip-path="url(#clip050)" d="M2223.96 1397.16 L2223.96 1401.72 Q2221.3 1400.44 2218.94 1399.82 Q2216.58 1399.19 2214.38 1399.19 Q2210.56 1399.19 2208.48 1400.67 Q2206.42 1402.16 2206.42 1404.89 Q2206.42 1407.18 2207.78 1408.36 Q2209.17 1409.52 2213.01 1410.23 L2215.84 1410.81 Q2221.07 1411.81 2223.55 1414.33 Q2226.05 1416.83 2226.05 1421.04 Q2226.05 1426.07 2222.67 1428.66 Q2219.31 1431.25 2212.81 1431.25 Q2210.35 1431.25 2207.57 1430.7 Q2204.82 1430.14 2201.86 1429.05 L2201.86 1424.24 Q2204.7 1425.84 2207.44 1426.65 Q2210.17 1427.46 2212.81 1427.46 Q2216.81 1427.46 2218.99 1425.88 Q2221.16 1424.31 2221.16 1421.39 Q2221.16 1418.85 2219.59 1417.41 Q2218.04 1415.97 2214.47 1415.26 L2211.62 1414.7 Q2206.39 1413.66 2204.06 1411.44 Q2201.72 1409.22 2201.72 1405.26 Q2201.72 1400.67 2204.94 1398.03 Q2208.18 1395.4 2213.85 1395.4 Q2216.28 1395.4 2218.8 1395.84 Q2221.32 1396.28 2223.96 1397.16 Z" fill="#000000" fill-rule="nonzero" fill-opacity="1" /><path clip-path="url(#clip050)" d="M2254.06 1397.16 L2254.06 1401.72 Q2251.39 1400.44 2249.03 1399.82 Q2246.67 1399.19 2244.47 1399.19 Q2240.65 1399.19 2238.57 1400.67 Q2236.51 1402.16 2236.51 1404.89 Q2236.51 1407.18 2237.87 1408.36 Q2239.26 1409.52 2243.11 1410.23 L2245.93 1410.81 Q2251.16 1411.81 2253.64 1414.33 Q2256.14 1416.83 2256.14 1421.04 Q2256.14 1426.07 2252.76 1428.66 Q2249.4 1431.25 2242.9 1431.25 Q2240.44 1431.25 2237.67 1430.7 Q2234.91 1430.14 2231.95 1429.05 L2231.95 1424.24 Q2234.8 1425.84 2237.53 1426.65 Q2240.26 1427.46 2242.9 1427.46 Q2246.9 1427.46 2249.08 1425.88 Q2251.25 1424.31 2251.25 1421.39 Q2251.25 1418.85 2249.68 1417.41 Q2248.13 1415.97 2244.56 1415.26 L2241.72 1414.7 Q2236.49 1413.66 2234.15 1411.44 Q2231.81 1409.22 2231.81 1405.26 Q2231.81 1400.67 2235.03 1398.03 Q2238.27 1395.4 2243.94 1395.4 Q2246.37 1395.4 2248.89 1395.84 Q2251.42 1396.28 2254.06 1397.16 Z" fill="#000000" fill-rule="nonzero" fill-opacity="1" /></svg>
