<?xml version="1.0" encoding="utf-8"?>
<svg xmlns="http://www.w3.org/2000/svg" xmlns:xlink="http://www.w3.org/1999/xlink" width="600" height="400" viewBox="0 0 2400 1600">
<defs>
  <clipPath id="clip260">
    <rect x="0" y="0" width="2400" height="1600"/>
  </clipPath>
</defs>
<path clip-path="url(#clip260)" d="M0 1600 L2400 1600 L2400 0 L0 0  Z" fill="#ffffff" fill-rule="evenodd" fill-opacity="1"/>
<defs>
  <clipPath id="clip261">
    <rect x="480" y="0" width="1681" height="1600"/>
  </clipPath>
</defs>
<path clip-path="url(#clip260)" d="M178.867 686.448 L2352.76 686.448 L2352.76 47.2441 L178.867 47.2441  Z" fill="#ffffff" fill-rule="evenodd" fill-opacity="1"/>
<defs>
  <clipPath id="clip262">
    <rect x="178" y="47" width="2175" height="640"/>
  </clipPath>
</defs>
<polyline clip-path="url(#clip262)" style="stroke:#000000; stroke-linecap:round; stroke-linejoin:round; stroke-width:2; stroke-opacity:0.1; fill:none" points="238.339,686.448 238.339,47.2441 "/>
<polyline clip-path="url(#clip262)" style="stroke:#000000; stroke-linecap:round; stroke-linejoin:round; stroke-width:2; stroke-opacity:0.1; fill:none" points="751.562,686.448 751.562,47.2441 "/>
<polyline clip-path="url(#clip262)" style="stroke:#000000; stroke-linecap:round; stroke-linejoin:round; stroke-width:2; stroke-opacity:0.1; fill:none" points="1264.78,686.448 1264.78,47.2441 "/>
<polyline clip-path="url(#clip262)" style="stroke:#000000; stroke-linecap:round; stroke-linejoin:round; stroke-width:2; stroke-opacity:0.1; fill:none" points="1778.01,686.448 1778.01,47.2441 "/>
<polyline clip-path="url(#clip262)" style="stroke:#000000; stroke-linecap:round; stroke-linejoin:round; stroke-width:2; stroke-opacity:0.1; fill:none" points="2291.23,686.448 2291.23,47.2441 "/>
<polyline clip-path="url(#clip262)" style="stroke:#000000; stroke-linecap:round; stroke-linejoin:round; stroke-width:2; stroke-opacity:0.1; fill:none" points="178.867,686.448 2352.76,686.448 "/>
<polyline clip-path="url(#clip262)" style="stroke:#000000; stroke-linecap:round; stroke-linejoin:round; stroke-width:2; stroke-opacity:0.1; fill:none" points="178.867,526.647 2352.76,526.647 "/>
<polyline clip-path="url(#clip262)" style="stroke:#000000; stroke-linecap:round; stroke-linejoin:round; stroke-width:2; stroke-opacity:0.1; fill:none" points="178.867,366.846 2352.76,366.846 "/>
<polyline clip-path="url(#clip262)" style="stroke:#000000; stroke-linecap:round; stroke-linejoin:round; stroke-width:2; stroke-opacity:0.1; fill:none" points="178.867,207.045 2352.76,207.045 "/>
<polyline clip-path="url(#clip262)" style="stroke:#000000; stroke-linecap:round; stroke-linejoin:round; stroke-width:2; stroke-opacity:0.1; fill:none" points="178.867,47.2441 2352.76,47.2441 "/>
<polyline clip-path="url(#clip260)" style="stroke:#000000; stroke-linecap:round; stroke-linejoin:round; stroke-width:4; stroke-opacity:1; fill:none" points="178.867,686.448 2352.76,686.448 "/>
<polyline clip-path="url(#clip260)" style="stroke:#000000; stroke-linecap:round; stroke-linejoin:round; stroke-width:4; stroke-opacity:1; fill:none" points="238.339,686.448 238.339,667.55 "/>
<polyline clip-path="url(#clip260)" style="stroke:#000000; stroke-linecap:round; stroke-linejoin:round; stroke-width:4; stroke-opacity:1; fill:none" points="751.562,686.448 751.562,667.55 "/>
<polyline clip-path="url(#clip260)" style="stroke:#000000; stroke-linecap:round; stroke-linejoin:round; stroke-width:4; stroke-opacity:1; fill:none" points="1264.78,686.448 1264.78,667.55 "/>
<polyline clip-path="url(#clip260)" style="stroke:#000000; stroke-linecap:round; stroke-linejoin:round; stroke-width:4; stroke-opacity:1; fill:none" points="1778.01,686.448 1778.01,667.55 "/>
<polyline clip-path="url(#clip260)" style="stroke:#000000; stroke-linecap:round; stroke-linejoin:round; stroke-width:4; stroke-opacity:1; fill:none" points="2291.23,686.448 2291.23,667.55 "/>
<path clip-path="url(#clip260)" d="M238.339 717.367 Q234.728 717.367 232.899 720.931 Q231.094 724.473 231.094 731.603 Q231.094 738.709 232.899 742.274 Q234.728 745.815 238.339 745.815 Q241.973 745.815 243.779 742.274 Q245.607 738.709 245.607 731.603 Q245.607 724.473 243.779 720.931 Q241.973 717.367 238.339 717.367 M238.339 713.663 Q244.149 713.663 247.205 718.269 Q250.283 722.853 250.283 731.603 Q250.283 740.329 247.205 744.936 Q244.149 749.519 238.339 749.519 Q232.529 749.519 229.45 744.936 Q226.395 740.329 226.395 731.603 Q226.395 722.853 229.45 718.269 Q232.529 713.663 238.339 713.663 Z" fill="#000000" fill-rule="nonzero" fill-opacity="1" /><path clip-path="url(#clip260)" d="M715.254 744.913 L731.574 744.913 L731.574 748.848 L709.629 748.848 L709.629 744.913 Q712.291 742.158 716.875 737.528 Q721.481 732.876 722.662 731.533 Q724.907 729.01 725.787 727.274 Q726.689 725.515 726.689 723.825 Q726.689 721.07 724.745 719.334 Q722.824 717.598 719.722 717.598 Q717.523 717.598 715.069 718.362 Q712.638 719.126 709.861 720.677 L709.861 715.955 Q712.685 714.82 715.138 714.242 Q717.592 713.663 719.629 713.663 Q725 713.663 728.194 716.348 Q731.388 719.033 731.388 723.524 Q731.388 725.654 730.578 727.575 Q729.791 729.473 727.685 732.066 Q727.106 732.737 724.004 735.954 Q720.902 739.149 715.254 744.913 Z" fill="#000000" fill-rule="nonzero" fill-opacity="1" /><path clip-path="url(#clip260)" d="M741.435 714.288 L759.791 714.288 L759.791 718.223 L745.717 718.223 L745.717 726.695 Q746.736 726.348 747.754 726.186 Q748.773 726.001 749.791 726.001 Q755.578 726.001 758.958 729.172 Q762.337 732.343 762.337 737.76 Q762.337 743.339 758.865 746.44 Q755.393 749.519 749.073 749.519 Q746.898 749.519 744.629 749.149 Q742.384 748.778 739.976 748.038 L739.976 743.339 Q742.06 744.473 744.282 745.028 Q746.504 745.584 748.981 745.584 Q752.985 745.584 755.323 743.478 Q757.661 741.371 757.661 737.76 Q757.661 734.149 755.323 732.042 Q752.985 729.936 748.981 729.936 Q747.106 729.936 745.231 730.353 Q743.379 730.769 741.435 731.649 L741.435 714.288 Z" fill="#000000" fill-rule="nonzero" fill-opacity="1" /><path clip-path="url(#clip260)" d="M781.55 717.367 Q777.939 717.367 776.11 720.931 Q774.305 724.473 774.305 731.603 Q774.305 738.709 776.11 742.274 Q777.939 745.815 781.55 745.815 Q785.184 745.815 786.99 742.274 Q788.819 738.709 788.819 731.603 Q788.819 724.473 786.99 720.931 Q785.184 717.367 781.55 717.367 M781.55 713.663 Q787.36 713.663 790.416 718.269 Q793.495 722.853 793.495 731.603 Q793.495 740.329 790.416 744.936 Q787.36 749.519 781.55 749.519 Q775.74 749.519 772.661 744.936 Q769.606 740.329 769.606 731.603 Q769.606 722.853 772.661 718.269 Q775.74 713.663 781.55 713.663 Z" fill="#000000" fill-rule="nonzero" fill-opacity="1" /><path clip-path="url(#clip260)" d="M1224.4 714.288 L1242.76 714.288 L1242.76 718.223 L1228.69 718.223 L1228.69 726.695 Q1229.7 726.348 1230.72 726.186 Q1231.74 726.001 1232.76 726.001 Q1238.55 726.001 1241.93 729.172 Q1245.31 732.343 1245.31 737.76 Q1245.31 743.339 1241.83 746.44 Q1238.36 749.519 1232.04 749.519 Q1229.87 749.519 1227.6 749.149 Q1225.35 748.778 1222.94 748.038 L1222.94 743.339 Q1225.03 744.473 1227.25 745.028 Q1229.47 745.584 1231.95 745.584 Q1235.95 745.584 1238.29 743.478 Q1240.63 741.371 1240.63 737.76 Q1240.63 734.149 1238.29 732.042 Q1235.95 729.936 1231.95 729.936 Q1230.07 729.936 1228.2 730.353 Q1226.35 730.769 1224.4 731.649 L1224.4 714.288 Z" fill="#000000" fill-rule="nonzero" fill-opacity="1" /><path clip-path="url(#clip260)" d="M1264.52 717.367 Q1260.91 717.367 1259.08 720.931 Q1257.27 724.473 1257.27 731.603 Q1257.27 738.709 1259.08 742.274 Q1260.91 745.815 1264.52 745.815 Q1268.15 745.815 1269.96 742.274 Q1271.79 738.709 1271.79 731.603 Q1271.79 724.473 1269.96 720.931 Q1268.15 717.367 1264.52 717.367 M1264.52 713.663 Q1270.33 713.663 1273.38 718.269 Q1276.46 722.853 1276.46 731.603 Q1276.46 740.329 1273.38 744.936 Q1270.33 749.519 1264.52 749.519 Q1258.71 749.519 1255.63 744.936 Q1252.57 740.329 1252.57 731.603 Q1252.57 722.853 1255.63 718.269 Q1258.71 713.663 1264.52 713.663 Z" fill="#000000" fill-rule="nonzero" fill-opacity="1" /><path clip-path="url(#clip260)" d="M1294.68 717.367 Q1291.07 717.367 1289.24 720.931 Q1287.44 724.473 1287.44 731.603 Q1287.44 738.709 1289.24 742.274 Q1291.07 745.815 1294.68 745.815 Q1298.31 745.815 1300.12 742.274 Q1301.95 738.709 1301.95 731.603 Q1301.95 724.473 1300.12 720.931 Q1298.31 717.367 1294.68 717.367 M1294.68 713.663 Q1300.49 713.663 1303.55 718.269 Q1306.62 722.853 1306.62 731.603 Q1306.62 740.329 1303.55 744.936 Q1300.49 749.519 1294.68 749.519 Q1288.87 749.519 1285.79 744.936 Q1282.74 740.329 1282.74 731.603 Q1282.74 722.853 1285.79 718.269 Q1288.87 713.663 1294.68 713.663 Z" fill="#000000" fill-rule="nonzero" fill-opacity="1" /><path clip-path="url(#clip260)" d="M1736.28 714.288 L1758.51 714.288 L1758.51 716.279 L1745.96 748.848 L1741.08 748.848 L1752.88 718.223 L1736.28 718.223 L1736.28 714.288 Z" fill="#000000" fill-rule="nonzero" fill-opacity="1" /><path clip-path="url(#clip260)" d="M1767.67 714.288 L1786.03 714.288 L1786.03 718.223 L1771.95 718.223 L1771.95 726.695 Q1772.97 726.348 1773.99 726.186 Q1775.01 726.001 1776.03 726.001 Q1781.82 726.001 1785.2 729.172 Q1788.57 732.343 1788.57 737.76 Q1788.57 743.339 1785.1 746.44 Q1781.63 749.519 1775.31 749.519 Q1773.14 749.519 1770.87 749.149 Q1768.62 748.778 1766.21 748.038 L1766.21 743.339 Q1768.3 744.473 1770.52 745.028 Q1772.74 745.584 1775.22 745.584 Q1779.22 745.584 1781.56 743.478 Q1783.9 741.371 1783.9 737.76 Q1783.9 734.149 1781.56 732.042 Q1779.22 729.936 1775.22 729.936 Q1773.34 729.936 1771.47 730.353 Q1769.62 730.769 1767.67 731.649 L1767.67 714.288 Z" fill="#000000" fill-rule="nonzero" fill-opacity="1" /><path clip-path="url(#clip260)" d="M1807.79 717.367 Q1804.18 717.367 1802.35 720.931 Q1800.54 724.473 1800.54 731.603 Q1800.54 738.709 1802.35 742.274 Q1804.18 745.815 1807.79 745.815 Q1811.42 745.815 1813.23 742.274 Q1815.06 738.709 1815.06 731.603 Q1815.06 724.473 1813.23 720.931 Q1811.42 717.367 1807.79 717.367 M1807.79 713.663 Q1813.6 713.663 1816.65 718.269 Q1819.73 722.853 1819.73 731.603 Q1819.73 740.329 1816.65 744.936 Q1813.6 749.519 1807.79 749.519 Q1801.98 749.519 1798.9 744.936 Q1795.84 740.329 1795.84 731.603 Q1795.84 722.853 1798.9 718.269 Q1801.98 713.663 1807.79 713.663 Z" fill="#000000" fill-rule="nonzero" fill-opacity="1" /><path clip-path="url(#clip260)" d="M2235.76 744.913 L2243.4 744.913 L2243.4 718.547 L2235.09 720.214 L2235.09 715.955 L2243.35 714.288 L2248.02 714.288 L2248.02 744.913 L2255.66 744.913 L2255.66 748.848 L2235.76 748.848 L2235.76 744.913 Z" fill="#000000" fill-rule="nonzero" fill-opacity="1" /><path clip-path="url(#clip260)" d="M2275.11 717.367 Q2271.5 717.367 2269.67 720.931 Q2267.86 724.473 2267.86 731.603 Q2267.86 738.709 2269.67 742.274 Q2271.5 745.815 2275.11 745.815 Q2278.74 745.815 2280.55 742.274 Q2282.38 738.709 2282.38 731.603 Q2282.38 724.473 2280.55 720.931 Q2278.74 717.367 2275.11 717.367 M2275.11 713.663 Q2280.92 713.663 2283.97 718.269 Q2287.05 722.853 2287.05 731.603 Q2287.05 740.329 2283.97 744.936 Q2280.92 749.519 2275.11 749.519 Q2269.3 749.519 2266.22 744.936 Q2263.16 740.329 2263.16 731.603 Q2263.16 722.853 2266.22 718.269 Q2269.3 713.663 2275.11 713.663 Z" fill="#000000" fill-rule="nonzero" fill-opacity="1" /><path clip-path="url(#clip260)" d="M2305.27 717.367 Q2301.66 717.367 2299.83 720.931 Q2298.02 724.473 2298.02 731.603 Q2298.02 738.709 2299.83 742.274 Q2301.66 745.815 2305.27 745.815 Q2308.9 745.815 2310.71 742.274 Q2312.54 738.709 2312.54 731.603 Q2312.54 724.473 2310.71 720.931 Q2308.9 717.367 2305.27 717.367 M2305.27 713.663 Q2311.08 713.663 2314.14 718.269 Q2317.21 722.853 2317.21 731.603 Q2317.21 740.329 2314.14 744.936 Q2311.08 749.519 2305.27 749.519 Q2299.46 749.519 2296.38 744.936 Q2293.33 740.329 2293.33 731.603 Q2293.33 722.853 2296.38 718.269 Q2299.46 713.663 2305.27 713.663 Z" fill="#000000" fill-rule="nonzero" fill-opacity="1" /><path clip-path="url(#clip260)" d="M2335.43 717.367 Q2331.82 717.367 2329.99 720.931 Q2328.19 724.473 2328.19 731.603 Q2328.19 738.709 2329.99 742.274 Q2331.82 745.815 2335.43 745.815 Q2339.07 745.815 2340.87 742.274 Q2342.7 738.709 2342.7 731.603 Q2342.7 724.473 2340.87 720.931 Q2339.07 717.367 2335.43 717.367 M2335.43 713.663 Q2341.24 713.663 2344.3 718.269 Q2347.38 722.853 2347.38 731.603 Q2347.38 740.329 2344.3 744.936 Q2341.24 749.519 2335.43 749.519 Q2329.62 749.519 2326.54 744.936 Q2323.49 740.329 2323.49 731.603 Q2323.49 722.853 2326.54 718.269 Q2329.62 713.663 2335.43 713.663 Z" fill="#000000" fill-rule="nonzero" fill-opacity="1" /><polyline clip-path="url(#clip260)" style="stroke:#000000; stroke-linecap:round; stroke-linejoin:round; stroke-width:4; stroke-opacity:1; fill:none" points="178.867,686.448 178.867,47.2441 "/>
<polyline clip-path="url(#clip260)" style="stroke:#000000; stroke-linecap:round; stroke-linejoin:round; stroke-width:4; stroke-opacity:1; fill:none" points="178.867,686.448 197.764,686.448 "/>
<polyline clip-path="url(#clip260)" style="stroke:#000000; stroke-linecap:round; stroke-linejoin:round; stroke-width:4; stroke-opacity:1; fill:none" points="178.867,526.647 197.764,526.647 "/>
<polyline clip-path="url(#clip260)" style="stroke:#000000; stroke-linecap:round; stroke-linejoin:round; stroke-width:4; stroke-opacity:1; fill:none" points="178.867,366.846 197.764,366.846 "/>
<polyline clip-path="url(#clip260)" style="stroke:#000000; stroke-linecap:round; stroke-linejoin:round; stroke-width:4; stroke-opacity:1; fill:none" points="178.867,207.045 197.764,207.045 "/>
<polyline clip-path="url(#clip260)" style="stroke:#000000; stroke-linecap:round; stroke-linejoin:round; stroke-width:4; stroke-opacity:1; fill:none" points="178.867,47.2441 197.764,47.2441 "/>
<path clip-path="url(#clip260)" d="M50.9921 686.899 L80.6679 686.899 L80.6679 690.834 L50.9921 690.834 L50.9921 686.899 Z" fill="#000000" fill-rule="nonzero" fill-opacity="1" /><path clip-path="url(#clip260)" d="M91.5706 699.793 L99.2095 699.793 L99.2095 673.427 L90.8993 675.094 L90.8993 670.835 L99.1632 669.168 L103.839 669.168 L103.839 699.793 L111.478 699.793 L111.478 703.728 L91.5706 703.728 L91.5706 699.793 Z" fill="#000000" fill-rule="nonzero" fill-opacity="1" /><path clip-path="url(#clip260)" d="M130.922 672.247 Q127.311 672.247 125.482 675.811 Q123.677 679.353 123.677 686.483 Q123.677 693.589 125.482 697.154 Q127.311 700.695 130.922 700.695 Q134.556 700.695 136.362 697.154 Q138.191 693.589 138.191 686.483 Q138.191 679.353 136.362 675.811 Q134.556 672.247 130.922 672.247 M130.922 668.543 Q136.732 668.543 139.788 673.149 Q142.867 677.733 142.867 686.483 Q142.867 695.209 139.788 699.816 Q136.732 704.399 130.922 704.399 Q125.112 704.399 122.033 699.816 Q118.978 695.209 118.978 686.483 Q118.978 677.733 122.033 673.149 Q125.112 668.543 130.922 668.543 Z" fill="#000000" fill-rule="nonzero" fill-opacity="1" /><path clip-path="url(#clip260)" d="M82.1494 527.098 L111.825 527.098 L111.825 531.033 L82.1494 531.033 L82.1494 527.098 Z" fill="#000000" fill-rule="nonzero" fill-opacity="1" /><path clip-path="url(#clip260)" d="M121.964 509.367 L140.32 509.367 L140.32 513.302 L126.246 513.302 L126.246 521.774 Q127.265 521.427 128.283 521.265 Q129.302 521.08 130.32 521.08 Q136.107 521.08 139.487 524.251 Q142.867 527.422 142.867 532.839 Q142.867 538.418 139.394 541.52 Q135.922 544.598 129.603 544.598 Q127.427 544.598 125.158 544.228 Q122.913 543.857 120.506 543.117 L120.506 538.418 Q122.589 539.552 124.811 540.108 Q127.033 540.663 129.51 540.663 Q133.515 540.663 135.853 538.557 Q138.191 536.45 138.191 532.839 Q138.191 529.228 135.853 527.121 Q133.515 525.015 129.51 525.015 Q127.635 525.015 125.76 525.432 Q123.908 525.848 121.964 526.728 L121.964 509.367 Z" fill="#000000" fill-rule="nonzero" fill-opacity="1" /><path clip-path="url(#clip260)" d="M130.922 352.645 Q127.311 352.645 125.482 356.209 Q123.677 359.751 123.677 366.881 Q123.677 373.987 125.482 377.552 Q127.311 381.094 130.922 381.094 Q134.556 381.094 136.362 377.552 Q138.191 373.987 138.191 366.881 Q138.191 359.751 136.362 356.209 Q134.556 352.645 130.922 352.645 M130.922 348.941 Q136.732 348.941 139.788 353.547 Q142.867 358.131 142.867 366.881 Q142.867 375.608 139.788 380.214 Q136.732 384.797 130.922 384.797 Q125.112 384.797 122.033 380.214 Q118.978 375.608 118.978 366.881 Q118.978 358.131 122.033 353.547 Q125.112 348.941 130.922 348.941 Z" fill="#000000" fill-rule="nonzero" fill-opacity="1" /><path clip-path="url(#clip260)" d="M121.964 189.765 L140.32 189.765 L140.32 193.7 L126.246 193.7 L126.246 202.172 Q127.265 201.825 128.283 201.663 Q129.302 201.478 130.32 201.478 Q136.107 201.478 139.487 204.649 Q142.867 207.82 142.867 213.237 Q142.867 218.816 139.394 221.918 Q135.922 224.996 129.603 224.996 Q127.427 224.996 125.158 224.626 Q122.913 224.256 120.506 223.515 L120.506 218.816 Q122.589 219.95 124.811 220.506 Q127.033 221.061 129.51 221.061 Q133.515 221.061 135.853 218.955 Q138.191 216.848 138.191 213.237 Q138.191 209.626 135.853 207.52 Q133.515 205.413 129.51 205.413 Q127.635 205.413 125.76 205.83 Q123.908 206.246 121.964 207.126 L121.964 189.765 Z" fill="#000000" fill-rule="nonzero" fill-opacity="1" /><path clip-path="url(#clip260)" d="M91.5706 60.5889 L99.2095 60.5889 L99.2095 34.2233 L90.8993 35.89 L90.8993 31.6308 L99.1632 29.9641 L103.839 29.9641 L103.839 60.5889 L111.478 60.5889 L111.478 64.5241 L91.5706 64.5241 L91.5706 60.5889 Z" fill="#000000" fill-rule="nonzero" fill-opacity="1" /><path clip-path="url(#clip260)" d="M130.922 33.0428 Q127.311 33.0428 125.482 36.6076 Q123.677 40.1492 123.677 47.2788 Q123.677 54.3853 125.482 57.9501 Q127.311 61.4917 130.922 61.4917 Q134.556 61.4917 136.362 57.9501 Q138.191 54.3853 138.191 47.2788 Q138.191 40.1492 136.362 36.6076 Q134.556 33.0428 130.922 33.0428 M130.922 29.3391 Q136.732 29.3391 139.788 33.9456 Q142.867 38.5289 142.867 47.2788 Q142.867 56.0056 139.788 60.6121 Q136.732 65.1954 130.922 65.1954 Q125.112 65.1954 122.033 60.6121 Q118.978 56.0056 118.978 47.2788 Q118.978 38.5289 122.033 33.9456 Q125.112 29.3391 130.922 29.3391 Z" fill="#000000" fill-rule="nonzero" fill-opacity="1" /><polyline clip-path="url(#clip262)" style="stroke:#009af9; stroke-linecap:round; stroke-linejoin:round; stroke-width:4; stroke-opacity:1; fill:none" points="240.392,334.886 242.445,326.6 244.498,360.078 246.55,364.058 248.603,372.692 250.656,369.16 252.709,374.671 254.762,320.73 256.815,312.492 258.868,331.285 260.921,336.197 262.974,310.938 265.027,308.685 267.079,308.703 269.132,309.22 271.185,456.266 273.238,461.376 275.291,471.209 277.344,471.23 279.397,470.404 281.45,429.15 283.503,348.402 285.555,352.464 287.608,404.865 289.661,405.108 291.714,399.61 293.767,414.974 295.82,415.186 297.873,414.189 299.926,421.618 301.979,424.233 304.031,431.043 306.084,400.518 308.137,416.508 310.19,418.199 312.243,426.317 314.296,418.625 316.349,419.006 318.402,419.929 320.455,415.419 322.507,420.658 324.56,420.534 326.613,420.061 328.666,421.066 330.719,419.883 332.772,406.46 334.825,404.868 336.878,373.403 338.931,378.634 340.984,367.976 343.036,370.878 345.089,375.355 347.142,416.334 349.195,499.392 351.248,486.388 353.301,465.542 355.354,349.502 357.407,365.7 359.46,380.334 361.512,452.536 363.565,377.891 365.618,352.944 367.671,448.386 369.724,448.541 371.777,441.92 373.83,441.995 375.883,461.788 377.936,523.156 379.988,516.064 382.041,225.319 384.094,229.106 386.147,161.794 388.2,364.044 390.253,395.202 392.306,357.099 394.359,387.037 396.412,370.761 398.464,483.421 400.517,540.76 402.57,537.792 404.623,527.432 406.676,558.39 408.729,545.172 410.782,545.672 412.835,530.488 414.888,530.612 416.94,530.274 418.993,385.055 421.046,337.475 423.099,463.892 425.152,480.402 427.205,479.877 429.258,479.493 431.311,270.277 433.364,293.844 435.417,347.598 437.469,331.632 439.522,300.93 441.575,296.674 443.628,261.595 445.681,261.45 447.734,249.053 449.787,275.424 451.84,272.391 453.893,241.029 455.945,259.856 457.998,251.956 460.051,250.144 462.104,333.213 464.157,270.044 466.21,426.005 468.263,618.436 470.316,627.05 472.369,613.33 474.421,634.754 476.474,602.65 478.527,603.769 480.58,591.752 482.633,625.714 484.686,626.015 486.739,709.201 488.792,444.784 490.845,433.185 492.897,464.332 494.95,469.723 497.003,302.739 499.056,423.562 501.109,421.181 503.162,400.3 505.215,359.414 507.268,351.484 509.321,418.236 511.374,415.849 513.426,422.221 515.479,426.732 517.532,462.508 519.585,406.116 521.638,428.264 523.691,499.414 525.744,520.481 527.797,521.684 529.85,525.05 531.902,424.532 533.955,281.249 536.008,282.418 538.061,280.86 540.114,366.872 542.167,369.916 544.22,375.241 546.273,375.323 548.326,374.986 550.378,369.493 552.431,369.322 554.484,374.8 556.537,374.556 558.59,393.209 560.643,413.164 562.696,414.115 564.749,435.477 566.802,433.114 568.854,456.735 570.907,449.835 572.96,472.825 575.013,450.042 577.066,436.904 579.119,428.115 581.172,388.442 583.225,390.264 585.278,391.423 587.331,391.596 589.383,390.274 591.436,388.281 593.489,416.51 595.542,419.192 597.595,399.64 599.648,399.04 601.701,386.286 603.754,267.736 605.807,269.291 607.859,262.048 609.912,267.856 611.965,271.24 614.018,254.852 616.071,252.788 618.124,256.411 620.177,330.717 622.23,325.604 624.283,342.46 626.335,346.914 628.388,343.763 630.441,348.351 632.494,294.369 634.547,294.696 636.6,452.672 638.653,453.437 640.706,520.811 642.759,517.068 644.811,532.218 646.864,535.362 648.917,472.12 650.97,475.669 653.023,474.639 655.076,463.475 657.129,455.678 659.182,455.229 661.235,444.322 663.288,390.278 665.34,383.452 667.393,381.285 669.446,364.41 671.499,368.948 673.552,385.535 675.605,386.782 677.658,433.288 679.711,361.486 681.764,350.036 683.816,322.417 685.869,313.239 687.922,313.446 689.975,396.59 692.028,411.434 694.081,407.413 696.134,413.974 698.187,429.94 700.24,432.986 702.292,395.228 704.345,394.675 706.398,401.876 708.451,405.819 710.504,404.007 712.557,404.007 714.61,403.168 716.663,402.379 718.716,403.809 720.768,403.725 722.821,385.797 724.874,319.329 726.927,322.998 728.98,323.71 731.033,326.76 733.086,321.494 735.139,322.864 737.192,322.665 739.245,333.667 741.297,359.971 743.35,415.978 745.403,371.115 747.456,371.199 749.509,440.859 751.562,466.987 753.615,465.778 755.668,463.839 757.721,464.959 759.773,459.639 761.826,460.275 763.879,465.729 765.932,442.32 767.985,443.949 770.038,451.059 772.091,388.061 774.144,383.413 776.197,363.746 778.249,358.17 780.302,351.578 782.355,351.575 784.408,301.176 786.461,280.316 788.514,279.771 790.567,283.633 792.62,290.697 794.673,442.284 796.725,432.299 798.778,431.153 800.831,431.953 802.884,429.243 804.937,415.774 806.99,402.713 809.043,357.066 811.096,325.913 813.149,297.214 815.202,297.191 817.254,421.486 819.307,421.126 821.36,432.479 823.413,434.739 825.466,449.56 827.519,445.933 829.572,457.024 831.625,365.126 833.678,395.059 835.73,336.519 837.783,406.484 839.836,403.626 841.889,405.916 843.942,406.001 845.995,401.539 848.048,370.247 850.101,293.707 852.154,296.323 854.206,286.856 856.259,206.359 858.312,282.487 860.365,261.764 862.418,226.314 864.471,197.097 866.524,234.533 868.577,318.399 870.63,317.543 872.682,304.812 874.735,342.199 876.788,335.351 878.841,333.794 880.894,337.216 882.947,410.086 885,412.254 887.053,405.161 889.106,398.572 891.159,374.483 893.211,363.001 895.264,362.662 897.317,361.141 899.37,377.938 901.423,350.714 903.476,350.113 905.529,349.879 907.582,349.88 909.635,350.054 911.687,365.603 913.74,367.456 915.793,366.757 917.846,366.651 919.899,368.071 921.952,367.904 924.005,369.588 926.058,369.577 928.111,361.593 930.163,361.59 932.216,362.06 934.269,363.101 936.322,362.672 938.375,363.005 940.428,362.185 942.481,333.878 944.534,373.395 946.587,345.906 948.639,345.815 950.692,342.533 952.745,343.223 954.798,371.987 956.851,374.152 958.904,367.901 960.957,380.032 963.01,381.022 965.063,385.263 967.116,387.338 969.168,383.447 971.221,384.779 973.274,384.587 975.327,384.812 977.38,345.335 979.433,321.085 981.486,353.663 983.539,363.139 985.592,367.552 987.644,367.688 989.697,367.088 991.75,360.767 993.803,364.338 995.856,363.045 997.909,361.295 999.962,355.738 1002.01,354.582 1004.07,361.62 1006.12,362.042 1008.17,362.055 1010.23,367.656 1012.28,367.622 1014.33,367.622 1016.38,367.277 1018.44,370.209 1020.49,387.062 1022.54,386.103 1024.6,386.191 1026.65,382.711 1028.7,373.394 1030.76,373.527 1032.81,373.661 1034.86,372.665 1036.91,373.611 1038.97,373.498 1041.02,372.778 1043.07,372.235 1045.13,371.826 1047.18,372.756 1049.23,362.679 1051.28,360.901 1053.34,361.712 1055.39,357.027 1057.44,357.044 1059.5,356.799 1061.55,377.927 1063.6,378.045 1065.65,376.635 1067.71,376.328 1069.76,376.656 1071.81,376.22 1073.87,374.264 1075.92,378.063 1077.97,375.175 1080.02,361.536 1082.08,362.72 1084.13,362.261 1086.18,367.26 1088.24,367.856 1090.29,386.124 1092.34,359.897 1094.39,421.803 1096.45,421.944 1098.5,423.367 1100.55,421.256 1102.61,420.973 1104.66,399.511 1106.71,401.205 1108.77,396.397 1110.82,396.054 1112.87,368.127 1114.92,367.721 1116.98,360.261 1119.03,356.568 1121.08,373.477 1123.14,373.459 1125.19,374.796 1127.24,374.115 1129.29,375.367 1131.35,375.461 1133.4,371.386 1135.45,374.101 1137.51,326.439 1139.56,391.609 1141.61,383.844 1143.66,384.025 1145.72,380.027 1147.77,377.763 1149.82,384.064 1151.88,382.652 1153.93,382.649 1155.98,384.842 1158.03,356.867 1160.09,317.478 1162.14,317.681 1164.19,340.471 1166.25,338.96 1168.3,339.522 1170.35,339.784 1172.4,339.979 1174.46,339.753 1176.51,306.644 1178.56,306.644 1180.62,306.624 1182.67,311.075 1184.72,328.654 1186.77,326.251 1188.83,321.607 1190.88,326.659 1192.93,331.381 1194.99,336.434 1197.04,370.591 1199.09,371.636 1201.15,359.492 1203.2,382.686 1205.25,381.93 1207.3,378.197 1209.36,379.869 1211.41,319.588 1213.46,297.312 1215.52,281.947 1217.57,334.679 1219.62,347.885 1221.67,312.004 1223.73,313.789 1225.78,331.174 1227.83,330.329 1229.89,327.386 1231.94,335.999 1233.99,361.53 1236.04,362.696 1238.1,361.832 1240.15,359.274 1242.2,400.401 1244.26,395.608 1246.31,393.304 1248.36,395.273 1250.41,395.664 1252.47,393.139 1254.52,388.156 1256.57,389.772 1258.63,397.895 1260.68,380.951 1262.73,361.094 1264.78,346.995 1266.84,347.931 1268.89,345.626 1270.94,320.226 1273,393.479 1275.05,392.494 1277.1,387.537 1279.16,389.485 1281.21,402.583 1283.26,394.567 1285.31,373.087 1287.37,393.839 1289.42,393.758 1291.47,376.98 1293.53,373.186 1295.58,370.014 1297.63,373.42 1299.68,373.402 1301.74,376.505 1303.79,376.786 1305.84,374.13 1307.9,374.292 1309.95,374.315 1312,405.806 1314.05,422.116 1316.11,420.903 1318.16,480.266 1320.21,488.185 1322.27,338.756 1324.32,315.812 1326.37,396.532 1328.42,396.367 1330.48,371.182 1332.53,349.614 1334.58,349.3 1336.64,352.717 1338.69,388.289 1340.74,400.351 1342.79,399.286 1344.85,400.698 1346.9,401.228 1348.95,395.22 1351.01,396.031 1353.06,393.226 1355.11,395.404 1357.16,395.339 1359.22,402.301 1361.27,401.84 1363.32,400.319 1365.38,343.893 1367.43,369.525 1369.48,366.896 1371.54,371.422 1373.59,380.091 1375.64,380.524 1377.69,380.5 1379.75,374.567 1381.8,351.822 1383.85,328.484 1385.91,329.762 1387.96,329.181 1390.01,331.035 1392.06,314.295 1394.12,317.033 1396.17,322.971 1398.22,323.09 1400.28,326.691 1402.33,327.105 1404.38,326.197 1406.43,329.567 1408.49,329.174 1410.54,322.757 1412.59,375.322 1414.65,377.142 1416.7,379.779 1418.75,383.299 1420.8,379.796 1422.86,371.95 1424.91,375.074 1426.96,375.058 1429.02,374.208 1431.07,374.42 1433.12,385.199 1435.17,393.427 1437.23,392.926 1439.28,392.749 1441.33,393.087 1443.39,401.804 1445.44,396.002 1447.49,395.763 1449.55,397.344 1451.6,397.801 1453.65,397.857 1455.7,397.644 1457.76,397.662 1459.81,397.212 1461.86,395.855 1463.92,394.463 1465.97,394.37 1468.02,394.245 1470.07,393.358 1472.13,436.094 1474.18,427.737 1476.23,417.757 1478.29,398.698 1480.34,388.429 1482.39,386.348 1484.44,386.342 1486.5,381.476 1488.55,382.253 1490.6,381.595 1492.66,372.963 1494.71,394.458 1496.76,409.081 1498.81,424.502 1500.87,423.103 1502.92,433.66 1504.97,430.808 1507.03,419.906 1509.08,399.638 1511.13,399.903 1513.18,397.408 1515.24,397.45 1517.29,418.838 1519.34,395.091 1521.4,394.262 1523.45,394.914 1525.5,402.327 1527.55,296.683 1529.61,289.235 1531.66,289.924 1533.71,427.135 1535.77,430.931 1537.82,430.909 1539.87,427.335 1541.93,427.444 1543.98,429.573 1546.03,429.524 1548.08,401.579 1550.14,339.401 1552.19,239.436 1554.24,256.5 1556.3,249.072 1558.35,247.592 1560.4,247.571 1562.45,190.502 1564.51,234.14 1566.56,448.301 1568.61,446.405 1570.67,446.437 1572.72,438.568 1574.77,404.506 1576.82,404.285 1578.88,429.959 1580.93,422.762 1582.98,429.589 1585.04,429.471 1587.09,373.47 1589.14,378.863 1591.19,366.349 1593.25,332.402 1595.3,307.475 1597.35,278.324 1599.41,274.301 1601.46,268.863 1603.51,268.864 1605.56,270.198 1607.62,270.204 1609.67,278.762 1611.72,283.155 1613.78,300.356 1615.83,310.66 1617.88,317.401 1619.94,309.301 1621.99,332.324 1624.04,335.241 1626.09,329.11 1628.15,329.052 1630.2,290.032 1632.25,200.7 1634.31,195.016 1636.36,189.805 1638.41,200.757 1640.46,201.346 1642.52,187.501 1644.57,185.535 1646.62,193.958 1648.68,195.189 1650.73,219.6 1652.78,264.283 1654.83,349.497 1656.89,349.563 1658.94,396.918 1660.99,432.81 1663.05,348.095 1665.1,331.348 1667.15,360.593 1669.2,359.753 1671.26,359.93 1673.31,377.823 1675.36,266.814 1677.42,269.01 1679.47,242.882 1681.52,236.233 1683.57,218.23 1685.63,219.623 1687.68,255.02 1689.73,375.965 1691.79,374.639 1693.84,345.417 1695.89,343.163 1697.94,343.532 1700,359.72 1702.05,362.154 1704.1,359.33 1706.16,361.776 1708.21,375.079 1710.26,371.271 1712.32,378.82 1714.37,375.074 1716.42,375.051 1718.47,367.199 1720.53,396.607 1722.58,392.332 1724.63,391.332 1726.69,390.983 1728.74,384.292 1730.79,381.785 1732.84,351.77 1734.9,337.677 1736.95,381.799 1739,380.39 1741.06,386.487 1743.11,386.079 1745.16,386.079 1747.21,390.052 1749.27,392.459 1751.32,383.24 1753.37,383.377 1755.43,381.2 1757.48,391.632 1759.53,403.568 1761.58,404.762 1763.64,400.562 1765.69,403.361 1767.74,403.373 1769.8,404.465 1771.85,403.505 1773.9,415.671 1775.95,368.751 1778.01,367.802 1780.06,358.961 1782.11,359.975 1784.17,315.921 1786.22,405.16 1788.27,402.26 1790.33,401.757 1792.38,401.823 1794.43,401.476 1796.48,402.874 1798.54,401.771 1800.59,398.095 1802.64,387.718 1804.7,387.669 1806.75,368.64 1808.8,335.843 1810.85,329.099 1812.91,346.579 1814.96,343.172 1817.01,343.042 1819.07,343.054 1821.12,336.489 1823.17,352.041 1825.22,359.893 1827.28,377.419 1829.33,382.067 1831.38,388.401 1833.44,335.29 1835.49,334.669 1837.54,334.636 1839.59,345.345 1841.65,356.663 1843.7,358.464 1845.75,351.683 1847.81,349.762 1849.86,362.269 1851.91,362.426 1853.96,362.307 1856.02,362.308 1858.07,351.447 1860.12,351.43 1862.18,376.861 1864.23,377.509 1866.28,377.502 1868.34,377.336 1870.39,376.391 1872.44,375.969 1874.49,375.652 1876.55,376.264 1878.6,376.442 1880.65,377.465 1882.71,342.349 1884.76,343.093 1886.81,343.25 1888.86,342.354 1890.92,340.383 1892.97,341.479 1895.02,345.917 1897.08,354.776 1899.13,356.51 1901.18,358.092 1903.23,358.065 1905.29,358.009 1907.34,357.946 1909.39,357.743 1911.45,357.645 1913.5,357.874 1915.55,369.935 1917.6,369.631 1919.66,371.733 1921.71,366.932 1923.76,359.149 1925.82,359.151 1927.87,348.218 1929.92,359.343 1931.97,362.617 1934.03,361.451 1936.08,371.382 1938.13,372.838 1940.19,372.841 1942.24,372.509 1944.29,386.933 1946.34,386.66 1948.4,397.989 1950.45,397.596 1952.5,397.812 1954.56,396.665 1956.61,396.129 1958.66,401.569 1960.72,404.652 1962.77,403.579 1964.82,404.048 1966.87,404.474 1968.93,404.464 1970.98,404.145 1973.03,406.148 1975.09,372.443 1977.14,374.094 1979.19,369.796 1981.24,369.502 1983.3,369.574 1985.35,369.144 1987.4,375.668 1989.46,379.268 1991.51,379.195 1993.56,357.601 1995.61,355 1997.67,364.644 1999.72,364.756 2001.77,364.367 2003.83,361.043 2005.88,363.63 2007.93,363.632 2009.98,363.761 2012.04,363.381 2014.09,360.493 2016.14,360.17 2018.2,354.578 2020.25,378.696 2022.3,379.161 2024.35,376.859 2026.41,387.914 2028.46,384.779 2030.51,369.107 2032.57,366.671 2034.62,372.472 2036.67,376.132 2038.73,380.799 2040.78,404.905 2042.83,403.241 2044.88,402.261 2046.94,402.401 2048.99,392.929 2051.04,393.372 2053.1,396.19 2055.15,402.452 2057.2,404.464 2059.25,388.414 2061.31,422.964 2063.36,422.983 2065.41,439.816 2067.47,374.029 2069.52,400.116 2071.57,394.472 2073.62,373.835 2075.68,374.988 2077.73,376.166 2079.78,356.091 2081.84,364.888 2083.89,424.479 2085.94,416.122 2087.99,403.233 2090.05,395.537 2092.1,389.38 2094.15,388.899 2096.21,389.571 2098.26,310.122 2100.31,418.13 2102.36,398.782 2104.42,398.837 2106.47,398.839 2108.52,396.886 2110.58,405.332 2112.63,403.552 2114.68,364.912 2116.73,366.575 2118.79,389.825 2120.84,390.053 2122.89,390.265 2124.95,387.816 2127,392.647 2129.05,391.524 2131.11,388.801 2133.16,387.199 2135.21,386.94 2137.26,386.81 2139.32,419.849 2141.37,397.031 2143.42,401.578 2145.48,392.102 2147.53,441.762 2149.58,441.907 2151.63,422.518 2153.69,422.543 2155.74,423.304 2157.79,419.25 2159.85,418.83 2161.9,397.376 2163.95,397.401 2166,384.432 2168.06,382.035 2170.11,355.759 2172.16,355.775 2174.22,370.312 2176.27,305.282 2178.32,307.651 2180.37,416.372 2182.43,406.572 2184.48,405.024 2186.53,389.137 2188.59,384.705 2190.64,401.382 2192.69,392.792 2194.74,409.402 2196.8,340.497 2198.85,391.849 2200.9,391.381 2202.96,365.149 2205.01,365.286 2207.06,377.104 2209.12,348.826 2211.17,349.615 2213.22,343.876 2215.27,343.51 2217.33,331.195 2219.38,373.209 2221.43,520.985 2223.49,500.75 2225.54,472.53 2227.59,466.695 2229.64,457.904 2231.7,459.812 2233.75,468.937 2235.8,458.637 2237.86,457.419 2239.91,537.012 2241.96,519.406 2244.01,519.298 2246.07,518.325 2248.12,513.863 2250.17,592.993 2252.23,589.285 2254.28,506.434 2256.33,501.712 2258.38,499.971 2260.44,516.969 2262.49,521.153 2264.54,519.568 2266.6,518.735 2268.65,520.283 2270.7,509.048 2272.75,508.424 2274.81,387.744 2276.86,388.507 2278.91,374.304 2280.97,365.657 2283.02,352.313 2285.07,283.888 2287.12,305.499 2289.18,236.624 2291.23,265.119 "/>
<path clip-path="url(#clip260)" d="M1983.6 172.231 L2280.29 172.231 L2280.29 68.5509 L1983.6 68.5509  Z" fill="#ffffff" fill-rule="evenodd" fill-opacity="1"/>
<polyline clip-path="url(#clip260)" style="stroke:#000000; stroke-linecap:round; stroke-linejoin:round; stroke-width:4; stroke-opacity:1; fill:none" points="1983.6,172.231 2280.29,172.231 2280.29,68.5509 1983.6,68.5509 1983.6,172.231 "/>
<polyline clip-path="url(#clip260)" style="stroke:#009af9; stroke-linecap:round; stroke-linejoin:round; stroke-width:4; stroke-opacity:1; fill:none" points="2007.75,120.391 2152.68,120.391 "/>
<path clip-path="url(#clip260)" d="M2176.83 103.111 L2181.51 103.111 L2181.51 133.736 L2198.34 133.736 L2198.34 137.671 L2176.83 137.671 L2176.83 103.111 Z" fill="#000000" fill-rule="nonzero" fill-opacity="1" /><path clip-path="url(#clip260)" d="M2223.96 104.245 L2223.96 108.805 Q2221.3 107.532 2218.94 106.907 Q2216.58 106.282 2214.38 106.282 Q2210.56 106.282 2208.48 107.764 Q2206.42 109.245 2206.42 111.977 Q2206.42 114.268 2207.78 115.449 Q2209.17 116.606 2213.01 117.324 L2215.84 117.902 Q2221.07 118.898 2223.55 121.421 Q2226.05 123.921 2226.05 128.134 Q2226.05 133.157 2222.67 135.75 Q2219.31 138.342 2212.81 138.342 Q2210.35 138.342 2207.57 137.787 Q2204.82 137.231 2201.86 136.143 L2201.86 131.328 Q2204.7 132.926 2207.44 133.736 Q2210.17 134.546 2212.81 134.546 Q2216.81 134.546 2218.99 132.972 Q2221.16 131.398 2221.16 128.481 Q2221.16 125.935 2219.59 124.5 Q2218.04 123.064 2214.47 122.347 L2211.62 121.791 Q2206.39 120.75 2204.06 118.527 Q2201.72 116.305 2201.72 112.347 Q2201.72 107.764 2204.94 105.125 Q2208.18 102.486 2213.85 102.486 Q2216.28 102.486 2218.8 102.926 Q2221.32 103.366 2223.96 104.245 Z" fill="#000000" fill-rule="nonzero" fill-opacity="1" /><path clip-path="url(#clip260)" d="M2254.06 104.245 L2254.06 108.805 Q2251.39 107.532 2249.03 106.907 Q2246.67 106.282 2244.47 106.282 Q2240.65 106.282 2238.57 107.764 Q2236.51 109.245 2236.51 111.977 Q2236.51 114.268 2237.87 115.449 Q2239.26 116.606 2243.11 117.324 L2245.93 117.902 Q2251.16 118.898 2253.64 121.421 Q2256.14 123.921 2256.14 128.134 Q2256.14 133.157 2252.76 135.75 Q2249.4 138.342 2242.9 138.342 Q2240.44 138.342 2237.67 137.787 Q2234.91 137.231 2231.95 136.143 L2231.95 131.328 Q2234.8 132.926 2237.53 133.736 Q2240.26 134.546 2242.9 134.546 Q2246.9 134.546 2249.08 132.972 Q2251.25 131.398 2251.25 128.481 Q2251.25 125.935 2249.68 124.5 Q2248.13 123.064 2244.56 122.347 L2241.72 121.791 Q2236.49 120.75 2234.15 118.527 Q2231.81 116.305 2231.81 112.347 Q2231.81 107.764 2235.03 105.125 Q2238.27 102.486 2243.94 102.486 Q2246.37 102.486 2248.89 102.926 Q2251.42 103.366 2254.06 104.245 Z" fill="#000000" fill-rule="nonzero" fill-opacity="1" /><path clip-path="url(#clip260)" d="M178.867 1486.45 L2352.76 1486.45 L2352.76 847.244 L178.867 847.244  Z" fill="#ffffff" fill-rule="evenodd" fill-opacity="1"/>
<defs>
  <clipPath id="clip263">
    <rect x="178" y="847" width="2175" height="640"/>
  </clipPath>
</defs>
<polyline clip-path="url(#clip263)" style="stroke:#000000; stroke-linecap:round; stroke-linejoin:round; stroke-width:2; stroke-opacity:0.1; fill:none" points="238.339,1486.45 238.339,847.244 "/>
<polyline clip-path="url(#clip263)" style="stroke:#000000; stroke-linecap:round; stroke-linejoin:round; stroke-width:2; stroke-opacity:0.1; fill:none" points="751.562,1486.45 751.562,847.244 "/>
<polyline clip-path="url(#clip263)" style="stroke:#000000; stroke-linecap:round; stroke-linejoin:round; stroke-width:2; stroke-opacity:0.1; fill:none" points="1264.78,1486.45 1264.78,847.244 "/>
<polyline clip-path="url(#clip263)" style="stroke:#000000; stroke-linecap:round; stroke-linejoin:round; stroke-width:2; stroke-opacity:0.1; fill:none" points="1778.01,1486.45 1778.01,847.244 "/>
<polyline clip-path="url(#clip263)" style="stroke:#000000; stroke-linecap:round; stroke-linejoin:round; stroke-width:2; stroke-opacity:0.1; fill:none" points="2291.23,1486.45 2291.23,847.244 "/>
<polyline clip-path="url(#clip263)" style="stroke:#000000; stroke-linecap:round; stroke-linejoin:round; stroke-width:2; stroke-opacity:0.1; fill:none" points="178.867,1486.45 2352.76,1486.45 "/>
<polyline clip-path="url(#clip263)" style="stroke:#000000; stroke-linecap:round; stroke-linejoin:round; stroke-width:2; stroke-opacity:0.1; fill:none" points="178.867,1326.65 2352.76,1326.65 "/>
<polyline clip-path="url(#clip263)" style="stroke:#000000; stroke-linecap:round; stroke-linejoin:round; stroke-width:2; stroke-opacity:0.1; fill:none" points="178.867,1166.85 2352.76,1166.85 "/>
<polyline clip-path="url(#clip263)" style="stroke:#000000; stroke-linecap:round; stroke-linejoin:round; stroke-width:2; stroke-opacity:0.1; fill:none" points="178.867,1007.05 2352.76,1007.05 "/>
<polyline clip-path="url(#clip263)" style="stroke:#000000; stroke-linecap:round; stroke-linejoin:round; stroke-width:2; stroke-opacity:0.1; fill:none" points="178.867,847.244 2352.76,847.244 "/>
<polyline clip-path="url(#clip260)" style="stroke:#000000; stroke-linecap:round; stroke-linejoin:round; stroke-width:4; stroke-opacity:1; fill:none" points="178.867,1486.45 2352.76,1486.45 "/>
<polyline clip-path="url(#clip260)" style="stroke:#000000; stroke-linecap:round; stroke-linejoin:round; stroke-width:4; stroke-opacity:1; fill:none" points="238.339,1486.45 238.339,1467.55 "/>
<polyline clip-path="url(#clip260)" style="stroke:#000000; stroke-linecap:round; stroke-linejoin:round; stroke-width:4; stroke-opacity:1; fill:none" points="751.562,1486.45 751.562,1467.55 "/>
<polyline clip-path="url(#clip260)" style="stroke:#000000; stroke-linecap:round; stroke-linejoin:round; stroke-width:4; stroke-opacity:1; fill:none" points="1264.78,1486.45 1264.78,1467.55 "/>
<polyline clip-path="url(#clip260)" style="stroke:#000000; stroke-linecap:round; stroke-linejoin:round; stroke-width:4; stroke-opacity:1; fill:none" points="1778.01,1486.45 1778.01,1467.55 "/>
<polyline clip-path="url(#clip260)" style="stroke:#000000; stroke-linecap:round; stroke-linejoin:round; stroke-width:4; stroke-opacity:1; fill:none" points="2291.23,1486.45 2291.23,1467.55 "/>
<path clip-path="url(#clip260)" d="M238.339 1517.37 Q234.728 1517.37 232.899 1520.93 Q231.094 1524.47 231.094 1531.6 Q231.094 1538.71 232.899 1542.27 Q234.728 1545.82 238.339 1545.82 Q241.973 1545.82 243.779 1542.27 Q245.607 1538.71 245.607 1531.6 Q245.607 1524.47 243.779 1520.93 Q241.973 1517.37 238.339 1517.37 M238.339 1513.66 Q244.149 1513.66 247.205 1518.27 Q250.283 1522.85 250.283 1531.6 Q250.283 1540.33 247.205 1544.94 Q244.149 1549.52 238.339 1549.52 Q232.529 1549.52 229.45 1544.94 Q226.395 1540.33 226.395 1531.6 Q226.395 1522.85 229.45 1518.27 Q232.529 1513.66 238.339 1513.66 Z" fill="#000000" fill-rule="nonzero" fill-opacity="1" /><path clip-path="url(#clip260)" d="M715.254 1544.91 L731.574 1544.91 L731.574 1548.85 L709.629 1548.85 L709.629 1544.91 Q712.291 1542.16 716.875 1537.53 Q721.481 1532.88 722.662 1531.53 Q724.907 1529.01 725.787 1527.27 Q726.689 1525.51 726.689 1523.82 Q726.689 1521.07 724.745 1519.33 Q722.824 1517.6 719.722 1517.6 Q717.523 1517.6 715.069 1518.36 Q712.638 1519.13 709.861 1520.68 L709.861 1515.95 Q712.685 1514.82 715.138 1514.24 Q717.592 1513.66 719.629 1513.66 Q725 1513.66 728.194 1516.35 Q731.388 1519.03 731.388 1523.52 Q731.388 1525.65 730.578 1527.57 Q729.791 1529.47 727.685 1532.07 Q727.106 1532.74 724.004 1535.95 Q720.902 1539.15 715.254 1544.91 Z" fill="#000000" fill-rule="nonzero" fill-opacity="1" /><path clip-path="url(#clip260)" d="M741.435 1514.29 L759.791 1514.29 L759.791 1518.22 L745.717 1518.22 L745.717 1526.7 Q746.736 1526.35 747.754 1526.19 Q748.773 1526 749.791 1526 Q755.578 1526 758.958 1529.17 Q762.337 1532.34 762.337 1537.76 Q762.337 1543.34 758.865 1546.44 Q755.393 1549.52 749.073 1549.52 Q746.898 1549.52 744.629 1549.15 Q742.384 1548.78 739.976 1548.04 L739.976 1543.34 Q742.06 1544.47 744.282 1545.03 Q746.504 1545.58 748.981 1545.58 Q752.985 1545.58 755.323 1543.48 Q757.661 1541.37 757.661 1537.76 Q757.661 1534.15 755.323 1532.04 Q752.985 1529.94 748.981 1529.94 Q747.106 1529.94 745.231 1530.35 Q743.379 1530.77 741.435 1531.65 L741.435 1514.29 Z" fill="#000000" fill-rule="nonzero" fill-opacity="1" /><path clip-path="url(#clip260)" d="M781.55 1517.37 Q777.939 1517.37 776.11 1520.93 Q774.305 1524.47 774.305 1531.6 Q774.305 1538.71 776.11 1542.27 Q777.939 1545.82 781.55 1545.82 Q785.184 1545.82 786.99 1542.27 Q788.819 1538.71 788.819 1531.6 Q788.819 1524.47 786.99 1520.93 Q785.184 1517.37 781.55 1517.37 M781.55 1513.66 Q787.36 1513.66 790.416 1518.27 Q793.495 1522.85 793.495 1531.6 Q793.495 1540.33 790.416 1544.94 Q787.36 1549.52 781.55 1549.52 Q775.74 1549.52 772.661 1544.94 Q769.606 1540.33 769.606 1531.6 Q769.606 1522.85 772.661 1518.27 Q775.74 1513.66 781.55 1513.66 Z" fill="#000000" fill-rule="nonzero" fill-opacity="1" /><path clip-path="url(#clip260)" d="M1224.4 1514.29 L1242.76 1514.29 L1242.76 1518.22 L1228.69 1518.22 L1228.69 1526.7 Q1229.7 1526.35 1230.72 1526.19 Q1231.74 1526 1232.76 1526 Q1238.55 1526 1241.93 1529.17 Q1245.31 1532.34 1245.31 1537.76 Q1245.31 1543.34 1241.83 1546.44 Q1238.36 1549.52 1232.04 1549.52 Q1229.87 1549.52 1227.6 1549.15 Q1225.35 1548.78 1222.94 1548.04 L1222.94 1543.34 Q1225.03 1544.47 1227.25 1545.03 Q1229.47 1545.58 1231.95 1545.58 Q1235.95 1545.58 1238.29 1543.48 Q1240.63 1541.37 1240.63 1537.76 Q1240.63 1534.15 1238.29 1532.04 Q1235.95 1529.94 1231.95 1529.94 Q1230.07 1529.94 1228.2 1530.35 Q1226.35 1530.77 1224.4 1531.65 L1224.4 1514.29 Z" fill="#000000" fill-rule="nonzero" fill-opacity="1" /><path clip-path="url(#clip260)" d="M1264.52 1517.37 Q1260.91 1517.37 1259.08 1520.93 Q1257.27 1524.47 1257.27 1531.6 Q1257.27 1538.71 1259.08 1542.27 Q1260.91 1545.82 1264.52 1545.82 Q1268.15 1545.82 1269.96 1542.27 Q1271.79 1538.71 1271.79 1531.6 Q1271.79 1524.47 1269.96 1520.93 Q1268.15 1517.37 1264.52 1517.37 M1264.52 1513.66 Q1270.33 1513.66 1273.38 1518.27 Q1276.46 1522.85 1276.46 1531.6 Q1276.46 1540.33 1273.38 1544.94 Q1270.33 1549.52 1264.52 1549.52 Q1258.71 1549.52 1255.63 1544.94 Q1252.57 1540.33 1252.57 1531.6 Q1252.57 1522.85 1255.63 1518.27 Q1258.71 1513.66 1264.52 1513.66 Z" fill="#000000" fill-rule="nonzero" fill-opacity="1" /><path clip-path="url(#clip260)" d="M1294.68 1517.37 Q1291.07 1517.37 1289.24 1520.93 Q1287.44 1524.47 1287.44 1531.6 Q1287.44 1538.71 1289.24 1542.27 Q1291.07 1545.82 1294.68 1545.82 Q1298.31 1545.82 1300.12 1542.27 Q1301.95 1538.71 1301.95 1531.6 Q1301.95 1524.47 1300.12 1520.93 Q1298.31 1517.37 1294.68 1517.37 M1294.68 1513.66 Q1300.49 1513.66 1303.55 1518.27 Q1306.62 1522.85 1306.62 1531.6 Q1306.62 1540.33 1303.55 1544.94 Q1300.49 1549.52 1294.68 1549.52 Q1288.87 1549.52 1285.79 1544.94 Q1282.74 1540.33 1282.74 1531.6 Q1282.74 1522.85 1285.79 1518.27 Q1288.87 1513.66 1294.68 1513.66 Z" fill="#000000" fill-rule="nonzero" fill-opacity="1" /><path clip-path="url(#clip260)" d="M1736.28 1514.29 L1758.51 1514.29 L1758.51 1516.28 L1745.96 1548.85 L1741.08 1548.85 L1752.88 1518.22 L1736.28 1518.22 L1736.28 1514.29 Z" fill="#000000" fill-rule="nonzero" fill-opacity="1" /><path clip-path="url(#clip260)" d="M1767.67 1514.29 L1786.03 1514.29 L1786.03 1518.22 L1771.95 1518.22 L1771.95 1526.7 Q1772.97 1526.35 1773.99 1526.19 Q1775.01 1526 1776.03 1526 Q1781.82 1526 1785.2 1529.17 Q1788.57 1532.34 1788.57 1537.76 Q1788.57 1543.34 1785.1 1546.44 Q1781.63 1549.52 1775.31 1549.52 Q1773.14 1549.52 1770.87 1549.15 Q1768.62 1548.78 1766.21 1548.04 L1766.21 1543.34 Q1768.3 1544.47 1770.52 1545.03 Q1772.74 1545.58 1775.22 1545.58 Q1779.22 1545.58 1781.56 1543.48 Q1783.9 1541.37 1783.9 1537.76 Q1783.9 1534.15 1781.56 1532.04 Q1779.22 1529.94 1775.22 1529.94 Q1773.34 1529.94 1771.47 1530.35 Q1769.62 1530.77 1767.67 1531.65 L1767.67 1514.29 Z" fill="#000000" fill-rule="nonzero" fill-opacity="1" /><path clip-path="url(#clip260)" d="M1807.79 1517.37 Q1804.18 1517.37 1802.35 1520.93 Q1800.54 1524.47 1800.54 1531.6 Q1800.54 1538.71 1802.35 1542.27 Q1804.18 1545.82 1807.79 1545.82 Q1811.42 1545.82 1813.23 1542.27 Q1815.06 1538.71 1815.06 1531.6 Q1815.06 1524.47 1813.23 1520.93 Q1811.42 1517.37 1807.79 1517.37 M1807.79 1513.66 Q1813.6 1513.66 1816.65 1518.27 Q1819.73 1522.85 1819.73 1531.6 Q1819.73 1540.33 1816.65 1544.94 Q1813.6 1549.52 1807.79 1549.52 Q1801.98 1549.52 1798.9 1544.94 Q1795.84 1540.33 1795.84 1531.6 Q1795.84 1522.85 1798.9 1518.27 Q1801.98 1513.66 1807.79 1513.66 Z" fill="#000000" fill-rule="nonzero" fill-opacity="1" /><path clip-path="url(#clip260)" d="M2235.76 1544.91 L2243.4 1544.91 L2243.4 1518.55 L2235.09 1520.21 L2235.09 1515.95 L2243.35 1514.29 L2248.02 1514.29 L2248.02 1544.91 L2255.66 1544.91 L2255.66 1548.85 L2235.76 1548.85 L2235.76 1544.91 Z" fill="#000000" fill-rule="nonzero" fill-opacity="1" /><path clip-path="url(#clip260)" d="M2275.11 1517.37 Q2271.5 1517.37 2269.67 1520.93 Q2267.86 1524.47 2267.86 1531.6 Q2267.86 1538.71 2269.67 1542.27 Q2271.5 1545.82 2275.11 1545.82 Q2278.74 1545.82 2280.55 1542.27 Q2282.38 1538.71 2282.38 1531.6 Q2282.38 1524.47 2280.55 1520.93 Q2278.74 1517.37 2275.11 1517.37 M2275.11 1513.66 Q2280.92 1513.66 2283.97 1518.27 Q2287.05 1522.85 2287.05 1531.6 Q2287.05 1540.33 2283.97 1544.94 Q2280.92 1549.52 2275.11 1549.52 Q2269.3 1549.52 2266.22 1544.94 Q2263.16 1540.33 2263.16 1531.6 Q2263.16 1522.85 2266.22 1518.27 Q2269.3 1513.66 2275.11 1513.66 Z" fill="#000000" fill-rule="nonzero" fill-opacity="1" /><path clip-path="url(#clip260)" d="M2305.27 1517.37 Q2301.66 1517.37 2299.83 1520.93 Q2298.02 1524.47 2298.02 1531.6 Q2298.02 1538.71 2299.83 1542.27 Q2301.66 1545.82 2305.27 1545.82 Q2308.9 1545.82 2310.71 1542.27 Q2312.54 1538.71 2312.54 1531.6 Q2312.54 1524.47 2310.71 1520.93 Q2308.9 1517.37 2305.27 1517.37 M2305.27 1513.66 Q2311.08 1513.66 2314.14 1518.27 Q2317.21 1522.85 2317.21 1531.6 Q2317.21 1540.33 2314.14 1544.94 Q2311.08 1549.52 2305.27 1549.52 Q2299.46 1549.52 2296.38 1544.94 Q2293.33 1540.33 2293.33 1531.6 Q2293.33 1522.85 2296.38 1518.27 Q2299.46 1513.66 2305.27 1513.66 Z" fill="#000000" fill-rule="nonzero" fill-opacity="1" /><path clip-path="url(#clip260)" d="M2335.43 1517.37 Q2331.82 1517.37 2329.99 1520.93 Q2328.19 1524.47 2328.19 1531.6 Q2328.19 1538.71 2329.99 1542.27 Q2331.82 1545.82 2335.43 1545.82 Q2339.07 1545.82 2340.87 1542.27 Q2342.7 1538.71 2342.7 1531.6 Q2342.7 1524.47 2340.87 1520.93 Q2339.07 1517.37 2335.43 1517.37 M2335.43 1513.66 Q2341.24 1513.66 2344.3 1518.27 Q2347.38 1522.85 2347.38 1531.6 Q2347.38 1540.33 2344.3 1544.94 Q2341.24 1549.52 2335.43 1549.52 Q2329.62 1549.52 2326.54 1544.94 Q2323.49 1540.33 2323.49 1531.6 Q2323.49 1522.85 2326.54 1518.27 Q2329.62 1513.66 2335.43 1513.66 Z" fill="#000000" fill-rule="nonzero" fill-opacity="1" /><polyline clip-path="url(#clip260)" style="stroke:#000000; stroke-linecap:round; stroke-linejoin:round; stroke-width:4; stroke-opacity:1; fill:none" points="178.867,1486.45 178.867,847.244 "/>
<polyline clip-path="url(#clip260)" style="stroke:#000000; stroke-linecap:round; stroke-linejoin:round; stroke-width:4; stroke-opacity:1; fill:none" points="178.867,1486.45 197.764,1486.45 "/>
<polyline clip-path="url(#clip260)" style="stroke:#000000; stroke-linecap:round; stroke-linejoin:round; stroke-width:4; stroke-opacity:1; fill:none" points="178.867,1326.65 197.764,1326.65 "/>
<polyline clip-path="url(#clip260)" style="stroke:#000000; stroke-linecap:round; stroke-linejoin:round; stroke-width:4; stroke-opacity:1; fill:none" points="178.867,1166.85 197.764,1166.85 "/>
<polyline clip-path="url(#clip260)" style="stroke:#000000; stroke-linecap:round; stroke-linejoin:round; stroke-width:4; stroke-opacity:1; fill:none" points="178.867,1007.05 197.764,1007.05 "/>
<polyline clip-path="url(#clip260)" style="stroke:#000000; stroke-linecap:round; stroke-linejoin:round; stroke-width:4; stroke-opacity:1; fill:none" points="178.867,847.244 197.764,847.244 "/>
<path clip-path="url(#clip260)" d="M50.9921 1486.9 L80.6679 1486.9 L80.6679 1490.83 L50.9921 1490.83 L50.9921 1486.9 Z" fill="#000000" fill-rule="nonzero" fill-opacity="1" /><path clip-path="url(#clip260)" d="M91.5706 1499.79 L99.2095 1499.79 L99.2095 1473.43 L90.8993 1475.09 L90.8993 1470.83 L99.1632 1469.17 L103.839 1469.17 L103.839 1499.79 L111.478 1499.79 L111.478 1503.73 L91.5706 1503.73 L91.5706 1499.79 Z" fill="#000000" fill-rule="nonzero" fill-opacity="1" /><path clip-path="url(#clip260)" d="M130.922 1472.25 Q127.311 1472.25 125.482 1475.81 Q123.677 1479.35 123.677 1486.48 Q123.677 1493.59 125.482 1497.15 Q127.311 1500.7 130.922 1500.7 Q134.556 1500.7 136.362 1497.15 Q138.191 1493.59 138.191 1486.48 Q138.191 1479.35 136.362 1475.81 Q134.556 1472.25 130.922 1472.25 M130.922 1468.54 Q136.732 1468.54 139.788 1473.15 Q142.867 1477.73 142.867 1486.48 Q142.867 1495.21 139.788 1499.82 Q136.732 1504.4 130.922 1504.4 Q125.112 1504.4 122.033 1499.82 Q118.978 1495.21 118.978 1486.48 Q118.978 1477.73 122.033 1473.15 Q125.112 1468.54 130.922 1468.54 Z" fill="#000000" fill-rule="nonzero" fill-opacity="1" /><path clip-path="url(#clip260)" d="M82.1494 1327.1 L111.825 1327.1 L111.825 1331.03 L82.1494 1331.03 L82.1494 1327.1 Z" fill="#000000" fill-rule="nonzero" fill-opacity="1" /><path clip-path="url(#clip260)" d="M121.964 1309.37 L140.32 1309.37 L140.32 1313.3 L126.246 1313.3 L126.246 1321.77 Q127.265 1321.43 128.283 1321.27 Q129.302 1321.08 130.32 1321.08 Q136.107 1321.08 139.487 1324.25 Q142.867 1327.42 142.867 1332.84 Q142.867 1338.42 139.394 1341.52 Q135.922 1344.6 129.603 1344.6 Q127.427 1344.6 125.158 1344.23 Q122.913 1343.86 120.506 1343.12 L120.506 1338.42 Q122.589 1339.55 124.811 1340.11 Q127.033 1340.66 129.51 1340.66 Q133.515 1340.66 135.853 1338.56 Q138.191 1336.45 138.191 1332.84 Q138.191 1329.23 135.853 1327.12 Q133.515 1325.01 129.51 1325.01 Q127.635 1325.01 125.76 1325.43 Q123.908 1325.85 121.964 1326.73 L121.964 1309.37 Z" fill="#000000" fill-rule="nonzero" fill-opacity="1" /><path clip-path="url(#clip260)" d="M130.922 1152.64 Q127.311 1152.64 125.482 1156.21 Q123.677 1159.75 123.677 1166.88 Q123.677 1173.99 125.482 1177.55 Q127.311 1181.09 130.922 1181.09 Q134.556 1181.09 136.362 1177.55 Q138.191 1173.99 138.191 1166.88 Q138.191 1159.75 136.362 1156.21 Q134.556 1152.64 130.922 1152.64 M130.922 1148.94 Q136.732 1148.94 139.788 1153.55 Q142.867 1158.13 142.867 1166.88 Q142.867 1175.61 139.788 1180.21 Q136.732 1184.8 130.922 1184.8 Q125.112 1184.8 122.033 1180.21 Q118.978 1175.61 118.978 1166.88 Q118.978 1158.13 122.033 1153.55 Q125.112 1148.94 130.922 1148.94 Z" fill="#000000" fill-rule="nonzero" fill-opacity="1" /><path clip-path="url(#clip260)" d="M121.964 989.765 L140.32 989.765 L140.32 993.7 L126.246 993.7 L126.246 1002.17 Q127.265 1001.83 128.283 1001.66 Q129.302 1001.48 130.32 1001.48 Q136.107 1001.48 139.487 1004.65 Q142.867 1007.82 142.867 1013.24 Q142.867 1018.82 139.394 1021.92 Q135.922 1025 129.603 1025 Q127.427 1025 125.158 1024.63 Q122.913 1024.26 120.506 1023.51 L120.506 1018.82 Q122.589 1019.95 124.811 1020.51 Q127.033 1021.06 129.51 1021.06 Q133.515 1021.06 135.853 1018.95 Q138.191 1016.85 138.191 1013.24 Q138.191 1009.63 135.853 1007.52 Q133.515 1005.41 129.51 1005.41 Q127.635 1005.41 125.76 1005.83 Q123.908 1006.25 121.964 1007.13 L121.964 989.765 Z" fill="#000000" fill-rule="nonzero" fill-opacity="1" /><path clip-path="url(#clip260)" d="M91.5706 860.589 L99.2095 860.589 L99.2095 834.223 L90.8993 835.89 L90.8993 831.631 L99.1632 829.964 L103.839 829.964 L103.839 860.589 L111.478 860.589 L111.478 864.524 L91.5706 864.524 L91.5706 860.589 Z" fill="#000000" fill-rule="nonzero" fill-opacity="1" /><path clip-path="url(#clip260)" d="M130.922 833.043 Q127.311 833.043 125.482 836.608 Q123.677 840.149 123.677 847.279 Q123.677 854.385 125.482 857.95 Q127.311 861.492 130.922 861.492 Q134.556 861.492 136.362 857.95 Q138.191 854.385 138.191 847.279 Q138.191 840.149 136.362 836.608 Q134.556 833.043 130.922 833.043 M130.922 829.339 Q136.732 829.339 139.788 833.946 Q142.867 838.529 142.867 847.279 Q142.867 856.006 139.788 860.612 Q136.732 865.195 130.922 865.195 Q125.112 865.195 122.033 860.612 Q118.978 856.006 118.978 847.279 Q118.978 838.529 122.033 833.946 Q125.112 829.339 130.922 829.339 Z" fill="#000000" fill-rule="nonzero" fill-opacity="1" /><polyline clip-path="url(#clip263)" style="stroke:#009af9; stroke-linecap:round; stroke-linejoin:round; stroke-width:4; stroke-opacity:1; fill:none" points="240.392,1134.89 242.445,1196.63 244.498,1194.91 246.55,1165.12 248.603,1164.73 250.656,1171.98 252.709,1192.19 254.762,1150.42 256.815,1209.4 258.868,1074.89 260.921,1271.15 262.974,859.143 265.027,1444.15 267.079,1049.95 269.132,1110.37 271.185,1149.91 273.238,1156.07 275.291,1195.88 277.344,1123.63 279.397,1166.15 281.45,1159.88 283.503,1183.07 285.555,1139.43 287.608,1221.52 289.661,1173.06 291.714,1193.67 293.767,1195.77 295.82,1148.35 297.873,1214.52 299.926,1173.55 301.979,824.934 304.031,873.889 306.084,1161.33 308.137,1141.74 310.19,1201.02 312.243,1206.07 314.296,1169.47 316.349,1127.77 318.402,1197.75 320.455,1197.61 322.507,1176 324.56,1216.06 326.613,1177.35 328.666,1168.89 330.719,1148.17 332.772,1186.94 334.825,1186.53 336.878,1223.96 338.931,1217.2 340.984,1151.83 343.036,1098.25 345.089,1135.16 347.142,980.511 349.195,1317.86 351.248,1472.73 353.301,771.084 355.354,1320.18 357.407,2102.09 359.46,1685.42 361.512,1095.17 363.565,955.966 365.618,1007.28 367.671,1202.95 369.724,1203.05 371.777,1171.63 373.83,1147.44 375.883,1183.87 377.936,1214.9 379.988,1085.85 382.041,1206.77 384.094,1122.82 386.147,1113.44 388.2,1141.64 390.253,1170.82 392.306,1147.52 394.359,1176.73 396.412,1168.16 398.464,1110.89 400.517,1075.19 402.57,1131 404.623,1190.03 406.676,1183.17 408.729,1070.64 410.782,1217.63 412.835,1161.27 414.888,1165.77 416.94,1307.51 418.993,1036.2 421.046,1258.82 423.099,1054.73 425.152,1112.51 427.205,1109.56 429.258,1536.18 431.311,1216.63 433.364,1136.78 435.417,1215.67 437.469,1141.1 439.522,1190.79 441.575,1128.6 443.628,1129.78 445.681,1127.6 447.734,1240.88 449.787,1207.98 451.84,1207.28 453.893,1160.25 455.945,1106.95 457.998,1308.33 460.051,1355.54 462.104,1249.48 464.157,1194.84 466.21,1129.83 468.263,1387.83 470.316,980.216 472.369,1275.71 474.421,1152.89 476.474,1167.37 478.527,1166.9 480.58,1186.06 482.633,1196.99 484.686,996.565 486.739,1172.34 488.792,1179.65 490.845,1168.42 492.897,1186.66 494.95,1118.86 497.003,1158.8 499.056,1132.16 501.109,1076.99 503.162,1444.37 505.215,360.547 507.268,749.352 509.321,1156.71 511.374,1249.37 513.426,1119.49 515.479,1186.53 517.532,1158.51 519.585,1144.23 521.638,1168.35 523.691,1163.4 525.744,1156.21 527.797,1163.58 529.85,1152.03 531.902,1296.39 533.955,997.188 536.008,1126.69 538.061,1193.94 540.114,1136.88 542.167,1138.32 544.22,1160.44 546.273,1198.03 548.326,1215.49 550.378,1121.42 552.431,1134.27 554.484,1183.73 556.537,1152.04 558.59,1024.61 560.643,874.935 562.696,960.872 564.749,1192.91 566.802,1109.26 568.854,1172.18 570.907,1190.53 572.96,1101.8 575.013,1120.08 577.066,1314.27 579.119,966.231 581.172,1161.24 583.225,901.205 585.278,1547.64 587.331,910.382 589.383,1192.63 591.436,1145.24 593.489,1153.29 595.542,1167.18 597.595,1149.49 599.648,1122.82 601.701,1179.39 603.754,1149.14 605.807,1147.07 607.859,1159.3 609.912,1132.23 611.965,1143.36 614.018,1165.91 616.071,1163.82 618.124,1137.43 620.177,1140.99 622.23,1111.1 624.283,1183.47 626.335,1172.06 628.388,1166.99 630.441,1173.37 632.494,1191.2 634.547,1213.52 636.6,1194.74 638.653,1200.87 640.706,1177.94 642.759,1135.69 644.811,1135.62 646.864,1156.78 648.917,1177.6 650.97,1196.28 653.023,1149.07 655.076,1186.97 657.129,1156.3 659.182,1189.03 661.235,1164.1 663.288,1083.82 665.34,1552.78 667.393,1983.15 669.446,851.187 671.499,1058.76 673.552,1019.3 675.605,1058.32 677.658,1056.27 679.711,1177.47 681.764,1092.56 683.816,1221.1 685.869,1192.54 687.922,1036.73 689.975,1134.55 692.028,1144.51 694.081,1147.93 696.134,1134.97 698.187,1149.57 700.24,1159.48 702.292,1158.69 704.345,1152.5 706.398,1158.64 708.451,1164.17 710.504,1158.97 712.557,1174.31 714.61,1142.97 716.663,1184.67 718.716,1123.92 720.768,1141.28 722.821,1153.33 724.874,1241.35 726.927,1141.36 728.98,1145.22 731.033,1191.71 733.086,847.698 735.139,765.314 737.192,890.676 739.245,1095.47 741.297,1230.6 743.35,1055.27 745.403,1110.55 747.456,1194.33 749.509,1202.22 751.562,1161.69 753.615,1179.24 755.668,1075.51 757.721,1279.7 759.773,1228.71 761.826,1225.11 763.879,1190.61 765.932,1176.29 767.985,1154.8 770.038,1286.06 772.091,1161.42 774.144,1362.26 776.197,1232.61 778.249,1074 780.302,1225.18 782.355,1274.21 784.408,1361.51 786.461,1520.84 788.514,1352.65 790.567,1240.6 792.62,1165.98 794.673,1155.26 796.725,1105.6 798.778,1165.52 800.831,1162.28 802.884,1131.16 804.937,1104.83 806.99,1293.75 809.043,1010.13 811.096,1056.89 813.149,1088.65 815.202,1171.18 817.254,1178.38 819.307,1247.5 821.36,1146.47 823.413,1172.26 825.466,1196.72 827.519,1153.44 829.572,1040.85 831.625,850.404 833.678,1961.12 835.73,1043.88 837.783,1173.55 839.836,1135.57 841.889,1029.82 843.942,1193.16 845.995,1166.59 848.048,1191.92 850.101,1199.66 852.154,1317.14 854.206,1309.49 856.259,1233.98 858.312,1062.95 860.365,1216.52 862.418,1163.98 864.471,1162.66 866.524,1192.33 868.577,1348.23 870.63,1238.65 872.682,1198.67 874.735,1207.76 876.788,1155.82 878.841,1173.91 880.894,1196.28 882.947,1156.95 885,1171.18 887.053,1166.44 889.106,1169.75 891.159,1160.86 893.211,1190.27 895.264,1170.94 897.317,1168.29 899.37,1192.6 901.423,1169.54 903.476,1165.45 905.529,1162.73 907.582,1143.13 909.635,1195.11 911.687,1178.62 913.74,1182.85 915.793,1157.61 917.846,1163.23 919.899,1190.08 921.952,1121.14 924.005,1068.01 926.058,1257.43 928.111,1191.31 930.163,1126.23 932.216,1140 934.269,1164.61 936.322,1182.32 938.375,1156.3 940.428,1174.85 942.481,1163.85 944.534,1164.18 946.587,1160.79 948.639,1176.46 950.692,1151.3 952.745,1204.18 954.798,1181.28 956.851,1176.13 958.904,1172.14 960.957,1155.28 963.01,1177.34 965.063,1188.22 967.116,1134.95 969.168,1122.17 971.221,1157.38 973.274,1167.47 975.327,1166.53 977.38,1152.41 979.433,1168.29 981.486,1225.03 983.539,1174.52 985.592,1157.46 987.644,1173.84 989.697,1157.99 991.75,1176.24 993.803,1198.75 995.856,1158.49 997.909,1200.99 999.962,1109.15 1002.01,1190.67 1004.07,1270.45 1006.12,1237.28 1008.17,1223.95 1010.23,1131.07 1012.28,1202.47 1014.33,1182.36 1016.38,1131.94 1018.44,1207.56 1020.49,1193.76 1022.54,1195.66 1024.6,1244.91 1026.65,1089.66 1028.7,1087.07 1030.76,1261.22 1032.81,1178.32 1034.86,1163.51 1036.91,1143.47 1038.97,1210.43 1041.02,1119.81 1043.07,1336.65 1045.13,1089.51 1047.18,844.832 1049.23,1638.87 1051.28,1192.02 1053.34,1175.54 1055.39,1130.53 1057.44,1176.84 1059.5,1122.04 1061.55,1192.89 1063.6,1142.97 1065.65,1156.54 1067.71,1138.58 1069.76,1222.52 1071.81,1168.03 1073.87,1134.67 1075.92,1146.52 1077.97,1152.9 1080.02,1174.23 1082.08,1217.43 1084.13,1152.69 1086.18,1215.86 1088.24,1186.5 1090.29,1092.1 1092.34,1119.02 1094.39,1213.45 1096.45,1054.17 1098.5,1201.5 1100.55,1200.47 1102.61,1369.76 1104.66,1184.87 1106.71,1117.21 1108.77,1186.22 1110.82,1165.07 1112.87,1177.37 1114.92,1184.83 1116.98,1175.75 1119.03,1185.89 1121.08,1145.62 1123.14,1191.23 1125.19,1168.52 1127.24,1181.62 1129.29,1108.67 1131.35,1140.37 1133.4,1138.46 1135.45,1188.52 1137.51,1176.1 1139.56,1295.29 1141.61,1056.57 1143.66,1232.49 1145.72,1029.13 1147.77,1157.16 1149.82,1077.35 1151.88,1171.71 1153.93,1161.14 1155.98,1188.84 1158.03,1156.7 1160.09,1153.77 1162.14,1188.79 1164.19,1192.99 1166.25,1179.69 1168.3,1292.25 1170.35,1170.08 1172.4,1157.87 1174.46,1102.81 1176.51,1152.35 1178.56,1210.49 1180.62,1166.05 1182.67,1140.3 1184.72,1191.76 1186.77,1184.7 1188.83,1193.28 1190.88,1131.48 1192.93,1171.79 1194.99,1510.11 1197.04,933.907 1199.09,1181.11 1201.15,1084.17 1203.2,1169.66 1205.25,1188.08 1207.3,1084.78 1209.36,1248.23 1211.41,1192.73 1213.46,1214.44 1215.52,1196.98 1217.57,1235.77 1219.62,1166.49 1221.67,1168.75 1223.73,1152.79 1225.78,1131.33 1227.83,1157.31 1229.89,1180.52 1231.94,1138.28 1233.99,1158.53 1236.04,1194.41 1238.1,1124.01 1240.15,1159.39 1242.2,1221.16 1244.26,1000.13 1246.31,1269.74 1248.36,1326.75 1250.41,1002.39 1252.47,1091.99 1254.52,1105.34 1256.57,1652.23 1258.63,1628.07 1260.68,918.47 1262.73,1675.47 1264.78,909.466 1266.84,1242.95 1268.89,1287.62 1270.94,1219.2 1273,1233.73 1275.05,1066.65 1277.1,1147.17 1279.16,1189.44 1281.21,1144.32 1283.26,1149.65 1285.31,1157.56 1287.37,1127.58 1289.42,1158.01 1291.47,1179.22 1293.53,1066.58 1295.58,1164.04 1297.63,1262.22 1299.68,1184.71 1301.74,1039.76 1303.79,1218.26 1305.84,1162.97 1307.9,1311.84 1309.95,1075.8 1312,1166.61 1314.05,1190.08 1316.11,1143.36 1318.16,1133.05 1320.21,1220.37 1322.27,1193.39 1324.32,1146.41 1326.37,1376.98 1328.42,1196.58 1330.48,1390.84 1332.53,1263.7 1334.58,1200.91 1336.64,1130.72 1338.69,1254.52 1340.74,1189.43 1342.79,1003.07 1344.85,1070.24 1346.9,1138.29 1348.95,1181.04 1351.01,1154.04 1353.06,1216.99 1355.11,1175.36 1357.16,1151.92 1359.22,1146.08 1361.27,1167.33 1363.32,1164.46 1365.38,1240.83 1367.43,1180.91 1369.48,1176.56 1371.54,1153.4 1373.59,1180.08 1375.64,1219.64 1377.69,1204.72 1379.75,1149.05 1381.8,1133.76 1383.85,1185.36 1385.91,1184.7 1387.96,1205.71 1390.01,1188.15 1392.06,1157.94 1394.12,1174.29 1396.17,1186.5 1398.22,1159.37 1400.28,1071.81 1402.33,1166.25 1404.38,1056.57 1406.43,1238.85 1408.49,1193.19 1410.54,1130.59 1412.59,1122.98 1414.65,1185.83 1416.7,1179.95 1418.75,1153.91 1420.8,1193.68 1422.86,1139.55 1424.91,1297.56 1426.96,1189 1429.02,1275.41 1431.07,1122.05 1433.12,1205.89 1435.17,1126.29 1437.23,1137.47 1439.28,1143.33 1441.33,1282.88 1443.39,1114.3 1445.44,1067.2 1447.49,1197.01 1449.55,1147.47 1451.6,1167.08 1453.65,1214.23 1455.7,1217.95 1457.76,1164.01 1459.81,1160.84 1461.86,1162.61 1463.92,1125.16 1465.97,1108.17 1468.02,1016.33 1470.07,1370.06 1472.13,1278.35 1474.18,1538.57 1476.23,1170.15 1478.29,1100.54 1480.34,1036.35 1482.39,1068.89 1484.44,1152.81 1486.5,1041.2 1488.55,1219.73 1490.6,1212.75 1492.66,1172.85 1494.71,1172.24 1496.76,936.233 1498.81,1205.43 1500.87,1167.49 1502.92,1157.05 1504.97,1155.05 1507.03,1177.62 1509.08,1152.29 1511.13,1174.65 1513.18,3135.35 1515.24,1992.25 1517.29,1700.28 1519.34,534.626 1521.4,-373.247 1523.45,1925.98 1525.5,195.292 1527.55,813.956 1529.61,-520.338 1531.66,3545.91 1533.71,22805.2 1535.77,4274.74 1537.82,-513.681 1539.87,10370 1541.93,-5508.22 1543.98,5753.22 1546.03,1350.19 1548.08,1198.87 1550.14,1180.64 1552.19,1166.76 1554.24,1151.57 1556.3,1229.12 1558.35,1167.31 1560.4,1163.59 1562.45,1186.05 1564.51,1167.39 1566.56,1159.65 1568.61,1163.3 1570.67,1048.96 1572.72,1081.23 1574.77,1449.04 1576.82,1342.36 1578.88,1375.54 1580.93,1452.12 1582.98,1446.73 1585.04,1326.46 1587.09,1206.11 1589.14,1109.77 1591.19,1320.69 1593.25,1466.77 1595.3,1039.62 1597.35,1015.21 1599.41,1124.7 1601.46,1114.28 1603.51,1245.22 1605.56,1226.34 1607.62,1190.27 1609.67,1194.39 1611.72,1170.56 1613.78,1150.73 1615.83,1103.01 1617.88,1271.44 1619.94,1277.85 1621.99,1409.47 1624.04,1056.86 1626.09,1166.2 1628.15,1222.26 1630.2,1166.44 1632.25,1167.41 1634.31,1162.74 1636.36,1187.71 1638.41,1151.22 1640.46,1132.88 1642.52,1160.95 1644.57,1172.43 1646.62,1211.66 1648.68,1244.29 1650.73,1176.56 1652.78,1168.14 1654.83,1161.41 1656.89,1167.01 1658.94,1186.09 1660.99,1109.41 1663.05,1152.49 1665.1,1181.85 1667.15,1159 1669.2,1062.43 1671.26,1018.59 1673.31,1053.66 1675.36,1286.64 1677.42,1085.94 1679.47,1133.34 1681.52,1334.05 1683.57,1195.98 1685.63,1194.65 1687.68,1154.42 1689.73,1175.08 1691.79,1158.75 1693.84,1115.39 1695.89,1203.75 1697.94,1193.3 1700,1145.21 1702.05,1205.31 1704.1,1197.85 1706.16,1193.76 1708.21,1187.73 1710.26,1182.33 1712.32,1178.52 1714.37,1167.26 1716.42,1167.27 1718.47,1143.63 1720.53,1064.15 1722.58,1207.83 1724.63,1157.41 1726.69,1106.37 1728.74,1191.18 1730.79,1219.03 1732.84,1195.59 1734.9,1187.46 1736.95,1186.85 1739,1122.83 1741.06,1199.26 1743.11,1183.48 1745.16,1115.12 1747.21,1004.51 1749.27,1088.48 1751.32,1134 1753.37,1152.43 1755.43,1163.09 1757.48,1158.25 1759.53,1198.85 1761.58,864.144 1763.64,846.915 1765.69,1184.85 1767.74,1139.88 1769.8,1208.33 1771.85,1249.34 1773.9,1068.23 1775.95,1356.55 1778.01,1118.29 1780.06,1236.49 1782.11,1278.63 1784.17,949.837 1786.22,1159.54 1788.27,1218.77 1790.33,1180.03 1792.38,1172.67 1794.43,1150.36 1796.48,1168.36 1798.54,1173.55 1800.59,1211.54 1802.64,1111.12 1804.7,1070.94 1806.75,1243.21 1808.8,1144.99 1810.85,1216.36 1812.91,1093.63 1814.96,1160.85 1817.01,1126.9 1819.07,1140.95 1821.12,1174.96 1823.17,1167.15 1825.22,1188.37 1827.28,1147.73 1829.33,1131.93 1831.38,1158.54 1833.44,1111.13 1835.49,1184.3 1837.54,1125.37 1839.59,1202.36 1841.65,1221.27 1843.7,1109.68 1845.75,1161.3 1847.81,1149.64 1849.86,1165.97 1851.91,1173.13 1853.96,1193.11 1856.02,1254.49 1858.07,1262.26 1860.12,1149.05 1862.18,1149.1 1864.23,1139.84 1866.28,1158.76 1868.34,1172.52 1870.39,1121 1872.44,1573.09 1874.49,742.419 1876.55,1483.87 1878.6,7547.36 1880.65,2583.14 1882.71,1136.03 1884.76,1251.88 1886.81,1201.17 1888.86,1182.89 1890.92,1171.95 1892.97,1092.98 1895.02,1173.58 1897.08,1235.94 1899.13,1124.69 1901.18,1171.58 1903.23,1068.86 1905.29,1401.93 1907.34,1202.32 1909.39,1164.56 1911.45,1065.88 1913.5,1663.49 1915.55,1693 1917.6,992.303 1919.66,1059.93 1921.71,1365.64 1923.76,1424.74 1925.82,1136.85 1927.87,1161.38 1929.92,1231.08 1931.97,1098.29 1934.03,1177.16 1936.08,1176.02 1938.13,1162.83 1940.19,997.474 1942.24,1081.4 1944.29,1195.38 1946.34,1206.47 1948.4,1188.68 1950.45,1046.75 1952.5,1215.97 1954.56,1205.55 1956.61,1218.33 1958.66,1131.63 1960.72,1136.57 1962.77,1174.6 1964.82,1154.68 1966.87,1160.02 1968.93,1170.21 1970.98,1213.2 1973.03,1166.55 1975.09,1082.13 1977.14,1298.73 1979.19,1338.48 1981.24,1058.42 1983.3,1136.14 1985.35,1122.6 1987.4,1115.36 1989.46,1070.98 1991.51,1136.88 1993.56,1190.81 1995.61,567.799 1997.67,1036.12 1999.72,1350.64 2001.77,1089.27 2003.83,1190.97 2005.88,1125.43 2007.93,1124.75 2009.98,1202.49 2012.04,1256.81 2014.09,1121.83 2016.14,1207.37 2018.2,1156.29 2020.25,1155.53 2022.3,1265.88 2024.35,992.089 2026.41,880.758 2028.46,1547.88 2030.51,1302.62 2032.57,1304.32 2034.62,1158.04 2036.67,1174.04 2038.73,1152.46 2040.78,1213.85 2042.83,1295.5 2044.88,1134.39 2046.94,1124.91 2048.99,1198.57 2051.04,1222.2 2053.1,1445.42 2055.15,1176.22 2057.2,1164.75 2059.25,1155.25 2061.31,1185.15 2063.36,1166.18 2065.41,1150.59 2067.47,1173.51 2069.52,1158.26 2071.57,1182.73 2073.62,1118.33 2075.68,1131.91 2077.73,1136.6 2079.78,1144.61 2081.84,1183.73 2083.89,1169.1 2085.94,1144.52 2087.99,1136.53 2090.05,839.623 2092.1,828.537 2094.15,1170.26 2096.21,1261.27 2098.26,1066.75 2100.31,1163.73 2102.36,1207.41 2104.42,1148.17 2106.47,1185.55 2108.52,1181.86 2110.58,1175.64 2112.63,1188.19 2114.68,1161.58 2116.73,1151.77 2118.79,1165.22 2120.84,1174.52 2122.89,1146.33 2124.95,1255.92 2127,1169.78 2129.05,1145.81 2131.11,1181.91 2133.16,1201.06 2135.21,1171.68 2137.26,1130.82 2139.32,1288.12 2141.37,1191.41 2143.42,1183.04 2145.48,1160.09 2147.53,1193.82 2149.58,1143.18 2151.63,1162.99 2153.69,1172.15 2155.74,1182.71 2157.79,1169.77 2159.85,1170.29 2161.9,1156.41 2163.95,1177.46 2166,1219.79 2168.06,1151.81 2170.11,1131.82 2172.16,1187.9 2174.22,1162.1 2176.27,1127.39 2178.32,1174.77 2180.37,1146.76 2182.43,1153.16 2184.48,1159.11 2186.53,1177.67 2188.59,999.511 2190.64,1271.6 2192.69,1411.04 2194.74,1219.67 2196.8,1111.71 2198.85,1287.04 2200.9,1328.59 2202.96,1147.53 2205.01,1112.75 2207.06,1162.89 2209.12,1151.23 2211.17,1147.73 2213.22,1171.23 2215.27,1185.95 2217.33,1177.17 2219.38,1139.07 2221.43,968.919 2223.49,1148.12 2225.54,1024.87 2227.59,1122.12 2229.64,1202.2 2231.7,1157.92 2233.75,1161.39 2235.8,1190.48 2237.86,1186.65 2239.91,1117.21 2241.96,1232.94 2244.01,1215.96 2246.07,1226.96 2248.12,1036.19 2250.17,1133.32 2252.23,1178.97 2254.28,1164.32 2256.33,1153 2258.38,1116.74 2260.44,1117.09 2262.49,1131.77 2264.54,1189.07 2266.6,1124.27 2268.65,1201.94 2270.7,1222.93 2272.75,1279.28 2274.81,1109.31 2276.86,1099.83 2278.91,1192.9 2280.97,1159.98 2283.02,1185.41 2285.07,1149.93 2287.12,1157.26 2289.18,1161.22 2291.23,1207.63 "/>
<path clip-path="url(#clip260)" d="M1942.7 972.231 L2280.29 972.231 L2280.29 868.551 L1942.7 868.551  Z" fill="#ffffff" fill-rule="evenodd" fill-opacity="1"/>
<polyline clip-path="url(#clip260)" style="stroke:#000000; stroke-linecap:round; stroke-linejoin:round; stroke-width:4; stroke-opacity:1; fill:none" points="1942.7,972.231 2280.29,972.231 2280.29,868.551 1942.7,868.551 1942.7,972.231 "/>
<polyline clip-path="url(#clip260)" style="stroke:#009af9; stroke-linecap:round; stroke-linejoin:round; stroke-width:4; stroke-opacity:1; fill:none" points="1966.85,920.391 2111.78,920.391 "/>
<path clip-path="url(#clip260)" d="M2161.49 932.74 L2161.49 923.458 L2153.85 923.458 L2153.85 919.615 L2166.12 919.615 L2166.12 934.453 Q2163.41 936.375 2160.14 937.37 Q2156.88 938.342 2153.18 938.342 Q2145.07 938.342 2140.49 933.62 Q2135.93 928.875 2135.93 920.426 Q2135.93 911.953 2140.49 907.231 Q2145.07 902.486 2153.18 902.486 Q2156.56 902.486 2159.59 903.319 Q2162.64 904.153 2165.21 905.773 L2165.21 910.75 Q2162.62 908.551 2159.7 907.44 Q2156.79 906.328 2153.57 906.328 Q2147.23 906.328 2144.03 909.87 Q2140.86 913.412 2140.86 920.426 Q2140.86 927.416 2144.03 930.958 Q2147.23 934.5 2153.57 934.5 Q2156.05 934.5 2157.99 934.083 Q2159.94 933.643 2161.49 932.74 Z" fill="#000000" fill-rule="nonzero" fill-opacity="1" /><path clip-path="url(#clip260)" d="M2179.33 906.953 L2179.33 919.94 L2185.21 919.94 Q2188.48 919.94 2190.26 918.25 Q2192.04 916.56 2192.04 913.435 Q2192.04 910.333 2190.26 908.643 Q2188.48 906.953 2185.21 906.953 L2179.33 906.953 M2174.66 903.111 L2185.21 903.111 Q2191.02 903.111 2193.99 905.75 Q2196.97 908.365 2196.97 913.435 Q2196.97 918.551 2193.99 921.166 Q2191.02 923.782 2185.21 923.782 L2179.33 923.782 L2179.33 937.671 L2174.66 937.671 L2174.66 903.111 Z" fill="#000000" fill-rule="nonzero" fill-opacity="1" /><path clip-path="url(#clip260)" d="M2223.96 904.245 L2223.96 908.805 Q2221.3 907.532 2218.94 906.907 Q2216.58 906.282 2214.38 906.282 Q2210.56 906.282 2208.48 907.764 Q2206.42 909.245 2206.42 911.977 Q2206.42 914.268 2207.78 915.449 Q2209.17 916.606 2213.01 917.324 L2215.84 917.902 Q2221.07 918.898 2223.55 921.421 Q2226.05 923.921 2226.05 928.134 Q2226.05 933.157 2222.67 935.75 Q2219.31 938.342 2212.81 938.342 Q2210.35 938.342 2207.57 937.787 Q2204.82 937.231 2201.86 936.143 L2201.86 931.328 Q2204.7 932.926 2207.44 933.736 Q2210.17 934.546 2212.81 934.546 Q2216.81 934.546 2218.99 932.972 Q2221.16 931.398 2221.16 928.481 Q2221.16 925.935 2219.59 924.5 Q2218.04 923.064 2214.47 922.347 L2211.62 921.791 Q2206.39 920.75 2204.06 918.527 Q2201.72 916.305 2201.72 912.347 Q2201.72 907.764 2204.94 905.125 Q2208.18 902.486 2213.85 902.486 Q2216.28 902.486 2218.8 902.926 Q2221.32 903.366 2223.96 904.245 Z" fill="#000000" fill-rule="nonzero" fill-opacity="1" /><path clip-path="url(#clip260)" d="M2254.06 904.245 L2254.06 908.805 Q2251.39 907.532 2249.03 906.907 Q2246.67 906.282 2244.47 906.282 Q2240.65 906.282 2238.57 907.764 Q2236.51 909.245 2236.51 911.977 Q2236.51 914.268 2237.87 915.449 Q2239.26 916.606 2243.11 917.324 L2245.93 917.902 Q2251.16 918.898 2253.64 921.421 Q2256.14 923.921 2256.14 928.134 Q2256.14 933.157 2252.76 935.75 Q2249.4 938.342 2242.9 938.342 Q2240.44 938.342 2237.67 937.787 Q2234.91 937.231 2231.95 936.143 L2231.95 931.328 Q2234.8 932.926 2237.53 933.736 Q2240.26 934.546 2242.9 934.546 Q2246.9 934.546 2249.08 932.972 Q2251.25 931.398 2251.25 928.481 Q2251.25 925.935 2249.68 924.5 Q2248.13 923.064 2244.56 922.347 L2241.72 921.791 Q2236.49 920.75 2234.15 918.527 Q2231.81 916.305 2231.81 912.347 Q2231.81 907.764 2235.03 905.125 Q2238.27 902.486 2243.94 902.486 Q2246.37 902.486 2248.89 902.926 Q2251.42 903.366 2254.06 904.245 Z" fill="#000000" fill-rule="nonzero" fill-opacity="1" /></svg>
