<?xml version="1.0" encoding="utf-8"?>
<svg xmlns="http://www.w3.org/2000/svg" xmlns:xlink="http://www.w3.org/1999/xlink" width="600" height="400" viewBox="0 0 2400 1600">
<defs>
  <clipPath id="clip840">
    <rect x="0" y="0" width="2400" height="1600"/>
  </clipPath>
</defs>
<path clip-path="url(#clip840)" d="M0 1600 L2400 1600 L2400 0 L0 0  Z" fill="#ffffff" fill-rule="evenodd" fill-opacity="1"/>
<defs>
  <clipPath id="clip841">
    <rect x="480" y="0" width="1681" height="1600"/>
  </clipPath>
</defs>
<path clip-path="url(#clip840)" d="M178.867 686.448 L2352.76 686.448 L2352.76 47.2441 L178.867 47.2441  Z" fill="#ffffff" fill-rule="evenodd" fill-opacity="1"/>
<defs>
  <clipPath id="clip842">
    <rect x="178" y="47" width="2175" height="640"/>
  </clipPath>
</defs>
<polyline clip-path="url(#clip842)" style="stroke:#000000; stroke-linecap:round; stroke-linejoin:round; stroke-width:2; stroke-opacity:0.1; fill:none" points="238.339,686.448 238.339,47.2441 "/>
<polyline clip-path="url(#clip842)" style="stroke:#000000; stroke-linecap:round; stroke-linejoin:round; stroke-width:2; stroke-opacity:0.1; fill:none" points="751.562,686.448 751.562,47.2441 "/>
<polyline clip-path="url(#clip842)" style="stroke:#000000; stroke-linecap:round; stroke-linejoin:round; stroke-width:2; stroke-opacity:0.1; fill:none" points="1264.78,686.448 1264.78,47.2441 "/>
<polyline clip-path="url(#clip842)" style="stroke:#000000; stroke-linecap:round; stroke-linejoin:round; stroke-width:2; stroke-opacity:0.1; fill:none" points="1778.01,686.448 1778.01,47.2441 "/>
<polyline clip-path="url(#clip842)" style="stroke:#000000; stroke-linecap:round; stroke-linejoin:round; stroke-width:2; stroke-opacity:0.1; fill:none" points="2291.23,686.448 2291.23,47.2441 "/>
<polyline clip-path="url(#clip842)" style="stroke:#000000; stroke-linecap:round; stroke-linejoin:round; stroke-width:2; stroke-opacity:0.1; fill:none" points="178.867,686.448 2352.76,686.448 "/>
<polyline clip-path="url(#clip842)" style="stroke:#000000; stroke-linecap:round; stroke-linejoin:round; stroke-width:2; stroke-opacity:0.1; fill:none" points="178.867,526.647 2352.76,526.647 "/>
<polyline clip-path="url(#clip842)" style="stroke:#000000; stroke-linecap:round; stroke-linejoin:round; stroke-width:2; stroke-opacity:0.1; fill:none" points="178.867,366.846 2352.76,366.846 "/>
<polyline clip-path="url(#clip842)" style="stroke:#000000; stroke-linecap:round; stroke-linejoin:round; stroke-width:2; stroke-opacity:0.1; fill:none" points="178.867,207.045 2352.76,207.045 "/>
<polyline clip-path="url(#clip842)" style="stroke:#000000; stroke-linecap:round; stroke-linejoin:round; stroke-width:2; stroke-opacity:0.1; fill:none" points="178.867,47.2441 2352.76,47.2441 "/>
<polyline clip-path="url(#clip840)" style="stroke:#000000; stroke-linecap:round; stroke-linejoin:round; stroke-width:4; stroke-opacity:1; fill:none" points="178.867,686.448 2352.76,686.448 "/>
<polyline clip-path="url(#clip840)" style="stroke:#000000; stroke-linecap:round; stroke-linejoin:round; stroke-width:4; stroke-opacity:1; fill:none" points="238.339,686.448 238.339,667.55 "/>
<polyline clip-path="url(#clip840)" style="stroke:#000000; stroke-linecap:round; stroke-linejoin:round; stroke-width:4; stroke-opacity:1; fill:none" points="751.562,686.448 751.562,667.55 "/>
<polyline clip-path="url(#clip840)" style="stroke:#000000; stroke-linecap:round; stroke-linejoin:round; stroke-width:4; stroke-opacity:1; fill:none" points="1264.78,686.448 1264.78,667.55 "/>
<polyline clip-path="url(#clip840)" style="stroke:#000000; stroke-linecap:round; stroke-linejoin:round; stroke-width:4; stroke-opacity:1; fill:none" points="1778.01,686.448 1778.01,667.55 "/>
<polyline clip-path="url(#clip840)" style="stroke:#000000; stroke-linecap:round; stroke-linejoin:round; stroke-width:4; stroke-opacity:1; fill:none" points="2291.23,686.448 2291.23,667.55 "/>
<path clip-path="url(#clip840)" d="M238.339 717.367 Q234.728 717.367 232.899 720.931 Q231.094 724.473 231.094 731.603 Q231.094 738.709 232.899 742.274 Q234.728 745.815 238.339 745.815 Q241.973 745.815 243.779 742.274 Q245.607 738.709 245.607 731.603 Q245.607 724.473 243.779 720.931 Q241.973 717.367 238.339 717.367 M238.339 713.663 Q244.149 713.663 247.205 718.269 Q250.283 722.853 250.283 731.603 Q250.283 740.329 247.205 744.936 Q244.149 749.519 238.339 749.519 Q232.529 749.519 229.45 744.936 Q226.395 740.329 226.395 731.603 Q226.395 722.853 229.45 718.269 Q232.529 713.663 238.339 713.663 Z" fill="#000000" fill-rule="nonzero" fill-opacity="1" /><path clip-path="url(#clip840)" d="M715.254 744.913 L731.574 744.913 L731.574 748.848 L709.629 748.848 L709.629 744.913 Q712.291 742.158 716.875 737.528 Q721.481 732.876 722.662 731.533 Q724.907 729.01 725.787 727.274 Q726.689 725.515 726.689 723.825 Q726.689 721.07 724.745 719.334 Q722.824 717.598 719.722 717.598 Q717.523 717.598 715.069 718.362 Q712.638 719.126 709.861 720.677 L709.861 715.955 Q712.685 714.82 715.138 714.242 Q717.592 713.663 719.629 713.663 Q725 713.663 728.194 716.348 Q731.388 719.033 731.388 723.524 Q731.388 725.654 730.578 727.575 Q729.791 729.473 727.685 732.066 Q727.106 732.737 724.004 735.954 Q720.902 739.149 715.254 744.913 Z" fill="#000000" fill-rule="nonzero" fill-opacity="1" /><path clip-path="url(#clip840)" d="M741.435 714.288 L759.791 714.288 L759.791 718.223 L745.717 718.223 L745.717 726.695 Q746.736 726.348 747.754 726.186 Q748.773 726.001 749.791 726.001 Q755.578 726.001 758.958 729.172 Q762.337 732.343 762.337 737.76 Q762.337 743.339 758.865 746.44 Q755.393 749.519 749.073 749.519 Q746.898 749.519 744.629 749.149 Q742.384 748.778 739.976 748.038 L739.976 743.339 Q742.06 744.473 744.282 745.028 Q746.504 745.584 748.981 745.584 Q752.985 745.584 755.323 743.478 Q757.661 741.371 757.661 737.76 Q757.661 734.149 755.323 732.042 Q752.985 729.936 748.981 729.936 Q747.106 729.936 745.231 730.353 Q743.379 730.769 741.435 731.649 L741.435 714.288 Z" fill="#000000" fill-rule="nonzero" fill-opacity="1" /><path clip-path="url(#clip840)" d="M781.55 717.367 Q777.939 717.367 776.11 720.931 Q774.305 724.473 774.305 731.603 Q774.305 738.709 776.11 742.274 Q777.939 745.815 781.55 745.815 Q785.184 745.815 786.99 742.274 Q788.819 738.709 788.819 731.603 Q788.819 724.473 786.99 720.931 Q785.184 717.367 781.55 717.367 M781.55 713.663 Q787.36 713.663 790.416 718.269 Q793.495 722.853 793.495 731.603 Q793.495 740.329 790.416 744.936 Q787.36 749.519 781.55 749.519 Q775.74 749.519 772.661 744.936 Q769.606 740.329 769.606 731.603 Q769.606 722.853 772.661 718.269 Q775.74 713.663 781.55 713.663 Z" fill="#000000" fill-rule="nonzero" fill-opacity="1" /><path clip-path="url(#clip840)" d="M1224.4 714.288 L1242.76 714.288 L1242.76 718.223 L1228.69 718.223 L1228.69 726.695 Q1229.7 726.348 1230.72 726.186 Q1231.74 726.001 1232.76 726.001 Q1238.55 726.001 1241.93 729.172 Q1245.31 732.343 1245.31 737.76 Q1245.31 743.339 1241.83 746.44 Q1238.36 749.519 1232.04 749.519 Q1229.87 749.519 1227.6 749.149 Q1225.35 748.778 1222.94 748.038 L1222.94 743.339 Q1225.03 744.473 1227.25 745.028 Q1229.47 745.584 1231.95 745.584 Q1235.95 745.584 1238.29 743.478 Q1240.63 741.371 1240.63 737.76 Q1240.63 734.149 1238.29 732.042 Q1235.95 729.936 1231.95 729.936 Q1230.07 729.936 1228.2 730.353 Q1226.35 730.769 1224.4 731.649 L1224.4 714.288 Z" fill="#000000" fill-rule="nonzero" fill-opacity="1" /><path clip-path="url(#clip840)" d="M1264.52 717.367 Q1260.91 717.367 1259.08 720.931 Q1257.27 724.473 1257.27 731.603 Q1257.27 738.709 1259.08 742.274 Q1260.91 745.815 1264.52 745.815 Q1268.15 745.815 1269.96 742.274 Q1271.79 738.709 1271.79 731.603 Q1271.79 724.473 1269.96 720.931 Q1268.15 717.367 1264.52 717.367 M1264.52 713.663 Q1270.33 713.663 1273.38 718.269 Q1276.46 722.853 1276.46 731.603 Q1276.46 740.329 1273.38 744.936 Q1270.33 749.519 1264.52 749.519 Q1258.71 749.519 1255.63 744.936 Q1252.57 740.329 1252.57 731.603 Q1252.57 722.853 1255.63 718.269 Q1258.71 713.663 1264.52 713.663 Z" fill="#000000" fill-rule="nonzero" fill-opacity="1" /><path clip-path="url(#clip840)" d="M1294.68 717.367 Q1291.07 717.367 1289.24 720.931 Q1287.44 724.473 1287.44 731.603 Q1287.44 738.709 1289.24 742.274 Q1291.07 745.815 1294.68 745.815 Q1298.31 745.815 1300.12 742.274 Q1301.95 738.709 1301.95 731.603 Q1301.95 724.473 1300.12 720.931 Q1298.31 717.367 1294.68 717.367 M1294.68 713.663 Q1300.49 713.663 1303.55 718.269 Q1306.62 722.853 1306.62 731.603 Q1306.62 740.329 1303.55 744.936 Q1300.49 749.519 1294.68 749.519 Q1288.87 749.519 1285.79 744.936 Q1282.74 740.329 1282.74 731.603 Q1282.74 722.853 1285.79 718.269 Q1288.87 713.663 1294.68 713.663 Z" fill="#000000" fill-rule="nonzero" fill-opacity="1" /><path clip-path="url(#clip840)" d="M1736.28 714.288 L1758.51 714.288 L1758.51 716.279 L1745.96 748.848 L1741.08 748.848 L1752.88 718.223 L1736.28 718.223 L1736.28 714.288 Z" fill="#000000" fill-rule="nonzero" fill-opacity="1" /><path clip-path="url(#clip840)" d="M1767.67 714.288 L1786.03 714.288 L1786.03 718.223 L1771.95 718.223 L1771.95 726.695 Q1772.97 726.348 1773.99 726.186 Q1775.01 726.001 1776.03 726.001 Q1781.82 726.001 1785.2 729.172 Q1788.57 732.343 1788.57 737.76 Q1788.57 743.339 1785.1 746.44 Q1781.63 749.519 1775.31 749.519 Q1773.14 749.519 1770.87 749.149 Q1768.62 748.778 1766.21 748.038 L1766.21 743.339 Q1768.3 744.473 1770.52 745.028 Q1772.74 745.584 1775.22 745.584 Q1779.22 745.584 1781.56 743.478 Q1783.9 741.371 1783.9 737.76 Q1783.9 734.149 1781.56 732.042 Q1779.22 729.936 1775.22 729.936 Q1773.34 729.936 1771.47 730.353 Q1769.62 730.769 1767.67 731.649 L1767.67 714.288 Z" fill="#000000" fill-rule="nonzero" fill-opacity="1" /><path clip-path="url(#clip840)" d="M1807.79 717.367 Q1804.18 717.367 1802.35 720.931 Q1800.54 724.473 1800.54 731.603 Q1800.54 738.709 1802.35 742.274 Q1804.18 745.815 1807.79 745.815 Q1811.42 745.815 1813.23 742.274 Q1815.06 738.709 1815.06 731.603 Q1815.06 724.473 1813.23 720.931 Q1811.42 717.367 1807.79 717.367 M1807.79 713.663 Q1813.6 713.663 1816.65 718.269 Q1819.73 722.853 1819.73 731.603 Q1819.73 740.329 1816.65 744.936 Q1813.6 749.519 1807.79 749.519 Q1801.98 749.519 1798.9 744.936 Q1795.84 740.329 1795.84 731.603 Q1795.84 722.853 1798.9 718.269 Q1801.98 713.663 1807.79 713.663 Z" fill="#000000" fill-rule="nonzero" fill-opacity="1" /><path clip-path="url(#clip840)" d="M2235.76 744.913 L2243.4 744.913 L2243.4 718.547 L2235.09 720.214 L2235.09 715.955 L2243.35 714.288 L2248.02 714.288 L2248.02 744.913 L2255.66 744.913 L2255.66 748.848 L2235.76 748.848 L2235.76 744.913 Z" fill="#000000" fill-rule="nonzero" fill-opacity="1" /><path clip-path="url(#clip840)" d="M2275.11 717.367 Q2271.5 717.367 2269.67 720.931 Q2267.86 724.473 2267.86 731.603 Q2267.86 738.709 2269.67 742.274 Q2271.5 745.815 2275.11 745.815 Q2278.74 745.815 2280.55 742.274 Q2282.38 738.709 2282.38 731.603 Q2282.38 724.473 2280.55 720.931 Q2278.74 717.367 2275.11 717.367 M2275.11 713.663 Q2280.92 713.663 2283.97 718.269 Q2287.05 722.853 2287.05 731.603 Q2287.05 740.329 2283.97 744.936 Q2280.92 749.519 2275.11 749.519 Q2269.3 749.519 2266.22 744.936 Q2263.16 740.329 2263.16 731.603 Q2263.16 722.853 2266.22 718.269 Q2269.3 713.663 2275.11 713.663 Z" fill="#000000" fill-rule="nonzero" fill-opacity="1" /><path clip-path="url(#clip840)" d="M2305.27 717.367 Q2301.66 717.367 2299.83 720.931 Q2298.02 724.473 2298.02 731.603 Q2298.02 738.709 2299.83 742.274 Q2301.66 745.815 2305.27 745.815 Q2308.9 745.815 2310.71 742.274 Q2312.54 738.709 2312.54 731.603 Q2312.54 724.473 2310.71 720.931 Q2308.9 717.367 2305.27 717.367 M2305.27 713.663 Q2311.08 713.663 2314.14 718.269 Q2317.21 722.853 2317.21 731.603 Q2317.21 740.329 2314.14 744.936 Q2311.08 749.519 2305.27 749.519 Q2299.46 749.519 2296.38 744.936 Q2293.33 740.329 2293.33 731.603 Q2293.33 722.853 2296.38 718.269 Q2299.46 713.663 2305.27 713.663 Z" fill="#000000" fill-rule="nonzero" fill-opacity="1" /><path clip-path="url(#clip840)" d="M2335.43 717.367 Q2331.82 717.367 2329.99 720.931 Q2328.19 724.473 2328.19 731.603 Q2328.19 738.709 2329.99 742.274 Q2331.82 745.815 2335.43 745.815 Q2339.07 745.815 2340.87 742.274 Q2342.7 738.709 2342.7 731.603 Q2342.7 724.473 2340.87 720.931 Q2339.07 717.367 2335.43 717.367 M2335.43 713.663 Q2341.24 713.663 2344.3 718.269 Q2347.38 722.853 2347.38 731.603 Q2347.38 740.329 2344.3 744.936 Q2341.24 749.519 2335.43 749.519 Q2329.62 749.519 2326.54 744.936 Q2323.49 740.329 2323.49 731.603 Q2323.49 722.853 2326.54 718.269 Q2329.62 713.663 2335.43 713.663 Z" fill="#000000" fill-rule="nonzero" fill-opacity="1" /><polyline clip-path="url(#clip840)" style="stroke:#000000; stroke-linecap:round; stroke-linejoin:round; stroke-width:4; stroke-opacity:1; fill:none" points="178.867,686.448 178.867,47.2441 "/>
<polyline clip-path="url(#clip840)" style="stroke:#000000; stroke-linecap:round; stroke-linejoin:round; stroke-width:4; stroke-opacity:1; fill:none" points="178.867,686.448 197.764,686.448 "/>
<polyline clip-path="url(#clip840)" style="stroke:#000000; stroke-linecap:round; stroke-linejoin:round; stroke-width:4; stroke-opacity:1; fill:none" points="178.867,526.647 197.764,526.647 "/>
<polyline clip-path="url(#clip840)" style="stroke:#000000; stroke-linecap:round; stroke-linejoin:round; stroke-width:4; stroke-opacity:1; fill:none" points="178.867,366.846 197.764,366.846 "/>
<polyline clip-path="url(#clip840)" style="stroke:#000000; stroke-linecap:round; stroke-linejoin:round; stroke-width:4; stroke-opacity:1; fill:none" points="178.867,207.045 197.764,207.045 "/>
<polyline clip-path="url(#clip840)" style="stroke:#000000; stroke-linecap:round; stroke-linejoin:round; stroke-width:4; stroke-opacity:1; fill:none" points="178.867,47.2441 197.764,47.2441 "/>
<path clip-path="url(#clip840)" d="M50.9921 686.899 L80.6679 686.899 L80.6679 690.834 L50.9921 690.834 L50.9921 686.899 Z" fill="#000000" fill-rule="nonzero" fill-opacity="1" /><path clip-path="url(#clip840)" d="M91.5706 699.793 L99.2095 699.793 L99.2095 673.427 L90.8993 675.094 L90.8993 670.835 L99.1632 669.168 L103.839 669.168 L103.839 699.793 L111.478 699.793 L111.478 703.728 L91.5706 703.728 L91.5706 699.793 Z" fill="#000000" fill-rule="nonzero" fill-opacity="1" /><path clip-path="url(#clip840)" d="M130.922 672.247 Q127.311 672.247 125.482 675.811 Q123.677 679.353 123.677 686.483 Q123.677 693.589 125.482 697.154 Q127.311 700.695 130.922 700.695 Q134.556 700.695 136.362 697.154 Q138.191 693.589 138.191 686.483 Q138.191 679.353 136.362 675.811 Q134.556 672.247 130.922 672.247 M130.922 668.543 Q136.732 668.543 139.788 673.149 Q142.867 677.733 142.867 686.483 Q142.867 695.209 139.788 699.816 Q136.732 704.399 130.922 704.399 Q125.112 704.399 122.033 699.816 Q118.978 695.209 118.978 686.483 Q118.978 677.733 122.033 673.149 Q125.112 668.543 130.922 668.543 Z" fill="#000000" fill-rule="nonzero" fill-opacity="1" /><path clip-path="url(#clip840)" d="M82.1494 527.098 L111.825 527.098 L111.825 531.033 L82.1494 531.033 L82.1494 527.098 Z" fill="#000000" fill-rule="nonzero" fill-opacity="1" /><path clip-path="url(#clip840)" d="M121.964 509.367 L140.32 509.367 L140.32 513.302 L126.246 513.302 L126.246 521.774 Q127.265 521.427 128.283 521.265 Q129.302 521.08 130.32 521.08 Q136.107 521.08 139.487 524.251 Q142.867 527.422 142.867 532.839 Q142.867 538.418 139.394 541.52 Q135.922 544.598 129.603 544.598 Q127.427 544.598 125.158 544.228 Q122.913 543.857 120.506 543.117 L120.506 538.418 Q122.589 539.552 124.811 540.108 Q127.033 540.663 129.51 540.663 Q133.515 540.663 135.853 538.557 Q138.191 536.45 138.191 532.839 Q138.191 529.228 135.853 527.121 Q133.515 525.015 129.51 525.015 Q127.635 525.015 125.76 525.432 Q123.908 525.848 121.964 526.728 L121.964 509.367 Z" fill="#000000" fill-rule="nonzero" fill-opacity="1" /><path clip-path="url(#clip840)" d="M130.922 352.645 Q127.311 352.645 125.482 356.209 Q123.677 359.751 123.677 366.881 Q123.677 373.987 125.482 377.552 Q127.311 381.094 130.922 381.094 Q134.556 381.094 136.362 377.552 Q138.191 373.987 138.191 366.881 Q138.191 359.751 136.362 356.209 Q134.556 352.645 130.922 352.645 M130.922 348.941 Q136.732 348.941 139.788 353.547 Q142.867 358.131 142.867 366.881 Q142.867 375.608 139.788 380.214 Q136.732 384.797 130.922 384.797 Q125.112 384.797 122.033 380.214 Q118.978 375.608 118.978 366.881 Q118.978 358.131 122.033 353.547 Q125.112 348.941 130.922 348.941 Z" fill="#000000" fill-rule="nonzero" fill-opacity="1" /><path clip-path="url(#clip840)" d="M121.964 189.765 L140.32 189.765 L140.32 193.7 L126.246 193.7 L126.246 202.172 Q127.265 201.825 128.283 201.663 Q129.302 201.478 130.32 201.478 Q136.107 201.478 139.487 204.649 Q142.867 207.82 142.867 213.237 Q142.867 218.816 139.394 221.918 Q135.922 224.996 129.603 224.996 Q127.427 224.996 125.158 224.626 Q122.913 224.256 120.506 223.515 L120.506 218.816 Q122.589 219.95 124.811 220.506 Q127.033 221.061 129.51 221.061 Q133.515 221.061 135.853 218.955 Q138.191 216.848 138.191 213.237 Q138.191 209.626 135.853 207.52 Q133.515 205.413 129.51 205.413 Q127.635 205.413 125.76 205.83 Q123.908 206.246 121.964 207.126 L121.964 189.765 Z" fill="#000000" fill-rule="nonzero" fill-opacity="1" /><path clip-path="url(#clip840)" d="M91.5706 60.5889 L99.2095 60.5889 L99.2095 34.2233 L90.8993 35.89 L90.8993 31.6308 L99.1632 29.9641 L103.839 29.9641 L103.839 60.5889 L111.478 60.5889 L111.478 64.5241 L91.5706 64.5241 L91.5706 60.5889 Z" fill="#000000" fill-rule="nonzero" fill-opacity="1" /><path clip-path="url(#clip840)" d="M130.922 33.0428 Q127.311 33.0428 125.482 36.6076 Q123.677 40.1492 123.677 47.2788 Q123.677 54.3853 125.482 57.9501 Q127.311 61.4917 130.922 61.4917 Q134.556 61.4917 136.362 57.9501 Q138.191 54.3853 138.191 47.2788 Q138.191 40.1492 136.362 36.6076 Q134.556 33.0428 130.922 33.0428 M130.922 29.3391 Q136.732 29.3391 139.788 33.9456 Q142.867 38.5289 142.867 47.2788 Q142.867 56.0056 139.788 60.6121 Q136.732 65.1954 130.922 65.1954 Q125.112 65.1954 122.033 60.6121 Q118.978 56.0056 118.978 47.2788 Q118.978 38.5289 122.033 33.9456 Q125.112 29.3391 130.922 29.3391 Z" fill="#000000" fill-rule="nonzero" fill-opacity="1" /><polyline clip-path="url(#clip842)" style="stroke:#009af9; stroke-linecap:round; stroke-linejoin:round; stroke-width:4; stroke-opacity:1; fill:none" points="240.392,334.886 242.445,334.961 244.498,334.987 246.55,332.597 248.603,334.977 250.656,334.584 252.709,351.623 254.762,350.485 256.815,349.436 258.868,341.267 260.921,346.197 262.974,390.697 265.027,374.85 267.079,374.494 269.132,374.532 271.185,375.203 273.238,377.111 275.291,374.827 277.344,379.689 279.397,362.864 281.45,359.154 283.503,358.444 285.555,346.805 287.608,348.977 289.661,348.978 291.714,345.187 293.767,345.258 295.82,353.096 297.873,352.765 299.926,335.145 301.979,296.78 304.031,295.233 306.084,363.935 308.137,363.861 310.19,360.513 312.243,357.547 314.296,352.367 316.349,425.687 318.402,433.452 320.455,432.141 322.507,428.991 324.56,428.929 326.613,446.449 328.666,445.661 330.719,445.645 332.772,456.009 334.825,428.064 336.878,398.512 338.931,389.276 340.984,400.677 343.036,389.415 345.089,375.892 347.142,385.752 349.195,386.456 351.248,441.625 353.301,462.545 355.354,466.643 357.407,496.758 359.46,497.364 361.512,534.298 363.565,533.323 365.618,400.431 367.671,392.695 369.724,378.211 371.777,333.508 373.83,334.013 375.883,335.802 377.936,334.948 379.988,265.381 382.041,265.515 384.094,368.22 386.147,366.902 388.2,319.653 390.253,319.857 392.306,318.871 394.359,295.003 396.412,262.379 398.464,257.6 400.517,285.852 402.57,295.649 404.623,248.754 406.676,300.577 408.729,404.061 410.782,405.064 412.835,404.996 414.888,404.689 416.94,407.9 418.993,388.324 421.046,416.411 423.099,414.763 425.152,422.662 427.205,425.701 429.258,406.25 431.311,407.944 433.364,298.103 435.417,234.728 437.469,275.266 439.522,271.216 441.575,209.126 443.628,290.217 445.681,272.762 447.734,322.527 449.787,342.83 451.84,335.033 453.893,336.11 455.945,336.291 457.998,336.304 460.051,325.929 462.104,339.009 464.157,311.199 466.21,328.741 468.263,340.176 470.316,338.248 472.369,196.557 474.421,203.613 476.474,177.75 478.527,239.865 480.58,240.614 482.633,239.988 484.686,273.928 486.739,262.698 488.792,257.523 490.845,365.066 492.897,397.073 494.95,421.217 497.003,437.186 499.056,435.397 501.109,506.807 503.162,397.339 505.215,399.538 507.268,401.419 509.321,392.853 511.374,409.358 513.426,410.199 515.479,372.76 517.532,332.29 519.585,309.926 521.638,317.226 523.691,317.585 525.744,316.893 527.797,316.977 529.85,291.319 531.902,300.752 533.955,303.387 536.008,296.629 538.061,291.321 540.114,368.983 542.167,392.073 544.22,396.332 546.273,418.031 548.326,415.796 550.378,416.553 552.431,414.951 554.484,419.133 556.537,386.675 558.59,379.829 560.643,405.67 562.696,378.922 564.749,381.133 566.802,385.214 568.854,385.133 570.907,382.334 572.96,387.965 575.013,386.274 577.066,385.599 579.119,385.796 581.172,382.663 583.225,404.346 585.278,404.848 587.331,384.463 589.383,390.711 591.436,390.594 593.489,377.468 595.542,247.421 597.595,153.554 599.648,147.217 601.701,151.387 603.754,147.119 605.807,177.898 607.859,177.811 609.912,178.215 611.965,213.37 614.018,198.464 616.071,250.193 618.124,300.156 620.177,297.836 622.23,297.698 624.283,330.556 626.335,320.895 628.388,327.705 630.441,404.154 632.494,484.655 634.547,480.936 636.6,386.99 638.653,381.862 640.706,379.62 642.759,376.539 644.811,376.61 646.864,376.256 648.917,377.085 650.97,375.537 653.023,406.757 655.076,420.675 657.129,425.156 659.182,433.711 661.235,418.896 663.288,436.144 665.34,458.959 667.393,458.108 669.446,451.838 671.499,389.174 673.552,413.271 675.605,390.179 677.658,390.17 679.711,379.23 681.764,377.92 683.816,373.765 685.869,381.431 687.922,330.037 689.975,327.718 692.028,348.944 694.081,368.665 696.134,321.851 698.187,319.978 700.24,361.412 702.292,354.439 704.345,380.617 706.398,350.743 708.451,355.203 710.504,354.197 712.557,358.65 714.61,348.015 716.663,349.282 718.716,376.147 720.768,371.03 722.821,340.435 724.874,340.436 726.927,309.805 728.98,312.415 731.033,311.315 733.086,310.967 735.139,314.349 737.192,314.173 739.245,340.545 741.297,340.506 743.35,339.828 745.403,339.87 747.456,343.235 749.509,336.457 751.562,338.445 753.615,342.07 755.668,323.699 757.721,360.761 759.773,359.685 761.826,375.598 763.879,363.848 765.932,329.821 767.985,311.031 770.038,309.205 772.091,310.258 774.144,302.346 776.197,364.234 778.249,363.147 780.302,368.806 782.355,368.924 784.408,380.968 786.461,382.406 788.514,381.779 790.567,381.368 792.62,381.257 794.673,381.157 796.725,402.348 798.778,392.706 800.831,390.549 802.884,397.921 804.937,262.695 806.99,256.739 809.043,256.946 811.096,268.507 813.149,266.95 815.202,274.793 817.254,274.484 819.307,275.949 821.36,280.399 823.413,293.226 825.466,346.421 827.519,355.54 829.572,351.75 831.625,392.504 833.678,395.991 835.73,358.222 837.783,385.399 839.836,416.097 841.889,474.876 843.942,478.701 845.995,489.24 848.048,482.336 850.101,514.015 852.154,517.024 854.206,517.994 856.259,470.305 858.312,438.66 860.365,438.642 862.418,440.733 864.471,441.557 866.524,413.901 868.577,435.098 870.63,448.435 872.682,453.358 874.735,469 876.788,306.051 878.841,301.527 880.894,301.641 882.947,374.162 885,411.212 887.053,412.019 889.106,387.103 891.159,358.497 893.211,349.837 895.264,345.882 897.317,361.327 899.37,313.08 901.423,306.827 903.476,306.153 905.529,254.69 907.582,242.506 909.635,271.641 911.687,284.623 913.74,299.081 915.793,366.04 917.846,369.974 919.899,532.627 921.952,387.706 924.005,408.24 926.058,413.932 928.111,407.454 930.163,421.793 932.216,416.93 934.269,414.266 936.322,411.33 938.375,410.182 940.428,421.559 942.481,426.173 944.534,436.999 946.587,464.813 948.639,439.15 950.692,430.301 952.745,429.397 954.798,424.944 956.851,409.616 958.904,396.88 960.957,398.78 963.01,331.278 965.063,328.402 967.116,330.682 969.168,371.821 971.221,370.394 973.274,370.458 975.327,395.194 977.38,396.412 979.433,386.059 981.486,385.692 983.539,385.409 985.592,384.674 987.644,369.224 989.697,383.115 991.75,393.584 993.803,393.407 995.856,389.815 997.909,387.342 999.962,397.957 1002.01,344.098 1004.07,349.105 1006.12,347.199 1008.17,367.7 1010.23,367.741 1012.28,367.464 1014.33,403.623 1016.38,398.466 1018.44,396.678 1020.49,395.384 1022.54,392.151 1024.6,382.588 1026.65,383.051 1028.7,387.03 1030.76,386.937 1032.81,392.042 1034.86,385.5 1036.91,387.243 1038.97,393.463 1041.02,392.558 1043.07,388.79 1045.13,388.861 1047.18,364.326 1049.23,345.307 1051.28,351.98 1053.34,371.326 1055.39,369.723 1057.44,367.925 1059.5,349.392 1061.55,333.408 1063.6,342.906 1065.65,337.46 1067.71,348.582 1069.76,346.156 1071.81,395.867 1073.87,389.109 1075.92,340.611 1077.97,345.672 1080.02,345.373 1082.08,392.16 1084.13,396.47 1086.18,396.47 1088.24,397.028 1090.29,396.835 1092.34,379.554 1094.39,376.168 1096.45,370.822 1098.5,372.309 1100.55,391.782 1102.61,378.251 1104.66,389.718 1106.71,389.948 1108.77,391.176 1110.82,393.684 1112.87,387.853 1114.92,387.779 1116.98,387.757 1119.03,388.024 1121.08,382.234 1123.14,365.304 1125.19,374.059 1127.24,379.421 1129.29,378.347 1131.35,376.53 1133.4,376.927 1135.45,366.245 1137.51,366.055 1139.56,364.7 1141.61,363.291 1143.66,365.883 1145.72,370.122 1147.77,388.57 1149.82,384.906 1151.88,384.915 1153.93,386.397 1155.98,390.451 1158.03,390.313 1160.09,393.971 1162.14,394.285 1164.19,403.847 1166.25,402.945 1168.3,403.033 1170.35,402.893 1172.4,404.645 1174.46,406.692 1176.51,407.088 1178.56,405.941 1180.62,413.285 1182.67,414.111 1184.72,412.57 1186.77,412.043 1188.83,413.858 1190.88,358.947 1192.93,369.961 1194.99,359.806 1197.04,377.829 1199.09,377.805 1201.15,389.332 1203.2,412.361 1205.25,412.344 1207.3,412.373 1209.36,409.625 1211.41,392.514 1213.46,390.205 1215.52,389.982 1217.57,382.838 1219.62,412.52 1221.67,406.621 1223.73,406.294 1225.78,405.662 1227.83,409.877 1229.89,414.762 1231.94,418.889 1233.99,473.108 1236.04,473.644 1238.1,461.336 1240.15,457.641 1242.2,458.217 1244.26,323.99 1246.31,313.471 1248.36,315.656 1250.41,314.891 1252.47,310.463 1254.52,280.692 1256.57,414.98 1258.63,401.739 1260.68,550.841 1262.73,550.223 1264.78,572.758 1266.84,269.863 1268.89,560.975 1270.94,371.241 1273,419.395 1275.05,418.954 1277.1,498.077 1279.16,515.209 1281.21,512.436 1283.26,519.777 1285.31,545.558 1287.37,561.031 1289.42,680.234 1291.47,500.039 1293.53,484.579 1295.58,335.98 1297.63,310.999 1299.68,311.559 1301.74,484.237 1303.79,601.328 1305.84,596.492 1307.9,602.346 1309.95,572.632 1312,464.533 1314.05,442.415 1316.11,418.337 1318.16,426.422 1320.21,330.262 1322.27,331.379 1324.32,330.741 1326.37,324.602 1328.42,321.741 1330.48,375.626 1332.53,438.777 1334.58,435.063 1336.64,434.634 1338.69,434.835 1340.74,434.149 1342.79,427.777 1344.85,417.768 1346.9,417.264 1348.95,415.698 1351.01,415.717 1353.06,416.183 1355.11,414.282 1357.16,400.743 1359.22,358.318 1361.27,357.269 1363.32,357.35 1365.38,358.776 1367.43,353.979 1369.48,359.871 1371.54,355.754 1373.59,355.971 1375.64,360.293 1377.69,360.611 1379.75,384.964 1381.8,384.979 1383.85,355.934 1385.91,346.305 1387.96,330.869 1390.01,346.888 1392.06,332.777 1394.12,332.225 1396.17,332.535 1398.22,333.997 1400.28,335.485 1402.33,335.339 1404.38,340.874 1406.43,347.598 1408.49,352.168 1410.54,352.939 1412.59,353.024 1414.65,362.29 1416.7,390.811 1418.75,388.09 1420.8,389.161 1422.86,385.275 1424.91,351.577 1426.96,360.883 1429.02,360.812 1431.07,360.783 1433.12,369.136 1435.17,327.985 1437.23,324.28 1439.28,314.994 1441.33,329.804 1443.39,331.069 1445.44,328.599 1447.49,341.45 1449.55,344.739 1451.6,344.836 1453.65,350.609 1455.7,367.776 1457.76,367.753 1459.81,368.009 1461.86,367.839 1463.92,375.188 1465.97,372.336 1468.02,374.17 1470.07,375.509 1472.13,359.073 1474.18,349.679 1476.23,353.07 1478.29,353.303 1480.34,353.533 1482.39,364.381 1484.44,365.38 1486.5,367.282 1488.55,366.5 1490.6,362.8 1492.66,331.535 1494.71,344.823 1496.76,351.258 1498.81,350.524 1500.87,349.283 1502.92,348.983 1504.97,334.321 1507.03,336.168 1509.08,329.982 1511.13,335.372 1513.18,333.039 1515.24,327.35 1517.29,330.209 1519.34,368.148 1521.4,360.119 1523.45,363.979 1525.5,369.276 1527.55,388.566 1529.61,384.663 1531.66,384.089 1533.71,386.197 1535.77,365.159 1537.82,364.934 1539.87,367.291 1541.93,350.229 1543.98,375.449 1546.03,376.359 1548.08,376.383 1550.14,379.463 1552.19,379.62 1554.24,379.531 1556.3,379.689 1558.35,371.025 1560.4,375.868 1562.45,345.255 1564.51,354.874 1566.56,353.757 1568.61,353.24 1570.67,357.36 1572.72,354.441 1574.77,382.102 1576.82,378.963 1578.88,394.715 1580.93,392.987 1582.98,393.152 1585.04,392.977 1587.09,392.961 1589.14,391.631 1591.19,390.884 1593.25,387.59 1595.3,382.158 1597.35,382.006 1599.41,383.015 1601.46,382.687 1603.51,382.198 1605.56,378.908 1607.62,378.835 1609.67,379.515 1611.72,361.848 1613.78,365.235 1615.83,342.738 1617.88,343.19 1619.94,343.495 1621.99,343.762 1624.04,362.641 1626.09,359.169 1628.15,364.694 1630.2,364.982 1632.25,367.77 1634.31,367.747 1636.36,369.471 1638.41,357.328 1640.46,342.672 1642.52,335.169 1644.57,336.289 1646.62,335.454 1648.68,335.122 1650.73,337.44 1652.78,337.35 1654.83,400.936 1656.89,402.363 1658.94,360.357 1660.99,350.62 1663.05,350.293 1665.1,355.842 1667.15,356.583 1669.2,370.415 1671.26,370.18 1673.31,370.023 1675.36,370.276 1677.42,363.932 1679.47,364.772 1681.52,364.774 1683.57,364.887 1685.63,365.006 1687.68,365.11 1689.73,363.509 1691.79,351.242 1693.84,367.661 1695.89,367.395 1697.94,366.282 1700,364.081 1702.05,364.472 1704.1,368.588 1706.16,368.759 1708.21,364.335 1710.26,355.859 1712.32,355.429 1714.37,355.508 1716.42,356.886 1718.47,357 1720.53,355.655 1722.58,355.35 1724.63,355.361 1726.69,354.935 1728.74,360.847 1730.79,360.781 1732.84,362.382 1734.9,362.218 1736.95,362.124 1739,362.336 1741.06,361.426 1743.11,368.347 1745.16,368.468 1747.21,369.068 1749.27,368.889 1751.32,372.917 1753.37,372.809 1755.43,371.054 1757.48,372.582 1759.53,366.555 1761.58,368.253 1763.64,373.246 1765.69,369.842 1767.74,373.576 1769.8,383.54 1771.85,382.618 1773.9,386.709 1775.95,378.42 1778.01,379.181 1780.06,381.257 1782.11,381.262 1784.17,381.362 1786.22,381.119 1788.27,382.48 1790.33,382.513 1792.38,367.576 1794.43,366.06 1796.48,363.662 1798.54,362.833 1800.59,384.459 1802.64,378.966 1804.7,376.658 1806.75,377.339 1808.8,385.488 1810.85,398.791 1812.91,388.427 1814.96,384.139 1817.01,344.255 1819.07,339.718 1821.12,342.126 1823.17,338.97 1825.22,358.723 1827.28,354.279 1829.33,352.782 1831.38,347.794 1833.44,349.739 1835.49,347.83 1837.54,336.971 1839.59,337.152 1841.65,337.074 1843.7,319.619 1845.75,292.207 1847.81,291.93 1849.86,289.164 1851.91,368.512 1853.96,368.59 1856.02,378.498 1858.07,379.143 1860.12,378.596 1862.18,405.755 1864.23,404.491 1866.28,344.21 1868.34,349.656 1870.39,381.841 1872.44,380.911 1874.49,381.508 1876.55,373.871 1878.6,390.303 1880.65,389.958 1882.71,378.859 1884.76,358.492 1886.81,372.53 1888.86,365.792 1890.92,365.801 1892.97,365.694 1895.02,365.557 1897.08,363.673 1899.13,361.997 1901.18,363.414 1903.23,363.375 1905.29,365.631 1907.34,386.05 1909.39,370.777 1911.45,371.067 1913.5,381.602 1915.55,381.338 1917.6,381.339 1919.66,339.756 1921.71,339.841 1923.76,341.59 1925.82,341.597 1927.87,341.805 1929.92,344.081 1931.97,344.338 1934.03,350.204 1936.08,350.81 1938.13,353.926 1940.19,353.921 1942.24,346.317 1944.29,345.431 1946.34,343.842 1948.4,367.36 1950.45,375.488 1952.5,369.012 1954.56,372.493 1956.61,335.445 1958.66,334.501 1960.72,335.63 1962.77,335.739 1964.82,337.546 1966.87,339.732 1968.93,339.739 1970.98,343.624 1973.03,350.234 1975.09,350.227 1977.14,351.027 1979.19,350.575 1981.24,357.263 1983.3,356.65 1985.35,355.777 1987.4,343.805 1989.46,346.804 1991.51,343.09 1993.56,336.695 1995.61,351.65 1997.67,335.533 1999.72,336.95 2001.77,352.458 2003.83,345.65 2005.88,393.936 2007.93,393.896 2009.98,394.17 2012.04,382.592 2014.09,381.559 2016.14,393.886 2018.2,375.142 2020.25,361.929 2022.3,352.961 2024.35,352.187 2026.41,441.488 2028.46,440.162 2030.51,441.392 2032.57,446.426 2034.62,446.353 2036.67,446.532 2038.73,402.811 2040.78,405.565 2042.83,405.976 2044.88,394.311 2046.94,404.996 2048.99,404.995 2051.04,401.179 2053.1,420.473 2055.15,400.999 2057.2,397.203 2059.25,396.909 2061.31,340.11 2063.36,343.537 2065.41,265.065 2067.47,266.494 2069.52,266.357 2071.57,293.813 2073.62,293.933 2075.68,296.084 2077.73,297.398 2079.78,326.341 2081.84,341.674 2083.89,341.777 2085.94,371.034 2087.99,382.796 2090.05,362.318 2092.1,362.745 2094.15,361.421 2096.21,360.514 2098.26,436.384 2100.31,437.259 2102.36,434.721 2104.42,435.436 2106.47,435.379 2108.52,426.137 2110.58,353.48 2112.63,353.334 2114.68,368.538 2116.73,366.687 2118.79,375.368 2120.84,366.172 2122.89,374.017 2124.95,376.465 2127,376.711 2129.05,376.415 2131.11,378.013 2133.16,381.578 2135.21,374.784 2137.26,376.091 2139.32,370.614 2141.37,360.21 2143.42,369.56 2145.48,371.838 2147.53,387.148 2149.58,384.642 2151.63,356.269 2153.69,355.671 2155.74,365.552 2157.79,365.921 2159.85,365.829 2161.9,365.153 2163.95,368.997 2166,373.626 2168.06,373.618 2170.11,367.226 2172.16,373.196 2174.22,373.627 2176.27,364.004 2178.32,363.64 2180.37,363.331 2182.43,380.924 2184.48,380.299 2186.53,380.43 2188.59,380.993 2190.64,357.099 2192.69,349.945 2194.74,349.687 2196.8,350.343 2198.85,351.252 2200.9,351.269 2202.96,352.898 2205.01,352.588 2207.06,354.415 2209.12,356.645 2211.17,356.689 2213.22,359.766 2215.27,360.191 2217.33,353.453 2219.38,353.329 2221.43,358.784 2223.49,358.568 2225.54,372.051 2227.59,368.236 2229.64,368.444 2231.7,370.641 2233.75,370.922 2235.8,370.832 2237.86,371.309 2239.91,373.117 2241.96,367.147 2244.01,356.308 2246.07,358.165 2248.12,394.7 2250.17,394.568 2252.23,376.495 2254.28,372.388 2256.33,381.331 2258.38,390.426 2260.44,375.823 2262.49,381.294 2264.54,384.173 2266.6,384.542 2268.65,365.995 2270.7,366.036 2272.75,366.053 2274.81,366.057 2276.86,354.923 2278.91,355.377 2280.97,356.788 2283.02,355.174 2285.07,328.083 2287.12,352.459 2289.18,340.358 2291.23,339.138 "/>
<path clip-path="url(#clip840)" d="M1983.6 172.231 L2280.29 172.231 L2280.29 68.5509 L1983.6 68.5509  Z" fill="#ffffff" fill-rule="evenodd" fill-opacity="1"/>
<polyline clip-path="url(#clip840)" style="stroke:#000000; stroke-linecap:round; stroke-linejoin:round; stroke-width:4; stroke-opacity:1; fill:none" points="1983.6,172.231 2280.29,172.231 2280.29,68.5509 1983.6,68.5509 1983.6,172.231 "/>
<polyline clip-path="url(#clip840)" style="stroke:#009af9; stroke-linecap:round; stroke-linejoin:round; stroke-width:4; stroke-opacity:1; fill:none" points="2007.75,120.391 2152.68,120.391 "/>
<path clip-path="url(#clip840)" d="M2176.83 103.111 L2181.51 103.111 L2181.51 133.736 L2198.34 133.736 L2198.34 137.671 L2176.83 137.671 L2176.83 103.111 Z" fill="#000000" fill-rule="nonzero" fill-opacity="1" /><path clip-path="url(#clip840)" d="M2223.96 104.245 L2223.96 108.805 Q2221.3 107.532 2218.94 106.907 Q2216.58 106.282 2214.38 106.282 Q2210.56 106.282 2208.48 107.764 Q2206.42 109.245 2206.42 111.977 Q2206.42 114.268 2207.78 115.449 Q2209.17 116.606 2213.01 117.324 L2215.84 117.902 Q2221.07 118.898 2223.55 121.421 Q2226.05 123.921 2226.05 128.134 Q2226.05 133.157 2222.67 135.75 Q2219.31 138.342 2212.81 138.342 Q2210.35 138.342 2207.57 137.787 Q2204.82 137.231 2201.86 136.143 L2201.86 131.328 Q2204.7 132.926 2207.44 133.736 Q2210.17 134.546 2212.81 134.546 Q2216.81 134.546 2218.99 132.972 Q2221.16 131.398 2221.16 128.481 Q2221.16 125.935 2219.59 124.5 Q2218.04 123.064 2214.47 122.347 L2211.62 121.791 Q2206.39 120.75 2204.06 118.527 Q2201.72 116.305 2201.72 112.347 Q2201.72 107.764 2204.94 105.125 Q2208.18 102.486 2213.85 102.486 Q2216.28 102.486 2218.8 102.926 Q2221.32 103.366 2223.96 104.245 Z" fill="#000000" fill-rule="nonzero" fill-opacity="1" /><path clip-path="url(#clip840)" d="M2254.06 104.245 L2254.06 108.805 Q2251.39 107.532 2249.03 106.907 Q2246.67 106.282 2244.47 106.282 Q2240.65 106.282 2238.57 107.764 Q2236.51 109.245 2236.51 111.977 Q2236.51 114.268 2237.87 115.449 Q2239.26 116.606 2243.11 117.324 L2245.93 117.902 Q2251.16 118.898 2253.64 121.421 Q2256.14 123.921 2256.14 128.134 Q2256.14 133.157 2252.76 135.75 Q2249.4 138.342 2242.9 138.342 Q2240.44 138.342 2237.67 137.787 Q2234.91 137.231 2231.95 136.143 L2231.95 131.328 Q2234.8 132.926 2237.53 133.736 Q2240.26 134.546 2242.9 134.546 Q2246.9 134.546 2249.08 132.972 Q2251.25 131.398 2251.25 128.481 Q2251.25 125.935 2249.68 124.5 Q2248.13 123.064 2244.56 122.347 L2241.72 121.791 Q2236.49 120.75 2234.15 118.527 Q2231.81 116.305 2231.81 112.347 Q2231.81 107.764 2235.03 105.125 Q2238.27 102.486 2243.94 102.486 Q2246.37 102.486 2248.89 102.926 Q2251.42 103.366 2254.06 104.245 Z" fill="#000000" fill-rule="nonzero" fill-opacity="1" /><path clip-path="url(#clip840)" d="M178.867 1486.45 L2352.76 1486.45 L2352.76 847.244 L178.867 847.244  Z" fill="#ffffff" fill-rule="evenodd" fill-opacity="1"/>
<defs>
  <clipPath id="clip843">
    <rect x="178" y="847" width="2175" height="640"/>
  </clipPath>
</defs>
<polyline clip-path="url(#clip843)" style="stroke:#000000; stroke-linecap:round; stroke-linejoin:round; stroke-width:2; stroke-opacity:0.1; fill:none" points="238.339,1486.45 238.339,847.244 "/>
<polyline clip-path="url(#clip843)" style="stroke:#000000; stroke-linecap:round; stroke-linejoin:round; stroke-width:2; stroke-opacity:0.1; fill:none" points="751.562,1486.45 751.562,847.244 "/>
<polyline clip-path="url(#clip843)" style="stroke:#000000; stroke-linecap:round; stroke-linejoin:round; stroke-width:2; stroke-opacity:0.1; fill:none" points="1264.78,1486.45 1264.78,847.244 "/>
<polyline clip-path="url(#clip843)" style="stroke:#000000; stroke-linecap:round; stroke-linejoin:round; stroke-width:2; stroke-opacity:0.1; fill:none" points="1778.01,1486.45 1778.01,847.244 "/>
<polyline clip-path="url(#clip843)" style="stroke:#000000; stroke-linecap:round; stroke-linejoin:round; stroke-width:2; stroke-opacity:0.1; fill:none" points="2291.23,1486.45 2291.23,847.244 "/>
<polyline clip-path="url(#clip843)" style="stroke:#000000; stroke-linecap:round; stroke-linejoin:round; stroke-width:2; stroke-opacity:0.1; fill:none" points="178.867,1486.45 2352.76,1486.45 "/>
<polyline clip-path="url(#clip843)" style="stroke:#000000; stroke-linecap:round; stroke-linejoin:round; stroke-width:2; stroke-opacity:0.1; fill:none" points="178.867,1326.65 2352.76,1326.65 "/>
<polyline clip-path="url(#clip843)" style="stroke:#000000; stroke-linecap:round; stroke-linejoin:round; stroke-width:2; stroke-opacity:0.1; fill:none" points="178.867,1166.85 2352.76,1166.85 "/>
<polyline clip-path="url(#clip843)" style="stroke:#000000; stroke-linecap:round; stroke-linejoin:round; stroke-width:2; stroke-opacity:0.1; fill:none" points="178.867,1007.05 2352.76,1007.05 "/>
<polyline clip-path="url(#clip843)" style="stroke:#000000; stroke-linecap:round; stroke-linejoin:round; stroke-width:2; stroke-opacity:0.1; fill:none" points="178.867,847.244 2352.76,847.244 "/>
<polyline clip-path="url(#clip840)" style="stroke:#000000; stroke-linecap:round; stroke-linejoin:round; stroke-width:4; stroke-opacity:1; fill:none" points="178.867,1486.45 2352.76,1486.45 "/>
<polyline clip-path="url(#clip840)" style="stroke:#000000; stroke-linecap:round; stroke-linejoin:round; stroke-width:4; stroke-opacity:1; fill:none" points="238.339,1486.45 238.339,1467.55 "/>
<polyline clip-path="url(#clip840)" style="stroke:#000000; stroke-linecap:round; stroke-linejoin:round; stroke-width:4; stroke-opacity:1; fill:none" points="751.562,1486.45 751.562,1467.55 "/>
<polyline clip-path="url(#clip840)" style="stroke:#000000; stroke-linecap:round; stroke-linejoin:round; stroke-width:4; stroke-opacity:1; fill:none" points="1264.78,1486.45 1264.78,1467.55 "/>
<polyline clip-path="url(#clip840)" style="stroke:#000000; stroke-linecap:round; stroke-linejoin:round; stroke-width:4; stroke-opacity:1; fill:none" points="1778.01,1486.45 1778.01,1467.55 "/>
<polyline clip-path="url(#clip840)" style="stroke:#000000; stroke-linecap:round; stroke-linejoin:round; stroke-width:4; stroke-opacity:1; fill:none" points="2291.23,1486.45 2291.23,1467.55 "/>
<path clip-path="url(#clip840)" d="M238.339 1517.37 Q234.728 1517.37 232.899 1520.93 Q231.094 1524.47 231.094 1531.6 Q231.094 1538.71 232.899 1542.27 Q234.728 1545.82 238.339 1545.82 Q241.973 1545.82 243.779 1542.27 Q245.607 1538.71 245.607 1531.6 Q245.607 1524.47 243.779 1520.93 Q241.973 1517.37 238.339 1517.37 M238.339 1513.66 Q244.149 1513.66 247.205 1518.27 Q250.283 1522.85 250.283 1531.6 Q250.283 1540.33 247.205 1544.94 Q244.149 1549.52 238.339 1549.52 Q232.529 1549.52 229.45 1544.94 Q226.395 1540.33 226.395 1531.6 Q226.395 1522.85 229.45 1518.27 Q232.529 1513.66 238.339 1513.66 Z" fill="#000000" fill-rule="nonzero" fill-opacity="1" /><path clip-path="url(#clip840)" d="M715.254 1544.91 L731.574 1544.91 L731.574 1548.85 L709.629 1548.85 L709.629 1544.91 Q712.291 1542.16 716.875 1537.53 Q721.481 1532.88 722.662 1531.53 Q724.907 1529.01 725.787 1527.27 Q726.689 1525.51 726.689 1523.82 Q726.689 1521.07 724.745 1519.33 Q722.824 1517.6 719.722 1517.6 Q717.523 1517.6 715.069 1518.36 Q712.638 1519.13 709.861 1520.68 L709.861 1515.95 Q712.685 1514.82 715.138 1514.24 Q717.592 1513.66 719.629 1513.66 Q725 1513.66 728.194 1516.35 Q731.388 1519.03 731.388 1523.52 Q731.388 1525.65 730.578 1527.57 Q729.791 1529.47 727.685 1532.07 Q727.106 1532.74 724.004 1535.95 Q720.902 1539.15 715.254 1544.91 Z" fill="#000000" fill-rule="nonzero" fill-opacity="1" /><path clip-path="url(#clip840)" d="M741.435 1514.29 L759.791 1514.29 L759.791 1518.22 L745.717 1518.22 L745.717 1526.7 Q746.736 1526.35 747.754 1526.19 Q748.773 1526 749.791 1526 Q755.578 1526 758.958 1529.17 Q762.337 1532.34 762.337 1537.76 Q762.337 1543.34 758.865 1546.44 Q755.393 1549.52 749.073 1549.52 Q746.898 1549.52 744.629 1549.15 Q742.384 1548.78 739.976 1548.04 L739.976 1543.34 Q742.06 1544.47 744.282 1545.03 Q746.504 1545.58 748.981 1545.58 Q752.985 1545.58 755.323 1543.48 Q757.661 1541.37 757.661 1537.76 Q757.661 1534.15 755.323 1532.04 Q752.985 1529.94 748.981 1529.94 Q747.106 1529.94 745.231 1530.35 Q743.379 1530.77 741.435 1531.65 L741.435 1514.29 Z" fill="#000000" fill-rule="nonzero" fill-opacity="1" /><path clip-path="url(#clip840)" d="M781.55 1517.37 Q777.939 1517.37 776.11 1520.93 Q774.305 1524.47 774.305 1531.6 Q774.305 1538.71 776.11 1542.27 Q777.939 1545.82 781.55 1545.82 Q785.184 1545.82 786.99 1542.27 Q788.819 1538.71 788.819 1531.6 Q788.819 1524.47 786.99 1520.93 Q785.184 1517.37 781.55 1517.37 M781.55 1513.66 Q787.36 1513.66 790.416 1518.27 Q793.495 1522.85 793.495 1531.6 Q793.495 1540.33 790.416 1544.94 Q787.36 1549.52 781.55 1549.52 Q775.74 1549.52 772.661 1544.94 Q769.606 1540.33 769.606 1531.6 Q769.606 1522.85 772.661 1518.27 Q775.74 1513.66 781.55 1513.66 Z" fill="#000000" fill-rule="nonzero" fill-opacity="1" /><path clip-path="url(#clip840)" d="M1224.4 1514.29 L1242.76 1514.29 L1242.76 1518.22 L1228.69 1518.22 L1228.69 1526.7 Q1229.7 1526.35 1230.72 1526.19 Q1231.74 1526 1232.76 1526 Q1238.55 1526 1241.93 1529.17 Q1245.31 1532.34 1245.31 1537.76 Q1245.31 1543.34 1241.83 1546.44 Q1238.36 1549.52 1232.04 1549.52 Q1229.87 1549.52 1227.6 1549.15 Q1225.35 1548.78 1222.94 1548.04 L1222.94 1543.34 Q1225.03 1544.47 1227.25 1545.03 Q1229.47 1545.58 1231.95 1545.58 Q1235.95 1545.58 1238.29 1543.48 Q1240.63 1541.37 1240.63 1537.76 Q1240.63 1534.15 1238.29 1532.04 Q1235.95 1529.94 1231.95 1529.94 Q1230.07 1529.94 1228.2 1530.35 Q1226.35 1530.77 1224.4 1531.65 L1224.4 1514.29 Z" fill="#000000" fill-rule="nonzero" fill-opacity="1" /><path clip-path="url(#clip840)" d="M1264.52 1517.37 Q1260.91 1517.37 1259.08 1520.93 Q1257.27 1524.47 1257.27 1531.6 Q1257.27 1538.71 1259.08 1542.27 Q1260.91 1545.82 1264.52 1545.82 Q1268.15 1545.82 1269.96 1542.27 Q1271.79 1538.71 1271.79 1531.6 Q1271.79 1524.47 1269.96 1520.93 Q1268.15 1517.37 1264.52 1517.37 M1264.52 1513.66 Q1270.33 1513.66 1273.38 1518.27 Q1276.46 1522.85 1276.46 1531.6 Q1276.46 1540.33 1273.38 1544.94 Q1270.33 1549.52 1264.52 1549.52 Q1258.71 1549.52 1255.63 1544.94 Q1252.57 1540.33 1252.57 1531.6 Q1252.57 1522.85 1255.63 1518.27 Q1258.71 1513.66 1264.52 1513.66 Z" fill="#000000" fill-rule="nonzero" fill-opacity="1" /><path clip-path="url(#clip840)" d="M1294.68 1517.37 Q1291.07 1517.37 1289.24 1520.93 Q1287.44 1524.47 1287.44 1531.6 Q1287.44 1538.71 1289.24 1542.27 Q1291.07 1545.82 1294.68 1545.82 Q1298.31 1545.82 1300.12 1542.27 Q1301.95 1538.71 1301.95 1531.6 Q1301.95 1524.47 1300.12 1520.93 Q1298.31 1517.37 1294.68 1517.37 M1294.68 1513.66 Q1300.49 1513.66 1303.55 1518.27 Q1306.62 1522.85 1306.62 1531.6 Q1306.62 1540.33 1303.55 1544.94 Q1300.49 1549.52 1294.68 1549.52 Q1288.87 1549.52 1285.79 1544.94 Q1282.74 1540.33 1282.74 1531.6 Q1282.74 1522.85 1285.79 1518.27 Q1288.87 1513.66 1294.68 1513.66 Z" fill="#000000" fill-rule="nonzero" fill-opacity="1" /><path clip-path="url(#clip840)" d="M1736.28 1514.29 L1758.51 1514.29 L1758.51 1516.28 L1745.96 1548.85 L1741.08 1548.85 L1752.88 1518.22 L1736.28 1518.22 L1736.28 1514.29 Z" fill="#000000" fill-rule="nonzero" fill-opacity="1" /><path clip-path="url(#clip840)" d="M1767.67 1514.29 L1786.03 1514.29 L1786.03 1518.22 L1771.95 1518.22 L1771.95 1526.7 Q1772.97 1526.35 1773.99 1526.19 Q1775.01 1526 1776.03 1526 Q1781.82 1526 1785.2 1529.17 Q1788.57 1532.34 1788.57 1537.76 Q1788.57 1543.34 1785.1 1546.44 Q1781.63 1549.52 1775.31 1549.52 Q1773.14 1549.52 1770.87 1549.15 Q1768.62 1548.78 1766.21 1548.04 L1766.21 1543.34 Q1768.3 1544.47 1770.52 1545.03 Q1772.74 1545.58 1775.22 1545.58 Q1779.22 1545.58 1781.56 1543.48 Q1783.9 1541.37 1783.9 1537.76 Q1783.9 1534.15 1781.56 1532.04 Q1779.22 1529.94 1775.22 1529.94 Q1773.34 1529.94 1771.47 1530.35 Q1769.62 1530.77 1767.67 1531.65 L1767.67 1514.29 Z" fill="#000000" fill-rule="nonzero" fill-opacity="1" /><path clip-path="url(#clip840)" d="M1807.79 1517.37 Q1804.18 1517.37 1802.35 1520.93 Q1800.54 1524.47 1800.54 1531.6 Q1800.54 1538.71 1802.35 1542.27 Q1804.18 1545.82 1807.79 1545.82 Q1811.42 1545.82 1813.23 1542.27 Q1815.06 1538.71 1815.06 1531.6 Q1815.06 1524.47 1813.23 1520.93 Q1811.42 1517.37 1807.79 1517.37 M1807.79 1513.66 Q1813.6 1513.66 1816.65 1518.27 Q1819.73 1522.85 1819.73 1531.6 Q1819.73 1540.33 1816.65 1544.94 Q1813.6 1549.52 1807.79 1549.52 Q1801.98 1549.52 1798.9 1544.94 Q1795.84 1540.33 1795.84 1531.6 Q1795.84 1522.85 1798.9 1518.27 Q1801.98 1513.66 1807.79 1513.66 Z" fill="#000000" fill-rule="nonzero" fill-opacity="1" /><path clip-path="url(#clip840)" d="M2235.76 1544.91 L2243.4 1544.91 L2243.4 1518.55 L2235.09 1520.21 L2235.09 1515.95 L2243.35 1514.29 L2248.02 1514.29 L2248.02 1544.91 L2255.66 1544.91 L2255.66 1548.85 L2235.76 1548.85 L2235.76 1544.91 Z" fill="#000000" fill-rule="nonzero" fill-opacity="1" /><path clip-path="url(#clip840)" d="M2275.11 1517.37 Q2271.5 1517.37 2269.67 1520.93 Q2267.86 1524.47 2267.86 1531.6 Q2267.86 1538.71 2269.67 1542.27 Q2271.5 1545.82 2275.11 1545.82 Q2278.74 1545.82 2280.55 1542.27 Q2282.38 1538.71 2282.38 1531.6 Q2282.38 1524.47 2280.55 1520.93 Q2278.74 1517.37 2275.11 1517.37 M2275.11 1513.66 Q2280.92 1513.66 2283.97 1518.27 Q2287.05 1522.85 2287.05 1531.6 Q2287.05 1540.33 2283.97 1544.94 Q2280.92 1549.52 2275.11 1549.52 Q2269.3 1549.52 2266.22 1544.94 Q2263.16 1540.33 2263.16 1531.6 Q2263.16 1522.85 2266.22 1518.27 Q2269.3 1513.66 2275.11 1513.66 Z" fill="#000000" fill-rule="nonzero" fill-opacity="1" /><path clip-path="url(#clip840)" d="M2305.27 1517.37 Q2301.66 1517.37 2299.83 1520.93 Q2298.02 1524.47 2298.02 1531.6 Q2298.02 1538.71 2299.83 1542.27 Q2301.66 1545.82 2305.27 1545.82 Q2308.9 1545.82 2310.71 1542.27 Q2312.54 1538.71 2312.54 1531.6 Q2312.54 1524.47 2310.71 1520.93 Q2308.9 1517.37 2305.27 1517.37 M2305.27 1513.66 Q2311.08 1513.66 2314.14 1518.27 Q2317.21 1522.85 2317.21 1531.6 Q2317.21 1540.33 2314.14 1544.94 Q2311.08 1549.52 2305.27 1549.52 Q2299.46 1549.52 2296.38 1544.94 Q2293.33 1540.33 2293.33 1531.6 Q2293.33 1522.85 2296.38 1518.27 Q2299.46 1513.66 2305.27 1513.66 Z" fill="#000000" fill-rule="nonzero" fill-opacity="1" /><path clip-path="url(#clip840)" d="M2335.43 1517.37 Q2331.82 1517.37 2329.99 1520.93 Q2328.19 1524.47 2328.19 1531.6 Q2328.19 1538.71 2329.99 1542.27 Q2331.82 1545.82 2335.43 1545.82 Q2339.07 1545.82 2340.87 1542.27 Q2342.7 1538.71 2342.7 1531.6 Q2342.7 1524.47 2340.87 1520.93 Q2339.07 1517.37 2335.43 1517.37 M2335.43 1513.66 Q2341.24 1513.66 2344.3 1518.27 Q2347.38 1522.85 2347.38 1531.6 Q2347.38 1540.33 2344.3 1544.94 Q2341.24 1549.52 2335.43 1549.52 Q2329.62 1549.52 2326.54 1544.94 Q2323.49 1540.33 2323.49 1531.6 Q2323.49 1522.85 2326.54 1518.27 Q2329.62 1513.66 2335.43 1513.66 Z" fill="#000000" fill-rule="nonzero" fill-opacity="1" /><polyline clip-path="url(#clip840)" style="stroke:#000000; stroke-linecap:round; stroke-linejoin:round; stroke-width:4; stroke-opacity:1; fill:none" points="178.867,1486.45 178.867,847.244 "/>
<polyline clip-path="url(#clip840)" style="stroke:#000000; stroke-linecap:round; stroke-linejoin:round; stroke-width:4; stroke-opacity:1; fill:none" points="178.867,1486.45 197.764,1486.45 "/>
<polyline clip-path="url(#clip840)" style="stroke:#000000; stroke-linecap:round; stroke-linejoin:round; stroke-width:4; stroke-opacity:1; fill:none" points="178.867,1326.65 197.764,1326.65 "/>
<polyline clip-path="url(#clip840)" style="stroke:#000000; stroke-linecap:round; stroke-linejoin:round; stroke-width:4; stroke-opacity:1; fill:none" points="178.867,1166.85 197.764,1166.85 "/>
<polyline clip-path="url(#clip840)" style="stroke:#000000; stroke-linecap:round; stroke-linejoin:round; stroke-width:4; stroke-opacity:1; fill:none" points="178.867,1007.05 197.764,1007.05 "/>
<polyline clip-path="url(#clip840)" style="stroke:#000000; stroke-linecap:round; stroke-linejoin:round; stroke-width:4; stroke-opacity:1; fill:none" points="178.867,847.244 197.764,847.244 "/>
<path clip-path="url(#clip840)" d="M50.9921 1486.9 L80.6679 1486.9 L80.6679 1490.83 L50.9921 1490.83 L50.9921 1486.9 Z" fill="#000000" fill-rule="nonzero" fill-opacity="1" /><path clip-path="url(#clip840)" d="M91.5706 1499.79 L99.2095 1499.79 L99.2095 1473.43 L90.8993 1475.09 L90.8993 1470.83 L99.1632 1469.17 L103.839 1469.17 L103.839 1499.79 L111.478 1499.79 L111.478 1503.73 L91.5706 1503.73 L91.5706 1499.79 Z" fill="#000000" fill-rule="nonzero" fill-opacity="1" /><path clip-path="url(#clip840)" d="M130.922 1472.25 Q127.311 1472.25 125.482 1475.81 Q123.677 1479.35 123.677 1486.48 Q123.677 1493.59 125.482 1497.15 Q127.311 1500.7 130.922 1500.7 Q134.556 1500.7 136.362 1497.15 Q138.191 1493.59 138.191 1486.48 Q138.191 1479.35 136.362 1475.81 Q134.556 1472.25 130.922 1472.25 M130.922 1468.54 Q136.732 1468.54 139.788 1473.15 Q142.867 1477.73 142.867 1486.48 Q142.867 1495.21 139.788 1499.82 Q136.732 1504.4 130.922 1504.4 Q125.112 1504.4 122.033 1499.82 Q118.978 1495.21 118.978 1486.48 Q118.978 1477.73 122.033 1473.15 Q125.112 1468.54 130.922 1468.54 Z" fill="#000000" fill-rule="nonzero" fill-opacity="1" /><path clip-path="url(#clip840)" d="M82.1494 1327.1 L111.825 1327.1 L111.825 1331.03 L82.1494 1331.03 L82.1494 1327.1 Z" fill="#000000" fill-rule="nonzero" fill-opacity="1" /><path clip-path="url(#clip840)" d="M121.964 1309.37 L140.32 1309.37 L140.32 1313.3 L126.246 1313.3 L126.246 1321.77 Q127.265 1321.43 128.283 1321.27 Q129.302 1321.08 130.32 1321.08 Q136.107 1321.08 139.487 1324.25 Q142.867 1327.42 142.867 1332.84 Q142.867 1338.42 139.394 1341.52 Q135.922 1344.6 129.603 1344.6 Q127.427 1344.6 125.158 1344.23 Q122.913 1343.86 120.506 1343.12 L120.506 1338.42 Q122.589 1339.55 124.811 1340.11 Q127.033 1340.66 129.51 1340.66 Q133.515 1340.66 135.853 1338.56 Q138.191 1336.45 138.191 1332.84 Q138.191 1329.23 135.853 1327.12 Q133.515 1325.01 129.51 1325.01 Q127.635 1325.01 125.76 1325.43 Q123.908 1325.85 121.964 1326.73 L121.964 1309.37 Z" fill="#000000" fill-rule="nonzero" fill-opacity="1" /><path clip-path="url(#clip840)" d="M130.922 1152.64 Q127.311 1152.64 125.482 1156.21 Q123.677 1159.75 123.677 1166.88 Q123.677 1173.99 125.482 1177.55 Q127.311 1181.09 130.922 1181.09 Q134.556 1181.09 136.362 1177.55 Q138.191 1173.99 138.191 1166.88 Q138.191 1159.75 136.362 1156.21 Q134.556 1152.64 130.922 1152.64 M130.922 1148.94 Q136.732 1148.94 139.788 1153.55 Q142.867 1158.13 142.867 1166.88 Q142.867 1175.61 139.788 1180.21 Q136.732 1184.8 130.922 1184.8 Q125.112 1184.8 122.033 1180.21 Q118.978 1175.61 118.978 1166.88 Q118.978 1158.13 122.033 1153.55 Q125.112 1148.94 130.922 1148.94 Z" fill="#000000" fill-rule="nonzero" fill-opacity="1" /><path clip-path="url(#clip840)" d="M121.964 989.765 L140.32 989.765 L140.32 993.7 L126.246 993.7 L126.246 1002.17 Q127.265 1001.83 128.283 1001.66 Q129.302 1001.48 130.32 1001.48 Q136.107 1001.48 139.487 1004.65 Q142.867 1007.82 142.867 1013.24 Q142.867 1018.82 139.394 1021.92 Q135.922 1025 129.603 1025 Q127.427 1025 125.158 1024.63 Q122.913 1024.26 120.506 1023.51 L120.506 1018.82 Q122.589 1019.95 124.811 1020.51 Q127.033 1021.06 129.51 1021.06 Q133.515 1021.06 135.853 1018.95 Q138.191 1016.85 138.191 1013.24 Q138.191 1009.63 135.853 1007.52 Q133.515 1005.41 129.51 1005.41 Q127.635 1005.41 125.76 1005.83 Q123.908 1006.25 121.964 1007.13 L121.964 989.765 Z" fill="#000000" fill-rule="nonzero" fill-opacity="1" /><path clip-path="url(#clip840)" d="M91.5706 860.589 L99.2095 860.589 L99.2095 834.223 L90.8993 835.89 L90.8993 831.631 L99.1632 829.964 L103.839 829.964 L103.839 860.589 L111.478 860.589 L111.478 864.524 L91.5706 864.524 L91.5706 860.589 Z" fill="#000000" fill-rule="nonzero" fill-opacity="1" /><path clip-path="url(#clip840)" d="M130.922 833.043 Q127.311 833.043 125.482 836.608 Q123.677 840.149 123.677 847.279 Q123.677 854.385 125.482 857.95 Q127.311 861.492 130.922 861.492 Q134.556 861.492 136.362 857.95 Q138.191 854.385 138.191 847.279 Q138.191 840.149 136.362 836.608 Q134.556 833.043 130.922 833.043 M130.922 829.339 Q136.732 829.339 139.788 833.946 Q142.867 838.529 142.867 847.279 Q142.867 856.006 139.788 860.612 Q136.732 865.195 130.922 865.195 Q125.112 865.195 122.033 860.612 Q118.978 856.006 118.978 847.279 Q118.978 838.529 122.033 833.946 Q125.112 829.339 130.922 829.339 Z" fill="#000000" fill-rule="nonzero" fill-opacity="1" /><polyline clip-path="url(#clip843)" style="stroke:#009af9; stroke-linecap:round; stroke-linejoin:round; stroke-width:4; stroke-opacity:1; fill:none" points="240.392,1134.89 242.445,1119.97 244.498,1185.05 246.55,1145.37 248.603,1147.46 250.656,1149.38 252.709,1171.33 254.762,1243.35 256.815,1242.75 258.868,1256.06 260.921,1135.24 262.974,1130.59 265.027,1066.79 267.079,1329.26 269.132,1283.24 271.185,1275.62 273.238,1015.81 275.291,1438.97 277.344,1077.27 279.397,1110.32 281.45,1176.61 283.503,1241.11 285.555,1115.41 287.608,935.141 289.661,969.146 291.714,1432.47 293.767,898.503 295.82,522.988 297.873,1350.01 299.926,1235.26 301.979,1193.57 304.031,1154.93 306.084,1156.94 308.137,1169.74 310.19,1138.62 312.243,1155.82 314.296,1221.82 316.349,1134.15 318.402,1210.17 320.455,1151.41 322.507,1165.52 324.56,1062.96 326.613,1148.05 328.666,1127.67 330.719,1176.46 332.772,1189.84 334.825,1172.76 336.878,1124.89 338.931,1075.43 340.984,1355.88 343.036,1696.6 345.089,1197.16 347.142,1132.44 349.195,1129.72 351.248,2154.04 353.301,-3149.8 355.354,3815.02 357.407,3550.33 359.46,-4956.35 361.512,5724.26 363.565,2621.22 365.618,1473.44 367.671,2161.47 369.724,797.746 371.777,1534.04 373.83,1031.16 375.883,1243.14 377.936,1377.45 379.988,1040.84 382.041,1341.89 384.094,1050 386.147,1143.39 388.2,1203.6 390.253,1208.57 392.306,1201.39 394.359,1100.17 396.412,1084.82 398.464,1206.3 400.517,1207.41 402.57,1004.58 404.623,-899.733 406.676,273.967 408.729,1423.42 410.782,1387.19 412.835,858.912 414.888,1359.55 416.94,1158.97 418.993,1369.77 421.046,1168.2 423.099,951.38 425.152,1282.09 427.205,1230.91 429.258,1307.01 431.311,1292.07 433.364,953.715 435.417,1147.19 437.469,1185.97 439.522,1180.59 441.575,1206.49 443.628,1160.01 445.681,1173.74 447.734,1207.83 449.787,1195.85 451.84,1184.41 453.893,1138.1 455.945,1194.44 457.998,1186.48 460.051,1197.55 462.104,1164.1 464.157,1174.74 466.21,1168.96 468.263,1209.84 470.316,1178.54 472.369,1195.16 474.421,1230.88 476.474,1156.76 478.527,1181.63 480.58,1149.18 482.633,1137.99 484.686,1088.69 486.739,1129.64 488.792,1190.47 490.845,1126.25 492.897,1183.61 494.95,1181.73 497.003,1132.33 499.056,1125.75 501.109,1133.27 503.162,1183.53 505.215,1173.27 507.268,1160.77 509.321,1163.36 511.374,1160.51 513.426,1155.39 515.479,1069.75 517.532,1141.14 519.585,930.861 521.638,1053.5 523.691,1166.95 525.744,1145.07 527.797,1174.23 529.85,1161.72 531.902,1143.74 533.955,1218.59 536.008,1219.5 538.061,1085.35 540.114,1430.77 542.167,1153.28 544.22,1193.66 546.273,1223.47 548.326,1203.06 550.378,1182.8 552.431,1238.39 554.484,1123.92 556.537,1209.64 558.59,1113.46 560.643,1221.35 562.696,1158.88 564.749,1180.55 566.802,1156.82 568.854,1105.8 570.907,1135.85 572.96,1185.13 575.013,1155.51 577.066,1142.27 579.119,1156.65 581.172,1190.09 583.225,1155.66 585.278,1121.44 587.331,1120.24 589.383,1111.21 591.436,1189.76 593.489,1205.63 595.542,1183.31 597.595,1195.04 599.648,1170.52 601.701,1157.59 603.754,1150.02 605.807,1099.63 607.859,1211.91 609.912,1392.78 611.965,1561.65 614.018,904.432 616.071,1443.67 618.124,951.19 620.177,753.185 622.23,1189.94 624.283,1258.37 626.335,1171.4 628.388,1170.37 630.441,1164.7 632.494,1217.79 634.547,1159.52 636.6,1172.58 638.653,1187.95 640.706,1134.75 642.759,1172.97 644.811,1180.87 646.864,1180.44 648.917,1204.11 650.97,1138.17 653.023,1191.93 655.076,1127.25 657.129,1184.53 659.182,1205.58 661.235,1178.88 663.288,1183.84 665.34,1191.09 667.393,1189.96 669.446,1116.16 671.499,1141.58 673.552,1189.34 675.605,1150.08 677.658,1120.86 679.711,1091.56 681.764,1215.68 683.816,1055.97 685.869,1181.54 687.922,1182.28 689.975,1172.72 692.028,1153.42 694.081,1116.14 696.134,1137.08 698.187,1180.69 700.24,1130.98 702.292,1161.5 704.345,1208.94 706.398,1272.01 708.451,1456.67 710.504,1136.2 712.557,1224.12 714.61,1168.98 716.663,1120.04 718.716,1177.27 720.768,1539.79 722.821,507.346 724.874,1431.5 726.927,1118.56 728.98,1288.9 731.033,1262.45 733.086,1155.36 735.139,1163.33 737.192,1186.61 739.245,1202.33 741.297,1090.36 743.35,1089.61 745.403,1179.01 747.456,1166.04 749.509,1155.8 751.562,1184.25 753.615,1129.16 755.668,1167.83 757.721,1229.66 759.773,1155.36 761.826,1123.56 763.879,1156.93 765.932,1213.68 767.985,1137.38 770.038,1166.98 772.091,1162.71 774.144,1160.58 776.197,1183.27 778.249,1150.98 780.302,1154.73 782.355,1097.02 784.408,1128.81 786.461,1151.69 788.514,1214.64 790.567,1182.33 792.62,1178 794.673,1095.22 796.725,1133.81 798.778,1148.16 800.831,1233.03 802.884,1218.95 804.937,1198.51 806.99,1204.41 809.043,1133.41 811.096,1147.58 813.149,1187.05 815.202,1179.24 817.254,1175.07 819.307,1154.78 821.36,1103.62 823.413,1160.61 825.466,1122.39 827.519,1134.73 829.572,1165.67 831.625,1166.43 833.678,1146.38 835.73,1151.98 837.783,1223.25 839.836,1201.5 841.889,1128.04 843.942,1123.78 845.995,1147.94 848.048,1124.67 850.101,1141.04 852.154,1104.51 854.206,1153.81 856.259,1268.16 858.312,1215.8 860.365,900.042 862.418,1567.08 864.471,1561.13 866.524,1151.33 868.577,1159.25 870.63,1180.94 872.682,1139.63 874.735,1173.6 876.788,1090.02 878.841,1242.17 880.894,1183.81 882.947,1126.92 885,1169.97 887.053,1197.73 889.106,1251.37 891.159,1260.19 893.211,1213.12 895.264,1244.94 897.317,1095.44 899.37,1189.69 901.423,1056.52 903.476,1246.19 905.529,1110.12 907.582,1167.46 909.635,1161 911.687,1168.02 913.74,1170.54 915.793,1124.02 917.846,1155.77 919.899,1174.48 921.952,1148.09 924.005,1188.76 926.058,1158.48 928.111,1253.12 930.163,1212.91 932.216,1161.78 934.269,1298.02 936.322,1194.08 938.375,1147.19 940.428,1170.62 942.481,1149.65 944.534,970.83 946.587,921.378 948.639,1662.4 950.692,151.451 952.745,1532.85 954.798,119.378 956.851,1769.8 958.904,823.198 960.957,991.754 963.01,1475.91 965.063,1298.64 967.116,971.394 969.168,1397.68 971.221,1210.18 973.274,1168.3 975.327,1166.5 977.38,1097.09 979.433,1247.37 981.486,1212.35 983.539,850.923 985.592,777.436 987.644,1420.38 989.697,1261.25 991.75,1227.08 993.803,1150 995.856,1044.8 997.909,1261.75 999.962,1088.47 1002.01,1190.11 1004.07,1110.25 1006.12,1080.58 1008.17,1230.07 1010.23,1188.2 1012.28,775.196 1014.33,818.165 1016.38,1309.22 1018.44,1014.92 1020.49,1159.89 1022.54,1281.45 1024.6,1021.97 1026.65,1574.24 1028.7,1190.92 1030.76,1309.26 1032.81,1227.38 1034.86,1298.33 1036.91,1134.61 1038.97,1132.86 1041.02,1202.66 1043.07,1245.73 1045.13,1202.61 1047.18,1198.59 1049.23,1115.88 1051.28,1285.04 1053.34,1135.01 1055.39,1252.25 1057.44,1296.89 1059.5,1339.21 1061.55,1252.8 1063.6,1156.64 1065.65,1138.22 1067.71,1261.94 1069.76,1172.64 1071.81,1195.86 1073.87,1103.22 1075.92,1179.9 1077.97,1195.15 1080.02,1151.28 1082.08,1151.67 1084.13,784.931 1086.18,1477.56 1088.24,1282.6 1090.29,1024.67 1092.34,1160.88 1094.39,1166.63 1096.45,1151.6 1098.5,1187.95 1100.55,1191.82 1102.61,1160.11 1104.66,1176.49 1106.71,1135.81 1108.77,1203.68 1110.82,1189.74 1112.87,1163.72 1114.92,1140.19 1116.98,1099.86 1119.03,1180.66 1121.08,1164.47 1123.14,1171.71 1125.19,1435.18 1127.24,1356.66 1129.29,1229.18 1131.35,984.129 1133.4,2121.35 1135.45,1114.91 1137.51,1303.72 1139.56,-1278.17 1141.61,11574.2 1143.66,695.246 1145.72,1381.2 1147.77,1480.77 1149.82,1099.83 1151.88,1173.34 1153.93,1146.1 1155.98,1254.25 1158.03,1188.87 1160.09,1235.17 1162.14,1152.07 1164.19,1140.45 1166.25,1124.35 1168.3,1188.39 1170.35,1175.67 1172.4,1114.88 1174.46,1204.82 1176.51,1171.6 1178.56,1169.5 1180.62,1171.83 1182.67,1159.81 1184.72,1056.53 1186.77,1025.31 1188.83,1286.23 1190.88,1105.95 1192.93,1156.11 1194.99,1145.31 1197.04,1160.29 1199.09,1173.31 1201.15,1193.86 1203.2,1223.54 1205.25,1064.24 1207.3,1101.98 1209.36,1151.84 1211.41,1197.15 1213.46,1103.09 1215.52,1169.23 1217.57,1151.02 1219.62,1233.01 1221.67,1168.78 1223.73,1292.28 1225.78,1077.59 1227.83,1237.98 1229.89,1174.5 1231.94,1163.47 1233.99,1155.58 1236.04,1174.39 1238.1,1176.99 1240.15,1152.89 1242.2,1336.6 1244.26,673.254 1246.31,1166.01 1248.36,1176.63 1250.41,1193.83 1252.47,1165.24 1254.52,1149.56 1256.57,1170.35 1258.63,1106.52 1260.68,1161.9 1262.73,1163.49 1264.78,1163.62 1266.84,1152.53 1268.89,1174.14 1270.94,1183.27 1273,1159.43 1275.05,1239.17 1277.1,1150.67 1279.16,1166.78 1281.21,1121.78 1283.26,1097.18 1285.31,1123.5 1287.37,1153.55 1289.42,1270.09 1291.47,1160.58 1293.53,1078.03 1295.58,1168.91 1297.63,1177.73 1299.68,1215.02 1301.74,1160.26 1303.79,1187.45 1305.84,1104.85 1307.9,1246.24 1309.95,1162.2 1312,1136.14 1314.05,1216.85 1316.11,1144.54 1318.16,1136.88 1320.21,1116.16 1322.27,1228.89 1324.32,1287.2 1326.37,1121.7 1328.42,1230.5 1330.48,1194.9 1332.53,1131.17 1334.58,1173.52 1336.64,1146.95 1338.69,1210.41 1340.74,1142.73 1342.79,1150.92 1344.85,1152.73 1346.9,1192.08 1348.95,1151.92 1351.01,1142.13 1353.06,1195.7 1355.11,1177.72 1357.16,1161.05 1359.22,1201.09 1361.27,1172.66 1363.32,1161.26 1365.38,1144.83 1367.43,1145.38 1369.48,1145.23 1371.54,1203.6 1373.59,1223.41 1375.64,1153 1377.69,1155.41 1379.75,1158.62 1381.8,1230.3 1383.85,1174.32 1385.91,1155.91 1387.96,1156.9 1390.01,1179.89 1392.06,1217.7 1394.12,1099.42 1396.17,1099.66 1398.22,1241.55 1400.28,1122.25 1402.33,1186 1404.38,1313.26 1406.43,849.771 1408.49,1214.79 1410.54,1138.89 1412.59,1193.22 1414.65,1146.99 1416.7,1237.87 1418.75,1163.06 1420.8,1210.28 1422.86,1125.25 1424.91,1056.28 1426.96,1209.04 1429.02,1242.77 1431.07,1179.2 1433.12,1179.17 1435.17,1122.22 1437.23,1664.31 1439.28,1233.23 1441.33,1124.17 1443.39,978.564 1445.44,1396.64 1447.49,725.641 1449.55,1165.33 1451.6,1172.91 1453.65,1081.53 1455.7,1164.56 1457.76,1089.1 1459.81,910.932 1461.86,1129.89 1463.92,1367.99 1465.97,1298.69 1468.02,1218.61 1470.07,1262 1472.13,1182.41 1474.18,1104.75 1476.23,1184.08 1478.29,1183.4 1480.34,1156.56 1482.39,1189.92 1484.44,1187.68 1486.5,1153.56 1488.55,1176.3 1490.6,1180.33 1492.66,1247.09 1494.71,1208.44 1496.76,1156.39 1498.81,1256.89 1500.87,1346.51 1502.92,1345.35 1504.97,1109 1507.03,1010.86 1509.08,1048.86 1511.13,1176.26 1513.18,1171.65 1515.24,1176.91 1517.29,1162.15 1519.34,1145.41 1521.4,1063.9 1523.45,1115.11 1525.5,1121.87 1527.55,1185.47 1529.61,1145.05 1531.66,1292.84 1533.71,1044.08 1535.77,1169.16 1537.82,1105.87 1539.87,1121.05 1541.93,1176.57 1543.98,1201.88 1546.03,1134.53 1548.08,1193.33 1550.14,1143.55 1552.19,1263.18 1554.24,1175.86 1556.3,1189.2 1558.35,1185.98 1560.4,1208.39 1562.45,983.052 1564.51,1310.96 1566.56,1176.28 1568.61,1104.14 1570.67,1387.66 1572.72,1299.2 1574.77,1283.54 1576.82,1287.57 1578.88,1219.94 1580.93,1212.67 1582.98,1143.3 1585.04,1191.49 1587.09,1140.79 1589.14,1100.74 1591.19,1163.52 1593.25,1169.73 1595.3,1147.47 1597.35,1189.08 1599.41,1173.25 1601.46,1157.6 1603.51,346.904 1605.56,2224.68 1607.62,2185.84 1609.67,709.266 1611.72,994.83 1613.78,2190.71 1615.83,-207.504 1617.88,663.199 1619.94,1246.65 1621.99,1212.32 1624.04,1135.62 1626.09,1142.63 1628.15,1270.33 1630.2,1218.09 1632.25,1226.06 1634.31,1096.26 1636.36,1174.04 1638.41,1183.48 1640.46,1185 1642.52,1250.49 1644.57,1152.31 1646.62,1152.59 1648.68,1174.39 1650.73,1160.68 1652.78,1173.54 1654.83,1163.03 1656.89,1168.22 1658.94,1166.5 1660.99,1163.37 1663.05,1110.93 1665.1,1254.03 1667.15,1183.88 1669.2,1188.23 1671.26,1148.87 1673.31,1175.95 1675.36,1161.89 1677.42,1185.4 1679.47,1173.26 1681.52,1147.9 1683.57,1180.85 1685.63,1176.85 1687.68,1192.21 1689.73,1178.95 1691.79,1197.75 1693.84,1078 1695.89,1320.46 1697.94,1231.64 1700,1238.98 1702.05,1220.48 1704.1,1188.04 1706.16,1205.2 1708.21,1143.19 1710.26,1164.29 1712.32,1134.26 1714.37,1121.36 1716.42,1110.57 1718.47,1441.31 1720.53,1351.98 1722.58,886.656 1724.63,1410.5 1726.69,862.6 1728.74,1508.88 1730.79,1160.86 1732.84,1249.55 1734.9,1174.91 1736.95,1289.11 1739,877.804 1741.06,1301.35 1743.11,1156.22 1745.16,2132.03 1747.21,1446.03 1749.27,670.175 1751.32,7918.93 1753.37,12172.3 1755.43,-7891.82 1757.48,-10851.4 1759.53,-9796.68 1761.58,6832.82 1763.64,388.1 1765.69,3061.46 1767.74,2085.55 1769.8,-2483.26 1771.85,5010.78 1773.9,6163.29 1775.95,-1445.41 1778.01,-2680.42 1780.06,3450.79 1782.11,10262.4 1784.17,1441.13 1786.22,1743.9 1788.27,1338.87 1790.33,1389.7 1792.38,1291.78 1794.43,851.118 1796.48,1160.38 1798.54,1957.72 1800.59,967.495 1802.64,1134.78 1804.7,1206.22 1806.75,1190.68 1808.8,1246.16 1810.85,1180 1812.91,1154.81 1814.96,1183.23 1817.01,1141.28 1819.07,1199.63 1821.12,1125.73 1823.17,1185.9 1825.22,1175.8 1827.28,1215.19 1829.33,1041.51 1831.38,1185.22 1833.44,1205.05 1835.49,1162.58 1837.54,1183.51 1839.59,1106.2 1841.65,1122.79 1843.7,1975.55 1845.75,2396.31 1847.81,606.451 1849.86,630.228 1851.91,944.317 1853.96,1034.61 1856.02,1186.97 1858.07,1155.46 1860.12,1193.52 1862.18,1184.29 1864.23,987.825 1866.28,990.384 1868.34,1206.3 1870.39,1273.83 1872.44,1155.33 1874.49,1271.59 1876.55,1135.5 1878.6,1088.94 1880.65,1221.85 1882.71,1195.08 1884.76,1181.47 1886.81,1104.01 1888.86,1207.14 1890.92,1178.87 1892.97,1130.37 1895.02,1221.74 1897.08,1136.53 1899.13,1194.03 1901.18,1232.93 1903.23,1123.68 1905.29,1136.43 1907.34,1066.66 1909.39,1002.26 1911.45,1095.39 1913.5,1084.07 1915.55,1238.12 1917.6,1161.05 1919.66,1098.7 1921.71,1368.96 1923.76,1076.27 1925.82,1223.41 1927.87,1170.23 1929.92,1164.64 1931.97,1189.17 1934.03,1202.82 1936.08,1138.46 1938.13,1184.02 1940.19,1194.48 1942.24,1198.39 1944.29,1075.45 1946.34,1145.64 1948.4,1052.02 1950.45,1172.72 1952.5,1252.94 1954.56,1160.62 1956.61,1068.28 1958.66,1319.97 1960.72,961.312 1962.77,473.209 1964.82,1127.99 1966.87,1096.04 1968.93,1271.17 1970.98,1140.46 1973.03,1220.09 1975.09,1220.44 1977.14,1170.12 1979.19,1161.97 1981.24,1207.37 1983.3,1189.01 1985.35,1186.73 1987.4,810.003 1989.46,1412.83 1991.51,1166.7 1993.56,1162.85 1995.61,1178.75 1997.67,1173.67 1999.72,1161.92 2001.77,1185.06 2003.83,1147.19 2005.88,1179.27 2007.93,1158.43 2009.98,1170.46 2012.04,1172.55 2014.09,1157.96 2016.14,1167.64 2018.2,1195.13 2020.25,1147.3 2022.3,1147.48 2024.35,1148.26 2026.41,1159.1 2028.46,1167.1 2030.51,1070.87 2032.57,1318.34 2034.62,1051.97 2036.67,1025.64 2038.73,1093.31 2040.78,1138.82 2042.83,1079.99 2044.88,1405.85 2046.94,1156.79 2048.99,1103.59 2051.04,1200.3 2053.1,1137.74 2055.15,1163.87 2057.2,1159.96 2059.25,1172.01 2061.31,1174.02 2063.36,1142.11 2065.41,1213.97 2067.47,1162.65 2069.52,1176.32 2071.57,1182.11 2073.62,1163.4 2075.68,1187.12 2077.73,1168.02 2079.78,1166.78 2081.84,1156.35 2083.89,1205.53 2085.94,1115.44 2087.99,1081.16 2090.05,1165.18 2092.1,1216.9 2094.15,1180.49 2096.21,1175.18 2098.26,1177.52 2100.31,1161.2 2102.36,1215.76 2104.42,1178.68 2106.47,1160.33 2108.52,1196.47 2110.58,1195.42 2112.63,1179.43 2114.68,1174.2 2116.73,1205.28 2118.79,1114.77 2120.84,1061.91 2122.89,1106.21 2124.95,1171.14 2127,1043.52 2129.05,1146.34 2131.11,1126.51 2133.16,1159.26 2135.21,1177.71 2137.26,1185.71 2139.32,1107.92 2141.37,1121.59 2143.42,1119.77 2145.48,1214.08 2147.53,1131.73 2149.58,1102.59 2151.63,1195.89 2153.69,1032.69 2155.74,1052.47 2157.79,1198.92 2159.85,1245.67 2161.9,1549.96 2163.95,2190.68 2166,790.06 2168.06,1177.64 2170.11,975.658 2172.16,1512.98 2174.22,1243.32 2176.27,1195.86 2178.32,1256.76 2180.37,1217.89 2182.43,1495.99 2184.48,1319.69 2186.53,1218.27 2188.59,1120.13 2190.64,1112.58 2192.69,1118.22 2194.74,1260.23 2196.8,974.608 2198.85,869.12 2200.9,-82.8242 2202.96,1721.33 2205.01,1202.99 2207.06,1287.46 2209.12,1151.02 2211.17,855.421 2213.22,1200.6 2215.27,1151.32 2217.33,1155.16 2219.38,995.023 2221.43,1415.37 2223.49,-2155.35 2225.54,-898.222 2227.59,1083.47 2229.64,1183 2231.7,1134.74 2233.75,1171.23 2235.8,1177.59 2237.86,1128.51 2239.91,1131.79 2241.96,1215.52 2244.01,1110.58 2246.07,1193.52 2248.12,1342.11 2250.17,1289.16 2252.23,1231.31 2254.28,1107.99 2256.33,1268.91 2258.38,1015.46 2260.44,1421.38 2262.49,1029.33 2264.54,1260.13 2266.6,1161.48 2268.65,1163.69 2270.7,1154.53 2272.75,1161.81 2274.81,1057.79 2276.86,1040.17 2278.91,1086.35 2280.97,1227.96 2283.02,1140.61 2285.07,1152.96 2287.12,1181.84 2289.18,1167.24 2291.23,1176.58 "/>
<path clip-path="url(#clip840)" d="M1942.7 1465.14 L2280.29 1465.14 L2280.29 1361.46 L1942.7 1361.46  Z" fill="#ffffff" fill-rule="evenodd" fill-opacity="1"/>
<polyline clip-path="url(#clip840)" style="stroke:#000000; stroke-linecap:round; stroke-linejoin:round; stroke-width:4; stroke-opacity:1; fill:none" points="1942.7,1465.14 2280.29,1465.14 2280.29,1361.46 1942.7,1361.46 1942.7,1465.14 "/>
<polyline clip-path="url(#clip840)" style="stroke:#009af9; stroke-linecap:round; stroke-linejoin:round; stroke-width:4; stroke-opacity:1; fill:none" points="1966.85,1413.3 2111.78,1413.3 "/>
<path clip-path="url(#clip840)" d="M2161.49 1425.65 L2161.49 1416.37 L2153.85 1416.37 L2153.85 1412.53 L2166.12 1412.53 L2166.12 1427.36 Q2163.41 1429.28 2160.14 1430.28 Q2156.88 1431.25 2153.18 1431.25 Q2145.07 1431.25 2140.49 1426.53 Q2135.93 1421.78 2135.93 1413.34 Q2135.93 1404.86 2140.49 1400.14 Q2145.07 1395.4 2153.18 1395.4 Q2156.56 1395.4 2159.59 1396.23 Q2162.64 1397.06 2165.21 1398.68 L2165.21 1403.66 Q2162.62 1401.46 2159.7 1400.35 Q2156.79 1399.24 2153.57 1399.24 Q2147.23 1399.24 2144.03 1402.78 Q2140.86 1406.32 2140.86 1413.34 Q2140.86 1420.33 2144.03 1423.87 Q2147.23 1427.41 2153.57 1427.41 Q2156.05 1427.41 2157.99 1426.99 Q2159.94 1426.55 2161.49 1425.65 Z" fill="#000000" fill-rule="nonzero" fill-opacity="1" /><path clip-path="url(#clip840)" d="M2179.33 1399.86 L2179.33 1412.85 L2185.21 1412.85 Q2188.48 1412.85 2190.26 1411.16 Q2192.04 1409.47 2192.04 1406.35 Q2192.04 1403.24 2190.26 1401.55 Q2188.48 1399.86 2185.21 1399.86 L2179.33 1399.86 M2174.66 1396.02 L2185.21 1396.02 Q2191.02 1396.02 2193.99 1398.66 Q2196.97 1401.28 2196.97 1406.35 Q2196.97 1411.46 2193.99 1414.08 Q2191.02 1416.69 2185.21 1416.69 L2179.33 1416.69 L2179.33 1430.58 L2174.66 1430.58 L2174.66 1396.02 Z" fill="#000000" fill-rule="nonzero" fill-opacity="1" /><path clip-path="url(#clip840)" d="M2223.96 1397.16 L2223.96 1401.72 Q2221.3 1400.44 2218.94 1399.82 Q2216.58 1399.19 2214.38 1399.19 Q2210.56 1399.19 2208.48 1400.67 Q2206.42 1402.16 2206.42 1404.89 Q2206.42 1407.18 2207.78 1408.36 Q2209.17 1409.52 2213.01 1410.23 L2215.84 1410.81 Q2221.07 1411.81 2223.55 1414.33 Q2226.05 1416.83 2226.05 1421.04 Q2226.05 1426.07 2222.67 1428.66 Q2219.31 1431.25 2212.81 1431.25 Q2210.35 1431.25 2207.57 1430.7 Q2204.82 1430.14 2201.86 1429.05 L2201.86 1424.24 Q2204.7 1425.84 2207.44 1426.65 Q2210.17 1427.46 2212.81 1427.46 Q2216.81 1427.46 2218.99 1425.88 Q2221.16 1424.31 2221.16 1421.39 Q2221.16 1418.85 2219.59 1417.41 Q2218.04 1415.97 2214.47 1415.26 L2211.62 1414.7 Q2206.39 1413.66 2204.06 1411.44 Q2201.72 1409.22 2201.72 1405.26 Q2201.72 1400.67 2204.94 1398.03 Q2208.18 1395.4 2213.85 1395.4 Q2216.28 1395.4 2218.8 1395.84 Q2221.32 1396.28 2223.96 1397.16 Z" fill="#000000" fill-rule="nonzero" fill-opacity="1" /><path clip-path="url(#clip840)" d="M2254.06 1397.16 L2254.06 1401.72 Q2251.39 1400.44 2249.03 1399.82 Q2246.67 1399.19 2244.47 1399.19 Q2240.65 1399.19 2238.57 1400.67 Q2236.51 1402.16 2236.51 1404.89 Q2236.51 1407.18 2237.87 1408.36 Q2239.26 1409.52 2243.11 1410.23 L2245.93 1410.81 Q2251.16 1411.81 2253.64 1414.33 Q2256.14 1416.83 2256.14 1421.04 Q2256.14 1426.07 2252.76 1428.66 Q2249.4 1431.25 2242.9 1431.25 Q2240.44 1431.25 2237.67 1430.7 Q2234.91 1430.14 2231.95 1429.05 L2231.95 1424.24 Q2234.8 1425.84 2237.53 1426.65 Q2240.26 1427.46 2242.9 1427.46 Q2246.9 1427.46 2249.08 1425.88 Q2251.25 1424.31 2251.25 1421.39 Q2251.25 1418.85 2249.68 1417.41 Q2248.13 1415.97 2244.56 1415.26 L2241.72 1414.7 Q2236.49 1413.66 2234.15 1411.44 Q2231.81 1409.22 2231.81 1405.26 Q2231.81 1400.67 2235.03 1398.03 Q2238.27 1395.4 2243.94 1395.4 Q2246.37 1395.4 2248.89 1395.84 Q2251.42 1396.28 2254.06 1397.16 Z" fill="#000000" fill-rule="nonzero" fill-opacity="1" /></svg>
