<?xml version="1.0" encoding="utf-8"?>
<svg xmlns="http://www.w3.org/2000/svg" xmlns:xlink="http://www.w3.org/1999/xlink" width="600" height="400" viewBox="0 0 2400 1600">
<defs>
  <clipPath id="clip290">
    <rect x="0" y="0" width="2400" height="1600"/>
  </clipPath>
</defs>
<path clip-path="url(#clip290)" d="M0 1600 L2400 1600 L2400 0 L0 0  Z" fill="#ffffff" fill-rule="evenodd" fill-opacity="1"/>
<defs>
  <clipPath id="clip291">
    <rect x="480" y="0" width="1681" height="1600"/>
  </clipPath>
</defs>
<path clip-path="url(#clip290)" d="M178.867 686.448 L2352.76 686.448 L2352.76 47.2441 L178.867 47.2441  Z" fill="#ffffff" fill-rule="evenodd" fill-opacity="1"/>
<defs>
  <clipPath id="clip292">
    <rect x="178" y="47" width="2175" height="640"/>
  </clipPath>
</defs>
<polyline clip-path="url(#clip292)" style="stroke:#000000; stroke-linecap:round; stroke-linejoin:round; stroke-width:2; stroke-opacity:0.1; fill:none" points="238.339,686.448 238.339,47.2441 "/>
<polyline clip-path="url(#clip292)" style="stroke:#000000; stroke-linecap:round; stroke-linejoin:round; stroke-width:2; stroke-opacity:0.1; fill:none" points="751.562,686.448 751.562,47.2441 "/>
<polyline clip-path="url(#clip292)" style="stroke:#000000; stroke-linecap:round; stroke-linejoin:round; stroke-width:2; stroke-opacity:0.1; fill:none" points="1264.78,686.448 1264.78,47.2441 "/>
<polyline clip-path="url(#clip292)" style="stroke:#000000; stroke-linecap:round; stroke-linejoin:round; stroke-width:2; stroke-opacity:0.1; fill:none" points="1778.01,686.448 1778.01,47.2441 "/>
<polyline clip-path="url(#clip292)" style="stroke:#000000; stroke-linecap:round; stroke-linejoin:round; stroke-width:2; stroke-opacity:0.1; fill:none" points="2291.23,686.448 2291.23,47.2441 "/>
<polyline clip-path="url(#clip292)" style="stroke:#000000; stroke-linecap:round; stroke-linejoin:round; stroke-width:2; stroke-opacity:0.1; fill:none" points="178.867,686.448 2352.76,686.448 "/>
<polyline clip-path="url(#clip292)" style="stroke:#000000; stroke-linecap:round; stroke-linejoin:round; stroke-width:2; stroke-opacity:0.1; fill:none" points="178.867,526.647 2352.76,526.647 "/>
<polyline clip-path="url(#clip292)" style="stroke:#000000; stroke-linecap:round; stroke-linejoin:round; stroke-width:2; stroke-opacity:0.1; fill:none" points="178.867,366.846 2352.76,366.846 "/>
<polyline clip-path="url(#clip292)" style="stroke:#000000; stroke-linecap:round; stroke-linejoin:round; stroke-width:2; stroke-opacity:0.1; fill:none" points="178.867,207.045 2352.76,207.045 "/>
<polyline clip-path="url(#clip292)" style="stroke:#000000; stroke-linecap:round; stroke-linejoin:round; stroke-width:2; stroke-opacity:0.1; fill:none" points="178.867,47.2441 2352.76,47.2441 "/>
<polyline clip-path="url(#clip290)" style="stroke:#000000; stroke-linecap:round; stroke-linejoin:round; stroke-width:4; stroke-opacity:1; fill:none" points="178.867,686.448 2352.76,686.448 "/>
<polyline clip-path="url(#clip290)" style="stroke:#000000; stroke-linecap:round; stroke-linejoin:round; stroke-width:4; stroke-opacity:1; fill:none" points="238.339,686.448 238.339,667.55 "/>
<polyline clip-path="url(#clip290)" style="stroke:#000000; stroke-linecap:round; stroke-linejoin:round; stroke-width:4; stroke-opacity:1; fill:none" points="751.562,686.448 751.562,667.55 "/>
<polyline clip-path="url(#clip290)" style="stroke:#000000; stroke-linecap:round; stroke-linejoin:round; stroke-width:4; stroke-opacity:1; fill:none" points="1264.78,686.448 1264.78,667.55 "/>
<polyline clip-path="url(#clip290)" style="stroke:#000000; stroke-linecap:round; stroke-linejoin:round; stroke-width:4; stroke-opacity:1; fill:none" points="1778.01,686.448 1778.01,667.55 "/>
<polyline clip-path="url(#clip290)" style="stroke:#000000; stroke-linecap:round; stroke-linejoin:round; stroke-width:4; stroke-opacity:1; fill:none" points="2291.23,686.448 2291.23,667.55 "/>
<path clip-path="url(#clip290)" d="M238.339 717.367 Q234.728 717.367 232.899 720.931 Q231.094 724.473 231.094 731.603 Q231.094 738.709 232.899 742.274 Q234.728 745.815 238.339 745.815 Q241.973 745.815 243.779 742.274 Q245.607 738.709 245.607 731.603 Q245.607 724.473 243.779 720.931 Q241.973 717.367 238.339 717.367 M238.339 713.663 Q244.149 713.663 247.205 718.269 Q250.283 722.853 250.283 731.603 Q250.283 740.329 247.205 744.936 Q244.149 749.519 238.339 749.519 Q232.529 749.519 229.45 744.936 Q226.395 740.329 226.395 731.603 Q226.395 722.853 229.45 718.269 Q232.529 713.663 238.339 713.663 Z" fill="#000000" fill-rule="nonzero" fill-opacity="1" /><path clip-path="url(#clip290)" d="M715.254 744.913 L731.574 744.913 L731.574 748.848 L709.629 748.848 L709.629 744.913 Q712.291 742.158 716.875 737.528 Q721.481 732.876 722.662 731.533 Q724.907 729.01 725.787 727.274 Q726.689 725.515 726.689 723.825 Q726.689 721.07 724.745 719.334 Q722.824 717.598 719.722 717.598 Q717.523 717.598 715.069 718.362 Q712.638 719.126 709.861 720.677 L709.861 715.955 Q712.685 714.82 715.138 714.242 Q717.592 713.663 719.629 713.663 Q725 713.663 728.194 716.348 Q731.388 719.033 731.388 723.524 Q731.388 725.654 730.578 727.575 Q729.791 729.473 727.685 732.066 Q727.106 732.737 724.004 735.954 Q720.902 739.149 715.254 744.913 Z" fill="#000000" fill-rule="nonzero" fill-opacity="1" /><path clip-path="url(#clip290)" d="M741.435 714.288 L759.791 714.288 L759.791 718.223 L745.717 718.223 L745.717 726.695 Q746.736 726.348 747.754 726.186 Q748.773 726.001 749.791 726.001 Q755.578 726.001 758.958 729.172 Q762.337 732.343 762.337 737.76 Q762.337 743.339 758.865 746.44 Q755.393 749.519 749.073 749.519 Q746.898 749.519 744.629 749.149 Q742.384 748.778 739.976 748.038 L739.976 743.339 Q742.06 744.473 744.282 745.028 Q746.504 745.584 748.981 745.584 Q752.985 745.584 755.323 743.478 Q757.661 741.371 757.661 737.76 Q757.661 734.149 755.323 732.042 Q752.985 729.936 748.981 729.936 Q747.106 729.936 745.231 730.353 Q743.379 730.769 741.435 731.649 L741.435 714.288 Z" fill="#000000" fill-rule="nonzero" fill-opacity="1" /><path clip-path="url(#clip290)" d="M781.55 717.367 Q777.939 717.367 776.11 720.931 Q774.305 724.473 774.305 731.603 Q774.305 738.709 776.11 742.274 Q777.939 745.815 781.55 745.815 Q785.184 745.815 786.99 742.274 Q788.819 738.709 788.819 731.603 Q788.819 724.473 786.99 720.931 Q785.184 717.367 781.55 717.367 M781.55 713.663 Q787.36 713.663 790.416 718.269 Q793.495 722.853 793.495 731.603 Q793.495 740.329 790.416 744.936 Q787.36 749.519 781.55 749.519 Q775.74 749.519 772.661 744.936 Q769.606 740.329 769.606 731.603 Q769.606 722.853 772.661 718.269 Q775.74 713.663 781.55 713.663 Z" fill="#000000" fill-rule="nonzero" fill-opacity="1" /><path clip-path="url(#clip290)" d="M1224.4 714.288 L1242.76 714.288 L1242.76 718.223 L1228.69 718.223 L1228.69 726.695 Q1229.7 726.348 1230.72 726.186 Q1231.74 726.001 1232.76 726.001 Q1238.55 726.001 1241.93 729.172 Q1245.31 732.343 1245.31 737.76 Q1245.31 743.339 1241.83 746.44 Q1238.36 749.519 1232.04 749.519 Q1229.87 749.519 1227.6 749.149 Q1225.35 748.778 1222.94 748.038 L1222.94 743.339 Q1225.03 744.473 1227.25 745.028 Q1229.47 745.584 1231.95 745.584 Q1235.95 745.584 1238.29 743.478 Q1240.63 741.371 1240.63 737.76 Q1240.63 734.149 1238.29 732.042 Q1235.95 729.936 1231.95 729.936 Q1230.07 729.936 1228.2 730.353 Q1226.35 730.769 1224.4 731.649 L1224.4 714.288 Z" fill="#000000" fill-rule="nonzero" fill-opacity="1" /><path clip-path="url(#clip290)" d="M1264.52 717.367 Q1260.91 717.367 1259.08 720.931 Q1257.27 724.473 1257.27 731.603 Q1257.27 738.709 1259.08 742.274 Q1260.91 745.815 1264.52 745.815 Q1268.15 745.815 1269.96 742.274 Q1271.79 738.709 1271.79 731.603 Q1271.79 724.473 1269.96 720.931 Q1268.15 717.367 1264.52 717.367 M1264.52 713.663 Q1270.33 713.663 1273.38 718.269 Q1276.46 722.853 1276.46 731.603 Q1276.46 740.329 1273.38 744.936 Q1270.33 749.519 1264.52 749.519 Q1258.71 749.519 1255.63 744.936 Q1252.57 740.329 1252.57 731.603 Q1252.57 722.853 1255.63 718.269 Q1258.71 713.663 1264.52 713.663 Z" fill="#000000" fill-rule="nonzero" fill-opacity="1" /><path clip-path="url(#clip290)" d="M1294.68 717.367 Q1291.07 717.367 1289.24 720.931 Q1287.44 724.473 1287.44 731.603 Q1287.44 738.709 1289.24 742.274 Q1291.07 745.815 1294.68 745.815 Q1298.31 745.815 1300.12 742.274 Q1301.95 738.709 1301.95 731.603 Q1301.95 724.473 1300.12 720.931 Q1298.31 717.367 1294.68 717.367 M1294.68 713.663 Q1300.49 713.663 1303.55 718.269 Q1306.62 722.853 1306.62 731.603 Q1306.62 740.329 1303.55 744.936 Q1300.49 749.519 1294.68 749.519 Q1288.87 749.519 1285.79 744.936 Q1282.74 740.329 1282.74 731.603 Q1282.74 722.853 1285.79 718.269 Q1288.87 713.663 1294.68 713.663 Z" fill="#000000" fill-rule="nonzero" fill-opacity="1" /><path clip-path="url(#clip290)" d="M1736.28 714.288 L1758.51 714.288 L1758.51 716.279 L1745.96 748.848 L1741.08 748.848 L1752.88 718.223 L1736.28 718.223 L1736.28 714.288 Z" fill="#000000" fill-rule="nonzero" fill-opacity="1" /><path clip-path="url(#clip290)" d="M1767.67 714.288 L1786.03 714.288 L1786.03 718.223 L1771.95 718.223 L1771.95 726.695 Q1772.97 726.348 1773.99 726.186 Q1775.01 726.001 1776.03 726.001 Q1781.82 726.001 1785.2 729.172 Q1788.57 732.343 1788.57 737.76 Q1788.57 743.339 1785.1 746.44 Q1781.63 749.519 1775.31 749.519 Q1773.14 749.519 1770.87 749.149 Q1768.62 748.778 1766.21 748.038 L1766.21 743.339 Q1768.3 744.473 1770.52 745.028 Q1772.74 745.584 1775.22 745.584 Q1779.22 745.584 1781.56 743.478 Q1783.9 741.371 1783.9 737.76 Q1783.9 734.149 1781.56 732.042 Q1779.22 729.936 1775.22 729.936 Q1773.34 729.936 1771.47 730.353 Q1769.62 730.769 1767.67 731.649 L1767.67 714.288 Z" fill="#000000" fill-rule="nonzero" fill-opacity="1" /><path clip-path="url(#clip290)" d="M1807.79 717.367 Q1804.18 717.367 1802.35 720.931 Q1800.54 724.473 1800.54 731.603 Q1800.54 738.709 1802.35 742.274 Q1804.18 745.815 1807.79 745.815 Q1811.42 745.815 1813.23 742.274 Q1815.06 738.709 1815.06 731.603 Q1815.06 724.473 1813.23 720.931 Q1811.42 717.367 1807.79 717.367 M1807.79 713.663 Q1813.6 713.663 1816.65 718.269 Q1819.73 722.853 1819.73 731.603 Q1819.73 740.329 1816.65 744.936 Q1813.6 749.519 1807.79 749.519 Q1801.98 749.519 1798.9 744.936 Q1795.84 740.329 1795.84 731.603 Q1795.84 722.853 1798.9 718.269 Q1801.98 713.663 1807.79 713.663 Z" fill="#000000" fill-rule="nonzero" fill-opacity="1" /><path clip-path="url(#clip290)" d="M2235.76 744.913 L2243.4 744.913 L2243.4 718.547 L2235.09 720.214 L2235.09 715.955 L2243.35 714.288 L2248.02 714.288 L2248.02 744.913 L2255.66 744.913 L2255.66 748.848 L2235.76 748.848 L2235.76 744.913 Z" fill="#000000" fill-rule="nonzero" fill-opacity="1" /><path clip-path="url(#clip290)" d="M2275.11 717.367 Q2271.5 717.367 2269.67 720.931 Q2267.86 724.473 2267.86 731.603 Q2267.86 738.709 2269.67 742.274 Q2271.5 745.815 2275.11 745.815 Q2278.74 745.815 2280.55 742.274 Q2282.38 738.709 2282.38 731.603 Q2282.38 724.473 2280.55 720.931 Q2278.74 717.367 2275.11 717.367 M2275.11 713.663 Q2280.92 713.663 2283.97 718.269 Q2287.05 722.853 2287.05 731.603 Q2287.05 740.329 2283.97 744.936 Q2280.92 749.519 2275.11 749.519 Q2269.3 749.519 2266.22 744.936 Q2263.16 740.329 2263.16 731.603 Q2263.16 722.853 2266.22 718.269 Q2269.3 713.663 2275.11 713.663 Z" fill="#000000" fill-rule="nonzero" fill-opacity="1" /><path clip-path="url(#clip290)" d="M2305.27 717.367 Q2301.66 717.367 2299.83 720.931 Q2298.02 724.473 2298.02 731.603 Q2298.02 738.709 2299.83 742.274 Q2301.66 745.815 2305.27 745.815 Q2308.9 745.815 2310.71 742.274 Q2312.54 738.709 2312.54 731.603 Q2312.54 724.473 2310.71 720.931 Q2308.9 717.367 2305.27 717.367 M2305.27 713.663 Q2311.08 713.663 2314.14 718.269 Q2317.21 722.853 2317.21 731.603 Q2317.21 740.329 2314.14 744.936 Q2311.08 749.519 2305.27 749.519 Q2299.46 749.519 2296.38 744.936 Q2293.33 740.329 2293.33 731.603 Q2293.33 722.853 2296.38 718.269 Q2299.46 713.663 2305.27 713.663 Z" fill="#000000" fill-rule="nonzero" fill-opacity="1" /><path clip-path="url(#clip290)" d="M2335.43 717.367 Q2331.82 717.367 2329.99 720.931 Q2328.19 724.473 2328.19 731.603 Q2328.19 738.709 2329.99 742.274 Q2331.82 745.815 2335.43 745.815 Q2339.07 745.815 2340.87 742.274 Q2342.7 738.709 2342.7 731.603 Q2342.7 724.473 2340.87 720.931 Q2339.07 717.367 2335.43 717.367 M2335.43 713.663 Q2341.24 713.663 2344.3 718.269 Q2347.38 722.853 2347.38 731.603 Q2347.38 740.329 2344.3 744.936 Q2341.24 749.519 2335.43 749.519 Q2329.62 749.519 2326.54 744.936 Q2323.49 740.329 2323.49 731.603 Q2323.49 722.853 2326.54 718.269 Q2329.62 713.663 2335.43 713.663 Z" fill="#000000" fill-rule="nonzero" fill-opacity="1" /><polyline clip-path="url(#clip290)" style="stroke:#000000; stroke-linecap:round; stroke-linejoin:round; stroke-width:4; stroke-opacity:1; fill:none" points="178.867,686.448 178.867,47.2441 "/>
<polyline clip-path="url(#clip290)" style="stroke:#000000; stroke-linecap:round; stroke-linejoin:round; stroke-width:4; stroke-opacity:1; fill:none" points="178.867,686.448 197.764,686.448 "/>
<polyline clip-path="url(#clip290)" style="stroke:#000000; stroke-linecap:round; stroke-linejoin:round; stroke-width:4; stroke-opacity:1; fill:none" points="178.867,526.647 197.764,526.647 "/>
<polyline clip-path="url(#clip290)" style="stroke:#000000; stroke-linecap:round; stroke-linejoin:round; stroke-width:4; stroke-opacity:1; fill:none" points="178.867,366.846 197.764,366.846 "/>
<polyline clip-path="url(#clip290)" style="stroke:#000000; stroke-linecap:round; stroke-linejoin:round; stroke-width:4; stroke-opacity:1; fill:none" points="178.867,207.045 197.764,207.045 "/>
<polyline clip-path="url(#clip290)" style="stroke:#000000; stroke-linecap:round; stroke-linejoin:round; stroke-width:4; stroke-opacity:1; fill:none" points="178.867,47.2441 197.764,47.2441 "/>
<path clip-path="url(#clip290)" d="M50.9921 686.899 L80.6679 686.899 L80.6679 690.834 L50.9921 690.834 L50.9921 686.899 Z" fill="#000000" fill-rule="nonzero" fill-opacity="1" /><path clip-path="url(#clip290)" d="M91.5706 699.793 L99.2095 699.793 L99.2095 673.427 L90.8993 675.094 L90.8993 670.835 L99.1632 669.168 L103.839 669.168 L103.839 699.793 L111.478 699.793 L111.478 703.728 L91.5706 703.728 L91.5706 699.793 Z" fill="#000000" fill-rule="nonzero" fill-opacity="1" /><path clip-path="url(#clip290)" d="M130.922 672.247 Q127.311 672.247 125.482 675.811 Q123.677 679.353 123.677 686.483 Q123.677 693.589 125.482 697.154 Q127.311 700.695 130.922 700.695 Q134.556 700.695 136.362 697.154 Q138.191 693.589 138.191 686.483 Q138.191 679.353 136.362 675.811 Q134.556 672.247 130.922 672.247 M130.922 668.543 Q136.732 668.543 139.788 673.149 Q142.867 677.733 142.867 686.483 Q142.867 695.209 139.788 699.816 Q136.732 704.399 130.922 704.399 Q125.112 704.399 122.033 699.816 Q118.978 695.209 118.978 686.483 Q118.978 677.733 122.033 673.149 Q125.112 668.543 130.922 668.543 Z" fill="#000000" fill-rule="nonzero" fill-opacity="1" /><path clip-path="url(#clip290)" d="M82.1494 527.098 L111.825 527.098 L111.825 531.033 L82.1494 531.033 L82.1494 527.098 Z" fill="#000000" fill-rule="nonzero" fill-opacity="1" /><path clip-path="url(#clip290)" d="M121.964 509.367 L140.32 509.367 L140.32 513.302 L126.246 513.302 L126.246 521.774 Q127.265 521.427 128.283 521.265 Q129.302 521.08 130.32 521.08 Q136.107 521.08 139.487 524.251 Q142.867 527.422 142.867 532.839 Q142.867 538.418 139.394 541.52 Q135.922 544.598 129.603 544.598 Q127.427 544.598 125.158 544.228 Q122.913 543.857 120.506 543.117 L120.506 538.418 Q122.589 539.552 124.811 540.108 Q127.033 540.663 129.51 540.663 Q133.515 540.663 135.853 538.557 Q138.191 536.45 138.191 532.839 Q138.191 529.228 135.853 527.121 Q133.515 525.015 129.51 525.015 Q127.635 525.015 125.76 525.432 Q123.908 525.848 121.964 526.728 L121.964 509.367 Z" fill="#000000" fill-rule="nonzero" fill-opacity="1" /><path clip-path="url(#clip290)" d="M130.922 352.645 Q127.311 352.645 125.482 356.209 Q123.677 359.751 123.677 366.881 Q123.677 373.987 125.482 377.552 Q127.311 381.094 130.922 381.094 Q134.556 381.094 136.362 377.552 Q138.191 373.987 138.191 366.881 Q138.191 359.751 136.362 356.209 Q134.556 352.645 130.922 352.645 M130.922 348.941 Q136.732 348.941 139.788 353.547 Q142.867 358.131 142.867 366.881 Q142.867 375.608 139.788 380.214 Q136.732 384.797 130.922 384.797 Q125.112 384.797 122.033 380.214 Q118.978 375.608 118.978 366.881 Q118.978 358.131 122.033 353.547 Q125.112 348.941 130.922 348.941 Z" fill="#000000" fill-rule="nonzero" fill-opacity="1" /><path clip-path="url(#clip290)" d="M121.964 189.765 L140.32 189.765 L140.32 193.7 L126.246 193.7 L126.246 202.172 Q127.265 201.825 128.283 201.663 Q129.302 201.478 130.32 201.478 Q136.107 201.478 139.487 204.649 Q142.867 207.82 142.867 213.237 Q142.867 218.816 139.394 221.918 Q135.922 224.996 129.603 224.996 Q127.427 224.996 125.158 224.626 Q122.913 224.256 120.506 223.515 L120.506 218.816 Q122.589 219.95 124.811 220.506 Q127.033 221.061 129.51 221.061 Q133.515 221.061 135.853 218.955 Q138.191 216.848 138.191 213.237 Q138.191 209.626 135.853 207.52 Q133.515 205.413 129.51 205.413 Q127.635 205.413 125.76 205.83 Q123.908 206.246 121.964 207.126 L121.964 189.765 Z" fill="#000000" fill-rule="nonzero" fill-opacity="1" /><path clip-path="url(#clip290)" d="M91.5706 60.5889 L99.2095 60.5889 L99.2095 34.2233 L90.8993 35.89 L90.8993 31.6308 L99.1632 29.9641 L103.839 29.9641 L103.839 60.5889 L111.478 60.5889 L111.478 64.5241 L91.5706 64.5241 L91.5706 60.5889 Z" fill="#000000" fill-rule="nonzero" fill-opacity="1" /><path clip-path="url(#clip290)" d="M130.922 33.0428 Q127.311 33.0428 125.482 36.6076 Q123.677 40.1492 123.677 47.2788 Q123.677 54.3853 125.482 57.9501 Q127.311 61.4917 130.922 61.4917 Q134.556 61.4917 136.362 57.9501 Q138.191 54.3853 138.191 47.2788 Q138.191 40.1492 136.362 36.6076 Q134.556 33.0428 130.922 33.0428 M130.922 29.3391 Q136.732 29.3391 139.788 33.9456 Q142.867 38.5289 142.867 47.2788 Q142.867 56.0056 139.788 60.6121 Q136.732 65.1954 130.922 65.1954 Q125.112 65.1954 122.033 60.6121 Q118.978 56.0056 118.978 47.2788 Q118.978 38.5289 122.033 33.9456 Q125.112 29.3391 130.922 29.3391 Z" fill="#000000" fill-rule="nonzero" fill-opacity="1" /><polyline clip-path="url(#clip292)" style="stroke:#009af9; stroke-linecap:round; stroke-linejoin:round; stroke-width:4; stroke-opacity:1; fill:none" points="240.392,334.886 242.445,332.893 244.498,348.8 246.55,348.091 248.603,347.512 250.656,347.999 252.709,351.757 254.762,351.586 256.815,342.389 258.868,342.328 260.921,341.686 262.974,337.157 265.027,355.146 267.079,341.977 269.132,342.49 271.185,380.311 273.238,380.157 275.291,378.552 277.344,379.174 279.397,378.519 281.45,376.368 283.503,376.367 285.555,376.929 287.608,339.045 289.661,351.719 291.714,357.441 293.767,368.773 295.82,384.268 297.873,379.869 299.926,380.012 301.979,382.487 304.031,383.441 306.084,383.434 308.137,351.598 310.19,353.293 312.243,372.789 314.296,369.96 316.349,371.993 318.402,367.699 320.455,365.354 322.507,366.003 324.56,366.001 326.613,366.352 328.666,366.379 330.719,366.6 332.772,366.606 334.825,366.39 336.878,366.349 338.931,366.349 340.984,372.784 343.036,374.383 345.089,370.516 347.142,375.536 349.195,375.537 351.248,376.25 353.301,390.015 355.354,363.555 357.407,363.514 359.46,354.648 361.512,354.522 363.565,353.29 365.618,351.044 367.671,348.032 369.724,347.283 371.777,347.317 373.83,350.225 375.883,350.063 377.936,392.603 379.988,383.215 382.041,378.087 384.094,380.086 386.147,379.29 388.2,377.379 390.253,377.613 392.306,379.275 394.359,380.748 396.412,381.268 398.464,383.802 400.517,391.385 402.57,357.316 404.623,402.459 406.676,395.972 408.729,368.217 410.782,369.397 412.835,365.767 414.888,349.705 416.94,376.927 418.993,377.389 421.046,381.325 423.099,382.735 425.152,382.889 427.205,382.841 429.258,382.965 431.311,382.358 433.364,382.487 435.417,385.468 437.469,386.259 439.522,389.136 441.575,378.981 443.628,375.512 445.681,362.877 447.734,359.724 449.787,359.795 451.84,357.098 453.893,353.087 455.945,351.322 457.998,351.744 460.051,341.569 462.104,343.335 464.157,346.781 466.21,346.543 468.263,347.62 470.316,345.231 472.369,347.257 474.421,334.45 476.474,334.235 478.527,334.88 480.58,366.19 482.633,368.142 484.686,381.234 486.739,359.637 488.792,365.206 490.845,364.176 492.897,383.964 494.95,383.889 497.003,385.013 499.056,384.928 501.109,384.479 503.162,388.685 505.215,336.344 507.268,357.082 509.321,356.939 511.374,345.602 513.426,351.426 515.479,352.016 517.532,336.833 519.585,338.721 521.638,337.487 523.691,337.371 525.744,339.328 527.797,349.56 529.85,349.562 531.902,341.016 533.955,356.324 536.008,353.461 538.061,347.538 540.114,348.176 542.167,346.389 544.22,335.306 546.273,337.727 548.326,367.965 550.378,360.954 552.431,361.492 554.484,368.209 556.537,348.928 558.59,349.915 560.643,362.492 562.696,358.122 564.749,357.429 566.802,357.381 568.854,340.169 570.907,362.522 572.96,342.252 575.013,340.924 577.066,340.642 579.119,372.681 581.172,364.224 583.225,363.384 585.278,366.106 587.331,382.245 589.383,380.66 591.436,372.168 593.489,354.012 595.542,351.925 597.595,345.753 599.648,339.741 601.701,341.326 603.754,340.499 605.807,340.708 607.859,340.695 609.912,356.2 611.965,370.152 614.018,377.703 616.071,376.038 618.124,375.55 620.177,401.67 622.23,401.271 624.283,396.74 626.335,396.893 628.388,403.187 630.441,404.29 632.494,411.749 634.547,419.035 636.6,424.305 638.653,424.867 640.706,395.264 642.759,401.878 644.811,400.277 646.864,400.285 648.917,400.76 650.97,412.476 653.023,413.381 655.076,415.861 657.129,424.785 659.182,402.988 661.235,402.939 663.288,393.94 665.34,384.509 667.393,390.101 669.446,400.892 671.499,361.253 673.552,363.84 675.605,362.627 677.658,352.631 679.711,393.287 681.764,392.713 683.816,388.956 685.869,350.826 687.922,350.781 689.975,341.765 692.028,318.145 694.081,318.872 696.134,315.7 698.187,325.352 700.24,349.412 702.292,348.491 704.345,359.085 706.398,365.348 708.451,381.577 710.504,413.136 712.557,414.939 714.61,306.75 716.663,310.342 718.716,315.136 720.768,325.828 722.821,325.396 724.874,322.641 726.927,323.955 728.98,312.92 731.033,321.72 733.086,312.532 735.139,319.08 737.192,319.242 739.245,317.978 741.297,317.952 743.35,339.306 745.403,357.532 747.456,340.407 749.509,342.359 751.562,316.559 753.615,416.221 755.668,427.424 757.721,413.979 759.773,408.446 761.826,403.395 763.879,394.011 765.932,389.382 767.985,391.098 770.038,356.487 772.091,357.738 774.144,355.336 776.197,355.371 778.249,355.413 780.302,352.567 782.355,350.693 784.408,354.579 786.461,345.231 788.514,345.417 790.567,363.347 792.62,363.308 794.673,374.54 796.725,374.175 798.778,374.297 800.831,370.299 802.884,371.141 804.937,371.259 806.99,375.61 809.043,376.522 811.096,355.526 813.149,358.578 815.202,358.429 817.254,358.49 819.307,359.884 821.36,359.813 823.413,359.856 825.466,359.058 827.519,359.402 829.572,371.481 831.625,392.35 833.678,384.607 835.73,381.144 837.783,380.317 839.836,378.053 841.889,374.134 843.942,374.076 845.995,374.023 848.048,374.046 850.101,372.485 852.154,372.525 854.206,369.494 856.259,369.227 858.312,348.264 860.365,349.126 862.418,349.127 864.471,350.752 866.524,348.252 868.577,347.944 870.63,353.408 872.682,356.391 874.735,366.309 876.788,366.552 878.841,356.461 880.894,357.977 882.947,356.943 885,356.995 887.053,355.511 889.106,355.525 891.159,397.322 893.211,388.867 895.264,402.759 897.317,403.16 899.37,403.881 901.423,403.883 903.476,402.921 905.529,402.886 907.582,378.956 909.635,380.418 911.687,380.625 913.74,377.558 915.793,367.363 917.846,389.324 919.899,391.437 921.952,398.931 924.005,388.177 926.058,388.034 928.111,385.807 930.163,381.779 932.216,381.209 934.269,377.919 936.322,375.763 938.375,374.117 940.428,356.267 942.481,350.739 944.534,352.56 946.587,354.874 948.639,358.61 950.692,353.448 952.745,359.027 954.798,359.099 956.851,362.994 958.904,364.929 960.957,413.27 963.01,421.128 965.063,420.983 967.116,420.941 969.168,421.212 971.221,421.186 973.274,423.577 975.327,423.788 977.38,424.773 979.433,420.857 981.486,421.478 983.539,422.726 985.592,411.434 987.644,411.043 989.697,402.369 991.75,396.694 993.803,404.04 995.856,396.281 997.909,391.446 999.962,394.542 1002.01,396.7 1004.07,343.757 1006.12,343.798 1008.17,340.808 1010.23,359.263 1012.28,334.377 1014.33,323.081 1016.38,319.153 1018.44,330.378 1020.49,330.286 1022.54,344.481 1024.6,318.21 1026.65,320.074 1028.7,326.219 1030.76,413.955 1032.81,414.018 1034.86,412.752 1036.91,409.428 1038.97,408.36 1041.02,408.399 1043.07,408.075 1045.13,397.01 1047.18,390.219 1049.23,393.677 1051.28,412.33 1053.34,412.327 1055.39,397.083 1057.44,394.693 1059.5,387.988 1061.55,387.646 1063.6,386.589 1065.65,401.179 1067.71,267.126 1069.76,267.143 1071.81,358.524 1073.87,335.248 1075.92,335.375 1077.97,346.907 1080.02,399.037 1082.08,395.299 1084.13,398.082 1086.18,362.436 1088.24,353.223 1090.29,324.83 1092.34,320.986 1094.39,357.039 1096.45,351.554 1098.5,351.425 1100.55,352.972 1102.61,253.366 1104.66,253.933 1106.71,223.97 1108.77,209.919 1110.82,205.063 1112.87,201.216 1114.92,184.908 1116.98,329.049 1119.03,321.89 1121.08,371.792 1123.14,352.562 1125.19,327.868 1127.24,317.506 1129.29,309.438 1131.35,310.048 1133.4,323.456 1135.45,326.631 1137.51,320.673 1139.56,295.863 1141.61,297.076 1143.66,279.97 1145.72,279.236 1147.77,280.8 1149.82,292.339 1151.88,278.748 1153.93,265.146 1155.98,271.878 1158.03,262.79 1160.09,260.429 1162.14,157.675 1164.19,136.541 1166.25,141.796 1168.3,138.634 1170.35,171.816 1172.4,173.898 1174.46,569.377 1176.51,574.979 1178.56,656.111 1180.62,653.709 1182.67,602.515 1184.72,270.534 1186.77,270.108 1188.83,232.632 1190.88,252.024 1192.93,181.264 1194.99,152.159 1197.04,-19.7387 1199.09,-66.8511 1201.15,27.7726 1203.2,118.991 1205.25,124.369 1207.3,137.08 1209.36,200.525 1211.41,206.931 1213.46,260.313 1215.52,275.558 1217.57,298.099 1219.62,215.662 1221.67,195.213 1223.73,329.58 1225.78,343.929 1227.83,343.872 1229.89,254.504 1231.94,298.884 1233.99,405.796 1236.04,331.413 1238.1,400.899 1240.15,637.82 1242.2,693.728 1244.26,399.617 1246.31,460.522 1248.36,425.454 1250.41,38.4117 1252.47,533.359 1254.52,797.386 1256.57,698.858 1258.63,786.526 1260.68,849.165 1262.73,1031.23 1264.78,1100.33 1266.84,1219.21 1268.89,989.832 1270.94,981.192 1273,1120.67 1275.05,806.422 1277.1,976.569 1279.16,1327.5 1281.21,1374.74 1283.26,1321.61 1285.31,1341.35 1287.37,1348.74 1289.42,1323.06 1291.47,1372.3 1293.53,1380.25 1295.58,1377.45 1297.63,1314.8 1299.68,1363.47 1301.74,1357.23 1303.79,1163.87 1305.84,1541.01 1307.9,1549.77 1309.95,1747.37 1312,1942.64 1314.05,1829.27 1316.11,1857.06 1318.16,1766.37 1320.21,1781.49 1322.27,1661.24 1324.32,1809.61 1326.37,1325.33 1328.42,1307.08 1330.48,1726.27 1332.53,2136.89 1334.58,2279.51 1336.64,1826.32 1338.69,2207.93 1340.74,2172.39 1342.79,1939.63 1344.85,1880.08 1346.9,1490.92 1348.95,1633.62 1351.01,1903.37 1353.06,1804.29 1355.11,1779.57 1357.16,1384.53 1359.22,1311.34 1361.27,1530.55 1363.32,1548.34 1365.38,1508.9 1367.43,1390.42 1369.48,1401.6 1371.54,1480.15 1373.59,1139.71 1375.64,968.874 1377.69,964.736 1379.75,1135.62 1381.8,940.385 1383.85,1080.11 1385.91,179.172 1387.96,-53.5561 1390.01,-173.835 1392.06,-277.59 1394.12,-92.0916 1396.17,648.212 1398.22,1106.5 1400.28,1047.53 1402.33,1027.88 1404.38,1197.49 1406.43,1101.49 1408.49,1190.5 1410.54,1072.34 1412.59,1108.02 1414.65,1109.54 1416.7,896.274 1418.75,644.424 1420.8,612.385 1422.86,-320.556 1424.91,32.8582 1426.96,-86.2542 1429.02,-303.593 1431.07,-539.899 1433.12,-569.664 1435.17,-157.292 1437.23,364.528 1439.28,936.121 1441.33,1743.39 1443.39,1820.94 1445.44,2018.62 1447.49,1934.55 1449.55,2319.5 1451.6,2062.87 1453.65,2055.8 1455.7,1888.29 1457.76,1745.37 1459.81,1563.6 1461.86,1575.59 1463.92,1886.46 1465.97,1925.11 1468.02,2090.38 1470.07,2071.24 1472.13,2190.26 1474.18,2227.39 1476.23,2232.28 1478.29,2240.58 1480.34,2246.27 1482.39,3002.34 1484.44,2929.55 1486.5,3293.29 1488.55,3272.9 1490.6,3257.42 1492.66,3530.62 1494.71,3532.69 1496.76,3287.65 1498.81,3339.6 1500.87,3563.97 1502.92,3546.77 1504.97,3628.36 1507.03,3360.25 1509.08,3328.02 1511.13,3492.6 1513.18,3653.77 1515.24,3601.57 1517.29,3268.76 1519.34,3151.6 1521.4,3241.71 1523.45,3276.67 1525.5,3285.9 1527.55,3193.44 1529.61,3146.62 1531.66,2853.97 1533.71,3184.31 1535.77,3105.24 1537.82,2962.05 1539.87,2975.81 1541.93,3013.4 1543.98,2742.73 1546.03,2938.53 1548.08,2600.52 1550.14,2528.46 1552.19,2108.2 1554.24,2233.41 1556.3,2273.71 1558.35,2335.32 1560.4,2296.74 1562.45,2297.98 1564.51,2155.73 1566.56,2060.18 1568.61,1960.3 1570.67,2178.31 1572.72,2175.79 1574.77,2207.18 1576.82,2130.01 1578.88,2129.94 1580.93,1965.86 1582.98,1970.29 1585.04,1783.84 1587.09,1766.43 1589.14,1262.51 1591.19,975.475 1593.25,338.107 1595.3,315.682 1597.35,391.27 1599.41,827.494 1601.46,1026.6 1603.51,1100.13 1605.56,1222.02 1607.62,1307.32 1609.67,1459.1 1611.72,1484.58 1613.78,1088.24 1615.83,747.412 1617.88,909.631 1619.94,766.239 1621.99,898.872 1624.04,938.591 1626.09,914.692 1628.15,825.672 1630.2,485.406 1632.25,423.517 1634.31,478.431 1636.36,475.787 1638.41,380.985 1640.46,356.008 1642.52,121.133 1644.57,368.28 1646.62,283.238 1648.68,-676.056 1650.73,-935.934 1652.78,-941.2 1654.83,-1094.63 1656.89,-937.702 1658.94,-1053.8 1660.99,-1167.59 1663.05,-1104.76 1665.1,-946.143 1667.15,-1204.44 1669.2,-1337.52 1671.26,-1300.87 1673.31,-1274.95 1675.36,-1510.47 1677.42,-1497.5 1679.47,-1683.12 1681.52,-1406.51 1683.57,-1309.12 1685.63,-1490.81 1687.68,-1397.86 1689.73,-1312.76 1691.79,-1242.58 1693.84,-935.918 1695.89,-1177.91 1697.94,-805.089 1700,-687.427 1702.05,-1091.65 1704.1,-1294.96 1706.16,-1000.93 1708.21,-1881.74 1710.26,-1199.43 1712.32,-1220.35 1714.37,-2096.11 1716.42,-2475.78 1718.47,-2460.58 1720.53,-2541.65 1722.58,-2681.07 1724.63,-2774.85 1726.69,-2931.8 1728.74,-2922.98 1730.79,-2832.54 1732.84,-2881.46 1734.9,-2720.39 1736.95,-2489.17 1739,-2243.35 1741.06,-2222.37 1743.11,-2287.82 1745.16,-2277.72 1747.21,-2091.61 1749.27,-2094.48 1751.32,-2029.35 1753.37,-2059.67 1755.43,-2025.38 1757.48,-2043.29 1759.53,-1975.58 1761.58,-1806.23 1763.64,-1911.17 1765.69,-1776.35 1767.74,-1769.24 1769.8,-1770.01 1771.85,-1919.76 1773.9,-1892.03 1775.95,-1743.83 1778.01,-1753.65 1780.06,-1821.34 1782.11,-1826.02 1784.17,-895.829 1786.22,-103.415 1788.27,-260.217 1790.33,-608.871 1792.38,-198.662 1794.43,-238.25 1796.48,-632.015 1798.54,-447.883 1800.59,-515.14 1802.64,-135.558 1804.7,487.613 1806.75,858.117 1808.8,1063.04 1810.85,1051.11 1812.91,843.074 1814.96,1370.82 1817.01,1265.62 1819.07,1230.65 1821.12,1228.65 1823.17,1406.49 1825.22,1441.61 1827.28,1414.13 1829.33,1333.36 1831.38,1339.04 1833.44,1426.69 1835.49,1428.78 1837.54,1378.61 1839.59,1221.67 1841.65,1199.79 1843.7,1648.8 1845.75,1446.44 1847.81,1466.42 1849.86,1691.03 1851.91,2032.97 1853.96,1917.72 1856.02,1618.7 1858.07,1629.78 1860.12,1656.4 1862.18,1815.13 1864.23,1817.07 1866.28,1614.81 1868.34,1721.34 1870.39,1719.62 1872.44,1757.97 1874.49,1417.18 1876.55,2541.1 1878.6,2133.44 1880.65,2093.83 1882.71,1708.52 1884.76,1581.43 1886.81,1569.16 1888.86,1435.53 1890.92,1468.53 1892.97,1434.73 1895.02,1280.94 1897.08,1317.19 1899.13,1189.16 1901.18,1193.14 1903.23,1215.26 1905.29,1307.06 1907.34,1352.99 1909.39,1251.45 1911.45,1058.1 1913.5,575.347 1915.55,484.479 1917.6,185.826 1919.66,186.519 1921.71,300.619 1923.76,447.207 1925.82,423.268 1927.87,416.03 1929.92,332.797 1931.97,222.519 1934.03,324.531 1936.08,277.966 1938.13,304.593 1940.19,355.313 1942.24,151.693 1944.29,181.436 1946.34,60.1116 1948.4,44.6851 1950.45,-763.855 1952.5,-739.594 1954.56,-509.805 1956.61,-499.505 1958.66,-488.81 1960.72,-412.687 1962.77,-410.119 1964.82,-452.873 1966.87,-670.04 1968.93,-623.184 1970.98,-659.237 1973.03,-424.252 1975.09,-452.125 1977.14,-363.453 1979.19,-521.098 1981.24,-533.356 1983.3,-603.499 1985.35,-1.25423 1987.4,-124.598 1989.46,328.264 1991.51,981.226 1993.56,904.519 1995.61,964.173 1997.67,1328.01 1999.72,1462.34 2001.77,1621.96 2003.83,1540.85 2005.88,1718.29 2007.93,1484.47 2009.98,1496.19 2012.04,909.498 2014.09,30.8965 2016.14,-596.786 2018.2,243.487 2020.25,314.745 2022.3,178.314 2024.35,262.594 2026.41,293.053 2028.46,296.039 2030.51,272.731 2032.57,78.3656 2034.62,-15.3782 2036.67,-352.783 2038.73,-231.817 2040.78,-211.21 2042.83,-602.406 2044.88,-775.731 2046.94,-812.572 2048.99,-1367.19 2051.04,-1427.11 2053.1,-1744.31 2055.15,-1745.35 2057.2,-1680.77 2059.25,-1464.36 2061.31,-1228.5 2063.36,-1089.79 2065.41,-1071.39 2067.47,-1237.46 2069.52,-947.681 2071.57,-1259.1 2073.62,-1136.8 2075.68,-903.763 2077.73,-799.844 2079.78,-913.343 2081.84,-484.695 2083.89,-449.706 2085.94,-469.205 2087.99,95.8346 2090.05,25.1579 2092.1,9.44345 2094.15,176.284 2096.21,217.878 2098.26,253.05 2100.31,341.952 2102.36,335.203 2104.42,354.437 2106.47,498.673 2108.52,631.79 2110.58,649.018 2112.63,650.445 2114.68,683.219 2116.73,491.029 2118.79,-122.766 2120.84,-183.021 2122.89,-177.101 2124.95,-364.515 2127,-464.641 2129.05,-305.813 2131.11,-398.26 2133.16,-369.725 2135.21,-367.009 2137.26,-378.856 2139.32,-371.802 2141.37,-475.913 2143.42,-446.8 2145.48,-751.245 2147.53,-838.278 2149.58,-1321.27 2151.63,-1458.91 2153.69,-1708.16 2155.74,-1716.91 2157.79,-1390.8 2159.85,-1421.76 2161.9,-1449.61 2163.95,-1331.56 2166,-1348.74 2168.06,-1545.26 2170.11,-1424.52 2172.16,-1456.27 2174.22,-1611.87 2176.27,-1568.57 2178.32,-1567.82 2180.37,-1538.78 2182.43,-1542.66 2184.48,-1369.35 2186.53,-1776.59 2188.59,-1696.8 2190.64,-1715.34 2192.69,-1247.12 2194.74,-1258.28 2196.8,-1321.57 2198.85,-687.129 2200.9,-374.7 2202.96,-281.928 2205.01,-41.1779 2207.06,1085.19 2209.12,766.922 2211.17,1056.59 2213.22,1099.58 2215.27,1155.64 2217.33,1533.65 2219.38,1542.94 2221.43,903.071 2223.49,919.778 2225.54,1057.25 2227.59,1153.08 2229.64,1151.19 2231.7,1146.46 2233.75,1051.9 2235.8,1036.99 2237.86,872.154 2239.91,1255.48 2241.96,1534.77 2244.01,1532.2 2246.07,1550.21 2248.12,1544.86 2250.17,1222.66 2252.23,838.548 2254.28,-11.6152 2256.33,-327.873 2258.38,-382.538 2260.44,-24.8767 2262.49,71.8442 2264.54,199.614 2266.6,-262.189 2268.65,-67.6859 2270.7,-170.089 2272.75,41.2081 2274.81,309.045 2276.86,741.709 2278.91,763.129 2280.97,540.75 2283.02,116.871 2285.07,327.015 2287.12,499.552 2289.18,534.501 2291.23,522.476 "/>
<path clip-path="url(#clip290)" d="M251.33 172.231 L548.024 172.231 L548.024 68.5509 L251.33 68.5509  Z" fill="#ffffff" fill-rule="evenodd" fill-opacity="1"/>
<polyline clip-path="url(#clip290)" style="stroke:#000000; stroke-linecap:round; stroke-linejoin:round; stroke-width:4; stroke-opacity:1; fill:none" points="251.33,172.231 548.024,172.231 548.024,68.5509 251.33,68.5509 251.33,172.231 "/>
<polyline clip-path="url(#clip290)" style="stroke:#009af9; stroke-linecap:round; stroke-linejoin:round; stroke-width:4; stroke-opacity:1; fill:none" points="275.484,120.391 420.41,120.391 "/>
<path clip-path="url(#clip290)" d="M444.564 103.111 L449.24 103.111 L449.24 133.736 L466.069 133.736 L466.069 137.671 L444.564 137.671 L444.564 103.111 Z" fill="#000000" fill-rule="nonzero" fill-opacity="1" /><path clip-path="url(#clip290)" d="M491.694 104.245 L491.694 108.805 Q489.032 107.532 486.67 106.907 Q484.309 106.282 482.11 106.282 Q478.291 106.282 476.208 107.764 Q474.147 109.245 474.147 111.977 Q474.147 114.268 475.513 115.449 Q476.902 116.606 480.745 117.324 L483.569 117.902 Q488.8 118.898 491.277 121.421 Q493.777 123.921 493.777 128.134 Q493.777 133.157 490.397 135.75 Q487.041 138.342 480.536 138.342 Q478.083 138.342 475.305 137.787 Q472.55 137.231 469.587 136.143 L469.587 131.328 Q472.434 132.926 475.166 133.736 Q477.897 134.546 480.536 134.546 Q484.541 134.546 486.717 132.972 Q488.893 131.398 488.893 128.481 Q488.893 125.935 487.319 124.5 Q485.768 123.064 482.203 122.347 L479.356 121.791 Q474.124 120.75 471.786 118.527 Q469.448 116.305 469.448 112.347 Q469.448 107.764 472.666 105.125 Q475.907 102.486 481.578 102.486 Q484.008 102.486 486.532 102.926 Q489.055 103.366 491.694 104.245 Z" fill="#000000" fill-rule="nonzero" fill-opacity="1" /><path clip-path="url(#clip290)" d="M521.786 104.245 L521.786 108.805 Q519.124 107.532 516.763 106.907 Q514.402 106.282 512.203 106.282 Q508.383 106.282 506.3 107.764 Q504.24 109.245 504.24 111.977 Q504.24 114.268 505.606 115.449 Q506.994 116.606 510.837 117.324 L513.661 117.902 Q518.893 118.898 521.369 121.421 Q523.869 123.921 523.869 128.134 Q523.869 133.157 520.49 135.75 Q517.133 138.342 510.629 138.342 Q508.175 138.342 505.397 137.787 Q502.643 137.231 499.68 136.143 L499.68 131.328 Q502.527 132.926 505.258 133.736 Q507.99 134.546 510.629 134.546 Q514.633 134.546 516.809 132.972 Q518.985 131.398 518.985 128.481 Q518.985 125.935 517.411 124.5 Q515.86 123.064 512.295 122.347 L509.448 121.791 Q504.217 120.75 501.879 118.527 Q499.541 116.305 499.541 112.347 Q499.541 107.764 502.758 105.125 Q505.999 102.486 511.67 102.486 Q514.101 102.486 516.624 102.926 Q519.147 103.366 521.786 104.245 Z" fill="#000000" fill-rule="nonzero" fill-opacity="1" /><path clip-path="url(#clip290)" d="M178.867 1486.45 L2352.76 1486.45 L2352.76 847.244 L178.867 847.244  Z" fill="#ffffff" fill-rule="evenodd" fill-opacity="1"/>
<defs>
  <clipPath id="clip293">
    <rect x="178" y="847" width="2175" height="640"/>
  </clipPath>
</defs>
<polyline clip-path="url(#clip293)" style="stroke:#000000; stroke-linecap:round; stroke-linejoin:round; stroke-width:2; stroke-opacity:0.1; fill:none" points="238.339,1486.45 238.339,847.244 "/>
<polyline clip-path="url(#clip293)" style="stroke:#000000; stroke-linecap:round; stroke-linejoin:round; stroke-width:2; stroke-opacity:0.1; fill:none" points="751.562,1486.45 751.562,847.244 "/>
<polyline clip-path="url(#clip293)" style="stroke:#000000; stroke-linecap:round; stroke-linejoin:round; stroke-width:2; stroke-opacity:0.1; fill:none" points="1264.78,1486.45 1264.78,847.244 "/>
<polyline clip-path="url(#clip293)" style="stroke:#000000; stroke-linecap:round; stroke-linejoin:round; stroke-width:2; stroke-opacity:0.1; fill:none" points="1778.01,1486.45 1778.01,847.244 "/>
<polyline clip-path="url(#clip293)" style="stroke:#000000; stroke-linecap:round; stroke-linejoin:round; stroke-width:2; stroke-opacity:0.1; fill:none" points="2291.23,1486.45 2291.23,847.244 "/>
<polyline clip-path="url(#clip293)" style="stroke:#000000; stroke-linecap:round; stroke-linejoin:round; stroke-width:2; stroke-opacity:0.1; fill:none" points="178.867,1486.45 2352.76,1486.45 "/>
<polyline clip-path="url(#clip293)" style="stroke:#000000; stroke-linecap:round; stroke-linejoin:round; stroke-width:2; stroke-opacity:0.1; fill:none" points="178.867,1326.65 2352.76,1326.65 "/>
<polyline clip-path="url(#clip293)" style="stroke:#000000; stroke-linecap:round; stroke-linejoin:round; stroke-width:2; stroke-opacity:0.1; fill:none" points="178.867,1166.85 2352.76,1166.85 "/>
<polyline clip-path="url(#clip293)" style="stroke:#000000; stroke-linecap:round; stroke-linejoin:round; stroke-width:2; stroke-opacity:0.1; fill:none" points="178.867,1007.05 2352.76,1007.05 "/>
<polyline clip-path="url(#clip293)" style="stroke:#000000; stroke-linecap:round; stroke-linejoin:round; stroke-width:2; stroke-opacity:0.1; fill:none" points="178.867,847.244 2352.76,847.244 "/>
<polyline clip-path="url(#clip290)" style="stroke:#000000; stroke-linecap:round; stroke-linejoin:round; stroke-width:4; stroke-opacity:1; fill:none" points="178.867,1486.45 2352.76,1486.45 "/>
<polyline clip-path="url(#clip290)" style="stroke:#000000; stroke-linecap:round; stroke-linejoin:round; stroke-width:4; stroke-opacity:1; fill:none" points="238.339,1486.45 238.339,1467.55 "/>
<polyline clip-path="url(#clip290)" style="stroke:#000000; stroke-linecap:round; stroke-linejoin:round; stroke-width:4; stroke-opacity:1; fill:none" points="751.562,1486.45 751.562,1467.55 "/>
<polyline clip-path="url(#clip290)" style="stroke:#000000; stroke-linecap:round; stroke-linejoin:round; stroke-width:4; stroke-opacity:1; fill:none" points="1264.78,1486.45 1264.78,1467.55 "/>
<polyline clip-path="url(#clip290)" style="stroke:#000000; stroke-linecap:round; stroke-linejoin:round; stroke-width:4; stroke-opacity:1; fill:none" points="1778.01,1486.45 1778.01,1467.55 "/>
<polyline clip-path="url(#clip290)" style="stroke:#000000; stroke-linecap:round; stroke-linejoin:round; stroke-width:4; stroke-opacity:1; fill:none" points="2291.23,1486.45 2291.23,1467.55 "/>
<path clip-path="url(#clip290)" d="M238.339 1517.37 Q234.728 1517.37 232.899 1520.93 Q231.094 1524.47 231.094 1531.6 Q231.094 1538.71 232.899 1542.27 Q234.728 1545.82 238.339 1545.82 Q241.973 1545.82 243.779 1542.27 Q245.607 1538.71 245.607 1531.6 Q245.607 1524.47 243.779 1520.93 Q241.973 1517.37 238.339 1517.37 M238.339 1513.66 Q244.149 1513.66 247.205 1518.27 Q250.283 1522.85 250.283 1531.6 Q250.283 1540.33 247.205 1544.94 Q244.149 1549.52 238.339 1549.52 Q232.529 1549.52 229.45 1544.94 Q226.395 1540.33 226.395 1531.6 Q226.395 1522.85 229.45 1518.27 Q232.529 1513.66 238.339 1513.66 Z" fill="#000000" fill-rule="nonzero" fill-opacity="1" /><path clip-path="url(#clip290)" d="M715.254 1544.91 L731.574 1544.91 L731.574 1548.85 L709.629 1548.85 L709.629 1544.91 Q712.291 1542.16 716.875 1537.53 Q721.481 1532.88 722.662 1531.53 Q724.907 1529.01 725.787 1527.27 Q726.689 1525.51 726.689 1523.82 Q726.689 1521.07 724.745 1519.33 Q722.824 1517.6 719.722 1517.6 Q717.523 1517.6 715.069 1518.36 Q712.638 1519.13 709.861 1520.68 L709.861 1515.95 Q712.685 1514.82 715.138 1514.24 Q717.592 1513.66 719.629 1513.66 Q725 1513.66 728.194 1516.35 Q731.388 1519.03 731.388 1523.52 Q731.388 1525.65 730.578 1527.57 Q729.791 1529.47 727.685 1532.07 Q727.106 1532.74 724.004 1535.95 Q720.902 1539.15 715.254 1544.91 Z" fill="#000000" fill-rule="nonzero" fill-opacity="1" /><path clip-path="url(#clip290)" d="M741.435 1514.29 L759.791 1514.29 L759.791 1518.22 L745.717 1518.22 L745.717 1526.7 Q746.736 1526.35 747.754 1526.19 Q748.773 1526 749.791 1526 Q755.578 1526 758.958 1529.17 Q762.337 1532.34 762.337 1537.76 Q762.337 1543.34 758.865 1546.44 Q755.393 1549.52 749.073 1549.52 Q746.898 1549.52 744.629 1549.15 Q742.384 1548.78 739.976 1548.04 L739.976 1543.34 Q742.06 1544.47 744.282 1545.03 Q746.504 1545.58 748.981 1545.58 Q752.985 1545.58 755.323 1543.48 Q757.661 1541.37 757.661 1537.76 Q757.661 1534.15 755.323 1532.04 Q752.985 1529.94 748.981 1529.94 Q747.106 1529.94 745.231 1530.35 Q743.379 1530.77 741.435 1531.65 L741.435 1514.29 Z" fill="#000000" fill-rule="nonzero" fill-opacity="1" /><path clip-path="url(#clip290)" d="M781.55 1517.37 Q777.939 1517.37 776.11 1520.93 Q774.305 1524.47 774.305 1531.6 Q774.305 1538.71 776.11 1542.27 Q777.939 1545.82 781.55 1545.82 Q785.184 1545.82 786.99 1542.27 Q788.819 1538.71 788.819 1531.6 Q788.819 1524.47 786.99 1520.93 Q785.184 1517.37 781.55 1517.37 M781.55 1513.66 Q787.36 1513.66 790.416 1518.27 Q793.495 1522.85 793.495 1531.6 Q793.495 1540.33 790.416 1544.94 Q787.36 1549.52 781.55 1549.52 Q775.74 1549.52 772.661 1544.94 Q769.606 1540.33 769.606 1531.6 Q769.606 1522.85 772.661 1518.27 Q775.74 1513.66 781.55 1513.66 Z" fill="#000000" fill-rule="nonzero" fill-opacity="1" /><path clip-path="url(#clip290)" d="M1224.4 1514.29 L1242.76 1514.29 L1242.76 1518.22 L1228.69 1518.22 L1228.69 1526.7 Q1229.7 1526.35 1230.72 1526.19 Q1231.74 1526 1232.76 1526 Q1238.55 1526 1241.93 1529.17 Q1245.31 1532.34 1245.31 1537.76 Q1245.31 1543.34 1241.83 1546.44 Q1238.36 1549.52 1232.04 1549.52 Q1229.87 1549.52 1227.6 1549.15 Q1225.35 1548.78 1222.94 1548.04 L1222.94 1543.34 Q1225.03 1544.47 1227.25 1545.03 Q1229.47 1545.58 1231.95 1545.58 Q1235.95 1545.58 1238.29 1543.48 Q1240.63 1541.37 1240.63 1537.76 Q1240.63 1534.15 1238.29 1532.04 Q1235.95 1529.94 1231.95 1529.94 Q1230.07 1529.94 1228.2 1530.35 Q1226.35 1530.77 1224.4 1531.65 L1224.4 1514.29 Z" fill="#000000" fill-rule="nonzero" fill-opacity="1" /><path clip-path="url(#clip290)" d="M1264.52 1517.37 Q1260.91 1517.37 1259.08 1520.93 Q1257.27 1524.47 1257.27 1531.6 Q1257.27 1538.71 1259.08 1542.27 Q1260.91 1545.82 1264.52 1545.82 Q1268.15 1545.82 1269.96 1542.27 Q1271.79 1538.71 1271.79 1531.6 Q1271.79 1524.47 1269.96 1520.93 Q1268.15 1517.37 1264.52 1517.37 M1264.52 1513.66 Q1270.33 1513.66 1273.38 1518.27 Q1276.46 1522.85 1276.46 1531.6 Q1276.46 1540.33 1273.38 1544.94 Q1270.33 1549.52 1264.52 1549.52 Q1258.71 1549.52 1255.63 1544.94 Q1252.57 1540.33 1252.57 1531.6 Q1252.57 1522.85 1255.63 1518.27 Q1258.71 1513.66 1264.52 1513.66 Z" fill="#000000" fill-rule="nonzero" fill-opacity="1" /><path clip-path="url(#clip290)" d="M1294.68 1517.37 Q1291.07 1517.37 1289.24 1520.93 Q1287.44 1524.47 1287.44 1531.6 Q1287.44 1538.71 1289.24 1542.27 Q1291.07 1545.82 1294.68 1545.82 Q1298.31 1545.82 1300.12 1542.27 Q1301.95 1538.71 1301.95 1531.6 Q1301.95 1524.47 1300.12 1520.93 Q1298.31 1517.37 1294.68 1517.37 M1294.68 1513.66 Q1300.49 1513.66 1303.55 1518.27 Q1306.62 1522.85 1306.62 1531.6 Q1306.62 1540.33 1303.55 1544.94 Q1300.49 1549.52 1294.68 1549.52 Q1288.87 1549.52 1285.79 1544.94 Q1282.74 1540.33 1282.74 1531.6 Q1282.74 1522.85 1285.79 1518.27 Q1288.87 1513.66 1294.68 1513.66 Z" fill="#000000" fill-rule="nonzero" fill-opacity="1" /><path clip-path="url(#clip290)" d="M1736.28 1514.29 L1758.51 1514.29 L1758.51 1516.28 L1745.96 1548.85 L1741.08 1548.85 L1752.88 1518.22 L1736.28 1518.22 L1736.28 1514.29 Z" fill="#000000" fill-rule="nonzero" fill-opacity="1" /><path clip-path="url(#clip290)" d="M1767.67 1514.29 L1786.03 1514.29 L1786.03 1518.22 L1771.95 1518.22 L1771.95 1526.7 Q1772.97 1526.35 1773.99 1526.19 Q1775.01 1526 1776.03 1526 Q1781.82 1526 1785.2 1529.17 Q1788.57 1532.34 1788.57 1537.76 Q1788.57 1543.34 1785.1 1546.44 Q1781.63 1549.52 1775.31 1549.52 Q1773.14 1549.52 1770.87 1549.15 Q1768.62 1548.78 1766.21 1548.04 L1766.21 1543.34 Q1768.3 1544.47 1770.52 1545.03 Q1772.74 1545.58 1775.22 1545.58 Q1779.22 1545.58 1781.56 1543.48 Q1783.9 1541.37 1783.9 1537.76 Q1783.9 1534.15 1781.56 1532.04 Q1779.22 1529.94 1775.22 1529.94 Q1773.34 1529.94 1771.47 1530.35 Q1769.62 1530.77 1767.67 1531.65 L1767.67 1514.29 Z" fill="#000000" fill-rule="nonzero" fill-opacity="1" /><path clip-path="url(#clip290)" d="M1807.79 1517.37 Q1804.18 1517.37 1802.35 1520.93 Q1800.54 1524.47 1800.54 1531.6 Q1800.54 1538.71 1802.35 1542.27 Q1804.18 1545.82 1807.79 1545.82 Q1811.42 1545.82 1813.23 1542.27 Q1815.06 1538.71 1815.06 1531.6 Q1815.06 1524.47 1813.23 1520.93 Q1811.42 1517.37 1807.79 1517.37 M1807.79 1513.66 Q1813.6 1513.66 1816.65 1518.27 Q1819.73 1522.85 1819.73 1531.6 Q1819.73 1540.33 1816.65 1544.94 Q1813.6 1549.52 1807.79 1549.52 Q1801.98 1549.52 1798.9 1544.94 Q1795.84 1540.33 1795.84 1531.6 Q1795.84 1522.85 1798.9 1518.27 Q1801.98 1513.66 1807.79 1513.66 Z" fill="#000000" fill-rule="nonzero" fill-opacity="1" /><path clip-path="url(#clip290)" d="M2235.76 1544.91 L2243.4 1544.91 L2243.4 1518.55 L2235.09 1520.21 L2235.09 1515.95 L2243.35 1514.29 L2248.02 1514.29 L2248.02 1544.91 L2255.66 1544.91 L2255.66 1548.85 L2235.76 1548.85 L2235.76 1544.91 Z" fill="#000000" fill-rule="nonzero" fill-opacity="1" /><path clip-path="url(#clip290)" d="M2275.11 1517.37 Q2271.5 1517.37 2269.67 1520.93 Q2267.86 1524.47 2267.86 1531.6 Q2267.86 1538.71 2269.67 1542.27 Q2271.5 1545.82 2275.11 1545.82 Q2278.74 1545.82 2280.55 1542.27 Q2282.38 1538.71 2282.38 1531.6 Q2282.38 1524.47 2280.55 1520.93 Q2278.74 1517.37 2275.11 1517.37 M2275.11 1513.66 Q2280.92 1513.66 2283.97 1518.27 Q2287.05 1522.85 2287.05 1531.6 Q2287.05 1540.33 2283.97 1544.94 Q2280.92 1549.52 2275.11 1549.52 Q2269.3 1549.52 2266.22 1544.94 Q2263.16 1540.33 2263.16 1531.6 Q2263.16 1522.85 2266.22 1518.27 Q2269.3 1513.66 2275.11 1513.66 Z" fill="#000000" fill-rule="nonzero" fill-opacity="1" /><path clip-path="url(#clip290)" d="M2305.27 1517.37 Q2301.66 1517.37 2299.83 1520.93 Q2298.02 1524.47 2298.02 1531.6 Q2298.02 1538.71 2299.83 1542.27 Q2301.66 1545.82 2305.27 1545.82 Q2308.9 1545.82 2310.71 1542.27 Q2312.54 1538.71 2312.54 1531.6 Q2312.54 1524.47 2310.71 1520.93 Q2308.9 1517.37 2305.27 1517.37 M2305.27 1513.66 Q2311.08 1513.66 2314.14 1518.27 Q2317.21 1522.85 2317.21 1531.6 Q2317.21 1540.33 2314.14 1544.94 Q2311.08 1549.52 2305.27 1549.52 Q2299.46 1549.52 2296.38 1544.94 Q2293.33 1540.33 2293.33 1531.6 Q2293.33 1522.85 2296.38 1518.27 Q2299.46 1513.66 2305.27 1513.66 Z" fill="#000000" fill-rule="nonzero" fill-opacity="1" /><path clip-path="url(#clip290)" d="M2335.43 1517.37 Q2331.82 1517.37 2329.99 1520.93 Q2328.19 1524.47 2328.19 1531.6 Q2328.19 1538.71 2329.99 1542.27 Q2331.82 1545.82 2335.43 1545.82 Q2339.07 1545.82 2340.87 1542.27 Q2342.7 1538.71 2342.7 1531.6 Q2342.7 1524.47 2340.87 1520.93 Q2339.07 1517.37 2335.43 1517.37 M2335.43 1513.66 Q2341.24 1513.66 2344.3 1518.27 Q2347.38 1522.85 2347.38 1531.6 Q2347.38 1540.33 2344.3 1544.94 Q2341.24 1549.52 2335.43 1549.52 Q2329.62 1549.52 2326.54 1544.94 Q2323.49 1540.33 2323.49 1531.6 Q2323.49 1522.85 2326.54 1518.27 Q2329.62 1513.66 2335.43 1513.66 Z" fill="#000000" fill-rule="nonzero" fill-opacity="1" /><polyline clip-path="url(#clip290)" style="stroke:#000000; stroke-linecap:round; stroke-linejoin:round; stroke-width:4; stroke-opacity:1; fill:none" points="178.867,1486.45 178.867,847.244 "/>
<polyline clip-path="url(#clip290)" style="stroke:#000000; stroke-linecap:round; stroke-linejoin:round; stroke-width:4; stroke-opacity:1; fill:none" points="178.867,1486.45 197.764,1486.45 "/>
<polyline clip-path="url(#clip290)" style="stroke:#000000; stroke-linecap:round; stroke-linejoin:round; stroke-width:4; stroke-opacity:1; fill:none" points="178.867,1326.65 197.764,1326.65 "/>
<polyline clip-path="url(#clip290)" style="stroke:#000000; stroke-linecap:round; stroke-linejoin:round; stroke-width:4; stroke-opacity:1; fill:none" points="178.867,1166.85 197.764,1166.85 "/>
<polyline clip-path="url(#clip290)" style="stroke:#000000; stroke-linecap:round; stroke-linejoin:round; stroke-width:4; stroke-opacity:1; fill:none" points="178.867,1007.05 197.764,1007.05 "/>
<polyline clip-path="url(#clip290)" style="stroke:#000000; stroke-linecap:round; stroke-linejoin:round; stroke-width:4; stroke-opacity:1; fill:none" points="178.867,847.244 197.764,847.244 "/>
<path clip-path="url(#clip290)" d="M50.9921 1486.9 L80.6679 1486.9 L80.6679 1490.83 L50.9921 1490.83 L50.9921 1486.9 Z" fill="#000000" fill-rule="nonzero" fill-opacity="1" /><path clip-path="url(#clip290)" d="M91.5706 1499.79 L99.2095 1499.79 L99.2095 1473.43 L90.8993 1475.09 L90.8993 1470.83 L99.1632 1469.17 L103.839 1469.17 L103.839 1499.79 L111.478 1499.79 L111.478 1503.73 L91.5706 1503.73 L91.5706 1499.79 Z" fill="#000000" fill-rule="nonzero" fill-opacity="1" /><path clip-path="url(#clip290)" d="M130.922 1472.25 Q127.311 1472.25 125.482 1475.81 Q123.677 1479.35 123.677 1486.48 Q123.677 1493.59 125.482 1497.15 Q127.311 1500.7 130.922 1500.7 Q134.556 1500.7 136.362 1497.15 Q138.191 1493.59 138.191 1486.48 Q138.191 1479.35 136.362 1475.81 Q134.556 1472.25 130.922 1472.25 M130.922 1468.54 Q136.732 1468.54 139.788 1473.15 Q142.867 1477.73 142.867 1486.48 Q142.867 1495.21 139.788 1499.82 Q136.732 1504.4 130.922 1504.4 Q125.112 1504.4 122.033 1499.82 Q118.978 1495.21 118.978 1486.48 Q118.978 1477.73 122.033 1473.15 Q125.112 1468.54 130.922 1468.54 Z" fill="#000000" fill-rule="nonzero" fill-opacity="1" /><path clip-path="url(#clip290)" d="M82.1494 1327.1 L111.825 1327.1 L111.825 1331.03 L82.1494 1331.03 L82.1494 1327.1 Z" fill="#000000" fill-rule="nonzero" fill-opacity="1" /><path clip-path="url(#clip290)" d="M121.964 1309.37 L140.32 1309.37 L140.32 1313.3 L126.246 1313.3 L126.246 1321.77 Q127.265 1321.43 128.283 1321.27 Q129.302 1321.08 130.32 1321.08 Q136.107 1321.08 139.487 1324.25 Q142.867 1327.42 142.867 1332.84 Q142.867 1338.42 139.394 1341.52 Q135.922 1344.6 129.603 1344.6 Q127.427 1344.6 125.158 1344.23 Q122.913 1343.86 120.506 1343.12 L120.506 1338.42 Q122.589 1339.55 124.811 1340.11 Q127.033 1340.66 129.51 1340.66 Q133.515 1340.66 135.853 1338.56 Q138.191 1336.45 138.191 1332.84 Q138.191 1329.23 135.853 1327.12 Q133.515 1325.01 129.51 1325.01 Q127.635 1325.01 125.76 1325.43 Q123.908 1325.85 121.964 1326.73 L121.964 1309.37 Z" fill="#000000" fill-rule="nonzero" fill-opacity="1" /><path clip-path="url(#clip290)" d="M130.922 1152.64 Q127.311 1152.64 125.482 1156.21 Q123.677 1159.75 123.677 1166.88 Q123.677 1173.99 125.482 1177.55 Q127.311 1181.09 130.922 1181.09 Q134.556 1181.09 136.362 1177.55 Q138.191 1173.99 138.191 1166.88 Q138.191 1159.75 136.362 1156.21 Q134.556 1152.64 130.922 1152.64 M130.922 1148.94 Q136.732 1148.94 139.788 1153.55 Q142.867 1158.13 142.867 1166.88 Q142.867 1175.61 139.788 1180.21 Q136.732 1184.8 130.922 1184.8 Q125.112 1184.8 122.033 1180.21 Q118.978 1175.61 118.978 1166.88 Q118.978 1158.13 122.033 1153.55 Q125.112 1148.94 130.922 1148.94 Z" fill="#000000" fill-rule="nonzero" fill-opacity="1" /><path clip-path="url(#clip290)" d="M121.964 989.765 L140.32 989.765 L140.32 993.7 L126.246 993.7 L126.246 1002.17 Q127.265 1001.83 128.283 1001.66 Q129.302 1001.48 130.32 1001.48 Q136.107 1001.48 139.487 1004.65 Q142.867 1007.82 142.867 1013.24 Q142.867 1018.82 139.394 1021.92 Q135.922 1025 129.603 1025 Q127.427 1025 125.158 1024.63 Q122.913 1024.26 120.506 1023.51 L120.506 1018.82 Q122.589 1019.95 124.811 1020.51 Q127.033 1021.06 129.51 1021.06 Q133.515 1021.06 135.853 1018.95 Q138.191 1016.85 138.191 1013.24 Q138.191 1009.63 135.853 1007.52 Q133.515 1005.41 129.51 1005.41 Q127.635 1005.41 125.76 1005.83 Q123.908 1006.25 121.964 1007.13 L121.964 989.765 Z" fill="#000000" fill-rule="nonzero" fill-opacity="1" /><path clip-path="url(#clip290)" d="M91.5706 860.589 L99.2095 860.589 L99.2095 834.223 L90.8993 835.89 L90.8993 831.631 L99.1632 829.964 L103.839 829.964 L103.839 860.589 L111.478 860.589 L111.478 864.524 L91.5706 864.524 L91.5706 860.589 Z" fill="#000000" fill-rule="nonzero" fill-opacity="1" /><path clip-path="url(#clip290)" d="M130.922 833.043 Q127.311 833.043 125.482 836.608 Q123.677 840.149 123.677 847.279 Q123.677 854.385 125.482 857.95 Q127.311 861.492 130.922 861.492 Q134.556 861.492 136.362 857.95 Q138.191 854.385 138.191 847.279 Q138.191 840.149 136.362 836.608 Q134.556 833.043 130.922 833.043 M130.922 829.339 Q136.732 829.339 139.788 833.946 Q142.867 838.529 142.867 847.279 Q142.867 856.006 139.788 860.612 Q136.732 865.195 130.922 865.195 Q125.112 865.195 122.033 860.612 Q118.978 856.006 118.978 847.279 Q118.978 838.529 122.033 833.946 Q125.112 829.339 130.922 829.339 Z" fill="#000000" fill-rule="nonzero" fill-opacity="1" /><polyline clip-path="url(#clip293)" style="stroke:#009af9; stroke-linecap:round; stroke-linejoin:round; stroke-width:4; stroke-opacity:1; fill:none" points="240.392,1134.89 242.445,1198.55 244.498,1206.24 246.55,1171.31 248.603,1181.17 250.656,1241.6 252.709,1367.64 254.762,1448.11 256.815,1437.21 258.868,1088.6 260.921,1104.79 262.974,1113.58 265.027,1199.81 267.079,1212.99 269.132,1152.81 271.185,1192.56 273.238,1171.33 275.291,1144.93 277.344,1137.7 279.397,1190.83 281.45,1066.05 283.503,1171.44 285.555,1171.05 287.608,1151.43 289.661,1191.36 291.714,1131.67 293.767,1121.2 295.82,1193.23 297.873,1193.89 299.926,1187.67 301.979,1201.41 304.031,1153.5 306.084,1176.7 308.137,1173.32 310.19,1182.19 312.243,1119.62 314.296,1224.4 316.349,1494.68 318.402,919.397 320.455,1162 322.507,1146.36 324.56,1124.08 326.613,1116.26 328.666,1180.48 330.719,1189.27 332.772,1126.5 334.825,1133.69 336.878,1068.46 338.931,1268.67 340.984,1177.75 343.036,1178.75 345.089,1160.9 347.142,1181.32 349.195,1003.16 351.248,1319.95 353.301,1350.54 355.354,1433.45 357.407,1039.91 359.46,991.999 361.512,1188.48 363.565,1054.71 365.618,1154.06 367.671,1168.53 369.724,1179.5 371.777,1158.98 373.83,1166.31 375.883,1184.78 377.936,1160.57 379.988,1199.06 382.041,1247.15 384.094,1172.05 386.147,1168.62 388.2,1167.25 390.253,1153.31 392.306,1209.12 394.359,1355.45 396.412,1253.6 398.464,1012.82 400.517,1177.75 402.57,1160.62 404.623,1199.32 406.676,1167.01 408.729,949.954 410.782,961.686 412.835,1259.44 414.888,1165.29 416.94,1160.59 418.993,1160.31 421.046,1177.45 423.099,1159.32 425.152,1167.97 427.205,1173.99 429.258,1246.53 431.311,1254.48 433.364,1164.03 435.417,1183.61 437.469,1207.43 439.522,1151.75 441.575,1135.8 443.628,1149.15 445.681,1151.63 447.734,1135.9 449.787,1191.27 451.84,1306.07 453.893,1290.93 455.945,629.38 457.998,1046.56 460.051,1243.09 462.104,1659.66 464.157,1117.7 466.21,1376.41 468.263,1036.13 470.316,845.029 472.369,983.331 474.421,865.391 476.474,1073.83 478.527,1230.5 480.58,1107.29 482.633,1014.4 484.686,1180.91 486.739,1311.87 488.792,1402.76 490.845,1438.91 492.897,1204.33 494.95,1163.6 497.003,1128.16 499.056,1124.68 501.109,1139.87 503.162,1144.81 505.215,1158.36 507.268,1155.79 509.321,1180.45 511.374,1182.15 513.426,1185.89 515.479,1177.97 517.532,1190.59 519.585,1197.12 521.638,1181.09 523.691,1154.37 525.744,1166.93 527.797,1163.98 529.85,1281.86 531.902,897.656 533.955,1275.22 536.008,1214.46 538.061,1131.87 540.114,1175.53 542.167,1209.61 544.22,1112.55 546.273,1053.82 548.326,1136.45 550.378,1152.87 552.431,1151.01 554.484,1110.85 556.537,1211.7 558.59,1185.24 560.643,1133.92 562.696,1181.61 564.749,1141.12 566.802,1165.34 568.854,1252.96 570.907,1164.18 572.96,1158.83 575.013,1190.38 577.066,1186.14 579.119,1080.22 581.172,1175.41 583.225,1124.26 585.278,1170.54 587.331,1173.39 589.383,1170.18 591.436,1185.41 593.489,1165.01 595.542,1156.89 597.595,1114.57 599.648,1141.09 601.701,1134.27 603.754,1249.75 605.807,1085.66 607.859,2583.93 609.912,126.417 611.965,988.583 614.018,1093.16 616.071,1173.86 618.124,1121.88 620.177,1236.27 622.23,1146.56 624.283,1193.17 626.335,1118.14 628.388,1131.3 630.441,1123.46 632.494,1126.55 634.547,1112.43 636.6,1172.85 638.653,1152.88 640.706,1177.42 642.759,1218.93 644.811,1049.93 646.864,1057.74 648.917,1607.1 650.97,1178.17 653.023,1271.62 655.076,1265.55 657.129,1152.89 659.182,1104.88 661.235,1190.93 663.288,1115.5 665.34,1276.23 667.393,1206.79 669.446,1189.82 671.499,1190.84 673.552,1145.53 675.605,1153.06 677.658,1175.86 679.711,1172.45 681.764,1135.97 683.816,608.142 685.869,617.914 687.922,1353.93 689.975,960.74 692.028,1153.68 694.081,1151.84 696.134,1208.52 698.187,990.64 700.24,1008.91 702.292,1109.21 704.345,1105.49 706.398,1254.81 708.451,1235.54 710.504,1060.45 712.557,1172.61 714.61,1167.93 716.663,1152.68 718.716,1099.67 720.768,1218.58 722.821,1140.2 724.874,908.072 726.927,1815.49 728.98,2420.33 731.033,3521.75 733.086,22.8865 735.139,678.258 737.192,1362.87 739.245,1090.3 741.297,1448.58 743.35,760.317 745.403,3020.49 747.456,1653.47 749.509,2285.85 751.562,368.39 753.615,1098.27 755.668,1143.7 757.721,1186.03 759.773,1147.74 761.826,1157.28 763.879,1203.63 765.932,1080.7 767.985,895.631 770.038,926.066 772.091,1353.07 774.144,1180.03 776.197,1203.78 778.249,1167.03 780.302,1137.66 782.355,1150.04 784.408,1171.22 786.461,1177.22 788.514,1194.47 790.567,1194.9 792.62,1138.74 794.673,1101.21 796.725,1209.66 798.778,1138.03 800.831,1205.01 802.884,1084.81 804.937,1032.09 806.99,1196.31 809.043,1162.36 811.096,1183.85 813.149,1184.19 815.202,1163.32 817.254,1173 819.307,1161.74 821.36,1063.29 823.413,1161.75 825.466,1186.82 827.519,1142.23 829.572,1273.28 831.625,1129.04 833.678,1151.34 835.73,1192.64 837.783,1079.32 839.836,1561.06 841.889,1198.7 843.942,1146.94 845.995,1140.56 848.048,1170.63 850.101,1173.14 852.154,1154.94 854.206,1182.32 856.259,1182.79 858.312,771.811 860.365,885.356 862.418,783.561 864.471,978.02 866.524,1080.07 868.577,1095.43 870.63,1082.94 872.682,1232.76 874.735,1197.56 876.788,1154.08 878.841,1150.48 880.894,1037.18 882.947,989.127 885,1034.39 887.053,1245.19 889.106,1163.19 891.159,1184.75 893.211,1202.4 895.264,1214.29 897.317,1250.8 899.37,1185.75 901.423,1179.43 903.476,1200.07 905.529,1130.95 907.582,1059.95 909.635,1274.53 911.687,1021.75 913.74,1101.24 915.793,1135.75 917.846,1168.9 919.899,1128.33 921.952,1117.39 924.005,1167.86 926.058,1183.33 928.111,1245.59 930.163,1198.4 932.216,1187.99 934.269,1136.7 936.322,1198.99 938.375,1173.9 940.428,1136.61 942.481,1103.52 944.534,1187.68 946.587,1168.43 948.639,1182.89 950.692,1138.63 952.745,1152.46 954.798,1046.6 956.851,1180.96 958.904,1175.06 960.957,1167.41 963.01,1171.31 965.063,1172.57 967.116,1201.13 969.168,1144.87 971.221,1165.38 973.274,1159.67 975.327,1208.39 977.38,1111.75 979.433,1108.61 981.486,979.127 983.539,1733.66 985.592,531.891 987.644,1327.43 989.697,1362.64 991.75,1193.95 993.803,963.738 995.856,875.6 997.909,699.636 999.962,1371.3 1002.01,1077.31 1004.07,1170.41 1006.12,1342.34 1008.17,1134.28 1010.23,1148.48 1012.28,1187.57 1014.33,1149.26 1016.38,1201.27 1018.44,1116.04 1020.49,1234.95 1022.54,991.81 1024.6,1107 1026.65,1254.27 1028.7,1161.73 1030.76,1149.2 1032.81,1145.61 1034.86,1139.98 1036.91,1191.73 1038.97,1163.47 1041.02,1199.09 1043.07,1166.92 1045.13,1168.56 1047.18,1153.33 1049.23,1188.73 1051.28,1212.27 1053.34,1105.7 1055.39,1227.61 1057.44,1021.1 1059.5,1139.14 1061.55,1196.79 1063.6,1182.25 1065.65,1161.33 1067.71,1156.48 1069.76,1131.1 1071.81,1104.72 1073.87,1015.29 1075.92,1291.97 1077.97,982.071 1080.02,1330.99 1082.08,1143.64 1084.13,1089.31 1086.18,1201.06 1088.24,1178.81 1090.29,1178.16 1092.34,1179.94 1094.39,1163.34 1096.45,1164.29 1098.5,1163.51 1100.55,1213.94 1102.61,1153.75 1104.66,1201.89 1106.71,1138.3 1108.77,1144.95 1110.82,1163.83 1112.87,1329 1114.92,1167.9 1116.98,1168.38 1119.03,1167.48 1121.08,1189.1 1123.14,1218.28 1125.19,1201.13 1127.24,1160.09 1129.29,1180.31 1131.35,1105.92 1133.4,1230.26 1135.45,1072.14 1137.51,1041.12 1139.56,1333.5 1141.61,1611.88 1143.66,1084.25 1145.72,1234.96 1147.77,1261.16 1149.82,1127.72 1151.88,1163.98 1153.93,1186.51 1155.98,1175.18 1158.03,1176.47 1160.09,1221.06 1162.14,1172.74 1164.19,1194.55 1166.25,1129.61 1168.3,932.84 1170.35,1198.77 1172.4,1168.77 1174.46,1204.52 1176.51,1139.69 1178.56,1219.63 1180.62,1135.23 1182.67,1173.43 1184.72,1168.64 1186.77,1183.05 1188.83,1246.42 1190.88,1154.11 1192.93,1251.43 1194.99,1202.83 1197.04,1234.08 1199.09,1129.58 1201.15,1182.15 1203.2,1140.21 1205.25,1162.39 1207.3,1169.75 1209.36,1193.26 1211.41,1147.88 1213.46,1217.73 1215.52,1202.82 1217.57,1139.45 1219.62,1143.98 1221.67,1140.28 1223.73,1194.62 1225.78,1137.32 1227.83,967.129 1229.89,1161.64 1231.94,1196.59 1233.99,1140.78 1236.04,1213.63 1238.1,1205.94 1240.15,1137.66 1242.2,1222.97 1244.26,1156.14 1246.31,1132.58 1248.36,1210.25 1250.41,1129.46 1252.47,1145.03 1254.52,1238.57 1256.57,1262.68 1258.63,1367.33 1260.68,1249.61 1262.73,1181.71 1264.78,1178.31 1266.84,1049.03 1268.89,1201.15 1270.94,1209.17 1273,1127.35 1275.05,1142.13 1277.1,1135.46 1279.16,1182.27 1281.21,1173.2 1283.26,1252.42 1285.31,1399.95 1287.37,1283.11 1289.42,1187.8 1291.47,1173.26 1293.53,683.445 1295.58,1163.19 1297.63,1167.2 1299.68,1172.75 1301.74,1182.74 1303.79,1089.24 1305.84,1139.37 1307.9,1160.82 1309.95,1151.21 1312,1152.99 1314.05,1120.12 1316.11,1096.59 1318.16,1129.92 1320.21,1062.78 1322.27,1173.14 1324.32,1127.51 1326.37,1150.01 1328.42,1269.9 1330.48,1402.08 1332.53,1724.96 1334.58,-186.815 1336.64,1478.23 1338.69,1428.05 1340.74,-202.532 1342.79,1580.91 1344.85,1074.1 1346.9,991.12 1348.95,824.711 1351.01,1711.2 1353.06,1309.99 1355.11,1352.56 1357.16,1678.54 1359.22,1504.5 1361.27,1411.12 1363.32,965.8 1365.38,1031.27 1367.43,1262.1 1369.48,1229.81 1371.54,1188.02 1373.59,1176.88 1375.64,1181.98 1377.69,1153.33 1379.75,1205.13 1381.8,1169.33 1383.85,1234.47 1385.91,1198.76 1387.96,1137.87 1390.01,1167.19 1392.06,927.505 1394.12,1090.93 1396.17,1069.77 1398.22,1376.05 1400.28,1198.56 1402.33,1157.21 1404.38,1114.82 1406.43,1147.54 1408.49,1184.96 1410.54,1171.37 1412.59,1148.89 1414.65,1159.32 1416.7,1273.36 1418.75,1190.6 1420.8,1178.69 1422.86,1190.32 1424.91,1198.1 1426.96,1101.87 1429.02,1143.08 1431.07,1105.46 1433.12,1276.09 1435.17,1315.03 1437.23,1305.86 1439.28,1028.19 1441.33,1235.25 1443.39,1180.7 1445.44,1110.74 1447.49,1128.75 1449.55,1197.52 1451.6,1120.56 1453.65,1209.43 1455.7,1216.61 1457.76,1228.32 1459.81,1210.85 1461.86,1073.39 1463.92,1192.02 1465.97,1166.21 1468.02,1033.31 1470.07,1176.59 1472.13,1179.01 1474.18,1173.7 1476.23,1193.09 1478.29,1158.86 1480.34,1125.72 1482.39,1129.09 1484.44,1196.16 1486.5,1100.42 1488.55,1072.15 1490.6,1130.66 1492.66,1151.6 1494.71,1142.69 1496.76,1190.45 1498.81,1151.47 1500.87,1199.22 1502.92,1138.95 1504.97,1146.96 1507.03,1174.7 1509.08,1176.69 1511.13,1154.83 1513.18,1177.2 1515.24,1191.31 1517.29,1189.2 1519.34,1248.33 1521.4,1233.25 1523.45,976.787 1525.5,1388.15 1527.55,1071.16 1529.61,1092.36 1531.66,1125.89 1533.71,1160.81 1535.77,1152.18 1537.82,1150.64 1539.87,1130.04 1541.93,1189.35 1543.98,1133.47 1546.03,1126.8 1548.08,1203.33 1550.14,1203.42 1552.19,1157.19 1554.24,1248.47 1556.3,1098.97 1558.35,1149.47 1560.4,1158.49 1562.45,1183.14 1564.51,1356.64 1566.56,2064.03 1568.61,2724.85 1570.67,584.51 1572.72,1106.52 1574.77,1207.27 1576.82,1142.09 1578.88,1187.09 1580.93,1083.79 1582.98,1238.49 1585.04,1186.54 1587.09,1162.69 1589.14,1191.45 1591.19,1233.99 1593.25,1075.31 1595.3,1132.45 1597.35,1195.17 1599.41,1116.85 1601.46,1178.48 1603.51,1387.59 1605.56,1112.35 1607.62,1110.98 1609.67,1176.95 1611.72,1154.28 1613.78,1150.09 1615.83,1165.15 1617.88,1149.79 1619.94,1200.46 1621.99,1130.97 1624.04,1191.13 1626.09,1194.53 1628.15,1084.94 1630.2,1276.44 1632.25,985.811 1634.31,1153.65 1636.36,1130.98 1638.41,808.136 1640.46,367.754 1642.52,804.269 1644.57,1138.97 1646.62,1695.28 1648.68,1663.39 1650.73,-888.083 1652.78,2861.3 1654.83,2818.39 1656.89,-239.338 1658.94,1007 1660.99,916.694 1663.05,1436.9 1665.1,1169.56 1667.15,863.544 1669.2,1196.26 1671.26,1156.4 1673.31,1162.62 1675.36,1147.62 1677.42,1174.81 1679.47,1191.36 1681.52,1159.55 1683.57,1164.3 1685.63,1193 1687.68,1272.25 1689.73,1361.25 1691.79,1215.09 1693.84,1141.46 1695.89,1054.68 1697.94,809.668 1700,1330.3 1702.05,1346.94 1704.1,1651.4 1706.16,1309.19 1708.21,1219.09 1710.26,1241.65 1712.32,1129.6 1714.37,1070.72 1716.42,1081.13 1718.47,1274.36 1720.53,1178.62 1722.58,1073.04 1724.63,941.689 1726.69,1137.56 1728.74,1149.5 1730.79,1177.89 1732.84,1154.46 1734.9,1151.11 1736.95,1193.58 1739,1117.48 1741.06,937.907 1743.11,1067.65 1745.16,1083.67 1747.21,1233.32 1749.27,1233.58 1751.32,1142.89 1753.37,1249.27 1755.43,1229.6 1757.48,1158.28 1759.53,1203.22 1761.58,1151.69 1763.64,1194.36 1765.69,1153.72 1767.74,1237.89 1769.8,1177.94 1771.85,1135.52 1773.9,1208.69 1775.95,1142.4 1778.01,1181.14 1780.06,1210.03 1782.11,1109.37 1784.17,1140.24 1786.22,1157.77 1788.27,1138.92 1790.33,1187.31 1792.38,1156.69 1794.43,1164.65 1796.48,996.488 1798.54,1158.56 1800.59,637.929 1802.64,2502.84 1804.7,3326.72 1806.75,-1417.01 1808.8,1290.76 1810.85,1112.64 1812.91,1148.47 1814.96,1192.23 1817.01,1185.09 1819.07,1244.76 1821.12,2722.47 1823.17,3201.44 1825.22,969.19 1827.28,1252.81 1829.33,1179.64 1831.38,1167.04 1833.44,1128.91 1835.49,1178.07 1837.54,1195.22 1839.59,1112.2 1841.65,1190.15 1843.7,1170.98 1845.75,1150.75 1847.81,1187.22 1849.86,1174.12 1851.91,1170.7 1853.96,1164.81 1856.02,1165.71 1858.07,1201.61 1860.12,1108.98 1862.18,1184.58 1864.23,1140.64 1866.28,1215.64 1868.34,1187.42 1870.39,1163.06 1872.44,1170.94 1874.49,1159.44 1876.55,1114.47 1878.6,1212.87 1880.65,1215.53 1882.71,1127.64 1884.76,1134.81 1886.81,1203.36 1888.86,1152.28 1890.92,1182.7 1892.97,1317.25 1895.02,1126.12 1897.08,1167.47 1899.13,1150.32 1901.18,1174.75 1903.23,1193.8 1905.29,1173.37 1907.34,1165.42 1909.39,1170.18 1911.45,1197.24 1913.5,1076.15 1915.55,1138.21 1917.6,1156.59 1919.66,1177.11 1921.71,1178.32 1923.76,1177.16 1925.82,1167.52 1927.87,1138.09 1929.92,1133.48 1931.97,1242.6 1934.03,1132.9 1936.08,1110.12 1938.13,1408.43 1940.19,983.272 1942.24,970.47 1944.29,894.243 1946.34,1196.52 1948.4,948.836 1950.45,1244.03 1952.5,1090.74 1954.56,1174.93 1956.61,1141.05 1958.66,1167.27 1960.72,1157.99 1962.77,1145.11 1964.82,1187.89 1966.87,1172.93 1968.93,1163.07 1970.98,1110.12 1973.03,1173.17 1975.09,1157.15 1977.14,1176.05 1979.19,1181.73 1981.24,1174.49 1983.3,1165.11 1985.35,1165.43 1987.4,1164.85 1989.46,1170.52 1991.51,1150.8 1993.56,1162.56 1995.61,1152.7 1997.67,1167.86 1999.72,1154.75 2001.77,994.182 2003.83,1061.71 2005.88,1231.56 2007.93,1186.04 2009.98,1118.8 2012.04,1156.34 2014.09,1193.92 2016.14,1216.84 2018.2,1198.2 2020.25,1130.72 2022.3,1040.49 2024.35,1151.65 2026.41,1181.7 2028.46,1184.44 2030.51,1186.5 2032.57,1155.27 2034.62,1155.93 2036.67,1195.03 2038.73,1165.86 2040.78,1180.45 2042.83,1158.82 2044.88,1196.33 2046.94,1185.58 2048.99,1153.29 2051.04,1169.28 2053.1,1186.87 2055.15,1230.84 2057.2,1081.2 2059.25,1110.26 2061.31,1199.63 2063.36,1133.7 2065.41,1106.3 2067.47,1128.63 2069.52,1167.22 2071.57,1270.27 2073.62,1123.74 2075.68,1132.74 2077.73,1139.5 2079.78,1207.16 2081.84,1220.26 2083.89,1138 2085.94,1086.18 2087.99,1142.24 2090.05,1304.86 2092.1,1056.75 2094.15,1175.98 2096.21,1159.93 2098.26,1139.26 2100.31,1225.06 2102.36,1204.9 2104.42,1172.14 2106.47,1163.93 2108.52,1111.37 2110.58,1063.8 2112.63,1212.3 2114.68,1111.81 2116.73,1243.43 2118.79,1000.71 2120.84,301.516 2122.89,2753.24 2124.95,1199.13 2127,1153.05 2129.05,1157.72 2131.11,1166.68 2133.16,1206.94 2135.21,1123.5 2137.26,1128.44 2139.32,1144.01 2141.37,1164.12 2143.42,1128.55 2145.48,1124.74 2147.53,1223.15 2149.58,1172.52 2151.63,1137.7 2153.69,1226.21 2155.74,1235.84 2157.79,1101.39 2159.85,1206.63 2161.9,1151.73 2163.95,1155.63 2166,1185.84 2168.06,1111.2 2170.11,1168.87 2172.16,1168.84 2174.22,1133.31 2176.27,1126.95 2178.32,1220.18 2180.37,1198.22 2182.43,1173.39 2184.48,1216.42 2186.53,1101.78 2188.59,1169.21 2190.64,1201.01 2192.69,1161.18 2194.74,1155.69 2196.8,1204.4 2198.85,1135.45 2200.9,1298.45 2202.96,1120.55 2205.01,1210.44 2207.06,1122.31 2209.12,1144.23 2211.17,1153.22 2213.22,1191.38 2215.27,1139.29 2217.33,1219.38 2219.38,1185.04 2221.43,1148.99 2223.49,1146.26 2225.54,1071.77 2227.59,1108.78 2229.64,1207.74 2231.7,1287.51 2233.75,1539.52 2235.8,914.006 2237.86,845.327 2239.91,1269.59 2241.96,1184.68 2244.01,1185.38 2246.07,1137.19 2248.12,1189.17 2250.17,1125.6 2252.23,1137.08 2254.28,1210.88 2256.33,1179.95 2258.38,1156.36 2260.44,1172.38 2262.49,1171.41 2264.54,1156.67 2266.6,1137.96 2268.65,1191.31 2270.7,1196.5 2272.75,1154.65 2274.81,1162.48 2276.86,1172.04 2278.91,1215.31 2280.97,1189.08 2283.02,1186.01 2285.07,1165.75 2287.12,1260.23 2289.18,1203.51 2291.23,1155.47 "/>
<path clip-path="url(#clip290)" d="M1942.7 1465.14 L2280.29 1465.14 L2280.29 1361.46 L1942.7 1361.46  Z" fill="#ffffff" fill-rule="evenodd" fill-opacity="1"/>
<polyline clip-path="url(#clip290)" style="stroke:#000000; stroke-linecap:round; stroke-linejoin:round; stroke-width:4; stroke-opacity:1; fill:none" points="1942.7,1465.14 2280.29,1465.14 2280.29,1361.46 1942.7,1361.46 1942.7,1465.14 "/>
<polyline clip-path="url(#clip290)" style="stroke:#009af9; stroke-linecap:round; stroke-linejoin:round; stroke-width:4; stroke-opacity:1; fill:none" points="1966.85,1413.3 2111.78,1413.3 "/>
<path clip-path="url(#clip290)" d="M2161.49 1425.65 L2161.49 1416.37 L2153.85 1416.37 L2153.85 1412.53 L2166.12 1412.53 L2166.12 1427.36 Q2163.41 1429.28 2160.14 1430.28 Q2156.88 1431.25 2153.18 1431.25 Q2145.07 1431.25 2140.49 1426.53 Q2135.93 1421.78 2135.93 1413.34 Q2135.93 1404.86 2140.49 1400.14 Q2145.07 1395.4 2153.18 1395.4 Q2156.56 1395.4 2159.59 1396.23 Q2162.64 1397.06 2165.21 1398.68 L2165.21 1403.66 Q2162.62 1401.46 2159.7 1400.35 Q2156.79 1399.24 2153.57 1399.24 Q2147.23 1399.24 2144.03 1402.78 Q2140.86 1406.32 2140.86 1413.34 Q2140.86 1420.33 2144.03 1423.87 Q2147.23 1427.41 2153.57 1427.41 Q2156.05 1427.41 2157.99 1426.99 Q2159.94 1426.55 2161.49 1425.65 Z" fill="#000000" fill-rule="nonzero" fill-opacity="1" /><path clip-path="url(#clip290)" d="M2179.33 1399.86 L2179.33 1412.85 L2185.21 1412.85 Q2188.48 1412.85 2190.26 1411.16 Q2192.04 1409.47 2192.04 1406.35 Q2192.04 1403.24 2190.26 1401.55 Q2188.48 1399.86 2185.21 1399.86 L2179.33 1399.86 M2174.66 1396.02 L2185.21 1396.02 Q2191.02 1396.02 2193.99 1398.66 Q2196.97 1401.28 2196.97 1406.35 Q2196.97 1411.46 2193.99 1414.08 Q2191.02 1416.69 2185.21 1416.69 L2179.33 1416.69 L2179.33 1430.58 L2174.66 1430.58 L2174.66 1396.02 Z" fill="#000000" fill-rule="nonzero" fill-opacity="1" /><path clip-path="url(#clip290)" d="M2223.96 1397.16 L2223.96 1401.72 Q2221.3 1400.44 2218.94 1399.82 Q2216.58 1399.19 2214.38 1399.19 Q2210.56 1399.19 2208.48 1400.67 Q2206.42 1402.16 2206.42 1404.89 Q2206.42 1407.18 2207.78 1408.36 Q2209.17 1409.52 2213.01 1410.23 L2215.84 1410.81 Q2221.07 1411.81 2223.55 1414.33 Q2226.05 1416.83 2226.05 1421.04 Q2226.05 1426.07 2222.67 1428.66 Q2219.31 1431.25 2212.81 1431.25 Q2210.35 1431.25 2207.57 1430.7 Q2204.82 1430.14 2201.86 1429.05 L2201.86 1424.24 Q2204.7 1425.84 2207.44 1426.65 Q2210.17 1427.46 2212.81 1427.46 Q2216.81 1427.46 2218.99 1425.88 Q2221.16 1424.31 2221.16 1421.39 Q2221.16 1418.85 2219.59 1417.41 Q2218.04 1415.97 2214.47 1415.26 L2211.62 1414.7 Q2206.39 1413.66 2204.06 1411.44 Q2201.72 1409.22 2201.72 1405.26 Q2201.72 1400.67 2204.94 1398.03 Q2208.18 1395.4 2213.85 1395.4 Q2216.28 1395.4 2218.8 1395.84 Q2221.32 1396.28 2223.96 1397.16 Z" fill="#000000" fill-rule="nonzero" fill-opacity="1" /><path clip-path="url(#clip290)" d="M2254.06 1397.16 L2254.06 1401.72 Q2251.39 1400.44 2249.03 1399.82 Q2246.67 1399.19 2244.47 1399.19 Q2240.65 1399.19 2238.57 1400.67 Q2236.51 1402.16 2236.51 1404.89 Q2236.51 1407.18 2237.87 1408.36 Q2239.26 1409.52 2243.11 1410.23 L2245.93 1410.81 Q2251.16 1411.81 2253.64 1414.33 Q2256.14 1416.83 2256.14 1421.04 Q2256.14 1426.07 2252.76 1428.66 Q2249.4 1431.25 2242.9 1431.25 Q2240.44 1431.25 2237.67 1430.7 Q2234.91 1430.14 2231.95 1429.05 L2231.95 1424.24 Q2234.8 1425.84 2237.53 1426.65 Q2240.26 1427.46 2242.9 1427.46 Q2246.9 1427.46 2249.08 1425.88 Q2251.25 1424.31 2251.25 1421.39 Q2251.25 1418.85 2249.68 1417.41 Q2248.13 1415.97 2244.56 1415.26 L2241.72 1414.7 Q2236.49 1413.66 2234.15 1411.44 Q2231.81 1409.22 2231.81 1405.26 Q2231.81 1400.67 2235.03 1398.03 Q2238.27 1395.4 2243.94 1395.4 Q2246.37 1395.4 2248.89 1395.84 Q2251.42 1396.28 2254.06 1397.16 Z" fill="#000000" fill-rule="nonzero" fill-opacity="1" /></svg>
