<?xml version="1.0" encoding="utf-8"?>
<svg xmlns="http://www.w3.org/2000/svg" xmlns:xlink="http://www.w3.org/1999/xlink" width="600" height="400" viewBox="0 0 2400 1600">
<defs>
  <clipPath id="clip740">
    <rect x="0" y="0" width="2400" height="1600"/>
  </clipPath>
</defs>
<path clip-path="url(#clip740)" d="M0 1600 L2400 1600 L2400 0 L0 0  Z" fill="#ffffff" fill-rule="evenodd" fill-opacity="1"/>
<defs>
  <clipPath id="clip741">
    <rect x="480" y="0" width="1681" height="1600"/>
  </clipPath>
</defs>
<path clip-path="url(#clip740)" d="M178.867 686.448 L2352.76 686.448 L2352.76 47.2441 L178.867 47.2441  Z" fill="#ffffff" fill-rule="evenodd" fill-opacity="1"/>
<defs>
  <clipPath id="clip742">
    <rect x="178" y="47" width="2175" height="640"/>
  </clipPath>
</defs>
<polyline clip-path="url(#clip742)" style="stroke:#000000; stroke-linecap:round; stroke-linejoin:round; stroke-width:2; stroke-opacity:0.1; fill:none" points="238.339,686.448 238.339,47.2441 "/>
<polyline clip-path="url(#clip742)" style="stroke:#000000; stroke-linecap:round; stroke-linejoin:round; stroke-width:2; stroke-opacity:0.1; fill:none" points="751.562,686.448 751.562,47.2441 "/>
<polyline clip-path="url(#clip742)" style="stroke:#000000; stroke-linecap:round; stroke-linejoin:round; stroke-width:2; stroke-opacity:0.1; fill:none" points="1264.78,686.448 1264.78,47.2441 "/>
<polyline clip-path="url(#clip742)" style="stroke:#000000; stroke-linecap:round; stroke-linejoin:round; stroke-width:2; stroke-opacity:0.1; fill:none" points="1778.01,686.448 1778.01,47.2441 "/>
<polyline clip-path="url(#clip742)" style="stroke:#000000; stroke-linecap:round; stroke-linejoin:round; stroke-width:2; stroke-opacity:0.1; fill:none" points="2291.23,686.448 2291.23,47.2441 "/>
<polyline clip-path="url(#clip742)" style="stroke:#000000; stroke-linecap:round; stroke-linejoin:round; stroke-width:2; stroke-opacity:0.1; fill:none" points="178.867,686.448 2352.76,686.448 "/>
<polyline clip-path="url(#clip742)" style="stroke:#000000; stroke-linecap:round; stroke-linejoin:round; stroke-width:2; stroke-opacity:0.1; fill:none" points="178.867,526.647 2352.76,526.647 "/>
<polyline clip-path="url(#clip742)" style="stroke:#000000; stroke-linecap:round; stroke-linejoin:round; stroke-width:2; stroke-opacity:0.1; fill:none" points="178.867,366.846 2352.76,366.846 "/>
<polyline clip-path="url(#clip742)" style="stroke:#000000; stroke-linecap:round; stroke-linejoin:round; stroke-width:2; stroke-opacity:0.1; fill:none" points="178.867,207.045 2352.76,207.045 "/>
<polyline clip-path="url(#clip742)" style="stroke:#000000; stroke-linecap:round; stroke-linejoin:round; stroke-width:2; stroke-opacity:0.1; fill:none" points="178.867,47.2441 2352.76,47.2441 "/>
<polyline clip-path="url(#clip740)" style="stroke:#000000; stroke-linecap:round; stroke-linejoin:round; stroke-width:4; stroke-opacity:1; fill:none" points="178.867,686.448 2352.76,686.448 "/>
<polyline clip-path="url(#clip740)" style="stroke:#000000; stroke-linecap:round; stroke-linejoin:round; stroke-width:4; stroke-opacity:1; fill:none" points="238.339,686.448 238.339,667.55 "/>
<polyline clip-path="url(#clip740)" style="stroke:#000000; stroke-linecap:round; stroke-linejoin:round; stroke-width:4; stroke-opacity:1; fill:none" points="751.562,686.448 751.562,667.55 "/>
<polyline clip-path="url(#clip740)" style="stroke:#000000; stroke-linecap:round; stroke-linejoin:round; stroke-width:4; stroke-opacity:1; fill:none" points="1264.78,686.448 1264.78,667.55 "/>
<polyline clip-path="url(#clip740)" style="stroke:#000000; stroke-linecap:round; stroke-linejoin:round; stroke-width:4; stroke-opacity:1; fill:none" points="1778.01,686.448 1778.01,667.55 "/>
<polyline clip-path="url(#clip740)" style="stroke:#000000; stroke-linecap:round; stroke-linejoin:round; stroke-width:4; stroke-opacity:1; fill:none" points="2291.23,686.448 2291.23,667.55 "/>
<path clip-path="url(#clip740)" d="M238.339 717.367 Q234.728 717.367 232.899 720.931 Q231.094 724.473 231.094 731.603 Q231.094 738.709 232.899 742.274 Q234.728 745.815 238.339 745.815 Q241.973 745.815 243.779 742.274 Q245.607 738.709 245.607 731.603 Q245.607 724.473 243.779 720.931 Q241.973 717.367 238.339 717.367 M238.339 713.663 Q244.149 713.663 247.205 718.269 Q250.283 722.853 250.283 731.603 Q250.283 740.329 247.205 744.936 Q244.149 749.519 238.339 749.519 Q232.529 749.519 229.45 744.936 Q226.395 740.329 226.395 731.603 Q226.395 722.853 229.45 718.269 Q232.529 713.663 238.339 713.663 Z" fill="#000000" fill-rule="nonzero" fill-opacity="1" /><path clip-path="url(#clip740)" d="M715.254 744.913 L731.574 744.913 L731.574 748.848 L709.629 748.848 L709.629 744.913 Q712.291 742.158 716.875 737.528 Q721.481 732.876 722.662 731.533 Q724.907 729.01 725.787 727.274 Q726.689 725.515 726.689 723.825 Q726.689 721.07 724.745 719.334 Q722.824 717.598 719.722 717.598 Q717.523 717.598 715.069 718.362 Q712.638 719.126 709.861 720.677 L709.861 715.955 Q712.685 714.82 715.138 714.242 Q717.592 713.663 719.629 713.663 Q725 713.663 728.194 716.348 Q731.388 719.033 731.388 723.524 Q731.388 725.654 730.578 727.575 Q729.791 729.473 727.685 732.066 Q727.106 732.737 724.004 735.954 Q720.902 739.149 715.254 744.913 Z" fill="#000000" fill-rule="nonzero" fill-opacity="1" /><path clip-path="url(#clip740)" d="M741.435 714.288 L759.791 714.288 L759.791 718.223 L745.717 718.223 L745.717 726.695 Q746.736 726.348 747.754 726.186 Q748.773 726.001 749.791 726.001 Q755.578 726.001 758.958 729.172 Q762.337 732.343 762.337 737.76 Q762.337 743.339 758.865 746.44 Q755.393 749.519 749.073 749.519 Q746.898 749.519 744.629 749.149 Q742.384 748.778 739.976 748.038 L739.976 743.339 Q742.06 744.473 744.282 745.028 Q746.504 745.584 748.981 745.584 Q752.985 745.584 755.323 743.478 Q757.661 741.371 757.661 737.76 Q757.661 734.149 755.323 732.042 Q752.985 729.936 748.981 729.936 Q747.106 729.936 745.231 730.353 Q743.379 730.769 741.435 731.649 L741.435 714.288 Z" fill="#000000" fill-rule="nonzero" fill-opacity="1" /><path clip-path="url(#clip740)" d="M781.55 717.367 Q777.939 717.367 776.11 720.931 Q774.305 724.473 774.305 731.603 Q774.305 738.709 776.11 742.274 Q777.939 745.815 781.55 745.815 Q785.184 745.815 786.99 742.274 Q788.819 738.709 788.819 731.603 Q788.819 724.473 786.99 720.931 Q785.184 717.367 781.55 717.367 M781.55 713.663 Q787.36 713.663 790.416 718.269 Q793.495 722.853 793.495 731.603 Q793.495 740.329 790.416 744.936 Q787.36 749.519 781.55 749.519 Q775.74 749.519 772.661 744.936 Q769.606 740.329 769.606 731.603 Q769.606 722.853 772.661 718.269 Q775.74 713.663 781.55 713.663 Z" fill="#000000" fill-rule="nonzero" fill-opacity="1" /><path clip-path="url(#clip740)" d="M1224.4 714.288 L1242.76 714.288 L1242.76 718.223 L1228.69 718.223 L1228.69 726.695 Q1229.7 726.348 1230.72 726.186 Q1231.74 726.001 1232.76 726.001 Q1238.55 726.001 1241.93 729.172 Q1245.31 732.343 1245.31 737.76 Q1245.31 743.339 1241.83 746.44 Q1238.36 749.519 1232.04 749.519 Q1229.87 749.519 1227.6 749.149 Q1225.35 748.778 1222.94 748.038 L1222.94 743.339 Q1225.03 744.473 1227.25 745.028 Q1229.47 745.584 1231.95 745.584 Q1235.95 745.584 1238.29 743.478 Q1240.63 741.371 1240.63 737.76 Q1240.63 734.149 1238.29 732.042 Q1235.95 729.936 1231.95 729.936 Q1230.07 729.936 1228.2 730.353 Q1226.35 730.769 1224.4 731.649 L1224.4 714.288 Z" fill="#000000" fill-rule="nonzero" fill-opacity="1" /><path clip-path="url(#clip740)" d="M1264.52 717.367 Q1260.91 717.367 1259.08 720.931 Q1257.27 724.473 1257.27 731.603 Q1257.27 738.709 1259.08 742.274 Q1260.91 745.815 1264.52 745.815 Q1268.15 745.815 1269.96 742.274 Q1271.79 738.709 1271.79 731.603 Q1271.79 724.473 1269.96 720.931 Q1268.15 717.367 1264.52 717.367 M1264.52 713.663 Q1270.33 713.663 1273.38 718.269 Q1276.46 722.853 1276.46 731.603 Q1276.46 740.329 1273.38 744.936 Q1270.33 749.519 1264.52 749.519 Q1258.71 749.519 1255.63 744.936 Q1252.57 740.329 1252.57 731.603 Q1252.57 722.853 1255.63 718.269 Q1258.71 713.663 1264.52 713.663 Z" fill="#000000" fill-rule="nonzero" fill-opacity="1" /><path clip-path="url(#clip740)" d="M1294.68 717.367 Q1291.07 717.367 1289.24 720.931 Q1287.44 724.473 1287.44 731.603 Q1287.44 738.709 1289.24 742.274 Q1291.07 745.815 1294.68 745.815 Q1298.31 745.815 1300.12 742.274 Q1301.95 738.709 1301.95 731.603 Q1301.95 724.473 1300.12 720.931 Q1298.31 717.367 1294.68 717.367 M1294.68 713.663 Q1300.49 713.663 1303.55 718.269 Q1306.62 722.853 1306.62 731.603 Q1306.62 740.329 1303.55 744.936 Q1300.49 749.519 1294.68 749.519 Q1288.87 749.519 1285.79 744.936 Q1282.74 740.329 1282.74 731.603 Q1282.74 722.853 1285.79 718.269 Q1288.87 713.663 1294.68 713.663 Z" fill="#000000" fill-rule="nonzero" fill-opacity="1" /><path clip-path="url(#clip740)" d="M1736.28 714.288 L1758.51 714.288 L1758.51 716.279 L1745.96 748.848 L1741.08 748.848 L1752.88 718.223 L1736.28 718.223 L1736.28 714.288 Z" fill="#000000" fill-rule="nonzero" fill-opacity="1" /><path clip-path="url(#clip740)" d="M1767.67 714.288 L1786.03 714.288 L1786.03 718.223 L1771.95 718.223 L1771.95 726.695 Q1772.97 726.348 1773.99 726.186 Q1775.01 726.001 1776.03 726.001 Q1781.82 726.001 1785.2 729.172 Q1788.57 732.343 1788.57 737.76 Q1788.57 743.339 1785.1 746.44 Q1781.63 749.519 1775.31 749.519 Q1773.14 749.519 1770.87 749.149 Q1768.62 748.778 1766.21 748.038 L1766.21 743.339 Q1768.3 744.473 1770.52 745.028 Q1772.74 745.584 1775.22 745.584 Q1779.22 745.584 1781.56 743.478 Q1783.9 741.371 1783.9 737.76 Q1783.9 734.149 1781.56 732.042 Q1779.22 729.936 1775.22 729.936 Q1773.34 729.936 1771.47 730.353 Q1769.62 730.769 1767.67 731.649 L1767.67 714.288 Z" fill="#000000" fill-rule="nonzero" fill-opacity="1" /><path clip-path="url(#clip740)" d="M1807.79 717.367 Q1804.18 717.367 1802.35 720.931 Q1800.54 724.473 1800.54 731.603 Q1800.54 738.709 1802.35 742.274 Q1804.18 745.815 1807.79 745.815 Q1811.42 745.815 1813.23 742.274 Q1815.06 738.709 1815.06 731.603 Q1815.06 724.473 1813.23 720.931 Q1811.42 717.367 1807.79 717.367 M1807.79 713.663 Q1813.6 713.663 1816.65 718.269 Q1819.73 722.853 1819.73 731.603 Q1819.73 740.329 1816.65 744.936 Q1813.6 749.519 1807.79 749.519 Q1801.98 749.519 1798.9 744.936 Q1795.84 740.329 1795.84 731.603 Q1795.84 722.853 1798.9 718.269 Q1801.98 713.663 1807.79 713.663 Z" fill="#000000" fill-rule="nonzero" fill-opacity="1" /><path clip-path="url(#clip740)" d="M2235.76 744.913 L2243.4 744.913 L2243.4 718.547 L2235.09 720.214 L2235.09 715.955 L2243.35 714.288 L2248.02 714.288 L2248.02 744.913 L2255.66 744.913 L2255.66 748.848 L2235.76 748.848 L2235.76 744.913 Z" fill="#000000" fill-rule="nonzero" fill-opacity="1" /><path clip-path="url(#clip740)" d="M2275.11 717.367 Q2271.5 717.367 2269.67 720.931 Q2267.86 724.473 2267.86 731.603 Q2267.86 738.709 2269.67 742.274 Q2271.5 745.815 2275.11 745.815 Q2278.74 745.815 2280.55 742.274 Q2282.38 738.709 2282.38 731.603 Q2282.38 724.473 2280.55 720.931 Q2278.74 717.367 2275.11 717.367 M2275.11 713.663 Q2280.92 713.663 2283.97 718.269 Q2287.05 722.853 2287.05 731.603 Q2287.05 740.329 2283.97 744.936 Q2280.92 749.519 2275.11 749.519 Q2269.3 749.519 2266.22 744.936 Q2263.16 740.329 2263.16 731.603 Q2263.16 722.853 2266.22 718.269 Q2269.3 713.663 2275.11 713.663 Z" fill="#000000" fill-rule="nonzero" fill-opacity="1" /><path clip-path="url(#clip740)" d="M2305.27 717.367 Q2301.66 717.367 2299.83 720.931 Q2298.02 724.473 2298.02 731.603 Q2298.02 738.709 2299.83 742.274 Q2301.66 745.815 2305.27 745.815 Q2308.9 745.815 2310.71 742.274 Q2312.54 738.709 2312.54 731.603 Q2312.54 724.473 2310.71 720.931 Q2308.9 717.367 2305.27 717.367 M2305.27 713.663 Q2311.08 713.663 2314.14 718.269 Q2317.21 722.853 2317.21 731.603 Q2317.21 740.329 2314.14 744.936 Q2311.08 749.519 2305.27 749.519 Q2299.46 749.519 2296.38 744.936 Q2293.33 740.329 2293.33 731.603 Q2293.33 722.853 2296.38 718.269 Q2299.46 713.663 2305.27 713.663 Z" fill="#000000" fill-rule="nonzero" fill-opacity="1" /><path clip-path="url(#clip740)" d="M2335.43 717.367 Q2331.82 717.367 2329.99 720.931 Q2328.19 724.473 2328.19 731.603 Q2328.19 738.709 2329.99 742.274 Q2331.82 745.815 2335.43 745.815 Q2339.07 745.815 2340.87 742.274 Q2342.7 738.709 2342.7 731.603 Q2342.7 724.473 2340.87 720.931 Q2339.07 717.367 2335.43 717.367 M2335.43 713.663 Q2341.24 713.663 2344.3 718.269 Q2347.38 722.853 2347.38 731.603 Q2347.38 740.329 2344.3 744.936 Q2341.24 749.519 2335.43 749.519 Q2329.62 749.519 2326.54 744.936 Q2323.49 740.329 2323.49 731.603 Q2323.49 722.853 2326.54 718.269 Q2329.62 713.663 2335.43 713.663 Z" fill="#000000" fill-rule="nonzero" fill-opacity="1" /><polyline clip-path="url(#clip740)" style="stroke:#000000; stroke-linecap:round; stroke-linejoin:round; stroke-width:4; stroke-opacity:1; fill:none" points="178.867,686.448 178.867,47.2441 "/>
<polyline clip-path="url(#clip740)" style="stroke:#000000; stroke-linecap:round; stroke-linejoin:round; stroke-width:4; stroke-opacity:1; fill:none" points="178.867,686.448 197.764,686.448 "/>
<polyline clip-path="url(#clip740)" style="stroke:#000000; stroke-linecap:round; stroke-linejoin:round; stroke-width:4; stroke-opacity:1; fill:none" points="178.867,526.647 197.764,526.647 "/>
<polyline clip-path="url(#clip740)" style="stroke:#000000; stroke-linecap:round; stroke-linejoin:round; stroke-width:4; stroke-opacity:1; fill:none" points="178.867,366.846 197.764,366.846 "/>
<polyline clip-path="url(#clip740)" style="stroke:#000000; stroke-linecap:round; stroke-linejoin:round; stroke-width:4; stroke-opacity:1; fill:none" points="178.867,207.045 197.764,207.045 "/>
<polyline clip-path="url(#clip740)" style="stroke:#000000; stroke-linecap:round; stroke-linejoin:round; stroke-width:4; stroke-opacity:1; fill:none" points="178.867,47.2441 197.764,47.2441 "/>
<path clip-path="url(#clip740)" d="M50.9921 686.899 L80.6679 686.899 L80.6679 690.834 L50.9921 690.834 L50.9921 686.899 Z" fill="#000000" fill-rule="nonzero" fill-opacity="1" /><path clip-path="url(#clip740)" d="M91.5706 699.793 L99.2095 699.793 L99.2095 673.427 L90.8993 675.094 L90.8993 670.835 L99.1632 669.168 L103.839 669.168 L103.839 699.793 L111.478 699.793 L111.478 703.728 L91.5706 703.728 L91.5706 699.793 Z" fill="#000000" fill-rule="nonzero" fill-opacity="1" /><path clip-path="url(#clip740)" d="M130.922 672.247 Q127.311 672.247 125.482 675.811 Q123.677 679.353 123.677 686.483 Q123.677 693.589 125.482 697.154 Q127.311 700.695 130.922 700.695 Q134.556 700.695 136.362 697.154 Q138.191 693.589 138.191 686.483 Q138.191 679.353 136.362 675.811 Q134.556 672.247 130.922 672.247 M130.922 668.543 Q136.732 668.543 139.788 673.149 Q142.867 677.733 142.867 686.483 Q142.867 695.209 139.788 699.816 Q136.732 704.399 130.922 704.399 Q125.112 704.399 122.033 699.816 Q118.978 695.209 118.978 686.483 Q118.978 677.733 122.033 673.149 Q125.112 668.543 130.922 668.543 Z" fill="#000000" fill-rule="nonzero" fill-opacity="1" /><path clip-path="url(#clip740)" d="M82.1494 527.098 L111.825 527.098 L111.825 531.033 L82.1494 531.033 L82.1494 527.098 Z" fill="#000000" fill-rule="nonzero" fill-opacity="1" /><path clip-path="url(#clip740)" d="M121.964 509.367 L140.32 509.367 L140.32 513.302 L126.246 513.302 L126.246 521.774 Q127.265 521.427 128.283 521.265 Q129.302 521.08 130.32 521.08 Q136.107 521.08 139.487 524.251 Q142.867 527.422 142.867 532.839 Q142.867 538.418 139.394 541.52 Q135.922 544.598 129.603 544.598 Q127.427 544.598 125.158 544.228 Q122.913 543.857 120.506 543.117 L120.506 538.418 Q122.589 539.552 124.811 540.108 Q127.033 540.663 129.51 540.663 Q133.515 540.663 135.853 538.557 Q138.191 536.45 138.191 532.839 Q138.191 529.228 135.853 527.121 Q133.515 525.015 129.51 525.015 Q127.635 525.015 125.76 525.432 Q123.908 525.848 121.964 526.728 L121.964 509.367 Z" fill="#000000" fill-rule="nonzero" fill-opacity="1" /><path clip-path="url(#clip740)" d="M130.922 352.645 Q127.311 352.645 125.482 356.209 Q123.677 359.751 123.677 366.881 Q123.677 373.987 125.482 377.552 Q127.311 381.094 130.922 381.094 Q134.556 381.094 136.362 377.552 Q138.191 373.987 138.191 366.881 Q138.191 359.751 136.362 356.209 Q134.556 352.645 130.922 352.645 M130.922 348.941 Q136.732 348.941 139.788 353.547 Q142.867 358.131 142.867 366.881 Q142.867 375.608 139.788 380.214 Q136.732 384.797 130.922 384.797 Q125.112 384.797 122.033 380.214 Q118.978 375.608 118.978 366.881 Q118.978 358.131 122.033 353.547 Q125.112 348.941 130.922 348.941 Z" fill="#000000" fill-rule="nonzero" fill-opacity="1" /><path clip-path="url(#clip740)" d="M121.964 189.765 L140.32 189.765 L140.32 193.7 L126.246 193.7 L126.246 202.172 Q127.265 201.825 128.283 201.663 Q129.302 201.478 130.32 201.478 Q136.107 201.478 139.487 204.649 Q142.867 207.82 142.867 213.237 Q142.867 218.816 139.394 221.918 Q135.922 224.996 129.603 224.996 Q127.427 224.996 125.158 224.626 Q122.913 224.256 120.506 223.515 L120.506 218.816 Q122.589 219.95 124.811 220.506 Q127.033 221.061 129.51 221.061 Q133.515 221.061 135.853 218.955 Q138.191 216.848 138.191 213.237 Q138.191 209.626 135.853 207.52 Q133.515 205.413 129.51 205.413 Q127.635 205.413 125.76 205.83 Q123.908 206.246 121.964 207.126 L121.964 189.765 Z" fill="#000000" fill-rule="nonzero" fill-opacity="1" /><path clip-path="url(#clip740)" d="M91.5706 60.5889 L99.2095 60.5889 L99.2095 34.2233 L90.8993 35.89 L90.8993 31.6308 L99.1632 29.9641 L103.839 29.9641 L103.839 60.5889 L111.478 60.5889 L111.478 64.5241 L91.5706 64.5241 L91.5706 60.5889 Z" fill="#000000" fill-rule="nonzero" fill-opacity="1" /><path clip-path="url(#clip740)" d="M130.922 33.0428 Q127.311 33.0428 125.482 36.6076 Q123.677 40.1492 123.677 47.2788 Q123.677 54.3853 125.482 57.9501 Q127.311 61.4917 130.922 61.4917 Q134.556 61.4917 136.362 57.9501 Q138.191 54.3853 138.191 47.2788 Q138.191 40.1492 136.362 36.6076 Q134.556 33.0428 130.922 33.0428 M130.922 29.3391 Q136.732 29.3391 139.788 33.9456 Q142.867 38.5289 142.867 47.2788 Q142.867 56.0056 139.788 60.6121 Q136.732 65.1954 130.922 65.1954 Q125.112 65.1954 122.033 60.6121 Q118.978 56.0056 118.978 47.2788 Q118.978 38.5289 122.033 33.9456 Q125.112 29.3391 130.922 29.3391 Z" fill="#000000" fill-rule="nonzero" fill-opacity="1" /><polyline clip-path="url(#clip742)" style="stroke:#009af9; stroke-linecap:round; stroke-linejoin:round; stroke-width:4; stroke-opacity:1; fill:none" points="240.392,334.886 242.445,335.817 244.498,336.449 246.55,335.277 248.603,323.666 250.656,320.407 252.709,320.878 254.762,317.618 256.815,339.198 258.868,349.987 260.921,346.396 262.974,361.206 265.027,360.973 267.079,414.515 269.132,414.488 271.185,435.604 273.238,453.937 275.291,453.892 277.344,453.949 279.397,448.327 281.45,394.638 283.503,374.146 285.555,374.16 287.608,382.941 289.661,382.841 291.714,382.752 293.767,357.609 295.82,351.923 297.873,375.601 299.926,376.48 301.979,365.288 304.031,365.094 306.084,377.146 308.137,377.98 310.19,376.739 312.243,375.706 314.296,375.987 316.349,375.996 318.402,380.655 320.455,381.159 322.507,383.566 324.56,384.427 326.613,374.059 328.666,374.062 330.719,372.806 332.772,386.814 334.825,385.961 336.878,391.241 338.931,394.301 340.984,389.427 343.036,389.336 345.089,389.267 347.142,388.999 349.195,387.087 351.248,386.926 353.301,383.504 355.354,389.527 357.407,389.623 359.46,392.901 361.512,432.073 363.565,435.353 365.618,338.115 367.671,338.181 369.724,338.04 371.777,337.633 373.83,337.688 375.883,337.721 377.936,336.758 379.988,346.236 382.041,351.914 384.094,327.169 386.147,334.736 388.2,335.094 390.253,334.68 392.306,353.552 394.359,356.726 396.412,345.168 398.464,344.768 400.517,342.507 402.57,349.118 404.623,349.789 406.676,350.062 408.729,366.537 410.782,364.539 412.835,341.155 414.888,337.12 416.94,336.736 418.993,333.442 421.046,372.283 423.099,364.317 425.152,366.101 427.205,366.427 429.258,365.282 431.311,369.413 433.364,369.329 435.417,365.463 437.469,366.641 439.522,366.228 441.575,368.379 443.628,367.947 445.681,365.496 447.734,372.296 449.787,375.995 451.84,376.495 453.893,376.958 455.945,376.074 457.998,376.373 460.051,381.16 462.104,381.38 464.157,404.085 466.21,400.275 468.263,400.661 470.316,403.438 472.369,403.352 474.421,395.792 476.474,356.351 478.527,364.244 480.58,363.907 482.633,363.396 484.686,349.536 486.739,353.014 488.792,349.923 490.845,346.815 492.897,368.633 494.95,359.224 497.003,361.823 499.056,394.604 501.109,393.05 503.162,389.695 505.215,379.93 507.268,358.643 509.321,374.13 511.374,360.781 513.426,360.609 515.479,358.54 517.532,358.47 519.585,355.593 521.638,360.362 523.691,360.193 525.744,362.217 527.797,364.586 529.85,364.522 531.902,371.027 533.955,376.536 536.008,385.484 538.061,389.282 540.114,389.5 542.167,389.563 544.22,375.112 546.273,375.142 548.326,376.118 550.378,373.323 552.431,371.055 554.484,368.86 556.537,364.897 558.59,364.947 560.643,370.066 562.696,370.066 564.749,370.793 566.802,371.084 568.854,369.084 570.907,367.348 572.96,366.838 575.013,374.909 577.066,373.906 579.119,373.491 581.172,373.684 583.225,373.577 585.278,373.542 587.331,373.334 589.383,373.616 591.436,373.258 593.489,373.188 595.542,373.187 597.595,375.614 599.648,377.337 601.701,377.331 603.754,351.706 605.807,347.532 607.859,347.531 609.912,347.873 611.965,347.773 614.018,342.536 616.071,347.06 618.124,291.089 620.177,355.88 622.23,366.225 624.283,387.989 626.335,377.497 628.388,361.077 630.441,324.446 632.494,322.709 634.547,322.849 636.6,325.858 638.653,326.108 640.706,338.719 642.759,335.453 644.811,349.294 646.864,350.001 648.917,350.057 650.97,350.055 653.023,349.611 655.076,345.701 657.129,348.194 659.182,347.85 661.235,349.088 663.288,347.828 665.34,347.811 667.393,347.792 669.446,347.861 671.499,359.998 673.552,382.258 675.605,391.024 677.658,386.405 679.711,356.086 681.764,388.526 683.816,388.514 685.869,397.586 687.922,396.117 689.975,395.739 692.028,395.718 694.081,394.863 696.134,394.375 698.187,394.63 700.24,388.024 702.292,394.502 704.345,394.862 706.398,391.799 708.451,391.752 710.504,390.641 712.557,388.187 714.61,393.363 716.663,393.397 718.716,371.451 720.768,366.936 722.821,363.868 724.874,363.947 726.927,360.065 728.98,360.381 731.033,360.475 733.086,359.981 735.139,360.011 737.192,357.235 739.245,341.184 741.297,340.198 743.35,340.334 745.403,324.675 747.456,359.689 749.509,365.802 751.562,367.429 753.615,368.708 755.668,370.187 757.721,372.726 759.773,374.072 761.826,377.343 763.879,377.612 765.932,377.872 767.985,375.82 770.038,375.04 772.091,375.297 774.144,373.005 776.197,373.382 778.249,373.375 780.302,379.923 782.355,379.92 784.408,373.911 786.461,373.924 788.514,374.985 790.567,375.205 792.62,375.845 794.673,374.47 796.725,374.345 798.778,374.836 800.831,371.841 802.884,370.091 804.937,370.304 806.99,373.323 809.043,373.09 811.096,377.083 813.149,382.278 815.202,365.576 817.254,357.511 819.307,360.757 821.36,362.922 823.413,363.788 825.466,372.117 827.519,373.69 829.572,374.709 831.625,373.428 833.678,373.47 835.73,353.031 837.783,353.313 839.836,346.471 841.889,346.911 843.942,345.487 845.995,352.524 848.048,352.515 850.101,354.834 852.154,354.294 854.206,346.95 856.259,346.915 858.312,348.293 860.365,353.898 862.418,404.388 864.471,393.669 866.524,393.426 868.577,396.76 870.63,394.302 872.682,398.825 874.735,400.852 876.788,401.346 878.841,376.005 880.894,375.168 882.947,374.667 885,387.612 887.053,338.909 889.106,332.632 891.159,332.73 893.211,338.494 895.264,341.428 897.317,347.092 899.37,316.095 901.423,253.227 903.476,251.468 905.529,308.791 907.582,308.812 909.635,298.567 911.687,308.682 913.74,304.671 915.793,312.321 917.846,311.713 919.899,308.999 921.952,325.903 924.005,326.185 926.058,292.359 928.111,317.602 930.163,298.958 932.216,336.522 934.269,330.841 936.322,331.755 938.375,338.906 940.428,333.121 942.481,334.11 944.534,338.627 946.587,337.966 948.639,372.228 950.692,371.147 952.745,339.883 954.798,338.636 956.851,342.624 958.904,354.771 960.957,354.935 963.01,390.966 965.063,390.88 967.116,388.392 969.168,359.47 971.221,357.52 973.274,354.021 975.327,356.671 977.38,356.721 979.433,342.206 981.486,342.372 983.539,341.663 985.592,340.974 987.644,340.984 989.697,342.278 991.75,343.224 993.803,353.959 995.856,374.99 997.909,377.889 999.962,372.276 1002.01,374.744 1004.07,401.361 1006.12,403.115 1008.17,419.328 1010.23,352.239 1012.28,360.274 1014.33,356.102 1016.38,350.302 1018.44,376.041 1020.49,376.035 1022.54,396.513 1024.6,395.646 1026.65,393.664 1028.7,356.087 1030.76,296.493 1032.81,299.903 1034.86,351.608 1036.91,305.978 1038.97,305.354 1041.02,300.316 1043.07,275.685 1045.13,283.62 1047.18,311.305 1049.23,367.857 1051.28,362.234 1053.34,348.925 1055.39,349.89 1057.44,351.052 1059.5,345.812 1061.55,340.508 1063.6,340.307 1065.65,336.72 1067.71,338.011 1069.76,420.119 1071.81,419.83 1073.87,419.646 1075.92,419.598 1077.97,417.904 1080.02,417.732 1082.08,403.024 1084.13,392.684 1086.18,390.433 1088.24,381.699 1090.29,381.965 1092.34,383.548 1094.39,385.135 1096.45,351.606 1098.5,349.05 1100.55,434.954 1102.61,430.725 1104.66,430.372 1106.71,416.807 1108.77,429.765 1110.82,429.259 1112.87,431.963 1114.92,432.043 1116.98,432.354 1119.03,432.496 1121.08,432.467 1123.14,432.658 1125.19,419.319 1127.24,366.489 1129.29,368.187 1131.35,366.253 1133.4,379.349 1135.45,378.452 1137.51,378.753 1139.56,387.139 1141.61,363.87 1143.66,363.312 1145.72,371.186 1147.77,379.047 1149.82,320.592 1151.88,324.38 1153.93,328.288 1155.98,284.029 1158.03,267.305 1160.09,272.313 1162.14,307.966 1164.19,307.759 1166.25,305.028 1168.3,406.523 1170.35,390.704 1172.4,338.779 1174.46,407.108 1176.51,407.05 1178.56,397.706 1180.62,359.863 1182.67,371.078 1184.72,402.556 1186.77,442.068 1188.83,476.291 1190.88,378.162 1192.93,383.214 1194.99,381.402 1197.04,381.498 1199.09,403.461 1201.15,389.297 1203.2,398.956 1205.25,391.239 1207.3,376.942 1209.36,388.792 1211.41,376.296 1213.46,379.905 1215.52,420.405 1217.57,413.024 1219.62,414.58 1221.67,397.293 1223.73,398.517 1225.78,397.666 1227.83,390.28 1229.89,379.661 1231.94,381.913 1233.99,381.964 1236.04,398.373 1238.1,398.364 1240.15,429.336 1242.2,427.264 1244.26,426.765 1246.31,426.689 1248.36,427.184 1250.41,426.373 1252.47,379.309 1254.52,386.343 1256.57,356.812 1258.63,370.37 1260.68,375.945 1262.73,390.427 1264.78,328.979 1266.84,321.09 1268.89,323.22 1270.94,323.553 1273,324.299 1275.05,319.117 1277.1,321.695 1279.16,320.28 1281.21,325.991 1283.26,326.688 1285.31,394.431 1287.37,394.412 1289.42,394.792 1291.47,391.806 1293.53,391.402 1295.58,392.287 1297.63,391.108 1299.68,389.425 1301.74,353.851 1303.79,360.933 1305.84,359.052 1307.9,388.221 1309.95,387.997 1312,356.216 1314.05,355.764 1316.11,351.143 1318.16,350.783 1320.21,348.19 1322.27,349.789 1324.32,351.437 1326.37,384.738 1328.42,380.41 1330.48,378.166 1332.53,378.746 1334.58,381.034 1336.64,365.425 1338.69,372.134 1340.74,408.277 1342.79,411.542 1344.85,411.597 1346.9,406.253 1348.95,381.395 1351.01,381.433 1353.06,380.895 1355.11,381.174 1357.16,381.768 1359.22,375.754 1361.27,383.52 1363.32,382.277 1365.38,380.953 1367.43,373.643 1369.48,372.024 1371.54,371.866 1373.59,377.036 1375.64,384.459 1377.69,384.573 1379.75,363.701 1381.8,364.618 1383.85,365.962 1385.91,368.926 1387.96,370.203 1390.01,375.458 1392.06,369.987 1394.12,368.777 1396.17,366.128 1398.22,367.487 1400.28,370.764 1402.33,357.114 1404.38,357.448 1406.43,356.177 1408.49,345.327 1410.54,340.177 1412.59,348.334 1414.65,348.432 1416.7,348.43 1418.75,350.778 1420.8,350.604 1422.86,335.649 1424.91,335.461 1426.96,411.248 1429.02,415.058 1431.07,412.673 1433.12,406.917 1435.17,401.596 1437.23,361.061 1439.28,360.998 1441.33,361.787 1443.39,359.318 1445.44,359.298 1447.49,359.802 1449.55,355.591 1451.6,354.378 1453.65,354.746 1455.7,357.299 1457.76,360.627 1459.81,360.627 1461.86,360.616 1463.92,360.922 1465.97,362.766 1468.02,352.211 1470.07,352.31 1472.13,354.695 1474.18,364.837 1476.23,361.295 1478.29,360.758 1480.34,361.868 1482.39,364.736 1484.44,364.209 1486.5,364.251 1488.55,365.883 1490.6,369.433 1492.66,382.55 1494.71,378.994 1496.76,378.936 1498.81,379.481 1500.87,398.173 1502.92,366.107 1504.97,365.439 1507.03,378.477 1509.08,378.319 1511.13,419.509 1513.18,406.749 1515.24,392.816 1517.29,392.623 1519.34,356.688 1521.4,386.798 1523.45,385.726 1525.5,387.67 1527.55,385.391 1529.61,362.724 1531.66,351.68 1533.71,355.851 1535.77,356.057 1537.82,423.442 1539.87,331.833 1541.93,314.117 1543.98,314.022 1546.03,319.622 1548.08,316.694 1550.14,316.37 1552.19,313.029 1554.24,316.643 1556.3,310.515 1558.35,345.483 1560.4,345.54 1562.45,312.131 1564.51,337.903 1566.56,388.886 1568.61,418.521 1570.67,380.835 1572.72,354.343 1574.77,437.978 1576.82,388.294 1578.88,398.516 1580.93,405.853 1582.98,423.835 1585.04,390.252 1587.09,353.287 1589.14,383.979 1591.19,385.315 1593.25,355.389 1595.3,237.258 1597.35,229.472 1599.41,227.483 1601.46,316.474 1603.51,494.401 1605.56,500.924 1607.62,435.8 1609.67,423.874 1611.72,424.444 1613.78,457.227 1615.83,402.733 1617.88,402.794 1619.94,402.316 1621.99,421.248 1624.04,416.031 1626.09,406.329 1628.15,406.534 1630.2,405.062 1632.25,406.22 1634.31,406.543 1636.36,408.738 1638.41,409.033 1640.46,447.867 1642.52,426.915 1644.57,404.545 1646.62,395.629 1648.68,395.628 1650.73,392.534 1652.78,390.811 1654.83,392.503 1656.89,392.529 1658.94,389.604 1660.99,360.498 1663.05,356.44 1665.1,390.011 1667.15,325.862 1669.2,340.718 1671.26,340.872 1673.31,321.619 1675.36,364.449 1677.42,364.703 1679.47,394.345 1681.52,318.198 1683.57,437.076 1685.63,411.416 1687.68,421.507 1689.73,387.607 1691.79,360.456 1693.84,421.558 1695.89,347.339 1697.94,326.306 1700,323.609 1702.05,397.597 1704.1,374.484 1706.16,375.12 1708.21,374.764 1710.26,334.609 1712.32,363.443 1714.37,515.152 1716.42,461.737 1718.47,461.762 1720.53,458.966 1722.58,430.237 1724.63,432.6 1726.69,456.319 1728.74,456.401 1730.79,450.196 1732.84,454.985 1734.9,450.989 1736.95,402.793 1739,398.916 1741.06,399.002 1743.11,400.312 1745.16,404.924 1747.21,404.426 1749.27,388.835 1751.32,433.751 1753.37,243.035 1755.43,256.559 1757.48,307.219 1759.53,453.861 1761.58,348.85 1763.64,334.756 1765.69,334.628 1767.74,361.07 1769.8,413.989 1771.85,414.809 1773.9,505.071 1775.95,510.44 1778.01,599.035 1780.06,521.514 1782.11,502.077 1784.17,633.591 1786.22,587.544 1788.27,597.255 1790.33,561.815 1792.38,566.399 1794.43,574.099 1796.48,572.989 1798.54,569.452 1800.59,244.685 1802.64,228.189 1804.7,247.094 1806.75,440.397 1808.8,396.825 1810.85,367.464 1812.91,369.778 1814.96,365.614 1817.01,396.09 1819.07,475.372 1821.12,467.729 1823.17,465.113 1825.22,469.56 1827.28,483.607 1829.33,483.132 1831.38,483.173 1833.44,483.908 1835.49,479.502 1837.54,380.508 1839.59,407.547 1841.65,402.367 1843.7,413.031 1845.75,327.843 1847.81,334.258 1849.86,334.441 1851.91,321.756 1853.96,321.505 1856.02,286.309 1858.07,325.871 1860.12,345.041 1862.18,326.018 1864.23,324.606 1866.28,350.468 1868.34,359.148 1870.39,363.446 1872.44,362.828 1874.49,347.464 1876.55,360.733 1878.6,352.199 1880.65,348.194 1882.71,347.712 1884.76,347.28 1886.81,356.23 1888.86,354.101 1890.92,352.672 1892.97,352.643 1895.02,352.848 1897.08,352.81 1899.13,338.763 1901.18,339.414 1903.23,340.256 1905.29,340.494 1907.34,313.28 1909.39,311.607 1911.45,369.596 1913.5,407.416 1915.55,389.379 1917.6,388.905 1919.66,389.225 1921.71,389.881 1923.76,389.896 1925.82,381.853 1927.87,380.348 1929.92,369.893 1931.97,366.085 1934.03,366.407 1936.08,367.576 1938.13,367.881 1940.19,367.824 1942.24,372.399 1944.29,384.095 1946.34,375.727 1948.4,375.529 1950.45,376.404 1952.5,378.767 1954.56,381.707 1956.61,384.323 1958.66,381.826 1960.72,385.311 1962.77,388.685 1964.82,388.381 1966.87,388.384 1968.93,388.727 1970.98,389.762 1973.03,288.828 1975.09,300.907 1977.14,302.379 1979.19,301.786 1981.24,312.295 1983.3,313.423 1985.35,314.816 1987.4,452.384 1989.46,457.671 1991.51,456.722 1993.56,464.657 1995.61,461.214 1997.67,461.994 1999.72,462.939 2001.77,435.248 2003.83,405.871 2005.88,412 2007.93,413.453 2009.98,413.21 2012.04,424.549 2014.09,424.413 2016.14,436.165 2018.2,431.707 2020.25,436.099 2022.3,448.44 2024.35,448.457 2026.41,447.84 2028.46,448.12 2030.51,469.08 2032.57,494.868 2034.62,545.589 2036.67,561.261 2038.73,571.138 2040.78,523.679 2042.83,524.436 2044.88,324.906 2046.94,368.983 2048.99,372.579 2051.04,372.21 2053.1,370.318 2055.15,363.957 2057.2,362.449 2059.25,371.424 2061.31,375.14 2063.36,360.762 2065.41,356.711 2067.47,366.171 2069.52,392.44 2071.57,382.823 2073.62,376.029 2075.68,374.729 2077.73,374.999 2079.78,370.911 2081.84,382.245 2083.89,381.035 2085.94,382.345 2087.99,382.247 2090.05,395.271 2092.1,395.494 2094.15,363.079 2096.21,393.586 2098.26,390.66 2100.31,382.914 2102.36,382.964 2104.42,383.388 2106.47,383.628 2108.52,381.67 2110.58,396.815 2112.63,395.785 2114.68,391.422 2116.73,390.342 2118.79,372.717 2120.84,372.661 2122.89,372.731 2124.95,370.143 2127,370.151 2129.05,368.762 2131.11,375.309 2133.16,366.541 2135.21,367.889 2137.26,369.919 2139.32,355.182 2141.37,355.229 2143.42,377.833 2145.48,364.493 2147.53,364.452 2149.58,362.506 2151.63,362.674 2153.69,357.736 2155.74,357.804 2157.79,346.598 2159.85,382.47 2161.9,376.632 2163.95,377.851 2166,308.258 2168.06,308.03 2170.11,300.744 2172.16,299.44 2174.22,305.764 2176.27,336.917 2178.32,334.357 2180.37,318.718 2182.43,305.745 2184.48,267.26 2186.53,267.681 2188.59,267.792 2190.64,265.991 2192.69,329.619 2194.74,328.743 2196.8,328.155 2198.85,320.482 2200.9,306.76 2202.96,321.54 2205.01,322.708 2207.06,327.43 2209.12,326.57 2211.17,318.829 2213.22,319.682 2215.27,319.311 2217.33,324.547 2219.38,325.422 2221.43,327.897 2223.49,337.679 2225.54,374.245 2227.59,419.49 2229.64,384.173 2231.7,448.281 2233.75,456.465 2235.8,458.109 2237.86,421.276 2239.91,331.586 2241.96,347.426 2244.01,343.755 2246.07,363.72 2248.12,363.317 2250.17,379.982 2252.23,365.148 2254.28,355.107 2256.33,341.132 2258.38,359.228 2260.44,356.675 2262.49,343.382 2264.54,263.949 2266.6,261.875 2268.65,312.327 2270.7,318.718 2272.75,291.607 2274.81,281.202 2276.86,177.046 2278.91,177.221 2280.97,136.696 2283.02,132.909 2285.07,247.032 2287.12,245.582 2289.18,305.831 2291.23,464.399 "/>
<path clip-path="url(#clip740)" d="M251.33 172.231 L548.024 172.231 L548.024 68.5509 L251.33 68.5509  Z" fill="#ffffff" fill-rule="evenodd" fill-opacity="1"/>
<polyline clip-path="url(#clip740)" style="stroke:#000000; stroke-linecap:round; stroke-linejoin:round; stroke-width:4; stroke-opacity:1; fill:none" points="251.33,172.231 548.024,172.231 548.024,68.5509 251.33,68.5509 251.33,172.231 "/>
<polyline clip-path="url(#clip740)" style="stroke:#009af9; stroke-linecap:round; stroke-linejoin:round; stroke-width:4; stroke-opacity:1; fill:none" points="275.484,120.391 420.41,120.391 "/>
<path clip-path="url(#clip740)" d="M444.564 103.111 L449.24 103.111 L449.24 133.736 L466.069 133.736 L466.069 137.671 L444.564 137.671 L444.564 103.111 Z" fill="#000000" fill-rule="nonzero" fill-opacity="1" /><path clip-path="url(#clip740)" d="M491.694 104.245 L491.694 108.805 Q489.032 107.532 486.67 106.907 Q484.309 106.282 482.11 106.282 Q478.291 106.282 476.208 107.764 Q474.147 109.245 474.147 111.977 Q474.147 114.268 475.513 115.449 Q476.902 116.606 480.745 117.324 L483.569 117.902 Q488.8 118.898 491.277 121.421 Q493.777 123.921 493.777 128.134 Q493.777 133.157 490.397 135.75 Q487.041 138.342 480.536 138.342 Q478.083 138.342 475.305 137.787 Q472.55 137.231 469.587 136.143 L469.587 131.328 Q472.434 132.926 475.166 133.736 Q477.897 134.546 480.536 134.546 Q484.541 134.546 486.717 132.972 Q488.893 131.398 488.893 128.481 Q488.893 125.935 487.319 124.5 Q485.768 123.064 482.203 122.347 L479.356 121.791 Q474.124 120.75 471.786 118.527 Q469.448 116.305 469.448 112.347 Q469.448 107.764 472.666 105.125 Q475.907 102.486 481.578 102.486 Q484.008 102.486 486.532 102.926 Q489.055 103.366 491.694 104.245 Z" fill="#000000" fill-rule="nonzero" fill-opacity="1" /><path clip-path="url(#clip740)" d="M521.786 104.245 L521.786 108.805 Q519.124 107.532 516.763 106.907 Q514.402 106.282 512.203 106.282 Q508.383 106.282 506.3 107.764 Q504.24 109.245 504.24 111.977 Q504.24 114.268 505.606 115.449 Q506.994 116.606 510.837 117.324 L513.661 117.902 Q518.893 118.898 521.369 121.421 Q523.869 123.921 523.869 128.134 Q523.869 133.157 520.49 135.75 Q517.133 138.342 510.629 138.342 Q508.175 138.342 505.397 137.787 Q502.643 137.231 499.68 136.143 L499.68 131.328 Q502.527 132.926 505.258 133.736 Q507.99 134.546 510.629 134.546 Q514.633 134.546 516.809 132.972 Q518.985 131.398 518.985 128.481 Q518.985 125.935 517.411 124.5 Q515.86 123.064 512.295 122.347 L509.448 121.791 Q504.217 120.75 501.879 118.527 Q499.541 116.305 499.541 112.347 Q499.541 107.764 502.758 105.125 Q505.999 102.486 511.67 102.486 Q514.101 102.486 516.624 102.926 Q519.147 103.366 521.786 104.245 Z" fill="#000000" fill-rule="nonzero" fill-opacity="1" /><path clip-path="url(#clip740)" d="M178.867 1486.45 L2352.76 1486.45 L2352.76 847.244 L178.867 847.244  Z" fill="#ffffff" fill-rule="evenodd" fill-opacity="1"/>
<defs>
  <clipPath id="clip743">
    <rect x="178" y="847" width="2175" height="640"/>
  </clipPath>
</defs>
<polyline clip-path="url(#clip743)" style="stroke:#000000; stroke-linecap:round; stroke-linejoin:round; stroke-width:2; stroke-opacity:0.1; fill:none" points="238.339,1486.45 238.339,847.244 "/>
<polyline clip-path="url(#clip743)" style="stroke:#000000; stroke-linecap:round; stroke-linejoin:round; stroke-width:2; stroke-opacity:0.1; fill:none" points="751.562,1486.45 751.562,847.244 "/>
<polyline clip-path="url(#clip743)" style="stroke:#000000; stroke-linecap:round; stroke-linejoin:round; stroke-width:2; stroke-opacity:0.1; fill:none" points="1264.78,1486.45 1264.78,847.244 "/>
<polyline clip-path="url(#clip743)" style="stroke:#000000; stroke-linecap:round; stroke-linejoin:round; stroke-width:2; stroke-opacity:0.1; fill:none" points="1778.01,1486.45 1778.01,847.244 "/>
<polyline clip-path="url(#clip743)" style="stroke:#000000; stroke-linecap:round; stroke-linejoin:round; stroke-width:2; stroke-opacity:0.1; fill:none" points="2291.23,1486.45 2291.23,847.244 "/>
<polyline clip-path="url(#clip743)" style="stroke:#000000; stroke-linecap:round; stroke-linejoin:round; stroke-width:2; stroke-opacity:0.1; fill:none" points="178.867,1486.45 2352.76,1486.45 "/>
<polyline clip-path="url(#clip743)" style="stroke:#000000; stroke-linecap:round; stroke-linejoin:round; stroke-width:2; stroke-opacity:0.1; fill:none" points="178.867,1326.65 2352.76,1326.65 "/>
<polyline clip-path="url(#clip743)" style="stroke:#000000; stroke-linecap:round; stroke-linejoin:round; stroke-width:2; stroke-opacity:0.1; fill:none" points="178.867,1166.85 2352.76,1166.85 "/>
<polyline clip-path="url(#clip743)" style="stroke:#000000; stroke-linecap:round; stroke-linejoin:round; stroke-width:2; stroke-opacity:0.1; fill:none" points="178.867,1007.05 2352.76,1007.05 "/>
<polyline clip-path="url(#clip743)" style="stroke:#000000; stroke-linecap:round; stroke-linejoin:round; stroke-width:2; stroke-opacity:0.1; fill:none" points="178.867,847.244 2352.76,847.244 "/>
<polyline clip-path="url(#clip740)" style="stroke:#000000; stroke-linecap:round; stroke-linejoin:round; stroke-width:4; stroke-opacity:1; fill:none" points="178.867,1486.45 2352.76,1486.45 "/>
<polyline clip-path="url(#clip740)" style="stroke:#000000; stroke-linecap:round; stroke-linejoin:round; stroke-width:4; stroke-opacity:1; fill:none" points="238.339,1486.45 238.339,1467.55 "/>
<polyline clip-path="url(#clip740)" style="stroke:#000000; stroke-linecap:round; stroke-linejoin:round; stroke-width:4; stroke-opacity:1; fill:none" points="751.562,1486.45 751.562,1467.55 "/>
<polyline clip-path="url(#clip740)" style="stroke:#000000; stroke-linecap:round; stroke-linejoin:round; stroke-width:4; stroke-opacity:1; fill:none" points="1264.78,1486.45 1264.78,1467.55 "/>
<polyline clip-path="url(#clip740)" style="stroke:#000000; stroke-linecap:round; stroke-linejoin:round; stroke-width:4; stroke-opacity:1; fill:none" points="1778.01,1486.45 1778.01,1467.55 "/>
<polyline clip-path="url(#clip740)" style="stroke:#000000; stroke-linecap:round; stroke-linejoin:round; stroke-width:4; stroke-opacity:1; fill:none" points="2291.23,1486.45 2291.23,1467.55 "/>
<path clip-path="url(#clip740)" d="M238.339 1517.37 Q234.728 1517.37 232.899 1520.93 Q231.094 1524.47 231.094 1531.6 Q231.094 1538.71 232.899 1542.27 Q234.728 1545.82 238.339 1545.82 Q241.973 1545.82 243.779 1542.27 Q245.607 1538.71 245.607 1531.6 Q245.607 1524.47 243.779 1520.93 Q241.973 1517.37 238.339 1517.37 M238.339 1513.66 Q244.149 1513.66 247.205 1518.27 Q250.283 1522.85 250.283 1531.6 Q250.283 1540.33 247.205 1544.94 Q244.149 1549.52 238.339 1549.52 Q232.529 1549.52 229.45 1544.94 Q226.395 1540.33 226.395 1531.6 Q226.395 1522.85 229.45 1518.27 Q232.529 1513.66 238.339 1513.66 Z" fill="#000000" fill-rule="nonzero" fill-opacity="1" /><path clip-path="url(#clip740)" d="M715.254 1544.91 L731.574 1544.91 L731.574 1548.85 L709.629 1548.85 L709.629 1544.91 Q712.291 1542.16 716.875 1537.53 Q721.481 1532.88 722.662 1531.53 Q724.907 1529.01 725.787 1527.27 Q726.689 1525.51 726.689 1523.82 Q726.689 1521.07 724.745 1519.33 Q722.824 1517.6 719.722 1517.6 Q717.523 1517.6 715.069 1518.36 Q712.638 1519.13 709.861 1520.68 L709.861 1515.95 Q712.685 1514.82 715.138 1514.24 Q717.592 1513.66 719.629 1513.66 Q725 1513.66 728.194 1516.35 Q731.388 1519.03 731.388 1523.52 Q731.388 1525.65 730.578 1527.57 Q729.791 1529.47 727.685 1532.07 Q727.106 1532.74 724.004 1535.95 Q720.902 1539.15 715.254 1544.91 Z" fill="#000000" fill-rule="nonzero" fill-opacity="1" /><path clip-path="url(#clip740)" d="M741.435 1514.29 L759.791 1514.29 L759.791 1518.22 L745.717 1518.22 L745.717 1526.7 Q746.736 1526.35 747.754 1526.19 Q748.773 1526 749.791 1526 Q755.578 1526 758.958 1529.17 Q762.337 1532.34 762.337 1537.76 Q762.337 1543.34 758.865 1546.44 Q755.393 1549.52 749.073 1549.52 Q746.898 1549.52 744.629 1549.15 Q742.384 1548.78 739.976 1548.04 L739.976 1543.34 Q742.06 1544.47 744.282 1545.03 Q746.504 1545.58 748.981 1545.58 Q752.985 1545.58 755.323 1543.48 Q757.661 1541.37 757.661 1537.76 Q757.661 1534.15 755.323 1532.04 Q752.985 1529.94 748.981 1529.94 Q747.106 1529.94 745.231 1530.35 Q743.379 1530.77 741.435 1531.65 L741.435 1514.29 Z" fill="#000000" fill-rule="nonzero" fill-opacity="1" /><path clip-path="url(#clip740)" d="M781.55 1517.37 Q777.939 1517.37 776.11 1520.93 Q774.305 1524.47 774.305 1531.6 Q774.305 1538.71 776.11 1542.27 Q777.939 1545.82 781.55 1545.82 Q785.184 1545.82 786.99 1542.27 Q788.819 1538.71 788.819 1531.6 Q788.819 1524.47 786.99 1520.93 Q785.184 1517.37 781.55 1517.37 M781.55 1513.66 Q787.36 1513.66 790.416 1518.27 Q793.495 1522.85 793.495 1531.6 Q793.495 1540.33 790.416 1544.94 Q787.36 1549.52 781.55 1549.52 Q775.74 1549.52 772.661 1544.94 Q769.606 1540.33 769.606 1531.6 Q769.606 1522.85 772.661 1518.27 Q775.74 1513.66 781.55 1513.66 Z" fill="#000000" fill-rule="nonzero" fill-opacity="1" /><path clip-path="url(#clip740)" d="M1224.4 1514.29 L1242.76 1514.29 L1242.76 1518.22 L1228.69 1518.22 L1228.69 1526.7 Q1229.7 1526.35 1230.72 1526.19 Q1231.74 1526 1232.76 1526 Q1238.55 1526 1241.93 1529.17 Q1245.31 1532.34 1245.31 1537.76 Q1245.31 1543.34 1241.83 1546.44 Q1238.36 1549.52 1232.04 1549.52 Q1229.87 1549.52 1227.6 1549.15 Q1225.35 1548.78 1222.94 1548.04 L1222.94 1543.34 Q1225.03 1544.47 1227.25 1545.03 Q1229.47 1545.58 1231.95 1545.58 Q1235.95 1545.58 1238.29 1543.48 Q1240.63 1541.37 1240.63 1537.76 Q1240.63 1534.15 1238.29 1532.04 Q1235.95 1529.94 1231.95 1529.94 Q1230.07 1529.94 1228.2 1530.35 Q1226.35 1530.77 1224.4 1531.65 L1224.4 1514.29 Z" fill="#000000" fill-rule="nonzero" fill-opacity="1" /><path clip-path="url(#clip740)" d="M1264.52 1517.37 Q1260.91 1517.37 1259.08 1520.93 Q1257.27 1524.47 1257.27 1531.6 Q1257.27 1538.71 1259.08 1542.27 Q1260.91 1545.82 1264.52 1545.82 Q1268.15 1545.82 1269.96 1542.27 Q1271.79 1538.71 1271.79 1531.6 Q1271.79 1524.47 1269.96 1520.93 Q1268.15 1517.37 1264.52 1517.37 M1264.52 1513.66 Q1270.33 1513.66 1273.38 1518.27 Q1276.46 1522.85 1276.46 1531.6 Q1276.46 1540.33 1273.38 1544.94 Q1270.33 1549.52 1264.52 1549.52 Q1258.71 1549.52 1255.63 1544.94 Q1252.57 1540.33 1252.57 1531.6 Q1252.57 1522.85 1255.63 1518.27 Q1258.71 1513.66 1264.52 1513.66 Z" fill="#000000" fill-rule="nonzero" fill-opacity="1" /><path clip-path="url(#clip740)" d="M1294.68 1517.37 Q1291.07 1517.37 1289.24 1520.93 Q1287.44 1524.47 1287.44 1531.6 Q1287.44 1538.71 1289.24 1542.27 Q1291.07 1545.82 1294.68 1545.82 Q1298.31 1545.82 1300.12 1542.27 Q1301.95 1538.71 1301.95 1531.6 Q1301.95 1524.47 1300.12 1520.93 Q1298.31 1517.37 1294.68 1517.37 M1294.68 1513.66 Q1300.49 1513.66 1303.55 1518.27 Q1306.62 1522.85 1306.62 1531.6 Q1306.62 1540.33 1303.55 1544.94 Q1300.49 1549.52 1294.68 1549.52 Q1288.87 1549.52 1285.79 1544.94 Q1282.74 1540.33 1282.74 1531.6 Q1282.74 1522.85 1285.79 1518.27 Q1288.87 1513.66 1294.68 1513.66 Z" fill="#000000" fill-rule="nonzero" fill-opacity="1" /><path clip-path="url(#clip740)" d="M1736.28 1514.29 L1758.51 1514.29 L1758.51 1516.28 L1745.96 1548.85 L1741.08 1548.85 L1752.88 1518.22 L1736.28 1518.22 L1736.28 1514.29 Z" fill="#000000" fill-rule="nonzero" fill-opacity="1" /><path clip-path="url(#clip740)" d="M1767.67 1514.29 L1786.03 1514.29 L1786.03 1518.22 L1771.95 1518.22 L1771.95 1526.7 Q1772.97 1526.35 1773.99 1526.19 Q1775.01 1526 1776.03 1526 Q1781.82 1526 1785.2 1529.17 Q1788.57 1532.34 1788.57 1537.76 Q1788.57 1543.34 1785.1 1546.44 Q1781.63 1549.52 1775.31 1549.52 Q1773.14 1549.52 1770.87 1549.15 Q1768.62 1548.78 1766.21 1548.04 L1766.21 1543.34 Q1768.3 1544.47 1770.52 1545.03 Q1772.74 1545.58 1775.22 1545.58 Q1779.22 1545.58 1781.56 1543.48 Q1783.9 1541.37 1783.9 1537.76 Q1783.9 1534.15 1781.56 1532.04 Q1779.22 1529.94 1775.22 1529.94 Q1773.34 1529.94 1771.47 1530.35 Q1769.62 1530.77 1767.67 1531.65 L1767.67 1514.29 Z" fill="#000000" fill-rule="nonzero" fill-opacity="1" /><path clip-path="url(#clip740)" d="M1807.79 1517.37 Q1804.18 1517.37 1802.35 1520.93 Q1800.54 1524.47 1800.54 1531.6 Q1800.54 1538.71 1802.35 1542.27 Q1804.18 1545.82 1807.79 1545.82 Q1811.42 1545.82 1813.23 1542.27 Q1815.06 1538.71 1815.06 1531.6 Q1815.06 1524.47 1813.23 1520.93 Q1811.42 1517.37 1807.79 1517.37 M1807.79 1513.66 Q1813.6 1513.66 1816.65 1518.27 Q1819.73 1522.85 1819.73 1531.6 Q1819.73 1540.33 1816.65 1544.94 Q1813.6 1549.52 1807.79 1549.52 Q1801.98 1549.52 1798.9 1544.94 Q1795.84 1540.33 1795.84 1531.6 Q1795.84 1522.85 1798.9 1518.27 Q1801.98 1513.66 1807.79 1513.66 Z" fill="#000000" fill-rule="nonzero" fill-opacity="1" /><path clip-path="url(#clip740)" d="M2235.76 1544.91 L2243.4 1544.91 L2243.4 1518.55 L2235.09 1520.21 L2235.09 1515.95 L2243.35 1514.29 L2248.02 1514.29 L2248.02 1544.91 L2255.66 1544.91 L2255.66 1548.85 L2235.76 1548.85 L2235.76 1544.91 Z" fill="#000000" fill-rule="nonzero" fill-opacity="1" /><path clip-path="url(#clip740)" d="M2275.11 1517.37 Q2271.5 1517.37 2269.67 1520.93 Q2267.86 1524.47 2267.86 1531.6 Q2267.86 1538.71 2269.67 1542.27 Q2271.5 1545.82 2275.11 1545.82 Q2278.74 1545.82 2280.55 1542.27 Q2282.38 1538.71 2282.38 1531.6 Q2282.38 1524.47 2280.55 1520.93 Q2278.74 1517.37 2275.11 1517.37 M2275.11 1513.66 Q2280.92 1513.66 2283.97 1518.27 Q2287.05 1522.85 2287.05 1531.6 Q2287.05 1540.33 2283.97 1544.94 Q2280.92 1549.52 2275.11 1549.52 Q2269.3 1549.52 2266.22 1544.94 Q2263.16 1540.33 2263.16 1531.6 Q2263.16 1522.85 2266.22 1518.27 Q2269.3 1513.66 2275.11 1513.66 Z" fill="#000000" fill-rule="nonzero" fill-opacity="1" /><path clip-path="url(#clip740)" d="M2305.27 1517.37 Q2301.66 1517.37 2299.83 1520.93 Q2298.02 1524.47 2298.02 1531.6 Q2298.02 1538.71 2299.83 1542.27 Q2301.66 1545.82 2305.27 1545.82 Q2308.9 1545.82 2310.71 1542.27 Q2312.54 1538.71 2312.54 1531.6 Q2312.54 1524.47 2310.71 1520.93 Q2308.9 1517.37 2305.27 1517.37 M2305.27 1513.66 Q2311.08 1513.66 2314.14 1518.27 Q2317.21 1522.85 2317.21 1531.6 Q2317.21 1540.33 2314.14 1544.94 Q2311.08 1549.52 2305.27 1549.52 Q2299.46 1549.52 2296.38 1544.94 Q2293.33 1540.33 2293.33 1531.6 Q2293.33 1522.85 2296.38 1518.27 Q2299.46 1513.66 2305.27 1513.66 Z" fill="#000000" fill-rule="nonzero" fill-opacity="1" /><path clip-path="url(#clip740)" d="M2335.43 1517.37 Q2331.82 1517.37 2329.99 1520.93 Q2328.19 1524.47 2328.19 1531.6 Q2328.19 1538.71 2329.99 1542.27 Q2331.82 1545.82 2335.43 1545.82 Q2339.07 1545.82 2340.87 1542.27 Q2342.7 1538.71 2342.7 1531.6 Q2342.7 1524.47 2340.87 1520.93 Q2339.07 1517.37 2335.43 1517.37 M2335.43 1513.66 Q2341.24 1513.66 2344.3 1518.27 Q2347.38 1522.85 2347.38 1531.6 Q2347.38 1540.33 2344.3 1544.94 Q2341.24 1549.52 2335.43 1549.52 Q2329.62 1549.52 2326.54 1544.94 Q2323.49 1540.33 2323.49 1531.6 Q2323.49 1522.85 2326.54 1518.27 Q2329.62 1513.66 2335.43 1513.66 Z" fill="#000000" fill-rule="nonzero" fill-opacity="1" /><polyline clip-path="url(#clip740)" style="stroke:#000000; stroke-linecap:round; stroke-linejoin:round; stroke-width:4; stroke-opacity:1; fill:none" points="178.867,1486.45 178.867,847.244 "/>
<polyline clip-path="url(#clip740)" style="stroke:#000000; stroke-linecap:round; stroke-linejoin:round; stroke-width:4; stroke-opacity:1; fill:none" points="178.867,1486.45 197.764,1486.45 "/>
<polyline clip-path="url(#clip740)" style="stroke:#000000; stroke-linecap:round; stroke-linejoin:round; stroke-width:4; stroke-opacity:1; fill:none" points="178.867,1326.65 197.764,1326.65 "/>
<polyline clip-path="url(#clip740)" style="stroke:#000000; stroke-linecap:round; stroke-linejoin:round; stroke-width:4; stroke-opacity:1; fill:none" points="178.867,1166.85 197.764,1166.85 "/>
<polyline clip-path="url(#clip740)" style="stroke:#000000; stroke-linecap:round; stroke-linejoin:round; stroke-width:4; stroke-opacity:1; fill:none" points="178.867,1007.05 197.764,1007.05 "/>
<polyline clip-path="url(#clip740)" style="stroke:#000000; stroke-linecap:round; stroke-linejoin:round; stroke-width:4; stroke-opacity:1; fill:none" points="178.867,847.244 197.764,847.244 "/>
<path clip-path="url(#clip740)" d="M50.9921 1486.9 L80.6679 1486.9 L80.6679 1490.83 L50.9921 1490.83 L50.9921 1486.9 Z" fill="#000000" fill-rule="nonzero" fill-opacity="1" /><path clip-path="url(#clip740)" d="M91.5706 1499.79 L99.2095 1499.79 L99.2095 1473.43 L90.8993 1475.09 L90.8993 1470.83 L99.1632 1469.17 L103.839 1469.17 L103.839 1499.79 L111.478 1499.79 L111.478 1503.73 L91.5706 1503.73 L91.5706 1499.79 Z" fill="#000000" fill-rule="nonzero" fill-opacity="1" /><path clip-path="url(#clip740)" d="M130.922 1472.25 Q127.311 1472.25 125.482 1475.81 Q123.677 1479.35 123.677 1486.48 Q123.677 1493.59 125.482 1497.15 Q127.311 1500.7 130.922 1500.7 Q134.556 1500.7 136.362 1497.15 Q138.191 1493.59 138.191 1486.48 Q138.191 1479.35 136.362 1475.81 Q134.556 1472.25 130.922 1472.25 M130.922 1468.54 Q136.732 1468.54 139.788 1473.15 Q142.867 1477.73 142.867 1486.48 Q142.867 1495.21 139.788 1499.82 Q136.732 1504.4 130.922 1504.4 Q125.112 1504.4 122.033 1499.82 Q118.978 1495.21 118.978 1486.48 Q118.978 1477.73 122.033 1473.15 Q125.112 1468.54 130.922 1468.54 Z" fill="#000000" fill-rule="nonzero" fill-opacity="1" /><path clip-path="url(#clip740)" d="M82.1494 1327.1 L111.825 1327.1 L111.825 1331.03 L82.1494 1331.03 L82.1494 1327.1 Z" fill="#000000" fill-rule="nonzero" fill-opacity="1" /><path clip-path="url(#clip740)" d="M121.964 1309.37 L140.32 1309.37 L140.32 1313.3 L126.246 1313.3 L126.246 1321.77 Q127.265 1321.43 128.283 1321.27 Q129.302 1321.08 130.32 1321.08 Q136.107 1321.08 139.487 1324.25 Q142.867 1327.42 142.867 1332.84 Q142.867 1338.42 139.394 1341.52 Q135.922 1344.6 129.603 1344.6 Q127.427 1344.6 125.158 1344.23 Q122.913 1343.86 120.506 1343.12 L120.506 1338.42 Q122.589 1339.55 124.811 1340.11 Q127.033 1340.66 129.51 1340.66 Q133.515 1340.66 135.853 1338.56 Q138.191 1336.45 138.191 1332.84 Q138.191 1329.23 135.853 1327.12 Q133.515 1325.01 129.51 1325.01 Q127.635 1325.01 125.76 1325.43 Q123.908 1325.85 121.964 1326.73 L121.964 1309.37 Z" fill="#000000" fill-rule="nonzero" fill-opacity="1" /><path clip-path="url(#clip740)" d="M130.922 1152.64 Q127.311 1152.64 125.482 1156.21 Q123.677 1159.75 123.677 1166.88 Q123.677 1173.99 125.482 1177.55 Q127.311 1181.09 130.922 1181.09 Q134.556 1181.09 136.362 1177.55 Q138.191 1173.99 138.191 1166.88 Q138.191 1159.75 136.362 1156.21 Q134.556 1152.64 130.922 1152.64 M130.922 1148.94 Q136.732 1148.94 139.788 1153.55 Q142.867 1158.13 142.867 1166.88 Q142.867 1175.61 139.788 1180.21 Q136.732 1184.8 130.922 1184.8 Q125.112 1184.8 122.033 1180.21 Q118.978 1175.61 118.978 1166.88 Q118.978 1158.13 122.033 1153.55 Q125.112 1148.94 130.922 1148.94 Z" fill="#000000" fill-rule="nonzero" fill-opacity="1" /><path clip-path="url(#clip740)" d="M121.964 989.765 L140.32 989.765 L140.32 993.7 L126.246 993.7 L126.246 1002.17 Q127.265 1001.83 128.283 1001.66 Q129.302 1001.48 130.32 1001.48 Q136.107 1001.48 139.487 1004.65 Q142.867 1007.82 142.867 1013.24 Q142.867 1018.82 139.394 1021.92 Q135.922 1025 129.603 1025 Q127.427 1025 125.158 1024.63 Q122.913 1024.26 120.506 1023.51 L120.506 1018.82 Q122.589 1019.95 124.811 1020.51 Q127.033 1021.06 129.51 1021.06 Q133.515 1021.06 135.853 1018.95 Q138.191 1016.85 138.191 1013.24 Q138.191 1009.63 135.853 1007.52 Q133.515 1005.41 129.51 1005.41 Q127.635 1005.41 125.76 1005.83 Q123.908 1006.25 121.964 1007.13 L121.964 989.765 Z" fill="#000000" fill-rule="nonzero" fill-opacity="1" /><path clip-path="url(#clip740)" d="M91.5706 860.589 L99.2095 860.589 L99.2095 834.223 L90.8993 835.89 L90.8993 831.631 L99.1632 829.964 L103.839 829.964 L103.839 860.589 L111.478 860.589 L111.478 864.524 L91.5706 864.524 L91.5706 860.589 Z" fill="#000000" fill-rule="nonzero" fill-opacity="1" /><path clip-path="url(#clip740)" d="M130.922 833.043 Q127.311 833.043 125.482 836.608 Q123.677 840.149 123.677 847.279 Q123.677 854.385 125.482 857.95 Q127.311 861.492 130.922 861.492 Q134.556 861.492 136.362 857.95 Q138.191 854.385 138.191 847.279 Q138.191 840.149 136.362 836.608 Q134.556 833.043 130.922 833.043 M130.922 829.339 Q136.732 829.339 139.788 833.946 Q142.867 838.529 142.867 847.279 Q142.867 856.006 139.788 860.612 Q136.732 865.195 130.922 865.195 Q125.112 865.195 122.033 860.612 Q118.978 856.006 118.978 847.279 Q118.978 838.529 122.033 833.946 Q125.112 829.339 130.922 829.339 Z" fill="#000000" fill-rule="nonzero" fill-opacity="1" /><polyline clip-path="url(#clip743)" style="stroke:#009af9; stroke-linecap:round; stroke-linejoin:round; stroke-width:4; stroke-opacity:1; fill:none" points="240.392,1134.89 242.445,1163.55 244.498,1147.3 246.55,1192.07 248.603,1195.42 250.656,1145.65 252.709,1169.48 254.762,1149.33 256.815,1078.13 258.868,1131.9 260.921,1124.75 262.974,1137.31 265.027,1141.52 267.079,1149.81 269.132,1149.98 271.185,1165.68 273.238,1157.5 275.291,1100.19 277.344,1145.01 279.397,1118.06 281.45,1210 283.503,1130.41 285.555,1186.92 287.608,940.849 289.661,1335.56 291.714,1275.67 293.767,1244.62 295.82,1380.41 297.873,919.944 299.926,1248.09 301.979,1238.98 304.031,1153.89 306.084,1149.08 308.137,1225.79 310.19,1127.39 312.243,1387.21 314.296,1019.07 316.349,1214.79 318.402,1118.14 320.455,1267.09 322.507,1199.68 324.56,1137.74 326.613,1169 328.666,1175.58 330.719,1091.93 332.772,1055.21 334.825,1014.59 336.878,1106.53 338.931,1243.98 340.984,1162.45 343.036,1193.83 345.089,1127.23 347.142,1187.55 349.195,1168.09 351.248,1215.77 353.301,1141.96 355.354,1249.8 357.407,1176.78 359.46,1203.42 361.512,894.65 363.565,1621.88 365.618,1302.18 367.671,1245.78 369.724,1196.03 371.777,1196.34 373.83,1270.77 375.883,1172.05 377.936,1173.15 379.988,1165.97 382.041,1168.84 384.094,1181.86 386.147,1140.93 388.2,1103.17 390.253,1109.65 392.306,1091.36 394.359,1253.69 396.412,1229 398.464,1141.61 400.517,1166.68 402.57,1155.67 404.623,1163.69 406.676,1042 408.729,1122.38 410.782,1041.46 412.835,926.86 414.888,340.604 416.94,2131.01 418.993,2313.84 421.046,1976.87 423.099,729.101 425.152,1481.62 427.205,832.051 429.258,1289.5 431.311,1108.8 433.364,1164.16 435.417,1163.13 437.469,1147.72 439.522,1204.26 441.575,1348.78 443.628,1273.35 445.681,1208.76 447.734,1214.73 449.787,1174.81 451.84,1242.63 453.893,1141.29 455.945,1204.6 457.998,1184.36 460.051,1113.07 462.104,1231.86 464.157,1071.18 466.21,1182.88 468.263,1112.07 470.316,1077.67 472.369,1143.72 474.421,1104.7 476.474,1114.79 478.527,1202.66 480.58,1020.71 482.633,1320.76 484.686,1309.11 486.739,1252.88 488.792,1090.93 490.845,1175.74 492.897,1269.35 494.95,1163.91 497.003,1161.22 499.056,1168.43 501.109,1243.74 503.162,959.453 505.215,1148.36 507.268,1179.76 509.321,1174.73 511.374,1203.21 513.426,1200.19 515.479,1038.76 517.532,1154.32 519.585,1166.81 521.638,1155.09 523.691,1193.26 525.744,1208.86 527.797,1214.14 529.85,1185.06 531.902,1179.75 533.955,1151.34 536.008,1130.13 538.061,1823.54 540.114,1515.72 542.167,1139.84 544.22,1161.43 546.273,1171.74 548.326,1162.86 550.378,1200.47 552.431,1194.86 554.484,1198.89 556.537,1187.12 558.59,1195.29 560.643,1152.59 562.696,1173.64 564.749,1208.56 566.802,1161.58 568.854,1169.23 570.907,1173.6 572.96,1183.92 575.013,1175.06 577.066,1201.78 579.119,1172.18 581.172,1142.73 583.225,1181.2 585.278,1141.87 587.331,1135.67 589.383,1333.44 591.436,964.124 593.489,1167.52 595.542,1158.21 597.595,1150.3 599.648,1104.85 601.701,1169.73 603.754,1164.66 605.807,1167.55 607.859,1167.42 609.912,1165.97 611.965,1158.33 614.018,1203.16 616.071,1018.95 618.124,1093.22 620.177,1194.27 622.23,1210.84 624.283,1142.18 626.335,1186.36 628.388,1168.67 630.441,1395.08 632.494,1188.91 634.547,1018.18 636.6,1108.75 638.653,1154.11 640.706,1146.46 642.759,1144.61 644.811,1167.63 646.864,1180.74 648.917,1190.58 650.97,1140.43 653.023,1147.49 655.076,1160.66 657.129,1226.58 659.182,1238.95 661.235,1130.22 663.288,1160.22 665.34,1167.99 667.393,1166.97 669.446,1159.93 671.499,1169.08 673.552,1337.62 675.605,1172.72 677.658,1159.93 679.711,1141.6 681.764,1180.97 683.816,1208.64 685.869,1190.18 687.922,1232.18 689.975,1091.52 692.028,1100.31 694.081,1227.23 696.134,1141.82 698.187,1103.95 700.24,1150.03 702.292,1173.36 704.345,1096.97 706.398,1127.46 708.451,1120.13 710.504,1213.5 712.557,1152.16 714.61,1100.18 716.663,1190.74 718.716,230.269 720.768,1249.06 722.821,3794.67 724.874,-4956.77 726.927,-4508.47 728.98,887.156 731.033,1871.56 733.086,1454.52 735.139,1379.65 737.192,1898.54 739.245,1022.81 741.297,1416.9 743.35,1025.18 745.403,1276.4 747.456,1183.72 749.509,1192.25 751.562,1195.5 753.615,1145.1 755.668,1139.37 757.721,1171.56 759.773,1127.95 761.826,1038.24 763.879,1167.7 765.932,1171.64 767.985,1163.71 770.038,1072.99 772.091,1113.33 774.144,1139.19 776.197,1139.67 778.249,1178.62 780.302,1150.7 782.355,1155.24 784.408,1176.46 786.461,1166.08 788.514,1186.33 790.567,1173.75 792.62,1184.09 794.673,1111.97 796.725,1320.53 798.778,1171.26 800.831,1166.16 802.884,1156.47 804.937,1166.2 806.99,1224.86 809.043,1177.42 811.096,1162.58 813.149,1170.2 815.202,1102.74 817.254,1203.14 819.307,1226.08 821.36,1200.28 823.413,1187.91 825.466,1161.53 827.519,1124.69 829.572,1130.92 831.625,1146.53 833.678,1190.58 835.73,1088.3 837.783,1114.51 839.836,1118.99 841.889,1272.94 843.942,1244.88 845.995,1091.62 848.048,1174.72 850.101,1123.12 852.154,1148.91 854.206,1181.25 856.259,1227.44 858.312,1182.5 860.365,1157.99 862.418,1166.28 864.471,1139.8 866.524,1114.05 868.577,1202.36 870.63,1191.4 872.682,1073.37 874.735,1255.36 876.788,1132.82 878.841,1191.34 880.894,1131.28 882.947,1230.14 885,1123.27 887.053,1166.2 889.106,1160.45 891.159,1134.84 893.211,1224.32 895.264,1218.9 897.317,1143.36 899.37,1171.55 901.423,1103.82 903.476,1129.63 905.529,1191.29 907.582,1150.15 909.635,1187.65 911.687,1173.06 913.74,1206.91 915.793,1168.9 917.846,1157.5 919.899,1096.8 921.952,1192.96 924.005,1203.04 926.058,1142.59 928.111,1304.15 930.163,989.821 932.216,1249.9 934.269,1366.27 936.322,1140.61 938.375,1216.89 940.428,1234.28 942.481,1158.29 944.534,1158.47 946.587,1145.94 948.639,1139.01 950.692,1092.28 952.745,1154.27 954.798,1171.96 956.851,1176.12 958.904,1136.46 960.957,1165.53 963.01,1161.27 965.063,1350.79 967.116,1152.97 969.168,1187.37 971.221,1176.9 973.274,1187.52 975.327,1157.17 977.38,1190.91 979.433,1147.4 981.486,1136.16 983.539,1219.18 985.592,1175.52 987.644,1130.35 989.697,1141.1 991.75,1154.5 993.803,1159.87 995.856,1153.37 997.909,1137.45 999.962,1168.22 1002.01,1163.07 1004.07,1207.79 1006.12,1196.88 1008.17,1165.71 1010.23,1197.24 1012.28,1140.59 1014.33,927.972 1016.38,1089.85 1018.44,1238.01 1020.49,1222.19 1022.54,1247.8 1024.6,1192.58 1026.65,1135.07 1028.7,898.176 1030.76,1213.17 1032.81,1128.38 1034.86,1215.06 1036.91,1328.27 1038.97,1232.44 1041.02,1287.89 1043.07,984.296 1045.13,1224.41 1047.18,1286.91 1049.23,1104.78 1051.28,1115.65 1053.34,1166.81 1055.39,1163.81 1057.44,1134.22 1059.5,1174.02 1061.55,1181.09 1063.6,1187.71 1065.65,1141.84 1067.71,1252.57 1069.76,1170.11 1071.81,1195.77 1073.87,1237.9 1075.92,1130.54 1077.97,1207.22 1080.02,1128.08 1082.08,1179.3 1084.13,1182.17 1086.18,1126.66 1088.24,1197.04 1090.29,1186.7 1092.34,1126.02 1094.39,1212.29 1096.45,1103.63 1098.5,1126.51 1100.55,1170.1 1102.61,1245.67 1104.66,1160.83 1106.71,1147.81 1108.77,1169.02 1110.82,1151.22 1112.87,1074.66 1114.92,1315.56 1116.98,1176.21 1119.03,1169.08 1121.08,1170.89 1123.14,1170.53 1125.19,1235.74 1127.24,1190.37 1129.29,1190.05 1131.35,1098.77 1133.4,940.288 1135.45,1129.29 1137.51,1180.23 1139.56,1158.3 1141.61,1085.45 1143.66,1200.87 1145.72,1137.79 1147.77,1152.41 1149.82,1168.42 1151.88,1142.37 1153.93,1159.28 1155.98,1183.5 1158.03,1189.04 1160.09,1062.81 1162.14,1273.42 1164.19,952.482 1166.25,1109.29 1168.3,1206.92 1170.35,1204.08 1172.4,1142.99 1174.46,1149.99 1176.51,1152.36 1178.56,1138.3 1180.62,1125.79 1182.67,1158.54 1184.72,1171.79 1186.77,1210.76 1188.83,1231.42 1190.88,1736.22 1192.93,1639.2 1194.99,980.888 1197.04,1234.98 1199.09,935.845 1201.15,1484.33 1203.2,956.12 1205.25,1160.99 1207.3,1174.55 1209.36,1167.39 1211.41,1181.44 1213.46,1161.7 1215.52,1185.98 1217.57,1233.68 1219.62,1110.66 1221.67,1078.34 1223.73,1174.44 1225.78,1170.12 1227.83,1172.97 1229.89,1179.14 1231.94,1155.51 1233.99,1176.22 1236.04,1154.21 1238.1,1187.43 1240.15,1063.59 1242.2,1159.88 1244.26,1156.9 1246.31,1209.12 1248.36,1206.75 1250.41,1227.71 1252.47,1215.37 1254.52,1166.6 1256.57,1178.72 1258.63,1061.4 1260.68,1191.75 1262.73,1166.22 1264.78,1184.8 1266.84,1213.5 1268.89,1190.83 1270.94,1087.38 1273,1120.18 1275.05,1220.72 1277.1,1187.08 1279.16,1161.57 1281.21,1163.93 1283.26,1272.2 1285.31,1077.82 1287.37,1144.58 1289.42,1178.19 1291.47,1170.42 1293.53,1143.84 1295.58,1149.96 1297.63,1134.25 1299.68,1139.34 1301.74,1161.5 1303.79,1183.7 1305.84,1102.41 1307.9,1389.75 1309.95,982.428 1312,1244.49 1314.05,1223.17 1316.11,775.93 1318.16,1359.39 1320.21,1217.63 1322.27,1124.75 1324.32,1242.04 1326.37,1144.67 1328.42,1190.9 1330.48,996.22 1332.53,946.428 1334.58,1167.97 1336.64,1180.73 1338.69,1198.87 1340.74,1182.08 1342.79,1201.82 1344.85,1090.97 1346.9,1061.85 1348.95,1129.2 1351.01,1189.35 1353.06,1145.12 1355.11,1134.73 1357.16,1126.45 1359.22,1182.94 1361.27,1157.06 1363.32,1285.78 1365.38,1151.54 1367.43,1110.11 1369.48,947.088 1371.54,1128.64 1373.59,1183.16 1375.64,1171.78 1377.69,1170.1 1379.75,1426.04 1381.8,1541.96 1383.85,1139.03 1385.91,1221.84 1387.96,1130.46 1390.01,1133.35 1392.06,1148.76 1394.12,1164.38 1396.17,1116.65 1398.22,1161.98 1400.28,1165.33 1402.33,1204.95 1404.38,1205.47 1406.43,1125.28 1408.49,1153.7 1410.54,1259.5 1412.59,1110.56 1414.65,1144.68 1416.7,1141.13 1418.75,1210.21 1420.8,1062.88 1422.86,1245.6 1424.91,1173.8 1426.96,1734.58 1429.02,1425.36 1431.07,835.284 1433.12,371.278 1435.17,-3958.8 1437.23,-11677.6 1439.28,8878.86 1441.33,4437.84 1443.39,729.786 1445.44,606.741 1447.49,1164.19 1449.55,1299.79 1451.6,718.164 1453.65,1837.64 1455.7,1204.06 1457.76,1244.01 1459.81,1535.67 1461.86,1111.11 1463.92,1109.28 1465.97,786.49 1468.02,680.635 1470.07,2021.09 1472.13,2922.44 1474.18,5402.94 1476.23,1831.2 1478.29,-924.721 1480.34,-1388.74 1482.39,2203.26 1484.44,1623.75 1486.5,58673 1488.55,-1896.35 1490.6,12277.3 1492.66,-51700.4 1494.71,-116755 1496.76,60542.9 1498.81,-29925.5 1500.87,-61931.4 1502.92,-38429.5 1504.97,-2094.11 1507.03,1850.38 1509.08,1589.45 1511.13,1515.51 1513.18,1000.52 1515.24,1119.18 1517.29,1195.03 1519.34,1157.11 1521.4,1145.18 1523.45,1164.54 1525.5,1159.18 1527.55,1154.96 1529.61,1189.38 1531.66,1172.96 1533.71,1180.66 1535.77,1175.79 1537.82,1196.3 1539.87,1154.78 1541.93,1151.67 1543.98,1110.33 1546.03,1152.07 1548.08,1235.15 1550.14,1214.59 1552.19,946.317 1554.24,1076.31 1556.3,1140.5 1558.35,1113.82 1560.4,1186.42 1562.45,1411.38 1564.51,903.628 1566.56,1513.12 1568.61,990.1 1570.67,777.89 1572.72,1477.7 1574.77,1259.45 1576.82,1077.47 1578.88,1278.15 1580.93,1134.15 1582.98,1149.86 1585.04,1260.07 1587.09,1559.83 1589.14,1539.81 1591.19,1692.69 1593.25,1486.83 1595.3,785.142 1597.35,1178.76 1599.41,1160.6 1601.46,1113.5 1603.51,1165.6 1605.56,1151.13 1607.62,1159.06 1609.67,1143.02 1611.72,1190.25 1613.78,1129.15 1615.83,1179.66 1617.88,1133.01 1619.94,1100.9 1621.99,1125.91 1624.04,1179.97 1626.09,1162.36 1628.15,1151.82 1630.2,1257.73 1632.25,1457.72 1634.31,1148.65 1636.36,1121.86 1638.41,1086.91 1640.46,1010.43 1642.52,1027.08 1644.57,1173.1 1646.62,1168.65 1648.68,1183.7 1650.73,1148.9 1652.78,1229.82 1654.83,1180.07 1656.89,1155.72 1658.94,1128.94 1660.99,1176.53 1663.05,1138.89 1665.1,1168.68 1667.15,1213.36 1669.2,1142.86 1671.26,1175.57 1673.31,1153.65 1675.36,1120.37 1677.42,1147.31 1679.47,1179.56 1681.52,1187.8 1683.57,1271.97 1685.63,1220.73 1687.68,1180.1 1689.73,1159.07 1691.79,1136.88 1693.84,1017.11 1695.89,1230.47 1697.94,1124.86 1700,1127.6 1702.05,1138.06 1704.1,1195.43 1706.16,1154.45 1708.21,1157.68 1710.26,1147.66 1712.32,1147 1714.37,1136.09 1716.42,1172.04 1718.47,1163.67 1720.53,1162.06 1722.58,1306.96 1724.63,1123.5 1726.69,1070.27 1728.74,944.852 1730.79,1035.02 1732.84,1092.98 1734.9,1249.65 1736.95,1097.21 1739,1368.39 1741.06,1182.03 1743.11,1079.7 1745.16,1220.76 1747.21,1164.76 1749.27,1523.69 1751.32,1281.06 1753.37,1345.57 1755.43,1135.41 1757.48,1193.24 1759.53,1190.07 1761.58,1125.79 1763.64,1107.04 1765.69,1158.17 1767.74,1146.27 1769.8,1229.05 1771.85,1071.19 1773.9,1485.51 1775.95,1812.17 1778.01,1448.58 1780.06,1009.64 1782.11,1404 1784.17,1176.87 1786.22,1086.77 1788.27,1145.49 1790.33,1229.74 1792.38,1259.96 1794.43,1235.61 1796.48,1131.13 1798.54,763.185 1800.59,958.113 1802.64,1072.81 1804.7,1041.68 1806.75,1139.47 1808.8,1232.75 1810.85,1169.7 1812.91,1168.12 1814.96,1183.07 1817.01,1160.11 1819.07,1141.15 1821.12,1184.12 1823.17,1135.96 1825.22,1103.3 1827.28,1219.76 1829.33,1113.2 1831.38,1236.73 1833.44,1189.04 1835.49,1147.64 1837.54,1138.45 1839.59,1237.06 1841.65,1152.92 1843.7,1199.34 1845.75,1105.85 1847.81,1228.55 1849.86,1147.87 1851.91,1216.44 1853.96,1160.74 1856.02,1021.48 1858.07,1596.51 1860.12,1605.81 1862.18,1223.99 1864.23,1084.14 1866.28,1178.36 1868.34,1182.49 1870.39,1150.24 1872.44,1100.08 1874.49,1161.09 1876.55,1196.38 1878.6,1257.29 1880.65,1054.61 1882.71,1114.76 1884.76,1177.49 1886.81,1182.37 1888.86,1153.57 1890.92,1175.21 1892.97,1155.08 1895.02,1178.66 1897.08,1165.49 1899.13,1180.89 1901.18,1104.28 1903.23,670.032 1905.29,1927.46 1907.34,1153.27 1909.39,2336.37 1911.45,293.544 1913.5,933.52 1915.55,1160.72 1917.6,1118.81 1919.66,1319.65 1921.71,1402.81 1923.76,720.213 1925.82,1190.85 1927.87,1245.2 1929.92,1105.45 1931.97,1148.26 1934.03,1121.73 1936.08,1171.44 1938.13,1170.78 1940.19,1171.19 1942.24,1162.46 1944.29,1204.86 1946.34,1242.71 1948.4,1460.2 1950.45,623.363 1952.5,1257.19 1954.56,1466.74 1956.61,1418.67 1958.66,775.198 1960.72,1322.35 1962.77,400.778 1964.82,1197.34 1966.87,1135.94 1968.93,1186.9 1970.98,1159.76 1973.03,1169.56 1975.09,1201.3 1977.14,1137.05 1979.19,1147.29 1981.24,1188.67 1983.3,1163.15 1985.35,1158.44 1987.4,1171.55 1989.46,1175.89 1991.51,1192.85 1993.56,1136.72 1995.61,1115.96 1997.67,1098.68 1999.72,1182.56 2001.77,1195.19 2003.83,1215.83 2005.88,1137.59 2007.93,1001.7 2009.98,1102.11 2012.04,1167.44 2014.09,1205.31 2016.14,1165.36 2018.2,1164.97 2020.25,1211.16 2022.3,1173.81 2024.35,1145.58 2026.41,1180.98 2028.46,1083.44 2030.51,1178.16 2032.57,1133.57 2034.62,1179.41 2036.67,1197.04 2038.73,1145.24 2040.78,1175.21 2042.83,1175.25 2044.88,1160.14 2046.94,1205.41 2048.99,1163.74 2051.04,1207.53 2053.1,1101.93 2055.15,1045.26 2057.2,1084.66 2059.25,1161.64 2061.31,1163.35 2063.36,1148.73 2065.41,1166.3 2067.47,1113.5 2069.52,1129.51 2071.57,1072.61 2073.62,1161.69 2075.68,1230.29 2077.73,1149.84 2079.78,1141.16 2081.84,1166.93 2083.89,1236.27 2085.94,1099.81 2087.99,1191.42 2090.05,1181.5 2092.1,1146.32 2094.15,1138.9 2096.21,1153.14 2098.26,1152.55 2100.31,1161.04 2102.36,1092.77 2104.42,1142.15 2106.47,970.781 2108.52,1064.09 2110.58,1205.47 2112.63,1128.11 2114.68,1195.59 2116.73,1214.31 2118.79,1226.71 2120.84,1223.09 2122.89,1128.61 2124.95,1154.51 2127,1204.31 2129.05,1149.27 2131.11,1149.79 2133.16,1166.41 2135.21,1201.07 2137.26,1197.98 2139.32,1233.11 2141.37,1205.88 2143.42,1144.38 2145.48,1179.26 2147.53,1189.71 2149.58,1081.98 2151.63,1153.61 2153.69,1194.04 2155.74,1154.66 2157.79,1196.7 2159.85,1120.98 2161.9,1924.96 2163.95,940.353 2166,950.283 2168.06,1845.9 2170.11,-587.4 2172.16,-2723.18 2174.22,2223.81 2176.27,2904.15 2178.32,1362.26 2180.37,1181.98 2182.43,1053.26 2184.48,1258.27 2186.53,1171.2 2188.59,1161.89 2190.64,1160.81 2192.69,1127.13 2194.74,1147.31 2196.8,1166.52 2198.85,1184 2200.9,1187.63 2202.96,1174.71 2205.01,1111.24 2207.06,1134.57 2209.12,1199.48 2211.17,1162.06 2213.22,1166.04 2215.27,1168.36 2217.33,1158.93 2219.38,1150.32 2221.43,1250.64 2223.49,1141.68 2225.54,1178.21 2227.59,1163.1 2229.64,1190.01 2231.7,1192.61 2233.75,1167.41 2235.8,1195.32 2237.86,1174.09 2239.91,1181.41 2241.96,1147.34 2244.01,1096.4 2246.07,985.914 2248.12,1209.71 2250.17,1210.03 2252.23,1240.7 2254.28,1156.79 2256.33,1184.95 2258.38,1348.4 2260.44,1033.35 2262.49,1097.86 2264.54,1131.35 2266.6,1220.32 2268.65,1258.73 2270.7,1138.02 2272.75,1197.39 2274.81,1187.04 2276.86,1092.04 2278.91,1110.94 2280.97,1282.27 2283.02,1214.73 2285.07,1222.46 2287.12,1180.55 2289.18,1166.81 2291.23,1169.48 "/>
<path clip-path="url(#clip740)" d="M1942.7 972.231 L2280.29 972.231 L2280.29 868.551 L1942.7 868.551  Z" fill="#ffffff" fill-rule="evenodd" fill-opacity="1"/>
<polyline clip-path="url(#clip740)" style="stroke:#000000; stroke-linecap:round; stroke-linejoin:round; stroke-width:4; stroke-opacity:1; fill:none" points="1942.7,972.231 2280.29,972.231 2280.29,868.551 1942.7,868.551 1942.7,972.231 "/>
<polyline clip-path="url(#clip740)" style="stroke:#009af9; stroke-linecap:round; stroke-linejoin:round; stroke-width:4; stroke-opacity:1; fill:none" points="1966.85,920.391 2111.78,920.391 "/>
<path clip-path="url(#clip740)" d="M2161.49 932.74 L2161.49 923.458 L2153.85 923.458 L2153.85 919.615 L2166.12 919.615 L2166.12 934.453 Q2163.41 936.375 2160.14 937.37 Q2156.88 938.342 2153.18 938.342 Q2145.07 938.342 2140.49 933.62 Q2135.93 928.875 2135.93 920.426 Q2135.93 911.953 2140.49 907.231 Q2145.07 902.486 2153.18 902.486 Q2156.56 902.486 2159.59 903.319 Q2162.64 904.153 2165.21 905.773 L2165.21 910.75 Q2162.62 908.551 2159.7 907.44 Q2156.79 906.328 2153.57 906.328 Q2147.23 906.328 2144.03 909.87 Q2140.86 913.412 2140.86 920.426 Q2140.86 927.416 2144.03 930.958 Q2147.23 934.5 2153.57 934.5 Q2156.05 934.5 2157.99 934.083 Q2159.94 933.643 2161.49 932.74 Z" fill="#000000" fill-rule="nonzero" fill-opacity="1" /><path clip-path="url(#clip740)" d="M2179.33 906.953 L2179.33 919.94 L2185.21 919.94 Q2188.48 919.94 2190.26 918.25 Q2192.04 916.56 2192.04 913.435 Q2192.04 910.333 2190.26 908.643 Q2188.48 906.953 2185.21 906.953 L2179.33 906.953 M2174.66 903.111 L2185.21 903.111 Q2191.02 903.111 2193.99 905.75 Q2196.97 908.365 2196.97 913.435 Q2196.97 918.551 2193.99 921.166 Q2191.02 923.782 2185.21 923.782 L2179.33 923.782 L2179.33 937.671 L2174.66 937.671 L2174.66 903.111 Z" fill="#000000" fill-rule="nonzero" fill-opacity="1" /><path clip-path="url(#clip740)" d="M2223.96 904.245 L2223.96 908.805 Q2221.3 907.532 2218.94 906.907 Q2216.58 906.282 2214.38 906.282 Q2210.56 906.282 2208.48 907.764 Q2206.42 909.245 2206.42 911.977 Q2206.42 914.268 2207.78 915.449 Q2209.17 916.606 2213.01 917.324 L2215.84 917.902 Q2221.07 918.898 2223.55 921.421 Q2226.05 923.921 2226.05 928.134 Q2226.05 933.157 2222.67 935.75 Q2219.31 938.342 2212.81 938.342 Q2210.35 938.342 2207.57 937.787 Q2204.82 937.231 2201.86 936.143 L2201.86 931.328 Q2204.7 932.926 2207.44 933.736 Q2210.17 934.546 2212.81 934.546 Q2216.81 934.546 2218.99 932.972 Q2221.16 931.398 2221.16 928.481 Q2221.16 925.935 2219.59 924.5 Q2218.04 923.064 2214.47 922.347 L2211.62 921.791 Q2206.39 920.75 2204.06 918.527 Q2201.72 916.305 2201.72 912.347 Q2201.72 907.764 2204.94 905.125 Q2208.18 902.486 2213.85 902.486 Q2216.28 902.486 2218.8 902.926 Q2221.32 903.366 2223.96 904.245 Z" fill="#000000" fill-rule="nonzero" fill-opacity="1" /><path clip-path="url(#clip740)" d="M2254.06 904.245 L2254.06 908.805 Q2251.39 907.532 2249.03 906.907 Q2246.67 906.282 2244.47 906.282 Q2240.65 906.282 2238.57 907.764 Q2236.51 909.245 2236.51 911.977 Q2236.51 914.268 2237.87 915.449 Q2239.26 916.606 2243.11 917.324 L2245.93 917.902 Q2251.16 918.898 2253.64 921.421 Q2256.14 923.921 2256.14 928.134 Q2256.14 933.157 2252.76 935.75 Q2249.4 938.342 2242.9 938.342 Q2240.44 938.342 2237.67 937.787 Q2234.91 937.231 2231.95 936.143 L2231.95 931.328 Q2234.8 932.926 2237.53 933.736 Q2240.26 934.546 2242.9 934.546 Q2246.9 934.546 2249.08 932.972 Q2251.25 931.398 2251.25 928.481 Q2251.25 925.935 2249.68 924.5 Q2248.13 923.064 2244.56 922.347 L2241.72 921.791 Q2236.49 920.75 2234.15 918.527 Q2231.81 916.305 2231.81 912.347 Q2231.81 907.764 2235.03 905.125 Q2238.27 902.486 2243.94 902.486 Q2246.37 902.486 2248.89 902.926 Q2251.42 903.366 2254.06 904.245 Z" fill="#000000" fill-rule="nonzero" fill-opacity="1" /></svg>
