<?xml version="1.0" encoding="utf-8"?>
<svg xmlns="http://www.w3.org/2000/svg" xmlns:xlink="http://www.w3.org/1999/xlink" width="600" height="400" viewBox="0 0 2400 1600">
<defs>
  <clipPath id="clip380">
    <rect x="0" y="0" width="2400" height="1600"/>
  </clipPath>
</defs>
<path clip-path="url(#clip380)" d="M0 1600 L2400 1600 L2400 0 L0 0  Z" fill="#ffffff" fill-rule="evenodd" fill-opacity="1"/>
<defs>
  <clipPath id="clip381">
    <rect x="480" y="0" width="1681" height="1600"/>
  </clipPath>
</defs>
<path clip-path="url(#clip380)" d="M178.867 686.448 L2352.76 686.448 L2352.76 47.2441 L178.867 47.2441  Z" fill="#ffffff" fill-rule="evenodd" fill-opacity="1"/>
<defs>
  <clipPath id="clip382">
    <rect x="178" y="47" width="2175" height="640"/>
  </clipPath>
</defs>
<polyline clip-path="url(#clip382)" style="stroke:#000000; stroke-linecap:round; stroke-linejoin:round; stroke-width:2; stroke-opacity:0.1; fill:none" points="238.339,686.448 238.339,47.2441 "/>
<polyline clip-path="url(#clip382)" style="stroke:#000000; stroke-linecap:round; stroke-linejoin:round; stroke-width:2; stroke-opacity:0.1; fill:none" points="751.562,686.448 751.562,47.2441 "/>
<polyline clip-path="url(#clip382)" style="stroke:#000000; stroke-linecap:round; stroke-linejoin:round; stroke-width:2; stroke-opacity:0.1; fill:none" points="1264.78,686.448 1264.78,47.2441 "/>
<polyline clip-path="url(#clip382)" style="stroke:#000000; stroke-linecap:round; stroke-linejoin:round; stroke-width:2; stroke-opacity:0.1; fill:none" points="1778.01,686.448 1778.01,47.2441 "/>
<polyline clip-path="url(#clip382)" style="stroke:#000000; stroke-linecap:round; stroke-linejoin:round; stroke-width:2; stroke-opacity:0.1; fill:none" points="2291.23,686.448 2291.23,47.2441 "/>
<polyline clip-path="url(#clip382)" style="stroke:#000000; stroke-linecap:round; stroke-linejoin:round; stroke-width:2; stroke-opacity:0.1; fill:none" points="178.867,686.448 2352.76,686.448 "/>
<polyline clip-path="url(#clip382)" style="stroke:#000000; stroke-linecap:round; stroke-linejoin:round; stroke-width:2; stroke-opacity:0.1; fill:none" points="178.867,526.647 2352.76,526.647 "/>
<polyline clip-path="url(#clip382)" style="stroke:#000000; stroke-linecap:round; stroke-linejoin:round; stroke-width:2; stroke-opacity:0.1; fill:none" points="178.867,366.846 2352.76,366.846 "/>
<polyline clip-path="url(#clip382)" style="stroke:#000000; stroke-linecap:round; stroke-linejoin:round; stroke-width:2; stroke-opacity:0.1; fill:none" points="178.867,207.045 2352.76,207.045 "/>
<polyline clip-path="url(#clip382)" style="stroke:#000000; stroke-linecap:round; stroke-linejoin:round; stroke-width:2; stroke-opacity:0.1; fill:none" points="178.867,47.2441 2352.76,47.2441 "/>
<polyline clip-path="url(#clip380)" style="stroke:#000000; stroke-linecap:round; stroke-linejoin:round; stroke-width:4; stroke-opacity:1; fill:none" points="178.867,686.448 2352.76,686.448 "/>
<polyline clip-path="url(#clip380)" style="stroke:#000000; stroke-linecap:round; stroke-linejoin:round; stroke-width:4; stroke-opacity:1; fill:none" points="238.339,686.448 238.339,667.55 "/>
<polyline clip-path="url(#clip380)" style="stroke:#000000; stroke-linecap:round; stroke-linejoin:round; stroke-width:4; stroke-opacity:1; fill:none" points="751.562,686.448 751.562,667.55 "/>
<polyline clip-path="url(#clip380)" style="stroke:#000000; stroke-linecap:round; stroke-linejoin:round; stroke-width:4; stroke-opacity:1; fill:none" points="1264.78,686.448 1264.78,667.55 "/>
<polyline clip-path="url(#clip380)" style="stroke:#000000; stroke-linecap:round; stroke-linejoin:round; stroke-width:4; stroke-opacity:1; fill:none" points="1778.01,686.448 1778.01,667.55 "/>
<polyline clip-path="url(#clip380)" style="stroke:#000000; stroke-linecap:round; stroke-linejoin:round; stroke-width:4; stroke-opacity:1; fill:none" points="2291.23,686.448 2291.23,667.55 "/>
<path clip-path="url(#clip380)" d="M238.339 717.367 Q234.728 717.367 232.899 720.931 Q231.094 724.473 231.094 731.603 Q231.094 738.709 232.899 742.274 Q234.728 745.815 238.339 745.815 Q241.973 745.815 243.779 742.274 Q245.607 738.709 245.607 731.603 Q245.607 724.473 243.779 720.931 Q241.973 717.367 238.339 717.367 M238.339 713.663 Q244.149 713.663 247.205 718.269 Q250.283 722.853 250.283 731.603 Q250.283 740.329 247.205 744.936 Q244.149 749.519 238.339 749.519 Q232.529 749.519 229.45 744.936 Q226.395 740.329 226.395 731.603 Q226.395 722.853 229.45 718.269 Q232.529 713.663 238.339 713.663 Z" fill="#000000" fill-rule="nonzero" fill-opacity="1" /><path clip-path="url(#clip380)" d="M715.254 744.913 L731.574 744.913 L731.574 748.848 L709.629 748.848 L709.629 744.913 Q712.291 742.158 716.875 737.528 Q721.481 732.876 722.662 731.533 Q724.907 729.01 725.787 727.274 Q726.689 725.515 726.689 723.825 Q726.689 721.07 724.745 719.334 Q722.824 717.598 719.722 717.598 Q717.523 717.598 715.069 718.362 Q712.638 719.126 709.861 720.677 L709.861 715.955 Q712.685 714.82 715.138 714.242 Q717.592 713.663 719.629 713.663 Q725 713.663 728.194 716.348 Q731.388 719.033 731.388 723.524 Q731.388 725.654 730.578 727.575 Q729.791 729.473 727.685 732.066 Q727.106 732.737 724.004 735.954 Q720.902 739.149 715.254 744.913 Z" fill="#000000" fill-rule="nonzero" fill-opacity="1" /><path clip-path="url(#clip380)" d="M741.435 714.288 L759.791 714.288 L759.791 718.223 L745.717 718.223 L745.717 726.695 Q746.736 726.348 747.754 726.186 Q748.773 726.001 749.791 726.001 Q755.578 726.001 758.958 729.172 Q762.337 732.343 762.337 737.76 Q762.337 743.339 758.865 746.44 Q755.393 749.519 749.073 749.519 Q746.898 749.519 744.629 749.149 Q742.384 748.778 739.976 748.038 L739.976 743.339 Q742.06 744.473 744.282 745.028 Q746.504 745.584 748.981 745.584 Q752.985 745.584 755.323 743.478 Q757.661 741.371 757.661 737.76 Q757.661 734.149 755.323 732.042 Q752.985 729.936 748.981 729.936 Q747.106 729.936 745.231 730.353 Q743.379 730.769 741.435 731.649 L741.435 714.288 Z" fill="#000000" fill-rule="nonzero" fill-opacity="1" /><path clip-path="url(#clip380)" d="M781.55 717.367 Q777.939 717.367 776.11 720.931 Q774.305 724.473 774.305 731.603 Q774.305 738.709 776.11 742.274 Q777.939 745.815 781.55 745.815 Q785.184 745.815 786.99 742.274 Q788.819 738.709 788.819 731.603 Q788.819 724.473 786.99 720.931 Q785.184 717.367 781.55 717.367 M781.55 713.663 Q787.36 713.663 790.416 718.269 Q793.495 722.853 793.495 731.603 Q793.495 740.329 790.416 744.936 Q787.36 749.519 781.55 749.519 Q775.74 749.519 772.661 744.936 Q769.606 740.329 769.606 731.603 Q769.606 722.853 772.661 718.269 Q775.74 713.663 781.55 713.663 Z" fill="#000000" fill-rule="nonzero" fill-opacity="1" /><path clip-path="url(#clip380)" d="M1224.4 714.288 L1242.76 714.288 L1242.76 718.223 L1228.69 718.223 L1228.69 726.695 Q1229.7 726.348 1230.72 726.186 Q1231.74 726.001 1232.76 726.001 Q1238.55 726.001 1241.93 729.172 Q1245.31 732.343 1245.31 737.76 Q1245.31 743.339 1241.83 746.44 Q1238.36 749.519 1232.04 749.519 Q1229.87 749.519 1227.6 749.149 Q1225.35 748.778 1222.94 748.038 L1222.94 743.339 Q1225.03 744.473 1227.25 745.028 Q1229.47 745.584 1231.95 745.584 Q1235.95 745.584 1238.29 743.478 Q1240.63 741.371 1240.63 737.76 Q1240.63 734.149 1238.29 732.042 Q1235.95 729.936 1231.95 729.936 Q1230.07 729.936 1228.2 730.353 Q1226.35 730.769 1224.4 731.649 L1224.4 714.288 Z" fill="#000000" fill-rule="nonzero" fill-opacity="1" /><path clip-path="url(#clip380)" d="M1264.52 717.367 Q1260.91 717.367 1259.08 720.931 Q1257.27 724.473 1257.27 731.603 Q1257.27 738.709 1259.08 742.274 Q1260.91 745.815 1264.52 745.815 Q1268.15 745.815 1269.96 742.274 Q1271.79 738.709 1271.79 731.603 Q1271.79 724.473 1269.96 720.931 Q1268.15 717.367 1264.52 717.367 M1264.52 713.663 Q1270.33 713.663 1273.38 718.269 Q1276.46 722.853 1276.46 731.603 Q1276.46 740.329 1273.38 744.936 Q1270.33 749.519 1264.52 749.519 Q1258.71 749.519 1255.63 744.936 Q1252.57 740.329 1252.57 731.603 Q1252.57 722.853 1255.63 718.269 Q1258.71 713.663 1264.52 713.663 Z" fill="#000000" fill-rule="nonzero" fill-opacity="1" /><path clip-path="url(#clip380)" d="M1294.68 717.367 Q1291.07 717.367 1289.24 720.931 Q1287.44 724.473 1287.44 731.603 Q1287.44 738.709 1289.24 742.274 Q1291.07 745.815 1294.68 745.815 Q1298.31 745.815 1300.12 742.274 Q1301.95 738.709 1301.95 731.603 Q1301.95 724.473 1300.12 720.931 Q1298.31 717.367 1294.68 717.367 M1294.68 713.663 Q1300.49 713.663 1303.55 718.269 Q1306.62 722.853 1306.62 731.603 Q1306.62 740.329 1303.55 744.936 Q1300.49 749.519 1294.68 749.519 Q1288.87 749.519 1285.79 744.936 Q1282.74 740.329 1282.74 731.603 Q1282.74 722.853 1285.79 718.269 Q1288.87 713.663 1294.68 713.663 Z" fill="#000000" fill-rule="nonzero" fill-opacity="1" /><path clip-path="url(#clip380)" d="M1736.28 714.288 L1758.51 714.288 L1758.51 716.279 L1745.96 748.848 L1741.08 748.848 L1752.88 718.223 L1736.28 718.223 L1736.28 714.288 Z" fill="#000000" fill-rule="nonzero" fill-opacity="1" /><path clip-path="url(#clip380)" d="M1767.67 714.288 L1786.03 714.288 L1786.03 718.223 L1771.95 718.223 L1771.95 726.695 Q1772.97 726.348 1773.99 726.186 Q1775.01 726.001 1776.03 726.001 Q1781.82 726.001 1785.2 729.172 Q1788.57 732.343 1788.57 737.76 Q1788.57 743.339 1785.1 746.44 Q1781.63 749.519 1775.31 749.519 Q1773.14 749.519 1770.87 749.149 Q1768.62 748.778 1766.21 748.038 L1766.21 743.339 Q1768.3 744.473 1770.52 745.028 Q1772.74 745.584 1775.22 745.584 Q1779.22 745.584 1781.56 743.478 Q1783.9 741.371 1783.9 737.76 Q1783.9 734.149 1781.56 732.042 Q1779.22 729.936 1775.22 729.936 Q1773.34 729.936 1771.47 730.353 Q1769.62 730.769 1767.67 731.649 L1767.67 714.288 Z" fill="#000000" fill-rule="nonzero" fill-opacity="1" /><path clip-path="url(#clip380)" d="M1807.79 717.367 Q1804.18 717.367 1802.35 720.931 Q1800.54 724.473 1800.54 731.603 Q1800.54 738.709 1802.35 742.274 Q1804.18 745.815 1807.79 745.815 Q1811.42 745.815 1813.23 742.274 Q1815.06 738.709 1815.06 731.603 Q1815.06 724.473 1813.23 720.931 Q1811.42 717.367 1807.79 717.367 M1807.79 713.663 Q1813.6 713.663 1816.65 718.269 Q1819.73 722.853 1819.73 731.603 Q1819.73 740.329 1816.65 744.936 Q1813.6 749.519 1807.79 749.519 Q1801.98 749.519 1798.9 744.936 Q1795.84 740.329 1795.84 731.603 Q1795.84 722.853 1798.9 718.269 Q1801.98 713.663 1807.79 713.663 Z" fill="#000000" fill-rule="nonzero" fill-opacity="1" /><path clip-path="url(#clip380)" d="M2235.76 744.913 L2243.4 744.913 L2243.4 718.547 L2235.09 720.214 L2235.09 715.955 L2243.35 714.288 L2248.02 714.288 L2248.02 744.913 L2255.66 744.913 L2255.66 748.848 L2235.76 748.848 L2235.76 744.913 Z" fill="#000000" fill-rule="nonzero" fill-opacity="1" /><path clip-path="url(#clip380)" d="M2275.11 717.367 Q2271.5 717.367 2269.67 720.931 Q2267.86 724.473 2267.86 731.603 Q2267.86 738.709 2269.67 742.274 Q2271.5 745.815 2275.11 745.815 Q2278.74 745.815 2280.55 742.274 Q2282.38 738.709 2282.38 731.603 Q2282.38 724.473 2280.55 720.931 Q2278.74 717.367 2275.11 717.367 M2275.11 713.663 Q2280.92 713.663 2283.97 718.269 Q2287.05 722.853 2287.05 731.603 Q2287.05 740.329 2283.97 744.936 Q2280.92 749.519 2275.11 749.519 Q2269.3 749.519 2266.22 744.936 Q2263.16 740.329 2263.16 731.603 Q2263.16 722.853 2266.22 718.269 Q2269.3 713.663 2275.11 713.663 Z" fill="#000000" fill-rule="nonzero" fill-opacity="1" /><path clip-path="url(#clip380)" d="M2305.27 717.367 Q2301.66 717.367 2299.83 720.931 Q2298.02 724.473 2298.02 731.603 Q2298.02 738.709 2299.83 742.274 Q2301.66 745.815 2305.27 745.815 Q2308.9 745.815 2310.71 742.274 Q2312.54 738.709 2312.54 731.603 Q2312.54 724.473 2310.71 720.931 Q2308.9 717.367 2305.27 717.367 M2305.27 713.663 Q2311.08 713.663 2314.14 718.269 Q2317.21 722.853 2317.21 731.603 Q2317.21 740.329 2314.14 744.936 Q2311.08 749.519 2305.27 749.519 Q2299.46 749.519 2296.38 744.936 Q2293.33 740.329 2293.33 731.603 Q2293.33 722.853 2296.38 718.269 Q2299.46 713.663 2305.27 713.663 Z" fill="#000000" fill-rule="nonzero" fill-opacity="1" /><path clip-path="url(#clip380)" d="M2335.43 717.367 Q2331.82 717.367 2329.99 720.931 Q2328.19 724.473 2328.19 731.603 Q2328.19 738.709 2329.99 742.274 Q2331.82 745.815 2335.43 745.815 Q2339.07 745.815 2340.87 742.274 Q2342.7 738.709 2342.7 731.603 Q2342.7 724.473 2340.87 720.931 Q2339.07 717.367 2335.43 717.367 M2335.43 713.663 Q2341.24 713.663 2344.3 718.269 Q2347.38 722.853 2347.38 731.603 Q2347.38 740.329 2344.3 744.936 Q2341.24 749.519 2335.43 749.519 Q2329.62 749.519 2326.54 744.936 Q2323.49 740.329 2323.49 731.603 Q2323.49 722.853 2326.54 718.269 Q2329.62 713.663 2335.43 713.663 Z" fill="#000000" fill-rule="nonzero" fill-opacity="1" /><polyline clip-path="url(#clip380)" style="stroke:#000000; stroke-linecap:round; stroke-linejoin:round; stroke-width:4; stroke-opacity:1; fill:none" points="178.867,686.448 178.867,47.2441 "/>
<polyline clip-path="url(#clip380)" style="stroke:#000000; stroke-linecap:round; stroke-linejoin:round; stroke-width:4; stroke-opacity:1; fill:none" points="178.867,686.448 197.764,686.448 "/>
<polyline clip-path="url(#clip380)" style="stroke:#000000; stroke-linecap:round; stroke-linejoin:round; stroke-width:4; stroke-opacity:1; fill:none" points="178.867,526.647 197.764,526.647 "/>
<polyline clip-path="url(#clip380)" style="stroke:#000000; stroke-linecap:round; stroke-linejoin:round; stroke-width:4; stroke-opacity:1; fill:none" points="178.867,366.846 197.764,366.846 "/>
<polyline clip-path="url(#clip380)" style="stroke:#000000; stroke-linecap:round; stroke-linejoin:round; stroke-width:4; stroke-opacity:1; fill:none" points="178.867,207.045 197.764,207.045 "/>
<polyline clip-path="url(#clip380)" style="stroke:#000000; stroke-linecap:round; stroke-linejoin:round; stroke-width:4; stroke-opacity:1; fill:none" points="178.867,47.2441 197.764,47.2441 "/>
<path clip-path="url(#clip380)" d="M50.9921 686.899 L80.6679 686.899 L80.6679 690.834 L50.9921 690.834 L50.9921 686.899 Z" fill="#000000" fill-rule="nonzero" fill-opacity="1" /><path clip-path="url(#clip380)" d="M91.5706 699.793 L99.2095 699.793 L99.2095 673.427 L90.8993 675.094 L90.8993 670.835 L99.1632 669.168 L103.839 669.168 L103.839 699.793 L111.478 699.793 L111.478 703.728 L91.5706 703.728 L91.5706 699.793 Z" fill="#000000" fill-rule="nonzero" fill-opacity="1" /><path clip-path="url(#clip380)" d="M130.922 672.247 Q127.311 672.247 125.482 675.811 Q123.677 679.353 123.677 686.483 Q123.677 693.589 125.482 697.154 Q127.311 700.695 130.922 700.695 Q134.556 700.695 136.362 697.154 Q138.191 693.589 138.191 686.483 Q138.191 679.353 136.362 675.811 Q134.556 672.247 130.922 672.247 M130.922 668.543 Q136.732 668.543 139.788 673.149 Q142.867 677.733 142.867 686.483 Q142.867 695.209 139.788 699.816 Q136.732 704.399 130.922 704.399 Q125.112 704.399 122.033 699.816 Q118.978 695.209 118.978 686.483 Q118.978 677.733 122.033 673.149 Q125.112 668.543 130.922 668.543 Z" fill="#000000" fill-rule="nonzero" fill-opacity="1" /><path clip-path="url(#clip380)" d="M82.1494 527.098 L111.825 527.098 L111.825 531.033 L82.1494 531.033 L82.1494 527.098 Z" fill="#000000" fill-rule="nonzero" fill-opacity="1" /><path clip-path="url(#clip380)" d="M121.964 509.367 L140.32 509.367 L140.32 513.302 L126.246 513.302 L126.246 521.774 Q127.265 521.427 128.283 521.265 Q129.302 521.08 130.32 521.08 Q136.107 521.08 139.487 524.251 Q142.867 527.422 142.867 532.839 Q142.867 538.418 139.394 541.52 Q135.922 544.598 129.603 544.598 Q127.427 544.598 125.158 544.228 Q122.913 543.857 120.506 543.117 L120.506 538.418 Q122.589 539.552 124.811 540.108 Q127.033 540.663 129.51 540.663 Q133.515 540.663 135.853 538.557 Q138.191 536.45 138.191 532.839 Q138.191 529.228 135.853 527.121 Q133.515 525.015 129.51 525.015 Q127.635 525.015 125.76 525.432 Q123.908 525.848 121.964 526.728 L121.964 509.367 Z" fill="#000000" fill-rule="nonzero" fill-opacity="1" /><path clip-path="url(#clip380)" d="M130.922 352.645 Q127.311 352.645 125.482 356.209 Q123.677 359.751 123.677 366.881 Q123.677 373.987 125.482 377.552 Q127.311 381.094 130.922 381.094 Q134.556 381.094 136.362 377.552 Q138.191 373.987 138.191 366.881 Q138.191 359.751 136.362 356.209 Q134.556 352.645 130.922 352.645 M130.922 348.941 Q136.732 348.941 139.788 353.547 Q142.867 358.131 142.867 366.881 Q142.867 375.608 139.788 380.214 Q136.732 384.797 130.922 384.797 Q125.112 384.797 122.033 380.214 Q118.978 375.608 118.978 366.881 Q118.978 358.131 122.033 353.547 Q125.112 348.941 130.922 348.941 Z" fill="#000000" fill-rule="nonzero" fill-opacity="1" /><path clip-path="url(#clip380)" d="M121.964 189.765 L140.32 189.765 L140.32 193.7 L126.246 193.7 L126.246 202.172 Q127.265 201.825 128.283 201.663 Q129.302 201.478 130.32 201.478 Q136.107 201.478 139.487 204.649 Q142.867 207.82 142.867 213.237 Q142.867 218.816 139.394 221.918 Q135.922 224.996 129.603 224.996 Q127.427 224.996 125.158 224.626 Q122.913 224.256 120.506 223.515 L120.506 218.816 Q122.589 219.95 124.811 220.506 Q127.033 221.061 129.51 221.061 Q133.515 221.061 135.853 218.955 Q138.191 216.848 138.191 213.237 Q138.191 209.626 135.853 207.52 Q133.515 205.413 129.51 205.413 Q127.635 205.413 125.76 205.83 Q123.908 206.246 121.964 207.126 L121.964 189.765 Z" fill="#000000" fill-rule="nonzero" fill-opacity="1" /><path clip-path="url(#clip380)" d="M91.5706 60.5889 L99.2095 60.5889 L99.2095 34.2233 L90.8993 35.89 L90.8993 31.6308 L99.1632 29.9641 L103.839 29.9641 L103.839 60.5889 L111.478 60.5889 L111.478 64.5241 L91.5706 64.5241 L91.5706 60.5889 Z" fill="#000000" fill-rule="nonzero" fill-opacity="1" /><path clip-path="url(#clip380)" d="M130.922 33.0428 Q127.311 33.0428 125.482 36.6076 Q123.677 40.1492 123.677 47.2788 Q123.677 54.3853 125.482 57.9501 Q127.311 61.4917 130.922 61.4917 Q134.556 61.4917 136.362 57.9501 Q138.191 54.3853 138.191 47.2788 Q138.191 40.1492 136.362 36.6076 Q134.556 33.0428 130.922 33.0428 M130.922 29.3391 Q136.732 29.3391 139.788 33.9456 Q142.867 38.5289 142.867 47.2788 Q142.867 56.0056 139.788 60.6121 Q136.732 65.1954 130.922 65.1954 Q125.112 65.1954 122.033 60.6121 Q118.978 56.0056 118.978 47.2788 Q118.978 38.5289 122.033 33.9456 Q125.112 29.3391 130.922 29.3391 Z" fill="#000000" fill-rule="nonzero" fill-opacity="1" /><polyline clip-path="url(#clip382)" style="stroke:#009af9; stroke-linecap:round; stroke-linejoin:round; stroke-width:4; stroke-opacity:1; fill:none" points="240.392,334.886 242.445,335.716 244.498,361.732 246.55,358.754 248.603,371.374 250.656,309.927 252.709,345.629 254.762,344.324 256.815,343.817 258.868,354.168 260.921,350.747 262.974,359.365 265.027,361.191 267.079,361.03 269.132,361.046 271.185,359.671 273.238,351.479 275.291,357.89 277.344,353.033 279.397,360.769 281.45,373.323 283.503,378.071 285.555,376.092 287.608,377.749 289.661,377.631 291.714,379.915 293.767,386.26 295.82,392.828 297.873,392.837 299.926,379.109 301.979,380.118 304.031,370.809 306.084,370.948 308.137,368.6 310.19,371.058 312.243,368.015 314.296,355.917 316.349,359.943 318.402,370.006 320.455,345.991 322.507,356.805 324.56,358.738 326.613,358.22 328.666,358.129 330.719,358.868 332.772,365.284 334.825,385.442 336.878,350.43 338.931,396.416 340.984,398.566 343.036,397.2 345.089,404.383 347.142,401.233 349.195,428.982 351.248,420.147 353.301,419.68 355.354,417.916 357.407,428.452 359.46,520.317 361.512,483.624 363.565,482.731 365.618,473.489 367.671,462.034 369.724,475.204 371.777,459.717 373.83,459.787 375.883,460.655 377.936,449.827 379.988,449.012 382.041,461.089 384.094,452.72 386.147,441.868 388.2,442.714 390.253,435.461 392.306,435.584 394.359,429.967 396.412,438.814 398.464,436.603 400.517,399.869 402.57,414.42 404.623,414.511 406.676,414.43 408.729,414.09 410.782,399.685 412.835,413.417 414.888,413.462 416.94,304.183 418.993,305.281 421.046,307.46 423.099,304.98 425.152,316.95 427.205,314.57 429.258,313.257 431.311,344.067 433.364,342.143 435.417,339.184 437.469,336.657 439.522,355.737 441.575,362.592 443.628,344.632 445.681,335.667 447.734,334.562 449.787,325.012 451.84,328.515 453.893,339.096 455.945,346.406 457.998,402.482 460.051,402.932 462.104,405.541 464.157,405.566 466.21,395.364 468.263,425.234 470.316,405.918 472.369,420.618 474.421,315.992 476.474,347.163 478.527,348.347 480.58,324.13 482.633,327.251 484.686,328.774 486.739,332.085 488.792,352.065 490.845,354.688 492.897,347.305 494.95,362.2 497.003,350.648 499.056,348.684 501.109,336.407 503.162,436.43 505.215,459.82 507.268,351.03 509.321,394.871 511.374,361.857 513.426,357.408 515.479,327.939 517.532,404.652 519.585,420.354 521.638,421.5 523.691,420.354 525.744,420.481 527.797,414.396 529.85,445.406 531.902,444.392 533.955,447.423 536.008,445.332 538.061,429.615 540.114,408.917 542.167,419.914 544.22,402.628 546.273,403.196 548.326,402.646 550.378,403.418 552.431,411.124 554.484,384.977 556.537,385.608 558.59,384.621 560.643,380.551 562.696,357.888 564.749,365.195 566.802,347.416 568.854,347.057 570.907,405.472 572.96,405.351 575.013,375.314 577.066,379.244 579.119,400.669 581.172,400.699 583.225,401.065 585.278,398.707 587.331,398.074 589.383,369.673 591.436,378.566 593.489,378.043 595.542,361.234 597.595,361.27 599.648,358.42 601.701,363.156 603.754,367.936 605.807,367.863 607.859,366.356 609.912,365.644 611.965,366.13 614.018,369.533 616.071,369.525 618.124,368.594 620.177,366.217 622.23,363.895 624.283,393.31 626.335,393.229 628.388,391.448 630.441,391.447 632.494,395.137 634.547,395.227 636.6,394.958 638.653,397.88 640.706,370.165 642.759,368.208 644.811,363.723 646.864,363.58 648.917,366.348 650.97,366.355 653.023,366.239 655.076,346.468 657.129,351.507 659.182,356.221 661.235,356.327 663.288,357.797 665.34,365.132 667.393,376.114 669.446,376.307 671.499,376.34 673.552,365.902 675.605,357.439 677.658,357.473 679.711,351.999 681.764,421.889 683.816,421.831 685.869,418.577 687.922,419.007 689.975,416.764 692.028,418.714 694.081,419.664 696.134,379.978 698.187,391.862 700.24,387.743 702.292,370.055 704.345,415.073 706.398,384.252 708.451,384.378 710.504,386.898 712.557,386.97 714.61,374.384 716.663,369 718.716,370.93 720.768,368.074 722.821,366.925 724.874,363.646 726.927,371.748 728.98,374.927 731.033,338.051 733.086,337.713 735.139,336.322 737.192,332.769 739.245,331.542 741.297,338.491 743.35,336.455 745.403,337.783 747.456,330.142 749.509,330.66 751.562,327.58 753.615,324.047 755.668,318.677 757.721,315.834 759.773,315.802 761.826,322.173 763.879,322.549 765.932,326.46 767.985,324.737 770.038,325.291 772.091,425.962 774.144,425.228 776.197,433.06 778.249,431.475 780.302,402.865 782.355,382.744 784.408,382.381 786.461,384.935 788.514,393.923 790.567,393.896 792.62,374.232 794.673,358.918 796.725,375.046 798.778,376.888 800.831,382.417 802.884,382.404 804.937,382.238 806.99,437.972 809.043,434.627 811.096,434.841 813.149,444.659 815.202,462.786 817.254,464.418 819.307,459.933 821.36,459.654 823.413,473.228 825.466,467.263 827.519,400.575 829.572,384.072 831.625,388.389 833.678,462.582 835.73,428.821 837.783,415.038 839.836,414.937 841.889,298.558 843.942,512.992 845.995,509.283 848.048,561.405 850.101,555.779 852.154,546.158 854.206,545.369 856.259,509.277 858.312,807.219 860.365,771.496 862.418,611.463 864.471,639.986 866.524,139.156 868.577,135.423 870.63,168.817 872.682,174.217 874.735,161.355 876.788,170.536 878.841,182.288 880.894,184.931 882.947,184.982 885,193.01 887.053,181.25 889.106,127.04 891.159,175.375 893.211,300.903 895.264,315.088 897.317,362.7 899.37,363.28 901.423,374.499 903.476,374.532 905.529,392.565 907.582,385.99 909.635,346.922 911.687,346.853 913.74,294.249 915.793,282.829 917.846,296.663 919.899,299.965 921.952,278.524 924.005,276.884 926.058,282.099 928.111,283.236 930.163,282.89 932.216,294.18 934.269,289.899 936.322,290.029 938.375,286.796 940.428,321.469 942.481,321.605 944.534,319.696 946.587,319.978 948.639,335.782 950.692,308.879 952.745,310.09 954.798,296.58 956.851,371.72 958.904,373.494 960.957,336.392 963.01,316.414 965.063,305.443 967.116,305.354 969.168,304.728 971.221,307.6 973.274,315.115 975.327,310.727 977.38,350.702 979.433,350.745 981.486,308.095 983.539,312.451 985.592,275.578 987.644,285.598 989.697,283.152 991.75,302.318 993.803,302.39 995.856,308.747 997.909,301.282 999.962,296.431 1002.01,292.2 1004.07,322.123 1006.12,358.257 1008.17,372.53 1010.23,361.773 1012.28,310.742 1014.33,212.729 1016.38,213.559 1018.44,357.259 1020.49,347.909 1022.54,333.964 1024.6,333.932 1026.65,345.242 1028.7,347.758 1030.76,316.482 1032.81,315.781 1034.86,353.814 1036.91,436.531 1038.97,434.937 1041.02,433.545 1043.07,434.413 1045.13,443.783 1047.18,456.634 1049.23,366.046 1051.28,352.783 1053.34,351.975 1055.39,347.883 1057.44,350.958 1059.5,334.717 1061.55,333.465 1063.6,356.648 1065.65,491.192 1067.71,496.861 1069.76,498.779 1071.81,528.302 1073.87,484.034 1075.92,244.127 1077.97,361.799 1080.02,365.161 1082.08,417.326 1084.13,412.052 1086.18,362.829 1088.24,355.319 1090.29,351.491 1092.34,396.244 1094.39,799.089 1096.45,727.765 1098.5,633.953 1100.55,652.397 1102.61,353.667 1104.66,771.256 1106.71,851.75 1108.77,918.797 1110.82,897.868 1112.87,907.974 1114.92,550.81 1116.98,632.271 1119.03,321.746 1121.08,335.378 1123.14,10.2041 1125.19,71.1624 1127.24,65.4458 1129.29,283.75 1131.35,397.804 1133.4,425.286 1135.45,389.892 1137.51,281.874 1139.56,255.131 1141.61,235.692 1143.66,427.9 1145.72,435.647 1147.77,433.054 1149.82,460.937 1151.88,526.952 1153.93,742.502 1155.98,816.234 1158.03,700.078 1160.09,746.271 1162.14,1103.07 1164.19,964.879 1166.25,1316.91 1168.3,1320.47 1170.35,1255.52 1172.4,1195.56 1174.46,902.893 1176.51,1106.05 1178.56,848.236 1180.62,787.27 1182.67,993.312 1184.72,1006.13 1186.77,619.058 1188.83,743.361 1190.88,656.28 1192.93,568.956 1194.99,593.37 1197.04,430.734 1199.09,430.514 1201.15,444.28 1203.2,487.525 1205.25,504.29 1207.3,505.405 1209.36,402.291 1211.41,403.286 1213.46,403.589 1215.52,427.193 1217.57,435.72 1219.62,256.56 1221.67,244.736 1223.73,291.511 1225.78,403.284 1227.83,398.476 1229.89,246.643 1231.94,219.692 1233.99,207.287 1236.04,283.239 1238.1,278.728 1240.15,258.48 1242.2,197.539 1244.26,324.199 1246.31,352.399 1248.36,351.378 1250.41,344.384 1252.47,373.511 1254.52,353.973 1256.57,352.147 1258.63,348.977 1260.68,363.874 1262.73,370.137 1264.78,328.014 1266.84,261.033 1268.89,221.429 1270.94,150.497 1273,156.01 1275.05,145.175 1277.1,101.811 1279.16,128.963 1281.21,128.877 1283.26,40.7979 1285.31,329.623 1287.37,674.317 1289.42,647.296 1291.47,396.974 1293.53,372.298 1295.58,372.181 1297.63,389.822 1299.68,395.015 1301.74,379.797 1303.79,390.578 1305.84,391.168 1307.9,347.907 1309.95,347.92 1312,261.543 1314.05,372.224 1316.11,340.926 1318.16,341.54 1320.21,253.85 1322.27,363.32 1324.32,327.573 1326.37,458.679 1328.42,419.352 1330.48,436.491 1332.53,466.184 1334.58,516.069 1336.64,383.588 1338.69,380.653 1340.74,327.99 1342.79,334.725 1344.85,454.84 1346.9,501.556 1348.95,510.583 1351.01,402.201 1353.06,381.147 1355.11,479.321 1357.16,413.071 1359.22,491.181 1361.27,489.606 1363.32,492.369 1365.38,484.323 1367.43,469.288 1369.48,478.407 1371.54,477.549 1373.59,511.715 1375.64,516.439 1377.69,532.414 1379.75,493.877 1381.8,479.187 1383.85,483.526 1385.91,513.759 1387.96,570.213 1390.01,415.161 1392.06,404.112 1394.12,407.21 1396.17,408.995 1398.22,408.677 1400.28,403.403 1402.33,384.834 1404.38,391.527 1406.43,413.814 1408.49,405.06 1410.54,379.956 1412.59,383.695 1414.65,318.927 1416.7,324.094 1418.75,306.689 1420.8,282.502 1422.86,296.386 1424.91,348.415 1426.96,368.194 1429.02,377.143 1431.07,511.55 1433.12,489.249 1435.17,491.946 1437.23,490.675 1439.28,349.201 1441.33,345.264 1443.39,426.32 1445.44,251.152 1447.49,313.574 1449.55,317.74 1451.6,317.873 1453.65,319.118 1455.7,322.408 1457.76,326.154 1459.81,315.411 1461.86,280.233 1463.92,286.747 1465.97,276.675 1468.02,276.695 1470.07,423.411 1472.13,539.929 1474.18,452.436 1476.23,509.958 1478.29,488.746 1480.34,494.051 1482.39,435.405 1484.44,435.42 1486.5,434.454 1488.55,409.626 1490.6,340.373 1492.66,347.041 1494.71,384.14 1496.76,439.663 1498.81,438.284 1500.87,430.742 1502.92,429.46 1504.97,436.894 1507.03,355.329 1509.08,303.015 1511.13,254.291 1513.18,408.32 1515.24,436.145 1517.29,712.241 1519.34,76.885 1521.4,103.439 1523.45,103.489 1525.5,112.858 1527.55,240.711 1529.61,240.996 1531.66,186.942 1533.71,184.029 1535.77,204.52 1537.82,204.597 1539.87,215.778 1541.93,264.254 1543.98,238.06 1546.03,229.324 1548.08,196.905 1550.14,189.427 1552.19,155.97 1554.24,245.149 1556.3,244.792 1558.35,518.705 1560.4,530.987 1562.45,648.968 1564.51,630.349 1566.56,630.992 1568.61,649.999 1570.67,648.938 1572.72,599.907 1574.77,622.041 1576.82,495.68 1578.88,494.227 1580.93,557.346 1582.98,459.442 1585.04,398.668 1587.09,309.965 1589.14,206.442 1591.19,212.468 1593.25,146.192 1595.3,151.696 1597.35,187.251 1599.41,187.588 1601.46,188.19 1603.51,194.217 1605.56,241.305 1607.62,228.317 1609.67,225.042 1611.72,225.051 1613.78,188.282 1615.83,171.668 1617.88,227.9 1619.94,238.546 1621.99,380.552 1624.04,356.022 1626.09,331.843 1628.15,387.331 1630.2,350.935 1632.25,327.374 1634.31,418.048 1636.36,417.807 1638.41,417.797 1640.46,401.467 1642.52,437.859 1644.57,796.548 1646.62,798.073 1648.68,656.852 1650.73,378.53 1652.78,362.549 1654.83,362.008 1656.89,434.101 1658.94,423.177 1660.99,579.869 1663.05,678.586 1665.1,640.543 1667.15,681.661 1669.2,590.73 1671.26,580.306 1673.31,325.851 1675.36,353.803 1677.42,347.65 1679.47,416.403 1681.52,502.92 1683.57,462.386 1685.63,453.219 1687.68,519.261 1689.73,261.28 1691.79,277.38 1693.84,402.581 1695.89,361.164 1697.94,373.259 1700,375.613 1702.05,722.118 1704.1,971.242 1706.16,1040.57 1708.21,1033.63 1710.26,996.918 1712.32,1099.04 1714.37,1095.43 1716.42,1221.65 1718.47,1213.45 1720.53,982.511 1722.58,893.87 1724.63,875.433 1726.69,816.052 1728.74,867.65 1730.79,968.798 1732.84,765.638 1734.9,431.796 1736.95,374.763 1739,373.585 1741.06,342.539 1743.11,286.921 1745.16,192.352 1747.21,178.887 1749.27,639.714 1751.32,640.393 1753.37,703.759 1755.43,222.077 1757.48,220.995 1759.53,129.291 1761.58,311.221 1763.64,242.711 1765.69,239.805 1767.74,522.886 1769.8,497.348 1771.85,497.7 1773.9,503.83 1775.95,606.65 1778.01,260.351 1780.06,291.149 1782.11,284.15 1784.17,414.913 1786.22,393.749 1788.27,144.1 1790.33,72.7961 1792.38,132.172 1794.43,222.845 1796.48,62.1878 1798.54,12.4713 1800.59,-164.249 1802.64,-226.823 1804.7,-147.535 1806.75,-51.9025 1808.8,-46.301 1810.85,-59.1174 1812.91,-47.7107 1814.96,154.124 1817.01,347.095 1819.07,284.665 1821.12,166.541 1823.17,161.952 1825.22,66.027 1827.28,96.7955 1829.33,108.954 1831.38,8.55283 1833.44,318.75 1835.49,665.766 1837.54,695.065 1839.59,586.669 1841.65,567.026 1843.7,570.991 1845.75,528.705 1847.81,526.692 1849.86,327.832 1851.91,229.685 1853.96,140.79 1856.02,153.701 1858.07,158.197 1860.12,116.884 1862.18,156.219 1864.23,172.036 1866.28,152.893 1868.34,184.853 1870.39,219.746 1872.44,250.602 1874.49,376.142 1876.55,418.271 1878.6,255.703 1880.65,256.562 1882.71,318.493 1884.76,300.746 1886.81,293.434 1888.86,294.658 1890.92,197.142 1892.97,140.381 1895.02,137.04 1897.08,144.48 1899.13,126.06 1901.18,63.627 1903.23,167.314 1905.29,232.296 1907.34,285.154 1909.39,271.886 1911.45,222.589 1913.5,171.753 1915.55,459.717 1917.6,513.324 1919.66,472.196 1921.71,483.173 1923.76,383.058 1925.82,400.513 1927.87,565.232 1929.92,566.675 1931.97,446.446 1934.03,344.974 1936.08,358.089 1938.13,460.428 1940.19,276.782 1942.24,274.761 1944.29,389.338 1946.34,-101.646 1948.4,242.127 1950.45,332.613 1952.5,2.28361 1954.56,-47.3482 1956.61,-6.74257 1958.66,-6.14406 1960.72,29.3489 1962.77,435.296 1964.82,380.436 1966.87,344.525 1968.93,334.53 1970.98,310.96 1973.03,443.406 1975.09,529.349 1977.14,482.07 1979.19,570.498 1981.24,548.011 1983.3,752.668 1985.35,391.395 1987.4,272.662 1989.46,338.48 1991.51,363.552 1993.56,658.744 1995.61,713.429 1997.67,691.189 1999.72,690.875 2001.77,620.673 2003.83,742.686 2005.88,707.184 2007.93,676.743 2009.98,688.402 2012.04,511.709 2014.09,454.149 2016.14,436.25 2018.2,401.117 2020.25,-3.4983 2022.3,13.1229 2024.35,14.0055 2026.41,341.836 2028.46,419.226 2030.51,415.457 2032.57,446.688 2034.62,477.224 2036.67,299.271 2038.73,876.013 2040.78,470.698 2042.83,470.388 2044.88,91.5571 2046.94,85.8695 2048.99,155.699 2051.04,175.147 2053.1,257.165 2055.15,295.264 2057.2,311.247 2059.25,323.776 2061.31,324.067 2063.36,330.136 2065.41,666.43 2067.47,410.801 2069.52,414.195 2071.57,531.672 2073.62,462.445 2075.68,-87.9999 2077.73,473.263 2079.78,793.792 2081.84,742.521 2083.89,474.93 2085.94,556.49 2087.99,-3.4088 2090.05,2.16647 2092.1,-17.0058 2094.15,103.978 2096.21,193.168 2098.26,225.086 2100.31,281.059 2102.36,265.038 2104.42,245.279 2106.47,266.799 2108.52,254.936 2110.58,198.665 2112.63,292.76 2114.68,280.048 2116.73,245.051 2118.79,203.17 2120.84,199.868 2122.89,207.328 2124.95,1003.61 2127,1066.21 2129.05,1284.52 2131.11,1408.77 2133.16,1354.31 2135.21,1281.73 2137.26,1418.84 2139.32,1231.05 2141.37,983.006 2143.42,885.734 2145.48,760.608 2147.53,924.88 2149.58,1278.86 2151.63,1043.35 2153.69,992.656 2155.74,1066.36 2157.79,517.884 2159.85,579.665 2161.9,461.758 2163.95,891.972 2166,840.576 2168.06,603.753 2170.11,438.755 2172.16,438.923 2174.22,604.349 2176.27,712.919 2178.32,810.477 2180.37,791.143 2182.43,-67.7679 2184.48,-70.7823 2186.53,219.163 2188.59,300.476 2190.64,304.207 2192.69,218.87 2194.74,309.804 2196.8,354.984 2198.85,349.202 2200.9,414.618 2202.96,398.44 2205.01,418.804 2207.06,555.287 2209.12,705.139 2211.17,871.409 2213.22,870.788 2215.27,917.874 2217.33,708.928 2219.38,858.578 2221.43,1004.73 2223.49,986.786 2225.54,981.32 2227.59,541.193 2229.64,579.358 2231.7,548.201 2233.75,708.762 2235.8,726.19 2237.86,404.684 2239.91,578.501 2241.96,664.462 2244.01,563.893 2246.07,585.808 2248.12,505.936 2250.17,547.588 2252.23,523.545 2254.28,530.491 2256.33,667.454 2258.38,689.979 2260.44,263.591 2262.49,263.707 2264.54,438.287 2266.6,530.363 2268.65,611.544 2270.7,618.568 2272.75,640.336 2274.81,707.534 2276.86,561.129 2278.91,341.321 2280.97,659.943 2283.02,855.18 2285.07,878.058 2287.12,803.983 2289.18,935.357 2291.23,852.599 "/>
<path clip-path="url(#clip380)" d="M251.33 172.231 L548.024 172.231 L548.024 68.5509 L251.33 68.5509  Z" fill="#ffffff" fill-rule="evenodd" fill-opacity="1"/>
<polyline clip-path="url(#clip380)" style="stroke:#000000; stroke-linecap:round; stroke-linejoin:round; stroke-width:4; stroke-opacity:1; fill:none" points="251.33,172.231 548.024,172.231 548.024,68.5509 251.33,68.5509 251.33,172.231 "/>
<polyline clip-path="url(#clip380)" style="stroke:#009af9; stroke-linecap:round; stroke-linejoin:round; stroke-width:4; stroke-opacity:1; fill:none" points="275.484,120.391 420.41,120.391 "/>
<path clip-path="url(#clip380)" d="M444.564 103.111 L449.24 103.111 L449.24 133.736 L466.069 133.736 L466.069 137.671 L444.564 137.671 L444.564 103.111 Z" fill="#000000" fill-rule="nonzero" fill-opacity="1" /><path clip-path="url(#clip380)" d="M491.694 104.245 L491.694 108.805 Q489.032 107.532 486.67 106.907 Q484.309 106.282 482.11 106.282 Q478.291 106.282 476.208 107.764 Q474.147 109.245 474.147 111.977 Q474.147 114.268 475.513 115.449 Q476.902 116.606 480.745 117.324 L483.569 117.902 Q488.8 118.898 491.277 121.421 Q493.777 123.921 493.777 128.134 Q493.777 133.157 490.397 135.75 Q487.041 138.342 480.536 138.342 Q478.083 138.342 475.305 137.787 Q472.55 137.231 469.587 136.143 L469.587 131.328 Q472.434 132.926 475.166 133.736 Q477.897 134.546 480.536 134.546 Q484.541 134.546 486.717 132.972 Q488.893 131.398 488.893 128.481 Q488.893 125.935 487.319 124.5 Q485.768 123.064 482.203 122.347 L479.356 121.791 Q474.124 120.75 471.786 118.527 Q469.448 116.305 469.448 112.347 Q469.448 107.764 472.666 105.125 Q475.907 102.486 481.578 102.486 Q484.008 102.486 486.532 102.926 Q489.055 103.366 491.694 104.245 Z" fill="#000000" fill-rule="nonzero" fill-opacity="1" /><path clip-path="url(#clip380)" d="M521.786 104.245 L521.786 108.805 Q519.124 107.532 516.763 106.907 Q514.402 106.282 512.203 106.282 Q508.383 106.282 506.3 107.764 Q504.24 109.245 504.24 111.977 Q504.24 114.268 505.606 115.449 Q506.994 116.606 510.837 117.324 L513.661 117.902 Q518.893 118.898 521.369 121.421 Q523.869 123.921 523.869 128.134 Q523.869 133.157 520.49 135.75 Q517.133 138.342 510.629 138.342 Q508.175 138.342 505.397 137.787 Q502.643 137.231 499.68 136.143 L499.68 131.328 Q502.527 132.926 505.258 133.736 Q507.99 134.546 510.629 134.546 Q514.633 134.546 516.809 132.972 Q518.985 131.398 518.985 128.481 Q518.985 125.935 517.411 124.5 Q515.86 123.064 512.295 122.347 L509.448 121.791 Q504.217 120.75 501.879 118.527 Q499.541 116.305 499.541 112.347 Q499.541 107.764 502.758 105.125 Q505.999 102.486 511.67 102.486 Q514.101 102.486 516.624 102.926 Q519.147 103.366 521.786 104.245 Z" fill="#000000" fill-rule="nonzero" fill-opacity="1" /><path clip-path="url(#clip380)" d="M178.867 1486.45 L2352.76 1486.45 L2352.76 847.244 L178.867 847.244  Z" fill="#ffffff" fill-rule="evenodd" fill-opacity="1"/>
<defs>
  <clipPath id="clip383">
    <rect x="178" y="847" width="2175" height="640"/>
  </clipPath>
</defs>
<polyline clip-path="url(#clip383)" style="stroke:#000000; stroke-linecap:round; stroke-linejoin:round; stroke-width:2; stroke-opacity:0.1; fill:none" points="238.339,1486.45 238.339,847.244 "/>
<polyline clip-path="url(#clip383)" style="stroke:#000000; stroke-linecap:round; stroke-linejoin:round; stroke-width:2; stroke-opacity:0.1; fill:none" points="751.562,1486.45 751.562,847.244 "/>
<polyline clip-path="url(#clip383)" style="stroke:#000000; stroke-linecap:round; stroke-linejoin:round; stroke-width:2; stroke-opacity:0.1; fill:none" points="1264.78,1486.45 1264.78,847.244 "/>
<polyline clip-path="url(#clip383)" style="stroke:#000000; stroke-linecap:round; stroke-linejoin:round; stroke-width:2; stroke-opacity:0.1; fill:none" points="1778.01,1486.45 1778.01,847.244 "/>
<polyline clip-path="url(#clip383)" style="stroke:#000000; stroke-linecap:round; stroke-linejoin:round; stroke-width:2; stroke-opacity:0.1; fill:none" points="2291.23,1486.45 2291.23,847.244 "/>
<polyline clip-path="url(#clip383)" style="stroke:#000000; stroke-linecap:round; stroke-linejoin:round; stroke-width:2; stroke-opacity:0.1; fill:none" points="178.867,1486.45 2352.76,1486.45 "/>
<polyline clip-path="url(#clip383)" style="stroke:#000000; stroke-linecap:round; stroke-linejoin:round; stroke-width:2; stroke-opacity:0.1; fill:none" points="178.867,1326.65 2352.76,1326.65 "/>
<polyline clip-path="url(#clip383)" style="stroke:#000000; stroke-linecap:round; stroke-linejoin:round; stroke-width:2; stroke-opacity:0.1; fill:none" points="178.867,1166.85 2352.76,1166.85 "/>
<polyline clip-path="url(#clip383)" style="stroke:#000000; stroke-linecap:round; stroke-linejoin:round; stroke-width:2; stroke-opacity:0.1; fill:none" points="178.867,1007.05 2352.76,1007.05 "/>
<polyline clip-path="url(#clip383)" style="stroke:#000000; stroke-linecap:round; stroke-linejoin:round; stroke-width:2; stroke-opacity:0.1; fill:none" points="178.867,847.244 2352.76,847.244 "/>
<polyline clip-path="url(#clip380)" style="stroke:#000000; stroke-linecap:round; stroke-linejoin:round; stroke-width:4; stroke-opacity:1; fill:none" points="178.867,1486.45 2352.76,1486.45 "/>
<polyline clip-path="url(#clip380)" style="stroke:#000000; stroke-linecap:round; stroke-linejoin:round; stroke-width:4; stroke-opacity:1; fill:none" points="238.339,1486.45 238.339,1467.55 "/>
<polyline clip-path="url(#clip380)" style="stroke:#000000; stroke-linecap:round; stroke-linejoin:round; stroke-width:4; stroke-opacity:1; fill:none" points="751.562,1486.45 751.562,1467.55 "/>
<polyline clip-path="url(#clip380)" style="stroke:#000000; stroke-linecap:round; stroke-linejoin:round; stroke-width:4; stroke-opacity:1; fill:none" points="1264.78,1486.45 1264.78,1467.55 "/>
<polyline clip-path="url(#clip380)" style="stroke:#000000; stroke-linecap:round; stroke-linejoin:round; stroke-width:4; stroke-opacity:1; fill:none" points="1778.01,1486.45 1778.01,1467.55 "/>
<polyline clip-path="url(#clip380)" style="stroke:#000000; stroke-linecap:round; stroke-linejoin:round; stroke-width:4; stroke-opacity:1; fill:none" points="2291.23,1486.45 2291.23,1467.55 "/>
<path clip-path="url(#clip380)" d="M238.339 1517.37 Q234.728 1517.37 232.899 1520.93 Q231.094 1524.47 231.094 1531.6 Q231.094 1538.71 232.899 1542.27 Q234.728 1545.82 238.339 1545.82 Q241.973 1545.82 243.779 1542.27 Q245.607 1538.71 245.607 1531.6 Q245.607 1524.47 243.779 1520.93 Q241.973 1517.37 238.339 1517.37 M238.339 1513.66 Q244.149 1513.66 247.205 1518.27 Q250.283 1522.85 250.283 1531.6 Q250.283 1540.33 247.205 1544.94 Q244.149 1549.52 238.339 1549.52 Q232.529 1549.52 229.45 1544.94 Q226.395 1540.33 226.395 1531.6 Q226.395 1522.85 229.45 1518.27 Q232.529 1513.66 238.339 1513.66 Z" fill="#000000" fill-rule="nonzero" fill-opacity="1" /><path clip-path="url(#clip380)" d="M715.254 1544.91 L731.574 1544.91 L731.574 1548.85 L709.629 1548.85 L709.629 1544.91 Q712.291 1542.16 716.875 1537.53 Q721.481 1532.88 722.662 1531.53 Q724.907 1529.01 725.787 1527.27 Q726.689 1525.51 726.689 1523.82 Q726.689 1521.07 724.745 1519.33 Q722.824 1517.6 719.722 1517.6 Q717.523 1517.6 715.069 1518.36 Q712.638 1519.13 709.861 1520.68 L709.861 1515.95 Q712.685 1514.82 715.138 1514.24 Q717.592 1513.66 719.629 1513.66 Q725 1513.66 728.194 1516.35 Q731.388 1519.03 731.388 1523.52 Q731.388 1525.65 730.578 1527.57 Q729.791 1529.47 727.685 1532.07 Q727.106 1532.74 724.004 1535.95 Q720.902 1539.15 715.254 1544.91 Z" fill="#000000" fill-rule="nonzero" fill-opacity="1" /><path clip-path="url(#clip380)" d="M741.435 1514.29 L759.791 1514.29 L759.791 1518.22 L745.717 1518.22 L745.717 1526.7 Q746.736 1526.35 747.754 1526.19 Q748.773 1526 749.791 1526 Q755.578 1526 758.958 1529.17 Q762.337 1532.34 762.337 1537.76 Q762.337 1543.34 758.865 1546.44 Q755.393 1549.52 749.073 1549.52 Q746.898 1549.52 744.629 1549.15 Q742.384 1548.78 739.976 1548.04 L739.976 1543.34 Q742.06 1544.47 744.282 1545.03 Q746.504 1545.58 748.981 1545.58 Q752.985 1545.58 755.323 1543.48 Q757.661 1541.37 757.661 1537.76 Q757.661 1534.15 755.323 1532.04 Q752.985 1529.94 748.981 1529.94 Q747.106 1529.94 745.231 1530.35 Q743.379 1530.77 741.435 1531.65 L741.435 1514.29 Z" fill="#000000" fill-rule="nonzero" fill-opacity="1" /><path clip-path="url(#clip380)" d="M781.55 1517.37 Q777.939 1517.37 776.11 1520.93 Q774.305 1524.47 774.305 1531.6 Q774.305 1538.71 776.11 1542.27 Q777.939 1545.82 781.55 1545.82 Q785.184 1545.82 786.99 1542.27 Q788.819 1538.71 788.819 1531.6 Q788.819 1524.47 786.99 1520.93 Q785.184 1517.37 781.55 1517.37 M781.55 1513.66 Q787.36 1513.66 790.416 1518.27 Q793.495 1522.85 793.495 1531.6 Q793.495 1540.33 790.416 1544.94 Q787.36 1549.52 781.55 1549.52 Q775.74 1549.52 772.661 1544.94 Q769.606 1540.33 769.606 1531.6 Q769.606 1522.85 772.661 1518.27 Q775.74 1513.66 781.55 1513.66 Z" fill="#000000" fill-rule="nonzero" fill-opacity="1" /><path clip-path="url(#clip380)" d="M1224.4 1514.29 L1242.76 1514.29 L1242.76 1518.22 L1228.69 1518.22 L1228.69 1526.7 Q1229.7 1526.35 1230.72 1526.19 Q1231.74 1526 1232.76 1526 Q1238.55 1526 1241.93 1529.17 Q1245.31 1532.34 1245.31 1537.76 Q1245.31 1543.34 1241.83 1546.44 Q1238.36 1549.52 1232.04 1549.52 Q1229.87 1549.52 1227.6 1549.15 Q1225.35 1548.78 1222.94 1548.04 L1222.94 1543.34 Q1225.03 1544.47 1227.25 1545.03 Q1229.47 1545.58 1231.95 1545.58 Q1235.95 1545.58 1238.29 1543.48 Q1240.63 1541.37 1240.63 1537.76 Q1240.63 1534.15 1238.29 1532.04 Q1235.95 1529.94 1231.95 1529.94 Q1230.07 1529.94 1228.2 1530.35 Q1226.35 1530.77 1224.4 1531.65 L1224.4 1514.29 Z" fill="#000000" fill-rule="nonzero" fill-opacity="1" /><path clip-path="url(#clip380)" d="M1264.52 1517.37 Q1260.91 1517.37 1259.08 1520.93 Q1257.27 1524.47 1257.27 1531.6 Q1257.27 1538.71 1259.08 1542.27 Q1260.91 1545.82 1264.52 1545.82 Q1268.15 1545.82 1269.96 1542.27 Q1271.79 1538.71 1271.79 1531.6 Q1271.79 1524.47 1269.96 1520.93 Q1268.15 1517.37 1264.52 1517.37 M1264.52 1513.66 Q1270.33 1513.66 1273.38 1518.27 Q1276.46 1522.85 1276.46 1531.6 Q1276.46 1540.33 1273.38 1544.94 Q1270.33 1549.52 1264.52 1549.52 Q1258.71 1549.52 1255.63 1544.94 Q1252.57 1540.33 1252.57 1531.6 Q1252.57 1522.85 1255.63 1518.27 Q1258.71 1513.66 1264.52 1513.66 Z" fill="#000000" fill-rule="nonzero" fill-opacity="1" /><path clip-path="url(#clip380)" d="M1294.68 1517.37 Q1291.07 1517.37 1289.24 1520.93 Q1287.44 1524.47 1287.44 1531.6 Q1287.44 1538.71 1289.24 1542.27 Q1291.07 1545.82 1294.68 1545.82 Q1298.31 1545.82 1300.12 1542.27 Q1301.95 1538.71 1301.95 1531.6 Q1301.95 1524.47 1300.12 1520.93 Q1298.31 1517.37 1294.68 1517.37 M1294.68 1513.66 Q1300.49 1513.66 1303.55 1518.27 Q1306.62 1522.85 1306.62 1531.6 Q1306.62 1540.33 1303.55 1544.94 Q1300.49 1549.52 1294.68 1549.52 Q1288.87 1549.52 1285.79 1544.94 Q1282.74 1540.33 1282.74 1531.6 Q1282.74 1522.85 1285.79 1518.27 Q1288.87 1513.66 1294.68 1513.66 Z" fill="#000000" fill-rule="nonzero" fill-opacity="1" /><path clip-path="url(#clip380)" d="M1736.28 1514.29 L1758.51 1514.29 L1758.51 1516.28 L1745.96 1548.85 L1741.08 1548.85 L1752.88 1518.22 L1736.28 1518.22 L1736.28 1514.29 Z" fill="#000000" fill-rule="nonzero" fill-opacity="1" /><path clip-path="url(#clip380)" d="M1767.67 1514.29 L1786.03 1514.29 L1786.03 1518.22 L1771.95 1518.22 L1771.95 1526.7 Q1772.97 1526.35 1773.99 1526.19 Q1775.01 1526 1776.03 1526 Q1781.82 1526 1785.2 1529.17 Q1788.57 1532.34 1788.57 1537.76 Q1788.57 1543.34 1785.1 1546.44 Q1781.63 1549.52 1775.31 1549.52 Q1773.14 1549.52 1770.87 1549.15 Q1768.62 1548.78 1766.21 1548.04 L1766.21 1543.34 Q1768.3 1544.47 1770.52 1545.03 Q1772.74 1545.58 1775.22 1545.58 Q1779.22 1545.58 1781.56 1543.48 Q1783.9 1541.37 1783.9 1537.76 Q1783.9 1534.15 1781.56 1532.04 Q1779.22 1529.94 1775.22 1529.94 Q1773.34 1529.94 1771.47 1530.35 Q1769.62 1530.77 1767.67 1531.65 L1767.67 1514.29 Z" fill="#000000" fill-rule="nonzero" fill-opacity="1" /><path clip-path="url(#clip380)" d="M1807.79 1517.37 Q1804.18 1517.37 1802.35 1520.93 Q1800.54 1524.47 1800.54 1531.6 Q1800.54 1538.71 1802.35 1542.27 Q1804.18 1545.82 1807.79 1545.82 Q1811.42 1545.82 1813.23 1542.27 Q1815.06 1538.71 1815.06 1531.6 Q1815.06 1524.47 1813.23 1520.93 Q1811.42 1517.37 1807.79 1517.37 M1807.79 1513.66 Q1813.6 1513.66 1816.65 1518.27 Q1819.73 1522.85 1819.73 1531.6 Q1819.73 1540.33 1816.65 1544.94 Q1813.6 1549.52 1807.79 1549.52 Q1801.98 1549.52 1798.9 1544.94 Q1795.84 1540.33 1795.84 1531.6 Q1795.84 1522.85 1798.9 1518.27 Q1801.98 1513.66 1807.79 1513.66 Z" fill="#000000" fill-rule="nonzero" fill-opacity="1" /><path clip-path="url(#clip380)" d="M2235.76 1544.91 L2243.4 1544.91 L2243.4 1518.55 L2235.09 1520.21 L2235.09 1515.95 L2243.35 1514.29 L2248.02 1514.29 L2248.02 1544.91 L2255.66 1544.91 L2255.66 1548.85 L2235.76 1548.85 L2235.76 1544.91 Z" fill="#000000" fill-rule="nonzero" fill-opacity="1" /><path clip-path="url(#clip380)" d="M2275.11 1517.37 Q2271.5 1517.37 2269.67 1520.93 Q2267.86 1524.47 2267.86 1531.6 Q2267.86 1538.71 2269.67 1542.27 Q2271.5 1545.82 2275.11 1545.82 Q2278.74 1545.82 2280.55 1542.27 Q2282.38 1538.71 2282.38 1531.6 Q2282.38 1524.47 2280.55 1520.93 Q2278.74 1517.37 2275.11 1517.37 M2275.11 1513.66 Q2280.92 1513.66 2283.97 1518.27 Q2287.05 1522.85 2287.05 1531.6 Q2287.05 1540.33 2283.97 1544.94 Q2280.92 1549.52 2275.11 1549.52 Q2269.3 1549.52 2266.22 1544.94 Q2263.16 1540.33 2263.16 1531.6 Q2263.16 1522.85 2266.22 1518.27 Q2269.3 1513.66 2275.11 1513.66 Z" fill="#000000" fill-rule="nonzero" fill-opacity="1" /><path clip-path="url(#clip380)" d="M2305.27 1517.37 Q2301.66 1517.37 2299.83 1520.93 Q2298.02 1524.47 2298.02 1531.6 Q2298.02 1538.71 2299.83 1542.27 Q2301.66 1545.82 2305.27 1545.82 Q2308.9 1545.82 2310.71 1542.27 Q2312.54 1538.71 2312.54 1531.6 Q2312.54 1524.47 2310.71 1520.93 Q2308.9 1517.37 2305.27 1517.37 M2305.27 1513.66 Q2311.08 1513.66 2314.14 1518.27 Q2317.21 1522.85 2317.21 1531.6 Q2317.21 1540.33 2314.14 1544.94 Q2311.08 1549.52 2305.27 1549.52 Q2299.46 1549.52 2296.38 1544.94 Q2293.33 1540.33 2293.33 1531.6 Q2293.33 1522.85 2296.38 1518.27 Q2299.46 1513.66 2305.27 1513.66 Z" fill="#000000" fill-rule="nonzero" fill-opacity="1" /><path clip-path="url(#clip380)" d="M2335.43 1517.37 Q2331.82 1517.37 2329.99 1520.93 Q2328.19 1524.47 2328.19 1531.6 Q2328.19 1538.71 2329.99 1542.27 Q2331.82 1545.82 2335.43 1545.82 Q2339.07 1545.82 2340.87 1542.27 Q2342.7 1538.71 2342.7 1531.6 Q2342.7 1524.47 2340.87 1520.93 Q2339.07 1517.37 2335.43 1517.37 M2335.43 1513.66 Q2341.24 1513.66 2344.3 1518.27 Q2347.38 1522.85 2347.38 1531.6 Q2347.38 1540.33 2344.3 1544.94 Q2341.24 1549.52 2335.43 1549.52 Q2329.62 1549.52 2326.54 1544.94 Q2323.49 1540.33 2323.49 1531.6 Q2323.49 1522.85 2326.54 1518.27 Q2329.62 1513.66 2335.43 1513.66 Z" fill="#000000" fill-rule="nonzero" fill-opacity="1" /><polyline clip-path="url(#clip380)" style="stroke:#000000; stroke-linecap:round; stroke-linejoin:round; stroke-width:4; stroke-opacity:1; fill:none" points="178.867,1486.45 178.867,847.244 "/>
<polyline clip-path="url(#clip380)" style="stroke:#000000; stroke-linecap:round; stroke-linejoin:round; stroke-width:4; stroke-opacity:1; fill:none" points="178.867,1486.45 197.764,1486.45 "/>
<polyline clip-path="url(#clip380)" style="stroke:#000000; stroke-linecap:round; stroke-linejoin:round; stroke-width:4; stroke-opacity:1; fill:none" points="178.867,1326.65 197.764,1326.65 "/>
<polyline clip-path="url(#clip380)" style="stroke:#000000; stroke-linecap:round; stroke-linejoin:round; stroke-width:4; stroke-opacity:1; fill:none" points="178.867,1166.85 197.764,1166.85 "/>
<polyline clip-path="url(#clip380)" style="stroke:#000000; stroke-linecap:round; stroke-linejoin:round; stroke-width:4; stroke-opacity:1; fill:none" points="178.867,1007.05 197.764,1007.05 "/>
<polyline clip-path="url(#clip380)" style="stroke:#000000; stroke-linecap:round; stroke-linejoin:round; stroke-width:4; stroke-opacity:1; fill:none" points="178.867,847.244 197.764,847.244 "/>
<path clip-path="url(#clip380)" d="M50.9921 1486.9 L80.6679 1486.9 L80.6679 1490.83 L50.9921 1490.83 L50.9921 1486.9 Z" fill="#000000" fill-rule="nonzero" fill-opacity="1" /><path clip-path="url(#clip380)" d="M91.5706 1499.79 L99.2095 1499.79 L99.2095 1473.43 L90.8993 1475.09 L90.8993 1470.83 L99.1632 1469.17 L103.839 1469.17 L103.839 1499.79 L111.478 1499.79 L111.478 1503.73 L91.5706 1503.73 L91.5706 1499.79 Z" fill="#000000" fill-rule="nonzero" fill-opacity="1" /><path clip-path="url(#clip380)" d="M130.922 1472.25 Q127.311 1472.25 125.482 1475.81 Q123.677 1479.35 123.677 1486.48 Q123.677 1493.59 125.482 1497.15 Q127.311 1500.7 130.922 1500.7 Q134.556 1500.7 136.362 1497.15 Q138.191 1493.59 138.191 1486.48 Q138.191 1479.35 136.362 1475.81 Q134.556 1472.25 130.922 1472.25 M130.922 1468.54 Q136.732 1468.54 139.788 1473.15 Q142.867 1477.73 142.867 1486.48 Q142.867 1495.21 139.788 1499.82 Q136.732 1504.4 130.922 1504.4 Q125.112 1504.4 122.033 1499.82 Q118.978 1495.21 118.978 1486.48 Q118.978 1477.73 122.033 1473.15 Q125.112 1468.54 130.922 1468.54 Z" fill="#000000" fill-rule="nonzero" fill-opacity="1" /><path clip-path="url(#clip380)" d="M82.1494 1327.1 L111.825 1327.1 L111.825 1331.03 L82.1494 1331.03 L82.1494 1327.1 Z" fill="#000000" fill-rule="nonzero" fill-opacity="1" /><path clip-path="url(#clip380)" d="M121.964 1309.37 L140.32 1309.37 L140.32 1313.3 L126.246 1313.3 L126.246 1321.77 Q127.265 1321.43 128.283 1321.27 Q129.302 1321.08 130.32 1321.08 Q136.107 1321.08 139.487 1324.25 Q142.867 1327.42 142.867 1332.84 Q142.867 1338.42 139.394 1341.52 Q135.922 1344.6 129.603 1344.6 Q127.427 1344.6 125.158 1344.23 Q122.913 1343.86 120.506 1343.12 L120.506 1338.42 Q122.589 1339.55 124.811 1340.11 Q127.033 1340.66 129.51 1340.66 Q133.515 1340.66 135.853 1338.56 Q138.191 1336.45 138.191 1332.84 Q138.191 1329.23 135.853 1327.12 Q133.515 1325.01 129.51 1325.01 Q127.635 1325.01 125.76 1325.43 Q123.908 1325.85 121.964 1326.73 L121.964 1309.37 Z" fill="#000000" fill-rule="nonzero" fill-opacity="1" /><path clip-path="url(#clip380)" d="M130.922 1152.64 Q127.311 1152.64 125.482 1156.21 Q123.677 1159.75 123.677 1166.88 Q123.677 1173.99 125.482 1177.55 Q127.311 1181.09 130.922 1181.09 Q134.556 1181.09 136.362 1177.55 Q138.191 1173.99 138.191 1166.88 Q138.191 1159.75 136.362 1156.21 Q134.556 1152.64 130.922 1152.64 M130.922 1148.94 Q136.732 1148.94 139.788 1153.55 Q142.867 1158.13 142.867 1166.88 Q142.867 1175.61 139.788 1180.21 Q136.732 1184.8 130.922 1184.8 Q125.112 1184.8 122.033 1180.21 Q118.978 1175.61 118.978 1166.88 Q118.978 1158.13 122.033 1153.55 Q125.112 1148.94 130.922 1148.94 Z" fill="#000000" fill-rule="nonzero" fill-opacity="1" /><path clip-path="url(#clip380)" d="M121.964 989.765 L140.32 989.765 L140.32 993.7 L126.246 993.7 L126.246 1002.17 Q127.265 1001.83 128.283 1001.66 Q129.302 1001.48 130.32 1001.48 Q136.107 1001.48 139.487 1004.65 Q142.867 1007.82 142.867 1013.24 Q142.867 1018.82 139.394 1021.92 Q135.922 1025 129.603 1025 Q127.427 1025 125.158 1024.63 Q122.913 1024.26 120.506 1023.51 L120.506 1018.82 Q122.589 1019.95 124.811 1020.51 Q127.033 1021.06 129.51 1021.06 Q133.515 1021.06 135.853 1018.95 Q138.191 1016.85 138.191 1013.24 Q138.191 1009.63 135.853 1007.52 Q133.515 1005.41 129.51 1005.41 Q127.635 1005.41 125.76 1005.83 Q123.908 1006.25 121.964 1007.13 L121.964 989.765 Z" fill="#000000" fill-rule="nonzero" fill-opacity="1" /><path clip-path="url(#clip380)" d="M91.5706 860.589 L99.2095 860.589 L99.2095 834.223 L90.8993 835.89 L90.8993 831.631 L99.1632 829.964 L103.839 829.964 L103.839 860.589 L111.478 860.589 L111.478 864.524 L91.5706 864.524 L91.5706 860.589 Z" fill="#000000" fill-rule="nonzero" fill-opacity="1" /><path clip-path="url(#clip380)" d="M130.922 833.043 Q127.311 833.043 125.482 836.608 Q123.677 840.149 123.677 847.279 Q123.677 854.385 125.482 857.95 Q127.311 861.492 130.922 861.492 Q134.556 861.492 136.362 857.95 Q138.191 854.385 138.191 847.279 Q138.191 840.149 136.362 836.608 Q134.556 833.043 130.922 833.043 M130.922 829.339 Q136.732 829.339 139.788 833.946 Q142.867 838.529 142.867 847.279 Q142.867 856.006 139.788 860.612 Q136.732 865.195 130.922 865.195 Q125.112 865.195 122.033 860.612 Q118.978 856.006 118.978 847.279 Q118.978 838.529 122.033 833.946 Q125.112 829.339 130.922 829.339 Z" fill="#000000" fill-rule="nonzero" fill-opacity="1" /><polyline clip-path="url(#clip383)" style="stroke:#009af9; stroke-linecap:round; stroke-linejoin:round; stroke-width:4; stroke-opacity:1; fill:none" points="240.392,1134.89 242.445,1145.24 244.498,1152.26 246.55,1146.98 248.603,1151.56 250.656,1123.09 252.709,1320.5 254.762,611.542 256.815,1382.14 258.868,1065.65 260.921,1174.24 262.974,1022.52 265.027,1151.82 267.079,1176.67 269.132,1327.84 271.185,1174.2 273.238,1251.73 275.291,1185.6 277.344,1186.32 279.397,1173.77 281.45,1143.26 283.503,1170.8 285.555,1161.05 287.608,1163.63 289.661,1207.67 291.714,1179.01 293.767,1147.67 295.82,1149.32 297.873,1204.76 299.926,1152.9 301.979,1148.87 304.031,1192.18 306.084,1020.94 308.137,1174.71 310.19,1163.9 312.243,1170.89 314.296,1192.44 316.349,1198.05 318.402,1172.03 320.455,1145.07 322.507,1100.23 324.56,1208.96 326.613,1218.66 328.666,1228.04 330.719,1178.25 332.772,1178.55 334.825,1111.74 336.878,1246.22 338.931,1150.6 340.984,1138.98 343.036,1151.67 345.089,1188.46 347.142,1101.85 349.195,1102.47 351.248,1252.82 353.301,1174.47 355.354,1195.94 357.407,1142.59 359.46,1164.64 361.512,1163.01 363.565,1167.08 365.618,1166.12 367.671,1165.47 369.724,1183.54 371.777,1206.36 373.83,1136.41 375.883,1187.65 377.936,1148.2 379.988,1164.93 382.041,1178.76 384.094,1153.43 386.147,1147.15 388.2,1201.6 390.253,1190.18 392.306,1148.8 394.359,1153.26 396.412,1195.09 398.464,1186.01 400.517,1149.36 402.57,1085.39 404.623,1151.2 406.676,1127.38 408.729,1182.43 410.782,1152.04 412.835,1077.25 414.888,1182.17 416.94,1125.14 418.993,1178.6 421.046,1165.33 423.099,1145.89 425.152,1153.34 427.205,1189.39 429.258,1181 431.311,1048.3 433.364,1256.4 435.417,971.619 437.469,1545.19 439.522,1217.31 441.575,1106.9 443.628,1517.76 445.681,1181.37 447.734,1147.48 449.787,1209.38 451.84,1154.1 453.893,1240.94 455.945,1324.93 457.998,1191.45 460.051,1198.81 462.104,1211.66 464.157,1090.28 466.21,1120.35 468.263,1148.86 470.316,1185.96 472.369,1175.09 474.421,1133.1 476.474,1098.5 478.527,1147.97 480.58,1189.88 482.633,1147.03 484.686,1148.99 486.739,1221.25 488.792,1114.17 490.845,1172.81 492.897,1136.76 494.95,1150.08 497.003,1177.19 499.056,1155.19 501.109,1159.53 503.162,1174.29 505.215,1131.7 507.268,1122.41 509.321,1156.14 511.374,1212.9 513.426,1250.05 515.479,1206.45 517.532,1070.61 519.585,1209.19 521.638,1164.26 523.691,1168.12 525.744,896.397 527.797,1449.48 529.85,1347.57 531.902,1341.08 533.955,1031.51 536.008,1267.88 538.061,1268.63 540.114,734.664 542.167,1042.59 544.22,1137.7 546.273,1118.12 548.326,1178.19 550.378,1220.54 552.431,1187.35 554.484,1237.38 556.537,1236.48 558.59,1116.88 560.643,1161.48 562.696,1179.27 564.749,1163.87 566.802,1171.6 568.854,1149.44 570.907,1177.41 572.96,1193.49 575.013,1180.34 577.066,1205.7 579.119,1168.9 581.172,1154.93 583.225,1245.72 585.278,1073 587.331,819.571 589.383,1133.15 591.436,1186.47 593.489,1155.6 595.542,1166.04 597.595,1166.64 599.648,1163.69 601.701,1074.22 603.754,1225.55 605.807,1217.13 607.859,1146.17 609.912,1152.3 611.965,1216.34 614.018,1084.36 616.071,1330.36 618.124,1079.55 620.177,1204.89 622.23,1207.34 624.283,1201.42 626.335,1206.52 628.388,1202.52 630.441,1154.68 632.494,1180.45 634.547,1124.66 636.6,1194.75 638.653,1171.38 640.706,1163.74 642.759,1168.12 644.811,1163.16 646.864,1156.34 648.917,1141.16 650.97,1141.67 653.023,1186.09 655.076,1133.3 657.129,1209.75 659.182,1164.12 661.235,1116.88 663.288,1194.18 665.34,1131.06 667.393,986.795 669.446,1091.79 671.499,1201.23 673.552,1224.25 675.605,1098.93 677.658,1222.05 679.711,1153.05 681.764,1227.09 683.816,1155.64 685.869,1165.29 687.922,1161.86 689.975,1158.21 692.028,1196.2 694.081,1177.84 696.134,1130.09 698.187,1202.43 700.24,1204.79 702.292,1178.17 704.345,1174.78 706.398,1135.34 708.451,1177.88 710.504,1157.93 712.557,1189.65 714.61,1160.28 716.663,1076.08 718.716,1276.77 720.768,965.211 722.821,1184.11 724.874,1162.39 726.927,1191.36 728.98,1091.55 731.033,1159.94 733.086,1048.42 735.139,1106.96 737.192,1192.56 739.245,1193.3 741.297,1151.5 743.35,1190.34 745.403,1144.45 747.456,1205.45 749.509,1110.49 751.562,1086.01 753.615,1139.63 755.668,1199.37 757.721,1146.85 759.773,1149.84 761.826,1180.81 763.879,1124.94 765.932,1203.15 767.985,1110.72 770.038,1180.12 772.091,1143.93 774.144,1174.14 776.197,1174.82 778.249,1171.7 780.302,1179.33 782.355,1265.61 784.408,1085.13 786.461,1194.99 788.514,1190.86 790.567,1103.53 792.62,1200.58 794.673,1128.47 796.725,1176.34 798.778,1174.5 800.831,1171.42 802.884,1252.7 804.937,1206.21 806.99,1305.61 809.043,1056.22 811.096,1252.04 813.149,1104.66 815.202,1231.3 817.254,1109.02 819.307,1131.9 821.36,1161.95 823.413,1160.29 825.466,1174.26 827.519,1178.38 829.572,1201.35 831.625,1262.63 833.678,1224.83 835.73,1230.5 837.783,1157.02 839.836,1160.87 841.889,1190.05 843.942,1197.81 845.995,1176.52 848.048,1406.72 850.101,1204.35 852.154,1105.29 854.206,1205.35 856.259,1122.87 858.312,1183.73 860.365,1183.29 862.418,1142.98 864.471,1143.15 866.524,1274.98 868.577,1122.95 870.63,1253.2 872.682,1177.76 874.735,1188.81 876.788,1140.17 878.841,1191.68 880.894,1065.84 882.947,980.465 885,1276.36 887.053,1244.01 889.106,1140.52 891.159,1216.94 893.211,1196.81 895.264,1170.31 897.317,1163.84 899.37,1234.06 901.423,1019.9 903.476,786.261 905.529,943.756 907.582,1187.26 909.635,1184.8 911.687,1136.74 913.74,1149.82 915.793,1025.26 917.846,1117.45 919.899,1226.41 921.952,1171.66 924.005,1160.59 926.058,1139.98 928.111,1200.2 930.163,1187.91 932.216,1128.77 934.269,1242.18 936.322,1132.02 938.375,1146.14 940.428,1181.92 942.481,1170.5 944.534,1174.18 946.587,1182.05 948.639,1178.64 950.692,1135.48 952.745,1246.16 954.798,1084.44 956.851,1156.26 958.904,1171.71 960.957,1094.75 963.01,1095.64 965.063,1129.75 967.116,1173.15 969.168,1149.52 971.221,1139.72 973.274,1161.06 975.327,1239.39 977.38,1124.91 979.433,1213.25 981.486,1121.75 983.539,1148.19 985.592,1176.84 987.644,1167.96 989.697,1158.41 991.75,1096.28 993.803,1213.45 995.856,980.172 997.909,1139.19 999.962,1275.94 1002.01,1227.94 1004.07,1105.01 1006.12,1206.56 1008.17,1131.3 1010.23,1152.69 1012.28,1174.54 1014.33,1198.1 1016.38,1172.67 1018.44,1170.3 1020.49,1141.57 1022.54,1159.87 1024.6,1153.6 1026.65,1150.07 1028.7,1117.97 1030.76,1158.13 1032.81,1130.8 1034.86,1174.82 1036.91,1177.79 1038.97,1191.48 1041.02,1124.62 1043.07,1185.42 1045.13,1156.19 1047.18,1101.73 1049.23,1378.02 1051.28,1421.61 1053.34,1112.88 1055.39,1679.72 1057.44,236.463 1059.5,1503.38 1061.55,474.29 1063.6,656.774 1065.65,1310.74 1067.71,1372.55 1069.76,1113.75 1071.81,1242.55 1073.87,1146.52 1075.92,1224.86 1077.97,1234.22 1080.02,1170.73 1082.08,1159.77 1084.13,1175.16 1086.18,1153.57 1088.24,1127.89 1090.29,1184.65 1092.34,1144.46 1094.39,1163.87 1096.45,1129.58 1098.5,1149.2 1100.55,1171.88 1102.61,1165.39 1104.66,1216.68 1106.71,1207.31 1108.77,1084.51 1110.82,1269.38 1112.87,1246.71 1114.92,1065.68 1116.98,1206.49 1119.03,1240.9 1121.08,1195.27 1123.14,1098.21 1125.19,1217.43 1127.24,1123.75 1129.29,1155.93 1131.35,1148.65 1133.4,1157.12 1135.45,1145.13 1137.51,1134.22 1139.56,1142.47 1141.61,1187.75 1143.66,1059.35 1145.72,1171.94 1147.77,1176.39 1149.82,1164.01 1151.88,1091.17 1153.93,1176.56 1155.98,1243.62 1158.03,1114.84 1160.09,1218.49 1162.14,1286.34 1164.19,1193.18 1166.25,1104.95 1168.3,1121.16 1170.35,1169.89 1172.4,1165.27 1174.46,1159.57 1176.51,1205.59 1178.56,1186.82 1180.62,1165.48 1182.67,1208.34 1184.72,1143.25 1186.77,1160.48 1188.83,1160.41 1190.88,1175.52 1192.93,1156.57 1194.99,1166.44 1197.04,1166.77 1199.09,1171.33 1201.15,1172.34 1203.2,1175.42 1205.25,1146.84 1207.3,1156.97 1209.36,1366.26 1211.41,1279.89 1213.46,998.318 1215.52,1134.25 1217.57,1181.17 1219.62,1175.94 1221.67,1173.35 1223.73,1164.16 1225.78,1164.11 1227.83,1177.65 1229.89,1120.81 1231.94,1191.53 1233.99,1193.97 1236.04,1150.03 1238.1,1180.84 1240.15,1295.9 1242.2,1199.2 1244.26,1149.83 1246.31,1199.46 1248.36,1141.4 1250.41,1017.54 1252.47,1205.52 1254.52,1130.83 1256.57,1187.49 1258.63,1175.89 1260.68,1035.8 1262.73,1286.57 1264.78,1159.77 1266.84,1139.63 1268.89,1101.1 1270.94,1141.5 1273,1070.84 1275.05,998.205 1277.1,1086.08 1279.16,1173.44 1281.21,1175.49 1283.26,1183.59 1285.31,1188.89 1287.37,1179.7 1289.42,-1411.12 1291.47,1232.34 1293.53,1087.15 1295.58,1168.54 1297.63,1178.09 1299.68,1200.53 1301.74,1096.99 1303.79,1122.05 1305.84,1119.91 1307.9,963.456 1309.95,941.895 1312,950.54 1314.05,1149.35 1316.11,1173.06 1318.16,1194.49 1320.21,1184.68 1322.27,1104.68 1324.32,1136.34 1326.37,1148.77 1328.42,1296.28 1330.48,885.581 1332.53,1202.68 1334.58,1165.92 1336.64,1176.19 1338.69,1228.05 1340.74,1192.82 1342.79,1164.88 1344.85,1182.32 1346.9,1177.83 1348.95,1237.34 1351.01,1171.31 1353.06,1105.23 1355.11,1174.8 1357.16,1166.97 1359.22,1208.73 1361.27,1099.23 1363.32,1238.57 1365.38,1157.16 1367.43,1205.79 1369.48,1145.47 1371.54,1087.24 1373.59,1188.22 1375.64,1189.8 1377.69,1111.31 1379.75,1149.85 1381.8,1164.07 1383.85,1165.72 1385.91,1142.98 1387.96,1138.09 1390.01,1131.6 1392.06,1002.78 1394.12,1530.27 1396.17,1552.01 1398.22,895.22 1400.28,633.741 1402.33,1693.35 1404.38,28.2619 1406.43,1178.08 1408.49,1541.34 1410.54,246.857 1412.59,291.833 1414.65,1162.5 1416.7,1177.06 1418.75,1174.97 1420.8,1163.62 1422.86,1220.55 1424.91,1134.98 1426.96,1211.6 1429.02,1088.52 1431.07,1172.8 1433.12,1218.2 1435.17,1111.95 1437.23,1158.57 1439.28,1252.12 1441.33,1228.85 1443.39,1113.82 1445.44,1129.27 1447.49,1107.92 1449.55,1172.14 1451.6,1171.84 1453.65,1196.94 1455.7,1281.59 1457.76,1191.6 1459.81,1135.22 1461.86,1221.98 1463.92,1195.65 1465.97,1228.89 1468.02,1146.32 1470.07,1138.57 1472.13,1144.27 1474.18,1191.02 1476.23,1099.5 1478.29,1161.18 1480.34,1178.08 1482.39,1166.5 1484.44,1165.29 1486.5,1150.62 1488.55,1185.03 1490.6,1192.48 1492.66,1234.11 1494.71,705.568 1496.76,1111.13 1498.81,1199.44 1500.87,1098.09 1502.92,1258.21 1504.97,1599.85 1507.03,682.19 1509.08,146.51 1511.13,1791.14 1513.18,945.225 1515.24,1245.22 1517.29,1177.56 1519.34,1194.66 1521.4,1096.4 1523.45,1091.19 1525.5,1293.63 1527.55,1194.47 1529.61,1321.21 1531.66,1275.12 1533.71,1155.17 1535.77,1182.66 1537.82,1143.52 1539.87,1116.09 1541.93,1223.56 1543.98,1243.06 1546.03,1133.34 1548.08,1195.22 1550.14,1100.12 1552.19,1002.88 1554.24,1132.52 1556.3,1161.72 1558.35,1046.98 1560.4,1091.6 1562.45,1162.72 1564.51,1178.9 1566.56,1172.21 1568.61,1167.9 1570.67,1201.9 1572.72,1230.04 1574.77,1132.91 1576.82,1201.33 1578.88,1201.23 1580.93,1153.85 1582.98,1148.65 1585.04,1203.31 1587.09,1160.64 1589.14,1150.68 1591.19,1163.19 1593.25,1163.42 1595.3,1162.42 1597.35,1225.76 1599.41,1233.98 1601.46,1125.99 1603.51,1193.6 1605.56,1165.19 1607.62,1188.85 1609.67,1138.23 1611.72,1226.49 1613.78,1211.21 1615.83,1153.06 1617.88,1152.46 1619.94,1195.26 1621.99,1184.11 1624.04,1182.95 1626.09,-8520.43 1628.15,5773.81 1630.2,6318.88 1632.25,151.371 1634.31,987.651 1636.36,2252.94 1638.41,481.955 1640.46,917.523 1642.52,806.034 1644.57,1096.67 1646.62,1131.45 1648.68,1160.52 1650.73,1167.24 1652.78,1140.49 1654.83,1208.84 1656.89,1191.25 1658.94,1156.21 1660.99,1150.87 1663.05,1109.21 1665.1,1134.68 1667.15,1225.4 1669.2,1177.35 1671.26,1172.36 1673.31,1271.01 1675.36,871.017 1677.42,1211.1 1679.47,1155.61 1681.52,1161 1683.57,1173.1 1685.63,1153.55 1687.68,1158.93 1689.73,1209.76 1691.79,1231.33 1693.84,1130.85 1695.89,1138.91 1697.94,1162.77 1700,1179.11 1702.05,1244.01 1704.1,1271.18 1706.16,1127.1 1708.21,1155.26 1710.26,1118.68 1712.32,1181.3 1714.37,1173.26 1716.42,1313.17 1718.47,1202.1 1720.53,1131.43 1722.58,1152.44 1724.63,1180.29 1726.69,1164.19 1728.74,1157.21 1730.79,1152.88 1732.84,1060.91 1734.9,1193.94 1736.95,1150.55 1739,1178.59 1741.06,1124.31 1743.11,1207.61 1745.16,1057.26 1747.21,1260.56 1749.27,2857.19 1751.32,2265.77 1753.37,-15.4038 1755.43,-30.2559 1757.48,1148.39 1759.53,1122.76 1761.58,1149.73 1763.64,1150.67 1765.69,1099.14 1767.74,1132.69 1769.8,1135.92 1771.85,1190.37 1773.9,1179.06 1775.95,1167.88 1778.01,1169.35 1780.06,1147.74 1782.11,1182.35 1784.17,1116.56 1786.22,837.35 1788.27,1162.33 1790.33,1163.89 1792.38,1174.82 1794.43,1059.4 1796.48,947.122 1798.54,1094.21 1800.59,1010.01 1802.64,1248.4 1804.7,1028.74 1806.75,1182.75 1808.8,1164.8 1810.85,1170.16 1812.91,1195.92 1814.96,1122.1 1817.01,1295.36 1819.07,1033.22 1821.12,1160.24 1823.17,1186.75 1825.22,1185.6 1827.28,1161.56 1829.33,1179.72 1831.38,1164.82 1833.44,1171.25 1835.49,1164.29 1837.54,1170.84 1839.59,1173.91 1841.65,1146.17 1843.7,1063.72 1845.75,1196.03 1847.81,1117.96 1849.86,1135.82 1851.91,1174.42 1853.96,1160.98 1856.02,1158.93 1858.07,1193.79 1860.12,1175.59 1862.18,1169.3 1864.23,1148.38 1866.28,1369.53 1868.34,1245.21 1870.39,1094.71 1872.44,1182.54 1874.49,1137.56 1876.55,1113.12 1878.6,1132.09 1880.65,1148.13 1882.71,1163.54 1884.76,1158.58 1886.81,1180.82 1888.86,1159.63 1890.92,1171.95 1892.97,1186.17 1895.02,1023.08 1897.08,1240.66 1899.13,1107.31 1901.18,1182.73 1903.23,1139.8 1905.29,1137.4 1907.34,1058.68 1909.39,1275.8 1911.45,1129.94 1913.5,1118.82 1915.55,1209.83 1917.6,1173.46 1919.66,1171.15 1921.71,1248.39 1923.76,1234.02 1925.82,1121.17 1927.87,1154.95 1929.92,1138.08 1931.97,1200.07 1934.03,1200.06 1936.08,1210.98 1938.13,1131.53 1940.19,1180.54 1942.24,1142.56 1944.29,1155.63 1946.34,1178.09 1948.4,1150.41 1950.45,1157.18 1952.5,1168.57 1954.56,1195.33 1956.61,1315.22 1958.66,-543.283 1960.72,884.318 1962.77,858.738 1964.82,1175.48 1966.87,1153.22 1968.93,1397.18 1970.98,976.696 1973.03,1238.77 1975.09,1135.21 1977.14,1141.74 1979.19,1144.38 1981.24,1143.88 1983.3,1184.62 1985.35,1150.73 1987.4,1160.41 1989.46,1162.6 1991.51,1162.81 1993.56,1119.92 1995.61,889.975 1997.67,1464.3 1999.72,1496.46 2001.77,462.224 2003.83,899.143 2005.88,1364.29 2007.93,1140.82 2009.98,1161.7 2012.04,1215.58 2014.09,1153.62 2016.14,1139.83 2018.2,1155.85 2020.25,1127.88 2022.3,1194.46 2024.35,1150.66 2026.41,1149.9 2028.46,1207.92 2030.51,1147.22 2032.57,1148.34 2034.62,1181.37 2036.67,1190.13 2038.73,1165.84 2040.78,1162.04 2042.83,1193.42 2044.88,1186.9 2046.94,1158.78 2048.99,1158.47 2051.04,1174.91 2053.1,1142.4 2055.15,1168.02 2057.2,1169.86 2059.25,1151.14 2061.31,1174.04 2063.36,1228.37 2065.41,1210.28 2067.47,1141.76 2069.52,1269.91 2071.57,1081.03 2073.62,1064.1 2075.68,1160.79 2077.73,1124.56 2079.78,1096.74 2081.84,1165.73 2083.89,1077.64 2085.94,1176.35 2087.99,1125.74 2090.05,1160.29 2092.1,1158.46 2094.15,1167.09 2096.21,1156.55 2098.26,1158.94 2100.31,1173.88 2102.36,1093.23 2104.42,1267.42 2106.47,1151.59 2108.52,1234.93 2110.58,1246.48 2112.63,1127.94 2114.68,1184.69 2116.73,1126.2 2118.79,1180.9 2120.84,1215.11 2122.89,1246.05 2124.95,1055.52 2127,1247.2 2129.05,989.613 2131.11,1237.81 2133.16,1205.11 2135.21,1153.27 2137.26,1131.37 2139.32,1238.72 2141.37,1220.37 2143.42,1160.27 2145.48,1179.17 2147.53,1177.82 2149.58,1145.43 2151.63,1155.11 2153.69,1167.11 2155.74,1165.53 2157.79,1152.3 2159.85,1145.84 2161.9,1155.95 2163.95,1074.86 2166,1265.26 2168.06,1206.95 2170.11,1117.22 2172.16,1163.1 2174.22,1150.92 2176.27,1124.95 2178.32,1197.32 2180.37,1194.84 2182.43,1129 2184.48,1162.02 2186.53,1174.2 2188.59,1178.27 2190.64,1179.19 2192.69,1139.97 2194.74,1171.27 2196.8,1149.52 2198.85,1179.39 2200.9,1138.48 2202.96,1144.71 2205.01,1113.1 2207.06,1165.99 2209.12,1167.31 2211.17,1172.71 2213.22,1145.11 2215.27,1231.56 2217.33,1099.82 2219.38,1102.12 2221.43,1221.55 2223.49,1069.19 2225.54,1111.89 2227.59,1322.36 2229.64,1212.87 2231.7,1221.19 2233.75,1180.63 2235.8,1221.88 2237.86,1189.37 2239.91,1164.05 2241.96,1156.15 2244.01,1158.14 2246.07,1147.97 2248.12,1153.02 2250.17,1173.42 2252.23,1212.08 2254.28,1184.8 2256.33,1165.19 2258.38,1203.11 2260.44,1125.03 2262.49,1152.88 2264.54,1135.88 2266.6,1204.74 2268.65,1269.09 2270.7,1116.01 2272.75,1183.78 2274.81,1126.46 2276.86,1147.51 2278.91,1176.8 2280.97,1180.53 2283.02,1152.67 2285.07,1151.37 2287.12,1146.62 2289.18,1184.91 2291.23,1168.04 "/>
<path clip-path="url(#clip380)" d="M251.33 972.231 L588.926 972.231 L588.926 868.551 L251.33 868.551  Z" fill="#ffffff" fill-rule="evenodd" fill-opacity="1"/>
<polyline clip-path="url(#clip380)" style="stroke:#000000; stroke-linecap:round; stroke-linejoin:round; stroke-width:4; stroke-opacity:1; fill:none" points="251.33,972.231 588.926,972.231 588.926,868.551 251.33,868.551 251.33,972.231 "/>
<polyline clip-path="url(#clip380)" style="stroke:#009af9; stroke-linecap:round; stroke-linejoin:round; stroke-width:4; stroke-opacity:1; fill:none" points="275.484,920.391 420.41,920.391 "/>
<path clip-path="url(#clip380)" d="M470.12 932.74 L470.12 923.458 L462.481 923.458 L462.481 919.615 L474.749 919.615 L474.749 934.453 Q472.041 936.375 468.777 937.37 Q465.513 938.342 461.809 938.342 Q453.708 938.342 449.124 933.62 Q444.564 928.875 444.564 920.426 Q444.564 911.953 449.124 907.231 Q453.708 902.486 461.809 902.486 Q465.189 902.486 468.221 903.319 Q471.277 904.153 473.846 905.773 L473.846 910.75 Q471.254 908.551 468.337 907.44 Q465.421 906.328 462.203 906.328 Q455.86 906.328 452.666 909.87 Q449.495 913.412 449.495 920.426 Q449.495 927.416 452.666 930.958 Q455.86 934.5 462.203 934.5 Q464.68 934.5 466.624 934.083 Q468.569 933.643 470.12 932.74 Z" fill="#000000" fill-rule="nonzero" fill-opacity="1" /><path clip-path="url(#clip380)" d="M487.967 906.953 L487.967 919.94 L493.846 919.94 Q497.11 919.94 498.893 918.25 Q500.675 916.56 500.675 913.435 Q500.675 910.333 498.893 908.643 Q497.11 906.953 493.846 906.953 L487.967 906.953 M483.291 903.111 L493.846 903.111 Q499.657 903.111 502.619 905.75 Q505.606 908.365 505.606 913.435 Q505.606 918.551 502.619 921.166 Q499.657 923.782 493.846 923.782 L487.967 923.782 L487.967 937.671 L483.291 937.671 L483.291 903.111 Z" fill="#000000" fill-rule="nonzero" fill-opacity="1" /><path clip-path="url(#clip380)" d="M532.596 904.245 L532.596 908.805 Q529.934 907.532 527.573 906.907 Q525.212 906.282 523.013 906.282 Q519.193 906.282 517.11 907.764 Q515.05 909.245 515.05 911.977 Q515.05 914.268 516.416 915.449 Q517.805 916.606 521.647 917.324 L524.471 917.902 Q529.703 918.898 532.179 921.421 Q534.679 923.921 534.679 928.134 Q534.679 933.157 531.3 935.75 Q527.943 938.342 521.439 938.342 Q518.985 938.342 516.207 937.787 Q513.453 937.231 510.49 936.143 L510.49 931.328 Q513.337 932.926 516.068 933.736 Q518.8 934.546 521.439 934.546 Q525.443 934.546 527.619 932.972 Q529.795 931.398 529.795 928.481 Q529.795 925.935 528.221 924.5 Q526.67 923.064 523.105 922.347 L520.258 921.791 Q515.027 920.75 512.689 918.527 Q510.351 916.305 510.351 912.347 Q510.351 907.764 513.568 905.125 Q516.809 902.486 522.48 902.486 Q524.911 902.486 527.434 902.926 Q529.957 903.366 532.596 904.245 Z" fill="#000000" fill-rule="nonzero" fill-opacity="1" /><path clip-path="url(#clip380)" d="M562.689 904.245 L562.689 908.805 Q560.027 907.532 557.665 906.907 Q555.304 906.282 553.105 906.282 Q549.286 906.282 547.203 907.764 Q545.142 909.245 545.142 911.977 Q545.142 914.268 546.508 915.449 Q547.897 916.606 551.74 917.324 L554.564 917.902 Q559.795 918.898 562.272 921.421 Q564.772 923.921 564.772 928.134 Q564.772 933.157 561.392 935.75 Q558.036 938.342 551.531 938.342 Q549.078 938.342 546.3 937.787 Q543.545 937.231 540.582 936.143 L540.582 931.328 Q543.429 932.926 546.161 933.736 Q548.892 934.546 551.531 934.546 Q555.536 934.546 557.712 932.972 Q559.888 931.398 559.888 928.481 Q559.888 925.935 558.314 924.5 Q556.763 923.064 553.198 922.347 L550.351 921.791 Q545.119 920.75 542.781 918.527 Q540.443 916.305 540.443 912.347 Q540.443 907.764 543.661 905.125 Q546.902 902.486 552.573 902.486 Q555.003 902.486 557.527 902.926 Q560.05 903.366 562.689 904.245 Z" fill="#000000" fill-rule="nonzero" fill-opacity="1" /></svg>
