<?xml version="1.0" encoding="utf-8"?>
<svg xmlns="http://www.w3.org/2000/svg" xmlns:xlink="http://www.w3.org/1999/xlink" width="600" height="400" viewBox="0 0 2400 1600">
<defs>
  <clipPath id="clip620">
    <rect x="0" y="0" width="2400" height="1600"/>
  </clipPath>
</defs>
<path clip-path="url(#clip620)" d="M0 1600 L2400 1600 L2400 0 L0 0  Z" fill="#ffffff" fill-rule="evenodd" fill-opacity="1"/>
<defs>
  <clipPath id="clip621">
    <rect x="257" y="47" width="2097" height="1377"/>
  </clipPath>
</defs>
<path clip-path="url(#clip620)" d="M178.867 686.448 L2352.76 686.448 L2352.76 47.2441 L178.867 47.2441  Z" fill="#ffffff" fill-rule="evenodd" fill-opacity="1"/>
<defs>
  <clipPath id="clip622">
    <rect x="178" y="47" width="2175" height="640"/>
  </clipPath>
</defs>
<polyline clip-path="url(#clip622)" style="stroke:#000000; stroke-linecap:round; stroke-linejoin:round; stroke-width:2; stroke-opacity:0.1; fill:none" points="238.339,686.448 238.339,47.2441 "/>
<polyline clip-path="url(#clip622)" style="stroke:#000000; stroke-linecap:round; stroke-linejoin:round; stroke-width:2; stroke-opacity:0.1; fill:none" points="751.562,686.448 751.562,47.2441 "/>
<polyline clip-path="url(#clip622)" style="stroke:#000000; stroke-linecap:round; stroke-linejoin:round; stroke-width:2; stroke-opacity:0.1; fill:none" points="1264.78,686.448 1264.78,47.2441 "/>
<polyline clip-path="url(#clip622)" style="stroke:#000000; stroke-linecap:round; stroke-linejoin:round; stroke-width:2; stroke-opacity:0.1; fill:none" points="1778.01,686.448 1778.01,47.2441 "/>
<polyline clip-path="url(#clip622)" style="stroke:#000000; stroke-linecap:round; stroke-linejoin:round; stroke-width:2; stroke-opacity:0.1; fill:none" points="2291.23,686.448 2291.23,47.2441 "/>
<polyline clip-path="url(#clip622)" style="stroke:#000000; stroke-linecap:round; stroke-linejoin:round; stroke-width:2; stroke-opacity:0.1; fill:none" points="178.867,686.448 2352.76,686.448 "/>
<polyline clip-path="url(#clip622)" style="stroke:#000000; stroke-linecap:round; stroke-linejoin:round; stroke-width:2; stroke-opacity:0.1; fill:none" points="178.867,526.647 2352.76,526.647 "/>
<polyline clip-path="url(#clip622)" style="stroke:#000000; stroke-linecap:round; stroke-linejoin:round; stroke-width:2; stroke-opacity:0.1; fill:none" points="178.867,366.846 2352.76,366.846 "/>
<polyline clip-path="url(#clip622)" style="stroke:#000000; stroke-linecap:round; stroke-linejoin:round; stroke-width:2; stroke-opacity:0.1; fill:none" points="178.867,207.045 2352.76,207.045 "/>
<polyline clip-path="url(#clip622)" style="stroke:#000000; stroke-linecap:round; stroke-linejoin:round; stroke-width:2; stroke-opacity:0.1; fill:none" points="178.867,47.2441 2352.76,47.2441 "/>
<polyline clip-path="url(#clip620)" style="stroke:#000000; stroke-linecap:round; stroke-linejoin:round; stroke-width:4; stroke-opacity:1; fill:none" points="178.867,686.448 2352.76,686.448 "/>
<polyline clip-path="url(#clip620)" style="stroke:#000000; stroke-linecap:round; stroke-linejoin:round; stroke-width:4; stroke-opacity:1; fill:none" points="238.339,686.448 238.339,667.55 "/>
<polyline clip-path="url(#clip620)" style="stroke:#000000; stroke-linecap:round; stroke-linejoin:round; stroke-width:4; stroke-opacity:1; fill:none" points="751.562,686.448 751.562,667.55 "/>
<polyline clip-path="url(#clip620)" style="stroke:#000000; stroke-linecap:round; stroke-linejoin:round; stroke-width:4; stroke-opacity:1; fill:none" points="1264.78,686.448 1264.78,667.55 "/>
<polyline clip-path="url(#clip620)" style="stroke:#000000; stroke-linecap:round; stroke-linejoin:round; stroke-width:4; stroke-opacity:1; fill:none" points="1778.01,686.448 1778.01,667.55 "/>
<polyline clip-path="url(#clip620)" style="stroke:#000000; stroke-linecap:round; stroke-linejoin:round; stroke-width:4; stroke-opacity:1; fill:none" points="2291.23,686.448 2291.23,667.55 "/>
<path clip-path="url(#clip620)" d="M238.339 717.367 Q234.728 717.367 232.899 720.931 Q231.094 724.473 231.094 731.603 Q231.094 738.709 232.899 742.274 Q234.728 745.815 238.339 745.815 Q241.973 745.815 243.779 742.274 Q245.607 738.709 245.607 731.603 Q245.607 724.473 243.779 720.931 Q241.973 717.367 238.339 717.367 M238.339 713.663 Q244.149 713.663 247.205 718.269 Q250.283 722.853 250.283 731.603 Q250.283 740.329 247.205 744.936 Q244.149 749.519 238.339 749.519 Q232.529 749.519 229.45 744.936 Q226.395 740.329 226.395 731.603 Q226.395 722.853 229.45 718.269 Q232.529 713.663 238.339 713.663 Z" fill="#000000" fill-rule="nonzero" fill-opacity="1" /><path clip-path="url(#clip620)" d="M715.254 744.913 L731.574 744.913 L731.574 748.848 L709.629 748.848 L709.629 744.913 Q712.291 742.158 716.875 737.528 Q721.481 732.876 722.662 731.533 Q724.907 729.01 725.787 727.274 Q726.689 725.515 726.689 723.825 Q726.689 721.07 724.745 719.334 Q722.824 717.598 719.722 717.598 Q717.523 717.598 715.069 718.362 Q712.638 719.126 709.861 720.677 L709.861 715.955 Q712.685 714.82 715.138 714.242 Q717.592 713.663 719.629 713.663 Q725 713.663 728.194 716.348 Q731.388 719.033 731.388 723.524 Q731.388 725.654 730.578 727.575 Q729.791 729.473 727.685 732.066 Q727.106 732.737 724.004 735.954 Q720.902 739.149 715.254 744.913 Z" fill="#000000" fill-rule="nonzero" fill-opacity="1" /><path clip-path="url(#clip620)" d="M741.435 714.288 L759.791 714.288 L759.791 718.223 L745.717 718.223 L745.717 726.695 Q746.736 726.348 747.754 726.186 Q748.773 726.001 749.791 726.001 Q755.578 726.001 758.958 729.172 Q762.337 732.343 762.337 737.76 Q762.337 743.339 758.865 746.44 Q755.393 749.519 749.073 749.519 Q746.898 749.519 744.629 749.149 Q742.384 748.778 739.976 748.038 L739.976 743.339 Q742.06 744.473 744.282 745.028 Q746.504 745.584 748.981 745.584 Q752.985 745.584 755.323 743.478 Q757.661 741.371 757.661 737.76 Q757.661 734.149 755.323 732.042 Q752.985 729.936 748.981 729.936 Q747.106 729.936 745.231 730.353 Q743.379 730.769 741.435 731.649 L741.435 714.288 Z" fill="#000000" fill-rule="nonzero" fill-opacity="1" /><path clip-path="url(#clip620)" d="M781.55 717.367 Q777.939 717.367 776.11 720.931 Q774.305 724.473 774.305 731.603 Q774.305 738.709 776.11 742.274 Q777.939 745.815 781.55 745.815 Q785.184 745.815 786.99 742.274 Q788.819 738.709 788.819 731.603 Q788.819 724.473 786.99 720.931 Q785.184 717.367 781.55 717.367 M781.55 713.663 Q787.36 713.663 790.416 718.269 Q793.495 722.853 793.495 731.603 Q793.495 740.329 790.416 744.936 Q787.36 749.519 781.55 749.519 Q775.74 749.519 772.661 744.936 Q769.606 740.329 769.606 731.603 Q769.606 722.853 772.661 718.269 Q775.74 713.663 781.55 713.663 Z" fill="#000000" fill-rule="nonzero" fill-opacity="1" /><path clip-path="url(#clip620)" d="M1224.4 714.288 L1242.76 714.288 L1242.76 718.223 L1228.69 718.223 L1228.69 726.695 Q1229.7 726.348 1230.72 726.186 Q1231.74 726.001 1232.76 726.001 Q1238.55 726.001 1241.93 729.172 Q1245.31 732.343 1245.31 737.76 Q1245.31 743.339 1241.83 746.44 Q1238.36 749.519 1232.04 749.519 Q1229.87 749.519 1227.6 749.149 Q1225.35 748.778 1222.94 748.038 L1222.94 743.339 Q1225.03 744.473 1227.25 745.028 Q1229.47 745.584 1231.95 745.584 Q1235.95 745.584 1238.29 743.478 Q1240.63 741.371 1240.63 737.76 Q1240.63 734.149 1238.29 732.042 Q1235.95 729.936 1231.95 729.936 Q1230.07 729.936 1228.2 730.353 Q1226.35 730.769 1224.4 731.649 L1224.4 714.288 Z" fill="#000000" fill-rule="nonzero" fill-opacity="1" /><path clip-path="url(#clip620)" d="M1264.52 717.367 Q1260.91 717.367 1259.08 720.931 Q1257.27 724.473 1257.27 731.603 Q1257.27 738.709 1259.08 742.274 Q1260.91 745.815 1264.52 745.815 Q1268.15 745.815 1269.96 742.274 Q1271.79 738.709 1271.79 731.603 Q1271.79 724.473 1269.96 720.931 Q1268.15 717.367 1264.52 717.367 M1264.52 713.663 Q1270.33 713.663 1273.38 718.269 Q1276.46 722.853 1276.46 731.603 Q1276.46 740.329 1273.38 744.936 Q1270.33 749.519 1264.52 749.519 Q1258.71 749.519 1255.63 744.936 Q1252.57 740.329 1252.57 731.603 Q1252.57 722.853 1255.63 718.269 Q1258.71 713.663 1264.52 713.663 Z" fill="#000000" fill-rule="nonzero" fill-opacity="1" /><path clip-path="url(#clip620)" d="M1294.68 717.367 Q1291.07 717.367 1289.24 720.931 Q1287.44 724.473 1287.44 731.603 Q1287.44 738.709 1289.24 742.274 Q1291.07 745.815 1294.68 745.815 Q1298.31 745.815 1300.12 742.274 Q1301.95 738.709 1301.95 731.603 Q1301.95 724.473 1300.12 720.931 Q1298.31 717.367 1294.68 717.367 M1294.68 713.663 Q1300.49 713.663 1303.55 718.269 Q1306.62 722.853 1306.62 731.603 Q1306.62 740.329 1303.55 744.936 Q1300.49 749.519 1294.68 749.519 Q1288.87 749.519 1285.79 744.936 Q1282.74 740.329 1282.74 731.603 Q1282.74 722.853 1285.79 718.269 Q1288.87 713.663 1294.68 713.663 Z" fill="#000000" fill-rule="nonzero" fill-opacity="1" /><path clip-path="url(#clip620)" d="M1736.28 714.288 L1758.51 714.288 L1758.51 716.279 L1745.96 748.848 L1741.08 748.848 L1752.88 718.223 L1736.28 718.223 L1736.28 714.288 Z" fill="#000000" fill-rule="nonzero" fill-opacity="1" /><path clip-path="url(#clip620)" d="M1767.67 714.288 L1786.03 714.288 L1786.03 718.223 L1771.95 718.223 L1771.95 726.695 Q1772.97 726.348 1773.99 726.186 Q1775.01 726.001 1776.03 726.001 Q1781.82 726.001 1785.2 729.172 Q1788.57 732.343 1788.57 737.76 Q1788.57 743.339 1785.1 746.44 Q1781.63 749.519 1775.31 749.519 Q1773.14 749.519 1770.87 749.149 Q1768.62 748.778 1766.21 748.038 L1766.21 743.339 Q1768.3 744.473 1770.52 745.028 Q1772.74 745.584 1775.22 745.584 Q1779.22 745.584 1781.56 743.478 Q1783.9 741.371 1783.9 737.76 Q1783.9 734.149 1781.56 732.042 Q1779.22 729.936 1775.22 729.936 Q1773.34 729.936 1771.47 730.353 Q1769.62 730.769 1767.67 731.649 L1767.67 714.288 Z" fill="#000000" fill-rule="nonzero" fill-opacity="1" /><path clip-path="url(#clip620)" d="M1807.79 717.367 Q1804.18 717.367 1802.35 720.931 Q1800.54 724.473 1800.54 731.603 Q1800.54 738.709 1802.35 742.274 Q1804.18 745.815 1807.79 745.815 Q1811.42 745.815 1813.23 742.274 Q1815.06 738.709 1815.06 731.603 Q1815.06 724.473 1813.23 720.931 Q1811.42 717.367 1807.79 717.367 M1807.79 713.663 Q1813.6 713.663 1816.65 718.269 Q1819.73 722.853 1819.73 731.603 Q1819.73 740.329 1816.65 744.936 Q1813.6 749.519 1807.79 749.519 Q1801.98 749.519 1798.9 744.936 Q1795.84 740.329 1795.84 731.603 Q1795.84 722.853 1798.9 718.269 Q1801.98 713.663 1807.79 713.663 Z" fill="#000000" fill-rule="nonzero" fill-opacity="1" /><path clip-path="url(#clip620)" d="M2235.76 744.913 L2243.4 744.913 L2243.4 718.547 L2235.09 720.214 L2235.09 715.955 L2243.35 714.288 L2248.02 714.288 L2248.02 744.913 L2255.66 744.913 L2255.66 748.848 L2235.76 748.848 L2235.76 744.913 Z" fill="#000000" fill-rule="nonzero" fill-opacity="1" /><path clip-path="url(#clip620)" d="M2275.11 717.367 Q2271.5 717.367 2269.67 720.931 Q2267.86 724.473 2267.86 731.603 Q2267.86 738.709 2269.67 742.274 Q2271.5 745.815 2275.11 745.815 Q2278.74 745.815 2280.55 742.274 Q2282.38 738.709 2282.38 731.603 Q2282.38 724.473 2280.55 720.931 Q2278.74 717.367 2275.11 717.367 M2275.11 713.663 Q2280.92 713.663 2283.97 718.269 Q2287.05 722.853 2287.05 731.603 Q2287.05 740.329 2283.97 744.936 Q2280.92 749.519 2275.11 749.519 Q2269.3 749.519 2266.22 744.936 Q2263.16 740.329 2263.16 731.603 Q2263.16 722.853 2266.22 718.269 Q2269.3 713.663 2275.11 713.663 Z" fill="#000000" fill-rule="nonzero" fill-opacity="1" /><path clip-path="url(#clip620)" d="M2305.27 717.367 Q2301.66 717.367 2299.83 720.931 Q2298.02 724.473 2298.02 731.603 Q2298.02 738.709 2299.83 742.274 Q2301.66 745.815 2305.27 745.815 Q2308.9 745.815 2310.71 742.274 Q2312.54 738.709 2312.54 731.603 Q2312.54 724.473 2310.71 720.931 Q2308.9 717.367 2305.27 717.367 M2305.27 713.663 Q2311.08 713.663 2314.14 718.269 Q2317.21 722.853 2317.21 731.603 Q2317.21 740.329 2314.14 744.936 Q2311.08 749.519 2305.27 749.519 Q2299.46 749.519 2296.38 744.936 Q2293.33 740.329 2293.33 731.603 Q2293.33 722.853 2296.38 718.269 Q2299.46 713.663 2305.27 713.663 Z" fill="#000000" fill-rule="nonzero" fill-opacity="1" /><path clip-path="url(#clip620)" d="M2335.43 717.367 Q2331.82 717.367 2329.99 720.931 Q2328.19 724.473 2328.19 731.603 Q2328.19 738.709 2329.99 742.274 Q2331.82 745.815 2335.43 745.815 Q2339.07 745.815 2340.87 742.274 Q2342.7 738.709 2342.7 731.603 Q2342.7 724.473 2340.87 720.931 Q2339.07 717.367 2335.43 717.367 M2335.43 713.663 Q2341.24 713.663 2344.3 718.269 Q2347.38 722.853 2347.38 731.603 Q2347.38 740.329 2344.3 744.936 Q2341.24 749.519 2335.43 749.519 Q2329.62 749.519 2326.54 744.936 Q2323.49 740.329 2323.49 731.603 Q2323.49 722.853 2326.54 718.269 Q2329.62 713.663 2335.43 713.663 Z" fill="#000000" fill-rule="nonzero" fill-opacity="1" /><polyline clip-path="url(#clip620)" style="stroke:#000000; stroke-linecap:round; stroke-linejoin:round; stroke-width:4; stroke-opacity:1; fill:none" points="178.867,686.448 178.867,47.2441 "/>
<polyline clip-path="url(#clip620)" style="stroke:#000000; stroke-linecap:round; stroke-linejoin:round; stroke-width:4; stroke-opacity:1; fill:none" points="178.867,686.448 197.764,686.448 "/>
<polyline clip-path="url(#clip620)" style="stroke:#000000; stroke-linecap:round; stroke-linejoin:round; stroke-width:4; stroke-opacity:1; fill:none" points="178.867,526.647 197.764,526.647 "/>
<polyline clip-path="url(#clip620)" style="stroke:#000000; stroke-linecap:round; stroke-linejoin:round; stroke-width:4; stroke-opacity:1; fill:none" points="178.867,366.846 197.764,366.846 "/>
<polyline clip-path="url(#clip620)" style="stroke:#000000; stroke-linecap:round; stroke-linejoin:round; stroke-width:4; stroke-opacity:1; fill:none" points="178.867,207.045 197.764,207.045 "/>
<polyline clip-path="url(#clip620)" style="stroke:#000000; stroke-linecap:round; stroke-linejoin:round; stroke-width:4; stroke-opacity:1; fill:none" points="178.867,47.2441 197.764,47.2441 "/>
<path clip-path="url(#clip620)" d="M50.9921 686.899 L80.6679 686.899 L80.6679 690.834 L50.9921 690.834 L50.9921 686.899 Z" fill="#000000" fill-rule="nonzero" fill-opacity="1" /><path clip-path="url(#clip620)" d="M91.5706 699.793 L99.2095 699.793 L99.2095 673.427 L90.8993 675.094 L90.8993 670.835 L99.1632 669.168 L103.839 669.168 L103.839 699.793 L111.478 699.793 L111.478 703.728 L91.5706 703.728 L91.5706 699.793 Z" fill="#000000" fill-rule="nonzero" fill-opacity="1" /><path clip-path="url(#clip620)" d="M130.922 672.247 Q127.311 672.247 125.482 675.811 Q123.677 679.353 123.677 686.483 Q123.677 693.589 125.482 697.154 Q127.311 700.695 130.922 700.695 Q134.556 700.695 136.362 697.154 Q138.191 693.589 138.191 686.483 Q138.191 679.353 136.362 675.811 Q134.556 672.247 130.922 672.247 M130.922 668.543 Q136.732 668.543 139.788 673.149 Q142.867 677.733 142.867 686.483 Q142.867 695.209 139.788 699.816 Q136.732 704.399 130.922 704.399 Q125.112 704.399 122.033 699.816 Q118.978 695.209 118.978 686.483 Q118.978 677.733 122.033 673.149 Q125.112 668.543 130.922 668.543 Z" fill="#000000" fill-rule="nonzero" fill-opacity="1" /><path clip-path="url(#clip620)" d="M82.1494 527.098 L111.825 527.098 L111.825 531.033 L82.1494 531.033 L82.1494 527.098 Z" fill="#000000" fill-rule="nonzero" fill-opacity="1" /><path clip-path="url(#clip620)" d="M121.964 509.367 L140.32 509.367 L140.32 513.302 L126.246 513.302 L126.246 521.774 Q127.265 521.427 128.283 521.265 Q129.302 521.08 130.32 521.08 Q136.107 521.08 139.487 524.251 Q142.867 527.422 142.867 532.839 Q142.867 538.418 139.394 541.52 Q135.922 544.598 129.603 544.598 Q127.427 544.598 125.158 544.228 Q122.913 543.857 120.506 543.117 L120.506 538.418 Q122.589 539.552 124.811 540.108 Q127.033 540.663 129.51 540.663 Q133.515 540.663 135.853 538.557 Q138.191 536.45 138.191 532.839 Q138.191 529.228 135.853 527.121 Q133.515 525.015 129.51 525.015 Q127.635 525.015 125.76 525.432 Q123.908 525.848 121.964 526.728 L121.964 509.367 Z" fill="#000000" fill-rule="nonzero" fill-opacity="1" /><path clip-path="url(#clip620)" d="M130.922 352.645 Q127.311 352.645 125.482 356.209 Q123.677 359.751 123.677 366.881 Q123.677 373.987 125.482 377.552 Q127.311 381.094 130.922 381.094 Q134.556 381.094 136.362 377.552 Q138.191 373.987 138.191 366.881 Q138.191 359.751 136.362 356.209 Q134.556 352.645 130.922 352.645 M130.922 348.941 Q136.732 348.941 139.788 353.547 Q142.867 358.131 142.867 366.881 Q142.867 375.608 139.788 380.214 Q136.732 384.797 130.922 384.797 Q125.112 384.797 122.033 380.214 Q118.978 375.608 118.978 366.881 Q118.978 358.131 122.033 353.547 Q125.112 348.941 130.922 348.941 Z" fill="#000000" fill-rule="nonzero" fill-opacity="1" /><path clip-path="url(#clip620)" d="M121.964 189.765 L140.32 189.765 L140.32 193.7 L126.246 193.7 L126.246 202.172 Q127.265 201.825 128.283 201.663 Q129.302 201.478 130.32 201.478 Q136.107 201.478 139.487 204.649 Q142.867 207.82 142.867 213.237 Q142.867 218.816 139.394 221.918 Q135.922 224.996 129.603 224.996 Q127.427 224.996 125.158 224.626 Q122.913 224.256 120.506 223.515 L120.506 218.816 Q122.589 219.95 124.811 220.506 Q127.033 221.061 129.51 221.061 Q133.515 221.061 135.853 218.955 Q138.191 216.848 138.191 213.237 Q138.191 209.626 135.853 207.52 Q133.515 205.413 129.51 205.413 Q127.635 205.413 125.76 205.83 Q123.908 206.246 121.964 207.126 L121.964 189.765 Z" fill="#000000" fill-rule="nonzero" fill-opacity="1" /><path clip-path="url(#clip620)" d="M91.5706 60.5889 L99.2095 60.5889 L99.2095 34.2233 L90.8993 35.89 L90.8993 31.6308 L99.1632 29.9641 L103.839 29.9641 L103.839 60.5889 L111.478 60.5889 L111.478 64.5241 L91.5706 64.5241 L91.5706 60.5889 Z" fill="#000000" fill-rule="nonzero" fill-opacity="1" /><path clip-path="url(#clip620)" d="M130.922 33.0428 Q127.311 33.0428 125.482 36.6076 Q123.677 40.1492 123.677 47.2788 Q123.677 54.3853 125.482 57.9501 Q127.311 61.4917 130.922 61.4917 Q134.556 61.4917 136.362 57.9501 Q138.191 54.3853 138.191 47.2788 Q138.191 40.1492 136.362 36.6076 Q134.556 33.0428 130.922 33.0428 M130.922 29.3391 Q136.732 29.3391 139.788 33.9456 Q142.867 38.5289 142.867 47.2788 Q142.867 56.0056 139.788 60.6121 Q136.732 65.1954 130.922 65.1954 Q125.112 65.1954 122.033 60.6121 Q118.978 56.0056 118.978 47.2788 Q118.978 38.5289 122.033 33.9456 Q125.112 29.3391 130.922 29.3391 Z" fill="#000000" fill-rule="nonzero" fill-opacity="1" /><polyline clip-path="url(#clip622)" style="stroke:#009af9; stroke-linecap:round; stroke-linejoin:round; stroke-width:4; stroke-opacity:1; fill:none" points="240.392,334.886 242.445,333.863 244.498,330.914 246.55,321.727 248.603,324.215 250.656,360.654 252.709,391.875 254.762,389.779 256.815,387.457 258.868,391 260.921,391.362 262.974,391.283 265.027,384.723 267.079,384.768 269.132,385.233 271.185,385.598 273.238,354.286 275.291,348.258 277.344,345.801 279.397,345.449 281.45,345.406 283.503,345.446 285.555,345.549 287.608,345.665 289.661,345.525 291.714,364.575 293.767,339.926 295.82,351.396 297.873,355.204 299.926,352.176 301.979,366.758 304.031,364.961 306.084,351.206 308.137,353.571 310.19,364.957 312.243,313.473 314.296,334.345 316.349,331.832 318.402,325.058 320.455,391.055 322.507,391.642 324.56,386.08 326.613,386.07 328.666,406.887 330.719,400.742 332.772,402.588 334.825,386.802 336.878,374.971 338.931,374.973 340.984,377.244 343.036,371.941 345.089,384.653 347.142,383.887 349.195,397.02 351.248,393.776 353.301,394.721 355.354,409.917 357.407,386.653 359.46,382.095 361.512,378.448 363.565,377.998 365.618,296.165 367.671,248.962 369.724,241.485 371.777,243.884 373.83,218.323 375.883,344.711 377.936,302.84 379.988,420.292 382.041,413.355 384.094,427.222 386.147,427.493 388.2,405.723 390.253,401.547 392.306,398.362 394.359,399.117 396.412,391.298 398.464,390.496 400.517,357.667 402.57,360.029 404.623,354.07 406.676,347.844 408.729,384.466 410.782,399.799 412.835,398.212 414.888,399.75 416.94,422.918 418.993,338.554 421.046,357.332 423.099,325.388 425.152,326.371 427.205,330.133 429.258,151.3 431.311,162.292 433.364,138.232 435.417,179.332 437.469,299.177 439.522,318.586 441.575,243.317 443.628,344.896 445.681,342.101 447.734,343.945 449.787,348.682 451.84,348.358 453.893,339.687 455.945,290.949 457.998,281.05 460.051,282.198 462.104,299.71 464.157,304.943 466.21,308.491 468.263,309.516 470.316,353.532 472.369,360.623 474.421,371.444 476.474,474.902 478.527,472.153 480.58,500.392 482.633,487.664 484.686,487.674 486.739,484.526 488.792,394.454 490.845,383.455 492.897,370.849 494.95,360.917 497.003,353.566 499.056,343.784 501.109,447.78 503.162,461.202 505.215,468.516 507.268,469.191 509.321,470.389 511.374,470.276 513.426,471.775 515.479,387.024 517.532,359.506 519.585,354.263 521.638,354.322 523.691,353.807 525.744,354.058 527.797,340.608 529.85,342.252 531.902,334.933 533.955,335.165 536.008,334.086 538.061,334.696 540.114,355.083 542.167,355.257 544.22,353.24 546.273,326.528 548.326,318.022 550.378,314.644 552.431,315.748 554.484,315.147 556.537,323.171 558.59,322.371 560.643,307.956 562.696,308.605 564.749,315.023 566.802,315.644 568.854,351.63 570.907,352.085 572.96,352.701 575.013,356.768 577.066,355.83 579.119,382.121 581.172,397.618 583.225,357.246 585.278,348.531 587.331,377.148 589.383,375.289 591.436,364.739 593.489,375.651 595.542,423.748 597.595,380.811 599.648,387.501 601.701,382.833 603.754,389.162 605.807,389.296 607.859,379.606 609.912,388.38 611.965,380.739 614.018,368.688 616.071,398.381 618.124,432.141 620.177,427.916 622.23,359.201 624.283,428.307 626.335,430.728 628.388,343.511 630.441,343.037 632.494,344.173 634.547,343.54 636.6,343.178 638.653,334.984 640.706,334.339 642.759,372.065 644.811,371.929 646.864,374.241 648.917,369.521 650.97,363.85 653.023,361.583 655.076,388.317 657.129,387.888 659.182,388.593 661.235,353.223 663.288,353.185 665.34,371.8 667.393,386.499 669.446,385.444 671.499,385.664 673.552,369.498 675.605,369.563 677.658,374.994 679.711,375.934 681.764,370.395 683.816,370.586 685.869,370.544 687.922,370.161 689.975,343.469 692.028,344.13 694.081,353.835 696.134,354.09 698.187,360.396 700.24,362.34 702.292,362.75 704.345,362.937 706.398,360.582 708.451,362.987 710.504,370.185 712.557,352.387 714.61,344.609 716.663,343.618 718.716,345.344 720.768,344.95 722.821,345.799 724.874,346.849 726.927,337.334 728.98,332.345 731.033,332.548 733.086,337.117 735.139,345.983 737.192,356.311 739.245,357.733 741.297,369.63 743.35,376.378 745.403,378.669 747.456,389.058 749.509,375.526 751.562,377.483 753.615,350.735 755.668,351.312 757.721,355.2 759.773,340.134 761.826,338.936 763.879,335.736 765.932,332.728 767.985,364.226 770.038,351.916 772.091,351.911 774.144,356.633 776.197,356.554 778.249,384.454 780.302,382.641 782.355,387.04 784.408,379.541 786.461,367.781 788.514,372.472 790.567,372.695 792.62,372.157 794.673,396.836 796.725,397.774 798.778,396.3 800.831,397.119 802.884,391.171 804.937,339.465 806.99,352.915 809.043,352.909 811.096,349.14 813.149,354.37 815.202,353.733 817.254,292.105 819.307,279.969 821.36,350.177 823.413,386.164 825.466,364.577 827.519,349.339 829.572,393.514 831.625,397.338 833.678,397.17 835.73,396.433 837.783,398.005 839.836,396.02 841.889,399.728 843.942,396.881 845.995,383.563 848.048,383.539 850.101,339.599 852.154,336.936 854.206,239.398 856.259,243.894 858.312,228.775 860.365,240.26 862.418,352.921 864.471,353.61 866.524,327.737 868.577,332.018 870.63,301.159 872.682,312.325 874.735,311.529 876.788,315.939 878.841,331.038 880.894,370.746 882.947,393.567 885,399.473 887.053,401.546 889.106,402.496 891.159,416.948 893.211,419.97 895.264,376.579 897.317,353.164 899.37,415.907 901.423,409.694 903.476,404.449 905.529,440.407 907.582,435.776 909.635,464.292 911.687,448.168 913.74,483.862 915.793,477.286 917.846,496.303 919.899,518.326 921.952,522.864 924.005,522.583 926.058,531.788 928.111,552.051 930.163,558.868 932.216,459.906 934.269,430.892 936.322,431.566 938.375,456.884 940.428,447.352 942.481,482.109 944.534,440.657 946.587,444.281 948.639,412.2 950.692,387.667 952.745,387.694 954.798,439.578 956.851,422.467 958.904,377.712 960.957,345.701 963.01,287.747 965.063,266.204 967.116,223.189 969.168,194.012 971.221,194.952 973.274,122.112 975.327,204.991 977.38,274.105 979.433,279.148 981.486,285.488 983.539,278.963 985.592,281.032 987.644,241.53 989.697,235.896 991.75,245.957 993.803,250.37 995.856,306.384 997.909,298.475 999.962,256.792 1002.01,273.849 1004.07,271.659 1006.12,507.887 1008.17,373.65 1010.23,334.133 1012.28,327.331 1014.33,327.329 1016.38,114.062 1018.44,105.6 1020.49,117.253 1022.54,212.48 1024.6,-1.0297 1026.65,-3.59428 1028.7,49.6495 1030.76,39.0862 1032.81,169.842 1034.86,150.16 1036.91,183.04 1038.97,156.061 1041.02,124.305 1043.07,124.217 1045.13,142.7 1047.18,344.378 1049.23,-31.6697 1051.28,-46.9085 1053.34,-2.96061 1055.39,-4.40088 1057.44,-172.112 1059.5,-95.1847 1061.55,-95.4637 1063.6,-82.6828 1065.65,2.54792 1067.71,82.3767 1069.76,76.474 1071.81,-107.658 1073.87,-111.583 1075.92,-38.96 1077.97,-70.4768 1080.02,-115.88 1082.08,-64.4833 1084.13,95.0041 1086.18,311.041 1088.24,450.181 1090.29,396.004 1092.34,395.909 1094.39,376.309 1096.45,405.696 1098.5,389.941 1100.55,387.207 1102.61,429.84 1104.66,166.14 1106.71,296.733 1108.77,305.56 1110.82,309.677 1112.87,381.813 1114.92,404.005 1116.98,400.472 1119.03,362.821 1121.08,320.597 1123.14,443.985 1125.19,442.892 1127.24,443.649 1129.29,442.101 1131.35,439.143 1133.4,443.335 1135.45,443.793 1137.51,443.735 1139.56,443.388 1141.61,436.599 1143.66,523.761 1145.72,526.586 1147.77,526.827 1149.82,529.039 1151.88,545.053 1153.93,534.939 1155.98,528.791 1158.03,497.555 1160.09,533.8 1162.14,524.89 1164.19,536.922 1166.25,544.094 1168.3,556.585 1170.35,458.323 1172.4,573.87 1174.46,578.947 1176.51,579.38 1178.56,572.782 1180.62,588.707 1182.67,588.679 1184.72,229.424 1186.77,38.4789 1188.83,156.316 1190.88,8.7273 1192.93,155.227 1194.99,341.523 1197.04,344.393 1199.09,446.209 1201.15,258.222 1203.2,305.509 1205.25,304.642 1207.3,306.799 1209.36,261.243 1211.41,292.247 1213.46,290.081 1215.52,288.063 1217.57,290.199 1219.62,334.315 1221.67,325.906 1223.73,248.832 1225.78,254.417 1227.83,498.128 1229.89,361.821 1231.94,377.33 1233.99,367.257 1236.04,367.395 1238.1,332.936 1240.15,334.858 1242.2,307.6 1244.26,314.562 1246.31,315.203 1248.36,296.427 1250.41,368.776 1252.47,383.459 1254.52,396.429 1256.57,396.682 1258.63,368.724 1260.68,369.96 1262.73,368.233 1264.78,361.397 1266.84,365.532 1268.89,351.451 1270.94,355.872 1273,401.357 1275.05,402.833 1277.1,406.807 1279.16,397.938 1281.21,395.633 1283.26,394.419 1285.31,390.07 1287.37,391.645 1289.42,387.83 1291.47,385.691 1293.53,385.649 1295.58,385.857 1297.63,377.037 1299.68,372.273 1301.74,390.174 1303.79,390.303 1305.84,389.048 1307.9,391.051 1309.95,386.982 1312,386.965 1314.05,402.562 1316.11,390.981 1318.16,390.306 1320.21,382.496 1322.27,411.282 1324.32,367.528 1326.37,372.311 1328.42,423.46 1330.48,397.753 1332.53,296.42 1334.58,288.272 1336.64,284.6 1338.69,292.255 1340.74,260.856 1342.79,260.299 1344.85,263.241 1346.9,261.52 1348.95,231.337 1351.01,249.575 1353.06,259.964 1355.11,249.808 1357.16,239.691 1359.22,228.658 1361.27,228.458 1363.32,172.027 1365.38,195.238 1367.43,200.694 1369.48,204.487 1371.54,265.727 1373.59,271.116 1375.64,277.46 1377.69,269.992 1379.75,264.812 1381.8,266.715 1383.85,318.422 1385.91,303.496 1387.96,250.76 1390.01,247.084 1392.06,207.321 1394.12,229.018 1396.17,290.969 1398.22,474.713 1400.28,378.22 1402.33,82.9492 1404.38,275.103 1406.43,345.113 1408.49,348.68 1410.54,404.737 1412.59,404.105 1414.65,400.206 1416.7,399.79 1418.75,391.29 1420.8,397.517 1422.86,383.913 1424.91,368.914 1426.96,281.71 1429.02,275.283 1431.07,267.486 1433.12,267.8 1435.17,260.523 1437.23,258.686 1439.28,259.157 1441.33,252.262 1443.39,251.963 1445.44,251.741 1447.49,253.711 1449.55,263.078 1451.6,259.325 1453.65,257.884 1455.7,258.884 1457.76,159.294 1459.81,138.43 1461.86,137.07 1463.92,214.47 1465.97,230.577 1468.02,230.574 1470.07,223.225 1472.13,221.433 1474.18,208.621 1476.23,227.037 1478.29,228.703 1480.34,337.802 1482.39,317.84 1484.44,324.234 1486.5,323.002 1488.55,331.328 1490.6,331.276 1492.66,310.511 1494.71,310.399 1496.76,298.656 1498.81,297.369 1500.87,297.606 1502.92,298.109 1504.97,295.195 1507.03,295.244 1509.08,277.111 1511.13,328.135 1513.18,344.822 1515.24,328.38 1517.29,328.195 1519.34,311.376 1521.4,308.563 1523.45,352.461 1525.5,360.818 1527.55,356.33 1529.61,361.872 1531.66,374.005 1533.71,375.812 1535.77,376.822 1537.82,353.224 1539.87,355.023 1541.93,358.642 1543.98,374.193 1546.03,374.785 1548.08,371.79 1550.14,373.265 1552.19,373.269 1554.24,327.456 1556.3,363.512 1558.35,349.201 1560.4,331.137 1562.45,331.253 1564.51,333.785 1566.56,335.083 1568.61,317.535 1570.67,317.785 1572.72,313.83 1574.77,320.019 1576.82,320.057 1578.88,317.922 1580.93,318.234 1582.98,313.184 1585.04,310.737 1587.09,312.173 1589.14,312.173 1591.19,312.18 1593.25,317.3 1595.3,316.554 1597.35,315.636 1599.41,316.283 1601.46,326.455 1603.51,325.035 1605.56,326.392 1607.62,324.665 1609.67,348.233 1611.72,384.991 1613.78,388.379 1615.83,386.654 1617.88,384.861 1619.94,391.224 1621.99,387.264 1624.04,361.152 1626.09,358.793 1628.15,357.48 1630.2,396.897 1632.25,396.559 1634.31,398.398 1636.36,395.698 1638.41,388.67 1640.46,384.386 1642.52,377.776 1644.57,370.223 1646.62,370.389 1648.68,370.21 1650.73,368.004 1652.78,368.509 1654.83,368.65 1656.89,374.892 1658.94,384.142 1660.99,384.194 1663.05,384.182 1665.1,392.894 1667.15,393.594 1669.2,393.203 1671.26,373.989 1673.31,371.695 1675.36,370.71 1677.42,364.436 1679.47,365.252 1681.52,365.281 1683.57,365.044 1685.63,364.898 1687.68,368.862 1689.73,380.565 1691.79,384.868 1693.84,352.035 1695.89,352.265 1697.94,349.919 1700,352.117 1702.05,350.518 1704.1,350.101 1706.16,350.097 1708.21,348.858 1710.26,348.879 1712.32,349.357 1714.37,343.428 1716.42,345.89 1718.47,344.244 1720.53,345.588 1722.58,345.197 1724.63,371.09 1726.69,371.701 1728.74,371.901 1730.79,373.234 1732.84,365.4 1734.9,365.365 1736.95,367.276 1739,367.2 1741.06,348.195 1743.11,360.251 1745.16,360.477 1747.21,361.068 1749.27,361.061 1751.32,366.985 1753.37,357.279 1755.43,357.422 1757.48,357.565 1759.53,357.851 1761.58,357.84 1763.64,357.12 1765.69,356.96 1767.74,356.466 1769.8,356.66 1771.85,362.867 1773.9,361.888 1775.95,366.674 1778.01,366.624 1780.06,365.534 1782.11,365.485 1784.17,367.655 1786.22,368.155 1788.27,372.771 1790.33,373.144 1792.38,366.15 1794.43,367.591 1796.48,367.83 1798.54,365.117 1800.59,364.956 1802.64,369.346 1804.7,384.789 1806.75,385.825 1808.8,377.197 1810.85,377.264 1812.91,376.187 1814.96,368.026 1817.01,397.268 1819.07,393.591 1821.12,393.648 1823.17,393.775 1825.22,395.051 1827.28,395.125 1829.33,395.863 1831.38,388.785 1833.44,389.625 1835.49,382.707 1837.54,382.679 1839.59,382.554 1841.65,342.674 1843.7,384.338 1845.75,385.232 1847.81,393.932 1849.86,398.97 1851.91,371.799 1853.96,371.505 1856.02,374.287 1858.07,374.282 1860.12,379.931 1862.18,353.192 1864.23,353.981 1866.28,358.005 1868.34,352.918 1870.39,353.536 1872.44,354.111 1874.49,354.089 1876.55,354.084 1878.6,354.111 1880.65,348.873 1882.71,346.662 1884.76,346.719 1886.81,333.539 1888.86,368.239 1890.92,360.816 1892.97,357.727 1895.02,363.458 1897.08,365.327 1899.13,376.852 1901.18,357.648 1903.23,356.53 1905.29,359.802 1907.34,342.271 1909.39,337.694 1911.45,338.643 1913.5,383.785 1915.55,378.912 1917.6,360.788 1919.66,361.152 1921.71,360.001 1923.76,360.053 1925.82,360.169 1927.87,391.344 1929.92,393.287 1931.97,398.087 1934.03,398.318 1936.08,389.613 1938.13,393.786 1940.19,401.47 1942.24,398.922 1944.29,395.664 1946.34,355.89 1948.4,356.778 1950.45,357.346 1952.5,359.059 1954.56,356.73 1956.61,357.035 1958.66,358.468 1960.72,354.853 1962.77,342.096 1964.82,337.176 1966.87,343.985 1968.93,350.273 1970.98,334.888 1973.03,373.51 1975.09,366.08 1977.14,410.421 1979.19,410.791 1981.24,389.705 1983.3,392.14 1985.35,361.471 1987.4,357.103 1989.46,363.777 1991.51,381.937 1993.56,381.052 1995.61,342.987 1997.67,345.375 1999.72,362.119 2001.77,335.15 2003.83,306.762 2005.88,341.843 2007.93,337.95 2009.98,335.452 2012.04,325.488 2014.09,279.041 2016.14,257.06 2018.2,256.949 2020.25,257.587 2022.3,262.691 2024.35,299.311 2026.41,414.873 2028.46,414.799 2030.51,410.926 2032.57,422.265 2034.62,422.381 2036.67,392.597 2038.73,390.493 2040.78,389.103 2042.83,411.834 2044.88,412.435 2046.94,425.204 2048.99,420.101 2051.04,420.43 2053.1,424.196 2055.15,429.19 2057.2,442.998 2059.25,436.515 2061.31,425.045 2063.36,413.61 2065.41,412.783 2067.47,403.58 2069.52,399.375 2071.57,399.246 2073.62,399.746 2075.68,385.998 2077.73,393.465 2079.78,392.967 2081.84,389.778 2083.89,400.847 2085.94,379.51 2087.99,369.318 2090.05,361.308 2092.1,364.668 2094.15,360.392 2096.21,374.669 2098.26,379.434 2100.31,380.321 2102.36,380.429 2104.42,380.363 2106.47,380.325 2108.52,380.307 2110.58,382.656 2112.63,359.853 2114.68,344.131 2116.73,343.841 2118.79,349.144 2120.84,349.091 2122.89,354.243 2124.95,355.341 2127,353.902 2129.05,355.08 2131.11,355.413 2133.16,357.127 2135.21,356.439 2137.26,356.458 2139.32,356.476 2141.37,363.904 2143.42,362.303 2145.48,362.282 2147.53,362.282 2149.58,367.012 2151.63,368.179 2153.69,368.409 2155.74,368.763 2157.79,366.925 2159.85,366.851 2161.9,367.361 2163.95,367.806 2166,368.789 2168.06,369.606 2170.11,369.682 2172.16,365.405 2174.22,360.041 2176.27,360.743 2178.32,360.885 2180.37,370.396 2182.43,389.068 2184.48,396.631 2186.53,394.241 2188.59,367.382 2190.64,366.513 2192.69,360.07 2194.74,359.484 2196.8,358.407 2198.85,362.498 2200.9,351.395 2202.96,339.134 2205.01,341.757 2207.06,341.1 2209.12,344.019 2211.17,343.866 2213.22,343.928 2215.27,372.129 2217.33,373.055 2219.38,375.131 2221.43,369.502 2223.49,370.547 2225.54,382.526 2227.59,378.411 2229.64,378.449 2231.7,378.822 2233.75,373.627 2235.8,367.665 2237.86,375.466 2239.91,375.547 2241.96,369.841 2244.01,369.469 2246.07,340.423 2248.12,373.533 2250.17,372.272 2252.23,368.544 2254.28,368.006 2256.33,367.924 2258.38,365.854 2260.44,374.092 2262.49,347.681 2264.54,347.635 2266.6,349.255 2268.65,349.292 2270.7,367.767 2272.75,367.767 2274.81,360.899 2276.86,350.721 2278.91,351.631 2280.97,360.4 2283.02,360.539 2285.07,375.455 2287.12,374.541 2289.18,345.495 2291.23,345.91 "/>
<path clip-path="url(#clip620)" d="M1983.6 172.231 L2280.29 172.231 L2280.29 68.5509 L1983.6 68.5509  Z" fill="#ffffff" fill-rule="evenodd" fill-opacity="1"/>
<polyline clip-path="url(#clip620)" style="stroke:#000000; stroke-linecap:round; stroke-linejoin:round; stroke-width:4; stroke-opacity:1; fill:none" points="1983.6,172.231 2280.29,172.231 2280.29,68.5509 1983.6,68.5509 1983.6,172.231 "/>
<polyline clip-path="url(#clip620)" style="stroke:#009af9; stroke-linecap:round; stroke-linejoin:round; stroke-width:4; stroke-opacity:1; fill:none" points="2007.75,120.391 2152.68,120.391 "/>
<path clip-path="url(#clip620)" d="M2176.83 103.111 L2181.51 103.111 L2181.51 133.736 L2198.34 133.736 L2198.34 137.671 L2176.83 137.671 L2176.83 103.111 Z" fill="#000000" fill-rule="nonzero" fill-opacity="1" /><path clip-path="url(#clip620)" d="M2223.96 104.245 L2223.96 108.805 Q2221.3 107.532 2218.94 106.907 Q2216.58 106.282 2214.38 106.282 Q2210.56 106.282 2208.48 107.764 Q2206.42 109.245 2206.42 111.977 Q2206.42 114.268 2207.78 115.449 Q2209.17 116.606 2213.01 117.324 L2215.84 117.902 Q2221.07 118.898 2223.55 121.421 Q2226.05 123.921 2226.05 128.134 Q2226.05 133.157 2222.67 135.75 Q2219.31 138.342 2212.81 138.342 Q2210.35 138.342 2207.57 137.787 Q2204.82 137.231 2201.86 136.143 L2201.86 131.328 Q2204.7 132.926 2207.44 133.736 Q2210.17 134.546 2212.81 134.546 Q2216.81 134.546 2218.99 132.972 Q2221.16 131.398 2221.16 128.481 Q2221.16 125.935 2219.59 124.5 Q2218.04 123.064 2214.47 122.347 L2211.62 121.791 Q2206.39 120.75 2204.06 118.527 Q2201.72 116.305 2201.72 112.347 Q2201.72 107.764 2204.94 105.125 Q2208.18 102.486 2213.85 102.486 Q2216.28 102.486 2218.8 102.926 Q2221.32 103.366 2223.96 104.245 Z" fill="#000000" fill-rule="nonzero" fill-opacity="1" /><path clip-path="url(#clip620)" d="M2254.06 104.245 L2254.06 108.805 Q2251.39 107.532 2249.03 106.907 Q2246.67 106.282 2244.47 106.282 Q2240.65 106.282 2238.57 107.764 Q2236.51 109.245 2236.51 111.977 Q2236.51 114.268 2237.87 115.449 Q2239.26 116.606 2243.11 117.324 L2245.93 117.902 Q2251.16 118.898 2253.64 121.421 Q2256.14 123.921 2256.14 128.134 Q2256.14 133.157 2252.76 135.75 Q2249.4 138.342 2242.9 138.342 Q2240.44 138.342 2237.67 137.787 Q2234.91 137.231 2231.95 136.143 L2231.95 131.328 Q2234.8 132.926 2237.53 133.736 Q2240.26 134.546 2242.9 134.546 Q2246.9 134.546 2249.08 132.972 Q2251.25 131.398 2251.25 128.481 Q2251.25 125.935 2249.68 124.5 Q2248.13 123.064 2244.56 122.347 L2241.72 121.791 Q2236.49 120.75 2234.15 118.527 Q2231.81 116.305 2231.81 112.347 Q2231.81 107.764 2235.03 105.125 Q2238.27 102.486 2243.94 102.486 Q2246.37 102.486 2248.89 102.926 Q2251.42 103.366 2254.06 104.245 Z" fill="#000000" fill-rule="nonzero" fill-opacity="1" /><path clip-path="url(#clip620)" d="M178.867 1486.45 L2352.76 1486.45 L2352.76 847.244 L178.867 847.244  Z" fill="#ffffff" fill-rule="evenodd" fill-opacity="1"/>
<defs>
  <clipPath id="clip623">
    <rect x="178" y="847" width="2175" height="640"/>
  </clipPath>
</defs>
<polyline clip-path="url(#clip623)" style="stroke:#000000; stroke-linecap:round; stroke-linejoin:round; stroke-width:2; stroke-opacity:0.1; fill:none" points="238.339,1486.45 238.339,847.244 "/>
<polyline clip-path="url(#clip623)" style="stroke:#000000; stroke-linecap:round; stroke-linejoin:round; stroke-width:2; stroke-opacity:0.1; fill:none" points="751.562,1486.45 751.562,847.244 "/>
<polyline clip-path="url(#clip623)" style="stroke:#000000; stroke-linecap:round; stroke-linejoin:round; stroke-width:2; stroke-opacity:0.1; fill:none" points="1264.78,1486.45 1264.78,847.244 "/>
<polyline clip-path="url(#clip623)" style="stroke:#000000; stroke-linecap:round; stroke-linejoin:round; stroke-width:2; stroke-opacity:0.1; fill:none" points="1778.01,1486.45 1778.01,847.244 "/>
<polyline clip-path="url(#clip623)" style="stroke:#000000; stroke-linecap:round; stroke-linejoin:round; stroke-width:2; stroke-opacity:0.1; fill:none" points="2291.23,1486.45 2291.23,847.244 "/>
<polyline clip-path="url(#clip623)" style="stroke:#000000; stroke-linecap:round; stroke-linejoin:round; stroke-width:2; stroke-opacity:0.1; fill:none" points="178.867,1486.45 2352.76,1486.45 "/>
<polyline clip-path="url(#clip623)" style="stroke:#000000; stroke-linecap:round; stroke-linejoin:round; stroke-width:2; stroke-opacity:0.1; fill:none" points="178.867,1326.65 2352.76,1326.65 "/>
<polyline clip-path="url(#clip623)" style="stroke:#000000; stroke-linecap:round; stroke-linejoin:round; stroke-width:2; stroke-opacity:0.1; fill:none" points="178.867,1166.85 2352.76,1166.85 "/>
<polyline clip-path="url(#clip623)" style="stroke:#000000; stroke-linecap:round; stroke-linejoin:round; stroke-width:2; stroke-opacity:0.1; fill:none" points="178.867,1007.05 2352.76,1007.05 "/>
<polyline clip-path="url(#clip623)" style="stroke:#000000; stroke-linecap:round; stroke-linejoin:round; stroke-width:2; stroke-opacity:0.1; fill:none" points="178.867,847.244 2352.76,847.244 "/>
<polyline clip-path="url(#clip620)" style="stroke:#000000; stroke-linecap:round; stroke-linejoin:round; stroke-width:4; stroke-opacity:1; fill:none" points="178.867,1486.45 2352.76,1486.45 "/>
<polyline clip-path="url(#clip620)" style="stroke:#000000; stroke-linecap:round; stroke-linejoin:round; stroke-width:4; stroke-opacity:1; fill:none" points="238.339,1486.45 238.339,1467.55 "/>
<polyline clip-path="url(#clip620)" style="stroke:#000000; stroke-linecap:round; stroke-linejoin:round; stroke-width:4; stroke-opacity:1; fill:none" points="751.562,1486.45 751.562,1467.55 "/>
<polyline clip-path="url(#clip620)" style="stroke:#000000; stroke-linecap:round; stroke-linejoin:round; stroke-width:4; stroke-opacity:1; fill:none" points="1264.78,1486.45 1264.78,1467.55 "/>
<polyline clip-path="url(#clip620)" style="stroke:#000000; stroke-linecap:round; stroke-linejoin:round; stroke-width:4; stroke-opacity:1; fill:none" points="1778.01,1486.45 1778.01,1467.55 "/>
<polyline clip-path="url(#clip620)" style="stroke:#000000; stroke-linecap:round; stroke-linejoin:round; stroke-width:4; stroke-opacity:1; fill:none" points="2291.23,1486.45 2291.23,1467.55 "/>
<path clip-path="url(#clip620)" d="M238.339 1517.37 Q234.728 1517.37 232.899 1520.93 Q231.094 1524.47 231.094 1531.6 Q231.094 1538.71 232.899 1542.27 Q234.728 1545.82 238.339 1545.82 Q241.973 1545.82 243.779 1542.27 Q245.607 1538.71 245.607 1531.6 Q245.607 1524.47 243.779 1520.93 Q241.973 1517.37 238.339 1517.37 M238.339 1513.66 Q244.149 1513.66 247.205 1518.27 Q250.283 1522.85 250.283 1531.6 Q250.283 1540.33 247.205 1544.94 Q244.149 1549.52 238.339 1549.52 Q232.529 1549.52 229.45 1544.94 Q226.395 1540.33 226.395 1531.6 Q226.395 1522.85 229.45 1518.27 Q232.529 1513.66 238.339 1513.66 Z" fill="#000000" fill-rule="nonzero" fill-opacity="1" /><path clip-path="url(#clip620)" d="M715.254 1544.91 L731.574 1544.91 L731.574 1548.85 L709.629 1548.85 L709.629 1544.91 Q712.291 1542.16 716.875 1537.53 Q721.481 1532.88 722.662 1531.53 Q724.907 1529.01 725.787 1527.27 Q726.689 1525.51 726.689 1523.82 Q726.689 1521.07 724.745 1519.33 Q722.824 1517.6 719.722 1517.6 Q717.523 1517.6 715.069 1518.36 Q712.638 1519.13 709.861 1520.68 L709.861 1515.95 Q712.685 1514.82 715.138 1514.24 Q717.592 1513.66 719.629 1513.66 Q725 1513.66 728.194 1516.35 Q731.388 1519.03 731.388 1523.52 Q731.388 1525.65 730.578 1527.57 Q729.791 1529.47 727.685 1532.07 Q727.106 1532.74 724.004 1535.95 Q720.902 1539.15 715.254 1544.91 Z" fill="#000000" fill-rule="nonzero" fill-opacity="1" /><path clip-path="url(#clip620)" d="M741.435 1514.29 L759.791 1514.29 L759.791 1518.22 L745.717 1518.22 L745.717 1526.7 Q746.736 1526.35 747.754 1526.19 Q748.773 1526 749.791 1526 Q755.578 1526 758.958 1529.17 Q762.337 1532.34 762.337 1537.76 Q762.337 1543.34 758.865 1546.44 Q755.393 1549.52 749.073 1549.52 Q746.898 1549.52 744.629 1549.15 Q742.384 1548.78 739.976 1548.04 L739.976 1543.34 Q742.06 1544.47 744.282 1545.03 Q746.504 1545.58 748.981 1545.58 Q752.985 1545.58 755.323 1543.48 Q757.661 1541.37 757.661 1537.76 Q757.661 1534.15 755.323 1532.04 Q752.985 1529.94 748.981 1529.94 Q747.106 1529.94 745.231 1530.35 Q743.379 1530.77 741.435 1531.65 L741.435 1514.29 Z" fill="#000000" fill-rule="nonzero" fill-opacity="1" /><path clip-path="url(#clip620)" d="M781.55 1517.37 Q777.939 1517.37 776.11 1520.93 Q774.305 1524.47 774.305 1531.6 Q774.305 1538.71 776.11 1542.27 Q777.939 1545.82 781.55 1545.82 Q785.184 1545.82 786.99 1542.27 Q788.819 1538.71 788.819 1531.6 Q788.819 1524.47 786.99 1520.93 Q785.184 1517.37 781.55 1517.37 M781.55 1513.66 Q787.36 1513.66 790.416 1518.27 Q793.495 1522.85 793.495 1531.6 Q793.495 1540.33 790.416 1544.94 Q787.36 1549.52 781.55 1549.52 Q775.74 1549.52 772.661 1544.94 Q769.606 1540.33 769.606 1531.6 Q769.606 1522.85 772.661 1518.27 Q775.74 1513.66 781.55 1513.66 Z" fill="#000000" fill-rule="nonzero" fill-opacity="1" /><path clip-path="url(#clip620)" d="M1224.4 1514.29 L1242.76 1514.29 L1242.76 1518.22 L1228.69 1518.22 L1228.69 1526.7 Q1229.7 1526.35 1230.72 1526.19 Q1231.74 1526 1232.76 1526 Q1238.55 1526 1241.93 1529.17 Q1245.31 1532.34 1245.31 1537.76 Q1245.31 1543.34 1241.83 1546.44 Q1238.36 1549.52 1232.04 1549.52 Q1229.87 1549.52 1227.6 1549.15 Q1225.35 1548.78 1222.94 1548.04 L1222.94 1543.34 Q1225.03 1544.47 1227.25 1545.03 Q1229.47 1545.58 1231.95 1545.58 Q1235.95 1545.58 1238.29 1543.48 Q1240.63 1541.37 1240.63 1537.76 Q1240.63 1534.15 1238.29 1532.04 Q1235.95 1529.94 1231.95 1529.94 Q1230.07 1529.94 1228.2 1530.35 Q1226.35 1530.77 1224.4 1531.65 L1224.4 1514.29 Z" fill="#000000" fill-rule="nonzero" fill-opacity="1" /><path clip-path="url(#clip620)" d="M1264.52 1517.37 Q1260.91 1517.37 1259.08 1520.93 Q1257.27 1524.47 1257.27 1531.6 Q1257.27 1538.71 1259.08 1542.27 Q1260.91 1545.82 1264.52 1545.82 Q1268.15 1545.82 1269.96 1542.27 Q1271.79 1538.71 1271.79 1531.6 Q1271.79 1524.47 1269.96 1520.93 Q1268.15 1517.37 1264.52 1517.37 M1264.52 1513.66 Q1270.33 1513.66 1273.38 1518.27 Q1276.46 1522.85 1276.46 1531.6 Q1276.46 1540.33 1273.38 1544.94 Q1270.33 1549.52 1264.52 1549.52 Q1258.71 1549.52 1255.63 1544.94 Q1252.57 1540.33 1252.57 1531.6 Q1252.57 1522.85 1255.63 1518.27 Q1258.71 1513.66 1264.52 1513.66 Z" fill="#000000" fill-rule="nonzero" fill-opacity="1" /><path clip-path="url(#clip620)" d="M1294.68 1517.37 Q1291.07 1517.37 1289.24 1520.93 Q1287.44 1524.47 1287.44 1531.6 Q1287.44 1538.71 1289.24 1542.27 Q1291.07 1545.82 1294.68 1545.82 Q1298.31 1545.82 1300.12 1542.27 Q1301.95 1538.71 1301.95 1531.6 Q1301.95 1524.47 1300.12 1520.93 Q1298.31 1517.37 1294.68 1517.37 M1294.68 1513.66 Q1300.49 1513.66 1303.55 1518.27 Q1306.62 1522.85 1306.62 1531.6 Q1306.62 1540.33 1303.55 1544.94 Q1300.49 1549.52 1294.68 1549.52 Q1288.87 1549.52 1285.79 1544.94 Q1282.74 1540.33 1282.74 1531.6 Q1282.74 1522.85 1285.79 1518.27 Q1288.87 1513.66 1294.68 1513.66 Z" fill="#000000" fill-rule="nonzero" fill-opacity="1" /><path clip-path="url(#clip620)" d="M1736.28 1514.29 L1758.51 1514.29 L1758.51 1516.28 L1745.96 1548.85 L1741.08 1548.85 L1752.88 1518.22 L1736.28 1518.22 L1736.28 1514.29 Z" fill="#000000" fill-rule="nonzero" fill-opacity="1" /><path clip-path="url(#clip620)" d="M1767.67 1514.29 L1786.03 1514.29 L1786.03 1518.22 L1771.95 1518.22 L1771.95 1526.7 Q1772.97 1526.35 1773.99 1526.19 Q1775.01 1526 1776.03 1526 Q1781.82 1526 1785.2 1529.17 Q1788.57 1532.34 1788.57 1537.76 Q1788.57 1543.34 1785.1 1546.44 Q1781.63 1549.52 1775.31 1549.52 Q1773.14 1549.52 1770.87 1549.15 Q1768.62 1548.78 1766.21 1548.04 L1766.21 1543.34 Q1768.3 1544.47 1770.52 1545.03 Q1772.74 1545.58 1775.22 1545.58 Q1779.22 1545.58 1781.56 1543.48 Q1783.9 1541.37 1783.9 1537.76 Q1783.9 1534.15 1781.56 1532.04 Q1779.22 1529.94 1775.22 1529.94 Q1773.34 1529.94 1771.47 1530.35 Q1769.62 1530.77 1767.67 1531.65 L1767.67 1514.29 Z" fill="#000000" fill-rule="nonzero" fill-opacity="1" /><path clip-path="url(#clip620)" d="M1807.79 1517.37 Q1804.18 1517.37 1802.35 1520.93 Q1800.54 1524.47 1800.54 1531.6 Q1800.54 1538.71 1802.35 1542.27 Q1804.18 1545.82 1807.79 1545.82 Q1811.42 1545.82 1813.23 1542.27 Q1815.06 1538.71 1815.06 1531.6 Q1815.06 1524.47 1813.23 1520.93 Q1811.42 1517.37 1807.79 1517.37 M1807.79 1513.66 Q1813.6 1513.66 1816.65 1518.27 Q1819.73 1522.85 1819.73 1531.6 Q1819.73 1540.33 1816.65 1544.94 Q1813.6 1549.52 1807.79 1549.52 Q1801.98 1549.52 1798.9 1544.94 Q1795.84 1540.33 1795.84 1531.6 Q1795.84 1522.85 1798.9 1518.27 Q1801.98 1513.66 1807.79 1513.66 Z" fill="#000000" fill-rule="nonzero" fill-opacity="1" /><path clip-path="url(#clip620)" d="M2235.76 1544.91 L2243.4 1544.91 L2243.4 1518.55 L2235.09 1520.21 L2235.09 1515.95 L2243.35 1514.29 L2248.02 1514.29 L2248.02 1544.91 L2255.66 1544.91 L2255.66 1548.85 L2235.76 1548.85 L2235.76 1544.91 Z" fill="#000000" fill-rule="nonzero" fill-opacity="1" /><path clip-path="url(#clip620)" d="M2275.11 1517.37 Q2271.5 1517.37 2269.67 1520.93 Q2267.86 1524.47 2267.86 1531.6 Q2267.86 1538.71 2269.67 1542.27 Q2271.5 1545.82 2275.11 1545.82 Q2278.74 1545.82 2280.55 1542.27 Q2282.38 1538.71 2282.38 1531.6 Q2282.38 1524.47 2280.55 1520.93 Q2278.74 1517.37 2275.11 1517.37 M2275.11 1513.66 Q2280.92 1513.66 2283.97 1518.27 Q2287.05 1522.85 2287.05 1531.6 Q2287.05 1540.33 2283.97 1544.94 Q2280.92 1549.52 2275.11 1549.52 Q2269.3 1549.52 2266.22 1544.94 Q2263.16 1540.33 2263.16 1531.6 Q2263.16 1522.85 2266.22 1518.27 Q2269.3 1513.66 2275.11 1513.66 Z" fill="#000000" fill-rule="nonzero" fill-opacity="1" /><path clip-path="url(#clip620)" d="M2305.27 1517.37 Q2301.66 1517.37 2299.83 1520.93 Q2298.02 1524.47 2298.02 1531.6 Q2298.02 1538.71 2299.83 1542.27 Q2301.66 1545.82 2305.27 1545.82 Q2308.9 1545.82 2310.71 1542.27 Q2312.54 1538.71 2312.54 1531.6 Q2312.54 1524.47 2310.71 1520.93 Q2308.9 1517.37 2305.27 1517.37 M2305.27 1513.66 Q2311.08 1513.66 2314.14 1518.27 Q2317.21 1522.85 2317.21 1531.6 Q2317.21 1540.33 2314.14 1544.94 Q2311.08 1549.52 2305.27 1549.52 Q2299.46 1549.52 2296.38 1544.94 Q2293.33 1540.33 2293.33 1531.6 Q2293.33 1522.85 2296.38 1518.27 Q2299.46 1513.66 2305.27 1513.66 Z" fill="#000000" fill-rule="nonzero" fill-opacity="1" /><path clip-path="url(#clip620)" d="M2335.43 1517.37 Q2331.82 1517.37 2329.99 1520.93 Q2328.19 1524.47 2328.19 1531.6 Q2328.19 1538.71 2329.99 1542.27 Q2331.82 1545.82 2335.43 1545.82 Q2339.07 1545.82 2340.87 1542.27 Q2342.7 1538.71 2342.7 1531.6 Q2342.7 1524.47 2340.87 1520.93 Q2339.07 1517.37 2335.43 1517.37 M2335.43 1513.66 Q2341.24 1513.66 2344.3 1518.27 Q2347.38 1522.85 2347.38 1531.6 Q2347.38 1540.33 2344.3 1544.94 Q2341.24 1549.52 2335.43 1549.52 Q2329.62 1549.52 2326.54 1544.94 Q2323.49 1540.33 2323.49 1531.6 Q2323.49 1522.85 2326.54 1518.27 Q2329.62 1513.66 2335.43 1513.66 Z" fill="#000000" fill-rule="nonzero" fill-opacity="1" /><polyline clip-path="url(#clip620)" style="stroke:#000000; stroke-linecap:round; stroke-linejoin:round; stroke-width:4; stroke-opacity:1; fill:none" points="178.867,1486.45 178.867,847.244 "/>
<polyline clip-path="url(#clip620)" style="stroke:#000000; stroke-linecap:round; stroke-linejoin:round; stroke-width:4; stroke-opacity:1; fill:none" points="178.867,1486.45 197.764,1486.45 "/>
<polyline clip-path="url(#clip620)" style="stroke:#000000; stroke-linecap:round; stroke-linejoin:round; stroke-width:4; stroke-opacity:1; fill:none" points="178.867,1326.65 197.764,1326.65 "/>
<polyline clip-path="url(#clip620)" style="stroke:#000000; stroke-linecap:round; stroke-linejoin:round; stroke-width:4; stroke-opacity:1; fill:none" points="178.867,1166.85 197.764,1166.85 "/>
<polyline clip-path="url(#clip620)" style="stroke:#000000; stroke-linecap:round; stroke-linejoin:round; stroke-width:4; stroke-opacity:1; fill:none" points="178.867,1007.05 197.764,1007.05 "/>
<polyline clip-path="url(#clip620)" style="stroke:#000000; stroke-linecap:round; stroke-linejoin:round; stroke-width:4; stroke-opacity:1; fill:none" points="178.867,847.244 197.764,847.244 "/>
<path clip-path="url(#clip620)" d="M50.9921 1486.9 L80.6679 1486.9 L80.6679 1490.83 L50.9921 1490.83 L50.9921 1486.9 Z" fill="#000000" fill-rule="nonzero" fill-opacity="1" /><path clip-path="url(#clip620)" d="M91.5706 1499.79 L99.2095 1499.79 L99.2095 1473.43 L90.8993 1475.09 L90.8993 1470.83 L99.1632 1469.17 L103.839 1469.17 L103.839 1499.79 L111.478 1499.79 L111.478 1503.73 L91.5706 1503.73 L91.5706 1499.79 Z" fill="#000000" fill-rule="nonzero" fill-opacity="1" /><path clip-path="url(#clip620)" d="M130.922 1472.25 Q127.311 1472.25 125.482 1475.81 Q123.677 1479.35 123.677 1486.48 Q123.677 1493.59 125.482 1497.15 Q127.311 1500.7 130.922 1500.7 Q134.556 1500.7 136.362 1497.15 Q138.191 1493.59 138.191 1486.48 Q138.191 1479.35 136.362 1475.81 Q134.556 1472.25 130.922 1472.25 M130.922 1468.54 Q136.732 1468.54 139.788 1473.15 Q142.867 1477.73 142.867 1486.48 Q142.867 1495.21 139.788 1499.82 Q136.732 1504.4 130.922 1504.4 Q125.112 1504.4 122.033 1499.82 Q118.978 1495.21 118.978 1486.48 Q118.978 1477.73 122.033 1473.15 Q125.112 1468.54 130.922 1468.54 Z" fill="#000000" fill-rule="nonzero" fill-opacity="1" /><path clip-path="url(#clip620)" d="M82.1494 1327.1 L111.825 1327.1 L111.825 1331.03 L82.1494 1331.03 L82.1494 1327.1 Z" fill="#000000" fill-rule="nonzero" fill-opacity="1" /><path clip-path="url(#clip620)" d="M121.964 1309.37 L140.32 1309.37 L140.32 1313.3 L126.246 1313.3 L126.246 1321.77 Q127.265 1321.43 128.283 1321.27 Q129.302 1321.08 130.32 1321.08 Q136.107 1321.08 139.487 1324.25 Q142.867 1327.42 142.867 1332.84 Q142.867 1338.42 139.394 1341.52 Q135.922 1344.6 129.603 1344.6 Q127.427 1344.6 125.158 1344.23 Q122.913 1343.86 120.506 1343.12 L120.506 1338.42 Q122.589 1339.55 124.811 1340.11 Q127.033 1340.66 129.51 1340.66 Q133.515 1340.66 135.853 1338.56 Q138.191 1336.45 138.191 1332.84 Q138.191 1329.23 135.853 1327.12 Q133.515 1325.01 129.51 1325.01 Q127.635 1325.01 125.76 1325.43 Q123.908 1325.85 121.964 1326.73 L121.964 1309.37 Z" fill="#000000" fill-rule="nonzero" fill-opacity="1" /><path clip-path="url(#clip620)" d="M130.922 1152.64 Q127.311 1152.64 125.482 1156.21 Q123.677 1159.75 123.677 1166.88 Q123.677 1173.99 125.482 1177.55 Q127.311 1181.09 130.922 1181.09 Q134.556 1181.09 136.362 1177.55 Q138.191 1173.99 138.191 1166.88 Q138.191 1159.75 136.362 1156.21 Q134.556 1152.64 130.922 1152.64 M130.922 1148.94 Q136.732 1148.94 139.788 1153.55 Q142.867 1158.13 142.867 1166.88 Q142.867 1175.61 139.788 1180.21 Q136.732 1184.8 130.922 1184.8 Q125.112 1184.8 122.033 1180.21 Q118.978 1175.61 118.978 1166.88 Q118.978 1158.13 122.033 1153.55 Q125.112 1148.94 130.922 1148.94 Z" fill="#000000" fill-rule="nonzero" fill-opacity="1" /><path clip-path="url(#clip620)" d="M121.964 989.765 L140.32 989.765 L140.32 993.7 L126.246 993.7 L126.246 1002.17 Q127.265 1001.83 128.283 1001.66 Q129.302 1001.48 130.32 1001.48 Q136.107 1001.48 139.487 1004.65 Q142.867 1007.82 142.867 1013.24 Q142.867 1018.82 139.394 1021.92 Q135.922 1025 129.603 1025 Q127.427 1025 125.158 1024.63 Q122.913 1024.26 120.506 1023.51 L120.506 1018.82 Q122.589 1019.95 124.811 1020.51 Q127.033 1021.06 129.51 1021.06 Q133.515 1021.06 135.853 1018.95 Q138.191 1016.85 138.191 1013.24 Q138.191 1009.63 135.853 1007.52 Q133.515 1005.41 129.51 1005.41 Q127.635 1005.41 125.76 1005.83 Q123.908 1006.25 121.964 1007.13 L121.964 989.765 Z" fill="#000000" fill-rule="nonzero" fill-opacity="1" /><path clip-path="url(#clip620)" d="M91.5706 860.589 L99.2095 860.589 L99.2095 834.223 L90.8993 835.89 L90.8993 831.631 L99.1632 829.964 L103.839 829.964 L103.839 860.589 L111.478 860.589 L111.478 864.524 L91.5706 864.524 L91.5706 860.589 Z" fill="#000000" fill-rule="nonzero" fill-opacity="1" /><path clip-path="url(#clip620)" d="M130.922 833.043 Q127.311 833.043 125.482 836.608 Q123.677 840.149 123.677 847.279 Q123.677 854.385 125.482 857.95 Q127.311 861.492 130.922 861.492 Q134.556 861.492 136.362 857.95 Q138.191 854.385 138.191 847.279 Q138.191 840.149 136.362 836.608 Q134.556 833.043 130.922 833.043 M130.922 829.339 Q136.732 829.339 139.788 833.946 Q142.867 838.529 142.867 847.279 Q142.867 856.006 139.788 860.612 Q136.732 865.195 130.922 865.195 Q125.112 865.195 122.033 860.612 Q118.978 856.006 118.978 847.279 Q118.978 838.529 122.033 833.946 Q125.112 829.339 130.922 829.339 Z" fill="#000000" fill-rule="nonzero" fill-opacity="1" /><polyline clip-path="url(#clip623)" style="stroke:#009af9; stroke-linecap:round; stroke-linejoin:round; stroke-width:4; stroke-opacity:1; fill:none" points="240.392,1134.89 242.445,1173.06 244.498,1191.92 246.55,1211.82 248.603,1118.84 250.656,1157.62 252.709,1203.5 254.762,1106.09 256.815,1193.17 258.868,1166.3 260.921,1147.82 262.974,1177 265.027,1183.68 267.079,1150.42 269.132,1018.47 271.185,1343.48 273.238,1251.34 275.291,1110.69 277.344,1174.59 279.397,1160.35 281.45,1165.45 283.503,1164.37 285.555,1158.11 287.608,1174.36 289.661,1206.98 291.714,1147.96 293.767,1164.52 295.82,1186.11 297.873,1186.26 299.926,1163.36 301.979,1170.27 304.031,1159.65 306.084,1183.26 308.137,1176.75 310.19,1196.4 312.243,1284.42 314.296,1188.23 316.349,1230.09 318.402,1115.48 320.455,1210.8 322.507,1180.16 324.56,1145.95 326.613,1191.96 328.666,1103.87 330.719,1100.36 332.772,1145.34 334.825,1144.85 336.878,1195.18 338.931,1151.97 340.984,1163.83 343.036,1165.24 345.089,1170.74 347.142,1062.2 349.195,1014.24 351.248,1029.8 353.301,838.766 355.354,1090.19 357.407,1139.58 359.46,1176.71 361.512,1175.24 363.565,1151.24 365.618,1168.72 367.671,1193.81 369.724,1183.69 371.777,1121.5 373.83,951.09 375.883,1217.74 377.936,1138.98 379.988,1204.73 382.041,1209.1 384.094,1150.06 386.147,1122.48 388.2,1225.14 390.253,1160.78 392.306,1106.57 394.359,1208 396.412,1218.83 398.464,1225.92 400.517,1128.01 402.57,1170.81 404.623,1164.58 406.676,1153.27 408.729,1133.14 410.782,1179.32 412.835,1129.81 414.888,1311.94 416.94,1195.21 418.993,1153.23 421.046,1149.32 423.099,1108.31 425.152,1113.99 427.205,1159.27 429.258,1197.48 431.311,1130.44 433.364,1128.66 435.417,1125.68 437.469,1216.83 439.522,1125.3 441.575,1175.15 443.628,1084.34 445.681,1189.7 447.734,1117.24 449.787,909.491 451.84,1091.94 453.893,1153.96 455.945,1192.86 457.998,1171.16 460.051,1205.44 462.104,1143.43 464.157,1154.67 466.21,1180.53 468.263,1191.24 470.316,1169.53 472.369,1170.53 474.421,1163.52 476.474,1167.91 478.527,1150.66 480.58,1192.18 482.633,1162.92 484.686,1124.56 486.739,1210.43 488.792,1206.33 490.845,1150.39 492.897,1171.61 494.95,1190.35 497.003,1144.86 499.056,1180.3 501.109,1142.16 503.162,1191.34 505.215,1138.29 507.268,1130.22 509.321,1193.11 511.374,1197.57 513.426,1169.19 515.479,1131.55 517.532,1202.99 519.585,1120.38 521.638,1190.49 523.691,1302.18 525.744,768.771 527.797,1205.56 529.85,1145.93 531.902,1189.02 533.955,1187.3 536.008,1235.88 538.061,1135.35 540.114,1137.08 542.167,1177.05 544.22,1165.55 546.273,1144.74 548.326,1268.73 550.378,1178.93 552.431,1120.85 554.484,1170.81 556.537,1160.83 558.59,1162.7 560.643,1137.71 562.696,1103.7 564.749,1145.18 566.802,1207.41 568.854,1200.92 570.907,1156.73 572.96,1161.4 575.013,1176.98 577.066,1175.13 579.119,1168.31 581.172,1138.54 583.225,1187.56 585.278,1146.1 587.331,1189 589.383,1163.8 591.436,1126.38 593.489,1172.12 595.542,1162.6 597.595,1193.99 599.648,1152.29 601.701,1146.75 603.754,1136.36 605.807,1164.49 607.859,1183.54 609.912,1188.61 611.965,1190.62 614.018,1187.92 616.071,1192.65 618.124,1157.33 620.177,1182.78 622.23,1219.56 624.283,1154 626.335,1168.72 628.388,1249.86 630.441,1249.16 632.494,1182.48 634.547,1154.48 636.6,1168.56 638.653,1148.15 640.706,1173.61 642.759,1187.38 644.811,1174.97 646.864,1132.25 648.917,1225.2 650.97,1326.76 653.023,1214.06 655.076,1095.74 657.129,1183.28 659.182,1169.52 661.235,968.215 663.288,1156.33 665.34,973.337 667.393,811.411 669.446,1897.9 671.499,1428.29 673.552,984.887 675.605,1418.17 677.658,1469.64 679.711,2384.74 681.764,270.601 683.816,1183.25 685.869,1174.87 687.922,1163.58 689.975,1173.07 692.028,1177.31 694.081,1171.37 696.134,1164.78 698.187,1142.77 700.24,1182.04 702.292,1168.38 704.345,1155.21 706.398,1199 708.451,1192.68 710.504,1150.98 712.557,358 714.61,1211.28 716.663,1105.98 718.716,1097.39 720.768,1120.2 722.821,1165.01 724.874,1139.77 726.927,1165.32 728.98,1169.55 731.033,1163.84 733.086,1170.86 735.139,1222.84 737.192,1188.75 739.245,1137.87 741.297,1131.04 743.35,1137.71 745.403,1181.58 747.456,1167.73 749.509,1192.95 751.562,1207.99 753.615,1267.54 755.668,1159.04 757.721,1077.84 759.773,1248.61 761.826,1193.26 763.879,1188.19 765.932,1244.56 767.985,1308.77 770.038,1126.44 772.091,1106.54 774.144,1097.42 776.197,1161.35 778.249,1222.18 780.302,1175.94 782.355,1149.36 784.408,1178.28 786.461,1177.26 788.514,1173.9 790.567,1274.58 792.62,1516.39 794.673,1240.02 796.725,1225.96 798.778,1163.49 800.831,1120.04 802.884,1177.68 804.937,1126.18 806.99,1164.99 809.043,1173.5 811.096,1178.83 813.149,1172.21 815.202,1195 817.254,1198 819.307,1180.59 821.36,1136.66 823.413,1141.76 825.466,1107.91 827.519,1177.25 829.572,1169.35 831.625,1164.9 833.678,1167.36 835.73,1157.62 837.783,1138.2 839.836,1203.83 841.889,1151.14 843.942,1157.03 845.995,1137.24 848.048,1196.08 850.101,1160.01 852.154,1144.44 854.206,1159.82 856.259,1174.6 858.312,1158.29 860.365,1095.88 862.418,873.337 864.471,1335.06 866.524,1168.56 868.577,1156.69 870.63,1133.13 872.682,1170.79 874.735,1147.37 876.788,936.665 878.841,1236.43 880.894,1568.03 882.947,1179.82 885,1210.42 887.053,1181.68 889.106,1182.97 891.159,1206.25 893.211,1136.23 895.264,1197.67 897.317,1116.51 899.37,1148.19 901.423,1103.83 903.476,1500.46 905.529,988.844 907.582,1099.72 909.635,1399.28 911.687,1066.79 913.74,1177 915.793,1146.44 917.846,1218.56 919.899,1161.61 921.952,1164.93 924.005,1170.44 926.058,1554.06 928.111,966.53 930.163,866.728 932.216,1504.62 934.269,1291.17 936.322,1041.31 938.375,1114.28 940.428,1311.58 942.481,1180.42 944.534,1173.16 946.587,1168.37 948.639,1195.47 950.692,1219.44 952.745,1147.15 954.798,1267.88 956.851,1166.63 958.904,1127.69 960.957,1164.14 963.01,1175.77 965.063,1172.18 967.116,1156.07 969.168,1208.62 971.221,1232.26 973.274,1180.5 975.327,1155.24 977.38,1184.63 979.433,1175.08 981.486,1133.36 983.539,1216.56 985.592,1154.17 987.644,1165.36 989.697,1185.71 991.75,1201.2 993.803,1253.29 995.856,1073.27 997.909,1126.04 999.962,1194.92 1002.01,1192.92 1004.07,1176.9 1006.12,1125.52 1008.17,1224 1010.23,1154.3 1012.28,1240.55 1014.33,1217.58 1016.38,1179.99 1018.44,1153 1020.49,859.764 1022.54,1045.28 1024.6,1054.59 1026.65,1307.93 1028.7,1147.85 1030.76,1145.42 1032.81,1177.73 1034.86,1113 1036.91,1140.31 1038.97,1178.46 1041.02,1163.91 1043.07,1165.66 1045.13,1200.24 1047.18,1159.17 1049.23,1143.53 1051.28,1127.85 1053.34,1204.61 1055.39,1160.6 1057.44,1183.21 1059.5,1158.19 1061.55,1159.61 1063.6,1149.38 1065.65,1131.35 1067.71,1119.2 1069.76,1151.55 1071.81,1129.83 1073.87,1226.85 1075.92,1259.08 1077.97,948.89 1080.02,693.526 1082.08,931.189 1084.13,3271.87 1086.18,534.87 1088.24,1205.38 1090.29,879.809 1092.34,1383.37 1094.39,1136.32 1096.45,1208.14 1098.5,1189.08 1100.55,1085.21 1102.61,1127.22 1104.66,1129.42 1106.71,1161.79 1108.77,1140.23 1110.82,1064.49 1112.87,1259.45 1114.92,1145.61 1116.98,1196.08 1119.03,1184.49 1121.08,1161.41 1123.14,1075.85 1125.19,1227.46 1127.24,1057.73 1129.29,1393.29 1131.35,1207.16 1133.4,1175.35 1135.45,1211.32 1137.51,1170.61 1139.56,1170.47 1141.61,1180.51 1143.66,1206.11 1145.72,1200.68 1147.77,1168.56 1149.82,1182.06 1151.88,1148.97 1153.93,1182 1155.98,1136.65 1158.03,1169.39 1160.09,1161.12 1162.14,1174.67 1164.19,1174.06 1166.25,1168.31 1168.3,1168.07 1170.35,1195.4 1172.4,1145.85 1174.46,1147.38 1176.51,1163.31 1178.56,1169.11 1180.62,1220.75 1182.67,1134.09 1184.72,1223.28 1186.77,980.225 1188.83,948.613 1190.88,3182.69 1192.93,961.27 1194.99,1183.22 1197.04,1063.05 1199.09,806.114 1201.15,745.432 1203.2,1067.94 1205.25,1365.57 1207.3,1215.11 1209.36,1290.34 1211.41,1088.5 1213.46,1227.08 1215.52,994.053 1217.57,1364.47 1219.62,1195.66 1221.67,1166.59 1223.73,1183.08 1225.78,1134.87 1227.83,1077.1 1229.89,1152.62 1231.94,1195.41 1233.99,1163.88 1236.04,1135.44 1238.1,1143.3 1240.15,1110.93 1242.2,1570.7 1244.26,795.908 1246.31,1153.88 1248.36,1127.97 1250.41,1001.46 1252.47,1346.85 1254.52,922.085 1256.57,1044.85 1258.63,914.675 1260.68,1451.22 1262.73,685.975 1264.78,871.841 1266.84,1124.43 1268.89,1225.3 1270.94,1371.02 1273,1039.63 1275.05,1146.89 1277.1,1188.11 1279.16,1138.43 1281.21,1152.93 1283.26,1145.87 1285.31,1151.51 1287.37,1048.19 1289.42,1293.54 1291.47,1041.59 1293.53,1047.08 1295.58,1140.8 1297.63,1124.42 1299.68,1040.09 1301.74,1229.5 1303.79,1084.88 1305.84,1326.34 1307.9,905.055 1309.95,1410.97 1312,1071.66 1314.05,1151.33 1316.11,1130.58 1318.16,1138.72 1320.21,1214.72 1322.27,1231.66 1324.32,1125.82 1326.37,1108.87 1328.42,1213.91 1330.48,1154.92 1332.53,1184.19 1334.58,1111.11 1336.64,1178.29 1338.69,1204.63 1340.74,1118.69 1342.79,1276.33 1344.85,1310.65 1346.9,1181.16 1348.95,1223.69 1351.01,1149.33 1353.06,1002.32 1355.11,1218.94 1357.16,1150.7 1359.22,1238.81 1361.27,1166.63 1363.32,1124.82 1365.38,1233.74 1367.43,1025.83 1369.48,1184.22 1371.54,1258.76 1373.59,1097.71 1375.64,1150.23 1377.69,1198.82 1379.75,1240.3 1381.8,1181.06 1383.85,1184.32 1385.91,1173.36 1387.96,1152.87 1390.01,1119.96 1392.06,1220.88 1394.12,1213.04 1396.17,1157.87 1398.22,1138.02 1400.28,1190.46 1402.33,1159.39 1404.38,1139.37 1406.43,1155.82 1408.49,1122.01 1410.54,1206.03 1412.59,1218.03 1414.65,1134.07 1416.7,1129.49 1418.75,1202.43 1420.8,1165.91 1422.86,1093.3 1424.91,1016.18 1426.96,1136.62 1429.02,1152.34 1431.07,1204.19 1433.12,1144.66 1435.17,1254.08 1437.23,1180.23 1439.28,1176.43 1441.33,1174 1443.39,1147.73 1445.44,1166.09 1447.49,1175.74 1449.55,1150.66 1451.6,1175.5 1453.65,1165.44 1455.7,1169.58 1457.76,1147.77 1459.81,1236.57 1461.86,1089.66 1463.92,1242.94 1465.97,1213.24 1468.02,1136.04 1470.07,1141.96 1472.13,1171.18 1474.18,1165.4 1476.23,1181.56 1478.29,1083.89 1480.34,1214.82 1482.39,1245.13 1484.44,1077.28 1486.5,870.951 1488.55,1154.92 1490.6,493.9 1492.66,1844.91 1494.71,2432.28 1496.76,916.566 1498.81,1459.87 1500.87,1169.8 1502.92,1070.24 1504.97,1158.88 1507.03,1178.94 1509.08,1163.95 1511.13,1164.91 1513.18,1154.81 1515.24,1192 1517.29,1190.02 1519.34,1169.16 1521.4,1153.59 1523.45,1215.74 1525.5,1091.53 1527.55,1160.2 1529.61,1127.96 1531.66,1192.5 1533.71,1174.52 1535.77,1144.09 1537.82,1175.14 1539.87,1217.08 1541.93,1170.63 1543.98,1064.45 1546.03,1155.61 1548.08,1202.49 1550.14,1149.76 1552.19,1171.67 1554.24,1160.98 1556.3,1183.87 1558.35,1167.81 1560.4,1201.11 1562.45,1187.63 1564.51,1209.83 1566.56,1136.5 1568.61,1151.55 1570.67,1183.67 1572.72,1191.59 1574.77,1149.87 1576.82,1183.42 1578.88,1198.97 1580.93,1136.87 1582.98,1171.54 1585.04,1026.67 1587.09,1144.81 1589.14,1142.32 1591.19,1253.7 1593.25,1107.51 1595.3,1137.84 1597.35,1152.12 1599.41,1144.62 1601.46,1149.89 1603.51,1142.6 1605.56,1116.71 1607.62,1302.92 1609.67,1225.82 1611.72,1200.63 1613.78,1198.7 1615.83,1203.11 1617.88,1067.41 1619.94,1143.18 1621.99,1178.63 1624.04,1195.52 1626.09,1142.01 1628.15,1116.06 1630.2,1142.83 1632.25,1172.03 1634.31,1159.02 1636.36,1102.67 1638.41,1204.66 1640.46,1127.5 1642.52,1179.55 1644.57,1172.66 1646.62,1189.13 1648.68,1154.59 1650.73,1157.07 1652.78,1182.29 1654.83,1176.14 1656.89,1150.9 1658.94,1156.17 1660.99,1116.04 1663.05,1191.53 1665.1,1129.52 1667.15,1207.08 1669.2,1142.9 1671.26,1204.05 1673.31,1216.43 1675.36,1132.07 1677.42,1013.28 1679.47,1210.51 1681.52,1142.71 1683.57,1195.99 1685.63,1251.33 1687.68,1220.87 1689.73,1143.7 1691.79,1332.47 1693.84,1140.09 1695.89,1237.56 1697.94,1166.32 1700,1119.51 1702.05,1124.41 1704.1,1176.09 1706.16,1145.19 1708.21,1165.16 1710.26,1143.49 1712.32,1135.35 1714.37,1179.62 1716.42,1162.85 1718.47,1164.43 1720.53,1164.81 1722.58,1072.37 1724.63,885.237 1726.69,1177.67 1728.74,1154.08 1730.79,1180.14 1732.84,1207.24 1734.9,1122.39 1736.95,1190.4 1739,1192.56 1741.06,1148.38 1743.11,1247.31 1745.16,1155.86 1747.21,1157.57 1749.27,1140.45 1751.32,1187.64 1753.37,1195.34 1755.43,1151.73 1757.48,1057.19 1759.53,1140.27 1761.58,1163.73 1763.64,1171.67 1765.69,1173.83 1767.74,1146.79 1769.8,1168.39 1771.85,1176.08 1773.9,1149.99 1775.95,1103.11 1778.01,1084.31 1780.06,1650.21 1782.11,725.232 1784.17,1370.4 1786.22,1381.68 1788.27,1245.68 1790.33,1212.63 1792.38,1293.91 1794.43,1230.01 1796.48,1217.91 1798.54,1067.79 1800.59,783.812 1802.64,1187.36 1804.7,1207.31 1806.75,1173.25 1808.8,912.311 1810.85,1088.02 1812.91,1235.14 1814.96,1233.57 1817.01,712.425 1819.07,465.284 1821.12,3918.75 1823.17,599.09 1825.22,2683.5 1827.28,1960.45 1829.33,941.735 1831.38,3793.39 1833.44,-2136.52 1835.49,1121.21 1837.54,1612.62 1839.59,1279.13 1841.65,1115.18 1843.7,1087.55 1845.75,895.286 1847.81,786.282 1849.86,1445.52 1851.91,1055.84 1853.96,1285.61 1856.02,1136.6 1858.07,1110.24 1860.12,1182.83 1862.18,1139.03 1864.23,1159.08 1866.28,1139.24 1868.34,1165.23 1870.39,1172.23 1872.44,1091.73 1874.49,1152.96 1876.55,1163.65 1878.6,1128.71 1880.65,1130 1882.71,1187.22 1884.76,1202.73 1886.81,1195.7 1888.86,1201.29 1890.92,1127.97 1892.97,1185.66 1895.02,1194.13 1897.08,1163.72 1899.13,1162.57 1901.18,1154.52 1903.23,1220.64 1905.29,1163.68 1907.34,1150.8 1909.39,1318.78 1911.45,1136.52 1913.5,1126.69 1915.55,1261.43 1917.6,1220.55 1919.66,1238.37 1921.71,1716.27 1923.76,2569.23 1925.82,1301.25 1927.87,1026.01 1929.92,1126.78 1931.97,1197.43 1934.03,1157.46 1936.08,1169.12 1938.13,1000.1 1940.19,1159.06 1942.24,1147.43 1944.29,1135.34 1946.34,1218.96 1948.4,1243.78 1950.45,1155.34 1952.5,1178.37 1954.56,1191.26 1956.61,1245.54 1958.66,1084.93 1960.72,1205.59 1962.77,1230.34 1964.82,1118.89 1966.87,1109.54 1968.93,1205.68 1970.98,1215.67 1973.03,1212.42 1975.09,1151.9 1977.14,1180.59 1979.19,1166.52 1981.24,1264.73 1983.3,1264.99 1985.35,1201.71 1987.4,1171.82 1989.46,1169.69 1991.51,1178.25 1993.56,1009.48 1995.61,1063.2 1997.67,1217.36 1999.72,1125.45 2001.77,1127.8 2003.83,1188.46 2005.88,1193.37 2007.93,1227.1 2009.98,1196.64 2012.04,1176.22 2014.09,1188.76 2016.14,1225.4 2018.2,1146.62 2020.25,1132.43 2022.3,1129.35 2024.35,1261.65 2026.41,1169.64 2028.46,1176.96 2030.51,1160.49 2032.57,1176.45 2034.62,1173.29 2036.67,1139.15 2038.73,1195.52 2040.78,1148.42 2042.83,1177.7 2044.88,1136.04 2046.94,1193.56 2048.99,1102.93 2051.04,1216.8 2053.1,1165.03 2055.15,1172.88 2057.2,1176.12 2059.25,507.281 2061.31,1018.15 2063.36,974.98 2065.41,1285.29 2067.47,1148.29 2069.52,1247.19 2071.57,1172.98 2073.62,1170.91 2075.68,981.915 2077.73,1258.24 2079.78,1878.71 2081.84,1659.89 2083.89,1152.39 2085.94,1199.02 2087.99,1237.69 2090.05,1258.53 2092.1,1188.37 2094.15,1177.21 2096.21,1292.55 2098.26,1101.25 2100.31,1157.62 2102.36,1101.96 2104.42,1112.22 2106.47,1078.07 2108.52,1048.38 2110.58,1191.53 2112.63,1175.29 2114.68,1169.61 2116.73,1175.07 2118.79,1160.2 2120.84,1208.93 2122.89,1086.86 2124.95,1136.78 2127,1197.23 2129.05,1206.79 2131.11,1127.68 2133.16,1208.54 2135.21,1156.64 2137.26,1174.83 2139.32,1160.42 2141.37,1201.34 2143.42,1190.6 2145.48,1386.31 2147.53,1901.31 2149.58,1156.29 2151.63,1185.65 2153.69,1156.22 2155.74,1193.91 2157.79,1115.22 2159.85,1220.99 2161.9,1149.4 2163.95,1139.28 2166,1145.03 2168.06,1146.27 2170.11,1139.72 2172.16,1156.61 2174.22,1241.92 2176.27,1239.8 2178.32,1273.82 2180.37,1197.63 2182.43,1179.42 2184.48,1161.69 2186.53,1152.46 2188.59,1185.75 2190.64,1183.58 2192.69,1153.66 2194.74,1187.83 2196.8,1191.47 2198.85,1184.67 2200.9,1160.22 2202.96,1197.63 2205.01,1223.23 2207.06,1265.69 2209.12,1360.51 2211.17,1236.07 2213.22,1194.67 2215.27,1172.28 2217.33,1143.75 2219.38,1328.68 2221.43,1156.15 2223.49,1173.24 2225.54,1169.25 2227.59,1165.02 2229.64,1162.16 2231.7,1154.22 2233.75,1126.83 2235.8,1143.78 2237.86,1255.37 2239.91,1286.9 2241.96,1186.17 2244.01,1136.51 2246.07,1175.87 2248.12,1161.38 2250.17,1194.33 2252.23,1217.17 2254.28,1137.73 2256.33,1180.17 2258.38,1200.51 2260.44,1069.28 2262.49,1236.93 2264.54,1201.92 2266.6,1210.62 2268.65,1262.65 2270.7,1145.05 2272.75,1147.62 2274.81,1111.36 2276.86,1018.12 2278.91,1158.67 2280.97,1093.83 2283.02,1523.35 2285.07,1602.27 2287.12,1058.61 2289.18,1143.32 2291.23,1191.34 "/>
<path clip-path="url(#clip620)" d="M1942.7 972.231 L2280.29 972.231 L2280.29 868.551 L1942.7 868.551  Z" fill="#ffffff" fill-rule="evenodd" fill-opacity="1"/>
<polyline clip-path="url(#clip620)" style="stroke:#000000; stroke-linecap:round; stroke-linejoin:round; stroke-width:4; stroke-opacity:1; fill:none" points="1942.7,972.231 2280.29,972.231 2280.29,868.551 1942.7,868.551 1942.7,972.231 "/>
<polyline clip-path="url(#clip620)" style="stroke:#009af9; stroke-linecap:round; stroke-linejoin:round; stroke-width:4; stroke-opacity:1; fill:none" points="1966.85,920.391 2111.78,920.391 "/>
<path clip-path="url(#clip620)" d="M2161.49 932.74 L2161.49 923.458 L2153.85 923.458 L2153.85 919.615 L2166.12 919.615 L2166.12 934.453 Q2163.41 936.375 2160.14 937.37 Q2156.88 938.342 2153.18 938.342 Q2145.07 938.342 2140.49 933.62 Q2135.93 928.875 2135.93 920.426 Q2135.93 911.953 2140.49 907.231 Q2145.07 902.486 2153.18 902.486 Q2156.56 902.486 2159.59 903.319 Q2162.64 904.153 2165.21 905.773 L2165.21 910.75 Q2162.62 908.551 2159.7 907.44 Q2156.79 906.328 2153.57 906.328 Q2147.23 906.328 2144.03 909.87 Q2140.86 913.412 2140.86 920.426 Q2140.86 927.416 2144.03 930.958 Q2147.23 934.5 2153.57 934.5 Q2156.05 934.5 2157.99 934.083 Q2159.94 933.643 2161.49 932.74 Z" fill="#000000" fill-rule="nonzero" fill-opacity="1" /><path clip-path="url(#clip620)" d="M2179.33 906.953 L2179.33 919.94 L2185.21 919.94 Q2188.48 919.94 2190.26 918.25 Q2192.04 916.56 2192.04 913.435 Q2192.04 910.333 2190.26 908.643 Q2188.48 906.953 2185.21 906.953 L2179.33 906.953 M2174.66 903.111 L2185.21 903.111 Q2191.02 903.111 2193.99 905.75 Q2196.97 908.365 2196.97 913.435 Q2196.97 918.551 2193.99 921.166 Q2191.02 923.782 2185.21 923.782 L2179.33 923.782 L2179.33 937.671 L2174.66 937.671 L2174.66 903.111 Z" fill="#000000" fill-rule="nonzero" fill-opacity="1" /><path clip-path="url(#clip620)" d="M2223.96 904.245 L2223.96 908.805 Q2221.3 907.532 2218.94 906.907 Q2216.58 906.282 2214.38 906.282 Q2210.56 906.282 2208.48 907.764 Q2206.42 909.245 2206.42 911.977 Q2206.42 914.268 2207.78 915.449 Q2209.17 916.606 2213.01 917.324 L2215.84 917.902 Q2221.07 918.898 2223.55 921.421 Q2226.05 923.921 2226.05 928.134 Q2226.05 933.157 2222.67 935.75 Q2219.31 938.342 2212.81 938.342 Q2210.35 938.342 2207.57 937.787 Q2204.82 937.231 2201.86 936.143 L2201.86 931.328 Q2204.7 932.926 2207.44 933.736 Q2210.17 934.546 2212.81 934.546 Q2216.81 934.546 2218.99 932.972 Q2221.16 931.398 2221.16 928.481 Q2221.16 925.935 2219.59 924.5 Q2218.04 923.064 2214.47 922.347 L2211.62 921.791 Q2206.39 920.75 2204.06 918.527 Q2201.72 916.305 2201.72 912.347 Q2201.72 907.764 2204.94 905.125 Q2208.18 902.486 2213.85 902.486 Q2216.28 902.486 2218.8 902.926 Q2221.32 903.366 2223.96 904.245 Z" fill="#000000" fill-rule="nonzero" fill-opacity="1" /><path clip-path="url(#clip620)" d="M2254.06 904.245 L2254.06 908.805 Q2251.39 907.532 2249.03 906.907 Q2246.67 906.282 2244.47 906.282 Q2240.65 906.282 2238.57 907.764 Q2236.51 909.245 2236.51 911.977 Q2236.51 914.268 2237.87 915.449 Q2239.26 916.606 2243.11 917.324 L2245.93 917.902 Q2251.16 918.898 2253.64 921.421 Q2256.14 923.921 2256.14 928.134 Q2256.14 933.157 2252.76 935.75 Q2249.4 938.342 2242.9 938.342 Q2240.44 938.342 2237.67 937.787 Q2234.91 937.231 2231.95 936.143 L2231.95 931.328 Q2234.8 932.926 2237.53 933.736 Q2240.26 934.546 2242.9 934.546 Q2246.9 934.546 2249.08 932.972 Q2251.25 931.398 2251.25 928.481 Q2251.25 925.935 2249.68 924.5 Q2248.13 923.064 2244.56 922.347 L2241.72 921.791 Q2236.49 920.75 2234.15 918.527 Q2231.81 916.305 2231.81 912.347 Q2231.81 907.764 2235.03 905.125 Q2238.27 902.486 2243.94 902.486 Q2246.37 902.486 2248.89 902.926 Q2251.42 903.366 2254.06 904.245 Z" fill="#000000" fill-rule="nonzero" fill-opacity="1" /></svg>
