<?xml version="1.0" encoding="utf-8"?>
<svg xmlns="http://www.w3.org/2000/svg" xmlns:xlink="http://www.w3.org/1999/xlink" width="600" height="400" viewBox="0 0 2400 1600">
<defs>
  <clipPath id="clip380">
    <rect x="0" y="0" width="2400" height="1600"/>
  </clipPath>
</defs>
<path clip-path="url(#clip380)" d="M0 1600 L2400 1600 L2400 0 L0 0  Z" fill="#ffffff" fill-rule="evenodd" fill-opacity="1"/>
<defs>
  <clipPath id="clip381">
    <rect x="242" y="47" width="2112" height="1377"/>
  </clipPath>
</defs>
<path clip-path="url(#clip380)" d="M178.867 686.448 L2352.76 686.448 L2352.76 47.2441 L178.867 47.2441  Z" fill="#ffffff" fill-rule="evenodd" fill-opacity="1"/>
<defs>
  <clipPath id="clip382">
    <rect x="178" y="47" width="2175" height="640"/>
  </clipPath>
</defs>
<polyline clip-path="url(#clip382)" style="stroke:#000000; stroke-linecap:round; stroke-linejoin:round; stroke-width:2; stroke-opacity:0.1; fill:none" points="238.339,686.448 238.339,47.2441 "/>
<polyline clip-path="url(#clip382)" style="stroke:#000000; stroke-linecap:round; stroke-linejoin:round; stroke-width:2; stroke-opacity:0.1; fill:none" points="751.562,686.448 751.562,47.2441 "/>
<polyline clip-path="url(#clip382)" style="stroke:#000000; stroke-linecap:round; stroke-linejoin:round; stroke-width:2; stroke-opacity:0.1; fill:none" points="1264.78,686.448 1264.78,47.2441 "/>
<polyline clip-path="url(#clip382)" style="stroke:#000000; stroke-linecap:round; stroke-linejoin:round; stroke-width:2; stroke-opacity:0.1; fill:none" points="1778.01,686.448 1778.01,47.2441 "/>
<polyline clip-path="url(#clip382)" style="stroke:#000000; stroke-linecap:round; stroke-linejoin:round; stroke-width:2; stroke-opacity:0.1; fill:none" points="2291.23,686.448 2291.23,47.2441 "/>
<polyline clip-path="url(#clip382)" style="stroke:#000000; stroke-linecap:round; stroke-linejoin:round; stroke-width:2; stroke-opacity:0.1; fill:none" points="178.867,686.448 2352.76,686.448 "/>
<polyline clip-path="url(#clip382)" style="stroke:#000000; stroke-linecap:round; stroke-linejoin:round; stroke-width:2; stroke-opacity:0.1; fill:none" points="178.867,526.647 2352.76,526.647 "/>
<polyline clip-path="url(#clip382)" style="stroke:#000000; stroke-linecap:round; stroke-linejoin:round; stroke-width:2; stroke-opacity:0.1; fill:none" points="178.867,366.846 2352.76,366.846 "/>
<polyline clip-path="url(#clip382)" style="stroke:#000000; stroke-linecap:round; stroke-linejoin:round; stroke-width:2; stroke-opacity:0.1; fill:none" points="178.867,207.045 2352.76,207.045 "/>
<polyline clip-path="url(#clip382)" style="stroke:#000000; stroke-linecap:round; stroke-linejoin:round; stroke-width:2; stroke-opacity:0.1; fill:none" points="178.867,47.2441 2352.76,47.2441 "/>
<polyline clip-path="url(#clip380)" style="stroke:#000000; stroke-linecap:round; stroke-linejoin:round; stroke-width:4; stroke-opacity:1; fill:none" points="178.867,686.448 2352.76,686.448 "/>
<polyline clip-path="url(#clip380)" style="stroke:#000000; stroke-linecap:round; stroke-linejoin:round; stroke-width:4; stroke-opacity:1; fill:none" points="238.339,686.448 238.339,667.55 "/>
<polyline clip-path="url(#clip380)" style="stroke:#000000; stroke-linecap:round; stroke-linejoin:round; stroke-width:4; stroke-opacity:1; fill:none" points="751.562,686.448 751.562,667.55 "/>
<polyline clip-path="url(#clip380)" style="stroke:#000000; stroke-linecap:round; stroke-linejoin:round; stroke-width:4; stroke-opacity:1; fill:none" points="1264.78,686.448 1264.78,667.55 "/>
<polyline clip-path="url(#clip380)" style="stroke:#000000; stroke-linecap:round; stroke-linejoin:round; stroke-width:4; stroke-opacity:1; fill:none" points="1778.01,686.448 1778.01,667.55 "/>
<polyline clip-path="url(#clip380)" style="stroke:#000000; stroke-linecap:round; stroke-linejoin:round; stroke-width:4; stroke-opacity:1; fill:none" points="2291.23,686.448 2291.23,667.55 "/>
<path clip-path="url(#clip380)" d="M238.339 717.367 Q234.728 717.367 232.899 720.931 Q231.094 724.473 231.094 731.603 Q231.094 738.709 232.899 742.274 Q234.728 745.815 238.339 745.815 Q241.973 745.815 243.779 742.274 Q245.607 738.709 245.607 731.603 Q245.607 724.473 243.779 720.931 Q241.973 717.367 238.339 717.367 M238.339 713.663 Q244.149 713.663 247.205 718.269 Q250.283 722.853 250.283 731.603 Q250.283 740.329 247.205 744.936 Q244.149 749.519 238.339 749.519 Q232.529 749.519 229.45 744.936 Q226.395 740.329 226.395 731.603 Q226.395 722.853 229.45 718.269 Q232.529 713.663 238.339 713.663 Z" fill="#000000" fill-rule="nonzero" fill-opacity="1" /><path clip-path="url(#clip380)" d="M715.254 744.913 L731.574 744.913 L731.574 748.848 L709.629 748.848 L709.629 744.913 Q712.291 742.158 716.875 737.528 Q721.481 732.876 722.662 731.533 Q724.907 729.01 725.787 727.274 Q726.689 725.515 726.689 723.825 Q726.689 721.07 724.745 719.334 Q722.824 717.598 719.722 717.598 Q717.523 717.598 715.069 718.362 Q712.638 719.126 709.861 720.677 L709.861 715.955 Q712.685 714.82 715.138 714.242 Q717.592 713.663 719.629 713.663 Q725 713.663 728.194 716.348 Q731.388 719.033 731.388 723.524 Q731.388 725.654 730.578 727.575 Q729.791 729.473 727.685 732.066 Q727.106 732.737 724.004 735.954 Q720.902 739.149 715.254 744.913 Z" fill="#000000" fill-rule="nonzero" fill-opacity="1" /><path clip-path="url(#clip380)" d="M741.435 714.288 L759.791 714.288 L759.791 718.223 L745.717 718.223 L745.717 726.695 Q746.736 726.348 747.754 726.186 Q748.773 726.001 749.791 726.001 Q755.578 726.001 758.958 729.172 Q762.337 732.343 762.337 737.76 Q762.337 743.339 758.865 746.44 Q755.393 749.519 749.073 749.519 Q746.898 749.519 744.629 749.149 Q742.384 748.778 739.976 748.038 L739.976 743.339 Q742.06 744.473 744.282 745.028 Q746.504 745.584 748.981 745.584 Q752.985 745.584 755.323 743.478 Q757.661 741.371 757.661 737.76 Q757.661 734.149 755.323 732.042 Q752.985 729.936 748.981 729.936 Q747.106 729.936 745.231 730.353 Q743.379 730.769 741.435 731.649 L741.435 714.288 Z" fill="#000000" fill-rule="nonzero" fill-opacity="1" /><path clip-path="url(#clip380)" d="M781.55 717.367 Q777.939 717.367 776.11 720.931 Q774.305 724.473 774.305 731.603 Q774.305 738.709 776.11 742.274 Q777.939 745.815 781.55 745.815 Q785.184 745.815 786.99 742.274 Q788.819 738.709 788.819 731.603 Q788.819 724.473 786.99 720.931 Q785.184 717.367 781.55 717.367 M781.55 713.663 Q787.36 713.663 790.416 718.269 Q793.495 722.853 793.495 731.603 Q793.495 740.329 790.416 744.936 Q787.36 749.519 781.55 749.519 Q775.74 749.519 772.661 744.936 Q769.606 740.329 769.606 731.603 Q769.606 722.853 772.661 718.269 Q775.74 713.663 781.55 713.663 Z" fill="#000000" fill-rule="nonzero" fill-opacity="1" /><path clip-path="url(#clip380)" d="M1224.4 714.288 L1242.76 714.288 L1242.76 718.223 L1228.69 718.223 L1228.69 726.695 Q1229.7 726.348 1230.72 726.186 Q1231.74 726.001 1232.76 726.001 Q1238.55 726.001 1241.93 729.172 Q1245.31 732.343 1245.31 737.76 Q1245.31 743.339 1241.83 746.44 Q1238.36 749.519 1232.04 749.519 Q1229.87 749.519 1227.6 749.149 Q1225.35 748.778 1222.94 748.038 L1222.94 743.339 Q1225.03 744.473 1227.25 745.028 Q1229.47 745.584 1231.95 745.584 Q1235.95 745.584 1238.29 743.478 Q1240.63 741.371 1240.63 737.76 Q1240.63 734.149 1238.29 732.042 Q1235.95 729.936 1231.95 729.936 Q1230.07 729.936 1228.2 730.353 Q1226.35 730.769 1224.4 731.649 L1224.4 714.288 Z" fill="#000000" fill-rule="nonzero" fill-opacity="1" /><path clip-path="url(#clip380)" d="M1264.52 717.367 Q1260.91 717.367 1259.08 720.931 Q1257.27 724.473 1257.27 731.603 Q1257.27 738.709 1259.08 742.274 Q1260.91 745.815 1264.52 745.815 Q1268.15 745.815 1269.96 742.274 Q1271.79 738.709 1271.79 731.603 Q1271.79 724.473 1269.96 720.931 Q1268.15 717.367 1264.52 717.367 M1264.52 713.663 Q1270.33 713.663 1273.38 718.269 Q1276.46 722.853 1276.46 731.603 Q1276.46 740.329 1273.38 744.936 Q1270.33 749.519 1264.52 749.519 Q1258.71 749.519 1255.63 744.936 Q1252.57 740.329 1252.57 731.603 Q1252.57 722.853 1255.63 718.269 Q1258.71 713.663 1264.52 713.663 Z" fill="#000000" fill-rule="nonzero" fill-opacity="1" /><path clip-path="url(#clip380)" d="M1294.68 717.367 Q1291.07 717.367 1289.24 720.931 Q1287.44 724.473 1287.44 731.603 Q1287.44 738.709 1289.24 742.274 Q1291.07 745.815 1294.68 745.815 Q1298.31 745.815 1300.12 742.274 Q1301.95 738.709 1301.95 731.603 Q1301.95 724.473 1300.12 720.931 Q1298.31 717.367 1294.68 717.367 M1294.68 713.663 Q1300.49 713.663 1303.55 718.269 Q1306.62 722.853 1306.62 731.603 Q1306.62 740.329 1303.55 744.936 Q1300.49 749.519 1294.68 749.519 Q1288.87 749.519 1285.79 744.936 Q1282.74 740.329 1282.74 731.603 Q1282.74 722.853 1285.79 718.269 Q1288.87 713.663 1294.68 713.663 Z" fill="#000000" fill-rule="nonzero" fill-opacity="1" /><path clip-path="url(#clip380)" d="M1736.28 714.288 L1758.51 714.288 L1758.51 716.279 L1745.96 748.848 L1741.08 748.848 L1752.88 718.223 L1736.28 718.223 L1736.28 714.288 Z" fill="#000000" fill-rule="nonzero" fill-opacity="1" /><path clip-path="url(#clip380)" d="M1767.67 714.288 L1786.03 714.288 L1786.03 718.223 L1771.95 718.223 L1771.95 726.695 Q1772.97 726.348 1773.99 726.186 Q1775.01 726.001 1776.03 726.001 Q1781.82 726.001 1785.2 729.172 Q1788.57 732.343 1788.57 737.76 Q1788.57 743.339 1785.1 746.44 Q1781.63 749.519 1775.31 749.519 Q1773.14 749.519 1770.87 749.149 Q1768.62 748.778 1766.21 748.038 L1766.21 743.339 Q1768.3 744.473 1770.52 745.028 Q1772.74 745.584 1775.22 745.584 Q1779.22 745.584 1781.56 743.478 Q1783.9 741.371 1783.9 737.76 Q1783.9 734.149 1781.56 732.042 Q1779.22 729.936 1775.22 729.936 Q1773.34 729.936 1771.47 730.353 Q1769.62 730.769 1767.67 731.649 L1767.67 714.288 Z" fill="#000000" fill-rule="nonzero" fill-opacity="1" /><path clip-path="url(#clip380)" d="M1807.79 717.367 Q1804.18 717.367 1802.35 720.931 Q1800.54 724.473 1800.54 731.603 Q1800.54 738.709 1802.35 742.274 Q1804.18 745.815 1807.79 745.815 Q1811.42 745.815 1813.23 742.274 Q1815.06 738.709 1815.06 731.603 Q1815.06 724.473 1813.23 720.931 Q1811.42 717.367 1807.79 717.367 M1807.79 713.663 Q1813.6 713.663 1816.65 718.269 Q1819.73 722.853 1819.73 731.603 Q1819.73 740.329 1816.65 744.936 Q1813.6 749.519 1807.79 749.519 Q1801.98 749.519 1798.9 744.936 Q1795.84 740.329 1795.84 731.603 Q1795.84 722.853 1798.9 718.269 Q1801.98 713.663 1807.79 713.663 Z" fill="#000000" fill-rule="nonzero" fill-opacity="1" /><path clip-path="url(#clip380)" d="M2235.76 744.913 L2243.4 744.913 L2243.4 718.547 L2235.09 720.214 L2235.09 715.955 L2243.35 714.288 L2248.02 714.288 L2248.02 744.913 L2255.66 744.913 L2255.66 748.848 L2235.76 748.848 L2235.76 744.913 Z" fill="#000000" fill-rule="nonzero" fill-opacity="1" /><path clip-path="url(#clip380)" d="M2275.11 717.367 Q2271.5 717.367 2269.67 720.931 Q2267.86 724.473 2267.86 731.603 Q2267.86 738.709 2269.67 742.274 Q2271.5 745.815 2275.11 745.815 Q2278.74 745.815 2280.55 742.274 Q2282.38 738.709 2282.38 731.603 Q2282.38 724.473 2280.55 720.931 Q2278.74 717.367 2275.11 717.367 M2275.11 713.663 Q2280.92 713.663 2283.97 718.269 Q2287.05 722.853 2287.05 731.603 Q2287.05 740.329 2283.97 744.936 Q2280.92 749.519 2275.11 749.519 Q2269.3 749.519 2266.22 744.936 Q2263.16 740.329 2263.16 731.603 Q2263.16 722.853 2266.22 718.269 Q2269.3 713.663 2275.11 713.663 Z" fill="#000000" fill-rule="nonzero" fill-opacity="1" /><path clip-path="url(#clip380)" d="M2305.27 717.367 Q2301.66 717.367 2299.83 720.931 Q2298.02 724.473 2298.02 731.603 Q2298.02 738.709 2299.83 742.274 Q2301.66 745.815 2305.27 745.815 Q2308.9 745.815 2310.71 742.274 Q2312.54 738.709 2312.54 731.603 Q2312.54 724.473 2310.71 720.931 Q2308.9 717.367 2305.27 717.367 M2305.27 713.663 Q2311.08 713.663 2314.14 718.269 Q2317.21 722.853 2317.21 731.603 Q2317.21 740.329 2314.14 744.936 Q2311.08 749.519 2305.27 749.519 Q2299.46 749.519 2296.38 744.936 Q2293.33 740.329 2293.33 731.603 Q2293.33 722.853 2296.38 718.269 Q2299.46 713.663 2305.27 713.663 Z" fill="#000000" fill-rule="nonzero" fill-opacity="1" /><path clip-path="url(#clip380)" d="M2335.43 717.367 Q2331.82 717.367 2329.99 720.931 Q2328.19 724.473 2328.19 731.603 Q2328.19 738.709 2329.99 742.274 Q2331.82 745.815 2335.43 745.815 Q2339.07 745.815 2340.87 742.274 Q2342.7 738.709 2342.7 731.603 Q2342.7 724.473 2340.87 720.931 Q2339.07 717.367 2335.43 717.367 M2335.43 713.663 Q2341.24 713.663 2344.3 718.269 Q2347.38 722.853 2347.38 731.603 Q2347.38 740.329 2344.3 744.936 Q2341.24 749.519 2335.43 749.519 Q2329.62 749.519 2326.54 744.936 Q2323.49 740.329 2323.49 731.603 Q2323.49 722.853 2326.54 718.269 Q2329.62 713.663 2335.43 713.663 Z" fill="#000000" fill-rule="nonzero" fill-opacity="1" /><polyline clip-path="url(#clip380)" style="stroke:#000000; stroke-linecap:round; stroke-linejoin:round; stroke-width:4; stroke-opacity:1; fill:none" points="178.867,686.448 178.867,47.2441 "/>
<polyline clip-path="url(#clip380)" style="stroke:#000000; stroke-linecap:round; stroke-linejoin:round; stroke-width:4; stroke-opacity:1; fill:none" points="178.867,686.448 197.764,686.448 "/>
<polyline clip-path="url(#clip380)" style="stroke:#000000; stroke-linecap:round; stroke-linejoin:round; stroke-width:4; stroke-opacity:1; fill:none" points="178.867,526.647 197.764,526.647 "/>
<polyline clip-path="url(#clip380)" style="stroke:#000000; stroke-linecap:round; stroke-linejoin:round; stroke-width:4; stroke-opacity:1; fill:none" points="178.867,366.846 197.764,366.846 "/>
<polyline clip-path="url(#clip380)" style="stroke:#000000; stroke-linecap:round; stroke-linejoin:round; stroke-width:4; stroke-opacity:1; fill:none" points="178.867,207.045 197.764,207.045 "/>
<polyline clip-path="url(#clip380)" style="stroke:#000000; stroke-linecap:round; stroke-linejoin:round; stroke-width:4; stroke-opacity:1; fill:none" points="178.867,47.2441 197.764,47.2441 "/>
<path clip-path="url(#clip380)" d="M50.9921 686.899 L80.6679 686.899 L80.6679 690.834 L50.9921 690.834 L50.9921 686.899 Z" fill="#000000" fill-rule="nonzero" fill-opacity="1" /><path clip-path="url(#clip380)" d="M91.5706 699.793 L99.2095 699.793 L99.2095 673.427 L90.8993 675.094 L90.8993 670.835 L99.1632 669.168 L103.839 669.168 L103.839 699.793 L111.478 699.793 L111.478 703.728 L91.5706 703.728 L91.5706 699.793 Z" fill="#000000" fill-rule="nonzero" fill-opacity="1" /><path clip-path="url(#clip380)" d="M130.922 672.247 Q127.311 672.247 125.482 675.811 Q123.677 679.353 123.677 686.483 Q123.677 693.589 125.482 697.154 Q127.311 700.695 130.922 700.695 Q134.556 700.695 136.362 697.154 Q138.191 693.589 138.191 686.483 Q138.191 679.353 136.362 675.811 Q134.556 672.247 130.922 672.247 M130.922 668.543 Q136.732 668.543 139.788 673.149 Q142.867 677.733 142.867 686.483 Q142.867 695.209 139.788 699.816 Q136.732 704.399 130.922 704.399 Q125.112 704.399 122.033 699.816 Q118.978 695.209 118.978 686.483 Q118.978 677.733 122.033 673.149 Q125.112 668.543 130.922 668.543 Z" fill="#000000" fill-rule="nonzero" fill-opacity="1" /><path clip-path="url(#clip380)" d="M82.1494 527.098 L111.825 527.098 L111.825 531.033 L82.1494 531.033 L82.1494 527.098 Z" fill="#000000" fill-rule="nonzero" fill-opacity="1" /><path clip-path="url(#clip380)" d="M121.964 509.367 L140.32 509.367 L140.32 513.302 L126.246 513.302 L126.246 521.774 Q127.265 521.427 128.283 521.265 Q129.302 521.08 130.32 521.08 Q136.107 521.08 139.487 524.251 Q142.867 527.422 142.867 532.839 Q142.867 538.418 139.394 541.52 Q135.922 544.598 129.603 544.598 Q127.427 544.598 125.158 544.228 Q122.913 543.857 120.506 543.117 L120.506 538.418 Q122.589 539.552 124.811 540.108 Q127.033 540.663 129.51 540.663 Q133.515 540.663 135.853 538.557 Q138.191 536.45 138.191 532.839 Q138.191 529.228 135.853 527.121 Q133.515 525.015 129.51 525.015 Q127.635 525.015 125.76 525.432 Q123.908 525.848 121.964 526.728 L121.964 509.367 Z" fill="#000000" fill-rule="nonzero" fill-opacity="1" /><path clip-path="url(#clip380)" d="M130.922 352.645 Q127.311 352.645 125.482 356.209 Q123.677 359.751 123.677 366.881 Q123.677 373.987 125.482 377.552 Q127.311 381.094 130.922 381.094 Q134.556 381.094 136.362 377.552 Q138.191 373.987 138.191 366.881 Q138.191 359.751 136.362 356.209 Q134.556 352.645 130.922 352.645 M130.922 348.941 Q136.732 348.941 139.788 353.547 Q142.867 358.131 142.867 366.881 Q142.867 375.608 139.788 380.214 Q136.732 384.797 130.922 384.797 Q125.112 384.797 122.033 380.214 Q118.978 375.608 118.978 366.881 Q118.978 358.131 122.033 353.547 Q125.112 348.941 130.922 348.941 Z" fill="#000000" fill-rule="nonzero" fill-opacity="1" /><path clip-path="url(#clip380)" d="M121.964 189.765 L140.32 189.765 L140.32 193.7 L126.246 193.7 L126.246 202.172 Q127.265 201.825 128.283 201.663 Q129.302 201.478 130.32 201.478 Q136.107 201.478 139.487 204.649 Q142.867 207.82 142.867 213.237 Q142.867 218.816 139.394 221.918 Q135.922 224.996 129.603 224.996 Q127.427 224.996 125.158 224.626 Q122.913 224.256 120.506 223.515 L120.506 218.816 Q122.589 219.95 124.811 220.506 Q127.033 221.061 129.51 221.061 Q133.515 221.061 135.853 218.955 Q138.191 216.848 138.191 213.237 Q138.191 209.626 135.853 207.52 Q133.515 205.413 129.51 205.413 Q127.635 205.413 125.76 205.83 Q123.908 206.246 121.964 207.126 L121.964 189.765 Z" fill="#000000" fill-rule="nonzero" fill-opacity="1" /><path clip-path="url(#clip380)" d="M91.5706 60.5889 L99.2095 60.5889 L99.2095 34.2233 L90.8993 35.89 L90.8993 31.6308 L99.1632 29.9641 L103.839 29.9641 L103.839 60.5889 L111.478 60.5889 L111.478 64.5241 L91.5706 64.5241 L91.5706 60.5889 Z" fill="#000000" fill-rule="nonzero" fill-opacity="1" /><path clip-path="url(#clip380)" d="M130.922 33.0428 Q127.311 33.0428 125.482 36.6076 Q123.677 40.1492 123.677 47.2788 Q123.677 54.3853 125.482 57.9501 Q127.311 61.4917 130.922 61.4917 Q134.556 61.4917 136.362 57.9501 Q138.191 54.3853 138.191 47.2788 Q138.191 40.1492 136.362 36.6076 Q134.556 33.0428 130.922 33.0428 M130.922 29.3391 Q136.732 29.3391 139.788 33.9456 Q142.867 38.5289 142.867 47.2788 Q142.867 56.0056 139.788 60.6121 Q136.732 65.1954 130.922 65.1954 Q125.112 65.1954 122.033 60.6121 Q118.978 56.0056 118.978 47.2788 Q118.978 38.5289 122.033 33.9456 Q125.112 29.3391 130.922 29.3391 Z" fill="#000000" fill-rule="nonzero" fill-opacity="1" /><polyline clip-path="url(#clip382)" style="stroke:#009af9; stroke-linecap:round; stroke-linejoin:round; stroke-width:4; stroke-opacity:1; fill:none" points="240.392,334.886 242.445,334.932 244.498,334.578 246.55,339.529 248.603,369.778 250.656,364.832 252.709,365.141 254.762,369.195 256.815,371.718 258.868,400.287 260.921,413.487 262.974,446.691 265.027,448.223 267.079,446.62 269.132,439.206 271.185,438.389 273.238,438.333 275.291,434.966 277.344,436.728 279.397,406.619 281.45,407.647 283.503,407.907 285.555,407.011 287.608,408.112 289.661,401.11 291.714,329.646 293.767,329.438 295.82,341.375 297.873,379.904 299.926,380.592 301.979,391.593 304.031,390.293 306.084,390.429 308.137,388.627 310.19,400.371 312.243,399.09 314.296,397.876 316.349,386.384 318.402,387.07 320.455,387.101 322.507,385.847 324.56,385.846 326.613,387.586 328.666,376.616 330.719,366.561 332.772,339.29 334.825,335.499 336.878,336.686 338.931,323.539 340.984,323.081 343.036,319.01 345.089,318.604 347.142,321.441 349.195,321.669 351.248,350.535 353.301,350.414 355.354,348.724 357.407,328.458 359.46,328.458 361.512,328.422 363.565,337.118 365.618,353.757 367.671,354.447 369.724,352.748 371.777,352.869 373.83,355.662 375.883,359.536 377.936,369.769 379.988,383.148 382.041,387.005 384.094,387.716 386.147,387.345 388.2,387.281 390.253,388.192 392.306,385.568 394.359,385.207 396.412,386.311 398.464,400.599 400.517,396.814 402.57,397.262 404.623,398.788 406.676,398.973 408.729,375.747 410.782,348.666 412.835,348.649 414.888,348.184 416.94,350.896 418.993,354.363 421.046,354.512 423.099,370.677 425.152,373.746 427.205,388.798 429.258,366.556 431.311,366.417 433.364,347.03 435.417,349.327 437.469,357.719 439.522,358.568 441.575,357.722 443.628,358.611 445.681,394.835 447.734,380.266 449.787,385.134 451.84,384.457 453.893,401.425 455.945,397.391 457.998,394.337 460.051,393.514 462.104,393.183 464.157,393.171 466.21,390.871 468.263,391.489 470.316,392.11 472.369,392.71 474.421,390.517 476.474,393.932 478.527,393.94 480.58,394.646 482.633,366.808 484.686,367.199 486.739,369.244 488.792,357.013 490.845,356.526 492.897,355.893 494.95,356.039 497.003,363.644 499.056,361.179 501.109,368.008 503.162,369.743 505.215,402.414 507.268,401.441 509.321,402.366 511.374,402.824 513.426,400.476 515.479,401.562 517.532,404.693 519.585,404.597 521.638,418.173 523.691,419.743 525.744,405.611 527.797,404.816 529.85,389.591 531.902,389.602 533.955,389.924 536.008,390.344 538.061,391.048 540.114,388.021 542.167,388.912 544.22,389.554 546.273,386.305 548.326,380.197 550.378,380.112 552.431,377.574 554.484,377.148 556.537,377.347 558.59,377.183 560.643,377.189 562.696,368.125 564.749,370.818 566.802,370.879 568.854,370.7 570.907,370.87 572.96,371.774 575.013,371.766 577.066,365.67 579.119,364.929 581.172,358.612 583.225,358.114 585.278,358.027 587.331,357.774 589.383,362.354 591.436,346.087 593.489,350.575 595.542,351.263 597.595,351.215 599.648,351.137 601.701,380.072 603.754,379.151 605.807,375.21 607.859,380.267 609.912,378.165 611.965,378.166 614.018,377.624 616.071,378.895 618.124,378.995 620.177,376.938 622.23,376.011 624.283,375.446 626.335,373.735 628.388,374.642 630.441,371.861 632.494,371.878 634.547,373.181 636.6,373.889 638.653,359.136 640.706,355.736 642.759,355.734 644.811,355.73 646.864,348.562 648.917,346.746 650.97,339.118 653.023,337.8 655.076,334.612 657.129,334.614 659.182,342.671 661.235,342.691 663.288,339.051 665.34,412.498 667.393,419.729 669.446,414.932 671.499,399.022 673.552,399.594 675.605,399.708 677.658,400.208 679.711,398.748 681.764,401.428 683.816,393.12 685.869,393.949 687.922,393.652 689.975,393.703 692.028,392.953 694.081,393.534 696.134,391.221 698.187,391.614 700.24,392.731 702.292,396.973 704.345,353.671 706.398,351.719 708.451,352.025 710.504,410.099 712.557,412.375 714.61,362.138 716.663,366.526 718.716,365.559 720.768,365.359 722.821,364.562 724.874,367.196 726.927,366.366 728.98,363.487 731.033,363.44 733.086,363.248 735.139,363.245 737.192,373.711 739.245,367.289 741.297,351.062 743.35,352.423 745.403,356.987 747.456,364.612 749.509,336.471 751.562,327.972 753.615,327.677 755.668,327.614 757.721,327.586 759.773,317.155 761.826,316.072 763.879,364.924 765.932,362.872 767.985,362.854 770.038,352.96 772.091,353.131 774.144,385.595 776.197,383.922 778.249,350.968 780.302,351.002 782.355,383.101 784.408,373.098 786.461,384.233 788.514,384.233 790.567,365.838 792.62,428.764 794.673,429.806 796.725,425.764 798.778,425.749 800.831,435.846 802.884,435.479 804.937,436.684 806.99,428.621 809.043,437.027 811.096,432.014 813.149,416.165 815.202,415.185 817.254,329.613 819.307,330.811 821.36,356.012 823.413,349.381 825.466,349.345 827.519,347.22 829.572,355.209 831.625,358.451 833.678,352.268 835.73,409.698 837.783,409.817 839.836,403.804 841.889,366.273 843.942,358.347 845.995,340.568 848.048,318.094 850.101,371.792 852.154,352.345 854.206,353.544 856.259,324.306 858.312,327.172 860.365,328.571 862.418,339.718 864.471,340.06 866.524,333.542 868.577,334.754 870.63,327.343 872.682,360.31 874.735,379.043 876.788,410.446 878.841,413.008 880.894,404.414 882.947,402.371 885,382.304 887.053,381.59 889.106,348.942 891.159,350.047 893.211,350.874 895.264,351.437 897.317,359.713 899.37,404.912 901.423,398.544 903.476,396.706 905.529,388.058 907.582,388.665 909.635,389.103 911.687,385.295 913.74,389.963 915.793,396.711 917.846,396.603 919.899,396.764 921.952,397.292 924.005,365.786 926.058,364.89 928.111,362.869 930.163,363.178 932.216,361.046 934.269,371.241 936.322,355.9 938.375,355.196 940.428,356.008 942.481,354.747 944.534,354.647 946.587,355.973 948.639,321.917 950.692,335.71 952.745,337.498 954.798,340.318 956.851,333.257 958.904,327.723 960.957,336.919 963.01,337.415 965.063,324.998 967.116,332.079 969.168,334.243 971.221,334.585 973.274,334.155 975.327,334.95 977.38,349.669 979.433,366.857 981.486,365.863 983.539,383.68 985.592,382.845 987.644,424.981 989.697,420.513 991.75,391.006 993.803,390.958 995.856,390.987 997.909,391.031 999.962,393.036 1002.01,383.298 1004.07,385.49 1006.12,391.177 1008.17,362.629 1010.23,381.047 1012.28,384.483 1014.33,385.138 1016.38,374.248 1018.44,367.929 1020.49,341.706 1022.54,349.08 1024.6,385.88 1026.65,373.854 1028.7,368.51 1030.76,367.295 1032.81,369.915 1034.86,369.649 1036.91,351.982 1038.97,344.494 1041.02,370.482 1043.07,367.117 1045.13,382.436 1047.18,382.505 1049.23,390.22 1051.28,397.348 1053.34,420.128 1055.39,382.91 1057.44,380.976 1059.5,380.962 1061.55,399.664 1063.6,392.161 1065.65,389.471 1067.71,388.999 1069.76,330.922 1071.81,335.951 1073.87,351.337 1075.92,348.863 1077.97,377.485 1080.02,377.561 1082.08,376.11 1084.13,379.977 1086.18,383.249 1088.24,382.488 1090.29,402.232 1092.34,401.261 1094.39,563.254 1096.45,563.529 1098.5,552.565 1100.55,532.081 1102.61,666.812 1104.66,666.958 1106.71,670.676 1108.77,485.947 1110.82,462.526 1112.87,461.312 1114.92,461.212 1116.98,446.313 1119.03,441.391 1121.08,433.737 1123.14,390.228 1125.19,367.714 1127.24,330.431 1129.29,326.619 1131.35,209.638 1133.4,186.726 1135.45,185.831 1137.51,174.611 1139.56,174.414 1141.61,170.333 1143.66,193.622 1145.72,193.848 1147.77,198.248 1149.82,247.422 1151.88,246.883 1153.93,258.136 1155.98,321.786 1158.03,322.384 1160.09,322.886 1162.14,321.754 1164.19,323.764 1166.25,288.528 1168.3,287.151 1170.35,300.433 1172.4,305.085 1174.46,320.936 1176.51,288.01 1178.56,283.756 1180.62,287.307 1182.67,310.864 1184.72,314.207 1186.77,317.348 1188.83,317.427 1190.88,343.602 1192.93,333.588 1194.99,323.234 1197.04,309.466 1199.09,308.724 1201.15,308.01 1203.2,302.669 1205.25,274.995 1207.3,324.547 1209.36,349.918 1211.41,373.648 1213.46,370.535 1215.52,456.423 1217.57,456.359 1219.62,478.031 1221.67,377.368 1223.73,399.049 1225.78,399.033 1227.83,393.809 1229.89,421.091 1231.94,347.806 1233.99,333.995 1236.04,335.769 1238.1,324.054 1240.15,337.37 1242.2,337.494 1244.26,350.207 1246.31,350.849 1248.36,352.277 1250.41,318.174 1252.47,339.689 1254.52,339.731 1256.57,332.382 1258.63,331.13 1260.68,330.512 1262.73,331.653 1264.78,347.73 1266.84,347.739 1268.89,382.771 1270.94,359.808 1273,359.464 1275.05,360.114 1277.1,360.963 1279.16,348.245 1281.21,390.653 1283.26,388.965 1285.31,388.409 1287.37,358.278 1289.42,356.457 1291.47,336.289 1293.53,351.215 1295.58,353.273 1297.63,354.764 1299.68,362.232 1301.74,368.022 1303.79,368.407 1305.84,356.235 1307.9,364.637 1309.95,370.85 1312,382.027 1314.05,378.088 1316.11,377.331 1318.16,377.33 1320.21,377.478 1322.27,369.305 1324.32,367.672 1326.37,367.502 1328.42,371.15 1330.48,371.487 1332.53,368.536 1334.58,370.206 1336.64,361.731 1338.69,361.103 1340.74,372.972 1342.79,345.272 1344.85,348.698 1346.9,361.11 1348.95,361.108 1351.01,361.024 1353.06,362.929 1355.11,362.638 1357.16,337.722 1359.22,335.274 1361.27,326.252 1363.32,326.816 1365.38,321.753 1367.43,326.016 1369.48,325.97 1371.54,339.149 1373.59,334.725 1375.64,343.931 1377.69,341.759 1379.75,393.837 1381.8,392.868 1383.85,392.411 1385.91,385.334 1387.96,376.635 1390.01,388.322 1392.06,406.115 1394.12,390.941 1396.17,395.509 1398.22,381.717 1400.28,381.427 1402.33,381.433 1404.38,396.547 1406.43,403.938 1408.49,406.465 1410.54,403.716 1412.59,406.277 1414.65,400.44 1416.7,440.622 1418.75,477.687 1420.8,338.025 1422.86,339.889 1424.91,341.872 1426.96,341.212 1429.02,357.386 1431.07,352.578 1433.12,329.075 1435.17,330.161 1437.23,344.196 1439.28,352.267 1441.33,353.123 1443.39,318.201 1445.44,318.993 1447.49,324.986 1449.55,323.483 1451.6,316.963 1453.65,318.639 1455.7,344.962 1457.76,299.944 1459.81,298.867 1461.86,278.842 1463.92,279.102 1465.97,265.279 1468.02,265.121 1470.07,296.447 1472.13,380.563 1474.18,345.042 1476.23,281.363 1478.29,308.344 1480.34,338.134 1482.39,487.83 1484.44,438.919 1486.5,446.529 1488.55,394.58 1490.6,391.979 1492.66,387.326 1494.71,394.199 1496.76,336.011 1498.81,345.963 1500.87,344.786 1502.92,336.922 1504.97,351.522 1507.03,408.115 1509.08,363.309 1511.13,380.357 1513.18,264.268 1515.24,241.335 1517.29,277.31 1519.34,293.299 1521.4,288.04 1523.45,299.319 1525.5,330.843 1527.55,279.619 1529.61,273.311 1531.66,273.298 1533.71,273.48 1535.77,316.162 1537.82,315.325 1539.87,309.388 1541.93,317.549 1543.98,317.751 1546.03,291.04 1548.08,393.255 1550.14,393.304 1552.19,398.401 1554.24,371.978 1556.3,350.44 1558.35,354.824 1560.4,357.357 1562.45,353.498 1564.51,353.618 1566.56,385.276 1568.61,400.021 1570.67,399.913 1572.72,402.083 1574.77,402.092 1576.82,317.61 1578.88,316.963 1580.93,312.211 1582.98,312.933 1585.04,312.862 1587.09,329.736 1589.14,338.969 1591.19,336.263 1593.25,334.249 1595.3,318.677 1597.35,315.412 1599.41,386.02 1601.46,399.436 1603.51,399.597 1605.56,401.787 1607.62,401.765 1609.67,380.207 1611.72,378.754 1613.78,392.653 1615.83,388.308 1617.88,388.944 1619.94,389.303 1621.99,389.557 1624.04,389.6 1626.09,391.451 1628.15,407.871 1630.2,407.869 1632.25,407.543 1634.31,401.763 1636.36,402.444 1638.41,401.39 1640.46,405.834 1642.52,376.51 1644.57,373.839 1646.62,374.43 1648.68,373.489 1650.73,373.823 1652.78,380.487 1654.83,380.796 1656.89,380.777 1658.94,379.94 1660.99,382.424 1663.05,382.073 1665.1,383.966 1667.15,383.116 1669.2,379.687 1671.26,379.051 1673.31,390.351 1675.36,390.823 1677.42,391.421 1679.47,400.915 1681.52,386.227 1683.57,387.339 1685.63,379.627 1687.68,380.917 1689.73,380.3 1691.79,380.453 1693.84,383.959 1695.89,391.576 1697.94,391.546 1700,393.312 1702.05,399.361 1704.1,396.952 1706.16,396.954 1708.21,397.331 1710.26,398.069 1712.32,407.347 1714.37,408.064 1716.42,397.887 1718.47,398.897 1720.53,392.086 1722.58,392.854 1724.63,385.867 1726.69,385.049 1728.74,387.344 1730.79,387.338 1732.84,387.348 1734.9,386.57 1736.95,389.056 1739,389.267 1741.06,389.225 1743.11,368.083 1745.16,368.091 1747.21,367.935 1749.27,366.718 1751.32,362.669 1753.37,364.617 1755.43,376.037 1757.48,376.034 1759.53,381.105 1761.58,382.084 1763.64,393.417 1765.69,375.841 1767.74,373.931 1769.8,373.677 1771.85,355.902 1773.9,354.142 1775.95,355.571 1778.01,355.579 1780.06,355.564 1782.11,355.629 1784.17,358.491 1786.22,341.059 1788.27,340.148 1790.33,348.412 1792.38,396.238 1794.43,405.671 1796.48,367.972 1798.54,370.936 1800.59,373.06 1802.64,377.583 1804.7,380.993 1806.75,371.788 1808.8,363.577 1810.85,365.665 1812.91,363.659 1814.96,352.557 1817.01,352.575 1819.07,352.655 1821.12,353.277 1823.17,353.434 1825.22,353.429 1827.28,353.375 1829.33,353.363 1831.38,354.33 1833.44,354.472 1835.49,365.383 1837.54,365.361 1839.59,363.002 1841.65,367.977 1843.7,361.953 1845.75,361.772 1847.81,361.911 1849.86,361.969 1851.91,365.775 1853.96,362.248 1856.02,355.226 1858.07,356.518 1860.12,351.292 1862.18,352.263 1864.23,388.849 1866.28,394.078 1868.34,394.023 1870.39,389.58 1872.44,382.899 1874.49,384.06 1876.55,385.889 1878.6,384.468 1880.65,384.456 1882.71,362.263 1884.76,363.547 1886.81,379.701 1888.86,381.619 1890.92,381.51 1892.97,384.636 1895.02,383.178 1897.08,379.465 1899.13,379.375 1901.18,379.42 1903.23,378.262 1905.29,369.686 1907.34,362.412 1909.39,362.687 1911.45,362.033 1913.5,360.266 1915.55,354.849 1917.6,364.066 1919.66,362.374 1921.71,363.577 1923.76,363.348 1925.82,359.856 1927.87,359.911 1929.92,360.003 1931.97,360.167 1934.03,364.035 1936.08,366.676 1938.13,369.299 1940.19,358.519 1942.24,365.044 1944.29,370.094 1946.34,370.835 1948.4,374.401 1950.45,374.333 1952.5,356.968 1954.56,356.78 1956.61,356.616 1958.66,356.004 1960.72,371.92 1962.77,372.261 1964.82,364.232 1966.87,364.158 1968.93,364.947 1970.98,365.103 1973.03,365.483 1975.09,373.051 1977.14,372.659 1979.19,375.499 1981.24,375.269 1983.3,358.392 1985.35,357.899 1987.4,350.796 1989.46,346.423 1991.51,370.494 1993.56,370.755 1995.61,364.804 1997.67,366.058 1999.72,367.369 2001.77,349.71 2003.83,349.71 2005.88,349.9 2007.93,349.909 2009.98,352.05 2012.04,351.763 2014.09,351.689 2016.14,351.438 2018.2,354.778 2020.25,355.664 2022.3,356.578 2024.35,359.594 2026.41,353.359 2028.46,353.291 2030.51,351.876 2032.57,351.973 2034.62,351.801 2036.67,356.747 2038.73,364.803 2040.78,364.793 2042.83,362.476 2044.88,362.486 2046.94,361.075 2048.99,360.223 2051.04,350.277 2053.1,354.433 2055.15,345.208 2057.2,345.188 2059.25,345.228 2061.31,343.799 2063.36,344.824 2065.41,378.461 2067.47,378.455 2069.52,374.894 2071.57,378.909 2073.62,376.182 2075.68,370.081 2077.73,371.931 2079.78,374.601 2081.84,379.549 2083.89,354.772 2085.94,384.937 2087.99,384.838 2090.05,385.561 2092.1,392.708 2094.15,394.307 2096.21,393.442 2098.26,389.279 2100.31,389.611 2102.36,389.746 2104.42,388.197 2106.47,382.092 2108.52,377.325 2110.58,377.467 2112.63,377.594 2114.68,377.575 2116.73,377.546 2118.79,377.661 2120.84,385.006 2122.89,390.614 2124.95,393.474 2127,395.915 2129.05,379.217 2131.11,379.584 2133.16,362.104 2135.21,364.313 2137.26,379.666 2139.32,370.502 2141.37,353.381 2143.42,353.35 2145.48,352.741 2147.53,355.162 2149.58,336.036 2151.63,336.442 2153.69,336.633 2155.74,337.11 2157.79,335.227 2159.85,338.138 2161.9,340.292 2163.95,339.542 2166,337.254 2168.06,338.802 2170.11,334.8 2172.16,336.55 2174.22,363.539 2176.27,372.89 2178.32,373.111 2180.37,364.719 2182.43,363.117 2184.48,363.233 2186.53,372.477 2188.59,380.24 2190.64,369.878 2192.69,369.204 2194.74,413.306 2196.8,392.896 2198.85,323.328 2200.9,323.264 2202.96,327.625 2205.01,338.481 2207.06,356.453 2209.12,351.624 2211.17,356.128 2213.22,356.192 2215.27,344.462 2217.33,345.602 2219.38,345.609 2221.43,346.994 2223.49,346.412 2225.54,342.56 2227.59,306.077 2229.64,447.09 2231.7,450.754 2233.75,450.047 2235.8,449.588 2237.86,452.678 2239.91,440.246 2241.96,447.47 2244.01,454.457 2246.07,453.804 2248.12,444.387 2250.17,443.835 2252.23,472.853 2254.28,361.039 2256.33,421.509 2258.38,509.029 2260.44,508.714 2262.49,512.217 2264.54,522.622 2266.6,525.141 2268.65,509.362 2270.7,490.687 2272.75,485.773 2274.81,485.416 2276.86,486.682 2278.91,499.597 2280.97,499.171 2283.02,501.902 2285.07,517.432 2287.12,518.796 2289.18,512.322 2291.23,481.983 "/>
<path clip-path="url(#clip380)" d="M1983.6 172.231 L2280.29 172.231 L2280.29 68.5509 L1983.6 68.5509  Z" fill="#ffffff" fill-rule="evenodd" fill-opacity="1"/>
<polyline clip-path="url(#clip380)" style="stroke:#000000; stroke-linecap:round; stroke-linejoin:round; stroke-width:4; stroke-opacity:1; fill:none" points="1983.6,172.231 2280.29,172.231 2280.29,68.5509 1983.6,68.5509 1983.6,172.231 "/>
<polyline clip-path="url(#clip380)" style="stroke:#009af9; stroke-linecap:round; stroke-linejoin:round; stroke-width:4; stroke-opacity:1; fill:none" points="2007.75,120.391 2152.68,120.391 "/>
<path clip-path="url(#clip380)" d="M2176.83 103.111 L2181.51 103.111 L2181.51 133.736 L2198.34 133.736 L2198.34 137.671 L2176.83 137.671 L2176.83 103.111 Z" fill="#000000" fill-rule="nonzero" fill-opacity="1" /><path clip-path="url(#clip380)" d="M2223.96 104.245 L2223.96 108.805 Q2221.3 107.532 2218.94 106.907 Q2216.58 106.282 2214.38 106.282 Q2210.56 106.282 2208.48 107.764 Q2206.42 109.245 2206.42 111.977 Q2206.42 114.268 2207.78 115.449 Q2209.17 116.606 2213.01 117.324 L2215.84 117.902 Q2221.07 118.898 2223.55 121.421 Q2226.05 123.921 2226.05 128.134 Q2226.05 133.157 2222.67 135.75 Q2219.31 138.342 2212.81 138.342 Q2210.35 138.342 2207.57 137.787 Q2204.82 137.231 2201.86 136.143 L2201.86 131.328 Q2204.7 132.926 2207.44 133.736 Q2210.17 134.546 2212.81 134.546 Q2216.81 134.546 2218.99 132.972 Q2221.16 131.398 2221.16 128.481 Q2221.16 125.935 2219.59 124.5 Q2218.04 123.064 2214.47 122.347 L2211.62 121.791 Q2206.39 120.75 2204.06 118.527 Q2201.72 116.305 2201.72 112.347 Q2201.72 107.764 2204.94 105.125 Q2208.18 102.486 2213.85 102.486 Q2216.28 102.486 2218.8 102.926 Q2221.32 103.366 2223.96 104.245 Z" fill="#000000" fill-rule="nonzero" fill-opacity="1" /><path clip-path="url(#clip380)" d="M2254.06 104.245 L2254.06 108.805 Q2251.39 107.532 2249.03 106.907 Q2246.67 106.282 2244.47 106.282 Q2240.65 106.282 2238.57 107.764 Q2236.51 109.245 2236.51 111.977 Q2236.51 114.268 2237.87 115.449 Q2239.26 116.606 2243.11 117.324 L2245.93 117.902 Q2251.16 118.898 2253.64 121.421 Q2256.14 123.921 2256.14 128.134 Q2256.14 133.157 2252.76 135.75 Q2249.4 138.342 2242.9 138.342 Q2240.44 138.342 2237.67 137.787 Q2234.91 137.231 2231.95 136.143 L2231.95 131.328 Q2234.8 132.926 2237.53 133.736 Q2240.26 134.546 2242.9 134.546 Q2246.9 134.546 2249.08 132.972 Q2251.25 131.398 2251.25 128.481 Q2251.25 125.935 2249.68 124.5 Q2248.13 123.064 2244.56 122.347 L2241.72 121.791 Q2236.49 120.75 2234.15 118.527 Q2231.81 116.305 2231.81 112.347 Q2231.81 107.764 2235.03 105.125 Q2238.27 102.486 2243.94 102.486 Q2246.37 102.486 2248.89 102.926 Q2251.42 103.366 2254.06 104.245 Z" fill="#000000" fill-rule="nonzero" fill-opacity="1" /><path clip-path="url(#clip380)" d="M178.867 1486.45 L2352.76 1486.45 L2352.76 847.244 L178.867 847.244  Z" fill="#ffffff" fill-rule="evenodd" fill-opacity="1"/>
<defs>
  <clipPath id="clip383">
    <rect x="178" y="847" width="2175" height="640"/>
  </clipPath>
</defs>
<polyline clip-path="url(#clip383)" style="stroke:#000000; stroke-linecap:round; stroke-linejoin:round; stroke-width:2; stroke-opacity:0.1; fill:none" points="238.339,1486.45 238.339,847.244 "/>
<polyline clip-path="url(#clip383)" style="stroke:#000000; stroke-linecap:round; stroke-linejoin:round; stroke-width:2; stroke-opacity:0.1; fill:none" points="751.562,1486.45 751.562,847.244 "/>
<polyline clip-path="url(#clip383)" style="stroke:#000000; stroke-linecap:round; stroke-linejoin:round; stroke-width:2; stroke-opacity:0.1; fill:none" points="1264.78,1486.45 1264.78,847.244 "/>
<polyline clip-path="url(#clip383)" style="stroke:#000000; stroke-linecap:round; stroke-linejoin:round; stroke-width:2; stroke-opacity:0.1; fill:none" points="1778.01,1486.45 1778.01,847.244 "/>
<polyline clip-path="url(#clip383)" style="stroke:#000000; stroke-linecap:round; stroke-linejoin:round; stroke-width:2; stroke-opacity:0.1; fill:none" points="2291.23,1486.45 2291.23,847.244 "/>
<polyline clip-path="url(#clip383)" style="stroke:#000000; stroke-linecap:round; stroke-linejoin:round; stroke-width:2; stroke-opacity:0.1; fill:none" points="178.867,1486.45 2352.76,1486.45 "/>
<polyline clip-path="url(#clip383)" style="stroke:#000000; stroke-linecap:round; stroke-linejoin:round; stroke-width:2; stroke-opacity:0.1; fill:none" points="178.867,1326.65 2352.76,1326.65 "/>
<polyline clip-path="url(#clip383)" style="stroke:#000000; stroke-linecap:round; stroke-linejoin:round; stroke-width:2; stroke-opacity:0.1; fill:none" points="178.867,1166.85 2352.76,1166.85 "/>
<polyline clip-path="url(#clip383)" style="stroke:#000000; stroke-linecap:round; stroke-linejoin:round; stroke-width:2; stroke-opacity:0.1; fill:none" points="178.867,1007.05 2352.76,1007.05 "/>
<polyline clip-path="url(#clip383)" style="stroke:#000000; stroke-linecap:round; stroke-linejoin:round; stroke-width:2; stroke-opacity:0.1; fill:none" points="178.867,847.244 2352.76,847.244 "/>
<polyline clip-path="url(#clip380)" style="stroke:#000000; stroke-linecap:round; stroke-linejoin:round; stroke-width:4; stroke-opacity:1; fill:none" points="178.867,1486.45 2352.76,1486.45 "/>
<polyline clip-path="url(#clip380)" style="stroke:#000000; stroke-linecap:round; stroke-linejoin:round; stroke-width:4; stroke-opacity:1; fill:none" points="238.339,1486.45 238.339,1467.55 "/>
<polyline clip-path="url(#clip380)" style="stroke:#000000; stroke-linecap:round; stroke-linejoin:round; stroke-width:4; stroke-opacity:1; fill:none" points="751.562,1486.45 751.562,1467.55 "/>
<polyline clip-path="url(#clip380)" style="stroke:#000000; stroke-linecap:round; stroke-linejoin:round; stroke-width:4; stroke-opacity:1; fill:none" points="1264.78,1486.45 1264.78,1467.55 "/>
<polyline clip-path="url(#clip380)" style="stroke:#000000; stroke-linecap:round; stroke-linejoin:round; stroke-width:4; stroke-opacity:1; fill:none" points="1778.01,1486.45 1778.01,1467.55 "/>
<polyline clip-path="url(#clip380)" style="stroke:#000000; stroke-linecap:round; stroke-linejoin:round; stroke-width:4; stroke-opacity:1; fill:none" points="2291.23,1486.45 2291.23,1467.55 "/>
<path clip-path="url(#clip380)" d="M238.339 1517.37 Q234.728 1517.37 232.899 1520.93 Q231.094 1524.47 231.094 1531.6 Q231.094 1538.71 232.899 1542.27 Q234.728 1545.82 238.339 1545.82 Q241.973 1545.82 243.779 1542.27 Q245.607 1538.71 245.607 1531.6 Q245.607 1524.47 243.779 1520.93 Q241.973 1517.37 238.339 1517.37 M238.339 1513.66 Q244.149 1513.66 247.205 1518.27 Q250.283 1522.85 250.283 1531.6 Q250.283 1540.33 247.205 1544.94 Q244.149 1549.52 238.339 1549.52 Q232.529 1549.52 229.45 1544.94 Q226.395 1540.33 226.395 1531.6 Q226.395 1522.85 229.45 1518.27 Q232.529 1513.66 238.339 1513.66 Z" fill="#000000" fill-rule="nonzero" fill-opacity="1" /><path clip-path="url(#clip380)" d="M715.254 1544.91 L731.574 1544.91 L731.574 1548.85 L709.629 1548.85 L709.629 1544.91 Q712.291 1542.16 716.875 1537.53 Q721.481 1532.88 722.662 1531.53 Q724.907 1529.01 725.787 1527.27 Q726.689 1525.51 726.689 1523.82 Q726.689 1521.07 724.745 1519.33 Q722.824 1517.6 719.722 1517.6 Q717.523 1517.6 715.069 1518.36 Q712.638 1519.13 709.861 1520.68 L709.861 1515.95 Q712.685 1514.82 715.138 1514.24 Q717.592 1513.66 719.629 1513.66 Q725 1513.66 728.194 1516.35 Q731.388 1519.03 731.388 1523.52 Q731.388 1525.65 730.578 1527.57 Q729.791 1529.47 727.685 1532.07 Q727.106 1532.74 724.004 1535.95 Q720.902 1539.15 715.254 1544.91 Z" fill="#000000" fill-rule="nonzero" fill-opacity="1" /><path clip-path="url(#clip380)" d="M741.435 1514.29 L759.791 1514.29 L759.791 1518.22 L745.717 1518.22 L745.717 1526.7 Q746.736 1526.35 747.754 1526.19 Q748.773 1526 749.791 1526 Q755.578 1526 758.958 1529.17 Q762.337 1532.34 762.337 1537.76 Q762.337 1543.34 758.865 1546.44 Q755.393 1549.52 749.073 1549.52 Q746.898 1549.52 744.629 1549.15 Q742.384 1548.78 739.976 1548.04 L739.976 1543.34 Q742.06 1544.47 744.282 1545.03 Q746.504 1545.58 748.981 1545.58 Q752.985 1545.58 755.323 1543.48 Q757.661 1541.37 757.661 1537.76 Q757.661 1534.15 755.323 1532.04 Q752.985 1529.94 748.981 1529.94 Q747.106 1529.94 745.231 1530.35 Q743.379 1530.77 741.435 1531.65 L741.435 1514.29 Z" fill="#000000" fill-rule="nonzero" fill-opacity="1" /><path clip-path="url(#clip380)" d="M781.55 1517.37 Q777.939 1517.37 776.11 1520.93 Q774.305 1524.47 774.305 1531.6 Q774.305 1538.71 776.11 1542.27 Q777.939 1545.82 781.55 1545.82 Q785.184 1545.82 786.99 1542.27 Q788.819 1538.71 788.819 1531.6 Q788.819 1524.47 786.99 1520.93 Q785.184 1517.37 781.55 1517.37 M781.55 1513.66 Q787.36 1513.66 790.416 1518.27 Q793.495 1522.85 793.495 1531.6 Q793.495 1540.33 790.416 1544.94 Q787.36 1549.52 781.55 1549.52 Q775.74 1549.52 772.661 1544.94 Q769.606 1540.33 769.606 1531.6 Q769.606 1522.85 772.661 1518.27 Q775.74 1513.66 781.55 1513.66 Z" fill="#000000" fill-rule="nonzero" fill-opacity="1" /><path clip-path="url(#clip380)" d="M1224.4 1514.29 L1242.76 1514.29 L1242.76 1518.22 L1228.69 1518.22 L1228.69 1526.7 Q1229.7 1526.35 1230.72 1526.19 Q1231.74 1526 1232.76 1526 Q1238.55 1526 1241.93 1529.17 Q1245.31 1532.34 1245.31 1537.76 Q1245.31 1543.34 1241.83 1546.44 Q1238.36 1549.52 1232.04 1549.52 Q1229.87 1549.52 1227.6 1549.15 Q1225.35 1548.78 1222.94 1548.04 L1222.94 1543.34 Q1225.03 1544.47 1227.25 1545.03 Q1229.47 1545.58 1231.95 1545.58 Q1235.95 1545.58 1238.29 1543.48 Q1240.63 1541.37 1240.63 1537.76 Q1240.63 1534.15 1238.29 1532.04 Q1235.95 1529.94 1231.95 1529.94 Q1230.07 1529.94 1228.2 1530.35 Q1226.35 1530.77 1224.4 1531.65 L1224.4 1514.29 Z" fill="#000000" fill-rule="nonzero" fill-opacity="1" /><path clip-path="url(#clip380)" d="M1264.52 1517.37 Q1260.91 1517.37 1259.08 1520.93 Q1257.27 1524.47 1257.27 1531.6 Q1257.27 1538.71 1259.08 1542.27 Q1260.91 1545.82 1264.52 1545.82 Q1268.15 1545.82 1269.96 1542.27 Q1271.79 1538.71 1271.79 1531.6 Q1271.79 1524.47 1269.96 1520.93 Q1268.15 1517.37 1264.52 1517.37 M1264.52 1513.66 Q1270.33 1513.66 1273.38 1518.27 Q1276.46 1522.85 1276.46 1531.6 Q1276.46 1540.33 1273.38 1544.94 Q1270.33 1549.52 1264.52 1549.52 Q1258.71 1549.52 1255.63 1544.94 Q1252.57 1540.33 1252.57 1531.6 Q1252.57 1522.85 1255.63 1518.27 Q1258.71 1513.66 1264.52 1513.66 Z" fill="#000000" fill-rule="nonzero" fill-opacity="1" /><path clip-path="url(#clip380)" d="M1294.68 1517.37 Q1291.07 1517.37 1289.24 1520.93 Q1287.44 1524.47 1287.44 1531.6 Q1287.44 1538.71 1289.24 1542.27 Q1291.07 1545.82 1294.68 1545.82 Q1298.31 1545.82 1300.12 1542.27 Q1301.95 1538.71 1301.95 1531.6 Q1301.95 1524.47 1300.12 1520.93 Q1298.31 1517.37 1294.68 1517.37 M1294.68 1513.66 Q1300.49 1513.66 1303.55 1518.27 Q1306.62 1522.85 1306.62 1531.6 Q1306.62 1540.33 1303.55 1544.94 Q1300.49 1549.52 1294.68 1549.52 Q1288.87 1549.52 1285.79 1544.94 Q1282.74 1540.33 1282.74 1531.6 Q1282.74 1522.85 1285.79 1518.27 Q1288.87 1513.66 1294.68 1513.66 Z" fill="#000000" fill-rule="nonzero" fill-opacity="1" /><path clip-path="url(#clip380)" d="M1736.28 1514.29 L1758.51 1514.29 L1758.51 1516.28 L1745.96 1548.85 L1741.08 1548.85 L1752.88 1518.22 L1736.28 1518.22 L1736.28 1514.29 Z" fill="#000000" fill-rule="nonzero" fill-opacity="1" /><path clip-path="url(#clip380)" d="M1767.67 1514.29 L1786.03 1514.29 L1786.03 1518.22 L1771.95 1518.22 L1771.95 1526.7 Q1772.97 1526.35 1773.99 1526.19 Q1775.01 1526 1776.03 1526 Q1781.82 1526 1785.2 1529.17 Q1788.57 1532.34 1788.57 1537.76 Q1788.57 1543.34 1785.1 1546.44 Q1781.63 1549.52 1775.31 1549.52 Q1773.14 1549.52 1770.87 1549.15 Q1768.62 1548.78 1766.21 1548.04 L1766.21 1543.34 Q1768.3 1544.47 1770.52 1545.03 Q1772.74 1545.58 1775.22 1545.58 Q1779.22 1545.58 1781.56 1543.48 Q1783.9 1541.37 1783.9 1537.76 Q1783.9 1534.15 1781.56 1532.04 Q1779.22 1529.94 1775.22 1529.94 Q1773.34 1529.94 1771.47 1530.35 Q1769.62 1530.77 1767.67 1531.65 L1767.67 1514.29 Z" fill="#000000" fill-rule="nonzero" fill-opacity="1" /><path clip-path="url(#clip380)" d="M1807.79 1517.37 Q1804.18 1517.37 1802.35 1520.93 Q1800.54 1524.47 1800.54 1531.6 Q1800.54 1538.71 1802.35 1542.27 Q1804.18 1545.82 1807.79 1545.82 Q1811.42 1545.82 1813.23 1542.27 Q1815.06 1538.71 1815.06 1531.6 Q1815.06 1524.47 1813.23 1520.93 Q1811.42 1517.37 1807.79 1517.37 M1807.79 1513.66 Q1813.6 1513.66 1816.65 1518.27 Q1819.73 1522.85 1819.73 1531.6 Q1819.73 1540.33 1816.65 1544.94 Q1813.6 1549.52 1807.79 1549.52 Q1801.98 1549.52 1798.9 1544.94 Q1795.84 1540.33 1795.84 1531.6 Q1795.84 1522.85 1798.9 1518.27 Q1801.98 1513.66 1807.79 1513.66 Z" fill="#000000" fill-rule="nonzero" fill-opacity="1" /><path clip-path="url(#clip380)" d="M2235.76 1544.91 L2243.4 1544.91 L2243.4 1518.55 L2235.09 1520.21 L2235.09 1515.95 L2243.35 1514.29 L2248.02 1514.29 L2248.02 1544.91 L2255.66 1544.91 L2255.66 1548.85 L2235.76 1548.85 L2235.76 1544.91 Z" fill="#000000" fill-rule="nonzero" fill-opacity="1" /><path clip-path="url(#clip380)" d="M2275.11 1517.37 Q2271.5 1517.37 2269.67 1520.93 Q2267.86 1524.47 2267.86 1531.6 Q2267.86 1538.71 2269.67 1542.27 Q2271.5 1545.82 2275.11 1545.82 Q2278.74 1545.82 2280.55 1542.27 Q2282.38 1538.71 2282.38 1531.6 Q2282.38 1524.47 2280.55 1520.93 Q2278.74 1517.37 2275.11 1517.37 M2275.11 1513.66 Q2280.92 1513.66 2283.97 1518.27 Q2287.05 1522.85 2287.05 1531.6 Q2287.05 1540.33 2283.97 1544.94 Q2280.92 1549.52 2275.11 1549.52 Q2269.3 1549.52 2266.22 1544.94 Q2263.16 1540.33 2263.16 1531.6 Q2263.16 1522.85 2266.22 1518.27 Q2269.3 1513.66 2275.11 1513.66 Z" fill="#000000" fill-rule="nonzero" fill-opacity="1" /><path clip-path="url(#clip380)" d="M2305.27 1517.37 Q2301.66 1517.37 2299.83 1520.93 Q2298.02 1524.47 2298.02 1531.6 Q2298.02 1538.71 2299.83 1542.27 Q2301.66 1545.82 2305.27 1545.82 Q2308.9 1545.82 2310.71 1542.27 Q2312.54 1538.71 2312.54 1531.6 Q2312.54 1524.47 2310.71 1520.93 Q2308.9 1517.37 2305.27 1517.37 M2305.27 1513.66 Q2311.08 1513.66 2314.14 1518.27 Q2317.21 1522.85 2317.21 1531.6 Q2317.21 1540.33 2314.14 1544.94 Q2311.08 1549.52 2305.27 1549.52 Q2299.46 1549.52 2296.38 1544.94 Q2293.33 1540.33 2293.33 1531.6 Q2293.33 1522.85 2296.38 1518.27 Q2299.46 1513.66 2305.27 1513.66 Z" fill="#000000" fill-rule="nonzero" fill-opacity="1" /><path clip-path="url(#clip380)" d="M2335.43 1517.37 Q2331.82 1517.37 2329.99 1520.93 Q2328.19 1524.47 2328.19 1531.6 Q2328.19 1538.71 2329.99 1542.27 Q2331.82 1545.82 2335.43 1545.82 Q2339.07 1545.82 2340.87 1542.27 Q2342.7 1538.71 2342.7 1531.6 Q2342.7 1524.47 2340.87 1520.93 Q2339.07 1517.37 2335.43 1517.37 M2335.43 1513.66 Q2341.24 1513.66 2344.3 1518.27 Q2347.38 1522.85 2347.38 1531.6 Q2347.38 1540.33 2344.3 1544.94 Q2341.24 1549.52 2335.43 1549.52 Q2329.62 1549.52 2326.54 1544.94 Q2323.49 1540.33 2323.49 1531.6 Q2323.49 1522.85 2326.54 1518.27 Q2329.62 1513.66 2335.43 1513.66 Z" fill="#000000" fill-rule="nonzero" fill-opacity="1" /><polyline clip-path="url(#clip380)" style="stroke:#000000; stroke-linecap:round; stroke-linejoin:round; stroke-width:4; stroke-opacity:1; fill:none" points="178.867,1486.45 178.867,847.244 "/>
<polyline clip-path="url(#clip380)" style="stroke:#000000; stroke-linecap:round; stroke-linejoin:round; stroke-width:4; stroke-opacity:1; fill:none" points="178.867,1486.45 197.764,1486.45 "/>
<polyline clip-path="url(#clip380)" style="stroke:#000000; stroke-linecap:round; stroke-linejoin:round; stroke-width:4; stroke-opacity:1; fill:none" points="178.867,1326.65 197.764,1326.65 "/>
<polyline clip-path="url(#clip380)" style="stroke:#000000; stroke-linecap:round; stroke-linejoin:round; stroke-width:4; stroke-opacity:1; fill:none" points="178.867,1166.85 197.764,1166.85 "/>
<polyline clip-path="url(#clip380)" style="stroke:#000000; stroke-linecap:round; stroke-linejoin:round; stroke-width:4; stroke-opacity:1; fill:none" points="178.867,1007.05 197.764,1007.05 "/>
<polyline clip-path="url(#clip380)" style="stroke:#000000; stroke-linecap:round; stroke-linejoin:round; stroke-width:4; stroke-opacity:1; fill:none" points="178.867,847.244 197.764,847.244 "/>
<path clip-path="url(#clip380)" d="M50.9921 1486.9 L80.6679 1486.9 L80.6679 1490.83 L50.9921 1490.83 L50.9921 1486.9 Z" fill="#000000" fill-rule="nonzero" fill-opacity="1" /><path clip-path="url(#clip380)" d="M91.5706 1499.79 L99.2095 1499.79 L99.2095 1473.43 L90.8993 1475.09 L90.8993 1470.83 L99.1632 1469.17 L103.839 1469.17 L103.839 1499.79 L111.478 1499.79 L111.478 1503.73 L91.5706 1503.73 L91.5706 1499.79 Z" fill="#000000" fill-rule="nonzero" fill-opacity="1" /><path clip-path="url(#clip380)" d="M130.922 1472.25 Q127.311 1472.25 125.482 1475.81 Q123.677 1479.35 123.677 1486.48 Q123.677 1493.59 125.482 1497.15 Q127.311 1500.7 130.922 1500.7 Q134.556 1500.7 136.362 1497.15 Q138.191 1493.59 138.191 1486.48 Q138.191 1479.35 136.362 1475.81 Q134.556 1472.25 130.922 1472.25 M130.922 1468.54 Q136.732 1468.54 139.788 1473.15 Q142.867 1477.73 142.867 1486.48 Q142.867 1495.21 139.788 1499.82 Q136.732 1504.4 130.922 1504.4 Q125.112 1504.4 122.033 1499.82 Q118.978 1495.21 118.978 1486.48 Q118.978 1477.73 122.033 1473.15 Q125.112 1468.54 130.922 1468.54 Z" fill="#000000" fill-rule="nonzero" fill-opacity="1" /><path clip-path="url(#clip380)" d="M82.1494 1327.1 L111.825 1327.1 L111.825 1331.03 L82.1494 1331.03 L82.1494 1327.1 Z" fill="#000000" fill-rule="nonzero" fill-opacity="1" /><path clip-path="url(#clip380)" d="M121.964 1309.37 L140.32 1309.37 L140.32 1313.3 L126.246 1313.3 L126.246 1321.77 Q127.265 1321.43 128.283 1321.27 Q129.302 1321.08 130.32 1321.08 Q136.107 1321.08 139.487 1324.25 Q142.867 1327.42 142.867 1332.84 Q142.867 1338.42 139.394 1341.52 Q135.922 1344.6 129.603 1344.6 Q127.427 1344.6 125.158 1344.23 Q122.913 1343.86 120.506 1343.12 L120.506 1338.42 Q122.589 1339.55 124.811 1340.11 Q127.033 1340.66 129.51 1340.66 Q133.515 1340.66 135.853 1338.56 Q138.191 1336.45 138.191 1332.84 Q138.191 1329.23 135.853 1327.12 Q133.515 1325.01 129.51 1325.01 Q127.635 1325.01 125.76 1325.43 Q123.908 1325.85 121.964 1326.73 L121.964 1309.37 Z" fill="#000000" fill-rule="nonzero" fill-opacity="1" /><path clip-path="url(#clip380)" d="M130.922 1152.64 Q127.311 1152.64 125.482 1156.21 Q123.677 1159.75 123.677 1166.88 Q123.677 1173.99 125.482 1177.55 Q127.311 1181.09 130.922 1181.09 Q134.556 1181.09 136.362 1177.55 Q138.191 1173.99 138.191 1166.88 Q138.191 1159.75 136.362 1156.21 Q134.556 1152.64 130.922 1152.64 M130.922 1148.94 Q136.732 1148.94 139.788 1153.55 Q142.867 1158.13 142.867 1166.88 Q142.867 1175.61 139.788 1180.21 Q136.732 1184.8 130.922 1184.8 Q125.112 1184.8 122.033 1180.21 Q118.978 1175.61 118.978 1166.88 Q118.978 1158.13 122.033 1153.55 Q125.112 1148.94 130.922 1148.94 Z" fill="#000000" fill-rule="nonzero" fill-opacity="1" /><path clip-path="url(#clip380)" d="M121.964 989.765 L140.32 989.765 L140.32 993.7 L126.246 993.7 L126.246 1002.17 Q127.265 1001.83 128.283 1001.66 Q129.302 1001.48 130.32 1001.48 Q136.107 1001.48 139.487 1004.65 Q142.867 1007.82 142.867 1013.24 Q142.867 1018.82 139.394 1021.92 Q135.922 1025 129.603 1025 Q127.427 1025 125.158 1024.63 Q122.913 1024.26 120.506 1023.51 L120.506 1018.82 Q122.589 1019.95 124.811 1020.51 Q127.033 1021.06 129.51 1021.06 Q133.515 1021.06 135.853 1018.95 Q138.191 1016.85 138.191 1013.24 Q138.191 1009.63 135.853 1007.52 Q133.515 1005.41 129.51 1005.41 Q127.635 1005.41 125.76 1005.83 Q123.908 1006.25 121.964 1007.13 L121.964 989.765 Z" fill="#000000" fill-rule="nonzero" fill-opacity="1" /><path clip-path="url(#clip380)" d="M91.5706 860.589 L99.2095 860.589 L99.2095 834.223 L90.8993 835.89 L90.8993 831.631 L99.1632 829.964 L103.839 829.964 L103.839 860.589 L111.478 860.589 L111.478 864.524 L91.5706 864.524 L91.5706 860.589 Z" fill="#000000" fill-rule="nonzero" fill-opacity="1" /><path clip-path="url(#clip380)" d="M130.922 833.043 Q127.311 833.043 125.482 836.608 Q123.677 840.149 123.677 847.279 Q123.677 854.385 125.482 857.95 Q127.311 861.492 130.922 861.492 Q134.556 861.492 136.362 857.95 Q138.191 854.385 138.191 847.279 Q138.191 840.149 136.362 836.608 Q134.556 833.043 130.922 833.043 M130.922 829.339 Q136.732 829.339 139.788 833.946 Q142.867 838.529 142.867 847.279 Q142.867 856.006 139.788 860.612 Q136.732 865.195 130.922 865.195 Q125.112 865.195 122.033 860.612 Q118.978 856.006 118.978 847.279 Q118.978 838.529 122.033 833.946 Q125.112 829.339 130.922 829.339 Z" fill="#000000" fill-rule="nonzero" fill-opacity="1" /><polyline clip-path="url(#clip383)" style="stroke:#009af9; stroke-linecap:round; stroke-linejoin:round; stroke-width:4; stroke-opacity:1; fill:none" points="240.392,1134.89 242.445,1397.28 244.498,1050.65 246.55,1200.13 248.603,1125.39 250.656,1075.73 252.709,1145.1 254.762,1192.47 256.815,1179.38 258.868,1152.05 260.921,1148.72 262.974,1162.79 265.027,1163.63 267.079,1215.18 269.132,1146.53 271.185,1170.86 273.238,1168.12 275.291,1157.32 277.344,1163.7 279.397,1184.32 281.45,1041.14 283.503,1147.56 285.555,1155.84 287.608,1135.85 289.661,1177.55 291.714,1189.68 293.767,1129.06 295.82,1256.79 297.873,1155.26 299.926,378.616 301.979,1530.77 304.031,496.277 306.084,1416.24 308.137,884.503 310.19,961.492 312.243,1088.2 314.296,505.357 316.349,1063.66 318.402,1243.91 320.455,1159.95 322.507,1176.62 324.56,1182.12 326.613,1169.36 328.666,1111.79 330.719,1143.25 332.772,1125.59 334.825,1171.02 336.878,1193.76 338.931,1150.69 340.984,1156.1 343.036,1242.97 345.089,1083.75 347.142,1318.16 349.195,1162.6 351.248,1142.57 353.301,1304.44 355.354,1307.38 357.407,1177.4 359.46,1081.58 361.512,1126.8 363.565,1175.55 365.618,1168.21 367.671,1242.71 369.724,1311.63 371.777,1184.08 373.83,1138.12 375.883,1183.25 377.936,1268.44 379.988,1495.57 382.041,858.266 384.094,1545.8 386.147,980.961 388.2,1187.09 390.253,1147.16 392.306,1178.52 394.359,1195.57 396.412,1151.35 398.464,1217.5 400.517,1242.03 402.57,1303.68 404.623,1083.2 406.676,1288.92 408.729,1366.71 410.782,928.945 412.835,1124.91 414.888,1253.61 416.94,1182.31 418.993,1149.26 421.046,1145.21 423.099,1144.7 425.152,1126.74 427.205,1247.24 429.258,1150.94 431.311,1271.95 433.364,1140.19 435.417,1103.08 437.469,1222.28 439.522,1177.35 441.575,1150.34 443.628,1381.11 445.681,1389.35 447.734,1543.88 449.787,1294.36 451.84,1241.23 453.893,1128.42 455.945,1179.73 457.998,1179.96 460.051,1148.12 462.104,1147.53 464.157,1134.9 466.21,1265.21 468.263,1223.66 470.316,1817.37 472.369,1969.19 474.421,3512.17 476.474,1164.21 478.527,1700.8 480.58,3057.84 482.633,-904.091 484.686,1613.81 486.739,1179.4 488.792,1105.37 490.845,1099.84 492.897,1217.27 494.95,1172.75 497.003,1132.63 499.056,1185.56 501.109,1210.83 503.162,1017.88 505.215,1186.22 507.268,1151.06 509.321,1166.09 511.374,1240.6 513.426,1090.13 515.479,1215.5 517.532,1259.25 519.585,1125.65 521.638,1153.08 523.691,1148.76 525.744,1256.74 527.797,1329.13 529.85,1234.55 531.902,1218.66 533.955,1201.64 536.008,1228.89 538.061,1362.52 540.114,1241.04 542.167,1180.05 544.22,1185.15 546.273,1162.12 548.326,1156.17 550.378,1144.28 552.431,1099.36 554.484,1065.36 556.537,1284.27 558.59,1162.65 560.643,930.136 562.696,1245.29 564.749,1256.27 566.802,1448.11 568.854,1574.06 570.907,1021.99 572.96,1249.85 575.013,1147.53 577.066,1160.85 579.119,1196.63 581.172,1148.03 583.225,1052.52 585.278,1175.89 587.331,1156.96 589.383,1193.61 591.436,1157.63 593.489,1143.91 595.542,1138.56 597.595,1133.23 599.648,1135.1 601.701,1168.5 603.754,1195.02 605.807,1198.11 607.859,1185.37 609.912,1159.64 611.965,1195 614.018,789.301 616.071,1254.43 618.124,1104.67 620.177,1238.34 622.23,1292.44 624.283,1172.53 626.335,1152.82 628.388,1208.03 630.441,1192.6 632.494,1106.22 634.547,1262.04 636.6,1155.05 638.653,1157.57 640.706,1168.17 642.759,1168.16 644.811,1166.13 646.864,1234.78 648.917,1119.73 650.97,1216.97 653.023,1222.87 655.076,1168.78 657.129,1163.71 659.182,1159.51 661.235,1162.31 663.288,1201.73 665.34,1178.61 667.393,1191.36 669.446,1144.98 671.499,1192.8 673.552,1171.16 675.605,1181.58 677.658,996.557 679.711,1343.1 681.764,1176.11 683.816,1642.09 685.869,140.288 687.922,1109.31 689.975,1138.64 692.028,1168.17 694.081,1163.84 696.134,1021.27 698.187,1144.94 700.24,1182.4 702.292,1090.33 704.345,1231.79 706.398,1245.87 708.451,1165.94 710.504,1211.95 712.557,1127.59 714.61,1150.5 716.663,1176.01 718.716,1166.37 720.768,1199.22 722.821,1224.09 724.874,1158.73 726.927,1185.83 728.98,1145.7 731.033,1154.35 733.086,1175.01 735.139,1145.76 737.192,1177.75 739.245,1150.75 741.297,1555.32 743.35,1263.6 745.403,1187.92 747.456,1102.64 749.509,1252.28 751.562,1203.94 753.615,1046.83 755.668,1281.38 757.721,1282.26 759.773,1471.42 761.826,1445.77 763.879,1202.12 765.932,1162.59 767.985,1195.04 770.038,1192.58 772.091,1095.92 774.144,1294.9 776.197,1127.23 778.249,1166.52 780.302,1084.85 782.355,1246.07 784.408,816.132 786.461,917.12 788.514,1083.07 790.567,1267.38 792.62,1176.76 794.673,1154.26 796.725,1167.22 798.778,1209.13 800.831,1181.85 802.884,1160.59 804.937,1138.76 806.99,1202.43 809.043,817.217 811.096,1151.98 813.149,1376.33 815.202,886.981 817.254,1314.78 819.307,1206.52 821.36,1162.85 823.413,1165.81 825.466,1158.58 827.519,1174.49 829.572,1078.2 831.625,1163.99 833.678,1181.53 835.73,1174.52 837.783,1163.33 839.836,1172.7 841.889,1156.3 843.942,1188.09 845.995,1174.81 848.048,1174.99 850.101,1158.4 852.154,1161.94 854.206,1177.48 856.259,1154.95 858.312,1248.24 860.365,1190.76 862.418,1188.88 864.471,1152.25 866.524,1191.35 868.577,1194.72 870.63,1157.83 872.682,1175.45 874.735,1180.55 876.788,1147 878.841,1146.91 880.894,1179.12 882.947,1180.01 885,1161.49 887.053,1184.61 889.106,1074.26 891.159,1394.66 893.211,1073.7 895.264,1216.48 897.317,1170.94 899.37,1163.64 901.423,1157.28 903.476,1162.01 905.529,1139.53 907.582,1124.69 909.635,1030.65 911.687,1126.33 913.74,1119.9 915.793,1193.02 917.846,1132.29 919.899,1139.65 921.952,1196.54 924.005,1192.06 926.058,1147.41 928.111,1133.9 930.163,1234.34 932.216,1157.8 934.269,1145.49 936.322,1146.86 938.375,1114.47 940.428,1244.33 942.481,1054.53 944.534,1216.36 946.587,1195.18 948.639,1221.65 950.692,1206.84 952.745,1144.79 954.798,1186.84 956.851,1219.52 958.904,1265.54 960.957,1089.31 963.01,1210.39 965.063,1138.48 967.116,1208.4 969.168,1764.95 971.221,1806.99 973.274,360.81 975.327,1011.57 977.38,1478.44 979.433,1186.65 981.486,872.295 983.539,1252.33 985.592,1085.26 987.644,1203.4 989.697,1144.2 991.75,1159.38 993.803,1159.45 995.856,1148.58 997.909,1331.23 999.962,1232.15 1002.01,1178.54 1004.07,1161.49 1006.12,1166.89 1008.17,1170.58 1010.23,1145.56 1012.28,1126 1014.33,1177.65 1016.38,1170.72 1018.44,1184.84 1020.49,1217.37 1022.54,1188.82 1024.6,1225.62 1026.65,1106.86 1028.7,1126.88 1030.76,1194.75 1032.81,1186.88 1034.86,1331.68 1036.91,1309.67 1038.97,1336.03 1041.02,1397.24 1043.07,1137.83 1045.13,1192.85 1047.18,1186.17 1049.23,1198.38 1051.28,1185.07 1053.34,1187.03 1055.39,1171.23 1057.44,1178.92 1059.5,1180.58 1061.55,1198.38 1063.6,1135.22 1065.65,1132.5 1067.71,1147.23 1069.76,1290.11 1071.81,1504.57 1073.87,816.308 1075.92,1301.94 1077.97,1114.08 1080.02,1119.5 1082.08,1241.9 1084.13,1350.42 1086.18,1238.35 1088.24,1149.24 1090.29,1051.82 1092.34,1178.08 1094.39,1155.41 1096.45,1190.16 1098.5,1164.46 1100.55,1163.23 1102.61,1204.74 1104.66,1148.02 1106.71,1179.41 1108.77,1142.83 1110.82,1213.39 1112.87,1366.55 1114.92,1213.83 1116.98,1214.34 1119.03,1197.29 1121.08,1191.05 1123.14,1109.71 1125.19,1174.11 1127.24,1163.76 1129.29,1225.87 1131.35,1269.02 1133.4,1280.96 1135.45,999.64 1137.51,1133.02 1139.56,996.55 1141.61,1852.73 1143.66,1355.09 1145.72,1130.33 1147.77,1174.65 1149.82,1182.48 1151.88,1187.75 1153.93,1192.05 1155.98,1184.71 1158.03,1071.54 1160.09,1213.04 1162.14,1148.12 1164.19,1264.68 1166.25,1092.16 1168.3,1061.98 1170.35,1203.41 1172.4,1158.84 1174.46,1157 1176.51,1131.98 1178.56,1195.14 1180.62,1216.74 1182.67,1262.2 1184.72,1202.06 1186.77,1178.55 1188.83,1182.63 1190.88,1244.88 1192.93,1133.4 1194.99,1196.57 1197.04,1062.27 1199.09,1215.67 1201.15,1180.18 1203.2,1147.53 1205.25,1156.74 1207.3,1168.94 1209.36,1171.89 1211.41,1121.42 1213.46,1193.42 1215.52,1201.14 1217.57,1200.39 1219.62,1156.48 1221.67,1078.47 1223.73,1132.46 1225.78,1352.59 1227.83,657.478 1229.89,1149.11 1231.94,1147.69 1233.99,1117.58 1236.04,1244.43 1238.1,1179.07 1240.15,1183.46 1242.2,1196.04 1244.26,1246.62 1246.31,910.855 1248.36,1067.02 1250.41,1274.88 1252.47,1085.63 1254.52,1247.96 1256.57,1212.73 1258.63,1218.91 1260.68,1142.67 1262.73,1204.03 1264.78,1030.92 1266.84,1125.9 1268.89,1159.92 1270.94,1179.99 1273,1179.71 1275.05,1162.2 1277.1,1179.55 1279.16,1375.21 1281.21,1144.97 1283.26,1193.53 1285.31,1148.69 1287.37,1121.41 1289.42,1193.99 1291.47,1217.92 1293.53,1006.7 1295.58,1155.09 1297.63,1170.01 1299.68,1151.52 1301.74,1153.34 1303.79,1130.34 1305.84,1131.95 1307.9,1172.54 1309.95,1234.79 1312,1106.04 1314.05,1156.16 1316.11,1177.67 1318.16,1207.05 1320.21,1219.39 1322.27,1228.63 1324.32,1187.72 1326.37,1067.57 1328.42,1213.95 1330.48,1156.96 1332.53,1225.1 1334.58,1245.9 1336.64,1145.32 1338.69,1146.26 1340.74,1189.98 1342.79,1156.13 1344.85,1160.59 1346.9,1184.72 1348.95,1169.32 1351.01,1138.1 1353.06,1127.39 1355.11,1166.96 1357.16,1150.76 1359.22,1161.39 1361.27,1266.5 1363.32,1055.87 1365.38,1372.42 1367.43,1229.41 1369.48,1178.28 1371.54,1128.43 1373.59,1156.34 1375.64,969.191 1377.69,1254.96 1379.75,1213.49 1381.8,1236.33 1383.85,1214.21 1385.91,1158.56 1387.96,1165.49 1390.01,1171.76 1392.06,1168.01 1394.12,1101.04 1396.17,1222.29 1398.22,1157.48 1400.28,1166.08 1402.33,1177.83 1404.38,1181.43 1406.43,1185.38 1408.49,1190.31 1410.54,1195.57 1412.59,1175.1 1414.65,1138.99 1416.7,1126.58 1418.75,1160.27 1420.8,1251.01 1422.86,1186.52 1424.91,1098.95 1426.96,1194.2 1429.02,1185.42 1431.07,1311.61 1433.12,1068.14 1435.17,1202.06 1437.23,1189 1439.28,1164.87 1441.33,1147.64 1443.39,1155.55 1445.44,1165.24 1447.49,1179.61 1449.55,1222.07 1451.6,1200.21 1453.65,1055.37 1455.7,1176.73 1457.76,1203.14 1459.81,1189.94 1461.86,1121.81 1463.92,1093.91 1465.97,1126.74 1468.02,1356.69 1470.07,820.104 1472.13,1188.34 1474.18,1126.52 1476.23,1122.69 1478.29,1205.03 1480.34,1236.11 1482.39,1191.3 1484.44,1183.44 1486.5,1183.36 1488.55,1123.53 1490.6,1179.77 1492.66,1171.78 1494.71,1227.77 1496.76,1303.71 1498.81,1118.7 1500.87,1219.79 1502.92,1168.48 1504.97,1173.57 1507.03,1175.5 1509.08,1184.77 1511.13,1147.96 1513.18,1182.46 1515.24,1160.79 1517.29,1196.25 1519.34,1183.21 1521.4,1197.36 1523.45,1163.55 1525.5,1096.65 1527.55,1161.67 1529.61,1194.52 1531.66,735.318 1533.71,1120.87 1535.77,1287.62 1537.82,1240.76 1539.87,1189.12 1541.93,1201.79 1543.98,1227.41 1546.03,1114.88 1548.08,1148.5 1550.14,1133.27 1552.19,1073.04 1554.24,1178.39 1556.3,1091.33 1558.35,1178.9 1560.4,1169.24 1562.45,1160.76 1564.51,1146.77 1566.56,1186.02 1568.61,1086.79 1570.67,1284.49 1572.72,1886.51 1574.77,1105.19 1576.82,1123.16 1578.88,1150.82 1580.93,1078.95 1582.98,1229.39 1585.04,1187.47 1587.09,966.506 1589.14,1635.29 1591.19,1343.6 1593.25,1138.44 1595.3,1221.36 1597.35,963.682 1599.41,965.577 1601.46,1014.53 1603.51,1066.97 1605.56,961.029 1607.62,1255.96 1609.67,2128.84 1611.72,2082.45 1613.78,1238.25 1615.83,1166.97 1617.88,1166.87 1619.94,1179.21 1621.99,1172.44 1624.04,1176.72 1626.09,1142.91 1628.15,1162.34 1630.2,1215.57 1632.25,1164.54 1634.31,1144.54 1636.36,1176.87 1638.41,1090.62 1640.46,1044.03 1642.52,1055.32 1644.57,1368.25 1646.62,1183.11 1648.68,1172.47 1650.73,1162.96 1652.78,1183.61 1654.83,1168.13 1656.89,1137.29 1658.94,1122.94 1660.99,1158.3 1663.05,1195.89 1665.1,1151.06 1667.15,1118.13 1669.2,1154.69 1671.26,1210.69 1673.31,1151.8 1675.36,1174.26 1677.42,1277.24 1679.47,1044.26 1681.52,1270.67 1683.57,1105.49 1685.63,1171.63 1687.68,1178.28 1689.73,1130.79 1691.79,1117.24 1693.84,1095.24 1695.89,1230 1697.94,1174.92 1700,1193.11 1702.05,1240.54 1704.1,1164.06 1706.16,1248.11 1708.21,1088.35 1710.26,1158.25 1712.32,1182.92 1714.37,1198.73 1716.42,1194.06 1718.47,1193.14 1720.53,1136.6 1722.58,1212.3 1724.63,1277.47 1726.69,1085.62 1728.74,1221.5 1730.79,1159 1732.84,1124.18 1734.9,1158.06 1736.95,1169.32 1739,1106.3 1741.06,1151.76 1743.11,1120.47 1745.16,1202.81 1747.21,1088.22 1749.27,966.45 1751.32,1176.06 1753.37,1198.73 1755.43,1422.12 1757.48,1015.26 1759.53,1124.94 1761.58,1177.44 1763.64,1185.61 1765.69,1162.99 1767.74,1185.19 1769.8,1165.67 1771.85,1291.31 1773.9,1268.7 1775.95,1187.61 1778.01,1111.97 1780.06,1172.53 1782.11,1066.61 1784.17,1214.57 1786.22,1155.11 1788.27,1164.32 1790.33,1162.42 1792.38,1183.76 1794.43,1174.24 1796.48,1163.46 1798.54,1177.8 1800.59,1164.27 1802.64,2568.1 1804.7,448.175 1806.75,1414.69 1808.8,351.519 1810.85,2027.28 1812.91,-50.3933 1814.96,1632.8 1817.01,1327.34 1819.07,1257.43 1821.12,1285.72 1823.17,1172.41 1825.22,1159.68 1827.28,1090.78 1829.33,1158.61 1831.38,1162.98 1833.44,1143.76 1835.49,1172.26 1837.54,1131.49 1839.59,1095.14 1841.65,1168.67 1843.7,1110.99 1845.75,1263.56 1847.81,1229.13 1849.86,1192.73 1851.91,1099.68 1853.96,1114.23 1856.02,1224.97 1858.07,1121.45 1860.12,1187.79 1862.18,1133.48 1864.23,1181.32 1866.28,1154.06 1868.34,1168.57 1870.39,1165.82 1872.44,1156.62 1874.49,1218.35 1876.55,1142.83 1878.6,1085.3 1880.65,1119.6 1882.71,1072.46 1884.76,1182.57 1886.81,1129.18 1888.86,1270.3 1890.92,1169.04 1892.97,1128.62 1895.02,1194.21 1897.08,1132.86 1899.13,1182.45 1901.18,1173.96 1903.23,1227.75 1905.29,1138.24 1907.34,1145.84 1909.39,1148.25 1911.45,1136.81 1913.5,1190.43 1915.55,1148.88 1917.6,1172.95 1919.66,1137.84 1921.71,1262.33 1923.76,1181.41 1925.82,1140.81 1927.87,1136.67 1929.92,1206.49 1931.97,1077.26 1934.03,1075.64 1936.08,1385.1 1938.13,1142.88 1940.19,1132.9 1942.24,1177.47 1944.29,1126.04 1946.34,1133.2 1948.4,1201.55 1950.45,1435.31 1952.5,2082.69 1954.56,1108.8 1956.61,1117.17 1958.66,1073.86 1960.72,1331.01 1962.77,1239.27 1964.82,1096.01 1966.87,1032.68 1968.93,1268.62 1970.98,1275.25 1973.03,1169.65 1975.09,1155.81 1977.14,1144.69 1979.19,1099.33 1981.24,1140.88 1983.3,1192.68 1985.35,1164.92 1987.4,1182.95 1989.46,1226.21 1991.51,1205.43 1993.56,1574.42 1995.61,1153.67 1997.67,1171.14 1999.72,1173.62 2001.77,1180.13 2003.83,1142.9 2005.88,1158.71 2007.93,1178.75 2009.98,1150.32 2012.04,1099.87 2014.09,1183.43 2016.14,1157.47 2018.2,1147.74 2020.25,1239.29 2022.3,1176.71 2024.35,1177.34 2026.41,1207.57 2028.46,1127.86 2030.51,1153.64 2032.57,1201.46 2034.62,1179.82 2036.67,1189.49 2038.73,1157.75 2040.78,1250.67 2042.83,1206.08 2044.88,1194.73 2046.94,832.885 2048.99,1120.21 2051.04,1159.24 2053.1,1156.68 2055.15,1176.24 2057.2,1176.21 2059.25,1163.37 2061.31,1113.59 2063.36,1165.85 2065.41,1162.05 2067.47,1160.21 2069.52,1171.78 2071.57,1139.42 2073.62,1089.55 2075.68,1179.26 2077.73,1176.01 2079.78,1361.57 2081.84,860.847 2083.89,1216.28 2085.94,1080.33 2087.99,1216.11 2090.05,1220.41 2092.1,1046.13 2094.15,1135.57 2096.21,1159.45 2098.26,1181.1 2100.31,1158.4 2102.36,1155.33 2104.42,1140.24 2106.47,1182.57 2108.52,1167.08 2110.58,1162.2 2112.63,1163.26 2114.68,1176.58 2116.73,1215.49 2118.79,1200.01 2120.84,1184.53 2122.89,1194.18 2124.95,1118.25 2127,1220.96 2129.05,1202.45 2131.11,1195.15 2133.16,1192.75 2135.21,1177.71 2137.26,1153.58 2139.32,1165.54 2141.37,1174.27 2143.42,967.998 2145.48,1322.87 2147.53,1136.32 2149.58,1159.57 2151.63,1226.64 2153.69,1180.92 2155.74,1167.66 2157.79,1164.3 2159.85,1153.69 2161.9,1217.14 2163.95,1157.22 2166,1162.62 2168.06,1162.96 2170.11,1242.11 2172.16,1183.07 2174.22,1184.2 2176.27,1133.56 2178.32,1112.99 2180.37,1201.61 2182.43,1093.06 2184.48,1192.93 2186.53,1136.84 2188.59,1191.28 2190.64,1039.39 2192.69,1097.42 2194.74,1146.92 2196.8,1176.19 2198.85,1207.16 2200.9,1121.84 2202.96,1183.47 2205.01,1202.18 2207.06,1250.75 2209.12,1219.52 2211.17,1094.04 2213.22,1171.19 2215.27,1114.71 2217.33,1172.95 2219.38,1130.21 2221.43,1147.04 2223.49,1216.31 2225.54,1224.33 2227.59,1247.51 2229.64,1153.83 2231.7,1167.46 2233.75,1194.08 2235.8,1150.39 2237.86,1171.12 2239.91,1237.11 2241.96,1173.42 2244.01,1181.79 2246.07,1175.5 2248.12,1156.68 2250.17,1187.87 2252.23,1170.61 2254.28,1139.21 2256.33,1197.34 2258.38,1190.27 2260.44,1319.81 2262.49,1314.19 2264.54,1091.92 2266.6,1159.42 2268.65,1104.03 2270.7,1160.52 2272.75,1205.42 2274.81,1204.4 2276.86,1274.47 2278.91,1210.68 2280.97,1204.26 2283.02,1290.27 2285.07,963.625 2287.12,1199.41 2289.18,1149.86 2291.23,1188.89 "/>
<path clip-path="url(#clip380)" d="M1942.7 1465.14 L2280.29 1465.14 L2280.29 1361.46 L1942.7 1361.46  Z" fill="#ffffff" fill-rule="evenodd" fill-opacity="1"/>
<polyline clip-path="url(#clip380)" style="stroke:#000000; stroke-linecap:round; stroke-linejoin:round; stroke-width:4; stroke-opacity:1; fill:none" points="1942.7,1465.14 2280.29,1465.14 2280.29,1361.46 1942.7,1361.46 1942.7,1465.14 "/>
<polyline clip-path="url(#clip380)" style="stroke:#009af9; stroke-linecap:round; stroke-linejoin:round; stroke-width:4; stroke-opacity:1; fill:none" points="1966.85,1413.3 2111.78,1413.3 "/>
<path clip-path="url(#clip380)" d="M2161.49 1425.65 L2161.49 1416.37 L2153.85 1416.37 L2153.85 1412.53 L2166.12 1412.53 L2166.12 1427.36 Q2163.41 1429.28 2160.14 1430.28 Q2156.88 1431.25 2153.18 1431.25 Q2145.07 1431.25 2140.49 1426.53 Q2135.93 1421.78 2135.93 1413.34 Q2135.93 1404.86 2140.49 1400.14 Q2145.07 1395.4 2153.18 1395.4 Q2156.56 1395.4 2159.59 1396.23 Q2162.64 1397.06 2165.21 1398.68 L2165.21 1403.66 Q2162.62 1401.46 2159.7 1400.35 Q2156.79 1399.24 2153.57 1399.24 Q2147.23 1399.24 2144.03 1402.78 Q2140.86 1406.32 2140.86 1413.34 Q2140.86 1420.33 2144.03 1423.87 Q2147.23 1427.41 2153.57 1427.41 Q2156.05 1427.41 2157.99 1426.99 Q2159.94 1426.55 2161.49 1425.65 Z" fill="#000000" fill-rule="nonzero" fill-opacity="1" /><path clip-path="url(#clip380)" d="M2179.33 1399.86 L2179.33 1412.85 L2185.21 1412.85 Q2188.48 1412.85 2190.26 1411.16 Q2192.04 1409.47 2192.04 1406.35 Q2192.04 1403.24 2190.26 1401.55 Q2188.48 1399.86 2185.21 1399.86 L2179.33 1399.86 M2174.66 1396.02 L2185.21 1396.02 Q2191.02 1396.02 2193.99 1398.66 Q2196.97 1401.28 2196.97 1406.35 Q2196.97 1411.46 2193.99 1414.08 Q2191.02 1416.69 2185.21 1416.69 L2179.33 1416.69 L2179.33 1430.58 L2174.66 1430.58 L2174.66 1396.02 Z" fill="#000000" fill-rule="nonzero" fill-opacity="1" /><path clip-path="url(#clip380)" d="M2223.96 1397.16 L2223.96 1401.72 Q2221.3 1400.44 2218.94 1399.82 Q2216.58 1399.19 2214.38 1399.19 Q2210.56 1399.19 2208.48 1400.67 Q2206.42 1402.16 2206.42 1404.89 Q2206.42 1407.18 2207.78 1408.36 Q2209.17 1409.52 2213.01 1410.23 L2215.84 1410.81 Q2221.07 1411.81 2223.55 1414.33 Q2226.05 1416.83 2226.05 1421.04 Q2226.05 1426.07 2222.67 1428.66 Q2219.31 1431.25 2212.81 1431.25 Q2210.35 1431.25 2207.57 1430.7 Q2204.82 1430.14 2201.86 1429.05 L2201.86 1424.24 Q2204.7 1425.84 2207.44 1426.65 Q2210.17 1427.46 2212.81 1427.46 Q2216.81 1427.46 2218.99 1425.88 Q2221.16 1424.31 2221.16 1421.39 Q2221.16 1418.85 2219.59 1417.41 Q2218.04 1415.97 2214.47 1415.26 L2211.62 1414.7 Q2206.39 1413.66 2204.06 1411.44 Q2201.72 1409.22 2201.72 1405.26 Q2201.72 1400.67 2204.94 1398.03 Q2208.18 1395.4 2213.85 1395.4 Q2216.28 1395.4 2218.8 1395.84 Q2221.32 1396.28 2223.96 1397.16 Z" fill="#000000" fill-rule="nonzero" fill-opacity="1" /><path clip-path="url(#clip380)" d="M2254.06 1397.16 L2254.06 1401.72 Q2251.39 1400.44 2249.03 1399.82 Q2246.67 1399.19 2244.47 1399.19 Q2240.65 1399.19 2238.57 1400.67 Q2236.51 1402.16 2236.51 1404.89 Q2236.51 1407.18 2237.87 1408.36 Q2239.26 1409.52 2243.11 1410.23 L2245.93 1410.81 Q2251.16 1411.81 2253.64 1414.33 Q2256.14 1416.83 2256.14 1421.04 Q2256.14 1426.07 2252.76 1428.66 Q2249.4 1431.25 2242.9 1431.25 Q2240.44 1431.25 2237.67 1430.7 Q2234.91 1430.14 2231.95 1429.05 L2231.95 1424.24 Q2234.8 1425.84 2237.53 1426.65 Q2240.26 1427.46 2242.9 1427.46 Q2246.9 1427.46 2249.08 1425.88 Q2251.25 1424.31 2251.25 1421.39 Q2251.25 1418.85 2249.68 1417.41 Q2248.13 1415.97 2244.56 1415.26 L2241.72 1414.7 Q2236.49 1413.66 2234.15 1411.44 Q2231.81 1409.22 2231.81 1405.26 Q2231.81 1400.67 2235.03 1398.03 Q2238.27 1395.4 2243.94 1395.4 Q2246.37 1395.4 2248.89 1395.84 Q2251.42 1396.28 2254.06 1397.16 Z" fill="#000000" fill-rule="nonzero" fill-opacity="1" /></svg>
