<?xml version="1.0" encoding="utf-8"?>
<svg xmlns="http://www.w3.org/2000/svg" xmlns:xlink="http://www.w3.org/1999/xlink" width="600" height="400" viewBox="0 0 2400 1600">
<defs>
  <clipPath id="clip850">
    <rect x="0" y="0" width="2400" height="1600"/>
  </clipPath>
</defs>
<path clip-path="url(#clip850)" d="M0 1600 L2400 1600 L2400 0 L0 0  Z" fill="#ffffff" fill-rule="evenodd" fill-opacity="1"/>
<defs>
  <clipPath id="clip851">
    <rect x="480" y="0" width="1681" height="1600"/>
  </clipPath>
</defs>
<path clip-path="url(#clip850)" d="M178.867 686.448 L2352.76 686.448 L2352.76 47.2441 L178.867 47.2441  Z" fill="#ffffff" fill-rule="evenodd" fill-opacity="1"/>
<defs>
  <clipPath id="clip852">
    <rect x="178" y="47" width="2175" height="640"/>
  </clipPath>
</defs>
<polyline clip-path="url(#clip852)" style="stroke:#000000; stroke-linecap:round; stroke-linejoin:round; stroke-width:2; stroke-opacity:0.1; fill:none" points="238.339,686.448 238.339,47.2441 "/>
<polyline clip-path="url(#clip852)" style="stroke:#000000; stroke-linecap:round; stroke-linejoin:round; stroke-width:2; stroke-opacity:0.1; fill:none" points="751.562,686.448 751.562,47.2441 "/>
<polyline clip-path="url(#clip852)" style="stroke:#000000; stroke-linecap:round; stroke-linejoin:round; stroke-width:2; stroke-opacity:0.1; fill:none" points="1264.78,686.448 1264.78,47.2441 "/>
<polyline clip-path="url(#clip852)" style="stroke:#000000; stroke-linecap:round; stroke-linejoin:round; stroke-width:2; stroke-opacity:0.1; fill:none" points="1778.01,686.448 1778.01,47.2441 "/>
<polyline clip-path="url(#clip852)" style="stroke:#000000; stroke-linecap:round; stroke-linejoin:round; stroke-width:2; stroke-opacity:0.1; fill:none" points="2291.23,686.448 2291.23,47.2441 "/>
<polyline clip-path="url(#clip852)" style="stroke:#000000; stroke-linecap:round; stroke-linejoin:round; stroke-width:2; stroke-opacity:0.1; fill:none" points="178.867,686.448 2352.76,686.448 "/>
<polyline clip-path="url(#clip852)" style="stroke:#000000; stroke-linecap:round; stroke-linejoin:round; stroke-width:2; stroke-opacity:0.1; fill:none" points="178.867,526.647 2352.76,526.647 "/>
<polyline clip-path="url(#clip852)" style="stroke:#000000; stroke-linecap:round; stroke-linejoin:round; stroke-width:2; stroke-opacity:0.1; fill:none" points="178.867,366.846 2352.76,366.846 "/>
<polyline clip-path="url(#clip852)" style="stroke:#000000; stroke-linecap:round; stroke-linejoin:round; stroke-width:2; stroke-opacity:0.1; fill:none" points="178.867,207.045 2352.76,207.045 "/>
<polyline clip-path="url(#clip852)" style="stroke:#000000; stroke-linecap:round; stroke-linejoin:round; stroke-width:2; stroke-opacity:0.1; fill:none" points="178.867,47.2441 2352.76,47.2441 "/>
<polyline clip-path="url(#clip850)" style="stroke:#000000; stroke-linecap:round; stroke-linejoin:round; stroke-width:4; stroke-opacity:1; fill:none" points="178.867,686.448 2352.76,686.448 "/>
<polyline clip-path="url(#clip850)" style="stroke:#000000; stroke-linecap:round; stroke-linejoin:round; stroke-width:4; stroke-opacity:1; fill:none" points="238.339,686.448 238.339,667.55 "/>
<polyline clip-path="url(#clip850)" style="stroke:#000000; stroke-linecap:round; stroke-linejoin:round; stroke-width:4; stroke-opacity:1; fill:none" points="751.562,686.448 751.562,667.55 "/>
<polyline clip-path="url(#clip850)" style="stroke:#000000; stroke-linecap:round; stroke-linejoin:round; stroke-width:4; stroke-opacity:1; fill:none" points="1264.78,686.448 1264.78,667.55 "/>
<polyline clip-path="url(#clip850)" style="stroke:#000000; stroke-linecap:round; stroke-linejoin:round; stroke-width:4; stroke-opacity:1; fill:none" points="1778.01,686.448 1778.01,667.55 "/>
<polyline clip-path="url(#clip850)" style="stroke:#000000; stroke-linecap:round; stroke-linejoin:round; stroke-width:4; stroke-opacity:1; fill:none" points="2291.23,686.448 2291.23,667.55 "/>
<path clip-path="url(#clip850)" d="M238.339 717.367 Q234.728 717.367 232.899 720.931 Q231.094 724.473 231.094 731.603 Q231.094 738.709 232.899 742.274 Q234.728 745.815 238.339 745.815 Q241.973 745.815 243.779 742.274 Q245.607 738.709 245.607 731.603 Q245.607 724.473 243.779 720.931 Q241.973 717.367 238.339 717.367 M238.339 713.663 Q244.149 713.663 247.205 718.269 Q250.283 722.853 250.283 731.603 Q250.283 740.329 247.205 744.936 Q244.149 749.519 238.339 749.519 Q232.529 749.519 229.45 744.936 Q226.395 740.329 226.395 731.603 Q226.395 722.853 229.45 718.269 Q232.529 713.663 238.339 713.663 Z" fill="#000000" fill-rule="nonzero" fill-opacity="1" /><path clip-path="url(#clip850)" d="M715.254 744.913 L731.574 744.913 L731.574 748.848 L709.629 748.848 L709.629 744.913 Q712.291 742.158 716.875 737.528 Q721.481 732.876 722.662 731.533 Q724.907 729.01 725.787 727.274 Q726.689 725.515 726.689 723.825 Q726.689 721.07 724.745 719.334 Q722.824 717.598 719.722 717.598 Q717.523 717.598 715.069 718.362 Q712.638 719.126 709.861 720.677 L709.861 715.955 Q712.685 714.82 715.138 714.242 Q717.592 713.663 719.629 713.663 Q725 713.663 728.194 716.348 Q731.388 719.033 731.388 723.524 Q731.388 725.654 730.578 727.575 Q729.791 729.473 727.685 732.066 Q727.106 732.737 724.004 735.954 Q720.902 739.149 715.254 744.913 Z" fill="#000000" fill-rule="nonzero" fill-opacity="1" /><path clip-path="url(#clip850)" d="M741.435 714.288 L759.791 714.288 L759.791 718.223 L745.717 718.223 L745.717 726.695 Q746.736 726.348 747.754 726.186 Q748.773 726.001 749.791 726.001 Q755.578 726.001 758.958 729.172 Q762.337 732.343 762.337 737.76 Q762.337 743.339 758.865 746.44 Q755.393 749.519 749.073 749.519 Q746.898 749.519 744.629 749.149 Q742.384 748.778 739.976 748.038 L739.976 743.339 Q742.06 744.473 744.282 745.028 Q746.504 745.584 748.981 745.584 Q752.985 745.584 755.323 743.478 Q757.661 741.371 757.661 737.76 Q757.661 734.149 755.323 732.042 Q752.985 729.936 748.981 729.936 Q747.106 729.936 745.231 730.353 Q743.379 730.769 741.435 731.649 L741.435 714.288 Z" fill="#000000" fill-rule="nonzero" fill-opacity="1" /><path clip-path="url(#clip850)" d="M781.55 717.367 Q777.939 717.367 776.11 720.931 Q774.305 724.473 774.305 731.603 Q774.305 738.709 776.11 742.274 Q777.939 745.815 781.55 745.815 Q785.184 745.815 786.99 742.274 Q788.819 738.709 788.819 731.603 Q788.819 724.473 786.99 720.931 Q785.184 717.367 781.55 717.367 M781.55 713.663 Q787.36 713.663 790.416 718.269 Q793.495 722.853 793.495 731.603 Q793.495 740.329 790.416 744.936 Q787.36 749.519 781.55 749.519 Q775.74 749.519 772.661 744.936 Q769.606 740.329 769.606 731.603 Q769.606 722.853 772.661 718.269 Q775.74 713.663 781.55 713.663 Z" fill="#000000" fill-rule="nonzero" fill-opacity="1" /><path clip-path="url(#clip850)" d="M1224.4 714.288 L1242.76 714.288 L1242.76 718.223 L1228.69 718.223 L1228.69 726.695 Q1229.7 726.348 1230.72 726.186 Q1231.74 726.001 1232.76 726.001 Q1238.55 726.001 1241.93 729.172 Q1245.31 732.343 1245.31 737.76 Q1245.31 743.339 1241.83 746.44 Q1238.36 749.519 1232.04 749.519 Q1229.87 749.519 1227.6 749.149 Q1225.35 748.778 1222.94 748.038 L1222.94 743.339 Q1225.03 744.473 1227.25 745.028 Q1229.47 745.584 1231.95 745.584 Q1235.95 745.584 1238.29 743.478 Q1240.63 741.371 1240.63 737.76 Q1240.63 734.149 1238.29 732.042 Q1235.95 729.936 1231.95 729.936 Q1230.07 729.936 1228.2 730.353 Q1226.35 730.769 1224.4 731.649 L1224.4 714.288 Z" fill="#000000" fill-rule="nonzero" fill-opacity="1" /><path clip-path="url(#clip850)" d="M1264.52 717.367 Q1260.91 717.367 1259.08 720.931 Q1257.27 724.473 1257.27 731.603 Q1257.27 738.709 1259.08 742.274 Q1260.91 745.815 1264.52 745.815 Q1268.15 745.815 1269.96 742.274 Q1271.79 738.709 1271.79 731.603 Q1271.79 724.473 1269.96 720.931 Q1268.15 717.367 1264.52 717.367 M1264.52 713.663 Q1270.33 713.663 1273.38 718.269 Q1276.46 722.853 1276.46 731.603 Q1276.46 740.329 1273.38 744.936 Q1270.33 749.519 1264.52 749.519 Q1258.71 749.519 1255.63 744.936 Q1252.57 740.329 1252.57 731.603 Q1252.57 722.853 1255.63 718.269 Q1258.71 713.663 1264.52 713.663 Z" fill="#000000" fill-rule="nonzero" fill-opacity="1" /><path clip-path="url(#clip850)" d="M1294.68 717.367 Q1291.07 717.367 1289.24 720.931 Q1287.44 724.473 1287.44 731.603 Q1287.44 738.709 1289.24 742.274 Q1291.07 745.815 1294.68 745.815 Q1298.31 745.815 1300.12 742.274 Q1301.95 738.709 1301.95 731.603 Q1301.95 724.473 1300.12 720.931 Q1298.31 717.367 1294.68 717.367 M1294.68 713.663 Q1300.49 713.663 1303.55 718.269 Q1306.62 722.853 1306.62 731.603 Q1306.62 740.329 1303.55 744.936 Q1300.49 749.519 1294.68 749.519 Q1288.87 749.519 1285.79 744.936 Q1282.74 740.329 1282.74 731.603 Q1282.74 722.853 1285.79 718.269 Q1288.87 713.663 1294.68 713.663 Z" fill="#000000" fill-rule="nonzero" fill-opacity="1" /><path clip-path="url(#clip850)" d="M1736.28 714.288 L1758.51 714.288 L1758.51 716.279 L1745.96 748.848 L1741.08 748.848 L1752.88 718.223 L1736.28 718.223 L1736.28 714.288 Z" fill="#000000" fill-rule="nonzero" fill-opacity="1" /><path clip-path="url(#clip850)" d="M1767.67 714.288 L1786.03 714.288 L1786.03 718.223 L1771.95 718.223 L1771.95 726.695 Q1772.97 726.348 1773.99 726.186 Q1775.01 726.001 1776.03 726.001 Q1781.82 726.001 1785.2 729.172 Q1788.57 732.343 1788.57 737.76 Q1788.57 743.339 1785.1 746.44 Q1781.63 749.519 1775.31 749.519 Q1773.14 749.519 1770.87 749.149 Q1768.62 748.778 1766.21 748.038 L1766.21 743.339 Q1768.3 744.473 1770.52 745.028 Q1772.74 745.584 1775.22 745.584 Q1779.22 745.584 1781.56 743.478 Q1783.9 741.371 1783.9 737.76 Q1783.9 734.149 1781.56 732.042 Q1779.22 729.936 1775.22 729.936 Q1773.34 729.936 1771.47 730.353 Q1769.62 730.769 1767.67 731.649 L1767.67 714.288 Z" fill="#000000" fill-rule="nonzero" fill-opacity="1" /><path clip-path="url(#clip850)" d="M1807.79 717.367 Q1804.18 717.367 1802.35 720.931 Q1800.54 724.473 1800.54 731.603 Q1800.54 738.709 1802.35 742.274 Q1804.18 745.815 1807.79 745.815 Q1811.42 745.815 1813.23 742.274 Q1815.06 738.709 1815.06 731.603 Q1815.06 724.473 1813.23 720.931 Q1811.42 717.367 1807.79 717.367 M1807.79 713.663 Q1813.6 713.663 1816.65 718.269 Q1819.73 722.853 1819.73 731.603 Q1819.73 740.329 1816.65 744.936 Q1813.6 749.519 1807.79 749.519 Q1801.98 749.519 1798.9 744.936 Q1795.84 740.329 1795.84 731.603 Q1795.84 722.853 1798.9 718.269 Q1801.98 713.663 1807.79 713.663 Z" fill="#000000" fill-rule="nonzero" fill-opacity="1" /><path clip-path="url(#clip850)" d="M2235.76 744.913 L2243.4 744.913 L2243.4 718.547 L2235.09 720.214 L2235.09 715.955 L2243.35 714.288 L2248.02 714.288 L2248.02 744.913 L2255.66 744.913 L2255.66 748.848 L2235.76 748.848 L2235.76 744.913 Z" fill="#000000" fill-rule="nonzero" fill-opacity="1" /><path clip-path="url(#clip850)" d="M2275.11 717.367 Q2271.5 717.367 2269.67 720.931 Q2267.86 724.473 2267.86 731.603 Q2267.86 738.709 2269.67 742.274 Q2271.5 745.815 2275.11 745.815 Q2278.74 745.815 2280.55 742.274 Q2282.38 738.709 2282.38 731.603 Q2282.38 724.473 2280.55 720.931 Q2278.74 717.367 2275.11 717.367 M2275.11 713.663 Q2280.92 713.663 2283.97 718.269 Q2287.05 722.853 2287.05 731.603 Q2287.05 740.329 2283.97 744.936 Q2280.92 749.519 2275.11 749.519 Q2269.3 749.519 2266.22 744.936 Q2263.16 740.329 2263.16 731.603 Q2263.16 722.853 2266.22 718.269 Q2269.3 713.663 2275.11 713.663 Z" fill="#000000" fill-rule="nonzero" fill-opacity="1" /><path clip-path="url(#clip850)" d="M2305.27 717.367 Q2301.66 717.367 2299.83 720.931 Q2298.02 724.473 2298.02 731.603 Q2298.02 738.709 2299.83 742.274 Q2301.66 745.815 2305.27 745.815 Q2308.9 745.815 2310.71 742.274 Q2312.54 738.709 2312.54 731.603 Q2312.54 724.473 2310.71 720.931 Q2308.9 717.367 2305.27 717.367 M2305.27 713.663 Q2311.08 713.663 2314.14 718.269 Q2317.21 722.853 2317.21 731.603 Q2317.21 740.329 2314.14 744.936 Q2311.08 749.519 2305.27 749.519 Q2299.46 749.519 2296.38 744.936 Q2293.33 740.329 2293.33 731.603 Q2293.33 722.853 2296.38 718.269 Q2299.46 713.663 2305.27 713.663 Z" fill="#000000" fill-rule="nonzero" fill-opacity="1" /><path clip-path="url(#clip850)" d="M2335.43 717.367 Q2331.82 717.367 2329.99 720.931 Q2328.19 724.473 2328.19 731.603 Q2328.19 738.709 2329.99 742.274 Q2331.82 745.815 2335.43 745.815 Q2339.07 745.815 2340.87 742.274 Q2342.7 738.709 2342.7 731.603 Q2342.7 724.473 2340.87 720.931 Q2339.07 717.367 2335.43 717.367 M2335.43 713.663 Q2341.24 713.663 2344.3 718.269 Q2347.38 722.853 2347.38 731.603 Q2347.38 740.329 2344.3 744.936 Q2341.24 749.519 2335.43 749.519 Q2329.62 749.519 2326.54 744.936 Q2323.49 740.329 2323.49 731.603 Q2323.49 722.853 2326.54 718.269 Q2329.62 713.663 2335.43 713.663 Z" fill="#000000" fill-rule="nonzero" fill-opacity="1" /><polyline clip-path="url(#clip850)" style="stroke:#000000; stroke-linecap:round; stroke-linejoin:round; stroke-width:4; stroke-opacity:1; fill:none" points="178.867,686.448 178.867,47.2441 "/>
<polyline clip-path="url(#clip850)" style="stroke:#000000; stroke-linecap:round; stroke-linejoin:round; stroke-width:4; stroke-opacity:1; fill:none" points="178.867,686.448 197.764,686.448 "/>
<polyline clip-path="url(#clip850)" style="stroke:#000000; stroke-linecap:round; stroke-linejoin:round; stroke-width:4; stroke-opacity:1; fill:none" points="178.867,526.647 197.764,526.647 "/>
<polyline clip-path="url(#clip850)" style="stroke:#000000; stroke-linecap:round; stroke-linejoin:round; stroke-width:4; stroke-opacity:1; fill:none" points="178.867,366.846 197.764,366.846 "/>
<polyline clip-path="url(#clip850)" style="stroke:#000000; stroke-linecap:round; stroke-linejoin:round; stroke-width:4; stroke-opacity:1; fill:none" points="178.867,207.045 197.764,207.045 "/>
<polyline clip-path="url(#clip850)" style="stroke:#000000; stroke-linecap:round; stroke-linejoin:round; stroke-width:4; stroke-opacity:1; fill:none" points="178.867,47.2441 197.764,47.2441 "/>
<path clip-path="url(#clip850)" d="M50.9921 686.899 L80.6679 686.899 L80.6679 690.834 L50.9921 690.834 L50.9921 686.899 Z" fill="#000000" fill-rule="nonzero" fill-opacity="1" /><path clip-path="url(#clip850)" d="M91.5706 699.793 L99.2095 699.793 L99.2095 673.427 L90.8993 675.094 L90.8993 670.835 L99.1632 669.168 L103.839 669.168 L103.839 699.793 L111.478 699.793 L111.478 703.728 L91.5706 703.728 L91.5706 699.793 Z" fill="#000000" fill-rule="nonzero" fill-opacity="1" /><path clip-path="url(#clip850)" d="M130.922 672.247 Q127.311 672.247 125.482 675.811 Q123.677 679.353 123.677 686.483 Q123.677 693.589 125.482 697.154 Q127.311 700.695 130.922 700.695 Q134.556 700.695 136.362 697.154 Q138.191 693.589 138.191 686.483 Q138.191 679.353 136.362 675.811 Q134.556 672.247 130.922 672.247 M130.922 668.543 Q136.732 668.543 139.788 673.149 Q142.867 677.733 142.867 686.483 Q142.867 695.209 139.788 699.816 Q136.732 704.399 130.922 704.399 Q125.112 704.399 122.033 699.816 Q118.978 695.209 118.978 686.483 Q118.978 677.733 122.033 673.149 Q125.112 668.543 130.922 668.543 Z" fill="#000000" fill-rule="nonzero" fill-opacity="1" /><path clip-path="url(#clip850)" d="M82.1494 527.098 L111.825 527.098 L111.825 531.033 L82.1494 531.033 L82.1494 527.098 Z" fill="#000000" fill-rule="nonzero" fill-opacity="1" /><path clip-path="url(#clip850)" d="M121.964 509.367 L140.32 509.367 L140.32 513.302 L126.246 513.302 L126.246 521.774 Q127.265 521.427 128.283 521.265 Q129.302 521.08 130.32 521.08 Q136.107 521.08 139.487 524.251 Q142.867 527.422 142.867 532.839 Q142.867 538.418 139.394 541.52 Q135.922 544.598 129.603 544.598 Q127.427 544.598 125.158 544.228 Q122.913 543.857 120.506 543.117 L120.506 538.418 Q122.589 539.552 124.811 540.108 Q127.033 540.663 129.51 540.663 Q133.515 540.663 135.853 538.557 Q138.191 536.45 138.191 532.839 Q138.191 529.228 135.853 527.121 Q133.515 525.015 129.51 525.015 Q127.635 525.015 125.76 525.432 Q123.908 525.848 121.964 526.728 L121.964 509.367 Z" fill="#000000" fill-rule="nonzero" fill-opacity="1" /><path clip-path="url(#clip850)" d="M130.922 352.645 Q127.311 352.645 125.482 356.209 Q123.677 359.751 123.677 366.881 Q123.677 373.987 125.482 377.552 Q127.311 381.094 130.922 381.094 Q134.556 381.094 136.362 377.552 Q138.191 373.987 138.191 366.881 Q138.191 359.751 136.362 356.209 Q134.556 352.645 130.922 352.645 M130.922 348.941 Q136.732 348.941 139.788 353.547 Q142.867 358.131 142.867 366.881 Q142.867 375.608 139.788 380.214 Q136.732 384.797 130.922 384.797 Q125.112 384.797 122.033 380.214 Q118.978 375.608 118.978 366.881 Q118.978 358.131 122.033 353.547 Q125.112 348.941 130.922 348.941 Z" fill="#000000" fill-rule="nonzero" fill-opacity="1" /><path clip-path="url(#clip850)" d="M121.964 189.765 L140.32 189.765 L140.32 193.7 L126.246 193.7 L126.246 202.172 Q127.265 201.825 128.283 201.663 Q129.302 201.478 130.32 201.478 Q136.107 201.478 139.487 204.649 Q142.867 207.82 142.867 213.237 Q142.867 218.816 139.394 221.918 Q135.922 224.996 129.603 224.996 Q127.427 224.996 125.158 224.626 Q122.913 224.256 120.506 223.515 L120.506 218.816 Q122.589 219.95 124.811 220.506 Q127.033 221.061 129.51 221.061 Q133.515 221.061 135.853 218.955 Q138.191 216.848 138.191 213.237 Q138.191 209.626 135.853 207.52 Q133.515 205.413 129.51 205.413 Q127.635 205.413 125.76 205.83 Q123.908 206.246 121.964 207.126 L121.964 189.765 Z" fill="#000000" fill-rule="nonzero" fill-opacity="1" /><path clip-path="url(#clip850)" d="M91.5706 60.5889 L99.2095 60.5889 L99.2095 34.2233 L90.8993 35.89 L90.8993 31.6308 L99.1632 29.9641 L103.839 29.9641 L103.839 60.5889 L111.478 60.5889 L111.478 64.5241 L91.5706 64.5241 L91.5706 60.5889 Z" fill="#000000" fill-rule="nonzero" fill-opacity="1" /><path clip-path="url(#clip850)" d="M130.922 33.0428 Q127.311 33.0428 125.482 36.6076 Q123.677 40.1492 123.677 47.2788 Q123.677 54.3853 125.482 57.9501 Q127.311 61.4917 130.922 61.4917 Q134.556 61.4917 136.362 57.9501 Q138.191 54.3853 138.191 47.2788 Q138.191 40.1492 136.362 36.6076 Q134.556 33.0428 130.922 33.0428 M130.922 29.3391 Q136.732 29.3391 139.788 33.9456 Q142.867 38.5289 142.867 47.2788 Q142.867 56.0056 139.788 60.6121 Q136.732 65.1954 130.922 65.1954 Q125.112 65.1954 122.033 60.6121 Q118.978 56.0056 118.978 47.2788 Q118.978 38.5289 122.033 33.9456 Q125.112 29.3391 130.922 29.3391 Z" fill="#000000" fill-rule="nonzero" fill-opacity="1" /><polyline clip-path="url(#clip852)" style="stroke:#009af9; stroke-linecap:round; stroke-linejoin:round; stroke-width:4; stroke-opacity:1; fill:none" points="240.392,334.886 242.445,334.74 244.498,337.763 246.55,345.102 248.603,339.94 250.656,340.064 252.709,340.31 254.762,336.503 256.815,336.508 258.868,336.178 260.921,332.117 262.974,339.464 265.027,338.44 267.079,317.938 269.132,342.793 271.185,336.755 273.238,290.678 275.291,290.519 277.344,295.137 279.397,292.848 281.45,291.377 283.503,291.371 285.555,322.626 287.608,381.807 289.661,336.735 291.714,333.953 293.767,350.527 295.82,348.783 297.873,311.181 299.926,206.38 301.979,218.36 304.031,222.664 306.084,221.164 308.137,290.257 310.19,281.779 312.243,265.524 314.296,280.659 316.349,249.864 318.402,246.729 320.455,236.672 322.507,250.775 324.56,236.149 326.613,234.84 328.666,234.118 330.719,233.534 332.772,225.88 334.825,208.488 336.878,211.991 338.931,273.133 340.984,264.155 343.036,321.9 345.089,322.029 347.142,321.862 349.195,309.094 351.248,313.198 353.301,344.93 355.354,332.765 357.407,225.935 359.46,254.645 361.512,248.079 363.565,244.555 365.618,244.141 367.671,244.155 369.724,243.306 371.777,285.363 373.83,296.574 375.883,185.98 377.936,159.879 379.988,154.184 382.041,205.748 384.094,268.843 386.147,151.347 388.2,229.749 390.253,303.088 392.306,306.424 394.359,306.384 396.412,319.573 398.464,321.177 400.517,236.125 402.57,241.191 404.623,382.584 406.676,381.916 408.729,378.849 410.782,377.96 412.835,373.507 414.888,377.303 416.94,378.768 418.993,383.63 421.046,414.741 423.099,370.593 425.152,456.764 427.205,477.337 429.258,223.215 431.311,431.862 433.364,499.527 435.417,316.893 437.469,311.196 439.522,312.739 441.575,315.925 443.628,298.887 445.681,294.364 447.734,294.377 449.787,317.399 451.84,428.281 453.893,436.245 455.945,441.142 457.998,430.218 460.051,399.614 462.104,406.782 464.157,444.636 466.21,417.857 468.263,385.831 470.316,445.692 472.369,437.273 474.421,433.249 476.474,430.063 478.527,549.272 480.58,548.38 482.633,544.94 484.686,566.121 486.739,559.425 488.792,510.053 490.845,517.23 492.897,517.313 494.95,436.75 497.003,498.298 499.056,346.504 501.109,452.536 503.162,447.453 505.215,494.162 507.268,466.687 509.321,396.8 511.374,463.549 513.426,546.01 515.479,559.044 517.532,560.396 519.585,561.222 521.638,496.254 523.691,430.091 525.744,632.244 527.797,573.224 529.85,549.2 531.902,544.829 533.955,542.866 536.008,516.63 538.061,504.975 540.114,504.603 542.167,505.118 544.22,541.505 546.273,546.621 548.326,622.41 550.378,478.491 552.431,494.442 554.484,494.446 556.537,183.011 558.59,221.73 560.643,575.074 562.696,563.949 564.749,471.945 566.802,455.376 568.854,397.212 570.907,380.814 572.96,361.415 575.013,365.472 577.066,362.2 579.119,362.238 581.172,370.532 583.225,369.597 585.278,369.242 587.331,324.137 589.383,317.444 591.436,255.4 593.489,189.669 595.542,204.113 597.595,207.887 599.648,211.595 601.701,187.644 603.754,158.143 605.807,205.964 607.859,265.596 609.912,281.346 611.965,11.9523 614.018,101.757 616.071,101.063 618.124,75.138 620.177,76.2812 622.23,219.462 624.283,254.331 626.335,263.234 628.388,252.187 630.441,246.671 632.494,244.068 634.547,246.376 636.6,121.892 638.653,130.953 640.706,119.222 642.759,525.947 644.811,488.884 646.864,490.048 648.917,29.6678 650.97,312.626 653.023,221.403 655.076,200.803 657.129,200.385 659.182,122.89 661.235,125.561 663.288,121.286 665.34,99.9314 667.393,122.714 669.446,122.608 671.499,78.7852 673.552,40.5742 675.605,66.9808 677.658,63.1355 679.711,198.794 681.764,192.104 683.816,200.01 685.869,117.205 687.922,220.836 689.975,93.1952 692.028,95.1857 694.081,98.7109 696.134,96.5509 698.187,65.4203 700.24,76.6441 702.292,139.017 704.345,428.648 706.398,454.154 708.451,101.609 710.504,126.759 712.557,147.891 714.61,149.9 716.663,520.681 718.716,524.906 720.768,528.924 722.821,527.569 724.874,547.117 726.927,566.663 728.98,598.549 731.033,510.663 733.086,476.072 735.139,508.383 737.192,612.111 739.245,610.502 741.297,582.307 743.35,440.316 745.403,313.329 747.456,342.761 749.509,592.469 751.562,489.386 753.615,406.301 755.668,380.763 757.721,253.678 759.773,252.034 761.826,251.222 763.879,257.879 765.932,283.758 767.985,288.035 770.038,286.64 772.091,292.296 774.144,293.591 776.197,294.966 778.249,279.942 780.302,281.583 782.355,252.088 784.408,278.32 786.461,278.257 788.514,272.193 790.567,273.353 792.62,272.717 794.673,281.21 796.725,269.179 798.778,229.406 800.831,320.844 802.884,459.711 804.937,428.083 806.99,198.457 809.043,200.709 811.096,191.636 813.149,192.044 815.202,202.568 817.254,370.253 819.307,362.032 821.36,464.695 823.413,482.54 825.466,481.249 827.519,486.472 829.572,508.894 831.625,323.183 833.678,306.053 835.73,355.071 837.783,378.43 839.836,379.423 841.889,369.841 843.942,359.773 845.995,359.749 848.048,412.701 850.101,354.959 852.154,355.166 854.206,410.516 856.259,416.927 858.312,415.715 860.365,423.842 862.418,423.468 864.471,423.426 866.524,423.655 868.577,436.595 870.63,435.274 872.682,416.145 874.735,402.719 876.788,402.54 878.841,346.64 880.894,343.815 882.947,342.546 885,347.619 887.053,347.776 889.106,347.811 891.159,319.352 893.211,364.901 895.264,389.503 897.317,389.351 899.37,388.76 901.423,371.2 903.476,371.755 905.529,350.843 907.582,354.522 909.635,358.665 911.687,348.744 913.74,355.751 915.793,349.408 917.846,351.611 919.899,352.059 921.952,358.579 924.005,357.659 926.058,357.842 928.111,336.797 930.163,338.227 932.216,338.888 934.269,339.387 936.322,346.962 938.375,350.743 940.428,342.39 942.481,338.336 944.534,338.656 946.587,338.477 948.639,338.754 950.692,337.931 952.745,337.941 954.798,335.025 956.851,344.658 958.904,342.723 960.957,342.125 963.01,342.53 965.063,339.295 967.116,349.856 969.168,352.125 971.221,351.808 973.274,352.018 975.327,352.272 977.38,354.71 979.433,354.714 981.486,358.824 983.539,359.148 985.592,358.708 987.644,343.531 989.697,343.916 991.75,390.459 993.803,376.756 995.856,385.762 997.909,385.209 999.962,384.216 1002.01,386.111 1004.07,386.023 1006.12,368.024 1008.17,366.493 1010.23,401.784 1012.28,429.713 1014.33,429.921 1016.38,411.369 1018.44,411.736 1020.49,416.973 1022.54,418.571 1024.6,423.366 1026.65,421.627 1028.7,388.691 1030.76,390.79 1032.81,390.21 1034.86,389.417 1036.91,388.824 1038.97,390.725 1041.02,402.21 1043.07,402.287 1045.13,376.251 1047.18,365.534 1049.23,362.397 1051.28,362.196 1053.34,363.483 1055.39,374.092 1057.44,373.459 1059.5,371.844 1061.55,401.619 1063.6,402.887 1065.65,417.44 1067.71,404.957 1069.76,409.703 1071.81,405 1073.87,410.103 1075.92,397.863 1077.97,414.809 1080.02,413.795 1082.08,412.052 1084.13,412.076 1086.18,413.175 1088.24,409.376 1090.29,408.486 1092.34,408.175 1094.39,406.08 1096.45,373.613 1098.5,373.186 1100.55,371.104 1102.61,370.634 1104.66,372.982 1106.71,373.385 1108.77,375.901 1110.82,380.064 1112.87,379.878 1114.92,367.19 1116.98,368.505 1119.03,365.126 1121.08,369.088 1123.14,363.583 1125.19,366.725 1127.24,364.531 1129.29,347.36 1131.35,350.901 1133.4,351.014 1135.45,374.308 1137.51,361.118 1139.56,361.759 1141.61,366.447 1143.66,366.641 1145.72,379.608 1147.77,385.357 1149.82,384.632 1151.88,395.484 1153.93,360.048 1155.98,360.103 1158.03,363.036 1160.09,363.125 1162.14,362.142 1164.19,360.706 1166.25,360.825 1168.3,361.385 1170.35,362.046 1172.4,362.263 1174.46,362.439 1176.51,353.645 1178.56,359.936 1180.62,364.303 1182.67,370.924 1184.72,374.836 1186.77,363.642 1188.83,363.669 1190.88,363.545 1192.93,368.027 1194.99,373.419 1197.04,372.161 1199.09,372.709 1201.15,372.648 1203.2,366.896 1205.25,373.276 1207.3,368.56 1209.36,368.913 1211.41,374.269 1213.46,365.728 1215.52,354.06 1217.57,355.737 1219.62,355.433 1221.67,356.667 1223.73,359.985 1225.78,380.571 1227.83,380.889 1229.89,378.409 1231.94,380.991 1233.99,387.967 1236.04,330.383 1238.1,331.691 1240.15,330.291 1242.2,342.437 1244.26,375.433 1246.31,365.415 1248.36,320.413 1250.41,319.86 1252.47,349.169 1254.52,378.73 1256.57,374.373 1258.63,378.189 1260.68,377.993 1262.73,380.545 1264.78,380.334 1266.84,380.692 1268.89,380.054 1270.94,397.159 1273,398.744 1275.05,398.543 1277.1,392.792 1279.16,392.134 1281.21,375.213 1283.26,373.12 1285.31,368.947 1287.37,369.013 1289.42,369.236 1291.47,378.07 1293.53,377.949 1295.58,376.867 1297.63,389.281 1299.68,371.268 1301.74,370.011 1303.79,370.537 1305.84,368.179 1307.9,363.257 1309.95,365.22 1312,367.1 1314.05,372.806 1316.11,372.343 1318.16,381.993 1320.21,381.985 1322.27,385.998 1324.32,386.128 1326.37,336.13 1328.42,342.628 1330.48,353.167 1332.53,360.808 1334.58,360.761 1336.64,364.78 1338.69,364.914 1340.74,364.974 1342.79,364.76 1344.85,364.759 1346.9,364.779 1348.95,364.996 1351.01,364.771 1353.06,367.277 1355.11,367.644 1357.16,360.66 1359.22,358.662 1361.27,346.247 1363.32,354.911 1365.38,361.515 1367.43,357.632 1369.48,357.715 1371.54,357.706 1373.59,359.51 1375.64,362.242 1377.69,362.192 1379.75,362.184 1381.8,354.733 1383.85,354.737 1385.91,353.405 1387.96,353.066 1390.01,349.445 1392.06,347.85 1394.12,347.884 1396.17,347.752 1398.22,349.39 1400.28,347.764 1402.33,347.753 1404.38,350.486 1406.43,350.478 1408.49,350.756 1410.54,349.072 1412.59,349.129 1414.65,349.838 1416.7,349.846 1418.75,348.506 1420.8,353.922 1422.86,356.925 1424.91,363.743 1426.96,364.167 1429.02,362.262 1431.07,366.972 1433.12,366.739 1435.17,371.721 1437.23,366.441 1439.28,348.434 1441.33,348.732 1443.39,348.708 1445.44,355.199 1447.49,356.522 1449.55,357.189 1451.6,359.115 1453.65,358.082 1455.7,357.505 1457.76,357.48 1459.81,357.629 1461.86,361.382 1463.92,361.35 1465.97,362.104 1468.02,357.435 1470.07,339.909 1472.13,408.608 1474.18,407.899 1476.23,393.615 1478.29,392.754 1480.34,398.365 1482.39,407.755 1484.44,407.627 1486.5,402.649 1488.55,384.307 1490.6,384.404 1492.66,393.536 1494.71,392.171 1496.76,392.482 1498.81,377.516 1500.87,399.315 1502.92,399.017 1504.97,392.108 1507.03,395.271 1509.08,394.59 1511.13,402.542 1513.18,398.91 1515.24,412.046 1517.29,387.872 1519.34,367.172 1521.4,372.12 1523.45,409.953 1525.5,420.973 1527.55,420.75 1529.61,420.937 1531.66,420.823 1533.71,310.088 1535.77,357.12 1537.82,355.724 1539.87,373.254 1541.93,359.953 1543.98,372.648 1546.03,474.812 1548.08,564.528 1550.14,551.322 1552.19,517.233 1554.24,511.966 1556.3,498.586 1558.35,499.173 1560.4,497.959 1562.45,502.492 1564.51,501.556 1566.56,499.987 1568.61,499.782 1570.67,504.439 1572.72,504.46 1574.77,491.881 1576.82,428.479 1578.88,427.866 1580.93,411.106 1582.98,334.823 1585.04,389.562 1587.09,389.765 1589.14,394.399 1591.19,394.322 1593.25,377.94 1595.3,371.394 1597.35,301.13 1599.41,286.255 1601.46,286.552 1603.51,263.281 1605.56,255 1607.62,255.195 1609.67,257.018 1611.72,293.218 1613.78,285.848 1615.83,289.137 1617.88,345.156 1619.94,319.068 1621.99,321.347 1624.04,370.263 1626.09,369.197 1628.15,363.197 1630.2,355.9 1632.25,336.668 1634.31,338.608 1636.36,332.277 1638.41,307.13 1640.46,263.579 1642.52,286.132 1644.57,261.771 1646.62,263.1 1648.68,246.37 1650.73,249.046 1652.78,513.266 1654.83,328.97 1656.89,146.706 1658.94,108.224 1660.99,270.075 1663.05,275.739 1665.1,272.101 1667.15,329.668 1669.2,328.465 1671.26,280.964 1673.31,291.618 1675.36,308.801 1677.42,309.887 1679.47,320.708 1681.52,320.138 1683.57,320.416 1685.63,334.055 1687.68,329.38 1689.73,248.347 1691.79,229.789 1693.84,264.7 1695.89,266.129 1697.94,261.206 1700,259.261 1702.05,261.725 1704.1,261.678 1706.16,270.039 1708.21,269.919 1710.26,269.596 1712.32,244.654 1714.37,273.504 1716.42,305.293 1718.47,307.635 1720.53,413.037 1722.58,414.852 1724.63,414.65 1726.69,416.062 1728.74,415.444 1730.79,416.017 1732.84,406.017 1734.9,404.246 1736.95,405.944 1739,457.468 1741.06,461.752 1743.11,461.789 1745.16,462.014 1747.21,453.363 1749.27,453.457 1751.32,449.389 1753.37,449.372 1755.43,448.773 1757.48,419.698 1759.53,419.636 1761.58,380.078 1763.64,388.855 1765.69,388.621 1767.74,389.479 1769.8,388.408 1771.85,373.614 1773.9,367.601 1775.95,359.643 1778.01,360.395 1780.06,353.165 1782.11,350.739 1784.17,377.864 1786.22,379.171 1788.27,377 1790.33,376.956 1792.38,375.124 1794.43,374.281 1796.48,374.306 1798.54,332.451 1800.59,351.624 1802.64,365.046 1804.7,327.227 1806.75,341.784 1808.8,338.902 1810.85,351.22 1812.91,353.754 1814.96,353.713 1817.01,354.241 1819.07,356.55 1821.12,356.444 1823.17,350.967 1825.22,350.453 1827.28,343.402 1829.33,341.971 1831.38,346.167 1833.44,334.94 1835.49,334.888 1837.54,339.439 1839.59,341.784 1841.65,340.73 1843.7,337.579 1845.75,337.297 1847.81,336.537 1849.86,336.594 1851.91,337.143 1853.96,338.318 1856.02,344.229 1858.07,417.671 1860.12,422.337 1862.18,423.075 1864.23,418.644 1866.28,419.229 1868.34,422.153 1870.39,433.163 1872.44,428.522 1874.49,433.895 1876.55,434.504 1878.6,383.073 1880.65,383.082 1882.71,385.301 1884.76,380.864 1886.81,377.347 1888.86,377.284 1890.92,379.725 1892.97,384.062 1895.02,384.189 1897.08,385.187 1899.13,385.051 1901.18,379.665 1903.23,377.077 1905.29,378.891 1907.34,385.162 1909.39,385.532 1911.45,373.856 1913.5,374.833 1915.55,372.37 1917.6,372.46 1919.66,372.979 1921.71,366.617 1923.76,365.908 1925.82,364.351 1927.87,361.614 1929.92,361.216 1931.97,359.731 1934.03,359.737 1936.08,366.262 1938.13,366.308 1940.19,366.891 1942.24,366.895 1944.29,352.271 1946.34,344.87 1948.4,343.983 1950.45,342.646 1952.5,322.266 1954.56,319.964 1956.61,300.371 1958.66,300.436 1960.72,300.874 1962.77,298.976 1964.82,298.978 1966.87,318.545 1968.93,346.266 1970.98,351.114 1973.03,358.62 1975.09,359.661 1977.14,355.943 1979.19,354.648 1981.24,364.857 1983.3,363.056 1985.35,330.684 1987.4,327.877 1989.46,327.219 1991.51,362.855 1993.56,368.449 1995.61,368.451 1997.67,363.198 1999.72,382.464 2001.77,386.012 2003.83,391.421 2005.88,391.515 2007.93,352.111 2009.98,390.348 2012.04,387.948 2014.09,389.473 2016.14,392.069 2018.2,371.156 2020.25,371.162 2022.3,362.078 2024.35,349.251 2026.41,391.629 2028.46,388.268 2030.51,387.447 2032.57,377.126 2034.62,363.942 2036.67,359.507 2038.73,362.23 2040.78,363.319 2042.83,366.563 2044.88,366.265 2046.94,377.039 2048.99,376.663 2051.04,365.396 2053.1,371.711 2055.15,393.333 2057.2,393.459 2059.25,388.395 2061.31,389.408 2063.36,285.724 2065.41,317.911 2067.47,362.845 2069.52,314.778 2071.57,328.279 2073.62,331.208 2075.68,298.392 2077.73,302.006 2079.78,312.579 2081.84,323.631 2083.89,322.78 2085.94,321.614 2087.99,342.621 2090.05,343.437 2092.1,370.312 2094.15,365.789 2096.21,366.94 2098.26,348.449 2100.31,352.33 2102.36,331.03 2104.42,325.492 2106.47,396.486 2108.52,400.881 2110.58,406.953 2112.63,399.883 2114.68,400.005 2116.73,400.099 2118.79,381.724 2120.84,378.191 2122.89,415.842 2124.95,415.774 2127,410.06 2129.05,417.67 2131.11,414.174 2133.16,414.133 2135.21,414.926 2137.26,370.177 2139.32,360.537 2141.37,360.24 2143.42,350.561 2145.48,355.251 2147.53,344.38 2149.58,324.435 2151.63,322.602 2153.69,290.319 2155.74,292.692 2157.79,252.673 2159.85,257.151 2161.9,257.304 2163.95,257.805 2166,257.629 2168.06,257.791 2170.11,285.991 2172.16,327.691 2174.22,333.509 2176.27,337.37 2178.32,368.928 2180.37,325.068 2182.43,305.569 2184.48,303.622 2186.53,298.685 2188.59,294.593 2190.64,304.7 2192.69,302.337 2194.74,311.403 2196.8,343.723 2198.85,345.458 2200.9,343.539 2202.96,343.525 2205.01,344.646 2207.06,338.826 2209.12,341.397 2211.17,345.392 2213.22,347.934 2215.27,349.583 2217.33,334.691 2219.38,332.235 2221.43,385.509 2223.49,379.271 2225.54,380.241 2227.59,385.691 2229.64,342.816 2231.7,341.889 2233.75,340.898 2235.8,376.322 2237.86,378.835 2239.91,379.696 2241.96,392.273 2244.01,383.545 2246.07,398.809 2248.12,390.716 2250.17,391.526 2252.23,395.107 2254.28,398.693 2256.33,392.679 2258.38,384.205 2260.44,385.3 2262.49,379.659 2264.54,379.533 2266.6,380.638 2268.65,354.42 2270.7,354.413 2272.75,354.504 2274.81,354.575 2276.86,354.562 2278.91,361.1 2280.97,360.885 2283.02,359.168 2285.07,358.718 2287.12,369.464 2289.18,370.37 2291.23,370.483 "/>
<path clip-path="url(#clip850)" d="M1983.6 172.231 L2280.29 172.231 L2280.29 68.5509 L1983.6 68.5509  Z" fill="#ffffff" fill-rule="evenodd" fill-opacity="1"/>
<polyline clip-path="url(#clip850)" style="stroke:#000000; stroke-linecap:round; stroke-linejoin:round; stroke-width:4; stroke-opacity:1; fill:none" points="1983.6,172.231 2280.29,172.231 2280.29,68.5509 1983.6,68.5509 1983.6,172.231 "/>
<polyline clip-path="url(#clip850)" style="stroke:#009af9; stroke-linecap:round; stroke-linejoin:round; stroke-width:4; stroke-opacity:1; fill:none" points="2007.75,120.391 2152.68,120.391 "/>
<path clip-path="url(#clip850)" d="M2176.83 103.111 L2181.51 103.111 L2181.51 133.736 L2198.34 133.736 L2198.34 137.671 L2176.83 137.671 L2176.83 103.111 Z" fill="#000000" fill-rule="nonzero" fill-opacity="1" /><path clip-path="url(#clip850)" d="M2223.96 104.245 L2223.96 108.805 Q2221.3 107.532 2218.94 106.907 Q2216.58 106.282 2214.38 106.282 Q2210.56 106.282 2208.48 107.764 Q2206.42 109.245 2206.42 111.977 Q2206.42 114.268 2207.78 115.449 Q2209.17 116.606 2213.01 117.324 L2215.84 117.902 Q2221.07 118.898 2223.55 121.421 Q2226.05 123.921 2226.05 128.134 Q2226.05 133.157 2222.67 135.75 Q2219.31 138.342 2212.81 138.342 Q2210.35 138.342 2207.57 137.787 Q2204.82 137.231 2201.86 136.143 L2201.86 131.328 Q2204.7 132.926 2207.44 133.736 Q2210.17 134.546 2212.81 134.546 Q2216.81 134.546 2218.99 132.972 Q2221.16 131.398 2221.16 128.481 Q2221.16 125.935 2219.59 124.5 Q2218.04 123.064 2214.47 122.347 L2211.62 121.791 Q2206.39 120.75 2204.06 118.527 Q2201.72 116.305 2201.72 112.347 Q2201.72 107.764 2204.94 105.125 Q2208.18 102.486 2213.85 102.486 Q2216.28 102.486 2218.8 102.926 Q2221.32 103.366 2223.96 104.245 Z" fill="#000000" fill-rule="nonzero" fill-opacity="1" /><path clip-path="url(#clip850)" d="M2254.06 104.245 L2254.06 108.805 Q2251.39 107.532 2249.03 106.907 Q2246.67 106.282 2244.47 106.282 Q2240.65 106.282 2238.57 107.764 Q2236.51 109.245 2236.51 111.977 Q2236.51 114.268 2237.87 115.449 Q2239.26 116.606 2243.11 117.324 L2245.93 117.902 Q2251.16 118.898 2253.64 121.421 Q2256.14 123.921 2256.14 128.134 Q2256.14 133.157 2252.76 135.75 Q2249.4 138.342 2242.9 138.342 Q2240.44 138.342 2237.67 137.787 Q2234.91 137.231 2231.95 136.143 L2231.95 131.328 Q2234.8 132.926 2237.53 133.736 Q2240.26 134.546 2242.9 134.546 Q2246.9 134.546 2249.08 132.972 Q2251.25 131.398 2251.25 128.481 Q2251.25 125.935 2249.68 124.5 Q2248.13 123.064 2244.56 122.347 L2241.72 121.791 Q2236.49 120.75 2234.15 118.527 Q2231.81 116.305 2231.81 112.347 Q2231.81 107.764 2235.03 105.125 Q2238.27 102.486 2243.94 102.486 Q2246.37 102.486 2248.89 102.926 Q2251.42 103.366 2254.06 104.245 Z" fill="#000000" fill-rule="nonzero" fill-opacity="1" /><path clip-path="url(#clip850)" d="M178.867 1486.45 L2352.76 1486.45 L2352.76 847.244 L178.867 847.244  Z" fill="#ffffff" fill-rule="evenodd" fill-opacity="1"/>
<defs>
  <clipPath id="clip853">
    <rect x="178" y="847" width="2175" height="640"/>
  </clipPath>
</defs>
<polyline clip-path="url(#clip853)" style="stroke:#000000; stroke-linecap:round; stroke-linejoin:round; stroke-width:2; stroke-opacity:0.1; fill:none" points="238.339,1486.45 238.339,847.244 "/>
<polyline clip-path="url(#clip853)" style="stroke:#000000; stroke-linecap:round; stroke-linejoin:round; stroke-width:2; stroke-opacity:0.1; fill:none" points="751.562,1486.45 751.562,847.244 "/>
<polyline clip-path="url(#clip853)" style="stroke:#000000; stroke-linecap:round; stroke-linejoin:round; stroke-width:2; stroke-opacity:0.1; fill:none" points="1264.78,1486.45 1264.78,847.244 "/>
<polyline clip-path="url(#clip853)" style="stroke:#000000; stroke-linecap:round; stroke-linejoin:round; stroke-width:2; stroke-opacity:0.1; fill:none" points="1778.01,1486.45 1778.01,847.244 "/>
<polyline clip-path="url(#clip853)" style="stroke:#000000; stroke-linecap:round; stroke-linejoin:round; stroke-width:2; stroke-opacity:0.1; fill:none" points="2291.23,1486.45 2291.23,847.244 "/>
<polyline clip-path="url(#clip853)" style="stroke:#000000; stroke-linecap:round; stroke-linejoin:round; stroke-width:2; stroke-opacity:0.1; fill:none" points="178.867,1486.45 2352.76,1486.45 "/>
<polyline clip-path="url(#clip853)" style="stroke:#000000; stroke-linecap:round; stroke-linejoin:round; stroke-width:2; stroke-opacity:0.1; fill:none" points="178.867,1326.65 2352.76,1326.65 "/>
<polyline clip-path="url(#clip853)" style="stroke:#000000; stroke-linecap:round; stroke-linejoin:round; stroke-width:2; stroke-opacity:0.1; fill:none" points="178.867,1166.85 2352.76,1166.85 "/>
<polyline clip-path="url(#clip853)" style="stroke:#000000; stroke-linecap:round; stroke-linejoin:round; stroke-width:2; stroke-opacity:0.1; fill:none" points="178.867,1007.05 2352.76,1007.05 "/>
<polyline clip-path="url(#clip853)" style="stroke:#000000; stroke-linecap:round; stroke-linejoin:round; stroke-width:2; stroke-opacity:0.1; fill:none" points="178.867,847.244 2352.76,847.244 "/>
<polyline clip-path="url(#clip850)" style="stroke:#000000; stroke-linecap:round; stroke-linejoin:round; stroke-width:4; stroke-opacity:1; fill:none" points="178.867,1486.45 2352.76,1486.45 "/>
<polyline clip-path="url(#clip850)" style="stroke:#000000; stroke-linecap:round; stroke-linejoin:round; stroke-width:4; stroke-opacity:1; fill:none" points="238.339,1486.45 238.339,1467.55 "/>
<polyline clip-path="url(#clip850)" style="stroke:#000000; stroke-linecap:round; stroke-linejoin:round; stroke-width:4; stroke-opacity:1; fill:none" points="751.562,1486.45 751.562,1467.55 "/>
<polyline clip-path="url(#clip850)" style="stroke:#000000; stroke-linecap:round; stroke-linejoin:round; stroke-width:4; stroke-opacity:1; fill:none" points="1264.78,1486.45 1264.78,1467.55 "/>
<polyline clip-path="url(#clip850)" style="stroke:#000000; stroke-linecap:round; stroke-linejoin:round; stroke-width:4; stroke-opacity:1; fill:none" points="1778.01,1486.45 1778.01,1467.55 "/>
<polyline clip-path="url(#clip850)" style="stroke:#000000; stroke-linecap:round; stroke-linejoin:round; stroke-width:4; stroke-opacity:1; fill:none" points="2291.23,1486.45 2291.23,1467.55 "/>
<path clip-path="url(#clip850)" d="M238.339 1517.37 Q234.728 1517.37 232.899 1520.93 Q231.094 1524.47 231.094 1531.6 Q231.094 1538.71 232.899 1542.27 Q234.728 1545.82 238.339 1545.82 Q241.973 1545.82 243.779 1542.27 Q245.607 1538.71 245.607 1531.6 Q245.607 1524.47 243.779 1520.93 Q241.973 1517.37 238.339 1517.37 M238.339 1513.66 Q244.149 1513.66 247.205 1518.27 Q250.283 1522.85 250.283 1531.6 Q250.283 1540.33 247.205 1544.94 Q244.149 1549.52 238.339 1549.52 Q232.529 1549.52 229.45 1544.94 Q226.395 1540.33 226.395 1531.6 Q226.395 1522.85 229.45 1518.27 Q232.529 1513.66 238.339 1513.66 Z" fill="#000000" fill-rule="nonzero" fill-opacity="1" /><path clip-path="url(#clip850)" d="M715.254 1544.91 L731.574 1544.91 L731.574 1548.85 L709.629 1548.85 L709.629 1544.91 Q712.291 1542.16 716.875 1537.53 Q721.481 1532.88 722.662 1531.53 Q724.907 1529.01 725.787 1527.27 Q726.689 1525.51 726.689 1523.82 Q726.689 1521.07 724.745 1519.33 Q722.824 1517.6 719.722 1517.6 Q717.523 1517.6 715.069 1518.36 Q712.638 1519.13 709.861 1520.68 L709.861 1515.95 Q712.685 1514.82 715.138 1514.24 Q717.592 1513.66 719.629 1513.66 Q725 1513.66 728.194 1516.35 Q731.388 1519.03 731.388 1523.52 Q731.388 1525.65 730.578 1527.57 Q729.791 1529.47 727.685 1532.07 Q727.106 1532.74 724.004 1535.95 Q720.902 1539.15 715.254 1544.91 Z" fill="#000000" fill-rule="nonzero" fill-opacity="1" /><path clip-path="url(#clip850)" d="M741.435 1514.29 L759.791 1514.29 L759.791 1518.22 L745.717 1518.22 L745.717 1526.7 Q746.736 1526.35 747.754 1526.19 Q748.773 1526 749.791 1526 Q755.578 1526 758.958 1529.17 Q762.337 1532.34 762.337 1537.76 Q762.337 1543.34 758.865 1546.44 Q755.393 1549.52 749.073 1549.52 Q746.898 1549.52 744.629 1549.15 Q742.384 1548.78 739.976 1548.04 L739.976 1543.34 Q742.06 1544.47 744.282 1545.03 Q746.504 1545.58 748.981 1545.58 Q752.985 1545.58 755.323 1543.48 Q757.661 1541.37 757.661 1537.76 Q757.661 1534.15 755.323 1532.04 Q752.985 1529.94 748.981 1529.94 Q747.106 1529.94 745.231 1530.35 Q743.379 1530.77 741.435 1531.65 L741.435 1514.29 Z" fill="#000000" fill-rule="nonzero" fill-opacity="1" /><path clip-path="url(#clip850)" d="M781.55 1517.37 Q777.939 1517.37 776.11 1520.93 Q774.305 1524.47 774.305 1531.6 Q774.305 1538.71 776.11 1542.27 Q777.939 1545.82 781.55 1545.82 Q785.184 1545.82 786.99 1542.27 Q788.819 1538.71 788.819 1531.6 Q788.819 1524.47 786.99 1520.93 Q785.184 1517.37 781.55 1517.37 M781.55 1513.66 Q787.36 1513.66 790.416 1518.27 Q793.495 1522.85 793.495 1531.6 Q793.495 1540.33 790.416 1544.94 Q787.36 1549.52 781.55 1549.52 Q775.74 1549.52 772.661 1544.94 Q769.606 1540.33 769.606 1531.6 Q769.606 1522.85 772.661 1518.27 Q775.74 1513.66 781.55 1513.66 Z" fill="#000000" fill-rule="nonzero" fill-opacity="1" /><path clip-path="url(#clip850)" d="M1224.4 1514.29 L1242.76 1514.29 L1242.76 1518.22 L1228.69 1518.22 L1228.69 1526.7 Q1229.7 1526.35 1230.72 1526.19 Q1231.74 1526 1232.76 1526 Q1238.55 1526 1241.93 1529.17 Q1245.31 1532.34 1245.31 1537.76 Q1245.31 1543.34 1241.83 1546.44 Q1238.36 1549.52 1232.04 1549.52 Q1229.87 1549.52 1227.6 1549.15 Q1225.35 1548.78 1222.94 1548.04 L1222.94 1543.34 Q1225.03 1544.47 1227.25 1545.03 Q1229.47 1545.58 1231.95 1545.58 Q1235.95 1545.58 1238.29 1543.48 Q1240.63 1541.37 1240.63 1537.76 Q1240.63 1534.15 1238.29 1532.04 Q1235.95 1529.94 1231.95 1529.94 Q1230.07 1529.94 1228.2 1530.35 Q1226.35 1530.77 1224.4 1531.65 L1224.4 1514.29 Z" fill="#000000" fill-rule="nonzero" fill-opacity="1" /><path clip-path="url(#clip850)" d="M1264.52 1517.37 Q1260.91 1517.37 1259.08 1520.93 Q1257.27 1524.47 1257.27 1531.6 Q1257.27 1538.71 1259.08 1542.27 Q1260.91 1545.82 1264.52 1545.82 Q1268.15 1545.82 1269.96 1542.27 Q1271.79 1538.71 1271.79 1531.6 Q1271.79 1524.47 1269.96 1520.93 Q1268.15 1517.37 1264.52 1517.37 M1264.52 1513.66 Q1270.33 1513.66 1273.38 1518.27 Q1276.46 1522.85 1276.46 1531.6 Q1276.46 1540.33 1273.38 1544.94 Q1270.33 1549.52 1264.52 1549.52 Q1258.71 1549.52 1255.63 1544.94 Q1252.57 1540.33 1252.57 1531.6 Q1252.57 1522.85 1255.63 1518.27 Q1258.71 1513.66 1264.52 1513.66 Z" fill="#000000" fill-rule="nonzero" fill-opacity="1" /><path clip-path="url(#clip850)" d="M1294.68 1517.37 Q1291.07 1517.37 1289.24 1520.93 Q1287.44 1524.47 1287.44 1531.6 Q1287.44 1538.71 1289.24 1542.27 Q1291.07 1545.82 1294.68 1545.82 Q1298.31 1545.82 1300.12 1542.27 Q1301.95 1538.71 1301.95 1531.6 Q1301.95 1524.47 1300.12 1520.93 Q1298.31 1517.37 1294.68 1517.37 M1294.68 1513.66 Q1300.49 1513.66 1303.55 1518.27 Q1306.62 1522.85 1306.62 1531.6 Q1306.62 1540.33 1303.55 1544.94 Q1300.49 1549.52 1294.68 1549.52 Q1288.87 1549.52 1285.79 1544.94 Q1282.74 1540.33 1282.74 1531.6 Q1282.74 1522.85 1285.79 1518.27 Q1288.87 1513.66 1294.68 1513.66 Z" fill="#000000" fill-rule="nonzero" fill-opacity="1" /><path clip-path="url(#clip850)" d="M1736.28 1514.29 L1758.51 1514.29 L1758.51 1516.28 L1745.96 1548.85 L1741.08 1548.85 L1752.88 1518.22 L1736.28 1518.22 L1736.28 1514.29 Z" fill="#000000" fill-rule="nonzero" fill-opacity="1" /><path clip-path="url(#clip850)" d="M1767.67 1514.29 L1786.03 1514.29 L1786.03 1518.22 L1771.95 1518.22 L1771.95 1526.7 Q1772.97 1526.35 1773.99 1526.19 Q1775.01 1526 1776.03 1526 Q1781.82 1526 1785.2 1529.17 Q1788.57 1532.34 1788.57 1537.76 Q1788.57 1543.34 1785.1 1546.44 Q1781.63 1549.52 1775.31 1549.52 Q1773.14 1549.52 1770.87 1549.15 Q1768.62 1548.78 1766.21 1548.04 L1766.21 1543.34 Q1768.3 1544.47 1770.52 1545.03 Q1772.74 1545.58 1775.22 1545.58 Q1779.22 1545.58 1781.56 1543.48 Q1783.9 1541.37 1783.9 1537.76 Q1783.9 1534.15 1781.56 1532.04 Q1779.22 1529.94 1775.22 1529.94 Q1773.34 1529.94 1771.47 1530.35 Q1769.62 1530.77 1767.67 1531.65 L1767.67 1514.29 Z" fill="#000000" fill-rule="nonzero" fill-opacity="1" /><path clip-path="url(#clip850)" d="M1807.79 1517.37 Q1804.18 1517.37 1802.35 1520.93 Q1800.54 1524.47 1800.54 1531.6 Q1800.54 1538.71 1802.35 1542.27 Q1804.18 1545.82 1807.79 1545.82 Q1811.42 1545.82 1813.23 1542.27 Q1815.06 1538.71 1815.06 1531.6 Q1815.06 1524.47 1813.23 1520.93 Q1811.42 1517.37 1807.79 1517.37 M1807.79 1513.66 Q1813.6 1513.66 1816.65 1518.27 Q1819.73 1522.85 1819.73 1531.6 Q1819.73 1540.33 1816.65 1544.94 Q1813.6 1549.52 1807.79 1549.52 Q1801.98 1549.52 1798.9 1544.94 Q1795.84 1540.33 1795.84 1531.6 Q1795.84 1522.85 1798.9 1518.27 Q1801.98 1513.66 1807.79 1513.66 Z" fill="#000000" fill-rule="nonzero" fill-opacity="1" /><path clip-path="url(#clip850)" d="M2235.76 1544.91 L2243.4 1544.91 L2243.4 1518.55 L2235.09 1520.21 L2235.09 1515.95 L2243.35 1514.29 L2248.02 1514.29 L2248.02 1544.91 L2255.66 1544.91 L2255.66 1548.85 L2235.76 1548.85 L2235.76 1544.91 Z" fill="#000000" fill-rule="nonzero" fill-opacity="1" /><path clip-path="url(#clip850)" d="M2275.11 1517.37 Q2271.5 1517.37 2269.67 1520.93 Q2267.86 1524.47 2267.86 1531.6 Q2267.86 1538.71 2269.67 1542.27 Q2271.5 1545.82 2275.11 1545.82 Q2278.74 1545.82 2280.55 1542.27 Q2282.38 1538.71 2282.38 1531.6 Q2282.38 1524.47 2280.55 1520.93 Q2278.74 1517.37 2275.11 1517.37 M2275.11 1513.66 Q2280.92 1513.66 2283.97 1518.27 Q2287.05 1522.85 2287.05 1531.6 Q2287.05 1540.33 2283.97 1544.94 Q2280.92 1549.52 2275.11 1549.52 Q2269.3 1549.52 2266.22 1544.94 Q2263.16 1540.33 2263.16 1531.6 Q2263.16 1522.85 2266.22 1518.27 Q2269.3 1513.66 2275.11 1513.66 Z" fill="#000000" fill-rule="nonzero" fill-opacity="1" /><path clip-path="url(#clip850)" d="M2305.27 1517.37 Q2301.66 1517.37 2299.83 1520.93 Q2298.02 1524.47 2298.02 1531.6 Q2298.02 1538.71 2299.83 1542.27 Q2301.66 1545.82 2305.27 1545.82 Q2308.9 1545.82 2310.71 1542.27 Q2312.54 1538.71 2312.54 1531.6 Q2312.54 1524.47 2310.71 1520.93 Q2308.9 1517.37 2305.27 1517.37 M2305.27 1513.66 Q2311.08 1513.66 2314.14 1518.27 Q2317.21 1522.85 2317.21 1531.6 Q2317.21 1540.33 2314.14 1544.94 Q2311.08 1549.52 2305.27 1549.52 Q2299.46 1549.52 2296.38 1544.94 Q2293.33 1540.33 2293.33 1531.6 Q2293.33 1522.85 2296.38 1518.27 Q2299.46 1513.66 2305.27 1513.66 Z" fill="#000000" fill-rule="nonzero" fill-opacity="1" /><path clip-path="url(#clip850)" d="M2335.43 1517.37 Q2331.82 1517.37 2329.99 1520.93 Q2328.19 1524.47 2328.19 1531.6 Q2328.19 1538.71 2329.99 1542.27 Q2331.82 1545.82 2335.43 1545.82 Q2339.07 1545.82 2340.87 1542.27 Q2342.7 1538.71 2342.7 1531.6 Q2342.7 1524.47 2340.87 1520.93 Q2339.07 1517.37 2335.43 1517.37 M2335.43 1513.66 Q2341.24 1513.66 2344.3 1518.27 Q2347.38 1522.85 2347.38 1531.6 Q2347.38 1540.33 2344.3 1544.94 Q2341.24 1549.52 2335.43 1549.52 Q2329.62 1549.52 2326.54 1544.94 Q2323.49 1540.33 2323.49 1531.6 Q2323.49 1522.85 2326.54 1518.27 Q2329.62 1513.66 2335.43 1513.66 Z" fill="#000000" fill-rule="nonzero" fill-opacity="1" /><polyline clip-path="url(#clip850)" style="stroke:#000000; stroke-linecap:round; stroke-linejoin:round; stroke-width:4; stroke-opacity:1; fill:none" points="178.867,1486.45 178.867,847.244 "/>
<polyline clip-path="url(#clip850)" style="stroke:#000000; stroke-linecap:round; stroke-linejoin:round; stroke-width:4; stroke-opacity:1; fill:none" points="178.867,1486.45 197.764,1486.45 "/>
<polyline clip-path="url(#clip850)" style="stroke:#000000; stroke-linecap:round; stroke-linejoin:round; stroke-width:4; stroke-opacity:1; fill:none" points="178.867,1326.65 197.764,1326.65 "/>
<polyline clip-path="url(#clip850)" style="stroke:#000000; stroke-linecap:round; stroke-linejoin:round; stroke-width:4; stroke-opacity:1; fill:none" points="178.867,1166.85 197.764,1166.85 "/>
<polyline clip-path="url(#clip850)" style="stroke:#000000; stroke-linecap:round; stroke-linejoin:round; stroke-width:4; stroke-opacity:1; fill:none" points="178.867,1007.05 197.764,1007.05 "/>
<polyline clip-path="url(#clip850)" style="stroke:#000000; stroke-linecap:round; stroke-linejoin:round; stroke-width:4; stroke-opacity:1; fill:none" points="178.867,847.244 197.764,847.244 "/>
<path clip-path="url(#clip850)" d="M50.9921 1486.9 L80.6679 1486.9 L80.6679 1490.83 L50.9921 1490.83 L50.9921 1486.9 Z" fill="#000000" fill-rule="nonzero" fill-opacity="1" /><path clip-path="url(#clip850)" d="M91.5706 1499.79 L99.2095 1499.79 L99.2095 1473.43 L90.8993 1475.09 L90.8993 1470.83 L99.1632 1469.17 L103.839 1469.17 L103.839 1499.79 L111.478 1499.79 L111.478 1503.73 L91.5706 1503.73 L91.5706 1499.79 Z" fill="#000000" fill-rule="nonzero" fill-opacity="1" /><path clip-path="url(#clip850)" d="M130.922 1472.25 Q127.311 1472.25 125.482 1475.81 Q123.677 1479.35 123.677 1486.48 Q123.677 1493.59 125.482 1497.15 Q127.311 1500.7 130.922 1500.7 Q134.556 1500.7 136.362 1497.15 Q138.191 1493.59 138.191 1486.48 Q138.191 1479.35 136.362 1475.81 Q134.556 1472.25 130.922 1472.25 M130.922 1468.54 Q136.732 1468.54 139.788 1473.15 Q142.867 1477.73 142.867 1486.48 Q142.867 1495.21 139.788 1499.82 Q136.732 1504.4 130.922 1504.4 Q125.112 1504.4 122.033 1499.82 Q118.978 1495.21 118.978 1486.48 Q118.978 1477.73 122.033 1473.15 Q125.112 1468.54 130.922 1468.54 Z" fill="#000000" fill-rule="nonzero" fill-opacity="1" /><path clip-path="url(#clip850)" d="M82.1494 1327.1 L111.825 1327.1 L111.825 1331.03 L82.1494 1331.03 L82.1494 1327.1 Z" fill="#000000" fill-rule="nonzero" fill-opacity="1" /><path clip-path="url(#clip850)" d="M121.964 1309.37 L140.32 1309.37 L140.32 1313.3 L126.246 1313.3 L126.246 1321.77 Q127.265 1321.43 128.283 1321.27 Q129.302 1321.08 130.32 1321.08 Q136.107 1321.08 139.487 1324.25 Q142.867 1327.42 142.867 1332.84 Q142.867 1338.42 139.394 1341.52 Q135.922 1344.6 129.603 1344.6 Q127.427 1344.6 125.158 1344.23 Q122.913 1343.86 120.506 1343.12 L120.506 1338.42 Q122.589 1339.55 124.811 1340.11 Q127.033 1340.66 129.51 1340.66 Q133.515 1340.66 135.853 1338.56 Q138.191 1336.45 138.191 1332.84 Q138.191 1329.23 135.853 1327.12 Q133.515 1325.01 129.51 1325.01 Q127.635 1325.01 125.76 1325.43 Q123.908 1325.85 121.964 1326.73 L121.964 1309.37 Z" fill="#000000" fill-rule="nonzero" fill-opacity="1" /><path clip-path="url(#clip850)" d="M130.922 1152.64 Q127.311 1152.64 125.482 1156.21 Q123.677 1159.75 123.677 1166.88 Q123.677 1173.99 125.482 1177.55 Q127.311 1181.09 130.922 1181.09 Q134.556 1181.09 136.362 1177.55 Q138.191 1173.99 138.191 1166.88 Q138.191 1159.75 136.362 1156.21 Q134.556 1152.64 130.922 1152.64 M130.922 1148.94 Q136.732 1148.94 139.788 1153.55 Q142.867 1158.13 142.867 1166.88 Q142.867 1175.61 139.788 1180.21 Q136.732 1184.8 130.922 1184.8 Q125.112 1184.8 122.033 1180.21 Q118.978 1175.61 118.978 1166.88 Q118.978 1158.13 122.033 1153.55 Q125.112 1148.94 130.922 1148.94 Z" fill="#000000" fill-rule="nonzero" fill-opacity="1" /><path clip-path="url(#clip850)" d="M121.964 989.765 L140.32 989.765 L140.32 993.7 L126.246 993.7 L126.246 1002.17 Q127.265 1001.83 128.283 1001.66 Q129.302 1001.48 130.32 1001.48 Q136.107 1001.48 139.487 1004.65 Q142.867 1007.82 142.867 1013.24 Q142.867 1018.82 139.394 1021.92 Q135.922 1025 129.603 1025 Q127.427 1025 125.158 1024.63 Q122.913 1024.26 120.506 1023.51 L120.506 1018.82 Q122.589 1019.95 124.811 1020.51 Q127.033 1021.06 129.51 1021.06 Q133.515 1021.06 135.853 1018.95 Q138.191 1016.85 138.191 1013.24 Q138.191 1009.63 135.853 1007.52 Q133.515 1005.41 129.51 1005.41 Q127.635 1005.41 125.76 1005.83 Q123.908 1006.25 121.964 1007.13 L121.964 989.765 Z" fill="#000000" fill-rule="nonzero" fill-opacity="1" /><path clip-path="url(#clip850)" d="M91.5706 860.589 L99.2095 860.589 L99.2095 834.223 L90.8993 835.89 L90.8993 831.631 L99.1632 829.964 L103.839 829.964 L103.839 860.589 L111.478 860.589 L111.478 864.524 L91.5706 864.524 L91.5706 860.589 Z" fill="#000000" fill-rule="nonzero" fill-opacity="1" /><path clip-path="url(#clip850)" d="M130.922 833.043 Q127.311 833.043 125.482 836.608 Q123.677 840.149 123.677 847.279 Q123.677 854.385 125.482 857.95 Q127.311 861.492 130.922 861.492 Q134.556 861.492 136.362 857.95 Q138.191 854.385 138.191 847.279 Q138.191 840.149 136.362 836.608 Q134.556 833.043 130.922 833.043 M130.922 829.339 Q136.732 829.339 139.788 833.946 Q142.867 838.529 142.867 847.279 Q142.867 856.006 139.788 860.612 Q136.732 865.195 130.922 865.195 Q125.112 865.195 122.033 860.612 Q118.978 856.006 118.978 847.279 Q118.978 838.529 122.033 833.946 Q125.112 829.339 130.922 829.339 Z" fill="#000000" fill-rule="nonzero" fill-opacity="1" /><polyline clip-path="url(#clip853)" style="stroke:#009af9; stroke-linecap:round; stroke-linejoin:round; stroke-width:4; stroke-opacity:1; fill:none" points="240.392,1134.89 242.445,1206.97 244.498,1147.99 246.55,1189.92 248.603,1124.97 250.656,1192.08 252.709,1108.58 254.762,1175.02 256.815,1175.85 258.868,1178.97 260.921,1162.09 262.974,1163.29 265.027,1160.96 267.079,1145.04 269.132,1185.45 271.185,1169.82 273.238,1206.47 275.291,1200.54 277.344,1193.36 279.397,1190.08 281.45,1171.43 283.503,1162.31 285.555,1159.78 287.608,1209.21 289.661,1187.5 291.714,1205.59 293.767,1142.16 295.82,1248.53 297.873,1097.87 299.926,1145.07 301.979,1266.57 304.031,1256.89 306.084,923.377 308.137,1329.15 310.19,1320.99 312.243,1131.04 314.296,1159.71 316.349,980.277 318.402,1340.8 320.455,968.837 322.507,1167.96 324.56,1082.4 326.613,1137.42 328.666,1109.94 330.719,1212.45 332.772,1147.68 334.825,1183.08 336.878,1137.53 338.931,1162.37 340.984,1170.87 343.036,1317.35 345.089,1392.59 347.142,1190.39 349.195,1266.91 351.248,1148.82 353.301,1130.73 355.354,1140.28 357.407,1195.34 359.46,1193.99 361.512,1115.29 363.565,1157.18 365.618,1143.19 367.671,1127.69 369.724,1185.6 371.777,1200.15 373.83,1225.24 375.883,1243.23 377.936,1188.84 379.988,1188.58 382.041,1126.08 384.094,1185.15 386.147,1248.97 388.2,1647.79 390.253,1176.92 392.306,1142.37 394.359,1202.23 396.412,1157.32 398.464,1141.74 400.517,1178.58 402.57,1161.12 404.623,1128.53 406.676,1134.46 408.729,1122.07 410.782,1124.21 412.835,835.242 414.888,1174.5 416.94,1171.94 418.993,1169.5 421.046,1138.43 423.099,1112.27 425.152,1100.17 427.205,1236.99 429.258,1182.32 431.311,1181.21 433.364,1182.15 435.417,1145.35 437.469,1172.75 439.522,1173.56 441.575,1190.96 443.628,1106.04 445.681,1176.67 447.734,1176.89 449.787,1164.97 451.84,1194.8 453.893,1045.13 455.945,1050.2 457.998,1267.71 460.051,1167.94 462.104,1156.58 464.157,1143.39 466.21,1185.17 468.263,1170.34 470.316,1191.91 472.369,1170.99 474.421,1188.34 476.474,1050.03 478.527,1230.66 480.58,1292.63 482.633,1347.34 484.686,1222.62 486.739,1158.93 488.792,1174.66 490.845,1190.85 492.897,1113.99 494.95,1160.44 497.003,1153.9 499.056,1133.83 501.109,1177.05 503.162,1172.39 505.215,1138.06 507.268,1229.46 509.321,1125.57 511.374,1191.36 513.426,1117.77 515.479,1156.11 517.532,973.547 519.585,1465.36 521.638,1136.28 523.691,1184.75 525.744,955.545 527.797,1371.71 529.85,1309.19 531.902,1217.08 533.955,1139.56 536.008,1185.28 538.061,1199.58 540.114,1220.26 542.167,967.05 544.22,1169.44 546.273,1050.72 548.326,1161.28 550.378,1197.9 552.431,1173.7 554.484,1302.46 556.537,1026.08 558.59,1208.54 560.643,1164.91 562.696,1169.2 564.749,1157.33 566.802,1230.17 568.854,1117.42 570.907,1192.16 572.96,1170.56 575.013,1159.63 577.066,1171.16 579.119,1175.01 581.172,1162.22 583.225,1179.47 585.278,1202.34 587.331,1111.28 589.383,1196.92 591.436,639.195 593.489,1309.67 595.542,1160.27 597.595,847.463 599.648,1113.01 601.701,1090.24 603.754,1215.15 605.807,1153.96 607.859,1125.79 609.912,1194.5 611.965,1111.33 614.018,1204.36 616.071,1102.95 618.124,1111.94 620.177,1142.69 622.23,1149.63 624.283,1237.27 626.335,1033.07 628.388,1217.26 630.441,1183.11 632.494,1199.13 634.547,1154.95 636.6,1196.42 638.653,1165.02 640.706,1164.44 642.759,1201.74 644.811,1158.98 646.864,1180.67 648.917,1148.87 650.97,1170.57 653.023,1169.92 655.076,1172.16 657.129,1182.9 659.182,1167.09 661.235,1172.09 663.288,1194.65 665.34,1166.48 667.393,1159.25 669.446,1190.18 671.499,1143.4 673.552,1168.08 675.605,1161.71 677.658,1135.34 679.711,1192.41 681.764,1208.58 683.816,1295.25 685.869,1285.06 687.922,865.074 689.975,1504.74 692.028,821.27 694.081,1398.04 696.134,1381.38 698.187,1130.45 700.24,1297.1 702.292,1273.72 704.345,1092.84 706.398,1220.6 708.451,1053.43 710.504,-398.53 712.557,-110.526 714.61,1801.56 716.663,972.055 718.716,774.691 720.768,961.006 722.821,1521.89 724.874,1231.53 726.927,1202.75 728.98,1191.92 731.033,1097.48 733.086,1226.52 735.139,989.608 737.192,1215.92 739.245,1206.89 741.297,1195.43 743.35,1154.51 745.403,1161.05 747.456,1151.81 749.509,1187.87 751.562,1155.21 753.615,1155.59 755.668,1174.79 757.721,1168.63 759.773,1148.25 761.826,1147.76 763.879,1177.47 765.932,1160.02 767.985,1077.96 770.038,1140.17 772.091,1094.16 774.144,1214.56 776.197,1209.47 778.249,1154.52 780.302,1227.22 782.355,1177.2 784.408,1218.81 786.461,1030.7 788.514,1282.43 790.567,1248.61 792.62,914.553 794.673,959.844 796.725,1210.52 798.778,1106.4 800.831,1157.57 802.884,1072.47 804.937,1166.18 806.99,1205.1 809.043,1090.36 811.096,1216.36 813.149,1182.32 815.202,1202.42 817.254,1169.86 819.307,1141.57 821.36,1174.98 823.413,1185.2 825.466,1150.82 827.519,1175.26 829.572,1155.61 831.625,1157.81 833.678,1088.83 835.73,1156.81 837.783,1191.95 839.836,1120.59 841.889,1194.07 843.942,1147.66 845.995,1162.13 848.048,1178.09 850.101,1099.1 852.154,1129.9 854.206,1145.48 856.259,1186.37 858.312,1183.47 860.365,1143.54 862.418,1207.11 864.471,1126.42 866.524,1069.42 868.577,1119.38 870.63,1170.95 872.682,1189 874.735,1178.73 876.788,1196.63 878.841,1182.92 880.894,1190.33 882.947,1171.2 885,1162.27 887.053,1142.76 889.106,1155.03 891.159,1167.77 893.211,1045.09 895.264,1239.89 897.317,1194.46 899.37,1163.34 901.423,1180.61 903.476,1163.65 905.529,1207.31 907.582,1095.99 909.635,1183.96 911.687,1177.07 913.74,1159.63 915.793,1185.94 917.846,1145.37 919.899,1130.42 921.952,1157.97 924.005,1168.76 926.058,1176.08 928.111,1087.53 930.163,1222.67 932.216,1206.02 934.269,1171.54 936.322,1224.54 938.375,1179.59 940.428,1151.33 942.481,1103.78 944.534,1188.5 946.587,1179.44 948.639,1184.08 950.692,1161.87 952.745,1150.76 954.798,1155.2 956.851,1164.06 958.904,1219.16 960.957,1146.36 963.01,1220.71 965.063,1147.58 967.116,1156.95 969.168,1162.05 971.221,1167.63 973.274,1156.76 975.327,1155.4 977.38,1162.41 979.433,1178.41 981.486,1172.86 983.539,1147.65 985.592,1153.32 987.644,1132.19 989.697,1204.49 991.75,1135.93 993.803,1134.33 995.856,1101.76 997.909,1166.01 999.962,1174.07 1002.01,1144.36 1004.07,1140.62 1006.12,1188.5 1008.17,1153.25 1010.23,1170.08 1012.28,1178.09 1014.33,1179.49 1016.38,1201.24 1018.44,1154.7 1020.49,1181.1 1022.54,1176.34 1024.6,998.468 1026.65,1345.94 1028.7,1869.04 1030.76,1715.18 1032.81,1150.54 1034.86,1078.37 1036.91,1211.51 1038.97,900.343 1041.02,916.13 1043.07,1271.79 1045.13,1210.43 1047.18,1194.74 1049.23,1211.15 1051.28,1106.31 1053.34,1240.52 1055.39,1108.25 1057.44,1085.59 1059.5,1047.81 1061.55,1182.34 1063.6,1157.95 1065.65,1187.99 1067.71,1147.03 1069.76,1188.3 1071.81,1131.15 1073.87,1153.66 1075.92,1174.11 1077.97,1088.44 1080.02,1169.5 1082.08,1157.21 1084.13,1169.51 1086.18,1194.96 1088.24,1373.93 1090.29,1274.12 1092.34,1044.98 1094.39,1698.11 1096.45,1911.95 1098.5,1218.19 1100.55,932.196 1102.61,811.993 1104.66,1428.29 1106.71,973.74 1108.77,1340.25 1110.82,1096.93 1112.87,1029.07 1114.92,1133.98 1116.98,1033.76 1119.03,1133.86 1121.08,1186.85 1123.14,1191.49 1125.19,1145.29 1127.24,1166.79 1129.29,1127.68 1131.35,954.94 1133.4,1082.11 1135.45,1162.48 1137.51,1145.83 1139.56,1162.91 1141.61,1160.23 1143.66,1165.6 1145.72,1173.47 1147.77,1181.23 1149.82,1163.16 1151.88,1127.81 1153.93,1141.45 1155.98,1135.35 1158.03,1149.18 1160.09,1366.11 1162.14,1397.42 1164.19,1143.68 1166.25,1155.92 1168.3,828.618 1170.35,1230.68 1172.4,1182.16 1174.46,1121.4 1176.51,1080.5 1178.56,1085.35 1180.62,1196.5 1182.67,1187.54 1184.72,1391.05 1186.77,1058.34 1188.83,1179.48 1190.88,1159.3 1192.93,1157.06 1194.99,1174.4 1197.04,1157.91 1199.09,1161.96 1201.15,1219.01 1203.2,1168.93 1205.25,1159.97 1207.3,1206.12 1209.36,1190.98 1211.41,1212.4 1213.46,1053.3 1215.52,1173.34 1217.57,1164.52 1219.62,1158.8 1221.67,1090.45 1223.73,1139.05 1225.78,1155.11 1227.83,1209.23 1229.89,1175.77 1231.94,1203.15 1233.99,1187.66 1236.04,1074.28 1238.1,1140.91 1240.15,1279.2 1242.2,1134.52 1244.26,1181.47 1246.31,1230.72 1248.36,1264.06 1250.41,1113.03 1252.47,1138.68 1254.52,1188.37 1256.57,1134.38 1258.63,1174.78 1260.68,1206.75 1262.73,1174.24 1264.78,1172.39 1266.84,1214.55 1268.89,1231.1 1270.94,1086.8 1273,1259.61 1275.05,1106.58 1277.1,1117.52 1279.16,1185.69 1281.21,1134.13 1283.26,1148.68 1285.31,1150.94 1287.37,1136.44 1289.42,1105.55 1291.47,1196.83 1293.53,1189.94 1295.58,1221.51 1297.63,1159.49 1299.68,1186.02 1301.74,1153.37 1303.79,1179.88 1305.84,1173.7 1307.9,1180.18 1309.95,1175.7 1312,1170.75 1314.05,1171.04 1316.11,1207.68 1318.16,1175.2 1320.21,1164.12 1322.27,1139.79 1324.32,1123.66 1326.37,1147.55 1328.42,1189.02 1330.48,1106.07 1332.53,818.683 1334.58,1062.11 1336.64,1132.5 1338.69,1211.76 1340.74,1210.19 1342.79,1211.7 1344.85,1119.6 1346.9,1104.5 1348.95,1241.55 1351.01,1133.1 1353.06,1153.47 1355.11,1155.61 1357.16,1185.11 1359.22,1144.86 1361.27,1370.57 1363.32,1070.42 1365.38,1290.21 1367.43,1325.94 1369.48,1348.67 1371.54,1445.55 1373.59,445.567 1375.64,685.14 1377.69,1359.71 1379.75,3686.14 1381.8,573.891 1383.85,171.527 1385.91,1814.68 1387.96,240.683 1390.01,1418.64 1392.06,1123.45 1394.12,1411.78 1396.17,1158.85 1398.22,1172.84 1400.28,1165.69 1402.33,1148.58 1404.38,1120.29 1406.43,1101.22 1408.49,1129.12 1410.54,1134.35 1412.59,1170.58 1414.65,1194.33 1416.7,1097.98 1418.75,1118.86 1420.8,1152.02 1422.86,1148.1 1424.91,1175.85 1426.96,1161.61 1429.02,1142.67 1431.07,1155.57 1433.12,1159.88 1435.17,1160.89 1437.23,1194.99 1439.28,1247.25 1441.33,1191.47 1443.39,1115.45 1445.44,1264.97 1447.49,1213.86 1449.55,1124.89 1451.6,1147.22 1453.65,1115.48 1455.7,1204.5 1457.76,1188.41 1459.81,1163.26 1461.86,1195.7 1463.92,1183.01 1465.97,1158.68 1468.02,1180.26 1470.07,1133.81 1472.13,1151.74 1474.18,1175.53 1476.23,1128.14 1478.29,1147.63 1480.34,1172.5 1482.39,1150.53 1484.44,1177.85 1486.5,1146.95 1488.55,1160.7 1490.6,1160.8 1492.66,1199.73 1494.71,1142.47 1496.76,1219.93 1498.81,1133.99 1500.87,1183.8 1502.92,1219.32 1504.97,1163.93 1507.03,1179.06 1509.08,1169.89 1511.13,1220.97 1513.18,1142.85 1515.24,1218.81 1517.29,1133.36 1519.34,1169.62 1521.4,1148.6 1523.45,1222.04 1525.5,1065.64 1527.55,1150.52 1529.61,1205.82 1531.66,1194.23 1533.71,1151.81 1535.77,1188.32 1537.82,1166.58 1539.87,1162.39 1541.93,1153.78 1543.98,1200.05 1546.03,1210.14 1548.08,1123.84 1550.14,1286.41 1552.19,1207.79 1554.24,1155.63 1556.3,1215.04 1558.35,1172.19 1560.4,1155.52 1562.45,1218.27 1564.51,983.179 1566.56,1146.41 1568.61,1206.05 1570.67,1176.08 1572.72,1233.04 1574.77,1191.61 1576.82,1152.18 1578.88,1187.56 1580.93,1159.84 1582.98,1145.35 1585.04,1142.25 1587.09,1065.08 1589.14,1276.42 1591.19,1111 1593.25,1179.32 1595.3,1223.23 1597.35,1145.21 1599.41,1162.74 1601.46,1065.45 1603.51,1146.69 1605.56,875.24 1607.62,1208.76 1609.67,1172.75 1611.72,1163.55 1613.78,1163.74 1615.83,918.456 1617.88,1337.43 1619.94,820.26 1621.99,1168.29 1624.04,1167.41 1626.09,1195.38 1628.15,1177.96 1630.2,1169.21 1632.25,1187.14 1634.31,1144.37 1636.36,1193.77 1638.41,1209.68 1640.46,1201.29 1642.52,1188.84 1644.57,1027.52 1646.62,1187.2 1648.68,1209.85 1650.73,1132.08 1652.78,1241.04 1654.83,1221.27 1656.89,1141.33 1658.94,1099.61 1660.99,1124.37 1663.05,1207.61 1665.1,1204.44 1667.15,1094.13 1669.2,1186.81 1671.26,1318.82 1673.31,1308.32 1675.36,1138.4 1677.42,1135.38 1679.47,1179.69 1681.52,1138.5 1683.57,1199.38 1685.63,1087.67 1687.68,1186.11 1689.73,1184.67 1691.79,1187.34 1693.84,1143.55 1695.89,1163.74 1697.94,1149.42 1700,1178.65 1702.05,1166.87 1704.1,1176.31 1706.16,1173.73 1708.21,1081.05 1710.26,1152.48 1712.32,1129.96 1714.37,1225.96 1716.42,1082.14 1718.47,1233.01 1720.53,1338.47 1722.58,1254.58 1724.63,1144.41 1726.69,1246.41 1728.74,1156.64 1730.79,1196.1 1732.84,1137.59 1734.9,1126.62 1736.95,1134.71 1739,1159.53 1741.06,1150.91 1743.11,1182.07 1745.16,1173.92 1747.21,1105.21 1749.27,1231.65 1751.32,1247.55 1753.37,1240.91 1755.43,1016.87 1757.48,1150.92 1759.53,1136 1761.58,1163.28 1763.64,1172.23 1765.69,1177.24 1767.74,1186.33 1769.8,949.904 1771.85,1279.96 1773.9,1125.97 1775.95,1128.97 1778.01,1189.26 1780.06,964.639 1782.11,1185.32 1784.17,1270.55 1786.22,1033.2 1788.27,1158.72 1790.33,1119.96 1792.38,1165.29 1794.43,1170.53 1796.48,1154.13 1798.54,1161.68 1800.59,1237.25 1802.64,1295.22 1804.7,1145.56 1806.75,1303.48 1808.8,1136.52 1810.85,1157.61 1812.91,1159.78 1814.96,1208.59 1817.01,1238.88 1819.07,1220.01 1821.12,1240.15 1823.17,1349.32 1825.22,1046.95 1827.28,1217.01 1829.33,1205.72 1831.38,1160.74 1833.44,1176.55 1835.49,1219.63 1837.54,1209.81 1839.59,1183.4 1841.65,1151.95 1843.7,1208.77 1845.75,1199.09 1847.81,811.157 1849.86,1312.72 1851.91,1198.95 1853.96,1117.5 1856.02,1193.91 1858.07,1212.73 1860.12,1132.38 1862.18,1190.57 1864.23,1168.37 1866.28,1171.66 1868.34,1162.51 1870.39,1174.82 1872.44,1158.73 1874.49,1182.62 1876.55,1183.04 1878.6,1125.91 1880.65,1119.03 1882.71,864.885 1884.76,781.736 1886.81,885.712 1888.86,1494.12 1890.92,913.682 1892.97,1105.43 1895.02,1132.74 1897.08,1137.05 1899.13,1172.57 1901.18,1182.46 1903.23,1142.64 1905.29,1096.15 1907.34,1221.59 1909.39,1141.79 1911.45,1133.49 1913.5,1201.04 1915.55,1090.21 1917.6,1103.99 1919.66,325.386 1921.71,719.544 1923.76,1040.97 1925.82,1066.03 1927.87,1201.72 1929.92,1171.58 1931.97,1229.79 1934.03,1093.75 1936.08,1139.6 1938.13,1145.36 1940.19,1145.12 1942.24,1143.54 1944.29,1116.61 1946.34,1171.03 1948.4,1182.48 1950.45,1158.79 1952.5,1158.94 1954.56,1160.29 1956.61,1279.98 1958.66,1255.06 1960.72,1221.81 1962.77,1143.32 1964.82,1177.55 1966.87,1197.31 1968.93,1196.04 1970.98,1208.75 1973.03,1012.89 1975.09,1399.73 1977.14,1211.86 1979.19,1207.35 1981.24,1175.74 1983.3,1167.83 1985.35,1158.5 1987.4,1185.9 1989.46,1177.86 1991.51,1171.64 1993.56,1568.55 1995.61,1032.76 1997.67,1068.4 1999.72,1154 2001.77,1119.08 2003.83,1164.52 2005.88,1102.71 2007.93,1141.94 2009.98,1187.88 2012.04,1199.62 2014.09,1256.66 2016.14,1209.56 2018.2,1223.32 2020.25,1259.23 2022.3,2038.1 2024.35,1334.41 2026.41,7184.2 2028.46,32529.9 2030.51,15268 2032.57,15160.2 2034.62,-285.025 2036.67,2059.67 2038.73,1548.23 2040.78,1246.54 2042.83,1198.67 2044.88,1218.18 2046.94,1099.95 2048.99,1435.65 2051.04,861.825 2053.1,-1514.98 2055.15,196.883 2057.2,879.373 2059.25,1377.99 2061.31,1025.5 2063.36,1722.95 2065.41,-1594.38 2067.47,1462.22 2069.52,951.389 2071.57,1198.29 2073.62,1527.86 2075.68,941.446 2077.73,1436.64 2079.78,2075.48 2081.84,1222.57 2083.89,707.15 2085.94,40.4461 2087.99,1553.01 2090.05,1027.98 2092.1,1304.57 2094.15,1105.77 2096.21,1170.66 2098.26,1177.71 2100.31,1212.1 2102.36,1143.89 2104.42,1208.73 2106.47,1185.38 2108.52,1223.83 2110.58,1190.66 2112.63,1178.34 2114.68,1159.5 2116.73,1164.4 2118.79,1128.54 2120.84,1298.24 2122.89,1213.45 2124.95,1101.27 2127,1240.49 2129.05,998.427 2131.11,1091.62 2133.16,1328.58 2135.21,951.276 2137.26,1395.67 2139.32,1201.15 2141.37,1165.61 2143.42,1191.94 2145.48,1190.32 2147.53,1171.76 2149.58,1175.14 2151.63,1167.07 2153.69,1166.67 2155.74,1066.14 2157.79,1359.04 2159.85,1486.32 2161.9,1846.72 2163.95,882.558 2166,969.585 2168.06,1105.48 2170.11,1126.91 2172.16,1102.81 2174.22,1223.45 2176.27,1059.58 2178.32,1094.86 2180.37,1182.74 2182.43,1157.66 2184.48,1126.32 2186.53,1122.54 2188.59,1151.12 2190.64,1138.6 2192.69,1213.76 2194.74,1170.36 2196.8,1165.98 2198.85,1173.27 2200.9,1177.98 2202.96,1160.78 2205.01,1178.46 2207.06,1178.9 2209.12,1161.66 2211.17,1142.81 2213.22,1158.52 2215.27,1201.91 2217.33,1152.67 2219.38,1172.89 2221.43,1160.05 2223.49,1215.72 2225.54,1116.12 2227.59,1018.06 2229.64,1038.97 2231.7,1320.04 2233.75,1195.88 2235.8,1187.5 2237.86,1176.62 2239.91,1136.97 2241.96,1159.75 2244.01,1182.05 2246.07,1176.83 2248.12,1169.97 2250.17,1191.64 2252.23,1224.59 2254.28,1248.45 2256.33,1187.83 2258.38,1239.13 2260.44,1192.2 2262.49,1173.55 2264.54,1173.39 2266.6,1138.55 2268.65,1207.73 2270.7,1187.84 2272.75,1190.71 2274.81,1144.87 2276.86,1175.53 2278.91,1174.31 2280.97,1148.93 2283.02,1219.56 2285.07,1234.35 2287.12,1199.87 2289.18,1169.57 2291.23,1163.08 "/>
<path clip-path="url(#clip850)" d="M251.33 1465.14 L588.926 1465.14 L588.926 1361.46 L251.33 1361.46  Z" fill="#ffffff" fill-rule="evenodd" fill-opacity="1"/>
<polyline clip-path="url(#clip850)" style="stroke:#000000; stroke-linecap:round; stroke-linejoin:round; stroke-width:4; stroke-opacity:1; fill:none" points="251.33,1465.14 588.926,1465.14 588.926,1361.46 251.33,1361.46 251.33,1465.14 "/>
<polyline clip-path="url(#clip850)" style="stroke:#009af9; stroke-linecap:round; stroke-linejoin:round; stroke-width:4; stroke-opacity:1; fill:none" points="275.484,1413.3 420.41,1413.3 "/>
<path clip-path="url(#clip850)" d="M470.12 1425.65 L470.12 1416.37 L462.481 1416.37 L462.481 1412.53 L474.749 1412.53 L474.749 1427.36 Q472.041 1429.28 468.777 1430.28 Q465.513 1431.25 461.809 1431.25 Q453.708 1431.25 449.124 1426.53 Q444.564 1421.78 444.564 1413.34 Q444.564 1404.86 449.124 1400.14 Q453.708 1395.4 461.809 1395.4 Q465.189 1395.4 468.221 1396.23 Q471.277 1397.06 473.846 1398.68 L473.846 1403.66 Q471.254 1401.46 468.337 1400.35 Q465.421 1399.24 462.203 1399.24 Q455.86 1399.24 452.666 1402.78 Q449.495 1406.32 449.495 1413.34 Q449.495 1420.33 452.666 1423.87 Q455.86 1427.41 462.203 1427.41 Q464.68 1427.41 466.624 1426.99 Q468.569 1426.55 470.12 1425.65 Z" fill="#000000" fill-rule="nonzero" fill-opacity="1" /><path clip-path="url(#clip850)" d="M487.967 1399.86 L487.967 1412.85 L493.846 1412.85 Q497.11 1412.85 498.893 1411.16 Q500.675 1409.47 500.675 1406.35 Q500.675 1403.24 498.893 1401.55 Q497.11 1399.86 493.846 1399.86 L487.967 1399.86 M483.291 1396.02 L493.846 1396.02 Q499.657 1396.02 502.619 1398.66 Q505.606 1401.28 505.606 1406.35 Q505.606 1411.46 502.619 1414.08 Q499.657 1416.69 493.846 1416.69 L487.967 1416.69 L487.967 1430.58 L483.291 1430.58 L483.291 1396.02 Z" fill="#000000" fill-rule="nonzero" fill-opacity="1" /><path clip-path="url(#clip850)" d="M532.596 1397.16 L532.596 1401.72 Q529.934 1400.44 527.573 1399.82 Q525.212 1399.19 523.013 1399.19 Q519.193 1399.19 517.11 1400.67 Q515.05 1402.16 515.05 1404.89 Q515.05 1407.18 516.416 1408.36 Q517.805 1409.52 521.647 1410.23 L524.471 1410.81 Q529.703 1411.81 532.179 1414.33 Q534.679 1416.83 534.679 1421.04 Q534.679 1426.07 531.3 1428.66 Q527.943 1431.25 521.439 1431.25 Q518.985 1431.25 516.207 1430.7 Q513.453 1430.14 510.49 1429.05 L510.49 1424.24 Q513.337 1425.84 516.068 1426.65 Q518.8 1427.46 521.439 1427.46 Q525.443 1427.46 527.619 1425.88 Q529.795 1424.31 529.795 1421.39 Q529.795 1418.85 528.221 1417.41 Q526.67 1415.97 523.105 1415.26 L520.258 1414.7 Q515.027 1413.66 512.689 1411.44 Q510.351 1409.22 510.351 1405.26 Q510.351 1400.67 513.568 1398.03 Q516.809 1395.4 522.48 1395.4 Q524.911 1395.4 527.434 1395.84 Q529.957 1396.28 532.596 1397.16 Z" fill="#000000" fill-rule="nonzero" fill-opacity="1" /><path clip-path="url(#clip850)" d="M562.689 1397.16 L562.689 1401.72 Q560.027 1400.44 557.665 1399.82 Q555.304 1399.19 553.105 1399.19 Q549.286 1399.19 547.203 1400.67 Q545.142 1402.16 545.142 1404.89 Q545.142 1407.18 546.508 1408.36 Q547.897 1409.52 551.74 1410.23 L554.564 1410.81 Q559.795 1411.81 562.272 1414.33 Q564.772 1416.83 564.772 1421.04 Q564.772 1426.07 561.392 1428.66 Q558.036 1431.25 551.531 1431.25 Q549.078 1431.25 546.3 1430.7 Q543.545 1430.14 540.582 1429.05 L540.582 1424.24 Q543.429 1425.84 546.161 1426.65 Q548.892 1427.46 551.531 1427.46 Q555.536 1427.46 557.712 1425.88 Q559.888 1424.31 559.888 1421.39 Q559.888 1418.85 558.314 1417.41 Q556.763 1415.97 553.198 1415.26 L550.351 1414.7 Q545.119 1413.66 542.781 1411.44 Q540.443 1409.22 540.443 1405.26 Q540.443 1400.67 543.661 1398.03 Q546.902 1395.4 552.573 1395.4 Q555.003 1395.4 557.527 1395.84 Q560.05 1396.28 562.689 1397.16 Z" fill="#000000" fill-rule="nonzero" fill-opacity="1" /></svg>
