<?xml version="1.0" encoding="utf-8"?>
<svg xmlns="http://www.w3.org/2000/svg" xmlns:xlink="http://www.w3.org/1999/xlink" width="600" height="400" viewBox="0 0 2400 1600">
<defs>
  <clipPath id="clip810">
    <rect x="0" y="0" width="2400" height="1600"/>
  </clipPath>
</defs>
<path clip-path="url(#clip810)" d="M0 1600 L2400 1600 L2400 0 L0 0  Z" fill="#ffffff" fill-rule="evenodd" fill-opacity="1"/>
<defs>
  <clipPath id="clip811">
    <rect x="480" y="0" width="1681" height="1600"/>
  </clipPath>
</defs>
<path clip-path="url(#clip810)" d="M178.867 686.448 L2352.76 686.448 L2352.76 47.2441 L178.867 47.2441  Z" fill="#ffffff" fill-rule="evenodd" fill-opacity="1"/>
<defs>
  <clipPath id="clip812">
    <rect x="178" y="47" width="2175" height="640"/>
  </clipPath>
</defs>
<polyline clip-path="url(#clip812)" style="stroke:#000000; stroke-linecap:round; stroke-linejoin:round; stroke-width:2; stroke-opacity:0.1; fill:none" points="238.339,686.448 238.339,47.2441 "/>
<polyline clip-path="url(#clip812)" style="stroke:#000000; stroke-linecap:round; stroke-linejoin:round; stroke-width:2; stroke-opacity:0.1; fill:none" points="751.562,686.448 751.562,47.2441 "/>
<polyline clip-path="url(#clip812)" style="stroke:#000000; stroke-linecap:round; stroke-linejoin:round; stroke-width:2; stroke-opacity:0.1; fill:none" points="1264.78,686.448 1264.78,47.2441 "/>
<polyline clip-path="url(#clip812)" style="stroke:#000000; stroke-linecap:round; stroke-linejoin:round; stroke-width:2; stroke-opacity:0.1; fill:none" points="1778.01,686.448 1778.01,47.2441 "/>
<polyline clip-path="url(#clip812)" style="stroke:#000000; stroke-linecap:round; stroke-linejoin:round; stroke-width:2; stroke-opacity:0.1; fill:none" points="2291.23,686.448 2291.23,47.2441 "/>
<polyline clip-path="url(#clip812)" style="stroke:#000000; stroke-linecap:round; stroke-linejoin:round; stroke-width:2; stroke-opacity:0.1; fill:none" points="178.867,686.448 2352.76,686.448 "/>
<polyline clip-path="url(#clip812)" style="stroke:#000000; stroke-linecap:round; stroke-linejoin:round; stroke-width:2; stroke-opacity:0.1; fill:none" points="178.867,526.647 2352.76,526.647 "/>
<polyline clip-path="url(#clip812)" style="stroke:#000000; stroke-linecap:round; stroke-linejoin:round; stroke-width:2; stroke-opacity:0.1; fill:none" points="178.867,366.846 2352.76,366.846 "/>
<polyline clip-path="url(#clip812)" style="stroke:#000000; stroke-linecap:round; stroke-linejoin:round; stroke-width:2; stroke-opacity:0.1; fill:none" points="178.867,207.045 2352.76,207.045 "/>
<polyline clip-path="url(#clip812)" style="stroke:#000000; stroke-linecap:round; stroke-linejoin:round; stroke-width:2; stroke-opacity:0.1; fill:none" points="178.867,47.2441 2352.76,47.2441 "/>
<polyline clip-path="url(#clip810)" style="stroke:#000000; stroke-linecap:round; stroke-linejoin:round; stroke-width:4; stroke-opacity:1; fill:none" points="178.867,686.448 2352.76,686.448 "/>
<polyline clip-path="url(#clip810)" style="stroke:#000000; stroke-linecap:round; stroke-linejoin:round; stroke-width:4; stroke-opacity:1; fill:none" points="238.339,686.448 238.339,667.55 "/>
<polyline clip-path="url(#clip810)" style="stroke:#000000; stroke-linecap:round; stroke-linejoin:round; stroke-width:4; stroke-opacity:1; fill:none" points="751.562,686.448 751.562,667.55 "/>
<polyline clip-path="url(#clip810)" style="stroke:#000000; stroke-linecap:round; stroke-linejoin:round; stroke-width:4; stroke-opacity:1; fill:none" points="1264.78,686.448 1264.78,667.55 "/>
<polyline clip-path="url(#clip810)" style="stroke:#000000; stroke-linecap:round; stroke-linejoin:round; stroke-width:4; stroke-opacity:1; fill:none" points="1778.01,686.448 1778.01,667.55 "/>
<polyline clip-path="url(#clip810)" style="stroke:#000000; stroke-linecap:round; stroke-linejoin:round; stroke-width:4; stroke-opacity:1; fill:none" points="2291.23,686.448 2291.23,667.55 "/>
<path clip-path="url(#clip810)" d="M238.339 717.367 Q234.728 717.367 232.899 720.931 Q231.094 724.473 231.094 731.603 Q231.094 738.709 232.899 742.274 Q234.728 745.815 238.339 745.815 Q241.973 745.815 243.779 742.274 Q245.607 738.709 245.607 731.603 Q245.607 724.473 243.779 720.931 Q241.973 717.367 238.339 717.367 M238.339 713.663 Q244.149 713.663 247.205 718.269 Q250.283 722.853 250.283 731.603 Q250.283 740.329 247.205 744.936 Q244.149 749.519 238.339 749.519 Q232.529 749.519 229.45 744.936 Q226.395 740.329 226.395 731.603 Q226.395 722.853 229.45 718.269 Q232.529 713.663 238.339 713.663 Z" fill="#000000" fill-rule="nonzero" fill-opacity="1" /><path clip-path="url(#clip810)" d="M715.254 744.913 L731.574 744.913 L731.574 748.848 L709.629 748.848 L709.629 744.913 Q712.291 742.158 716.875 737.528 Q721.481 732.876 722.662 731.533 Q724.907 729.01 725.787 727.274 Q726.689 725.515 726.689 723.825 Q726.689 721.07 724.745 719.334 Q722.824 717.598 719.722 717.598 Q717.523 717.598 715.069 718.362 Q712.638 719.126 709.861 720.677 L709.861 715.955 Q712.685 714.82 715.138 714.242 Q717.592 713.663 719.629 713.663 Q725 713.663 728.194 716.348 Q731.388 719.033 731.388 723.524 Q731.388 725.654 730.578 727.575 Q729.791 729.473 727.685 732.066 Q727.106 732.737 724.004 735.954 Q720.902 739.149 715.254 744.913 Z" fill="#000000" fill-rule="nonzero" fill-opacity="1" /><path clip-path="url(#clip810)" d="M741.435 714.288 L759.791 714.288 L759.791 718.223 L745.717 718.223 L745.717 726.695 Q746.736 726.348 747.754 726.186 Q748.773 726.001 749.791 726.001 Q755.578 726.001 758.958 729.172 Q762.337 732.343 762.337 737.76 Q762.337 743.339 758.865 746.44 Q755.393 749.519 749.073 749.519 Q746.898 749.519 744.629 749.149 Q742.384 748.778 739.976 748.038 L739.976 743.339 Q742.06 744.473 744.282 745.028 Q746.504 745.584 748.981 745.584 Q752.985 745.584 755.323 743.478 Q757.661 741.371 757.661 737.76 Q757.661 734.149 755.323 732.042 Q752.985 729.936 748.981 729.936 Q747.106 729.936 745.231 730.353 Q743.379 730.769 741.435 731.649 L741.435 714.288 Z" fill="#000000" fill-rule="nonzero" fill-opacity="1" /><path clip-path="url(#clip810)" d="M781.55 717.367 Q777.939 717.367 776.11 720.931 Q774.305 724.473 774.305 731.603 Q774.305 738.709 776.11 742.274 Q777.939 745.815 781.55 745.815 Q785.184 745.815 786.99 742.274 Q788.819 738.709 788.819 731.603 Q788.819 724.473 786.99 720.931 Q785.184 717.367 781.55 717.367 M781.55 713.663 Q787.36 713.663 790.416 718.269 Q793.495 722.853 793.495 731.603 Q793.495 740.329 790.416 744.936 Q787.36 749.519 781.55 749.519 Q775.74 749.519 772.661 744.936 Q769.606 740.329 769.606 731.603 Q769.606 722.853 772.661 718.269 Q775.74 713.663 781.55 713.663 Z" fill="#000000" fill-rule="nonzero" fill-opacity="1" /><path clip-path="url(#clip810)" d="M1224.4 714.288 L1242.76 714.288 L1242.76 718.223 L1228.69 718.223 L1228.69 726.695 Q1229.7 726.348 1230.72 726.186 Q1231.74 726.001 1232.76 726.001 Q1238.55 726.001 1241.93 729.172 Q1245.31 732.343 1245.31 737.76 Q1245.31 743.339 1241.83 746.44 Q1238.36 749.519 1232.04 749.519 Q1229.87 749.519 1227.6 749.149 Q1225.35 748.778 1222.94 748.038 L1222.94 743.339 Q1225.03 744.473 1227.25 745.028 Q1229.47 745.584 1231.95 745.584 Q1235.95 745.584 1238.29 743.478 Q1240.63 741.371 1240.63 737.76 Q1240.63 734.149 1238.29 732.042 Q1235.95 729.936 1231.95 729.936 Q1230.07 729.936 1228.2 730.353 Q1226.35 730.769 1224.4 731.649 L1224.4 714.288 Z" fill="#000000" fill-rule="nonzero" fill-opacity="1" /><path clip-path="url(#clip810)" d="M1264.52 717.367 Q1260.91 717.367 1259.08 720.931 Q1257.27 724.473 1257.27 731.603 Q1257.27 738.709 1259.08 742.274 Q1260.91 745.815 1264.52 745.815 Q1268.15 745.815 1269.96 742.274 Q1271.79 738.709 1271.79 731.603 Q1271.79 724.473 1269.96 720.931 Q1268.15 717.367 1264.52 717.367 M1264.52 713.663 Q1270.33 713.663 1273.38 718.269 Q1276.46 722.853 1276.46 731.603 Q1276.46 740.329 1273.38 744.936 Q1270.33 749.519 1264.52 749.519 Q1258.71 749.519 1255.63 744.936 Q1252.57 740.329 1252.57 731.603 Q1252.57 722.853 1255.63 718.269 Q1258.71 713.663 1264.52 713.663 Z" fill="#000000" fill-rule="nonzero" fill-opacity="1" /><path clip-path="url(#clip810)" d="M1294.68 717.367 Q1291.07 717.367 1289.24 720.931 Q1287.44 724.473 1287.44 731.603 Q1287.44 738.709 1289.24 742.274 Q1291.07 745.815 1294.68 745.815 Q1298.31 745.815 1300.12 742.274 Q1301.95 738.709 1301.95 731.603 Q1301.95 724.473 1300.12 720.931 Q1298.31 717.367 1294.68 717.367 M1294.68 713.663 Q1300.49 713.663 1303.55 718.269 Q1306.62 722.853 1306.62 731.603 Q1306.62 740.329 1303.55 744.936 Q1300.49 749.519 1294.68 749.519 Q1288.87 749.519 1285.79 744.936 Q1282.74 740.329 1282.74 731.603 Q1282.74 722.853 1285.79 718.269 Q1288.87 713.663 1294.68 713.663 Z" fill="#000000" fill-rule="nonzero" fill-opacity="1" /><path clip-path="url(#clip810)" d="M1736.28 714.288 L1758.51 714.288 L1758.51 716.279 L1745.96 748.848 L1741.08 748.848 L1752.88 718.223 L1736.28 718.223 L1736.28 714.288 Z" fill="#000000" fill-rule="nonzero" fill-opacity="1" /><path clip-path="url(#clip810)" d="M1767.67 714.288 L1786.03 714.288 L1786.03 718.223 L1771.95 718.223 L1771.95 726.695 Q1772.97 726.348 1773.99 726.186 Q1775.01 726.001 1776.03 726.001 Q1781.82 726.001 1785.2 729.172 Q1788.57 732.343 1788.57 737.76 Q1788.57 743.339 1785.1 746.44 Q1781.63 749.519 1775.31 749.519 Q1773.14 749.519 1770.87 749.149 Q1768.62 748.778 1766.21 748.038 L1766.21 743.339 Q1768.3 744.473 1770.52 745.028 Q1772.74 745.584 1775.22 745.584 Q1779.22 745.584 1781.56 743.478 Q1783.9 741.371 1783.9 737.76 Q1783.9 734.149 1781.56 732.042 Q1779.22 729.936 1775.22 729.936 Q1773.34 729.936 1771.47 730.353 Q1769.62 730.769 1767.67 731.649 L1767.67 714.288 Z" fill="#000000" fill-rule="nonzero" fill-opacity="1" /><path clip-path="url(#clip810)" d="M1807.79 717.367 Q1804.18 717.367 1802.35 720.931 Q1800.54 724.473 1800.54 731.603 Q1800.54 738.709 1802.35 742.274 Q1804.18 745.815 1807.79 745.815 Q1811.42 745.815 1813.23 742.274 Q1815.06 738.709 1815.06 731.603 Q1815.06 724.473 1813.23 720.931 Q1811.42 717.367 1807.79 717.367 M1807.79 713.663 Q1813.6 713.663 1816.65 718.269 Q1819.73 722.853 1819.73 731.603 Q1819.73 740.329 1816.65 744.936 Q1813.6 749.519 1807.79 749.519 Q1801.98 749.519 1798.9 744.936 Q1795.84 740.329 1795.84 731.603 Q1795.84 722.853 1798.9 718.269 Q1801.98 713.663 1807.79 713.663 Z" fill="#000000" fill-rule="nonzero" fill-opacity="1" /><path clip-path="url(#clip810)" d="M2235.76 744.913 L2243.4 744.913 L2243.4 718.547 L2235.09 720.214 L2235.09 715.955 L2243.35 714.288 L2248.02 714.288 L2248.02 744.913 L2255.66 744.913 L2255.66 748.848 L2235.76 748.848 L2235.76 744.913 Z" fill="#000000" fill-rule="nonzero" fill-opacity="1" /><path clip-path="url(#clip810)" d="M2275.11 717.367 Q2271.5 717.367 2269.67 720.931 Q2267.86 724.473 2267.86 731.603 Q2267.86 738.709 2269.67 742.274 Q2271.5 745.815 2275.11 745.815 Q2278.74 745.815 2280.55 742.274 Q2282.38 738.709 2282.38 731.603 Q2282.38 724.473 2280.55 720.931 Q2278.74 717.367 2275.11 717.367 M2275.11 713.663 Q2280.92 713.663 2283.97 718.269 Q2287.05 722.853 2287.05 731.603 Q2287.05 740.329 2283.97 744.936 Q2280.92 749.519 2275.11 749.519 Q2269.3 749.519 2266.22 744.936 Q2263.16 740.329 2263.16 731.603 Q2263.16 722.853 2266.22 718.269 Q2269.3 713.663 2275.11 713.663 Z" fill="#000000" fill-rule="nonzero" fill-opacity="1" /><path clip-path="url(#clip810)" d="M2305.27 717.367 Q2301.66 717.367 2299.83 720.931 Q2298.02 724.473 2298.02 731.603 Q2298.02 738.709 2299.83 742.274 Q2301.66 745.815 2305.27 745.815 Q2308.9 745.815 2310.71 742.274 Q2312.54 738.709 2312.54 731.603 Q2312.54 724.473 2310.71 720.931 Q2308.9 717.367 2305.27 717.367 M2305.27 713.663 Q2311.08 713.663 2314.14 718.269 Q2317.21 722.853 2317.21 731.603 Q2317.21 740.329 2314.14 744.936 Q2311.08 749.519 2305.27 749.519 Q2299.46 749.519 2296.38 744.936 Q2293.33 740.329 2293.33 731.603 Q2293.33 722.853 2296.38 718.269 Q2299.46 713.663 2305.27 713.663 Z" fill="#000000" fill-rule="nonzero" fill-opacity="1" /><path clip-path="url(#clip810)" d="M2335.43 717.367 Q2331.82 717.367 2329.99 720.931 Q2328.19 724.473 2328.19 731.603 Q2328.19 738.709 2329.99 742.274 Q2331.82 745.815 2335.43 745.815 Q2339.07 745.815 2340.87 742.274 Q2342.7 738.709 2342.7 731.603 Q2342.7 724.473 2340.87 720.931 Q2339.07 717.367 2335.43 717.367 M2335.43 713.663 Q2341.24 713.663 2344.3 718.269 Q2347.38 722.853 2347.38 731.603 Q2347.38 740.329 2344.3 744.936 Q2341.24 749.519 2335.43 749.519 Q2329.62 749.519 2326.54 744.936 Q2323.49 740.329 2323.49 731.603 Q2323.49 722.853 2326.54 718.269 Q2329.62 713.663 2335.43 713.663 Z" fill="#000000" fill-rule="nonzero" fill-opacity="1" /><polyline clip-path="url(#clip810)" style="stroke:#000000; stroke-linecap:round; stroke-linejoin:round; stroke-width:4; stroke-opacity:1; fill:none" points="178.867,686.448 178.867,47.2441 "/>
<polyline clip-path="url(#clip810)" style="stroke:#000000; stroke-linecap:round; stroke-linejoin:round; stroke-width:4; stroke-opacity:1; fill:none" points="178.867,686.448 197.764,686.448 "/>
<polyline clip-path="url(#clip810)" style="stroke:#000000; stroke-linecap:round; stroke-linejoin:round; stroke-width:4; stroke-opacity:1; fill:none" points="178.867,526.647 197.764,526.647 "/>
<polyline clip-path="url(#clip810)" style="stroke:#000000; stroke-linecap:round; stroke-linejoin:round; stroke-width:4; stroke-opacity:1; fill:none" points="178.867,366.846 197.764,366.846 "/>
<polyline clip-path="url(#clip810)" style="stroke:#000000; stroke-linecap:round; stroke-linejoin:round; stroke-width:4; stroke-opacity:1; fill:none" points="178.867,207.045 197.764,207.045 "/>
<polyline clip-path="url(#clip810)" style="stroke:#000000; stroke-linecap:round; stroke-linejoin:round; stroke-width:4; stroke-opacity:1; fill:none" points="178.867,47.2441 197.764,47.2441 "/>
<path clip-path="url(#clip810)" d="M50.9921 686.899 L80.6679 686.899 L80.6679 690.834 L50.9921 690.834 L50.9921 686.899 Z" fill="#000000" fill-rule="nonzero" fill-opacity="1" /><path clip-path="url(#clip810)" d="M91.5706 699.793 L99.2095 699.793 L99.2095 673.427 L90.8993 675.094 L90.8993 670.835 L99.1632 669.168 L103.839 669.168 L103.839 699.793 L111.478 699.793 L111.478 703.728 L91.5706 703.728 L91.5706 699.793 Z" fill="#000000" fill-rule="nonzero" fill-opacity="1" /><path clip-path="url(#clip810)" d="M130.922 672.247 Q127.311 672.247 125.482 675.811 Q123.677 679.353 123.677 686.483 Q123.677 693.589 125.482 697.154 Q127.311 700.695 130.922 700.695 Q134.556 700.695 136.362 697.154 Q138.191 693.589 138.191 686.483 Q138.191 679.353 136.362 675.811 Q134.556 672.247 130.922 672.247 M130.922 668.543 Q136.732 668.543 139.788 673.149 Q142.867 677.733 142.867 686.483 Q142.867 695.209 139.788 699.816 Q136.732 704.399 130.922 704.399 Q125.112 704.399 122.033 699.816 Q118.978 695.209 118.978 686.483 Q118.978 677.733 122.033 673.149 Q125.112 668.543 130.922 668.543 Z" fill="#000000" fill-rule="nonzero" fill-opacity="1" /><path clip-path="url(#clip810)" d="M82.1494 527.098 L111.825 527.098 L111.825 531.033 L82.1494 531.033 L82.1494 527.098 Z" fill="#000000" fill-rule="nonzero" fill-opacity="1" /><path clip-path="url(#clip810)" d="M121.964 509.367 L140.32 509.367 L140.32 513.302 L126.246 513.302 L126.246 521.774 Q127.265 521.427 128.283 521.265 Q129.302 521.08 130.32 521.08 Q136.107 521.08 139.487 524.251 Q142.867 527.422 142.867 532.839 Q142.867 538.418 139.394 541.52 Q135.922 544.598 129.603 544.598 Q127.427 544.598 125.158 544.228 Q122.913 543.857 120.506 543.117 L120.506 538.418 Q122.589 539.552 124.811 540.108 Q127.033 540.663 129.51 540.663 Q133.515 540.663 135.853 538.557 Q138.191 536.45 138.191 532.839 Q138.191 529.228 135.853 527.121 Q133.515 525.015 129.51 525.015 Q127.635 525.015 125.76 525.432 Q123.908 525.848 121.964 526.728 L121.964 509.367 Z" fill="#000000" fill-rule="nonzero" fill-opacity="1" /><path clip-path="url(#clip810)" d="M130.922 352.645 Q127.311 352.645 125.482 356.209 Q123.677 359.751 123.677 366.881 Q123.677 373.987 125.482 377.552 Q127.311 381.094 130.922 381.094 Q134.556 381.094 136.362 377.552 Q138.191 373.987 138.191 366.881 Q138.191 359.751 136.362 356.209 Q134.556 352.645 130.922 352.645 M130.922 348.941 Q136.732 348.941 139.788 353.547 Q142.867 358.131 142.867 366.881 Q142.867 375.608 139.788 380.214 Q136.732 384.797 130.922 384.797 Q125.112 384.797 122.033 380.214 Q118.978 375.608 118.978 366.881 Q118.978 358.131 122.033 353.547 Q125.112 348.941 130.922 348.941 Z" fill="#000000" fill-rule="nonzero" fill-opacity="1" /><path clip-path="url(#clip810)" d="M121.964 189.765 L140.32 189.765 L140.32 193.7 L126.246 193.7 L126.246 202.172 Q127.265 201.825 128.283 201.663 Q129.302 201.478 130.32 201.478 Q136.107 201.478 139.487 204.649 Q142.867 207.82 142.867 213.237 Q142.867 218.816 139.394 221.918 Q135.922 224.996 129.603 224.996 Q127.427 224.996 125.158 224.626 Q122.913 224.256 120.506 223.515 L120.506 218.816 Q122.589 219.95 124.811 220.506 Q127.033 221.061 129.51 221.061 Q133.515 221.061 135.853 218.955 Q138.191 216.848 138.191 213.237 Q138.191 209.626 135.853 207.52 Q133.515 205.413 129.51 205.413 Q127.635 205.413 125.76 205.83 Q123.908 206.246 121.964 207.126 L121.964 189.765 Z" fill="#000000" fill-rule="nonzero" fill-opacity="1" /><path clip-path="url(#clip810)" d="M91.5706 60.5889 L99.2095 60.5889 L99.2095 34.2233 L90.8993 35.89 L90.8993 31.6308 L99.1632 29.9641 L103.839 29.9641 L103.839 60.5889 L111.478 60.5889 L111.478 64.5241 L91.5706 64.5241 L91.5706 60.5889 Z" fill="#000000" fill-rule="nonzero" fill-opacity="1" /><path clip-path="url(#clip810)" d="M130.922 33.0428 Q127.311 33.0428 125.482 36.6076 Q123.677 40.1492 123.677 47.2788 Q123.677 54.3853 125.482 57.9501 Q127.311 61.4917 130.922 61.4917 Q134.556 61.4917 136.362 57.9501 Q138.191 54.3853 138.191 47.2788 Q138.191 40.1492 136.362 36.6076 Q134.556 33.0428 130.922 33.0428 M130.922 29.3391 Q136.732 29.3391 139.788 33.9456 Q142.867 38.5289 142.867 47.2788 Q142.867 56.0056 139.788 60.6121 Q136.732 65.1954 130.922 65.1954 Q125.112 65.1954 122.033 60.6121 Q118.978 56.0056 118.978 47.2788 Q118.978 38.5289 122.033 33.9456 Q125.112 29.3391 130.922 29.3391 Z" fill="#000000" fill-rule="nonzero" fill-opacity="1" /><polyline clip-path="url(#clip812)" style="stroke:#009af9; stroke-linecap:round; stroke-linejoin:round; stroke-width:4; stroke-opacity:1; fill:none" points="240.392,334.886 242.445,331.5 244.498,367.265 246.55,365.24 248.603,342.996 250.656,342.568 252.709,291.832 254.762,439.823 256.815,468.117 258.868,450.738 260.921,466.442 262.974,468.709 265.027,463.253 267.079,452.522 269.132,467.194 271.185,437.403 273.238,430.11 275.291,428.301 277.344,442.521 279.397,443.941 281.45,401.881 283.503,396.25 285.555,398.494 287.608,352.198 289.661,423.743 291.714,424.943 293.767,424.994 295.82,416.613 297.873,446.82 299.926,442.574 301.979,396.316 304.031,396.315 306.084,442.691 308.137,450.916 310.19,509.129 312.243,511.68 314.296,488.797 316.349,468.867 318.402,431.383 320.455,424.91 322.507,371.942 324.56,371.537 326.613,379.685 328.666,379.447 330.719,385.001 332.772,406.355 334.825,372.531 336.878,372.672 338.931,372.699 340.984,378.041 343.036,405.614 345.089,434.865 347.142,443.68 349.195,446.985 351.248,459.412 353.301,455.672 355.354,440.106 357.407,435.597 359.46,435.425 361.512,433.724 363.565,435.423 365.618,377.602 367.671,356.722 369.724,358.302 371.777,357.929 373.83,355.879 375.883,345.613 377.936,306.3 379.988,313.76 382.041,265.049 384.094,273.763 386.147,266.485 388.2,262.152 390.253,261.597 392.306,267.588 394.359,266.104 396.412,264.991 398.464,266.403 400.517,284.791 402.57,314.187 404.623,334.257 406.676,334.27 408.729,308.247 410.782,308.388 412.835,307.728 414.888,308.38 416.94,308.144 418.993,296.354 421.046,292.006 423.099,261.601 425.152,298.968 427.205,284.552 429.258,289.441 431.311,314.141 433.364,307.923 435.417,348.661 437.469,387.977 439.522,394.879 441.575,397.048 443.628,397.108 445.681,394.909 447.734,352.714 449.787,359.733 451.84,343.796 453.893,343.578 455.945,342.79 457.998,357.419 460.051,342.372 462.104,376.903 464.157,355.792 466.21,356.415 468.263,299.999 470.316,282.004 472.369,308.116 474.421,299.37 476.474,366.363 478.527,344.605 480.58,343.907 482.633,377.217 484.686,379.332 486.739,379.73 488.792,379.582 490.845,379.124 492.897,379.252 494.95,379.108 497.003,383.347 499.056,383.464 501.109,380.495 503.162,383.86 505.215,375.422 507.268,375.345 509.321,385.946 511.374,386.437 513.426,386.048 515.479,385.623 517.532,385.653 519.585,382.21 521.638,381.708 523.691,393.205 525.744,392.791 527.797,407.929 529.85,383.789 531.902,436.524 533.955,443.129 536.008,475.369 538.061,448.437 540.114,448.974 542.167,420.386 544.22,419.367 546.273,417.353 548.326,391.395 550.378,375.05 552.431,373.275 554.484,371.417 556.537,384.147 558.59,377.239 560.643,385.079 562.696,391.974 564.749,391.653 566.802,392.602 568.854,391.632 570.907,392.179 572.96,350.235 575.013,352.249 577.066,360.932 579.119,352.888 581.172,325.914 583.225,347.452 585.278,345.709 587.331,349.442 589.383,350.321 591.436,347.293 593.489,345.279 595.542,371.557 597.595,389.001 599.648,299.374 601.701,309.522 603.754,329.408 605.807,290.151 607.859,304.667 609.912,302.873 611.965,300.305 614.018,354.439 616.071,389.039 618.124,387.174 620.177,393.474 622.23,374.999 624.283,313.379 626.335,307.87 628.388,308.45 630.441,268.624 632.494,193.744 634.547,117.117 636.6,135.377 638.653,135.37 640.706,206.44 642.759,193.336 644.811,190.5 646.864,317.843 648.917,330.34 650.97,328.591 653.023,328.765 655.076,367.759 657.129,367.226 659.182,364.591 661.235,369.861 663.288,396.737 665.34,416.213 667.393,407.077 669.446,406.634 671.499,415.082 673.552,424.861 675.605,426.069 677.658,422.049 679.711,427.732 681.764,325.438 683.816,306.834 685.869,371.059 687.922,366.622 689.975,364.962 692.028,348.891 694.081,352.882 696.134,353.957 698.187,363.265 700.24,377.438 702.292,397.728 704.345,400.099 706.398,396.402 708.451,417.534 710.504,429.096 712.557,432.616 714.61,428.69 716.663,317.999 718.716,311.388 720.768,359.111 722.821,401.436 724.874,459.632 726.927,460.22 728.98,462.225 731.033,470.643 733.086,388.066 735.139,395.335 737.192,398.595 739.245,399.25 741.297,424.262 743.35,418.261 745.403,416.016 747.456,416.002 749.509,420.093 751.562,423.113 753.615,424.75 755.668,341.606 757.721,364.384 759.773,452.311 761.826,445.134 763.879,420.396 765.932,369.523 767.985,418.804 770.038,350.876 772.091,351.967 774.144,355.119 776.197,355.196 778.249,351.108 780.302,320.816 782.355,318.865 784.408,318.836 786.461,406.991 788.514,406.623 790.567,423.991 792.62,438.628 794.673,434.54 796.725,420.498 798.778,417.948 800.831,390.857 802.884,388.822 804.937,391.302 806.99,385.033 809.043,386.33 811.096,377.493 813.149,390.507 815.202,385.392 817.254,264.211 819.307,269.517 821.36,278.907 823.413,260.7 825.466,419.652 827.519,435.569 829.572,439.375 831.625,439.393 833.678,400.002 835.73,389.357 837.783,425.3 839.836,394.993 841.889,434.507 843.942,402.781 845.995,405.296 848.048,396.932 850.101,334.142 852.154,285.462 854.206,285.723 856.259,312.744 858.312,416.011 860.365,411.551 862.418,411.007 864.471,396.933 866.524,496.113 868.577,435.89 870.63,395.055 872.682,379.58 874.735,422.419 876.788,416.812 878.841,466.118 880.894,337.366 882.947,336.538 885,368.091 887.053,241.139 889.106,164.054 891.159,163.256 893.211,154.088 895.264,165.607 897.317,165.65 899.37,155.61 901.423,197.611 903.476,205.538 905.529,193.78 907.582,240.671 909.635,244.225 911.687,534.996 913.74,159.749 915.793,117.536 917.846,0.765482 919.899,101.328 921.952,121.074 924.005,-66.482 926.058,-66.2206 928.111,-151.583 930.163,-175.528 932.216,-834.511 934.269,-815.307 936.322,-561.902 938.375,-531.819 940.428,-518.206 942.481,-657.184 944.534,-664.092 946.587,-616.779 948.639,-618.016 950.692,-533.938 952.745,-522.254 954.798,-407.08 956.851,-675.084 958.904,-76.6433 960.957,455.614 963.01,490.138 965.063,455.918 967.116,560.446 969.168,480.657 971.221,668.112 973.274,639.965 975.327,653.868 977.38,632.436 979.433,332.189 981.486,246.616 983.539,161.854 985.592,164.138 987.644,248.501 989.697,581.618 991.75,406.094 993.803,849.947 995.856,894.483 997.909,810.287 999.962,852.508 1002.01,913.954 1004.07,843.126 1006.12,692.899 1008.17,680.243 1010.23,832.403 1012.28,286.562 1014.33,335.541 1016.38,355.45 1018.44,590.976 1020.49,1018.74 1022.54,989.595 1024.6,994.24 1026.65,970.463 1028.7,-336.963 1030.76,-863.586 1032.81,-832.88 1034.86,-688.755 1036.91,-691.765 1038.97,-579.503 1041.02,-609.386 1043.07,-565.729 1045.13,-106.157 1047.18,-56.8186 1049.23,281.486 1051.28,435.5 1053.34,389.569 1055.39,379.493 1057.44,934.338 1059.5,687.515 1061.55,686.582 1063.6,636.147 1065.65,750.416 1067.71,871.635 1069.76,847.515 1071.81,795.822 1073.87,850.519 1075.92,754.958 1077.97,554.019 1080.02,517.911 1082.08,348.977 1084.13,-27.694 1086.18,-147.952 1088.24,-37.8553 1090.29,-26.4171 1092.34,219.852 1094.39,160.036 1096.45,226.512 1098.5,287.691 1100.55,122.403 1102.61,235.407 1104.66,259.006 1106.71,227.137 1108.77,625.978 1110.82,740.373 1112.87,710.979 1114.92,741.551 1116.98,628.477 1119.03,609.557 1121.08,628.903 1123.14,762.964 1125.19,758.054 1127.24,725.575 1129.29,799.987 1131.35,811.701 1133.4,775.17 1135.45,773.076 1137.51,771.159 1139.56,774.729 1141.61,776.852 1143.66,776.796 1145.72,781.652 1147.77,747.985 1149.82,753.408 1151.88,732.584 1153.93,747.273 1155.98,723.024 1158.03,701.389 1160.09,638.135 1162.14,537.419 1164.19,539.143 1166.25,470.649 1168.3,15.6851 1170.35,13.354 1172.4,30.5403 1174.46,78.778 1176.51,99.5349 1178.56,67.1885 1180.62,137.736 1182.67,111.454 1184.72,-66.1152 1186.77,-339.028 1188.83,-271.492 1190.88,-558.711 1192.93,-531.825 1194.99,-524.58 1197.04,-529.578 1199.09,-527.105 1201.15,-528.967 1203.2,-583.68 1205.25,-405.208 1207.3,-429.292 1209.36,-436.615 1211.41,-432.555 1213.46,-402.08 1215.52,-330.039 1217.57,-356.291 1219.62,73.7093 1221.67,45.69 1223.73,376.42 1225.78,422.439 1227.83,252.19 1229.89,309.653 1231.94,243.411 1233.99,269.625 1236.04,454.397 1238.1,408.941 1240.15,548.173 1242.2,579.34 1244.26,800.786 1246.31,897.641 1248.36,1019.54 1250.41,1017.15 1252.47,864.891 1254.52,834.603 1256.57,864.269 1258.63,727.012 1260.68,461.147 1262.73,776.607 1264.78,693.108 1266.84,797.106 1268.89,833.031 1270.94,816.943 1273,820.271 1275.05,801.497 1277.1,577.802 1279.16,539.893 1281.21,877.453 1283.26,844.221 1285.31,786.368 1287.37,159.583 1289.42,1021.1 1291.47,344.859 1293.53,205.466 1295.58,233.926 1297.63,-125.11 1299.68,109.131 1301.74,375.055 1303.79,551.559 1305.84,982.463 1307.9,1097.01 1309.95,1238.78 1312,1180.94 1314.05,1213.01 1316.11,1241.21 1318.16,1242.49 1320.21,1245.54 1322.27,1232.52 1324.32,1282.05 1326.37,1228.91 1328.42,1200.87 1330.48,1285.28 1332.53,1591.64 1334.58,1494.1 1336.64,1616.19 1338.69,809.739 1340.74,705.942 1342.79,911.861 1344.85,956.519 1346.9,437.911 1348.95,721.783 1351.01,529.825 1353.06,521.733 1355.11,537.571 1357.16,513.52 1359.22,427.334 1361.27,387.106 1363.32,174.746 1365.38,138.411 1367.43,175.302 1369.48,108.81 1371.54,282.097 1373.59,283.109 1375.64,279.877 1377.69,308.991 1379.75,258.076 1381.8,294.441 1383.85,221.093 1385.91,200.738 1387.96,196.807 1390.01,355.601 1392.06,342.222 1394.12,561.004 1396.17,556.455 1398.22,445.833 1400.28,377.72 1402.33,467.313 1404.38,534.945 1406.43,837.184 1408.49,939.35 1410.54,871.739 1412.59,861.211 1414.65,828.999 1416.7,781.424 1418.75,763.748 1420.8,765.297 1422.86,765.354 1424.91,595.978 1426.96,496.545 1429.02,497.253 1431.07,444.018 1433.12,449.055 1435.17,465.011 1437.23,353.216 1439.28,400.094 1441.33,814.002 1443.39,825.414 1445.44,862.013 1447.49,621.783 1449.55,631.192 1451.6,967.765 1453.65,1023.66 1455.7,1020.65 1457.76,1025.83 1459.81,1002.35 1461.86,960.145 1463.92,810.571 1465.97,958.174 1468.02,963.426 1470.07,1172.17 1472.13,1219.35 1474.18,1185.15 1476.23,1149.39 1478.29,1211.66 1480.34,1186.07 1482.39,1122.36 1484.44,1169.87 1486.5,1176.24 1488.55,1306.07 1490.6,921.734 1492.66,864.788 1494.71,846.513 1496.76,866.993 1498.81,276.381 1500.87,169.544 1502.92,177.636 1504.97,489.661 1507.03,485.475 1509.08,447.433 1511.13,419.547 1513.18,424.466 1515.24,226.843 1517.29,224.069 1519.34,181.789 1521.4,332.813 1523.45,391.399 1525.5,284.652 1527.55,318.862 1529.61,190.746 1531.66,208.561 1533.71,275.682 1535.77,277.002 1537.82,224.138 1539.87,188.56 1541.93,216.888 1543.98,216.118 1546.03,356.527 1548.08,202.157 1550.14,240.636 1552.19,205.5 1554.24,267.626 1556.3,632.114 1558.35,601.411 1560.4,436.382 1562.45,462.224 1564.51,516.855 1566.56,517.403 1568.61,532.462 1570.67,532.561 1572.72,537.786 1574.77,548.324 1576.82,531.038 1578.88,561.288 1580.93,543.073 1582.98,582.02 1585.04,582.675 1587.09,514.384 1589.14,564.394 1591.19,567.043 1593.25,571.275 1595.3,544.76 1597.35,545.155 1599.41,539.045 1601.46,517.144 1603.51,601.864 1605.56,604.673 1607.62,604.857 1609.67,599.854 1611.72,626.573 1613.78,547.613 1615.83,543.085 1617.88,536.916 1619.94,584.568 1621.99,575.33 1624.04,564.821 1626.09,617.361 1628.15,592.051 1630.2,611.067 1632.25,607.712 1634.31,502.205 1636.36,495.199 1638.41,509.599 1640.46,508.764 1642.52,509.112 1644.57,508.539 1646.62,480.892 1648.68,491.276 1650.73,498.629 1652.78,506.228 1654.83,489.468 1656.89,449.786 1658.94,473.084 1660.99,484.018 1663.05,488.501 1665.1,268.871 1667.15,355.032 1669.2,355.021 1671.26,298.447 1673.31,300.601 1675.36,310.007 1677.42,290.924 1679.47,281.111 1681.52,281.257 1683.57,281.294 1685.63,285.096 1687.68,285.646 1689.73,285.824 1691.79,277.755 1693.84,292.766 1695.89,294.667 1697.94,309.39 1700,301.278 1702.05,295.851 1704.1,284.965 1706.16,285.418 1708.21,287.35 1710.26,287.184 1712.32,287.608 1714.37,284.201 1716.42,321.371 1718.47,317.742 1720.53,323.628 1722.58,334.124 1724.63,336.671 1726.69,361.219 1728.74,362.147 1730.79,365.599 1732.84,327.835 1734.9,324.788 1736.95,323.937 1739,325.2 1741.06,324.728 1743.11,345.38 1745.16,362.064 1747.21,356.711 1749.27,361.517 1751.32,361.943 1753.37,380.478 1755.43,376.015 1757.48,375.091 1759.53,364.122 1761.58,366.47 1763.64,397.729 1765.69,391.732 1767.74,391.179 1769.8,406.096 1771.85,400.795 1773.9,385.778 1775.95,387.124 1778.01,418.983 1780.06,418.932 1782.11,416.386 1784.17,282.739 1786.22,287.985 1788.27,289.707 1790.33,332.217 1792.38,314.639 1794.43,315.249 1796.48,307.107 1798.54,310.288 1800.59,310.62 1802.64,329.087 1804.7,317.945 1806.75,317.066 1808.8,316.616 1810.85,314.217 1812.91,305.515 1814.96,297.584 1817.01,300.107 1819.07,311.113 1821.12,320.265 1823.17,320.101 1825.22,336.11 1827.28,334.354 1829.33,334.24 1831.38,331.192 1833.44,329.369 1835.49,331.531 1837.54,336.102 1839.59,338.86 1841.65,338.234 1843.7,344.845 1845.75,344.051 1847.81,342.422 1849.86,342.21 1851.91,342.158 1853.96,342.13 1856.02,341.736 1858.07,333.518 1860.12,329.409 1862.18,329.801 1864.23,329.084 1866.28,331.568 1868.34,331.223 1870.39,331.678 1872.44,329.52 1874.49,403.869 1876.55,402.954 1878.6,402.942 1880.65,388.072 1882.71,365.538 1884.76,364.823 1886.81,364.06 1888.86,386.328 1890.92,380.731 1892.97,398.942 1895.02,399.845 1897.08,399.85 1899.13,394.681 1901.18,394.39 1903.23,393.983 1905.29,370.035 1907.34,362.608 1909.39,346.819 1911.45,337.576 1913.5,350.876 1915.55,357.321 1917.6,352.799 1919.66,353.559 1921.71,349.814 1923.76,349.235 1925.82,349.176 1927.87,374.442 1929.92,391.946 1931.97,392.571 1934.03,392.907 1936.08,442.435 1938.13,403.387 1940.19,394.679 1942.24,298.43 1944.29,283.743 1946.34,312.03 1948.4,308.241 1950.45,308.593 1952.5,392.022 1954.56,392.003 1956.61,388.295 1958.66,346.084 1960.72,338.21 1962.77,342.858 1964.82,342.179 1966.87,345.444 1968.93,350.293 1970.98,349.901 1973.03,358.527 1975.09,358.62 1977.14,358.075 1979.19,358.461 1981.24,327.423 1983.3,334.391 1985.35,333.24 1987.4,296.509 1989.46,288.784 1991.51,291.556 1993.56,291.538 1995.61,291.644 1997.67,291.721 1999.72,349.107 2001.77,334.24 2003.83,330.931 2005.88,398.544 2007.93,405.458 2009.98,405.065 2012.04,405.005 2014.09,360.494 2016.14,362.536 2018.2,331.663 2020.25,330.136 2022.3,330.243 2024.35,375.24 2026.41,354.555 2028.46,354.597 2030.51,358.737 2032.57,294.479 2034.62,297.013 2036.67,283.01 2038.73,283.498 2040.78,284.677 2042.83,253.048 2044.88,355.638 2046.94,349.801 2048.99,338.473 2051.04,352.091 2053.1,350.165 2055.15,350.702 2057.2,427.682 2059.25,428.426 2061.31,403.889 2063.36,417.295 2065.41,423.266 2067.47,437.019 2069.52,441.411 2071.57,451.485 2073.62,432.208 2075.68,432.235 2077.73,419.954 2079.78,470.224 2081.84,487.744 2083.89,487.916 2085.94,465.104 2087.99,464.335 2090.05,388.248 2092.1,386.407 2094.15,439.811 2096.21,459.406 2098.26,418.611 2100.31,419.523 2102.36,426.358 2104.42,426.377 2106.47,399.442 2108.52,399.801 2110.58,355.02 2112.63,477.904 2114.68,498.43 2116.73,488.015 2118.79,499.603 2120.84,497.711 2122.89,491.605 2124.95,514.324 2127,476.624 2129.05,469.508 2131.11,466.516 2133.16,449.328 2135.21,274.492 2137.26,276.722 2139.32,548.955 2141.37,534.135 2143.42,292.365 2145.48,294.405 2147.53,282.369 2149.58,323.307 2151.63,326.138 2153.69,326.645 2155.74,310.558 2157.79,309.357 2159.85,309.167 2161.9,307.007 2163.95,328.81 2166,328.481 2168.06,319.693 2170.11,316.746 2172.16,314.657 2174.22,270.319 2176.27,268.189 2178.32,266.924 2180.37,304.317 2182.43,302.239 2184.48,357.516 2186.53,364.318 2188.59,347.802 2190.64,380.73 2192.69,379.016 2194.74,391.957 2196.8,461.143 2198.85,449.649 2200.9,453.016 2202.96,453.04 2205.01,453.822 2207.06,471.97 2209.12,473.861 2211.17,313.601 2213.22,309.624 2215.27,399.243 2217.33,398.763 2219.38,322.785 2221.43,319.175 2223.49,442.247 2225.54,402.596 2227.59,387.199 2229.64,386.597 2231.7,377.1 2233.75,373.022 2235.8,311.836 2237.86,309.561 2239.91,278.56 2241.96,263.767 2244.01,235.393 2246.07,268.394 2248.12,294.82 2250.17,295.023 2252.23,295.965 2254.28,310.89 2256.33,259.176 2258.38,290.441 2260.44,527.471 2262.49,659.571 2264.54,668.682 2266.6,654.866 2268.65,477.554 2270.7,482.109 2272.75,502.906 2274.81,220.517 2276.86,676.542 2278.91,827.438 2280.97,788.37 2283.02,809.722 2285.07,669.982 2287.12,672.349 2289.18,631.948 2291.23,620.329 "/>
<path clip-path="url(#clip810)" d="M1983.6 172.231 L2280.29 172.231 L2280.29 68.5509 L1983.6 68.5509  Z" fill="#ffffff" fill-rule="evenodd" fill-opacity="1"/>
<polyline clip-path="url(#clip810)" style="stroke:#000000; stroke-linecap:round; stroke-linejoin:round; stroke-width:4; stroke-opacity:1; fill:none" points="1983.6,172.231 2280.29,172.231 2280.29,68.5509 1983.6,68.5509 1983.6,172.231 "/>
<polyline clip-path="url(#clip810)" style="stroke:#009af9; stroke-linecap:round; stroke-linejoin:round; stroke-width:4; stroke-opacity:1; fill:none" points="2007.75,120.391 2152.68,120.391 "/>
<path clip-path="url(#clip810)" d="M2176.83 103.111 L2181.51 103.111 L2181.51 133.736 L2198.34 133.736 L2198.34 137.671 L2176.83 137.671 L2176.83 103.111 Z" fill="#000000" fill-rule="nonzero" fill-opacity="1" /><path clip-path="url(#clip810)" d="M2223.96 104.245 L2223.96 108.805 Q2221.3 107.532 2218.94 106.907 Q2216.58 106.282 2214.38 106.282 Q2210.56 106.282 2208.48 107.764 Q2206.42 109.245 2206.42 111.977 Q2206.42 114.268 2207.78 115.449 Q2209.17 116.606 2213.01 117.324 L2215.84 117.902 Q2221.07 118.898 2223.55 121.421 Q2226.05 123.921 2226.05 128.134 Q2226.05 133.157 2222.67 135.75 Q2219.31 138.342 2212.81 138.342 Q2210.35 138.342 2207.57 137.787 Q2204.82 137.231 2201.86 136.143 L2201.86 131.328 Q2204.7 132.926 2207.44 133.736 Q2210.17 134.546 2212.81 134.546 Q2216.81 134.546 2218.99 132.972 Q2221.16 131.398 2221.16 128.481 Q2221.16 125.935 2219.59 124.5 Q2218.04 123.064 2214.47 122.347 L2211.62 121.791 Q2206.39 120.75 2204.06 118.527 Q2201.72 116.305 2201.72 112.347 Q2201.72 107.764 2204.94 105.125 Q2208.18 102.486 2213.85 102.486 Q2216.28 102.486 2218.8 102.926 Q2221.32 103.366 2223.96 104.245 Z" fill="#000000" fill-rule="nonzero" fill-opacity="1" /><path clip-path="url(#clip810)" d="M2254.06 104.245 L2254.06 108.805 Q2251.39 107.532 2249.03 106.907 Q2246.67 106.282 2244.47 106.282 Q2240.65 106.282 2238.57 107.764 Q2236.51 109.245 2236.51 111.977 Q2236.51 114.268 2237.87 115.449 Q2239.26 116.606 2243.11 117.324 L2245.93 117.902 Q2251.16 118.898 2253.64 121.421 Q2256.14 123.921 2256.14 128.134 Q2256.14 133.157 2252.76 135.75 Q2249.4 138.342 2242.9 138.342 Q2240.44 138.342 2237.67 137.787 Q2234.91 137.231 2231.95 136.143 L2231.95 131.328 Q2234.8 132.926 2237.53 133.736 Q2240.26 134.546 2242.9 134.546 Q2246.9 134.546 2249.08 132.972 Q2251.25 131.398 2251.25 128.481 Q2251.25 125.935 2249.68 124.5 Q2248.13 123.064 2244.56 122.347 L2241.72 121.791 Q2236.49 120.75 2234.15 118.527 Q2231.81 116.305 2231.81 112.347 Q2231.81 107.764 2235.03 105.125 Q2238.27 102.486 2243.94 102.486 Q2246.37 102.486 2248.89 102.926 Q2251.42 103.366 2254.06 104.245 Z" fill="#000000" fill-rule="nonzero" fill-opacity="1" /><path clip-path="url(#clip810)" d="M178.867 1486.45 L2352.76 1486.45 L2352.76 847.244 L178.867 847.244  Z" fill="#ffffff" fill-rule="evenodd" fill-opacity="1"/>
<defs>
  <clipPath id="clip813">
    <rect x="178" y="847" width="2175" height="640"/>
  </clipPath>
</defs>
<polyline clip-path="url(#clip813)" style="stroke:#000000; stroke-linecap:round; stroke-linejoin:round; stroke-width:2; stroke-opacity:0.1; fill:none" points="238.339,1486.45 238.339,847.244 "/>
<polyline clip-path="url(#clip813)" style="stroke:#000000; stroke-linecap:round; stroke-linejoin:round; stroke-width:2; stroke-opacity:0.1; fill:none" points="751.562,1486.45 751.562,847.244 "/>
<polyline clip-path="url(#clip813)" style="stroke:#000000; stroke-linecap:round; stroke-linejoin:round; stroke-width:2; stroke-opacity:0.1; fill:none" points="1264.78,1486.45 1264.78,847.244 "/>
<polyline clip-path="url(#clip813)" style="stroke:#000000; stroke-linecap:round; stroke-linejoin:round; stroke-width:2; stroke-opacity:0.1; fill:none" points="1778.01,1486.45 1778.01,847.244 "/>
<polyline clip-path="url(#clip813)" style="stroke:#000000; stroke-linecap:round; stroke-linejoin:round; stroke-width:2; stroke-opacity:0.1; fill:none" points="2291.23,1486.45 2291.23,847.244 "/>
<polyline clip-path="url(#clip813)" style="stroke:#000000; stroke-linecap:round; stroke-linejoin:round; stroke-width:2; stroke-opacity:0.1; fill:none" points="178.867,1486.45 2352.76,1486.45 "/>
<polyline clip-path="url(#clip813)" style="stroke:#000000; stroke-linecap:round; stroke-linejoin:round; stroke-width:2; stroke-opacity:0.1; fill:none" points="178.867,1326.65 2352.76,1326.65 "/>
<polyline clip-path="url(#clip813)" style="stroke:#000000; stroke-linecap:round; stroke-linejoin:round; stroke-width:2; stroke-opacity:0.1; fill:none" points="178.867,1166.85 2352.76,1166.85 "/>
<polyline clip-path="url(#clip813)" style="stroke:#000000; stroke-linecap:round; stroke-linejoin:round; stroke-width:2; stroke-opacity:0.1; fill:none" points="178.867,1007.05 2352.76,1007.05 "/>
<polyline clip-path="url(#clip813)" style="stroke:#000000; stroke-linecap:round; stroke-linejoin:round; stroke-width:2; stroke-opacity:0.1; fill:none" points="178.867,847.244 2352.76,847.244 "/>
<polyline clip-path="url(#clip810)" style="stroke:#000000; stroke-linecap:round; stroke-linejoin:round; stroke-width:4; stroke-opacity:1; fill:none" points="178.867,1486.45 2352.76,1486.45 "/>
<polyline clip-path="url(#clip810)" style="stroke:#000000; stroke-linecap:round; stroke-linejoin:round; stroke-width:4; stroke-opacity:1; fill:none" points="238.339,1486.45 238.339,1467.55 "/>
<polyline clip-path="url(#clip810)" style="stroke:#000000; stroke-linecap:round; stroke-linejoin:round; stroke-width:4; stroke-opacity:1; fill:none" points="751.562,1486.45 751.562,1467.55 "/>
<polyline clip-path="url(#clip810)" style="stroke:#000000; stroke-linecap:round; stroke-linejoin:round; stroke-width:4; stroke-opacity:1; fill:none" points="1264.78,1486.45 1264.78,1467.55 "/>
<polyline clip-path="url(#clip810)" style="stroke:#000000; stroke-linecap:round; stroke-linejoin:round; stroke-width:4; stroke-opacity:1; fill:none" points="1778.01,1486.45 1778.01,1467.55 "/>
<polyline clip-path="url(#clip810)" style="stroke:#000000; stroke-linecap:round; stroke-linejoin:round; stroke-width:4; stroke-opacity:1; fill:none" points="2291.23,1486.45 2291.23,1467.55 "/>
<path clip-path="url(#clip810)" d="M238.339 1517.37 Q234.728 1517.37 232.899 1520.93 Q231.094 1524.47 231.094 1531.6 Q231.094 1538.71 232.899 1542.27 Q234.728 1545.82 238.339 1545.82 Q241.973 1545.82 243.779 1542.27 Q245.607 1538.71 245.607 1531.6 Q245.607 1524.47 243.779 1520.93 Q241.973 1517.37 238.339 1517.37 M238.339 1513.66 Q244.149 1513.66 247.205 1518.27 Q250.283 1522.85 250.283 1531.6 Q250.283 1540.33 247.205 1544.94 Q244.149 1549.52 238.339 1549.52 Q232.529 1549.52 229.45 1544.94 Q226.395 1540.33 226.395 1531.6 Q226.395 1522.85 229.45 1518.27 Q232.529 1513.66 238.339 1513.66 Z" fill="#000000" fill-rule="nonzero" fill-opacity="1" /><path clip-path="url(#clip810)" d="M715.254 1544.91 L731.574 1544.91 L731.574 1548.85 L709.629 1548.85 L709.629 1544.91 Q712.291 1542.16 716.875 1537.53 Q721.481 1532.88 722.662 1531.53 Q724.907 1529.01 725.787 1527.27 Q726.689 1525.51 726.689 1523.82 Q726.689 1521.07 724.745 1519.33 Q722.824 1517.6 719.722 1517.6 Q717.523 1517.6 715.069 1518.36 Q712.638 1519.13 709.861 1520.68 L709.861 1515.95 Q712.685 1514.82 715.138 1514.24 Q717.592 1513.66 719.629 1513.66 Q725 1513.66 728.194 1516.35 Q731.388 1519.03 731.388 1523.52 Q731.388 1525.65 730.578 1527.57 Q729.791 1529.47 727.685 1532.07 Q727.106 1532.74 724.004 1535.95 Q720.902 1539.15 715.254 1544.91 Z" fill="#000000" fill-rule="nonzero" fill-opacity="1" /><path clip-path="url(#clip810)" d="M741.435 1514.29 L759.791 1514.29 L759.791 1518.22 L745.717 1518.22 L745.717 1526.7 Q746.736 1526.35 747.754 1526.19 Q748.773 1526 749.791 1526 Q755.578 1526 758.958 1529.17 Q762.337 1532.34 762.337 1537.76 Q762.337 1543.34 758.865 1546.44 Q755.393 1549.52 749.073 1549.52 Q746.898 1549.52 744.629 1549.15 Q742.384 1548.78 739.976 1548.04 L739.976 1543.34 Q742.06 1544.47 744.282 1545.03 Q746.504 1545.58 748.981 1545.58 Q752.985 1545.58 755.323 1543.48 Q757.661 1541.37 757.661 1537.76 Q757.661 1534.15 755.323 1532.04 Q752.985 1529.94 748.981 1529.94 Q747.106 1529.94 745.231 1530.35 Q743.379 1530.77 741.435 1531.65 L741.435 1514.29 Z" fill="#000000" fill-rule="nonzero" fill-opacity="1" /><path clip-path="url(#clip810)" d="M781.55 1517.37 Q777.939 1517.37 776.11 1520.93 Q774.305 1524.47 774.305 1531.6 Q774.305 1538.71 776.11 1542.27 Q777.939 1545.82 781.55 1545.82 Q785.184 1545.82 786.99 1542.27 Q788.819 1538.71 788.819 1531.6 Q788.819 1524.47 786.99 1520.93 Q785.184 1517.37 781.55 1517.37 M781.55 1513.66 Q787.36 1513.66 790.416 1518.27 Q793.495 1522.85 793.495 1531.6 Q793.495 1540.33 790.416 1544.94 Q787.36 1549.52 781.55 1549.52 Q775.74 1549.52 772.661 1544.94 Q769.606 1540.33 769.606 1531.6 Q769.606 1522.85 772.661 1518.27 Q775.74 1513.66 781.55 1513.66 Z" fill="#000000" fill-rule="nonzero" fill-opacity="1" /><path clip-path="url(#clip810)" d="M1224.4 1514.29 L1242.76 1514.29 L1242.76 1518.22 L1228.69 1518.22 L1228.69 1526.7 Q1229.7 1526.35 1230.72 1526.19 Q1231.74 1526 1232.76 1526 Q1238.55 1526 1241.93 1529.17 Q1245.31 1532.34 1245.31 1537.76 Q1245.31 1543.34 1241.83 1546.44 Q1238.36 1549.52 1232.04 1549.52 Q1229.87 1549.52 1227.6 1549.15 Q1225.35 1548.78 1222.94 1548.04 L1222.94 1543.34 Q1225.03 1544.47 1227.25 1545.03 Q1229.47 1545.58 1231.95 1545.58 Q1235.95 1545.58 1238.29 1543.48 Q1240.63 1541.37 1240.63 1537.76 Q1240.63 1534.15 1238.29 1532.04 Q1235.95 1529.94 1231.95 1529.94 Q1230.07 1529.94 1228.2 1530.35 Q1226.35 1530.77 1224.4 1531.65 L1224.4 1514.29 Z" fill="#000000" fill-rule="nonzero" fill-opacity="1" /><path clip-path="url(#clip810)" d="M1264.52 1517.37 Q1260.91 1517.37 1259.08 1520.93 Q1257.27 1524.47 1257.27 1531.6 Q1257.27 1538.71 1259.08 1542.27 Q1260.91 1545.82 1264.52 1545.82 Q1268.15 1545.82 1269.96 1542.27 Q1271.79 1538.71 1271.79 1531.6 Q1271.79 1524.47 1269.96 1520.93 Q1268.15 1517.37 1264.52 1517.37 M1264.52 1513.66 Q1270.33 1513.66 1273.38 1518.27 Q1276.46 1522.85 1276.46 1531.6 Q1276.46 1540.33 1273.38 1544.94 Q1270.33 1549.52 1264.52 1549.52 Q1258.71 1549.52 1255.63 1544.94 Q1252.57 1540.33 1252.57 1531.6 Q1252.57 1522.85 1255.63 1518.27 Q1258.71 1513.66 1264.52 1513.66 Z" fill="#000000" fill-rule="nonzero" fill-opacity="1" /><path clip-path="url(#clip810)" d="M1294.68 1517.37 Q1291.07 1517.37 1289.24 1520.93 Q1287.44 1524.47 1287.44 1531.6 Q1287.44 1538.71 1289.24 1542.27 Q1291.07 1545.82 1294.68 1545.82 Q1298.31 1545.82 1300.12 1542.27 Q1301.95 1538.71 1301.95 1531.6 Q1301.95 1524.47 1300.12 1520.93 Q1298.31 1517.37 1294.68 1517.37 M1294.68 1513.66 Q1300.49 1513.66 1303.55 1518.27 Q1306.62 1522.85 1306.62 1531.6 Q1306.62 1540.33 1303.55 1544.94 Q1300.49 1549.52 1294.68 1549.52 Q1288.87 1549.52 1285.79 1544.94 Q1282.74 1540.33 1282.74 1531.6 Q1282.74 1522.85 1285.79 1518.27 Q1288.87 1513.66 1294.68 1513.66 Z" fill="#000000" fill-rule="nonzero" fill-opacity="1" /><path clip-path="url(#clip810)" d="M1736.28 1514.29 L1758.51 1514.29 L1758.51 1516.28 L1745.96 1548.85 L1741.08 1548.85 L1752.88 1518.22 L1736.28 1518.22 L1736.28 1514.29 Z" fill="#000000" fill-rule="nonzero" fill-opacity="1" /><path clip-path="url(#clip810)" d="M1767.67 1514.29 L1786.03 1514.29 L1786.03 1518.22 L1771.95 1518.22 L1771.95 1526.7 Q1772.97 1526.35 1773.99 1526.19 Q1775.01 1526 1776.03 1526 Q1781.82 1526 1785.2 1529.17 Q1788.57 1532.34 1788.57 1537.76 Q1788.57 1543.34 1785.1 1546.44 Q1781.63 1549.52 1775.31 1549.52 Q1773.14 1549.52 1770.87 1549.15 Q1768.62 1548.78 1766.21 1548.04 L1766.21 1543.34 Q1768.3 1544.47 1770.52 1545.03 Q1772.74 1545.58 1775.22 1545.58 Q1779.22 1545.58 1781.56 1543.48 Q1783.9 1541.37 1783.9 1537.76 Q1783.9 1534.15 1781.56 1532.04 Q1779.22 1529.94 1775.22 1529.94 Q1773.34 1529.94 1771.47 1530.35 Q1769.62 1530.77 1767.67 1531.65 L1767.67 1514.29 Z" fill="#000000" fill-rule="nonzero" fill-opacity="1" /><path clip-path="url(#clip810)" d="M1807.79 1517.37 Q1804.18 1517.37 1802.35 1520.93 Q1800.54 1524.47 1800.54 1531.6 Q1800.54 1538.71 1802.35 1542.27 Q1804.18 1545.82 1807.79 1545.82 Q1811.42 1545.82 1813.23 1542.27 Q1815.06 1538.71 1815.06 1531.6 Q1815.06 1524.47 1813.23 1520.93 Q1811.42 1517.37 1807.79 1517.37 M1807.79 1513.66 Q1813.6 1513.66 1816.65 1518.27 Q1819.73 1522.85 1819.73 1531.6 Q1819.73 1540.33 1816.65 1544.94 Q1813.6 1549.52 1807.79 1549.52 Q1801.98 1549.52 1798.9 1544.94 Q1795.84 1540.33 1795.84 1531.6 Q1795.84 1522.85 1798.9 1518.27 Q1801.98 1513.66 1807.79 1513.66 Z" fill="#000000" fill-rule="nonzero" fill-opacity="1" /><path clip-path="url(#clip810)" d="M2235.76 1544.91 L2243.4 1544.91 L2243.4 1518.55 L2235.09 1520.21 L2235.09 1515.95 L2243.35 1514.29 L2248.02 1514.29 L2248.02 1544.91 L2255.66 1544.91 L2255.66 1548.85 L2235.76 1548.85 L2235.76 1544.91 Z" fill="#000000" fill-rule="nonzero" fill-opacity="1" /><path clip-path="url(#clip810)" d="M2275.11 1517.37 Q2271.5 1517.37 2269.67 1520.93 Q2267.86 1524.47 2267.86 1531.6 Q2267.86 1538.71 2269.67 1542.27 Q2271.5 1545.82 2275.11 1545.82 Q2278.74 1545.82 2280.55 1542.27 Q2282.38 1538.71 2282.38 1531.6 Q2282.38 1524.47 2280.55 1520.93 Q2278.74 1517.37 2275.11 1517.37 M2275.11 1513.66 Q2280.92 1513.66 2283.97 1518.27 Q2287.05 1522.85 2287.05 1531.6 Q2287.05 1540.33 2283.97 1544.94 Q2280.92 1549.52 2275.11 1549.52 Q2269.3 1549.52 2266.22 1544.94 Q2263.16 1540.33 2263.16 1531.6 Q2263.16 1522.85 2266.22 1518.27 Q2269.3 1513.66 2275.11 1513.66 Z" fill="#000000" fill-rule="nonzero" fill-opacity="1" /><path clip-path="url(#clip810)" d="M2305.27 1517.37 Q2301.66 1517.37 2299.83 1520.93 Q2298.02 1524.47 2298.02 1531.6 Q2298.02 1538.71 2299.83 1542.27 Q2301.66 1545.82 2305.27 1545.82 Q2308.9 1545.82 2310.71 1542.27 Q2312.54 1538.71 2312.54 1531.6 Q2312.54 1524.47 2310.71 1520.93 Q2308.9 1517.37 2305.27 1517.37 M2305.27 1513.66 Q2311.08 1513.66 2314.14 1518.27 Q2317.21 1522.85 2317.21 1531.6 Q2317.21 1540.33 2314.14 1544.94 Q2311.08 1549.52 2305.27 1549.52 Q2299.46 1549.52 2296.38 1544.94 Q2293.33 1540.33 2293.33 1531.6 Q2293.33 1522.85 2296.38 1518.27 Q2299.46 1513.66 2305.27 1513.66 Z" fill="#000000" fill-rule="nonzero" fill-opacity="1" /><path clip-path="url(#clip810)" d="M2335.43 1517.37 Q2331.82 1517.37 2329.99 1520.93 Q2328.19 1524.47 2328.19 1531.6 Q2328.19 1538.71 2329.99 1542.27 Q2331.82 1545.82 2335.43 1545.82 Q2339.07 1545.82 2340.87 1542.27 Q2342.7 1538.71 2342.7 1531.6 Q2342.7 1524.47 2340.87 1520.93 Q2339.07 1517.37 2335.43 1517.37 M2335.43 1513.66 Q2341.24 1513.66 2344.3 1518.27 Q2347.38 1522.85 2347.38 1531.6 Q2347.38 1540.33 2344.3 1544.94 Q2341.24 1549.52 2335.43 1549.52 Q2329.62 1549.52 2326.54 1544.94 Q2323.49 1540.33 2323.49 1531.6 Q2323.49 1522.85 2326.54 1518.27 Q2329.62 1513.66 2335.43 1513.66 Z" fill="#000000" fill-rule="nonzero" fill-opacity="1" /><polyline clip-path="url(#clip810)" style="stroke:#000000; stroke-linecap:round; stroke-linejoin:round; stroke-width:4; stroke-opacity:1; fill:none" points="178.867,1486.45 178.867,847.244 "/>
<polyline clip-path="url(#clip810)" style="stroke:#000000; stroke-linecap:round; stroke-linejoin:round; stroke-width:4; stroke-opacity:1; fill:none" points="178.867,1486.45 197.764,1486.45 "/>
<polyline clip-path="url(#clip810)" style="stroke:#000000; stroke-linecap:round; stroke-linejoin:round; stroke-width:4; stroke-opacity:1; fill:none" points="178.867,1326.65 197.764,1326.65 "/>
<polyline clip-path="url(#clip810)" style="stroke:#000000; stroke-linecap:round; stroke-linejoin:round; stroke-width:4; stroke-opacity:1; fill:none" points="178.867,1166.85 197.764,1166.85 "/>
<polyline clip-path="url(#clip810)" style="stroke:#000000; stroke-linecap:round; stroke-linejoin:round; stroke-width:4; stroke-opacity:1; fill:none" points="178.867,1007.05 197.764,1007.05 "/>
<polyline clip-path="url(#clip810)" style="stroke:#000000; stroke-linecap:round; stroke-linejoin:round; stroke-width:4; stroke-opacity:1; fill:none" points="178.867,847.244 197.764,847.244 "/>
<path clip-path="url(#clip810)" d="M50.9921 1486.9 L80.6679 1486.9 L80.6679 1490.83 L50.9921 1490.83 L50.9921 1486.9 Z" fill="#000000" fill-rule="nonzero" fill-opacity="1" /><path clip-path="url(#clip810)" d="M91.5706 1499.79 L99.2095 1499.79 L99.2095 1473.43 L90.8993 1475.09 L90.8993 1470.83 L99.1632 1469.17 L103.839 1469.17 L103.839 1499.79 L111.478 1499.79 L111.478 1503.73 L91.5706 1503.73 L91.5706 1499.79 Z" fill="#000000" fill-rule="nonzero" fill-opacity="1" /><path clip-path="url(#clip810)" d="M130.922 1472.25 Q127.311 1472.25 125.482 1475.81 Q123.677 1479.35 123.677 1486.48 Q123.677 1493.59 125.482 1497.15 Q127.311 1500.7 130.922 1500.7 Q134.556 1500.7 136.362 1497.15 Q138.191 1493.59 138.191 1486.48 Q138.191 1479.35 136.362 1475.81 Q134.556 1472.25 130.922 1472.25 M130.922 1468.54 Q136.732 1468.54 139.788 1473.15 Q142.867 1477.73 142.867 1486.48 Q142.867 1495.21 139.788 1499.82 Q136.732 1504.4 130.922 1504.4 Q125.112 1504.4 122.033 1499.82 Q118.978 1495.21 118.978 1486.48 Q118.978 1477.73 122.033 1473.15 Q125.112 1468.54 130.922 1468.54 Z" fill="#000000" fill-rule="nonzero" fill-opacity="1" /><path clip-path="url(#clip810)" d="M82.1494 1327.1 L111.825 1327.1 L111.825 1331.03 L82.1494 1331.03 L82.1494 1327.1 Z" fill="#000000" fill-rule="nonzero" fill-opacity="1" /><path clip-path="url(#clip810)" d="M121.964 1309.37 L140.32 1309.37 L140.32 1313.3 L126.246 1313.3 L126.246 1321.77 Q127.265 1321.43 128.283 1321.27 Q129.302 1321.08 130.32 1321.08 Q136.107 1321.08 139.487 1324.25 Q142.867 1327.42 142.867 1332.84 Q142.867 1338.42 139.394 1341.52 Q135.922 1344.6 129.603 1344.6 Q127.427 1344.6 125.158 1344.23 Q122.913 1343.86 120.506 1343.12 L120.506 1338.42 Q122.589 1339.55 124.811 1340.11 Q127.033 1340.66 129.51 1340.66 Q133.515 1340.66 135.853 1338.56 Q138.191 1336.45 138.191 1332.84 Q138.191 1329.23 135.853 1327.12 Q133.515 1325.01 129.51 1325.01 Q127.635 1325.01 125.76 1325.43 Q123.908 1325.85 121.964 1326.73 L121.964 1309.37 Z" fill="#000000" fill-rule="nonzero" fill-opacity="1" /><path clip-path="url(#clip810)" d="M130.922 1152.64 Q127.311 1152.64 125.482 1156.21 Q123.677 1159.75 123.677 1166.88 Q123.677 1173.99 125.482 1177.55 Q127.311 1181.09 130.922 1181.09 Q134.556 1181.09 136.362 1177.55 Q138.191 1173.99 138.191 1166.88 Q138.191 1159.75 136.362 1156.21 Q134.556 1152.64 130.922 1152.64 M130.922 1148.94 Q136.732 1148.94 139.788 1153.55 Q142.867 1158.13 142.867 1166.88 Q142.867 1175.61 139.788 1180.21 Q136.732 1184.8 130.922 1184.8 Q125.112 1184.8 122.033 1180.21 Q118.978 1175.61 118.978 1166.88 Q118.978 1158.13 122.033 1153.55 Q125.112 1148.94 130.922 1148.94 Z" fill="#000000" fill-rule="nonzero" fill-opacity="1" /><path clip-path="url(#clip810)" d="M121.964 989.765 L140.32 989.765 L140.32 993.7 L126.246 993.7 L126.246 1002.17 Q127.265 1001.83 128.283 1001.66 Q129.302 1001.48 130.32 1001.48 Q136.107 1001.48 139.487 1004.65 Q142.867 1007.82 142.867 1013.24 Q142.867 1018.82 139.394 1021.92 Q135.922 1025 129.603 1025 Q127.427 1025 125.158 1024.63 Q122.913 1024.26 120.506 1023.51 L120.506 1018.82 Q122.589 1019.95 124.811 1020.51 Q127.033 1021.06 129.51 1021.06 Q133.515 1021.06 135.853 1018.95 Q138.191 1016.85 138.191 1013.24 Q138.191 1009.63 135.853 1007.52 Q133.515 1005.41 129.51 1005.41 Q127.635 1005.41 125.76 1005.83 Q123.908 1006.25 121.964 1007.13 L121.964 989.765 Z" fill="#000000" fill-rule="nonzero" fill-opacity="1" /><path clip-path="url(#clip810)" d="M91.5706 860.589 L99.2095 860.589 L99.2095 834.223 L90.8993 835.89 L90.8993 831.631 L99.1632 829.964 L103.839 829.964 L103.839 860.589 L111.478 860.589 L111.478 864.524 L91.5706 864.524 L91.5706 860.589 Z" fill="#000000" fill-rule="nonzero" fill-opacity="1" /><path clip-path="url(#clip810)" d="M130.922 833.043 Q127.311 833.043 125.482 836.608 Q123.677 840.149 123.677 847.279 Q123.677 854.385 125.482 857.95 Q127.311 861.492 130.922 861.492 Q134.556 861.492 136.362 857.95 Q138.191 854.385 138.191 847.279 Q138.191 840.149 136.362 836.608 Q134.556 833.043 130.922 833.043 M130.922 829.339 Q136.732 829.339 139.788 833.946 Q142.867 838.529 142.867 847.279 Q142.867 856.006 139.788 860.612 Q136.732 865.195 130.922 865.195 Q125.112 865.195 122.033 860.612 Q118.978 856.006 118.978 847.279 Q118.978 838.529 122.033 833.946 Q125.112 829.339 130.922 829.339 Z" fill="#000000" fill-rule="nonzero" fill-opacity="1" /><polyline clip-path="url(#clip813)" style="stroke:#009af9; stroke-linecap:round; stroke-linejoin:round; stroke-width:4; stroke-opacity:1; fill:none" points="240.392,1134.89 242.445,1159.77 244.498,1185.25 246.55,1309.9 248.603,1300.61 250.656,1510.65 252.709,1786.59 254.762,1607.89 256.815,1196.09 258.868,1313.7 260.921,1102.67 262.974,1050.21 265.027,1456.09 267.079,1367.3 269.132,1181.08 271.185,1237.56 273.238,1173.23 275.291,1169.24 277.344,1198.56 279.397,1194.74 281.45,1162.77 283.503,1190.54 285.555,1166.48 287.608,1161.96 289.661,1135.33 291.714,1123.64 293.767,1150.56 295.82,1266.53 297.873,1116.9 299.926,1168.28 301.979,1218.23 304.031,1126.45 306.084,1220.07 308.137,1106.08 310.19,1248.31 312.243,1151.21 314.296,1175.52 316.349,1163.71 318.402,1165.98 320.455,1163.87 322.507,1170.33 324.56,1236.04 326.613,1142.84 328.666,1236.86 330.719,1145.75 332.772,1103.18 334.825,1124.67 336.878,1096.93 338.931,1121.29 340.984,1261.82 343.036,1149.79 345.089,1130.08 347.142,1150.33 349.195,1173.21 351.248,1162.35 353.301,1117.35 355.354,1229.84 357.407,1199.52 359.46,1159.81 361.512,1065.44 363.565,1192.12 365.618,1136.67 367.671,1225.71 369.724,1133 371.777,1133.56 373.83,1205.24 375.883,1222.43 377.936,1204.28 379.988,1158.82 382.041,1183.9 384.094,1153.01 386.147,1136.25 388.2,1094.92 390.253,1157.72 392.306,1109.64 394.359,1135.64 396.412,1141.16 398.464,1169.08 400.517,1167.24 402.57,1145.71 404.623,1152.28 406.676,1171.75 408.729,1199.21 410.782,1106.24 412.835,1237.96 414.888,1153.42 416.94,1167.01 418.993,1211.44 421.046,1205.96 423.099,1075.63 425.152,943.591 427.205,1146.04 429.258,1186.45 431.311,1201.86 433.364,1183.85 435.417,1145.32 437.469,1158.27 439.522,1158.07 441.575,1165.04 443.628,1179.24 445.681,1174.23 447.734,1180.22 449.787,1128.84 451.84,1246.95 453.893,1840.87 455.945,1181.01 457.998,1172 460.051,1152.66 462.104,1165.16 464.157,1157.94 466.21,1178.92 468.263,1132.21 470.316,1175.55 472.369,1088.01 474.421,1256.92 476.474,1131.66 478.527,1397.45 480.58,1286.91 482.633,1233.46 484.686,1131.78 486.739,1222.69 488.792,1226.35 490.845,1148.88 492.897,1141.95 494.95,1113.12 497.003,1198.94 499.056,1112.41 501.109,1046.98 503.162,853.826 505.215,1434.44 507.268,1100.19 509.321,1058.98 511.374,949.78 513.426,1394 515.479,1085.48 517.532,1184.51 519.585,1215.24 521.638,1243.95 523.691,1275.27 525.744,1115.69 527.797,1203.04 529.85,1153.08 531.902,1161.79 533.955,1181.38 536.008,1162.04 538.061,1185.96 540.114,1136.98 542.167,1140.01 544.22,1153.46 546.273,1214.04 548.326,1174.08 550.378,1211.21 552.431,1150.02 554.484,1241.39 556.537,1253.06 558.59,1182.46 560.643,1149.22 562.696,1172.6 564.749,1176.42 566.802,1181 568.854,1124.96 570.907,1169.17 572.96,1174.15 575.013,1074.41 577.066,1192.29 579.119,1156.15 581.172,1151.86 583.225,1183.04 585.278,1158.69 587.331,1167.1 589.383,1163.05 591.436,1190.96 593.489,1140.88 595.542,1296.45 597.595,1183.91 599.648,1192.87 601.701,1227.7 603.754,1152.89 605.807,1173.81 607.859,1154.14 609.912,1170.46 611.965,1167.23 614.018,1130.18 616.071,1196.59 618.124,1124.25 620.177,1200.38 622.23,1162.15 624.283,1157.56 626.335,1173.85 628.388,1218.69 630.441,1166.92 632.494,1163.68 634.547,1174.49 636.6,1176.09 638.653,1122.67 640.706,1307.47 642.759,1170.56 644.811,1169.42 646.864,1173.94 648.917,1173.95 650.97,1158.24 653.023,1180.23 655.076,1173.42 657.129,1152.74 659.182,1270.78 661.235,814.484 663.288,1069.88 665.34,1287.28 667.393,1294.27 669.446,1214.13 671.499,1121.43 673.552,895.337 675.605,1107.19 677.658,1139.71 679.711,1148.94 681.764,916.886 683.816,897.735 685.869,1177.44 687.922,1188.94 689.975,1157.71 692.028,1177.56 694.081,1126.02 696.134,1178.84 698.187,1132.1 700.24,1218.36 702.292,1165.7 704.345,1130.98 706.398,1137.91 708.451,1173.59 710.504,1135.55 712.557,1111.58 714.61,1187.15 716.663,1168.84 718.716,1182.51 720.768,1078.37 722.821,1195.17 724.874,1202.4 726.927,1199.13 728.98,1336.61 731.033,1161.66 733.086,1195.71 735.139,1160.43 737.192,1168.44 739.245,1242.36 741.297,1190.85 743.35,1152.27 745.403,1149.82 747.456,964.224 749.509,1112.07 751.562,1159.27 753.615,1248.45 755.668,1044.27 757.721,1285.85 759.773,1316.82 761.826,1310.77 763.879,1396.78 765.932,1157.08 767.985,1149.35 770.038,1222.33 772.091,1230.26 774.144,1461.66 776.197,1633.48 778.249,964.635 780.302,1064.55 782.355,1218.87 784.408,1141.11 786.461,1154.46 788.514,1224.21 790.567,1872.92 792.62,-1862.67 794.673,-2669.64 796.725,-1570.97 798.778,2594.15 800.831,1128.18 802.884,1029.86 804.937,1239.83 806.99,1169.93 809.043,1155.69 811.096,1191.08 813.149,1146.6 815.202,1226.42 817.254,1185.01 819.307,1214.99 821.36,979.131 823.413,1216.3 825.466,1136.91 827.519,1109.51 829.572,1112.62 831.625,1199.79 833.678,1211.6 835.73,1116.36 837.783,1274.13 839.836,1202.45 841.889,1174.37 843.942,1161.75 845.995,1252.97 848.048,1234.3 850.101,1108.48 852.154,1207.55 854.206,1172.24 856.259,1180.93 858.312,1157.91 860.365,1191.68 862.418,1180.95 864.471,1146.44 866.524,1164.76 868.577,1213.44 870.63,1111.69 872.682,1024.01 874.735,1702.77 876.788,831.669 878.841,1416.12 880.894,1398.31 882.947,962.326 885,1223.34 887.053,1307.48 889.106,1159.69 891.159,1186.23 893.211,1167.25 895.264,1156.03 897.317,1170.19 899.37,1169.91 901.423,1141.3 903.476,1172.2 905.529,1117.22 907.582,1140.51 909.635,1217.22 911.687,1133.82 913.74,1074.19 915.793,828.741 917.846,1172.67 919.899,1168.17 921.952,1146.74 924.005,1181.53 926.058,1095.28 928.111,1124.99 930.163,1120.44 932.216,1184.74 934.269,1174.24 936.322,1158.56 938.375,1087.65 940.428,1158.18 942.481,1149.74 944.534,1176.15 946.587,1164.64 948.639,1256.49 950.692,1198.73 952.745,1170.55 954.798,1155.14 956.851,1159.19 958.904,1048.1 960.957,1073.63 963.01,1280.69 965.063,1174.77 967.116,1162.32 969.168,1181.86 971.221,1167.33 973.274,1218.14 975.327,1213.08 977.38,1188.37 979.433,1241.17 981.486,1013.9 983.539,1130.17 985.592,1142.99 987.644,1138.1 989.697,1182.74 991.75,1224.66 993.803,1094.12 995.856,1118.86 997.909,1120.2 999.962,1177.21 1002.01,1173.77 1004.07,1209.1 1006.12,1167.65 1008.17,1152.15 1010.23,1180.57 1012.28,1148.4 1014.33,1152.19 1016.38,1185.82 1018.44,1255.41 1020.49,1173.84 1022.54,1155.18 1024.6,1150.06 1026.65,1116.77 1028.7,1184.74 1030.76,1185.4 1032.81,1201.77 1034.86,1110.71 1036.91,1116.79 1038.97,1167.84 1041.02,1162.33 1043.07,1141.37 1045.13,1173.56 1047.18,1166.71 1049.23,1144.39 1051.28,1164.71 1053.34,1171.52 1055.39,1178.73 1057.44,1172.2 1059.5,1071.14 1061.55,1169.55 1063.6,1074.14 1065.65,-51.4963 1067.71,942.781 1069.76,1271.53 1071.81,1195.13 1073.87,1766.63 1075.92,744.356 1077.97,1256.12 1080.02,-60.3281 1082.08,50.1682 1084.13,2820.25 1086.18,861.247 1088.24,713.047 1090.29,968.027 1092.34,1196.4 1094.39,1170.33 1096.45,1136.48 1098.5,1156.53 1100.55,1144.09 1102.61,1193.94 1104.66,1152.78 1106.71,1229.57 1108.77,1128.16 1110.82,1155.72 1112.87,1153.44 1114.92,1198.51 1116.98,1120.18 1119.03,1261.91 1121.08,1150.39 1123.14,1202.76 1125.19,1134.66 1127.24,1215.13 1129.29,1029.55 1131.35,891.454 1133.4,1252.7 1135.45,1262.96 1137.51,1392.72 1139.56,1233.5 1141.61,1197.66 1143.66,1172.48 1145.72,1092.73 1147.77,1106.88 1149.82,1148.44 1151.88,1172.45 1153.93,1174.4 1155.98,1154.45 1158.03,1176.59 1160.09,1100.87 1162.14,1168.29 1164.19,1170.95 1166.25,1188.32 1168.3,1167.03 1170.35,1108.23 1172.4,1110.88 1174.46,1115.34 1176.51,1497.66 1178.56,771.127 1180.62,2044.45 1182.67,1214.39 1184.72,1161.22 1186.77,1141.15 1188.83,1099.19 1190.88,1113.53 1192.93,1171.99 1194.99,1144.56 1197.04,1162.63 1199.09,1017.67 1201.15,1231.52 1203.2,1230.38 1205.25,1205.61 1207.3,908.832 1209.36,896.258 1211.41,1411.32 1213.46,995.468 1215.52,1311.36 1217.57,1323.85 1219.62,1117.54 1221.67,1236.33 1223.73,1053 1225.78,1414.22 1227.83,1941.94 1229.89,397.211 1231.94,-300.971 1233.99,-1285.84 1236.04,-1488.36 1238.1,614.009 1240.15,816.421 1242.2,799.156 1244.26,1205.53 1246.31,1129.22 1248.36,1204.23 1250.41,1105.54 1252.47,1167.3 1254.52,1171.92 1256.57,1158.29 1258.63,1228.66 1260.68,1232.33 1262.73,1139.22 1264.78,1169.73 1266.84,1237.14 1268.89,1143.46 1270.94,1138.81 1273,1111.84 1275.05,1186.87 1277.1,1169.68 1279.16,1154.77 1281.21,1145.01 1283.26,1189.03 1285.31,1140.31 1287.37,1155.73 1289.42,1190.57 1291.47,1027.34 1293.53,1335.64 1295.58,1285.29 1297.63,1273.6 1299.68,1197.76 1301.74,1184.1 1303.79,1230.17 1305.84,1173.95 1307.9,1175.72 1309.95,1182.23 1312,1183.98 1314.05,1175.1 1316.11,1159.12 1318.16,1166.89 1320.21,1185.24 1322.27,1113.07 1324.32,1055.09 1326.37,1190.03 1328.42,1697.03 1330.48,2508.64 1332.53,1468.9 1334.58,1353.56 1336.64,1198.21 1338.69,1247.76 1340.74,1170.3 1342.79,1180.25 1344.85,1176.31 1346.9,1156.84 1348.95,1161.41 1351.01,1176.35 1353.06,1206.54 1355.11,1230.66 1357.16,1138.85 1359.22,1183.2 1361.27,1154.15 1363.32,1144.38 1365.38,1283.41 1367.43,1172.88 1369.48,1220.54 1371.54,1198.31 1373.59,1220.33 1375.64,1159.47 1377.69,1196.34 1379.75,1154.25 1381.8,1171.4 1383.85,1181.59 1385.91,1218.24 1387.96,1072.32 1390.01,1205.55 1392.06,1132.77 1394.12,1167.52 1396.17,1181.18 1398.22,1168.01 1400.28,1156.88 1402.33,1172.64 1404.38,1163.03 1406.43,1175.64 1408.49,1148.25 1410.54,1156.35 1412.59,1171.64 1414.65,1175.76 1416.7,1133.59 1418.75,1121.99 1420.8,1155.85 1422.86,1159.36 1424.91,1188.37 1426.96,1132.25 1429.02,1159.07 1431.07,1181.26 1433.12,1164.43 1435.17,1188.97 1437.23,1172.91 1439.28,1172.34 1441.33,1183.08 1443.39,1168.7 1445.44,1180.97 1447.49,1184.99 1449.55,1151.41 1451.6,1220.04 1453.65,1071.22 1455.7,1096.85 1457.76,1172.81 1459.81,1173.09 1461.86,1086.58 1463.92,1186.31 1465.97,1136.8 1468.02,1198.41 1470.07,1058.57 1472.13,1192.31 1474.18,1145.44 1476.23,1117.71 1478.29,1152.58 1480.34,1143.33 1482.39,1182.68 1484.44,1187.35 1486.5,1271.58 1488.55,1201.88 1490.6,1139.29 1492.66,1169.83 1494.71,1174.43 1496.76,1158.81 1498.81,1069.3 1500.87,1211.25 1502.92,1141.87 1504.97,1196.84 1507.03,1127.51 1509.08,1219.9 1511.13,1163.66 1513.18,1155.92 1515.24,1160.59 1517.29,1113.99 1519.34,1137.39 1521.4,1132.63 1523.45,1158.45 1525.5,1166.24 1527.55,1173.06 1529.61,1157.06 1531.66,1107.56 1533.71,1142.75 1535.77,1180.27 1537.82,1128.22 1539.87,1154.57 1541.93,1160.49 1543.98,1171.95 1546.03,1154.43 1548.08,1160.46 1550.14,1185.96 1552.19,1247.73 1554.24,774.302 1556.3,149.039 1558.35,203.702 1560.4,1314.62 1562.45,684.199 1564.51,1599.02 1566.56,1127.2 1568.61,683.28 1570.67,1278.06 1572.72,1132.33 1574.77,1155.53 1576.82,1146.15 1578.88,932.231 1580.93,1354.6 1582.98,1148.98 1585.04,1251.88 1587.09,1841.87 1589.14,1639.85 1591.19,1039.13 1593.25,1156.94 1595.3,1179.56 1597.35,1154.32 1599.41,1060.71 1601.46,1066.34 1603.51,1221.04 1605.56,1231.15 1607.62,1212.96 1609.67,1164.95 1611.72,1169.33 1613.78,1098.97 1615.83,1208.39 1617.88,1166.62 1619.94,1201.03 1621.99,1295.26 1624.04,1060.07 1626.09,1067.56 1628.15,1213.19 1630.2,1173.15 1632.25,1144.05 1634.31,1175.81 1636.36,1188.54 1638.41,1181.81 1640.46,1183.7 1642.52,1174.77 1644.57,1183.36 1646.62,1158.41 1648.68,1175.77 1650.73,1175.07 1652.78,1105.97 1654.83,1160.28 1656.89,1059.33 1658.94,1312.73 1660.99,1342.77 1663.05,1237.49 1665.1,1188.69 1667.15,1095.95 1669.2,1148.79 1671.26,1177.36 1673.31,1142.72 1675.36,1155.08 1677.42,1185.27 1679.47,1042.95 1681.52,1100.71 1683.57,1144.15 1685.63,1164.13 1687.68,1182.23 1689.73,1183.62 1691.79,1152.55 1693.84,1184.37 1695.89,1186.34 1697.94,1183.13 1700,1129.08 1702.05,979.259 1704.1,1128.31 1706.16,1153.35 1708.21,1170.93 1710.26,1157.34 1712.32,1118.5 1714.37,1168.01 1716.42,1164.24 1718.47,1156.53 1720.53,1117.98 1722.58,1148.39 1724.63,1104.98 1726.69,1215.59 1728.74,1173.56 1730.79,1279.94 1732.84,1149.04 1734.9,1181.81 1736.95,1163.24 1739,1221.44 1741.06,1478.44 1743.11,1163.41 1745.16,1072.8 1747.21,1171.7 1749.27,1355.75 1751.32,1291.7 1753.37,1158.6 1755.43,1179.38 1757.48,1143.48 1759.53,1124.49 1761.58,1109.8 1763.64,1088.85 1765.69,1261.79 1767.74,974.985 1769.8,1110 1771.85,1001.47 1773.9,1094.18 1775.95,1159.02 1778.01,1135.97 1780.06,1142.78 1782.11,1153.27 1784.17,1165.61 1786.22,1159.26 1788.27,1198.58 1790.33,1155.17 1792.38,1099.63 1794.43,1232.36 1796.48,947.617 1798.54,1434.94 1800.59,1508.27 1802.64,1063.69 1804.7,1212.01 1806.75,1146.05 1808.8,1147.09 1810.85,1169.73 1812.91,1146.55 1814.96,1149.15 1817.01,1158.98 1819.07,1106.04 1821.12,1255.52 1823.17,1109.15 1825.22,1267.12 1827.28,1314.39 1829.33,1186.35 1831.38,1142.28 1833.44,1194.22 1835.49,1103.32 1837.54,1137.92 1839.59,1147.16 1841.65,1142.57 1843.7,1178.31 1845.75,1184.55 1847.81,1096.14 1849.86,1202.34 1851.91,1212.78 1853.96,1098.89 1856.02,1390.06 1858.07,1139.93 1860.12,1144.38 1862.18,1124.09 1864.23,1219.09 1866.28,1189.21 1868.34,1171.23 1870.39,1172.16 1872.44,1164.07 1874.49,1232.92 1876.55,1122.08 1878.6,1082.82 1880.65,1182.57 1882.71,1124.72 1884.76,1138.49 1886.81,1183.75 1888.86,1206.37 1890.92,1140.12 1892.97,1163.92 1895.02,1161.84 1897.08,1180.5 1899.13,1184.23 1901.18,1145.53 1903.23,1130.66 1905.29,1111.73 1907.34,1106.05 1909.39,1371.39 1911.45,1120.14 1913.5,1249.14 1915.55,1263.49 1917.6,1154.51 1919.66,1209.7 1921.71,1159.84 1923.76,1183.21 1925.82,1160.29 1927.87,1160.42 1929.92,1189.04 1931.97,1041.48 1934.03,1181.12 1936.08,1246.77 1938.13,1248.53 1940.19,1176.7 1942.24,1164.74 1944.29,1180.79 1946.34,1017.79 1948.4,1171.91 1950.45,1182.26 1952.5,1202.2 1954.56,1150.36 1956.61,1195.24 1958.66,1180.6 1960.72,1160.24 1962.77,1089.19 1964.82,1159.68 1966.87,1115.24 1968.93,1177.83 1970.98,1129.62 1973.03,1118.35 1975.09,1084.96 1977.14,1157.32 1979.19,1153.44 1981.24,1150.5 1983.3,1104.25 1985.35,1167.99 1987.4,1130.29 1989.46,1249.97 1991.51,1198.03 1993.56,1189.31 1995.61,1168.78 1997.67,1190.02 1999.72,1258.88 2001.77,1134.47 2003.83,1181.28 2005.88,1162.01 2007.93,1180.38 2009.98,1244.62 2012.04,1123.65 2014.09,1143.37 2016.14,1079.97 2018.2,1204.78 2020.25,1063.34 2022.3,1232.61 2024.35,1312.24 2026.41,1385.63 2028.46,939.565 2030.51,1278.61 2032.57,1215.1 2034.62,1118.78 2036.67,1185.54 2038.73,1182 2040.78,1199.86 2042.83,1154.43 2044.88,1144.78 2046.94,1174.35 2048.99,1152.86 2051.04,1170.5 2053.1,1173.1 2055.15,1101.64 2057.2,1225.94 2059.25,1432.12 2061.31,763.038 2063.36,1031.81 2065.41,1047.55 2067.47,1288.17 2069.52,1303.73 2071.57,1374.64 2073.62,986.874 2075.68,1009.64 2077.73,1200.71 2079.78,1184.84 2081.84,1157.14 2083.89,1159.63 2085.94,1133.32 2087.99,1276.39 2090.05,1218.65 2092.1,1193.8 2094.15,1159.57 2096.21,1126.01 2098.26,1262.12 2100.31,1298.65 2102.36,1141.8 2104.42,1191.21 2106.47,1118.67 2108.52,1107.95 2110.58,1170 2112.63,1196.62 2114.68,1183.05 2116.73,1081.57 2118.79,1090.16 2120.84,1219.08 2122.89,1205.22 2124.95,1198.63 2127,1144.75 2129.05,1257.41 2131.11,1238.58 2133.16,1208.13 2135.21,1180.01 2137.26,1114.68 2139.32,1153.84 2141.37,1058.67 2143.42,1082.85 2145.48,947.115 2147.53,1305.14 2149.58,1431.63 2151.63,1534.47 2153.69,720.2 2155.74,-86.1937 2157.79,-2357.07 2159.85,6267.07 2161.9,2622.62 2163.95,969.832 2166,1151.06 2168.06,1189.99 2170.11,1158.28 2172.16,1117.46 2174.22,1141.69 2176.27,1157.46 2178.32,1196.99 2180.37,1125.35 2182.43,1136.74 2184.48,1129.74 2186.53,1163.53 2188.59,1193.15 2190.64,1151.68 2192.69,1128.07 2194.74,1174.59 2196.8,1164.77 2198.85,1165.5 2200.9,1155 2202.96,1162.21 2205.01,1258.76 2207.06,1206.65 2209.12,1139.63 2211.17,1156.32 2213.22,1121.73 2215.27,1189.97 2217.33,1209.45 2219.38,1133.17 2221.43,1008.81 2223.49,1189.74 2225.54,1107.08 2227.59,1131.27 2229.64,1159.64 2231.7,1198.79 2233.75,1239.59 2235.8,1178.35 2237.86,1215.94 2239.91,1177.68 2241.96,1304.3 2244.01,1360.59 2246.07,796.389 2248.12,1111.97 2250.17,1313.14 2252.23,1055.07 2254.28,1061.26 2256.33,1218.24 2258.38,1251.67 2260.44,1109.98 2262.49,1102.41 2264.54,1140.83 2266.6,993.923 2268.65,1289.14 2270.7,2978 2272.75,1618.2 2274.81,1155.84 2276.86,1147.1 2278.91,1125.4 2280.97,1154.5 2283.02,1147.74 2285.07,1187.03 2287.12,1189.1 2289.18,1172.57 2291.23,1152.46 "/>
<path clip-path="url(#clip810)" d="M1942.7 972.231 L2280.29 972.231 L2280.29 868.551 L1942.7 868.551  Z" fill="#ffffff" fill-rule="evenodd" fill-opacity="1"/>
<polyline clip-path="url(#clip810)" style="stroke:#000000; stroke-linecap:round; stroke-linejoin:round; stroke-width:4; stroke-opacity:1; fill:none" points="1942.7,972.231 2280.29,972.231 2280.29,868.551 1942.7,868.551 1942.7,972.231 "/>
<polyline clip-path="url(#clip810)" style="stroke:#009af9; stroke-linecap:round; stroke-linejoin:round; stroke-width:4; stroke-opacity:1; fill:none" points="1966.85,920.391 2111.78,920.391 "/>
<path clip-path="url(#clip810)" d="M2161.49 932.74 L2161.49 923.458 L2153.85 923.458 L2153.85 919.615 L2166.12 919.615 L2166.12 934.453 Q2163.41 936.375 2160.14 937.37 Q2156.88 938.342 2153.18 938.342 Q2145.07 938.342 2140.49 933.62 Q2135.93 928.875 2135.93 920.426 Q2135.93 911.953 2140.49 907.231 Q2145.07 902.486 2153.18 902.486 Q2156.56 902.486 2159.59 903.319 Q2162.64 904.153 2165.21 905.773 L2165.21 910.75 Q2162.62 908.551 2159.7 907.44 Q2156.79 906.328 2153.57 906.328 Q2147.23 906.328 2144.03 909.87 Q2140.86 913.412 2140.86 920.426 Q2140.86 927.416 2144.03 930.958 Q2147.23 934.5 2153.57 934.5 Q2156.05 934.5 2157.99 934.083 Q2159.94 933.643 2161.49 932.74 Z" fill="#000000" fill-rule="nonzero" fill-opacity="1" /><path clip-path="url(#clip810)" d="M2179.33 906.953 L2179.33 919.94 L2185.21 919.94 Q2188.48 919.94 2190.26 918.25 Q2192.04 916.56 2192.04 913.435 Q2192.04 910.333 2190.26 908.643 Q2188.48 906.953 2185.21 906.953 L2179.33 906.953 M2174.66 903.111 L2185.21 903.111 Q2191.02 903.111 2193.99 905.75 Q2196.97 908.365 2196.97 913.435 Q2196.97 918.551 2193.99 921.166 Q2191.02 923.782 2185.21 923.782 L2179.33 923.782 L2179.33 937.671 L2174.66 937.671 L2174.66 903.111 Z" fill="#000000" fill-rule="nonzero" fill-opacity="1" /><path clip-path="url(#clip810)" d="M2223.96 904.245 L2223.96 908.805 Q2221.3 907.532 2218.94 906.907 Q2216.58 906.282 2214.38 906.282 Q2210.56 906.282 2208.48 907.764 Q2206.42 909.245 2206.42 911.977 Q2206.42 914.268 2207.78 915.449 Q2209.17 916.606 2213.01 917.324 L2215.84 917.902 Q2221.07 918.898 2223.55 921.421 Q2226.05 923.921 2226.05 928.134 Q2226.05 933.157 2222.67 935.75 Q2219.31 938.342 2212.81 938.342 Q2210.35 938.342 2207.57 937.787 Q2204.82 937.231 2201.86 936.143 L2201.86 931.328 Q2204.7 932.926 2207.44 933.736 Q2210.17 934.546 2212.81 934.546 Q2216.81 934.546 2218.99 932.972 Q2221.16 931.398 2221.16 928.481 Q2221.16 925.935 2219.59 924.5 Q2218.04 923.064 2214.47 922.347 L2211.62 921.791 Q2206.39 920.75 2204.06 918.527 Q2201.72 916.305 2201.72 912.347 Q2201.72 907.764 2204.94 905.125 Q2208.18 902.486 2213.85 902.486 Q2216.28 902.486 2218.8 902.926 Q2221.32 903.366 2223.96 904.245 Z" fill="#000000" fill-rule="nonzero" fill-opacity="1" /><path clip-path="url(#clip810)" d="M2254.06 904.245 L2254.06 908.805 Q2251.39 907.532 2249.03 906.907 Q2246.67 906.282 2244.47 906.282 Q2240.65 906.282 2238.57 907.764 Q2236.51 909.245 2236.51 911.977 Q2236.51 914.268 2237.87 915.449 Q2239.26 916.606 2243.11 917.324 L2245.93 917.902 Q2251.16 918.898 2253.64 921.421 Q2256.14 923.921 2256.14 928.134 Q2256.14 933.157 2252.76 935.75 Q2249.4 938.342 2242.9 938.342 Q2240.44 938.342 2237.67 937.787 Q2234.91 937.231 2231.95 936.143 L2231.95 931.328 Q2234.8 932.926 2237.53 933.736 Q2240.26 934.546 2242.9 934.546 Q2246.9 934.546 2249.08 932.972 Q2251.25 931.398 2251.25 928.481 Q2251.25 925.935 2249.68 924.5 Q2248.13 923.064 2244.56 922.347 L2241.72 921.791 Q2236.49 920.75 2234.15 918.527 Q2231.81 916.305 2231.81 912.347 Q2231.81 907.764 2235.03 905.125 Q2238.27 902.486 2243.94 902.486 Q2246.37 902.486 2248.89 902.926 Q2251.42 903.366 2254.06 904.245 Z" fill="#000000" fill-rule="nonzero" fill-opacity="1" /></svg>
