<?xml version="1.0" encoding="utf-8"?>
<svg xmlns="http://www.w3.org/2000/svg" xmlns:xlink="http://www.w3.org/1999/xlink" width="600" height="400" viewBox="0 0 2400 1600">
<defs>
  <clipPath id="clip030">
    <rect x="0" y="0" width="2400" height="1600"/>
  </clipPath>
</defs>
<path clip-path="url(#clip030)" d="M0 1600 L2400 1600 L2400 0 L0 0  Z" fill="#ffffff" fill-rule="evenodd" fill-opacity="1"/>
<defs>
  <clipPath id="clip031">
    <rect x="480" y="0" width="1681" height="1600"/>
  </clipPath>
</defs>
<path clip-path="url(#clip030)" d="M178.867 686.448 L2352.76 686.448 L2352.76 47.2441 L178.867 47.2441  Z" fill="#ffffff" fill-rule="evenodd" fill-opacity="1"/>
<defs>
  <clipPath id="clip032">
    <rect x="178" y="47" width="2175" height="640"/>
  </clipPath>
</defs>
<polyline clip-path="url(#clip032)" style="stroke:#000000; stroke-linecap:round; stroke-linejoin:round; stroke-width:2; stroke-opacity:0.1; fill:none" points="238.339,686.448 238.339,47.2441 "/>
<polyline clip-path="url(#clip032)" style="stroke:#000000; stroke-linecap:round; stroke-linejoin:round; stroke-width:2; stroke-opacity:0.1; fill:none" points="751.562,686.448 751.562,47.2441 "/>
<polyline clip-path="url(#clip032)" style="stroke:#000000; stroke-linecap:round; stroke-linejoin:round; stroke-width:2; stroke-opacity:0.1; fill:none" points="1264.78,686.448 1264.78,47.2441 "/>
<polyline clip-path="url(#clip032)" style="stroke:#000000; stroke-linecap:round; stroke-linejoin:round; stroke-width:2; stroke-opacity:0.1; fill:none" points="1778.01,686.448 1778.01,47.2441 "/>
<polyline clip-path="url(#clip032)" style="stroke:#000000; stroke-linecap:round; stroke-linejoin:round; stroke-width:2; stroke-opacity:0.1; fill:none" points="2291.23,686.448 2291.23,47.2441 "/>
<polyline clip-path="url(#clip032)" style="stroke:#000000; stroke-linecap:round; stroke-linejoin:round; stroke-width:2; stroke-opacity:0.1; fill:none" points="178.867,686.448 2352.76,686.448 "/>
<polyline clip-path="url(#clip032)" style="stroke:#000000; stroke-linecap:round; stroke-linejoin:round; stroke-width:2; stroke-opacity:0.1; fill:none" points="178.867,526.647 2352.76,526.647 "/>
<polyline clip-path="url(#clip032)" style="stroke:#000000; stroke-linecap:round; stroke-linejoin:round; stroke-width:2; stroke-opacity:0.1; fill:none" points="178.867,366.846 2352.76,366.846 "/>
<polyline clip-path="url(#clip032)" style="stroke:#000000; stroke-linecap:round; stroke-linejoin:round; stroke-width:2; stroke-opacity:0.1; fill:none" points="178.867,207.045 2352.76,207.045 "/>
<polyline clip-path="url(#clip032)" style="stroke:#000000; stroke-linecap:round; stroke-linejoin:round; stroke-width:2; stroke-opacity:0.1; fill:none" points="178.867,47.2441 2352.76,47.2441 "/>
<polyline clip-path="url(#clip030)" style="stroke:#000000; stroke-linecap:round; stroke-linejoin:round; stroke-width:4; stroke-opacity:1; fill:none" points="178.867,686.448 2352.76,686.448 "/>
<polyline clip-path="url(#clip030)" style="stroke:#000000; stroke-linecap:round; stroke-linejoin:round; stroke-width:4; stroke-opacity:1; fill:none" points="238.339,686.448 238.339,667.55 "/>
<polyline clip-path="url(#clip030)" style="stroke:#000000; stroke-linecap:round; stroke-linejoin:round; stroke-width:4; stroke-opacity:1; fill:none" points="751.562,686.448 751.562,667.55 "/>
<polyline clip-path="url(#clip030)" style="stroke:#000000; stroke-linecap:round; stroke-linejoin:round; stroke-width:4; stroke-opacity:1; fill:none" points="1264.78,686.448 1264.78,667.55 "/>
<polyline clip-path="url(#clip030)" style="stroke:#000000; stroke-linecap:round; stroke-linejoin:round; stroke-width:4; stroke-opacity:1; fill:none" points="1778.01,686.448 1778.01,667.55 "/>
<polyline clip-path="url(#clip030)" style="stroke:#000000; stroke-linecap:round; stroke-linejoin:round; stroke-width:4; stroke-opacity:1; fill:none" points="2291.23,686.448 2291.23,667.55 "/>
<path clip-path="url(#clip030)" d="M238.339 717.367 Q234.728 717.367 232.899 720.931 Q231.094 724.473 231.094 731.603 Q231.094 738.709 232.899 742.274 Q234.728 745.815 238.339 745.815 Q241.973 745.815 243.779 742.274 Q245.607 738.709 245.607 731.603 Q245.607 724.473 243.779 720.931 Q241.973 717.367 238.339 717.367 M238.339 713.663 Q244.149 713.663 247.205 718.269 Q250.283 722.853 250.283 731.603 Q250.283 740.329 247.205 744.936 Q244.149 749.519 238.339 749.519 Q232.529 749.519 229.45 744.936 Q226.395 740.329 226.395 731.603 Q226.395 722.853 229.45 718.269 Q232.529 713.663 238.339 713.663 Z" fill="#000000" fill-rule="nonzero" fill-opacity="1" /><path clip-path="url(#clip030)" d="M715.254 744.913 L731.574 744.913 L731.574 748.848 L709.629 748.848 L709.629 744.913 Q712.291 742.158 716.875 737.528 Q721.481 732.876 722.662 731.533 Q724.907 729.01 725.787 727.274 Q726.689 725.515 726.689 723.825 Q726.689 721.07 724.745 719.334 Q722.824 717.598 719.722 717.598 Q717.523 717.598 715.069 718.362 Q712.638 719.126 709.861 720.677 L709.861 715.955 Q712.685 714.82 715.138 714.242 Q717.592 713.663 719.629 713.663 Q725 713.663 728.194 716.348 Q731.388 719.033 731.388 723.524 Q731.388 725.654 730.578 727.575 Q729.791 729.473 727.685 732.066 Q727.106 732.737 724.004 735.954 Q720.902 739.149 715.254 744.913 Z" fill="#000000" fill-rule="nonzero" fill-opacity="1" /><path clip-path="url(#clip030)" d="M741.435 714.288 L759.791 714.288 L759.791 718.223 L745.717 718.223 L745.717 726.695 Q746.736 726.348 747.754 726.186 Q748.773 726.001 749.791 726.001 Q755.578 726.001 758.958 729.172 Q762.337 732.343 762.337 737.76 Q762.337 743.339 758.865 746.44 Q755.393 749.519 749.073 749.519 Q746.898 749.519 744.629 749.149 Q742.384 748.778 739.976 748.038 L739.976 743.339 Q742.06 744.473 744.282 745.028 Q746.504 745.584 748.981 745.584 Q752.985 745.584 755.323 743.478 Q757.661 741.371 757.661 737.76 Q757.661 734.149 755.323 732.042 Q752.985 729.936 748.981 729.936 Q747.106 729.936 745.231 730.353 Q743.379 730.769 741.435 731.649 L741.435 714.288 Z" fill="#000000" fill-rule="nonzero" fill-opacity="1" /><path clip-path="url(#clip030)" d="M781.55 717.367 Q777.939 717.367 776.11 720.931 Q774.305 724.473 774.305 731.603 Q774.305 738.709 776.11 742.274 Q777.939 745.815 781.55 745.815 Q785.184 745.815 786.99 742.274 Q788.819 738.709 788.819 731.603 Q788.819 724.473 786.99 720.931 Q785.184 717.367 781.55 717.367 M781.55 713.663 Q787.36 713.663 790.416 718.269 Q793.495 722.853 793.495 731.603 Q793.495 740.329 790.416 744.936 Q787.36 749.519 781.55 749.519 Q775.74 749.519 772.661 744.936 Q769.606 740.329 769.606 731.603 Q769.606 722.853 772.661 718.269 Q775.74 713.663 781.55 713.663 Z" fill="#000000" fill-rule="nonzero" fill-opacity="1" /><path clip-path="url(#clip030)" d="M1224.4 714.288 L1242.76 714.288 L1242.76 718.223 L1228.69 718.223 L1228.69 726.695 Q1229.7 726.348 1230.72 726.186 Q1231.74 726.001 1232.76 726.001 Q1238.55 726.001 1241.93 729.172 Q1245.31 732.343 1245.31 737.76 Q1245.31 743.339 1241.83 746.44 Q1238.36 749.519 1232.04 749.519 Q1229.87 749.519 1227.6 749.149 Q1225.35 748.778 1222.94 748.038 L1222.94 743.339 Q1225.03 744.473 1227.25 745.028 Q1229.47 745.584 1231.95 745.584 Q1235.95 745.584 1238.29 743.478 Q1240.63 741.371 1240.63 737.76 Q1240.63 734.149 1238.29 732.042 Q1235.95 729.936 1231.95 729.936 Q1230.07 729.936 1228.2 730.353 Q1226.35 730.769 1224.4 731.649 L1224.4 714.288 Z" fill="#000000" fill-rule="nonzero" fill-opacity="1" /><path clip-path="url(#clip030)" d="M1264.52 717.367 Q1260.91 717.367 1259.08 720.931 Q1257.27 724.473 1257.27 731.603 Q1257.27 738.709 1259.08 742.274 Q1260.91 745.815 1264.52 745.815 Q1268.15 745.815 1269.96 742.274 Q1271.79 738.709 1271.79 731.603 Q1271.79 724.473 1269.96 720.931 Q1268.15 717.367 1264.52 717.367 M1264.52 713.663 Q1270.33 713.663 1273.38 718.269 Q1276.46 722.853 1276.46 731.603 Q1276.46 740.329 1273.38 744.936 Q1270.33 749.519 1264.52 749.519 Q1258.71 749.519 1255.63 744.936 Q1252.57 740.329 1252.57 731.603 Q1252.57 722.853 1255.63 718.269 Q1258.71 713.663 1264.52 713.663 Z" fill="#000000" fill-rule="nonzero" fill-opacity="1" /><path clip-path="url(#clip030)" d="M1294.68 717.367 Q1291.07 717.367 1289.24 720.931 Q1287.44 724.473 1287.44 731.603 Q1287.44 738.709 1289.24 742.274 Q1291.07 745.815 1294.68 745.815 Q1298.31 745.815 1300.12 742.274 Q1301.95 738.709 1301.95 731.603 Q1301.95 724.473 1300.12 720.931 Q1298.31 717.367 1294.68 717.367 M1294.68 713.663 Q1300.49 713.663 1303.55 718.269 Q1306.62 722.853 1306.62 731.603 Q1306.62 740.329 1303.55 744.936 Q1300.49 749.519 1294.68 749.519 Q1288.87 749.519 1285.79 744.936 Q1282.74 740.329 1282.74 731.603 Q1282.74 722.853 1285.79 718.269 Q1288.87 713.663 1294.68 713.663 Z" fill="#000000" fill-rule="nonzero" fill-opacity="1" /><path clip-path="url(#clip030)" d="M1736.28 714.288 L1758.51 714.288 L1758.51 716.279 L1745.96 748.848 L1741.08 748.848 L1752.88 718.223 L1736.28 718.223 L1736.28 714.288 Z" fill="#000000" fill-rule="nonzero" fill-opacity="1" /><path clip-path="url(#clip030)" d="M1767.67 714.288 L1786.03 714.288 L1786.03 718.223 L1771.95 718.223 L1771.95 726.695 Q1772.97 726.348 1773.99 726.186 Q1775.01 726.001 1776.03 726.001 Q1781.82 726.001 1785.2 729.172 Q1788.57 732.343 1788.57 737.76 Q1788.57 743.339 1785.1 746.44 Q1781.63 749.519 1775.31 749.519 Q1773.14 749.519 1770.87 749.149 Q1768.62 748.778 1766.21 748.038 L1766.21 743.339 Q1768.3 744.473 1770.52 745.028 Q1772.74 745.584 1775.22 745.584 Q1779.22 745.584 1781.56 743.478 Q1783.9 741.371 1783.9 737.76 Q1783.9 734.149 1781.56 732.042 Q1779.22 729.936 1775.22 729.936 Q1773.34 729.936 1771.47 730.353 Q1769.62 730.769 1767.67 731.649 L1767.67 714.288 Z" fill="#000000" fill-rule="nonzero" fill-opacity="1" /><path clip-path="url(#clip030)" d="M1807.79 717.367 Q1804.18 717.367 1802.35 720.931 Q1800.54 724.473 1800.54 731.603 Q1800.54 738.709 1802.35 742.274 Q1804.18 745.815 1807.79 745.815 Q1811.42 745.815 1813.23 742.274 Q1815.06 738.709 1815.06 731.603 Q1815.06 724.473 1813.23 720.931 Q1811.42 717.367 1807.79 717.367 M1807.79 713.663 Q1813.6 713.663 1816.65 718.269 Q1819.73 722.853 1819.73 731.603 Q1819.73 740.329 1816.65 744.936 Q1813.6 749.519 1807.79 749.519 Q1801.98 749.519 1798.9 744.936 Q1795.84 740.329 1795.84 731.603 Q1795.84 722.853 1798.9 718.269 Q1801.98 713.663 1807.79 713.663 Z" fill="#000000" fill-rule="nonzero" fill-opacity="1" /><path clip-path="url(#clip030)" d="M2235.76 744.913 L2243.4 744.913 L2243.4 718.547 L2235.09 720.214 L2235.09 715.955 L2243.35 714.288 L2248.02 714.288 L2248.02 744.913 L2255.66 744.913 L2255.66 748.848 L2235.76 748.848 L2235.76 744.913 Z" fill="#000000" fill-rule="nonzero" fill-opacity="1" /><path clip-path="url(#clip030)" d="M2275.11 717.367 Q2271.5 717.367 2269.67 720.931 Q2267.86 724.473 2267.86 731.603 Q2267.86 738.709 2269.67 742.274 Q2271.5 745.815 2275.11 745.815 Q2278.74 745.815 2280.55 742.274 Q2282.38 738.709 2282.38 731.603 Q2282.38 724.473 2280.55 720.931 Q2278.74 717.367 2275.11 717.367 M2275.11 713.663 Q2280.92 713.663 2283.97 718.269 Q2287.05 722.853 2287.05 731.603 Q2287.05 740.329 2283.97 744.936 Q2280.92 749.519 2275.11 749.519 Q2269.3 749.519 2266.22 744.936 Q2263.16 740.329 2263.16 731.603 Q2263.16 722.853 2266.22 718.269 Q2269.3 713.663 2275.11 713.663 Z" fill="#000000" fill-rule="nonzero" fill-opacity="1" /><path clip-path="url(#clip030)" d="M2305.27 717.367 Q2301.66 717.367 2299.83 720.931 Q2298.02 724.473 2298.02 731.603 Q2298.02 738.709 2299.83 742.274 Q2301.66 745.815 2305.27 745.815 Q2308.9 745.815 2310.71 742.274 Q2312.54 738.709 2312.54 731.603 Q2312.54 724.473 2310.71 720.931 Q2308.9 717.367 2305.27 717.367 M2305.27 713.663 Q2311.08 713.663 2314.14 718.269 Q2317.21 722.853 2317.21 731.603 Q2317.21 740.329 2314.14 744.936 Q2311.08 749.519 2305.27 749.519 Q2299.46 749.519 2296.38 744.936 Q2293.33 740.329 2293.33 731.603 Q2293.33 722.853 2296.38 718.269 Q2299.46 713.663 2305.27 713.663 Z" fill="#000000" fill-rule="nonzero" fill-opacity="1" /><path clip-path="url(#clip030)" d="M2335.43 717.367 Q2331.82 717.367 2329.99 720.931 Q2328.19 724.473 2328.19 731.603 Q2328.19 738.709 2329.99 742.274 Q2331.82 745.815 2335.43 745.815 Q2339.07 745.815 2340.87 742.274 Q2342.7 738.709 2342.7 731.603 Q2342.7 724.473 2340.87 720.931 Q2339.07 717.367 2335.43 717.367 M2335.43 713.663 Q2341.24 713.663 2344.3 718.269 Q2347.38 722.853 2347.38 731.603 Q2347.38 740.329 2344.3 744.936 Q2341.24 749.519 2335.43 749.519 Q2329.62 749.519 2326.54 744.936 Q2323.49 740.329 2323.49 731.603 Q2323.49 722.853 2326.54 718.269 Q2329.62 713.663 2335.43 713.663 Z" fill="#000000" fill-rule="nonzero" fill-opacity="1" /><polyline clip-path="url(#clip030)" style="stroke:#000000; stroke-linecap:round; stroke-linejoin:round; stroke-width:4; stroke-opacity:1; fill:none" points="178.867,686.448 178.867,47.2441 "/>
<polyline clip-path="url(#clip030)" style="stroke:#000000; stroke-linecap:round; stroke-linejoin:round; stroke-width:4; stroke-opacity:1; fill:none" points="178.867,686.448 197.764,686.448 "/>
<polyline clip-path="url(#clip030)" style="stroke:#000000; stroke-linecap:round; stroke-linejoin:round; stroke-width:4; stroke-opacity:1; fill:none" points="178.867,526.647 197.764,526.647 "/>
<polyline clip-path="url(#clip030)" style="stroke:#000000; stroke-linecap:round; stroke-linejoin:round; stroke-width:4; stroke-opacity:1; fill:none" points="178.867,366.846 197.764,366.846 "/>
<polyline clip-path="url(#clip030)" style="stroke:#000000; stroke-linecap:round; stroke-linejoin:round; stroke-width:4; stroke-opacity:1; fill:none" points="178.867,207.045 197.764,207.045 "/>
<polyline clip-path="url(#clip030)" style="stroke:#000000; stroke-linecap:round; stroke-linejoin:round; stroke-width:4; stroke-opacity:1; fill:none" points="178.867,47.2441 197.764,47.2441 "/>
<path clip-path="url(#clip030)" d="M50.9921 686.899 L80.6679 686.899 L80.6679 690.834 L50.9921 690.834 L50.9921 686.899 Z" fill="#000000" fill-rule="nonzero" fill-opacity="1" /><path clip-path="url(#clip030)" d="M91.5706 699.793 L99.2095 699.793 L99.2095 673.427 L90.8993 675.094 L90.8993 670.835 L99.1632 669.168 L103.839 669.168 L103.839 699.793 L111.478 699.793 L111.478 703.728 L91.5706 703.728 L91.5706 699.793 Z" fill="#000000" fill-rule="nonzero" fill-opacity="1" /><path clip-path="url(#clip030)" d="M130.922 672.247 Q127.311 672.247 125.482 675.811 Q123.677 679.353 123.677 686.483 Q123.677 693.589 125.482 697.154 Q127.311 700.695 130.922 700.695 Q134.556 700.695 136.362 697.154 Q138.191 693.589 138.191 686.483 Q138.191 679.353 136.362 675.811 Q134.556 672.247 130.922 672.247 M130.922 668.543 Q136.732 668.543 139.788 673.149 Q142.867 677.733 142.867 686.483 Q142.867 695.209 139.788 699.816 Q136.732 704.399 130.922 704.399 Q125.112 704.399 122.033 699.816 Q118.978 695.209 118.978 686.483 Q118.978 677.733 122.033 673.149 Q125.112 668.543 130.922 668.543 Z" fill="#000000" fill-rule="nonzero" fill-opacity="1" /><path clip-path="url(#clip030)" d="M82.1494 527.098 L111.825 527.098 L111.825 531.033 L82.1494 531.033 L82.1494 527.098 Z" fill="#000000" fill-rule="nonzero" fill-opacity="1" /><path clip-path="url(#clip030)" d="M121.964 509.367 L140.32 509.367 L140.32 513.302 L126.246 513.302 L126.246 521.774 Q127.265 521.427 128.283 521.265 Q129.302 521.08 130.32 521.08 Q136.107 521.08 139.487 524.251 Q142.867 527.422 142.867 532.839 Q142.867 538.418 139.394 541.52 Q135.922 544.598 129.603 544.598 Q127.427 544.598 125.158 544.228 Q122.913 543.857 120.506 543.117 L120.506 538.418 Q122.589 539.552 124.811 540.108 Q127.033 540.663 129.51 540.663 Q133.515 540.663 135.853 538.557 Q138.191 536.45 138.191 532.839 Q138.191 529.228 135.853 527.121 Q133.515 525.015 129.51 525.015 Q127.635 525.015 125.76 525.432 Q123.908 525.848 121.964 526.728 L121.964 509.367 Z" fill="#000000" fill-rule="nonzero" fill-opacity="1" /><path clip-path="url(#clip030)" d="M130.922 352.645 Q127.311 352.645 125.482 356.209 Q123.677 359.751 123.677 366.881 Q123.677 373.987 125.482 377.552 Q127.311 381.094 130.922 381.094 Q134.556 381.094 136.362 377.552 Q138.191 373.987 138.191 366.881 Q138.191 359.751 136.362 356.209 Q134.556 352.645 130.922 352.645 M130.922 348.941 Q136.732 348.941 139.788 353.547 Q142.867 358.131 142.867 366.881 Q142.867 375.608 139.788 380.214 Q136.732 384.797 130.922 384.797 Q125.112 384.797 122.033 380.214 Q118.978 375.608 118.978 366.881 Q118.978 358.131 122.033 353.547 Q125.112 348.941 130.922 348.941 Z" fill="#000000" fill-rule="nonzero" fill-opacity="1" /><path clip-path="url(#clip030)" d="M121.964 189.765 L140.32 189.765 L140.32 193.7 L126.246 193.7 L126.246 202.172 Q127.265 201.825 128.283 201.663 Q129.302 201.478 130.32 201.478 Q136.107 201.478 139.487 204.649 Q142.867 207.82 142.867 213.237 Q142.867 218.816 139.394 221.918 Q135.922 224.996 129.603 224.996 Q127.427 224.996 125.158 224.626 Q122.913 224.256 120.506 223.515 L120.506 218.816 Q122.589 219.95 124.811 220.506 Q127.033 221.061 129.51 221.061 Q133.515 221.061 135.853 218.955 Q138.191 216.848 138.191 213.237 Q138.191 209.626 135.853 207.52 Q133.515 205.413 129.51 205.413 Q127.635 205.413 125.76 205.83 Q123.908 206.246 121.964 207.126 L121.964 189.765 Z" fill="#000000" fill-rule="nonzero" fill-opacity="1" /><path clip-path="url(#clip030)" d="M91.5706 60.5889 L99.2095 60.5889 L99.2095 34.2233 L90.8993 35.89 L90.8993 31.6308 L99.1632 29.9641 L103.839 29.9641 L103.839 60.5889 L111.478 60.5889 L111.478 64.5241 L91.5706 64.5241 L91.5706 60.5889 Z" fill="#000000" fill-rule="nonzero" fill-opacity="1" /><path clip-path="url(#clip030)" d="M130.922 33.0428 Q127.311 33.0428 125.482 36.6076 Q123.677 40.1492 123.677 47.2788 Q123.677 54.3853 125.482 57.9501 Q127.311 61.4917 130.922 61.4917 Q134.556 61.4917 136.362 57.9501 Q138.191 54.3853 138.191 47.2788 Q138.191 40.1492 136.362 36.6076 Q134.556 33.0428 130.922 33.0428 M130.922 29.3391 Q136.732 29.3391 139.788 33.9456 Q142.867 38.5289 142.867 47.2788 Q142.867 56.0056 139.788 60.6121 Q136.732 65.1954 130.922 65.1954 Q125.112 65.1954 122.033 60.6121 Q118.978 56.0056 118.978 47.2788 Q118.978 38.5289 122.033 33.9456 Q125.112 29.3391 130.922 29.3391 Z" fill="#000000" fill-rule="nonzero" fill-opacity="1" /><polyline clip-path="url(#clip032)" style="stroke:#009af9; stroke-linecap:round; stroke-linejoin:round; stroke-width:4; stroke-opacity:1; fill:none" points="240.392,334.886 242.445,334.266 244.498,334.123 246.55,339.734 248.603,329.075 250.656,338.013 252.709,338.743 254.762,350.852 256.815,361.076 258.868,359.653 260.921,368 262.974,372.335 265.027,373.585 267.079,390.836 269.132,385.629 271.185,385.461 273.238,386.173 275.291,382.094 277.344,380.585 279.397,380.633 281.45,380.361 283.503,382.391 285.555,383.376 287.608,389.832 289.661,388.956 291.714,388.67 293.767,394.729 295.82,372.243 297.873,372.372 299.926,372.561 301.979,368.524 304.031,368.029 306.084,370.532 308.137,369.703 310.19,370.198 312.243,369.949 314.296,369.892 316.349,367.511 318.402,354.188 320.455,356.968 322.507,365.705 324.56,366.598 326.613,391.001 328.666,398.83 330.719,398.835 332.772,327.3 334.825,328.239 336.878,368.419 338.931,373.129 340.984,388.085 343.036,377.925 345.089,380.332 347.142,336.656 349.195,336.624 351.248,331.984 353.301,329.957 355.354,356.699 357.407,355.499 359.46,355.525 361.512,363.621 363.565,349.373 365.618,349.445 367.671,350.729 369.724,350.419 371.777,350.289 373.83,355.985 375.883,356.256 377.936,356.097 379.988,357.397 382.041,360.718 384.094,359.595 386.147,372.946 388.2,380.731 390.253,380.727 392.306,355.966 394.359,356.817 396.412,357.836 398.464,359.025 400.517,355.302 402.57,364.757 404.623,387.984 406.676,395.297 408.729,376.169 410.782,376.323 412.835,373.622 414.888,354.09 416.94,353.953 418.993,365.254 421.046,361.754 423.099,361.422 425.152,361.008 427.205,361.009 429.258,356.491 431.311,356.481 433.364,359.934 435.417,359.817 437.469,359.761 439.522,378.207 441.575,381.242 443.628,381.248 445.681,361.429 447.734,361.329 449.787,372.728 451.84,348.52 453.893,382.317 455.945,379.849 457.998,387.775 460.051,388.189 462.104,388.395 464.157,388.454 466.21,386.745 468.263,386.454 470.316,386.396 472.369,373.901 474.421,374.193 476.474,373.966 478.527,375.481 480.58,374.412 482.633,386.799 484.686,365.63 486.739,366.329 488.792,362.604 490.845,360.059 492.897,374.923 494.95,374.418 497.003,374.672 499.056,374.738 501.109,373.928 503.162,373.616 505.215,373.836 507.268,373.933 509.321,374.5 511.374,361.404 513.426,361.453 515.479,361.525 517.532,362.103 519.585,360.742 521.638,360.796 523.691,360.879 525.744,334.942 527.797,335.396 529.85,372.37 531.902,369.5 533.955,369.482 536.008,378.841 538.061,379.051 540.114,376.289 542.167,378.264 544.22,372.756 546.273,354.335 548.326,353.67 550.378,357.291 552.431,360.029 554.484,361.035 556.537,360.443 558.59,358.775 560.643,357.655 562.696,357.895 564.749,356.921 566.802,363.883 568.854,349.09 570.907,356.127 572.96,363.329 575.013,358.169 577.066,350.68 579.119,350.448 581.172,340.128 583.225,339.827 585.278,339.896 587.331,328.692 589.383,330.156 591.436,329.463 593.489,337.334 595.542,330.013 597.595,333.358 599.648,331.665 601.701,316.355 603.754,313.098 605.807,319.461 607.859,319.163 609.912,318.826 611.965,319.084 614.018,325.358 616.071,326.723 618.124,326.445 620.177,325.686 622.23,341.762 624.283,365.162 626.335,365.039 628.388,365.128 630.441,369.737 632.494,368.617 634.547,368.468 636.6,364.004 638.653,363.926 640.706,361.704 642.759,361.636 644.811,340.607 646.864,345.918 648.917,346.743 650.97,374.855 653.023,371.331 655.076,359.498 657.129,340.565 659.182,340.651 661.235,346.143 663.288,343.099 665.34,343.434 667.393,346.409 669.446,346.31 671.499,344.023 673.552,347.935 675.605,358.168 677.658,378.744 679.711,367.315 681.764,368.383 683.816,348.469 685.869,355.914 687.922,345.6 689.975,349.061 692.028,349.008 694.081,351.606 696.134,351.12 698.187,350.736 700.24,353.569 702.292,350.884 704.345,357.197 706.398,351.173 708.451,347.142 710.504,347.042 712.557,346.995 714.61,345.655 716.663,345.844 718.716,337.137 720.768,374.98 722.821,372.851 724.874,373.895 726.927,360.495 728.98,359.995 731.033,359.895 733.086,358.38 735.139,359.937 737.192,360.365 739.245,360.364 741.297,358.007 743.35,362.106 745.403,379.053 747.456,411.102 749.509,408.762 751.562,385.582 753.615,330.511 755.668,359.104 757.721,371.776 759.773,371.841 761.826,361.411 763.879,360.94 765.932,364.708 767.985,364.598 770.038,366.776 772.091,368.855 774.144,368.801 776.197,368.694 778.249,368.118 780.302,366.801 782.355,366.809 784.408,359.655 786.461,358.425 788.514,358.597 790.567,358.301 792.62,359.318 794.673,333.942 796.725,382.95 798.778,384.692 800.831,377.32 802.884,373.522 804.937,375.173 806.99,363.296 809.043,363.899 811.096,369.935 813.149,358.226 815.202,358.229 817.254,357.415 819.307,373.593 821.36,364.724 823.413,367.128 825.466,366.998 827.519,367.95 829.572,350.024 831.625,348.402 833.678,347.758 835.73,348.004 837.783,333.648 839.836,333.42 841.889,339.794 843.942,339.681 845.995,382.81 848.048,381.6 850.101,381.95 852.154,379.874 854.206,348.749 856.259,351.283 858.312,365.789 860.365,363.45 862.418,396.49 864.471,416.829 866.524,417.436 868.577,417.695 870.63,417.649 872.682,416.488 874.735,351.547 876.788,349.336 878.841,414.633 880.894,409.672 882.947,409.722 885,414.688 887.053,467.799 889.106,430.454 891.159,432.403 893.211,416.118 895.264,415.925 897.317,428.356 899.37,428.344 901.423,448.922 903.476,446.335 905.529,444.783 907.582,442.814 909.635,444.396 911.687,367.199 913.74,369.151 915.793,415.136 917.846,463.589 919.899,410.944 921.952,358.843 924.005,361.76 926.058,409.702 928.111,421.815 930.163,424.985 932.216,497.13 934.269,419.558 936.322,435.207 938.375,407.24 940.428,349.195 942.481,383.011 944.534,373.224 946.587,372.962 948.639,384.079 950.692,304.568 952.745,332.531 954.798,318.672 956.851,331.811 958.904,326.381 960.957,319.976 963.01,288.306 965.063,292.712 967.116,324.407 969.168,324.759 971.221,326.079 973.274,328.177 975.327,378.55 977.38,350.998 979.433,367.526 981.486,362.941 983.539,377.867 985.592,402.02 987.644,529.981 989.697,372.02 991.75,389.263 993.803,432.689 995.856,383.506 997.909,573.852 999.962,585.23 1002.01,537.35 1004.07,419.778 1006.12,459.081 1008.17,319.624 1010.23,319.971 1012.28,214.264 1014.33,208.505 1016.38,226.713 1018.44,458.251 1020.49,413.042 1022.54,407.817 1024.6,408.172 1026.65,428.857 1028.7,416.456 1030.76,416.509 1032.81,333.557 1034.86,332.332 1036.91,423.183 1038.97,423.044 1041.02,419.612 1043.07,576.199 1045.13,577.365 1047.18,460.76 1049.23,438.561 1051.28,456.287 1053.34,241.06 1055.39,376.282 1057.44,376.536 1059.5,565.549 1061.55,701.183 1063.6,836.902 1065.65,764.042 1067.71,841.431 1069.76,826.067 1071.81,815.683 1073.87,887.514 1075.92,602.216 1077.97,954.441 1080.02,1073.49 1082.08,1108.91 1084.13,1108.33 1086.18,1104.42 1088.24,949.147 1090.29,478.949 1092.34,197.09 1094.39,197.757 1096.45,325.91 1098.5,336.763 1100.55,617.861 1102.61,615.202 1104.66,550.518 1106.71,561.701 1108.77,580.495 1110.82,587.38 1112.87,634.993 1114.92,1123.82 1116.98,1037.48 1119.03,1034.91 1121.08,994.096 1123.14,857.083 1125.19,855.473 1127.24,859.682 1129.29,857.178 1131.35,795.928 1133.4,915.844 1135.45,931.306 1137.51,980.145 1139.56,930.008 1141.61,804.875 1143.66,407.738 1145.72,891.325 1147.77,902.783 1149.82,1756.21 1151.88,1368.71 1153.93,1437.38 1155.98,1448.19 1158.03,1537.49 1160.09,866.95 1162.14,1781.39 1164.19,2146.81 1166.25,2002.77 1168.3,1832.36 1170.35,1888.37 1172.4,1515.61 1174.46,1480.36 1176.51,1953.4 1178.56,1862.19 1180.62,1666.39 1182.67,1809.28 1184.72,1652.64 1186.77,1660.66 1188.83,1643.13 1190.88,1663.15 1192.93,1249.09 1194.99,1119.1 1197.04,904.101 1199.09,818.799 1201.15,1118.6 1203.2,1170.86 1205.25,1430.28 1207.3,1296.05 1209.36,974.375 1211.41,1196.96 1213.46,1328.25 1215.52,1329.19 1217.57,1061.2 1219.62,1123.93 1221.67,1228.78 1223.73,1336.11 1225.78,1529.33 1227.83,1669.68 1229.89,1844.65 1231.94,1752.77 1233.99,1775.09 1236.04,1482.63 1238.1,1214.74 1240.15,1020.47 1242.2,826.944 1244.26,738.621 1246.31,690.258 1248.36,746.454 1250.41,769.133 1252.47,786.691 1254.52,1864.67 1256.57,1794.45 1258.63,1772.22 1260.68,1904.19 1262.73,1902.61 1264.78,1833.52 1266.84,1398.34 1268.89,1057.86 1270.94,1399.72 1273,1799.46 1275.05,845.162 1277.1,707.88 1279.16,782.179 1281.21,526.432 1283.26,491.227 1285.31,562.359 1287.37,116.718 1289.42,460.819 1291.47,453.374 1293.53,284.943 1295.58,286.341 1297.63,185.082 1299.68,84.9792 1301.74,56.5588 1303.79,1121.64 1305.84,1226.85 1307.9,257.323 1309.95,602.092 1312,346.162 1314.05,140.262 1316.11,-732.659 1318.16,-1164.16 1320.21,-1170.44 1322.27,-973.381 1324.32,-898.642 1326.37,-889.728 1328.42,-875.141 1330.48,-1096.08 1332.53,-1251.73 1334.58,-1335.12 1336.64,-1426.1 1338.69,-1413.04 1340.74,-1416.17 1342.79,-1267.34 1344.85,-694.613 1346.9,-379.807 1348.95,-58.7523 1351.01,33.1218 1353.06,43.7717 1355.11,-10.442 1357.16,111.378 1359.22,8.31636 1361.27,-78.2587 1363.32,-148.839 1365.38,-42.9884 1367.43,-153.866 1369.48,-250.468 1371.54,-249.626 1373.59,-361.726 1375.64,-284.95 1377.69,-214.106 1379.75,-506.541 1381.8,-545.799 1383.85,-584.181 1385.91,-421.678 1387.96,-248.742 1390.01,-211.586 1392.06,-184.619 1394.12,-190.927 1396.17,-39.7334 1398.22,-188.857 1400.28,-58.8252 1402.33,604.271 1404.38,786.63 1406.43,594.664 1408.49,856.824 1410.54,1038.21 1412.59,1121.06 1414.65,916.179 1416.7,710.054 1418.75,445.572 1420.8,551.629 1422.86,690.363 1424.91,689.044 1426.96,590.448 1429.02,410.897 1431.07,758.917 1433.12,575.43 1435.17,621.837 1437.23,556.544 1439.28,517.657 1441.33,633.217 1443.39,654.379 1445.44,810.96 1447.49,623.703 1449.55,543.74 1451.6,437.211 1453.65,444.879 1455.7,367.904 1457.76,307.917 1459.81,245.338 1461.86,223.885 1463.92,153.244 1465.97,-270.485 1468.02,487.911 1470.07,1044.94 1472.13,900.92 1474.18,824.861 1476.23,979.374 1478.29,1086.95 1480.34,710.415 1482.39,787.607 1484.44,815.296 1486.5,749.622 1488.55,284.944 1490.6,260.622 1492.66,-20.9318 1494.71,-38.7554 1496.76,-457.899 1498.81,-405.711 1500.87,-360.35 1502.92,-491.017 1504.97,-269.651 1507.03,-443.713 1509.08,-448.061 1511.13,-396.474 1513.18,-216.062 1515.24,-300.528 1517.29,-303.12 1519.34,-379.343 1521.4,-352.711 1523.45,-272.786 1525.5,-366.33 1527.55,-433.567 1529.61,-238.234 1531.66,-532.795 1533.71,-540.227 1535.77,-540.122 1537.82,-534.5 1539.87,-465.043 1541.93,-478.634 1543.98,-508.512 1546.03,-453.706 1548.08,-535.473 1550.14,-195.042 1552.19,196.799 1554.24,279.82 1556.3,543.034 1558.35,285.035 1560.4,284.319 1562.45,248.396 1564.51,172.43 1566.56,184.045 1568.61,107.468 1570.67,53.0655 1572.72,122.734 1574.77,133.314 1576.82,131.229 1578.88,645.913 1580.93,696.261 1582.98,698.225 1585.04,566.556 1587.09,529.783 1589.14,536.334 1591.19,535.748 1593.25,534.239 1595.3,532.631 1597.35,533.91 1599.41,589.225 1601.46,507.996 1603.51,591.661 1605.56,583.999 1607.62,574.901 1609.67,162.344 1611.72,-22.2367 1613.78,-17.7342 1615.83,230.155 1617.88,221.945 1619.94,145.939 1621.99,134.216 1624.04,31.6924 1626.09,103.104 1628.15,99.2953 1630.2,111.307 1632.25,115.107 1634.31,406.473 1636.36,541.449 1638.41,521.363 1640.46,519.005 1642.52,610.718 1644.57,597.29 1646.62,438.416 1648.68,203.506 1650.73,223.321 1652.78,192.613 1654.83,108.661 1656.89,86.1152 1658.94,174.057 1660.99,176.52 1663.05,163.44 1665.1,161.826 1667.15,171.805 1669.2,172.299 1671.26,152.568 1673.31,142.228 1675.36,147.363 1677.42,154.406 1679.47,158.448 1681.52,154.977 1683.57,169.266 1685.63,211.551 1687.68,220.01 1689.73,218.882 1691.79,236.83 1693.84,228.222 1695.89,228.14 1697.94,230.224 1700,263.284 1702.05,237.84 1704.1,254.56 1706.16,258.805 1708.21,260.252 1710.26,334.163 1712.32,401.267 1714.37,409.538 1716.42,397.878 1718.47,315.415 1720.53,304.267 1722.58,299.226 1724.63,342.447 1726.69,346.18 1728.74,357.378 1730.79,351.782 1732.84,351.373 1734.9,318.577 1736.95,318.228 1739,334.925 1741.06,336.924 1743.11,438.892 1745.16,437.802 1747.21,376.358 1749.27,373.578 1751.32,373.726 1753.37,329.67 1755.43,318.358 1757.48,353.717 1759.53,350.03 1761.58,331.078 1763.64,332.676 1765.69,328.998 1767.74,241.479 1769.8,308.264 1771.85,307.89 1773.9,320.774 1775.95,348.936 1778.01,356.101 1780.06,349.387 1782.11,367.655 1784.17,355.757 1786.22,356.979 1788.27,358.002 1790.33,357.372 1792.38,359.527 1794.43,359.673 1796.48,359.688 1798.54,366.814 1800.59,367.669 1802.64,370.391 1804.7,370.634 1806.75,367.177 1808.8,367.205 1810.85,372.921 1812.91,373.995 1814.96,373.982 1817.01,358.386 1819.07,358.665 1821.12,325.925 1823.17,341.962 1825.22,342.134 1827.28,360.028 1829.33,359.852 1831.38,410.168 1833.44,437.208 1835.49,342.513 1837.54,335.977 1839.59,335.338 1841.65,422.36 1843.7,427.338 1845.75,423.255 1847.81,419.297 1849.86,414.393 1851.91,401.221 1853.96,401.397 1856.02,393.956 1858.07,388.531 1860.12,388.324 1862.18,388.404 1864.23,389.743 1866.28,367.292 1868.34,382.065 1870.39,429.685 1872.44,432.511 1874.49,341.126 1876.55,369.021 1878.6,368.326 1880.65,297.245 1882.71,297.166 1884.76,294.507 1886.81,298.481 1888.86,306.783 1890.92,321.424 1892.97,326.719 1895.02,329.247 1897.08,328.139 1899.13,268.842 1901.18,268.94 1903.23,268.39 1905.29,285.142 1907.34,310.508 1909.39,294.107 1911.45,349.586 1913.5,337.999 1915.55,338.019 1917.6,328.968 1919.66,331.816 1921.71,336.523 1923.76,335.762 1925.82,308.367 1927.87,309.459 1929.92,310.737 1931.97,306.67 1934.03,393.665 1936.08,382.306 1938.13,370.874 1940.19,364.901 1942.24,318.627 1944.29,308.956 1946.34,261.223 1948.4,317.247 1950.45,327.636 1952.5,365.321 1954.56,336.839 1956.61,351.185 1958.66,367.065 1960.72,349.88 1962.77,364.542 1964.82,399.545 1966.87,393.454 1968.93,354.181 1970.98,357.37 1973.03,355.58 1975.09,377.098 1977.14,377.153 1979.19,377.06 1981.24,345.9 1983.3,345.404 1985.35,346.459 1987.4,347.856 1989.46,348.685 1991.51,366.434 1993.56,367.367 1995.61,352.696 1997.67,352.721 1999.72,364.314 2001.77,366.114 2003.83,362.255 2005.88,366.036 2007.93,354.758 2009.98,357.392 2012.04,353.151 2014.09,271.643 2016.14,271.747 2018.2,313.343 2020.25,313.044 2022.3,311.887 2024.35,320.318 2026.41,317.217 2028.46,315.308 2030.51,304.943 2032.57,303.804 2034.62,292.239 2036.67,300.868 2038.73,296.542 2040.78,295.847 2042.83,331.111 2044.88,428.823 2046.94,434.84 2048.99,424.036 2051.04,448.035 2053.1,477.515 2055.15,467.141 2057.2,486.89 2059.25,493.66 2061.31,509.889 2063.36,510.633 2065.41,510.688 2067.47,358.21 2069.52,331.818 2071.57,328.086 2073.62,328.003 2075.68,452.033 2077.73,357.069 2079.78,366.34 2081.84,424.366 2083.89,418.018 2085.94,418.218 2087.99,416.723 2090.05,373.63 2092.1,360.534 2094.15,366.13 2096.21,462.677 2098.26,591.641 2100.31,636.45 2102.36,561.504 2104.42,591.348 2106.47,590.64 2108.52,615.391 2110.58,630.856 2112.63,639.619 2114.68,637.99 2116.73,746.637 2118.79,683.738 2120.84,697.985 2122.89,739.673 2124.95,611.795 2127,592.575 2129.05,662.398 2131.11,671.177 2133.16,614.332 2135.21,551.754 2137.26,421.427 2139.32,440.666 2141.37,390.531 2143.42,201.324 2145.48,202.466 2147.53,260.903 2149.58,279.361 2151.63,260.604 2153.69,257.1 2155.74,429.414 2157.79,407.226 2159.85,407.757 2161.9,371.696 2163.95,501.356 2166,487.973 2168.06,488.544 2170.11,480.356 2172.16,480.982 2174.22,449.253 2176.27,449.086 2178.32,426.649 2180.37,432.259 2182.43,437.079 2184.48,403.745 2186.53,347.684 2188.59,337.194 2190.64,392.076 2192.69,406.958 2194.74,437.692 2196.8,470.625 2198.85,443.28 2200.9,454.998 2202.96,454.694 2205.01,449.942 2207.06,373.756 2209.12,386.376 2211.17,360.966 2213.22,348.422 2215.27,408.87 2217.33,405.163 2219.38,394.269 2221.43,438.804 2223.49,384.224 2225.54,382.055 2227.59,387.333 2229.64,387.372 2231.7,412.516 2233.75,418.284 2235.8,421.515 2237.86,410.873 2239.91,410.747 2241.96,447.518 2244.01,431.32 2246.07,431.211 2248.12,431.01 2250.17,445.33 2252.23,436.269 2254.28,429.357 2256.33,429.23 2258.38,426.506 2260.44,426.265 2262.49,409.259 2264.54,418.916 2266.6,419.121 2268.65,437.595 2270.7,427.324 2272.75,441.543 2274.81,439.04 2276.86,430.951 2278.91,418.496 2280.97,419.765 2283.02,420.543 2285.07,392.16 2287.12,392.116 2289.18,392.101 2291.23,396.948 "/>
<path clip-path="url(#clip030)" d="M251.33 172.231 L548.024 172.231 L548.024 68.5509 L251.33 68.5509  Z" fill="#ffffff" fill-rule="evenodd" fill-opacity="1"/>
<polyline clip-path="url(#clip030)" style="stroke:#000000; stroke-linecap:round; stroke-linejoin:round; stroke-width:4; stroke-opacity:1; fill:none" points="251.33,172.231 548.024,172.231 548.024,68.5509 251.33,68.5509 251.33,172.231 "/>
<polyline clip-path="url(#clip030)" style="stroke:#009af9; stroke-linecap:round; stroke-linejoin:round; stroke-width:4; stroke-opacity:1; fill:none" points="275.484,120.391 420.41,120.391 "/>
<path clip-path="url(#clip030)" d="M444.564 103.111 L449.24 103.111 L449.24 133.736 L466.069 133.736 L466.069 137.671 L444.564 137.671 L444.564 103.111 Z" fill="#000000" fill-rule="nonzero" fill-opacity="1" /><path clip-path="url(#clip030)" d="M491.694 104.245 L491.694 108.805 Q489.032 107.532 486.67 106.907 Q484.309 106.282 482.11 106.282 Q478.291 106.282 476.208 107.764 Q474.147 109.245 474.147 111.977 Q474.147 114.268 475.513 115.449 Q476.902 116.606 480.745 117.324 L483.569 117.902 Q488.8 118.898 491.277 121.421 Q493.777 123.921 493.777 128.134 Q493.777 133.157 490.397 135.75 Q487.041 138.342 480.536 138.342 Q478.083 138.342 475.305 137.787 Q472.55 137.231 469.587 136.143 L469.587 131.328 Q472.434 132.926 475.166 133.736 Q477.897 134.546 480.536 134.546 Q484.541 134.546 486.717 132.972 Q488.893 131.398 488.893 128.481 Q488.893 125.935 487.319 124.5 Q485.768 123.064 482.203 122.347 L479.356 121.791 Q474.124 120.75 471.786 118.527 Q469.448 116.305 469.448 112.347 Q469.448 107.764 472.666 105.125 Q475.907 102.486 481.578 102.486 Q484.008 102.486 486.532 102.926 Q489.055 103.366 491.694 104.245 Z" fill="#000000" fill-rule="nonzero" fill-opacity="1" /><path clip-path="url(#clip030)" d="M521.786 104.245 L521.786 108.805 Q519.124 107.532 516.763 106.907 Q514.402 106.282 512.203 106.282 Q508.383 106.282 506.3 107.764 Q504.24 109.245 504.24 111.977 Q504.24 114.268 505.606 115.449 Q506.994 116.606 510.837 117.324 L513.661 117.902 Q518.893 118.898 521.369 121.421 Q523.869 123.921 523.869 128.134 Q523.869 133.157 520.49 135.75 Q517.133 138.342 510.629 138.342 Q508.175 138.342 505.397 137.787 Q502.643 137.231 499.68 136.143 L499.68 131.328 Q502.527 132.926 505.258 133.736 Q507.99 134.546 510.629 134.546 Q514.633 134.546 516.809 132.972 Q518.985 131.398 518.985 128.481 Q518.985 125.935 517.411 124.5 Q515.86 123.064 512.295 122.347 L509.448 121.791 Q504.217 120.75 501.879 118.527 Q499.541 116.305 499.541 112.347 Q499.541 107.764 502.758 105.125 Q505.999 102.486 511.67 102.486 Q514.101 102.486 516.624 102.926 Q519.147 103.366 521.786 104.245 Z" fill="#000000" fill-rule="nonzero" fill-opacity="1" /><path clip-path="url(#clip030)" d="M178.867 1486.45 L2352.76 1486.45 L2352.76 847.244 L178.867 847.244  Z" fill="#ffffff" fill-rule="evenodd" fill-opacity="1"/>
<defs>
  <clipPath id="clip033">
    <rect x="178" y="847" width="2175" height="640"/>
  </clipPath>
</defs>
<polyline clip-path="url(#clip033)" style="stroke:#000000; stroke-linecap:round; stroke-linejoin:round; stroke-width:2; stroke-opacity:0.1; fill:none" points="238.339,1486.45 238.339,847.244 "/>
<polyline clip-path="url(#clip033)" style="stroke:#000000; stroke-linecap:round; stroke-linejoin:round; stroke-width:2; stroke-opacity:0.1; fill:none" points="751.562,1486.45 751.562,847.244 "/>
<polyline clip-path="url(#clip033)" style="stroke:#000000; stroke-linecap:round; stroke-linejoin:round; stroke-width:2; stroke-opacity:0.1; fill:none" points="1264.78,1486.45 1264.78,847.244 "/>
<polyline clip-path="url(#clip033)" style="stroke:#000000; stroke-linecap:round; stroke-linejoin:round; stroke-width:2; stroke-opacity:0.1; fill:none" points="1778.01,1486.45 1778.01,847.244 "/>
<polyline clip-path="url(#clip033)" style="stroke:#000000; stroke-linecap:round; stroke-linejoin:round; stroke-width:2; stroke-opacity:0.1; fill:none" points="2291.23,1486.45 2291.23,847.244 "/>
<polyline clip-path="url(#clip033)" style="stroke:#000000; stroke-linecap:round; stroke-linejoin:round; stroke-width:2; stroke-opacity:0.1; fill:none" points="178.867,1486.45 2352.76,1486.45 "/>
<polyline clip-path="url(#clip033)" style="stroke:#000000; stroke-linecap:round; stroke-linejoin:round; stroke-width:2; stroke-opacity:0.1; fill:none" points="178.867,1326.65 2352.76,1326.65 "/>
<polyline clip-path="url(#clip033)" style="stroke:#000000; stroke-linecap:round; stroke-linejoin:round; stroke-width:2; stroke-opacity:0.1; fill:none" points="178.867,1166.85 2352.76,1166.85 "/>
<polyline clip-path="url(#clip033)" style="stroke:#000000; stroke-linecap:round; stroke-linejoin:round; stroke-width:2; stroke-opacity:0.1; fill:none" points="178.867,1007.05 2352.76,1007.05 "/>
<polyline clip-path="url(#clip033)" style="stroke:#000000; stroke-linecap:round; stroke-linejoin:round; stroke-width:2; stroke-opacity:0.1; fill:none" points="178.867,847.244 2352.76,847.244 "/>
<polyline clip-path="url(#clip030)" style="stroke:#000000; stroke-linecap:round; stroke-linejoin:round; stroke-width:4; stroke-opacity:1; fill:none" points="178.867,1486.45 2352.76,1486.45 "/>
<polyline clip-path="url(#clip030)" style="stroke:#000000; stroke-linecap:round; stroke-linejoin:round; stroke-width:4; stroke-opacity:1; fill:none" points="238.339,1486.45 238.339,1467.55 "/>
<polyline clip-path="url(#clip030)" style="stroke:#000000; stroke-linecap:round; stroke-linejoin:round; stroke-width:4; stroke-opacity:1; fill:none" points="751.562,1486.45 751.562,1467.55 "/>
<polyline clip-path="url(#clip030)" style="stroke:#000000; stroke-linecap:round; stroke-linejoin:round; stroke-width:4; stroke-opacity:1; fill:none" points="1264.78,1486.45 1264.78,1467.55 "/>
<polyline clip-path="url(#clip030)" style="stroke:#000000; stroke-linecap:round; stroke-linejoin:round; stroke-width:4; stroke-opacity:1; fill:none" points="1778.01,1486.45 1778.01,1467.55 "/>
<polyline clip-path="url(#clip030)" style="stroke:#000000; stroke-linecap:round; stroke-linejoin:round; stroke-width:4; stroke-opacity:1; fill:none" points="2291.23,1486.45 2291.23,1467.55 "/>
<path clip-path="url(#clip030)" d="M238.339 1517.37 Q234.728 1517.37 232.899 1520.93 Q231.094 1524.47 231.094 1531.6 Q231.094 1538.71 232.899 1542.27 Q234.728 1545.82 238.339 1545.82 Q241.973 1545.82 243.779 1542.27 Q245.607 1538.71 245.607 1531.6 Q245.607 1524.47 243.779 1520.93 Q241.973 1517.37 238.339 1517.37 M238.339 1513.66 Q244.149 1513.66 247.205 1518.27 Q250.283 1522.85 250.283 1531.6 Q250.283 1540.33 247.205 1544.94 Q244.149 1549.52 238.339 1549.52 Q232.529 1549.52 229.45 1544.94 Q226.395 1540.33 226.395 1531.6 Q226.395 1522.85 229.45 1518.27 Q232.529 1513.66 238.339 1513.66 Z" fill="#000000" fill-rule="nonzero" fill-opacity="1" /><path clip-path="url(#clip030)" d="M715.254 1544.91 L731.574 1544.91 L731.574 1548.85 L709.629 1548.85 L709.629 1544.91 Q712.291 1542.16 716.875 1537.53 Q721.481 1532.88 722.662 1531.53 Q724.907 1529.01 725.787 1527.27 Q726.689 1525.51 726.689 1523.82 Q726.689 1521.07 724.745 1519.33 Q722.824 1517.6 719.722 1517.6 Q717.523 1517.6 715.069 1518.36 Q712.638 1519.13 709.861 1520.68 L709.861 1515.95 Q712.685 1514.82 715.138 1514.24 Q717.592 1513.66 719.629 1513.66 Q725 1513.66 728.194 1516.35 Q731.388 1519.03 731.388 1523.52 Q731.388 1525.65 730.578 1527.57 Q729.791 1529.47 727.685 1532.07 Q727.106 1532.74 724.004 1535.95 Q720.902 1539.15 715.254 1544.91 Z" fill="#000000" fill-rule="nonzero" fill-opacity="1" /><path clip-path="url(#clip030)" d="M741.435 1514.29 L759.791 1514.29 L759.791 1518.22 L745.717 1518.22 L745.717 1526.7 Q746.736 1526.35 747.754 1526.19 Q748.773 1526 749.791 1526 Q755.578 1526 758.958 1529.17 Q762.337 1532.34 762.337 1537.76 Q762.337 1543.34 758.865 1546.44 Q755.393 1549.52 749.073 1549.52 Q746.898 1549.52 744.629 1549.15 Q742.384 1548.78 739.976 1548.04 L739.976 1543.34 Q742.06 1544.47 744.282 1545.03 Q746.504 1545.58 748.981 1545.58 Q752.985 1545.58 755.323 1543.48 Q757.661 1541.37 757.661 1537.76 Q757.661 1534.15 755.323 1532.04 Q752.985 1529.94 748.981 1529.94 Q747.106 1529.94 745.231 1530.35 Q743.379 1530.77 741.435 1531.65 L741.435 1514.29 Z" fill="#000000" fill-rule="nonzero" fill-opacity="1" /><path clip-path="url(#clip030)" d="M781.55 1517.37 Q777.939 1517.37 776.11 1520.93 Q774.305 1524.47 774.305 1531.6 Q774.305 1538.71 776.11 1542.27 Q777.939 1545.82 781.55 1545.82 Q785.184 1545.82 786.99 1542.27 Q788.819 1538.71 788.819 1531.6 Q788.819 1524.47 786.99 1520.93 Q785.184 1517.37 781.55 1517.37 M781.55 1513.66 Q787.36 1513.66 790.416 1518.27 Q793.495 1522.85 793.495 1531.6 Q793.495 1540.33 790.416 1544.94 Q787.36 1549.52 781.55 1549.52 Q775.74 1549.52 772.661 1544.94 Q769.606 1540.33 769.606 1531.6 Q769.606 1522.85 772.661 1518.27 Q775.74 1513.66 781.55 1513.66 Z" fill="#000000" fill-rule="nonzero" fill-opacity="1" /><path clip-path="url(#clip030)" d="M1224.4 1514.29 L1242.76 1514.29 L1242.76 1518.22 L1228.69 1518.22 L1228.69 1526.7 Q1229.7 1526.35 1230.72 1526.19 Q1231.74 1526 1232.76 1526 Q1238.55 1526 1241.93 1529.17 Q1245.31 1532.34 1245.31 1537.76 Q1245.31 1543.34 1241.83 1546.44 Q1238.36 1549.52 1232.04 1549.52 Q1229.87 1549.52 1227.6 1549.15 Q1225.35 1548.78 1222.94 1548.04 L1222.94 1543.34 Q1225.03 1544.47 1227.25 1545.03 Q1229.47 1545.58 1231.95 1545.58 Q1235.95 1545.58 1238.29 1543.48 Q1240.63 1541.37 1240.63 1537.76 Q1240.63 1534.15 1238.29 1532.04 Q1235.95 1529.94 1231.95 1529.94 Q1230.07 1529.94 1228.2 1530.35 Q1226.35 1530.77 1224.4 1531.65 L1224.4 1514.29 Z" fill="#000000" fill-rule="nonzero" fill-opacity="1" /><path clip-path="url(#clip030)" d="M1264.52 1517.37 Q1260.91 1517.37 1259.08 1520.93 Q1257.27 1524.47 1257.27 1531.6 Q1257.27 1538.71 1259.08 1542.27 Q1260.91 1545.82 1264.52 1545.82 Q1268.15 1545.82 1269.96 1542.27 Q1271.79 1538.71 1271.79 1531.6 Q1271.79 1524.47 1269.96 1520.93 Q1268.15 1517.37 1264.52 1517.37 M1264.52 1513.66 Q1270.33 1513.66 1273.38 1518.27 Q1276.46 1522.85 1276.46 1531.6 Q1276.46 1540.33 1273.38 1544.94 Q1270.33 1549.52 1264.52 1549.52 Q1258.71 1549.52 1255.63 1544.94 Q1252.57 1540.33 1252.57 1531.6 Q1252.57 1522.85 1255.63 1518.27 Q1258.71 1513.66 1264.52 1513.66 Z" fill="#000000" fill-rule="nonzero" fill-opacity="1" /><path clip-path="url(#clip030)" d="M1294.68 1517.37 Q1291.07 1517.37 1289.24 1520.93 Q1287.44 1524.47 1287.44 1531.6 Q1287.44 1538.71 1289.24 1542.27 Q1291.07 1545.82 1294.68 1545.82 Q1298.31 1545.82 1300.12 1542.27 Q1301.95 1538.71 1301.95 1531.6 Q1301.95 1524.47 1300.12 1520.93 Q1298.31 1517.37 1294.68 1517.37 M1294.68 1513.66 Q1300.49 1513.66 1303.55 1518.27 Q1306.62 1522.85 1306.62 1531.6 Q1306.62 1540.33 1303.55 1544.94 Q1300.49 1549.52 1294.68 1549.52 Q1288.87 1549.52 1285.79 1544.94 Q1282.74 1540.33 1282.74 1531.6 Q1282.74 1522.85 1285.79 1518.27 Q1288.87 1513.66 1294.68 1513.66 Z" fill="#000000" fill-rule="nonzero" fill-opacity="1" /><path clip-path="url(#clip030)" d="M1736.28 1514.29 L1758.51 1514.29 L1758.51 1516.28 L1745.96 1548.85 L1741.08 1548.85 L1752.88 1518.22 L1736.28 1518.22 L1736.28 1514.29 Z" fill="#000000" fill-rule="nonzero" fill-opacity="1" /><path clip-path="url(#clip030)" d="M1767.67 1514.29 L1786.03 1514.29 L1786.03 1518.22 L1771.95 1518.22 L1771.95 1526.7 Q1772.97 1526.35 1773.99 1526.19 Q1775.01 1526 1776.03 1526 Q1781.82 1526 1785.2 1529.17 Q1788.57 1532.34 1788.57 1537.76 Q1788.57 1543.34 1785.1 1546.44 Q1781.63 1549.52 1775.31 1549.52 Q1773.14 1549.52 1770.87 1549.15 Q1768.62 1548.78 1766.21 1548.04 L1766.21 1543.34 Q1768.3 1544.47 1770.52 1545.03 Q1772.74 1545.58 1775.22 1545.58 Q1779.22 1545.58 1781.56 1543.48 Q1783.9 1541.37 1783.9 1537.76 Q1783.9 1534.15 1781.56 1532.04 Q1779.22 1529.94 1775.22 1529.94 Q1773.34 1529.94 1771.47 1530.35 Q1769.62 1530.77 1767.67 1531.65 L1767.67 1514.29 Z" fill="#000000" fill-rule="nonzero" fill-opacity="1" /><path clip-path="url(#clip030)" d="M1807.79 1517.37 Q1804.18 1517.37 1802.35 1520.93 Q1800.54 1524.47 1800.54 1531.6 Q1800.54 1538.71 1802.35 1542.27 Q1804.18 1545.82 1807.79 1545.82 Q1811.42 1545.82 1813.23 1542.27 Q1815.06 1538.71 1815.06 1531.6 Q1815.06 1524.47 1813.23 1520.93 Q1811.42 1517.37 1807.79 1517.37 M1807.79 1513.66 Q1813.6 1513.66 1816.65 1518.27 Q1819.73 1522.85 1819.73 1531.6 Q1819.73 1540.33 1816.65 1544.94 Q1813.6 1549.52 1807.79 1549.52 Q1801.98 1549.52 1798.9 1544.94 Q1795.84 1540.33 1795.84 1531.6 Q1795.84 1522.85 1798.9 1518.27 Q1801.98 1513.66 1807.79 1513.66 Z" fill="#000000" fill-rule="nonzero" fill-opacity="1" /><path clip-path="url(#clip030)" d="M2235.76 1544.91 L2243.4 1544.91 L2243.4 1518.55 L2235.09 1520.21 L2235.09 1515.95 L2243.35 1514.29 L2248.02 1514.29 L2248.02 1544.91 L2255.66 1544.91 L2255.66 1548.85 L2235.76 1548.85 L2235.76 1544.91 Z" fill="#000000" fill-rule="nonzero" fill-opacity="1" /><path clip-path="url(#clip030)" d="M2275.11 1517.37 Q2271.5 1517.37 2269.67 1520.93 Q2267.86 1524.47 2267.86 1531.6 Q2267.86 1538.71 2269.67 1542.27 Q2271.5 1545.82 2275.11 1545.82 Q2278.74 1545.82 2280.55 1542.27 Q2282.38 1538.71 2282.38 1531.6 Q2282.38 1524.47 2280.55 1520.93 Q2278.74 1517.37 2275.11 1517.37 M2275.11 1513.66 Q2280.92 1513.66 2283.97 1518.27 Q2287.05 1522.85 2287.05 1531.6 Q2287.05 1540.33 2283.97 1544.94 Q2280.92 1549.52 2275.11 1549.52 Q2269.3 1549.52 2266.22 1544.94 Q2263.16 1540.33 2263.16 1531.6 Q2263.16 1522.85 2266.22 1518.27 Q2269.3 1513.66 2275.11 1513.66 Z" fill="#000000" fill-rule="nonzero" fill-opacity="1" /><path clip-path="url(#clip030)" d="M2305.27 1517.37 Q2301.66 1517.37 2299.83 1520.93 Q2298.02 1524.47 2298.02 1531.6 Q2298.02 1538.71 2299.83 1542.27 Q2301.66 1545.82 2305.27 1545.82 Q2308.9 1545.82 2310.71 1542.27 Q2312.54 1538.71 2312.54 1531.6 Q2312.54 1524.47 2310.71 1520.93 Q2308.9 1517.37 2305.27 1517.37 M2305.27 1513.66 Q2311.08 1513.66 2314.14 1518.27 Q2317.21 1522.85 2317.21 1531.6 Q2317.21 1540.33 2314.14 1544.94 Q2311.08 1549.52 2305.27 1549.52 Q2299.46 1549.52 2296.38 1544.94 Q2293.33 1540.33 2293.33 1531.6 Q2293.33 1522.85 2296.38 1518.27 Q2299.46 1513.66 2305.27 1513.66 Z" fill="#000000" fill-rule="nonzero" fill-opacity="1" /><path clip-path="url(#clip030)" d="M2335.43 1517.37 Q2331.82 1517.37 2329.99 1520.93 Q2328.19 1524.47 2328.19 1531.6 Q2328.19 1538.71 2329.99 1542.27 Q2331.82 1545.82 2335.43 1545.82 Q2339.07 1545.82 2340.87 1542.27 Q2342.7 1538.71 2342.7 1531.6 Q2342.7 1524.47 2340.87 1520.93 Q2339.07 1517.37 2335.43 1517.37 M2335.43 1513.66 Q2341.24 1513.66 2344.3 1518.27 Q2347.38 1522.85 2347.38 1531.6 Q2347.38 1540.33 2344.3 1544.94 Q2341.24 1549.52 2335.43 1549.52 Q2329.62 1549.52 2326.54 1544.94 Q2323.49 1540.33 2323.49 1531.6 Q2323.49 1522.85 2326.54 1518.27 Q2329.62 1513.66 2335.43 1513.66 Z" fill="#000000" fill-rule="nonzero" fill-opacity="1" /><polyline clip-path="url(#clip030)" style="stroke:#000000; stroke-linecap:round; stroke-linejoin:round; stroke-width:4; stroke-opacity:1; fill:none" points="178.867,1486.45 178.867,847.244 "/>
<polyline clip-path="url(#clip030)" style="stroke:#000000; stroke-linecap:round; stroke-linejoin:round; stroke-width:4; stroke-opacity:1; fill:none" points="178.867,1486.45 197.764,1486.45 "/>
<polyline clip-path="url(#clip030)" style="stroke:#000000; stroke-linecap:round; stroke-linejoin:round; stroke-width:4; stroke-opacity:1; fill:none" points="178.867,1326.65 197.764,1326.65 "/>
<polyline clip-path="url(#clip030)" style="stroke:#000000; stroke-linecap:round; stroke-linejoin:round; stroke-width:4; stroke-opacity:1; fill:none" points="178.867,1166.85 197.764,1166.85 "/>
<polyline clip-path="url(#clip030)" style="stroke:#000000; stroke-linecap:round; stroke-linejoin:round; stroke-width:4; stroke-opacity:1; fill:none" points="178.867,1007.05 197.764,1007.05 "/>
<polyline clip-path="url(#clip030)" style="stroke:#000000; stroke-linecap:round; stroke-linejoin:round; stroke-width:4; stroke-opacity:1; fill:none" points="178.867,847.244 197.764,847.244 "/>
<path clip-path="url(#clip030)" d="M50.9921 1486.9 L80.6679 1486.9 L80.6679 1490.83 L50.9921 1490.83 L50.9921 1486.9 Z" fill="#000000" fill-rule="nonzero" fill-opacity="1" /><path clip-path="url(#clip030)" d="M91.5706 1499.79 L99.2095 1499.79 L99.2095 1473.43 L90.8993 1475.09 L90.8993 1470.83 L99.1632 1469.17 L103.839 1469.17 L103.839 1499.79 L111.478 1499.79 L111.478 1503.73 L91.5706 1503.73 L91.5706 1499.79 Z" fill="#000000" fill-rule="nonzero" fill-opacity="1" /><path clip-path="url(#clip030)" d="M130.922 1472.25 Q127.311 1472.25 125.482 1475.81 Q123.677 1479.35 123.677 1486.48 Q123.677 1493.59 125.482 1497.15 Q127.311 1500.7 130.922 1500.7 Q134.556 1500.7 136.362 1497.15 Q138.191 1493.59 138.191 1486.48 Q138.191 1479.35 136.362 1475.81 Q134.556 1472.25 130.922 1472.25 M130.922 1468.54 Q136.732 1468.54 139.788 1473.15 Q142.867 1477.73 142.867 1486.48 Q142.867 1495.21 139.788 1499.82 Q136.732 1504.4 130.922 1504.4 Q125.112 1504.4 122.033 1499.82 Q118.978 1495.21 118.978 1486.48 Q118.978 1477.73 122.033 1473.15 Q125.112 1468.54 130.922 1468.54 Z" fill="#000000" fill-rule="nonzero" fill-opacity="1" /><path clip-path="url(#clip030)" d="M82.1494 1327.1 L111.825 1327.1 L111.825 1331.03 L82.1494 1331.03 L82.1494 1327.1 Z" fill="#000000" fill-rule="nonzero" fill-opacity="1" /><path clip-path="url(#clip030)" d="M121.964 1309.37 L140.32 1309.37 L140.32 1313.3 L126.246 1313.3 L126.246 1321.77 Q127.265 1321.43 128.283 1321.27 Q129.302 1321.08 130.32 1321.08 Q136.107 1321.08 139.487 1324.25 Q142.867 1327.42 142.867 1332.84 Q142.867 1338.42 139.394 1341.52 Q135.922 1344.6 129.603 1344.6 Q127.427 1344.6 125.158 1344.23 Q122.913 1343.86 120.506 1343.12 L120.506 1338.42 Q122.589 1339.55 124.811 1340.11 Q127.033 1340.66 129.51 1340.66 Q133.515 1340.66 135.853 1338.56 Q138.191 1336.45 138.191 1332.84 Q138.191 1329.23 135.853 1327.12 Q133.515 1325.01 129.51 1325.01 Q127.635 1325.01 125.76 1325.43 Q123.908 1325.85 121.964 1326.73 L121.964 1309.37 Z" fill="#000000" fill-rule="nonzero" fill-opacity="1" /><path clip-path="url(#clip030)" d="M130.922 1152.64 Q127.311 1152.64 125.482 1156.21 Q123.677 1159.75 123.677 1166.88 Q123.677 1173.99 125.482 1177.55 Q127.311 1181.09 130.922 1181.09 Q134.556 1181.09 136.362 1177.55 Q138.191 1173.99 138.191 1166.88 Q138.191 1159.75 136.362 1156.21 Q134.556 1152.64 130.922 1152.64 M130.922 1148.94 Q136.732 1148.94 139.788 1153.55 Q142.867 1158.13 142.867 1166.88 Q142.867 1175.61 139.788 1180.21 Q136.732 1184.8 130.922 1184.8 Q125.112 1184.8 122.033 1180.21 Q118.978 1175.61 118.978 1166.88 Q118.978 1158.13 122.033 1153.55 Q125.112 1148.94 130.922 1148.94 Z" fill="#000000" fill-rule="nonzero" fill-opacity="1" /><path clip-path="url(#clip030)" d="M121.964 989.765 L140.32 989.765 L140.32 993.7 L126.246 993.7 L126.246 1002.17 Q127.265 1001.83 128.283 1001.66 Q129.302 1001.48 130.32 1001.48 Q136.107 1001.48 139.487 1004.65 Q142.867 1007.82 142.867 1013.24 Q142.867 1018.82 139.394 1021.92 Q135.922 1025 129.603 1025 Q127.427 1025 125.158 1024.63 Q122.913 1024.26 120.506 1023.51 L120.506 1018.82 Q122.589 1019.95 124.811 1020.51 Q127.033 1021.06 129.51 1021.06 Q133.515 1021.06 135.853 1018.95 Q138.191 1016.85 138.191 1013.24 Q138.191 1009.63 135.853 1007.52 Q133.515 1005.41 129.51 1005.41 Q127.635 1005.41 125.76 1005.83 Q123.908 1006.25 121.964 1007.13 L121.964 989.765 Z" fill="#000000" fill-rule="nonzero" fill-opacity="1" /><path clip-path="url(#clip030)" d="M91.5706 860.589 L99.2095 860.589 L99.2095 834.223 L90.8993 835.89 L90.8993 831.631 L99.1632 829.964 L103.839 829.964 L103.839 860.589 L111.478 860.589 L111.478 864.524 L91.5706 864.524 L91.5706 860.589 Z" fill="#000000" fill-rule="nonzero" fill-opacity="1" /><path clip-path="url(#clip030)" d="M130.922 833.043 Q127.311 833.043 125.482 836.608 Q123.677 840.149 123.677 847.279 Q123.677 854.385 125.482 857.95 Q127.311 861.492 130.922 861.492 Q134.556 861.492 136.362 857.95 Q138.191 854.385 138.191 847.279 Q138.191 840.149 136.362 836.608 Q134.556 833.043 130.922 833.043 M130.922 829.339 Q136.732 829.339 139.788 833.946 Q142.867 838.529 142.867 847.279 Q142.867 856.006 139.788 860.612 Q136.732 865.195 130.922 865.195 Q125.112 865.195 122.033 860.612 Q118.978 856.006 118.978 847.279 Q118.978 838.529 122.033 833.946 Q125.112 829.339 130.922 829.339 Z" fill="#000000" fill-rule="nonzero" fill-opacity="1" /><polyline clip-path="url(#clip033)" style="stroke:#009af9; stroke-linecap:round; stroke-linejoin:round; stroke-width:4; stroke-opacity:1; fill:none" points="240.392,1134.89 242.445,1134.84 244.498,1185.18 246.55,1170.6 248.603,1175.61 250.656,1128.1 252.709,1274.47 254.762,1117.06 256.815,1129 258.868,1143.88 260.921,1167.05 262.974,1167.27 265.027,1208.16 267.079,1185.13 269.132,1143.22 271.185,1197.7 273.238,1223.32 275.291,1191.08 277.344,1164.57 279.397,1260.24 281.45,1102.77 283.503,1112.94 285.555,1043.23 287.608,1169.86 289.661,1166.49 291.714,1158.87 293.767,1179.82 295.82,1149.23 297.873,1526.17 299.926,968.085 301.979,1201.87 304.031,1200.2 306.084,1259.12 308.137,1241.34 310.19,1199.7 312.243,979.72 314.296,1127.79 316.349,1169.75 318.402,1169.51 320.455,1182.07 322.507,1146.84 324.56,1180.88 326.613,1148.56 328.666,1189.56 330.719,1155.62 332.772,1207.97 334.825,1118.48 336.878,1171.73 338.931,1195.18 340.984,1138.17 343.036,1149.51 345.089,1242.96 347.142,914.419 349.195,1007.92 351.248,1211.55 353.301,1220.89 355.354,1157.73 357.407,1214.6 359.46,1076.04 361.512,1163.04 363.565,953.307 365.618,1216.61 367.671,1204.16 369.724,1121.26 371.777,1231.51 373.83,1160.4 375.883,1155.15 377.936,1145.58 379.988,1143.13 382.041,1216.04 384.094,1148.07 386.147,1156.67 388.2,1056.66 390.253,1034.04 392.306,1227.2 394.359,970.702 396.412,2287.55 398.464,1044.7 400.517,1181.33 402.57,1147.33 404.623,1151.63 406.676,1174.86 408.729,1152.52 410.782,1173.86 412.835,1163.75 414.888,1180.53 416.94,1155.62 418.993,1152.57 421.046,1175.53 423.099,1176.9 425.152,1241.23 427.205,1314.53 429.258,1149.08 431.311,1164.93 433.364,1102.76 435.417,1158.93 437.469,1131.18 439.522,1167.44 441.575,1153.09 443.628,1456.12 445.681,622.944 447.734,1220.56 449.787,1121.61 451.84,1123.74 453.893,1177.33 455.945,1156.71 457.998,1161.8 460.051,1165.24 462.104,584.367 464.157,-432.731 466.21,61.938 468.263,789.149 470.316,644.93 472.369,1410.73 474.421,1780.58 476.474,935.492 478.527,1041.5 480.58,1272.65 482.633,1137.32 484.686,1157.01 486.739,1128.88 488.792,1153.08 490.845,1158.78 492.897,1229.68 494.95,1720.52 497.003,1207.31 499.056,1191.36 501.109,1165.83 503.162,1173.55 505.215,1125.05 507.268,1223.66 509.321,1180.36 511.374,1154.71 513.426,1173.03 515.479,1163.97 517.532,1155.72 519.585,1158.35 521.638,1194.73 523.691,1295.72 525.744,997.54 527.797,1223.23 529.85,902.021 531.902,1199.88 533.955,1192.18 536.008,949.19 538.061,1542.23 540.114,1153.49 542.167,1150.59 544.22,1293.81 546.273,1470.18 548.326,1120.55 550.378,1204.3 552.431,1153.1 554.484,1141.99 556.537,1467.99 558.59,1641.4 560.643,2086.02 562.696,478.286 564.749,1525.26 566.802,1157.95 568.854,1213.92 570.907,1274.08 572.96,1067.21 575.013,1087.76 577.066,1143.04 579.119,1180.48 581.172,1180.67 583.225,1213.15 585.278,1171.73 587.331,1191.78 589.383,1154.13 591.436,1181.71 593.489,1179.39 595.542,1157.67 597.595,1204.94 599.648,1166.28 601.701,1128.4 603.754,1206.53 605.807,1094.62 607.859,1257.29 609.912,1112.68 611.965,1147.13 614.018,1232.35 616.071,1169.95 618.124,1163.1 620.177,933.287 622.23,929.634 624.283,1170.64 626.335,1176.52 628.388,1176.89 630.441,1215.24 632.494,1137.44 634.547,1218.09 636.6,1071.61 638.653,1159.78 640.706,1110.9 642.759,1190.79 644.811,1241.91 646.864,1174.02 648.917,1164.95 650.97,1144.12 653.023,1180.16 655.076,1068.47 657.129,1058.01 659.182,1048.32 661.235,965.499 663.288,1125.88 665.34,1149.33 667.393,1140.98 669.446,1158.45 671.499,1188.82 673.552,1199.46 675.605,1143.34 677.658,1196.39 679.711,1107.95 681.764,1348.18 683.816,1323.84 685.869,1063.73 687.922,1182.43 689.975,535.323 692.028,1051.27 694.081,1252.01 696.134,1114.21 698.187,1226.35 700.24,1322.31 702.292,957.864 704.345,1285.23 706.398,1144.41 708.451,836.377 710.504,1597.64 712.557,1154.81 714.61,1173.28 716.663,1216.22 718.716,1119.34 720.768,1131.89 722.821,1017.05 724.874,1368.93 726.927,985.966 728.98,1171.52 731.033,1125.55 733.086,1211.83 735.139,1117.51 737.192,1003.85 739.245,1161.1 741.297,1154.04 743.35,1255 745.403,1469.74 747.456,1110.14 749.509,1217.33 751.562,1156.96 753.615,1185.43 755.668,1173.21 757.721,1140.12 759.773,1150.04 761.826,1163.43 763.879,1173.27 765.932,1073.99 767.985,1205.39 770.038,897.678 772.091,1034.18 774.144,1171.21 776.197,1157.53 778.249,1153.03 780.302,1239.21 782.355,1265.7 784.408,1201.02 786.461,1213.32 788.514,1245.97 790.567,1012.81 792.62,1277.35 794.673,1137.73 796.725,1219.98 798.778,1202.29 800.831,1157.86 802.884,1229.28 804.937,1216.12 806.99,1183.32 809.043,1155.59 811.096,1158.85 813.149,1152.78 815.202,1181.84 817.254,1159.51 819.307,1207.96 821.36,1206.76 823.413,1238.85 825.466,1203.5 827.519,1145.24 829.572,1126.43 831.625,1215.13 833.678,1153.34 835.73,1191.93 837.783,1176.77 839.836,1183.11 841.889,1190.64 843.942,1184.98 845.995,1153.5 848.048,1165.55 850.101,1174.89 852.154,1181.34 854.206,1168.27 856.259,1169.34 858.312,1176.3 860.365,1162.14 862.418,1176.64 864.471,1121.04 866.524,1279.75 868.577,1268.75 870.63,1180.22 872.682,1171.69 874.735,1142.33 876.788,1084.9 878.841,1137.89 880.894,1178.36 882.947,1123.39 885,1113.18 887.053,1181.02 889.106,1164.1 891.159,1178.32 893.211,1283.96 895.264,1183.75 897.317,1182.95 899.37,1146.49 901.423,1197.25 903.476,1169.48 905.529,1143.14 907.582,1119.05 909.635,1070.79 911.687,1196.58 913.74,1177.46 915.793,1191.32 917.846,1198.8 919.899,1172.48 921.952,1098.8 924.005,1217.62 926.058,1227.3 928.111,1224.93 930.163,1168.23 932.216,1142.24 934.269,1088.99 936.322,1090.01 938.375,1074.4 940.428,1238.8 942.481,1120.38 944.534,1205.61 946.587,1254.57 948.639,1132.31 950.692,1186.58 952.745,1199.29 954.798,1111.79 956.851,1191.28 958.904,1034.78 960.957,1063.95 963.01,261.198 965.063,1979.22 967.116,1288.75 969.168,1047.98 971.221,1173 973.274,1173.77 975.327,1159.86 977.38,1164.2 979.433,1108.88 981.486,1223.39 983.539,1220.54 985.592,1154.16 987.644,1196.18 989.697,1207.92 991.75,1233.06 993.803,1142.24 995.856,1157.16 997.909,1170.09 999.962,1123.1 1002.01,1056.93 1004.07,1291.23 1006.12,1129.99 1008.17,1161.4 1010.23,1147.22 1012.28,1181.96 1014.33,1099.06 1016.38,1153.26 1018.44,1174.02 1020.49,1142.79 1022.54,1169.06 1024.6,1170.3 1026.65,1114.45 1028.7,1235.72 1030.76,1097.85 1032.81,1094.21 1034.86,1274.4 1036.91,1243.17 1038.97,1175.98 1041.02,1136.33 1043.07,1170.96 1045.13,1190.97 1047.18,1151.59 1049.23,1158.86 1051.28,1082.49 1053.34,1163.34 1055.39,1182.73 1057.44,1160.67 1059.5,1157.69 1061.55,1135.48 1063.6,1177.07 1065.65,1164.21 1067.71,1170.34 1069.76,1188.22 1071.81,1201.16 1073.87,1138.22 1075.92,1221.27 1077.97,1183.57 1080.02,1185.13 1082.08,1048.69 1084.13,1155.61 1086.18,1164.76 1088.24,1157.82 1090.29,1134.09 1092.34,1114.11 1094.39,1050.91 1096.45,929.788 1098.5,860.977 1100.55,786.641 1102.61,1071.46 1104.66,1121.82 1106.71,1155.23 1108.77,1189.82 1110.82,1176.69 1112.87,1170.24 1114.92,1131.96 1116.98,1155.58 1119.03,1177.03 1121.08,1181.12 1123.14,1122.47 1125.19,1174.7 1127.24,1159.05 1129.29,1160.9 1131.35,1128.67 1133.4,1133.34 1135.45,1179.48 1137.51,1113.83 1139.56,1100.75 1141.61,1158.06 1143.66,1490.67 1145.72,1284.7 1147.77,1173.79 1149.82,1250.78 1151.88,1174.46 1153.93,1120.74 1155.98,1348.13 1158.03,1021.73 1160.09,1235.6 1162.14,1138.43 1164.19,1204.42 1166.25,1126.04 1168.3,1176.05 1170.35,1106.03 1172.4,1225.64 1174.46,1232.01 1176.51,1208.44 1178.56,1114.8 1180.62,1152.91 1182.67,1157.1 1184.72,1170.06 1186.77,1137.28 1188.83,1208.81 1190.88,1115.97 1192.93,1139.32 1194.99,928.038 1197.04,911.928 1199.09,1086.52 1201.15,1065.17 1203.2,1068.93 1205.25,1246.86 1207.3,1099.58 1209.36,1198.83 1211.41,1215.72 1213.46,1155.48 1215.52,1318.79 1217.57,975.997 1219.62,598.595 1221.67,828.516 1223.73,1231.49 1225.78,1229.97 1227.83,1198.05 1229.89,1194.02 1231.94,1310.21 1233.99,1262.1 1236.04,1291.5 1238.1,1249.09 1240.15,1222.22 1242.2,1199.4 1244.26,1210.84 1246.31,1171.36 1248.36,1158 1250.41,1118.47 1252.47,1167.36 1254.52,1182.41 1256.57,1179.66 1258.63,1175.73 1260.68,1170.14 1262.73,1186.98 1264.78,1153.5 1266.84,1151.56 1268.89,1095.83 1270.94,1228.58 1273,1124.37 1275.05,1139.43 1277.1,1174.96 1279.16,1150.5 1281.21,1193.96 1283.26,1117.01 1285.31,1200.54 1287.37,1125.03 1289.42,1129.73 1291.47,1172.18 1293.53,1128.8 1295.58,1203.4 1297.63,1160.51 1299.68,1196.96 1301.74,1161.22 1303.79,1171.35 1305.84,1181.97 1307.9,1252.85 1309.95,1243.63 1312,1134.25 1314.05,1127.83 1316.11,1090.97 1318.16,1171.06 1320.21,1110.41 1322.27,1156.78 1324.32,1169.57 1326.37,1182.37 1328.42,1147.02 1330.48,1179.53 1332.53,1182.96 1334.58,1023.23 1336.64,997.527 1338.69,1192.63 1340.74,1177.74 1342.79,1176.44 1344.85,1263.48 1346.9,1273.92 1348.95,1234.76 1351.01,985.549 1353.06,1200.84 1355.11,1309.24 1357.16,1247.6 1359.22,1186.46 1361.27,1177.84 1363.32,1171.84 1365.38,1146.1 1367.43,1206.39 1369.48,1165.35 1371.54,1152.29 1373.59,1161.23 1375.64,1311.82 1377.69,1064.5 1379.75,971.87 1381.8,955.859 1383.85,1166.92 1385.91,1172.44 1387.96,1143.46 1390.01,1144.17 1392.06,1186.56 1394.12,1073.81 1396.17,1170.47 1398.22,1188.94 1400.28,1150.97 1402.33,1184.65 1404.38,1149.91 1406.43,1145.98 1408.49,1093.69 1410.54,1119.96 1412.59,1023.94 1414.65,1153.23 1416.7,1209.85 1418.75,1163.08 1420.8,1137.48 1422.86,1130.26 1424.91,1186.93 1426.96,1152.31 1429.02,1086.23 1431.07,1071.35 1433.12,1081.78 1435.17,1186.38 1437.23,1164.03 1439.28,1169.46 1441.33,1136.62 1443.39,1175.6 1445.44,1103.07 1447.49,1271.58 1449.55,1164.17 1451.6,1149.35 1453.65,1150.07 1455.7,1204.86 1457.76,1249.91 1459.81,1122.35 1461.86,1113.01 1463.92,1190.66 1465.97,1104.66 1468.02,1114.68 1470.07,1119.56 1472.13,1171.26 1474.18,1158.75 1476.23,1133.06 1478.29,1152.01 1480.34,1140.32 1482.39,1179.7 1484.44,1167.93 1486.5,1112.67 1488.55,1185.21 1490.6,1157.28 1492.66,1183.65 1494.71,1177.35 1496.76,1185.04 1498.81,1264.59 1500.87,1147.81 1502.92,1143.56 1504.97,1206.21 1507.03,1208.46 1509.08,1187.56 1511.13,1126.23 1513.18,1185.81 1515.24,1211.73 1517.29,986.013 1519.34,1179.08 1521.4,1158.34 1523.45,1253.14 1525.5,1049.83 1527.55,1180.43 1529.61,1155.68 1531.66,1161.43 1533.71,1249.62 1535.77,1159.3 1537.82,1151.25 1539.87,1192.78 1541.93,1143.61 1543.98,1248 1546.03,1153.27 1548.08,1184.63 1550.14,1215.43 1552.19,1163.44 1554.24,1124.99 1556.3,1130.38 1558.35,1125.56 1560.4,922.564 1562.45,1065.82 1564.51,1144.67 1566.56,1088.76 1568.61,1183.06 1570.67,1164.44 1572.72,1195.33 1574.77,1140.92 1576.82,1126.31 1578.88,1110.74 1580.93,1136.31 1582.98,1089.41 1585.04,1073.33 1587.09,1384.23 1589.14,1153.05 1591.19,1139.04 1593.25,1157 1595.3,1141.59 1597.35,1138.05 1599.41,1144.9 1601.46,1201.85 1603.51,1158.34 1605.56,1223.88 1607.62,1159.87 1609.67,1169.93 1611.72,1171.05 1613.78,1162.4 1615.83,1190.9 1617.88,1148.03 1619.94,1150.47 1621.99,1180.44 1624.04,1180.5 1626.09,1173.38 1628.15,1185.69 1630.2,1172.64 1632.25,1169.33 1634.31,1167.56 1636.36,1180.12 1638.41,1186.42 1640.46,1181.46 1642.52,1176.98 1644.57,1212.19 1646.62,1138.62 1648.68,1140.88 1650.73,1122.83 1652.78,1165.36 1654.83,1166.45 1656.89,1164.86 1658.94,1167.68 1660.99,1176.59 1663.05,1199.44 1665.1,1120.62 1667.15,1015.19 1669.2,838.723 1671.26,1189.1 1673.31,1139.01 1675.36,1192.82 1677.42,1146.51 1679.47,1151.62 1681.52,1129.38 1683.57,1157.49 1685.63,1192.63 1687.68,1180.43 1689.73,1167.34 1691.79,1166.81 1693.84,1174.22 1695.89,1081.47 1697.94,1186.32 1700,1172.84 1702.05,1161.12 1704.1,1198.54 1706.16,1180.78 1708.21,1197.27 1710.26,1184.73 1712.32,1160.56 1714.37,1172.71 1716.42,1173.37 1718.47,1188.32 1720.53,1235.24 1722.58,1160.87 1724.63,1169.57 1726.69,1107.93 1728.74,1112.41 1730.79,1173.96 1732.84,1180.64 1734.9,1146.99 1736.95,1159.4 1739,1025.69 1741.06,1229.54 1743.11,1074.75 1745.16,1114.21 1747.21,1205.66 1749.27,1085.44 1751.32,1144.92 1753.37,1167.04 1755.43,1152 1757.48,1128.34 1759.53,1701.22 1761.58,1127.59 1763.64,1212.57 1765.69,1256.24 1767.74,1279.4 1769.8,1149.34 1771.85,1302.76 1773.9,1077.29 1775.95,1213.03 1778.01,1178.67 1780.06,1169.88 1782.11,1163.91 1784.17,1334.35 1786.22,913.585 1788.27,1133.5 1790.33,1216.57 1792.38,1175.98 1794.43,1210.13 1796.48,1175.11 1798.54,1167.98 1800.59,1141.34 1802.64,1142.92 1804.7,1178.15 1806.75,1202.34 1808.8,1255.82 1810.85,1134.15 1812.91,1104.9 1814.96,1173.24 1817.01,1135.76 1819.07,1203.12 1821.12,1162.89 1823.17,1257.51 1825.22,989.077 1827.28,1763.88 1829.33,871.394 1831.38,1059.16 1833.44,1280.95 1835.49,1106.98 1837.54,1218.21 1839.59,1107.72 1841.65,1201.17 1843.7,1212.83 1845.75,1050.2 1847.81,1069.34 1849.86,1029.32 1851.91,1673.67 1853.96,1143.26 1856.02,1195.47 1858.07,1173.13 1860.12,1116.23 1862.18,1208.5 1864.23,1146.27 1866.28,1203.05 1868.34,1194.34 1870.39,1172.74 1872.44,1164.76 1874.49,1176.78 1876.55,1182.37 1878.6,1136.91 1880.65,1243.81 1882.71,1152.41 1884.76,1204.98 1886.81,1241.31 1888.86,1202.46 1890.92,671.169 1892.97,1648.49 1895.02,665.305 1897.08,1248.74 1899.13,1168.84 1901.18,1185.75 1903.23,1230.03 1905.29,1180.54 1907.34,1163.31 1909.39,1124.14 1911.45,1144.19 1913.5,1169.67 1915.55,1154.15 1917.6,1172.6 1919.66,1187.28 1921.71,1142.88 1923.76,1161.31 1925.82,1177.74 1927.87,1133.63 1929.92,1200.07 1931.97,1187.97 1934.03,1137.84 1936.08,1154.06 1938.13,1193.77 1940.19,1264.17 1942.24,1156.79 1944.29,1127.54 1946.34,1242.9 1948.4,1159.55 1950.45,1147.09 1952.5,1183.69 1954.56,1111.42 1956.61,1208.5 1958.66,1137.7 1960.72,1051.03 1962.77,1449 1964.82,910.117 1966.87,935.829 1968.93,1250.51 1970.98,1264.32 1973.03,1210.77 1975.09,1147.74 1977.14,1134.14 1979.19,1140.4 1981.24,1159.44 1983.3,1162.73 1985.35,1104.86 1987.4,1110.8 1989.46,1210.31 1991.51,1249.8 1993.56,1170.89 1995.61,1115.67 1997.67,1223.56 1999.72,1147.43 2001.77,1143.08 2003.83,1163.9 2005.88,1175.01 2007.93,1154.68 2009.98,1153.51 2012.04,1157.21 2014.09,1195.3 2016.14,1181 2018.2,1180.63 2020.25,1101.17 2022.3,1177.61 2024.35,1165.28 2026.41,1161.91 2028.46,1082.73 2030.51,1183.54 2032.57,1139.48 2034.62,1199.01 2036.67,1154.6 2038.73,1140.19 2040.78,1146.23 2042.83,1223.32 2044.88,1145.51 2046.94,1170.86 2048.99,1190.83 2051.04,1188.58 2053.1,1163.97 2055.15,1155.1 2057.2,1100.75 2059.25,788.872 2061.31,1188.4 2063.36,1071.28 2065.41,975.846 2067.47,1045.34 2069.52,1274.85 2071.57,1105.67 2073.62,1215.55 2075.68,1084.89 2077.73,1091.1 2079.78,1141.15 2081.84,1158.02 2083.89,1202.47 2085.94,1199.39 2087.99,1189.18 2090.05,1138.26 2092.1,1215.31 2094.15,1115.1 2096.21,1199.62 2098.26,1225.54 2100.31,1151.86 2102.36,1184.74 2104.42,1179.86 2106.47,1167.31 2108.52,1168.77 2110.58,1133.79 2112.63,1124.08 2114.68,1099.5 2116.73,1125.19 2118.79,1172.34 2120.84,1187.48 2122.89,1151.53 2124.95,1213.88 2127,783.799 2129.05,2325.56 2131.11,1063.79 2133.16,1328.1 2135.21,1109.16 2137.26,1269.09 2139.32,1269.87 2141.37,1175.09 2143.42,1197.27 2145.48,1205.21 2147.53,1028.82 2149.58,1197.29 2151.63,1086.76 2153.69,1176.91 2155.74,1172.87 2157.79,1260.38 2159.85,1297.23 2161.9,1208.93 2163.95,1235.53 2166,1181.24 2168.06,1200.82 2170.11,1174.08 2172.16,1177.94 2174.22,1134.13 2176.27,1141.12 2178.32,1184.53 2180.37,1148.04 2182.43,1140.63 2184.48,1212.67 2186.53,1133.92 2188.59,1219.78 2190.64,1176.09 2192.69,1162.35 2194.74,1151.73 2196.8,1140.95 2198.85,1193.89 2200.9,1078.62 2202.96,1093.39 2205.01,1091.54 2207.06,1226.72 2209.12,1228.82 2211.17,1112.05 2213.22,837.449 2215.27,1141.84 2217.33,1161.37 2219.38,1172.69 2221.43,1186.71 2223.49,1124.6 2225.54,1220.65 2227.59,1316.72 2229.64,1223.19 2231.7,1193.3 2233.75,1167.2 2235.8,1211.59 2237.86,1209.35 2239.91,1189.11 2241.96,1155.26 2244.01,1145.74 2246.07,1159.54 2248.12,1134.25 2250.17,1485.11 2252.23,1276.66 2254.28,803.091 2256.33,1805.43 2258.38,1246.65 2260.44,1108.56 2262.49,1065.06 2264.54,1110.08 2266.6,1044.81 2268.65,1087.68 2270.7,1233.83 2272.75,1158.25 2274.81,1208.25 2276.86,1175.06 2278.91,1158.12 2280.97,1120.61 2283.02,1164.2 2285.07,1165.53 2287.12,1164.09 2289.18,1169.56 2291.23,1134.14 "/>
<path clip-path="url(#clip030)" d="M1942.7 972.231 L2280.29 972.231 L2280.29 868.551 L1942.7 868.551  Z" fill="#ffffff" fill-rule="evenodd" fill-opacity="1"/>
<polyline clip-path="url(#clip030)" style="stroke:#000000; stroke-linecap:round; stroke-linejoin:round; stroke-width:4; stroke-opacity:1; fill:none" points="1942.7,972.231 2280.29,972.231 2280.29,868.551 1942.7,868.551 1942.7,972.231 "/>
<polyline clip-path="url(#clip030)" style="stroke:#009af9; stroke-linecap:round; stroke-linejoin:round; stroke-width:4; stroke-opacity:1; fill:none" points="1966.85,920.391 2111.78,920.391 "/>
<path clip-path="url(#clip030)" d="M2161.49 932.74 L2161.49 923.458 L2153.85 923.458 L2153.85 919.615 L2166.12 919.615 L2166.12 934.453 Q2163.41 936.375 2160.14 937.37 Q2156.88 938.342 2153.18 938.342 Q2145.07 938.342 2140.49 933.62 Q2135.93 928.875 2135.93 920.426 Q2135.93 911.953 2140.49 907.231 Q2145.07 902.486 2153.18 902.486 Q2156.56 902.486 2159.59 903.319 Q2162.64 904.153 2165.21 905.773 L2165.21 910.75 Q2162.62 908.551 2159.7 907.44 Q2156.79 906.328 2153.57 906.328 Q2147.23 906.328 2144.03 909.87 Q2140.86 913.412 2140.86 920.426 Q2140.86 927.416 2144.03 930.958 Q2147.23 934.5 2153.57 934.5 Q2156.05 934.5 2157.99 934.083 Q2159.94 933.643 2161.49 932.74 Z" fill="#000000" fill-rule="nonzero" fill-opacity="1" /><path clip-path="url(#clip030)" d="M2179.33 906.953 L2179.33 919.94 L2185.21 919.94 Q2188.48 919.94 2190.26 918.25 Q2192.04 916.56 2192.04 913.435 Q2192.04 910.333 2190.26 908.643 Q2188.48 906.953 2185.21 906.953 L2179.33 906.953 M2174.66 903.111 L2185.21 903.111 Q2191.02 903.111 2193.99 905.75 Q2196.97 908.365 2196.97 913.435 Q2196.97 918.551 2193.99 921.166 Q2191.02 923.782 2185.21 923.782 L2179.33 923.782 L2179.33 937.671 L2174.66 937.671 L2174.66 903.111 Z" fill="#000000" fill-rule="nonzero" fill-opacity="1" /><path clip-path="url(#clip030)" d="M2223.96 904.245 L2223.96 908.805 Q2221.3 907.532 2218.94 906.907 Q2216.58 906.282 2214.38 906.282 Q2210.56 906.282 2208.48 907.764 Q2206.42 909.245 2206.42 911.977 Q2206.42 914.268 2207.78 915.449 Q2209.17 916.606 2213.01 917.324 L2215.84 917.902 Q2221.07 918.898 2223.55 921.421 Q2226.05 923.921 2226.05 928.134 Q2226.05 933.157 2222.67 935.75 Q2219.31 938.342 2212.81 938.342 Q2210.35 938.342 2207.57 937.787 Q2204.82 937.231 2201.86 936.143 L2201.86 931.328 Q2204.7 932.926 2207.44 933.736 Q2210.17 934.546 2212.81 934.546 Q2216.81 934.546 2218.99 932.972 Q2221.16 931.398 2221.16 928.481 Q2221.16 925.935 2219.59 924.5 Q2218.04 923.064 2214.47 922.347 L2211.62 921.791 Q2206.39 920.75 2204.06 918.527 Q2201.72 916.305 2201.72 912.347 Q2201.72 907.764 2204.94 905.125 Q2208.18 902.486 2213.85 902.486 Q2216.28 902.486 2218.8 902.926 Q2221.32 903.366 2223.96 904.245 Z" fill="#000000" fill-rule="nonzero" fill-opacity="1" /><path clip-path="url(#clip030)" d="M2254.06 904.245 L2254.06 908.805 Q2251.39 907.532 2249.03 906.907 Q2246.67 906.282 2244.47 906.282 Q2240.65 906.282 2238.57 907.764 Q2236.51 909.245 2236.51 911.977 Q2236.51 914.268 2237.87 915.449 Q2239.26 916.606 2243.11 917.324 L2245.93 917.902 Q2251.16 918.898 2253.64 921.421 Q2256.14 923.921 2256.14 928.134 Q2256.14 933.157 2252.76 935.75 Q2249.4 938.342 2242.9 938.342 Q2240.44 938.342 2237.67 937.787 Q2234.91 937.231 2231.95 936.143 L2231.95 931.328 Q2234.8 932.926 2237.53 933.736 Q2240.26 934.546 2242.9 934.546 Q2246.9 934.546 2249.08 932.972 Q2251.25 931.398 2251.25 928.481 Q2251.25 925.935 2249.68 924.5 Q2248.13 923.064 2244.56 922.347 L2241.72 921.791 Q2236.49 920.75 2234.15 918.527 Q2231.81 916.305 2231.81 912.347 Q2231.81 907.764 2235.03 905.125 Q2238.27 902.486 2243.94 902.486 Q2246.37 902.486 2248.89 902.926 Q2251.42 903.366 2254.06 904.245 Z" fill="#000000" fill-rule="nonzero" fill-opacity="1" /></svg>
