<?xml version="1.0" encoding="utf-8"?>
<svg xmlns="http://www.w3.org/2000/svg" xmlns:xlink="http://www.w3.org/1999/xlink" width="600" height="400" viewBox="0 0 2400 1600">
<defs>
  <clipPath id="clip310">
    <rect x="0" y="0" width="2400" height="1600"/>
  </clipPath>
</defs>
<path clip-path="url(#clip310)" d="M0 1600 L2400 1600 L2400 0 L0 0  Z" fill="#ffffff" fill-rule="evenodd" fill-opacity="1"/>
<defs>
  <clipPath id="clip311">
    <rect x="480" y="0" width="1681" height="1600"/>
  </clipPath>
</defs>
<path clip-path="url(#clip310)" d="M178.867 686.448 L2352.76 686.448 L2352.76 47.2441 L178.867 47.2441  Z" fill="#ffffff" fill-rule="evenodd" fill-opacity="1"/>
<defs>
  <clipPath id="clip312">
    <rect x="178" y="47" width="2175" height="640"/>
  </clipPath>
</defs>
<polyline clip-path="url(#clip312)" style="stroke:#000000; stroke-linecap:round; stroke-linejoin:round; stroke-width:2; stroke-opacity:0.1; fill:none" points="238.339,686.448 238.339,47.2441 "/>
<polyline clip-path="url(#clip312)" style="stroke:#000000; stroke-linecap:round; stroke-linejoin:round; stroke-width:2; stroke-opacity:0.1; fill:none" points="751.562,686.448 751.562,47.2441 "/>
<polyline clip-path="url(#clip312)" style="stroke:#000000; stroke-linecap:round; stroke-linejoin:round; stroke-width:2; stroke-opacity:0.1; fill:none" points="1264.78,686.448 1264.78,47.2441 "/>
<polyline clip-path="url(#clip312)" style="stroke:#000000; stroke-linecap:round; stroke-linejoin:round; stroke-width:2; stroke-opacity:0.1; fill:none" points="1778.01,686.448 1778.01,47.2441 "/>
<polyline clip-path="url(#clip312)" style="stroke:#000000; stroke-linecap:round; stroke-linejoin:round; stroke-width:2; stroke-opacity:0.1; fill:none" points="2291.23,686.448 2291.23,47.2441 "/>
<polyline clip-path="url(#clip312)" style="stroke:#000000; stroke-linecap:round; stroke-linejoin:round; stroke-width:2; stroke-opacity:0.1; fill:none" points="178.867,686.448 2352.76,686.448 "/>
<polyline clip-path="url(#clip312)" style="stroke:#000000; stroke-linecap:round; stroke-linejoin:round; stroke-width:2; stroke-opacity:0.1; fill:none" points="178.867,526.647 2352.76,526.647 "/>
<polyline clip-path="url(#clip312)" style="stroke:#000000; stroke-linecap:round; stroke-linejoin:round; stroke-width:2; stroke-opacity:0.1; fill:none" points="178.867,366.846 2352.76,366.846 "/>
<polyline clip-path="url(#clip312)" style="stroke:#000000; stroke-linecap:round; stroke-linejoin:round; stroke-width:2; stroke-opacity:0.1; fill:none" points="178.867,207.045 2352.76,207.045 "/>
<polyline clip-path="url(#clip312)" style="stroke:#000000; stroke-linecap:round; stroke-linejoin:round; stroke-width:2; stroke-opacity:0.1; fill:none" points="178.867,47.2441 2352.76,47.2441 "/>
<polyline clip-path="url(#clip310)" style="stroke:#000000; stroke-linecap:round; stroke-linejoin:round; stroke-width:4; stroke-opacity:1; fill:none" points="178.867,686.448 2352.76,686.448 "/>
<polyline clip-path="url(#clip310)" style="stroke:#000000; stroke-linecap:round; stroke-linejoin:round; stroke-width:4; stroke-opacity:1; fill:none" points="238.339,686.448 238.339,667.55 "/>
<polyline clip-path="url(#clip310)" style="stroke:#000000; stroke-linecap:round; stroke-linejoin:round; stroke-width:4; stroke-opacity:1; fill:none" points="751.562,686.448 751.562,667.55 "/>
<polyline clip-path="url(#clip310)" style="stroke:#000000; stroke-linecap:round; stroke-linejoin:round; stroke-width:4; stroke-opacity:1; fill:none" points="1264.78,686.448 1264.78,667.55 "/>
<polyline clip-path="url(#clip310)" style="stroke:#000000; stroke-linecap:round; stroke-linejoin:round; stroke-width:4; stroke-opacity:1; fill:none" points="1778.01,686.448 1778.01,667.55 "/>
<polyline clip-path="url(#clip310)" style="stroke:#000000; stroke-linecap:round; stroke-linejoin:round; stroke-width:4; stroke-opacity:1; fill:none" points="2291.23,686.448 2291.23,667.55 "/>
<path clip-path="url(#clip310)" d="M238.339 717.367 Q234.728 717.367 232.899 720.931 Q231.094 724.473 231.094 731.603 Q231.094 738.709 232.899 742.274 Q234.728 745.815 238.339 745.815 Q241.973 745.815 243.779 742.274 Q245.607 738.709 245.607 731.603 Q245.607 724.473 243.779 720.931 Q241.973 717.367 238.339 717.367 M238.339 713.663 Q244.149 713.663 247.205 718.269 Q250.283 722.853 250.283 731.603 Q250.283 740.329 247.205 744.936 Q244.149 749.519 238.339 749.519 Q232.529 749.519 229.45 744.936 Q226.395 740.329 226.395 731.603 Q226.395 722.853 229.45 718.269 Q232.529 713.663 238.339 713.663 Z" fill="#000000" fill-rule="nonzero" fill-opacity="1" /><path clip-path="url(#clip310)" d="M715.254 744.913 L731.574 744.913 L731.574 748.848 L709.629 748.848 L709.629 744.913 Q712.291 742.158 716.875 737.528 Q721.481 732.876 722.662 731.533 Q724.907 729.01 725.787 727.274 Q726.689 725.515 726.689 723.825 Q726.689 721.07 724.745 719.334 Q722.824 717.598 719.722 717.598 Q717.523 717.598 715.069 718.362 Q712.638 719.126 709.861 720.677 L709.861 715.955 Q712.685 714.82 715.138 714.242 Q717.592 713.663 719.629 713.663 Q725 713.663 728.194 716.348 Q731.388 719.033 731.388 723.524 Q731.388 725.654 730.578 727.575 Q729.791 729.473 727.685 732.066 Q727.106 732.737 724.004 735.954 Q720.902 739.149 715.254 744.913 Z" fill="#000000" fill-rule="nonzero" fill-opacity="1" /><path clip-path="url(#clip310)" d="M741.435 714.288 L759.791 714.288 L759.791 718.223 L745.717 718.223 L745.717 726.695 Q746.736 726.348 747.754 726.186 Q748.773 726.001 749.791 726.001 Q755.578 726.001 758.958 729.172 Q762.337 732.343 762.337 737.76 Q762.337 743.339 758.865 746.44 Q755.393 749.519 749.073 749.519 Q746.898 749.519 744.629 749.149 Q742.384 748.778 739.976 748.038 L739.976 743.339 Q742.06 744.473 744.282 745.028 Q746.504 745.584 748.981 745.584 Q752.985 745.584 755.323 743.478 Q757.661 741.371 757.661 737.76 Q757.661 734.149 755.323 732.042 Q752.985 729.936 748.981 729.936 Q747.106 729.936 745.231 730.353 Q743.379 730.769 741.435 731.649 L741.435 714.288 Z" fill="#000000" fill-rule="nonzero" fill-opacity="1" /><path clip-path="url(#clip310)" d="M781.55 717.367 Q777.939 717.367 776.11 720.931 Q774.305 724.473 774.305 731.603 Q774.305 738.709 776.11 742.274 Q777.939 745.815 781.55 745.815 Q785.184 745.815 786.99 742.274 Q788.819 738.709 788.819 731.603 Q788.819 724.473 786.99 720.931 Q785.184 717.367 781.55 717.367 M781.55 713.663 Q787.36 713.663 790.416 718.269 Q793.495 722.853 793.495 731.603 Q793.495 740.329 790.416 744.936 Q787.36 749.519 781.55 749.519 Q775.74 749.519 772.661 744.936 Q769.606 740.329 769.606 731.603 Q769.606 722.853 772.661 718.269 Q775.74 713.663 781.55 713.663 Z" fill="#000000" fill-rule="nonzero" fill-opacity="1" /><path clip-path="url(#clip310)" d="M1224.4 714.288 L1242.76 714.288 L1242.76 718.223 L1228.69 718.223 L1228.69 726.695 Q1229.7 726.348 1230.72 726.186 Q1231.74 726.001 1232.76 726.001 Q1238.55 726.001 1241.93 729.172 Q1245.31 732.343 1245.31 737.76 Q1245.31 743.339 1241.83 746.44 Q1238.36 749.519 1232.04 749.519 Q1229.87 749.519 1227.6 749.149 Q1225.35 748.778 1222.94 748.038 L1222.94 743.339 Q1225.03 744.473 1227.25 745.028 Q1229.47 745.584 1231.95 745.584 Q1235.95 745.584 1238.29 743.478 Q1240.63 741.371 1240.63 737.76 Q1240.63 734.149 1238.29 732.042 Q1235.95 729.936 1231.95 729.936 Q1230.07 729.936 1228.2 730.353 Q1226.35 730.769 1224.4 731.649 L1224.4 714.288 Z" fill="#000000" fill-rule="nonzero" fill-opacity="1" /><path clip-path="url(#clip310)" d="M1264.52 717.367 Q1260.91 717.367 1259.08 720.931 Q1257.27 724.473 1257.27 731.603 Q1257.27 738.709 1259.08 742.274 Q1260.91 745.815 1264.52 745.815 Q1268.15 745.815 1269.96 742.274 Q1271.79 738.709 1271.79 731.603 Q1271.79 724.473 1269.96 720.931 Q1268.15 717.367 1264.52 717.367 M1264.52 713.663 Q1270.33 713.663 1273.38 718.269 Q1276.46 722.853 1276.46 731.603 Q1276.46 740.329 1273.38 744.936 Q1270.33 749.519 1264.52 749.519 Q1258.71 749.519 1255.63 744.936 Q1252.57 740.329 1252.57 731.603 Q1252.57 722.853 1255.63 718.269 Q1258.71 713.663 1264.52 713.663 Z" fill="#000000" fill-rule="nonzero" fill-opacity="1" /><path clip-path="url(#clip310)" d="M1294.68 717.367 Q1291.07 717.367 1289.24 720.931 Q1287.44 724.473 1287.44 731.603 Q1287.44 738.709 1289.24 742.274 Q1291.07 745.815 1294.68 745.815 Q1298.31 745.815 1300.12 742.274 Q1301.95 738.709 1301.95 731.603 Q1301.95 724.473 1300.12 720.931 Q1298.31 717.367 1294.68 717.367 M1294.68 713.663 Q1300.49 713.663 1303.55 718.269 Q1306.62 722.853 1306.62 731.603 Q1306.62 740.329 1303.55 744.936 Q1300.49 749.519 1294.68 749.519 Q1288.87 749.519 1285.79 744.936 Q1282.74 740.329 1282.74 731.603 Q1282.74 722.853 1285.79 718.269 Q1288.87 713.663 1294.68 713.663 Z" fill="#000000" fill-rule="nonzero" fill-opacity="1" /><path clip-path="url(#clip310)" d="M1736.28 714.288 L1758.51 714.288 L1758.51 716.279 L1745.96 748.848 L1741.08 748.848 L1752.88 718.223 L1736.28 718.223 L1736.28 714.288 Z" fill="#000000" fill-rule="nonzero" fill-opacity="1" /><path clip-path="url(#clip310)" d="M1767.67 714.288 L1786.03 714.288 L1786.03 718.223 L1771.95 718.223 L1771.95 726.695 Q1772.97 726.348 1773.99 726.186 Q1775.01 726.001 1776.03 726.001 Q1781.82 726.001 1785.2 729.172 Q1788.57 732.343 1788.57 737.76 Q1788.57 743.339 1785.1 746.44 Q1781.63 749.519 1775.31 749.519 Q1773.14 749.519 1770.87 749.149 Q1768.62 748.778 1766.21 748.038 L1766.21 743.339 Q1768.3 744.473 1770.52 745.028 Q1772.74 745.584 1775.22 745.584 Q1779.22 745.584 1781.56 743.478 Q1783.9 741.371 1783.9 737.76 Q1783.9 734.149 1781.56 732.042 Q1779.22 729.936 1775.22 729.936 Q1773.34 729.936 1771.47 730.353 Q1769.62 730.769 1767.67 731.649 L1767.67 714.288 Z" fill="#000000" fill-rule="nonzero" fill-opacity="1" /><path clip-path="url(#clip310)" d="M1807.79 717.367 Q1804.18 717.367 1802.35 720.931 Q1800.54 724.473 1800.54 731.603 Q1800.54 738.709 1802.35 742.274 Q1804.18 745.815 1807.79 745.815 Q1811.42 745.815 1813.23 742.274 Q1815.06 738.709 1815.06 731.603 Q1815.06 724.473 1813.23 720.931 Q1811.42 717.367 1807.79 717.367 M1807.79 713.663 Q1813.6 713.663 1816.65 718.269 Q1819.73 722.853 1819.73 731.603 Q1819.73 740.329 1816.65 744.936 Q1813.6 749.519 1807.79 749.519 Q1801.98 749.519 1798.9 744.936 Q1795.84 740.329 1795.84 731.603 Q1795.84 722.853 1798.9 718.269 Q1801.98 713.663 1807.79 713.663 Z" fill="#000000" fill-rule="nonzero" fill-opacity="1" /><path clip-path="url(#clip310)" d="M2235.76 744.913 L2243.4 744.913 L2243.4 718.547 L2235.09 720.214 L2235.09 715.955 L2243.35 714.288 L2248.02 714.288 L2248.02 744.913 L2255.66 744.913 L2255.66 748.848 L2235.76 748.848 L2235.76 744.913 Z" fill="#000000" fill-rule="nonzero" fill-opacity="1" /><path clip-path="url(#clip310)" d="M2275.11 717.367 Q2271.5 717.367 2269.67 720.931 Q2267.86 724.473 2267.86 731.603 Q2267.86 738.709 2269.67 742.274 Q2271.5 745.815 2275.11 745.815 Q2278.74 745.815 2280.55 742.274 Q2282.38 738.709 2282.38 731.603 Q2282.38 724.473 2280.55 720.931 Q2278.74 717.367 2275.11 717.367 M2275.11 713.663 Q2280.92 713.663 2283.97 718.269 Q2287.05 722.853 2287.05 731.603 Q2287.05 740.329 2283.97 744.936 Q2280.92 749.519 2275.11 749.519 Q2269.3 749.519 2266.22 744.936 Q2263.16 740.329 2263.16 731.603 Q2263.16 722.853 2266.22 718.269 Q2269.3 713.663 2275.11 713.663 Z" fill="#000000" fill-rule="nonzero" fill-opacity="1" /><path clip-path="url(#clip310)" d="M2305.27 717.367 Q2301.66 717.367 2299.83 720.931 Q2298.02 724.473 2298.02 731.603 Q2298.02 738.709 2299.83 742.274 Q2301.66 745.815 2305.27 745.815 Q2308.9 745.815 2310.71 742.274 Q2312.54 738.709 2312.54 731.603 Q2312.54 724.473 2310.71 720.931 Q2308.9 717.367 2305.27 717.367 M2305.27 713.663 Q2311.08 713.663 2314.14 718.269 Q2317.21 722.853 2317.21 731.603 Q2317.21 740.329 2314.14 744.936 Q2311.08 749.519 2305.27 749.519 Q2299.46 749.519 2296.38 744.936 Q2293.33 740.329 2293.33 731.603 Q2293.33 722.853 2296.38 718.269 Q2299.46 713.663 2305.27 713.663 Z" fill="#000000" fill-rule="nonzero" fill-opacity="1" /><path clip-path="url(#clip310)" d="M2335.43 717.367 Q2331.82 717.367 2329.99 720.931 Q2328.19 724.473 2328.19 731.603 Q2328.19 738.709 2329.99 742.274 Q2331.82 745.815 2335.43 745.815 Q2339.07 745.815 2340.87 742.274 Q2342.7 738.709 2342.7 731.603 Q2342.7 724.473 2340.87 720.931 Q2339.07 717.367 2335.43 717.367 M2335.43 713.663 Q2341.24 713.663 2344.3 718.269 Q2347.38 722.853 2347.38 731.603 Q2347.38 740.329 2344.3 744.936 Q2341.24 749.519 2335.43 749.519 Q2329.62 749.519 2326.54 744.936 Q2323.49 740.329 2323.49 731.603 Q2323.49 722.853 2326.54 718.269 Q2329.62 713.663 2335.43 713.663 Z" fill="#000000" fill-rule="nonzero" fill-opacity="1" /><polyline clip-path="url(#clip310)" style="stroke:#000000; stroke-linecap:round; stroke-linejoin:round; stroke-width:4; stroke-opacity:1; fill:none" points="178.867,686.448 178.867,47.2441 "/>
<polyline clip-path="url(#clip310)" style="stroke:#000000; stroke-linecap:round; stroke-linejoin:round; stroke-width:4; stroke-opacity:1; fill:none" points="178.867,686.448 197.764,686.448 "/>
<polyline clip-path="url(#clip310)" style="stroke:#000000; stroke-linecap:round; stroke-linejoin:round; stroke-width:4; stroke-opacity:1; fill:none" points="178.867,526.647 197.764,526.647 "/>
<polyline clip-path="url(#clip310)" style="stroke:#000000; stroke-linecap:round; stroke-linejoin:round; stroke-width:4; stroke-opacity:1; fill:none" points="178.867,366.846 197.764,366.846 "/>
<polyline clip-path="url(#clip310)" style="stroke:#000000; stroke-linecap:round; stroke-linejoin:round; stroke-width:4; stroke-opacity:1; fill:none" points="178.867,207.045 197.764,207.045 "/>
<polyline clip-path="url(#clip310)" style="stroke:#000000; stroke-linecap:round; stroke-linejoin:round; stroke-width:4; stroke-opacity:1; fill:none" points="178.867,47.2441 197.764,47.2441 "/>
<path clip-path="url(#clip310)" d="M50.9921 686.899 L80.6679 686.899 L80.6679 690.834 L50.9921 690.834 L50.9921 686.899 Z" fill="#000000" fill-rule="nonzero" fill-opacity="1" /><path clip-path="url(#clip310)" d="M91.5706 699.793 L99.2095 699.793 L99.2095 673.427 L90.8993 675.094 L90.8993 670.835 L99.1632 669.168 L103.839 669.168 L103.839 699.793 L111.478 699.793 L111.478 703.728 L91.5706 703.728 L91.5706 699.793 Z" fill="#000000" fill-rule="nonzero" fill-opacity="1" /><path clip-path="url(#clip310)" d="M130.922 672.247 Q127.311 672.247 125.482 675.811 Q123.677 679.353 123.677 686.483 Q123.677 693.589 125.482 697.154 Q127.311 700.695 130.922 700.695 Q134.556 700.695 136.362 697.154 Q138.191 693.589 138.191 686.483 Q138.191 679.353 136.362 675.811 Q134.556 672.247 130.922 672.247 M130.922 668.543 Q136.732 668.543 139.788 673.149 Q142.867 677.733 142.867 686.483 Q142.867 695.209 139.788 699.816 Q136.732 704.399 130.922 704.399 Q125.112 704.399 122.033 699.816 Q118.978 695.209 118.978 686.483 Q118.978 677.733 122.033 673.149 Q125.112 668.543 130.922 668.543 Z" fill="#000000" fill-rule="nonzero" fill-opacity="1" /><path clip-path="url(#clip310)" d="M82.1494 527.098 L111.825 527.098 L111.825 531.033 L82.1494 531.033 L82.1494 527.098 Z" fill="#000000" fill-rule="nonzero" fill-opacity="1" /><path clip-path="url(#clip310)" d="M121.964 509.367 L140.32 509.367 L140.32 513.302 L126.246 513.302 L126.246 521.774 Q127.265 521.427 128.283 521.265 Q129.302 521.08 130.32 521.08 Q136.107 521.08 139.487 524.251 Q142.867 527.422 142.867 532.839 Q142.867 538.418 139.394 541.52 Q135.922 544.598 129.603 544.598 Q127.427 544.598 125.158 544.228 Q122.913 543.857 120.506 543.117 L120.506 538.418 Q122.589 539.552 124.811 540.108 Q127.033 540.663 129.51 540.663 Q133.515 540.663 135.853 538.557 Q138.191 536.45 138.191 532.839 Q138.191 529.228 135.853 527.121 Q133.515 525.015 129.51 525.015 Q127.635 525.015 125.76 525.432 Q123.908 525.848 121.964 526.728 L121.964 509.367 Z" fill="#000000" fill-rule="nonzero" fill-opacity="1" /><path clip-path="url(#clip310)" d="M130.922 352.645 Q127.311 352.645 125.482 356.209 Q123.677 359.751 123.677 366.881 Q123.677 373.987 125.482 377.552 Q127.311 381.094 130.922 381.094 Q134.556 381.094 136.362 377.552 Q138.191 373.987 138.191 366.881 Q138.191 359.751 136.362 356.209 Q134.556 352.645 130.922 352.645 M130.922 348.941 Q136.732 348.941 139.788 353.547 Q142.867 358.131 142.867 366.881 Q142.867 375.608 139.788 380.214 Q136.732 384.797 130.922 384.797 Q125.112 384.797 122.033 380.214 Q118.978 375.608 118.978 366.881 Q118.978 358.131 122.033 353.547 Q125.112 348.941 130.922 348.941 Z" fill="#000000" fill-rule="nonzero" fill-opacity="1" /><path clip-path="url(#clip310)" d="M121.964 189.765 L140.32 189.765 L140.32 193.7 L126.246 193.7 L126.246 202.172 Q127.265 201.825 128.283 201.663 Q129.302 201.478 130.32 201.478 Q136.107 201.478 139.487 204.649 Q142.867 207.82 142.867 213.237 Q142.867 218.816 139.394 221.918 Q135.922 224.996 129.603 224.996 Q127.427 224.996 125.158 224.626 Q122.913 224.256 120.506 223.515 L120.506 218.816 Q122.589 219.95 124.811 220.506 Q127.033 221.061 129.51 221.061 Q133.515 221.061 135.853 218.955 Q138.191 216.848 138.191 213.237 Q138.191 209.626 135.853 207.52 Q133.515 205.413 129.51 205.413 Q127.635 205.413 125.76 205.83 Q123.908 206.246 121.964 207.126 L121.964 189.765 Z" fill="#000000" fill-rule="nonzero" fill-opacity="1" /><path clip-path="url(#clip310)" d="M91.5706 60.5889 L99.2095 60.5889 L99.2095 34.2233 L90.8993 35.89 L90.8993 31.6308 L99.1632 29.9641 L103.839 29.9641 L103.839 60.5889 L111.478 60.5889 L111.478 64.5241 L91.5706 64.5241 L91.5706 60.5889 Z" fill="#000000" fill-rule="nonzero" fill-opacity="1" /><path clip-path="url(#clip310)" d="M130.922 33.0428 Q127.311 33.0428 125.482 36.6076 Q123.677 40.1492 123.677 47.2788 Q123.677 54.3853 125.482 57.9501 Q127.311 61.4917 130.922 61.4917 Q134.556 61.4917 136.362 57.9501 Q138.191 54.3853 138.191 47.2788 Q138.191 40.1492 136.362 36.6076 Q134.556 33.0428 130.922 33.0428 M130.922 29.3391 Q136.732 29.3391 139.788 33.9456 Q142.867 38.5289 142.867 47.2788 Q142.867 56.0056 139.788 60.6121 Q136.732 65.1954 130.922 65.1954 Q125.112 65.1954 122.033 60.6121 Q118.978 56.0056 118.978 47.2788 Q118.978 38.5289 122.033 33.9456 Q125.112 29.3391 130.922 29.3391 Z" fill="#000000" fill-rule="nonzero" fill-opacity="1" /><polyline clip-path="url(#clip312)" style="stroke:#009af9; stroke-linecap:round; stroke-linejoin:round; stroke-width:4; stroke-opacity:1; fill:none" points="240.392,334.886 242.445,338.505 244.498,325.406 246.55,318.869 248.603,319.518 250.656,301.14 252.709,328.803 254.762,308.79 256.815,308.774 258.868,326.466 260.921,330.804 262.974,332.313 265.027,323.138 267.079,322.155 269.132,322.017 271.185,419.408 273.238,420.505 275.291,411.739 277.344,413.21 279.397,377.021 281.45,398.858 283.503,384.927 285.555,385.688 287.608,401.984 289.661,403.706 291.714,410.196 293.767,393.522 295.82,392.888 297.873,393.385 299.926,393.383 301.979,390.884 304.031,390.966 306.084,390.269 308.137,381.846 310.19,385.718 312.243,386.213 314.296,399.527 316.349,396.831 318.402,397.086 320.455,391.152 322.507,373.804 324.56,384.928 326.613,381.532 328.666,388.463 330.719,398.727 332.772,432.179 334.825,436.562 336.878,436.357 338.931,434.607 340.984,437.23 343.036,403.76 345.089,431.612 347.142,474.559 349.195,466.361 351.248,462.191 353.301,454.024 355.354,439.115 357.407,400.269 359.46,405.585 361.512,399.742 363.565,390.509 365.618,427.037 367.671,399.991 369.724,397.602 371.777,400.413 373.83,355.18 375.883,367.825 377.936,362.84 379.988,352.528 382.041,362.177 384.094,368.145 386.147,369.394 388.2,369.408 390.253,369.436 392.306,309.647 394.359,309.636 396.412,317.579 398.464,317.436 400.517,310.883 402.57,290.334 404.623,271.104 406.676,271.964 408.729,281.756 410.782,278.772 412.835,285.987 414.888,318.514 416.94,311.258 418.993,280.181 421.046,249.807 423.099,340.139 425.152,334.387 427.205,327.717 429.258,305.784 431.311,298.296 433.364,289.89 435.417,291.662 437.469,294.997 439.522,285.237 441.575,417.109 443.628,418.482 445.681,418.491 447.734,417.363 449.787,407.333 451.84,392.404 453.893,392.14 455.945,372.689 457.998,313.105 460.051,301.418 462.104,298.525 464.157,292.503 466.21,310.139 468.263,310.125 470.316,306.609 472.369,316.075 474.421,275.957 476.474,264.494 478.527,268.442 480.58,283.861 482.633,283.403 484.686,301.586 486.739,300.594 488.792,308.554 490.845,301.577 492.897,384.839 494.95,327.462 497.003,329.334 499.056,426.33 501.109,400.821 503.162,397.823 505.215,377.716 507.268,373.239 509.321,349.039 511.374,350.467 513.426,355.761 515.479,311.662 517.532,326.467 519.585,328.983 521.638,328.066 523.691,328.006 525.744,328.157 527.797,329.763 529.85,334.121 531.902,322.92 533.955,314.918 536.008,360.383 538.061,381.275 540.114,383.564 542.167,380.346 544.22,380.364 546.273,398.824 548.326,330.972 550.378,379.35 552.431,362.387 554.484,362.467 556.537,333.759 558.59,342.647 560.643,342.365 562.696,338.275 564.749,340.35 566.802,341.719 568.854,333.311 570.907,335.72 572.96,334.679 575.013,347.206 577.066,341.514 579.119,339.643 581.172,352.377 583.225,351.867 585.278,353.477 587.331,354.835 589.383,354.501 591.436,357.094 593.489,336.043 595.542,342.433 597.595,353.014 599.648,356.471 601.701,418.76 603.754,420.271 605.807,326.564 607.859,372.228 609.912,344.609 611.965,344.678 614.018,342.038 616.071,346.357 618.124,329.978 620.177,329.764 622.23,330.238 624.283,330.112 626.335,328.643 628.388,329.356 630.441,322.665 632.494,352.591 634.547,388.912 636.6,385.203 638.653,391.914 640.706,391.578 642.759,394.704 644.811,382.04 646.864,378.761 648.917,378.437 650.97,389.336 653.023,394.029 655.076,390.414 657.129,393.388 659.182,393.747 661.235,395.7 663.288,396.219 665.34,379.164 667.393,380.243 669.446,383.254 671.499,383.688 673.552,383.85 675.605,383.545 677.658,379.881 679.711,381.218 681.764,375.435 683.816,375.838 685.869,373.777 687.922,364.714 689.975,364.706 692.028,363.829 694.081,363.773 696.134,361.749 698.187,360.73 700.24,360.217 702.292,359.395 704.345,359.589 706.398,366.112 708.451,348.42 710.504,336.906 712.557,339.124 714.61,347.868 716.663,347.884 718.716,383.487 720.768,417.957 722.821,416.241 724.874,399.278 726.927,399.458 728.98,449.279 731.033,446.452 733.086,444.107 735.139,417.514 737.192,482.152 739.245,479.077 741.297,477.028 743.35,397.744 745.403,390.422 747.456,399.042 749.509,397.326 751.562,341.284 753.615,340.24 755.668,341.477 757.721,438.861 759.773,407.571 761.826,431.611 763.879,435.269 765.932,435.548 767.985,436.56 770.038,411.104 772.091,413.113 774.144,330.182 776.197,322.989 778.249,348.133 780.302,285.338 782.355,284.842 784.408,285.749 786.461,265.787 788.514,236.211 790.567,237.015 792.62,248.612 794.673,190.939 796.725,191.034 798.778,225.721 800.831,226.811 802.884,271.932 804.937,271.633 806.99,256.305 809.043,233.82 811.096,244.361 813.149,254.234 815.202,250.572 817.254,250.747 819.307,250.426 821.36,274.176 823.413,274.538 825.466,272.322 827.519,296.765 829.572,296.552 831.625,257.421 833.678,320.594 835.73,300.677 837.783,390.908 839.836,391.404 841.889,384.493 843.942,376.689 845.995,381.481 848.048,376.935 850.101,376.148 852.154,373.977 854.206,368.838 856.259,338.015 858.312,336.653 860.365,306.019 862.418,298.785 864.471,344.133 866.524,344.41 868.577,339.651 870.63,345.522 872.682,347.383 874.735,371.019 876.788,367.001 878.841,329.307 880.894,308.532 882.947,310.815 885,316.366 887.053,316.676 889.106,318.611 891.159,318.942 893.211,324.506 895.264,322.203 897.317,338.455 899.37,349.793 901.423,344.799 903.476,344.793 905.529,342.255 907.582,308.633 909.635,309.935 911.687,309.08 913.74,309.082 915.793,328.472 917.846,325.085 919.899,340.244 921.952,340.063 924.005,324.218 926.058,356.329 928.111,331.469 930.163,330.102 932.216,321.062 934.269,315.738 936.322,315.209 938.375,311.46 940.428,317.083 942.481,317.106 944.534,313.753 946.587,308.958 948.639,315.935 950.692,316.384 952.745,315.42 954.798,316.071 956.851,315.907 958.904,315.773 960.957,318.653 963.01,361.832 965.063,365.003 967.116,364.159 969.168,367.341 971.221,337.212 973.274,333.616 975.327,335.432 977.38,326.772 979.433,286.891 981.486,386.217 983.539,386.209 985.592,390.449 987.644,391.525 989.697,390.514 991.75,438.507 993.803,414.958 995.856,415.064 997.909,371.159 999.962,385.16 1002.01,401.824 1004.07,410.416 1006.12,430.707 1008.17,349.185 1010.23,326.698 1012.28,326.622 1014.33,345.816 1016.38,369.834 1018.44,358.134 1020.49,372.488 1022.54,359.593 1024.6,361.532 1026.65,342.105 1028.7,300.933 1030.76,285.651 1032.81,448.81 1034.86,430.693 1036.91,434.269 1038.97,349.147 1041.02,328.891 1043.07,353.591 1045.13,353.22 1047.18,351.784 1049.23,364.377 1051.28,389.754 1053.34,372.749 1055.39,373.449 1057.44,372.083 1059.5,391.855 1061.55,366.514 1063.6,363.114 1065.65,362.817 1067.71,351.879 1069.76,351.554 1071.81,340.339 1073.87,353.427 1075.92,347.215 1077.97,359.4 1080.02,358.899 1082.08,368.281 1084.13,375.872 1086.18,397.413 1088.24,397.955 1090.29,398.061 1092.34,398.729 1094.39,398.792 1096.45,397.376 1098.5,397.097 1100.55,357.077 1102.61,357.454 1104.66,356.946 1106.71,318.686 1108.77,319.783 1110.82,362.591 1112.87,367.496 1114.92,347.469 1116.98,352.109 1119.03,321.414 1121.08,326.901 1123.14,338.046 1125.19,337.487 1127.24,349.166 1129.29,348.231 1131.35,349.038 1133.4,348.155 1135.45,352.807 1137.51,353.155 1139.56,353.251 1141.61,351.229 1143.66,349.338 1145.72,357.863 1147.77,358.765 1149.82,365.831 1151.88,373.732 1153.93,372.229 1155.98,372.449 1158.03,372.683 1160.09,372.509 1162.14,372.509 1164.19,371.195 1166.25,371.888 1168.3,367.84 1170.35,365.471 1172.4,412.804 1174.46,414.94 1176.51,416.022 1178.56,419.829 1180.62,421.163 1182.67,369.65 1184.72,369.724 1186.77,376.062 1188.83,387.739 1190.88,384.161 1192.93,384.148 1194.99,383.7 1197.04,358.965 1199.09,361.331 1201.15,318.011 1203.2,301.603 1205.25,283.328 1207.3,283.115 1209.36,345.404 1211.41,345.515 1213.46,344.07 1215.52,424.222 1217.57,422.871 1219.62,377.78 1221.67,435.596 1223.73,408.336 1225.78,392.554 1227.83,391.148 1229.89,388.415 1231.94,388.309 1233.99,382.63 1236.04,381.092 1238.1,386.562 1240.15,425.418 1242.2,425.312 1244.26,427.158 1246.31,425.304 1248.36,434.525 1250.41,416.567 1252.47,447.666 1254.52,416.289 1256.57,387.639 1258.63,254.453 1260.68,350.655 1262.73,393.657 1264.78,476.24 1266.84,475.802 1268.89,401.697 1270.94,396.648 1273,384.531 1275.05,329.82 1277.1,328.705 1279.16,327.404 1281.21,327.346 1283.26,325.054 1285.31,325.895 1287.37,310.033 1289.42,310.026 1291.47,324.271 1293.53,318.821 1295.58,336.607 1297.63,349.987 1299.68,336.15 1301.74,353.416 1303.79,348.539 1305.84,465.919 1307.9,464.519 1309.95,463.535 1312,462.121 1314.05,462.058 1316.11,404.079 1318.16,410.37 1320.21,390.929 1322.27,388.501 1324.32,386.165 1326.37,390.759 1328.42,359.78 1330.48,359.478 1332.53,342.47 1334.58,332.781 1336.64,331.048 1338.69,341.73 1340.74,344.421 1342.79,246.022 1344.85,391.387 1346.9,379.603 1348.95,380.136 1351.01,374.25 1353.06,322.135 1355.11,313.372 1357.16,310.837 1359.22,317.631 1361.27,320.124 1363.32,244.115 1365.38,244.075 1367.43,246.87 1369.48,243.955 1371.54,221.175 1373.59,232.905 1375.64,233.915 1377.69,265.708 1379.75,274.374 1381.8,396.336 1383.85,398.576 1385.91,409.233 1387.96,408.992 1390.01,356.371 1392.06,332.928 1394.12,336.533 1396.17,336.396 1398.22,336.64 1400.28,335.754 1402.33,336.017 1404.38,394.48 1406.43,393.849 1408.49,412.196 1410.54,417.238 1412.59,432.247 1414.65,436.383 1416.7,467.795 1418.75,467.281 1420.8,472.451 1422.86,463.038 1424.91,437.231 1426.96,417.469 1429.02,418.37 1431.07,411.365 1433.12,388.873 1435.17,377.972 1437.23,373.583 1439.28,401.725 1441.33,458.566 1443.39,456.239 1445.44,458.691 1447.49,456.876 1449.55,462.688 1451.6,440.414 1453.65,483.567 1455.7,483.606 1457.76,412.944 1459.81,412.254 1461.86,390.595 1463.92,362.358 1465.97,371.487 1468.02,371.766 1470.07,356.075 1472.13,354.543 1474.18,325.172 1476.23,320.387 1478.29,271.881 1480.34,267.189 1482.39,321.191 1484.44,339.606 1486.5,339.491 1488.55,405.618 1490.6,382.116 1492.66,279.444 1494.71,269.107 1496.76,245.52 1498.81,230.255 1500.87,308.289 1502.92,356.507 1504.97,356.084 1507.03,358.433 1509.08,394.459 1511.13,389.756 1513.18,352.219 1515.24,315.021 1517.29,319.138 1519.34,319.454 1521.4,335.082 1523.45,334.928 1525.5,334.852 1527.55,334.635 1529.61,337.134 1531.66,350.68 1533.71,331.842 1535.77,324.652 1537.82,317.384 1539.87,320.843 1541.93,319.917 1543.98,319.84 1546.03,322.488 1548.08,324.498 1550.14,300.481 1552.19,327.972 1554.24,333.866 1556.3,370.4 1558.35,370.712 1560.4,362.967 1562.45,367.817 1564.51,369.295 1566.56,377.991 1568.61,378.953 1570.67,354.924 1572.72,405.903 1574.77,391.251 1576.82,390.671 1578.88,391.748 1580.93,391.383 1582.98,396.655 1585.04,397.8 1587.09,402.427 1589.14,409.309 1591.19,409.078 1593.25,374.019 1595.3,381.99 1597.35,344.043 1599.41,365.625 1601.46,368.466 1603.51,373.498 1605.56,373.548 1607.62,374.614 1609.67,376.216 1611.72,375.561 1613.78,369.763 1615.83,370.185 1617.88,377.924 1619.94,350.205 1621.99,362.298 1624.04,359.379 1626.09,359.353 1628.15,358.24 1630.2,361.037 1632.25,373.801 1634.31,370.919 1636.36,355.864 1638.41,356.735 1640.46,356.342 1642.52,349.868 1644.57,350.379 1646.62,348.141 1648.68,355.676 1650.73,355.576 1652.78,354.649 1654.83,354.768 1656.89,354.778 1658.94,354.986 1660.99,354.565 1663.05,355.03 1665.1,356.18 1667.15,361.381 1669.2,361.368 1671.26,376.478 1673.31,336.812 1675.36,337.079 1677.42,335.422 1679.47,335.156 1681.52,335.151 1683.57,334.551 1685.63,317.106 1687.68,322.813 1689.73,322.902 1691.79,322.658 1693.84,328.627 1695.89,362.151 1697.94,360.699 1700,359.729 1702.05,360.691 1704.1,360.962 1706.16,350.728 1708.21,354.418 1710.26,354.469 1712.32,350.455 1714.37,352.314 1716.42,381.413 1718.47,381.917 1720.53,360.57 1722.58,345 1724.63,442.559 1726.69,441.75 1728.74,437.671 1730.79,342.342 1732.84,344.163 1734.9,345.318 1736.95,356.407 1739,365.316 1741.06,367.276 1743.11,335.307 1745.16,335.608 1747.21,328.326 1749.27,328.017 1751.32,327.421 1753.37,315.326 1755.43,311.495 1757.48,311.308 1759.53,327.397 1761.58,306.798 1763.64,318.85 1765.69,325.426 1767.74,326.708 1769.8,336.403 1771.85,341.861 1773.9,312.137 1775.95,323.147 1778.01,410.894 1780.06,378.633 1782.11,229.591 1784.17,263.106 1786.22,398.298 1788.27,396.796 1790.33,397.301 1792.38,397.318 1794.43,395.356 1796.48,388.06 1798.54,387.941 1800.59,396.303 1802.64,464.571 1804.7,438.33 1806.75,464.811 1808.8,432.443 1810.85,484.228 1812.91,518.357 1814.96,527.243 1817.01,496.69 1819.07,509.709 1821.12,520.53 1823.17,523.808 1825.22,535.201 1827.28,338.06 1829.33,266.041 1831.38,273.292 1833.44,299.864 1835.49,286.834 1837.54,286.343 1839.59,286.13 1841.65,312.947 1843.7,330.852 1845.75,355.681 1847.81,355.745 1849.86,366.404 1851.91,361.746 1853.96,397.068 1856.02,397.545 1858.07,398.724 1860.12,398.369 1862.18,408.185 1864.23,402.472 1866.28,450.029 1868.34,414.309 1870.39,414.15 1872.44,414.388 1874.49,404.021 1876.55,315.464 1878.6,302.828 1880.65,315.49 1882.71,313.819 1884.76,289.896 1886.81,298.983 1888.86,308.564 1890.92,308.559 1892.97,308.146 1895.02,283.709 1897.08,285.185 1899.13,290.279 1901.18,291.503 1903.23,285.261 1905.29,279.139 1907.34,281.896 1909.39,286.407 1911.45,286.542 1913.5,285.151 1915.55,279.61 1917.6,281.966 1919.66,282.772 1921.71,381.274 1923.76,339.489 1925.82,343.618 1927.87,380.612 1929.92,376.939 1931.97,382.437 1934.03,377.169 1936.08,376.457 1938.13,361.347 1940.19,360.988 1942.24,377.463 1944.29,379.083 1946.34,378.676 1948.4,378.917 1950.45,377.763 1952.5,380.457 1954.56,380.444 1956.61,381.126 1958.66,380.471 1960.72,380.364 1962.77,379.767 1964.82,338.027 1966.87,339.525 1968.93,339.344 1970.98,340.271 1973.03,339.36 1975.09,336.251 1977.14,377.544 1979.19,361.538 1981.24,361.263 1983.3,363.221 1985.35,363.202 1987.4,361.23 1989.46,363.661 1991.51,363.693 1993.56,360.177 1995.61,361.334 1997.67,360.214 1999.72,359.947 2001.77,359.53 2003.83,361.721 2005.88,358.002 2007.93,356.75 2009.98,355.221 2012.04,387.972 2014.09,388.215 2016.14,382.524 2018.2,382.65 2020.25,382.321 2022.3,382.909 2024.35,382.457 2026.41,369.316 2028.46,362.423 2030.51,360.366 2032.57,361.842 2034.62,361.826 2036.67,365.872 2038.73,363.451 2040.78,363.957 2042.83,362.837 2044.88,388.425 2046.94,389.494 2048.99,377.633 2051.04,380.253 2053.1,383.326 2055.15,370.326 2057.2,380.243 2059.25,378.217 2061.31,378.229 2063.36,378.244 2065.41,378.188 2067.47,375.281 2069.52,378.527 2071.57,377.897 2073.62,378.072 2075.68,378.055 2077.73,373.703 2079.78,373.862 2081.84,377.511 2083.89,380.16 2085.94,379.998 2087.99,377.431 2090.05,384.899 2092.1,325.475 2094.15,321.977 2096.21,320.394 2098.26,320.436 2100.31,337.567 2102.36,336.887 2104.42,327.12 2106.47,356.94 2108.52,352.164 2110.58,370.585 2112.63,350.887 2114.68,351.074 2116.73,369.924 2118.79,365.049 2120.84,372.627 2122.89,382.389 2124.95,373.601 2127,369.914 2129.05,367.306 2131.11,367.21 2133.16,367.229 2135.21,373.656 2137.26,372.61 2139.32,376.477 2141.37,376.901 2143.42,368.908 2145.48,362.382 2147.53,360.786 2149.58,363.773 2151.63,366.948 2153.69,366.762 2155.74,366.413 2157.79,366.397 2159.85,377.247 2161.9,377.328 2163.95,377.175 2166,377.238 2168.06,347.169 2170.11,374.906 2172.16,374.304 2174.22,365.589 2176.27,356.539 2178.32,325.287 2180.37,325.779 2182.43,325.962 2184.48,325.835 2186.53,325.861 2188.59,320.842 2190.64,353.626 2192.69,353.611 2194.74,353.23 2196.8,358.909 2198.85,396.406 2200.9,396.573 2202.96,381.61 2205.01,404.451 2207.06,406.066 2209.12,418.046 2211.17,347.136 2213.22,346.61 2215.27,395.251 2217.33,409.935 2219.38,408.664 2221.43,407.093 2223.49,421.858 2225.54,414.562 2227.59,416.601 2229.64,416.905 2231.7,413.52 2233.75,416.482 2235.8,416.465 2237.86,405.609 2239.91,395.634 2241.96,395.216 2244.01,396.612 2246.07,386.28 2248.12,390.059 2250.17,390.03 2252.23,393.471 2254.28,347.376 2256.33,347.389 2258.38,340.484 2260.44,342.016 2262.49,362.232 2264.54,374.684 2266.6,374.803 2268.65,374.804 2270.7,373.871 2272.75,374.126 2274.81,376.568 2276.86,376.563 2278.91,381.573 2280.97,352.103 2283.02,365.955 2285.07,378.715 2287.12,372.386 2289.18,372.39 2291.23,373.938 "/>
<path clip-path="url(#clip310)" d="M1983.6 172.231 L2280.29 172.231 L2280.29 68.5509 L1983.6 68.5509  Z" fill="#ffffff" fill-rule="evenodd" fill-opacity="1"/>
<polyline clip-path="url(#clip310)" style="stroke:#000000; stroke-linecap:round; stroke-linejoin:round; stroke-width:4; stroke-opacity:1; fill:none" points="1983.6,172.231 2280.29,172.231 2280.29,68.5509 1983.6,68.5509 1983.6,172.231 "/>
<polyline clip-path="url(#clip310)" style="stroke:#009af9; stroke-linecap:round; stroke-linejoin:round; stroke-width:4; stroke-opacity:1; fill:none" points="2007.75,120.391 2152.68,120.391 "/>
<path clip-path="url(#clip310)" d="M2176.83 103.111 L2181.51 103.111 L2181.51 133.736 L2198.34 133.736 L2198.34 137.671 L2176.83 137.671 L2176.83 103.111 Z" fill="#000000" fill-rule="nonzero" fill-opacity="1" /><path clip-path="url(#clip310)" d="M2223.96 104.245 L2223.96 108.805 Q2221.3 107.532 2218.94 106.907 Q2216.58 106.282 2214.38 106.282 Q2210.56 106.282 2208.48 107.764 Q2206.42 109.245 2206.42 111.977 Q2206.42 114.268 2207.78 115.449 Q2209.17 116.606 2213.01 117.324 L2215.84 117.902 Q2221.07 118.898 2223.55 121.421 Q2226.05 123.921 2226.05 128.134 Q2226.05 133.157 2222.67 135.75 Q2219.31 138.342 2212.81 138.342 Q2210.35 138.342 2207.57 137.787 Q2204.82 137.231 2201.86 136.143 L2201.86 131.328 Q2204.7 132.926 2207.44 133.736 Q2210.17 134.546 2212.81 134.546 Q2216.81 134.546 2218.99 132.972 Q2221.16 131.398 2221.16 128.481 Q2221.16 125.935 2219.59 124.5 Q2218.04 123.064 2214.47 122.347 L2211.62 121.791 Q2206.39 120.75 2204.06 118.527 Q2201.72 116.305 2201.72 112.347 Q2201.72 107.764 2204.94 105.125 Q2208.18 102.486 2213.85 102.486 Q2216.28 102.486 2218.8 102.926 Q2221.32 103.366 2223.96 104.245 Z" fill="#000000" fill-rule="nonzero" fill-opacity="1" /><path clip-path="url(#clip310)" d="M2254.06 104.245 L2254.06 108.805 Q2251.39 107.532 2249.03 106.907 Q2246.67 106.282 2244.47 106.282 Q2240.65 106.282 2238.57 107.764 Q2236.51 109.245 2236.51 111.977 Q2236.51 114.268 2237.87 115.449 Q2239.26 116.606 2243.11 117.324 L2245.93 117.902 Q2251.16 118.898 2253.64 121.421 Q2256.14 123.921 2256.14 128.134 Q2256.14 133.157 2252.76 135.75 Q2249.4 138.342 2242.9 138.342 Q2240.44 138.342 2237.67 137.787 Q2234.91 137.231 2231.95 136.143 L2231.95 131.328 Q2234.8 132.926 2237.53 133.736 Q2240.26 134.546 2242.9 134.546 Q2246.9 134.546 2249.08 132.972 Q2251.25 131.398 2251.25 128.481 Q2251.25 125.935 2249.68 124.5 Q2248.13 123.064 2244.56 122.347 L2241.72 121.791 Q2236.49 120.75 2234.15 118.527 Q2231.81 116.305 2231.81 112.347 Q2231.81 107.764 2235.03 105.125 Q2238.27 102.486 2243.94 102.486 Q2246.37 102.486 2248.89 102.926 Q2251.42 103.366 2254.06 104.245 Z" fill="#000000" fill-rule="nonzero" fill-opacity="1" /><path clip-path="url(#clip310)" d="M178.867 1486.45 L2352.76 1486.45 L2352.76 847.244 L178.867 847.244  Z" fill="#ffffff" fill-rule="evenodd" fill-opacity="1"/>
<defs>
  <clipPath id="clip313">
    <rect x="178" y="847" width="2175" height="640"/>
  </clipPath>
</defs>
<polyline clip-path="url(#clip313)" style="stroke:#000000; stroke-linecap:round; stroke-linejoin:round; stroke-width:2; stroke-opacity:0.1; fill:none" points="238.339,1486.45 238.339,847.244 "/>
<polyline clip-path="url(#clip313)" style="stroke:#000000; stroke-linecap:round; stroke-linejoin:round; stroke-width:2; stroke-opacity:0.1; fill:none" points="751.562,1486.45 751.562,847.244 "/>
<polyline clip-path="url(#clip313)" style="stroke:#000000; stroke-linecap:round; stroke-linejoin:round; stroke-width:2; stroke-opacity:0.1; fill:none" points="1264.78,1486.45 1264.78,847.244 "/>
<polyline clip-path="url(#clip313)" style="stroke:#000000; stroke-linecap:round; stroke-linejoin:round; stroke-width:2; stroke-opacity:0.1; fill:none" points="1778.01,1486.45 1778.01,847.244 "/>
<polyline clip-path="url(#clip313)" style="stroke:#000000; stroke-linecap:round; stroke-linejoin:round; stroke-width:2; stroke-opacity:0.1; fill:none" points="2291.23,1486.45 2291.23,847.244 "/>
<polyline clip-path="url(#clip313)" style="stroke:#000000; stroke-linecap:round; stroke-linejoin:round; stroke-width:2; stroke-opacity:0.1; fill:none" points="178.867,1486.45 2352.76,1486.45 "/>
<polyline clip-path="url(#clip313)" style="stroke:#000000; stroke-linecap:round; stroke-linejoin:round; stroke-width:2; stroke-opacity:0.1; fill:none" points="178.867,1326.65 2352.76,1326.65 "/>
<polyline clip-path="url(#clip313)" style="stroke:#000000; stroke-linecap:round; stroke-linejoin:round; stroke-width:2; stroke-opacity:0.1; fill:none" points="178.867,1166.85 2352.76,1166.85 "/>
<polyline clip-path="url(#clip313)" style="stroke:#000000; stroke-linecap:round; stroke-linejoin:round; stroke-width:2; stroke-opacity:0.1; fill:none" points="178.867,1007.05 2352.76,1007.05 "/>
<polyline clip-path="url(#clip313)" style="stroke:#000000; stroke-linecap:round; stroke-linejoin:round; stroke-width:2; stroke-opacity:0.1; fill:none" points="178.867,847.244 2352.76,847.244 "/>
<polyline clip-path="url(#clip310)" style="stroke:#000000; stroke-linecap:round; stroke-linejoin:round; stroke-width:4; stroke-opacity:1; fill:none" points="178.867,1486.45 2352.76,1486.45 "/>
<polyline clip-path="url(#clip310)" style="stroke:#000000; stroke-linecap:round; stroke-linejoin:round; stroke-width:4; stroke-opacity:1; fill:none" points="238.339,1486.45 238.339,1467.55 "/>
<polyline clip-path="url(#clip310)" style="stroke:#000000; stroke-linecap:round; stroke-linejoin:round; stroke-width:4; stroke-opacity:1; fill:none" points="751.562,1486.45 751.562,1467.55 "/>
<polyline clip-path="url(#clip310)" style="stroke:#000000; stroke-linecap:round; stroke-linejoin:round; stroke-width:4; stroke-opacity:1; fill:none" points="1264.78,1486.45 1264.78,1467.55 "/>
<polyline clip-path="url(#clip310)" style="stroke:#000000; stroke-linecap:round; stroke-linejoin:round; stroke-width:4; stroke-opacity:1; fill:none" points="1778.01,1486.45 1778.01,1467.55 "/>
<polyline clip-path="url(#clip310)" style="stroke:#000000; stroke-linecap:round; stroke-linejoin:round; stroke-width:4; stroke-opacity:1; fill:none" points="2291.23,1486.45 2291.23,1467.55 "/>
<path clip-path="url(#clip310)" d="M238.339 1517.37 Q234.728 1517.37 232.899 1520.93 Q231.094 1524.47 231.094 1531.6 Q231.094 1538.71 232.899 1542.27 Q234.728 1545.82 238.339 1545.82 Q241.973 1545.82 243.779 1542.27 Q245.607 1538.71 245.607 1531.6 Q245.607 1524.47 243.779 1520.93 Q241.973 1517.37 238.339 1517.37 M238.339 1513.66 Q244.149 1513.66 247.205 1518.27 Q250.283 1522.85 250.283 1531.6 Q250.283 1540.33 247.205 1544.94 Q244.149 1549.52 238.339 1549.52 Q232.529 1549.52 229.45 1544.94 Q226.395 1540.33 226.395 1531.6 Q226.395 1522.85 229.45 1518.27 Q232.529 1513.66 238.339 1513.66 Z" fill="#000000" fill-rule="nonzero" fill-opacity="1" /><path clip-path="url(#clip310)" d="M715.254 1544.91 L731.574 1544.91 L731.574 1548.85 L709.629 1548.85 L709.629 1544.91 Q712.291 1542.16 716.875 1537.53 Q721.481 1532.88 722.662 1531.53 Q724.907 1529.01 725.787 1527.27 Q726.689 1525.51 726.689 1523.82 Q726.689 1521.07 724.745 1519.33 Q722.824 1517.6 719.722 1517.6 Q717.523 1517.6 715.069 1518.36 Q712.638 1519.13 709.861 1520.68 L709.861 1515.95 Q712.685 1514.82 715.138 1514.24 Q717.592 1513.66 719.629 1513.66 Q725 1513.66 728.194 1516.35 Q731.388 1519.03 731.388 1523.52 Q731.388 1525.65 730.578 1527.57 Q729.791 1529.47 727.685 1532.07 Q727.106 1532.74 724.004 1535.95 Q720.902 1539.15 715.254 1544.91 Z" fill="#000000" fill-rule="nonzero" fill-opacity="1" /><path clip-path="url(#clip310)" d="M741.435 1514.29 L759.791 1514.29 L759.791 1518.22 L745.717 1518.22 L745.717 1526.7 Q746.736 1526.35 747.754 1526.19 Q748.773 1526 749.791 1526 Q755.578 1526 758.958 1529.17 Q762.337 1532.34 762.337 1537.76 Q762.337 1543.34 758.865 1546.44 Q755.393 1549.52 749.073 1549.52 Q746.898 1549.52 744.629 1549.15 Q742.384 1548.78 739.976 1548.04 L739.976 1543.34 Q742.06 1544.47 744.282 1545.03 Q746.504 1545.58 748.981 1545.58 Q752.985 1545.58 755.323 1543.48 Q757.661 1541.37 757.661 1537.76 Q757.661 1534.15 755.323 1532.04 Q752.985 1529.94 748.981 1529.94 Q747.106 1529.94 745.231 1530.35 Q743.379 1530.77 741.435 1531.65 L741.435 1514.29 Z" fill="#000000" fill-rule="nonzero" fill-opacity="1" /><path clip-path="url(#clip310)" d="M781.55 1517.37 Q777.939 1517.37 776.11 1520.93 Q774.305 1524.47 774.305 1531.6 Q774.305 1538.71 776.11 1542.27 Q777.939 1545.82 781.55 1545.82 Q785.184 1545.82 786.99 1542.27 Q788.819 1538.71 788.819 1531.6 Q788.819 1524.47 786.99 1520.93 Q785.184 1517.37 781.55 1517.37 M781.55 1513.66 Q787.36 1513.66 790.416 1518.27 Q793.495 1522.85 793.495 1531.6 Q793.495 1540.33 790.416 1544.94 Q787.36 1549.52 781.55 1549.52 Q775.74 1549.52 772.661 1544.94 Q769.606 1540.33 769.606 1531.6 Q769.606 1522.85 772.661 1518.27 Q775.74 1513.66 781.55 1513.66 Z" fill="#000000" fill-rule="nonzero" fill-opacity="1" /><path clip-path="url(#clip310)" d="M1224.4 1514.29 L1242.76 1514.29 L1242.76 1518.22 L1228.69 1518.22 L1228.69 1526.7 Q1229.7 1526.35 1230.72 1526.19 Q1231.74 1526 1232.76 1526 Q1238.55 1526 1241.93 1529.17 Q1245.31 1532.34 1245.31 1537.76 Q1245.31 1543.34 1241.83 1546.44 Q1238.36 1549.52 1232.04 1549.52 Q1229.87 1549.52 1227.6 1549.15 Q1225.35 1548.78 1222.94 1548.04 L1222.94 1543.34 Q1225.03 1544.47 1227.25 1545.03 Q1229.47 1545.58 1231.95 1545.58 Q1235.95 1545.58 1238.29 1543.48 Q1240.63 1541.37 1240.63 1537.76 Q1240.63 1534.15 1238.29 1532.04 Q1235.95 1529.94 1231.95 1529.94 Q1230.07 1529.94 1228.2 1530.35 Q1226.35 1530.77 1224.4 1531.65 L1224.4 1514.29 Z" fill="#000000" fill-rule="nonzero" fill-opacity="1" /><path clip-path="url(#clip310)" d="M1264.52 1517.37 Q1260.91 1517.37 1259.08 1520.93 Q1257.27 1524.47 1257.27 1531.6 Q1257.27 1538.71 1259.08 1542.27 Q1260.91 1545.82 1264.52 1545.82 Q1268.15 1545.82 1269.96 1542.27 Q1271.79 1538.71 1271.79 1531.6 Q1271.79 1524.47 1269.96 1520.93 Q1268.15 1517.37 1264.52 1517.37 M1264.52 1513.66 Q1270.33 1513.66 1273.38 1518.27 Q1276.46 1522.85 1276.46 1531.6 Q1276.46 1540.33 1273.38 1544.94 Q1270.33 1549.52 1264.52 1549.52 Q1258.71 1549.52 1255.63 1544.94 Q1252.57 1540.33 1252.57 1531.6 Q1252.57 1522.85 1255.63 1518.27 Q1258.71 1513.66 1264.52 1513.66 Z" fill="#000000" fill-rule="nonzero" fill-opacity="1" /><path clip-path="url(#clip310)" d="M1294.68 1517.37 Q1291.07 1517.37 1289.24 1520.93 Q1287.44 1524.47 1287.44 1531.6 Q1287.44 1538.71 1289.24 1542.27 Q1291.07 1545.82 1294.68 1545.82 Q1298.31 1545.82 1300.12 1542.27 Q1301.95 1538.71 1301.95 1531.6 Q1301.95 1524.47 1300.12 1520.93 Q1298.31 1517.37 1294.68 1517.37 M1294.68 1513.66 Q1300.49 1513.66 1303.55 1518.27 Q1306.62 1522.85 1306.62 1531.6 Q1306.62 1540.33 1303.55 1544.94 Q1300.49 1549.52 1294.68 1549.52 Q1288.87 1549.52 1285.79 1544.94 Q1282.74 1540.33 1282.74 1531.6 Q1282.74 1522.85 1285.79 1518.27 Q1288.87 1513.66 1294.68 1513.66 Z" fill="#000000" fill-rule="nonzero" fill-opacity="1" /><path clip-path="url(#clip310)" d="M1736.28 1514.29 L1758.51 1514.29 L1758.51 1516.28 L1745.96 1548.85 L1741.08 1548.85 L1752.88 1518.22 L1736.28 1518.22 L1736.28 1514.29 Z" fill="#000000" fill-rule="nonzero" fill-opacity="1" /><path clip-path="url(#clip310)" d="M1767.67 1514.29 L1786.03 1514.29 L1786.03 1518.22 L1771.95 1518.22 L1771.95 1526.7 Q1772.97 1526.35 1773.99 1526.19 Q1775.01 1526 1776.03 1526 Q1781.82 1526 1785.2 1529.17 Q1788.57 1532.34 1788.57 1537.76 Q1788.57 1543.34 1785.1 1546.44 Q1781.63 1549.52 1775.31 1549.52 Q1773.14 1549.52 1770.87 1549.15 Q1768.62 1548.78 1766.21 1548.04 L1766.21 1543.34 Q1768.3 1544.47 1770.52 1545.03 Q1772.74 1545.58 1775.22 1545.58 Q1779.22 1545.58 1781.56 1543.48 Q1783.9 1541.37 1783.9 1537.76 Q1783.9 1534.15 1781.56 1532.04 Q1779.22 1529.94 1775.22 1529.94 Q1773.34 1529.94 1771.47 1530.35 Q1769.62 1530.77 1767.67 1531.65 L1767.67 1514.29 Z" fill="#000000" fill-rule="nonzero" fill-opacity="1" /><path clip-path="url(#clip310)" d="M1807.79 1517.37 Q1804.18 1517.37 1802.35 1520.93 Q1800.54 1524.47 1800.54 1531.6 Q1800.54 1538.71 1802.35 1542.27 Q1804.18 1545.82 1807.79 1545.82 Q1811.42 1545.82 1813.23 1542.27 Q1815.06 1538.71 1815.06 1531.6 Q1815.06 1524.47 1813.23 1520.93 Q1811.42 1517.37 1807.79 1517.37 M1807.79 1513.66 Q1813.6 1513.66 1816.65 1518.27 Q1819.73 1522.85 1819.73 1531.6 Q1819.73 1540.33 1816.65 1544.94 Q1813.6 1549.52 1807.79 1549.52 Q1801.98 1549.52 1798.9 1544.94 Q1795.84 1540.33 1795.84 1531.6 Q1795.84 1522.85 1798.9 1518.27 Q1801.98 1513.66 1807.79 1513.66 Z" fill="#000000" fill-rule="nonzero" fill-opacity="1" /><path clip-path="url(#clip310)" d="M2235.76 1544.91 L2243.4 1544.91 L2243.4 1518.55 L2235.09 1520.21 L2235.09 1515.95 L2243.35 1514.29 L2248.02 1514.29 L2248.02 1544.91 L2255.66 1544.91 L2255.66 1548.85 L2235.76 1548.85 L2235.76 1544.91 Z" fill="#000000" fill-rule="nonzero" fill-opacity="1" /><path clip-path="url(#clip310)" d="M2275.11 1517.37 Q2271.5 1517.37 2269.67 1520.93 Q2267.86 1524.47 2267.86 1531.6 Q2267.86 1538.71 2269.67 1542.27 Q2271.5 1545.82 2275.11 1545.82 Q2278.74 1545.82 2280.55 1542.27 Q2282.38 1538.71 2282.38 1531.6 Q2282.38 1524.47 2280.55 1520.93 Q2278.74 1517.37 2275.11 1517.37 M2275.11 1513.66 Q2280.92 1513.66 2283.97 1518.27 Q2287.05 1522.85 2287.05 1531.6 Q2287.05 1540.33 2283.97 1544.94 Q2280.92 1549.52 2275.11 1549.52 Q2269.3 1549.52 2266.22 1544.94 Q2263.16 1540.33 2263.16 1531.6 Q2263.16 1522.85 2266.22 1518.27 Q2269.3 1513.66 2275.11 1513.66 Z" fill="#000000" fill-rule="nonzero" fill-opacity="1" /><path clip-path="url(#clip310)" d="M2305.27 1517.37 Q2301.66 1517.37 2299.83 1520.93 Q2298.02 1524.47 2298.02 1531.6 Q2298.02 1538.71 2299.83 1542.27 Q2301.66 1545.82 2305.27 1545.82 Q2308.9 1545.82 2310.71 1542.27 Q2312.54 1538.71 2312.54 1531.6 Q2312.54 1524.47 2310.71 1520.93 Q2308.9 1517.37 2305.27 1517.37 M2305.27 1513.66 Q2311.08 1513.66 2314.14 1518.27 Q2317.21 1522.85 2317.21 1531.6 Q2317.21 1540.33 2314.14 1544.94 Q2311.08 1549.52 2305.27 1549.52 Q2299.46 1549.52 2296.38 1544.94 Q2293.33 1540.33 2293.33 1531.6 Q2293.33 1522.85 2296.38 1518.27 Q2299.46 1513.66 2305.27 1513.66 Z" fill="#000000" fill-rule="nonzero" fill-opacity="1" /><path clip-path="url(#clip310)" d="M2335.43 1517.37 Q2331.82 1517.37 2329.99 1520.93 Q2328.19 1524.47 2328.19 1531.6 Q2328.19 1538.71 2329.99 1542.27 Q2331.82 1545.82 2335.43 1545.82 Q2339.07 1545.82 2340.87 1542.27 Q2342.7 1538.71 2342.7 1531.6 Q2342.7 1524.47 2340.87 1520.93 Q2339.07 1517.37 2335.43 1517.37 M2335.43 1513.66 Q2341.24 1513.66 2344.3 1518.27 Q2347.38 1522.85 2347.38 1531.6 Q2347.38 1540.33 2344.3 1544.94 Q2341.24 1549.52 2335.43 1549.52 Q2329.62 1549.52 2326.54 1544.94 Q2323.49 1540.33 2323.49 1531.6 Q2323.49 1522.85 2326.54 1518.27 Q2329.62 1513.66 2335.43 1513.66 Z" fill="#000000" fill-rule="nonzero" fill-opacity="1" /><polyline clip-path="url(#clip310)" style="stroke:#000000; stroke-linecap:round; stroke-linejoin:round; stroke-width:4; stroke-opacity:1; fill:none" points="178.867,1486.45 178.867,847.244 "/>
<polyline clip-path="url(#clip310)" style="stroke:#000000; stroke-linecap:round; stroke-linejoin:round; stroke-width:4; stroke-opacity:1; fill:none" points="178.867,1486.45 197.764,1486.45 "/>
<polyline clip-path="url(#clip310)" style="stroke:#000000; stroke-linecap:round; stroke-linejoin:round; stroke-width:4; stroke-opacity:1; fill:none" points="178.867,1326.65 197.764,1326.65 "/>
<polyline clip-path="url(#clip310)" style="stroke:#000000; stroke-linecap:round; stroke-linejoin:round; stroke-width:4; stroke-opacity:1; fill:none" points="178.867,1166.85 197.764,1166.85 "/>
<polyline clip-path="url(#clip310)" style="stroke:#000000; stroke-linecap:round; stroke-linejoin:round; stroke-width:4; stroke-opacity:1; fill:none" points="178.867,1007.05 197.764,1007.05 "/>
<polyline clip-path="url(#clip310)" style="stroke:#000000; stroke-linecap:round; stroke-linejoin:round; stroke-width:4; stroke-opacity:1; fill:none" points="178.867,847.244 197.764,847.244 "/>
<path clip-path="url(#clip310)" d="M50.9921 1486.9 L80.6679 1486.9 L80.6679 1490.83 L50.9921 1490.83 L50.9921 1486.9 Z" fill="#000000" fill-rule="nonzero" fill-opacity="1" /><path clip-path="url(#clip310)" d="M91.5706 1499.79 L99.2095 1499.79 L99.2095 1473.43 L90.8993 1475.09 L90.8993 1470.83 L99.1632 1469.17 L103.839 1469.17 L103.839 1499.79 L111.478 1499.79 L111.478 1503.73 L91.5706 1503.73 L91.5706 1499.79 Z" fill="#000000" fill-rule="nonzero" fill-opacity="1" /><path clip-path="url(#clip310)" d="M130.922 1472.25 Q127.311 1472.25 125.482 1475.81 Q123.677 1479.35 123.677 1486.48 Q123.677 1493.59 125.482 1497.15 Q127.311 1500.7 130.922 1500.7 Q134.556 1500.7 136.362 1497.15 Q138.191 1493.59 138.191 1486.48 Q138.191 1479.35 136.362 1475.81 Q134.556 1472.25 130.922 1472.25 M130.922 1468.54 Q136.732 1468.54 139.788 1473.15 Q142.867 1477.73 142.867 1486.48 Q142.867 1495.21 139.788 1499.82 Q136.732 1504.4 130.922 1504.4 Q125.112 1504.4 122.033 1499.82 Q118.978 1495.21 118.978 1486.48 Q118.978 1477.73 122.033 1473.15 Q125.112 1468.54 130.922 1468.54 Z" fill="#000000" fill-rule="nonzero" fill-opacity="1" /><path clip-path="url(#clip310)" d="M82.1494 1327.1 L111.825 1327.1 L111.825 1331.03 L82.1494 1331.03 L82.1494 1327.1 Z" fill="#000000" fill-rule="nonzero" fill-opacity="1" /><path clip-path="url(#clip310)" d="M121.964 1309.37 L140.32 1309.37 L140.32 1313.3 L126.246 1313.3 L126.246 1321.77 Q127.265 1321.43 128.283 1321.27 Q129.302 1321.08 130.32 1321.08 Q136.107 1321.08 139.487 1324.25 Q142.867 1327.42 142.867 1332.84 Q142.867 1338.42 139.394 1341.52 Q135.922 1344.6 129.603 1344.6 Q127.427 1344.6 125.158 1344.23 Q122.913 1343.86 120.506 1343.12 L120.506 1338.42 Q122.589 1339.55 124.811 1340.11 Q127.033 1340.66 129.51 1340.66 Q133.515 1340.66 135.853 1338.56 Q138.191 1336.45 138.191 1332.84 Q138.191 1329.23 135.853 1327.12 Q133.515 1325.01 129.51 1325.01 Q127.635 1325.01 125.76 1325.43 Q123.908 1325.85 121.964 1326.73 L121.964 1309.37 Z" fill="#000000" fill-rule="nonzero" fill-opacity="1" /><path clip-path="url(#clip310)" d="M130.922 1152.64 Q127.311 1152.64 125.482 1156.21 Q123.677 1159.75 123.677 1166.88 Q123.677 1173.99 125.482 1177.55 Q127.311 1181.09 130.922 1181.09 Q134.556 1181.09 136.362 1177.55 Q138.191 1173.99 138.191 1166.88 Q138.191 1159.75 136.362 1156.21 Q134.556 1152.64 130.922 1152.64 M130.922 1148.94 Q136.732 1148.94 139.788 1153.55 Q142.867 1158.13 142.867 1166.88 Q142.867 1175.61 139.788 1180.21 Q136.732 1184.8 130.922 1184.8 Q125.112 1184.8 122.033 1180.21 Q118.978 1175.61 118.978 1166.88 Q118.978 1158.13 122.033 1153.55 Q125.112 1148.94 130.922 1148.94 Z" fill="#000000" fill-rule="nonzero" fill-opacity="1" /><path clip-path="url(#clip310)" d="M121.964 989.765 L140.32 989.765 L140.32 993.7 L126.246 993.7 L126.246 1002.17 Q127.265 1001.83 128.283 1001.66 Q129.302 1001.48 130.32 1001.48 Q136.107 1001.48 139.487 1004.65 Q142.867 1007.82 142.867 1013.24 Q142.867 1018.82 139.394 1021.92 Q135.922 1025 129.603 1025 Q127.427 1025 125.158 1024.63 Q122.913 1024.26 120.506 1023.51 L120.506 1018.82 Q122.589 1019.95 124.811 1020.51 Q127.033 1021.06 129.51 1021.06 Q133.515 1021.06 135.853 1018.95 Q138.191 1016.85 138.191 1013.24 Q138.191 1009.63 135.853 1007.52 Q133.515 1005.41 129.51 1005.41 Q127.635 1005.41 125.76 1005.83 Q123.908 1006.25 121.964 1007.13 L121.964 989.765 Z" fill="#000000" fill-rule="nonzero" fill-opacity="1" /><path clip-path="url(#clip310)" d="M91.5706 860.589 L99.2095 860.589 L99.2095 834.223 L90.8993 835.89 L90.8993 831.631 L99.1632 829.964 L103.839 829.964 L103.839 860.589 L111.478 860.589 L111.478 864.524 L91.5706 864.524 L91.5706 860.589 Z" fill="#000000" fill-rule="nonzero" fill-opacity="1" /><path clip-path="url(#clip310)" d="M130.922 833.043 Q127.311 833.043 125.482 836.608 Q123.677 840.149 123.677 847.279 Q123.677 854.385 125.482 857.95 Q127.311 861.492 130.922 861.492 Q134.556 861.492 136.362 857.95 Q138.191 854.385 138.191 847.279 Q138.191 840.149 136.362 836.608 Q134.556 833.043 130.922 833.043 M130.922 829.339 Q136.732 829.339 139.788 833.946 Q142.867 838.529 142.867 847.279 Q142.867 856.006 139.788 860.612 Q136.732 865.195 130.922 865.195 Q125.112 865.195 122.033 860.612 Q118.978 856.006 118.978 847.279 Q118.978 838.529 122.033 833.946 Q125.112 829.339 130.922 829.339 Z" fill="#000000" fill-rule="nonzero" fill-opacity="1" /><polyline clip-path="url(#clip313)" style="stroke:#009af9; stroke-linecap:round; stroke-linejoin:round; stroke-width:4; stroke-opacity:1; fill:none" points="240.392,1134.89 242.445,1139.25 244.498,1129.72 246.55,1220.4 248.603,1147.91 250.656,1126.69 252.709,1129.56 254.762,1178.36 256.815,1167.42 258.868,1162.43 260.921,1171.82 262.974,1221.46 265.027,1103.72 267.079,1203.37 269.132,1163.97 271.185,1188.07 273.238,1184.57 275.291,1173.9 277.344,1195.02 279.397,1172.84 281.45,1159.59 283.503,1109.59 285.555,1492.44 287.608,1061.11 289.661,1146.92 291.714,717.398 293.767,828.419 295.82,1479.73 297.873,-1469.18 299.926,28.564 301.979,1269.71 304.031,728.908 306.084,1051.01 308.137,509.969 310.19,1172.26 312.243,-358.535 314.296,3728.32 316.349,2785.66 318.402,255.221 320.455,1196.94 322.507,1122.96 324.56,1244.37 326.613,935.925 328.666,1103.18 330.719,980.785 332.772,-654.967 334.825,1630.69 336.878,361.581 338.931,1211.64 340.984,1347.79 343.036,470.236 345.089,407.717 347.142,12.6937 349.195,1211.65 351.248,1281.31 353.301,753.85 355.354,553.396 357.407,1498.6 359.46,1185.71 361.512,1186.46 363.565,1110.86 365.618,1081.86 367.671,1231.25 369.724,1113.92 371.777,1067.01 373.83,1197.19 375.883,1181.37 377.936,1089.44 379.988,1203.34 382.041,1142.31 384.094,1162.88 386.147,1174.22 388.2,1159.6 390.253,1151.81 392.306,1145.56 394.359,1152.13 396.412,1169.37 398.464,1162.94 400.517,1149.64 402.57,1186.02 404.623,1211.4 406.676,1134.46 408.729,1137.03 410.782,1154.38 412.835,1165.15 414.888,1171.59 416.94,1210.15 418.993,1201.36 421.046,1107.87 423.099,1081.05 425.152,1145.58 427.205,1145.29 429.258,1115.65 431.311,962.898 433.364,1251.06 435.417,1126 437.469,1240.05 439.522,1113.66 441.575,1153.5 443.628,1095.41 445.681,1233.99 447.734,1137.71 449.787,1208.63 451.84,1164.38 453.893,1135.43 455.945,1224.42 457.998,1342.16 460.051,922.56 462.104,1342.57 464.157,1060.25 466.21,1170.23 468.263,1179.47 470.316,1179.46 472.369,1162.13 474.421,1170.21 476.474,1152.03 478.527,1189.33 480.58,1160.92 482.633,1173.09 484.686,1151.05 486.739,1159.97 488.792,1202.36 490.845,1075.79 492.897,1267.81 494.95,1233.06 497.003,1138.55 499.056,1192.84 501.109,878.728 503.162,2003.89 505.215,1128.98 507.268,1175.7 509.321,1163.27 511.374,1210.1 513.426,1107.02 515.479,1081.81 517.532,1915.34 519.585,627.104 521.638,1095.97 523.691,1202.64 525.744,1143.36 527.797,1219.11 529.85,1147.13 531.902,1141.16 533.955,1133.67 536.008,1177.11 538.061,1228.51 540.114,1134.54 542.167,1172.44 544.22,1158.7 546.273,1183.43 548.326,1187.41 550.378,1176.33 552.431,1178.17 554.484,1161.69 556.537,1185.75 558.59,1133.75 560.643,1197.42 562.696,1175.96 564.749,1204.28 566.802,1223.73 568.854,1134.57 570.907,1122.89 572.96,1168.6 575.013,1185.36 577.066,1167.42 579.119,1184.33 581.172,1151.01 583.225,1049.46 585.278,1091.92 587.331,961.42 589.383,1319.34 591.436,1200.26 593.489,1128.07 595.542,1214.38 597.595,1144.15 599.648,1156.03 601.701,1133.26 603.754,1223.28 605.807,1293.36 607.859,1207.42 609.912,1246.41 611.965,896.094 614.018,982.758 616.071,1181.76 618.124,1148.59 620.177,1187.49 622.23,1150.93 624.283,1130.98 626.335,1121.28 628.388,1137.4 630.441,1141.27 632.494,1146.69 634.547,1169.75 636.6,1129.42 638.653,1177.31 640.706,1120.51 642.759,1174.65 644.811,1167.45 646.864,1166.96 648.917,1168.72 650.97,1105.87 653.023,1181.82 655.076,1151.28 657.129,1171.15 659.182,1167.85 661.235,1158.08 663.288,1118.26 665.34,1141.98 667.393,1194.58 669.446,1177.4 671.499,1183.02 673.552,1111.64 675.605,1309.58 677.658,1100.98 679.711,1175.29 681.764,1163.29 683.816,1082.3 685.869,1091.8 687.922,1164.5 689.975,1247.62 692.028,1067.87 694.081,1343.3 696.134,1234.23 698.187,1192.37 700.24,1156.51 702.292,1190.07 704.345,1182.83 706.398,1188.92 708.451,1162.33 710.504,1163.49 712.557,1184.94 714.61,1171.72 716.663,1164.27 718.716,1158.55 720.768,1165.46 722.821,1771.9 724.874,764.293 726.927,1131.76 728.98,939.926 731.033,1192.75 733.086,1198.03 735.139,1140.56 737.192,1182.95 739.245,1093.07 741.297,1005.1 743.35,1117.1 745.403,1236.25 747.456,1140.62 749.509,1249.17 751.562,1208.81 753.615,1127.65 755.668,1122.22 757.721,1126.55 759.773,1159.73 761.826,1165.87 763.879,1174.5 765.932,1152.95 767.985,1164.91 770.038,1163.64 772.091,1171.47 774.144,1176.4 776.197,1146.82 778.249,990.131 780.302,1147.55 782.355,1080.05 784.408,1306.41 786.461,1140.34 788.514,1272.67 790.567,1151.99 792.62,1160 794.673,1149.4 796.725,1181 798.778,1085.46 800.831,1215.09 802.884,1198.8 804.937,1200.52 806.99,1195.77 809.043,1223.08 811.096,1163.94 813.149,1181.09 815.202,1143.47 817.254,1155.75 819.307,1211.14 821.36,1162.5 823.413,1082.15 825.466,1180.09 827.519,1164.7 829.572,1109.91 831.625,1177.94 833.678,1175.13 835.73,1160.42 837.783,1184.06 839.836,1178.39 841.889,1141.95 843.942,1154.92 845.995,1186.52 848.048,1217.58 850.101,1221.02 852.154,1077.48 854.206,1121.2 856.259,960.787 858.312,1088.25 860.365,1281.98 862.418,1231.07 864.471,1132.58 866.524,1171.71 868.577,1260.65 870.63,1217.44 872.682,1143.05 874.735,1159.21 876.788,1142.93 878.841,1190.34 880.894,1144.14 882.947,1161.46 885,1141.98 887.053,1102.44 889.106,1225.18 891.159,976.449 893.211,1115.8 895.264,1014.01 897.317,1183.5 899.37,1164.15 901.423,1159.14 903.476,1189.12 905.529,1189.49 907.582,1145.06 909.635,1252.35 911.687,1169.32 913.74,1147.77 915.793,1205.08 917.846,1189.85 919.899,1636.38 921.952,1814.13 924.005,1202.37 926.058,1115.14 928.111,1196.5 930.163,1159.91 932.216,1167.3 934.269,1157.99 936.322,1156.24 938.375,1170.05 940.428,1182.67 942.481,1152.97 944.534,1192.45 946.587,1160.38 948.639,1172.14 950.692,1142.41 952.745,1156.3 954.798,1194.78 956.851,1178.13 958.904,1159.9 960.957,1147.5 963.01,1212.56 965.063,1157.41 967.116,1177 969.168,1181.44 971.221,1147.75 973.274,1047.01 975.327,1217.23 977.38,1187.19 979.433,1150.68 981.486,1167.47 983.539,1167.25 985.592,1142.12 987.644,1205.12 989.697,1126.51 991.75,1116.63 993.803,1183.93 995.856,1217.83 997.909,1117.7 999.962,1062.06 1002.01,1163.62 1004.07,1166.31 1006.12,1163.92 1008.17,1083.85 1010.23,1151.97 1012.28,1137.67 1014.33,1169.05 1016.38,1203.39 1018.44,1157.44 1020.49,1014.79 1022.54,1124.96 1024.6,1166.4 1026.65,1160.64 1028.7,1221.96 1030.76,1197.06 1032.81,1168.28 1034.86,1212.94 1036.91,1211.35 1038.97,1176.86 1041.02,1147.63 1043.07,1123.38 1045.13,1118.15 1047.18,1213.22 1049.23,1111.44 1051.28,1194.17 1053.34,1172.71 1055.39,943.271 1057.44,1448.02 1059.5,839.392 1061.55,1085.12 1063.6,843.457 1065.65,1146.97 1067.71,1053.44 1069.76,883.685 1071.81,1116.75 1073.87,1470.17 1075.92,1131.1 1077.97,1225.97 1080.02,1437.3 1082.08,1040.46 1084.13,1449.81 1086.18,1110.01 1088.24,758.047 1090.29,1197.41 1092.34,1135.75 1094.39,1150.29 1096.45,1194.49 1098.5,616.915 1100.55,1109.55 1102.61,1293.93 1104.66,1298.88 1106.71,1243.61 1108.77,1076.06 1110.82,1130.28 1112.87,1140.02 1114.92,1104.73 1116.98,1100.63 1119.03,1154.85 1121.08,1188.32 1123.14,1140.57 1125.19,1200.54 1127.24,1165.18 1129.29,1164.4 1131.35,1138.02 1133.4,1191.25 1135.45,1151.74 1137.51,1171.75 1139.56,1163.59 1141.61,1171.37 1143.66,1162.95 1145.72,1153.5 1147.77,1282.71 1149.82,1162.08 1151.88,1159.02 1153.93,1142.99 1155.98,1210.31 1158.03,1281.79 1160.09,999.102 1162.14,1302.32 1164.19,1152.11 1166.25,1294.45 1168.3,1307.68 1170.35,1105.15 1172.4,1111.97 1174.46,1181.24 1176.51,1164.28 1178.56,1197.44 1180.62,1100.59 1182.67,1080.31 1184.72,1263.78 1186.77,1115.84 1188.83,850.854 1190.88,1019.61 1192.93,1132.68 1194.99,1169.82 1197.04,1178.35 1199.09,1193.67 1201.15,1150.85 1203.2,1141.57 1205.25,1148.2 1207.3,1036.09 1209.36,1437.38 1211.41,1149.25 1213.46,1161.49 1215.52,1152.19 1217.57,1181.69 1219.62,1186.52 1221.67,1222.43 1223.73,1179.41 1225.78,1144.93 1227.83,971.815 1229.89,1575.65 1231.94,1299.07 1233.99,1061.39 1236.04,1097.71 1238.1,1078.32 1240.15,1173.54 1242.2,1150.45 1244.26,1183.91 1246.31,1149.95 1248.36,1147.74 1250.41,1159.14 1252.47,1189.57 1254.52,1164.14 1256.57,1164.37 1258.63,1175.53 1260.68,1126.12 1262.73,1157.98 1264.78,1169.33 1266.84,1326.28 1268.89,1131.81 1270.94,1221.17 1273,1118.56 1275.05,1228.82 1277.1,1160.37 1279.16,1535.26 1281.21,937.163 1283.26,964.874 1285.31,1140.58 1287.37,1196.28 1289.42,-980.496 1291.47,-1656.76 1293.53,-5329.8 1295.58,2036.89 1297.63,1161.21 1299.68,3823.4 1301.74,724.375 1303.79,6701.92 1305.84,7519.39 1307.9,-4763.56 1309.95,-5350.52 1312,10232.7 1314.05,8629.54 1316.11,-1800.2 1318.16,-7692.94 1320.21,-4680.2 1322.27,1435.44 1324.32,1618.5 1326.37,984.931 1328.42,998.203 1330.48,1137.36 1332.53,1259.33 1334.58,1381.1 1336.64,376.565 1338.69,141.792 1340.74,1278.58 1342.79,1139.49 1344.85,1173.98 1346.9,1190.98 1348.95,1133.23 1351.01,1060.64 1353.06,1200.32 1355.11,1166.57 1357.16,1159.13 1359.22,1197.71 1361.27,1220.29 1363.32,1142.16 1365.38,1172.66 1367.43,1185.68 1369.48,1203.6 1371.54,1156.24 1373.59,1182.72 1375.64,1181.37 1377.69,1153.62 1379.75,1154.34 1381.8,1217.4 1383.85,2001.48 1385.91,1726.45 1387.96,1847.69 1390.01,1318.35 1392.06,1061.11 1394.12,1186.4 1396.17,1043.89 1398.22,1188.59 1400.28,1178.03 1402.33,1255.07 1404.38,1275.12 1406.43,1176.45 1408.49,1175.92 1410.54,1160.42 1412.59,1152.33 1414.65,1275.72 1416.7,1246.39 1418.75,1306.46 1420.8,1258.24 1422.86,645.865 1424.91,872.65 1426.96,1207.34 1429.02,1128.63 1431.07,1154.33 1433.12,1123.51 1435.17,1157.54 1437.23,1165.27 1439.28,1146.2 1441.33,1177.74 1443.39,1129.33 1445.44,1149.28 1447.49,1153.57 1449.55,1153.76 1451.6,1157.59 1453.65,1188.41 1455.7,1157.56 1457.76,1166.61 1459.81,1192.08 1461.86,1177.43 1463.92,1140.95 1465.97,1215.67 1468.02,1133.43 1470.07,1157.52 1472.13,1148.23 1474.18,1178.31 1476.23,1143.27 1478.29,1180.94 1480.34,1268.05 1482.39,1263.74 1484.44,1202.7 1486.5,1107.66 1488.55,1022.15 1490.6,1088.5 1492.66,1061.44 1494.71,1162.62 1496.76,858.183 1498.81,1434.86 1500.87,1182.53 1502.92,1157.51 1504.97,1143.22 1507.03,1173.9 1509.08,923.288 1511.13,1220.27 1513.18,1442.84 1515.24,1156.55 1517.29,1169.66 1519.34,1154.19 1521.4,1181.33 1523.45,1178.22 1525.5,1179.89 1527.55,1168.24 1529.61,1203.28 1531.66,1176.51 1533.71,1199.5 1535.77,1150.44 1537.82,1136.81 1539.87,1179 1541.93,1139.06 1543.98,1142.76 1546.03,1159.04 1548.08,1175.93 1550.14,1171.85 1552.19,1164.16 1554.24,1187.74 1556.3,1371.6 1558.35,1120.8 1560.4,1171.9 1562.45,1148.76 1564.51,1170.69 1566.56,1159.71 1568.61,1157.65 1570.67,1165.68 1572.72,1129.89 1574.77,1130.29 1576.82,1250.09 1578.88,1211.15 1580.93,1170.96 1582.98,1170.94 1585.04,1150.91 1587.09,1217.5 1589.14,1147.08 1591.19,1167.67 1593.25,1180.81 1595.3,1150.24 1597.35,1172.97 1599.41,1151.24 1601.46,1177.35 1603.51,1207.42 1605.56,1187.07 1607.62,1146.05 1609.67,1088.07 1611.72,1295.91 1613.78,1155.97 1615.83,1252.28 1617.88,1040.93 1619.94,1082.43 1621.99,1546.35 1624.04,1155.67 1626.09,1067.69 1628.15,1247.92 1630.2,1227.68 1632.25,1063.3 1634.31,1010 1636.36,1185.68 1638.41,1202.69 1640.46,1157.13 1642.52,1210.97 1644.57,1184.15 1646.62,1165.9 1648.68,1152.83 1650.73,1127.02 1652.78,1167.54 1654.83,1192.37 1656.89,1184.24 1658.94,1186.15 1660.99,1134.69 1663.05,1199.72 1665.1,1064.55 1667.15,1121.01 1669.2,1108.29 1671.26,1154.73 1673.31,1222.91 1675.36,1220.61 1677.42,1517.35 1679.47,1443 1681.52,1038.77 1683.57,1164.26 1685.63,1196.01 1687.68,1138.48 1689.73,1187.12 1691.79,1178.89 1693.84,1175.4 1695.89,1184.38 1697.94,1272.41 1700,1434.65 1702.05,1137.19 1704.1,1131.61 1706.16,1149.87 1708.21,1149.27 1710.26,1080.29 1712.32,986.423 1714.37,1212.69 1716.42,1183.97 1718.47,1148.9 1720.53,1101.82 1722.58,1199.67 1724.63,1130.29 1726.69,1145.61 1728.74,1219.6 1730.79,1293 1732.84,1177.49 1734.9,1180.82 1736.95,1155.92 1739,1226.16 1741.06,1269.07 1743.11,991.269 1745.16,1173.72 1747.21,1161.55 1749.27,1174.53 1751.32,1144.63 1753.37,1155.72 1755.43,1088.16 1757.48,1226.91 1759.53,1129.49 1761.58,1240.58 1763.64,1088.61 1765.69,1109.91 1767.74,1326.13 1769.8,1264.68 1771.85,1128.38 1773.9,1075.72 1775.95,1275.36 1778.01,1087.13 1780.06,1290.81 1782.11,1123.15 1784.17,1137.27 1786.22,1201.38 1788.27,1136.51 1790.33,1184.44 1792.38,1238.9 1794.43,1112.26 1796.48,1126.32 1798.54,1187.62 1800.59,1183.4 1802.64,1163.72 1804.7,1169.2 1806.75,1192.31 1808.8,1186.64 1810.85,1113.28 1812.91,1170.55 1814.96,1165.45 1817.01,1158.42 1819.07,1174.82 1821.12,1159.05 1823.17,1267.81 1825.22,1177.48 1827.28,1298.5 1829.33,1237.58 1831.38,1200.28 1833.44,1100.62 1835.49,1165.77 1837.54,1224.81 1839.59,1005.06 1841.65,1025.73 1843.7,997.617 1845.75,1201.14 1847.81,1121.29 1849.86,1140.56 1851.91,1117.06 1853.96,1283.46 1856.02,1084.84 1858.07,1161.29 1860.12,1145.23 1862.18,1133.99 1864.23,1166.36 1866.28,1168.23 1868.34,1152.07 1870.39,1183.47 1872.44,1197.92 1874.49,1226.85 1876.55,1096.19 1878.6,866.063 1880.65,1234.99 1882.71,1191.79 1884.76,1198.74 1886.81,1092.36 1888.86,1140.1 1890.92,1351.25 1892.97,1036.86 1895.02,1127.96 1897.08,1188.24 1899.13,1144.36 1901.18,1186.43 1903.23,1155.67 1905.29,1168.55 1907.34,1165.43 1909.39,1145.45 1911.45,1194.89 1913.5,1177.88 1915.55,1164.79 1917.6,1197.62 1919.66,1194.86 1921.71,1157.59 1923.76,1191.89 1925.82,1185.29 1927.87,1149.38 1929.92,1145.63 1931.97,928.49 1934.03,1128.28 1936.08,1101.19 1938.13,1097.19 1940.19,1162.02 1942.24,1116.83 1944.29,1006.39 1946.34,1158.05 1948.4,1139.09 1950.45,1174.97 1952.5,1149.43 1954.56,1168.25 1956.61,1165.36 1958.66,1161.98 1960.72,1138.62 1962.77,1186.86 1964.82,1217.54 1966.87,1154.47 1968.93,1153.16 1970.98,1200.93 1973.03,1086.61 1975.09,1292.36 1977.14,1230.73 1979.19,1164.88 1981.24,1087.96 1983.3,1083.26 1985.35,1389.16 1987.4,1347.47 1989.46,1091.5 1991.51,1240.47 1993.56,1158.46 1995.61,1176.85 1997.67,1148.05 1999.72,1188.19 2001.77,1138.61 2003.83,1197.25 2005.88,1146.55 2007.93,1113.75 2009.98,1138.63 2012.04,1147.27 2014.09,1191.67 2016.14,1179.67 2018.2,1160.75 2020.25,1159.48 2022.3,1126.34 2024.35,1031.58 2026.41,1127.42 2028.46,1158.31 2030.51,1141.03 2032.57,1196.34 2034.62,1171.02 2036.67,1028.56 2038.73,1216.07 2040.78,1172.04 2042.83,1092.25 2044.88,1090.48 2046.94,1183.45 2048.99,1144.9 2051.04,1205.78 2053.1,1219.16 2055.15,1122.17 2057.2,1119.91 2059.25,1252.49 2061.31,1167.65 2063.36,1166.47 2065.41,1180.89 2067.47,1191.97 2069.52,1110.41 2071.57,1169.98 2073.62,1158.03 2075.68,1172.54 2077.73,1174.35 2079.78,1109.95 2081.84,1116.52 2083.89,1025.07 2085.94,1204.71 2087.99,1200.89 2090.05,1186.24 2092.1,1162.07 2094.15,1135.78 2096.21,1173.02 2098.26,1171.78 2100.31,1194.88 2102.36,1043.34 2104.42,1268.29 2106.47,1252.62 2108.52,1064.64 2110.58,1291.72 2112.63,1235.94 2114.68,1204.16 2116.73,1158.14 2118.79,1171.91 2120.84,1183.28 2122.89,1203.13 2124.95,1165.52 2127,1160.74 2129.05,1140.75 2131.11,1231.38 2133.16,1256.24 2135.21,1233.31 2137.26,1188.91 2139.32,1075.12 2141.37,1176.83 2143.42,1179.58 2145.48,1185.76 2147.53,1208.45 2149.58,1110.31 2151.63,1194.01 2153.69,1112.16 2155.74,1129.3 2157.79,1157.91 2159.85,1160.98 2161.9,1185.28 2163.95,1191.92 2166,1157.84 2168.06,1159.51 2170.11,1128.13 2172.16,1182.76 2174.22,1176.09 2176.27,1154.75 2178.32,1174.21 2180.37,1192.26 2182.43,1202.6 2184.48,1129.85 2186.53,1085.12 2188.59,1247.19 2190.64,1095.37 2192.69,1252.52 2194.74,1171.29 2196.8,1185.03 2198.85,1159.86 2200.9,1167.63 2202.96,1183.49 2205.01,1130.59 2207.06,1206.97 2209.12,1216.89 2211.17,1401.75 2213.22,1388.25 2215.27,195.259 2217.33,1581.77 2219.38,1154.44 2221.43,1137.41 2223.49,1213.78 2225.54,1187.51 2227.59,1108.7 2229.64,1131.97 2231.7,1193.9 2233.75,1141.97 2235.8,1138.07 2237.86,1193.38 2239.91,1155.5 2241.96,1176.56 2244.01,1169.29 2246.07,1195.66 2248.12,1173.99 2250.17,1186.47 2252.23,1227.54 2254.28,1095.23 2256.33,1107.55 2258.38,1300.35 2260.44,1055.71 2262.49,1153.95 2264.54,1182.65 2266.6,1150.96 2268.65,1143.95 2270.7,1058.46 2272.75,1137.9 2274.81,1175.88 2276.86,1192.02 2278.91,1186.74 2280.97,1215.56 2283.02,1134.38 2285.07,1109.06 2287.12,1271.72 2289.18,1086.51 2291.23,1153.92 "/>
<path clip-path="url(#clip310)" d="M1942.7 972.231 L2280.29 972.231 L2280.29 868.551 L1942.7 868.551  Z" fill="#ffffff" fill-rule="evenodd" fill-opacity="1"/>
<polyline clip-path="url(#clip310)" style="stroke:#000000; stroke-linecap:round; stroke-linejoin:round; stroke-width:4; stroke-opacity:1; fill:none" points="1942.7,972.231 2280.29,972.231 2280.29,868.551 1942.7,868.551 1942.7,972.231 "/>
<polyline clip-path="url(#clip310)" style="stroke:#009af9; stroke-linecap:round; stroke-linejoin:round; stroke-width:4; stroke-opacity:1; fill:none" points="1966.85,920.391 2111.78,920.391 "/>
<path clip-path="url(#clip310)" d="M2161.49 932.74 L2161.49 923.458 L2153.85 923.458 L2153.85 919.615 L2166.12 919.615 L2166.12 934.453 Q2163.41 936.375 2160.14 937.37 Q2156.88 938.342 2153.18 938.342 Q2145.07 938.342 2140.49 933.62 Q2135.93 928.875 2135.93 920.426 Q2135.93 911.953 2140.49 907.231 Q2145.07 902.486 2153.18 902.486 Q2156.56 902.486 2159.59 903.319 Q2162.64 904.153 2165.21 905.773 L2165.21 910.75 Q2162.62 908.551 2159.7 907.44 Q2156.79 906.328 2153.57 906.328 Q2147.23 906.328 2144.03 909.87 Q2140.86 913.412 2140.86 920.426 Q2140.86 927.416 2144.03 930.958 Q2147.23 934.5 2153.57 934.5 Q2156.05 934.5 2157.99 934.083 Q2159.94 933.643 2161.49 932.74 Z" fill="#000000" fill-rule="nonzero" fill-opacity="1" /><path clip-path="url(#clip310)" d="M2179.33 906.953 L2179.33 919.94 L2185.21 919.94 Q2188.48 919.94 2190.26 918.25 Q2192.04 916.56 2192.04 913.435 Q2192.04 910.333 2190.26 908.643 Q2188.48 906.953 2185.21 906.953 L2179.33 906.953 M2174.66 903.111 L2185.21 903.111 Q2191.02 903.111 2193.99 905.75 Q2196.97 908.365 2196.97 913.435 Q2196.97 918.551 2193.99 921.166 Q2191.02 923.782 2185.21 923.782 L2179.33 923.782 L2179.33 937.671 L2174.66 937.671 L2174.66 903.111 Z" fill="#000000" fill-rule="nonzero" fill-opacity="1" /><path clip-path="url(#clip310)" d="M2223.96 904.245 L2223.96 908.805 Q2221.3 907.532 2218.94 906.907 Q2216.58 906.282 2214.38 906.282 Q2210.56 906.282 2208.48 907.764 Q2206.42 909.245 2206.42 911.977 Q2206.42 914.268 2207.78 915.449 Q2209.17 916.606 2213.01 917.324 L2215.84 917.902 Q2221.07 918.898 2223.55 921.421 Q2226.05 923.921 2226.05 928.134 Q2226.05 933.157 2222.67 935.75 Q2219.31 938.342 2212.81 938.342 Q2210.35 938.342 2207.57 937.787 Q2204.82 937.231 2201.86 936.143 L2201.86 931.328 Q2204.7 932.926 2207.44 933.736 Q2210.17 934.546 2212.81 934.546 Q2216.81 934.546 2218.99 932.972 Q2221.16 931.398 2221.16 928.481 Q2221.16 925.935 2219.59 924.5 Q2218.04 923.064 2214.47 922.347 L2211.62 921.791 Q2206.39 920.75 2204.06 918.527 Q2201.72 916.305 2201.72 912.347 Q2201.72 907.764 2204.94 905.125 Q2208.18 902.486 2213.85 902.486 Q2216.28 902.486 2218.8 902.926 Q2221.32 903.366 2223.96 904.245 Z" fill="#000000" fill-rule="nonzero" fill-opacity="1" /><path clip-path="url(#clip310)" d="M2254.06 904.245 L2254.06 908.805 Q2251.39 907.532 2249.03 906.907 Q2246.67 906.282 2244.47 906.282 Q2240.65 906.282 2238.57 907.764 Q2236.51 909.245 2236.51 911.977 Q2236.51 914.268 2237.87 915.449 Q2239.26 916.606 2243.11 917.324 L2245.93 917.902 Q2251.16 918.898 2253.64 921.421 Q2256.14 923.921 2256.14 928.134 Q2256.14 933.157 2252.76 935.75 Q2249.4 938.342 2242.9 938.342 Q2240.44 938.342 2237.67 937.787 Q2234.91 937.231 2231.95 936.143 L2231.95 931.328 Q2234.8 932.926 2237.53 933.736 Q2240.26 934.546 2242.9 934.546 Q2246.9 934.546 2249.08 932.972 Q2251.25 931.398 2251.25 928.481 Q2251.25 925.935 2249.68 924.5 Q2248.13 923.064 2244.56 922.347 L2241.72 921.791 Q2236.49 920.75 2234.15 918.527 Q2231.81 916.305 2231.81 912.347 Q2231.81 907.764 2235.03 905.125 Q2238.27 902.486 2243.94 902.486 Q2246.37 902.486 2248.89 902.926 Q2251.42 903.366 2254.06 904.245 Z" fill="#000000" fill-rule="nonzero" fill-opacity="1" /></svg>
