<?xml version="1.0" encoding="utf-8"?>
<svg xmlns="http://www.w3.org/2000/svg" xmlns:xlink="http://www.w3.org/1999/xlink" width="600" height="400" viewBox="0 0 2400 1600">
<defs>
  <clipPath id="clip320">
    <rect x="0" y="0" width="2400" height="1600"/>
  </clipPath>
</defs>
<path clip-path="url(#clip320)" d="M0 1600 L2400 1600 L2400 0 L0 0  Z" fill="#ffffff" fill-rule="evenodd" fill-opacity="1"/>
<defs>
  <clipPath id="clip321">
    <rect x="480" y="0" width="1681" height="1600"/>
  </clipPath>
</defs>
<path clip-path="url(#clip320)" d="M178.867 686.448 L2352.76 686.448 L2352.76 47.2441 L178.867 47.2441  Z" fill="#ffffff" fill-rule="evenodd" fill-opacity="1"/>
<defs>
  <clipPath id="clip322">
    <rect x="178" y="47" width="2175" height="640"/>
  </clipPath>
</defs>
<polyline clip-path="url(#clip322)" style="stroke:#000000; stroke-linecap:round; stroke-linejoin:round; stroke-width:2; stroke-opacity:0.1; fill:none" points="238.339,686.448 238.339,47.2441 "/>
<polyline clip-path="url(#clip322)" style="stroke:#000000; stroke-linecap:round; stroke-linejoin:round; stroke-width:2; stroke-opacity:0.1; fill:none" points="751.562,686.448 751.562,47.2441 "/>
<polyline clip-path="url(#clip322)" style="stroke:#000000; stroke-linecap:round; stroke-linejoin:round; stroke-width:2; stroke-opacity:0.1; fill:none" points="1264.78,686.448 1264.78,47.2441 "/>
<polyline clip-path="url(#clip322)" style="stroke:#000000; stroke-linecap:round; stroke-linejoin:round; stroke-width:2; stroke-opacity:0.1; fill:none" points="1778.01,686.448 1778.01,47.2441 "/>
<polyline clip-path="url(#clip322)" style="stroke:#000000; stroke-linecap:round; stroke-linejoin:round; stroke-width:2; stroke-opacity:0.1; fill:none" points="2291.23,686.448 2291.23,47.2441 "/>
<polyline clip-path="url(#clip322)" style="stroke:#000000; stroke-linecap:round; stroke-linejoin:round; stroke-width:2; stroke-opacity:0.1; fill:none" points="178.867,686.448 2352.76,686.448 "/>
<polyline clip-path="url(#clip322)" style="stroke:#000000; stroke-linecap:round; stroke-linejoin:round; stroke-width:2; stroke-opacity:0.1; fill:none" points="178.867,526.647 2352.76,526.647 "/>
<polyline clip-path="url(#clip322)" style="stroke:#000000; stroke-linecap:round; stroke-linejoin:round; stroke-width:2; stroke-opacity:0.1; fill:none" points="178.867,366.846 2352.76,366.846 "/>
<polyline clip-path="url(#clip322)" style="stroke:#000000; stroke-linecap:round; stroke-linejoin:round; stroke-width:2; stroke-opacity:0.1; fill:none" points="178.867,207.045 2352.76,207.045 "/>
<polyline clip-path="url(#clip322)" style="stroke:#000000; stroke-linecap:round; stroke-linejoin:round; stroke-width:2; stroke-opacity:0.1; fill:none" points="178.867,47.2441 2352.76,47.2441 "/>
<polyline clip-path="url(#clip320)" style="stroke:#000000; stroke-linecap:round; stroke-linejoin:round; stroke-width:4; stroke-opacity:1; fill:none" points="178.867,686.448 2352.76,686.448 "/>
<polyline clip-path="url(#clip320)" style="stroke:#000000; stroke-linecap:round; stroke-linejoin:round; stroke-width:4; stroke-opacity:1; fill:none" points="238.339,686.448 238.339,667.55 "/>
<polyline clip-path="url(#clip320)" style="stroke:#000000; stroke-linecap:round; stroke-linejoin:round; stroke-width:4; stroke-opacity:1; fill:none" points="751.562,686.448 751.562,667.55 "/>
<polyline clip-path="url(#clip320)" style="stroke:#000000; stroke-linecap:round; stroke-linejoin:round; stroke-width:4; stroke-opacity:1; fill:none" points="1264.78,686.448 1264.78,667.55 "/>
<polyline clip-path="url(#clip320)" style="stroke:#000000; stroke-linecap:round; stroke-linejoin:round; stroke-width:4; stroke-opacity:1; fill:none" points="1778.01,686.448 1778.01,667.55 "/>
<polyline clip-path="url(#clip320)" style="stroke:#000000; stroke-linecap:round; stroke-linejoin:round; stroke-width:4; stroke-opacity:1; fill:none" points="2291.23,686.448 2291.23,667.55 "/>
<path clip-path="url(#clip320)" d="M238.339 717.367 Q234.728 717.367 232.899 720.931 Q231.094 724.473 231.094 731.603 Q231.094 738.709 232.899 742.274 Q234.728 745.815 238.339 745.815 Q241.973 745.815 243.779 742.274 Q245.607 738.709 245.607 731.603 Q245.607 724.473 243.779 720.931 Q241.973 717.367 238.339 717.367 M238.339 713.663 Q244.149 713.663 247.205 718.269 Q250.283 722.853 250.283 731.603 Q250.283 740.329 247.205 744.936 Q244.149 749.519 238.339 749.519 Q232.529 749.519 229.45 744.936 Q226.395 740.329 226.395 731.603 Q226.395 722.853 229.45 718.269 Q232.529 713.663 238.339 713.663 Z" fill="#000000" fill-rule="nonzero" fill-opacity="1" /><path clip-path="url(#clip320)" d="M715.254 744.913 L731.574 744.913 L731.574 748.848 L709.629 748.848 L709.629 744.913 Q712.291 742.158 716.875 737.528 Q721.481 732.876 722.662 731.533 Q724.907 729.01 725.787 727.274 Q726.689 725.515 726.689 723.825 Q726.689 721.07 724.745 719.334 Q722.824 717.598 719.722 717.598 Q717.523 717.598 715.069 718.362 Q712.638 719.126 709.861 720.677 L709.861 715.955 Q712.685 714.82 715.138 714.242 Q717.592 713.663 719.629 713.663 Q725 713.663 728.194 716.348 Q731.388 719.033 731.388 723.524 Q731.388 725.654 730.578 727.575 Q729.791 729.473 727.685 732.066 Q727.106 732.737 724.004 735.954 Q720.902 739.149 715.254 744.913 Z" fill="#000000" fill-rule="nonzero" fill-opacity="1" /><path clip-path="url(#clip320)" d="M741.435 714.288 L759.791 714.288 L759.791 718.223 L745.717 718.223 L745.717 726.695 Q746.736 726.348 747.754 726.186 Q748.773 726.001 749.791 726.001 Q755.578 726.001 758.958 729.172 Q762.337 732.343 762.337 737.76 Q762.337 743.339 758.865 746.44 Q755.393 749.519 749.073 749.519 Q746.898 749.519 744.629 749.149 Q742.384 748.778 739.976 748.038 L739.976 743.339 Q742.06 744.473 744.282 745.028 Q746.504 745.584 748.981 745.584 Q752.985 745.584 755.323 743.478 Q757.661 741.371 757.661 737.76 Q757.661 734.149 755.323 732.042 Q752.985 729.936 748.981 729.936 Q747.106 729.936 745.231 730.353 Q743.379 730.769 741.435 731.649 L741.435 714.288 Z" fill="#000000" fill-rule="nonzero" fill-opacity="1" /><path clip-path="url(#clip320)" d="M781.55 717.367 Q777.939 717.367 776.11 720.931 Q774.305 724.473 774.305 731.603 Q774.305 738.709 776.11 742.274 Q777.939 745.815 781.55 745.815 Q785.184 745.815 786.99 742.274 Q788.819 738.709 788.819 731.603 Q788.819 724.473 786.99 720.931 Q785.184 717.367 781.55 717.367 M781.55 713.663 Q787.36 713.663 790.416 718.269 Q793.495 722.853 793.495 731.603 Q793.495 740.329 790.416 744.936 Q787.36 749.519 781.55 749.519 Q775.74 749.519 772.661 744.936 Q769.606 740.329 769.606 731.603 Q769.606 722.853 772.661 718.269 Q775.74 713.663 781.55 713.663 Z" fill="#000000" fill-rule="nonzero" fill-opacity="1" /><path clip-path="url(#clip320)" d="M1224.4 714.288 L1242.76 714.288 L1242.76 718.223 L1228.69 718.223 L1228.69 726.695 Q1229.7 726.348 1230.72 726.186 Q1231.74 726.001 1232.76 726.001 Q1238.55 726.001 1241.93 729.172 Q1245.31 732.343 1245.31 737.76 Q1245.31 743.339 1241.83 746.44 Q1238.36 749.519 1232.04 749.519 Q1229.87 749.519 1227.6 749.149 Q1225.35 748.778 1222.94 748.038 L1222.94 743.339 Q1225.03 744.473 1227.25 745.028 Q1229.47 745.584 1231.95 745.584 Q1235.95 745.584 1238.29 743.478 Q1240.63 741.371 1240.63 737.76 Q1240.63 734.149 1238.29 732.042 Q1235.95 729.936 1231.95 729.936 Q1230.07 729.936 1228.2 730.353 Q1226.35 730.769 1224.4 731.649 L1224.4 714.288 Z" fill="#000000" fill-rule="nonzero" fill-opacity="1" /><path clip-path="url(#clip320)" d="M1264.52 717.367 Q1260.91 717.367 1259.08 720.931 Q1257.27 724.473 1257.27 731.603 Q1257.27 738.709 1259.08 742.274 Q1260.91 745.815 1264.52 745.815 Q1268.15 745.815 1269.96 742.274 Q1271.79 738.709 1271.79 731.603 Q1271.79 724.473 1269.96 720.931 Q1268.15 717.367 1264.52 717.367 M1264.52 713.663 Q1270.33 713.663 1273.38 718.269 Q1276.46 722.853 1276.46 731.603 Q1276.46 740.329 1273.38 744.936 Q1270.33 749.519 1264.52 749.519 Q1258.71 749.519 1255.63 744.936 Q1252.57 740.329 1252.57 731.603 Q1252.57 722.853 1255.63 718.269 Q1258.71 713.663 1264.52 713.663 Z" fill="#000000" fill-rule="nonzero" fill-opacity="1" /><path clip-path="url(#clip320)" d="M1294.68 717.367 Q1291.07 717.367 1289.24 720.931 Q1287.44 724.473 1287.44 731.603 Q1287.44 738.709 1289.24 742.274 Q1291.07 745.815 1294.68 745.815 Q1298.31 745.815 1300.12 742.274 Q1301.95 738.709 1301.95 731.603 Q1301.95 724.473 1300.12 720.931 Q1298.31 717.367 1294.68 717.367 M1294.68 713.663 Q1300.49 713.663 1303.55 718.269 Q1306.62 722.853 1306.62 731.603 Q1306.62 740.329 1303.55 744.936 Q1300.49 749.519 1294.68 749.519 Q1288.87 749.519 1285.79 744.936 Q1282.74 740.329 1282.74 731.603 Q1282.74 722.853 1285.79 718.269 Q1288.87 713.663 1294.68 713.663 Z" fill="#000000" fill-rule="nonzero" fill-opacity="1" /><path clip-path="url(#clip320)" d="M1736.28 714.288 L1758.51 714.288 L1758.51 716.279 L1745.96 748.848 L1741.08 748.848 L1752.88 718.223 L1736.28 718.223 L1736.28 714.288 Z" fill="#000000" fill-rule="nonzero" fill-opacity="1" /><path clip-path="url(#clip320)" d="M1767.67 714.288 L1786.03 714.288 L1786.03 718.223 L1771.95 718.223 L1771.95 726.695 Q1772.97 726.348 1773.99 726.186 Q1775.01 726.001 1776.03 726.001 Q1781.82 726.001 1785.2 729.172 Q1788.57 732.343 1788.57 737.76 Q1788.57 743.339 1785.1 746.44 Q1781.63 749.519 1775.31 749.519 Q1773.14 749.519 1770.87 749.149 Q1768.62 748.778 1766.21 748.038 L1766.21 743.339 Q1768.3 744.473 1770.52 745.028 Q1772.74 745.584 1775.22 745.584 Q1779.22 745.584 1781.56 743.478 Q1783.9 741.371 1783.9 737.76 Q1783.9 734.149 1781.56 732.042 Q1779.22 729.936 1775.22 729.936 Q1773.34 729.936 1771.47 730.353 Q1769.62 730.769 1767.67 731.649 L1767.67 714.288 Z" fill="#000000" fill-rule="nonzero" fill-opacity="1" /><path clip-path="url(#clip320)" d="M1807.79 717.367 Q1804.18 717.367 1802.35 720.931 Q1800.54 724.473 1800.54 731.603 Q1800.54 738.709 1802.35 742.274 Q1804.18 745.815 1807.79 745.815 Q1811.42 745.815 1813.23 742.274 Q1815.06 738.709 1815.06 731.603 Q1815.06 724.473 1813.23 720.931 Q1811.42 717.367 1807.79 717.367 M1807.79 713.663 Q1813.6 713.663 1816.65 718.269 Q1819.73 722.853 1819.73 731.603 Q1819.73 740.329 1816.65 744.936 Q1813.6 749.519 1807.79 749.519 Q1801.98 749.519 1798.9 744.936 Q1795.84 740.329 1795.84 731.603 Q1795.84 722.853 1798.9 718.269 Q1801.98 713.663 1807.79 713.663 Z" fill="#000000" fill-rule="nonzero" fill-opacity="1" /><path clip-path="url(#clip320)" d="M2235.76 744.913 L2243.4 744.913 L2243.4 718.547 L2235.09 720.214 L2235.09 715.955 L2243.35 714.288 L2248.02 714.288 L2248.02 744.913 L2255.66 744.913 L2255.66 748.848 L2235.76 748.848 L2235.76 744.913 Z" fill="#000000" fill-rule="nonzero" fill-opacity="1" /><path clip-path="url(#clip320)" d="M2275.11 717.367 Q2271.5 717.367 2269.67 720.931 Q2267.86 724.473 2267.86 731.603 Q2267.86 738.709 2269.67 742.274 Q2271.5 745.815 2275.11 745.815 Q2278.74 745.815 2280.55 742.274 Q2282.38 738.709 2282.38 731.603 Q2282.38 724.473 2280.55 720.931 Q2278.74 717.367 2275.11 717.367 M2275.11 713.663 Q2280.92 713.663 2283.97 718.269 Q2287.05 722.853 2287.05 731.603 Q2287.05 740.329 2283.97 744.936 Q2280.92 749.519 2275.11 749.519 Q2269.3 749.519 2266.22 744.936 Q2263.16 740.329 2263.16 731.603 Q2263.16 722.853 2266.22 718.269 Q2269.3 713.663 2275.11 713.663 Z" fill="#000000" fill-rule="nonzero" fill-opacity="1" /><path clip-path="url(#clip320)" d="M2305.27 717.367 Q2301.66 717.367 2299.83 720.931 Q2298.02 724.473 2298.02 731.603 Q2298.02 738.709 2299.83 742.274 Q2301.66 745.815 2305.27 745.815 Q2308.9 745.815 2310.71 742.274 Q2312.54 738.709 2312.54 731.603 Q2312.54 724.473 2310.71 720.931 Q2308.9 717.367 2305.27 717.367 M2305.27 713.663 Q2311.08 713.663 2314.14 718.269 Q2317.21 722.853 2317.21 731.603 Q2317.21 740.329 2314.14 744.936 Q2311.08 749.519 2305.27 749.519 Q2299.46 749.519 2296.38 744.936 Q2293.33 740.329 2293.33 731.603 Q2293.33 722.853 2296.38 718.269 Q2299.46 713.663 2305.27 713.663 Z" fill="#000000" fill-rule="nonzero" fill-opacity="1" /><path clip-path="url(#clip320)" d="M2335.43 717.367 Q2331.82 717.367 2329.99 720.931 Q2328.19 724.473 2328.19 731.603 Q2328.19 738.709 2329.99 742.274 Q2331.82 745.815 2335.43 745.815 Q2339.07 745.815 2340.87 742.274 Q2342.7 738.709 2342.7 731.603 Q2342.7 724.473 2340.87 720.931 Q2339.07 717.367 2335.43 717.367 M2335.43 713.663 Q2341.24 713.663 2344.3 718.269 Q2347.38 722.853 2347.38 731.603 Q2347.38 740.329 2344.3 744.936 Q2341.24 749.519 2335.43 749.519 Q2329.62 749.519 2326.54 744.936 Q2323.49 740.329 2323.49 731.603 Q2323.49 722.853 2326.54 718.269 Q2329.62 713.663 2335.43 713.663 Z" fill="#000000" fill-rule="nonzero" fill-opacity="1" /><polyline clip-path="url(#clip320)" style="stroke:#000000; stroke-linecap:round; stroke-linejoin:round; stroke-width:4; stroke-opacity:1; fill:none" points="178.867,686.448 178.867,47.2441 "/>
<polyline clip-path="url(#clip320)" style="stroke:#000000; stroke-linecap:round; stroke-linejoin:round; stroke-width:4; stroke-opacity:1; fill:none" points="178.867,686.448 197.764,686.448 "/>
<polyline clip-path="url(#clip320)" style="stroke:#000000; stroke-linecap:round; stroke-linejoin:round; stroke-width:4; stroke-opacity:1; fill:none" points="178.867,526.647 197.764,526.647 "/>
<polyline clip-path="url(#clip320)" style="stroke:#000000; stroke-linecap:round; stroke-linejoin:round; stroke-width:4; stroke-opacity:1; fill:none" points="178.867,366.846 197.764,366.846 "/>
<polyline clip-path="url(#clip320)" style="stroke:#000000; stroke-linecap:round; stroke-linejoin:round; stroke-width:4; stroke-opacity:1; fill:none" points="178.867,207.045 197.764,207.045 "/>
<polyline clip-path="url(#clip320)" style="stroke:#000000; stroke-linecap:round; stroke-linejoin:round; stroke-width:4; stroke-opacity:1; fill:none" points="178.867,47.2441 197.764,47.2441 "/>
<path clip-path="url(#clip320)" d="M50.9921 686.899 L80.6679 686.899 L80.6679 690.834 L50.9921 690.834 L50.9921 686.899 Z" fill="#000000" fill-rule="nonzero" fill-opacity="1" /><path clip-path="url(#clip320)" d="M91.5706 699.793 L99.2095 699.793 L99.2095 673.427 L90.8993 675.094 L90.8993 670.835 L99.1632 669.168 L103.839 669.168 L103.839 699.793 L111.478 699.793 L111.478 703.728 L91.5706 703.728 L91.5706 699.793 Z" fill="#000000" fill-rule="nonzero" fill-opacity="1" /><path clip-path="url(#clip320)" d="M130.922 672.247 Q127.311 672.247 125.482 675.811 Q123.677 679.353 123.677 686.483 Q123.677 693.589 125.482 697.154 Q127.311 700.695 130.922 700.695 Q134.556 700.695 136.362 697.154 Q138.191 693.589 138.191 686.483 Q138.191 679.353 136.362 675.811 Q134.556 672.247 130.922 672.247 M130.922 668.543 Q136.732 668.543 139.788 673.149 Q142.867 677.733 142.867 686.483 Q142.867 695.209 139.788 699.816 Q136.732 704.399 130.922 704.399 Q125.112 704.399 122.033 699.816 Q118.978 695.209 118.978 686.483 Q118.978 677.733 122.033 673.149 Q125.112 668.543 130.922 668.543 Z" fill="#000000" fill-rule="nonzero" fill-opacity="1" /><path clip-path="url(#clip320)" d="M82.1494 527.098 L111.825 527.098 L111.825 531.033 L82.1494 531.033 L82.1494 527.098 Z" fill="#000000" fill-rule="nonzero" fill-opacity="1" /><path clip-path="url(#clip320)" d="M121.964 509.367 L140.32 509.367 L140.32 513.302 L126.246 513.302 L126.246 521.774 Q127.265 521.427 128.283 521.265 Q129.302 521.08 130.32 521.08 Q136.107 521.08 139.487 524.251 Q142.867 527.422 142.867 532.839 Q142.867 538.418 139.394 541.52 Q135.922 544.598 129.603 544.598 Q127.427 544.598 125.158 544.228 Q122.913 543.857 120.506 543.117 L120.506 538.418 Q122.589 539.552 124.811 540.108 Q127.033 540.663 129.51 540.663 Q133.515 540.663 135.853 538.557 Q138.191 536.45 138.191 532.839 Q138.191 529.228 135.853 527.121 Q133.515 525.015 129.51 525.015 Q127.635 525.015 125.76 525.432 Q123.908 525.848 121.964 526.728 L121.964 509.367 Z" fill="#000000" fill-rule="nonzero" fill-opacity="1" /><path clip-path="url(#clip320)" d="M130.922 352.645 Q127.311 352.645 125.482 356.209 Q123.677 359.751 123.677 366.881 Q123.677 373.987 125.482 377.552 Q127.311 381.094 130.922 381.094 Q134.556 381.094 136.362 377.552 Q138.191 373.987 138.191 366.881 Q138.191 359.751 136.362 356.209 Q134.556 352.645 130.922 352.645 M130.922 348.941 Q136.732 348.941 139.788 353.547 Q142.867 358.131 142.867 366.881 Q142.867 375.608 139.788 380.214 Q136.732 384.797 130.922 384.797 Q125.112 384.797 122.033 380.214 Q118.978 375.608 118.978 366.881 Q118.978 358.131 122.033 353.547 Q125.112 348.941 130.922 348.941 Z" fill="#000000" fill-rule="nonzero" fill-opacity="1" /><path clip-path="url(#clip320)" d="M121.964 189.765 L140.32 189.765 L140.32 193.7 L126.246 193.7 L126.246 202.172 Q127.265 201.825 128.283 201.663 Q129.302 201.478 130.32 201.478 Q136.107 201.478 139.487 204.649 Q142.867 207.82 142.867 213.237 Q142.867 218.816 139.394 221.918 Q135.922 224.996 129.603 224.996 Q127.427 224.996 125.158 224.626 Q122.913 224.256 120.506 223.515 L120.506 218.816 Q122.589 219.95 124.811 220.506 Q127.033 221.061 129.51 221.061 Q133.515 221.061 135.853 218.955 Q138.191 216.848 138.191 213.237 Q138.191 209.626 135.853 207.52 Q133.515 205.413 129.51 205.413 Q127.635 205.413 125.76 205.83 Q123.908 206.246 121.964 207.126 L121.964 189.765 Z" fill="#000000" fill-rule="nonzero" fill-opacity="1" /><path clip-path="url(#clip320)" d="M91.5706 60.5889 L99.2095 60.5889 L99.2095 34.2233 L90.8993 35.89 L90.8993 31.6308 L99.1632 29.9641 L103.839 29.9641 L103.839 60.5889 L111.478 60.5889 L111.478 64.5241 L91.5706 64.5241 L91.5706 60.5889 Z" fill="#000000" fill-rule="nonzero" fill-opacity="1" /><path clip-path="url(#clip320)" d="M130.922 33.0428 Q127.311 33.0428 125.482 36.6076 Q123.677 40.1492 123.677 47.2788 Q123.677 54.3853 125.482 57.9501 Q127.311 61.4917 130.922 61.4917 Q134.556 61.4917 136.362 57.9501 Q138.191 54.3853 138.191 47.2788 Q138.191 40.1492 136.362 36.6076 Q134.556 33.0428 130.922 33.0428 M130.922 29.3391 Q136.732 29.3391 139.788 33.9456 Q142.867 38.5289 142.867 47.2788 Q142.867 56.0056 139.788 60.6121 Q136.732 65.1954 130.922 65.1954 Q125.112 65.1954 122.033 60.6121 Q118.978 56.0056 118.978 47.2788 Q118.978 38.5289 122.033 33.9456 Q125.112 29.3391 130.922 29.3391 Z" fill="#000000" fill-rule="nonzero" fill-opacity="1" /><polyline clip-path="url(#clip322)" style="stroke:#009af9; stroke-linecap:round; stroke-linejoin:round; stroke-width:4; stroke-opacity:1; fill:none" points="240.392,334.886 242.445,338.833 244.498,337.008 246.55,330.778 248.603,330.764 250.656,330.512 252.709,347.11 254.762,345.608 256.815,345.137 258.868,322.672 260.921,324.377 262.974,324.296 265.027,331.058 267.079,324.879 269.132,331.172 271.185,330.429 273.238,379.629 275.291,363.982 277.344,388.947 279.397,369.335 281.45,367.307 283.503,349.44 285.555,349.884 287.608,348.361 289.661,349.161 291.714,355.147 293.767,356.678 295.82,356.665 297.873,346.993 299.926,343.601 301.979,343.656 304.031,346.031 306.084,346.687 308.137,347.008 310.19,347.67 312.243,345.768 314.296,346.99 316.349,360.368 318.402,360.376 320.455,374.218 322.507,367.691 324.56,368.884 326.613,370.381 328.666,370.854 330.719,371.007 332.772,374.903 334.825,374.88 336.878,373.89 338.931,374.214 340.984,374.102 343.036,367.757 345.089,366.002 347.142,367.061 349.195,368.816 351.248,356.548 353.301,369.88 355.354,366.149 357.407,364.405 359.46,375.563 361.512,379.939 363.565,368.765 365.618,349.561 367.671,333.52 369.724,335.633 371.777,339.088 373.83,357.058 375.883,346.877 377.936,355.023 379.988,356.874 382.041,357.452 384.094,356.876 386.147,356.53 388.2,357.248 390.253,355.893 392.306,357.067 394.359,357.827 396.412,372.769 398.464,370.003 400.517,370.278 402.57,370.271 404.623,370.2 406.676,397.065 408.729,402.52 410.782,403.403 412.835,404.614 414.888,404.705 416.94,362.174 418.993,363.085 421.046,363.785 423.099,362.828 425.152,362.794 427.205,363.986 429.258,364.021 431.311,377.306 433.364,377.306 435.417,375.126 437.469,380.143 439.522,378.882 441.575,378.929 443.628,378.921 445.681,380.225 447.734,376.341 449.787,377.756 451.84,378.168 453.893,379.764 455.945,372.225 457.998,376.33 460.051,378.886 462.104,408.633 464.157,383.976 466.21,337.316 468.263,318.556 470.316,358.622 472.369,358.685 474.421,350.135 476.474,374.605 478.527,411.652 480.58,411.718 482.633,411.771 484.686,410.294 486.739,378.268 488.792,362.682 490.845,363.323 492.897,367.809 494.95,358.517 497.003,347.313 499.056,380.461 501.109,374.705 503.162,374.097 505.215,376.783 507.268,376.474 509.321,420.808 511.374,390.571 513.426,387.788 515.479,387.885 517.532,383.105 519.585,365.051 521.638,365.525 523.691,365.607 525.744,362.423 527.797,363.616 529.85,360.383 531.902,365.719 533.955,363.42 536.008,363.773 538.061,366.632 540.114,368.297 542.167,370.188 544.22,370.417 546.273,360.685 548.326,361.568 550.378,355.542 552.431,374.249 554.484,374.995 556.537,378.863 558.59,375.843 560.643,375.597 562.696,375.985 564.749,372.958 566.802,354.777 568.854,360.111 570.907,345.689 572.96,342.142 575.013,343.665 577.066,346.126 579.119,346.488 581.172,342.761 583.225,360.745 585.278,361.554 587.331,351.447 589.383,348.76 591.436,339.471 593.489,356.532 595.542,355.626 597.595,355.738 599.648,356.044 601.701,355.834 603.754,363.854 605.807,372.899 607.859,376.212 609.912,375.564 611.965,375.703 614.018,381.085 616.071,381.095 618.124,382.128 620.177,381.695 622.23,372.169 624.283,373.326 626.335,370.576 628.388,372.99 630.441,352.724 632.494,386.504 634.547,384.28 636.6,386.423 638.653,374.333 640.706,366.237 642.759,365.613 644.811,368.228 646.864,368.986 648.917,369.6 650.97,377.248 653.023,355.22 655.076,355.245 657.129,356.64 659.182,356.134 661.235,356.685 663.288,356.383 665.34,353.611 667.393,353.33 669.446,346.344 671.499,364.149 673.552,370.548 675.605,370.539 677.658,322.165 679.711,320.547 681.764,331.614 683.816,331.607 685.869,346.573 687.922,343.778 689.975,356.683 692.028,357.662 694.081,354.668 696.134,365.486 698.187,367.51 700.24,368.621 702.292,369.233 704.345,366.775 706.398,330.396 708.451,329.339 710.504,384.651 712.557,371.259 714.61,365.13 716.663,355.759 718.716,359.274 720.768,359.962 722.821,371.431 724.874,374.29 726.927,389.127 728.98,370.26 731.033,352.065 733.086,334.849 735.139,344.773 737.192,344.685 739.245,343.707 741.297,336.523 743.35,345.318 745.403,351.485 747.456,351.89 749.509,374.516 751.562,376.061 753.615,374.794 755.668,374.524 757.721,377.496 759.773,377.015 761.826,377.046 763.879,376.381 765.932,375.963 767.985,375.252 770.038,315.444 772.091,312.38 774.144,308.393 776.197,311.078 778.249,309.856 780.302,311.496 782.355,315.264 784.408,316.571 786.461,312.537 788.514,312.61 790.567,317.781 792.62,317.843 794.673,317.322 796.725,322.453 798.778,334.699 800.831,404.582 802.884,404.458 804.937,410.67 806.99,408.996 809.043,406.965 811.096,405.697 813.149,411.199 815.202,412.785 817.254,389.622 819.307,390.899 821.36,390.905 823.413,401.786 825.466,401.053 827.519,402.277 829.572,400.795 831.625,400.87 833.678,401.046 835.73,401.052 837.783,406.899 839.836,403.734 841.889,402.577 843.942,371.576 845.995,365.85 848.048,362.649 850.101,372.667 852.154,365.459 854.206,365.129 856.259,354.381 858.312,324.377 860.365,324.535 862.418,354.861 864.471,355.856 866.524,359.178 868.577,359.19 870.63,359.519 872.682,366.268 874.735,415.889 876.788,321.695 878.841,321.371 880.894,318.732 882.947,320.045 885,320.238 887.053,333.405 889.106,332.473 891.159,337.284 893.211,345.895 895.264,345.056 897.317,345.443 899.37,345.575 901.423,346.144 903.476,325.467 905.529,325.465 907.582,306.304 909.635,307.849 911.687,309.323 913.74,314.577 915.793,314.377 917.846,312.357 919.899,313.054 921.952,322.362 924.005,296.408 926.058,282.401 928.111,288.015 930.163,281.066 932.216,277.021 934.269,277.227 936.322,276.865 938.375,280.977 940.428,284.854 942.481,285.704 944.534,287.051 946.587,287.07 948.639,287.697 950.692,287.158 952.745,289.461 954.798,295.964 956.851,297.995 958.904,298.214 960.957,305.243 963.01,305.168 965.063,305.163 967.116,312.661 969.168,319.295 971.221,270.241 973.274,269.407 975.327,293.405 977.38,297.735 979.433,323.574 981.486,332.042 983.539,331.592 985.592,331.145 987.644,316.907 989.697,414.741 991.75,342.008 993.803,330.973 995.856,330.989 997.909,325.956 999.962,325.606 1002.01,325.693 1004.07,332.29 1006.12,331.925 1008.17,326.465 1010.23,298.808 1012.28,302.299 1014.33,307.219 1016.38,308.218 1018.44,313.305 1020.49,350.086 1022.54,361.201 1024.6,373.238 1026.65,374.661 1028.7,346.985 1030.76,363.492 1032.81,363.182 1034.86,361.517 1036.91,361.016 1038.97,360.636 1041.02,401.36 1043.07,409.192 1045.13,411.367 1047.18,430.377 1049.23,381.939 1051.28,368.809 1053.34,368.841 1055.39,365.818 1057.44,362.068 1059.5,362.807 1061.55,363.163 1063.6,362.208 1065.65,359.709 1067.71,363.77 1069.76,363.607 1071.81,374.182 1073.87,378.009 1075.92,377.843 1077.97,378.172 1080.02,377.998 1082.08,351.068 1084.13,351.738 1086.18,352.079 1088.24,352.261 1090.29,352.125 1092.34,351.696 1094.39,373.388 1096.45,373.269 1098.5,373.403 1100.55,370.465 1102.61,371.101 1104.66,365.897 1106.71,366.346 1108.77,365.758 1110.82,367.686 1112.87,370.451 1114.92,370.451 1116.98,366.779 1119.03,365.942 1121.08,355.171 1123.14,355.132 1125.19,355.405 1127.24,355.587 1129.29,360.271 1131.35,357.574 1133.4,357.546 1135.45,357.172 1137.51,357.692 1139.56,357.902 1141.61,357.38 1143.66,352.68 1145.72,350.725 1147.77,353.322 1149.82,355.065 1151.88,351.771 1153.93,350.576 1155.98,378.813 1158.03,378.701 1160.09,374.461 1162.14,376.141 1164.19,376.04 1166.25,376.12 1168.3,374.352 1170.35,374.446 1172.4,378.952 1174.46,338.24 1176.51,338.408 1178.56,338.277 1180.62,369.897 1182.67,369.423 1184.72,367.498 1186.77,367.506 1188.83,368.381 1190.88,369.424 1192.93,369.487 1194.99,369.014 1197.04,370.144 1199.09,369.687 1201.15,377.208 1203.2,378.11 1205.25,376.957 1207.3,376.937 1209.36,376.783 1211.41,376.772 1213.46,369.195 1215.52,369.484 1217.57,369.476 1219.62,369.595 1221.67,364.034 1223.73,367.332 1225.78,367.316 1227.83,366.724 1229.89,366.495 1231.94,365.098 1233.99,365.38 1236.04,372.126 1238.1,371.937 1240.15,376.032 1242.2,376.245 1244.26,380.209 1246.31,376.279 1248.36,376.977 1250.41,374.142 1252.47,371.645 1254.52,375.258 1256.57,374.979 1258.63,374.902 1260.68,368.972 1262.73,368.913 1264.78,354.823 1266.84,379.292 1268.89,375.7 1270.94,373.358 1273,373.243 1275.05,372.24 1277.1,372.598 1279.16,369.685 1281.21,369.68 1283.26,373.796 1285.31,365.847 1287.37,366.008 1289.42,359.234 1291.47,359.567 1293.53,356.114 1295.58,355.86 1297.63,354.501 1299.68,351.647 1301.74,350.183 1303.79,354.626 1305.84,339.083 1307.9,333.803 1309.95,333.5 1312,330.716 1314.05,324.459 1316.11,324.499 1318.16,324.289 1320.21,323.14 1322.27,328.464 1324.32,416.319 1326.37,416.579 1328.42,417.663 1330.48,417.217 1332.53,422.551 1334.58,358.415 1336.64,363.887 1338.69,352.709 1340.74,352.326 1342.79,353.364 1344.85,350.081 1346.9,350.006 1348.95,349.998 1351.01,349.982 1353.06,353.989 1355.11,361.54 1357.16,362.273 1359.22,361.76 1361.27,361.762 1363.32,365.27 1365.38,363.26 1367.43,380.544 1369.48,380.916 1371.54,380.742 1373.59,382.544 1375.64,382.678 1377.69,382.009 1379.75,382.398 1381.8,379.195 1383.85,357.366 1385.91,359.038 1387.96,358.137 1390.01,348.67 1392.06,330.004 1394.12,350.109 1396.17,350.095 1398.22,349.576 1400.28,319.882 1402.33,319.375 1404.38,322.278 1406.43,343.906 1408.49,336.731 1410.54,391.619 1412.59,392.277 1414.65,388.827 1416.7,344.846 1418.75,345.265 1420.8,344.751 1422.86,345.206 1424.91,368.063 1426.96,366.939 1429.02,365.782 1431.07,363.234 1433.12,358.874 1435.17,316.738 1437.23,329.395 1439.28,369.023 1441.33,403.743 1443.39,367.618 1445.44,367.388 1447.49,368.013 1449.55,374.989 1451.6,366.925 1453.65,346.131 1455.7,344.894 1457.76,345.232 1459.81,346.752 1461.86,379.032 1463.92,372.978 1465.97,374.994 1468.02,370.596 1470.07,373.555 1472.13,341.548 1474.18,401.773 1476.23,401.64 1478.29,400.072 1480.34,367.78 1482.39,374.981 1484.44,351.167 1486.5,277.858 1488.55,291.893 1490.6,377.505 1492.66,377.24 1494.71,368.063 1496.76,366.993 1498.81,375.1 1500.87,428.755 1502.92,427.055 1504.97,423.558 1507.03,419.096 1509.08,412.393 1511.13,392.703 1513.18,366.565 1515.24,367.234 1517.29,369.37 1519.34,391.377 1521.4,346.388 1523.45,327.822 1525.5,443.595 1527.55,306.202 1529.61,376.998 1531.66,408.478 1533.71,376.17 1535.77,396.449 1537.82,397.465 1539.87,423.846 1541.93,376.217 1543.98,377.588 1546.03,376.915 1548.08,377.222 1550.14,402.757 1552.19,406.02 1554.24,441.628 1556.3,511.07 1558.35,511.492 1560.4,499.527 1562.45,480.73 1564.51,463.58 1566.56,482.995 1568.61,466.37 1570.67,447.306 1572.72,365.031 1574.77,420.673 1576.82,414.666 1578.88,394.75 1580.93,431.135 1582.98,434.469 1585.04,434.579 1587.09,429.696 1589.14,394.455 1591.19,394.592 1593.25,396.361 1595.3,340.164 1597.35,325.467 1599.41,326.071 1601.46,334.795 1603.51,303.198 1605.56,326.604 1607.62,316.04 1609.67,349.731 1611.72,347.45 1613.78,415.032 1615.83,411.278 1617.88,410.811 1619.94,401.921 1621.99,407.16 1624.04,441.863 1626.09,435.604 1628.15,441.86 1630.2,440.252 1632.25,432.624 1634.31,431.322 1636.36,420.672 1638.41,421.56 1640.46,443.938 1642.52,443.836 1644.57,412.565 1646.62,422.318 1648.68,420.857 1650.73,399.562 1652.78,404.459 1654.83,401.454 1656.89,401.212 1658.94,404.31 1660.99,401.422 1663.05,415.573 1665.1,404.666 1667.15,408.517 1669.2,408.137 1671.26,396.591 1673.31,379.388 1675.36,321.146 1677.42,325.65 1679.47,343.165 1681.52,340.427 1683.57,340.331 1685.63,333.64 1687.68,333.503 1689.73,332.091 1691.79,333.77 1693.84,330.608 1695.89,325.681 1697.94,306.258 1700,319.066 1702.05,313.291 1704.1,312.144 1706.16,364.427 1708.21,358.601 1710.26,375.612 1712.32,439.547 1714.37,405.932 1716.42,416.68 1718.47,424.726 1720.53,415.548 1722.58,387.655 1724.63,400.576 1726.69,378.402 1728.74,378.893 1730.79,369.83 1732.84,353.918 1734.9,353.604 1736.95,359.401 1739,357.729 1741.06,361.932 1743.11,361.816 1745.16,361.579 1747.21,366.897 1749.27,367.06 1751.32,365.629 1753.37,366.126 1755.43,366.021 1757.48,366.032 1759.53,358.204 1761.58,354.781 1763.64,360.247 1765.69,375.252 1767.74,384.267 1769.8,383.823 1771.85,421.475 1773.9,398.082 1775.95,397.481 1778.01,397.207 1780.06,397.796 1782.11,397.628 1784.17,393.798 1786.22,393.411 1788.27,384.605 1790.33,373.847 1792.38,356.233 1794.43,354.115 1796.48,352.945 1798.54,353.453 1800.59,353.022 1802.64,351.903 1804.7,351.941 1806.75,410.319 1808.8,406.986 1810.85,412.147 1812.91,411.851 1814.96,379.697 1817.01,378.542 1819.07,374.083 1821.12,373.751 1823.17,371.305 1825.22,358.682 1827.28,354.094 1829.33,351.97 1831.38,385.261 1833.44,378.51 1835.49,378.823 1837.54,375.678 1839.59,374.345 1841.65,370.886 1843.7,371.057 1845.75,375.757 1847.81,380.237 1849.86,380.425 1851.91,377.075 1853.96,376.359 1856.02,370.138 1858.07,341.602 1860.12,343.072 1862.18,341.832 1864.23,384.926 1866.28,381.881 1868.34,381.681 1870.39,380.737 1872.44,382.785 1874.49,382.846 1876.55,381.983 1878.6,384.75 1880.65,384.761 1882.71,384.609 1884.76,384.347 1886.81,377.999 1888.86,383.961 1890.92,378.859 1892.97,376.591 1895.02,377.83 1897.08,377.904 1899.13,377.482 1901.18,377.62 1903.23,377.739 1905.29,376.887 1907.34,376.99 1909.39,377.493 1911.45,373.345 1913.5,361.23 1915.55,361.743 1917.6,359.139 1919.66,346.779 1921.71,354.27 1923.76,345.123 1925.82,377.975 1927.87,378.516 1929.92,377.779 1931.97,377.929 1934.03,400.193 1936.08,393.609 1938.13,401.977 1940.19,399.416 1942.24,398.274 1944.29,399.677 1946.34,398.081 1948.4,349.058 1950.45,349.763 1952.5,352.119 1954.56,351.185 1956.61,346.492 1958.66,349.956 1960.72,349.25 1962.77,402.416 1964.82,403.677 1966.87,405.28 1968.93,405.345 1970.98,399.213 1973.03,404.293 1975.09,393.768 1977.14,394.911 1979.19,291.307 1981.24,293.079 1983.3,339.442 1985.35,343.448 1987.4,373.29 1989.46,373.136 1991.51,372.274 1993.56,417.836 1995.61,428.867 1997.67,439.48 1999.72,451.909 2001.77,400.643 2003.83,400.001 2005.88,373.074 2007.93,359.582 2009.98,361.235 2012.04,360.959 2014.09,399.688 2016.14,390.663 2018.2,361.758 2020.25,327.577 2022.3,288.389 2024.35,312.507 2026.41,312.002 2028.46,313.857 2030.51,337.219 2032.57,332.392 2034.62,297.751 2036.67,295.4 2038.73,293.898 2040.78,278.337 2042.83,264.424 2044.88,265.635 2046.94,264.741 2048.99,258.235 2051.04,257.213 2053.1,260.431 2055.15,290.967 2057.2,247.773 2059.25,277.144 2061.31,253.412 2063.36,253.904 2065.41,290.316 2067.47,286.642 2069.52,282.217 2071.57,279.568 2073.62,302.627 2075.68,299.911 2077.73,366.211 2079.78,365.964 2081.84,365.657 2083.89,365.515 2085.94,365.806 2087.99,368.572 2090.05,370.156 2092.1,372.698 2094.15,372.852 2096.21,368.799 2098.26,381.706 2100.31,380.519 2102.36,383.646 2104.42,383.645 2106.47,371.288 2108.52,368.463 2110.58,368.779 2112.63,371.822 2114.68,371.264 2116.73,372.232 2118.79,372.322 2120.84,374.076 2122.89,385.913 2124.95,387.813 2127,386.986 2129.05,386.994 2131.11,387.01 2133.16,380.378 2135.21,380.405 2137.26,380.875 2139.32,381.287 2141.37,378.49 2143.42,378.496 2145.48,378.543 2147.53,377.49 2149.58,377.601 2151.63,377.769 2153.69,360.858 2155.74,358.136 2157.79,358.774 2159.85,366.749 2161.9,366.405 2163.95,366.409 2166,365.412 2168.06,365.656 2170.11,366.492 2172.16,372.045 2174.22,378.465 2176.27,373.157 2178.32,372.731 2180.37,379.521 2182.43,363.809 2184.48,363.788 2186.53,364.286 2188.59,377.451 2190.64,380.197 2192.69,380.23 2194.74,378.794 2196.8,378.531 2198.85,370.397 2200.9,369.858 2202.96,370.788 2205.01,374.777 2207.06,370.263 2209.12,372.637 2211.17,373.057 2213.22,369.827 2215.27,369.827 2217.33,369.646 2219.38,369.605 2221.43,369.586 2223.49,360.382 2225.54,360.398 2227.59,360.824 2229.64,362.492 2231.7,356.857 2233.75,356.999 2235.8,356.999 2237.86,358.122 2239.91,358.074 2241.96,358.827 2244.01,356.492 2246.07,356.647 2248.12,358.115 2250.17,357.866 2252.23,360.27 2254.28,360.436 2256.33,360.627 2258.38,360.827 2260.44,376.572 2262.49,383.522 2264.54,383.482 2266.6,383.796 2268.65,383.624 2270.7,384.501 2272.75,384.775 2274.81,377.652 2276.86,361.721 2278.91,361.536 2280.97,366.276 2283.02,354.416 2285.07,356.78 2287.12,356.563 2289.18,353.321 2291.23,355.203 "/>
<path clip-path="url(#clip320)" d="M1983.6 172.231 L2280.29 172.231 L2280.29 68.5509 L1983.6 68.5509  Z" fill="#ffffff" fill-rule="evenodd" fill-opacity="1"/>
<polyline clip-path="url(#clip320)" style="stroke:#000000; stroke-linecap:round; stroke-linejoin:round; stroke-width:4; stroke-opacity:1; fill:none" points="1983.6,172.231 2280.29,172.231 2280.29,68.5509 1983.6,68.5509 1983.6,172.231 "/>
<polyline clip-path="url(#clip320)" style="stroke:#009af9; stroke-linecap:round; stroke-linejoin:round; stroke-width:4; stroke-opacity:1; fill:none" points="2007.75,120.391 2152.68,120.391 "/>
<path clip-path="url(#clip320)" d="M2176.83 103.111 L2181.51 103.111 L2181.51 133.736 L2198.34 133.736 L2198.34 137.671 L2176.83 137.671 L2176.83 103.111 Z" fill="#000000" fill-rule="nonzero" fill-opacity="1" /><path clip-path="url(#clip320)" d="M2223.96 104.245 L2223.96 108.805 Q2221.3 107.532 2218.94 106.907 Q2216.58 106.282 2214.38 106.282 Q2210.56 106.282 2208.48 107.764 Q2206.42 109.245 2206.42 111.977 Q2206.42 114.268 2207.78 115.449 Q2209.17 116.606 2213.01 117.324 L2215.84 117.902 Q2221.07 118.898 2223.55 121.421 Q2226.05 123.921 2226.05 128.134 Q2226.05 133.157 2222.67 135.75 Q2219.31 138.342 2212.81 138.342 Q2210.35 138.342 2207.57 137.787 Q2204.82 137.231 2201.86 136.143 L2201.86 131.328 Q2204.7 132.926 2207.44 133.736 Q2210.17 134.546 2212.81 134.546 Q2216.81 134.546 2218.99 132.972 Q2221.16 131.398 2221.16 128.481 Q2221.16 125.935 2219.59 124.5 Q2218.04 123.064 2214.47 122.347 L2211.62 121.791 Q2206.39 120.75 2204.06 118.527 Q2201.72 116.305 2201.72 112.347 Q2201.72 107.764 2204.94 105.125 Q2208.18 102.486 2213.85 102.486 Q2216.28 102.486 2218.8 102.926 Q2221.32 103.366 2223.96 104.245 Z" fill="#000000" fill-rule="nonzero" fill-opacity="1" /><path clip-path="url(#clip320)" d="M2254.06 104.245 L2254.06 108.805 Q2251.39 107.532 2249.03 106.907 Q2246.67 106.282 2244.47 106.282 Q2240.65 106.282 2238.57 107.764 Q2236.51 109.245 2236.51 111.977 Q2236.51 114.268 2237.87 115.449 Q2239.26 116.606 2243.11 117.324 L2245.93 117.902 Q2251.16 118.898 2253.64 121.421 Q2256.14 123.921 2256.14 128.134 Q2256.14 133.157 2252.76 135.75 Q2249.4 138.342 2242.9 138.342 Q2240.44 138.342 2237.67 137.787 Q2234.91 137.231 2231.95 136.143 L2231.95 131.328 Q2234.8 132.926 2237.53 133.736 Q2240.26 134.546 2242.9 134.546 Q2246.9 134.546 2249.08 132.972 Q2251.25 131.398 2251.25 128.481 Q2251.25 125.935 2249.68 124.5 Q2248.13 123.064 2244.56 122.347 L2241.72 121.791 Q2236.49 120.75 2234.15 118.527 Q2231.81 116.305 2231.81 112.347 Q2231.81 107.764 2235.03 105.125 Q2238.27 102.486 2243.94 102.486 Q2246.37 102.486 2248.89 102.926 Q2251.42 103.366 2254.06 104.245 Z" fill="#000000" fill-rule="nonzero" fill-opacity="1" /><path clip-path="url(#clip320)" d="M178.867 1486.45 L2352.76 1486.45 L2352.76 847.244 L178.867 847.244  Z" fill="#ffffff" fill-rule="evenodd" fill-opacity="1"/>
<defs>
  <clipPath id="clip323">
    <rect x="178" y="847" width="2175" height="640"/>
  </clipPath>
</defs>
<polyline clip-path="url(#clip323)" style="stroke:#000000; stroke-linecap:round; stroke-linejoin:round; stroke-width:2; stroke-opacity:0.1; fill:none" points="238.339,1486.45 238.339,847.244 "/>
<polyline clip-path="url(#clip323)" style="stroke:#000000; stroke-linecap:round; stroke-linejoin:round; stroke-width:2; stroke-opacity:0.1; fill:none" points="751.562,1486.45 751.562,847.244 "/>
<polyline clip-path="url(#clip323)" style="stroke:#000000; stroke-linecap:round; stroke-linejoin:round; stroke-width:2; stroke-opacity:0.1; fill:none" points="1264.78,1486.45 1264.78,847.244 "/>
<polyline clip-path="url(#clip323)" style="stroke:#000000; stroke-linecap:round; stroke-linejoin:round; stroke-width:2; stroke-opacity:0.1; fill:none" points="1778.01,1486.45 1778.01,847.244 "/>
<polyline clip-path="url(#clip323)" style="stroke:#000000; stroke-linecap:round; stroke-linejoin:round; stroke-width:2; stroke-opacity:0.1; fill:none" points="2291.23,1486.45 2291.23,847.244 "/>
<polyline clip-path="url(#clip323)" style="stroke:#000000; stroke-linecap:round; stroke-linejoin:round; stroke-width:2; stroke-opacity:0.1; fill:none" points="178.867,1486.45 2352.76,1486.45 "/>
<polyline clip-path="url(#clip323)" style="stroke:#000000; stroke-linecap:round; stroke-linejoin:round; stroke-width:2; stroke-opacity:0.1; fill:none" points="178.867,1326.65 2352.76,1326.65 "/>
<polyline clip-path="url(#clip323)" style="stroke:#000000; stroke-linecap:round; stroke-linejoin:round; stroke-width:2; stroke-opacity:0.1; fill:none" points="178.867,1166.85 2352.76,1166.85 "/>
<polyline clip-path="url(#clip323)" style="stroke:#000000; stroke-linecap:round; stroke-linejoin:round; stroke-width:2; stroke-opacity:0.1; fill:none" points="178.867,1007.05 2352.76,1007.05 "/>
<polyline clip-path="url(#clip323)" style="stroke:#000000; stroke-linecap:round; stroke-linejoin:round; stroke-width:2; stroke-opacity:0.1; fill:none" points="178.867,847.244 2352.76,847.244 "/>
<polyline clip-path="url(#clip320)" style="stroke:#000000; stroke-linecap:round; stroke-linejoin:round; stroke-width:4; stroke-opacity:1; fill:none" points="178.867,1486.45 2352.76,1486.45 "/>
<polyline clip-path="url(#clip320)" style="stroke:#000000; stroke-linecap:round; stroke-linejoin:round; stroke-width:4; stroke-opacity:1; fill:none" points="238.339,1486.45 238.339,1467.55 "/>
<polyline clip-path="url(#clip320)" style="stroke:#000000; stroke-linecap:round; stroke-linejoin:round; stroke-width:4; stroke-opacity:1; fill:none" points="751.562,1486.45 751.562,1467.55 "/>
<polyline clip-path="url(#clip320)" style="stroke:#000000; stroke-linecap:round; stroke-linejoin:round; stroke-width:4; stroke-opacity:1; fill:none" points="1264.78,1486.45 1264.78,1467.55 "/>
<polyline clip-path="url(#clip320)" style="stroke:#000000; stroke-linecap:round; stroke-linejoin:round; stroke-width:4; stroke-opacity:1; fill:none" points="1778.01,1486.45 1778.01,1467.55 "/>
<polyline clip-path="url(#clip320)" style="stroke:#000000; stroke-linecap:round; stroke-linejoin:round; stroke-width:4; stroke-opacity:1; fill:none" points="2291.23,1486.45 2291.23,1467.55 "/>
<path clip-path="url(#clip320)" d="M238.339 1517.37 Q234.728 1517.37 232.899 1520.93 Q231.094 1524.47 231.094 1531.6 Q231.094 1538.71 232.899 1542.27 Q234.728 1545.82 238.339 1545.82 Q241.973 1545.82 243.779 1542.27 Q245.607 1538.71 245.607 1531.6 Q245.607 1524.47 243.779 1520.93 Q241.973 1517.37 238.339 1517.37 M238.339 1513.66 Q244.149 1513.66 247.205 1518.27 Q250.283 1522.85 250.283 1531.6 Q250.283 1540.33 247.205 1544.94 Q244.149 1549.52 238.339 1549.52 Q232.529 1549.52 229.45 1544.94 Q226.395 1540.33 226.395 1531.6 Q226.395 1522.85 229.45 1518.27 Q232.529 1513.66 238.339 1513.66 Z" fill="#000000" fill-rule="nonzero" fill-opacity="1" /><path clip-path="url(#clip320)" d="M715.254 1544.91 L731.574 1544.91 L731.574 1548.85 L709.629 1548.85 L709.629 1544.91 Q712.291 1542.16 716.875 1537.53 Q721.481 1532.88 722.662 1531.53 Q724.907 1529.01 725.787 1527.27 Q726.689 1525.51 726.689 1523.82 Q726.689 1521.07 724.745 1519.33 Q722.824 1517.6 719.722 1517.6 Q717.523 1517.6 715.069 1518.36 Q712.638 1519.13 709.861 1520.68 L709.861 1515.95 Q712.685 1514.82 715.138 1514.24 Q717.592 1513.66 719.629 1513.66 Q725 1513.66 728.194 1516.35 Q731.388 1519.03 731.388 1523.52 Q731.388 1525.65 730.578 1527.57 Q729.791 1529.47 727.685 1532.07 Q727.106 1532.74 724.004 1535.95 Q720.902 1539.15 715.254 1544.91 Z" fill="#000000" fill-rule="nonzero" fill-opacity="1" /><path clip-path="url(#clip320)" d="M741.435 1514.29 L759.791 1514.29 L759.791 1518.22 L745.717 1518.22 L745.717 1526.7 Q746.736 1526.35 747.754 1526.19 Q748.773 1526 749.791 1526 Q755.578 1526 758.958 1529.17 Q762.337 1532.34 762.337 1537.76 Q762.337 1543.34 758.865 1546.44 Q755.393 1549.52 749.073 1549.52 Q746.898 1549.52 744.629 1549.15 Q742.384 1548.78 739.976 1548.04 L739.976 1543.34 Q742.06 1544.47 744.282 1545.03 Q746.504 1545.58 748.981 1545.58 Q752.985 1545.58 755.323 1543.48 Q757.661 1541.37 757.661 1537.76 Q757.661 1534.15 755.323 1532.04 Q752.985 1529.94 748.981 1529.94 Q747.106 1529.94 745.231 1530.35 Q743.379 1530.77 741.435 1531.65 L741.435 1514.29 Z" fill="#000000" fill-rule="nonzero" fill-opacity="1" /><path clip-path="url(#clip320)" d="M781.55 1517.37 Q777.939 1517.37 776.11 1520.93 Q774.305 1524.47 774.305 1531.6 Q774.305 1538.71 776.11 1542.27 Q777.939 1545.82 781.55 1545.82 Q785.184 1545.82 786.99 1542.27 Q788.819 1538.71 788.819 1531.6 Q788.819 1524.47 786.99 1520.93 Q785.184 1517.37 781.55 1517.37 M781.55 1513.66 Q787.36 1513.66 790.416 1518.27 Q793.495 1522.85 793.495 1531.6 Q793.495 1540.33 790.416 1544.94 Q787.36 1549.52 781.55 1549.52 Q775.74 1549.52 772.661 1544.94 Q769.606 1540.33 769.606 1531.6 Q769.606 1522.85 772.661 1518.27 Q775.74 1513.66 781.55 1513.66 Z" fill="#000000" fill-rule="nonzero" fill-opacity="1" /><path clip-path="url(#clip320)" d="M1224.4 1514.29 L1242.76 1514.29 L1242.76 1518.22 L1228.69 1518.22 L1228.69 1526.7 Q1229.7 1526.35 1230.72 1526.19 Q1231.74 1526 1232.76 1526 Q1238.55 1526 1241.93 1529.17 Q1245.31 1532.34 1245.31 1537.76 Q1245.31 1543.34 1241.83 1546.44 Q1238.36 1549.52 1232.04 1549.52 Q1229.87 1549.52 1227.6 1549.15 Q1225.35 1548.78 1222.94 1548.04 L1222.94 1543.34 Q1225.03 1544.47 1227.25 1545.03 Q1229.47 1545.58 1231.95 1545.58 Q1235.95 1545.58 1238.29 1543.48 Q1240.63 1541.37 1240.63 1537.76 Q1240.63 1534.15 1238.29 1532.04 Q1235.95 1529.94 1231.95 1529.94 Q1230.07 1529.94 1228.2 1530.35 Q1226.35 1530.77 1224.4 1531.65 L1224.4 1514.29 Z" fill="#000000" fill-rule="nonzero" fill-opacity="1" /><path clip-path="url(#clip320)" d="M1264.52 1517.37 Q1260.91 1517.37 1259.08 1520.93 Q1257.27 1524.47 1257.27 1531.6 Q1257.27 1538.71 1259.08 1542.27 Q1260.91 1545.82 1264.52 1545.82 Q1268.15 1545.82 1269.96 1542.27 Q1271.79 1538.71 1271.79 1531.6 Q1271.79 1524.47 1269.96 1520.93 Q1268.15 1517.37 1264.52 1517.37 M1264.52 1513.66 Q1270.33 1513.66 1273.38 1518.27 Q1276.46 1522.85 1276.46 1531.6 Q1276.46 1540.33 1273.38 1544.94 Q1270.33 1549.52 1264.52 1549.52 Q1258.71 1549.52 1255.63 1544.94 Q1252.57 1540.33 1252.57 1531.6 Q1252.57 1522.85 1255.63 1518.27 Q1258.71 1513.66 1264.52 1513.66 Z" fill="#000000" fill-rule="nonzero" fill-opacity="1" /><path clip-path="url(#clip320)" d="M1294.68 1517.37 Q1291.07 1517.37 1289.24 1520.93 Q1287.44 1524.47 1287.44 1531.6 Q1287.44 1538.71 1289.24 1542.27 Q1291.07 1545.82 1294.68 1545.82 Q1298.31 1545.82 1300.12 1542.27 Q1301.95 1538.71 1301.95 1531.6 Q1301.95 1524.47 1300.12 1520.93 Q1298.31 1517.37 1294.68 1517.37 M1294.68 1513.66 Q1300.49 1513.66 1303.55 1518.27 Q1306.62 1522.85 1306.62 1531.6 Q1306.62 1540.33 1303.55 1544.94 Q1300.49 1549.52 1294.68 1549.52 Q1288.87 1549.52 1285.79 1544.94 Q1282.74 1540.33 1282.74 1531.6 Q1282.74 1522.85 1285.79 1518.27 Q1288.87 1513.66 1294.68 1513.66 Z" fill="#000000" fill-rule="nonzero" fill-opacity="1" /><path clip-path="url(#clip320)" d="M1736.28 1514.29 L1758.51 1514.29 L1758.51 1516.28 L1745.96 1548.85 L1741.08 1548.85 L1752.88 1518.22 L1736.28 1518.22 L1736.28 1514.29 Z" fill="#000000" fill-rule="nonzero" fill-opacity="1" /><path clip-path="url(#clip320)" d="M1767.67 1514.29 L1786.03 1514.29 L1786.03 1518.22 L1771.95 1518.22 L1771.95 1526.7 Q1772.97 1526.35 1773.99 1526.19 Q1775.01 1526 1776.03 1526 Q1781.82 1526 1785.2 1529.17 Q1788.57 1532.34 1788.57 1537.76 Q1788.57 1543.34 1785.1 1546.44 Q1781.63 1549.52 1775.31 1549.52 Q1773.14 1549.52 1770.87 1549.15 Q1768.62 1548.78 1766.21 1548.04 L1766.21 1543.34 Q1768.3 1544.47 1770.52 1545.03 Q1772.74 1545.58 1775.22 1545.58 Q1779.22 1545.58 1781.56 1543.48 Q1783.9 1541.37 1783.9 1537.76 Q1783.9 1534.15 1781.56 1532.04 Q1779.22 1529.94 1775.22 1529.94 Q1773.34 1529.94 1771.47 1530.35 Q1769.62 1530.77 1767.67 1531.65 L1767.67 1514.29 Z" fill="#000000" fill-rule="nonzero" fill-opacity="1" /><path clip-path="url(#clip320)" d="M1807.79 1517.37 Q1804.18 1517.37 1802.35 1520.93 Q1800.54 1524.47 1800.54 1531.6 Q1800.54 1538.71 1802.35 1542.27 Q1804.18 1545.82 1807.79 1545.82 Q1811.42 1545.82 1813.23 1542.27 Q1815.06 1538.71 1815.06 1531.6 Q1815.06 1524.47 1813.23 1520.93 Q1811.42 1517.37 1807.79 1517.37 M1807.79 1513.66 Q1813.6 1513.66 1816.65 1518.27 Q1819.73 1522.85 1819.73 1531.6 Q1819.73 1540.33 1816.65 1544.94 Q1813.6 1549.52 1807.79 1549.52 Q1801.98 1549.52 1798.9 1544.94 Q1795.84 1540.33 1795.84 1531.6 Q1795.84 1522.85 1798.9 1518.27 Q1801.98 1513.66 1807.79 1513.66 Z" fill="#000000" fill-rule="nonzero" fill-opacity="1" /><path clip-path="url(#clip320)" d="M2235.76 1544.91 L2243.4 1544.91 L2243.4 1518.55 L2235.09 1520.21 L2235.09 1515.95 L2243.35 1514.29 L2248.02 1514.29 L2248.02 1544.91 L2255.66 1544.91 L2255.66 1548.85 L2235.76 1548.85 L2235.76 1544.91 Z" fill="#000000" fill-rule="nonzero" fill-opacity="1" /><path clip-path="url(#clip320)" d="M2275.11 1517.37 Q2271.5 1517.37 2269.67 1520.93 Q2267.86 1524.47 2267.86 1531.6 Q2267.86 1538.71 2269.67 1542.27 Q2271.5 1545.82 2275.11 1545.82 Q2278.74 1545.82 2280.55 1542.27 Q2282.38 1538.71 2282.38 1531.6 Q2282.38 1524.47 2280.55 1520.93 Q2278.74 1517.37 2275.11 1517.37 M2275.11 1513.66 Q2280.92 1513.66 2283.97 1518.27 Q2287.05 1522.85 2287.05 1531.6 Q2287.05 1540.33 2283.97 1544.94 Q2280.92 1549.52 2275.11 1549.52 Q2269.3 1549.52 2266.22 1544.94 Q2263.16 1540.33 2263.16 1531.6 Q2263.16 1522.85 2266.22 1518.27 Q2269.3 1513.66 2275.11 1513.66 Z" fill="#000000" fill-rule="nonzero" fill-opacity="1" /><path clip-path="url(#clip320)" d="M2305.27 1517.37 Q2301.66 1517.37 2299.83 1520.93 Q2298.02 1524.47 2298.02 1531.6 Q2298.02 1538.71 2299.83 1542.27 Q2301.66 1545.82 2305.27 1545.82 Q2308.9 1545.82 2310.71 1542.27 Q2312.54 1538.71 2312.54 1531.6 Q2312.54 1524.47 2310.71 1520.93 Q2308.9 1517.37 2305.27 1517.37 M2305.27 1513.66 Q2311.08 1513.66 2314.14 1518.27 Q2317.21 1522.85 2317.21 1531.6 Q2317.21 1540.33 2314.14 1544.94 Q2311.08 1549.52 2305.27 1549.52 Q2299.46 1549.52 2296.38 1544.94 Q2293.33 1540.33 2293.33 1531.6 Q2293.33 1522.85 2296.38 1518.27 Q2299.46 1513.66 2305.27 1513.66 Z" fill="#000000" fill-rule="nonzero" fill-opacity="1" /><path clip-path="url(#clip320)" d="M2335.43 1517.37 Q2331.82 1517.37 2329.99 1520.93 Q2328.19 1524.47 2328.19 1531.6 Q2328.19 1538.71 2329.99 1542.27 Q2331.82 1545.82 2335.43 1545.82 Q2339.07 1545.82 2340.87 1542.27 Q2342.7 1538.71 2342.7 1531.6 Q2342.7 1524.47 2340.87 1520.93 Q2339.07 1517.37 2335.43 1517.37 M2335.43 1513.66 Q2341.24 1513.66 2344.3 1518.27 Q2347.38 1522.85 2347.38 1531.6 Q2347.38 1540.33 2344.3 1544.94 Q2341.24 1549.52 2335.43 1549.52 Q2329.62 1549.52 2326.54 1544.94 Q2323.49 1540.33 2323.49 1531.6 Q2323.49 1522.85 2326.54 1518.27 Q2329.62 1513.66 2335.43 1513.66 Z" fill="#000000" fill-rule="nonzero" fill-opacity="1" /><polyline clip-path="url(#clip320)" style="stroke:#000000; stroke-linecap:round; stroke-linejoin:round; stroke-width:4; stroke-opacity:1; fill:none" points="178.867,1486.45 178.867,847.244 "/>
<polyline clip-path="url(#clip320)" style="stroke:#000000; stroke-linecap:round; stroke-linejoin:round; stroke-width:4; stroke-opacity:1; fill:none" points="178.867,1486.45 197.764,1486.45 "/>
<polyline clip-path="url(#clip320)" style="stroke:#000000; stroke-linecap:round; stroke-linejoin:round; stroke-width:4; stroke-opacity:1; fill:none" points="178.867,1326.65 197.764,1326.65 "/>
<polyline clip-path="url(#clip320)" style="stroke:#000000; stroke-linecap:round; stroke-linejoin:round; stroke-width:4; stroke-opacity:1; fill:none" points="178.867,1166.85 197.764,1166.85 "/>
<polyline clip-path="url(#clip320)" style="stroke:#000000; stroke-linecap:round; stroke-linejoin:round; stroke-width:4; stroke-opacity:1; fill:none" points="178.867,1007.05 197.764,1007.05 "/>
<polyline clip-path="url(#clip320)" style="stroke:#000000; stroke-linecap:round; stroke-linejoin:round; stroke-width:4; stroke-opacity:1; fill:none" points="178.867,847.244 197.764,847.244 "/>
<path clip-path="url(#clip320)" d="M50.9921 1486.9 L80.6679 1486.9 L80.6679 1490.83 L50.9921 1490.83 L50.9921 1486.9 Z" fill="#000000" fill-rule="nonzero" fill-opacity="1" /><path clip-path="url(#clip320)" d="M91.5706 1499.79 L99.2095 1499.79 L99.2095 1473.43 L90.8993 1475.09 L90.8993 1470.83 L99.1632 1469.17 L103.839 1469.17 L103.839 1499.79 L111.478 1499.79 L111.478 1503.73 L91.5706 1503.73 L91.5706 1499.79 Z" fill="#000000" fill-rule="nonzero" fill-opacity="1" /><path clip-path="url(#clip320)" d="M130.922 1472.25 Q127.311 1472.25 125.482 1475.81 Q123.677 1479.35 123.677 1486.48 Q123.677 1493.59 125.482 1497.15 Q127.311 1500.7 130.922 1500.7 Q134.556 1500.7 136.362 1497.15 Q138.191 1493.59 138.191 1486.48 Q138.191 1479.35 136.362 1475.81 Q134.556 1472.25 130.922 1472.25 M130.922 1468.54 Q136.732 1468.54 139.788 1473.15 Q142.867 1477.73 142.867 1486.48 Q142.867 1495.21 139.788 1499.82 Q136.732 1504.4 130.922 1504.4 Q125.112 1504.4 122.033 1499.82 Q118.978 1495.21 118.978 1486.48 Q118.978 1477.73 122.033 1473.15 Q125.112 1468.54 130.922 1468.54 Z" fill="#000000" fill-rule="nonzero" fill-opacity="1" /><path clip-path="url(#clip320)" d="M82.1494 1327.1 L111.825 1327.1 L111.825 1331.03 L82.1494 1331.03 L82.1494 1327.1 Z" fill="#000000" fill-rule="nonzero" fill-opacity="1" /><path clip-path="url(#clip320)" d="M121.964 1309.37 L140.32 1309.37 L140.32 1313.3 L126.246 1313.3 L126.246 1321.77 Q127.265 1321.43 128.283 1321.27 Q129.302 1321.08 130.32 1321.08 Q136.107 1321.08 139.487 1324.25 Q142.867 1327.42 142.867 1332.84 Q142.867 1338.42 139.394 1341.52 Q135.922 1344.6 129.603 1344.6 Q127.427 1344.6 125.158 1344.23 Q122.913 1343.86 120.506 1343.12 L120.506 1338.42 Q122.589 1339.55 124.811 1340.11 Q127.033 1340.66 129.51 1340.66 Q133.515 1340.66 135.853 1338.56 Q138.191 1336.45 138.191 1332.84 Q138.191 1329.23 135.853 1327.12 Q133.515 1325.01 129.51 1325.01 Q127.635 1325.01 125.76 1325.43 Q123.908 1325.85 121.964 1326.73 L121.964 1309.37 Z" fill="#000000" fill-rule="nonzero" fill-opacity="1" /><path clip-path="url(#clip320)" d="M130.922 1152.64 Q127.311 1152.64 125.482 1156.21 Q123.677 1159.75 123.677 1166.88 Q123.677 1173.99 125.482 1177.55 Q127.311 1181.09 130.922 1181.09 Q134.556 1181.09 136.362 1177.55 Q138.191 1173.99 138.191 1166.88 Q138.191 1159.75 136.362 1156.21 Q134.556 1152.64 130.922 1152.64 M130.922 1148.94 Q136.732 1148.94 139.788 1153.55 Q142.867 1158.13 142.867 1166.88 Q142.867 1175.61 139.788 1180.21 Q136.732 1184.8 130.922 1184.8 Q125.112 1184.8 122.033 1180.21 Q118.978 1175.61 118.978 1166.88 Q118.978 1158.13 122.033 1153.55 Q125.112 1148.94 130.922 1148.94 Z" fill="#000000" fill-rule="nonzero" fill-opacity="1" /><path clip-path="url(#clip320)" d="M121.964 989.765 L140.32 989.765 L140.32 993.7 L126.246 993.7 L126.246 1002.17 Q127.265 1001.83 128.283 1001.66 Q129.302 1001.48 130.32 1001.48 Q136.107 1001.48 139.487 1004.65 Q142.867 1007.82 142.867 1013.24 Q142.867 1018.82 139.394 1021.92 Q135.922 1025 129.603 1025 Q127.427 1025 125.158 1024.63 Q122.913 1024.26 120.506 1023.51 L120.506 1018.82 Q122.589 1019.95 124.811 1020.51 Q127.033 1021.06 129.51 1021.06 Q133.515 1021.06 135.853 1018.95 Q138.191 1016.85 138.191 1013.24 Q138.191 1009.63 135.853 1007.52 Q133.515 1005.41 129.51 1005.41 Q127.635 1005.41 125.76 1005.83 Q123.908 1006.25 121.964 1007.13 L121.964 989.765 Z" fill="#000000" fill-rule="nonzero" fill-opacity="1" /><path clip-path="url(#clip320)" d="M91.5706 860.589 L99.2095 860.589 L99.2095 834.223 L90.8993 835.89 L90.8993 831.631 L99.1632 829.964 L103.839 829.964 L103.839 860.589 L111.478 860.589 L111.478 864.524 L91.5706 864.524 L91.5706 860.589 Z" fill="#000000" fill-rule="nonzero" fill-opacity="1" /><path clip-path="url(#clip320)" d="M130.922 833.043 Q127.311 833.043 125.482 836.608 Q123.677 840.149 123.677 847.279 Q123.677 854.385 125.482 857.95 Q127.311 861.492 130.922 861.492 Q134.556 861.492 136.362 857.95 Q138.191 854.385 138.191 847.279 Q138.191 840.149 136.362 836.608 Q134.556 833.043 130.922 833.043 M130.922 829.339 Q136.732 829.339 139.788 833.946 Q142.867 838.529 142.867 847.279 Q142.867 856.006 139.788 860.612 Q136.732 865.195 130.922 865.195 Q125.112 865.195 122.033 860.612 Q118.978 856.006 118.978 847.279 Q118.978 838.529 122.033 833.946 Q125.112 829.339 130.922 829.339 Z" fill="#000000" fill-rule="nonzero" fill-opacity="1" /><polyline clip-path="url(#clip323)" style="stroke:#009af9; stroke-linecap:round; stroke-linejoin:round; stroke-width:4; stroke-opacity:1; fill:none" points="240.392,1134.89 242.445,1196.6 244.498,1174.24 246.55,1132.07 248.603,1173.05 250.656,1143.21 252.709,1175.52 254.762,1163.63 256.815,1170.72 258.868,1159.92 260.921,1430.14 262.974,1176.89 265.027,1256.58 267.079,1179.12 269.132,1135.07 271.185,1136.12 273.238,1200.14 275.291,1116.6 277.344,1142.24 279.397,1189.75 281.45,849.19 283.503,1082.41 285.555,1201.37 287.608,1164.91 289.661,1083.79 291.714,1073.43 293.767,1121.93 295.82,1250.2 297.873,1157.05 299.926,1182.25 301.979,1183.96 304.031,1151.55 306.084,1180.36 308.137,1174.76 310.19,1145.82 312.243,1140.55 314.296,1166.63 316.349,1140.37 318.402,1152.64 320.455,1017.49 322.507,1336.2 324.56,1204.14 326.613,1193.96 328.666,1275.77 330.719,1021.59 332.772,1121.85 334.825,1143.99 336.878,1060.02 338.931,1188.51 340.984,1168.9 343.036,1180.98 345.089,1199.73 347.142,1159.37 349.195,1165.05 351.248,1167.81 353.301,1188.45 355.354,1175.85 357.407,1143.54 359.46,1151.51 361.512,1145.25 363.565,1192 365.618,1173.69 367.671,1171.61 369.724,1169.43 371.777,1156.12 373.83,1221 375.883,1199.46 377.936,1189.55 379.988,1149.41 382.041,1306.95 384.094,1161 386.147,1175.89 388.2,1181.96 390.253,1039.63 392.306,1177 394.359,2219.25 396.412,819.539 398.464,1119.03 400.517,1183.46 402.57,1136.24 404.623,1045.72 406.676,1029.78 408.729,998.306 410.782,1237.12 412.835,1139.68 414.888,1198.43 416.94,1134.78 418.993,132.461 421.046,2136.71 423.099,1146.68 425.152,1040.48 427.205,1463.7 429.258,1237.55 431.311,1097.99 433.364,1325.7 435.417,1242.9 437.469,1032.12 439.522,1013.54 441.575,1336.02 443.628,1178.55 445.681,1148.94 447.734,1168.06 449.787,1142.75 451.84,1125.13 453.893,1190.44 455.945,1117.32 457.998,1155.79 460.051,1258.45 462.104,1180.26 464.157,1178.42 466.21,1166.14 468.263,1144.06 470.316,1334.52 472.369,1244.31 474.421,1225.65 476.474,1128.11 478.527,1102.76 480.58,1224.47 482.633,1163.07 484.686,1190.69 486.739,1117.1 488.792,1175.6 490.845,1120.54 492.897,1130.19 494.95,1161 497.003,1207.93 499.056,1227.17 501.109,1208.19 503.162,1166.96 505.215,1165.2 507.268,1222.13 509.321,1149.08 511.374,1150.09 513.426,1164.86 515.479,1181.33 517.532,1180.79 519.585,1168.98 521.638,1146.54 523.691,1155.51 525.744,1198.66 527.797,1175.93 529.85,1151.85 531.902,1146.36 533.955,1153.55 536.008,1140.05 538.061,1203.16 540.114,1170.95 542.167,1178.88 544.22,1147.97 546.273,1439.71 548.326,1249.98 550.378,1420.12 552.431,968.501 554.484,1129.57 556.537,1218.6 558.59,1264.86 560.643,1282.58 562.696,1170.5 564.749,1150.21 566.802,1173.02 568.854,1163.4 570.907,1127.82 572.96,1180.6 575.013,1029.37 577.066,683.622 579.119,1179.05 581.172,382.62 583.225,1558.59 585.278,1143.59 587.331,1446.25 589.383,945.901 591.436,1422.69 593.489,1221.92 595.542,1175.03 597.595,1141.83 599.648,1196.43 601.701,1194.38 603.754,1144.48 605.807,1690.71 607.859,988.852 609.912,1215.37 611.965,1127.78 614.018,1188.06 616.071,1154.14 618.124,1171.4 620.177,1156.39 622.23,1127.81 624.283,1160.58 626.335,1177.09 628.388,1169.84 630.441,1169.16 632.494,1153.53 634.547,1156.1 636.6,1184.86 638.653,979.317 640.706,2102.68 642.759,1257.6 644.811,999.837 646.864,1275.42 648.917,1000.8 650.97,1175.08 653.023,1175.29 655.076,1172.57 657.129,1170.42 659.182,1171.59 661.235,1034.09 663.288,1311.46 665.34,1238.41 667.393,1123.6 669.446,1136.41 671.499,1205.1 673.552,1158.91 675.605,1165.88 677.658,1140.45 679.711,1143.84 681.764,1156.99 683.816,1157.21 685.869,1165.89 687.922,1177.73 689.975,1171.42 692.028,1183.43 694.081,1210.35 696.134,1126.62 698.187,1245.1 700.24,1092.46 702.292,1226.62 704.345,1546.52 706.398,1316.01 708.451,1134.38 710.504,1166.63 712.557,1112.65 714.61,1133.48 716.663,1220.01 718.716,1229.58 720.768,1192.81 722.821,1175.06 724.874,1155.06 726.927,1160.6 728.98,1193.87 731.033,1197.45 733.086,1201.87 735.139,1188.37 737.192,1147 739.245,1181.19 741.297,1115.91 743.35,1072.81 745.403,1058.57 747.456,1257.76 749.509,1131.38 751.562,1218.06 753.615,1091.22 755.668,1281.55 757.721,1023.84 759.773,301.172 761.826,-320.907 763.879,1093.85 765.932,1147.43 767.985,1150.24 770.038,1152.88 772.091,1189.98 774.144,1094.99 776.197,1064.07 778.249,1189.96 780.302,1106.59 782.355,1134.57 784.408,1209 786.461,1155.81 788.514,1129.4 790.567,1200.47 792.62,1072.98 794.673,1188.47 796.725,1193.07 798.778,1162.96 800.831,1101.33 802.884,1359.41 804.937,1384.52 806.99,1193.5 809.043,1017.36 811.096,1571.85 813.149,1199.74 815.202,1209.4 817.254,1283.62 819.307,1154.27 821.36,1183.44 823.413,1145.8 825.466,1160.42 827.519,1173.14 829.572,1173.74 831.625,1155.95 833.678,1134.06 835.73,1175.65 837.783,1188.11 839.836,1196.7 841.889,1145.59 843.942,1184.55 845.995,1163 848.048,1175.73 850.101,476.674 852.154,1079.36 854.206,1157.57 856.259,1142.82 858.312,1154.1 860.365,1068.48 862.418,1267.93 864.471,1167.69 866.524,1176.51 868.577,1164.09 870.63,1152.29 872.682,1155.21 874.735,1181.22 876.788,1141.44 878.841,1183.55 880.894,1199.84 882.947,1153.84 885,1186.64 887.053,1243.96 889.106,1100.01 891.159,1136.7 893.211,1235.8 895.264,1068.71 897.317,1266.04 899.37,1653.36 901.423,933.976 903.476,1198.9 905.529,1115.88 907.582,1108.86 909.635,1167.44 911.687,1124.48 913.74,1113.7 915.793,1007.54 917.846,1117.58 919.899,1193.54 921.952,1166 924.005,1159.42 926.058,1174.29 928.111,1160.28 930.163,1078.27 932.216,1062.41 934.269,1299.8 936.322,1056.63 938.375,1107.61 940.428,1187.41 942.481,1222.56 944.534,1267.06 946.587,1247.76 948.639,1220.01 950.692,1172.68 952.745,1158.91 954.798,1195.93 956.851,1119.93 958.904,1120.15 960.957,1235.02 963.01,1172.68 965.063,1146.34 967.116,1193.03 969.168,1360.17 971.221,1955.31 973.274,942.256 975.327,1207.23 977.38,1139.62 979.433,1153.15 981.486,1179.01 983.539,1155.29 985.592,1236.89 987.644,1076.52 989.697,1199.31 991.75,1171.37 993.803,1191.15 995.856,1354.47 997.909,1109.76 999.962,1191.49 1002.01,1168.32 1004.07,1088.91 1006.12,1144.1 1008.17,1175.62 1010.23,1140.5 1012.28,1260.94 1014.33,1210.45 1016.38,1124.66 1018.44,1199.59 1020.49,1188.49 1022.54,1198.18 1024.6,1145.96 1026.65,1172.54 1028.7,1197.29 1030.76,1201.58 1032.81,1172.02 1034.86,1148.59 1036.91,1169.55 1038.97,1194.08 1041.02,1114.14 1043.07,1128.62 1045.13,1083.35 1047.18,1206.41 1049.23,1133.71 1051.28,1147.73 1053.34,1198.18 1055.39,1113.92 1057.44,1240.23 1059.5,1202.07 1061.55,1130.52 1063.6,1142.83 1065.65,1172.37 1067.71,1139.99 1069.76,1136.05 1071.81,1162.36 1073.87,1162.21 1075.92,1163.79 1077.97,1153.84 1080.02,1153.68 1082.08,1159.19 1084.13,1686.94 1086.18,1395.39 1088.24,1053.17 1090.29,686.27 1092.34,1.10056 1094.39,592.659 1096.45,820.97 1098.5,905.247 1100.55,1344.95 1102.61,813.232 1104.66,1995.11 1106.71,3442.63 1108.77,1025.31 1110.82,1041.76 1112.87,1185.19 1114.92,1129.31 1116.98,1172.8 1119.03,1159.16 1121.08,1129.28 1123.14,1163.54 1125.19,1141.11 1127.24,1128.4 1129.29,1200.83 1131.35,1140.45 1133.4,1116.66 1135.45,956.875 1137.51,856.542 1139.56,465.849 1141.61,1553.18 1143.66,1156.82 1145.72,1096.87 1147.77,1297.78 1149.82,-5021.99 1151.88,486.209 1153.93,3998.89 1155.98,2005.98 1158.03,5479.66 1160.09,266.281 1162.14,1836.45 1164.19,716.736 1166.25,1518.92 1168.3,1555.39 1170.35,1076.18 1172.4,1272.02 1174.46,1132.52 1176.51,1122.91 1178.56,1198.71 1180.62,1147.51 1182.67,1146.55 1184.72,1124.86 1186.77,1181.15 1188.83,1116.31 1190.88,1152.84 1192.93,1140.14 1194.99,1181.66 1197.04,1119.97 1199.09,1169.52 1201.15,1168.99 1203.2,1138.25 1205.25,1220.2 1207.3,1156.56 1209.36,1188.72 1211.41,1157.79 1213.46,1181.15 1215.52,1045.49 1217.57,1329.07 1219.62,1137.77 1221.67,1164.72 1223.73,1170.57 1225.78,1138.61 1227.83,1156.66 1229.89,1047.75 1231.94,1110.58 1233.99,1141.23 1236.04,1171.15 1238.1,1173.23 1240.15,1157.22 1242.2,1150 1244.26,1160.73 1246.31,1172.37 1248.36,1201.37 1250.41,1164.39 1252.47,1154.7 1254.52,1164.16 1256.57,1178.99 1258.63,1154.74 1260.68,1065.17 1262.73,1328.74 1264.78,1175.77 1266.84,1227.36 1268.89,1185.58 1270.94,1290.52 1273,1171.63 1275.05,1179.69 1277.1,1163.28 1279.16,1170.66 1281.21,1211.93 1283.26,1166.07 1285.31,1244.1 1287.37,1137.07 1289.42,1130.08 1291.47,1336.27 1293.53,1106.98 1295.58,1159.56 1297.63,1182.55 1299.68,1125.18 1301.74,1239.42 1303.79,1178.56 1305.84,714.786 1307.9,1069.84 1309.95,1197.62 1312,1121.17 1314.05,1238.86 1316.11,1119.93 1318.16,1091.69 1320.21,1233.09 1322.27,999.687 1324.32,1218.63 1326.37,1217.55 1328.42,1179.56 1330.48,1195.29 1332.53,1201.95 1334.58,1167.3 1336.64,1198.5 1338.69,1192.43 1340.74,1196.66 1342.79,1142.06 1344.85,1153.09 1346.9,1164.72 1348.95,1158.39 1351.01,1117.66 1353.06,1160.52 1355.11,1179.41 1357.16,936.211 1359.22,1559.35 1361.27,1341.62 1363.32,1218.79 1365.38,1177.42 1367.43,1140.04 1369.48,1146.99 1371.54,1147 1373.59,1181.75 1375.64,1186.54 1377.69,1156.25 1379.75,1221.95 1381.8,1083.01 1383.85,1169.9 1385.91,1094.23 1387.96,1073.76 1390.01,1360.97 1392.06,1212.32 1394.12,1143.09 1396.17,1143.58 1398.22,1182.74 1400.28,1224.36 1402.33,1269.01 1404.38,1117.32 1406.43,1009.11 1408.49,935.062 1410.54,1468.21 1412.59,999.346 1414.65,1312 1416.7,1296.16 1418.75,1204.81 1420.8,1188.94 1422.86,1187.75 1424.91,1211.27 1426.96,1163.52 1429.02,936.311 1431.07,912.338 1433.12,1240.86 1435.17,1095.41 1437.23,1070.74 1439.28,766.611 1441.33,655.657 1443.39,574.303 1445.44,1204.92 1447.49,1324.22 1449.55,878.833 1451.6,1085.05 1453.65,1146 1455.7,1195.04 1457.76,1122.82 1459.81,1170.16 1461.86,1138.68 1463.92,1198.41 1465.97,1133.89 1468.02,1158.11 1470.07,1105.35 1472.13,1066.61 1474.18,1183.44 1476.23,1217.26 1478.29,1284.27 1480.34,1134.09 1482.39,1131.7 1484.44,1130.17 1486.5,1164.67 1488.55,1156.37 1490.6,1173.37 1492.66,1238.52 1494.71,1425.8 1496.76,828.051 1498.81,766.805 1500.87,602.865 1502.92,1205.5 1504.97,1126.95 1507.03,1197.06 1509.08,1142.85 1511.13,1160.31 1513.18,1182.47 1515.24,1170.42 1517.29,1140.02 1519.34,1186.19 1521.4,1112.44 1523.45,1132.94 1525.5,1127.01 1527.55,1254.71 1529.61,1124.27 1531.66,1114.72 1533.71,1183.33 1535.77,1183.95 1537.82,1186.04 1539.87,1115.53 1541.93,1289.24 1543.98,1085.81 1546.03,1235.83 1548.08,1120.58 1550.14,1176.06 1552.19,1237.62 1554.24,1154.58 1556.3,1071.88 1558.35,1169.43 1560.4,1300 1562.45,1122.55 1564.51,1049.04 1566.56,1160.05 1568.61,1135.85 1570.67,1268.41 1572.72,1221.09 1574.77,1209.05 1576.82,1204.14 1578.88,1183.38 1580.93,1170.75 1582.98,1076.22 1585.04,1177.12 1587.09,1178.91 1589.14,1077.2 1591.19,1196.51 1593.25,1147.9 1595.3,1131.21 1597.35,1290.48 1599.41,1006.99 1601.46,1151.09 1603.51,1155.39 1605.56,1158.54 1607.62,1146.74 1609.67,1192.26 1611.72,1077.92 1613.78,1224.77 1615.83,1185.41 1617.88,1164.01 1619.94,1141.27 1621.99,1316.04 1624.04,1088.69 1626.09,1036.82 1628.15,1310.22 1630.2,1466.1 1632.25,1022.4 1634.31,1477.5 1636.36,1222.68 1638.41,1128.21 1640.46,848.145 1642.52,1200.66 1644.57,1079.49 1646.62,1571.79 1648.68,1676.23 1650.73,-284.78 1652.78,-5576.81 1654.83,-5858.69 1656.89,-1824.33 1658.94,-463.483 1660.99,1211.88 1663.05,1217 1665.1,1189.55 1667.15,1150.33 1669.2,1282.24 1671.26,1162.68 1673.31,1126.51 1675.36,1184.68 1677.42,914.026 1679.47,1320.74 1681.52,1179.97 1683.57,1203.95 1685.63,1206.68 1687.68,1178.61 1689.73,1167.05 1691.79,1164.57 1693.84,1129.47 1695.89,1157.66 1697.94,1167.06 1700,1222.55 1702.05,1230.23 1704.1,1139.59 1706.16,1262.15 1708.21,1197.82 1710.26,1223.09 1712.32,1220.02 1714.37,1171.39 1716.42,1129.63 1718.47,1282.94 1720.53,1208.32 1722.58,1135.03 1724.63,1135.75 1726.69,1078.28 1728.74,1158.65 1730.79,1192.99 1732.84,1167.47 1734.9,1145.63 1736.95,1159.77 1739,1197.57 1741.06,1284.43 1743.11,1225.86 1745.16,1436.05 1747.21,1235.48 1749.27,1229.56 1751.32,1116.34 1753.37,1172.54 1755.43,1178.83 1757.48,1176.6 1759.53,1145.05 1761.58,1198.25 1763.64,1186.63 1765.69,1178.07 1767.74,1174.18 1769.8,1182.25 1771.85,1167.61 1773.9,1185.18 1775.95,1170.66 1778.01,1152.03 1780.06,1168.26 1782.11,1183.08 1784.17,1131.18 1786.22,1141.06 1788.27,1207.74 1790.33,1180.17 1792.38,1127.63 1794.43,1180.88 1796.48,1174.3 1798.54,1192.73 1800.59,1173.37 1802.64,1129.61 1804.7,1183.73 1806.75,1120.92 1808.8,1069.75 1810.85,602.877 1812.91,1067.03 1814.96,1244.27 1817.01,1105.38 1819.07,1290.92 1821.12,636.573 1823.17,1133.98 1825.22,1192.08 1827.28,1188.38 1829.33,1155.25 1831.38,1137 1833.44,1147.93 1835.49,1189.61 1837.54,1187.86 1839.59,1167.07 1841.65,1182.91 1843.7,1189.52 1845.75,1158.8 1847.81,1173.05 1849.86,1169.37 1851.91,1154.9 1853.96,1175.77 1856.02,1144.59 1858.07,1197.51 1860.12,1048.06 1862.18,1371.51 1864.23,1199.54 1866.28,1058.48 1868.34,1284.31 1870.39,1287.13 1872.44,1383.99 1874.49,1219.87 1876.55,1203.31 1878.6,1136.58 1880.65,1175.14 1882.71,1148.85 1884.76,1152.38 1886.81,1140.47 1888.86,1205.06 1890.92,1151.41 1892.97,1190.8 1895.02,1219.14 1897.08,1110.25 1899.13,1182.56 1901.18,1224.23 1903.23,1172.01 1905.29,1164.28 1907.34,1149.19 1909.39,1188.39 1911.45,1140.39 1913.5,1207.79 1915.55,1175.41 1917.6,1181 1919.66,1293.03 1921.71,1194.76 1923.76,1121.28 1925.82,1150.66 1927.87,1186.18 1929.92,1158.07 1931.97,1179.87 1934.03,1109.34 1936.08,1132.77 1938.13,1127.08 1940.19,1221.14 1942.24,1044.04 1944.29,1117.07 1946.34,1091.78 1948.4,1123.14 1950.45,1169.79 1952.5,1167.86 1954.56,1164.44 1956.61,1139.62 1958.66,1129.49 1960.72,1193.79 1962.77,1213.75 1964.82,1145.5 1966.87,1388.05 1968.93,914.731 1970.98,1243.39 1973.03,1272.49 1975.09,1075.12 1977.14,1219.5 1979.19,1176.7 1981.24,1126.95 1983.3,1193.7 1985.35,1168.24 1987.4,1170.37 1989.46,1172.62 1991.51,1125.31 1993.56,1156.07 1995.61,1363.17 1997.67,1593.91 1999.72,1170.34 2001.77,1147.79 2003.83,1126.07 2005.88,1221.4 2007.93,1188.89 2009.98,1184.17 2012.04,1261.91 2014.09,1229.27 2016.14,1184.35 2018.2,1193.03 2020.25,1156.88 2022.3,1164.76 2024.35,1167.34 2026.41,1187.19 2028.46,1175.41 2030.51,1186.32 2032.57,1141.8 2034.62,1179.95 2036.67,1173.84 2038.73,1231.49 2040.78,1077.88 2042.83,1185.04 2044.88,1166.37 2046.94,1176.34 2048.99,1138.9 2051.04,1083.51 2053.1,1194.27 2055.15,1203.71 2057.2,1144.76 2059.25,1143.43 2061.31,1128.75 2063.36,1227.19 2065.41,1112.99 2067.47,1281.42 2069.52,1178.16 2071.57,1128.09 2073.62,1206.42 2075.68,1109.42 2077.73,1344.72 2079.78,1315.79 2081.84,1230.88 2083.89,1174.46 2085.94,1166.35 2087.99,1106.88 2090.05,1154.89 2092.1,1339.94 2094.15,1193.41 2096.21,1167.28 2098.26,1168.51 2100.31,1121.77 2102.36,1108.06 2104.42,1105.5 2106.47,1106.47 2108.52,1151.48 2110.58,1195.98 2112.63,1138.5 2114.68,1183.98 2116.73,1198.05 2118.79,1212.15 2120.84,1131.94 2122.89,1273.36 2124.95,1141.21 2127,1279.12 2129.05,1092.04 2131.11,1261.96 2133.16,1233.49 2135.21,1217.07 2137.26,1245.81 2139.32,1253.65 2141.37,1189.46 2143.42,1140.78 2145.48,1183.43 2147.53,1176.55 2149.58,1150.68 2151.63,1163.81 2153.69,1198.87 2155.74,1169.13 2157.79,1176.19 2159.85,1200.76 2161.9,1169.9 2163.95,1135.85 2166,1174.18 2168.06,1151.72 2170.11,1297.89 2172.16,1102.52 2174.22,1155.31 2176.27,1163.98 2178.32,1174.45 2180.37,1159.55 2182.43,1200.56 2184.48,1166 2186.53,1109.96 2188.59,1213.05 2190.64,1307.3 2192.69,1128.28 2194.74,1132.69 2196.8,1326.79 2198.85,1042.97 2200.9,1291.79 2202.96,1276.35 2205.01,1052.55 2207.06,1315.86 2209.12,1157.12 2211.17,1186.47 2213.22,1138.86 2215.27,1155.42 2217.33,1158.5 2219.38,1167.65 2221.43,1288.79 2223.49,1013.38 2225.54,1143.68 2227.59,1167.67 2229.64,1177.32 2231.7,1186.38 2233.75,1158.95 2235.8,1167.72 2237.86,1165.34 2239.91,1149.31 2241.96,1195.46 2244.01,1206.93 2246.07,1146.53 2248.12,1163.16 2250.17,1160.32 2252.23,1200.19 2254.28,1197.48 2256.33,1145.3 2258.38,1178.55 2260.44,1170.89 2262.49,1153.5 2264.54,1149.85 2266.6,1140.23 2268.65,1196.39 2270.7,1185.87 2272.75,1186.57 2274.81,1161.37 2276.86,1160.7 2278.91,1252.3 2280.97,1200.75 2283.02,1130.84 2285.07,1120.83 2287.12,931.101 2289.18,1334.85 2291.23,991.394 "/>
<path clip-path="url(#clip320)" d="M1942.7 972.231 L2280.29 972.231 L2280.29 868.551 L1942.7 868.551  Z" fill="#ffffff" fill-rule="evenodd" fill-opacity="1"/>
<polyline clip-path="url(#clip320)" style="stroke:#000000; stroke-linecap:round; stroke-linejoin:round; stroke-width:4; stroke-opacity:1; fill:none" points="1942.7,972.231 2280.29,972.231 2280.29,868.551 1942.7,868.551 1942.7,972.231 "/>
<polyline clip-path="url(#clip320)" style="stroke:#009af9; stroke-linecap:round; stroke-linejoin:round; stroke-width:4; stroke-opacity:1; fill:none" points="1966.85,920.391 2111.78,920.391 "/>
<path clip-path="url(#clip320)" d="M2161.49 932.74 L2161.49 923.458 L2153.85 923.458 L2153.85 919.615 L2166.12 919.615 L2166.12 934.453 Q2163.41 936.375 2160.14 937.37 Q2156.88 938.342 2153.18 938.342 Q2145.07 938.342 2140.49 933.62 Q2135.93 928.875 2135.93 920.426 Q2135.93 911.953 2140.49 907.231 Q2145.07 902.486 2153.18 902.486 Q2156.56 902.486 2159.59 903.319 Q2162.64 904.153 2165.21 905.773 L2165.21 910.75 Q2162.62 908.551 2159.7 907.44 Q2156.79 906.328 2153.57 906.328 Q2147.23 906.328 2144.03 909.87 Q2140.86 913.412 2140.86 920.426 Q2140.86 927.416 2144.03 930.958 Q2147.23 934.5 2153.57 934.5 Q2156.05 934.5 2157.99 934.083 Q2159.94 933.643 2161.49 932.74 Z" fill="#000000" fill-rule="nonzero" fill-opacity="1" /><path clip-path="url(#clip320)" d="M2179.33 906.953 L2179.33 919.94 L2185.21 919.94 Q2188.48 919.94 2190.26 918.25 Q2192.04 916.56 2192.04 913.435 Q2192.04 910.333 2190.26 908.643 Q2188.48 906.953 2185.21 906.953 L2179.33 906.953 M2174.66 903.111 L2185.21 903.111 Q2191.02 903.111 2193.99 905.75 Q2196.97 908.365 2196.97 913.435 Q2196.97 918.551 2193.99 921.166 Q2191.02 923.782 2185.21 923.782 L2179.33 923.782 L2179.33 937.671 L2174.66 937.671 L2174.66 903.111 Z" fill="#000000" fill-rule="nonzero" fill-opacity="1" /><path clip-path="url(#clip320)" d="M2223.96 904.245 L2223.96 908.805 Q2221.3 907.532 2218.94 906.907 Q2216.58 906.282 2214.38 906.282 Q2210.56 906.282 2208.48 907.764 Q2206.42 909.245 2206.42 911.977 Q2206.42 914.268 2207.78 915.449 Q2209.17 916.606 2213.01 917.324 L2215.84 917.902 Q2221.07 918.898 2223.55 921.421 Q2226.05 923.921 2226.05 928.134 Q2226.05 933.157 2222.67 935.75 Q2219.31 938.342 2212.81 938.342 Q2210.35 938.342 2207.57 937.787 Q2204.82 937.231 2201.86 936.143 L2201.86 931.328 Q2204.7 932.926 2207.44 933.736 Q2210.17 934.546 2212.81 934.546 Q2216.81 934.546 2218.99 932.972 Q2221.16 931.398 2221.16 928.481 Q2221.16 925.935 2219.59 924.5 Q2218.04 923.064 2214.47 922.347 L2211.62 921.791 Q2206.39 920.75 2204.06 918.527 Q2201.72 916.305 2201.72 912.347 Q2201.72 907.764 2204.94 905.125 Q2208.18 902.486 2213.85 902.486 Q2216.28 902.486 2218.8 902.926 Q2221.32 903.366 2223.96 904.245 Z" fill="#000000" fill-rule="nonzero" fill-opacity="1" /><path clip-path="url(#clip320)" d="M2254.06 904.245 L2254.06 908.805 Q2251.39 907.532 2249.03 906.907 Q2246.67 906.282 2244.47 906.282 Q2240.65 906.282 2238.57 907.764 Q2236.51 909.245 2236.51 911.977 Q2236.51 914.268 2237.87 915.449 Q2239.26 916.606 2243.11 917.324 L2245.93 917.902 Q2251.16 918.898 2253.64 921.421 Q2256.14 923.921 2256.14 928.134 Q2256.14 933.157 2252.76 935.75 Q2249.4 938.342 2242.9 938.342 Q2240.44 938.342 2237.67 937.787 Q2234.91 937.231 2231.95 936.143 L2231.95 931.328 Q2234.8 932.926 2237.53 933.736 Q2240.26 934.546 2242.9 934.546 Q2246.9 934.546 2249.08 932.972 Q2251.25 931.398 2251.25 928.481 Q2251.25 925.935 2249.68 924.5 Q2248.13 923.064 2244.56 922.347 L2241.72 921.791 Q2236.49 920.75 2234.15 918.527 Q2231.81 916.305 2231.81 912.347 Q2231.81 907.764 2235.03 905.125 Q2238.27 902.486 2243.94 902.486 Q2246.37 902.486 2248.89 902.926 Q2251.42 903.366 2254.06 904.245 Z" fill="#000000" fill-rule="nonzero" fill-opacity="1" /></svg>
