<?xml version="1.0" encoding="utf-8"?>
<svg xmlns="http://www.w3.org/2000/svg" xmlns:xlink="http://www.w3.org/1999/xlink" width="600" height="400" viewBox="0 0 2400 1600">
<defs>
  <clipPath id="clip790">
    <rect x="0" y="0" width="2400" height="1600"/>
  </clipPath>
</defs>
<path clip-path="url(#clip790)" d="M0 1600 L2400 1600 L2400 0 L0 0  Z" fill="#ffffff" fill-rule="evenodd" fill-opacity="1"/>
<defs>
  <clipPath id="clip791">
    <rect x="480" y="0" width="1681" height="1600"/>
  </clipPath>
</defs>
<path clip-path="url(#clip790)" d="M178.867 686.448 L2352.76 686.448 L2352.76 47.2441 L178.867 47.2441  Z" fill="#ffffff" fill-rule="evenodd" fill-opacity="1"/>
<defs>
  <clipPath id="clip792">
    <rect x="178" y="47" width="2175" height="640"/>
  </clipPath>
</defs>
<polyline clip-path="url(#clip792)" style="stroke:#000000; stroke-linecap:round; stroke-linejoin:round; stroke-width:2; stroke-opacity:0.1; fill:none" points="238.339,686.448 238.339,47.2441 "/>
<polyline clip-path="url(#clip792)" style="stroke:#000000; stroke-linecap:round; stroke-linejoin:round; stroke-width:2; stroke-opacity:0.1; fill:none" points="751.562,686.448 751.562,47.2441 "/>
<polyline clip-path="url(#clip792)" style="stroke:#000000; stroke-linecap:round; stroke-linejoin:round; stroke-width:2; stroke-opacity:0.1; fill:none" points="1264.78,686.448 1264.78,47.2441 "/>
<polyline clip-path="url(#clip792)" style="stroke:#000000; stroke-linecap:round; stroke-linejoin:round; stroke-width:2; stroke-opacity:0.1; fill:none" points="1778.01,686.448 1778.01,47.2441 "/>
<polyline clip-path="url(#clip792)" style="stroke:#000000; stroke-linecap:round; stroke-linejoin:round; stroke-width:2; stroke-opacity:0.1; fill:none" points="2291.23,686.448 2291.23,47.2441 "/>
<polyline clip-path="url(#clip792)" style="stroke:#000000; stroke-linecap:round; stroke-linejoin:round; stroke-width:2; stroke-opacity:0.1; fill:none" points="178.867,686.448 2352.76,686.448 "/>
<polyline clip-path="url(#clip792)" style="stroke:#000000; stroke-linecap:round; stroke-linejoin:round; stroke-width:2; stroke-opacity:0.1; fill:none" points="178.867,526.647 2352.76,526.647 "/>
<polyline clip-path="url(#clip792)" style="stroke:#000000; stroke-linecap:round; stroke-linejoin:round; stroke-width:2; stroke-opacity:0.1; fill:none" points="178.867,366.846 2352.76,366.846 "/>
<polyline clip-path="url(#clip792)" style="stroke:#000000; stroke-linecap:round; stroke-linejoin:round; stroke-width:2; stroke-opacity:0.1; fill:none" points="178.867,207.045 2352.76,207.045 "/>
<polyline clip-path="url(#clip792)" style="stroke:#000000; stroke-linecap:round; stroke-linejoin:round; stroke-width:2; stroke-opacity:0.1; fill:none" points="178.867,47.2441 2352.76,47.2441 "/>
<polyline clip-path="url(#clip790)" style="stroke:#000000; stroke-linecap:round; stroke-linejoin:round; stroke-width:4; stroke-opacity:1; fill:none" points="178.867,686.448 2352.76,686.448 "/>
<polyline clip-path="url(#clip790)" style="stroke:#000000; stroke-linecap:round; stroke-linejoin:round; stroke-width:4; stroke-opacity:1; fill:none" points="238.339,686.448 238.339,667.55 "/>
<polyline clip-path="url(#clip790)" style="stroke:#000000; stroke-linecap:round; stroke-linejoin:round; stroke-width:4; stroke-opacity:1; fill:none" points="751.562,686.448 751.562,667.55 "/>
<polyline clip-path="url(#clip790)" style="stroke:#000000; stroke-linecap:round; stroke-linejoin:round; stroke-width:4; stroke-opacity:1; fill:none" points="1264.78,686.448 1264.78,667.55 "/>
<polyline clip-path="url(#clip790)" style="stroke:#000000; stroke-linecap:round; stroke-linejoin:round; stroke-width:4; stroke-opacity:1; fill:none" points="1778.01,686.448 1778.01,667.55 "/>
<polyline clip-path="url(#clip790)" style="stroke:#000000; stroke-linecap:round; stroke-linejoin:round; stroke-width:4; stroke-opacity:1; fill:none" points="2291.23,686.448 2291.23,667.55 "/>
<path clip-path="url(#clip790)" d="M238.339 717.367 Q234.728 717.367 232.899 720.931 Q231.094 724.473 231.094 731.603 Q231.094 738.709 232.899 742.274 Q234.728 745.815 238.339 745.815 Q241.973 745.815 243.779 742.274 Q245.607 738.709 245.607 731.603 Q245.607 724.473 243.779 720.931 Q241.973 717.367 238.339 717.367 M238.339 713.663 Q244.149 713.663 247.205 718.269 Q250.283 722.853 250.283 731.603 Q250.283 740.329 247.205 744.936 Q244.149 749.519 238.339 749.519 Q232.529 749.519 229.45 744.936 Q226.395 740.329 226.395 731.603 Q226.395 722.853 229.45 718.269 Q232.529 713.663 238.339 713.663 Z" fill="#000000" fill-rule="nonzero" fill-opacity="1" /><path clip-path="url(#clip790)" d="M715.254 744.913 L731.574 744.913 L731.574 748.848 L709.629 748.848 L709.629 744.913 Q712.291 742.158 716.875 737.528 Q721.481 732.876 722.662 731.533 Q724.907 729.01 725.787 727.274 Q726.689 725.515 726.689 723.825 Q726.689 721.07 724.745 719.334 Q722.824 717.598 719.722 717.598 Q717.523 717.598 715.069 718.362 Q712.638 719.126 709.861 720.677 L709.861 715.955 Q712.685 714.82 715.138 714.242 Q717.592 713.663 719.629 713.663 Q725 713.663 728.194 716.348 Q731.388 719.033 731.388 723.524 Q731.388 725.654 730.578 727.575 Q729.791 729.473 727.685 732.066 Q727.106 732.737 724.004 735.954 Q720.902 739.149 715.254 744.913 Z" fill="#000000" fill-rule="nonzero" fill-opacity="1" /><path clip-path="url(#clip790)" d="M741.435 714.288 L759.791 714.288 L759.791 718.223 L745.717 718.223 L745.717 726.695 Q746.736 726.348 747.754 726.186 Q748.773 726.001 749.791 726.001 Q755.578 726.001 758.958 729.172 Q762.337 732.343 762.337 737.76 Q762.337 743.339 758.865 746.44 Q755.393 749.519 749.073 749.519 Q746.898 749.519 744.629 749.149 Q742.384 748.778 739.976 748.038 L739.976 743.339 Q742.06 744.473 744.282 745.028 Q746.504 745.584 748.981 745.584 Q752.985 745.584 755.323 743.478 Q757.661 741.371 757.661 737.76 Q757.661 734.149 755.323 732.042 Q752.985 729.936 748.981 729.936 Q747.106 729.936 745.231 730.353 Q743.379 730.769 741.435 731.649 L741.435 714.288 Z" fill="#000000" fill-rule="nonzero" fill-opacity="1" /><path clip-path="url(#clip790)" d="M781.55 717.367 Q777.939 717.367 776.11 720.931 Q774.305 724.473 774.305 731.603 Q774.305 738.709 776.11 742.274 Q777.939 745.815 781.55 745.815 Q785.184 745.815 786.99 742.274 Q788.819 738.709 788.819 731.603 Q788.819 724.473 786.99 720.931 Q785.184 717.367 781.55 717.367 M781.55 713.663 Q787.36 713.663 790.416 718.269 Q793.495 722.853 793.495 731.603 Q793.495 740.329 790.416 744.936 Q787.36 749.519 781.55 749.519 Q775.74 749.519 772.661 744.936 Q769.606 740.329 769.606 731.603 Q769.606 722.853 772.661 718.269 Q775.74 713.663 781.55 713.663 Z" fill="#000000" fill-rule="nonzero" fill-opacity="1" /><path clip-path="url(#clip790)" d="M1224.4 714.288 L1242.76 714.288 L1242.76 718.223 L1228.69 718.223 L1228.69 726.695 Q1229.7 726.348 1230.72 726.186 Q1231.74 726.001 1232.76 726.001 Q1238.55 726.001 1241.93 729.172 Q1245.31 732.343 1245.31 737.76 Q1245.31 743.339 1241.83 746.44 Q1238.36 749.519 1232.04 749.519 Q1229.87 749.519 1227.6 749.149 Q1225.35 748.778 1222.94 748.038 L1222.94 743.339 Q1225.03 744.473 1227.25 745.028 Q1229.47 745.584 1231.95 745.584 Q1235.95 745.584 1238.29 743.478 Q1240.63 741.371 1240.63 737.76 Q1240.63 734.149 1238.29 732.042 Q1235.95 729.936 1231.95 729.936 Q1230.07 729.936 1228.2 730.353 Q1226.35 730.769 1224.4 731.649 L1224.4 714.288 Z" fill="#000000" fill-rule="nonzero" fill-opacity="1" /><path clip-path="url(#clip790)" d="M1264.52 717.367 Q1260.91 717.367 1259.08 720.931 Q1257.27 724.473 1257.27 731.603 Q1257.27 738.709 1259.08 742.274 Q1260.91 745.815 1264.52 745.815 Q1268.15 745.815 1269.96 742.274 Q1271.79 738.709 1271.79 731.603 Q1271.79 724.473 1269.96 720.931 Q1268.15 717.367 1264.52 717.367 M1264.52 713.663 Q1270.33 713.663 1273.38 718.269 Q1276.46 722.853 1276.46 731.603 Q1276.46 740.329 1273.38 744.936 Q1270.33 749.519 1264.52 749.519 Q1258.71 749.519 1255.63 744.936 Q1252.57 740.329 1252.57 731.603 Q1252.57 722.853 1255.63 718.269 Q1258.71 713.663 1264.52 713.663 Z" fill="#000000" fill-rule="nonzero" fill-opacity="1" /><path clip-path="url(#clip790)" d="M1294.68 717.367 Q1291.07 717.367 1289.24 720.931 Q1287.44 724.473 1287.44 731.603 Q1287.44 738.709 1289.24 742.274 Q1291.07 745.815 1294.68 745.815 Q1298.31 745.815 1300.12 742.274 Q1301.95 738.709 1301.95 731.603 Q1301.95 724.473 1300.12 720.931 Q1298.31 717.367 1294.68 717.367 M1294.68 713.663 Q1300.49 713.663 1303.55 718.269 Q1306.62 722.853 1306.62 731.603 Q1306.62 740.329 1303.55 744.936 Q1300.49 749.519 1294.68 749.519 Q1288.87 749.519 1285.79 744.936 Q1282.74 740.329 1282.74 731.603 Q1282.74 722.853 1285.79 718.269 Q1288.87 713.663 1294.68 713.663 Z" fill="#000000" fill-rule="nonzero" fill-opacity="1" /><path clip-path="url(#clip790)" d="M1736.28 714.288 L1758.51 714.288 L1758.51 716.279 L1745.96 748.848 L1741.08 748.848 L1752.88 718.223 L1736.28 718.223 L1736.28 714.288 Z" fill="#000000" fill-rule="nonzero" fill-opacity="1" /><path clip-path="url(#clip790)" d="M1767.67 714.288 L1786.03 714.288 L1786.03 718.223 L1771.95 718.223 L1771.95 726.695 Q1772.97 726.348 1773.99 726.186 Q1775.01 726.001 1776.03 726.001 Q1781.82 726.001 1785.2 729.172 Q1788.57 732.343 1788.57 737.76 Q1788.57 743.339 1785.1 746.44 Q1781.63 749.519 1775.31 749.519 Q1773.14 749.519 1770.87 749.149 Q1768.62 748.778 1766.21 748.038 L1766.21 743.339 Q1768.3 744.473 1770.52 745.028 Q1772.74 745.584 1775.22 745.584 Q1779.22 745.584 1781.56 743.478 Q1783.9 741.371 1783.9 737.76 Q1783.9 734.149 1781.56 732.042 Q1779.22 729.936 1775.22 729.936 Q1773.34 729.936 1771.47 730.353 Q1769.62 730.769 1767.67 731.649 L1767.67 714.288 Z" fill="#000000" fill-rule="nonzero" fill-opacity="1" /><path clip-path="url(#clip790)" d="M1807.79 717.367 Q1804.18 717.367 1802.35 720.931 Q1800.54 724.473 1800.54 731.603 Q1800.54 738.709 1802.35 742.274 Q1804.18 745.815 1807.79 745.815 Q1811.42 745.815 1813.23 742.274 Q1815.06 738.709 1815.06 731.603 Q1815.06 724.473 1813.23 720.931 Q1811.42 717.367 1807.79 717.367 M1807.79 713.663 Q1813.6 713.663 1816.65 718.269 Q1819.73 722.853 1819.73 731.603 Q1819.73 740.329 1816.65 744.936 Q1813.6 749.519 1807.79 749.519 Q1801.98 749.519 1798.9 744.936 Q1795.84 740.329 1795.84 731.603 Q1795.84 722.853 1798.9 718.269 Q1801.98 713.663 1807.79 713.663 Z" fill="#000000" fill-rule="nonzero" fill-opacity="1" /><path clip-path="url(#clip790)" d="M2235.76 744.913 L2243.4 744.913 L2243.4 718.547 L2235.09 720.214 L2235.09 715.955 L2243.35 714.288 L2248.02 714.288 L2248.02 744.913 L2255.66 744.913 L2255.66 748.848 L2235.76 748.848 L2235.76 744.913 Z" fill="#000000" fill-rule="nonzero" fill-opacity="1" /><path clip-path="url(#clip790)" d="M2275.11 717.367 Q2271.5 717.367 2269.67 720.931 Q2267.86 724.473 2267.86 731.603 Q2267.86 738.709 2269.67 742.274 Q2271.5 745.815 2275.11 745.815 Q2278.74 745.815 2280.55 742.274 Q2282.38 738.709 2282.38 731.603 Q2282.38 724.473 2280.55 720.931 Q2278.74 717.367 2275.11 717.367 M2275.11 713.663 Q2280.92 713.663 2283.97 718.269 Q2287.05 722.853 2287.05 731.603 Q2287.05 740.329 2283.97 744.936 Q2280.92 749.519 2275.11 749.519 Q2269.3 749.519 2266.22 744.936 Q2263.16 740.329 2263.16 731.603 Q2263.16 722.853 2266.22 718.269 Q2269.3 713.663 2275.11 713.663 Z" fill="#000000" fill-rule="nonzero" fill-opacity="1" /><path clip-path="url(#clip790)" d="M2305.27 717.367 Q2301.66 717.367 2299.83 720.931 Q2298.02 724.473 2298.02 731.603 Q2298.02 738.709 2299.83 742.274 Q2301.66 745.815 2305.27 745.815 Q2308.9 745.815 2310.71 742.274 Q2312.54 738.709 2312.54 731.603 Q2312.54 724.473 2310.71 720.931 Q2308.9 717.367 2305.27 717.367 M2305.27 713.663 Q2311.08 713.663 2314.14 718.269 Q2317.21 722.853 2317.21 731.603 Q2317.21 740.329 2314.14 744.936 Q2311.08 749.519 2305.27 749.519 Q2299.46 749.519 2296.38 744.936 Q2293.33 740.329 2293.33 731.603 Q2293.33 722.853 2296.38 718.269 Q2299.46 713.663 2305.27 713.663 Z" fill="#000000" fill-rule="nonzero" fill-opacity="1" /><path clip-path="url(#clip790)" d="M2335.43 717.367 Q2331.82 717.367 2329.99 720.931 Q2328.19 724.473 2328.19 731.603 Q2328.19 738.709 2329.99 742.274 Q2331.82 745.815 2335.43 745.815 Q2339.07 745.815 2340.87 742.274 Q2342.7 738.709 2342.7 731.603 Q2342.7 724.473 2340.87 720.931 Q2339.07 717.367 2335.43 717.367 M2335.43 713.663 Q2341.24 713.663 2344.3 718.269 Q2347.38 722.853 2347.38 731.603 Q2347.38 740.329 2344.3 744.936 Q2341.24 749.519 2335.43 749.519 Q2329.62 749.519 2326.54 744.936 Q2323.49 740.329 2323.49 731.603 Q2323.49 722.853 2326.54 718.269 Q2329.62 713.663 2335.43 713.663 Z" fill="#000000" fill-rule="nonzero" fill-opacity="1" /><polyline clip-path="url(#clip790)" style="stroke:#000000; stroke-linecap:round; stroke-linejoin:round; stroke-width:4; stroke-opacity:1; fill:none" points="178.867,686.448 178.867,47.2441 "/>
<polyline clip-path="url(#clip790)" style="stroke:#000000; stroke-linecap:round; stroke-linejoin:round; stroke-width:4; stroke-opacity:1; fill:none" points="178.867,686.448 197.764,686.448 "/>
<polyline clip-path="url(#clip790)" style="stroke:#000000; stroke-linecap:round; stroke-linejoin:round; stroke-width:4; stroke-opacity:1; fill:none" points="178.867,526.647 197.764,526.647 "/>
<polyline clip-path="url(#clip790)" style="stroke:#000000; stroke-linecap:round; stroke-linejoin:round; stroke-width:4; stroke-opacity:1; fill:none" points="178.867,366.846 197.764,366.846 "/>
<polyline clip-path="url(#clip790)" style="stroke:#000000; stroke-linecap:round; stroke-linejoin:round; stroke-width:4; stroke-opacity:1; fill:none" points="178.867,207.045 197.764,207.045 "/>
<polyline clip-path="url(#clip790)" style="stroke:#000000; stroke-linecap:round; stroke-linejoin:round; stroke-width:4; stroke-opacity:1; fill:none" points="178.867,47.2441 197.764,47.2441 "/>
<path clip-path="url(#clip790)" d="M50.9921 686.899 L80.6679 686.899 L80.6679 690.834 L50.9921 690.834 L50.9921 686.899 Z" fill="#000000" fill-rule="nonzero" fill-opacity="1" /><path clip-path="url(#clip790)" d="M91.5706 699.793 L99.2095 699.793 L99.2095 673.427 L90.8993 675.094 L90.8993 670.835 L99.1632 669.168 L103.839 669.168 L103.839 699.793 L111.478 699.793 L111.478 703.728 L91.5706 703.728 L91.5706 699.793 Z" fill="#000000" fill-rule="nonzero" fill-opacity="1" /><path clip-path="url(#clip790)" d="M130.922 672.247 Q127.311 672.247 125.482 675.811 Q123.677 679.353 123.677 686.483 Q123.677 693.589 125.482 697.154 Q127.311 700.695 130.922 700.695 Q134.556 700.695 136.362 697.154 Q138.191 693.589 138.191 686.483 Q138.191 679.353 136.362 675.811 Q134.556 672.247 130.922 672.247 M130.922 668.543 Q136.732 668.543 139.788 673.149 Q142.867 677.733 142.867 686.483 Q142.867 695.209 139.788 699.816 Q136.732 704.399 130.922 704.399 Q125.112 704.399 122.033 699.816 Q118.978 695.209 118.978 686.483 Q118.978 677.733 122.033 673.149 Q125.112 668.543 130.922 668.543 Z" fill="#000000" fill-rule="nonzero" fill-opacity="1" /><path clip-path="url(#clip790)" d="M82.1494 527.098 L111.825 527.098 L111.825 531.033 L82.1494 531.033 L82.1494 527.098 Z" fill="#000000" fill-rule="nonzero" fill-opacity="1" /><path clip-path="url(#clip790)" d="M121.964 509.367 L140.32 509.367 L140.32 513.302 L126.246 513.302 L126.246 521.774 Q127.265 521.427 128.283 521.265 Q129.302 521.08 130.32 521.08 Q136.107 521.08 139.487 524.251 Q142.867 527.422 142.867 532.839 Q142.867 538.418 139.394 541.52 Q135.922 544.598 129.603 544.598 Q127.427 544.598 125.158 544.228 Q122.913 543.857 120.506 543.117 L120.506 538.418 Q122.589 539.552 124.811 540.108 Q127.033 540.663 129.51 540.663 Q133.515 540.663 135.853 538.557 Q138.191 536.45 138.191 532.839 Q138.191 529.228 135.853 527.121 Q133.515 525.015 129.51 525.015 Q127.635 525.015 125.76 525.432 Q123.908 525.848 121.964 526.728 L121.964 509.367 Z" fill="#000000" fill-rule="nonzero" fill-opacity="1" /><path clip-path="url(#clip790)" d="M130.922 352.645 Q127.311 352.645 125.482 356.209 Q123.677 359.751 123.677 366.881 Q123.677 373.987 125.482 377.552 Q127.311 381.094 130.922 381.094 Q134.556 381.094 136.362 377.552 Q138.191 373.987 138.191 366.881 Q138.191 359.751 136.362 356.209 Q134.556 352.645 130.922 352.645 M130.922 348.941 Q136.732 348.941 139.788 353.547 Q142.867 358.131 142.867 366.881 Q142.867 375.608 139.788 380.214 Q136.732 384.797 130.922 384.797 Q125.112 384.797 122.033 380.214 Q118.978 375.608 118.978 366.881 Q118.978 358.131 122.033 353.547 Q125.112 348.941 130.922 348.941 Z" fill="#000000" fill-rule="nonzero" fill-opacity="1" /><path clip-path="url(#clip790)" d="M121.964 189.765 L140.32 189.765 L140.32 193.7 L126.246 193.7 L126.246 202.172 Q127.265 201.825 128.283 201.663 Q129.302 201.478 130.32 201.478 Q136.107 201.478 139.487 204.649 Q142.867 207.82 142.867 213.237 Q142.867 218.816 139.394 221.918 Q135.922 224.996 129.603 224.996 Q127.427 224.996 125.158 224.626 Q122.913 224.256 120.506 223.515 L120.506 218.816 Q122.589 219.95 124.811 220.506 Q127.033 221.061 129.51 221.061 Q133.515 221.061 135.853 218.955 Q138.191 216.848 138.191 213.237 Q138.191 209.626 135.853 207.52 Q133.515 205.413 129.51 205.413 Q127.635 205.413 125.76 205.83 Q123.908 206.246 121.964 207.126 L121.964 189.765 Z" fill="#000000" fill-rule="nonzero" fill-opacity="1" /><path clip-path="url(#clip790)" d="M91.5706 60.5889 L99.2095 60.5889 L99.2095 34.2233 L90.8993 35.89 L90.8993 31.6308 L99.1632 29.9641 L103.839 29.9641 L103.839 60.5889 L111.478 60.5889 L111.478 64.5241 L91.5706 64.5241 L91.5706 60.5889 Z" fill="#000000" fill-rule="nonzero" fill-opacity="1" /><path clip-path="url(#clip790)" d="M130.922 33.0428 Q127.311 33.0428 125.482 36.6076 Q123.677 40.1492 123.677 47.2788 Q123.677 54.3853 125.482 57.9501 Q127.311 61.4917 130.922 61.4917 Q134.556 61.4917 136.362 57.9501 Q138.191 54.3853 138.191 47.2788 Q138.191 40.1492 136.362 36.6076 Q134.556 33.0428 130.922 33.0428 M130.922 29.3391 Q136.732 29.3391 139.788 33.9456 Q142.867 38.5289 142.867 47.2788 Q142.867 56.0056 139.788 60.6121 Q136.732 65.1954 130.922 65.1954 Q125.112 65.1954 122.033 60.6121 Q118.978 56.0056 118.978 47.2788 Q118.978 38.5289 122.033 33.9456 Q125.112 29.3391 130.922 29.3391 Z" fill="#000000" fill-rule="nonzero" fill-opacity="1" /><polyline clip-path="url(#clip792)" style="stroke:#009af9; stroke-linecap:round; stroke-linejoin:round; stroke-width:4; stroke-opacity:1; fill:none" points="240.392,334.886 242.445,333.88 244.498,324.798 246.55,326.989 248.603,330.576 250.656,321.761 252.709,327.363 254.762,327.181 256.815,329.182 258.868,335.948 260.921,333.841 262.974,329.151 265.027,367.432 267.079,336.738 269.132,352.028 271.185,354.928 273.238,359.085 275.291,366.624 277.344,395.516 279.397,392.462 281.45,393.051 283.503,393.003 285.555,393.372 287.608,393.343 289.661,393.349 291.714,386.364 293.767,386.373 295.82,390.193 297.873,372.836 299.926,372.602 301.979,378.482 304.031,388.238 306.084,389.87 308.137,383.967 310.19,378.581 312.243,377.774 314.296,375.675 316.349,377.534 318.402,376.636 320.455,371.195 322.507,374.447 324.56,337.498 326.613,334.09 328.666,388.827 330.719,388.914 332.772,377.599 334.825,356.018 336.878,348.114 338.931,373.686 340.984,362.145 343.036,361.683 345.089,361.71 347.142,367.492 349.195,370.519 351.248,370.427 353.301,377.318 355.354,377.372 357.407,380.387 359.46,381.052 361.512,359.842 363.565,366.252 365.618,381.463 367.671,379.761 369.724,376.664 371.777,378.741 373.83,369.491 375.883,339.906 377.936,343.305 379.988,322.133 382.041,322.695 384.094,320.203 386.147,322.272 388.2,336.771 390.253,336.442 392.306,336.362 394.359,336.213 396.412,336.843 398.464,343.962 400.517,344.146 402.57,345.488 404.623,336.721 406.676,318.338 408.729,318.318 410.782,319.627 412.835,320.609 414.888,315.026 416.94,323.929 418.993,347.644 421.046,343.639 423.099,343.096 425.152,350.092 427.205,350.382 429.258,351.09 431.311,367.243 433.364,361.96 435.417,363.546 437.469,362.618 439.522,354.962 441.575,353.628 443.628,351.783 445.681,352.106 447.734,357.82 449.787,357.815 451.84,354.959 453.893,377.963 455.945,377.41 457.998,377.262 460.051,376.861 462.104,376.924 464.157,368.708 466.21,362.81 468.263,351.703 470.316,343.676 472.369,354.763 474.421,354.726 476.474,352.488 478.527,352.583 480.58,379.819 482.633,386.784 484.686,391.141 486.739,390.795 488.792,390.79 490.845,392.247 492.897,388.573 494.95,388.406 497.003,388.215 499.056,388.178 501.109,389.107 503.162,382.137 505.215,381.628 507.268,365.281 509.321,367.754 511.374,367.292 513.426,373.124 515.479,373.359 517.532,389.669 519.585,391.486 521.638,381.286 523.691,381.248 525.744,381.258 527.797,370.19 529.85,370.035 531.902,368.63 533.955,363.278 536.008,361.094 538.061,361.456 540.114,361.234 542.167,366.264 544.22,366.002 546.273,365.665 548.326,374.126 550.378,370.865 552.431,369.903 554.484,375.106 556.537,376.393 558.59,374.601 560.643,379.036 562.696,332.715 564.749,332.711 566.802,333.856 568.854,327.733 570.907,329.503 572.96,329.476 575.013,329.762 577.066,330.159 579.119,330.739 581.172,339.029 583.225,379.849 585.278,376.985 587.331,376.066 589.383,376.693 591.436,370.774 593.489,358.596 595.542,355.705 597.595,355.831 599.648,356.433 601.701,367.287 603.754,366.436 605.807,377.415 607.859,362.515 609.912,356.162 611.965,362.257 614.018,354.719 616.071,354.783 618.124,354.859 620.177,357.346 622.23,360.664 624.283,367.386 626.335,400.216 628.388,395.911 630.441,396.882 632.494,367.367 634.547,367.898 636.6,369.673 638.653,382.136 640.706,401.446 642.759,373.976 644.811,382.944 646.864,402.573 648.917,405.085 650.97,444.809 653.023,444.36 655.076,441.606 657.129,436.243 659.182,349.72 661.235,312.675 663.288,311.73 665.34,342.232 667.393,340.594 669.446,340.606 671.499,345.062 673.552,382.865 675.605,380.589 677.658,379.401 679.711,387.768 681.764,367.224 683.816,319.369 685.869,402.086 687.922,386.647 689.975,386.474 692.028,391.77 694.081,392.027 696.134,392.654 698.187,411.136 700.24,418.371 702.292,386.549 704.345,412.134 706.398,433.336 708.451,440.102 710.504,436.751 712.557,382.828 714.61,379.081 716.663,388.147 718.716,388.792 720.768,385.403 722.821,363.936 724.874,364.523 726.927,350.265 728.98,351.74 731.033,342.37 733.086,344.464 735.139,357.629 737.192,377.388 739.245,375.283 741.297,375.688 743.35,363.315 745.403,380.269 747.456,380.263 749.509,388.124 751.562,387.747 753.615,377.458 755.668,377.173 757.721,375.47 759.773,374.443 761.826,373.506 763.879,307.645 765.932,331.722 767.985,330.116 770.038,325.478 772.091,343.78 774.144,342.84 776.197,348.936 778.249,344.119 780.302,348.581 782.355,380.028 784.408,379.876 786.461,378.909 788.514,381.781 790.567,382.917 792.62,377.592 794.673,390.185 796.725,395.878 798.778,403.325 800.831,401.442 802.884,370.437 804.937,370.741 806.99,375.127 809.043,374.811 811.096,373.481 813.149,377.038 815.202,361.884 817.254,362.59 819.307,364.179 821.36,360.233 823.413,390.309 825.466,366.471 827.519,364.053 829.572,370.976 831.625,365.085 833.678,354.816 835.73,354.821 837.783,354.803 839.836,351.029 841.889,351.036 843.942,346.969 845.995,347.13 848.048,344.136 850.101,323.482 852.154,338.173 854.206,348.203 856.259,348.094 858.312,348.082 860.365,352.334 862.418,381.899 864.471,384.159 866.524,396.259 868.577,396.122 870.63,398.453 872.682,399.444 874.735,387.522 876.788,403.386 878.841,388.262 880.894,397.353 882.947,424.757 885,433.809 887.053,428.09 889.106,414.02 891.159,409.412 893.211,412.679 895.264,429.067 897.317,426.761 899.37,428.984 901.423,416.492 903.476,354.512 905.529,371.07 907.582,351.132 909.635,363.706 911.687,368.348 913.74,370.723 915.793,369.117 917.846,367.721 919.899,367.845 921.952,342.574 924.005,341.827 926.058,329.88 928.111,357.792 930.163,324.312 932.216,324.599 934.269,322.876 936.322,356.593 938.375,421.916 940.428,427.448 942.481,426.549 944.534,426.625 946.587,427.174 948.639,370.61 950.692,369.815 952.745,374.422 954.798,382.39 956.851,378.389 958.904,378.378 960.957,377.373 963.01,349.889 965.063,385.83 967.116,391.215 969.168,372.753 971.221,352.794 973.274,373.058 975.327,371.832 977.38,372.393 979.433,354.198 981.486,436.701 983.539,449.951 985.592,490.821 987.644,531.636 989.697,555.625 991.75,561.867 993.803,556.952 995.856,557.69 997.909,471.145 999.962,471.039 1002.01,392.884 1004.07,387.179 1006.12,377.787 1008.17,364.294 1010.23,358.158 1012.28,364.655 1014.33,383.637 1016.38,243.094 1018.44,293.842 1020.49,247.965 1022.54,245.639 1024.6,246.791 1026.65,187.184 1028.7,278.645 1030.76,274.197 1032.81,272.421 1034.86,237.206 1036.91,228.56 1038.97,211.482 1041.02,209.462 1043.07,206.939 1045.13,337.503 1047.18,293.104 1049.23,293.107 1051.28,302.766 1053.34,301.336 1055.39,222.293 1057.44,255.882 1059.5,240.697 1061.55,259.853 1063.6,216.942 1065.65,239.547 1067.71,242.83 1069.76,147.3 1071.81,254.682 1073.87,300.005 1075.92,300.7 1077.97,299.681 1080.02,262.085 1082.08,265.972 1084.13,263.739 1086.18,237.248 1088.24,243.31 1090.29,170.625 1092.34,170.538 1094.39,254.501 1096.45,229.315 1098.5,229.428 1100.55,292.123 1102.61,258.003 1104.66,260.376 1106.71,261.581 1108.77,251.461 1110.82,232.596 1112.87,216.115 1114.92,298.818 1116.98,330.514 1119.03,328.095 1121.08,476.659 1123.14,269.682 1125.19,292.595 1127.24,291.118 1129.29,243.933 1131.35,274.072 1133.4,187.9 1135.45,281.971 1137.51,424.468 1139.56,489.122 1141.61,554.572 1143.66,566.101 1145.72,441.289 1147.77,495.758 1149.82,437.199 1151.88,426.72 1153.93,188.197 1155.98,65.7138 1158.03,152.461 1160.09,166.951 1162.14,173.198 1164.19,172.965 1166.25,70.1606 1168.3,78.057 1170.35,541.942 1172.4,625.228 1174.46,633.246 1176.51,625.599 1178.56,543.839 1180.62,545.239 1182.67,546.623 1184.72,414.352 1186.77,367.684 1188.83,335.252 1190.88,331.749 1192.93,345.197 1194.99,345.171 1197.04,294.131 1199.09,392.356 1201.15,384.263 1203.2,354.173 1205.25,503.577 1207.3,503.818 1209.36,412.421 1211.41,394.752 1213.46,521.059 1215.52,463.148 1217.57,465.583 1219.62,469.046 1221.67,425.133 1223.73,327.103 1225.78,328.294 1227.83,287.034 1229.89,355.933 1231.94,356.076 1233.99,292.192 1236.04,70.993 1238.1,71.4024 1240.15,74.1444 1242.2,70.503 1244.26,71.1297 1246.31,64.026 1248.36,142.602 1250.41,159.121 1252.47,171.25 1254.52,167.846 1256.57,123.244 1258.63,130.517 1260.68,121.642 1262.73,138.416 1264.78,207.7 1266.84,159.076 1268.89,160.619 1270.94,160.302 1273,104.842 1275.05,183.358 1277.1,197.38 1279.16,208.077 1281.21,301.422 1283.26,331.071 1285.31,330.589 1287.37,315.502 1289.42,331.054 1291.47,358.222 1293.53,492.949 1295.58,545.106 1297.63,546.632 1299.68,556.222 1301.74,561.567 1303.79,562.079 1305.84,562.102 1307.9,559.695 1309.95,468.701 1312,319.05 1314.05,381.907 1316.11,372.478 1318.16,355.771 1320.21,329.222 1322.27,309.415 1324.32,301.84 1326.37,387.092 1328.42,385.444 1330.48,324.47 1332.53,516.488 1334.58,580.766 1336.64,580.334 1338.69,606.904 1340.74,601.976 1342.79,590.815 1344.85,562.61 1346.9,439.74 1348.95,399.284 1351.01,395.129 1353.06,306.558 1355.11,296.29 1357.16,296.296 1359.22,301.639 1361.27,369.874 1363.32,339.526 1365.38,335.223 1367.43,446.114 1369.48,793.759 1371.54,784.846 1373.59,613.269 1375.64,651.473 1377.69,632.255 1379.75,632.277 1381.8,636.898 1383.85,627.018 1385.91,622.241 1387.96,629.139 1390.01,606.257 1392.06,616.102 1394.12,640.694 1396.17,640.642 1398.22,640.873 1400.28,600.031 1402.33,455.649 1404.38,338.661 1406.43,335.61 1408.49,338.707 1410.54,234.5 1412.59,240.753 1414.65,247.401 1416.7,276.772 1418.75,276.338 1420.8,288.355 1422.86,280.552 1424.91,284.331 1426.96,285.071 1429.02,242.814 1431.07,234.045 1433.12,233.911 1435.17,258.881 1437.23,271.502 1439.28,282.981 1441.33,283.283 1443.39,280.741 1445.44,281.679 1447.49,282.533 1449.55,286.173 1451.6,314.992 1453.65,330.436 1455.7,322.869 1457.76,320.739 1459.81,331.495 1461.86,330.083 1463.92,328.454 1465.97,327.334 1468.02,420.288 1470.07,420.076 1472.13,449.639 1474.18,447.654 1476.23,390.22 1478.29,391.749 1480.34,391.614 1482.39,389.01 1484.44,381.21 1486.5,333.006 1488.55,364.868 1490.6,311.221 1492.66,305.58 1494.71,341.706 1496.76,342.121 1498.81,332.136 1500.87,333.095 1502.92,409.752 1504.97,429.739 1507.03,417.638 1509.08,417.518 1511.13,405.909 1513.18,408.342 1515.24,412.282 1517.29,372.417 1519.34,370.769 1521.4,372.512 1523.45,375.593 1525.5,365.145 1527.55,377.757 1529.61,378.468 1531.66,363.865 1533.71,360.659 1535.77,360.972 1537.82,361.447 1539.87,364.878 1541.93,357.789 1543.98,357.956 1546.03,354.217 1548.08,354.995 1550.14,327.424 1552.19,339.478 1554.24,351.855 1556.3,351.042 1558.35,356.559 1560.4,357.282 1562.45,360.288 1564.51,360.258 1566.56,365.233 1568.61,367.988 1570.67,361.26 1572.72,362.446 1574.77,358.743 1576.82,359.478 1578.88,364.653 1580.93,363.969 1582.98,364.342 1585.04,364.565 1587.09,365.004 1589.14,359.015 1591.19,358.671 1593.25,358.6 1595.3,346.54 1597.35,339.337 1599.41,353.85 1601.46,354.562 1603.51,369.146 1605.56,371.559 1607.62,406.638 1609.67,407.226 1611.72,404.272 1613.78,386.697 1615.83,377.942 1617.88,377.429 1619.94,377.265 1621.99,376.969 1624.04,360.258 1626.09,360.558 1628.15,354.212 1630.2,343.859 1632.25,346.143 1634.31,360.253 1636.36,360.359 1638.41,364.548 1640.46,369.787 1642.52,372.2 1644.57,380.522 1646.62,381.461 1648.68,384.391 1650.73,380.132 1652.78,384.837 1654.83,394.888 1656.89,458.26 1658.94,403.565 1660.99,407.488 1663.05,407.862 1665.1,384.701 1667.15,379.171 1669.2,378.966 1671.26,383.475 1673.31,385.653 1675.36,386.746 1677.42,407.036 1679.47,301.59 1681.52,307.129 1683.57,312.136 1685.63,292.291 1687.68,314.688 1689.73,317.026 1691.79,312.038 1693.84,303.624 1695.89,302.707 1697.94,303.137 1700,304.43 1702.05,305.026 1704.1,305.499 1706.16,302.02 1708.21,278.217 1710.26,279.115 1712.32,303.533 1714.37,311.156 1716.42,300.63 1718.47,301.818 1720.53,295.953 1722.58,306.323 1724.63,305.698 1726.69,305.641 1728.74,307.924 1730.79,307.93 1732.84,338.456 1734.9,339.09 1736.95,346.769 1739,401.382 1741.06,403.736 1743.11,403.942 1745.16,375.536 1747.21,375.802 1749.27,357.817 1751.32,358.512 1753.37,362.378 1755.43,391.767 1757.48,397.787 1759.53,400.977 1761.58,401.243 1763.64,388.944 1765.69,358.796 1767.74,355.763 1769.8,355.704 1771.85,383.319 1773.9,346.355 1775.95,345.734 1778.01,344.941 1780.06,338.011 1782.11,330.686 1784.17,297.29 1786.22,298.356 1788.27,299.24 1790.33,302.243 1792.38,322.642 1794.43,316.557 1796.48,315.595 1798.54,303.97 1800.59,299.358 1802.64,344.806 1804.7,365 1806.75,332.886 1808.8,333.596 1810.85,335.808 1812.91,336.183 1814.96,335.217 1817.01,345.967 1819.07,350.96 1821.12,351.017 1823.17,344.911 1825.22,350.858 1827.28,332.823 1829.33,314.626 1831.38,313.875 1833.44,394.067 1835.49,393.146 1837.54,395.672 1839.59,394.817 1841.65,394.75 1843.7,402.856 1845.75,398.024 1847.81,335.001 1849.86,332.478 1851.91,363.07 1853.96,400.096 1856.02,388.524 1858.07,375.427 1860.12,364.497 1862.18,374.095 1864.23,383.55 1866.28,382.7 1868.34,382.82 1870.39,380.927 1872.44,382.61 1874.49,364.025 1876.55,395.177 1878.6,331.622 1880.65,337.411 1882.71,332.106 1884.76,332.905 1886.81,330.652 1888.86,330.793 1890.92,343.086 1892.97,356.407 1895.02,356.583 1897.08,348.973 1899.13,354.529 1901.18,355.01 1903.23,354.625 1905.29,338.066 1907.34,340.039 1909.39,365.621 1911.45,345.655 1913.5,346.993 1915.55,347.513 1917.6,331.316 1919.66,367.048 1921.71,368.142 1923.76,366.948 1925.82,398.726 1927.87,397.216 1929.92,396.906 1931.97,397.09 1934.03,396.185 1936.08,331.945 1938.13,336.215 1940.19,336.356 1942.24,354.332 1944.29,351.948 1946.34,345.632 1948.4,347.33 1950.45,351.596 1952.5,353.792 1954.56,353.803 1956.61,352.753 1958.66,356.582 1960.72,356.729 1962.77,388.553 1964.82,395.522 1966.87,370.377 1968.93,357.952 1970.98,351.321 1973.03,367.997 1975.09,362.379 1977.14,364.84 1979.19,367.051 1981.24,369.403 1983.3,368.151 1985.35,367.765 1987.4,367.693 1989.46,367.669 1991.51,366.03 1993.56,366.424 1995.61,366.813 1997.67,365.412 1999.72,369.36 2001.77,358.692 2003.83,362.001 2005.88,362.572 2007.93,365.139 2009.98,365.191 2012.04,367.077 2014.09,367.102 2016.14,361.851 2018.2,359.815 2020.25,359.705 2022.3,359.896 2024.35,388.501 2026.41,388.549 2028.46,370.317 2030.51,375.624 2032.57,352.838 2034.62,345.772 2036.67,346.092 2038.73,347.339 2040.78,346.785 2042.83,347.493 2044.88,347.887 2046.94,339.719 2048.99,338.878 2051.04,341.138 2053.1,379.623 2055.15,380.439 2057.2,380.393 2059.25,380.451 2061.31,381.013 2063.36,372.302 2065.41,387.563 2067.47,387.644 2069.52,388.758 2071.57,365.777 2073.62,366.169 2075.68,366.091 2077.73,368.28 2079.78,370.102 2081.84,375.547 2083.89,375.85 2085.94,371.317 2087.99,370.918 2090.05,366.01 2092.1,373.347 2094.15,378.039 2096.21,374.68 2098.26,374.514 2100.31,361.507 2102.36,365.288 2104.42,365.21 2106.47,367.374 2108.52,367.977 2110.58,367.952 2112.63,368.292 2114.68,368.231 2116.73,367.481 2118.79,366.984 2120.84,381.171 2122.89,381.373 2124.95,355.286 2127,360.757 2129.05,355.318 2131.11,355.364 2133.16,349.6 2135.21,348.441 2137.26,345.461 2139.32,344.997 2141.37,342.722 2143.42,337.717 2145.48,333.66 2147.53,334.055 2149.58,334.064 2151.63,334.107 2153.69,373.827 2155.74,384.876 2157.79,384.724 2159.85,386.096 2161.9,383.961 2163.95,380.319 2166,317.776 2168.06,332.199 2170.11,363.234 2172.16,363.313 2174.22,349.78 2176.27,352.092 2178.32,380.434 2180.37,395.262 2182.43,396.17 2184.48,397.743 2186.53,403.798 2188.59,403.146 2190.64,403.786 2192.69,403.361 2194.74,442.385 2196.8,455.446 2198.85,456.385 2200.9,455.564 2202.96,472.028 2205.01,475.016 2207.06,434.126 2209.12,422.148 2211.17,417.853 2213.22,414.986 2215.27,416.382 2217.33,416.565 2219.38,416.56 2221.43,424.771 2223.49,425.617 2225.54,416.655 2227.59,413.706 2229.64,410.18 2231.7,409.216 2233.75,429.241 2235.8,428.871 2237.86,426.85 2239.91,419.886 2241.96,389.088 2244.01,403.724 2246.07,403.737 2248.12,422.047 2250.17,398.448 2252.23,395.163 2254.28,386.113 2256.33,379.792 2258.38,292.622 2260.44,284.805 2262.49,286.174 2264.54,287.085 2266.6,293.34 2268.65,313.279 2270.7,327.63 2272.75,334.434 2274.81,331.211 2276.86,329.665 2278.91,332.425 2280.97,331.447 2283.02,337.543 2285.07,338.35 2287.12,339.049 2289.18,338.386 2291.23,341.048 "/>
<path clip-path="url(#clip790)" d="M1983.6 172.231 L2280.29 172.231 L2280.29 68.5509 L1983.6 68.5509  Z" fill="#ffffff" fill-rule="evenodd" fill-opacity="1"/>
<polyline clip-path="url(#clip790)" style="stroke:#000000; stroke-linecap:round; stroke-linejoin:round; stroke-width:4; stroke-opacity:1; fill:none" points="1983.6,172.231 2280.29,172.231 2280.29,68.5509 1983.6,68.5509 1983.6,172.231 "/>
<polyline clip-path="url(#clip790)" style="stroke:#009af9; stroke-linecap:round; stroke-linejoin:round; stroke-width:4; stroke-opacity:1; fill:none" points="2007.75,120.391 2152.68,120.391 "/>
<path clip-path="url(#clip790)" d="M2176.83 103.111 L2181.51 103.111 L2181.51 133.736 L2198.34 133.736 L2198.34 137.671 L2176.83 137.671 L2176.83 103.111 Z" fill="#000000" fill-rule="nonzero" fill-opacity="1" /><path clip-path="url(#clip790)" d="M2223.96 104.245 L2223.96 108.805 Q2221.3 107.532 2218.94 106.907 Q2216.58 106.282 2214.38 106.282 Q2210.56 106.282 2208.48 107.764 Q2206.42 109.245 2206.42 111.977 Q2206.42 114.268 2207.78 115.449 Q2209.17 116.606 2213.01 117.324 L2215.84 117.902 Q2221.07 118.898 2223.55 121.421 Q2226.05 123.921 2226.05 128.134 Q2226.05 133.157 2222.67 135.75 Q2219.31 138.342 2212.81 138.342 Q2210.35 138.342 2207.57 137.787 Q2204.82 137.231 2201.86 136.143 L2201.86 131.328 Q2204.7 132.926 2207.44 133.736 Q2210.17 134.546 2212.81 134.546 Q2216.81 134.546 2218.99 132.972 Q2221.16 131.398 2221.16 128.481 Q2221.16 125.935 2219.59 124.5 Q2218.04 123.064 2214.47 122.347 L2211.62 121.791 Q2206.39 120.75 2204.06 118.527 Q2201.72 116.305 2201.72 112.347 Q2201.72 107.764 2204.94 105.125 Q2208.18 102.486 2213.85 102.486 Q2216.28 102.486 2218.8 102.926 Q2221.32 103.366 2223.96 104.245 Z" fill="#000000" fill-rule="nonzero" fill-opacity="1" /><path clip-path="url(#clip790)" d="M2254.06 104.245 L2254.06 108.805 Q2251.39 107.532 2249.03 106.907 Q2246.67 106.282 2244.47 106.282 Q2240.65 106.282 2238.57 107.764 Q2236.51 109.245 2236.51 111.977 Q2236.51 114.268 2237.87 115.449 Q2239.26 116.606 2243.11 117.324 L2245.93 117.902 Q2251.16 118.898 2253.64 121.421 Q2256.14 123.921 2256.14 128.134 Q2256.14 133.157 2252.76 135.75 Q2249.4 138.342 2242.9 138.342 Q2240.44 138.342 2237.67 137.787 Q2234.91 137.231 2231.95 136.143 L2231.95 131.328 Q2234.8 132.926 2237.53 133.736 Q2240.26 134.546 2242.9 134.546 Q2246.9 134.546 2249.08 132.972 Q2251.25 131.398 2251.25 128.481 Q2251.25 125.935 2249.68 124.5 Q2248.13 123.064 2244.56 122.347 L2241.72 121.791 Q2236.49 120.75 2234.15 118.527 Q2231.81 116.305 2231.81 112.347 Q2231.81 107.764 2235.03 105.125 Q2238.27 102.486 2243.94 102.486 Q2246.37 102.486 2248.89 102.926 Q2251.42 103.366 2254.06 104.245 Z" fill="#000000" fill-rule="nonzero" fill-opacity="1" /><path clip-path="url(#clip790)" d="M178.867 1486.45 L2352.76 1486.45 L2352.76 847.244 L178.867 847.244  Z" fill="#ffffff" fill-rule="evenodd" fill-opacity="1"/>
<defs>
  <clipPath id="clip793">
    <rect x="178" y="847" width="2175" height="640"/>
  </clipPath>
</defs>
<polyline clip-path="url(#clip793)" style="stroke:#000000; stroke-linecap:round; stroke-linejoin:round; stroke-width:2; stroke-opacity:0.1; fill:none" points="238.339,1486.45 238.339,847.244 "/>
<polyline clip-path="url(#clip793)" style="stroke:#000000; stroke-linecap:round; stroke-linejoin:round; stroke-width:2; stroke-opacity:0.1; fill:none" points="751.562,1486.45 751.562,847.244 "/>
<polyline clip-path="url(#clip793)" style="stroke:#000000; stroke-linecap:round; stroke-linejoin:round; stroke-width:2; stroke-opacity:0.1; fill:none" points="1264.78,1486.45 1264.78,847.244 "/>
<polyline clip-path="url(#clip793)" style="stroke:#000000; stroke-linecap:round; stroke-linejoin:round; stroke-width:2; stroke-opacity:0.1; fill:none" points="1778.01,1486.45 1778.01,847.244 "/>
<polyline clip-path="url(#clip793)" style="stroke:#000000; stroke-linecap:round; stroke-linejoin:round; stroke-width:2; stroke-opacity:0.1; fill:none" points="2291.23,1486.45 2291.23,847.244 "/>
<polyline clip-path="url(#clip793)" style="stroke:#000000; stroke-linecap:round; stroke-linejoin:round; stroke-width:2; stroke-opacity:0.1; fill:none" points="178.867,1486.45 2352.76,1486.45 "/>
<polyline clip-path="url(#clip793)" style="stroke:#000000; stroke-linecap:round; stroke-linejoin:round; stroke-width:2; stroke-opacity:0.1; fill:none" points="178.867,1326.65 2352.76,1326.65 "/>
<polyline clip-path="url(#clip793)" style="stroke:#000000; stroke-linecap:round; stroke-linejoin:round; stroke-width:2; stroke-opacity:0.1; fill:none" points="178.867,1166.85 2352.76,1166.85 "/>
<polyline clip-path="url(#clip793)" style="stroke:#000000; stroke-linecap:round; stroke-linejoin:round; stroke-width:2; stroke-opacity:0.1; fill:none" points="178.867,1007.05 2352.76,1007.05 "/>
<polyline clip-path="url(#clip793)" style="stroke:#000000; stroke-linecap:round; stroke-linejoin:round; stroke-width:2; stroke-opacity:0.1; fill:none" points="178.867,847.244 2352.76,847.244 "/>
<polyline clip-path="url(#clip790)" style="stroke:#000000; stroke-linecap:round; stroke-linejoin:round; stroke-width:4; stroke-opacity:1; fill:none" points="178.867,1486.45 2352.76,1486.45 "/>
<polyline clip-path="url(#clip790)" style="stroke:#000000; stroke-linecap:round; stroke-linejoin:round; stroke-width:4; stroke-opacity:1; fill:none" points="238.339,1486.45 238.339,1467.55 "/>
<polyline clip-path="url(#clip790)" style="stroke:#000000; stroke-linecap:round; stroke-linejoin:round; stroke-width:4; stroke-opacity:1; fill:none" points="751.562,1486.45 751.562,1467.55 "/>
<polyline clip-path="url(#clip790)" style="stroke:#000000; stroke-linecap:round; stroke-linejoin:round; stroke-width:4; stroke-opacity:1; fill:none" points="1264.78,1486.45 1264.78,1467.55 "/>
<polyline clip-path="url(#clip790)" style="stroke:#000000; stroke-linecap:round; stroke-linejoin:round; stroke-width:4; stroke-opacity:1; fill:none" points="1778.01,1486.45 1778.01,1467.55 "/>
<polyline clip-path="url(#clip790)" style="stroke:#000000; stroke-linecap:round; stroke-linejoin:round; stroke-width:4; stroke-opacity:1; fill:none" points="2291.23,1486.45 2291.23,1467.55 "/>
<path clip-path="url(#clip790)" d="M238.339 1517.37 Q234.728 1517.37 232.899 1520.93 Q231.094 1524.47 231.094 1531.6 Q231.094 1538.71 232.899 1542.27 Q234.728 1545.82 238.339 1545.82 Q241.973 1545.82 243.779 1542.27 Q245.607 1538.71 245.607 1531.6 Q245.607 1524.47 243.779 1520.93 Q241.973 1517.37 238.339 1517.37 M238.339 1513.66 Q244.149 1513.66 247.205 1518.27 Q250.283 1522.85 250.283 1531.6 Q250.283 1540.33 247.205 1544.94 Q244.149 1549.52 238.339 1549.52 Q232.529 1549.52 229.45 1544.94 Q226.395 1540.33 226.395 1531.6 Q226.395 1522.85 229.45 1518.27 Q232.529 1513.66 238.339 1513.66 Z" fill="#000000" fill-rule="nonzero" fill-opacity="1" /><path clip-path="url(#clip790)" d="M715.254 1544.91 L731.574 1544.91 L731.574 1548.85 L709.629 1548.85 L709.629 1544.91 Q712.291 1542.16 716.875 1537.53 Q721.481 1532.88 722.662 1531.53 Q724.907 1529.01 725.787 1527.27 Q726.689 1525.51 726.689 1523.82 Q726.689 1521.07 724.745 1519.33 Q722.824 1517.6 719.722 1517.6 Q717.523 1517.6 715.069 1518.36 Q712.638 1519.13 709.861 1520.68 L709.861 1515.95 Q712.685 1514.82 715.138 1514.24 Q717.592 1513.66 719.629 1513.66 Q725 1513.66 728.194 1516.35 Q731.388 1519.03 731.388 1523.52 Q731.388 1525.65 730.578 1527.57 Q729.791 1529.47 727.685 1532.07 Q727.106 1532.74 724.004 1535.95 Q720.902 1539.15 715.254 1544.91 Z" fill="#000000" fill-rule="nonzero" fill-opacity="1" /><path clip-path="url(#clip790)" d="M741.435 1514.29 L759.791 1514.29 L759.791 1518.22 L745.717 1518.22 L745.717 1526.7 Q746.736 1526.35 747.754 1526.19 Q748.773 1526 749.791 1526 Q755.578 1526 758.958 1529.17 Q762.337 1532.34 762.337 1537.76 Q762.337 1543.34 758.865 1546.44 Q755.393 1549.52 749.073 1549.52 Q746.898 1549.52 744.629 1549.15 Q742.384 1548.78 739.976 1548.04 L739.976 1543.34 Q742.06 1544.47 744.282 1545.03 Q746.504 1545.58 748.981 1545.58 Q752.985 1545.58 755.323 1543.48 Q757.661 1541.37 757.661 1537.76 Q757.661 1534.15 755.323 1532.04 Q752.985 1529.94 748.981 1529.94 Q747.106 1529.94 745.231 1530.35 Q743.379 1530.77 741.435 1531.65 L741.435 1514.29 Z" fill="#000000" fill-rule="nonzero" fill-opacity="1" /><path clip-path="url(#clip790)" d="M781.55 1517.37 Q777.939 1517.37 776.11 1520.93 Q774.305 1524.47 774.305 1531.6 Q774.305 1538.71 776.11 1542.27 Q777.939 1545.82 781.55 1545.82 Q785.184 1545.82 786.99 1542.27 Q788.819 1538.71 788.819 1531.6 Q788.819 1524.47 786.99 1520.93 Q785.184 1517.37 781.55 1517.37 M781.55 1513.66 Q787.36 1513.66 790.416 1518.27 Q793.495 1522.85 793.495 1531.6 Q793.495 1540.33 790.416 1544.94 Q787.36 1549.52 781.55 1549.52 Q775.74 1549.52 772.661 1544.94 Q769.606 1540.33 769.606 1531.6 Q769.606 1522.85 772.661 1518.27 Q775.74 1513.66 781.55 1513.66 Z" fill="#000000" fill-rule="nonzero" fill-opacity="1" /><path clip-path="url(#clip790)" d="M1224.4 1514.29 L1242.76 1514.29 L1242.76 1518.22 L1228.69 1518.22 L1228.69 1526.7 Q1229.7 1526.35 1230.72 1526.19 Q1231.74 1526 1232.76 1526 Q1238.55 1526 1241.93 1529.17 Q1245.31 1532.34 1245.31 1537.76 Q1245.31 1543.34 1241.83 1546.44 Q1238.36 1549.52 1232.04 1549.52 Q1229.87 1549.52 1227.6 1549.15 Q1225.35 1548.78 1222.94 1548.04 L1222.94 1543.34 Q1225.03 1544.47 1227.25 1545.03 Q1229.47 1545.58 1231.95 1545.58 Q1235.95 1545.58 1238.29 1543.48 Q1240.63 1541.37 1240.63 1537.76 Q1240.63 1534.15 1238.29 1532.04 Q1235.95 1529.94 1231.95 1529.94 Q1230.07 1529.94 1228.2 1530.35 Q1226.35 1530.77 1224.4 1531.65 L1224.4 1514.29 Z" fill="#000000" fill-rule="nonzero" fill-opacity="1" /><path clip-path="url(#clip790)" d="M1264.52 1517.37 Q1260.91 1517.37 1259.08 1520.93 Q1257.27 1524.47 1257.27 1531.6 Q1257.27 1538.71 1259.08 1542.27 Q1260.91 1545.82 1264.52 1545.82 Q1268.15 1545.82 1269.96 1542.27 Q1271.79 1538.71 1271.79 1531.6 Q1271.79 1524.47 1269.96 1520.93 Q1268.15 1517.37 1264.52 1517.37 M1264.52 1513.66 Q1270.33 1513.66 1273.38 1518.27 Q1276.46 1522.85 1276.46 1531.6 Q1276.46 1540.33 1273.38 1544.94 Q1270.33 1549.52 1264.52 1549.52 Q1258.71 1549.52 1255.63 1544.94 Q1252.57 1540.33 1252.57 1531.6 Q1252.57 1522.85 1255.63 1518.27 Q1258.71 1513.66 1264.52 1513.66 Z" fill="#000000" fill-rule="nonzero" fill-opacity="1" /><path clip-path="url(#clip790)" d="M1294.68 1517.37 Q1291.07 1517.37 1289.24 1520.93 Q1287.44 1524.47 1287.44 1531.6 Q1287.44 1538.71 1289.24 1542.27 Q1291.07 1545.82 1294.68 1545.82 Q1298.31 1545.82 1300.12 1542.27 Q1301.95 1538.71 1301.95 1531.6 Q1301.95 1524.47 1300.12 1520.93 Q1298.31 1517.37 1294.68 1517.37 M1294.68 1513.66 Q1300.49 1513.66 1303.55 1518.27 Q1306.62 1522.85 1306.62 1531.6 Q1306.62 1540.33 1303.55 1544.94 Q1300.49 1549.52 1294.68 1549.52 Q1288.87 1549.52 1285.79 1544.94 Q1282.74 1540.33 1282.74 1531.6 Q1282.74 1522.85 1285.79 1518.27 Q1288.87 1513.66 1294.68 1513.66 Z" fill="#000000" fill-rule="nonzero" fill-opacity="1" /><path clip-path="url(#clip790)" d="M1736.28 1514.29 L1758.51 1514.29 L1758.51 1516.28 L1745.96 1548.85 L1741.08 1548.85 L1752.88 1518.22 L1736.28 1518.22 L1736.28 1514.29 Z" fill="#000000" fill-rule="nonzero" fill-opacity="1" /><path clip-path="url(#clip790)" d="M1767.67 1514.29 L1786.03 1514.29 L1786.03 1518.22 L1771.95 1518.22 L1771.95 1526.7 Q1772.97 1526.35 1773.99 1526.19 Q1775.01 1526 1776.03 1526 Q1781.82 1526 1785.2 1529.17 Q1788.57 1532.34 1788.57 1537.76 Q1788.57 1543.34 1785.1 1546.44 Q1781.63 1549.52 1775.31 1549.52 Q1773.14 1549.52 1770.87 1549.15 Q1768.62 1548.78 1766.21 1548.04 L1766.21 1543.34 Q1768.3 1544.47 1770.52 1545.03 Q1772.74 1545.58 1775.22 1545.58 Q1779.22 1545.58 1781.56 1543.48 Q1783.9 1541.37 1783.9 1537.76 Q1783.9 1534.15 1781.56 1532.04 Q1779.22 1529.94 1775.22 1529.94 Q1773.34 1529.94 1771.47 1530.35 Q1769.62 1530.77 1767.67 1531.65 L1767.67 1514.29 Z" fill="#000000" fill-rule="nonzero" fill-opacity="1" /><path clip-path="url(#clip790)" d="M1807.79 1517.37 Q1804.18 1517.37 1802.35 1520.93 Q1800.54 1524.47 1800.54 1531.6 Q1800.54 1538.71 1802.35 1542.27 Q1804.18 1545.82 1807.79 1545.82 Q1811.42 1545.82 1813.23 1542.27 Q1815.06 1538.71 1815.06 1531.6 Q1815.06 1524.47 1813.23 1520.93 Q1811.42 1517.37 1807.79 1517.37 M1807.79 1513.66 Q1813.6 1513.66 1816.65 1518.27 Q1819.73 1522.85 1819.73 1531.6 Q1819.73 1540.33 1816.65 1544.94 Q1813.6 1549.52 1807.79 1549.52 Q1801.98 1549.52 1798.9 1544.94 Q1795.84 1540.33 1795.84 1531.6 Q1795.84 1522.85 1798.9 1518.27 Q1801.98 1513.66 1807.79 1513.66 Z" fill="#000000" fill-rule="nonzero" fill-opacity="1" /><path clip-path="url(#clip790)" d="M2235.76 1544.91 L2243.4 1544.91 L2243.4 1518.55 L2235.09 1520.21 L2235.09 1515.95 L2243.35 1514.29 L2248.02 1514.29 L2248.02 1544.91 L2255.66 1544.91 L2255.66 1548.85 L2235.76 1548.85 L2235.76 1544.91 Z" fill="#000000" fill-rule="nonzero" fill-opacity="1" /><path clip-path="url(#clip790)" d="M2275.11 1517.37 Q2271.5 1517.37 2269.67 1520.93 Q2267.86 1524.47 2267.86 1531.6 Q2267.86 1538.71 2269.67 1542.27 Q2271.5 1545.82 2275.11 1545.82 Q2278.74 1545.82 2280.55 1542.27 Q2282.38 1538.71 2282.38 1531.6 Q2282.38 1524.47 2280.55 1520.93 Q2278.74 1517.37 2275.11 1517.37 M2275.11 1513.66 Q2280.92 1513.66 2283.97 1518.27 Q2287.05 1522.85 2287.05 1531.6 Q2287.05 1540.33 2283.97 1544.94 Q2280.92 1549.52 2275.11 1549.52 Q2269.3 1549.52 2266.22 1544.94 Q2263.16 1540.33 2263.16 1531.6 Q2263.16 1522.85 2266.22 1518.27 Q2269.3 1513.66 2275.11 1513.66 Z" fill="#000000" fill-rule="nonzero" fill-opacity="1" /><path clip-path="url(#clip790)" d="M2305.27 1517.37 Q2301.66 1517.37 2299.83 1520.93 Q2298.02 1524.47 2298.02 1531.6 Q2298.02 1538.71 2299.83 1542.27 Q2301.66 1545.82 2305.27 1545.82 Q2308.9 1545.82 2310.71 1542.27 Q2312.54 1538.71 2312.54 1531.6 Q2312.54 1524.47 2310.71 1520.93 Q2308.9 1517.37 2305.27 1517.37 M2305.27 1513.66 Q2311.08 1513.66 2314.14 1518.27 Q2317.21 1522.85 2317.21 1531.6 Q2317.21 1540.33 2314.14 1544.94 Q2311.08 1549.52 2305.27 1549.52 Q2299.46 1549.52 2296.38 1544.94 Q2293.33 1540.33 2293.33 1531.6 Q2293.33 1522.85 2296.38 1518.27 Q2299.46 1513.66 2305.27 1513.66 Z" fill="#000000" fill-rule="nonzero" fill-opacity="1" /><path clip-path="url(#clip790)" d="M2335.43 1517.37 Q2331.82 1517.37 2329.99 1520.93 Q2328.19 1524.47 2328.19 1531.6 Q2328.19 1538.71 2329.99 1542.27 Q2331.82 1545.82 2335.43 1545.82 Q2339.07 1545.82 2340.87 1542.27 Q2342.7 1538.71 2342.7 1531.6 Q2342.7 1524.47 2340.87 1520.93 Q2339.07 1517.37 2335.43 1517.37 M2335.43 1513.66 Q2341.24 1513.66 2344.3 1518.27 Q2347.38 1522.85 2347.38 1531.6 Q2347.38 1540.33 2344.3 1544.94 Q2341.24 1549.52 2335.43 1549.52 Q2329.62 1549.52 2326.54 1544.94 Q2323.49 1540.33 2323.49 1531.6 Q2323.49 1522.85 2326.54 1518.27 Q2329.62 1513.66 2335.43 1513.66 Z" fill="#000000" fill-rule="nonzero" fill-opacity="1" /><polyline clip-path="url(#clip790)" style="stroke:#000000; stroke-linecap:round; stroke-linejoin:round; stroke-width:4; stroke-opacity:1; fill:none" points="178.867,1486.45 178.867,847.244 "/>
<polyline clip-path="url(#clip790)" style="stroke:#000000; stroke-linecap:round; stroke-linejoin:round; stroke-width:4; stroke-opacity:1; fill:none" points="178.867,1486.45 197.764,1486.45 "/>
<polyline clip-path="url(#clip790)" style="stroke:#000000; stroke-linecap:round; stroke-linejoin:round; stroke-width:4; stroke-opacity:1; fill:none" points="178.867,1326.65 197.764,1326.65 "/>
<polyline clip-path="url(#clip790)" style="stroke:#000000; stroke-linecap:round; stroke-linejoin:round; stroke-width:4; stroke-opacity:1; fill:none" points="178.867,1166.85 197.764,1166.85 "/>
<polyline clip-path="url(#clip790)" style="stroke:#000000; stroke-linecap:round; stroke-linejoin:round; stroke-width:4; stroke-opacity:1; fill:none" points="178.867,1007.05 197.764,1007.05 "/>
<polyline clip-path="url(#clip790)" style="stroke:#000000; stroke-linecap:round; stroke-linejoin:round; stroke-width:4; stroke-opacity:1; fill:none" points="178.867,847.244 197.764,847.244 "/>
<path clip-path="url(#clip790)" d="M50.9921 1486.9 L80.6679 1486.9 L80.6679 1490.83 L50.9921 1490.83 L50.9921 1486.9 Z" fill="#000000" fill-rule="nonzero" fill-opacity="1" /><path clip-path="url(#clip790)" d="M91.5706 1499.79 L99.2095 1499.79 L99.2095 1473.43 L90.8993 1475.09 L90.8993 1470.83 L99.1632 1469.17 L103.839 1469.17 L103.839 1499.79 L111.478 1499.79 L111.478 1503.73 L91.5706 1503.73 L91.5706 1499.79 Z" fill="#000000" fill-rule="nonzero" fill-opacity="1" /><path clip-path="url(#clip790)" d="M130.922 1472.25 Q127.311 1472.25 125.482 1475.81 Q123.677 1479.35 123.677 1486.48 Q123.677 1493.59 125.482 1497.15 Q127.311 1500.7 130.922 1500.7 Q134.556 1500.7 136.362 1497.15 Q138.191 1493.59 138.191 1486.48 Q138.191 1479.35 136.362 1475.81 Q134.556 1472.25 130.922 1472.25 M130.922 1468.54 Q136.732 1468.54 139.788 1473.15 Q142.867 1477.73 142.867 1486.48 Q142.867 1495.21 139.788 1499.82 Q136.732 1504.4 130.922 1504.4 Q125.112 1504.4 122.033 1499.82 Q118.978 1495.21 118.978 1486.48 Q118.978 1477.73 122.033 1473.15 Q125.112 1468.54 130.922 1468.54 Z" fill="#000000" fill-rule="nonzero" fill-opacity="1" /><path clip-path="url(#clip790)" d="M82.1494 1327.1 L111.825 1327.1 L111.825 1331.03 L82.1494 1331.03 L82.1494 1327.1 Z" fill="#000000" fill-rule="nonzero" fill-opacity="1" /><path clip-path="url(#clip790)" d="M121.964 1309.37 L140.32 1309.37 L140.32 1313.3 L126.246 1313.3 L126.246 1321.77 Q127.265 1321.43 128.283 1321.27 Q129.302 1321.08 130.32 1321.08 Q136.107 1321.08 139.487 1324.25 Q142.867 1327.42 142.867 1332.84 Q142.867 1338.42 139.394 1341.52 Q135.922 1344.6 129.603 1344.6 Q127.427 1344.6 125.158 1344.23 Q122.913 1343.86 120.506 1343.12 L120.506 1338.42 Q122.589 1339.55 124.811 1340.11 Q127.033 1340.66 129.51 1340.66 Q133.515 1340.66 135.853 1338.56 Q138.191 1336.45 138.191 1332.84 Q138.191 1329.23 135.853 1327.12 Q133.515 1325.01 129.51 1325.01 Q127.635 1325.01 125.76 1325.43 Q123.908 1325.85 121.964 1326.73 L121.964 1309.37 Z" fill="#000000" fill-rule="nonzero" fill-opacity="1" /><path clip-path="url(#clip790)" d="M130.922 1152.64 Q127.311 1152.64 125.482 1156.21 Q123.677 1159.75 123.677 1166.88 Q123.677 1173.99 125.482 1177.55 Q127.311 1181.09 130.922 1181.09 Q134.556 1181.09 136.362 1177.55 Q138.191 1173.99 138.191 1166.88 Q138.191 1159.75 136.362 1156.21 Q134.556 1152.64 130.922 1152.64 M130.922 1148.94 Q136.732 1148.94 139.788 1153.55 Q142.867 1158.13 142.867 1166.88 Q142.867 1175.61 139.788 1180.21 Q136.732 1184.8 130.922 1184.8 Q125.112 1184.8 122.033 1180.21 Q118.978 1175.61 118.978 1166.88 Q118.978 1158.13 122.033 1153.55 Q125.112 1148.94 130.922 1148.94 Z" fill="#000000" fill-rule="nonzero" fill-opacity="1" /><path clip-path="url(#clip790)" d="M121.964 989.765 L140.32 989.765 L140.32 993.7 L126.246 993.7 L126.246 1002.17 Q127.265 1001.83 128.283 1001.66 Q129.302 1001.48 130.32 1001.48 Q136.107 1001.48 139.487 1004.65 Q142.867 1007.82 142.867 1013.24 Q142.867 1018.82 139.394 1021.92 Q135.922 1025 129.603 1025 Q127.427 1025 125.158 1024.63 Q122.913 1024.26 120.506 1023.51 L120.506 1018.82 Q122.589 1019.95 124.811 1020.51 Q127.033 1021.06 129.51 1021.06 Q133.515 1021.06 135.853 1018.95 Q138.191 1016.85 138.191 1013.24 Q138.191 1009.63 135.853 1007.52 Q133.515 1005.41 129.51 1005.41 Q127.635 1005.41 125.76 1005.83 Q123.908 1006.25 121.964 1007.13 L121.964 989.765 Z" fill="#000000" fill-rule="nonzero" fill-opacity="1" /><path clip-path="url(#clip790)" d="M91.5706 860.589 L99.2095 860.589 L99.2095 834.223 L90.8993 835.89 L90.8993 831.631 L99.1632 829.964 L103.839 829.964 L103.839 860.589 L111.478 860.589 L111.478 864.524 L91.5706 864.524 L91.5706 860.589 Z" fill="#000000" fill-rule="nonzero" fill-opacity="1" /><path clip-path="url(#clip790)" d="M130.922 833.043 Q127.311 833.043 125.482 836.608 Q123.677 840.149 123.677 847.279 Q123.677 854.385 125.482 857.95 Q127.311 861.492 130.922 861.492 Q134.556 861.492 136.362 857.95 Q138.191 854.385 138.191 847.279 Q138.191 840.149 136.362 836.608 Q134.556 833.043 130.922 833.043 M130.922 829.339 Q136.732 829.339 139.788 833.946 Q142.867 838.529 142.867 847.279 Q142.867 856.006 139.788 860.612 Q136.732 865.195 130.922 865.195 Q125.112 865.195 122.033 860.612 Q118.978 856.006 118.978 847.279 Q118.978 838.529 122.033 833.946 Q125.112 829.339 130.922 829.339 Z" fill="#000000" fill-rule="nonzero" fill-opacity="1" /><polyline clip-path="url(#clip793)" style="stroke:#009af9; stroke-linecap:round; stroke-linejoin:round; stroke-width:4; stroke-opacity:1; fill:none" points="240.392,1134.89 242.445,1073.2 244.498,1125.21 246.55,1283.37 248.603,1222.01 250.656,924.293 252.709,1219.21 254.762,1236.38 256.815,1165.35 258.868,1146.5 260.921,1203.09 262.974,1213.91 265.027,1159.89 267.079,1138.72 269.132,1134.6 271.185,1197.57 273.238,1175.16 275.291,1163.7 277.344,1181 279.397,1172.19 281.45,1172.31 283.503,1178.3 285.555,1127.62 287.608,1197.64 289.661,1146.76 291.714,1264.57 293.767,1178.32 295.82,1175.31 297.873,1157.65 299.926,1155.69 301.979,1189.75 304.031,1136.76 306.084,1187.79 308.137,1145.4 310.19,1199.5 312.243,1149.65 314.296,1269.94 316.349,1206.27 318.402,1157.4 320.455,1178.63 322.507,1166.64 324.56,1111.97 326.613,1229.53 328.666,1147.67 330.719,1181.47 332.772,1160.53 334.825,1133.87 336.878,1161.05 338.931,1182.83 340.984,1146.41 343.036,1158.33 345.089,1192.65 347.142,1144.78 349.195,1112.51 351.248,1086.2 353.301,1143.85 355.354,1186.86 357.407,1182.73 359.46,1186.6 361.512,1227.59 363.565,1182.41 365.618,1133.5 367.671,1240.85 369.724,1323.78 371.777,1050.87 373.83,1161.35 375.883,1188.58 377.936,1199.81 379.988,1122.62 382.041,1152.31 384.094,1191.59 386.147,1344.84 388.2,1096.3 390.253,1188.39 392.306,1185.98 394.359,1096.82 396.412,1228.87 398.464,1052.39 400.517,1164.68 402.57,1168.39 404.623,1163.12 406.676,1096.94 408.729,1191.16 410.782,1144.41 412.835,1161.92 414.888,1167.14 416.94,1175.54 418.993,1165 421.046,1165.81 423.099,1152.64 425.152,1339.97 427.205,1209.42 429.258,1010.85 431.311,1139.36 433.364,1082.11 435.417,1127.04 437.469,1132.81 439.522,1219.91 441.575,1194.92 443.628,1170.68 445.681,1179.26 447.734,1145.29 449.787,1188.84 451.84,1196.45 453.893,1118.16 455.945,1217.97 457.998,1138.19 460.051,1142 462.104,1238.13 464.157,1139.84 466.21,1127.42 468.263,1186.04 470.316,1186.5 472.369,1212.34 474.421,1210.19 476.474,1149.95 478.527,1173.74 480.58,1237.41 482.633,1280.49 484.686,1190.29 486.739,1144.39 488.792,1148.22 490.845,1166.54 492.897,1166.09 494.95,1187.96 497.003,1197.74 499.056,1168.22 501.109,1141.15 503.162,1188.19 505.215,1172.83 507.268,1143.96 509.321,1228.76 511.374,1055.26 513.426,1054.15 515.479,1252.05 517.532,1144.3 519.585,1113.02 521.638,1208.08 523.691,1173.52 525.744,1171.28 527.797,1274.01 529.85,853.38 531.902,1195.48 533.955,1094.75 536.008,1235.44 538.061,1141.71 540.114,1309.52 542.167,1323.63 544.22,1144.34 546.273,1159.5 548.326,1167.39 550.378,1177.67 552.431,1174.54 554.484,1141.02 556.537,1250.63 558.59,1221.14 560.643,1077.93 562.696,1193.49 564.749,1187.62 566.802,1197.2 568.854,1189.88 570.907,1128.94 572.96,1226.82 575.013,1166.77 577.066,1160.62 579.119,1181.05 581.172,921.475 583.225,1179.48 585.278,1238.25 587.331,1225.01 589.383,1071.49 591.436,1293.88 593.489,1113.65 595.542,1212.95 597.595,1334.65 599.648,1206.14 601.701,1141.02 603.754,1163.21 605.807,1148.98 607.859,1149.87 609.912,1142.48 611.965,1181.81 614.018,1096.38 616.071,1171.93 618.124,1019.39 620.177,1067.75 622.23,1187.75 624.283,1018.61 626.335,1077.31 628.388,1371.81 630.441,1236.46 632.494,1151.08 634.547,1128.68 636.6,1141.51 638.653,1253.24 640.706,1230.24 642.759,1219.52 644.811,1189.66 646.864,1112.7 648.917,1061.86 650.97,1103.64 653.023,1221.87 655.076,1233.6 657.129,1130.55 659.182,1178.85 661.235,1141.51 663.288,1138.36 665.34,1150.93 667.393,1183.46 669.446,1384.85 671.499,1151.61 673.552,1202.02 675.605,1196.49 677.658,1095.96 679.711,1203.35 681.764,1316.59 683.816,1170.18 685.869,1507.47 687.922,1408.52 689.975,1201.56 692.028,1091.95 694.081,1140.45 696.134,1170.64 698.187,1171.75 700.24,1146.02 702.292,1181.76 704.345,1099.19 706.398,1192.97 708.451,1168.16 710.504,1183.93 712.557,1213.12 714.61,1100.3 716.663,1039.37 718.716,1279.31 720.768,1337.25 722.821,787.27 724.874,1068.11 726.927,1305.21 728.98,1124.05 731.033,1258.23 733.086,1119.88 735.139,1244.77 737.192,1209.02 739.245,1175.1 741.297,1216.03 743.35,1090.49 745.403,1278.96 747.456,1285.09 749.509,1151.48 751.562,1171.34 753.615,1165.48 755.668,1162.71 757.721,1124.65 759.773,1139.25 761.826,1136.31 763.879,1230.09 765.932,1252.62 767.985,1180.3 770.038,1168.99 772.091,1166.71 774.144,1080.82 776.197,1251.1 778.249,1093.29 780.302,1312.57 782.355,1114.94 784.408,1192.28 786.461,1088.5 788.514,998.282 790.567,978.002 792.62,1278.11 794.673,1122.18 796.725,1166.9 798.778,1174.29 800.831,1172.73 802.884,1189.6 804.937,1209.09 806.99,1143.3 809.043,1142.91 811.096,1146.93 813.149,1499.53 815.202,1583.2 817.254,1325.74 819.307,1118.32 821.36,1161.02 823.413,1167.29 825.466,1193.11 827.519,1181.16 829.572,1168.4 831.625,1181.71 833.678,1200.65 835.73,1181.06 837.783,1224.22 839.836,1130.91 841.889,1125.16 843.942,1163.99 845.995,1196.03 848.048,1219.07 850.101,1192.17 852.154,1148.37 854.206,1196.46 856.259,1192.46 858.312,1175.07 860.365,1135.01 862.418,1191.13 864.471,1128.96 866.524,1164.29 868.577,1192.52 870.63,1184.38 872.682,1137.29 874.735,1182.5 876.788,1223.67 878.841,1115.66 880.894,1129.63 882.947,1124.19 885,1169.76 887.053,1159.34 889.106,1184.55 891.159,1150.24 893.211,1167.81 895.264,1164.92 897.317,1219.23 899.37,1190.51 901.423,1082.19 903.476,1191.19 905.529,1122.28 907.582,1166.32 909.635,444.845 911.687,2398.42 913.74,935.72 915.793,1145.39 917.846,1332.82 919.899,1151.65 921.952,1011.89 924.005,1314.04 926.058,1055.32 928.111,1118.98 930.163,1080.06 932.216,1122.39 934.269,1127.58 936.322,1174.55 938.375,1161.24 940.428,1144.88 942.481,1136.37 944.534,1191.57 946.587,1153.2 948.639,1139.15 950.692,1270.18 952.745,1181.77 954.798,1131.71 956.851,1187.94 958.904,1108.45 960.957,1121.27 963.01,1238.02 965.063,1294.53 967.116,952.473 969.168,1198.19 971.221,1197.07 973.274,1176.5 975.327,1355.79 977.38,1045.91 979.433,1122.99 981.486,1328.07 983.539,1288.08 985.592,1122.62 987.644,1226.27 989.697,906.829 991.75,1450.59 993.803,1426.84 995.856,1034.07 997.909,1043.86 999.962,1325.53 1002.01,1095.31 1004.07,1064.25 1006.12,1146.7 1008.17,1189.86 1010.23,1127.78 1012.28,1179.27 1014.33,1159.66 1016.38,1166.24 1018.44,1168.17 1020.49,1094.57 1022.54,888.971 1024.6,1238.68 1026.65,1276.11 1028.7,1218.85 1030.76,1161.97 1032.81,1210.62 1034.86,1127.65 1036.91,1114.71 1038.97,1169.06 1041.02,1185.23 1043.07,1136.28 1045.13,1252.55 1047.18,1113.97 1049.23,1433.91 1051.28,1423.79 1053.34,1207.37 1055.39,1225.36 1057.44,1144.99 1059.5,1218.35 1061.55,1122.6 1063.6,1048.05 1065.65,1116.9 1067.71,1146.91 1069.76,1131.46 1071.81,1131.94 1073.87,1175.58 1075.92,1166.98 1077.97,1166.26 1080.02,1178.96 1082.08,1167.45 1084.13,1176.06 1086.18,1179.75 1088.24,1203.89 1090.29,1162.63 1092.34,1139 1094.39,1246.85 1096.45,1123.34 1098.5,1159.94 1100.55,1156.14 1102.61,1553.73 1104.66,867.152 1106.71,988.39 1108.77,1160.75 1110.82,1184.38 1112.87,1185.24 1114.92,1174.12 1116.98,1135.76 1119.03,1198.14 1121.08,1104.39 1123.14,1041.52 1125.19,1230.57 1127.24,1164.42 1129.29,1178.19 1131.35,1006.81 1133.4,1173.14 1135.45,1171.17 1137.51,1228.23 1139.56,1329.74 1141.61,1520.96 1143.66,1087.35 1145.72,1153.94 1147.77,738.851 1149.82,1207.13 1151.88,538.063 1153.93,4401.79 1155.98,-59911 1158.03,-20953.2 1160.09,-13521.6 1162.14,-31585.1 1164.19,3024.46 1166.25,-9935.22 1168.3,2673.4 1170.35,566.45 1172.4,547.464 1174.46,1632.59 1176.51,1434.13 1178.56,896.19 1180.62,1609.03 1182.67,590.106 1184.72,1141.73 1186.77,1121.82 1188.83,1143.23 1190.88,1189.58 1192.93,1084.2 1194.99,1109.68 1197.04,1129.44 1199.09,1190.01 1201.15,1165.97 1203.2,1164.59 1205.25,1121.96 1207.3,1126.99 1209.36,1180.66 1211.41,1249.75 1213.46,1223.58 1215.52,908.378 1217.57,1104.33 1219.62,1227.29 1221.67,1428.83 1223.73,1100.1 1225.78,1141.15 1227.83,1238.13 1229.89,1088.64 1231.94,1202.96 1233.99,1130.17 1236.04,1196.65 1238.1,1155.58 1240.15,1194.13 1242.2,1186.71 1244.26,1125.21 1246.31,1227.52 1248.36,1149.57 1250.41,1208.93 1252.47,1297.54 1254.52,1183.43 1256.57,1186.99 1258.63,1128.82 1260.68,1163.37 1262.73,1172.95 1264.78,1200.87 1266.84,1143.3 1268.89,1234.93 1270.94,1096.33 1273,1130.14 1275.05,1069.58 1277.1,1142.83 1279.16,1173.46 1281.21,1165.28 1283.26,1172.39 1285.31,1248.52 1287.37,1247.32 1289.42,1269.18 1291.47,1368.98 1293.53,1682.49 1295.58,1062.95 1297.63,1159.73 1299.68,1152.41 1301.74,1169.88 1303.79,1178.25 1305.84,1109.54 1307.9,1153.58 1309.95,1155.56 1312,1244.21 1314.05,1243.65 1316.11,1109.09 1318.16,1239.52 1320.21,1196.81 1322.27,1151.99 1324.32,1205.17 1326.37,1063.36 1328.42,1128.74 1330.48,1187.18 1332.53,1144.86 1334.58,1149.57 1336.64,1191.8 1338.69,1217.54 1340.74,1269.38 1342.79,1237.65 1344.85,1121.03 1346.9,1198.39 1348.95,1197.51 1351.01,1168.57 1353.06,1200.6 1355.11,1159.46 1357.16,1163.32 1359.22,1203.42 1361.27,1133.24 1363.32,1184.9 1365.38,1246.37 1367.43,1233.56 1369.48,1210.64 1371.54,1178.54 1373.59,1141.68 1375.64,1144.24 1377.69,1177.83 1379.75,1187.36 1381.8,1139.65 1383.85,1199.71 1385.91,1173.23 1387.96,1147.53 1390.01,1182.17 1392.06,1178.66 1394.12,1148.44 1396.17,1137.36 1398.22,1164.43 1400.28,1176.58 1402.33,1182.83 1404.38,1102.44 1406.43,1113.21 1408.49,980.749 1410.54,1080.07 1412.59,1243.3 1414.65,968.822 1416.7,865.95 1418.75,1495.34 1420.8,1464.41 1422.86,1770.44 1424.91,1092.8 1426.96,1734.38 1429.02,2365.17 1431.07,835.679 1433.12,1379.44 1435.17,1256.05 1437.23,1027.43 1439.28,1200.15 1441.33,1153.66 1443.39,1194.22 1445.44,1118.96 1447.49,1170.24 1449.55,1160.93 1451.6,1158.45 1453.65,1197.9 1455.7,1063.53 1457.76,1512.1 1459.81,436 1461.86,855.803 1463.92,1215.15 1465.97,1262.66 1468.02,1027.34 1470.07,1071.76 1472.13,1161.97 1474.18,1178.09 1476.23,1151.01 1478.29,1174.7 1480.34,1155.45 1482.39,1340.06 1484.44,1408.09 1486.5,1194.45 1488.55,1133.77 1490.6,1136.21 1492.66,1199.71 1494.71,1191.21 1496.76,1151.77 1498.81,1186.52 1500.87,1175.23 1502.92,1019.52 1504.97,932.631 1507.03,1052.44 1509.08,1155.96 1511.13,1163.21 1513.18,1168.5 1515.24,1168.58 1517.29,1166.78 1519.34,1186.3 1521.4,1188.22 1523.45,1093.4 1525.5,1493.82 1527.55,1093 1529.61,1118.42 1531.66,1188.21 1533.71,1229.92 1535.77,1289.42 1537.82,1203.13 1539.87,1172.61 1541.93,1188.31 1543.98,1180.76 1546.03,1171.39 1548.08,1192.91 1550.14,1250.53 1552.19,1161.11 1554.24,1171.92 1556.3,1158.38 1558.35,1193.59 1560.4,1125.81 1562.45,1143.81 1564.51,1202.67 1566.56,1083.28 1568.61,1271.02 1570.67,1170.74 1572.72,1143.86 1574.77,1177.51 1576.82,1189.02 1578.88,1203.75 1580.93,1087.16 1582.98,1207.28 1585.04,1166.52 1587.09,1174.95 1589.14,1175.84 1591.19,1146.26 1593.25,1151.46 1595.3,1201.34 1597.35,1191.07 1599.41,1167.98 1601.46,1132.8 1603.51,1207.29 1605.56,1152.2 1607.62,1194.01 1609.67,1166.35 1611.72,1168.23 1613.78,1190.92 1615.83,1182.83 1617.88,1108.55 1619.94,1190.95 1621.99,1140.46 1624.04,1166.74 1626.09,1157.25 1628.15,1110.85 1630.2,1193.85 1632.25,1140.18 1634.31,1184.07 1636.36,1169.52 1638.41,1112.98 1640.46,1198.19 1642.52,1128.16 1644.57,1104.64 1646.62,1101.79 1648.68,1079.24 1650.73,1061.47 1652.78,1095.74 1654.83,1199.07 1656.89,1162.57 1658.94,1216.04 1660.99,1252.52 1663.05,1172.48 1665.1,1143.88 1667.15,1113.57 1669.2,981.303 1671.26,1074.85 1673.31,1155.23 1675.36,1198.03 1677.42,1165.74 1679.47,1175.9 1681.52,1145.04 1683.57,1222.75 1685.63,1215.06 1687.68,1170.38 1689.73,1130.28 1691.79,1271.9 1693.84,1211.95 1695.89,1139.53 1697.94,1071.52 1700,1148.48 1702.05,1142.84 1704.1,1143.74 1706.16,1125.41 1708.21,1169.13 1710.26,1204.06 1712.32,1091.03 1714.37,1151.02 1716.42,1139.44 1718.47,1447.2 1720.53,1230.86 1722.58,1056.95 1724.63,1171.84 1726.69,1170.64 1728.74,1205.82 1730.79,1184.22 1732.84,1178.91 1734.9,1178.68 1736.95,1147.85 1739,1192.1 1741.06,1207.93 1743.11,1235.08 1745.16,1118.48 1747.21,604.481 1749.27,2071.81 1751.32,925.57 1753.37,1581.64 1755.43,1439.75 1757.48,963.792 1759.53,836.735 1761.58,888.598 1763.64,1261.4 1765.69,1145.6 1767.74,1079.09 1769.8,1233.15 1771.85,1193.99 1773.9,1261.9 1775.95,1317.55 1778.01,1326.51 1780.06,1172.27 1782.11,1194.67 1784.17,1225.98 1786.22,1093.2 1788.27,1184.16 1790.33,1147.3 1792.38,1203.7 1794.43,1148.57 1796.48,1130.74 1798.54,1131.38 1800.59,1109.1 1802.64,1142.95 1804.7,1210.44 1806.75,1174.45 1808.8,1087.94 1810.85,934.615 1812.91,1039.6 1814.96,1262.22 1817.01,1050.24 1819.07,1241.83 1821.12,1238.82 1823.17,1132.79 1825.22,1192.61 1827.28,1151.02 1829.33,1171.63 1831.38,1178.55 1833.44,1177.8 1835.49,1134.74 1837.54,1106.35 1839.59,1174.84 1841.65,1136.75 1843.7,1120.93 1845.75,1246.48 1847.81,1145.28 1849.86,1165.38 1851.91,1177.94 1853.96,1081.11 1856.02,1235.15 1858.07,1218.81 1860.12,1123.12 1862.18,1163.57 1864.23,1164.21 1866.28,1157.45 1868.34,1166.17 1870.39,1128.71 1872.44,1166.24 1874.49,1192.56 1876.55,1215.53 1878.6,1322.93 1880.65,1242.04 1882.71,1313.01 1884.76,1155.01 1886.81,1260.86 1888.86,358.217 1890.92,271.859 1892.97,316.855 1895.02,914.091 1897.08,1216.04 1899.13,1178.92 1901.18,1156.27 1903.23,1152.11 1905.29,1152.96 1907.34,1151.94 1909.39,1064.04 1911.45,808.215 1913.5,1182.53 1915.55,1015.21 1917.6,1264.4 1919.66,1204.07 1921.71,1186.88 1923.76,1189.87 1925.82,1134.73 1927.87,1123.83 1929.92,1068.72 1931.97,1169.33 1934.03,1136.06 1936.08,1135.41 1938.13,1224.98 1940.19,1117.56 1942.24,1327.24 1944.29,1278.53 1946.34,1237.49 1948.4,1406.87 1950.45,837.791 1952.5,1179.08 1954.56,1149.68 1956.61,1176.35 1958.66,1125.23 1960.72,1252.2 1962.77,1105.7 1964.82,1258.33 1966.87,1162.76 1968.93,1216.67 1970.98,1595.4 1973.03,1056.37 1975.09,1286.03 1977.14,1260.33 1979.19,1137.44 1981.24,1163.34 1983.3,1101.42 1985.35,1132.56 1987.4,1137.71 1989.46,1148.7 1991.51,1131.59 1993.56,1183.96 1995.61,1157.38 1997.67,1098.43 1999.72,1171.4 2001.77,1164.62 2003.83,1174.82 2005.88,1234.13 2007.93,1109.25 2009.98,1188.46 2012.04,1161.99 2014.09,1125.83 2016.14,1092.99 2018.2,1110.47 2020.25,1173.82 2022.3,1175.64 2024.35,1173.48 2026.41,1105.96 2028.46,1354.33 2030.51,1864.97 2032.57,1004.25 2034.62,1005.59 2036.67,1169.95 2038.73,1164.86 2040.78,1166.73 2042.83,1169.82 2044.88,1191.55 2046.94,1145.59 2048.99,1191.36 2051.04,1192.87 2053.1,1163.09 2055.15,1169.69 2057.2,1157.33 2059.25,1138.42 2061.31,1166.51 2063.36,1170.15 2065.41,1162.31 2067.47,1169.49 2069.52,1163.56 2071.57,1171.23 2073.62,1175.61 2075.68,1164.62 2077.73,1154.47 2079.78,1094.65 2081.84,463.984 2083.89,572.012 2085.94,670.669 2087.99,1864.33 2090.05,1749.69 2092.1,1150.54 2094.15,1142.88 2096.21,1135.81 2098.26,1137.25 2100.31,1193.04 2102.36,1154.7 2104.42,1212.12 2106.47,1189.74 2108.52,1155.1 2110.58,1131.46 2112.63,1112.15 2114.68,1153.8 2116.73,1104.71 2118.79,1319.26 2120.84,1091.11 2122.89,1146.43 2124.95,1148.4 2127,1145.74 2129.05,1194.36 2131.11,1212.84 2133.16,1178.08 2135.21,1187.59 2137.26,1144.99 2139.32,1186.06 2141.37,1150.64 2143.42,1096.13 2145.48,1141.63 2147.53,1176.08 2149.58,1156.88 2151.63,1170.92 2153.69,1195.96 2155.74,1121.86 2157.79,1125.56 2159.85,1266.31 2161.9,1302.16 2163.95,1259.23 2166,1164.47 2168.06,1193.34 2170.11,947.36 2172.16,1037 2174.22,1129.08 2176.27,1180.87 2178.32,1227.86 2180.37,1235.93 2182.43,1147.63 2184.48,1139.7 2186.53,1191.84 2188.59,1156.92 2190.64,1118.41 2192.69,1177.5 2194.74,1148.07 2196.8,1119.93 2198.85,1211.03 2200.9,1146.78 2202.96,1130.48 2205.01,1177.88 2207.06,1468.08 2209.12,915.097 2211.17,852.689 2213.22,986.764 2215.27,1094.27 2217.33,1169.12 2219.38,1210.61 2221.43,1110.1 2223.49,1150.63 2225.54,1190.84 2227.59,1160.17 2229.64,1311.98 2231.7,1157.1 2233.75,1150.92 2235.8,1162.19 2237.86,1163.77 2239.91,1163.33 2241.96,1180.51 2244.01,1178.52 2246.07,1165.42 2248.12,1097.62 2250.17,1220.18 2252.23,1105.2 2254.28,1189.78 2256.33,1153.91 2258.38,1094.93 2260.44,1128.08 2262.49,1125.76 2264.54,1142.79 2266.6,1137.52 2268.65,1190.44 2270.7,1235.42 2272.75,1123.29 2274.81,1117.61 2276.86,1227.76 2278.91,1205.59 2280.97,1179.48 2283.02,1167.4 2285.07,888.975 2287.12,-863.79 2289.18,-159.466 2291.23,3838.22 "/>
<path clip-path="url(#clip790)" d="M251.33 1465.14 L588.926 1465.14 L588.926 1361.46 L251.33 1361.46  Z" fill="#ffffff" fill-rule="evenodd" fill-opacity="1"/>
<polyline clip-path="url(#clip790)" style="stroke:#000000; stroke-linecap:round; stroke-linejoin:round; stroke-width:4; stroke-opacity:1; fill:none" points="251.33,1465.14 588.926,1465.14 588.926,1361.46 251.33,1361.46 251.33,1465.14 "/>
<polyline clip-path="url(#clip790)" style="stroke:#009af9; stroke-linecap:round; stroke-linejoin:round; stroke-width:4; stroke-opacity:1; fill:none" points="275.484,1413.3 420.41,1413.3 "/>
<path clip-path="url(#clip790)" d="M470.12 1425.65 L470.12 1416.37 L462.481 1416.37 L462.481 1412.53 L474.749 1412.53 L474.749 1427.36 Q472.041 1429.28 468.777 1430.28 Q465.513 1431.25 461.809 1431.25 Q453.708 1431.25 449.124 1426.53 Q444.564 1421.78 444.564 1413.34 Q444.564 1404.86 449.124 1400.14 Q453.708 1395.4 461.809 1395.4 Q465.189 1395.4 468.221 1396.23 Q471.277 1397.06 473.846 1398.68 L473.846 1403.66 Q471.254 1401.46 468.337 1400.35 Q465.421 1399.24 462.203 1399.24 Q455.86 1399.24 452.666 1402.78 Q449.495 1406.32 449.495 1413.34 Q449.495 1420.33 452.666 1423.87 Q455.86 1427.41 462.203 1427.41 Q464.68 1427.41 466.624 1426.99 Q468.569 1426.55 470.12 1425.65 Z" fill="#000000" fill-rule="nonzero" fill-opacity="1" /><path clip-path="url(#clip790)" d="M487.967 1399.86 L487.967 1412.85 L493.846 1412.85 Q497.11 1412.85 498.893 1411.16 Q500.675 1409.47 500.675 1406.35 Q500.675 1403.24 498.893 1401.55 Q497.11 1399.86 493.846 1399.86 L487.967 1399.86 M483.291 1396.02 L493.846 1396.02 Q499.657 1396.02 502.619 1398.66 Q505.606 1401.28 505.606 1406.35 Q505.606 1411.46 502.619 1414.08 Q499.657 1416.69 493.846 1416.69 L487.967 1416.69 L487.967 1430.58 L483.291 1430.58 L483.291 1396.02 Z" fill="#000000" fill-rule="nonzero" fill-opacity="1" /><path clip-path="url(#clip790)" d="M532.596 1397.16 L532.596 1401.72 Q529.934 1400.44 527.573 1399.82 Q525.212 1399.19 523.013 1399.19 Q519.193 1399.19 517.11 1400.67 Q515.05 1402.16 515.05 1404.89 Q515.05 1407.18 516.416 1408.36 Q517.805 1409.52 521.647 1410.23 L524.471 1410.81 Q529.703 1411.81 532.179 1414.33 Q534.679 1416.83 534.679 1421.04 Q534.679 1426.07 531.3 1428.66 Q527.943 1431.25 521.439 1431.25 Q518.985 1431.25 516.207 1430.7 Q513.453 1430.14 510.49 1429.05 L510.49 1424.24 Q513.337 1425.84 516.068 1426.65 Q518.8 1427.46 521.439 1427.46 Q525.443 1427.46 527.619 1425.88 Q529.795 1424.31 529.795 1421.39 Q529.795 1418.85 528.221 1417.41 Q526.67 1415.97 523.105 1415.26 L520.258 1414.7 Q515.027 1413.66 512.689 1411.44 Q510.351 1409.22 510.351 1405.26 Q510.351 1400.67 513.568 1398.03 Q516.809 1395.4 522.48 1395.4 Q524.911 1395.4 527.434 1395.84 Q529.957 1396.28 532.596 1397.16 Z" fill="#000000" fill-rule="nonzero" fill-opacity="1" /><path clip-path="url(#clip790)" d="M562.689 1397.16 L562.689 1401.72 Q560.027 1400.44 557.665 1399.82 Q555.304 1399.19 553.105 1399.19 Q549.286 1399.19 547.203 1400.67 Q545.142 1402.16 545.142 1404.89 Q545.142 1407.18 546.508 1408.36 Q547.897 1409.52 551.74 1410.23 L554.564 1410.81 Q559.795 1411.81 562.272 1414.33 Q564.772 1416.83 564.772 1421.04 Q564.772 1426.07 561.392 1428.66 Q558.036 1431.25 551.531 1431.25 Q549.078 1431.25 546.3 1430.7 Q543.545 1430.14 540.582 1429.05 L540.582 1424.24 Q543.429 1425.84 546.161 1426.65 Q548.892 1427.46 551.531 1427.46 Q555.536 1427.46 557.712 1425.88 Q559.888 1424.31 559.888 1421.39 Q559.888 1418.85 558.314 1417.41 Q556.763 1415.97 553.198 1415.26 L550.351 1414.7 Q545.119 1413.66 542.781 1411.44 Q540.443 1409.22 540.443 1405.26 Q540.443 1400.67 543.661 1398.03 Q546.902 1395.4 552.573 1395.4 Q555.003 1395.4 557.527 1395.84 Q560.05 1396.28 562.689 1397.16 Z" fill="#000000" fill-rule="nonzero" fill-opacity="1" /></svg>
