<?xml version="1.0" encoding="utf-8"?>
<svg xmlns="http://www.w3.org/2000/svg" xmlns:xlink="http://www.w3.org/1999/xlink" width="600" height="400" viewBox="0 0 2400 1600">
<defs>
  <clipPath id="clip440">
    <rect x="0" y="0" width="2400" height="1600"/>
  </clipPath>
</defs>
<path clip-path="url(#clip440)" d="M0 1600 L2400 1600 L2400 0 L0 0  Z" fill="#ffffff" fill-rule="evenodd" fill-opacity="1"/>
<defs>
  <clipPath id="clip441">
    <rect x="242" y="47" width="2112" height="1377"/>
  </clipPath>
</defs>
<path clip-path="url(#clip440)" d="M178.867 686.448 L2352.76 686.448 L2352.76 47.2441 L178.867 47.2441  Z" fill="#ffffff" fill-rule="evenodd" fill-opacity="1"/>
<defs>
  <clipPath id="clip442">
    <rect x="178" y="47" width="2175" height="640"/>
  </clipPath>
</defs>
<polyline clip-path="url(#clip442)" style="stroke:#000000; stroke-linecap:round; stroke-linejoin:round; stroke-width:2; stroke-opacity:0.1; fill:none" points="238.339,686.448 238.339,47.2441 "/>
<polyline clip-path="url(#clip442)" style="stroke:#000000; stroke-linecap:round; stroke-linejoin:round; stroke-width:2; stroke-opacity:0.1; fill:none" points="751.562,686.448 751.562,47.2441 "/>
<polyline clip-path="url(#clip442)" style="stroke:#000000; stroke-linecap:round; stroke-linejoin:round; stroke-width:2; stroke-opacity:0.1; fill:none" points="1264.78,686.448 1264.78,47.2441 "/>
<polyline clip-path="url(#clip442)" style="stroke:#000000; stroke-linecap:round; stroke-linejoin:round; stroke-width:2; stroke-opacity:0.1; fill:none" points="1778.01,686.448 1778.01,47.2441 "/>
<polyline clip-path="url(#clip442)" style="stroke:#000000; stroke-linecap:round; stroke-linejoin:round; stroke-width:2; stroke-opacity:0.1; fill:none" points="2291.23,686.448 2291.23,47.2441 "/>
<polyline clip-path="url(#clip442)" style="stroke:#000000; stroke-linecap:round; stroke-linejoin:round; stroke-width:2; stroke-opacity:0.1; fill:none" points="178.867,686.448 2352.76,686.448 "/>
<polyline clip-path="url(#clip442)" style="stroke:#000000; stroke-linecap:round; stroke-linejoin:round; stroke-width:2; stroke-opacity:0.1; fill:none" points="178.867,526.647 2352.76,526.647 "/>
<polyline clip-path="url(#clip442)" style="stroke:#000000; stroke-linecap:round; stroke-linejoin:round; stroke-width:2; stroke-opacity:0.1; fill:none" points="178.867,366.846 2352.76,366.846 "/>
<polyline clip-path="url(#clip442)" style="stroke:#000000; stroke-linecap:round; stroke-linejoin:round; stroke-width:2; stroke-opacity:0.1; fill:none" points="178.867,207.045 2352.76,207.045 "/>
<polyline clip-path="url(#clip442)" style="stroke:#000000; stroke-linecap:round; stroke-linejoin:round; stroke-width:2; stroke-opacity:0.1; fill:none" points="178.867,47.2441 2352.76,47.2441 "/>
<polyline clip-path="url(#clip440)" style="stroke:#000000; stroke-linecap:round; stroke-linejoin:round; stroke-width:4; stroke-opacity:1; fill:none" points="178.867,686.448 2352.76,686.448 "/>
<polyline clip-path="url(#clip440)" style="stroke:#000000; stroke-linecap:round; stroke-linejoin:round; stroke-width:4; stroke-opacity:1; fill:none" points="238.339,686.448 238.339,667.55 "/>
<polyline clip-path="url(#clip440)" style="stroke:#000000; stroke-linecap:round; stroke-linejoin:round; stroke-width:4; stroke-opacity:1; fill:none" points="751.562,686.448 751.562,667.55 "/>
<polyline clip-path="url(#clip440)" style="stroke:#000000; stroke-linecap:round; stroke-linejoin:round; stroke-width:4; stroke-opacity:1; fill:none" points="1264.78,686.448 1264.78,667.55 "/>
<polyline clip-path="url(#clip440)" style="stroke:#000000; stroke-linecap:round; stroke-linejoin:round; stroke-width:4; stroke-opacity:1; fill:none" points="1778.01,686.448 1778.01,667.55 "/>
<polyline clip-path="url(#clip440)" style="stroke:#000000; stroke-linecap:round; stroke-linejoin:round; stroke-width:4; stroke-opacity:1; fill:none" points="2291.23,686.448 2291.23,667.55 "/>
<path clip-path="url(#clip440)" d="M238.339 717.367 Q234.728 717.367 232.899 720.931 Q231.094 724.473 231.094 731.603 Q231.094 738.709 232.899 742.274 Q234.728 745.815 238.339 745.815 Q241.973 745.815 243.779 742.274 Q245.607 738.709 245.607 731.603 Q245.607 724.473 243.779 720.931 Q241.973 717.367 238.339 717.367 M238.339 713.663 Q244.149 713.663 247.205 718.269 Q250.283 722.853 250.283 731.603 Q250.283 740.329 247.205 744.936 Q244.149 749.519 238.339 749.519 Q232.529 749.519 229.45 744.936 Q226.395 740.329 226.395 731.603 Q226.395 722.853 229.45 718.269 Q232.529 713.663 238.339 713.663 Z" fill="#000000" fill-rule="nonzero" fill-opacity="1" /><path clip-path="url(#clip440)" d="M715.254 744.913 L731.574 744.913 L731.574 748.848 L709.629 748.848 L709.629 744.913 Q712.291 742.158 716.875 737.528 Q721.481 732.876 722.662 731.533 Q724.907 729.01 725.787 727.274 Q726.689 725.515 726.689 723.825 Q726.689 721.07 724.745 719.334 Q722.824 717.598 719.722 717.598 Q717.523 717.598 715.069 718.362 Q712.638 719.126 709.861 720.677 L709.861 715.955 Q712.685 714.82 715.138 714.242 Q717.592 713.663 719.629 713.663 Q725 713.663 728.194 716.348 Q731.388 719.033 731.388 723.524 Q731.388 725.654 730.578 727.575 Q729.791 729.473 727.685 732.066 Q727.106 732.737 724.004 735.954 Q720.902 739.149 715.254 744.913 Z" fill="#000000" fill-rule="nonzero" fill-opacity="1" /><path clip-path="url(#clip440)" d="M741.435 714.288 L759.791 714.288 L759.791 718.223 L745.717 718.223 L745.717 726.695 Q746.736 726.348 747.754 726.186 Q748.773 726.001 749.791 726.001 Q755.578 726.001 758.958 729.172 Q762.337 732.343 762.337 737.76 Q762.337 743.339 758.865 746.44 Q755.393 749.519 749.073 749.519 Q746.898 749.519 744.629 749.149 Q742.384 748.778 739.976 748.038 L739.976 743.339 Q742.06 744.473 744.282 745.028 Q746.504 745.584 748.981 745.584 Q752.985 745.584 755.323 743.478 Q757.661 741.371 757.661 737.76 Q757.661 734.149 755.323 732.042 Q752.985 729.936 748.981 729.936 Q747.106 729.936 745.231 730.353 Q743.379 730.769 741.435 731.649 L741.435 714.288 Z" fill="#000000" fill-rule="nonzero" fill-opacity="1" /><path clip-path="url(#clip440)" d="M781.55 717.367 Q777.939 717.367 776.11 720.931 Q774.305 724.473 774.305 731.603 Q774.305 738.709 776.11 742.274 Q777.939 745.815 781.55 745.815 Q785.184 745.815 786.99 742.274 Q788.819 738.709 788.819 731.603 Q788.819 724.473 786.99 720.931 Q785.184 717.367 781.55 717.367 M781.55 713.663 Q787.36 713.663 790.416 718.269 Q793.495 722.853 793.495 731.603 Q793.495 740.329 790.416 744.936 Q787.36 749.519 781.55 749.519 Q775.74 749.519 772.661 744.936 Q769.606 740.329 769.606 731.603 Q769.606 722.853 772.661 718.269 Q775.74 713.663 781.55 713.663 Z" fill="#000000" fill-rule="nonzero" fill-opacity="1" /><path clip-path="url(#clip440)" d="M1224.4 714.288 L1242.76 714.288 L1242.76 718.223 L1228.69 718.223 L1228.69 726.695 Q1229.7 726.348 1230.72 726.186 Q1231.74 726.001 1232.76 726.001 Q1238.55 726.001 1241.93 729.172 Q1245.31 732.343 1245.31 737.76 Q1245.31 743.339 1241.83 746.44 Q1238.36 749.519 1232.04 749.519 Q1229.87 749.519 1227.6 749.149 Q1225.35 748.778 1222.94 748.038 L1222.94 743.339 Q1225.03 744.473 1227.25 745.028 Q1229.47 745.584 1231.95 745.584 Q1235.95 745.584 1238.29 743.478 Q1240.63 741.371 1240.63 737.76 Q1240.63 734.149 1238.29 732.042 Q1235.95 729.936 1231.95 729.936 Q1230.07 729.936 1228.2 730.353 Q1226.35 730.769 1224.4 731.649 L1224.4 714.288 Z" fill="#000000" fill-rule="nonzero" fill-opacity="1" /><path clip-path="url(#clip440)" d="M1264.52 717.367 Q1260.91 717.367 1259.08 720.931 Q1257.27 724.473 1257.27 731.603 Q1257.27 738.709 1259.08 742.274 Q1260.91 745.815 1264.52 745.815 Q1268.15 745.815 1269.96 742.274 Q1271.79 738.709 1271.79 731.603 Q1271.79 724.473 1269.96 720.931 Q1268.15 717.367 1264.52 717.367 M1264.52 713.663 Q1270.33 713.663 1273.38 718.269 Q1276.46 722.853 1276.46 731.603 Q1276.46 740.329 1273.38 744.936 Q1270.33 749.519 1264.52 749.519 Q1258.71 749.519 1255.63 744.936 Q1252.57 740.329 1252.57 731.603 Q1252.57 722.853 1255.63 718.269 Q1258.71 713.663 1264.52 713.663 Z" fill="#000000" fill-rule="nonzero" fill-opacity="1" /><path clip-path="url(#clip440)" d="M1294.68 717.367 Q1291.07 717.367 1289.24 720.931 Q1287.44 724.473 1287.44 731.603 Q1287.44 738.709 1289.24 742.274 Q1291.07 745.815 1294.68 745.815 Q1298.31 745.815 1300.12 742.274 Q1301.95 738.709 1301.95 731.603 Q1301.95 724.473 1300.12 720.931 Q1298.31 717.367 1294.68 717.367 M1294.68 713.663 Q1300.49 713.663 1303.55 718.269 Q1306.62 722.853 1306.62 731.603 Q1306.62 740.329 1303.55 744.936 Q1300.49 749.519 1294.68 749.519 Q1288.87 749.519 1285.79 744.936 Q1282.74 740.329 1282.74 731.603 Q1282.74 722.853 1285.79 718.269 Q1288.87 713.663 1294.68 713.663 Z" fill="#000000" fill-rule="nonzero" fill-opacity="1" /><path clip-path="url(#clip440)" d="M1736.28 714.288 L1758.51 714.288 L1758.51 716.279 L1745.96 748.848 L1741.08 748.848 L1752.88 718.223 L1736.28 718.223 L1736.28 714.288 Z" fill="#000000" fill-rule="nonzero" fill-opacity="1" /><path clip-path="url(#clip440)" d="M1767.67 714.288 L1786.03 714.288 L1786.03 718.223 L1771.95 718.223 L1771.95 726.695 Q1772.97 726.348 1773.99 726.186 Q1775.01 726.001 1776.03 726.001 Q1781.82 726.001 1785.2 729.172 Q1788.57 732.343 1788.57 737.76 Q1788.57 743.339 1785.1 746.44 Q1781.63 749.519 1775.31 749.519 Q1773.14 749.519 1770.87 749.149 Q1768.62 748.778 1766.21 748.038 L1766.21 743.339 Q1768.3 744.473 1770.52 745.028 Q1772.74 745.584 1775.22 745.584 Q1779.22 745.584 1781.56 743.478 Q1783.9 741.371 1783.9 737.76 Q1783.9 734.149 1781.56 732.042 Q1779.22 729.936 1775.22 729.936 Q1773.34 729.936 1771.47 730.353 Q1769.62 730.769 1767.67 731.649 L1767.67 714.288 Z" fill="#000000" fill-rule="nonzero" fill-opacity="1" /><path clip-path="url(#clip440)" d="M1807.79 717.367 Q1804.18 717.367 1802.35 720.931 Q1800.54 724.473 1800.54 731.603 Q1800.54 738.709 1802.35 742.274 Q1804.18 745.815 1807.79 745.815 Q1811.42 745.815 1813.23 742.274 Q1815.06 738.709 1815.06 731.603 Q1815.06 724.473 1813.23 720.931 Q1811.42 717.367 1807.79 717.367 M1807.79 713.663 Q1813.6 713.663 1816.65 718.269 Q1819.73 722.853 1819.73 731.603 Q1819.73 740.329 1816.65 744.936 Q1813.6 749.519 1807.79 749.519 Q1801.98 749.519 1798.9 744.936 Q1795.84 740.329 1795.84 731.603 Q1795.84 722.853 1798.9 718.269 Q1801.98 713.663 1807.79 713.663 Z" fill="#000000" fill-rule="nonzero" fill-opacity="1" /><path clip-path="url(#clip440)" d="M2235.76 744.913 L2243.4 744.913 L2243.4 718.547 L2235.09 720.214 L2235.09 715.955 L2243.35 714.288 L2248.02 714.288 L2248.02 744.913 L2255.66 744.913 L2255.66 748.848 L2235.76 748.848 L2235.76 744.913 Z" fill="#000000" fill-rule="nonzero" fill-opacity="1" /><path clip-path="url(#clip440)" d="M2275.11 717.367 Q2271.5 717.367 2269.67 720.931 Q2267.86 724.473 2267.86 731.603 Q2267.86 738.709 2269.67 742.274 Q2271.5 745.815 2275.11 745.815 Q2278.74 745.815 2280.55 742.274 Q2282.38 738.709 2282.38 731.603 Q2282.38 724.473 2280.55 720.931 Q2278.74 717.367 2275.11 717.367 M2275.11 713.663 Q2280.92 713.663 2283.97 718.269 Q2287.05 722.853 2287.05 731.603 Q2287.05 740.329 2283.97 744.936 Q2280.92 749.519 2275.11 749.519 Q2269.3 749.519 2266.22 744.936 Q2263.16 740.329 2263.16 731.603 Q2263.16 722.853 2266.22 718.269 Q2269.3 713.663 2275.11 713.663 Z" fill="#000000" fill-rule="nonzero" fill-opacity="1" /><path clip-path="url(#clip440)" d="M2305.27 717.367 Q2301.66 717.367 2299.83 720.931 Q2298.02 724.473 2298.02 731.603 Q2298.02 738.709 2299.83 742.274 Q2301.66 745.815 2305.27 745.815 Q2308.9 745.815 2310.71 742.274 Q2312.54 738.709 2312.54 731.603 Q2312.54 724.473 2310.71 720.931 Q2308.9 717.367 2305.27 717.367 M2305.27 713.663 Q2311.08 713.663 2314.14 718.269 Q2317.21 722.853 2317.21 731.603 Q2317.21 740.329 2314.14 744.936 Q2311.08 749.519 2305.27 749.519 Q2299.46 749.519 2296.38 744.936 Q2293.33 740.329 2293.33 731.603 Q2293.33 722.853 2296.38 718.269 Q2299.46 713.663 2305.27 713.663 Z" fill="#000000" fill-rule="nonzero" fill-opacity="1" /><path clip-path="url(#clip440)" d="M2335.43 717.367 Q2331.82 717.367 2329.99 720.931 Q2328.19 724.473 2328.19 731.603 Q2328.19 738.709 2329.99 742.274 Q2331.82 745.815 2335.43 745.815 Q2339.07 745.815 2340.87 742.274 Q2342.7 738.709 2342.7 731.603 Q2342.7 724.473 2340.87 720.931 Q2339.07 717.367 2335.43 717.367 M2335.43 713.663 Q2341.24 713.663 2344.3 718.269 Q2347.38 722.853 2347.38 731.603 Q2347.38 740.329 2344.3 744.936 Q2341.24 749.519 2335.43 749.519 Q2329.62 749.519 2326.54 744.936 Q2323.49 740.329 2323.49 731.603 Q2323.49 722.853 2326.54 718.269 Q2329.62 713.663 2335.43 713.663 Z" fill="#000000" fill-rule="nonzero" fill-opacity="1" /><polyline clip-path="url(#clip440)" style="stroke:#000000; stroke-linecap:round; stroke-linejoin:round; stroke-width:4; stroke-opacity:1; fill:none" points="178.867,686.448 178.867,47.2441 "/>
<polyline clip-path="url(#clip440)" style="stroke:#000000; stroke-linecap:round; stroke-linejoin:round; stroke-width:4; stroke-opacity:1; fill:none" points="178.867,686.448 197.764,686.448 "/>
<polyline clip-path="url(#clip440)" style="stroke:#000000; stroke-linecap:round; stroke-linejoin:round; stroke-width:4; stroke-opacity:1; fill:none" points="178.867,526.647 197.764,526.647 "/>
<polyline clip-path="url(#clip440)" style="stroke:#000000; stroke-linecap:round; stroke-linejoin:round; stroke-width:4; stroke-opacity:1; fill:none" points="178.867,366.846 197.764,366.846 "/>
<polyline clip-path="url(#clip440)" style="stroke:#000000; stroke-linecap:round; stroke-linejoin:round; stroke-width:4; stroke-opacity:1; fill:none" points="178.867,207.045 197.764,207.045 "/>
<polyline clip-path="url(#clip440)" style="stroke:#000000; stroke-linecap:round; stroke-linejoin:round; stroke-width:4; stroke-opacity:1; fill:none" points="178.867,47.2441 197.764,47.2441 "/>
<path clip-path="url(#clip440)" d="M50.9921 686.899 L80.6679 686.899 L80.6679 690.834 L50.9921 690.834 L50.9921 686.899 Z" fill="#000000" fill-rule="nonzero" fill-opacity="1" /><path clip-path="url(#clip440)" d="M91.5706 699.793 L99.2095 699.793 L99.2095 673.427 L90.8993 675.094 L90.8993 670.835 L99.1632 669.168 L103.839 669.168 L103.839 699.793 L111.478 699.793 L111.478 703.728 L91.5706 703.728 L91.5706 699.793 Z" fill="#000000" fill-rule="nonzero" fill-opacity="1" /><path clip-path="url(#clip440)" d="M130.922 672.247 Q127.311 672.247 125.482 675.811 Q123.677 679.353 123.677 686.483 Q123.677 693.589 125.482 697.154 Q127.311 700.695 130.922 700.695 Q134.556 700.695 136.362 697.154 Q138.191 693.589 138.191 686.483 Q138.191 679.353 136.362 675.811 Q134.556 672.247 130.922 672.247 M130.922 668.543 Q136.732 668.543 139.788 673.149 Q142.867 677.733 142.867 686.483 Q142.867 695.209 139.788 699.816 Q136.732 704.399 130.922 704.399 Q125.112 704.399 122.033 699.816 Q118.978 695.209 118.978 686.483 Q118.978 677.733 122.033 673.149 Q125.112 668.543 130.922 668.543 Z" fill="#000000" fill-rule="nonzero" fill-opacity="1" /><path clip-path="url(#clip440)" d="M82.1494 527.098 L111.825 527.098 L111.825 531.033 L82.1494 531.033 L82.1494 527.098 Z" fill="#000000" fill-rule="nonzero" fill-opacity="1" /><path clip-path="url(#clip440)" d="M121.964 509.367 L140.32 509.367 L140.32 513.302 L126.246 513.302 L126.246 521.774 Q127.265 521.427 128.283 521.265 Q129.302 521.08 130.32 521.08 Q136.107 521.08 139.487 524.251 Q142.867 527.422 142.867 532.839 Q142.867 538.418 139.394 541.52 Q135.922 544.598 129.603 544.598 Q127.427 544.598 125.158 544.228 Q122.913 543.857 120.506 543.117 L120.506 538.418 Q122.589 539.552 124.811 540.108 Q127.033 540.663 129.51 540.663 Q133.515 540.663 135.853 538.557 Q138.191 536.45 138.191 532.839 Q138.191 529.228 135.853 527.121 Q133.515 525.015 129.51 525.015 Q127.635 525.015 125.76 525.432 Q123.908 525.848 121.964 526.728 L121.964 509.367 Z" fill="#000000" fill-rule="nonzero" fill-opacity="1" /><path clip-path="url(#clip440)" d="M130.922 352.645 Q127.311 352.645 125.482 356.209 Q123.677 359.751 123.677 366.881 Q123.677 373.987 125.482 377.552 Q127.311 381.094 130.922 381.094 Q134.556 381.094 136.362 377.552 Q138.191 373.987 138.191 366.881 Q138.191 359.751 136.362 356.209 Q134.556 352.645 130.922 352.645 M130.922 348.941 Q136.732 348.941 139.788 353.547 Q142.867 358.131 142.867 366.881 Q142.867 375.608 139.788 380.214 Q136.732 384.797 130.922 384.797 Q125.112 384.797 122.033 380.214 Q118.978 375.608 118.978 366.881 Q118.978 358.131 122.033 353.547 Q125.112 348.941 130.922 348.941 Z" fill="#000000" fill-rule="nonzero" fill-opacity="1" /><path clip-path="url(#clip440)" d="M121.964 189.765 L140.32 189.765 L140.32 193.7 L126.246 193.7 L126.246 202.172 Q127.265 201.825 128.283 201.663 Q129.302 201.478 130.32 201.478 Q136.107 201.478 139.487 204.649 Q142.867 207.82 142.867 213.237 Q142.867 218.816 139.394 221.918 Q135.922 224.996 129.603 224.996 Q127.427 224.996 125.158 224.626 Q122.913 224.256 120.506 223.515 L120.506 218.816 Q122.589 219.95 124.811 220.506 Q127.033 221.061 129.51 221.061 Q133.515 221.061 135.853 218.955 Q138.191 216.848 138.191 213.237 Q138.191 209.626 135.853 207.52 Q133.515 205.413 129.51 205.413 Q127.635 205.413 125.76 205.83 Q123.908 206.246 121.964 207.126 L121.964 189.765 Z" fill="#000000" fill-rule="nonzero" fill-opacity="1" /><path clip-path="url(#clip440)" d="M91.5706 60.5889 L99.2095 60.5889 L99.2095 34.2233 L90.8993 35.89 L90.8993 31.6308 L99.1632 29.9641 L103.839 29.9641 L103.839 60.5889 L111.478 60.5889 L111.478 64.5241 L91.5706 64.5241 L91.5706 60.5889 Z" fill="#000000" fill-rule="nonzero" fill-opacity="1" /><path clip-path="url(#clip440)" d="M130.922 33.0428 Q127.311 33.0428 125.482 36.6076 Q123.677 40.1492 123.677 47.2788 Q123.677 54.3853 125.482 57.9501 Q127.311 61.4917 130.922 61.4917 Q134.556 61.4917 136.362 57.9501 Q138.191 54.3853 138.191 47.2788 Q138.191 40.1492 136.362 36.6076 Q134.556 33.0428 130.922 33.0428 M130.922 29.3391 Q136.732 29.3391 139.788 33.9456 Q142.867 38.5289 142.867 47.2788 Q142.867 56.0056 139.788 60.6121 Q136.732 65.1954 130.922 65.1954 Q125.112 65.1954 122.033 60.6121 Q118.978 56.0056 118.978 47.2788 Q118.978 38.5289 122.033 33.9456 Q125.112 29.3391 130.922 29.3391 Z" fill="#000000" fill-rule="nonzero" fill-opacity="1" /><polyline clip-path="url(#clip442)" style="stroke:#009af9; stroke-linecap:round; stroke-linejoin:round; stroke-width:4; stroke-opacity:1; fill:none" points="240.392,334.886 242.445,334.871 244.498,334.892 246.55,336.149 248.603,338.632 250.656,338.794 252.709,338.653 254.762,339.67 256.815,339.592 258.868,323.844 260.921,322.721 262.974,322.913 265.027,323.05 267.079,327.971 269.132,348.259 271.185,350.781 273.238,301.058 275.291,403.383 277.344,403.112 279.397,402.695 281.45,402.15 283.503,393.952 285.555,392.529 287.608,398.903 289.661,399.835 291.714,362.898 293.767,359.812 295.82,366.082 297.873,331.038 299.926,408.531 301.979,413.615 304.031,412.026 306.084,397.782 308.137,399.179 310.19,398.951 312.243,393.25 314.296,407.175 316.349,398.572 318.402,401.29 320.455,401.365 322.507,403.912 324.56,412.863 326.613,407.886 328.666,423.241 330.719,458.866 332.772,459.638 334.825,467.36 336.878,446.997 338.931,441.212 340.984,441.713 343.036,441.8 345.089,442.784 347.142,431.437 349.195,410.984 351.248,387.386 353.301,352.587 355.354,323.643 357.407,407.987 359.46,412.526 361.512,417.564 363.565,452.643 365.618,425.882 367.671,435.396 369.724,434.994 371.777,403.331 373.83,403.111 375.883,399.133 377.936,411.038 379.988,410.959 382.041,411.62 384.094,412.448 386.147,421.049 388.2,421.047 390.253,397.012 392.306,397.942 394.359,400.89 396.412,399.869 398.464,399.722 400.517,390.823 402.57,390.909 404.623,395.686 406.676,395.507 408.729,396.029 410.782,391.232 412.835,382.442 414.888,376.173 416.94,375.94 418.993,376.186 421.046,376.749 423.099,375.98 425.152,376.718 427.205,379.943 429.258,376.01 431.311,378.896 433.364,377.954 435.417,372.457 437.469,369.974 439.522,381.06 441.575,388.666 443.628,388.656 445.681,387.573 447.734,383.786 449.787,383.735 451.84,383.604 453.893,379.903 455.945,379.903 457.998,377.267 460.051,383.512 462.104,385.096 464.157,391.245 466.21,391.328 468.263,399.036 470.316,399.575 472.369,393.671 474.421,392.866 476.474,394.558 478.527,393.08 480.58,392.944 482.633,390.53 484.686,387.882 486.739,384.149 488.792,389.293 490.845,398.858 492.897,398.855 494.95,398.856 497.003,398.208 499.056,397.461 501.109,397.461 503.162,390.315 505.215,389.794 507.268,390.134 509.321,363.502 511.374,364.22 513.426,363.88 515.479,383.676 517.532,387.955 519.585,387.539 521.638,383.056 523.691,384.436 525.744,384.537 527.797,389.39 529.85,389.398 531.902,375.844 533.955,378.993 536.008,345.68 538.061,358.688 540.114,359.707 542.167,385.066 544.22,384.766 546.273,384.77 548.326,368.954 550.378,369.037 552.431,358.744 554.484,372.889 556.537,372.309 558.59,378.057 560.643,377.839 562.696,383.01 564.749,386.537 566.802,386.455 568.854,343.806 570.907,338.1 572.96,335.096 575.013,336.55 577.066,336.721 579.119,347.921 581.172,346.052 583.225,344.198 585.278,343.978 587.331,344.777 589.383,345.74 591.436,343.335 593.489,343.694 595.542,351.637 597.595,356.265 599.648,356.353 601.701,356.363 603.754,355.054 605.807,355.838 607.859,359.089 609.912,360.197 611.965,360.198 614.018,371.651 616.071,376.328 618.124,376.028 620.177,375.758 622.23,372.684 624.283,372.119 626.335,372.097 628.388,344.511 630.441,344.544 632.494,345.383 634.547,350.909 636.6,349.267 638.653,349.292 640.706,335.068 642.759,353.344 644.811,354.729 646.864,354.4 648.917,357.83 650.97,362.869 653.023,355.273 655.076,358.009 657.129,366.03 659.182,362.932 661.235,360.239 663.288,360.553 665.34,360.819 667.393,365.959 669.446,365.174 671.499,351.258 673.552,353.769 675.605,358.378 677.658,360.5 679.711,348.46 681.764,349.619 683.816,349.518 685.869,359.066 687.922,362.908 689.975,363.32 692.028,368.999 694.081,368.964 696.134,367.728 698.187,369.012 700.24,367.294 702.292,368.243 704.345,368.256 706.398,367.35 708.451,367.133 710.504,367.139 712.557,366.017 714.61,365.969 716.663,368.924 718.716,370.355 720.768,370.309 722.821,370.251 724.874,374.324 726.927,373.259 728.98,373.628 731.033,372.545 733.086,367.839 735.139,367.89 737.192,368.149 739.245,364.687 741.297,362.477 743.35,362.493 745.403,353.822 747.456,353.508 749.509,352.889 751.562,345.937 753.615,346.38 755.668,357.99 757.721,358.11 759.773,357.651 761.826,355.215 763.879,363.632 765.932,363.668 767.985,363.739 770.038,360.728 772.091,368.661 774.144,369.743 776.197,376.484 778.249,375.852 780.302,373.089 782.355,406.539 784.408,357.286 786.461,356.772 788.514,358.176 790.567,359.069 792.62,349.335 794.673,349.455 796.725,350.592 798.778,354.522 800.831,404.174 802.884,408.649 804.937,408.417 806.99,437.825 809.043,437.709 811.096,431.831 813.149,428.06 815.202,434.585 817.254,429.908 819.307,442.854 821.36,418.504 823.413,364.153 825.466,358.881 827.519,349.066 829.572,333.921 831.625,350.83 833.678,353.163 835.73,349.03 837.783,352.276 839.836,352.281 841.889,352.116 843.942,350.592 845.995,340.223 848.048,339.749 850.101,339.668 852.154,322.413 854.206,322.481 856.259,324.102 858.312,318.337 860.365,329.542 862.418,329.199 864.471,331.363 866.524,332.361 868.577,339.75 870.63,337.658 872.682,325.943 874.735,325.872 876.788,325.902 878.841,337.402 880.894,338.732 882.947,331.107 885,372.23 887.053,371.741 889.106,374.02 891.159,376.923 893.211,390.26 895.264,374.374 897.317,379.105 899.37,323.83 901.423,320.028 903.476,319.833 905.529,364.376 907.582,381.452 909.635,380.385 911.687,381.154 913.74,364.321 915.793,347.772 917.846,350.721 919.899,347.895 921.952,356.109 924.005,321.889 926.058,323.88 928.111,301.816 930.163,293.688 932.216,322.09 934.269,322.11 936.322,387.46 938.375,341.892 940.428,341.267 942.481,392.105 944.534,364.928 946.587,409.083 948.639,405.446 950.692,406.874 952.745,437.407 954.798,444.786 956.851,444.898 958.904,445.281 960.957,446.851 963.01,442.617 965.063,418.86 967.116,430.756 969.168,403.832 971.221,372.124 973.274,370.518 975.327,359.32 977.38,357.923 979.433,428.347 981.486,432.803 983.539,435.012 985.592,431.762 987.644,456.021 989.697,481.031 991.75,490.322 993.803,536.602 995.856,539.066 997.909,531.187 999.962,519.401 1002.01,522.221 1004.07,520.779 1006.12,522.991 1008.17,516.601 1010.23,516.396 1012.28,516.232 1014.33,533.882 1016.38,545.099 1018.44,554.137 1020.49,545.681 1022.54,535.015 1024.6,544.835 1026.65,588.215 1028.7,604.259 1030.76,603.385 1032.81,613.927 1034.86,576.826 1036.91,577.151 1038.97,573.238 1041.02,572.658 1043.07,478.713 1045.13,593.529 1047.18,591.989 1049.23,624.849 1051.28,617.273 1053.34,632.015 1055.39,645.196 1057.44,638.072 1059.5,638.033 1061.55,606.111 1063.6,511.319 1065.65,514.51 1067.71,487.223 1069.76,532.896 1071.81,410.453 1073.87,422.626 1075.92,399.772 1077.97,393.264 1080.02,387.235 1082.08,407.508 1084.13,405.496 1086.18,402.374 1088.24,401.965 1090.29,440.727 1092.34,441.522 1094.39,440.311 1096.45,445.457 1098.5,454.371 1100.55,450.225 1102.61,465.479 1104.66,484.759 1106.71,473.054 1108.77,486.583 1110.82,485.899 1112.87,481.217 1114.92,496.739 1116.98,518.457 1119.03,517.231 1121.08,401.354 1123.14,391.565 1125.19,375.2 1127.24,386.231 1129.29,399.919 1131.35,370.383 1133.4,371.278 1135.45,357.238 1137.51,356.706 1139.56,377.205 1141.61,383.04 1143.66,372.125 1145.72,220.855 1147.77,224.585 1149.82,246.168 1151.88,252.504 1153.93,253.952 1155.98,316.371 1158.03,314.679 1160.09,312.069 1162.14,372.204 1164.19,317.226 1166.25,317.739 1168.3,315.366 1170.35,313.882 1172.4,316.981 1174.46,321.188 1176.51,306.895 1178.56,252.65 1180.62,271.79 1182.67,307.32 1184.72,306.674 1186.77,372.891 1188.83,404.62 1190.88,364.454 1192.93,361.921 1194.99,487.917 1197.04,508.952 1199.09,538.863 1201.15,510.471 1203.2,535.8 1205.25,284.477 1207.3,240.882 1209.36,294.232 1211.41,286.652 1213.46,401.393 1215.52,113.551 1217.57,135.887 1219.62,83.8243 1221.67,123.839 1223.73,205.952 1225.78,228.513 1227.83,228.312 1229.89,223.028 1231.94,231.354 1233.99,237.124 1236.04,243.334 1238.1,199.339 1240.15,200.933 1242.2,200.6 1244.26,200.287 1246.31,189.465 1248.36,189.588 1250.41,216.297 1252.47,293.176 1254.52,316.058 1256.57,449.299 1258.63,444.889 1260.68,435.746 1262.73,435.932 1264.78,385.911 1266.84,347.414 1268.89,341.405 1270.94,346.812 1273,45.3624 1275.05,53.1778 1277.1,68.3544 1279.16,178.102 1281.21,186.982 1283.26,173.615 1285.31,226.243 1287.37,501.431 1289.42,525.123 1291.47,457.709 1293.53,21.8026 1295.58,301.213 1297.63,111.734 1299.68,101.898 1301.74,1084.16 1303.79,880.068 1305.84,916.053 1307.9,661.558 1309.95,652.991 1312,759.162 1314.05,658.28 1316.11,756.84 1318.16,760.971 1320.21,743.828 1322.27,800.342 1324.32,809.194 1326.37,805.134 1328.42,786.045 1330.48,785.562 1332.53,774.112 1334.58,703.258 1336.64,718.857 1338.69,716.466 1340.74,715.085 1342.79,632.743 1344.85,644.564 1346.9,643.265 1348.95,585.709 1351.01,588.544 1353.06,641.322 1355.11,629.6 1357.16,772.988 1359.22,287.326 1361.27,274.668 1363.32,295.872 1365.38,172.905 1367.43,159.997 1369.48,158.934 1371.54,148.853 1373.59,154.456 1375.64,154.362 1377.69,125.286 1379.75,159.224 1381.8,103.871 1383.85,247.874 1385.91,217.932 1387.96,185.517 1390.01,-85.8341 1392.06,147.284 1394.12,75.7365 1396.17,45.3425 1398.22,62.9217 1400.28,77.3798 1402.33,-126.182 1404.38,-118.662 1406.43,-128.157 1408.49,90.9073 1410.54,106.585 1412.59,108.237 1414.65,179.549 1416.7,115.269 1418.75,93.6629 1420.8,110.571 1422.86,149.261 1424.91,148.594 1426.96,83.0304 1429.02,80.6662 1431.07,194.02 1433.12,214.445 1435.17,337.545 1437.23,339.33 1439.28,341.07 1441.33,344.835 1443.39,462.87 1445.44,384.415 1447.49,359.618 1449.55,418.658 1451.6,418.951 1453.65,417.976 1455.7,417.684 1457.76,352.369 1459.81,353.462 1461.86,351.462 1463.92,356.793 1465.97,350.908 1468.02,480.485 1470.07,480.827 1472.13,481.069 1474.18,476.566 1476.23,430.764 1478.29,433.7 1480.34,446.08 1482.39,307.384 1484.44,307.445 1486.5,322.054 1488.55,334.516 1490.6,330.609 1492.66,345.388 1494.71,282.554 1496.76,317.415 1498.81,340.135 1500.87,335.79 1502.92,334.807 1504.97,364.665 1507.03,349.13 1509.08,353.821 1511.13,354.257 1513.18,341.613 1515.24,365.5 1517.29,323.658 1519.34,445.805 1521.4,432.362 1523.45,422.332 1525.5,409.139 1527.55,422.105 1529.61,414.412 1531.66,409.986 1533.71,402.359 1535.77,402.09 1537.82,405.168 1539.87,404.377 1541.93,332.3 1543.98,328.806 1546.03,330.649 1548.08,318.43 1550.14,319.427 1552.19,326.282 1554.24,363.365 1556.3,351.788 1558.35,346.608 1560.4,346.322 1562.45,346.449 1564.51,354.889 1566.56,355.339 1568.61,356.779 1570.67,356.672 1572.72,354.885 1574.77,342.905 1576.82,338.78 1578.88,339.194 1580.93,335.153 1582.98,335.142 1585.04,349.308 1587.09,350.626 1589.14,341.763 1591.19,333.957 1593.25,333.64 1595.3,319.991 1597.35,318.947 1599.41,324.341 1601.46,343.648 1603.51,314.629 1605.56,315.503 1607.62,313.226 1609.67,311.928 1611.72,375.87 1613.78,373.958 1615.83,402.143 1617.88,388.264 1619.94,405.097 1621.99,412.577 1624.04,416.472 1626.09,416.751 1628.15,415.864 1630.2,416.219 1632.25,416.159 1634.31,416.757 1636.36,408.374 1638.41,405.245 1640.46,404.695 1642.52,405.758 1644.57,404.972 1646.62,403.891 1648.68,405.59 1650.73,403.732 1652.78,431.111 1654.83,433.773 1656.89,387.969 1658.94,385.776 1660.99,440.518 1663.05,370.634 1665.1,331.698 1667.15,331.934 1669.2,307.847 1671.26,318.939 1673.31,329.4 1675.36,387.243 1677.42,376.141 1679.47,372.576 1681.52,366.491 1683.57,367.787 1685.63,349.618 1687.68,499.178 1689.73,501.677 1691.79,528.928 1693.84,537.547 1695.89,534.521 1697.94,543.611 1700,542.618 1702.05,542.962 1704.1,559.311 1706.16,559.081 1708.21,522.566 1710.26,521.444 1712.32,462.619 1714.37,415.969 1716.42,379.675 1718.47,381.262 1720.53,377.302 1722.58,376.692 1724.63,376.655 1726.69,366.246 1728.74,388.156 1730.79,377.414 1732.84,459.255 1734.9,488.697 1736.95,460.442 1739,423.968 1741.06,328.491 1743.11,380.251 1745.16,399.004 1747.21,383.036 1749.27,423.813 1751.32,427.134 1753.37,420.321 1755.43,395.936 1757.48,385.454 1759.53,447.638 1761.58,345.416 1763.64,340.713 1765.69,333.965 1767.74,403.143 1769.8,311.642 1771.85,311.646 1773.9,436.721 1775.95,441.01 1778.01,418.502 1780.06,419.921 1782.11,322.277 1784.17,342.479 1786.22,410.216 1788.27,403.599 1790.33,404.034 1792.38,402.911 1794.43,384.682 1796.48,389.765 1798.54,193.668 1800.59,192.383 1802.64,174.878 1804.7,160.567 1806.75,416.516 1808.8,439.388 1810.85,225.254 1812.91,199.378 1814.96,108.232 1817.01,110.198 1819.07,101.214 1821.12,63.7224 1823.17,994.796 1825.22,1182.35 1827.28,1181.11 1829.33,1197.21 1831.38,1194.08 1833.44,662.736 1835.49,267.601 1837.54,323.05 1839.59,455.412 1841.65,624.92 1843.7,559.928 1845.75,950.383 1847.81,1236.27 1849.86,1286.08 1851.91,1332.13 1853.96,1333.77 1856.02,1257.11 1858.07,1370.99 1860.12,1259.17 1862.18,1325.86 1864.23,1325.24 1866.28,1274.21 1868.34,1261 1870.39,1157.48 1872.44,1182.26 1874.49,1138.28 1876.55,1454.7 1878.6,1659.16 1880.65,1567.05 1882.71,1573.75 1884.76,941.701 1886.81,526.329 1888.86,521.625 1890.92,392.769 1892.97,392.436 1895.02,307.448 1897.08,304.001 1899.13,350.12 1901.18,272.108 1903.23,80.3454 1905.29,878.624 1907.34,576.194 1909.39,618.172 1911.45,-54.4163 1913.5,-307.035 1915.55,-265.593 1917.6,-472.723 1919.66,-491.579 1921.71,811.164 1923.76,1239.67 1925.82,1093.33 1927.87,1080.47 1929.92,1005.66 1931.97,950.19 1934.03,972.572 1936.08,788.585 1938.13,884.979 1940.19,785.709 1942.24,1000.46 1944.29,751.036 1946.34,1091.9 1948.4,1042.8 1950.45,769.422 1952.5,851.206 1954.56,1072.59 1956.61,1081.65 1958.66,609.754 1960.72,1016.13 1962.77,964.656 1964.82,1326.88 1966.87,1383.62 1968.93,1036.1 1970.98,951.627 1973.03,1661.12 1975.09,1783.53 1977.14,1985.89 1979.19,2266.46 1981.24,2289.36 1983.3,2356.64 1985.35,2551.47 1987.4,2655.97 1989.46,2590.1 1991.51,2764.81 1993.56,2765.38 1995.61,3317.31 1997.67,2775.04 1999.72,2921.66 2001.77,3093.03 2003.83,3133.31 2005.88,2998.98 2007.93,2722.41 2009.98,2743.34 2012.04,2723.87 2014.09,2740.83 2016.14,2888.94 2018.2,3092.27 2020.25,2890.89 2022.3,2880.17 2024.35,2749.12 2026.41,2659.81 2028.46,2461.31 2030.51,2378.13 2032.57,2585.1 2034.62,2519.64 2036.67,2448 2038.73,2335.07 2040.78,2438.83 2042.83,2672.45 2044.88,2635.41 2046.94,2650.31 2048.99,2575.32 2051.04,2727.06 2053.1,2436.52 2055.15,2239.71 2057.2,2252.53 2059.25,2266.57 2061.31,2334.92 2063.36,2275.41 2065.41,2351.23 2067.47,2095.58 2069.52,2174.79 2071.57,2183.81 2073.62,2206.98 2075.68,2249.5 2077.73,2052.37 2079.78,2324.56 2081.84,2303.17 2083.89,2500.55 2085.94,2882.03 2087.99,2780.48 2090.05,2627.71 2092.1,2672.97 2094.15,2450.91 2096.21,1975.64 2098.26,1926.85 2100.31,1786.14 2102.36,1566.14 2104.42,1292.73 2106.47,1167.49 2108.52,831.536 2110.58,831.892 2112.63,738.693 2114.68,459.965 2116.73,-227.772 2118.79,-123.096 2120.84,440.196 2122.89,459.573 2124.95,514.014 2127,238.748 2129.05,66.7107 2131.11,-92.5956 2133.16,-15.6251 2135.21,-16.7076 2137.26,287.32 2139.32,409.037 2141.37,484.266 2143.42,494.014 2145.48,870.774 2147.53,1127.34 2149.58,1368.52 2151.63,2082.65 2153.69,2171.58 2155.74,2014.42 2157.79,2052.46 2159.85,2042.84 2161.9,2001.33 2163.95,2239.12 2166,2098.74 2168.06,2214.27 2170.11,2178.58 2172.16,2230.1 2174.22,2196.94 2176.27,2014.3 2178.32,1879.43 2180.37,1836.17 2182.43,1849.46 2184.48,2005.24 2186.53,872.185 2188.59,1068.76 2190.64,4.91723 2192.69,54.9059 2194.74,40.339 2196.8,167.385 2198.85,201.469 2200.9,251.659 2202.96,275.062 2205.01,195.018 2207.06,354.056 2209.12,462.266 2211.17,358.792 2213.22,-279.594 2215.27,-951.818 2217.33,-1327.16 2219.38,-1710.39 2221.43,-1707.42 2223.49,-1519.18 2225.54,-1629.51 2227.59,-1530 2229.64,-1584.26 2231.7,-726.198 2233.75,-642.082 2235.8,-877.688 2237.86,-684.168 2239.91,-552.549 2241.96,-750.508 2244.01,-706.992 2246.07,-1336.92 2248.12,-567.86 2250.17,-541.052 2252.23,-566.514 2254.28,-568.237 2256.33,-614.052 2258.38,-423.554 2260.44,-468.697 2262.49,-520.787 2264.54,-622.262 2266.6,-177.458 2268.65,-906.253 2270.7,-678.41 2272.75,-576.832 2274.81,-572.252 2276.86,123.632 2278.91,31.2804 2280.97,100.863 2283.02,-38.6055 2285.07,-80.6837 2287.12,-55.9293 2289.18,-14.5226 2291.23,59.3358 "/>
<path clip-path="url(#clip440)" d="M251.33 172.231 L548.024 172.231 L548.024 68.5509 L251.33 68.5509  Z" fill="#ffffff" fill-rule="evenodd" fill-opacity="1"/>
<polyline clip-path="url(#clip440)" style="stroke:#000000; stroke-linecap:round; stroke-linejoin:round; stroke-width:4; stroke-opacity:1; fill:none" points="251.33,172.231 548.024,172.231 548.024,68.5509 251.33,68.5509 251.33,172.231 "/>
<polyline clip-path="url(#clip440)" style="stroke:#009af9; stroke-linecap:round; stroke-linejoin:round; stroke-width:4; stroke-opacity:1; fill:none" points="275.484,120.391 420.41,120.391 "/>
<path clip-path="url(#clip440)" d="M444.564 103.111 L449.24 103.111 L449.24 133.736 L466.069 133.736 L466.069 137.671 L444.564 137.671 L444.564 103.111 Z" fill="#000000" fill-rule="nonzero" fill-opacity="1" /><path clip-path="url(#clip440)" d="M491.694 104.245 L491.694 108.805 Q489.032 107.532 486.67 106.907 Q484.309 106.282 482.11 106.282 Q478.291 106.282 476.208 107.764 Q474.147 109.245 474.147 111.977 Q474.147 114.268 475.513 115.449 Q476.902 116.606 480.745 117.324 L483.569 117.902 Q488.8 118.898 491.277 121.421 Q493.777 123.921 493.777 128.134 Q493.777 133.157 490.397 135.75 Q487.041 138.342 480.536 138.342 Q478.083 138.342 475.305 137.787 Q472.55 137.231 469.587 136.143 L469.587 131.328 Q472.434 132.926 475.166 133.736 Q477.897 134.546 480.536 134.546 Q484.541 134.546 486.717 132.972 Q488.893 131.398 488.893 128.481 Q488.893 125.935 487.319 124.5 Q485.768 123.064 482.203 122.347 L479.356 121.791 Q474.124 120.75 471.786 118.527 Q469.448 116.305 469.448 112.347 Q469.448 107.764 472.666 105.125 Q475.907 102.486 481.578 102.486 Q484.008 102.486 486.532 102.926 Q489.055 103.366 491.694 104.245 Z" fill="#000000" fill-rule="nonzero" fill-opacity="1" /><path clip-path="url(#clip440)" d="M521.786 104.245 L521.786 108.805 Q519.124 107.532 516.763 106.907 Q514.402 106.282 512.203 106.282 Q508.383 106.282 506.3 107.764 Q504.24 109.245 504.24 111.977 Q504.24 114.268 505.606 115.449 Q506.994 116.606 510.837 117.324 L513.661 117.902 Q518.893 118.898 521.369 121.421 Q523.869 123.921 523.869 128.134 Q523.869 133.157 520.49 135.75 Q517.133 138.342 510.629 138.342 Q508.175 138.342 505.397 137.787 Q502.643 137.231 499.68 136.143 L499.68 131.328 Q502.527 132.926 505.258 133.736 Q507.99 134.546 510.629 134.546 Q514.633 134.546 516.809 132.972 Q518.985 131.398 518.985 128.481 Q518.985 125.935 517.411 124.5 Q515.86 123.064 512.295 122.347 L509.448 121.791 Q504.217 120.75 501.879 118.527 Q499.541 116.305 499.541 112.347 Q499.541 107.764 502.758 105.125 Q505.999 102.486 511.67 102.486 Q514.101 102.486 516.624 102.926 Q519.147 103.366 521.786 104.245 Z" fill="#000000" fill-rule="nonzero" fill-opacity="1" /><path clip-path="url(#clip440)" d="M178.867 1486.45 L2352.76 1486.45 L2352.76 847.244 L178.867 847.244  Z" fill="#ffffff" fill-rule="evenodd" fill-opacity="1"/>
<defs>
  <clipPath id="clip443">
    <rect x="178" y="847" width="2175" height="640"/>
  </clipPath>
</defs>
<polyline clip-path="url(#clip443)" style="stroke:#000000; stroke-linecap:round; stroke-linejoin:round; stroke-width:2; stroke-opacity:0.1; fill:none" points="238.339,1486.45 238.339,847.244 "/>
<polyline clip-path="url(#clip443)" style="stroke:#000000; stroke-linecap:round; stroke-linejoin:round; stroke-width:2; stroke-opacity:0.1; fill:none" points="751.562,1486.45 751.562,847.244 "/>
<polyline clip-path="url(#clip443)" style="stroke:#000000; stroke-linecap:round; stroke-linejoin:round; stroke-width:2; stroke-opacity:0.1; fill:none" points="1264.78,1486.45 1264.78,847.244 "/>
<polyline clip-path="url(#clip443)" style="stroke:#000000; stroke-linecap:round; stroke-linejoin:round; stroke-width:2; stroke-opacity:0.1; fill:none" points="1778.01,1486.45 1778.01,847.244 "/>
<polyline clip-path="url(#clip443)" style="stroke:#000000; stroke-linecap:round; stroke-linejoin:round; stroke-width:2; stroke-opacity:0.1; fill:none" points="2291.23,1486.45 2291.23,847.244 "/>
<polyline clip-path="url(#clip443)" style="stroke:#000000; stroke-linecap:round; stroke-linejoin:round; stroke-width:2; stroke-opacity:0.1; fill:none" points="178.867,1486.45 2352.76,1486.45 "/>
<polyline clip-path="url(#clip443)" style="stroke:#000000; stroke-linecap:round; stroke-linejoin:round; stroke-width:2; stroke-opacity:0.1; fill:none" points="178.867,1326.65 2352.76,1326.65 "/>
<polyline clip-path="url(#clip443)" style="stroke:#000000; stroke-linecap:round; stroke-linejoin:round; stroke-width:2; stroke-opacity:0.1; fill:none" points="178.867,1166.85 2352.76,1166.85 "/>
<polyline clip-path="url(#clip443)" style="stroke:#000000; stroke-linecap:round; stroke-linejoin:round; stroke-width:2; stroke-opacity:0.1; fill:none" points="178.867,1007.05 2352.76,1007.05 "/>
<polyline clip-path="url(#clip443)" style="stroke:#000000; stroke-linecap:round; stroke-linejoin:round; stroke-width:2; stroke-opacity:0.1; fill:none" points="178.867,847.244 2352.76,847.244 "/>
<polyline clip-path="url(#clip440)" style="stroke:#000000; stroke-linecap:round; stroke-linejoin:round; stroke-width:4; stroke-opacity:1; fill:none" points="178.867,1486.45 2352.76,1486.45 "/>
<polyline clip-path="url(#clip440)" style="stroke:#000000; stroke-linecap:round; stroke-linejoin:round; stroke-width:4; stroke-opacity:1; fill:none" points="238.339,1486.45 238.339,1467.55 "/>
<polyline clip-path="url(#clip440)" style="stroke:#000000; stroke-linecap:round; stroke-linejoin:round; stroke-width:4; stroke-opacity:1; fill:none" points="751.562,1486.45 751.562,1467.55 "/>
<polyline clip-path="url(#clip440)" style="stroke:#000000; stroke-linecap:round; stroke-linejoin:round; stroke-width:4; stroke-opacity:1; fill:none" points="1264.78,1486.45 1264.78,1467.55 "/>
<polyline clip-path="url(#clip440)" style="stroke:#000000; stroke-linecap:round; stroke-linejoin:round; stroke-width:4; stroke-opacity:1; fill:none" points="1778.01,1486.45 1778.01,1467.55 "/>
<polyline clip-path="url(#clip440)" style="stroke:#000000; stroke-linecap:round; stroke-linejoin:round; stroke-width:4; stroke-opacity:1; fill:none" points="2291.23,1486.45 2291.23,1467.55 "/>
<path clip-path="url(#clip440)" d="M238.339 1517.37 Q234.728 1517.37 232.899 1520.93 Q231.094 1524.47 231.094 1531.6 Q231.094 1538.71 232.899 1542.27 Q234.728 1545.82 238.339 1545.82 Q241.973 1545.82 243.779 1542.27 Q245.607 1538.71 245.607 1531.6 Q245.607 1524.47 243.779 1520.93 Q241.973 1517.37 238.339 1517.37 M238.339 1513.66 Q244.149 1513.66 247.205 1518.27 Q250.283 1522.85 250.283 1531.6 Q250.283 1540.33 247.205 1544.94 Q244.149 1549.52 238.339 1549.52 Q232.529 1549.52 229.45 1544.94 Q226.395 1540.33 226.395 1531.6 Q226.395 1522.85 229.45 1518.27 Q232.529 1513.66 238.339 1513.66 Z" fill="#000000" fill-rule="nonzero" fill-opacity="1" /><path clip-path="url(#clip440)" d="M715.254 1544.91 L731.574 1544.91 L731.574 1548.85 L709.629 1548.85 L709.629 1544.91 Q712.291 1542.16 716.875 1537.53 Q721.481 1532.88 722.662 1531.53 Q724.907 1529.01 725.787 1527.27 Q726.689 1525.51 726.689 1523.82 Q726.689 1521.07 724.745 1519.33 Q722.824 1517.6 719.722 1517.6 Q717.523 1517.6 715.069 1518.36 Q712.638 1519.13 709.861 1520.68 L709.861 1515.95 Q712.685 1514.82 715.138 1514.24 Q717.592 1513.66 719.629 1513.66 Q725 1513.66 728.194 1516.35 Q731.388 1519.03 731.388 1523.52 Q731.388 1525.65 730.578 1527.57 Q729.791 1529.47 727.685 1532.07 Q727.106 1532.74 724.004 1535.95 Q720.902 1539.15 715.254 1544.91 Z" fill="#000000" fill-rule="nonzero" fill-opacity="1" /><path clip-path="url(#clip440)" d="M741.435 1514.29 L759.791 1514.29 L759.791 1518.22 L745.717 1518.22 L745.717 1526.7 Q746.736 1526.35 747.754 1526.19 Q748.773 1526 749.791 1526 Q755.578 1526 758.958 1529.17 Q762.337 1532.34 762.337 1537.76 Q762.337 1543.34 758.865 1546.44 Q755.393 1549.52 749.073 1549.52 Q746.898 1549.52 744.629 1549.15 Q742.384 1548.78 739.976 1548.04 L739.976 1543.34 Q742.06 1544.47 744.282 1545.03 Q746.504 1545.58 748.981 1545.58 Q752.985 1545.58 755.323 1543.48 Q757.661 1541.37 757.661 1537.76 Q757.661 1534.15 755.323 1532.04 Q752.985 1529.94 748.981 1529.94 Q747.106 1529.94 745.231 1530.35 Q743.379 1530.77 741.435 1531.65 L741.435 1514.29 Z" fill="#000000" fill-rule="nonzero" fill-opacity="1" /><path clip-path="url(#clip440)" d="M781.55 1517.37 Q777.939 1517.37 776.11 1520.93 Q774.305 1524.47 774.305 1531.6 Q774.305 1538.71 776.11 1542.27 Q777.939 1545.82 781.55 1545.82 Q785.184 1545.82 786.99 1542.27 Q788.819 1538.71 788.819 1531.6 Q788.819 1524.47 786.99 1520.93 Q785.184 1517.37 781.55 1517.37 M781.55 1513.66 Q787.36 1513.66 790.416 1518.27 Q793.495 1522.85 793.495 1531.6 Q793.495 1540.33 790.416 1544.94 Q787.36 1549.52 781.55 1549.52 Q775.74 1549.52 772.661 1544.94 Q769.606 1540.33 769.606 1531.6 Q769.606 1522.85 772.661 1518.27 Q775.74 1513.66 781.55 1513.66 Z" fill="#000000" fill-rule="nonzero" fill-opacity="1" /><path clip-path="url(#clip440)" d="M1224.4 1514.29 L1242.76 1514.29 L1242.76 1518.22 L1228.69 1518.22 L1228.69 1526.7 Q1229.7 1526.35 1230.72 1526.19 Q1231.74 1526 1232.76 1526 Q1238.55 1526 1241.93 1529.17 Q1245.31 1532.34 1245.31 1537.76 Q1245.31 1543.34 1241.83 1546.44 Q1238.36 1549.52 1232.04 1549.52 Q1229.87 1549.52 1227.6 1549.15 Q1225.35 1548.78 1222.94 1548.04 L1222.94 1543.34 Q1225.03 1544.47 1227.25 1545.03 Q1229.47 1545.58 1231.95 1545.58 Q1235.95 1545.58 1238.29 1543.48 Q1240.63 1541.37 1240.63 1537.76 Q1240.63 1534.15 1238.29 1532.04 Q1235.95 1529.94 1231.95 1529.94 Q1230.07 1529.94 1228.2 1530.35 Q1226.35 1530.77 1224.4 1531.65 L1224.4 1514.29 Z" fill="#000000" fill-rule="nonzero" fill-opacity="1" /><path clip-path="url(#clip440)" d="M1264.52 1517.37 Q1260.91 1517.37 1259.08 1520.93 Q1257.27 1524.47 1257.27 1531.6 Q1257.27 1538.71 1259.08 1542.27 Q1260.91 1545.82 1264.52 1545.82 Q1268.15 1545.82 1269.96 1542.27 Q1271.79 1538.71 1271.79 1531.6 Q1271.79 1524.47 1269.96 1520.93 Q1268.15 1517.37 1264.52 1517.37 M1264.52 1513.66 Q1270.33 1513.66 1273.38 1518.27 Q1276.46 1522.85 1276.46 1531.6 Q1276.46 1540.33 1273.38 1544.94 Q1270.33 1549.52 1264.52 1549.52 Q1258.71 1549.52 1255.63 1544.94 Q1252.57 1540.33 1252.57 1531.6 Q1252.57 1522.85 1255.63 1518.27 Q1258.71 1513.66 1264.52 1513.66 Z" fill="#000000" fill-rule="nonzero" fill-opacity="1" /><path clip-path="url(#clip440)" d="M1294.68 1517.37 Q1291.07 1517.37 1289.24 1520.93 Q1287.44 1524.47 1287.44 1531.6 Q1287.44 1538.71 1289.24 1542.27 Q1291.07 1545.82 1294.68 1545.82 Q1298.31 1545.82 1300.12 1542.27 Q1301.95 1538.71 1301.95 1531.6 Q1301.95 1524.47 1300.12 1520.93 Q1298.31 1517.37 1294.68 1517.37 M1294.68 1513.66 Q1300.49 1513.66 1303.55 1518.27 Q1306.62 1522.85 1306.62 1531.6 Q1306.62 1540.33 1303.55 1544.94 Q1300.49 1549.52 1294.68 1549.52 Q1288.87 1549.52 1285.79 1544.94 Q1282.74 1540.33 1282.74 1531.6 Q1282.74 1522.85 1285.79 1518.27 Q1288.87 1513.66 1294.68 1513.66 Z" fill="#000000" fill-rule="nonzero" fill-opacity="1" /><path clip-path="url(#clip440)" d="M1736.28 1514.29 L1758.51 1514.29 L1758.51 1516.28 L1745.96 1548.85 L1741.08 1548.85 L1752.88 1518.22 L1736.28 1518.22 L1736.28 1514.29 Z" fill="#000000" fill-rule="nonzero" fill-opacity="1" /><path clip-path="url(#clip440)" d="M1767.67 1514.29 L1786.03 1514.29 L1786.03 1518.22 L1771.95 1518.22 L1771.95 1526.7 Q1772.97 1526.35 1773.99 1526.19 Q1775.01 1526 1776.03 1526 Q1781.82 1526 1785.2 1529.17 Q1788.57 1532.34 1788.57 1537.76 Q1788.57 1543.34 1785.1 1546.44 Q1781.63 1549.52 1775.31 1549.52 Q1773.14 1549.52 1770.87 1549.15 Q1768.62 1548.78 1766.21 1548.04 L1766.21 1543.34 Q1768.3 1544.47 1770.52 1545.03 Q1772.74 1545.58 1775.22 1545.58 Q1779.22 1545.58 1781.56 1543.48 Q1783.9 1541.37 1783.9 1537.76 Q1783.9 1534.15 1781.56 1532.04 Q1779.22 1529.94 1775.22 1529.94 Q1773.34 1529.94 1771.47 1530.35 Q1769.62 1530.77 1767.67 1531.65 L1767.67 1514.29 Z" fill="#000000" fill-rule="nonzero" fill-opacity="1" /><path clip-path="url(#clip440)" d="M1807.79 1517.37 Q1804.18 1517.37 1802.35 1520.93 Q1800.54 1524.47 1800.54 1531.6 Q1800.54 1538.71 1802.35 1542.27 Q1804.18 1545.82 1807.79 1545.82 Q1811.42 1545.82 1813.23 1542.27 Q1815.06 1538.71 1815.06 1531.6 Q1815.06 1524.47 1813.23 1520.93 Q1811.42 1517.37 1807.79 1517.37 M1807.79 1513.66 Q1813.6 1513.66 1816.65 1518.27 Q1819.73 1522.85 1819.73 1531.6 Q1819.73 1540.33 1816.65 1544.94 Q1813.6 1549.52 1807.79 1549.52 Q1801.98 1549.52 1798.9 1544.94 Q1795.84 1540.33 1795.84 1531.6 Q1795.84 1522.85 1798.9 1518.27 Q1801.98 1513.66 1807.79 1513.66 Z" fill="#000000" fill-rule="nonzero" fill-opacity="1" /><path clip-path="url(#clip440)" d="M2235.76 1544.91 L2243.4 1544.91 L2243.4 1518.55 L2235.09 1520.21 L2235.09 1515.95 L2243.35 1514.29 L2248.02 1514.29 L2248.02 1544.91 L2255.66 1544.91 L2255.66 1548.85 L2235.76 1548.85 L2235.76 1544.91 Z" fill="#000000" fill-rule="nonzero" fill-opacity="1" /><path clip-path="url(#clip440)" d="M2275.11 1517.37 Q2271.5 1517.37 2269.67 1520.93 Q2267.86 1524.47 2267.86 1531.6 Q2267.86 1538.71 2269.67 1542.27 Q2271.5 1545.82 2275.11 1545.82 Q2278.74 1545.82 2280.55 1542.27 Q2282.38 1538.71 2282.38 1531.6 Q2282.38 1524.47 2280.55 1520.93 Q2278.74 1517.37 2275.11 1517.37 M2275.11 1513.66 Q2280.92 1513.66 2283.97 1518.27 Q2287.05 1522.85 2287.05 1531.6 Q2287.05 1540.33 2283.97 1544.94 Q2280.92 1549.52 2275.11 1549.52 Q2269.3 1549.52 2266.22 1544.94 Q2263.16 1540.33 2263.16 1531.6 Q2263.16 1522.85 2266.22 1518.27 Q2269.3 1513.66 2275.11 1513.66 Z" fill="#000000" fill-rule="nonzero" fill-opacity="1" /><path clip-path="url(#clip440)" d="M2305.27 1517.37 Q2301.66 1517.37 2299.83 1520.93 Q2298.02 1524.47 2298.02 1531.6 Q2298.02 1538.71 2299.83 1542.27 Q2301.66 1545.82 2305.27 1545.82 Q2308.9 1545.82 2310.71 1542.27 Q2312.54 1538.71 2312.54 1531.6 Q2312.54 1524.47 2310.71 1520.93 Q2308.9 1517.37 2305.27 1517.37 M2305.27 1513.66 Q2311.08 1513.66 2314.14 1518.27 Q2317.21 1522.85 2317.21 1531.6 Q2317.21 1540.33 2314.14 1544.94 Q2311.08 1549.52 2305.27 1549.52 Q2299.46 1549.52 2296.38 1544.94 Q2293.33 1540.33 2293.33 1531.6 Q2293.33 1522.85 2296.38 1518.27 Q2299.46 1513.66 2305.27 1513.66 Z" fill="#000000" fill-rule="nonzero" fill-opacity="1" /><path clip-path="url(#clip440)" d="M2335.43 1517.37 Q2331.82 1517.37 2329.99 1520.93 Q2328.19 1524.47 2328.19 1531.6 Q2328.19 1538.71 2329.99 1542.27 Q2331.82 1545.82 2335.43 1545.82 Q2339.07 1545.82 2340.87 1542.27 Q2342.7 1538.71 2342.7 1531.6 Q2342.7 1524.47 2340.87 1520.93 Q2339.07 1517.37 2335.43 1517.37 M2335.43 1513.66 Q2341.24 1513.66 2344.3 1518.27 Q2347.38 1522.85 2347.38 1531.6 Q2347.38 1540.33 2344.3 1544.94 Q2341.24 1549.52 2335.43 1549.52 Q2329.62 1549.52 2326.54 1544.94 Q2323.49 1540.33 2323.49 1531.6 Q2323.49 1522.85 2326.54 1518.27 Q2329.62 1513.66 2335.43 1513.66 Z" fill="#000000" fill-rule="nonzero" fill-opacity="1" /><polyline clip-path="url(#clip440)" style="stroke:#000000; stroke-linecap:round; stroke-linejoin:round; stroke-width:4; stroke-opacity:1; fill:none" points="178.867,1486.45 178.867,847.244 "/>
<polyline clip-path="url(#clip440)" style="stroke:#000000; stroke-linecap:round; stroke-linejoin:round; stroke-width:4; stroke-opacity:1; fill:none" points="178.867,1486.45 197.764,1486.45 "/>
<polyline clip-path="url(#clip440)" style="stroke:#000000; stroke-linecap:round; stroke-linejoin:round; stroke-width:4; stroke-opacity:1; fill:none" points="178.867,1326.65 197.764,1326.65 "/>
<polyline clip-path="url(#clip440)" style="stroke:#000000; stroke-linecap:round; stroke-linejoin:round; stroke-width:4; stroke-opacity:1; fill:none" points="178.867,1166.85 197.764,1166.85 "/>
<polyline clip-path="url(#clip440)" style="stroke:#000000; stroke-linecap:round; stroke-linejoin:round; stroke-width:4; stroke-opacity:1; fill:none" points="178.867,1007.05 197.764,1007.05 "/>
<polyline clip-path="url(#clip440)" style="stroke:#000000; stroke-linecap:round; stroke-linejoin:round; stroke-width:4; stroke-opacity:1; fill:none" points="178.867,847.244 197.764,847.244 "/>
<path clip-path="url(#clip440)" d="M50.9921 1486.9 L80.6679 1486.9 L80.6679 1490.83 L50.9921 1490.83 L50.9921 1486.9 Z" fill="#000000" fill-rule="nonzero" fill-opacity="1" /><path clip-path="url(#clip440)" d="M91.5706 1499.79 L99.2095 1499.79 L99.2095 1473.43 L90.8993 1475.09 L90.8993 1470.83 L99.1632 1469.17 L103.839 1469.17 L103.839 1499.79 L111.478 1499.79 L111.478 1503.73 L91.5706 1503.73 L91.5706 1499.79 Z" fill="#000000" fill-rule="nonzero" fill-opacity="1" /><path clip-path="url(#clip440)" d="M130.922 1472.25 Q127.311 1472.25 125.482 1475.81 Q123.677 1479.35 123.677 1486.48 Q123.677 1493.59 125.482 1497.15 Q127.311 1500.7 130.922 1500.7 Q134.556 1500.7 136.362 1497.15 Q138.191 1493.59 138.191 1486.48 Q138.191 1479.35 136.362 1475.81 Q134.556 1472.25 130.922 1472.25 M130.922 1468.54 Q136.732 1468.54 139.788 1473.15 Q142.867 1477.73 142.867 1486.48 Q142.867 1495.21 139.788 1499.82 Q136.732 1504.4 130.922 1504.4 Q125.112 1504.4 122.033 1499.82 Q118.978 1495.21 118.978 1486.48 Q118.978 1477.73 122.033 1473.15 Q125.112 1468.54 130.922 1468.54 Z" fill="#000000" fill-rule="nonzero" fill-opacity="1" /><path clip-path="url(#clip440)" d="M82.1494 1327.1 L111.825 1327.1 L111.825 1331.03 L82.1494 1331.03 L82.1494 1327.1 Z" fill="#000000" fill-rule="nonzero" fill-opacity="1" /><path clip-path="url(#clip440)" d="M121.964 1309.37 L140.32 1309.37 L140.32 1313.3 L126.246 1313.3 L126.246 1321.77 Q127.265 1321.43 128.283 1321.27 Q129.302 1321.08 130.32 1321.08 Q136.107 1321.08 139.487 1324.25 Q142.867 1327.42 142.867 1332.84 Q142.867 1338.42 139.394 1341.52 Q135.922 1344.6 129.603 1344.6 Q127.427 1344.6 125.158 1344.23 Q122.913 1343.86 120.506 1343.12 L120.506 1338.42 Q122.589 1339.55 124.811 1340.11 Q127.033 1340.66 129.51 1340.66 Q133.515 1340.66 135.853 1338.56 Q138.191 1336.45 138.191 1332.84 Q138.191 1329.23 135.853 1327.12 Q133.515 1325.01 129.51 1325.01 Q127.635 1325.01 125.76 1325.43 Q123.908 1325.85 121.964 1326.73 L121.964 1309.37 Z" fill="#000000" fill-rule="nonzero" fill-opacity="1" /><path clip-path="url(#clip440)" d="M130.922 1152.64 Q127.311 1152.64 125.482 1156.21 Q123.677 1159.75 123.677 1166.88 Q123.677 1173.99 125.482 1177.55 Q127.311 1181.09 130.922 1181.09 Q134.556 1181.09 136.362 1177.55 Q138.191 1173.99 138.191 1166.88 Q138.191 1159.75 136.362 1156.21 Q134.556 1152.64 130.922 1152.64 M130.922 1148.94 Q136.732 1148.94 139.788 1153.55 Q142.867 1158.13 142.867 1166.88 Q142.867 1175.61 139.788 1180.21 Q136.732 1184.8 130.922 1184.8 Q125.112 1184.8 122.033 1180.21 Q118.978 1175.61 118.978 1166.88 Q118.978 1158.13 122.033 1153.55 Q125.112 1148.94 130.922 1148.94 Z" fill="#000000" fill-rule="nonzero" fill-opacity="1" /><path clip-path="url(#clip440)" d="M121.964 989.765 L140.32 989.765 L140.32 993.7 L126.246 993.7 L126.246 1002.17 Q127.265 1001.83 128.283 1001.66 Q129.302 1001.48 130.32 1001.48 Q136.107 1001.48 139.487 1004.65 Q142.867 1007.82 142.867 1013.24 Q142.867 1018.82 139.394 1021.92 Q135.922 1025 129.603 1025 Q127.427 1025 125.158 1024.63 Q122.913 1024.26 120.506 1023.51 L120.506 1018.82 Q122.589 1019.95 124.811 1020.51 Q127.033 1021.06 129.51 1021.06 Q133.515 1021.06 135.853 1018.95 Q138.191 1016.85 138.191 1013.24 Q138.191 1009.63 135.853 1007.52 Q133.515 1005.41 129.51 1005.41 Q127.635 1005.41 125.76 1005.83 Q123.908 1006.25 121.964 1007.13 L121.964 989.765 Z" fill="#000000" fill-rule="nonzero" fill-opacity="1" /><path clip-path="url(#clip440)" d="M91.5706 860.589 L99.2095 860.589 L99.2095 834.223 L90.8993 835.89 L90.8993 831.631 L99.1632 829.964 L103.839 829.964 L103.839 860.589 L111.478 860.589 L111.478 864.524 L91.5706 864.524 L91.5706 860.589 Z" fill="#000000" fill-rule="nonzero" fill-opacity="1" /><path clip-path="url(#clip440)" d="M130.922 833.043 Q127.311 833.043 125.482 836.608 Q123.677 840.149 123.677 847.279 Q123.677 854.385 125.482 857.95 Q127.311 861.492 130.922 861.492 Q134.556 861.492 136.362 857.95 Q138.191 854.385 138.191 847.279 Q138.191 840.149 136.362 836.608 Q134.556 833.043 130.922 833.043 M130.922 829.339 Q136.732 829.339 139.788 833.946 Q142.867 838.529 142.867 847.279 Q142.867 856.006 139.788 860.612 Q136.732 865.195 130.922 865.195 Q125.112 865.195 122.033 860.612 Q118.978 856.006 118.978 847.279 Q118.978 838.529 122.033 833.946 Q125.112 829.339 130.922 829.339 Z" fill="#000000" fill-rule="nonzero" fill-opacity="1" /><polyline clip-path="url(#clip443)" style="stroke:#009af9; stroke-linecap:round; stroke-linejoin:round; stroke-width:4; stroke-opacity:1; fill:none" points="240.392,1134.89 242.445,1222.62 244.498,1109.76 246.55,1172.4 248.603,1118.81 250.656,1212.5 252.709,1200.91 254.762,1139.86 256.815,1373.21 258.868,1120.89 260.921,1165.05 262.974,1171.65 265.027,1009.85 267.079,1088.47 269.132,975.149 271.185,1302.89 273.238,1254.05 275.291,1208.72 277.344,1201.62 279.397,1096.49 281.45,1258.01 283.503,1189.26 285.555,1096.68 287.608,1200.18 289.661,1149.53 291.714,1194.39 293.767,1129.97 295.82,1132.66 297.873,1111.75 299.926,1038.38 301.979,1278.85 304.031,1292.53 306.084,1206.55 308.137,1031.32 310.19,982.788 312.243,1175.47 314.296,1249.87 316.349,1128.44 318.402,1149.33 320.455,1307.68 322.507,1143.65 324.56,1151.77 326.613,1187.56 328.666,1251.09 330.719,1164.68 332.772,1168.96 334.825,1163.86 336.878,1182.78 338.931,1167.69 340.984,1103.05 343.036,1197.45 345.089,1172.89 347.142,1183.9 349.195,1210.93 351.248,1137.17 353.301,1171.15 355.354,1213.03 357.407,1106.83 359.46,1253.97 361.512,1223.19 363.565,1274.11 365.618,1193.95 367.671,1240.79 369.724,1158.5 371.777,1169.24 373.83,1171.04 375.883,1223.85 377.936,1252.65 379.988,1290.73 382.041,790.196 384.094,1138.58 386.147,1175.01 388.2,964.002 390.253,1436.82 392.306,1280.98 394.359,1698.63 396.412,903.514 398.464,1524.48 400.517,1174.13 402.57,1143.87 404.623,1256.51 406.676,1058.39 408.729,1154.11 410.782,1279.82 412.835,1141.15 414.888,1090.86 416.94,1178.91 418.993,1103.17 421.046,1112.14 423.099,1130.13 425.152,1177.84 427.205,1182.19 429.258,1163.44 431.311,1164.68 433.364,1117.98 435.417,1150.31 437.469,1134.7 439.522,1118.97 441.575,1179.99 443.628,1149.76 445.681,1144.23 447.734,1109.85 449.787,1088.43 451.84,1123.13 453.893,1127.95 455.945,1211.26 457.998,1163.52 460.051,1181.83 462.104,1192.34 464.157,1167.04 466.21,1139.82 468.263,1166.14 470.316,1167.07 472.369,1163.96 474.421,1150.45 476.474,1209.78 478.527,1233.71 480.58,1133.09 482.633,1187.52 484.686,1181.44 486.739,1162.77 488.792,1119.2 490.845,1160.78 492.897,1180.53 494.95,1186.65 497.003,1090.28 499.056,1226.36 501.109,1169.37 503.162,1177.04 505.215,1182.66 507.268,1247.49 509.321,1113.17 511.374,723.294 513.426,1741.76 515.479,1169.24 517.532,1160.17 519.585,1159.82 521.638,1145.89 523.691,1203.39 525.744,1097.73 527.797,1188.74 529.85,1158.2 531.902,1135.73 533.955,1160.52 536.008,1177.49 538.061,1189.14 540.114,1241.27 542.167,1144.05 544.22,1269.02 546.273,1304.38 548.326,767.141 550.378,1930.84 552.431,-14470.2 554.484,-3611.03 556.537,356.047 558.59,481.732 560.643,2089.65 562.696,-95.7162 564.749,1453.23 566.802,1314.99 568.854,1266.69 570.907,1122.35 572.96,1322.35 575.013,1892.83 577.066,1653.35 579.119,1508.45 581.172,1115.51 583.225,1178.34 585.278,1103.86 587.331,1117.71 589.383,1140.17 591.436,1215.98 593.489,1087.5 595.542,1221.66 597.595,1152.3 599.648,1205.15 601.701,1107.76 603.754,1415.65 605.807,370.839 607.859,1125.87 609.912,1160.09 611.965,1166.66 614.018,1103.49 616.071,1233.96 618.124,1085.37 620.177,1164.23 622.23,1180.48 624.283,1169.97 626.335,1082.99 628.388,1112.48 630.441,1209.25 632.494,1133.09 634.547,1182.32 636.6,1172.79 638.653,1147.72 640.706,1137.79 642.759,1151.54 644.811,1190.66 646.864,1157.79 648.917,1167.61 650.97,1194.07 653.023,1118.23 655.076,1123.17 657.129,1160.98 659.182,1173.37 661.235,1181.02 663.288,1181.83 665.34,1162.55 667.393,1155.47 669.446,1179.56 671.499,1162.01 673.552,1153.43 675.605,1150.36 677.658,1161.09 679.711,1167.05 681.764,1193.34 683.816,1200.81 685.869,1180.58 687.922,1109.6 689.975,1180.91 692.028,1162.65 694.081,1137.14 696.134,1144.57 698.187,1103.15 700.24,1061.36 702.292,1121.05 704.345,1243.48 706.398,1017.18 708.451,1161.65 710.504,1220.89 712.557,1189.95 714.61,1130.76 716.663,1144.94 718.716,850.783 720.768,744.436 722.821,1313.38 724.874,1138.19 726.927,851.198 728.98,1382.79 731.033,1094.2 733.086,1147.74 735.139,1204.97 737.192,1193.06 739.245,1186.08 741.297,1152.37 743.35,1163.24 745.403,1175.96 747.456,1173.94 749.509,1165.17 751.562,1163.16 753.615,1185.71 755.668,1127.94 757.721,1143.73 759.773,1135.56 761.826,1248.81 763.879,1144.44 765.932,1146.07 767.985,1211.09 770.038,1303.79 772.091,1169.98 774.144,1167.5 776.197,1174.07 778.249,1133.72 780.302,1167.43 782.355,1270.43 784.408,1141.18 786.461,1207.65 788.514,1149.95 790.567,1171.15 792.62,1192.25 794.673,1133.42 796.725,1168.09 798.778,1170.11 800.831,1180.94 802.884,1178.7 804.937,1144.19 806.99,1170.85 809.043,1135.31 811.096,1111.88 813.149,819.658 815.202,1983.09 817.254,1226.09 819.307,1087.54 821.36,1239.29 823.413,1243.66 825.466,1205.53 827.519,1177.63 829.572,1147.26 831.625,1202.18 833.678,1185.71 835.73,1147.93 837.783,1171.9 839.836,1172.49 841.889,1161.89 843.942,1150.26 845.995,1210.91 848.048,1159.66 850.101,1201.2 852.154,1096.65 854.206,1156.68 856.259,1205.02 858.312,1153.51 860.365,1133.54 862.418,1168.64 864.471,1171.03 866.524,728.482 868.577,1133.17 870.63,1651.09 872.682,656.949 874.735,1194.65 876.788,1155.29 878.841,1119.86 880.894,1148.76 882.947,1091.37 885,1076.16 887.053,1260.7 889.106,1148.51 891.159,1117.69 893.211,1212.9 895.264,1189.32 897.317,1006.42 899.37,1208.76 901.423,1203.05 903.476,1137.63 905.529,1154.41 907.582,1110.45 909.635,1092.92 911.687,1293.46 913.74,1469.77 915.793,1179.74 917.846,1183.14 919.899,1188.66 921.952,1176.18 924.005,1178.21 926.058,1165.16 928.111,1116.3 930.163,1163.58 932.216,1204.3 934.269,1263.41 936.322,1203.71 938.375,1255.87 940.428,1108.27 942.481,1132.94 944.534,1182.49 946.587,1196.72 948.639,1189.01 950.692,1173.58 952.745,1165.29 954.798,1164 956.851,1160.69 958.904,1184.87 960.957,1206.37 963.01,1186.68 965.063,1202.04 967.116,1134.01 969.168,1206.68 971.221,1179.47 973.274,1113.74 975.327,1128.37 977.38,1185.3 979.433,1118.69 981.486,1192.6 983.539,1108.09 985.592,1099.85 987.644,1303.93 989.697,1142.44 991.75,1245.51 993.803,1119.35 995.856,1003.39 997.909,859.993 999.962,1083.37 1002.01,1228.27 1004.07,1097.36 1006.12,1136.44 1008.17,1152.3 1010.23,1142.77 1012.28,1149.4 1014.33,1223.27 1016.38,1208.51 1018.44,1166.33 1020.49,1167.4 1022.54,1179.96 1024.6,1220.91 1026.65,1153.71 1028.7,1207.8 1030.76,1157.96 1032.81,1178.16 1034.86,1185.96 1036.91,1147.64 1038.97,1110.67 1041.02,1146.97 1043.07,1294.01 1045.13,1064.19 1047.18,1140.63 1049.23,1179.61 1051.28,1229.12 1053.34,1082.44 1055.39,1172.1 1057.44,1157.09 1059.5,1094.89 1061.55,1158.48 1063.6,1204.31 1065.65,1184.01 1067.71,1202.82 1069.76,1182.62 1071.81,1185.94 1073.87,1250.28 1075.92,1185.32 1077.97,1135.53 1080.02,1118.3 1082.08,1267.35 1084.13,1608.72 1086.18,1045.7 1088.24,1167.87 1090.29,1168.15 1092.34,1164.11 1094.39,1193.78 1096.45,1132.99 1098.5,1159.2 1100.55,1079.05 1102.61,1104.75 1104.66,1146.97 1106.71,1184.9 1108.77,1205.59 1110.82,1187.05 1112.87,1151.03 1114.92,1172.4 1116.98,1157.33 1119.03,1191.25 1121.08,1178.52 1123.14,1148.79 1125.19,1167.08 1127.24,1134.61 1129.29,1138.36 1131.35,1223.6 1133.4,1244.09 1135.45,1152.83 1137.51,1165.09 1139.56,1180.51 1141.61,1108.89 1143.66,1191.87 1145.72,1175.27 1147.77,1350.45 1149.82,1215.97 1151.88,1176.18 1153.93,1102.17 1155.98,1366.21 1158.03,1757.12 1160.09,1421.53 1162.14,1175.13 1164.19,884.244 1166.25,813.673 1168.3,-1144.15 1170.35,-3610.93 1172.4,2666.04 1174.46,2690.14 1176.51,1134.06 1178.56,939.781 1180.62,1410.52 1182.67,1136.48 1184.72,1150 1186.77,1176.28 1188.83,1183.77 1190.88,962.93 1192.93,1214.59 1194.99,1186.65 1197.04,1148.89 1199.09,1165.93 1201.15,1128.85 1203.2,1159.33 1205.25,1243.55 1207.3,1207.54 1209.36,1157.64 1211.41,1083.93 1213.46,1167.51 1215.52,1165.38 1217.57,1164.11 1219.62,1166.08 1221.67,1167.97 1223.73,1150.56 1225.78,1166.85 1227.83,1169.68 1229.89,1163.32 1231.94,1173.06 1233.99,1182.8 1236.04,1181.35 1238.1,1179.63 1240.15,1139.69 1242.2,1203.06 1244.26,1137.56 1246.31,1013.31 1248.36,1188.84 1250.41,1187.05 1252.47,1186.68 1254.52,1305.19 1256.57,985.623 1258.63,1197.95 1260.68,1191.09 1262.73,1194.68 1264.78,1085.87 1266.84,1353.55 1268.89,1143.26 1270.94,1179.26 1273,1215.32 1275.05,1172.09 1277.1,1192.61 1279.16,1181.32 1281.21,1164.58 1283.26,1158.6 1285.31,1169.58 1287.37,1131.2 1289.42,1134.12 1291.47,1242.39 1293.53,1181.37 1295.58,1162.05 1297.63,1219.91 1299.68,1134.95 1301.74,960.293 1303.79,813.42 1305.84,970.187 1307.9,1064.54 1309.95,1314.94 1312,662.586 1314.05,538.296 1316.11,176.979 1318.16,2666.67 1320.21,-211.401 1322.27,2814.05 1324.32,1889.23 1326.37,1651.12 1328.42,880.717 1330.48,1309.26 1332.53,1231.76 1334.58,1102.7 1336.64,1129.22 1338.69,1158.14 1340.74,1154.59 1342.79,1270.92 1344.85,1156.2 1346.9,1212.91 1348.95,1108.44 1351.01,1249.86 1353.06,1189.67 1355.11,1236.96 1357.16,1193.57 1359.22,1173.15 1361.27,1022.53 1363.32,1140.86 1365.38,1103.36 1367.43,1172.7 1369.48,1143.16 1371.54,1076.36 1373.59,1273.65 1375.64,1173.56 1377.69,1215.3 1379.75,1359.67 1381.8,965.267 1383.85,1381.94 1385.91,1106.23 1387.96,1206.43 1390.01,1190.2 1392.06,1127.98 1394.12,1179.43 1396.17,1199.74 1398.22,1141.81 1400.28,1136.98 1402.33,1232.15 1404.38,1105.87 1406.43,1090.63 1408.49,959.777 1410.54,971.389 1412.59,1197.45 1414.65,1144.23 1416.7,1131.98 1418.75,1248.81 1420.8,1199.04 1422.86,1119.82 1424.91,1216.43 1426.96,1271.17 1429.02,1091.93 1431.07,1133.29 1433.12,1142.78 1435.17,1174.42 1437.23,1228.18 1439.28,1196.63 1441.33,1329.61 1443.39,1174.86 1445.44,1269.88 1447.49,1185.5 1449.55,1169.29 1451.6,1150.93 1453.65,1115.97 1455.7,1287.17 1457.76,1003.03 1459.81,1202.38 1461.86,1284.16 1463.92,1206.01 1465.97,1236.56 1468.02,1172.04 1470.07,1130.38 1472.13,1092.38 1474.18,1097.45 1476.23,1124.13 1478.29,1291.12 1480.34,1164.09 1482.39,1214.66 1484.44,1150.12 1486.5,1189.78 1488.55,1182.3 1490.6,940.519 1492.66,1099.37 1494.71,1123.3 1496.76,1176.31 1498.81,1127.41 1500.87,1223.87 1502.92,1202.1 1504.97,1151.52 1507.03,1196.82 1509.08,1225.86 1511.13,1188.22 1513.18,1173.18 1515.24,1138.26 1517.29,1184.78 1519.34,1167.68 1521.4,1140.46 1523.45,1137.21 1525.5,1165.83 1527.55,1166.06 1529.61,1161.32 1531.66,1164.44 1533.71,1118.48 1535.77,1247.24 1537.82,1156.62 1539.87,1092.45 1541.93,1465.77 1543.98,925.856 1546.03,1526.1 1548.08,845.779 1550.14,1056.6 1552.19,1269.42 1554.24,1319.79 1556.3,1054.09 1558.35,1174.39 1560.4,1139.55 1562.45,1151.54 1564.51,1175.47 1566.56,1176.67 1568.61,1115.63 1570.67,1140.77 1572.72,1180.59 1574.77,1110.26 1576.82,1196.73 1578.88,982.444 1580.93,1381.95 1582.98,1233.72 1585.04,1125.45 1587.09,1173.4 1589.14,1104.97 1591.19,1212.88 1593.25,1538.83 1595.3,657.121 1597.35,1239.75 1599.41,1175.6 1601.46,1157.55 1603.51,1158.34 1605.56,1139.14 1607.62,1134.18 1609.67,1148.14 1611.72,1171.88 1613.78,1119.05 1615.83,1181.96 1617.88,1254.91 1619.94,1149.47 1621.99,1155.88 1624.04,1153.7 1626.09,1176.76 1628.15,1096.24 1630.2,1141.45 1632.25,1166.11 1634.31,1176.37 1636.36,1150.76 1638.41,1178.78 1640.46,1157.7 1642.52,1176.91 1644.57,1115.46 1646.62,1162.55 1648.68,1285.37 1650.73,1160.82 1652.78,1188.86 1654.83,1148.66 1656.89,1155.28 1658.94,1201.86 1660.99,1232.75 1663.05,1175.68 1665.1,1159.79 1667.15,1148.65 1669.2,1294.29 1671.26,1182.52 1673.31,1110.26 1675.36,1145.87 1677.42,1145.01 1679.47,1055.73 1681.52,1170.62 1683.57,1170.88 1685.63,1139.94 1687.68,1193.63 1689.73,1194.16 1691.79,1159.03 1693.84,1144.68 1695.89,1178.46 1697.94,1168.91 1700,1117.69 1702.05,1254.43 1704.1,1210.99 1706.16,1186.59 1708.21,1182.01 1710.26,1162.85 1712.32,1753.89 1714.37,741.151 1716.42,762.633 1718.47,1980.28 1720.53,1599.19 1722.58,492.151 1724.63,2071.38 1726.69,-286.185 1728.74,2233.64 1730.79,2582.05 1732.84,632.858 1734.9,1506.43 1736.95,1119.77 1739,1112.16 1741.06,1635.36 1743.11,1247.72 1745.16,1151.25 1747.21,1275.34 1749.27,1368 1751.32,1435.3 1753.37,1117.11 1755.43,1139.84 1757.48,1173.35 1759.53,1157.24 1761.58,1294.02 1763.64,901.52 1765.69,1485.44 1767.74,1213.84 1769.8,1206.11 1771.85,1146.07 1773.9,1349.03 1775.95,1168.45 1778.01,1158.76 1780.06,1172.18 1782.11,1144.35 1784.17,1176.21 1786.22,1201.21 1788.27,1179.14 1790.33,1187.34 1792.38,1201.46 1794.43,1213.35 1796.48,1263.99 1798.54,1179.25 1800.59,1162.78 1802.64,1170.6 1804.7,1165.08 1806.75,1131.08 1808.8,1142.18 1810.85,1221.63 1812.91,1208.27 1814.96,1224.2 1817.01,1172.66 1819.07,1141.38 1821.12,1187.03 1823.17,1140.53 1825.22,1218.55 1827.28,1164.05 1829.33,1181.63 1831.38,1145.65 1833.44,1143.38 1835.49,1305.41 1837.54,1133.56 1839.59,1164.25 1841.65,1194.94 1843.7,1132.55 1845.75,1164.94 1847.81,1163.02 1849.86,1153.29 1851.91,1175.49 1853.96,1249.6 1856.02,1121.05 1858.07,1207.73 1860.12,1223.43 1862.18,1189.51 1864.23,1211.68 1866.28,1186.12 1868.34,1133.01 1870.39,1143.92 1872.44,1228.03 1874.49,1260.13 1876.55,1184.94 1878.6,1147.76 1880.65,1046.43 1882.71,1269.32 1884.76,1100 1886.81,1067.23 1888.86,1172.92 1890.92,1127.48 1892.97,1102 1895.02,1179.97 1897.08,1173.18 1899.13,1161.09 1901.18,1196.43 1903.23,1111.22 1905.29,1207.11 1907.34,1157.77 1909.39,1175.72 1911.45,1159.52 1913.5,1171.39 1915.55,1164.48 1917.6,1185.95 1919.66,1085.71 1921.71,1010.26 1923.76,1096.18 1925.82,1220.34 1927.87,1183.17 1929.92,1163.74 1931.97,1152.14 1934.03,1175.86 1936.08,1165.39 1938.13,1169.55 1940.19,1114.3 1942.24,1148.18 1944.29,1229.95 1946.34,1184.82 1948.4,1139.83 1950.45,1111.38 1952.5,1158.1 1954.56,1223.58 1956.61,1231.29 1958.66,1188.11 1960.72,1172.33 1962.77,1150.21 1964.82,1080.7 1966.87,1176.45 1968.93,1116.35 1970.98,1159.24 1973.03,1199.12 1975.09,1077.93 1977.14,1226.22 1979.19,1166.98 1981.24,1166.07 1983.3,1161.04 1985.35,1169.49 1987.4,1146.55 1989.46,1104.14 1991.51,1241.06 1993.56,1353.99 1995.61,1165.58 1997.67,1159.33 1999.72,1222.41 2001.77,1149.38 2003.83,1173.66 2005.88,1159.85 2007.93,1170.35 2009.98,1178.64 2012.04,1184.37 2014.09,1157.41 2016.14,1167.52 2018.2,1169.29 2020.25,1162.02 2022.3,1071.66 2024.35,1173.38 2026.41,1164.08 2028.46,1153.24 2030.51,1176.64 2032.57,1178.39 2034.62,1151.04 2036.67,1182.5 2038.73,1154.91 2040.78,1187.25 2042.83,1041.23 2044.88,1225.59 2046.94,1169.3 2048.99,1164.99 2051.04,1230.97 2053.1,1213.7 2055.15,1208.87 2057.2,1191.45 2059.25,1224.43 2061.31,1061.8 2063.36,1200.06 2065.41,1260.6 2067.47,1151.98 2069.52,1012.68 2071.57,783.586 2073.62,1461.56 2075.68,1276.88 2077.73,1389.1 2079.78,1335.04 2081.84,1257.95 2083.89,1156.47 2085.94,1068.9 2087.99,1171.32 2090.05,1159.83 2092.1,1157.41 2094.15,1166.5 2096.21,1106.73 2098.26,1265.55 2100.31,1205.34 2102.36,1175.85 2104.42,1163.03 2106.47,1173.51 2108.52,1157.25 2110.58,1137.77 2112.63,1181.48 2114.68,1132.87 2116.73,1178.17 2118.79,1188.98 2120.84,1171.95 2122.89,1078.07 2124.95,964.288 2127,1217.33 2129.05,1153.49 2131.11,1167.77 2133.16,1162.92 2135.21,1112.57 2137.26,1100.28 2139.32,1162.12 2141.37,1309 2143.42,1203.67 2145.48,1123.29 2147.53,1187.01 2149.58,1209.48 2151.63,1128.27 2153.69,1145.56 2155.74,1273.02 2157.79,1198.59 2159.85,1220.65 2161.9,138.009 2163.95,2713.09 2166,160.776 2168.06,1364.52 2170.11,1104.69 2172.16,1301.68 2174.22,732.854 2176.27,1376.27 2178.32,449.253 2180.37,2288.33 2182.43,1009.02 2184.48,1326.52 2186.53,429.941 2188.59,1874.89 2190.64,274.615 2192.69,2013.09 2194.74,1231.36 2196.8,1128.78 2198.85,1137.36 2200.9,1230.74 2202.96,1058.48 2205.01,1525.84 2207.06,1841.81 2209.12,865.763 2211.17,1158.87 2213.22,1298.03 2215.27,1162.41 2217.33,1208.3 2219.38,1177.35 2221.43,1204.2 2223.49,1150.77 2225.54,1054.65 2227.59,1093.56 2229.64,1131.5 2231.7,1131.19 2233.75,1130.3 2235.8,1162.84 2237.86,1171.27 2239.91,1208.49 2241.96,1168.99 2244.01,1192.34 2246.07,1135.77 2248.12,1180.14 2250.17,1143.52 2252.23,1097.07 2254.28,1190.1 2256.33,1173.37 2258.38,1180.47 2260.44,1199.37 2262.49,1208.61 2264.54,1140.41 2266.6,1205.35 2268.65,1257.38 2270.7,1177.7 2272.75,1119.15 2274.81,1145.53 2276.86,1184.71 2278.91,1178.19 2280.97,1205.03 2283.02,1174.4 2285.07,1146.76 2287.12,1170.32 2289.18,1144.23 2291.23,1128.53 "/>
<path clip-path="url(#clip440)" d="M1942.7 972.231 L2280.29 972.231 L2280.29 868.551 L1942.7 868.551  Z" fill="#ffffff" fill-rule="evenodd" fill-opacity="1"/>
<polyline clip-path="url(#clip440)" style="stroke:#000000; stroke-linecap:round; stroke-linejoin:round; stroke-width:4; stroke-opacity:1; fill:none" points="1942.7,972.231 2280.29,972.231 2280.29,868.551 1942.7,868.551 1942.7,972.231 "/>
<polyline clip-path="url(#clip440)" style="stroke:#009af9; stroke-linecap:round; stroke-linejoin:round; stroke-width:4; stroke-opacity:1; fill:none" points="1966.85,920.391 2111.78,920.391 "/>
<path clip-path="url(#clip440)" d="M2161.49 932.74 L2161.49 923.458 L2153.85 923.458 L2153.85 919.615 L2166.12 919.615 L2166.12 934.453 Q2163.41 936.375 2160.14 937.37 Q2156.88 938.342 2153.18 938.342 Q2145.07 938.342 2140.49 933.62 Q2135.93 928.875 2135.93 920.426 Q2135.93 911.953 2140.49 907.231 Q2145.07 902.486 2153.18 902.486 Q2156.56 902.486 2159.59 903.319 Q2162.64 904.153 2165.21 905.773 L2165.21 910.75 Q2162.62 908.551 2159.7 907.44 Q2156.79 906.328 2153.57 906.328 Q2147.23 906.328 2144.03 909.87 Q2140.86 913.412 2140.86 920.426 Q2140.86 927.416 2144.03 930.958 Q2147.23 934.5 2153.57 934.5 Q2156.05 934.5 2157.99 934.083 Q2159.94 933.643 2161.49 932.74 Z" fill="#000000" fill-rule="nonzero" fill-opacity="1" /><path clip-path="url(#clip440)" d="M2179.33 906.953 L2179.33 919.94 L2185.21 919.94 Q2188.48 919.94 2190.26 918.25 Q2192.04 916.56 2192.04 913.435 Q2192.04 910.333 2190.26 908.643 Q2188.48 906.953 2185.21 906.953 L2179.33 906.953 M2174.66 903.111 L2185.21 903.111 Q2191.02 903.111 2193.99 905.75 Q2196.97 908.365 2196.97 913.435 Q2196.97 918.551 2193.99 921.166 Q2191.02 923.782 2185.21 923.782 L2179.33 923.782 L2179.33 937.671 L2174.66 937.671 L2174.66 903.111 Z" fill="#000000" fill-rule="nonzero" fill-opacity="1" /><path clip-path="url(#clip440)" d="M2223.96 904.245 L2223.96 908.805 Q2221.3 907.532 2218.94 906.907 Q2216.58 906.282 2214.38 906.282 Q2210.56 906.282 2208.48 907.764 Q2206.42 909.245 2206.42 911.977 Q2206.42 914.268 2207.78 915.449 Q2209.17 916.606 2213.01 917.324 L2215.84 917.902 Q2221.07 918.898 2223.55 921.421 Q2226.05 923.921 2226.05 928.134 Q2226.05 933.157 2222.67 935.75 Q2219.31 938.342 2212.81 938.342 Q2210.35 938.342 2207.57 937.787 Q2204.82 937.231 2201.86 936.143 L2201.86 931.328 Q2204.7 932.926 2207.44 933.736 Q2210.17 934.546 2212.81 934.546 Q2216.81 934.546 2218.99 932.972 Q2221.16 931.398 2221.16 928.481 Q2221.16 925.935 2219.59 924.5 Q2218.04 923.064 2214.47 922.347 L2211.62 921.791 Q2206.39 920.75 2204.06 918.527 Q2201.72 916.305 2201.72 912.347 Q2201.72 907.764 2204.94 905.125 Q2208.18 902.486 2213.85 902.486 Q2216.28 902.486 2218.8 902.926 Q2221.32 903.366 2223.96 904.245 Z" fill="#000000" fill-rule="nonzero" fill-opacity="1" /><path clip-path="url(#clip440)" d="M2254.06 904.245 L2254.06 908.805 Q2251.39 907.532 2249.03 906.907 Q2246.67 906.282 2244.47 906.282 Q2240.65 906.282 2238.57 907.764 Q2236.51 909.245 2236.51 911.977 Q2236.51 914.268 2237.87 915.449 Q2239.26 916.606 2243.11 917.324 L2245.93 917.902 Q2251.16 918.898 2253.64 921.421 Q2256.14 923.921 2256.14 928.134 Q2256.14 933.157 2252.76 935.75 Q2249.4 938.342 2242.9 938.342 Q2240.44 938.342 2237.67 937.787 Q2234.91 937.231 2231.95 936.143 L2231.95 931.328 Q2234.8 932.926 2237.53 933.736 Q2240.26 934.546 2242.9 934.546 Q2246.9 934.546 2249.08 932.972 Q2251.25 931.398 2251.25 928.481 Q2251.25 925.935 2249.68 924.5 Q2248.13 923.064 2244.56 922.347 L2241.72 921.791 Q2236.49 920.75 2234.15 918.527 Q2231.81 916.305 2231.81 912.347 Q2231.81 907.764 2235.03 905.125 Q2238.27 902.486 2243.94 902.486 Q2246.37 902.486 2248.89 902.926 Q2251.42 903.366 2254.06 904.245 Z" fill="#000000" fill-rule="nonzero" fill-opacity="1" /></svg>
