<?xml version="1.0" encoding="utf-8"?>
<svg xmlns="http://www.w3.org/2000/svg" xmlns:xlink="http://www.w3.org/1999/xlink" width="600" height="400" viewBox="0 0 2400 1600">
<defs>
  <clipPath id="clip240">
    <rect x="0" y="0" width="2400" height="1600"/>
  </clipPath>
</defs>
<path clip-path="url(#clip240)" d="M0 1600 L2400 1600 L2400 0 L0 0  Z" fill="#ffffff" fill-rule="evenodd" fill-opacity="1"/>
<defs>
  <clipPath id="clip241">
    <rect x="212" y="47" width="2141" height="1377"/>
  </clipPath>
</defs>
<path clip-path="url(#clip240)" d="M178.867 686.448 L2352.76 686.448 L2352.76 47.2441 L178.867 47.2441  Z" fill="#ffffff" fill-rule="evenodd" fill-opacity="1"/>
<defs>
  <clipPath id="clip242">
    <rect x="178" y="47" width="2175" height="640"/>
  </clipPath>
</defs>
<polyline clip-path="url(#clip242)" style="stroke:#000000; stroke-linecap:round; stroke-linejoin:round; stroke-width:2; stroke-opacity:0.1; fill:none" points="238.339,686.448 238.339,47.2441 "/>
<polyline clip-path="url(#clip242)" style="stroke:#000000; stroke-linecap:round; stroke-linejoin:round; stroke-width:2; stroke-opacity:0.1; fill:none" points="751.562,686.448 751.562,47.2441 "/>
<polyline clip-path="url(#clip242)" style="stroke:#000000; stroke-linecap:round; stroke-linejoin:round; stroke-width:2; stroke-opacity:0.1; fill:none" points="1264.78,686.448 1264.78,47.2441 "/>
<polyline clip-path="url(#clip242)" style="stroke:#000000; stroke-linecap:round; stroke-linejoin:round; stroke-width:2; stroke-opacity:0.1; fill:none" points="1778.01,686.448 1778.01,47.2441 "/>
<polyline clip-path="url(#clip242)" style="stroke:#000000; stroke-linecap:round; stroke-linejoin:round; stroke-width:2; stroke-opacity:0.1; fill:none" points="2291.23,686.448 2291.23,47.2441 "/>
<polyline clip-path="url(#clip242)" style="stroke:#000000; stroke-linecap:round; stroke-linejoin:round; stroke-width:2; stroke-opacity:0.1; fill:none" points="178.867,686.448 2352.76,686.448 "/>
<polyline clip-path="url(#clip242)" style="stroke:#000000; stroke-linecap:round; stroke-linejoin:round; stroke-width:2; stroke-opacity:0.1; fill:none" points="178.867,526.647 2352.76,526.647 "/>
<polyline clip-path="url(#clip242)" style="stroke:#000000; stroke-linecap:round; stroke-linejoin:round; stroke-width:2; stroke-opacity:0.1; fill:none" points="178.867,366.846 2352.76,366.846 "/>
<polyline clip-path="url(#clip242)" style="stroke:#000000; stroke-linecap:round; stroke-linejoin:round; stroke-width:2; stroke-opacity:0.1; fill:none" points="178.867,207.045 2352.76,207.045 "/>
<polyline clip-path="url(#clip242)" style="stroke:#000000; stroke-linecap:round; stroke-linejoin:round; stroke-width:2; stroke-opacity:0.1; fill:none" points="178.867,47.2441 2352.76,47.2441 "/>
<polyline clip-path="url(#clip240)" style="stroke:#000000; stroke-linecap:round; stroke-linejoin:round; stroke-width:4; stroke-opacity:1; fill:none" points="178.867,686.448 2352.76,686.448 "/>
<polyline clip-path="url(#clip240)" style="stroke:#000000; stroke-linecap:round; stroke-linejoin:round; stroke-width:4; stroke-opacity:1; fill:none" points="238.339,686.448 238.339,667.55 "/>
<polyline clip-path="url(#clip240)" style="stroke:#000000; stroke-linecap:round; stroke-linejoin:round; stroke-width:4; stroke-opacity:1; fill:none" points="751.562,686.448 751.562,667.55 "/>
<polyline clip-path="url(#clip240)" style="stroke:#000000; stroke-linecap:round; stroke-linejoin:round; stroke-width:4; stroke-opacity:1; fill:none" points="1264.78,686.448 1264.78,667.55 "/>
<polyline clip-path="url(#clip240)" style="stroke:#000000; stroke-linecap:round; stroke-linejoin:round; stroke-width:4; stroke-opacity:1; fill:none" points="1778.01,686.448 1778.01,667.55 "/>
<polyline clip-path="url(#clip240)" style="stroke:#000000; stroke-linecap:round; stroke-linejoin:round; stroke-width:4; stroke-opacity:1; fill:none" points="2291.23,686.448 2291.23,667.55 "/>
<path clip-path="url(#clip240)" d="M238.339 717.367 Q234.728 717.367 232.899 720.931 Q231.094 724.473 231.094 731.603 Q231.094 738.709 232.899 742.274 Q234.728 745.815 238.339 745.815 Q241.973 745.815 243.779 742.274 Q245.607 738.709 245.607 731.603 Q245.607 724.473 243.779 720.931 Q241.973 717.367 238.339 717.367 M238.339 713.663 Q244.149 713.663 247.205 718.269 Q250.283 722.853 250.283 731.603 Q250.283 740.329 247.205 744.936 Q244.149 749.519 238.339 749.519 Q232.529 749.519 229.45 744.936 Q226.395 740.329 226.395 731.603 Q226.395 722.853 229.45 718.269 Q232.529 713.663 238.339 713.663 Z" fill="#000000" fill-rule="nonzero" fill-opacity="1" /><path clip-path="url(#clip240)" d="M715.254 744.913 L731.574 744.913 L731.574 748.848 L709.629 748.848 L709.629 744.913 Q712.291 742.158 716.875 737.528 Q721.481 732.876 722.662 731.533 Q724.907 729.01 725.787 727.274 Q726.689 725.515 726.689 723.825 Q726.689 721.07 724.745 719.334 Q722.824 717.598 719.722 717.598 Q717.523 717.598 715.069 718.362 Q712.638 719.126 709.861 720.677 L709.861 715.955 Q712.685 714.82 715.138 714.242 Q717.592 713.663 719.629 713.663 Q725 713.663 728.194 716.348 Q731.388 719.033 731.388 723.524 Q731.388 725.654 730.578 727.575 Q729.791 729.473 727.685 732.066 Q727.106 732.737 724.004 735.954 Q720.902 739.149 715.254 744.913 Z" fill="#000000" fill-rule="nonzero" fill-opacity="1" /><path clip-path="url(#clip240)" d="M741.435 714.288 L759.791 714.288 L759.791 718.223 L745.717 718.223 L745.717 726.695 Q746.736 726.348 747.754 726.186 Q748.773 726.001 749.791 726.001 Q755.578 726.001 758.958 729.172 Q762.337 732.343 762.337 737.76 Q762.337 743.339 758.865 746.44 Q755.393 749.519 749.073 749.519 Q746.898 749.519 744.629 749.149 Q742.384 748.778 739.976 748.038 L739.976 743.339 Q742.06 744.473 744.282 745.028 Q746.504 745.584 748.981 745.584 Q752.985 745.584 755.323 743.478 Q757.661 741.371 757.661 737.76 Q757.661 734.149 755.323 732.042 Q752.985 729.936 748.981 729.936 Q747.106 729.936 745.231 730.353 Q743.379 730.769 741.435 731.649 L741.435 714.288 Z" fill="#000000" fill-rule="nonzero" fill-opacity="1" /><path clip-path="url(#clip240)" d="M781.55 717.367 Q777.939 717.367 776.11 720.931 Q774.305 724.473 774.305 731.603 Q774.305 738.709 776.11 742.274 Q777.939 745.815 781.55 745.815 Q785.184 745.815 786.99 742.274 Q788.819 738.709 788.819 731.603 Q788.819 724.473 786.99 720.931 Q785.184 717.367 781.55 717.367 M781.55 713.663 Q787.36 713.663 790.416 718.269 Q793.495 722.853 793.495 731.603 Q793.495 740.329 790.416 744.936 Q787.36 749.519 781.55 749.519 Q775.74 749.519 772.661 744.936 Q769.606 740.329 769.606 731.603 Q769.606 722.853 772.661 718.269 Q775.74 713.663 781.55 713.663 Z" fill="#000000" fill-rule="nonzero" fill-opacity="1" /><path clip-path="url(#clip240)" d="M1224.4 714.288 L1242.76 714.288 L1242.76 718.223 L1228.69 718.223 L1228.69 726.695 Q1229.7 726.348 1230.72 726.186 Q1231.74 726.001 1232.76 726.001 Q1238.55 726.001 1241.93 729.172 Q1245.31 732.343 1245.31 737.76 Q1245.31 743.339 1241.83 746.44 Q1238.36 749.519 1232.04 749.519 Q1229.87 749.519 1227.6 749.149 Q1225.35 748.778 1222.94 748.038 L1222.94 743.339 Q1225.03 744.473 1227.25 745.028 Q1229.47 745.584 1231.95 745.584 Q1235.95 745.584 1238.29 743.478 Q1240.63 741.371 1240.63 737.76 Q1240.63 734.149 1238.29 732.042 Q1235.95 729.936 1231.95 729.936 Q1230.07 729.936 1228.2 730.353 Q1226.35 730.769 1224.4 731.649 L1224.4 714.288 Z" fill="#000000" fill-rule="nonzero" fill-opacity="1" /><path clip-path="url(#clip240)" d="M1264.52 717.367 Q1260.91 717.367 1259.08 720.931 Q1257.27 724.473 1257.27 731.603 Q1257.27 738.709 1259.08 742.274 Q1260.91 745.815 1264.52 745.815 Q1268.15 745.815 1269.96 742.274 Q1271.79 738.709 1271.79 731.603 Q1271.79 724.473 1269.96 720.931 Q1268.15 717.367 1264.52 717.367 M1264.52 713.663 Q1270.33 713.663 1273.38 718.269 Q1276.46 722.853 1276.46 731.603 Q1276.46 740.329 1273.38 744.936 Q1270.33 749.519 1264.52 749.519 Q1258.71 749.519 1255.63 744.936 Q1252.57 740.329 1252.57 731.603 Q1252.57 722.853 1255.63 718.269 Q1258.71 713.663 1264.52 713.663 Z" fill="#000000" fill-rule="nonzero" fill-opacity="1" /><path clip-path="url(#clip240)" d="M1294.68 717.367 Q1291.07 717.367 1289.24 720.931 Q1287.44 724.473 1287.44 731.603 Q1287.44 738.709 1289.24 742.274 Q1291.07 745.815 1294.68 745.815 Q1298.31 745.815 1300.12 742.274 Q1301.95 738.709 1301.95 731.603 Q1301.95 724.473 1300.12 720.931 Q1298.31 717.367 1294.68 717.367 M1294.68 713.663 Q1300.49 713.663 1303.55 718.269 Q1306.62 722.853 1306.62 731.603 Q1306.62 740.329 1303.55 744.936 Q1300.49 749.519 1294.68 749.519 Q1288.87 749.519 1285.79 744.936 Q1282.74 740.329 1282.74 731.603 Q1282.74 722.853 1285.79 718.269 Q1288.87 713.663 1294.68 713.663 Z" fill="#000000" fill-rule="nonzero" fill-opacity="1" /><path clip-path="url(#clip240)" d="M1736.28 714.288 L1758.51 714.288 L1758.51 716.279 L1745.96 748.848 L1741.08 748.848 L1752.88 718.223 L1736.28 718.223 L1736.28 714.288 Z" fill="#000000" fill-rule="nonzero" fill-opacity="1" /><path clip-path="url(#clip240)" d="M1767.67 714.288 L1786.03 714.288 L1786.03 718.223 L1771.95 718.223 L1771.95 726.695 Q1772.97 726.348 1773.99 726.186 Q1775.01 726.001 1776.03 726.001 Q1781.82 726.001 1785.2 729.172 Q1788.57 732.343 1788.57 737.76 Q1788.57 743.339 1785.1 746.44 Q1781.63 749.519 1775.31 749.519 Q1773.14 749.519 1770.87 749.149 Q1768.62 748.778 1766.21 748.038 L1766.21 743.339 Q1768.3 744.473 1770.52 745.028 Q1772.74 745.584 1775.22 745.584 Q1779.22 745.584 1781.56 743.478 Q1783.9 741.371 1783.9 737.76 Q1783.9 734.149 1781.56 732.042 Q1779.22 729.936 1775.22 729.936 Q1773.34 729.936 1771.47 730.353 Q1769.62 730.769 1767.67 731.649 L1767.67 714.288 Z" fill="#000000" fill-rule="nonzero" fill-opacity="1" /><path clip-path="url(#clip240)" d="M1807.79 717.367 Q1804.18 717.367 1802.35 720.931 Q1800.54 724.473 1800.54 731.603 Q1800.54 738.709 1802.35 742.274 Q1804.18 745.815 1807.79 745.815 Q1811.42 745.815 1813.23 742.274 Q1815.06 738.709 1815.06 731.603 Q1815.06 724.473 1813.23 720.931 Q1811.42 717.367 1807.79 717.367 M1807.79 713.663 Q1813.6 713.663 1816.65 718.269 Q1819.73 722.853 1819.73 731.603 Q1819.73 740.329 1816.65 744.936 Q1813.6 749.519 1807.79 749.519 Q1801.98 749.519 1798.9 744.936 Q1795.84 740.329 1795.84 731.603 Q1795.84 722.853 1798.9 718.269 Q1801.98 713.663 1807.79 713.663 Z" fill="#000000" fill-rule="nonzero" fill-opacity="1" /><path clip-path="url(#clip240)" d="M2235.76 744.913 L2243.4 744.913 L2243.4 718.547 L2235.09 720.214 L2235.09 715.955 L2243.35 714.288 L2248.02 714.288 L2248.02 744.913 L2255.66 744.913 L2255.66 748.848 L2235.76 748.848 L2235.76 744.913 Z" fill="#000000" fill-rule="nonzero" fill-opacity="1" /><path clip-path="url(#clip240)" d="M2275.11 717.367 Q2271.5 717.367 2269.67 720.931 Q2267.86 724.473 2267.86 731.603 Q2267.86 738.709 2269.67 742.274 Q2271.5 745.815 2275.11 745.815 Q2278.74 745.815 2280.55 742.274 Q2282.38 738.709 2282.38 731.603 Q2282.38 724.473 2280.55 720.931 Q2278.74 717.367 2275.11 717.367 M2275.11 713.663 Q2280.92 713.663 2283.97 718.269 Q2287.05 722.853 2287.05 731.603 Q2287.05 740.329 2283.97 744.936 Q2280.92 749.519 2275.11 749.519 Q2269.3 749.519 2266.22 744.936 Q2263.16 740.329 2263.16 731.603 Q2263.16 722.853 2266.22 718.269 Q2269.3 713.663 2275.11 713.663 Z" fill="#000000" fill-rule="nonzero" fill-opacity="1" /><path clip-path="url(#clip240)" d="M2305.27 717.367 Q2301.66 717.367 2299.83 720.931 Q2298.02 724.473 2298.02 731.603 Q2298.02 738.709 2299.83 742.274 Q2301.66 745.815 2305.27 745.815 Q2308.9 745.815 2310.71 742.274 Q2312.54 738.709 2312.54 731.603 Q2312.54 724.473 2310.71 720.931 Q2308.9 717.367 2305.27 717.367 M2305.27 713.663 Q2311.08 713.663 2314.14 718.269 Q2317.21 722.853 2317.21 731.603 Q2317.21 740.329 2314.14 744.936 Q2311.08 749.519 2305.27 749.519 Q2299.46 749.519 2296.38 744.936 Q2293.33 740.329 2293.33 731.603 Q2293.33 722.853 2296.38 718.269 Q2299.46 713.663 2305.27 713.663 Z" fill="#000000" fill-rule="nonzero" fill-opacity="1" /><path clip-path="url(#clip240)" d="M2335.43 717.367 Q2331.82 717.367 2329.99 720.931 Q2328.19 724.473 2328.19 731.603 Q2328.19 738.709 2329.99 742.274 Q2331.82 745.815 2335.43 745.815 Q2339.07 745.815 2340.87 742.274 Q2342.7 738.709 2342.7 731.603 Q2342.7 724.473 2340.87 720.931 Q2339.07 717.367 2335.43 717.367 M2335.43 713.663 Q2341.24 713.663 2344.3 718.269 Q2347.38 722.853 2347.38 731.603 Q2347.38 740.329 2344.3 744.936 Q2341.24 749.519 2335.43 749.519 Q2329.62 749.519 2326.54 744.936 Q2323.49 740.329 2323.49 731.603 Q2323.49 722.853 2326.54 718.269 Q2329.62 713.663 2335.43 713.663 Z" fill="#000000" fill-rule="nonzero" fill-opacity="1" /><polyline clip-path="url(#clip240)" style="stroke:#000000; stroke-linecap:round; stroke-linejoin:round; stroke-width:4; stroke-opacity:1; fill:none" points="178.867,686.448 178.867,47.2441 "/>
<polyline clip-path="url(#clip240)" style="stroke:#000000; stroke-linecap:round; stroke-linejoin:round; stroke-width:4; stroke-opacity:1; fill:none" points="178.867,686.448 197.764,686.448 "/>
<polyline clip-path="url(#clip240)" style="stroke:#000000; stroke-linecap:round; stroke-linejoin:round; stroke-width:4; stroke-opacity:1; fill:none" points="178.867,526.647 197.764,526.647 "/>
<polyline clip-path="url(#clip240)" style="stroke:#000000; stroke-linecap:round; stroke-linejoin:round; stroke-width:4; stroke-opacity:1; fill:none" points="178.867,366.846 197.764,366.846 "/>
<polyline clip-path="url(#clip240)" style="stroke:#000000; stroke-linecap:round; stroke-linejoin:round; stroke-width:4; stroke-opacity:1; fill:none" points="178.867,207.045 197.764,207.045 "/>
<polyline clip-path="url(#clip240)" style="stroke:#000000; stroke-linecap:round; stroke-linejoin:round; stroke-width:4; stroke-opacity:1; fill:none" points="178.867,47.2441 197.764,47.2441 "/>
<path clip-path="url(#clip240)" d="M50.9921 686.899 L80.6679 686.899 L80.6679 690.834 L50.9921 690.834 L50.9921 686.899 Z" fill="#000000" fill-rule="nonzero" fill-opacity="1" /><path clip-path="url(#clip240)" d="M91.5706 699.793 L99.2095 699.793 L99.2095 673.427 L90.8993 675.094 L90.8993 670.835 L99.1632 669.168 L103.839 669.168 L103.839 699.793 L111.478 699.793 L111.478 703.728 L91.5706 703.728 L91.5706 699.793 Z" fill="#000000" fill-rule="nonzero" fill-opacity="1" /><path clip-path="url(#clip240)" d="M130.922 672.247 Q127.311 672.247 125.482 675.811 Q123.677 679.353 123.677 686.483 Q123.677 693.589 125.482 697.154 Q127.311 700.695 130.922 700.695 Q134.556 700.695 136.362 697.154 Q138.191 693.589 138.191 686.483 Q138.191 679.353 136.362 675.811 Q134.556 672.247 130.922 672.247 M130.922 668.543 Q136.732 668.543 139.788 673.149 Q142.867 677.733 142.867 686.483 Q142.867 695.209 139.788 699.816 Q136.732 704.399 130.922 704.399 Q125.112 704.399 122.033 699.816 Q118.978 695.209 118.978 686.483 Q118.978 677.733 122.033 673.149 Q125.112 668.543 130.922 668.543 Z" fill="#000000" fill-rule="nonzero" fill-opacity="1" /><path clip-path="url(#clip240)" d="M82.1494 527.098 L111.825 527.098 L111.825 531.033 L82.1494 531.033 L82.1494 527.098 Z" fill="#000000" fill-rule="nonzero" fill-opacity="1" /><path clip-path="url(#clip240)" d="M121.964 509.367 L140.32 509.367 L140.32 513.302 L126.246 513.302 L126.246 521.774 Q127.265 521.427 128.283 521.265 Q129.302 521.08 130.32 521.08 Q136.107 521.08 139.487 524.251 Q142.867 527.422 142.867 532.839 Q142.867 538.418 139.394 541.52 Q135.922 544.598 129.603 544.598 Q127.427 544.598 125.158 544.228 Q122.913 543.857 120.506 543.117 L120.506 538.418 Q122.589 539.552 124.811 540.108 Q127.033 540.663 129.51 540.663 Q133.515 540.663 135.853 538.557 Q138.191 536.45 138.191 532.839 Q138.191 529.228 135.853 527.121 Q133.515 525.015 129.51 525.015 Q127.635 525.015 125.76 525.432 Q123.908 525.848 121.964 526.728 L121.964 509.367 Z" fill="#000000" fill-rule="nonzero" fill-opacity="1" /><path clip-path="url(#clip240)" d="M130.922 352.645 Q127.311 352.645 125.482 356.209 Q123.677 359.751 123.677 366.881 Q123.677 373.987 125.482 377.552 Q127.311 381.094 130.922 381.094 Q134.556 381.094 136.362 377.552 Q138.191 373.987 138.191 366.881 Q138.191 359.751 136.362 356.209 Q134.556 352.645 130.922 352.645 M130.922 348.941 Q136.732 348.941 139.788 353.547 Q142.867 358.131 142.867 366.881 Q142.867 375.608 139.788 380.214 Q136.732 384.797 130.922 384.797 Q125.112 384.797 122.033 380.214 Q118.978 375.608 118.978 366.881 Q118.978 358.131 122.033 353.547 Q125.112 348.941 130.922 348.941 Z" fill="#000000" fill-rule="nonzero" fill-opacity="1" /><path clip-path="url(#clip240)" d="M121.964 189.765 L140.32 189.765 L140.32 193.7 L126.246 193.7 L126.246 202.172 Q127.265 201.825 128.283 201.663 Q129.302 201.478 130.32 201.478 Q136.107 201.478 139.487 204.649 Q142.867 207.82 142.867 213.237 Q142.867 218.816 139.394 221.918 Q135.922 224.996 129.603 224.996 Q127.427 224.996 125.158 224.626 Q122.913 224.256 120.506 223.515 L120.506 218.816 Q122.589 219.95 124.811 220.506 Q127.033 221.061 129.51 221.061 Q133.515 221.061 135.853 218.955 Q138.191 216.848 138.191 213.237 Q138.191 209.626 135.853 207.52 Q133.515 205.413 129.51 205.413 Q127.635 205.413 125.76 205.83 Q123.908 206.246 121.964 207.126 L121.964 189.765 Z" fill="#000000" fill-rule="nonzero" fill-opacity="1" /><path clip-path="url(#clip240)" d="M91.5706 60.5889 L99.2095 60.5889 L99.2095 34.2233 L90.8993 35.89 L90.8993 31.6308 L99.1632 29.9641 L103.839 29.9641 L103.839 60.5889 L111.478 60.5889 L111.478 64.5241 L91.5706 64.5241 L91.5706 60.5889 Z" fill="#000000" fill-rule="nonzero" fill-opacity="1" /><path clip-path="url(#clip240)" d="M130.922 33.0428 Q127.311 33.0428 125.482 36.6076 Q123.677 40.1492 123.677 47.2788 Q123.677 54.3853 125.482 57.9501 Q127.311 61.4917 130.922 61.4917 Q134.556 61.4917 136.362 57.9501 Q138.191 54.3853 138.191 47.2788 Q138.191 40.1492 136.362 36.6076 Q134.556 33.0428 130.922 33.0428 M130.922 29.3391 Q136.732 29.3391 139.788 33.9456 Q142.867 38.5289 142.867 47.2788 Q142.867 56.0056 139.788 60.6121 Q136.732 65.1954 130.922 65.1954 Q125.112 65.1954 122.033 60.6121 Q118.978 56.0056 118.978 47.2788 Q118.978 38.5289 122.033 33.9456 Q125.112 29.3391 130.922 29.3391 Z" fill="#000000" fill-rule="nonzero" fill-opacity="1" /><polyline clip-path="url(#clip242)" style="stroke:#009af9; stroke-linecap:round; stroke-linejoin:round; stroke-width:4; stroke-opacity:1; fill:none" points="240.392,334.886 242.445,336.657 244.498,335.961 246.55,335.93 248.603,336.503 250.656,349.491 252.709,346.69 254.762,337.518 256.815,336.865 258.868,334.868 260.921,335.512 262.974,327.333 265.027,326.68 267.079,326.669 269.132,324.567 271.185,322.267 273.238,323.92 275.291,323.948 277.344,323.567 279.397,321.005 281.45,321.326 283.503,330.678 285.555,329.321 287.608,329.639 289.661,324.933 291.714,339.821 293.767,358.003 295.82,349.278 297.873,352.242 299.926,351.346 301.979,354.552 304.031,352.817 306.084,353.013 308.137,364.552 310.19,364.951 312.243,378.37 314.296,389.562 316.349,389.485 318.402,389.606 320.455,389.88 322.507,391.842 324.56,391.654 326.613,371.305 328.666,394.859 330.719,394.305 332.772,393.658 334.825,393.724 336.878,393.631 338.931,393.279 340.984,355.276 343.036,351.088 345.089,350.501 347.142,347.626 349.195,346.45 351.248,359.909 353.301,359.826 355.354,359.873 357.407,364.667 359.46,362.375 361.512,363.581 363.565,363.608 365.618,365.422 367.671,365.094 369.724,364.375 371.777,366.644 373.83,366.722 375.883,358.165 377.936,357.009 379.988,361.443 382.041,361.45 384.094,358.984 386.147,336.588 388.2,335.741 390.253,335.7 392.306,338.661 394.359,339.233 396.412,338.927 398.464,345.693 400.517,344.122 402.57,347.47 404.623,353.337 406.676,354.828 408.729,352.875 410.782,350.258 412.835,340.875 414.888,338.733 416.94,364.234 418.993,363.478 421.046,363.329 423.099,374.784 425.152,374.438 427.205,373.232 429.258,373.111 431.311,373.162 433.364,374.296 435.417,375.053 437.469,374.964 439.522,374.922 441.575,375.296 443.628,375.441 445.681,359.771 447.734,356.369 449.787,356.535 451.84,356.404 453.893,356.46 455.945,354.307 457.998,338.349 460.051,346.977 462.104,352.111 464.157,345.424 466.21,346.444 468.263,346.341 470.316,349.858 472.369,346.889 474.421,347.102 476.474,380.259 478.527,380.504 480.58,381.742 482.633,381.97 484.686,384.104 486.739,383.593 488.792,383.603 490.845,383.598 492.897,384.629 494.95,384.379 497.003,385.03 499.056,383.383 501.109,382.399 503.162,382.802 505.215,382.784 507.268,379.396 509.321,367.874 511.374,374.969 513.426,377.399 515.479,384.919 517.532,386.205 519.585,386.072 521.638,387.738 523.691,387.76 525.744,393.65 527.797,402.035 529.85,402.581 531.902,401.475 533.955,392.757 536.008,392.487 538.061,385.631 540.114,385.366 542.167,379.559 544.22,392.371 546.273,374.278 548.326,382.825 550.378,387.545 552.431,390.678 554.484,419.968 556.537,409.312 558.59,413.169 560.643,442.306 562.696,329.903 564.749,329.272 566.802,328.688 568.854,328.092 570.907,328.059 572.96,319.48 575.013,319.692 577.066,319.129 579.119,341.443 581.172,333.606 583.225,335.566 585.278,338.669 587.331,335.769 589.383,335.294 591.436,336.032 593.489,338.933 595.542,352.092 597.595,351.813 599.648,328.942 601.701,329.034 603.754,401.897 605.807,404.295 607.859,404.238 609.912,401.939 611.965,391.681 614.018,397.221 616.071,394.465 618.124,394.713 620.177,381.671 622.23,379.43 624.283,382.433 626.335,382.67 628.388,382.601 630.441,384.072 632.494,383.399 634.547,384.909 636.6,374.941 638.653,374.755 640.706,369.4 642.759,369.228 644.811,369.242 646.864,369.264 648.917,369.24 650.97,372.241 653.023,357.458 655.076,357.28 657.129,352.749 659.182,347.722 661.235,347.523 663.288,347.51 665.34,360.448 667.393,365.698 669.446,371.514 671.499,369.238 673.552,348.389 675.605,348.447 677.658,375.926 679.711,372.648 681.764,380.715 683.816,382.405 685.869,382.403 687.922,385.881 689.975,381.252 692.028,388.404 694.081,388.014 696.134,353.711 698.187,352.179 700.24,351.614 702.292,355.297 704.345,355.325 706.398,344.406 708.451,353.205 710.504,353.314 712.557,357.086 714.61,361.427 716.663,358.892 718.716,348.139 720.768,347.923 722.821,346.213 724.874,346.358 726.927,336.921 728.98,336.94 731.033,338.45 733.086,338.382 735.139,338.709 737.192,339.318 739.245,339.321 741.297,349.027 743.35,359.986 745.403,357.712 747.456,396.516 749.509,398.926 751.562,378.201 753.615,377.433 755.668,388.889 757.721,382.362 759.773,322.728 761.826,322.855 763.879,368.948 765.932,355.227 767.985,356.674 770.038,356.265 772.091,411.578 774.144,441.892 776.197,436.635 778.249,434.797 780.302,434.057 782.355,433.065 784.408,434.391 786.461,435.554 788.514,401.24 790.567,424.716 792.62,454.958 794.673,448.094 796.725,448.975 798.778,446.697 800.831,445.693 802.884,445.17 804.937,445.882 806.99,445.752 809.043,463.77 811.096,468.265 813.149,447.09 815.202,442.745 817.254,441.358 819.307,444.415 821.36,446.383 823.413,417.063 825.466,435.249 827.519,432.206 829.572,488.005 831.625,453.225 833.678,440.808 835.73,440.659 837.783,452.507 839.836,482.846 841.889,482.711 843.942,483.623 845.995,483.935 848.048,484.601 850.101,486.633 852.154,486.092 854.206,485.986 856.259,495.681 858.312,478.299 860.365,453.717 862.418,450.031 864.471,450.405 866.524,381.686 868.577,368.753 870.63,368.875 872.682,314.378 874.735,314.439 876.788,314.155 878.841,230.316 880.894,278.173 882.947,295.469 885,295.46 887.053,348.45 889.106,333.409 891.159,347.395 893.211,348.7 895.264,339.989 897.317,338.411 899.37,339.991 901.423,335.179 903.476,336.199 905.529,333.731 907.582,336.381 909.635,335.664 911.687,339.24 913.74,338.912 915.793,337.532 917.846,336.278 919.899,336.775 921.952,338.317 924.005,341.274 926.058,345.381 928.111,348.416 930.163,361.265 932.216,367.762 934.269,367.65 936.322,365 938.375,364.325 940.428,364.264 942.481,368.107 944.534,358.753 946.587,375.43 948.639,375.836 950.692,385.792 952.745,384.297 954.798,385.833 956.851,388.984 958.904,387.971 960.957,388.453 963.01,387.906 965.063,387.228 967.116,359.253 969.168,360.759 971.221,359.235 973.274,358.978 975.327,362.599 977.38,345.287 979.433,346.29 981.486,355.2 983.539,359.232 985.592,348.176 987.644,351.372 989.697,352.127 991.75,353.022 993.803,349.895 995.856,349.875 997.909,351.37 999.962,357.658 1002.01,358.14 1004.07,360.433 1006.12,355.448 1008.17,371.432 1010.23,371.422 1012.28,371.41 1014.33,371.11 1016.38,371.194 1018.44,379.123 1020.49,379.189 1022.54,379.037 1024.6,379.16 1026.65,379.154 1028.7,379.489 1030.76,382.502 1032.81,380.319 1034.86,368.821 1036.91,369.108 1038.97,375.108 1041.02,371.457 1043.07,368.069 1045.13,367.377 1047.18,363.333 1049.23,366.23 1051.28,368.394 1053.34,368.11 1055.39,367.803 1057.44,368.109 1059.5,364.405 1061.55,343.477 1063.6,343.401 1065.65,364.745 1067.71,355.302 1069.76,356.449 1071.81,357.116 1073.87,364.145 1075.92,355.992 1077.97,358.768 1080.02,358.657 1082.08,358.621 1084.13,358.636 1086.18,360.578 1088.24,359.522 1090.29,383.76 1092.34,401.001 1094.39,386.4 1096.45,393.678 1098.5,389.889 1100.55,374.285 1102.61,373.775 1104.66,383.76 1106.71,364.676 1108.77,363.668 1110.82,362.934 1112.87,356.669 1114.92,356.195 1116.98,355.221 1119.03,347.632 1121.08,348.199 1123.14,350.774 1125.19,349.143 1127.24,349.059 1129.29,415.919 1131.35,416.114 1133.4,420.823 1135.45,408.823 1137.51,410.045 1139.56,409.44 1141.61,422.5 1143.66,422.071 1145.72,395.535 1147.77,388.456 1149.82,386.338 1151.88,385.46 1153.93,379.79 1155.98,399.287 1158.03,398.263 1160.09,428.984 1162.14,421.148 1164.19,423.902 1166.25,432.806 1168.3,434.07 1170.35,421.105 1172.4,421.056 1174.46,419.327 1176.51,389.731 1178.56,375.924 1180.62,368.146 1182.67,375.606 1184.72,365.416 1186.77,340.554 1188.83,335.229 1190.88,334.975 1192.93,362.615 1194.99,376.249 1197.04,371.959 1199.09,361.463 1201.15,368.011 1203.2,366.234 1205.25,359.162 1207.3,371.92 1209.36,359.995 1211.41,359.998 1213.46,362.885 1215.52,363.25 1217.57,363.443 1219.62,366.755 1221.67,327.141 1223.73,339.865 1225.78,330.642 1227.83,329.866 1229.89,321.628 1231.94,322.346 1233.99,322.282 1236.04,374.161 1238.1,372.239 1240.15,359.931 1242.2,389.353 1244.26,436.297 1246.31,437.152 1248.36,441.661 1250.41,425.073 1252.47,426.27 1254.52,398.837 1256.57,388.894 1258.63,393.865 1260.68,390.476 1262.73,390.365 1264.78,392.086 1266.84,427.686 1268.89,429.534 1270.94,401.188 1273,374.213 1275.05,293.929 1277.1,332.845 1279.16,332.945 1281.21,296.369 1283.26,290.19 1285.31,287.346 1287.37,284.92 1289.42,288.064 1291.47,291.657 1293.53,292.295 1295.58,367.143 1297.63,533.193 1299.68,242.426 1301.74,232.803 1303.79,242.313 1305.84,245.81 1307.9,330.834 1309.95,330.299 1312,324.287 1314.05,388.866 1316.11,361.448 1318.16,329.765 1320.21,326.152 1322.27,326.637 1324.32,282.453 1326.37,291.439 1328.42,466.951 1330.48,463.608 1332.53,433.892 1334.58,384.967 1336.64,310.445 1338.69,305.809 1340.74,311.374 1342.79,286.88 1344.85,307.843 1346.9,307.28 1348.95,349.99 1351.01,350.257 1353.06,342.546 1355.11,361.78 1357.16,356.817 1359.22,385.117 1361.27,327.454 1363.32,304.631 1365.38,286.6 1367.43,291.141 1369.48,292.431 1371.54,292.637 1373.59,292.699 1375.64,292.677 1377.69,287.476 1379.75,287.417 1381.8,291.473 1383.85,362.798 1385.91,362.705 1387.96,354.13 1390.01,354.649 1392.06,351.472 1394.12,344.575 1396.17,344.582 1398.22,344.127 1400.28,343.88 1402.33,342.033 1404.38,380.475 1406.43,381.283 1408.49,381.238 1410.54,442.238 1412.59,442.355 1414.65,443.485 1416.7,430.123 1418.75,416.62 1420.8,418.248 1422.86,428.237 1424.91,426.873 1426.96,417.726 1429.02,419.406 1431.07,418.499 1433.12,301.793 1435.17,285.186 1437.23,285.019 1439.28,302.516 1441.33,405.962 1443.39,361.082 1445.44,362.918 1447.49,351.177 1449.55,332.914 1451.6,334.473 1453.65,333.707 1455.7,336.69 1457.76,339.1 1459.81,339.142 1461.86,327.036 1463.92,328.074 1465.97,328.39 1468.02,331.895 1470.07,336.657 1472.13,336.959 1474.18,345.266 1476.23,392.831 1478.29,390.646 1480.34,391.027 1482.39,383.944 1484.44,382.481 1486.5,382.412 1488.55,394.629 1490.6,396.178 1492.66,408.885 1494.71,409.523 1496.76,410.859 1498.81,410.846 1500.87,408.434 1502.92,406.751 1504.97,406.723 1507.03,406.686 1509.08,400.789 1511.13,399.937 1513.18,400.74 1515.24,399.783 1517.29,399.189 1519.34,399.235 1521.4,391.385 1523.45,391.71 1525.5,396.358 1527.55,396.661 1529.61,376.605 1531.66,369.451 1533.71,369.621 1535.77,370.918 1537.82,371.095 1539.87,354.48 1541.93,341.448 1543.98,337.767 1546.03,337.78 1548.08,338.432 1550.14,339.434 1552.19,336.497 1554.24,330.814 1556.3,331.76 1558.35,332.348 1560.4,354.494 1562.45,353.679 1564.51,353.605 1566.56,368.331 1568.61,368.309 1570.67,370.084 1572.72,344.537 1574.77,344.462 1576.82,346.68 1578.88,346.41 1580.93,362.516 1582.98,365.208 1585.04,380.318 1587.09,358.123 1589.14,358.521 1591.19,357.859 1593.25,366.082 1595.3,364.842 1597.35,365.005 1599.41,361.663 1601.46,362.166 1603.51,361.121 1605.56,369.366 1607.62,371.303 1609.67,367.139 1611.72,366.24 1613.78,364.284 1615.83,364.361 1617.88,371.576 1619.94,371.117 1621.99,368.018 1624.04,371.983 1626.09,403.41 1628.15,404.441 1630.2,406.186 1632.25,414.112 1634.31,410.711 1636.36,408.2 1638.41,408.8 1640.46,403.736 1642.52,400.726 1644.57,389.973 1646.62,395.965 1648.68,396.23 1650.73,386.472 1652.78,418.124 1654.83,424.385 1656.89,439.063 1658.94,439.077 1660.99,292.241 1663.05,293.28 1665.1,298.658 1667.15,286.021 1669.2,286.766 1671.26,284.877 1673.31,277.386 1675.36,287.25 1677.42,287.221 1679.47,296.944 1681.52,392.854 1683.57,392.896 1685.63,391.555 1687.68,395.241 1689.73,380.803 1691.79,365.767 1693.84,365.728 1695.89,365.599 1697.94,378.606 1700,377.788 1702.05,378.269 1704.1,371.819 1706.16,372.472 1708.21,354.449 1710.26,349.058 1712.32,360.342 1714.37,365.292 1716.42,357.537 1718.47,354.03 1720.53,353.924 1722.58,354.221 1724.63,359.64 1726.69,359.593 1728.74,359.142 1730.79,363.281 1732.84,362.705 1734.9,371.877 1736.95,372.934 1739,373.92 1741.06,377.63 1743.11,374.857 1745.16,374.215 1747.21,374.222 1749.27,359.195 1751.32,358.741 1753.37,360.38 1755.43,355.878 1757.48,355.411 1759.53,354.916 1761.58,352.079 1763.64,352.098 1765.69,350.302 1767.74,368.972 1769.8,367.863 1771.85,368.052 1773.9,357.409 1775.95,360.64 1778.01,381.06 1780.06,385.59 1782.11,387.437 1784.17,388.712 1786.22,404.519 1788.27,401.127 1790.33,401.027 1792.38,401.706 1794.43,390.66 1796.48,390.812 1798.54,389.789 1800.59,390.195 1802.64,386.39 1804.7,382.51 1806.75,380.924 1808.8,380.922 1810.85,351.843 1812.91,363.322 1814.96,361.609 1817.01,361.217 1819.07,383.816 1821.12,361.027 1823.17,355.194 1825.22,355.279 1827.28,357.237 1829.33,403.118 1831.38,401.975 1833.44,401.95 1835.49,402.087 1837.54,401.499 1839.59,402.942 1841.65,402.665 1843.7,343.266 1845.75,345.203 1847.81,346.489 1849.86,346.273 1851.91,351.504 1853.96,355.045 1856.02,355.096 1858.07,350.624 1860.12,349.237 1862.18,349.686 1864.23,356.655 1866.28,349.027 1868.34,350.795 1870.39,351.679 1872.44,351.94 1874.49,341.529 1876.55,342.938 1878.6,310.735 1880.65,344.523 1882.71,344.187 1884.76,343.635 1886.81,343.187 1888.86,384.119 1890.92,388.06 1892.97,387.521 1895.02,368.913 1897.08,376.267 1899.13,373.297 1901.18,383.108 1903.23,382.357 1905.29,384.9 1907.34,383.174 1909.39,376.994 1911.45,373.39 1913.5,374.909 1915.55,379.874 1917.6,377.693 1919.66,377.193 1921.71,388.399 1923.76,388.959 1925.82,389.364 1927.87,393.4 1929.92,393.377 1931.97,387.535 1934.03,386.512 1936.08,387.772 1938.13,387.715 1940.19,387.701 1942.24,384.475 1944.29,384.295 1946.34,384.07 1948.4,393.1 1950.45,397.202 1952.5,357.882 1954.56,357.497 1956.61,356.253 1958.66,355.989 1960.72,356.069 1962.77,353.789 1964.82,355.178 1966.87,356.147 1968.93,353.078 1970.98,363.42 1973.03,360.289 1975.09,359.583 1977.14,355.772 1979.19,355.914 1981.24,354.432 1983.3,356.487 1985.35,354.465 1987.4,354.163 1989.46,348.998 1991.51,348.215 1993.56,348.55 1995.61,347.996 1997.67,352.185 1999.72,353.564 2001.77,353.643 2003.83,352.764 2005.88,355.648 2007.93,356.65 2009.98,385.776 2012.04,373.242 2014.09,352.18 2016.14,352.207 2018.2,352.234 2020.25,351.414 2022.3,411.679 2024.35,407.869 2026.41,408.05 2028.46,399.949 2030.51,399.952 2032.57,403.632 2034.62,403.703 2036.67,402.959 2038.73,358.767 2040.78,353.279 2042.83,362.618 2044.88,362.727 2046.94,363.212 2048.99,381.796 2051.04,389.815 2053.1,389.766 2055.15,383.576 2057.2,385.799 2059.25,387.406 2061.31,390.185 2063.36,373.983 2065.41,383.526 2067.47,367.555 2069.52,376.609 2071.57,357.863 2073.62,362.283 2075.68,362.537 2077.73,373.277 2079.78,373.141 2081.84,374.816 2083.89,369.435 2085.94,368.72 2087.99,368.633 2090.05,419.575 2092.1,420.933 2094.15,410.865 2096.21,403.611 2098.26,394.83 2100.31,394.158 2102.36,361.564 2104.42,360.104 2106.47,359.626 2108.52,351.672 2110.58,351.884 2112.63,351.492 2114.68,398.763 2116.73,323.485 2118.79,333.361 2120.84,395.953 2122.89,391.621 2124.95,391.024 2127,405.665 2129.05,411.175 2131.11,417.251 2133.16,417.918 2135.21,412.675 2137.26,411.994 2139.32,412.4 2141.37,437.005 2143.42,368.223 2145.48,366.934 2147.53,338.3 2149.58,302.899 2151.63,305.99 2153.69,406.154 2155.74,316.603 2157.79,316.611 2159.85,316.373 2161.9,314.433 2163.95,319.226 2166,358.883 2168.06,388.967 2170.11,389.729 2172.16,387.622 2174.22,385.197 2176.27,386.582 2178.32,385.208 2180.37,389.138 2182.43,407.562 2184.48,407.424 2186.53,382.798 2188.59,383.38 2190.64,389.237 2192.69,400.053 2194.74,399.987 2196.8,400.587 2198.85,401.213 2200.9,400.558 2202.96,395.795 2205.01,411.854 2207.06,412.738 2209.12,418.626 2211.17,416.879 2213.22,408.8 2215.27,409.144 2217.33,423.349 2219.38,419.204 2221.43,418.865 2223.49,419.306 2225.54,419.149 2227.59,421.077 2229.64,416.543 2231.7,418.581 2233.75,386.444 2235.8,386.313 2237.86,374.272 2239.91,374.281 2241.96,364.533 2244.01,362.062 2246.07,362.629 2248.12,362.18 2250.17,370.138 2252.23,370.477 2254.28,372.501 2256.33,362.722 2258.38,362.699 2260.44,364.09 2262.49,360.06 2264.54,331.722 2266.6,330.757 2268.65,369.866 2270.7,369.584 2272.75,369.27 2274.81,362.706 2276.86,362.043 2278.91,377.549 2280.97,361.652 2283.02,355.37 2285.07,353.972 2287.12,401.738 2289.18,402.145 2291.23,403.602 "/>
<path clip-path="url(#clip240)" d="M1983.6 172.231 L2280.29 172.231 L2280.29 68.5509 L1983.6 68.5509  Z" fill="#ffffff" fill-rule="evenodd" fill-opacity="1"/>
<polyline clip-path="url(#clip240)" style="stroke:#000000; stroke-linecap:round; stroke-linejoin:round; stroke-width:4; stroke-opacity:1; fill:none" points="1983.6,172.231 2280.29,172.231 2280.29,68.5509 1983.6,68.5509 1983.6,172.231 "/>
<polyline clip-path="url(#clip240)" style="stroke:#009af9; stroke-linecap:round; stroke-linejoin:round; stroke-width:4; stroke-opacity:1; fill:none" points="2007.75,120.391 2152.68,120.391 "/>
<path clip-path="url(#clip240)" d="M2176.83 103.111 L2181.51 103.111 L2181.51 133.736 L2198.34 133.736 L2198.34 137.671 L2176.83 137.671 L2176.83 103.111 Z" fill="#000000" fill-rule="nonzero" fill-opacity="1" /><path clip-path="url(#clip240)" d="M2223.96 104.245 L2223.96 108.805 Q2221.3 107.532 2218.94 106.907 Q2216.58 106.282 2214.38 106.282 Q2210.56 106.282 2208.48 107.764 Q2206.42 109.245 2206.42 111.977 Q2206.42 114.268 2207.78 115.449 Q2209.17 116.606 2213.01 117.324 L2215.84 117.902 Q2221.07 118.898 2223.55 121.421 Q2226.05 123.921 2226.05 128.134 Q2226.05 133.157 2222.67 135.75 Q2219.31 138.342 2212.81 138.342 Q2210.35 138.342 2207.57 137.787 Q2204.82 137.231 2201.86 136.143 L2201.86 131.328 Q2204.7 132.926 2207.44 133.736 Q2210.17 134.546 2212.81 134.546 Q2216.81 134.546 2218.99 132.972 Q2221.16 131.398 2221.16 128.481 Q2221.16 125.935 2219.59 124.5 Q2218.04 123.064 2214.47 122.347 L2211.62 121.791 Q2206.39 120.75 2204.06 118.527 Q2201.72 116.305 2201.72 112.347 Q2201.72 107.764 2204.94 105.125 Q2208.18 102.486 2213.85 102.486 Q2216.28 102.486 2218.8 102.926 Q2221.32 103.366 2223.96 104.245 Z" fill="#000000" fill-rule="nonzero" fill-opacity="1" /><path clip-path="url(#clip240)" d="M2254.06 104.245 L2254.06 108.805 Q2251.39 107.532 2249.03 106.907 Q2246.67 106.282 2244.47 106.282 Q2240.65 106.282 2238.57 107.764 Q2236.51 109.245 2236.51 111.977 Q2236.51 114.268 2237.87 115.449 Q2239.26 116.606 2243.11 117.324 L2245.93 117.902 Q2251.16 118.898 2253.64 121.421 Q2256.14 123.921 2256.14 128.134 Q2256.14 133.157 2252.76 135.75 Q2249.4 138.342 2242.9 138.342 Q2240.44 138.342 2237.67 137.787 Q2234.91 137.231 2231.95 136.143 L2231.95 131.328 Q2234.8 132.926 2237.53 133.736 Q2240.26 134.546 2242.9 134.546 Q2246.9 134.546 2249.08 132.972 Q2251.25 131.398 2251.25 128.481 Q2251.25 125.935 2249.68 124.5 Q2248.13 123.064 2244.56 122.347 L2241.72 121.791 Q2236.49 120.75 2234.15 118.527 Q2231.81 116.305 2231.81 112.347 Q2231.81 107.764 2235.03 105.125 Q2238.27 102.486 2243.94 102.486 Q2246.37 102.486 2248.89 102.926 Q2251.42 103.366 2254.06 104.245 Z" fill="#000000" fill-rule="nonzero" fill-opacity="1" /><path clip-path="url(#clip240)" d="M178.867 1486.45 L2352.76 1486.45 L2352.76 847.244 L178.867 847.244  Z" fill="#ffffff" fill-rule="evenodd" fill-opacity="1"/>
<defs>
  <clipPath id="clip243">
    <rect x="178" y="847" width="2175" height="640"/>
  </clipPath>
</defs>
<polyline clip-path="url(#clip243)" style="stroke:#000000; stroke-linecap:round; stroke-linejoin:round; stroke-width:2; stroke-opacity:0.1; fill:none" points="238.339,1486.45 238.339,847.244 "/>
<polyline clip-path="url(#clip243)" style="stroke:#000000; stroke-linecap:round; stroke-linejoin:round; stroke-width:2; stroke-opacity:0.1; fill:none" points="751.562,1486.45 751.562,847.244 "/>
<polyline clip-path="url(#clip243)" style="stroke:#000000; stroke-linecap:round; stroke-linejoin:round; stroke-width:2; stroke-opacity:0.1; fill:none" points="1264.78,1486.45 1264.78,847.244 "/>
<polyline clip-path="url(#clip243)" style="stroke:#000000; stroke-linecap:round; stroke-linejoin:round; stroke-width:2; stroke-opacity:0.1; fill:none" points="1778.01,1486.45 1778.01,847.244 "/>
<polyline clip-path="url(#clip243)" style="stroke:#000000; stroke-linecap:round; stroke-linejoin:round; stroke-width:2; stroke-opacity:0.1; fill:none" points="2291.23,1486.45 2291.23,847.244 "/>
<polyline clip-path="url(#clip243)" style="stroke:#000000; stroke-linecap:round; stroke-linejoin:round; stroke-width:2; stroke-opacity:0.1; fill:none" points="178.867,1486.45 2352.76,1486.45 "/>
<polyline clip-path="url(#clip243)" style="stroke:#000000; stroke-linecap:round; stroke-linejoin:round; stroke-width:2; stroke-opacity:0.1; fill:none" points="178.867,1326.65 2352.76,1326.65 "/>
<polyline clip-path="url(#clip243)" style="stroke:#000000; stroke-linecap:round; stroke-linejoin:round; stroke-width:2; stroke-opacity:0.1; fill:none" points="178.867,1166.85 2352.76,1166.85 "/>
<polyline clip-path="url(#clip243)" style="stroke:#000000; stroke-linecap:round; stroke-linejoin:round; stroke-width:2; stroke-opacity:0.1; fill:none" points="178.867,1007.05 2352.76,1007.05 "/>
<polyline clip-path="url(#clip243)" style="stroke:#000000; stroke-linecap:round; stroke-linejoin:round; stroke-width:2; stroke-opacity:0.1; fill:none" points="178.867,847.244 2352.76,847.244 "/>
<polyline clip-path="url(#clip240)" style="stroke:#000000; stroke-linecap:round; stroke-linejoin:round; stroke-width:4; stroke-opacity:1; fill:none" points="178.867,1486.45 2352.76,1486.45 "/>
<polyline clip-path="url(#clip240)" style="stroke:#000000; stroke-linecap:round; stroke-linejoin:round; stroke-width:4; stroke-opacity:1; fill:none" points="238.339,1486.45 238.339,1467.55 "/>
<polyline clip-path="url(#clip240)" style="stroke:#000000; stroke-linecap:round; stroke-linejoin:round; stroke-width:4; stroke-opacity:1; fill:none" points="751.562,1486.45 751.562,1467.55 "/>
<polyline clip-path="url(#clip240)" style="stroke:#000000; stroke-linecap:round; stroke-linejoin:round; stroke-width:4; stroke-opacity:1; fill:none" points="1264.78,1486.45 1264.78,1467.55 "/>
<polyline clip-path="url(#clip240)" style="stroke:#000000; stroke-linecap:round; stroke-linejoin:round; stroke-width:4; stroke-opacity:1; fill:none" points="1778.01,1486.45 1778.01,1467.55 "/>
<polyline clip-path="url(#clip240)" style="stroke:#000000; stroke-linecap:round; stroke-linejoin:round; stroke-width:4; stroke-opacity:1; fill:none" points="2291.23,1486.45 2291.23,1467.55 "/>
<path clip-path="url(#clip240)" d="M238.339 1517.37 Q234.728 1517.37 232.899 1520.93 Q231.094 1524.47 231.094 1531.6 Q231.094 1538.71 232.899 1542.27 Q234.728 1545.82 238.339 1545.82 Q241.973 1545.82 243.779 1542.27 Q245.607 1538.71 245.607 1531.6 Q245.607 1524.47 243.779 1520.93 Q241.973 1517.37 238.339 1517.37 M238.339 1513.66 Q244.149 1513.66 247.205 1518.27 Q250.283 1522.85 250.283 1531.6 Q250.283 1540.33 247.205 1544.94 Q244.149 1549.52 238.339 1549.52 Q232.529 1549.52 229.45 1544.94 Q226.395 1540.33 226.395 1531.6 Q226.395 1522.85 229.45 1518.27 Q232.529 1513.66 238.339 1513.66 Z" fill="#000000" fill-rule="nonzero" fill-opacity="1" /><path clip-path="url(#clip240)" d="M715.254 1544.91 L731.574 1544.91 L731.574 1548.85 L709.629 1548.85 L709.629 1544.91 Q712.291 1542.16 716.875 1537.53 Q721.481 1532.88 722.662 1531.53 Q724.907 1529.01 725.787 1527.27 Q726.689 1525.51 726.689 1523.82 Q726.689 1521.07 724.745 1519.33 Q722.824 1517.6 719.722 1517.6 Q717.523 1517.6 715.069 1518.36 Q712.638 1519.13 709.861 1520.68 L709.861 1515.95 Q712.685 1514.82 715.138 1514.24 Q717.592 1513.66 719.629 1513.66 Q725 1513.66 728.194 1516.35 Q731.388 1519.03 731.388 1523.52 Q731.388 1525.65 730.578 1527.57 Q729.791 1529.47 727.685 1532.07 Q727.106 1532.74 724.004 1535.95 Q720.902 1539.15 715.254 1544.91 Z" fill="#000000" fill-rule="nonzero" fill-opacity="1" /><path clip-path="url(#clip240)" d="M741.435 1514.29 L759.791 1514.29 L759.791 1518.22 L745.717 1518.22 L745.717 1526.7 Q746.736 1526.35 747.754 1526.19 Q748.773 1526 749.791 1526 Q755.578 1526 758.958 1529.17 Q762.337 1532.34 762.337 1537.76 Q762.337 1543.34 758.865 1546.44 Q755.393 1549.52 749.073 1549.52 Q746.898 1549.52 744.629 1549.15 Q742.384 1548.78 739.976 1548.04 L739.976 1543.34 Q742.06 1544.47 744.282 1545.03 Q746.504 1545.58 748.981 1545.58 Q752.985 1545.58 755.323 1543.48 Q757.661 1541.37 757.661 1537.76 Q757.661 1534.15 755.323 1532.04 Q752.985 1529.94 748.981 1529.94 Q747.106 1529.94 745.231 1530.35 Q743.379 1530.77 741.435 1531.65 L741.435 1514.29 Z" fill="#000000" fill-rule="nonzero" fill-opacity="1" /><path clip-path="url(#clip240)" d="M781.55 1517.37 Q777.939 1517.37 776.11 1520.93 Q774.305 1524.47 774.305 1531.6 Q774.305 1538.71 776.11 1542.27 Q777.939 1545.82 781.55 1545.82 Q785.184 1545.82 786.99 1542.27 Q788.819 1538.71 788.819 1531.6 Q788.819 1524.47 786.99 1520.93 Q785.184 1517.37 781.55 1517.37 M781.55 1513.66 Q787.36 1513.66 790.416 1518.27 Q793.495 1522.85 793.495 1531.6 Q793.495 1540.33 790.416 1544.94 Q787.36 1549.52 781.55 1549.52 Q775.74 1549.52 772.661 1544.94 Q769.606 1540.33 769.606 1531.6 Q769.606 1522.85 772.661 1518.27 Q775.74 1513.66 781.55 1513.66 Z" fill="#000000" fill-rule="nonzero" fill-opacity="1" /><path clip-path="url(#clip240)" d="M1224.4 1514.29 L1242.76 1514.29 L1242.76 1518.22 L1228.69 1518.22 L1228.69 1526.7 Q1229.7 1526.35 1230.72 1526.19 Q1231.74 1526 1232.76 1526 Q1238.55 1526 1241.93 1529.17 Q1245.31 1532.34 1245.31 1537.76 Q1245.31 1543.34 1241.83 1546.44 Q1238.36 1549.52 1232.04 1549.52 Q1229.87 1549.52 1227.6 1549.15 Q1225.35 1548.78 1222.94 1548.04 L1222.94 1543.34 Q1225.03 1544.47 1227.25 1545.03 Q1229.47 1545.58 1231.95 1545.58 Q1235.95 1545.58 1238.29 1543.48 Q1240.63 1541.37 1240.63 1537.76 Q1240.63 1534.15 1238.29 1532.04 Q1235.95 1529.94 1231.95 1529.94 Q1230.07 1529.94 1228.2 1530.35 Q1226.35 1530.77 1224.4 1531.65 L1224.4 1514.29 Z" fill="#000000" fill-rule="nonzero" fill-opacity="1" /><path clip-path="url(#clip240)" d="M1264.52 1517.37 Q1260.91 1517.37 1259.08 1520.93 Q1257.27 1524.47 1257.27 1531.6 Q1257.27 1538.71 1259.08 1542.27 Q1260.91 1545.82 1264.52 1545.82 Q1268.15 1545.82 1269.96 1542.27 Q1271.79 1538.71 1271.79 1531.6 Q1271.79 1524.47 1269.96 1520.93 Q1268.15 1517.37 1264.52 1517.37 M1264.52 1513.66 Q1270.33 1513.66 1273.38 1518.27 Q1276.46 1522.85 1276.46 1531.6 Q1276.46 1540.33 1273.38 1544.94 Q1270.33 1549.52 1264.52 1549.52 Q1258.71 1549.52 1255.63 1544.94 Q1252.57 1540.33 1252.57 1531.6 Q1252.57 1522.85 1255.63 1518.27 Q1258.71 1513.66 1264.52 1513.66 Z" fill="#000000" fill-rule="nonzero" fill-opacity="1" /><path clip-path="url(#clip240)" d="M1294.68 1517.37 Q1291.07 1517.37 1289.24 1520.93 Q1287.44 1524.47 1287.44 1531.6 Q1287.44 1538.71 1289.24 1542.27 Q1291.07 1545.82 1294.68 1545.82 Q1298.31 1545.82 1300.12 1542.27 Q1301.95 1538.71 1301.95 1531.6 Q1301.95 1524.47 1300.12 1520.93 Q1298.31 1517.37 1294.68 1517.37 M1294.68 1513.66 Q1300.49 1513.66 1303.55 1518.27 Q1306.62 1522.85 1306.62 1531.6 Q1306.62 1540.33 1303.55 1544.94 Q1300.49 1549.52 1294.68 1549.52 Q1288.87 1549.52 1285.79 1544.94 Q1282.74 1540.33 1282.74 1531.6 Q1282.74 1522.85 1285.79 1518.27 Q1288.87 1513.66 1294.68 1513.66 Z" fill="#000000" fill-rule="nonzero" fill-opacity="1" /><path clip-path="url(#clip240)" d="M1736.28 1514.29 L1758.51 1514.29 L1758.51 1516.28 L1745.96 1548.85 L1741.08 1548.85 L1752.88 1518.22 L1736.28 1518.22 L1736.28 1514.29 Z" fill="#000000" fill-rule="nonzero" fill-opacity="1" /><path clip-path="url(#clip240)" d="M1767.67 1514.29 L1786.03 1514.29 L1786.03 1518.22 L1771.95 1518.22 L1771.95 1526.7 Q1772.97 1526.35 1773.99 1526.19 Q1775.01 1526 1776.03 1526 Q1781.82 1526 1785.2 1529.17 Q1788.57 1532.34 1788.57 1537.76 Q1788.57 1543.34 1785.1 1546.44 Q1781.63 1549.52 1775.31 1549.52 Q1773.14 1549.52 1770.87 1549.15 Q1768.62 1548.78 1766.21 1548.04 L1766.21 1543.34 Q1768.3 1544.47 1770.52 1545.03 Q1772.74 1545.58 1775.22 1545.58 Q1779.22 1545.58 1781.56 1543.48 Q1783.9 1541.37 1783.9 1537.76 Q1783.9 1534.15 1781.56 1532.04 Q1779.22 1529.94 1775.22 1529.94 Q1773.34 1529.94 1771.47 1530.35 Q1769.62 1530.77 1767.67 1531.65 L1767.67 1514.29 Z" fill="#000000" fill-rule="nonzero" fill-opacity="1" /><path clip-path="url(#clip240)" d="M1807.79 1517.37 Q1804.18 1517.37 1802.35 1520.93 Q1800.54 1524.47 1800.54 1531.6 Q1800.54 1538.71 1802.35 1542.27 Q1804.18 1545.82 1807.79 1545.82 Q1811.42 1545.82 1813.23 1542.27 Q1815.06 1538.71 1815.06 1531.6 Q1815.06 1524.47 1813.23 1520.93 Q1811.42 1517.37 1807.79 1517.37 M1807.79 1513.66 Q1813.6 1513.66 1816.65 1518.27 Q1819.73 1522.85 1819.73 1531.6 Q1819.73 1540.33 1816.65 1544.94 Q1813.6 1549.52 1807.79 1549.52 Q1801.98 1549.52 1798.9 1544.94 Q1795.84 1540.33 1795.84 1531.6 Q1795.84 1522.85 1798.9 1518.27 Q1801.98 1513.66 1807.79 1513.66 Z" fill="#000000" fill-rule="nonzero" fill-opacity="1" /><path clip-path="url(#clip240)" d="M2235.76 1544.91 L2243.4 1544.91 L2243.4 1518.55 L2235.09 1520.21 L2235.09 1515.95 L2243.35 1514.29 L2248.02 1514.29 L2248.02 1544.91 L2255.66 1544.91 L2255.66 1548.85 L2235.76 1548.85 L2235.76 1544.91 Z" fill="#000000" fill-rule="nonzero" fill-opacity="1" /><path clip-path="url(#clip240)" d="M2275.11 1517.37 Q2271.5 1517.37 2269.67 1520.93 Q2267.86 1524.47 2267.86 1531.6 Q2267.86 1538.71 2269.67 1542.27 Q2271.5 1545.82 2275.11 1545.82 Q2278.74 1545.82 2280.55 1542.27 Q2282.38 1538.71 2282.38 1531.6 Q2282.38 1524.47 2280.55 1520.93 Q2278.74 1517.37 2275.11 1517.37 M2275.11 1513.66 Q2280.92 1513.66 2283.97 1518.27 Q2287.05 1522.85 2287.05 1531.6 Q2287.05 1540.33 2283.97 1544.94 Q2280.92 1549.52 2275.11 1549.52 Q2269.3 1549.52 2266.22 1544.94 Q2263.16 1540.33 2263.16 1531.6 Q2263.16 1522.85 2266.22 1518.27 Q2269.3 1513.66 2275.11 1513.66 Z" fill="#000000" fill-rule="nonzero" fill-opacity="1" /><path clip-path="url(#clip240)" d="M2305.27 1517.37 Q2301.66 1517.37 2299.83 1520.93 Q2298.02 1524.47 2298.02 1531.6 Q2298.02 1538.71 2299.83 1542.27 Q2301.66 1545.82 2305.27 1545.82 Q2308.9 1545.82 2310.71 1542.27 Q2312.54 1538.71 2312.54 1531.6 Q2312.54 1524.47 2310.71 1520.93 Q2308.9 1517.37 2305.27 1517.37 M2305.27 1513.66 Q2311.08 1513.66 2314.14 1518.27 Q2317.21 1522.85 2317.21 1531.6 Q2317.21 1540.33 2314.14 1544.94 Q2311.08 1549.52 2305.27 1549.52 Q2299.46 1549.52 2296.38 1544.94 Q2293.33 1540.33 2293.33 1531.6 Q2293.33 1522.85 2296.38 1518.27 Q2299.46 1513.66 2305.27 1513.66 Z" fill="#000000" fill-rule="nonzero" fill-opacity="1" /><path clip-path="url(#clip240)" d="M2335.43 1517.37 Q2331.82 1517.37 2329.99 1520.93 Q2328.19 1524.47 2328.19 1531.6 Q2328.19 1538.71 2329.99 1542.27 Q2331.82 1545.82 2335.43 1545.82 Q2339.07 1545.82 2340.87 1542.27 Q2342.7 1538.71 2342.7 1531.6 Q2342.7 1524.47 2340.87 1520.93 Q2339.07 1517.37 2335.43 1517.37 M2335.43 1513.66 Q2341.24 1513.66 2344.3 1518.27 Q2347.38 1522.85 2347.38 1531.6 Q2347.38 1540.33 2344.3 1544.94 Q2341.24 1549.52 2335.43 1549.52 Q2329.62 1549.52 2326.54 1544.94 Q2323.49 1540.33 2323.49 1531.6 Q2323.49 1522.85 2326.54 1518.27 Q2329.62 1513.66 2335.43 1513.66 Z" fill="#000000" fill-rule="nonzero" fill-opacity="1" /><polyline clip-path="url(#clip240)" style="stroke:#000000; stroke-linecap:round; stroke-linejoin:round; stroke-width:4; stroke-opacity:1; fill:none" points="178.867,1486.45 178.867,847.244 "/>
<polyline clip-path="url(#clip240)" style="stroke:#000000; stroke-linecap:round; stroke-linejoin:round; stroke-width:4; stroke-opacity:1; fill:none" points="178.867,1486.45 197.764,1486.45 "/>
<polyline clip-path="url(#clip240)" style="stroke:#000000; stroke-linecap:round; stroke-linejoin:round; stroke-width:4; stroke-opacity:1; fill:none" points="178.867,1326.65 197.764,1326.65 "/>
<polyline clip-path="url(#clip240)" style="stroke:#000000; stroke-linecap:round; stroke-linejoin:round; stroke-width:4; stroke-opacity:1; fill:none" points="178.867,1166.85 197.764,1166.85 "/>
<polyline clip-path="url(#clip240)" style="stroke:#000000; stroke-linecap:round; stroke-linejoin:round; stroke-width:4; stroke-opacity:1; fill:none" points="178.867,1007.05 197.764,1007.05 "/>
<polyline clip-path="url(#clip240)" style="stroke:#000000; stroke-linecap:round; stroke-linejoin:round; stroke-width:4; stroke-opacity:1; fill:none" points="178.867,847.244 197.764,847.244 "/>
<path clip-path="url(#clip240)" d="M50.9921 1486.9 L80.6679 1486.9 L80.6679 1490.83 L50.9921 1490.83 L50.9921 1486.9 Z" fill="#000000" fill-rule="nonzero" fill-opacity="1" /><path clip-path="url(#clip240)" d="M91.5706 1499.79 L99.2095 1499.79 L99.2095 1473.43 L90.8993 1475.09 L90.8993 1470.83 L99.1632 1469.17 L103.839 1469.17 L103.839 1499.79 L111.478 1499.79 L111.478 1503.73 L91.5706 1503.73 L91.5706 1499.79 Z" fill="#000000" fill-rule="nonzero" fill-opacity="1" /><path clip-path="url(#clip240)" d="M130.922 1472.25 Q127.311 1472.25 125.482 1475.81 Q123.677 1479.35 123.677 1486.48 Q123.677 1493.59 125.482 1497.15 Q127.311 1500.7 130.922 1500.7 Q134.556 1500.7 136.362 1497.15 Q138.191 1493.59 138.191 1486.48 Q138.191 1479.35 136.362 1475.81 Q134.556 1472.25 130.922 1472.25 M130.922 1468.54 Q136.732 1468.54 139.788 1473.15 Q142.867 1477.73 142.867 1486.48 Q142.867 1495.21 139.788 1499.82 Q136.732 1504.4 130.922 1504.4 Q125.112 1504.4 122.033 1499.82 Q118.978 1495.21 118.978 1486.48 Q118.978 1477.73 122.033 1473.15 Q125.112 1468.54 130.922 1468.54 Z" fill="#000000" fill-rule="nonzero" fill-opacity="1" /><path clip-path="url(#clip240)" d="M82.1494 1327.1 L111.825 1327.1 L111.825 1331.03 L82.1494 1331.03 L82.1494 1327.1 Z" fill="#000000" fill-rule="nonzero" fill-opacity="1" /><path clip-path="url(#clip240)" d="M121.964 1309.37 L140.32 1309.37 L140.32 1313.3 L126.246 1313.3 L126.246 1321.77 Q127.265 1321.43 128.283 1321.27 Q129.302 1321.08 130.32 1321.08 Q136.107 1321.08 139.487 1324.25 Q142.867 1327.42 142.867 1332.84 Q142.867 1338.42 139.394 1341.52 Q135.922 1344.6 129.603 1344.6 Q127.427 1344.6 125.158 1344.23 Q122.913 1343.86 120.506 1343.12 L120.506 1338.42 Q122.589 1339.55 124.811 1340.11 Q127.033 1340.66 129.51 1340.66 Q133.515 1340.66 135.853 1338.56 Q138.191 1336.45 138.191 1332.84 Q138.191 1329.23 135.853 1327.12 Q133.515 1325.01 129.51 1325.01 Q127.635 1325.01 125.76 1325.43 Q123.908 1325.85 121.964 1326.73 L121.964 1309.37 Z" fill="#000000" fill-rule="nonzero" fill-opacity="1" /><path clip-path="url(#clip240)" d="M130.922 1152.64 Q127.311 1152.64 125.482 1156.21 Q123.677 1159.75 123.677 1166.88 Q123.677 1173.99 125.482 1177.55 Q127.311 1181.09 130.922 1181.09 Q134.556 1181.09 136.362 1177.55 Q138.191 1173.99 138.191 1166.88 Q138.191 1159.75 136.362 1156.21 Q134.556 1152.64 130.922 1152.64 M130.922 1148.94 Q136.732 1148.94 139.788 1153.55 Q142.867 1158.13 142.867 1166.88 Q142.867 1175.61 139.788 1180.21 Q136.732 1184.8 130.922 1184.8 Q125.112 1184.8 122.033 1180.21 Q118.978 1175.61 118.978 1166.88 Q118.978 1158.13 122.033 1153.55 Q125.112 1148.94 130.922 1148.94 Z" fill="#000000" fill-rule="nonzero" fill-opacity="1" /><path clip-path="url(#clip240)" d="M121.964 989.765 L140.32 989.765 L140.32 993.7 L126.246 993.7 L126.246 1002.17 Q127.265 1001.83 128.283 1001.66 Q129.302 1001.48 130.32 1001.48 Q136.107 1001.48 139.487 1004.65 Q142.867 1007.82 142.867 1013.24 Q142.867 1018.82 139.394 1021.92 Q135.922 1025 129.603 1025 Q127.427 1025 125.158 1024.63 Q122.913 1024.26 120.506 1023.51 L120.506 1018.82 Q122.589 1019.95 124.811 1020.51 Q127.033 1021.06 129.51 1021.06 Q133.515 1021.06 135.853 1018.95 Q138.191 1016.85 138.191 1013.24 Q138.191 1009.63 135.853 1007.52 Q133.515 1005.41 129.51 1005.41 Q127.635 1005.41 125.76 1005.83 Q123.908 1006.25 121.964 1007.13 L121.964 989.765 Z" fill="#000000" fill-rule="nonzero" fill-opacity="1" /><path clip-path="url(#clip240)" d="M91.5706 860.589 L99.2095 860.589 L99.2095 834.223 L90.8993 835.89 L90.8993 831.631 L99.1632 829.964 L103.839 829.964 L103.839 860.589 L111.478 860.589 L111.478 864.524 L91.5706 864.524 L91.5706 860.589 Z" fill="#000000" fill-rule="nonzero" fill-opacity="1" /><path clip-path="url(#clip240)" d="M130.922 833.043 Q127.311 833.043 125.482 836.608 Q123.677 840.149 123.677 847.279 Q123.677 854.385 125.482 857.95 Q127.311 861.492 130.922 861.492 Q134.556 861.492 136.362 857.95 Q138.191 854.385 138.191 847.279 Q138.191 840.149 136.362 836.608 Q134.556 833.043 130.922 833.043 M130.922 829.339 Q136.732 829.339 139.788 833.946 Q142.867 838.529 142.867 847.279 Q142.867 856.006 139.788 860.612 Q136.732 865.195 130.922 865.195 Q125.112 865.195 122.033 860.612 Q118.978 856.006 118.978 847.279 Q118.978 838.529 122.033 833.946 Q125.112 829.339 130.922 829.339 Z" fill="#000000" fill-rule="nonzero" fill-opacity="1" /><polyline clip-path="url(#clip243)" style="stroke:#009af9; stroke-linecap:round; stroke-linejoin:round; stroke-width:4; stroke-opacity:1; fill:none" points="240.392,1134.89 242.445,1188.45 244.498,1163.02 246.55,1124.5 248.603,1195.66 250.656,926.618 252.709,1247.99 254.762,1142.77 256.815,1135.14 258.868,1186.41 260.921,1181.07 262.974,1183.14 265.027,1163.83 267.079,1154.02 269.132,1202.87 271.185,1105.79 273.238,1314.5 275.291,1095.05 277.344,1287.52 279.397,1041.21 281.45,1186 283.503,1297.77 285.555,975.817 287.608,1409.54 289.661,1312.59 291.714,1060.75 293.767,1145.24 295.82,1161.67 297.873,1095.53 299.926,1164.77 301.979,1209.03 304.031,1172.34 306.084,1158.74 308.137,1169.69 310.19,1161.28 312.243,1144.6 314.296,1261.05 316.349,2957.16 318.402,1423.43 320.455,314.855 322.507,-227.607 324.56,1227.95 326.613,1162.47 328.666,1183.85 330.719,1123.75 332.772,1030.65 334.825,539.941 336.878,1378.24 338.931,1313.93 340.984,1300.88 343.036,1061.61 345.089,1125.86 347.142,1167.24 349.195,1173.79 351.248,1182.54 353.301,808.307 355.354,1233.48 357.407,1058.99 359.46,1184.35 361.512,1219.12 363.565,1154.01 365.618,1177.78 367.671,1125.03 369.724,1129.65 371.777,1164.08 373.83,1265.73 375.883,1183.77 377.936,1103.68 379.988,1083.13 382.041,708.183 384.094,1738.7 386.147,1070.23 388.2,1158.85 390.253,1179.19 392.306,1100.7 394.359,1150.99 396.412,1151.34 398.464,1193.71 400.517,1182.7 402.57,1142.6 404.623,1101.76 406.676,1182.52 408.729,1207.3 410.782,1148.28 412.835,1162.42 414.888,1146.6 416.94,1207.33 418.993,1143.98 421.046,1170.04 423.099,1166.62 425.152,1164.01 427.205,1183.94 429.258,1328.49 431.311,1163.58 433.364,1179.36 435.417,1175.9 437.469,1155.52 439.522,1132.6 441.575,1164.1 443.628,1131.23 445.681,1148.87 447.734,1168.75 449.787,1191.41 451.84,1119.11 453.893,1048.94 455.945,1137.46 457.998,1205.1 460.051,1214.57 462.104,1158.16 464.157,1134.26 466.21,1126.65 468.263,1177.42 470.316,1052.01 472.369,1121.81 474.421,1066.68 476.474,1174.35 478.527,1169.37 480.58,1178.58 482.633,1171.36 484.686,1195.39 486.739,1230.65 488.792,1280.6 490.845,1111.14 492.897,1136.71 494.95,1152.35 497.003,1185.91 499.056,1148.99 501.109,1138.95 503.162,1189.73 505.215,1169.57 507.268,1151.97 509.321,1121.14 511.374,1188.68 513.426,971.143 515.479,1071.56 517.532,1112.75 519.585,1150.44 521.638,1168.54 523.691,1139.39 525.744,1093.89 527.797,1261.8 529.85,1276.1 531.902,998.855 533.955,679.28 536.008,1316.86 538.061,975.811 540.114,1084.81 542.167,934.587 544.22,967.675 546.273,1211.39 548.326,1152.2 550.378,1235.91 552.431,1243.73 554.484,1296.48 556.537,993.321 558.59,1182.72 560.643,1205.24 562.696,1120.31 564.749,1117.71 566.802,1160.57 568.854,1171.72 570.907,1184.55 572.96,1177.97 575.013,1273.39 577.066,1148.8 579.119,1133.53 581.172,1190.39 583.225,1133.75 585.278,1128.97 587.331,1210.03 589.383,1147.62 591.436,1138.48 593.489,1163.77 595.542,1174.05 597.595,1168.44 599.648,1100.92 601.701,1144.08 603.754,1197.63 605.807,1153.4 607.859,1178.54 609.912,1165.69 611.965,1160.82 614.018,1167.38 616.071,1163.82 618.124,1168.11 620.177,1173.08 622.23,1162.37 624.283,1155.92 626.335,1253.34 628.388,1186.28 630.441,1192 632.494,1071.93 634.547,1032.65 636.6,654.127 638.653,963.303 640.706,1102.56 642.759,1158.27 644.811,1158.59 646.864,1150.45 648.917,1165.36 650.97,1160.97 653.023,1183.84 655.076,1165.11 657.129,1139.87 659.182,1192.68 661.235,1144.71 663.288,1110.77 665.34,1141.03 667.393,1146.26 669.446,1154.65 671.499,1197.47 673.552,1201.13 675.605,1159.45 677.658,1178.91 679.711,1049.36 681.764,1161.26 683.816,1163.01 685.869,1140.05 687.922,1243.25 689.975,1197.58 692.028,1149.45 694.081,1168.24 696.134,1110.33 698.187,1161.65 700.24,1199.35 702.292,1185.66 704.345,1157.32 706.398,1047.02 708.451,1371.64 710.504,1148.58 712.557,1174.96 714.61,1246.92 716.663,1180.75 718.716,1175.93 720.768,1174.95 722.821,1170.12 724.874,1167.82 726.927,1100.95 728.98,1157.78 731.033,1132.6 733.086,1148.79 735.139,1183.5 737.192,1144.34 739.245,1173.4 741.297,1173.91 743.35,1147.12 745.403,1147.1 747.456,1155.47 749.509,1175.37 751.562,1278.03 753.615,803.189 755.668,1045.7 757.721,1274.57 759.773,1142.36 761.826,1163.03 763.879,1168.54 765.932,1168.31 767.985,1089.99 770.038,1040.38 772.091,999.079 774.144,1199.06 776.197,1143.4 778.249,1191.83 780.302,1193.52 782.355,1259.73 784.408,1217.09 786.461,1143.74 788.514,1158.91 790.567,1182.16 792.62,1143.33 794.673,1166.53 796.725,1173.64 798.778,1164.15 800.831,1194.14 802.884,1199.11 804.937,1133.74 806.99,1143.09 809.043,1156.71 811.096,1150.84 813.149,1189.61 815.202,1024.32 817.254,1197.42 819.307,1186.82 821.36,1173.32 823.413,1170.19 825.466,1159.29 827.519,1152.57 829.572,1206.76 831.625,1199.13 833.678,1204.52 835.73,1148.23 837.783,1172.96 839.836,1117.34 841.889,1322.47 843.942,1312.22 845.995,1123.4 848.048,1166.39 850.101,1165.63 852.154,1159.51 854.206,1169.23 856.259,1186.89 858.312,1159.86 860.365,1158.3 862.418,1203.66 864.471,1136.94 866.524,1148.52 868.577,1127.6 870.63,1194.8 872.682,1498.47 874.735,1063.15 876.788,1197.76 878.841,1182.68 880.894,1242.74 882.947,1234.49 885,1111.98 887.053,1242.12 889.106,1017.73 891.159,1004.8 893.211,1146.17 895.264,1663.51 897.317,1271.63 899.37,1301.34 901.423,1142.88 903.476,1161.85 905.529,1182.04 907.582,1151.45 909.635,1204.51 911.687,1155.98 913.74,1206.56 915.793,1220.12 917.846,1181.57 919.899,1207.54 921.952,1134.3 924.005,1153.2 926.058,1239.68 928.111,1268.98 930.163,1303.83 932.216,595.318 934.269,1409.52 936.322,4507.13 938.375,-1182.6 940.428,2725.14 942.481,718.906 944.534,-1898.35 946.587,1446.43 948.639,1889.86 950.692,886.069 952.745,1526.35 954.798,878.823 956.851,1412.51 958.904,1218.62 960.957,1102.69 963.01,2270.21 965.063,1075.58 967.116,1099.53 969.168,1179.67 971.221,1126.24 973.274,1123.88 975.327,1189.56 977.38,1160.36 979.433,1159.55 981.486,1189.04 983.539,1169.52 985.592,1171.82 987.644,1137.08 989.697,1141.59 991.75,1102.56 993.803,1231.6 995.856,1031.39 997.909,1143.27 999.962,1180.32 1002.01,1206.37 1004.07,1168.84 1006.12,1241.9 1008.17,1250.75 1010.23,1142.87 1012.28,1111.39 1014.33,1245.61 1016.38,1161.37 1018.44,1109.47 1020.49,1170.51 1022.54,1141.92 1024.6,1171.06 1026.65,1124.96 1028.7,1189.66 1030.76,1163.5 1032.81,1186.57 1034.86,1147.59 1036.91,1135.29 1038.97,1245.41 1041.02,1200.63 1043.07,1132.61 1045.13,1142.07 1047.18,1042.98 1049.23,1067.12 1051.28,1126.3 1053.34,1094.15 1055.39,1146.96 1057.44,1177.8 1059.5,1194.9 1061.55,1201.05 1063.6,1125.29 1065.65,1173.12 1067.71,1163.11 1069.76,1166.7 1071.81,1167.9 1073.87,1126.96 1075.92,1157.08 1077.97,1151.13 1080.02,1094.93 1082.08,1184.54 1084.13,1323.85 1086.18,1072.33 1088.24,1189.76 1090.29,1150.26 1092.34,1201.31 1094.39,1291.88 1096.45,1295.33 1098.5,1407.19 1100.55,1479.09 1102.61,1197.4 1104.66,1129.58 1106.71,1229.7 1108.77,955.197 1110.82,1237.17 1112.87,1190.75 1114.92,1158.18 1116.98,1181.55 1119.03,1150.89 1121.08,1194.81 1123.14,1157.35 1125.19,1126.06 1127.24,1096.19 1129.29,1289.13 1131.35,1450.66 1133.4,974.253 1135.45,1228.88 1137.51,1171.72 1139.56,1171.71 1141.61,1163.51 1143.66,1188.26 1145.72,1158.79 1147.77,1066.2 1149.82,1137.25 1151.88,1145.53 1153.93,1089.4 1155.98,1220.89 1158.03,1113.24 1160.09,1304.52 1162.14,1140.41 1164.19,1182.79 1166.25,1182.1 1168.3,1167.12 1170.35,1161.99 1172.4,1162.67 1174.46,1137.62 1176.51,1165.29 1178.56,1149.22 1180.62,1146.21 1182.67,1200.38 1184.72,1239.83 1186.77,1269.79 1188.83,1121.57 1190.88,1085.38 1192.93,1257.9 1194.99,1254.11 1197.04,1172.35 1199.09,1141.23 1201.15,1106.11 1203.2,1142.85 1205.25,1218.99 1207.3,1106.49 1209.36,1165.75 1211.41,1181.06 1213.46,1334.97 1215.52,1123.67 1217.57,1183.4 1219.62,979.073 1221.67,1222 1223.73,1182.55 1225.78,1176.4 1227.83,1177.46 1229.89,1167.87 1231.94,1153.1 1233.99,1168.83 1236.04,1144.99 1238.1,1155.63 1240.15,1155.61 1242.2,1212.26 1244.26,1165.32 1246.31,1170 1248.36,1161.72 1250.41,1172.29 1252.47,1126.84 1254.52,1382.66 1256.57,1043.17 1258.63,1071.03 1260.68,1192.85 1262.73,1124.24 1264.78,1128.93 1266.84,1219.57 1268.89,1136.35 1270.94,1217.98 1273,1346.95 1275.05,1353.07 1277.1,1354.1 1279.16,930.428 1281.21,1947.89 1283.26,1119.22 1285.31,1193.9 1287.37,1162.77 1289.42,1158.16 1291.47,1178.17 1293.53,1174.87 1295.58,1184.52 1297.63,1158.77 1299.68,1163.56 1301.74,1179.91 1303.79,1174.3 1305.84,1014.7 1307.9,1285.73 1309.95,1106.04 1312,1088.65 1314.05,1276.76 1316.11,1176.96 1318.16,1226.37 1320.21,1102.55 1322.27,1038.7 1324.32,1013.08 1326.37,1057.79 1328.42,1084.96 1330.48,1237.74 1332.53,977.194 1334.58,1092.62 1336.64,1204.16 1338.69,1215.07 1340.74,1223.96 1342.79,1282.41 1344.85,1019.34 1346.9,927.822 1348.95,1164.1 1351.01,1322.58 1353.06,1417.46 1355.11,1159.36 1357.16,1154.5 1359.22,1155.41 1361.27,1119.18 1363.32,1192.57 1365.38,1196.94 1367.43,1173.84 1369.48,1131.14 1371.54,1131.01 1373.59,1119.12 1375.64,1148.62 1377.69,1153.29 1379.75,1144.79 1381.8,1137.82 1383.85,1155.15 1385.91,1143.62 1387.96,1164.19 1390.01,1165.3 1392.06,1154.61 1394.12,1220.04 1396.17,1153.64 1398.22,1219.38 1400.28,1114.65 1402.33,1183.52 1404.38,1152.61 1406.43,1130.29 1408.49,1296.05 1410.54,1057.1 1412.59,1296.22 1414.65,1206.37 1416.7,1148.98 1418.75,1112.19 1420.8,1186.05 1422.86,1189.68 1424.91,1114.31 1426.96,1175.3 1429.02,1158.98 1431.07,1152.78 1433.12,1138.74 1435.17,1143.66 1437.23,1125.7 1439.28,1161.36 1441.33,1204.57 1443.39,1140.95 1445.44,1244.04 1447.49,1001.98 1449.55,1111.04 1451.6,1192.44 1453.65,1152.73 1455.7,1169.83 1457.76,1161.14 1459.81,1141.67 1461.86,1116.05 1463.92,1204.81 1465.97,1180.85 1468.02,1146.09 1470.07,1172.35 1472.13,1112.3 1474.18,1225.25 1476.23,1181.42 1478.29,1143.56 1480.34,1127.62 1482.39,1189.54 1484.44,1422.19 1486.5,1651.82 1488.55,2044.22 1490.6,2155.18 1492.66,1337.48 1494.71,1283.66 1496.76,1046.6 1498.81,1256.56 1500.87,1401.7 1502.92,1184.63 1504.97,1154.89 1507.03,1178.05 1509.08,1218.01 1511.13,1199.35 1513.18,1148.46 1515.24,1194.11 1517.29,1129.09 1519.34,1127.56 1521.4,1208.75 1523.45,1128.88 1525.5,1187.86 1527.55,1174.15 1529.61,1166.58 1531.66,1152.73 1533.71,1479.8 1535.77,1173.41 1537.82,1164.91 1539.87,1154.37 1541.93,1149.31 1543.98,1148.65 1546.03,1259.53 1548.08,1200.41 1550.14,1200.65 1552.19,1165.29 1554.24,1167.06 1556.3,1179.23 1558.35,1175.12 1560.4,1132.25 1562.45,1196.87 1564.51,1104.22 1566.56,1090.73 1568.61,1132.6 1570.67,1198.16 1572.72,1128.23 1574.77,1188.97 1576.82,1175.59 1578.88,1157.85 1580.93,1161.73 1582.98,1162.1 1585.04,1161.93 1587.09,1153.69 1589.14,1154.42 1591.19,1144.89 1593.25,1173.1 1595.3,1163.03 1597.35,329.041 1599.41,2645.41 1601.46,1630.49 1603.51,1213.72 1605.56,1196.72 1607.62,1165.31 1609.67,1148.83 1611.72,1145.47 1613.78,1213.02 1615.83,1142.8 1617.88,1219.84 1619.94,1344.62 1621.99,1506.42 1624.04,1544.17 1626.09,1154.7 1628.15,1176 1630.2,1099 1632.25,1148.24 1634.31,1194.7 1636.36,1181.65 1638.41,1140.54 1640.46,1175.77 1642.52,1149.45 1644.57,1157.96 1646.62,1134.54 1648.68,1136.52 1650.73,1156.21 1652.78,1177.24 1654.83,1172.78 1656.89,1178.39 1658.94,1233.82 1660.99,1118.81 1663.05,1144.5 1665.1,1194.52 1667.15,1178.44 1669.2,1143.28 1671.26,1161.72 1673.31,1163.22 1675.36,1146.54 1677.42,1029.94 1679.47,1085.93 1681.52,863.592 1683.57,1335.78 1685.63,1050.11 1687.68,1109.95 1689.73,1167.91 1691.79,1209.12 1693.84,1146.54 1695.89,1147.19 1697.94,1192.05 1700,1204.73 1702.05,1135.74 1704.1,1131.6 1706.16,1198.19 1708.21,1285.21 1710.26,1219.94 1712.32,746.629 1714.37,1193.59 1716.42,286.745 1718.47,2364.57 1720.53,1428.93 1722.58,1450.26 1724.63,962.704 1726.69,608.536 1728.74,1709.19 1730.79,623.444 1732.84,1051.95 1734.9,1160.56 1736.95,1176.45 1739,1178.92 1741.06,966.616 1743.11,1122.4 1745.16,1226.17 1747.21,1010.64 1749.27,1183.43 1751.32,1177.04 1753.37,966.942 1755.43,1363.24 1757.48,751.237 1759.53,972.812 1761.58,1131.89 1763.64,1146.69 1765.69,1050.96 1767.74,737.768 1769.8,959.409 1771.85,1168.5 1773.9,1144.07 1775.95,1326.07 1778.01,1238.98 1780.06,1309.1 1782.11,1056.97 1784.17,1200.45 1786.22,1175.12 1788.27,1164.87 1790.33,1048.34 1792.38,1196.61 1794.43,1276.5 1796.48,1529.61 1798.54,1121.08 1800.59,1207.32 1802.64,1046.62 1804.7,1126.22 1806.75,1145.15 1808.8,1179.12 1810.85,1179.2 1812.91,1191.25 1814.96,1140.36 1817.01,1157.27 1819.07,1182.41 1821.12,1146.26 1823.17,1243.16 1825.22,1138.48 1827.28,1149.93 1829.33,1162.52 1831.38,1134.44 1833.44,1181.59 1835.49,1193.2 1837.54,1221.26 1839.59,1126.69 1841.65,1338.65 1843.7,1054.62 1845.75,1188.04 1847.81,994.791 1849.86,1188.66 1851.91,1239.49 1853.96,1115.9 1856.02,1154.32 1858.07,1166.94 1860.12,1182.18 1862.18,1177.18 1864.23,1181.27 1866.28,1219.9 1868.34,1224.5 1870.39,1163.83 1872.44,1171.81 1874.49,884.928 1876.55,1113.47 1878.6,3933.07 1880.65,473.772 1882.71,1423.97 1884.76,617.228 1886.81,1880.58 1888.86,635.801 1890.92,1268.9 1892.97,1182.07 1895.02,1197.77 1897.08,1221.45 1899.13,1246.36 1901.18,1154.05 1903.23,1127.82 1905.29,1188.35 1907.34,1153.57 1909.39,1194.83 1911.45,1088.29 1913.5,1148.98 1915.55,1137.98 1917.6,1378.67 1919.66,1250.65 1921.71,1031.95 1923.76,1208.94 1925.82,1186.79 1927.87,1135.58 1929.92,1220.3 1931.97,1189.45 1934.03,1200.78 1936.08,1044.03 1938.13,1208.03 1940.19,1164.11 1942.24,1154.4 1944.29,1148.72 1946.34,1260.27 1948.4,1120.02 1950.45,1190.97 1952.5,1169.13 1954.56,1166 1956.61,1165.81 1958.66,1188.17 1960.72,1175.41 1962.77,1168.09 1964.82,1145.09 1966.87,1163.18 1968.93,1173.72 1970.98,1175.93 1973.03,1166.17 1975.09,1169.75 1977.14,1166.31 1979.19,1153.75 1981.24,1156.55 1983.3,1144.33 1985.35,1309.45 1987.4,1154.87 1989.46,1148.5 1991.51,1087.79 1993.56,1326.87 1995.61,1299.4 1997.67,1179.01 1999.72,1080.69 2001.77,1054.59 2003.83,1270.53 2005.88,1085.51 2007.93,1272.7 2009.98,1146.4 2012.04,1157.72 2014.09,1148.61 2016.14,1177.13 2018.2,1323.94 2020.25,1120.04 2022.3,1204.16 2024.35,1163.66 2026.41,1125.11 2028.46,1208.29 2030.51,1094.08 2032.57,1117.34 2034.62,1253.22 2036.67,1304.03 2038.73,1097.32 2040.78,1097.83 2042.83,1184.19 2044.88,1177.96 2046.94,1182.33 2048.99,1148.99 2051.04,1129.05 2053.1,1210.27 2055.15,1159.04 2057.2,1156.15 2059.25,1159.69 2061.31,1111.05 2063.36,1257.77 2065.41,1008.43 2067.47,1356.47 2069.52,1198.04 2071.57,1171.25 2073.62,1155.15 2075.68,1160.6 2077.73,1186.41 2079.78,1281.35 2081.84,1060.34 2083.89,1149.95 2085.94,1309.9 2087.99,1142.03 2090.05,1193.58 2092.1,1226.68 2094.15,1153.16 2096.21,1152.19 2098.26,1193.54 2100.31,1145.66 2102.36,1146.06 2104.42,1141.14 2106.47,1199.28 2108.52,1157.51 2110.58,1150.21 2112.63,1189.47 2114.68,1303.28 2116.73,1382.51 2118.79,689.901 2120.84,787.014 2122.89,895.474 2124.95,941.872 2127,1519.37 2129.05,1701.33 2131.11,718.511 2133.16,1556.83 2135.21,1348.78 2137.26,2649.68 2139.32,1435.28 2141.37,1157.19 2143.42,1223.91 2145.48,1094.4 2147.53,1198.57 2149.58,1143.61 2151.63,1170.08 2153.69,1163.01 2155.74,1138.14 2157.79,1202.49 2159.85,1165.58 2161.9,1149.73 2163.95,1142.36 2166,1188.2 2168.06,1268.76 2170.11,1238.08 2172.16,1189.35 2174.22,1158.88 2176.27,1158.88 2178.32,1149.64 2180.37,1228.32 2182.43,1128.91 2184.48,1217.77 2186.53,1236.17 2188.59,1067.13 2190.64,1148.35 2192.69,1215.04 2194.74,1203.52 2196.8,1237.25 2198.85,1345.07 2200.9,1605.9 2202.96,675.418 2205.01,1389.52 2207.06,1161.35 2209.12,1176.16 2211.17,1156.8 2213.22,1185.54 2215.27,1168 2217.33,1167.15 2219.38,1178.55 2221.43,1169.95 2223.49,1166.46 2225.54,1160.28 2227.59,1191.77 2229.64,1111.98 2231.7,1405.4 2233.75,1200.68 2235.8,794.931 2237.86,1347.75 2239.91,1262.4 2241.96,1184.1 2244.01,1187.28 2246.07,1182.31 2248.12,1170.44 2250.17,1173.53 2252.23,1154.77 2254.28,1156.85 2256.33,1167.47 2258.38,1112.31 2260.44,1099.14 2262.49,1155.35 2264.54,1155.36 2266.6,1208.44 2268.65,1164.52 2270.7,1146.67 2272.75,1200.24 2274.81,1107.98 2276.86,1090.92 2278.91,1232.69 2280.97,1412.2 2283.02,788.466 2285.07,1138.41 2287.12,642.175 2289.18,528.195 2291.23,1350.8 "/>
<path clip-path="url(#clip240)" d="M1942.7 972.231 L2280.29 972.231 L2280.29 868.551 L1942.7 868.551  Z" fill="#ffffff" fill-rule="evenodd" fill-opacity="1"/>
<polyline clip-path="url(#clip240)" style="stroke:#000000; stroke-linecap:round; stroke-linejoin:round; stroke-width:4; stroke-opacity:1; fill:none" points="1942.7,972.231 2280.29,972.231 2280.29,868.551 1942.7,868.551 1942.7,972.231 "/>
<polyline clip-path="url(#clip240)" style="stroke:#009af9; stroke-linecap:round; stroke-linejoin:round; stroke-width:4; stroke-opacity:1; fill:none" points="1966.85,920.391 2111.78,920.391 "/>
<path clip-path="url(#clip240)" d="M2161.49 932.74 L2161.49 923.458 L2153.85 923.458 L2153.85 919.615 L2166.12 919.615 L2166.12 934.453 Q2163.41 936.375 2160.14 937.37 Q2156.88 938.342 2153.18 938.342 Q2145.07 938.342 2140.49 933.62 Q2135.93 928.875 2135.93 920.426 Q2135.93 911.953 2140.49 907.231 Q2145.07 902.486 2153.18 902.486 Q2156.56 902.486 2159.59 903.319 Q2162.64 904.153 2165.21 905.773 L2165.21 910.75 Q2162.62 908.551 2159.7 907.44 Q2156.79 906.328 2153.57 906.328 Q2147.23 906.328 2144.03 909.87 Q2140.86 913.412 2140.86 920.426 Q2140.86 927.416 2144.03 930.958 Q2147.23 934.5 2153.57 934.5 Q2156.05 934.5 2157.99 934.083 Q2159.94 933.643 2161.49 932.74 Z" fill="#000000" fill-rule="nonzero" fill-opacity="1" /><path clip-path="url(#clip240)" d="M2179.33 906.953 L2179.33 919.94 L2185.21 919.94 Q2188.48 919.94 2190.26 918.25 Q2192.04 916.56 2192.04 913.435 Q2192.04 910.333 2190.26 908.643 Q2188.48 906.953 2185.21 906.953 L2179.33 906.953 M2174.66 903.111 L2185.21 903.111 Q2191.02 903.111 2193.99 905.75 Q2196.97 908.365 2196.97 913.435 Q2196.97 918.551 2193.99 921.166 Q2191.02 923.782 2185.21 923.782 L2179.33 923.782 L2179.33 937.671 L2174.66 937.671 L2174.66 903.111 Z" fill="#000000" fill-rule="nonzero" fill-opacity="1" /><path clip-path="url(#clip240)" d="M2223.96 904.245 L2223.96 908.805 Q2221.3 907.532 2218.94 906.907 Q2216.58 906.282 2214.38 906.282 Q2210.56 906.282 2208.48 907.764 Q2206.42 909.245 2206.42 911.977 Q2206.42 914.268 2207.78 915.449 Q2209.17 916.606 2213.01 917.324 L2215.84 917.902 Q2221.07 918.898 2223.55 921.421 Q2226.05 923.921 2226.05 928.134 Q2226.05 933.157 2222.67 935.75 Q2219.31 938.342 2212.81 938.342 Q2210.35 938.342 2207.57 937.787 Q2204.82 937.231 2201.86 936.143 L2201.86 931.328 Q2204.7 932.926 2207.44 933.736 Q2210.17 934.546 2212.81 934.546 Q2216.81 934.546 2218.99 932.972 Q2221.16 931.398 2221.16 928.481 Q2221.16 925.935 2219.59 924.5 Q2218.04 923.064 2214.47 922.347 L2211.62 921.791 Q2206.39 920.75 2204.06 918.527 Q2201.72 916.305 2201.72 912.347 Q2201.72 907.764 2204.94 905.125 Q2208.18 902.486 2213.85 902.486 Q2216.28 902.486 2218.8 902.926 Q2221.32 903.366 2223.96 904.245 Z" fill="#000000" fill-rule="nonzero" fill-opacity="1" /><path clip-path="url(#clip240)" d="M2254.06 904.245 L2254.06 908.805 Q2251.39 907.532 2249.03 906.907 Q2246.67 906.282 2244.47 906.282 Q2240.65 906.282 2238.57 907.764 Q2236.51 909.245 2236.51 911.977 Q2236.51 914.268 2237.87 915.449 Q2239.26 916.606 2243.11 917.324 L2245.93 917.902 Q2251.16 918.898 2253.64 921.421 Q2256.14 923.921 2256.14 928.134 Q2256.14 933.157 2252.76 935.75 Q2249.4 938.342 2242.9 938.342 Q2240.44 938.342 2237.67 937.787 Q2234.91 937.231 2231.95 936.143 L2231.95 931.328 Q2234.8 932.926 2237.53 933.736 Q2240.26 934.546 2242.9 934.546 Q2246.9 934.546 2249.08 932.972 Q2251.25 931.398 2251.25 928.481 Q2251.25 925.935 2249.68 924.5 Q2248.13 923.064 2244.56 922.347 L2241.72 921.791 Q2236.49 920.75 2234.15 918.527 Q2231.81 916.305 2231.81 912.347 Q2231.81 907.764 2235.03 905.125 Q2238.27 902.486 2243.94 902.486 Q2246.37 902.486 2248.89 902.926 Q2251.42 903.366 2254.06 904.245 Z" fill="#000000" fill-rule="nonzero" fill-opacity="1" /></svg>
