<?xml version="1.0" encoding="utf-8"?>
<svg xmlns="http://www.w3.org/2000/svg" xmlns:xlink="http://www.w3.org/1999/xlink" width="600" height="400" viewBox="0 0 2400 1600">
<defs>
  <clipPath id="clip290">
    <rect x="0" y="0" width="2400" height="1600"/>
  </clipPath>
</defs>
<path clip-path="url(#clip290)" d="M0 1600 L2400 1600 L2400 0 L0 0  Z" fill="#ffffff" fill-rule="evenodd" fill-opacity="1"/>
<defs>
  <clipPath id="clip291">
    <rect x="257" y="47" width="2097" height="1377"/>
  </clipPath>
</defs>
<path clip-path="url(#clip290)" d="M178.867 686.448 L2352.76 686.448 L2352.76 47.2441 L178.867 47.2441  Z" fill="#ffffff" fill-rule="evenodd" fill-opacity="1"/>
<defs>
  <clipPath id="clip292">
    <rect x="178" y="47" width="2175" height="640"/>
  </clipPath>
</defs>
<polyline clip-path="url(#clip292)" style="stroke:#000000; stroke-linecap:round; stroke-linejoin:round; stroke-width:2; stroke-opacity:0.1; fill:none" points="238.339,686.448 238.339,47.2441 "/>
<polyline clip-path="url(#clip292)" style="stroke:#000000; stroke-linecap:round; stroke-linejoin:round; stroke-width:2; stroke-opacity:0.1; fill:none" points="751.562,686.448 751.562,47.2441 "/>
<polyline clip-path="url(#clip292)" style="stroke:#000000; stroke-linecap:round; stroke-linejoin:round; stroke-width:2; stroke-opacity:0.1; fill:none" points="1264.78,686.448 1264.78,47.2441 "/>
<polyline clip-path="url(#clip292)" style="stroke:#000000; stroke-linecap:round; stroke-linejoin:round; stroke-width:2; stroke-opacity:0.1; fill:none" points="1778.01,686.448 1778.01,47.2441 "/>
<polyline clip-path="url(#clip292)" style="stroke:#000000; stroke-linecap:round; stroke-linejoin:round; stroke-width:2; stroke-opacity:0.1; fill:none" points="2291.23,686.448 2291.23,47.2441 "/>
<polyline clip-path="url(#clip292)" style="stroke:#000000; stroke-linecap:round; stroke-linejoin:round; stroke-width:2; stroke-opacity:0.1; fill:none" points="178.867,686.448 2352.76,686.448 "/>
<polyline clip-path="url(#clip292)" style="stroke:#000000; stroke-linecap:round; stroke-linejoin:round; stroke-width:2; stroke-opacity:0.1; fill:none" points="178.867,526.647 2352.76,526.647 "/>
<polyline clip-path="url(#clip292)" style="stroke:#000000; stroke-linecap:round; stroke-linejoin:round; stroke-width:2; stroke-opacity:0.1; fill:none" points="178.867,366.846 2352.76,366.846 "/>
<polyline clip-path="url(#clip292)" style="stroke:#000000; stroke-linecap:round; stroke-linejoin:round; stroke-width:2; stroke-opacity:0.1; fill:none" points="178.867,207.045 2352.76,207.045 "/>
<polyline clip-path="url(#clip292)" style="stroke:#000000; stroke-linecap:round; stroke-linejoin:round; stroke-width:2; stroke-opacity:0.1; fill:none" points="178.867,47.2441 2352.76,47.2441 "/>
<polyline clip-path="url(#clip290)" style="stroke:#000000; stroke-linecap:round; stroke-linejoin:round; stroke-width:4; stroke-opacity:1; fill:none" points="178.867,686.448 2352.76,686.448 "/>
<polyline clip-path="url(#clip290)" style="stroke:#000000; stroke-linecap:round; stroke-linejoin:round; stroke-width:4; stroke-opacity:1; fill:none" points="238.339,686.448 238.339,667.55 "/>
<polyline clip-path="url(#clip290)" style="stroke:#000000; stroke-linecap:round; stroke-linejoin:round; stroke-width:4; stroke-opacity:1; fill:none" points="751.562,686.448 751.562,667.55 "/>
<polyline clip-path="url(#clip290)" style="stroke:#000000; stroke-linecap:round; stroke-linejoin:round; stroke-width:4; stroke-opacity:1; fill:none" points="1264.78,686.448 1264.78,667.55 "/>
<polyline clip-path="url(#clip290)" style="stroke:#000000; stroke-linecap:round; stroke-linejoin:round; stroke-width:4; stroke-opacity:1; fill:none" points="1778.01,686.448 1778.01,667.55 "/>
<polyline clip-path="url(#clip290)" style="stroke:#000000; stroke-linecap:round; stroke-linejoin:round; stroke-width:4; stroke-opacity:1; fill:none" points="2291.23,686.448 2291.23,667.55 "/>
<path clip-path="url(#clip290)" d="M238.339 717.367 Q234.728 717.367 232.899 720.931 Q231.094 724.473 231.094 731.603 Q231.094 738.709 232.899 742.274 Q234.728 745.815 238.339 745.815 Q241.973 745.815 243.779 742.274 Q245.607 738.709 245.607 731.603 Q245.607 724.473 243.779 720.931 Q241.973 717.367 238.339 717.367 M238.339 713.663 Q244.149 713.663 247.205 718.269 Q250.283 722.853 250.283 731.603 Q250.283 740.329 247.205 744.936 Q244.149 749.519 238.339 749.519 Q232.529 749.519 229.45 744.936 Q226.395 740.329 226.395 731.603 Q226.395 722.853 229.45 718.269 Q232.529 713.663 238.339 713.663 Z" fill="#000000" fill-rule="nonzero" fill-opacity="1" /><path clip-path="url(#clip290)" d="M715.254 744.913 L731.574 744.913 L731.574 748.848 L709.629 748.848 L709.629 744.913 Q712.291 742.158 716.875 737.528 Q721.481 732.876 722.662 731.533 Q724.907 729.01 725.787 727.274 Q726.689 725.515 726.689 723.825 Q726.689 721.07 724.745 719.334 Q722.824 717.598 719.722 717.598 Q717.523 717.598 715.069 718.362 Q712.638 719.126 709.861 720.677 L709.861 715.955 Q712.685 714.82 715.138 714.242 Q717.592 713.663 719.629 713.663 Q725 713.663 728.194 716.348 Q731.388 719.033 731.388 723.524 Q731.388 725.654 730.578 727.575 Q729.791 729.473 727.685 732.066 Q727.106 732.737 724.004 735.954 Q720.902 739.149 715.254 744.913 Z" fill="#000000" fill-rule="nonzero" fill-opacity="1" /><path clip-path="url(#clip290)" d="M741.435 714.288 L759.791 714.288 L759.791 718.223 L745.717 718.223 L745.717 726.695 Q746.736 726.348 747.754 726.186 Q748.773 726.001 749.791 726.001 Q755.578 726.001 758.958 729.172 Q762.337 732.343 762.337 737.76 Q762.337 743.339 758.865 746.44 Q755.393 749.519 749.073 749.519 Q746.898 749.519 744.629 749.149 Q742.384 748.778 739.976 748.038 L739.976 743.339 Q742.06 744.473 744.282 745.028 Q746.504 745.584 748.981 745.584 Q752.985 745.584 755.323 743.478 Q757.661 741.371 757.661 737.76 Q757.661 734.149 755.323 732.042 Q752.985 729.936 748.981 729.936 Q747.106 729.936 745.231 730.353 Q743.379 730.769 741.435 731.649 L741.435 714.288 Z" fill="#000000" fill-rule="nonzero" fill-opacity="1" /><path clip-path="url(#clip290)" d="M781.55 717.367 Q777.939 717.367 776.11 720.931 Q774.305 724.473 774.305 731.603 Q774.305 738.709 776.11 742.274 Q777.939 745.815 781.55 745.815 Q785.184 745.815 786.99 742.274 Q788.819 738.709 788.819 731.603 Q788.819 724.473 786.99 720.931 Q785.184 717.367 781.55 717.367 M781.55 713.663 Q787.36 713.663 790.416 718.269 Q793.495 722.853 793.495 731.603 Q793.495 740.329 790.416 744.936 Q787.36 749.519 781.55 749.519 Q775.74 749.519 772.661 744.936 Q769.606 740.329 769.606 731.603 Q769.606 722.853 772.661 718.269 Q775.74 713.663 781.55 713.663 Z" fill="#000000" fill-rule="nonzero" fill-opacity="1" /><path clip-path="url(#clip290)" d="M1224.4 714.288 L1242.76 714.288 L1242.76 718.223 L1228.69 718.223 L1228.69 726.695 Q1229.7 726.348 1230.72 726.186 Q1231.74 726.001 1232.76 726.001 Q1238.55 726.001 1241.93 729.172 Q1245.31 732.343 1245.31 737.76 Q1245.31 743.339 1241.83 746.44 Q1238.36 749.519 1232.04 749.519 Q1229.87 749.519 1227.6 749.149 Q1225.35 748.778 1222.94 748.038 L1222.94 743.339 Q1225.03 744.473 1227.25 745.028 Q1229.47 745.584 1231.95 745.584 Q1235.95 745.584 1238.29 743.478 Q1240.63 741.371 1240.63 737.76 Q1240.63 734.149 1238.29 732.042 Q1235.95 729.936 1231.95 729.936 Q1230.07 729.936 1228.2 730.353 Q1226.35 730.769 1224.4 731.649 L1224.4 714.288 Z" fill="#000000" fill-rule="nonzero" fill-opacity="1" /><path clip-path="url(#clip290)" d="M1264.52 717.367 Q1260.91 717.367 1259.08 720.931 Q1257.27 724.473 1257.27 731.603 Q1257.27 738.709 1259.08 742.274 Q1260.91 745.815 1264.52 745.815 Q1268.15 745.815 1269.96 742.274 Q1271.79 738.709 1271.79 731.603 Q1271.79 724.473 1269.96 720.931 Q1268.15 717.367 1264.52 717.367 M1264.52 713.663 Q1270.33 713.663 1273.38 718.269 Q1276.46 722.853 1276.46 731.603 Q1276.46 740.329 1273.38 744.936 Q1270.33 749.519 1264.52 749.519 Q1258.71 749.519 1255.63 744.936 Q1252.57 740.329 1252.57 731.603 Q1252.57 722.853 1255.63 718.269 Q1258.71 713.663 1264.52 713.663 Z" fill="#000000" fill-rule="nonzero" fill-opacity="1" /><path clip-path="url(#clip290)" d="M1294.68 717.367 Q1291.07 717.367 1289.24 720.931 Q1287.44 724.473 1287.44 731.603 Q1287.44 738.709 1289.24 742.274 Q1291.07 745.815 1294.68 745.815 Q1298.31 745.815 1300.12 742.274 Q1301.95 738.709 1301.95 731.603 Q1301.95 724.473 1300.12 720.931 Q1298.31 717.367 1294.68 717.367 M1294.68 713.663 Q1300.49 713.663 1303.55 718.269 Q1306.62 722.853 1306.62 731.603 Q1306.62 740.329 1303.55 744.936 Q1300.49 749.519 1294.68 749.519 Q1288.87 749.519 1285.79 744.936 Q1282.74 740.329 1282.74 731.603 Q1282.74 722.853 1285.79 718.269 Q1288.87 713.663 1294.68 713.663 Z" fill="#000000" fill-rule="nonzero" fill-opacity="1" /><path clip-path="url(#clip290)" d="M1736.28 714.288 L1758.51 714.288 L1758.51 716.279 L1745.96 748.848 L1741.08 748.848 L1752.88 718.223 L1736.28 718.223 L1736.28 714.288 Z" fill="#000000" fill-rule="nonzero" fill-opacity="1" /><path clip-path="url(#clip290)" d="M1767.67 714.288 L1786.03 714.288 L1786.03 718.223 L1771.95 718.223 L1771.95 726.695 Q1772.97 726.348 1773.99 726.186 Q1775.01 726.001 1776.03 726.001 Q1781.82 726.001 1785.2 729.172 Q1788.57 732.343 1788.57 737.76 Q1788.57 743.339 1785.1 746.44 Q1781.63 749.519 1775.31 749.519 Q1773.14 749.519 1770.87 749.149 Q1768.62 748.778 1766.21 748.038 L1766.21 743.339 Q1768.3 744.473 1770.52 745.028 Q1772.74 745.584 1775.22 745.584 Q1779.22 745.584 1781.56 743.478 Q1783.9 741.371 1783.9 737.76 Q1783.9 734.149 1781.56 732.042 Q1779.22 729.936 1775.22 729.936 Q1773.34 729.936 1771.47 730.353 Q1769.62 730.769 1767.67 731.649 L1767.67 714.288 Z" fill="#000000" fill-rule="nonzero" fill-opacity="1" /><path clip-path="url(#clip290)" d="M1807.79 717.367 Q1804.18 717.367 1802.35 720.931 Q1800.54 724.473 1800.54 731.603 Q1800.54 738.709 1802.35 742.274 Q1804.18 745.815 1807.79 745.815 Q1811.42 745.815 1813.23 742.274 Q1815.06 738.709 1815.06 731.603 Q1815.06 724.473 1813.23 720.931 Q1811.42 717.367 1807.79 717.367 M1807.79 713.663 Q1813.6 713.663 1816.65 718.269 Q1819.73 722.853 1819.73 731.603 Q1819.73 740.329 1816.65 744.936 Q1813.6 749.519 1807.79 749.519 Q1801.98 749.519 1798.9 744.936 Q1795.84 740.329 1795.84 731.603 Q1795.84 722.853 1798.9 718.269 Q1801.98 713.663 1807.79 713.663 Z" fill="#000000" fill-rule="nonzero" fill-opacity="1" /><path clip-path="url(#clip290)" d="M2235.76 744.913 L2243.4 744.913 L2243.4 718.547 L2235.09 720.214 L2235.09 715.955 L2243.35 714.288 L2248.02 714.288 L2248.02 744.913 L2255.66 744.913 L2255.66 748.848 L2235.76 748.848 L2235.76 744.913 Z" fill="#000000" fill-rule="nonzero" fill-opacity="1" /><path clip-path="url(#clip290)" d="M2275.11 717.367 Q2271.5 717.367 2269.67 720.931 Q2267.86 724.473 2267.86 731.603 Q2267.86 738.709 2269.67 742.274 Q2271.5 745.815 2275.11 745.815 Q2278.74 745.815 2280.55 742.274 Q2282.38 738.709 2282.38 731.603 Q2282.38 724.473 2280.55 720.931 Q2278.74 717.367 2275.11 717.367 M2275.11 713.663 Q2280.92 713.663 2283.97 718.269 Q2287.05 722.853 2287.05 731.603 Q2287.05 740.329 2283.97 744.936 Q2280.92 749.519 2275.11 749.519 Q2269.3 749.519 2266.22 744.936 Q2263.16 740.329 2263.16 731.603 Q2263.16 722.853 2266.22 718.269 Q2269.3 713.663 2275.11 713.663 Z" fill="#000000" fill-rule="nonzero" fill-opacity="1" /><path clip-path="url(#clip290)" d="M2305.27 717.367 Q2301.66 717.367 2299.83 720.931 Q2298.02 724.473 2298.02 731.603 Q2298.02 738.709 2299.83 742.274 Q2301.66 745.815 2305.27 745.815 Q2308.9 745.815 2310.71 742.274 Q2312.54 738.709 2312.54 731.603 Q2312.54 724.473 2310.71 720.931 Q2308.9 717.367 2305.27 717.367 M2305.27 713.663 Q2311.08 713.663 2314.14 718.269 Q2317.21 722.853 2317.21 731.603 Q2317.21 740.329 2314.14 744.936 Q2311.08 749.519 2305.27 749.519 Q2299.46 749.519 2296.38 744.936 Q2293.33 740.329 2293.33 731.603 Q2293.33 722.853 2296.38 718.269 Q2299.46 713.663 2305.27 713.663 Z" fill="#000000" fill-rule="nonzero" fill-opacity="1" /><path clip-path="url(#clip290)" d="M2335.43 717.367 Q2331.82 717.367 2329.99 720.931 Q2328.19 724.473 2328.19 731.603 Q2328.19 738.709 2329.99 742.274 Q2331.82 745.815 2335.43 745.815 Q2339.07 745.815 2340.87 742.274 Q2342.7 738.709 2342.7 731.603 Q2342.7 724.473 2340.87 720.931 Q2339.07 717.367 2335.43 717.367 M2335.43 713.663 Q2341.24 713.663 2344.3 718.269 Q2347.38 722.853 2347.38 731.603 Q2347.38 740.329 2344.3 744.936 Q2341.24 749.519 2335.43 749.519 Q2329.62 749.519 2326.54 744.936 Q2323.49 740.329 2323.49 731.603 Q2323.49 722.853 2326.54 718.269 Q2329.62 713.663 2335.43 713.663 Z" fill="#000000" fill-rule="nonzero" fill-opacity="1" /><polyline clip-path="url(#clip290)" style="stroke:#000000; stroke-linecap:round; stroke-linejoin:round; stroke-width:4; stroke-opacity:1; fill:none" points="178.867,686.448 178.867,47.2441 "/>
<polyline clip-path="url(#clip290)" style="stroke:#000000; stroke-linecap:round; stroke-linejoin:round; stroke-width:4; stroke-opacity:1; fill:none" points="178.867,686.448 197.764,686.448 "/>
<polyline clip-path="url(#clip290)" style="stroke:#000000; stroke-linecap:round; stroke-linejoin:round; stroke-width:4; stroke-opacity:1; fill:none" points="178.867,526.647 197.764,526.647 "/>
<polyline clip-path="url(#clip290)" style="stroke:#000000; stroke-linecap:round; stroke-linejoin:round; stroke-width:4; stroke-opacity:1; fill:none" points="178.867,366.846 197.764,366.846 "/>
<polyline clip-path="url(#clip290)" style="stroke:#000000; stroke-linecap:round; stroke-linejoin:round; stroke-width:4; stroke-opacity:1; fill:none" points="178.867,207.045 197.764,207.045 "/>
<polyline clip-path="url(#clip290)" style="stroke:#000000; stroke-linecap:round; stroke-linejoin:round; stroke-width:4; stroke-opacity:1; fill:none" points="178.867,47.2441 197.764,47.2441 "/>
<path clip-path="url(#clip290)" d="M50.9921 686.899 L80.6679 686.899 L80.6679 690.834 L50.9921 690.834 L50.9921 686.899 Z" fill="#000000" fill-rule="nonzero" fill-opacity="1" /><path clip-path="url(#clip290)" d="M91.5706 699.793 L99.2095 699.793 L99.2095 673.427 L90.8993 675.094 L90.8993 670.835 L99.1632 669.168 L103.839 669.168 L103.839 699.793 L111.478 699.793 L111.478 703.728 L91.5706 703.728 L91.5706 699.793 Z" fill="#000000" fill-rule="nonzero" fill-opacity="1" /><path clip-path="url(#clip290)" d="M130.922 672.247 Q127.311 672.247 125.482 675.811 Q123.677 679.353 123.677 686.483 Q123.677 693.589 125.482 697.154 Q127.311 700.695 130.922 700.695 Q134.556 700.695 136.362 697.154 Q138.191 693.589 138.191 686.483 Q138.191 679.353 136.362 675.811 Q134.556 672.247 130.922 672.247 M130.922 668.543 Q136.732 668.543 139.788 673.149 Q142.867 677.733 142.867 686.483 Q142.867 695.209 139.788 699.816 Q136.732 704.399 130.922 704.399 Q125.112 704.399 122.033 699.816 Q118.978 695.209 118.978 686.483 Q118.978 677.733 122.033 673.149 Q125.112 668.543 130.922 668.543 Z" fill="#000000" fill-rule="nonzero" fill-opacity="1" /><path clip-path="url(#clip290)" d="M82.1494 527.098 L111.825 527.098 L111.825 531.033 L82.1494 531.033 L82.1494 527.098 Z" fill="#000000" fill-rule="nonzero" fill-opacity="1" /><path clip-path="url(#clip290)" d="M121.964 509.367 L140.32 509.367 L140.32 513.302 L126.246 513.302 L126.246 521.774 Q127.265 521.427 128.283 521.265 Q129.302 521.08 130.32 521.08 Q136.107 521.08 139.487 524.251 Q142.867 527.422 142.867 532.839 Q142.867 538.418 139.394 541.52 Q135.922 544.598 129.603 544.598 Q127.427 544.598 125.158 544.228 Q122.913 543.857 120.506 543.117 L120.506 538.418 Q122.589 539.552 124.811 540.108 Q127.033 540.663 129.51 540.663 Q133.515 540.663 135.853 538.557 Q138.191 536.45 138.191 532.839 Q138.191 529.228 135.853 527.121 Q133.515 525.015 129.51 525.015 Q127.635 525.015 125.76 525.432 Q123.908 525.848 121.964 526.728 L121.964 509.367 Z" fill="#000000" fill-rule="nonzero" fill-opacity="1" /><path clip-path="url(#clip290)" d="M130.922 352.645 Q127.311 352.645 125.482 356.209 Q123.677 359.751 123.677 366.881 Q123.677 373.987 125.482 377.552 Q127.311 381.094 130.922 381.094 Q134.556 381.094 136.362 377.552 Q138.191 373.987 138.191 366.881 Q138.191 359.751 136.362 356.209 Q134.556 352.645 130.922 352.645 M130.922 348.941 Q136.732 348.941 139.788 353.547 Q142.867 358.131 142.867 366.881 Q142.867 375.608 139.788 380.214 Q136.732 384.797 130.922 384.797 Q125.112 384.797 122.033 380.214 Q118.978 375.608 118.978 366.881 Q118.978 358.131 122.033 353.547 Q125.112 348.941 130.922 348.941 Z" fill="#000000" fill-rule="nonzero" fill-opacity="1" /><path clip-path="url(#clip290)" d="M121.964 189.765 L140.32 189.765 L140.32 193.7 L126.246 193.7 L126.246 202.172 Q127.265 201.825 128.283 201.663 Q129.302 201.478 130.32 201.478 Q136.107 201.478 139.487 204.649 Q142.867 207.82 142.867 213.237 Q142.867 218.816 139.394 221.918 Q135.922 224.996 129.603 224.996 Q127.427 224.996 125.158 224.626 Q122.913 224.256 120.506 223.515 L120.506 218.816 Q122.589 219.95 124.811 220.506 Q127.033 221.061 129.51 221.061 Q133.515 221.061 135.853 218.955 Q138.191 216.848 138.191 213.237 Q138.191 209.626 135.853 207.52 Q133.515 205.413 129.51 205.413 Q127.635 205.413 125.76 205.83 Q123.908 206.246 121.964 207.126 L121.964 189.765 Z" fill="#000000" fill-rule="nonzero" fill-opacity="1" /><path clip-path="url(#clip290)" d="M91.5706 60.5889 L99.2095 60.5889 L99.2095 34.2233 L90.8993 35.89 L90.8993 31.6308 L99.1632 29.9641 L103.839 29.9641 L103.839 60.5889 L111.478 60.5889 L111.478 64.5241 L91.5706 64.5241 L91.5706 60.5889 Z" fill="#000000" fill-rule="nonzero" fill-opacity="1" /><path clip-path="url(#clip290)" d="M130.922 33.0428 Q127.311 33.0428 125.482 36.6076 Q123.677 40.1492 123.677 47.2788 Q123.677 54.3853 125.482 57.9501 Q127.311 61.4917 130.922 61.4917 Q134.556 61.4917 136.362 57.9501 Q138.191 54.3853 138.191 47.2788 Q138.191 40.1492 136.362 36.6076 Q134.556 33.0428 130.922 33.0428 M130.922 29.3391 Q136.732 29.3391 139.788 33.9456 Q142.867 38.5289 142.867 47.2788 Q142.867 56.0056 139.788 60.6121 Q136.732 65.1954 130.922 65.1954 Q125.112 65.1954 122.033 60.6121 Q118.978 56.0056 118.978 47.2788 Q118.978 38.5289 122.033 33.9456 Q125.112 29.3391 130.922 29.3391 Z" fill="#000000" fill-rule="nonzero" fill-opacity="1" /><polyline clip-path="url(#clip292)" style="stroke:#009af9; stroke-linecap:round; stroke-linejoin:round; stroke-width:4; stroke-opacity:1; fill:none" points="240.392,334.886 242.445,338.674 244.498,338.672 246.55,270.985 248.603,270.256 250.656,389.195 252.709,389.203 254.762,401.375 256.815,386.908 258.868,385.358 260.921,378.989 262.974,367.884 265.027,367.887 267.079,369.062 269.132,361.819 271.185,361.428 273.238,361.257 275.291,360.782 277.344,355.852 279.397,374.159 281.45,374.76 283.503,375.032 285.555,391.086 287.608,359.822 289.661,359.916 291.714,370.456 293.767,370.592 295.82,370.762 297.873,377.208 299.926,377.189 301.979,377.451 304.031,367.103 306.084,371.171 308.137,371.423 310.19,366.763 312.243,367.784 314.296,358.968 316.349,354.198 318.402,349.941 320.455,348.623 322.507,354.148 324.56,345.897 326.613,338.169 328.666,352.525 330.719,351.672 332.772,349.885 334.825,360.325 336.878,360.233 338.931,360.224 340.984,360.601 343.036,363.791 345.089,361.911 347.142,369.366 349.195,401.593 351.248,401.33 353.301,405.035 355.354,405.203 357.407,400.503 359.46,398.719 361.512,400.501 363.565,382.603 365.618,377.264 367.671,375.232 369.724,375.97 371.777,377.563 373.83,373.475 375.883,388.087 377.936,388.962 379.988,388.812 382.041,391.659 384.094,389.59 386.147,358.908 388.2,357.249 390.253,350.941 392.306,344.478 394.359,344.491 396.412,344.921 398.464,345.769 400.517,346.151 402.57,346.373 404.623,346.691 406.676,347.016 408.729,348.496 410.782,348.184 412.835,357.455 414.888,357.119 416.94,358.214 418.993,359.507 421.046,354.334 423.099,358.192 425.152,350.195 427.205,363.215 429.258,365.852 431.311,367.033 433.364,367.041 435.417,366.867 437.469,365.646 439.522,365.905 441.575,370.577 443.628,371.201 445.681,370.675 447.734,368.351 449.787,358.622 451.84,359.326 453.893,359.296 455.945,368.931 457.998,365.92 460.051,363.042 462.104,363.767 464.157,363.786 466.21,385.83 468.263,384.295 470.316,376.719 472.369,376.914 474.421,376.913 476.474,376.596 478.527,376.434 480.58,376.472 482.633,375.628 484.686,380.452 486.739,371.526 488.792,371.725 490.845,377.138 492.897,382.617 494.95,384.465 497.003,384.404 499.056,390.449 501.109,390.426 503.162,360.173 505.215,361.521 507.268,372.285 509.321,371.764 511.374,366.629 513.426,366.628 515.479,366.328 517.532,366.781 519.585,366.931 521.638,361.064 523.691,373.19 525.744,372.978 527.797,352.496 529.85,364.169 531.902,394.144 533.955,393.88 536.008,387.48 538.061,387.453 540.114,387.804 542.167,370.88 544.22,345.851 546.273,339.147 548.326,340.204 550.378,390.359 552.431,381.845 554.484,364.665 556.537,345.723 558.59,348.919 560.643,336.284 562.696,329.856 564.749,331.035 566.802,331.952 568.854,332.146 570.907,313.459 572.96,313.492 575.013,313.444 577.066,307.164 579.119,307.155 581.172,310.598 583.225,308.574 585.278,302.241 587.331,311.976 589.383,311.797 591.436,330.557 593.489,328.687 595.542,322.063 597.595,322.265 599.648,397.893 601.701,397.674 603.754,380.753 605.807,396.724 607.859,407.092 609.912,411.784 611.965,410.997 614.018,411.002 616.071,466.797 618.124,466.428 620.177,467.06 622.23,466.706 624.283,463.094 626.335,482.725 628.388,476.524 630.441,427.719 632.494,410.172 634.547,408.688 636.6,408.323 638.653,408.742 640.706,391.134 642.759,390.4 644.811,390.476 646.864,389.056 648.917,401.11 650.97,397.579 653.023,413.764 655.076,414.379 657.129,408.961 659.182,394.271 661.235,399.265 663.288,399.49 665.34,398.902 667.393,338.319 669.446,340.253 671.499,338.733 673.552,337.46 675.605,337.533 677.658,322.217 679.711,343.016 681.764,341.892 683.816,351.863 685.869,351.86 687.922,352.258 689.975,352.745 692.028,356.124 694.081,359.792 696.134,364.222 698.187,363.777 700.24,360.086 702.292,359.711 704.345,395.879 706.398,395.873 708.451,396.012 710.504,395.947 712.557,386.264 714.61,386.62 716.663,387.109 718.716,387.095 720.768,393.121 722.821,400.388 724.874,350.716 726.927,353.555 728.98,354.744 731.033,354.682 733.086,358.771 735.139,358.491 737.192,353.212 739.245,353.504 741.297,348.748 743.35,347.804 745.403,349.303 747.456,351.262 749.509,351.914 751.562,351.495 753.615,347.303 755.668,358.064 757.721,359.041 759.773,332.952 761.826,328.108 763.879,331.846 765.932,339.085 767.985,338.227 770.038,392.534 772.091,406.158 774.144,407.802 776.197,415.64 778.249,415.178 780.302,416.208 782.355,414.68 784.408,430.992 786.461,400.768 788.514,387.823 790.567,387.822 792.62,389.398 794.673,383.744 796.725,324.713 798.778,300.492 800.831,353.208 802.884,387.637 804.937,389.553 806.99,390.471 809.043,390.429 811.096,408.068 813.149,424.824 815.202,393.814 817.254,423.93 819.307,410.9 821.36,426.142 823.413,357.03 825.466,358.28 827.519,364.58 829.572,363.357 831.625,369.308 833.678,365.791 835.73,402.312 837.783,336.726 839.836,334.059 841.889,432.74 843.942,437.37 845.995,428.981 848.048,423.912 850.101,390.6 852.154,392.827 854.206,392.829 856.259,402.436 858.312,399.256 860.365,397.797 862.418,390.891 864.471,391.288 866.524,372.03 868.577,357.386 870.63,352.316 872.682,355.754 874.735,392.226 876.788,404.016 878.841,408.831 880.894,411.36 882.947,410.947 885,377.015 887.053,374.979 889.106,374.128 891.159,374.159 893.211,412.339 895.264,407.423 897.317,410.268 899.37,358.731 901.423,360.464 903.476,362.977 905.529,379.786 907.582,378.19 909.635,341.164 911.687,341.096 913.74,335.976 915.793,350.272 917.846,406.942 919.899,406.755 921.952,379.081 924.005,378.18 926.058,370.893 928.111,374.401 930.163,381.831 932.216,382.126 934.269,385.578 936.322,341.648 938.375,329.306 940.428,413.287 942.481,406.716 944.534,408.097 946.587,413.295 948.639,412.13 950.692,411.929 952.745,411.929 954.798,395.955 956.851,380.02 958.904,380.007 960.957,380.142 963.01,379.936 965.063,377.742 967.116,378.42 969.168,380.445 971.221,380.577 973.274,385.462 975.327,390.539 977.38,390.842 979.433,374.411 981.486,376.039 983.539,376.554 985.592,367.246 987.644,364.877 989.697,355.501 991.75,372.064 993.803,359.008 995.856,358.032 997.909,360.353 999.962,360.426 1002.01,353.59 1004.07,354.217 1006.12,357.307 1008.17,357.123 1010.23,372.039 1012.28,378.105 1014.33,374.015 1016.38,382.994 1018.44,399.653 1020.49,400.553 1022.54,404.714 1024.6,405.524 1026.65,406.579 1028.7,407.573 1030.76,409.818 1032.81,408.724 1034.86,403.095 1036.91,401.243 1038.97,401.02 1041.02,385.532 1043.07,382.229 1045.13,381.811 1047.18,365.034 1049.23,364.588 1051.28,364.593 1053.34,365.967 1055.39,366.888 1057.44,366.978 1059.5,368.989 1061.55,370.45 1063.6,372.821 1065.65,373.207 1067.71,373.828 1069.76,373.566 1071.81,373.54 1073.87,373.103 1075.92,374.033 1077.97,370.195 1080.02,395.072 1082.08,394.904 1084.13,396.798 1086.18,395.818 1088.24,396.905 1090.29,400.857 1092.34,347.993 1094.39,389.844 1096.45,389.858 1098.5,384.313 1100.55,364.354 1102.61,377.606 1104.66,393.009 1106.71,331.177 1108.77,332.466 1110.82,339.064 1112.87,341.561 1114.92,358.254 1116.98,358.244 1119.03,362.521 1121.08,359.228 1123.14,359.35 1125.19,351.089 1127.24,351.057 1129.29,345.132 1131.35,351.606 1133.4,359.54 1135.45,359.783 1137.51,370.405 1139.56,370.244 1141.61,369.985 1143.66,370.056 1145.72,374.15 1147.77,369.467 1149.82,369.36 1151.88,369.328 1153.93,354.539 1155.98,355.414 1158.03,354.306 1160.09,347.219 1162.14,346.744 1164.19,334.581 1166.25,332.899 1168.3,327.856 1170.35,330.692 1172.4,331.844 1174.46,347.073 1176.51,358.215 1178.56,373.949 1180.62,414.816 1182.67,432.627 1184.72,383.037 1186.77,381.439 1188.83,374.427 1190.88,374.501 1192.93,365.892 1194.99,379.63 1197.04,360.76 1199.09,360.727 1201.15,360.391 1203.2,363.254 1205.25,362.295 1207.3,362.404 1209.36,361.336 1211.41,356.067 1213.46,382.469 1215.52,381.251 1217.57,399.811 1219.62,386.585 1221.67,387.846 1223.73,388.549 1225.78,384.893 1227.83,383.115 1229.89,378.452 1231.94,378.445 1233.99,387.447 1236.04,387.384 1238.1,387.008 1240.15,388.338 1242.2,382.965 1244.26,381.304 1246.31,381.167 1248.36,381.171 1250.41,379.45 1252.47,376.731 1254.52,376.786 1256.57,377.252 1258.63,377.43 1260.68,377.423 1262.73,370.52 1264.78,419.03 1266.84,291.273 1268.89,288.988 1270.94,289.388 1273,317.837 1275.05,336.343 1277.1,337.053 1279.16,356.732 1281.21,376.195 1283.26,355.956 1285.31,403.919 1287.37,387.208 1289.42,385.391 1291.47,383.41 1293.53,381.284 1295.58,380.739 1297.63,387.346 1299.68,366.566 1301.74,370.657 1303.79,374.632 1305.84,378.123 1307.9,379.618 1309.95,376.961 1312,376.982 1314.05,359.789 1316.11,350.177 1318.16,343.19 1320.21,339.485 1322.27,350.682 1324.32,351.35 1326.37,340.09 1328.42,339.384 1330.48,306.041 1332.53,319.334 1334.58,329.239 1336.64,323.164 1338.69,360.726 1340.74,361.166 1342.79,353.933 1344.85,367.534 1346.9,375.119 1348.95,354.387 1351.01,355.497 1353.06,346.887 1355.11,347.699 1357.16,349.756 1359.22,349.802 1361.27,349.741 1363.32,350.983 1365.38,351.485 1367.43,351.505 1369.48,299.33 1371.54,298.082 1373.59,358.881 1375.64,351.284 1377.69,363.393 1379.75,343.004 1381.8,392.298 1383.85,390.644 1385.91,392.783 1387.96,374.95 1390.01,374.72 1392.06,370.74 1394.12,368.417 1396.17,384.274 1398.22,382.134 1400.28,382.036 1402.33,376.166 1404.38,375.017 1406.43,371.06 1408.49,376.73 1410.54,378.064 1412.59,376.635 1414.65,378.648 1416.7,363.069 1418.75,363.459 1420.8,367.712 1422.86,357.653 1424.91,357.184 1426.96,360.064 1429.02,359.316 1431.07,360.475 1433.12,360.338 1435.17,364.489 1437.23,364.492 1439.28,371.555 1441.33,376.067 1443.39,358.081 1445.44,350.775 1447.49,352.621 1449.55,347.123 1451.6,347.265 1453.65,350.307 1455.7,344.854 1457.76,350.153 1459.81,349.467 1461.86,349.397 1463.92,351.087 1465.97,353.223 1468.02,352.284 1470.07,418.175 1472.13,417.337 1474.18,414.738 1476.23,407.477 1478.29,406.919 1480.34,406.546 1482.39,407.346 1484.44,405.197 1486.5,410.568 1488.55,410.567 1490.6,411.086 1492.66,411.061 1494.71,410.681 1496.76,410.375 1498.81,400.509 1500.87,399.596 1502.92,399.125 1504.97,385.915 1507.03,386.539 1509.08,382.674 1511.13,379.071 1513.18,379.024 1515.24,402.882 1517.29,383.747 1519.34,385.307 1521.4,386.486 1523.45,386.631 1525.5,384.679 1527.55,387.515 1529.61,386.142 1531.66,386.637 1533.71,372.517 1535.77,372.552 1537.82,356.59 1539.87,355.853 1541.93,356.435 1543.98,356.705 1546.03,357.102 1548.08,357.024 1550.14,357.272 1552.19,356.869 1554.24,357.133 1556.3,358.444 1558.35,376.11 1560.4,376.833 1562.45,378.673 1564.51,378.928 1566.56,378.352 1568.61,378.378 1570.67,378.212 1572.72,380.212 1574.77,378.096 1576.82,378.076 1578.88,368.732 1580.93,354.297 1582.98,356.126 1585.04,359.543 1587.09,338.349 1589.14,389.808 1591.19,342.718 1593.25,440.175 1595.3,440.471 1597.35,443.598 1599.41,444.174 1601.46,439.905 1603.51,432.276 1605.56,456.532 1607.62,456.464 1609.67,452.16 1611.72,448.586 1613.78,447.927 1615.83,444.679 1617.88,441.86 1619.94,432.114 1621.99,429.861 1624.04,334.99 1626.09,333.339 1628.15,387.564 1630.2,387.484 1632.25,409.983 1634.31,432.72 1636.36,440.007 1638.41,466.779 1640.46,445.063 1642.52,450.977 1644.57,417.227 1646.62,473.289 1648.68,483.875 1650.73,490.404 1652.78,487.34 1654.83,454.299 1656.89,449.312 1658.94,448.704 1660.99,448.89 1663.05,448.493 1665.1,448.893 1667.15,451.622 1669.2,467.587 1671.26,466.865 1673.31,471.802 1675.36,432.37 1677.42,440.359 1679.47,440.428 1681.52,441.323 1683.57,441.629 1685.63,428.191 1687.68,427.429 1689.73,418.974 1691.79,418.96 1693.84,419.551 1695.89,419.057 1697.94,417.235 1700,413.369 1702.05,413.929 1704.1,416.259 1706.16,361.191 1708.21,361.057 1710.26,342.049 1712.32,344.373 1714.37,348.898 1716.42,360.381 1718.47,426.63 1720.53,427.896 1722.58,427.96 1724.63,427.967 1726.69,427.471 1728.74,427.48 1730.79,427.498 1732.84,427.547 1734.9,410.845 1736.95,410.868 1739,390.807 1741.06,393.811 1743.11,394.998 1745.16,395.875 1747.21,399.308 1749.27,402.922 1751.32,398.241 1753.37,394.663 1755.43,394.492 1757.48,400.464 1759.53,410.758 1761.58,416.686 1763.64,415.7 1765.69,441.308 1767.74,443.305 1769.8,437.971 1771.85,438.93 1773.9,437.135 1775.95,446.614 1778.01,446.137 1780.06,446.148 1782.11,436.054 1784.17,436.255 1786.22,436.234 1788.27,432.745 1790.33,430.706 1792.38,430.765 1794.43,432.276 1796.48,431.292 1798.54,378.765 1800.59,348.22 1802.64,340.33 1804.7,302.197 1806.75,304.319 1808.8,309.077 1810.85,316.936 1812.91,318.484 1814.96,361.622 1817.01,369.366 1819.07,369.402 1821.12,368.937 1823.17,368.735 1825.22,368.672 1827.28,368.507 1829.33,368.889 1831.38,362.806 1833.44,376.263 1835.49,370.064 1837.54,368.49 1839.59,347.014 1841.65,346.957 1843.7,346.956 1845.75,348.472 1847.81,351.653 1849.86,350.039 1851.91,349.547 1853.96,358.519 1856.02,354.333 1858.07,360.13 1860.12,378.192 1862.18,369.847 1864.23,369.538 1866.28,361.687 1868.34,356.701 1870.39,371.042 1872.44,366 1874.49,366.757 1876.55,366.754 1878.6,369.351 1880.65,368.333 1882.71,369.254 1884.76,360.694 1886.81,355.425 1888.86,354.685 1890.92,360.597 1892.97,359.985 1895.02,374.351 1897.08,374.193 1899.13,365.177 1901.18,363.065 1903.23,362.622 1905.29,367.566 1907.34,367.22 1909.39,367.171 1911.45,368.798 1913.5,356.913 1915.55,358.542 1917.6,357.148 1919.66,364.743 1921.71,381.486 1923.76,383.758 1925.82,383.637 1927.87,383.246 1929.92,380.945 1931.97,380.814 1934.03,380.61 1936.08,381.065 1938.13,387.824 1940.19,375.065 1942.24,351.283 1944.29,347.544 1946.34,357.792 1948.4,356.892 1950.45,353.642 1952.5,353.335 1954.56,353.355 1956.61,371.877 1958.66,368.185 1960.72,368.329 1962.77,366.779 1964.82,364.87 1966.87,364.458 1968.93,365.003 1970.98,364.987 1973.03,364.993 1975.09,345.849 1977.14,344.572 1979.19,386.984 1981.24,385.306 1983.3,385.877 1985.35,385.851 1987.4,385.776 1989.46,385.177 1991.51,385.192 1993.56,360.768 1995.61,368.693 1997.67,368.067 1999.72,368.645 2001.77,364.046 2003.83,363.861 2005.88,360.912 2007.93,358.429 2009.98,354.176 2012.04,354.168 2014.09,353.599 2016.14,352.305 2018.2,343.828 2020.25,343.862 2022.3,337.722 2024.35,334.201 2026.41,344.134 2028.46,343.88 2030.51,342.377 2032.57,350.049 2034.62,349.717 2036.67,362.509 2038.73,337.687 2040.78,338.98 2042.83,339.311 2044.88,339.8 2046.94,338.09 2048.99,322.281 2051.04,319.606 2053.1,326.044 2055.15,310.565 2057.2,310.815 2059.25,309.771 2061.31,303.81 2063.36,305.204 2065.41,307.935 2067.47,319.015 2069.52,321.029 2071.57,327.537 2073.62,327.443 2075.68,329.26 2077.73,327.861 2079.78,308.92 2081.84,315.062 2083.89,308.633 2085.94,308.055 2087.99,312.597 2090.05,314.201 2092.1,314.888 2094.15,317.517 2096.21,315.992 2098.26,312.661 2100.31,312.656 2102.36,318.317 2104.42,318.331 2106.47,307.644 2108.52,310.794 2110.58,316.858 2112.63,318.909 2114.68,329.423 2116.73,330.233 2118.79,422.179 2120.84,422.747 2122.89,422.972 2124.95,423.946 2127,427.628 2129.05,426.918 2131.11,409.966 2133.16,330.263 2135.21,326.817 2137.26,349.966 2139.32,339.13 2141.37,337.98 2143.42,338.222 2145.48,333.051 2147.53,330.826 2149.58,332.267 2151.63,331.54 2153.69,396.659 2155.74,396.665 2157.79,309.072 2159.85,346.041 2161.9,343.06 2163.95,343.388 2166,336.961 2168.06,340.375 2170.11,340.367 2172.16,344.495 2174.22,344.299 2176.27,347.418 2178.32,347.032 2180.37,349.025 2182.43,310.321 2184.48,310.33 2186.53,309.082 2188.59,363.136 2190.64,363.241 2192.69,364.22 2194.74,361.837 2196.8,361.271 2198.85,358.548 2200.9,361.682 2202.96,355.6 2205.01,387.115 2207.06,386.832 2209.12,387.101 2211.17,388.966 2213.22,388.721 2215.27,387.596 2217.33,372.003 2219.38,374.642 2221.43,360.408 2223.49,346.08 2225.54,343.568 2227.59,344.103 2229.64,346.672 2231.7,386.757 2233.75,391.535 2235.8,391.507 2237.86,377.917 2239.91,373.641 2241.96,364.708 2244.01,364.319 2246.07,370.574 2248.12,370.048 2250.17,376.296 2252.23,372.959 2254.28,344.127 2256.33,344.125 2258.38,344.636 2260.44,341.942 2262.49,346.901 2264.54,374.268 2266.6,354.078 2268.65,356.449 2270.7,356.988 2272.75,358.377 2274.81,358.478 2276.86,358.481 2278.91,363.709 2280.97,363.283 2283.02,364.761 2285.07,365.298 2287.12,365.312 2289.18,365.289 2291.23,365.356 "/>
<path clip-path="url(#clip290)" d="M1983.6 172.231 L2280.29 172.231 L2280.29 68.5509 L1983.6 68.5509  Z" fill="#ffffff" fill-rule="evenodd" fill-opacity="1"/>
<polyline clip-path="url(#clip290)" style="stroke:#000000; stroke-linecap:round; stroke-linejoin:round; stroke-width:4; stroke-opacity:1; fill:none" points="1983.6,172.231 2280.29,172.231 2280.29,68.5509 1983.6,68.5509 1983.6,172.231 "/>
<polyline clip-path="url(#clip290)" style="stroke:#009af9; stroke-linecap:round; stroke-linejoin:round; stroke-width:4; stroke-opacity:1; fill:none" points="2007.75,120.391 2152.68,120.391 "/>
<path clip-path="url(#clip290)" d="M2176.83 103.111 L2181.51 103.111 L2181.51 133.736 L2198.34 133.736 L2198.34 137.671 L2176.83 137.671 L2176.83 103.111 Z" fill="#000000" fill-rule="nonzero" fill-opacity="1" /><path clip-path="url(#clip290)" d="M2223.96 104.245 L2223.96 108.805 Q2221.3 107.532 2218.94 106.907 Q2216.58 106.282 2214.38 106.282 Q2210.56 106.282 2208.48 107.764 Q2206.42 109.245 2206.42 111.977 Q2206.42 114.268 2207.78 115.449 Q2209.17 116.606 2213.01 117.324 L2215.84 117.902 Q2221.07 118.898 2223.55 121.421 Q2226.05 123.921 2226.05 128.134 Q2226.05 133.157 2222.67 135.75 Q2219.31 138.342 2212.81 138.342 Q2210.35 138.342 2207.57 137.787 Q2204.82 137.231 2201.86 136.143 L2201.86 131.328 Q2204.7 132.926 2207.44 133.736 Q2210.17 134.546 2212.81 134.546 Q2216.81 134.546 2218.99 132.972 Q2221.16 131.398 2221.16 128.481 Q2221.16 125.935 2219.59 124.5 Q2218.04 123.064 2214.47 122.347 L2211.62 121.791 Q2206.39 120.75 2204.06 118.527 Q2201.72 116.305 2201.72 112.347 Q2201.72 107.764 2204.94 105.125 Q2208.18 102.486 2213.85 102.486 Q2216.28 102.486 2218.8 102.926 Q2221.32 103.366 2223.96 104.245 Z" fill="#000000" fill-rule="nonzero" fill-opacity="1" /><path clip-path="url(#clip290)" d="M2254.06 104.245 L2254.06 108.805 Q2251.39 107.532 2249.03 106.907 Q2246.67 106.282 2244.47 106.282 Q2240.65 106.282 2238.57 107.764 Q2236.51 109.245 2236.51 111.977 Q2236.51 114.268 2237.87 115.449 Q2239.26 116.606 2243.11 117.324 L2245.93 117.902 Q2251.16 118.898 2253.64 121.421 Q2256.14 123.921 2256.14 128.134 Q2256.14 133.157 2252.76 135.75 Q2249.4 138.342 2242.9 138.342 Q2240.44 138.342 2237.67 137.787 Q2234.91 137.231 2231.95 136.143 L2231.95 131.328 Q2234.8 132.926 2237.53 133.736 Q2240.26 134.546 2242.9 134.546 Q2246.9 134.546 2249.08 132.972 Q2251.25 131.398 2251.25 128.481 Q2251.25 125.935 2249.68 124.5 Q2248.13 123.064 2244.56 122.347 L2241.72 121.791 Q2236.49 120.75 2234.15 118.527 Q2231.81 116.305 2231.81 112.347 Q2231.81 107.764 2235.03 105.125 Q2238.27 102.486 2243.94 102.486 Q2246.37 102.486 2248.89 102.926 Q2251.42 103.366 2254.06 104.245 Z" fill="#000000" fill-rule="nonzero" fill-opacity="1" /><path clip-path="url(#clip290)" d="M178.867 1486.45 L2352.76 1486.45 L2352.76 847.244 L178.867 847.244  Z" fill="#ffffff" fill-rule="evenodd" fill-opacity="1"/>
<defs>
  <clipPath id="clip293">
    <rect x="178" y="847" width="2175" height="640"/>
  </clipPath>
</defs>
<polyline clip-path="url(#clip293)" style="stroke:#000000; stroke-linecap:round; stroke-linejoin:round; stroke-width:2; stroke-opacity:0.1; fill:none" points="238.339,1486.45 238.339,847.244 "/>
<polyline clip-path="url(#clip293)" style="stroke:#000000; stroke-linecap:round; stroke-linejoin:round; stroke-width:2; stroke-opacity:0.1; fill:none" points="751.562,1486.45 751.562,847.244 "/>
<polyline clip-path="url(#clip293)" style="stroke:#000000; stroke-linecap:round; stroke-linejoin:round; stroke-width:2; stroke-opacity:0.1; fill:none" points="1264.78,1486.45 1264.78,847.244 "/>
<polyline clip-path="url(#clip293)" style="stroke:#000000; stroke-linecap:round; stroke-linejoin:round; stroke-width:2; stroke-opacity:0.1; fill:none" points="1778.01,1486.45 1778.01,847.244 "/>
<polyline clip-path="url(#clip293)" style="stroke:#000000; stroke-linecap:round; stroke-linejoin:round; stroke-width:2; stroke-opacity:0.1; fill:none" points="2291.23,1486.45 2291.23,847.244 "/>
<polyline clip-path="url(#clip293)" style="stroke:#000000; stroke-linecap:round; stroke-linejoin:round; stroke-width:2; stroke-opacity:0.1; fill:none" points="178.867,1486.45 2352.76,1486.45 "/>
<polyline clip-path="url(#clip293)" style="stroke:#000000; stroke-linecap:round; stroke-linejoin:round; stroke-width:2; stroke-opacity:0.1; fill:none" points="178.867,1326.65 2352.76,1326.65 "/>
<polyline clip-path="url(#clip293)" style="stroke:#000000; stroke-linecap:round; stroke-linejoin:round; stroke-width:2; stroke-opacity:0.1; fill:none" points="178.867,1166.85 2352.76,1166.85 "/>
<polyline clip-path="url(#clip293)" style="stroke:#000000; stroke-linecap:round; stroke-linejoin:round; stroke-width:2; stroke-opacity:0.1; fill:none" points="178.867,1007.05 2352.76,1007.05 "/>
<polyline clip-path="url(#clip293)" style="stroke:#000000; stroke-linecap:round; stroke-linejoin:round; stroke-width:2; stroke-opacity:0.1; fill:none" points="178.867,847.244 2352.76,847.244 "/>
<polyline clip-path="url(#clip290)" style="stroke:#000000; stroke-linecap:round; stroke-linejoin:round; stroke-width:4; stroke-opacity:1; fill:none" points="178.867,1486.45 2352.76,1486.45 "/>
<polyline clip-path="url(#clip290)" style="stroke:#000000; stroke-linecap:round; stroke-linejoin:round; stroke-width:4; stroke-opacity:1; fill:none" points="238.339,1486.45 238.339,1467.55 "/>
<polyline clip-path="url(#clip290)" style="stroke:#000000; stroke-linecap:round; stroke-linejoin:round; stroke-width:4; stroke-opacity:1; fill:none" points="751.562,1486.45 751.562,1467.55 "/>
<polyline clip-path="url(#clip290)" style="stroke:#000000; stroke-linecap:round; stroke-linejoin:round; stroke-width:4; stroke-opacity:1; fill:none" points="1264.78,1486.45 1264.78,1467.55 "/>
<polyline clip-path="url(#clip290)" style="stroke:#000000; stroke-linecap:round; stroke-linejoin:round; stroke-width:4; stroke-opacity:1; fill:none" points="1778.01,1486.45 1778.01,1467.55 "/>
<polyline clip-path="url(#clip290)" style="stroke:#000000; stroke-linecap:round; stroke-linejoin:round; stroke-width:4; stroke-opacity:1; fill:none" points="2291.23,1486.45 2291.23,1467.55 "/>
<path clip-path="url(#clip290)" d="M238.339 1517.37 Q234.728 1517.37 232.899 1520.93 Q231.094 1524.47 231.094 1531.6 Q231.094 1538.71 232.899 1542.27 Q234.728 1545.82 238.339 1545.82 Q241.973 1545.82 243.779 1542.27 Q245.607 1538.71 245.607 1531.6 Q245.607 1524.47 243.779 1520.93 Q241.973 1517.37 238.339 1517.37 M238.339 1513.66 Q244.149 1513.66 247.205 1518.27 Q250.283 1522.85 250.283 1531.6 Q250.283 1540.33 247.205 1544.94 Q244.149 1549.52 238.339 1549.52 Q232.529 1549.52 229.45 1544.94 Q226.395 1540.33 226.395 1531.6 Q226.395 1522.85 229.45 1518.27 Q232.529 1513.66 238.339 1513.66 Z" fill="#000000" fill-rule="nonzero" fill-opacity="1" /><path clip-path="url(#clip290)" d="M715.254 1544.91 L731.574 1544.91 L731.574 1548.85 L709.629 1548.85 L709.629 1544.91 Q712.291 1542.16 716.875 1537.53 Q721.481 1532.88 722.662 1531.53 Q724.907 1529.01 725.787 1527.27 Q726.689 1525.51 726.689 1523.82 Q726.689 1521.07 724.745 1519.33 Q722.824 1517.6 719.722 1517.6 Q717.523 1517.6 715.069 1518.36 Q712.638 1519.13 709.861 1520.68 L709.861 1515.95 Q712.685 1514.82 715.138 1514.24 Q717.592 1513.66 719.629 1513.66 Q725 1513.66 728.194 1516.35 Q731.388 1519.03 731.388 1523.52 Q731.388 1525.65 730.578 1527.57 Q729.791 1529.47 727.685 1532.07 Q727.106 1532.74 724.004 1535.95 Q720.902 1539.15 715.254 1544.91 Z" fill="#000000" fill-rule="nonzero" fill-opacity="1" /><path clip-path="url(#clip290)" d="M741.435 1514.29 L759.791 1514.29 L759.791 1518.22 L745.717 1518.22 L745.717 1526.7 Q746.736 1526.35 747.754 1526.19 Q748.773 1526 749.791 1526 Q755.578 1526 758.958 1529.17 Q762.337 1532.34 762.337 1537.76 Q762.337 1543.34 758.865 1546.44 Q755.393 1549.52 749.073 1549.52 Q746.898 1549.52 744.629 1549.15 Q742.384 1548.78 739.976 1548.04 L739.976 1543.34 Q742.06 1544.47 744.282 1545.03 Q746.504 1545.58 748.981 1545.58 Q752.985 1545.58 755.323 1543.48 Q757.661 1541.37 757.661 1537.76 Q757.661 1534.15 755.323 1532.04 Q752.985 1529.94 748.981 1529.94 Q747.106 1529.94 745.231 1530.35 Q743.379 1530.77 741.435 1531.65 L741.435 1514.29 Z" fill="#000000" fill-rule="nonzero" fill-opacity="1" /><path clip-path="url(#clip290)" d="M781.55 1517.37 Q777.939 1517.37 776.11 1520.93 Q774.305 1524.47 774.305 1531.6 Q774.305 1538.71 776.11 1542.27 Q777.939 1545.82 781.55 1545.82 Q785.184 1545.82 786.99 1542.27 Q788.819 1538.71 788.819 1531.6 Q788.819 1524.47 786.99 1520.93 Q785.184 1517.37 781.55 1517.37 M781.55 1513.66 Q787.36 1513.66 790.416 1518.27 Q793.495 1522.85 793.495 1531.6 Q793.495 1540.33 790.416 1544.94 Q787.36 1549.52 781.55 1549.52 Q775.74 1549.52 772.661 1544.94 Q769.606 1540.33 769.606 1531.6 Q769.606 1522.85 772.661 1518.27 Q775.74 1513.66 781.55 1513.66 Z" fill="#000000" fill-rule="nonzero" fill-opacity="1" /><path clip-path="url(#clip290)" d="M1224.4 1514.29 L1242.76 1514.29 L1242.76 1518.22 L1228.69 1518.22 L1228.69 1526.7 Q1229.7 1526.35 1230.72 1526.19 Q1231.74 1526 1232.76 1526 Q1238.55 1526 1241.93 1529.17 Q1245.31 1532.34 1245.31 1537.76 Q1245.31 1543.34 1241.83 1546.44 Q1238.36 1549.52 1232.04 1549.52 Q1229.87 1549.52 1227.6 1549.15 Q1225.35 1548.78 1222.94 1548.04 L1222.94 1543.34 Q1225.03 1544.47 1227.25 1545.03 Q1229.47 1545.58 1231.95 1545.58 Q1235.95 1545.58 1238.29 1543.48 Q1240.63 1541.37 1240.63 1537.76 Q1240.63 1534.15 1238.29 1532.04 Q1235.95 1529.94 1231.95 1529.94 Q1230.07 1529.94 1228.2 1530.35 Q1226.35 1530.77 1224.4 1531.65 L1224.4 1514.29 Z" fill="#000000" fill-rule="nonzero" fill-opacity="1" /><path clip-path="url(#clip290)" d="M1264.52 1517.37 Q1260.91 1517.37 1259.08 1520.93 Q1257.27 1524.47 1257.27 1531.6 Q1257.27 1538.71 1259.08 1542.27 Q1260.91 1545.82 1264.52 1545.82 Q1268.15 1545.82 1269.96 1542.27 Q1271.79 1538.71 1271.79 1531.6 Q1271.79 1524.47 1269.96 1520.93 Q1268.15 1517.37 1264.52 1517.37 M1264.52 1513.66 Q1270.33 1513.66 1273.38 1518.27 Q1276.46 1522.85 1276.46 1531.6 Q1276.46 1540.33 1273.38 1544.94 Q1270.33 1549.52 1264.52 1549.52 Q1258.71 1549.52 1255.63 1544.94 Q1252.57 1540.33 1252.57 1531.6 Q1252.57 1522.85 1255.63 1518.27 Q1258.71 1513.66 1264.52 1513.66 Z" fill="#000000" fill-rule="nonzero" fill-opacity="1" /><path clip-path="url(#clip290)" d="M1294.68 1517.37 Q1291.07 1517.37 1289.24 1520.93 Q1287.44 1524.47 1287.44 1531.6 Q1287.44 1538.71 1289.24 1542.27 Q1291.07 1545.82 1294.68 1545.82 Q1298.31 1545.82 1300.12 1542.27 Q1301.95 1538.71 1301.95 1531.6 Q1301.95 1524.47 1300.12 1520.93 Q1298.31 1517.37 1294.68 1517.37 M1294.68 1513.66 Q1300.49 1513.66 1303.55 1518.27 Q1306.62 1522.85 1306.62 1531.6 Q1306.62 1540.33 1303.55 1544.94 Q1300.49 1549.52 1294.68 1549.52 Q1288.87 1549.52 1285.79 1544.94 Q1282.74 1540.33 1282.74 1531.6 Q1282.74 1522.85 1285.79 1518.27 Q1288.87 1513.66 1294.68 1513.66 Z" fill="#000000" fill-rule="nonzero" fill-opacity="1" /><path clip-path="url(#clip290)" d="M1736.28 1514.29 L1758.51 1514.29 L1758.51 1516.28 L1745.96 1548.85 L1741.08 1548.85 L1752.88 1518.22 L1736.28 1518.22 L1736.28 1514.29 Z" fill="#000000" fill-rule="nonzero" fill-opacity="1" /><path clip-path="url(#clip290)" d="M1767.67 1514.29 L1786.03 1514.29 L1786.03 1518.22 L1771.95 1518.22 L1771.95 1526.7 Q1772.97 1526.35 1773.99 1526.19 Q1775.01 1526 1776.03 1526 Q1781.82 1526 1785.2 1529.17 Q1788.57 1532.34 1788.57 1537.76 Q1788.57 1543.34 1785.1 1546.44 Q1781.63 1549.52 1775.31 1549.52 Q1773.14 1549.52 1770.87 1549.15 Q1768.62 1548.78 1766.21 1548.04 L1766.21 1543.34 Q1768.3 1544.47 1770.52 1545.03 Q1772.74 1545.58 1775.22 1545.58 Q1779.22 1545.58 1781.56 1543.48 Q1783.9 1541.37 1783.9 1537.76 Q1783.9 1534.15 1781.56 1532.04 Q1779.22 1529.94 1775.22 1529.94 Q1773.34 1529.94 1771.47 1530.35 Q1769.62 1530.77 1767.67 1531.65 L1767.67 1514.29 Z" fill="#000000" fill-rule="nonzero" fill-opacity="1" /><path clip-path="url(#clip290)" d="M1807.79 1517.37 Q1804.18 1517.37 1802.35 1520.93 Q1800.54 1524.47 1800.54 1531.6 Q1800.54 1538.71 1802.35 1542.27 Q1804.18 1545.82 1807.79 1545.82 Q1811.42 1545.82 1813.23 1542.27 Q1815.06 1538.71 1815.06 1531.6 Q1815.06 1524.47 1813.23 1520.93 Q1811.42 1517.37 1807.79 1517.37 M1807.79 1513.66 Q1813.6 1513.66 1816.65 1518.27 Q1819.73 1522.85 1819.73 1531.6 Q1819.73 1540.33 1816.65 1544.94 Q1813.6 1549.52 1807.79 1549.52 Q1801.98 1549.52 1798.9 1544.94 Q1795.84 1540.33 1795.84 1531.6 Q1795.84 1522.85 1798.9 1518.27 Q1801.98 1513.66 1807.79 1513.66 Z" fill="#000000" fill-rule="nonzero" fill-opacity="1" /><path clip-path="url(#clip290)" d="M2235.76 1544.91 L2243.4 1544.91 L2243.4 1518.55 L2235.09 1520.21 L2235.09 1515.95 L2243.35 1514.29 L2248.02 1514.29 L2248.02 1544.91 L2255.66 1544.91 L2255.66 1548.85 L2235.76 1548.85 L2235.76 1544.91 Z" fill="#000000" fill-rule="nonzero" fill-opacity="1" /><path clip-path="url(#clip290)" d="M2275.11 1517.37 Q2271.5 1517.37 2269.67 1520.93 Q2267.86 1524.47 2267.86 1531.6 Q2267.86 1538.71 2269.67 1542.27 Q2271.5 1545.82 2275.11 1545.82 Q2278.74 1545.82 2280.55 1542.27 Q2282.38 1538.71 2282.38 1531.6 Q2282.38 1524.47 2280.55 1520.93 Q2278.74 1517.37 2275.11 1517.37 M2275.11 1513.66 Q2280.92 1513.66 2283.97 1518.27 Q2287.05 1522.85 2287.05 1531.6 Q2287.05 1540.33 2283.97 1544.94 Q2280.92 1549.52 2275.11 1549.52 Q2269.3 1549.52 2266.22 1544.94 Q2263.16 1540.33 2263.16 1531.6 Q2263.16 1522.85 2266.22 1518.27 Q2269.3 1513.66 2275.11 1513.66 Z" fill="#000000" fill-rule="nonzero" fill-opacity="1" /><path clip-path="url(#clip290)" d="M2305.27 1517.37 Q2301.66 1517.37 2299.83 1520.93 Q2298.02 1524.47 2298.02 1531.6 Q2298.02 1538.71 2299.83 1542.27 Q2301.66 1545.82 2305.27 1545.82 Q2308.9 1545.82 2310.71 1542.27 Q2312.54 1538.71 2312.54 1531.6 Q2312.54 1524.47 2310.71 1520.93 Q2308.9 1517.37 2305.27 1517.37 M2305.27 1513.66 Q2311.08 1513.66 2314.14 1518.27 Q2317.21 1522.85 2317.21 1531.6 Q2317.21 1540.33 2314.14 1544.94 Q2311.08 1549.52 2305.27 1549.52 Q2299.46 1549.52 2296.38 1544.94 Q2293.33 1540.33 2293.33 1531.6 Q2293.33 1522.85 2296.38 1518.27 Q2299.46 1513.66 2305.27 1513.66 Z" fill="#000000" fill-rule="nonzero" fill-opacity="1" /><path clip-path="url(#clip290)" d="M2335.43 1517.37 Q2331.82 1517.37 2329.99 1520.93 Q2328.19 1524.47 2328.19 1531.6 Q2328.19 1538.71 2329.99 1542.27 Q2331.82 1545.82 2335.43 1545.82 Q2339.07 1545.82 2340.87 1542.27 Q2342.7 1538.71 2342.7 1531.6 Q2342.7 1524.47 2340.87 1520.93 Q2339.07 1517.37 2335.43 1517.37 M2335.43 1513.66 Q2341.24 1513.66 2344.3 1518.27 Q2347.38 1522.85 2347.38 1531.6 Q2347.38 1540.33 2344.3 1544.94 Q2341.24 1549.52 2335.43 1549.52 Q2329.62 1549.52 2326.54 1544.94 Q2323.49 1540.33 2323.49 1531.6 Q2323.49 1522.85 2326.54 1518.27 Q2329.62 1513.66 2335.43 1513.66 Z" fill="#000000" fill-rule="nonzero" fill-opacity="1" /><polyline clip-path="url(#clip290)" style="stroke:#000000; stroke-linecap:round; stroke-linejoin:round; stroke-width:4; stroke-opacity:1; fill:none" points="178.867,1486.45 178.867,847.244 "/>
<polyline clip-path="url(#clip290)" style="stroke:#000000; stroke-linecap:round; stroke-linejoin:round; stroke-width:4; stroke-opacity:1; fill:none" points="178.867,1486.45 197.764,1486.45 "/>
<polyline clip-path="url(#clip290)" style="stroke:#000000; stroke-linecap:round; stroke-linejoin:round; stroke-width:4; stroke-opacity:1; fill:none" points="178.867,1326.65 197.764,1326.65 "/>
<polyline clip-path="url(#clip290)" style="stroke:#000000; stroke-linecap:round; stroke-linejoin:round; stroke-width:4; stroke-opacity:1; fill:none" points="178.867,1166.85 197.764,1166.85 "/>
<polyline clip-path="url(#clip290)" style="stroke:#000000; stroke-linecap:round; stroke-linejoin:round; stroke-width:4; stroke-opacity:1; fill:none" points="178.867,1007.05 197.764,1007.05 "/>
<polyline clip-path="url(#clip290)" style="stroke:#000000; stroke-linecap:round; stroke-linejoin:round; stroke-width:4; stroke-opacity:1; fill:none" points="178.867,847.244 197.764,847.244 "/>
<path clip-path="url(#clip290)" d="M50.9921 1486.9 L80.6679 1486.9 L80.6679 1490.83 L50.9921 1490.83 L50.9921 1486.9 Z" fill="#000000" fill-rule="nonzero" fill-opacity="1" /><path clip-path="url(#clip290)" d="M91.5706 1499.79 L99.2095 1499.79 L99.2095 1473.43 L90.8993 1475.09 L90.8993 1470.83 L99.1632 1469.17 L103.839 1469.17 L103.839 1499.79 L111.478 1499.79 L111.478 1503.73 L91.5706 1503.73 L91.5706 1499.79 Z" fill="#000000" fill-rule="nonzero" fill-opacity="1" /><path clip-path="url(#clip290)" d="M130.922 1472.25 Q127.311 1472.25 125.482 1475.81 Q123.677 1479.35 123.677 1486.48 Q123.677 1493.59 125.482 1497.15 Q127.311 1500.7 130.922 1500.7 Q134.556 1500.7 136.362 1497.15 Q138.191 1493.59 138.191 1486.48 Q138.191 1479.35 136.362 1475.81 Q134.556 1472.25 130.922 1472.25 M130.922 1468.54 Q136.732 1468.54 139.788 1473.15 Q142.867 1477.73 142.867 1486.48 Q142.867 1495.21 139.788 1499.82 Q136.732 1504.4 130.922 1504.4 Q125.112 1504.4 122.033 1499.82 Q118.978 1495.21 118.978 1486.48 Q118.978 1477.73 122.033 1473.15 Q125.112 1468.54 130.922 1468.54 Z" fill="#000000" fill-rule="nonzero" fill-opacity="1" /><path clip-path="url(#clip290)" d="M82.1494 1327.1 L111.825 1327.1 L111.825 1331.03 L82.1494 1331.03 L82.1494 1327.1 Z" fill="#000000" fill-rule="nonzero" fill-opacity="1" /><path clip-path="url(#clip290)" d="M121.964 1309.37 L140.32 1309.37 L140.32 1313.3 L126.246 1313.3 L126.246 1321.77 Q127.265 1321.43 128.283 1321.27 Q129.302 1321.08 130.32 1321.08 Q136.107 1321.08 139.487 1324.25 Q142.867 1327.42 142.867 1332.84 Q142.867 1338.42 139.394 1341.52 Q135.922 1344.6 129.603 1344.6 Q127.427 1344.6 125.158 1344.23 Q122.913 1343.86 120.506 1343.12 L120.506 1338.42 Q122.589 1339.55 124.811 1340.11 Q127.033 1340.66 129.51 1340.66 Q133.515 1340.66 135.853 1338.56 Q138.191 1336.45 138.191 1332.84 Q138.191 1329.23 135.853 1327.12 Q133.515 1325.01 129.51 1325.01 Q127.635 1325.01 125.76 1325.43 Q123.908 1325.85 121.964 1326.73 L121.964 1309.37 Z" fill="#000000" fill-rule="nonzero" fill-opacity="1" /><path clip-path="url(#clip290)" d="M130.922 1152.64 Q127.311 1152.64 125.482 1156.21 Q123.677 1159.75 123.677 1166.88 Q123.677 1173.99 125.482 1177.55 Q127.311 1181.09 130.922 1181.09 Q134.556 1181.09 136.362 1177.55 Q138.191 1173.99 138.191 1166.88 Q138.191 1159.75 136.362 1156.21 Q134.556 1152.64 130.922 1152.64 M130.922 1148.94 Q136.732 1148.94 139.788 1153.55 Q142.867 1158.13 142.867 1166.88 Q142.867 1175.61 139.788 1180.21 Q136.732 1184.8 130.922 1184.8 Q125.112 1184.8 122.033 1180.21 Q118.978 1175.61 118.978 1166.88 Q118.978 1158.13 122.033 1153.55 Q125.112 1148.94 130.922 1148.94 Z" fill="#000000" fill-rule="nonzero" fill-opacity="1" /><path clip-path="url(#clip290)" d="M121.964 989.765 L140.32 989.765 L140.32 993.7 L126.246 993.7 L126.246 1002.17 Q127.265 1001.83 128.283 1001.66 Q129.302 1001.48 130.32 1001.48 Q136.107 1001.48 139.487 1004.65 Q142.867 1007.82 142.867 1013.24 Q142.867 1018.82 139.394 1021.92 Q135.922 1025 129.603 1025 Q127.427 1025 125.158 1024.63 Q122.913 1024.26 120.506 1023.51 L120.506 1018.82 Q122.589 1019.95 124.811 1020.51 Q127.033 1021.06 129.51 1021.06 Q133.515 1021.06 135.853 1018.95 Q138.191 1016.85 138.191 1013.24 Q138.191 1009.63 135.853 1007.52 Q133.515 1005.41 129.51 1005.41 Q127.635 1005.41 125.76 1005.83 Q123.908 1006.25 121.964 1007.13 L121.964 989.765 Z" fill="#000000" fill-rule="nonzero" fill-opacity="1" /><path clip-path="url(#clip290)" d="M91.5706 860.589 L99.2095 860.589 L99.2095 834.223 L90.8993 835.89 L90.8993 831.631 L99.1632 829.964 L103.839 829.964 L103.839 860.589 L111.478 860.589 L111.478 864.524 L91.5706 864.524 L91.5706 860.589 Z" fill="#000000" fill-rule="nonzero" fill-opacity="1" /><path clip-path="url(#clip290)" d="M130.922 833.043 Q127.311 833.043 125.482 836.608 Q123.677 840.149 123.677 847.279 Q123.677 854.385 125.482 857.95 Q127.311 861.492 130.922 861.492 Q134.556 861.492 136.362 857.95 Q138.191 854.385 138.191 847.279 Q138.191 840.149 136.362 836.608 Q134.556 833.043 130.922 833.043 M130.922 829.339 Q136.732 829.339 139.788 833.946 Q142.867 838.529 142.867 847.279 Q142.867 856.006 139.788 860.612 Q136.732 865.195 130.922 865.195 Q125.112 865.195 122.033 860.612 Q118.978 856.006 118.978 847.279 Q118.978 838.529 122.033 833.946 Q125.112 829.339 130.922 829.339 Z" fill="#000000" fill-rule="nonzero" fill-opacity="1" /><polyline clip-path="url(#clip293)" style="stroke:#009af9; stroke-linecap:round; stroke-linejoin:round; stroke-width:4; stroke-opacity:1; fill:none" points="240.392,1134.89 242.445,1190.98 244.498,1102.74 246.55,787.657 248.603,1006.93 250.656,1210.13 252.709,1165.62 254.762,1160.72 256.815,1159.69 258.868,1182.04 260.921,1133 262.974,1164.19 265.027,1163.13 267.079,1166.13 269.132,1132.67 271.185,1185.14 273.238,1167.34 275.291,1126.78 277.344,1318.2 279.397,1137.13 281.45,1335.58 283.503,1464.66 285.555,1136.33 287.608,1178.35 289.661,980.497 291.714,1012.64 293.767,1006.85 295.82,1085.06 297.873,1280.36 299.926,963.151 301.979,1283.47 304.031,1168.14 306.084,1135.78 308.137,1144.49 310.19,1146.15 312.243,1160.51 314.296,1110.13 316.349,1053.33 318.402,1310.27 320.455,1006.12 322.507,1238.53 324.56,1132.41 326.613,1199.8 328.666,1002.56 330.719,1101.57 332.772,1281.69 334.825,1091.94 336.878,1179.59 338.931,1187.98 340.984,1156.16 343.036,1111.88 345.089,1275.04 347.142,1106.48 349.195,899.347 351.248,1399.87 353.301,1260.09 355.354,1089.69 357.407,1149.63 359.46,1174.25 361.512,1188.07 363.565,1106.37 365.618,1227.81 367.671,1152.73 369.724,1299.4 371.777,1207.19 373.83,491.902 375.883,2466.93 377.936,765.767 379.988,1467.81 382.041,1963.59 384.094,1002.44 386.147,903.151 388.2,1317.64 390.253,1532.24 392.306,824.521 394.359,212.267 396.412,583.005 398.464,1843.04 400.517,981.549 402.57,521.87 404.623,175.508 406.676,1113.9 408.729,703.275 410.782,2624.77 412.835,1223.2 414.888,1064.99 416.94,1178.66 418.993,1176.05 421.046,1158.01 423.099,1219.35 425.152,1135.68 427.205,1142.74 429.258,1113.31 431.311,1207.23 433.364,1167.56 435.417,1182.37 437.469,1151.88 439.522,1192.79 441.575,1192.9 443.628,1318.67 445.681,1475.33 447.734,1207.5 449.787,1243.47 451.84,1026.1 453.893,1271.56 455.945,1217.47 457.998,1165.78 460.051,1171.55 462.104,1159.26 464.157,1159.09 466.21,1167.95 468.263,1168.67 470.316,1161.65 472.369,1151.99 474.421,1181.61 476.474,1175.13 478.527,1155.12 480.58,2755.87 482.633,1427.42 484.686,1153.3 486.739,571.617 488.792,1130.64 490.845,1118.91 492.897,1034.97 494.95,1223.32 497.003,1127.7 499.056,1181 501.109,1153.51 503.162,1136.92 505.215,1140.7 507.268,1137.38 509.321,1159.91 511.374,1259.1 513.426,1149.97 515.479,1176.19 517.532,1155.05 519.585,1177.94 521.638,1148.01 523.691,1231.67 525.744,1135.56 527.797,1167.69 529.85,1178.73 531.902,1157.28 533.955,1141.23 536.008,1144.59 538.061,1164.75 540.114,1142.72 542.167,1194.66 544.22,1127.71 546.273,1211.87 548.326,1103.88 550.378,1267.04 552.431,1111.26 554.484,1270.66 556.537,1230.1 558.59,1167.1 560.643,1226.29 562.696,1151.03 564.749,1168.96 566.802,1166.9 568.854,1184.31 570.907,1162.05 572.96,1199.32 575.013,1166.02 577.066,1272.95 579.119,1087.73 581.172,1242.24 583.225,1135.71 585.278,1164.45 587.331,1154.54 589.383,1634.88 591.436,1276.84 593.489,954.542 595.542,1118.33 597.595,1153.51 599.648,1158.54 601.701,1164.02 603.754,1175.03 605.807,1195.1 607.859,1146.2 609.912,1148.6 611.965,1234.25 614.018,1020.28 616.071,1101.1 618.124,1141.25 620.177,1253.98 622.23,1136.47 624.283,1102.57 626.335,1149.53 628.388,1181.61 630.441,1184.59 632.494,1136.99 634.547,1126.15 636.6,1140.71 638.653,1179.59 640.706,1164.29 642.759,1170.46 644.811,1187.76 646.864,1029.18 648.917,1137.48 650.97,1184.43 653.023,1158.81 655.076,1150.85 657.129,1159.08 659.182,1172.08 661.235,1163.91 663.288,1165.66 665.34,1244.1 667.393,1279.34 669.446,1133.43 671.499,977.789 673.552,1042.38 675.605,1068.59 677.658,1233.67 679.711,1254.84 681.764,1173.45 683.816,1190.23 685.869,1222.27 687.922,1173.72 689.975,1165.4 692.028,1146.39 694.081,1184.1 696.134,1192.09 698.187,1194.29 700.24,1163.22 702.292,1161.24 704.345,1139.84 706.398,1221.01 708.451,1200.86 710.504,1172.18 712.557,1157.08 714.61,1175.98 716.663,1080.2 718.716,1170.86 720.768,1169.35 722.821,1151.29 724.874,1156.1 726.927,1486.99 728.98,1082.15 731.033,439.142 733.086,1127.82 735.139,1174.62 737.192,1187.59 739.245,1180.82 741.297,1203.78 743.35,1210.66 745.403,1127.75 747.456,1147.44 749.509,1197.73 751.562,1175.26 753.615,1167.73 755.668,1147.48 757.721,1185.65 759.773,1144.05 761.826,1148.55 763.879,1189.18 765.932,1153.04 767.985,1153.49 770.038,1166.26 772.091,1168.58 774.144,1162.8 776.197,1167.77 778.249,1161.58 780.302,1154.95 782.355,1156.64 784.408,1054.18 786.461,1181.56 788.514,1121.6 790.567,1155.73 792.62,1166.93 794.673,1159.5 796.725,1173.65 798.778,1184.76 800.831,1435.38 802.884,1142.45 804.937,1147.19 806.99,1209.01 809.043,1193.51 811.096,1103.54 813.149,1141.16 815.202,1167.02 817.254,1186.48 819.307,1173.69 821.36,1181.52 823.413,1174.21 825.466,1181.29 827.519,1208.42 829.572,1147.95 831.625,1094.87 833.678,1110.89 835.73,1110.88 837.783,1109.58 839.836,1152.98 841.889,1237.71 843.942,1145.22 845.995,1182.84 848.048,1109.28 850.101,1214.18 852.154,1115.95 854.206,1208.97 856.259,1312.79 858.312,1224.64 860.365,1151.12 862.418,1289.69 864.471,1017.58 866.524,1273.7 868.577,1112.87 870.63,1132.72 872.682,1102.03 874.735,1308.75 876.788,1174.23 878.841,1171.34 880.894,1142.45 882.947,1138.78 885,1168.83 887.053,1126.47 889.106,1436.66 891.159,1191.07 893.211,1128.37 895.264,1186.96 897.317,1211.12 899.37,1217.87 901.423,1090.64 903.476,1034.42 905.529,1192.67 907.582,1155.97 909.635,1170.54 911.687,1144.79 913.74,1163.19 915.793,1173.98 917.846,1160.57 919.899,1176.33 921.952,1172.82 924.005,1318.23 926.058,1162.52 928.111,1164.32 930.163,1180.47 932.216,1145.93 934.269,1152.65 936.322,1154.97 938.375,1172.67 940.428,1168.89 942.481,1211.46 944.534,1193.67 946.587,1180.74 948.639,1153.87 950.692,1126.29 952.745,1145.12 954.798,1159.9 956.851,1169.1 958.904,1198.28 960.957,1170.48 963.01,1204.93 965.063,1175.95 967.116,1100.44 969.168,1211.23 971.221,1131.47 973.274,1132.92 975.327,1202.47 977.38,1181.29 979.433,1145.73 981.486,1065.56 983.539,1349 985.592,1097.36 987.644,1211.59 989.697,1152.18 991.75,1167.6 993.803,1186.05 995.856,1184.99 997.909,1133.93 999.962,1138.85 1002.01,1167.74 1004.07,1180.79 1006.12,1129.63 1008.17,1184.54 1010.23,1149.75 1012.28,1158.84 1014.33,1158.03 1016.38,1170.15 1018.44,1167.62 1020.49,1181.86 1022.54,1130.97 1024.6,1164.72 1026.65,1166.09 1028.7,1154.33 1030.76,1175.85 1032.81,1178.66 1034.86,1199.91 1036.91,1183.88 1038.97,1156.97 1041.02,1110.92 1043.07,1139.16 1045.13,1185.45 1047.18,1144.72 1049.23,1243.82 1051.28,1114.51 1053.34,1163.94 1055.39,1203.85 1057.44,1064.04 1059.5,1230.17 1061.55,1204.33 1063.6,1173.9 1065.65,1145.02 1067.71,901.49 1069.76,1290.54 1071.81,1143.48 1073.87,1161.16 1075.92,538.478 1077.97,904.772 1080.02,1176.34 1082.08,1180.44 1084.13,1160.16 1086.18,1162.54 1088.24,1210.89 1090.29,1163.76 1092.34,1171.63 1094.39,1130.68 1096.45,1180.13 1098.5,1071.54 1100.55,1122.2 1102.61,1111.09 1104.66,1131.57 1106.71,1155.36 1108.77,1201.45 1110.82,1129.08 1112.87,1187.79 1114.92,1140.82 1116.98,1209.77 1119.03,1175.3 1121.08,1197.58 1123.14,1230.9 1125.19,1257.11 1127.24,1044.81 1129.29,834.731 1131.35,342.692 1133.4,1255.15 1135.45,1275.07 1137.51,1129.15 1139.56,1166.28 1141.61,1137.25 1143.66,1153.83 1145.72,1349.71 1147.77,859.245 1149.82,1185.19 1151.88,1244.03 1153.93,1209.5 1155.98,1235.4 1158.03,1116.96 1160.09,1166.53 1162.14,1208.92 1164.19,1201.66 1166.25,1079.77 1168.3,947.589 1170.35,1622.84 1172.4,1358.57 1174.46,1068.65 1176.51,1111.6 1178.56,1097.85 1180.62,1146.66 1182.67,1147.94 1184.72,1180.9 1186.77,1122.98 1188.83,1348.27 1190.88,1023.31 1192.93,1149.64 1194.99,1221.01 1197.04,1130.16 1199.09,1137.43 1201.15,1268.91 1203.2,1031.79 1205.25,1191.83 1207.3,1143.26 1209.36,1138.14 1211.41,1165.82 1213.46,1438.13 1215.52,1084.59 1217.57,1200.13 1219.62,1154.88 1221.67,1074.34 1223.73,1103.62 1225.78,1175.12 1227.83,1144.7 1229.89,1102.99 1231.94,1168.75 1233.99,1161.62 1236.04,1187.79 1238.1,1198.87 1240.15,1203.86 1242.2,1193.57 1244.26,1147.61 1246.31,1157.05 1248.36,1143.42 1250.41,1153.82 1252.47,1185.2 1254.52,1158.77 1256.57,1117.85 1258.63,1147.29 1260.68,1199.35 1262.73,1188.42 1264.78,1072.79 1266.84,1124.23 1268.89,1188.97 1270.94,1191.93 1273,1214.33 1275.05,1392.48 1277.1,624.271 1279.16,1628.55 1281.21,757.56 1283.26,854.121 1285.31,1286.52 1287.37,1170.96 1289.42,1166.7 1291.47,1218.94 1293.53,1282.96 1295.58,1020.52 1297.63,1165.56 1299.68,1125.82 1301.74,1186.48 1303.79,1148.14 1305.84,1169.36 1307.9,1197.68 1309.95,1164.91 1312,1160.76 1314.05,1157.63 1316.11,1154.75 1318.16,1160.11 1320.21,1183.55 1322.27,1173.47 1324.32,1167.95 1326.37,1171.81 1328.42,1161.4 1330.48,1211.5 1332.53,716.341 1334.58,1249.29 1336.64,1187.62 1338.69,1185.13 1340.74,1204.05 1342.79,1324.6 1344.85,917.69 1346.9,1266.92 1348.95,1228.97 1351.01,1147 1353.06,1174.4 1355.11,1162.33 1357.16,1192.02 1359.22,1223.6 1361.27,1180.19 1363.32,1187.33 1365.38,1238.18 1367.43,1208.93 1369.48,1129.24 1371.54,1212.66 1373.59,1152.58 1375.64,1181.52 1377.69,1240.96 1379.75,1389.69 1381.8,1176.77 1383.85,1156.94 1385.91,1147.59 1387.96,1175.94 1390.01,1184.58 1392.06,1109.95 1394.12,1119.54 1396.17,1081.79 1398.22,1130.59 1400.28,1287.61 1402.33,1180.72 1404.38,1202.69 1406.43,1223.5 1408.49,1408.75 1410.54,1283.41 1412.59,1063.12 1414.65,1178.07 1416.7,1259.85 1418.75,1115.62 1420.8,1225.7 1422.86,1154.3 1424.91,1201.87 1426.96,1190.73 1429.02,1218.65 1431.07,1087.5 1433.12,1158.47 1435.17,1126.83 1437.23,1150.73 1439.28,1174.82 1441.33,1125.23 1443.39,1140.67 1445.44,1175.45 1447.49,1187.61 1449.55,1188.35 1451.6,1202.12 1453.65,1170.2 1455.7,1179.71 1457.76,1154.82 1459.81,1178.77 1461.86,1156.71 1463.92,1156.52 1465.97,1204.6 1468.02,1176.37 1470.07,1182.58 1472.13,1172.66 1474.18,1193.48 1476.23,1146.03 1478.29,1157.81 1480.34,1180.26 1482.39,1160.12 1484.44,1236.2 1486.5,1093.91 1488.55,926.178 1490.6,955.766 1492.66,1438.21 1494.71,606.961 1496.76,2200.78 1498.81,1380.21 1500.87,1168.27 1502.92,1229.34 1504.97,1234.82 1507.03,1133.04 1509.08,1137.37 1511.13,1153.59 1513.18,1190.19 1515.24,1148.76 1517.29,1106.1 1519.34,1115.88 1521.4,1196.6 1523.45,1148.67 1525.5,1414.4 1527.55,1132.65 1529.61,1183.68 1531.66,1147.91 1533.71,1150.8 1535.77,1160.17 1537.82,1116.63 1539.87,1123.4 1541.93,1152.59 1543.98,1154.01 1546.03,1187.93 1548.08,1228.11 1550.14,1449.78 1552.19,2015.42 1554.24,838.477 1556.3,1062.17 1558.35,1206.33 1560.4,1576.39 1562.45,1267.65 1564.51,1208.01 1566.56,1189.11 1568.61,1176.6 1570.67,1147.2 1572.72,1130.39 1574.77,1152.65 1576.82,1119.47 1578.88,1167.31 1580.93,1164.72 1582.98,1212.52 1585.04,1228 1587.09,1209.01 1589.14,1167.04 1591.19,1158.01 1593.25,1179.55 1595.3,1167.96 1597.35,1172.57 1599.41,1135.37 1601.46,999.625 1603.51,1071.14 1605.56,1170.46 1607.62,1191.7 1609.67,1158.73 1611.72,1049.81 1613.78,1143.24 1615.83,1116.29 1617.88,1161.62 1619.94,1172.62 1621.99,1184.9 1624.04,1156.54 1626.09,1182.57 1628.15,1141.62 1630.2,1151.4 1632.25,1252.38 1634.31,1269.5 1636.36,1158.58 1638.41,1171.72 1640.46,1129.93 1642.52,1136.65 1644.57,1219.24 1646.62,1165.76 1648.68,1151.54 1650.73,1100.63 1652.78,1230.07 1654.83,1102.02 1656.89,1435.94 1658.94,1067.04 1660.99,1106.05 1663.05,1187.86 1665.1,1212.31 1667.15,1217.79 1669.2,1219.1 1671.26,1231.38 1673.31,1238.46 1675.36,1177.76 1677.42,1132.21 1679.47,1139.59 1681.52,1066.05 1683.57,1144.52 1685.63,1166.35 1687.68,1157.58 1689.73,1160.79 1691.79,1179.36 1693.84,1178.34 1695.89,1175.46 1697.94,1081.94 1700,888.569 1702.05,161.245 1704.1,1171.26 1706.16,1166.97 1708.21,1168.59 1710.26,1159.84 1712.32,1183.98 1714.37,1220.69 1716.42,1210.13 1718.47,1140.59 1720.53,1131.52 1722.58,1156.03 1724.63,1169.4 1726.69,1232.66 1728.74,1191.88 1730.79,1149.75 1732.84,1156.78 1734.9,1127.29 1736.95,1146.38 1739,1140.83 1741.06,1210.07 1743.11,1195.75 1745.16,1203.13 1747.21,1245.62 1749.27,1219.86 1751.32,1172.57 1753.37,1200.62 1755.43,1180.34 1757.48,1193.41 1759.53,1154.38 1761.58,1190.13 1763.64,1213.83 1765.69,1218.67 1767.74,1211.65 1769.8,1200.41 1771.85,1121.82 1773.9,1176.76 1775.95,1189.14 1778.01,1107.79 1780.06,1117.87 1782.11,1192.98 1784.17,1190.18 1786.22,1192.82 1788.27,1085.01 1790.33,1221.69 1792.38,1200.44 1794.43,1161.65 1796.48,1387.92 1798.54,1126.21 1800.59,1087.89 1802.64,1087.33 1804.7,1865.16 1806.75,1421.05 1808.8,1543.25 1810.85,911.895 1812.91,1125.02 1814.96,1226.29 1817.01,1191.65 1819.07,1156.27 1821.12,1174.64 1823.17,1164.59 1825.22,1155.27 1827.28,1132.86 1829.33,1159.86 1831.38,1162.63 1833.44,1127.74 1835.49,1115.44 1837.54,1187.3 1839.59,1132.37 1841.65,1196.67 1843.7,1132.32 1845.75,1185.89 1847.81,1164.29 1849.86,1147.21 1851.91,1117.54 1853.96,1157.07 1856.02,1188.38 1858.07,1149.48 1860.12,1150.65 1862.18,1117.04 1864.23,1222.41 1866.28,1166.26 1868.34,1169.21 1870.39,1205.35 1872.44,916.306 1874.49,1007.04 1876.55,1050.15 1878.6,1188.95 1880.65,1200.43 1882.71,1165.66 1884.76,1144.81 1886.81,1170.08 1888.86,1155.88 1890.92,907.887 1892.97,921.226 1895.02,1024.26 1897.08,870.577 1899.13,1215.13 1901.18,1096.04 1903.23,1116.07 1905.29,1162.52 1907.34,1196.56 1909.39,1199.98 1911.45,1134.43 1913.5,1148.44 1915.55,1154.5 1917.6,1179.91 1919.66,1162.3 1921.71,1152.69 1923.76,1210.27 1925.82,1154.85 1927.87,1162.23 1929.92,1168.21 1931.97,1182.75 1934.03,1167.38 1936.08,1168.32 1938.13,1190.37 1940.19,1177.12 1942.24,1185.31 1944.29,1194.09 1946.34,1288.54 1948.4,1190.06 1950.45,1182.92 1952.5,1092.26 1954.56,1487.17 1956.61,1642.79 1958.66,1482.45 1960.72,430.039 1962.77,1478.7 1964.82,1032.51 1966.87,1257.48 1968.93,1153.56 1970.98,1162.2 1973.03,1312.03 1975.09,1147.86 1977.14,1118.2 1979.19,1246.27 1981.24,1225.35 1983.3,1117.37 1985.35,1008.92 1987.4,1718.84 1989.46,1479.57 1991.51,1453.94 1993.56,1239.83 1995.61,1158.37 1997.67,1190.73 1999.72,1170.5 2001.77,1192.18 2003.83,1140.62 2005.88,1127.85 2007.93,1182.51 2009.98,1222.9 2012.04,1268.34 2014.09,1150.3 2016.14,1163.61 2018.2,1156.13 2020.25,1158.83 2022.3,1189.43 2024.35,1184.13 2026.41,1142.93 2028.46,1162 2030.51,1161.98 2032.57,1170.78 2034.62,1150.13 2036.67,1150.07 2038.73,1120.36 2040.78,1146.5 2042.83,1241.46 2044.88,1146.69 2046.94,1170.25 2048.99,1158.69 2051.04,1158.44 2053.1,1222.65 2055.15,1320.61 2057.2,1164.06 2059.25,1169.1 2061.31,1160.29 2063.36,1166.88 2065.41,1233.36 2067.47,1254.88 2069.52,1165.99 2071.57,1151.44 2073.62,1165.93 2075.68,1135.37 2077.73,1195.85 2079.78,1225.2 2081.84,1195.11 2083.89,1172.51 2085.94,1098.73 2087.99,1150.11 2090.05,1158.59 2092.1,1214.34 2094.15,1047.07 2096.21,1132.35 2098.26,1197.04 2100.31,1135.43 2102.36,1167.93 2104.42,1170.4 2106.47,1177.65 2108.52,1168.78 2110.58,1192.18 2112.63,989.653 2114.68,1000.94 2116.73,1071.29 2118.79,1175.61 2120.84,1326.5 2122.89,2486.36 2124.95,2722.41 2127,170.212 2129.05,2533.97 2131.11,-148.414 2133.16,-257.223 2135.21,2406.92 2137.26,-762.765 2139.32,1357.96 2141.37,1044.86 2143.42,1034.27 2145.48,1187.68 2147.53,1189.43 2149.58,1159.84 2151.63,1229.19 2153.69,1118.04 2155.74,1178.39 2157.79,946.396 2159.85,1303.01 2161.9,1386.1 2163.95,1139.11 2166,1142.72 2168.06,1159.28 2170.11,1389.36 2172.16,1182.24 2174.22,1189.95 2176.27,1156.09 2178.32,1184.64 2180.37,1170.11 2182.43,1130.1 2184.48,1087.95 2186.53,1154.91 2188.59,1183.13 2190.64,1156.59 2192.69,1124.76 2194.74,1127.39 2196.8,1138.78 2198.85,1203.89 2200.9,1176.91 2202.96,1171.89 2205.01,1165.05 2207.06,1199.33 2209.12,1155.2 2211.17,1154.21 2213.22,1162.45 2215.27,1082.95 2217.33,1259.38 2219.38,1153.81 2221.43,1265.83 2223.49,1311.08 2225.54,862.729 2227.59,1613.28 2229.64,1469.59 2231.7,1080.91 2233.75,1154.22 2235.8,1152.88 2237.86,1149.47 2239.91,1156.01 2241.96,1157.43 2244.01,1234.77 2246.07,1147.46 2248.12,1184.13 2250.17,1123.08 2252.23,1115.4 2254.28,1135.75 2256.33,363.682 2258.38,887.337 2260.44,1398.72 2262.49,1245.47 2264.54,1179.84 2266.6,1174.72 2268.65,1195.48 2270.7,1243.23 2272.75,1527.28 2274.81,849.241 2276.86,1204.64 2278.91,1039.67 2280.97,1259.31 2283.02,1058.67 2285.07,1103.4 2287.12,1083.47 2289.18,1152.77 2291.23,1178.35 "/>
<path clip-path="url(#clip290)" d="M251.33 972.231 L588.926 972.231 L588.926 868.551 L251.33 868.551  Z" fill="#ffffff" fill-rule="evenodd" fill-opacity="1"/>
<polyline clip-path="url(#clip290)" style="stroke:#000000; stroke-linecap:round; stroke-linejoin:round; stroke-width:4; stroke-opacity:1; fill:none" points="251.33,972.231 588.926,972.231 588.926,868.551 251.33,868.551 251.33,972.231 "/>
<polyline clip-path="url(#clip290)" style="stroke:#009af9; stroke-linecap:round; stroke-linejoin:round; stroke-width:4; stroke-opacity:1; fill:none" points="275.484,920.391 420.41,920.391 "/>
<path clip-path="url(#clip290)" d="M470.12 932.74 L470.12 923.458 L462.481 923.458 L462.481 919.615 L474.749 919.615 L474.749 934.453 Q472.041 936.375 468.777 937.37 Q465.513 938.342 461.809 938.342 Q453.708 938.342 449.124 933.62 Q444.564 928.875 444.564 920.426 Q444.564 911.953 449.124 907.231 Q453.708 902.486 461.809 902.486 Q465.189 902.486 468.221 903.319 Q471.277 904.153 473.846 905.773 L473.846 910.75 Q471.254 908.551 468.337 907.44 Q465.421 906.328 462.203 906.328 Q455.86 906.328 452.666 909.87 Q449.495 913.412 449.495 920.426 Q449.495 927.416 452.666 930.958 Q455.86 934.5 462.203 934.5 Q464.68 934.5 466.624 934.083 Q468.569 933.643 470.12 932.74 Z" fill="#000000" fill-rule="nonzero" fill-opacity="1" /><path clip-path="url(#clip290)" d="M487.967 906.953 L487.967 919.94 L493.846 919.94 Q497.11 919.94 498.893 918.25 Q500.675 916.56 500.675 913.435 Q500.675 910.333 498.893 908.643 Q497.11 906.953 493.846 906.953 L487.967 906.953 M483.291 903.111 L493.846 903.111 Q499.657 903.111 502.619 905.75 Q505.606 908.365 505.606 913.435 Q505.606 918.551 502.619 921.166 Q499.657 923.782 493.846 923.782 L487.967 923.782 L487.967 937.671 L483.291 937.671 L483.291 903.111 Z" fill="#000000" fill-rule="nonzero" fill-opacity="1" /><path clip-path="url(#clip290)" d="M532.596 904.245 L532.596 908.805 Q529.934 907.532 527.573 906.907 Q525.212 906.282 523.013 906.282 Q519.193 906.282 517.11 907.764 Q515.05 909.245 515.05 911.977 Q515.05 914.268 516.416 915.449 Q517.805 916.606 521.647 917.324 L524.471 917.902 Q529.703 918.898 532.179 921.421 Q534.679 923.921 534.679 928.134 Q534.679 933.157 531.3 935.75 Q527.943 938.342 521.439 938.342 Q518.985 938.342 516.207 937.787 Q513.453 937.231 510.49 936.143 L510.49 931.328 Q513.337 932.926 516.068 933.736 Q518.8 934.546 521.439 934.546 Q525.443 934.546 527.619 932.972 Q529.795 931.398 529.795 928.481 Q529.795 925.935 528.221 924.5 Q526.67 923.064 523.105 922.347 L520.258 921.791 Q515.027 920.75 512.689 918.527 Q510.351 916.305 510.351 912.347 Q510.351 907.764 513.568 905.125 Q516.809 902.486 522.48 902.486 Q524.911 902.486 527.434 902.926 Q529.957 903.366 532.596 904.245 Z" fill="#000000" fill-rule="nonzero" fill-opacity="1" /><path clip-path="url(#clip290)" d="M562.689 904.245 L562.689 908.805 Q560.027 907.532 557.665 906.907 Q555.304 906.282 553.105 906.282 Q549.286 906.282 547.203 907.764 Q545.142 909.245 545.142 911.977 Q545.142 914.268 546.508 915.449 Q547.897 916.606 551.74 917.324 L554.564 917.902 Q559.795 918.898 562.272 921.421 Q564.772 923.921 564.772 928.134 Q564.772 933.157 561.392 935.75 Q558.036 938.342 551.531 938.342 Q549.078 938.342 546.3 937.787 Q543.545 937.231 540.582 936.143 L540.582 931.328 Q543.429 932.926 546.161 933.736 Q548.892 934.546 551.531 934.546 Q555.536 934.546 557.712 932.972 Q559.888 931.398 559.888 928.481 Q559.888 925.935 558.314 924.5 Q556.763 923.064 553.198 922.347 L550.351 921.791 Q545.119 920.75 542.781 918.527 Q540.443 916.305 540.443 912.347 Q540.443 907.764 543.661 905.125 Q546.902 902.486 552.573 902.486 Q555.003 902.486 557.527 902.926 Q560.05 903.366 562.689 904.245 Z" fill="#000000" fill-rule="nonzero" fill-opacity="1" /></svg>
