<?xml version="1.0" encoding="utf-8"?>
<svg xmlns="http://www.w3.org/2000/svg" xmlns:xlink="http://www.w3.org/1999/xlink" width="600" height="400" viewBox="0 0 2400 1600">
<defs>
  <clipPath id="clip630">
    <rect x="0" y="0" width="2400" height="1600"/>
  </clipPath>
</defs>
<path clip-path="url(#clip630)" d="M0 1600 L2400 1600 L2400 0 L0 0  Z" fill="#ffffff" fill-rule="evenodd" fill-opacity="1"/>
<defs>
  <clipPath id="clip631">
    <rect x="480" y="0" width="1681" height="1600"/>
  </clipPath>
</defs>
<path clip-path="url(#clip630)" d="M178.867 686.448 L2352.76 686.448 L2352.76 47.2441 L178.867 47.2441  Z" fill="#ffffff" fill-rule="evenodd" fill-opacity="1"/>
<defs>
  <clipPath id="clip632">
    <rect x="178" y="47" width="2175" height="640"/>
  </clipPath>
</defs>
<polyline clip-path="url(#clip632)" style="stroke:#000000; stroke-linecap:round; stroke-linejoin:round; stroke-width:2; stroke-opacity:0.1; fill:none" points="238.339,686.448 238.339,47.2441 "/>
<polyline clip-path="url(#clip632)" style="stroke:#000000; stroke-linecap:round; stroke-linejoin:round; stroke-width:2; stroke-opacity:0.1; fill:none" points="751.562,686.448 751.562,47.2441 "/>
<polyline clip-path="url(#clip632)" style="stroke:#000000; stroke-linecap:round; stroke-linejoin:round; stroke-width:2; stroke-opacity:0.1; fill:none" points="1264.78,686.448 1264.78,47.2441 "/>
<polyline clip-path="url(#clip632)" style="stroke:#000000; stroke-linecap:round; stroke-linejoin:round; stroke-width:2; stroke-opacity:0.1; fill:none" points="1778.01,686.448 1778.01,47.2441 "/>
<polyline clip-path="url(#clip632)" style="stroke:#000000; stroke-linecap:round; stroke-linejoin:round; stroke-width:2; stroke-opacity:0.1; fill:none" points="2291.23,686.448 2291.23,47.2441 "/>
<polyline clip-path="url(#clip632)" style="stroke:#000000; stroke-linecap:round; stroke-linejoin:round; stroke-width:2; stroke-opacity:0.1; fill:none" points="178.867,686.448 2352.76,686.448 "/>
<polyline clip-path="url(#clip632)" style="stroke:#000000; stroke-linecap:round; stroke-linejoin:round; stroke-width:2; stroke-opacity:0.1; fill:none" points="178.867,526.647 2352.76,526.647 "/>
<polyline clip-path="url(#clip632)" style="stroke:#000000; stroke-linecap:round; stroke-linejoin:round; stroke-width:2; stroke-opacity:0.1; fill:none" points="178.867,366.846 2352.76,366.846 "/>
<polyline clip-path="url(#clip632)" style="stroke:#000000; stroke-linecap:round; stroke-linejoin:round; stroke-width:2; stroke-opacity:0.1; fill:none" points="178.867,207.045 2352.76,207.045 "/>
<polyline clip-path="url(#clip632)" style="stroke:#000000; stroke-linecap:round; stroke-linejoin:round; stroke-width:2; stroke-opacity:0.1; fill:none" points="178.867,47.2441 2352.76,47.2441 "/>
<polyline clip-path="url(#clip630)" style="stroke:#000000; stroke-linecap:round; stroke-linejoin:round; stroke-width:4; stroke-opacity:1; fill:none" points="178.867,686.448 2352.76,686.448 "/>
<polyline clip-path="url(#clip630)" style="stroke:#000000; stroke-linecap:round; stroke-linejoin:round; stroke-width:4; stroke-opacity:1; fill:none" points="238.339,686.448 238.339,667.55 "/>
<polyline clip-path="url(#clip630)" style="stroke:#000000; stroke-linecap:round; stroke-linejoin:round; stroke-width:4; stroke-opacity:1; fill:none" points="751.562,686.448 751.562,667.55 "/>
<polyline clip-path="url(#clip630)" style="stroke:#000000; stroke-linecap:round; stroke-linejoin:round; stroke-width:4; stroke-opacity:1; fill:none" points="1264.78,686.448 1264.78,667.55 "/>
<polyline clip-path="url(#clip630)" style="stroke:#000000; stroke-linecap:round; stroke-linejoin:round; stroke-width:4; stroke-opacity:1; fill:none" points="1778.01,686.448 1778.01,667.55 "/>
<polyline clip-path="url(#clip630)" style="stroke:#000000; stroke-linecap:round; stroke-linejoin:round; stroke-width:4; stroke-opacity:1; fill:none" points="2291.23,686.448 2291.23,667.55 "/>
<path clip-path="url(#clip630)" d="M238.339 717.367 Q234.728 717.367 232.899 720.931 Q231.094 724.473 231.094 731.603 Q231.094 738.709 232.899 742.274 Q234.728 745.815 238.339 745.815 Q241.973 745.815 243.779 742.274 Q245.607 738.709 245.607 731.603 Q245.607 724.473 243.779 720.931 Q241.973 717.367 238.339 717.367 M238.339 713.663 Q244.149 713.663 247.205 718.269 Q250.283 722.853 250.283 731.603 Q250.283 740.329 247.205 744.936 Q244.149 749.519 238.339 749.519 Q232.529 749.519 229.45 744.936 Q226.395 740.329 226.395 731.603 Q226.395 722.853 229.45 718.269 Q232.529 713.663 238.339 713.663 Z" fill="#000000" fill-rule="nonzero" fill-opacity="1" /><path clip-path="url(#clip630)" d="M715.254 744.913 L731.574 744.913 L731.574 748.848 L709.629 748.848 L709.629 744.913 Q712.291 742.158 716.875 737.528 Q721.481 732.876 722.662 731.533 Q724.907 729.01 725.787 727.274 Q726.689 725.515 726.689 723.825 Q726.689 721.07 724.745 719.334 Q722.824 717.598 719.722 717.598 Q717.523 717.598 715.069 718.362 Q712.638 719.126 709.861 720.677 L709.861 715.955 Q712.685 714.82 715.138 714.242 Q717.592 713.663 719.629 713.663 Q725 713.663 728.194 716.348 Q731.388 719.033 731.388 723.524 Q731.388 725.654 730.578 727.575 Q729.791 729.473 727.685 732.066 Q727.106 732.737 724.004 735.954 Q720.902 739.149 715.254 744.913 Z" fill="#000000" fill-rule="nonzero" fill-opacity="1" /><path clip-path="url(#clip630)" d="M741.435 714.288 L759.791 714.288 L759.791 718.223 L745.717 718.223 L745.717 726.695 Q746.736 726.348 747.754 726.186 Q748.773 726.001 749.791 726.001 Q755.578 726.001 758.958 729.172 Q762.337 732.343 762.337 737.76 Q762.337 743.339 758.865 746.44 Q755.393 749.519 749.073 749.519 Q746.898 749.519 744.629 749.149 Q742.384 748.778 739.976 748.038 L739.976 743.339 Q742.06 744.473 744.282 745.028 Q746.504 745.584 748.981 745.584 Q752.985 745.584 755.323 743.478 Q757.661 741.371 757.661 737.76 Q757.661 734.149 755.323 732.042 Q752.985 729.936 748.981 729.936 Q747.106 729.936 745.231 730.353 Q743.379 730.769 741.435 731.649 L741.435 714.288 Z" fill="#000000" fill-rule="nonzero" fill-opacity="1" /><path clip-path="url(#clip630)" d="M781.55 717.367 Q777.939 717.367 776.11 720.931 Q774.305 724.473 774.305 731.603 Q774.305 738.709 776.11 742.274 Q777.939 745.815 781.55 745.815 Q785.184 745.815 786.99 742.274 Q788.819 738.709 788.819 731.603 Q788.819 724.473 786.99 720.931 Q785.184 717.367 781.55 717.367 M781.55 713.663 Q787.36 713.663 790.416 718.269 Q793.495 722.853 793.495 731.603 Q793.495 740.329 790.416 744.936 Q787.36 749.519 781.55 749.519 Q775.74 749.519 772.661 744.936 Q769.606 740.329 769.606 731.603 Q769.606 722.853 772.661 718.269 Q775.74 713.663 781.55 713.663 Z" fill="#000000" fill-rule="nonzero" fill-opacity="1" /><path clip-path="url(#clip630)" d="M1224.4 714.288 L1242.76 714.288 L1242.76 718.223 L1228.69 718.223 L1228.69 726.695 Q1229.7 726.348 1230.72 726.186 Q1231.74 726.001 1232.76 726.001 Q1238.55 726.001 1241.93 729.172 Q1245.31 732.343 1245.31 737.76 Q1245.31 743.339 1241.83 746.44 Q1238.36 749.519 1232.04 749.519 Q1229.87 749.519 1227.6 749.149 Q1225.35 748.778 1222.94 748.038 L1222.94 743.339 Q1225.03 744.473 1227.25 745.028 Q1229.47 745.584 1231.95 745.584 Q1235.95 745.584 1238.29 743.478 Q1240.63 741.371 1240.63 737.76 Q1240.63 734.149 1238.29 732.042 Q1235.95 729.936 1231.95 729.936 Q1230.07 729.936 1228.2 730.353 Q1226.35 730.769 1224.4 731.649 L1224.4 714.288 Z" fill="#000000" fill-rule="nonzero" fill-opacity="1" /><path clip-path="url(#clip630)" d="M1264.52 717.367 Q1260.91 717.367 1259.08 720.931 Q1257.27 724.473 1257.27 731.603 Q1257.27 738.709 1259.08 742.274 Q1260.91 745.815 1264.52 745.815 Q1268.15 745.815 1269.96 742.274 Q1271.79 738.709 1271.79 731.603 Q1271.79 724.473 1269.96 720.931 Q1268.15 717.367 1264.52 717.367 M1264.52 713.663 Q1270.33 713.663 1273.38 718.269 Q1276.46 722.853 1276.46 731.603 Q1276.46 740.329 1273.38 744.936 Q1270.33 749.519 1264.52 749.519 Q1258.71 749.519 1255.63 744.936 Q1252.57 740.329 1252.57 731.603 Q1252.57 722.853 1255.63 718.269 Q1258.71 713.663 1264.52 713.663 Z" fill="#000000" fill-rule="nonzero" fill-opacity="1" /><path clip-path="url(#clip630)" d="M1294.68 717.367 Q1291.07 717.367 1289.24 720.931 Q1287.44 724.473 1287.44 731.603 Q1287.44 738.709 1289.24 742.274 Q1291.07 745.815 1294.68 745.815 Q1298.31 745.815 1300.12 742.274 Q1301.95 738.709 1301.95 731.603 Q1301.95 724.473 1300.12 720.931 Q1298.31 717.367 1294.68 717.367 M1294.68 713.663 Q1300.49 713.663 1303.55 718.269 Q1306.62 722.853 1306.62 731.603 Q1306.62 740.329 1303.55 744.936 Q1300.49 749.519 1294.68 749.519 Q1288.87 749.519 1285.79 744.936 Q1282.74 740.329 1282.74 731.603 Q1282.74 722.853 1285.79 718.269 Q1288.87 713.663 1294.68 713.663 Z" fill="#000000" fill-rule="nonzero" fill-opacity="1" /><path clip-path="url(#clip630)" d="M1736.28 714.288 L1758.51 714.288 L1758.51 716.279 L1745.96 748.848 L1741.08 748.848 L1752.88 718.223 L1736.28 718.223 L1736.28 714.288 Z" fill="#000000" fill-rule="nonzero" fill-opacity="1" /><path clip-path="url(#clip630)" d="M1767.67 714.288 L1786.03 714.288 L1786.03 718.223 L1771.95 718.223 L1771.95 726.695 Q1772.97 726.348 1773.99 726.186 Q1775.01 726.001 1776.03 726.001 Q1781.82 726.001 1785.2 729.172 Q1788.57 732.343 1788.57 737.76 Q1788.57 743.339 1785.1 746.44 Q1781.63 749.519 1775.31 749.519 Q1773.14 749.519 1770.87 749.149 Q1768.62 748.778 1766.21 748.038 L1766.21 743.339 Q1768.3 744.473 1770.52 745.028 Q1772.74 745.584 1775.22 745.584 Q1779.22 745.584 1781.56 743.478 Q1783.9 741.371 1783.9 737.76 Q1783.9 734.149 1781.56 732.042 Q1779.22 729.936 1775.22 729.936 Q1773.34 729.936 1771.47 730.353 Q1769.62 730.769 1767.67 731.649 L1767.67 714.288 Z" fill="#000000" fill-rule="nonzero" fill-opacity="1" /><path clip-path="url(#clip630)" d="M1807.79 717.367 Q1804.18 717.367 1802.35 720.931 Q1800.54 724.473 1800.54 731.603 Q1800.54 738.709 1802.35 742.274 Q1804.18 745.815 1807.79 745.815 Q1811.42 745.815 1813.23 742.274 Q1815.06 738.709 1815.06 731.603 Q1815.06 724.473 1813.23 720.931 Q1811.42 717.367 1807.79 717.367 M1807.79 713.663 Q1813.6 713.663 1816.65 718.269 Q1819.73 722.853 1819.73 731.603 Q1819.73 740.329 1816.65 744.936 Q1813.6 749.519 1807.79 749.519 Q1801.98 749.519 1798.9 744.936 Q1795.84 740.329 1795.84 731.603 Q1795.84 722.853 1798.9 718.269 Q1801.98 713.663 1807.79 713.663 Z" fill="#000000" fill-rule="nonzero" fill-opacity="1" /><path clip-path="url(#clip630)" d="M2235.76 744.913 L2243.4 744.913 L2243.4 718.547 L2235.09 720.214 L2235.09 715.955 L2243.35 714.288 L2248.02 714.288 L2248.02 744.913 L2255.66 744.913 L2255.66 748.848 L2235.76 748.848 L2235.76 744.913 Z" fill="#000000" fill-rule="nonzero" fill-opacity="1" /><path clip-path="url(#clip630)" d="M2275.11 717.367 Q2271.5 717.367 2269.67 720.931 Q2267.86 724.473 2267.86 731.603 Q2267.86 738.709 2269.67 742.274 Q2271.5 745.815 2275.11 745.815 Q2278.74 745.815 2280.55 742.274 Q2282.38 738.709 2282.38 731.603 Q2282.38 724.473 2280.55 720.931 Q2278.74 717.367 2275.11 717.367 M2275.11 713.663 Q2280.92 713.663 2283.97 718.269 Q2287.05 722.853 2287.05 731.603 Q2287.05 740.329 2283.97 744.936 Q2280.92 749.519 2275.11 749.519 Q2269.3 749.519 2266.22 744.936 Q2263.16 740.329 2263.16 731.603 Q2263.16 722.853 2266.22 718.269 Q2269.3 713.663 2275.11 713.663 Z" fill="#000000" fill-rule="nonzero" fill-opacity="1" /><path clip-path="url(#clip630)" d="M2305.27 717.367 Q2301.66 717.367 2299.83 720.931 Q2298.02 724.473 2298.02 731.603 Q2298.02 738.709 2299.83 742.274 Q2301.66 745.815 2305.27 745.815 Q2308.9 745.815 2310.71 742.274 Q2312.54 738.709 2312.54 731.603 Q2312.54 724.473 2310.71 720.931 Q2308.9 717.367 2305.27 717.367 M2305.27 713.663 Q2311.08 713.663 2314.14 718.269 Q2317.21 722.853 2317.21 731.603 Q2317.21 740.329 2314.14 744.936 Q2311.08 749.519 2305.27 749.519 Q2299.46 749.519 2296.38 744.936 Q2293.33 740.329 2293.33 731.603 Q2293.33 722.853 2296.38 718.269 Q2299.46 713.663 2305.27 713.663 Z" fill="#000000" fill-rule="nonzero" fill-opacity="1" /><path clip-path="url(#clip630)" d="M2335.43 717.367 Q2331.82 717.367 2329.99 720.931 Q2328.19 724.473 2328.19 731.603 Q2328.19 738.709 2329.99 742.274 Q2331.82 745.815 2335.43 745.815 Q2339.07 745.815 2340.87 742.274 Q2342.7 738.709 2342.7 731.603 Q2342.7 724.473 2340.87 720.931 Q2339.07 717.367 2335.43 717.367 M2335.43 713.663 Q2341.24 713.663 2344.3 718.269 Q2347.38 722.853 2347.38 731.603 Q2347.38 740.329 2344.3 744.936 Q2341.24 749.519 2335.43 749.519 Q2329.62 749.519 2326.54 744.936 Q2323.49 740.329 2323.49 731.603 Q2323.49 722.853 2326.54 718.269 Q2329.62 713.663 2335.43 713.663 Z" fill="#000000" fill-rule="nonzero" fill-opacity="1" /><polyline clip-path="url(#clip630)" style="stroke:#000000; stroke-linecap:round; stroke-linejoin:round; stroke-width:4; stroke-opacity:1; fill:none" points="178.867,686.448 178.867,47.2441 "/>
<polyline clip-path="url(#clip630)" style="stroke:#000000; stroke-linecap:round; stroke-linejoin:round; stroke-width:4; stroke-opacity:1; fill:none" points="178.867,686.448 197.764,686.448 "/>
<polyline clip-path="url(#clip630)" style="stroke:#000000; stroke-linecap:round; stroke-linejoin:round; stroke-width:4; stroke-opacity:1; fill:none" points="178.867,526.647 197.764,526.647 "/>
<polyline clip-path="url(#clip630)" style="stroke:#000000; stroke-linecap:round; stroke-linejoin:round; stroke-width:4; stroke-opacity:1; fill:none" points="178.867,366.846 197.764,366.846 "/>
<polyline clip-path="url(#clip630)" style="stroke:#000000; stroke-linecap:round; stroke-linejoin:round; stroke-width:4; stroke-opacity:1; fill:none" points="178.867,207.045 197.764,207.045 "/>
<polyline clip-path="url(#clip630)" style="stroke:#000000; stroke-linecap:round; stroke-linejoin:round; stroke-width:4; stroke-opacity:1; fill:none" points="178.867,47.2441 197.764,47.2441 "/>
<path clip-path="url(#clip630)" d="M50.9921 686.899 L80.6679 686.899 L80.6679 690.834 L50.9921 690.834 L50.9921 686.899 Z" fill="#000000" fill-rule="nonzero" fill-opacity="1" /><path clip-path="url(#clip630)" d="M91.5706 699.793 L99.2095 699.793 L99.2095 673.427 L90.8993 675.094 L90.8993 670.835 L99.1632 669.168 L103.839 669.168 L103.839 699.793 L111.478 699.793 L111.478 703.728 L91.5706 703.728 L91.5706 699.793 Z" fill="#000000" fill-rule="nonzero" fill-opacity="1" /><path clip-path="url(#clip630)" d="M130.922 672.247 Q127.311 672.247 125.482 675.811 Q123.677 679.353 123.677 686.483 Q123.677 693.589 125.482 697.154 Q127.311 700.695 130.922 700.695 Q134.556 700.695 136.362 697.154 Q138.191 693.589 138.191 686.483 Q138.191 679.353 136.362 675.811 Q134.556 672.247 130.922 672.247 M130.922 668.543 Q136.732 668.543 139.788 673.149 Q142.867 677.733 142.867 686.483 Q142.867 695.209 139.788 699.816 Q136.732 704.399 130.922 704.399 Q125.112 704.399 122.033 699.816 Q118.978 695.209 118.978 686.483 Q118.978 677.733 122.033 673.149 Q125.112 668.543 130.922 668.543 Z" fill="#000000" fill-rule="nonzero" fill-opacity="1" /><path clip-path="url(#clip630)" d="M82.1494 527.098 L111.825 527.098 L111.825 531.033 L82.1494 531.033 L82.1494 527.098 Z" fill="#000000" fill-rule="nonzero" fill-opacity="1" /><path clip-path="url(#clip630)" d="M121.964 509.367 L140.32 509.367 L140.32 513.302 L126.246 513.302 L126.246 521.774 Q127.265 521.427 128.283 521.265 Q129.302 521.08 130.32 521.08 Q136.107 521.08 139.487 524.251 Q142.867 527.422 142.867 532.839 Q142.867 538.418 139.394 541.52 Q135.922 544.598 129.603 544.598 Q127.427 544.598 125.158 544.228 Q122.913 543.857 120.506 543.117 L120.506 538.418 Q122.589 539.552 124.811 540.108 Q127.033 540.663 129.51 540.663 Q133.515 540.663 135.853 538.557 Q138.191 536.45 138.191 532.839 Q138.191 529.228 135.853 527.121 Q133.515 525.015 129.51 525.015 Q127.635 525.015 125.76 525.432 Q123.908 525.848 121.964 526.728 L121.964 509.367 Z" fill="#000000" fill-rule="nonzero" fill-opacity="1" /><path clip-path="url(#clip630)" d="M130.922 352.645 Q127.311 352.645 125.482 356.209 Q123.677 359.751 123.677 366.881 Q123.677 373.987 125.482 377.552 Q127.311 381.094 130.922 381.094 Q134.556 381.094 136.362 377.552 Q138.191 373.987 138.191 366.881 Q138.191 359.751 136.362 356.209 Q134.556 352.645 130.922 352.645 M130.922 348.941 Q136.732 348.941 139.788 353.547 Q142.867 358.131 142.867 366.881 Q142.867 375.608 139.788 380.214 Q136.732 384.797 130.922 384.797 Q125.112 384.797 122.033 380.214 Q118.978 375.608 118.978 366.881 Q118.978 358.131 122.033 353.547 Q125.112 348.941 130.922 348.941 Z" fill="#000000" fill-rule="nonzero" fill-opacity="1" /><path clip-path="url(#clip630)" d="M121.964 189.765 L140.32 189.765 L140.32 193.7 L126.246 193.7 L126.246 202.172 Q127.265 201.825 128.283 201.663 Q129.302 201.478 130.32 201.478 Q136.107 201.478 139.487 204.649 Q142.867 207.82 142.867 213.237 Q142.867 218.816 139.394 221.918 Q135.922 224.996 129.603 224.996 Q127.427 224.996 125.158 224.626 Q122.913 224.256 120.506 223.515 L120.506 218.816 Q122.589 219.95 124.811 220.506 Q127.033 221.061 129.51 221.061 Q133.515 221.061 135.853 218.955 Q138.191 216.848 138.191 213.237 Q138.191 209.626 135.853 207.52 Q133.515 205.413 129.51 205.413 Q127.635 205.413 125.76 205.83 Q123.908 206.246 121.964 207.126 L121.964 189.765 Z" fill="#000000" fill-rule="nonzero" fill-opacity="1" /><path clip-path="url(#clip630)" d="M91.5706 60.5889 L99.2095 60.5889 L99.2095 34.2233 L90.8993 35.89 L90.8993 31.6308 L99.1632 29.9641 L103.839 29.9641 L103.839 60.5889 L111.478 60.5889 L111.478 64.5241 L91.5706 64.5241 L91.5706 60.5889 Z" fill="#000000" fill-rule="nonzero" fill-opacity="1" /><path clip-path="url(#clip630)" d="M130.922 33.0428 Q127.311 33.0428 125.482 36.6076 Q123.677 40.1492 123.677 47.2788 Q123.677 54.3853 125.482 57.9501 Q127.311 61.4917 130.922 61.4917 Q134.556 61.4917 136.362 57.9501 Q138.191 54.3853 138.191 47.2788 Q138.191 40.1492 136.362 36.6076 Q134.556 33.0428 130.922 33.0428 M130.922 29.3391 Q136.732 29.3391 139.788 33.9456 Q142.867 38.5289 142.867 47.2788 Q142.867 56.0056 139.788 60.6121 Q136.732 65.1954 130.922 65.1954 Q125.112 65.1954 122.033 60.6121 Q118.978 56.0056 118.978 47.2788 Q118.978 38.5289 122.033 33.9456 Q125.112 29.3391 130.922 29.3391 Z" fill="#000000" fill-rule="nonzero" fill-opacity="1" /><polyline clip-path="url(#clip632)" style="stroke:#009af9; stroke-linecap:round; stroke-linejoin:round; stroke-width:4; stroke-opacity:1; fill:none" points="240.392,334.886 242.445,335.16 244.498,367.378 246.55,367.277 248.603,376.811 250.656,374.304 252.709,392.19 254.762,358.406 256.815,355.835 258.868,364.524 260.921,363.646 262.974,374.927 265.027,378.655 267.079,410.801 269.132,383.363 271.185,379.177 273.238,378.066 275.291,384.078 277.344,424.355 279.397,424.506 281.45,429.282 283.503,428.416 285.555,427.287 287.608,428.255 289.661,428.545 291.714,428.607 293.767,424.301 295.82,421.358 297.873,423.052 299.926,421.449 301.979,414.539 304.031,425.857 306.084,425.786 308.137,453.977 310.19,458.745 312.243,458.772 314.296,444.142 316.349,411.656 318.402,410.481 320.455,409.175 322.507,288.488 324.56,287.702 326.613,287.009 328.666,282.589 330.719,281.2 332.772,280.077 334.825,377.42 336.878,313.69 338.931,293.638 340.984,295.103 343.036,297.425 345.089,296.391 347.142,304.904 349.195,305.852 351.248,394.824 353.301,396.649 355.354,397.016 357.407,370.382 359.46,372.899 361.512,324.684 363.565,352.057 365.618,354.375 367.671,363.782 369.724,366.134 371.777,260.608 373.83,258.194 375.883,259.155 377.936,255.497 379.988,253.888 382.041,254.177 384.094,395.96 386.147,379.666 388.2,385.251 390.253,392.169 392.306,546.05 394.359,389.642 396.412,390.23 398.464,411.743 400.517,420.153 402.57,458.351 404.623,461.427 406.676,461.426 408.729,460.885 410.782,456.826 412.835,458.387 414.888,462.906 416.94,461.884 418.993,464.957 421.046,360.977 423.099,342.809 425.152,330.559 427.205,313.034 429.258,312.914 431.311,313.628 433.364,326.883 435.417,391.296 437.469,388.674 439.522,388.707 441.575,385.863 443.628,380.615 445.681,432.255 447.734,414.69 449.787,414.701 451.84,447.574 453.893,444.061 455.945,411.021 457.998,410.949 460.051,423.039 462.104,424.732 464.157,428.661 466.21,429.31 468.263,431.834 470.316,431.229 472.369,347.065 474.421,340.248 476.474,329.296 478.527,328.183 480.58,367.813 482.633,376.335 484.686,430.037 486.739,430.324 488.792,432.608 490.845,432.87 492.897,445.545 494.95,382.789 497.003,383.916 499.056,414.841 501.109,409.945 503.162,384.414 505.215,380.482 507.268,380.542 509.321,379.718 511.374,456.769 513.426,466.13 515.479,479.599 517.532,462.856 519.585,457.125 521.638,454.175 523.691,457.698 525.744,557.516 527.797,365.933 529.85,354.871 531.902,360.319 533.955,383.913 536.008,369.054 538.061,374.069 540.114,371.017 542.167,371.521 544.22,374.188 546.273,360.007 548.326,347.366 550.378,352.996 552.431,446.521 554.484,439.954 556.537,435.626 558.59,355.197 560.643,344.28 562.696,343.838 564.749,348.778 566.802,346.445 568.854,348.31 570.907,291.093 572.96,412.382 575.013,414.38 577.066,397.628 579.119,413.351 581.172,386.582 583.225,393.354 585.278,353.245 587.331,356.093 589.383,407.341 591.436,407.358 593.489,400.062 595.542,394.209 597.595,383.486 599.648,342.684 601.701,351.547 603.754,351.33 605.807,359.927 607.859,391.643 609.912,391.631 611.965,410.896 614.018,431.956 616.071,394.511 618.124,429.66 620.177,572.751 622.23,563.27 624.283,299.164 626.335,298.628 628.388,356.411 630.441,371.801 632.494,467.305 634.547,466.904 636.6,451.307 638.653,452.208 640.706,462.038 642.759,457.299 644.811,460.826 646.864,460.303 648.917,324.395 650.97,330.181 653.023,333.905 655.076,319.758 657.129,345.784 659.182,339.867 661.235,340.073 663.288,370.225 665.34,367.957 667.393,398.417 669.446,406.569 671.499,384.905 673.552,384.841 675.605,410.119 677.658,408.645 679.711,321.38 681.764,299.548 683.816,312.311 685.869,368.352 687.922,368.865 689.975,368.126 692.028,362.899 694.081,326.445 696.134,334.48 698.187,340.22 700.24,339.08 702.292,335.127 704.345,354.201 706.398,331.654 708.451,340.485 710.504,332.769 712.557,336.398 714.61,312.705 716.663,280 718.716,329.299 720.768,284.155 722.821,253.761 724.874,225.82 726.927,232.272 728.98,238.901 731.033,236.424 733.086,238.365 735.139,243.053 737.192,224.121 739.245,207.07 741.297,219.792 743.35,227.139 745.403,233.733 747.456,318.714 749.509,303.523 751.562,304.234 753.615,328.336 755.668,353.694 757.721,337.043 759.773,336.865 761.826,331.084 763.879,373.412 765.932,372.189 767.985,332.778 770.038,495.455 772.091,481.725 774.144,482.489 776.197,451.922 778.249,446.762 780.302,442.439 782.355,451.504 784.408,451.103 786.461,435.186 788.514,476.889 790.567,514.214 792.62,488.217 794.673,481.362 796.725,481.431 798.778,473.479 800.831,463.118 802.884,458.695 804.937,454.83 806.99,415.73 809.043,447.943 811.096,445.562 813.149,448.087 815.202,453.559 817.254,431.344 819.307,494.158 821.36,479.344 823.413,415.915 825.466,413.987 827.519,382.325 829.572,380.04 831.625,388.441 833.678,399.056 835.73,395.407 837.783,394.495 839.836,263.331 841.889,266.647 843.942,318.931 845.995,336.783 848.048,337.138 850.101,338.724 852.154,292.345 854.206,292.354 856.259,292.361 858.312,293.176 860.365,301.878 862.418,302.147 864.471,303.564 866.524,303.289 868.577,303.428 870.63,298.847 872.682,304.473 874.735,295.549 876.788,311.912 878.841,295.013 880.894,289.179 882.947,314.174 885,316.109 887.053,259.663 889.106,257.012 891.159,244.999 893.211,249.315 895.264,312.349 897.317,318.626 899.37,395.215 901.423,394.16 903.476,359.529 905.529,350.323 907.582,354.133 909.635,356.235 911.687,352.414 913.74,340.329 915.793,381.58 917.846,381.686 919.899,397.369 921.952,336.96 924.005,349.28 926.058,348.273 928.111,361.042 930.163,360.982 932.216,352.04 934.269,356.647 936.322,355.298 938.375,356.654 940.428,356.66 942.481,356.245 944.534,359.719 946.587,360.514 948.639,358.382 950.692,284.153 952.745,286.599 954.798,281.779 956.851,283.116 958.904,284.75 960.957,279.375 963.01,276.723 965.063,310.489 967.116,310.539 969.168,317.458 971.221,315.544 973.274,314.958 975.327,368.136 977.38,366.863 979.433,367.086 981.486,417.797 983.539,412.746 985.592,417.979 987.644,421.187 989.697,494.166 991.75,433.575 993.803,431.677 995.856,445.981 997.909,460.559 999.962,500.462 1002.01,390.466 1004.07,409.805 1006.12,411.219 1008.17,414.871 1010.23,396.647 1012.28,396.652 1014.33,382.996 1016.38,383.006 1018.44,381.94 1020.49,380.476 1022.54,381.963 1024.6,384.532 1026.65,380.325 1028.7,380.146 1030.76,386.288 1032.81,386.733 1034.86,387.729 1036.91,390.737 1038.97,401.128 1041.02,339.688 1043.07,332.691 1045.13,332.605 1047.18,328.029 1049.23,333.489 1051.28,350.713 1053.34,344.034 1055.39,332.904 1057.44,347.367 1059.5,403.324 1061.55,403.343 1063.6,404.314 1065.65,408.379 1067.71,399.165 1069.76,414.295 1071.81,416.358 1073.87,403.057 1075.92,411.943 1077.97,397.661 1080.02,397.612 1082.08,424.439 1084.13,494.914 1086.18,447.473 1088.24,473.074 1090.29,461.32 1092.34,487.163 1094.39,411.352 1096.45,409.673 1098.5,395.102 1100.55,392.447 1102.61,392.418 1104.66,398.916 1106.71,399.612 1108.77,447.848 1110.82,448.263 1112.87,461.67 1114.92,460.967 1116.98,380.964 1119.03,421.437 1121.08,425.79 1123.14,425.36 1125.19,423.768 1127.24,427.233 1129.29,425.841 1131.35,424.26 1133.4,433.453 1135.45,445.181 1137.51,438.623 1139.56,441.566 1141.61,444.134 1143.66,433.044 1145.72,436.711 1147.77,438.434 1149.82,400.407 1151.88,394.548 1153.93,388.317 1155.98,405.795 1158.03,383.283 1160.09,401.046 1162.14,431.534 1164.19,358.375 1166.25,357.73 1168.3,356.38 1170.35,356.36 1172.4,354.413 1174.46,354.338 1176.51,359.824 1178.56,357.385 1180.62,360.001 1182.67,345.182 1184.72,376.421 1186.77,373.101 1188.83,385.291 1190.88,385.657 1192.93,372.47 1194.99,372.678 1197.04,372.223 1199.09,370.302 1201.15,364.295 1203.2,360.501 1205.25,361.65 1207.3,364.51 1209.36,373.894 1211.41,372.309 1213.46,375.079 1215.52,374.729 1217.57,374.729 1219.62,374.787 1221.67,375.219 1223.73,375.153 1225.78,376.227 1227.83,375.77 1229.89,380.835 1231.94,374.563 1233.99,374.688 1236.04,375.323 1238.1,392.965 1240.15,393.643 1242.2,390.047 1244.26,364.886 1246.31,358.919 1248.36,354.095 1250.41,374.058 1252.47,372.298 1254.52,362.505 1256.57,360.894 1258.63,360.068 1260.68,365.598 1262.73,364.724 1264.78,364.967 1266.84,364.975 1268.89,356.18 1270.94,355.17 1273,355.238 1275.05,363.62 1277.1,363.881 1279.16,359.073 1281.21,370.639 1283.26,373.709 1285.31,371.246 1287.37,376.22 1289.42,377.55 1291.47,361.7 1293.53,361.926 1295.58,361.933 1297.63,377.091 1299.68,377.092 1301.74,376.761 1303.79,377.313 1305.84,377.365 1307.9,377.408 1309.95,358.574 1312,358.581 1314.05,362.088 1316.11,367.313 1318.16,367.846 1320.21,372.354 1322.27,372.453 1324.32,372.445 1326.37,372.421 1328.42,367.353 1330.48,374.088 1332.53,370.784 1334.58,370.825 1336.64,370.436 1338.69,361.187 1340.74,363.705 1342.79,363.704 1344.85,363.737 1346.9,371.725 1348.95,370.507 1351.01,370.783 1353.06,370.558 1355.11,372.951 1357.16,379.417 1359.22,378.862 1361.27,379.304 1363.32,378.754 1365.38,350.394 1367.43,348.762 1369.48,347.196 1371.54,356.558 1373.59,335.785 1375.64,363.365 1377.69,365.3 1379.75,375.261 1381.8,367.894 1383.85,368.083 1385.91,348.563 1387.96,348.519 1390.01,348.208 1392.06,374.003 1394.12,375.027 1396.17,375.299 1398.22,374.121 1400.28,374.303 1402.33,373.576 1404.38,377.654 1406.43,378.051 1408.49,377.956 1410.54,355.029 1412.59,355.025 1414.65,349.187 1416.7,352.029 1418.75,352.145 1420.8,351.412 1422.86,358.621 1424.91,354.457 1426.96,352.524 1429.02,347.178 1431.07,349.94 1433.12,352.872 1435.17,324.369 1437.23,360.809 1439.28,360.623 1441.33,360.8 1443.39,360.194 1445.44,367.701 1447.49,367.751 1449.55,379.051 1451.6,373.118 1453.65,372.943 1455.7,378.977 1457.76,384.029 1459.81,384.077 1461.86,383.514 1463.92,386.299 1465.97,386.348 1468.02,386.194 1470.07,385.108 1472.13,385.665 1474.18,385.468 1476.23,381.959 1478.29,384.601 1480.34,369.854 1482.39,369.759 1484.44,369.746 1486.5,369.744 1488.55,369.043 1490.6,387.618 1492.66,384.805 1494.71,383.227 1496.76,350.703 1498.81,351.182 1500.87,347.834 1502.92,351.943 1504.97,369.608 1507.03,366.93 1509.08,376.113 1511.13,376.724 1513.18,383.825 1515.24,386.29 1517.29,393.596 1519.34,394.358 1521.4,388.761 1523.45,388.834 1525.5,385.003 1527.55,384.187 1529.61,383.582 1531.66,383.005 1533.71,383.47 1535.77,383.846 1537.82,383.848 1539.87,360.414 1541.93,361.775 1543.98,358.328 1546.03,356.761 1548.08,366.113 1550.14,370.3 1552.19,360.495 1554.24,373.859 1556.3,373.842 1558.35,374.298 1560.4,374.457 1562.45,372.045 1564.51,348.472 1566.56,367.917 1568.61,378.864 1570.67,377.011 1572.72,389.274 1574.77,382.377 1576.82,396.783 1578.88,395.919 1580.93,393.544 1582.98,320.059 1585.04,335.188 1587.09,354.061 1589.14,352.901 1591.19,361.133 1593.25,336.675 1595.3,405.683 1597.35,385.065 1599.41,369.899 1601.46,370.996 1603.51,370.432 1605.56,370.44 1607.62,399.52 1609.67,392.376 1611.72,394.558 1613.78,394.526 1615.83,370.482 1617.88,373.665 1619.94,373.631 1621.99,378.162 1624.04,376.898 1626.09,375.824 1628.15,374.07 1630.2,370.58 1632.25,371.43 1634.31,371.339 1636.36,364.382 1638.41,379.915 1640.46,354.851 1642.52,355.663 1644.57,355.812 1646.62,355.256 1648.68,349.414 1650.73,348.474 1652.78,346.788 1654.83,353.224 1656.89,370.559 1658.94,370.62 1660.99,373.823 1663.05,360.632 1665.1,357.503 1667.15,357.294 1669.2,381.064 1671.26,362.836 1673.31,395.176 1675.36,387.833 1677.42,386.36 1679.47,391.069 1681.52,391.067 1683.57,383.541 1685.63,384.345 1687.68,384.89 1689.73,389.352 1691.79,389.32 1693.84,393.72 1695.89,383.076 1697.94,386.866 1700,361.1 1702.05,382.133 1704.1,377.85 1706.16,391.023 1708.21,391.528 1710.26,376.824 1712.32,376.563 1714.37,384.904 1716.42,382.391 1718.47,387.605 1720.53,313.277 1722.58,317.984 1724.63,318.843 1726.69,319.559 1728.74,317.839 1730.79,281.936 1732.84,282.073 1734.9,309.532 1736.95,315.739 1739,297.598 1741.06,333.224 1743.11,332.414 1745.16,324.658 1747.21,330.088 1749.27,326.51 1751.32,330.505 1753.37,338.267 1755.43,312.497 1757.48,366.016 1759.53,343.395 1761.58,375.234 1763.64,399.259 1765.69,353.645 1767.74,400.364 1769.8,400.363 1771.85,403.846 1773.9,382.193 1775.95,381.248 1778.01,464.795 1780.06,408.65 1782.11,408.182 1784.17,411.213 1786.22,408.345 1788.27,409.076 1790.33,462.053 1792.38,412.129 1794.43,403.332 1796.48,405.569 1798.54,396.52 1800.59,397.356 1802.64,395.61 1804.7,398.422 1806.75,397.797 1808.8,376.137 1810.85,311.035 1812.91,381.426 1814.96,379.174 1817.01,379.236 1819.07,426.134 1821.12,416.978 1823.17,410.25 1825.22,400.384 1827.28,397.632 1829.33,459.501 1831.38,478.813 1833.44,480.496 1835.49,478.959 1837.54,465.56 1839.59,464.215 1841.65,460.993 1843.7,459.876 1845.75,459.917 1847.81,449.439 1849.86,446.368 1851.91,454.375 1853.96,454.373 1856.02,454.623 1858.07,278.961 1860.12,289.455 1862.18,287.638 1864.23,287.898 1866.28,288.284 1868.34,286.399 1870.39,296.808 1872.44,264.58 1874.49,343.771 1876.55,316.103 1878.6,316.473 1880.65,325.958 1882.71,101.338 1884.76,251.182 1886.81,255.438 1888.86,336.726 1890.92,341.625 1892.97,326.95 1895.02,305.098 1897.08,273.432 1899.13,274.651 1901.18,356.993 1903.23,346.267 1905.29,341.695 1907.34,358.127 1909.39,211.688 1911.45,377.994 1913.5,365.101 1915.55,275.617 1917.6,267.571 1919.66,241.43 1921.71,235.762 1923.76,297.772 1925.82,301.024 1927.87,417.124 1929.92,404.436 1931.97,404.461 1934.03,426.309 1936.08,430.458 1938.13,433.872 1940.19,437.026 1942.24,431.523 1944.29,382.885 1946.34,373.92 1948.4,270.8 1950.45,267.485 1952.5,279.576 1954.56,278.564 1956.61,286.362 1958.66,282.372 1960.72,283.462 1962.77,302.045 1964.82,307.706 1966.87,305.983 1968.93,303.931 1970.98,299.969 1973.03,305.453 1975.09,307.578 1977.14,307.476 1979.19,307.339 1981.24,283.464 1983.3,276.1 1985.35,275.195 1987.4,276.494 1989.46,267.928 1991.51,276.264 1993.56,276.89 1995.61,280.274 1997.67,304.517 1999.72,308.166 2001.77,391.621 2003.83,365.386 2005.88,366.24 2007.93,374.916 2009.98,373.822 2012.04,409.641 2014.09,345.993 2016.14,350.031 2018.2,345.591 2020.25,349.784 2022.3,340.176 2024.35,336.279 2026.41,316.453 2028.46,312.35 2030.51,312.496 2032.57,338.782 2034.62,349.236 2036.67,363.043 2038.73,360.153 2040.78,373.86 2042.83,364.159 2044.88,366.054 2046.94,370.509 2048.99,370.388 2051.04,387.789 2053.1,388.163 2055.15,393.618 2057.2,387.111 2059.25,388.614 2061.31,380.043 2063.36,368.111 2065.41,380.071 2067.47,380.567 2069.52,380.515 2071.57,380.237 2073.62,384.325 2075.68,398.676 2077.73,397.718 2079.78,306.062 2081.84,270.515 2083.89,269.145 2085.94,292.362 2087.99,264.773 2090.05,260.696 2092.1,256.378 2094.15,259.072 2096.21,258.758 2098.26,256.578 2100.31,262.383 2102.36,317.033 2104.42,322.345 2106.47,321.187 2108.52,271.249 2110.58,320.173 2112.63,328.713 2114.68,330.564 2116.73,325.483 2118.79,328.012 2120.84,328.138 2122.89,328.088 2124.95,328.071 2127,330.203 2129.05,333.823 2131.11,327.814 2133.16,328.208 2135.21,332.208 2137.26,370.238 2139.32,373.36 2141.37,373.985 2143.42,379.988 2145.48,400.536 2147.53,400.413 2149.58,392.964 2151.63,386.648 2153.69,389.221 2155.74,386.944 2157.79,332.129 2159.85,331.514 2161.9,331.982 2163.95,332.568 2166,332.638 2168.06,334.602 2170.11,330.05 2172.16,329.005 2174.22,330.278 2176.27,357.947 2178.32,363.811 2180.37,372.706 2182.43,347.636 2184.48,344.256 2186.53,400.113 2188.59,399.741 2190.64,354.588 2192.69,317.187 2194.74,350.281 2196.8,374.478 2198.85,407.895 2200.9,407.83 2202.96,412.004 2205.01,411.981 2207.06,396.612 2209.12,411.486 2211.17,411.399 2213.22,369.039 2215.27,371.861 2217.33,386.342 2219.38,377.082 2221.43,357.76 2223.49,342.458 2225.54,342.314 2227.59,343.507 2229.64,355.342 2231.7,349.876 2233.75,347.638 2235.8,360.372 2237.86,360.683 2239.91,360.672 2241.96,360.793 2244.01,358.997 2246.07,364.677 2248.12,363.999 2250.17,356.792 2252.23,356.79 2254.28,358.173 2256.33,338.531 2258.38,338.63 2260.44,348.549 2262.49,357.99 2264.54,355.331 2266.6,355.24 2268.65,355.247 2270.7,354.967 2272.75,374.76 2274.81,379.431 2276.86,379.428 2278.91,378.797 2280.97,384.999 2283.02,381.385 2285.07,378.752 2287.12,378.752 2289.18,356.038 2291.23,357.607 "/>
<path clip-path="url(#clip630)" d="M251.33 172.231 L548.024 172.231 L548.024 68.5509 L251.33 68.5509  Z" fill="#ffffff" fill-rule="evenodd" fill-opacity="1"/>
<polyline clip-path="url(#clip630)" style="stroke:#000000; stroke-linecap:round; stroke-linejoin:round; stroke-width:4; stroke-opacity:1; fill:none" points="251.33,172.231 548.024,172.231 548.024,68.5509 251.33,68.5509 251.33,172.231 "/>
<polyline clip-path="url(#clip630)" style="stroke:#009af9; stroke-linecap:round; stroke-linejoin:round; stroke-width:4; stroke-opacity:1; fill:none" points="275.484,120.391 420.41,120.391 "/>
<path clip-path="url(#clip630)" d="M444.564 103.111 L449.24 103.111 L449.24 133.736 L466.069 133.736 L466.069 137.671 L444.564 137.671 L444.564 103.111 Z" fill="#000000" fill-rule="nonzero" fill-opacity="1" /><path clip-path="url(#clip630)" d="M491.694 104.245 L491.694 108.805 Q489.032 107.532 486.67 106.907 Q484.309 106.282 482.11 106.282 Q478.291 106.282 476.208 107.764 Q474.147 109.245 474.147 111.977 Q474.147 114.268 475.513 115.449 Q476.902 116.606 480.745 117.324 L483.569 117.902 Q488.8 118.898 491.277 121.421 Q493.777 123.921 493.777 128.134 Q493.777 133.157 490.397 135.75 Q487.041 138.342 480.536 138.342 Q478.083 138.342 475.305 137.787 Q472.55 137.231 469.587 136.143 L469.587 131.328 Q472.434 132.926 475.166 133.736 Q477.897 134.546 480.536 134.546 Q484.541 134.546 486.717 132.972 Q488.893 131.398 488.893 128.481 Q488.893 125.935 487.319 124.5 Q485.768 123.064 482.203 122.347 L479.356 121.791 Q474.124 120.75 471.786 118.527 Q469.448 116.305 469.448 112.347 Q469.448 107.764 472.666 105.125 Q475.907 102.486 481.578 102.486 Q484.008 102.486 486.532 102.926 Q489.055 103.366 491.694 104.245 Z" fill="#000000" fill-rule="nonzero" fill-opacity="1" /><path clip-path="url(#clip630)" d="M521.786 104.245 L521.786 108.805 Q519.124 107.532 516.763 106.907 Q514.402 106.282 512.203 106.282 Q508.383 106.282 506.3 107.764 Q504.24 109.245 504.24 111.977 Q504.24 114.268 505.606 115.449 Q506.994 116.606 510.837 117.324 L513.661 117.902 Q518.893 118.898 521.369 121.421 Q523.869 123.921 523.869 128.134 Q523.869 133.157 520.49 135.75 Q517.133 138.342 510.629 138.342 Q508.175 138.342 505.397 137.787 Q502.643 137.231 499.68 136.143 L499.68 131.328 Q502.527 132.926 505.258 133.736 Q507.99 134.546 510.629 134.546 Q514.633 134.546 516.809 132.972 Q518.985 131.398 518.985 128.481 Q518.985 125.935 517.411 124.5 Q515.86 123.064 512.295 122.347 L509.448 121.791 Q504.217 120.75 501.879 118.527 Q499.541 116.305 499.541 112.347 Q499.541 107.764 502.758 105.125 Q505.999 102.486 511.67 102.486 Q514.101 102.486 516.624 102.926 Q519.147 103.366 521.786 104.245 Z" fill="#000000" fill-rule="nonzero" fill-opacity="1" /><path clip-path="url(#clip630)" d="M178.867 1486.45 L2352.76 1486.45 L2352.76 847.244 L178.867 847.244  Z" fill="#ffffff" fill-rule="evenodd" fill-opacity="1"/>
<defs>
  <clipPath id="clip633">
    <rect x="178" y="847" width="2175" height="640"/>
  </clipPath>
</defs>
<polyline clip-path="url(#clip633)" style="stroke:#000000; stroke-linecap:round; stroke-linejoin:round; stroke-width:2; stroke-opacity:0.1; fill:none" points="238.339,1486.45 238.339,847.244 "/>
<polyline clip-path="url(#clip633)" style="stroke:#000000; stroke-linecap:round; stroke-linejoin:round; stroke-width:2; stroke-opacity:0.1; fill:none" points="751.562,1486.45 751.562,847.244 "/>
<polyline clip-path="url(#clip633)" style="stroke:#000000; stroke-linecap:round; stroke-linejoin:round; stroke-width:2; stroke-opacity:0.1; fill:none" points="1264.78,1486.45 1264.78,847.244 "/>
<polyline clip-path="url(#clip633)" style="stroke:#000000; stroke-linecap:round; stroke-linejoin:round; stroke-width:2; stroke-opacity:0.1; fill:none" points="1778.01,1486.45 1778.01,847.244 "/>
<polyline clip-path="url(#clip633)" style="stroke:#000000; stroke-linecap:round; stroke-linejoin:round; stroke-width:2; stroke-opacity:0.1; fill:none" points="2291.23,1486.45 2291.23,847.244 "/>
<polyline clip-path="url(#clip633)" style="stroke:#000000; stroke-linecap:round; stroke-linejoin:round; stroke-width:2; stroke-opacity:0.1; fill:none" points="178.867,1486.45 2352.76,1486.45 "/>
<polyline clip-path="url(#clip633)" style="stroke:#000000; stroke-linecap:round; stroke-linejoin:round; stroke-width:2; stroke-opacity:0.1; fill:none" points="178.867,1326.65 2352.76,1326.65 "/>
<polyline clip-path="url(#clip633)" style="stroke:#000000; stroke-linecap:round; stroke-linejoin:round; stroke-width:2; stroke-opacity:0.1; fill:none" points="178.867,1166.85 2352.76,1166.85 "/>
<polyline clip-path="url(#clip633)" style="stroke:#000000; stroke-linecap:round; stroke-linejoin:round; stroke-width:2; stroke-opacity:0.1; fill:none" points="178.867,1007.05 2352.76,1007.05 "/>
<polyline clip-path="url(#clip633)" style="stroke:#000000; stroke-linecap:round; stroke-linejoin:round; stroke-width:2; stroke-opacity:0.1; fill:none" points="178.867,847.244 2352.76,847.244 "/>
<polyline clip-path="url(#clip630)" style="stroke:#000000; stroke-linecap:round; stroke-linejoin:round; stroke-width:4; stroke-opacity:1; fill:none" points="178.867,1486.45 2352.76,1486.45 "/>
<polyline clip-path="url(#clip630)" style="stroke:#000000; stroke-linecap:round; stroke-linejoin:round; stroke-width:4; stroke-opacity:1; fill:none" points="238.339,1486.45 238.339,1467.55 "/>
<polyline clip-path="url(#clip630)" style="stroke:#000000; stroke-linecap:round; stroke-linejoin:round; stroke-width:4; stroke-opacity:1; fill:none" points="751.562,1486.45 751.562,1467.55 "/>
<polyline clip-path="url(#clip630)" style="stroke:#000000; stroke-linecap:round; stroke-linejoin:round; stroke-width:4; stroke-opacity:1; fill:none" points="1264.78,1486.45 1264.78,1467.55 "/>
<polyline clip-path="url(#clip630)" style="stroke:#000000; stroke-linecap:round; stroke-linejoin:round; stroke-width:4; stroke-opacity:1; fill:none" points="1778.01,1486.45 1778.01,1467.55 "/>
<polyline clip-path="url(#clip630)" style="stroke:#000000; stroke-linecap:round; stroke-linejoin:round; stroke-width:4; stroke-opacity:1; fill:none" points="2291.23,1486.45 2291.23,1467.55 "/>
<path clip-path="url(#clip630)" d="M238.339 1517.37 Q234.728 1517.37 232.899 1520.93 Q231.094 1524.47 231.094 1531.6 Q231.094 1538.71 232.899 1542.27 Q234.728 1545.82 238.339 1545.82 Q241.973 1545.82 243.779 1542.27 Q245.607 1538.71 245.607 1531.6 Q245.607 1524.47 243.779 1520.93 Q241.973 1517.37 238.339 1517.37 M238.339 1513.66 Q244.149 1513.66 247.205 1518.27 Q250.283 1522.85 250.283 1531.6 Q250.283 1540.33 247.205 1544.94 Q244.149 1549.52 238.339 1549.52 Q232.529 1549.52 229.45 1544.94 Q226.395 1540.33 226.395 1531.6 Q226.395 1522.85 229.45 1518.27 Q232.529 1513.66 238.339 1513.66 Z" fill="#000000" fill-rule="nonzero" fill-opacity="1" /><path clip-path="url(#clip630)" d="M715.254 1544.91 L731.574 1544.91 L731.574 1548.85 L709.629 1548.85 L709.629 1544.91 Q712.291 1542.16 716.875 1537.53 Q721.481 1532.88 722.662 1531.53 Q724.907 1529.01 725.787 1527.27 Q726.689 1525.51 726.689 1523.82 Q726.689 1521.07 724.745 1519.33 Q722.824 1517.6 719.722 1517.6 Q717.523 1517.6 715.069 1518.36 Q712.638 1519.13 709.861 1520.68 L709.861 1515.95 Q712.685 1514.82 715.138 1514.24 Q717.592 1513.66 719.629 1513.66 Q725 1513.66 728.194 1516.35 Q731.388 1519.03 731.388 1523.52 Q731.388 1525.65 730.578 1527.57 Q729.791 1529.47 727.685 1532.07 Q727.106 1532.74 724.004 1535.95 Q720.902 1539.15 715.254 1544.91 Z" fill="#000000" fill-rule="nonzero" fill-opacity="1" /><path clip-path="url(#clip630)" d="M741.435 1514.29 L759.791 1514.29 L759.791 1518.22 L745.717 1518.22 L745.717 1526.7 Q746.736 1526.35 747.754 1526.19 Q748.773 1526 749.791 1526 Q755.578 1526 758.958 1529.17 Q762.337 1532.34 762.337 1537.76 Q762.337 1543.34 758.865 1546.44 Q755.393 1549.52 749.073 1549.52 Q746.898 1549.52 744.629 1549.15 Q742.384 1548.78 739.976 1548.04 L739.976 1543.34 Q742.06 1544.47 744.282 1545.03 Q746.504 1545.58 748.981 1545.58 Q752.985 1545.58 755.323 1543.48 Q757.661 1541.37 757.661 1537.76 Q757.661 1534.15 755.323 1532.04 Q752.985 1529.94 748.981 1529.94 Q747.106 1529.94 745.231 1530.35 Q743.379 1530.77 741.435 1531.65 L741.435 1514.29 Z" fill="#000000" fill-rule="nonzero" fill-opacity="1" /><path clip-path="url(#clip630)" d="M781.55 1517.37 Q777.939 1517.37 776.11 1520.93 Q774.305 1524.47 774.305 1531.6 Q774.305 1538.71 776.11 1542.27 Q777.939 1545.82 781.55 1545.82 Q785.184 1545.82 786.99 1542.27 Q788.819 1538.71 788.819 1531.6 Q788.819 1524.47 786.99 1520.93 Q785.184 1517.37 781.55 1517.37 M781.55 1513.66 Q787.36 1513.66 790.416 1518.27 Q793.495 1522.85 793.495 1531.6 Q793.495 1540.33 790.416 1544.94 Q787.36 1549.52 781.55 1549.52 Q775.74 1549.52 772.661 1544.94 Q769.606 1540.33 769.606 1531.6 Q769.606 1522.85 772.661 1518.27 Q775.74 1513.66 781.55 1513.66 Z" fill="#000000" fill-rule="nonzero" fill-opacity="1" /><path clip-path="url(#clip630)" d="M1224.4 1514.29 L1242.76 1514.29 L1242.76 1518.22 L1228.69 1518.22 L1228.69 1526.7 Q1229.7 1526.35 1230.72 1526.19 Q1231.74 1526 1232.76 1526 Q1238.55 1526 1241.93 1529.17 Q1245.31 1532.34 1245.31 1537.76 Q1245.31 1543.34 1241.83 1546.44 Q1238.36 1549.52 1232.04 1549.52 Q1229.87 1549.52 1227.6 1549.15 Q1225.35 1548.78 1222.94 1548.04 L1222.94 1543.34 Q1225.03 1544.47 1227.25 1545.03 Q1229.47 1545.58 1231.95 1545.58 Q1235.95 1545.58 1238.29 1543.48 Q1240.63 1541.37 1240.63 1537.76 Q1240.63 1534.15 1238.29 1532.04 Q1235.95 1529.94 1231.95 1529.94 Q1230.07 1529.94 1228.2 1530.35 Q1226.35 1530.77 1224.4 1531.65 L1224.4 1514.29 Z" fill="#000000" fill-rule="nonzero" fill-opacity="1" /><path clip-path="url(#clip630)" d="M1264.52 1517.37 Q1260.91 1517.37 1259.08 1520.93 Q1257.27 1524.47 1257.27 1531.6 Q1257.27 1538.71 1259.08 1542.27 Q1260.91 1545.82 1264.52 1545.82 Q1268.15 1545.82 1269.96 1542.27 Q1271.79 1538.71 1271.79 1531.6 Q1271.79 1524.47 1269.96 1520.93 Q1268.15 1517.37 1264.52 1517.37 M1264.52 1513.66 Q1270.33 1513.66 1273.38 1518.27 Q1276.46 1522.85 1276.46 1531.6 Q1276.46 1540.33 1273.38 1544.94 Q1270.33 1549.52 1264.52 1549.52 Q1258.71 1549.52 1255.63 1544.94 Q1252.57 1540.33 1252.57 1531.6 Q1252.57 1522.85 1255.63 1518.27 Q1258.71 1513.66 1264.52 1513.66 Z" fill="#000000" fill-rule="nonzero" fill-opacity="1" /><path clip-path="url(#clip630)" d="M1294.68 1517.37 Q1291.07 1517.37 1289.24 1520.93 Q1287.44 1524.47 1287.44 1531.6 Q1287.44 1538.71 1289.24 1542.27 Q1291.07 1545.82 1294.68 1545.82 Q1298.31 1545.82 1300.12 1542.27 Q1301.95 1538.71 1301.95 1531.6 Q1301.95 1524.47 1300.12 1520.93 Q1298.31 1517.37 1294.68 1517.37 M1294.68 1513.66 Q1300.49 1513.66 1303.55 1518.27 Q1306.62 1522.85 1306.62 1531.6 Q1306.62 1540.33 1303.55 1544.94 Q1300.49 1549.52 1294.68 1549.52 Q1288.87 1549.52 1285.79 1544.94 Q1282.74 1540.33 1282.74 1531.6 Q1282.74 1522.85 1285.79 1518.27 Q1288.87 1513.66 1294.68 1513.66 Z" fill="#000000" fill-rule="nonzero" fill-opacity="1" /><path clip-path="url(#clip630)" d="M1736.28 1514.29 L1758.51 1514.29 L1758.51 1516.28 L1745.96 1548.85 L1741.08 1548.85 L1752.88 1518.22 L1736.28 1518.22 L1736.28 1514.29 Z" fill="#000000" fill-rule="nonzero" fill-opacity="1" /><path clip-path="url(#clip630)" d="M1767.67 1514.29 L1786.03 1514.29 L1786.03 1518.22 L1771.95 1518.22 L1771.95 1526.7 Q1772.97 1526.35 1773.99 1526.19 Q1775.01 1526 1776.03 1526 Q1781.82 1526 1785.2 1529.17 Q1788.57 1532.34 1788.57 1537.76 Q1788.57 1543.34 1785.1 1546.44 Q1781.63 1549.52 1775.31 1549.52 Q1773.14 1549.52 1770.87 1549.15 Q1768.62 1548.78 1766.21 1548.04 L1766.21 1543.34 Q1768.3 1544.47 1770.52 1545.03 Q1772.74 1545.58 1775.22 1545.58 Q1779.22 1545.58 1781.56 1543.48 Q1783.9 1541.37 1783.9 1537.76 Q1783.9 1534.15 1781.56 1532.04 Q1779.22 1529.94 1775.22 1529.94 Q1773.34 1529.94 1771.47 1530.35 Q1769.62 1530.77 1767.67 1531.65 L1767.67 1514.29 Z" fill="#000000" fill-rule="nonzero" fill-opacity="1" /><path clip-path="url(#clip630)" d="M1807.79 1517.37 Q1804.18 1517.37 1802.35 1520.93 Q1800.54 1524.47 1800.54 1531.6 Q1800.54 1538.71 1802.35 1542.27 Q1804.18 1545.82 1807.79 1545.82 Q1811.42 1545.82 1813.23 1542.27 Q1815.06 1538.71 1815.06 1531.6 Q1815.06 1524.47 1813.23 1520.93 Q1811.42 1517.37 1807.79 1517.37 M1807.79 1513.66 Q1813.6 1513.66 1816.65 1518.27 Q1819.73 1522.85 1819.73 1531.6 Q1819.73 1540.33 1816.65 1544.94 Q1813.6 1549.52 1807.79 1549.52 Q1801.98 1549.52 1798.9 1544.94 Q1795.84 1540.33 1795.84 1531.6 Q1795.84 1522.85 1798.9 1518.27 Q1801.98 1513.66 1807.79 1513.66 Z" fill="#000000" fill-rule="nonzero" fill-opacity="1" /><path clip-path="url(#clip630)" d="M2235.76 1544.91 L2243.4 1544.91 L2243.4 1518.55 L2235.09 1520.21 L2235.09 1515.95 L2243.35 1514.29 L2248.02 1514.29 L2248.02 1544.91 L2255.66 1544.91 L2255.66 1548.85 L2235.76 1548.85 L2235.76 1544.91 Z" fill="#000000" fill-rule="nonzero" fill-opacity="1" /><path clip-path="url(#clip630)" d="M2275.11 1517.37 Q2271.5 1517.37 2269.67 1520.93 Q2267.86 1524.47 2267.86 1531.6 Q2267.86 1538.71 2269.67 1542.27 Q2271.5 1545.82 2275.11 1545.82 Q2278.74 1545.82 2280.55 1542.27 Q2282.38 1538.71 2282.38 1531.6 Q2282.38 1524.47 2280.55 1520.93 Q2278.74 1517.37 2275.11 1517.37 M2275.11 1513.66 Q2280.92 1513.66 2283.97 1518.27 Q2287.05 1522.85 2287.05 1531.6 Q2287.05 1540.33 2283.97 1544.94 Q2280.92 1549.52 2275.11 1549.52 Q2269.3 1549.52 2266.22 1544.94 Q2263.16 1540.33 2263.16 1531.6 Q2263.16 1522.85 2266.22 1518.27 Q2269.3 1513.66 2275.11 1513.66 Z" fill="#000000" fill-rule="nonzero" fill-opacity="1" /><path clip-path="url(#clip630)" d="M2305.27 1517.37 Q2301.66 1517.37 2299.83 1520.93 Q2298.02 1524.47 2298.02 1531.6 Q2298.02 1538.71 2299.83 1542.27 Q2301.66 1545.82 2305.27 1545.82 Q2308.9 1545.82 2310.71 1542.27 Q2312.54 1538.71 2312.54 1531.6 Q2312.54 1524.47 2310.71 1520.93 Q2308.9 1517.37 2305.27 1517.37 M2305.27 1513.66 Q2311.08 1513.66 2314.14 1518.27 Q2317.21 1522.85 2317.21 1531.6 Q2317.21 1540.33 2314.14 1544.94 Q2311.08 1549.52 2305.27 1549.52 Q2299.46 1549.52 2296.38 1544.94 Q2293.33 1540.33 2293.33 1531.6 Q2293.33 1522.85 2296.38 1518.27 Q2299.46 1513.66 2305.27 1513.66 Z" fill="#000000" fill-rule="nonzero" fill-opacity="1" /><path clip-path="url(#clip630)" d="M2335.43 1517.37 Q2331.82 1517.37 2329.99 1520.93 Q2328.19 1524.47 2328.19 1531.6 Q2328.19 1538.71 2329.99 1542.27 Q2331.82 1545.82 2335.43 1545.82 Q2339.07 1545.82 2340.87 1542.27 Q2342.7 1538.71 2342.7 1531.6 Q2342.7 1524.47 2340.87 1520.93 Q2339.07 1517.37 2335.43 1517.37 M2335.43 1513.66 Q2341.24 1513.66 2344.3 1518.27 Q2347.38 1522.85 2347.38 1531.6 Q2347.38 1540.33 2344.3 1544.94 Q2341.24 1549.52 2335.43 1549.52 Q2329.62 1549.52 2326.54 1544.94 Q2323.49 1540.33 2323.49 1531.6 Q2323.49 1522.85 2326.54 1518.27 Q2329.62 1513.66 2335.43 1513.66 Z" fill="#000000" fill-rule="nonzero" fill-opacity="1" /><polyline clip-path="url(#clip630)" style="stroke:#000000; stroke-linecap:round; stroke-linejoin:round; stroke-width:4; stroke-opacity:1; fill:none" points="178.867,1486.45 178.867,847.244 "/>
<polyline clip-path="url(#clip630)" style="stroke:#000000; stroke-linecap:round; stroke-linejoin:round; stroke-width:4; stroke-opacity:1; fill:none" points="178.867,1486.45 197.764,1486.45 "/>
<polyline clip-path="url(#clip630)" style="stroke:#000000; stroke-linecap:round; stroke-linejoin:round; stroke-width:4; stroke-opacity:1; fill:none" points="178.867,1326.65 197.764,1326.65 "/>
<polyline clip-path="url(#clip630)" style="stroke:#000000; stroke-linecap:round; stroke-linejoin:round; stroke-width:4; stroke-opacity:1; fill:none" points="178.867,1166.85 197.764,1166.85 "/>
<polyline clip-path="url(#clip630)" style="stroke:#000000; stroke-linecap:round; stroke-linejoin:round; stroke-width:4; stroke-opacity:1; fill:none" points="178.867,1007.05 197.764,1007.05 "/>
<polyline clip-path="url(#clip630)" style="stroke:#000000; stroke-linecap:round; stroke-linejoin:round; stroke-width:4; stroke-opacity:1; fill:none" points="178.867,847.244 197.764,847.244 "/>
<path clip-path="url(#clip630)" d="M50.9921 1486.9 L80.6679 1486.9 L80.6679 1490.83 L50.9921 1490.83 L50.9921 1486.9 Z" fill="#000000" fill-rule="nonzero" fill-opacity="1" /><path clip-path="url(#clip630)" d="M91.5706 1499.79 L99.2095 1499.79 L99.2095 1473.43 L90.8993 1475.09 L90.8993 1470.83 L99.1632 1469.17 L103.839 1469.17 L103.839 1499.79 L111.478 1499.79 L111.478 1503.73 L91.5706 1503.73 L91.5706 1499.79 Z" fill="#000000" fill-rule="nonzero" fill-opacity="1" /><path clip-path="url(#clip630)" d="M130.922 1472.25 Q127.311 1472.25 125.482 1475.81 Q123.677 1479.35 123.677 1486.48 Q123.677 1493.59 125.482 1497.15 Q127.311 1500.7 130.922 1500.7 Q134.556 1500.7 136.362 1497.15 Q138.191 1493.59 138.191 1486.48 Q138.191 1479.35 136.362 1475.81 Q134.556 1472.25 130.922 1472.25 M130.922 1468.54 Q136.732 1468.54 139.788 1473.15 Q142.867 1477.73 142.867 1486.48 Q142.867 1495.21 139.788 1499.82 Q136.732 1504.4 130.922 1504.4 Q125.112 1504.4 122.033 1499.82 Q118.978 1495.21 118.978 1486.48 Q118.978 1477.73 122.033 1473.15 Q125.112 1468.54 130.922 1468.54 Z" fill="#000000" fill-rule="nonzero" fill-opacity="1" /><path clip-path="url(#clip630)" d="M82.1494 1327.1 L111.825 1327.1 L111.825 1331.03 L82.1494 1331.03 L82.1494 1327.1 Z" fill="#000000" fill-rule="nonzero" fill-opacity="1" /><path clip-path="url(#clip630)" d="M121.964 1309.37 L140.32 1309.37 L140.32 1313.3 L126.246 1313.3 L126.246 1321.77 Q127.265 1321.43 128.283 1321.27 Q129.302 1321.08 130.32 1321.08 Q136.107 1321.08 139.487 1324.25 Q142.867 1327.42 142.867 1332.84 Q142.867 1338.42 139.394 1341.52 Q135.922 1344.6 129.603 1344.6 Q127.427 1344.6 125.158 1344.23 Q122.913 1343.86 120.506 1343.12 L120.506 1338.42 Q122.589 1339.55 124.811 1340.11 Q127.033 1340.66 129.51 1340.66 Q133.515 1340.66 135.853 1338.56 Q138.191 1336.45 138.191 1332.84 Q138.191 1329.23 135.853 1327.12 Q133.515 1325.01 129.51 1325.01 Q127.635 1325.01 125.76 1325.43 Q123.908 1325.85 121.964 1326.73 L121.964 1309.37 Z" fill="#000000" fill-rule="nonzero" fill-opacity="1" /><path clip-path="url(#clip630)" d="M130.922 1152.64 Q127.311 1152.64 125.482 1156.21 Q123.677 1159.75 123.677 1166.88 Q123.677 1173.99 125.482 1177.55 Q127.311 1181.09 130.922 1181.09 Q134.556 1181.09 136.362 1177.55 Q138.191 1173.99 138.191 1166.88 Q138.191 1159.75 136.362 1156.21 Q134.556 1152.64 130.922 1152.64 M130.922 1148.94 Q136.732 1148.94 139.788 1153.55 Q142.867 1158.13 142.867 1166.88 Q142.867 1175.61 139.788 1180.21 Q136.732 1184.8 130.922 1184.8 Q125.112 1184.8 122.033 1180.21 Q118.978 1175.61 118.978 1166.88 Q118.978 1158.13 122.033 1153.55 Q125.112 1148.94 130.922 1148.94 Z" fill="#000000" fill-rule="nonzero" fill-opacity="1" /><path clip-path="url(#clip630)" d="M121.964 989.765 L140.32 989.765 L140.32 993.7 L126.246 993.7 L126.246 1002.17 Q127.265 1001.83 128.283 1001.66 Q129.302 1001.48 130.32 1001.48 Q136.107 1001.48 139.487 1004.65 Q142.867 1007.82 142.867 1013.24 Q142.867 1018.82 139.394 1021.92 Q135.922 1025 129.603 1025 Q127.427 1025 125.158 1024.63 Q122.913 1024.26 120.506 1023.51 L120.506 1018.82 Q122.589 1019.95 124.811 1020.51 Q127.033 1021.06 129.51 1021.06 Q133.515 1021.06 135.853 1018.95 Q138.191 1016.85 138.191 1013.24 Q138.191 1009.63 135.853 1007.52 Q133.515 1005.41 129.51 1005.41 Q127.635 1005.41 125.76 1005.83 Q123.908 1006.25 121.964 1007.13 L121.964 989.765 Z" fill="#000000" fill-rule="nonzero" fill-opacity="1" /><path clip-path="url(#clip630)" d="M91.5706 860.589 L99.2095 860.589 L99.2095 834.223 L90.8993 835.89 L90.8993 831.631 L99.1632 829.964 L103.839 829.964 L103.839 860.589 L111.478 860.589 L111.478 864.524 L91.5706 864.524 L91.5706 860.589 Z" fill="#000000" fill-rule="nonzero" fill-opacity="1" /><path clip-path="url(#clip630)" d="M130.922 833.043 Q127.311 833.043 125.482 836.608 Q123.677 840.149 123.677 847.279 Q123.677 854.385 125.482 857.95 Q127.311 861.492 130.922 861.492 Q134.556 861.492 136.362 857.95 Q138.191 854.385 138.191 847.279 Q138.191 840.149 136.362 836.608 Q134.556 833.043 130.922 833.043 M130.922 829.339 Q136.732 829.339 139.788 833.946 Q142.867 838.529 142.867 847.279 Q142.867 856.006 139.788 860.612 Q136.732 865.195 130.922 865.195 Q125.112 865.195 122.033 860.612 Q118.978 856.006 118.978 847.279 Q118.978 838.529 122.033 833.946 Q125.112 829.339 130.922 829.339 Z" fill="#000000" fill-rule="nonzero" fill-opacity="1" /><polyline clip-path="url(#clip633)" style="stroke:#009af9; stroke-linecap:round; stroke-linejoin:round; stroke-width:4; stroke-opacity:1; fill:none" points="240.392,1134.89 242.445,1136.49 244.498,1122.04 246.55,1118.39 248.603,1190.99 250.656,1154.02 252.709,1162.87 254.762,1165.59 256.815,1158.72 258.868,1168.95 260.921,1149.03 262.974,1165.33 265.027,1142.43 267.079,1178.38 269.132,1176.97 271.185,1146.65 273.238,1137.04 275.291,1131.93 277.344,1207.84 279.397,1134.28 281.45,1166.71 283.503,1167.4 285.555,1048.98 287.608,1201.77 289.661,1310.6 291.714,1250.56 293.767,1230 295.82,976.007 297.873,1289.16 299.926,-189.819 301.979,1056.3 304.031,1143.31 306.084,1288.24 308.137,1154.11 310.19,1172.11 312.243,1153.36 314.296,1159.37 316.349,1208.01 318.402,1107.43 320.455,1171.03 322.507,1232.97 324.56,1183.13 326.613,1139.54 328.666,1187.93 330.719,1149.7 332.772,1190.26 334.825,1197.59 336.878,1138.28 338.931,1258.08 340.984,1061.11 343.036,1015.35 345.089,1183.41 347.142,1152.53 349.195,1137.11 351.248,1238.09 353.301,1249.86 355.354,1097.29 357.407,1129.01 359.46,1078.56 361.512,1255.55 363.565,1137.64 365.618,1175.92 367.671,1213.02 369.724,1175.2 371.777,1167.26 373.83,1154.95 375.883,1191.5 377.936,1203.23 379.988,993.285 382.041,1069.22 384.094,1264.32 386.147,1159.54 388.2,1169.15 390.253,1186.52 392.306,1157.83 394.359,1191.9 396.412,1124.37 398.464,1190.81 400.517,1150.33 402.57,1185.99 404.623,1125.68 406.676,1198.71 408.729,1124.66 410.782,1132.65 412.835,1296.67 414.888,1182.82 416.94,1231.68 418.993,966.296 421.046,1365.04 423.099,1843.97 425.152,699.025 427.205,1703.22 429.258,1331.16 431.311,1108.59 433.364,960.091 435.417,1409.8 437.469,1105.63 439.522,1093.11 441.575,1170.55 443.628,1166.29 445.681,1155.72 447.734,1159.97 449.787,1159.92 451.84,1154.27 453.893,1156.66 455.945,1150.86 457.998,1191.71 460.051,1080.86 462.104,1193.01 464.157,1211.18 466.21,1465.88 468.263,2105.78 470.316,1079.23 472.369,908.852 474.421,1108.48 476.474,1510.67 478.527,1626.21 480.58,1096.88 482.633,1228.43 484.686,6937.08 486.739,-349.113 488.792,460.093 490.845,1444.94 492.897,365.882 494.95,7621.38 497.003,-2100.52 499.056,-203.372 501.109,731.876 503.162,1388.9 505.215,682.535 507.268,1065.09 509.321,1310.67 511.374,1268.36 513.426,1008.09 515.479,1240.7 517.532,1327.31 519.585,1261.3 521.638,1229.08 523.691,1230.56 525.744,1192.6 527.797,1200.68 529.85,1259.19 531.902,1160.03 533.955,1147.14 536.008,1140.93 538.061,1166.73 540.114,1238.67 542.167,1128.72 544.22,1185.76 546.273,1167.55 548.326,1227.43 550.378,1099.6 552.431,1167.54 554.484,1118.08 556.537,1273.04 558.59,1201.36 560.643,1190.85 562.696,1147.38 564.749,1031.86 566.802,1211.78 568.854,1118.87 570.907,1098.74 572.96,1155.23 575.013,1169.78 577.066,1178.41 579.119,1174.4 581.172,1142 583.225,1086.8 585.278,1273.42 587.331,1052.96 589.383,1268.31 591.436,1262.94 593.489,1277.31 595.542,1201.75 597.595,1183.22 599.648,1177.87 601.701,1198.7 603.754,1178.37 605.807,1163.56 607.859,1149.55 609.912,1155.95 611.965,1146.43 614.018,1249.81 616.071,1119.99 618.124,1129.44 620.177,1167.54 622.23,1168.49 624.283,1170.11 626.335,1149.48 628.388,1177.73 630.441,1152.85 632.494,1083.11 634.547,1212.03 636.6,1163.62 638.653,1186.7 640.706,1167.42 642.759,1163.23 644.811,1188.22 646.864,1171.2 648.917,1147.73 650.97,1160.1 653.023,1104.61 655.076,1168.93 657.129,1108.17 659.182,1167.43 661.235,1114.07 663.288,1158.34 665.34,1205.68 667.393,1146.4 669.446,1158.45 671.499,476.39 673.552,2275.69 675.605,1907.34 677.658,1383 679.711,1039.52 681.764,1114.58 683.816,1191.37 685.869,1171.38 687.922,1174.7 689.975,1193.81 692.028,1194.84 694.081,1093.62 696.134,1248.81 698.187,1144.08 700.24,1082.45 702.292,1152.09 704.345,1144.44 706.398,1118.27 708.451,1154.84 710.504,1260.94 712.557,1006.85 714.61,1119.2 716.663,1136.95 718.716,1182.67 720.768,1313.42 722.821,1145.16 724.874,1224.94 726.927,1244.32 728.98,472.588 731.033,1761.91 733.086,2537.76 735.139,1203.14 737.192,1132.04 739.245,1972.35 741.297,226.482 743.35,1181.64 745.403,790.31 747.456,880.587 749.509,1577.28 751.562,1359.06 753.615,2572.43 755.668,286.814 757.721,651.28 759.773,358.246 761.826,438.184 763.879,871.964 765.932,1416.95 767.985,1677.88 770.038,1627.23 772.091,522.875 774.144,905.022 776.197,1553.26 778.249,782.181 780.302,594.558 782.355,738.898 784.408,1289.88 786.461,1128.46 788.514,1177.42 790.567,1210.21 792.62,1114 794.673,1183.2 796.725,1124.57 798.778,1196.75 800.831,1177.23 802.884,1150.51 804.937,1160.72 806.99,1242.44 809.043,1206.11 811.096,1205.37 813.149,1057.11 815.202,1117.49 817.254,1041.72 819.307,1234.29 821.36,1170.1 823.413,1205.64 825.466,1183.32 827.519,952.621 829.572,1306.6 831.625,1157.65 833.678,1154.54 835.73,1124.18 837.783,1231.61 839.836,1209.81 841.889,1137.99 843.942,1045.36 845.995,1203.26 848.048,1155.71 850.101,1151.6 852.154,1180.5 854.206,1174.17 856.259,1161.94 858.312,1162.97 860.365,1179.6 862.418,1339.25 864.471,1192.92 866.524,1136.32 868.577,1219.32 870.63,1166.5 872.682,1168.25 874.735,1179.51 876.788,1170.92 878.841,1210.73 880.894,1194.52 882.947,1047.79 885,1098.5 887.053,1736.02 889.106,1202.73 891.159,1184.31 893.211,1154.76 895.264,1168.7 897.317,1155.62 899.37,1152.76 901.423,1054.89 903.476,1116.38 905.529,1213.41 907.582,1131.02 909.635,1193.47 911.687,1198.78 913.74,1157.71 915.793,1206.45 917.846,1190.01 919.899,1165.23 921.952,1153.91 924.005,1166.77 926.058,1109.31 928.111,1140.03 930.163,1175.68 932.216,1134.55 934.269,852.573 936.322,1861.18 938.375,1214.91 940.428,1009.54 942.481,-487.305 944.534,2453.19 946.587,5789.56 948.639,-2014.98 950.692,-69.1059 952.745,3375.52 954.798,3599.07 956.851,1572.05 958.904,-676.533 960.957,-123.459 963.01,5606.39 965.063,7464.65 967.116,-4560.16 969.168,-279.932 971.221,4056.3 973.274,-202.891 975.327,6722.81 977.38,-7173.84 979.433,1016.26 981.486,1127.03 983.539,1169.04 985.592,1173.54 987.644,1215.18 989.697,1148.92 991.75,1206.13 993.803,1253.27 995.856,1202.52 997.909,1200.38 999.962,1200.74 1002.01,1184.67 1004.07,1176.08 1006.12,1105.88 1008.17,1125.93 1010.23,1064.97 1012.28,1209.35 1014.33,1094.69 1016.38,1203.39 1018.44,1186.36 1020.49,1149.74 1022.54,1172.44 1024.6,1224.07 1026.65,1223.85 1028.7,1127.55 1030.76,1152.42 1032.81,1210.17 1034.86,1140.18 1036.91,1191.69 1038.97,1449.84 1041.02,1255.62 1043.07,1161.51 1045.13,1183.5 1047.18,1214.5 1049.23,1240.14 1051.28,1116.45 1053.34,1206.98 1055.39,1188.41 1057.44,1170.96 1059.5,1117.38 1061.55,1151.27 1063.6,1196.37 1065.65,1172.81 1067.71,1172.35 1069.76,1181.58 1071.81,1146.38 1073.87,1161.06 1075.92,1185.69 1077.97,1189.87 1080.02,1208.56 1082.08,1165.8 1084.13,1167.26 1086.18,1109.9 1088.24,1203.84 1090.29,1129.68 1092.34,1176.52 1094.39,1162.35 1096.45,1169.8 1098.5,1187.06 1100.55,1185.12 1102.61,1124.4 1104.66,1377.63 1106.71,1199.32 1108.77,1182.17 1110.82,1188.3 1112.87,1147.46 1114.92,1186.61 1116.98,1132.54 1119.03,1131.18 1121.08,1128.34 1123.14,1186.86 1125.19,1191.97 1127.24,1089.21 1129.29,1179.89 1131.35,1159.59 1133.4,1503.18 1135.45,1598.12 1137.51,344.858 1139.56,1379.4 1141.61,1125.02 1143.66,1126.52 1145.72,1255.31 1147.77,1128.77 1149.82,1296.56 1151.88,1315.75 1153.93,1096.43 1155.98,1128.28 1158.03,1181.67 1160.09,1162.71 1162.14,1203.64 1164.19,1191.6 1166.25,1129.52 1168.3,1118.5 1170.35,1173.97 1172.4,1161.02 1174.46,1047.17 1176.51,1178.28 1178.56,1151 1180.62,1174.52 1182.67,1203.52 1184.72,1120.18 1186.77,959.223 1188.83,1580.87 1190.88,710.323 1192.93,1699.7 1194.99,1021.22 1197.04,1054.48 1199.09,1106.57 1201.15,1157.28 1203.2,1213.98 1205.25,1037.74 1207.3,1131.23 1209.36,1062.45 1211.41,1134.62 1213.46,1129.26 1215.52,1202.04 1217.57,1222.75 1219.62,1142.92 1221.67,1147.21 1223.73,1161.53 1225.78,1116.85 1227.83,1156.15 1229.89,1145.52 1231.94,1042.77 1233.99,1187.29 1236.04,1146.24 1238.1,1184.03 1240.15,1133.53 1242.2,1139 1244.26,1125.8 1246.31,1258.25 1248.36,1127.3 1250.41,1193.57 1252.47,1206.57 1254.52,1124.83 1256.57,1127.98 1258.63,1193.11 1260.68,1177.47 1262.73,1188.96 1264.78,1132.95 1266.84,1116.12 1268.89,1228.96 1270.94,1129.49 1273,914.783 1275.05,1208.58 1277.1,1342.6 1279.16,1133.36 1281.21,1171.53 1283.26,1181.79 1285.31,1158.31 1287.37,1185.31 1289.42,1213.86 1291.47,1181.48 1293.53,1302.44 1295.58,1162.25 1297.63,1212.42 1299.68,1190.7 1301.74,1254.6 1303.79,1258.6 1305.84,1137.55 1307.9,1190.94 1309.95,1161.62 1312,1169.12 1314.05,1185.84 1316.11,1150.07 1318.16,1148.91 1320.21,1109.57 1322.27,1180.54 1324.32,1160.56 1326.37,1088.21 1328.42,906.384 1330.48,978.489 1332.53,1476.78 1334.58,862.524 1336.64,597.036 1338.69,355.124 1340.74,1217.03 1342.79,1699.06 1344.85,2333.67 1346.9,-222.004 1348.95,937.735 1351.01,1178.02 1353.06,1160.53 1355.11,1199.53 1357.16,1162.44 1359.22,1219.17 1361.27,1189.7 1363.32,1182.87 1365.38,1139.08 1367.43,1158.36 1369.48,1042.96 1371.54,1197.55 1373.59,1171.07 1375.64,1188.2 1377.69,1140.29 1379.75,1149.57 1381.8,1157.28 1383.85,1216.71 1385.91,1286.44 1387.96,1209.16 1390.01,1128.97 1392.06,1156.08 1394.12,1172.07 1396.17,1177.23 1398.22,1100.5 1400.28,1108.08 1402.33,1185.82 1404.38,1183.1 1406.43,1213.44 1408.49,1245.38 1410.54,1218.12 1412.59,1284.38 1414.65,973.683 1416.7,1282.97 1418.75,1118.38 1420.8,1215.88 1422.86,1127.46 1424.91,1150.28 1426.96,1295.89 1429.02,1117 1431.07,1090.29 1433.12,1170.29 1435.17,1188.77 1437.23,1183.62 1439.28,1170.66 1441.33,1238.4 1443.39,1160.55 1445.44,1142.56 1447.49,1144.69 1449.55,1196.16 1451.6,1845.97 1453.65,1110.66 1455.7,1191.83 1457.76,968.421 1459.81,1126.03 1461.86,1180.61 1463.92,1156.17 1465.97,1190.19 1468.02,1199.35 1470.07,1132.56 1472.13,1150.8 1474.18,1172 1476.23,1164.23 1478.29,1182.78 1480.34,1197.03 1482.39,1176.93 1484.44,1096.18 1486.5,1191.42 1488.55,1148.36 1490.6,1150.16 1492.66,1167.98 1494.71,1163.95 1496.76,1158.53 1498.81,1190.81 1500.87,1139.59 1502.92,1157.04 1504.97,830.617 1507.03,1197.98 1509.08,1117.16 1511.13,747.501 1513.18,1213.36 1515.24,1162.1 1517.29,1184.52 1519.34,1168.66 1521.4,1173.51 1523.45,1129.51 1525.5,1260.01 1527.55,1427.16 1529.61,1145.25 1531.66,1375.09 1533.71,1248.2 1535.77,1238.16 1537.82,1018.84 1539.87,1269.78 1541.93,1111.8 1543.98,951.957 1546.03,1055.86 1548.08,1034.97 1550.14,1106.11 1552.19,1173.94 1554.24,1183.33 1556.3,1007.23 1558.35,1034.95 1560.4,1132.89 1562.45,1159.88 1564.51,1173.21 1566.56,1167.53 1568.61,1132.06 1570.67,1259.11 1572.72,1253.51 1574.77,1132.25 1576.82,1130.84 1578.88,1151.95 1580.93,1183.28 1582.98,1176.26 1585.04,1164.04 1587.09,1146.64 1589.14,1152.29 1591.19,1829.41 1593.25,1737.91 1595.3,816.121 1597.35,1426.81 1599.41,1079.43 1601.46,1064.31 1603.51,1102.13 1605.56,1160.38 1607.62,1255.88 1609.67,1091.36 1611.72,1185.14 1613.78,1114.95 1615.83,1207.86 1617.88,1240.38 1619.94,1232.55 1621.99,1143.5 1624.04,1159.12 1626.09,1168.85 1628.15,1172.65 1630.2,1189.57 1632.25,1181.85 1634.31,1145.04 1636.36,1170.04 1638.41,1164.26 1640.46,1171.78 1642.52,1232.22 1644.57,1016.99 1646.62,1360.77 1648.68,1091.51 1650.73,1163.88 1652.78,1064.69 1654.83,1135.73 1656.89,1151.54 1658.94,1145.13 1660.99,1223.43 1663.05,1069.3 1665.1,972.163 1667.15,1208.23 1669.2,1137.49 1671.26,1206.85 1673.31,1256.95 1675.36,1407.06 1677.42,1336.9 1679.47,1138.71 1681.52,1171.18 1683.57,1190.96 1685.63,1181.2 1687.68,1163.66 1689.73,1161.36 1691.79,1184.93 1693.84,1244.88 1695.89,1324.81 1697.94,1098.34 1700,1143.51 1702.05,1192.07 1704.1,1164.54 1706.16,1138.02 1708.21,1204.36 1710.26,1135.32 1712.32,1145.41 1714.37,1145.15 1716.42,1195 1718.47,789.048 1720.53,1078.46 1722.58,1274.29 1724.63,1287.43 1726.69,1233.27 1728.74,1189.4 1730.79,1180.03 1732.84,1197.04 1734.9,1193.68 1736.95,1189.13 1739,1163.03 1741.06,1155.95 1743.11,1181.24 1745.16,1169.39 1747.21,1137.63 1749.27,1092.13 1751.32,1179.07 1753.37,1252.78 1755.43,908.02 1757.48,1067.61 1759.53,1086.97 1761.58,1178.92 1763.64,1134.68 1765.69,1180.9 1767.74,1241.48 1769.8,1182.68 1771.85,1282.56 1773.9,1108.99 1775.95,1138.49 1778.01,1114.98 1780.06,1206.36 1782.11,1212.93 1784.17,1105.39 1786.22,1056.42 1788.27,1348.22 1790.33,1391.8 1792.38,1164.91 1794.43,1150.64 1796.48,1247.57 1798.54,1188.49 1800.59,1240.61 1802.64,1191.94 1804.7,1175.22 1806.75,1119.92 1808.8,1155.27 1810.85,1197.25 1812.91,1168.26 1814.96,1157.04 1817.01,1170.04 1819.07,1171.49 1821.12,1223.06 1823.17,1163.9 1825.22,1257.49 1827.28,982.839 1829.33,1009.52 1831.38,1209.66 1833.44,1127.91 1835.49,1214.57 1837.54,1202.04 1839.59,1190.22 1841.65,1146.88 1843.7,1179.02 1845.75,1182.67 1847.81,1181.51 1849.86,1140.7 1851.91,1175.99 1853.96,1187.68 1856.02,1112.57 1858.07,1120.8 1860.12,1149.74 1862.18,1069.99 1864.23,1210.3 1866.28,1215.71 1868.34,1176.63 1870.39,1159.75 1872.44,1191.74 1874.49,1177.94 1876.55,1186.96 1878.6,1165.98 1880.65,1133.63 1882.71,1278.21 1884.76,1200.52 1886.81,1209.81 1888.86,1198.98 1890.92,1213.82 1892.97,1161.27 1895.02,1177.23 1897.08,1050.52 1899.13,1101.95 1901.18,1152.87 1903.23,1191.81 1905.29,1126.7 1907.34,1224.39 1909.39,1174.15 1911.45,1153.05 1913.5,1203.38 1915.55,1179.84 1917.6,1154.91 1919.66,1166.67 1921.71,1189.61 1923.76,1257.11 1925.82,1120.43 1927.87,1175.52 1929.92,1161.13 1931.97,1159 1934.03,1161.45 1936.08,1186.4 1938.13,1147.7 1940.19,1178.92 1942.24,1176.99 1944.29,1171.75 1946.34,1182.65 1948.4,910.225 1950.45,1251.56 1952.5,1019.44 1954.56,1164.56 1956.61,1131.74 1958.66,1164.87 1960.72,1168.01 1962.77,1165.86 1964.82,1161.23 1966.87,1148.58 1968.93,1184.3 1970.98,1096.68 1973.03,1059.08 1975.09,1379.75 1977.14,1267.51 1979.19,1188.02 1981.24,1119.9 1983.3,1162.59 1985.35,1212.18 1987.4,1211.03 1989.46,1266.41 1991.51,1155.27 1993.56,1195.99 1995.61,1177.81 1997.67,1156.03 1999.72,1132.07 2001.77,1077.17 2003.83,1180.28 2005.88,1185.44 2007.93,1220.62 2009.98,1078.56 2012.04,1160.54 2014.09,1153.45 2016.14,1160.55 2018.2,1175.94 2020.25,1197.25 2022.3,1166.42 2024.35,1018.91 2026.41,1157.39 2028.46,1182.64 2030.51,1246.94 2032.57,1168.53 2034.62,1096.07 2036.67,1249.33 2038.73,1155.68 2040.78,1162.41 2042.83,1030.48 2044.88,3934.2 2046.94,2196.1 2048.99,941.111 2051.04,889.286 2053.1,1202.31 2055.15,1019.51 2057.2,2209.41 2059.25,-2077.4 2061.31,7101.91 2063.36,5163.01 2065.41,2495.54 2067.47,-5011.07 2069.52,-851.735 2071.57,1129.92 2073.62,1156.68 2075.68,1090.18 2077.73,1179.56 2079.78,1182.91 2081.84,1179.25 2083.89,1045.34 2085.94,1273.74 2087.99,1374.93 2090.05,1203.59 2092.1,1142.49 2094.15,1153.46 2096.21,1026.08 2098.26,1249.76 2100.31,1263.27 2102.36,1157.21 2104.42,1146 2106.47,1176.59 2108.52,1191.19 2110.58,1153.37 2112.63,1148.04 2114.68,1171.36 2116.73,1351.34 2118.79,1063.12 2120.84,1109.45 2122.89,1269.99 2124.95,1250.45 2127,1158.39 2129.05,1198.56 2131.11,1099.64 2133.16,1195.63 2135.21,1158.15 2137.26,1169.18 2139.32,1178.79 2141.37,1139.2 2143.42,1241.64 2145.48,1221.62 2147.53,1115.12 2149.58,1185.56 2151.63,1292.02 2153.69,1109.85 2155.74,1134.85 2157.79,1158.82 2159.85,1141.51 2161.9,1155.99 2163.95,1224.42 2166,1184.91 2168.06,1142.38 2170.11,1247.18 2172.16,1234.55 2174.22,1162.48 2176.27,1175.77 2178.32,1154.53 2180.37,1231.41 2182.43,1199.47 2184.48,1222.44 2186.53,1111.9 2188.59,1106.95 2190.64,1221.16 2192.69,1208.28 2194.74,1139.31 2196.8,1173.2 2198.85,1159.53 2200.9,1181.78 2202.96,1173.04 2205.01,1195.01 2207.06,1129.02 2209.12,742.626 2211.17,1451.86 2213.22,1207.15 2215.27,1144.42 2217.33,1201.23 2219.38,1184.31 2221.43,1142.94 2223.49,1091.79 2225.54,1175.57 2227.59,1160.07 2229.64,1002.19 2231.7,1052.12 2233.75,1120.46 2235.8,1194.29 2237.86,1168.99 2239.91,1109.58 2241.96,1176.81 2244.01,1162.35 2246.07,1156.5 2248.12,1101.33 2250.17,1148.35 2252.23,1055.88 2254.28,1262.64 2256.33,1160.43 2258.38,1185.17 2260.44,1168.05 2262.49,1165.68 2264.54,1178.75 2266.6,1237.42 2268.65,1152.17 2270.7,1135.23 2272.75,1146.93 2274.81,1150.37 2276.86,1130 2278.91,1163.68 2280.97,1170.33 2283.02,1139.93 2285.07,1149.46 2287.12,1207.56 2289.18,1092.4 2291.23,798.069 "/>
<path clip-path="url(#clip630)" d="M1942.7 972.231 L2280.29 972.231 L2280.29 868.551 L1942.7 868.551  Z" fill="#ffffff" fill-rule="evenodd" fill-opacity="1"/>
<polyline clip-path="url(#clip630)" style="stroke:#000000; stroke-linecap:round; stroke-linejoin:round; stroke-width:4; stroke-opacity:1; fill:none" points="1942.7,972.231 2280.29,972.231 2280.29,868.551 1942.7,868.551 1942.7,972.231 "/>
<polyline clip-path="url(#clip630)" style="stroke:#009af9; stroke-linecap:round; stroke-linejoin:round; stroke-width:4; stroke-opacity:1; fill:none" points="1966.85,920.391 2111.78,920.391 "/>
<path clip-path="url(#clip630)" d="M2161.49 932.74 L2161.49 923.458 L2153.85 923.458 L2153.85 919.615 L2166.12 919.615 L2166.12 934.453 Q2163.41 936.375 2160.14 937.37 Q2156.88 938.342 2153.18 938.342 Q2145.07 938.342 2140.49 933.62 Q2135.93 928.875 2135.93 920.426 Q2135.93 911.953 2140.49 907.231 Q2145.07 902.486 2153.18 902.486 Q2156.56 902.486 2159.59 903.319 Q2162.64 904.153 2165.21 905.773 L2165.21 910.75 Q2162.62 908.551 2159.7 907.44 Q2156.79 906.328 2153.57 906.328 Q2147.23 906.328 2144.03 909.87 Q2140.86 913.412 2140.86 920.426 Q2140.86 927.416 2144.03 930.958 Q2147.23 934.5 2153.57 934.5 Q2156.05 934.5 2157.99 934.083 Q2159.94 933.643 2161.49 932.74 Z" fill="#000000" fill-rule="nonzero" fill-opacity="1" /><path clip-path="url(#clip630)" d="M2179.33 906.953 L2179.33 919.94 L2185.21 919.94 Q2188.48 919.94 2190.26 918.25 Q2192.04 916.56 2192.04 913.435 Q2192.04 910.333 2190.26 908.643 Q2188.48 906.953 2185.21 906.953 L2179.33 906.953 M2174.66 903.111 L2185.21 903.111 Q2191.02 903.111 2193.99 905.75 Q2196.97 908.365 2196.97 913.435 Q2196.97 918.551 2193.99 921.166 Q2191.02 923.782 2185.21 923.782 L2179.33 923.782 L2179.33 937.671 L2174.66 937.671 L2174.66 903.111 Z" fill="#000000" fill-rule="nonzero" fill-opacity="1" /><path clip-path="url(#clip630)" d="M2223.96 904.245 L2223.96 908.805 Q2221.3 907.532 2218.94 906.907 Q2216.58 906.282 2214.38 906.282 Q2210.56 906.282 2208.48 907.764 Q2206.42 909.245 2206.42 911.977 Q2206.42 914.268 2207.78 915.449 Q2209.17 916.606 2213.01 917.324 L2215.84 917.902 Q2221.07 918.898 2223.55 921.421 Q2226.05 923.921 2226.05 928.134 Q2226.05 933.157 2222.67 935.75 Q2219.31 938.342 2212.81 938.342 Q2210.35 938.342 2207.57 937.787 Q2204.82 937.231 2201.86 936.143 L2201.86 931.328 Q2204.7 932.926 2207.44 933.736 Q2210.17 934.546 2212.81 934.546 Q2216.81 934.546 2218.99 932.972 Q2221.16 931.398 2221.16 928.481 Q2221.16 925.935 2219.59 924.5 Q2218.04 923.064 2214.47 922.347 L2211.62 921.791 Q2206.39 920.75 2204.06 918.527 Q2201.72 916.305 2201.72 912.347 Q2201.72 907.764 2204.94 905.125 Q2208.18 902.486 2213.85 902.486 Q2216.28 902.486 2218.8 902.926 Q2221.32 903.366 2223.96 904.245 Z" fill="#000000" fill-rule="nonzero" fill-opacity="1" /><path clip-path="url(#clip630)" d="M2254.06 904.245 L2254.06 908.805 Q2251.39 907.532 2249.03 906.907 Q2246.67 906.282 2244.47 906.282 Q2240.65 906.282 2238.57 907.764 Q2236.51 909.245 2236.51 911.977 Q2236.51 914.268 2237.87 915.449 Q2239.26 916.606 2243.11 917.324 L2245.93 917.902 Q2251.16 918.898 2253.64 921.421 Q2256.14 923.921 2256.14 928.134 Q2256.14 933.157 2252.76 935.75 Q2249.4 938.342 2242.9 938.342 Q2240.44 938.342 2237.67 937.787 Q2234.91 937.231 2231.95 936.143 L2231.95 931.328 Q2234.8 932.926 2237.53 933.736 Q2240.26 934.546 2242.9 934.546 Q2246.9 934.546 2249.08 932.972 Q2251.25 931.398 2251.25 928.481 Q2251.25 925.935 2249.68 924.5 Q2248.13 923.064 2244.56 922.347 L2241.72 921.791 Q2236.49 920.75 2234.15 918.527 Q2231.81 916.305 2231.81 912.347 Q2231.81 907.764 2235.03 905.125 Q2238.27 902.486 2243.94 902.486 Q2246.37 902.486 2248.89 902.926 Q2251.42 903.366 2254.06 904.245 Z" fill="#000000" fill-rule="nonzero" fill-opacity="1" /></svg>
