<?xml version="1.0" encoding="utf-8"?>
<svg xmlns="http://www.w3.org/2000/svg" xmlns:xlink="http://www.w3.org/1999/xlink" width="600" height="400" viewBox="0 0 2400 1600">
<defs>
  <clipPath id="clip690">
    <rect x="0" y="0" width="2400" height="1600"/>
  </clipPath>
</defs>
<path clip-path="url(#clip690)" d="M0 1600 L2400 1600 L2400 0 L0 0  Z" fill="#ffffff" fill-rule="evenodd" fill-opacity="1"/>
<defs>
  <clipPath id="clip691">
    <rect x="210" y="47" width="2143" height="1377"/>
  </clipPath>
</defs>
<path clip-path="url(#clip690)" d="M178.867 686.448 L2352.76 686.448 L2352.76 47.2441 L178.867 47.2441  Z" fill="#ffffff" fill-rule="evenodd" fill-opacity="1"/>
<defs>
  <clipPath id="clip692">
    <rect x="178" y="47" width="2175" height="640"/>
  </clipPath>
</defs>
<polyline clip-path="url(#clip692)" style="stroke:#000000; stroke-linecap:round; stroke-linejoin:round; stroke-width:2; stroke-opacity:0.1; fill:none" points="238.339,686.448 238.339,47.2441 "/>
<polyline clip-path="url(#clip692)" style="stroke:#000000; stroke-linecap:round; stroke-linejoin:round; stroke-width:2; stroke-opacity:0.1; fill:none" points="751.562,686.448 751.562,47.2441 "/>
<polyline clip-path="url(#clip692)" style="stroke:#000000; stroke-linecap:round; stroke-linejoin:round; stroke-width:2; stroke-opacity:0.1; fill:none" points="1264.78,686.448 1264.78,47.2441 "/>
<polyline clip-path="url(#clip692)" style="stroke:#000000; stroke-linecap:round; stroke-linejoin:round; stroke-width:2; stroke-opacity:0.1; fill:none" points="1778.01,686.448 1778.01,47.2441 "/>
<polyline clip-path="url(#clip692)" style="stroke:#000000; stroke-linecap:round; stroke-linejoin:round; stroke-width:2; stroke-opacity:0.1; fill:none" points="2291.23,686.448 2291.23,47.2441 "/>
<polyline clip-path="url(#clip692)" style="stroke:#000000; stroke-linecap:round; stroke-linejoin:round; stroke-width:2; stroke-opacity:0.1; fill:none" points="178.867,686.448 2352.76,686.448 "/>
<polyline clip-path="url(#clip692)" style="stroke:#000000; stroke-linecap:round; stroke-linejoin:round; stroke-width:2; stroke-opacity:0.1; fill:none" points="178.867,526.647 2352.76,526.647 "/>
<polyline clip-path="url(#clip692)" style="stroke:#000000; stroke-linecap:round; stroke-linejoin:round; stroke-width:2; stroke-opacity:0.1; fill:none" points="178.867,366.846 2352.76,366.846 "/>
<polyline clip-path="url(#clip692)" style="stroke:#000000; stroke-linecap:round; stroke-linejoin:round; stroke-width:2; stroke-opacity:0.1; fill:none" points="178.867,207.045 2352.76,207.045 "/>
<polyline clip-path="url(#clip692)" style="stroke:#000000; stroke-linecap:round; stroke-linejoin:round; stroke-width:2; stroke-opacity:0.1; fill:none" points="178.867,47.2441 2352.76,47.2441 "/>
<polyline clip-path="url(#clip690)" style="stroke:#000000; stroke-linecap:round; stroke-linejoin:round; stroke-width:4; stroke-opacity:1; fill:none" points="178.867,686.448 2352.76,686.448 "/>
<polyline clip-path="url(#clip690)" style="stroke:#000000; stroke-linecap:round; stroke-linejoin:round; stroke-width:4; stroke-opacity:1; fill:none" points="238.339,686.448 238.339,667.55 "/>
<polyline clip-path="url(#clip690)" style="stroke:#000000; stroke-linecap:round; stroke-linejoin:round; stroke-width:4; stroke-opacity:1; fill:none" points="751.562,686.448 751.562,667.55 "/>
<polyline clip-path="url(#clip690)" style="stroke:#000000; stroke-linecap:round; stroke-linejoin:round; stroke-width:4; stroke-opacity:1; fill:none" points="1264.78,686.448 1264.78,667.55 "/>
<polyline clip-path="url(#clip690)" style="stroke:#000000; stroke-linecap:round; stroke-linejoin:round; stroke-width:4; stroke-opacity:1; fill:none" points="1778.01,686.448 1778.01,667.55 "/>
<polyline clip-path="url(#clip690)" style="stroke:#000000; stroke-linecap:round; stroke-linejoin:round; stroke-width:4; stroke-opacity:1; fill:none" points="2291.23,686.448 2291.23,667.55 "/>
<path clip-path="url(#clip690)" d="M238.339 717.367 Q234.728 717.367 232.899 720.931 Q231.094 724.473 231.094 731.603 Q231.094 738.709 232.899 742.274 Q234.728 745.815 238.339 745.815 Q241.973 745.815 243.779 742.274 Q245.607 738.709 245.607 731.603 Q245.607 724.473 243.779 720.931 Q241.973 717.367 238.339 717.367 M238.339 713.663 Q244.149 713.663 247.205 718.269 Q250.283 722.853 250.283 731.603 Q250.283 740.329 247.205 744.936 Q244.149 749.519 238.339 749.519 Q232.529 749.519 229.45 744.936 Q226.395 740.329 226.395 731.603 Q226.395 722.853 229.45 718.269 Q232.529 713.663 238.339 713.663 Z" fill="#000000" fill-rule="nonzero" fill-opacity="1" /><path clip-path="url(#clip690)" d="M715.254 744.913 L731.574 744.913 L731.574 748.848 L709.629 748.848 L709.629 744.913 Q712.291 742.158 716.875 737.528 Q721.481 732.876 722.662 731.533 Q724.907 729.01 725.787 727.274 Q726.689 725.515 726.689 723.825 Q726.689 721.07 724.745 719.334 Q722.824 717.598 719.722 717.598 Q717.523 717.598 715.069 718.362 Q712.638 719.126 709.861 720.677 L709.861 715.955 Q712.685 714.82 715.138 714.242 Q717.592 713.663 719.629 713.663 Q725 713.663 728.194 716.348 Q731.388 719.033 731.388 723.524 Q731.388 725.654 730.578 727.575 Q729.791 729.473 727.685 732.066 Q727.106 732.737 724.004 735.954 Q720.902 739.149 715.254 744.913 Z" fill="#000000" fill-rule="nonzero" fill-opacity="1" /><path clip-path="url(#clip690)" d="M741.435 714.288 L759.791 714.288 L759.791 718.223 L745.717 718.223 L745.717 726.695 Q746.736 726.348 747.754 726.186 Q748.773 726.001 749.791 726.001 Q755.578 726.001 758.958 729.172 Q762.337 732.343 762.337 737.76 Q762.337 743.339 758.865 746.44 Q755.393 749.519 749.073 749.519 Q746.898 749.519 744.629 749.149 Q742.384 748.778 739.976 748.038 L739.976 743.339 Q742.06 744.473 744.282 745.028 Q746.504 745.584 748.981 745.584 Q752.985 745.584 755.323 743.478 Q757.661 741.371 757.661 737.76 Q757.661 734.149 755.323 732.042 Q752.985 729.936 748.981 729.936 Q747.106 729.936 745.231 730.353 Q743.379 730.769 741.435 731.649 L741.435 714.288 Z" fill="#000000" fill-rule="nonzero" fill-opacity="1" /><path clip-path="url(#clip690)" d="M781.55 717.367 Q777.939 717.367 776.11 720.931 Q774.305 724.473 774.305 731.603 Q774.305 738.709 776.11 742.274 Q777.939 745.815 781.55 745.815 Q785.184 745.815 786.99 742.274 Q788.819 738.709 788.819 731.603 Q788.819 724.473 786.99 720.931 Q785.184 717.367 781.55 717.367 M781.55 713.663 Q787.36 713.663 790.416 718.269 Q793.495 722.853 793.495 731.603 Q793.495 740.329 790.416 744.936 Q787.36 749.519 781.55 749.519 Q775.74 749.519 772.661 744.936 Q769.606 740.329 769.606 731.603 Q769.606 722.853 772.661 718.269 Q775.74 713.663 781.55 713.663 Z" fill="#000000" fill-rule="nonzero" fill-opacity="1" /><path clip-path="url(#clip690)" d="M1224.4 714.288 L1242.76 714.288 L1242.76 718.223 L1228.69 718.223 L1228.69 726.695 Q1229.7 726.348 1230.72 726.186 Q1231.74 726.001 1232.76 726.001 Q1238.55 726.001 1241.93 729.172 Q1245.31 732.343 1245.31 737.76 Q1245.31 743.339 1241.83 746.44 Q1238.36 749.519 1232.04 749.519 Q1229.87 749.519 1227.6 749.149 Q1225.35 748.778 1222.94 748.038 L1222.94 743.339 Q1225.03 744.473 1227.25 745.028 Q1229.47 745.584 1231.95 745.584 Q1235.95 745.584 1238.29 743.478 Q1240.63 741.371 1240.63 737.76 Q1240.63 734.149 1238.29 732.042 Q1235.95 729.936 1231.95 729.936 Q1230.07 729.936 1228.2 730.353 Q1226.35 730.769 1224.4 731.649 L1224.4 714.288 Z" fill="#000000" fill-rule="nonzero" fill-opacity="1" /><path clip-path="url(#clip690)" d="M1264.52 717.367 Q1260.91 717.367 1259.08 720.931 Q1257.27 724.473 1257.27 731.603 Q1257.27 738.709 1259.08 742.274 Q1260.91 745.815 1264.52 745.815 Q1268.15 745.815 1269.96 742.274 Q1271.79 738.709 1271.79 731.603 Q1271.79 724.473 1269.96 720.931 Q1268.15 717.367 1264.52 717.367 M1264.52 713.663 Q1270.33 713.663 1273.38 718.269 Q1276.46 722.853 1276.46 731.603 Q1276.46 740.329 1273.38 744.936 Q1270.33 749.519 1264.52 749.519 Q1258.71 749.519 1255.63 744.936 Q1252.57 740.329 1252.57 731.603 Q1252.57 722.853 1255.63 718.269 Q1258.71 713.663 1264.52 713.663 Z" fill="#000000" fill-rule="nonzero" fill-opacity="1" /><path clip-path="url(#clip690)" d="M1294.68 717.367 Q1291.07 717.367 1289.24 720.931 Q1287.44 724.473 1287.44 731.603 Q1287.44 738.709 1289.24 742.274 Q1291.07 745.815 1294.68 745.815 Q1298.31 745.815 1300.12 742.274 Q1301.95 738.709 1301.95 731.603 Q1301.95 724.473 1300.12 720.931 Q1298.31 717.367 1294.68 717.367 M1294.68 713.663 Q1300.49 713.663 1303.55 718.269 Q1306.62 722.853 1306.62 731.603 Q1306.62 740.329 1303.55 744.936 Q1300.49 749.519 1294.68 749.519 Q1288.87 749.519 1285.79 744.936 Q1282.74 740.329 1282.74 731.603 Q1282.74 722.853 1285.79 718.269 Q1288.87 713.663 1294.68 713.663 Z" fill="#000000" fill-rule="nonzero" fill-opacity="1" /><path clip-path="url(#clip690)" d="M1736.28 714.288 L1758.51 714.288 L1758.51 716.279 L1745.96 748.848 L1741.08 748.848 L1752.88 718.223 L1736.28 718.223 L1736.28 714.288 Z" fill="#000000" fill-rule="nonzero" fill-opacity="1" /><path clip-path="url(#clip690)" d="M1767.67 714.288 L1786.03 714.288 L1786.03 718.223 L1771.95 718.223 L1771.95 726.695 Q1772.97 726.348 1773.99 726.186 Q1775.01 726.001 1776.03 726.001 Q1781.82 726.001 1785.2 729.172 Q1788.57 732.343 1788.57 737.76 Q1788.57 743.339 1785.1 746.44 Q1781.63 749.519 1775.31 749.519 Q1773.14 749.519 1770.87 749.149 Q1768.62 748.778 1766.21 748.038 L1766.21 743.339 Q1768.3 744.473 1770.52 745.028 Q1772.74 745.584 1775.22 745.584 Q1779.22 745.584 1781.56 743.478 Q1783.9 741.371 1783.9 737.76 Q1783.9 734.149 1781.56 732.042 Q1779.22 729.936 1775.22 729.936 Q1773.34 729.936 1771.47 730.353 Q1769.62 730.769 1767.67 731.649 L1767.67 714.288 Z" fill="#000000" fill-rule="nonzero" fill-opacity="1" /><path clip-path="url(#clip690)" d="M1807.79 717.367 Q1804.18 717.367 1802.35 720.931 Q1800.54 724.473 1800.54 731.603 Q1800.54 738.709 1802.35 742.274 Q1804.18 745.815 1807.79 745.815 Q1811.42 745.815 1813.23 742.274 Q1815.06 738.709 1815.06 731.603 Q1815.06 724.473 1813.23 720.931 Q1811.42 717.367 1807.79 717.367 M1807.79 713.663 Q1813.6 713.663 1816.65 718.269 Q1819.73 722.853 1819.73 731.603 Q1819.73 740.329 1816.65 744.936 Q1813.6 749.519 1807.79 749.519 Q1801.98 749.519 1798.9 744.936 Q1795.84 740.329 1795.84 731.603 Q1795.84 722.853 1798.9 718.269 Q1801.98 713.663 1807.79 713.663 Z" fill="#000000" fill-rule="nonzero" fill-opacity="1" /><path clip-path="url(#clip690)" d="M2235.76 744.913 L2243.4 744.913 L2243.4 718.547 L2235.09 720.214 L2235.09 715.955 L2243.35 714.288 L2248.02 714.288 L2248.02 744.913 L2255.66 744.913 L2255.66 748.848 L2235.76 748.848 L2235.76 744.913 Z" fill="#000000" fill-rule="nonzero" fill-opacity="1" /><path clip-path="url(#clip690)" d="M2275.11 717.367 Q2271.5 717.367 2269.67 720.931 Q2267.86 724.473 2267.86 731.603 Q2267.86 738.709 2269.67 742.274 Q2271.5 745.815 2275.11 745.815 Q2278.74 745.815 2280.55 742.274 Q2282.38 738.709 2282.38 731.603 Q2282.38 724.473 2280.55 720.931 Q2278.74 717.367 2275.11 717.367 M2275.11 713.663 Q2280.92 713.663 2283.97 718.269 Q2287.05 722.853 2287.05 731.603 Q2287.05 740.329 2283.97 744.936 Q2280.92 749.519 2275.11 749.519 Q2269.3 749.519 2266.22 744.936 Q2263.16 740.329 2263.16 731.603 Q2263.16 722.853 2266.22 718.269 Q2269.3 713.663 2275.11 713.663 Z" fill="#000000" fill-rule="nonzero" fill-opacity="1" /><path clip-path="url(#clip690)" d="M2305.27 717.367 Q2301.66 717.367 2299.83 720.931 Q2298.02 724.473 2298.02 731.603 Q2298.02 738.709 2299.83 742.274 Q2301.66 745.815 2305.27 745.815 Q2308.9 745.815 2310.71 742.274 Q2312.54 738.709 2312.54 731.603 Q2312.54 724.473 2310.71 720.931 Q2308.9 717.367 2305.27 717.367 M2305.27 713.663 Q2311.08 713.663 2314.14 718.269 Q2317.21 722.853 2317.21 731.603 Q2317.21 740.329 2314.14 744.936 Q2311.08 749.519 2305.27 749.519 Q2299.46 749.519 2296.38 744.936 Q2293.33 740.329 2293.33 731.603 Q2293.33 722.853 2296.38 718.269 Q2299.46 713.663 2305.27 713.663 Z" fill="#000000" fill-rule="nonzero" fill-opacity="1" /><path clip-path="url(#clip690)" d="M2335.43 717.367 Q2331.82 717.367 2329.99 720.931 Q2328.19 724.473 2328.19 731.603 Q2328.19 738.709 2329.99 742.274 Q2331.82 745.815 2335.43 745.815 Q2339.07 745.815 2340.87 742.274 Q2342.7 738.709 2342.7 731.603 Q2342.7 724.473 2340.87 720.931 Q2339.07 717.367 2335.43 717.367 M2335.43 713.663 Q2341.24 713.663 2344.3 718.269 Q2347.38 722.853 2347.38 731.603 Q2347.38 740.329 2344.3 744.936 Q2341.24 749.519 2335.43 749.519 Q2329.62 749.519 2326.54 744.936 Q2323.49 740.329 2323.49 731.603 Q2323.49 722.853 2326.54 718.269 Q2329.62 713.663 2335.43 713.663 Z" fill="#000000" fill-rule="nonzero" fill-opacity="1" /><polyline clip-path="url(#clip690)" style="stroke:#000000; stroke-linecap:round; stroke-linejoin:round; stroke-width:4; stroke-opacity:1; fill:none" points="178.867,686.448 178.867,47.2441 "/>
<polyline clip-path="url(#clip690)" style="stroke:#000000; stroke-linecap:round; stroke-linejoin:round; stroke-width:4; stroke-opacity:1; fill:none" points="178.867,686.448 197.764,686.448 "/>
<polyline clip-path="url(#clip690)" style="stroke:#000000; stroke-linecap:round; stroke-linejoin:round; stroke-width:4; stroke-opacity:1; fill:none" points="178.867,526.647 197.764,526.647 "/>
<polyline clip-path="url(#clip690)" style="stroke:#000000; stroke-linecap:round; stroke-linejoin:round; stroke-width:4; stroke-opacity:1; fill:none" points="178.867,366.846 197.764,366.846 "/>
<polyline clip-path="url(#clip690)" style="stroke:#000000; stroke-linecap:round; stroke-linejoin:round; stroke-width:4; stroke-opacity:1; fill:none" points="178.867,207.045 197.764,207.045 "/>
<polyline clip-path="url(#clip690)" style="stroke:#000000; stroke-linecap:round; stroke-linejoin:round; stroke-width:4; stroke-opacity:1; fill:none" points="178.867,47.2441 197.764,47.2441 "/>
<path clip-path="url(#clip690)" d="M50.9921 686.899 L80.6679 686.899 L80.6679 690.834 L50.9921 690.834 L50.9921 686.899 Z" fill="#000000" fill-rule="nonzero" fill-opacity="1" /><path clip-path="url(#clip690)" d="M91.5706 699.793 L99.2095 699.793 L99.2095 673.427 L90.8993 675.094 L90.8993 670.835 L99.1632 669.168 L103.839 669.168 L103.839 699.793 L111.478 699.793 L111.478 703.728 L91.5706 703.728 L91.5706 699.793 Z" fill="#000000" fill-rule="nonzero" fill-opacity="1" /><path clip-path="url(#clip690)" d="M130.922 672.247 Q127.311 672.247 125.482 675.811 Q123.677 679.353 123.677 686.483 Q123.677 693.589 125.482 697.154 Q127.311 700.695 130.922 700.695 Q134.556 700.695 136.362 697.154 Q138.191 693.589 138.191 686.483 Q138.191 679.353 136.362 675.811 Q134.556 672.247 130.922 672.247 M130.922 668.543 Q136.732 668.543 139.788 673.149 Q142.867 677.733 142.867 686.483 Q142.867 695.209 139.788 699.816 Q136.732 704.399 130.922 704.399 Q125.112 704.399 122.033 699.816 Q118.978 695.209 118.978 686.483 Q118.978 677.733 122.033 673.149 Q125.112 668.543 130.922 668.543 Z" fill="#000000" fill-rule="nonzero" fill-opacity="1" /><path clip-path="url(#clip690)" d="M82.1494 527.098 L111.825 527.098 L111.825 531.033 L82.1494 531.033 L82.1494 527.098 Z" fill="#000000" fill-rule="nonzero" fill-opacity="1" /><path clip-path="url(#clip690)" d="M121.964 509.367 L140.32 509.367 L140.32 513.302 L126.246 513.302 L126.246 521.774 Q127.265 521.427 128.283 521.265 Q129.302 521.08 130.32 521.08 Q136.107 521.08 139.487 524.251 Q142.867 527.422 142.867 532.839 Q142.867 538.418 139.394 541.52 Q135.922 544.598 129.603 544.598 Q127.427 544.598 125.158 544.228 Q122.913 543.857 120.506 543.117 L120.506 538.418 Q122.589 539.552 124.811 540.108 Q127.033 540.663 129.51 540.663 Q133.515 540.663 135.853 538.557 Q138.191 536.45 138.191 532.839 Q138.191 529.228 135.853 527.121 Q133.515 525.015 129.51 525.015 Q127.635 525.015 125.76 525.432 Q123.908 525.848 121.964 526.728 L121.964 509.367 Z" fill="#000000" fill-rule="nonzero" fill-opacity="1" /><path clip-path="url(#clip690)" d="M130.922 352.645 Q127.311 352.645 125.482 356.209 Q123.677 359.751 123.677 366.881 Q123.677 373.987 125.482 377.552 Q127.311 381.094 130.922 381.094 Q134.556 381.094 136.362 377.552 Q138.191 373.987 138.191 366.881 Q138.191 359.751 136.362 356.209 Q134.556 352.645 130.922 352.645 M130.922 348.941 Q136.732 348.941 139.788 353.547 Q142.867 358.131 142.867 366.881 Q142.867 375.608 139.788 380.214 Q136.732 384.797 130.922 384.797 Q125.112 384.797 122.033 380.214 Q118.978 375.608 118.978 366.881 Q118.978 358.131 122.033 353.547 Q125.112 348.941 130.922 348.941 Z" fill="#000000" fill-rule="nonzero" fill-opacity="1" /><path clip-path="url(#clip690)" d="M121.964 189.765 L140.32 189.765 L140.32 193.7 L126.246 193.7 L126.246 202.172 Q127.265 201.825 128.283 201.663 Q129.302 201.478 130.32 201.478 Q136.107 201.478 139.487 204.649 Q142.867 207.82 142.867 213.237 Q142.867 218.816 139.394 221.918 Q135.922 224.996 129.603 224.996 Q127.427 224.996 125.158 224.626 Q122.913 224.256 120.506 223.515 L120.506 218.816 Q122.589 219.95 124.811 220.506 Q127.033 221.061 129.51 221.061 Q133.515 221.061 135.853 218.955 Q138.191 216.848 138.191 213.237 Q138.191 209.626 135.853 207.52 Q133.515 205.413 129.51 205.413 Q127.635 205.413 125.76 205.83 Q123.908 206.246 121.964 207.126 L121.964 189.765 Z" fill="#000000" fill-rule="nonzero" fill-opacity="1" /><path clip-path="url(#clip690)" d="M91.5706 60.5889 L99.2095 60.5889 L99.2095 34.2233 L90.8993 35.89 L90.8993 31.6308 L99.1632 29.9641 L103.839 29.9641 L103.839 60.5889 L111.478 60.5889 L111.478 64.5241 L91.5706 64.5241 L91.5706 60.5889 Z" fill="#000000" fill-rule="nonzero" fill-opacity="1" /><path clip-path="url(#clip690)" d="M130.922 33.0428 Q127.311 33.0428 125.482 36.6076 Q123.677 40.1492 123.677 47.2788 Q123.677 54.3853 125.482 57.9501 Q127.311 61.4917 130.922 61.4917 Q134.556 61.4917 136.362 57.9501 Q138.191 54.3853 138.191 47.2788 Q138.191 40.1492 136.362 36.6076 Q134.556 33.0428 130.922 33.0428 M130.922 29.3391 Q136.732 29.3391 139.788 33.9456 Q142.867 38.5289 142.867 47.2788 Q142.867 56.0056 139.788 60.6121 Q136.732 65.1954 130.922 65.1954 Q125.112 65.1954 122.033 60.6121 Q118.978 56.0056 118.978 47.2788 Q118.978 38.5289 122.033 33.9456 Q125.112 29.3391 130.922 29.3391 Z" fill="#000000" fill-rule="nonzero" fill-opacity="1" /><polyline clip-path="url(#clip692)" style="stroke:#009af9; stroke-linecap:round; stroke-linejoin:round; stroke-width:4; stroke-opacity:1; fill:none" points="240.392,334.886 242.445,337.614 244.498,348.072 246.55,352.042 248.603,354.787 250.656,355.85 252.709,354.865 254.762,374.583 256.815,374.113 258.868,370.377 260.921,364.256 262.974,364.03 265.027,359.476 267.079,380.256 269.132,384.877 271.185,313.698 273.238,361.504 275.291,363.189 277.344,383.589 279.397,379.93 281.45,384.506 283.503,388.043 285.555,388.25 287.608,402.644 289.661,397.622 291.714,397.883 293.767,402.427 295.82,399.874 297.873,398.333 299.926,425.005 301.979,433.888 304.031,433.71 306.084,433.844 308.137,458.619 310.19,453.57 312.243,453.537 314.296,449.822 316.349,408.553 318.402,408.104 320.455,416.211 322.507,407.943 324.56,415.036 326.613,431.597 328.666,431.548 330.719,433.01 332.772,425.207 334.825,426.33 336.878,431.244 338.931,427.184 340.984,431.169 343.036,431.575 345.089,430.217 347.142,430.514 349.195,433.763 351.248,438.596 353.301,424.985 355.354,433.734 357.407,433.671 359.46,435.476 361.512,399.243 363.565,368.432 365.618,367.181 367.671,367.555 369.724,368.246 371.777,366.611 373.83,369.142 375.883,368.817 377.936,368.101 379.988,367.185 382.041,366.075 384.094,322.044 386.147,328.401 388.2,383.801 390.253,415.386 392.306,398.389 394.359,397.989 396.412,400.478 398.464,405.198 400.517,324.481 402.57,312.53 404.623,320.887 406.676,321.576 408.729,306.974 410.782,289.26 412.835,296.863 414.888,293.821 416.94,297.485 418.993,296.243 421.046,360.718 423.099,335.774 425.152,336.374 427.205,355.001 429.258,349.461 431.311,352.362 433.364,344.197 435.417,347.38 437.469,346.071 439.522,370.248 441.575,430.281 443.628,414.535 445.681,363.959 447.734,359.044 449.787,358.345 451.84,356.9 453.893,357.493 455.945,359.886 457.998,360.475 460.051,335.636 462.104,348.056 464.157,348.004 466.21,348.563 468.263,344.152 470.316,307.598 472.369,398.205 474.421,396.865 476.474,368.001 478.527,367.225 480.58,367.485 482.633,372.174 484.686,379.354 486.739,382.633 488.792,353.089 490.845,349.519 492.897,348.051 494.95,352.155 497.003,349.627 499.056,344.539 501.109,355.595 503.162,348.418 505.215,349.043 507.268,345.929 509.321,370.95 511.374,388.738 513.426,345.732 515.479,348.364 517.532,363.191 519.585,359.476 521.638,337.165 523.691,384.626 525.744,384.775 527.797,394.616 529.85,384.969 531.902,384.22 533.955,352.956 536.008,348.642 538.061,338.422 540.114,334.917 542.167,334.881 544.22,346.89 546.273,340.732 548.326,342.678 550.378,381.648 552.431,382.379 554.484,382.384 556.537,382.292 558.59,382.361 560.643,369.446 562.696,366.989 564.749,410.377 566.802,408.844 568.854,406.585 570.907,407.081 572.96,401.533 575.013,407.878 577.066,407.409 579.119,403.586 581.172,401.562 583.225,401.578 585.278,401.348 587.331,402.164 589.383,333.217 591.436,336.809 593.489,325.025 595.542,324.047 597.595,348.129 599.648,367.72 601.701,366.609 603.754,366.575 605.807,366.534 607.859,365.627 609.912,359.598 611.965,359.561 614.018,359.547 616.071,360.442 618.124,361.338 620.177,360.828 622.23,389.245 624.283,389.835 626.335,389.69 628.388,389.579 630.441,387.045 632.494,384.388 634.547,376.285 636.6,374.159 638.653,374.153 640.706,382.012 642.759,370.162 644.811,387.933 646.864,386.919 648.917,389.254 650.97,399.981 653.023,373.293 655.076,372.185 657.129,372.134 659.182,369.34 661.235,361.911 663.288,384.969 665.34,398.785 667.393,388.349 669.446,369.775 671.499,379.41 673.552,377.237 675.605,377.277 677.658,369.609 679.711,375.436 681.764,368.371 683.816,367.944 685.869,395.324 687.922,395.293 689.975,404.854 692.028,335.319 694.081,338.144 696.134,338.572 698.187,297.713 700.24,351.219 702.292,348.339 704.345,359.171 706.398,348.612 708.451,338.039 710.504,338.519 712.557,337.248 714.61,381.037 716.663,368.608 718.716,368.101 720.768,371.662 722.821,371.59 724.874,367.231 726.927,367.232 728.98,369.161 731.033,400.71 733.086,401.709 735.139,401.589 737.192,406.677 739.245,410.093 741.297,410.087 743.35,338.229 745.403,345.855 747.456,352.319 749.509,322.517 751.562,244.965 753.615,245.294 755.668,260.226 757.721,259.307 759.773,291.044 761.826,289.933 763.879,295.319 765.932,295.278 767.985,298.691 770.038,328.007 772.091,335.814 774.144,321.81 776.197,309.188 778.249,309.163 780.302,318.465 782.355,319.398 784.408,301.637 786.461,301.518 788.514,302.222 790.567,304.384 792.62,304.127 794.673,312.93 796.725,307.759 798.778,281.108 800.831,279.739 802.884,276.977 804.937,276.75 806.99,299.215 809.043,294.223 811.096,288.892 813.149,292.652 815.202,289.603 817.254,294.434 819.307,294.801 821.36,294.872 823.413,295.079 825.466,293.085 827.519,300.219 829.572,327.355 831.625,317.353 833.678,321.372 835.73,322.52 837.783,325.44 839.836,330.067 841.889,329.879 843.942,325.596 845.995,321.353 848.048,313.243 850.101,311.254 852.154,328.414 854.206,328.024 856.259,326.971 858.312,336.927 860.365,331.604 862.418,326.885 864.471,328.522 866.524,328.53 868.577,356.071 870.63,356.556 872.682,356.88 874.735,356.259 876.788,337.7 878.841,338.295 880.894,329.478 882.947,331.635 885,288.597 887.053,290.306 889.106,291.619 891.159,291.484 893.211,288.682 895.264,288.681 897.317,289.693 899.37,289.328 901.423,272.8 903.476,380.077 905.529,374.102 907.582,356.163 909.635,355.954 911.687,368.773 913.74,372.876 915.793,373.929 917.846,377.633 919.899,435.16 921.952,443.062 924.005,445.136 926.058,416.251 928.111,341.164 930.163,342.67 932.216,355.82 934.269,355.841 936.322,354.944 938.375,355.08 940.428,344.863 942.481,351.146 944.534,351.257 946.587,349.42 948.639,349.643 950.692,351.941 952.745,352.383 954.798,352.442 956.851,336.546 958.904,336.547 960.957,329.348 963.01,332.067 965.063,332.603 967.116,332.561 969.168,331.949 971.221,351.343 973.274,291.586 975.327,250.133 977.38,250.346 979.433,257.497 981.486,259.416 983.539,296.91 985.592,297.999 987.644,288.974 989.697,289.854 991.75,286.43 993.803,292.29 995.856,299.878 997.909,362.386 999.962,357.216 1002.01,409.587 1004.07,408.725 1006.12,411.95 1008.17,401.954 1010.23,486.633 1012.28,408.068 1014.33,438.255 1016.38,465.868 1018.44,431.478 1020.49,400.642 1022.54,401.928 1024.6,411.542 1026.65,412.502 1028.7,473.113 1030.76,463.658 1032.81,452.52 1034.86,450.46 1036.91,450.518 1038.97,459.599 1041.02,452.293 1043.07,451.894 1045.13,403.723 1047.18,408.047 1049.23,403.249 1051.28,395.505 1053.34,305.529 1055.39,314.663 1057.44,390.614 1059.5,391.362 1061.55,434.246 1063.6,424.597 1065.65,411.429 1067.71,413.941 1069.76,414.731 1071.81,413.295 1073.87,371.511 1075.92,374.78 1077.97,368.497 1080.02,372.821 1082.08,372.815 1084.13,371.19 1086.18,364.972 1088.24,359.688 1090.29,366.143 1092.34,349.397 1094.39,354.331 1096.45,341.12 1098.5,351.786 1100.55,351.015 1102.61,351.166 1104.66,351.488 1106.71,351.222 1108.77,355.323 1110.82,357.545 1112.87,350.788 1114.92,350.81 1116.98,350.823 1119.03,350.74 1121.08,350.599 1123.14,352.882 1125.19,353.46 1127.24,353.55 1129.29,356.46 1131.35,375.059 1133.4,367.971 1135.45,368.749 1137.51,368.762 1139.56,367.349 1141.61,353.112 1143.66,352.56 1145.72,347.199 1147.77,347.265 1149.82,348.785 1151.88,369.052 1153.93,379.585 1155.98,380.546 1158.03,377.992 1160.09,378.632 1162.14,349.793 1164.19,348.41 1166.25,349.073 1168.3,350.375 1170.35,352.235 1172.4,353.296 1174.46,369.301 1176.51,374.918 1178.56,366.477 1180.62,352.526 1182.67,351.05 1184.72,350.771 1186.77,357.137 1188.83,356.469 1190.88,357.051 1192.93,356.052 1194.99,355.077 1197.04,355.094 1199.09,357.085 1201.15,357.933 1203.2,348.917 1205.25,364.763 1207.3,365.679 1209.36,365.509 1211.41,398.244 1213.46,389.638 1215.52,373.412 1217.57,372.063 1219.62,372.807 1221.67,372.456 1223.73,373.294 1225.78,391.551 1227.83,396.777 1229.89,364.374 1231.94,364.095 1233.99,360.02 1236.04,346.957 1238.1,347.045 1240.15,347.271 1242.2,353.277 1244.26,400.648 1246.31,400.801 1248.36,389.433 1250.41,384.868 1252.47,367.382 1254.52,320.261 1256.57,310.464 1258.63,307.236 1260.68,299.668 1262.73,295.167 1264.78,318.636 1266.84,321.941 1268.89,321.321 1270.94,323.461 1273,327.053 1275.05,345.5 1277.1,343.877 1279.16,338.608 1281.21,327.049 1283.26,341.041 1285.31,341.924 1287.37,369.725 1289.42,369.228 1291.47,368.377 1293.53,362.699 1295.58,343.01 1297.63,343.747 1299.68,343.299 1301.74,345.069 1303.79,336.824 1305.84,326.76 1307.9,294.212 1309.95,285.558 1312,222.474 1314.05,319.096 1316.11,324.849 1318.16,289.499 1320.21,289.414 1322.27,300.785 1324.32,311.107 1326.37,312.986 1328.42,312.888 1330.48,322.01 1332.53,344.306 1334.58,344.707 1336.64,354.701 1338.69,333.014 1340.74,332.469 1342.79,332.631 1344.85,332.967 1346.9,334.749 1348.95,333.975 1351.01,332.721 1353.06,336.855 1355.11,321.479 1357.16,303.151 1359.22,320.06 1361.27,407.916 1363.32,409.053 1365.38,313.139 1367.43,318.328 1369.48,315.119 1371.54,313.369 1373.59,315.987 1375.64,316.004 1377.69,333.234 1379.75,337.098 1381.8,326.94 1383.85,326.626 1385.91,340.913 1387.96,343.524 1390.01,343.481 1392.06,344.028 1394.12,344.033 1396.17,342.203 1398.22,335.118 1400.28,335.016 1402.33,315.004 1404.38,314.494 1406.43,297.925 1408.49,298.108 1410.54,365.475 1412.59,376.946 1414.65,359.733 1416.7,358.3 1418.75,337.314 1420.8,338.701 1422.86,340.888 1424.91,342.91 1426.96,359.17 1429.02,353.777 1431.07,335.639 1433.12,337.544 1435.17,354.791 1437.23,354.789 1439.28,343.071 1441.33,342.661 1443.39,344.024 1445.44,343.989 1447.49,343.483 1449.55,343.057 1451.6,340.094 1453.65,340.859 1455.7,373.626 1457.76,370.827 1459.81,381.008 1461.86,387.698 1463.92,390.875 1465.97,362.902 1468.02,365.821 1470.07,369.846 1472.13,372.281 1474.18,373.392 1476.23,373.076 1478.29,364.217 1480.34,364.324 1482.39,366.618 1484.44,359.41 1486.5,338.377 1488.55,337.382 1490.6,340.853 1492.66,340.684 1494.71,364.481 1496.76,360.316 1498.81,364.575 1500.87,356.894 1502.92,344.988 1504.97,344.184 1507.03,340.609 1509.08,340.614 1511.13,351.296 1513.18,364.154 1515.24,362.05 1517.29,356.069 1519.34,356.083 1521.4,344.858 1523.45,344.882 1525.5,345.561 1527.55,345.27 1529.61,339.674 1531.66,338.926 1533.71,340.186 1535.77,340.193 1537.82,341.162 1539.87,340.121 1541.93,341.586 1543.98,331.911 1546.03,393.137 1548.08,389.485 1550.14,389.074 1552.19,361.903 1554.24,362.413 1556.3,375.716 1558.35,376.638 1560.4,392.351 1562.45,393.029 1564.51,391.055 1566.56,389.739 1568.61,387.566 1570.67,387.585 1572.72,383.02 1574.77,386.095 1576.82,385.485 1578.88,384.35 1580.93,374.257 1582.98,377.378 1585.04,373.736 1587.09,373.27 1589.14,373.289 1591.19,366.667 1593.25,368.201 1595.3,374.924 1597.35,375.168 1599.41,374.081 1601.46,362.448 1603.51,362.105 1605.56,361.569 1607.62,362.064 1609.67,365.456 1611.72,357.175 1613.78,361.895 1615.83,361.751 1617.88,365.17 1619.94,364.802 1621.99,357.831 1624.04,357.836 1626.09,360.681 1628.15,359.644 1630.2,362.792 1632.25,373.054 1634.31,378.576 1636.36,378.573 1638.41,378.591 1640.46,366.541 1642.52,366.922 1644.57,366.708 1646.62,366.223 1648.68,367.029 1650.73,367.032 1652.78,366.768 1654.83,376.38 1656.89,376.38 1658.94,376.669 1660.99,378.057 1663.05,377.787 1665.1,378.439 1667.15,378.164 1669.2,388.782 1671.26,371.457 1673.31,372.718 1675.36,377.842 1677.42,377.731 1679.47,380.136 1681.52,378.171 1683.57,377.135 1685.63,369.123 1687.68,370.001 1689.73,375.984 1691.79,375.917 1693.84,382.795 1695.89,382.63 1697.94,379.186 1700,376.982 1702.05,370.19 1704.1,381.219 1706.16,381.136 1708.21,375.129 1710.26,375.856 1712.32,381.123 1714.37,370.256 1716.42,366.58 1718.47,371.083 1720.53,371.373 1722.58,369.935 1724.63,370.404 1726.69,371.416 1728.74,370.005 1730.79,376.231 1732.84,373.576 1734.9,373.663 1736.95,370.168 1739,372.256 1741.06,375.838 1743.11,375.836 1745.16,377.601 1747.21,380.9 1749.27,363.832 1751.32,384.645 1753.37,384.658 1755.43,382.663 1757.48,384.468 1759.53,385.402 1761.58,387.684 1763.64,387.636 1765.69,387.043 1767.74,388.015 1769.8,389.565 1771.85,389.4 1773.9,389.461 1775.95,389.33 1778.01,388.598 1780.06,391.779 1782.11,396.585 1784.17,398.859 1786.22,389.492 1788.27,392 1790.33,393.967 1792.38,393.22 1794.43,392.932 1796.48,392.614 1798.54,392.348 1800.59,392.554 1802.64,376.1 1804.7,382.724 1806.75,380.413 1808.8,373.666 1810.85,348.426 1812.91,348.466 1814.96,346.912 1817.01,348.595 1819.07,352.997 1821.12,350.856 1823.17,398.819 1825.22,399 1827.28,399.047 1829.33,377.229 1831.38,289.58 1833.44,392.883 1835.49,392.594 1837.54,362.996 1839.59,362.996 1841.65,333.449 1843.7,361.77 1845.75,358.33 1847.81,359.263 1849.86,359.121 1851.91,355.743 1853.96,351.343 1856.02,445.913 1858.07,452.905 1860.12,452.592 1862.18,452.45 1864.23,452.098 1866.28,465.264 1868.34,453.04 1870.39,447.761 1872.44,445.459 1874.49,442.582 1876.55,467.117 1878.6,476.876 1880.65,457.238 1882.71,427.783 1884.76,428.69 1886.81,426.103 1888.86,332.754 1890.92,332.207 1892.97,355.964 1895.02,355.202 1897.08,354.292 1899.13,357.833 1901.18,352.282 1903.23,353.848 1905.29,353.652 1907.34,367.647 1909.39,362.016 1911.45,362.49 1913.5,349.429 1915.55,341.102 1917.6,336.256 1919.66,340.307 1921.71,320.427 1923.76,318.997 1925.82,317.435 1927.87,316.264 1929.92,310.884 1931.97,303.263 1934.03,302.43 1936.08,299.875 1938.13,408.112 1940.19,383.077 1942.24,385.866 1944.29,379.605 1946.34,386.509 1948.4,386.371 1950.45,385.625 1952.5,383.085 1954.56,383.195 1956.61,376.885 1958.66,377.537 1960.72,376.305 1962.77,347.994 1964.82,348.522 1966.87,341.979 1968.93,337.575 1970.98,381.088 1973.03,405.705 1975.09,365.623 1977.14,486.902 1979.19,292.313 1981.24,293.51 1983.3,307.344 1985.35,301.356 1987.4,298.855 1989.46,295.806 1991.51,289.063 1993.56,351.479 1995.61,340.791 1997.67,378.849 1999.72,375.632 2001.77,338.663 2003.83,377.023 2005.88,435.302 2007.93,435.692 2009.98,435.737 2012.04,436.508 2014.09,436.707 2016.14,436.919 2018.2,427.515 2020.25,329.729 2022.3,329.808 2024.35,352.921 2026.41,344.754 2028.46,361.502 2030.51,362.678 2032.57,362.65 2034.62,377.842 2036.67,381.374 2038.73,384.752 2040.78,358.022 2042.83,361.124 2044.88,376.961 2046.94,368.633 2048.99,376.902 2051.04,377.455 2053.1,377.661 2055.15,378.582 2057.2,378.223 2059.25,375.823 2061.31,375.749 2063.36,379.365 2065.41,379.379 2067.47,377.933 2069.52,377.751 2071.57,377.149 2073.62,378.019 2075.68,381.447 2077.73,370.459 2079.78,364.104 2081.84,358.992 2083.89,359.185 2085.94,359.213 2087.99,361.135 2090.05,361.916 2092.1,351.855 2094.15,371.499 2096.21,369.004 2098.26,369.382 2100.31,369.331 2102.36,361.668 2104.42,356.17 2106.47,356.422 2108.52,356.344 2110.58,356.245 2112.63,356.276 2114.68,351.273 2116.73,353.252 2118.79,352.87 2120.84,359.567 2122.89,359.224 2124.95,360.816 2127,363.088 2129.05,363.302 2131.11,363.263 2133.16,362.261 2135.21,362.735 2137.26,363.866 2139.32,362.95 2141.37,365.537 2143.42,365.511 2145.48,365.349 2147.53,365.246 2149.58,366.961 2151.63,366.979 2153.69,365.884 2155.74,363.211 2157.79,372.325 2159.85,384.352 2161.9,384.735 2163.95,385.443 2166,385.909 2168.06,386.47 2170.11,397.401 2172.16,397.464 2174.22,393.984 2176.27,393.162 2178.32,385.24 2180.37,385.938 2182.43,370.383 2184.48,374.326 2186.53,374.697 2188.59,373.698 2190.64,371.767 2192.69,371.625 2194.74,371.184 2196.8,383.373 2198.85,382.719 2200.9,385.299 2202.96,383.935 2205.01,382.753 2207.06,383.874 2209.12,366.771 2211.17,366.561 2213.22,365.702 2215.27,365.718 2217.33,364.857 2219.38,367.876 2221.43,338.758 2223.49,338.809 2225.54,349.085 2227.59,350.211 2229.64,349.839 2231.7,349.826 2233.75,350.166 2235.8,349.062 2237.86,335.607 2239.91,334.986 2241.96,332.491 2244.01,332.3 2246.07,332.238 2248.12,332.23 2250.17,336.482 2252.23,325.332 2254.28,337.954 2256.33,339.541 2258.38,340.287 2260.44,340.243 2262.49,341.372 2264.54,341.618 2266.6,333.299 2268.65,375.791 2270.7,376.487 2272.75,375.714 2274.81,375.206 2276.86,378.208 2278.91,375.052 2280.97,369.113 2283.02,372.315 2285.07,372.37 2287.12,372.662 2289.18,370.82 2291.23,376.02 "/>
<path clip-path="url(#clip690)" d="M1983.6 172.231 L2280.29 172.231 L2280.29 68.5509 L1983.6 68.5509  Z" fill="#ffffff" fill-rule="evenodd" fill-opacity="1"/>
<polyline clip-path="url(#clip690)" style="stroke:#000000; stroke-linecap:round; stroke-linejoin:round; stroke-width:4; stroke-opacity:1; fill:none" points="1983.6,172.231 2280.29,172.231 2280.29,68.5509 1983.6,68.5509 1983.6,172.231 "/>
<polyline clip-path="url(#clip690)" style="stroke:#009af9; stroke-linecap:round; stroke-linejoin:round; stroke-width:4; stroke-opacity:1; fill:none" points="2007.75,120.391 2152.68,120.391 "/>
<path clip-path="url(#clip690)" d="M2176.83 103.111 L2181.51 103.111 L2181.51 133.736 L2198.34 133.736 L2198.34 137.671 L2176.83 137.671 L2176.83 103.111 Z" fill="#000000" fill-rule="nonzero" fill-opacity="1" /><path clip-path="url(#clip690)" d="M2223.96 104.245 L2223.96 108.805 Q2221.3 107.532 2218.94 106.907 Q2216.58 106.282 2214.38 106.282 Q2210.56 106.282 2208.48 107.764 Q2206.42 109.245 2206.42 111.977 Q2206.42 114.268 2207.78 115.449 Q2209.17 116.606 2213.01 117.324 L2215.84 117.902 Q2221.07 118.898 2223.55 121.421 Q2226.05 123.921 2226.05 128.134 Q2226.05 133.157 2222.67 135.75 Q2219.31 138.342 2212.81 138.342 Q2210.35 138.342 2207.57 137.787 Q2204.82 137.231 2201.86 136.143 L2201.86 131.328 Q2204.7 132.926 2207.44 133.736 Q2210.17 134.546 2212.81 134.546 Q2216.81 134.546 2218.99 132.972 Q2221.16 131.398 2221.16 128.481 Q2221.16 125.935 2219.59 124.5 Q2218.04 123.064 2214.47 122.347 L2211.62 121.791 Q2206.39 120.75 2204.06 118.527 Q2201.72 116.305 2201.72 112.347 Q2201.72 107.764 2204.94 105.125 Q2208.18 102.486 2213.85 102.486 Q2216.28 102.486 2218.8 102.926 Q2221.32 103.366 2223.96 104.245 Z" fill="#000000" fill-rule="nonzero" fill-opacity="1" /><path clip-path="url(#clip690)" d="M2254.06 104.245 L2254.06 108.805 Q2251.39 107.532 2249.03 106.907 Q2246.67 106.282 2244.47 106.282 Q2240.65 106.282 2238.57 107.764 Q2236.51 109.245 2236.51 111.977 Q2236.51 114.268 2237.87 115.449 Q2239.26 116.606 2243.11 117.324 L2245.93 117.902 Q2251.16 118.898 2253.64 121.421 Q2256.14 123.921 2256.14 128.134 Q2256.14 133.157 2252.76 135.75 Q2249.4 138.342 2242.9 138.342 Q2240.44 138.342 2237.67 137.787 Q2234.91 137.231 2231.95 136.143 L2231.95 131.328 Q2234.8 132.926 2237.53 133.736 Q2240.26 134.546 2242.9 134.546 Q2246.9 134.546 2249.08 132.972 Q2251.25 131.398 2251.25 128.481 Q2251.25 125.935 2249.68 124.5 Q2248.13 123.064 2244.56 122.347 L2241.72 121.791 Q2236.49 120.75 2234.15 118.527 Q2231.81 116.305 2231.81 112.347 Q2231.81 107.764 2235.03 105.125 Q2238.27 102.486 2243.94 102.486 Q2246.37 102.486 2248.89 102.926 Q2251.42 103.366 2254.06 104.245 Z" fill="#000000" fill-rule="nonzero" fill-opacity="1" /><path clip-path="url(#clip690)" d="M178.867 1486.45 L2352.76 1486.45 L2352.76 847.244 L178.867 847.244  Z" fill="#ffffff" fill-rule="evenodd" fill-opacity="1"/>
<defs>
  <clipPath id="clip693">
    <rect x="178" y="847" width="2175" height="640"/>
  </clipPath>
</defs>
<polyline clip-path="url(#clip693)" style="stroke:#000000; stroke-linecap:round; stroke-linejoin:round; stroke-width:2; stroke-opacity:0.1; fill:none" points="238.339,1486.45 238.339,847.244 "/>
<polyline clip-path="url(#clip693)" style="stroke:#000000; stroke-linecap:round; stroke-linejoin:round; stroke-width:2; stroke-opacity:0.1; fill:none" points="751.562,1486.45 751.562,847.244 "/>
<polyline clip-path="url(#clip693)" style="stroke:#000000; stroke-linecap:round; stroke-linejoin:round; stroke-width:2; stroke-opacity:0.1; fill:none" points="1264.78,1486.45 1264.78,847.244 "/>
<polyline clip-path="url(#clip693)" style="stroke:#000000; stroke-linecap:round; stroke-linejoin:round; stroke-width:2; stroke-opacity:0.1; fill:none" points="1778.01,1486.45 1778.01,847.244 "/>
<polyline clip-path="url(#clip693)" style="stroke:#000000; stroke-linecap:round; stroke-linejoin:round; stroke-width:2; stroke-opacity:0.1; fill:none" points="2291.23,1486.45 2291.23,847.244 "/>
<polyline clip-path="url(#clip693)" style="stroke:#000000; stroke-linecap:round; stroke-linejoin:round; stroke-width:2; stroke-opacity:0.1; fill:none" points="178.867,1486.45 2352.76,1486.45 "/>
<polyline clip-path="url(#clip693)" style="stroke:#000000; stroke-linecap:round; stroke-linejoin:round; stroke-width:2; stroke-opacity:0.1; fill:none" points="178.867,1326.65 2352.76,1326.65 "/>
<polyline clip-path="url(#clip693)" style="stroke:#000000; stroke-linecap:round; stroke-linejoin:round; stroke-width:2; stroke-opacity:0.1; fill:none" points="178.867,1166.85 2352.76,1166.85 "/>
<polyline clip-path="url(#clip693)" style="stroke:#000000; stroke-linecap:round; stroke-linejoin:round; stroke-width:2; stroke-opacity:0.1; fill:none" points="178.867,1007.05 2352.76,1007.05 "/>
<polyline clip-path="url(#clip693)" style="stroke:#000000; stroke-linecap:round; stroke-linejoin:round; stroke-width:2; stroke-opacity:0.1; fill:none" points="178.867,847.244 2352.76,847.244 "/>
<polyline clip-path="url(#clip690)" style="stroke:#000000; stroke-linecap:round; stroke-linejoin:round; stroke-width:4; stroke-opacity:1; fill:none" points="178.867,1486.45 2352.76,1486.45 "/>
<polyline clip-path="url(#clip690)" style="stroke:#000000; stroke-linecap:round; stroke-linejoin:round; stroke-width:4; stroke-opacity:1; fill:none" points="238.339,1486.45 238.339,1467.55 "/>
<polyline clip-path="url(#clip690)" style="stroke:#000000; stroke-linecap:round; stroke-linejoin:round; stroke-width:4; stroke-opacity:1; fill:none" points="751.562,1486.45 751.562,1467.55 "/>
<polyline clip-path="url(#clip690)" style="stroke:#000000; stroke-linecap:round; stroke-linejoin:round; stroke-width:4; stroke-opacity:1; fill:none" points="1264.78,1486.45 1264.78,1467.55 "/>
<polyline clip-path="url(#clip690)" style="stroke:#000000; stroke-linecap:round; stroke-linejoin:round; stroke-width:4; stroke-opacity:1; fill:none" points="1778.01,1486.45 1778.01,1467.55 "/>
<polyline clip-path="url(#clip690)" style="stroke:#000000; stroke-linecap:round; stroke-linejoin:round; stroke-width:4; stroke-opacity:1; fill:none" points="2291.23,1486.45 2291.23,1467.55 "/>
<path clip-path="url(#clip690)" d="M238.339 1517.37 Q234.728 1517.37 232.899 1520.93 Q231.094 1524.47 231.094 1531.6 Q231.094 1538.71 232.899 1542.27 Q234.728 1545.82 238.339 1545.82 Q241.973 1545.82 243.779 1542.27 Q245.607 1538.71 245.607 1531.6 Q245.607 1524.47 243.779 1520.93 Q241.973 1517.37 238.339 1517.37 M238.339 1513.66 Q244.149 1513.66 247.205 1518.27 Q250.283 1522.85 250.283 1531.6 Q250.283 1540.33 247.205 1544.94 Q244.149 1549.52 238.339 1549.52 Q232.529 1549.52 229.45 1544.94 Q226.395 1540.33 226.395 1531.6 Q226.395 1522.85 229.45 1518.27 Q232.529 1513.66 238.339 1513.66 Z" fill="#000000" fill-rule="nonzero" fill-opacity="1" /><path clip-path="url(#clip690)" d="M715.254 1544.91 L731.574 1544.91 L731.574 1548.85 L709.629 1548.85 L709.629 1544.91 Q712.291 1542.16 716.875 1537.53 Q721.481 1532.88 722.662 1531.53 Q724.907 1529.01 725.787 1527.27 Q726.689 1525.51 726.689 1523.82 Q726.689 1521.07 724.745 1519.33 Q722.824 1517.6 719.722 1517.6 Q717.523 1517.6 715.069 1518.36 Q712.638 1519.13 709.861 1520.68 L709.861 1515.95 Q712.685 1514.82 715.138 1514.24 Q717.592 1513.66 719.629 1513.66 Q725 1513.66 728.194 1516.35 Q731.388 1519.03 731.388 1523.52 Q731.388 1525.65 730.578 1527.57 Q729.791 1529.47 727.685 1532.07 Q727.106 1532.74 724.004 1535.95 Q720.902 1539.15 715.254 1544.91 Z" fill="#000000" fill-rule="nonzero" fill-opacity="1" /><path clip-path="url(#clip690)" d="M741.435 1514.29 L759.791 1514.29 L759.791 1518.22 L745.717 1518.22 L745.717 1526.7 Q746.736 1526.35 747.754 1526.19 Q748.773 1526 749.791 1526 Q755.578 1526 758.958 1529.17 Q762.337 1532.34 762.337 1537.76 Q762.337 1543.34 758.865 1546.44 Q755.393 1549.52 749.073 1549.52 Q746.898 1549.52 744.629 1549.15 Q742.384 1548.78 739.976 1548.04 L739.976 1543.34 Q742.06 1544.47 744.282 1545.03 Q746.504 1545.58 748.981 1545.58 Q752.985 1545.58 755.323 1543.48 Q757.661 1541.37 757.661 1537.76 Q757.661 1534.15 755.323 1532.04 Q752.985 1529.94 748.981 1529.94 Q747.106 1529.94 745.231 1530.35 Q743.379 1530.77 741.435 1531.65 L741.435 1514.29 Z" fill="#000000" fill-rule="nonzero" fill-opacity="1" /><path clip-path="url(#clip690)" d="M781.55 1517.37 Q777.939 1517.37 776.11 1520.93 Q774.305 1524.47 774.305 1531.6 Q774.305 1538.71 776.11 1542.27 Q777.939 1545.82 781.55 1545.82 Q785.184 1545.82 786.99 1542.27 Q788.819 1538.71 788.819 1531.6 Q788.819 1524.47 786.99 1520.93 Q785.184 1517.37 781.55 1517.37 M781.55 1513.66 Q787.36 1513.66 790.416 1518.27 Q793.495 1522.85 793.495 1531.6 Q793.495 1540.33 790.416 1544.94 Q787.36 1549.52 781.55 1549.52 Q775.74 1549.52 772.661 1544.94 Q769.606 1540.33 769.606 1531.6 Q769.606 1522.85 772.661 1518.27 Q775.74 1513.66 781.55 1513.66 Z" fill="#000000" fill-rule="nonzero" fill-opacity="1" /><path clip-path="url(#clip690)" d="M1224.4 1514.29 L1242.76 1514.29 L1242.76 1518.22 L1228.69 1518.22 L1228.69 1526.7 Q1229.7 1526.35 1230.72 1526.19 Q1231.74 1526 1232.76 1526 Q1238.55 1526 1241.93 1529.17 Q1245.31 1532.34 1245.31 1537.76 Q1245.31 1543.34 1241.83 1546.44 Q1238.36 1549.52 1232.04 1549.52 Q1229.87 1549.52 1227.6 1549.15 Q1225.35 1548.78 1222.94 1548.04 L1222.94 1543.34 Q1225.03 1544.47 1227.25 1545.03 Q1229.47 1545.58 1231.95 1545.58 Q1235.95 1545.58 1238.29 1543.48 Q1240.63 1541.37 1240.63 1537.76 Q1240.63 1534.15 1238.29 1532.04 Q1235.95 1529.94 1231.95 1529.94 Q1230.07 1529.94 1228.2 1530.35 Q1226.35 1530.77 1224.4 1531.65 L1224.4 1514.29 Z" fill="#000000" fill-rule="nonzero" fill-opacity="1" /><path clip-path="url(#clip690)" d="M1264.52 1517.37 Q1260.91 1517.37 1259.08 1520.93 Q1257.27 1524.47 1257.27 1531.6 Q1257.27 1538.71 1259.08 1542.27 Q1260.91 1545.82 1264.52 1545.82 Q1268.15 1545.82 1269.96 1542.27 Q1271.79 1538.71 1271.79 1531.6 Q1271.79 1524.47 1269.96 1520.93 Q1268.15 1517.37 1264.52 1517.37 M1264.52 1513.66 Q1270.33 1513.66 1273.38 1518.27 Q1276.46 1522.85 1276.46 1531.6 Q1276.46 1540.33 1273.38 1544.94 Q1270.33 1549.52 1264.52 1549.52 Q1258.71 1549.52 1255.63 1544.94 Q1252.57 1540.33 1252.57 1531.6 Q1252.57 1522.85 1255.63 1518.27 Q1258.71 1513.66 1264.52 1513.66 Z" fill="#000000" fill-rule="nonzero" fill-opacity="1" /><path clip-path="url(#clip690)" d="M1294.68 1517.37 Q1291.07 1517.37 1289.24 1520.93 Q1287.44 1524.47 1287.44 1531.6 Q1287.44 1538.71 1289.24 1542.27 Q1291.07 1545.82 1294.68 1545.82 Q1298.31 1545.82 1300.12 1542.27 Q1301.95 1538.71 1301.95 1531.6 Q1301.95 1524.47 1300.12 1520.93 Q1298.31 1517.37 1294.68 1517.37 M1294.68 1513.66 Q1300.49 1513.66 1303.55 1518.27 Q1306.62 1522.85 1306.62 1531.6 Q1306.62 1540.33 1303.55 1544.94 Q1300.49 1549.52 1294.68 1549.52 Q1288.87 1549.52 1285.79 1544.94 Q1282.74 1540.33 1282.74 1531.6 Q1282.74 1522.85 1285.79 1518.27 Q1288.87 1513.66 1294.68 1513.66 Z" fill="#000000" fill-rule="nonzero" fill-opacity="1" /><path clip-path="url(#clip690)" d="M1736.28 1514.29 L1758.51 1514.29 L1758.51 1516.28 L1745.96 1548.85 L1741.08 1548.85 L1752.88 1518.22 L1736.28 1518.22 L1736.28 1514.29 Z" fill="#000000" fill-rule="nonzero" fill-opacity="1" /><path clip-path="url(#clip690)" d="M1767.67 1514.29 L1786.03 1514.29 L1786.03 1518.22 L1771.95 1518.22 L1771.95 1526.7 Q1772.97 1526.35 1773.99 1526.19 Q1775.01 1526 1776.03 1526 Q1781.82 1526 1785.2 1529.17 Q1788.57 1532.34 1788.57 1537.76 Q1788.57 1543.34 1785.1 1546.44 Q1781.63 1549.52 1775.31 1549.52 Q1773.14 1549.52 1770.87 1549.15 Q1768.62 1548.78 1766.21 1548.04 L1766.21 1543.34 Q1768.3 1544.47 1770.52 1545.03 Q1772.74 1545.58 1775.22 1545.58 Q1779.22 1545.58 1781.56 1543.48 Q1783.9 1541.37 1783.9 1537.76 Q1783.9 1534.15 1781.56 1532.04 Q1779.22 1529.94 1775.22 1529.94 Q1773.34 1529.94 1771.47 1530.35 Q1769.62 1530.77 1767.67 1531.65 L1767.67 1514.29 Z" fill="#000000" fill-rule="nonzero" fill-opacity="1" /><path clip-path="url(#clip690)" d="M1807.79 1517.37 Q1804.18 1517.37 1802.35 1520.93 Q1800.54 1524.47 1800.54 1531.6 Q1800.54 1538.71 1802.35 1542.27 Q1804.18 1545.82 1807.79 1545.82 Q1811.42 1545.82 1813.23 1542.27 Q1815.06 1538.71 1815.06 1531.6 Q1815.06 1524.47 1813.23 1520.93 Q1811.42 1517.37 1807.79 1517.37 M1807.79 1513.66 Q1813.6 1513.66 1816.65 1518.27 Q1819.73 1522.85 1819.73 1531.6 Q1819.73 1540.33 1816.65 1544.94 Q1813.6 1549.52 1807.79 1549.52 Q1801.98 1549.52 1798.9 1544.94 Q1795.84 1540.33 1795.84 1531.6 Q1795.84 1522.85 1798.9 1518.27 Q1801.98 1513.66 1807.79 1513.66 Z" fill="#000000" fill-rule="nonzero" fill-opacity="1" /><path clip-path="url(#clip690)" d="M2235.76 1544.91 L2243.4 1544.91 L2243.4 1518.55 L2235.09 1520.21 L2235.09 1515.95 L2243.35 1514.29 L2248.02 1514.29 L2248.02 1544.91 L2255.66 1544.91 L2255.66 1548.85 L2235.76 1548.85 L2235.76 1544.91 Z" fill="#000000" fill-rule="nonzero" fill-opacity="1" /><path clip-path="url(#clip690)" d="M2275.11 1517.37 Q2271.5 1517.37 2269.67 1520.93 Q2267.86 1524.47 2267.86 1531.6 Q2267.86 1538.71 2269.67 1542.27 Q2271.5 1545.82 2275.11 1545.82 Q2278.74 1545.82 2280.55 1542.27 Q2282.38 1538.71 2282.38 1531.6 Q2282.38 1524.47 2280.55 1520.93 Q2278.74 1517.37 2275.11 1517.37 M2275.11 1513.66 Q2280.92 1513.66 2283.97 1518.27 Q2287.05 1522.85 2287.05 1531.6 Q2287.05 1540.33 2283.97 1544.94 Q2280.92 1549.52 2275.11 1549.52 Q2269.3 1549.52 2266.22 1544.94 Q2263.16 1540.33 2263.16 1531.6 Q2263.16 1522.85 2266.22 1518.27 Q2269.3 1513.66 2275.11 1513.66 Z" fill="#000000" fill-rule="nonzero" fill-opacity="1" /><path clip-path="url(#clip690)" d="M2305.27 1517.37 Q2301.66 1517.37 2299.83 1520.93 Q2298.02 1524.47 2298.02 1531.6 Q2298.02 1538.71 2299.83 1542.27 Q2301.66 1545.82 2305.27 1545.82 Q2308.9 1545.82 2310.71 1542.27 Q2312.54 1538.71 2312.54 1531.6 Q2312.54 1524.47 2310.71 1520.93 Q2308.9 1517.37 2305.27 1517.37 M2305.27 1513.66 Q2311.08 1513.66 2314.14 1518.27 Q2317.21 1522.85 2317.21 1531.6 Q2317.21 1540.33 2314.14 1544.94 Q2311.08 1549.52 2305.27 1549.52 Q2299.46 1549.52 2296.38 1544.94 Q2293.33 1540.33 2293.33 1531.6 Q2293.33 1522.85 2296.38 1518.27 Q2299.46 1513.66 2305.27 1513.66 Z" fill="#000000" fill-rule="nonzero" fill-opacity="1" /><path clip-path="url(#clip690)" d="M2335.43 1517.37 Q2331.82 1517.37 2329.99 1520.93 Q2328.19 1524.47 2328.19 1531.6 Q2328.19 1538.71 2329.99 1542.27 Q2331.82 1545.82 2335.43 1545.82 Q2339.07 1545.82 2340.87 1542.27 Q2342.7 1538.71 2342.7 1531.6 Q2342.7 1524.47 2340.87 1520.93 Q2339.07 1517.37 2335.43 1517.37 M2335.43 1513.66 Q2341.24 1513.66 2344.3 1518.27 Q2347.38 1522.85 2347.38 1531.6 Q2347.38 1540.33 2344.3 1544.94 Q2341.24 1549.52 2335.43 1549.52 Q2329.62 1549.52 2326.54 1544.94 Q2323.49 1540.33 2323.49 1531.6 Q2323.49 1522.85 2326.54 1518.27 Q2329.62 1513.66 2335.43 1513.66 Z" fill="#000000" fill-rule="nonzero" fill-opacity="1" /><polyline clip-path="url(#clip690)" style="stroke:#000000; stroke-linecap:round; stroke-linejoin:round; stroke-width:4; stroke-opacity:1; fill:none" points="178.867,1486.45 178.867,847.244 "/>
<polyline clip-path="url(#clip690)" style="stroke:#000000; stroke-linecap:round; stroke-linejoin:round; stroke-width:4; stroke-opacity:1; fill:none" points="178.867,1486.45 197.764,1486.45 "/>
<polyline clip-path="url(#clip690)" style="stroke:#000000; stroke-linecap:round; stroke-linejoin:round; stroke-width:4; stroke-opacity:1; fill:none" points="178.867,1326.65 197.764,1326.65 "/>
<polyline clip-path="url(#clip690)" style="stroke:#000000; stroke-linecap:round; stroke-linejoin:round; stroke-width:4; stroke-opacity:1; fill:none" points="178.867,1166.85 197.764,1166.85 "/>
<polyline clip-path="url(#clip690)" style="stroke:#000000; stroke-linecap:round; stroke-linejoin:round; stroke-width:4; stroke-opacity:1; fill:none" points="178.867,1007.05 197.764,1007.05 "/>
<polyline clip-path="url(#clip690)" style="stroke:#000000; stroke-linecap:round; stroke-linejoin:round; stroke-width:4; stroke-opacity:1; fill:none" points="178.867,847.244 197.764,847.244 "/>
<path clip-path="url(#clip690)" d="M50.9921 1486.9 L80.6679 1486.9 L80.6679 1490.83 L50.9921 1490.83 L50.9921 1486.9 Z" fill="#000000" fill-rule="nonzero" fill-opacity="1" /><path clip-path="url(#clip690)" d="M91.5706 1499.79 L99.2095 1499.79 L99.2095 1473.43 L90.8993 1475.09 L90.8993 1470.83 L99.1632 1469.17 L103.839 1469.17 L103.839 1499.79 L111.478 1499.79 L111.478 1503.73 L91.5706 1503.73 L91.5706 1499.79 Z" fill="#000000" fill-rule="nonzero" fill-opacity="1" /><path clip-path="url(#clip690)" d="M130.922 1472.25 Q127.311 1472.25 125.482 1475.81 Q123.677 1479.35 123.677 1486.48 Q123.677 1493.59 125.482 1497.15 Q127.311 1500.7 130.922 1500.7 Q134.556 1500.7 136.362 1497.15 Q138.191 1493.59 138.191 1486.48 Q138.191 1479.35 136.362 1475.81 Q134.556 1472.25 130.922 1472.25 M130.922 1468.54 Q136.732 1468.54 139.788 1473.15 Q142.867 1477.73 142.867 1486.48 Q142.867 1495.21 139.788 1499.82 Q136.732 1504.4 130.922 1504.4 Q125.112 1504.4 122.033 1499.82 Q118.978 1495.21 118.978 1486.48 Q118.978 1477.73 122.033 1473.15 Q125.112 1468.54 130.922 1468.54 Z" fill="#000000" fill-rule="nonzero" fill-opacity="1" /><path clip-path="url(#clip690)" d="M82.1494 1327.1 L111.825 1327.1 L111.825 1331.03 L82.1494 1331.03 L82.1494 1327.1 Z" fill="#000000" fill-rule="nonzero" fill-opacity="1" /><path clip-path="url(#clip690)" d="M121.964 1309.37 L140.32 1309.37 L140.32 1313.3 L126.246 1313.3 L126.246 1321.77 Q127.265 1321.43 128.283 1321.27 Q129.302 1321.08 130.32 1321.08 Q136.107 1321.08 139.487 1324.25 Q142.867 1327.42 142.867 1332.84 Q142.867 1338.42 139.394 1341.52 Q135.922 1344.6 129.603 1344.6 Q127.427 1344.6 125.158 1344.23 Q122.913 1343.86 120.506 1343.12 L120.506 1338.42 Q122.589 1339.55 124.811 1340.11 Q127.033 1340.66 129.51 1340.66 Q133.515 1340.66 135.853 1338.56 Q138.191 1336.45 138.191 1332.84 Q138.191 1329.23 135.853 1327.12 Q133.515 1325.01 129.51 1325.01 Q127.635 1325.01 125.76 1325.43 Q123.908 1325.85 121.964 1326.73 L121.964 1309.37 Z" fill="#000000" fill-rule="nonzero" fill-opacity="1" /><path clip-path="url(#clip690)" d="M130.922 1152.64 Q127.311 1152.64 125.482 1156.21 Q123.677 1159.75 123.677 1166.88 Q123.677 1173.99 125.482 1177.55 Q127.311 1181.09 130.922 1181.09 Q134.556 1181.09 136.362 1177.55 Q138.191 1173.99 138.191 1166.88 Q138.191 1159.75 136.362 1156.21 Q134.556 1152.64 130.922 1152.64 M130.922 1148.94 Q136.732 1148.94 139.788 1153.55 Q142.867 1158.13 142.867 1166.88 Q142.867 1175.61 139.788 1180.21 Q136.732 1184.8 130.922 1184.8 Q125.112 1184.8 122.033 1180.21 Q118.978 1175.61 118.978 1166.88 Q118.978 1158.13 122.033 1153.55 Q125.112 1148.94 130.922 1148.94 Z" fill="#000000" fill-rule="nonzero" fill-opacity="1" /><path clip-path="url(#clip690)" d="M121.964 989.765 L140.32 989.765 L140.32 993.7 L126.246 993.7 L126.246 1002.17 Q127.265 1001.83 128.283 1001.66 Q129.302 1001.48 130.32 1001.48 Q136.107 1001.48 139.487 1004.65 Q142.867 1007.82 142.867 1013.24 Q142.867 1018.82 139.394 1021.92 Q135.922 1025 129.603 1025 Q127.427 1025 125.158 1024.63 Q122.913 1024.26 120.506 1023.51 L120.506 1018.82 Q122.589 1019.95 124.811 1020.51 Q127.033 1021.06 129.51 1021.06 Q133.515 1021.06 135.853 1018.95 Q138.191 1016.85 138.191 1013.24 Q138.191 1009.63 135.853 1007.52 Q133.515 1005.41 129.51 1005.41 Q127.635 1005.41 125.76 1005.83 Q123.908 1006.25 121.964 1007.13 L121.964 989.765 Z" fill="#000000" fill-rule="nonzero" fill-opacity="1" /><path clip-path="url(#clip690)" d="M91.5706 860.589 L99.2095 860.589 L99.2095 834.223 L90.8993 835.89 L90.8993 831.631 L99.1632 829.964 L103.839 829.964 L103.839 860.589 L111.478 860.589 L111.478 864.524 L91.5706 864.524 L91.5706 860.589 Z" fill="#000000" fill-rule="nonzero" fill-opacity="1" /><path clip-path="url(#clip690)" d="M130.922 833.043 Q127.311 833.043 125.482 836.608 Q123.677 840.149 123.677 847.279 Q123.677 854.385 125.482 857.95 Q127.311 861.492 130.922 861.492 Q134.556 861.492 136.362 857.95 Q138.191 854.385 138.191 847.279 Q138.191 840.149 136.362 836.608 Q134.556 833.043 130.922 833.043 M130.922 829.339 Q136.732 829.339 139.788 833.946 Q142.867 838.529 142.867 847.279 Q142.867 856.006 139.788 860.612 Q136.732 865.195 130.922 865.195 Q125.112 865.195 122.033 860.612 Q118.978 856.006 118.978 847.279 Q118.978 838.529 122.033 833.946 Q125.112 829.339 130.922 829.339 Z" fill="#000000" fill-rule="nonzero" fill-opacity="1" /><polyline clip-path="url(#clip693)" style="stroke:#009af9; stroke-linecap:round; stroke-linejoin:round; stroke-width:4; stroke-opacity:1; fill:none" points="240.392,1134.89 242.445,1116.5 244.498,1125.01 246.55,1131.1 248.603,1165.91 250.656,1162.78 252.709,1172.77 254.762,1183.18 256.815,1007.08 258.868,1049.81 260.921,1145.11 262.974,836.3 265.027,1199.59 267.079,1225.04 269.132,1006 271.185,973.022 273.238,1117.24 275.291,1218.07 277.344,1110.87 279.397,1036.09 281.45,1464.34 283.503,1176.74 285.555,1162.95 287.608,1149.36 289.661,1478.52 291.714,1265.06 293.767,1173.45 295.82,1190.7 297.873,1245.3 299.926,1201.79 301.979,1085.04 304.031,1216.48 306.084,1168.03 308.137,1123.46 310.19,1087.43 312.243,1939.64 314.296,103.239 316.349,1112.69 318.402,1181.91 320.455,1116.33 322.507,1162.14 324.56,1162.42 326.613,1168.51 328.666,1163.22 330.719,1386.03 332.772,1129.88 334.825,1099 336.878,1169.44 338.931,1170.96 340.984,1160.5 343.036,1181.18 345.089,940.327 347.142,955.004 349.195,1070.67 351.248,1131.57 353.301,1131.85 355.354,1161.53 357.407,1149.98 359.46,1192.48 361.512,1151.98 363.565,1112.57 365.618,1102.96 367.671,1171.02 369.724,1152.58 371.777,1138.08 373.83,1189.74 375.883,1192.84 377.936,1193.52 379.988,1181.29 382.041,1345.95 384.094,1282.7 386.147,1061.53 388.2,1181.42 390.253,1197.97 392.306,1099.43 394.359,1225.98 396.412,1175.88 398.464,1172.63 400.517,1265.2 402.57,1230.96 404.623,1199.62 406.676,1197.52 408.729,1171.31 410.782,1166.7 412.835,1158.33 414.888,1128.99 416.94,1150.49 418.993,1180.02 421.046,1181 423.099,1189.83 425.152,1189.72 427.205,1196.83 429.258,1181.25 431.311,1110.02 433.364,1150.41 435.417,1240.46 437.469,1233.82 439.522,1259.5 441.575,1223.56 443.628,1123.66 445.681,1048.89 447.734,1250.77 449.787,1133.54 451.84,1193.88 453.893,1200.8 455.945,1056.1 457.998,1184.96 460.051,1154.83 462.104,1251.48 464.157,1179.07 466.21,1035.77 468.263,1254.89 470.316,1183.39 472.369,1177.76 474.421,1211.91 476.474,1327.94 478.527,1480.53 480.58,544.848 482.633,1088.6 484.686,1192.74 486.739,1202.87 488.792,1112.12 490.845,1138.04 492.897,1135.45 494.95,1135.92 497.003,1163.06 499.056,1145.1 501.109,1168.86 503.162,1143.1 505.215,1152.45 507.268,1084.7 509.321,1196.35 511.374,1121.23 513.426,1181.69 515.479,1155.43 517.532,1129.98 519.585,1170.77 521.638,1151.68 523.691,1177.16 525.744,1189.64 527.797,1184.24 529.85,1228.5 531.902,1149.99 533.955,1145.17 536.008,1127.73 538.061,1183.69 540.114,1180.72 542.167,1179.06 544.22,1138.99 546.273,1170.71 548.326,1062.95 550.378,1123.99 552.431,1187.89 554.484,1124.1 556.537,1115.23 558.59,1197.07 560.643,1262.86 562.696,1227.04 564.749,1117.24 566.802,1301.08 568.854,1176.49 570.907,1201.36 572.96,1195.56 575.013,1156.93 577.066,1128.73 579.119,1109.27 581.172,1098.51 583.225,1109.55 585.278,1063.91 587.331,932.968 589.383,1147.26 591.436,1176.07 593.489,1191.98 595.542,1083.88 597.595,1185.3 599.648,1054.03 601.701,1127.73 603.754,1235.85 605.807,1125.29 607.859,1207.86 609.912,1215.88 611.965,1144.43 614.018,1169.98 616.071,1187.16 618.124,1116.63 620.177,1222.66 622.23,1177.95 624.283,1191.02 626.335,1175.22 628.388,1188.03 630.441,1185.86 632.494,1131.59 634.547,1191.8 636.6,1236.31 638.653,1449.72 640.706,1189.69 642.759,1794.25 644.811,824.202 646.864,1303.55 648.917,1210.17 650.97,1155.57 653.023,1089.38 655.076,1326.24 657.129,1218.22 659.182,1204.73 661.235,1201.48 663.288,1163.24 665.34,1170.54 667.393,1164.87 669.446,1167.44 671.499,1135.9 673.552,1130.4 675.605,1124.64 677.658,1163.83 679.711,1190.44 681.764,1180.44 683.816,1144.89 685.869,1257.17 687.922,1050.08 689.975,1217.96 692.028,1177.87 694.081,1069.86 696.134,1147.15 698.187,1303.09 700.24,1328.09 702.292,1234.66 704.345,986.915 706.398,1170.18 708.451,1187.67 710.504,1203.39 712.557,1152.76 714.61,1203.17 716.663,1143.99 718.716,1156.13 720.768,1187.52 722.821,1015.83 724.874,1239.08 726.927,1336.87 728.98,990.61 731.033,1107.32 733.086,1171.73 735.139,1149.9 737.192,1177.64 739.245,1213.36 741.297,1430.25 743.35,1218.68 745.403,1303.69 747.456,1201.88 749.509,1169.94 751.562,1162.39 753.615,1170.34 755.668,1185.77 757.721,1128.77 759.773,1233.39 761.826,1177.29 763.879,1153.08 765.932,1198.46 767.985,1144.83 770.038,1218.82 772.091,1115.02 774.144,1252.13 776.197,1149.86 778.249,1253.03 780.302,1106.38 782.355,1164.02 784.408,1470.48 786.461,800.577 788.514,776.58 790.567,1019.38 792.62,1122.52 794.673,1299.28 796.725,1160.85 798.778,1276.03 800.831,1148.01 802.884,962.714 804.937,1327.96 806.99,1125.46 809.043,1134.64 811.096,1150.05 813.149,1177.32 815.202,1216.78 817.254,1173.95 819.307,1163.8 821.36,1161.75 823.413,1212.3 825.466,1252.84 827.519,1334.19 829.572,1255.92 831.625,1443.48 833.678,1687.39 835.73,1942.15 837.783,245.043 839.836,1028.52 841.889,973.362 843.942,1177.95 845.995,1183.01 848.048,1112.4 850.101,41.1331 852.154,1796.01 854.206,1922.42 856.259,1229.67 858.312,1279.9 860.365,1184.2 862.418,1181.32 864.471,1163.73 866.524,1172.82 868.577,1217.08 870.63,1249.13 872.682,1160.87 874.735,1134.47 876.788,1146.74 878.841,1212.06 880.894,1184.72 882.947,1181.09 885,1156.61 887.053,1169.74 889.106,1200.41 891.159,1095.94 893.211,1057.44 895.264,1306.79 897.317,962.196 899.37,1370.03 901.423,991.067 903.476,1148.02 905.529,1142.34 907.582,1149.62 909.635,1177.98 911.687,1121.19 913.74,1194.54 915.793,1184.08 917.846,1116.46 919.899,1164.6 921.952,1200 924.005,1111.15 926.058,1203.84 928.111,1202.05 930.163,1150.1 932.216,1195.65 934.269,1203.7 936.322,1139.77 938.375,1135.74 940.428,1194.06 942.481,1139.19 944.534,1152.06 946.587,1169.5 948.639,1156.7 950.692,1142.35 952.745,1161.03 954.798,1170.43 956.851,1160.13 958.904,1204.66 960.957,1184.89 963.01,1095.48 965.063,1192.39 967.116,1469.21 969.168,1309.15 971.221,376.241 973.274,-155.314 975.327,1611.57 977.38,645.844 979.433,1550.97 981.486,1544.97 983.539,600.105 985.592,1158.38 987.644,1157.65 989.697,1163.65 991.75,1168 993.803,1138.8 995.856,1138.44 997.909,1171.39 999.962,1170.58 1002.01,1078.75 1004.07,1207.13 1006.12,1255.05 1008.17,1213.38 1010.23,1084.69 1012.28,1167.14 1014.33,1183.82 1016.38,1175.12 1018.44,1163.57 1020.49,1161.45 1022.54,1150.48 1024.6,1187.69 1026.65,1146.64 1028.7,1148.51 1030.76,1178.5 1032.81,1199.74 1034.86,1148.96 1036.91,1144.98 1038.97,1176.78 1041.02,1112.86 1043.07,1110.09 1045.13,1148.51 1047.18,1116.43 1049.23,1273.63 1051.28,1148.63 1053.34,1183.43 1055.39,1191.06 1057.44,1178.2 1059.5,1157.98 1061.55,1307.18 1063.6,1283.22 1065.65,1110.99 1067.71,1085.83 1069.76,1019.9 1071.81,1151.23 1073.87,1162.56 1075.92,1166.54 1077.97,1165.34 1080.02,1182.23 1082.08,1177.01 1084.13,1157.79 1086.18,1225.2 1088.24,1198.18 1090.29,1166.24 1092.34,1199.22 1094.39,1175.07 1096.45,1175.48 1098.5,1178.45 1100.55,1169.77 1102.61,1118.31 1104.66,1158.13 1106.71,1139.29 1108.77,1144.16 1110.82,1209.05 1112.87,1236.29 1114.92,1129.9 1116.98,1162.95 1119.03,1190.8 1121.08,1179.69 1123.14,1181.84 1125.19,1188.22 1127.24,1183.69 1129.29,1063.25 1131.35,1086.29 1133.4,1180.99 1135.45,1141.42 1137.51,1215 1139.56,1206.25 1141.61,1127.6 1143.66,1170.16 1145.72,1166.15 1147.77,1165.3 1149.82,1170.16 1151.88,1169.51 1153.93,1148.71 1155.98,1131.19 1158.03,1171.51 1160.09,1204.16 1162.14,1132.43 1164.19,1192.07 1166.25,1141.34 1168.3,1039.79 1170.35,755.669 1172.4,1749.84 1174.46,1099.82 1176.51,1012.91 1178.56,1295.47 1180.62,392.526 1182.67,-1167.23 1184.72,4124.33 1186.77,2969.51 1188.83,856.366 1190.88,916.98 1192.93,945.224 1194.99,1057.27 1197.04,1144.2 1199.09,1191.98 1201.15,1133.65 1203.2,1127.39 1205.25,1106.21 1207.3,1225.76 1209.36,1253.59 1211.41,1194.43 1213.46,1153.51 1215.52,1183.62 1217.57,1291.14 1219.62,1126.77 1221.67,978.583 1223.73,604.786 1225.78,1110.83 1227.83,1196.47 1229.89,1018.46 1231.94,1169.73 1233.99,1167.51 1236.04,1173.75 1238.1,1089.63 1240.15,1205.42 1242.2,1325.51 1244.26,1097.87 1246.31,1185.36 1248.36,1218.57 1250.41,1107.79 1252.47,1151.45 1254.52,1117.38 1256.57,1146.06 1258.63,1146.95 1260.68,1198.86 1262.73,1150.43 1264.78,1222.86 1266.84,1142.58 1268.89,1135.64 1270.94,1130.84 1273,1158.74 1275.05,1134.4 1277.1,1160.17 1279.16,1153.57 1281.21,1129.93 1283.26,1150.98 1285.31,1174.71 1287.37,1160.81 1289.42,1222.49 1291.47,1120.6 1293.53,1171.03 1295.58,1185.35 1297.63,1157.64 1299.68,1217.5 1301.74,1121 1303.79,1127.05 1305.84,1180.18 1307.9,1172.11 1309.95,1147.91 1312,1182.53 1314.05,1168.6 1316.11,1182.41 1318.16,1222.48 1320.21,1481.82 1322.27,1252.87 1324.32,1090.79 1326.37,1084.41 1328.42,1099.13 1330.48,1233.2 1332.53,1192.25 1334.58,858.208 1336.64,1211.08 1338.69,1155.06 1340.74,1154.19 1342.79,1139.42 1344.85,1188.72 1346.9,1190.99 1348.95,1134.64 1351.01,1206.04 1353.06,1209.13 1355.11,1171.1 1357.16,1245.08 1359.22,1237.07 1361.27,1212.63 1363.32,1198.08 1365.38,1151.1 1367.43,1167.23 1369.48,1086.7 1371.54,1247.76 1373.59,428.789 1375.64,1700.22 1377.69,1031 1379.75,1168.05 1381.8,1157.15 1383.85,1084.72 1385.91,1173.74 1387.96,1075.5 1390.01,1173.6 1392.06,1186.07 1394.12,1086.25 1396.17,1128.99 1398.22,1142.56 1400.28,1163.83 1402.33,1239.34 1404.38,1095.27 1406.43,1146.39 1408.49,1103.34 1410.54,1838.29 1412.59,243.565 1414.65,456.693 1416.7,612.377 1418.75,1047.33 1420.8,1133.09 1422.86,1149.89 1424.91,1179.5 1426.96,1077.02 1429.02,1322.24 1431.07,1427.33 1433.12,745.354 1435.17,575.742 1437.23,1194.79 1439.28,1138.3 1441.33,1144.01 1443.39,1116.77 1445.44,1122.74 1447.49,1178.53 1449.55,1184.47 1451.6,1181.61 1453.65,1071.01 1455.7,1187.94 1457.76,1213.3 1459.81,1175.36 1461.86,1009.76 1463.92,1290.62 1465.97,1220.53 1468.02,1229.35 1470.07,762.948 1472.13,506.376 1474.18,1235.85 1476.23,-1831.55 1478.29,5960.99 1480.34,4276.91 1482.39,-3332.11 1484.44,-10300.7 1486.5,-6260.75 1488.55,1147.07 1490.6,1143.91 1492.66,1181.53 1494.71,1138.92 1496.76,1230.33 1498.81,1240.47 1500.87,1231.61 1502.92,1235.21 1504.97,562.893 1507.03,1168.24 1509.08,1024.13 1511.13,1420.94 1513.18,1132.01 1515.24,1168.46 1517.29,1169.47 1519.34,1178.15 1521.4,1154.81 1523.45,1126.23 1525.5,1164.52 1527.55,1172.15 1529.61,1237.02 1531.66,1150.74 1533.71,1158.21 1535.77,1172.44 1537.82,1153.62 1539.87,1208.09 1541.93,1117.47 1543.98,1133.02 1546.03,1181.92 1548.08,1148.57 1550.14,1038.84 1552.19,1289.48 1554.24,1236.73 1556.3,1086.74 1558.35,1199.82 1560.4,1113.95 1562.45,1294.38 1564.51,1190.53 1566.56,1193.27 1568.61,1329.51 1570.67,1143.82 1572.72,1245.53 1574.77,1082.16 1576.82,1245.12 1578.88,1214.84 1580.93,1128.96 1582.98,1194.55 1585.04,1139.63 1587.09,1211.78 1589.14,1160.32 1591.19,1203.07 1593.25,1191.58 1595.3,1121.47 1597.35,885.635 1599.41,1396.29 1601.46,1059.98 1603.51,1221 1605.56,1247.59 1607.62,1134.44 1609.67,1135.39 1611.72,1143.06 1613.78,1142.34 1615.83,962.67 1617.88,1222.68 1619.94,1197.62 1621.99,1159.25 1624.04,1168.86 1626.09,1162.12 1628.15,1322.78 1630.2,800.748 1632.25,1610.48 1634.31,1123.55 1636.36,1102.48 1638.41,1128.43 1640.46,1125.95 1642.52,1194.38 1644.57,1141.98 1646.62,1150.49 1648.68,1190.05 1650.73,1145.46 1652.78,1057.75 1654.83,1087.8 1656.89,937.393 1658.94,1197.15 1660.99,1190.3 1663.05,1182.33 1665.1,1133.49 1667.15,1190.66 1669.2,1025.15 1671.26,1188.16 1673.31,1151.58 1675.36,1142.35 1677.42,1108.11 1679.47,1215.7 1681.52,1128 1683.57,1132.73 1685.63,1181.77 1687.68,974.966 1689.73,1116.57 1691.79,1213.35 1693.84,1147.04 1695.89,1156.05 1697.94,1157.21 1700,1103.7 1702.05,1128.96 1704.1,1207.91 1706.16,1149.29 1708.21,1162.54 1710.26,1128.48 1712.32,1285.78 1714.37,1184.55 1716.42,1148.09 1718.47,1198.38 1720.53,1173.5 1722.58,1169.93 1724.63,1172.45 1726.69,1289.02 1728.74,1061.48 1730.79,1101.03 1732.84,1141.38 1734.9,1166.63 1736.95,1142.24 1739,1072.94 1741.06,1279.58 1743.11,1185.67 1745.16,1181.06 1747.21,1180.91 1749.27,1147.03 1751.32,1154.27 1753.37,1158.49 1755.43,1168.3 1757.48,1152.81 1759.53,1046.99 1761.58,1025.98 1763.64,1120.49 1765.69,1134.18 1767.74,1181.41 1769.8,1189.71 1771.85,1163.57 1773.9,1157.77 1775.95,1291.21 1778.01,1196.07 1780.06,1300.53 1782.11,399.577 1784.17,-419.055 1786.22,2238.68 1788.27,-5724.57 1790.33,3578.63 1792.38,1062.9 1794.43,7230.84 1796.48,1935.47 1798.54,1711.06 1800.59,1621.41 1802.64,792.313 1804.7,1202.41 1806.75,1087.62 1808.8,1391.98 1810.85,924.73 1812.91,1100.07 1814.96,1231.28 1817.01,1073.71 1819.07,1388.38 1821.12,1319.55 1823.17,1179.92 1825.22,1156.92 1827.28,1154.29 1829.33,1204.02 1831.38,1188.97 1833.44,1147.02 1835.49,1152.41 1837.54,1156.79 1839.59,1145.72 1841.65,1201.11 1843.7,1189.74 1845.75,1219.58 1847.81,1124.22 1849.86,1217.35 1851.91,1240.44 1853.96,1211.87 1856.02,1172.95 1858.07,1179.67 1860.12,1110.8 1862.18,999.65 1864.23,1496.94 1866.28,955.405 1868.34,849.188 1870.39,1283.01 1872.44,1133.52 1874.49,1150.52 1876.55,1164.11 1878.6,1341.73 1880.65,1080.87 1882.71,1197.98 1884.76,1147.31 1886.81,1106.66 1888.86,1179.18 1890.92,1083.97 1892.97,1261.28 1895.02,936.566 1897.08,4728.18 1899.13,3906.23 1901.18,5423.78 1903.23,-4512.03 1905.29,4895.12 1907.34,4284.26 1909.39,849.312 1911.45,1156.4 1913.5,1394.97 1915.55,1155.55 1917.6,1896.11 1919.66,901.795 1921.71,1390.52 1923.76,1003.15 1925.82,872.749 1927.87,1490.55 1929.92,1144.68 1931.97,1176.31 1934.03,1170.05 1936.08,1154.33 1938.13,1148.5 1940.19,1152.58 1942.24,1100.05 1944.29,1340.99 1946.34,1329.58 1948.4,1403.15 1950.45,1257.72 1952.5,1156.98 1954.56,1127.78 1956.61,1139.9 1958.66,1277.89 1960.72,1239.8 1962.77,1101.63 1964.82,1163.23 1966.87,1224.84 1968.93,1165.37 1970.98,1124.89 1973.03,1209.91 1975.09,1015.9 1977.14,968.087 1979.19,1038.65 1981.24,1150.72 1983.3,1129.69 1985.35,1190.03 1987.4,1207.1 1989.46,1180.14 1991.51,1150.79 1993.56,1129.95 1995.61,1057.63 1997.67,1183.96 1999.72,1185.62 2001.77,1178.74 2003.83,1267.51 2005.88,1466.27 2007.93,1672.42 2009.98,1082.62 2012.04,1108.04 2014.09,1235.77 2016.14,1175.39 2018.2,1179.09 2020.25,1176.22 2022.3,1136.7 2024.35,1155.07 2026.41,1183.45 2028.46,1150.55 2030.51,1199.91 2032.57,1089.15 2034.62,1318.08 2036.67,1182.37 2038.73,1172.67 2040.78,1178.82 2042.83,1135.69 2044.88,1134.68 2046.94,1164.5 2048.99,1133.86 2051.04,1121.39 2053.1,1156.49 2055.15,1158.1 2057.2,1158.43 2059.25,1212.36 2061.31,1183.74 2063.36,1168.22 2065.41,1183.93 2067.47,1120.62 2069.52,1720.46 2071.57,1234.53 2073.62,1418.01 2075.68,919.409 2077.73,1276.25 2079.78,1100.81 2081.84,1223.86 2083.89,1163.48 2085.94,1172.55 2087.99,1181.51 2090.05,1113.86 2092.1,1083.27 2094.15,1035.96 2096.21,1323.33 2098.26,810.692 2100.31,509.75 2102.36,1808.02 2104.42,1674.91 2106.47,777.986 2108.52,1090.18 2110.58,1169.05 2112.63,1150.84 2114.68,1192.64 2116.73,1179.86 2118.79,1064.48 2120.84,1147.92 2122.89,1791.95 2124.95,1052.55 2127,1106.12 2129.05,1146.49 2131.11,1147.61 2133.16,1160.2 2135.21,1175.45 2137.26,1156.32 2139.32,1150.84 2141.37,1152.03 2143.42,1171.66 2145.48,1165.59 2147.53,1216.42 2149.58,1167.9 2151.63,1187.3 2153.69,1183.66 2155.74,1066.15 2157.79,1092.48 2159.85,1226.63 2161.9,1157.11 2163.95,1178.49 2166,1202.01 2168.06,1101.27 2170.11,1219.71 2172.16,829.014 2174.22,2711.49 2176.27,1093.31 2178.32,1050.75 2180.37,1448.45 2182.43,1157.41 2184.48,790.846 2186.53,1497.12 2188.59,1256.55 2190.64,1129.98 2192.69,1127.05 2194.74,1045.74 2196.8,899.76 2198.85,876.737 2200.9,1140.38 2202.96,1070.05 2205.01,1104.82 2207.06,1167.78 2209.12,1250.44 2211.17,1329.48 2213.22,1024.29 2215.27,1067.36 2217.33,1196.9 2219.38,1169.71 2221.43,1199.67 2223.49,1101.87 2225.54,1143.42 2227.59,1144.6 2229.64,1139.79 2231.7,1224.74 2233.75,1173.17 2235.8,1146.67 2237.86,1109.84 2239.91,1235.18 2241.96,1385.51 2244.01,1143.61 2246.07,1049.22 2248.12,1086.17 2250.17,1215.89 2252.23,1215.21 2254.28,1179.79 2256.33,1139.25 2258.38,1094.54 2260.44,1128.33 2262.49,1105.15 2264.54,1222.81 2266.6,1201.59 2268.65,1284.42 2270.7,1154.01 2272.75,1162.01 2274.81,1315.67 2276.86,1300.22 2278.91,1111.01 2280.97,1051.92 2283.02,980.99 2285.07,1218.41 2287.12,1218.44 2289.18,1061.11 2291.23,1266.24 "/>
<path clip-path="url(#clip690)" d="M251.33 972.231 L588.926 972.231 L588.926 868.551 L251.33 868.551  Z" fill="#ffffff" fill-rule="evenodd" fill-opacity="1"/>
<polyline clip-path="url(#clip690)" style="stroke:#000000; stroke-linecap:round; stroke-linejoin:round; stroke-width:4; stroke-opacity:1; fill:none" points="251.33,972.231 588.926,972.231 588.926,868.551 251.33,868.551 251.33,972.231 "/>
<polyline clip-path="url(#clip690)" style="stroke:#009af9; stroke-linecap:round; stroke-linejoin:round; stroke-width:4; stroke-opacity:1; fill:none" points="275.484,920.391 420.41,920.391 "/>
<path clip-path="url(#clip690)" d="M470.12 932.74 L470.12 923.458 L462.481 923.458 L462.481 919.615 L474.749 919.615 L474.749 934.453 Q472.041 936.375 468.777 937.37 Q465.513 938.342 461.809 938.342 Q453.708 938.342 449.124 933.62 Q444.564 928.875 444.564 920.426 Q444.564 911.953 449.124 907.231 Q453.708 902.486 461.809 902.486 Q465.189 902.486 468.221 903.319 Q471.277 904.153 473.846 905.773 L473.846 910.75 Q471.254 908.551 468.337 907.44 Q465.421 906.328 462.203 906.328 Q455.86 906.328 452.666 909.87 Q449.495 913.412 449.495 920.426 Q449.495 927.416 452.666 930.958 Q455.86 934.5 462.203 934.5 Q464.68 934.5 466.624 934.083 Q468.569 933.643 470.12 932.74 Z" fill="#000000" fill-rule="nonzero" fill-opacity="1" /><path clip-path="url(#clip690)" d="M487.967 906.953 L487.967 919.94 L493.846 919.94 Q497.11 919.94 498.893 918.25 Q500.675 916.56 500.675 913.435 Q500.675 910.333 498.893 908.643 Q497.11 906.953 493.846 906.953 L487.967 906.953 M483.291 903.111 L493.846 903.111 Q499.657 903.111 502.619 905.75 Q505.606 908.365 505.606 913.435 Q505.606 918.551 502.619 921.166 Q499.657 923.782 493.846 923.782 L487.967 923.782 L487.967 937.671 L483.291 937.671 L483.291 903.111 Z" fill="#000000" fill-rule="nonzero" fill-opacity="1" /><path clip-path="url(#clip690)" d="M532.596 904.245 L532.596 908.805 Q529.934 907.532 527.573 906.907 Q525.212 906.282 523.013 906.282 Q519.193 906.282 517.11 907.764 Q515.05 909.245 515.05 911.977 Q515.05 914.268 516.416 915.449 Q517.805 916.606 521.647 917.324 L524.471 917.902 Q529.703 918.898 532.179 921.421 Q534.679 923.921 534.679 928.134 Q534.679 933.157 531.3 935.75 Q527.943 938.342 521.439 938.342 Q518.985 938.342 516.207 937.787 Q513.453 937.231 510.49 936.143 L510.49 931.328 Q513.337 932.926 516.068 933.736 Q518.8 934.546 521.439 934.546 Q525.443 934.546 527.619 932.972 Q529.795 931.398 529.795 928.481 Q529.795 925.935 528.221 924.5 Q526.67 923.064 523.105 922.347 L520.258 921.791 Q515.027 920.75 512.689 918.527 Q510.351 916.305 510.351 912.347 Q510.351 907.764 513.568 905.125 Q516.809 902.486 522.48 902.486 Q524.911 902.486 527.434 902.926 Q529.957 903.366 532.596 904.245 Z" fill="#000000" fill-rule="nonzero" fill-opacity="1" /><path clip-path="url(#clip690)" d="M562.689 904.245 L562.689 908.805 Q560.027 907.532 557.665 906.907 Q555.304 906.282 553.105 906.282 Q549.286 906.282 547.203 907.764 Q545.142 909.245 545.142 911.977 Q545.142 914.268 546.508 915.449 Q547.897 916.606 551.74 917.324 L554.564 917.902 Q559.795 918.898 562.272 921.421 Q564.772 923.921 564.772 928.134 Q564.772 933.157 561.392 935.75 Q558.036 938.342 551.531 938.342 Q549.078 938.342 546.3 937.787 Q543.545 937.231 540.582 936.143 L540.582 931.328 Q543.429 932.926 546.161 933.736 Q548.892 934.546 551.531 934.546 Q555.536 934.546 557.712 932.972 Q559.888 931.398 559.888 928.481 Q559.888 925.935 558.314 924.5 Q556.763 923.064 553.198 922.347 L550.351 921.791 Q545.119 920.75 542.781 918.527 Q540.443 916.305 540.443 912.347 Q540.443 907.764 543.661 905.125 Q546.902 902.486 552.573 902.486 Q555.003 902.486 557.527 902.926 Q560.05 903.366 562.689 904.245 Z" fill="#000000" fill-rule="nonzero" fill-opacity="1" /></svg>
