<?xml version="1.0" encoding="utf-8"?>
<svg xmlns="http://www.w3.org/2000/svg" xmlns:xlink="http://www.w3.org/1999/xlink" width="600" height="400" viewBox="0 0 2400 1600">
<defs>
  <clipPath id="clip000">
    <rect x="0" y="0" width="2400" height="1600"/>
  </clipPath>
</defs>
<path clip-path="url(#clip000)" d="M0 1600 L2400 1600 L2400 0 L0 0  Z" fill="#ffffff" fill-rule="evenodd" fill-opacity="1"/>
<defs>
  <clipPath id="clip001">
    <rect x="480" y="0" width="1681" height="1600"/>
  </clipPath>
</defs>
<path clip-path="url(#clip000)" d="M178.867 686.448 L2352.76 686.448 L2352.76 47.2441 L178.867 47.2441  Z" fill="#ffffff" fill-rule="evenodd" fill-opacity="1"/>
<defs>
  <clipPath id="clip002">
    <rect x="178" y="47" width="2175" height="640"/>
  </clipPath>
</defs>
<polyline clip-path="url(#clip002)" style="stroke:#000000; stroke-linecap:round; stroke-linejoin:round; stroke-width:2; stroke-opacity:0.1; fill:none" points="238.339,686.448 238.339,47.2441 "/>
<polyline clip-path="url(#clip002)" style="stroke:#000000; stroke-linecap:round; stroke-linejoin:round; stroke-width:2; stroke-opacity:0.1; fill:none" points="751.562,686.448 751.562,47.2441 "/>
<polyline clip-path="url(#clip002)" style="stroke:#000000; stroke-linecap:round; stroke-linejoin:round; stroke-width:2; stroke-opacity:0.1; fill:none" points="1264.78,686.448 1264.78,47.2441 "/>
<polyline clip-path="url(#clip002)" style="stroke:#000000; stroke-linecap:round; stroke-linejoin:round; stroke-width:2; stroke-opacity:0.1; fill:none" points="1778.01,686.448 1778.01,47.2441 "/>
<polyline clip-path="url(#clip002)" style="stroke:#000000; stroke-linecap:round; stroke-linejoin:round; stroke-width:2; stroke-opacity:0.1; fill:none" points="2291.23,686.448 2291.23,47.2441 "/>
<polyline clip-path="url(#clip002)" style="stroke:#000000; stroke-linecap:round; stroke-linejoin:round; stroke-width:2; stroke-opacity:0.1; fill:none" points="178.867,686.448 2352.76,686.448 "/>
<polyline clip-path="url(#clip002)" style="stroke:#000000; stroke-linecap:round; stroke-linejoin:round; stroke-width:2; stroke-opacity:0.1; fill:none" points="178.867,526.647 2352.76,526.647 "/>
<polyline clip-path="url(#clip002)" style="stroke:#000000; stroke-linecap:round; stroke-linejoin:round; stroke-width:2; stroke-opacity:0.1; fill:none" points="178.867,366.846 2352.76,366.846 "/>
<polyline clip-path="url(#clip002)" style="stroke:#000000; stroke-linecap:round; stroke-linejoin:round; stroke-width:2; stroke-opacity:0.1; fill:none" points="178.867,207.045 2352.76,207.045 "/>
<polyline clip-path="url(#clip002)" style="stroke:#000000; stroke-linecap:round; stroke-linejoin:round; stroke-width:2; stroke-opacity:0.1; fill:none" points="178.867,47.2441 2352.76,47.2441 "/>
<polyline clip-path="url(#clip000)" style="stroke:#000000; stroke-linecap:round; stroke-linejoin:round; stroke-width:4; stroke-opacity:1; fill:none" points="178.867,686.448 2352.76,686.448 "/>
<polyline clip-path="url(#clip000)" style="stroke:#000000; stroke-linecap:round; stroke-linejoin:round; stroke-width:4; stroke-opacity:1; fill:none" points="238.339,686.448 238.339,667.55 "/>
<polyline clip-path="url(#clip000)" style="stroke:#000000; stroke-linecap:round; stroke-linejoin:round; stroke-width:4; stroke-opacity:1; fill:none" points="751.562,686.448 751.562,667.55 "/>
<polyline clip-path="url(#clip000)" style="stroke:#000000; stroke-linecap:round; stroke-linejoin:round; stroke-width:4; stroke-opacity:1; fill:none" points="1264.78,686.448 1264.78,667.55 "/>
<polyline clip-path="url(#clip000)" style="stroke:#000000; stroke-linecap:round; stroke-linejoin:round; stroke-width:4; stroke-opacity:1; fill:none" points="1778.01,686.448 1778.01,667.55 "/>
<polyline clip-path="url(#clip000)" style="stroke:#000000; stroke-linecap:round; stroke-linejoin:round; stroke-width:4; stroke-opacity:1; fill:none" points="2291.23,686.448 2291.23,667.55 "/>
<path clip-path="url(#clip000)" d="M238.339 717.367 Q234.728 717.367 232.899 720.931 Q231.094 724.473 231.094 731.603 Q231.094 738.709 232.899 742.274 Q234.728 745.815 238.339 745.815 Q241.973 745.815 243.779 742.274 Q245.607 738.709 245.607 731.603 Q245.607 724.473 243.779 720.931 Q241.973 717.367 238.339 717.367 M238.339 713.663 Q244.149 713.663 247.205 718.269 Q250.283 722.853 250.283 731.603 Q250.283 740.329 247.205 744.936 Q244.149 749.519 238.339 749.519 Q232.529 749.519 229.45 744.936 Q226.395 740.329 226.395 731.603 Q226.395 722.853 229.45 718.269 Q232.529 713.663 238.339 713.663 Z" fill="#000000" fill-rule="nonzero" fill-opacity="1" /><path clip-path="url(#clip000)" d="M715.254 744.913 L731.574 744.913 L731.574 748.848 L709.629 748.848 L709.629 744.913 Q712.291 742.158 716.875 737.528 Q721.481 732.876 722.662 731.533 Q724.907 729.01 725.787 727.274 Q726.689 725.515 726.689 723.825 Q726.689 721.07 724.745 719.334 Q722.824 717.598 719.722 717.598 Q717.523 717.598 715.069 718.362 Q712.638 719.126 709.861 720.677 L709.861 715.955 Q712.685 714.82 715.138 714.242 Q717.592 713.663 719.629 713.663 Q725 713.663 728.194 716.348 Q731.388 719.033 731.388 723.524 Q731.388 725.654 730.578 727.575 Q729.791 729.473 727.685 732.066 Q727.106 732.737 724.004 735.954 Q720.902 739.149 715.254 744.913 Z" fill="#000000" fill-rule="nonzero" fill-opacity="1" /><path clip-path="url(#clip000)" d="M741.435 714.288 L759.791 714.288 L759.791 718.223 L745.717 718.223 L745.717 726.695 Q746.736 726.348 747.754 726.186 Q748.773 726.001 749.791 726.001 Q755.578 726.001 758.958 729.172 Q762.337 732.343 762.337 737.76 Q762.337 743.339 758.865 746.44 Q755.393 749.519 749.073 749.519 Q746.898 749.519 744.629 749.149 Q742.384 748.778 739.976 748.038 L739.976 743.339 Q742.06 744.473 744.282 745.028 Q746.504 745.584 748.981 745.584 Q752.985 745.584 755.323 743.478 Q757.661 741.371 757.661 737.76 Q757.661 734.149 755.323 732.042 Q752.985 729.936 748.981 729.936 Q747.106 729.936 745.231 730.353 Q743.379 730.769 741.435 731.649 L741.435 714.288 Z" fill="#000000" fill-rule="nonzero" fill-opacity="1" /><path clip-path="url(#clip000)" d="M781.55 717.367 Q777.939 717.367 776.11 720.931 Q774.305 724.473 774.305 731.603 Q774.305 738.709 776.11 742.274 Q777.939 745.815 781.55 745.815 Q785.184 745.815 786.99 742.274 Q788.819 738.709 788.819 731.603 Q788.819 724.473 786.99 720.931 Q785.184 717.367 781.55 717.367 M781.55 713.663 Q787.36 713.663 790.416 718.269 Q793.495 722.853 793.495 731.603 Q793.495 740.329 790.416 744.936 Q787.36 749.519 781.55 749.519 Q775.74 749.519 772.661 744.936 Q769.606 740.329 769.606 731.603 Q769.606 722.853 772.661 718.269 Q775.74 713.663 781.55 713.663 Z" fill="#000000" fill-rule="nonzero" fill-opacity="1" /><path clip-path="url(#clip000)" d="M1224.4 714.288 L1242.76 714.288 L1242.76 718.223 L1228.69 718.223 L1228.69 726.695 Q1229.7 726.348 1230.72 726.186 Q1231.74 726.001 1232.76 726.001 Q1238.55 726.001 1241.93 729.172 Q1245.31 732.343 1245.31 737.76 Q1245.31 743.339 1241.83 746.44 Q1238.36 749.519 1232.04 749.519 Q1229.87 749.519 1227.6 749.149 Q1225.35 748.778 1222.94 748.038 L1222.94 743.339 Q1225.03 744.473 1227.25 745.028 Q1229.47 745.584 1231.95 745.584 Q1235.95 745.584 1238.29 743.478 Q1240.63 741.371 1240.63 737.76 Q1240.63 734.149 1238.29 732.042 Q1235.95 729.936 1231.95 729.936 Q1230.07 729.936 1228.2 730.353 Q1226.35 730.769 1224.4 731.649 L1224.4 714.288 Z" fill="#000000" fill-rule="nonzero" fill-opacity="1" /><path clip-path="url(#clip000)" d="M1264.52 717.367 Q1260.91 717.367 1259.08 720.931 Q1257.27 724.473 1257.27 731.603 Q1257.27 738.709 1259.08 742.274 Q1260.91 745.815 1264.52 745.815 Q1268.15 745.815 1269.96 742.274 Q1271.79 738.709 1271.79 731.603 Q1271.79 724.473 1269.96 720.931 Q1268.15 717.367 1264.52 717.367 M1264.52 713.663 Q1270.33 713.663 1273.38 718.269 Q1276.46 722.853 1276.46 731.603 Q1276.46 740.329 1273.38 744.936 Q1270.33 749.519 1264.52 749.519 Q1258.71 749.519 1255.63 744.936 Q1252.57 740.329 1252.57 731.603 Q1252.57 722.853 1255.63 718.269 Q1258.71 713.663 1264.52 713.663 Z" fill="#000000" fill-rule="nonzero" fill-opacity="1" /><path clip-path="url(#clip000)" d="M1294.68 717.367 Q1291.07 717.367 1289.24 720.931 Q1287.44 724.473 1287.44 731.603 Q1287.44 738.709 1289.24 742.274 Q1291.07 745.815 1294.68 745.815 Q1298.31 745.815 1300.12 742.274 Q1301.95 738.709 1301.95 731.603 Q1301.95 724.473 1300.12 720.931 Q1298.31 717.367 1294.68 717.367 M1294.68 713.663 Q1300.49 713.663 1303.55 718.269 Q1306.62 722.853 1306.62 731.603 Q1306.62 740.329 1303.55 744.936 Q1300.49 749.519 1294.68 749.519 Q1288.87 749.519 1285.79 744.936 Q1282.74 740.329 1282.74 731.603 Q1282.74 722.853 1285.79 718.269 Q1288.87 713.663 1294.68 713.663 Z" fill="#000000" fill-rule="nonzero" fill-opacity="1" /><path clip-path="url(#clip000)" d="M1736.28 714.288 L1758.51 714.288 L1758.51 716.279 L1745.96 748.848 L1741.08 748.848 L1752.88 718.223 L1736.28 718.223 L1736.28 714.288 Z" fill="#000000" fill-rule="nonzero" fill-opacity="1" /><path clip-path="url(#clip000)" d="M1767.67 714.288 L1786.03 714.288 L1786.03 718.223 L1771.95 718.223 L1771.95 726.695 Q1772.97 726.348 1773.99 726.186 Q1775.01 726.001 1776.03 726.001 Q1781.82 726.001 1785.2 729.172 Q1788.57 732.343 1788.57 737.76 Q1788.57 743.339 1785.1 746.44 Q1781.63 749.519 1775.31 749.519 Q1773.14 749.519 1770.87 749.149 Q1768.62 748.778 1766.21 748.038 L1766.21 743.339 Q1768.3 744.473 1770.52 745.028 Q1772.74 745.584 1775.22 745.584 Q1779.22 745.584 1781.56 743.478 Q1783.9 741.371 1783.9 737.76 Q1783.9 734.149 1781.56 732.042 Q1779.22 729.936 1775.22 729.936 Q1773.34 729.936 1771.47 730.353 Q1769.62 730.769 1767.67 731.649 L1767.67 714.288 Z" fill="#000000" fill-rule="nonzero" fill-opacity="1" /><path clip-path="url(#clip000)" d="M1807.79 717.367 Q1804.18 717.367 1802.35 720.931 Q1800.54 724.473 1800.54 731.603 Q1800.54 738.709 1802.35 742.274 Q1804.18 745.815 1807.79 745.815 Q1811.42 745.815 1813.23 742.274 Q1815.06 738.709 1815.06 731.603 Q1815.06 724.473 1813.23 720.931 Q1811.42 717.367 1807.79 717.367 M1807.79 713.663 Q1813.6 713.663 1816.65 718.269 Q1819.73 722.853 1819.73 731.603 Q1819.73 740.329 1816.65 744.936 Q1813.6 749.519 1807.79 749.519 Q1801.98 749.519 1798.9 744.936 Q1795.84 740.329 1795.84 731.603 Q1795.84 722.853 1798.9 718.269 Q1801.98 713.663 1807.79 713.663 Z" fill="#000000" fill-rule="nonzero" fill-opacity="1" /><path clip-path="url(#clip000)" d="M2235.76 744.913 L2243.4 744.913 L2243.4 718.547 L2235.09 720.214 L2235.09 715.955 L2243.35 714.288 L2248.02 714.288 L2248.02 744.913 L2255.66 744.913 L2255.66 748.848 L2235.76 748.848 L2235.76 744.913 Z" fill="#000000" fill-rule="nonzero" fill-opacity="1" /><path clip-path="url(#clip000)" d="M2275.11 717.367 Q2271.5 717.367 2269.67 720.931 Q2267.86 724.473 2267.86 731.603 Q2267.86 738.709 2269.67 742.274 Q2271.5 745.815 2275.11 745.815 Q2278.74 745.815 2280.55 742.274 Q2282.38 738.709 2282.38 731.603 Q2282.38 724.473 2280.55 720.931 Q2278.74 717.367 2275.11 717.367 M2275.11 713.663 Q2280.92 713.663 2283.97 718.269 Q2287.05 722.853 2287.05 731.603 Q2287.05 740.329 2283.97 744.936 Q2280.92 749.519 2275.11 749.519 Q2269.3 749.519 2266.22 744.936 Q2263.16 740.329 2263.16 731.603 Q2263.16 722.853 2266.22 718.269 Q2269.3 713.663 2275.11 713.663 Z" fill="#000000" fill-rule="nonzero" fill-opacity="1" /><path clip-path="url(#clip000)" d="M2305.27 717.367 Q2301.66 717.367 2299.83 720.931 Q2298.02 724.473 2298.02 731.603 Q2298.02 738.709 2299.83 742.274 Q2301.66 745.815 2305.27 745.815 Q2308.9 745.815 2310.71 742.274 Q2312.54 738.709 2312.54 731.603 Q2312.54 724.473 2310.71 720.931 Q2308.9 717.367 2305.27 717.367 M2305.27 713.663 Q2311.08 713.663 2314.14 718.269 Q2317.21 722.853 2317.21 731.603 Q2317.21 740.329 2314.14 744.936 Q2311.08 749.519 2305.27 749.519 Q2299.46 749.519 2296.38 744.936 Q2293.33 740.329 2293.33 731.603 Q2293.33 722.853 2296.38 718.269 Q2299.46 713.663 2305.27 713.663 Z" fill="#000000" fill-rule="nonzero" fill-opacity="1" /><path clip-path="url(#clip000)" d="M2335.43 717.367 Q2331.82 717.367 2329.99 720.931 Q2328.19 724.473 2328.19 731.603 Q2328.19 738.709 2329.99 742.274 Q2331.82 745.815 2335.43 745.815 Q2339.07 745.815 2340.87 742.274 Q2342.7 738.709 2342.7 731.603 Q2342.7 724.473 2340.87 720.931 Q2339.07 717.367 2335.43 717.367 M2335.43 713.663 Q2341.24 713.663 2344.3 718.269 Q2347.38 722.853 2347.38 731.603 Q2347.38 740.329 2344.3 744.936 Q2341.24 749.519 2335.43 749.519 Q2329.62 749.519 2326.54 744.936 Q2323.49 740.329 2323.49 731.603 Q2323.49 722.853 2326.54 718.269 Q2329.62 713.663 2335.43 713.663 Z" fill="#000000" fill-rule="nonzero" fill-opacity="1" /><polyline clip-path="url(#clip000)" style="stroke:#000000; stroke-linecap:round; stroke-linejoin:round; stroke-width:4; stroke-opacity:1; fill:none" points="178.867,686.448 178.867,47.2441 "/>
<polyline clip-path="url(#clip000)" style="stroke:#000000; stroke-linecap:round; stroke-linejoin:round; stroke-width:4; stroke-opacity:1; fill:none" points="178.867,686.448 197.764,686.448 "/>
<polyline clip-path="url(#clip000)" style="stroke:#000000; stroke-linecap:round; stroke-linejoin:round; stroke-width:4; stroke-opacity:1; fill:none" points="178.867,526.647 197.764,526.647 "/>
<polyline clip-path="url(#clip000)" style="stroke:#000000; stroke-linecap:round; stroke-linejoin:round; stroke-width:4; stroke-opacity:1; fill:none" points="178.867,366.846 197.764,366.846 "/>
<polyline clip-path="url(#clip000)" style="stroke:#000000; stroke-linecap:round; stroke-linejoin:round; stroke-width:4; stroke-opacity:1; fill:none" points="178.867,207.045 197.764,207.045 "/>
<polyline clip-path="url(#clip000)" style="stroke:#000000; stroke-linecap:round; stroke-linejoin:round; stroke-width:4; stroke-opacity:1; fill:none" points="178.867,47.2441 197.764,47.2441 "/>
<path clip-path="url(#clip000)" d="M50.9921 686.899 L80.6679 686.899 L80.6679 690.834 L50.9921 690.834 L50.9921 686.899 Z" fill="#000000" fill-rule="nonzero" fill-opacity="1" /><path clip-path="url(#clip000)" d="M91.5706 699.793 L99.2095 699.793 L99.2095 673.427 L90.8993 675.094 L90.8993 670.835 L99.1632 669.168 L103.839 669.168 L103.839 699.793 L111.478 699.793 L111.478 703.728 L91.5706 703.728 L91.5706 699.793 Z" fill="#000000" fill-rule="nonzero" fill-opacity="1" /><path clip-path="url(#clip000)" d="M130.922 672.247 Q127.311 672.247 125.482 675.811 Q123.677 679.353 123.677 686.483 Q123.677 693.589 125.482 697.154 Q127.311 700.695 130.922 700.695 Q134.556 700.695 136.362 697.154 Q138.191 693.589 138.191 686.483 Q138.191 679.353 136.362 675.811 Q134.556 672.247 130.922 672.247 M130.922 668.543 Q136.732 668.543 139.788 673.149 Q142.867 677.733 142.867 686.483 Q142.867 695.209 139.788 699.816 Q136.732 704.399 130.922 704.399 Q125.112 704.399 122.033 699.816 Q118.978 695.209 118.978 686.483 Q118.978 677.733 122.033 673.149 Q125.112 668.543 130.922 668.543 Z" fill="#000000" fill-rule="nonzero" fill-opacity="1" /><path clip-path="url(#clip000)" d="M82.1494 527.098 L111.825 527.098 L111.825 531.033 L82.1494 531.033 L82.1494 527.098 Z" fill="#000000" fill-rule="nonzero" fill-opacity="1" /><path clip-path="url(#clip000)" d="M121.964 509.367 L140.32 509.367 L140.32 513.302 L126.246 513.302 L126.246 521.774 Q127.265 521.427 128.283 521.265 Q129.302 521.08 130.32 521.08 Q136.107 521.08 139.487 524.251 Q142.867 527.422 142.867 532.839 Q142.867 538.418 139.394 541.52 Q135.922 544.598 129.603 544.598 Q127.427 544.598 125.158 544.228 Q122.913 543.857 120.506 543.117 L120.506 538.418 Q122.589 539.552 124.811 540.108 Q127.033 540.663 129.51 540.663 Q133.515 540.663 135.853 538.557 Q138.191 536.45 138.191 532.839 Q138.191 529.228 135.853 527.121 Q133.515 525.015 129.51 525.015 Q127.635 525.015 125.76 525.432 Q123.908 525.848 121.964 526.728 L121.964 509.367 Z" fill="#000000" fill-rule="nonzero" fill-opacity="1" /><path clip-path="url(#clip000)" d="M130.922 352.645 Q127.311 352.645 125.482 356.209 Q123.677 359.751 123.677 366.881 Q123.677 373.987 125.482 377.552 Q127.311 381.094 130.922 381.094 Q134.556 381.094 136.362 377.552 Q138.191 373.987 138.191 366.881 Q138.191 359.751 136.362 356.209 Q134.556 352.645 130.922 352.645 M130.922 348.941 Q136.732 348.941 139.788 353.547 Q142.867 358.131 142.867 366.881 Q142.867 375.608 139.788 380.214 Q136.732 384.797 130.922 384.797 Q125.112 384.797 122.033 380.214 Q118.978 375.608 118.978 366.881 Q118.978 358.131 122.033 353.547 Q125.112 348.941 130.922 348.941 Z" fill="#000000" fill-rule="nonzero" fill-opacity="1" /><path clip-path="url(#clip000)" d="M121.964 189.765 L140.32 189.765 L140.32 193.7 L126.246 193.7 L126.246 202.172 Q127.265 201.825 128.283 201.663 Q129.302 201.478 130.32 201.478 Q136.107 201.478 139.487 204.649 Q142.867 207.82 142.867 213.237 Q142.867 218.816 139.394 221.918 Q135.922 224.996 129.603 224.996 Q127.427 224.996 125.158 224.626 Q122.913 224.256 120.506 223.515 L120.506 218.816 Q122.589 219.95 124.811 220.506 Q127.033 221.061 129.51 221.061 Q133.515 221.061 135.853 218.955 Q138.191 216.848 138.191 213.237 Q138.191 209.626 135.853 207.52 Q133.515 205.413 129.51 205.413 Q127.635 205.413 125.76 205.83 Q123.908 206.246 121.964 207.126 L121.964 189.765 Z" fill="#000000" fill-rule="nonzero" fill-opacity="1" /><path clip-path="url(#clip000)" d="M91.5706 60.5889 L99.2095 60.5889 L99.2095 34.2233 L90.8993 35.89 L90.8993 31.6308 L99.1632 29.9641 L103.839 29.9641 L103.839 60.5889 L111.478 60.5889 L111.478 64.5241 L91.5706 64.5241 L91.5706 60.5889 Z" fill="#000000" fill-rule="nonzero" fill-opacity="1" /><path clip-path="url(#clip000)" d="M130.922 33.0428 Q127.311 33.0428 125.482 36.6076 Q123.677 40.1492 123.677 47.2788 Q123.677 54.3853 125.482 57.9501 Q127.311 61.4917 130.922 61.4917 Q134.556 61.4917 136.362 57.9501 Q138.191 54.3853 138.191 47.2788 Q138.191 40.1492 136.362 36.6076 Q134.556 33.0428 130.922 33.0428 M130.922 29.3391 Q136.732 29.3391 139.788 33.9456 Q142.867 38.5289 142.867 47.2788 Q142.867 56.0056 139.788 60.6121 Q136.732 65.1954 130.922 65.1954 Q125.112 65.1954 122.033 60.6121 Q118.978 56.0056 118.978 47.2788 Q118.978 38.5289 122.033 33.9456 Q125.112 29.3391 130.922 29.3391 Z" fill="#000000" fill-rule="nonzero" fill-opacity="1" /><polyline clip-path="url(#clip002)" style="stroke:#009af9; stroke-linecap:round; stroke-linejoin:round; stroke-width:4; stroke-opacity:1; fill:none" points="240.392,334.886 242.445,331.333 244.498,331.463 246.55,331.5 248.603,335.326 250.656,335.328 252.709,337.959 254.762,381.043 256.815,381.667 258.868,416.117 260.921,410.864 262.974,426.925 265.027,409.43 267.079,363.199 269.132,361.817 271.185,352.939 273.238,353.118 275.291,353.783 277.344,353.556 279.397,355.037 281.45,355.058 283.503,364.112 285.555,364.553 287.608,387.249 289.661,385.524 291.714,386.785 293.767,417.647 295.82,415.54 297.873,389.101 299.926,389.902 301.979,393.912 304.031,382.473 306.084,381.032 308.137,375.527 310.19,375.586 312.243,392.605 314.296,360.196 316.349,319.561 318.402,314.16 320.455,317.156 322.507,350.028 324.56,350.073 326.613,371.361 328.666,369.238 330.719,291.934 332.772,299.876 334.825,312.38 336.878,313.478 338.931,314.12 340.984,333.939 343.036,330.706 345.089,318.226 347.142,324.818 349.195,316.636 351.248,328.274 353.301,328.167 355.354,329.197 357.407,423.138 359.46,426.328 361.512,426.545 363.565,433.324 365.618,434.848 367.671,394.223 369.724,396.363 371.777,472.748 373.83,440.055 375.883,218.908 377.936,216.757 379.988,210.713 382.041,172.305 384.094,239.59 386.147,259.36 388.2,252.272 390.253,252.809 392.306,255.786 394.359,253.282 396.412,278.445 398.464,515.299 400.517,515.501 402.57,369.736 404.623,317.345 406.676,318.837 408.729,318.84 410.782,379.115 412.835,381.453 414.888,375.566 416.94,366.481 418.993,366.544 421.046,367.218 423.099,362.701 425.152,364.191 427.205,362.982 429.258,360.298 431.311,361.095 433.364,358.86 435.417,358.797 437.469,376.956 439.522,391.006 441.575,386.036 443.628,332.949 445.681,336.677 447.734,354.108 449.787,354.096 451.84,349.821 453.893,346.144 455.945,337.79 457.998,377.891 460.051,365.834 462.104,365.169 464.157,358.794 466.21,359.947 468.263,359.496 470.316,345.687 472.369,292.838 474.421,313.603 476.474,317.71 478.527,334.957 480.58,341.426 482.633,346.47 484.686,338.4 486.739,294.186 488.792,284.55 490.845,286.717 492.897,388.409 494.95,388.457 497.003,249.186 499.056,198.261 501.109,203.929 503.162,233.052 505.215,235.591 507.268,242.541 509.321,237.101 511.374,241.656 513.426,233.929 515.479,243.534 517.532,278.197 519.585,318.798 521.638,280.146 523.691,296.521 525.744,290.128 527.797,288.103 529.85,295.851 531.902,246.966 533.955,282.129 536.008,294.458 538.061,299.066 540.114,304.547 542.167,293.62 544.22,266.646 546.273,214.624 548.326,206.765 550.378,104.972 552.431,86.0361 554.484,93.578 556.537,105.847 558.59,202.135 560.643,196.8 562.696,276.53 564.749,243.332 566.802,317.471 568.854,387.782 570.907,447.792 572.96,388.662 575.013,391.893 577.066,342.816 579.119,351.463 581.172,354.627 583.225,192.354 585.278,493.343 587.331,216.322 589.383,300.404 591.436,296.53 593.489,251.573 595.542,239.265 597.595,331.722 599.648,334.055 601.701,311.543 603.754,337.33 605.807,278.217 607.859,259.55 609.912,260.459 611.965,240.293 614.018,59.0928 616.071,12.4448 618.124,1.9496 620.177,62.0306 622.23,60.4315 624.283,51.3583 626.335,399.263 628.388,371.965 630.441,410.407 632.494,448.876 634.547,440.432 636.6,294.613 638.653,-61.3106 640.706,-122.523 642.759,24.7817 644.811,29.1524 646.864,24.538 648.917,6.11095 650.97,47.9885 653.023,48.1108 655.076,80.5656 657.129,43.7209 659.182,69.8877 661.235,75.173 663.288,69.7313 665.34,73.0381 667.393,-42.3802 669.446,-42.1193 671.499,45.9586 673.552,68.0709 675.605,178.646 677.658,203.212 679.711,176.439 681.764,347.663 683.816,356.588 685.869,404.086 687.922,426.916 689.975,440.37 692.028,272.756 694.081,271.478 696.134,314.688 698.187,361.355 700.24,353.88 702.292,317.639 704.345,322.267 706.398,321.831 708.451,322.41 710.504,319.334 712.557,351.359 714.61,338.441 716.663,320.796 718.716,327.149 720.768,326.517 722.821,346.639 724.874,358.322 726.927,361.371 728.98,360.856 731.033,360.929 733.086,363.615 735.139,371.139 737.192,365.171 739.245,395.387 741.297,374.766 743.35,378.769 745.403,373.054 747.456,365.48 749.509,284.101 751.562,283.623 753.615,283.636 755.668,283.087 757.721,279.003 759.773,279.213 761.826,226.95 763.879,233.025 765.932,228.041 767.985,212.892 770.038,197.443 772.091,188.733 774.144,197.862 776.197,209.768 778.249,262.786 780.302,264.244 782.355,417.759 784.408,419.97 786.461,414.709 788.514,422.788 790.567,429.964 792.62,390.703 794.673,392.174 796.725,374.274 798.778,371.719 800.831,376.664 802.884,369.347 804.937,363.798 806.99,363.716 809.043,362.552 811.096,372.188 813.149,343.312 815.202,353.311 817.254,354.724 819.307,360.452 821.36,404.231 823.413,406.062 825.466,410.136 827.519,421.339 829.572,409.041 831.625,405.407 833.678,389.126 835.73,446.886 837.783,446.558 839.836,449.4 841.889,488.335 843.942,513.416 845.995,374.515 848.048,495.488 850.101,494.673 852.154,493.964 854.206,494.519 856.259,494.435 858.312,513.919 860.365,513.691 862.418,565.111 864.471,537.746 866.524,408.056 868.577,393.659 870.63,395.726 872.682,395.688 874.735,380.063 876.788,383.985 878.841,467.1 880.894,527.28 882.947,514.65 885,520.188 887.053,529.576 889.106,534.311 891.159,455.43 893.211,420.769 895.264,416.259 897.317,306.783 899.37,302.798 901.423,301.77 903.476,518.667 905.529,520.574 907.582,505.75 909.635,528.762 911.687,529.989 913.74,438.887 915.793,399.174 917.846,378.321 919.899,406.006 921.952,403.307 924.005,399.395 926.058,409.626 928.111,428.022 930.163,431.874 932.216,387.054 934.269,386.871 936.322,426.449 938.375,404.937 940.428,416.572 942.481,409.211 944.534,401.762 946.587,403.079 948.639,374.35 950.692,368.699 952.745,366.861 954.798,369.044 956.851,368.956 958.904,363.077 960.957,398.989 963.01,382.957 965.063,413.226 967.116,413.371 969.168,411.967 971.221,407.303 973.274,409.996 975.327,413.574 977.38,414.163 979.433,418.044 981.486,416.433 983.539,457.948 985.592,457.729 987.644,457.95 989.697,443.735 991.75,413.839 993.803,349.392 995.856,348.155 997.909,348.155 999.962,384.496 1002.01,384.805 1004.07,373.138 1006.12,430.188 1008.17,434.354 1010.23,436.585 1012.28,417.365 1014.33,414.559 1016.38,397.885 1018.44,401.394 1020.49,340.175 1022.54,340.252 1024.6,321.571 1026.65,388.336 1028.7,388.634 1030.76,345.826 1032.81,381.153 1034.86,383.732 1036.91,430.33 1038.97,513.212 1041.02,527.274 1043.07,581.105 1045.13,619.782 1047.18,602.257 1049.23,501.63 1051.28,501.16 1053.34,457.987 1055.39,497.009 1057.44,601.288 1059.5,269.178 1061.55,270.743 1063.6,270.181 1065.65,251.217 1067.71,362.245 1069.76,334.875 1071.81,268.05 1073.87,306.863 1075.92,413.826 1077.97,414.668 1080.02,428.258 1082.08,427.505 1084.13,441.067 1086.18,299.93 1088.24,333.448 1090.29,516.569 1092.34,517.052 1094.39,555.44 1096.45,557.544 1098.5,557.527 1100.55,558.717 1102.61,554.237 1104.66,556.762 1106.71,556.508 1108.77,557.5 1110.82,552.056 1112.87,538.35 1114.92,513.703 1116.98,519.325 1119.03,493.389 1121.08,498.257 1123.14,489.523 1125.19,412.096 1127.24,207.982 1129.29,255.389 1131.35,248.544 1133.4,246.017 1135.45,248.552 1137.51,314.371 1139.56,308.833 1141.61,366.704 1143.66,421.38 1145.72,414.539 1147.77,407.284 1149.82,408.962 1151.88,399.118 1153.93,416.82 1155.98,416.301 1158.03,429.151 1160.09,407.852 1162.14,420.253 1164.19,359.517 1166.25,356.288 1168.3,356.001 1170.35,401.365 1172.4,371.783 1174.46,365.968 1176.51,280.234 1178.56,303.837 1180.62,607.181 1182.67,606.792 1184.72,602.553 1186.77,587.091 1188.83,531.815 1190.88,391.315 1192.93,417.09 1194.99,438.737 1197.04,425.024 1199.09,433.323 1201.15,392.087 1203.2,394.527 1205.25,392.759 1207.3,395.943 1209.36,407.443 1211.41,364.73 1213.46,232.859 1215.52,238.825 1217.57,251.109 1219.62,230.315 1221.67,227.143 1223.73,215.486 1225.78,221.454 1227.83,199.929 1229.89,203.377 1231.94,202.714 1233.99,123.999 1236.04,232.607 1238.1,154.646 1240.15,152.383 1242.2,228.382 1244.26,303.103 1246.31,287.848 1248.36,286.582 1250.41,281.912 1252.47,344.282 1254.52,340.823 1256.57,375.266 1258.63,365.255 1260.68,361.033 1262.73,244.777 1264.78,230.971 1266.84,247.602 1268.89,263.95 1270.94,387.344 1273,236.083 1275.05,235.814 1277.1,235.916 1279.16,263.951 1281.21,214.324 1283.26,212.991 1285.31,209.595 1287.37,219.966 1289.42,215.391 1291.47,260.632 1293.53,352.742 1295.58,389.827 1297.63,383.453 1299.68,549.248 1301.74,552.784 1303.79,613.333 1305.84,544.255 1307.9,134.859 1309.95,82.7289 1312,114.151 1314.05,181.283 1316.11,181.057 1318.16,716.673 1320.21,129.579 1322.27,107.819 1324.32,147.287 1326.37,154.254 1328.42,182.245 1330.48,180.748 1332.53,162.462 1334.58,142.071 1336.64,127.244 1338.69,94.7851 1340.74,113.043 1342.79,148.74 1344.85,270.741 1346.9,270.571 1348.95,272.31 1351.01,327.376 1353.06,165.169 1355.11,124.683 1357.16,108.263 1359.22,115.063 1361.27,113.891 1363.32,84.6952 1365.38,406.383 1367.43,367.328 1369.48,423.281 1371.54,500.288 1373.59,504.921 1375.64,493.477 1377.69,393.391 1379.75,443.606 1381.8,295.559 1383.85,312.875 1385.91,304.653 1387.96,337.772 1390.01,222.74 1392.06,225.463 1394.12,198.484 1396.17,260.512 1398.22,261.709 1400.28,217.245 1402.33,232.981 1404.38,258.368 1406.43,259.023 1408.49,256.715 1410.54,242.977 1412.59,211.24 1414.65,198.192 1416.7,169.259 1418.75,168.992 1420.8,140.959 1422.86,180.623 1424.91,184.237 1426.96,182.622 1429.02,183.125 1431.07,185.607 1433.12,79.3291 1435.17,78.97 1437.23,101.278 1439.28,352.618 1441.33,355.629 1443.39,185.514 1445.44,182.535 1447.49,166.245 1449.55,201.586 1451.6,190.155 1453.65,188.285 1455.7,128.389 1457.76,83.6855 1459.81,84.3839 1461.86,119.658 1463.92,259.338 1465.97,243.268 1468.02,333.651 1470.07,333.64 1472.13,413.316 1474.18,417.944 1476.23,417.757 1478.29,405.328 1480.34,522.05 1482.39,507.769 1484.44,473.761 1486.5,472.523 1488.55,265.209 1490.6,269.659 1492.66,162.93 1494.71,163.57 1496.76,121.752 1498.81,162.733 1500.87,180.402 1502.92,158.092 1504.97,90.9237 1507.03,82.0739 1509.08,109.622 1511.13,34.3742 1513.18,42.907 1515.24,73.3271 1517.29,225.971 1519.34,214.088 1521.4,211.017 1523.45,221.373 1525.5,210.672 1527.55,194.373 1529.61,184.599 1531.66,201.636 1533.71,204.431 1535.77,204.618 1537.82,187.889 1539.87,203.567 1541.93,140.555 1543.98,281.883 1546.03,283.335 1548.08,289.119 1550.14,290.683 1552.19,294.041 1554.24,315.001 1556.3,279.354 1558.35,281.672 1560.4,286.898 1562.45,288.867 1564.51,177.043 1566.56,178.631 1568.61,182.975 1570.67,228.998 1572.72,222.206 1574.77,211.755 1576.82,55.0472 1578.88,-5.95796 1580.93,154.913 1582.98,238.004 1585.04,240.527 1587.09,350.288 1589.14,590.928 1591.19,594.363 1593.25,587.149 1595.3,516.549 1597.35,508.827 1599.41,477.877 1601.46,541.392 1603.51,538.958 1605.56,418.647 1607.62,395.416 1609.67,441.522 1611.72,443.066 1613.78,420.88 1615.83,432.885 1617.88,432.942 1619.94,658.797 1621.99,671.156 1624.04,666.078 1626.09,662.471 1628.15,393.242 1630.2,339.098 1632.25,312.406 1634.31,299.065 1636.36,431.433 1638.41,338.794 1640.46,505.62 1642.52,304.119 1644.57,180.976 1646.62,231.146 1648.68,235.417 1650.73,232.9 1652.78,211.205 1654.83,485.747 1656.89,492.045 1658.94,543.869 1660.99,538.083 1663.05,591.62 1665.1,591.324 1667.15,586.357 1669.2,585.54 1671.26,585.845 1673.31,560.204 1675.36,559.557 1677.42,561.522 1679.47,513.269 1681.52,484.972 1683.57,494.281 1685.63,287.438 1687.68,314.682 1689.73,284.566 1691.79,358.041 1693.84,360.181 1695.89,341.758 1697.94,318.79 1700,339.582 1702.05,320.51 1704.1,323.144 1706.16,310.335 1708.21,433.936 1710.26,288.721 1712.32,260.149 1714.37,214.394 1716.42,202.456 1718.47,158.959 1720.53,238.321 1722.58,268.485 1724.63,227.996 1726.69,247.417 1728.74,199.318 1730.79,218.178 1732.84,215.311 1734.9,375.483 1736.95,374.691 1739,371.627 1741.06,370.324 1743.11,340.856 1745.16,360.072 1747.21,508.046 1749.27,510.649 1751.32,495.765 1753.37,495.883 1755.43,360.67 1757.48,388.701 1759.53,382.701 1761.58,382.666 1763.64,377.354 1765.69,326.21 1767.74,330.734 1769.8,326.254 1771.85,279.063 1773.9,278.217 1775.95,273.248 1778.01,261.117 1780.06,328.795 1782.11,374.865 1784.17,282.971 1786.22,288.821 1788.27,291.77 1790.33,292.022 1792.38,302.252 1794.43,225.95 1796.48,226.204 1798.54,251.693 1800.59,414.026 1802.64,388.115 1804.7,388.121 1806.75,340.016 1808.8,373.737 1810.85,273.396 1812.91,390.896 1814.96,352.095 1817.01,339.041 1819.07,339.075 1821.12,351.634 1823.17,400.61 1825.22,400.926 1827.28,401.038 1829.33,391.234 1831.38,466.41 1833.44,453.313 1835.49,475.473 1837.54,418.627 1839.59,274.331 1841.65,306.321 1843.7,307.347 1845.75,177.147 1847.81,180.867 1849.86,201.438 1851.91,161.985 1853.96,163.99 1856.02,157.846 1858.07,159.983 1860.12,165.057 1862.18,204.856 1864.23,306.164 1866.28,324.651 1868.34,324.477 1870.39,319.43 1872.44,357.501 1874.49,317.919 1876.55,297.237 1878.6,301.114 1880.65,322.809 1882.71,422.631 1884.76,456.127 1886.81,433.528 1888.86,448.932 1890.92,447.366 1892.97,348.405 1895.02,354.239 1897.08,346.661 1899.13,378.744 1901.18,394.846 1903.23,397.013 1905.29,409.018 1907.34,406.496 1909.39,405.618 1911.45,430.061 1913.5,426.981 1915.55,456.855 1917.6,457.855 1919.66,499.618 1921.71,470.719 1923.76,436.918 1925.82,436.944 1927.87,458.81 1929.92,501.622 1931.97,455.4 1934.03,377.988 1936.08,307.104 1938.13,313.907 1940.19,346.177 1942.24,346.51 1944.29,390.839 1946.34,211.381 1948.4,156.237 1950.45,577.073 1952.5,578.593 1954.56,566.061 1956.61,537.639 1958.66,538.282 1960.72,557.54 1962.77,531.35 1964.82,530.938 1966.87,481.701 1968.93,476.893 1970.98,456.263 1973.03,564.793 1975.09,624.292 1977.14,626.837 1979.19,600.003 1981.24,606.491 1983.3,670.322 1985.35,671.46 1987.4,677.585 1989.46,740.501 1991.51,780.738 1993.56,815.533 1995.61,707.682 1997.67,708.427 1999.72,662.285 2001.77,704.805 2003.83,632.422 2005.88,396.257 2007.93,430.404 2009.98,425.782 2012.04,461.451 2014.09,470.713 2016.14,470.453 2018.2,465.206 2020.25,481.846 2022.3,505.019 2024.35,510.333 2026.41,84.2997 2028.46,102.768 2030.51,96.5668 2032.57,168.13 2034.62,148.031 2036.67,149.712 2038.73,152.885 2040.78,135.662 2042.83,101.395 2044.88,97.998 2046.94,193.376 2048.99,331.692 2051.04,360.328 2053.1,166.735 2055.15,69.5737 2057.2,-10.2183 2059.25,-40.4066 2061.31,96.1258 2063.36,28.0408 2065.41,129.962 2067.47,164.853 2069.52,122.905 2071.57,97.9403 2073.62,-3.81364 2075.68,-4.19469 2077.73,6.61986 2079.78,-8.0743 2081.84,147.013 2083.89,217.539 2085.94,644.926 2087.99,432.277 2090.05,336.872 2092.1,509.311 2094.15,521.994 2096.21,464.658 2098.26,403.084 2100.31,245.883 2102.36,55.5555 2104.42,12.948 2106.47,10.9271 2108.52,8.73522 2110.58,-59.9544 2112.63,274.444 2114.68,248.858 2116.73,189.552 2118.79,160.499 2120.84,19.4898 2122.89,72.0178 2124.95,-9.9512 2127,123.668 2129.05,91.6659 2131.11,89.7909 2133.16,84.1012 2135.21,-193.562 2137.26,-149.978 2139.32,-136.697 2141.37,-130.854 2143.42,-55.5023 2145.48,-30.7236 2147.53,19.8491 2149.58,19.4079 2151.63,57.2469 2153.69,57.311 2155.74,19.7896 2157.79,3.53084 2159.85,-34.1002 2161.9,50.9557 2163.95,-2.37616 2166,75.6686 2168.06,19.0707 2170.11,293.212 2172.16,523.056 2174.22,598.555 2176.27,535.326 2178.32,581.749 2180.37,571.123 2182.43,568.476 2184.48,711.815 2186.53,713.273 2188.59,677.822 2190.64,628.845 2192.69,613.401 2194.74,418.25 2196.8,204.086 2198.85,509.387 2200.9,1196.21 2202.96,1117.36 2205.01,916.898 2207.06,971.438 2209.12,968.31 2211.17,950.264 2213.22,902.152 2215.27,927.784 2217.33,961.87 2219.38,1170.66 2221.43,1198.17 2223.49,802.93 2225.54,666.592 2227.59,673.765 2229.64,525.814 2231.7,377.305 2233.75,487.919 2235.8,482.049 2237.86,361.589 2239.91,475.086 2241.96,372.865 2244.01,372.416 2246.07,379.426 2248.12,570.439 2250.17,653.94 2252.23,771.299 2254.28,974.034 2256.33,975.611 2258.38,739.888 2260.44,834.556 2262.49,925.325 2264.54,836.47 2266.6,881.404 2268.65,894.596 2270.7,636.708 2272.75,830.988 2274.81,841.369 2276.86,837.866 2278.91,557.927 2280.97,698.001 2283.02,680.679 2285.07,664.635 2287.12,695.569 2289.18,357.727 2291.23,544.454 "/>
<path clip-path="url(#clip000)" d="M251.33 665.141 L548.024 665.141 L548.024 561.461 L251.33 561.461  Z" fill="#ffffff" fill-rule="evenodd" fill-opacity="1"/>
<polyline clip-path="url(#clip000)" style="stroke:#000000; stroke-linecap:round; stroke-linejoin:round; stroke-width:4; stroke-opacity:1; fill:none" points="251.33,665.141 548.024,665.141 548.024,561.461 251.33,561.461 251.33,665.141 "/>
<polyline clip-path="url(#clip000)" style="stroke:#009af9; stroke-linecap:round; stroke-linejoin:round; stroke-width:4; stroke-opacity:1; fill:none" points="275.484,613.301 420.41,613.301 "/>
<path clip-path="url(#clip000)" d="M444.564 596.021 L449.24 596.021 L449.24 626.646 L466.069 626.646 L466.069 630.581 L444.564 630.581 L444.564 596.021 Z" fill="#000000" fill-rule="nonzero" fill-opacity="1" /><path clip-path="url(#clip000)" d="M491.694 597.155 L491.694 601.715 Q489.032 600.442 486.67 599.817 Q484.309 599.192 482.11 599.192 Q478.291 599.192 476.208 600.674 Q474.147 602.155 474.147 604.887 Q474.147 607.178 475.513 608.359 Q476.902 609.516 480.745 610.234 L483.569 610.813 Q488.8 611.808 491.277 614.331 Q493.777 616.831 493.777 621.044 Q493.777 626.067 490.397 628.66 Q487.041 631.252 480.536 631.252 Q478.083 631.252 475.305 630.697 Q472.55 630.141 469.587 629.053 L469.587 624.239 Q472.434 625.836 475.166 626.646 Q477.897 627.456 480.536 627.456 Q484.541 627.456 486.717 625.882 Q488.893 624.308 488.893 621.391 Q488.893 618.845 487.319 617.41 Q485.768 615.975 482.203 615.257 L479.356 614.702 Q474.124 613.66 471.786 611.438 Q469.448 609.215 469.448 605.257 Q469.448 600.674 472.666 598.035 Q475.907 595.396 481.578 595.396 Q484.008 595.396 486.532 595.836 Q489.055 596.276 491.694 597.155 Z" fill="#000000" fill-rule="nonzero" fill-opacity="1" /><path clip-path="url(#clip000)" d="M521.786 597.155 L521.786 601.715 Q519.124 600.442 516.763 599.817 Q514.402 599.192 512.203 599.192 Q508.383 599.192 506.3 600.674 Q504.24 602.155 504.24 604.887 Q504.24 607.178 505.606 608.359 Q506.994 609.516 510.837 610.234 L513.661 610.813 Q518.893 611.808 521.369 614.331 Q523.869 616.831 523.869 621.044 Q523.869 626.067 520.49 628.66 Q517.133 631.252 510.629 631.252 Q508.175 631.252 505.397 630.697 Q502.643 630.141 499.68 629.053 L499.68 624.239 Q502.527 625.836 505.258 626.646 Q507.99 627.456 510.629 627.456 Q514.633 627.456 516.809 625.882 Q518.985 624.308 518.985 621.391 Q518.985 618.845 517.411 617.41 Q515.86 615.975 512.295 615.257 L509.448 614.702 Q504.217 613.66 501.879 611.438 Q499.541 609.215 499.541 605.257 Q499.541 600.674 502.758 598.035 Q505.999 595.396 511.67 595.396 Q514.101 595.396 516.624 595.836 Q519.147 596.276 521.786 597.155 Z" fill="#000000" fill-rule="nonzero" fill-opacity="1" /><path clip-path="url(#clip000)" d="M178.867 1486.45 L2352.76 1486.45 L2352.76 847.244 L178.867 847.244  Z" fill="#ffffff" fill-rule="evenodd" fill-opacity="1"/>
<defs>
  <clipPath id="clip003">
    <rect x="178" y="847" width="2175" height="640"/>
  </clipPath>
</defs>
<polyline clip-path="url(#clip003)" style="stroke:#000000; stroke-linecap:round; stroke-linejoin:round; stroke-width:2; stroke-opacity:0.1; fill:none" points="238.339,1486.45 238.339,847.244 "/>
<polyline clip-path="url(#clip003)" style="stroke:#000000; stroke-linecap:round; stroke-linejoin:round; stroke-width:2; stroke-opacity:0.1; fill:none" points="751.562,1486.45 751.562,847.244 "/>
<polyline clip-path="url(#clip003)" style="stroke:#000000; stroke-linecap:round; stroke-linejoin:round; stroke-width:2; stroke-opacity:0.1; fill:none" points="1264.78,1486.45 1264.78,847.244 "/>
<polyline clip-path="url(#clip003)" style="stroke:#000000; stroke-linecap:round; stroke-linejoin:round; stroke-width:2; stroke-opacity:0.1; fill:none" points="1778.01,1486.45 1778.01,847.244 "/>
<polyline clip-path="url(#clip003)" style="stroke:#000000; stroke-linecap:round; stroke-linejoin:round; stroke-width:2; stroke-opacity:0.1; fill:none" points="2291.23,1486.45 2291.23,847.244 "/>
<polyline clip-path="url(#clip003)" style="stroke:#000000; stroke-linecap:round; stroke-linejoin:round; stroke-width:2; stroke-opacity:0.1; fill:none" points="178.867,1486.45 2352.76,1486.45 "/>
<polyline clip-path="url(#clip003)" style="stroke:#000000; stroke-linecap:round; stroke-linejoin:round; stroke-width:2; stroke-opacity:0.1; fill:none" points="178.867,1326.65 2352.76,1326.65 "/>
<polyline clip-path="url(#clip003)" style="stroke:#000000; stroke-linecap:round; stroke-linejoin:round; stroke-width:2; stroke-opacity:0.1; fill:none" points="178.867,1166.85 2352.76,1166.85 "/>
<polyline clip-path="url(#clip003)" style="stroke:#000000; stroke-linecap:round; stroke-linejoin:round; stroke-width:2; stroke-opacity:0.1; fill:none" points="178.867,1007.05 2352.76,1007.05 "/>
<polyline clip-path="url(#clip003)" style="stroke:#000000; stroke-linecap:round; stroke-linejoin:round; stroke-width:2; stroke-opacity:0.1; fill:none" points="178.867,847.244 2352.76,847.244 "/>
<polyline clip-path="url(#clip000)" style="stroke:#000000; stroke-linecap:round; stroke-linejoin:round; stroke-width:4; stroke-opacity:1; fill:none" points="178.867,1486.45 2352.76,1486.45 "/>
<polyline clip-path="url(#clip000)" style="stroke:#000000; stroke-linecap:round; stroke-linejoin:round; stroke-width:4; stroke-opacity:1; fill:none" points="238.339,1486.45 238.339,1467.55 "/>
<polyline clip-path="url(#clip000)" style="stroke:#000000; stroke-linecap:round; stroke-linejoin:round; stroke-width:4; stroke-opacity:1; fill:none" points="751.562,1486.45 751.562,1467.55 "/>
<polyline clip-path="url(#clip000)" style="stroke:#000000; stroke-linecap:round; stroke-linejoin:round; stroke-width:4; stroke-opacity:1; fill:none" points="1264.78,1486.45 1264.78,1467.55 "/>
<polyline clip-path="url(#clip000)" style="stroke:#000000; stroke-linecap:round; stroke-linejoin:round; stroke-width:4; stroke-opacity:1; fill:none" points="1778.01,1486.45 1778.01,1467.55 "/>
<polyline clip-path="url(#clip000)" style="stroke:#000000; stroke-linecap:round; stroke-linejoin:round; stroke-width:4; stroke-opacity:1; fill:none" points="2291.23,1486.45 2291.23,1467.55 "/>
<path clip-path="url(#clip000)" d="M238.339 1517.37 Q234.728 1517.37 232.899 1520.93 Q231.094 1524.47 231.094 1531.6 Q231.094 1538.71 232.899 1542.27 Q234.728 1545.82 238.339 1545.82 Q241.973 1545.82 243.779 1542.27 Q245.607 1538.71 245.607 1531.6 Q245.607 1524.47 243.779 1520.93 Q241.973 1517.37 238.339 1517.37 M238.339 1513.66 Q244.149 1513.66 247.205 1518.27 Q250.283 1522.85 250.283 1531.6 Q250.283 1540.33 247.205 1544.94 Q244.149 1549.52 238.339 1549.52 Q232.529 1549.52 229.45 1544.94 Q226.395 1540.33 226.395 1531.6 Q226.395 1522.85 229.45 1518.27 Q232.529 1513.66 238.339 1513.66 Z" fill="#000000" fill-rule="nonzero" fill-opacity="1" /><path clip-path="url(#clip000)" d="M715.254 1544.91 L731.574 1544.91 L731.574 1548.85 L709.629 1548.85 L709.629 1544.91 Q712.291 1542.16 716.875 1537.53 Q721.481 1532.88 722.662 1531.53 Q724.907 1529.01 725.787 1527.27 Q726.689 1525.51 726.689 1523.82 Q726.689 1521.07 724.745 1519.33 Q722.824 1517.6 719.722 1517.6 Q717.523 1517.6 715.069 1518.36 Q712.638 1519.13 709.861 1520.68 L709.861 1515.95 Q712.685 1514.82 715.138 1514.24 Q717.592 1513.66 719.629 1513.66 Q725 1513.66 728.194 1516.35 Q731.388 1519.03 731.388 1523.52 Q731.388 1525.65 730.578 1527.57 Q729.791 1529.47 727.685 1532.07 Q727.106 1532.74 724.004 1535.95 Q720.902 1539.15 715.254 1544.91 Z" fill="#000000" fill-rule="nonzero" fill-opacity="1" /><path clip-path="url(#clip000)" d="M741.435 1514.29 L759.791 1514.29 L759.791 1518.22 L745.717 1518.22 L745.717 1526.7 Q746.736 1526.35 747.754 1526.19 Q748.773 1526 749.791 1526 Q755.578 1526 758.958 1529.17 Q762.337 1532.34 762.337 1537.76 Q762.337 1543.34 758.865 1546.44 Q755.393 1549.52 749.073 1549.52 Q746.898 1549.52 744.629 1549.15 Q742.384 1548.78 739.976 1548.04 L739.976 1543.34 Q742.06 1544.47 744.282 1545.03 Q746.504 1545.58 748.981 1545.58 Q752.985 1545.58 755.323 1543.48 Q757.661 1541.37 757.661 1537.76 Q757.661 1534.15 755.323 1532.04 Q752.985 1529.94 748.981 1529.94 Q747.106 1529.94 745.231 1530.35 Q743.379 1530.77 741.435 1531.65 L741.435 1514.29 Z" fill="#000000" fill-rule="nonzero" fill-opacity="1" /><path clip-path="url(#clip000)" d="M781.55 1517.37 Q777.939 1517.37 776.11 1520.93 Q774.305 1524.47 774.305 1531.6 Q774.305 1538.71 776.11 1542.27 Q777.939 1545.82 781.55 1545.82 Q785.184 1545.82 786.99 1542.27 Q788.819 1538.71 788.819 1531.6 Q788.819 1524.47 786.99 1520.93 Q785.184 1517.37 781.55 1517.37 M781.55 1513.66 Q787.36 1513.66 790.416 1518.27 Q793.495 1522.85 793.495 1531.6 Q793.495 1540.33 790.416 1544.94 Q787.36 1549.52 781.55 1549.52 Q775.74 1549.52 772.661 1544.94 Q769.606 1540.33 769.606 1531.6 Q769.606 1522.85 772.661 1518.27 Q775.74 1513.66 781.55 1513.66 Z" fill="#000000" fill-rule="nonzero" fill-opacity="1" /><path clip-path="url(#clip000)" d="M1224.4 1514.29 L1242.76 1514.29 L1242.76 1518.22 L1228.69 1518.22 L1228.69 1526.7 Q1229.7 1526.35 1230.72 1526.19 Q1231.74 1526 1232.76 1526 Q1238.55 1526 1241.93 1529.17 Q1245.31 1532.34 1245.31 1537.76 Q1245.31 1543.34 1241.83 1546.44 Q1238.36 1549.52 1232.04 1549.52 Q1229.87 1549.52 1227.6 1549.15 Q1225.35 1548.78 1222.94 1548.04 L1222.94 1543.34 Q1225.03 1544.47 1227.25 1545.03 Q1229.47 1545.58 1231.95 1545.58 Q1235.95 1545.58 1238.29 1543.48 Q1240.63 1541.37 1240.63 1537.76 Q1240.63 1534.15 1238.29 1532.04 Q1235.95 1529.94 1231.95 1529.94 Q1230.07 1529.94 1228.2 1530.35 Q1226.35 1530.77 1224.4 1531.65 L1224.4 1514.29 Z" fill="#000000" fill-rule="nonzero" fill-opacity="1" /><path clip-path="url(#clip000)" d="M1264.52 1517.37 Q1260.91 1517.37 1259.08 1520.93 Q1257.27 1524.47 1257.27 1531.6 Q1257.27 1538.71 1259.08 1542.27 Q1260.91 1545.82 1264.52 1545.82 Q1268.15 1545.82 1269.96 1542.27 Q1271.79 1538.71 1271.79 1531.6 Q1271.79 1524.47 1269.96 1520.93 Q1268.15 1517.37 1264.52 1517.37 M1264.52 1513.66 Q1270.33 1513.66 1273.38 1518.27 Q1276.46 1522.85 1276.46 1531.6 Q1276.46 1540.33 1273.38 1544.94 Q1270.33 1549.52 1264.52 1549.52 Q1258.71 1549.52 1255.63 1544.94 Q1252.57 1540.33 1252.57 1531.6 Q1252.57 1522.85 1255.63 1518.27 Q1258.71 1513.66 1264.52 1513.66 Z" fill="#000000" fill-rule="nonzero" fill-opacity="1" /><path clip-path="url(#clip000)" d="M1294.68 1517.37 Q1291.07 1517.37 1289.24 1520.93 Q1287.44 1524.47 1287.44 1531.6 Q1287.44 1538.71 1289.24 1542.27 Q1291.07 1545.82 1294.68 1545.82 Q1298.31 1545.82 1300.12 1542.27 Q1301.95 1538.71 1301.95 1531.6 Q1301.95 1524.47 1300.12 1520.93 Q1298.31 1517.37 1294.68 1517.37 M1294.68 1513.66 Q1300.49 1513.66 1303.55 1518.27 Q1306.62 1522.85 1306.62 1531.6 Q1306.62 1540.33 1303.55 1544.94 Q1300.49 1549.52 1294.68 1549.52 Q1288.87 1549.52 1285.79 1544.94 Q1282.74 1540.33 1282.74 1531.6 Q1282.74 1522.85 1285.79 1518.27 Q1288.87 1513.66 1294.68 1513.66 Z" fill="#000000" fill-rule="nonzero" fill-opacity="1" /><path clip-path="url(#clip000)" d="M1736.28 1514.29 L1758.51 1514.29 L1758.51 1516.28 L1745.96 1548.85 L1741.08 1548.85 L1752.88 1518.22 L1736.28 1518.22 L1736.28 1514.29 Z" fill="#000000" fill-rule="nonzero" fill-opacity="1" /><path clip-path="url(#clip000)" d="M1767.67 1514.29 L1786.03 1514.29 L1786.03 1518.22 L1771.95 1518.22 L1771.95 1526.7 Q1772.97 1526.35 1773.99 1526.19 Q1775.01 1526 1776.03 1526 Q1781.82 1526 1785.2 1529.17 Q1788.57 1532.34 1788.57 1537.76 Q1788.57 1543.34 1785.1 1546.44 Q1781.63 1549.52 1775.31 1549.52 Q1773.14 1549.52 1770.87 1549.15 Q1768.62 1548.78 1766.21 1548.04 L1766.21 1543.34 Q1768.3 1544.47 1770.52 1545.03 Q1772.74 1545.58 1775.22 1545.58 Q1779.22 1545.58 1781.56 1543.48 Q1783.9 1541.37 1783.9 1537.76 Q1783.9 1534.15 1781.56 1532.04 Q1779.22 1529.94 1775.22 1529.94 Q1773.34 1529.94 1771.47 1530.35 Q1769.62 1530.77 1767.67 1531.65 L1767.67 1514.29 Z" fill="#000000" fill-rule="nonzero" fill-opacity="1" /><path clip-path="url(#clip000)" d="M1807.79 1517.37 Q1804.18 1517.37 1802.35 1520.93 Q1800.54 1524.47 1800.54 1531.6 Q1800.54 1538.71 1802.35 1542.27 Q1804.18 1545.82 1807.79 1545.82 Q1811.42 1545.82 1813.23 1542.27 Q1815.06 1538.71 1815.06 1531.6 Q1815.06 1524.47 1813.23 1520.93 Q1811.42 1517.37 1807.79 1517.37 M1807.79 1513.66 Q1813.6 1513.66 1816.65 1518.27 Q1819.73 1522.85 1819.73 1531.6 Q1819.73 1540.33 1816.65 1544.94 Q1813.6 1549.52 1807.79 1549.52 Q1801.98 1549.52 1798.9 1544.94 Q1795.84 1540.33 1795.84 1531.6 Q1795.84 1522.85 1798.9 1518.27 Q1801.98 1513.66 1807.79 1513.66 Z" fill="#000000" fill-rule="nonzero" fill-opacity="1" /><path clip-path="url(#clip000)" d="M2235.76 1544.91 L2243.4 1544.91 L2243.4 1518.55 L2235.09 1520.21 L2235.09 1515.95 L2243.35 1514.29 L2248.02 1514.29 L2248.02 1544.91 L2255.66 1544.91 L2255.66 1548.85 L2235.76 1548.85 L2235.76 1544.91 Z" fill="#000000" fill-rule="nonzero" fill-opacity="1" /><path clip-path="url(#clip000)" d="M2275.11 1517.37 Q2271.5 1517.37 2269.67 1520.93 Q2267.86 1524.47 2267.86 1531.6 Q2267.86 1538.71 2269.67 1542.27 Q2271.5 1545.82 2275.11 1545.82 Q2278.74 1545.82 2280.55 1542.27 Q2282.38 1538.71 2282.38 1531.6 Q2282.38 1524.47 2280.55 1520.93 Q2278.74 1517.37 2275.11 1517.37 M2275.11 1513.66 Q2280.92 1513.66 2283.97 1518.27 Q2287.05 1522.85 2287.05 1531.6 Q2287.05 1540.33 2283.97 1544.94 Q2280.92 1549.52 2275.11 1549.52 Q2269.3 1549.52 2266.22 1544.94 Q2263.16 1540.33 2263.16 1531.6 Q2263.16 1522.85 2266.22 1518.27 Q2269.3 1513.66 2275.11 1513.66 Z" fill="#000000" fill-rule="nonzero" fill-opacity="1" /><path clip-path="url(#clip000)" d="M2305.27 1517.37 Q2301.66 1517.37 2299.83 1520.93 Q2298.02 1524.47 2298.02 1531.6 Q2298.02 1538.71 2299.83 1542.27 Q2301.66 1545.82 2305.27 1545.82 Q2308.9 1545.82 2310.71 1542.27 Q2312.54 1538.71 2312.54 1531.6 Q2312.54 1524.47 2310.71 1520.93 Q2308.9 1517.37 2305.27 1517.37 M2305.27 1513.66 Q2311.08 1513.66 2314.14 1518.27 Q2317.21 1522.85 2317.21 1531.6 Q2317.21 1540.33 2314.14 1544.94 Q2311.08 1549.52 2305.27 1549.52 Q2299.46 1549.52 2296.38 1544.94 Q2293.33 1540.33 2293.33 1531.6 Q2293.33 1522.85 2296.38 1518.27 Q2299.46 1513.66 2305.27 1513.66 Z" fill="#000000" fill-rule="nonzero" fill-opacity="1" /><path clip-path="url(#clip000)" d="M2335.43 1517.37 Q2331.82 1517.37 2329.99 1520.93 Q2328.19 1524.47 2328.19 1531.6 Q2328.19 1538.71 2329.99 1542.27 Q2331.82 1545.82 2335.43 1545.82 Q2339.07 1545.82 2340.87 1542.27 Q2342.7 1538.71 2342.7 1531.6 Q2342.7 1524.47 2340.87 1520.93 Q2339.07 1517.37 2335.43 1517.37 M2335.43 1513.66 Q2341.24 1513.66 2344.3 1518.27 Q2347.38 1522.85 2347.38 1531.6 Q2347.38 1540.33 2344.3 1544.94 Q2341.24 1549.52 2335.43 1549.52 Q2329.62 1549.52 2326.54 1544.94 Q2323.49 1540.33 2323.49 1531.6 Q2323.49 1522.85 2326.54 1518.27 Q2329.62 1513.66 2335.43 1513.66 Z" fill="#000000" fill-rule="nonzero" fill-opacity="1" /><polyline clip-path="url(#clip000)" style="stroke:#000000; stroke-linecap:round; stroke-linejoin:round; stroke-width:4; stroke-opacity:1; fill:none" points="178.867,1486.45 178.867,847.244 "/>
<polyline clip-path="url(#clip000)" style="stroke:#000000; stroke-linecap:round; stroke-linejoin:round; stroke-width:4; stroke-opacity:1; fill:none" points="178.867,1486.45 197.764,1486.45 "/>
<polyline clip-path="url(#clip000)" style="stroke:#000000; stroke-linecap:round; stroke-linejoin:round; stroke-width:4; stroke-opacity:1; fill:none" points="178.867,1326.65 197.764,1326.65 "/>
<polyline clip-path="url(#clip000)" style="stroke:#000000; stroke-linecap:round; stroke-linejoin:round; stroke-width:4; stroke-opacity:1; fill:none" points="178.867,1166.85 197.764,1166.85 "/>
<polyline clip-path="url(#clip000)" style="stroke:#000000; stroke-linecap:round; stroke-linejoin:round; stroke-width:4; stroke-opacity:1; fill:none" points="178.867,1007.05 197.764,1007.05 "/>
<polyline clip-path="url(#clip000)" style="stroke:#000000; stroke-linecap:round; stroke-linejoin:round; stroke-width:4; stroke-opacity:1; fill:none" points="178.867,847.244 197.764,847.244 "/>
<path clip-path="url(#clip000)" d="M50.9921 1486.9 L80.6679 1486.9 L80.6679 1490.83 L50.9921 1490.83 L50.9921 1486.9 Z" fill="#000000" fill-rule="nonzero" fill-opacity="1" /><path clip-path="url(#clip000)" d="M91.5706 1499.79 L99.2095 1499.79 L99.2095 1473.43 L90.8993 1475.09 L90.8993 1470.83 L99.1632 1469.17 L103.839 1469.17 L103.839 1499.79 L111.478 1499.79 L111.478 1503.73 L91.5706 1503.73 L91.5706 1499.79 Z" fill="#000000" fill-rule="nonzero" fill-opacity="1" /><path clip-path="url(#clip000)" d="M130.922 1472.25 Q127.311 1472.25 125.482 1475.81 Q123.677 1479.35 123.677 1486.48 Q123.677 1493.59 125.482 1497.15 Q127.311 1500.7 130.922 1500.7 Q134.556 1500.7 136.362 1497.15 Q138.191 1493.59 138.191 1486.48 Q138.191 1479.35 136.362 1475.81 Q134.556 1472.25 130.922 1472.25 M130.922 1468.54 Q136.732 1468.54 139.788 1473.15 Q142.867 1477.73 142.867 1486.48 Q142.867 1495.21 139.788 1499.82 Q136.732 1504.4 130.922 1504.4 Q125.112 1504.4 122.033 1499.82 Q118.978 1495.21 118.978 1486.48 Q118.978 1477.73 122.033 1473.15 Q125.112 1468.54 130.922 1468.54 Z" fill="#000000" fill-rule="nonzero" fill-opacity="1" /><path clip-path="url(#clip000)" d="M82.1494 1327.1 L111.825 1327.1 L111.825 1331.03 L82.1494 1331.03 L82.1494 1327.1 Z" fill="#000000" fill-rule="nonzero" fill-opacity="1" /><path clip-path="url(#clip000)" d="M121.964 1309.37 L140.32 1309.37 L140.32 1313.3 L126.246 1313.3 L126.246 1321.77 Q127.265 1321.43 128.283 1321.27 Q129.302 1321.08 130.32 1321.08 Q136.107 1321.08 139.487 1324.25 Q142.867 1327.42 142.867 1332.84 Q142.867 1338.42 139.394 1341.52 Q135.922 1344.6 129.603 1344.6 Q127.427 1344.6 125.158 1344.23 Q122.913 1343.86 120.506 1343.12 L120.506 1338.42 Q122.589 1339.55 124.811 1340.11 Q127.033 1340.66 129.51 1340.66 Q133.515 1340.66 135.853 1338.56 Q138.191 1336.45 138.191 1332.84 Q138.191 1329.23 135.853 1327.12 Q133.515 1325.01 129.51 1325.01 Q127.635 1325.01 125.76 1325.43 Q123.908 1325.85 121.964 1326.73 L121.964 1309.37 Z" fill="#000000" fill-rule="nonzero" fill-opacity="1" /><path clip-path="url(#clip000)" d="M130.922 1152.64 Q127.311 1152.64 125.482 1156.21 Q123.677 1159.75 123.677 1166.88 Q123.677 1173.99 125.482 1177.55 Q127.311 1181.09 130.922 1181.09 Q134.556 1181.09 136.362 1177.55 Q138.191 1173.99 138.191 1166.88 Q138.191 1159.75 136.362 1156.21 Q134.556 1152.64 130.922 1152.64 M130.922 1148.94 Q136.732 1148.94 139.788 1153.55 Q142.867 1158.13 142.867 1166.88 Q142.867 1175.61 139.788 1180.21 Q136.732 1184.8 130.922 1184.8 Q125.112 1184.8 122.033 1180.21 Q118.978 1175.61 118.978 1166.88 Q118.978 1158.13 122.033 1153.55 Q125.112 1148.94 130.922 1148.94 Z" fill="#000000" fill-rule="nonzero" fill-opacity="1" /><path clip-path="url(#clip000)" d="M121.964 989.765 L140.32 989.765 L140.32 993.7 L126.246 993.7 L126.246 1002.17 Q127.265 1001.83 128.283 1001.66 Q129.302 1001.48 130.32 1001.48 Q136.107 1001.48 139.487 1004.65 Q142.867 1007.82 142.867 1013.24 Q142.867 1018.82 139.394 1021.92 Q135.922 1025 129.603 1025 Q127.427 1025 125.158 1024.63 Q122.913 1024.26 120.506 1023.51 L120.506 1018.82 Q122.589 1019.95 124.811 1020.51 Q127.033 1021.06 129.51 1021.06 Q133.515 1021.06 135.853 1018.95 Q138.191 1016.85 138.191 1013.24 Q138.191 1009.63 135.853 1007.52 Q133.515 1005.41 129.51 1005.41 Q127.635 1005.41 125.76 1005.83 Q123.908 1006.25 121.964 1007.13 L121.964 989.765 Z" fill="#000000" fill-rule="nonzero" fill-opacity="1" /><path clip-path="url(#clip000)" d="M91.5706 860.589 L99.2095 860.589 L99.2095 834.223 L90.8993 835.89 L90.8993 831.631 L99.1632 829.964 L103.839 829.964 L103.839 860.589 L111.478 860.589 L111.478 864.524 L91.5706 864.524 L91.5706 860.589 Z" fill="#000000" fill-rule="nonzero" fill-opacity="1" /><path clip-path="url(#clip000)" d="M130.922 833.043 Q127.311 833.043 125.482 836.608 Q123.677 840.149 123.677 847.279 Q123.677 854.385 125.482 857.95 Q127.311 861.492 130.922 861.492 Q134.556 861.492 136.362 857.95 Q138.191 854.385 138.191 847.279 Q138.191 840.149 136.362 836.608 Q134.556 833.043 130.922 833.043 M130.922 829.339 Q136.732 829.339 139.788 833.946 Q142.867 838.529 142.867 847.279 Q142.867 856.006 139.788 860.612 Q136.732 865.195 130.922 865.195 Q125.112 865.195 122.033 860.612 Q118.978 856.006 118.978 847.279 Q118.978 838.529 122.033 833.946 Q125.112 829.339 130.922 829.339 Z" fill="#000000" fill-rule="nonzero" fill-opacity="1" /><polyline clip-path="url(#clip003)" style="stroke:#009af9; stroke-linecap:round; stroke-linejoin:round; stroke-width:4; stroke-opacity:1; fill:none" points="240.392,1134.89 242.445,1186.36 244.498,1215.26 246.55,1114.62 248.603,1226.55 250.656,1417.48 252.709,1708.36 254.762,2195.01 256.815,870.184 258.868,1089.65 260.921,1163.34 262.974,1184.17 265.027,1201.59 267.079,1209.39 269.132,1246.85 271.185,1173.65 273.238,1091.01 275.291,1185.82 277.344,1160.51 279.397,1158.8 281.45,1168.35 283.503,1171.87 285.555,1174.98 287.608,1155.36 289.661,1120.78 291.714,1177.75 293.767,1153.91 295.82,1150.21 297.873,1263.03 299.926,1348.79 301.979,1343.2 304.031,1256.44 306.084,752.596 308.137,1985.52 310.19,420.652 312.243,1078.91 314.296,1209.78 316.349,1096.75 318.402,1140.65 320.455,1194.97 322.507,1153.73 324.56,1144.07 326.613,1161.35 328.666,1090.89 330.719,1200.54 332.772,1174.34 334.825,1150.82 336.878,1183.8 338.931,1180.03 340.984,1121.56 343.036,1074.68 345.089,989.399 347.142,1172.65 349.195,1131.39 351.248,1074.27 353.301,1215.72 355.354,1134.77 357.407,1155.85 359.46,1135.51 361.512,1128.47 363.565,1177.87 365.618,1173.33 367.671,1113.29 369.724,1172.12 371.777,1172.16 373.83,1168.71 375.883,1154.45 377.936,1193.85 379.988,1086.71 382.041,1112.81 384.094,1095 386.147,1078.42 388.2,1109.18 390.253,1221.31 392.306,1151.9 394.359,1171.15 396.412,1178.62 398.464,1162.36 400.517,1183.49 402.57,1110.8 404.623,1204.34 406.676,1161.84 408.729,1148.92 410.782,1169.04 412.835,1134.49 414.888,1070.36 416.94,1208.58 418.993,1152.08 421.046,1199 423.099,1102.84 425.152,1190.4 427.205,1147.44 429.258,1153.88 431.311,1126.18 433.364,1195.4 435.417,1192.19 437.469,1186.75 439.522,1170.12 441.575,1164.87 443.628,1180.76 445.681,1146.87 447.734,1167.31 449.787,1098.35 451.84,1230.81 453.893,1153.5 455.945,1079.55 457.998,1156.86 460.051,1152.2 462.104,1191.42 464.157,1163.38 466.21,1291.18 468.263,973.631 470.316,1222.2 472.369,1144.88 474.421,1142.62 476.474,1209.99 478.527,1185.12 480.58,1062.83 482.633,1298.87 484.686,1207.16 486.739,1117.14 488.792,1148.63 490.845,1101.1 492.897,1137.48 494.95,1135.99 497.003,1141.4 499.056,1221.89 501.109,1158.3 503.162,1164.02 505.215,1143.83 507.268,1133.2 509.321,1191.79 511.374,1154.71 513.426,1146.59 515.479,1173.7 517.532,1196.29 519.585,1192.14 521.638,1159.24 523.691,1178.59 525.744,1101.83 527.797,1128.99 529.85,1104.04 531.902,1226.93 533.955,1123.11 536.008,1181.92 538.061,1086.37 540.114,1201.96 542.167,1198.37 544.22,1132.11 546.273,1088.93 548.326,1172.43 550.378,1188.27 552.431,1213.23 554.484,1190.65 556.537,1173.85 558.59,1189.23 560.643,1143.25 562.696,1170.37 564.749,1213.34 566.802,1105.5 568.854,1191.57 570.907,1241.53 572.96,1213.33 575.013,1115.01 577.066,1163.38 579.119,1176.66 581.172,1175.56 583.225,1145.64 585.278,1180.77 587.331,1264.98 589.383,1136.71 591.436,1162.38 593.489,1294.86 595.542,516.572 597.595,1352.24 599.648,1154.76 601.701,1152.14 603.754,1144.57 605.807,1136.55 607.859,1320.58 609.912,1142.18 611.965,1173.82 614.018,1165.68 616.071,1183.16 618.124,1158.85 620.177,1320.2 622.23,1188.52 624.283,1172.92 626.335,1162.59 628.388,1171.6 630.441,1156.61 632.494,1136.9 634.547,1231.56 636.6,1148.24 638.653,1169.9 640.706,1136.48 642.759,1140.94 644.811,1174.51 646.864,1123.46 648.917,1083.83 650.97,1209.2 653.023,1193.21 655.076,1198.09 657.129,1175.3 659.182,1157.07 661.235,1182.53 663.288,1147.27 665.34,1166.29 667.393,1165.42 669.446,1151.93 671.499,1079.85 673.552,1156.4 675.605,1144.21 677.658,1156.25 679.711,1351.17 681.764,1087.72 683.816,1209.72 685.869,1113.6 687.922,1248.1 689.975,1304.2 692.028,812.164 694.081,1024.4 696.134,1152.26 698.187,1156.91 700.24,1212.3 702.292,1177.59 704.345,1360.23 706.398,1151.9 708.451,1149.95 710.504,1106.79 712.557,1201.42 714.61,1119.42 716.663,1143.37 718.716,1140.78 720.768,1124.76 722.821,1127.78 724.874,1097.94 726.927,1206.19 728.98,1212.61 731.033,1105.71 733.086,1131.17 735.139,1063.64 737.192,1146.11 739.245,1033.78 741.297,1103.18 743.35,1050.68 745.403,831.523 747.456,1267.25 749.509,1169.82 751.562,1214.59 753.615,1203.13 755.668,1202.02 757.721,1210.29 759.773,1138.49 761.826,1215.22 763.879,1094.55 765.932,1061.68 767.985,1081.52 770.038,1128.18 772.091,1120.58 774.144,1215.89 776.197,1169.94 778.249,1135.4 780.302,1125.99 782.355,1223.72 784.408,1146.31 786.461,1110.93 788.514,1218.62 790.567,1170.7 792.62,1188.27 794.673,1204.48 796.725,1140.08 798.778,1169.3 800.831,1171.55 802.884,1145.8 804.937,1139.18 806.99,1152.27 809.043,1145.36 811.096,1139.09 813.149,1187.65 815.202,1198.94 817.254,1084.75 819.307,1062.72 821.36,1227.5 823.413,1137.74 825.466,1534.21 827.519,1190.8 829.572,1116.48 831.625,1313.15 833.678,1020.42 835.73,1065.9 837.783,1170.92 839.836,1139.3 841.889,1154.69 843.942,1145.47 845.995,1169.06 848.048,1153.13 850.101,1172.07 852.154,1181.87 854.206,1185.28 856.259,1178.23 858.312,1207.79 860.365,1146.83 862.418,1080.48 864.471,1048.52 866.524,1194.55 868.577,1331.56 870.63,555.808 872.682,1630.25 874.735,901.509 876.788,271.702 878.841,2168.66 880.894,-63.9699 882.947,1181.82 885,1241.53 887.053,1202.69 889.106,1200.08 891.159,1129.94 893.211,1138.7 895.264,1153.43 897.317,1138.32 899.37,1176.73 901.423,1230.21 903.476,1082.18 905.529,1227.13 907.582,1171.33 909.635,1135.37 911.687,1057.24 913.74,1086.48 915.793,1194.53 917.846,1134.56 919.899,1158.03 921.952,1162.86 924.005,1184.31 926.058,1166.63 928.111,1169.22 930.163,1167.91 932.216,1111.39 934.269,1195.18 936.322,1122.64 938.375,1326.87 940.428,981.396 942.481,1202.15 944.534,1175.93 946.587,1192.04 948.639,1185.6 950.692,1233.46 952.745,1225.24 954.798,1924.21 956.851,756.947 958.904,1088.29 960.957,1280.59 963.01,807.11 965.063,-253.326 967.116,2554.63 969.168,1425.89 971.221,1474.03 973.274,1162.38 975.327,1188.02 977.38,1145.88 979.433,1164.66 981.486,1171.88 983.539,1171.64 985.592,1173.95 987.644,1193.84 989.697,1163.27 991.75,1172.83 993.803,1160.99 995.856,1163.66 997.909,1166.72 999.962,1241.73 1002.01,1285.66 1004.07,1100.81 1006.12,1152.75 1008.17,1179.55 1010.23,1144.53 1012.28,1142.52 1014.33,1156.3 1016.38,1153.85 1018.44,1096.06 1020.49,1308.24 1022.54,1223.58 1024.6,1296.33 1026.65,1285.07 1028.7,1253.44 1030.76,1149.75 1032.81,1199.81 1034.86,1898.79 1036.91,1779.77 1038.97,1086.84 1041.02,1167.38 1043.07,1190.77 1045.13,1140.37 1047.18,1242.28 1049.23,1150.27 1051.28,1248.45 1053.34,1244.64 1055.39,1049.56 1057.44,937.303 1059.5,1109.21 1061.55,1189.06 1063.6,1120.19 1065.65,1055.96 1067.71,1164.75 1069.76,1185.64 1071.81,1479.13 1073.87,980.178 1075.92,996.925 1077.97,1058.07 1080.02,1178.02 1082.08,1047.15 1084.13,1226.44 1086.18,1409.68 1088.24,934.032 1090.29,1190.49 1092.34,1144.65 1094.39,1139.57 1096.45,1169.61 1098.5,1165.56 1100.55,1156.77 1102.61,1191.25 1104.66,1193.79 1106.71,1192.58 1108.77,1150.14 1110.82,1077.46 1112.87,1227.36 1114.92,1154.96 1116.98,1191.05 1119.03,1109.41 1121.08,1152.29 1123.14,1194.61 1125.19,1184.97 1127.24,1130.66 1129.29,1140.4 1131.35,1146.36 1133.4,1155.4 1135.45,1158.8 1137.51,1195.72 1139.56,1139.77 1141.61,1147.63 1143.66,1149.6 1145.72,1110.16 1147.77,1167 1149.82,1168.24 1151.88,1151.29 1153.93,1199 1155.98,1168.04 1158.03,1166.91 1160.09,1162.82 1162.14,1182.25 1164.19,1142.34 1166.25,1090.25 1168.3,1086.82 1170.35,1123.89 1172.4,1146.59 1174.46,1107.24 1176.51,1146.22 1178.56,1194.05 1180.62,1180.88 1182.67,1212.67 1184.72,1206.54 1186.77,974.178 1188.83,545.453 1190.88,1873.54 1192.93,1501.71 1194.99,1647.27 1197.04,1613.27 1199.09,1450.05 1201.15,1374.82 1203.2,1104.48 1205.25,1251.87 1207.3,1195.47 1209.36,1125.42 1211.41,1209.42 1213.46,1212.79 1215.52,1105.05 1217.57,1110.92 1219.62,1143.59 1221.67,1063.99 1223.73,1220.74 1225.78,1146.7 1227.83,1159.89 1229.89,1167.3 1231.94,993.206 1233.99,1108.99 1236.04,1186.49 1238.1,1173.12 1240.15,1149.29 1242.2,1193.58 1244.26,1196.88 1246.31,1195.51 1248.36,1150.65 1250.41,1188.91 1252.47,1100.95 1254.52,1189.58 1256.57,1149.73 1258.63,1159.21 1260.68,1151.95 1262.73,954.2 1264.78,985.956 1266.84,1135.1 1268.89,1154.35 1270.94,1203.23 1273,1156.66 1275.05,1198.28 1277.1,1161 1279.16,1151.61 1281.21,1132.79 1283.26,1182.99 1285.31,1209.68 1287.37,1132.63 1289.42,1211.93 1291.47,1160.78 1293.53,1170.11 1295.58,1227.17 1297.63,1176.44 1299.68,1192.85 1301.74,1345.26 1303.79,1127.16 1305.84,1371.08 1307.9,1319.88 1309.95,1376.82 1312,1691.76 1314.05,908.254 1316.11,1216.72 1318.16,1085.5 1320.21,1217.06 1322.27,1113.96 1324.32,1127.79 1326.37,1076.99 1328.42,1169.36 1330.48,1122.87 1332.53,1154.15 1334.58,1157.97 1336.64,1134.63 1338.69,1151.33 1340.74,1186.69 1342.79,1182.9 1344.85,1202.39 1346.9,1186.39 1348.95,1146.2 1351.01,1169.84 1353.06,1155.86 1355.11,1183.8 1357.16,1157.65 1359.22,1138.48 1361.27,1145.79 1363.32,1238.41 1365.38,1155.23 1367.43,1219.35 1369.48,1159.22 1371.54,1171.36 1373.59,1118.95 1375.64,1128.7 1377.69,1159.86 1379.75,1203.62 1381.8,1157.53 1383.85,1136.56 1385.91,1146.69 1387.96,1089.8 1390.01,1246.3 1392.06,1004.37 1394.12,689.722 1396.17,952.808 1398.22,4806.74 1400.28,550.589 1402.33,929.552 1404.38,1358.55 1406.43,1112.86 1408.49,1226.71 1410.54,1155.07 1412.59,1163.29 1414.65,1121.84 1416.7,1235.84 1418.75,1128.79 1420.8,1142.97 1422.86,1115.29 1424.91,1134.05 1426.96,1241.68 1429.02,963.78 1431.07,916.009 1433.12,962.002 1435.17,1047.17 1437.23,1249.35 1439.28,1118.2 1441.33,1125.76 1443.39,1100.93 1445.44,1156.47 1447.49,1163.24 1449.55,1241.58 1451.6,1106.64 1453.65,1092.35 1455.7,1064.88 1457.76,683.195 1459.81,1267.35 1461.86,1269.17 1463.92,672.027 1465.97,1527.74 1468.02,1551.67 1470.07,1044.16 1472.13,1161.66 1474.18,1151.5 1476.23,1162.09 1478.29,1175.61 1480.34,1160.44 1482.39,1157.41 1484.44,1164.57 1486.5,1257.47 1488.55,1149.32 1490.6,1191.97 1492.66,1221.89 1494.71,1189.51 1496.76,1141.47 1498.81,1211.78 1500.87,1171.29 1502.92,1156.85 1504.97,1110.61 1507.03,1178.01 1509.08,1164.36 1511.13,1172 1513.18,1168.54 1515.24,1178.06 1517.29,1145.41 1519.34,1187.09 1521.4,1181.39 1523.45,1166.18 1525.5,1166.31 1527.55,1095.5 1529.61,1192.65 1531.66,1136.95 1533.71,1111.46 1535.77,1256.04 1537.82,1238.47 1539.87,1268.91 1541.93,1093.63 1543.98,1332.82 1546.03,1162.05 1548.08,1160.25 1550.14,1347.48 1552.19,1093.92 1554.24,1112.79 1556.3,1030.36 1558.35,1165.87 1560.4,1124.76 1562.45,1219.08 1564.51,1065.1 1566.56,1097.36 1568.61,1041.71 1570.67,-826.033 1572.72,969.453 1574.77,1264.93 1576.82,1186.45 1578.88,1188.61 1580.93,850.805 1582.98,1434.85 1585.04,1377.55 1587.09,1205.58 1589.14,1099.74 1591.19,1044.26 1593.25,1186.49 1595.3,1096.26 1597.35,1129.21 1599.41,1145.23 1601.46,1160.07 1603.51,1034.34 1605.56,1151.99 1607.62,1160.74 1609.67,1211.83 1611.72,1118.8 1613.78,1168.32 1615.83,1119.06 1617.88,1190.02 1619.94,1150.47 1621.99,1197.95 1624.04,1213.71 1626.09,1112.81 1628.15,1026 1630.2,1137.25 1632.25,1037.04 1634.31,1502.94 1636.36,1161.64 1638.41,647.199 1640.46,1715.41 1642.52,1815.18 1644.57,1504.36 1646.62,1028.12 1648.68,1448.44 1650.73,1271.67 1652.78,1158.45 1654.83,1177.98 1656.89,1143.1 1658.94,1299.94 1660.99,1287.38 1663.05,1149.71 1665.1,1210.69 1667.15,1235.61 1669.2,1366.24 1671.26,1170.5 1673.31,1170.32 1675.36,1163.86 1677.42,1156.58 1679.47,1181.04 1681.52,1139.96 1683.57,1167.43 1685.63,1174.35 1687.68,1183.1 1689.73,1106.92 1691.79,1242.71 1693.84,1259.82 1695.89,1145.35 1697.94,1181.5 1700,1214.71 1702.05,1210.7 1704.1,1193.63 1706.16,1171.94 1708.21,1169.81 1710.26,1140.18 1712.32,1170.31 1714.37,1130.67 1716.42,1180.7 1718.47,1173.59 1720.53,1175.44 1722.58,1154.46 1724.63,1198.63 1726.69,1195.8 1728.74,1106.8 1730.79,1027.64 1732.84,1134.48 1734.9,1068.97 1736.95,1249.65 1739,1153.72 1741.06,1002.52 1743.11,938.534 1745.16,1169.61 1747.21,1212.66 1749.27,1113.23 1751.32,1210.84 1753.37,1153.45 1755.43,1150.74 1757.48,1189.65 1759.53,1083.25 1761.58,1155.17 1763.64,1155.81 1765.69,1170.95 1767.74,1304.72 1769.8,1198.15 1771.85,1249.61 1773.9,1144.49 1775.95,1168.06 1778.01,1166.79 1780.06,1155.94 1782.11,1197.35 1784.17,1235.74 1786.22,1232.74 1788.27,1180.05 1790.33,1034.85 1792.38,1042.7 1794.43,1256.85 1796.48,1171.61 1798.54,1173.98 1800.59,1177.3 1802.64,1170.61 1804.7,1133.18 1806.75,1204.18 1808.8,1141.61 1810.85,1153.07 1812.91,1188.46 1814.96,1179.73 1817.01,1187.63 1819.07,1179.73 1821.12,1176.39 1823.17,1198.14 1825.22,1191.83 1827.28,1112.44 1829.33,1122.5 1831.38,1200.19 1833.44,1109.04 1835.49,1188.39 1837.54,1208.56 1839.59,1175.51 1841.65,1199.4 1843.7,1118.99 1845.75,1122.84 1847.81,1149.95 1849.86,1101.89 1851.91,1224.06 1853.96,1075.46 1856.02,1164.34 1858.07,1151.7 1860.12,1146.57 1862.18,1168.88 1864.23,1191.52 1866.28,1198.35 1868.34,1205.39 1870.39,1133.56 1872.44,219.37 1874.49,1251.87 1876.55,1238.13 1878.6,1171.02 1880.65,1152.84 1882.71,1078.48 1884.76,1437.89 1886.81,1153.02 1888.86,1172.45 1890.92,1219.28 1892.97,1118.37 1895.02,1302.61 1897.08,1200.74 1899.13,1195.63 1901.18,1137.98 1903.23,1151.63 1905.29,1147.61 1907.34,1152.07 1909.39,1177.62 1911.45,1291.84 1913.5,1242.9 1915.55,1265.84 1917.6,2970.65 1919.66,788.791 1921.71,621.538 1923.76,1684.71 1925.82,1182.94 1927.87,1175.24 1929.92,1172.99 1931.97,1164.31 1934.03,1170.07 1936.08,1176.51 1938.13,1206.88 1940.19,1129.22 1942.24,1171.45 1944.29,1172.73 1946.34,1176.06 1948.4,1312.23 1950.45,1122.04 1952.5,1150.09 1954.56,1154.75 1956.61,1160.71 1958.66,1168.59 1960.72,1147.36 1962.77,1106.49 1964.82,1127.48 1966.87,1039.69 1968.93,1110.04 1970.98,1204.64 1973.03,1165.8 1975.09,1161.08 1977.14,1144.2 1979.19,1154.77 1981.24,1170.94 1983.3,1225.1 1985.35,1257.31 1987.4,1153.49 1989.46,1155.99 1991.51,1183.82 1993.56,1157.35 1995.61,1147.95 1997.67,1133.13 1999.72,1175.8 2001.77,1210.57 2003.83,1211.45 2005.88,1149.6 2007.93,1220.42 2009.98,1186.23 2012.04,1143.17 2014.09,1065.99 2016.14,1196.85 2018.2,1210.87 2020.25,1236 2022.3,1384.33 2024.35,1149.98 2026.41,1040.38 2028.46,1205.86 2030.51,1387.83 2032.57,1216.03 2034.62,1267.57 2036.67,1806.88 2038.73,1272.11 2040.78,1258.83 2042.83,1179.73 2044.88,1203.43 2046.94,1229.18 2048.99,1238.41 2051.04,1148.3 2053.1,1105.06 2055.15,1019.64 2057.2,1326.25 2059.25,1109.09 2061.31,1386.14 2063.36,1124.05 2065.41,1175.52 2067.47,1016.67 2069.52,1235.55 2071.57,1133.53 2073.62,1138.73 2075.68,1215.97 2077.73,1144.91 2079.78,1159.67 2081.84,1125.59 2083.89,1163.33 2085.94,1152.78 2087.99,1057 2090.05,1204.44 2092.1,1142.27 2094.15,1146.42 2096.21,1193.2 2098.26,1200.65 2100.31,1204.4 2102.36,1148.5 2104.42,1210.29 2106.47,1226.55 2108.52,1167.86 2110.58,1166.34 2112.63,1165.6 2114.68,1170.65 2116.73,1188.03 2118.79,1180.66 2120.84,1180 2122.89,1221.45 2124.95,1221.04 2127,1434.8 2129.05,1212.07 2131.11,1231.85 2133.16,1529.67 2135.21,898.817 2137.26,1118.46 2139.32,1162.89 2141.37,1158.53 2143.42,959.334 2145.48,1038.31 2147.53,1149.62 2149.58,1144.5 2151.63,975.024 2153.69,1080.04 2155.74,1127.86 2157.79,1166.75 2159.85,1131.58 2161.9,1202.36 2163.95,1191.31 2166,1123.84 2168.06,1081.95 2170.11,1148.38 2172.16,1270.71 2174.22,1204.48 2176.27,1182.37 2178.32,1158.69 2180.37,1160.62 2182.43,1193.35 2184.48,1194.18 2186.53,1138.85 2188.59,922.225 2190.64,1126.09 2192.69,1156.2 2194.74,608.508 2196.8,102.469 2198.85,1403.73 2200.9,1179.98 2202.96,1078.9 2205.01,1183.01 2207.06,771.911 2209.12,1406.48 2211.17,924.187 2213.22,1490.41 2215.27,86.3805 2217.33,1141.67 2219.38,1242.84 2221.43,1134.84 2223.49,1205.5 2225.54,1187.43 2227.59,1201.86 2229.64,1199.74 2231.7,1336.12 2233.75,985.355 2235.8,1066.15 2237.86,1277.99 2239.91,1113.73 2241.96,1144.3 2244.01,1210.92 2246.07,1147.62 2248.12,1187.96 2250.17,1178.39 2252.23,1154.94 2254.28,1154.62 2256.33,1171.44 2258.38,1159.83 2260.44,1179.72 2262.49,1171.32 2264.54,1174.87 2266.6,1161.86 2268.65,1162.95 2270.7,1139.55 2272.75,1109.17 2274.81,1157.9 2276.86,1163.4 2278.91,1183.37 2280.97,1159.28 2283.02,1210.31 2285.07,1036.88 2287.12,1214.85 2289.18,1238.22 2291.23,1150.64 "/>
<path clip-path="url(#clip000)" d="M251.33 1465.14 L588.926 1465.14 L588.926 1361.46 L251.33 1361.46  Z" fill="#ffffff" fill-rule="evenodd" fill-opacity="1"/>
<polyline clip-path="url(#clip000)" style="stroke:#000000; stroke-linecap:round; stroke-linejoin:round; stroke-width:4; stroke-opacity:1; fill:none" points="251.33,1465.14 588.926,1465.14 588.926,1361.46 251.33,1361.46 251.33,1465.14 "/>
<polyline clip-path="url(#clip000)" style="stroke:#009af9; stroke-linecap:round; stroke-linejoin:round; stroke-width:4; stroke-opacity:1; fill:none" points="275.484,1413.3 420.41,1413.3 "/>
<path clip-path="url(#clip000)" d="M470.12 1425.65 L470.12 1416.37 L462.481 1416.37 L462.481 1412.53 L474.749 1412.53 L474.749 1427.36 Q472.041 1429.28 468.777 1430.28 Q465.513 1431.25 461.809 1431.25 Q453.708 1431.25 449.124 1426.53 Q444.564 1421.78 444.564 1413.34 Q444.564 1404.86 449.124 1400.14 Q453.708 1395.4 461.809 1395.4 Q465.189 1395.4 468.221 1396.23 Q471.277 1397.06 473.846 1398.68 L473.846 1403.66 Q471.254 1401.46 468.337 1400.35 Q465.421 1399.24 462.203 1399.24 Q455.86 1399.24 452.666 1402.78 Q449.495 1406.32 449.495 1413.34 Q449.495 1420.33 452.666 1423.87 Q455.86 1427.41 462.203 1427.41 Q464.68 1427.41 466.624 1426.99 Q468.569 1426.55 470.12 1425.65 Z" fill="#000000" fill-rule="nonzero" fill-opacity="1" /><path clip-path="url(#clip000)" d="M487.967 1399.86 L487.967 1412.85 L493.846 1412.85 Q497.11 1412.85 498.893 1411.16 Q500.675 1409.47 500.675 1406.35 Q500.675 1403.24 498.893 1401.55 Q497.11 1399.86 493.846 1399.86 L487.967 1399.86 M483.291 1396.02 L493.846 1396.02 Q499.657 1396.02 502.619 1398.66 Q505.606 1401.28 505.606 1406.35 Q505.606 1411.46 502.619 1414.08 Q499.657 1416.69 493.846 1416.69 L487.967 1416.69 L487.967 1430.58 L483.291 1430.58 L483.291 1396.02 Z" fill="#000000" fill-rule="nonzero" fill-opacity="1" /><path clip-path="url(#clip000)" d="M532.596 1397.16 L532.596 1401.72 Q529.934 1400.44 527.573 1399.82 Q525.212 1399.19 523.013 1399.19 Q519.193 1399.19 517.11 1400.67 Q515.05 1402.16 515.05 1404.89 Q515.05 1407.18 516.416 1408.36 Q517.805 1409.52 521.647 1410.23 L524.471 1410.81 Q529.703 1411.81 532.179 1414.33 Q534.679 1416.83 534.679 1421.04 Q534.679 1426.07 531.3 1428.66 Q527.943 1431.25 521.439 1431.25 Q518.985 1431.25 516.207 1430.7 Q513.453 1430.14 510.49 1429.05 L510.49 1424.24 Q513.337 1425.84 516.068 1426.65 Q518.8 1427.46 521.439 1427.46 Q525.443 1427.46 527.619 1425.88 Q529.795 1424.31 529.795 1421.39 Q529.795 1418.85 528.221 1417.41 Q526.67 1415.97 523.105 1415.26 L520.258 1414.7 Q515.027 1413.66 512.689 1411.44 Q510.351 1409.22 510.351 1405.26 Q510.351 1400.67 513.568 1398.03 Q516.809 1395.4 522.48 1395.4 Q524.911 1395.4 527.434 1395.84 Q529.957 1396.28 532.596 1397.16 Z" fill="#000000" fill-rule="nonzero" fill-opacity="1" /><path clip-path="url(#clip000)" d="M562.689 1397.16 L562.689 1401.72 Q560.027 1400.44 557.665 1399.82 Q555.304 1399.19 553.105 1399.19 Q549.286 1399.19 547.203 1400.67 Q545.142 1402.16 545.142 1404.89 Q545.142 1407.18 546.508 1408.36 Q547.897 1409.52 551.74 1410.23 L554.564 1410.81 Q559.795 1411.81 562.272 1414.33 Q564.772 1416.83 564.772 1421.04 Q564.772 1426.07 561.392 1428.66 Q558.036 1431.25 551.531 1431.25 Q549.078 1431.25 546.3 1430.7 Q543.545 1430.14 540.582 1429.05 L540.582 1424.24 Q543.429 1425.84 546.161 1426.65 Q548.892 1427.46 551.531 1427.46 Q555.536 1427.46 557.712 1425.88 Q559.888 1424.31 559.888 1421.39 Q559.888 1418.85 558.314 1417.41 Q556.763 1415.97 553.198 1415.26 L550.351 1414.7 Q545.119 1413.66 542.781 1411.44 Q540.443 1409.22 540.443 1405.26 Q540.443 1400.67 543.661 1398.03 Q546.902 1395.4 552.573 1395.4 Q555.003 1395.4 557.527 1395.84 Q560.05 1396.28 562.689 1397.16 Z" fill="#000000" fill-rule="nonzero" fill-opacity="1" /></svg>
