<?xml version="1.0" encoding="utf-8"?>
<svg xmlns="http://www.w3.org/2000/svg" xmlns:xlink="http://www.w3.org/1999/xlink" width="600" height="400" viewBox="0 0 2400 1600">
<defs>
  <clipPath id="clip740">
    <rect x="0" y="0" width="2400" height="1600"/>
  </clipPath>
</defs>
<path clip-path="url(#clip740)" d="M0 1600 L2400 1600 L2400 0 L0 0  Z" fill="#ffffff" fill-rule="evenodd" fill-opacity="1"/>
<defs>
  <clipPath id="clip741">
    <rect x="480" y="0" width="1681" height="1600"/>
  </clipPath>
</defs>
<path clip-path="url(#clip740)" d="M178.867 686.448 L2352.76 686.448 L2352.76 47.2441 L178.867 47.2441  Z" fill="#ffffff" fill-rule="evenodd" fill-opacity="1"/>
<defs>
  <clipPath id="clip742">
    <rect x="178" y="47" width="2175" height="640"/>
  </clipPath>
</defs>
<polyline clip-path="url(#clip742)" style="stroke:#000000; stroke-linecap:round; stroke-linejoin:round; stroke-width:2; stroke-opacity:0.1; fill:none" points="238.339,686.448 238.339,47.2441 "/>
<polyline clip-path="url(#clip742)" style="stroke:#000000; stroke-linecap:round; stroke-linejoin:round; stroke-width:2; stroke-opacity:0.1; fill:none" points="751.562,686.448 751.562,47.2441 "/>
<polyline clip-path="url(#clip742)" style="stroke:#000000; stroke-linecap:round; stroke-linejoin:round; stroke-width:2; stroke-opacity:0.1; fill:none" points="1264.78,686.448 1264.78,47.2441 "/>
<polyline clip-path="url(#clip742)" style="stroke:#000000; stroke-linecap:round; stroke-linejoin:round; stroke-width:2; stroke-opacity:0.1; fill:none" points="1778.01,686.448 1778.01,47.2441 "/>
<polyline clip-path="url(#clip742)" style="stroke:#000000; stroke-linecap:round; stroke-linejoin:round; stroke-width:2; stroke-opacity:0.1; fill:none" points="2291.23,686.448 2291.23,47.2441 "/>
<polyline clip-path="url(#clip742)" style="stroke:#000000; stroke-linecap:round; stroke-linejoin:round; stroke-width:2; stroke-opacity:0.1; fill:none" points="178.867,686.448 2352.76,686.448 "/>
<polyline clip-path="url(#clip742)" style="stroke:#000000; stroke-linecap:round; stroke-linejoin:round; stroke-width:2; stroke-opacity:0.1; fill:none" points="178.867,526.647 2352.76,526.647 "/>
<polyline clip-path="url(#clip742)" style="stroke:#000000; stroke-linecap:round; stroke-linejoin:round; stroke-width:2; stroke-opacity:0.1; fill:none" points="178.867,366.846 2352.76,366.846 "/>
<polyline clip-path="url(#clip742)" style="stroke:#000000; stroke-linecap:round; stroke-linejoin:round; stroke-width:2; stroke-opacity:0.1; fill:none" points="178.867,207.045 2352.76,207.045 "/>
<polyline clip-path="url(#clip742)" style="stroke:#000000; stroke-linecap:round; stroke-linejoin:round; stroke-width:2; stroke-opacity:0.1; fill:none" points="178.867,47.2441 2352.76,47.2441 "/>
<polyline clip-path="url(#clip740)" style="stroke:#000000; stroke-linecap:round; stroke-linejoin:round; stroke-width:4; stroke-opacity:1; fill:none" points="178.867,686.448 2352.76,686.448 "/>
<polyline clip-path="url(#clip740)" style="stroke:#000000; stroke-linecap:round; stroke-linejoin:round; stroke-width:4; stroke-opacity:1; fill:none" points="238.339,686.448 238.339,667.55 "/>
<polyline clip-path="url(#clip740)" style="stroke:#000000; stroke-linecap:round; stroke-linejoin:round; stroke-width:4; stroke-opacity:1; fill:none" points="751.562,686.448 751.562,667.55 "/>
<polyline clip-path="url(#clip740)" style="stroke:#000000; stroke-linecap:round; stroke-linejoin:round; stroke-width:4; stroke-opacity:1; fill:none" points="1264.78,686.448 1264.78,667.55 "/>
<polyline clip-path="url(#clip740)" style="stroke:#000000; stroke-linecap:round; stroke-linejoin:round; stroke-width:4; stroke-opacity:1; fill:none" points="1778.01,686.448 1778.01,667.55 "/>
<polyline clip-path="url(#clip740)" style="stroke:#000000; stroke-linecap:round; stroke-linejoin:round; stroke-width:4; stroke-opacity:1; fill:none" points="2291.23,686.448 2291.23,667.55 "/>
<path clip-path="url(#clip740)" d="M238.339 717.367 Q234.728 717.367 232.899 720.931 Q231.094 724.473 231.094 731.603 Q231.094 738.709 232.899 742.274 Q234.728 745.815 238.339 745.815 Q241.973 745.815 243.779 742.274 Q245.607 738.709 245.607 731.603 Q245.607 724.473 243.779 720.931 Q241.973 717.367 238.339 717.367 M238.339 713.663 Q244.149 713.663 247.205 718.269 Q250.283 722.853 250.283 731.603 Q250.283 740.329 247.205 744.936 Q244.149 749.519 238.339 749.519 Q232.529 749.519 229.45 744.936 Q226.395 740.329 226.395 731.603 Q226.395 722.853 229.45 718.269 Q232.529 713.663 238.339 713.663 Z" fill="#000000" fill-rule="nonzero" fill-opacity="1" /><path clip-path="url(#clip740)" d="M715.254 744.913 L731.574 744.913 L731.574 748.848 L709.629 748.848 L709.629 744.913 Q712.291 742.158 716.875 737.528 Q721.481 732.876 722.662 731.533 Q724.907 729.01 725.787 727.274 Q726.689 725.515 726.689 723.825 Q726.689 721.07 724.745 719.334 Q722.824 717.598 719.722 717.598 Q717.523 717.598 715.069 718.362 Q712.638 719.126 709.861 720.677 L709.861 715.955 Q712.685 714.82 715.138 714.242 Q717.592 713.663 719.629 713.663 Q725 713.663 728.194 716.348 Q731.388 719.033 731.388 723.524 Q731.388 725.654 730.578 727.575 Q729.791 729.473 727.685 732.066 Q727.106 732.737 724.004 735.954 Q720.902 739.149 715.254 744.913 Z" fill="#000000" fill-rule="nonzero" fill-opacity="1" /><path clip-path="url(#clip740)" d="M741.435 714.288 L759.791 714.288 L759.791 718.223 L745.717 718.223 L745.717 726.695 Q746.736 726.348 747.754 726.186 Q748.773 726.001 749.791 726.001 Q755.578 726.001 758.958 729.172 Q762.337 732.343 762.337 737.76 Q762.337 743.339 758.865 746.44 Q755.393 749.519 749.073 749.519 Q746.898 749.519 744.629 749.149 Q742.384 748.778 739.976 748.038 L739.976 743.339 Q742.06 744.473 744.282 745.028 Q746.504 745.584 748.981 745.584 Q752.985 745.584 755.323 743.478 Q757.661 741.371 757.661 737.76 Q757.661 734.149 755.323 732.042 Q752.985 729.936 748.981 729.936 Q747.106 729.936 745.231 730.353 Q743.379 730.769 741.435 731.649 L741.435 714.288 Z" fill="#000000" fill-rule="nonzero" fill-opacity="1" /><path clip-path="url(#clip740)" d="M781.55 717.367 Q777.939 717.367 776.11 720.931 Q774.305 724.473 774.305 731.603 Q774.305 738.709 776.11 742.274 Q777.939 745.815 781.55 745.815 Q785.184 745.815 786.99 742.274 Q788.819 738.709 788.819 731.603 Q788.819 724.473 786.99 720.931 Q785.184 717.367 781.55 717.367 M781.55 713.663 Q787.36 713.663 790.416 718.269 Q793.495 722.853 793.495 731.603 Q793.495 740.329 790.416 744.936 Q787.36 749.519 781.55 749.519 Q775.74 749.519 772.661 744.936 Q769.606 740.329 769.606 731.603 Q769.606 722.853 772.661 718.269 Q775.74 713.663 781.55 713.663 Z" fill="#000000" fill-rule="nonzero" fill-opacity="1" /><path clip-path="url(#clip740)" d="M1224.4 714.288 L1242.76 714.288 L1242.76 718.223 L1228.69 718.223 L1228.69 726.695 Q1229.7 726.348 1230.72 726.186 Q1231.74 726.001 1232.76 726.001 Q1238.55 726.001 1241.93 729.172 Q1245.31 732.343 1245.31 737.76 Q1245.31 743.339 1241.83 746.44 Q1238.36 749.519 1232.04 749.519 Q1229.87 749.519 1227.6 749.149 Q1225.35 748.778 1222.94 748.038 L1222.94 743.339 Q1225.03 744.473 1227.25 745.028 Q1229.47 745.584 1231.95 745.584 Q1235.95 745.584 1238.29 743.478 Q1240.63 741.371 1240.63 737.76 Q1240.63 734.149 1238.29 732.042 Q1235.95 729.936 1231.95 729.936 Q1230.07 729.936 1228.2 730.353 Q1226.35 730.769 1224.4 731.649 L1224.4 714.288 Z" fill="#000000" fill-rule="nonzero" fill-opacity="1" /><path clip-path="url(#clip740)" d="M1264.52 717.367 Q1260.91 717.367 1259.08 720.931 Q1257.27 724.473 1257.27 731.603 Q1257.27 738.709 1259.08 742.274 Q1260.91 745.815 1264.52 745.815 Q1268.15 745.815 1269.96 742.274 Q1271.79 738.709 1271.79 731.603 Q1271.79 724.473 1269.96 720.931 Q1268.15 717.367 1264.52 717.367 M1264.52 713.663 Q1270.33 713.663 1273.38 718.269 Q1276.46 722.853 1276.46 731.603 Q1276.46 740.329 1273.38 744.936 Q1270.33 749.519 1264.52 749.519 Q1258.71 749.519 1255.63 744.936 Q1252.57 740.329 1252.57 731.603 Q1252.57 722.853 1255.63 718.269 Q1258.71 713.663 1264.52 713.663 Z" fill="#000000" fill-rule="nonzero" fill-opacity="1" /><path clip-path="url(#clip740)" d="M1294.68 717.367 Q1291.07 717.367 1289.24 720.931 Q1287.44 724.473 1287.44 731.603 Q1287.44 738.709 1289.24 742.274 Q1291.07 745.815 1294.68 745.815 Q1298.31 745.815 1300.12 742.274 Q1301.95 738.709 1301.95 731.603 Q1301.95 724.473 1300.12 720.931 Q1298.31 717.367 1294.68 717.367 M1294.68 713.663 Q1300.49 713.663 1303.55 718.269 Q1306.62 722.853 1306.62 731.603 Q1306.62 740.329 1303.55 744.936 Q1300.49 749.519 1294.68 749.519 Q1288.87 749.519 1285.79 744.936 Q1282.74 740.329 1282.74 731.603 Q1282.74 722.853 1285.79 718.269 Q1288.87 713.663 1294.68 713.663 Z" fill="#000000" fill-rule="nonzero" fill-opacity="1" /><path clip-path="url(#clip740)" d="M1736.28 714.288 L1758.51 714.288 L1758.51 716.279 L1745.96 748.848 L1741.08 748.848 L1752.88 718.223 L1736.28 718.223 L1736.28 714.288 Z" fill="#000000" fill-rule="nonzero" fill-opacity="1" /><path clip-path="url(#clip740)" d="M1767.67 714.288 L1786.03 714.288 L1786.03 718.223 L1771.95 718.223 L1771.95 726.695 Q1772.97 726.348 1773.99 726.186 Q1775.01 726.001 1776.03 726.001 Q1781.82 726.001 1785.2 729.172 Q1788.57 732.343 1788.57 737.76 Q1788.57 743.339 1785.1 746.44 Q1781.63 749.519 1775.31 749.519 Q1773.14 749.519 1770.87 749.149 Q1768.62 748.778 1766.21 748.038 L1766.21 743.339 Q1768.3 744.473 1770.52 745.028 Q1772.74 745.584 1775.22 745.584 Q1779.22 745.584 1781.56 743.478 Q1783.9 741.371 1783.9 737.76 Q1783.9 734.149 1781.56 732.042 Q1779.22 729.936 1775.22 729.936 Q1773.34 729.936 1771.47 730.353 Q1769.62 730.769 1767.67 731.649 L1767.67 714.288 Z" fill="#000000" fill-rule="nonzero" fill-opacity="1" /><path clip-path="url(#clip740)" d="M1807.79 717.367 Q1804.18 717.367 1802.35 720.931 Q1800.54 724.473 1800.54 731.603 Q1800.54 738.709 1802.35 742.274 Q1804.18 745.815 1807.79 745.815 Q1811.42 745.815 1813.23 742.274 Q1815.06 738.709 1815.06 731.603 Q1815.06 724.473 1813.23 720.931 Q1811.42 717.367 1807.79 717.367 M1807.79 713.663 Q1813.6 713.663 1816.65 718.269 Q1819.73 722.853 1819.73 731.603 Q1819.73 740.329 1816.65 744.936 Q1813.6 749.519 1807.79 749.519 Q1801.98 749.519 1798.9 744.936 Q1795.84 740.329 1795.84 731.603 Q1795.84 722.853 1798.9 718.269 Q1801.98 713.663 1807.79 713.663 Z" fill="#000000" fill-rule="nonzero" fill-opacity="1" /><path clip-path="url(#clip740)" d="M2235.76 744.913 L2243.4 744.913 L2243.4 718.547 L2235.09 720.214 L2235.09 715.955 L2243.35 714.288 L2248.02 714.288 L2248.02 744.913 L2255.66 744.913 L2255.66 748.848 L2235.76 748.848 L2235.76 744.913 Z" fill="#000000" fill-rule="nonzero" fill-opacity="1" /><path clip-path="url(#clip740)" d="M2275.11 717.367 Q2271.5 717.367 2269.67 720.931 Q2267.86 724.473 2267.86 731.603 Q2267.86 738.709 2269.67 742.274 Q2271.5 745.815 2275.11 745.815 Q2278.74 745.815 2280.55 742.274 Q2282.38 738.709 2282.38 731.603 Q2282.38 724.473 2280.55 720.931 Q2278.74 717.367 2275.11 717.367 M2275.11 713.663 Q2280.92 713.663 2283.97 718.269 Q2287.05 722.853 2287.05 731.603 Q2287.05 740.329 2283.97 744.936 Q2280.92 749.519 2275.11 749.519 Q2269.3 749.519 2266.22 744.936 Q2263.16 740.329 2263.16 731.603 Q2263.16 722.853 2266.22 718.269 Q2269.3 713.663 2275.11 713.663 Z" fill="#000000" fill-rule="nonzero" fill-opacity="1" /><path clip-path="url(#clip740)" d="M2305.27 717.367 Q2301.66 717.367 2299.83 720.931 Q2298.02 724.473 2298.02 731.603 Q2298.02 738.709 2299.83 742.274 Q2301.66 745.815 2305.27 745.815 Q2308.9 745.815 2310.71 742.274 Q2312.54 738.709 2312.54 731.603 Q2312.54 724.473 2310.71 720.931 Q2308.9 717.367 2305.27 717.367 M2305.27 713.663 Q2311.08 713.663 2314.14 718.269 Q2317.21 722.853 2317.21 731.603 Q2317.21 740.329 2314.14 744.936 Q2311.08 749.519 2305.27 749.519 Q2299.46 749.519 2296.38 744.936 Q2293.33 740.329 2293.33 731.603 Q2293.33 722.853 2296.38 718.269 Q2299.46 713.663 2305.27 713.663 Z" fill="#000000" fill-rule="nonzero" fill-opacity="1" /><path clip-path="url(#clip740)" d="M2335.43 717.367 Q2331.82 717.367 2329.99 720.931 Q2328.19 724.473 2328.19 731.603 Q2328.19 738.709 2329.99 742.274 Q2331.82 745.815 2335.43 745.815 Q2339.07 745.815 2340.87 742.274 Q2342.7 738.709 2342.7 731.603 Q2342.7 724.473 2340.87 720.931 Q2339.07 717.367 2335.43 717.367 M2335.43 713.663 Q2341.24 713.663 2344.3 718.269 Q2347.38 722.853 2347.38 731.603 Q2347.38 740.329 2344.3 744.936 Q2341.24 749.519 2335.43 749.519 Q2329.62 749.519 2326.54 744.936 Q2323.49 740.329 2323.49 731.603 Q2323.49 722.853 2326.54 718.269 Q2329.62 713.663 2335.43 713.663 Z" fill="#000000" fill-rule="nonzero" fill-opacity="1" /><polyline clip-path="url(#clip740)" style="stroke:#000000; stroke-linecap:round; stroke-linejoin:round; stroke-width:4; stroke-opacity:1; fill:none" points="178.867,686.448 178.867,47.2441 "/>
<polyline clip-path="url(#clip740)" style="stroke:#000000; stroke-linecap:round; stroke-linejoin:round; stroke-width:4; stroke-opacity:1; fill:none" points="178.867,686.448 197.764,686.448 "/>
<polyline clip-path="url(#clip740)" style="stroke:#000000; stroke-linecap:round; stroke-linejoin:round; stroke-width:4; stroke-opacity:1; fill:none" points="178.867,526.647 197.764,526.647 "/>
<polyline clip-path="url(#clip740)" style="stroke:#000000; stroke-linecap:round; stroke-linejoin:round; stroke-width:4; stroke-opacity:1; fill:none" points="178.867,366.846 197.764,366.846 "/>
<polyline clip-path="url(#clip740)" style="stroke:#000000; stroke-linecap:round; stroke-linejoin:round; stroke-width:4; stroke-opacity:1; fill:none" points="178.867,207.045 197.764,207.045 "/>
<polyline clip-path="url(#clip740)" style="stroke:#000000; stroke-linecap:round; stroke-linejoin:round; stroke-width:4; stroke-opacity:1; fill:none" points="178.867,47.2441 197.764,47.2441 "/>
<path clip-path="url(#clip740)" d="M50.9921 686.899 L80.6679 686.899 L80.6679 690.834 L50.9921 690.834 L50.9921 686.899 Z" fill="#000000" fill-rule="nonzero" fill-opacity="1" /><path clip-path="url(#clip740)" d="M91.5706 699.793 L99.2095 699.793 L99.2095 673.427 L90.8993 675.094 L90.8993 670.835 L99.1632 669.168 L103.839 669.168 L103.839 699.793 L111.478 699.793 L111.478 703.728 L91.5706 703.728 L91.5706 699.793 Z" fill="#000000" fill-rule="nonzero" fill-opacity="1" /><path clip-path="url(#clip740)" d="M130.922 672.247 Q127.311 672.247 125.482 675.811 Q123.677 679.353 123.677 686.483 Q123.677 693.589 125.482 697.154 Q127.311 700.695 130.922 700.695 Q134.556 700.695 136.362 697.154 Q138.191 693.589 138.191 686.483 Q138.191 679.353 136.362 675.811 Q134.556 672.247 130.922 672.247 M130.922 668.543 Q136.732 668.543 139.788 673.149 Q142.867 677.733 142.867 686.483 Q142.867 695.209 139.788 699.816 Q136.732 704.399 130.922 704.399 Q125.112 704.399 122.033 699.816 Q118.978 695.209 118.978 686.483 Q118.978 677.733 122.033 673.149 Q125.112 668.543 130.922 668.543 Z" fill="#000000" fill-rule="nonzero" fill-opacity="1" /><path clip-path="url(#clip740)" d="M82.1494 527.098 L111.825 527.098 L111.825 531.033 L82.1494 531.033 L82.1494 527.098 Z" fill="#000000" fill-rule="nonzero" fill-opacity="1" /><path clip-path="url(#clip740)" d="M121.964 509.367 L140.32 509.367 L140.32 513.302 L126.246 513.302 L126.246 521.774 Q127.265 521.427 128.283 521.265 Q129.302 521.08 130.32 521.08 Q136.107 521.08 139.487 524.251 Q142.867 527.422 142.867 532.839 Q142.867 538.418 139.394 541.52 Q135.922 544.598 129.603 544.598 Q127.427 544.598 125.158 544.228 Q122.913 543.857 120.506 543.117 L120.506 538.418 Q122.589 539.552 124.811 540.108 Q127.033 540.663 129.51 540.663 Q133.515 540.663 135.853 538.557 Q138.191 536.45 138.191 532.839 Q138.191 529.228 135.853 527.121 Q133.515 525.015 129.51 525.015 Q127.635 525.015 125.76 525.432 Q123.908 525.848 121.964 526.728 L121.964 509.367 Z" fill="#000000" fill-rule="nonzero" fill-opacity="1" /><path clip-path="url(#clip740)" d="M130.922 352.645 Q127.311 352.645 125.482 356.209 Q123.677 359.751 123.677 366.881 Q123.677 373.987 125.482 377.552 Q127.311 381.094 130.922 381.094 Q134.556 381.094 136.362 377.552 Q138.191 373.987 138.191 366.881 Q138.191 359.751 136.362 356.209 Q134.556 352.645 130.922 352.645 M130.922 348.941 Q136.732 348.941 139.788 353.547 Q142.867 358.131 142.867 366.881 Q142.867 375.608 139.788 380.214 Q136.732 384.797 130.922 384.797 Q125.112 384.797 122.033 380.214 Q118.978 375.608 118.978 366.881 Q118.978 358.131 122.033 353.547 Q125.112 348.941 130.922 348.941 Z" fill="#000000" fill-rule="nonzero" fill-opacity="1" /><path clip-path="url(#clip740)" d="M121.964 189.765 L140.32 189.765 L140.32 193.7 L126.246 193.7 L126.246 202.172 Q127.265 201.825 128.283 201.663 Q129.302 201.478 130.32 201.478 Q136.107 201.478 139.487 204.649 Q142.867 207.82 142.867 213.237 Q142.867 218.816 139.394 221.918 Q135.922 224.996 129.603 224.996 Q127.427 224.996 125.158 224.626 Q122.913 224.256 120.506 223.515 L120.506 218.816 Q122.589 219.95 124.811 220.506 Q127.033 221.061 129.51 221.061 Q133.515 221.061 135.853 218.955 Q138.191 216.848 138.191 213.237 Q138.191 209.626 135.853 207.52 Q133.515 205.413 129.51 205.413 Q127.635 205.413 125.76 205.83 Q123.908 206.246 121.964 207.126 L121.964 189.765 Z" fill="#000000" fill-rule="nonzero" fill-opacity="1" /><path clip-path="url(#clip740)" d="M91.5706 60.5889 L99.2095 60.5889 L99.2095 34.2233 L90.8993 35.89 L90.8993 31.6308 L99.1632 29.9641 L103.839 29.9641 L103.839 60.5889 L111.478 60.5889 L111.478 64.5241 L91.5706 64.5241 L91.5706 60.5889 Z" fill="#000000" fill-rule="nonzero" fill-opacity="1" /><path clip-path="url(#clip740)" d="M130.922 33.0428 Q127.311 33.0428 125.482 36.6076 Q123.677 40.1492 123.677 47.2788 Q123.677 54.3853 125.482 57.9501 Q127.311 61.4917 130.922 61.4917 Q134.556 61.4917 136.362 57.9501 Q138.191 54.3853 138.191 47.2788 Q138.191 40.1492 136.362 36.6076 Q134.556 33.0428 130.922 33.0428 M130.922 29.3391 Q136.732 29.3391 139.788 33.9456 Q142.867 38.5289 142.867 47.2788 Q142.867 56.0056 139.788 60.6121 Q136.732 65.1954 130.922 65.1954 Q125.112 65.1954 122.033 60.6121 Q118.978 56.0056 118.978 47.2788 Q118.978 38.5289 122.033 33.9456 Q125.112 29.3391 130.922 29.3391 Z" fill="#000000" fill-rule="nonzero" fill-opacity="1" /><polyline clip-path="url(#clip742)" style="stroke:#009af9; stroke-linecap:round; stroke-linejoin:round; stroke-width:4; stroke-opacity:1; fill:none" points="240.392,334.886 242.445,334.002 244.498,329.474 246.55,313.981 248.603,314.205 250.656,315.834 252.709,315.594 254.762,316.131 256.815,387.392 258.868,394.775 260.921,365.743 262.974,364.904 265.027,365.054 267.079,351.301 269.132,355.676 271.185,359.035 273.238,355.32 275.291,355.263 277.344,356.284 279.397,348.634 281.45,347.906 283.503,355.457 285.555,351.581 287.608,351.178 289.661,354.123 291.714,343.825 293.767,372.779 295.82,373.036 297.873,378.851 299.926,373.691 301.979,372.368 304.031,371.911 306.084,372.515 308.137,366.41 310.19,356.394 312.243,348.606 314.296,342.449 316.349,338.421 318.402,347.944 320.455,363.178 322.507,380.848 324.56,384.024 326.613,383.879 328.666,320.968 330.719,329.454 332.772,324.971 334.825,335.834 336.878,373.744 338.931,383.785 340.984,398.724 343.036,394.811 345.089,394.856 347.142,397.262 349.195,394.465 351.248,387.251 353.301,388.226 355.354,383.396 357.407,385.478 359.46,385.584 361.512,419.693 363.565,425.397 365.618,415.697 367.671,414.353 369.724,414.574 371.777,416.716 373.83,418.118 375.883,352.531 377.936,382.769 379.988,389.199 382.041,427.653 384.094,424.631 386.147,424.017 388.2,383.317 390.253,382.161 392.306,408.562 394.359,407.557 396.412,408.459 398.464,408.13 400.517,399.003 402.57,398.785 404.623,417.09 406.676,422.433 408.729,421.668 410.782,419.38 412.835,419.299 414.888,378.871 416.94,379.192 418.993,387.539 421.046,389.089 423.099,378.929 425.152,377.89 427.205,330.183 429.258,330.386 431.311,345.366 433.364,359.863 435.417,360.302 437.469,359.952 439.522,369.113 441.575,369.51 443.628,365.867 445.681,357.552 447.734,360.082 449.787,360.081 451.84,360.114 453.893,366.425 455.945,362.287 457.998,362.38 460.051,369.129 462.104,354.347 464.157,321.362 466.21,305.928 468.263,422.522 470.316,407.383 472.369,400.346 474.421,389.598 476.474,369.716 478.527,360.352 480.58,360.367 482.633,372.05 484.686,369.58 486.739,341.95 488.792,343.159 490.845,344.031 492.897,343.226 494.95,350.555 497.003,367.15 499.056,360.861 501.109,363.224 503.162,363.321 505.215,367.051 507.268,367.05 509.321,365.822 511.374,365.137 513.426,365.348 515.479,365.411 517.532,364.426 519.585,365.543 521.638,365.936 523.691,362.943 525.744,362.918 527.797,362.19 529.85,362.099 531.902,375.962 533.955,376.608 536.008,376.897 538.061,378.108 540.114,377.911 542.167,353.707 544.22,353.929 546.273,354.031 548.326,354.048 550.378,356.644 552.431,348.036 554.484,347.796 556.537,347.604 558.59,340.96 560.643,339.624 562.696,336.94 564.749,336.901 566.802,337.363 568.854,337.198 570.907,339.324 572.96,346.032 575.013,345.06 577.066,353.034 579.119,366.085 581.172,365.942 583.225,361.844 585.278,346.389 587.331,355.523 589.383,350.8 591.436,354.981 593.489,354.553 595.542,333.1 597.595,335.065 599.648,334.047 601.701,338.694 603.754,327.586 605.807,328.274 607.859,356.628 609.912,357.628 611.965,359.073 614.018,364.132 616.071,363.531 618.124,356.112 620.177,341.194 622.23,340.343 624.283,340.376 626.335,288.909 628.388,279.411 630.441,282.57 632.494,296.962 634.547,297.777 636.6,297.552 638.653,296.18 640.706,296.308 642.759,279.427 644.811,279.549 646.864,378.442 648.917,357.046 650.97,355.709 653.023,367.208 655.076,370.631 657.129,365.759 659.182,362.525 661.235,360.63 663.288,361.39 665.34,362.986 667.393,313.999 669.446,325.39 671.499,359.423 673.552,347.595 675.605,346.783 677.658,345.997 679.711,345.621 681.764,366.964 683.816,402.583 685.869,407.36 687.922,409.176 689.975,411.09 692.028,411.128 694.081,417.022 696.134,405.735 698.187,386.454 700.24,402.539 702.292,340.54 704.345,340.703 706.398,340.581 708.451,337.292 710.504,340.596 712.557,335.494 714.61,331.483 716.663,353.792 718.716,429.083 720.768,394.687 722.821,396.228 724.874,384.74 726.927,384.825 728.98,386.97 731.033,306.212 733.086,311.723 735.139,391.102 737.192,344.721 739.245,342.806 741.297,358.513 743.35,360.486 745.403,379.323 747.456,387.642 749.509,417.979 751.562,417.673 753.615,421.144 755.668,415.798 757.721,362.98 759.773,362.718 761.826,359.58 763.879,354.119 765.932,357.066 767.985,357.127 770.038,335.487 772.091,391.076 774.144,415.142 776.197,411.359 778.249,391.139 780.302,391.151 782.355,391.624 784.408,384.82 786.461,386.957 788.514,386.322 790.567,391.601 792.62,393.134 794.673,393.608 796.725,415.643 798.778,418.496 800.831,431.255 802.884,442.72 804.937,443.279 806.99,336.916 809.043,336.835 811.096,376.201 813.149,374.628 815.202,420.17 817.254,416.771 819.307,423.598 821.36,398.878 823.413,399.788 825.466,401.055 827.519,392.999 829.572,405.939 831.625,407.886 833.678,389.705 835.73,340.558 837.783,362.9 839.836,349.68 841.889,349.342 843.942,346.701 845.995,338.43 848.048,332.182 850.101,364.229 852.154,361.628 854.206,361.433 856.259,335.338 858.312,333.865 860.365,335.114 862.418,334.838 864.471,392.278 866.524,393.924 868.577,387.424 870.63,441.612 872.682,436.091 874.735,418.662 876.788,429.208 878.841,462.603 880.894,477.167 882.947,509.465 885,508.673 887.053,505.772 889.106,243.375 891.159,240.936 893.211,271.023 895.264,292.214 897.317,285.779 899.37,295.398 901.423,247.787 903.476,253.52 905.529,253.595 907.582,242.862 909.635,237.772 911.687,238.511 913.74,229.349 915.793,286.694 917.846,282.462 919.899,282.594 921.952,275.95 924.005,276.359 926.058,508.042 928.111,471.527 930.163,390.667 932.216,343.503 934.269,341.71 936.322,341.65 938.375,363.806 940.428,409.184 942.481,417.81 944.534,412.228 946.587,413.674 948.639,420.222 950.692,436.314 952.745,577.7 954.798,569.007 956.851,599.042 958.904,547.836 960.957,545.003 963.01,552.155 965.063,562.982 967.116,563.273 969.168,471.025 971.221,471.491 973.274,474.083 975.327,430.735 977.38,354.332 979.433,457.427 981.486,379.073 983.539,368.409 985.592,320.442 987.644,202.916 989.697,203.56 991.75,206.571 993.803,246.191 995.856,308.509 997.909,302.364 999.962,250.751 1002.01,236.743 1004.07,377.434 1006.12,389.455 1008.17,482.946 1010.23,495.047 1012.28,405.676 1014.33,399.348 1016.38,407.667 1018.44,292.303 1020.49,285.279 1022.54,287.002 1024.6,275.542 1026.65,275.913 1028.7,275.594 1030.76,273.693 1032.81,282.67 1034.86,282.453 1036.91,288.782 1038.97,274.723 1041.02,309.04 1043.07,492.036 1045.13,491.91 1047.18,494.728 1049.23,493.304 1051.28,501.427 1053.34,500.414 1055.39,500.854 1057.44,500.998 1059.5,421.045 1061.55,380.33 1063.6,380.383 1065.65,373.129 1067.71,374.334 1069.76,375.805 1071.81,435.075 1073.87,414.472 1075.92,460.39 1077.97,443.358 1080.02,460.574 1082.08,447.131 1084.13,442.388 1086.18,443.234 1088.24,400.487 1090.29,386.462 1092.34,403.207 1094.39,399.916 1096.45,373.869 1098.5,386.758 1100.55,313.793 1102.61,304.92 1104.66,308.598 1106.71,308.959 1108.77,320.489 1110.82,326.633 1112.87,326.11 1114.92,318.465 1116.98,317.952 1119.03,348.172 1121.08,350.002 1123.14,361.395 1125.19,355.796 1127.24,361.671 1129.29,371.059 1131.35,367.264 1133.4,366.919 1135.45,367.739 1137.51,365.784 1139.56,363.453 1141.61,363.838 1143.66,353.951 1145.72,351.185 1147.77,363.591 1149.82,399.718 1151.88,367.001 1153.93,371.286 1155.98,371.434 1158.03,370.69 1160.09,370.286 1162.14,349.744 1164.19,307.544 1166.25,389.484 1168.3,334.47 1170.35,335.282 1172.4,333.606 1174.46,333.228 1176.51,331.162 1178.56,327.214 1180.62,334.48 1182.67,334.43 1184.72,328.824 1186.77,325.996 1188.83,325.189 1190.88,324.834 1192.93,322.035 1194.99,321.894 1197.04,325.03 1199.09,384.272 1201.15,402.445 1203.2,383.463 1205.25,434.37 1207.3,434.848 1209.36,400.418 1211.41,400.208 1213.46,367.568 1215.52,359.082 1217.57,370.304 1219.62,360.301 1221.67,357.006 1223.73,354.668 1225.78,353.639 1227.83,352.837 1229.89,352.709 1231.94,313.673 1233.99,311.399 1236.04,318.893 1238.1,369.743 1240.15,344.161 1242.2,341.95 1244.26,344.87 1246.31,346.114 1248.36,346.91 1250.41,334.429 1252.47,334.405 1254.52,374.743 1256.57,382.038 1258.63,381.824 1260.68,381.869 1262.73,365.213 1264.78,365.302 1266.84,356.671 1268.89,354.075 1270.94,366.238 1273,368.125 1275.05,360.502 1277.1,361.34 1279.16,373.316 1281.21,370.136 1283.26,357.548 1285.31,357.58 1287.37,361.448 1289.42,361.639 1291.47,363.476 1293.53,362.475 1295.58,362.445 1297.63,363.053 1299.68,366.551 1301.74,365.141 1303.79,363.016 1305.84,362.875 1307.9,394.191 1309.95,395.131 1312,394.294 1314.05,394.213 1316.11,394.198 1318.16,394.224 1320.21,393.783 1322.27,394.651 1324.32,351.302 1326.37,362.009 1328.42,340.834 1330.48,340.987 1332.53,338.485 1334.58,338.579 1336.64,338.571 1338.69,340.61 1340.74,368.946 1342.79,363.45 1344.85,361.234 1346.9,360.932 1348.95,363.061 1351.01,363.053 1353.06,363.174 1355.11,363.588 1357.16,354.498 1359.22,354.545 1361.27,357.217 1363.32,356.915 1365.38,355.39 1367.43,350.17 1369.48,346.634 1371.54,390.055 1373.59,389.094 1375.64,390.815 1377.69,379.074 1379.75,374.827 1381.8,383.57 1383.85,381.427 1385.91,385.005 1387.96,375.193 1390.01,408.953 1392.06,417.542 1394.12,413.101 1396.17,413.138 1398.22,394.022 1400.28,358.519 1402.33,362.568 1404.38,366.548 1406.43,367.052 1408.49,376.369 1410.54,376.781 1412.59,383.136 1414.65,382.166 1416.7,381.142 1418.75,381.027 1420.8,382.679 1422.86,383.521 1424.91,381.525 1426.96,388.235 1429.02,354.616 1431.07,354.458 1433.12,369.026 1435.17,368.874 1437.23,366.83 1439.28,394.25 1441.33,393.941 1443.39,380.466 1445.44,374.411 1447.49,379.949 1449.55,379.685 1451.6,379.085 1453.65,379.031 1455.7,361.344 1457.76,374.382 1459.81,362.694 1461.86,360.585 1463.92,359.684 1465.97,369.533 1468.02,369.768 1470.07,366.976 1472.13,349.476 1474.18,340.758 1476.23,322.052 1478.29,321.146 1480.34,330.461 1482.39,330.442 1484.44,341.847 1486.5,342.967 1488.55,340.103 1490.6,339.831 1492.66,354.637 1494.71,354.259 1496.76,351.464 1498.81,388.758 1500.87,388.759 1502.92,391.904 1504.97,391.885 1507.03,392.115 1509.08,391.997 1511.13,388.994 1513.18,388.686 1515.24,386.019 1517.29,383.115 1519.34,391.001 1521.4,381.357 1523.45,381.455 1525.5,340.537 1527.55,302.671 1529.61,308.767 1531.66,308.144 1533.71,308.606 1535.77,388.608 1537.82,384.72 1539.87,384.106 1541.93,384.173 1543.98,384.991 1546.03,390.017 1548.08,385.544 1550.14,386.653 1552.19,387.429 1554.24,451.116 1556.3,452.594 1558.35,451.531 1560.4,454.486 1562.45,437.199 1564.51,437.22 1566.56,410.646 1568.61,417.899 1570.67,421.149 1572.72,409.803 1574.77,402.364 1576.82,399.594 1578.88,440.137 1580.93,440.128 1582.98,444.293 1585.04,442.234 1587.09,432.013 1589.14,429.178 1591.19,387.542 1593.25,396.444 1595.3,366.87 1597.35,359.376 1599.41,365.389 1601.46,365.001 1603.51,430.593 1605.56,433.277 1607.62,433.197 1609.67,356.098 1611.72,364.033 1613.78,373.002 1615.83,376.761 1617.88,376.749 1619.94,276.236 1621.99,278.982 1624.04,306.776 1626.09,306.848 1628.15,307.735 1630.2,330.577 1632.25,358.133 1634.31,358.323 1636.36,374.442 1638.41,389.822 1640.46,351.748 1642.52,354.65 1644.57,352.59 1646.62,358.807 1648.68,360.655 1650.73,382.568 1652.78,382.719 1654.83,377.788 1656.89,377.575 1658.94,377.381 1660.99,341.806 1663.05,342.081 1665.1,346.018 1667.15,346.014 1669.2,347.708 1671.26,348.389 1673.31,320.643 1675.36,328.733 1677.42,333.733 1679.47,368.53 1681.52,363.354 1683.57,365.147 1685.63,363.605 1687.68,363.013 1689.73,409.002 1691.79,408.984 1693.84,409.475 1695.89,409.506 1697.94,402.169 1700,402.285 1702.05,407.694 1704.1,409.691 1706.16,387.965 1708.21,385.71 1710.26,386.93 1712.32,386.672 1714.37,385.712 1716.42,402.682 1718.47,399.818 1720.53,401.183 1722.58,401.344 1724.63,400.889 1726.69,407.354 1728.74,385.864 1730.79,415.277 1732.84,337.855 1734.9,338.56 1736.95,333.706 1739,330.872 1741.06,342.594 1743.11,342.667 1745.16,362.704 1747.21,362.703 1749.27,346.932 1751.32,354.31 1753.37,352.037 1755.43,345.31 1757.48,344.344 1759.53,346.088 1761.58,346.149 1763.64,348.753 1765.69,355.859 1767.74,355.852 1769.8,355.311 1771.85,355.232 1773.9,354.24 1775.95,358.766 1778.01,358.289 1780.06,359.318 1782.11,357.686 1784.17,357.756 1786.22,363.437 1788.27,365.568 1790.33,365.825 1792.38,365.647 1794.43,366.267 1796.48,354.974 1798.54,353.778 1800.59,354.277 1802.64,350.418 1804.7,350.47 1806.75,350.316 1808.8,362.139 1810.85,362.208 1812.91,387.859 1814.96,387.867 1817.01,387.713 1819.07,382.764 1821.12,379.462 1823.17,381.229 1825.22,382.687 1827.28,350.776 1829.33,376.134 1831.38,376.099 1833.44,373.63 1835.49,358.54 1837.54,359.356 1839.59,359.176 1841.65,365.087 1843.7,365.04 1845.75,383.894 1847.81,383.923 1849.86,384.747 1851.91,378.294 1853.96,389.831 1856.02,389.859 1858.07,390.501 1860.12,399.816 1862.18,399.896 1864.23,394.034 1866.28,394.86 1868.34,394.392 1870.39,395.061 1872.44,381.286 1874.49,381.117 1876.55,380.882 1878.6,380.084 1880.65,379.34 1882.71,342.194 1884.76,342.722 1886.81,347.235 1888.86,331.669 1890.92,331.086 1892.97,341.526 1895.02,337.486 1897.08,337.604 1899.13,338.059 1901.18,338.211 1903.23,347.216 1905.29,340.572 1907.34,340.2 1909.39,339.175 1911.45,339.743 1913.5,340.245 1915.55,366.792 1917.6,365.742 1919.66,368.834 1921.71,369.138 1923.76,377.413 1925.82,378.825 1927.87,379.076 1929.92,378.861 1931.97,378.796 1934.03,376.826 1936.08,375.124 1938.13,374.593 1940.19,374.813 1942.24,349.659 1944.29,349.662 1946.34,349.713 1948.4,361.871 1950.45,364.088 1952.5,364.08 1954.56,365.495 1956.61,365.194 1958.66,364.996 1960.72,363.898 1962.77,363.913 1964.82,363.635 1966.87,363.742 1968.93,373.712 1970.98,373.341 1973.03,373.13 1975.09,373.023 1977.14,373.06 1979.19,355.432 1981.24,370.925 1983.3,353.391 1985.35,353.385 1987.4,372.928 1989.46,375.806 1991.51,376.524 1993.56,378.023 1995.61,377.908 1997.67,378.432 1999.72,378.462 2001.77,378.615 2003.83,379.331 2005.88,379.255 2007.93,380.146 2009.98,373.33 2012.04,370.76 2014.09,371.142 2016.14,370.125 2018.2,370.336 2020.25,368.532 2022.3,370.738 2024.35,370.764 2026.41,383.102 2028.46,357.325 2030.51,358.183 2032.57,358.483 2034.62,359.092 2036.67,358.958 2038.73,370.292 2040.78,366.025 2042.83,366.426 2044.88,366.895 2046.94,373.011 2048.99,372.859 2051.04,372.968 2053.1,376.939 2055.15,346.794 2057.2,329.097 2059.25,336.346 2061.31,344.028 2063.36,345.645 2065.41,353.811 2067.47,376.231 2069.52,376.881 2071.57,398.661 2073.62,381.24 2075.68,380.453 2077.73,367.973 2079.78,400.076 2081.84,406.353 2083.89,404.241 2085.94,374.169 2087.99,372.717 2090.05,373.51 2092.1,385.133 2094.15,349.337 2096.21,348.037 2098.26,343.98 2100.31,343.927 2102.36,336.068 2104.42,335.564 2106.47,334.816 2108.52,334.547 2110.58,334.75 2112.63,337.427 2114.68,333.093 2116.73,332.384 2118.79,337.648 2120.84,337.654 2122.89,337.394 2124.95,344.337 2127,344.939 2129.05,351.516 2131.11,349.842 2133.16,368.215 2135.21,371.653 2137.26,373.813 2139.32,372.434 2141.37,389.96 2143.42,348.179 2145.48,358.667 2147.53,358.645 2149.58,366.358 2151.63,366.013 2153.69,365.376 2155.74,351.617 2157.79,355.058 2159.85,356.331 2161.9,351.257 2163.95,353.133 2166,351.572 2168.06,353.203 2170.11,353.222 2172.16,358.041 2174.22,356.555 2176.27,358.301 2178.32,354.409 2180.37,354.524 2182.43,354.691 2184.48,352.831 2186.53,352.898 2188.59,352.688 2190.64,344.653 2192.69,345.481 2194.74,344.97 2196.8,352.184 2198.85,359.999 2200.9,357.914 2202.96,358.505 2205.01,375.926 2207.06,373.822 2209.12,373.048 2211.17,370.453 2213.22,373.765 2215.27,374.213 2217.33,374.211 2219.38,373.221 2221.43,378.998 2223.49,379.105 2225.54,379.039 2227.59,375.817 2229.64,386.441 2231.7,386.47 2233.75,399.353 2235.8,403.04 2237.86,403.435 2239.91,434.647 2241.96,434.523 2244.01,416.725 2246.07,394.824 2248.12,413.038 2250.17,406.646 2252.23,408.542 2254.28,417.065 2256.33,428.747 2258.38,428.216 2260.44,425.07 2262.49,443.377 2264.54,408.88 2266.6,408.451 2268.65,405.485 2270.7,405.383 2272.75,395.366 2274.81,392.268 2276.86,390.489 2278.91,388.941 2280.97,386.169 2283.02,384.041 2285.07,362.658 2287.12,362.265 2289.18,357.284 2291.23,346.206 "/>
<path clip-path="url(#clip740)" d="M1983.6 172.231 L2280.29 172.231 L2280.29 68.5509 L1983.6 68.5509  Z" fill="#ffffff" fill-rule="evenodd" fill-opacity="1"/>
<polyline clip-path="url(#clip740)" style="stroke:#000000; stroke-linecap:round; stroke-linejoin:round; stroke-width:4; stroke-opacity:1; fill:none" points="1983.6,172.231 2280.29,172.231 2280.29,68.5509 1983.6,68.5509 1983.6,172.231 "/>
<polyline clip-path="url(#clip740)" style="stroke:#009af9; stroke-linecap:round; stroke-linejoin:round; stroke-width:4; stroke-opacity:1; fill:none" points="2007.75,120.391 2152.68,120.391 "/>
<path clip-path="url(#clip740)" d="M2176.83 103.111 L2181.51 103.111 L2181.51 133.736 L2198.34 133.736 L2198.34 137.671 L2176.83 137.671 L2176.83 103.111 Z" fill="#000000" fill-rule="nonzero" fill-opacity="1" /><path clip-path="url(#clip740)" d="M2223.96 104.245 L2223.96 108.805 Q2221.3 107.532 2218.94 106.907 Q2216.58 106.282 2214.38 106.282 Q2210.56 106.282 2208.48 107.764 Q2206.42 109.245 2206.42 111.977 Q2206.42 114.268 2207.78 115.449 Q2209.17 116.606 2213.01 117.324 L2215.84 117.902 Q2221.07 118.898 2223.55 121.421 Q2226.05 123.921 2226.05 128.134 Q2226.05 133.157 2222.67 135.75 Q2219.31 138.342 2212.81 138.342 Q2210.35 138.342 2207.57 137.787 Q2204.82 137.231 2201.86 136.143 L2201.86 131.328 Q2204.7 132.926 2207.44 133.736 Q2210.17 134.546 2212.81 134.546 Q2216.81 134.546 2218.99 132.972 Q2221.16 131.398 2221.16 128.481 Q2221.16 125.935 2219.59 124.5 Q2218.04 123.064 2214.47 122.347 L2211.62 121.791 Q2206.39 120.75 2204.06 118.527 Q2201.72 116.305 2201.72 112.347 Q2201.72 107.764 2204.94 105.125 Q2208.18 102.486 2213.85 102.486 Q2216.28 102.486 2218.8 102.926 Q2221.32 103.366 2223.96 104.245 Z" fill="#000000" fill-rule="nonzero" fill-opacity="1" /><path clip-path="url(#clip740)" d="M2254.06 104.245 L2254.06 108.805 Q2251.39 107.532 2249.03 106.907 Q2246.67 106.282 2244.47 106.282 Q2240.65 106.282 2238.57 107.764 Q2236.51 109.245 2236.51 111.977 Q2236.51 114.268 2237.87 115.449 Q2239.26 116.606 2243.11 117.324 L2245.93 117.902 Q2251.16 118.898 2253.64 121.421 Q2256.14 123.921 2256.14 128.134 Q2256.14 133.157 2252.76 135.75 Q2249.4 138.342 2242.9 138.342 Q2240.44 138.342 2237.67 137.787 Q2234.91 137.231 2231.95 136.143 L2231.95 131.328 Q2234.8 132.926 2237.53 133.736 Q2240.26 134.546 2242.9 134.546 Q2246.9 134.546 2249.08 132.972 Q2251.25 131.398 2251.25 128.481 Q2251.25 125.935 2249.68 124.5 Q2248.13 123.064 2244.56 122.347 L2241.72 121.791 Q2236.49 120.75 2234.15 118.527 Q2231.81 116.305 2231.81 112.347 Q2231.81 107.764 2235.03 105.125 Q2238.27 102.486 2243.94 102.486 Q2246.37 102.486 2248.89 102.926 Q2251.42 103.366 2254.06 104.245 Z" fill="#000000" fill-rule="nonzero" fill-opacity="1" /><path clip-path="url(#clip740)" d="M178.867 1486.45 L2352.76 1486.45 L2352.76 847.244 L178.867 847.244  Z" fill="#ffffff" fill-rule="evenodd" fill-opacity="1"/>
<defs>
  <clipPath id="clip743">
    <rect x="178" y="847" width="2175" height="640"/>
  </clipPath>
</defs>
<polyline clip-path="url(#clip743)" style="stroke:#000000; stroke-linecap:round; stroke-linejoin:round; stroke-width:2; stroke-opacity:0.1; fill:none" points="238.339,1486.45 238.339,847.244 "/>
<polyline clip-path="url(#clip743)" style="stroke:#000000; stroke-linecap:round; stroke-linejoin:round; stroke-width:2; stroke-opacity:0.1; fill:none" points="751.562,1486.45 751.562,847.244 "/>
<polyline clip-path="url(#clip743)" style="stroke:#000000; stroke-linecap:round; stroke-linejoin:round; stroke-width:2; stroke-opacity:0.1; fill:none" points="1264.78,1486.45 1264.78,847.244 "/>
<polyline clip-path="url(#clip743)" style="stroke:#000000; stroke-linecap:round; stroke-linejoin:round; stroke-width:2; stroke-opacity:0.1; fill:none" points="1778.01,1486.45 1778.01,847.244 "/>
<polyline clip-path="url(#clip743)" style="stroke:#000000; stroke-linecap:round; stroke-linejoin:round; stroke-width:2; stroke-opacity:0.1; fill:none" points="2291.23,1486.45 2291.23,847.244 "/>
<polyline clip-path="url(#clip743)" style="stroke:#000000; stroke-linecap:round; stroke-linejoin:round; stroke-width:2; stroke-opacity:0.1; fill:none" points="178.867,1486.45 2352.76,1486.45 "/>
<polyline clip-path="url(#clip743)" style="stroke:#000000; stroke-linecap:round; stroke-linejoin:round; stroke-width:2; stroke-opacity:0.1; fill:none" points="178.867,1326.65 2352.76,1326.65 "/>
<polyline clip-path="url(#clip743)" style="stroke:#000000; stroke-linecap:round; stroke-linejoin:round; stroke-width:2; stroke-opacity:0.1; fill:none" points="178.867,1166.85 2352.76,1166.85 "/>
<polyline clip-path="url(#clip743)" style="stroke:#000000; stroke-linecap:round; stroke-linejoin:round; stroke-width:2; stroke-opacity:0.1; fill:none" points="178.867,1007.05 2352.76,1007.05 "/>
<polyline clip-path="url(#clip743)" style="stroke:#000000; stroke-linecap:round; stroke-linejoin:round; stroke-width:2; stroke-opacity:0.1; fill:none" points="178.867,847.244 2352.76,847.244 "/>
<polyline clip-path="url(#clip740)" style="stroke:#000000; stroke-linecap:round; stroke-linejoin:round; stroke-width:4; stroke-opacity:1; fill:none" points="178.867,1486.45 2352.76,1486.45 "/>
<polyline clip-path="url(#clip740)" style="stroke:#000000; stroke-linecap:round; stroke-linejoin:round; stroke-width:4; stroke-opacity:1; fill:none" points="238.339,1486.45 238.339,1467.55 "/>
<polyline clip-path="url(#clip740)" style="stroke:#000000; stroke-linecap:round; stroke-linejoin:round; stroke-width:4; stroke-opacity:1; fill:none" points="751.562,1486.45 751.562,1467.55 "/>
<polyline clip-path="url(#clip740)" style="stroke:#000000; stroke-linecap:round; stroke-linejoin:round; stroke-width:4; stroke-opacity:1; fill:none" points="1264.78,1486.45 1264.78,1467.55 "/>
<polyline clip-path="url(#clip740)" style="stroke:#000000; stroke-linecap:round; stroke-linejoin:round; stroke-width:4; stroke-opacity:1; fill:none" points="1778.01,1486.45 1778.01,1467.55 "/>
<polyline clip-path="url(#clip740)" style="stroke:#000000; stroke-linecap:round; stroke-linejoin:round; stroke-width:4; stroke-opacity:1; fill:none" points="2291.23,1486.45 2291.23,1467.55 "/>
<path clip-path="url(#clip740)" d="M238.339 1517.37 Q234.728 1517.37 232.899 1520.93 Q231.094 1524.47 231.094 1531.6 Q231.094 1538.71 232.899 1542.27 Q234.728 1545.82 238.339 1545.82 Q241.973 1545.82 243.779 1542.27 Q245.607 1538.71 245.607 1531.6 Q245.607 1524.47 243.779 1520.93 Q241.973 1517.37 238.339 1517.37 M238.339 1513.66 Q244.149 1513.66 247.205 1518.27 Q250.283 1522.85 250.283 1531.6 Q250.283 1540.33 247.205 1544.94 Q244.149 1549.52 238.339 1549.52 Q232.529 1549.52 229.45 1544.94 Q226.395 1540.33 226.395 1531.6 Q226.395 1522.85 229.45 1518.27 Q232.529 1513.66 238.339 1513.66 Z" fill="#000000" fill-rule="nonzero" fill-opacity="1" /><path clip-path="url(#clip740)" d="M715.254 1544.91 L731.574 1544.91 L731.574 1548.85 L709.629 1548.85 L709.629 1544.91 Q712.291 1542.16 716.875 1537.53 Q721.481 1532.88 722.662 1531.53 Q724.907 1529.01 725.787 1527.27 Q726.689 1525.51 726.689 1523.82 Q726.689 1521.07 724.745 1519.33 Q722.824 1517.6 719.722 1517.6 Q717.523 1517.6 715.069 1518.36 Q712.638 1519.13 709.861 1520.68 L709.861 1515.95 Q712.685 1514.82 715.138 1514.24 Q717.592 1513.66 719.629 1513.66 Q725 1513.66 728.194 1516.35 Q731.388 1519.03 731.388 1523.52 Q731.388 1525.65 730.578 1527.57 Q729.791 1529.47 727.685 1532.07 Q727.106 1532.74 724.004 1535.95 Q720.902 1539.15 715.254 1544.91 Z" fill="#000000" fill-rule="nonzero" fill-opacity="1" /><path clip-path="url(#clip740)" d="M741.435 1514.29 L759.791 1514.29 L759.791 1518.22 L745.717 1518.22 L745.717 1526.7 Q746.736 1526.35 747.754 1526.19 Q748.773 1526 749.791 1526 Q755.578 1526 758.958 1529.17 Q762.337 1532.34 762.337 1537.76 Q762.337 1543.34 758.865 1546.44 Q755.393 1549.52 749.073 1549.52 Q746.898 1549.52 744.629 1549.15 Q742.384 1548.78 739.976 1548.04 L739.976 1543.34 Q742.06 1544.47 744.282 1545.03 Q746.504 1545.58 748.981 1545.58 Q752.985 1545.58 755.323 1543.48 Q757.661 1541.37 757.661 1537.76 Q757.661 1534.15 755.323 1532.04 Q752.985 1529.94 748.981 1529.94 Q747.106 1529.94 745.231 1530.35 Q743.379 1530.77 741.435 1531.65 L741.435 1514.29 Z" fill="#000000" fill-rule="nonzero" fill-opacity="1" /><path clip-path="url(#clip740)" d="M781.55 1517.37 Q777.939 1517.37 776.11 1520.93 Q774.305 1524.47 774.305 1531.6 Q774.305 1538.71 776.11 1542.27 Q777.939 1545.82 781.55 1545.82 Q785.184 1545.82 786.99 1542.27 Q788.819 1538.71 788.819 1531.6 Q788.819 1524.47 786.99 1520.93 Q785.184 1517.37 781.55 1517.37 M781.55 1513.66 Q787.36 1513.66 790.416 1518.27 Q793.495 1522.85 793.495 1531.6 Q793.495 1540.33 790.416 1544.94 Q787.36 1549.52 781.55 1549.52 Q775.74 1549.52 772.661 1544.94 Q769.606 1540.33 769.606 1531.6 Q769.606 1522.85 772.661 1518.27 Q775.74 1513.66 781.55 1513.66 Z" fill="#000000" fill-rule="nonzero" fill-opacity="1" /><path clip-path="url(#clip740)" d="M1224.4 1514.29 L1242.76 1514.29 L1242.76 1518.22 L1228.69 1518.22 L1228.69 1526.7 Q1229.7 1526.35 1230.72 1526.19 Q1231.74 1526 1232.76 1526 Q1238.55 1526 1241.93 1529.17 Q1245.31 1532.34 1245.31 1537.76 Q1245.31 1543.34 1241.83 1546.44 Q1238.36 1549.52 1232.04 1549.52 Q1229.87 1549.52 1227.6 1549.15 Q1225.35 1548.78 1222.94 1548.04 L1222.94 1543.34 Q1225.03 1544.47 1227.25 1545.03 Q1229.47 1545.58 1231.95 1545.58 Q1235.95 1545.58 1238.29 1543.48 Q1240.63 1541.37 1240.63 1537.76 Q1240.63 1534.15 1238.29 1532.04 Q1235.95 1529.94 1231.95 1529.94 Q1230.07 1529.94 1228.2 1530.35 Q1226.35 1530.77 1224.4 1531.65 L1224.4 1514.29 Z" fill="#000000" fill-rule="nonzero" fill-opacity="1" /><path clip-path="url(#clip740)" d="M1264.52 1517.37 Q1260.91 1517.37 1259.08 1520.93 Q1257.27 1524.47 1257.27 1531.6 Q1257.27 1538.71 1259.08 1542.27 Q1260.91 1545.82 1264.52 1545.82 Q1268.15 1545.82 1269.96 1542.27 Q1271.79 1538.71 1271.79 1531.6 Q1271.79 1524.47 1269.96 1520.93 Q1268.15 1517.37 1264.52 1517.37 M1264.52 1513.66 Q1270.33 1513.66 1273.38 1518.27 Q1276.46 1522.85 1276.46 1531.6 Q1276.46 1540.33 1273.38 1544.94 Q1270.33 1549.52 1264.52 1549.52 Q1258.71 1549.52 1255.63 1544.94 Q1252.57 1540.33 1252.57 1531.6 Q1252.57 1522.85 1255.63 1518.27 Q1258.71 1513.66 1264.52 1513.66 Z" fill="#000000" fill-rule="nonzero" fill-opacity="1" /><path clip-path="url(#clip740)" d="M1294.68 1517.37 Q1291.07 1517.37 1289.24 1520.93 Q1287.44 1524.47 1287.44 1531.6 Q1287.44 1538.71 1289.24 1542.27 Q1291.07 1545.82 1294.68 1545.82 Q1298.31 1545.82 1300.12 1542.27 Q1301.95 1538.71 1301.95 1531.6 Q1301.95 1524.47 1300.12 1520.93 Q1298.31 1517.37 1294.68 1517.37 M1294.68 1513.66 Q1300.49 1513.66 1303.55 1518.27 Q1306.62 1522.85 1306.62 1531.6 Q1306.62 1540.33 1303.55 1544.94 Q1300.49 1549.52 1294.68 1549.52 Q1288.87 1549.52 1285.79 1544.94 Q1282.74 1540.33 1282.74 1531.6 Q1282.74 1522.85 1285.79 1518.27 Q1288.87 1513.66 1294.68 1513.66 Z" fill="#000000" fill-rule="nonzero" fill-opacity="1" /><path clip-path="url(#clip740)" d="M1736.28 1514.29 L1758.51 1514.29 L1758.51 1516.28 L1745.96 1548.85 L1741.08 1548.85 L1752.88 1518.22 L1736.28 1518.22 L1736.28 1514.29 Z" fill="#000000" fill-rule="nonzero" fill-opacity="1" /><path clip-path="url(#clip740)" d="M1767.67 1514.29 L1786.03 1514.29 L1786.03 1518.22 L1771.95 1518.22 L1771.95 1526.7 Q1772.97 1526.35 1773.99 1526.19 Q1775.01 1526 1776.03 1526 Q1781.82 1526 1785.2 1529.17 Q1788.57 1532.34 1788.57 1537.76 Q1788.57 1543.34 1785.1 1546.44 Q1781.63 1549.52 1775.31 1549.52 Q1773.14 1549.52 1770.87 1549.15 Q1768.62 1548.78 1766.21 1548.04 L1766.21 1543.34 Q1768.3 1544.47 1770.52 1545.03 Q1772.74 1545.58 1775.22 1545.58 Q1779.22 1545.58 1781.56 1543.48 Q1783.9 1541.37 1783.9 1537.76 Q1783.9 1534.15 1781.56 1532.04 Q1779.22 1529.94 1775.22 1529.94 Q1773.34 1529.94 1771.47 1530.35 Q1769.62 1530.77 1767.67 1531.65 L1767.67 1514.29 Z" fill="#000000" fill-rule="nonzero" fill-opacity="1" /><path clip-path="url(#clip740)" d="M1807.79 1517.37 Q1804.18 1517.37 1802.35 1520.93 Q1800.54 1524.47 1800.54 1531.6 Q1800.54 1538.71 1802.35 1542.27 Q1804.18 1545.82 1807.79 1545.82 Q1811.42 1545.82 1813.23 1542.27 Q1815.06 1538.71 1815.06 1531.6 Q1815.06 1524.47 1813.23 1520.93 Q1811.42 1517.37 1807.79 1517.37 M1807.79 1513.66 Q1813.6 1513.66 1816.65 1518.27 Q1819.73 1522.85 1819.73 1531.6 Q1819.73 1540.33 1816.65 1544.94 Q1813.6 1549.52 1807.79 1549.52 Q1801.98 1549.52 1798.9 1544.94 Q1795.84 1540.33 1795.84 1531.6 Q1795.84 1522.85 1798.9 1518.27 Q1801.98 1513.66 1807.79 1513.66 Z" fill="#000000" fill-rule="nonzero" fill-opacity="1" /><path clip-path="url(#clip740)" d="M2235.76 1544.91 L2243.4 1544.91 L2243.4 1518.55 L2235.09 1520.21 L2235.09 1515.95 L2243.35 1514.29 L2248.02 1514.29 L2248.02 1544.91 L2255.66 1544.91 L2255.66 1548.85 L2235.76 1548.85 L2235.76 1544.91 Z" fill="#000000" fill-rule="nonzero" fill-opacity="1" /><path clip-path="url(#clip740)" d="M2275.11 1517.37 Q2271.5 1517.37 2269.67 1520.93 Q2267.86 1524.47 2267.86 1531.6 Q2267.86 1538.71 2269.67 1542.27 Q2271.5 1545.82 2275.11 1545.82 Q2278.74 1545.82 2280.55 1542.27 Q2282.38 1538.71 2282.38 1531.6 Q2282.38 1524.47 2280.55 1520.93 Q2278.74 1517.37 2275.11 1517.37 M2275.11 1513.66 Q2280.92 1513.66 2283.97 1518.27 Q2287.05 1522.85 2287.05 1531.6 Q2287.05 1540.33 2283.97 1544.94 Q2280.92 1549.52 2275.11 1549.52 Q2269.3 1549.52 2266.22 1544.94 Q2263.16 1540.33 2263.16 1531.6 Q2263.16 1522.85 2266.22 1518.27 Q2269.3 1513.66 2275.11 1513.66 Z" fill="#000000" fill-rule="nonzero" fill-opacity="1" /><path clip-path="url(#clip740)" d="M2305.27 1517.37 Q2301.66 1517.37 2299.83 1520.93 Q2298.02 1524.47 2298.02 1531.6 Q2298.02 1538.71 2299.83 1542.27 Q2301.66 1545.82 2305.27 1545.82 Q2308.9 1545.82 2310.71 1542.27 Q2312.54 1538.71 2312.54 1531.6 Q2312.54 1524.47 2310.71 1520.93 Q2308.9 1517.37 2305.27 1517.37 M2305.27 1513.66 Q2311.08 1513.66 2314.14 1518.27 Q2317.21 1522.85 2317.21 1531.6 Q2317.21 1540.33 2314.14 1544.94 Q2311.08 1549.52 2305.27 1549.52 Q2299.46 1549.52 2296.38 1544.94 Q2293.33 1540.33 2293.33 1531.6 Q2293.33 1522.85 2296.38 1518.27 Q2299.46 1513.66 2305.27 1513.66 Z" fill="#000000" fill-rule="nonzero" fill-opacity="1" /><path clip-path="url(#clip740)" d="M2335.43 1517.37 Q2331.82 1517.37 2329.99 1520.93 Q2328.19 1524.47 2328.19 1531.6 Q2328.19 1538.71 2329.99 1542.27 Q2331.82 1545.82 2335.43 1545.82 Q2339.07 1545.82 2340.87 1542.27 Q2342.7 1538.71 2342.7 1531.6 Q2342.7 1524.47 2340.87 1520.93 Q2339.07 1517.37 2335.43 1517.37 M2335.43 1513.66 Q2341.24 1513.66 2344.3 1518.27 Q2347.38 1522.85 2347.38 1531.6 Q2347.38 1540.33 2344.3 1544.94 Q2341.24 1549.52 2335.43 1549.52 Q2329.62 1549.52 2326.54 1544.94 Q2323.49 1540.33 2323.49 1531.6 Q2323.49 1522.85 2326.54 1518.27 Q2329.62 1513.66 2335.43 1513.66 Z" fill="#000000" fill-rule="nonzero" fill-opacity="1" /><polyline clip-path="url(#clip740)" style="stroke:#000000; stroke-linecap:round; stroke-linejoin:round; stroke-width:4; stroke-opacity:1; fill:none" points="178.867,1486.45 178.867,847.244 "/>
<polyline clip-path="url(#clip740)" style="stroke:#000000; stroke-linecap:round; stroke-linejoin:round; stroke-width:4; stroke-opacity:1; fill:none" points="178.867,1486.45 197.764,1486.45 "/>
<polyline clip-path="url(#clip740)" style="stroke:#000000; stroke-linecap:round; stroke-linejoin:round; stroke-width:4; stroke-opacity:1; fill:none" points="178.867,1326.65 197.764,1326.65 "/>
<polyline clip-path="url(#clip740)" style="stroke:#000000; stroke-linecap:round; stroke-linejoin:round; stroke-width:4; stroke-opacity:1; fill:none" points="178.867,1166.85 197.764,1166.85 "/>
<polyline clip-path="url(#clip740)" style="stroke:#000000; stroke-linecap:round; stroke-linejoin:round; stroke-width:4; stroke-opacity:1; fill:none" points="178.867,1007.05 197.764,1007.05 "/>
<polyline clip-path="url(#clip740)" style="stroke:#000000; stroke-linecap:round; stroke-linejoin:round; stroke-width:4; stroke-opacity:1; fill:none" points="178.867,847.244 197.764,847.244 "/>
<path clip-path="url(#clip740)" d="M50.9921 1486.9 L80.6679 1486.9 L80.6679 1490.83 L50.9921 1490.83 L50.9921 1486.9 Z" fill="#000000" fill-rule="nonzero" fill-opacity="1" /><path clip-path="url(#clip740)" d="M91.5706 1499.79 L99.2095 1499.79 L99.2095 1473.43 L90.8993 1475.09 L90.8993 1470.83 L99.1632 1469.17 L103.839 1469.17 L103.839 1499.79 L111.478 1499.79 L111.478 1503.73 L91.5706 1503.73 L91.5706 1499.79 Z" fill="#000000" fill-rule="nonzero" fill-opacity="1" /><path clip-path="url(#clip740)" d="M130.922 1472.25 Q127.311 1472.25 125.482 1475.81 Q123.677 1479.35 123.677 1486.48 Q123.677 1493.59 125.482 1497.15 Q127.311 1500.7 130.922 1500.7 Q134.556 1500.7 136.362 1497.15 Q138.191 1493.59 138.191 1486.48 Q138.191 1479.35 136.362 1475.81 Q134.556 1472.25 130.922 1472.25 M130.922 1468.54 Q136.732 1468.54 139.788 1473.15 Q142.867 1477.73 142.867 1486.48 Q142.867 1495.21 139.788 1499.82 Q136.732 1504.4 130.922 1504.4 Q125.112 1504.4 122.033 1499.82 Q118.978 1495.21 118.978 1486.48 Q118.978 1477.73 122.033 1473.15 Q125.112 1468.54 130.922 1468.54 Z" fill="#000000" fill-rule="nonzero" fill-opacity="1" /><path clip-path="url(#clip740)" d="M82.1494 1327.1 L111.825 1327.1 L111.825 1331.03 L82.1494 1331.03 L82.1494 1327.1 Z" fill="#000000" fill-rule="nonzero" fill-opacity="1" /><path clip-path="url(#clip740)" d="M121.964 1309.37 L140.32 1309.37 L140.32 1313.3 L126.246 1313.3 L126.246 1321.77 Q127.265 1321.43 128.283 1321.27 Q129.302 1321.08 130.32 1321.08 Q136.107 1321.08 139.487 1324.25 Q142.867 1327.42 142.867 1332.84 Q142.867 1338.42 139.394 1341.52 Q135.922 1344.6 129.603 1344.6 Q127.427 1344.6 125.158 1344.23 Q122.913 1343.86 120.506 1343.12 L120.506 1338.42 Q122.589 1339.55 124.811 1340.11 Q127.033 1340.66 129.51 1340.66 Q133.515 1340.66 135.853 1338.56 Q138.191 1336.45 138.191 1332.84 Q138.191 1329.23 135.853 1327.12 Q133.515 1325.01 129.51 1325.01 Q127.635 1325.01 125.76 1325.43 Q123.908 1325.85 121.964 1326.73 L121.964 1309.37 Z" fill="#000000" fill-rule="nonzero" fill-opacity="1" /><path clip-path="url(#clip740)" d="M130.922 1152.64 Q127.311 1152.64 125.482 1156.21 Q123.677 1159.75 123.677 1166.88 Q123.677 1173.99 125.482 1177.55 Q127.311 1181.09 130.922 1181.09 Q134.556 1181.09 136.362 1177.55 Q138.191 1173.99 138.191 1166.88 Q138.191 1159.75 136.362 1156.21 Q134.556 1152.64 130.922 1152.64 M130.922 1148.94 Q136.732 1148.94 139.788 1153.55 Q142.867 1158.13 142.867 1166.88 Q142.867 1175.61 139.788 1180.21 Q136.732 1184.8 130.922 1184.8 Q125.112 1184.8 122.033 1180.21 Q118.978 1175.61 118.978 1166.88 Q118.978 1158.13 122.033 1153.55 Q125.112 1148.94 130.922 1148.94 Z" fill="#000000" fill-rule="nonzero" fill-opacity="1" /><path clip-path="url(#clip740)" d="M121.964 989.765 L140.32 989.765 L140.32 993.7 L126.246 993.7 L126.246 1002.17 Q127.265 1001.83 128.283 1001.66 Q129.302 1001.48 130.32 1001.48 Q136.107 1001.48 139.487 1004.65 Q142.867 1007.82 142.867 1013.24 Q142.867 1018.82 139.394 1021.92 Q135.922 1025 129.603 1025 Q127.427 1025 125.158 1024.63 Q122.913 1024.26 120.506 1023.51 L120.506 1018.82 Q122.589 1019.95 124.811 1020.51 Q127.033 1021.06 129.51 1021.06 Q133.515 1021.06 135.853 1018.95 Q138.191 1016.85 138.191 1013.24 Q138.191 1009.63 135.853 1007.52 Q133.515 1005.41 129.51 1005.41 Q127.635 1005.41 125.76 1005.83 Q123.908 1006.25 121.964 1007.13 L121.964 989.765 Z" fill="#000000" fill-rule="nonzero" fill-opacity="1" /><path clip-path="url(#clip740)" d="M91.5706 860.589 L99.2095 860.589 L99.2095 834.223 L90.8993 835.89 L90.8993 831.631 L99.1632 829.964 L103.839 829.964 L103.839 860.589 L111.478 860.589 L111.478 864.524 L91.5706 864.524 L91.5706 860.589 Z" fill="#000000" fill-rule="nonzero" fill-opacity="1" /><path clip-path="url(#clip740)" d="M130.922 833.043 Q127.311 833.043 125.482 836.608 Q123.677 840.149 123.677 847.279 Q123.677 854.385 125.482 857.95 Q127.311 861.492 130.922 861.492 Q134.556 861.492 136.362 857.95 Q138.191 854.385 138.191 847.279 Q138.191 840.149 136.362 836.608 Q134.556 833.043 130.922 833.043 M130.922 829.339 Q136.732 829.339 139.788 833.946 Q142.867 838.529 142.867 847.279 Q142.867 856.006 139.788 860.612 Q136.732 865.195 130.922 865.195 Q125.112 865.195 122.033 860.612 Q118.978 856.006 118.978 847.279 Q118.978 838.529 122.033 833.946 Q125.112 829.339 130.922 829.339 Z" fill="#000000" fill-rule="nonzero" fill-opacity="1" /><polyline clip-path="url(#clip743)" style="stroke:#009af9; stroke-linecap:round; stroke-linejoin:round; stroke-width:4; stroke-opacity:1; fill:none" points="240.392,1134.89 242.445,1187.11 244.498,1132.48 246.55,1119.02 248.603,1231 250.656,1273.29 252.709,1838.13 254.762,1191.7 256.815,1173.44 258.868,1217 260.921,1279.71 262.974,1090.9 265.027,1156.04 267.079,1148.06 269.132,1120.83 271.185,1146.79 273.238,1234.38 275.291,1293.79 277.344,1110.44 279.397,1140.91 281.45,1249.2 283.503,1158.3 285.555,1180.31 287.608,1151.81 289.661,1156.62 291.714,1143.21 293.767,1106.79 295.82,1143.18 297.873,1036.83 299.926,1103.39 301.979,1276.87 304.031,1264.95 306.084,1115.62 308.137,1170.23 310.19,1144.82 312.243,1183.12 314.296,1184.63 316.349,1145.27 318.402,1206.94 320.455,959.361 322.507,1128 324.56,1164.93 326.613,1181.27 328.666,1180.29 330.719,1156.56 332.772,1175.65 334.825,1165.49 336.878,1146.62 338.931,1181.73 340.984,1164.83 343.036,1132.61 345.089,1112.29 347.142,1138.89 349.195,1210.34 351.248,1138.08 353.301,1144.69 355.354,1132.64 357.407,1360.5 359.46,1214.46 361.512,1158.77 363.565,1173.49 365.618,1147.08 367.671,913.689 369.724,700.336 371.777,1881.94 373.83,1104.73 375.883,1171.47 377.936,1170.95 379.988,1185.3 382.041,1100.38 384.094,1139.62 386.147,1331.33 388.2,1259.29 390.253,1079.47 392.306,1099.63 394.359,1058.47 396.412,1140.1 398.464,1157.21 400.517,1184.02 402.57,1201.03 404.623,1048.98 406.676,1136.77 408.729,1199.8 410.782,1132.21 412.835,1151.81 414.888,1216.6 416.94,1154.83 418.993,1136.7 421.046,1182.72 423.099,1181.16 425.152,1169.05 427.205,1171.7 429.258,1138.08 431.311,1141.36 433.364,1145.2 435.417,1228.91 437.469,1155.05 439.522,1166.28 441.575,1114.27 443.628,1356.85 445.681,1198.54 447.734,1142.92 449.787,1185.28 451.84,1131.3 453.893,1159.55 455.945,1157.03 457.998,1170.11 460.051,1232.89 462.104,1293.85 464.157,1306.24 466.21,1347.75 468.263,1089.33 470.316,1425.99 472.369,936.111 474.421,1083.58 476.474,1177.8 478.527,1175.15 480.58,1114.57 482.633,1127.51 484.686,1192.3 486.739,1079.41 488.792,1120.4 490.845,1149.58 492.897,1157.01 494.95,1208.87 497.003,1189.56 499.056,1319.14 501.109,1126.03 503.162,1214.75 505.215,1154.68 507.268,851.997 509.321,746.379 511.374,1178.95 513.426,1525.31 515.479,1296.24 517.532,1065.83 519.585,1079.68 521.638,1176.58 523.691,1173.43 525.744,1121.56 527.797,998.292 529.85,1291.95 531.902,1073.71 533.955,1210.05 536.008,1218.63 538.061,1175.85 540.114,1031.23 542.167,1201.29 544.22,1214.26 546.273,872.09 548.326,1223.68 550.378,1123.61 552.431,1173.49 554.484,1173.68 556.537,1218.2 558.59,1055.21 560.643,1292.92 562.696,1147.73 564.749,1187.13 566.802,1166.73 568.854,1176.8 570.907,1154.27 572.96,1159.03 575.013,1150.63 577.066,1194.69 579.119,1151.53 581.172,1155.82 583.225,1164.02 585.278,1176.78 587.331,1173.43 589.383,1178.35 591.436,1197.65 593.489,1138.79 595.542,1209.45 597.595,1175.98 599.648,1189.2 601.701,1160.1 603.754,1165.72 605.807,1187.24 607.859,1178.16 609.912,1147.93 611.965,1143.6 614.018,1149.48 616.071,1167.48 618.124,1182.44 620.177,1130.6 622.23,1146.03 624.283,1151.59 626.335,1199.74 628.388,1266.93 630.441,1117.07 632.494,1203.01 634.547,1178.46 636.6,1138.64 638.653,1158.05 640.706,1160.88 642.759,1055.73 644.811,1217.39 646.864,1196.64 648.917,1134.28 650.97,789.75 653.023,1106.18 655.076,1189.15 657.129,1120.67 659.182,1166.51 661.235,1185.65 663.288,1171.59 665.34,1034.97 667.393,1094.83 669.446,1167.89 671.499,1178.7 673.552,1182.13 675.605,1171.75 677.658,1163.71 679.711,1174.01 681.764,1173.79 683.816,1179.87 685.869,1229.42 687.922,1236.1 689.975,1324.15 692.028,1337.27 694.081,1178.97 696.134,1182.62 698.187,1189.32 700.24,1177.67 702.292,1165.06 704.345,1173.06 706.398,1128.15 708.451,955.753 710.504,1326.52 712.557,874.096 714.61,669.247 716.663,601.492 718.716,893.429 720.768,881.027 722.821,722.138 724.874,1288.47 726.927,1095.14 728.98,1148.69 731.033,1102.3 733.086,1156.64 735.139,1194.68 737.192,1170.35 739.245,1208.8 741.297,1122.9 743.35,1253.51 745.403,1120.63 747.456,1224.77 749.509,959.536 751.562,1405.15 753.615,1486.46 755.668,712.191 757.721,603.613 759.773,1879.88 761.826,1092.85 763.879,1184.67 765.932,1114.71 767.985,1151.69 770.038,1044.08 772.091,1156.31 774.144,1188.99 776.197,1193.05 778.249,1150.14 780.302,1179.73 782.355,1151.85 784.408,1215.12 786.461,1164.32 788.514,1155.69 790.567,1182.51 792.62,1181.25 794.673,1176.56 796.725,1237.51 798.778,1153.9 800.831,1146.98 802.884,1353.55 804.937,1013.23 806.99,1207.36 809.043,1215.02 811.096,1171.35 813.149,1159.05 815.202,1169.4 817.254,1149.63 819.307,1148.61 821.36,1130.81 823.413,1095.57 825.466,1262.35 827.519,1319.16 829.572,1246.35 831.625,1320.32 833.678,1153.66 835.73,1151.32 837.783,1138.12 839.836,1159.63 841.889,1163.98 843.942,1172.44 845.995,1192.69 848.048,1146.76 850.101,1163.12 852.154,1165.47 854.206,1152.08 856.259,1151.47 858.312,1174.58 860.365,1139.47 862.418,1138.66 864.471,1174.03 866.524,1072.53 868.577,1137.73 870.63,1202.77 872.682,1132.32 874.735,1121.04 876.788,1265.35 878.841,1103.68 880.894,1168.63 882.947,1124.45 885,1180.68 887.053,1235.38 889.106,1085.05 891.159,1107.63 893.211,1145.61 895.264,1243.78 897.317,1073.33 899.37,1244.3 901.423,1241.73 903.476,1244.04 905.529,1101.56 907.582,1376.37 909.635,1143.05 911.687,1186.47 913.74,1160.61 915.793,1173.5 917.846,1167.41 919.899,1148.99 921.952,1114.38 924.005,1134.4 926.058,1184.99 928.111,1226.11 930.163,1214.4 932.216,1195.6 934.269,1211.32 936.322,1126.7 938.375,1163.5 940.428,1191.63 942.481,1124.46 944.534,1116.74 946.587,1203.27 948.639,1209.58 950.692,1149.88 952.745,1179.86 954.798,1191.41 956.851,1132.5 958.904,1174.08 960.957,1139.56 963.01,1155.61 965.063,1092.75 967.116,1201.65 969.168,1185.53 971.221,1206.99 973.274,1180.84 975.327,1146.16 977.38,1183.67 979.433,1157.59 981.486,1180.26 983.539,1165.43 985.592,1203.52 987.644,1172.02 989.697,1154.23 991.75,1172.2 993.803,1187.62 995.856,1156.07 997.909,1118.9 999.962,1198.84 1002.01,1221.13 1004.07,1157.91 1006.12,1187.94 1008.17,1170.57 1010.23,1163.26 1012.28,1198.55 1014.33,1184.19 1016.38,1158.88 1018.44,1158 1020.49,1239.82 1022.54,1126.86 1024.6,1170.73 1026.65,1158.04 1028.7,1174.09 1030.76,1162.92 1032.81,1177.22 1034.86,1200.85 1036.91,1155.44 1038.97,1186.81 1041.02,1164.59 1043.07,1140.55 1045.13,1342.07 1047.18,1034.32 1049.23,1281.57 1051.28,1227.33 1053.34,1246.38 1055.39,1529.81 1057.44,1178.29 1059.5,1133.1 1061.55,666.42 1063.6,1437.83 1065.65,1268.4 1067.71,1140.31 1069.76,665.295 1071.81,1442.47 1073.87,1128.49 1075.92,1156.29 1077.97,1097.44 1080.02,1042.56 1082.08,1137.47 1084.13,1256.64 1086.18,1220.11 1088.24,1160.27 1090.29,1164.45 1092.34,1150.87 1094.39,1160.2 1096.45,1103.03 1098.5,1119.81 1100.55,1159.21 1102.61,1179.52 1104.66,1194.78 1106.71,1244.73 1108.77,1132.58 1110.82,1209.65 1112.87,1200.83 1114.92,1135.01 1116.98,1139.73 1119.03,1364.9 1121.08,1103.34 1123.14,1109.57 1125.19,1168.1 1127.24,1177.76 1129.29,1138.04 1131.35,1156.52 1133.4,1174.73 1135.45,1153.28 1137.51,1137.13 1139.56,1154.54 1141.61,1116.83 1143.66,1185.3 1145.72,1185.74 1147.77,1239.21 1149.82,1138.91 1151.88,1192.06 1153.93,1153.15 1155.98,1127.5 1158.03,1226.83 1160.09,1264.06 1162.14,1222.72 1164.19,1182.27 1166.25,1215.52 1168.3,1244.04 1170.35,1154.92 1172.4,1140.99 1174.46,1135.54 1176.51,1172.55 1178.56,1295.77 1180.62,1207.19 1182.67,1076.65 1184.72,1310.1 1186.77,1233.79 1188.83,1265.62 1190.88,1016.8 1192.93,1313.37 1194.99,1087.56 1197.04,1097.96 1199.09,1046.98 1201.15,1070.31 1203.2,1181.38 1205.25,1266.94 1207.3,1075.17 1209.36,1207.65 1211.41,1198.79 1213.46,1094.28 1215.52,1254.59 1217.57,1459.7 1219.62,783.31 1221.67,869.418 1223.73,1213.14 1225.78,894.756 1227.83,2177.07 1229.89,1276.93 1231.94,778.34 1233.99,641.231 1236.04,813.437 1238.1,1525.73 1240.15,1177.02 1242.2,1155.39 1244.26,1142.32 1246.31,1178.35 1248.36,1141.86 1250.41,1140.31 1252.47,1155.42 1254.52,1132.86 1256.57,1163.6 1258.63,1167.51 1260.68,1199.74 1262.73,1173.76 1264.78,1163.05 1266.84,1157.75 1268.89,1166.95 1270.94,1191.42 1273,1141.37 1275.05,1195.86 1277.1,1154.12 1279.16,1172.59 1281.21,1140.97 1283.26,1147.85 1285.31,1216.11 1287.37,1133.76 1289.42,1155.13 1291.47,1097.92 1293.53,1122.62 1295.58,1157.31 1297.63,1154.61 1299.68,1190.99 1301.74,1184.88 1303.79,1128.18 1305.84,1156.54 1307.9,1143.49 1309.95,985.536 1312,1268.08 1314.05,1198.66 1316.11,1151.2 1318.16,1161.12 1320.21,1159.85 1322.27,1181.84 1324.32,1181.33 1326.37,1162.89 1328.42,1172.66 1330.48,1161.34 1332.53,1150.32 1334.58,1114.16 1336.64,1137 1338.69,1316.01 1340.74,1010.6 1342.79,1186.9 1344.85,1459.8 1346.9,1298.23 1348.95,1263.14 1351.01,1242.4 1353.06,1182.79 1355.11,1171.33 1357.16,1151.25 1359.22,1188.15 1361.27,1169.09 1363.32,1154.33 1365.38,840.319 1367.43,1261.22 1369.48,1210.54 1371.54,801.206 1373.59,1304.86 1375.64,1215.3 1377.69,1170.82 1379.75,1228.08 1381.8,1149.08 1383.85,1200.69 1385.91,1138.72 1387.96,1118.04 1390.01,1204.43 1392.06,1194.68 1394.12,1191.78 1396.17,1248.1 1398.22,1136.78 1400.28,1144.36 1402.33,1205.56 1404.38,1180.68 1406.43,1219.71 1408.49,1115.03 1410.54,1084.58 1412.59,989.866 1414.65,1041.44 1416.7,1270.96 1418.75,1091.26 1420.8,1110.05 1422.86,1111.5 1424.91,1163.25 1426.96,1175.13 1429.02,1152.87 1431.07,1199.83 1433.12,1192.59 1435.17,1191.26 1437.23,1216.1 1439.28,1119.9 1441.33,1148.25 1443.39,1190.23 1445.44,1148.04 1447.49,1133.74 1449.55,1173.99 1451.6,1117.6 1453.65,1153.9 1455.7,1223.73 1457.76,1258.54 1459.81,1184.29 1461.86,1116.94 1463.92,1144.53 1465.97,1190.39 1468.02,1183.54 1470.07,1153.72 1472.13,1192.08 1474.18,1170.12 1476.23,1198.71 1478.29,1155.28 1480.34,1183.52 1482.39,1148.39 1484.44,1140.37 1486.5,1195.12 1488.55,1137.57 1490.6,1105.34 1492.66,1185.3 1494.71,1202.66 1496.76,1153.87 1498.81,1226.18 1500.87,1132 1502.92,1176.76 1504.97,1147.82 1507.03,1145.11 1509.08,1146.84 1511.13,1132.09 1513.18,1239.07 1515.24,1092.91 1517.29,1183.03 1519.34,1155.3 1521.4,1157.07 1523.45,1171.55 1525.5,1169.36 1527.55,1171.99 1529.61,1179.69 1531.66,1190.99 1533.71,1171.06 1535.77,1213.62 1537.82,1188.19 1539.87,1159.84 1541.93,1158.89 1543.98,1005.42 1546.03,1192.82 1548.08,1228.22 1550.14,1254.23 1552.19,1234.4 1554.24,1188.9 1556.3,1174.82 1558.35,1175.72 1560.4,1143.58 1562.45,1218.76 1564.51,1157.4 1566.56,1141.68 1568.61,942.164 1570.67,858.246 1572.72,1123.71 1574.77,1415.67 1576.82,542.237 1578.88,1238.82 1580.93,1127 1582.98,1177.76 1585.04,1155.98 1587.09,1175.3 1589.14,1212.45 1591.19,1158.15 1593.25,1167.31 1595.3,1172.64 1597.35,1159.78 1599.41,1164.9 1601.46,1144.39 1603.51,1125.67 1605.56,1217.4 1607.62,1105.38 1609.67,1370.98 1611.72,1170.62 1613.78,1174.2 1615.83,1065.33 1617.88,1108.51 1619.94,1142.84 1621.99,1165.16 1624.04,1159.28 1626.09,1184.83 1628.15,1172.42 1630.2,1143.23 1632.25,1138.07 1634.31,1192.38 1636.36,1147.74 1638.41,1130.28 1640.46,1097.45 1642.52,1102.7 1644.57,1196.28 1646.62,1163.18 1648.68,1213.32 1650.73,1186.05 1652.78,1191 1654.83,1160.83 1656.89,1160.08 1658.94,990.779 1660.99,1300.68 1663.05,1274.51 1665.1,1415.85 1667.15,832.882 1669.2,651.552 1671.26,1144.33 1673.31,1176.2 1675.36,1090.37 1677.42,1045.49 1679.47,1113.79 1681.52,1165.16 1683.57,1123.66 1685.63,1131.78 1687.68,1173.34 1689.73,1180.02 1691.79,1188.9 1693.84,1185.22 1695.89,1158.78 1697.94,1135.53 1700,1183.93 1702.05,1142.99 1704.1,1178.3 1706.16,1155.55 1708.21,1206.65 1710.26,1256.26 1712.32,1219.69 1714.37,1124.27 1716.42,1187.92 1718.47,1038.62 1720.53,1469.15 1722.58,1105.16 1724.63,1251.78 1726.69,1215.11 1728.74,1199.71 1730.79,1203.87 1732.84,1135.77 1734.9,1178.14 1736.95,1177.76 1739,1141.71 1741.06,1132.3 1743.11,1134.6 1745.16,1182.06 1747.21,1174.12 1749.27,1148.96 1751.32,1178.61 1753.37,1138.79 1755.43,834.654 1757.48,1151.97 1759.53,1159.57 1761.58,1170.61 1763.64,1301.19 1765.69,1041.76 1767.74,1118.27 1769.8,1204.42 1771.85,1188.47 1773.9,1179.62 1775.95,1387.7 1778.01,1086.97 1780.06,1124.92 1782.11,1264.34 1784.17,1157.03 1786.22,1175.49 1788.27,1078.95 1790.33,1368.7 1792.38,1128.52 1794.43,1246.6 1796.48,1014.93 1798.54,1245.83 1800.59,1132.02 1802.64,1124.33 1804.7,1170.93 1806.75,1123.24 1808.8,1170.73 1810.85,1159.93 1812.91,680.844 1814.96,612.719 1817.01,1147.57 1819.07,1053.98 1821.12,1196.88 1823.17,1130.07 1825.22,1218.72 1827.28,1142.83 1829.33,1206.7 1831.38,1157.03 1833.44,1159.91 1835.49,1175.91 1837.54,1153.36 1839.59,1064.15 1841.65,474.342 1843.7,1566.15 1845.75,1998.76 1847.81,1086.29 1849.86,1186.07 1851.91,1194.19 1853.96,842.166 1856.02,1099.74 1858.07,1181.28 1860.12,1176.6 1862.18,1154.72 1864.23,1173.14 1866.28,1132.28 1868.34,1154.41 1870.39,1141.39 1872.44,1212.07 1874.49,1099.37 1876.55,1243.61 1878.6,1240.89 1880.65,1194.58 1882.71,1151.03 1884.76,1181.28 1886.81,1135.82 1888.86,1228.02 1890.92,1223.68 1892.97,1243.8 1895.02,1043.86 1897.08,1383.52 1899.13,1323.48 1901.18,1171.6 1903.23,1186.52 1905.29,972.232 1907.34,1183.5 1909.39,1166.92 1911.45,1164.15 1913.5,1053.13 1915.55,1157.42 1917.6,1191.45 1919.66,1173.34 1921.71,1194.64 1923.76,1183.49 1925.82,1062.97 1927.87,1247.34 1929.92,1173.29 1931.97,1140.29 1934.03,1094.5 1936.08,1044.95 1938.13,1147.3 1940.19,1567.18 1942.24,1409.24 1944.29,1147.17 1946.34,1165.14 1948.4,1154.81 1950.45,1263.35 1952.5,1121.05 1954.56,1243.34 1956.61,1132.28 1958.66,1181.68 1960.72,1219 1962.77,1294.08 1964.82,1156.58 1966.87,1173.01 1968.93,1214.9 1970.98,1083.76 1973.03,1237.63 1975.09,1183.29 1977.14,1138.02 1979.19,1188.58 1981.24,1084.47 1983.3,1236.76 1985.35,1006.42 1987.4,1079.65 1989.46,966.497 1991.51,1180.51 1993.56,1096.28 1995.61,1060.41 1997.67,1133.34 1999.72,1117.55 2001.77,1140.3 2003.83,1129.45 2005.88,1159.43 2007.93,1148.06 2009.98,1125 2012.04,1165.73 2014.09,1420.61 2016.14,1088.76 2018.2,1212.59 2020.25,1335.22 2022.3,1179.13 2024.35,1163.58 2026.41,1232.42 2028.46,1209.51 2030.51,1129.12 2032.57,1148.74 2034.62,1392.54 2036.67,1106.3 2038.73,1133.5 2040.78,1208.82 2042.83,1128.52 2044.88,1196.64 2046.94,1136.44 2048.99,1164.79 2051.04,1130.33 2053.1,1143.38 2055.15,1097.59 2057.2,1163.65 2059.25,1212.62 2061.31,684.267 2063.36,1272.3 2065.41,1148.58 2067.47,1194.03 2069.52,1160.47 2071.57,1178.09 2073.62,1131.33 2075.68,1200.76 2077.73,1282.7 2079.78,1260.91 2081.84,1186.45 2083.89,1094.8 2085.94,1182.13 2087.99,1165.18 2090.05,1144.26 2092.1,1149.2 2094.15,1043.08 2096.21,716.188 2098.26,1675.28 2100.31,702.989 2102.36,1578.86 2104.42,1571.95 2106.47,1191.19 2108.52,1093.82 2110.58,1181.4 2112.63,1150.77 2114.68,1032.41 2116.73,1360.22 2118.79,1190.9 2120.84,1212.37 2122.89,1116.72 2124.95,1140.72 2127,1105.97 2129.05,1106.84 2131.11,1102.87 2133.16,1071.04 2135.21,1342.27 2137.26,-1103.84 2139.32,3054.34 2141.37,429.291 2143.42,1071.28 2145.48,1204.45 2147.53,1163.3 2149.58,1308.1 2151.63,943.827 2153.69,928.714 2155.74,1323.65 2157.79,1203 2159.85,1173.81 2161.9,1157.03 2163.95,1162.31 2166,1177.9 2168.06,1179.96 2170.11,1152.59 2172.16,1165.17 2174.22,1145.51 2176.27,1173.37 2178.32,1163.48 2180.37,1212.59 2182.43,1150.47 2184.48,1162.83 2186.53,1130.34 2188.59,1168.62 2190.64,1179.19 2192.69,1179.06 2194.74,1180.38 2196.8,1191.55 2198.85,1198.3 2200.9,1169.53 2202.96,1182.8 2205.01,1099.02 2207.06,1152.73 2209.12,1161.71 2211.17,1133.27 2213.22,1147.03 2215.27,1168.63 2217.33,1131.03 2219.38,1255.25 2221.43,1195.99 2223.49,1164.4 2225.54,1161.12 2227.59,1138.47 2229.64,1270.73 2231.7,899.532 2233.75,1832.65 2235.8,1753.64 2237.86,2330.63 2239.91,1198.96 2241.96,1205.74 2244.01,1315.23 2246.07,266.345 2248.12,519.534 2250.17,739.022 2252.23,938.814 2254.28,872.329 2256.33,881.811 2258.38,932.538 2260.44,1166.33 2262.49,1471.37 2264.54,1642.53 2266.6,866.379 2268.65,1132.37 2270.7,1225.1 2272.75,1204.38 2274.81,940.398 2276.86,1431.06 2278.91,-787.639 2280.97,556.688 2283.02,1282.55 2285.07,931.517 2287.12,962.394 2289.18,1231.36 2291.23,1076.84 "/>
<path clip-path="url(#clip740)" d="M251.33 1465.14 L588.926 1465.14 L588.926 1361.46 L251.33 1361.46  Z" fill="#ffffff" fill-rule="evenodd" fill-opacity="1"/>
<polyline clip-path="url(#clip740)" style="stroke:#000000; stroke-linecap:round; stroke-linejoin:round; stroke-width:4; stroke-opacity:1; fill:none" points="251.33,1465.14 588.926,1465.14 588.926,1361.46 251.33,1361.46 251.33,1465.14 "/>
<polyline clip-path="url(#clip740)" style="stroke:#009af9; stroke-linecap:round; stroke-linejoin:round; stroke-width:4; stroke-opacity:1; fill:none" points="275.484,1413.3 420.41,1413.3 "/>
<path clip-path="url(#clip740)" d="M470.12 1425.65 L470.12 1416.37 L462.481 1416.37 L462.481 1412.53 L474.749 1412.53 L474.749 1427.36 Q472.041 1429.28 468.777 1430.28 Q465.513 1431.25 461.809 1431.25 Q453.708 1431.25 449.124 1426.53 Q444.564 1421.78 444.564 1413.34 Q444.564 1404.86 449.124 1400.14 Q453.708 1395.4 461.809 1395.4 Q465.189 1395.4 468.221 1396.23 Q471.277 1397.06 473.846 1398.68 L473.846 1403.66 Q471.254 1401.46 468.337 1400.35 Q465.421 1399.24 462.203 1399.24 Q455.86 1399.24 452.666 1402.78 Q449.495 1406.32 449.495 1413.34 Q449.495 1420.33 452.666 1423.87 Q455.86 1427.41 462.203 1427.41 Q464.68 1427.41 466.624 1426.99 Q468.569 1426.55 470.12 1425.65 Z" fill="#000000" fill-rule="nonzero" fill-opacity="1" /><path clip-path="url(#clip740)" d="M487.967 1399.86 L487.967 1412.85 L493.846 1412.85 Q497.11 1412.85 498.893 1411.16 Q500.675 1409.47 500.675 1406.35 Q500.675 1403.24 498.893 1401.55 Q497.11 1399.86 493.846 1399.86 L487.967 1399.86 M483.291 1396.02 L493.846 1396.02 Q499.657 1396.02 502.619 1398.66 Q505.606 1401.28 505.606 1406.35 Q505.606 1411.46 502.619 1414.08 Q499.657 1416.69 493.846 1416.69 L487.967 1416.69 L487.967 1430.58 L483.291 1430.58 L483.291 1396.02 Z" fill="#000000" fill-rule="nonzero" fill-opacity="1" /><path clip-path="url(#clip740)" d="M532.596 1397.16 L532.596 1401.72 Q529.934 1400.44 527.573 1399.82 Q525.212 1399.19 523.013 1399.19 Q519.193 1399.19 517.11 1400.67 Q515.05 1402.16 515.05 1404.89 Q515.05 1407.18 516.416 1408.36 Q517.805 1409.52 521.647 1410.23 L524.471 1410.81 Q529.703 1411.81 532.179 1414.33 Q534.679 1416.83 534.679 1421.04 Q534.679 1426.07 531.3 1428.66 Q527.943 1431.25 521.439 1431.25 Q518.985 1431.25 516.207 1430.7 Q513.453 1430.14 510.49 1429.05 L510.49 1424.24 Q513.337 1425.84 516.068 1426.65 Q518.8 1427.46 521.439 1427.46 Q525.443 1427.46 527.619 1425.88 Q529.795 1424.31 529.795 1421.39 Q529.795 1418.85 528.221 1417.41 Q526.67 1415.97 523.105 1415.26 L520.258 1414.7 Q515.027 1413.66 512.689 1411.44 Q510.351 1409.22 510.351 1405.26 Q510.351 1400.67 513.568 1398.03 Q516.809 1395.4 522.48 1395.4 Q524.911 1395.4 527.434 1395.84 Q529.957 1396.28 532.596 1397.16 Z" fill="#000000" fill-rule="nonzero" fill-opacity="1" /><path clip-path="url(#clip740)" d="M562.689 1397.16 L562.689 1401.72 Q560.027 1400.44 557.665 1399.82 Q555.304 1399.19 553.105 1399.19 Q549.286 1399.19 547.203 1400.67 Q545.142 1402.16 545.142 1404.89 Q545.142 1407.18 546.508 1408.36 Q547.897 1409.52 551.74 1410.23 L554.564 1410.81 Q559.795 1411.81 562.272 1414.33 Q564.772 1416.83 564.772 1421.04 Q564.772 1426.07 561.392 1428.66 Q558.036 1431.25 551.531 1431.25 Q549.078 1431.25 546.3 1430.7 Q543.545 1430.14 540.582 1429.05 L540.582 1424.24 Q543.429 1425.84 546.161 1426.65 Q548.892 1427.46 551.531 1427.46 Q555.536 1427.46 557.712 1425.88 Q559.888 1424.31 559.888 1421.39 Q559.888 1418.85 558.314 1417.41 Q556.763 1415.97 553.198 1415.26 L550.351 1414.7 Q545.119 1413.66 542.781 1411.44 Q540.443 1409.22 540.443 1405.26 Q540.443 1400.67 543.661 1398.03 Q546.902 1395.4 552.573 1395.4 Q555.003 1395.4 557.527 1395.84 Q560.05 1396.28 562.689 1397.16 Z" fill="#000000" fill-rule="nonzero" fill-opacity="1" /></svg>
