<?xml version="1.0" encoding="utf-8"?>
<svg xmlns="http://www.w3.org/2000/svg" xmlns:xlink="http://www.w3.org/1999/xlink" width="600" height="400" viewBox="0 0 2400 1600">
<defs>
  <clipPath id="clip960">
    <rect x="0" y="0" width="2400" height="1600"/>
  </clipPath>
</defs>
<path clip-path="url(#clip960)" d="M0 1600 L2400 1600 L2400 0 L0 0  Z" fill="#ffffff" fill-rule="evenodd" fill-opacity="1"/>
<defs>
  <clipPath id="clip961">
    <rect x="242" y="47" width="2112" height="1377"/>
  </clipPath>
</defs>
<path clip-path="url(#clip960)" d="M178.867 686.448 L2352.76 686.448 L2352.76 47.2441 L178.867 47.2441  Z" fill="#ffffff" fill-rule="evenodd" fill-opacity="1"/>
<defs>
  <clipPath id="clip962">
    <rect x="178" y="47" width="2175" height="640"/>
  </clipPath>
</defs>
<polyline clip-path="url(#clip962)" style="stroke:#000000; stroke-linecap:round; stroke-linejoin:round; stroke-width:2; stroke-opacity:0.1; fill:none" points="238.339,686.448 238.339,47.2441 "/>
<polyline clip-path="url(#clip962)" style="stroke:#000000; stroke-linecap:round; stroke-linejoin:round; stroke-width:2; stroke-opacity:0.1; fill:none" points="751.562,686.448 751.562,47.2441 "/>
<polyline clip-path="url(#clip962)" style="stroke:#000000; stroke-linecap:round; stroke-linejoin:round; stroke-width:2; stroke-opacity:0.1; fill:none" points="1264.78,686.448 1264.78,47.2441 "/>
<polyline clip-path="url(#clip962)" style="stroke:#000000; stroke-linecap:round; stroke-linejoin:round; stroke-width:2; stroke-opacity:0.1; fill:none" points="1778.01,686.448 1778.01,47.2441 "/>
<polyline clip-path="url(#clip962)" style="stroke:#000000; stroke-linecap:round; stroke-linejoin:round; stroke-width:2; stroke-opacity:0.1; fill:none" points="2291.23,686.448 2291.23,47.2441 "/>
<polyline clip-path="url(#clip962)" style="stroke:#000000; stroke-linecap:round; stroke-linejoin:round; stroke-width:2; stroke-opacity:0.1; fill:none" points="178.867,686.448 2352.76,686.448 "/>
<polyline clip-path="url(#clip962)" style="stroke:#000000; stroke-linecap:round; stroke-linejoin:round; stroke-width:2; stroke-opacity:0.1; fill:none" points="178.867,526.647 2352.76,526.647 "/>
<polyline clip-path="url(#clip962)" style="stroke:#000000; stroke-linecap:round; stroke-linejoin:round; stroke-width:2; stroke-opacity:0.1; fill:none" points="178.867,366.846 2352.76,366.846 "/>
<polyline clip-path="url(#clip962)" style="stroke:#000000; stroke-linecap:round; stroke-linejoin:round; stroke-width:2; stroke-opacity:0.1; fill:none" points="178.867,207.045 2352.76,207.045 "/>
<polyline clip-path="url(#clip962)" style="stroke:#000000; stroke-linecap:round; stroke-linejoin:round; stroke-width:2; stroke-opacity:0.1; fill:none" points="178.867,47.2441 2352.76,47.2441 "/>
<polyline clip-path="url(#clip960)" style="stroke:#000000; stroke-linecap:round; stroke-linejoin:round; stroke-width:4; stroke-opacity:1; fill:none" points="178.867,686.448 2352.76,686.448 "/>
<polyline clip-path="url(#clip960)" style="stroke:#000000; stroke-linecap:round; stroke-linejoin:round; stroke-width:4; stroke-opacity:1; fill:none" points="238.339,686.448 238.339,667.55 "/>
<polyline clip-path="url(#clip960)" style="stroke:#000000; stroke-linecap:round; stroke-linejoin:round; stroke-width:4; stroke-opacity:1; fill:none" points="751.562,686.448 751.562,667.55 "/>
<polyline clip-path="url(#clip960)" style="stroke:#000000; stroke-linecap:round; stroke-linejoin:round; stroke-width:4; stroke-opacity:1; fill:none" points="1264.78,686.448 1264.78,667.55 "/>
<polyline clip-path="url(#clip960)" style="stroke:#000000; stroke-linecap:round; stroke-linejoin:round; stroke-width:4; stroke-opacity:1; fill:none" points="1778.01,686.448 1778.01,667.55 "/>
<polyline clip-path="url(#clip960)" style="stroke:#000000; stroke-linecap:round; stroke-linejoin:round; stroke-width:4; stroke-opacity:1; fill:none" points="2291.23,686.448 2291.23,667.55 "/>
<path clip-path="url(#clip960)" d="M238.339 717.367 Q234.728 717.367 232.899 720.931 Q231.094 724.473 231.094 731.603 Q231.094 738.709 232.899 742.274 Q234.728 745.815 238.339 745.815 Q241.973 745.815 243.779 742.274 Q245.607 738.709 245.607 731.603 Q245.607 724.473 243.779 720.931 Q241.973 717.367 238.339 717.367 M238.339 713.663 Q244.149 713.663 247.205 718.269 Q250.283 722.853 250.283 731.603 Q250.283 740.329 247.205 744.936 Q244.149 749.519 238.339 749.519 Q232.529 749.519 229.45 744.936 Q226.395 740.329 226.395 731.603 Q226.395 722.853 229.45 718.269 Q232.529 713.663 238.339 713.663 Z" fill="#000000" fill-rule="nonzero" fill-opacity="1" /><path clip-path="url(#clip960)" d="M715.254 744.913 L731.574 744.913 L731.574 748.848 L709.629 748.848 L709.629 744.913 Q712.291 742.158 716.875 737.528 Q721.481 732.876 722.662 731.533 Q724.907 729.01 725.787 727.274 Q726.689 725.515 726.689 723.825 Q726.689 721.07 724.745 719.334 Q722.824 717.598 719.722 717.598 Q717.523 717.598 715.069 718.362 Q712.638 719.126 709.861 720.677 L709.861 715.955 Q712.685 714.82 715.138 714.242 Q717.592 713.663 719.629 713.663 Q725 713.663 728.194 716.348 Q731.388 719.033 731.388 723.524 Q731.388 725.654 730.578 727.575 Q729.791 729.473 727.685 732.066 Q727.106 732.737 724.004 735.954 Q720.902 739.149 715.254 744.913 Z" fill="#000000" fill-rule="nonzero" fill-opacity="1" /><path clip-path="url(#clip960)" d="M741.435 714.288 L759.791 714.288 L759.791 718.223 L745.717 718.223 L745.717 726.695 Q746.736 726.348 747.754 726.186 Q748.773 726.001 749.791 726.001 Q755.578 726.001 758.958 729.172 Q762.337 732.343 762.337 737.76 Q762.337 743.339 758.865 746.44 Q755.393 749.519 749.073 749.519 Q746.898 749.519 744.629 749.149 Q742.384 748.778 739.976 748.038 L739.976 743.339 Q742.06 744.473 744.282 745.028 Q746.504 745.584 748.981 745.584 Q752.985 745.584 755.323 743.478 Q757.661 741.371 757.661 737.76 Q757.661 734.149 755.323 732.042 Q752.985 729.936 748.981 729.936 Q747.106 729.936 745.231 730.353 Q743.379 730.769 741.435 731.649 L741.435 714.288 Z" fill="#000000" fill-rule="nonzero" fill-opacity="1" /><path clip-path="url(#clip960)" d="M781.55 717.367 Q777.939 717.367 776.11 720.931 Q774.305 724.473 774.305 731.603 Q774.305 738.709 776.11 742.274 Q777.939 745.815 781.55 745.815 Q785.184 745.815 786.99 742.274 Q788.819 738.709 788.819 731.603 Q788.819 724.473 786.99 720.931 Q785.184 717.367 781.55 717.367 M781.55 713.663 Q787.36 713.663 790.416 718.269 Q793.495 722.853 793.495 731.603 Q793.495 740.329 790.416 744.936 Q787.36 749.519 781.55 749.519 Q775.74 749.519 772.661 744.936 Q769.606 740.329 769.606 731.603 Q769.606 722.853 772.661 718.269 Q775.74 713.663 781.55 713.663 Z" fill="#000000" fill-rule="nonzero" fill-opacity="1" /><path clip-path="url(#clip960)" d="M1224.4 714.288 L1242.76 714.288 L1242.76 718.223 L1228.69 718.223 L1228.69 726.695 Q1229.7 726.348 1230.72 726.186 Q1231.74 726.001 1232.76 726.001 Q1238.55 726.001 1241.93 729.172 Q1245.31 732.343 1245.31 737.76 Q1245.31 743.339 1241.83 746.44 Q1238.36 749.519 1232.04 749.519 Q1229.87 749.519 1227.6 749.149 Q1225.35 748.778 1222.94 748.038 L1222.94 743.339 Q1225.03 744.473 1227.25 745.028 Q1229.47 745.584 1231.95 745.584 Q1235.95 745.584 1238.29 743.478 Q1240.63 741.371 1240.63 737.76 Q1240.63 734.149 1238.29 732.042 Q1235.95 729.936 1231.95 729.936 Q1230.07 729.936 1228.2 730.353 Q1226.35 730.769 1224.4 731.649 L1224.4 714.288 Z" fill="#000000" fill-rule="nonzero" fill-opacity="1" /><path clip-path="url(#clip960)" d="M1264.52 717.367 Q1260.91 717.367 1259.08 720.931 Q1257.27 724.473 1257.27 731.603 Q1257.27 738.709 1259.08 742.274 Q1260.91 745.815 1264.52 745.815 Q1268.15 745.815 1269.96 742.274 Q1271.79 738.709 1271.79 731.603 Q1271.79 724.473 1269.96 720.931 Q1268.15 717.367 1264.52 717.367 M1264.52 713.663 Q1270.33 713.663 1273.38 718.269 Q1276.46 722.853 1276.46 731.603 Q1276.46 740.329 1273.38 744.936 Q1270.33 749.519 1264.52 749.519 Q1258.71 749.519 1255.63 744.936 Q1252.57 740.329 1252.57 731.603 Q1252.57 722.853 1255.63 718.269 Q1258.71 713.663 1264.52 713.663 Z" fill="#000000" fill-rule="nonzero" fill-opacity="1" /><path clip-path="url(#clip960)" d="M1294.68 717.367 Q1291.07 717.367 1289.24 720.931 Q1287.44 724.473 1287.44 731.603 Q1287.44 738.709 1289.24 742.274 Q1291.07 745.815 1294.68 745.815 Q1298.31 745.815 1300.12 742.274 Q1301.95 738.709 1301.95 731.603 Q1301.95 724.473 1300.12 720.931 Q1298.31 717.367 1294.68 717.367 M1294.68 713.663 Q1300.49 713.663 1303.55 718.269 Q1306.62 722.853 1306.62 731.603 Q1306.62 740.329 1303.55 744.936 Q1300.49 749.519 1294.68 749.519 Q1288.87 749.519 1285.79 744.936 Q1282.74 740.329 1282.74 731.603 Q1282.74 722.853 1285.79 718.269 Q1288.87 713.663 1294.68 713.663 Z" fill="#000000" fill-rule="nonzero" fill-opacity="1" /><path clip-path="url(#clip960)" d="M1736.28 714.288 L1758.51 714.288 L1758.51 716.279 L1745.96 748.848 L1741.08 748.848 L1752.88 718.223 L1736.28 718.223 L1736.28 714.288 Z" fill="#000000" fill-rule="nonzero" fill-opacity="1" /><path clip-path="url(#clip960)" d="M1767.67 714.288 L1786.03 714.288 L1786.03 718.223 L1771.95 718.223 L1771.95 726.695 Q1772.97 726.348 1773.99 726.186 Q1775.01 726.001 1776.03 726.001 Q1781.82 726.001 1785.2 729.172 Q1788.57 732.343 1788.57 737.76 Q1788.57 743.339 1785.1 746.44 Q1781.63 749.519 1775.31 749.519 Q1773.14 749.519 1770.87 749.149 Q1768.62 748.778 1766.21 748.038 L1766.21 743.339 Q1768.3 744.473 1770.52 745.028 Q1772.74 745.584 1775.22 745.584 Q1779.22 745.584 1781.56 743.478 Q1783.9 741.371 1783.9 737.76 Q1783.9 734.149 1781.56 732.042 Q1779.22 729.936 1775.22 729.936 Q1773.34 729.936 1771.47 730.353 Q1769.62 730.769 1767.67 731.649 L1767.67 714.288 Z" fill="#000000" fill-rule="nonzero" fill-opacity="1" /><path clip-path="url(#clip960)" d="M1807.79 717.367 Q1804.18 717.367 1802.35 720.931 Q1800.54 724.473 1800.54 731.603 Q1800.54 738.709 1802.35 742.274 Q1804.18 745.815 1807.79 745.815 Q1811.42 745.815 1813.23 742.274 Q1815.06 738.709 1815.06 731.603 Q1815.06 724.473 1813.23 720.931 Q1811.42 717.367 1807.79 717.367 M1807.79 713.663 Q1813.6 713.663 1816.65 718.269 Q1819.73 722.853 1819.73 731.603 Q1819.73 740.329 1816.65 744.936 Q1813.6 749.519 1807.79 749.519 Q1801.98 749.519 1798.9 744.936 Q1795.84 740.329 1795.84 731.603 Q1795.84 722.853 1798.9 718.269 Q1801.98 713.663 1807.79 713.663 Z" fill="#000000" fill-rule="nonzero" fill-opacity="1" /><path clip-path="url(#clip960)" d="M2235.76 744.913 L2243.4 744.913 L2243.4 718.547 L2235.09 720.214 L2235.09 715.955 L2243.35 714.288 L2248.02 714.288 L2248.02 744.913 L2255.66 744.913 L2255.66 748.848 L2235.76 748.848 L2235.76 744.913 Z" fill="#000000" fill-rule="nonzero" fill-opacity="1" /><path clip-path="url(#clip960)" d="M2275.11 717.367 Q2271.5 717.367 2269.67 720.931 Q2267.86 724.473 2267.86 731.603 Q2267.86 738.709 2269.67 742.274 Q2271.5 745.815 2275.11 745.815 Q2278.74 745.815 2280.55 742.274 Q2282.38 738.709 2282.38 731.603 Q2282.38 724.473 2280.55 720.931 Q2278.74 717.367 2275.11 717.367 M2275.11 713.663 Q2280.92 713.663 2283.97 718.269 Q2287.05 722.853 2287.05 731.603 Q2287.05 740.329 2283.97 744.936 Q2280.92 749.519 2275.11 749.519 Q2269.3 749.519 2266.22 744.936 Q2263.16 740.329 2263.16 731.603 Q2263.16 722.853 2266.22 718.269 Q2269.3 713.663 2275.11 713.663 Z" fill="#000000" fill-rule="nonzero" fill-opacity="1" /><path clip-path="url(#clip960)" d="M2305.27 717.367 Q2301.66 717.367 2299.83 720.931 Q2298.02 724.473 2298.02 731.603 Q2298.02 738.709 2299.83 742.274 Q2301.66 745.815 2305.27 745.815 Q2308.9 745.815 2310.71 742.274 Q2312.54 738.709 2312.54 731.603 Q2312.54 724.473 2310.71 720.931 Q2308.9 717.367 2305.27 717.367 M2305.27 713.663 Q2311.08 713.663 2314.14 718.269 Q2317.21 722.853 2317.21 731.603 Q2317.21 740.329 2314.14 744.936 Q2311.08 749.519 2305.27 749.519 Q2299.46 749.519 2296.38 744.936 Q2293.33 740.329 2293.33 731.603 Q2293.33 722.853 2296.38 718.269 Q2299.46 713.663 2305.27 713.663 Z" fill="#000000" fill-rule="nonzero" fill-opacity="1" /><path clip-path="url(#clip960)" d="M2335.43 717.367 Q2331.82 717.367 2329.99 720.931 Q2328.19 724.473 2328.19 731.603 Q2328.19 738.709 2329.99 742.274 Q2331.82 745.815 2335.43 745.815 Q2339.07 745.815 2340.87 742.274 Q2342.7 738.709 2342.7 731.603 Q2342.7 724.473 2340.87 720.931 Q2339.07 717.367 2335.43 717.367 M2335.43 713.663 Q2341.24 713.663 2344.3 718.269 Q2347.38 722.853 2347.38 731.603 Q2347.38 740.329 2344.3 744.936 Q2341.24 749.519 2335.43 749.519 Q2329.62 749.519 2326.54 744.936 Q2323.49 740.329 2323.49 731.603 Q2323.49 722.853 2326.54 718.269 Q2329.62 713.663 2335.43 713.663 Z" fill="#000000" fill-rule="nonzero" fill-opacity="1" /><polyline clip-path="url(#clip960)" style="stroke:#000000; stroke-linecap:round; stroke-linejoin:round; stroke-width:4; stroke-opacity:1; fill:none" points="178.867,686.448 178.867,47.2441 "/>
<polyline clip-path="url(#clip960)" style="stroke:#000000; stroke-linecap:round; stroke-linejoin:round; stroke-width:4; stroke-opacity:1; fill:none" points="178.867,686.448 197.764,686.448 "/>
<polyline clip-path="url(#clip960)" style="stroke:#000000; stroke-linecap:round; stroke-linejoin:round; stroke-width:4; stroke-opacity:1; fill:none" points="178.867,526.647 197.764,526.647 "/>
<polyline clip-path="url(#clip960)" style="stroke:#000000; stroke-linecap:round; stroke-linejoin:round; stroke-width:4; stroke-opacity:1; fill:none" points="178.867,366.846 197.764,366.846 "/>
<polyline clip-path="url(#clip960)" style="stroke:#000000; stroke-linecap:round; stroke-linejoin:round; stroke-width:4; stroke-opacity:1; fill:none" points="178.867,207.045 197.764,207.045 "/>
<polyline clip-path="url(#clip960)" style="stroke:#000000; stroke-linecap:round; stroke-linejoin:round; stroke-width:4; stroke-opacity:1; fill:none" points="178.867,47.2441 197.764,47.2441 "/>
<path clip-path="url(#clip960)" d="M50.9921 686.899 L80.6679 686.899 L80.6679 690.834 L50.9921 690.834 L50.9921 686.899 Z" fill="#000000" fill-rule="nonzero" fill-opacity="1" /><path clip-path="url(#clip960)" d="M91.5706 699.793 L99.2095 699.793 L99.2095 673.427 L90.8993 675.094 L90.8993 670.835 L99.1632 669.168 L103.839 669.168 L103.839 699.793 L111.478 699.793 L111.478 703.728 L91.5706 703.728 L91.5706 699.793 Z" fill="#000000" fill-rule="nonzero" fill-opacity="1" /><path clip-path="url(#clip960)" d="M130.922 672.247 Q127.311 672.247 125.482 675.811 Q123.677 679.353 123.677 686.483 Q123.677 693.589 125.482 697.154 Q127.311 700.695 130.922 700.695 Q134.556 700.695 136.362 697.154 Q138.191 693.589 138.191 686.483 Q138.191 679.353 136.362 675.811 Q134.556 672.247 130.922 672.247 M130.922 668.543 Q136.732 668.543 139.788 673.149 Q142.867 677.733 142.867 686.483 Q142.867 695.209 139.788 699.816 Q136.732 704.399 130.922 704.399 Q125.112 704.399 122.033 699.816 Q118.978 695.209 118.978 686.483 Q118.978 677.733 122.033 673.149 Q125.112 668.543 130.922 668.543 Z" fill="#000000" fill-rule="nonzero" fill-opacity="1" /><path clip-path="url(#clip960)" d="M82.1494 527.098 L111.825 527.098 L111.825 531.033 L82.1494 531.033 L82.1494 527.098 Z" fill="#000000" fill-rule="nonzero" fill-opacity="1" /><path clip-path="url(#clip960)" d="M121.964 509.367 L140.32 509.367 L140.32 513.302 L126.246 513.302 L126.246 521.774 Q127.265 521.427 128.283 521.265 Q129.302 521.08 130.32 521.08 Q136.107 521.08 139.487 524.251 Q142.867 527.422 142.867 532.839 Q142.867 538.418 139.394 541.52 Q135.922 544.598 129.603 544.598 Q127.427 544.598 125.158 544.228 Q122.913 543.857 120.506 543.117 L120.506 538.418 Q122.589 539.552 124.811 540.108 Q127.033 540.663 129.51 540.663 Q133.515 540.663 135.853 538.557 Q138.191 536.45 138.191 532.839 Q138.191 529.228 135.853 527.121 Q133.515 525.015 129.51 525.015 Q127.635 525.015 125.76 525.432 Q123.908 525.848 121.964 526.728 L121.964 509.367 Z" fill="#000000" fill-rule="nonzero" fill-opacity="1" /><path clip-path="url(#clip960)" d="M130.922 352.645 Q127.311 352.645 125.482 356.209 Q123.677 359.751 123.677 366.881 Q123.677 373.987 125.482 377.552 Q127.311 381.094 130.922 381.094 Q134.556 381.094 136.362 377.552 Q138.191 373.987 138.191 366.881 Q138.191 359.751 136.362 356.209 Q134.556 352.645 130.922 352.645 M130.922 348.941 Q136.732 348.941 139.788 353.547 Q142.867 358.131 142.867 366.881 Q142.867 375.608 139.788 380.214 Q136.732 384.797 130.922 384.797 Q125.112 384.797 122.033 380.214 Q118.978 375.608 118.978 366.881 Q118.978 358.131 122.033 353.547 Q125.112 348.941 130.922 348.941 Z" fill="#000000" fill-rule="nonzero" fill-opacity="1" /><path clip-path="url(#clip960)" d="M121.964 189.765 L140.32 189.765 L140.32 193.7 L126.246 193.7 L126.246 202.172 Q127.265 201.825 128.283 201.663 Q129.302 201.478 130.32 201.478 Q136.107 201.478 139.487 204.649 Q142.867 207.82 142.867 213.237 Q142.867 218.816 139.394 221.918 Q135.922 224.996 129.603 224.996 Q127.427 224.996 125.158 224.626 Q122.913 224.256 120.506 223.515 L120.506 218.816 Q122.589 219.95 124.811 220.506 Q127.033 221.061 129.51 221.061 Q133.515 221.061 135.853 218.955 Q138.191 216.848 138.191 213.237 Q138.191 209.626 135.853 207.52 Q133.515 205.413 129.51 205.413 Q127.635 205.413 125.76 205.83 Q123.908 206.246 121.964 207.126 L121.964 189.765 Z" fill="#000000" fill-rule="nonzero" fill-opacity="1" /><path clip-path="url(#clip960)" d="M91.5706 60.5889 L99.2095 60.5889 L99.2095 34.2233 L90.8993 35.89 L90.8993 31.6308 L99.1632 29.9641 L103.839 29.9641 L103.839 60.5889 L111.478 60.5889 L111.478 64.5241 L91.5706 64.5241 L91.5706 60.5889 Z" fill="#000000" fill-rule="nonzero" fill-opacity="1" /><path clip-path="url(#clip960)" d="M130.922 33.0428 Q127.311 33.0428 125.482 36.6076 Q123.677 40.1492 123.677 47.2788 Q123.677 54.3853 125.482 57.9501 Q127.311 61.4917 130.922 61.4917 Q134.556 61.4917 136.362 57.9501 Q138.191 54.3853 138.191 47.2788 Q138.191 40.1492 136.362 36.6076 Q134.556 33.0428 130.922 33.0428 M130.922 29.3391 Q136.732 29.3391 139.788 33.9456 Q142.867 38.5289 142.867 47.2788 Q142.867 56.0056 139.788 60.6121 Q136.732 65.1954 130.922 65.1954 Q125.112 65.1954 122.033 60.6121 Q118.978 56.0056 118.978 47.2788 Q118.978 38.5289 122.033 33.9456 Q125.112 29.3391 130.922 29.3391 Z" fill="#000000" fill-rule="nonzero" fill-opacity="1" /><polyline clip-path="url(#clip962)" style="stroke:#009af9; stroke-linecap:round; stroke-linejoin:round; stroke-width:4; stroke-opacity:1; fill:none" points="240.392,334.886 242.445,336.107 244.498,336.322 246.55,336.303 248.603,331.93 250.656,345.592 252.709,343.317 254.762,343.927 256.815,427.376 258.868,441.887 260.921,440.597 262.974,411.35 265.027,407.129 267.079,389.669 269.132,443.39 271.185,427.011 273.238,427.083 275.291,316.094 277.344,380.418 279.397,381.884 281.45,381.762 283.503,347.27 285.555,353.418 287.608,325.187 289.661,364.688 291.714,355.328 293.767,354.439 295.82,363.567 297.873,407.724 299.926,433.65 301.979,433.251 304.031,445.495 306.084,445.607 308.137,358.18 310.19,358.318 312.243,366.214 314.296,425.409 316.349,253.699 318.402,248.803 320.455,258.677 322.507,246.732 324.56,393.1 326.613,388.838 328.666,369.953 330.719,370.258 332.772,374.196 334.825,382.405 336.878,381.241 338.931,364.256 340.984,359.882 343.036,362.311 345.089,361.459 347.142,373.952 349.195,372.624 351.248,373.145 353.301,373.302 355.354,379.403 357.407,383.074 359.46,391.459 361.512,360.654 363.565,373.951 365.618,374.211 367.671,373.407 369.724,369.316 371.777,369.274 373.83,374.441 375.883,367.129 377.936,378.857 379.988,377.302 382.041,395.808 384.094,389.502 386.147,389.877 388.2,388.934 390.253,388.877 392.306,384.767 394.359,385.152 396.412,373.088 398.464,357.458 400.517,393.635 402.57,394.125 404.623,372.493 406.676,372.425 408.729,359.699 410.782,352.391 412.835,339.715 414.888,336.057 416.94,349.958 418.993,349.742 421.046,349.751 423.099,349.704 425.152,349.972 427.205,349.924 429.258,349.933 431.311,377.215 433.364,372.084 435.417,372.191 437.469,369.765 439.522,365.626 441.575,362.892 443.628,368.17 445.681,365.837 447.734,366.091 449.787,368.005 451.84,367.72 453.893,367.983 455.945,368.837 457.998,369.042 460.051,368.202 462.104,375.943 464.157,375.828 466.21,381.751 468.263,382.914 470.316,377.142 472.369,389.719 474.421,364.435 476.474,359.692 478.527,354.174 480.58,353.896 482.633,367.864 484.686,400.867 486.739,401.052 488.792,399.704 490.845,400.262 492.897,400.257 494.95,408.014 497.003,407.906 499.056,418.822 501.109,417.705 503.162,411.858 505.215,423.524 507.268,422.738 509.321,470.169 511.374,518.237 513.426,517.296 515.479,530.238 517.532,531.915 519.585,533.007 521.638,531.213 523.691,513.159 525.744,511.378 527.797,504.194 529.85,481.203 531.902,337.072 533.955,362.759 536.008,363.34 538.061,364.28 540.114,366.083 542.167,391.48 544.22,399.407 546.273,402.948 548.326,395.949 550.378,420.928 552.431,418.342 554.484,410.947 556.537,407.406 558.59,407.469 560.643,401.787 562.696,378.596 564.749,383.124 566.802,360.795 568.854,365.563 570.907,370.624 572.96,366.557 575.013,379.957 577.066,379.928 579.119,381.468 581.172,376.802 583.225,376.831 585.278,380.523 587.331,369.901 589.383,370.739 591.436,354.273 593.489,362.198 595.542,374.186 597.595,359.358 599.648,360.109 601.701,398.72 603.754,398.707 605.807,434.869 607.859,407.142 609.912,349.619 611.965,338.545 614.018,332.03 616.071,325.927 618.124,322.366 620.177,330.493 622.23,332.264 624.283,314.431 626.335,316.836 628.388,319.321 630.441,321.84 632.494,321.548 634.547,322.333 636.6,312.941 638.653,313.271 640.706,312.177 642.759,312.594 644.811,333.081 646.864,325.623 648.917,378.717 650.97,378.203 653.023,377.076 655.076,377.064 657.129,354.96 659.182,354.893 661.235,353.985 663.288,342.51 665.34,424.279 667.393,380.915 669.446,384.516 671.499,391.369 673.552,391.629 675.605,368.881 677.658,368.232 679.711,388.571 681.764,403.351 683.816,407.824 685.869,389.617 687.922,389.367 689.975,389.688 692.028,392.829 694.081,396.162 696.134,394.093 698.187,394.18 700.24,399.978 702.292,400.312 704.345,400.272 706.398,401.039 708.451,400.822 710.504,400.821 712.557,397.13 714.61,407.898 716.663,408.209 718.716,407.865 720.768,412.662 722.821,413.051 724.874,414.355 726.927,413.694 728.98,408.24 731.033,407.172 733.086,408.421 735.139,432.961 737.192,429.848 739.245,429.574 741.297,429.565 743.35,429.976 745.403,468.573 747.456,463.885 749.509,456.86 751.562,446.092 753.615,444.787 755.668,318.538 757.721,318.72 759.773,312.983 761.826,312.067 763.879,363.022 765.932,387.78 767.985,387.706 770.038,369.548 772.091,374.151 774.144,374.146 776.197,353.1 778.249,355.525 780.302,357.209 782.355,361.671 784.408,403.828 786.461,400.915 788.514,400.935 790.567,403.509 792.62,379.124 794.673,375.867 796.725,380.795 798.778,345.689 800.831,346.33 802.884,345.711 804.937,352.452 806.99,352.951 809.043,358.048 811.096,371.168 813.149,418.822 815.202,334.835 817.254,330.549 819.307,316.726 821.36,326.685 823.413,326.439 825.466,322.665 827.519,312.321 829.572,351.426 831.625,351.475 833.678,351.405 835.73,351.71 837.783,351.492 839.836,361.341 841.889,363.707 843.942,363.745 845.995,363.943 848.048,379.056 850.101,381.344 852.154,374.222 854.206,369.425 856.259,354.916 858.312,388.165 860.365,387.215 862.418,364.014 864.471,362.831 866.524,369.603 868.577,369.658 870.63,394.196 872.682,393.826 874.735,383.341 876.788,376.95 878.841,260.117 880.894,243.424 882.947,243.31 885,236.876 887.053,258.879 889.106,257.936 891.159,257.88 893.211,259.376 895.264,256.907 897.317,260.162 899.37,261.236 901.423,261.564 903.476,261.203 905.529,261.273 907.582,260.834 909.635,260.76 911.687,238.397 913.74,232.14 915.793,231.077 917.846,231.068 919.899,236.013 921.952,315.133 924.005,329.772 926.058,328.269 928.111,369.667 930.163,424.889 932.216,424.973 934.269,371.027 936.322,356.201 938.375,343.536 940.428,514.774 942.481,497.508 944.534,368.438 946.587,374.335 948.639,366.3 950.692,361.253 952.745,369.661 954.798,370.231 956.851,363.661 958.904,303.757 960.957,308.829 963.01,307.528 965.063,307.097 967.116,307.035 969.168,311.735 971.221,258.917 973.274,264.316 975.327,373.161 977.38,374.174 979.433,379.092 981.486,376.956 983.539,323.596 985.592,330.263 987.644,299.821 989.697,386.548 991.75,376.456 993.803,375.855 995.856,378.21 997.909,377.143 999.962,353.57 1002.01,359.17 1004.07,414.756 1006.12,369.584 1008.17,346.208 1010.23,348.367 1012.28,376.177 1014.33,455.633 1016.38,468.17 1018.44,388.379 1020.49,463.808 1022.54,469.498 1024.6,457.549 1026.65,432.746 1028.7,433.43 1030.76,433.049 1032.81,419.977 1034.86,368.041 1036.91,370.792 1038.97,372.06 1041.02,393.198 1043.07,392.963 1045.13,407.794 1047.18,407.203 1049.23,406.943 1051.28,403.654 1053.34,402.614 1055.39,389.643 1057.44,388.07 1059.5,388.029 1061.55,360.184 1063.6,358.275 1065.65,356.526 1067.71,353.25 1069.76,359.897 1071.81,356.726 1073.87,369.323 1075.92,369.467 1077.97,369.62 1080.02,371.236 1082.08,373.532 1084.13,371.5 1086.18,371.891 1088.24,365.111 1090.29,356.29 1092.34,363.098 1094.39,365.091 1096.45,363.352 1098.5,363.037 1100.55,363.059 1102.61,355.78 1104.66,375.978 1106.71,375.965 1108.77,330.808 1110.82,324.322 1112.87,329.646 1114.92,318.273 1116.98,317.581 1119.03,298.522 1121.08,339.242 1123.14,328.162 1125.19,321.35 1127.24,345.513 1129.29,260.59 1131.35,256.213 1133.4,315.52 1135.45,316.01 1137.51,301.822 1139.56,308.531 1141.61,308.504 1143.66,304.115 1145.72,304.263 1147.77,303.477 1149.82,299.363 1151.88,321.435 1153.93,470.519 1155.98,397.872 1158.03,323.82 1160.09,322.965 1162.14,320.938 1164.19,313.568 1166.25,312.911 1168.3,195.406 1170.35,368.006 1172.4,295.064 1174.46,294.983 1176.51,491.586 1178.56,491.976 1180.62,414.285 1182.67,405.375 1184.72,417.212 1186.77,446.93 1188.83,445.895 1190.88,469.583 1192.93,492.325 1194.99,469.922 1197.04,491.554 1199.09,491.268 1201.15,509.853 1203.2,511.988 1205.25,516.322 1207.3,465.69 1209.36,430.318 1211.41,436.131 1213.46,283.946 1215.52,272.115 1217.57,271.486 1219.62,253.616 1221.67,251.614 1223.73,245.373 1225.78,246.083 1227.83,267.633 1229.89,335.6 1231.94,364.572 1233.99,363.029 1236.04,362.461 1238.1,356.907 1240.15,376.709 1242.2,372.165 1244.26,357.642 1246.31,390.457 1248.36,390.342 1250.41,389.969 1252.47,365.508 1254.52,363.741 1256.57,369.012 1258.63,365.173 1260.68,364.37 1262.73,371.098 1264.78,375.767 1266.84,377.061 1268.89,377.166 1270.94,393.035 1273,393.243 1275.05,394.875 1277.1,409.542 1279.16,349.255 1281.21,348.405 1283.26,345.311 1285.31,346.592 1287.37,340.742 1289.42,342.177 1291.47,357.976 1293.53,338.109 1295.58,338.423 1297.63,329.335 1299.68,328.641 1301.74,321.159 1303.79,321.676 1305.84,325.932 1307.9,325.85 1309.95,325.156 1312,319.202 1314.05,324.151 1316.11,324.197 1318.16,327.152 1320.21,301.49 1322.27,316.903 1324.32,327.415 1326.37,327.328 1328.42,322.563 1330.48,325.75 1332.53,327.392 1334.58,327.189 1336.64,326.882 1338.69,329.868 1340.74,328.707 1342.79,332.145 1344.85,332.075 1346.9,405.9 1348.95,405.774 1351.01,405.904 1353.06,404.639 1355.11,398.002 1357.16,397.661 1359.22,408.098 1361.27,415.076 1363.32,418.05 1365.38,417.483 1367.43,415.835 1369.48,430.815 1371.54,379.084 1373.59,376.089 1375.64,376.358 1377.69,340.644 1379.75,341.735 1381.8,333.042 1383.85,346.796 1385.91,378.522 1387.96,384.351 1390.01,379.932 1392.06,378.881 1394.12,379.744 1396.17,381.13 1398.22,350.331 1400.28,349.975 1402.33,349.934 1404.38,356.58 1406.43,356.691 1408.49,364.731 1410.54,364.338 1412.59,364.284 1414.65,365.175 1416.7,367.101 1418.75,372.977 1420.8,372.943 1422.86,377.98 1424.91,375.094 1426.96,384.186 1429.02,380.91 1431.07,392.633 1433.12,392.567 1435.17,392.481 1437.23,392.643 1439.28,394.263 1441.33,394.181 1443.39,390.767 1445.44,387.918 1447.49,388.475 1449.55,431.99 1451.6,415.799 1453.65,416.129 1455.7,423.872 1457.76,423.881 1459.81,421.058 1461.86,422.167 1463.92,423.131 1465.97,415.802 1468.02,414.041 1470.07,413.246 1472.13,413.219 1474.18,368.078 1476.23,364.604 1478.29,356.812 1480.34,358.207 1482.39,331.451 1484.44,247.218 1486.5,409.214 1488.55,401.565 1490.6,397.87 1492.66,432.231 1494.71,431.804 1496.76,431.867 1498.81,431.853 1500.87,433.12 1502.92,451.666 1504.97,450.588 1507.03,450.574 1509.08,440.483 1511.13,461.982 1513.18,476.013 1515.24,471.97 1517.29,474.544 1519.34,475.024 1521.4,451.008 1523.45,364.434 1525.5,378.497 1527.55,378.291 1529.61,371.24 1531.66,375.411 1533.71,373.505 1535.77,298.461 1537.82,309.311 1539.87,321.557 1541.93,322.924 1543.98,323.191 1546.03,320.254 1548.08,321.476 1550.14,353.646 1552.19,362.403 1554.24,372.131 1556.3,361.775 1558.35,378.994 1560.4,373.288 1562.45,364.573 1564.51,364.574 1566.56,370.213 1568.61,367.806 1570.67,402.866 1572.72,385.983 1574.77,383.9 1576.82,383.91 1578.88,383.548 1580.93,414.093 1582.98,414.028 1585.04,418.582 1587.09,419.645 1589.14,413.634 1591.19,413.835 1593.25,404.101 1595.3,387.02 1597.35,367.374 1599.41,367.941 1601.46,379.355 1603.51,379.457 1605.56,391.842 1607.62,419.083 1609.67,423.228 1611.72,423.172 1613.78,448.53 1615.83,399.397 1617.88,370.725 1619.94,372.409 1621.99,372.404 1624.04,368.615 1626.09,367.795 1628.15,367.809 1630.2,365.148 1632.25,368.834 1634.31,369.083 1636.36,366.63 1638.41,362.957 1640.46,363.141 1642.52,366.984 1644.57,368.461 1646.62,378.706 1648.68,377.679 1650.73,375.225 1652.78,375.134 1654.83,376.059 1656.89,367.546 1658.94,379.682 1660.99,374.258 1663.05,374.23 1665.1,374.003 1667.15,374.001 1669.2,398.592 1671.26,390.002 1673.31,390.001 1675.36,398.846 1677.42,421.791 1679.47,424.842 1681.52,410.031 1683.57,411.063 1685.63,358.721 1687.68,351.799 1689.73,410.245 1691.79,321.796 1693.84,325.144 1695.89,339.168 1697.94,339.694 1700,340.387 1702.05,340.347 1704.1,342.075 1706.16,325.805 1708.21,396.181 1710.26,429.668 1712.32,426.484 1714.37,426.955 1716.42,427.128 1718.47,427.136 1720.53,428.975 1722.58,377.182 1724.63,377.105 1726.69,377.157 1728.74,377.795 1730.79,376.433 1732.84,429.748 1734.9,430.77 1736.95,438.594 1739,210.437 1741.06,210.328 1743.11,409.416 1745.16,385.864 1747.21,378.338 1749.27,383.86 1751.32,349.19 1753.37,452.944 1755.43,507.967 1757.48,514.497 1759.53,514.49 1761.58,526.582 1763.64,588.415 1765.69,604.01 1767.74,595.253 1769.8,411.069 1771.85,349.378 1773.9,338.771 1775.95,370.543 1778.01,303.324 1780.06,253.817 1782.11,237.525 1784.17,239.004 1786.22,236.966 1788.27,227.962 1790.33,346.672 1792.38,314.242 1794.43,352.066 1796.48,347.278 1798.54,331.183 1800.59,271.126 1802.64,194.294 1804.7,193.603 1806.75,363.951 1808.8,319.614 1810.85,320.594 1812.91,76.447 1814.96,83.7387 1817.01,79.7674 1819.07,46.6173 1821.12,79.9805 1823.17,127.274 1825.22,181.49 1827.28,232.601 1829.33,244.901 1831.38,161.84 1833.44,142.324 1835.49,142.054 1837.54,179.652 1839.59,174.613 1841.65,194.327 1843.7,582.349 1845.75,576.048 1847.81,554.366 1849.86,502.583 1851.91,506.797 1853.96,468.173 1856.02,449.544 1858.07,400.621 1860.12,384.325 1862.18,365.855 1864.23,476.864 1866.28,466.026 1868.34,153.633 1870.39,111.477 1872.44,215.311 1874.49,137.491 1876.55,106.831 1878.6,100.803 1880.65,43.4531 1882.71,523.853 1884.76,460.571 1886.81,449.331 1888.86,453.991 1890.92,497.149 1892.97,497.355 1895.02,517.063 1897.08,500.704 1899.13,479.583 1901.18,449.083 1903.23,462.678 1905.29,322.818 1907.34,322.562 1909.39,545.423 1911.45,206.019 1913.5,205.913 1915.55,223.004 1917.6,213.251 1919.66,214.697 1921.71,193.643 1923.76,199.625 1925.82,184.593 1927.87,234.109 1929.92,240.456 1931.97,480.852 1934.03,477.348 1936.08,474.255 1938.13,467.678 1940.19,471.71 1942.24,453.505 1944.29,448.006 1946.34,444.072 1948.4,443.552 1950.45,393.161 1952.5,401.135 1954.56,400.385 1956.61,384.24 1958.66,416.619 1960.72,395.505 1962.77,401.014 1964.82,402.136 1966.87,424.767 1968.93,424.98 1970.98,403.703 1973.03,405.709 1975.09,442.361 1977.14,369.012 1979.19,375.305 1981.24,374.563 1983.3,369.283 1985.35,369.962 1987.4,370.326 1989.46,373.008 1991.51,372.293 1993.56,397.829 1995.61,398.028 1997.67,396.242 1999.72,396.037 2001.77,396.807 2003.83,398.584 2005.88,402.63 2007.93,390.925 2009.98,395.72 2012.04,370.382 2014.09,410.682 2016.14,402.954 2018.2,403.462 2020.25,397.415 2022.3,404.909 2024.35,358.84 2026.41,358.652 2028.46,357.798 2030.51,354.532 2032.57,353.048 2034.62,346.68 2036.67,346.002 2038.73,362.945 2040.78,354.209 2042.83,331.003 2044.88,396.141 2046.94,417.989 2048.99,405.378 2051.04,404.717 2053.1,400.736 2055.15,386.139 2057.2,383.386 2059.25,371.399 2061.31,336.492 2063.36,453.149 2065.41,395.606 2067.47,435.31 2069.52,433.185 2071.57,433.2 2073.62,432.985 2075.68,433.963 2077.73,433.675 2079.78,435.403 2081.84,440.165 2083.89,446.589 2085.94,446.256 2087.99,466.658 2090.05,472.97 2092.1,474.952 2094.15,474.126 2096.21,476.381 2098.26,470.308 2100.31,470.731 2102.36,519.637 2104.42,522.195 2106.47,531.629 2108.52,533.582 2110.58,451.531 2112.63,443.221 2114.68,406.34 2116.73,406.076 2118.79,406.081 2120.84,413.6 2122.89,421.993 2124.95,414.754 2127,446.95 2129.05,400.66 2131.11,410.696 2133.16,561.189 2135.21,575.895 2137.26,570.648 2139.32,579.472 2141.37,517.915 2143.42,484.162 2145.48,498.036 2147.53,604.843 2149.58,363.259 2151.63,536.278 2153.69,737.322 2155.74,750.554 2157.79,776.064 2159.85,803.506 2161.9,889.123 2163.95,990.389 2166,-63.9717 2168.06,-51.5101 2170.11,-87.1781 2172.16,695.081 2174.22,792.04 2176.27,712.108 2178.32,653.717 2180.37,431.636 2182.43,549.332 2184.48,570.834 2186.53,291.638 2188.59,236.311 2190.64,346.145 2192.69,382.358 2194.74,360.806 2196.8,52.3783 2198.85,577.931 2200.9,615.296 2202.96,740.204 2205.01,661.552 2207.06,600.873 2209.12,601.612 2211.17,504.617 2213.22,503.186 2215.27,495.269 2217.33,494.785 2219.38,1123.27 2221.43,1112.59 2223.49,1113.99 2225.54,1161.21 2227.59,1183.77 2229.64,1139.15 2231.7,1299.57 2233.75,1300.7 2235.8,1225.4 2237.86,1225.46 2239.91,1130.56 2241.96,1090.82 2244.01,1066.55 2246.07,1052.6 2248.12,1374.5 2250.17,1408.44 2252.23,1411.33 2254.28,1202.43 2256.33,889.416 2258.38,990.349 2260.44,948.983 2262.49,909.364 2264.54,832.668 2266.6,749.234 2268.65,560.14 2270.7,565.268 2272.75,713.638 2274.81,684.377 2276.86,700.183 2278.91,584.935 2280.97,764.466 2283.02,473.227 2285.07,677.869 2287.12,664.112 2289.18,712.106 2291.23,944.711 "/>
<path clip-path="url(#clip960)" d="M251.33 172.231 L548.024 172.231 L548.024 68.5509 L251.33 68.5509  Z" fill="#ffffff" fill-rule="evenodd" fill-opacity="1"/>
<polyline clip-path="url(#clip960)" style="stroke:#000000; stroke-linecap:round; stroke-linejoin:round; stroke-width:4; stroke-opacity:1; fill:none" points="251.33,172.231 548.024,172.231 548.024,68.5509 251.33,68.5509 251.33,172.231 "/>
<polyline clip-path="url(#clip960)" style="stroke:#009af9; stroke-linecap:round; stroke-linejoin:round; stroke-width:4; stroke-opacity:1; fill:none" points="275.484,120.391 420.41,120.391 "/>
<path clip-path="url(#clip960)" d="M444.564 103.111 L449.24 103.111 L449.24 133.736 L466.069 133.736 L466.069 137.671 L444.564 137.671 L444.564 103.111 Z" fill="#000000" fill-rule="nonzero" fill-opacity="1" /><path clip-path="url(#clip960)" d="M491.694 104.245 L491.694 108.805 Q489.032 107.532 486.67 106.907 Q484.309 106.282 482.11 106.282 Q478.291 106.282 476.208 107.764 Q474.147 109.245 474.147 111.977 Q474.147 114.268 475.513 115.449 Q476.902 116.606 480.745 117.324 L483.569 117.902 Q488.8 118.898 491.277 121.421 Q493.777 123.921 493.777 128.134 Q493.777 133.157 490.397 135.75 Q487.041 138.342 480.536 138.342 Q478.083 138.342 475.305 137.787 Q472.55 137.231 469.587 136.143 L469.587 131.328 Q472.434 132.926 475.166 133.736 Q477.897 134.546 480.536 134.546 Q484.541 134.546 486.717 132.972 Q488.893 131.398 488.893 128.481 Q488.893 125.935 487.319 124.5 Q485.768 123.064 482.203 122.347 L479.356 121.791 Q474.124 120.75 471.786 118.527 Q469.448 116.305 469.448 112.347 Q469.448 107.764 472.666 105.125 Q475.907 102.486 481.578 102.486 Q484.008 102.486 486.532 102.926 Q489.055 103.366 491.694 104.245 Z" fill="#000000" fill-rule="nonzero" fill-opacity="1" /><path clip-path="url(#clip960)" d="M521.786 104.245 L521.786 108.805 Q519.124 107.532 516.763 106.907 Q514.402 106.282 512.203 106.282 Q508.383 106.282 506.3 107.764 Q504.24 109.245 504.24 111.977 Q504.24 114.268 505.606 115.449 Q506.994 116.606 510.837 117.324 L513.661 117.902 Q518.893 118.898 521.369 121.421 Q523.869 123.921 523.869 128.134 Q523.869 133.157 520.49 135.75 Q517.133 138.342 510.629 138.342 Q508.175 138.342 505.397 137.787 Q502.643 137.231 499.68 136.143 L499.68 131.328 Q502.527 132.926 505.258 133.736 Q507.99 134.546 510.629 134.546 Q514.633 134.546 516.809 132.972 Q518.985 131.398 518.985 128.481 Q518.985 125.935 517.411 124.5 Q515.86 123.064 512.295 122.347 L509.448 121.791 Q504.217 120.75 501.879 118.527 Q499.541 116.305 499.541 112.347 Q499.541 107.764 502.758 105.125 Q505.999 102.486 511.67 102.486 Q514.101 102.486 516.624 102.926 Q519.147 103.366 521.786 104.245 Z" fill="#000000" fill-rule="nonzero" fill-opacity="1" /><path clip-path="url(#clip960)" d="M178.867 1486.45 L2352.76 1486.45 L2352.76 847.244 L178.867 847.244  Z" fill="#ffffff" fill-rule="evenodd" fill-opacity="1"/>
<defs>
  <clipPath id="clip963">
    <rect x="178" y="847" width="2175" height="640"/>
  </clipPath>
</defs>
<polyline clip-path="url(#clip963)" style="stroke:#000000; stroke-linecap:round; stroke-linejoin:round; stroke-width:2; stroke-opacity:0.1; fill:none" points="238.339,1486.45 238.339,847.244 "/>
<polyline clip-path="url(#clip963)" style="stroke:#000000; stroke-linecap:round; stroke-linejoin:round; stroke-width:2; stroke-opacity:0.1; fill:none" points="751.562,1486.45 751.562,847.244 "/>
<polyline clip-path="url(#clip963)" style="stroke:#000000; stroke-linecap:round; stroke-linejoin:round; stroke-width:2; stroke-opacity:0.1; fill:none" points="1264.78,1486.45 1264.78,847.244 "/>
<polyline clip-path="url(#clip963)" style="stroke:#000000; stroke-linecap:round; stroke-linejoin:round; stroke-width:2; stroke-opacity:0.1; fill:none" points="1778.01,1486.45 1778.01,847.244 "/>
<polyline clip-path="url(#clip963)" style="stroke:#000000; stroke-linecap:round; stroke-linejoin:round; stroke-width:2; stroke-opacity:0.1; fill:none" points="2291.23,1486.45 2291.23,847.244 "/>
<polyline clip-path="url(#clip963)" style="stroke:#000000; stroke-linecap:round; stroke-linejoin:round; stroke-width:2; stroke-opacity:0.1; fill:none" points="178.867,1486.45 2352.76,1486.45 "/>
<polyline clip-path="url(#clip963)" style="stroke:#000000; stroke-linecap:round; stroke-linejoin:round; stroke-width:2; stroke-opacity:0.1; fill:none" points="178.867,1326.65 2352.76,1326.65 "/>
<polyline clip-path="url(#clip963)" style="stroke:#000000; stroke-linecap:round; stroke-linejoin:round; stroke-width:2; stroke-opacity:0.1; fill:none" points="178.867,1166.85 2352.76,1166.85 "/>
<polyline clip-path="url(#clip963)" style="stroke:#000000; stroke-linecap:round; stroke-linejoin:round; stroke-width:2; stroke-opacity:0.1; fill:none" points="178.867,1007.05 2352.76,1007.05 "/>
<polyline clip-path="url(#clip963)" style="stroke:#000000; stroke-linecap:round; stroke-linejoin:round; stroke-width:2; stroke-opacity:0.1; fill:none" points="178.867,847.244 2352.76,847.244 "/>
<polyline clip-path="url(#clip960)" style="stroke:#000000; stroke-linecap:round; stroke-linejoin:round; stroke-width:4; stroke-opacity:1; fill:none" points="178.867,1486.45 2352.76,1486.45 "/>
<polyline clip-path="url(#clip960)" style="stroke:#000000; stroke-linecap:round; stroke-linejoin:round; stroke-width:4; stroke-opacity:1; fill:none" points="238.339,1486.45 238.339,1467.55 "/>
<polyline clip-path="url(#clip960)" style="stroke:#000000; stroke-linecap:round; stroke-linejoin:round; stroke-width:4; stroke-opacity:1; fill:none" points="751.562,1486.45 751.562,1467.55 "/>
<polyline clip-path="url(#clip960)" style="stroke:#000000; stroke-linecap:round; stroke-linejoin:round; stroke-width:4; stroke-opacity:1; fill:none" points="1264.78,1486.45 1264.78,1467.55 "/>
<polyline clip-path="url(#clip960)" style="stroke:#000000; stroke-linecap:round; stroke-linejoin:round; stroke-width:4; stroke-opacity:1; fill:none" points="1778.01,1486.45 1778.01,1467.55 "/>
<polyline clip-path="url(#clip960)" style="stroke:#000000; stroke-linecap:round; stroke-linejoin:round; stroke-width:4; stroke-opacity:1; fill:none" points="2291.23,1486.45 2291.23,1467.55 "/>
<path clip-path="url(#clip960)" d="M238.339 1517.37 Q234.728 1517.37 232.899 1520.93 Q231.094 1524.47 231.094 1531.6 Q231.094 1538.71 232.899 1542.27 Q234.728 1545.82 238.339 1545.82 Q241.973 1545.82 243.779 1542.27 Q245.607 1538.71 245.607 1531.6 Q245.607 1524.47 243.779 1520.93 Q241.973 1517.37 238.339 1517.37 M238.339 1513.66 Q244.149 1513.66 247.205 1518.27 Q250.283 1522.85 250.283 1531.6 Q250.283 1540.33 247.205 1544.94 Q244.149 1549.52 238.339 1549.52 Q232.529 1549.52 229.45 1544.94 Q226.395 1540.33 226.395 1531.6 Q226.395 1522.85 229.45 1518.27 Q232.529 1513.66 238.339 1513.66 Z" fill="#000000" fill-rule="nonzero" fill-opacity="1" /><path clip-path="url(#clip960)" d="M715.254 1544.91 L731.574 1544.91 L731.574 1548.85 L709.629 1548.85 L709.629 1544.91 Q712.291 1542.16 716.875 1537.53 Q721.481 1532.88 722.662 1531.53 Q724.907 1529.01 725.787 1527.27 Q726.689 1525.51 726.689 1523.82 Q726.689 1521.07 724.745 1519.33 Q722.824 1517.6 719.722 1517.6 Q717.523 1517.6 715.069 1518.36 Q712.638 1519.13 709.861 1520.68 L709.861 1515.95 Q712.685 1514.82 715.138 1514.24 Q717.592 1513.66 719.629 1513.66 Q725 1513.66 728.194 1516.35 Q731.388 1519.03 731.388 1523.52 Q731.388 1525.65 730.578 1527.57 Q729.791 1529.47 727.685 1532.07 Q727.106 1532.74 724.004 1535.95 Q720.902 1539.15 715.254 1544.91 Z" fill="#000000" fill-rule="nonzero" fill-opacity="1" /><path clip-path="url(#clip960)" d="M741.435 1514.29 L759.791 1514.29 L759.791 1518.22 L745.717 1518.22 L745.717 1526.7 Q746.736 1526.35 747.754 1526.19 Q748.773 1526 749.791 1526 Q755.578 1526 758.958 1529.17 Q762.337 1532.34 762.337 1537.76 Q762.337 1543.34 758.865 1546.44 Q755.393 1549.52 749.073 1549.52 Q746.898 1549.52 744.629 1549.15 Q742.384 1548.78 739.976 1548.04 L739.976 1543.34 Q742.06 1544.47 744.282 1545.03 Q746.504 1545.58 748.981 1545.58 Q752.985 1545.58 755.323 1543.48 Q757.661 1541.37 757.661 1537.76 Q757.661 1534.15 755.323 1532.04 Q752.985 1529.94 748.981 1529.94 Q747.106 1529.94 745.231 1530.35 Q743.379 1530.77 741.435 1531.65 L741.435 1514.29 Z" fill="#000000" fill-rule="nonzero" fill-opacity="1" /><path clip-path="url(#clip960)" d="M781.55 1517.37 Q777.939 1517.37 776.11 1520.93 Q774.305 1524.47 774.305 1531.6 Q774.305 1538.71 776.11 1542.27 Q777.939 1545.82 781.55 1545.82 Q785.184 1545.82 786.99 1542.27 Q788.819 1538.71 788.819 1531.6 Q788.819 1524.47 786.99 1520.93 Q785.184 1517.37 781.55 1517.37 M781.55 1513.66 Q787.36 1513.66 790.416 1518.27 Q793.495 1522.85 793.495 1531.6 Q793.495 1540.33 790.416 1544.94 Q787.36 1549.52 781.55 1549.52 Q775.74 1549.52 772.661 1544.94 Q769.606 1540.33 769.606 1531.6 Q769.606 1522.85 772.661 1518.27 Q775.74 1513.66 781.55 1513.66 Z" fill="#000000" fill-rule="nonzero" fill-opacity="1" /><path clip-path="url(#clip960)" d="M1224.4 1514.29 L1242.76 1514.29 L1242.76 1518.22 L1228.69 1518.22 L1228.69 1526.7 Q1229.7 1526.35 1230.72 1526.19 Q1231.74 1526 1232.76 1526 Q1238.55 1526 1241.93 1529.17 Q1245.31 1532.34 1245.31 1537.76 Q1245.31 1543.34 1241.83 1546.44 Q1238.36 1549.52 1232.04 1549.52 Q1229.87 1549.52 1227.6 1549.15 Q1225.35 1548.78 1222.94 1548.04 L1222.94 1543.34 Q1225.03 1544.47 1227.25 1545.03 Q1229.47 1545.58 1231.95 1545.58 Q1235.95 1545.58 1238.29 1543.48 Q1240.63 1541.37 1240.63 1537.76 Q1240.63 1534.15 1238.29 1532.04 Q1235.95 1529.94 1231.95 1529.94 Q1230.07 1529.94 1228.2 1530.35 Q1226.35 1530.77 1224.4 1531.65 L1224.4 1514.29 Z" fill="#000000" fill-rule="nonzero" fill-opacity="1" /><path clip-path="url(#clip960)" d="M1264.52 1517.37 Q1260.91 1517.37 1259.08 1520.93 Q1257.27 1524.47 1257.27 1531.6 Q1257.27 1538.71 1259.08 1542.27 Q1260.91 1545.82 1264.52 1545.82 Q1268.15 1545.82 1269.96 1542.27 Q1271.79 1538.71 1271.79 1531.6 Q1271.79 1524.47 1269.96 1520.93 Q1268.15 1517.37 1264.52 1517.37 M1264.52 1513.66 Q1270.33 1513.66 1273.38 1518.27 Q1276.46 1522.85 1276.46 1531.6 Q1276.46 1540.33 1273.38 1544.94 Q1270.33 1549.52 1264.52 1549.52 Q1258.71 1549.52 1255.63 1544.94 Q1252.57 1540.33 1252.57 1531.6 Q1252.57 1522.85 1255.63 1518.27 Q1258.71 1513.66 1264.52 1513.66 Z" fill="#000000" fill-rule="nonzero" fill-opacity="1" /><path clip-path="url(#clip960)" d="M1294.68 1517.37 Q1291.07 1517.37 1289.24 1520.93 Q1287.44 1524.47 1287.44 1531.6 Q1287.44 1538.71 1289.24 1542.27 Q1291.07 1545.82 1294.68 1545.82 Q1298.31 1545.82 1300.12 1542.27 Q1301.95 1538.71 1301.95 1531.6 Q1301.95 1524.47 1300.12 1520.93 Q1298.31 1517.37 1294.68 1517.37 M1294.68 1513.66 Q1300.49 1513.66 1303.55 1518.27 Q1306.62 1522.85 1306.62 1531.6 Q1306.62 1540.33 1303.55 1544.94 Q1300.49 1549.52 1294.68 1549.52 Q1288.87 1549.52 1285.79 1544.94 Q1282.74 1540.33 1282.74 1531.6 Q1282.74 1522.85 1285.79 1518.27 Q1288.87 1513.66 1294.68 1513.66 Z" fill="#000000" fill-rule="nonzero" fill-opacity="1" /><path clip-path="url(#clip960)" d="M1736.28 1514.29 L1758.51 1514.29 L1758.51 1516.28 L1745.96 1548.85 L1741.08 1548.85 L1752.88 1518.22 L1736.28 1518.22 L1736.28 1514.29 Z" fill="#000000" fill-rule="nonzero" fill-opacity="1" /><path clip-path="url(#clip960)" d="M1767.67 1514.29 L1786.03 1514.29 L1786.03 1518.22 L1771.95 1518.22 L1771.95 1526.7 Q1772.97 1526.35 1773.99 1526.19 Q1775.01 1526 1776.03 1526 Q1781.82 1526 1785.2 1529.17 Q1788.57 1532.34 1788.57 1537.76 Q1788.57 1543.34 1785.1 1546.44 Q1781.63 1549.52 1775.31 1549.52 Q1773.14 1549.52 1770.87 1549.15 Q1768.62 1548.78 1766.21 1548.04 L1766.21 1543.34 Q1768.3 1544.47 1770.52 1545.03 Q1772.74 1545.58 1775.22 1545.58 Q1779.22 1545.58 1781.56 1543.48 Q1783.9 1541.37 1783.9 1537.76 Q1783.9 1534.15 1781.56 1532.04 Q1779.22 1529.94 1775.22 1529.94 Q1773.34 1529.94 1771.47 1530.35 Q1769.62 1530.77 1767.67 1531.65 L1767.67 1514.29 Z" fill="#000000" fill-rule="nonzero" fill-opacity="1" /><path clip-path="url(#clip960)" d="M1807.79 1517.37 Q1804.18 1517.37 1802.35 1520.93 Q1800.54 1524.47 1800.54 1531.6 Q1800.54 1538.71 1802.35 1542.27 Q1804.18 1545.82 1807.79 1545.82 Q1811.42 1545.82 1813.23 1542.27 Q1815.06 1538.71 1815.06 1531.6 Q1815.06 1524.47 1813.23 1520.93 Q1811.42 1517.37 1807.79 1517.37 M1807.79 1513.66 Q1813.6 1513.66 1816.65 1518.27 Q1819.73 1522.85 1819.73 1531.6 Q1819.73 1540.33 1816.65 1544.94 Q1813.6 1549.52 1807.79 1549.52 Q1801.98 1549.52 1798.9 1544.94 Q1795.84 1540.33 1795.84 1531.6 Q1795.84 1522.85 1798.9 1518.27 Q1801.98 1513.66 1807.79 1513.66 Z" fill="#000000" fill-rule="nonzero" fill-opacity="1" /><path clip-path="url(#clip960)" d="M2235.76 1544.91 L2243.4 1544.91 L2243.4 1518.55 L2235.09 1520.21 L2235.09 1515.95 L2243.35 1514.29 L2248.02 1514.29 L2248.02 1544.91 L2255.66 1544.91 L2255.66 1548.85 L2235.76 1548.85 L2235.76 1544.91 Z" fill="#000000" fill-rule="nonzero" fill-opacity="1" /><path clip-path="url(#clip960)" d="M2275.11 1517.37 Q2271.5 1517.37 2269.67 1520.93 Q2267.86 1524.47 2267.86 1531.6 Q2267.86 1538.71 2269.67 1542.27 Q2271.5 1545.82 2275.11 1545.82 Q2278.74 1545.82 2280.55 1542.27 Q2282.38 1538.71 2282.38 1531.6 Q2282.38 1524.47 2280.55 1520.93 Q2278.74 1517.37 2275.11 1517.37 M2275.11 1513.66 Q2280.92 1513.66 2283.97 1518.27 Q2287.05 1522.85 2287.05 1531.6 Q2287.05 1540.33 2283.97 1544.94 Q2280.92 1549.52 2275.11 1549.52 Q2269.3 1549.52 2266.22 1544.94 Q2263.16 1540.33 2263.16 1531.6 Q2263.16 1522.85 2266.22 1518.27 Q2269.3 1513.66 2275.11 1513.66 Z" fill="#000000" fill-rule="nonzero" fill-opacity="1" /><path clip-path="url(#clip960)" d="M2305.27 1517.37 Q2301.66 1517.37 2299.83 1520.93 Q2298.02 1524.47 2298.02 1531.6 Q2298.02 1538.71 2299.83 1542.27 Q2301.66 1545.82 2305.27 1545.82 Q2308.9 1545.82 2310.71 1542.27 Q2312.54 1538.71 2312.54 1531.6 Q2312.54 1524.47 2310.71 1520.93 Q2308.9 1517.37 2305.27 1517.37 M2305.27 1513.66 Q2311.08 1513.66 2314.14 1518.27 Q2317.21 1522.85 2317.21 1531.6 Q2317.21 1540.33 2314.14 1544.94 Q2311.08 1549.52 2305.27 1549.52 Q2299.46 1549.52 2296.38 1544.94 Q2293.33 1540.33 2293.33 1531.6 Q2293.33 1522.85 2296.38 1518.27 Q2299.46 1513.66 2305.27 1513.66 Z" fill="#000000" fill-rule="nonzero" fill-opacity="1" /><path clip-path="url(#clip960)" d="M2335.43 1517.37 Q2331.82 1517.37 2329.99 1520.93 Q2328.19 1524.47 2328.19 1531.6 Q2328.19 1538.71 2329.99 1542.27 Q2331.82 1545.82 2335.43 1545.82 Q2339.07 1545.82 2340.87 1542.27 Q2342.7 1538.71 2342.7 1531.6 Q2342.7 1524.47 2340.87 1520.93 Q2339.07 1517.37 2335.43 1517.37 M2335.43 1513.66 Q2341.24 1513.66 2344.3 1518.27 Q2347.38 1522.85 2347.38 1531.6 Q2347.38 1540.33 2344.3 1544.94 Q2341.24 1549.52 2335.43 1549.52 Q2329.62 1549.52 2326.54 1544.94 Q2323.49 1540.33 2323.49 1531.6 Q2323.49 1522.85 2326.54 1518.27 Q2329.62 1513.66 2335.43 1513.66 Z" fill="#000000" fill-rule="nonzero" fill-opacity="1" /><polyline clip-path="url(#clip960)" style="stroke:#000000; stroke-linecap:round; stroke-linejoin:round; stroke-width:4; stroke-opacity:1; fill:none" points="178.867,1486.45 178.867,847.244 "/>
<polyline clip-path="url(#clip960)" style="stroke:#000000; stroke-linecap:round; stroke-linejoin:round; stroke-width:4; stroke-opacity:1; fill:none" points="178.867,1486.45 197.764,1486.45 "/>
<polyline clip-path="url(#clip960)" style="stroke:#000000; stroke-linecap:round; stroke-linejoin:round; stroke-width:4; stroke-opacity:1; fill:none" points="178.867,1326.65 197.764,1326.65 "/>
<polyline clip-path="url(#clip960)" style="stroke:#000000; stroke-linecap:round; stroke-linejoin:round; stroke-width:4; stroke-opacity:1; fill:none" points="178.867,1166.85 197.764,1166.85 "/>
<polyline clip-path="url(#clip960)" style="stroke:#000000; stroke-linecap:round; stroke-linejoin:round; stroke-width:4; stroke-opacity:1; fill:none" points="178.867,1007.05 197.764,1007.05 "/>
<polyline clip-path="url(#clip960)" style="stroke:#000000; stroke-linecap:round; stroke-linejoin:round; stroke-width:4; stroke-opacity:1; fill:none" points="178.867,847.244 197.764,847.244 "/>
<path clip-path="url(#clip960)" d="M50.9921 1486.9 L80.6679 1486.9 L80.6679 1490.83 L50.9921 1490.83 L50.9921 1486.9 Z" fill="#000000" fill-rule="nonzero" fill-opacity="1" /><path clip-path="url(#clip960)" d="M91.5706 1499.79 L99.2095 1499.79 L99.2095 1473.43 L90.8993 1475.09 L90.8993 1470.83 L99.1632 1469.17 L103.839 1469.17 L103.839 1499.79 L111.478 1499.79 L111.478 1503.73 L91.5706 1503.73 L91.5706 1499.79 Z" fill="#000000" fill-rule="nonzero" fill-opacity="1" /><path clip-path="url(#clip960)" d="M130.922 1472.25 Q127.311 1472.25 125.482 1475.81 Q123.677 1479.35 123.677 1486.48 Q123.677 1493.59 125.482 1497.15 Q127.311 1500.7 130.922 1500.7 Q134.556 1500.7 136.362 1497.15 Q138.191 1493.59 138.191 1486.48 Q138.191 1479.35 136.362 1475.81 Q134.556 1472.25 130.922 1472.25 M130.922 1468.54 Q136.732 1468.54 139.788 1473.15 Q142.867 1477.73 142.867 1486.48 Q142.867 1495.21 139.788 1499.82 Q136.732 1504.4 130.922 1504.4 Q125.112 1504.4 122.033 1499.82 Q118.978 1495.21 118.978 1486.48 Q118.978 1477.73 122.033 1473.15 Q125.112 1468.54 130.922 1468.54 Z" fill="#000000" fill-rule="nonzero" fill-opacity="1" /><path clip-path="url(#clip960)" d="M82.1494 1327.1 L111.825 1327.1 L111.825 1331.03 L82.1494 1331.03 L82.1494 1327.1 Z" fill="#000000" fill-rule="nonzero" fill-opacity="1" /><path clip-path="url(#clip960)" d="M121.964 1309.37 L140.32 1309.37 L140.32 1313.3 L126.246 1313.3 L126.246 1321.77 Q127.265 1321.43 128.283 1321.27 Q129.302 1321.08 130.32 1321.08 Q136.107 1321.08 139.487 1324.25 Q142.867 1327.42 142.867 1332.84 Q142.867 1338.42 139.394 1341.52 Q135.922 1344.6 129.603 1344.6 Q127.427 1344.6 125.158 1344.23 Q122.913 1343.86 120.506 1343.12 L120.506 1338.42 Q122.589 1339.55 124.811 1340.11 Q127.033 1340.66 129.51 1340.66 Q133.515 1340.66 135.853 1338.56 Q138.191 1336.45 138.191 1332.84 Q138.191 1329.23 135.853 1327.12 Q133.515 1325.01 129.51 1325.01 Q127.635 1325.01 125.76 1325.43 Q123.908 1325.85 121.964 1326.73 L121.964 1309.37 Z" fill="#000000" fill-rule="nonzero" fill-opacity="1" /><path clip-path="url(#clip960)" d="M130.922 1152.64 Q127.311 1152.64 125.482 1156.21 Q123.677 1159.75 123.677 1166.88 Q123.677 1173.99 125.482 1177.55 Q127.311 1181.09 130.922 1181.09 Q134.556 1181.09 136.362 1177.55 Q138.191 1173.99 138.191 1166.88 Q138.191 1159.75 136.362 1156.21 Q134.556 1152.64 130.922 1152.64 M130.922 1148.94 Q136.732 1148.94 139.788 1153.55 Q142.867 1158.13 142.867 1166.88 Q142.867 1175.61 139.788 1180.21 Q136.732 1184.8 130.922 1184.8 Q125.112 1184.8 122.033 1180.21 Q118.978 1175.61 118.978 1166.88 Q118.978 1158.13 122.033 1153.55 Q125.112 1148.94 130.922 1148.94 Z" fill="#000000" fill-rule="nonzero" fill-opacity="1" /><path clip-path="url(#clip960)" d="M121.964 989.765 L140.32 989.765 L140.32 993.7 L126.246 993.7 L126.246 1002.17 Q127.265 1001.83 128.283 1001.66 Q129.302 1001.48 130.32 1001.48 Q136.107 1001.48 139.487 1004.65 Q142.867 1007.82 142.867 1013.24 Q142.867 1018.82 139.394 1021.92 Q135.922 1025 129.603 1025 Q127.427 1025 125.158 1024.63 Q122.913 1024.26 120.506 1023.51 L120.506 1018.82 Q122.589 1019.95 124.811 1020.51 Q127.033 1021.06 129.51 1021.06 Q133.515 1021.06 135.853 1018.95 Q138.191 1016.85 138.191 1013.24 Q138.191 1009.63 135.853 1007.52 Q133.515 1005.41 129.51 1005.41 Q127.635 1005.41 125.76 1005.83 Q123.908 1006.25 121.964 1007.13 L121.964 989.765 Z" fill="#000000" fill-rule="nonzero" fill-opacity="1" /><path clip-path="url(#clip960)" d="M91.5706 860.589 L99.2095 860.589 L99.2095 834.223 L90.8993 835.89 L90.8993 831.631 L99.1632 829.964 L103.839 829.964 L103.839 860.589 L111.478 860.589 L111.478 864.524 L91.5706 864.524 L91.5706 860.589 Z" fill="#000000" fill-rule="nonzero" fill-opacity="1" /><path clip-path="url(#clip960)" d="M130.922 833.043 Q127.311 833.043 125.482 836.608 Q123.677 840.149 123.677 847.279 Q123.677 854.385 125.482 857.95 Q127.311 861.492 130.922 861.492 Q134.556 861.492 136.362 857.95 Q138.191 854.385 138.191 847.279 Q138.191 840.149 136.362 836.608 Q134.556 833.043 130.922 833.043 M130.922 829.339 Q136.732 829.339 139.788 833.946 Q142.867 838.529 142.867 847.279 Q142.867 856.006 139.788 860.612 Q136.732 865.195 130.922 865.195 Q125.112 865.195 122.033 860.612 Q118.978 856.006 118.978 847.279 Q118.978 838.529 122.033 833.946 Q125.112 829.339 130.922 829.339 Z" fill="#000000" fill-rule="nonzero" fill-opacity="1" /><polyline clip-path="url(#clip963)" style="stroke:#009af9; stroke-linecap:round; stroke-linejoin:round; stroke-width:4; stroke-opacity:1; fill:none" points="240.392,1134.89 242.445,1145.13 244.498,1085.55 246.55,1248.57 248.603,1175.32 250.656,1168.77 252.709,1210.2 254.762,1184.24 256.815,1155.71 258.868,1178.6 260.921,1095.16 262.974,1253.72 265.027,1214.82 267.079,1193.22 269.132,1314.97 271.185,1007.23 273.238,1347.29 275.291,1211.54 277.344,1165.89 279.397,1190.15 281.45,1142.27 283.503,1116.88 285.555,1248.04 287.608,1099.79 289.661,1228.9 291.714,1177.17 293.767,1171.86 295.82,1159.54 297.873,1186.49 299.926,1185.95 301.979,1194.04 304.031,1318.76 306.084,1348.67 308.137,1451.86 310.19,1334.98 312.243,1224.4 314.296,1085.73 316.349,1103.78 318.402,1185.19 320.455,1138.55 322.507,1205.52 324.56,1138.62 326.613,1120.22 328.666,1255.63 330.719,1296.6 332.772,1151.11 334.825,1189.24 336.878,1172.59 338.931,1157.67 340.984,1164.5 343.036,1132.59 345.089,1148.62 347.142,1190.24 349.195,1116.51 351.248,1212.93 353.301,1152.83 355.354,1196.32 357.407,1128.61 359.46,1117.61 361.512,1128.16 363.565,1177.28 365.618,1158.81 367.671,1101.2 369.724,1190.94 371.777,1168.6 373.83,1037.73 375.883,1161.44 377.936,972.117 379.988,1328.81 382.041,766.114 384.094,770.53 386.147,889.133 388.2,798.266 390.253,2677.22 392.306,1537.53 394.359,1061.76 396.412,1066.44 398.464,1178.48 400.517,1147.85 402.57,1217.89 404.623,1176.93 406.676,1067.83 408.729,1103.31 410.782,1234.48 412.835,1424.95 414.888,1210 416.94,1164.57 418.993,1162.43 421.046,1155.66 423.099,1257.81 425.152,1113.79 427.205,1066.99 429.258,1140.78 431.311,1159.7 433.364,995.746 435.417,1240.86 437.469,1113.46 439.522,1207.98 441.575,1155.78 443.628,1174.16 445.681,1163.66 447.734,1187.59 449.787,1161.76 451.84,1183.78 453.893,1190.91 455.945,1167.85 457.998,1154.11 460.051,1188.53 462.104,1199.1 464.157,1214.88 466.21,1148.13 468.263,1274.45 470.316,1217.05 472.369,1285.11 474.421,993.83 476.474,1083.58 478.527,820.652 480.58,1151.31 482.633,1220.7 484.686,1246.6 486.739,1337.47 488.792,1230.28 490.845,1174.12 492.897,1179.23 494.95,1192.72 497.003,1189.18 499.056,1181.91 501.109,1135.06 503.162,1208.61 505.215,1170.96 507.268,1095.07 509.321,1239.61 511.374,1241 513.426,1049.88 515.479,998.973 517.532,965.767 519.585,1214.99 521.638,1197.52 523.691,1245.48 525.744,771.198 527.797,1220.54 529.85,1241.84 531.902,1304.7 533.955,1300.35 536.008,1196.97 538.061,1195.65 540.114,1143.18 542.167,1204.27 544.22,1209.13 546.273,1144.21 548.326,1190.11 550.378,1131.24 552.431,1168.84 554.484,1162.08 556.537,1168.85 558.59,1164.49 560.643,1160.9 562.696,1141.15 564.749,1165.49 566.802,1216.24 568.854,1164.05 570.907,1164.86 572.96,1162.5 575.013,1126.73 577.066,1196.8 579.119,1192.62 581.172,1171.69 583.225,1213.17 585.278,1101.25 587.331,1091.03 589.383,1136.42 591.436,1153.23 593.489,1218.59 595.542,981.553 597.595,1180.82 599.648,1154.26 601.701,1157.78 603.754,1196.3 605.807,1124.49 607.859,1189.65 609.912,1069.49 611.965,1184.8 614.018,1156.8 616.071,1133.9 618.124,1142.11 620.177,1220.66 622.23,1198.76 624.283,1211.19 626.335,1065.24 628.388,1140.59 630.441,1364.28 632.494,1196.9 634.547,1093.57 636.6,1173.58 638.653,1181.58 640.706,1177.41 642.759,1159.2 644.811,1113.69 646.864,1143.38 648.917,1183.78 650.97,1127.12 653.023,1137.82 655.076,1131.49 657.129,1289.68 659.182,1171.88 661.235,1173.97 663.288,1150.88 665.34,1146.65 667.393,1156.95 669.446,1155.67 671.499,1222.68 673.552,1042.57 675.605,1199.42 677.658,1137.56 679.711,1203.25 681.764,1082.49 683.816,1040.04 685.869,1067.47 687.922,1208.3 689.975,1176.97 692.028,1153.49 694.081,1182.23 696.134,1150.93 698.187,1156.56 700.24,1167.36 702.292,1191.41 704.345,1186.75 706.398,1140.05 708.451,1124.52 710.504,433.014 712.557,1046.74 714.61,1325.44 716.663,1243.8 718.716,1448.17 720.768,841.123 722.821,1169.81 724.874,1173.3 726.927,1251.26 728.98,1252.56 731.033,1134.95 733.086,1132.24 735.139,1124.09 737.192,1197.04 739.245,1160.27 741.297,1149.49 743.35,1116.2 745.403,1191.79 747.456,1104.1 749.509,1246.53 751.562,1117.39 753.615,1105.42 755.668,1093.38 757.721,1281.75 759.773,1276.06 761.826,1121.84 763.879,1109.51 765.932,1202.89 767.985,1109.02 770.038,1094.02 772.091,-15.1992 774.144,347.137 776.197,1308.71 778.249,1207.81 780.302,1152.8 782.355,1180.76 784.408,1204.47 786.461,1159.82 788.514,1219.57 790.567,1248.04 792.62,1388.91 794.673,1006.27 796.725,1343.36 798.778,1024.18 800.831,1165.01 802.884,1156.18 804.937,1111.2 806.99,1158.88 809.043,1158 811.096,1168.48 813.149,1164.86 815.202,1128.75 817.254,1213.55 819.307,1172.9 821.36,1139.32 823.413,1229.58 825.466,1015.21 827.519,1301.45 829.572,1114.03 831.625,1436.88 833.678,1360.28 835.73,1149.6 837.783,1187.03 839.836,1164.53 841.889,1222.78 843.942,1160.65 845.995,1220.64 848.048,1122.31 850.101,1194.07 852.154,1404 854.206,1254.55 856.259,1284.98 858.312,926.673 860.365,919.479 862.418,767.49 864.471,676.621 866.524,874.938 868.577,973.034 870.63,1209.13 872.682,1172.14 874.735,1197.45 876.788,1143.04 878.841,1184.59 880.894,1133.32 882.947,1209.69 885,1175.24 887.053,1155.38 889.106,1110.83 891.159,1131.77 893.211,1372.24 895.264,1175.87 897.317,1118.96 899.37,1026.72 901.423,1183.68 903.476,1231.96 905.529,1153.72 907.582,1161.95 909.635,1091.78 911.687,1139.43 913.74,1153.88 915.793,1144.43 917.846,1150 919.899,1161.11 921.952,1188.99 924.005,1066.57 926.058,1362.72 928.111,1126.53 930.163,1314.45 932.216,1061.23 934.269,1106.8 936.322,1151.11 938.375,1194.34 940.428,1157.48 942.481,1173.13 944.534,1188.54 946.587,1196.36 948.639,1168.73 950.692,1173.79 952.745,1175.8 954.798,1161.13 956.851,1152.43 958.904,1180.75 960.957,1150.46 963.01,1155.91 965.063,1132.2 967.116,1161 969.168,1051.34 971.221,1095.02 973.274,1281.57 975.327,1227.08 977.38,1179.98 979.433,1177.77 981.486,1176.11 983.539,1159.18 985.592,1190.11 987.644,1203.73 989.697,1223.8 991.75,1193.33 993.803,1197.62 995.856,1139.97 997.909,1152.5 999.962,1164.2 1002.01,1124.36 1004.07,1128.19 1006.12,869.5 1008.17,440.507 1010.23,-1814.89 1012.28,4.36839 1014.33,1333.87 1016.38,1161.47 1018.44,1042.47 1020.49,1211.55 1022.54,1159.36 1024.6,1006.05 1026.65,1315.92 1028.7,1195.84 1030.76,1159.32 1032.81,1182.16 1034.86,1205.31 1036.91,1147.8 1038.97,1147.74 1041.02,1174.33 1043.07,1157.13 1045.13,1096.15 1047.18,1145.94 1049.23,1164.5 1051.28,1205.32 1053.34,1108.92 1055.39,1175.36 1057.44,1146.41 1059.5,1171.53 1061.55,1163.36 1063.6,1194.03 1065.65,1158.56 1067.71,1195.82 1069.76,1190.79 1071.81,1190.13 1073.87,1159.51 1075.92,1159.1 1077.97,1133.02 1080.02,1165.13 1082.08,1147.04 1084.13,1235.78 1086.18,1127.55 1088.24,1100.71 1090.29,1148.68 1092.34,1168.55 1094.39,1204.76 1096.45,1138.17 1098.5,1172.87 1100.55,1163.73 1102.61,1179.2 1104.66,1165.99 1106.71,1143.79 1108.77,1154.63 1110.82,1138.53 1112.87,1108.67 1114.92,1184.98 1116.98,1157.23 1119.03,1207.21 1121.08,1119.47 1123.14,1125.85 1125.19,1191.7 1127.24,1170.27 1129.29,1179.56 1131.35,1153.47 1133.4,1173.89 1135.45,1190.33 1137.51,1194.19 1139.56,1199.47 1141.61,1156.2 1143.66,1135.73 1145.72,1168.43 1147.77,1169.33 1149.82,1172.32 1151.88,1200.96 1153.93,1148.37 1155.98,1144.24 1158.03,1148.87 1160.09,1144.44 1162.14,1331.64 1164.19,1184.32 1166.25,1113.83 1168.3,1131.6 1170.35,1159.12 1172.4,831.734 1174.46,1180.25 1176.51,1031.97 1178.56,1137.05 1180.62,1033.76 1182.67,992.295 1184.72,1257.9 1186.77,1125.57 1188.83,1135.9 1190.88,1137.6 1192.93,1118.61 1194.99,1304.47 1197.04,1240.46 1199.09,1170.36 1201.15,1175.9 1203.2,1160.01 1205.25,1217.61 1207.3,1178.53 1209.36,1136 1211.41,1198.61 1213.46,1128.32 1215.52,1152.31 1217.57,1198.41 1219.62,1150.68 1221.67,1180.89 1223.73,1252.88 1225.78,1151.87 1227.83,1163.89 1229.89,1153.88 1231.94,1101.61 1233.99,1200.8 1236.04,1248.43 1238.1,1208.4 1240.15,1200.14 1242.2,1112.11 1244.26,1024.23 1246.31,1037.32 1248.36,1221.93 1250.41,1192.98 1252.47,1141.87 1254.52,1207.97 1256.57,1146.76 1258.63,1237.2 1260.68,1199.49 1262.73,1184.94 1264.78,1198.81 1266.84,1131.32 1268.89,1121.54 1270.94,1444.46 1273,1169.1 1275.05,1160.97 1277.1,1169.69 1279.16,1163.34 1281.21,1139 1283.26,1231 1285.31,1030.83 1287.37,1071.56 1289.42,1061.15 1291.47,953.238 1293.53,906.715 1295.58,1161.25 1297.63,1133.48 1299.68,1189.65 1301.74,1232.07 1303.79,1420.67 1305.84,1225.8 1307.9,1196.83 1309.95,1155.94 1312,1172.8 1314.05,1176.19 1316.11,1183.88 1318.16,1166.04 1320.21,1164.19 1322.27,1172.1 1324.32,1143.53 1326.37,1183.49 1328.42,1185.9 1330.48,1142.22 1332.53,679.573 1334.58,1097.14 1336.64,1098.83 1338.69,1215.11 1340.74,1191 1342.79,1150.23 1344.85,1174.05 1346.9,1173.64 1348.95,1184.07 1351.01,1162.54 1353.06,1184.62 1355.11,1241.83 1357.16,1065.95 1359.22,1295.28 1361.27,952.908 1363.32,687.623 1365.38,1389.32 1367.43,1322.78 1369.48,1460.16 1371.54,3012.43 1373.59,-1127.39 1375.64,778.347 1377.69,63.8465 1379.75,1223.15 1381.8,1186.16 1383.85,1198.14 1385.91,1206.44 1387.96,1182.64 1390.01,1147.05 1392.06,1271.06 1394.12,1212.18 1396.17,1132.08 1398.22,1136.25 1400.28,1136.05 1402.33,1181.64 1404.38,1154.45 1406.43,1141.9 1408.49,1156.45 1410.54,1155.31 1412.59,1158.1 1414.65,1190.93 1416.7,1158.58 1418.75,1210.37 1420.8,1144.01 1422.86,1162.27 1424.91,1174.8 1426.96,1125.17 1429.02,999.47 1431.07,1097.65 1433.12,983.304 1435.17,1186.66 1437.23,1177.81 1439.28,1182.95 1441.33,1239.46 1443.39,1204.08 1445.44,1039.12 1447.49,1271.45 1449.55,1175.61 1451.6,1149.62 1453.65,1148.81 1455.7,1147.92 1457.76,1154.37 1459.81,1178.8 1461.86,1155.3 1463.92,1170.83 1465.97,1148.91 1468.02,1166.08 1470.07,1186.95 1472.13,1149.39 1474.18,1179.94 1476.23,1157.12 1478.29,1155.03 1480.34,1152.15 1482.39,1152.24 1484.44,1212.67 1486.5,1150.49 1488.55,1195.34 1490.6,1160.12 1492.66,1169.23 1494.71,1139.8 1496.76,1158.11 1498.81,1174.53 1500.87,1154.38 1502.92,1159.29 1504.97,1210.96 1507.03,1263.25 1509.08,1114.16 1511.13,1202.16 1513.18,1172.26 1515.24,1215.52 1517.29,1180.76 1519.34,1171.09 1521.4,1171.44 1523.45,1158.11 1525.5,1181.37 1527.55,1209.58 1529.61,1189.04 1531.66,1190.25 1533.71,1176.28 1535.77,1150.37 1537.82,963.912 1539.87,1253.4 1541.93,1129.69 1543.98,1191.25 1546.03,1186.56 1548.08,1185 1550.14,1140.83 1552.19,1187.45 1554.24,1176.18 1556.3,1178.4 1558.35,1126.88 1560.4,1199.28 1562.45,1200.43 1564.51,1238.7 1566.56,992.123 1568.61,1222.57 1570.67,1139.79 1572.72,1155.59 1574.77,1140.42 1576.82,1171.19 1578.88,1095.95 1580.93,1157.24 1582.98,1091.89 1585.04,1340.55 1587.09,1038.68 1589.14,1190.36 1591.19,1147.16 1593.25,1272.4 1595.3,1218.82 1597.35,163.692 1599.41,1172.84 1601.46,-5160.12 1603.51,130.938 1605.56,788.466 1607.62,1162.76 1609.67,1055.48 1611.72,1228.49 1613.78,1155.82 1615.83,1164.72 1617.88,1166.86 1619.94,1215.11 1621.99,1148.45 1624.04,1227.41 1626.09,1295.5 1628.15,1085.75 1630.2,1103.44 1632.25,1192.57 1634.31,1143.05 1636.36,1234.33 1638.41,1082.75 1640.46,1274.6 1642.52,1472.18 1644.57,1182.93 1646.62,1263.55 1648.68,1145.96 1650.73,1161.86 1652.78,1175.3 1654.83,1147.83 1656.89,1163.87 1658.94,1166.8 1660.99,1149.68 1663.05,1135.25 1665.1,1187.99 1667.15,1072.51 1669.2,1292.89 1671.26,1124.03 1673.31,1127.52 1675.36,1159.87 1677.42,1192.26 1679.47,1195.7 1681.52,1207.94 1683.57,1204.21 1685.63,1248.56 1687.68,1171.75 1689.73,1158.77 1691.79,1158.39 1693.84,1171.37 1695.89,1169.5 1697.94,1095.48 1700,1177.33 1702.05,1176.34 1704.1,1186.33 1706.16,1117.31 1708.21,1131.47 1710.26,1126.79 1712.32,1179.91 1714.37,1177.2 1716.42,1170.11 1718.47,1134.39 1720.53,1239.01 1722.58,1177.73 1724.63,1135.36 1726.69,1156.85 1728.74,1194.43 1730.79,1071.43 1732.84,1139.3 1734.9,1263.83 1736.95,1188.27 1739,1144.26 1741.06,1189.9 1743.11,1203.23 1745.16,1198.12 1747.21,1150.37 1749.27,1175.56 1751.32,1215.1 1753.37,1193.28 1755.43,1227.18 1757.48,936.356 1759.53,1144.59 1761.58,1190 1763.64,1183.23 1765.69,1044.53 1767.74,1139.17 1769.8,1143.44 1771.85,1193.68 1773.9,1151.89 1775.95,1125.61 1778.01,1195.77 1780.06,1138.96 1782.11,1211.53 1784.17,1207.2 1786.22,1112.61 1788.27,1134.94 1790.33,896.957 1792.38,1288.77 1794.43,1200.63 1796.48,1273.74 1798.54,1241.08 1800.59,1219.91 1802.64,1103.28 1804.7,1229.1 1806.75,1189.17 1808.8,1188.92 1810.85,1162.67 1812.91,1167.58 1814.96,1162.24 1817.01,1139.52 1819.07,1192.73 1821.12,1181.66 1823.17,1148.11 1825.22,1310.56 1827.28,1215.75 1829.33,1202.15 1831.38,1136.85 1833.44,1154.26 1835.49,935.004 1837.54,955.509 1839.59,1019.24 1841.65,1230.96 1843.7,1187.14 1845.75,1205.01 1847.81,1775.98 1849.86,1478.93 1851.91,1244.18 1853.96,1101.69 1856.02,1163.59 1858.07,1150.29 1860.12,1182.45 1862.18,1157.72 1864.23,1176.22 1866.28,1194.72 1868.34,1135.74 1870.39,1150.86 1872.44,1154.28 1874.49,1235.65 1876.55,1151.12 1878.6,1125.27 1880.65,1199.59 1882.71,1233.58 1884.76,1115.73 1886.81,1178.43 1888.86,1161.21 1890.92,1163.57 1892.97,1139.6 1895.02,1184.95 1897.08,1115.42 1899.13,1043.17 1901.18,1406.63 1903.23,1015.84 1905.29,1076.87 1907.34,1150.46 1909.39,1170.61 1911.45,1144 1913.5,1106.57 1915.55,1194.71 1917.6,1151.68 1919.66,1173.88 1921.71,1187.47 1923.76,1191.41 1925.82,1201.41 1927.87,1135.31 1929.92,1110.89 1931.97,1147.55 1934.03,1023.51 1936.08,1103.55 1938.13,1201.65 1940.19,1176.47 1942.24,1164.15 1944.29,1174.38 1946.34,1183.52 1948.4,1132.04 1950.45,1147.69 1952.5,1174.82 1954.56,1160.85 1956.61,1171.1 1958.66,1147.82 1960.72,1177.56 1962.77,1172.87 1964.82,1191.61 1966.87,1218.91 1968.93,1314.28 1970.98,1144.18 1973.03,1147.1 1975.09,1152.41 1977.14,1160.26 1979.19,1193.06 1981.24,1148.89 1983.3,1210.29 1985.35,1152.32 1987.4,1211.94 1989.46,1137.42 1991.51,999.349 1993.56,1279.68 1995.61,1083.84 1997.67,1250.26 1999.72,1156.64 2001.77,1212.69 2003.83,1221.48 2005.88,1177.21 2007.93,1178.13 2009.98,972.499 2012.04,1218.49 2014.09,981.488 2016.14,1114.96 2018.2,1148.11 2020.25,1198.68 2022.3,1165.14 2024.35,1208.85 2026.41,1082.73 2028.46,1155.17 2030.51,1088.49 2032.57,1399.4 2034.62,1254.27 2036.67,1086.15 2038.73,649.829 2040.78,-142.505 2042.83,1725.69 2044.88,1347.2 2046.94,1250.61 2048.99,1224.08 2051.04,1155.56 2053.1,1135.09 2055.15,918.694 2057.2,1070.36 2059.25,1567.55 2061.31,1153.03 2063.36,1157.57 2065.41,1125.35 2067.47,1064.31 2069.52,1373.27 2071.57,1155.81 2073.62,1163.54 2075.68,1165.23 2077.73,1155.07 2079.78,1129.88 2081.84,1135.85 2083.89,1157.41 2085.94,1146.8 2087.99,1110.98 2090.05,1116.6 2092.1,1181.09 2094.15,1156.42 2096.21,1185.31 2098.26,1155.14 2100.31,1179.89 2102.36,1113.85 2104.42,1222.71 2106.47,1397.58 2108.52,1223.72 2110.58,1238.9 2112.63,1148.23 2114.68,1188.35 2116.73,1140.9 2118.79,1155.94 2120.84,1187.52 2122.89,1157.22 2124.95,1148.63 2127,1192.33 2129.05,1187.67 2131.11,1051.03 2133.16,919.214 2135.21,210.135 2137.26,1374.72 2139.32,1373.2 2141.37,1210.63 2143.42,1816.33 2145.48,1225.05 2147.53,1302.55 2149.58,1180.78 2151.63,1162.86 2153.69,1133.43 2155.74,1190.8 2157.79,1226.85 2159.85,1409.16 2161.9,1076.21 2163.95,1174.27 2166,1410.87 2168.06,1160.87 2170.11,1131.59 2172.16,1177.19 2174.22,1130.63 2176.27,1179.72 2178.32,1146.9 2180.37,1161.23 2182.43,1135.75 2184.48,1252.18 2186.53,1174.25 2188.59,1182.11 2190.64,1154.51 2192.69,1265.62 2194.74,1173.71 2196.8,997.22 2198.85,1156.92 2200.9,1206.22 2202.96,1218.1 2205.01,1147.18 2207.06,1118.68 2209.12,1166.47 2211.17,1193.19 2213.22,1161.12 2215.27,1163.71 2217.33,1182.76 2219.38,1179.55 2221.43,1173.55 2223.49,1161.53 2225.54,1135.09 2227.59,1147.49 2229.64,1143.12 2231.7,1295.27 2233.75,2240.61 2235.8,866.36 2237.86,1551.1 2239.91,1546.36 2241.96,1452.81 2244.01,731.699 2246.07,1653.6 2248.12,1282.25 2250.17,931.739 2252.23,1270.13 2254.28,870.015 2256.33,579.424 2258.38,-3921.77 2260.44,820.007 2262.49,1228.31 2264.54,1023.49 2266.6,1131.39 2268.65,1184.11 2270.7,1162.28 2272.75,1162.18 2274.81,1131.3 2276.86,1306.56 2278.91,1227.58 2280.97,1143.28 2283.02,1167.04 2285.07,1173.08 2287.12,1169.79 2289.18,1165.14 2291.23,1185.36 "/>
<path clip-path="url(#clip960)" d="M251.33 972.231 L588.926 972.231 L588.926 868.551 L251.33 868.551  Z" fill="#ffffff" fill-rule="evenodd" fill-opacity="1"/>
<polyline clip-path="url(#clip960)" style="stroke:#000000; stroke-linecap:round; stroke-linejoin:round; stroke-width:4; stroke-opacity:1; fill:none" points="251.33,972.231 588.926,972.231 588.926,868.551 251.33,868.551 251.33,972.231 "/>
<polyline clip-path="url(#clip960)" style="stroke:#009af9; stroke-linecap:round; stroke-linejoin:round; stroke-width:4; stroke-opacity:1; fill:none" points="275.484,920.391 420.41,920.391 "/>
<path clip-path="url(#clip960)" d="M470.12 932.74 L470.12 923.458 L462.481 923.458 L462.481 919.615 L474.749 919.615 L474.749 934.453 Q472.041 936.375 468.777 937.37 Q465.513 938.342 461.809 938.342 Q453.708 938.342 449.124 933.62 Q444.564 928.875 444.564 920.426 Q444.564 911.953 449.124 907.231 Q453.708 902.486 461.809 902.486 Q465.189 902.486 468.221 903.319 Q471.277 904.153 473.846 905.773 L473.846 910.75 Q471.254 908.551 468.337 907.44 Q465.421 906.328 462.203 906.328 Q455.86 906.328 452.666 909.87 Q449.495 913.412 449.495 920.426 Q449.495 927.416 452.666 930.958 Q455.86 934.5 462.203 934.5 Q464.68 934.5 466.624 934.083 Q468.569 933.643 470.12 932.74 Z" fill="#000000" fill-rule="nonzero" fill-opacity="1" /><path clip-path="url(#clip960)" d="M487.967 906.953 L487.967 919.94 L493.846 919.94 Q497.11 919.94 498.893 918.25 Q500.675 916.56 500.675 913.435 Q500.675 910.333 498.893 908.643 Q497.11 906.953 493.846 906.953 L487.967 906.953 M483.291 903.111 L493.846 903.111 Q499.657 903.111 502.619 905.75 Q505.606 908.365 505.606 913.435 Q505.606 918.551 502.619 921.166 Q499.657 923.782 493.846 923.782 L487.967 923.782 L487.967 937.671 L483.291 937.671 L483.291 903.111 Z" fill="#000000" fill-rule="nonzero" fill-opacity="1" /><path clip-path="url(#clip960)" d="M532.596 904.245 L532.596 908.805 Q529.934 907.532 527.573 906.907 Q525.212 906.282 523.013 906.282 Q519.193 906.282 517.11 907.764 Q515.05 909.245 515.05 911.977 Q515.05 914.268 516.416 915.449 Q517.805 916.606 521.647 917.324 L524.471 917.902 Q529.703 918.898 532.179 921.421 Q534.679 923.921 534.679 928.134 Q534.679 933.157 531.3 935.75 Q527.943 938.342 521.439 938.342 Q518.985 938.342 516.207 937.787 Q513.453 937.231 510.49 936.143 L510.49 931.328 Q513.337 932.926 516.068 933.736 Q518.8 934.546 521.439 934.546 Q525.443 934.546 527.619 932.972 Q529.795 931.398 529.795 928.481 Q529.795 925.935 528.221 924.5 Q526.67 923.064 523.105 922.347 L520.258 921.791 Q515.027 920.75 512.689 918.527 Q510.351 916.305 510.351 912.347 Q510.351 907.764 513.568 905.125 Q516.809 902.486 522.48 902.486 Q524.911 902.486 527.434 902.926 Q529.957 903.366 532.596 904.245 Z" fill="#000000" fill-rule="nonzero" fill-opacity="1" /><path clip-path="url(#clip960)" d="M562.689 904.245 L562.689 908.805 Q560.027 907.532 557.665 906.907 Q555.304 906.282 553.105 906.282 Q549.286 906.282 547.203 907.764 Q545.142 909.245 545.142 911.977 Q545.142 914.268 546.508 915.449 Q547.897 916.606 551.74 917.324 L554.564 917.902 Q559.795 918.898 562.272 921.421 Q564.772 923.921 564.772 928.134 Q564.772 933.157 561.392 935.75 Q558.036 938.342 551.531 938.342 Q549.078 938.342 546.3 937.787 Q543.545 937.231 540.582 936.143 L540.582 931.328 Q543.429 932.926 546.161 933.736 Q548.892 934.546 551.531 934.546 Q555.536 934.546 557.712 932.972 Q559.888 931.398 559.888 928.481 Q559.888 925.935 558.314 924.5 Q556.763 923.064 553.198 922.347 L550.351 921.791 Q545.119 920.75 542.781 918.527 Q540.443 916.305 540.443 912.347 Q540.443 907.764 543.661 905.125 Q546.902 902.486 552.573 902.486 Q555.003 902.486 557.527 902.926 Q560.05 903.366 562.689 904.245 Z" fill="#000000" fill-rule="nonzero" fill-opacity="1" /></svg>
