<?xml version="1.0" encoding="utf-8"?>
<svg xmlns="http://www.w3.org/2000/svg" xmlns:xlink="http://www.w3.org/1999/xlink" width="600" height="400" viewBox="0 0 2400 1600">
<defs>
  <clipPath id="clip160">
    <rect x="0" y="0" width="2400" height="1600"/>
  </clipPath>
</defs>
<path clip-path="url(#clip160)" d="M0 1600 L2400 1600 L2400 0 L0 0  Z" fill="#ffffff" fill-rule="evenodd" fill-opacity="1"/>
<defs>
  <clipPath id="clip161">
    <rect x="480" y="0" width="1681" height="1600"/>
  </clipPath>
</defs>
<path clip-path="url(#clip160)" d="M178.867 686.448 L2352.76 686.448 L2352.76 47.2441 L178.867 47.2441  Z" fill="#ffffff" fill-rule="evenodd" fill-opacity="1"/>
<defs>
  <clipPath id="clip162">
    <rect x="178" y="47" width="2175" height="640"/>
  </clipPath>
</defs>
<polyline clip-path="url(#clip162)" style="stroke:#000000; stroke-linecap:round; stroke-linejoin:round; stroke-width:2; stroke-opacity:0.1; fill:none" points="238.339,686.448 238.339,47.2441 "/>
<polyline clip-path="url(#clip162)" style="stroke:#000000; stroke-linecap:round; stroke-linejoin:round; stroke-width:2; stroke-opacity:0.1; fill:none" points="751.562,686.448 751.562,47.2441 "/>
<polyline clip-path="url(#clip162)" style="stroke:#000000; stroke-linecap:round; stroke-linejoin:round; stroke-width:2; stroke-opacity:0.1; fill:none" points="1264.78,686.448 1264.78,47.2441 "/>
<polyline clip-path="url(#clip162)" style="stroke:#000000; stroke-linecap:round; stroke-linejoin:round; stroke-width:2; stroke-opacity:0.1; fill:none" points="1778.01,686.448 1778.01,47.2441 "/>
<polyline clip-path="url(#clip162)" style="stroke:#000000; stroke-linecap:round; stroke-linejoin:round; stroke-width:2; stroke-opacity:0.1; fill:none" points="2291.23,686.448 2291.23,47.2441 "/>
<polyline clip-path="url(#clip162)" style="stroke:#000000; stroke-linecap:round; stroke-linejoin:round; stroke-width:2; stroke-opacity:0.1; fill:none" points="178.867,686.448 2352.76,686.448 "/>
<polyline clip-path="url(#clip162)" style="stroke:#000000; stroke-linecap:round; stroke-linejoin:round; stroke-width:2; stroke-opacity:0.1; fill:none" points="178.867,526.647 2352.76,526.647 "/>
<polyline clip-path="url(#clip162)" style="stroke:#000000; stroke-linecap:round; stroke-linejoin:round; stroke-width:2; stroke-opacity:0.1; fill:none" points="178.867,366.846 2352.76,366.846 "/>
<polyline clip-path="url(#clip162)" style="stroke:#000000; stroke-linecap:round; stroke-linejoin:round; stroke-width:2; stroke-opacity:0.1; fill:none" points="178.867,207.045 2352.76,207.045 "/>
<polyline clip-path="url(#clip162)" style="stroke:#000000; stroke-linecap:round; stroke-linejoin:round; stroke-width:2; stroke-opacity:0.1; fill:none" points="178.867,47.2441 2352.76,47.2441 "/>
<polyline clip-path="url(#clip160)" style="stroke:#000000; stroke-linecap:round; stroke-linejoin:round; stroke-width:4; stroke-opacity:1; fill:none" points="178.867,686.448 2352.76,686.448 "/>
<polyline clip-path="url(#clip160)" style="stroke:#000000; stroke-linecap:round; stroke-linejoin:round; stroke-width:4; stroke-opacity:1; fill:none" points="238.339,686.448 238.339,667.55 "/>
<polyline clip-path="url(#clip160)" style="stroke:#000000; stroke-linecap:round; stroke-linejoin:round; stroke-width:4; stroke-opacity:1; fill:none" points="751.562,686.448 751.562,667.55 "/>
<polyline clip-path="url(#clip160)" style="stroke:#000000; stroke-linecap:round; stroke-linejoin:round; stroke-width:4; stroke-opacity:1; fill:none" points="1264.78,686.448 1264.78,667.55 "/>
<polyline clip-path="url(#clip160)" style="stroke:#000000; stroke-linecap:round; stroke-linejoin:round; stroke-width:4; stroke-opacity:1; fill:none" points="1778.01,686.448 1778.01,667.55 "/>
<polyline clip-path="url(#clip160)" style="stroke:#000000; stroke-linecap:round; stroke-linejoin:round; stroke-width:4; stroke-opacity:1; fill:none" points="2291.23,686.448 2291.23,667.55 "/>
<path clip-path="url(#clip160)" d="M238.339 717.367 Q234.728 717.367 232.899 720.931 Q231.094 724.473 231.094 731.603 Q231.094 738.709 232.899 742.274 Q234.728 745.815 238.339 745.815 Q241.973 745.815 243.779 742.274 Q245.607 738.709 245.607 731.603 Q245.607 724.473 243.779 720.931 Q241.973 717.367 238.339 717.367 M238.339 713.663 Q244.149 713.663 247.205 718.269 Q250.283 722.853 250.283 731.603 Q250.283 740.329 247.205 744.936 Q244.149 749.519 238.339 749.519 Q232.529 749.519 229.45 744.936 Q226.395 740.329 226.395 731.603 Q226.395 722.853 229.45 718.269 Q232.529 713.663 238.339 713.663 Z" fill="#000000" fill-rule="nonzero" fill-opacity="1" /><path clip-path="url(#clip160)" d="M715.254 744.913 L731.574 744.913 L731.574 748.848 L709.629 748.848 L709.629 744.913 Q712.291 742.158 716.875 737.528 Q721.481 732.876 722.662 731.533 Q724.907 729.01 725.787 727.274 Q726.689 725.515 726.689 723.825 Q726.689 721.07 724.745 719.334 Q722.824 717.598 719.722 717.598 Q717.523 717.598 715.069 718.362 Q712.638 719.126 709.861 720.677 L709.861 715.955 Q712.685 714.82 715.138 714.242 Q717.592 713.663 719.629 713.663 Q725 713.663 728.194 716.348 Q731.388 719.033 731.388 723.524 Q731.388 725.654 730.578 727.575 Q729.791 729.473 727.685 732.066 Q727.106 732.737 724.004 735.954 Q720.902 739.149 715.254 744.913 Z" fill="#000000" fill-rule="nonzero" fill-opacity="1" /><path clip-path="url(#clip160)" d="M741.435 714.288 L759.791 714.288 L759.791 718.223 L745.717 718.223 L745.717 726.695 Q746.736 726.348 747.754 726.186 Q748.773 726.001 749.791 726.001 Q755.578 726.001 758.958 729.172 Q762.337 732.343 762.337 737.76 Q762.337 743.339 758.865 746.44 Q755.393 749.519 749.073 749.519 Q746.898 749.519 744.629 749.149 Q742.384 748.778 739.976 748.038 L739.976 743.339 Q742.06 744.473 744.282 745.028 Q746.504 745.584 748.981 745.584 Q752.985 745.584 755.323 743.478 Q757.661 741.371 757.661 737.76 Q757.661 734.149 755.323 732.042 Q752.985 729.936 748.981 729.936 Q747.106 729.936 745.231 730.353 Q743.379 730.769 741.435 731.649 L741.435 714.288 Z" fill="#000000" fill-rule="nonzero" fill-opacity="1" /><path clip-path="url(#clip160)" d="M781.55 717.367 Q777.939 717.367 776.11 720.931 Q774.305 724.473 774.305 731.603 Q774.305 738.709 776.11 742.274 Q777.939 745.815 781.55 745.815 Q785.184 745.815 786.99 742.274 Q788.819 738.709 788.819 731.603 Q788.819 724.473 786.99 720.931 Q785.184 717.367 781.55 717.367 M781.55 713.663 Q787.36 713.663 790.416 718.269 Q793.495 722.853 793.495 731.603 Q793.495 740.329 790.416 744.936 Q787.36 749.519 781.55 749.519 Q775.74 749.519 772.661 744.936 Q769.606 740.329 769.606 731.603 Q769.606 722.853 772.661 718.269 Q775.74 713.663 781.55 713.663 Z" fill="#000000" fill-rule="nonzero" fill-opacity="1" /><path clip-path="url(#clip160)" d="M1224.4 714.288 L1242.76 714.288 L1242.76 718.223 L1228.69 718.223 L1228.69 726.695 Q1229.7 726.348 1230.72 726.186 Q1231.74 726.001 1232.76 726.001 Q1238.55 726.001 1241.93 729.172 Q1245.31 732.343 1245.31 737.76 Q1245.31 743.339 1241.83 746.44 Q1238.36 749.519 1232.04 749.519 Q1229.87 749.519 1227.6 749.149 Q1225.35 748.778 1222.94 748.038 L1222.94 743.339 Q1225.03 744.473 1227.25 745.028 Q1229.47 745.584 1231.95 745.584 Q1235.95 745.584 1238.29 743.478 Q1240.63 741.371 1240.63 737.76 Q1240.63 734.149 1238.29 732.042 Q1235.95 729.936 1231.95 729.936 Q1230.07 729.936 1228.2 730.353 Q1226.35 730.769 1224.4 731.649 L1224.4 714.288 Z" fill="#000000" fill-rule="nonzero" fill-opacity="1" /><path clip-path="url(#clip160)" d="M1264.52 717.367 Q1260.91 717.367 1259.08 720.931 Q1257.27 724.473 1257.27 731.603 Q1257.27 738.709 1259.08 742.274 Q1260.91 745.815 1264.52 745.815 Q1268.15 745.815 1269.96 742.274 Q1271.79 738.709 1271.79 731.603 Q1271.79 724.473 1269.96 720.931 Q1268.15 717.367 1264.52 717.367 M1264.52 713.663 Q1270.33 713.663 1273.38 718.269 Q1276.46 722.853 1276.46 731.603 Q1276.46 740.329 1273.38 744.936 Q1270.33 749.519 1264.52 749.519 Q1258.71 749.519 1255.63 744.936 Q1252.57 740.329 1252.57 731.603 Q1252.57 722.853 1255.63 718.269 Q1258.71 713.663 1264.52 713.663 Z" fill="#000000" fill-rule="nonzero" fill-opacity="1" /><path clip-path="url(#clip160)" d="M1294.68 717.367 Q1291.07 717.367 1289.24 720.931 Q1287.44 724.473 1287.44 731.603 Q1287.44 738.709 1289.24 742.274 Q1291.07 745.815 1294.68 745.815 Q1298.31 745.815 1300.12 742.274 Q1301.95 738.709 1301.95 731.603 Q1301.95 724.473 1300.12 720.931 Q1298.31 717.367 1294.68 717.367 M1294.68 713.663 Q1300.49 713.663 1303.55 718.269 Q1306.62 722.853 1306.62 731.603 Q1306.62 740.329 1303.55 744.936 Q1300.49 749.519 1294.68 749.519 Q1288.87 749.519 1285.79 744.936 Q1282.74 740.329 1282.74 731.603 Q1282.74 722.853 1285.79 718.269 Q1288.87 713.663 1294.68 713.663 Z" fill="#000000" fill-rule="nonzero" fill-opacity="1" /><path clip-path="url(#clip160)" d="M1736.28 714.288 L1758.51 714.288 L1758.51 716.279 L1745.96 748.848 L1741.08 748.848 L1752.88 718.223 L1736.28 718.223 L1736.28 714.288 Z" fill="#000000" fill-rule="nonzero" fill-opacity="1" /><path clip-path="url(#clip160)" d="M1767.67 714.288 L1786.03 714.288 L1786.03 718.223 L1771.95 718.223 L1771.95 726.695 Q1772.97 726.348 1773.99 726.186 Q1775.01 726.001 1776.03 726.001 Q1781.82 726.001 1785.2 729.172 Q1788.57 732.343 1788.57 737.76 Q1788.57 743.339 1785.1 746.44 Q1781.63 749.519 1775.31 749.519 Q1773.14 749.519 1770.87 749.149 Q1768.62 748.778 1766.21 748.038 L1766.21 743.339 Q1768.3 744.473 1770.52 745.028 Q1772.74 745.584 1775.22 745.584 Q1779.22 745.584 1781.56 743.478 Q1783.9 741.371 1783.9 737.76 Q1783.9 734.149 1781.56 732.042 Q1779.22 729.936 1775.22 729.936 Q1773.34 729.936 1771.47 730.353 Q1769.62 730.769 1767.67 731.649 L1767.67 714.288 Z" fill="#000000" fill-rule="nonzero" fill-opacity="1" /><path clip-path="url(#clip160)" d="M1807.79 717.367 Q1804.18 717.367 1802.35 720.931 Q1800.54 724.473 1800.54 731.603 Q1800.54 738.709 1802.35 742.274 Q1804.18 745.815 1807.79 745.815 Q1811.42 745.815 1813.23 742.274 Q1815.06 738.709 1815.06 731.603 Q1815.06 724.473 1813.23 720.931 Q1811.42 717.367 1807.79 717.367 M1807.79 713.663 Q1813.6 713.663 1816.65 718.269 Q1819.73 722.853 1819.73 731.603 Q1819.73 740.329 1816.65 744.936 Q1813.6 749.519 1807.79 749.519 Q1801.98 749.519 1798.9 744.936 Q1795.84 740.329 1795.84 731.603 Q1795.84 722.853 1798.9 718.269 Q1801.98 713.663 1807.79 713.663 Z" fill="#000000" fill-rule="nonzero" fill-opacity="1" /><path clip-path="url(#clip160)" d="M2235.76 744.913 L2243.4 744.913 L2243.4 718.547 L2235.09 720.214 L2235.09 715.955 L2243.35 714.288 L2248.02 714.288 L2248.02 744.913 L2255.66 744.913 L2255.66 748.848 L2235.76 748.848 L2235.76 744.913 Z" fill="#000000" fill-rule="nonzero" fill-opacity="1" /><path clip-path="url(#clip160)" d="M2275.11 717.367 Q2271.5 717.367 2269.67 720.931 Q2267.86 724.473 2267.86 731.603 Q2267.86 738.709 2269.67 742.274 Q2271.5 745.815 2275.11 745.815 Q2278.74 745.815 2280.55 742.274 Q2282.38 738.709 2282.38 731.603 Q2282.38 724.473 2280.55 720.931 Q2278.74 717.367 2275.11 717.367 M2275.11 713.663 Q2280.92 713.663 2283.97 718.269 Q2287.05 722.853 2287.05 731.603 Q2287.05 740.329 2283.97 744.936 Q2280.92 749.519 2275.11 749.519 Q2269.3 749.519 2266.22 744.936 Q2263.16 740.329 2263.16 731.603 Q2263.16 722.853 2266.22 718.269 Q2269.3 713.663 2275.11 713.663 Z" fill="#000000" fill-rule="nonzero" fill-opacity="1" /><path clip-path="url(#clip160)" d="M2305.27 717.367 Q2301.66 717.367 2299.83 720.931 Q2298.02 724.473 2298.02 731.603 Q2298.02 738.709 2299.83 742.274 Q2301.66 745.815 2305.27 745.815 Q2308.9 745.815 2310.71 742.274 Q2312.54 738.709 2312.54 731.603 Q2312.54 724.473 2310.71 720.931 Q2308.9 717.367 2305.27 717.367 M2305.27 713.663 Q2311.08 713.663 2314.14 718.269 Q2317.21 722.853 2317.21 731.603 Q2317.21 740.329 2314.14 744.936 Q2311.08 749.519 2305.27 749.519 Q2299.46 749.519 2296.38 744.936 Q2293.33 740.329 2293.33 731.603 Q2293.33 722.853 2296.38 718.269 Q2299.46 713.663 2305.27 713.663 Z" fill="#000000" fill-rule="nonzero" fill-opacity="1" /><path clip-path="url(#clip160)" d="M2335.43 717.367 Q2331.82 717.367 2329.99 720.931 Q2328.19 724.473 2328.19 731.603 Q2328.19 738.709 2329.99 742.274 Q2331.82 745.815 2335.43 745.815 Q2339.07 745.815 2340.87 742.274 Q2342.7 738.709 2342.7 731.603 Q2342.7 724.473 2340.87 720.931 Q2339.07 717.367 2335.43 717.367 M2335.43 713.663 Q2341.24 713.663 2344.3 718.269 Q2347.38 722.853 2347.38 731.603 Q2347.38 740.329 2344.3 744.936 Q2341.24 749.519 2335.43 749.519 Q2329.62 749.519 2326.54 744.936 Q2323.49 740.329 2323.49 731.603 Q2323.49 722.853 2326.54 718.269 Q2329.62 713.663 2335.43 713.663 Z" fill="#000000" fill-rule="nonzero" fill-opacity="1" /><polyline clip-path="url(#clip160)" style="stroke:#000000; stroke-linecap:round; stroke-linejoin:round; stroke-width:4; stroke-opacity:1; fill:none" points="178.867,686.448 178.867,47.2441 "/>
<polyline clip-path="url(#clip160)" style="stroke:#000000; stroke-linecap:round; stroke-linejoin:round; stroke-width:4; stroke-opacity:1; fill:none" points="178.867,686.448 197.764,686.448 "/>
<polyline clip-path="url(#clip160)" style="stroke:#000000; stroke-linecap:round; stroke-linejoin:round; stroke-width:4; stroke-opacity:1; fill:none" points="178.867,526.647 197.764,526.647 "/>
<polyline clip-path="url(#clip160)" style="stroke:#000000; stroke-linecap:round; stroke-linejoin:round; stroke-width:4; stroke-opacity:1; fill:none" points="178.867,366.846 197.764,366.846 "/>
<polyline clip-path="url(#clip160)" style="stroke:#000000; stroke-linecap:round; stroke-linejoin:round; stroke-width:4; stroke-opacity:1; fill:none" points="178.867,207.045 197.764,207.045 "/>
<polyline clip-path="url(#clip160)" style="stroke:#000000; stroke-linecap:round; stroke-linejoin:round; stroke-width:4; stroke-opacity:1; fill:none" points="178.867,47.2441 197.764,47.2441 "/>
<path clip-path="url(#clip160)" d="M50.9921 686.899 L80.6679 686.899 L80.6679 690.834 L50.9921 690.834 L50.9921 686.899 Z" fill="#000000" fill-rule="nonzero" fill-opacity="1" /><path clip-path="url(#clip160)" d="M91.5706 699.793 L99.2095 699.793 L99.2095 673.427 L90.8993 675.094 L90.8993 670.835 L99.1632 669.168 L103.839 669.168 L103.839 699.793 L111.478 699.793 L111.478 703.728 L91.5706 703.728 L91.5706 699.793 Z" fill="#000000" fill-rule="nonzero" fill-opacity="1" /><path clip-path="url(#clip160)" d="M130.922 672.247 Q127.311 672.247 125.482 675.811 Q123.677 679.353 123.677 686.483 Q123.677 693.589 125.482 697.154 Q127.311 700.695 130.922 700.695 Q134.556 700.695 136.362 697.154 Q138.191 693.589 138.191 686.483 Q138.191 679.353 136.362 675.811 Q134.556 672.247 130.922 672.247 M130.922 668.543 Q136.732 668.543 139.788 673.149 Q142.867 677.733 142.867 686.483 Q142.867 695.209 139.788 699.816 Q136.732 704.399 130.922 704.399 Q125.112 704.399 122.033 699.816 Q118.978 695.209 118.978 686.483 Q118.978 677.733 122.033 673.149 Q125.112 668.543 130.922 668.543 Z" fill="#000000" fill-rule="nonzero" fill-opacity="1" /><path clip-path="url(#clip160)" d="M82.1494 527.098 L111.825 527.098 L111.825 531.033 L82.1494 531.033 L82.1494 527.098 Z" fill="#000000" fill-rule="nonzero" fill-opacity="1" /><path clip-path="url(#clip160)" d="M121.964 509.367 L140.32 509.367 L140.32 513.302 L126.246 513.302 L126.246 521.774 Q127.265 521.427 128.283 521.265 Q129.302 521.08 130.32 521.08 Q136.107 521.08 139.487 524.251 Q142.867 527.422 142.867 532.839 Q142.867 538.418 139.394 541.52 Q135.922 544.598 129.603 544.598 Q127.427 544.598 125.158 544.228 Q122.913 543.857 120.506 543.117 L120.506 538.418 Q122.589 539.552 124.811 540.108 Q127.033 540.663 129.51 540.663 Q133.515 540.663 135.853 538.557 Q138.191 536.45 138.191 532.839 Q138.191 529.228 135.853 527.121 Q133.515 525.015 129.51 525.015 Q127.635 525.015 125.76 525.432 Q123.908 525.848 121.964 526.728 L121.964 509.367 Z" fill="#000000" fill-rule="nonzero" fill-opacity="1" /><path clip-path="url(#clip160)" d="M130.922 352.645 Q127.311 352.645 125.482 356.209 Q123.677 359.751 123.677 366.881 Q123.677 373.987 125.482 377.552 Q127.311 381.094 130.922 381.094 Q134.556 381.094 136.362 377.552 Q138.191 373.987 138.191 366.881 Q138.191 359.751 136.362 356.209 Q134.556 352.645 130.922 352.645 M130.922 348.941 Q136.732 348.941 139.788 353.547 Q142.867 358.131 142.867 366.881 Q142.867 375.608 139.788 380.214 Q136.732 384.797 130.922 384.797 Q125.112 384.797 122.033 380.214 Q118.978 375.608 118.978 366.881 Q118.978 358.131 122.033 353.547 Q125.112 348.941 130.922 348.941 Z" fill="#000000" fill-rule="nonzero" fill-opacity="1" /><path clip-path="url(#clip160)" d="M121.964 189.765 L140.32 189.765 L140.32 193.7 L126.246 193.7 L126.246 202.172 Q127.265 201.825 128.283 201.663 Q129.302 201.478 130.32 201.478 Q136.107 201.478 139.487 204.649 Q142.867 207.82 142.867 213.237 Q142.867 218.816 139.394 221.918 Q135.922 224.996 129.603 224.996 Q127.427 224.996 125.158 224.626 Q122.913 224.256 120.506 223.515 L120.506 218.816 Q122.589 219.95 124.811 220.506 Q127.033 221.061 129.51 221.061 Q133.515 221.061 135.853 218.955 Q138.191 216.848 138.191 213.237 Q138.191 209.626 135.853 207.52 Q133.515 205.413 129.51 205.413 Q127.635 205.413 125.76 205.83 Q123.908 206.246 121.964 207.126 L121.964 189.765 Z" fill="#000000" fill-rule="nonzero" fill-opacity="1" /><path clip-path="url(#clip160)" d="M91.5706 60.5889 L99.2095 60.5889 L99.2095 34.2233 L90.8993 35.89 L90.8993 31.6308 L99.1632 29.9641 L103.839 29.9641 L103.839 60.5889 L111.478 60.5889 L111.478 64.5241 L91.5706 64.5241 L91.5706 60.5889 Z" fill="#000000" fill-rule="nonzero" fill-opacity="1" /><path clip-path="url(#clip160)" d="M130.922 33.0428 Q127.311 33.0428 125.482 36.6076 Q123.677 40.1492 123.677 47.2788 Q123.677 54.3853 125.482 57.9501 Q127.311 61.4917 130.922 61.4917 Q134.556 61.4917 136.362 57.9501 Q138.191 54.3853 138.191 47.2788 Q138.191 40.1492 136.362 36.6076 Q134.556 33.0428 130.922 33.0428 M130.922 29.3391 Q136.732 29.3391 139.788 33.9456 Q142.867 38.5289 142.867 47.2788 Q142.867 56.0056 139.788 60.6121 Q136.732 65.1954 130.922 65.1954 Q125.112 65.1954 122.033 60.6121 Q118.978 56.0056 118.978 47.2788 Q118.978 38.5289 122.033 33.9456 Q125.112 29.3391 130.922 29.3391 Z" fill="#000000" fill-rule="nonzero" fill-opacity="1" /><polyline clip-path="url(#clip162)" style="stroke:#009af9; stroke-linecap:round; stroke-linejoin:round; stroke-width:4; stroke-opacity:1; fill:none" points="240.392,334.886 242.445,335.798 244.498,352.319 246.55,349.571 248.603,350.356 250.656,350.457 252.709,353.703 254.762,340.497 256.815,341.002 258.868,335.803 260.921,333.129 262.974,329.433 265.027,329.839 267.079,334.536 269.132,342.567 271.185,342.475 273.238,385.494 275.291,378.657 277.344,378.89 279.397,379.682 281.45,379.477 283.503,384.404 285.555,386.303 287.608,386.235 289.661,422.585 291.714,410.553 293.767,409.437 295.82,411.283 297.873,411.001 299.926,412.014 301.979,399.118 304.031,413.701 306.084,419.418 308.137,417.497 310.19,417.022 312.243,421.877 314.296,402.622 316.349,402.883 318.402,404.278 320.455,404.497 322.507,426.43 324.56,426.955 326.613,426.989 328.666,437.205 330.719,438.74 332.772,433.877 334.825,425.531 336.878,392.135 338.931,362.58 340.984,362.216 343.036,359.795 345.089,359.661 347.142,361.897 349.195,361.678 351.248,357.425 353.301,373.76 355.354,373.763 357.407,375.368 359.46,376.603 361.512,375.093 363.565,393.33 365.618,393.17 367.671,393.428 369.724,384.374 371.777,384.367 373.83,374.411 375.883,374.498 377.936,377.904 379.988,381.663 382.041,362.385 384.094,357.005 386.147,402.197 388.2,400.047 390.253,407.495 392.306,384.418 394.359,384.159 396.412,398.952 398.464,399.032 400.517,403.318 402.57,402.635 404.623,402.523 406.676,393.702 408.729,394.135 410.782,382.715 412.835,381.321 414.888,380.125 416.94,375.798 418.993,377.656 421.046,378.741 423.099,367.1 425.152,375.977 427.205,412.385 429.258,402.125 431.311,402.269 433.364,405.858 435.417,408.46 437.469,405.405 439.522,392.359 441.575,388.758 443.628,378.952 445.681,379.088 447.734,380.804 449.787,380.455 451.84,383.1 453.893,394.349 455.945,382.756 457.998,382.277 460.051,345.647 462.104,318.459 464.157,322.496 466.21,325.981 468.263,304.412 470.316,307.608 472.369,401.276 474.421,395.31 476.474,398.609 478.527,364.925 480.58,349.747 482.633,377.421 484.686,373.055 486.739,372.628 488.792,412.723 490.845,412.715 492.897,413.479 494.95,405.219 497.003,406.699 499.056,412.886 501.109,413.026 503.162,429.349 505.215,460.531 507.268,431.746 509.321,389.332 511.374,392.021 513.426,388.644 515.479,376.746 517.532,326.491 519.585,326.481 521.638,302.647 523.691,302.636 525.744,335.041 527.797,333.644 529.85,362.335 531.902,361.378 533.955,356.427 536.008,356.448 538.061,356.857 540.114,386.99 542.167,388.067 544.22,396.255 546.273,401.281 548.326,395.637 550.378,367.91 552.431,387.33 554.484,375.551 556.537,357.118 558.59,364.129 560.643,369.43 562.696,369.418 564.749,367.832 566.802,370.144 568.854,379.553 570.907,380.227 572.96,386.163 575.013,387.305 577.066,381.045 579.119,377.936 581.172,364.846 583.225,327.18 585.278,327.203 587.331,327.214 589.383,328.216 591.436,326.193 593.489,323.468 595.542,323.528 597.595,328.973 599.648,330.833 601.701,331.069 603.754,330.876 605.807,338.147 607.859,357.543 609.912,357.543 611.965,360.856 614.018,355.997 616.071,356.865 618.124,341.998 620.177,354.71 622.23,354.729 624.283,370.92 626.335,381.981 628.388,382.182 630.441,353.416 632.494,366.855 634.547,368.455 636.6,369.895 638.653,369.779 640.706,370.353 642.759,381.495 644.811,379.916 646.864,379.951 648.917,382.843 650.97,383.98 653.023,381.229 655.076,380.578 657.129,357.106 659.182,333.708 661.235,339.092 663.288,364.579 665.34,365.348 667.393,363.173 669.446,363.999 671.499,363.902 673.552,364.599 675.605,357.846 677.658,335.47 679.711,335.688 681.764,320.196 683.816,320.2 685.869,321.487 687.922,295.847 689.975,277.756 692.028,277.779 694.081,278.787 696.134,291.064 698.187,283.575 700.24,282.713 702.292,286.556 704.345,267.023 706.398,294.761 708.451,292.326 710.504,283.828 712.557,284.895 714.61,287.348 716.663,283.52 718.716,283.615 720.768,283.275 722.821,283.329 724.874,283.138 726.927,282.738 728.98,323.561 731.033,331.294 733.086,331.513 735.139,331.806 737.192,494.967 739.245,510.974 741.297,506.687 743.35,439.635 745.403,424.916 747.456,399.396 749.509,398.224 751.562,379.994 753.615,388.896 755.668,406.129 757.721,397.881 759.773,387.232 761.826,389.442 763.879,390.874 765.932,386.969 767.985,370.819 770.038,369.496 772.091,360.399 774.144,358.077 776.197,357.116 778.249,367.331 780.302,362.494 782.355,329.268 784.408,328.873 786.461,328.745 788.514,326.282 790.567,327.223 792.62,328.619 794.673,329.158 796.725,340.295 798.778,340.333 800.831,340.864 802.884,340.868 804.937,339.927 806.99,339.885 809.043,340.802 811.096,340.014 813.149,339.587 815.202,354.391 817.254,354.323 819.307,364.1 821.36,363.505 823.413,362.091 825.466,347.41 827.519,347.499 829.572,348.816 831.625,340.386 833.678,340.554 835.73,332.026 837.783,328.922 839.836,316.762 841.889,334.465 843.942,333.862 845.995,338.243 848.048,340.735 850.101,350.336 852.154,353.449 854.206,349.54 856.259,348.841 858.312,440.779 860.365,446.559 862.418,447.389 864.471,459.537 866.524,464.348 868.577,486.264 870.63,468.574 872.682,478.12 874.735,475.745 876.788,471.797 878.841,471.234 880.894,447.124 882.947,375.433 885,373.631 887.053,314.111 889.106,314.111 891.159,305.368 893.211,276.902 895.264,271.414 897.317,233.616 899.37,278.444 901.423,221.933 903.476,224.628 905.529,164.303 907.582,207.713 909.635,217.495 911.687,264.234 913.74,412.721 915.793,426.707 917.846,439.309 919.899,409.672 921.952,411.893 924.005,376.123 926.058,375.447 928.111,371.474 930.163,313.41 932.216,329.907 934.269,329.708 936.322,441.672 938.375,442.675 940.428,331.742 942.481,217.936 944.534,200.745 946.587,204.648 948.639,92.9662 950.692,268.506 952.745,320.595 954.798,341.222 956.851,346.552 958.904,350.89 960.957,184.218 963.01,175.707 965.063,185.633 967.116,197.434 969.168,370.421 971.221,448.735 973.274,430.905 975.327,443.228 977.38,403.768 979.433,403.722 981.486,326.626 983.539,371.935 985.592,312.348 987.644,314.123 989.697,311.878 991.75,335.079 993.803,329.66 995.856,228.925 997.909,246.934 999.962,274.581 1002.01,283.048 1004.07,244.534 1006.12,226.057 1008.17,219.796 1010.23,503.512 1012.28,487.764 1014.33,482.917 1016.38,359.964 1018.44,334.342 1020.49,378.37 1022.54,360.623 1024.6,392.269 1026.65,380.638 1028.7,379.409 1030.76,283.765 1032.81,304.187 1034.86,282.502 1036.91,204.164 1038.97,150.809 1041.02,131.86 1043.07,132.295 1045.13,177.51 1047.18,155.305 1049.23,109.804 1051.28,131.195 1053.34,130.303 1055.39,169.288 1057.44,244.845 1059.5,266.539 1061.55,248.285 1063.6,239.578 1065.65,239.02 1067.71,239.095 1069.76,227.916 1071.81,710.669 1073.87,618.903 1075.92,433.733 1077.97,384.923 1080.02,382.518 1082.08,376.54 1084.13,378.596 1086.18,374.38 1088.24,404.24 1090.29,412.115 1092.34,399.856 1094.39,337.295 1096.45,334.226 1098.5,319.227 1100.55,327.617 1102.61,360.457 1104.66,142.955 1106.71,133.101 1108.77,144.356 1110.82,393.981 1112.87,152.241 1114.92,153.254 1116.98,125.267 1119.03,140.534 1121.08,-15.5831 1123.14,120.332 1125.19,19.811 1127.24,44.1197 1129.29,43.6657 1131.35,159.113 1133.4,-110.1 1135.45,374.475 1137.51,160.58 1139.56,153.667 1141.61,340.324 1143.66,315.075 1145.72,222.374 1147.77,217.469 1149.82,54.0295 1151.88,-108.499 1153.93,187.286 1155.98,139.002 1158.03,348.932 1160.09,245.049 1162.14,222.426 1164.19,179.961 1166.25,243.685 1168.3,286.683 1170.35,309.836 1172.4,337.829 1174.46,311.567 1176.51,-149.07 1178.56,14.0171 1180.62,-8.40344 1182.67,116.051 1184.72,58.3288 1186.77,-91.9039 1188.83,67.3893 1190.88,-124.379 1192.93,-355.14 1194.99,-377.372 1197.04,-529.008 1199.09,-641.518 1201.15,-744.185 1203.2,-797.074 1205.25,-752.796 1207.3,-898.257 1209.36,-789.984 1211.41,-789.367 1213.46,-850.19 1215.52,-971.075 1217.57,-955.413 1219.62,-657.846 1221.67,-737.565 1223.73,-736.379 1225.78,-955.469 1227.83,-846.678 1229.89,-796.317 1231.94,-664.001 1233.99,-523.479 1236.04,-347.568 1238.1,-358.309 1240.15,-551.217 1242.2,-541.802 1244.26,-590.131 1246.31,-373.65 1248.36,-654.506 1250.41,-656.158 1252.47,-582.689 1254.52,-653.972 1256.57,-678.375 1258.63,-518.765 1260.68,5.06962 1262.73,-99.4995 1264.78,-39.5263 1266.84,-521.981 1268.89,-516.293 1270.94,-528.707 1273,-640.184 1275.05,-624.062 1277.1,-638.5 1279.16,-446.477 1281.21,-670.303 1283.26,-612.557 1285.31,-747.636 1287.37,-742.342 1289.42,-1174.9 1291.47,-1357.2 1293.53,-1636.79 1295.58,-1557.6 1297.63,-1575.7 1299.68,-1330.84 1301.74,-922.785 1303.79,-907.611 1305.84,-891.398 1307.9,-924.748 1309.95,-924.373 1312,-701.603 1314.05,-566.336 1316.11,-704.463 1318.16,-961.002 1320.21,-654.542 1322.27,362.486 1324.32,939.422 1326.37,921.86 1328.42,851.684 1330.48,759.719 1332.53,774.728 1334.58,769.424 1336.64,737.613 1338.69,661.992 1340.74,654.715 1342.79,708.573 1344.85,800.029 1346.9,547.881 1348.95,524.371 1351.01,289.387 1353.06,297.104 1355.11,297.486 1357.16,130.66 1359.22,111.235 1361.27,57.6038 1363.32,222.98 1365.38,221.378 1367.43,-232.998 1369.48,-227.918 1371.54,-251.894 1373.59,-251.37 1375.64,-264.518 1377.69,-265.648 1379.75,-275.661 1381.8,-238.076 1383.85,-256.383 1385.91,-262.839 1387.96,109.159 1390.01,374.551 1392.06,703.385 1394.12,616.521 1396.17,627.61 1398.22,617.286 1400.28,550.993 1402.33,552.134 1404.38,558.126 1406.43,538.645 1408.49,544.285 1410.54,545.235 1412.59,550.778 1414.65,558.463 1416.7,549.165 1418.75,477.303 1420.8,520.882 1422.86,524.635 1424.91,405.545 1426.96,380.476 1429.02,412.521 1431.07,442.505 1433.12,442.386 1435.17,468.745 1437.23,466.762 1439.28,474.879 1441.33,471.22 1443.39,339.31 1445.44,320.046 1447.49,314.509 1449.55,297.6 1451.6,242.825 1453.65,207.572 1455.7,197.69 1457.76,141.316 1459.81,192.425 1461.86,131.752 1463.92,127.474 1465.97,267.739 1468.02,264.38 1470.07,262.158 1472.13,256.327 1474.18,311.629 1476.23,354.208 1478.29,126.869 1480.34,116.468 1482.39,283.846 1484.44,286.548 1486.5,421.815 1488.55,441.699 1490.6,463.751 1492.66,463.431 1494.71,508.098 1496.76,560.763 1498.81,65.0853 1500.87,430.461 1502.92,275.003 1504.97,273.571 1507.03,263.318 1509.08,435.328 1511.13,428.372 1513.18,426.577 1515.24,594.306 1517.29,945.892 1519.34,565.736 1521.4,582.667 1523.45,719.868 1525.5,702.377 1527.55,686.321 1529.61,847.526 1531.66,868.497 1533.71,727.678 1535.77,591.742 1537.82,480.986 1539.87,470.488 1541.93,470.407 1543.98,379.613 1546.03,365.576 1548.08,318.904 1550.14,399.153 1552.19,488.316 1554.24,485.354 1556.3,494.401 1558.35,618.88 1560.4,584.449 1562.45,811.533 1564.51,682.702 1566.56,679.206 1568.61,708.478 1570.67,664.875 1572.72,570.383 1574.77,620.536 1576.82,214.692 1578.88,266.845 1580.93,168.556 1582.98,169.474 1585.04,228.468 1587.09,213.627 1589.14,189.039 1591.19,186.172 1593.25,169.937 1595.3,173.923 1597.35,48.2957 1599.41,66.6159 1601.46,71.5746 1603.51,511.414 1605.56,448.495 1607.62,479.891 1609.67,458.086 1611.72,442.543 1613.78,422.56 1615.83,425.188 1617.88,496.877 1619.94,465.858 1621.99,519.767 1624.04,361.799 1626.09,127.401 1628.15,187.767 1630.2,102.537 1632.25,111.355 1634.31,118.307 1636.36,154.384 1638.41,154.882 1640.46,153.675 1642.52,158.111 1644.57,157.702 1646.62,165.162 1648.68,228.09 1650.73,193.339 1652.78,208.051 1654.83,210.799 1656.89,183.112 1658.94,195.837 1660.99,195.453 1663.05,358.536 1665.1,350.408 1667.15,355.403 1669.2,387.273 1671.26,387.267 1673.31,378.508 1675.36,327.548 1677.42,258.298 1679.47,336.161 1681.52,434.576 1683.57,444.37 1685.63,442.171 1687.68,442.506 1689.73,476.687 1691.79,440.527 1693.84,478.792 1695.89,505.298 1697.94,432.374 1700,369.188 1702.05,366.437 1704.1,363.014 1706.16,361.784 1708.21,336.908 1710.26,338.002 1712.32,315.065 1714.37,406.146 1716.42,463.094 1718.47,289.901 1720.53,315.325 1722.58,314.982 1724.63,311.597 1726.69,313.016 1728.74,322.164 1730.79,339.853 1732.84,341.114 1734.9,333.444 1736.95,385.457 1739,389.658 1741.06,357.541 1743.11,363.591 1745.16,363.176 1747.21,396.333 1749.27,418.131 1751.32,392.524 1753.37,402.099 1755.43,398.845 1757.48,362.73 1759.53,359.19 1761.58,360.868 1763.64,408.419 1765.69,413.29 1767.74,404.904 1769.8,501.817 1771.85,506.194 1773.9,509.348 1775.95,509.624 1778.01,497.928 1780.06,493.257 1782.11,581.598 1784.17,529.299 1786.22,503.029 1788.27,530.053 1790.33,513.965 1792.38,511.425 1794.43,424.065 1796.48,419.98 1798.54,410.46 1800.59,389.22 1802.64,454.361 1804.7,433.082 1806.75,427.392 1808.8,429.917 1810.85,433.371 1812.91,431.758 1814.96,431.883 1817.01,445.824 1819.07,324.479 1821.12,388.855 1823.17,406.493 1825.22,399.377 1827.28,302.584 1829.33,307.904 1831.38,314.217 1833.44,320.345 1835.49,327.187 1837.54,324.19 1839.59,318.188 1841.65,327.927 1843.7,316.449 1845.75,320.117 1847.81,311.785 1849.86,311.817 1851.91,311.216 1853.96,325.857 1856.02,419.354 1858.07,384.363 1860.12,386.413 1862.18,386.53 1864.23,385.208 1866.28,386.096 1868.34,384.933 1870.39,384.4 1872.44,384.288 1874.49,384.929 1876.55,378.13 1878.6,379.269 1880.65,385.018 1882.71,384.345 1884.76,364.564 1886.81,364.955 1888.86,352.927 1890.92,352.959 1892.97,355.822 1895.02,338.368 1897.08,350.932 1899.13,350.448 1901.18,350.399 1903.23,349.67 1905.29,349.697 1907.34,349.808 1909.39,349.06 1911.45,349.83 1913.5,358.326 1915.55,359.733 1917.6,369.55 1919.66,380.643 1921.71,379.924 1923.76,379.101 1925.82,342.13 1927.87,329.639 1929.92,329.785 1931.97,331.212 1934.03,335.671 1936.08,336.514 1938.13,332.212 1940.19,332.406 1942.24,334.47 1944.29,334.319 1946.34,332.697 1948.4,332.647 1950.45,347.117 1952.5,346.804 1954.56,333.347 1956.61,335.141 1958.66,335.871 1960.72,335.802 1962.77,335.751 1964.82,336.024 1966.87,336.025 1968.93,336.107 1970.98,340.627 1973.03,340.961 1975.09,341.046 1977.14,341.873 1979.19,343.072 1981.24,343.723 1983.3,346.253 1985.35,341.079 1987.4,334.05 1989.46,329.705 1991.51,331.14 1993.56,327.599 1995.61,327.024 1997.67,323.957 1999.72,332.375 2001.77,333.07 2003.83,331.669 2005.88,329.439 2007.93,329.106 2009.98,316.483 2012.04,356.749 2014.09,357.26 2016.14,315.252 2018.2,323.371 2020.25,319.045 2022.3,349.762 2024.35,349.391 2026.41,398.249 2028.46,442.255 2030.51,440.888 2032.57,333.569 2034.62,325.711 2036.67,322.022 2038.73,321.961 2040.78,420.823 2042.83,407.826 2044.88,407.822 2046.94,408.143 2048.99,407.853 2051.04,407.85 2053.1,407.84 2055.15,381.261 2057.2,381.34 2059.25,377.411 2061.31,379.991 2063.36,379.799 2065.41,381.18 2067.47,394.597 2069.52,389.557 2071.57,389.856 2073.62,383.399 2075.68,377.892 2077.73,377.572 2079.78,376.778 2081.84,385.229 2083.89,384.478 2085.94,384.79 2087.99,405.59 2090.05,406.454 2092.1,419.588 2094.15,420.236 2096.21,419.449 2098.26,426.673 2100.31,434.002 2102.36,427.732 2104.42,415.629 2106.47,393.18 2108.52,392.762 2110.58,387.295 2112.63,400.571 2114.68,397.178 2116.73,395.048 2118.79,391.026 2120.84,390.771 2122.89,386.955 2124.95,376.589 2127,323.789 2129.05,323.794 2131.11,323.761 2133.16,420.614 2135.21,411.823 2137.26,406.47 2139.32,410.575 2141.37,410.89 2143.42,407.924 2145.48,403.901 2147.53,402.734 2149.58,402.902 2151.63,400.695 2153.69,402.739 2155.74,402.002 2157.79,402.613 2159.85,388.339 2161.9,424.639 2163.95,373.192 2166,370.759 2168.06,370.226 2170.11,357.076 2172.16,357.705 2174.22,371.671 2176.27,369.618 2178.32,371.41 2180.37,363.882 2182.43,360.402 2184.48,353.48 2186.53,358.616 2188.59,358.983 2190.64,349.847 2192.69,357.582 2194.74,313.952 2196.8,285.065 2198.85,285.621 2200.9,395.087 2202.96,404.705 2205.01,436.356 2207.06,233.629 2209.12,236.423 2211.17,245.345 2213.22,245.519 2215.27,266.308 2217.33,266.11 2219.38,341.671 2221.43,342.09 2223.49,332.705 2225.54,337.923 2227.59,370.962 2229.64,340.593 2231.7,344.224 2233.75,359.93 2235.8,391.718 2237.86,383.88 2239.91,306.046 2241.96,167.382 2244.01,313.283 2246.07,304.518 2248.12,225.122 2250.17,183.696 2252.23,182.594 2254.28,205.17 2256.33,386.635 2258.38,375.822 2260.44,393.594 2262.49,358.796 2264.54,367.208 2266.6,402.527 2268.65,399.785 2270.7,426.197 2272.75,388.3 2274.81,395.637 2276.86,309.066 2278.91,282.204 2280.97,262.561 2283.02,241.003 2285.07,239.394 2287.12,235.678 2289.18,141.129 2291.23,142.881 "/>
<path clip-path="url(#clip160)" d="M251.33 172.231 L548.024 172.231 L548.024 68.5509 L251.33 68.5509  Z" fill="#ffffff" fill-rule="evenodd" fill-opacity="1"/>
<polyline clip-path="url(#clip160)" style="stroke:#000000; stroke-linecap:round; stroke-linejoin:round; stroke-width:4; stroke-opacity:1; fill:none" points="251.33,172.231 548.024,172.231 548.024,68.5509 251.33,68.5509 251.33,172.231 "/>
<polyline clip-path="url(#clip160)" style="stroke:#009af9; stroke-linecap:round; stroke-linejoin:round; stroke-width:4; stroke-opacity:1; fill:none" points="275.484,120.391 420.41,120.391 "/>
<path clip-path="url(#clip160)" d="M444.564 103.111 L449.24 103.111 L449.24 133.736 L466.069 133.736 L466.069 137.671 L444.564 137.671 L444.564 103.111 Z" fill="#000000" fill-rule="nonzero" fill-opacity="1" /><path clip-path="url(#clip160)" d="M491.694 104.245 L491.694 108.805 Q489.032 107.532 486.67 106.907 Q484.309 106.282 482.11 106.282 Q478.291 106.282 476.208 107.764 Q474.147 109.245 474.147 111.977 Q474.147 114.268 475.513 115.449 Q476.902 116.606 480.745 117.324 L483.569 117.902 Q488.8 118.898 491.277 121.421 Q493.777 123.921 493.777 128.134 Q493.777 133.157 490.397 135.75 Q487.041 138.342 480.536 138.342 Q478.083 138.342 475.305 137.787 Q472.55 137.231 469.587 136.143 L469.587 131.328 Q472.434 132.926 475.166 133.736 Q477.897 134.546 480.536 134.546 Q484.541 134.546 486.717 132.972 Q488.893 131.398 488.893 128.481 Q488.893 125.935 487.319 124.5 Q485.768 123.064 482.203 122.347 L479.356 121.791 Q474.124 120.75 471.786 118.527 Q469.448 116.305 469.448 112.347 Q469.448 107.764 472.666 105.125 Q475.907 102.486 481.578 102.486 Q484.008 102.486 486.532 102.926 Q489.055 103.366 491.694 104.245 Z" fill="#000000" fill-rule="nonzero" fill-opacity="1" /><path clip-path="url(#clip160)" d="M521.786 104.245 L521.786 108.805 Q519.124 107.532 516.763 106.907 Q514.402 106.282 512.203 106.282 Q508.383 106.282 506.3 107.764 Q504.24 109.245 504.24 111.977 Q504.24 114.268 505.606 115.449 Q506.994 116.606 510.837 117.324 L513.661 117.902 Q518.893 118.898 521.369 121.421 Q523.869 123.921 523.869 128.134 Q523.869 133.157 520.49 135.75 Q517.133 138.342 510.629 138.342 Q508.175 138.342 505.397 137.787 Q502.643 137.231 499.68 136.143 L499.68 131.328 Q502.527 132.926 505.258 133.736 Q507.99 134.546 510.629 134.546 Q514.633 134.546 516.809 132.972 Q518.985 131.398 518.985 128.481 Q518.985 125.935 517.411 124.5 Q515.86 123.064 512.295 122.347 L509.448 121.791 Q504.217 120.75 501.879 118.527 Q499.541 116.305 499.541 112.347 Q499.541 107.764 502.758 105.125 Q505.999 102.486 511.67 102.486 Q514.101 102.486 516.624 102.926 Q519.147 103.366 521.786 104.245 Z" fill="#000000" fill-rule="nonzero" fill-opacity="1" /><path clip-path="url(#clip160)" d="M178.867 1486.45 L2352.76 1486.45 L2352.76 847.244 L178.867 847.244  Z" fill="#ffffff" fill-rule="evenodd" fill-opacity="1"/>
<defs>
  <clipPath id="clip163">
    <rect x="178" y="847" width="2175" height="640"/>
  </clipPath>
</defs>
<polyline clip-path="url(#clip163)" style="stroke:#000000; stroke-linecap:round; stroke-linejoin:round; stroke-width:2; stroke-opacity:0.1; fill:none" points="238.339,1486.45 238.339,847.244 "/>
<polyline clip-path="url(#clip163)" style="stroke:#000000; stroke-linecap:round; stroke-linejoin:round; stroke-width:2; stroke-opacity:0.1; fill:none" points="751.562,1486.45 751.562,847.244 "/>
<polyline clip-path="url(#clip163)" style="stroke:#000000; stroke-linecap:round; stroke-linejoin:round; stroke-width:2; stroke-opacity:0.1; fill:none" points="1264.78,1486.45 1264.78,847.244 "/>
<polyline clip-path="url(#clip163)" style="stroke:#000000; stroke-linecap:round; stroke-linejoin:round; stroke-width:2; stroke-opacity:0.1; fill:none" points="1778.01,1486.45 1778.01,847.244 "/>
<polyline clip-path="url(#clip163)" style="stroke:#000000; stroke-linecap:round; stroke-linejoin:round; stroke-width:2; stroke-opacity:0.1; fill:none" points="2291.23,1486.45 2291.23,847.244 "/>
<polyline clip-path="url(#clip163)" style="stroke:#000000; stroke-linecap:round; stroke-linejoin:round; stroke-width:2; stroke-opacity:0.1; fill:none" points="178.867,1486.45 2352.76,1486.45 "/>
<polyline clip-path="url(#clip163)" style="stroke:#000000; stroke-linecap:round; stroke-linejoin:round; stroke-width:2; stroke-opacity:0.1; fill:none" points="178.867,1326.65 2352.76,1326.65 "/>
<polyline clip-path="url(#clip163)" style="stroke:#000000; stroke-linecap:round; stroke-linejoin:round; stroke-width:2; stroke-opacity:0.1; fill:none" points="178.867,1166.85 2352.76,1166.85 "/>
<polyline clip-path="url(#clip163)" style="stroke:#000000; stroke-linecap:round; stroke-linejoin:round; stroke-width:2; stroke-opacity:0.1; fill:none" points="178.867,1007.05 2352.76,1007.05 "/>
<polyline clip-path="url(#clip163)" style="stroke:#000000; stroke-linecap:round; stroke-linejoin:round; stroke-width:2; stroke-opacity:0.1; fill:none" points="178.867,847.244 2352.76,847.244 "/>
<polyline clip-path="url(#clip160)" style="stroke:#000000; stroke-linecap:round; stroke-linejoin:round; stroke-width:4; stroke-opacity:1; fill:none" points="178.867,1486.45 2352.76,1486.45 "/>
<polyline clip-path="url(#clip160)" style="stroke:#000000; stroke-linecap:round; stroke-linejoin:round; stroke-width:4; stroke-opacity:1; fill:none" points="238.339,1486.45 238.339,1467.55 "/>
<polyline clip-path="url(#clip160)" style="stroke:#000000; stroke-linecap:round; stroke-linejoin:round; stroke-width:4; stroke-opacity:1; fill:none" points="751.562,1486.45 751.562,1467.55 "/>
<polyline clip-path="url(#clip160)" style="stroke:#000000; stroke-linecap:round; stroke-linejoin:round; stroke-width:4; stroke-opacity:1; fill:none" points="1264.78,1486.45 1264.78,1467.55 "/>
<polyline clip-path="url(#clip160)" style="stroke:#000000; stroke-linecap:round; stroke-linejoin:round; stroke-width:4; stroke-opacity:1; fill:none" points="1778.01,1486.45 1778.01,1467.55 "/>
<polyline clip-path="url(#clip160)" style="stroke:#000000; stroke-linecap:round; stroke-linejoin:round; stroke-width:4; stroke-opacity:1; fill:none" points="2291.23,1486.45 2291.23,1467.55 "/>
<path clip-path="url(#clip160)" d="M238.339 1517.37 Q234.728 1517.37 232.899 1520.93 Q231.094 1524.47 231.094 1531.6 Q231.094 1538.71 232.899 1542.27 Q234.728 1545.82 238.339 1545.82 Q241.973 1545.82 243.779 1542.27 Q245.607 1538.71 245.607 1531.6 Q245.607 1524.47 243.779 1520.93 Q241.973 1517.37 238.339 1517.37 M238.339 1513.66 Q244.149 1513.66 247.205 1518.27 Q250.283 1522.85 250.283 1531.6 Q250.283 1540.33 247.205 1544.94 Q244.149 1549.52 238.339 1549.52 Q232.529 1549.52 229.45 1544.94 Q226.395 1540.33 226.395 1531.6 Q226.395 1522.85 229.45 1518.27 Q232.529 1513.66 238.339 1513.66 Z" fill="#000000" fill-rule="nonzero" fill-opacity="1" /><path clip-path="url(#clip160)" d="M715.254 1544.91 L731.574 1544.91 L731.574 1548.85 L709.629 1548.85 L709.629 1544.91 Q712.291 1542.16 716.875 1537.53 Q721.481 1532.88 722.662 1531.53 Q724.907 1529.01 725.787 1527.27 Q726.689 1525.51 726.689 1523.82 Q726.689 1521.07 724.745 1519.33 Q722.824 1517.6 719.722 1517.6 Q717.523 1517.6 715.069 1518.36 Q712.638 1519.13 709.861 1520.68 L709.861 1515.95 Q712.685 1514.82 715.138 1514.24 Q717.592 1513.66 719.629 1513.66 Q725 1513.66 728.194 1516.35 Q731.388 1519.03 731.388 1523.52 Q731.388 1525.65 730.578 1527.57 Q729.791 1529.47 727.685 1532.07 Q727.106 1532.74 724.004 1535.95 Q720.902 1539.15 715.254 1544.91 Z" fill="#000000" fill-rule="nonzero" fill-opacity="1" /><path clip-path="url(#clip160)" d="M741.435 1514.29 L759.791 1514.29 L759.791 1518.22 L745.717 1518.22 L745.717 1526.7 Q746.736 1526.35 747.754 1526.19 Q748.773 1526 749.791 1526 Q755.578 1526 758.958 1529.17 Q762.337 1532.34 762.337 1537.76 Q762.337 1543.34 758.865 1546.44 Q755.393 1549.52 749.073 1549.52 Q746.898 1549.52 744.629 1549.15 Q742.384 1548.78 739.976 1548.04 L739.976 1543.34 Q742.06 1544.47 744.282 1545.03 Q746.504 1545.58 748.981 1545.58 Q752.985 1545.58 755.323 1543.48 Q757.661 1541.37 757.661 1537.76 Q757.661 1534.15 755.323 1532.04 Q752.985 1529.94 748.981 1529.94 Q747.106 1529.94 745.231 1530.35 Q743.379 1530.77 741.435 1531.65 L741.435 1514.29 Z" fill="#000000" fill-rule="nonzero" fill-opacity="1" /><path clip-path="url(#clip160)" d="M781.55 1517.37 Q777.939 1517.37 776.11 1520.93 Q774.305 1524.47 774.305 1531.6 Q774.305 1538.71 776.11 1542.27 Q777.939 1545.82 781.55 1545.82 Q785.184 1545.82 786.99 1542.27 Q788.819 1538.71 788.819 1531.6 Q788.819 1524.47 786.99 1520.93 Q785.184 1517.37 781.55 1517.37 M781.55 1513.66 Q787.36 1513.66 790.416 1518.27 Q793.495 1522.85 793.495 1531.6 Q793.495 1540.33 790.416 1544.94 Q787.36 1549.52 781.55 1549.52 Q775.74 1549.52 772.661 1544.94 Q769.606 1540.33 769.606 1531.6 Q769.606 1522.85 772.661 1518.27 Q775.74 1513.66 781.55 1513.66 Z" fill="#000000" fill-rule="nonzero" fill-opacity="1" /><path clip-path="url(#clip160)" d="M1224.4 1514.29 L1242.76 1514.29 L1242.76 1518.22 L1228.69 1518.22 L1228.69 1526.7 Q1229.7 1526.35 1230.72 1526.19 Q1231.74 1526 1232.76 1526 Q1238.55 1526 1241.93 1529.17 Q1245.31 1532.34 1245.31 1537.76 Q1245.31 1543.34 1241.83 1546.44 Q1238.36 1549.52 1232.04 1549.52 Q1229.87 1549.52 1227.6 1549.15 Q1225.35 1548.78 1222.94 1548.04 L1222.94 1543.34 Q1225.03 1544.47 1227.25 1545.03 Q1229.47 1545.58 1231.95 1545.58 Q1235.95 1545.58 1238.29 1543.48 Q1240.63 1541.37 1240.63 1537.76 Q1240.63 1534.15 1238.29 1532.04 Q1235.95 1529.94 1231.95 1529.94 Q1230.07 1529.94 1228.2 1530.35 Q1226.35 1530.77 1224.4 1531.65 L1224.4 1514.29 Z" fill="#000000" fill-rule="nonzero" fill-opacity="1" /><path clip-path="url(#clip160)" d="M1264.52 1517.37 Q1260.91 1517.37 1259.08 1520.93 Q1257.27 1524.47 1257.27 1531.6 Q1257.27 1538.71 1259.08 1542.27 Q1260.91 1545.82 1264.52 1545.82 Q1268.15 1545.82 1269.96 1542.27 Q1271.79 1538.71 1271.79 1531.6 Q1271.79 1524.47 1269.96 1520.93 Q1268.15 1517.37 1264.52 1517.37 M1264.52 1513.66 Q1270.33 1513.66 1273.38 1518.27 Q1276.46 1522.85 1276.46 1531.6 Q1276.46 1540.33 1273.38 1544.94 Q1270.33 1549.52 1264.52 1549.52 Q1258.71 1549.52 1255.63 1544.94 Q1252.57 1540.33 1252.57 1531.6 Q1252.57 1522.85 1255.63 1518.27 Q1258.71 1513.66 1264.52 1513.66 Z" fill="#000000" fill-rule="nonzero" fill-opacity="1" /><path clip-path="url(#clip160)" d="M1294.68 1517.37 Q1291.07 1517.37 1289.24 1520.93 Q1287.44 1524.47 1287.44 1531.6 Q1287.44 1538.71 1289.24 1542.27 Q1291.07 1545.82 1294.68 1545.82 Q1298.31 1545.82 1300.12 1542.27 Q1301.95 1538.71 1301.95 1531.6 Q1301.95 1524.47 1300.12 1520.93 Q1298.31 1517.37 1294.68 1517.37 M1294.68 1513.66 Q1300.49 1513.66 1303.55 1518.27 Q1306.62 1522.85 1306.62 1531.6 Q1306.62 1540.33 1303.55 1544.94 Q1300.49 1549.52 1294.68 1549.52 Q1288.87 1549.52 1285.79 1544.94 Q1282.74 1540.33 1282.74 1531.6 Q1282.74 1522.85 1285.79 1518.27 Q1288.87 1513.66 1294.68 1513.66 Z" fill="#000000" fill-rule="nonzero" fill-opacity="1" /><path clip-path="url(#clip160)" d="M1736.28 1514.29 L1758.51 1514.29 L1758.51 1516.28 L1745.96 1548.85 L1741.08 1548.85 L1752.88 1518.22 L1736.28 1518.22 L1736.28 1514.29 Z" fill="#000000" fill-rule="nonzero" fill-opacity="1" /><path clip-path="url(#clip160)" d="M1767.67 1514.29 L1786.03 1514.29 L1786.03 1518.22 L1771.95 1518.22 L1771.95 1526.7 Q1772.97 1526.35 1773.99 1526.19 Q1775.01 1526 1776.03 1526 Q1781.82 1526 1785.2 1529.17 Q1788.57 1532.34 1788.57 1537.76 Q1788.57 1543.34 1785.1 1546.44 Q1781.63 1549.52 1775.31 1549.52 Q1773.14 1549.52 1770.87 1549.15 Q1768.62 1548.78 1766.21 1548.04 L1766.21 1543.34 Q1768.3 1544.47 1770.52 1545.03 Q1772.74 1545.58 1775.22 1545.58 Q1779.22 1545.58 1781.56 1543.48 Q1783.9 1541.37 1783.9 1537.76 Q1783.9 1534.15 1781.56 1532.04 Q1779.22 1529.94 1775.22 1529.94 Q1773.34 1529.94 1771.47 1530.35 Q1769.62 1530.77 1767.67 1531.65 L1767.67 1514.29 Z" fill="#000000" fill-rule="nonzero" fill-opacity="1" /><path clip-path="url(#clip160)" d="M1807.79 1517.37 Q1804.18 1517.37 1802.35 1520.93 Q1800.54 1524.47 1800.54 1531.6 Q1800.54 1538.71 1802.35 1542.27 Q1804.18 1545.82 1807.79 1545.82 Q1811.42 1545.82 1813.23 1542.27 Q1815.06 1538.71 1815.06 1531.6 Q1815.06 1524.47 1813.23 1520.93 Q1811.42 1517.37 1807.79 1517.37 M1807.79 1513.66 Q1813.6 1513.66 1816.65 1518.27 Q1819.73 1522.85 1819.73 1531.6 Q1819.73 1540.33 1816.65 1544.94 Q1813.6 1549.52 1807.79 1549.52 Q1801.98 1549.52 1798.9 1544.94 Q1795.84 1540.33 1795.84 1531.6 Q1795.84 1522.85 1798.9 1518.27 Q1801.98 1513.66 1807.79 1513.66 Z" fill="#000000" fill-rule="nonzero" fill-opacity="1" /><path clip-path="url(#clip160)" d="M2235.76 1544.91 L2243.4 1544.91 L2243.4 1518.55 L2235.09 1520.21 L2235.09 1515.95 L2243.35 1514.29 L2248.02 1514.29 L2248.02 1544.91 L2255.66 1544.91 L2255.66 1548.85 L2235.76 1548.85 L2235.76 1544.91 Z" fill="#000000" fill-rule="nonzero" fill-opacity="1" /><path clip-path="url(#clip160)" d="M2275.11 1517.37 Q2271.5 1517.37 2269.67 1520.93 Q2267.86 1524.47 2267.86 1531.6 Q2267.86 1538.71 2269.67 1542.27 Q2271.5 1545.82 2275.11 1545.82 Q2278.74 1545.82 2280.55 1542.27 Q2282.38 1538.71 2282.38 1531.6 Q2282.38 1524.47 2280.55 1520.93 Q2278.74 1517.37 2275.11 1517.37 M2275.11 1513.66 Q2280.92 1513.66 2283.97 1518.27 Q2287.05 1522.85 2287.05 1531.6 Q2287.05 1540.33 2283.97 1544.94 Q2280.92 1549.52 2275.11 1549.52 Q2269.3 1549.52 2266.22 1544.94 Q2263.16 1540.33 2263.16 1531.6 Q2263.16 1522.85 2266.22 1518.27 Q2269.3 1513.66 2275.11 1513.66 Z" fill="#000000" fill-rule="nonzero" fill-opacity="1" /><path clip-path="url(#clip160)" d="M2305.27 1517.37 Q2301.66 1517.37 2299.83 1520.93 Q2298.02 1524.47 2298.02 1531.6 Q2298.02 1538.71 2299.83 1542.27 Q2301.66 1545.82 2305.27 1545.82 Q2308.9 1545.82 2310.71 1542.27 Q2312.54 1538.71 2312.54 1531.6 Q2312.54 1524.47 2310.71 1520.93 Q2308.9 1517.37 2305.27 1517.37 M2305.27 1513.66 Q2311.08 1513.66 2314.14 1518.27 Q2317.21 1522.85 2317.21 1531.6 Q2317.21 1540.33 2314.14 1544.94 Q2311.08 1549.52 2305.27 1549.52 Q2299.46 1549.52 2296.38 1544.94 Q2293.33 1540.33 2293.33 1531.6 Q2293.33 1522.85 2296.38 1518.27 Q2299.46 1513.66 2305.27 1513.66 Z" fill="#000000" fill-rule="nonzero" fill-opacity="1" /><path clip-path="url(#clip160)" d="M2335.43 1517.37 Q2331.82 1517.37 2329.99 1520.93 Q2328.19 1524.47 2328.19 1531.6 Q2328.19 1538.71 2329.99 1542.27 Q2331.82 1545.82 2335.43 1545.82 Q2339.07 1545.82 2340.87 1542.27 Q2342.7 1538.71 2342.7 1531.6 Q2342.7 1524.47 2340.87 1520.93 Q2339.07 1517.37 2335.43 1517.37 M2335.43 1513.66 Q2341.24 1513.66 2344.3 1518.27 Q2347.38 1522.85 2347.38 1531.6 Q2347.38 1540.33 2344.3 1544.94 Q2341.24 1549.52 2335.43 1549.52 Q2329.62 1549.52 2326.54 1544.94 Q2323.49 1540.33 2323.49 1531.6 Q2323.49 1522.85 2326.54 1518.27 Q2329.62 1513.66 2335.43 1513.66 Z" fill="#000000" fill-rule="nonzero" fill-opacity="1" /><polyline clip-path="url(#clip160)" style="stroke:#000000; stroke-linecap:round; stroke-linejoin:round; stroke-width:4; stroke-opacity:1; fill:none" points="178.867,1486.45 178.867,847.244 "/>
<polyline clip-path="url(#clip160)" style="stroke:#000000; stroke-linecap:round; stroke-linejoin:round; stroke-width:4; stroke-opacity:1; fill:none" points="178.867,1486.45 197.764,1486.45 "/>
<polyline clip-path="url(#clip160)" style="stroke:#000000; stroke-linecap:round; stroke-linejoin:round; stroke-width:4; stroke-opacity:1; fill:none" points="178.867,1326.65 197.764,1326.65 "/>
<polyline clip-path="url(#clip160)" style="stroke:#000000; stroke-linecap:round; stroke-linejoin:round; stroke-width:4; stroke-opacity:1; fill:none" points="178.867,1166.85 197.764,1166.85 "/>
<polyline clip-path="url(#clip160)" style="stroke:#000000; stroke-linecap:round; stroke-linejoin:round; stroke-width:4; stroke-opacity:1; fill:none" points="178.867,1007.05 197.764,1007.05 "/>
<polyline clip-path="url(#clip160)" style="stroke:#000000; stroke-linecap:round; stroke-linejoin:round; stroke-width:4; stroke-opacity:1; fill:none" points="178.867,847.244 197.764,847.244 "/>
<path clip-path="url(#clip160)" d="M50.9921 1486.9 L80.6679 1486.9 L80.6679 1490.83 L50.9921 1490.83 L50.9921 1486.9 Z" fill="#000000" fill-rule="nonzero" fill-opacity="1" /><path clip-path="url(#clip160)" d="M91.5706 1499.79 L99.2095 1499.79 L99.2095 1473.43 L90.8993 1475.09 L90.8993 1470.83 L99.1632 1469.17 L103.839 1469.17 L103.839 1499.79 L111.478 1499.79 L111.478 1503.73 L91.5706 1503.73 L91.5706 1499.79 Z" fill="#000000" fill-rule="nonzero" fill-opacity="1" /><path clip-path="url(#clip160)" d="M130.922 1472.25 Q127.311 1472.25 125.482 1475.81 Q123.677 1479.35 123.677 1486.48 Q123.677 1493.59 125.482 1497.15 Q127.311 1500.7 130.922 1500.7 Q134.556 1500.7 136.362 1497.15 Q138.191 1493.59 138.191 1486.48 Q138.191 1479.35 136.362 1475.81 Q134.556 1472.25 130.922 1472.25 M130.922 1468.54 Q136.732 1468.54 139.788 1473.15 Q142.867 1477.73 142.867 1486.48 Q142.867 1495.21 139.788 1499.82 Q136.732 1504.4 130.922 1504.4 Q125.112 1504.4 122.033 1499.82 Q118.978 1495.21 118.978 1486.48 Q118.978 1477.73 122.033 1473.15 Q125.112 1468.54 130.922 1468.54 Z" fill="#000000" fill-rule="nonzero" fill-opacity="1" /><path clip-path="url(#clip160)" d="M82.1494 1327.1 L111.825 1327.1 L111.825 1331.03 L82.1494 1331.03 L82.1494 1327.1 Z" fill="#000000" fill-rule="nonzero" fill-opacity="1" /><path clip-path="url(#clip160)" d="M121.964 1309.37 L140.32 1309.37 L140.32 1313.3 L126.246 1313.3 L126.246 1321.77 Q127.265 1321.43 128.283 1321.27 Q129.302 1321.08 130.32 1321.08 Q136.107 1321.08 139.487 1324.25 Q142.867 1327.42 142.867 1332.84 Q142.867 1338.42 139.394 1341.52 Q135.922 1344.6 129.603 1344.6 Q127.427 1344.6 125.158 1344.23 Q122.913 1343.86 120.506 1343.12 L120.506 1338.42 Q122.589 1339.55 124.811 1340.11 Q127.033 1340.66 129.51 1340.66 Q133.515 1340.66 135.853 1338.56 Q138.191 1336.45 138.191 1332.84 Q138.191 1329.23 135.853 1327.12 Q133.515 1325.01 129.51 1325.01 Q127.635 1325.01 125.76 1325.43 Q123.908 1325.85 121.964 1326.73 L121.964 1309.37 Z" fill="#000000" fill-rule="nonzero" fill-opacity="1" /><path clip-path="url(#clip160)" d="M130.922 1152.64 Q127.311 1152.64 125.482 1156.21 Q123.677 1159.75 123.677 1166.88 Q123.677 1173.99 125.482 1177.55 Q127.311 1181.09 130.922 1181.09 Q134.556 1181.09 136.362 1177.55 Q138.191 1173.99 138.191 1166.88 Q138.191 1159.75 136.362 1156.21 Q134.556 1152.64 130.922 1152.64 M130.922 1148.94 Q136.732 1148.94 139.788 1153.55 Q142.867 1158.13 142.867 1166.88 Q142.867 1175.61 139.788 1180.21 Q136.732 1184.8 130.922 1184.8 Q125.112 1184.8 122.033 1180.21 Q118.978 1175.61 118.978 1166.88 Q118.978 1158.13 122.033 1153.55 Q125.112 1148.94 130.922 1148.94 Z" fill="#000000" fill-rule="nonzero" fill-opacity="1" /><path clip-path="url(#clip160)" d="M121.964 989.765 L140.32 989.765 L140.32 993.7 L126.246 993.7 L126.246 1002.17 Q127.265 1001.83 128.283 1001.66 Q129.302 1001.48 130.32 1001.48 Q136.107 1001.48 139.487 1004.65 Q142.867 1007.82 142.867 1013.24 Q142.867 1018.82 139.394 1021.92 Q135.922 1025 129.603 1025 Q127.427 1025 125.158 1024.63 Q122.913 1024.26 120.506 1023.51 L120.506 1018.82 Q122.589 1019.95 124.811 1020.51 Q127.033 1021.06 129.51 1021.06 Q133.515 1021.06 135.853 1018.95 Q138.191 1016.85 138.191 1013.24 Q138.191 1009.63 135.853 1007.52 Q133.515 1005.41 129.51 1005.41 Q127.635 1005.41 125.76 1005.83 Q123.908 1006.25 121.964 1007.13 L121.964 989.765 Z" fill="#000000" fill-rule="nonzero" fill-opacity="1" /><path clip-path="url(#clip160)" d="M91.5706 860.589 L99.2095 860.589 L99.2095 834.223 L90.8993 835.89 L90.8993 831.631 L99.1632 829.964 L103.839 829.964 L103.839 860.589 L111.478 860.589 L111.478 864.524 L91.5706 864.524 L91.5706 860.589 Z" fill="#000000" fill-rule="nonzero" fill-opacity="1" /><path clip-path="url(#clip160)" d="M130.922 833.043 Q127.311 833.043 125.482 836.608 Q123.677 840.149 123.677 847.279 Q123.677 854.385 125.482 857.95 Q127.311 861.492 130.922 861.492 Q134.556 861.492 136.362 857.95 Q138.191 854.385 138.191 847.279 Q138.191 840.149 136.362 836.608 Q134.556 833.043 130.922 833.043 M130.922 829.339 Q136.732 829.339 139.788 833.946 Q142.867 838.529 142.867 847.279 Q142.867 856.006 139.788 860.612 Q136.732 865.195 130.922 865.195 Q125.112 865.195 122.033 860.612 Q118.978 856.006 118.978 847.279 Q118.978 838.529 122.033 833.946 Q125.112 829.339 130.922 829.339 Z" fill="#000000" fill-rule="nonzero" fill-opacity="1" /><polyline clip-path="url(#clip163)" style="stroke:#009af9; stroke-linecap:round; stroke-linejoin:round; stroke-width:4; stroke-opacity:1; fill:none" points="240.392,1134.89 242.445,1129.93 244.498,1200.88 246.55,1132.71 248.603,1114.86 250.656,1128.09 252.709,1144.39 254.762,1116.12 256.815,1202.96 258.868,1161.95 260.921,1192 262.974,1136.83 265.027,1257.95 267.079,1171.78 269.132,1149.91 271.185,1177.52 273.238,1163.02 275.291,1141.71 277.344,1132.4 279.397,1103.78 281.45,993.81 283.503,1350.22 285.555,1153.64 287.608,1201.03 289.661,1148.83 291.714,1150.12 293.767,1149.61 295.82,1178.42 297.873,1152.79 299.926,1167 301.979,1140.66 304.031,1099.62 306.084,999.057 308.137,1239.93 310.19,1172.75 312.243,1261.86 314.296,1121.82 316.349,1062.79 318.402,1036.29 320.455,1160.02 322.507,1140.91 324.56,1161.59 326.613,1170.83 328.666,1166.64 330.719,1167.11 332.772,1167.09 334.825,1123.76 336.878,1042.35 338.931,1251.81 340.984,1195.25 343.036,1119.98 345.089,1110.33 347.142,1118.4 349.195,1213.18 351.248,1133.08 353.301,1198.43 355.354,1189.07 357.407,1189.83 359.46,1202.44 361.512,1222.57 363.565,1211.05 365.618,1176.18 367.671,1167.57 369.724,1149.27 371.777,1189.31 373.83,1266.85 375.883,845.653 377.936,1199.64 379.988,1162.36 382.041,1152.37 384.094,1171.71 386.147,1166.79 388.2,1271.45 390.253,1145.63 392.306,1213.31 394.359,1118.08 396.412,974.37 398.464,1154.09 400.517,1153.12 402.57,1141.47 404.623,1138.28 406.676,1101.12 408.729,1164.2 410.782,1165.11 412.835,1160.33 414.888,1128.64 416.94,1264.09 418.993,1251.13 421.046,1217.74 423.099,1188.97 425.152,1126.64 427.205,1153.12 429.258,1187.9 431.311,1296.64 433.364,1167.34 435.417,1231.76 437.469,1120.78 439.522,1235.07 441.575,1136.41 443.628,1155.37 445.681,1153.78 447.734,1193.42 449.787,1180.1 451.84,1242.23 453.893,1210.36 455.945,1148.28 457.998,1169.37 460.051,1204.78 462.104,1132.69 464.157,1056.75 466.21,1193.46 468.263,1128.81 470.316,1169.26 472.369,1147.03 474.421,1174.96 476.474,1185.37 478.527,1154.51 480.58,1201.79 482.633,1140.44 484.686,1192.34 486.739,1212.74 488.792,1122.31 490.845,1167.62 492.897,1136.26 494.95,1144.33 497.003,1191.17 499.056,1178.12 501.109,1225.31 503.162,1136.83 505.215,1203.13 507.268,1208.49 509.321,1211.16 511.374,1165.9 513.426,1161.38 515.479,1158.59 517.532,1170.79 519.585,1170.11 521.638,1218.43 523.691,1172.15 525.744,1167.17 527.797,1138.79 529.85,1112.17 531.902,1211.24 533.955,1338.07 536.008,1541.74 538.061,1226.53 540.114,1168.24 542.167,1146.2 544.22,1288.23 546.273,1154.58 548.326,1169.54 550.378,1210.51 552.431,1119.58 554.484,1241.58 556.537,1199.14 558.59,1122.08 560.643,1194.93 562.696,1142.86 564.749,1115.42 566.802,1034.28 568.854,1177.31 570.907,1215.92 572.96,1172.5 575.013,1176.58 577.066,1110.65 579.119,1182.54 581.172,1182.44 583.225,1164.32 585.278,1188.9 587.331,1166.3 589.383,1229.41 591.436,1226.4 593.489,1215.15 595.542,1228.8 597.595,1142.65 599.648,1181.65 601.701,1166.11 603.754,1167.53 605.807,1201.44 607.859,1159.83 609.912,1166.66 611.965,1167.92 614.018,1168.67 616.071,1210.35 618.124,1151.58 620.177,1239.03 622.23,1234.53 624.283,1290.49 626.335,1379.63 628.388,1519.51 630.441,928.181 632.494,1380.63 634.547,978.659 636.6,1150.68 638.653,699.379 640.706,1263.71 642.759,1049.71 644.811,1122.79 646.864,1173.34 648.917,1204.35 650.97,1129.49 653.023,1147.02 655.076,1167.27 657.129,1138.35 659.182,1159.96 661.235,1164.62 663.288,1160.13 665.34,1102.17 667.393,1161.56 669.446,1197.21 671.499,1187.04 673.552,1152.87 675.605,1321.36 677.658,1527.55 679.711,1009.36 681.764,1327.17 683.816,1286.75 685.869,1003.24 687.922,994.291 689.975,1164.45 692.028,1163.56 694.081,1158.3 696.134,1139.55 698.187,1165.92 700.24,1231.27 702.292,1150.06 704.345,1263.64 706.398,1297.28 708.451,1097.41 710.504,1038.28 712.557,973.957 714.61,1078.58 716.663,1216.61 718.716,1124.94 720.768,1157.93 722.821,1240.96 724.874,1211.35 726.927,1116.89 728.98,1200.02 731.033,1212.77 733.086,1123.38 735.139,1204.74 737.192,1195.03 739.245,970.845 741.297,1033.03 743.35,732.921 745.403,1088.58 747.456,1188.96 749.509,1184.88 751.562,1174.22 753.615,1160.55 755.668,1172.02 757.721,1155.91 759.773,1147.27 761.826,1013.05 763.879,1200.16 765.932,1169.96 767.985,1068.75 770.038,1241.58 772.091,1223.1 774.144,949.074 776.197,1354.06 778.249,1420.34 780.302,743.879 782.355,1485.2 784.408,1027.67 786.461,1105.64 788.514,1282.86 790.567,1183.48 792.62,1213.87 794.673,1176.05 796.725,1169.35 798.778,1198.04 800.831,1193.72 802.884,1098.71 804.937,1219.7 806.99,1091.88 809.043,1174.56 811.096,1054.54 813.149,1152.8 815.202,1167.03 817.254,1163.08 819.307,1052.15 821.36,1243.33 823.413,1101.16 825.466,1266.81 827.519,1206.63 829.572,1104.92 831.625,1117.42 833.678,1156.98 835.73,1171.53 837.783,1175.64 839.836,1212.3 841.889,1147.44 843.942,1287.54 845.995,1687.01 848.048,1240.4 850.101,1077.85 852.154,968.875 854.206,1360.38 856.259,1070.55 858.312,1155.04 860.365,913.841 862.418,1124.52 864.471,1162.22 866.524,1159.46 868.577,1160.14 870.63,1014.79 872.682,1015 874.735,621.345 876.788,-1056.27 878.841,-5307.31 880.894,9294.36 882.947,2069.41 885,1831.92 887.053,1589.24 889.106,1227.24 891.159,-7879.64 893.211,14736 895.264,-23055.9 897.317,-10814.2 899.37,517.235 901.423,2627.29 903.476,12360.8 905.529,-5079.4 907.582,4417.11 909.635,2775.52 911.687,1190.76 913.74,75.3393 915.793,1232.23 917.846,1131.21 919.899,1159.79 921.952,1194.15 924.005,1071.21 926.058,1160.12 928.111,1167.84 930.163,1172.04 932.216,1157.29 934.269,1197.45 936.322,1356.09 938.375,1181.77 940.428,1178.22 942.481,1162.52 944.534,1172.36 946.587,1158.5 948.639,1154.9 950.692,1175.95 952.745,1177.23 954.798,1175.76 956.851,1181.27 958.904,1159.85 960.957,1173.85 963.01,1174.17 965.063,1165.27 967.116,1235.51 969.168,1250.05 971.221,1176.69 973.274,1187.95 975.327,1191.7 977.38,1167.7 979.433,1122.37 981.486,897.395 983.539,941.187 985.592,985.147 987.644,1421.85 989.697,1296.9 991.75,1116.17 993.803,1134.1 995.856,1131.01 997.909,1137.74 999.962,1178.25 1002.01,1196.66 1004.07,1159.8 1006.12,1163.99 1008.17,1210.96 1010.23,1060.04 1012.28,1401.84 1014.33,1173.76 1016.38,2423.99 1018.44,1925.12 1020.49,1318.88 1022.54,1361.02 1024.6,996.75 1026.65,1334.51 1028.7,1046.4 1030.76,1253.93 1032.81,1151.43 1034.86,1147.35 1036.91,1169.02 1038.97,1166.96 1041.02,1154 1043.07,1189.82 1045.13,1137.99 1047.18,1249.43 1049.23,1187.98 1051.28,1197.03 1053.34,1169.54 1055.39,1163.02 1057.44,1180.64 1059.5,1199.63 1061.55,1142.03 1063.6,1151.99 1065.65,1156.71 1067.71,1174.84 1069.76,1171.29 1071.81,1097.7 1073.87,1215.54 1075.92,1158.37 1077.97,1094.99 1080.02,942.685 1082.08,1213.61 1084.13,1013.35 1086.18,1160.91 1088.24,1183.72 1090.29,1189.85 1092.34,1124.79 1094.39,1194.9 1096.45,1064.62 1098.5,1218.95 1100.55,1153.12 1102.61,1164.32 1104.66,1131.19 1106.71,1193.39 1108.77,1201.76 1110.82,1262.45 1112.87,1200.19 1114.92,1187.58 1116.98,1160.48 1119.03,1212.18 1121.08,1396.89 1123.14,1184.01 1125.19,1239.23 1127.24,1149.78 1129.29,1153.31 1131.35,1034.79 1133.4,1172.27 1135.45,1150.92 1137.51,1185.18 1139.56,1168.63 1141.61,1198.84 1143.66,1209.46 1145.72,1139.52 1147.77,1170.31 1149.82,1166.45 1151.88,1163.64 1153.93,1152.54 1155.98,1130.71 1158.03,1135.08 1160.09,1180.93 1162.14,1159.2 1164.19,1185.57 1166.25,1089.14 1168.3,1257.43 1170.35,905.71 1172.4,1029.53 1174.46,1163.94 1176.51,1152.81 1178.56,1142.86 1180.62,1157.97 1182.67,1160.08 1184.72,1176 1186.77,1157.35 1188.83,1013.94 1190.88,1109.59 1192.93,1232.86 1194.99,1157.02 1197.04,1134.9 1199.09,1234.19 1201.15,1493.53 1203.2,1156.86 1205.25,1099.59 1207.3,1220.04 1209.36,984.792 1211.41,1154.1 1213.46,1183.87 1215.52,1157.92 1217.57,1166.43 1219.62,1163.69 1221.67,1222.48 1223.73,1182.6 1225.78,1210.62 1227.83,910.014 1229.89,2054.45 1231.94,2925.09 1233.99,862.409 1236.04,1267.93 1238.1,1176.3 1240.15,1152.9 1242.2,1143.32 1244.26,1134.55 1246.31,1183.01 1248.36,1159.99 1250.41,1148.67 1252.47,1190.31 1254.52,1191.3 1256.57,1216.25 1258.63,1136.28 1260.68,970.91 1262.73,1117.46 1264.78,1103.54 1266.84,1151.57 1268.89,1166.05 1270.94,1170.07 1273,1173.21 1275.05,1015.55 1277.1,1431.08 1279.16,839.782 1281.21,1799.88 1283.26,964.176 1285.31,1058.74 1287.37,1108.99 1289.42,1179.38 1291.47,1121.25 1293.53,1265.18 1295.58,1185.83 1297.63,1137.2 1299.68,1222.32 1301.74,1214.76 1303.79,1225.18 1305.84,1157.86 1307.9,1187.57 1309.95,1174.37 1312,1145.22 1314.05,1180.56 1316.11,1162.62 1318.16,1163.44 1320.21,1175.77 1322.27,1160.13 1324.32,1094.76 1326.37,1144.12 1328.42,1218.01 1330.48,1178.52 1332.53,1163.79 1334.58,1181.18 1336.64,1147.67 1338.69,1159.25 1340.74,1153.88 1342.79,1170.91 1344.85,1105.42 1346.9,1123.15 1348.95,1094.69 1351.01,1246.59 1353.06,1203.86 1355.11,1216.66 1357.16,1153.13 1359.22,1185.22 1361.27,1243.3 1363.32,1173.68 1365.38,1141.99 1367.43,1162.54 1369.48,1166.22 1371.54,1144.95 1373.59,1159.01 1375.64,1185.23 1377.69,1177.75 1379.75,1150.51 1381.8,1115.95 1383.85,1151.65 1385.91,1144.37 1387.96,1072.64 1390.01,1116.91 1392.06,1225.24 1394.12,1352.02 1396.17,997.608 1398.22,1079.29 1400.28,357.284 1402.33,1393.39 1404.38,1116.82 1406.43,1130.91 1408.49,1209.42 1410.54,1206.01 1412.59,1145.36 1414.65,1163.4 1416.7,1186.21 1418.75,1145.12 1420.8,1199.86 1422.86,1220.06 1424.91,1137.24 1426.96,1175.66 1429.02,1112.69 1431.07,1196.68 1433.12,1144.45 1435.17,1119.81 1437.23,1106.6 1439.28,1211.03 1441.33,1170.7 1443.39,1129.36 1445.44,1200.07 1447.49,1206.16 1449.55,966.166 1451.6,826.051 1453.65,1416 1455.7,1205.55 1457.76,1538.14 1459.81,1123.66 1461.86,1102.59 1463.92,1094.1 1465.97,1233.58 1468.02,1400.51 1470.07,1395.17 1472.13,1536.15 1474.18,1539.94 1476.23,901.027 1478.29,1212.54 1480.34,1185.37 1482.39,1140.28 1484.44,1155.32 1486.5,1168.12 1488.55,1159.77 1490.6,1246.72 1492.66,1117.74 1494.71,1258.29 1496.76,734.909 1498.81,915.238 1500.87,910.701 1502.92,1378.08 1504.97,1037.36 1507.03,1181.24 1509.08,1222.99 1511.13,1181.68 1513.18,1054 1515.24,1194.85 1517.29,1066.03 1519.34,1492.07 1521.4,1104.87 1523.45,933.584 1525.5,824.864 1527.55,803.002 1529.61,1182.31 1531.66,1167.17 1533.71,1085.31 1535.77,1158.98 1537.82,1166.11 1539.87,1161.71 1541.93,1162.68 1543.98,1156.47 1546.03,1197.35 1548.08,1120.7 1550.14,1263.16 1552.19,1201.13 1554.24,1220.78 1556.3,1190.02 1558.35,1149.71 1560.4,1208.68 1562.45,1196.82 1564.51,1154.96 1566.56,1166.97 1568.61,1163.08 1570.67,1179.6 1572.72,1244.59 1574.77,990.365 1576.82,1115.64 1578.88,1188.49 1580.93,1213.34 1582.98,1195.15 1585.04,1298.06 1587.09,1112.91 1589.14,1184.67 1591.19,1161.06 1593.25,1163.87 1595.3,1193.45 1597.35,1124.09 1599.41,1194.85 1601.46,1139.65 1603.51,1178.29 1605.56,1056.87 1607.62,1135.94 1609.67,1171.46 1611.72,1264.01 1613.78,1113.43 1615.83,1168.53 1617.88,1153.43 1619.94,1164.18 1621.99,1165.41 1624.04,1164.72 1626.09,1165.62 1628.15,1168.31 1630.2,1164.65 1632.25,1105.93 1634.31,1134.91 1636.36,1129.59 1638.41,1146.01 1640.46,1163.54 1642.52,1121.03 1644.57,1181.36 1646.62,1168.03 1648.68,1152.73 1650.73,1169.91 1652.78,1204.17 1654.83,1132.79 1656.89,1094.38 1658.94,1487.08 1660.99,1224.98 1663.05,1011.8 1665.1,1105.05 1667.15,1127.97 1669.2,1059.65 1671.26,1207.64 1673.31,1113.49 1675.36,1234.76 1677.42,1202.11 1679.47,1160.29 1681.52,1155.51 1683.57,1188.25 1685.63,1207.88 1687.68,1146.84 1689.73,1177.33 1691.79,1189.39 1693.84,1170.32 1695.89,1152.96 1697.94,1157.95 1700,1152.57 1702.05,1192.17 1704.1,1225.84 1706.16,1164.6 1708.21,1166.93 1710.26,1155.96 1712.32,1176.06 1714.37,1153.77 1716.42,1062.77 1718.47,1240.91 1720.53,1038.28 1722.58,941.046 1724.63,1173.71 1726.69,1157.16 1728.74,1173.4 1730.79,1176.94 1732.84,1108.62 1734.9,1162.15 1736.95,1164.25 1739,1173.51 1741.06,1015.98 1743.11,1148.83 1745.16,1151.11 1747.21,1190.29 1749.27,1189.85 1751.32,1149.84 1753.37,1245.15 1755.43,1217.43 1757.48,1418.66 1759.53,1145.92 1761.58,1201.59 1763.64,1128.76 1765.69,1270.37 1767.74,1252.43 1769.8,1529.65 1771.85,1207.81 1773.9,1188.84 1775.95,1152.21 1778.01,1120.79 1780.06,1176.37 1782.11,1509.51 1784.17,877.174 1786.22,1482.52 1788.27,1381.38 1790.33,1409.37 1792.38,1076.04 1794.43,1168.32 1796.48,1034.14 1798.54,934.793 1800.59,1069.77 1802.64,1147.76 1804.7,1287.71 1806.75,1261.59 1808.8,1247.61 1810.85,1163.49 1812.91,1170.58 1814.96,875.425 1817.01,1164.86 1819.07,1128.34 1821.12,1011.55 1823.17,1271.57 1825.22,1528.09 1827.28,954.599 1829.33,1099.74 1831.38,1203.28 1833.44,1186.58 1835.49,1169.35 1837.54,1175.84 1839.59,1171.26 1841.65,1202.95 1843.7,1151.68 1845.75,1231.94 1847.81,1117.65 1849.86,1196.82 1851.91,1145.03 1853.96,1162.01 1856.02,1193.48 1858.07,1154.53 1860.12,1205.24 1862.18,1213.1 1864.23,1168.11 1866.28,1170.8 1868.34,1150.1 1870.39,1152.9 1872.44,1152.2 1874.49,1182.23 1876.55,1175.49 1878.6,1221.08 1880.65,1208.58 1882.71,1282.26 1884.76,1199.15 1886.81,1213.85 1888.86,1195.63 1890.92,1188.76 1892.97,1224.95 1895.02,1232.39 1897.08,1010.15 1899.13,1194.29 1901.18,1252.46 1903.23,1197.22 1905.29,1213.67 1907.34,1127.06 1909.39,1252.31 1911.45,1213.1 1913.5,1111.72 1915.55,1164.92 1917.6,1177.26 1919.66,1183.7 1921.71,1100.87 1923.76,1154.15 1925.82,1177.42 1927.87,1166.9 1929.92,1206.81 1931.97,1131.28 1934.03,1171.21 1936.08,1163.58 1938.13,1204.24 1940.19,1225.83 1942.24,1064.3 1944.29,1195.48 1946.34,1137.93 1948.4,1112.22 1950.45,1168.84 1952.5,1145.89 1954.56,1146.51 1956.61,1145.21 1958.66,1263.31 1960.72,1302.26 1962.77,1213.51 1964.82,1096.75 1966.87,1173.3 1968.93,1142.81 1970.98,1156.52 1973.03,1163 1975.09,1161.63 1977.14,1200.64 1979.19,1120.26 1981.24,1172.78 1983.3,1199.43 1985.35,1158.85 1987.4,1167.41 1989.46,1225.28 1991.51,1202.98 1993.56,1093.21 1995.61,1153.85 1997.67,1111.37 1999.72,1146.51 2001.77,1144.25 2003.83,1199.72 2005.88,1148.39 2007.93,1244.45 2009.98,1191.12 2012.04,1166.07 2014.09,1117.23 2016.14,1172.44 2018.2,1171.85 2020.25,1281.62 2022.3,953.687 2024.35,1321.95 2026.41,1149.92 2028.46,1145.1 2030.51,1192.85 2032.57,1144.83 2034.62,1130.21 2036.67,1114.86 2038.73,1147.65 2040.78,1147.18 2042.83,1174.32 2044.88,1213.39 2046.94,1175.85 2048.99,1100.8 2051.04,1193.06 2053.1,1047.99 2055.15,1193.91 2057.2,1143.93 2059.25,1093.26 2061.31,1168.32 2063.36,1197.82 2065.41,1157.08 2067.47,1177.29 2069.52,1188.72 2071.57,1129.23 2073.62,1143.35 2075.68,1145.18 2077.73,1140.72 2079.78,1159.01 2081.84,1109.21 2083.89,1192.23 2085.94,1184.11 2087.99,1192.32 2090.05,1079.22 2092.1,1207.85 2094.15,1168.28 2096.21,1154.63 2098.26,1092.73 2100.31,1062.63 2102.36,1181.1 2104.42,1165.01 2106.47,1146.91 2108.52,1154.72 2110.58,1193.75 2112.63,1107.25 2114.68,1072 2116.73,2069.97 2118.79,1948.8 2120.84,2448.03 2122.89,2279.65 2124.95,598.903 2127,1240.22 2129.05,950.59 2131.11,1231.37 2133.16,1160.56 2135.21,1190.48 2137.26,1131.24 2139.32,1165.19 2141.37,1224.95 2143.42,1432.67 2145.48,1079.43 2147.53,1110.93 2149.58,1099.38 2151.63,1282.58 2153.69,1450.21 2155.74,998.472 2157.79,1167.23 2159.85,1027.78 2161.9,1108.13 2163.95,1164.19 2166,1130.44 2168.06,922.116 2170.11,686.749 2172.16,104.103 2174.22,604.089 2176.27,1458.29 2178.32,1309.54 2180.37,1103.17 2182.43,1309.25 2184.48,1137.34 2186.53,1195.89 2188.59,1166.71 2190.64,1194.39 2192.69,1141.66 2194.74,1179.89 2196.8,1136.44 2198.85,1260.76 2200.9,1055.97 2202.96,1234.77 2205.01,1179.22 2207.06,1131.12 2209.12,1181.39 2211.17,1154.86 2213.22,1151.61 2215.27,1177.42 2217.33,1161.68 2219.38,1172.55 2221.43,1160.51 2223.49,1117.07 2225.54,1338.54 2227.59,1274.09 2229.64,1138.47 2231.7,1155.05 2233.75,1086.33 2235.8,1090.01 2237.86,1110.76 2239.91,1157.43 2241.96,1170.52 2244.01,1171.19 2246.07,1170.6 2248.12,1167 2250.17,1161.16 2252.23,1166.71 2254.28,1149.62 2256.33,1148.88 2258.38,1178.6 2260.44,842.325 2262.49,1003.24 2264.54,835.268 2266.6,1076.45 2268.65,1139.33 2270.7,1142.92 2272.75,1181.96 2274.81,1231.17 2276.86,1140.92 2278.91,1151.51 2280.97,1181.33 2283.02,1184.69 2285.07,1226.89 2287.12,1146.88 2289.18,1198.6 2291.23,1179.55 "/>
<path clip-path="url(#clip160)" d="M251.33 1465.14 L588.926 1465.14 L588.926 1361.46 L251.33 1361.46  Z" fill="#ffffff" fill-rule="evenodd" fill-opacity="1"/>
<polyline clip-path="url(#clip160)" style="stroke:#000000; stroke-linecap:round; stroke-linejoin:round; stroke-width:4; stroke-opacity:1; fill:none" points="251.33,1465.14 588.926,1465.14 588.926,1361.46 251.33,1361.46 251.33,1465.14 "/>
<polyline clip-path="url(#clip160)" style="stroke:#009af9; stroke-linecap:round; stroke-linejoin:round; stroke-width:4; stroke-opacity:1; fill:none" points="275.484,1413.3 420.41,1413.3 "/>
<path clip-path="url(#clip160)" d="M470.12 1425.65 L470.12 1416.37 L462.481 1416.37 L462.481 1412.53 L474.749 1412.53 L474.749 1427.36 Q472.041 1429.28 468.777 1430.28 Q465.513 1431.25 461.809 1431.25 Q453.708 1431.25 449.124 1426.53 Q444.564 1421.78 444.564 1413.34 Q444.564 1404.86 449.124 1400.14 Q453.708 1395.4 461.809 1395.4 Q465.189 1395.4 468.221 1396.23 Q471.277 1397.06 473.846 1398.68 L473.846 1403.66 Q471.254 1401.46 468.337 1400.35 Q465.421 1399.24 462.203 1399.24 Q455.86 1399.24 452.666 1402.78 Q449.495 1406.32 449.495 1413.34 Q449.495 1420.33 452.666 1423.87 Q455.86 1427.41 462.203 1427.41 Q464.68 1427.41 466.624 1426.99 Q468.569 1426.55 470.12 1425.65 Z" fill="#000000" fill-rule="nonzero" fill-opacity="1" /><path clip-path="url(#clip160)" d="M487.967 1399.86 L487.967 1412.85 L493.846 1412.85 Q497.11 1412.85 498.893 1411.16 Q500.675 1409.47 500.675 1406.35 Q500.675 1403.24 498.893 1401.55 Q497.11 1399.86 493.846 1399.86 L487.967 1399.86 M483.291 1396.02 L493.846 1396.02 Q499.657 1396.02 502.619 1398.66 Q505.606 1401.28 505.606 1406.35 Q505.606 1411.46 502.619 1414.08 Q499.657 1416.69 493.846 1416.69 L487.967 1416.69 L487.967 1430.58 L483.291 1430.58 L483.291 1396.02 Z" fill="#000000" fill-rule="nonzero" fill-opacity="1" /><path clip-path="url(#clip160)" d="M532.596 1397.16 L532.596 1401.72 Q529.934 1400.44 527.573 1399.82 Q525.212 1399.19 523.013 1399.19 Q519.193 1399.19 517.11 1400.67 Q515.05 1402.16 515.05 1404.89 Q515.05 1407.18 516.416 1408.36 Q517.805 1409.52 521.647 1410.23 L524.471 1410.81 Q529.703 1411.81 532.179 1414.33 Q534.679 1416.83 534.679 1421.04 Q534.679 1426.07 531.3 1428.66 Q527.943 1431.25 521.439 1431.25 Q518.985 1431.25 516.207 1430.7 Q513.453 1430.14 510.49 1429.05 L510.49 1424.24 Q513.337 1425.84 516.068 1426.65 Q518.8 1427.46 521.439 1427.46 Q525.443 1427.46 527.619 1425.88 Q529.795 1424.31 529.795 1421.39 Q529.795 1418.85 528.221 1417.41 Q526.67 1415.97 523.105 1415.26 L520.258 1414.7 Q515.027 1413.66 512.689 1411.44 Q510.351 1409.22 510.351 1405.26 Q510.351 1400.67 513.568 1398.03 Q516.809 1395.4 522.48 1395.4 Q524.911 1395.4 527.434 1395.84 Q529.957 1396.28 532.596 1397.16 Z" fill="#000000" fill-rule="nonzero" fill-opacity="1" /><path clip-path="url(#clip160)" d="M562.689 1397.16 L562.689 1401.72 Q560.027 1400.44 557.665 1399.82 Q555.304 1399.19 553.105 1399.19 Q549.286 1399.19 547.203 1400.67 Q545.142 1402.16 545.142 1404.89 Q545.142 1407.18 546.508 1408.36 Q547.897 1409.52 551.74 1410.23 L554.564 1410.81 Q559.795 1411.81 562.272 1414.33 Q564.772 1416.83 564.772 1421.04 Q564.772 1426.07 561.392 1428.66 Q558.036 1431.25 551.531 1431.25 Q549.078 1431.25 546.3 1430.7 Q543.545 1430.14 540.582 1429.05 L540.582 1424.24 Q543.429 1425.84 546.161 1426.65 Q548.892 1427.46 551.531 1427.46 Q555.536 1427.46 557.712 1425.88 Q559.888 1424.31 559.888 1421.39 Q559.888 1418.85 558.314 1417.41 Q556.763 1415.97 553.198 1415.26 L550.351 1414.7 Q545.119 1413.66 542.781 1411.44 Q540.443 1409.22 540.443 1405.26 Q540.443 1400.67 543.661 1398.03 Q546.902 1395.4 552.573 1395.4 Q555.003 1395.4 557.527 1395.84 Q560.05 1396.28 562.689 1397.16 Z" fill="#000000" fill-rule="nonzero" fill-opacity="1" /></svg>
