<?xml version="1.0" encoding="utf-8"?>
<svg xmlns="http://www.w3.org/2000/svg" xmlns:xlink="http://www.w3.org/1999/xlink" width="600" height="400" viewBox="0 0 2400 1600">
<defs>
  <clipPath id="clip320">
    <rect x="0" y="0" width="2400" height="1600"/>
  </clipPath>
</defs>
<path clip-path="url(#clip320)" d="M0 1600 L2400 1600 L2400 0 L0 0  Z" fill="#ffffff" fill-rule="evenodd" fill-opacity="1"/>
<defs>
  <clipPath id="clip321">
    <rect x="242" y="47" width="2112" height="1377"/>
  </clipPath>
</defs>
<path clip-path="url(#clip320)" d="M178.867 686.448 L2352.76 686.448 L2352.76 47.2441 L178.867 47.2441  Z" fill="#ffffff" fill-rule="evenodd" fill-opacity="1"/>
<defs>
  <clipPath id="clip322">
    <rect x="178" y="47" width="2175" height="640"/>
  </clipPath>
</defs>
<polyline clip-path="url(#clip322)" style="stroke:#000000; stroke-linecap:round; stroke-linejoin:round; stroke-width:2; stroke-opacity:0.1; fill:none" points="238.339,686.448 238.339,47.2441 "/>
<polyline clip-path="url(#clip322)" style="stroke:#000000; stroke-linecap:round; stroke-linejoin:round; stroke-width:2; stroke-opacity:0.1; fill:none" points="751.562,686.448 751.562,47.2441 "/>
<polyline clip-path="url(#clip322)" style="stroke:#000000; stroke-linecap:round; stroke-linejoin:round; stroke-width:2; stroke-opacity:0.1; fill:none" points="1264.78,686.448 1264.78,47.2441 "/>
<polyline clip-path="url(#clip322)" style="stroke:#000000; stroke-linecap:round; stroke-linejoin:round; stroke-width:2; stroke-opacity:0.1; fill:none" points="1778.01,686.448 1778.01,47.2441 "/>
<polyline clip-path="url(#clip322)" style="stroke:#000000; stroke-linecap:round; stroke-linejoin:round; stroke-width:2; stroke-opacity:0.1; fill:none" points="2291.23,686.448 2291.23,47.2441 "/>
<polyline clip-path="url(#clip322)" style="stroke:#000000; stroke-linecap:round; stroke-linejoin:round; stroke-width:2; stroke-opacity:0.1; fill:none" points="178.867,686.448 2352.76,686.448 "/>
<polyline clip-path="url(#clip322)" style="stroke:#000000; stroke-linecap:round; stroke-linejoin:round; stroke-width:2; stroke-opacity:0.1; fill:none" points="178.867,526.647 2352.76,526.647 "/>
<polyline clip-path="url(#clip322)" style="stroke:#000000; stroke-linecap:round; stroke-linejoin:round; stroke-width:2; stroke-opacity:0.1; fill:none" points="178.867,366.846 2352.76,366.846 "/>
<polyline clip-path="url(#clip322)" style="stroke:#000000; stroke-linecap:round; stroke-linejoin:round; stroke-width:2; stroke-opacity:0.1; fill:none" points="178.867,207.045 2352.76,207.045 "/>
<polyline clip-path="url(#clip322)" style="stroke:#000000; stroke-linecap:round; stroke-linejoin:round; stroke-width:2; stroke-opacity:0.1; fill:none" points="178.867,47.2441 2352.76,47.2441 "/>
<polyline clip-path="url(#clip320)" style="stroke:#000000; stroke-linecap:round; stroke-linejoin:round; stroke-width:4; stroke-opacity:1; fill:none" points="178.867,686.448 2352.76,686.448 "/>
<polyline clip-path="url(#clip320)" style="stroke:#000000; stroke-linecap:round; stroke-linejoin:round; stroke-width:4; stroke-opacity:1; fill:none" points="238.339,686.448 238.339,667.55 "/>
<polyline clip-path="url(#clip320)" style="stroke:#000000; stroke-linecap:round; stroke-linejoin:round; stroke-width:4; stroke-opacity:1; fill:none" points="751.562,686.448 751.562,667.55 "/>
<polyline clip-path="url(#clip320)" style="stroke:#000000; stroke-linecap:round; stroke-linejoin:round; stroke-width:4; stroke-opacity:1; fill:none" points="1264.78,686.448 1264.78,667.55 "/>
<polyline clip-path="url(#clip320)" style="stroke:#000000; stroke-linecap:round; stroke-linejoin:round; stroke-width:4; stroke-opacity:1; fill:none" points="1778.01,686.448 1778.01,667.55 "/>
<polyline clip-path="url(#clip320)" style="stroke:#000000; stroke-linecap:round; stroke-linejoin:round; stroke-width:4; stroke-opacity:1; fill:none" points="2291.23,686.448 2291.23,667.55 "/>
<path clip-path="url(#clip320)" d="M238.339 717.367 Q234.728 717.367 232.899 720.931 Q231.094 724.473 231.094 731.603 Q231.094 738.709 232.899 742.274 Q234.728 745.815 238.339 745.815 Q241.973 745.815 243.779 742.274 Q245.607 738.709 245.607 731.603 Q245.607 724.473 243.779 720.931 Q241.973 717.367 238.339 717.367 M238.339 713.663 Q244.149 713.663 247.205 718.269 Q250.283 722.853 250.283 731.603 Q250.283 740.329 247.205 744.936 Q244.149 749.519 238.339 749.519 Q232.529 749.519 229.45 744.936 Q226.395 740.329 226.395 731.603 Q226.395 722.853 229.45 718.269 Q232.529 713.663 238.339 713.663 Z" fill="#000000" fill-rule="nonzero" fill-opacity="1" /><path clip-path="url(#clip320)" d="M715.254 744.913 L731.574 744.913 L731.574 748.848 L709.629 748.848 L709.629 744.913 Q712.291 742.158 716.875 737.528 Q721.481 732.876 722.662 731.533 Q724.907 729.01 725.787 727.274 Q726.689 725.515 726.689 723.825 Q726.689 721.07 724.745 719.334 Q722.824 717.598 719.722 717.598 Q717.523 717.598 715.069 718.362 Q712.638 719.126 709.861 720.677 L709.861 715.955 Q712.685 714.82 715.138 714.242 Q717.592 713.663 719.629 713.663 Q725 713.663 728.194 716.348 Q731.388 719.033 731.388 723.524 Q731.388 725.654 730.578 727.575 Q729.791 729.473 727.685 732.066 Q727.106 732.737 724.004 735.954 Q720.902 739.149 715.254 744.913 Z" fill="#000000" fill-rule="nonzero" fill-opacity="1" /><path clip-path="url(#clip320)" d="M741.435 714.288 L759.791 714.288 L759.791 718.223 L745.717 718.223 L745.717 726.695 Q746.736 726.348 747.754 726.186 Q748.773 726.001 749.791 726.001 Q755.578 726.001 758.958 729.172 Q762.337 732.343 762.337 737.76 Q762.337 743.339 758.865 746.44 Q755.393 749.519 749.073 749.519 Q746.898 749.519 744.629 749.149 Q742.384 748.778 739.976 748.038 L739.976 743.339 Q742.06 744.473 744.282 745.028 Q746.504 745.584 748.981 745.584 Q752.985 745.584 755.323 743.478 Q757.661 741.371 757.661 737.76 Q757.661 734.149 755.323 732.042 Q752.985 729.936 748.981 729.936 Q747.106 729.936 745.231 730.353 Q743.379 730.769 741.435 731.649 L741.435 714.288 Z" fill="#000000" fill-rule="nonzero" fill-opacity="1" /><path clip-path="url(#clip320)" d="M781.55 717.367 Q777.939 717.367 776.11 720.931 Q774.305 724.473 774.305 731.603 Q774.305 738.709 776.11 742.274 Q777.939 745.815 781.55 745.815 Q785.184 745.815 786.99 742.274 Q788.819 738.709 788.819 731.603 Q788.819 724.473 786.99 720.931 Q785.184 717.367 781.55 717.367 M781.55 713.663 Q787.36 713.663 790.416 718.269 Q793.495 722.853 793.495 731.603 Q793.495 740.329 790.416 744.936 Q787.36 749.519 781.55 749.519 Q775.74 749.519 772.661 744.936 Q769.606 740.329 769.606 731.603 Q769.606 722.853 772.661 718.269 Q775.74 713.663 781.55 713.663 Z" fill="#000000" fill-rule="nonzero" fill-opacity="1" /><path clip-path="url(#clip320)" d="M1224.4 714.288 L1242.76 714.288 L1242.76 718.223 L1228.69 718.223 L1228.69 726.695 Q1229.7 726.348 1230.72 726.186 Q1231.74 726.001 1232.76 726.001 Q1238.55 726.001 1241.93 729.172 Q1245.31 732.343 1245.31 737.76 Q1245.31 743.339 1241.83 746.44 Q1238.36 749.519 1232.04 749.519 Q1229.87 749.519 1227.6 749.149 Q1225.35 748.778 1222.94 748.038 L1222.94 743.339 Q1225.03 744.473 1227.25 745.028 Q1229.47 745.584 1231.95 745.584 Q1235.95 745.584 1238.29 743.478 Q1240.63 741.371 1240.63 737.76 Q1240.63 734.149 1238.29 732.042 Q1235.95 729.936 1231.95 729.936 Q1230.07 729.936 1228.2 730.353 Q1226.35 730.769 1224.4 731.649 L1224.4 714.288 Z" fill="#000000" fill-rule="nonzero" fill-opacity="1" /><path clip-path="url(#clip320)" d="M1264.52 717.367 Q1260.91 717.367 1259.08 720.931 Q1257.27 724.473 1257.27 731.603 Q1257.27 738.709 1259.08 742.274 Q1260.91 745.815 1264.52 745.815 Q1268.15 745.815 1269.96 742.274 Q1271.79 738.709 1271.79 731.603 Q1271.79 724.473 1269.96 720.931 Q1268.15 717.367 1264.52 717.367 M1264.52 713.663 Q1270.33 713.663 1273.38 718.269 Q1276.46 722.853 1276.46 731.603 Q1276.46 740.329 1273.38 744.936 Q1270.33 749.519 1264.52 749.519 Q1258.71 749.519 1255.63 744.936 Q1252.57 740.329 1252.57 731.603 Q1252.57 722.853 1255.63 718.269 Q1258.71 713.663 1264.52 713.663 Z" fill="#000000" fill-rule="nonzero" fill-opacity="1" /><path clip-path="url(#clip320)" d="M1294.68 717.367 Q1291.07 717.367 1289.24 720.931 Q1287.44 724.473 1287.44 731.603 Q1287.44 738.709 1289.24 742.274 Q1291.07 745.815 1294.68 745.815 Q1298.31 745.815 1300.12 742.274 Q1301.95 738.709 1301.95 731.603 Q1301.95 724.473 1300.12 720.931 Q1298.31 717.367 1294.68 717.367 M1294.68 713.663 Q1300.49 713.663 1303.55 718.269 Q1306.62 722.853 1306.62 731.603 Q1306.62 740.329 1303.55 744.936 Q1300.49 749.519 1294.68 749.519 Q1288.87 749.519 1285.79 744.936 Q1282.74 740.329 1282.74 731.603 Q1282.74 722.853 1285.79 718.269 Q1288.87 713.663 1294.68 713.663 Z" fill="#000000" fill-rule="nonzero" fill-opacity="1" /><path clip-path="url(#clip320)" d="M1736.28 714.288 L1758.51 714.288 L1758.51 716.279 L1745.96 748.848 L1741.08 748.848 L1752.88 718.223 L1736.28 718.223 L1736.28 714.288 Z" fill="#000000" fill-rule="nonzero" fill-opacity="1" /><path clip-path="url(#clip320)" d="M1767.67 714.288 L1786.03 714.288 L1786.03 718.223 L1771.95 718.223 L1771.95 726.695 Q1772.97 726.348 1773.99 726.186 Q1775.01 726.001 1776.03 726.001 Q1781.82 726.001 1785.2 729.172 Q1788.57 732.343 1788.57 737.76 Q1788.57 743.339 1785.1 746.44 Q1781.63 749.519 1775.31 749.519 Q1773.14 749.519 1770.87 749.149 Q1768.62 748.778 1766.21 748.038 L1766.21 743.339 Q1768.3 744.473 1770.52 745.028 Q1772.74 745.584 1775.22 745.584 Q1779.22 745.584 1781.56 743.478 Q1783.9 741.371 1783.9 737.76 Q1783.9 734.149 1781.56 732.042 Q1779.22 729.936 1775.22 729.936 Q1773.34 729.936 1771.47 730.353 Q1769.62 730.769 1767.67 731.649 L1767.67 714.288 Z" fill="#000000" fill-rule="nonzero" fill-opacity="1" /><path clip-path="url(#clip320)" d="M1807.79 717.367 Q1804.18 717.367 1802.35 720.931 Q1800.54 724.473 1800.54 731.603 Q1800.54 738.709 1802.35 742.274 Q1804.18 745.815 1807.79 745.815 Q1811.42 745.815 1813.23 742.274 Q1815.06 738.709 1815.06 731.603 Q1815.06 724.473 1813.23 720.931 Q1811.42 717.367 1807.79 717.367 M1807.79 713.663 Q1813.6 713.663 1816.65 718.269 Q1819.73 722.853 1819.73 731.603 Q1819.73 740.329 1816.65 744.936 Q1813.6 749.519 1807.79 749.519 Q1801.98 749.519 1798.9 744.936 Q1795.84 740.329 1795.84 731.603 Q1795.84 722.853 1798.9 718.269 Q1801.98 713.663 1807.79 713.663 Z" fill="#000000" fill-rule="nonzero" fill-opacity="1" /><path clip-path="url(#clip320)" d="M2235.76 744.913 L2243.4 744.913 L2243.4 718.547 L2235.09 720.214 L2235.09 715.955 L2243.35 714.288 L2248.02 714.288 L2248.02 744.913 L2255.66 744.913 L2255.66 748.848 L2235.76 748.848 L2235.76 744.913 Z" fill="#000000" fill-rule="nonzero" fill-opacity="1" /><path clip-path="url(#clip320)" d="M2275.11 717.367 Q2271.5 717.367 2269.67 720.931 Q2267.86 724.473 2267.86 731.603 Q2267.86 738.709 2269.67 742.274 Q2271.5 745.815 2275.11 745.815 Q2278.74 745.815 2280.55 742.274 Q2282.38 738.709 2282.38 731.603 Q2282.38 724.473 2280.55 720.931 Q2278.74 717.367 2275.11 717.367 M2275.11 713.663 Q2280.92 713.663 2283.97 718.269 Q2287.05 722.853 2287.05 731.603 Q2287.05 740.329 2283.97 744.936 Q2280.92 749.519 2275.11 749.519 Q2269.3 749.519 2266.22 744.936 Q2263.16 740.329 2263.16 731.603 Q2263.16 722.853 2266.22 718.269 Q2269.3 713.663 2275.11 713.663 Z" fill="#000000" fill-rule="nonzero" fill-opacity="1" /><path clip-path="url(#clip320)" d="M2305.27 717.367 Q2301.66 717.367 2299.83 720.931 Q2298.02 724.473 2298.02 731.603 Q2298.02 738.709 2299.83 742.274 Q2301.66 745.815 2305.27 745.815 Q2308.9 745.815 2310.71 742.274 Q2312.54 738.709 2312.54 731.603 Q2312.54 724.473 2310.71 720.931 Q2308.9 717.367 2305.27 717.367 M2305.27 713.663 Q2311.08 713.663 2314.14 718.269 Q2317.21 722.853 2317.21 731.603 Q2317.21 740.329 2314.14 744.936 Q2311.08 749.519 2305.27 749.519 Q2299.46 749.519 2296.38 744.936 Q2293.33 740.329 2293.33 731.603 Q2293.33 722.853 2296.38 718.269 Q2299.46 713.663 2305.27 713.663 Z" fill="#000000" fill-rule="nonzero" fill-opacity="1" /><path clip-path="url(#clip320)" d="M2335.43 717.367 Q2331.82 717.367 2329.99 720.931 Q2328.19 724.473 2328.19 731.603 Q2328.19 738.709 2329.99 742.274 Q2331.82 745.815 2335.43 745.815 Q2339.07 745.815 2340.87 742.274 Q2342.7 738.709 2342.7 731.603 Q2342.7 724.473 2340.87 720.931 Q2339.07 717.367 2335.43 717.367 M2335.43 713.663 Q2341.24 713.663 2344.3 718.269 Q2347.38 722.853 2347.38 731.603 Q2347.38 740.329 2344.3 744.936 Q2341.24 749.519 2335.43 749.519 Q2329.62 749.519 2326.54 744.936 Q2323.49 740.329 2323.49 731.603 Q2323.49 722.853 2326.54 718.269 Q2329.62 713.663 2335.43 713.663 Z" fill="#000000" fill-rule="nonzero" fill-opacity="1" /><polyline clip-path="url(#clip320)" style="stroke:#000000; stroke-linecap:round; stroke-linejoin:round; stroke-width:4; stroke-opacity:1; fill:none" points="178.867,686.448 178.867,47.2441 "/>
<polyline clip-path="url(#clip320)" style="stroke:#000000; stroke-linecap:round; stroke-linejoin:round; stroke-width:4; stroke-opacity:1; fill:none" points="178.867,686.448 197.764,686.448 "/>
<polyline clip-path="url(#clip320)" style="stroke:#000000; stroke-linecap:round; stroke-linejoin:round; stroke-width:4; stroke-opacity:1; fill:none" points="178.867,526.647 197.764,526.647 "/>
<polyline clip-path="url(#clip320)" style="stroke:#000000; stroke-linecap:round; stroke-linejoin:round; stroke-width:4; stroke-opacity:1; fill:none" points="178.867,366.846 197.764,366.846 "/>
<polyline clip-path="url(#clip320)" style="stroke:#000000; stroke-linecap:round; stroke-linejoin:round; stroke-width:4; stroke-opacity:1; fill:none" points="178.867,207.045 197.764,207.045 "/>
<polyline clip-path="url(#clip320)" style="stroke:#000000; stroke-linecap:round; stroke-linejoin:round; stroke-width:4; stroke-opacity:1; fill:none" points="178.867,47.2441 197.764,47.2441 "/>
<path clip-path="url(#clip320)" d="M50.9921 686.899 L80.6679 686.899 L80.6679 690.834 L50.9921 690.834 L50.9921 686.899 Z" fill="#000000" fill-rule="nonzero" fill-opacity="1" /><path clip-path="url(#clip320)" d="M91.5706 699.793 L99.2095 699.793 L99.2095 673.427 L90.8993 675.094 L90.8993 670.835 L99.1632 669.168 L103.839 669.168 L103.839 699.793 L111.478 699.793 L111.478 703.728 L91.5706 703.728 L91.5706 699.793 Z" fill="#000000" fill-rule="nonzero" fill-opacity="1" /><path clip-path="url(#clip320)" d="M130.922 672.247 Q127.311 672.247 125.482 675.811 Q123.677 679.353 123.677 686.483 Q123.677 693.589 125.482 697.154 Q127.311 700.695 130.922 700.695 Q134.556 700.695 136.362 697.154 Q138.191 693.589 138.191 686.483 Q138.191 679.353 136.362 675.811 Q134.556 672.247 130.922 672.247 M130.922 668.543 Q136.732 668.543 139.788 673.149 Q142.867 677.733 142.867 686.483 Q142.867 695.209 139.788 699.816 Q136.732 704.399 130.922 704.399 Q125.112 704.399 122.033 699.816 Q118.978 695.209 118.978 686.483 Q118.978 677.733 122.033 673.149 Q125.112 668.543 130.922 668.543 Z" fill="#000000" fill-rule="nonzero" fill-opacity="1" /><path clip-path="url(#clip320)" d="M82.1494 527.098 L111.825 527.098 L111.825 531.033 L82.1494 531.033 L82.1494 527.098 Z" fill="#000000" fill-rule="nonzero" fill-opacity="1" /><path clip-path="url(#clip320)" d="M121.964 509.367 L140.32 509.367 L140.32 513.302 L126.246 513.302 L126.246 521.774 Q127.265 521.427 128.283 521.265 Q129.302 521.08 130.32 521.08 Q136.107 521.08 139.487 524.251 Q142.867 527.422 142.867 532.839 Q142.867 538.418 139.394 541.52 Q135.922 544.598 129.603 544.598 Q127.427 544.598 125.158 544.228 Q122.913 543.857 120.506 543.117 L120.506 538.418 Q122.589 539.552 124.811 540.108 Q127.033 540.663 129.51 540.663 Q133.515 540.663 135.853 538.557 Q138.191 536.45 138.191 532.839 Q138.191 529.228 135.853 527.121 Q133.515 525.015 129.51 525.015 Q127.635 525.015 125.76 525.432 Q123.908 525.848 121.964 526.728 L121.964 509.367 Z" fill="#000000" fill-rule="nonzero" fill-opacity="1" /><path clip-path="url(#clip320)" d="M130.922 352.645 Q127.311 352.645 125.482 356.209 Q123.677 359.751 123.677 366.881 Q123.677 373.987 125.482 377.552 Q127.311 381.094 130.922 381.094 Q134.556 381.094 136.362 377.552 Q138.191 373.987 138.191 366.881 Q138.191 359.751 136.362 356.209 Q134.556 352.645 130.922 352.645 M130.922 348.941 Q136.732 348.941 139.788 353.547 Q142.867 358.131 142.867 366.881 Q142.867 375.608 139.788 380.214 Q136.732 384.797 130.922 384.797 Q125.112 384.797 122.033 380.214 Q118.978 375.608 118.978 366.881 Q118.978 358.131 122.033 353.547 Q125.112 348.941 130.922 348.941 Z" fill="#000000" fill-rule="nonzero" fill-opacity="1" /><path clip-path="url(#clip320)" d="M121.964 189.765 L140.32 189.765 L140.32 193.7 L126.246 193.7 L126.246 202.172 Q127.265 201.825 128.283 201.663 Q129.302 201.478 130.32 201.478 Q136.107 201.478 139.487 204.649 Q142.867 207.82 142.867 213.237 Q142.867 218.816 139.394 221.918 Q135.922 224.996 129.603 224.996 Q127.427 224.996 125.158 224.626 Q122.913 224.256 120.506 223.515 L120.506 218.816 Q122.589 219.95 124.811 220.506 Q127.033 221.061 129.51 221.061 Q133.515 221.061 135.853 218.955 Q138.191 216.848 138.191 213.237 Q138.191 209.626 135.853 207.52 Q133.515 205.413 129.51 205.413 Q127.635 205.413 125.76 205.83 Q123.908 206.246 121.964 207.126 L121.964 189.765 Z" fill="#000000" fill-rule="nonzero" fill-opacity="1" /><path clip-path="url(#clip320)" d="M91.5706 60.5889 L99.2095 60.5889 L99.2095 34.2233 L90.8993 35.89 L90.8993 31.6308 L99.1632 29.9641 L103.839 29.9641 L103.839 60.5889 L111.478 60.5889 L111.478 64.5241 L91.5706 64.5241 L91.5706 60.5889 Z" fill="#000000" fill-rule="nonzero" fill-opacity="1" /><path clip-path="url(#clip320)" d="M130.922 33.0428 Q127.311 33.0428 125.482 36.6076 Q123.677 40.1492 123.677 47.2788 Q123.677 54.3853 125.482 57.9501 Q127.311 61.4917 130.922 61.4917 Q134.556 61.4917 136.362 57.9501 Q138.191 54.3853 138.191 47.2788 Q138.191 40.1492 136.362 36.6076 Q134.556 33.0428 130.922 33.0428 M130.922 29.3391 Q136.732 29.3391 139.788 33.9456 Q142.867 38.5289 142.867 47.2788 Q142.867 56.0056 139.788 60.6121 Q136.732 65.1954 130.922 65.1954 Q125.112 65.1954 122.033 60.6121 Q118.978 56.0056 118.978 47.2788 Q118.978 38.5289 122.033 33.9456 Q125.112 29.3391 130.922 29.3391 Z" fill="#000000" fill-rule="nonzero" fill-opacity="1" /><polyline clip-path="url(#clip322)" style="stroke:#009af9; stroke-linecap:round; stroke-linejoin:round; stroke-width:4; stroke-opacity:1; fill:none" points="240.392,334.886 242.445,335.383 244.498,319.26 246.55,408.503 248.603,399.455 250.656,394.423 252.709,389.347 254.762,392.397 256.815,392.236 258.868,383.42 260.921,390.056 262.974,387.187 265.027,386.005 267.079,419.071 269.132,397.73 271.185,397.609 273.238,397.211 275.291,403.339 277.344,402.818 279.397,404.954 281.45,402.959 283.503,403.062 285.555,432.635 287.608,434.101 289.661,433.979 291.714,453.332 293.767,432.591 295.82,432.649 297.873,431.684 299.926,431.674 301.979,433.978 304.031,435.442 306.084,440.268 308.137,436.664 310.19,433.558 312.243,437.593 314.296,355.238 316.349,353.003 318.402,350.207 320.455,350.23 322.507,350.233 324.56,350.231 326.613,350.275 328.666,362.768 330.719,361.948 332.772,362.093 334.825,362.097 336.878,362.237 338.931,363.753 340.984,342.389 343.036,357.509 345.089,360.312 347.142,356.006 349.195,355.567 351.248,356.013 353.301,356.701 355.354,354.29 357.407,350.401 359.46,349.669 361.512,339.083 363.565,340.104 365.618,341.478 367.671,341.483 369.724,341.762 371.777,341.865 373.83,407.83 375.883,408.969 377.936,409.079 379.988,401.971 382.041,355.434 384.094,380.468 386.147,370.342 388.2,380.021 390.253,331.331 392.306,320.775 394.359,316.97 396.412,322.263 398.464,348.355 400.517,307.172 402.57,329.738 404.623,329.734 406.676,330.84 408.729,331.386 410.782,347.067 412.835,347.196 414.888,347.48 416.94,420.756 418.993,417.873 421.046,420.621 423.099,420.762 425.152,420.111 427.205,419.428 429.258,409.101 431.311,422.925 433.364,416.109 435.417,415.969 437.469,415.986 439.522,415.772 441.575,415.299 443.628,414.958 445.681,417.056 447.734,417.962 449.787,418.115 451.84,367.799 453.893,364.537 455.945,357.719 457.998,352.881 460.051,349.44 462.104,346.35 464.157,330.235 466.21,316.222 468.263,313.821 470.316,304.983 472.369,307.388 474.421,398.197 476.474,360.706 478.527,360.692 480.58,350.85 482.633,341.824 484.686,341.689 486.739,341.685 488.792,332.001 490.845,331.443 492.897,340.847 494.95,340.489 497.003,409.507 499.056,409.779 501.109,308.834 503.162,308.81 505.215,309.106 507.268,313.1 509.321,314.559 511.374,314.682 513.426,314.369 515.479,317.627 517.532,337.72 519.585,334.458 521.638,337.061 523.691,335.839 525.744,335.839 527.797,336.828 529.85,337.157 531.902,337.202 533.955,337.241 536.008,344.302 538.061,344.246 540.114,353.826 542.167,353.349 544.22,352.439 546.273,343.357 548.326,343.317 550.378,345.501 552.431,344.832 554.484,338.593 556.537,337.634 558.59,340.352 560.643,349.082 562.696,343.47 564.749,343.496 566.802,343.997 568.854,340.141 570.907,358.309 572.96,364.401 575.013,364.402 577.066,360.742 579.119,360.352 581.172,379.831 583.225,396.06 585.278,396.058 587.331,395.742 589.383,384.521 591.436,427.95 593.489,396.618 595.542,396.621 597.595,403.137 599.648,446.721 601.701,423.318 603.754,430.89 605.807,426.406 607.859,424.805 609.912,432.416 611.965,432.74 614.018,430.645 616.071,432.324 618.124,428.041 620.177,392.56 622.23,391.854 624.283,422.08 626.335,423.955 628.388,426.657 630.441,408.17 632.494,402.313 634.547,290.037 636.6,402.506 638.653,400.544 640.706,371.171 642.759,371.02 644.811,371.318 646.864,356.518 648.917,356.798 650.97,377.545 653.023,393.518 655.076,393.666 657.129,393.309 659.182,436.646 661.235,432.035 663.288,448.015 665.34,448.009 667.393,449.226 669.446,451.58 671.499,437.964 673.552,429.956 675.605,429.072 677.658,423.627 679.711,252.289 681.764,244.211 683.816,316.347 685.869,314.337 687.922,314.135 689.975,360.443 692.028,364.069 694.081,367.158 696.134,370.668 698.187,445.454 700.24,438.132 702.292,415.188 704.345,410.29 706.398,410.423 708.451,403.883 710.504,236.821 712.557,240.772 714.61,243.594 716.663,308.4 718.716,309.945 720.768,310.466 722.821,293.399 724.874,294.49 726.927,302.11 728.98,301.394 731.033,376.504 733.086,372.411 735.139,363.349 737.192,351.01 739.245,317.804 741.297,299.534 743.35,310.565 745.403,290.298 747.456,290.283 749.509,313.981 751.562,315.523 753.615,312.254 755.668,310.034 757.721,307.132 759.773,232.308 761.826,232.079 763.879,232.651 765.932,251.045 767.985,215.844 770.038,317.595 772.091,325.625 774.144,383.974 776.197,443.862 778.249,426.744 780.302,427.006 782.355,475.579 784.408,448.202 786.461,468.017 788.514,490.202 790.567,363.537 792.62,386.109 794.673,388.588 796.725,378.575 798.778,382.415 800.831,393.678 802.884,376.754 804.937,366.709 806.99,362.874 809.043,389.191 811.096,395.641 813.149,395.799 815.202,393.56 817.254,393.714 819.307,355.332 821.36,368.166 823.413,359.308 825.466,367.412 827.519,367.576 829.572,378.005 831.625,370.885 833.678,362.269 835.73,362.229 837.783,362.239 839.836,362.488 841.889,361.608 843.942,361.588 845.995,361.677 848.048,360.856 850.101,398.388 852.154,384.519 854.206,391.85 856.259,341.166 858.312,335.056 860.365,329.732 862.418,352.107 864.471,400.298 866.524,376.336 868.577,367.078 870.63,369.642 872.682,370.142 874.735,369.928 876.788,348.456 878.841,348.631 880.894,316.938 882.947,354.166 885,389.361 887.053,385.361 889.106,396.891 891.159,400.035 893.211,398.938 895.264,405.309 897.317,405.316 899.37,355.099 901.423,359.059 903.476,359.418 905.529,362.648 907.582,362.149 909.635,388.423 911.687,338.413 913.74,361.059 915.793,365.386 917.846,365.745 919.899,364.941 921.952,366.542 924.005,366.045 926.058,367.914 928.111,368.434 930.163,372.611 932.216,370.875 934.269,376.423 936.322,376.649 938.375,377.495 940.428,380.655 942.481,382.182 944.534,382.297 946.587,388.343 948.639,387.158 950.692,352.852 952.745,352.776 954.798,352.76 956.851,352.427 958.904,349.752 960.957,346.482 963.01,369.44 965.063,372.983 967.116,370.944 969.168,383.252 971.221,383.069 973.274,377.495 975.327,378.431 977.38,370.051 979.433,382.075 981.486,373.268 983.539,389.027 985.592,389.054 987.644,380.393 989.697,359.734 991.75,358.42 993.803,364.703 995.856,364.81 997.909,364.29 999.962,365.24 1002.01,362.276 1004.07,362.404 1006.12,362.52 1008.17,362.348 1010.23,362.521 1012.28,364.318 1014.33,365.047 1016.38,349.5 1018.44,346.289 1020.49,346.289 1022.54,346.527 1024.6,346.336 1026.65,350.275 1028.7,346.931 1030.76,354.818 1032.81,363.132 1034.86,361.532 1036.91,361.34 1038.97,362.601 1041.02,365.545 1043.07,365.484 1045.13,364.94 1047.18,361.168 1049.23,365.1 1051.28,364.236 1053.34,363.281 1055.39,368.563 1057.44,368.296 1059.5,367.99 1061.55,367.875 1063.6,372.59 1065.65,370.794 1067.71,372.998 1069.76,374.325 1071.81,379.597 1073.87,379.846 1075.92,379.278 1077.97,377.236 1080.02,375.25 1082.08,374.775 1084.13,371.941 1086.18,372.065 1088.24,388.832 1090.29,376.907 1092.34,377.948 1094.39,380.861 1096.45,360.481 1098.5,364.826 1100.55,368.753 1102.61,362.62 1104.66,344.43 1106.71,383.008 1108.77,360.326 1110.82,366.73 1112.87,366.729 1114.92,368.098 1116.98,368.305 1119.03,354.008 1121.08,355.193 1123.14,353.513 1125.19,416.067 1127.24,415.019 1129.29,394.706 1131.35,396.075 1133.4,395.264 1135.45,368.862 1137.51,380.173 1139.56,379.596 1141.61,370.99 1143.66,370.927 1145.72,370.643 1147.77,369.851 1149.82,369.696 1151.88,371.562 1153.93,367.105 1155.98,365.388 1158.03,364.969 1160.09,359.325 1162.14,358.428 1164.19,364.672 1166.25,364.775 1168.3,354.533 1170.35,355.006 1172.4,351.32 1174.46,347.533 1176.51,348.602 1178.56,347.203 1180.62,347.408 1182.67,358.235 1184.72,358.218 1186.77,348.652 1188.83,396.639 1190.88,396.385 1192.93,370.27 1194.99,378.499 1197.04,379.874 1199.09,379.479 1201.15,383.328 1203.2,383.998 1205.25,375.123 1207.3,374.602 1209.36,356.48 1211.41,356.371 1213.46,351.701 1215.52,370.396 1217.57,370.079 1219.62,369.551 1221.67,362.998 1223.73,340.675 1225.78,378.849 1227.83,378.56 1229.89,380.05 1231.94,363.683 1233.99,379.961 1236.04,379.874 1238.1,382.157 1240.15,384.733 1242.2,360.55 1244.26,363.998 1246.31,366.989 1248.36,365.471 1250.41,370.975 1252.47,368.752 1254.52,368.71 1256.57,365.323 1258.63,388.141 1260.68,381.991 1262.73,381.791 1264.78,381.797 1266.84,384.017 1268.89,397.955 1270.94,369.702 1273,378.422 1275.05,401.505 1277.1,398.467 1279.16,398.607 1281.21,391.119 1283.26,389.799 1285.31,390.427 1287.37,391.607 1289.42,390.375 1291.47,382.16 1293.53,363.086 1295.58,324.599 1297.63,344.111 1299.68,344.115 1301.74,342.642 1303.79,339.218 1305.84,343.029 1307.9,344.573 1309.95,333.71 1312,331.033 1314.05,339.268 1316.11,345.76 1318.16,344.943 1320.21,349.478 1322.27,347.099 1324.32,345.475 1326.37,358.272 1328.42,355.94 1330.48,310.277 1332.53,308.06 1334.58,404.242 1336.64,404.339 1338.69,403.965 1340.74,403.494 1342.79,401.675 1344.85,383.928 1346.9,383.081 1348.95,380.915 1351.01,378.223 1353.06,375.18 1355.11,371.707 1357.16,344.835 1359.22,345.209 1361.27,249.713 1363.32,196.879 1365.38,203.838 1367.43,251.189 1369.48,250.442 1371.54,186.409 1373.59,184.075 1375.64,181.108 1377.69,163.333 1379.75,163.379 1381.8,163.424 1383.85,162.425 1385.91,159.944 1387.96,313.839 1390.01,349.014 1392.06,324.194 1394.12,326.78 1396.17,301.422 1398.22,348.386 1400.28,319.22 1402.33,307.456 1404.38,305.09 1406.43,218.491 1408.49,214.862 1410.54,188.778 1412.59,180.375 1414.65,180.619 1416.7,257.749 1418.75,234.249 1420.8,295.043 1422.86,410.126 1424.91,456.852 1426.96,453.364 1429.02,443.504 1431.07,370.959 1433.12,372.806 1435.17,373.694 1437.23,371.737 1439.28,371.811 1441.33,372.716 1443.39,372.709 1445.44,329.28 1447.49,254.35 1449.55,273.616 1451.6,269.609 1453.65,262.909 1455.7,78.3461 1457.76,83.388 1459.81,105.666 1461.86,115.242 1463.92,86.5223 1465.97,213.478 1468.02,213.306 1470.07,269.504 1472.13,397.29 1474.18,397.799 1476.23,407.022 1478.29,206.777 1480.34,221.083 1482.39,221.231 1484.44,214.235 1486.5,424.011 1488.55,270.442 1490.6,275.68 1492.66,284.882 1494.71,252.326 1496.76,273.65 1498.81,341.281 1500.87,390.053 1502.92,292.926 1504.97,303.38 1507.03,302.741 1509.08,283.337 1511.13,398.358 1513.18,419.571 1515.24,378.475 1517.29,364.864 1519.34,210.611 1521.4,170.811 1523.45,181.539 1525.5,177.307 1527.55,77.1369 1529.61,-28.4645 1531.66,247.026 1533.71,246.311 1535.77,300.487 1537.82,332.542 1539.87,403.735 1541.93,282.341 1543.98,286.162 1546.03,287.273 1548.08,451.06 1550.14,428.895 1552.19,379.096 1554.24,380.86 1556.3,390.068 1558.35,371.06 1560.4,427.345 1562.45,422.307 1564.51,397.94 1566.56,412.554 1568.61,409.266 1570.67,514.868 1572.72,492.534 1574.77,491.939 1576.82,526.213 1578.88,537.953 1580.93,433.015 1582.98,532.351 1585.04,519.433 1587.09,475.537 1589.14,628.067 1591.19,689.036 1593.25,574.938 1595.3,597.199 1597.35,501.79 1599.41,539.169 1601.46,539.449 1603.51,539.398 1605.56,496.531 1607.62,492.268 1609.67,492.682 1611.72,371.411 1613.78,337.933 1615.83,349.622 1617.88,142.279 1619.94,422.012 1621.99,448.214 1624.04,443.367 1626.09,427.228 1628.15,432.217 1630.2,433.933 1632.25,402.217 1634.31,426.673 1636.36,421.767 1638.41,551.106 1640.46,575.542 1642.52,568.466 1644.57,469.068 1646.62,344.768 1648.68,354.339 1650.73,386.359 1652.78,397.48 1654.83,385.57 1656.89,408.404 1658.94,406.384 1660.99,395.793 1663.05,341.07 1665.1,580.353 1667.15,581.152 1669.2,581.182 1671.26,582.271 1673.31,558.361 1675.36,571.071 1677.42,571.113 1679.47,605.287 1681.52,603.682 1683.57,708.81 1685.63,793.63 1687.68,794.873 1689.73,721.817 1691.79,692.892 1693.84,615.015 1695.89,561.97 1697.94,561.038 1700,560.215 1702.05,547.676 1704.1,550.435 1706.16,551.831 1708.21,560.216 1710.26,569.153 1712.32,579.338 1714.37,393.006 1716.42,422.412 1718.47,344.995 1720.53,350.71 1722.58,355.163 1724.63,343.726 1726.69,345.892 1728.74,348.78 1730.79,343.083 1732.84,343.124 1734.9,350.683 1736.95,216.788 1739,544.998 1741.06,546.595 1743.11,552.652 1745.16,533.919 1747.21,529.434 1749.27,529.004 1751.32,465.51 1753.37,464.984 1755.43,468.791 1757.48,468.601 1759.53,469.733 1761.58,433.869 1763.64,419.585 1765.69,422.88 1767.74,425.016 1769.8,403.785 1771.85,413.227 1773.9,497.64 1775.95,484.314 1778.01,469.302 1780.06,563.458 1782.11,386.429 1784.17,403.564 1786.22,405.308 1788.27,300.985 1790.33,301.416 1792.38,289.765 1794.43,290.444 1796.48,318.102 1798.54,319.147 1800.59,329.123 1802.64,321.75 1804.7,321.383 1806.75,268.393 1808.8,246.447 1810.85,259.282 1812.91,370.429 1814.96,489.04 1817.01,488.823 1819.07,475.06 1821.12,363.435 1823.17,350.513 1825.22,340.866 1827.28,185.916 1829.33,405.361 1831.38,407.801 1833.44,173.345 1835.49,321.888 1837.54,324.189 1839.59,322.649 1841.65,297.76 1843.7,312.343 1845.75,312.844 1847.81,303.002 1849.86,333.492 1851.91,339.574 1853.96,288.046 1856.02,300.991 1858.07,303.712 1860.12,302.434 1862.18,260.981 1864.23,435.095 1866.28,395.213 1868.34,398.292 1870.39,395.985 1872.44,395.205 1874.49,395.103 1876.55,395.402 1878.6,376.598 1880.65,372.731 1882.71,376.583 1884.76,370.96 1886.81,370.985 1888.86,368.291 1890.92,343.619 1892.97,343.928 1895.02,336.085 1897.08,440.516 1899.13,431.107 1901.18,441.652 1903.23,434.314 1905.29,328.436 1907.34,306.903 1909.39,370.759 1911.45,371.681 1913.5,316.39 1915.55,319.82 1917.6,293.396 1919.66,278.822 1921.71,274.203 1923.76,277.488 1925.82,276.741 1927.87,255.146 1929.92,274.269 1931.97,277.699 1934.03,266.85 1936.08,289.934 1938.13,507.924 1940.19,491.828 1942.24,426.508 1944.29,430.067 1946.34,441.659 1948.4,434.567 1950.45,457.208 1952.5,473.9 1954.56,450.285 1956.61,448.883 1958.66,450.35 1960.72,385.001 1962.77,393.05 1964.82,388.396 1966.87,379.29 1968.93,369.95 1970.98,371.556 1973.03,380.056 1975.09,370.497 1977.14,341.64 1979.19,337.764 1981.24,334.643 1983.3,336.399 1985.35,335.964 1987.4,343.131 1989.46,332.808 1991.51,333.525 1993.56,326.009 1995.61,319.792 1997.67,319.861 1999.72,297.003 2001.77,286.471 2003.83,285.823 2005.88,389.998 2007.93,385.25 2009.98,385.959 2012.04,328.606 2014.09,325.555 2016.14,342.58 2018.2,324.271 2020.25,325.951 2022.3,356.75 2024.35,360.711 2026.41,360.135 2028.46,362.917 2030.51,348.528 2032.57,310.618 2034.62,294.249 2036.67,291.986 2038.73,292.069 2040.78,292.473 2042.83,303.187 2044.88,329.25 2046.94,328.352 2048.99,367.021 2051.04,367.736 2053.1,367.919 2055.15,367.382 2057.2,379.741 2059.25,391.816 2061.31,391.461 2063.36,359.125 2065.41,358.84 2067.47,362.108 2069.52,361.267 2071.57,361.149 2073.62,361.703 2075.68,361.883 2077.73,361.899 2079.78,362.596 2081.84,376.879 2083.89,375.585 2085.94,371.6 2087.99,379.948 2090.05,379.864 2092.1,363.024 2094.15,356.826 2096.21,352.331 2098.26,359.578 2100.31,355.155 2102.36,355.6 2104.42,355.985 2106.47,362.615 2108.52,378.617 2110.58,378.412 2112.63,377.838 2114.68,374.228 2116.73,377.561 2118.79,367.916 2120.84,355.872 2122.89,356.627 2124.95,356.746 2127,355.936 2129.05,375.231 2131.11,367.897 2133.16,358.439 2135.21,358.589 2137.26,358.75 2139.32,357.923 2141.37,358.617 2143.42,358.705 2145.48,344.091 2147.53,342.876 2149.58,342.95 2151.63,335.241 2153.69,322.125 2155.74,318.576 2157.79,340.22 2159.85,339.144 2161.9,368.091 2163.95,350.805 2166,345.345 2168.06,347.228 2170.11,352.613 2172.16,350.922 2174.22,360.22 2176.27,369.435 2178.32,369.625 2180.37,364.276 2182.43,371.761 2184.48,371.419 2186.53,371.247 2188.59,395.6 2190.64,391.164 2192.69,392.859 2194.74,393.13 2196.8,394.656 2198.85,316.145 2200.9,355.064 2202.96,349.004 2205.01,349.358 2207.06,350.586 2209.12,358.115 2211.17,359.257 2213.22,354.256 2215.27,354.132 2217.33,351.96 2219.38,297.562 2221.43,450.987 2223.49,293.453 2225.54,292.698 2227.59,292.529 2229.64,292.436 2231.7,278.474 2233.75,309.245 2235.8,309.731 2237.86,308.399 2239.91,331.171 2241.96,329.228 2244.01,324.109 2246.07,315.737 2248.12,333.093 2250.17,333.035 2252.23,340.087 2254.28,341.808 2256.33,372.705 2258.38,372.781 2260.44,375.138 2262.49,374.031 2264.54,375.25 2266.6,375.297 2268.65,379.502 2270.7,385.45 2272.75,408.265 2274.81,458.345 2276.86,420.48 2278.91,421.969 2280.97,438.06 2283.02,437.863 2285.07,399.213 2287.12,399.531 2289.18,399.249 2291.23,399.246 "/>
<path clip-path="url(#clip320)" d="M251.33 172.231 L548.024 172.231 L548.024 68.5509 L251.33 68.5509  Z" fill="#ffffff" fill-rule="evenodd" fill-opacity="1"/>
<polyline clip-path="url(#clip320)" style="stroke:#000000; stroke-linecap:round; stroke-linejoin:round; stroke-width:4; stroke-opacity:1; fill:none" points="251.33,172.231 548.024,172.231 548.024,68.5509 251.33,68.5509 251.33,172.231 "/>
<polyline clip-path="url(#clip320)" style="stroke:#009af9; stroke-linecap:round; stroke-linejoin:round; stroke-width:4; stroke-opacity:1; fill:none" points="275.484,120.391 420.41,120.391 "/>
<path clip-path="url(#clip320)" d="M444.564 103.111 L449.24 103.111 L449.24 133.736 L466.069 133.736 L466.069 137.671 L444.564 137.671 L444.564 103.111 Z" fill="#000000" fill-rule="nonzero" fill-opacity="1" /><path clip-path="url(#clip320)" d="M491.694 104.245 L491.694 108.805 Q489.032 107.532 486.67 106.907 Q484.309 106.282 482.11 106.282 Q478.291 106.282 476.208 107.764 Q474.147 109.245 474.147 111.977 Q474.147 114.268 475.513 115.449 Q476.902 116.606 480.745 117.324 L483.569 117.902 Q488.8 118.898 491.277 121.421 Q493.777 123.921 493.777 128.134 Q493.777 133.157 490.397 135.75 Q487.041 138.342 480.536 138.342 Q478.083 138.342 475.305 137.787 Q472.55 137.231 469.587 136.143 L469.587 131.328 Q472.434 132.926 475.166 133.736 Q477.897 134.546 480.536 134.546 Q484.541 134.546 486.717 132.972 Q488.893 131.398 488.893 128.481 Q488.893 125.935 487.319 124.5 Q485.768 123.064 482.203 122.347 L479.356 121.791 Q474.124 120.75 471.786 118.527 Q469.448 116.305 469.448 112.347 Q469.448 107.764 472.666 105.125 Q475.907 102.486 481.578 102.486 Q484.008 102.486 486.532 102.926 Q489.055 103.366 491.694 104.245 Z" fill="#000000" fill-rule="nonzero" fill-opacity="1" /><path clip-path="url(#clip320)" d="M521.786 104.245 L521.786 108.805 Q519.124 107.532 516.763 106.907 Q514.402 106.282 512.203 106.282 Q508.383 106.282 506.3 107.764 Q504.24 109.245 504.24 111.977 Q504.24 114.268 505.606 115.449 Q506.994 116.606 510.837 117.324 L513.661 117.902 Q518.893 118.898 521.369 121.421 Q523.869 123.921 523.869 128.134 Q523.869 133.157 520.49 135.75 Q517.133 138.342 510.629 138.342 Q508.175 138.342 505.397 137.787 Q502.643 137.231 499.68 136.143 L499.68 131.328 Q502.527 132.926 505.258 133.736 Q507.99 134.546 510.629 134.546 Q514.633 134.546 516.809 132.972 Q518.985 131.398 518.985 128.481 Q518.985 125.935 517.411 124.5 Q515.86 123.064 512.295 122.347 L509.448 121.791 Q504.217 120.75 501.879 118.527 Q499.541 116.305 499.541 112.347 Q499.541 107.764 502.758 105.125 Q505.999 102.486 511.67 102.486 Q514.101 102.486 516.624 102.926 Q519.147 103.366 521.786 104.245 Z" fill="#000000" fill-rule="nonzero" fill-opacity="1" /><path clip-path="url(#clip320)" d="M178.867 1486.45 L2352.76 1486.45 L2352.76 847.244 L178.867 847.244  Z" fill="#ffffff" fill-rule="evenodd" fill-opacity="1"/>
<defs>
  <clipPath id="clip323">
    <rect x="178" y="847" width="2175" height="640"/>
  </clipPath>
</defs>
<polyline clip-path="url(#clip323)" style="stroke:#000000; stroke-linecap:round; stroke-linejoin:round; stroke-width:2; stroke-opacity:0.1; fill:none" points="238.339,1486.45 238.339,847.244 "/>
<polyline clip-path="url(#clip323)" style="stroke:#000000; stroke-linecap:round; stroke-linejoin:round; stroke-width:2; stroke-opacity:0.1; fill:none" points="751.562,1486.45 751.562,847.244 "/>
<polyline clip-path="url(#clip323)" style="stroke:#000000; stroke-linecap:round; stroke-linejoin:round; stroke-width:2; stroke-opacity:0.1; fill:none" points="1264.78,1486.45 1264.78,847.244 "/>
<polyline clip-path="url(#clip323)" style="stroke:#000000; stroke-linecap:round; stroke-linejoin:round; stroke-width:2; stroke-opacity:0.1; fill:none" points="1778.01,1486.45 1778.01,847.244 "/>
<polyline clip-path="url(#clip323)" style="stroke:#000000; stroke-linecap:round; stroke-linejoin:round; stroke-width:2; stroke-opacity:0.1; fill:none" points="2291.23,1486.45 2291.23,847.244 "/>
<polyline clip-path="url(#clip323)" style="stroke:#000000; stroke-linecap:round; stroke-linejoin:round; stroke-width:2; stroke-opacity:0.1; fill:none" points="178.867,1486.45 2352.76,1486.45 "/>
<polyline clip-path="url(#clip323)" style="stroke:#000000; stroke-linecap:round; stroke-linejoin:round; stroke-width:2; stroke-opacity:0.1; fill:none" points="178.867,1326.65 2352.76,1326.65 "/>
<polyline clip-path="url(#clip323)" style="stroke:#000000; stroke-linecap:round; stroke-linejoin:round; stroke-width:2; stroke-opacity:0.1; fill:none" points="178.867,1166.85 2352.76,1166.85 "/>
<polyline clip-path="url(#clip323)" style="stroke:#000000; stroke-linecap:round; stroke-linejoin:round; stroke-width:2; stroke-opacity:0.1; fill:none" points="178.867,1007.05 2352.76,1007.05 "/>
<polyline clip-path="url(#clip323)" style="stroke:#000000; stroke-linecap:round; stroke-linejoin:round; stroke-width:2; stroke-opacity:0.1; fill:none" points="178.867,847.244 2352.76,847.244 "/>
<polyline clip-path="url(#clip320)" style="stroke:#000000; stroke-linecap:round; stroke-linejoin:round; stroke-width:4; stroke-opacity:1; fill:none" points="178.867,1486.45 2352.76,1486.45 "/>
<polyline clip-path="url(#clip320)" style="stroke:#000000; stroke-linecap:round; stroke-linejoin:round; stroke-width:4; stroke-opacity:1; fill:none" points="238.339,1486.45 238.339,1467.55 "/>
<polyline clip-path="url(#clip320)" style="stroke:#000000; stroke-linecap:round; stroke-linejoin:round; stroke-width:4; stroke-opacity:1; fill:none" points="751.562,1486.45 751.562,1467.55 "/>
<polyline clip-path="url(#clip320)" style="stroke:#000000; stroke-linecap:round; stroke-linejoin:round; stroke-width:4; stroke-opacity:1; fill:none" points="1264.78,1486.45 1264.78,1467.55 "/>
<polyline clip-path="url(#clip320)" style="stroke:#000000; stroke-linecap:round; stroke-linejoin:round; stroke-width:4; stroke-opacity:1; fill:none" points="1778.01,1486.45 1778.01,1467.55 "/>
<polyline clip-path="url(#clip320)" style="stroke:#000000; stroke-linecap:round; stroke-linejoin:round; stroke-width:4; stroke-opacity:1; fill:none" points="2291.23,1486.45 2291.23,1467.55 "/>
<path clip-path="url(#clip320)" d="M238.339 1517.37 Q234.728 1517.37 232.899 1520.93 Q231.094 1524.47 231.094 1531.6 Q231.094 1538.71 232.899 1542.27 Q234.728 1545.82 238.339 1545.82 Q241.973 1545.82 243.779 1542.27 Q245.607 1538.71 245.607 1531.6 Q245.607 1524.47 243.779 1520.93 Q241.973 1517.37 238.339 1517.37 M238.339 1513.66 Q244.149 1513.66 247.205 1518.27 Q250.283 1522.85 250.283 1531.6 Q250.283 1540.33 247.205 1544.94 Q244.149 1549.52 238.339 1549.52 Q232.529 1549.52 229.45 1544.94 Q226.395 1540.33 226.395 1531.6 Q226.395 1522.85 229.45 1518.27 Q232.529 1513.66 238.339 1513.66 Z" fill="#000000" fill-rule="nonzero" fill-opacity="1" /><path clip-path="url(#clip320)" d="M715.254 1544.91 L731.574 1544.91 L731.574 1548.85 L709.629 1548.85 L709.629 1544.91 Q712.291 1542.16 716.875 1537.53 Q721.481 1532.88 722.662 1531.53 Q724.907 1529.01 725.787 1527.27 Q726.689 1525.51 726.689 1523.82 Q726.689 1521.07 724.745 1519.33 Q722.824 1517.6 719.722 1517.6 Q717.523 1517.6 715.069 1518.36 Q712.638 1519.13 709.861 1520.68 L709.861 1515.95 Q712.685 1514.82 715.138 1514.24 Q717.592 1513.66 719.629 1513.66 Q725 1513.66 728.194 1516.35 Q731.388 1519.03 731.388 1523.52 Q731.388 1525.65 730.578 1527.57 Q729.791 1529.47 727.685 1532.07 Q727.106 1532.74 724.004 1535.95 Q720.902 1539.15 715.254 1544.91 Z" fill="#000000" fill-rule="nonzero" fill-opacity="1" /><path clip-path="url(#clip320)" d="M741.435 1514.29 L759.791 1514.29 L759.791 1518.22 L745.717 1518.22 L745.717 1526.7 Q746.736 1526.35 747.754 1526.19 Q748.773 1526 749.791 1526 Q755.578 1526 758.958 1529.17 Q762.337 1532.34 762.337 1537.76 Q762.337 1543.34 758.865 1546.44 Q755.393 1549.52 749.073 1549.52 Q746.898 1549.52 744.629 1549.15 Q742.384 1548.78 739.976 1548.04 L739.976 1543.34 Q742.06 1544.47 744.282 1545.03 Q746.504 1545.58 748.981 1545.58 Q752.985 1545.58 755.323 1543.48 Q757.661 1541.37 757.661 1537.76 Q757.661 1534.15 755.323 1532.04 Q752.985 1529.94 748.981 1529.94 Q747.106 1529.94 745.231 1530.35 Q743.379 1530.77 741.435 1531.65 L741.435 1514.29 Z" fill="#000000" fill-rule="nonzero" fill-opacity="1" /><path clip-path="url(#clip320)" d="M781.55 1517.37 Q777.939 1517.37 776.11 1520.93 Q774.305 1524.47 774.305 1531.6 Q774.305 1538.71 776.11 1542.27 Q777.939 1545.82 781.55 1545.82 Q785.184 1545.82 786.99 1542.27 Q788.819 1538.71 788.819 1531.6 Q788.819 1524.47 786.99 1520.93 Q785.184 1517.37 781.55 1517.37 M781.55 1513.66 Q787.36 1513.66 790.416 1518.27 Q793.495 1522.85 793.495 1531.6 Q793.495 1540.33 790.416 1544.94 Q787.36 1549.52 781.55 1549.52 Q775.74 1549.52 772.661 1544.94 Q769.606 1540.33 769.606 1531.6 Q769.606 1522.85 772.661 1518.27 Q775.74 1513.66 781.55 1513.66 Z" fill="#000000" fill-rule="nonzero" fill-opacity="1" /><path clip-path="url(#clip320)" d="M1224.4 1514.29 L1242.76 1514.29 L1242.76 1518.22 L1228.69 1518.22 L1228.69 1526.7 Q1229.7 1526.35 1230.72 1526.19 Q1231.74 1526 1232.76 1526 Q1238.55 1526 1241.93 1529.17 Q1245.31 1532.34 1245.31 1537.76 Q1245.31 1543.34 1241.83 1546.44 Q1238.36 1549.52 1232.04 1549.52 Q1229.87 1549.52 1227.6 1549.15 Q1225.35 1548.78 1222.94 1548.04 L1222.94 1543.34 Q1225.03 1544.47 1227.25 1545.03 Q1229.47 1545.58 1231.95 1545.58 Q1235.95 1545.58 1238.29 1543.48 Q1240.63 1541.37 1240.63 1537.76 Q1240.63 1534.15 1238.29 1532.04 Q1235.95 1529.94 1231.95 1529.94 Q1230.07 1529.94 1228.2 1530.35 Q1226.35 1530.77 1224.4 1531.65 L1224.4 1514.29 Z" fill="#000000" fill-rule="nonzero" fill-opacity="1" /><path clip-path="url(#clip320)" d="M1264.52 1517.37 Q1260.91 1517.37 1259.08 1520.93 Q1257.27 1524.47 1257.27 1531.6 Q1257.27 1538.71 1259.08 1542.27 Q1260.91 1545.82 1264.52 1545.82 Q1268.15 1545.82 1269.96 1542.27 Q1271.79 1538.71 1271.79 1531.6 Q1271.79 1524.47 1269.96 1520.93 Q1268.15 1517.37 1264.52 1517.37 M1264.52 1513.66 Q1270.33 1513.66 1273.38 1518.27 Q1276.46 1522.85 1276.46 1531.6 Q1276.46 1540.33 1273.38 1544.94 Q1270.33 1549.52 1264.52 1549.52 Q1258.71 1549.52 1255.63 1544.94 Q1252.57 1540.33 1252.57 1531.6 Q1252.57 1522.85 1255.63 1518.27 Q1258.71 1513.66 1264.52 1513.66 Z" fill="#000000" fill-rule="nonzero" fill-opacity="1" /><path clip-path="url(#clip320)" d="M1294.68 1517.37 Q1291.07 1517.37 1289.24 1520.93 Q1287.44 1524.47 1287.44 1531.6 Q1287.44 1538.71 1289.24 1542.27 Q1291.07 1545.82 1294.68 1545.82 Q1298.31 1545.82 1300.12 1542.27 Q1301.95 1538.71 1301.95 1531.6 Q1301.95 1524.47 1300.12 1520.93 Q1298.31 1517.37 1294.68 1517.37 M1294.68 1513.66 Q1300.49 1513.66 1303.55 1518.27 Q1306.62 1522.85 1306.62 1531.6 Q1306.62 1540.33 1303.55 1544.94 Q1300.49 1549.52 1294.68 1549.52 Q1288.87 1549.52 1285.79 1544.94 Q1282.74 1540.33 1282.74 1531.6 Q1282.74 1522.85 1285.79 1518.27 Q1288.87 1513.66 1294.68 1513.66 Z" fill="#000000" fill-rule="nonzero" fill-opacity="1" /><path clip-path="url(#clip320)" d="M1736.28 1514.29 L1758.51 1514.29 L1758.51 1516.28 L1745.96 1548.85 L1741.08 1548.85 L1752.88 1518.22 L1736.28 1518.22 L1736.28 1514.29 Z" fill="#000000" fill-rule="nonzero" fill-opacity="1" /><path clip-path="url(#clip320)" d="M1767.67 1514.29 L1786.03 1514.29 L1786.03 1518.22 L1771.95 1518.22 L1771.95 1526.7 Q1772.97 1526.35 1773.99 1526.19 Q1775.01 1526 1776.03 1526 Q1781.82 1526 1785.2 1529.17 Q1788.57 1532.34 1788.57 1537.76 Q1788.57 1543.34 1785.1 1546.44 Q1781.63 1549.52 1775.31 1549.52 Q1773.14 1549.52 1770.87 1549.15 Q1768.62 1548.78 1766.21 1548.04 L1766.21 1543.34 Q1768.3 1544.47 1770.52 1545.03 Q1772.74 1545.58 1775.22 1545.58 Q1779.22 1545.58 1781.56 1543.48 Q1783.9 1541.37 1783.9 1537.76 Q1783.9 1534.15 1781.56 1532.04 Q1779.22 1529.94 1775.22 1529.94 Q1773.34 1529.94 1771.47 1530.35 Q1769.62 1530.77 1767.67 1531.65 L1767.67 1514.29 Z" fill="#000000" fill-rule="nonzero" fill-opacity="1" /><path clip-path="url(#clip320)" d="M1807.79 1517.37 Q1804.18 1517.37 1802.35 1520.93 Q1800.54 1524.47 1800.54 1531.6 Q1800.54 1538.71 1802.35 1542.27 Q1804.18 1545.82 1807.79 1545.82 Q1811.42 1545.82 1813.23 1542.27 Q1815.06 1538.71 1815.06 1531.6 Q1815.06 1524.47 1813.23 1520.93 Q1811.42 1517.37 1807.79 1517.37 M1807.79 1513.66 Q1813.6 1513.66 1816.65 1518.27 Q1819.73 1522.85 1819.73 1531.6 Q1819.73 1540.33 1816.65 1544.94 Q1813.6 1549.52 1807.79 1549.52 Q1801.98 1549.52 1798.9 1544.94 Q1795.84 1540.33 1795.84 1531.6 Q1795.84 1522.85 1798.9 1518.27 Q1801.98 1513.66 1807.79 1513.66 Z" fill="#000000" fill-rule="nonzero" fill-opacity="1" /><path clip-path="url(#clip320)" d="M2235.76 1544.91 L2243.4 1544.91 L2243.4 1518.55 L2235.09 1520.21 L2235.09 1515.95 L2243.35 1514.29 L2248.02 1514.29 L2248.02 1544.91 L2255.66 1544.91 L2255.66 1548.85 L2235.76 1548.85 L2235.76 1544.91 Z" fill="#000000" fill-rule="nonzero" fill-opacity="1" /><path clip-path="url(#clip320)" d="M2275.11 1517.37 Q2271.5 1517.37 2269.67 1520.93 Q2267.86 1524.47 2267.86 1531.6 Q2267.86 1538.71 2269.67 1542.27 Q2271.5 1545.82 2275.11 1545.82 Q2278.74 1545.82 2280.55 1542.27 Q2282.38 1538.71 2282.38 1531.6 Q2282.38 1524.47 2280.55 1520.93 Q2278.74 1517.37 2275.11 1517.37 M2275.11 1513.66 Q2280.92 1513.66 2283.97 1518.27 Q2287.05 1522.85 2287.05 1531.6 Q2287.05 1540.33 2283.97 1544.94 Q2280.92 1549.52 2275.11 1549.52 Q2269.3 1549.52 2266.22 1544.94 Q2263.16 1540.33 2263.16 1531.6 Q2263.16 1522.85 2266.22 1518.27 Q2269.3 1513.66 2275.11 1513.66 Z" fill="#000000" fill-rule="nonzero" fill-opacity="1" /><path clip-path="url(#clip320)" d="M2305.27 1517.37 Q2301.66 1517.37 2299.83 1520.93 Q2298.02 1524.47 2298.02 1531.6 Q2298.02 1538.71 2299.83 1542.27 Q2301.66 1545.82 2305.27 1545.82 Q2308.9 1545.82 2310.71 1542.27 Q2312.54 1538.71 2312.54 1531.6 Q2312.54 1524.47 2310.71 1520.93 Q2308.9 1517.37 2305.27 1517.37 M2305.27 1513.66 Q2311.08 1513.66 2314.14 1518.27 Q2317.21 1522.85 2317.21 1531.6 Q2317.21 1540.33 2314.14 1544.94 Q2311.08 1549.52 2305.27 1549.52 Q2299.46 1549.52 2296.38 1544.94 Q2293.33 1540.33 2293.33 1531.6 Q2293.33 1522.85 2296.38 1518.27 Q2299.46 1513.66 2305.27 1513.66 Z" fill="#000000" fill-rule="nonzero" fill-opacity="1" /><path clip-path="url(#clip320)" d="M2335.43 1517.37 Q2331.82 1517.37 2329.99 1520.93 Q2328.19 1524.47 2328.19 1531.6 Q2328.19 1538.71 2329.99 1542.27 Q2331.82 1545.82 2335.43 1545.82 Q2339.07 1545.82 2340.87 1542.27 Q2342.7 1538.71 2342.7 1531.6 Q2342.7 1524.47 2340.87 1520.93 Q2339.07 1517.37 2335.43 1517.37 M2335.43 1513.66 Q2341.24 1513.66 2344.3 1518.27 Q2347.38 1522.85 2347.38 1531.6 Q2347.38 1540.33 2344.3 1544.94 Q2341.24 1549.52 2335.43 1549.52 Q2329.62 1549.52 2326.54 1544.94 Q2323.49 1540.33 2323.49 1531.6 Q2323.49 1522.85 2326.54 1518.27 Q2329.62 1513.66 2335.43 1513.66 Z" fill="#000000" fill-rule="nonzero" fill-opacity="1" /><polyline clip-path="url(#clip320)" style="stroke:#000000; stroke-linecap:round; stroke-linejoin:round; stroke-width:4; stroke-opacity:1; fill:none" points="178.867,1486.45 178.867,847.244 "/>
<polyline clip-path="url(#clip320)" style="stroke:#000000; stroke-linecap:round; stroke-linejoin:round; stroke-width:4; stroke-opacity:1; fill:none" points="178.867,1486.45 197.764,1486.45 "/>
<polyline clip-path="url(#clip320)" style="stroke:#000000; stroke-linecap:round; stroke-linejoin:round; stroke-width:4; stroke-opacity:1; fill:none" points="178.867,1326.65 197.764,1326.65 "/>
<polyline clip-path="url(#clip320)" style="stroke:#000000; stroke-linecap:round; stroke-linejoin:round; stroke-width:4; stroke-opacity:1; fill:none" points="178.867,1166.85 197.764,1166.85 "/>
<polyline clip-path="url(#clip320)" style="stroke:#000000; stroke-linecap:round; stroke-linejoin:round; stroke-width:4; stroke-opacity:1; fill:none" points="178.867,1007.05 197.764,1007.05 "/>
<polyline clip-path="url(#clip320)" style="stroke:#000000; stroke-linecap:round; stroke-linejoin:round; stroke-width:4; stroke-opacity:1; fill:none" points="178.867,847.244 197.764,847.244 "/>
<path clip-path="url(#clip320)" d="M50.9921 1486.9 L80.6679 1486.9 L80.6679 1490.83 L50.9921 1490.83 L50.9921 1486.9 Z" fill="#000000" fill-rule="nonzero" fill-opacity="1" /><path clip-path="url(#clip320)" d="M91.5706 1499.79 L99.2095 1499.79 L99.2095 1473.43 L90.8993 1475.09 L90.8993 1470.83 L99.1632 1469.17 L103.839 1469.17 L103.839 1499.79 L111.478 1499.79 L111.478 1503.73 L91.5706 1503.73 L91.5706 1499.79 Z" fill="#000000" fill-rule="nonzero" fill-opacity="1" /><path clip-path="url(#clip320)" d="M130.922 1472.25 Q127.311 1472.25 125.482 1475.81 Q123.677 1479.35 123.677 1486.48 Q123.677 1493.59 125.482 1497.15 Q127.311 1500.7 130.922 1500.7 Q134.556 1500.7 136.362 1497.15 Q138.191 1493.59 138.191 1486.48 Q138.191 1479.35 136.362 1475.81 Q134.556 1472.25 130.922 1472.25 M130.922 1468.54 Q136.732 1468.54 139.788 1473.15 Q142.867 1477.73 142.867 1486.48 Q142.867 1495.21 139.788 1499.82 Q136.732 1504.4 130.922 1504.4 Q125.112 1504.4 122.033 1499.82 Q118.978 1495.21 118.978 1486.48 Q118.978 1477.73 122.033 1473.15 Q125.112 1468.54 130.922 1468.54 Z" fill="#000000" fill-rule="nonzero" fill-opacity="1" /><path clip-path="url(#clip320)" d="M82.1494 1327.1 L111.825 1327.1 L111.825 1331.03 L82.1494 1331.03 L82.1494 1327.1 Z" fill="#000000" fill-rule="nonzero" fill-opacity="1" /><path clip-path="url(#clip320)" d="M121.964 1309.37 L140.32 1309.37 L140.32 1313.3 L126.246 1313.3 L126.246 1321.77 Q127.265 1321.43 128.283 1321.27 Q129.302 1321.08 130.32 1321.08 Q136.107 1321.08 139.487 1324.25 Q142.867 1327.42 142.867 1332.84 Q142.867 1338.42 139.394 1341.52 Q135.922 1344.6 129.603 1344.6 Q127.427 1344.6 125.158 1344.23 Q122.913 1343.86 120.506 1343.12 L120.506 1338.42 Q122.589 1339.55 124.811 1340.11 Q127.033 1340.66 129.51 1340.66 Q133.515 1340.66 135.853 1338.56 Q138.191 1336.45 138.191 1332.84 Q138.191 1329.23 135.853 1327.12 Q133.515 1325.01 129.51 1325.01 Q127.635 1325.01 125.76 1325.43 Q123.908 1325.85 121.964 1326.73 L121.964 1309.37 Z" fill="#000000" fill-rule="nonzero" fill-opacity="1" /><path clip-path="url(#clip320)" d="M130.922 1152.64 Q127.311 1152.64 125.482 1156.21 Q123.677 1159.75 123.677 1166.88 Q123.677 1173.99 125.482 1177.55 Q127.311 1181.09 130.922 1181.09 Q134.556 1181.09 136.362 1177.55 Q138.191 1173.99 138.191 1166.88 Q138.191 1159.75 136.362 1156.21 Q134.556 1152.64 130.922 1152.64 M130.922 1148.94 Q136.732 1148.94 139.788 1153.55 Q142.867 1158.13 142.867 1166.88 Q142.867 1175.61 139.788 1180.21 Q136.732 1184.8 130.922 1184.8 Q125.112 1184.8 122.033 1180.21 Q118.978 1175.61 118.978 1166.88 Q118.978 1158.13 122.033 1153.55 Q125.112 1148.94 130.922 1148.94 Z" fill="#000000" fill-rule="nonzero" fill-opacity="1" /><path clip-path="url(#clip320)" d="M121.964 989.765 L140.32 989.765 L140.32 993.7 L126.246 993.7 L126.246 1002.17 Q127.265 1001.83 128.283 1001.66 Q129.302 1001.48 130.32 1001.48 Q136.107 1001.48 139.487 1004.65 Q142.867 1007.82 142.867 1013.24 Q142.867 1018.82 139.394 1021.92 Q135.922 1025 129.603 1025 Q127.427 1025 125.158 1024.63 Q122.913 1024.26 120.506 1023.51 L120.506 1018.82 Q122.589 1019.95 124.811 1020.51 Q127.033 1021.06 129.51 1021.06 Q133.515 1021.06 135.853 1018.95 Q138.191 1016.85 138.191 1013.24 Q138.191 1009.63 135.853 1007.52 Q133.515 1005.41 129.51 1005.41 Q127.635 1005.41 125.76 1005.83 Q123.908 1006.25 121.964 1007.13 L121.964 989.765 Z" fill="#000000" fill-rule="nonzero" fill-opacity="1" /><path clip-path="url(#clip320)" d="M91.5706 860.589 L99.2095 860.589 L99.2095 834.223 L90.8993 835.89 L90.8993 831.631 L99.1632 829.964 L103.839 829.964 L103.839 860.589 L111.478 860.589 L111.478 864.524 L91.5706 864.524 L91.5706 860.589 Z" fill="#000000" fill-rule="nonzero" fill-opacity="1" /><path clip-path="url(#clip320)" d="M130.922 833.043 Q127.311 833.043 125.482 836.608 Q123.677 840.149 123.677 847.279 Q123.677 854.385 125.482 857.95 Q127.311 861.492 130.922 861.492 Q134.556 861.492 136.362 857.95 Q138.191 854.385 138.191 847.279 Q138.191 840.149 136.362 836.608 Q134.556 833.043 130.922 833.043 M130.922 829.339 Q136.732 829.339 139.788 833.946 Q142.867 838.529 142.867 847.279 Q142.867 856.006 139.788 860.612 Q136.732 865.195 130.922 865.195 Q125.112 865.195 122.033 860.612 Q118.978 856.006 118.978 847.279 Q118.978 838.529 122.033 833.946 Q125.112 829.339 130.922 829.339 Z" fill="#000000" fill-rule="nonzero" fill-opacity="1" /><polyline clip-path="url(#clip323)" style="stroke:#009af9; stroke-linecap:round; stroke-linejoin:round; stroke-width:4; stroke-opacity:1; fill:none" points="240.392,1134.89 242.445,1098.96 244.498,1129.79 246.55,1157.85 248.603,1172.85 250.656,1167.15 252.709,1168.02 254.762,1170.32 256.815,1163.82 258.868,1156.8 260.921,1108.9 262.974,1342.47 265.027,1225.26 267.079,1144.48 269.132,1161.68 271.185,1173.3 273.238,1169.23 275.291,1066.44 277.344,1156.84 279.397,1031.24 281.45,984.674 283.503,1229.91 285.555,1187.96 287.608,1111.99 289.661,1225.04 291.714,1134.01 293.767,1146.93 295.82,1168.98 297.873,1020.91 299.926,944.433 301.979,1152.45 304.031,1083.87 306.084,1138.98 308.137,1132.08 310.19,1191.52 312.243,1181.95 314.296,1137.02 316.349,1196.66 318.402,1244.51 320.455,1245.77 322.507,1081.9 324.56,1195.72 326.613,1146.39 328.666,1160.89 330.719,1156.95 332.772,1156.6 334.825,1118.75 336.878,1386.03 338.931,1082.41 340.984,1220.24 343.036,1295.81 345.089,1934.48 347.142,4704.86 349.195,-7371.51 351.248,6160.79 353.301,3187.63 355.354,203.538 357.407,1252.73 359.46,1092.91 361.512,1382.92 363.565,924.281 365.618,1649.96 367.671,327.77 369.724,1850.07 371.777,818.645 373.83,1481.67 375.883,1167.91 377.936,990.83 379.988,1204.01 382.041,1226.75 384.094,1088.01 386.147,1048.77 388.2,1226.61 390.253,1305.08 392.306,713.253 394.359,1175.5 396.412,1106.33 398.464,633.695 400.517,1342.11 402.57,1351.21 404.623,1332.78 406.676,1365.96 408.729,2985.43 410.782,3585.27 412.835,970.729 414.888,1770.94 416.94,1755.16 418.993,317.625 421.046,429.843 423.099,1022.3 425.152,526.082 427.205,1252.61 429.258,987.469 431.311,1334.83 433.364,1553.37 435.417,1200.74 437.469,1336.66 439.522,1294.12 441.575,1208.57 443.628,1170.42 445.681,1318.07 447.734,1242.7 449.787,1210.29 451.84,1104.09 453.893,1149.03 455.945,1233.35 457.998,1096.36 460.051,1198.44 462.104,1162.46 464.157,1183.4 466.21,1224.67 468.263,1205.15 470.316,1124.12 472.369,1202.3 474.421,1173.36 476.474,1169.08 478.527,1153.14 480.58,1229.84 482.633,1101 484.686,1161.18 486.739,1159.88 488.792,1188.45 490.845,1196.09 492.897,1279.62 494.95,1179.78 497.003,1224.13 499.056,1126.1 501.109,1237.18 503.162,1121.14 505.215,1228.86 507.268,1159.5 509.321,1218.21 511.374,1180.08 513.426,1152.96 515.479,1200.72 517.532,1174.68 519.585,1161 521.638,1269.94 523.691,1013.84 525.744,1169.84 527.797,1178.01 529.85,1318.19 531.902,1319.87 533.955,1202.04 536.008,1126.89 538.061,1056.2 540.114,1257.58 542.167,1074.47 544.22,1225.74 546.273,1106.71 548.326,982.05 550.378,1376.56 552.431,1133.91 554.484,1194.73 556.537,1133.67 558.59,1151.68 560.643,1208 562.696,1151.67 564.749,1147.78 566.802,1170.48 568.854,1192.19 570.907,1160.14 572.96,1141.58 575.013,1141.59 577.066,1218.29 579.119,1162.39 581.172,1199.02 583.225,1179.9 585.278,1117.41 587.331,1160.05 589.383,1151.36 591.436,1144.89 593.489,1162.35 595.542,1204.74 597.595,1203.69 599.648,1190.35 601.701,1133.67 603.754,1127.03 605.807,1168.25 607.859,1189.85 609.912,1084.82 611.965,1284.32 614.018,1199.52 616.071,1176.1 618.124,1060.65 620.177,760.307 622.23,1197.03 624.283,858.665 626.335,927.827 628.388,1479.32 630.441,1355.91 632.494,1237.04 634.547,1232.48 636.6,1165.01 638.653,1183.91 640.706,1176.13 642.759,1162.36 644.811,1219.03 646.864,1213.78 648.917,1123.1 650.97,1107.82 653.023,1181.26 655.076,1144.33 657.129,1152.91 659.182,1132.13 661.235,1094.57 663.288,1140.48 665.34,1143.3 667.393,1263.89 669.446,1041.81 671.499,1306.26 673.552,1202.16 675.605,1137.25 677.658,1236.48 679.711,1084.81 681.764,1143.42 683.816,1120.85 685.869,1183.97 687.922,1122.49 689.975,1199.16 692.028,1136.34 694.081,1206.38 696.134,1201.12 698.187,1132.59 700.24,1165.49 702.292,1180.27 704.345,1133.28 706.398,1189.32 708.451,1146.77 710.504,1154.93 712.557,1180.12 714.61,1166.08 716.663,1167.39 718.716,1166.52 720.768,1153.7 722.821,1166.06 724.874,1209.8 726.927,1113.9 728.98,1139.92 731.033,1176.19 733.086,1171.73 735.139,1475.04 737.192,866.463 739.245,1061.64 741.297,1101.9 743.35,1065.47 745.403,1002.09 747.456,966.665 749.509,1156.09 751.562,1109.85 753.615,1296.8 755.668,1196.14 757.721,935.502 759.773,1228.14 761.826,1160.59 763.879,1184.18 765.932,1132.06 767.985,1191.98 770.038,1061.31 772.091,1282.55 774.144,1255.78 776.197,1300.57 778.249,1205.97 780.302,1195.76 782.355,1067.47 784.408,1269.21 786.461,1157.14 788.514,1153.53 790.567,1169.23 792.62,1187.05 794.673,1056.58 796.725,1141.5 798.778,1147.17 800.831,1133.52 802.884,1157.43 804.937,1180.46 806.99,1188.97 809.043,1159.72 811.096,1149.28 813.149,1188.23 815.202,1168.31 817.254,1158.63 819.307,1185.59 821.36,1185.06 823.413,1213.52 825.466,1141.76 827.519,1169.82 829.572,1145.39 831.625,1199.54 833.678,1066.62 835.73,1241.94 837.783,1202.08 839.836,1102.08 841.889,1127.22 843.942,1196.62 845.995,1235.48 848.048,1049.45 850.101,1202.62 852.154,1144.48 854.206,1227.8 856.259,1383.35 858.312,960.731 860.365,1036.3 862.418,1146.78 864.471,1090.82 866.524,1138.24 868.577,1194.33 870.63,1164.46 872.682,1176.51 874.735,1183.84 876.788,1196.96 878.841,1222.43 880.894,1198.23 882.947,1048.71 885,1186.51 887.053,1204.41 889.106,1135.01 891.159,1114.87 893.211,1230.57 895.264,1175.8 897.317,1155.41 899.37,1171.67 901.423,1159.33 903.476,1187.63 905.529,1149.72 907.582,1198.85 909.635,1161.87 911.687,1095.96 913.74,1122.48 915.793,1186.98 917.846,1192.11 919.899,1131.92 921.952,743.362 924.005,1197.65 926.058,1097.45 928.111,1170.88 930.163,1156.68 932.216,1093.38 934.269,1169.56 936.322,1167.01 938.375,1164.46 940.428,1163.03 942.481,1126.01 944.534,1247.89 946.587,1116.81 948.639,1179.24 950.692,1094.18 952.745,1147.04 954.798,1218.53 956.851,1175.16 958.904,1162.29 960.957,1183.68 963.01,1005.47 965.063,1142.42 967.116,1199.46 969.168,1164.48 971.221,1135.95 973.274,1189 975.327,1248.04 977.38,1081.22 979.433,1441.83 981.486,1251.23 983.539,1223.95 985.592,1172.11 987.644,1173.78 989.697,1169.81 991.75,1137.48 993.803,1177.69 995.856,1298.78 997.909,1127.27 999.962,1148.56 1002.01,1184.82 1004.07,1178.95 1006.12,1183.34 1008.17,1228.39 1010.23,1136.56 1012.28,1156.39 1014.33,1152.38 1016.38,1211.05 1018.44,1133.95 1020.49,1256.82 1022.54,1174.65 1024.6,1178.35 1026.65,1167.62 1028.7,1232.83 1030.76,979.563 1032.81,1232.06 1034.86,1103.84 1036.91,1145.74 1038.97,1159.19 1041.02,1254.99 1043.07,1073.24 1045.13,1137.12 1047.18,1193.68 1049.23,1150.44 1051.28,1208.82 1053.34,1196.22 1055.39,1086.82 1057.44,1199.66 1059.5,1123.07 1061.55,1140.78 1063.6,1134.41 1065.65,1157.58 1067.71,1166.23 1069.76,1203.58 1071.81,1162.02 1073.87,1162.11 1075.92,1158.79 1077.97,1191.26 1080.02,1180.43 1082.08,1089.9 1084.13,1206.53 1086.18,1179.72 1088.24,1187.8 1090.29,1232.09 1092.34,1172.34 1094.39,1144.71 1096.45,1153.54 1098.5,1141.06 1100.55,1111.87 1102.61,1201.82 1104.66,1151.37 1106.71,1171.16 1108.77,924.032 1110.82,967.439 1112.87,1709.87 1114.92,2020.02 1116.98,1232.05 1119.03,1538.45 1121.08,1928.95 1123.14,1147.41 1125.19,1468.61 1127.24,811.161 1129.29,951.153 1131.35,1321.46 1133.4,1212.92 1135.45,1139.33 1137.51,1177.81 1139.56,1151.14 1141.61,1196.13 1143.66,1158.23 1145.72,1203.66 1147.77,1149.08 1149.82,1156.29 1151.88,1206.96 1153.93,1246.41 1155.98,1098.16 1158.03,1161.15 1160.09,1326.26 1162.14,1181.94 1164.19,908.678 1166.25,-7777.8 1168.3,9057.25 1170.35,1578.32 1172.4,1107.26 1174.46,1129.92 1176.51,1180.21 1178.56,1174.14 1180.62,1136.74 1182.67,1106.02 1184.72,1261.93 1186.77,1492.91 1188.83,803.908 1190.88,1024.73 1192.93,1535 1194.99,1347.33 1197.04,1113.22 1199.09,1146.49 1201.15,1173.79 1203.2,1166.8 1205.25,1207.64 1207.3,1206.68 1209.36,1202.48 1211.41,1272.94 1213.46,1223.9 1215.52,1053.81 1217.57,1162.16 1219.62,1150.85 1221.67,1202.45 1223.73,1161.04 1225.78,1174.66 1227.83,1169.84 1229.89,1148.09 1231.94,1173.84 1233.99,1160.87 1236.04,1227.6 1238.1,1080.29 1240.15,1162.23 1242.2,1210.33 1244.26,1200.41 1246.31,1168.57 1248.36,1165.29 1250.41,1167.6 1252.47,1154.19 1254.52,1201.56 1256.57,1138.64 1258.63,1138.6 1260.68,1184.19 1262.73,1194.19 1264.78,1178.73 1266.84,1223.76 1268.89,1164.79 1270.94,1206.07 1273,1169.33 1275.05,1165.31 1277.1,1167.31 1279.16,1270.42 1281.21,1207.38 1283.26,1316.43 1285.31,1222.96 1287.37,1181.39 1289.42,1161.53 1291.47,1205.98 1293.53,1147.94 1295.58,1159.13 1297.63,1192.83 1299.68,1184.26 1301.74,1133.63 1303.79,1103.19 1305.84,1186.47 1307.9,1183.42 1309.95,1157.76 1312,1075.63 1314.05,1386.3 1316.11,167.183 1318.16,980.117 1320.21,1154.79 1322.27,1168.53 1324.32,1287.11 1326.37,1199.31 1328.42,1230.03 1330.48,1226.45 1332.53,1236.33 1334.58,1200.47 1336.64,1140.34 1338.69,990.239 1340.74,1160.71 1342.79,1158.04 1344.85,1126.52 1346.9,1168.98 1348.95,1158.34 1351.01,1154.13 1353.06,1181.51 1355.11,1052.73 1357.16,1302.56 1359.22,714.768 1361.27,1176.82 1363.32,1139.86 1365.38,1135.07 1367.43,1124.35 1369.48,1101.94 1371.54,1183.71 1373.59,1043.26 1375.64,1105.53 1377.69,1123.86 1379.75,1106.32 1381.8,1223.21 1383.85,1121.62 1385.91,1211.56 1387.96,1180.3 1390.01,1270.42 1392.06,1079.94 1394.12,1053.28 1396.17,1100.11 1398.22,1267.36 1400.28,1190.01 1402.33,1166.87 1404.38,1120.3 1406.43,1336.03 1408.49,1441.63 1410.54,1181.11 1412.59,1168.96 1414.65,1169.73 1416.7,1150.64 1418.75,323.808 1420.8,71.8769 1422.86,714.106 1424.91,3626.81 1426.96,2940.69 1429.02,615.857 1431.07,126.495 1433.12,-2065.19 1435.17,-4008.08 1437.23,1151.75 1439.28,930.063 1441.33,1519.61 1443.39,3879.07 1445.44,-1058.2 1447.49,425.05 1449.55,1410.4 1451.6,1073.43 1453.65,1048.34 1455.7,1211.31 1457.76,1378.43 1459.81,1235.64 1461.86,1112.35 1463.92,1201.53 1465.97,1154.74 1468.02,1179.8 1470.07,988.202 1472.13,1521.32 1474.18,1030.25 1476.23,1142.39 1478.29,1165.43 1480.34,1166.45 1482.39,1164.26 1484.44,1172.57 1486.5,1138.19 1488.55,1120.66 1490.6,1171.41 1492.66,1187.42 1494.71,1161.57 1496.76,1201.97 1498.81,1154.58 1500.87,1087.49 1502.92,1301.14 1504.97,1157.51 1507.03,1180.05 1509.08,1224.61 1511.13,1172.82 1513.18,1286.68 1515.24,1187.75 1517.29,1166.29 1519.34,1177.04 1521.4,1174.84 1523.45,1145.52 1525.5,1176.22 1527.55,1198.06 1529.61,1154.53 1531.66,1201.13 1533.71,1116.9 1535.77,1203.63 1537.82,1214.29 1539.87,1164.78 1541.93,995.417 1543.98,1557.69 1546.03,981.455 1548.08,1201.27 1550.14,1170.08 1552.19,1176.81 1554.24,1217.45 1556.3,978.01 1558.35,1091.06 1560.4,1115.96 1562.45,1169.45 1564.51,1148.42 1566.56,1126.7 1568.61,1127.23 1570.67,1352.05 1572.72,1220.19 1574.77,1222.02 1576.82,1128.82 1578.88,1187.06 1580.93,1177.35 1582.98,1109.75 1585.04,1077.19 1587.09,804.656 1589.14,1034.54 1591.19,1132.38 1593.25,1148.4 1595.3,1123.95 1597.35,1172.57 1599.41,1214.82 1601.46,1134.12 1603.51,1243.99 1605.56,1203.74 1607.62,1208.23 1609.67,1203.39 1611.72,1120.4 1613.78,1145.01 1615.83,1147.23 1617.88,1158.48 1619.94,1154.29 1621.99,1157.78 1624.04,1187.67 1626.09,1168.97 1628.15,1165.09 1630.2,1171.79 1632.25,1171.7 1634.31,1171.66 1636.36,1191.25 1638.41,1164.96 1640.46,1166.43 1642.52,1202.53 1644.57,1140.45 1646.62,1182.17 1648.68,1193.36 1650.73,1216.31 1652.78,1230.11 1654.83,1163.58 1656.89,1170.05 1658.94,1189.05 1660.99,1163.55 1663.05,1178.72 1665.1,1104.03 1667.15,1171.91 1669.2,1187.37 1671.26,1185.66 1673.31,1261.04 1675.36,1182.66 1677.42,1128.84 1679.47,1220.15 1681.52,1145.64 1683.57,1179.35 1685.63,1171.35 1687.68,1111.78 1689.73,1073.08 1691.79,1190.54 1693.84,993.704 1695.89,1214.63 1697.94,1112.68 1700,1092.84 1702.05,1191.13 1704.1,1150.03 1706.16,1158.57 1708.21,1171.41 1710.26,1181.32 1712.32,1191.09 1714.37,1171.19 1716.42,1199.02 1718.47,1185.25 1720.53,1178.68 1722.58,1107.05 1724.63,930.34 1726.69,1322.6 1728.74,1140.31 1730.79,1128.08 1732.84,1173.1 1734.9,1155.93 1736.95,1165.95 1739,1188.55 1741.06,1188.88 1743.11,1203.24 1745.16,1151.53 1747.21,1159.14 1749.27,1087.95 1751.32,1184.05 1753.37,1175.62 1755.43,1185.85 1757.48,1183.17 1759.53,1196.56 1761.58,1287.79 1763.64,1189.23 1765.69,1757.27 1767.74,767.116 1769.8,1192.16 1771.85,1117.11 1773.9,1072.08 1775.95,1130.96 1778.01,1187.19 1780.06,1186.28 1782.11,1180.36 1784.17,921.339 1786.22,1068.74 1788.27,1167.34 1790.33,1165.54 1792.38,1062.55 1794.43,1144.11 1796.48,1143.81 1798.54,1221.74 1800.59,1218.45 1802.64,1127.5 1804.7,1138 1806.75,1190.43 1808.8,1178.8 1810.85,1188.36 1812.91,1145.63 1814.96,1190.38 1817.01,1144.36 1819.07,1190.54 1821.12,982.046 1823.17,1253.78 1825.22,1328.59 1827.28,1172.66 1829.33,618.996 1831.38,780.193 1833.44,1895.69 1835.49,1388.74 1837.54,1161.99 1839.59,1027.9 1841.65,967.617 1843.7,1061.89 1845.75,1275.68 1847.81,1061.52 1849.86,1006.25 1851.91,933.432 1853.96,1342 1856.02,1326.35 1858.07,1294.85 1860.12,1111.92 1862.18,1206.04 1864.23,1084.45 1866.28,1185.1 1868.34,1137.31 1870.39,1149.38 1872.44,1182.3 1874.49,1179.96 1876.55,1134.07 1878.6,1187.49 1880.65,1149.49 1882.71,1128.93 1884.76,1141.58 1886.81,1193.06 1888.86,1150.66 1890.92,1250.68 1892.97,1266.22 1895.02,235.197 1897.08,1372.64 1899.13,467.14 1901.18,1322.9 1903.23,1091.62 1905.29,1184.29 1907.34,1102.44 1909.39,1157.84 1911.45,1049.21 1913.5,1203.92 1915.55,1197 1917.6,1161.94 1919.66,1151.47 1921.71,1272.27 1923.76,1313.66 1925.82,1116.5 1927.87,1281.55 1929.92,1162.08 1931.97,1177.09 1934.03,1158.04 1936.08,1176.62 1938.13,1243.6 1940.19,1237.1 1942.24,1111.22 1944.29,1120.02 1946.34,549.63 1948.4,1077.9 1950.45,1098.61 1952.5,1056.19 1954.56,1229.17 1956.61,1171.38 1958.66,1175.89 1960.72,1195.91 1962.77,1171.56 1964.82,1172.13 1966.87,1150.3 1968.93,1176.04 1970.98,1125.03 1973.03,1216.06 1975.09,1138.54 1977.14,1201.84 1979.19,1168.84 1981.24,1211.76 1983.3,1142.97 1985.35,1326.89 1987.4,1166.25 1989.46,1163.99 1991.51,1147.74 1993.56,1160.88 1995.61,1192.98 1997.67,1175.48 1999.72,1167.28 2001.77,1146.31 2003.83,1143.08 2005.88,1126.51 2007.93,1208.14 2009.98,1188.13 2012.04,1131.06 2014.09,1135.73 2016.14,1248.91 2018.2,1157.81 2020.25,1164.49 2022.3,1221.46 2024.35,1108.54 2026.41,1138.44 2028.46,1200.66 2030.51,1174.85 2032.57,1068.46 2034.62,1202.74 2036.67,1199.25 2038.73,1080.7 2040.78,1120.9 2042.83,1150.78 2044.88,1152.14 2046.94,1180.71 2048.99,1170.12 2051.04,1131.15 2053.1,1188.9 2055.15,1223.7 2057.2,1152.78 2059.25,1152.57 2061.31,1170.44 2063.36,1211.71 2065.41,1212.66 2067.47,1117.86 2069.52,1072.94 2071.57,1146.32 2073.62,1164.5 2075.68,1168.19 2077.73,1169.39 2079.78,1183.64 2081.84,1157.12 2083.89,1075.31 2085.94,1153.58 2087.99,1134.77 2090.05,1022.05 2092.1,1313.95 2094.15,1435.83 2096.21,1153.32 2098.26,1215.35 2100.31,1176.3 2102.36,1132.87 2104.42,1178.82 2106.47,1043.59 2108.52,1299.79 2110.58,1062.41 2112.63,1016.26 2114.68,1275.02 2116.73,1153.68 2118.79,1162.92 2120.84,1168.04 2122.89,1160.79 2124.95,1190.85 2127,1134.98 2129.05,1178.65 2131.11,1169.84 2133.16,1121.95 2135.21,1176.15 2137.26,1142.93 2139.32,1167.54 2141.37,1160.94 2143.42,1123.78 2145.48,1289.93 2147.53,1115.75 2149.58,1013.96 2151.63,1165.91 2153.69,1210.89 2155.74,1161.58 2157.79,1169.36 2159.85,1131.03 2161.9,1193.95 2163.95,1185.08 2166,615.393 2168.06,1086.37 2170.11,1326.35 2172.16,984.965 2174.22,923.319 2176.27,1149.31 2178.32,1141.73 2180.37,1100.24 2182.43,1088.75 2184.48,1145.66 2186.53,1186.04 2188.59,1156.62 2190.64,1165.18 2192.69,1159.31 2194.74,1166.12 2196.8,1191.52 2198.85,1189.76 2200.9,1162.51 2202.96,1167.92 2205.01,1182.16 2207.06,1179.4 2209.12,1166.05 2211.17,1158.45 2213.22,1159.76 2215.27,1168.21 2217.33,1730.65 2219.38,1265.72 2221.43,1161.49 2223.49,1162.42 2225.54,1156.78 2227.59,1186.85 2229.64,1179.59 2231.7,1184.47 2233.75,1177.96 2235.8,1117.29 2237.86,1187.59 2239.91,1192.19 2241.96,1176.13 2244.01,1179.75 2246.07,1185.17 2248.12,1178.12 2250.17,1181.6 2252.23,1168.94 2254.28,1162.74 2256.33,1156.64 2258.38,1187.17 2260.44,1188.91 2262.49,1203.63 2264.54,1200.24 2266.6,1210.75 2268.65,1153.45 2270.7,1200.73 2272.75,1191.46 2274.81,1145 2276.86,1180.12 2278.91,1171.66 2280.97,1160.36 2283.02,1449.12 2285.07,1174.98 2287.12,1147 2289.18,1119.58 2291.23,1188.48 "/>
<path clip-path="url(#clip320)" d="M1942.7 972.231 L2280.29 972.231 L2280.29 868.551 L1942.7 868.551  Z" fill="#ffffff" fill-rule="evenodd" fill-opacity="1"/>
<polyline clip-path="url(#clip320)" style="stroke:#000000; stroke-linecap:round; stroke-linejoin:round; stroke-width:4; stroke-opacity:1; fill:none" points="1942.7,972.231 2280.29,972.231 2280.29,868.551 1942.7,868.551 1942.7,972.231 "/>
<polyline clip-path="url(#clip320)" style="stroke:#009af9; stroke-linecap:round; stroke-linejoin:round; stroke-width:4; stroke-opacity:1; fill:none" points="1966.85,920.391 2111.78,920.391 "/>
<path clip-path="url(#clip320)" d="M2161.49 932.74 L2161.49 923.458 L2153.85 923.458 L2153.85 919.615 L2166.12 919.615 L2166.12 934.453 Q2163.41 936.375 2160.14 937.37 Q2156.88 938.342 2153.18 938.342 Q2145.07 938.342 2140.49 933.62 Q2135.93 928.875 2135.93 920.426 Q2135.93 911.953 2140.49 907.231 Q2145.07 902.486 2153.18 902.486 Q2156.56 902.486 2159.59 903.319 Q2162.64 904.153 2165.21 905.773 L2165.21 910.75 Q2162.62 908.551 2159.7 907.44 Q2156.79 906.328 2153.57 906.328 Q2147.23 906.328 2144.03 909.87 Q2140.86 913.412 2140.86 920.426 Q2140.86 927.416 2144.03 930.958 Q2147.23 934.5 2153.57 934.5 Q2156.05 934.5 2157.99 934.083 Q2159.94 933.643 2161.49 932.74 Z" fill="#000000" fill-rule="nonzero" fill-opacity="1" /><path clip-path="url(#clip320)" d="M2179.33 906.953 L2179.33 919.94 L2185.21 919.94 Q2188.48 919.94 2190.26 918.25 Q2192.04 916.56 2192.04 913.435 Q2192.04 910.333 2190.26 908.643 Q2188.48 906.953 2185.21 906.953 L2179.33 906.953 M2174.66 903.111 L2185.21 903.111 Q2191.02 903.111 2193.99 905.75 Q2196.97 908.365 2196.97 913.435 Q2196.97 918.551 2193.99 921.166 Q2191.02 923.782 2185.21 923.782 L2179.33 923.782 L2179.33 937.671 L2174.66 937.671 L2174.66 903.111 Z" fill="#000000" fill-rule="nonzero" fill-opacity="1" /><path clip-path="url(#clip320)" d="M2223.96 904.245 L2223.96 908.805 Q2221.3 907.532 2218.94 906.907 Q2216.58 906.282 2214.38 906.282 Q2210.56 906.282 2208.48 907.764 Q2206.42 909.245 2206.42 911.977 Q2206.42 914.268 2207.78 915.449 Q2209.17 916.606 2213.01 917.324 L2215.84 917.902 Q2221.07 918.898 2223.55 921.421 Q2226.05 923.921 2226.05 928.134 Q2226.05 933.157 2222.67 935.75 Q2219.31 938.342 2212.81 938.342 Q2210.35 938.342 2207.57 937.787 Q2204.82 937.231 2201.86 936.143 L2201.86 931.328 Q2204.7 932.926 2207.44 933.736 Q2210.17 934.546 2212.81 934.546 Q2216.81 934.546 2218.99 932.972 Q2221.16 931.398 2221.16 928.481 Q2221.16 925.935 2219.59 924.5 Q2218.04 923.064 2214.47 922.347 L2211.62 921.791 Q2206.39 920.75 2204.06 918.527 Q2201.72 916.305 2201.72 912.347 Q2201.72 907.764 2204.94 905.125 Q2208.18 902.486 2213.85 902.486 Q2216.28 902.486 2218.8 902.926 Q2221.32 903.366 2223.96 904.245 Z" fill="#000000" fill-rule="nonzero" fill-opacity="1" /><path clip-path="url(#clip320)" d="M2254.06 904.245 L2254.06 908.805 Q2251.39 907.532 2249.03 906.907 Q2246.67 906.282 2244.47 906.282 Q2240.65 906.282 2238.57 907.764 Q2236.51 909.245 2236.51 911.977 Q2236.51 914.268 2237.87 915.449 Q2239.26 916.606 2243.11 917.324 L2245.93 917.902 Q2251.16 918.898 2253.64 921.421 Q2256.14 923.921 2256.14 928.134 Q2256.14 933.157 2252.76 935.75 Q2249.4 938.342 2242.9 938.342 Q2240.44 938.342 2237.67 937.787 Q2234.91 937.231 2231.95 936.143 L2231.95 931.328 Q2234.8 932.926 2237.53 933.736 Q2240.26 934.546 2242.9 934.546 Q2246.9 934.546 2249.08 932.972 Q2251.25 931.398 2251.25 928.481 Q2251.25 925.935 2249.68 924.5 Q2248.13 923.064 2244.56 922.347 L2241.72 921.791 Q2236.49 920.75 2234.15 918.527 Q2231.81 916.305 2231.81 912.347 Q2231.81 907.764 2235.03 905.125 Q2238.27 902.486 2243.94 902.486 Q2246.37 902.486 2248.89 902.926 Q2251.42 903.366 2254.06 904.245 Z" fill="#000000" fill-rule="nonzero" fill-opacity="1" /></svg>
