<?xml version="1.0" encoding="utf-8"?>
<svg xmlns="http://www.w3.org/2000/svg" xmlns:xlink="http://www.w3.org/1999/xlink" width="600" height="400" viewBox="0 0 2400 1600">
<defs>
  <clipPath id="clip650">
    <rect x="0" y="0" width="2400" height="1600"/>
  </clipPath>
</defs>
<path clip-path="url(#clip650)" d="M0 1600 L2400 1600 L2400 0 L0 0  Z" fill="#ffffff" fill-rule="evenodd" fill-opacity="1"/>
<defs>
  <clipPath id="clip651">
    <rect x="242" y="47" width="2112" height="1377"/>
  </clipPath>
</defs>
<path clip-path="url(#clip650)" d="M178.867 686.448 L2352.76 686.448 L2352.76 47.2441 L178.867 47.2441  Z" fill="#ffffff" fill-rule="evenodd" fill-opacity="1"/>
<defs>
  <clipPath id="clip652">
    <rect x="178" y="47" width="2175" height="640"/>
  </clipPath>
</defs>
<polyline clip-path="url(#clip652)" style="stroke:#000000; stroke-linecap:round; stroke-linejoin:round; stroke-width:2; stroke-opacity:0.1; fill:none" points="238.339,686.448 238.339,47.2441 "/>
<polyline clip-path="url(#clip652)" style="stroke:#000000; stroke-linecap:round; stroke-linejoin:round; stroke-width:2; stroke-opacity:0.1; fill:none" points="751.562,686.448 751.562,47.2441 "/>
<polyline clip-path="url(#clip652)" style="stroke:#000000; stroke-linecap:round; stroke-linejoin:round; stroke-width:2; stroke-opacity:0.1; fill:none" points="1264.78,686.448 1264.78,47.2441 "/>
<polyline clip-path="url(#clip652)" style="stroke:#000000; stroke-linecap:round; stroke-linejoin:round; stroke-width:2; stroke-opacity:0.1; fill:none" points="1778.01,686.448 1778.01,47.2441 "/>
<polyline clip-path="url(#clip652)" style="stroke:#000000; stroke-linecap:round; stroke-linejoin:round; stroke-width:2; stroke-opacity:0.1; fill:none" points="2291.23,686.448 2291.23,47.2441 "/>
<polyline clip-path="url(#clip652)" style="stroke:#000000; stroke-linecap:round; stroke-linejoin:round; stroke-width:2; stroke-opacity:0.1; fill:none" points="178.867,686.448 2352.76,686.448 "/>
<polyline clip-path="url(#clip652)" style="stroke:#000000; stroke-linecap:round; stroke-linejoin:round; stroke-width:2; stroke-opacity:0.1; fill:none" points="178.867,526.647 2352.76,526.647 "/>
<polyline clip-path="url(#clip652)" style="stroke:#000000; stroke-linecap:round; stroke-linejoin:round; stroke-width:2; stroke-opacity:0.1; fill:none" points="178.867,366.846 2352.76,366.846 "/>
<polyline clip-path="url(#clip652)" style="stroke:#000000; stroke-linecap:round; stroke-linejoin:round; stroke-width:2; stroke-opacity:0.1; fill:none" points="178.867,207.045 2352.76,207.045 "/>
<polyline clip-path="url(#clip652)" style="stroke:#000000; stroke-linecap:round; stroke-linejoin:round; stroke-width:2; stroke-opacity:0.1; fill:none" points="178.867,47.2441 2352.76,47.2441 "/>
<polyline clip-path="url(#clip650)" style="stroke:#000000; stroke-linecap:round; stroke-linejoin:round; stroke-width:4; stroke-opacity:1; fill:none" points="178.867,686.448 2352.76,686.448 "/>
<polyline clip-path="url(#clip650)" style="stroke:#000000; stroke-linecap:round; stroke-linejoin:round; stroke-width:4; stroke-opacity:1; fill:none" points="238.339,686.448 238.339,667.55 "/>
<polyline clip-path="url(#clip650)" style="stroke:#000000; stroke-linecap:round; stroke-linejoin:round; stroke-width:4; stroke-opacity:1; fill:none" points="751.562,686.448 751.562,667.55 "/>
<polyline clip-path="url(#clip650)" style="stroke:#000000; stroke-linecap:round; stroke-linejoin:round; stroke-width:4; stroke-opacity:1; fill:none" points="1264.78,686.448 1264.78,667.55 "/>
<polyline clip-path="url(#clip650)" style="stroke:#000000; stroke-linecap:round; stroke-linejoin:round; stroke-width:4; stroke-opacity:1; fill:none" points="1778.01,686.448 1778.01,667.55 "/>
<polyline clip-path="url(#clip650)" style="stroke:#000000; stroke-linecap:round; stroke-linejoin:round; stroke-width:4; stroke-opacity:1; fill:none" points="2291.23,686.448 2291.23,667.55 "/>
<path clip-path="url(#clip650)" d="M238.339 717.367 Q234.728 717.367 232.899 720.931 Q231.094 724.473 231.094 731.603 Q231.094 738.709 232.899 742.274 Q234.728 745.815 238.339 745.815 Q241.973 745.815 243.779 742.274 Q245.607 738.709 245.607 731.603 Q245.607 724.473 243.779 720.931 Q241.973 717.367 238.339 717.367 M238.339 713.663 Q244.149 713.663 247.205 718.269 Q250.283 722.853 250.283 731.603 Q250.283 740.329 247.205 744.936 Q244.149 749.519 238.339 749.519 Q232.529 749.519 229.45 744.936 Q226.395 740.329 226.395 731.603 Q226.395 722.853 229.45 718.269 Q232.529 713.663 238.339 713.663 Z" fill="#000000" fill-rule="nonzero" fill-opacity="1" /><path clip-path="url(#clip650)" d="M715.254 744.913 L731.574 744.913 L731.574 748.848 L709.629 748.848 L709.629 744.913 Q712.291 742.158 716.875 737.528 Q721.481 732.876 722.662 731.533 Q724.907 729.01 725.787 727.274 Q726.689 725.515 726.689 723.825 Q726.689 721.07 724.745 719.334 Q722.824 717.598 719.722 717.598 Q717.523 717.598 715.069 718.362 Q712.638 719.126 709.861 720.677 L709.861 715.955 Q712.685 714.82 715.138 714.242 Q717.592 713.663 719.629 713.663 Q725 713.663 728.194 716.348 Q731.388 719.033 731.388 723.524 Q731.388 725.654 730.578 727.575 Q729.791 729.473 727.685 732.066 Q727.106 732.737 724.004 735.954 Q720.902 739.149 715.254 744.913 Z" fill="#000000" fill-rule="nonzero" fill-opacity="1" /><path clip-path="url(#clip650)" d="M741.435 714.288 L759.791 714.288 L759.791 718.223 L745.717 718.223 L745.717 726.695 Q746.736 726.348 747.754 726.186 Q748.773 726.001 749.791 726.001 Q755.578 726.001 758.958 729.172 Q762.337 732.343 762.337 737.76 Q762.337 743.339 758.865 746.44 Q755.393 749.519 749.073 749.519 Q746.898 749.519 744.629 749.149 Q742.384 748.778 739.976 748.038 L739.976 743.339 Q742.06 744.473 744.282 745.028 Q746.504 745.584 748.981 745.584 Q752.985 745.584 755.323 743.478 Q757.661 741.371 757.661 737.76 Q757.661 734.149 755.323 732.042 Q752.985 729.936 748.981 729.936 Q747.106 729.936 745.231 730.353 Q743.379 730.769 741.435 731.649 L741.435 714.288 Z" fill="#000000" fill-rule="nonzero" fill-opacity="1" /><path clip-path="url(#clip650)" d="M781.55 717.367 Q777.939 717.367 776.11 720.931 Q774.305 724.473 774.305 731.603 Q774.305 738.709 776.11 742.274 Q777.939 745.815 781.55 745.815 Q785.184 745.815 786.99 742.274 Q788.819 738.709 788.819 731.603 Q788.819 724.473 786.99 720.931 Q785.184 717.367 781.55 717.367 M781.55 713.663 Q787.36 713.663 790.416 718.269 Q793.495 722.853 793.495 731.603 Q793.495 740.329 790.416 744.936 Q787.36 749.519 781.55 749.519 Q775.74 749.519 772.661 744.936 Q769.606 740.329 769.606 731.603 Q769.606 722.853 772.661 718.269 Q775.74 713.663 781.55 713.663 Z" fill="#000000" fill-rule="nonzero" fill-opacity="1" /><path clip-path="url(#clip650)" d="M1224.4 714.288 L1242.76 714.288 L1242.76 718.223 L1228.69 718.223 L1228.69 726.695 Q1229.7 726.348 1230.72 726.186 Q1231.74 726.001 1232.76 726.001 Q1238.55 726.001 1241.93 729.172 Q1245.31 732.343 1245.31 737.76 Q1245.31 743.339 1241.83 746.44 Q1238.36 749.519 1232.04 749.519 Q1229.87 749.519 1227.6 749.149 Q1225.35 748.778 1222.94 748.038 L1222.94 743.339 Q1225.03 744.473 1227.25 745.028 Q1229.47 745.584 1231.95 745.584 Q1235.95 745.584 1238.29 743.478 Q1240.63 741.371 1240.63 737.76 Q1240.63 734.149 1238.29 732.042 Q1235.95 729.936 1231.95 729.936 Q1230.07 729.936 1228.2 730.353 Q1226.35 730.769 1224.4 731.649 L1224.4 714.288 Z" fill="#000000" fill-rule="nonzero" fill-opacity="1" /><path clip-path="url(#clip650)" d="M1264.52 717.367 Q1260.91 717.367 1259.08 720.931 Q1257.27 724.473 1257.27 731.603 Q1257.27 738.709 1259.08 742.274 Q1260.91 745.815 1264.52 745.815 Q1268.15 745.815 1269.96 742.274 Q1271.79 738.709 1271.79 731.603 Q1271.79 724.473 1269.96 720.931 Q1268.15 717.367 1264.52 717.367 M1264.52 713.663 Q1270.33 713.663 1273.38 718.269 Q1276.46 722.853 1276.46 731.603 Q1276.46 740.329 1273.38 744.936 Q1270.33 749.519 1264.52 749.519 Q1258.71 749.519 1255.63 744.936 Q1252.57 740.329 1252.57 731.603 Q1252.57 722.853 1255.63 718.269 Q1258.71 713.663 1264.52 713.663 Z" fill="#000000" fill-rule="nonzero" fill-opacity="1" /><path clip-path="url(#clip650)" d="M1294.68 717.367 Q1291.07 717.367 1289.24 720.931 Q1287.44 724.473 1287.44 731.603 Q1287.44 738.709 1289.24 742.274 Q1291.07 745.815 1294.68 745.815 Q1298.31 745.815 1300.12 742.274 Q1301.95 738.709 1301.95 731.603 Q1301.95 724.473 1300.12 720.931 Q1298.31 717.367 1294.68 717.367 M1294.68 713.663 Q1300.49 713.663 1303.55 718.269 Q1306.62 722.853 1306.62 731.603 Q1306.62 740.329 1303.55 744.936 Q1300.49 749.519 1294.68 749.519 Q1288.87 749.519 1285.79 744.936 Q1282.74 740.329 1282.74 731.603 Q1282.74 722.853 1285.79 718.269 Q1288.87 713.663 1294.68 713.663 Z" fill="#000000" fill-rule="nonzero" fill-opacity="1" /><path clip-path="url(#clip650)" d="M1736.28 714.288 L1758.51 714.288 L1758.51 716.279 L1745.96 748.848 L1741.08 748.848 L1752.88 718.223 L1736.28 718.223 L1736.28 714.288 Z" fill="#000000" fill-rule="nonzero" fill-opacity="1" /><path clip-path="url(#clip650)" d="M1767.67 714.288 L1786.03 714.288 L1786.03 718.223 L1771.95 718.223 L1771.95 726.695 Q1772.97 726.348 1773.99 726.186 Q1775.01 726.001 1776.03 726.001 Q1781.82 726.001 1785.2 729.172 Q1788.57 732.343 1788.57 737.76 Q1788.57 743.339 1785.1 746.44 Q1781.63 749.519 1775.31 749.519 Q1773.14 749.519 1770.87 749.149 Q1768.62 748.778 1766.21 748.038 L1766.21 743.339 Q1768.3 744.473 1770.52 745.028 Q1772.74 745.584 1775.22 745.584 Q1779.22 745.584 1781.56 743.478 Q1783.9 741.371 1783.9 737.76 Q1783.9 734.149 1781.56 732.042 Q1779.22 729.936 1775.22 729.936 Q1773.34 729.936 1771.47 730.353 Q1769.62 730.769 1767.67 731.649 L1767.67 714.288 Z" fill="#000000" fill-rule="nonzero" fill-opacity="1" /><path clip-path="url(#clip650)" d="M1807.79 717.367 Q1804.18 717.367 1802.35 720.931 Q1800.54 724.473 1800.54 731.603 Q1800.54 738.709 1802.35 742.274 Q1804.18 745.815 1807.79 745.815 Q1811.42 745.815 1813.23 742.274 Q1815.06 738.709 1815.06 731.603 Q1815.06 724.473 1813.23 720.931 Q1811.42 717.367 1807.79 717.367 M1807.79 713.663 Q1813.6 713.663 1816.65 718.269 Q1819.73 722.853 1819.73 731.603 Q1819.73 740.329 1816.65 744.936 Q1813.6 749.519 1807.79 749.519 Q1801.98 749.519 1798.9 744.936 Q1795.84 740.329 1795.84 731.603 Q1795.84 722.853 1798.9 718.269 Q1801.98 713.663 1807.79 713.663 Z" fill="#000000" fill-rule="nonzero" fill-opacity="1" /><path clip-path="url(#clip650)" d="M2235.76 744.913 L2243.4 744.913 L2243.4 718.547 L2235.09 720.214 L2235.09 715.955 L2243.35 714.288 L2248.02 714.288 L2248.02 744.913 L2255.66 744.913 L2255.66 748.848 L2235.76 748.848 L2235.76 744.913 Z" fill="#000000" fill-rule="nonzero" fill-opacity="1" /><path clip-path="url(#clip650)" d="M2275.11 717.367 Q2271.5 717.367 2269.67 720.931 Q2267.86 724.473 2267.86 731.603 Q2267.86 738.709 2269.67 742.274 Q2271.5 745.815 2275.11 745.815 Q2278.74 745.815 2280.55 742.274 Q2282.38 738.709 2282.38 731.603 Q2282.38 724.473 2280.55 720.931 Q2278.74 717.367 2275.11 717.367 M2275.11 713.663 Q2280.92 713.663 2283.97 718.269 Q2287.05 722.853 2287.05 731.603 Q2287.05 740.329 2283.97 744.936 Q2280.92 749.519 2275.11 749.519 Q2269.3 749.519 2266.22 744.936 Q2263.16 740.329 2263.16 731.603 Q2263.16 722.853 2266.22 718.269 Q2269.3 713.663 2275.11 713.663 Z" fill="#000000" fill-rule="nonzero" fill-opacity="1" /><path clip-path="url(#clip650)" d="M2305.27 717.367 Q2301.66 717.367 2299.83 720.931 Q2298.02 724.473 2298.02 731.603 Q2298.02 738.709 2299.83 742.274 Q2301.66 745.815 2305.27 745.815 Q2308.9 745.815 2310.71 742.274 Q2312.54 738.709 2312.54 731.603 Q2312.54 724.473 2310.71 720.931 Q2308.9 717.367 2305.27 717.367 M2305.27 713.663 Q2311.08 713.663 2314.14 718.269 Q2317.21 722.853 2317.21 731.603 Q2317.21 740.329 2314.14 744.936 Q2311.08 749.519 2305.27 749.519 Q2299.46 749.519 2296.38 744.936 Q2293.33 740.329 2293.33 731.603 Q2293.33 722.853 2296.38 718.269 Q2299.46 713.663 2305.27 713.663 Z" fill="#000000" fill-rule="nonzero" fill-opacity="1" /><path clip-path="url(#clip650)" d="M2335.43 717.367 Q2331.82 717.367 2329.99 720.931 Q2328.19 724.473 2328.19 731.603 Q2328.19 738.709 2329.99 742.274 Q2331.82 745.815 2335.43 745.815 Q2339.07 745.815 2340.87 742.274 Q2342.7 738.709 2342.7 731.603 Q2342.7 724.473 2340.87 720.931 Q2339.07 717.367 2335.43 717.367 M2335.43 713.663 Q2341.24 713.663 2344.3 718.269 Q2347.38 722.853 2347.38 731.603 Q2347.38 740.329 2344.3 744.936 Q2341.24 749.519 2335.43 749.519 Q2329.62 749.519 2326.54 744.936 Q2323.49 740.329 2323.49 731.603 Q2323.49 722.853 2326.54 718.269 Q2329.62 713.663 2335.43 713.663 Z" fill="#000000" fill-rule="nonzero" fill-opacity="1" /><polyline clip-path="url(#clip650)" style="stroke:#000000; stroke-linecap:round; stroke-linejoin:round; stroke-width:4; stroke-opacity:1; fill:none" points="178.867,686.448 178.867,47.2441 "/>
<polyline clip-path="url(#clip650)" style="stroke:#000000; stroke-linecap:round; stroke-linejoin:round; stroke-width:4; stroke-opacity:1; fill:none" points="178.867,686.448 197.764,686.448 "/>
<polyline clip-path="url(#clip650)" style="stroke:#000000; stroke-linecap:round; stroke-linejoin:round; stroke-width:4; stroke-opacity:1; fill:none" points="178.867,526.647 197.764,526.647 "/>
<polyline clip-path="url(#clip650)" style="stroke:#000000; stroke-linecap:round; stroke-linejoin:round; stroke-width:4; stroke-opacity:1; fill:none" points="178.867,366.846 197.764,366.846 "/>
<polyline clip-path="url(#clip650)" style="stroke:#000000; stroke-linecap:round; stroke-linejoin:round; stroke-width:4; stroke-opacity:1; fill:none" points="178.867,207.045 197.764,207.045 "/>
<polyline clip-path="url(#clip650)" style="stroke:#000000; stroke-linecap:round; stroke-linejoin:round; stroke-width:4; stroke-opacity:1; fill:none" points="178.867,47.2441 197.764,47.2441 "/>
<path clip-path="url(#clip650)" d="M50.9921 686.899 L80.6679 686.899 L80.6679 690.834 L50.9921 690.834 L50.9921 686.899 Z" fill="#000000" fill-rule="nonzero" fill-opacity="1" /><path clip-path="url(#clip650)" d="M91.5706 699.793 L99.2095 699.793 L99.2095 673.427 L90.8993 675.094 L90.8993 670.835 L99.1632 669.168 L103.839 669.168 L103.839 699.793 L111.478 699.793 L111.478 703.728 L91.5706 703.728 L91.5706 699.793 Z" fill="#000000" fill-rule="nonzero" fill-opacity="1" /><path clip-path="url(#clip650)" d="M130.922 672.247 Q127.311 672.247 125.482 675.811 Q123.677 679.353 123.677 686.483 Q123.677 693.589 125.482 697.154 Q127.311 700.695 130.922 700.695 Q134.556 700.695 136.362 697.154 Q138.191 693.589 138.191 686.483 Q138.191 679.353 136.362 675.811 Q134.556 672.247 130.922 672.247 M130.922 668.543 Q136.732 668.543 139.788 673.149 Q142.867 677.733 142.867 686.483 Q142.867 695.209 139.788 699.816 Q136.732 704.399 130.922 704.399 Q125.112 704.399 122.033 699.816 Q118.978 695.209 118.978 686.483 Q118.978 677.733 122.033 673.149 Q125.112 668.543 130.922 668.543 Z" fill="#000000" fill-rule="nonzero" fill-opacity="1" /><path clip-path="url(#clip650)" d="M82.1494 527.098 L111.825 527.098 L111.825 531.033 L82.1494 531.033 L82.1494 527.098 Z" fill="#000000" fill-rule="nonzero" fill-opacity="1" /><path clip-path="url(#clip650)" d="M121.964 509.367 L140.32 509.367 L140.32 513.302 L126.246 513.302 L126.246 521.774 Q127.265 521.427 128.283 521.265 Q129.302 521.08 130.32 521.08 Q136.107 521.08 139.487 524.251 Q142.867 527.422 142.867 532.839 Q142.867 538.418 139.394 541.52 Q135.922 544.598 129.603 544.598 Q127.427 544.598 125.158 544.228 Q122.913 543.857 120.506 543.117 L120.506 538.418 Q122.589 539.552 124.811 540.108 Q127.033 540.663 129.51 540.663 Q133.515 540.663 135.853 538.557 Q138.191 536.45 138.191 532.839 Q138.191 529.228 135.853 527.121 Q133.515 525.015 129.51 525.015 Q127.635 525.015 125.76 525.432 Q123.908 525.848 121.964 526.728 L121.964 509.367 Z" fill="#000000" fill-rule="nonzero" fill-opacity="1" /><path clip-path="url(#clip650)" d="M130.922 352.645 Q127.311 352.645 125.482 356.209 Q123.677 359.751 123.677 366.881 Q123.677 373.987 125.482 377.552 Q127.311 381.094 130.922 381.094 Q134.556 381.094 136.362 377.552 Q138.191 373.987 138.191 366.881 Q138.191 359.751 136.362 356.209 Q134.556 352.645 130.922 352.645 M130.922 348.941 Q136.732 348.941 139.788 353.547 Q142.867 358.131 142.867 366.881 Q142.867 375.608 139.788 380.214 Q136.732 384.797 130.922 384.797 Q125.112 384.797 122.033 380.214 Q118.978 375.608 118.978 366.881 Q118.978 358.131 122.033 353.547 Q125.112 348.941 130.922 348.941 Z" fill="#000000" fill-rule="nonzero" fill-opacity="1" /><path clip-path="url(#clip650)" d="M121.964 189.765 L140.32 189.765 L140.32 193.7 L126.246 193.7 L126.246 202.172 Q127.265 201.825 128.283 201.663 Q129.302 201.478 130.32 201.478 Q136.107 201.478 139.487 204.649 Q142.867 207.82 142.867 213.237 Q142.867 218.816 139.394 221.918 Q135.922 224.996 129.603 224.996 Q127.427 224.996 125.158 224.626 Q122.913 224.256 120.506 223.515 L120.506 218.816 Q122.589 219.95 124.811 220.506 Q127.033 221.061 129.51 221.061 Q133.515 221.061 135.853 218.955 Q138.191 216.848 138.191 213.237 Q138.191 209.626 135.853 207.52 Q133.515 205.413 129.51 205.413 Q127.635 205.413 125.76 205.83 Q123.908 206.246 121.964 207.126 L121.964 189.765 Z" fill="#000000" fill-rule="nonzero" fill-opacity="1" /><path clip-path="url(#clip650)" d="M91.5706 60.5889 L99.2095 60.5889 L99.2095 34.2233 L90.8993 35.89 L90.8993 31.6308 L99.1632 29.9641 L103.839 29.9641 L103.839 60.5889 L111.478 60.5889 L111.478 64.5241 L91.5706 64.5241 L91.5706 60.5889 Z" fill="#000000" fill-rule="nonzero" fill-opacity="1" /><path clip-path="url(#clip650)" d="M130.922 33.0428 Q127.311 33.0428 125.482 36.6076 Q123.677 40.1492 123.677 47.2788 Q123.677 54.3853 125.482 57.9501 Q127.311 61.4917 130.922 61.4917 Q134.556 61.4917 136.362 57.9501 Q138.191 54.3853 138.191 47.2788 Q138.191 40.1492 136.362 36.6076 Q134.556 33.0428 130.922 33.0428 M130.922 29.3391 Q136.732 29.3391 139.788 33.9456 Q142.867 38.5289 142.867 47.2788 Q142.867 56.0056 139.788 60.6121 Q136.732 65.1954 130.922 65.1954 Q125.112 65.1954 122.033 60.6121 Q118.978 56.0056 118.978 47.2788 Q118.978 38.5289 122.033 33.9456 Q125.112 29.3391 130.922 29.3391 Z" fill="#000000" fill-rule="nonzero" fill-opacity="1" /><polyline clip-path="url(#clip652)" style="stroke:#009af9; stroke-linecap:round; stroke-linejoin:round; stroke-width:4; stroke-opacity:1; fill:none" points="240.392,334.886 242.445,335.303 244.498,331.584 246.55,326.235 248.603,332.703 250.656,370.582 252.709,369.559 254.762,368.724 256.815,368.69 258.868,365.575 260.921,365.974 262.974,365.192 265.027,361.677 267.079,349.267 269.132,346.895 271.185,346.514 273.238,344.723 275.291,344.657 277.344,348.251 279.397,362.912 281.45,364.327 283.503,368.852 285.555,348.525 287.608,358.248 289.661,358.716 291.714,350.78 293.767,341.921 295.82,342.288 297.873,340.759 299.926,343.017 301.979,344.184 304.031,341.532 306.084,341.152 308.137,342.469 310.19,349.278 312.243,349.489 314.296,356.162 316.349,355.924 318.402,357.89 320.455,354.053 322.507,355.307 324.56,355.271 326.613,355.209 328.666,355.061 330.719,355.656 332.772,342.315 334.825,339.666 336.878,350.812 338.931,363.144 340.984,363.274 343.036,363.313 345.089,357.732 347.142,362.265 349.195,362.26 351.248,336.116 353.301,330.999 355.354,336.21 357.407,335.212 359.46,335.816 361.512,335.685 363.565,335.783 365.618,328.538 367.671,329.959 369.724,309.141 371.777,323.306 373.83,328.582 375.883,341.461 377.936,340.402 379.988,339.301 382.041,339.232 384.094,331.706 386.147,331.651 388.2,336.96 390.253,350.337 392.306,350.061 394.359,345.048 396.412,341.731 398.464,356.783 400.517,376.79 402.57,404.029 404.623,399.177 406.676,399.447 408.729,394.34 410.782,394.645 412.835,396.834 414.888,395.88 416.94,384.625 418.993,381.775 421.046,356.209 423.099,353.41 425.152,353.175 427.205,356.287 429.258,361.758 431.311,353.155 433.364,340.06 435.417,355.029 437.469,385.721 439.522,429.795 441.575,399.555 443.628,397.655 445.681,356.039 447.734,368.082 449.787,366.493 451.84,367.235 453.893,369.087 455.945,374.423 457.998,373.877 460.051,375.055 462.104,376.723 464.157,372.556 466.21,373.308 468.263,367.472 470.316,364.051 472.369,367.721 474.421,370.913 476.474,370.269 478.527,381.104 480.58,367.9 482.633,368.111 484.686,398.854 486.739,396.988 488.792,379.493 490.845,380.237 492.897,380.543 494.95,378.77 497.003,389.172 499.056,382.614 501.109,382.858 503.162,367.742 505.215,347.507 507.268,356.264 509.321,356.411 511.374,392.112 513.426,391.979 515.479,391.98 517.532,391.442 519.585,391.077 521.638,393.375 523.691,393.55 525.744,394.282 527.797,393.685 529.85,346.983 531.902,335.987 533.955,339.897 536.008,345.575 538.061,335.543 540.114,335.059 542.167,341.027 544.22,342.129 546.273,346.287 548.326,374.261 550.378,379.043 552.431,395.851 554.484,396.075 556.537,399.262 558.59,407.677 560.643,413.733 562.696,409.836 564.749,407.398 566.802,410.681 568.854,408.864 570.907,406.094 572.96,406.924 575.013,406.44 577.066,406.962 579.119,405.81 581.172,407.182 583.225,384.425 585.278,399.813 587.331,406.011 589.383,406.745 591.436,414.716 593.489,413.643 595.542,412.642 597.595,413.154 599.648,419.49 601.701,419.255 603.754,373.732 605.807,372.506 607.859,376.248 609.912,379.223 611.965,347.544 614.018,350.741 616.071,348.653 618.124,348.259 620.177,347.706 622.23,341.631 624.283,342.395 626.335,336.719 628.388,330.336 630.441,331.639 632.494,327.498 634.547,303.963 636.6,322.337 638.653,304.862 640.706,305.177 642.759,320.648 644.811,313.626 646.864,312.906 648.917,313.235 650.97,327.865 653.023,328.187 655.076,317.257 657.129,317.404 659.182,318.316 661.235,314.243 663.288,321.788 665.34,327.661 667.393,327.153 669.446,327.062 671.499,322.108 673.552,321.648 675.605,319.295 677.658,312.938 679.711,309.425 681.764,314.143 683.816,313.915 685.869,313.949 687.922,313.939 689.975,312.992 692.028,299.086 694.081,302.891 696.134,296.156 698.187,304.388 700.24,304.311 702.292,302.591 704.345,302.477 706.398,301.981 708.451,287.651 710.504,311.768 712.557,307.787 714.61,307.469 716.663,306.169 718.716,321.984 720.768,322.088 722.821,323.254 724.874,328.542 726.927,321.329 728.98,313.078 731.033,315.316 733.086,322.011 735.139,328.348 737.192,328.48 739.245,332.267 741.297,410.634 743.35,399.433 745.403,399.128 747.456,380.729 749.509,356.496 751.562,273.111 753.615,326.137 755.668,397.966 757.721,399.12 759.773,398.962 761.826,390.887 763.879,384.202 765.932,341.003 767.985,341.385 770.038,304.988 772.091,314.165 774.144,324.624 776.197,277.57 778.249,353.546 780.302,338.036 782.355,385.814 784.408,376.544 786.461,414.994 788.514,376.834 790.567,344.602 792.62,342.612 794.673,344.127 796.725,344.785 798.778,343.917 800.831,330.061 802.884,341.932 804.937,343.939 806.99,344.376 809.043,342.39 811.096,342.167 813.149,341.554 815.202,365.892 817.254,370.937 819.307,376.896 821.36,380.532 823.413,381.892 825.466,421.962 827.519,425.586 829.572,356.053 831.625,348.039 833.678,340.495 835.73,334.797 837.783,290.104 839.836,279.437 841.889,393.811 843.942,393.178 845.995,407.668 848.048,416.123 850.101,419.39 852.154,424.379 854.206,465.162 856.259,455.721 858.312,423.701 860.365,428.167 862.418,407.402 864.471,464.093 866.524,465.442 868.577,402.26 870.63,401.737 872.682,400.795 874.735,400.867 876.788,413.043 878.841,363.958 880.894,359.274 882.947,359.219 885,352.818 887.053,289.692 889.106,289.363 891.159,359.475 893.211,348.344 895.264,352.187 897.317,348.193 899.37,405.167 901.423,408.079 903.476,363.103 905.529,362.361 907.582,362.13 909.635,363.06 911.687,352.14 913.74,352.993 915.793,352.316 917.846,358.235 919.899,355.317 921.952,386.763 924.005,355.904 926.058,352.694 928.111,346.858 930.163,354.956 932.216,340.925 934.269,341.156 936.322,349.987 938.375,350.742 940.428,352.371 942.481,410.324 944.534,397.26 946.587,403.375 948.639,403.35 950.692,416.51 952.745,418.79 954.798,400.503 956.851,400.421 958.904,403.742 960.957,404.058 963.01,405.087 965.063,410.166 967.116,426.581 969.168,420.762 971.221,423.088 973.274,423.204 975.327,417.23 977.38,412.21 979.433,358.863 981.486,357.338 983.539,302.266 985.592,304.118 987.644,331.927 989.697,398.759 991.75,376.978 993.803,375.999 995.856,377.42 997.909,377.334 999.962,376.007 1002.01,373.216 1004.07,367.159 1006.12,367.18 1008.17,365.419 1010.23,365.226 1012.28,364.618 1014.33,345.717 1016.38,348.694 1018.44,348.62 1020.49,348.93 1022.54,347.584 1024.6,347.296 1026.65,347.477 1028.7,347.478 1030.76,351.862 1032.81,351.417 1034.86,347.587 1036.91,347.292 1038.97,346.882 1041.02,346.886 1043.07,345.99 1045.13,346.581 1047.18,380.217 1049.23,372.592 1051.28,372.379 1053.34,336.344 1055.39,372.822 1057.44,386.623 1059.5,388.46 1061.55,387.858 1063.6,388.403 1065.65,360.951 1067.71,358.459 1069.76,377.855 1071.81,374.767 1073.87,375.191 1075.92,375.182 1077.97,374.269 1080.02,379.582 1082.08,376.635 1084.13,388.992 1086.18,388.993 1088.24,388.999 1090.29,381.987 1092.34,358.503 1094.39,354.029 1096.45,342.245 1098.5,352.979 1100.55,354.386 1102.61,324.273 1104.66,302.986 1106.71,293.084 1108.77,293.628 1110.82,295.543 1112.87,298.812 1114.92,303.27 1116.98,304.043 1119.03,306.22 1121.08,321.447 1123.14,330.533 1125.19,328.704 1127.24,326.805 1129.29,328.262 1131.35,314.272 1133.4,308.089 1135.45,307.168 1137.51,307.686 1139.56,314.109 1141.61,298.828 1143.66,300.299 1145.72,312.73 1147.77,316.575 1149.82,304.216 1151.88,333.451 1153.93,338.511 1155.98,337.166 1158.03,337.153 1160.09,358.161 1162.14,359.899 1164.19,257.039 1166.25,256.807 1168.3,168.539 1170.35,167.882 1172.4,167.944 1174.46,203.978 1176.51,210.305 1178.56,209.895 1180.62,180.3 1182.67,357.716 1184.72,359.105 1186.77,382.203 1188.83,383.612 1190.88,385.693 1192.93,361.53 1194.99,362.045 1197.04,361.023 1199.09,374.463 1201.15,379.598 1203.2,379.666 1205.25,359.244 1207.3,367.686 1209.36,315.925 1211.41,315.091 1213.46,315.331 1215.52,317.922 1217.57,305.716 1219.62,318.384 1221.67,327.785 1223.73,322.847 1225.78,322.485 1227.83,292.141 1229.89,301.728 1231.94,284.512 1233.99,355.05 1236.04,339.572 1238.1,339.984 1240.15,343.266 1242.2,343.264 1244.26,343.844 1246.31,328.342 1248.36,341.843 1250.41,334.935 1252.47,333.149 1254.52,329.32 1256.57,361.245 1258.63,386.511 1260.68,353.878 1262.73,385.395 1264.78,376.748 1266.84,376.712 1268.89,383.005 1270.94,305.958 1273,304.677 1275.05,324.27 1277.1,362.885 1279.16,361.9 1281.21,381.097 1283.26,361.275 1285.31,367.424 1287.37,366.162 1289.42,371.343 1291.47,373.474 1293.53,370.968 1295.58,366.854 1297.63,365.959 1299.68,367.264 1301.74,361.601 1303.79,361.388 1305.84,375.558 1307.9,392.124 1309.95,392.247 1312,407.537 1314.05,281.635 1316.11,282.806 1318.16,238.902 1320.21,236.941 1322.27,298.95 1324.32,306.725 1326.37,326.987 1328.42,334.178 1330.48,354.51 1332.53,466.067 1334.58,524.526 1336.64,524.432 1338.69,512.49 1340.74,513.817 1342.79,483.694 1344.85,484.297 1346.9,480.051 1348.95,454.755 1351.01,421.392 1353.06,429.712 1355.11,431.6 1357.16,420.297 1359.22,409.57 1361.27,409.739 1363.32,453.709 1365.38,434.148 1367.43,423.377 1369.48,410.911 1371.54,410.204 1373.59,336.565 1375.64,405.999 1377.69,410.641 1379.75,372.785 1381.8,346.937 1383.85,563.516 1385.91,562.782 1387.96,547.366 1390.01,585.875 1392.06,485.611 1394.12,426.753 1396.17,443.186 1398.22,436.592 1400.28,408.428 1402.33,402.998 1404.38,337.809 1406.43,378.728 1408.49,391.008 1410.54,430.664 1412.59,412.657 1414.65,415.024 1416.7,418.139 1418.75,417.763 1420.8,416.062 1422.86,395.187 1424.91,405.552 1426.96,401.765 1429.02,378.544 1431.07,445.914 1433.12,394.668 1435.17,398.974 1437.23,398.655 1439.28,386.249 1441.33,390.732 1443.39,395.539 1445.44,399.379 1447.49,363.525 1449.55,357.749 1451.6,358.727 1453.65,357.462 1455.7,359.792 1457.76,339.192 1459.81,349.846 1461.86,314.476 1463.92,319.948 1465.97,325.689 1468.02,391.024 1470.07,391.08 1472.13,390.928 1474.18,392.346 1476.23,392.395 1478.29,392.917 1480.34,392.895 1482.39,397.151 1484.44,383.735 1486.5,384.648 1488.55,388.914 1490.6,361.911 1492.66,367.212 1494.71,388.022 1496.76,406.486 1498.81,405.861 1500.87,409.406 1502.92,408.368 1504.97,407.304 1507.03,293.157 1509.08,291.27 1511.13,296.341 1513.18,297.478 1515.24,297.411 1517.29,289.866 1519.34,288.969 1521.4,289.198 1523.45,372.288 1525.5,374.029 1527.55,374.146 1529.61,374.331 1531.66,444.737 1533.71,410.485 1535.77,406.954 1537.82,402.603 1539.87,373.862 1541.93,392.748 1543.98,380.046 1546.03,381.011 1548.08,380.969 1550.14,379.912 1552.19,391.381 1554.24,416.8 1556.3,417.892 1558.35,400.656 1560.4,400.716 1562.45,399.369 1564.51,385.551 1566.56,406.741 1568.61,411.906 1570.67,391.709 1572.72,377.942 1574.77,383.105 1576.82,382.522 1578.88,361.696 1580.93,355.036 1582.98,355.293 1585.04,352.115 1587.09,352.182 1589.14,353.259 1591.19,352.637 1593.25,352.712 1595.3,351.797 1597.35,351.578 1599.41,351.385 1601.46,358.302 1603.51,374.207 1605.56,366.229 1607.62,362.269 1609.67,364.222 1611.72,351.85 1613.78,350.158 1615.83,350.189 1617.88,350.214 1619.94,353.441 1621.99,354.408 1624.04,359.805 1626.09,382.867 1628.15,383.875 1630.2,394.357 1632.25,386.727 1634.31,379.956 1636.36,383.919 1638.41,391.941 1640.46,392.722 1642.52,372.546 1644.57,366.193 1646.62,366.433 1648.68,366.569 1650.73,367.049 1652.78,363.323 1654.83,384.471 1656.89,374.035 1658.94,386.776 1660.99,387.355 1663.05,382.336 1665.1,382.288 1667.15,383.025 1669.2,383.819 1671.26,382.313 1673.31,382.645 1675.36,397.127 1677.42,397.021 1679.47,395.537 1681.52,395.957 1683.57,396.915 1685.63,396.601 1687.68,344.773 1689.73,352.894 1691.79,357.312 1693.84,360.556 1695.89,360.509 1697.94,375.609 1700,354.919 1702.05,345.259 1704.1,349.856 1706.16,349.76 1708.21,349.399 1710.26,343.266 1712.32,343.235 1714.37,343.601 1716.42,353.011 1718.47,351.419 1720.53,324.274 1722.58,363.698 1724.63,363.858 1726.69,364.305 1728.74,367.475 1730.79,373.832 1732.84,378.238 1734.9,372.783 1736.95,371.62 1739,388.802 1741.06,366.445 1743.11,358.866 1745.16,362.93 1747.21,368.033 1749.27,368.105 1751.32,354.285 1753.37,353.861 1755.43,353.843 1757.48,373.357 1759.53,377.15 1761.58,377.138 1763.64,379.798 1765.69,379.577 1767.74,379.819 1769.8,378.847 1771.85,381.753 1773.9,379.177 1775.95,379.105 1778.01,381.859 1780.06,380.45 1782.11,379.815 1784.17,381.716 1786.22,379.383 1788.27,379.051 1790.33,379.042 1792.38,381.787 1794.43,377.036 1796.48,363.613 1798.54,367.517 1800.59,366.787 1802.64,372.458 1804.7,372.3 1806.75,363.727 1808.8,363.858 1810.85,371.24 1812.91,371.308 1814.96,370.917 1817.01,381.81 1819.07,381.741 1821.12,381.241 1823.17,380.81 1825.22,379.61 1827.28,337.897 1829.33,337.928 1831.38,367.157 1833.44,366.647 1835.49,364.629 1837.54,363.658 1839.59,367.56 1841.65,373.397 1843.7,383.254 1845.75,381.913 1847.81,381.997 1849.86,380.852 1851.91,380.396 1853.96,379.617 1856.02,378.483 1858.07,373.913 1860.12,373.509 1862.18,375.401 1864.23,376.114 1866.28,357.61 1868.34,357.522 1870.39,364.377 1872.44,354.947 1874.49,359.657 1876.55,355.96 1878.6,355.786 1880.65,357.904 1882.71,354.527 1884.76,348.766 1886.81,341.496 1888.86,352.627 1890.92,358.738 1892.97,358.695 1895.02,357.507 1897.08,353.333 1899.13,349.827 1901.18,345.221 1903.23,356.606 1905.29,371.09 1907.34,441.369 1909.39,441.559 1911.45,436.846 1913.5,431.312 1915.55,433.416 1917.6,434.027 1919.66,433.251 1921.71,435.006 1923.76,303.132 1925.82,302.885 1927.87,283.683 1929.92,280.153 1931.97,323.653 1934.03,332.113 1936.08,328.767 1938.13,330.442 1940.19,302.246 1942.24,297.309 1944.29,315.666 1946.34,365.032 1948.4,365.317 1950.45,347.172 1952.5,307.583 1954.56,257.043 1956.61,259.399 1958.66,213.308 1960.72,217.731 1962.77,227.155 1964.82,307.051 1966.87,311.114 1968.93,301.448 1970.98,278.396 1973.03,262.763 1975.09,257.653 1977.14,269.177 1979.19,290.84 1981.24,338.334 1983.3,277.764 1985.35,402.767 1987.4,424.701 1989.46,402.976 1991.51,356.5 1993.56,351.985 1995.61,351.586 1997.67,362.311 1999.72,361.921 2001.77,361.874 2003.83,365.425 2005.88,355.842 2007.93,375.582 2009.98,365.059 2012.04,366.848 2014.09,377.919 2016.14,376.109 2018.2,383.857 2020.25,384.166 2022.3,405.618 2024.35,406.804 2026.41,397.068 2028.46,415.293 2030.51,395.606 2032.57,414.909 2034.62,304.652 2036.67,393.596 2038.73,385.329 2040.78,324.719 2042.83,324.037 2044.88,315.925 2046.94,295.165 2048.99,348.578 2051.04,366.021 2053.1,334.508 2055.15,299.584 2057.2,365.666 2059.25,300.752 2061.31,308.288 2063.36,404.62 2065.41,400.513 2067.47,400.562 2069.52,467.986 2071.57,470.81 2073.62,397.889 2075.68,398.704 2077.73,547.306 2079.78,437.93 2081.84,321.618 2083.89,384.887 2085.94,449.569 2087.99,530.797 2090.05,596.343 2092.1,519.08 2094.15,315.927 2096.21,506.996 2098.26,913.096 2100.31,914.6 2102.36,842.146 2104.42,829.324 2106.47,883.264 2108.52,866.632 2110.58,894.108 2112.63,428.685 2114.68,489.258 2116.73,464.712 2118.79,406.949 2120.84,397.97 2122.89,405.675 2124.95,442.603 2127,516.688 2129.05,426.648 2131.11,767.623 2133.16,878.368 2135.21,791.87 2137.26,802.574 2139.32,798.412 2141.37,799.887 2143.42,534.354 2145.48,546.243 2147.53,474.47 2149.58,302.149 2151.63,214.922 2153.69,205.132 2155.74,87.5492 2157.79,91.8222 2159.85,142.191 2161.9,147.44 2163.95,29.2622 2166,11.9965 2168.06,-34.1515 2170.11,-123.897 2172.16,-172.601 2174.22,-208.117 2176.27,290.897 2178.32,289.362 2180.37,307.196 2182.43,401.477 2184.48,401.761 2186.53,360.398 2188.59,381.126 2190.64,477.59 2192.69,498.26 2194.74,460.264 2196.8,490.137 2198.85,496.774 2200.9,412.867 2202.96,402.54 2205.01,405.206 2207.06,432.231 2209.12,531.597 2211.17,532.601 2213.22,583.898 2215.27,305.673 2217.33,302.205 2219.38,239.065 2221.43,479.305 2223.49,424.136 2225.54,361.883 2227.59,374.068 2229.64,279.876 2231.7,176.992 2233.75,90.2622 2235.8,-185.466 2237.86,-253.163 2239.91,-579.913 2241.96,-489.723 2244.01,-487.152 2246.07,-457.213 2248.12,-487.226 2250.17,-500.111 2252.23,62.997 2254.28,341.983 2256.33,588.773 2258.38,625.51 2260.44,614.233 2262.49,642.512 2264.54,642.35 2266.6,616.501 2268.65,174.482 2270.7,-34.0299 2272.75,-50.0099 2274.81,316.776 2276.86,302.191 2278.91,554.379 2280.97,607.106 2283.02,694.688 2285.07,732.383 2287.12,1001.59 2289.18,1000.85 2291.23,957.087 "/>
<path clip-path="url(#clip650)" d="M251.33 172.231 L548.024 172.231 L548.024 68.5509 L251.33 68.5509  Z" fill="#ffffff" fill-rule="evenodd" fill-opacity="1"/>
<polyline clip-path="url(#clip650)" style="stroke:#000000; stroke-linecap:round; stroke-linejoin:round; stroke-width:4; stroke-opacity:1; fill:none" points="251.33,172.231 548.024,172.231 548.024,68.5509 251.33,68.5509 251.33,172.231 "/>
<polyline clip-path="url(#clip650)" style="stroke:#009af9; stroke-linecap:round; stroke-linejoin:round; stroke-width:4; stroke-opacity:1; fill:none" points="275.484,120.391 420.41,120.391 "/>
<path clip-path="url(#clip650)" d="M444.564 103.111 L449.24 103.111 L449.24 133.736 L466.069 133.736 L466.069 137.671 L444.564 137.671 L444.564 103.111 Z" fill="#000000" fill-rule="nonzero" fill-opacity="1" /><path clip-path="url(#clip650)" d="M491.694 104.245 L491.694 108.805 Q489.032 107.532 486.67 106.907 Q484.309 106.282 482.11 106.282 Q478.291 106.282 476.208 107.764 Q474.147 109.245 474.147 111.977 Q474.147 114.268 475.513 115.449 Q476.902 116.606 480.745 117.324 L483.569 117.902 Q488.8 118.898 491.277 121.421 Q493.777 123.921 493.777 128.134 Q493.777 133.157 490.397 135.75 Q487.041 138.342 480.536 138.342 Q478.083 138.342 475.305 137.787 Q472.55 137.231 469.587 136.143 L469.587 131.328 Q472.434 132.926 475.166 133.736 Q477.897 134.546 480.536 134.546 Q484.541 134.546 486.717 132.972 Q488.893 131.398 488.893 128.481 Q488.893 125.935 487.319 124.5 Q485.768 123.064 482.203 122.347 L479.356 121.791 Q474.124 120.75 471.786 118.527 Q469.448 116.305 469.448 112.347 Q469.448 107.764 472.666 105.125 Q475.907 102.486 481.578 102.486 Q484.008 102.486 486.532 102.926 Q489.055 103.366 491.694 104.245 Z" fill="#000000" fill-rule="nonzero" fill-opacity="1" /><path clip-path="url(#clip650)" d="M521.786 104.245 L521.786 108.805 Q519.124 107.532 516.763 106.907 Q514.402 106.282 512.203 106.282 Q508.383 106.282 506.3 107.764 Q504.24 109.245 504.24 111.977 Q504.24 114.268 505.606 115.449 Q506.994 116.606 510.837 117.324 L513.661 117.902 Q518.893 118.898 521.369 121.421 Q523.869 123.921 523.869 128.134 Q523.869 133.157 520.49 135.75 Q517.133 138.342 510.629 138.342 Q508.175 138.342 505.397 137.787 Q502.643 137.231 499.68 136.143 L499.68 131.328 Q502.527 132.926 505.258 133.736 Q507.99 134.546 510.629 134.546 Q514.633 134.546 516.809 132.972 Q518.985 131.398 518.985 128.481 Q518.985 125.935 517.411 124.5 Q515.86 123.064 512.295 122.347 L509.448 121.791 Q504.217 120.75 501.879 118.527 Q499.541 116.305 499.541 112.347 Q499.541 107.764 502.758 105.125 Q505.999 102.486 511.67 102.486 Q514.101 102.486 516.624 102.926 Q519.147 103.366 521.786 104.245 Z" fill="#000000" fill-rule="nonzero" fill-opacity="1" /><path clip-path="url(#clip650)" d="M178.867 1486.45 L2352.76 1486.45 L2352.76 847.244 L178.867 847.244  Z" fill="#ffffff" fill-rule="evenodd" fill-opacity="1"/>
<defs>
  <clipPath id="clip653">
    <rect x="178" y="847" width="2175" height="640"/>
  </clipPath>
</defs>
<polyline clip-path="url(#clip653)" style="stroke:#000000; stroke-linecap:round; stroke-linejoin:round; stroke-width:2; stroke-opacity:0.1; fill:none" points="238.339,1486.45 238.339,847.244 "/>
<polyline clip-path="url(#clip653)" style="stroke:#000000; stroke-linecap:round; stroke-linejoin:round; stroke-width:2; stroke-opacity:0.1; fill:none" points="751.562,1486.45 751.562,847.244 "/>
<polyline clip-path="url(#clip653)" style="stroke:#000000; stroke-linecap:round; stroke-linejoin:round; stroke-width:2; stroke-opacity:0.1; fill:none" points="1264.78,1486.45 1264.78,847.244 "/>
<polyline clip-path="url(#clip653)" style="stroke:#000000; stroke-linecap:round; stroke-linejoin:round; stroke-width:2; stroke-opacity:0.1; fill:none" points="1778.01,1486.45 1778.01,847.244 "/>
<polyline clip-path="url(#clip653)" style="stroke:#000000; stroke-linecap:round; stroke-linejoin:round; stroke-width:2; stroke-opacity:0.1; fill:none" points="2291.23,1486.45 2291.23,847.244 "/>
<polyline clip-path="url(#clip653)" style="stroke:#000000; stroke-linecap:round; stroke-linejoin:round; stroke-width:2; stroke-opacity:0.1; fill:none" points="178.867,1486.45 2352.76,1486.45 "/>
<polyline clip-path="url(#clip653)" style="stroke:#000000; stroke-linecap:round; stroke-linejoin:round; stroke-width:2; stroke-opacity:0.1; fill:none" points="178.867,1326.65 2352.76,1326.65 "/>
<polyline clip-path="url(#clip653)" style="stroke:#000000; stroke-linecap:round; stroke-linejoin:round; stroke-width:2; stroke-opacity:0.1; fill:none" points="178.867,1166.85 2352.76,1166.85 "/>
<polyline clip-path="url(#clip653)" style="stroke:#000000; stroke-linecap:round; stroke-linejoin:round; stroke-width:2; stroke-opacity:0.1; fill:none" points="178.867,1007.05 2352.76,1007.05 "/>
<polyline clip-path="url(#clip653)" style="stroke:#000000; stroke-linecap:round; stroke-linejoin:round; stroke-width:2; stroke-opacity:0.1; fill:none" points="178.867,847.244 2352.76,847.244 "/>
<polyline clip-path="url(#clip650)" style="stroke:#000000; stroke-linecap:round; stroke-linejoin:round; stroke-width:4; stroke-opacity:1; fill:none" points="178.867,1486.45 2352.76,1486.45 "/>
<polyline clip-path="url(#clip650)" style="stroke:#000000; stroke-linecap:round; stroke-linejoin:round; stroke-width:4; stroke-opacity:1; fill:none" points="238.339,1486.45 238.339,1467.55 "/>
<polyline clip-path="url(#clip650)" style="stroke:#000000; stroke-linecap:round; stroke-linejoin:round; stroke-width:4; stroke-opacity:1; fill:none" points="751.562,1486.45 751.562,1467.55 "/>
<polyline clip-path="url(#clip650)" style="stroke:#000000; stroke-linecap:round; stroke-linejoin:round; stroke-width:4; stroke-opacity:1; fill:none" points="1264.78,1486.45 1264.78,1467.55 "/>
<polyline clip-path="url(#clip650)" style="stroke:#000000; stroke-linecap:round; stroke-linejoin:round; stroke-width:4; stroke-opacity:1; fill:none" points="1778.01,1486.45 1778.01,1467.55 "/>
<polyline clip-path="url(#clip650)" style="stroke:#000000; stroke-linecap:round; stroke-linejoin:round; stroke-width:4; stroke-opacity:1; fill:none" points="2291.23,1486.45 2291.23,1467.55 "/>
<path clip-path="url(#clip650)" d="M238.339 1517.37 Q234.728 1517.37 232.899 1520.93 Q231.094 1524.47 231.094 1531.6 Q231.094 1538.71 232.899 1542.27 Q234.728 1545.82 238.339 1545.82 Q241.973 1545.82 243.779 1542.27 Q245.607 1538.71 245.607 1531.6 Q245.607 1524.47 243.779 1520.93 Q241.973 1517.37 238.339 1517.37 M238.339 1513.66 Q244.149 1513.66 247.205 1518.27 Q250.283 1522.85 250.283 1531.6 Q250.283 1540.33 247.205 1544.94 Q244.149 1549.52 238.339 1549.52 Q232.529 1549.52 229.45 1544.94 Q226.395 1540.33 226.395 1531.6 Q226.395 1522.85 229.45 1518.27 Q232.529 1513.66 238.339 1513.66 Z" fill="#000000" fill-rule="nonzero" fill-opacity="1" /><path clip-path="url(#clip650)" d="M715.254 1544.91 L731.574 1544.91 L731.574 1548.85 L709.629 1548.85 L709.629 1544.91 Q712.291 1542.16 716.875 1537.53 Q721.481 1532.88 722.662 1531.53 Q724.907 1529.01 725.787 1527.27 Q726.689 1525.51 726.689 1523.82 Q726.689 1521.07 724.745 1519.33 Q722.824 1517.6 719.722 1517.6 Q717.523 1517.6 715.069 1518.36 Q712.638 1519.13 709.861 1520.68 L709.861 1515.95 Q712.685 1514.82 715.138 1514.24 Q717.592 1513.66 719.629 1513.66 Q725 1513.66 728.194 1516.35 Q731.388 1519.03 731.388 1523.52 Q731.388 1525.65 730.578 1527.57 Q729.791 1529.47 727.685 1532.07 Q727.106 1532.74 724.004 1535.95 Q720.902 1539.15 715.254 1544.91 Z" fill="#000000" fill-rule="nonzero" fill-opacity="1" /><path clip-path="url(#clip650)" d="M741.435 1514.29 L759.791 1514.29 L759.791 1518.22 L745.717 1518.22 L745.717 1526.7 Q746.736 1526.35 747.754 1526.19 Q748.773 1526 749.791 1526 Q755.578 1526 758.958 1529.17 Q762.337 1532.34 762.337 1537.76 Q762.337 1543.34 758.865 1546.44 Q755.393 1549.52 749.073 1549.52 Q746.898 1549.52 744.629 1549.15 Q742.384 1548.78 739.976 1548.04 L739.976 1543.34 Q742.06 1544.47 744.282 1545.03 Q746.504 1545.58 748.981 1545.58 Q752.985 1545.58 755.323 1543.48 Q757.661 1541.37 757.661 1537.76 Q757.661 1534.15 755.323 1532.04 Q752.985 1529.94 748.981 1529.94 Q747.106 1529.94 745.231 1530.35 Q743.379 1530.77 741.435 1531.65 L741.435 1514.29 Z" fill="#000000" fill-rule="nonzero" fill-opacity="1" /><path clip-path="url(#clip650)" d="M781.55 1517.37 Q777.939 1517.37 776.11 1520.93 Q774.305 1524.47 774.305 1531.6 Q774.305 1538.71 776.11 1542.27 Q777.939 1545.82 781.55 1545.82 Q785.184 1545.82 786.99 1542.27 Q788.819 1538.71 788.819 1531.6 Q788.819 1524.47 786.99 1520.93 Q785.184 1517.37 781.55 1517.37 M781.55 1513.66 Q787.36 1513.66 790.416 1518.27 Q793.495 1522.85 793.495 1531.6 Q793.495 1540.33 790.416 1544.94 Q787.36 1549.52 781.55 1549.52 Q775.74 1549.52 772.661 1544.94 Q769.606 1540.33 769.606 1531.6 Q769.606 1522.85 772.661 1518.27 Q775.74 1513.66 781.55 1513.66 Z" fill="#000000" fill-rule="nonzero" fill-opacity="1" /><path clip-path="url(#clip650)" d="M1224.4 1514.29 L1242.76 1514.29 L1242.76 1518.22 L1228.69 1518.22 L1228.69 1526.7 Q1229.7 1526.35 1230.72 1526.19 Q1231.74 1526 1232.76 1526 Q1238.55 1526 1241.93 1529.17 Q1245.31 1532.34 1245.31 1537.76 Q1245.31 1543.34 1241.83 1546.44 Q1238.36 1549.52 1232.04 1549.52 Q1229.87 1549.52 1227.6 1549.15 Q1225.35 1548.78 1222.94 1548.04 L1222.94 1543.34 Q1225.03 1544.47 1227.25 1545.03 Q1229.47 1545.58 1231.95 1545.58 Q1235.95 1545.58 1238.29 1543.48 Q1240.63 1541.37 1240.63 1537.76 Q1240.63 1534.15 1238.29 1532.04 Q1235.95 1529.94 1231.95 1529.94 Q1230.07 1529.94 1228.2 1530.35 Q1226.35 1530.77 1224.4 1531.65 L1224.4 1514.29 Z" fill="#000000" fill-rule="nonzero" fill-opacity="1" /><path clip-path="url(#clip650)" d="M1264.52 1517.37 Q1260.91 1517.37 1259.08 1520.93 Q1257.27 1524.47 1257.27 1531.6 Q1257.27 1538.71 1259.08 1542.27 Q1260.91 1545.82 1264.52 1545.82 Q1268.15 1545.82 1269.96 1542.27 Q1271.79 1538.71 1271.79 1531.6 Q1271.79 1524.47 1269.96 1520.93 Q1268.15 1517.37 1264.52 1517.37 M1264.52 1513.66 Q1270.33 1513.66 1273.38 1518.27 Q1276.46 1522.85 1276.46 1531.6 Q1276.46 1540.33 1273.38 1544.94 Q1270.33 1549.52 1264.52 1549.52 Q1258.71 1549.52 1255.63 1544.94 Q1252.57 1540.33 1252.57 1531.6 Q1252.57 1522.85 1255.63 1518.27 Q1258.71 1513.66 1264.52 1513.66 Z" fill="#000000" fill-rule="nonzero" fill-opacity="1" /><path clip-path="url(#clip650)" d="M1294.68 1517.37 Q1291.07 1517.37 1289.24 1520.93 Q1287.44 1524.47 1287.44 1531.6 Q1287.44 1538.71 1289.24 1542.27 Q1291.07 1545.82 1294.68 1545.82 Q1298.31 1545.82 1300.12 1542.27 Q1301.95 1538.71 1301.95 1531.6 Q1301.95 1524.47 1300.12 1520.93 Q1298.31 1517.37 1294.68 1517.37 M1294.68 1513.66 Q1300.49 1513.66 1303.55 1518.27 Q1306.62 1522.85 1306.62 1531.6 Q1306.62 1540.33 1303.55 1544.94 Q1300.49 1549.52 1294.68 1549.52 Q1288.87 1549.52 1285.79 1544.94 Q1282.74 1540.33 1282.74 1531.6 Q1282.74 1522.85 1285.79 1518.27 Q1288.87 1513.66 1294.68 1513.66 Z" fill="#000000" fill-rule="nonzero" fill-opacity="1" /><path clip-path="url(#clip650)" d="M1736.28 1514.29 L1758.51 1514.29 L1758.51 1516.28 L1745.96 1548.85 L1741.08 1548.85 L1752.88 1518.22 L1736.28 1518.22 L1736.28 1514.29 Z" fill="#000000" fill-rule="nonzero" fill-opacity="1" /><path clip-path="url(#clip650)" d="M1767.67 1514.29 L1786.03 1514.29 L1786.03 1518.22 L1771.95 1518.22 L1771.95 1526.7 Q1772.97 1526.35 1773.99 1526.19 Q1775.01 1526 1776.03 1526 Q1781.82 1526 1785.2 1529.17 Q1788.57 1532.34 1788.57 1537.76 Q1788.57 1543.34 1785.1 1546.44 Q1781.63 1549.52 1775.31 1549.52 Q1773.14 1549.52 1770.87 1549.15 Q1768.62 1548.78 1766.21 1548.04 L1766.21 1543.34 Q1768.3 1544.47 1770.52 1545.03 Q1772.74 1545.58 1775.22 1545.58 Q1779.22 1545.58 1781.56 1543.48 Q1783.9 1541.37 1783.9 1537.76 Q1783.9 1534.15 1781.56 1532.04 Q1779.22 1529.94 1775.22 1529.94 Q1773.34 1529.94 1771.47 1530.35 Q1769.62 1530.77 1767.67 1531.65 L1767.67 1514.29 Z" fill="#000000" fill-rule="nonzero" fill-opacity="1" /><path clip-path="url(#clip650)" d="M1807.79 1517.37 Q1804.18 1517.37 1802.35 1520.93 Q1800.54 1524.47 1800.54 1531.6 Q1800.54 1538.71 1802.35 1542.27 Q1804.18 1545.82 1807.79 1545.82 Q1811.42 1545.82 1813.23 1542.27 Q1815.06 1538.71 1815.06 1531.6 Q1815.06 1524.47 1813.23 1520.93 Q1811.42 1517.37 1807.79 1517.37 M1807.79 1513.66 Q1813.6 1513.66 1816.65 1518.27 Q1819.73 1522.85 1819.73 1531.6 Q1819.73 1540.33 1816.65 1544.94 Q1813.6 1549.52 1807.79 1549.52 Q1801.98 1549.52 1798.9 1544.94 Q1795.84 1540.33 1795.84 1531.6 Q1795.84 1522.85 1798.9 1518.27 Q1801.98 1513.66 1807.79 1513.66 Z" fill="#000000" fill-rule="nonzero" fill-opacity="1" /><path clip-path="url(#clip650)" d="M2235.76 1544.91 L2243.4 1544.91 L2243.4 1518.55 L2235.09 1520.21 L2235.09 1515.95 L2243.35 1514.29 L2248.02 1514.29 L2248.02 1544.91 L2255.66 1544.91 L2255.66 1548.85 L2235.76 1548.85 L2235.76 1544.91 Z" fill="#000000" fill-rule="nonzero" fill-opacity="1" /><path clip-path="url(#clip650)" d="M2275.11 1517.37 Q2271.5 1517.37 2269.67 1520.93 Q2267.86 1524.47 2267.86 1531.6 Q2267.86 1538.71 2269.67 1542.27 Q2271.5 1545.82 2275.11 1545.82 Q2278.74 1545.82 2280.55 1542.27 Q2282.38 1538.71 2282.38 1531.6 Q2282.38 1524.47 2280.55 1520.93 Q2278.74 1517.37 2275.11 1517.37 M2275.11 1513.66 Q2280.92 1513.66 2283.97 1518.27 Q2287.05 1522.85 2287.05 1531.6 Q2287.05 1540.33 2283.97 1544.94 Q2280.92 1549.52 2275.11 1549.52 Q2269.3 1549.52 2266.22 1544.94 Q2263.16 1540.33 2263.16 1531.6 Q2263.16 1522.85 2266.22 1518.27 Q2269.3 1513.66 2275.11 1513.66 Z" fill="#000000" fill-rule="nonzero" fill-opacity="1" /><path clip-path="url(#clip650)" d="M2305.27 1517.37 Q2301.66 1517.37 2299.83 1520.93 Q2298.02 1524.47 2298.02 1531.6 Q2298.02 1538.71 2299.83 1542.27 Q2301.66 1545.82 2305.27 1545.82 Q2308.9 1545.82 2310.71 1542.27 Q2312.54 1538.71 2312.54 1531.6 Q2312.54 1524.47 2310.71 1520.93 Q2308.9 1517.37 2305.27 1517.37 M2305.27 1513.66 Q2311.08 1513.66 2314.14 1518.27 Q2317.21 1522.85 2317.21 1531.6 Q2317.21 1540.33 2314.14 1544.94 Q2311.08 1549.52 2305.27 1549.52 Q2299.46 1549.52 2296.38 1544.94 Q2293.33 1540.33 2293.33 1531.6 Q2293.33 1522.85 2296.38 1518.27 Q2299.46 1513.66 2305.27 1513.66 Z" fill="#000000" fill-rule="nonzero" fill-opacity="1" /><path clip-path="url(#clip650)" d="M2335.43 1517.37 Q2331.82 1517.37 2329.99 1520.93 Q2328.19 1524.47 2328.19 1531.6 Q2328.19 1538.71 2329.99 1542.27 Q2331.82 1545.82 2335.43 1545.82 Q2339.07 1545.82 2340.87 1542.27 Q2342.7 1538.71 2342.7 1531.6 Q2342.7 1524.47 2340.87 1520.93 Q2339.07 1517.37 2335.43 1517.37 M2335.43 1513.66 Q2341.24 1513.66 2344.3 1518.27 Q2347.38 1522.85 2347.38 1531.6 Q2347.38 1540.33 2344.3 1544.94 Q2341.24 1549.52 2335.43 1549.52 Q2329.62 1549.52 2326.54 1544.94 Q2323.49 1540.33 2323.49 1531.6 Q2323.49 1522.85 2326.54 1518.27 Q2329.62 1513.66 2335.43 1513.66 Z" fill="#000000" fill-rule="nonzero" fill-opacity="1" /><polyline clip-path="url(#clip650)" style="stroke:#000000; stroke-linecap:round; stroke-linejoin:round; stroke-width:4; stroke-opacity:1; fill:none" points="178.867,1486.45 178.867,847.244 "/>
<polyline clip-path="url(#clip650)" style="stroke:#000000; stroke-linecap:round; stroke-linejoin:round; stroke-width:4; stroke-opacity:1; fill:none" points="178.867,1486.45 197.764,1486.45 "/>
<polyline clip-path="url(#clip650)" style="stroke:#000000; stroke-linecap:round; stroke-linejoin:round; stroke-width:4; stroke-opacity:1; fill:none" points="178.867,1326.65 197.764,1326.65 "/>
<polyline clip-path="url(#clip650)" style="stroke:#000000; stroke-linecap:round; stroke-linejoin:round; stroke-width:4; stroke-opacity:1; fill:none" points="178.867,1166.85 197.764,1166.85 "/>
<polyline clip-path="url(#clip650)" style="stroke:#000000; stroke-linecap:round; stroke-linejoin:round; stroke-width:4; stroke-opacity:1; fill:none" points="178.867,1007.05 197.764,1007.05 "/>
<polyline clip-path="url(#clip650)" style="stroke:#000000; stroke-linecap:round; stroke-linejoin:round; stroke-width:4; stroke-opacity:1; fill:none" points="178.867,847.244 197.764,847.244 "/>
<path clip-path="url(#clip650)" d="M50.9921 1486.9 L80.6679 1486.9 L80.6679 1490.83 L50.9921 1490.83 L50.9921 1486.9 Z" fill="#000000" fill-rule="nonzero" fill-opacity="1" /><path clip-path="url(#clip650)" d="M91.5706 1499.79 L99.2095 1499.79 L99.2095 1473.43 L90.8993 1475.09 L90.8993 1470.83 L99.1632 1469.17 L103.839 1469.17 L103.839 1499.79 L111.478 1499.79 L111.478 1503.73 L91.5706 1503.73 L91.5706 1499.79 Z" fill="#000000" fill-rule="nonzero" fill-opacity="1" /><path clip-path="url(#clip650)" d="M130.922 1472.25 Q127.311 1472.25 125.482 1475.81 Q123.677 1479.35 123.677 1486.48 Q123.677 1493.59 125.482 1497.15 Q127.311 1500.7 130.922 1500.7 Q134.556 1500.7 136.362 1497.15 Q138.191 1493.59 138.191 1486.48 Q138.191 1479.35 136.362 1475.81 Q134.556 1472.25 130.922 1472.25 M130.922 1468.54 Q136.732 1468.54 139.788 1473.15 Q142.867 1477.73 142.867 1486.48 Q142.867 1495.21 139.788 1499.82 Q136.732 1504.4 130.922 1504.4 Q125.112 1504.4 122.033 1499.82 Q118.978 1495.21 118.978 1486.48 Q118.978 1477.73 122.033 1473.15 Q125.112 1468.54 130.922 1468.54 Z" fill="#000000" fill-rule="nonzero" fill-opacity="1" /><path clip-path="url(#clip650)" d="M82.1494 1327.1 L111.825 1327.1 L111.825 1331.03 L82.1494 1331.03 L82.1494 1327.1 Z" fill="#000000" fill-rule="nonzero" fill-opacity="1" /><path clip-path="url(#clip650)" d="M121.964 1309.37 L140.32 1309.37 L140.32 1313.3 L126.246 1313.3 L126.246 1321.77 Q127.265 1321.43 128.283 1321.27 Q129.302 1321.08 130.32 1321.08 Q136.107 1321.08 139.487 1324.25 Q142.867 1327.42 142.867 1332.84 Q142.867 1338.42 139.394 1341.52 Q135.922 1344.6 129.603 1344.6 Q127.427 1344.6 125.158 1344.23 Q122.913 1343.86 120.506 1343.12 L120.506 1338.42 Q122.589 1339.55 124.811 1340.11 Q127.033 1340.66 129.51 1340.66 Q133.515 1340.66 135.853 1338.56 Q138.191 1336.45 138.191 1332.84 Q138.191 1329.23 135.853 1327.12 Q133.515 1325.01 129.51 1325.01 Q127.635 1325.01 125.76 1325.43 Q123.908 1325.85 121.964 1326.73 L121.964 1309.37 Z" fill="#000000" fill-rule="nonzero" fill-opacity="1" /><path clip-path="url(#clip650)" d="M130.922 1152.64 Q127.311 1152.64 125.482 1156.21 Q123.677 1159.75 123.677 1166.88 Q123.677 1173.99 125.482 1177.55 Q127.311 1181.09 130.922 1181.09 Q134.556 1181.09 136.362 1177.55 Q138.191 1173.99 138.191 1166.88 Q138.191 1159.75 136.362 1156.21 Q134.556 1152.64 130.922 1152.64 M130.922 1148.94 Q136.732 1148.94 139.788 1153.55 Q142.867 1158.13 142.867 1166.88 Q142.867 1175.61 139.788 1180.21 Q136.732 1184.8 130.922 1184.8 Q125.112 1184.8 122.033 1180.21 Q118.978 1175.61 118.978 1166.88 Q118.978 1158.13 122.033 1153.55 Q125.112 1148.94 130.922 1148.94 Z" fill="#000000" fill-rule="nonzero" fill-opacity="1" /><path clip-path="url(#clip650)" d="M121.964 989.765 L140.32 989.765 L140.32 993.7 L126.246 993.7 L126.246 1002.17 Q127.265 1001.83 128.283 1001.66 Q129.302 1001.48 130.32 1001.48 Q136.107 1001.48 139.487 1004.65 Q142.867 1007.82 142.867 1013.24 Q142.867 1018.82 139.394 1021.92 Q135.922 1025 129.603 1025 Q127.427 1025 125.158 1024.63 Q122.913 1024.26 120.506 1023.51 L120.506 1018.82 Q122.589 1019.95 124.811 1020.51 Q127.033 1021.06 129.51 1021.06 Q133.515 1021.06 135.853 1018.95 Q138.191 1016.85 138.191 1013.24 Q138.191 1009.63 135.853 1007.52 Q133.515 1005.41 129.51 1005.41 Q127.635 1005.41 125.76 1005.83 Q123.908 1006.25 121.964 1007.13 L121.964 989.765 Z" fill="#000000" fill-rule="nonzero" fill-opacity="1" /><path clip-path="url(#clip650)" d="M91.5706 860.589 L99.2095 860.589 L99.2095 834.223 L90.8993 835.89 L90.8993 831.631 L99.1632 829.964 L103.839 829.964 L103.839 860.589 L111.478 860.589 L111.478 864.524 L91.5706 864.524 L91.5706 860.589 Z" fill="#000000" fill-rule="nonzero" fill-opacity="1" /><path clip-path="url(#clip650)" d="M130.922 833.043 Q127.311 833.043 125.482 836.608 Q123.677 840.149 123.677 847.279 Q123.677 854.385 125.482 857.95 Q127.311 861.492 130.922 861.492 Q134.556 861.492 136.362 857.95 Q138.191 854.385 138.191 847.279 Q138.191 840.149 136.362 836.608 Q134.556 833.043 130.922 833.043 M130.922 829.339 Q136.732 829.339 139.788 833.946 Q142.867 838.529 142.867 847.279 Q142.867 856.006 139.788 860.612 Q136.732 865.195 130.922 865.195 Q125.112 865.195 122.033 860.612 Q118.978 856.006 118.978 847.279 Q118.978 838.529 122.033 833.946 Q125.112 829.339 130.922 829.339 Z" fill="#000000" fill-rule="nonzero" fill-opacity="1" /><polyline clip-path="url(#clip653)" style="stroke:#009af9; stroke-linecap:round; stroke-linejoin:round; stroke-width:4; stroke-opacity:1; fill:none" points="240.392,1134.89 242.445,1185.94 244.498,1192.5 246.55,1147.21 248.603,1215.26 250.656,1118.72 252.709,1164.73 254.762,1196.7 256.815,1144.35 258.868,1112.18 260.921,1248.32 262.974,888.503 265.027,1190.7 267.079,1172.56 269.132,1099.76 271.185,1205.79 273.238,1126.57 275.291,1277.27 277.344,1212.49 279.397,1124.01 281.45,1211.73 283.503,1088.93 285.555,1041.96 287.608,1216.92 289.661,1175.28 291.714,1186.63 293.767,1209.94 295.82,1147.41 297.873,1161.29 299.926,1233.72 301.979,1068.66 304.031,1060.08 306.084,1197.87 308.137,1062.05 310.19,1207.56 312.243,1119.44 314.296,1120.51 316.349,1181.56 318.402,1131.96 320.455,1210.75 322.507,1195.7 324.56,1185.97 326.613,1069.87 328.666,1304.74 330.719,1068.67 332.772,1213.77 334.825,1153.13 336.878,1166.76 338.931,1037.95 340.984,1338.99 343.036,1155.41 345.089,1226.84 347.142,1075.28 349.195,1165.84 351.248,1170.7 353.301,1116.54 355.354,1247.54 357.407,1184.08 359.46,1169.91 361.512,1194.76 363.565,1100.13 365.618,1129.25 367.671,1137.3 369.724,1185.83 371.777,1148.38 373.83,1150.38 375.883,1178.79 377.936,1179.61 379.988,1175.68 382.041,1194.85 384.094,1188.75 386.147,1178.28 388.2,1057.72 390.253,1039.53 392.306,1100.9 394.359,1196.06 396.412,1133.82 398.464,1107.91 400.517,1009.03 402.57,1216.01 404.623,1200.68 406.676,1099.9 408.729,1191.8 410.782,1178.56 412.835,1198.8 414.888,1230.55 416.94,1204.24 418.993,1223.7 421.046,1151.82 423.099,1224.54 425.152,1236.53 427.205,1327.62 429.258,1169.29 431.311,1153.82 433.364,1263.39 435.417,1090.55 437.469,1210.56 439.522,1162.05 441.575,1150.92 443.628,1152.06 445.681,1167.88 447.734,1177.06 449.787,1089.72 451.84,980.834 453.893,1414.57 455.945,1234.72 457.998,1160.9 460.051,1193.31 462.104,1138.75 464.157,1508.75 466.21,1163.32 468.263,1159.86 470.316,1124.85 472.369,1173.32 474.421,1166.54 476.474,1154.62 478.527,1179.49 480.58,1168.7 482.633,1155.76 484.686,1191.77 486.739,1129.08 488.792,1153.55 490.845,1155.7 492.897,1198.37 494.95,1161.58 497.003,1199.24 499.056,1152.78 501.109,1166.95 503.162,1190.24 505.215,1154.4 507.268,1194.34 509.321,1150.01 511.374,1173.84 513.426,1214.91 515.479,1174.35 517.532,1145.73 519.585,1143.82 521.638,1188.93 523.691,1140.68 525.744,1167.72 527.797,1167.67 529.85,1153 531.902,1146.36 533.955,1148.14 536.008,1154.91 538.061,1160.89 540.114,1231.13 542.167,1159.87 544.22,1135.28 546.273,1153.33 548.326,1154.03 550.378,1209.49 552.431,1166.64 554.484,1156.64 556.537,1176.61 558.59,1136.49 560.643,1128.68 562.696,1196.06 564.749,1150.88 566.802,1151.25 568.854,1166.06 570.907,1119.95 572.96,1067.12 575.013,1257.8 577.066,1174.27 579.119,1151.32 581.172,1171.92 583.225,1170.59 585.278,1193.98 587.331,1169.8 589.383,1184.1 591.436,1131.07 593.489,1166.27 595.542,1191.99 597.595,1201.15 599.648,1136.38 601.701,1202.22 603.754,1206.39 605.807,1146.72 607.859,1142.62 609.912,1134.75 611.965,1143.16 614.018,1177.52 616.071,1201.16 618.124,1110.03 620.177,1124.33 622.23,1204.37 624.283,1157.99 626.335,1156.53 628.388,1147.37 630.441,894.506 632.494,1376.69 634.547,1676.52 636.6,1643.63 638.653,1032.59 640.706,1249.72 642.759,1216.83 644.811,1141.39 646.864,1129.27 648.917,1201.97 650.97,1173.12 653.023,1148.08 655.076,1182.47 657.129,1213.73 659.182,1179.57 661.235,1162.2 663.288,1161.98 665.34,1139.65 667.393,1179.94 669.446,1213.26 671.499,698.991 673.552,1342.42 675.605,1129.66 677.658,1122.09 679.711,1108.43 681.764,1221.36 683.816,1176.03 685.869,1189.25 687.922,1205.82 689.975,1149.11 692.028,1146.76 694.081,1198.43 696.134,1184.79 698.187,1194.62 700.24,1194.34 702.292,1140.53 704.345,993.73 706.398,1044.14 708.451,1056.17 710.504,1041.61 712.557,1113.13 714.61,1401.85 716.663,1114.45 718.716,810.595 720.768,1569.42 722.821,1790.45 724.874,1794.45 726.927,-887.259 728.98,2597.84 731.033,-915.025 733.086,3471.72 735.139,5569.59 737.192,-2486.2 739.245,-1343.55 741.297,1491.19 743.35,987.663 745.403,2171.04 747.456,2264.54 749.509,690.355 751.562,1980.15 753.615,1078.43 755.668,1270.35 757.721,-825.385 759.773,311.725 761.826,3920.38 763.879,3544.97 765.932,1145.14 767.985,1084.92 770.038,1045.24 772.091,1258.04 774.144,951.059 776.197,1246.62 778.249,986.765 780.302,1096.76 782.355,1093.83 784.408,1209.68 786.461,1222.01 788.514,1168.67 790.567,1165.44 792.62,1327.89 794.673,805.168 796.725,1398.62 798.778,1166.61 800.831,1146.07 802.884,1198.64 804.937,1171.19 806.99,1235.72 809.043,1219.08 811.096,1049.63 813.149,1182.27 815.202,1490.01 817.254,1475.29 819.307,1128.41 821.36,1360.38 823.413,989.328 825.466,1289.85 827.519,1070.37 829.572,1254.96 831.625,1074.91 833.678,1257.03 835.73,1562.16 837.783,1281.1 839.836,1114.24 841.889,1109.36 843.942,1247.81 845.995,1204.23 848.048,1194.96 850.101,1142.34 852.154,1141.87 854.206,1160.94 856.259,1165.63 858.312,1064.37 860.365,1259.91 862.418,1258.97 864.471,1245.93 866.524,831.959 868.577,1227.25 870.63,1166.7 872.682,1181.86 874.735,1178.4 876.788,1187.66 878.841,1147.81 880.894,1189.03 882.947,1182.74 885,1172.03 887.053,1146.12 889.106,258.193 891.159,1116.32 893.211,1162.05 895.264,1147.67 897.317,1170.93 899.37,1149.35 901.423,1183.85 903.476,1035.92 905.529,1005.94 907.582,1170.76 909.635,1039.39 911.687,1237.42 913.74,1056.38 915.793,1061.39 917.846,1222.95 919.899,1197.91 921.952,1195.4 924.005,1185.09 926.058,1175.93 928.111,1228.06 930.163,1112.44 932.216,1288.96 934.269,1108.42 936.322,1187.68 938.375,1140.55 940.428,1143.83 942.481,1171.55 944.534,1188.92 946.587,1265.27 948.639,1152.76 950.692,1183.39 952.745,1144.71 954.798,1161.19 956.851,1053.48 958.904,1209.64 960.957,1185.5 963.01,1181.04 965.063,1191.55 967.116,1112.98 969.168,1154.31 971.221,1150.28 973.274,1223.37 975.327,1556.71 977.38,906.277 979.433,1188.54 981.486,1140.02 983.539,1296.01 985.592,1016.24 987.644,1168.16 989.697,1167.63 991.75,1159.3 993.803,1161.67 995.856,1193.38 997.909,1136.31 999.962,1165.25 1002.01,1081.75 1004.07,1200.01 1006.12,1177.91 1008.17,1226.44 1010.23,1174.02 1012.28,1195.13 1014.33,1172.94 1016.38,1173.34 1018.44,1282.57 1020.49,863.597 1022.54,1160.2 1024.6,1167.71 1026.65,1169.31 1028.7,1159.21 1030.76,1147.03 1032.81,1193.21 1034.86,1145.19 1036.91,1085.72 1038.97,1155.07 1041.02,1141.18 1043.07,1151 1045.13,1210.91 1047.18,1199.66 1049.23,1213.42 1051.28,1117.08 1053.34,1123.89 1055.39,1169.85 1057.44,1200.75 1059.5,1174.18 1061.55,1206.45 1063.6,2302.26 1065.65,1017.87 1067.71,1208.81 1069.76,1283.82 1071.81,1165.9 1073.87,1445.38 1075.92,1025.72 1077.97,1116.81 1080.02,1400.51 1082.08,1065.02 1084.13,1080.78 1086.18,1273.57 1088.24,1178.99 1090.29,1091.39 1092.34,1223.04 1094.39,1220.45 1096.45,1153.79 1098.5,1187.15 1100.55,1161.45 1102.61,1146.08 1104.66,971.776 1106.71,1101.1 1108.77,1337.67 1110.82,1065.32 1112.87,1160.22 1114.92,1162.83 1116.98,1166.72 1119.03,1157.95 1121.08,1154.16 1123.14,1188.06 1125.19,1126.51 1127.24,1178.86 1129.29,1146.68 1131.35,1157.63 1133.4,1182.29 1135.45,1148.4 1137.51,1198.14 1139.56,1146.35 1141.61,1206.24 1143.66,1125.2 1145.72,1116.96 1147.77,1203.09 1149.82,1168.38 1151.88,1148.58 1153.93,1187.96 1155.98,1196.37 1158.03,1165.96 1160.09,1161.77 1162.14,1202.31 1164.19,1247.37 1166.25,1010.68 1168.3,1047.79 1170.35,1150.45 1172.4,1127.85 1174.46,1527.92 1176.51,643.129 1178.56,561.787 1180.62,1471.15 1182.67,-290.213 1184.72,2949.46 1186.77,-516.706 1188.83,2264.48 1190.88,1258.8 1192.93,655.027 1194.99,1568.57 1197.04,1615.07 1199.09,639.756 1201.15,-94.0353 1203.2,854.885 1205.25,1542.64 1207.3,699.26 1209.36,2750.45 1211.41,-186.768 1213.46,1254.49 1215.52,1211.27 1217.57,1147.95 1219.62,1216.6 1221.67,1202.19 1223.73,1171.37 1225.78,1190.05 1227.83,1168.52 1229.89,1177.55 1231.94,1148.27 1233.99,1082.82 1236.04,1147.2 1238.1,1376.58 1240.15,1277.33 1242.2,1183.16 1244.26,1152.67 1246.31,1136.61 1248.36,1265.32 1250.41,1189.79 1252.47,1708.84 1254.52,918.264 1256.57,1140.08 1258.63,1196.3 1260.68,1208.55 1262.73,1114.81 1264.78,1102.07 1266.84,1264.17 1268.89,1099.43 1270.94,960.889 1273,1190.37 1275.05,1145.69 1277.1,996.331 1279.16,1114.04 1281.21,1164.21 1283.26,1254.23 1285.31,1267.12 1287.37,1041.65 1289.42,1137.14 1291.47,1167.89 1293.53,1161.47 1295.58,1182.19 1297.63,1168.31 1299.68,1166.58 1301.74,1164.77 1303.79,1161.8 1305.84,1132.88 1307.9,1154.28 1309.95,1126.85 1312,1237.17 1314.05,1200.63 1316.11,1237.24 1318.16,1196.98 1320.21,1133.24 1322.27,1155.49 1324.32,1150.65 1326.37,1211.24 1328.42,1162.67 1330.48,1120.14 1332.53,1203.15 1334.58,1136.17 1336.64,1310.19 1338.69,1224.37 1340.74,1210.73 1342.79,1288.98 1344.85,1202.73 1346.9,1141.26 1348.95,1156.56 1351.01,1227.54 1353.06,1127.29 1355.11,1161.48 1357.16,1150.06 1359.22,1191.25 1361.27,1140.5 1363.32,1137.47 1365.38,1213.27 1367.43,1092.32 1369.48,1274.34 1371.54,1178.83 1373.59,1187.1 1375.64,1158.84 1377.69,1182.48 1379.75,1195.66 1381.8,1025.04 1383.85,1512.17 1385.91,1052.64 1387.96,1253.81 1390.01,1294.13 1392.06,1103.5 1394.12,1243.12 1396.17,1219.25 1398.22,1221.51 1400.28,1102.04 1402.33,1312.14 1404.38,936.939 1406.43,1255.27 1408.49,1196.33 1410.54,1211.04 1412.59,1177.99 1414.65,1227.27 1416.7,1134.34 1418.75,1172.96 1420.8,1188.76 1422.86,1178.24 1424.91,1159.62 1426.96,1190.59 1429.02,1121.69 1431.07,1116.18 1433.12,1156.7 1435.17,1196.11 1437.23,1200.74 1439.28,1161.11 1441.33,1195.92 1443.39,1071.35 1445.44,1213.36 1447.49,1165.52 1449.55,1161.3 1451.6,1160.61 1453.65,1079.63 1455.7,1164.57 1457.76,1257.93 1459.81,1180.95 1461.86,1184.76 1463.92,1262.07 1465.97,1095.43 1468.02,1111.97 1470.07,1128.23 1472.13,1179.74 1474.18,1120.29 1476.23,1359.55 1478.29,800.19 1480.34,1249.89 1482.39,1151.34 1484.44,1186.19 1486.5,1243.43 1488.55,1150.64 1490.6,1131.58 1492.66,1082.18 1494.71,1114.63 1496.76,1076.61 1498.81,1359.63 1500.87,1107.92 1502.92,1057.81 1504.97,1175.94 1507.03,1124.91 1509.08,1170.3 1511.13,1140.67 1513.18,1118.13 1515.24,1234.41 1517.29,1173.13 1519.34,1161.66 1521.4,1148.13 1523.45,1133.03 1525.5,1192.16 1527.55,1142.58 1529.61,1098.73 1531.66,1177.43 1533.71,1194.25 1535.77,1305.31 1537.82,1479.09 1539.87,1867.21 1541.93,1492.75 1543.98,1300.82 1546.03,1215.59 1548.08,1170.01 1550.14,1206.17 1552.19,1178.63 1554.24,1175.25 1556.3,1099.06 1558.35,1171.7 1560.4,1171.1 1562.45,1169.64 1564.51,1221.11 1566.56,1201.66 1568.61,1163.64 1570.67,1169.05 1572.72,1143.07 1574.77,1159.55 1576.82,1170.12 1578.88,1166.14 1580.93,1269.95 1582.98,1217.67 1585.04,1020.69 1587.09,1088.74 1589.14,880.355 1591.19,1014.65 1593.25,1087.32 1595.3,1199.88 1597.35,1205.99 1599.41,1173.63 1601.46,1133.52 1603.51,1174.15 1605.56,1360.98 1607.62,1304.52 1609.67,1523 1611.72,978.058 1613.78,1091.1 1615.83,1196.29 1617.88,1217.66 1619.94,1150.78 1621.99,1190.04 1624.04,1153.73 1626.09,1174.05 1628.15,1177.44 1630.2,1107.93 1632.25,1236.55 1634.31,1130.73 1636.36,1124.61 1638.41,1083.94 1640.46,1273.61 1642.52,1094.34 1644.57,1167.68 1646.62,1182.45 1648.68,1161.51 1650.73,1162.71 1652.78,1164.37 1654.83,1173.19 1656.89,1128.47 1658.94,1167.13 1660.99,1095.16 1663.05,1079.39 1665.1,1099.58 1667.15,1149.12 1669.2,1168.33 1671.26,1197.79 1673.31,1249.93 1675.36,1231.25 1677.42,1132.82 1679.47,1278.24 1681.52,1086.02 1683.57,1097.27 1685.63,1215.82 1687.68,1123.65 1689.73,1150.27 1691.79,1285.37 1693.84,1250.66 1695.89,1152.96 1697.94,1131.67 1700,1016.61 1702.05,1238.54 1704.1,1212.8 1706.16,1106.68 1708.21,1140.5 1710.26,1176.83 1712.32,1152.45 1714.37,1175.79 1716.42,1170.51 1718.47,1201.62 1720.53,1216.36 1722.58,1194.27 1724.63,1253.66 1726.69,1193.94 1728.74,1705.42 1730.79,1254.43 1732.84,1426.79 1734.9,1092.73 1736.95,1021.19 1739,1156.9 1741.06,1157.36 1743.11,1174.25 1745.16,1137.7 1747.21,1200.65 1749.27,1171.11 1751.32,1105.77 1753.37,1248.69 1755.43,1253.58 1757.48,1117.19 1759.53,1156.25 1761.58,1177.74 1763.64,1146.8 1765.69,1146.6 1767.74,1092.03 1769.8,1168.9 1771.85,1192.16 1773.9,1190.47 1775.95,1106.22 1778.01,1169.17 1780.06,1095.02 1782.11,1199.84 1784.17,1320.13 1786.22,1301.87 1788.27,1264.58 1790.33,1176.91 1792.38,1205.88 1794.43,1244.08 1796.48,1191.61 1798.54,1130.22 1800.59,1144.74 1802.64,1174.68 1804.7,1152.09 1806.75,1171.93 1808.8,1156.99 1810.85,1179.27 1812.91,1113.41 1814.96,1161.44 1817.01,1195.77 1819.07,1160.74 1821.12,1173.01 1823.17,1155.39 1825.22,1188.09 1827.28,1137 1829.33,1170.44 1831.38,1147.61 1833.44,1149.33 1835.49,1129.74 1837.54,1138.79 1839.59,1125.83 1841.65,1206.59 1843.7,1246.33 1845.75,1171.34 1847.81,1128.14 1849.86,1193.88 1851.91,1257.93 1853.96,1313.89 1856.02,1199.01 1858.07,1107.16 1860.12,1215.78 1862.18,1156.55 1864.23,1304.1 1866.28,1235.53 1868.34,1142.84 1870.39,1198.07 1872.44,1160.75 1874.49,1209.28 1876.55,1136.07 1878.6,1170.42 1880.65,1133.92 1882.71,1229.39 1884.76,1111.34 1886.81,1170.31 1888.86,1177.97 1890.92,1235.42 1892.97,959.934 1895.02,850.049 1897.08,852.22 1899.13,1309.9 1901.18,1089.7 1903.23,1154.01 1905.29,1158.86 1907.34,1170.99 1909.39,1139.63 1911.45,1226.74 1913.5,1149.07 1915.55,1191.91 1917.6,1244.94 1919.66,1150.79 1921.71,1177.96 1923.76,1172.12 1925.82,1167.08 1927.87,1151.53 1929.92,1091.94 1931.97,1108.74 1934.03,1198.59 1936.08,1207.85 1938.13,1058.07 1940.19,1265.39 1942.24,1139.33 1944.29,1162.69 1946.34,1171.12 1948.4,1185.88 1950.45,1171.87 1952.5,1102.5 1954.56,1185.75 1956.61,1203.27 1958.66,1006.92 1960.72,1089.17 1962.77,1181.98 1964.82,1147.67 1966.87,1169.54 1968.93,1173.21 1970.98,1178.91 1973.03,1105.96 1975.09,1172.36 1977.14,1104.78 1979.19,1254.1 1981.24,1246.3 1983.3,1169.65 1985.35,1147.44 1987.4,1050.69 1989.46,1166.98 1991.51,1150.6 1993.56,1154.27 1995.61,1161.96 1997.67,1147.13 1999.72,1225.99 2001.77,1177.09 2003.83,1141.15 2005.88,1179.29 2007.93,1172.29 2009.98,1168.49 2012.04,1159.97 2014.09,1178.83 2016.14,1182.41 2018.2,1170.57 2020.25,1177.33 2022.3,1185.04 2024.35,1213.19 2026.41,1342.9 2028.46,1089.69 2030.51,1183.25 2032.57,1259.2 2034.62,1159.01 2036.67,1253.81 2038.73,1032.37 2040.78,1318.59 2042.83,1207.19 2044.88,1338.54 2046.94,1048.52 2048.99,1108.76 2051.04,1116.17 2053.1,1185.44 2055.15,1172.08 2057.2,1157.28 2059.25,431.349 2061.31,1070.56 2063.36,1100.65 2065.41,1212.97 2067.47,1151.28 2069.52,1201.46 2071.57,1186.99 2073.62,1174.67 2075.68,1176.34 2077.73,1198.27 2079.78,1178.19 2081.84,1212.39 2083.89,1178.35 2085.94,1184.47 2087.99,1158.78 2090.05,1164.63 2092.1,1195.23 2094.15,1193.38 2096.21,1138.07 2098.26,1151.07 2100.31,1144.19 2102.36,1142.3 2104.42,1156.69 2106.47,1152.45 2108.52,1129.39 2110.58,961.746 2112.63,1281.94 2114.68,1184.73 2116.73,1163.08 2118.79,1255.67 2120.84,685.972 2122.89,1154.39 2124.95,1057.12 2127,1166.7 2129.05,1167.12 2131.11,1209.81 2133.16,1170.2 2135.21,1180.8 2137.26,1170.88 2139.32,1146.15 2141.37,1187.8 2143.42,1157.25 2145.48,1188.47 2147.53,1164.23 2149.58,1158.25 2151.63,1140.65 2153.69,1124.73 2155.74,1046.46 2157.79,1344.46 2159.85,1486.78 2161.9,870.359 2163.95,1011.71 2166,1293.44 2168.06,1281.92 2170.11,1639.31 2172.16,1306.91 2174.22,958.575 2176.27,1245.92 2178.32,1035.14 2180.37,1163.86 2182.43,1166.35 2184.48,1167.8 2186.53,1196.57 2188.59,1215.57 2190.64,1150.48 2192.69,1240.1 2194.74,1765.9 2196.8,1577.4 2198.85,1409.92 2200.9,1160.29 2202.96,1159.92 2205.01,1107.82 2207.06,1210.67 2209.12,1179.81 2211.17,1126.26 2213.22,1137.84 2215.27,1361.63 2217.33,1193.01 2219.38,1167.98 2221.43,1165.64 2223.49,1163.98 2225.54,1161.01 2227.59,1170.44 2229.64,1168.82 2231.7,1159.54 2233.75,1179.34 2235.8,1138.7 2237.86,1210.38 2239.91,1176.82 2241.96,1194.24 2244.01,1197.05 2246.07,1109.24 2248.12,1142.56 2250.17,1068.69 2252.23,1169.19 2254.28,1163.96 2256.33,1129.25 2258.38,1133.47 2260.44,1187.87 2262.49,1118.9 2264.54,1196.89 2266.6,1131.45 2268.65,1202.32 2270.7,1152.14 2272.75,1223.14 2274.81,1128.54 2276.86,1117.39 2278.91,1140.11 2280.97,1192.09 2283.02,1212.22 2285.07,1199.86 2287.12,1313.14 2289.18,1226.83 2291.23,1173.65 "/>
<path clip-path="url(#clip650)" d="M251.33 1465.14 L588.926 1465.14 L588.926 1361.46 L251.33 1361.46  Z" fill="#ffffff" fill-rule="evenodd" fill-opacity="1"/>
<polyline clip-path="url(#clip650)" style="stroke:#000000; stroke-linecap:round; stroke-linejoin:round; stroke-width:4; stroke-opacity:1; fill:none" points="251.33,1465.14 588.926,1465.14 588.926,1361.46 251.33,1361.46 251.33,1465.14 "/>
<polyline clip-path="url(#clip650)" style="stroke:#009af9; stroke-linecap:round; stroke-linejoin:round; stroke-width:4; stroke-opacity:1; fill:none" points="275.484,1413.3 420.41,1413.3 "/>
<path clip-path="url(#clip650)" d="M470.12 1425.65 L470.12 1416.37 L462.481 1416.37 L462.481 1412.53 L474.749 1412.53 L474.749 1427.36 Q472.041 1429.28 468.777 1430.28 Q465.513 1431.25 461.809 1431.25 Q453.708 1431.25 449.124 1426.53 Q444.564 1421.78 444.564 1413.34 Q444.564 1404.86 449.124 1400.14 Q453.708 1395.4 461.809 1395.4 Q465.189 1395.4 468.221 1396.23 Q471.277 1397.06 473.846 1398.68 L473.846 1403.66 Q471.254 1401.46 468.337 1400.35 Q465.421 1399.24 462.203 1399.24 Q455.86 1399.24 452.666 1402.78 Q449.495 1406.32 449.495 1413.34 Q449.495 1420.33 452.666 1423.87 Q455.86 1427.41 462.203 1427.41 Q464.68 1427.41 466.624 1426.99 Q468.569 1426.55 470.12 1425.65 Z" fill="#000000" fill-rule="nonzero" fill-opacity="1" /><path clip-path="url(#clip650)" d="M487.967 1399.86 L487.967 1412.85 L493.846 1412.85 Q497.11 1412.85 498.893 1411.16 Q500.675 1409.47 500.675 1406.35 Q500.675 1403.24 498.893 1401.55 Q497.11 1399.86 493.846 1399.86 L487.967 1399.86 M483.291 1396.02 L493.846 1396.02 Q499.657 1396.02 502.619 1398.66 Q505.606 1401.28 505.606 1406.35 Q505.606 1411.46 502.619 1414.08 Q499.657 1416.69 493.846 1416.69 L487.967 1416.69 L487.967 1430.58 L483.291 1430.58 L483.291 1396.02 Z" fill="#000000" fill-rule="nonzero" fill-opacity="1" /><path clip-path="url(#clip650)" d="M532.596 1397.16 L532.596 1401.72 Q529.934 1400.44 527.573 1399.82 Q525.212 1399.19 523.013 1399.19 Q519.193 1399.19 517.11 1400.67 Q515.05 1402.16 515.05 1404.89 Q515.05 1407.18 516.416 1408.36 Q517.805 1409.52 521.647 1410.23 L524.471 1410.81 Q529.703 1411.81 532.179 1414.33 Q534.679 1416.83 534.679 1421.04 Q534.679 1426.07 531.3 1428.66 Q527.943 1431.25 521.439 1431.25 Q518.985 1431.25 516.207 1430.7 Q513.453 1430.14 510.49 1429.05 L510.49 1424.24 Q513.337 1425.84 516.068 1426.65 Q518.8 1427.46 521.439 1427.46 Q525.443 1427.46 527.619 1425.88 Q529.795 1424.31 529.795 1421.39 Q529.795 1418.85 528.221 1417.41 Q526.67 1415.97 523.105 1415.26 L520.258 1414.7 Q515.027 1413.66 512.689 1411.44 Q510.351 1409.22 510.351 1405.26 Q510.351 1400.67 513.568 1398.03 Q516.809 1395.4 522.48 1395.4 Q524.911 1395.4 527.434 1395.84 Q529.957 1396.28 532.596 1397.16 Z" fill="#000000" fill-rule="nonzero" fill-opacity="1" /><path clip-path="url(#clip650)" d="M562.689 1397.16 L562.689 1401.72 Q560.027 1400.44 557.665 1399.82 Q555.304 1399.19 553.105 1399.19 Q549.286 1399.19 547.203 1400.67 Q545.142 1402.16 545.142 1404.89 Q545.142 1407.18 546.508 1408.36 Q547.897 1409.52 551.74 1410.23 L554.564 1410.81 Q559.795 1411.81 562.272 1414.33 Q564.772 1416.83 564.772 1421.04 Q564.772 1426.07 561.392 1428.66 Q558.036 1431.25 551.531 1431.25 Q549.078 1431.25 546.3 1430.7 Q543.545 1430.14 540.582 1429.05 L540.582 1424.24 Q543.429 1425.84 546.161 1426.65 Q548.892 1427.46 551.531 1427.46 Q555.536 1427.46 557.712 1425.88 Q559.888 1424.31 559.888 1421.39 Q559.888 1418.85 558.314 1417.41 Q556.763 1415.97 553.198 1415.26 L550.351 1414.7 Q545.119 1413.66 542.781 1411.44 Q540.443 1409.22 540.443 1405.26 Q540.443 1400.67 543.661 1398.03 Q546.902 1395.4 552.573 1395.4 Q555.003 1395.4 557.527 1395.84 Q560.05 1396.28 562.689 1397.16 Z" fill="#000000" fill-rule="nonzero" fill-opacity="1" /></svg>
