<?xml version="1.0" encoding="utf-8"?>
<svg xmlns="http://www.w3.org/2000/svg" xmlns:xlink="http://www.w3.org/1999/xlink" width="600" height="400" viewBox="0 0 2400 1600">
<defs>
  <clipPath id="clip480">
    <rect x="0" y="0" width="2400" height="1600"/>
  </clipPath>
</defs>
<path clip-path="url(#clip480)" d="M0 1600 L2400 1600 L2400 0 L0 0  Z" fill="#ffffff" fill-rule="evenodd" fill-opacity="1"/>
<defs>
  <clipPath id="clip481">
    <rect x="480" y="0" width="1681" height="1600"/>
  </clipPath>
</defs>
<path clip-path="url(#clip480)" d="M178.867 686.448 L2352.76 686.448 L2352.76 47.2441 L178.867 47.2441  Z" fill="#ffffff" fill-rule="evenodd" fill-opacity="1"/>
<defs>
  <clipPath id="clip482">
    <rect x="178" y="47" width="2175" height="640"/>
  </clipPath>
</defs>
<polyline clip-path="url(#clip482)" style="stroke:#000000; stroke-linecap:round; stroke-linejoin:round; stroke-width:2; stroke-opacity:0.1; fill:none" points="238.339,686.448 238.339,47.2441 "/>
<polyline clip-path="url(#clip482)" style="stroke:#000000; stroke-linecap:round; stroke-linejoin:round; stroke-width:2; stroke-opacity:0.1; fill:none" points="751.562,686.448 751.562,47.2441 "/>
<polyline clip-path="url(#clip482)" style="stroke:#000000; stroke-linecap:round; stroke-linejoin:round; stroke-width:2; stroke-opacity:0.1; fill:none" points="1264.78,686.448 1264.78,47.2441 "/>
<polyline clip-path="url(#clip482)" style="stroke:#000000; stroke-linecap:round; stroke-linejoin:round; stroke-width:2; stroke-opacity:0.1; fill:none" points="1778.01,686.448 1778.01,47.2441 "/>
<polyline clip-path="url(#clip482)" style="stroke:#000000; stroke-linecap:round; stroke-linejoin:round; stroke-width:2; stroke-opacity:0.1; fill:none" points="2291.23,686.448 2291.23,47.2441 "/>
<polyline clip-path="url(#clip482)" style="stroke:#000000; stroke-linecap:round; stroke-linejoin:round; stroke-width:2; stroke-opacity:0.1; fill:none" points="178.867,686.448 2352.76,686.448 "/>
<polyline clip-path="url(#clip482)" style="stroke:#000000; stroke-linecap:round; stroke-linejoin:round; stroke-width:2; stroke-opacity:0.1; fill:none" points="178.867,526.647 2352.76,526.647 "/>
<polyline clip-path="url(#clip482)" style="stroke:#000000; stroke-linecap:round; stroke-linejoin:round; stroke-width:2; stroke-opacity:0.1; fill:none" points="178.867,366.846 2352.76,366.846 "/>
<polyline clip-path="url(#clip482)" style="stroke:#000000; stroke-linecap:round; stroke-linejoin:round; stroke-width:2; stroke-opacity:0.1; fill:none" points="178.867,207.045 2352.76,207.045 "/>
<polyline clip-path="url(#clip482)" style="stroke:#000000; stroke-linecap:round; stroke-linejoin:round; stroke-width:2; stroke-opacity:0.1; fill:none" points="178.867,47.2441 2352.76,47.2441 "/>
<polyline clip-path="url(#clip480)" style="stroke:#000000; stroke-linecap:round; stroke-linejoin:round; stroke-width:4; stroke-opacity:1; fill:none" points="178.867,686.448 2352.76,686.448 "/>
<polyline clip-path="url(#clip480)" style="stroke:#000000; stroke-linecap:round; stroke-linejoin:round; stroke-width:4; stroke-opacity:1; fill:none" points="238.339,686.448 238.339,667.55 "/>
<polyline clip-path="url(#clip480)" style="stroke:#000000; stroke-linecap:round; stroke-linejoin:round; stroke-width:4; stroke-opacity:1; fill:none" points="751.562,686.448 751.562,667.55 "/>
<polyline clip-path="url(#clip480)" style="stroke:#000000; stroke-linecap:round; stroke-linejoin:round; stroke-width:4; stroke-opacity:1; fill:none" points="1264.78,686.448 1264.78,667.55 "/>
<polyline clip-path="url(#clip480)" style="stroke:#000000; stroke-linecap:round; stroke-linejoin:round; stroke-width:4; stroke-opacity:1; fill:none" points="1778.01,686.448 1778.01,667.55 "/>
<polyline clip-path="url(#clip480)" style="stroke:#000000; stroke-linecap:round; stroke-linejoin:round; stroke-width:4; stroke-opacity:1; fill:none" points="2291.23,686.448 2291.23,667.55 "/>
<path clip-path="url(#clip480)" d="M238.339 717.367 Q234.728 717.367 232.899 720.931 Q231.094 724.473 231.094 731.603 Q231.094 738.709 232.899 742.274 Q234.728 745.815 238.339 745.815 Q241.973 745.815 243.779 742.274 Q245.607 738.709 245.607 731.603 Q245.607 724.473 243.779 720.931 Q241.973 717.367 238.339 717.367 M238.339 713.663 Q244.149 713.663 247.205 718.269 Q250.283 722.853 250.283 731.603 Q250.283 740.329 247.205 744.936 Q244.149 749.519 238.339 749.519 Q232.529 749.519 229.45 744.936 Q226.395 740.329 226.395 731.603 Q226.395 722.853 229.45 718.269 Q232.529 713.663 238.339 713.663 Z" fill="#000000" fill-rule="nonzero" fill-opacity="1" /><path clip-path="url(#clip480)" d="M715.254 744.913 L731.574 744.913 L731.574 748.848 L709.629 748.848 L709.629 744.913 Q712.291 742.158 716.875 737.528 Q721.481 732.876 722.662 731.533 Q724.907 729.01 725.787 727.274 Q726.689 725.515 726.689 723.825 Q726.689 721.07 724.745 719.334 Q722.824 717.598 719.722 717.598 Q717.523 717.598 715.069 718.362 Q712.638 719.126 709.861 720.677 L709.861 715.955 Q712.685 714.82 715.138 714.242 Q717.592 713.663 719.629 713.663 Q725 713.663 728.194 716.348 Q731.388 719.033 731.388 723.524 Q731.388 725.654 730.578 727.575 Q729.791 729.473 727.685 732.066 Q727.106 732.737 724.004 735.954 Q720.902 739.149 715.254 744.913 Z" fill="#000000" fill-rule="nonzero" fill-opacity="1" /><path clip-path="url(#clip480)" d="M741.435 714.288 L759.791 714.288 L759.791 718.223 L745.717 718.223 L745.717 726.695 Q746.736 726.348 747.754 726.186 Q748.773 726.001 749.791 726.001 Q755.578 726.001 758.958 729.172 Q762.337 732.343 762.337 737.76 Q762.337 743.339 758.865 746.44 Q755.393 749.519 749.073 749.519 Q746.898 749.519 744.629 749.149 Q742.384 748.778 739.976 748.038 L739.976 743.339 Q742.06 744.473 744.282 745.028 Q746.504 745.584 748.981 745.584 Q752.985 745.584 755.323 743.478 Q757.661 741.371 757.661 737.76 Q757.661 734.149 755.323 732.042 Q752.985 729.936 748.981 729.936 Q747.106 729.936 745.231 730.353 Q743.379 730.769 741.435 731.649 L741.435 714.288 Z" fill="#000000" fill-rule="nonzero" fill-opacity="1" /><path clip-path="url(#clip480)" d="M781.55 717.367 Q777.939 717.367 776.11 720.931 Q774.305 724.473 774.305 731.603 Q774.305 738.709 776.11 742.274 Q777.939 745.815 781.55 745.815 Q785.184 745.815 786.99 742.274 Q788.819 738.709 788.819 731.603 Q788.819 724.473 786.99 720.931 Q785.184 717.367 781.55 717.367 M781.55 713.663 Q787.36 713.663 790.416 718.269 Q793.495 722.853 793.495 731.603 Q793.495 740.329 790.416 744.936 Q787.36 749.519 781.55 749.519 Q775.74 749.519 772.661 744.936 Q769.606 740.329 769.606 731.603 Q769.606 722.853 772.661 718.269 Q775.74 713.663 781.55 713.663 Z" fill="#000000" fill-rule="nonzero" fill-opacity="1" /><path clip-path="url(#clip480)" d="M1224.4 714.288 L1242.76 714.288 L1242.76 718.223 L1228.69 718.223 L1228.69 726.695 Q1229.7 726.348 1230.72 726.186 Q1231.74 726.001 1232.76 726.001 Q1238.55 726.001 1241.93 729.172 Q1245.31 732.343 1245.31 737.76 Q1245.31 743.339 1241.83 746.44 Q1238.36 749.519 1232.04 749.519 Q1229.87 749.519 1227.6 749.149 Q1225.35 748.778 1222.94 748.038 L1222.94 743.339 Q1225.03 744.473 1227.25 745.028 Q1229.47 745.584 1231.95 745.584 Q1235.95 745.584 1238.29 743.478 Q1240.63 741.371 1240.63 737.76 Q1240.63 734.149 1238.29 732.042 Q1235.95 729.936 1231.95 729.936 Q1230.07 729.936 1228.2 730.353 Q1226.35 730.769 1224.4 731.649 L1224.4 714.288 Z" fill="#000000" fill-rule="nonzero" fill-opacity="1" /><path clip-path="url(#clip480)" d="M1264.52 717.367 Q1260.91 717.367 1259.08 720.931 Q1257.27 724.473 1257.27 731.603 Q1257.27 738.709 1259.08 742.274 Q1260.91 745.815 1264.52 745.815 Q1268.15 745.815 1269.96 742.274 Q1271.79 738.709 1271.79 731.603 Q1271.79 724.473 1269.96 720.931 Q1268.15 717.367 1264.52 717.367 M1264.52 713.663 Q1270.33 713.663 1273.38 718.269 Q1276.46 722.853 1276.46 731.603 Q1276.46 740.329 1273.38 744.936 Q1270.33 749.519 1264.52 749.519 Q1258.71 749.519 1255.63 744.936 Q1252.57 740.329 1252.57 731.603 Q1252.57 722.853 1255.63 718.269 Q1258.71 713.663 1264.52 713.663 Z" fill="#000000" fill-rule="nonzero" fill-opacity="1" /><path clip-path="url(#clip480)" d="M1294.68 717.367 Q1291.07 717.367 1289.24 720.931 Q1287.44 724.473 1287.44 731.603 Q1287.44 738.709 1289.24 742.274 Q1291.07 745.815 1294.68 745.815 Q1298.31 745.815 1300.12 742.274 Q1301.95 738.709 1301.95 731.603 Q1301.95 724.473 1300.12 720.931 Q1298.31 717.367 1294.68 717.367 M1294.68 713.663 Q1300.49 713.663 1303.55 718.269 Q1306.62 722.853 1306.62 731.603 Q1306.62 740.329 1303.55 744.936 Q1300.49 749.519 1294.68 749.519 Q1288.87 749.519 1285.79 744.936 Q1282.74 740.329 1282.74 731.603 Q1282.74 722.853 1285.79 718.269 Q1288.87 713.663 1294.68 713.663 Z" fill="#000000" fill-rule="nonzero" fill-opacity="1" /><path clip-path="url(#clip480)" d="M1736.28 714.288 L1758.51 714.288 L1758.51 716.279 L1745.96 748.848 L1741.08 748.848 L1752.88 718.223 L1736.28 718.223 L1736.28 714.288 Z" fill="#000000" fill-rule="nonzero" fill-opacity="1" /><path clip-path="url(#clip480)" d="M1767.67 714.288 L1786.03 714.288 L1786.03 718.223 L1771.95 718.223 L1771.95 726.695 Q1772.97 726.348 1773.99 726.186 Q1775.01 726.001 1776.03 726.001 Q1781.82 726.001 1785.2 729.172 Q1788.57 732.343 1788.57 737.76 Q1788.57 743.339 1785.1 746.44 Q1781.63 749.519 1775.31 749.519 Q1773.14 749.519 1770.87 749.149 Q1768.62 748.778 1766.21 748.038 L1766.21 743.339 Q1768.3 744.473 1770.52 745.028 Q1772.74 745.584 1775.22 745.584 Q1779.22 745.584 1781.56 743.478 Q1783.9 741.371 1783.9 737.76 Q1783.9 734.149 1781.56 732.042 Q1779.22 729.936 1775.22 729.936 Q1773.34 729.936 1771.47 730.353 Q1769.62 730.769 1767.67 731.649 L1767.67 714.288 Z" fill="#000000" fill-rule="nonzero" fill-opacity="1" /><path clip-path="url(#clip480)" d="M1807.79 717.367 Q1804.18 717.367 1802.35 720.931 Q1800.54 724.473 1800.54 731.603 Q1800.54 738.709 1802.35 742.274 Q1804.18 745.815 1807.79 745.815 Q1811.42 745.815 1813.23 742.274 Q1815.06 738.709 1815.06 731.603 Q1815.06 724.473 1813.23 720.931 Q1811.42 717.367 1807.79 717.367 M1807.79 713.663 Q1813.6 713.663 1816.65 718.269 Q1819.73 722.853 1819.73 731.603 Q1819.73 740.329 1816.65 744.936 Q1813.6 749.519 1807.79 749.519 Q1801.98 749.519 1798.9 744.936 Q1795.84 740.329 1795.84 731.603 Q1795.84 722.853 1798.9 718.269 Q1801.98 713.663 1807.79 713.663 Z" fill="#000000" fill-rule="nonzero" fill-opacity="1" /><path clip-path="url(#clip480)" d="M2235.76 744.913 L2243.4 744.913 L2243.4 718.547 L2235.09 720.214 L2235.09 715.955 L2243.35 714.288 L2248.02 714.288 L2248.02 744.913 L2255.66 744.913 L2255.66 748.848 L2235.76 748.848 L2235.76 744.913 Z" fill="#000000" fill-rule="nonzero" fill-opacity="1" /><path clip-path="url(#clip480)" d="M2275.11 717.367 Q2271.5 717.367 2269.67 720.931 Q2267.86 724.473 2267.86 731.603 Q2267.86 738.709 2269.67 742.274 Q2271.5 745.815 2275.11 745.815 Q2278.74 745.815 2280.55 742.274 Q2282.38 738.709 2282.38 731.603 Q2282.38 724.473 2280.55 720.931 Q2278.74 717.367 2275.11 717.367 M2275.11 713.663 Q2280.92 713.663 2283.97 718.269 Q2287.05 722.853 2287.05 731.603 Q2287.05 740.329 2283.97 744.936 Q2280.92 749.519 2275.11 749.519 Q2269.3 749.519 2266.22 744.936 Q2263.16 740.329 2263.16 731.603 Q2263.16 722.853 2266.22 718.269 Q2269.3 713.663 2275.11 713.663 Z" fill="#000000" fill-rule="nonzero" fill-opacity="1" /><path clip-path="url(#clip480)" d="M2305.27 717.367 Q2301.66 717.367 2299.83 720.931 Q2298.02 724.473 2298.02 731.603 Q2298.02 738.709 2299.83 742.274 Q2301.66 745.815 2305.27 745.815 Q2308.9 745.815 2310.71 742.274 Q2312.54 738.709 2312.54 731.603 Q2312.54 724.473 2310.71 720.931 Q2308.9 717.367 2305.27 717.367 M2305.27 713.663 Q2311.08 713.663 2314.14 718.269 Q2317.21 722.853 2317.21 731.603 Q2317.21 740.329 2314.14 744.936 Q2311.08 749.519 2305.27 749.519 Q2299.46 749.519 2296.38 744.936 Q2293.33 740.329 2293.33 731.603 Q2293.33 722.853 2296.38 718.269 Q2299.46 713.663 2305.27 713.663 Z" fill="#000000" fill-rule="nonzero" fill-opacity="1" /><path clip-path="url(#clip480)" d="M2335.43 717.367 Q2331.82 717.367 2329.99 720.931 Q2328.19 724.473 2328.19 731.603 Q2328.19 738.709 2329.99 742.274 Q2331.82 745.815 2335.43 745.815 Q2339.07 745.815 2340.87 742.274 Q2342.7 738.709 2342.7 731.603 Q2342.7 724.473 2340.87 720.931 Q2339.07 717.367 2335.43 717.367 M2335.43 713.663 Q2341.24 713.663 2344.3 718.269 Q2347.38 722.853 2347.38 731.603 Q2347.38 740.329 2344.3 744.936 Q2341.24 749.519 2335.43 749.519 Q2329.62 749.519 2326.54 744.936 Q2323.49 740.329 2323.49 731.603 Q2323.49 722.853 2326.54 718.269 Q2329.62 713.663 2335.43 713.663 Z" fill="#000000" fill-rule="nonzero" fill-opacity="1" /><polyline clip-path="url(#clip480)" style="stroke:#000000; stroke-linecap:round; stroke-linejoin:round; stroke-width:4; stroke-opacity:1; fill:none" points="178.867,686.448 178.867,47.2441 "/>
<polyline clip-path="url(#clip480)" style="stroke:#000000; stroke-linecap:round; stroke-linejoin:round; stroke-width:4; stroke-opacity:1; fill:none" points="178.867,686.448 197.764,686.448 "/>
<polyline clip-path="url(#clip480)" style="stroke:#000000; stroke-linecap:round; stroke-linejoin:round; stroke-width:4; stroke-opacity:1; fill:none" points="178.867,526.647 197.764,526.647 "/>
<polyline clip-path="url(#clip480)" style="stroke:#000000; stroke-linecap:round; stroke-linejoin:round; stroke-width:4; stroke-opacity:1; fill:none" points="178.867,366.846 197.764,366.846 "/>
<polyline clip-path="url(#clip480)" style="stroke:#000000; stroke-linecap:round; stroke-linejoin:round; stroke-width:4; stroke-opacity:1; fill:none" points="178.867,207.045 197.764,207.045 "/>
<polyline clip-path="url(#clip480)" style="stroke:#000000; stroke-linecap:round; stroke-linejoin:round; stroke-width:4; stroke-opacity:1; fill:none" points="178.867,47.2441 197.764,47.2441 "/>
<path clip-path="url(#clip480)" d="M50.9921 686.899 L80.6679 686.899 L80.6679 690.834 L50.9921 690.834 L50.9921 686.899 Z" fill="#000000" fill-rule="nonzero" fill-opacity="1" /><path clip-path="url(#clip480)" d="M91.5706 699.793 L99.2095 699.793 L99.2095 673.427 L90.8993 675.094 L90.8993 670.835 L99.1632 669.168 L103.839 669.168 L103.839 699.793 L111.478 699.793 L111.478 703.728 L91.5706 703.728 L91.5706 699.793 Z" fill="#000000" fill-rule="nonzero" fill-opacity="1" /><path clip-path="url(#clip480)" d="M130.922 672.247 Q127.311 672.247 125.482 675.811 Q123.677 679.353 123.677 686.483 Q123.677 693.589 125.482 697.154 Q127.311 700.695 130.922 700.695 Q134.556 700.695 136.362 697.154 Q138.191 693.589 138.191 686.483 Q138.191 679.353 136.362 675.811 Q134.556 672.247 130.922 672.247 M130.922 668.543 Q136.732 668.543 139.788 673.149 Q142.867 677.733 142.867 686.483 Q142.867 695.209 139.788 699.816 Q136.732 704.399 130.922 704.399 Q125.112 704.399 122.033 699.816 Q118.978 695.209 118.978 686.483 Q118.978 677.733 122.033 673.149 Q125.112 668.543 130.922 668.543 Z" fill="#000000" fill-rule="nonzero" fill-opacity="1" /><path clip-path="url(#clip480)" d="M82.1494 527.098 L111.825 527.098 L111.825 531.033 L82.1494 531.033 L82.1494 527.098 Z" fill="#000000" fill-rule="nonzero" fill-opacity="1" /><path clip-path="url(#clip480)" d="M121.964 509.367 L140.32 509.367 L140.32 513.302 L126.246 513.302 L126.246 521.774 Q127.265 521.427 128.283 521.265 Q129.302 521.08 130.32 521.08 Q136.107 521.08 139.487 524.251 Q142.867 527.422 142.867 532.839 Q142.867 538.418 139.394 541.52 Q135.922 544.598 129.603 544.598 Q127.427 544.598 125.158 544.228 Q122.913 543.857 120.506 543.117 L120.506 538.418 Q122.589 539.552 124.811 540.108 Q127.033 540.663 129.51 540.663 Q133.515 540.663 135.853 538.557 Q138.191 536.45 138.191 532.839 Q138.191 529.228 135.853 527.121 Q133.515 525.015 129.51 525.015 Q127.635 525.015 125.76 525.432 Q123.908 525.848 121.964 526.728 L121.964 509.367 Z" fill="#000000" fill-rule="nonzero" fill-opacity="1" /><path clip-path="url(#clip480)" d="M130.922 352.645 Q127.311 352.645 125.482 356.209 Q123.677 359.751 123.677 366.881 Q123.677 373.987 125.482 377.552 Q127.311 381.094 130.922 381.094 Q134.556 381.094 136.362 377.552 Q138.191 373.987 138.191 366.881 Q138.191 359.751 136.362 356.209 Q134.556 352.645 130.922 352.645 M130.922 348.941 Q136.732 348.941 139.788 353.547 Q142.867 358.131 142.867 366.881 Q142.867 375.608 139.788 380.214 Q136.732 384.797 130.922 384.797 Q125.112 384.797 122.033 380.214 Q118.978 375.608 118.978 366.881 Q118.978 358.131 122.033 353.547 Q125.112 348.941 130.922 348.941 Z" fill="#000000" fill-rule="nonzero" fill-opacity="1" /><path clip-path="url(#clip480)" d="M121.964 189.765 L140.32 189.765 L140.32 193.7 L126.246 193.7 L126.246 202.172 Q127.265 201.825 128.283 201.663 Q129.302 201.478 130.32 201.478 Q136.107 201.478 139.487 204.649 Q142.867 207.82 142.867 213.237 Q142.867 218.816 139.394 221.918 Q135.922 224.996 129.603 224.996 Q127.427 224.996 125.158 224.626 Q122.913 224.256 120.506 223.515 L120.506 218.816 Q122.589 219.95 124.811 220.506 Q127.033 221.061 129.51 221.061 Q133.515 221.061 135.853 218.955 Q138.191 216.848 138.191 213.237 Q138.191 209.626 135.853 207.52 Q133.515 205.413 129.51 205.413 Q127.635 205.413 125.76 205.83 Q123.908 206.246 121.964 207.126 L121.964 189.765 Z" fill="#000000" fill-rule="nonzero" fill-opacity="1" /><path clip-path="url(#clip480)" d="M91.5706 60.5889 L99.2095 60.5889 L99.2095 34.2233 L90.8993 35.89 L90.8993 31.6308 L99.1632 29.9641 L103.839 29.9641 L103.839 60.5889 L111.478 60.5889 L111.478 64.5241 L91.5706 64.5241 L91.5706 60.5889 Z" fill="#000000" fill-rule="nonzero" fill-opacity="1" /><path clip-path="url(#clip480)" d="M130.922 33.0428 Q127.311 33.0428 125.482 36.6076 Q123.677 40.1492 123.677 47.2788 Q123.677 54.3853 125.482 57.9501 Q127.311 61.4917 130.922 61.4917 Q134.556 61.4917 136.362 57.9501 Q138.191 54.3853 138.191 47.2788 Q138.191 40.1492 136.362 36.6076 Q134.556 33.0428 130.922 33.0428 M130.922 29.3391 Q136.732 29.3391 139.788 33.9456 Q142.867 38.5289 142.867 47.2788 Q142.867 56.0056 139.788 60.6121 Q136.732 65.1954 130.922 65.1954 Q125.112 65.1954 122.033 60.6121 Q118.978 56.0056 118.978 47.2788 Q118.978 38.5289 122.033 33.9456 Q125.112 29.3391 130.922 29.3391 Z" fill="#000000" fill-rule="nonzero" fill-opacity="1" /><polyline clip-path="url(#clip482)" style="stroke:#009af9; stroke-linecap:round; stroke-linejoin:round; stroke-width:4; stroke-opacity:1; fill:none" points="240.392,334.886 242.445,336.903 244.498,361.394 246.55,354.922 248.603,341.229 250.656,369.435 252.709,367.793 254.762,368.003 256.815,367.309 258.868,384.916 260.921,383.052 262.974,354.34 265.027,355.055 267.079,333.227 269.132,333.561 271.185,336.243 273.238,336.196 275.291,336.604 277.344,313.252 279.397,316.471 281.45,330.105 283.503,331.087 285.555,330.772 287.608,333.121 289.661,333.231 291.714,341.034 293.767,341.247 295.82,354.06 297.873,353.533 299.926,367.073 301.979,366.994 304.031,367.072 306.084,379.829 308.137,379.822 310.19,379.773 312.243,381.472 314.296,395.277 316.349,418.173 318.402,427.238 320.455,415.584 322.507,414.898 324.56,365.589 326.613,364.111 328.666,364.571 330.719,358.619 332.772,354.089 334.825,350.451 336.878,349.96 338.931,351.619 340.984,341.309 343.036,344.097 345.089,343.343 347.142,334.108 349.195,366.348 351.248,366.326 353.301,365.736 355.354,383.427 357.407,381.692 359.46,379.827 361.512,377.572 363.565,370.768 365.618,368.921 367.671,369.255 369.724,368.815 371.777,358.878 373.83,359.119 375.883,364.248 377.936,365.003 379.988,366.366 382.041,362.188 384.094,361.529 386.147,362.61 388.2,370.838 390.253,382.959 392.306,380.48 394.359,380.53 396.412,380.403 398.464,399.111 400.517,399.553 402.57,398.542 404.623,398.37 406.676,400.118 408.729,389.585 410.782,381.559 412.835,381.56 414.888,381.091 416.94,380.854 418.993,380.626 421.046,377.403 423.099,378.961 425.152,378.242 427.205,373.653 429.258,359.15 431.311,356.712 433.364,356.352 435.417,361.188 437.469,361.173 439.522,364.673 441.575,364.745 443.628,367.975 445.681,362.437 447.734,363.164 449.787,364.411 451.84,367.785 453.893,369.447 455.945,371.569 457.998,369.103 460.051,371.332 462.104,369.82 464.157,370.962 466.21,371.402 468.263,371.223 470.316,371.126 472.369,371.125 474.421,370.959 476.474,370.959 478.527,370.938 480.58,363.002 482.633,363.346 484.686,361.688 486.739,349.272 488.792,351.891 490.845,367.26 492.897,367.073 494.95,366.715 497.003,375.712 499.056,372.871 501.109,372.377 503.162,372.605 505.215,372.87 507.268,372.643 509.321,372.391 511.374,372.303 513.426,371.96 515.479,372.086 517.532,364.484 519.585,364.538 521.638,346.502 523.691,346.749 525.744,347.686 527.797,346.946 529.85,366.928 531.902,364.382 533.955,363.539 536.008,360.156 538.061,352.622 540.114,357.009 542.167,352.227 544.22,352.859 546.273,418.012 548.326,440.254 550.378,435.804 552.431,393.854 554.484,393.715 556.537,411.668 558.59,412.444 560.643,404.721 562.696,403.951 564.749,398.996 566.802,400.332 568.854,400.047 570.907,400.449 572.96,396.596 575.013,398.112 577.066,426.232 579.119,414.681 581.172,380.733 583.225,384.582 585.278,383.422 587.331,356.029 589.383,355.394 591.436,369.459 593.489,337.171 595.542,336.551 597.595,334.866 599.648,337.643 601.701,353.239 603.754,382.531 605.807,394.001 607.859,395.066 609.912,395.83 611.965,396.229 614.018,396.793 616.071,397.276 618.124,403.809 620.177,390.028 622.23,389.785 624.283,393.018 626.335,377.878 628.388,371.823 630.441,371.878 632.494,403.173 634.547,397.737 636.6,398.86 638.653,398.375 640.706,360.688 642.759,371.338 644.811,372.696 646.864,397.171 648.917,374.835 650.97,376.417 653.023,387.335 655.076,411.477 657.129,384.649 659.182,384.91 661.235,386.594 663.288,384.41 665.34,381.062 667.393,379.074 669.446,417.287 671.499,417.328 673.552,418.812 675.605,423.393 677.658,420.39 679.711,420.389 681.764,420.375 683.816,417.566 685.869,407.333 687.922,404.161 689.975,474.979 692.028,424.162 694.081,318.311 696.134,307.718 698.187,306.198 700.24,292.61 702.292,303.507 704.345,303.697 706.398,299.626 708.451,306.692 710.504,306.226 712.557,320.012 714.61,315.058 716.663,318.246 718.716,366.894 720.768,362.759 722.821,367.689 724.874,358.735 726.927,352.283 728.98,348.232 731.033,346.02 733.086,345.957 735.139,347.361 737.192,316.476 739.245,307.847 741.297,325.911 743.35,328.794 745.403,370.057 747.456,380.394 749.509,379.777 751.562,421.769 753.615,409.58 755.668,405.128 757.721,437.956 759.773,395.057 761.826,399.691 763.879,454.3 765.932,513.932 767.985,404.453 770.038,387.821 772.091,448.019 774.144,432.564 776.197,430.866 778.249,288.813 780.302,289.144 782.355,316.041 784.408,340.268 786.461,312.392 788.514,316.402 790.567,358.071 792.62,373.934 794.673,385.691 796.725,439.865 798.778,508.714 800.831,361.146 802.884,312.629 804.937,315.366 806.99,323.542 809.043,573.265 811.096,538.882 813.149,503.94 815.202,589.984 817.254,590.208 819.307,568.159 821.36,365.769 823.413,365.989 825.466,353.059 827.519,284.478 829.572,285.705 831.625,312.281 833.678,380.929 835.73,387.835 837.783,324.011 839.836,317.529 841.889,331.465 843.942,459.266 845.995,456.235 848.048,446.951 850.101,446.986 852.154,426.425 854.206,426.49 856.259,411.085 858.312,474.31 860.365,483.956 862.418,454.343 864.471,453.775 866.524,470.831 868.577,352.014 870.63,401.938 872.682,308.397 874.735,18.3852 876.788,93.3708 878.841,203.48 880.894,192.058 882.947,181.811 885,200.639 887.053,244.126 889.106,429.415 891.159,425.773 893.211,479.804 895.264,478.432 897.317,469.972 899.37,453.593 901.423,428.902 903.476,428.872 905.529,428.301 907.582,405.885 909.635,397.344 911.687,333.1 913.74,336.135 915.793,329.563 917.846,335.541 919.899,335.38 921.952,336.243 924.005,336.672 926.058,336.321 928.111,335.526 930.163,373.943 932.216,351.342 934.269,363.563 936.322,379.842 938.375,351.288 940.428,354.866 942.481,385.609 944.534,384.345 946.587,384.675 948.639,383.496 950.692,406.155 952.745,406.159 954.798,409.728 956.851,409.713 958.904,410.953 960.957,408.311 963.01,409.063 965.063,406.102 967.116,402.746 969.168,342.131 971.221,342.346 973.274,336.307 975.327,336.345 977.38,354.503 979.433,361.016 981.486,364.771 983.539,363.068 985.592,364.587 987.644,375.662 989.697,377.861 991.75,377.23 993.803,376.407 995.856,395.666 997.909,398.868 999.962,402.755 1002.01,403.483 1004.07,408.885 1006.12,401.408 1008.17,393.712 1010.23,415.504 1012.28,419.158 1014.33,356.834 1016.38,342.072 1018.44,341.488 1020.49,347.889 1022.54,331.251 1024.6,423.286 1026.65,392.611 1028.7,435.619 1030.76,430.085 1032.81,427.026 1034.86,320.817 1036.91,320.694 1038.97,327.252 1041.02,326.865 1043.07,324.949 1045.13,314.331 1047.18,312.568 1049.23,309.283 1051.28,322.509 1053.34,448.292 1055.39,448.374 1057.44,438.757 1059.5,450.418 1061.55,451.738 1063.6,241.993 1065.65,248.59 1067.71,249.631 1069.76,250.972 1071.81,332.846 1073.87,428.14 1075.92,417.697 1077.97,411.006 1080.02,398.913 1082.08,398.367 1084.13,476.928 1086.18,445.378 1088.24,242.099 1090.29,243.042 1092.34,260.064 1094.39,262.95 1096.45,264.821 1098.5,261.107 1100.55,256.237 1102.61,256.291 1104.66,257.078 1106.71,241.598 1108.77,242.955 1110.82,409.141 1112.87,367.648 1114.92,443.081 1116.98,422.46 1119.03,411.829 1121.08,434.893 1123.14,435.156 1125.19,280.612 1127.24,280.081 1129.29,277.581 1131.35,277.687 1133.4,278.423 1135.45,411.96 1137.51,371.417 1139.56,380.735 1141.61,399.632 1143.66,414.189 1145.72,393.539 1147.77,394.537 1149.82,394.006 1151.88,380.768 1153.93,352.404 1155.98,410.074 1158.03,411.639 1160.09,431.695 1162.14,426.431 1164.19,417.818 1166.25,419.464 1168.3,331.939 1170.35,329.823 1172.4,329.944 1174.46,330.217 1176.51,357.026 1178.56,392.447 1180.62,487.186 1182.67,470.239 1184.72,475.944 1186.77,481.257 1188.83,486.796 1190.88,443.581 1192.93,439.723 1194.99,445.487 1197.04,446.754 1199.09,437.714 1201.15,433.448 1203.2,436.655 1205.25,425.168 1207.3,397.351 1209.36,358.462 1211.41,362.828 1213.46,398.33 1215.52,385.901 1217.57,379.481 1219.62,348.806 1221.67,350.791 1223.73,346.639 1225.78,332.817 1227.83,343.328 1229.89,351.458 1231.94,281.587 1233.99,272.352 1236.04,288.945 1238.1,280.885 1240.15,264.209 1242.2,332.886 1244.26,332.833 1246.31,352.441 1248.36,343.157 1250.41,389.797 1252.47,390.324 1254.52,395.453 1256.57,383.905 1258.63,352.681 1260.68,351.665 1262.73,432.289 1264.78,441.544 1266.84,446.026 1268.89,442.558 1270.94,455.904 1273,413.483 1275.05,403.013 1277.1,276.506 1279.16,282.548 1281.21,297.413 1283.26,298.822 1285.31,366.648 1287.37,371.314 1289.42,358.389 1291.47,356.781 1293.53,355.15 1295.58,327.003 1297.63,335.872 1299.68,324.668 1301.74,322.587 1303.79,315.559 1305.84,315.82 1307.9,316.628 1309.95,314.556 1312,293.889 1314.05,295.772 1316.11,289.908 1318.16,281.246 1320.21,281.267 1322.27,381.93 1324.32,411.198 1326.37,440.869 1328.42,443.748 1330.48,433.7 1332.53,381.078 1334.58,379.136 1336.64,373.79 1338.69,419.478 1340.74,425.749 1342.79,419.869 1344.85,418.169 1346.9,419.019 1348.95,501.394 1351.01,495.178 1353.06,494.567 1355.11,495.51 1357.16,496.859 1359.22,502.076 1361.27,349.745 1363.32,349.783 1365.38,349.921 1367.43,350.686 1369.48,417.335 1371.54,420.951 1373.59,441.17 1375.64,424.353 1377.69,335.475 1379.75,335.433 1381.8,342.093 1383.85,338.877 1385.91,332.049 1387.96,336.484 1390.01,330.312 1392.06,345.627 1394.12,347.451 1396.17,346.156 1398.22,364.593 1400.28,374.723 1402.33,377.832 1404.38,377.594 1406.43,376.748 1408.49,312.882 1410.54,251.393 1412.59,248.647 1414.65,249.598 1416.7,249.692 1418.75,279.473 1420.8,257.381 1422.86,250.451 1424.91,225.075 1426.96,223.831 1429.02,226.479 1431.07,284.321 1433.12,287.296 1435.17,199.448 1437.23,199.642 1439.28,360.69 1441.33,329.734 1443.39,321.875 1445.44,356.516 1447.49,348.483 1449.55,315.438 1451.6,314.246 1453.65,265.592 1455.7,245.279 1457.76,254.809 1459.81,277.711 1461.86,269.204 1463.92,268.329 1465.97,265.117 1468.02,250.869 1470.07,296.165 1472.13,296.629 1474.18,284.592 1476.23,225.157 1478.29,364.801 1480.34,265.253 1482.39,252.695 1484.44,284.92 1486.5,376.28 1488.55,376.63 1490.6,329.716 1492.66,402.459 1494.71,414.145 1496.76,244.977 1498.81,388.196 1500.87,300.792 1502.92,335.546 1504.97,337.013 1507.03,356.354 1509.08,364.306 1511.13,355.099 1513.18,355.654 1515.24,361.001 1517.29,347.292 1519.34,274.006 1521.4,334.035 1523.45,332.784 1525.5,268.087 1527.55,261.612 1529.61,261.66 1531.66,270.245 1533.71,268.292 1535.77,254.555 1537.82,238.76 1539.87,310.776 1541.93,317.006 1543.98,317.141 1546.03,321.855 1548.08,139.54 1550.14,133.768 1552.19,240.39 1554.24,252.533 1556.3,253.376 1558.35,238.861 1560.4,257.11 1562.45,270.671 1564.51,253.549 1566.56,273.806 1568.61,207.523 1570.67,207.819 1572.72,206.956 1574.77,205.403 1576.82,251.324 1578.88,250.778 1580.93,256.529 1582.98,199.058 1585.04,202.762 1587.09,197.526 1589.14,191.333 1591.19,190.325 1593.25,194.012 1595.3,241.251 1597.35,241.726 1599.41,245.721 1601.46,296.742 1603.51,303.952 1605.56,308.884 1607.62,316.145 1609.67,314.181 1611.72,352.418 1613.78,367.421 1615.83,367.039 1617.88,366.851 1619.94,343.817 1621.99,341.251 1624.04,341.101 1626.09,341.598 1628.15,406.086 1630.2,406.969 1632.25,392.519 1634.31,392.467 1636.36,389.266 1638.41,389.2 1640.46,377.106 1642.52,384.475 1644.57,389.669 1646.62,350.904 1648.68,360.394 1650.73,347.43 1652.78,333.898 1654.83,332.601 1656.89,316.821 1658.94,341.995 1660.99,344.177 1663.05,342.687 1665.1,342.655 1667.15,339.335 1669.2,340.615 1671.26,340.578 1673.31,340.612 1675.36,339.532 1677.42,339.725 1679.47,341.179 1681.52,367.516 1683.57,369.964 1685.63,370.002 1687.68,362.441 1689.73,371.795 1691.79,361.347 1693.84,361.342 1695.89,362.277 1697.94,344.117 1700,342.426 1702.05,334.873 1704.1,335.203 1706.16,339.812 1708.21,335.915 1710.26,362.82 1712.32,350.921 1714.37,357.496 1716.42,358.283 1718.47,336.172 1720.53,336.236 1722.58,337.565 1724.63,330.249 1726.69,330.015 1728.74,330.024 1730.79,327.112 1732.84,327.008 1734.9,333.929 1736.95,335.053 1739,336.117 1741.06,336.575 1743.11,334.708 1745.16,329.743 1747.21,329.88 1749.27,331.752 1751.32,331.753 1753.37,351.229 1755.43,348.712 1757.48,339.232 1759.53,334.346 1761.58,326.811 1763.64,344.494 1765.69,346.605 1767.74,346.934 1769.8,346.915 1771.85,345.581 1773.9,345.137 1775.95,341.492 1778.01,350.471 1780.06,358.747 1782.11,365.836 1784.17,352.745 1786.22,352.925 1788.27,352.903 1790.33,360.93 1792.38,362.239 1794.43,361.701 1796.48,361.725 1798.54,361.771 1800.59,371.855 1802.64,366.42 1804.7,366.408 1806.75,369.826 1808.8,341.327 1810.85,337.185 1812.91,369.465 1814.96,399.384 1817.01,401.764 1819.07,403.897 1821.12,388.222 1823.17,388.024 1825.22,387.974 1827.28,385.782 1829.33,371.851 1831.38,371.722 1833.44,365.536 1835.49,363.998 1837.54,362.954 1839.59,347.791 1841.65,352.878 1843.7,363.33 1845.75,362.4 1847.81,358.26 1849.86,379.029 1851.91,283.661 1853.96,335.871 1856.02,326.23 1858.07,305.201 1860.12,305.493 1862.18,305.442 1864.23,305.78 1866.28,306.514 1868.34,309.708 1870.39,295.019 1872.44,297.24 1874.49,344.402 1876.55,340.535 1878.6,340.953 1880.65,340.901 1882.71,302.134 1884.76,304.853 1886.81,299.026 1888.86,293.413 1890.92,307.966 1892.97,321.886 1895.02,335.389 1897.08,342.866 1899.13,341.335 1901.18,352.959 1903.23,353.317 1905.29,363.175 1907.34,358.311 1909.39,349.169 1911.45,351.217 1913.5,365.651 1915.55,363.457 1917.6,366.467 1919.66,366.098 1921.71,370.662 1923.76,370.604 1925.82,361.013 1927.87,358.911 1929.92,343.256 1931.97,344.14 1934.03,345.228 1936.08,375 1938.13,363.812 1940.19,342.969 1942.24,394.689 1944.29,394.91 1946.34,407.332 1948.4,408.531 1950.45,407.96 1952.5,410.389 1954.56,395.014 1956.61,398.586 1958.66,383.539 1960.72,387.564 1962.77,387.559 1964.82,384.979 1966.87,387.217 1968.93,375.325 1970.98,375.344 1973.03,376.289 1975.09,360.061 1977.14,356.425 1979.19,372.832 1981.24,372.777 1983.3,360.591 1985.35,361.664 1987.4,369.836 1989.46,371.355 1991.51,371.402 1993.56,365.517 1995.61,355.181 1997.67,356.886 1999.72,360.917 2001.77,360.758 2003.83,360.035 2005.88,358.84 2007.93,358.837 2009.98,358.829 2012.04,358.831 2014.09,358.944 2016.14,364.015 2018.2,365.278 2020.25,367.228 2022.3,367.217 2024.35,367.19 2026.41,367.604 2028.46,367.591 2030.51,370.252 2032.57,383.027 2034.62,375.863 2036.67,381.163 2038.73,379.326 2040.78,354.546 2042.83,365.549 2044.88,358.844 2046.94,357.693 2048.99,358.848 2051.04,356.958 2053.1,356.044 2055.15,347.44 2057.2,359.933 2059.25,359.85 2061.31,412.705 2063.36,405.988 2065.41,400.664 2067.47,320.779 2069.52,321.251 2071.57,321.577 2073.62,327.651 2075.68,318.121 2077.73,316.91 2079.78,316.849 2081.84,316.584 2083.89,316.575 2085.94,306.895 2087.99,327.225 2090.05,333.437 2092.1,333.345 2094.15,414.072 2096.21,412.956 2098.26,411.593 2100.31,419.517 2102.36,415.086 2104.42,420.706 2106.47,419.483 2108.52,432.459 2110.58,400.925 2112.63,378.515 2114.68,378.558 2116.73,379.682 2118.79,379.622 2120.84,379.572 2122.89,384.984 2124.95,387.627 2127,388.672 2129.05,388.661 2131.11,389.956 2133.16,388.271 2135.21,391.064 2137.26,390.939 2139.32,390.162 2141.37,390.478 2143.42,390.941 2145.48,390.342 2147.53,390.518 2149.58,389.076 2151.63,389.997 2153.69,382.696 2155.74,378.971 2157.79,378.972 2159.85,376.084 2161.9,375.453 2163.95,375.758 2166,364.596 2168.06,359.645 2170.11,357.979 2172.16,357.573 2174.22,358.426 2176.27,358.073 2178.32,358.839 2180.37,363.277 2182.43,363.317 2184.48,360.577 2186.53,366.878 2188.59,341.226 2190.64,341.523 2192.69,359.127 2194.74,358.977 2196.8,360.11 2198.85,360.114 2200.9,360.254 2202.96,361.541 2205.01,363.307 2207.06,369.32 2209.12,369.259 2211.17,377.221 2213.22,381.68 2215.27,400.964 2217.33,401.993 2219.38,401.853 2221.43,399.328 2223.49,399.595 2225.54,396.07 2227.59,418.386 2229.64,433.566 2231.7,403.58 2233.75,352.006 2235.8,357.592 2237.86,358.338 2239.91,358.031 2241.96,357.667 2244.01,363.95 2246.07,373.132 2248.12,373.797 2250.17,372.292 2252.23,361.749 2254.28,360.844 2256.33,361.844 2258.38,379.391 2260.44,374.015 2262.49,378.695 2264.54,378.814 2266.6,377.459 2268.65,375.961 2270.7,355.801 2272.75,348.846 2274.81,347.399 2276.86,374.722 2278.91,381.291 2280.97,391.767 2283.02,391.11 2285.07,403.707 2287.12,404.257 2289.18,405.557 2291.23,405.887 "/>
<path clip-path="url(#clip480)" d="M1983.6 172.231 L2280.29 172.231 L2280.29 68.5509 L1983.6 68.5509  Z" fill="#ffffff" fill-rule="evenodd" fill-opacity="1"/>
<polyline clip-path="url(#clip480)" style="stroke:#000000; stroke-linecap:round; stroke-linejoin:round; stroke-width:4; stroke-opacity:1; fill:none" points="1983.6,172.231 2280.29,172.231 2280.29,68.5509 1983.6,68.5509 1983.6,172.231 "/>
<polyline clip-path="url(#clip480)" style="stroke:#009af9; stroke-linecap:round; stroke-linejoin:round; stroke-width:4; stroke-opacity:1; fill:none" points="2007.75,120.391 2152.68,120.391 "/>
<path clip-path="url(#clip480)" d="M2176.83 103.111 L2181.51 103.111 L2181.51 133.736 L2198.34 133.736 L2198.34 137.671 L2176.83 137.671 L2176.83 103.111 Z" fill="#000000" fill-rule="nonzero" fill-opacity="1" /><path clip-path="url(#clip480)" d="M2223.96 104.245 L2223.96 108.805 Q2221.3 107.532 2218.94 106.907 Q2216.58 106.282 2214.38 106.282 Q2210.56 106.282 2208.48 107.764 Q2206.42 109.245 2206.42 111.977 Q2206.42 114.268 2207.78 115.449 Q2209.17 116.606 2213.01 117.324 L2215.84 117.902 Q2221.07 118.898 2223.55 121.421 Q2226.05 123.921 2226.05 128.134 Q2226.05 133.157 2222.67 135.75 Q2219.31 138.342 2212.81 138.342 Q2210.35 138.342 2207.57 137.787 Q2204.82 137.231 2201.86 136.143 L2201.86 131.328 Q2204.7 132.926 2207.44 133.736 Q2210.17 134.546 2212.81 134.546 Q2216.81 134.546 2218.99 132.972 Q2221.16 131.398 2221.16 128.481 Q2221.16 125.935 2219.59 124.5 Q2218.04 123.064 2214.47 122.347 L2211.62 121.791 Q2206.39 120.75 2204.06 118.527 Q2201.72 116.305 2201.72 112.347 Q2201.72 107.764 2204.94 105.125 Q2208.18 102.486 2213.85 102.486 Q2216.28 102.486 2218.8 102.926 Q2221.32 103.366 2223.96 104.245 Z" fill="#000000" fill-rule="nonzero" fill-opacity="1" /><path clip-path="url(#clip480)" d="M2254.06 104.245 L2254.06 108.805 Q2251.39 107.532 2249.03 106.907 Q2246.67 106.282 2244.47 106.282 Q2240.65 106.282 2238.57 107.764 Q2236.51 109.245 2236.51 111.977 Q2236.51 114.268 2237.87 115.449 Q2239.26 116.606 2243.11 117.324 L2245.93 117.902 Q2251.16 118.898 2253.64 121.421 Q2256.14 123.921 2256.14 128.134 Q2256.14 133.157 2252.76 135.75 Q2249.4 138.342 2242.9 138.342 Q2240.44 138.342 2237.67 137.787 Q2234.91 137.231 2231.95 136.143 L2231.95 131.328 Q2234.8 132.926 2237.53 133.736 Q2240.26 134.546 2242.9 134.546 Q2246.9 134.546 2249.08 132.972 Q2251.25 131.398 2251.25 128.481 Q2251.25 125.935 2249.68 124.5 Q2248.13 123.064 2244.56 122.347 L2241.72 121.791 Q2236.49 120.75 2234.15 118.527 Q2231.81 116.305 2231.81 112.347 Q2231.81 107.764 2235.03 105.125 Q2238.27 102.486 2243.94 102.486 Q2246.37 102.486 2248.89 102.926 Q2251.42 103.366 2254.06 104.245 Z" fill="#000000" fill-rule="nonzero" fill-opacity="1" /><path clip-path="url(#clip480)" d="M178.867 1486.45 L2352.76 1486.45 L2352.76 847.244 L178.867 847.244  Z" fill="#ffffff" fill-rule="evenodd" fill-opacity="1"/>
<defs>
  <clipPath id="clip483">
    <rect x="178" y="847" width="2175" height="640"/>
  </clipPath>
</defs>
<polyline clip-path="url(#clip483)" style="stroke:#000000; stroke-linecap:round; stroke-linejoin:round; stroke-width:2; stroke-opacity:0.1; fill:none" points="238.339,1486.45 238.339,847.244 "/>
<polyline clip-path="url(#clip483)" style="stroke:#000000; stroke-linecap:round; stroke-linejoin:round; stroke-width:2; stroke-opacity:0.1; fill:none" points="751.562,1486.45 751.562,847.244 "/>
<polyline clip-path="url(#clip483)" style="stroke:#000000; stroke-linecap:round; stroke-linejoin:round; stroke-width:2; stroke-opacity:0.1; fill:none" points="1264.78,1486.45 1264.78,847.244 "/>
<polyline clip-path="url(#clip483)" style="stroke:#000000; stroke-linecap:round; stroke-linejoin:round; stroke-width:2; stroke-opacity:0.1; fill:none" points="1778.01,1486.45 1778.01,847.244 "/>
<polyline clip-path="url(#clip483)" style="stroke:#000000; stroke-linecap:round; stroke-linejoin:round; stroke-width:2; stroke-opacity:0.1; fill:none" points="2291.23,1486.45 2291.23,847.244 "/>
<polyline clip-path="url(#clip483)" style="stroke:#000000; stroke-linecap:round; stroke-linejoin:round; stroke-width:2; stroke-opacity:0.1; fill:none" points="178.867,1486.45 2352.76,1486.45 "/>
<polyline clip-path="url(#clip483)" style="stroke:#000000; stroke-linecap:round; stroke-linejoin:round; stroke-width:2; stroke-opacity:0.1; fill:none" points="178.867,1326.65 2352.76,1326.65 "/>
<polyline clip-path="url(#clip483)" style="stroke:#000000; stroke-linecap:round; stroke-linejoin:round; stroke-width:2; stroke-opacity:0.1; fill:none" points="178.867,1166.85 2352.76,1166.85 "/>
<polyline clip-path="url(#clip483)" style="stroke:#000000; stroke-linecap:round; stroke-linejoin:round; stroke-width:2; stroke-opacity:0.1; fill:none" points="178.867,1007.05 2352.76,1007.05 "/>
<polyline clip-path="url(#clip483)" style="stroke:#000000; stroke-linecap:round; stroke-linejoin:round; stroke-width:2; stroke-opacity:0.1; fill:none" points="178.867,847.244 2352.76,847.244 "/>
<polyline clip-path="url(#clip480)" style="stroke:#000000; stroke-linecap:round; stroke-linejoin:round; stroke-width:4; stroke-opacity:1; fill:none" points="178.867,1486.45 2352.76,1486.45 "/>
<polyline clip-path="url(#clip480)" style="stroke:#000000; stroke-linecap:round; stroke-linejoin:round; stroke-width:4; stroke-opacity:1; fill:none" points="238.339,1486.45 238.339,1467.55 "/>
<polyline clip-path="url(#clip480)" style="stroke:#000000; stroke-linecap:round; stroke-linejoin:round; stroke-width:4; stroke-opacity:1; fill:none" points="751.562,1486.45 751.562,1467.55 "/>
<polyline clip-path="url(#clip480)" style="stroke:#000000; stroke-linecap:round; stroke-linejoin:round; stroke-width:4; stroke-opacity:1; fill:none" points="1264.78,1486.45 1264.78,1467.55 "/>
<polyline clip-path="url(#clip480)" style="stroke:#000000; stroke-linecap:round; stroke-linejoin:round; stroke-width:4; stroke-opacity:1; fill:none" points="1778.01,1486.45 1778.01,1467.55 "/>
<polyline clip-path="url(#clip480)" style="stroke:#000000; stroke-linecap:round; stroke-linejoin:round; stroke-width:4; stroke-opacity:1; fill:none" points="2291.23,1486.45 2291.23,1467.55 "/>
<path clip-path="url(#clip480)" d="M238.339 1517.37 Q234.728 1517.37 232.899 1520.93 Q231.094 1524.47 231.094 1531.6 Q231.094 1538.71 232.899 1542.27 Q234.728 1545.82 238.339 1545.82 Q241.973 1545.82 243.779 1542.27 Q245.607 1538.71 245.607 1531.6 Q245.607 1524.47 243.779 1520.93 Q241.973 1517.37 238.339 1517.37 M238.339 1513.66 Q244.149 1513.66 247.205 1518.27 Q250.283 1522.85 250.283 1531.6 Q250.283 1540.33 247.205 1544.94 Q244.149 1549.52 238.339 1549.52 Q232.529 1549.52 229.45 1544.94 Q226.395 1540.33 226.395 1531.6 Q226.395 1522.85 229.45 1518.27 Q232.529 1513.66 238.339 1513.66 Z" fill="#000000" fill-rule="nonzero" fill-opacity="1" /><path clip-path="url(#clip480)" d="M715.254 1544.91 L731.574 1544.91 L731.574 1548.85 L709.629 1548.85 L709.629 1544.91 Q712.291 1542.16 716.875 1537.53 Q721.481 1532.88 722.662 1531.53 Q724.907 1529.01 725.787 1527.27 Q726.689 1525.51 726.689 1523.82 Q726.689 1521.07 724.745 1519.33 Q722.824 1517.6 719.722 1517.6 Q717.523 1517.6 715.069 1518.36 Q712.638 1519.13 709.861 1520.68 L709.861 1515.95 Q712.685 1514.82 715.138 1514.24 Q717.592 1513.66 719.629 1513.66 Q725 1513.66 728.194 1516.35 Q731.388 1519.03 731.388 1523.52 Q731.388 1525.65 730.578 1527.57 Q729.791 1529.47 727.685 1532.07 Q727.106 1532.74 724.004 1535.95 Q720.902 1539.15 715.254 1544.91 Z" fill="#000000" fill-rule="nonzero" fill-opacity="1" /><path clip-path="url(#clip480)" d="M741.435 1514.29 L759.791 1514.29 L759.791 1518.22 L745.717 1518.22 L745.717 1526.7 Q746.736 1526.35 747.754 1526.19 Q748.773 1526 749.791 1526 Q755.578 1526 758.958 1529.17 Q762.337 1532.34 762.337 1537.76 Q762.337 1543.34 758.865 1546.44 Q755.393 1549.52 749.073 1549.52 Q746.898 1549.52 744.629 1549.15 Q742.384 1548.78 739.976 1548.04 L739.976 1543.34 Q742.06 1544.47 744.282 1545.03 Q746.504 1545.58 748.981 1545.58 Q752.985 1545.58 755.323 1543.48 Q757.661 1541.37 757.661 1537.76 Q757.661 1534.15 755.323 1532.04 Q752.985 1529.94 748.981 1529.94 Q747.106 1529.94 745.231 1530.35 Q743.379 1530.77 741.435 1531.65 L741.435 1514.29 Z" fill="#000000" fill-rule="nonzero" fill-opacity="1" /><path clip-path="url(#clip480)" d="M781.55 1517.37 Q777.939 1517.37 776.11 1520.93 Q774.305 1524.47 774.305 1531.6 Q774.305 1538.71 776.11 1542.27 Q777.939 1545.82 781.55 1545.82 Q785.184 1545.82 786.99 1542.27 Q788.819 1538.71 788.819 1531.6 Q788.819 1524.47 786.99 1520.93 Q785.184 1517.37 781.55 1517.37 M781.55 1513.66 Q787.36 1513.66 790.416 1518.27 Q793.495 1522.85 793.495 1531.6 Q793.495 1540.33 790.416 1544.94 Q787.36 1549.52 781.55 1549.52 Q775.74 1549.52 772.661 1544.94 Q769.606 1540.33 769.606 1531.6 Q769.606 1522.85 772.661 1518.27 Q775.74 1513.66 781.55 1513.66 Z" fill="#000000" fill-rule="nonzero" fill-opacity="1" /><path clip-path="url(#clip480)" d="M1224.4 1514.29 L1242.76 1514.29 L1242.76 1518.22 L1228.69 1518.22 L1228.69 1526.7 Q1229.7 1526.35 1230.72 1526.19 Q1231.74 1526 1232.76 1526 Q1238.55 1526 1241.93 1529.17 Q1245.31 1532.34 1245.31 1537.76 Q1245.31 1543.34 1241.83 1546.44 Q1238.36 1549.52 1232.04 1549.52 Q1229.87 1549.52 1227.6 1549.15 Q1225.35 1548.78 1222.94 1548.04 L1222.94 1543.34 Q1225.03 1544.47 1227.25 1545.03 Q1229.47 1545.58 1231.95 1545.58 Q1235.95 1545.58 1238.29 1543.48 Q1240.63 1541.37 1240.63 1537.76 Q1240.63 1534.15 1238.29 1532.04 Q1235.95 1529.94 1231.95 1529.94 Q1230.07 1529.94 1228.2 1530.35 Q1226.35 1530.77 1224.4 1531.65 L1224.4 1514.29 Z" fill="#000000" fill-rule="nonzero" fill-opacity="1" /><path clip-path="url(#clip480)" d="M1264.52 1517.37 Q1260.91 1517.37 1259.08 1520.93 Q1257.27 1524.47 1257.27 1531.6 Q1257.27 1538.71 1259.08 1542.27 Q1260.91 1545.82 1264.52 1545.82 Q1268.15 1545.82 1269.96 1542.27 Q1271.79 1538.71 1271.79 1531.6 Q1271.79 1524.47 1269.96 1520.93 Q1268.15 1517.37 1264.52 1517.37 M1264.52 1513.66 Q1270.33 1513.66 1273.38 1518.27 Q1276.46 1522.85 1276.46 1531.6 Q1276.46 1540.33 1273.38 1544.94 Q1270.33 1549.52 1264.52 1549.52 Q1258.71 1549.52 1255.63 1544.94 Q1252.57 1540.33 1252.57 1531.6 Q1252.57 1522.85 1255.63 1518.27 Q1258.71 1513.66 1264.52 1513.66 Z" fill="#000000" fill-rule="nonzero" fill-opacity="1" /><path clip-path="url(#clip480)" d="M1294.68 1517.37 Q1291.07 1517.37 1289.24 1520.93 Q1287.44 1524.47 1287.44 1531.6 Q1287.44 1538.71 1289.24 1542.27 Q1291.07 1545.82 1294.68 1545.82 Q1298.31 1545.82 1300.12 1542.27 Q1301.95 1538.71 1301.95 1531.6 Q1301.95 1524.47 1300.12 1520.93 Q1298.31 1517.37 1294.68 1517.37 M1294.68 1513.66 Q1300.49 1513.66 1303.55 1518.27 Q1306.62 1522.85 1306.62 1531.6 Q1306.62 1540.33 1303.55 1544.94 Q1300.49 1549.52 1294.68 1549.52 Q1288.87 1549.52 1285.79 1544.94 Q1282.74 1540.33 1282.74 1531.6 Q1282.74 1522.85 1285.79 1518.27 Q1288.87 1513.66 1294.68 1513.66 Z" fill="#000000" fill-rule="nonzero" fill-opacity="1" /><path clip-path="url(#clip480)" d="M1736.28 1514.29 L1758.51 1514.29 L1758.51 1516.28 L1745.96 1548.85 L1741.08 1548.85 L1752.88 1518.22 L1736.28 1518.22 L1736.28 1514.29 Z" fill="#000000" fill-rule="nonzero" fill-opacity="1" /><path clip-path="url(#clip480)" d="M1767.67 1514.29 L1786.03 1514.29 L1786.03 1518.22 L1771.95 1518.22 L1771.95 1526.7 Q1772.97 1526.35 1773.99 1526.19 Q1775.01 1526 1776.03 1526 Q1781.82 1526 1785.2 1529.17 Q1788.57 1532.34 1788.57 1537.76 Q1788.57 1543.34 1785.1 1546.44 Q1781.63 1549.52 1775.31 1549.52 Q1773.14 1549.52 1770.87 1549.15 Q1768.62 1548.78 1766.21 1548.04 L1766.21 1543.34 Q1768.3 1544.47 1770.52 1545.03 Q1772.74 1545.58 1775.22 1545.58 Q1779.22 1545.58 1781.56 1543.48 Q1783.9 1541.37 1783.9 1537.76 Q1783.9 1534.15 1781.56 1532.04 Q1779.22 1529.94 1775.22 1529.94 Q1773.34 1529.94 1771.47 1530.35 Q1769.62 1530.77 1767.67 1531.65 L1767.67 1514.29 Z" fill="#000000" fill-rule="nonzero" fill-opacity="1" /><path clip-path="url(#clip480)" d="M1807.79 1517.37 Q1804.18 1517.37 1802.35 1520.93 Q1800.54 1524.47 1800.54 1531.6 Q1800.54 1538.71 1802.35 1542.27 Q1804.18 1545.82 1807.79 1545.82 Q1811.42 1545.82 1813.23 1542.27 Q1815.06 1538.71 1815.06 1531.6 Q1815.06 1524.47 1813.23 1520.93 Q1811.42 1517.37 1807.79 1517.37 M1807.79 1513.66 Q1813.6 1513.66 1816.65 1518.27 Q1819.73 1522.85 1819.73 1531.6 Q1819.73 1540.33 1816.65 1544.94 Q1813.6 1549.52 1807.79 1549.52 Q1801.98 1549.52 1798.9 1544.94 Q1795.84 1540.33 1795.84 1531.6 Q1795.84 1522.85 1798.9 1518.27 Q1801.98 1513.66 1807.79 1513.66 Z" fill="#000000" fill-rule="nonzero" fill-opacity="1" /><path clip-path="url(#clip480)" d="M2235.76 1544.91 L2243.4 1544.91 L2243.4 1518.55 L2235.09 1520.21 L2235.09 1515.95 L2243.35 1514.29 L2248.02 1514.29 L2248.02 1544.91 L2255.66 1544.91 L2255.66 1548.85 L2235.76 1548.85 L2235.76 1544.91 Z" fill="#000000" fill-rule="nonzero" fill-opacity="1" /><path clip-path="url(#clip480)" d="M2275.11 1517.37 Q2271.5 1517.37 2269.67 1520.93 Q2267.86 1524.47 2267.86 1531.6 Q2267.86 1538.71 2269.67 1542.27 Q2271.5 1545.82 2275.11 1545.82 Q2278.74 1545.82 2280.55 1542.27 Q2282.38 1538.71 2282.38 1531.6 Q2282.38 1524.47 2280.55 1520.93 Q2278.74 1517.37 2275.11 1517.37 M2275.11 1513.66 Q2280.92 1513.66 2283.97 1518.27 Q2287.05 1522.85 2287.05 1531.6 Q2287.05 1540.33 2283.97 1544.94 Q2280.92 1549.52 2275.11 1549.52 Q2269.3 1549.52 2266.22 1544.94 Q2263.16 1540.33 2263.16 1531.6 Q2263.16 1522.85 2266.22 1518.27 Q2269.3 1513.66 2275.11 1513.66 Z" fill="#000000" fill-rule="nonzero" fill-opacity="1" /><path clip-path="url(#clip480)" d="M2305.27 1517.37 Q2301.66 1517.37 2299.83 1520.93 Q2298.02 1524.47 2298.02 1531.6 Q2298.02 1538.71 2299.83 1542.27 Q2301.66 1545.82 2305.27 1545.82 Q2308.9 1545.82 2310.71 1542.27 Q2312.54 1538.71 2312.54 1531.6 Q2312.54 1524.47 2310.71 1520.93 Q2308.9 1517.37 2305.27 1517.37 M2305.27 1513.66 Q2311.08 1513.66 2314.14 1518.27 Q2317.21 1522.85 2317.21 1531.6 Q2317.21 1540.33 2314.14 1544.94 Q2311.08 1549.52 2305.27 1549.52 Q2299.46 1549.52 2296.38 1544.94 Q2293.33 1540.33 2293.33 1531.6 Q2293.33 1522.85 2296.38 1518.27 Q2299.46 1513.66 2305.27 1513.66 Z" fill="#000000" fill-rule="nonzero" fill-opacity="1" /><path clip-path="url(#clip480)" d="M2335.43 1517.37 Q2331.82 1517.37 2329.99 1520.93 Q2328.19 1524.47 2328.19 1531.6 Q2328.19 1538.71 2329.99 1542.27 Q2331.82 1545.82 2335.43 1545.82 Q2339.07 1545.82 2340.87 1542.27 Q2342.7 1538.71 2342.7 1531.6 Q2342.7 1524.47 2340.87 1520.93 Q2339.07 1517.37 2335.43 1517.37 M2335.43 1513.66 Q2341.24 1513.66 2344.3 1518.27 Q2347.38 1522.85 2347.38 1531.6 Q2347.38 1540.33 2344.3 1544.94 Q2341.24 1549.52 2335.43 1549.52 Q2329.62 1549.52 2326.54 1544.94 Q2323.49 1540.33 2323.49 1531.6 Q2323.49 1522.85 2326.54 1518.27 Q2329.62 1513.66 2335.43 1513.66 Z" fill="#000000" fill-rule="nonzero" fill-opacity="1" /><polyline clip-path="url(#clip480)" style="stroke:#000000; stroke-linecap:round; stroke-linejoin:round; stroke-width:4; stroke-opacity:1; fill:none" points="178.867,1486.45 178.867,847.244 "/>
<polyline clip-path="url(#clip480)" style="stroke:#000000; stroke-linecap:round; stroke-linejoin:round; stroke-width:4; stroke-opacity:1; fill:none" points="178.867,1486.45 197.764,1486.45 "/>
<polyline clip-path="url(#clip480)" style="stroke:#000000; stroke-linecap:round; stroke-linejoin:round; stroke-width:4; stroke-opacity:1; fill:none" points="178.867,1326.65 197.764,1326.65 "/>
<polyline clip-path="url(#clip480)" style="stroke:#000000; stroke-linecap:round; stroke-linejoin:round; stroke-width:4; stroke-opacity:1; fill:none" points="178.867,1166.85 197.764,1166.85 "/>
<polyline clip-path="url(#clip480)" style="stroke:#000000; stroke-linecap:round; stroke-linejoin:round; stroke-width:4; stroke-opacity:1; fill:none" points="178.867,1007.05 197.764,1007.05 "/>
<polyline clip-path="url(#clip480)" style="stroke:#000000; stroke-linecap:round; stroke-linejoin:round; stroke-width:4; stroke-opacity:1; fill:none" points="178.867,847.244 197.764,847.244 "/>
<path clip-path="url(#clip480)" d="M50.9921 1486.9 L80.6679 1486.9 L80.6679 1490.83 L50.9921 1490.83 L50.9921 1486.9 Z" fill="#000000" fill-rule="nonzero" fill-opacity="1" /><path clip-path="url(#clip480)" d="M91.5706 1499.79 L99.2095 1499.79 L99.2095 1473.43 L90.8993 1475.09 L90.8993 1470.83 L99.1632 1469.17 L103.839 1469.17 L103.839 1499.79 L111.478 1499.79 L111.478 1503.73 L91.5706 1503.73 L91.5706 1499.79 Z" fill="#000000" fill-rule="nonzero" fill-opacity="1" /><path clip-path="url(#clip480)" d="M130.922 1472.25 Q127.311 1472.25 125.482 1475.81 Q123.677 1479.35 123.677 1486.48 Q123.677 1493.59 125.482 1497.15 Q127.311 1500.7 130.922 1500.7 Q134.556 1500.7 136.362 1497.15 Q138.191 1493.59 138.191 1486.48 Q138.191 1479.35 136.362 1475.81 Q134.556 1472.25 130.922 1472.25 M130.922 1468.54 Q136.732 1468.54 139.788 1473.15 Q142.867 1477.73 142.867 1486.48 Q142.867 1495.21 139.788 1499.82 Q136.732 1504.4 130.922 1504.4 Q125.112 1504.4 122.033 1499.82 Q118.978 1495.21 118.978 1486.48 Q118.978 1477.73 122.033 1473.15 Q125.112 1468.54 130.922 1468.54 Z" fill="#000000" fill-rule="nonzero" fill-opacity="1" /><path clip-path="url(#clip480)" d="M82.1494 1327.1 L111.825 1327.1 L111.825 1331.03 L82.1494 1331.03 L82.1494 1327.1 Z" fill="#000000" fill-rule="nonzero" fill-opacity="1" /><path clip-path="url(#clip480)" d="M121.964 1309.37 L140.32 1309.37 L140.32 1313.3 L126.246 1313.3 L126.246 1321.77 Q127.265 1321.43 128.283 1321.27 Q129.302 1321.08 130.32 1321.08 Q136.107 1321.08 139.487 1324.25 Q142.867 1327.42 142.867 1332.84 Q142.867 1338.42 139.394 1341.52 Q135.922 1344.6 129.603 1344.6 Q127.427 1344.6 125.158 1344.23 Q122.913 1343.86 120.506 1343.12 L120.506 1338.42 Q122.589 1339.55 124.811 1340.11 Q127.033 1340.66 129.51 1340.66 Q133.515 1340.66 135.853 1338.56 Q138.191 1336.45 138.191 1332.84 Q138.191 1329.23 135.853 1327.12 Q133.515 1325.01 129.51 1325.01 Q127.635 1325.01 125.76 1325.43 Q123.908 1325.85 121.964 1326.73 L121.964 1309.37 Z" fill="#000000" fill-rule="nonzero" fill-opacity="1" /><path clip-path="url(#clip480)" d="M130.922 1152.64 Q127.311 1152.64 125.482 1156.21 Q123.677 1159.75 123.677 1166.88 Q123.677 1173.99 125.482 1177.55 Q127.311 1181.09 130.922 1181.09 Q134.556 1181.09 136.362 1177.55 Q138.191 1173.99 138.191 1166.88 Q138.191 1159.75 136.362 1156.21 Q134.556 1152.64 130.922 1152.64 M130.922 1148.94 Q136.732 1148.94 139.788 1153.55 Q142.867 1158.13 142.867 1166.88 Q142.867 1175.61 139.788 1180.21 Q136.732 1184.8 130.922 1184.8 Q125.112 1184.8 122.033 1180.21 Q118.978 1175.61 118.978 1166.88 Q118.978 1158.13 122.033 1153.55 Q125.112 1148.94 130.922 1148.94 Z" fill="#000000" fill-rule="nonzero" fill-opacity="1" /><path clip-path="url(#clip480)" d="M121.964 989.765 L140.32 989.765 L140.32 993.7 L126.246 993.7 L126.246 1002.17 Q127.265 1001.83 128.283 1001.66 Q129.302 1001.48 130.32 1001.48 Q136.107 1001.48 139.487 1004.65 Q142.867 1007.82 142.867 1013.24 Q142.867 1018.82 139.394 1021.92 Q135.922 1025 129.603 1025 Q127.427 1025 125.158 1024.63 Q122.913 1024.26 120.506 1023.51 L120.506 1018.82 Q122.589 1019.95 124.811 1020.51 Q127.033 1021.06 129.51 1021.06 Q133.515 1021.06 135.853 1018.95 Q138.191 1016.85 138.191 1013.24 Q138.191 1009.63 135.853 1007.52 Q133.515 1005.41 129.51 1005.41 Q127.635 1005.41 125.76 1005.83 Q123.908 1006.25 121.964 1007.13 L121.964 989.765 Z" fill="#000000" fill-rule="nonzero" fill-opacity="1" /><path clip-path="url(#clip480)" d="M91.5706 860.589 L99.2095 860.589 L99.2095 834.223 L90.8993 835.89 L90.8993 831.631 L99.1632 829.964 L103.839 829.964 L103.839 860.589 L111.478 860.589 L111.478 864.524 L91.5706 864.524 L91.5706 860.589 Z" fill="#000000" fill-rule="nonzero" fill-opacity="1" /><path clip-path="url(#clip480)" d="M130.922 833.043 Q127.311 833.043 125.482 836.608 Q123.677 840.149 123.677 847.279 Q123.677 854.385 125.482 857.95 Q127.311 861.492 130.922 861.492 Q134.556 861.492 136.362 857.95 Q138.191 854.385 138.191 847.279 Q138.191 840.149 136.362 836.608 Q134.556 833.043 130.922 833.043 M130.922 829.339 Q136.732 829.339 139.788 833.946 Q142.867 838.529 142.867 847.279 Q142.867 856.006 139.788 860.612 Q136.732 865.195 130.922 865.195 Q125.112 865.195 122.033 860.612 Q118.978 856.006 118.978 847.279 Q118.978 838.529 122.033 833.946 Q125.112 829.339 130.922 829.339 Z" fill="#000000" fill-rule="nonzero" fill-opacity="1" /><polyline clip-path="url(#clip483)" style="stroke:#009af9; stroke-linecap:round; stroke-linejoin:round; stroke-width:4; stroke-opacity:1; fill:none" points="240.392,1134.89 242.445,1194.48 244.498,1142.19 246.55,1187.63 248.603,1191.62 250.656,1236.26 252.709,1121.55 254.762,1159.99 256.815,1219.63 258.868,1199.58 260.921,1130.43 262.974,1171.75 265.027,1160.81 267.079,1151.44 269.132,1196.52 271.185,1156.86 273.238,1165.37 275.291,1171.51 277.344,1187.45 279.397,1172.61 281.45,1153.08 283.503,1172.08 285.555,1172.85 287.608,1179.84 289.661,1202.19 291.714,1155.96 293.767,1172.39 295.82,1118.03 297.873,1142.65 299.926,1152.93 301.979,1131.38 304.031,1172.31 306.084,1157.62 308.137,1179.56 310.19,1169.66 312.243,1203.58 314.296,1179.77 316.349,1260.18 318.402,1115.95 320.455,1152.28 322.507,1184.99 324.56,1144.17 326.613,1145.78 328.666,1188.61 330.719,1146.97 332.772,1190.62 334.825,1279.15 336.878,1029.37 338.931,1047.98 340.984,1163.68 343.036,999.35 345.089,1270.08 347.142,1134.99 349.195,1180.42 351.248,1271.04 353.301,1067.33 355.354,1219.44 357.407,1142.27 359.46,1154.46 361.512,1173 363.565,1162.12 365.618,1120.54 367.671,1131.18 369.724,1136.69 371.777,1112.23 373.83,1136.6 375.883,1140.11 377.936,1226.72 379.988,1462.76 382.041,842.734 384.094,1118.73 386.147,1174.34 388.2,1180.11 390.253,1345.78 392.306,1256.09 394.359,1352.18 396.412,1178.84 398.464,1238.39 400.517,1188 402.57,1079.21 404.623,932.015 406.676,1135.26 408.729,1185.57 410.782,1250.19 412.835,1191.44 414.888,1175.31 416.94,1175.83 418.993,1152.62 421.046,1134.89 423.099,1228.31 425.152,1160.46 427.205,1156.04 429.258,1087.65 431.311,1190.94 433.364,1126.72 435.417,1184.62 437.469,1183 439.522,1162.89 441.575,1229.25 443.628,1191.98 445.681,1143.78 447.734,1118.54 449.787,1064.64 451.84,1587.64 453.893,1119.84 455.945,1211.06 457.998,509.991 460.051,1460.28 462.104,1374.47 464.157,1266.6 466.21,1363.61 468.263,1297.7 470.316,1115.91 472.369,1186.42 474.421,1187.67 476.474,1156.61 478.527,1188.88 480.58,1073.42 482.633,1236.68 484.686,903.088 486.739,1240.1 488.792,1058.07 490.845,1270.61 492.897,-451.65 494.95,5677.58 497.003,2055.61 499.056,-1764.52 501.109,-416.263 503.162,9229.04 505.215,-568.94 507.268,-337.584 509.321,1438.92 511.374,1099.69 513.426,1155.76 515.479,1165.17 517.532,1216.78 519.585,1213.92 521.638,1246.36 523.691,1027.36 525.744,1034.86 527.797,1328.21 529.85,1219.49 531.902,1203.59 533.955,1137.2 536.008,1148.81 538.061,1148.67 540.114,1157.2 542.167,1194.3 544.22,1062.07 546.273,1248.44 548.326,1278.88 550.378,1326.85 552.431,1138.45 554.484,1144.46 556.537,1179.38 558.59,1077.52 560.643,929.26 562.696,1077.81 564.749,1222.81 566.802,1107.61 568.854,1234.46 570.907,694.505 572.96,948.361 575.013,1202.17 577.066,1167.02 579.119,1132.7 581.172,1232.07 583.225,1193.66 585.278,1244.65 587.331,1114.05 589.383,1315.86 591.436,940.739 593.489,1032.06 595.542,1259.03 597.595,1194.17 599.648,1151.17 601.701,1198.04 603.754,1123.4 605.807,1174.18 607.859,1129.84 609.912,1253.2 611.965,1754.52 614.018,3153.64 616.071,2806.57 618.124,1061.5 620.177,1271.06 622.23,1133.05 624.283,1121.15 626.335,1216.38 628.388,1208.66 630.441,1217.67 632.494,1220.46 634.547,1071.56 636.6,1334.63 638.653,1122.72 640.706,1179.69 642.759,1174.61 644.811,1231.73 646.864,1175.95 648.917,1169.2 650.97,1152.55 653.023,1154.96 655.076,1141.73 657.129,1124.02 659.182,1174.01 661.235,871.223 663.288,1442.43 665.34,1270.33 667.393,1117.69 669.446,1160.72 671.499,1160.3 673.552,1152.56 675.605,1165.97 677.658,1167.58 679.711,1207.33 681.764,1295.12 683.816,1116.09 685.869,1230.19 687.922,1221.56 689.975,1248.8 692.028,1128.44 694.081,1135.51 696.134,1207.41 698.187,1143.42 700.24,1235.94 702.292,1209.68 704.345,1161.93 706.398,1058.86 708.451,1274.63 710.504,1055.32 712.557,1053.2 714.61,1187.79 716.663,1174.84 718.716,1155.08 720.768,1151.71 722.821,1189.71 724.874,1170.97 726.927,1173.75 728.98,1174.92 731.033,1167.98 733.086,1147.83 735.139,1164.89 737.192,1157.61 739.245,1161.61 741.297,1194.3 743.35,1173.52 745.403,1183.29 747.456,1152.43 749.509,1161.38 751.562,1176.59 753.615,1183.8 755.668,1142.23 757.721,1094.68 759.773,1153.69 761.826,1168.7 763.879,1169.87 765.932,1157.5 767.985,1142.72 770.038,1156.8 772.091,1182.4 774.144,1462.31 776.197,948.053 778.249,1063.46 780.302,740.518 782.355,1674.03 784.408,1658.13 786.461,1334.76 788.514,1261.12 790.567,1154.23 792.62,1397.72 794.673,941.841 796.725,990.417 798.778,1272.78 800.831,1300.53 802.884,1318.65 804.937,1099.79 806.99,1263.53 809.043,1148.09 811.096,1157.68 813.149,1154.99 815.202,1217.63 817.254,1210.62 819.307,1157.66 821.36,1111.89 823.413,1145.85 825.466,1150.31 827.519,1158.85 829.572,1126.65 831.625,1153.76 833.678,1202.92 835.73,1164.26 837.783,1142.2 839.836,1141.53 841.889,1190.54 843.942,1176.64 845.995,1234.07 848.048,1203.14 850.101,1421.13 852.154,399.968 854.206,1167.15 856.259,1207.81 858.312,1110.22 860.365,1186.99 862.418,1101.75 864.471,1141.65 866.524,1183.45 868.577,1159.17 870.63,1168.61 872.682,839.206 874.735,1192.88 876.788,1144.99 878.841,1167.04 880.894,1236.38 882.947,1231.83 885,1138.62 887.053,1150 889.106,1179.19 891.159,1135.23 893.211,1187.58 895.264,1198.35 897.317,1208.07 899.37,1142.75 901.423,1102.59 903.476,1198.55 905.529,1151.76 907.582,1115.01 909.635,1143.07 911.687,1155.57 913.74,1136.04 915.793,1161.09 917.846,1202.4 919.899,1144.39 921.952,1187.97 924.005,1171.07 926.058,1190.26 928.111,1151.99 930.163,1194.59 932.216,1190.74 934.269,1213.07 936.322,1183.8 938.375,1189.46 940.428,1110.75 942.481,1142.48 944.534,877.679 946.587,1467.39 948.639,944.659 950.692,1219.6 952.745,973.869 954.798,1069.37 956.851,1108.83 958.904,1218.35 960.957,1213.69 963.01,1104.64 965.063,1147.37 967.116,1188.54 969.168,1078.51 971.221,1024.52 973.274,1203.45 975.327,1197.88 977.38,1139.19 979.433,1318.05 981.486,1123.58 983.539,1150.32 985.592,1174.44 987.644,1177.44 989.697,1143.68 991.75,1097.27 993.803,1124.89 995.856,1190.9 997.909,1228 999.962,1131.49 1002.01,1179.84 1004.07,1169.51 1006.12,1140.72 1008.17,1155.98 1010.23,1167.76 1012.28,1178.06 1014.33,1141.14 1016.38,1171.29 1018.44,1129.66 1020.49,1205.49 1022.54,1086.48 1024.6,1460.84 1026.65,1166.58 1028.7,1136.38 1030.76,1184.45 1032.81,1056.36 1034.86,989.786 1036.91,1727.91 1038.97,1067.88 1041.02,1254.95 1043.07,1086.49 1045.13,796.538 1047.18,-150.834 1049.23,3366.73 1051.28,-1715.91 1053.34,5169.43 1055.39,1920.7 1057.44,847.8 1059.5,1378.76 1061.55,1008.7 1063.6,1094.37 1065.65,158.841 1067.71,1023.61 1069.76,1234.91 1071.81,1156.35 1073.87,1126.04 1075.92,1155.54 1077.97,1182.88 1080.02,1180.57 1082.08,1177.97 1084.13,1198.44 1086.18,1138.31 1088.24,1186.09 1090.29,1175.37 1092.34,1178.85 1094.39,1126.48 1096.45,1141.13 1098.5,1166.57 1100.55,1171.36 1102.61,1152.08 1104.66,1147.61 1106.71,1210.02 1108.77,1131.56 1110.82,1184.08 1112.87,1028.46 1114.92,1237.71 1116.98,1167.1 1119.03,1160.68 1121.08,1185.41 1123.14,1167.74 1125.19,1160.62 1127.24,1185.12 1129.29,1093.2 1131.35,1217.66 1133.4,1338.55 1135.45,1501.31 1137.51,1105.78 1139.56,1132.99 1141.61,1124.49 1143.66,1143.2 1145.72,1109.59 1147.77,1124.53 1149.82,1176.12 1151.88,1298.63 1153.93,1020.61 1155.98,1013.94 1158.03,1318.76 1160.09,1151.34 1162.14,1171.06 1164.19,1186.36 1166.25,1168.18 1168.3,1159.35 1170.35,1182.32 1172.4,1111.16 1174.46,1182.96 1176.51,1212.83 1178.56,2079.12 1180.62,-2747.96 1182.67,-1901.6 1184.72,257.928 1186.77,2380.63 1188.83,2449.86 1190.88,2085.31 1192.93,1946.13 1194.99,1434.58 1197.04,1129.34 1199.09,1136.33 1201.15,1177.26 1203.2,1179.87 1205.25,1182.34 1207.3,1149.45 1209.36,1179.71 1211.41,1143.65 1213.46,1203.83 1215.52,1160.05 1217.57,1162.87 1219.62,1170.52 1221.67,1171.57 1223.73,1182.59 1225.78,1186.8 1227.83,1138.51 1229.89,1192.86 1231.94,1147.33 1233.99,1173.38 1236.04,1176.54 1238.1,1170.02 1240.15,1197.8 1242.2,1192.96 1244.26,1157.74 1246.31,1152.12 1248.36,1219.13 1250.41,1121.22 1252.47,1122.52 1254.52,1739.65 1256.57,1199.7 1258.63,1181.41 1260.68,1187.1 1262.73,1180.86 1264.78,1147.81 1266.84,1186.85 1268.89,1157.02 1270.94,1145.04 1273,1224.51 1275.05,1130.84 1277.1,1207.26 1279.16,1104.1 1281.21,1603.48 1283.26,1536.22 1285.31,30.5093 1287.37,-89.425 1289.42,1013.94 1291.47,261.085 1293.53,1650.34 1295.58,1756.64 1297.63,1900.6 1299.68,1047.35 1301.74,1203.02 1303.79,1146 1305.84,1099.13 1307.9,976.829 1309.95,1423.65 1312,1027.08 1314.05,653.262 1316.11,1494.45 1318.16,946.309 1320.21,1454.19 1322.27,1293.09 1324.32,1204.35 1326.37,1202.34 1328.42,1175.22 1330.48,1196.63 1332.53,1191.03 1334.58,1348.05 1336.64,1312.5 1338.69,1055.81 1340.74,979.779 1342.79,1163.85 1344.85,1168.34 1346.9,1138.67 1348.95,1143.58 1351.01,1077.88 1353.06,1250.58 1355.11,1224.59 1357.16,1138.13 1359.22,1165.1 1361.27,1161.22 1363.32,1131.23 1365.38,1187.36 1367.43,1155.93 1369.48,1037.02 1371.54,1198.4 1373.59,1247.29 1375.64,1122.79 1377.69,1203.45 1379.75,1245.31 1381.8,1133.23 1383.85,1199.4 1385.91,1220.47 1387.96,1187.92 1390.01,1239.52 1392.06,1189.43 1394.12,1163.85 1396.17,1161.46 1398.22,1136.3 1400.28,1175.01 1402.33,1165.31 1404.38,1142.77 1406.43,1220.1 1408.49,1232.68 1410.54,993.283 1412.59,1304.96 1414.65,1209.39 1416.7,1085.41 1418.75,1232.9 1420.8,1203.28 1422.86,1179.47 1424.91,1156.1 1426.96,1183.84 1429.02,1158.03 1431.07,1126.32 1433.12,1187.98 1435.17,1182.73 1437.23,1164.67 1439.28,1155.45 1441.33,1223.23 1443.39,1105.43 1445.44,1203.42 1447.49,1298.51 1449.55,1195.51 1451.6,1147.35 1453.65,1218.37 1455.7,1170.94 1457.76,1145.39 1459.81,1154.82 1461.86,1160.41 1463.92,1153.89 1465.97,1154.14 1468.02,1182.08 1470.07,1191.8 1472.13,1155.09 1474.18,1163.02 1476.23,1203.64 1478.29,1226.62 1480.34,1235.75 1482.39,1185.31 1484.44,1166.12 1486.5,1171.77 1488.55,1162.92 1490.6,1213.83 1492.66,1228.22 1494.71,1177.47 1496.76,1195.5 1498.81,1207.66 1500.87,1344.39 1502.92,1154.3 1504.97,1172.58 1507.03,1177.96 1509.08,1157.2 1511.13,1149.8 1513.18,1157.09 1515.24,1165.65 1517.29,1145.88 1519.34,1182.03 1521.4,1184.48 1523.45,1157.14 1525.5,1140.2 1527.55,1221.92 1529.61,1258.37 1531.66,1170.18 1533.71,1105.51 1535.77,997.043 1537.82,1338.32 1539.87,1210.71 1541.93,1221.63 1543.98,1169.76 1546.03,1139.24 1548.08,1172.83 1550.14,1168.67 1552.19,1178.58 1554.24,1159.64 1556.3,1169.46 1558.35,1174.5 1560.4,1190.72 1562.45,1147.24 1564.51,1055.68 1566.56,1354.24 1568.61,1308.59 1570.67,1242.3 1572.72,1149.65 1574.77,1157.44 1576.82,1165.92 1578.88,1157.1 1580.93,998.051 1582.98,1184.31 1585.04,1195.61 1587.09,1172.93 1589.14,1205.26 1591.19,1171.03 1593.25,1121.85 1595.3,1202.25 1597.35,1085.81 1599.41,1023.44 1601.46,1187.15 1603.51,984.804 1605.56,1307.49 1607.62,1302.87 1609.67,1144.35 1611.72,1132.13 1613.78,1147.84 1615.83,1152.71 1617.88,1206.81 1619.94,1164.91 1621.99,1181.79 1624.04,1165.89 1626.09,1165.8 1628.15,1185.8 1630.2,1175.1 1632.25,1141.98 1634.31,1185.64 1636.36,1167.37 1638.41,1177.09 1640.46,1154.33 1642.52,1184.13 1644.57,1186.92 1646.62,1185.02 1648.68,1026.59 1650.73,1038.07 1652.78,1210.69 1654.83,1115.48 1656.89,1134.93 1658.94,1202.46 1660.99,1195.53 1663.05,1192.27 1665.1,1153.94 1667.15,1209 1669.2,1173.33 1671.26,1149.23 1673.31,1121.86 1675.36,1181.53 1677.42,698.415 1679.47,427.539 1681.52,2105.37 1683.57,227.271 1685.63,1308.34 1687.68,1433.34 1689.73,1132.13 1691.79,1152.54 1693.84,1198.32 1695.89,1229.06 1697.94,1198.37 1700,1070.78 1702.05,1031.01 1704.1,1124.98 1706.16,1269.19 1708.21,1211.4 1710.26,1155.15 1712.32,1153.05 1714.37,1165.71 1716.42,1158.87 1718.47,1166.68 1720.53,1153.37 1722.58,1215.39 1724.63,1080.45 1726.69,909.108 1728.74,1097.17 1730.79,924.86 1732.84,1725.39 1734.9,1939.52 1736.95,1816.79 1739,1575.05 1741.06,1227.81 1743.11,1238.01 1745.16,974.372 1747.21,1035.05 1749.27,1097.38 1751.32,915.642 1753.37,1009.8 1755.43,1150.52 1757.48,1166.83 1759.53,1143.42 1761.58,1165.06 1763.64,1173.41 1765.69,1239.39 1767.74,1210.42 1769.8,1235.04 1771.85,1200.34 1773.9,1178.4 1775.95,1169.9 1778.01,1145.31 1780.06,1119.58 1782.11,1155.98 1784.17,1173.88 1786.22,1136.52 1788.27,1122.12 1790.33,1204.06 1792.38,1139.35 1794.43,1114.86 1796.48,1237.5 1798.54,1163.78 1800.59,1175.07 1802.64,1180.26 1804.7,1229.59 1806.75,1014.21 1808.8,1426.94 1810.85,1086.36 1812.91,1215.81 1814.96,1145.73 1817.01,1167.76 1819.07,1150.21 1821.12,1062.13 1823.17,1185.35 1825.22,1192.18 1827.28,1112.02 1829.33,1104.19 1831.38,1122.57 1833.44,1182.26 1835.49,1116.18 1837.54,1195.29 1839.59,1311 1841.65,1065.73 1843.7,1215.7 1845.75,1155.85 1847.81,1083.78 1849.86,1076.88 1851.91,1208.71 1853.96,1119.22 1856.02,1179.96 1858.07,1242.25 1860.12,1114.99 1862.18,1090.29 1864.23,1157.1 1866.28,1198.93 1868.34,1173.14 1870.39,1177.73 1872.44,1167.64 1874.49,1109.03 1876.55,1094.21 1878.6,1287.41 1880.65,1231 1882.71,1344.28 1884.76,1000.38 1886.81,1195.5 1888.86,1198.96 1890.92,1189.27 1892.97,1222.88 1895.02,1427.28 1897.08,982.415 1899.13,1579.04 1901.18,1195.55 1903.23,1184.46 1905.29,934.53 1907.34,854.398 1909.39,937.834 1911.45,966.704 1913.5,1757.99 1915.55,1336.78 1917.6,1291.12 1919.66,1223.53 1921.71,1203.61 1923.76,1186.4 1925.82,1258.64 1927.87,1152.24 1929.92,1177.24 1931.97,1160.67 1934.03,1187.89 1936.08,1133.28 1938.13,1089.25 1940.19,1299.12 1942.24,1142.6 1944.29,1159.01 1946.34,1181.94 1948.4,1188.29 1950.45,1262.39 1952.5,1240.5 1954.56,1166.78 1956.61,1173.67 1958.66,1188.49 1960.72,1144.16 1962.77,1145.92 1964.82,1168.53 1966.87,1169.19 1968.93,1137.58 1970.98,1221.14 1973.03,1235.69 1975.09,1191.22 1977.14,1169.75 1979.19,1186.75 1981.24,1146.74 1983.3,1160.74 1985.35,1088.64 1987.4,1187.26 1989.46,1177.77 1991.51,1149.97 1993.56,1152.73 1995.61,1152.32 1997.67,1172.51 1999.72,1164.78 2001.77,1095.9 2003.83,1161.65 2005.88,1145.44 2007.93,1149.26 2009.98,1169.57 2012.04,1135.44 2014.09,1134.76 2016.14,1141.06 2018.2,1217.15 2020.25,1137.84 2022.3,1128.4 2024.35,1178.07 2026.41,1163.64 2028.46,1179.13 2030.51,1139.28 2032.57,1197.16 2034.62,1217.56 2036.67,1319.02 2038.73,1131.31 2040.78,1225.94 2042.83,1207.52 2044.88,1163.02 2046.94,1135.95 2048.99,1044.08 2051.04,1188.76 2053.1,1159.01 2055.15,1210.19 2057.2,1126.59 2059.25,1146.22 2061.31,1183.75 2063.36,1143.9 2065.41,1137.83 2067.47,1107.3 2069.52,1115.96 2071.57,1109.11 2073.62,1119 2075.68,1151.24 2077.73,1083.88 2079.78,1200.81 2081.84,1197.13 2083.89,1166.5 2085.94,1137.57 2087.99,1019.33 2090.05,1087.25 2092.1,1007.21 2094.15,1162.45 2096.21,1209.23 2098.26,1265.18 2100.31,1093.92 2102.36,1216.66 2104.42,1189.38 2106.47,1187.29 2108.52,1142.49 2110.58,1149.63 2112.63,1150.27 2114.68,1157.07 2116.73,1320.21 2118.79,1049.43 2120.84,647.102 2122.89,581.285 2124.95,1340.05 2127,1273.65 2129.05,929.881 2131.11,1134.68 2133.16,1211.17 2135.21,1209.34 2137.26,1148.32 2139.32,1119.06 2141.37,1165.23 2143.42,1150.85 2145.48,1273.65 2147.53,1124.29 2149.58,1234.63 2151.63,1145.58 2153.69,1102.73 2155.74,1156.98 2157.79,1037.47 2159.85,1715.09 2161.9,1120.79 2163.95,1210.83 2166,1160.38 2168.06,1146.8 2170.11,1119.11 2172.16,1186.66 2174.22,1178.57 2176.27,1164.23 2178.32,1162.55 2180.37,1223.76 2182.43,1229.63 2184.48,1103.69 2186.53,1119.28 2188.59,1211.02 2190.64,1138.69 2192.69,1151.32 2194.74,1122.51 2196.8,1253.42 2198.85,1083.31 2200.9,1166.33 2202.96,1169.62 2205.01,1175.12 2207.06,1189.44 2209.12,1173.13 2211.17,1169.29 2213.22,1156.99 2215.27,1124.57 2217.33,1223.37 2219.38,1128.43 2221.43,1141.54 2223.49,1156.83 2225.54,1172.77 2227.59,1139.93 2229.64,1135.47 2231.7,1189.82 2233.75,1109.37 2235.8,1018.87 2237.86,1365.28 2239.91,1020.51 2241.96,1082.32 2244.01,1118.85 2246.07,1221.84 2248.12,1048.79 2250.17,1224.97 2252.23,1206.83 2254.28,1271.51 2256.33,1284.27 2258.38,1076.46 2260.44,1221.72 2262.49,1233.53 2264.54,1203.54 2266.6,1209.52 2268.65,1227.68 2270.7,1219.65 2272.75,1180.06 2274.81,1208.51 2276.86,1153.16 2278.91,1227.04 2280.97,1033.75 2283.02,1410.55 2285.07,897.508 2287.12,1373.25 2289.18,1070.59 2291.23,1586.22 "/>
<path clip-path="url(#clip480)" d="M251.33 972.231 L588.926 972.231 L588.926 868.551 L251.33 868.551  Z" fill="#ffffff" fill-rule="evenodd" fill-opacity="1"/>
<polyline clip-path="url(#clip480)" style="stroke:#000000; stroke-linecap:round; stroke-linejoin:round; stroke-width:4; stroke-opacity:1; fill:none" points="251.33,972.231 588.926,972.231 588.926,868.551 251.33,868.551 251.33,972.231 "/>
<polyline clip-path="url(#clip480)" style="stroke:#009af9; stroke-linecap:round; stroke-linejoin:round; stroke-width:4; stroke-opacity:1; fill:none" points="275.484,920.391 420.41,920.391 "/>
<path clip-path="url(#clip480)" d="M470.12 932.74 L470.12 923.458 L462.481 923.458 L462.481 919.615 L474.749 919.615 L474.749 934.453 Q472.041 936.375 468.777 937.37 Q465.513 938.342 461.809 938.342 Q453.708 938.342 449.124 933.62 Q444.564 928.875 444.564 920.426 Q444.564 911.953 449.124 907.231 Q453.708 902.486 461.809 902.486 Q465.189 902.486 468.221 903.319 Q471.277 904.153 473.846 905.773 L473.846 910.75 Q471.254 908.551 468.337 907.44 Q465.421 906.328 462.203 906.328 Q455.86 906.328 452.666 909.87 Q449.495 913.412 449.495 920.426 Q449.495 927.416 452.666 930.958 Q455.86 934.5 462.203 934.5 Q464.68 934.5 466.624 934.083 Q468.569 933.643 470.12 932.74 Z" fill="#000000" fill-rule="nonzero" fill-opacity="1" /><path clip-path="url(#clip480)" d="M487.967 906.953 L487.967 919.94 L493.846 919.94 Q497.11 919.94 498.893 918.25 Q500.675 916.56 500.675 913.435 Q500.675 910.333 498.893 908.643 Q497.11 906.953 493.846 906.953 L487.967 906.953 M483.291 903.111 L493.846 903.111 Q499.657 903.111 502.619 905.75 Q505.606 908.365 505.606 913.435 Q505.606 918.551 502.619 921.166 Q499.657 923.782 493.846 923.782 L487.967 923.782 L487.967 937.671 L483.291 937.671 L483.291 903.111 Z" fill="#000000" fill-rule="nonzero" fill-opacity="1" /><path clip-path="url(#clip480)" d="M532.596 904.245 L532.596 908.805 Q529.934 907.532 527.573 906.907 Q525.212 906.282 523.013 906.282 Q519.193 906.282 517.11 907.764 Q515.05 909.245 515.05 911.977 Q515.05 914.268 516.416 915.449 Q517.805 916.606 521.647 917.324 L524.471 917.902 Q529.703 918.898 532.179 921.421 Q534.679 923.921 534.679 928.134 Q534.679 933.157 531.3 935.75 Q527.943 938.342 521.439 938.342 Q518.985 938.342 516.207 937.787 Q513.453 937.231 510.49 936.143 L510.49 931.328 Q513.337 932.926 516.068 933.736 Q518.8 934.546 521.439 934.546 Q525.443 934.546 527.619 932.972 Q529.795 931.398 529.795 928.481 Q529.795 925.935 528.221 924.5 Q526.67 923.064 523.105 922.347 L520.258 921.791 Q515.027 920.75 512.689 918.527 Q510.351 916.305 510.351 912.347 Q510.351 907.764 513.568 905.125 Q516.809 902.486 522.48 902.486 Q524.911 902.486 527.434 902.926 Q529.957 903.366 532.596 904.245 Z" fill="#000000" fill-rule="nonzero" fill-opacity="1" /><path clip-path="url(#clip480)" d="M562.689 904.245 L562.689 908.805 Q560.027 907.532 557.665 906.907 Q555.304 906.282 553.105 906.282 Q549.286 906.282 547.203 907.764 Q545.142 909.245 545.142 911.977 Q545.142 914.268 546.508 915.449 Q547.897 916.606 551.74 917.324 L554.564 917.902 Q559.795 918.898 562.272 921.421 Q564.772 923.921 564.772 928.134 Q564.772 933.157 561.392 935.75 Q558.036 938.342 551.531 938.342 Q549.078 938.342 546.3 937.787 Q543.545 937.231 540.582 936.143 L540.582 931.328 Q543.429 932.926 546.161 933.736 Q548.892 934.546 551.531 934.546 Q555.536 934.546 557.712 932.972 Q559.888 931.398 559.888 928.481 Q559.888 925.935 558.314 924.5 Q556.763 923.064 553.198 922.347 L550.351 921.791 Q545.119 920.75 542.781 918.527 Q540.443 916.305 540.443 912.347 Q540.443 907.764 543.661 905.125 Q546.902 902.486 552.573 902.486 Q555.003 902.486 557.527 902.926 Q560.05 903.366 562.689 904.245 Z" fill="#000000" fill-rule="nonzero" fill-opacity="1" /></svg>
