<?xml version="1.0" encoding="utf-8"?>
<svg xmlns="http://www.w3.org/2000/svg" xmlns:xlink="http://www.w3.org/1999/xlink" width="600" height="400" viewBox="0 0 2400 1600">
<defs>
  <clipPath id="clip220">
    <rect x="0" y="0" width="2400" height="1600"/>
  </clipPath>
</defs>
<path clip-path="url(#clip220)" d="M0 1600 L2400 1600 L2400 0 L0 0  Z" fill="#ffffff" fill-rule="evenodd" fill-opacity="1"/>
<defs>
  <clipPath id="clip221">
    <rect x="242" y="47" width="2112" height="1377"/>
  </clipPath>
</defs>
<path clip-path="url(#clip220)" d="M178.867 686.448 L2352.76 686.448 L2352.76 47.2441 L178.867 47.2441  Z" fill="#ffffff" fill-rule="evenodd" fill-opacity="1"/>
<defs>
  <clipPath id="clip222">
    <rect x="178" y="47" width="2175" height="640"/>
  </clipPath>
</defs>
<polyline clip-path="url(#clip222)" style="stroke:#000000; stroke-linecap:round; stroke-linejoin:round; stroke-width:2; stroke-opacity:0.1; fill:none" points="238.339,686.448 238.339,47.2441 "/>
<polyline clip-path="url(#clip222)" style="stroke:#000000; stroke-linecap:round; stroke-linejoin:round; stroke-width:2; stroke-opacity:0.1; fill:none" points="751.562,686.448 751.562,47.2441 "/>
<polyline clip-path="url(#clip222)" style="stroke:#000000; stroke-linecap:round; stroke-linejoin:round; stroke-width:2; stroke-opacity:0.1; fill:none" points="1264.78,686.448 1264.78,47.2441 "/>
<polyline clip-path="url(#clip222)" style="stroke:#000000; stroke-linecap:round; stroke-linejoin:round; stroke-width:2; stroke-opacity:0.1; fill:none" points="1778.01,686.448 1778.01,47.2441 "/>
<polyline clip-path="url(#clip222)" style="stroke:#000000; stroke-linecap:round; stroke-linejoin:round; stroke-width:2; stroke-opacity:0.1; fill:none" points="2291.23,686.448 2291.23,47.2441 "/>
<polyline clip-path="url(#clip222)" style="stroke:#000000; stroke-linecap:round; stroke-linejoin:round; stroke-width:2; stroke-opacity:0.1; fill:none" points="178.867,686.448 2352.76,686.448 "/>
<polyline clip-path="url(#clip222)" style="stroke:#000000; stroke-linecap:round; stroke-linejoin:round; stroke-width:2; stroke-opacity:0.1; fill:none" points="178.867,526.647 2352.76,526.647 "/>
<polyline clip-path="url(#clip222)" style="stroke:#000000; stroke-linecap:round; stroke-linejoin:round; stroke-width:2; stroke-opacity:0.1; fill:none" points="178.867,366.846 2352.76,366.846 "/>
<polyline clip-path="url(#clip222)" style="stroke:#000000; stroke-linecap:round; stroke-linejoin:round; stroke-width:2; stroke-opacity:0.1; fill:none" points="178.867,207.045 2352.76,207.045 "/>
<polyline clip-path="url(#clip222)" style="stroke:#000000; stroke-linecap:round; stroke-linejoin:round; stroke-width:2; stroke-opacity:0.1; fill:none" points="178.867,47.2441 2352.76,47.2441 "/>
<polyline clip-path="url(#clip220)" style="stroke:#000000; stroke-linecap:round; stroke-linejoin:round; stroke-width:4; stroke-opacity:1; fill:none" points="178.867,686.448 2352.76,686.448 "/>
<polyline clip-path="url(#clip220)" style="stroke:#000000; stroke-linecap:round; stroke-linejoin:round; stroke-width:4; stroke-opacity:1; fill:none" points="238.339,686.448 238.339,667.55 "/>
<polyline clip-path="url(#clip220)" style="stroke:#000000; stroke-linecap:round; stroke-linejoin:round; stroke-width:4; stroke-opacity:1; fill:none" points="751.562,686.448 751.562,667.55 "/>
<polyline clip-path="url(#clip220)" style="stroke:#000000; stroke-linecap:round; stroke-linejoin:round; stroke-width:4; stroke-opacity:1; fill:none" points="1264.78,686.448 1264.78,667.55 "/>
<polyline clip-path="url(#clip220)" style="stroke:#000000; stroke-linecap:round; stroke-linejoin:round; stroke-width:4; stroke-opacity:1; fill:none" points="1778.01,686.448 1778.01,667.55 "/>
<polyline clip-path="url(#clip220)" style="stroke:#000000; stroke-linecap:round; stroke-linejoin:round; stroke-width:4; stroke-opacity:1; fill:none" points="2291.23,686.448 2291.23,667.55 "/>
<path clip-path="url(#clip220)" d="M238.339 717.367 Q234.728 717.367 232.899 720.931 Q231.094 724.473 231.094 731.603 Q231.094 738.709 232.899 742.274 Q234.728 745.815 238.339 745.815 Q241.973 745.815 243.779 742.274 Q245.607 738.709 245.607 731.603 Q245.607 724.473 243.779 720.931 Q241.973 717.367 238.339 717.367 M238.339 713.663 Q244.149 713.663 247.205 718.269 Q250.283 722.853 250.283 731.603 Q250.283 740.329 247.205 744.936 Q244.149 749.519 238.339 749.519 Q232.529 749.519 229.45 744.936 Q226.395 740.329 226.395 731.603 Q226.395 722.853 229.45 718.269 Q232.529 713.663 238.339 713.663 Z" fill="#000000" fill-rule="nonzero" fill-opacity="1" /><path clip-path="url(#clip220)" d="M715.254 744.913 L731.574 744.913 L731.574 748.848 L709.629 748.848 L709.629 744.913 Q712.291 742.158 716.875 737.528 Q721.481 732.876 722.662 731.533 Q724.907 729.01 725.787 727.274 Q726.689 725.515 726.689 723.825 Q726.689 721.07 724.745 719.334 Q722.824 717.598 719.722 717.598 Q717.523 717.598 715.069 718.362 Q712.638 719.126 709.861 720.677 L709.861 715.955 Q712.685 714.82 715.138 714.242 Q717.592 713.663 719.629 713.663 Q725 713.663 728.194 716.348 Q731.388 719.033 731.388 723.524 Q731.388 725.654 730.578 727.575 Q729.791 729.473 727.685 732.066 Q727.106 732.737 724.004 735.954 Q720.902 739.149 715.254 744.913 Z" fill="#000000" fill-rule="nonzero" fill-opacity="1" /><path clip-path="url(#clip220)" d="M741.435 714.288 L759.791 714.288 L759.791 718.223 L745.717 718.223 L745.717 726.695 Q746.736 726.348 747.754 726.186 Q748.773 726.001 749.791 726.001 Q755.578 726.001 758.958 729.172 Q762.337 732.343 762.337 737.76 Q762.337 743.339 758.865 746.44 Q755.393 749.519 749.073 749.519 Q746.898 749.519 744.629 749.149 Q742.384 748.778 739.976 748.038 L739.976 743.339 Q742.06 744.473 744.282 745.028 Q746.504 745.584 748.981 745.584 Q752.985 745.584 755.323 743.478 Q757.661 741.371 757.661 737.76 Q757.661 734.149 755.323 732.042 Q752.985 729.936 748.981 729.936 Q747.106 729.936 745.231 730.353 Q743.379 730.769 741.435 731.649 L741.435 714.288 Z" fill="#000000" fill-rule="nonzero" fill-opacity="1" /><path clip-path="url(#clip220)" d="M781.55 717.367 Q777.939 717.367 776.11 720.931 Q774.305 724.473 774.305 731.603 Q774.305 738.709 776.11 742.274 Q777.939 745.815 781.55 745.815 Q785.184 745.815 786.99 742.274 Q788.819 738.709 788.819 731.603 Q788.819 724.473 786.99 720.931 Q785.184 717.367 781.55 717.367 M781.55 713.663 Q787.36 713.663 790.416 718.269 Q793.495 722.853 793.495 731.603 Q793.495 740.329 790.416 744.936 Q787.36 749.519 781.55 749.519 Q775.74 749.519 772.661 744.936 Q769.606 740.329 769.606 731.603 Q769.606 722.853 772.661 718.269 Q775.74 713.663 781.55 713.663 Z" fill="#000000" fill-rule="nonzero" fill-opacity="1" /><path clip-path="url(#clip220)" d="M1224.4 714.288 L1242.76 714.288 L1242.76 718.223 L1228.69 718.223 L1228.69 726.695 Q1229.7 726.348 1230.72 726.186 Q1231.74 726.001 1232.76 726.001 Q1238.55 726.001 1241.93 729.172 Q1245.31 732.343 1245.31 737.76 Q1245.31 743.339 1241.83 746.44 Q1238.36 749.519 1232.04 749.519 Q1229.87 749.519 1227.6 749.149 Q1225.35 748.778 1222.94 748.038 L1222.94 743.339 Q1225.03 744.473 1227.25 745.028 Q1229.47 745.584 1231.95 745.584 Q1235.95 745.584 1238.29 743.478 Q1240.63 741.371 1240.63 737.76 Q1240.63 734.149 1238.29 732.042 Q1235.95 729.936 1231.95 729.936 Q1230.07 729.936 1228.2 730.353 Q1226.35 730.769 1224.4 731.649 L1224.4 714.288 Z" fill="#000000" fill-rule="nonzero" fill-opacity="1" /><path clip-path="url(#clip220)" d="M1264.52 717.367 Q1260.91 717.367 1259.08 720.931 Q1257.27 724.473 1257.27 731.603 Q1257.27 738.709 1259.08 742.274 Q1260.91 745.815 1264.52 745.815 Q1268.15 745.815 1269.96 742.274 Q1271.79 738.709 1271.79 731.603 Q1271.79 724.473 1269.96 720.931 Q1268.15 717.367 1264.52 717.367 M1264.52 713.663 Q1270.33 713.663 1273.38 718.269 Q1276.46 722.853 1276.46 731.603 Q1276.46 740.329 1273.38 744.936 Q1270.33 749.519 1264.52 749.519 Q1258.71 749.519 1255.63 744.936 Q1252.57 740.329 1252.57 731.603 Q1252.57 722.853 1255.63 718.269 Q1258.71 713.663 1264.52 713.663 Z" fill="#000000" fill-rule="nonzero" fill-opacity="1" /><path clip-path="url(#clip220)" d="M1294.68 717.367 Q1291.07 717.367 1289.24 720.931 Q1287.44 724.473 1287.44 731.603 Q1287.44 738.709 1289.24 742.274 Q1291.07 745.815 1294.68 745.815 Q1298.31 745.815 1300.12 742.274 Q1301.95 738.709 1301.95 731.603 Q1301.95 724.473 1300.12 720.931 Q1298.31 717.367 1294.68 717.367 M1294.68 713.663 Q1300.49 713.663 1303.55 718.269 Q1306.62 722.853 1306.62 731.603 Q1306.62 740.329 1303.55 744.936 Q1300.49 749.519 1294.68 749.519 Q1288.87 749.519 1285.79 744.936 Q1282.74 740.329 1282.74 731.603 Q1282.74 722.853 1285.79 718.269 Q1288.87 713.663 1294.68 713.663 Z" fill="#000000" fill-rule="nonzero" fill-opacity="1" /><path clip-path="url(#clip220)" d="M1736.28 714.288 L1758.51 714.288 L1758.51 716.279 L1745.96 748.848 L1741.08 748.848 L1752.88 718.223 L1736.28 718.223 L1736.28 714.288 Z" fill="#000000" fill-rule="nonzero" fill-opacity="1" /><path clip-path="url(#clip220)" d="M1767.67 714.288 L1786.03 714.288 L1786.03 718.223 L1771.95 718.223 L1771.95 726.695 Q1772.97 726.348 1773.99 726.186 Q1775.01 726.001 1776.03 726.001 Q1781.82 726.001 1785.2 729.172 Q1788.57 732.343 1788.57 737.76 Q1788.57 743.339 1785.1 746.44 Q1781.63 749.519 1775.31 749.519 Q1773.14 749.519 1770.87 749.149 Q1768.62 748.778 1766.21 748.038 L1766.21 743.339 Q1768.3 744.473 1770.52 745.028 Q1772.74 745.584 1775.22 745.584 Q1779.22 745.584 1781.56 743.478 Q1783.9 741.371 1783.9 737.76 Q1783.9 734.149 1781.56 732.042 Q1779.22 729.936 1775.22 729.936 Q1773.34 729.936 1771.47 730.353 Q1769.62 730.769 1767.67 731.649 L1767.67 714.288 Z" fill="#000000" fill-rule="nonzero" fill-opacity="1" /><path clip-path="url(#clip220)" d="M1807.79 717.367 Q1804.18 717.367 1802.35 720.931 Q1800.54 724.473 1800.54 731.603 Q1800.54 738.709 1802.35 742.274 Q1804.18 745.815 1807.79 745.815 Q1811.42 745.815 1813.23 742.274 Q1815.06 738.709 1815.06 731.603 Q1815.06 724.473 1813.23 720.931 Q1811.42 717.367 1807.79 717.367 M1807.79 713.663 Q1813.6 713.663 1816.65 718.269 Q1819.73 722.853 1819.73 731.603 Q1819.73 740.329 1816.65 744.936 Q1813.6 749.519 1807.79 749.519 Q1801.98 749.519 1798.9 744.936 Q1795.84 740.329 1795.84 731.603 Q1795.84 722.853 1798.9 718.269 Q1801.98 713.663 1807.79 713.663 Z" fill="#000000" fill-rule="nonzero" fill-opacity="1" /><path clip-path="url(#clip220)" d="M2235.76 744.913 L2243.4 744.913 L2243.4 718.547 L2235.09 720.214 L2235.09 715.955 L2243.35 714.288 L2248.02 714.288 L2248.02 744.913 L2255.66 744.913 L2255.66 748.848 L2235.76 748.848 L2235.76 744.913 Z" fill="#000000" fill-rule="nonzero" fill-opacity="1" /><path clip-path="url(#clip220)" d="M2275.11 717.367 Q2271.5 717.367 2269.67 720.931 Q2267.86 724.473 2267.86 731.603 Q2267.86 738.709 2269.67 742.274 Q2271.5 745.815 2275.11 745.815 Q2278.74 745.815 2280.55 742.274 Q2282.38 738.709 2282.38 731.603 Q2282.38 724.473 2280.55 720.931 Q2278.74 717.367 2275.11 717.367 M2275.11 713.663 Q2280.92 713.663 2283.97 718.269 Q2287.05 722.853 2287.05 731.603 Q2287.05 740.329 2283.97 744.936 Q2280.92 749.519 2275.11 749.519 Q2269.3 749.519 2266.22 744.936 Q2263.16 740.329 2263.16 731.603 Q2263.16 722.853 2266.22 718.269 Q2269.3 713.663 2275.11 713.663 Z" fill="#000000" fill-rule="nonzero" fill-opacity="1" /><path clip-path="url(#clip220)" d="M2305.27 717.367 Q2301.66 717.367 2299.83 720.931 Q2298.02 724.473 2298.02 731.603 Q2298.02 738.709 2299.83 742.274 Q2301.66 745.815 2305.27 745.815 Q2308.9 745.815 2310.71 742.274 Q2312.54 738.709 2312.54 731.603 Q2312.54 724.473 2310.71 720.931 Q2308.9 717.367 2305.27 717.367 M2305.27 713.663 Q2311.08 713.663 2314.14 718.269 Q2317.21 722.853 2317.21 731.603 Q2317.21 740.329 2314.14 744.936 Q2311.08 749.519 2305.27 749.519 Q2299.46 749.519 2296.38 744.936 Q2293.33 740.329 2293.33 731.603 Q2293.33 722.853 2296.38 718.269 Q2299.46 713.663 2305.27 713.663 Z" fill="#000000" fill-rule="nonzero" fill-opacity="1" /><path clip-path="url(#clip220)" d="M2335.43 717.367 Q2331.82 717.367 2329.99 720.931 Q2328.19 724.473 2328.19 731.603 Q2328.19 738.709 2329.99 742.274 Q2331.82 745.815 2335.43 745.815 Q2339.07 745.815 2340.87 742.274 Q2342.7 738.709 2342.7 731.603 Q2342.7 724.473 2340.87 720.931 Q2339.07 717.367 2335.43 717.367 M2335.43 713.663 Q2341.24 713.663 2344.3 718.269 Q2347.38 722.853 2347.38 731.603 Q2347.38 740.329 2344.3 744.936 Q2341.24 749.519 2335.43 749.519 Q2329.62 749.519 2326.54 744.936 Q2323.49 740.329 2323.49 731.603 Q2323.49 722.853 2326.54 718.269 Q2329.62 713.663 2335.43 713.663 Z" fill="#000000" fill-rule="nonzero" fill-opacity="1" /><polyline clip-path="url(#clip220)" style="stroke:#000000; stroke-linecap:round; stroke-linejoin:round; stroke-width:4; stroke-opacity:1; fill:none" points="178.867,686.448 178.867,47.2441 "/>
<polyline clip-path="url(#clip220)" style="stroke:#000000; stroke-linecap:round; stroke-linejoin:round; stroke-width:4; stroke-opacity:1; fill:none" points="178.867,686.448 197.764,686.448 "/>
<polyline clip-path="url(#clip220)" style="stroke:#000000; stroke-linecap:round; stroke-linejoin:round; stroke-width:4; stroke-opacity:1; fill:none" points="178.867,526.647 197.764,526.647 "/>
<polyline clip-path="url(#clip220)" style="stroke:#000000; stroke-linecap:round; stroke-linejoin:round; stroke-width:4; stroke-opacity:1; fill:none" points="178.867,366.846 197.764,366.846 "/>
<polyline clip-path="url(#clip220)" style="stroke:#000000; stroke-linecap:round; stroke-linejoin:round; stroke-width:4; stroke-opacity:1; fill:none" points="178.867,207.045 197.764,207.045 "/>
<polyline clip-path="url(#clip220)" style="stroke:#000000; stroke-linecap:round; stroke-linejoin:round; stroke-width:4; stroke-opacity:1; fill:none" points="178.867,47.2441 197.764,47.2441 "/>
<path clip-path="url(#clip220)" d="M50.9921 686.899 L80.6679 686.899 L80.6679 690.834 L50.9921 690.834 L50.9921 686.899 Z" fill="#000000" fill-rule="nonzero" fill-opacity="1" /><path clip-path="url(#clip220)" d="M91.5706 699.793 L99.2095 699.793 L99.2095 673.427 L90.8993 675.094 L90.8993 670.835 L99.1632 669.168 L103.839 669.168 L103.839 699.793 L111.478 699.793 L111.478 703.728 L91.5706 703.728 L91.5706 699.793 Z" fill="#000000" fill-rule="nonzero" fill-opacity="1" /><path clip-path="url(#clip220)" d="M130.922 672.247 Q127.311 672.247 125.482 675.811 Q123.677 679.353 123.677 686.483 Q123.677 693.589 125.482 697.154 Q127.311 700.695 130.922 700.695 Q134.556 700.695 136.362 697.154 Q138.191 693.589 138.191 686.483 Q138.191 679.353 136.362 675.811 Q134.556 672.247 130.922 672.247 M130.922 668.543 Q136.732 668.543 139.788 673.149 Q142.867 677.733 142.867 686.483 Q142.867 695.209 139.788 699.816 Q136.732 704.399 130.922 704.399 Q125.112 704.399 122.033 699.816 Q118.978 695.209 118.978 686.483 Q118.978 677.733 122.033 673.149 Q125.112 668.543 130.922 668.543 Z" fill="#000000" fill-rule="nonzero" fill-opacity="1" /><path clip-path="url(#clip220)" d="M82.1494 527.098 L111.825 527.098 L111.825 531.033 L82.1494 531.033 L82.1494 527.098 Z" fill="#000000" fill-rule="nonzero" fill-opacity="1" /><path clip-path="url(#clip220)" d="M121.964 509.367 L140.32 509.367 L140.32 513.302 L126.246 513.302 L126.246 521.774 Q127.265 521.427 128.283 521.265 Q129.302 521.08 130.32 521.08 Q136.107 521.08 139.487 524.251 Q142.867 527.422 142.867 532.839 Q142.867 538.418 139.394 541.52 Q135.922 544.598 129.603 544.598 Q127.427 544.598 125.158 544.228 Q122.913 543.857 120.506 543.117 L120.506 538.418 Q122.589 539.552 124.811 540.108 Q127.033 540.663 129.51 540.663 Q133.515 540.663 135.853 538.557 Q138.191 536.45 138.191 532.839 Q138.191 529.228 135.853 527.121 Q133.515 525.015 129.51 525.015 Q127.635 525.015 125.76 525.432 Q123.908 525.848 121.964 526.728 L121.964 509.367 Z" fill="#000000" fill-rule="nonzero" fill-opacity="1" /><path clip-path="url(#clip220)" d="M130.922 352.645 Q127.311 352.645 125.482 356.209 Q123.677 359.751 123.677 366.881 Q123.677 373.987 125.482 377.552 Q127.311 381.094 130.922 381.094 Q134.556 381.094 136.362 377.552 Q138.191 373.987 138.191 366.881 Q138.191 359.751 136.362 356.209 Q134.556 352.645 130.922 352.645 M130.922 348.941 Q136.732 348.941 139.788 353.547 Q142.867 358.131 142.867 366.881 Q142.867 375.608 139.788 380.214 Q136.732 384.797 130.922 384.797 Q125.112 384.797 122.033 380.214 Q118.978 375.608 118.978 366.881 Q118.978 358.131 122.033 353.547 Q125.112 348.941 130.922 348.941 Z" fill="#000000" fill-rule="nonzero" fill-opacity="1" /><path clip-path="url(#clip220)" d="M121.964 189.765 L140.32 189.765 L140.32 193.7 L126.246 193.7 L126.246 202.172 Q127.265 201.825 128.283 201.663 Q129.302 201.478 130.32 201.478 Q136.107 201.478 139.487 204.649 Q142.867 207.82 142.867 213.237 Q142.867 218.816 139.394 221.918 Q135.922 224.996 129.603 224.996 Q127.427 224.996 125.158 224.626 Q122.913 224.256 120.506 223.515 L120.506 218.816 Q122.589 219.95 124.811 220.506 Q127.033 221.061 129.51 221.061 Q133.515 221.061 135.853 218.955 Q138.191 216.848 138.191 213.237 Q138.191 209.626 135.853 207.52 Q133.515 205.413 129.51 205.413 Q127.635 205.413 125.76 205.83 Q123.908 206.246 121.964 207.126 L121.964 189.765 Z" fill="#000000" fill-rule="nonzero" fill-opacity="1" /><path clip-path="url(#clip220)" d="M91.5706 60.5889 L99.2095 60.5889 L99.2095 34.2233 L90.8993 35.89 L90.8993 31.6308 L99.1632 29.9641 L103.839 29.9641 L103.839 60.5889 L111.478 60.5889 L111.478 64.5241 L91.5706 64.5241 L91.5706 60.5889 Z" fill="#000000" fill-rule="nonzero" fill-opacity="1" /><path clip-path="url(#clip220)" d="M130.922 33.0428 Q127.311 33.0428 125.482 36.6076 Q123.677 40.1492 123.677 47.2788 Q123.677 54.3853 125.482 57.9501 Q127.311 61.4917 130.922 61.4917 Q134.556 61.4917 136.362 57.9501 Q138.191 54.3853 138.191 47.2788 Q138.191 40.1492 136.362 36.6076 Q134.556 33.0428 130.922 33.0428 M130.922 29.3391 Q136.732 29.3391 139.788 33.9456 Q142.867 38.5289 142.867 47.2788 Q142.867 56.0056 139.788 60.6121 Q136.732 65.1954 130.922 65.1954 Q125.112 65.1954 122.033 60.6121 Q118.978 56.0056 118.978 47.2788 Q118.978 38.5289 122.033 33.9456 Q125.112 29.3391 130.922 29.3391 Z" fill="#000000" fill-rule="nonzero" fill-opacity="1" /><polyline clip-path="url(#clip222)" style="stroke:#009af9; stroke-linecap:round; stroke-linejoin:round; stroke-width:4; stroke-opacity:1; fill:none" points="240.392,334.886 242.445,337.478 244.498,358.242 246.55,364.084 248.603,372.654 250.656,347.297 252.709,352.651 254.762,346.152 256.815,344.95 258.868,345.964 260.921,345.774 262.974,345.871 265.027,340.189 267.079,339.65 269.132,348.969 271.185,393.161 273.238,396.722 275.291,395.5 277.344,395.685 279.397,397.283 281.45,392.85 283.503,392.663 285.555,393.642 287.608,401.489 289.661,401.234 291.714,370.512 293.767,366.318 295.82,371.05 297.873,383.155 299.926,390.757 301.979,407.009 304.031,405.642 306.084,408.06 308.137,408.17 310.19,410.267 312.243,406.007 314.296,384.864 316.349,386.173 318.402,386.121 320.455,308.712 322.507,396.506 324.56,386.893 326.613,372.397 328.666,396.402 330.719,348.465 332.772,370.364 334.825,370.909 336.878,375.565 338.931,377.997 340.984,378.291 343.036,372.989 345.089,359.383 347.142,373.98 349.195,372.868 351.248,386.498 353.301,383.696 355.354,418.649 357.407,350.081 359.46,367.064 361.512,367.224 363.565,369.8 365.618,353.792 367.671,353.814 369.724,354.601 371.777,333.216 373.83,340.441 375.883,339.792 377.936,333.164 379.988,330.269 382.041,335.307 384.094,333.301 386.147,319.043 388.2,318.051 390.253,316.049 392.306,316.592 394.359,314.687 396.412,314.726 398.464,312.623 400.517,344.732 402.57,349.05 404.623,347.809 406.676,344.149 408.729,347.624 410.782,352.877 412.835,355.27 414.888,350.468 416.94,342.99 418.993,342.477 421.046,339.383 423.099,339.625 425.152,344.326 427.205,325.68 429.258,329.404 431.311,326.66 433.364,323.142 435.417,323.127 437.469,368.159 439.522,362.286 441.575,361.923 443.628,361.743 445.681,364.007 447.734,364.742 449.787,365.671 451.84,366.095 453.893,368.693 455.945,368.336 457.998,371.972 460.051,347.742 462.104,356.328 464.157,349.498 466.21,356.379 468.263,348.456 470.316,344.021 472.369,344.01 474.421,339.555 476.474,349.353 478.527,349.373 480.58,361.987 482.633,362.884 484.686,369.96 486.739,369.856 488.792,368.727 490.845,392.216 492.897,392.214 494.95,375.016 497.003,371.64 499.056,371.628 501.109,371.153 503.162,369.111 505.215,372.435 507.268,372.068 509.321,365.055 511.374,366.943 513.426,367.737 515.479,369.689 517.532,367.289 519.585,367.261 521.638,368.736 523.691,374.394 525.744,391.129 527.797,353.088 529.85,364.218 531.902,364.231 533.955,365.45 536.008,375.524 538.061,374.39 540.114,382.055 542.167,382.51 544.22,382.42 546.273,377.255 548.326,364.845 550.378,329.218 552.431,319.027 554.484,333.037 556.537,334.113 558.59,347.622 560.643,329.055 562.696,329.694 564.749,332.177 566.802,328.069 568.854,324.783 570.907,347.634 572.96,347.707 575.013,347.356 577.066,347.267 579.119,346.799 581.172,342.313 583.225,342.783 585.278,342.661 587.331,346.89 589.383,347.669 591.436,345.999 593.489,336.806 595.542,367.502 597.595,366.451 599.648,359.017 601.701,357.305 603.754,357.323 605.807,357.24 607.859,366.344 609.912,366.302 611.965,362.955 614.018,353.262 616.071,376.879 618.124,399.376 620.177,399.099 622.23,352.311 624.283,373.88 626.335,384.336 628.388,383.98 630.441,379.708 632.494,375.444 634.547,375.803 636.6,419.817 638.653,417.178 640.706,472.848 642.759,450.418 644.811,462.246 646.864,462.853 648.917,474.891 650.97,473.033 653.023,466.839 655.076,465.363 657.129,509.534 659.182,507.428 661.235,478.591 663.288,450.551 665.34,450.797 667.393,316.799 669.446,306.364 671.499,307.59 673.552,318.588 675.605,349.731 677.658,300.976 679.711,314.596 681.764,317.044 683.816,297.04 685.869,363.11 687.922,425.703 689.975,376.191 692.028,375.589 694.081,397.554 696.134,329.23 698.187,320.676 700.24,335.972 702.292,340.894 704.345,333.15 706.398,330.547 708.451,367.113 710.504,349.49 712.557,348.652 714.61,348.079 716.663,352.147 718.716,365.745 720.768,408.055 722.821,401.583 724.874,402.235 726.927,404.435 728.98,310.88 731.033,347.801 733.086,370.413 735.139,368.89 737.192,373.469 739.245,338.873 741.297,331.93 743.35,319.029 745.403,388.267 747.456,373.734 749.509,341.331 751.562,336.748 753.615,364.614 755.668,365.796 757.721,364.939 759.773,349.581 761.826,433.43 763.879,427.031 765.932,435.182 767.985,437.378 770.038,375.246 772.091,424.006 774.144,421.057 776.197,466.684 778.249,508.899 780.302,509.708 782.355,414.514 784.408,418.486 786.461,372.452 788.514,379.271 790.567,333.906 792.62,330.659 794.673,328.931 796.725,348.26 798.778,489.888 800.831,226.3 802.884,509.853 804.937,600.796 806.99,493.415 809.043,395.434 811.096,254.127 813.149,283.417 815.202,341.843 817.254,475.846 819.307,379.318 821.36,387.683 823.413,554.55 825.466,484.425 827.519,486.85 829.572,519.293 831.625,164.061 833.678,159.873 835.73,289.442 837.783,289.541 839.836,251.076 841.889,249.415 843.942,260.3 845.995,262.232 848.048,246.889 850.101,528.535 852.154,619.844 854.206,560.352 856.259,580.302 858.312,414.6 860.365,413.623 862.418,396.398 864.471,372.067 866.524,370.592 868.577,360.04 870.63,361.27 872.682,361.598 874.735,362.033 876.788,362.061 878.841,317.057 880.894,331.06 882.947,277.577 885,266.315 887.053,278.067 889.106,266.305 891.159,267.271 893.211,-76.0859 895.264,100.106 897.317,439.136 899.37,300.039 901.423,298.495 903.476,250.142 905.529,237.505 907.582,212.571 909.635,232.837 911.687,255.579 913.74,216.26 915.793,209.847 917.846,130.794 919.899,246.359 921.952,280.86 924.005,193.486 926.058,188.054 928.111,268.153 930.163,240.202 932.216,273.509 934.269,210.903 936.322,381.809 938.375,395.305 940.428,350.501 942.481,454.091 944.534,454.192 946.587,199.884 948.639,180.116 950.692,208.943 952.745,209.402 954.798,209.283 956.851,207.23 958.904,208.045 960.957,207.831 963.01,236.464 965.063,237.813 967.116,246.78 969.168,248.469 971.221,251.597 973.274,292.473 975.327,419.597 977.38,420.867 979.433,427.313 981.486,408.582 983.539,404.653 985.592,406.119 987.644,341.936 989.697,254.962 991.75,280.038 993.803,282.401 995.856,281.614 997.909,197.222 999.962,190.595 1002.01,320.973 1004.07,310.694 1006.12,406.652 1008.17,452.119 1010.23,470.968 1012.28,473.459 1014.33,468.151 1016.38,446.084 1018.44,422.68 1020.49,421.474 1022.54,426.214 1024.6,425.976 1026.65,414.383 1028.7,410.377 1030.76,421.173 1032.81,420.307 1034.86,319.834 1036.91,324.045 1038.97,335.066 1041.02,324.172 1043.07,323.31 1045.13,322.934 1047.18,322.883 1049.23,323.054 1051.28,365.787 1053.34,365.019 1055.39,366.03 1057.44,366.369 1059.5,382.225 1061.55,397.61 1063.6,399.298 1065.65,355.882 1067.71,365.706 1069.76,372.858 1071.81,371.839 1073.87,366.935 1075.92,466.311 1077.97,467.706 1080.02,415.711 1082.08,388.186 1084.13,386.186 1086.18,363.556 1088.24,363.462 1090.29,364.138 1092.34,363.447 1094.39,302.808 1096.45,298.252 1098.5,297.526 1100.55,299.671 1102.61,300.131 1104.66,332.371 1106.71,332.328 1108.77,268.035 1110.82,278.289 1112.87,274.152 1114.92,259.926 1116.98,259.531 1119.03,282.258 1121.08,293.883 1123.14,295.31 1125.19,268.821 1127.24,269.018 1129.29,292.842 1131.35,293.975 1133.4,323.896 1135.45,337.751 1137.51,333.82 1139.56,319.845 1141.61,335.72 1143.66,307.699 1145.72,306.879 1147.77,371.57 1149.82,371.569 1151.88,388.496 1153.93,381.326 1155.98,383.395 1158.03,383.28 1160.09,383.361 1162.14,362.186 1164.19,348.174 1166.25,348.865 1168.3,348.866 1170.35,350.671 1172.4,344.077 1174.46,346.399 1176.51,356.54 1178.56,360.573 1180.62,370.14 1182.67,358.393 1184.72,346.068 1186.77,345.367 1188.83,345.902 1190.88,347.064 1192.93,347.144 1194.99,361.964 1197.04,361.459 1199.09,353.249 1201.15,340.879 1203.2,339.568 1205.25,343.205 1207.3,362.225 1209.36,362.472 1211.41,354.839 1213.46,354.525 1215.52,354.688 1217.57,340.323 1219.62,339.924 1221.67,324.628 1223.73,327.542 1225.78,325.303 1227.83,325.234 1229.89,327.026 1231.94,326.637 1233.99,326.597 1236.04,326.355 1238.1,410.785 1240.15,410.791 1242.2,409.462 1244.26,409.543 1246.31,411.943 1248.36,406.562 1250.41,405.995 1252.47,376.663 1254.52,376.44 1256.57,376.383 1258.63,376.324 1260.68,376.341 1262.73,376.63 1264.78,374.145 1266.84,366.847 1268.89,377.826 1270.94,378.055 1273,378.204 1275.05,398.943 1277.1,398.929 1279.16,402.08 1281.21,420.018 1283.26,368.938 1285.31,379.059 1287.37,380.769 1289.42,355.89 1291.47,355.895 1293.53,355.375 1295.58,331.216 1297.63,337.425 1299.68,337.454 1301.74,335.228 1303.79,336.013 1305.84,330.17 1307.9,331.235 1309.95,330.842 1312,332.865 1314.05,324.063 1316.11,338.857 1318.16,335.807 1320.21,334.511 1322.27,335.214 1324.32,335.792 1326.37,327.504 1328.42,327.506 1330.48,325.287 1332.53,325.447 1334.58,320.407 1336.64,320.526 1338.69,352.1 1340.74,359.871 1342.79,366.854 1344.85,366.935 1346.9,366.309 1348.95,368.966 1351.01,368.992 1353.06,369.098 1355.11,378.491 1357.16,388.893 1359.22,389.198 1361.27,394.78 1363.32,396.539 1365.38,396.553 1367.43,398.409 1369.48,389.561 1371.54,389.812 1373.59,380.326 1375.64,380.787 1377.69,356.429 1379.75,356.078 1381.8,408.638 1383.85,409.839 1385.91,409.325 1387.96,403.633 1390.01,404.092 1392.06,404.717 1394.12,363.035 1396.17,364.649 1398.22,365.498 1400.28,363.883 1402.33,363.414 1404.38,361.628 1406.43,374.466 1408.49,374.254 1410.54,375.05 1412.59,374.596 1414.65,374.579 1416.7,374.291 1418.75,375.348 1420.8,375.301 1422.86,375.031 1424.91,375.677 1426.96,371.607 1429.02,373.82 1431.07,389.741 1433.12,397.342 1435.17,400.431 1437.23,297.441 1439.28,297.526 1441.33,331.698 1443.39,331.426 1445.44,328.38 1447.49,328.284 1449.55,342.423 1451.6,344.848 1453.65,350.704 1455.7,350.58 1457.76,358.021 1459.81,358.546 1461.86,341.766 1463.92,341.179 1465.97,327.497 1468.02,328.202 1470.07,365.039 1472.13,370.466 1474.18,371.97 1476.23,372.065 1478.29,373.337 1480.34,350.922 1482.39,350.442 1484.44,343.604 1486.5,345.527 1488.55,360.085 1490.6,358.365 1492.66,350.431 1494.71,350.406 1496.76,348.956 1498.81,347.778 1500.87,347.944 1502.92,348.909 1504.97,347.911 1507.03,347.422 1509.08,386.987 1511.13,390.983 1513.18,390.47 1515.24,379.876 1517.29,378.476 1519.34,373.525 1521.4,374.239 1523.45,373.215 1525.5,380.68 1527.55,407.464 1529.61,405.51 1531.66,396.075 1533.71,394.151 1535.77,395.233 1537.82,395.05 1539.87,387.709 1541.93,387.835 1543.98,387.12 1546.03,388.603 1548.08,377.373 1550.14,382.412 1552.19,380.232 1554.24,315.601 1556.3,322.225 1558.35,333.139 1560.4,333.097 1562.45,344.274 1564.51,344.117 1566.56,347.889 1568.61,348.867 1570.67,339.008 1572.72,373.315 1574.77,397.396 1576.82,389.244 1578.88,398.211 1580.93,397.906 1582.98,393.173 1585.04,392.853 1587.09,424.747 1589.14,389.407 1591.19,383.289 1593.25,382.747 1595.3,381.895 1597.35,398.758 1599.41,398.135 1601.46,398.098 1603.51,420.917 1605.56,419.592 1607.62,419.893 1609.67,376.2 1611.72,375.846 1613.78,373.58 1615.83,359.67 1617.88,348.489 1619.94,358.291 1621.99,340.736 1624.04,348.343 1626.09,351.927 1628.15,348.979 1630.2,349.217 1632.25,346.163 1634.31,342.659 1636.36,325.919 1638.41,329.577 1640.46,329.799 1642.52,330.473 1644.57,347.44 1646.62,346.706 1648.68,346.706 1650.73,391.805 1652.78,398.901 1654.83,384.685 1656.89,387.716 1658.94,398.463 1660.99,401.679 1663.05,399.949 1665.1,401.081 1667.15,401.291 1669.2,406.199 1671.26,400.756 1673.31,397.684 1675.36,383.411 1677.42,383.379 1679.47,385.951 1681.52,385.963 1683.57,386.207 1685.63,385.709 1687.68,388.98 1689.73,386.622 1691.79,387.023 1693.84,387.808 1695.89,388.382 1697.94,391.738 1700,375.044 1702.05,344.666 1704.1,331.942 1706.16,331.935 1708.21,332.687 1710.26,338.179 1712.32,355.966 1714.37,349.454 1716.42,349.937 1718.47,349.934 1720.53,352.098 1722.58,351.32 1724.63,351.288 1726.69,373.434 1728.74,374.329 1730.79,374.506 1732.84,375.041 1734.9,374.717 1736.95,323.177 1739,323.18 1741.06,358.924 1743.11,344.647 1745.16,344.942 1747.21,344.969 1749.27,347.973 1751.32,341.937 1753.37,342.262 1755.43,353.703 1757.48,353.689 1759.53,354.034 1761.58,350.074 1763.64,351.608 1765.69,348.678 1767.74,350.481 1769.8,352.799 1771.85,352.804 1773.9,358.555 1775.95,383.069 1778.01,381.339 1780.06,381.574 1782.11,382.483 1784.17,378.64 1786.22,379.015 1788.27,375.781 1790.33,379.462 1792.38,379.555 1794.43,381.337 1796.48,386.767 1798.54,386.06 1800.59,386.839 1802.64,389.275 1804.7,361.428 1806.75,372.916 1808.8,358.916 1810.85,371.999 1812.91,364.437 1814.96,364.712 1817.01,369.91 1819.07,369.762 1821.12,383.794 1823.17,383.986 1825.22,383.897 1827.28,381.709 1829.33,386.396 1831.38,376.982 1833.44,376.879 1835.49,352.326 1837.54,351.685 1839.59,363.628 1841.65,368.763 1843.7,368.811 1845.75,368.92 1847.81,361.608 1849.86,356.036 1851.91,361.618 1853.96,411.15 1856.02,325.272 1858.07,325.381 1860.12,318.11 1862.18,317.902 1864.23,315.595 1866.28,315.487 1868.34,311.652 1870.39,310.399 1872.44,309.669 1874.49,309.541 1876.55,292.854 1878.6,290.728 1880.65,335.16 1882.71,334.448 1884.76,304.376 1886.81,304.554 1888.86,349.57 1890.92,349.791 1892.97,354.588 1895.02,351.039 1897.08,351.023 1899.13,350.931 1901.18,351.046 1903.23,342.481 1905.29,348.743 1907.34,343.223 1909.39,369.78 1911.45,297.332 1913.5,372.557 1915.55,376.874 1917.6,377.967 1919.66,378.717 1921.71,379.682 1923.76,379.7 1925.82,369.574 1927.87,369.936 1929.92,357.591 1931.97,380.797 1934.03,366.76 1936.08,362.422 1938.13,357.329 1940.19,343.566 1942.24,366.557 1944.29,365.083 1946.34,360.968 1948.4,359.044 1950.45,331.171 1952.5,324.747 1954.56,325.655 1956.61,325.207 1958.66,328.591 1960.72,330.706 1962.77,389.433 1964.82,390.345 1966.87,389.87 1968.93,388.491 1970.98,421.398 1973.03,330.055 1975.09,334.225 1977.14,334.556 1979.19,340.196 1981.24,351.068 1983.3,348.747 1985.35,455.422 1987.4,468.58 1989.46,442.42 1991.51,398.795 1993.56,394.902 1995.61,413.89 1997.67,428.84 1999.72,450.674 2001.77,472.317 2003.83,472.554 2005.88,481.268 2007.93,451.932 2009.98,448.765 2012.04,443.796 2014.09,459.274 2016.14,423.271 2018.2,423.044 2020.25,389.176 2022.3,389.546 2024.35,324.337 2026.41,322.136 2028.46,327.586 2030.51,327.563 2032.57,338.553 2034.62,336.1 2036.67,335.532 2038.73,340.44 2040.78,340.462 2042.83,340.099 2044.88,342.115 2046.94,339.936 2048.99,340.227 2051.04,332.664 2053.1,332.696 2055.15,336.35 2057.2,328.019 2059.25,336.995 2061.31,325.412 2063.36,329.356 2065.41,337.156 2067.47,337.008 2069.52,336.672 2071.57,317.933 2073.62,317.961 2075.68,317.961 2077.73,320.021 2079.78,309.518 2081.84,309.371 2083.89,309.082 2085.94,308.878 2087.99,313.842 2090.05,379.495 2092.1,383.616 2094.15,373.853 2096.21,330.909 2098.26,346.387 2100.31,346.769 2102.36,342.093 2104.42,345.871 2106.47,345.849 2108.52,349.185 2110.58,339.559 2112.63,335.393 2114.68,333.138 2116.73,329.881 2118.79,328.718 2120.84,331.428 2122.89,308.385 2124.95,306.272 2127,301.996 2129.05,334.49 2131.11,335.906 2133.16,328.475 2135.21,327.625 2137.26,327.7 2139.32,335.07 2141.37,347.421 2143.42,345.053 2145.48,344.491 2147.53,347.905 2149.58,347.948 2151.63,347.279 2153.69,330.403 2155.74,371.905 2157.79,368.504 2159.85,368.387 2161.9,367.929 2163.95,368.044 2166,364.285 2168.06,285.883 2170.11,285.924 2172.16,303.871 2174.22,366.563 2176.27,358.639 2178.32,363.838 2180.37,374.918 2182.43,381.131 2184.48,371.685 2186.53,370.294 2188.59,367.759 2190.64,307.404 2192.69,308.956 2194.74,313.454 2196.8,346.255 2198.85,375.546 2200.9,375.786 2202.96,343.374 2205.01,337.735 2207.06,352.585 2209.12,357.516 2211.17,397.131 2213.22,411.989 2215.27,390.954 2217.33,390.206 2219.38,383.738 2221.43,315.868 2223.49,312.582 2225.54,328.797 2227.59,329.045 2229.64,349.023 2231.7,342.85 2233.75,344.113 2235.8,351.268 2237.86,351.044 2239.91,322.979 2241.96,316.446 2244.01,347.485 2246.07,347.583 2248.12,335.297 2250.17,360.323 2252.23,314.368 2254.28,306.877 2256.33,299.426 2258.38,299.851 2260.44,303.355 2262.49,301.876 2264.54,301.244 2266.6,288.895 2268.65,273.671 2270.7,280.733 2272.75,280.534 2274.81,371.468 2276.86,361.292 2278.91,441.025 2280.97,440.669 2283.02,496.457 2285.07,335.533 2287.12,233.698 2289.18,246.787 2291.23,264.407 "/>
<path clip-path="url(#clip220)" d="M1983.6 172.231 L2280.29 172.231 L2280.29 68.5509 L1983.6 68.5509  Z" fill="#ffffff" fill-rule="evenodd" fill-opacity="1"/>
<polyline clip-path="url(#clip220)" style="stroke:#000000; stroke-linecap:round; stroke-linejoin:round; stroke-width:4; stroke-opacity:1; fill:none" points="1983.6,172.231 2280.29,172.231 2280.29,68.5509 1983.6,68.5509 1983.6,172.231 "/>
<polyline clip-path="url(#clip220)" style="stroke:#009af9; stroke-linecap:round; stroke-linejoin:round; stroke-width:4; stroke-opacity:1; fill:none" points="2007.75,120.391 2152.68,120.391 "/>
<path clip-path="url(#clip220)" d="M2176.83 103.111 L2181.51 103.111 L2181.51 133.736 L2198.34 133.736 L2198.34 137.671 L2176.83 137.671 L2176.83 103.111 Z" fill="#000000" fill-rule="nonzero" fill-opacity="1" /><path clip-path="url(#clip220)" d="M2223.96 104.245 L2223.96 108.805 Q2221.3 107.532 2218.94 106.907 Q2216.58 106.282 2214.38 106.282 Q2210.56 106.282 2208.48 107.764 Q2206.42 109.245 2206.42 111.977 Q2206.42 114.268 2207.78 115.449 Q2209.17 116.606 2213.01 117.324 L2215.84 117.902 Q2221.07 118.898 2223.55 121.421 Q2226.05 123.921 2226.05 128.134 Q2226.05 133.157 2222.67 135.75 Q2219.31 138.342 2212.81 138.342 Q2210.35 138.342 2207.57 137.787 Q2204.82 137.231 2201.86 136.143 L2201.86 131.328 Q2204.7 132.926 2207.44 133.736 Q2210.17 134.546 2212.81 134.546 Q2216.81 134.546 2218.99 132.972 Q2221.16 131.398 2221.16 128.481 Q2221.16 125.935 2219.59 124.5 Q2218.04 123.064 2214.47 122.347 L2211.62 121.791 Q2206.39 120.75 2204.06 118.527 Q2201.72 116.305 2201.72 112.347 Q2201.72 107.764 2204.94 105.125 Q2208.18 102.486 2213.85 102.486 Q2216.28 102.486 2218.8 102.926 Q2221.32 103.366 2223.96 104.245 Z" fill="#000000" fill-rule="nonzero" fill-opacity="1" /><path clip-path="url(#clip220)" d="M2254.06 104.245 L2254.06 108.805 Q2251.39 107.532 2249.03 106.907 Q2246.67 106.282 2244.47 106.282 Q2240.65 106.282 2238.57 107.764 Q2236.51 109.245 2236.51 111.977 Q2236.51 114.268 2237.87 115.449 Q2239.26 116.606 2243.11 117.324 L2245.93 117.902 Q2251.16 118.898 2253.64 121.421 Q2256.14 123.921 2256.14 128.134 Q2256.14 133.157 2252.76 135.75 Q2249.4 138.342 2242.9 138.342 Q2240.44 138.342 2237.67 137.787 Q2234.91 137.231 2231.95 136.143 L2231.95 131.328 Q2234.8 132.926 2237.53 133.736 Q2240.26 134.546 2242.9 134.546 Q2246.9 134.546 2249.08 132.972 Q2251.25 131.398 2251.25 128.481 Q2251.25 125.935 2249.68 124.5 Q2248.13 123.064 2244.56 122.347 L2241.72 121.791 Q2236.49 120.75 2234.15 118.527 Q2231.81 116.305 2231.81 112.347 Q2231.81 107.764 2235.03 105.125 Q2238.27 102.486 2243.94 102.486 Q2246.37 102.486 2248.89 102.926 Q2251.42 103.366 2254.06 104.245 Z" fill="#000000" fill-rule="nonzero" fill-opacity="1" /><path clip-path="url(#clip220)" d="M178.867 1486.45 L2352.76 1486.45 L2352.76 847.244 L178.867 847.244  Z" fill="#ffffff" fill-rule="evenodd" fill-opacity="1"/>
<defs>
  <clipPath id="clip223">
    <rect x="178" y="847" width="2175" height="640"/>
  </clipPath>
</defs>
<polyline clip-path="url(#clip223)" style="stroke:#000000; stroke-linecap:round; stroke-linejoin:round; stroke-width:2; stroke-opacity:0.1; fill:none" points="238.339,1486.45 238.339,847.244 "/>
<polyline clip-path="url(#clip223)" style="stroke:#000000; stroke-linecap:round; stroke-linejoin:round; stroke-width:2; stroke-opacity:0.1; fill:none" points="751.562,1486.45 751.562,847.244 "/>
<polyline clip-path="url(#clip223)" style="stroke:#000000; stroke-linecap:round; stroke-linejoin:round; stroke-width:2; stroke-opacity:0.1; fill:none" points="1264.78,1486.45 1264.78,847.244 "/>
<polyline clip-path="url(#clip223)" style="stroke:#000000; stroke-linecap:round; stroke-linejoin:round; stroke-width:2; stroke-opacity:0.1; fill:none" points="1778.01,1486.45 1778.01,847.244 "/>
<polyline clip-path="url(#clip223)" style="stroke:#000000; stroke-linecap:round; stroke-linejoin:round; stroke-width:2; stroke-opacity:0.1; fill:none" points="2291.23,1486.45 2291.23,847.244 "/>
<polyline clip-path="url(#clip223)" style="stroke:#000000; stroke-linecap:round; stroke-linejoin:round; stroke-width:2; stroke-opacity:0.1; fill:none" points="178.867,1486.45 2352.76,1486.45 "/>
<polyline clip-path="url(#clip223)" style="stroke:#000000; stroke-linecap:round; stroke-linejoin:round; stroke-width:2; stroke-opacity:0.1; fill:none" points="178.867,1326.65 2352.76,1326.65 "/>
<polyline clip-path="url(#clip223)" style="stroke:#000000; stroke-linecap:round; stroke-linejoin:round; stroke-width:2; stroke-opacity:0.1; fill:none" points="178.867,1166.85 2352.76,1166.85 "/>
<polyline clip-path="url(#clip223)" style="stroke:#000000; stroke-linecap:round; stroke-linejoin:round; stroke-width:2; stroke-opacity:0.1; fill:none" points="178.867,1007.05 2352.76,1007.05 "/>
<polyline clip-path="url(#clip223)" style="stroke:#000000; stroke-linecap:round; stroke-linejoin:round; stroke-width:2; stroke-opacity:0.1; fill:none" points="178.867,847.244 2352.76,847.244 "/>
<polyline clip-path="url(#clip220)" style="stroke:#000000; stroke-linecap:round; stroke-linejoin:round; stroke-width:4; stroke-opacity:1; fill:none" points="178.867,1486.45 2352.76,1486.45 "/>
<polyline clip-path="url(#clip220)" style="stroke:#000000; stroke-linecap:round; stroke-linejoin:round; stroke-width:4; stroke-opacity:1; fill:none" points="238.339,1486.45 238.339,1467.55 "/>
<polyline clip-path="url(#clip220)" style="stroke:#000000; stroke-linecap:round; stroke-linejoin:round; stroke-width:4; stroke-opacity:1; fill:none" points="751.562,1486.45 751.562,1467.55 "/>
<polyline clip-path="url(#clip220)" style="stroke:#000000; stroke-linecap:round; stroke-linejoin:round; stroke-width:4; stroke-opacity:1; fill:none" points="1264.78,1486.45 1264.78,1467.55 "/>
<polyline clip-path="url(#clip220)" style="stroke:#000000; stroke-linecap:round; stroke-linejoin:round; stroke-width:4; stroke-opacity:1; fill:none" points="1778.01,1486.45 1778.01,1467.55 "/>
<polyline clip-path="url(#clip220)" style="stroke:#000000; stroke-linecap:round; stroke-linejoin:round; stroke-width:4; stroke-opacity:1; fill:none" points="2291.23,1486.45 2291.23,1467.55 "/>
<path clip-path="url(#clip220)" d="M238.339 1517.37 Q234.728 1517.37 232.899 1520.93 Q231.094 1524.47 231.094 1531.6 Q231.094 1538.71 232.899 1542.27 Q234.728 1545.82 238.339 1545.82 Q241.973 1545.82 243.779 1542.27 Q245.607 1538.71 245.607 1531.6 Q245.607 1524.47 243.779 1520.93 Q241.973 1517.37 238.339 1517.37 M238.339 1513.66 Q244.149 1513.66 247.205 1518.27 Q250.283 1522.85 250.283 1531.6 Q250.283 1540.33 247.205 1544.94 Q244.149 1549.52 238.339 1549.52 Q232.529 1549.52 229.45 1544.94 Q226.395 1540.33 226.395 1531.6 Q226.395 1522.85 229.45 1518.27 Q232.529 1513.66 238.339 1513.66 Z" fill="#000000" fill-rule="nonzero" fill-opacity="1" /><path clip-path="url(#clip220)" d="M715.254 1544.91 L731.574 1544.91 L731.574 1548.85 L709.629 1548.85 L709.629 1544.91 Q712.291 1542.16 716.875 1537.53 Q721.481 1532.88 722.662 1531.53 Q724.907 1529.01 725.787 1527.27 Q726.689 1525.51 726.689 1523.82 Q726.689 1521.07 724.745 1519.33 Q722.824 1517.6 719.722 1517.6 Q717.523 1517.6 715.069 1518.36 Q712.638 1519.13 709.861 1520.68 L709.861 1515.95 Q712.685 1514.82 715.138 1514.24 Q717.592 1513.66 719.629 1513.66 Q725 1513.66 728.194 1516.35 Q731.388 1519.03 731.388 1523.52 Q731.388 1525.65 730.578 1527.57 Q729.791 1529.47 727.685 1532.07 Q727.106 1532.74 724.004 1535.95 Q720.902 1539.15 715.254 1544.91 Z" fill="#000000" fill-rule="nonzero" fill-opacity="1" /><path clip-path="url(#clip220)" d="M741.435 1514.29 L759.791 1514.29 L759.791 1518.22 L745.717 1518.22 L745.717 1526.7 Q746.736 1526.35 747.754 1526.19 Q748.773 1526 749.791 1526 Q755.578 1526 758.958 1529.17 Q762.337 1532.34 762.337 1537.76 Q762.337 1543.34 758.865 1546.44 Q755.393 1549.52 749.073 1549.52 Q746.898 1549.52 744.629 1549.15 Q742.384 1548.78 739.976 1548.04 L739.976 1543.34 Q742.06 1544.47 744.282 1545.03 Q746.504 1545.58 748.981 1545.58 Q752.985 1545.58 755.323 1543.48 Q757.661 1541.37 757.661 1537.76 Q757.661 1534.15 755.323 1532.04 Q752.985 1529.94 748.981 1529.94 Q747.106 1529.94 745.231 1530.35 Q743.379 1530.77 741.435 1531.65 L741.435 1514.29 Z" fill="#000000" fill-rule="nonzero" fill-opacity="1" /><path clip-path="url(#clip220)" d="M781.55 1517.37 Q777.939 1517.37 776.11 1520.93 Q774.305 1524.47 774.305 1531.6 Q774.305 1538.71 776.11 1542.27 Q777.939 1545.82 781.55 1545.82 Q785.184 1545.82 786.99 1542.27 Q788.819 1538.71 788.819 1531.6 Q788.819 1524.47 786.99 1520.93 Q785.184 1517.37 781.55 1517.37 M781.55 1513.66 Q787.36 1513.66 790.416 1518.27 Q793.495 1522.85 793.495 1531.6 Q793.495 1540.33 790.416 1544.94 Q787.36 1549.52 781.55 1549.52 Q775.74 1549.52 772.661 1544.94 Q769.606 1540.33 769.606 1531.6 Q769.606 1522.85 772.661 1518.27 Q775.74 1513.66 781.55 1513.66 Z" fill="#000000" fill-rule="nonzero" fill-opacity="1" /><path clip-path="url(#clip220)" d="M1224.4 1514.29 L1242.76 1514.29 L1242.76 1518.22 L1228.69 1518.22 L1228.69 1526.7 Q1229.7 1526.35 1230.72 1526.19 Q1231.74 1526 1232.76 1526 Q1238.55 1526 1241.93 1529.17 Q1245.31 1532.34 1245.31 1537.76 Q1245.31 1543.34 1241.83 1546.44 Q1238.36 1549.52 1232.04 1549.52 Q1229.87 1549.52 1227.6 1549.15 Q1225.35 1548.78 1222.94 1548.04 L1222.94 1543.34 Q1225.03 1544.47 1227.25 1545.03 Q1229.47 1545.58 1231.95 1545.58 Q1235.95 1545.58 1238.29 1543.48 Q1240.63 1541.37 1240.63 1537.76 Q1240.63 1534.15 1238.29 1532.04 Q1235.95 1529.94 1231.95 1529.94 Q1230.07 1529.94 1228.2 1530.35 Q1226.35 1530.77 1224.4 1531.65 L1224.4 1514.29 Z" fill="#000000" fill-rule="nonzero" fill-opacity="1" /><path clip-path="url(#clip220)" d="M1264.52 1517.37 Q1260.91 1517.37 1259.08 1520.93 Q1257.27 1524.47 1257.27 1531.6 Q1257.27 1538.71 1259.08 1542.27 Q1260.91 1545.82 1264.52 1545.82 Q1268.15 1545.82 1269.96 1542.27 Q1271.79 1538.71 1271.79 1531.6 Q1271.79 1524.47 1269.96 1520.93 Q1268.15 1517.37 1264.52 1517.37 M1264.52 1513.66 Q1270.33 1513.66 1273.38 1518.27 Q1276.46 1522.85 1276.46 1531.6 Q1276.46 1540.33 1273.38 1544.94 Q1270.33 1549.52 1264.52 1549.52 Q1258.71 1549.52 1255.63 1544.94 Q1252.57 1540.33 1252.57 1531.6 Q1252.57 1522.85 1255.63 1518.27 Q1258.71 1513.66 1264.52 1513.66 Z" fill="#000000" fill-rule="nonzero" fill-opacity="1" /><path clip-path="url(#clip220)" d="M1294.68 1517.37 Q1291.07 1517.37 1289.24 1520.93 Q1287.44 1524.47 1287.44 1531.6 Q1287.44 1538.71 1289.24 1542.27 Q1291.07 1545.82 1294.68 1545.82 Q1298.31 1545.82 1300.12 1542.27 Q1301.95 1538.71 1301.95 1531.6 Q1301.95 1524.47 1300.12 1520.93 Q1298.31 1517.37 1294.68 1517.37 M1294.68 1513.66 Q1300.49 1513.66 1303.55 1518.27 Q1306.62 1522.85 1306.62 1531.6 Q1306.62 1540.33 1303.55 1544.94 Q1300.49 1549.52 1294.68 1549.52 Q1288.87 1549.52 1285.79 1544.94 Q1282.74 1540.33 1282.74 1531.6 Q1282.74 1522.85 1285.79 1518.27 Q1288.87 1513.66 1294.68 1513.66 Z" fill="#000000" fill-rule="nonzero" fill-opacity="1" /><path clip-path="url(#clip220)" d="M1736.28 1514.29 L1758.51 1514.29 L1758.51 1516.28 L1745.96 1548.85 L1741.08 1548.85 L1752.88 1518.22 L1736.28 1518.22 L1736.28 1514.29 Z" fill="#000000" fill-rule="nonzero" fill-opacity="1" /><path clip-path="url(#clip220)" d="M1767.67 1514.29 L1786.03 1514.29 L1786.03 1518.22 L1771.95 1518.22 L1771.95 1526.7 Q1772.97 1526.35 1773.99 1526.19 Q1775.01 1526 1776.03 1526 Q1781.82 1526 1785.2 1529.17 Q1788.57 1532.34 1788.57 1537.76 Q1788.57 1543.34 1785.1 1546.44 Q1781.63 1549.52 1775.31 1549.52 Q1773.14 1549.52 1770.87 1549.15 Q1768.62 1548.78 1766.21 1548.04 L1766.21 1543.34 Q1768.3 1544.47 1770.52 1545.03 Q1772.74 1545.58 1775.22 1545.58 Q1779.22 1545.58 1781.56 1543.48 Q1783.9 1541.37 1783.9 1537.76 Q1783.9 1534.15 1781.56 1532.04 Q1779.22 1529.94 1775.22 1529.94 Q1773.34 1529.94 1771.47 1530.35 Q1769.62 1530.77 1767.67 1531.65 L1767.67 1514.29 Z" fill="#000000" fill-rule="nonzero" fill-opacity="1" /><path clip-path="url(#clip220)" d="M1807.79 1517.37 Q1804.18 1517.37 1802.35 1520.93 Q1800.54 1524.47 1800.54 1531.6 Q1800.54 1538.71 1802.35 1542.27 Q1804.18 1545.82 1807.79 1545.82 Q1811.42 1545.82 1813.23 1542.27 Q1815.06 1538.71 1815.06 1531.6 Q1815.06 1524.47 1813.23 1520.93 Q1811.42 1517.37 1807.79 1517.37 M1807.79 1513.66 Q1813.6 1513.66 1816.65 1518.27 Q1819.73 1522.85 1819.73 1531.6 Q1819.73 1540.33 1816.65 1544.94 Q1813.6 1549.52 1807.79 1549.52 Q1801.98 1549.52 1798.9 1544.94 Q1795.84 1540.33 1795.84 1531.6 Q1795.84 1522.85 1798.9 1518.27 Q1801.98 1513.66 1807.79 1513.66 Z" fill="#000000" fill-rule="nonzero" fill-opacity="1" /><path clip-path="url(#clip220)" d="M2235.76 1544.91 L2243.4 1544.91 L2243.4 1518.55 L2235.09 1520.21 L2235.09 1515.95 L2243.35 1514.29 L2248.02 1514.29 L2248.02 1544.91 L2255.66 1544.91 L2255.66 1548.85 L2235.76 1548.85 L2235.76 1544.91 Z" fill="#000000" fill-rule="nonzero" fill-opacity="1" /><path clip-path="url(#clip220)" d="M2275.11 1517.37 Q2271.5 1517.37 2269.67 1520.93 Q2267.86 1524.47 2267.86 1531.6 Q2267.86 1538.71 2269.67 1542.27 Q2271.5 1545.82 2275.11 1545.82 Q2278.74 1545.82 2280.55 1542.27 Q2282.38 1538.71 2282.38 1531.6 Q2282.38 1524.47 2280.55 1520.93 Q2278.74 1517.37 2275.11 1517.37 M2275.11 1513.66 Q2280.92 1513.66 2283.97 1518.27 Q2287.05 1522.85 2287.05 1531.6 Q2287.05 1540.33 2283.97 1544.94 Q2280.92 1549.52 2275.11 1549.52 Q2269.3 1549.52 2266.22 1544.94 Q2263.16 1540.33 2263.16 1531.6 Q2263.16 1522.85 2266.22 1518.27 Q2269.3 1513.66 2275.11 1513.66 Z" fill="#000000" fill-rule="nonzero" fill-opacity="1" /><path clip-path="url(#clip220)" d="M2305.27 1517.37 Q2301.66 1517.37 2299.83 1520.93 Q2298.02 1524.47 2298.02 1531.6 Q2298.02 1538.71 2299.83 1542.27 Q2301.66 1545.82 2305.27 1545.82 Q2308.9 1545.82 2310.71 1542.27 Q2312.54 1538.71 2312.54 1531.6 Q2312.54 1524.47 2310.71 1520.93 Q2308.9 1517.37 2305.27 1517.37 M2305.27 1513.66 Q2311.08 1513.66 2314.14 1518.27 Q2317.21 1522.85 2317.21 1531.6 Q2317.21 1540.33 2314.14 1544.94 Q2311.08 1549.52 2305.27 1549.52 Q2299.46 1549.52 2296.38 1544.94 Q2293.33 1540.33 2293.33 1531.6 Q2293.33 1522.85 2296.38 1518.27 Q2299.46 1513.66 2305.27 1513.66 Z" fill="#000000" fill-rule="nonzero" fill-opacity="1" /><path clip-path="url(#clip220)" d="M2335.43 1517.37 Q2331.82 1517.37 2329.99 1520.93 Q2328.19 1524.47 2328.19 1531.6 Q2328.19 1538.71 2329.99 1542.27 Q2331.82 1545.82 2335.43 1545.82 Q2339.07 1545.82 2340.87 1542.27 Q2342.7 1538.71 2342.7 1531.6 Q2342.7 1524.47 2340.87 1520.93 Q2339.07 1517.37 2335.43 1517.37 M2335.43 1513.66 Q2341.24 1513.66 2344.3 1518.27 Q2347.38 1522.85 2347.38 1531.6 Q2347.38 1540.33 2344.3 1544.94 Q2341.24 1549.52 2335.43 1549.52 Q2329.62 1549.52 2326.54 1544.94 Q2323.49 1540.33 2323.49 1531.6 Q2323.49 1522.85 2326.54 1518.27 Q2329.62 1513.66 2335.43 1513.66 Z" fill="#000000" fill-rule="nonzero" fill-opacity="1" /><polyline clip-path="url(#clip220)" style="stroke:#000000; stroke-linecap:round; stroke-linejoin:round; stroke-width:4; stroke-opacity:1; fill:none" points="178.867,1486.45 178.867,847.244 "/>
<polyline clip-path="url(#clip220)" style="stroke:#000000; stroke-linecap:round; stroke-linejoin:round; stroke-width:4; stroke-opacity:1; fill:none" points="178.867,1486.45 197.764,1486.45 "/>
<polyline clip-path="url(#clip220)" style="stroke:#000000; stroke-linecap:round; stroke-linejoin:round; stroke-width:4; stroke-opacity:1; fill:none" points="178.867,1326.65 197.764,1326.65 "/>
<polyline clip-path="url(#clip220)" style="stroke:#000000; stroke-linecap:round; stroke-linejoin:round; stroke-width:4; stroke-opacity:1; fill:none" points="178.867,1166.85 197.764,1166.85 "/>
<polyline clip-path="url(#clip220)" style="stroke:#000000; stroke-linecap:round; stroke-linejoin:round; stroke-width:4; stroke-opacity:1; fill:none" points="178.867,1007.05 197.764,1007.05 "/>
<polyline clip-path="url(#clip220)" style="stroke:#000000; stroke-linecap:round; stroke-linejoin:round; stroke-width:4; stroke-opacity:1; fill:none" points="178.867,847.244 197.764,847.244 "/>
<path clip-path="url(#clip220)" d="M50.9921 1486.9 L80.6679 1486.9 L80.6679 1490.83 L50.9921 1490.83 L50.9921 1486.9 Z" fill="#000000" fill-rule="nonzero" fill-opacity="1" /><path clip-path="url(#clip220)" d="M91.5706 1499.79 L99.2095 1499.79 L99.2095 1473.43 L90.8993 1475.09 L90.8993 1470.83 L99.1632 1469.17 L103.839 1469.17 L103.839 1499.79 L111.478 1499.79 L111.478 1503.73 L91.5706 1503.73 L91.5706 1499.79 Z" fill="#000000" fill-rule="nonzero" fill-opacity="1" /><path clip-path="url(#clip220)" d="M130.922 1472.25 Q127.311 1472.25 125.482 1475.81 Q123.677 1479.35 123.677 1486.48 Q123.677 1493.59 125.482 1497.15 Q127.311 1500.7 130.922 1500.7 Q134.556 1500.7 136.362 1497.15 Q138.191 1493.59 138.191 1486.48 Q138.191 1479.35 136.362 1475.81 Q134.556 1472.25 130.922 1472.25 M130.922 1468.54 Q136.732 1468.54 139.788 1473.15 Q142.867 1477.73 142.867 1486.48 Q142.867 1495.21 139.788 1499.82 Q136.732 1504.4 130.922 1504.4 Q125.112 1504.4 122.033 1499.82 Q118.978 1495.21 118.978 1486.48 Q118.978 1477.73 122.033 1473.15 Q125.112 1468.54 130.922 1468.54 Z" fill="#000000" fill-rule="nonzero" fill-opacity="1" /><path clip-path="url(#clip220)" d="M82.1494 1327.1 L111.825 1327.1 L111.825 1331.03 L82.1494 1331.03 L82.1494 1327.1 Z" fill="#000000" fill-rule="nonzero" fill-opacity="1" /><path clip-path="url(#clip220)" d="M121.964 1309.37 L140.32 1309.37 L140.32 1313.3 L126.246 1313.3 L126.246 1321.77 Q127.265 1321.43 128.283 1321.27 Q129.302 1321.08 130.32 1321.08 Q136.107 1321.08 139.487 1324.25 Q142.867 1327.42 142.867 1332.84 Q142.867 1338.42 139.394 1341.52 Q135.922 1344.6 129.603 1344.6 Q127.427 1344.6 125.158 1344.23 Q122.913 1343.86 120.506 1343.12 L120.506 1338.42 Q122.589 1339.55 124.811 1340.11 Q127.033 1340.66 129.51 1340.66 Q133.515 1340.66 135.853 1338.56 Q138.191 1336.45 138.191 1332.84 Q138.191 1329.23 135.853 1327.12 Q133.515 1325.01 129.51 1325.01 Q127.635 1325.01 125.76 1325.43 Q123.908 1325.85 121.964 1326.73 L121.964 1309.37 Z" fill="#000000" fill-rule="nonzero" fill-opacity="1" /><path clip-path="url(#clip220)" d="M130.922 1152.64 Q127.311 1152.64 125.482 1156.21 Q123.677 1159.75 123.677 1166.88 Q123.677 1173.99 125.482 1177.55 Q127.311 1181.09 130.922 1181.09 Q134.556 1181.09 136.362 1177.55 Q138.191 1173.99 138.191 1166.88 Q138.191 1159.75 136.362 1156.21 Q134.556 1152.64 130.922 1152.64 M130.922 1148.94 Q136.732 1148.94 139.788 1153.55 Q142.867 1158.13 142.867 1166.88 Q142.867 1175.61 139.788 1180.21 Q136.732 1184.8 130.922 1184.8 Q125.112 1184.8 122.033 1180.21 Q118.978 1175.61 118.978 1166.88 Q118.978 1158.13 122.033 1153.55 Q125.112 1148.94 130.922 1148.94 Z" fill="#000000" fill-rule="nonzero" fill-opacity="1" /><path clip-path="url(#clip220)" d="M121.964 989.765 L140.32 989.765 L140.32 993.7 L126.246 993.7 L126.246 1002.17 Q127.265 1001.83 128.283 1001.66 Q129.302 1001.48 130.32 1001.48 Q136.107 1001.48 139.487 1004.65 Q142.867 1007.82 142.867 1013.24 Q142.867 1018.82 139.394 1021.92 Q135.922 1025 129.603 1025 Q127.427 1025 125.158 1024.63 Q122.913 1024.26 120.506 1023.51 L120.506 1018.82 Q122.589 1019.95 124.811 1020.51 Q127.033 1021.06 129.51 1021.06 Q133.515 1021.06 135.853 1018.95 Q138.191 1016.85 138.191 1013.24 Q138.191 1009.63 135.853 1007.52 Q133.515 1005.41 129.51 1005.41 Q127.635 1005.41 125.76 1005.83 Q123.908 1006.25 121.964 1007.13 L121.964 989.765 Z" fill="#000000" fill-rule="nonzero" fill-opacity="1" /><path clip-path="url(#clip220)" d="M91.5706 860.589 L99.2095 860.589 L99.2095 834.223 L90.8993 835.89 L90.8993 831.631 L99.1632 829.964 L103.839 829.964 L103.839 860.589 L111.478 860.589 L111.478 864.524 L91.5706 864.524 L91.5706 860.589 Z" fill="#000000" fill-rule="nonzero" fill-opacity="1" /><path clip-path="url(#clip220)" d="M130.922 833.043 Q127.311 833.043 125.482 836.608 Q123.677 840.149 123.677 847.279 Q123.677 854.385 125.482 857.95 Q127.311 861.492 130.922 861.492 Q134.556 861.492 136.362 857.95 Q138.191 854.385 138.191 847.279 Q138.191 840.149 136.362 836.608 Q134.556 833.043 130.922 833.043 M130.922 829.339 Q136.732 829.339 139.788 833.946 Q142.867 838.529 142.867 847.279 Q142.867 856.006 139.788 860.612 Q136.732 865.195 130.922 865.195 Q125.112 865.195 122.033 860.612 Q118.978 856.006 118.978 847.279 Q118.978 838.529 122.033 833.946 Q125.112 829.339 130.922 829.339 Z" fill="#000000" fill-rule="nonzero" fill-opacity="1" /><polyline clip-path="url(#clip223)" style="stroke:#009af9; stroke-linecap:round; stroke-linejoin:round; stroke-width:4; stroke-opacity:1; fill:none" points="240.392,1134.89 242.445,1189.57 244.498,1172.78 246.55,1162.48 248.603,1167.12 250.656,1152.61 252.709,1158.15 254.762,1164.36 256.815,1037.41 258.868,1236.93 260.921,1225.42 262.974,1161.88 265.027,1153.7 267.079,1254.58 269.132,1197.81 271.185,1173.48 273.238,1161.09 275.291,1141.25 277.344,1125.41 279.397,1044.66 281.45,1159.99 283.503,1183.52 285.555,1153.1 287.608,1140.59 289.661,1141.1 291.714,1150.95 293.767,1281.67 295.82,1241.02 297.873,1223.35 299.926,1422.88 301.979,1504.22 304.031,995.755 306.084,1288.6 308.137,1134.16 310.19,1158.78 312.243,1183.82 314.296,1154.2 316.349,1173.27 318.402,1170.27 320.455,1132.4 322.507,1177.2 324.56,757.753 326.613,1765.68 328.666,1078.48 330.719,1133.44 332.772,1125.73 334.825,1188.35 336.878,1191.5 338.931,1229.2 340.984,1186.79 343.036,1207.88 345.089,1143.53 347.142,1147.11 349.195,1064.15 351.248,863.213 353.301,1224.67 355.354,1132.05 357.407,1156.9 359.46,1181.99 361.512,1109.24 363.565,1272.47 365.618,1065.43 367.671,889.781 369.724,853.437 371.777,1231.64 373.83,1235.79 375.883,1117.96 377.936,1175.94 379.988,1035.7 382.041,1201.55 384.094,1166.13 386.147,1176.92 388.2,1120.58 390.253,1129.02 392.306,1091.53 394.359,1184.63 396.412,1133.17 398.464,1126.92 400.517,1206.06 402.57,1206.06 404.623,1152.84 406.676,1221.18 408.729,1176.63 410.782,1163.41 412.835,1176.08 414.888,1200.18 416.94,1127.34 418.993,1150.2 421.046,1152.69 423.099,1193.01 425.152,1170.22 427.205,1205.93 429.258,1257.34 431.311,1160.98 433.364,1162.67 435.417,1178.1 437.469,1155.96 439.522,1164.28 441.575,1073.47 443.628,1565 445.681,1368.59 447.734,459.75 449.787,898.404 451.84,1162.9 453.893,1185.26 455.945,1204.26 457.998,1169.52 460.051,1161.69 462.104,1156.96 464.157,1114.08 466.21,1213.11 468.263,1180.14 470.316,1134.58 472.369,1089.55 474.421,1178.66 476.474,1161.68 478.527,1174.39 480.58,1139.16 482.633,1115.91 484.686,1281.8 486.739,875.483 488.792,872.717 490.845,1120.26 492.897,1956.41 494.95,1118.9 497.003,926.239 499.056,1158.49 501.109,1175.39 503.162,1271.35 505.215,1136.92 507.268,1197.72 509.321,1241.84 511.374,1069.43 513.426,1227.91 515.479,1248.92 517.532,1197.05 519.585,1168.08 521.638,1145.51 523.691,1195.45 525.744,1145.14 527.797,1151.11 529.85,1181.37 531.902,1177.13 533.955,1199.03 536.008,1160.62 538.061,1164.78 540.114,1138.23 542.167,1159.55 544.22,1167.3 546.273,1164.4 548.326,1148.15 550.378,1142.46 552.431,1098.63 554.484,1199.04 556.537,1120.5 558.59,1130.38 560.643,1064.01 562.696,1122.35 564.749,1204.25 566.802,1107.99 568.854,1247.32 570.907,1189.9 572.96,1181.31 575.013,1166.09 577.066,1141.65 579.119,1168.39 581.172,1181.3 583.225,1140.93 585.278,1156.45 587.331,1157.09 589.383,1231.38 591.436,916.562 593.489,1456.21 595.542,1089.93 597.595,1031.26 599.648,1166.98 601.701,1200.67 603.754,1207.73 605.807,1158.2 607.859,1141.3 609.912,1149.59 611.965,1088.69 614.018,1118.66 616.071,1151.29 618.124,1161.98 620.177,1153.42 622.23,1205.69 624.283,1125.48 626.335,1201.93 628.388,1138.75 630.441,1209.79 632.494,1125.4 634.547,1127.23 636.6,1146.39 638.653,1137.03 640.706,1132.91 642.759,1148.01 644.811,1174.4 646.864,1181.15 648.917,1169.7 650.97,1198.59 653.023,1084.73 655.076,1127.25 657.129,1107.89 659.182,1076.34 661.235,1322.81 663.288,1110.62 665.34,1151.12 667.393,1230.37 669.446,1164.76 671.499,1164.8 673.552,1166.34 675.605,1184.55 677.658,1100.21 679.711,1128.88 681.764,1220.85 683.816,1203.66 685.869,1135.67 687.922,1183.86 689.975,1146.94 692.028,1179.7 694.081,1148.06 696.134,1215.42 698.187,1144.13 700.24,1190.58 702.292,1155.94 704.345,1148.26 706.398,1044.69 708.451,1236.4 710.504,518.611 712.557,871.679 714.61,1010.5 716.663,1242.75 718.716,1127.26 720.768,1127.04 722.821,1152.19 724.874,1190.12 726.927,1190.4 728.98,1117.06 731.033,1145.6 733.086,1172.5 735.139,1245.83 737.192,1171.92 739.245,1155.56 741.297,1149.4 743.35,1342.78 745.403,1417.13 747.456,1156.28 749.509,1158.95 751.562,1184.36 753.615,1140.23 755.668,1053.45 757.721,1124.21 759.773,1143 761.826,1181.1 763.879,1153.06 765.932,1135.62 767.985,1204.12 770.038,1235 772.091,1145.72 774.144,1147.55 776.197,1142.51 778.249,1145.73 780.302,1127.36 782.355,1184.44 784.408,1145.06 786.461,1212.44 788.514,1132.96 790.567,1147.16 792.62,1212.44 794.673,1043.38 796.725,1050.6 798.778,1318.58 800.831,1213.96 802.884,1214.13 804.937,1133.81 806.99,1155.7 809.043,1306.63 811.096,1098.3 813.149,1108.18 815.202,1277.66 817.254,1166.3 819.307,1166.72 821.36,1221.49 823.413,1088.9 825.466,1243.69 827.519,988.673 829.572,719.465 831.625,1140.57 833.678,1156.28 835.73,1186.6 837.783,1301.83 839.836,1579.35 841.889,1144.74 843.942,1102.42 845.995,1711.94 848.048,536.841 850.101,510.058 852.154,2304.82 854.206,1570.12 856.259,632.157 858.312,1223.86 860.365,1171.55 862.418,1816.77 864.471,-2416.2 866.524,4467.4 868.577,4159.91 870.63,-418.926 872.682,2810.07 874.735,368.347 876.788,1083.18 878.841,1082.73 880.894,-493.791 882.947,2653.79 885,1805.6 887.053,1141.99 889.106,1147.02 891.159,1180.43 893.211,1171.72 895.264,1179.6 897.317,1154.88 899.37,1181.97 901.423,1148.27 903.476,1168.13 905.529,1154.61 907.582,1165.37 909.635,1167.1 911.687,1139.76 913.74,1206.17 915.793,1188.37 917.846,1186.06 919.899,1156.33 921.952,1132.72 924.005,1103.69 926.058,1227.64 928.111,1224.98 930.163,1205.04 932.216,941.915 934.269,1132.29 936.322,1198.16 938.375,1147.47 940.428,1204.42 942.481,1112.68 944.534,1139.65 946.587,1132.04 948.639,1209.47 950.692,1194.22 952.745,1235.62 954.798,1112.4 956.851,1091.53 958.904,1143.82 960.957,1205.25 963.01,1181.16 965.063,1250.11 967.116,1118.93 969.168,1105.65 971.221,1182.46 973.274,1166.35 975.327,1164.64 977.38,1174.84 979.433,1165.6 981.486,1177.18 983.539,1166.23 985.592,1158.21 987.644,1198.27 989.697,1370.09 991.75,1195.95 993.803,1150.19 995.856,1551.3 997.909,912.173 999.962,2050.5 1002.01,-3022.93 1004.07,-3422.17 1006.12,2540.51 1008.17,4913.9 1010.23,5497.89 1012.28,12314.7 1014.33,16218.4 1016.38,10831.1 1018.44,2436.62 1020.49,938.616 1022.54,1042.7 1024.6,1325.11 1026.65,1415.33 1028.7,1190.84 1030.76,1174.28 1032.81,1201.67 1034.86,1144.9 1036.91,1152.03 1038.97,1179.35 1041.02,1171.93 1043.07,1107.38 1045.13,1186.49 1047.18,1189.35 1049.23,1070.11 1051.28,1118.22 1053.34,1093.18 1055.39,1104 1057.44,1176.45 1059.5,1104.11 1061.55,1156.07 1063.6,1099.61 1065.65,1103.29 1067.71,1115.55 1069.76,1197.88 1071.81,1140.11 1073.87,1122.2 1075.92,1126.88 1077.97,1158.11 1080.02,1182.73 1082.08,1192.36 1084.13,1181.47 1086.18,1212.68 1088.24,1200.55 1090.29,1194.83 1092.34,1203.48 1094.39,1106.09 1096.45,1146.08 1098.5,1160.5 1100.55,1188.66 1102.61,1150.73 1104.66,1186.46 1106.71,1171.4 1108.77,1151.53 1110.82,1174.84 1112.87,1192.86 1114.92,1177.7 1116.98,1051.86 1119.03,1251.56 1121.08,1181.3 1123.14,1143.76 1125.19,1192.23 1127.24,1171.52 1129.29,1173.56 1131.35,1198.16 1133.4,1143.43 1135.45,1179.79 1137.51,1158.83 1139.56,1153.41 1141.61,1163.01 1143.66,1181.5 1145.72,1389.38 1147.77,1119.29 1149.82,1188.06 1151.88,1142.18 1153.93,1086.28 1155.98,1204.42 1158.03,1138.81 1160.09,1200.87 1162.14,1132.85 1164.19,1151.72 1166.25,1120.35 1168.3,1214.85 1170.35,1416.95 1172.4,1457.05 1174.46,964.916 1176.51,1182.55 1178.56,1177.24 1180.62,1142.8 1182.67,1386.41 1184.72,1151.76 1186.77,1185.85 1188.83,1222.57 1190.88,1148.82 1192.93,1196.25 1194.99,1182.85 1197.04,1124.92 1199.09,1123.48 1201.15,1447.67 1203.2,1330.06 1205.25,1172.24 1207.3,1184.51 1209.36,1169.69 1211.41,1176.98 1213.46,1149.87 1215.52,1133.24 1217.57,1269.09 1219.62,1159.29 1221.67,1074.25 1223.73,1413.96 1225.78,1081.58 1227.83,1236.21 1229.89,1169.93 1231.94,1192.38 1233.99,1177.78 1236.04,1176.12 1238.1,1152.68 1240.15,1139.56 1242.2,1214.55 1244.26,1180.64 1246.31,1152.54 1248.36,1199.56 1250.41,1197.13 1252.47,1189.2 1254.52,1111.2 1256.57,1211.26 1258.63,1190.6 1260.68,1170.05 1262.73,1156.18 1264.78,1179.14 1266.84,1179.34 1268.89,1148.59 1270.94,1171.71 1273,1174.65 1275.05,1312.31 1277.1,1153.59 1279.16,1058.15 1281.21,1302.8 1283.26,1233.46 1285.31,1293.52 1287.37,1167.25 1289.42,1180.95 1291.47,1263.9 1293.53,1122.35 1295.58,1148.32 1297.63,1196.81 1299.68,1210.85 1301.74,1121.64 1303.79,1330.57 1305.84,1320.24 1307.9,1021.64 1309.95,1285.68 1312,1154.21 1314.05,1172.15 1316.11,1194.47 1318.16,1178.13 1320.21,1160.79 1322.27,1162.54 1324.32,1133.43 1326.37,1274.3 1328.42,1192.8 1330.48,972.596 1332.53,1205.54 1334.58,1201.87 1336.64,1144.86 1338.69,1152.66 1340.74,1197.74 1342.79,1087.36 1344.85,1146.42 1346.9,1110.49 1348.95,1196.86 1351.01,1182.07 1353.06,1085.87 1355.11,1195.06 1357.16,1210.39 1359.22,990.201 1361.27,1397.72 1363.32,1078.37 1365.38,1173.83 1367.43,1228.65 1369.48,1207.01 1371.54,1099.9 1373.59,1045.19 1375.64,1116.03 1377.69,1137.49 1379.75,1160.83 1381.8,1170.01 1383.85,1155.4 1385.91,1149.02 1387.96,1192.05 1390.01,1191.05 1392.06,1207.76 1394.12,1258.47 1396.17,1289.28 1398.22,1069.48 1400.28,1154.14 1402.33,1171 1404.38,1136.98 1406.43,1225.76 1408.49,1078.58 1410.54,1102.35 1412.59,1307.41 1414.65,951.404 1416.7,996.552 1418.75,1332.62 1420.8,1205.52 1422.86,1130.28 1424.91,1180.78 1426.96,1138.04 1429.02,1118.53 1431.07,1231 1433.12,1185.92 1435.17,1103.39 1437.23,1260.57 1439.28,962.652 1441.33,1147.88 1443.39,1227.12 1445.44,1133.78 1447.49,1190.76 1449.55,1163.86 1451.6,1088.89 1453.65,1256.42 1455.7,625.3 1457.76,1597.91 1459.81,1279.65 1461.86,1087.35 1463.92,1105.31 1465.97,918.098 1468.02,1192.33 1470.07,1341.41 1472.13,1375.85 1474.18,1285.59 1476.23,1141.82 1478.29,1135.61 1480.34,1200.58 1482.39,1155.39 1484.44,1177.79 1486.5,1135.83 1488.55,1164.67 1490.6,1185.12 1492.66,1187.35 1494.71,1188.97 1496.76,1211.47 1498.81,1151.95 1500.87,1158.75 1502.92,1172.9 1504.97,1164.16 1507.03,1206.04 1509.08,1175.94 1511.13,1186.88 1513.18,1108.25 1515.24,1120.67 1517.29,1066.67 1519.34,1187.96 1521.4,1116.41 1523.45,1193.88 1525.5,1202.76 1527.55,1149.1 1529.61,1138.32 1531.66,1149.92 1533.71,1167.2 1535.77,1163.36 1537.82,1173.31 1539.87,1180.1 1541.93,1197.48 1543.98,1171.79 1546.03,1159.31 1548.08,1158.02 1550.14,1132.45 1552.19,1177.27 1554.24,1039.54 1556.3,1125.09 1558.35,1216.07 1560.4,1182.24 1562.45,1161.89 1564.51,1190.92 1566.56,1136.64 1568.61,1135.13 1570.67,1191.85 1572.72,1198.69 1574.77,1189.21 1576.82,1165.25 1578.88,1169.51 1580.93,1201.58 1582.98,1162.96 1585.04,1228.32 1587.09,1153.48 1589.14,1176.55 1591.19,1161.58 1593.25,1172.84 1595.3,1140.6 1597.35,1186.88 1599.41,1216.57 1601.46,1267.02 1603.51,1211.73 1605.56,1249.75 1607.62,1027.05 1609.67,1157.36 1611.72,1132.04 1613.78,1168.27 1615.83,1172.98 1617.88,1167.04 1619.94,1230.49 1621.99,1037.9 1624.04,1226.25 1626.09,1236.06 1628.15,1226.81 1630.2,1327.58 1632.25,1103.64 1634.31,1242.62 1636.36,1134.75 1638.41,1136.63 1640.46,1181.74 1642.52,1247.37 1644.57,1209 1646.62,1190.19 1648.68,1203.25 1650.73,1157.12 1652.78,1155.35 1654.83,1184.07 1656.89,1119.89 1658.94,1285.73 1660.99,1191.74 1663.05,1167.93 1665.1,1147.83 1667.15,1167.09 1669.2,1163.12 1671.26,1151.75 1673.31,1157.74 1675.36,1033.75 1677.42,1084.9 1679.47,1123.67 1681.52,1224.57 1683.57,1184.83 1685.63,1195.93 1687.68,1430.02 1689.73,921.206 1691.79,1335.26 1693.84,1066.46 1695.89,1140.6 1697.94,1320.07 1700,875.338 1702.05,978.518 1704.1,1189.88 1706.16,1136.9 1708.21,1168.38 1710.26,1155.3 1712.32,1158.78 1714.37,1227.94 1716.42,1109.66 1718.47,1165.98 1720.53,1036.66 1722.58,734.613 1724.63,1197.46 1726.69,1197.84 1728.74,1174.25 1730.79,1183.54 1732.84,1185.91 1734.9,1103.13 1736.95,1138.5 1739,1862.39 1741.06,1190.77 1743.11,1200.82 1745.16,1224.17 1747.21,1211.05 1749.27,1221.17 1751.32,1186.19 1753.37,1239.51 1755.43,1119.69 1757.48,1164.81 1759.53,1160.37 1761.58,1172.16 1763.64,1152.58 1765.69,1174.34 1767.74,1096.84 1769.8,1067.18 1771.85,1226.27 1773.9,1099.28 1775.95,1145.76 1778.01,1239.06 1780.06,1370.62 1782.11,1376.6 1784.17,1011.67 1786.22,1168.82 1788.27,1144.9 1790.33,1140.21 1792.38,1197.78 1794.43,1138.13 1796.48,1151.52 1798.54,1207.24 1800.59,1110.2 1802.64,1010.58 1804.7,1177.88 1806.75,1141.07 1808.8,1125.96 1810.85,1467.42 1812.91,1443.2 1814.96,1359.88 1817.01,1177.5 1819.07,1134.38 1821.12,1214.22 1823.17,1201.28 1825.22,1248.1 1827.28,1332.42 1829.33,1021.9 1831.38,1222.93 1833.44,1064.65 1835.49,1168.12 1837.54,1217.61 1839.59,1052.27 1841.65,1287.79 1843.7,1198.37 1845.75,1284.89 1847.81,1438.29 1849.86,706.557 1851.91,1365.34 1853.96,-1258.36 1856.02,-2139.76 1858.07,118.227 1860.12,607.505 1862.18,2125.57 1864.23,707.026 1866.28,781.511 1868.34,1592.63 1870.39,455.904 1872.44,1942.93 1874.49,-378.562 1876.55,996.437 1878.6,1189.1 1880.65,1087.16 1882.71,1085.11 1884.76,1177.24 1886.81,1144.76 1888.86,1145.54 1890.92,1155.83 1892.97,1193.01 1895.02,1148.55 1897.08,1238.14 1899.13,1105.8 1901.18,1111.34 1903.23,1124.8 1905.29,1190.15 1907.34,1165.33 1909.39,1186.98 1911.45,1175.38 1913.5,1178.93 1915.55,1147.78 1917.6,1184.44 1919.66,1181.92 1921.71,1189.52 1923.76,1144.29 1925.82,1162.6 1927.87,1167.02 1929.92,1182.01 1931.97,1172.27 1934.03,1272.25 1936.08,1234.44 1938.13,1204.33 1940.19,1198.86 1942.24,1142.68 1944.29,1192.84 1946.34,1128.72 1948.4,1123.12 1950.45,1139.07 1952.5,1140.6 1954.56,1199.72 1956.61,1128.44 1958.66,1171.81 1960.72,1276.19 1962.77,1497.1 1964.82,1639.1 1966.87,952.961 1968.93,1157.94 1970.98,1396.48 1973.03,1151.46 1975.09,1118.58 1977.14,1171.4 1979.19,1138.8 1981.24,1173.48 1983.3,1188.69 1985.35,1165.2 1987.4,1192.24 1989.46,1206.27 1991.51,1168.92 1993.56,1150.16 1995.61,1199.51 1997.67,1128.27 1999.72,1156.25 2001.77,1167.32 2003.83,1164.96 2005.88,1043.73 2007.93,1386.31 2009.98,1232.73 2012.04,1128.75 2014.09,1054.28 2016.14,1149.02 2018.2,1198.21 2020.25,1124.57 2022.3,1098.02 2024.35,1221.14 2026.41,1123.2 2028.46,1192.26 2030.51,1128.55 2032.57,1177.69 2034.62,1176.63 2036.67,1131.17 2038.73,1205.63 2040.78,1132.25 2042.83,1135.78 2044.88,1107.41 2046.94,987.675 2048.99,1171.2 2051.04,1190.47 2053.1,1171.25 2055.15,1196.89 2057.2,1178.59 2059.25,1180.63 2061.31,1161.06 2063.36,1164.05 2065.41,1212.35 2067.47,1176.88 2069.52,1209.75 2071.57,1125.62 2073.62,1182.14 2075.68,1196.4 2077.73,1213.29 2079.78,1269.97 2081.84,1198.43 2083.89,1125.84 2085.94,1157.36 2087.99,1190.48 2090.05,1139.02 2092.1,1189.18 2094.15,1133.82 2096.21,1154.31 2098.26,1163.58 2100.31,1148.64 2102.36,1090.94 2104.42,1139.81 2106.47,1155.12 2108.52,1209.59 2110.58,1179.1 2112.63,1160.88 2114.68,1205.98 2116.73,1137.71 2118.79,1123.04 2120.84,1129.96 2122.89,1168.18 2124.95,1195.94 2127,728.028 2129.05,1474.98 2131.11,1121.97 2133.16,1184.47 2135.21,1155.58 2137.26,1151.08 2139.32,1117.42 2141.37,1170.02 2143.42,1149.72 2145.48,427.728 2147.53,1505.87 2149.58,-912.147 2151.63,-404.575 2153.69,615.471 2155.74,659.136 2157.79,2596.18 2159.85,1059.05 2161.9,1491.38 2163.95,1184.98 2166,1201.74 2168.06,1246.17 2170.11,1024.1 2172.16,975.257 2174.22,1290.27 2176.27,1303.17 2178.32,1236.4 2180.37,1150.3 2182.43,1243.34 2184.48,1067.16 2186.53,1158.39 2188.59,1162.4 2190.64,1191 2192.69,1231.88 2194.74,1175.02 2196.8,1136.22 2198.85,1229.13 2200.9,1285.81 2202.96,1382.61 2205.01,952.674 2207.06,1099.11 2209.12,1289.27 2211.17,1054.45 2213.22,1096.16 2215.27,1097 2217.33,1134.87 2219.38,1156.75 2221.43,1156.53 2223.49,1132.12 2225.54,1185.86 2227.59,1147.17 2229.64,1232.95 2231.7,1173.79 2233.75,1137.53 2235.8,1064.73 2237.86,1148.17 2239.91,1073.95 2241.96,983.298 2244.01,1373.73 2246.07,1027.6 2248.12,1215.67 2250.17,1198.75 2252.23,1235.77 2254.28,1108.99 2256.33,1096.22 2258.38,1115.42 2260.44,1131.37 2262.49,1142.99 2264.54,1194.03 2266.6,1174.96 2268.65,1139.93 2270.7,1141.2 2272.75,1043.03 2274.81,1142.78 2276.86,1190.28 2278.91,1184.13 2280.97,1191.27 2283.02,1179.17 2285.07,1167.06 2287.12,1166.5 2289.18,1123.73 2291.23,1219.27 "/>
<path clip-path="url(#clip220)" d="M251.33 1465.14 L588.926 1465.14 L588.926 1361.46 L251.33 1361.46  Z" fill="#ffffff" fill-rule="evenodd" fill-opacity="1"/>
<polyline clip-path="url(#clip220)" style="stroke:#000000; stroke-linecap:round; stroke-linejoin:round; stroke-width:4; stroke-opacity:1; fill:none" points="251.33,1465.14 588.926,1465.14 588.926,1361.46 251.33,1361.46 251.33,1465.14 "/>
<polyline clip-path="url(#clip220)" style="stroke:#009af9; stroke-linecap:round; stroke-linejoin:round; stroke-width:4; stroke-opacity:1; fill:none" points="275.484,1413.3 420.41,1413.3 "/>
<path clip-path="url(#clip220)" d="M470.12 1425.65 L470.12 1416.37 L462.481 1416.37 L462.481 1412.53 L474.749 1412.53 L474.749 1427.36 Q472.041 1429.28 468.777 1430.28 Q465.513 1431.25 461.809 1431.25 Q453.708 1431.25 449.124 1426.53 Q444.564 1421.78 444.564 1413.34 Q444.564 1404.86 449.124 1400.14 Q453.708 1395.4 461.809 1395.4 Q465.189 1395.4 468.221 1396.23 Q471.277 1397.06 473.846 1398.68 L473.846 1403.66 Q471.254 1401.46 468.337 1400.35 Q465.421 1399.24 462.203 1399.24 Q455.86 1399.24 452.666 1402.78 Q449.495 1406.32 449.495 1413.34 Q449.495 1420.33 452.666 1423.87 Q455.86 1427.41 462.203 1427.41 Q464.68 1427.41 466.624 1426.99 Q468.569 1426.55 470.12 1425.65 Z" fill="#000000" fill-rule="nonzero" fill-opacity="1" /><path clip-path="url(#clip220)" d="M487.967 1399.86 L487.967 1412.85 L493.846 1412.85 Q497.11 1412.85 498.893 1411.16 Q500.675 1409.47 500.675 1406.35 Q500.675 1403.24 498.893 1401.55 Q497.11 1399.86 493.846 1399.86 L487.967 1399.86 M483.291 1396.02 L493.846 1396.02 Q499.657 1396.02 502.619 1398.66 Q505.606 1401.28 505.606 1406.35 Q505.606 1411.46 502.619 1414.08 Q499.657 1416.69 493.846 1416.69 L487.967 1416.69 L487.967 1430.58 L483.291 1430.58 L483.291 1396.02 Z" fill="#000000" fill-rule="nonzero" fill-opacity="1" /><path clip-path="url(#clip220)" d="M532.596 1397.16 L532.596 1401.72 Q529.934 1400.44 527.573 1399.82 Q525.212 1399.19 523.013 1399.19 Q519.193 1399.19 517.11 1400.67 Q515.05 1402.16 515.05 1404.89 Q515.05 1407.18 516.416 1408.36 Q517.805 1409.52 521.647 1410.23 L524.471 1410.81 Q529.703 1411.81 532.179 1414.33 Q534.679 1416.83 534.679 1421.04 Q534.679 1426.07 531.3 1428.66 Q527.943 1431.25 521.439 1431.25 Q518.985 1431.25 516.207 1430.7 Q513.453 1430.14 510.49 1429.05 L510.49 1424.24 Q513.337 1425.84 516.068 1426.65 Q518.8 1427.46 521.439 1427.46 Q525.443 1427.46 527.619 1425.88 Q529.795 1424.31 529.795 1421.39 Q529.795 1418.85 528.221 1417.41 Q526.67 1415.97 523.105 1415.26 L520.258 1414.7 Q515.027 1413.66 512.689 1411.44 Q510.351 1409.22 510.351 1405.26 Q510.351 1400.67 513.568 1398.03 Q516.809 1395.4 522.48 1395.4 Q524.911 1395.4 527.434 1395.84 Q529.957 1396.28 532.596 1397.16 Z" fill="#000000" fill-rule="nonzero" fill-opacity="1" /><path clip-path="url(#clip220)" d="M562.689 1397.16 L562.689 1401.72 Q560.027 1400.44 557.665 1399.82 Q555.304 1399.19 553.105 1399.19 Q549.286 1399.19 547.203 1400.67 Q545.142 1402.16 545.142 1404.89 Q545.142 1407.18 546.508 1408.36 Q547.897 1409.52 551.74 1410.23 L554.564 1410.81 Q559.795 1411.81 562.272 1414.33 Q564.772 1416.83 564.772 1421.04 Q564.772 1426.07 561.392 1428.66 Q558.036 1431.25 551.531 1431.25 Q549.078 1431.25 546.3 1430.7 Q543.545 1430.14 540.582 1429.05 L540.582 1424.24 Q543.429 1425.84 546.161 1426.65 Q548.892 1427.46 551.531 1427.46 Q555.536 1427.46 557.712 1425.88 Q559.888 1424.31 559.888 1421.39 Q559.888 1418.85 558.314 1417.41 Q556.763 1415.97 553.198 1415.26 L550.351 1414.7 Q545.119 1413.66 542.781 1411.44 Q540.443 1409.22 540.443 1405.26 Q540.443 1400.67 543.661 1398.03 Q546.902 1395.4 552.573 1395.4 Q555.003 1395.4 557.527 1395.84 Q560.05 1396.28 562.689 1397.16 Z" fill="#000000" fill-rule="nonzero" fill-opacity="1" /></svg>
