<?xml version="1.0" encoding="utf-8"?>
<svg xmlns="http://www.w3.org/2000/svg" xmlns:xlink="http://www.w3.org/1999/xlink" width="600" height="400" viewBox="0 0 2400 1600">
<defs>
  <clipPath id="clip950">
    <rect x="0" y="0" width="2400" height="1600"/>
  </clipPath>
</defs>
<path clip-path="url(#clip950)" d="M0 1600 L2400 1600 L2400 0 L0 0  Z" fill="#ffffff" fill-rule="evenodd" fill-opacity="1"/>
<defs>
  <clipPath id="clip951">
    <rect x="242" y="47" width="2112" height="1377"/>
  </clipPath>
</defs>
<path clip-path="url(#clip950)" d="M178.867 686.448 L2352.76 686.448 L2352.76 47.2441 L178.867 47.2441  Z" fill="#ffffff" fill-rule="evenodd" fill-opacity="1"/>
<defs>
  <clipPath id="clip952">
    <rect x="178" y="47" width="2175" height="640"/>
  </clipPath>
</defs>
<polyline clip-path="url(#clip952)" style="stroke:#000000; stroke-linecap:round; stroke-linejoin:round; stroke-width:2; stroke-opacity:0.1; fill:none" points="238.339,686.448 238.339,47.2441 "/>
<polyline clip-path="url(#clip952)" style="stroke:#000000; stroke-linecap:round; stroke-linejoin:round; stroke-width:2; stroke-opacity:0.1; fill:none" points="751.562,686.448 751.562,47.2441 "/>
<polyline clip-path="url(#clip952)" style="stroke:#000000; stroke-linecap:round; stroke-linejoin:round; stroke-width:2; stroke-opacity:0.1; fill:none" points="1264.78,686.448 1264.78,47.2441 "/>
<polyline clip-path="url(#clip952)" style="stroke:#000000; stroke-linecap:round; stroke-linejoin:round; stroke-width:2; stroke-opacity:0.1; fill:none" points="1778.01,686.448 1778.01,47.2441 "/>
<polyline clip-path="url(#clip952)" style="stroke:#000000; stroke-linecap:round; stroke-linejoin:round; stroke-width:2; stroke-opacity:0.1; fill:none" points="2291.23,686.448 2291.23,47.2441 "/>
<polyline clip-path="url(#clip952)" style="stroke:#000000; stroke-linecap:round; stroke-linejoin:round; stroke-width:2; stroke-opacity:0.1; fill:none" points="178.867,686.448 2352.76,686.448 "/>
<polyline clip-path="url(#clip952)" style="stroke:#000000; stroke-linecap:round; stroke-linejoin:round; stroke-width:2; stroke-opacity:0.1; fill:none" points="178.867,526.647 2352.76,526.647 "/>
<polyline clip-path="url(#clip952)" style="stroke:#000000; stroke-linecap:round; stroke-linejoin:round; stroke-width:2; stroke-opacity:0.1; fill:none" points="178.867,366.846 2352.76,366.846 "/>
<polyline clip-path="url(#clip952)" style="stroke:#000000; stroke-linecap:round; stroke-linejoin:round; stroke-width:2; stroke-opacity:0.1; fill:none" points="178.867,207.045 2352.76,207.045 "/>
<polyline clip-path="url(#clip952)" style="stroke:#000000; stroke-linecap:round; stroke-linejoin:round; stroke-width:2; stroke-opacity:0.1; fill:none" points="178.867,47.2441 2352.76,47.2441 "/>
<polyline clip-path="url(#clip950)" style="stroke:#000000; stroke-linecap:round; stroke-linejoin:round; stroke-width:4; stroke-opacity:1; fill:none" points="178.867,686.448 2352.76,686.448 "/>
<polyline clip-path="url(#clip950)" style="stroke:#000000; stroke-linecap:round; stroke-linejoin:round; stroke-width:4; stroke-opacity:1; fill:none" points="238.339,686.448 238.339,667.55 "/>
<polyline clip-path="url(#clip950)" style="stroke:#000000; stroke-linecap:round; stroke-linejoin:round; stroke-width:4; stroke-opacity:1; fill:none" points="751.562,686.448 751.562,667.55 "/>
<polyline clip-path="url(#clip950)" style="stroke:#000000; stroke-linecap:round; stroke-linejoin:round; stroke-width:4; stroke-opacity:1; fill:none" points="1264.78,686.448 1264.78,667.55 "/>
<polyline clip-path="url(#clip950)" style="stroke:#000000; stroke-linecap:round; stroke-linejoin:round; stroke-width:4; stroke-opacity:1; fill:none" points="1778.01,686.448 1778.01,667.55 "/>
<polyline clip-path="url(#clip950)" style="stroke:#000000; stroke-linecap:round; stroke-linejoin:round; stroke-width:4; stroke-opacity:1; fill:none" points="2291.23,686.448 2291.23,667.55 "/>
<path clip-path="url(#clip950)" d="M238.339 717.367 Q234.728 717.367 232.899 720.931 Q231.094 724.473 231.094 731.603 Q231.094 738.709 232.899 742.274 Q234.728 745.815 238.339 745.815 Q241.973 745.815 243.779 742.274 Q245.607 738.709 245.607 731.603 Q245.607 724.473 243.779 720.931 Q241.973 717.367 238.339 717.367 M238.339 713.663 Q244.149 713.663 247.205 718.269 Q250.283 722.853 250.283 731.603 Q250.283 740.329 247.205 744.936 Q244.149 749.519 238.339 749.519 Q232.529 749.519 229.45 744.936 Q226.395 740.329 226.395 731.603 Q226.395 722.853 229.45 718.269 Q232.529 713.663 238.339 713.663 Z" fill="#000000" fill-rule="nonzero" fill-opacity="1" /><path clip-path="url(#clip950)" d="M715.254 744.913 L731.574 744.913 L731.574 748.848 L709.629 748.848 L709.629 744.913 Q712.291 742.158 716.875 737.528 Q721.481 732.876 722.662 731.533 Q724.907 729.01 725.787 727.274 Q726.689 725.515 726.689 723.825 Q726.689 721.07 724.745 719.334 Q722.824 717.598 719.722 717.598 Q717.523 717.598 715.069 718.362 Q712.638 719.126 709.861 720.677 L709.861 715.955 Q712.685 714.82 715.138 714.242 Q717.592 713.663 719.629 713.663 Q725 713.663 728.194 716.348 Q731.388 719.033 731.388 723.524 Q731.388 725.654 730.578 727.575 Q729.791 729.473 727.685 732.066 Q727.106 732.737 724.004 735.954 Q720.902 739.149 715.254 744.913 Z" fill="#000000" fill-rule="nonzero" fill-opacity="1" /><path clip-path="url(#clip950)" d="M741.435 714.288 L759.791 714.288 L759.791 718.223 L745.717 718.223 L745.717 726.695 Q746.736 726.348 747.754 726.186 Q748.773 726.001 749.791 726.001 Q755.578 726.001 758.958 729.172 Q762.337 732.343 762.337 737.76 Q762.337 743.339 758.865 746.44 Q755.393 749.519 749.073 749.519 Q746.898 749.519 744.629 749.149 Q742.384 748.778 739.976 748.038 L739.976 743.339 Q742.06 744.473 744.282 745.028 Q746.504 745.584 748.981 745.584 Q752.985 745.584 755.323 743.478 Q757.661 741.371 757.661 737.76 Q757.661 734.149 755.323 732.042 Q752.985 729.936 748.981 729.936 Q747.106 729.936 745.231 730.353 Q743.379 730.769 741.435 731.649 L741.435 714.288 Z" fill="#000000" fill-rule="nonzero" fill-opacity="1" /><path clip-path="url(#clip950)" d="M781.55 717.367 Q777.939 717.367 776.11 720.931 Q774.305 724.473 774.305 731.603 Q774.305 738.709 776.11 742.274 Q777.939 745.815 781.55 745.815 Q785.184 745.815 786.99 742.274 Q788.819 738.709 788.819 731.603 Q788.819 724.473 786.99 720.931 Q785.184 717.367 781.55 717.367 M781.55 713.663 Q787.36 713.663 790.416 718.269 Q793.495 722.853 793.495 731.603 Q793.495 740.329 790.416 744.936 Q787.36 749.519 781.55 749.519 Q775.74 749.519 772.661 744.936 Q769.606 740.329 769.606 731.603 Q769.606 722.853 772.661 718.269 Q775.74 713.663 781.55 713.663 Z" fill="#000000" fill-rule="nonzero" fill-opacity="1" /><path clip-path="url(#clip950)" d="M1224.4 714.288 L1242.76 714.288 L1242.76 718.223 L1228.69 718.223 L1228.69 726.695 Q1229.7 726.348 1230.72 726.186 Q1231.74 726.001 1232.76 726.001 Q1238.55 726.001 1241.93 729.172 Q1245.31 732.343 1245.31 737.76 Q1245.31 743.339 1241.83 746.44 Q1238.36 749.519 1232.04 749.519 Q1229.87 749.519 1227.6 749.149 Q1225.35 748.778 1222.94 748.038 L1222.94 743.339 Q1225.03 744.473 1227.25 745.028 Q1229.47 745.584 1231.95 745.584 Q1235.95 745.584 1238.29 743.478 Q1240.63 741.371 1240.63 737.76 Q1240.63 734.149 1238.29 732.042 Q1235.95 729.936 1231.95 729.936 Q1230.07 729.936 1228.2 730.353 Q1226.35 730.769 1224.4 731.649 L1224.4 714.288 Z" fill="#000000" fill-rule="nonzero" fill-opacity="1" /><path clip-path="url(#clip950)" d="M1264.52 717.367 Q1260.91 717.367 1259.08 720.931 Q1257.27 724.473 1257.27 731.603 Q1257.27 738.709 1259.08 742.274 Q1260.91 745.815 1264.52 745.815 Q1268.15 745.815 1269.96 742.274 Q1271.79 738.709 1271.79 731.603 Q1271.79 724.473 1269.96 720.931 Q1268.15 717.367 1264.52 717.367 M1264.52 713.663 Q1270.33 713.663 1273.38 718.269 Q1276.46 722.853 1276.46 731.603 Q1276.46 740.329 1273.38 744.936 Q1270.33 749.519 1264.52 749.519 Q1258.71 749.519 1255.63 744.936 Q1252.57 740.329 1252.57 731.603 Q1252.57 722.853 1255.63 718.269 Q1258.71 713.663 1264.52 713.663 Z" fill="#000000" fill-rule="nonzero" fill-opacity="1" /><path clip-path="url(#clip950)" d="M1294.68 717.367 Q1291.07 717.367 1289.24 720.931 Q1287.44 724.473 1287.44 731.603 Q1287.44 738.709 1289.24 742.274 Q1291.07 745.815 1294.68 745.815 Q1298.31 745.815 1300.12 742.274 Q1301.95 738.709 1301.95 731.603 Q1301.95 724.473 1300.12 720.931 Q1298.31 717.367 1294.68 717.367 M1294.68 713.663 Q1300.49 713.663 1303.55 718.269 Q1306.62 722.853 1306.62 731.603 Q1306.62 740.329 1303.55 744.936 Q1300.49 749.519 1294.68 749.519 Q1288.87 749.519 1285.79 744.936 Q1282.74 740.329 1282.74 731.603 Q1282.74 722.853 1285.79 718.269 Q1288.87 713.663 1294.68 713.663 Z" fill="#000000" fill-rule="nonzero" fill-opacity="1" /><path clip-path="url(#clip950)" d="M1736.28 714.288 L1758.51 714.288 L1758.51 716.279 L1745.96 748.848 L1741.08 748.848 L1752.88 718.223 L1736.28 718.223 L1736.28 714.288 Z" fill="#000000" fill-rule="nonzero" fill-opacity="1" /><path clip-path="url(#clip950)" d="M1767.67 714.288 L1786.03 714.288 L1786.03 718.223 L1771.95 718.223 L1771.95 726.695 Q1772.97 726.348 1773.99 726.186 Q1775.01 726.001 1776.03 726.001 Q1781.82 726.001 1785.2 729.172 Q1788.57 732.343 1788.57 737.76 Q1788.57 743.339 1785.1 746.44 Q1781.63 749.519 1775.31 749.519 Q1773.14 749.519 1770.87 749.149 Q1768.62 748.778 1766.21 748.038 L1766.21 743.339 Q1768.3 744.473 1770.52 745.028 Q1772.74 745.584 1775.22 745.584 Q1779.22 745.584 1781.56 743.478 Q1783.9 741.371 1783.9 737.76 Q1783.9 734.149 1781.56 732.042 Q1779.22 729.936 1775.22 729.936 Q1773.34 729.936 1771.47 730.353 Q1769.62 730.769 1767.67 731.649 L1767.67 714.288 Z" fill="#000000" fill-rule="nonzero" fill-opacity="1" /><path clip-path="url(#clip950)" d="M1807.79 717.367 Q1804.18 717.367 1802.35 720.931 Q1800.54 724.473 1800.54 731.603 Q1800.54 738.709 1802.35 742.274 Q1804.18 745.815 1807.79 745.815 Q1811.42 745.815 1813.23 742.274 Q1815.06 738.709 1815.06 731.603 Q1815.06 724.473 1813.23 720.931 Q1811.42 717.367 1807.79 717.367 M1807.79 713.663 Q1813.6 713.663 1816.65 718.269 Q1819.73 722.853 1819.73 731.603 Q1819.73 740.329 1816.65 744.936 Q1813.6 749.519 1807.79 749.519 Q1801.98 749.519 1798.9 744.936 Q1795.84 740.329 1795.84 731.603 Q1795.84 722.853 1798.9 718.269 Q1801.98 713.663 1807.79 713.663 Z" fill="#000000" fill-rule="nonzero" fill-opacity="1" /><path clip-path="url(#clip950)" d="M2235.76 744.913 L2243.4 744.913 L2243.4 718.547 L2235.09 720.214 L2235.09 715.955 L2243.35 714.288 L2248.02 714.288 L2248.02 744.913 L2255.66 744.913 L2255.66 748.848 L2235.76 748.848 L2235.76 744.913 Z" fill="#000000" fill-rule="nonzero" fill-opacity="1" /><path clip-path="url(#clip950)" d="M2275.11 717.367 Q2271.5 717.367 2269.67 720.931 Q2267.86 724.473 2267.86 731.603 Q2267.86 738.709 2269.67 742.274 Q2271.5 745.815 2275.11 745.815 Q2278.74 745.815 2280.55 742.274 Q2282.38 738.709 2282.38 731.603 Q2282.38 724.473 2280.55 720.931 Q2278.74 717.367 2275.11 717.367 M2275.11 713.663 Q2280.92 713.663 2283.97 718.269 Q2287.05 722.853 2287.05 731.603 Q2287.05 740.329 2283.97 744.936 Q2280.92 749.519 2275.11 749.519 Q2269.3 749.519 2266.22 744.936 Q2263.16 740.329 2263.16 731.603 Q2263.16 722.853 2266.22 718.269 Q2269.3 713.663 2275.11 713.663 Z" fill="#000000" fill-rule="nonzero" fill-opacity="1" /><path clip-path="url(#clip950)" d="M2305.27 717.367 Q2301.66 717.367 2299.83 720.931 Q2298.02 724.473 2298.02 731.603 Q2298.02 738.709 2299.83 742.274 Q2301.66 745.815 2305.27 745.815 Q2308.9 745.815 2310.71 742.274 Q2312.54 738.709 2312.54 731.603 Q2312.54 724.473 2310.71 720.931 Q2308.9 717.367 2305.27 717.367 M2305.27 713.663 Q2311.08 713.663 2314.14 718.269 Q2317.21 722.853 2317.21 731.603 Q2317.21 740.329 2314.14 744.936 Q2311.08 749.519 2305.27 749.519 Q2299.46 749.519 2296.38 744.936 Q2293.33 740.329 2293.33 731.603 Q2293.33 722.853 2296.38 718.269 Q2299.46 713.663 2305.27 713.663 Z" fill="#000000" fill-rule="nonzero" fill-opacity="1" /><path clip-path="url(#clip950)" d="M2335.43 717.367 Q2331.82 717.367 2329.99 720.931 Q2328.19 724.473 2328.19 731.603 Q2328.19 738.709 2329.99 742.274 Q2331.82 745.815 2335.43 745.815 Q2339.07 745.815 2340.87 742.274 Q2342.7 738.709 2342.7 731.603 Q2342.7 724.473 2340.87 720.931 Q2339.07 717.367 2335.43 717.367 M2335.43 713.663 Q2341.24 713.663 2344.3 718.269 Q2347.38 722.853 2347.38 731.603 Q2347.38 740.329 2344.3 744.936 Q2341.24 749.519 2335.43 749.519 Q2329.62 749.519 2326.54 744.936 Q2323.49 740.329 2323.49 731.603 Q2323.49 722.853 2326.54 718.269 Q2329.62 713.663 2335.43 713.663 Z" fill="#000000" fill-rule="nonzero" fill-opacity="1" /><polyline clip-path="url(#clip950)" style="stroke:#000000; stroke-linecap:round; stroke-linejoin:round; stroke-width:4; stroke-opacity:1; fill:none" points="178.867,686.448 178.867,47.2441 "/>
<polyline clip-path="url(#clip950)" style="stroke:#000000; stroke-linecap:round; stroke-linejoin:round; stroke-width:4; stroke-opacity:1; fill:none" points="178.867,686.448 197.764,686.448 "/>
<polyline clip-path="url(#clip950)" style="stroke:#000000; stroke-linecap:round; stroke-linejoin:round; stroke-width:4; stroke-opacity:1; fill:none" points="178.867,526.647 197.764,526.647 "/>
<polyline clip-path="url(#clip950)" style="stroke:#000000; stroke-linecap:round; stroke-linejoin:round; stroke-width:4; stroke-opacity:1; fill:none" points="178.867,366.846 197.764,366.846 "/>
<polyline clip-path="url(#clip950)" style="stroke:#000000; stroke-linecap:round; stroke-linejoin:round; stroke-width:4; stroke-opacity:1; fill:none" points="178.867,207.045 197.764,207.045 "/>
<polyline clip-path="url(#clip950)" style="stroke:#000000; stroke-linecap:round; stroke-linejoin:round; stroke-width:4; stroke-opacity:1; fill:none" points="178.867,47.2441 197.764,47.2441 "/>
<path clip-path="url(#clip950)" d="M50.9921 686.899 L80.6679 686.899 L80.6679 690.834 L50.9921 690.834 L50.9921 686.899 Z" fill="#000000" fill-rule="nonzero" fill-opacity="1" /><path clip-path="url(#clip950)" d="M91.5706 699.793 L99.2095 699.793 L99.2095 673.427 L90.8993 675.094 L90.8993 670.835 L99.1632 669.168 L103.839 669.168 L103.839 699.793 L111.478 699.793 L111.478 703.728 L91.5706 703.728 L91.5706 699.793 Z" fill="#000000" fill-rule="nonzero" fill-opacity="1" /><path clip-path="url(#clip950)" d="M130.922 672.247 Q127.311 672.247 125.482 675.811 Q123.677 679.353 123.677 686.483 Q123.677 693.589 125.482 697.154 Q127.311 700.695 130.922 700.695 Q134.556 700.695 136.362 697.154 Q138.191 693.589 138.191 686.483 Q138.191 679.353 136.362 675.811 Q134.556 672.247 130.922 672.247 M130.922 668.543 Q136.732 668.543 139.788 673.149 Q142.867 677.733 142.867 686.483 Q142.867 695.209 139.788 699.816 Q136.732 704.399 130.922 704.399 Q125.112 704.399 122.033 699.816 Q118.978 695.209 118.978 686.483 Q118.978 677.733 122.033 673.149 Q125.112 668.543 130.922 668.543 Z" fill="#000000" fill-rule="nonzero" fill-opacity="1" /><path clip-path="url(#clip950)" d="M82.1494 527.098 L111.825 527.098 L111.825 531.033 L82.1494 531.033 L82.1494 527.098 Z" fill="#000000" fill-rule="nonzero" fill-opacity="1" /><path clip-path="url(#clip950)" d="M121.964 509.367 L140.32 509.367 L140.32 513.302 L126.246 513.302 L126.246 521.774 Q127.265 521.427 128.283 521.265 Q129.302 521.08 130.32 521.08 Q136.107 521.08 139.487 524.251 Q142.867 527.422 142.867 532.839 Q142.867 538.418 139.394 541.52 Q135.922 544.598 129.603 544.598 Q127.427 544.598 125.158 544.228 Q122.913 543.857 120.506 543.117 L120.506 538.418 Q122.589 539.552 124.811 540.108 Q127.033 540.663 129.51 540.663 Q133.515 540.663 135.853 538.557 Q138.191 536.45 138.191 532.839 Q138.191 529.228 135.853 527.121 Q133.515 525.015 129.51 525.015 Q127.635 525.015 125.76 525.432 Q123.908 525.848 121.964 526.728 L121.964 509.367 Z" fill="#000000" fill-rule="nonzero" fill-opacity="1" /><path clip-path="url(#clip950)" d="M130.922 352.645 Q127.311 352.645 125.482 356.209 Q123.677 359.751 123.677 366.881 Q123.677 373.987 125.482 377.552 Q127.311 381.094 130.922 381.094 Q134.556 381.094 136.362 377.552 Q138.191 373.987 138.191 366.881 Q138.191 359.751 136.362 356.209 Q134.556 352.645 130.922 352.645 M130.922 348.941 Q136.732 348.941 139.788 353.547 Q142.867 358.131 142.867 366.881 Q142.867 375.608 139.788 380.214 Q136.732 384.797 130.922 384.797 Q125.112 384.797 122.033 380.214 Q118.978 375.608 118.978 366.881 Q118.978 358.131 122.033 353.547 Q125.112 348.941 130.922 348.941 Z" fill="#000000" fill-rule="nonzero" fill-opacity="1" /><path clip-path="url(#clip950)" d="M121.964 189.765 L140.32 189.765 L140.32 193.7 L126.246 193.7 L126.246 202.172 Q127.265 201.825 128.283 201.663 Q129.302 201.478 130.32 201.478 Q136.107 201.478 139.487 204.649 Q142.867 207.82 142.867 213.237 Q142.867 218.816 139.394 221.918 Q135.922 224.996 129.603 224.996 Q127.427 224.996 125.158 224.626 Q122.913 224.256 120.506 223.515 L120.506 218.816 Q122.589 219.95 124.811 220.506 Q127.033 221.061 129.51 221.061 Q133.515 221.061 135.853 218.955 Q138.191 216.848 138.191 213.237 Q138.191 209.626 135.853 207.52 Q133.515 205.413 129.51 205.413 Q127.635 205.413 125.76 205.83 Q123.908 206.246 121.964 207.126 L121.964 189.765 Z" fill="#000000" fill-rule="nonzero" fill-opacity="1" /><path clip-path="url(#clip950)" d="M91.5706 60.5889 L99.2095 60.5889 L99.2095 34.2233 L90.8993 35.89 L90.8993 31.6308 L99.1632 29.9641 L103.839 29.9641 L103.839 60.5889 L111.478 60.5889 L111.478 64.5241 L91.5706 64.5241 L91.5706 60.5889 Z" fill="#000000" fill-rule="nonzero" fill-opacity="1" /><path clip-path="url(#clip950)" d="M130.922 33.0428 Q127.311 33.0428 125.482 36.6076 Q123.677 40.1492 123.677 47.2788 Q123.677 54.3853 125.482 57.9501 Q127.311 61.4917 130.922 61.4917 Q134.556 61.4917 136.362 57.9501 Q138.191 54.3853 138.191 47.2788 Q138.191 40.1492 136.362 36.6076 Q134.556 33.0428 130.922 33.0428 M130.922 29.3391 Q136.732 29.3391 139.788 33.9456 Q142.867 38.5289 142.867 47.2788 Q142.867 56.0056 139.788 60.6121 Q136.732 65.1954 130.922 65.1954 Q125.112 65.1954 122.033 60.6121 Q118.978 56.0056 118.978 47.2788 Q118.978 38.5289 122.033 33.9456 Q125.112 29.3391 130.922 29.3391 Z" fill="#000000" fill-rule="nonzero" fill-opacity="1" /><polyline clip-path="url(#clip952)" style="stroke:#009af9; stroke-linecap:round; stroke-linejoin:round; stroke-width:4; stroke-opacity:1; fill:none" points="240.392,334.886 242.445,335.968 244.498,335.823 246.55,369.61 248.603,371.099 250.656,371.265 252.709,370.527 254.762,369.308 256.815,366.352 258.868,364.26 260.921,368.019 262.974,373.92 265.027,374.918 267.079,359.962 269.132,359.817 271.185,358.788 273.238,353.494 275.291,350.997 277.344,350.871 279.397,349.465 281.45,351.663 283.503,351.62 285.555,369.877 287.608,356.729 289.661,331.852 291.714,315.133 293.767,315.674 295.82,316.851 297.873,292.434 299.926,300.421 301.979,301.049 304.031,335.738 306.084,292.068 308.137,292.008 310.19,298.549 312.243,289.354 314.296,416.857 316.349,409.437 318.402,406.006 320.455,405.834 322.507,406.445 324.56,430.393 326.613,430.854 328.666,431.917 330.719,432.017 332.772,431.979 334.825,433.307 336.878,433.562 338.931,358.841 340.984,405.229 343.036,324.488 345.089,324.964 347.142,326.702 349.195,323.294 351.248,311.8 353.301,387.351 355.354,391.727 357.407,351.083 359.46,349.415 361.512,364.899 363.565,410.034 365.618,409.359 367.671,394.956 369.724,391.172 371.777,382.955 373.83,367.559 375.883,371.255 377.936,367.23 379.988,368.562 382.041,378.124 384.094,405.759 386.147,405.618 388.2,371.7 390.253,371.487 392.306,386.823 394.359,386.748 396.412,413.194 398.464,401.077 400.517,411.264 402.57,414 404.623,412.171 406.676,444.83 408.729,465.366 410.782,462.611 412.835,468.185 414.888,456.896 416.94,460.031 418.993,464.002 421.046,462.212 423.099,458.644 425.152,294.345 427.205,294.161 429.258,251.431 431.311,247.531 433.364,255.246 435.417,254.1 437.469,253.326 439.522,354.969 441.575,365.589 443.628,332.963 445.681,324.084 447.734,375.653 449.787,417.534 451.84,416.108 453.893,506.94 455.945,508.956 457.998,506.117 460.051,514.486 462.104,483.259 464.157,495.347 466.21,444.767 468.263,444.431 470.316,416.62 472.369,438.107 474.421,436.907 476.474,428.776 478.527,420.449 480.58,418.289 482.633,395.059 484.686,414.423 486.739,402.383 488.792,494.084 490.845,491.201 492.897,190.846 494.95,339.34 497.003,453.43 499.056,398.243 501.109,420.181 503.162,478.519 505.215,518.446 507.268,520.948 509.321,540.599 511.374,534.223 513.426,504.346 515.479,405.034 517.532,403.98 519.585,374.881 521.638,316.739 523.691,350.838 525.744,380.936 527.797,380.078 529.85,383.526 531.902,362.784 533.955,366.087 536.008,365.67 538.061,370.337 540.114,370.245 542.167,371.55 544.22,371.308 546.273,384.32 548.326,384.28 550.378,386.423 552.431,387.566 554.484,381.116 556.537,346.566 558.59,345.085 560.643,380.806 562.696,382.797 564.749,376.309 566.802,380.398 568.854,379.596 570.907,297.509 572.96,346.158 575.013,348.966 577.066,350.146 579.119,373.722 581.172,322.604 583.225,312.346 585.278,313.178 587.331,336.127 589.383,330.212 591.436,328.237 593.489,328.128 595.542,370.462 597.595,330.347 599.648,329.777 601.701,321.254 603.754,321.965 605.807,320.658 607.859,336.424 609.912,309.916 611.965,310.119 614.018,303.333 616.071,305.661 618.124,309.902 620.177,315.862 622.23,314.06 624.283,321.511 626.335,321.762 628.388,322.838 630.441,328.62 632.494,320.88 634.547,370.524 636.6,370.665 638.653,397.655 640.706,392.823 642.759,393.228 644.811,392.979 646.864,409.304 648.917,335.888 650.97,348.598 653.023,347.16 655.076,285.336 657.129,288.256 659.182,267.112 661.235,459.423 663.288,670.357 665.34,647.087 667.393,647.851 669.446,754.762 671.499,730.345 673.552,729.891 675.605,719.227 677.658,711.619 679.711,723.916 681.764,724.55 683.816,710.997 685.869,721.695 687.922,641.445 689.975,681.782 692.028,544.444 694.081,555.251 696.134,520.937 698.187,480.433 700.24,315.051 702.292,311.68 704.345,311.301 706.398,303.419 708.451,293.337 710.504,470.941 712.557,465.805 714.61,465.021 716.663,469.419 718.716,394.938 720.768,426.533 722.821,44.7357 724.874,65.4705 726.927,46.5883 728.98,46.5718 731.033,26.4001 733.086,14.6382 735.139,136.555 737.192,120.707 739.245,107.678 741.297,117.351 743.35,116.765 745.403,572.314 747.456,621.963 749.509,580.924 751.562,712.191 753.615,754.267 755.668,755.007 757.721,761.455 759.773,772.758 761.826,773.119 763.879,802.244 765.932,605.503 767.985,606.397 770.038,561.882 772.091,558.641 774.144,552.24 776.197,463.592 778.249,458.756 780.302,266.51 782.355,279.53 784.408,48.1044 786.461,373.689 788.514,487.531 790.567,196.833 792.62,306.38 794.673,341.04 796.725,331.834 798.778,331.094 800.831,331.809 802.884,331.767 804.937,331.998 806.99,311.281 809.043,375.785 811.096,466.266 813.149,446.364 815.202,428.084 817.254,402.525 819.307,404.199 821.36,396.778 823.413,434.683 825.466,455.11 827.519,446.999 829.572,327.828 831.625,328.943 833.678,415.629 835.73,409.79 837.783,403.061 839.836,340.454 841.889,315.968 843.942,323.729 845.995,338.304 848.048,347.803 850.101,309.151 852.154,317.971 854.206,315.693 856.259,440.896 858.312,434.804 860.365,221.513 862.418,222.093 864.471,222.941 866.524,232.283 868.577,225.793 870.63,196.95 872.682,376.046 874.735,379.374 876.788,386.15 878.841,271.194 880.894,360.297 882.947,369.711 885,391.478 887.053,467.648 889.106,389.104 891.159,383.674 893.211,413.238 895.264,421.41 897.317,450.91 899.37,422.46 901.423,250.48 903.476,219.219 905.529,235.685 907.582,244.593 909.635,326.951 911.687,89.111 913.74,211.329 915.793,214.969 917.846,214.972 919.899,320.354 921.952,299.12 924.005,316.9 926.058,371.881 928.111,405.784 930.163,423.802 932.216,399.007 934.269,391.68 936.322,386.4 938.375,397.059 940.428,376.232 942.481,635.539 944.534,620.389 946.587,584.946 948.639,570.772 950.692,477.344 952.745,437.677 954.798,438.508 956.851,459.611 958.904,365.494 960.957,369.242 963.01,629.344 965.063,633.998 967.116,544.268 969.168,541.283 971.221,517.333 973.274,532.396 975.327,532.326 977.38,517.738 979.433,528.97 981.486,515.261 983.539,454.451 985.592,447.014 987.644,473.359 989.697,473.227 991.75,448.526 993.803,448.189 995.856,484.482 997.909,439.606 999.962,417.326 1002.01,444.534 1004.07,447.765 1006.12,481.537 1008.17,481.5 1010.23,469.682 1012.28,492.807 1014.33,503.035 1016.38,555.937 1018.44,460.248 1020.49,323.449 1022.54,322.947 1024.6,322.531 1026.65,383.03 1028.7,351.629 1030.76,412.42 1032.81,405.747 1034.86,449.525 1036.91,510.18 1038.97,510.945 1041.02,465.849 1043.07,463.948 1045.13,463.785 1047.18,415.193 1049.23,415.24 1051.28,402.42 1053.34,377.791 1055.39,310.893 1057.44,342.888 1059.5,336.474 1061.55,315.155 1063.6,315.758 1065.65,318.749 1067.71,330.523 1069.76,304.626 1071.81,356.265 1073.87,355.928 1075.92,361.86 1077.97,361.777 1080.02,354.59 1082.08,352.263 1084.13,218.016 1086.18,114.62 1088.24,277.387 1090.29,274.541 1092.34,391.978 1094.39,401.078 1096.45,391.946 1098.5,370.398 1100.55,364.502 1102.61,402.205 1104.66,328.78 1106.71,324.442 1108.77,310.415 1110.82,314.365 1112.87,436.382 1114.92,447.73 1116.98,393.992 1119.03,394.973 1121.08,395.888 1123.14,380.074 1125.19,399.996 1127.24,386.521 1129.29,374.882 1131.35,367.26 1133.4,399.031 1135.45,399.04 1137.51,462.177 1139.56,478.545 1141.61,482.139 1143.66,135.696 1145.72,143.206 1147.77,100.637 1149.82,130.284 1151.88,152.905 1153.93,148.972 1155.98,152.564 1158.03,397.615 1160.09,109.125 1162.14,123.755 1164.19,123.933 1166.25,-112.522 1168.3,-165.638 1170.35,-188.944 1172.4,-32.5718 1174.46,-20.577 1176.51,-50.1478 1178.56,201.884 1180.62,234.579 1182.67,172.348 1184.72,45.5996 1186.77,74.2549 1188.83,50.3034 1190.88,254.352 1192.93,215.136 1194.99,172.347 1197.04,162.904 1199.09,143.206 1201.15,165.521 1203.2,166.389 1205.25,137.487 1207.3,-226.963 1209.36,-254.795 1211.41,-369.399 1213.46,-377.491 1215.52,-384.862 1217.57,-357.933 1219.62,-268.106 1221.67,-242.106 1223.73,-249.837 1225.78,-195.402 1227.83,-182.882 1229.89,-156.434 1231.94,-69.5446 1233.99,-65.0039 1236.04,-181.201 1238.1,-174.134 1240.15,-188.748 1242.2,-211.252 1244.26,-176.667 1246.31,-203.883 1248.36,-161.17 1250.41,-237.578 1252.47,346.305 1254.52,346.317 1256.57,521.123 1258.63,637.548 1260.68,903.549 1262.73,477.842 1264.78,455.636 1266.84,406.177 1268.89,181.422 1270.94,233.971 1273,229.16 1275.05,244.617 1277.1,248.645 1279.16,147.028 1281.21,125.478 1283.26,127.594 1285.31,121.491 1287.37,160.162 1289.42,54.5573 1291.47,57.5543 1293.53,77.6916 1295.58,200.438 1297.63,276.601 1299.68,290.864 1301.74,304.669 1303.79,347.495 1305.84,356.312 1307.9,350.679 1309.95,375.762 1312,281.797 1314.05,306.008 1316.11,308.688 1318.16,288.706 1320.21,339.936 1322.27,345.353 1324.32,341.592 1326.37,298.974 1328.42,324.838 1330.48,324.71 1332.53,308.475 1334.58,311.528 1336.64,311.543 1338.69,297.32 1340.74,387.304 1342.79,411.358 1344.85,412.371 1346.9,395.232 1348.95,392.372 1351.01,164.501 1353.06,163.414 1355.11,199.7 1357.16,224.644 1359.22,202.999 1361.27,207.638 1363.32,208.624 1365.38,217.504 1367.43,209.885 1369.48,208.049 1371.54,202.268 1373.59,302.382 1375.64,266.339 1377.69,473.129 1379.75,377.178 1381.8,357.762 1383.85,326.873 1385.91,325.099 1387.96,358.16 1390.01,356.514 1392.06,354.557 1394.12,392.962 1396.17,391.991 1398.22,382.55 1400.28,346.031 1402.33,450.84 1404.38,446.127 1406.43,451.549 1408.49,474.344 1410.54,322.477 1412.59,293.238 1414.65,295.298 1416.7,287.791 1418.75,287.737 1420.8,288.729 1422.86,288.625 1424.91,270.542 1426.96,200.698 1429.02,201.479 1431.07,166 1433.12,165.94 1435.17,239.364 1437.23,173.285 1439.28,368.971 1441.33,392.535 1443.39,411.315 1445.44,306.994 1447.49,318.616 1449.55,304.143 1451.6,260.278 1453.65,260.078 1455.7,381.91 1457.76,273.748 1459.81,512.721 1461.86,500.268 1463.92,535.443 1465.97,535.424 1468.02,540.692 1470.07,476.496 1472.13,466.377 1474.18,444.702 1476.23,500.854 1478.29,769.399 1480.34,314.99 1482.39,344.491 1484.44,363.424 1486.5,374.648 1488.55,287.563 1490.6,301.619 1492.66,759.641 1494.71,604.359 1496.76,626.27 1498.81,474.287 1500.87,254.971 1502.92,247.641 1504.97,252.365 1507.03,487.901 1509.08,482.575 1511.13,432.439 1513.18,420.418 1515.24,165.826 1517.29,168.916 1519.34,169.872 1521.4,178.305 1523.45,207.72 1525.5,208.562 1527.55,208.694 1529.61,213.546 1531.66,193.801 1533.71,193.646 1535.77,209.226 1537.82,233.894 1539.87,234.011 1541.93,295.568 1543.98,287.702 1546.03,287.24 1548.08,321.684 1550.14,251.624 1552.19,272.896 1554.24,280.649 1556.3,281.079 1558.35,518.555 1560.4,649.877 1562.45,673.918 1564.51,607.309 1566.56,498.126 1568.61,501.837 1570.67,553.703 1572.72,615.113 1574.77,590.501 1576.82,602.578 1578.88,579.801 1580.93,376.284 1582.98,334.849 1585.04,307.212 1587.09,198.787 1589.14,516.307 1591.19,516.686 1593.25,557.886 1595.3,518.203 1597.35,391.476 1599.41,392.691 1601.46,401.563 1603.51,464.179 1605.56,263.123 1607.62,280.142 1609.67,281.983 1611.72,282.182 1613.78,258.091 1615.83,251.482 1617.88,251.416 1619.94,254.814 1621.99,259.941 1624.04,233.469 1626.09,302.024 1628.15,272.975 1630.2,282.088 1632.25,220.834 1634.31,268.747 1636.36,261.272 1638.41,282.067 1640.46,354.514 1642.52,335.253 1644.57,347.075 1646.62,345.541 1648.68,345.731 1650.73,343.99 1652.78,339.936 1654.83,342.46 1656.89,289.292 1658.94,288.621 1660.99,295.231 1663.05,309.822 1665.1,310.98 1667.15,309.505 1669.2,369.379 1671.26,416.754 1673.31,404.919 1675.36,396.092 1677.42,411.719 1679.47,406.158 1681.52,406 1683.57,409.787 1685.63,407.221 1687.68,408.71 1689.73,415.187 1691.79,435.772 1693.84,392.339 1695.89,430.329 1697.94,435.912 1700,427.774 1702.05,328.668 1704.1,249.89 1706.16,273.779 1708.21,284.677 1710.26,293.506 1712.32,376.519 1714.37,379.894 1716.42,382.806 1718.47,382.666 1720.53,397.184 1722.58,418.772 1724.63,402.54 1726.69,352.121 1728.74,354.359 1730.79,400.169 1732.84,397.319 1734.9,399.604 1736.95,391.538 1739,390.561 1741.06,390.549 1743.11,386.607 1745.16,385.189 1747.21,415.756 1749.27,415.527 1751.32,406.023 1753.37,405.49 1755.43,399.875 1757.48,382.245 1759.53,372.355 1761.58,372.946 1763.64,372.96 1765.69,363.253 1767.74,361.055 1769.8,374.171 1771.85,374.615 1773.9,374.592 1775.95,370.444 1778.01,381.911 1780.06,380.96 1782.11,380.361 1784.17,370.632 1786.22,374.78 1788.27,373.222 1790.33,373.767 1792.38,387.44 1794.43,389.731 1796.48,389.599 1798.54,389.919 1800.59,393.775 1802.64,401.893 1804.7,402.073 1806.75,402.267 1808.8,379.238 1810.85,379.788 1812.91,385.137 1814.96,390.07 1817.01,350.854 1819.07,361.611 1821.12,369.567 1823.17,369.998 1825.22,374.044 1827.28,375.08 1829.33,368.517 1831.38,369.532 1833.44,369.269 1835.49,369.176 1837.54,368.892 1839.59,366.89 1841.65,366.403 1843.7,376.872 1845.75,377.656 1847.81,381.065 1849.86,381.095 1851.91,381.199 1853.96,382.801 1856.02,382.791 1858.07,389.228 1860.12,380.232 1862.18,386.262 1864.23,388.587 1866.28,388.592 1868.34,388.496 1870.39,388.586 1872.44,379.597 1874.49,379.902 1876.55,380.037 1878.6,378.489 1880.65,378.57 1882.71,379.498 1884.76,379.059 1886.81,382.33 1888.86,382.139 1890.92,382.051 1892.97,381.121 1895.02,383.853 1897.08,384.147 1899.13,378.429 1901.18,373.825 1903.23,372.132 1905.29,371.921 1907.34,374.278 1909.39,352.234 1911.45,366.159 1913.5,362.635 1915.55,363.187 1917.6,351.176 1919.66,352.971 1921.71,331.364 1923.76,332.192 1925.82,335.748 1927.87,341.03 1929.92,341.282 1931.97,341.26 1934.03,340.507 1936.08,336.631 1938.13,332.873 1940.19,340.283 1942.24,342.808 1944.29,353.378 1946.34,347.395 1948.4,342.412 1950.45,343.536 1952.5,361.077 1954.56,357.268 1956.61,358.307 1958.66,355.049 1960.72,355.062 1962.77,355.527 1964.82,355.399 1966.87,347.123 1968.93,352.2 1970.98,355.462 1973.03,372.872 1975.09,373.231 1977.14,373.232 1979.19,373.301 1981.24,371.306 1983.3,372.525 1985.35,370.816 1987.4,372.436 1989.46,371.294 1991.51,372.493 1993.56,372.718 1995.61,366.515 1997.67,366.45 1999.72,366.945 2001.77,349.167 2003.83,352.262 2005.88,341.617 2007.93,342.245 2009.98,347.859 2012.04,349.405 2014.09,352.956 2016.14,350.97 2018.2,384.446 2020.25,386.591 2022.3,386.725 2024.35,376.771 2026.41,386.504 2028.46,412.989 2030.51,417.544 2032.57,370.847 2034.62,370.96 2036.67,371.785 2038.73,371.823 2040.78,374.853 2042.83,375.247 2044.88,376.366 2046.94,375.842 2048.99,365.542 2051.04,396.246 2053.1,380.336 2055.15,380.522 2057.2,380.142 2059.25,377.902 2061.31,377.711 2063.36,376.101 2065.41,374.807 2067.47,374.417 2069.52,374.333 2071.57,377.586 2073.62,379.411 2075.68,381.283 2077.73,385.814 2079.78,383.308 2081.84,384.352 2083.89,383.77 2085.94,383.594 2087.99,385.776 2090.05,386.26 2092.1,384.525 2094.15,381.961 2096.21,383.653 2098.26,379.795 2100.31,373.465 2102.36,382.438 2104.42,382.114 2106.47,389.821 2108.52,372.89 2110.58,407.294 2112.63,425.555 2114.68,422.496 2116.73,428.697 2118.79,429.852 2120.84,393.339 2122.89,392.128 2124.95,409.465 2127,290.04 2129.05,274.916 2131.11,349.639 2133.16,378.889 2135.21,371.163 2137.26,390.491 2139.32,396.937 2141.37,397.242 2143.42,394.801 2145.48,395.271 2147.53,387.419 2149.58,385.296 2151.63,385.247 2153.69,362.473 2155.74,368.677 2157.79,386.671 2159.85,376.462 2161.9,393.268 2163.95,292.87 2166,289.842 2168.06,317.652 2170.11,303.899 2172.16,309.633 2174.22,309.485 2176.27,339.934 2178.32,281.465 2180.37,323.777 2182.43,386.319 2184.48,352.113 2186.53,352.49 2188.59,352.694 2190.64,355.013 2192.69,362.767 2194.74,410.816 2196.8,412.244 2198.85,457.458 2200.9,218.674 2202.96,329.58 2205.01,318.01 2207.06,221.951 2209.12,226.37 2211.17,224.425 2213.22,155.872 2215.27,92.0657 2217.33,70.2758 2219.38,59.4881 2221.43,168.56 2223.49,541.72 2225.54,461.044 2227.59,309.763 2229.64,283.752 2231.7,284.629 2233.75,300.189 2235.8,427.686 2237.86,284.923 2239.91,284.806 2241.96,306.081 2244.01,299.064 2246.07,376.852 2248.12,389.482 2250.17,300.769 2252.23,296.06 2254.28,304.776 2256.33,304.468 2258.38,391.357 2260.44,604.064 2262.49,603.308 2264.54,467.612 2266.6,462.905 2268.65,458.266 2270.7,402.31 2272.75,451.994 2274.81,466.632 2276.86,466.566 2278.91,466.564 2280.97,477.99 2283.02,398.949 2285.07,392.79 2287.12,381.553 2289.18,373.226 2291.23,342.576 "/>
<path clip-path="url(#clip950)" d="M251.33 172.231 L548.024 172.231 L548.024 68.5509 L251.33 68.5509  Z" fill="#ffffff" fill-rule="evenodd" fill-opacity="1"/>
<polyline clip-path="url(#clip950)" style="stroke:#000000; stroke-linecap:round; stroke-linejoin:round; stroke-width:4; stroke-opacity:1; fill:none" points="251.33,172.231 548.024,172.231 548.024,68.5509 251.33,68.5509 251.33,172.231 "/>
<polyline clip-path="url(#clip950)" style="stroke:#009af9; stroke-linecap:round; stroke-linejoin:round; stroke-width:4; stroke-opacity:1; fill:none" points="275.484,120.391 420.41,120.391 "/>
<path clip-path="url(#clip950)" d="M444.564 103.111 L449.24 103.111 L449.24 133.736 L466.069 133.736 L466.069 137.671 L444.564 137.671 L444.564 103.111 Z" fill="#000000" fill-rule="nonzero" fill-opacity="1" /><path clip-path="url(#clip950)" d="M491.694 104.245 L491.694 108.805 Q489.032 107.532 486.67 106.907 Q484.309 106.282 482.11 106.282 Q478.291 106.282 476.208 107.764 Q474.147 109.245 474.147 111.977 Q474.147 114.268 475.513 115.449 Q476.902 116.606 480.745 117.324 L483.569 117.902 Q488.8 118.898 491.277 121.421 Q493.777 123.921 493.777 128.134 Q493.777 133.157 490.397 135.75 Q487.041 138.342 480.536 138.342 Q478.083 138.342 475.305 137.787 Q472.55 137.231 469.587 136.143 L469.587 131.328 Q472.434 132.926 475.166 133.736 Q477.897 134.546 480.536 134.546 Q484.541 134.546 486.717 132.972 Q488.893 131.398 488.893 128.481 Q488.893 125.935 487.319 124.5 Q485.768 123.064 482.203 122.347 L479.356 121.791 Q474.124 120.75 471.786 118.527 Q469.448 116.305 469.448 112.347 Q469.448 107.764 472.666 105.125 Q475.907 102.486 481.578 102.486 Q484.008 102.486 486.532 102.926 Q489.055 103.366 491.694 104.245 Z" fill="#000000" fill-rule="nonzero" fill-opacity="1" /><path clip-path="url(#clip950)" d="M521.786 104.245 L521.786 108.805 Q519.124 107.532 516.763 106.907 Q514.402 106.282 512.203 106.282 Q508.383 106.282 506.3 107.764 Q504.24 109.245 504.24 111.977 Q504.24 114.268 505.606 115.449 Q506.994 116.606 510.837 117.324 L513.661 117.902 Q518.893 118.898 521.369 121.421 Q523.869 123.921 523.869 128.134 Q523.869 133.157 520.49 135.75 Q517.133 138.342 510.629 138.342 Q508.175 138.342 505.397 137.787 Q502.643 137.231 499.68 136.143 L499.68 131.328 Q502.527 132.926 505.258 133.736 Q507.99 134.546 510.629 134.546 Q514.633 134.546 516.809 132.972 Q518.985 131.398 518.985 128.481 Q518.985 125.935 517.411 124.5 Q515.86 123.064 512.295 122.347 L509.448 121.791 Q504.217 120.75 501.879 118.527 Q499.541 116.305 499.541 112.347 Q499.541 107.764 502.758 105.125 Q505.999 102.486 511.67 102.486 Q514.101 102.486 516.624 102.926 Q519.147 103.366 521.786 104.245 Z" fill="#000000" fill-rule="nonzero" fill-opacity="1" /><path clip-path="url(#clip950)" d="M178.867 1486.45 L2352.76 1486.45 L2352.76 847.244 L178.867 847.244  Z" fill="#ffffff" fill-rule="evenodd" fill-opacity="1"/>
<defs>
  <clipPath id="clip953">
    <rect x="178" y="847" width="2175" height="640"/>
  </clipPath>
</defs>
<polyline clip-path="url(#clip953)" style="stroke:#000000; stroke-linecap:round; stroke-linejoin:round; stroke-width:2; stroke-opacity:0.1; fill:none" points="238.339,1486.45 238.339,847.244 "/>
<polyline clip-path="url(#clip953)" style="stroke:#000000; stroke-linecap:round; stroke-linejoin:round; stroke-width:2; stroke-opacity:0.1; fill:none" points="751.562,1486.45 751.562,847.244 "/>
<polyline clip-path="url(#clip953)" style="stroke:#000000; stroke-linecap:round; stroke-linejoin:round; stroke-width:2; stroke-opacity:0.1; fill:none" points="1264.78,1486.45 1264.78,847.244 "/>
<polyline clip-path="url(#clip953)" style="stroke:#000000; stroke-linecap:round; stroke-linejoin:round; stroke-width:2; stroke-opacity:0.1; fill:none" points="1778.01,1486.45 1778.01,847.244 "/>
<polyline clip-path="url(#clip953)" style="stroke:#000000; stroke-linecap:round; stroke-linejoin:round; stroke-width:2; stroke-opacity:0.1; fill:none" points="2291.23,1486.45 2291.23,847.244 "/>
<polyline clip-path="url(#clip953)" style="stroke:#000000; stroke-linecap:round; stroke-linejoin:round; stroke-width:2; stroke-opacity:0.1; fill:none" points="178.867,1486.45 2352.76,1486.45 "/>
<polyline clip-path="url(#clip953)" style="stroke:#000000; stroke-linecap:round; stroke-linejoin:round; stroke-width:2; stroke-opacity:0.1; fill:none" points="178.867,1326.65 2352.76,1326.65 "/>
<polyline clip-path="url(#clip953)" style="stroke:#000000; stroke-linecap:round; stroke-linejoin:round; stroke-width:2; stroke-opacity:0.1; fill:none" points="178.867,1166.85 2352.76,1166.85 "/>
<polyline clip-path="url(#clip953)" style="stroke:#000000; stroke-linecap:round; stroke-linejoin:round; stroke-width:2; stroke-opacity:0.1; fill:none" points="178.867,1007.05 2352.76,1007.05 "/>
<polyline clip-path="url(#clip953)" style="stroke:#000000; stroke-linecap:round; stroke-linejoin:round; stroke-width:2; stroke-opacity:0.1; fill:none" points="178.867,847.244 2352.76,847.244 "/>
<polyline clip-path="url(#clip950)" style="stroke:#000000; stroke-linecap:round; stroke-linejoin:round; stroke-width:4; stroke-opacity:1; fill:none" points="178.867,1486.45 2352.76,1486.45 "/>
<polyline clip-path="url(#clip950)" style="stroke:#000000; stroke-linecap:round; stroke-linejoin:round; stroke-width:4; stroke-opacity:1; fill:none" points="238.339,1486.45 238.339,1467.55 "/>
<polyline clip-path="url(#clip950)" style="stroke:#000000; stroke-linecap:round; stroke-linejoin:round; stroke-width:4; stroke-opacity:1; fill:none" points="751.562,1486.45 751.562,1467.55 "/>
<polyline clip-path="url(#clip950)" style="stroke:#000000; stroke-linecap:round; stroke-linejoin:round; stroke-width:4; stroke-opacity:1; fill:none" points="1264.78,1486.45 1264.78,1467.55 "/>
<polyline clip-path="url(#clip950)" style="stroke:#000000; stroke-linecap:round; stroke-linejoin:round; stroke-width:4; stroke-opacity:1; fill:none" points="1778.01,1486.45 1778.01,1467.55 "/>
<polyline clip-path="url(#clip950)" style="stroke:#000000; stroke-linecap:round; stroke-linejoin:round; stroke-width:4; stroke-opacity:1; fill:none" points="2291.23,1486.45 2291.23,1467.55 "/>
<path clip-path="url(#clip950)" d="M238.339 1517.37 Q234.728 1517.37 232.899 1520.93 Q231.094 1524.47 231.094 1531.6 Q231.094 1538.71 232.899 1542.27 Q234.728 1545.82 238.339 1545.82 Q241.973 1545.82 243.779 1542.27 Q245.607 1538.71 245.607 1531.6 Q245.607 1524.47 243.779 1520.93 Q241.973 1517.37 238.339 1517.37 M238.339 1513.66 Q244.149 1513.66 247.205 1518.27 Q250.283 1522.85 250.283 1531.6 Q250.283 1540.33 247.205 1544.94 Q244.149 1549.52 238.339 1549.52 Q232.529 1549.52 229.45 1544.94 Q226.395 1540.33 226.395 1531.6 Q226.395 1522.85 229.45 1518.27 Q232.529 1513.66 238.339 1513.66 Z" fill="#000000" fill-rule="nonzero" fill-opacity="1" /><path clip-path="url(#clip950)" d="M715.254 1544.91 L731.574 1544.91 L731.574 1548.85 L709.629 1548.85 L709.629 1544.91 Q712.291 1542.16 716.875 1537.53 Q721.481 1532.88 722.662 1531.53 Q724.907 1529.01 725.787 1527.27 Q726.689 1525.51 726.689 1523.82 Q726.689 1521.07 724.745 1519.33 Q722.824 1517.6 719.722 1517.6 Q717.523 1517.6 715.069 1518.36 Q712.638 1519.13 709.861 1520.68 L709.861 1515.95 Q712.685 1514.82 715.138 1514.24 Q717.592 1513.66 719.629 1513.66 Q725 1513.66 728.194 1516.35 Q731.388 1519.03 731.388 1523.52 Q731.388 1525.65 730.578 1527.57 Q729.791 1529.47 727.685 1532.07 Q727.106 1532.74 724.004 1535.95 Q720.902 1539.15 715.254 1544.91 Z" fill="#000000" fill-rule="nonzero" fill-opacity="1" /><path clip-path="url(#clip950)" d="M741.435 1514.29 L759.791 1514.29 L759.791 1518.22 L745.717 1518.22 L745.717 1526.7 Q746.736 1526.35 747.754 1526.19 Q748.773 1526 749.791 1526 Q755.578 1526 758.958 1529.17 Q762.337 1532.34 762.337 1537.76 Q762.337 1543.34 758.865 1546.44 Q755.393 1549.52 749.073 1549.52 Q746.898 1549.52 744.629 1549.15 Q742.384 1548.78 739.976 1548.04 L739.976 1543.34 Q742.06 1544.47 744.282 1545.03 Q746.504 1545.58 748.981 1545.58 Q752.985 1545.58 755.323 1543.48 Q757.661 1541.37 757.661 1537.76 Q757.661 1534.15 755.323 1532.04 Q752.985 1529.94 748.981 1529.94 Q747.106 1529.94 745.231 1530.35 Q743.379 1530.77 741.435 1531.65 L741.435 1514.29 Z" fill="#000000" fill-rule="nonzero" fill-opacity="1" /><path clip-path="url(#clip950)" d="M781.55 1517.37 Q777.939 1517.37 776.11 1520.93 Q774.305 1524.47 774.305 1531.6 Q774.305 1538.71 776.11 1542.27 Q777.939 1545.82 781.55 1545.82 Q785.184 1545.82 786.99 1542.27 Q788.819 1538.71 788.819 1531.6 Q788.819 1524.47 786.99 1520.93 Q785.184 1517.37 781.55 1517.37 M781.55 1513.66 Q787.36 1513.66 790.416 1518.27 Q793.495 1522.85 793.495 1531.6 Q793.495 1540.33 790.416 1544.94 Q787.36 1549.52 781.55 1549.52 Q775.74 1549.52 772.661 1544.94 Q769.606 1540.33 769.606 1531.6 Q769.606 1522.85 772.661 1518.27 Q775.74 1513.66 781.55 1513.66 Z" fill="#000000" fill-rule="nonzero" fill-opacity="1" /><path clip-path="url(#clip950)" d="M1224.4 1514.29 L1242.76 1514.29 L1242.76 1518.22 L1228.69 1518.22 L1228.69 1526.7 Q1229.7 1526.35 1230.72 1526.19 Q1231.74 1526 1232.76 1526 Q1238.55 1526 1241.93 1529.17 Q1245.31 1532.34 1245.31 1537.76 Q1245.31 1543.34 1241.83 1546.44 Q1238.36 1549.52 1232.04 1549.52 Q1229.87 1549.52 1227.6 1549.15 Q1225.35 1548.78 1222.94 1548.04 L1222.94 1543.34 Q1225.03 1544.47 1227.25 1545.03 Q1229.47 1545.58 1231.95 1545.58 Q1235.95 1545.58 1238.29 1543.48 Q1240.63 1541.37 1240.63 1537.76 Q1240.63 1534.15 1238.29 1532.04 Q1235.95 1529.94 1231.95 1529.94 Q1230.07 1529.94 1228.2 1530.35 Q1226.35 1530.77 1224.4 1531.65 L1224.4 1514.29 Z" fill="#000000" fill-rule="nonzero" fill-opacity="1" /><path clip-path="url(#clip950)" d="M1264.52 1517.37 Q1260.91 1517.37 1259.08 1520.93 Q1257.27 1524.47 1257.27 1531.6 Q1257.27 1538.71 1259.08 1542.27 Q1260.91 1545.82 1264.52 1545.82 Q1268.15 1545.82 1269.96 1542.27 Q1271.79 1538.71 1271.79 1531.6 Q1271.79 1524.47 1269.96 1520.93 Q1268.15 1517.37 1264.52 1517.37 M1264.52 1513.66 Q1270.33 1513.66 1273.38 1518.27 Q1276.46 1522.85 1276.46 1531.6 Q1276.46 1540.33 1273.38 1544.94 Q1270.33 1549.52 1264.52 1549.52 Q1258.71 1549.52 1255.63 1544.94 Q1252.57 1540.33 1252.57 1531.6 Q1252.57 1522.85 1255.63 1518.27 Q1258.71 1513.66 1264.52 1513.66 Z" fill="#000000" fill-rule="nonzero" fill-opacity="1" /><path clip-path="url(#clip950)" d="M1294.68 1517.37 Q1291.07 1517.37 1289.24 1520.93 Q1287.44 1524.47 1287.44 1531.6 Q1287.44 1538.71 1289.24 1542.27 Q1291.07 1545.82 1294.68 1545.82 Q1298.31 1545.82 1300.12 1542.27 Q1301.95 1538.71 1301.95 1531.6 Q1301.95 1524.47 1300.12 1520.93 Q1298.31 1517.37 1294.68 1517.37 M1294.68 1513.66 Q1300.49 1513.66 1303.55 1518.27 Q1306.62 1522.85 1306.62 1531.6 Q1306.62 1540.33 1303.55 1544.94 Q1300.49 1549.52 1294.68 1549.52 Q1288.87 1549.52 1285.79 1544.94 Q1282.74 1540.33 1282.74 1531.6 Q1282.74 1522.85 1285.79 1518.27 Q1288.87 1513.66 1294.68 1513.66 Z" fill="#000000" fill-rule="nonzero" fill-opacity="1" /><path clip-path="url(#clip950)" d="M1736.28 1514.29 L1758.51 1514.29 L1758.51 1516.28 L1745.96 1548.85 L1741.08 1548.85 L1752.88 1518.22 L1736.28 1518.22 L1736.28 1514.29 Z" fill="#000000" fill-rule="nonzero" fill-opacity="1" /><path clip-path="url(#clip950)" d="M1767.67 1514.29 L1786.03 1514.29 L1786.03 1518.22 L1771.95 1518.22 L1771.95 1526.7 Q1772.97 1526.35 1773.99 1526.19 Q1775.01 1526 1776.03 1526 Q1781.82 1526 1785.2 1529.17 Q1788.57 1532.34 1788.57 1537.76 Q1788.57 1543.34 1785.1 1546.44 Q1781.63 1549.52 1775.31 1549.52 Q1773.14 1549.52 1770.87 1549.15 Q1768.62 1548.78 1766.21 1548.04 L1766.21 1543.34 Q1768.3 1544.47 1770.52 1545.03 Q1772.74 1545.58 1775.22 1545.58 Q1779.22 1545.58 1781.56 1543.48 Q1783.9 1541.37 1783.9 1537.76 Q1783.9 1534.15 1781.56 1532.04 Q1779.22 1529.94 1775.22 1529.94 Q1773.34 1529.94 1771.47 1530.35 Q1769.62 1530.77 1767.67 1531.65 L1767.67 1514.29 Z" fill="#000000" fill-rule="nonzero" fill-opacity="1" /><path clip-path="url(#clip950)" d="M1807.79 1517.37 Q1804.18 1517.37 1802.35 1520.93 Q1800.54 1524.47 1800.54 1531.6 Q1800.54 1538.71 1802.35 1542.27 Q1804.18 1545.82 1807.79 1545.82 Q1811.42 1545.82 1813.23 1542.27 Q1815.06 1538.71 1815.06 1531.6 Q1815.06 1524.47 1813.23 1520.93 Q1811.42 1517.37 1807.79 1517.37 M1807.79 1513.66 Q1813.6 1513.66 1816.65 1518.27 Q1819.73 1522.85 1819.73 1531.6 Q1819.73 1540.33 1816.65 1544.94 Q1813.6 1549.52 1807.79 1549.52 Q1801.98 1549.52 1798.9 1544.94 Q1795.84 1540.33 1795.84 1531.6 Q1795.84 1522.85 1798.9 1518.27 Q1801.98 1513.66 1807.79 1513.66 Z" fill="#000000" fill-rule="nonzero" fill-opacity="1" /><path clip-path="url(#clip950)" d="M2235.76 1544.91 L2243.4 1544.91 L2243.4 1518.55 L2235.09 1520.21 L2235.09 1515.95 L2243.35 1514.29 L2248.02 1514.29 L2248.02 1544.91 L2255.66 1544.91 L2255.66 1548.85 L2235.76 1548.85 L2235.76 1544.91 Z" fill="#000000" fill-rule="nonzero" fill-opacity="1" /><path clip-path="url(#clip950)" d="M2275.11 1517.37 Q2271.5 1517.37 2269.67 1520.93 Q2267.86 1524.47 2267.86 1531.6 Q2267.86 1538.71 2269.67 1542.27 Q2271.5 1545.82 2275.11 1545.82 Q2278.74 1545.82 2280.55 1542.27 Q2282.38 1538.71 2282.38 1531.6 Q2282.38 1524.47 2280.55 1520.93 Q2278.74 1517.37 2275.11 1517.37 M2275.11 1513.66 Q2280.92 1513.66 2283.97 1518.27 Q2287.05 1522.85 2287.05 1531.6 Q2287.05 1540.33 2283.97 1544.94 Q2280.92 1549.52 2275.11 1549.52 Q2269.3 1549.52 2266.22 1544.94 Q2263.16 1540.33 2263.16 1531.6 Q2263.16 1522.85 2266.22 1518.27 Q2269.3 1513.66 2275.11 1513.66 Z" fill="#000000" fill-rule="nonzero" fill-opacity="1" /><path clip-path="url(#clip950)" d="M2305.27 1517.37 Q2301.66 1517.37 2299.83 1520.93 Q2298.02 1524.47 2298.02 1531.6 Q2298.02 1538.71 2299.83 1542.27 Q2301.66 1545.82 2305.27 1545.82 Q2308.9 1545.82 2310.71 1542.27 Q2312.54 1538.71 2312.54 1531.6 Q2312.54 1524.47 2310.71 1520.93 Q2308.9 1517.37 2305.27 1517.37 M2305.27 1513.66 Q2311.08 1513.66 2314.14 1518.27 Q2317.21 1522.85 2317.21 1531.6 Q2317.21 1540.33 2314.14 1544.94 Q2311.08 1549.52 2305.27 1549.52 Q2299.46 1549.52 2296.38 1544.94 Q2293.33 1540.33 2293.33 1531.6 Q2293.33 1522.85 2296.38 1518.27 Q2299.46 1513.66 2305.27 1513.66 Z" fill="#000000" fill-rule="nonzero" fill-opacity="1" /><path clip-path="url(#clip950)" d="M2335.43 1517.37 Q2331.82 1517.37 2329.99 1520.93 Q2328.19 1524.47 2328.19 1531.6 Q2328.19 1538.71 2329.99 1542.27 Q2331.82 1545.82 2335.43 1545.82 Q2339.07 1545.82 2340.87 1542.27 Q2342.7 1538.71 2342.7 1531.6 Q2342.7 1524.47 2340.87 1520.93 Q2339.07 1517.37 2335.43 1517.37 M2335.43 1513.66 Q2341.24 1513.66 2344.3 1518.27 Q2347.38 1522.85 2347.38 1531.6 Q2347.38 1540.33 2344.3 1544.94 Q2341.24 1549.52 2335.43 1549.52 Q2329.62 1549.52 2326.54 1544.94 Q2323.49 1540.33 2323.49 1531.6 Q2323.49 1522.85 2326.54 1518.27 Q2329.62 1513.66 2335.43 1513.66 Z" fill="#000000" fill-rule="nonzero" fill-opacity="1" /><polyline clip-path="url(#clip950)" style="stroke:#000000; stroke-linecap:round; stroke-linejoin:round; stroke-width:4; stroke-opacity:1; fill:none" points="178.867,1486.45 178.867,847.244 "/>
<polyline clip-path="url(#clip950)" style="stroke:#000000; stroke-linecap:round; stroke-linejoin:round; stroke-width:4; stroke-opacity:1; fill:none" points="178.867,1486.45 197.764,1486.45 "/>
<polyline clip-path="url(#clip950)" style="stroke:#000000; stroke-linecap:round; stroke-linejoin:round; stroke-width:4; stroke-opacity:1; fill:none" points="178.867,1326.65 197.764,1326.65 "/>
<polyline clip-path="url(#clip950)" style="stroke:#000000; stroke-linecap:round; stroke-linejoin:round; stroke-width:4; stroke-opacity:1; fill:none" points="178.867,1166.85 197.764,1166.85 "/>
<polyline clip-path="url(#clip950)" style="stroke:#000000; stroke-linecap:round; stroke-linejoin:round; stroke-width:4; stroke-opacity:1; fill:none" points="178.867,1007.05 197.764,1007.05 "/>
<polyline clip-path="url(#clip950)" style="stroke:#000000; stroke-linecap:round; stroke-linejoin:round; stroke-width:4; stroke-opacity:1; fill:none" points="178.867,847.244 197.764,847.244 "/>
<path clip-path="url(#clip950)" d="M50.9921 1486.9 L80.6679 1486.9 L80.6679 1490.83 L50.9921 1490.83 L50.9921 1486.9 Z" fill="#000000" fill-rule="nonzero" fill-opacity="1" /><path clip-path="url(#clip950)" d="M91.5706 1499.79 L99.2095 1499.79 L99.2095 1473.43 L90.8993 1475.09 L90.8993 1470.83 L99.1632 1469.17 L103.839 1469.17 L103.839 1499.79 L111.478 1499.79 L111.478 1503.73 L91.5706 1503.73 L91.5706 1499.79 Z" fill="#000000" fill-rule="nonzero" fill-opacity="1" /><path clip-path="url(#clip950)" d="M130.922 1472.25 Q127.311 1472.25 125.482 1475.81 Q123.677 1479.35 123.677 1486.48 Q123.677 1493.59 125.482 1497.15 Q127.311 1500.7 130.922 1500.7 Q134.556 1500.7 136.362 1497.15 Q138.191 1493.59 138.191 1486.48 Q138.191 1479.35 136.362 1475.81 Q134.556 1472.25 130.922 1472.25 M130.922 1468.54 Q136.732 1468.54 139.788 1473.15 Q142.867 1477.73 142.867 1486.48 Q142.867 1495.21 139.788 1499.82 Q136.732 1504.4 130.922 1504.4 Q125.112 1504.4 122.033 1499.82 Q118.978 1495.21 118.978 1486.48 Q118.978 1477.73 122.033 1473.15 Q125.112 1468.54 130.922 1468.54 Z" fill="#000000" fill-rule="nonzero" fill-opacity="1" /><path clip-path="url(#clip950)" d="M82.1494 1327.1 L111.825 1327.1 L111.825 1331.03 L82.1494 1331.03 L82.1494 1327.1 Z" fill="#000000" fill-rule="nonzero" fill-opacity="1" /><path clip-path="url(#clip950)" d="M121.964 1309.37 L140.32 1309.37 L140.32 1313.3 L126.246 1313.3 L126.246 1321.77 Q127.265 1321.43 128.283 1321.27 Q129.302 1321.08 130.32 1321.08 Q136.107 1321.08 139.487 1324.25 Q142.867 1327.42 142.867 1332.84 Q142.867 1338.42 139.394 1341.52 Q135.922 1344.6 129.603 1344.6 Q127.427 1344.6 125.158 1344.23 Q122.913 1343.86 120.506 1343.12 L120.506 1338.42 Q122.589 1339.55 124.811 1340.11 Q127.033 1340.66 129.51 1340.66 Q133.515 1340.66 135.853 1338.56 Q138.191 1336.45 138.191 1332.84 Q138.191 1329.23 135.853 1327.12 Q133.515 1325.01 129.51 1325.01 Q127.635 1325.01 125.76 1325.43 Q123.908 1325.85 121.964 1326.73 L121.964 1309.37 Z" fill="#000000" fill-rule="nonzero" fill-opacity="1" /><path clip-path="url(#clip950)" d="M130.922 1152.64 Q127.311 1152.64 125.482 1156.21 Q123.677 1159.75 123.677 1166.88 Q123.677 1173.99 125.482 1177.55 Q127.311 1181.09 130.922 1181.09 Q134.556 1181.09 136.362 1177.55 Q138.191 1173.99 138.191 1166.88 Q138.191 1159.75 136.362 1156.21 Q134.556 1152.64 130.922 1152.64 M130.922 1148.94 Q136.732 1148.94 139.788 1153.55 Q142.867 1158.13 142.867 1166.88 Q142.867 1175.61 139.788 1180.21 Q136.732 1184.8 130.922 1184.8 Q125.112 1184.8 122.033 1180.21 Q118.978 1175.61 118.978 1166.88 Q118.978 1158.13 122.033 1153.55 Q125.112 1148.94 130.922 1148.94 Z" fill="#000000" fill-rule="nonzero" fill-opacity="1" /><path clip-path="url(#clip950)" d="M121.964 989.765 L140.32 989.765 L140.32 993.7 L126.246 993.7 L126.246 1002.17 Q127.265 1001.83 128.283 1001.66 Q129.302 1001.48 130.32 1001.48 Q136.107 1001.48 139.487 1004.65 Q142.867 1007.82 142.867 1013.24 Q142.867 1018.82 139.394 1021.92 Q135.922 1025 129.603 1025 Q127.427 1025 125.158 1024.63 Q122.913 1024.26 120.506 1023.51 L120.506 1018.82 Q122.589 1019.95 124.811 1020.51 Q127.033 1021.06 129.51 1021.06 Q133.515 1021.06 135.853 1018.95 Q138.191 1016.85 138.191 1013.24 Q138.191 1009.63 135.853 1007.52 Q133.515 1005.41 129.51 1005.41 Q127.635 1005.41 125.76 1005.83 Q123.908 1006.25 121.964 1007.13 L121.964 989.765 Z" fill="#000000" fill-rule="nonzero" fill-opacity="1" /><path clip-path="url(#clip950)" d="M91.5706 860.589 L99.2095 860.589 L99.2095 834.223 L90.8993 835.89 L90.8993 831.631 L99.1632 829.964 L103.839 829.964 L103.839 860.589 L111.478 860.589 L111.478 864.524 L91.5706 864.524 L91.5706 860.589 Z" fill="#000000" fill-rule="nonzero" fill-opacity="1" /><path clip-path="url(#clip950)" d="M130.922 833.043 Q127.311 833.043 125.482 836.608 Q123.677 840.149 123.677 847.279 Q123.677 854.385 125.482 857.95 Q127.311 861.492 130.922 861.492 Q134.556 861.492 136.362 857.95 Q138.191 854.385 138.191 847.279 Q138.191 840.149 136.362 836.608 Q134.556 833.043 130.922 833.043 M130.922 829.339 Q136.732 829.339 139.788 833.946 Q142.867 838.529 142.867 847.279 Q142.867 856.006 139.788 860.612 Q136.732 865.195 130.922 865.195 Q125.112 865.195 122.033 860.612 Q118.978 856.006 118.978 847.279 Q118.978 838.529 122.033 833.946 Q125.112 829.339 130.922 829.339 Z" fill="#000000" fill-rule="nonzero" fill-opacity="1" /><polyline clip-path="url(#clip953)" style="stroke:#009af9; stroke-linecap:round; stroke-linejoin:round; stroke-width:4; stroke-opacity:1; fill:none" points="240.392,1134.89 242.445,1110.4 244.498,1428.8 246.55,1244.66 248.603,1068.84 250.656,1112.89 252.709,1116.18 254.762,1095.91 256.815,1076.4 258.868,1219.84 260.921,1180.32 262.974,1320.09 265.027,1207.37 267.079,1434.01 269.132,984.571 271.185,1296.71 273.238,1038.87 275.291,1279.5 277.344,1190.44 279.397,1162.53 281.45,929.232 283.503,824.124 285.555,1105.49 287.608,1054.53 289.661,1778.35 291.714,1201.89 293.767,1136.3 295.82,1062.11 297.873,1134.84 299.926,1162.29 301.979,1090.29 304.031,1283.72 306.084,1049.55 308.137,1172.58 310.19,1172.12 312.243,1154.11 314.296,1189.26 316.349,1248.93 318.402,1126.03 320.455,1124.11 322.507,1178.95 324.56,1134.05 326.613,1163.72 328.666,1194.48 330.719,1143.63 332.772,1140.1 334.825,1178.75 336.878,1217.55 338.931,987.464 340.984,1212.2 343.036,1185.76 345.089,1119.64 347.142,1129.74 349.195,1169.34 351.248,1147.63 353.301,1150.8 355.354,1147.85 357.407,1178.95 359.46,1163.04 361.512,1172.63 363.565,1184.35 365.618,1190.59 367.671,1133.19 369.724,1127.69 371.777,1171.83 373.83,1153.9 375.883,1181.24 377.936,1140.37 379.988,1165.72 382.041,1171.81 384.094,1142.22 386.147,1204.63 388.2,1293.06 390.253,1382.75 392.306,1185.38 394.359,1141.04 396.412,1151.78 398.464,1191.22 400.517,1153.87 402.57,1174.84 404.623,1193.12 406.676,1198.48 408.729,1163.55 410.782,1230.29 412.835,1286.48 414.888,1228.19 416.94,768.08 418.993,1560.94 421.046,629.077 423.099,863.73 425.152,987.852 427.205,1592.8 429.258,1785.19 431.311,306.096 433.364,1652 435.417,1988.43 437.469,155.753 439.522,1183.23 441.575,1196.98 443.628,1214.47 445.681,1194.81 447.734,1149.54 449.787,1242.77 451.84,1073.89 453.893,1142.6 455.945,1278.04 457.998,1160.48 460.051,1148.31 462.104,1169.47 464.157,1175.71 466.21,1126.08 468.263,1138.22 470.316,1195.01 472.369,1184.28 474.421,1147.05 476.474,1188.03 478.527,1084.47 480.58,1232.78 482.633,1115.07 484.686,1177.46 486.739,912.068 488.792,1181.77 490.845,1185.88 492.897,1220.38 494.95,1131.03 497.003,1227.59 499.056,1154.83 501.109,1214.75 503.162,1181.45 505.215,1184.6 507.268,1172.67 509.321,1194.89 511.374,813.363 513.426,1309.13 515.479,1442.14 517.532,1206.99 519.585,1156.56 521.638,1080.31 523.691,1208.56 525.744,1166.36 527.797,1201.5 529.85,1146.18 531.902,1163.79 533.955,1206.5 536.008,852.501 538.061,1832.74 540.114,409.955 542.167,-232.532 544.22,1744.17 546.273,1502.77 548.326,1001.39 550.378,3184.04 552.431,1270.07 554.484,1288.46 556.537,1177.99 558.59,1163.87 560.643,1220.75 562.696,1128.19 564.749,1129.14 566.802,1216.21 568.854,1157.93 570.907,1169.27 572.96,1167.69 575.013,1155.24 577.066,1193.37 579.119,1154.03 581.172,1151.91 583.225,1142 585.278,1176.06 587.331,1161.11 589.383,1167.06 591.436,1247.91 593.489,1376.85 595.542,1279.7 597.595,1157.93 599.648,1196.35 601.701,1282.29 603.754,1211.97 605.807,874.097 607.859,1196.32 609.912,1237.15 611.965,778.782 614.018,1081.3 616.071,1041.45 618.124,1190.66 620.177,1157.81 622.23,1117.75 624.283,1131.61 626.335,1189.91 628.388,1238.93 630.441,1048.26 632.494,1292.77 634.547,1048.17 636.6,1275.89 638.653,1440.26 640.706,1251.22 642.759,1216.77 644.811,1203.91 646.864,1192.9 648.917,1163.15 650.97,1174.16 653.023,1175.36 655.076,1179.23 657.129,1067.28 659.182,1200.23 661.235,1076.73 663.288,1147.74 665.34,760.845 667.393,1954.92 669.446,17169.9 671.499,-5579.91 673.552,-338.311 675.605,1413.63 677.658,1211.96 679.711,1265.28 681.764,1106.73 683.816,1057.77 685.869,1063.79 687.922,1183.47 689.975,1155.65 692.028,1130.76 694.081,1060.21 696.134,878.68 698.187,1561.88 700.24,918.542 702.292,1145.05 704.345,1158.04 706.398,1173.16 708.451,1141.26 710.504,1159.31 712.557,1129.91 714.61,1153.31 716.663,1108.19 718.716,1228.65 720.768,1192.88 722.821,1193.85 724.874,1175.25 726.927,1184.56 728.98,1164.59 731.033,1158.29 733.086,1094.91 735.139,1241.17 737.192,1218.99 739.245,1136.86 741.297,1168.73 743.35,1068.03 745.403,1070.18 747.456,1154.28 749.509,1127.78 751.562,1178.26 753.615,1177.15 755.668,1235.9 757.721,1120.62 759.773,1198.44 761.826,1536.89 763.879,931.147 765.932,1326.07 767.985,1275.26 770.038,1166.61 772.091,1141.53 774.144,1183.05 776.197,1200.13 778.249,1151.41 780.302,1181.27 782.355,1133.45 784.408,1144.39 786.461,1165.37 788.514,1189.35 790.567,1197.25 792.62,1156.17 794.673,1168.07 796.725,1162.76 798.778,1230.19 800.831,1273.73 802.884,1354.61 804.937,1188.49 806.99,1176.78 809.043,1133.87 811.096,1172.83 813.149,1149.36 815.202,1144.2 817.254,1111.79 819.307,1187.32 821.36,1245.29 823.413,1124.26 825.466,1199.48 827.519,1204.25 829.572,2541.79 831.625,1148.86 833.678,1299.73 835.73,1167.6 837.783,1178.48 839.836,1138.45 841.889,1193.37 843.942,1276.49 845.995,1113.21 848.048,1200.85 850.101,1025.82 852.154,1069.36 854.206,1559.55 856.259,1086.87 858.312,1115.79 860.365,1109.15 862.418,1231.09 864.471,1205.76 866.524,1382.91 868.577,2330.85 870.63,955.891 872.682,1256.41 874.735,1422.13 876.788,1199.18 878.841,1095.24 880.894,1109.8 882.947,1190.5 885,1159.05 887.053,1170.68 889.106,1147.58 891.159,1152.7 893.211,1032.35 895.264,790.997 897.317,1249.91 899.37,978.276 901.423,1244.42 903.476,1245.82 905.529,1195.91 907.582,1174.66 909.635,1094.48 911.687,1062.39 913.74,1169.27 915.793,1162.67 917.846,1234.92 919.899,1362.77 921.952,1143.66 924.005,1067.5 926.058,1178.4 928.111,1150.61 930.163,1159.05 932.216,1199.29 934.269,1144.39 936.322,1110.11 938.375,1225.13 940.428,1204.73 942.481,1168.68 944.534,1170.13 946.587,1165.41 948.639,1147.71 950.692,1336.06 952.745,1375.62 954.798,2033.38 956.851,2524.95 958.904,392.348 960.957,1632.66 963.01,829.981 965.063,1390.32 967.116,1111.92 969.168,1199.2 971.221,1173.61 973.274,1255.66 975.327,1146.02 977.38,1103.82 979.433,1179.54 981.486,1138.96 983.539,1216.47 985.592,1166.7 987.644,1060.56 989.697,1506.33 991.75,1477.5 993.803,689.318 995.856,1375.27 997.909,1212.27 999.962,1130.56 1002.01,1184.39 1004.07,1130.5 1006.12,1206.7 1008.17,1171.52 1010.23,1130.34 1012.28,1035.24 1014.33,885.341 1016.38,1731.42 1018.44,1299.46 1020.49,1217.39 1022.54,1172.71 1024.6,1149.06 1026.65,1115.48 1028.7,1226.41 1030.76,1119.34 1032.81,1237.91 1034.86,1165.02 1036.91,1159.01 1038.97,1099.27 1041.02,1136.83 1043.07,1188.5 1045.13,1142.87 1047.18,1102.81 1049.23,1203.71 1051.28,1197.71 1053.34,1141.37 1055.39,1165.83 1057.44,1173.91 1059.5,1386.85 1061.55,1193.69 1063.6,1825.01 1065.65,1214.02 1067.71,1153.04 1069.76,1143.23 1071.81,1176.72 1073.87,1153.18 1075.92,1086.95 1077.97,1163.29 1080.02,1162.49 1082.08,1137.76 1084.13,1159.69 1086.18,1165.25 1088.24,1154.04 1090.29,1163.04 1092.34,1159.65 1094.39,1186.56 1096.45,1168.83 1098.5,1227.98 1100.55,1262.65 1102.61,1335.99 1104.66,1040.86 1106.71,1190.32 1108.77,1244.23 1110.82,1046.8 1112.87,1220.69 1114.92,1110.18 1116.98,1080.52 1119.03,1189.15 1121.08,1149.23 1123.14,1172.78 1125.19,1166.15 1127.24,1254.21 1129.29,1128.71 1131.35,1252.98 1133.4,1183.98 1135.45,1154.81 1137.51,1107.46 1139.56,1303.08 1141.61,1058.49 1143.66,1196.66 1145.72,1225.31 1147.77,1154.23 1149.82,1696.23 1151.88,850.117 1153.93,1100.76 1155.98,1160.73 1158.03,1170.95 1160.09,1162.45 1162.14,1174.11 1164.19,1159.27 1166.25,1171.69 1168.3,1148.73 1170.35,1133.85 1172.4,1156.62 1174.46,1162.25 1176.51,1180.14 1178.56,1158.94 1180.62,1162.98 1182.67,1173.5 1184.72,1168.52 1186.77,1161.13 1188.83,1166.41 1190.88,1172.32 1192.93,1154.95 1194.99,1153.07 1197.04,1175.3 1199.09,1175.88 1201.15,1106.41 1203.2,1149.15 1205.25,1132.21 1207.3,1171.72 1209.36,1177.86 1211.41,1180.47 1213.46,1135.46 1215.52,1231.79 1217.57,1203.44 1219.62,1171.13 1221.67,1177.94 1223.73,1286.18 1225.78,1212.41 1227.83,1176.44 1229.89,1166.98 1231.94,1160.33 1233.99,1126.91 1236.04,1220.86 1238.1,1100.44 1240.15,1203.03 1242.2,1166.64 1244.26,1168.77 1246.31,1191.7 1248.36,1139.89 1250.41,1124.13 1252.47,1139.12 1254.52,1225.72 1256.57,1175.33 1258.63,1166.21 1260.68,1179.96 1262.73,1186.71 1264.78,1208.71 1266.84,1149.67 1268.89,1151.77 1270.94,1115.45 1273,1091.25 1275.05,1169.81 1277.1,1182.5 1279.16,1135.54 1281.21,1204.14 1283.26,1272.96 1285.31,1267.16 1287.37,1074.33 1289.42,1147.66 1291.47,1201.63 1293.53,1256.09 1295.58,1144.79 1297.63,1176.76 1299.68,1170.62 1301.74,1264.82 1303.79,1136.15 1305.84,1106.1 1307.9,1187.93 1309.95,1138.49 1312,1274.52 1314.05,1172.89 1316.11,2049.84 1318.16,888.569 1320.21,507.639 1322.27,949.914 1324.32,1425.03 1326.37,1152.62 1328.42,1176.47 1330.48,1129.63 1332.53,1180.95 1334.58,1167.19 1336.64,1175.91 1338.69,1174.82 1340.74,1162.83 1342.79,1169.87 1344.85,1159.61 1346.9,1200.29 1348.95,1074.69 1351.01,1106.79 1353.06,1201.4 1355.11,1193.18 1357.16,1237.57 1359.22,1107.09 1361.27,1178.99 1363.32,1147.47 1365.38,1176.47 1367.43,1162.1 1369.48,1158.82 1371.54,1168.67 1373.59,1191.15 1375.64,1256.23 1377.69,1133.89 1379.75,1149.22 1381.8,1134.75 1383.85,1182.23 1385.91,1159.42 1387.96,1201.59 1390.01,1208.91 1392.06,1138.69 1394.12,1209.69 1396.17,1261.07 1398.22,905.134 1400.28,1158.7 1402.33,1216.81 1404.38,2090.14 1406.43,936.506 1408.49,926.427 1410.54,800.635 1412.59,1030.41 1414.65,1127.82 1416.7,1123.79 1418.75,1124.2 1420.8,1114.92 1422.86,1246.56 1424.91,1140.4 1426.96,1156.65 1429.02,1176.72 1431.07,1179.36 1433.12,1157.16 1435.17,1095.21 1437.23,1336.47 1439.28,1156.71 1441.33,1141.38 1443.39,1178.27 1445.44,1173.86 1447.49,1136.44 1449.55,1181.36 1451.6,1169.34 1453.65,1171.2 1455.7,1185.74 1457.76,1180.22 1459.81,1191.78 1461.86,1165.12 1463.92,1179.94 1465.97,1137.79 1468.02,1095.3 1470.07,1252.28 1472.13,1199.67 1474.18,1198.35 1476.23,1060.9 1478.29,1061.84 1480.34,1260.58 1482.39,1318.48 1484.44,2179.6 1486.5,258.846 1488.55,1220.36 1490.6,1234.74 1492.66,1210.76 1494.71,1190.07 1496.76,1153 1498.81,1194.55 1500.87,1122.32 1502.92,1131.94 1504.97,1204.69 1507.03,1229.34 1509.08,1132.81 1511.13,1187.43 1513.18,1185.6 1515.24,1143.67 1517.29,1182.83 1519.34,1164.34 1521.4,1173.06 1523.45,1208.85 1525.5,1161.53 1527.55,1130.06 1529.61,1119.16 1531.66,1102.61 1533.71,1202.87 1535.77,1114.28 1537.82,1252.03 1539.87,1265.8 1541.93,1186.75 1543.98,1157.19 1546.03,1208.96 1548.08,1139.36 1550.14,1219.81 1552.19,1225.05 1554.24,1213.46 1556.3,1221.82 1558.35,1128.99 1560.4,1136.14 1562.45,1149.72 1564.51,1255.73 1566.56,1113.85 1568.61,1182.1 1570.67,1151.91 1572.72,1151 1574.77,1157.31 1576.82,1153.44 1578.88,1117.56 1580.93,1170.5 1582.98,1142.87 1585.04,1219.11 1587.09,1191.05 1589.14,1148.04 1591.19,1145.6 1593.25,1187.23 1595.3,1169.48 1597.35,1174.71 1599.41,1162.14 1601.46,1187.8 1603.51,1025.03 1605.56,1147.46 1607.62,1176.38 1609.67,1212 1611.72,1154.61 1613.78,1193.26 1615.83,1194.71 1617.88,1170.28 1619.94,1151.6 1621.99,1236.36 1624.04,1194.07 1626.09,1180.74 1628.15,1147.51 1630.2,1261.95 1632.25,1345.55 1634.31,1196.8 1636.36,1035.65 1638.41,1038.34 1640.46,1232.1 1642.52,1173.44 1644.57,1219.04 1646.62,1157.06 1648.68,1162.86 1650.73,1193.65 1652.78,1182.51 1654.83,1135.74 1656.89,1163.5 1658.94,1168.17 1660.99,1182.4 1663.05,988.199 1665.1,1156.39 1667.15,1165.83 1669.2,1151.73 1671.26,1182.89 1673.31,1162.49 1675.36,1189.26 1677.42,1088.61 1679.47,1176.48 1681.52,1111.54 1683.57,1146 1685.63,1192.9 1687.68,1038.24 1689.73,1010.48 1691.79,951.26 1693.84,1192.82 1695.89,1224.82 1697.94,1086.56 1700,1168.88 1702.05,1191.31 1704.1,1065.89 1706.16,1162.74 1708.21,1096.02 1710.26,1206.03 1712.32,1282.83 1714.37,1291.35 1716.42,1269.35 1718.47,1011.73 1720.53,1071.06 1722.58,1375.98 1724.63,862.197 1726.69,1111.74 1728.74,1022.75 1730.79,1060.68 1732.84,1266.61 1734.9,1184.4 1736.95,1199.85 1739,1156.11 1741.06,1165.17 1743.11,1146.09 1745.16,1188.52 1747.21,1156.85 1749.27,1313.07 1751.32,1232.84 1753.37,1027.61 1755.43,1184.51 1757.48,1260.17 1759.53,1149.11 1761.58,1192.77 1763.64,1220.25 1765.69,1286.05 1767.74,1073.49 1769.8,1161.83 1771.85,1190.41 1773.9,1162.26 1775.95,1251.95 1778.01,1154 1780.06,944.488 1782.11,1202.76 1784.17,1137.9 1786.22,1239.21 1788.27,1140.25 1790.33,1171.35 1792.38,1185.23 1794.43,1154.79 1796.48,1175.78 1798.54,1159.7 1800.59,1165.18 1802.64,1138.44 1804.7,1138.73 1806.75,1203.01 1808.8,1175.77 1810.85,1186.04 1812.91,1173.03 1814.96,1160.99 1817.01,1172.84 1819.07,1169.64 1821.12,1148.86 1823.17,1145.14 1825.22,1166.16 1827.28,1178.86 1829.33,1149.88 1831.38,1190.65 1833.44,1203.75 1835.49,1142.63 1837.54,1149.83 1839.59,962.475 1841.65,1211.36 1843.7,1180.73 1845.75,1222.28 1847.81,1148.33 1849.86,1175.03 1851.91,1153.49 1853.96,1301.93 1856.02,1140.18 1858.07,1164.1 1860.12,1151.54 1862.18,1166.85 1864.23,1150.29 1866.28,1158.82 1868.34,1198.86 1870.39,1086.86 1872.44,1228.17 1874.49,1071.83 1876.55,979.553 1878.6,748.533 1880.65,692.426 1882.71,1096.14 1884.76,1152.33 1886.81,1194.32 1888.86,1146.79 1890.92,1176.2 1892.97,1179.76 1895.02,1170.58 1897.08,1212.96 1899.13,1164.39 1901.18,1167.31 1903.23,1175.72 1905.29,1200.72 1907.34,1114.16 1909.39,1161.82 1911.45,1168.57 1913.5,1230.02 1915.55,1064.05 1917.6,1091.27 1919.66,1106.99 1921.71,1150.19 1923.76,1208.11 1925.82,1185.89 1927.87,1165.78 1929.92,1255.87 1931.97,1276.97 1934.03,1074.74 1936.08,1065.13 1938.13,1169.94 1940.19,1232.33 1942.24,1180.61 1944.29,1150.92 1946.34,1151.19 1948.4,1120.15 1950.45,1209.32 1952.5,1206.01 1954.56,1081.75 1956.61,1161.06 1958.66,1186.1 1960.72,1198.36 1962.77,1138.92 1964.82,1183.42 1966.87,1151.42 1968.93,1155.24 1970.98,1205.38 1973.03,1193.74 1975.09,1141.83 1977.14,1698.22 1979.19,1279.89 1981.24,1427.57 1983.3,1457.93 1985.35,1273.79 1987.4,1165.29 1989.46,1123.46 1991.51,1170.04 1993.56,1173.25 1995.61,1170.96 1997.67,1175.57 1999.72,1183.41 2001.77,838.715 2003.83,519.098 2005.88,1962.52 2007.93,1350.73 2009.98,1148.75 2012.04,1230.89 2014.09,1149.18 2016.14,1280.79 2018.2,1232.4 2020.25,1120.8 2022.3,1186.21 2024.35,1158.72 2026.41,1174.31 2028.46,1164.28 2030.51,1151.47 2032.57,1185.04 2034.62,1465.26 2036.67,1270.48 2038.73,1291.09 2040.78,1007.06 2042.83,1247.17 2044.88,1121.53 2046.94,1247.99 2048.99,1228.12 2051.04,1137.07 2053.1,1160.5 2055.15,1088.31 2057.2,1116.83 2059.25,1200.82 2061.31,1219.49 2063.36,1181.89 2065.41,1018.98 2067.47,1213.11 2069.52,1190.51 2071.57,1185.96 2073.62,1188.61 2075.68,1170.85 2077.73,1109.18 2079.78,1140.71 2081.84,1250.88 2083.89,1213.56 2085.94,1181.23 2087.99,1209.79 2090.05,1218.04 2092.1,1186.39 2094.15,1239.01 2096.21,1141.82 2098.26,1374.94 2100.31,1284.01 2102.36,1243.88 2104.42,1915.91 2106.47,701.273 2108.52,724.369 2110.58,1046.45 2112.63,1263.09 2114.68,1187.57 2116.73,1139.9 2118.79,1330.55 2120.84,1141.51 2122.89,724.267 2124.95,1366.08 2127,1145.81 2129.05,1136.52 2131.11,1156.83 2133.16,1171.64 2135.21,1152.55 2137.26,1141.87 2139.32,1174.75 2141.37,1188 2143.42,1190.69 2145.48,1126.24 2147.53,1178.49 2149.58,1170.56 2151.63,1155.94 2153.69,1163.26 2155.74,1159.93 2157.79,1161.65 2159.85,1114.87 2161.9,1012.47 2163.95,1157.78 2166,1178.97 2168.06,1159.27 2170.11,1167.55 2172.16,1201.69 2174.22,1200.12 2176.27,1146.98 2178.32,1264.08 2180.37,1111.85 2182.43,1165.53 2184.48,1150.67 2186.53,1186.94 2188.59,1166.29 2190.64,1179.37 2192.69,1159.8 2194.74,1260.37 2196.8,1140.6 2198.85,1137.78 2200.9,1200.41 2202.96,1178.03 2205.01,1231.08 2207.06,1119.37 2209.12,1173 2211.17,1173.17 2213.22,1177.66 2215.27,1156.93 2217.33,1162.18 2219.38,1224.68 2221.43,1107.21 2223.49,1242.17 2225.54,1145.7 2227.59,1203.7 2229.64,1123.4 2231.7,1199.78 2233.75,1267.95 2235.8,1212.13 2237.86,1162.92 2239.91,1175.82 2241.96,1160.88 2244.01,1111.78 2246.07,1221.45 2248.12,1187.42 2250.17,1217.2 2252.23,1142.02 2254.28,1112.95 2256.33,1216.99 2258.38,1099.09 2260.44,1093.59 2262.49,1691.87 2264.54,1081.82 2266.6,878.552 2268.65,1328.03 2270.7,1615.12 2272.75,1478.78 2274.81,1357.3 2276.86,1161.42 2278.91,1157.4 2280.97,1169.62 2283.02,1177.92 2285.07,1186.24 2287.12,1161.07 2289.18,1213.81 2291.23,1161.76 "/>
<path clip-path="url(#clip950)" d="M1942.7 972.231 L2280.29 972.231 L2280.29 868.551 L1942.7 868.551  Z" fill="#ffffff" fill-rule="evenodd" fill-opacity="1"/>
<polyline clip-path="url(#clip950)" style="stroke:#000000; stroke-linecap:round; stroke-linejoin:round; stroke-width:4; stroke-opacity:1; fill:none" points="1942.7,972.231 2280.29,972.231 2280.29,868.551 1942.7,868.551 1942.7,972.231 "/>
<polyline clip-path="url(#clip950)" style="stroke:#009af9; stroke-linecap:round; stroke-linejoin:round; stroke-width:4; stroke-opacity:1; fill:none" points="1966.85,920.391 2111.78,920.391 "/>
<path clip-path="url(#clip950)" d="M2161.49 932.74 L2161.49 923.458 L2153.85 923.458 L2153.85 919.615 L2166.12 919.615 L2166.12 934.453 Q2163.41 936.375 2160.14 937.37 Q2156.88 938.342 2153.18 938.342 Q2145.07 938.342 2140.49 933.62 Q2135.93 928.875 2135.93 920.426 Q2135.93 911.953 2140.49 907.231 Q2145.07 902.486 2153.18 902.486 Q2156.56 902.486 2159.59 903.319 Q2162.64 904.153 2165.21 905.773 L2165.21 910.75 Q2162.62 908.551 2159.7 907.44 Q2156.79 906.328 2153.57 906.328 Q2147.23 906.328 2144.03 909.87 Q2140.86 913.412 2140.86 920.426 Q2140.86 927.416 2144.03 930.958 Q2147.23 934.5 2153.57 934.5 Q2156.05 934.5 2157.99 934.083 Q2159.94 933.643 2161.49 932.74 Z" fill="#000000" fill-rule="nonzero" fill-opacity="1" /><path clip-path="url(#clip950)" d="M2179.33 906.953 L2179.33 919.94 L2185.21 919.94 Q2188.48 919.94 2190.26 918.25 Q2192.04 916.56 2192.04 913.435 Q2192.04 910.333 2190.26 908.643 Q2188.48 906.953 2185.21 906.953 L2179.33 906.953 M2174.66 903.111 L2185.21 903.111 Q2191.02 903.111 2193.99 905.75 Q2196.97 908.365 2196.97 913.435 Q2196.97 918.551 2193.99 921.166 Q2191.02 923.782 2185.21 923.782 L2179.33 923.782 L2179.33 937.671 L2174.66 937.671 L2174.66 903.111 Z" fill="#000000" fill-rule="nonzero" fill-opacity="1" /><path clip-path="url(#clip950)" d="M2223.96 904.245 L2223.96 908.805 Q2221.3 907.532 2218.94 906.907 Q2216.58 906.282 2214.38 906.282 Q2210.56 906.282 2208.48 907.764 Q2206.42 909.245 2206.42 911.977 Q2206.42 914.268 2207.78 915.449 Q2209.17 916.606 2213.01 917.324 L2215.84 917.902 Q2221.07 918.898 2223.55 921.421 Q2226.05 923.921 2226.05 928.134 Q2226.05 933.157 2222.67 935.75 Q2219.31 938.342 2212.81 938.342 Q2210.35 938.342 2207.57 937.787 Q2204.82 937.231 2201.86 936.143 L2201.86 931.328 Q2204.7 932.926 2207.44 933.736 Q2210.17 934.546 2212.81 934.546 Q2216.81 934.546 2218.99 932.972 Q2221.16 931.398 2221.16 928.481 Q2221.16 925.935 2219.59 924.5 Q2218.04 923.064 2214.47 922.347 L2211.62 921.791 Q2206.39 920.75 2204.06 918.527 Q2201.72 916.305 2201.72 912.347 Q2201.72 907.764 2204.94 905.125 Q2208.18 902.486 2213.85 902.486 Q2216.28 902.486 2218.8 902.926 Q2221.32 903.366 2223.96 904.245 Z" fill="#000000" fill-rule="nonzero" fill-opacity="1" /><path clip-path="url(#clip950)" d="M2254.06 904.245 L2254.06 908.805 Q2251.39 907.532 2249.03 906.907 Q2246.67 906.282 2244.47 906.282 Q2240.65 906.282 2238.57 907.764 Q2236.51 909.245 2236.51 911.977 Q2236.51 914.268 2237.87 915.449 Q2239.26 916.606 2243.11 917.324 L2245.93 917.902 Q2251.16 918.898 2253.64 921.421 Q2256.14 923.921 2256.14 928.134 Q2256.14 933.157 2252.76 935.75 Q2249.4 938.342 2242.9 938.342 Q2240.44 938.342 2237.67 937.787 Q2234.91 937.231 2231.95 936.143 L2231.95 931.328 Q2234.8 932.926 2237.53 933.736 Q2240.26 934.546 2242.9 934.546 Q2246.9 934.546 2249.08 932.972 Q2251.25 931.398 2251.25 928.481 Q2251.25 925.935 2249.68 924.5 Q2248.13 923.064 2244.56 922.347 L2241.72 921.791 Q2236.49 920.75 2234.15 918.527 Q2231.81 916.305 2231.81 912.347 Q2231.81 907.764 2235.03 905.125 Q2238.27 902.486 2243.94 902.486 Q2246.37 902.486 2248.89 902.926 Q2251.42 903.366 2254.06 904.245 Z" fill="#000000" fill-rule="nonzero" fill-opacity="1" /></svg>
