<?xml version="1.0" encoding="utf-8"?>
<svg xmlns="http://www.w3.org/2000/svg" xmlns:xlink="http://www.w3.org/1999/xlink" width="600" height="400" viewBox="0 0 2400 1600">
<defs>
  <clipPath id="clip040">
    <rect x="0" y="0" width="2400" height="1600"/>
  </clipPath>
</defs>
<path clip-path="url(#clip040)" d="M0 1600 L2400 1600 L2400 0 L0 0  Z" fill="#ffffff" fill-rule="evenodd" fill-opacity="1"/>
<defs>
  <clipPath id="clip041">
    <rect x="480" y="0" width="1681" height="1600"/>
  </clipPath>
</defs>
<path clip-path="url(#clip040)" d="M178.867 686.448 L2352.76 686.448 L2352.76 47.2441 L178.867 47.2441  Z" fill="#ffffff" fill-rule="evenodd" fill-opacity="1"/>
<defs>
  <clipPath id="clip042">
    <rect x="178" y="47" width="2175" height="640"/>
  </clipPath>
</defs>
<polyline clip-path="url(#clip042)" style="stroke:#000000; stroke-linecap:round; stroke-linejoin:round; stroke-width:2; stroke-opacity:0.1; fill:none" points="238.339,686.448 238.339,47.2441 "/>
<polyline clip-path="url(#clip042)" style="stroke:#000000; stroke-linecap:round; stroke-linejoin:round; stroke-width:2; stroke-opacity:0.1; fill:none" points="751.562,686.448 751.562,47.2441 "/>
<polyline clip-path="url(#clip042)" style="stroke:#000000; stroke-linecap:round; stroke-linejoin:round; stroke-width:2; stroke-opacity:0.1; fill:none" points="1264.78,686.448 1264.78,47.2441 "/>
<polyline clip-path="url(#clip042)" style="stroke:#000000; stroke-linecap:round; stroke-linejoin:round; stroke-width:2; stroke-opacity:0.1; fill:none" points="1778.01,686.448 1778.01,47.2441 "/>
<polyline clip-path="url(#clip042)" style="stroke:#000000; stroke-linecap:round; stroke-linejoin:round; stroke-width:2; stroke-opacity:0.1; fill:none" points="2291.23,686.448 2291.23,47.2441 "/>
<polyline clip-path="url(#clip042)" style="stroke:#000000; stroke-linecap:round; stroke-linejoin:round; stroke-width:2; stroke-opacity:0.1; fill:none" points="178.867,686.448 2352.76,686.448 "/>
<polyline clip-path="url(#clip042)" style="stroke:#000000; stroke-linecap:round; stroke-linejoin:round; stroke-width:2; stroke-opacity:0.1; fill:none" points="178.867,526.647 2352.76,526.647 "/>
<polyline clip-path="url(#clip042)" style="stroke:#000000; stroke-linecap:round; stroke-linejoin:round; stroke-width:2; stroke-opacity:0.1; fill:none" points="178.867,366.846 2352.76,366.846 "/>
<polyline clip-path="url(#clip042)" style="stroke:#000000; stroke-linecap:round; stroke-linejoin:round; stroke-width:2; stroke-opacity:0.1; fill:none" points="178.867,207.045 2352.76,207.045 "/>
<polyline clip-path="url(#clip042)" style="stroke:#000000; stroke-linecap:round; stroke-linejoin:round; stroke-width:2; stroke-opacity:0.1; fill:none" points="178.867,47.2441 2352.76,47.2441 "/>
<polyline clip-path="url(#clip040)" style="stroke:#000000; stroke-linecap:round; stroke-linejoin:round; stroke-width:4; stroke-opacity:1; fill:none" points="178.867,686.448 2352.76,686.448 "/>
<polyline clip-path="url(#clip040)" style="stroke:#000000; stroke-linecap:round; stroke-linejoin:round; stroke-width:4; stroke-opacity:1; fill:none" points="238.339,686.448 238.339,667.55 "/>
<polyline clip-path="url(#clip040)" style="stroke:#000000; stroke-linecap:round; stroke-linejoin:round; stroke-width:4; stroke-opacity:1; fill:none" points="751.562,686.448 751.562,667.55 "/>
<polyline clip-path="url(#clip040)" style="stroke:#000000; stroke-linecap:round; stroke-linejoin:round; stroke-width:4; stroke-opacity:1; fill:none" points="1264.78,686.448 1264.78,667.55 "/>
<polyline clip-path="url(#clip040)" style="stroke:#000000; stroke-linecap:round; stroke-linejoin:round; stroke-width:4; stroke-opacity:1; fill:none" points="1778.01,686.448 1778.01,667.55 "/>
<polyline clip-path="url(#clip040)" style="stroke:#000000; stroke-linecap:round; stroke-linejoin:round; stroke-width:4; stroke-opacity:1; fill:none" points="2291.23,686.448 2291.23,667.55 "/>
<path clip-path="url(#clip040)" d="M238.339 717.367 Q234.728 717.367 232.899 720.931 Q231.094 724.473 231.094 731.603 Q231.094 738.709 232.899 742.274 Q234.728 745.815 238.339 745.815 Q241.973 745.815 243.779 742.274 Q245.607 738.709 245.607 731.603 Q245.607 724.473 243.779 720.931 Q241.973 717.367 238.339 717.367 M238.339 713.663 Q244.149 713.663 247.205 718.269 Q250.283 722.853 250.283 731.603 Q250.283 740.329 247.205 744.936 Q244.149 749.519 238.339 749.519 Q232.529 749.519 229.45 744.936 Q226.395 740.329 226.395 731.603 Q226.395 722.853 229.45 718.269 Q232.529 713.663 238.339 713.663 Z" fill="#000000" fill-rule="nonzero" fill-opacity="1" /><path clip-path="url(#clip040)" d="M715.254 744.913 L731.574 744.913 L731.574 748.848 L709.629 748.848 L709.629 744.913 Q712.291 742.158 716.875 737.528 Q721.481 732.876 722.662 731.533 Q724.907 729.01 725.787 727.274 Q726.689 725.515 726.689 723.825 Q726.689 721.07 724.745 719.334 Q722.824 717.598 719.722 717.598 Q717.523 717.598 715.069 718.362 Q712.638 719.126 709.861 720.677 L709.861 715.955 Q712.685 714.82 715.138 714.242 Q717.592 713.663 719.629 713.663 Q725 713.663 728.194 716.348 Q731.388 719.033 731.388 723.524 Q731.388 725.654 730.578 727.575 Q729.791 729.473 727.685 732.066 Q727.106 732.737 724.004 735.954 Q720.902 739.149 715.254 744.913 Z" fill="#000000" fill-rule="nonzero" fill-opacity="1" /><path clip-path="url(#clip040)" d="M741.435 714.288 L759.791 714.288 L759.791 718.223 L745.717 718.223 L745.717 726.695 Q746.736 726.348 747.754 726.186 Q748.773 726.001 749.791 726.001 Q755.578 726.001 758.958 729.172 Q762.337 732.343 762.337 737.76 Q762.337 743.339 758.865 746.44 Q755.393 749.519 749.073 749.519 Q746.898 749.519 744.629 749.149 Q742.384 748.778 739.976 748.038 L739.976 743.339 Q742.06 744.473 744.282 745.028 Q746.504 745.584 748.981 745.584 Q752.985 745.584 755.323 743.478 Q757.661 741.371 757.661 737.76 Q757.661 734.149 755.323 732.042 Q752.985 729.936 748.981 729.936 Q747.106 729.936 745.231 730.353 Q743.379 730.769 741.435 731.649 L741.435 714.288 Z" fill="#000000" fill-rule="nonzero" fill-opacity="1" /><path clip-path="url(#clip040)" d="M781.55 717.367 Q777.939 717.367 776.11 720.931 Q774.305 724.473 774.305 731.603 Q774.305 738.709 776.11 742.274 Q777.939 745.815 781.55 745.815 Q785.184 745.815 786.99 742.274 Q788.819 738.709 788.819 731.603 Q788.819 724.473 786.99 720.931 Q785.184 717.367 781.55 717.367 M781.55 713.663 Q787.36 713.663 790.416 718.269 Q793.495 722.853 793.495 731.603 Q793.495 740.329 790.416 744.936 Q787.36 749.519 781.55 749.519 Q775.74 749.519 772.661 744.936 Q769.606 740.329 769.606 731.603 Q769.606 722.853 772.661 718.269 Q775.74 713.663 781.55 713.663 Z" fill="#000000" fill-rule="nonzero" fill-opacity="1" /><path clip-path="url(#clip040)" d="M1224.4 714.288 L1242.76 714.288 L1242.76 718.223 L1228.69 718.223 L1228.69 726.695 Q1229.7 726.348 1230.72 726.186 Q1231.74 726.001 1232.76 726.001 Q1238.55 726.001 1241.93 729.172 Q1245.31 732.343 1245.31 737.76 Q1245.31 743.339 1241.83 746.44 Q1238.36 749.519 1232.04 749.519 Q1229.87 749.519 1227.6 749.149 Q1225.35 748.778 1222.94 748.038 L1222.94 743.339 Q1225.03 744.473 1227.25 745.028 Q1229.47 745.584 1231.95 745.584 Q1235.95 745.584 1238.29 743.478 Q1240.63 741.371 1240.63 737.76 Q1240.63 734.149 1238.29 732.042 Q1235.95 729.936 1231.95 729.936 Q1230.07 729.936 1228.2 730.353 Q1226.35 730.769 1224.4 731.649 L1224.4 714.288 Z" fill="#000000" fill-rule="nonzero" fill-opacity="1" /><path clip-path="url(#clip040)" d="M1264.52 717.367 Q1260.91 717.367 1259.08 720.931 Q1257.27 724.473 1257.27 731.603 Q1257.27 738.709 1259.08 742.274 Q1260.91 745.815 1264.52 745.815 Q1268.15 745.815 1269.96 742.274 Q1271.79 738.709 1271.79 731.603 Q1271.79 724.473 1269.96 720.931 Q1268.15 717.367 1264.52 717.367 M1264.52 713.663 Q1270.33 713.663 1273.38 718.269 Q1276.46 722.853 1276.46 731.603 Q1276.46 740.329 1273.38 744.936 Q1270.33 749.519 1264.52 749.519 Q1258.71 749.519 1255.63 744.936 Q1252.57 740.329 1252.57 731.603 Q1252.57 722.853 1255.63 718.269 Q1258.71 713.663 1264.52 713.663 Z" fill="#000000" fill-rule="nonzero" fill-opacity="1" /><path clip-path="url(#clip040)" d="M1294.68 717.367 Q1291.07 717.367 1289.24 720.931 Q1287.44 724.473 1287.44 731.603 Q1287.44 738.709 1289.24 742.274 Q1291.07 745.815 1294.68 745.815 Q1298.31 745.815 1300.12 742.274 Q1301.95 738.709 1301.95 731.603 Q1301.95 724.473 1300.12 720.931 Q1298.31 717.367 1294.68 717.367 M1294.68 713.663 Q1300.49 713.663 1303.55 718.269 Q1306.62 722.853 1306.62 731.603 Q1306.62 740.329 1303.55 744.936 Q1300.49 749.519 1294.68 749.519 Q1288.87 749.519 1285.79 744.936 Q1282.74 740.329 1282.74 731.603 Q1282.74 722.853 1285.79 718.269 Q1288.87 713.663 1294.68 713.663 Z" fill="#000000" fill-rule="nonzero" fill-opacity="1" /><path clip-path="url(#clip040)" d="M1736.28 714.288 L1758.51 714.288 L1758.51 716.279 L1745.96 748.848 L1741.08 748.848 L1752.88 718.223 L1736.28 718.223 L1736.28 714.288 Z" fill="#000000" fill-rule="nonzero" fill-opacity="1" /><path clip-path="url(#clip040)" d="M1767.67 714.288 L1786.03 714.288 L1786.03 718.223 L1771.95 718.223 L1771.95 726.695 Q1772.97 726.348 1773.99 726.186 Q1775.01 726.001 1776.03 726.001 Q1781.82 726.001 1785.2 729.172 Q1788.57 732.343 1788.57 737.76 Q1788.57 743.339 1785.1 746.44 Q1781.63 749.519 1775.31 749.519 Q1773.14 749.519 1770.87 749.149 Q1768.62 748.778 1766.21 748.038 L1766.21 743.339 Q1768.3 744.473 1770.52 745.028 Q1772.74 745.584 1775.22 745.584 Q1779.22 745.584 1781.56 743.478 Q1783.9 741.371 1783.9 737.76 Q1783.9 734.149 1781.56 732.042 Q1779.22 729.936 1775.22 729.936 Q1773.34 729.936 1771.47 730.353 Q1769.62 730.769 1767.67 731.649 L1767.67 714.288 Z" fill="#000000" fill-rule="nonzero" fill-opacity="1" /><path clip-path="url(#clip040)" d="M1807.79 717.367 Q1804.18 717.367 1802.35 720.931 Q1800.54 724.473 1800.54 731.603 Q1800.54 738.709 1802.35 742.274 Q1804.18 745.815 1807.79 745.815 Q1811.42 745.815 1813.23 742.274 Q1815.06 738.709 1815.06 731.603 Q1815.06 724.473 1813.23 720.931 Q1811.42 717.367 1807.79 717.367 M1807.79 713.663 Q1813.6 713.663 1816.65 718.269 Q1819.73 722.853 1819.73 731.603 Q1819.73 740.329 1816.65 744.936 Q1813.6 749.519 1807.79 749.519 Q1801.98 749.519 1798.9 744.936 Q1795.84 740.329 1795.84 731.603 Q1795.84 722.853 1798.9 718.269 Q1801.98 713.663 1807.79 713.663 Z" fill="#000000" fill-rule="nonzero" fill-opacity="1" /><path clip-path="url(#clip040)" d="M2235.76 744.913 L2243.4 744.913 L2243.4 718.547 L2235.09 720.214 L2235.09 715.955 L2243.35 714.288 L2248.02 714.288 L2248.02 744.913 L2255.66 744.913 L2255.66 748.848 L2235.76 748.848 L2235.76 744.913 Z" fill="#000000" fill-rule="nonzero" fill-opacity="1" /><path clip-path="url(#clip040)" d="M2275.11 717.367 Q2271.5 717.367 2269.67 720.931 Q2267.86 724.473 2267.86 731.603 Q2267.86 738.709 2269.67 742.274 Q2271.5 745.815 2275.11 745.815 Q2278.74 745.815 2280.55 742.274 Q2282.38 738.709 2282.38 731.603 Q2282.38 724.473 2280.55 720.931 Q2278.74 717.367 2275.11 717.367 M2275.11 713.663 Q2280.92 713.663 2283.97 718.269 Q2287.05 722.853 2287.05 731.603 Q2287.05 740.329 2283.97 744.936 Q2280.92 749.519 2275.11 749.519 Q2269.3 749.519 2266.22 744.936 Q2263.16 740.329 2263.16 731.603 Q2263.16 722.853 2266.22 718.269 Q2269.3 713.663 2275.11 713.663 Z" fill="#000000" fill-rule="nonzero" fill-opacity="1" /><path clip-path="url(#clip040)" d="M2305.27 717.367 Q2301.66 717.367 2299.83 720.931 Q2298.02 724.473 2298.02 731.603 Q2298.02 738.709 2299.83 742.274 Q2301.66 745.815 2305.27 745.815 Q2308.9 745.815 2310.71 742.274 Q2312.54 738.709 2312.54 731.603 Q2312.54 724.473 2310.71 720.931 Q2308.9 717.367 2305.27 717.367 M2305.27 713.663 Q2311.08 713.663 2314.14 718.269 Q2317.21 722.853 2317.21 731.603 Q2317.21 740.329 2314.14 744.936 Q2311.08 749.519 2305.27 749.519 Q2299.46 749.519 2296.38 744.936 Q2293.33 740.329 2293.33 731.603 Q2293.33 722.853 2296.38 718.269 Q2299.46 713.663 2305.27 713.663 Z" fill="#000000" fill-rule="nonzero" fill-opacity="1" /><path clip-path="url(#clip040)" d="M2335.43 717.367 Q2331.82 717.367 2329.99 720.931 Q2328.19 724.473 2328.19 731.603 Q2328.19 738.709 2329.99 742.274 Q2331.82 745.815 2335.43 745.815 Q2339.07 745.815 2340.87 742.274 Q2342.7 738.709 2342.7 731.603 Q2342.7 724.473 2340.87 720.931 Q2339.07 717.367 2335.43 717.367 M2335.43 713.663 Q2341.24 713.663 2344.3 718.269 Q2347.38 722.853 2347.38 731.603 Q2347.38 740.329 2344.3 744.936 Q2341.24 749.519 2335.43 749.519 Q2329.62 749.519 2326.54 744.936 Q2323.49 740.329 2323.49 731.603 Q2323.49 722.853 2326.54 718.269 Q2329.62 713.663 2335.43 713.663 Z" fill="#000000" fill-rule="nonzero" fill-opacity="1" /><polyline clip-path="url(#clip040)" style="stroke:#000000; stroke-linecap:round; stroke-linejoin:round; stroke-width:4; stroke-opacity:1; fill:none" points="178.867,686.448 178.867,47.2441 "/>
<polyline clip-path="url(#clip040)" style="stroke:#000000; stroke-linecap:round; stroke-linejoin:round; stroke-width:4; stroke-opacity:1; fill:none" points="178.867,686.448 197.764,686.448 "/>
<polyline clip-path="url(#clip040)" style="stroke:#000000; stroke-linecap:round; stroke-linejoin:round; stroke-width:4; stroke-opacity:1; fill:none" points="178.867,526.647 197.764,526.647 "/>
<polyline clip-path="url(#clip040)" style="stroke:#000000; stroke-linecap:round; stroke-linejoin:round; stroke-width:4; stroke-opacity:1; fill:none" points="178.867,366.846 197.764,366.846 "/>
<polyline clip-path="url(#clip040)" style="stroke:#000000; stroke-linecap:round; stroke-linejoin:round; stroke-width:4; stroke-opacity:1; fill:none" points="178.867,207.045 197.764,207.045 "/>
<polyline clip-path="url(#clip040)" style="stroke:#000000; stroke-linecap:round; stroke-linejoin:round; stroke-width:4; stroke-opacity:1; fill:none" points="178.867,47.2441 197.764,47.2441 "/>
<path clip-path="url(#clip040)" d="M50.9921 686.899 L80.6679 686.899 L80.6679 690.834 L50.9921 690.834 L50.9921 686.899 Z" fill="#000000" fill-rule="nonzero" fill-opacity="1" /><path clip-path="url(#clip040)" d="M91.5706 699.793 L99.2095 699.793 L99.2095 673.427 L90.8993 675.094 L90.8993 670.835 L99.1632 669.168 L103.839 669.168 L103.839 699.793 L111.478 699.793 L111.478 703.728 L91.5706 703.728 L91.5706 699.793 Z" fill="#000000" fill-rule="nonzero" fill-opacity="1" /><path clip-path="url(#clip040)" d="M130.922 672.247 Q127.311 672.247 125.482 675.811 Q123.677 679.353 123.677 686.483 Q123.677 693.589 125.482 697.154 Q127.311 700.695 130.922 700.695 Q134.556 700.695 136.362 697.154 Q138.191 693.589 138.191 686.483 Q138.191 679.353 136.362 675.811 Q134.556 672.247 130.922 672.247 M130.922 668.543 Q136.732 668.543 139.788 673.149 Q142.867 677.733 142.867 686.483 Q142.867 695.209 139.788 699.816 Q136.732 704.399 130.922 704.399 Q125.112 704.399 122.033 699.816 Q118.978 695.209 118.978 686.483 Q118.978 677.733 122.033 673.149 Q125.112 668.543 130.922 668.543 Z" fill="#000000" fill-rule="nonzero" fill-opacity="1" /><path clip-path="url(#clip040)" d="M82.1494 527.098 L111.825 527.098 L111.825 531.033 L82.1494 531.033 L82.1494 527.098 Z" fill="#000000" fill-rule="nonzero" fill-opacity="1" /><path clip-path="url(#clip040)" d="M121.964 509.367 L140.32 509.367 L140.32 513.302 L126.246 513.302 L126.246 521.774 Q127.265 521.427 128.283 521.265 Q129.302 521.08 130.32 521.08 Q136.107 521.08 139.487 524.251 Q142.867 527.422 142.867 532.839 Q142.867 538.418 139.394 541.52 Q135.922 544.598 129.603 544.598 Q127.427 544.598 125.158 544.228 Q122.913 543.857 120.506 543.117 L120.506 538.418 Q122.589 539.552 124.811 540.108 Q127.033 540.663 129.51 540.663 Q133.515 540.663 135.853 538.557 Q138.191 536.45 138.191 532.839 Q138.191 529.228 135.853 527.121 Q133.515 525.015 129.51 525.015 Q127.635 525.015 125.76 525.432 Q123.908 525.848 121.964 526.728 L121.964 509.367 Z" fill="#000000" fill-rule="nonzero" fill-opacity="1" /><path clip-path="url(#clip040)" d="M130.922 352.645 Q127.311 352.645 125.482 356.209 Q123.677 359.751 123.677 366.881 Q123.677 373.987 125.482 377.552 Q127.311 381.094 130.922 381.094 Q134.556 381.094 136.362 377.552 Q138.191 373.987 138.191 366.881 Q138.191 359.751 136.362 356.209 Q134.556 352.645 130.922 352.645 M130.922 348.941 Q136.732 348.941 139.788 353.547 Q142.867 358.131 142.867 366.881 Q142.867 375.608 139.788 380.214 Q136.732 384.797 130.922 384.797 Q125.112 384.797 122.033 380.214 Q118.978 375.608 118.978 366.881 Q118.978 358.131 122.033 353.547 Q125.112 348.941 130.922 348.941 Z" fill="#000000" fill-rule="nonzero" fill-opacity="1" /><path clip-path="url(#clip040)" d="M121.964 189.765 L140.32 189.765 L140.32 193.7 L126.246 193.7 L126.246 202.172 Q127.265 201.825 128.283 201.663 Q129.302 201.478 130.32 201.478 Q136.107 201.478 139.487 204.649 Q142.867 207.82 142.867 213.237 Q142.867 218.816 139.394 221.918 Q135.922 224.996 129.603 224.996 Q127.427 224.996 125.158 224.626 Q122.913 224.256 120.506 223.515 L120.506 218.816 Q122.589 219.95 124.811 220.506 Q127.033 221.061 129.51 221.061 Q133.515 221.061 135.853 218.955 Q138.191 216.848 138.191 213.237 Q138.191 209.626 135.853 207.52 Q133.515 205.413 129.51 205.413 Q127.635 205.413 125.76 205.83 Q123.908 206.246 121.964 207.126 L121.964 189.765 Z" fill="#000000" fill-rule="nonzero" fill-opacity="1" /><path clip-path="url(#clip040)" d="M91.5706 60.5889 L99.2095 60.5889 L99.2095 34.2233 L90.8993 35.89 L90.8993 31.6308 L99.1632 29.9641 L103.839 29.9641 L103.839 60.5889 L111.478 60.5889 L111.478 64.5241 L91.5706 64.5241 L91.5706 60.5889 Z" fill="#000000" fill-rule="nonzero" fill-opacity="1" /><path clip-path="url(#clip040)" d="M130.922 33.0428 Q127.311 33.0428 125.482 36.6076 Q123.677 40.1492 123.677 47.2788 Q123.677 54.3853 125.482 57.9501 Q127.311 61.4917 130.922 61.4917 Q134.556 61.4917 136.362 57.9501 Q138.191 54.3853 138.191 47.2788 Q138.191 40.1492 136.362 36.6076 Q134.556 33.0428 130.922 33.0428 M130.922 29.3391 Q136.732 29.3391 139.788 33.9456 Q142.867 38.5289 142.867 47.2788 Q142.867 56.0056 139.788 60.6121 Q136.732 65.1954 130.922 65.1954 Q125.112 65.1954 122.033 60.6121 Q118.978 56.0056 118.978 47.2788 Q118.978 38.5289 122.033 33.9456 Q125.112 29.3391 130.922 29.3391 Z" fill="#000000" fill-rule="nonzero" fill-opacity="1" /><polyline clip-path="url(#clip042)" style="stroke:#009af9; stroke-linecap:round; stroke-linejoin:round; stroke-width:4; stroke-opacity:1; fill:none" points="240.392,334.886 242.445,331.012 244.498,329.968 246.55,331.294 248.603,332.219 250.656,332.025 252.709,325.065 254.762,325.402 256.815,325.64 258.868,323.764 260.921,323.134 262.974,323.138 265.027,326.612 267.079,322.574 269.132,332.368 271.185,332.305 273.238,358.912 275.291,359.537 277.344,359.577 279.397,372.499 281.45,356.77 283.503,367.378 285.555,372.401 287.608,370.54 289.661,369.586 291.714,372.571 293.767,372.917 295.82,368.305 297.873,358.335 299.926,358.297 301.979,367.333 304.031,369.828 306.084,400.101 308.137,406.373 310.19,406.583 312.243,407.521 314.296,402.446 316.349,385.452 318.402,397.53 320.455,397.537 322.507,397.572 324.56,397.888 326.613,422.911 328.666,399.875 330.719,388.099 332.772,362.356 334.825,356.282 336.878,355.546 338.931,355.66 340.984,354.713 343.036,353.778 345.089,333.985 347.142,334.141 349.195,334.085 351.248,333.524 353.301,333.509 355.354,335.263 357.407,335.52 359.46,341.796 361.512,340.384 363.565,395.354 365.618,371.597 367.671,371.574 369.724,366.73 371.777,366.028 373.83,376.43 375.883,384.032 377.936,428.768 379.988,431.966 382.041,429.533 384.094,427.594 386.147,425.439 388.2,426.275 390.253,425.252 392.306,368.912 394.359,400.616 396.412,405.683 398.464,404.583 400.517,404.925 402.57,408.02 404.623,404.3 406.676,409.285 408.729,425.392 410.782,425.315 412.835,324.135 414.888,338.929 416.94,335.595 418.993,332.453 421.046,333.327 423.099,329.421 425.152,403.413 427.205,401.009 429.258,395.252 431.311,394.726 433.364,394.226 435.417,400.205 437.469,398.616 439.522,398.262 441.575,397.79 443.628,397.948 445.681,304.725 447.734,300.835 449.787,345.349 451.84,322.024 453.893,327.668 455.945,327.238 457.998,345.892 460.051,340.46 462.104,344.333 464.157,348.985 466.21,352.993 468.263,352.875 470.316,357.601 472.369,354.557 474.421,355.037 476.474,348.89 478.527,349.009 480.58,364.504 482.633,363.68 484.686,365.461 486.739,361.312 488.792,345.403 490.845,325.283 492.897,341.142 494.95,339.855 497.003,376.07 499.056,353.826 501.109,352.363 503.162,355.78 505.215,349.904 507.268,354.818 509.321,361.57 511.374,365.69 513.426,384.654 515.479,386.331 517.532,391.774 519.585,339.336 521.638,339.326 523.691,338.804 525.744,339.268 527.797,339.267 529.85,337.595 531.902,335.42 533.955,332.843 536.008,332.016 538.061,327.056 540.114,326.709 542.167,327.046 544.22,354.68 546.273,354.223 548.326,376.695 550.378,377.981 552.431,364.74 554.484,359.751 556.537,358.803 558.59,354.916 560.643,357.477 562.696,344.144 564.749,349.142 566.802,347.362 568.854,343.423 570.907,334.312 572.96,332.611 575.013,360.283 577.066,342.035 579.119,302.428 581.172,421.761 583.225,327.799 585.278,324.28 587.331,318.763 589.383,339.427 591.436,345.521 593.489,345.339 595.542,346.83 597.595,346.734 599.648,346.669 601.701,351.809 603.754,353.299 605.807,357.43 607.859,357.119 609.912,357.122 611.965,377.899 614.018,374.698 616.071,383.482 618.124,379.184 620.177,382.926 622.23,375.161 624.283,340.199 626.335,350.753 628.388,350.382 630.441,347.915 632.494,335.607 634.547,332.272 636.6,337.66 638.653,335.723 640.706,333.815 642.759,315.641 644.811,316.886 646.864,316.26 648.917,311.394 650.97,351.936 653.023,351.704 655.076,351.626 657.129,383.319 659.182,382.907 661.235,372.289 663.288,371.667 665.34,382.824 667.393,385.255 669.446,316.438 671.499,295.556 673.552,293.467 675.605,299.816 677.658,321.401 679.711,317.59 681.764,311.888 683.816,310.568 685.869,312.582 687.922,304.302 689.975,304.673 692.028,342.642 694.081,347.123 696.134,362.313 698.187,378.308 700.24,381.268 702.292,381.059 704.345,381.155 706.398,381.436 708.451,384.944 710.504,384.613 712.557,382.318 714.61,378.499 716.663,373.9 718.716,373.938 720.768,373.028 722.821,369.613 724.874,374.509 726.927,363.56 728.98,363.563 731.033,365.791 733.086,358.183 735.139,358.193 737.192,358.079 739.245,370.996 741.297,372.541 743.35,372.784 745.403,373.745 747.456,374.236 749.509,374.05 751.562,371.044 753.615,370.74 755.668,366.553 757.721,361.895 759.773,396.516 761.826,373.91 763.879,351.435 765.932,349.062 767.985,345.141 770.038,346.426 772.091,346.794 774.144,352.288 776.197,364.348 778.249,347.395 780.302,347.762 782.355,345.614 784.408,337.221 786.461,337.987 788.514,370.271 790.567,370.067 792.62,370.478 794.673,370.571 796.725,370.664 798.778,373.461 800.831,374.468 802.884,373.877 804.937,373.85 806.99,373.307 809.043,383.481 811.096,383.967 813.149,381.74 815.202,380.498 817.254,375.773 819.307,361.438 821.36,357.365 823.413,353.005 825.466,354.593 827.519,354.591 829.572,353.33 831.625,353.333 833.678,352.448 835.73,352.557 837.783,349.432 839.836,352.588 841.889,347.231 843.942,352.196 845.995,352.004 848.048,350.892 850.101,344.334 852.154,348.893 854.206,345.697 856.259,345.723 858.312,349.46 860.365,341.751 862.418,343.417 864.471,344.455 866.524,346.3 868.577,345.005 870.63,343.381 872.682,339.052 874.735,357.098 876.788,353.104 878.841,352.735 880.894,353.931 882.947,354.492 885,354.492 887.053,355.26 889.106,358.322 891.159,362.983 893.211,362.617 895.264,362.378 897.317,365.436 899.37,366.816 901.423,369.081 903.476,369.271 905.529,371.7 907.582,373.025 909.635,380.959 911.687,359.133 913.74,358.392 915.793,354.576 917.846,352.978 919.899,358.435 921.952,356.97 924.005,356.649 926.058,356.498 928.111,355.594 930.163,355.572 932.216,357.422 934.269,358.595 936.322,359.002 938.375,359.007 940.428,356.872 942.481,357.48 944.534,357.009 946.587,384.057 948.639,383.836 950.692,383.965 952.745,382.18 954.798,381.922 956.851,370.656 958.904,377.75 960.957,376.085 963.01,375.565 965.063,373.789 967.116,356.043 969.168,354.192 971.221,365.106 973.274,348.187 975.327,348.37 977.38,333.137 979.433,342.108 981.486,341.868 983.539,343.634 985.592,346.564 987.644,346.638 989.697,346.635 991.75,346.539 993.803,346.043 995.856,379.169 997.909,370.603 999.962,363.449 1002.01,364.493 1004.07,364.492 1006.12,379.366 1008.17,351.21 1010.23,351.981 1012.28,362.22 1014.33,361.549 1016.38,359.237 1018.44,368.419 1020.49,417.672 1022.54,416.593 1024.6,422.293 1026.65,423.208 1028.7,425.106 1030.76,355.726 1032.81,351.893 1034.86,349.072 1036.91,351.126 1038.97,337.179 1041.02,337.364 1043.07,337.375 1045.13,336.029 1047.18,343.749 1049.23,352.115 1051.28,298.211 1053.34,298.53 1055.39,320.233 1057.44,290.774 1059.5,298.978 1061.55,348.114 1063.6,350.707 1065.65,310.898 1067.71,312.436 1069.76,323.662 1071.81,393.173 1073.87,394.626 1075.92,396.381 1077.97,396.737 1080.02,330.994 1082.08,349.64 1084.13,345.172 1086.18,349.21 1088.24,353.6 1090.29,349.425 1092.34,351.733 1094.39,352.413 1096.45,353.034 1098.5,352.907 1100.55,352.806 1102.61,352.179 1104.66,346.221 1106.71,346.26 1108.77,346.326 1110.82,348.499 1112.87,349.023 1114.92,348.955 1116.98,357.909 1119.03,359.573 1121.08,373.492 1123.14,368.966 1125.19,369.362 1127.24,400.137 1129.29,399.519 1131.35,399.8 1133.4,402.932 1135.45,399.605 1137.51,398.76 1139.56,396.039 1141.61,357.002 1143.66,365.04 1145.72,368.333 1147.77,365.407 1149.82,369.816 1151.88,369.837 1153.93,369.859 1155.98,369.555 1158.03,369.556 1160.09,364.842 1162.14,384.842 1164.19,390.523 1166.25,390.884 1168.3,387.148 1170.35,387.412 1172.4,325.447 1174.46,358.755 1176.51,392.662 1178.56,395.378 1180.62,395.864 1182.67,404.383 1184.72,404.65 1186.77,405.38 1188.83,405.418 1190.88,373.178 1192.93,354.792 1194.99,352.958 1197.04,346.447 1199.09,328.56 1201.15,327.476 1203.2,323.431 1205.25,323.463 1207.3,312.212 1209.36,311.19 1211.41,331.508 1213.46,334.611 1215.52,353.747 1217.57,358.379 1219.62,361.737 1221.67,375.416 1223.73,375.488 1225.78,374.901 1227.83,366.384 1229.89,367.409 1231.94,367.641 1233.99,368.966 1236.04,363.853 1238.1,362.974 1240.15,364.991 1242.2,362.521 1244.26,353.613 1246.31,355.267 1248.36,356.259 1250.41,360.873 1252.47,360.096 1254.52,362.392 1256.57,362.812 1258.63,362.625 1260.68,363.147 1262.73,362.936 1264.78,366.942 1266.84,370.842 1268.89,371.512 1270.94,371.516 1273,364.343 1275.05,364.48 1277.1,365.805 1279.16,346.267 1281.21,344.046 1283.26,343.388 1285.31,342.825 1287.37,369.433 1289.42,369.237 1291.47,367.875 1293.53,368.016 1295.58,368.852 1297.63,368.954 1299.68,368.912 1301.74,368.772 1303.79,403.654 1305.84,403.618 1307.9,403.522 1309.95,394.003 1312,388.572 1314.05,387.486 1316.11,387.768 1318.16,382.607 1320.21,386.723 1322.27,375.329 1324.32,372.229 1326.37,371.348 1328.42,364.819 1330.48,363.47 1332.53,363.446 1334.58,362.611 1336.64,346.488 1338.69,346.922 1340.74,345.888 1342.79,349.559 1344.85,334.105 1346.9,334.029 1348.95,334.734 1351.01,336.815 1353.06,337.145 1355.11,333.27 1357.16,333.264 1359.22,338.305 1361.27,338.34 1363.32,338.343 1365.38,337.068 1367.43,386.727 1369.48,367.091 1371.54,374.659 1373.59,368.974 1375.64,366.712 1377.69,366.921 1379.75,378.059 1381.8,381.218 1383.85,398.398 1385.91,402.471 1387.96,394.43 1390.01,359.792 1392.06,359.983 1394.12,358.707 1396.17,362.619 1398.22,362.727 1400.28,361.306 1402.33,423.055 1404.38,423.338 1406.43,394.196 1408.49,388.046 1410.54,392.19 1412.59,371.967 1414.65,379.003 1416.7,365.288 1418.75,458.481 1420.8,450.298 1422.86,450.296 1424.91,454.907 1426.96,419.241 1429.02,420.473 1431.07,423.266 1433.12,423.316 1435.17,423.465 1437.23,423.535 1439.28,414.364 1441.33,409.813 1443.39,409.257 1445.44,407.504 1447.49,396.626 1449.55,396.706 1451.6,393.101 1453.65,393.173 1455.7,375.056 1457.76,377.697 1459.81,374.607 1461.86,363.315 1463.92,364.884 1465.97,351.381 1468.02,351.251 1470.07,351.258 1472.13,351.297 1474.18,351.246 1476.23,360.368 1478.29,364.234 1480.34,383.628 1482.39,372.078 1484.44,382.21 1486.5,382.459 1488.55,381.844 1490.6,381.998 1492.66,393.556 1494.71,395.816 1496.76,359.1 1498.81,377.443 1500.87,376.92 1502.92,378.203 1504.97,378.177 1507.03,370.008 1509.08,373.855 1511.13,374.219 1513.18,374.095 1515.24,389.1 1517.29,386.675 1519.34,389.201 1521.4,388.903 1523.45,388.467 1525.5,388.471 1527.55,380.825 1529.61,395.535 1531.66,394.489 1533.71,394.542 1535.77,393.967 1537.82,382.379 1539.87,373.198 1541.93,372.822 1543.98,373.458 1546.03,372.808 1548.08,372.941 1550.14,360.349 1552.19,359.69 1554.24,364.881 1556.3,354.276 1558.35,352.062 1560.4,352.034 1562.45,352.036 1564.51,353.993 1566.56,357.623 1568.61,358.276 1570.67,356.291 1572.72,384.587 1574.77,385.914 1576.82,390.803 1578.88,388.687 1580.93,390.659 1582.98,390.591 1585.04,376.735 1587.09,376.726 1589.14,375.546 1591.19,375.903 1593.25,379.147 1595.3,377.862 1597.35,377.861 1599.41,377.443 1601.46,377.621 1603.51,379.445 1605.56,380.469 1607.62,354.943 1609.67,382.188 1611.72,371.717 1613.78,368.522 1615.83,406.212 1617.88,408.236 1619.94,406.856 1621.99,406.752 1624.04,406.779 1626.09,427.569 1628.15,426.101 1630.2,426.092 1632.25,401.016 1634.31,389.177 1636.36,375.77 1638.41,358.133 1640.46,356.894 1642.52,362.561 1644.57,376.405 1646.62,369.15 1648.68,346.225 1650.73,344.401 1652.78,344.447 1654.83,336.843 1656.89,339.125 1658.94,335.75 1660.99,367.854 1663.05,368.183 1665.1,368.345 1667.15,379.612 1669.2,379.644 1671.26,384.005 1673.31,388.932 1675.36,388.633 1677.42,388.85 1679.47,362.341 1681.52,365.096 1683.57,356.378 1685.63,362.397 1687.68,360.562 1689.73,362.022 1691.79,362.137 1693.84,372.527 1695.89,373.055 1697.94,373.213 1700,366.135 1702.05,364.321 1704.1,363.026 1706.16,363.282 1708.21,351.233 1710.26,347.242 1712.32,354.754 1714.37,354.357 1716.42,356.899 1718.47,329.963 1720.53,327.44 1722.58,327.399 1724.63,327.227 1726.69,321.204 1728.74,321.074 1730.79,320.562 1732.84,321.426 1734.9,320.419 1736.95,323.972 1739,322.408 1741.06,316.511 1743.11,317.934 1745.16,318.374 1747.21,317.042 1749.27,322.719 1751.32,322.775 1753.37,319.869 1755.43,319.293 1757.48,319.506 1759.53,364.355 1761.58,364.488 1763.64,364.472 1765.69,364.473 1767.74,364.253 1769.8,364.109 1771.85,364.751 1773.9,366.285 1775.95,370.333 1778.01,330.757 1780.06,362.446 1782.11,367.031 1784.17,367.059 1786.22,373.093 1788.27,347.796 1790.33,347.157 1792.38,350.047 1794.43,350.097 1796.48,349.814 1798.54,349.722 1800.59,363.79 1802.64,365.421 1804.7,368.064 1806.75,368.071 1808.8,371.807 1810.85,373.779 1812.91,363.54 1814.96,363.631 1817.01,364.55 1819.07,364.569 1821.12,374.896 1823.17,375.005 1825.22,368.865 1827.28,375.116 1829.33,386.635 1831.38,390.428 1833.44,390.172 1835.49,361.203 1837.54,365.781 1839.59,365.939 1841.65,366.782 1843.7,379.592 1845.75,383.306 1847.81,384.031 1849.86,387.31 1851.91,387.015 1853.96,386.976 1856.02,386.913 1858.07,386.691 1860.12,378.049 1862.18,379.392 1864.23,379.895 1866.28,379.458 1868.34,377.594 1870.39,381.019 1872.44,380.903 1874.49,379.873 1876.55,379.752 1878.6,341.339 1880.65,340.844 1882.71,335.037 1884.76,334.892 1886.81,334.736 1888.86,336.017 1890.92,349.763 1892.97,363.209 1895.02,358.188 1897.08,359.372 1899.13,360.646 1901.18,361.083 1903.23,357.616 1905.29,357.608 1907.34,357.59 1909.39,358.353 1911.45,334.149 1913.5,324.727 1915.55,327.332 1917.6,350.888 1919.66,381.899 1921.71,392.75 1923.76,394.173 1925.82,399.808 1927.87,401.22 1929.92,403.453 1931.97,357.226 1934.03,356.378 1936.08,365.265 1938.13,357.534 1940.19,366.175 1942.24,366.509 1944.29,366.349 1946.34,362.079 1948.4,369.291 1950.45,345.902 1952.5,345.478 1954.56,345.69 1956.61,283.539 1958.66,283.504 1960.72,281.411 1962.77,294.49 1964.82,354.033 1966.87,339.711 1968.93,342.33 1970.98,340.407 1973.03,341.123 1975.09,373.277 1977.14,373.652 1979.19,423.433 1981.24,464.159 1983.3,454.888 1985.35,427.92 1987.4,416.563 1989.46,417.43 1991.51,404.392 1993.56,330.758 1995.61,332.277 1997.67,334.922 1999.72,372.271 2001.77,360.843 2003.83,374.553 2005.88,390.176 2007.93,391.097 2009.98,395.899 2012.04,395.774 2014.09,395.663 2016.14,397.604 2018.2,399.523 2020.25,398.79 2022.3,401.297 2024.35,354.187 2026.41,356.934 2028.46,344.924 2030.51,341.802 2032.57,370.881 2034.62,370.424 2036.67,353.849 2038.73,351.825 2040.78,355.093 2042.83,356.9 2044.88,357.335 2046.94,359.167 2048.99,308.708 2051.04,329.512 2053.1,359.686 2055.15,334.149 2057.2,334.164 2059.25,334.003 2061.31,336.795 2063.36,337.158 2065.41,337.182 2067.47,337.094 2069.52,388.525 2071.57,376.118 2073.62,375.604 2075.68,373.781 2077.73,373.769 2079.78,355.978 2081.84,355.944 2083.89,355.943 2085.94,352.322 2087.99,370.752 2090.05,367.129 2092.1,367.1 2094.15,364.242 2096.21,360.905 2098.26,362.783 2100.31,382.33 2102.36,382.238 2104.42,382.291 2106.47,357.429 2108.52,350.455 2110.58,347.567 2112.63,360.552 2114.68,352.892 2116.73,354.95 2118.79,385.063 2120.84,384.515 2122.89,375.504 2124.95,373.967 2127,373.912 2129.05,369.67 2131.11,366.523 2133.16,361.099 2135.21,361.044 2137.26,362.345 2139.32,360.215 2141.37,360.456 2143.42,342.874 2145.48,335.515 2147.53,335.39 2149.58,335.226 2151.63,335.71 2153.69,343.102 2155.74,348.531 2157.79,350.213 2159.85,350.386 2161.9,360.078 2163.95,361.224 2166,357.975 2168.06,358.395 2170.11,361.228 2172.16,362.43 2174.22,387.779 2176.27,381.622 2178.32,372.434 2180.37,363.721 2182.43,372.648 2184.48,372.022 2186.53,370.309 2188.59,348.348 2190.64,342.406 2192.69,372.755 2194.74,374.504 2196.8,362.334 2198.85,356.569 2200.9,364.044 2202.96,364.108 2205.01,344.757 2207.06,349.38 2209.12,346.278 2211.17,335.349 2213.22,337.097 2215.27,338.981 2217.33,371.673 2219.38,382.281 2221.43,379.752 2223.49,380.427 2225.54,388.183 2227.59,388.718 2229.64,385.847 2231.7,385.153 2233.75,381.56 2235.8,350.459 2237.86,345.977 2239.91,387.886 2241.96,382.561 2244.01,378.706 2246.07,392.259 2248.12,384.685 2250.17,376.411 2252.23,364.851 2254.28,355.915 2256.33,355.815 2258.38,376.076 2260.44,378.403 2262.49,380.298 2264.54,382.279 2266.6,382.495 2268.65,382.316 2270.7,369.078 2272.75,382.604 2274.81,387.224 2276.86,418.947 2278.91,347.418 2280.97,353.168 2283.02,356.926 2285.07,369.412 2287.12,369.419 2289.18,346.723 2291.23,345.844 "/>
<path clip-path="url(#clip040)" d="M1983.6 172.231 L2280.29 172.231 L2280.29 68.5509 L1983.6 68.5509  Z" fill="#ffffff" fill-rule="evenodd" fill-opacity="1"/>
<polyline clip-path="url(#clip040)" style="stroke:#000000; stroke-linecap:round; stroke-linejoin:round; stroke-width:4; stroke-opacity:1; fill:none" points="1983.6,172.231 2280.29,172.231 2280.29,68.5509 1983.6,68.5509 1983.6,172.231 "/>
<polyline clip-path="url(#clip040)" style="stroke:#009af9; stroke-linecap:round; stroke-linejoin:round; stroke-width:4; stroke-opacity:1; fill:none" points="2007.75,120.391 2152.68,120.391 "/>
<path clip-path="url(#clip040)" d="M2176.83 103.111 L2181.51 103.111 L2181.51 133.736 L2198.34 133.736 L2198.34 137.671 L2176.83 137.671 L2176.83 103.111 Z" fill="#000000" fill-rule="nonzero" fill-opacity="1" /><path clip-path="url(#clip040)" d="M2223.96 104.245 L2223.96 108.805 Q2221.3 107.532 2218.94 106.907 Q2216.58 106.282 2214.38 106.282 Q2210.56 106.282 2208.48 107.764 Q2206.42 109.245 2206.42 111.977 Q2206.42 114.268 2207.78 115.449 Q2209.17 116.606 2213.01 117.324 L2215.84 117.902 Q2221.07 118.898 2223.55 121.421 Q2226.05 123.921 2226.05 128.134 Q2226.05 133.157 2222.67 135.75 Q2219.31 138.342 2212.81 138.342 Q2210.35 138.342 2207.57 137.787 Q2204.82 137.231 2201.86 136.143 L2201.86 131.328 Q2204.7 132.926 2207.44 133.736 Q2210.17 134.546 2212.81 134.546 Q2216.81 134.546 2218.99 132.972 Q2221.16 131.398 2221.16 128.481 Q2221.16 125.935 2219.59 124.5 Q2218.04 123.064 2214.47 122.347 L2211.62 121.791 Q2206.39 120.75 2204.06 118.527 Q2201.72 116.305 2201.72 112.347 Q2201.72 107.764 2204.94 105.125 Q2208.18 102.486 2213.85 102.486 Q2216.28 102.486 2218.8 102.926 Q2221.32 103.366 2223.96 104.245 Z" fill="#000000" fill-rule="nonzero" fill-opacity="1" /><path clip-path="url(#clip040)" d="M2254.06 104.245 L2254.06 108.805 Q2251.39 107.532 2249.03 106.907 Q2246.67 106.282 2244.47 106.282 Q2240.65 106.282 2238.57 107.764 Q2236.51 109.245 2236.51 111.977 Q2236.51 114.268 2237.87 115.449 Q2239.26 116.606 2243.11 117.324 L2245.93 117.902 Q2251.16 118.898 2253.64 121.421 Q2256.14 123.921 2256.14 128.134 Q2256.14 133.157 2252.76 135.75 Q2249.4 138.342 2242.9 138.342 Q2240.44 138.342 2237.67 137.787 Q2234.91 137.231 2231.95 136.143 L2231.95 131.328 Q2234.8 132.926 2237.53 133.736 Q2240.26 134.546 2242.9 134.546 Q2246.9 134.546 2249.08 132.972 Q2251.25 131.398 2251.25 128.481 Q2251.25 125.935 2249.68 124.5 Q2248.13 123.064 2244.56 122.347 L2241.72 121.791 Q2236.49 120.75 2234.15 118.527 Q2231.81 116.305 2231.81 112.347 Q2231.81 107.764 2235.03 105.125 Q2238.27 102.486 2243.94 102.486 Q2246.37 102.486 2248.89 102.926 Q2251.42 103.366 2254.06 104.245 Z" fill="#000000" fill-rule="nonzero" fill-opacity="1" /><path clip-path="url(#clip040)" d="M178.867 1486.45 L2352.76 1486.45 L2352.76 847.244 L178.867 847.244  Z" fill="#ffffff" fill-rule="evenodd" fill-opacity="1"/>
<defs>
  <clipPath id="clip043">
    <rect x="178" y="847" width="2175" height="640"/>
  </clipPath>
</defs>
<polyline clip-path="url(#clip043)" style="stroke:#000000; stroke-linecap:round; stroke-linejoin:round; stroke-width:2; stroke-opacity:0.1; fill:none" points="238.339,1486.45 238.339,847.244 "/>
<polyline clip-path="url(#clip043)" style="stroke:#000000; stroke-linecap:round; stroke-linejoin:round; stroke-width:2; stroke-opacity:0.1; fill:none" points="751.562,1486.45 751.562,847.244 "/>
<polyline clip-path="url(#clip043)" style="stroke:#000000; stroke-linecap:round; stroke-linejoin:round; stroke-width:2; stroke-opacity:0.1; fill:none" points="1264.78,1486.45 1264.78,847.244 "/>
<polyline clip-path="url(#clip043)" style="stroke:#000000; stroke-linecap:round; stroke-linejoin:round; stroke-width:2; stroke-opacity:0.1; fill:none" points="1778.01,1486.45 1778.01,847.244 "/>
<polyline clip-path="url(#clip043)" style="stroke:#000000; stroke-linecap:round; stroke-linejoin:round; stroke-width:2; stroke-opacity:0.1; fill:none" points="2291.23,1486.45 2291.23,847.244 "/>
<polyline clip-path="url(#clip043)" style="stroke:#000000; stroke-linecap:round; stroke-linejoin:round; stroke-width:2; stroke-opacity:0.1; fill:none" points="178.867,1486.45 2352.76,1486.45 "/>
<polyline clip-path="url(#clip043)" style="stroke:#000000; stroke-linecap:round; stroke-linejoin:round; stroke-width:2; stroke-opacity:0.1; fill:none" points="178.867,1326.65 2352.76,1326.65 "/>
<polyline clip-path="url(#clip043)" style="stroke:#000000; stroke-linecap:round; stroke-linejoin:round; stroke-width:2; stroke-opacity:0.1; fill:none" points="178.867,1166.85 2352.76,1166.85 "/>
<polyline clip-path="url(#clip043)" style="stroke:#000000; stroke-linecap:round; stroke-linejoin:round; stroke-width:2; stroke-opacity:0.1; fill:none" points="178.867,1007.05 2352.76,1007.05 "/>
<polyline clip-path="url(#clip043)" style="stroke:#000000; stroke-linecap:round; stroke-linejoin:round; stroke-width:2; stroke-opacity:0.1; fill:none" points="178.867,847.244 2352.76,847.244 "/>
<polyline clip-path="url(#clip040)" style="stroke:#000000; stroke-linecap:round; stroke-linejoin:round; stroke-width:4; stroke-opacity:1; fill:none" points="178.867,1486.45 2352.76,1486.45 "/>
<polyline clip-path="url(#clip040)" style="stroke:#000000; stroke-linecap:round; stroke-linejoin:round; stroke-width:4; stroke-opacity:1; fill:none" points="238.339,1486.45 238.339,1467.55 "/>
<polyline clip-path="url(#clip040)" style="stroke:#000000; stroke-linecap:round; stroke-linejoin:round; stroke-width:4; stroke-opacity:1; fill:none" points="751.562,1486.45 751.562,1467.55 "/>
<polyline clip-path="url(#clip040)" style="stroke:#000000; stroke-linecap:round; stroke-linejoin:round; stroke-width:4; stroke-opacity:1; fill:none" points="1264.78,1486.45 1264.78,1467.55 "/>
<polyline clip-path="url(#clip040)" style="stroke:#000000; stroke-linecap:round; stroke-linejoin:round; stroke-width:4; stroke-opacity:1; fill:none" points="1778.01,1486.45 1778.01,1467.55 "/>
<polyline clip-path="url(#clip040)" style="stroke:#000000; stroke-linecap:round; stroke-linejoin:round; stroke-width:4; stroke-opacity:1; fill:none" points="2291.23,1486.45 2291.23,1467.55 "/>
<path clip-path="url(#clip040)" d="M238.339 1517.37 Q234.728 1517.37 232.899 1520.93 Q231.094 1524.47 231.094 1531.6 Q231.094 1538.71 232.899 1542.27 Q234.728 1545.82 238.339 1545.82 Q241.973 1545.82 243.779 1542.27 Q245.607 1538.71 245.607 1531.6 Q245.607 1524.47 243.779 1520.93 Q241.973 1517.37 238.339 1517.37 M238.339 1513.66 Q244.149 1513.66 247.205 1518.27 Q250.283 1522.85 250.283 1531.6 Q250.283 1540.33 247.205 1544.94 Q244.149 1549.52 238.339 1549.52 Q232.529 1549.52 229.45 1544.94 Q226.395 1540.33 226.395 1531.6 Q226.395 1522.85 229.45 1518.27 Q232.529 1513.66 238.339 1513.66 Z" fill="#000000" fill-rule="nonzero" fill-opacity="1" /><path clip-path="url(#clip040)" d="M715.254 1544.91 L731.574 1544.91 L731.574 1548.85 L709.629 1548.85 L709.629 1544.91 Q712.291 1542.16 716.875 1537.53 Q721.481 1532.88 722.662 1531.53 Q724.907 1529.01 725.787 1527.27 Q726.689 1525.51 726.689 1523.82 Q726.689 1521.07 724.745 1519.33 Q722.824 1517.6 719.722 1517.6 Q717.523 1517.6 715.069 1518.36 Q712.638 1519.13 709.861 1520.68 L709.861 1515.95 Q712.685 1514.82 715.138 1514.24 Q717.592 1513.66 719.629 1513.66 Q725 1513.66 728.194 1516.35 Q731.388 1519.03 731.388 1523.52 Q731.388 1525.65 730.578 1527.57 Q729.791 1529.47 727.685 1532.07 Q727.106 1532.74 724.004 1535.95 Q720.902 1539.15 715.254 1544.91 Z" fill="#000000" fill-rule="nonzero" fill-opacity="1" /><path clip-path="url(#clip040)" d="M741.435 1514.29 L759.791 1514.29 L759.791 1518.22 L745.717 1518.22 L745.717 1526.7 Q746.736 1526.35 747.754 1526.19 Q748.773 1526 749.791 1526 Q755.578 1526 758.958 1529.17 Q762.337 1532.34 762.337 1537.76 Q762.337 1543.34 758.865 1546.44 Q755.393 1549.52 749.073 1549.52 Q746.898 1549.52 744.629 1549.15 Q742.384 1548.78 739.976 1548.04 L739.976 1543.34 Q742.06 1544.47 744.282 1545.03 Q746.504 1545.58 748.981 1545.58 Q752.985 1545.58 755.323 1543.48 Q757.661 1541.37 757.661 1537.76 Q757.661 1534.15 755.323 1532.04 Q752.985 1529.94 748.981 1529.94 Q747.106 1529.94 745.231 1530.35 Q743.379 1530.77 741.435 1531.65 L741.435 1514.29 Z" fill="#000000" fill-rule="nonzero" fill-opacity="1" /><path clip-path="url(#clip040)" d="M781.55 1517.37 Q777.939 1517.37 776.11 1520.93 Q774.305 1524.47 774.305 1531.6 Q774.305 1538.71 776.11 1542.27 Q777.939 1545.82 781.55 1545.82 Q785.184 1545.82 786.99 1542.27 Q788.819 1538.71 788.819 1531.6 Q788.819 1524.47 786.99 1520.93 Q785.184 1517.37 781.55 1517.37 M781.55 1513.66 Q787.36 1513.66 790.416 1518.27 Q793.495 1522.85 793.495 1531.6 Q793.495 1540.33 790.416 1544.94 Q787.36 1549.52 781.55 1549.52 Q775.74 1549.52 772.661 1544.94 Q769.606 1540.33 769.606 1531.6 Q769.606 1522.85 772.661 1518.27 Q775.74 1513.66 781.55 1513.66 Z" fill="#000000" fill-rule="nonzero" fill-opacity="1" /><path clip-path="url(#clip040)" d="M1224.4 1514.29 L1242.76 1514.29 L1242.76 1518.22 L1228.69 1518.22 L1228.69 1526.7 Q1229.7 1526.35 1230.72 1526.19 Q1231.74 1526 1232.76 1526 Q1238.55 1526 1241.93 1529.17 Q1245.31 1532.34 1245.31 1537.76 Q1245.31 1543.34 1241.83 1546.44 Q1238.36 1549.52 1232.04 1549.52 Q1229.87 1549.52 1227.6 1549.15 Q1225.35 1548.78 1222.94 1548.04 L1222.94 1543.34 Q1225.03 1544.47 1227.25 1545.03 Q1229.47 1545.58 1231.95 1545.58 Q1235.95 1545.58 1238.29 1543.48 Q1240.63 1541.37 1240.63 1537.76 Q1240.63 1534.15 1238.29 1532.04 Q1235.95 1529.94 1231.95 1529.94 Q1230.07 1529.94 1228.2 1530.35 Q1226.35 1530.77 1224.4 1531.65 L1224.4 1514.29 Z" fill="#000000" fill-rule="nonzero" fill-opacity="1" /><path clip-path="url(#clip040)" d="M1264.52 1517.37 Q1260.91 1517.37 1259.08 1520.93 Q1257.27 1524.47 1257.27 1531.6 Q1257.27 1538.71 1259.08 1542.27 Q1260.91 1545.82 1264.52 1545.82 Q1268.15 1545.82 1269.96 1542.27 Q1271.79 1538.71 1271.79 1531.6 Q1271.79 1524.47 1269.96 1520.93 Q1268.15 1517.37 1264.52 1517.37 M1264.52 1513.66 Q1270.33 1513.66 1273.38 1518.27 Q1276.46 1522.85 1276.46 1531.6 Q1276.46 1540.33 1273.38 1544.94 Q1270.33 1549.52 1264.52 1549.52 Q1258.71 1549.52 1255.63 1544.94 Q1252.57 1540.33 1252.57 1531.6 Q1252.57 1522.85 1255.63 1518.27 Q1258.71 1513.66 1264.52 1513.66 Z" fill="#000000" fill-rule="nonzero" fill-opacity="1" /><path clip-path="url(#clip040)" d="M1294.68 1517.37 Q1291.07 1517.37 1289.24 1520.93 Q1287.44 1524.47 1287.44 1531.6 Q1287.44 1538.71 1289.24 1542.27 Q1291.07 1545.82 1294.68 1545.82 Q1298.31 1545.82 1300.12 1542.27 Q1301.95 1538.71 1301.95 1531.6 Q1301.95 1524.47 1300.12 1520.93 Q1298.31 1517.37 1294.68 1517.37 M1294.68 1513.66 Q1300.49 1513.66 1303.55 1518.27 Q1306.62 1522.85 1306.62 1531.6 Q1306.62 1540.33 1303.55 1544.94 Q1300.49 1549.52 1294.68 1549.52 Q1288.87 1549.52 1285.79 1544.94 Q1282.74 1540.33 1282.74 1531.6 Q1282.74 1522.85 1285.79 1518.27 Q1288.87 1513.66 1294.68 1513.66 Z" fill="#000000" fill-rule="nonzero" fill-opacity="1" /><path clip-path="url(#clip040)" d="M1736.28 1514.29 L1758.51 1514.29 L1758.51 1516.28 L1745.96 1548.85 L1741.08 1548.85 L1752.88 1518.22 L1736.28 1518.22 L1736.28 1514.29 Z" fill="#000000" fill-rule="nonzero" fill-opacity="1" /><path clip-path="url(#clip040)" d="M1767.67 1514.29 L1786.03 1514.29 L1786.03 1518.22 L1771.95 1518.22 L1771.95 1526.7 Q1772.97 1526.35 1773.99 1526.19 Q1775.01 1526 1776.03 1526 Q1781.82 1526 1785.2 1529.17 Q1788.57 1532.34 1788.57 1537.76 Q1788.57 1543.34 1785.1 1546.44 Q1781.63 1549.52 1775.31 1549.52 Q1773.14 1549.52 1770.87 1549.15 Q1768.62 1548.78 1766.21 1548.04 L1766.21 1543.34 Q1768.3 1544.47 1770.52 1545.03 Q1772.74 1545.58 1775.22 1545.58 Q1779.22 1545.58 1781.56 1543.48 Q1783.9 1541.37 1783.9 1537.76 Q1783.9 1534.15 1781.56 1532.04 Q1779.22 1529.94 1775.22 1529.94 Q1773.34 1529.94 1771.47 1530.35 Q1769.62 1530.77 1767.67 1531.65 L1767.67 1514.29 Z" fill="#000000" fill-rule="nonzero" fill-opacity="1" /><path clip-path="url(#clip040)" d="M1807.79 1517.37 Q1804.18 1517.37 1802.35 1520.93 Q1800.54 1524.47 1800.54 1531.6 Q1800.54 1538.71 1802.35 1542.27 Q1804.18 1545.82 1807.79 1545.82 Q1811.42 1545.82 1813.23 1542.27 Q1815.06 1538.71 1815.06 1531.6 Q1815.06 1524.47 1813.23 1520.93 Q1811.42 1517.37 1807.79 1517.37 M1807.79 1513.66 Q1813.6 1513.66 1816.65 1518.27 Q1819.73 1522.85 1819.73 1531.6 Q1819.73 1540.33 1816.65 1544.94 Q1813.6 1549.52 1807.79 1549.52 Q1801.98 1549.52 1798.9 1544.94 Q1795.84 1540.33 1795.84 1531.6 Q1795.84 1522.85 1798.9 1518.27 Q1801.98 1513.66 1807.79 1513.66 Z" fill="#000000" fill-rule="nonzero" fill-opacity="1" /><path clip-path="url(#clip040)" d="M2235.76 1544.91 L2243.4 1544.91 L2243.4 1518.55 L2235.09 1520.21 L2235.09 1515.95 L2243.35 1514.29 L2248.02 1514.29 L2248.02 1544.91 L2255.66 1544.91 L2255.66 1548.85 L2235.76 1548.85 L2235.76 1544.91 Z" fill="#000000" fill-rule="nonzero" fill-opacity="1" /><path clip-path="url(#clip040)" d="M2275.11 1517.37 Q2271.5 1517.37 2269.67 1520.93 Q2267.86 1524.47 2267.86 1531.6 Q2267.86 1538.71 2269.67 1542.27 Q2271.5 1545.82 2275.11 1545.82 Q2278.74 1545.82 2280.55 1542.27 Q2282.38 1538.71 2282.38 1531.6 Q2282.38 1524.47 2280.55 1520.93 Q2278.74 1517.37 2275.11 1517.37 M2275.11 1513.66 Q2280.92 1513.66 2283.97 1518.27 Q2287.05 1522.85 2287.05 1531.6 Q2287.05 1540.33 2283.97 1544.94 Q2280.92 1549.52 2275.11 1549.52 Q2269.3 1549.52 2266.22 1544.94 Q2263.16 1540.33 2263.16 1531.6 Q2263.16 1522.85 2266.22 1518.27 Q2269.3 1513.66 2275.11 1513.66 Z" fill="#000000" fill-rule="nonzero" fill-opacity="1" /><path clip-path="url(#clip040)" d="M2305.27 1517.37 Q2301.66 1517.37 2299.83 1520.93 Q2298.02 1524.47 2298.02 1531.6 Q2298.02 1538.71 2299.83 1542.27 Q2301.66 1545.82 2305.27 1545.82 Q2308.9 1545.82 2310.71 1542.27 Q2312.54 1538.71 2312.54 1531.6 Q2312.54 1524.47 2310.71 1520.93 Q2308.9 1517.37 2305.27 1517.37 M2305.27 1513.66 Q2311.08 1513.66 2314.14 1518.27 Q2317.21 1522.85 2317.21 1531.6 Q2317.21 1540.33 2314.14 1544.94 Q2311.08 1549.52 2305.27 1549.52 Q2299.46 1549.52 2296.38 1544.94 Q2293.33 1540.33 2293.33 1531.6 Q2293.33 1522.85 2296.38 1518.27 Q2299.46 1513.66 2305.27 1513.66 Z" fill="#000000" fill-rule="nonzero" fill-opacity="1" /><path clip-path="url(#clip040)" d="M2335.43 1517.37 Q2331.82 1517.37 2329.99 1520.93 Q2328.19 1524.47 2328.19 1531.6 Q2328.19 1538.71 2329.99 1542.27 Q2331.82 1545.82 2335.43 1545.82 Q2339.07 1545.82 2340.87 1542.27 Q2342.7 1538.71 2342.7 1531.6 Q2342.7 1524.47 2340.87 1520.93 Q2339.07 1517.37 2335.43 1517.37 M2335.43 1513.66 Q2341.24 1513.66 2344.3 1518.27 Q2347.38 1522.85 2347.38 1531.6 Q2347.38 1540.33 2344.3 1544.94 Q2341.24 1549.52 2335.43 1549.52 Q2329.62 1549.52 2326.54 1544.94 Q2323.49 1540.33 2323.49 1531.6 Q2323.49 1522.85 2326.54 1518.27 Q2329.62 1513.66 2335.43 1513.66 Z" fill="#000000" fill-rule="nonzero" fill-opacity="1" /><polyline clip-path="url(#clip040)" style="stroke:#000000; stroke-linecap:round; stroke-linejoin:round; stroke-width:4; stroke-opacity:1; fill:none" points="178.867,1486.45 178.867,847.244 "/>
<polyline clip-path="url(#clip040)" style="stroke:#000000; stroke-linecap:round; stroke-linejoin:round; stroke-width:4; stroke-opacity:1; fill:none" points="178.867,1486.45 197.764,1486.45 "/>
<polyline clip-path="url(#clip040)" style="stroke:#000000; stroke-linecap:round; stroke-linejoin:round; stroke-width:4; stroke-opacity:1; fill:none" points="178.867,1326.65 197.764,1326.65 "/>
<polyline clip-path="url(#clip040)" style="stroke:#000000; stroke-linecap:round; stroke-linejoin:round; stroke-width:4; stroke-opacity:1; fill:none" points="178.867,1166.85 197.764,1166.85 "/>
<polyline clip-path="url(#clip040)" style="stroke:#000000; stroke-linecap:round; stroke-linejoin:round; stroke-width:4; stroke-opacity:1; fill:none" points="178.867,1007.05 197.764,1007.05 "/>
<polyline clip-path="url(#clip040)" style="stroke:#000000; stroke-linecap:round; stroke-linejoin:round; stroke-width:4; stroke-opacity:1; fill:none" points="178.867,847.244 197.764,847.244 "/>
<path clip-path="url(#clip040)" d="M50.9921 1486.9 L80.6679 1486.9 L80.6679 1490.83 L50.9921 1490.83 L50.9921 1486.9 Z" fill="#000000" fill-rule="nonzero" fill-opacity="1" /><path clip-path="url(#clip040)" d="M91.5706 1499.79 L99.2095 1499.79 L99.2095 1473.43 L90.8993 1475.09 L90.8993 1470.83 L99.1632 1469.17 L103.839 1469.17 L103.839 1499.79 L111.478 1499.79 L111.478 1503.73 L91.5706 1503.73 L91.5706 1499.79 Z" fill="#000000" fill-rule="nonzero" fill-opacity="1" /><path clip-path="url(#clip040)" d="M130.922 1472.25 Q127.311 1472.25 125.482 1475.81 Q123.677 1479.35 123.677 1486.48 Q123.677 1493.59 125.482 1497.15 Q127.311 1500.7 130.922 1500.7 Q134.556 1500.7 136.362 1497.15 Q138.191 1493.59 138.191 1486.48 Q138.191 1479.35 136.362 1475.81 Q134.556 1472.25 130.922 1472.25 M130.922 1468.54 Q136.732 1468.54 139.788 1473.15 Q142.867 1477.73 142.867 1486.48 Q142.867 1495.21 139.788 1499.82 Q136.732 1504.4 130.922 1504.4 Q125.112 1504.4 122.033 1499.82 Q118.978 1495.21 118.978 1486.48 Q118.978 1477.73 122.033 1473.15 Q125.112 1468.54 130.922 1468.54 Z" fill="#000000" fill-rule="nonzero" fill-opacity="1" /><path clip-path="url(#clip040)" d="M82.1494 1327.1 L111.825 1327.1 L111.825 1331.03 L82.1494 1331.03 L82.1494 1327.1 Z" fill="#000000" fill-rule="nonzero" fill-opacity="1" /><path clip-path="url(#clip040)" d="M121.964 1309.37 L140.32 1309.37 L140.32 1313.3 L126.246 1313.3 L126.246 1321.77 Q127.265 1321.43 128.283 1321.27 Q129.302 1321.08 130.32 1321.08 Q136.107 1321.08 139.487 1324.25 Q142.867 1327.42 142.867 1332.84 Q142.867 1338.42 139.394 1341.52 Q135.922 1344.6 129.603 1344.6 Q127.427 1344.6 125.158 1344.23 Q122.913 1343.86 120.506 1343.12 L120.506 1338.42 Q122.589 1339.55 124.811 1340.11 Q127.033 1340.66 129.51 1340.66 Q133.515 1340.66 135.853 1338.56 Q138.191 1336.45 138.191 1332.84 Q138.191 1329.23 135.853 1327.12 Q133.515 1325.01 129.51 1325.01 Q127.635 1325.01 125.76 1325.43 Q123.908 1325.85 121.964 1326.73 L121.964 1309.37 Z" fill="#000000" fill-rule="nonzero" fill-opacity="1" /><path clip-path="url(#clip040)" d="M130.922 1152.64 Q127.311 1152.64 125.482 1156.21 Q123.677 1159.75 123.677 1166.88 Q123.677 1173.99 125.482 1177.55 Q127.311 1181.09 130.922 1181.09 Q134.556 1181.09 136.362 1177.55 Q138.191 1173.99 138.191 1166.88 Q138.191 1159.75 136.362 1156.21 Q134.556 1152.64 130.922 1152.64 M130.922 1148.94 Q136.732 1148.94 139.788 1153.55 Q142.867 1158.13 142.867 1166.88 Q142.867 1175.61 139.788 1180.21 Q136.732 1184.8 130.922 1184.8 Q125.112 1184.8 122.033 1180.21 Q118.978 1175.61 118.978 1166.88 Q118.978 1158.13 122.033 1153.55 Q125.112 1148.94 130.922 1148.94 Z" fill="#000000" fill-rule="nonzero" fill-opacity="1" /><path clip-path="url(#clip040)" d="M121.964 989.765 L140.32 989.765 L140.32 993.7 L126.246 993.7 L126.246 1002.17 Q127.265 1001.83 128.283 1001.66 Q129.302 1001.48 130.32 1001.48 Q136.107 1001.48 139.487 1004.65 Q142.867 1007.82 142.867 1013.24 Q142.867 1018.82 139.394 1021.92 Q135.922 1025 129.603 1025 Q127.427 1025 125.158 1024.63 Q122.913 1024.26 120.506 1023.51 L120.506 1018.82 Q122.589 1019.95 124.811 1020.51 Q127.033 1021.06 129.51 1021.06 Q133.515 1021.06 135.853 1018.95 Q138.191 1016.85 138.191 1013.24 Q138.191 1009.63 135.853 1007.52 Q133.515 1005.41 129.51 1005.41 Q127.635 1005.41 125.76 1005.83 Q123.908 1006.25 121.964 1007.13 L121.964 989.765 Z" fill="#000000" fill-rule="nonzero" fill-opacity="1" /><path clip-path="url(#clip040)" d="M91.5706 860.589 L99.2095 860.589 L99.2095 834.223 L90.8993 835.89 L90.8993 831.631 L99.1632 829.964 L103.839 829.964 L103.839 860.589 L111.478 860.589 L111.478 864.524 L91.5706 864.524 L91.5706 860.589 Z" fill="#000000" fill-rule="nonzero" fill-opacity="1" /><path clip-path="url(#clip040)" d="M130.922 833.043 Q127.311 833.043 125.482 836.608 Q123.677 840.149 123.677 847.279 Q123.677 854.385 125.482 857.95 Q127.311 861.492 130.922 861.492 Q134.556 861.492 136.362 857.95 Q138.191 854.385 138.191 847.279 Q138.191 840.149 136.362 836.608 Q134.556 833.043 130.922 833.043 M130.922 829.339 Q136.732 829.339 139.788 833.946 Q142.867 838.529 142.867 847.279 Q142.867 856.006 139.788 860.612 Q136.732 865.195 130.922 865.195 Q125.112 865.195 122.033 860.612 Q118.978 856.006 118.978 847.279 Q118.978 838.529 122.033 833.946 Q125.112 829.339 130.922 829.339 Z" fill="#000000" fill-rule="nonzero" fill-opacity="1" /><polyline clip-path="url(#clip043)" style="stroke:#009af9; stroke-linecap:round; stroke-linejoin:round; stroke-width:4; stroke-opacity:1; fill:none" points="240.392,1134.89 242.445,1157.91 244.498,1135.43 246.55,1216 248.603,1122.95 250.656,1153.43 252.709,1178.56 254.762,1130.39 256.815,1149.86 258.868,1332.26 260.921,1155.94 262.974,1161.71 265.027,1183.66 267.079,1160.16 269.132,1156.68 271.185,1219.99 273.238,1168.54 275.291,1164.06 277.344,1164.48 279.397,1156.89 281.45,1188.07 283.503,1189.56 285.555,1177.3 287.608,1236.52 289.661,1183.27 291.714,1151.09 293.767,1147.85 295.82,1176.83 297.873,1174.69 299.926,1205.25 301.979,1156.61 304.031,1376.04 306.084,1151.68 308.137,1193.51 310.19,1150.79 312.243,1194.69 314.296,1216.31 316.349,959.621 318.402,1392.93 320.455,899.507 322.507,-2285.75 324.56,-722.885 326.613,785.715 328.666,1159.48 330.719,1156.49 332.772,1132.18 334.825,1081.62 336.878,1162.59 338.931,1220.28 340.984,1239.1 343.036,1108.95 345.089,1176.96 347.142,1154.48 349.195,1333.6 351.248,1142.48 353.301,1168.44 355.354,1156.7 357.407,1180.81 359.46,1147.32 361.512,1206.67 363.565,1213.94 365.618,1171.43 367.671,1146.22 369.724,1162.27 371.777,1194.91 373.83,1149.79 375.883,1178.84 377.936,1172.32 379.988,1138.78 382.041,1200.08 384.094,1110.21 386.147,1122.41 388.2,1053.49 390.253,1160.33 392.306,1183.03 394.359,1201.27 396.412,2602.11 398.464,1721 400.517,1632.4 402.57,1171.05 404.623,1228.55 406.676,1203.08 408.729,1130 410.782,1163.95 412.835,1171.57 414.888,1159.01 416.94,1108.68 418.993,1121.01 421.046,1175.46 423.099,1157.79 425.152,1172.2 427.205,1160.8 429.258,1185.46 431.311,1170.24 433.364,1154.77 435.417,1175.42 437.469,1172.41 439.522,1132.05 441.575,1141.4 443.628,1209.4 445.681,1179.85 447.734,1171.16 449.787,1163.62 451.84,1160.94 453.893,1143.33 455.945,1135.88 457.998,1140.32 460.051,1252.06 462.104,1172.55 464.157,1113.23 466.21,1233.72 468.263,1230.99 470.316,1330.19 472.369,1364.91 474.421,1137.73 476.474,1122.48 478.527,1014.69 480.58,1298.42 482.633,1350.04 484.686,1184.19 486.739,1166.67 488.792,1122.83 490.845,1281.12 492.897,1287.95 494.95,1005.73 497.003,737.715 499.056,1140.32 501.109,1136.36 503.162,1080.97 505.215,1166.18 507.268,1161.5 509.321,1161.9 511.374,1092.54 513.426,1186.73 515.479,1167.46 517.532,1223.45 519.585,1189.96 521.638,1127.44 523.691,1104.32 525.744,1092.86 527.797,1122.75 529.85,1138.36 531.902,1186.2 533.955,1188.11 536.008,1139.52 538.061,1104.8 540.114,1425.01 542.167,1141.39 544.22,1190.12 546.273,1131.57 548.326,1105.56 550.378,1198.78 552.431,1180.78 554.484,1152.2 556.537,1153.31 558.59,1166.6 560.643,1193.51 562.696,1183.55 564.749,1204.24 566.802,1195 568.854,1204.38 570.907,1181.89 572.96,1201.41 575.013,1181.15 577.066,1199.27 579.119,1157.81 581.172,1133.78 583.225,1207.68 585.278,1189.31 587.331,1196.01 589.383,1144.22 591.436,1205.45 593.489,998.031 595.542,911.026 597.595,1404.96 599.648,1088.67 601.701,1193.62 603.754,1222.29 605.807,1108.17 607.859,1133.74 609.912,1167.87 611.965,1190.31 614.018,1155.92 616.071,1157.68 618.124,1147.26 620.177,1157.04 622.23,1162.21 624.283,1152.29 626.335,1229.38 628.388,1210.88 630.441,1142.62 632.494,1183.87 634.547,1154.9 636.6,1197.32 638.653,1135.16 640.706,1242.16 642.759,1143.76 644.811,1134.73 646.864,1153.57 648.917,1102.38 650.97,1134.54 653.023,1238.84 655.076,1292.77 657.129,1202.24 659.182,1457.14 661.235,1162.63 663.288,1097.36 665.34,1078.36 667.393,1060.87 669.446,1169.68 671.499,1159.8 673.552,1186.21 675.605,1156.61 677.658,1188.21 679.711,1098.36 681.764,1105.82 683.816,1041.35 685.869,1280.18 687.922,1121.15 689.975,1189.07 692.028,1095.47 694.081,1229.96 696.134,1120.47 698.187,1196.17 700.24,1195.58 702.292,1200.38 704.345,1186.29 706.398,1145.79 708.451,1393.49 710.504,1389.99 712.557,1320.57 714.61,1285.45 716.663,1394.88 718.716,1003.57 720.768,1275.96 722.821,1277.4 724.874,1092.29 726.927,1134.24 728.98,1106.52 731.033,1156.48 733.086,1185.34 735.139,1154.77 737.192,1196.24 739.245,1222.21 741.297,1103.09 743.35,1083.01 745.403,1216.46 747.456,1197.89 749.509,1128.14 751.562,1164.86 753.615,1136.38 755.668,1136.1 757.721,1181.49 759.773,1191.2 761.826,1127.34 763.879,1167.14 765.932,1178.03 767.985,1173.88 770.038,1294.52 772.091,1039.74 774.144,862.296 776.197,1217.88 778.249,1189.03 780.302,1192.09 782.355,1144.13 784.408,1197.72 786.461,1185.17 788.514,1176.79 790.567,1163.21 792.62,1186.83 794.673,1179.96 796.725,1157.4 798.778,1213.32 800.831,1302.62 802.884,1187.83 804.937,1196.33 806.99,1185.25 809.043,1161.12 811.096,1178.53 813.149,1160.88 815.202,1155.83 817.254,1159.31 819.307,1178.57 821.36,1196.19 823.413,1197.4 825.466,1204.55 827.519,1190.97 829.572,1167.46 831.625,1168.91 833.678,1147.99 835.73,1190.52 837.783,1168.3 839.836,1179.26 841.889,1120.11 843.942,1215.52 845.995,1165.19 848.048,1132.06 850.101,1146.41 852.154,1012.94 854.206,1412.71 856.259,1331.61 858.312,1246.62 860.365,1156.51 862.418,1180.4 864.471,1136.84 866.524,1221.68 868.577,1154.8 870.63,1180.04 872.682,1083.36 874.735,938.109 876.788,1166.3 878.841,1131.63 880.894,1183.73 882.947,1164.71 885,1193 887.053,1197.42 889.106,1163.86 891.159,1162.19 893.211,1162.77 895.264,1112.95 897.317,1199.9 899.37,1215.48 901.423,1204.66 903.476,1137.14 905.529,1129.3 907.582,1200.22 909.635,1189.15 911.687,1176.01 913.74,1122.4 915.793,1206.78 917.846,1189.9 919.899,994.787 921.952,1191.5 924.005,1199.71 926.058,1129.82 928.111,1226.07 930.163,1036.08 932.216,1204.28 934.269,1238.68 936.322,1228.79 938.375,1192.56 940.428,1120.5 942.481,1189.98 944.534,1198.18 946.587,1157.59 948.639,1114.94 950.692,1070.02 952.745,1177.33 954.798,1162.66 956.851,1194.45 958.904,1206.59 960.957,1179.02 963.01,1151.16 965.063,1168.01 967.116,1198.24 969.168,1157.66 971.221,1187.94 973.274,1099.34 975.327,1242.69 977.38,1095.84 979.433,1070.54 981.486,1346.71 983.539,1134.97 985.592,1133.71 987.644,1184.32 989.697,1160.03 991.75,1161.36 993.803,1168.4 995.856,1169.46 997.909,1134.07 999.962,1102.08 1002.01,1182.56 1004.07,1138.01 1006.12,1137.4 1008.17,1187.26 1010.23,1209.72 1012.28,1127.37 1014.33,1244.6 1016.38,1003.38 1018.44,998.524 1020.49,987.037 1022.54,1435.17 1024.6,854.33 1026.65,1146.38 1028.7,1132.18 1030.76,1182.52 1032.81,1031.2 1034.86,1009.91 1036.91,1482.3 1038.97,1132.93 1041.02,1115.48 1043.07,1056.8 1045.13,1187.33 1047.18,1258.46 1049.23,1261.18 1051.28,1260.24 1053.34,1181.56 1055.39,1551.17 1057.44,1171.15 1059.5,1749.06 1061.55,1827.21 1063.6,745.809 1065.65,1310.44 1067.71,1286.75 1069.76,801.722 1071.81,1252.22 1073.87,1159.83 1075.92,1167.29 1077.97,1164.33 1080.02,1166.12 1082.08,1206.84 1084.13,1111.73 1086.18,1120.05 1088.24,1187.31 1090.29,1152.67 1092.34,1190.35 1094.39,1188.55 1096.45,1200.37 1098.5,1215.85 1100.55,1202.57 1102.61,1142.77 1104.66,1152.11 1106.71,1220.13 1108.77,1247.05 1110.82,1140.54 1112.87,1087.77 1114.92,1198.73 1116.98,1189.02 1119.03,1143.75 1121.08,1172.41 1123.14,1137.78 1125.19,1180.92 1127.24,1199.07 1129.29,1214.28 1131.35,1037.74 1133.4,1229.54 1135.45,1163.21 1137.51,1177.64 1139.56,1065.19 1141.61,1081.54 1143.66,1185.67 1145.72,1125.45 1147.77,1123.72 1149.82,1289.09 1151.88,789.579 1153.93,1366.24 1155.98,1170.83 1158.03,1138.99 1160.09,1197.89 1162.14,1400.82 1164.19,1474.58 1166.25,1651.97 1168.3,643.759 1170.35,1187.76 1172.4,1036.66 1174.46,1575.84 1176.51,1326.08 1178.56,1444.58 1180.62,1142.46 1182.67,1128.1 1184.72,1201.38 1186.77,1210.91 1188.83,1125.69 1190.88,1173.8 1192.93,1168.92 1194.99,1167.96 1197.04,1197.52 1199.09,1168.94 1201.15,1182.98 1203.2,1138.35 1205.25,1156.07 1207.3,1192.25 1209.36,1162.43 1211.41,1198.38 1213.46,1172.63 1215.52,1128.93 1217.57,1141.3 1219.62,1234.14 1221.67,1149.36 1223.73,1164.4 1225.78,1169.35 1227.83,1181.5 1229.89,1159.26 1231.94,820.029 1233.99,1191.6 1236.04,1181.99 1238.1,1186.54 1240.15,1139.61 1242.2,1173.39 1244.26,1162.49 1246.31,1155.65 1248.36,1182.6 1250.41,1202.29 1252.47,1186.47 1254.52,1113.74 1256.57,1158.52 1258.63,1170.82 1260.68,1156.59 1262.73,1404.32 1264.78,920.574 1266.84,-370.27 1268.89,-191.822 1270.94,113.233 1273,1939.59 1275.05,1269.39 1277.1,1346.84 1279.16,1186.78 1281.21,1161.29 1283.26,1201.56 1285.31,1188.56 1287.37,1088.32 1289.42,1205.65 1291.47,1149.31 1293.53,1168.5 1295.58,1174.41 1297.63,1149.87 1299.68,1138.99 1301.74,1152.9 1303.79,1178.37 1305.84,1173.51 1307.9,1164.77 1309.95,1129.28 1312,1172.93 1314.05,1176.72 1316.11,1155.78 1318.16,1164.89 1320.21,1199.75 1322.27,1193.58 1324.32,1159.52 1326.37,1180.04 1328.42,1134.38 1330.48,1125.69 1332.53,1150.12 1334.58,1160.92 1336.64,1158.43 1338.69,1165.26 1340.74,1159.28 1342.79,1097.47 1344.85,1135.31 1346.9,1203.84 1348.95,1156 1351.01,1200.87 1353.06,1003.4 1355.11,1407.82 1357.16,1428.52 1359.22,1200.22 1361.27,1175.24 1363.32,1170.5 1365.38,1184.51 1367.43,1127.89 1369.48,1175.31 1371.54,1148.82 1373.59,1151.99 1375.64,1130.65 1377.69,1171.58 1379.75,1179.62 1381.8,1144.46 1383.85,1173.42 1385.91,1156.55 1387.96,1161.43 1390.01,1121.32 1392.06,1188.04 1394.12,1190.52 1396.17,1173.43 1398.22,1132.43 1400.28,1161.28 1402.33,1158.59 1404.38,1275.08 1406.43,1222.19 1408.49,945.089 1410.54,1002.4 1412.59,1134.34 1414.65,1110.9 1416.7,1199.2 1418.75,1168.89 1420.8,1145.34 1422.86,1174.67 1424.91,1175.87 1426.96,1162.93 1429.02,1015.82 1431.07,1094.61 1433.12,1112.17 1435.17,1205.08 1437.23,1115.21 1439.28,1130.27 1441.33,1107.07 1443.39,1182.9 1445.44,1257.1 1447.49,1248.57 1449.55,1287.26 1451.6,942.919 1453.65,1073.92 1455.7,-276.261 1457.76,2043.53 1459.81,377.683 1461.86,758.714 1463.92,1223.03 1465.97,999.798 1468.02,1269.31 1470.07,1129.15 1472.13,1212.3 1474.18,1134.52 1476.23,1183.09 1478.29,1197.18 1480.34,1102.89 1482.39,1214.44 1484.44,1135.95 1486.5,1134.76 1488.55,1177 1490.6,1135.55 1492.66,1183.65 1494.71,1176.38 1496.76,1155.97 1498.81,1136.21 1500.87,1217.92 1502.92,1162.77 1504.97,1168.06 1507.03,1157.28 1509.08,1180.44 1511.13,1205.97 1513.18,1114.46 1515.24,1059.03 1517.29,1255.66 1519.34,1218.58 1521.4,1138.42 1523.45,1167.07 1525.5,1175.75 1527.55,1149.29 1529.61,1193.63 1531.66,1166.4 1533.71,1165.68 1535.77,1162.7 1537.82,1169.87 1539.87,1239.14 1541.93,1148.43 1543.98,1587.27 1546.03,900.78 1548.08,1319.88 1550.14,1058.05 1552.19,1074.93 1554.24,1019.43 1556.3,1075.77 1558.35,1163.42 1560.4,1186.03 1562.45,1093.98 1564.51,1150.74 1566.56,1178.84 1568.61,1194.54 1570.67,1150.92 1572.72,1172.27 1574.77,1167.38 1576.82,1164.97 1578.88,1278.05 1580.93,1121.92 1582.98,1159.11 1585.04,1189.64 1587.09,1143.77 1589.14,1159.81 1591.19,1084.99 1593.25,1181.87 1595.3,1163.86 1597.35,1154.59 1599.41,1173.46 1601.46,1748.71 1603.51,1049.16 1605.56,1244.16 1607.62,1213.08 1609.67,1153.51 1611.72,1103.31 1613.78,1158.3 1615.83,1125.34 1617.88,1182.49 1619.94,1216.77 1621.99,1190.38 1624.04,1127.37 1626.09,1223.69 1628.15,1110.6 1630.2,1187.69 1632.25,1163.05 1634.31,1155.82 1636.36,1143.75 1638.41,1174.83 1640.46,1356.58 1642.52,1159.76 1644.57,1147.49 1646.62,1174.91 1648.68,1156.79 1650.73,1159.6 1652.78,1179.56 1654.83,1186.75 1656.89,1164.98 1658.94,1152.49 1660.99,1050.87 1663.05,1427.8 1665.1,774.857 1667.15,1174.15 1669.2,1157.54 1671.26,1068.59 1673.31,1249.15 1675.36,1126.91 1677.42,1227.28 1679.47,1107.74 1681.52,1136.28 1683.57,1055.57 1685.63,1022.89 1687.68,1218.53 1689.73,1223.33 1691.79,1232.76 1693.84,1179.37 1695.89,1159.24 1697.94,1253.93 1700,1164.99 1702.05,1150.65 1704.1,1143.52 1706.16,1149.24 1708.21,1174.58 1710.26,1193.41 1712.32,1216.26 1714.37,1728.12 1716.42,1405.2 1718.47,1027.45 1720.53,1693.52 1722.58,1245.07 1724.63,1223.43 1726.69,1128.45 1728.74,1003.19 1730.79,1472.47 1732.84,1051.74 1734.9,1273.35 1736.95,1321.32 1739,1226.21 1741.06,1087.41 1743.11,1134.29 1745.16,1160.93 1747.21,1163.68 1749.27,1085.08 1751.32,1205.57 1753.37,1089.86 1755.43,1270.62 1757.48,1362.68 1759.53,1468.97 1761.58,1360.84 1763.64,1138.59 1765.69,1180.62 1767.74,1133.85 1769.8,1145.96 1771.85,1196.91 1773.9,1499.6 1775.95,1198.37 1778.01,1185.4 1780.06,1138.44 1782.11,1158.42 1784.17,1102.34 1786.22,1023.92 1788.27,1269.77 1790.33,1191.56 1792.38,1051.43 1794.43,1104.27 1796.48,1167.83 1798.54,1009.12 1800.59,1114.65 1802.64,1042.31 1804.7,1077.12 1806.75,1132.27 1808.8,805.21 1810.85,2956.54 1812.91,-854.635 1814.96,1027.37 1817.01,1311.78 1819.07,1419.56 1821.12,1177.73 1823.17,1201.68 1825.22,994.005 1827.28,1171.14 1829.33,1162.08 1831.38,1138.52 1833.44,1191.32 1835.49,1187.67 1837.54,1183.96 1839.59,1200.83 1841.65,1159.58 1843.7,1131.79 1845.75,1131.81 1847.81,1158.59 1849.86,1142 1851.91,1181.95 1853.96,1164.92 1856.02,1182.29 1858.07,1235.21 1860.12,1285.75 1862.18,1182.3 1864.23,1162.64 1866.28,1164.72 1868.34,1170.39 1870.39,931.497 1872.44,1196.04 1874.49,1197.61 1876.55,1120.41 1878.6,1128.11 1880.65,1128.8 1882.71,-752.05 1884.76,428.523 1886.81,1083.46 1888.86,1190.9 1890.92,1208.9 1892.97,1291.77 1895.02,1124.04 1897.08,1197.35 1899.13,1213.42 1901.18,1219.25 1903.23,1184.29 1905.29,1179.25 1907.34,1170.37 1909.39,1132.93 1911.45,1189.37 1913.5,1126.85 1915.55,1122.87 1917.6,1173.79 1919.66,1212.74 1921.71,1184.98 1923.76,1181.2 1925.82,1157.62 1927.87,1161.68 1929.92,1170.63 1931.97,1184 1934.03,1141.4 1936.08,1155.95 1938.13,1176.44 1940.19,1174.47 1942.24,1167.44 1944.29,1093.41 1946.34,1243.73 1948.4,1107.11 1950.45,1106.49 1952.5,1199.34 1954.56,1098.49 1956.61,1089.57 1958.66,779.13 1960.72,1194.97 1962.77,1169.22 1964.82,1126.72 1966.87,1156.81 1968.93,1136.21 1970.98,1152.98 1973.03,1076.54 1975.09,1131.88 1977.14,1170.03 1979.19,1180.42 1981.24,1085.55 1983.3,1332.14 1985.35,1200.94 1987.4,590.192 1989.46,-2078.51 1991.51,2917.88 1993.56,1334.5 1995.61,1347.91 1997.67,1296.5 1999.72,1530.35 2001.77,2745.54 2003.83,-2533.29 2005.88,4641.07 2007.93,-2244.87 2009.98,-3419.29 2012.04,897.317 2014.09,1061.98 2016.14,1194.04 2018.2,1150 2020.25,1100.28 2022.3,1166.47 2024.35,1169.99 2026.41,1193.05 2028.46,1136.62 2030.51,1126.11 2032.57,1061.78 2034.62,1371.85 2036.67,1133 2038.73,1189.16 2040.78,1179.6 2042.83,1224.35 2044.88,1027.18 2046.94,1201.75 2048.99,1125.21 2051.04,863.357 2053.1,976.459 2055.15,1202.96 2057.2,1148.67 2059.25,1169.57 2061.31,1154.09 2063.36,1132.6 2065.41,1110.11 2067.47,1107.06 2069.52,1194.53 2071.57,1090.05 2073.62,1132.14 2075.68,1104.77 2077.73,1186.49 2079.78,1123.67 2081.84,1228.08 2083.89,1471.85 2085.94,1639.52 2087.99,1091.71 2090.05,1152.99 2092.1,1078.37 2094.15,1264.69 2096.21,1089.36 2098.26,1186.09 2100.31,1168.15 2102.36,1153.65 2104.42,1180.95 2106.47,1190.96 2108.52,1156.68 2110.58,1188.25 2112.63,1163.37 2114.68,1160.12 2116.73,1178.06 2118.79,1172.83 2120.84,1149.7 2122.89,1106.71 2124.95,1113.24 2127,1230.85 2129.05,1150.56 2131.11,1172.68 2133.16,1123.42 2135.21,1085.32 2137.26,1134.22 2139.32,1030.55 2141.37,1229.67 2143.42,1122.38 2145.48,1205.94 2147.53,1195.67 2149.58,1147.24 2151.63,1150.25 2153.69,1235.39 2155.74,1152.09 2157.79,1216.87 2159.85,1305.24 2161.9,1185.65 2163.95,1218.16 2166,1174.66 2168.06,1108.95 2170.11,1214.7 2172.16,1188.09 2174.22,1143.32 2176.27,1149.21 2178.32,1103.35 2180.37,1261.31 2182.43,1081.9 2184.48,1149.49 2186.53,1054.92 2188.59,1234.07 2190.64,1220.12 2192.69,1362.11 2194.74,1134.71 2196.8,1176.58 2198.85,1066.28 2200.9,1237.81 2202.96,1110.3 2205.01,1194.94 2207.06,1173.05 2209.12,1140.55 2211.17,1139.39 2213.22,1164.22 2215.27,538.294 2217.33,882.114 2219.38,899.539 2221.43,1088.66 2223.49,1003.85 2225.54,1348.03 2227.59,1033.42 2229.64,1201.52 2231.7,1181.11 2233.75,1158.42 2235.8,1195.75 2237.86,1148.54 2239.91,1197.47 2241.96,1140.57 2244.01,1171.15 2246.07,1137.91 2248.12,1150.66 2250.17,1146.33 2252.23,1236.23 2254.28,1255.25 2256.33,1190.48 2258.38,1160.29 2260.44,1151.43 2262.49,1187.48 2264.54,1084.66 2266.6,1229.26 2268.65,1105.35 2270.7,1322.91 2272.75,1117.3 2274.81,1105.3 2276.86,1134.29 2278.91,1143.52 2280.97,1218.74 2283.02,1224.06 2285.07,1285.2 2287.12,1184.59 2289.18,1100.89 2291.23,1219.67 "/>
<path clip-path="url(#clip040)" d="M251.33 972.231 L588.926 972.231 L588.926 868.551 L251.33 868.551  Z" fill="#ffffff" fill-rule="evenodd" fill-opacity="1"/>
<polyline clip-path="url(#clip040)" style="stroke:#000000; stroke-linecap:round; stroke-linejoin:round; stroke-width:4; stroke-opacity:1; fill:none" points="251.33,972.231 588.926,972.231 588.926,868.551 251.33,868.551 251.33,972.231 "/>
<polyline clip-path="url(#clip040)" style="stroke:#009af9; stroke-linecap:round; stroke-linejoin:round; stroke-width:4; stroke-opacity:1; fill:none" points="275.484,920.391 420.41,920.391 "/>
<path clip-path="url(#clip040)" d="M470.12 932.74 L470.12 923.458 L462.481 923.458 L462.481 919.615 L474.749 919.615 L474.749 934.453 Q472.041 936.375 468.777 937.37 Q465.513 938.342 461.809 938.342 Q453.708 938.342 449.124 933.62 Q444.564 928.875 444.564 920.426 Q444.564 911.953 449.124 907.231 Q453.708 902.486 461.809 902.486 Q465.189 902.486 468.221 903.319 Q471.277 904.153 473.846 905.773 L473.846 910.75 Q471.254 908.551 468.337 907.44 Q465.421 906.328 462.203 906.328 Q455.86 906.328 452.666 909.87 Q449.495 913.412 449.495 920.426 Q449.495 927.416 452.666 930.958 Q455.86 934.5 462.203 934.5 Q464.68 934.5 466.624 934.083 Q468.569 933.643 470.12 932.74 Z" fill="#000000" fill-rule="nonzero" fill-opacity="1" /><path clip-path="url(#clip040)" d="M487.967 906.953 L487.967 919.94 L493.846 919.94 Q497.11 919.94 498.893 918.25 Q500.675 916.56 500.675 913.435 Q500.675 910.333 498.893 908.643 Q497.11 906.953 493.846 906.953 L487.967 906.953 M483.291 903.111 L493.846 903.111 Q499.657 903.111 502.619 905.75 Q505.606 908.365 505.606 913.435 Q505.606 918.551 502.619 921.166 Q499.657 923.782 493.846 923.782 L487.967 923.782 L487.967 937.671 L483.291 937.671 L483.291 903.111 Z" fill="#000000" fill-rule="nonzero" fill-opacity="1" /><path clip-path="url(#clip040)" d="M532.596 904.245 L532.596 908.805 Q529.934 907.532 527.573 906.907 Q525.212 906.282 523.013 906.282 Q519.193 906.282 517.11 907.764 Q515.05 909.245 515.05 911.977 Q515.05 914.268 516.416 915.449 Q517.805 916.606 521.647 917.324 L524.471 917.902 Q529.703 918.898 532.179 921.421 Q534.679 923.921 534.679 928.134 Q534.679 933.157 531.3 935.75 Q527.943 938.342 521.439 938.342 Q518.985 938.342 516.207 937.787 Q513.453 937.231 510.49 936.143 L510.49 931.328 Q513.337 932.926 516.068 933.736 Q518.8 934.546 521.439 934.546 Q525.443 934.546 527.619 932.972 Q529.795 931.398 529.795 928.481 Q529.795 925.935 528.221 924.5 Q526.67 923.064 523.105 922.347 L520.258 921.791 Q515.027 920.75 512.689 918.527 Q510.351 916.305 510.351 912.347 Q510.351 907.764 513.568 905.125 Q516.809 902.486 522.48 902.486 Q524.911 902.486 527.434 902.926 Q529.957 903.366 532.596 904.245 Z" fill="#000000" fill-rule="nonzero" fill-opacity="1" /><path clip-path="url(#clip040)" d="M562.689 904.245 L562.689 908.805 Q560.027 907.532 557.665 906.907 Q555.304 906.282 553.105 906.282 Q549.286 906.282 547.203 907.764 Q545.142 909.245 545.142 911.977 Q545.142 914.268 546.508 915.449 Q547.897 916.606 551.74 917.324 L554.564 917.902 Q559.795 918.898 562.272 921.421 Q564.772 923.921 564.772 928.134 Q564.772 933.157 561.392 935.75 Q558.036 938.342 551.531 938.342 Q549.078 938.342 546.3 937.787 Q543.545 937.231 540.582 936.143 L540.582 931.328 Q543.429 932.926 546.161 933.736 Q548.892 934.546 551.531 934.546 Q555.536 934.546 557.712 932.972 Q559.888 931.398 559.888 928.481 Q559.888 925.935 558.314 924.5 Q556.763 923.064 553.198 922.347 L550.351 921.791 Q545.119 920.75 542.781 918.527 Q540.443 916.305 540.443 912.347 Q540.443 907.764 543.661 905.125 Q546.902 902.486 552.573 902.486 Q555.003 902.486 557.527 902.926 Q560.05 903.366 562.689 904.245 Z" fill="#000000" fill-rule="nonzero" fill-opacity="1" /></svg>
