<?xml version="1.0" encoding="utf-8"?>
<svg xmlns="http://www.w3.org/2000/svg" xmlns:xlink="http://www.w3.org/1999/xlink" width="600" height="400" viewBox="0 0 2400 1600">
<defs>
  <clipPath id="clip340">
    <rect x="0" y="0" width="2400" height="1600"/>
  </clipPath>
</defs>
<path clip-path="url(#clip340)" d="M0 1600 L2400 1600 L2400 0 L0 0  Z" fill="#ffffff" fill-rule="evenodd" fill-opacity="1"/>
<defs>
  <clipPath id="clip341">
    <rect x="242" y="47" width="2112" height="1377"/>
  </clipPath>
</defs>
<path clip-path="url(#clip340)" d="M178.867 686.448 L2352.76 686.448 L2352.76 47.2441 L178.867 47.2441  Z" fill="#ffffff" fill-rule="evenodd" fill-opacity="1"/>
<defs>
  <clipPath id="clip342">
    <rect x="178" y="47" width="2175" height="640"/>
  </clipPath>
</defs>
<polyline clip-path="url(#clip342)" style="stroke:#000000; stroke-linecap:round; stroke-linejoin:round; stroke-width:2; stroke-opacity:0.1; fill:none" points="238.339,686.448 238.339,47.2441 "/>
<polyline clip-path="url(#clip342)" style="stroke:#000000; stroke-linecap:round; stroke-linejoin:round; stroke-width:2; stroke-opacity:0.1; fill:none" points="751.562,686.448 751.562,47.2441 "/>
<polyline clip-path="url(#clip342)" style="stroke:#000000; stroke-linecap:round; stroke-linejoin:round; stroke-width:2; stroke-opacity:0.1; fill:none" points="1264.78,686.448 1264.78,47.2441 "/>
<polyline clip-path="url(#clip342)" style="stroke:#000000; stroke-linecap:round; stroke-linejoin:round; stroke-width:2; stroke-opacity:0.1; fill:none" points="1778.01,686.448 1778.01,47.2441 "/>
<polyline clip-path="url(#clip342)" style="stroke:#000000; stroke-linecap:round; stroke-linejoin:round; stroke-width:2; stroke-opacity:0.1; fill:none" points="2291.23,686.448 2291.23,47.2441 "/>
<polyline clip-path="url(#clip342)" style="stroke:#000000; stroke-linecap:round; stroke-linejoin:round; stroke-width:2; stroke-opacity:0.1; fill:none" points="178.867,686.448 2352.76,686.448 "/>
<polyline clip-path="url(#clip342)" style="stroke:#000000; stroke-linecap:round; stroke-linejoin:round; stroke-width:2; stroke-opacity:0.1; fill:none" points="178.867,526.647 2352.76,526.647 "/>
<polyline clip-path="url(#clip342)" style="stroke:#000000; stroke-linecap:round; stroke-linejoin:round; stroke-width:2; stroke-opacity:0.1; fill:none" points="178.867,366.846 2352.76,366.846 "/>
<polyline clip-path="url(#clip342)" style="stroke:#000000; stroke-linecap:round; stroke-linejoin:round; stroke-width:2; stroke-opacity:0.1; fill:none" points="178.867,207.045 2352.76,207.045 "/>
<polyline clip-path="url(#clip342)" style="stroke:#000000; stroke-linecap:round; stroke-linejoin:round; stroke-width:2; stroke-opacity:0.1; fill:none" points="178.867,47.2441 2352.76,47.2441 "/>
<polyline clip-path="url(#clip340)" style="stroke:#000000; stroke-linecap:round; stroke-linejoin:round; stroke-width:4; stroke-opacity:1; fill:none" points="178.867,686.448 2352.76,686.448 "/>
<polyline clip-path="url(#clip340)" style="stroke:#000000; stroke-linecap:round; stroke-linejoin:round; stroke-width:4; stroke-opacity:1; fill:none" points="238.339,686.448 238.339,667.55 "/>
<polyline clip-path="url(#clip340)" style="stroke:#000000; stroke-linecap:round; stroke-linejoin:round; stroke-width:4; stroke-opacity:1; fill:none" points="751.562,686.448 751.562,667.55 "/>
<polyline clip-path="url(#clip340)" style="stroke:#000000; stroke-linecap:round; stroke-linejoin:round; stroke-width:4; stroke-opacity:1; fill:none" points="1264.78,686.448 1264.78,667.55 "/>
<polyline clip-path="url(#clip340)" style="stroke:#000000; stroke-linecap:round; stroke-linejoin:round; stroke-width:4; stroke-opacity:1; fill:none" points="1778.01,686.448 1778.01,667.55 "/>
<polyline clip-path="url(#clip340)" style="stroke:#000000; stroke-linecap:round; stroke-linejoin:round; stroke-width:4; stroke-opacity:1; fill:none" points="2291.23,686.448 2291.23,667.55 "/>
<path clip-path="url(#clip340)" d="M238.339 717.367 Q234.728 717.367 232.899 720.931 Q231.094 724.473 231.094 731.603 Q231.094 738.709 232.899 742.274 Q234.728 745.815 238.339 745.815 Q241.973 745.815 243.779 742.274 Q245.607 738.709 245.607 731.603 Q245.607 724.473 243.779 720.931 Q241.973 717.367 238.339 717.367 M238.339 713.663 Q244.149 713.663 247.205 718.269 Q250.283 722.853 250.283 731.603 Q250.283 740.329 247.205 744.936 Q244.149 749.519 238.339 749.519 Q232.529 749.519 229.45 744.936 Q226.395 740.329 226.395 731.603 Q226.395 722.853 229.45 718.269 Q232.529 713.663 238.339 713.663 Z" fill="#000000" fill-rule="nonzero" fill-opacity="1" /><path clip-path="url(#clip340)" d="M715.254 744.913 L731.574 744.913 L731.574 748.848 L709.629 748.848 L709.629 744.913 Q712.291 742.158 716.875 737.528 Q721.481 732.876 722.662 731.533 Q724.907 729.01 725.787 727.274 Q726.689 725.515 726.689 723.825 Q726.689 721.07 724.745 719.334 Q722.824 717.598 719.722 717.598 Q717.523 717.598 715.069 718.362 Q712.638 719.126 709.861 720.677 L709.861 715.955 Q712.685 714.82 715.138 714.242 Q717.592 713.663 719.629 713.663 Q725 713.663 728.194 716.348 Q731.388 719.033 731.388 723.524 Q731.388 725.654 730.578 727.575 Q729.791 729.473 727.685 732.066 Q727.106 732.737 724.004 735.954 Q720.902 739.149 715.254 744.913 Z" fill="#000000" fill-rule="nonzero" fill-opacity="1" /><path clip-path="url(#clip340)" d="M741.435 714.288 L759.791 714.288 L759.791 718.223 L745.717 718.223 L745.717 726.695 Q746.736 726.348 747.754 726.186 Q748.773 726.001 749.791 726.001 Q755.578 726.001 758.958 729.172 Q762.337 732.343 762.337 737.76 Q762.337 743.339 758.865 746.44 Q755.393 749.519 749.073 749.519 Q746.898 749.519 744.629 749.149 Q742.384 748.778 739.976 748.038 L739.976 743.339 Q742.06 744.473 744.282 745.028 Q746.504 745.584 748.981 745.584 Q752.985 745.584 755.323 743.478 Q757.661 741.371 757.661 737.76 Q757.661 734.149 755.323 732.042 Q752.985 729.936 748.981 729.936 Q747.106 729.936 745.231 730.353 Q743.379 730.769 741.435 731.649 L741.435 714.288 Z" fill="#000000" fill-rule="nonzero" fill-opacity="1" /><path clip-path="url(#clip340)" d="M781.55 717.367 Q777.939 717.367 776.11 720.931 Q774.305 724.473 774.305 731.603 Q774.305 738.709 776.11 742.274 Q777.939 745.815 781.55 745.815 Q785.184 745.815 786.99 742.274 Q788.819 738.709 788.819 731.603 Q788.819 724.473 786.99 720.931 Q785.184 717.367 781.55 717.367 M781.55 713.663 Q787.36 713.663 790.416 718.269 Q793.495 722.853 793.495 731.603 Q793.495 740.329 790.416 744.936 Q787.36 749.519 781.55 749.519 Q775.74 749.519 772.661 744.936 Q769.606 740.329 769.606 731.603 Q769.606 722.853 772.661 718.269 Q775.74 713.663 781.55 713.663 Z" fill="#000000" fill-rule="nonzero" fill-opacity="1" /><path clip-path="url(#clip340)" d="M1224.4 714.288 L1242.76 714.288 L1242.76 718.223 L1228.69 718.223 L1228.69 726.695 Q1229.7 726.348 1230.72 726.186 Q1231.74 726.001 1232.76 726.001 Q1238.55 726.001 1241.93 729.172 Q1245.31 732.343 1245.31 737.76 Q1245.31 743.339 1241.83 746.44 Q1238.36 749.519 1232.04 749.519 Q1229.87 749.519 1227.6 749.149 Q1225.35 748.778 1222.94 748.038 L1222.94 743.339 Q1225.03 744.473 1227.25 745.028 Q1229.47 745.584 1231.95 745.584 Q1235.95 745.584 1238.29 743.478 Q1240.63 741.371 1240.63 737.76 Q1240.63 734.149 1238.29 732.042 Q1235.95 729.936 1231.95 729.936 Q1230.07 729.936 1228.2 730.353 Q1226.35 730.769 1224.4 731.649 L1224.4 714.288 Z" fill="#000000" fill-rule="nonzero" fill-opacity="1" /><path clip-path="url(#clip340)" d="M1264.52 717.367 Q1260.91 717.367 1259.08 720.931 Q1257.27 724.473 1257.27 731.603 Q1257.27 738.709 1259.08 742.274 Q1260.91 745.815 1264.52 745.815 Q1268.15 745.815 1269.96 742.274 Q1271.79 738.709 1271.79 731.603 Q1271.79 724.473 1269.96 720.931 Q1268.15 717.367 1264.52 717.367 M1264.52 713.663 Q1270.33 713.663 1273.38 718.269 Q1276.46 722.853 1276.46 731.603 Q1276.46 740.329 1273.38 744.936 Q1270.33 749.519 1264.52 749.519 Q1258.71 749.519 1255.63 744.936 Q1252.57 740.329 1252.57 731.603 Q1252.57 722.853 1255.63 718.269 Q1258.71 713.663 1264.52 713.663 Z" fill="#000000" fill-rule="nonzero" fill-opacity="1" /><path clip-path="url(#clip340)" d="M1294.68 717.367 Q1291.07 717.367 1289.24 720.931 Q1287.44 724.473 1287.44 731.603 Q1287.44 738.709 1289.24 742.274 Q1291.07 745.815 1294.68 745.815 Q1298.31 745.815 1300.12 742.274 Q1301.95 738.709 1301.95 731.603 Q1301.95 724.473 1300.12 720.931 Q1298.31 717.367 1294.68 717.367 M1294.68 713.663 Q1300.49 713.663 1303.55 718.269 Q1306.62 722.853 1306.62 731.603 Q1306.62 740.329 1303.55 744.936 Q1300.49 749.519 1294.68 749.519 Q1288.87 749.519 1285.79 744.936 Q1282.74 740.329 1282.74 731.603 Q1282.74 722.853 1285.79 718.269 Q1288.87 713.663 1294.68 713.663 Z" fill="#000000" fill-rule="nonzero" fill-opacity="1" /><path clip-path="url(#clip340)" d="M1736.28 714.288 L1758.51 714.288 L1758.51 716.279 L1745.96 748.848 L1741.08 748.848 L1752.88 718.223 L1736.28 718.223 L1736.28 714.288 Z" fill="#000000" fill-rule="nonzero" fill-opacity="1" /><path clip-path="url(#clip340)" d="M1767.67 714.288 L1786.03 714.288 L1786.03 718.223 L1771.95 718.223 L1771.95 726.695 Q1772.97 726.348 1773.99 726.186 Q1775.01 726.001 1776.03 726.001 Q1781.82 726.001 1785.2 729.172 Q1788.57 732.343 1788.57 737.76 Q1788.57 743.339 1785.1 746.44 Q1781.63 749.519 1775.31 749.519 Q1773.14 749.519 1770.87 749.149 Q1768.62 748.778 1766.21 748.038 L1766.21 743.339 Q1768.3 744.473 1770.52 745.028 Q1772.74 745.584 1775.22 745.584 Q1779.22 745.584 1781.56 743.478 Q1783.9 741.371 1783.9 737.76 Q1783.9 734.149 1781.56 732.042 Q1779.22 729.936 1775.22 729.936 Q1773.34 729.936 1771.47 730.353 Q1769.62 730.769 1767.67 731.649 L1767.67 714.288 Z" fill="#000000" fill-rule="nonzero" fill-opacity="1" /><path clip-path="url(#clip340)" d="M1807.79 717.367 Q1804.18 717.367 1802.35 720.931 Q1800.54 724.473 1800.54 731.603 Q1800.54 738.709 1802.35 742.274 Q1804.18 745.815 1807.79 745.815 Q1811.42 745.815 1813.23 742.274 Q1815.06 738.709 1815.06 731.603 Q1815.06 724.473 1813.23 720.931 Q1811.42 717.367 1807.79 717.367 M1807.79 713.663 Q1813.6 713.663 1816.65 718.269 Q1819.73 722.853 1819.73 731.603 Q1819.73 740.329 1816.65 744.936 Q1813.6 749.519 1807.79 749.519 Q1801.98 749.519 1798.9 744.936 Q1795.84 740.329 1795.84 731.603 Q1795.84 722.853 1798.9 718.269 Q1801.98 713.663 1807.79 713.663 Z" fill="#000000" fill-rule="nonzero" fill-opacity="1" /><path clip-path="url(#clip340)" d="M2235.76 744.913 L2243.4 744.913 L2243.4 718.547 L2235.09 720.214 L2235.09 715.955 L2243.35 714.288 L2248.02 714.288 L2248.02 744.913 L2255.66 744.913 L2255.66 748.848 L2235.76 748.848 L2235.76 744.913 Z" fill="#000000" fill-rule="nonzero" fill-opacity="1" /><path clip-path="url(#clip340)" d="M2275.11 717.367 Q2271.5 717.367 2269.67 720.931 Q2267.86 724.473 2267.86 731.603 Q2267.86 738.709 2269.67 742.274 Q2271.5 745.815 2275.11 745.815 Q2278.74 745.815 2280.55 742.274 Q2282.38 738.709 2282.38 731.603 Q2282.38 724.473 2280.55 720.931 Q2278.74 717.367 2275.11 717.367 M2275.11 713.663 Q2280.92 713.663 2283.97 718.269 Q2287.05 722.853 2287.05 731.603 Q2287.05 740.329 2283.97 744.936 Q2280.92 749.519 2275.11 749.519 Q2269.3 749.519 2266.22 744.936 Q2263.16 740.329 2263.16 731.603 Q2263.16 722.853 2266.22 718.269 Q2269.3 713.663 2275.11 713.663 Z" fill="#000000" fill-rule="nonzero" fill-opacity="1" /><path clip-path="url(#clip340)" d="M2305.27 717.367 Q2301.66 717.367 2299.83 720.931 Q2298.02 724.473 2298.02 731.603 Q2298.02 738.709 2299.83 742.274 Q2301.66 745.815 2305.27 745.815 Q2308.9 745.815 2310.71 742.274 Q2312.54 738.709 2312.54 731.603 Q2312.54 724.473 2310.71 720.931 Q2308.9 717.367 2305.27 717.367 M2305.27 713.663 Q2311.08 713.663 2314.14 718.269 Q2317.21 722.853 2317.21 731.603 Q2317.21 740.329 2314.14 744.936 Q2311.08 749.519 2305.27 749.519 Q2299.46 749.519 2296.38 744.936 Q2293.33 740.329 2293.33 731.603 Q2293.33 722.853 2296.38 718.269 Q2299.46 713.663 2305.27 713.663 Z" fill="#000000" fill-rule="nonzero" fill-opacity="1" /><path clip-path="url(#clip340)" d="M2335.43 717.367 Q2331.82 717.367 2329.99 720.931 Q2328.19 724.473 2328.19 731.603 Q2328.19 738.709 2329.99 742.274 Q2331.82 745.815 2335.43 745.815 Q2339.07 745.815 2340.87 742.274 Q2342.7 738.709 2342.7 731.603 Q2342.7 724.473 2340.87 720.931 Q2339.07 717.367 2335.43 717.367 M2335.43 713.663 Q2341.24 713.663 2344.3 718.269 Q2347.38 722.853 2347.38 731.603 Q2347.38 740.329 2344.3 744.936 Q2341.24 749.519 2335.43 749.519 Q2329.62 749.519 2326.54 744.936 Q2323.49 740.329 2323.49 731.603 Q2323.49 722.853 2326.54 718.269 Q2329.62 713.663 2335.43 713.663 Z" fill="#000000" fill-rule="nonzero" fill-opacity="1" /><polyline clip-path="url(#clip340)" style="stroke:#000000; stroke-linecap:round; stroke-linejoin:round; stroke-width:4; stroke-opacity:1; fill:none" points="178.867,686.448 178.867,47.2441 "/>
<polyline clip-path="url(#clip340)" style="stroke:#000000; stroke-linecap:round; stroke-linejoin:round; stroke-width:4; stroke-opacity:1; fill:none" points="178.867,686.448 197.764,686.448 "/>
<polyline clip-path="url(#clip340)" style="stroke:#000000; stroke-linecap:round; stroke-linejoin:round; stroke-width:4; stroke-opacity:1; fill:none" points="178.867,526.647 197.764,526.647 "/>
<polyline clip-path="url(#clip340)" style="stroke:#000000; stroke-linecap:round; stroke-linejoin:round; stroke-width:4; stroke-opacity:1; fill:none" points="178.867,366.846 197.764,366.846 "/>
<polyline clip-path="url(#clip340)" style="stroke:#000000; stroke-linecap:round; stroke-linejoin:round; stroke-width:4; stroke-opacity:1; fill:none" points="178.867,207.045 197.764,207.045 "/>
<polyline clip-path="url(#clip340)" style="stroke:#000000; stroke-linecap:round; stroke-linejoin:round; stroke-width:4; stroke-opacity:1; fill:none" points="178.867,47.2441 197.764,47.2441 "/>
<path clip-path="url(#clip340)" d="M50.9921 686.899 L80.6679 686.899 L80.6679 690.834 L50.9921 690.834 L50.9921 686.899 Z" fill="#000000" fill-rule="nonzero" fill-opacity="1" /><path clip-path="url(#clip340)" d="M91.5706 699.793 L99.2095 699.793 L99.2095 673.427 L90.8993 675.094 L90.8993 670.835 L99.1632 669.168 L103.839 669.168 L103.839 699.793 L111.478 699.793 L111.478 703.728 L91.5706 703.728 L91.5706 699.793 Z" fill="#000000" fill-rule="nonzero" fill-opacity="1" /><path clip-path="url(#clip340)" d="M130.922 672.247 Q127.311 672.247 125.482 675.811 Q123.677 679.353 123.677 686.483 Q123.677 693.589 125.482 697.154 Q127.311 700.695 130.922 700.695 Q134.556 700.695 136.362 697.154 Q138.191 693.589 138.191 686.483 Q138.191 679.353 136.362 675.811 Q134.556 672.247 130.922 672.247 M130.922 668.543 Q136.732 668.543 139.788 673.149 Q142.867 677.733 142.867 686.483 Q142.867 695.209 139.788 699.816 Q136.732 704.399 130.922 704.399 Q125.112 704.399 122.033 699.816 Q118.978 695.209 118.978 686.483 Q118.978 677.733 122.033 673.149 Q125.112 668.543 130.922 668.543 Z" fill="#000000" fill-rule="nonzero" fill-opacity="1" /><path clip-path="url(#clip340)" d="M82.1494 527.098 L111.825 527.098 L111.825 531.033 L82.1494 531.033 L82.1494 527.098 Z" fill="#000000" fill-rule="nonzero" fill-opacity="1" /><path clip-path="url(#clip340)" d="M121.964 509.367 L140.32 509.367 L140.32 513.302 L126.246 513.302 L126.246 521.774 Q127.265 521.427 128.283 521.265 Q129.302 521.08 130.32 521.08 Q136.107 521.08 139.487 524.251 Q142.867 527.422 142.867 532.839 Q142.867 538.418 139.394 541.52 Q135.922 544.598 129.603 544.598 Q127.427 544.598 125.158 544.228 Q122.913 543.857 120.506 543.117 L120.506 538.418 Q122.589 539.552 124.811 540.108 Q127.033 540.663 129.51 540.663 Q133.515 540.663 135.853 538.557 Q138.191 536.45 138.191 532.839 Q138.191 529.228 135.853 527.121 Q133.515 525.015 129.51 525.015 Q127.635 525.015 125.76 525.432 Q123.908 525.848 121.964 526.728 L121.964 509.367 Z" fill="#000000" fill-rule="nonzero" fill-opacity="1" /><path clip-path="url(#clip340)" d="M130.922 352.645 Q127.311 352.645 125.482 356.209 Q123.677 359.751 123.677 366.881 Q123.677 373.987 125.482 377.552 Q127.311 381.094 130.922 381.094 Q134.556 381.094 136.362 377.552 Q138.191 373.987 138.191 366.881 Q138.191 359.751 136.362 356.209 Q134.556 352.645 130.922 352.645 M130.922 348.941 Q136.732 348.941 139.788 353.547 Q142.867 358.131 142.867 366.881 Q142.867 375.608 139.788 380.214 Q136.732 384.797 130.922 384.797 Q125.112 384.797 122.033 380.214 Q118.978 375.608 118.978 366.881 Q118.978 358.131 122.033 353.547 Q125.112 348.941 130.922 348.941 Z" fill="#000000" fill-rule="nonzero" fill-opacity="1" /><path clip-path="url(#clip340)" d="M121.964 189.765 L140.32 189.765 L140.32 193.7 L126.246 193.7 L126.246 202.172 Q127.265 201.825 128.283 201.663 Q129.302 201.478 130.32 201.478 Q136.107 201.478 139.487 204.649 Q142.867 207.82 142.867 213.237 Q142.867 218.816 139.394 221.918 Q135.922 224.996 129.603 224.996 Q127.427 224.996 125.158 224.626 Q122.913 224.256 120.506 223.515 L120.506 218.816 Q122.589 219.95 124.811 220.506 Q127.033 221.061 129.51 221.061 Q133.515 221.061 135.853 218.955 Q138.191 216.848 138.191 213.237 Q138.191 209.626 135.853 207.52 Q133.515 205.413 129.51 205.413 Q127.635 205.413 125.76 205.83 Q123.908 206.246 121.964 207.126 L121.964 189.765 Z" fill="#000000" fill-rule="nonzero" fill-opacity="1" /><path clip-path="url(#clip340)" d="M91.5706 60.5889 L99.2095 60.5889 L99.2095 34.2233 L90.8993 35.89 L90.8993 31.6308 L99.1632 29.9641 L103.839 29.9641 L103.839 60.5889 L111.478 60.5889 L111.478 64.5241 L91.5706 64.5241 L91.5706 60.5889 Z" fill="#000000" fill-rule="nonzero" fill-opacity="1" /><path clip-path="url(#clip340)" d="M130.922 33.0428 Q127.311 33.0428 125.482 36.6076 Q123.677 40.1492 123.677 47.2788 Q123.677 54.3853 125.482 57.9501 Q127.311 61.4917 130.922 61.4917 Q134.556 61.4917 136.362 57.9501 Q138.191 54.3853 138.191 47.2788 Q138.191 40.1492 136.362 36.6076 Q134.556 33.0428 130.922 33.0428 M130.922 29.3391 Q136.732 29.3391 139.788 33.9456 Q142.867 38.5289 142.867 47.2788 Q142.867 56.0056 139.788 60.6121 Q136.732 65.1954 130.922 65.1954 Q125.112 65.1954 122.033 60.6121 Q118.978 56.0056 118.978 47.2788 Q118.978 38.5289 122.033 33.9456 Q125.112 29.3391 130.922 29.3391 Z" fill="#000000" fill-rule="nonzero" fill-opacity="1" /><polyline clip-path="url(#clip342)" style="stroke:#009af9; stroke-linecap:round; stroke-linejoin:round; stroke-width:4; stroke-opacity:1; fill:none" points="240.392,334.886 242.445,331.471 244.498,329.045 246.55,379.053 248.603,426.214 250.656,426.2 252.709,423.671 254.762,425.7 256.815,425.773 258.868,425.723 260.921,425.636 262.974,424.666 265.027,417.684 267.079,400.502 269.132,400.502 271.185,399.34 273.238,409.869 275.291,406.604 277.344,408.542 279.397,405.366 281.45,406.912 283.503,406.943 285.555,408.065 287.608,416.848 289.661,415.396 291.714,372.795 293.767,377.92 295.82,372.357 297.873,386.188 299.926,351.016 301.979,350.557 304.031,351.283 306.084,344.418 308.137,353.107 310.19,353.736 312.243,399 314.296,399.898 316.349,414.079 318.402,410.445 320.455,406.914 322.507,406.85 324.56,425.264 326.613,427.435 328.666,441.09 330.719,435.56 332.772,451.202 334.825,449.16 336.878,446.647 338.931,435.254 340.984,433.504 343.036,548.166 345.089,544.606 347.142,561.548 349.195,582.422 351.248,582.521 353.301,579.959 355.354,581.03 357.407,566.611 359.46,416.847 361.512,594.527 363.565,593.698 365.618,548.23 367.671,544.688 369.724,541.12 371.777,532.238 373.83,494.214 375.883,482.232 377.936,456.689 379.988,430.644 382.041,440.945 384.094,374.567 386.147,370.085 388.2,357.349 390.253,350.316 392.306,354.408 394.359,350.644 396.412,350.486 398.464,313.582 400.517,318.767 402.57,318.293 404.623,466.017 406.676,505.714 408.729,477.036 410.782,477.013 412.835,470.324 414.888,496.36 416.94,494.601 418.993,494.682 421.046,505.493 423.099,503.097 425.152,529.062 427.205,527.58 429.258,524.86 431.311,358.565 433.364,341.195 435.417,280.608 437.469,232.954 439.522,233.227 441.575,242.506 443.628,235.323 445.681,235.317 447.734,248.214 449.787,243.876 451.84,244.901 453.893,290.816 455.945,447.714 457.998,430.676 460.051,398.399 462.104,431.883 464.157,432.261 466.21,416.138 468.263,415.444 470.316,400.073 472.369,402.35 474.421,391.826 476.474,388.646 478.527,386.883 480.58,395.034 482.633,395.77 484.686,391.509 486.739,370.503 488.792,344.219 490.845,341.937 492.897,314.663 494.95,323.565 497.003,559.419 499.056,560 501.109,515.976 503.162,460.191 505.215,418.237 507.268,378.581 509.321,392.446 511.374,392.444 513.426,404.138 515.479,357.509 517.532,346.298 519.585,346.239 521.638,345.103 523.691,347.061 525.744,246.928 527.797,263.469 529.85,261.685 531.902,269.014 533.955,269.125 536.008,269.207 538.061,269.713 540.114,275.344 542.167,270.91 544.22,277.652 546.273,279.21 548.326,277.597 550.378,267.472 552.431,274.055 554.484,354.675 556.537,361.306 558.59,353.811 560.643,348.077 562.696,355.197 564.749,356.63 566.802,354.655 568.854,361.486 570.907,374.519 572.96,376.89 575.013,330.256 577.066,283.205 579.119,316.68 581.172,313.026 583.225,314.314 585.278,322.613 587.331,324.571 589.383,325.704 591.436,335.646 593.489,327.619 595.542,326.754 597.595,367.872 599.648,367.876 601.701,365.213 603.754,329.635 605.807,338.076 607.859,339.206 609.912,428.47 611.965,357.67 614.018,348.326 616.071,347.79 618.124,347.512 620.177,347.548 622.23,346.47 624.283,350.956 626.335,352.647 628.388,353.484 630.441,354.303 632.494,348.624 634.547,377.246 636.6,376.496 638.653,374.473 640.706,381.6 642.759,381.451 644.811,379.588 646.864,375.905 648.917,377.671 650.97,377.857 653.023,387.187 655.076,380.395 657.129,379.65 659.182,377.617 661.235,377.094 663.288,376.357 665.34,376.39 667.393,361.821 669.446,362.706 671.499,362.189 673.552,336.568 675.605,336.563 677.658,337.67 679.711,336.901 681.764,336.194 683.816,338.132 685.869,337.438 687.922,337.166 689.975,335.203 692.028,334.672 694.081,334.483 696.134,337.54 698.187,337.898 700.24,351.755 702.292,348.346 704.345,347.964 706.398,412.517 708.451,414.89 710.504,410.951 712.557,406.444 714.61,405.063 716.663,396.588 718.716,396.572 720.768,396.986 722.821,395.18 724.874,391.511 726.927,395.885 728.98,359.142 731.033,382.668 733.086,397.116 735.139,397.09 737.192,410.371 739.245,410.337 741.297,402.851 743.35,402.908 745.403,402.657 747.456,287.873 749.509,343.538 751.562,343.265 753.615,343.265 755.668,396.839 757.721,399.396 759.773,350.516 761.826,342.869 763.879,330.371 765.932,329.537 767.985,329.743 770.038,333.03 772.091,327.931 774.144,328.996 776.197,365.077 778.249,366.674 780.302,363.362 782.355,366.952 784.408,370.115 786.461,365.152 788.514,363.31 790.567,363.276 792.62,360.401 794.673,402.123 796.725,401.753 798.778,399.945 800.831,399.598 802.884,397.156 804.937,396.872 806.99,404.516 809.043,398.583 811.096,396.509 813.149,397.554 815.202,405.057 817.254,397.462 819.307,398.975 821.36,393.271 823.413,393.36 825.466,393.141 827.519,403.357 829.572,404.99 831.625,407.395 833.678,401.875 835.73,401.553 837.783,400.571 839.836,400.133 841.889,399.785 843.942,400.041 845.995,399.717 848.048,406.254 850.101,420.351 852.154,408.386 854.206,394.906 856.259,386.492 858.312,369.158 860.365,367.041 862.418,383.784 864.471,383.592 866.524,384.894 868.577,391.446 870.63,389.806 872.682,399.242 874.735,399.574 876.788,396.332 878.841,379.945 880.894,380.486 882.947,396.935 885,400.629 887.053,381.314 889.106,388.973 891.159,388.979 893.211,388.951 895.264,379.682 897.317,351.481 899.37,353.994 901.423,366.896 903.476,364.554 905.529,335.938 907.582,338.858 909.635,338.057 911.687,346.197 913.74,348.89 915.793,348.888 917.846,349.145 919.899,351.094 921.952,351.787 924.005,352.069 926.058,351.336 928.111,355.261 930.163,355.167 932.216,348.677 934.269,349.802 936.322,349.735 938.375,349.62 940.428,349.681 942.481,346.886 944.534,346.912 946.587,356.9 948.639,372.372 950.692,372.763 952.745,378.486 954.798,357.497 956.851,359.727 958.904,374.496 960.957,373.724 963.01,369.446 965.063,358.06 967.116,348.57 969.168,337.27 971.221,338.622 973.274,339.975 975.327,340.128 977.38,340.084 979.433,347.461 981.486,347.213 983.539,346.018 985.592,345.692 987.644,354.051 989.697,353.941 991.75,355.772 993.803,354.456 995.856,373.205 997.909,370.505 999.962,367.409 1002.01,366.764 1004.07,366.475 1006.12,367.075 1008.17,378.45 1010.23,376.485 1012.28,386.049 1014.33,381.393 1016.38,381.733 1018.44,353.603 1020.49,355.695 1022.54,355.583 1024.6,355.523 1026.65,357.875 1028.7,357.893 1030.76,358.791 1032.81,358.794 1034.86,359.978 1036.91,360.172 1038.97,363.245 1041.02,362.146 1043.07,350.33 1045.13,343.049 1047.18,343.105 1049.23,342.685 1051.28,342.602 1053.34,344.22 1055.39,344.487 1057.44,344.673 1059.5,342.7 1061.55,364.525 1063.6,367.557 1065.65,367.921 1067.71,368.559 1069.76,366.544 1071.81,366.011 1073.87,372.359 1075.92,379.353 1077.97,383.289 1080.02,385.971 1082.08,386.222 1084.13,381.837 1086.18,381.912 1088.24,392.768 1090.29,394.436 1092.34,420.346 1094.39,415.311 1096.45,415.898 1098.5,375.579 1100.55,374.297 1102.61,366.145 1104.66,365.464 1106.71,365.893 1108.77,382.775 1110.82,387.193 1112.87,387.212 1114.92,390.055 1116.98,384.232 1119.03,371.882 1121.08,371.264 1123.14,372.798 1125.19,369.514 1127.24,369.576 1129.29,368.269 1131.35,360.064 1133.4,360.328 1135.45,399.341 1137.51,394.621 1139.56,393.051 1141.61,386.902 1143.66,394.589 1145.72,393.291 1147.77,439.317 1149.82,439.279 1151.88,433.261 1153.93,433.766 1155.98,436.182 1158.03,433.9 1160.09,429.961 1162.14,410.372 1164.19,410.384 1166.25,405.142 1168.3,406.109 1170.35,409.466 1172.4,406.323 1174.46,404.611 1176.51,407.396 1178.56,428.123 1180.62,428.173 1182.67,441.495 1184.72,448.471 1186.77,443.084 1188.83,438.862 1190.88,392.563 1192.93,406.973 1194.99,381.235 1197.04,381.479 1199.09,386.736 1201.15,387.383 1203.2,387.182 1205.25,407.071 1207.3,451.62 1209.36,462.539 1211.41,351.563 1213.46,298.45 1215.52,295.89 1217.57,295.669 1219.62,316.695 1221.67,328.319 1223.73,328.562 1225.78,281.894 1227.83,316.059 1229.89,294.645 1231.94,293.987 1233.99,248.941 1236.04,220.896 1238.1,228.974 1240.15,279.597 1242.2,280.685 1244.26,281.515 1246.31,282.355 1248.36,280.519 1250.41,333.349 1252.47,361.153 1254.52,377.54 1256.57,372.664 1258.63,381.997 1260.68,382.019 1262.73,416.013 1264.78,418.722 1266.84,419.448 1268.89,367.083 1270.94,363.435 1273,363.189 1275.05,363.01 1277.1,360.497 1279.16,348.629 1281.21,338.86 1283.26,344.798 1285.31,348.09 1287.37,346.45 1289.42,352.08 1291.47,396.489 1293.53,391.77 1295.58,381.054 1297.63,381.195 1299.68,384.021 1301.74,382.603 1303.79,380.558 1305.84,380.525 1307.9,379.625 1309.95,383.845 1312,383.882 1314.05,395.257 1316.11,400.069 1318.16,400.064 1320.21,394.212 1322.27,392.877 1324.32,392.9 1326.37,394.657 1328.42,394.532 1330.48,393.666 1332.53,394.199 1334.58,365.252 1336.64,364.89 1338.69,357.596 1340.74,365.143 1342.79,371.362 1344.85,371.36 1346.9,400.229 1348.95,376.632 1351.01,381.257 1353.06,345.383 1355.11,373.06 1357.16,385.094 1359.22,388.353 1361.27,387.14 1363.32,416.724 1365.38,431.247 1367.43,425.334 1369.48,426.132 1371.54,422.611 1373.59,437.061 1375.64,352.292 1377.69,343.689 1379.75,349.745 1381.8,347.488 1383.85,348.081 1385.91,348.264 1387.96,360.673 1390.01,370.279 1392.06,351.009 1394.12,342.092 1396.17,315.582 1398.22,413.942 1400.28,444.827 1402.33,420.45 1404.38,371.192 1406.43,364.627 1408.49,446.592 1410.54,187.784 1412.59,284.468 1414.65,276.556 1416.7,478.102 1418.75,473.327 1420.8,499.655 1422.86,412.304 1424.91,412.101 1426.96,430.959 1429.02,458.388 1431.07,459.171 1433.12,275.482 1435.17,317.857 1437.23,384.003 1439.28,385.929 1441.33,424.214 1443.39,423.149 1445.44,384.402 1447.49,433.281 1449.55,431.146 1451.6,431.22 1453.65,437.163 1455.7,436.294 1457.76,298.152 1459.81,307.578 1461.86,319.296 1463.92,318.664 1465.97,394.201 1468.02,388.838 1470.07,385.863 1472.13,400.395 1474.18,414.181 1476.23,415.367 1478.29,420.14 1480.34,422.264 1482.39,408.686 1484.44,374.011 1486.5,191.668 1488.55,154.295 1490.6,184.534 1492.66,182.208 1494.71,361.634 1496.76,443.191 1498.81,565.961 1500.87,529.384 1502.92,527.131 1504.97,453.987 1507.03,569.294 1509.08,533.599 1511.13,518.021 1513.18,509.614 1515.24,510.451 1517.29,482.398 1519.34,225.577 1521.4,266.566 1523.45,327.951 1525.5,330.38 1527.55,319.009 1529.61,302.85 1531.66,301.573 1533.71,298.394 1535.77,386.7 1537.82,382.999 1539.87,469.896 1541.93,502.475 1543.98,496.619 1546.03,460.351 1548.08,457.913 1550.14,501.578 1552.19,700.279 1554.24,694.909 1556.3,606.675 1558.35,632.594 1560.4,718.205 1562.45,779.56 1564.51,779.506 1566.56,785.051 1568.61,786.332 1570.67,729.438 1572.72,439.124 1574.77,561.308 1576.82,517.81 1578.88,690.008 1580.93,288.114 1582.98,424.681 1585.04,425.809 1587.09,543.275 1589.14,622.794 1591.19,616.943 1593.25,616.325 1595.3,-309.003 1597.35,1098.24 1599.41,635.539 1601.46,654.656 1603.51,578.279 1605.56,538.39 1607.62,473.936 1609.67,445.496 1611.72,473.522 1613.78,541.048 1615.83,283.231 1617.88,256.981 1619.94,248.323 1621.99,319.745 1624.04,320.659 1626.09,273.115 1628.15,271.903 1630.2,305.546 1632.25,283.609 1634.31,286.547 1636.36,260.584 1638.41,250.222 1640.46,169.05 1642.52,171.447 1644.57,165.721 1646.62,171.421 1648.68,146.759 1650.73,179.848 1652.78,182.511 1654.83,182.261 1656.89,175.232 1658.94,174.609 1660.99,192.484 1663.05,306.582 1665.1,317.656 1667.15,373.685 1669.2,291.519 1671.26,294.452 1673.31,298.814 1675.36,303.118 1677.42,385.212 1679.47,400.626 1681.52,407.2 1683.57,423.722 1685.63,495.712 1687.68,555.182 1689.73,358.952 1691.79,381.958 1693.84,396.172 1695.89,396.134 1697.94,396.608 1700,426.724 1702.05,489.194 1704.1,486.877 1706.16,486.877 1708.21,488.521 1710.26,489.275 1712.32,403.239 1714.37,404.861 1716.42,353.226 1718.47,375.02 1720.53,377.657 1722.58,369.92 1724.63,366.947 1726.69,368.538 1728.74,376.348 1730.79,374.839 1732.84,376.735 1734.9,429.038 1736.95,380.171 1739,301.86 1741.06,284.541 1743.11,298.417 1745.16,296.035 1747.21,298.651 1749.27,296.198 1751.32,296.206 1753.37,296.098 1755.43,295.905 1757.48,299.616 1759.53,415.173 1761.58,330.689 1763.64,321.286 1765.69,324.376 1767.74,301.165 1769.8,308.979 1771.85,318.109 1773.9,316.174 1775.95,311.939 1778.01,331.912 1780.06,340.701 1782.11,339.687 1784.17,382.561 1786.22,386.072 1788.27,386.184 1790.33,357.629 1792.38,351.884 1794.43,348.087 1796.48,339.906 1798.54,337.022 1800.59,335.881 1802.64,336.755 1804.7,341.67 1806.75,381.274 1808.8,371.671 1810.85,345.904 1812.91,395.386 1814.96,399.408 1817.01,425.251 1819.07,392.742 1821.12,390.938 1823.17,390.541 1825.22,390.161 1827.28,390.976 1829.33,381.023 1831.38,382.662 1833.44,383.159 1835.49,381.927 1837.54,382.289 1839.59,374.076 1841.65,374.1 1843.7,366.392 1845.75,361.765 1847.81,357.778 1849.86,357.347 1851.91,371.439 1853.96,371.443 1856.02,368.324 1858.07,363.91 1860.12,362.379 1862.18,362.179 1864.23,390.92 1866.28,394.687 1868.34,407.24 1870.39,419.088 1872.44,418.606 1874.49,426.626 1876.55,473.307 1878.6,475.966 1880.65,440.519 1882.71,440.533 1884.76,405.917 1886.81,387.529 1888.86,282.263 1890.92,295.84 1892.97,382.878 1895.02,377.141 1897.08,376.091 1899.13,370.296 1901.18,363.482 1903.23,362.37 1905.29,362.753 1907.34,360.284 1909.39,359.99 1911.45,375.392 1913.5,412.311 1915.55,419.452 1917.6,439.82 1919.66,419.976 1921.71,419.447 1923.76,443.313 1925.82,442.085 1927.87,425.357 1929.92,439.817 1931.97,368.934 1934.03,369.025 1936.08,370.604 1938.13,360.963 1940.19,362.493 1942.24,350.958 1944.29,366.98 1946.34,366.967 1948.4,365.727 1950.45,376.185 1952.5,373.732 1954.56,372.784 1956.61,401.61 1958.66,394.506 1960.72,388.854 1962.77,389.748 1964.82,378.373 1966.87,352.553 1968.93,307.182 1970.98,301.524 1973.03,291.909 1975.09,281.591 1977.14,309.221 1979.19,309.574 1981.24,307.164 1983.3,299.411 1985.35,403.543 1987.4,400.017 1989.46,382.831 1991.51,383.505 1993.56,384.7 1995.61,366.634 1997.67,312.37 1999.72,325.098 2001.77,325.692 2003.83,330.513 2005.88,338.123 2007.93,327.693 2009.98,321.432 2012.04,313.182 2014.09,340.86 2016.14,315.15 2018.2,307.027 2020.25,357.333 2022.3,335.273 2024.35,335.425 2026.41,333.36 2028.46,328.641 2030.51,298.664 2032.57,297.229 2034.62,314.875 2036.67,355.915 2038.73,359.056 2040.78,431.448 2042.83,404.881 2044.88,409.223 2046.94,439.259 2048.99,439.363 2051.04,444.708 2053.1,490.748 2055.15,492.753 2057.2,493.44 2059.25,476.65 2061.31,480.873 2063.36,480.984 2065.41,478.79 2067.47,474.953 2069.52,466.45 2071.57,454.182 2073.62,450.896 2075.68,451.317 2077.73,451.89 2079.78,451.946 2081.84,452.223 2083.89,452.105 2085.94,451.069 2087.99,456.541 2090.05,463.605 2092.1,461.067 2094.15,460.752 2096.21,460.87 2098.26,428.821 2100.31,434.102 2102.36,444.732 2104.42,415.157 2106.47,410.623 2108.52,424.31 2110.58,437.933 2112.63,399.32 2114.68,421.134 2116.73,421.979 2118.79,418.109 2120.84,419.078 2122.89,418.411 2124.95,427.517 2127,366.562 2129.05,361.019 2131.11,366.232 2133.16,358.698 2135.21,366.742 2137.26,375.209 2139.32,372.854 2141.37,372.728 2143.42,380.91 2145.48,390.522 2147.53,396.995 2149.58,396.851 2151.63,358.826 2153.69,369.198 2155.74,368.741 2157.79,321.537 2159.85,311.357 2161.9,311.371 2163.95,308.732 2166,396.965 2168.06,396.899 2170.11,392.269 2172.16,351.95 2174.22,343.392 2176.27,334.418 2178.32,336.546 2180.37,342.735 2182.43,341.876 2184.48,342.163 2186.53,342.695 2188.59,356.705 2190.64,368.935 2192.69,349.069 2194.74,349.004 2196.8,352.851 2198.85,328.059 2200.9,329.23 2202.96,351.552 2205.01,366.967 2207.06,373.152 2209.12,396.46 2211.17,401.119 2213.22,406.019 2215.27,386.13 2217.33,453.698 2219.38,459.098 2221.43,459.392 2223.49,409.922 2225.54,405.579 2227.59,430.842 2229.64,424.544 2231.7,422.915 2233.75,419.111 2235.8,407.265 2237.86,407.876 2239.91,413.325 2241.96,387.607 2244.01,397.274 2246.07,397.517 2248.12,397.134 2250.17,376.123 2252.23,368.862 2254.28,368.927 2256.33,369.102 2258.38,420.401 2260.44,419.979 2262.49,399.67 2264.54,384.267 2266.6,384.517 2268.65,384.296 2270.7,378.688 2272.75,378.639 2274.81,373.605 2276.86,381.533 2278.91,372.943 2280.97,409.579 2283.02,356.79 2285.07,356.729 2287.12,307.948 2289.18,343.914 2291.23,348.839 "/>
<path clip-path="url(#clip340)" d="M1983.6 172.231 L2280.29 172.231 L2280.29 68.5509 L1983.6 68.5509  Z" fill="#ffffff" fill-rule="evenodd" fill-opacity="1"/>
<polyline clip-path="url(#clip340)" style="stroke:#000000; stroke-linecap:round; stroke-linejoin:round; stroke-width:4; stroke-opacity:1; fill:none" points="1983.6,172.231 2280.29,172.231 2280.29,68.5509 1983.6,68.5509 1983.6,172.231 "/>
<polyline clip-path="url(#clip340)" style="stroke:#009af9; stroke-linecap:round; stroke-linejoin:round; stroke-width:4; stroke-opacity:1; fill:none" points="2007.75,120.391 2152.68,120.391 "/>
<path clip-path="url(#clip340)" d="M2176.83 103.111 L2181.51 103.111 L2181.51 133.736 L2198.34 133.736 L2198.34 137.671 L2176.83 137.671 L2176.83 103.111 Z" fill="#000000" fill-rule="nonzero" fill-opacity="1" /><path clip-path="url(#clip340)" d="M2223.96 104.245 L2223.96 108.805 Q2221.3 107.532 2218.94 106.907 Q2216.58 106.282 2214.38 106.282 Q2210.56 106.282 2208.48 107.764 Q2206.42 109.245 2206.42 111.977 Q2206.42 114.268 2207.78 115.449 Q2209.17 116.606 2213.01 117.324 L2215.84 117.902 Q2221.07 118.898 2223.55 121.421 Q2226.05 123.921 2226.05 128.134 Q2226.05 133.157 2222.67 135.75 Q2219.31 138.342 2212.81 138.342 Q2210.35 138.342 2207.57 137.787 Q2204.82 137.231 2201.86 136.143 L2201.86 131.328 Q2204.7 132.926 2207.44 133.736 Q2210.17 134.546 2212.81 134.546 Q2216.81 134.546 2218.99 132.972 Q2221.16 131.398 2221.16 128.481 Q2221.16 125.935 2219.59 124.5 Q2218.04 123.064 2214.47 122.347 L2211.62 121.791 Q2206.39 120.75 2204.06 118.527 Q2201.72 116.305 2201.72 112.347 Q2201.72 107.764 2204.94 105.125 Q2208.18 102.486 2213.85 102.486 Q2216.28 102.486 2218.8 102.926 Q2221.32 103.366 2223.96 104.245 Z" fill="#000000" fill-rule="nonzero" fill-opacity="1" /><path clip-path="url(#clip340)" d="M2254.06 104.245 L2254.06 108.805 Q2251.39 107.532 2249.03 106.907 Q2246.67 106.282 2244.47 106.282 Q2240.65 106.282 2238.57 107.764 Q2236.51 109.245 2236.51 111.977 Q2236.51 114.268 2237.87 115.449 Q2239.26 116.606 2243.11 117.324 L2245.93 117.902 Q2251.16 118.898 2253.64 121.421 Q2256.14 123.921 2256.14 128.134 Q2256.14 133.157 2252.76 135.75 Q2249.4 138.342 2242.9 138.342 Q2240.44 138.342 2237.67 137.787 Q2234.91 137.231 2231.95 136.143 L2231.95 131.328 Q2234.8 132.926 2237.53 133.736 Q2240.26 134.546 2242.9 134.546 Q2246.9 134.546 2249.08 132.972 Q2251.25 131.398 2251.25 128.481 Q2251.25 125.935 2249.68 124.5 Q2248.13 123.064 2244.56 122.347 L2241.72 121.791 Q2236.49 120.75 2234.15 118.527 Q2231.81 116.305 2231.81 112.347 Q2231.81 107.764 2235.03 105.125 Q2238.27 102.486 2243.94 102.486 Q2246.37 102.486 2248.89 102.926 Q2251.42 103.366 2254.06 104.245 Z" fill="#000000" fill-rule="nonzero" fill-opacity="1" /><path clip-path="url(#clip340)" d="M178.867 1486.45 L2352.76 1486.45 L2352.76 847.244 L178.867 847.244  Z" fill="#ffffff" fill-rule="evenodd" fill-opacity="1"/>
<defs>
  <clipPath id="clip343">
    <rect x="178" y="847" width="2175" height="640"/>
  </clipPath>
</defs>
<polyline clip-path="url(#clip343)" style="stroke:#000000; stroke-linecap:round; stroke-linejoin:round; stroke-width:2; stroke-opacity:0.1; fill:none" points="238.339,1486.45 238.339,847.244 "/>
<polyline clip-path="url(#clip343)" style="stroke:#000000; stroke-linecap:round; stroke-linejoin:round; stroke-width:2; stroke-opacity:0.1; fill:none" points="751.562,1486.45 751.562,847.244 "/>
<polyline clip-path="url(#clip343)" style="stroke:#000000; stroke-linecap:round; stroke-linejoin:round; stroke-width:2; stroke-opacity:0.1; fill:none" points="1264.78,1486.45 1264.78,847.244 "/>
<polyline clip-path="url(#clip343)" style="stroke:#000000; stroke-linecap:round; stroke-linejoin:round; stroke-width:2; stroke-opacity:0.1; fill:none" points="1778.01,1486.45 1778.01,847.244 "/>
<polyline clip-path="url(#clip343)" style="stroke:#000000; stroke-linecap:round; stroke-linejoin:round; stroke-width:2; stroke-opacity:0.1; fill:none" points="2291.23,1486.45 2291.23,847.244 "/>
<polyline clip-path="url(#clip343)" style="stroke:#000000; stroke-linecap:round; stroke-linejoin:round; stroke-width:2; stroke-opacity:0.1; fill:none" points="178.867,1486.45 2352.76,1486.45 "/>
<polyline clip-path="url(#clip343)" style="stroke:#000000; stroke-linecap:round; stroke-linejoin:round; stroke-width:2; stroke-opacity:0.1; fill:none" points="178.867,1326.65 2352.76,1326.65 "/>
<polyline clip-path="url(#clip343)" style="stroke:#000000; stroke-linecap:round; stroke-linejoin:round; stroke-width:2; stroke-opacity:0.1; fill:none" points="178.867,1166.85 2352.76,1166.85 "/>
<polyline clip-path="url(#clip343)" style="stroke:#000000; stroke-linecap:round; stroke-linejoin:round; stroke-width:2; stroke-opacity:0.1; fill:none" points="178.867,1007.05 2352.76,1007.05 "/>
<polyline clip-path="url(#clip343)" style="stroke:#000000; stroke-linecap:round; stroke-linejoin:round; stroke-width:2; stroke-opacity:0.1; fill:none" points="178.867,847.244 2352.76,847.244 "/>
<polyline clip-path="url(#clip340)" style="stroke:#000000; stroke-linecap:round; stroke-linejoin:round; stroke-width:4; stroke-opacity:1; fill:none" points="178.867,1486.45 2352.76,1486.45 "/>
<polyline clip-path="url(#clip340)" style="stroke:#000000; stroke-linecap:round; stroke-linejoin:round; stroke-width:4; stroke-opacity:1; fill:none" points="238.339,1486.45 238.339,1467.55 "/>
<polyline clip-path="url(#clip340)" style="stroke:#000000; stroke-linecap:round; stroke-linejoin:round; stroke-width:4; stroke-opacity:1; fill:none" points="751.562,1486.45 751.562,1467.55 "/>
<polyline clip-path="url(#clip340)" style="stroke:#000000; stroke-linecap:round; stroke-linejoin:round; stroke-width:4; stroke-opacity:1; fill:none" points="1264.78,1486.45 1264.78,1467.55 "/>
<polyline clip-path="url(#clip340)" style="stroke:#000000; stroke-linecap:round; stroke-linejoin:round; stroke-width:4; stroke-opacity:1; fill:none" points="1778.01,1486.45 1778.01,1467.55 "/>
<polyline clip-path="url(#clip340)" style="stroke:#000000; stroke-linecap:round; stroke-linejoin:round; stroke-width:4; stroke-opacity:1; fill:none" points="2291.23,1486.45 2291.23,1467.55 "/>
<path clip-path="url(#clip340)" d="M238.339 1517.37 Q234.728 1517.37 232.899 1520.93 Q231.094 1524.47 231.094 1531.6 Q231.094 1538.71 232.899 1542.27 Q234.728 1545.82 238.339 1545.82 Q241.973 1545.82 243.779 1542.27 Q245.607 1538.71 245.607 1531.6 Q245.607 1524.47 243.779 1520.93 Q241.973 1517.37 238.339 1517.37 M238.339 1513.66 Q244.149 1513.66 247.205 1518.27 Q250.283 1522.85 250.283 1531.6 Q250.283 1540.33 247.205 1544.94 Q244.149 1549.52 238.339 1549.52 Q232.529 1549.52 229.45 1544.94 Q226.395 1540.33 226.395 1531.6 Q226.395 1522.85 229.45 1518.27 Q232.529 1513.66 238.339 1513.66 Z" fill="#000000" fill-rule="nonzero" fill-opacity="1" /><path clip-path="url(#clip340)" d="M715.254 1544.91 L731.574 1544.91 L731.574 1548.85 L709.629 1548.85 L709.629 1544.91 Q712.291 1542.16 716.875 1537.53 Q721.481 1532.88 722.662 1531.53 Q724.907 1529.01 725.787 1527.27 Q726.689 1525.51 726.689 1523.82 Q726.689 1521.07 724.745 1519.33 Q722.824 1517.6 719.722 1517.6 Q717.523 1517.6 715.069 1518.36 Q712.638 1519.13 709.861 1520.68 L709.861 1515.95 Q712.685 1514.82 715.138 1514.24 Q717.592 1513.66 719.629 1513.66 Q725 1513.66 728.194 1516.35 Q731.388 1519.03 731.388 1523.52 Q731.388 1525.65 730.578 1527.57 Q729.791 1529.47 727.685 1532.07 Q727.106 1532.74 724.004 1535.95 Q720.902 1539.15 715.254 1544.91 Z" fill="#000000" fill-rule="nonzero" fill-opacity="1" /><path clip-path="url(#clip340)" d="M741.435 1514.29 L759.791 1514.29 L759.791 1518.22 L745.717 1518.22 L745.717 1526.7 Q746.736 1526.35 747.754 1526.19 Q748.773 1526 749.791 1526 Q755.578 1526 758.958 1529.17 Q762.337 1532.34 762.337 1537.76 Q762.337 1543.34 758.865 1546.44 Q755.393 1549.52 749.073 1549.52 Q746.898 1549.52 744.629 1549.15 Q742.384 1548.78 739.976 1548.04 L739.976 1543.34 Q742.06 1544.47 744.282 1545.03 Q746.504 1545.58 748.981 1545.58 Q752.985 1545.58 755.323 1543.48 Q757.661 1541.37 757.661 1537.76 Q757.661 1534.15 755.323 1532.04 Q752.985 1529.94 748.981 1529.94 Q747.106 1529.94 745.231 1530.35 Q743.379 1530.77 741.435 1531.65 L741.435 1514.29 Z" fill="#000000" fill-rule="nonzero" fill-opacity="1" /><path clip-path="url(#clip340)" d="M781.55 1517.37 Q777.939 1517.37 776.11 1520.93 Q774.305 1524.47 774.305 1531.6 Q774.305 1538.71 776.11 1542.27 Q777.939 1545.82 781.55 1545.82 Q785.184 1545.82 786.99 1542.27 Q788.819 1538.71 788.819 1531.6 Q788.819 1524.47 786.99 1520.93 Q785.184 1517.37 781.55 1517.37 M781.55 1513.66 Q787.36 1513.66 790.416 1518.27 Q793.495 1522.85 793.495 1531.6 Q793.495 1540.33 790.416 1544.94 Q787.36 1549.52 781.55 1549.52 Q775.74 1549.52 772.661 1544.94 Q769.606 1540.33 769.606 1531.6 Q769.606 1522.85 772.661 1518.27 Q775.74 1513.66 781.55 1513.66 Z" fill="#000000" fill-rule="nonzero" fill-opacity="1" /><path clip-path="url(#clip340)" d="M1224.4 1514.29 L1242.76 1514.29 L1242.76 1518.22 L1228.69 1518.22 L1228.69 1526.7 Q1229.7 1526.35 1230.72 1526.19 Q1231.74 1526 1232.76 1526 Q1238.55 1526 1241.93 1529.17 Q1245.31 1532.34 1245.31 1537.76 Q1245.31 1543.34 1241.83 1546.44 Q1238.36 1549.52 1232.04 1549.52 Q1229.87 1549.52 1227.6 1549.15 Q1225.35 1548.78 1222.94 1548.04 L1222.94 1543.34 Q1225.03 1544.47 1227.25 1545.03 Q1229.47 1545.58 1231.95 1545.58 Q1235.95 1545.58 1238.29 1543.48 Q1240.63 1541.37 1240.63 1537.76 Q1240.63 1534.15 1238.29 1532.04 Q1235.95 1529.94 1231.95 1529.94 Q1230.07 1529.94 1228.2 1530.35 Q1226.35 1530.77 1224.4 1531.65 L1224.4 1514.29 Z" fill="#000000" fill-rule="nonzero" fill-opacity="1" /><path clip-path="url(#clip340)" d="M1264.52 1517.37 Q1260.91 1517.37 1259.08 1520.93 Q1257.27 1524.47 1257.27 1531.6 Q1257.27 1538.71 1259.08 1542.27 Q1260.91 1545.82 1264.52 1545.82 Q1268.15 1545.82 1269.96 1542.27 Q1271.79 1538.71 1271.79 1531.6 Q1271.79 1524.47 1269.96 1520.93 Q1268.15 1517.37 1264.52 1517.37 M1264.52 1513.66 Q1270.33 1513.66 1273.38 1518.27 Q1276.46 1522.85 1276.46 1531.6 Q1276.46 1540.33 1273.38 1544.94 Q1270.33 1549.52 1264.52 1549.52 Q1258.71 1549.52 1255.63 1544.94 Q1252.57 1540.33 1252.57 1531.6 Q1252.57 1522.85 1255.63 1518.27 Q1258.71 1513.66 1264.52 1513.66 Z" fill="#000000" fill-rule="nonzero" fill-opacity="1" /><path clip-path="url(#clip340)" d="M1294.68 1517.37 Q1291.07 1517.37 1289.24 1520.93 Q1287.44 1524.47 1287.44 1531.6 Q1287.44 1538.71 1289.24 1542.27 Q1291.07 1545.82 1294.68 1545.82 Q1298.31 1545.82 1300.12 1542.27 Q1301.95 1538.71 1301.95 1531.6 Q1301.95 1524.47 1300.12 1520.93 Q1298.31 1517.37 1294.68 1517.37 M1294.68 1513.66 Q1300.49 1513.66 1303.55 1518.27 Q1306.62 1522.85 1306.62 1531.6 Q1306.62 1540.33 1303.55 1544.94 Q1300.49 1549.52 1294.68 1549.52 Q1288.87 1549.52 1285.79 1544.94 Q1282.74 1540.33 1282.74 1531.6 Q1282.74 1522.85 1285.79 1518.27 Q1288.87 1513.66 1294.68 1513.66 Z" fill="#000000" fill-rule="nonzero" fill-opacity="1" /><path clip-path="url(#clip340)" d="M1736.28 1514.29 L1758.51 1514.29 L1758.51 1516.28 L1745.96 1548.85 L1741.08 1548.85 L1752.88 1518.22 L1736.28 1518.22 L1736.28 1514.29 Z" fill="#000000" fill-rule="nonzero" fill-opacity="1" /><path clip-path="url(#clip340)" d="M1767.67 1514.29 L1786.03 1514.29 L1786.03 1518.22 L1771.95 1518.22 L1771.95 1526.7 Q1772.97 1526.35 1773.99 1526.19 Q1775.01 1526 1776.03 1526 Q1781.82 1526 1785.2 1529.17 Q1788.57 1532.34 1788.57 1537.76 Q1788.57 1543.34 1785.1 1546.44 Q1781.63 1549.52 1775.31 1549.52 Q1773.14 1549.52 1770.87 1549.15 Q1768.62 1548.78 1766.21 1548.04 L1766.21 1543.34 Q1768.3 1544.47 1770.52 1545.03 Q1772.74 1545.58 1775.22 1545.58 Q1779.22 1545.58 1781.56 1543.48 Q1783.9 1541.37 1783.9 1537.76 Q1783.9 1534.15 1781.56 1532.04 Q1779.22 1529.94 1775.22 1529.94 Q1773.34 1529.94 1771.47 1530.35 Q1769.62 1530.77 1767.67 1531.65 L1767.67 1514.29 Z" fill="#000000" fill-rule="nonzero" fill-opacity="1" /><path clip-path="url(#clip340)" d="M1807.79 1517.37 Q1804.18 1517.37 1802.35 1520.93 Q1800.54 1524.47 1800.54 1531.6 Q1800.54 1538.71 1802.35 1542.27 Q1804.18 1545.82 1807.79 1545.82 Q1811.42 1545.82 1813.23 1542.27 Q1815.06 1538.71 1815.06 1531.6 Q1815.06 1524.47 1813.23 1520.93 Q1811.42 1517.37 1807.79 1517.37 M1807.79 1513.66 Q1813.6 1513.66 1816.65 1518.27 Q1819.73 1522.85 1819.73 1531.6 Q1819.73 1540.33 1816.65 1544.94 Q1813.6 1549.52 1807.79 1549.52 Q1801.98 1549.52 1798.9 1544.94 Q1795.84 1540.33 1795.84 1531.6 Q1795.84 1522.85 1798.9 1518.27 Q1801.98 1513.66 1807.79 1513.66 Z" fill="#000000" fill-rule="nonzero" fill-opacity="1" /><path clip-path="url(#clip340)" d="M2235.76 1544.91 L2243.4 1544.91 L2243.4 1518.55 L2235.09 1520.21 L2235.09 1515.95 L2243.35 1514.29 L2248.02 1514.29 L2248.02 1544.91 L2255.66 1544.91 L2255.66 1548.85 L2235.76 1548.85 L2235.76 1544.91 Z" fill="#000000" fill-rule="nonzero" fill-opacity="1" /><path clip-path="url(#clip340)" d="M2275.11 1517.37 Q2271.5 1517.37 2269.67 1520.93 Q2267.86 1524.47 2267.86 1531.6 Q2267.86 1538.71 2269.67 1542.27 Q2271.5 1545.82 2275.11 1545.82 Q2278.74 1545.82 2280.55 1542.27 Q2282.38 1538.71 2282.38 1531.6 Q2282.38 1524.47 2280.55 1520.93 Q2278.74 1517.37 2275.11 1517.37 M2275.11 1513.66 Q2280.92 1513.66 2283.97 1518.27 Q2287.05 1522.85 2287.05 1531.6 Q2287.05 1540.33 2283.97 1544.94 Q2280.92 1549.52 2275.11 1549.52 Q2269.3 1549.52 2266.22 1544.94 Q2263.16 1540.33 2263.16 1531.6 Q2263.16 1522.85 2266.22 1518.27 Q2269.3 1513.66 2275.11 1513.66 Z" fill="#000000" fill-rule="nonzero" fill-opacity="1" /><path clip-path="url(#clip340)" d="M2305.27 1517.37 Q2301.66 1517.37 2299.83 1520.93 Q2298.02 1524.47 2298.02 1531.6 Q2298.02 1538.71 2299.83 1542.27 Q2301.66 1545.82 2305.27 1545.82 Q2308.9 1545.82 2310.71 1542.27 Q2312.54 1538.71 2312.54 1531.6 Q2312.54 1524.47 2310.71 1520.93 Q2308.9 1517.37 2305.27 1517.37 M2305.27 1513.66 Q2311.08 1513.66 2314.14 1518.27 Q2317.21 1522.85 2317.21 1531.6 Q2317.21 1540.33 2314.14 1544.94 Q2311.08 1549.52 2305.27 1549.52 Q2299.46 1549.52 2296.38 1544.94 Q2293.33 1540.33 2293.33 1531.6 Q2293.33 1522.85 2296.38 1518.27 Q2299.46 1513.66 2305.27 1513.66 Z" fill="#000000" fill-rule="nonzero" fill-opacity="1" /><path clip-path="url(#clip340)" d="M2335.43 1517.37 Q2331.82 1517.37 2329.99 1520.93 Q2328.19 1524.47 2328.19 1531.6 Q2328.19 1538.71 2329.99 1542.27 Q2331.82 1545.82 2335.43 1545.82 Q2339.07 1545.82 2340.87 1542.27 Q2342.7 1538.71 2342.7 1531.6 Q2342.7 1524.47 2340.87 1520.93 Q2339.07 1517.37 2335.43 1517.37 M2335.43 1513.66 Q2341.24 1513.66 2344.3 1518.27 Q2347.38 1522.85 2347.38 1531.6 Q2347.38 1540.33 2344.3 1544.94 Q2341.24 1549.52 2335.43 1549.52 Q2329.62 1549.52 2326.54 1544.94 Q2323.49 1540.33 2323.49 1531.6 Q2323.49 1522.85 2326.54 1518.27 Q2329.62 1513.66 2335.43 1513.66 Z" fill="#000000" fill-rule="nonzero" fill-opacity="1" /><polyline clip-path="url(#clip340)" style="stroke:#000000; stroke-linecap:round; stroke-linejoin:round; stroke-width:4; stroke-opacity:1; fill:none" points="178.867,1486.45 178.867,847.244 "/>
<polyline clip-path="url(#clip340)" style="stroke:#000000; stroke-linecap:round; stroke-linejoin:round; stroke-width:4; stroke-opacity:1; fill:none" points="178.867,1486.45 197.764,1486.45 "/>
<polyline clip-path="url(#clip340)" style="stroke:#000000; stroke-linecap:round; stroke-linejoin:round; stroke-width:4; stroke-opacity:1; fill:none" points="178.867,1326.65 197.764,1326.65 "/>
<polyline clip-path="url(#clip340)" style="stroke:#000000; stroke-linecap:round; stroke-linejoin:round; stroke-width:4; stroke-opacity:1; fill:none" points="178.867,1166.85 197.764,1166.85 "/>
<polyline clip-path="url(#clip340)" style="stroke:#000000; stroke-linecap:round; stroke-linejoin:round; stroke-width:4; stroke-opacity:1; fill:none" points="178.867,1007.05 197.764,1007.05 "/>
<polyline clip-path="url(#clip340)" style="stroke:#000000; stroke-linecap:round; stroke-linejoin:round; stroke-width:4; stroke-opacity:1; fill:none" points="178.867,847.244 197.764,847.244 "/>
<path clip-path="url(#clip340)" d="M50.9921 1486.9 L80.6679 1486.9 L80.6679 1490.83 L50.9921 1490.83 L50.9921 1486.9 Z" fill="#000000" fill-rule="nonzero" fill-opacity="1" /><path clip-path="url(#clip340)" d="M91.5706 1499.79 L99.2095 1499.79 L99.2095 1473.43 L90.8993 1475.09 L90.8993 1470.83 L99.1632 1469.17 L103.839 1469.17 L103.839 1499.79 L111.478 1499.79 L111.478 1503.73 L91.5706 1503.73 L91.5706 1499.79 Z" fill="#000000" fill-rule="nonzero" fill-opacity="1" /><path clip-path="url(#clip340)" d="M130.922 1472.25 Q127.311 1472.25 125.482 1475.81 Q123.677 1479.35 123.677 1486.48 Q123.677 1493.59 125.482 1497.15 Q127.311 1500.7 130.922 1500.7 Q134.556 1500.7 136.362 1497.15 Q138.191 1493.59 138.191 1486.48 Q138.191 1479.35 136.362 1475.81 Q134.556 1472.25 130.922 1472.25 M130.922 1468.54 Q136.732 1468.54 139.788 1473.15 Q142.867 1477.73 142.867 1486.48 Q142.867 1495.21 139.788 1499.82 Q136.732 1504.4 130.922 1504.4 Q125.112 1504.4 122.033 1499.82 Q118.978 1495.21 118.978 1486.48 Q118.978 1477.73 122.033 1473.15 Q125.112 1468.54 130.922 1468.54 Z" fill="#000000" fill-rule="nonzero" fill-opacity="1" /><path clip-path="url(#clip340)" d="M82.1494 1327.1 L111.825 1327.1 L111.825 1331.03 L82.1494 1331.03 L82.1494 1327.1 Z" fill="#000000" fill-rule="nonzero" fill-opacity="1" /><path clip-path="url(#clip340)" d="M121.964 1309.37 L140.32 1309.37 L140.32 1313.3 L126.246 1313.3 L126.246 1321.77 Q127.265 1321.43 128.283 1321.27 Q129.302 1321.08 130.32 1321.08 Q136.107 1321.08 139.487 1324.25 Q142.867 1327.42 142.867 1332.84 Q142.867 1338.42 139.394 1341.52 Q135.922 1344.6 129.603 1344.6 Q127.427 1344.6 125.158 1344.23 Q122.913 1343.86 120.506 1343.12 L120.506 1338.42 Q122.589 1339.55 124.811 1340.11 Q127.033 1340.66 129.51 1340.66 Q133.515 1340.66 135.853 1338.56 Q138.191 1336.45 138.191 1332.84 Q138.191 1329.23 135.853 1327.12 Q133.515 1325.01 129.51 1325.01 Q127.635 1325.01 125.76 1325.43 Q123.908 1325.85 121.964 1326.73 L121.964 1309.37 Z" fill="#000000" fill-rule="nonzero" fill-opacity="1" /><path clip-path="url(#clip340)" d="M130.922 1152.64 Q127.311 1152.64 125.482 1156.21 Q123.677 1159.75 123.677 1166.88 Q123.677 1173.99 125.482 1177.55 Q127.311 1181.09 130.922 1181.09 Q134.556 1181.09 136.362 1177.55 Q138.191 1173.99 138.191 1166.88 Q138.191 1159.75 136.362 1156.21 Q134.556 1152.64 130.922 1152.64 M130.922 1148.94 Q136.732 1148.94 139.788 1153.55 Q142.867 1158.13 142.867 1166.88 Q142.867 1175.61 139.788 1180.21 Q136.732 1184.8 130.922 1184.8 Q125.112 1184.8 122.033 1180.21 Q118.978 1175.61 118.978 1166.88 Q118.978 1158.13 122.033 1153.55 Q125.112 1148.94 130.922 1148.94 Z" fill="#000000" fill-rule="nonzero" fill-opacity="1" /><path clip-path="url(#clip340)" d="M121.964 989.765 L140.32 989.765 L140.32 993.7 L126.246 993.7 L126.246 1002.17 Q127.265 1001.83 128.283 1001.66 Q129.302 1001.48 130.32 1001.48 Q136.107 1001.48 139.487 1004.65 Q142.867 1007.82 142.867 1013.24 Q142.867 1018.82 139.394 1021.92 Q135.922 1025 129.603 1025 Q127.427 1025 125.158 1024.63 Q122.913 1024.26 120.506 1023.51 L120.506 1018.82 Q122.589 1019.95 124.811 1020.51 Q127.033 1021.06 129.51 1021.06 Q133.515 1021.06 135.853 1018.95 Q138.191 1016.85 138.191 1013.24 Q138.191 1009.63 135.853 1007.52 Q133.515 1005.41 129.51 1005.41 Q127.635 1005.41 125.76 1005.83 Q123.908 1006.25 121.964 1007.13 L121.964 989.765 Z" fill="#000000" fill-rule="nonzero" fill-opacity="1" /><path clip-path="url(#clip340)" d="M91.5706 860.589 L99.2095 860.589 L99.2095 834.223 L90.8993 835.89 L90.8993 831.631 L99.1632 829.964 L103.839 829.964 L103.839 860.589 L111.478 860.589 L111.478 864.524 L91.5706 864.524 L91.5706 860.589 Z" fill="#000000" fill-rule="nonzero" fill-opacity="1" /><path clip-path="url(#clip340)" d="M130.922 833.043 Q127.311 833.043 125.482 836.608 Q123.677 840.149 123.677 847.279 Q123.677 854.385 125.482 857.95 Q127.311 861.492 130.922 861.492 Q134.556 861.492 136.362 857.95 Q138.191 854.385 138.191 847.279 Q138.191 840.149 136.362 836.608 Q134.556 833.043 130.922 833.043 M130.922 829.339 Q136.732 829.339 139.788 833.946 Q142.867 838.529 142.867 847.279 Q142.867 856.006 139.788 860.612 Q136.732 865.195 130.922 865.195 Q125.112 865.195 122.033 860.612 Q118.978 856.006 118.978 847.279 Q118.978 838.529 122.033 833.946 Q125.112 829.339 130.922 829.339 Z" fill="#000000" fill-rule="nonzero" fill-opacity="1" /><polyline clip-path="url(#clip343)" style="stroke:#009af9; stroke-linecap:round; stroke-linejoin:round; stroke-width:4; stroke-opacity:1; fill:none" points="240.392,1134.89 242.445,1102.52 244.498,1123.4 246.55,1167.44 248.603,1107.2 250.656,1192.15 252.709,1107.37 254.762,1246.23 256.815,1157.8 258.868,1165.24 260.921,1186.75 262.974,1149.43 265.027,1145.62 267.079,1229.28 269.132,1141.29 271.185,1189.72 273.238,1261.53 275.291,1180.74 277.344,1134.99 279.397,1128.58 281.45,1121.36 283.503,1183.59 285.555,1106.72 287.608,952.966 289.661,1179.01 291.714,1241.63 293.767,1176.82 295.82,1167.92 297.873,1077.09 299.926,1214.6 301.979,1239.05 304.031,1154.97 306.084,1222.77 308.137,1190 310.19,1132.08 312.243,1236.47 314.296,1192.06 316.349,1154.63 318.402,1172.12 320.455,1235.07 322.507,1224 324.56,1240.57 326.613,1066.1 328.666,1120.79 330.719,1241.64 332.772,1185 334.825,1155.02 336.878,1143.03 338.931,1158.88 340.984,1187.63 343.036,1182.05 345.089,1139.95 347.142,1133.09 349.195,1212.93 351.248,1222.49 353.301,1162.9 355.354,1191.13 357.407,1132.64 359.46,1198.59 361.512,1142.04 363.565,1146.49 365.618,1178.85 367.671,1222.16 369.724,1056.86 371.777,1139.81 373.83,1209.46 375.883,1122.56 377.936,1143.75 379.988,1194.99 382.041,1189.41 384.094,1108.83 386.147,1158.11 388.2,1233.96 390.253,1125.05 392.306,1210.78 394.359,1142.66 396.412,1122.14 398.464,1128.72 400.517,1182.67 402.57,1055.91 404.623,1000.43 406.676,1087.69 408.729,1058.69 410.782,1123.57 412.835,1149.24 414.888,1134.96 416.94,1290.36 418.993,1216.4 421.046,1110.22 423.099,1082.12 425.152,1194.59 427.205,1201.54 429.258,1137.73 431.311,1140.98 433.364,1059.83 435.417,1089.84 437.469,1195.39 439.522,1189.68 441.575,1163.55 443.628,1169.45 445.681,1170.2 447.734,1128.59 449.787,1188.86 451.84,1209.36 453.893,1165.87 455.945,1155.82 457.998,1113.47 460.051,1324.43 462.104,1180.8 464.157,1123.02 466.21,1242.25 468.263,1035.71 470.316,1251.61 472.369,1040.46 474.421,1243.94 476.474,1201.42 478.527,1197.18 480.58,1193.54 482.633,1141.01 484.686,1166.2 486.739,1131.01 488.792,1265.77 490.845,1161.93 492.897,1096.46 494.95,1125.17 497.003,1200.98 499.056,1216.66 501.109,1157.22 503.162,1160.65 505.215,1165.25 507.268,1145.31 509.321,1208.52 511.374,1216.91 513.426,1061.19 515.479,1143.9 517.532,1147.58 519.585,1190.59 521.638,1184.66 523.691,1184.79 525.744,1160.37 527.797,1143.86 529.85,1145.71 531.902,1115.97 533.955,1108.43 536.008,1167.04 538.061,1172.85 540.114,1171.49 542.167,1178.7 544.22,1187.64 546.273,1191.77 548.326,1156.5 550.378,1145.65 552.431,1148.82 554.484,1158.47 556.537,1167.37 558.59,1158.61 560.643,1190.74 562.696,1182.51 564.749,1183.49 566.802,1169.15 568.854,1176.83 570.907,1160.62 572.96,1207.63 575.013,1175.6 577.066,1192.59 579.119,1173.12 581.172,1169.24 583.225,1157.18 585.278,1183.59 587.331,1171.06 589.383,1148.77 591.436,1297.88 593.489,1040.48 595.542,1050.53 597.595,1311.23 599.648,1143.45 601.701,1112.09 603.754,1130.36 605.807,1210.17 607.859,1017.24 609.912,1147.81 611.965,1184.12 614.018,1208.84 616.071,1169.41 618.124,1178.33 620.177,1190.93 622.23,1140.03 624.283,1127.04 626.335,1253.82 628.388,1140.8 630.441,1173.3 632.494,1138.01 634.547,1151.85 636.6,1171.62 638.653,1115.92 640.706,1114.4 642.759,1154.9 644.811,1166.63 646.864,1164.55 648.917,1145.77 650.97,1177.79 653.023,1153.44 655.076,1150.24 657.129,1424.43 659.182,1147.03 661.235,966.6 663.288,1208.28 665.34,1183.39 667.393,1156.24 669.446,1156.77 671.499,1205.84 673.552,1232.86 675.605,1135.52 677.658,1246.37 679.711,1058.07 681.764,1212.99 683.816,1198.81 685.869,1173.21 687.922,1126.27 689.975,990.013 692.028,1176.52 694.081,1251.65 696.134,1078.7 698.187,1214.65 700.24,1036.91 702.292,999.064 704.345,1331.28 706.398,1259.2 708.451,1439.75 710.504,423.704 712.557,451.308 714.61,1832.06 716.663,1263.99 718.716,1119.29 720.768,1154.36 722.821,1164.25 724.874,1194.66 726.927,1143.51 728.98,1195.5 731.033,1139.36 733.086,1195.85 735.139,1217.2 737.192,1150.39 739.245,1183.08 741.297,1165.33 743.35,1157.61 745.403,1175.86 747.456,1189.77 749.509,1202.25 751.562,1166.15 753.615,1253.87 755.668,1139.76 757.721,1131.04 759.773,1192.15 761.826,1220.92 763.879,1087.88 765.932,1239.06 767.985,1132.25 770.038,1184.82 772.091,1137.01 774.144,1135.58 776.197,1205.27 778.249,1255.04 780.302,1253.55 782.355,1227.36 784.408,1105.35 786.461,1206.83 788.514,1073.89 790.567,1087.17 792.62,1196.93 794.673,1180 796.725,1163.63 798.778,1206.25 800.831,1123.81 802.884,1110.44 804.937,1165.39 806.99,1182.36 809.043,1135.52 811.096,1266.81 813.149,1272.42 815.202,1162.65 817.254,1403.35 819.307,1196.29 821.36,1139.48 823.413,1215.6 825.466,1239.26 827.519,1156.8 829.572,1171.11 831.625,1181.63 833.678,1179.73 835.73,1153.67 837.783,1159.55 839.836,1178.78 841.889,1194.69 843.942,1153.05 845.995,1188.75 848.048,1198.96 850.101,1165.27 852.154,1156.16 854.206,1191.82 856.259,1136.22 858.312,1196.8 860.365,1159.04 862.418,1176.44 864.471,1168.57 866.524,1152.06 868.577,1132.33 870.63,1106.77 872.682,1257.26 874.735,1110.48 876.788,1001.51 878.841,1178.82 880.894,1510.01 882.947,959.899 885,1071.57 887.053,1088.39 889.106,1081.59 891.159,1186.61 893.211,1251.03 895.264,1170.48 897.317,1187.31 899.37,1179.63 901.423,1056.62 903.476,1306.73 905.529,1121.69 907.582,1130.7 909.635,1190.84 911.687,1170.79 913.74,1175.87 915.793,1188.18 917.846,1107.06 919.899,1098.95 921.952,1177.57 924.005,1154.95 926.058,1115.91 928.111,1192.41 930.163,1151.8 932.216,1126.21 934.269,1129.8 936.322,1090.11 938.375,1197.64 940.428,1090.14 942.481,1269.13 944.534,1254.79 946.587,1234.68 948.639,1252.37 950.692,1485.26 952.745,1124.86 954.798,1168.75 956.851,1173.49 958.904,1140.56 960.957,1178.45 963.01,1143.26 965.063,1176.36 967.116,1152.68 969.168,1152.98 971.221,1179.79 973.274,743.243 975.327,1500.48 977.38,1129.1 979.433,1098.94 981.486,1173.83 983.539,1217.15 985.592,1180.07 987.644,1165.61 989.697,1163.34 991.75,1158.32 993.803,1188.34 995.856,1176.61 997.909,1161.32 999.962,1159.36 1002.01,1163.6 1004.07,1130.62 1006.12,1132.69 1008.17,1204.25 1010.23,1131.1 1012.28,1150.3 1014.33,1160.21 1016.38,1159.52 1018.44,1166.74 1020.49,1148.99 1022.54,1156.2 1024.6,1345.83 1026.65,978.861 1028.7,1030.96 1030.76,1162.59 1032.81,1151.71 1034.86,1151.36 1036.91,1136.17 1038.97,1184.34 1041.02,1125.9 1043.07,1169.09 1045.13,1168.64 1047.18,1120.54 1049.23,1286.45 1051.28,1195.83 1053.34,1196.86 1055.39,1177.61 1057.44,1161.78 1059.5,1169.34 1061.55,1161.14 1063.6,1142.8 1065.65,1101.38 1067.71,1108.78 1069.76,1174.03 1071.81,1128.65 1073.87,961.601 1075.92,1017.85 1077.97,1074.18 1080.02,1164.94 1082.08,1152.96 1084.13,1158.12 1086.18,1463.11 1088.24,1154 1090.29,1173.31 1092.34,1361.37 1094.39,1164.48 1096.45,1164.75 1098.5,1231.84 1100.55,1247.59 1102.61,1169.11 1104.66,1186.2 1106.71,1145.36 1108.77,1064.56 1110.82,1148.65 1112.87,1193.35 1114.92,1181.75 1116.98,1181.73 1119.03,1178.28 1121.08,1183.84 1123.14,1020.47 1125.19,1277.33 1127.24,971.207 1129.29,1289.71 1131.35,1178.16 1133.4,1178.54 1135.45,1155.22 1137.51,927.748 1139.56,1184.09 1141.61,1242.38 1143.66,1293.82 1145.72,1237.79 1147.77,1195.92 1149.82,1188.31 1151.88,1158.07 1153.93,1130.15 1155.98,1093.1 1158.03,1210.57 1160.09,1333.06 1162.14,1043.53 1164.19,928.565 1166.25,1303.92 1168.3,1157.91 1170.35,1196.33 1172.4,1197.87 1174.46,1138.17 1176.51,1180.34 1178.56,1119.87 1180.62,1041.31 1182.67,1331.03 1184.72,1088.71 1186.77,927.325 1188.83,1083.73 1190.88,1166.1 1192.93,1172.42 1194.99,145.794 1197.04,1861.28 1199.09,1505.27 1201.15,781.158 1203.2,1030.17 1205.25,1165.42 1207.3,1188.82 1209.36,1181.71 1211.41,1173.18 1213.46,1142.82 1215.52,1131.18 1217.57,1146.49 1219.62,1157.46 1221.67,1201.55 1223.73,1172.5 1225.78,1147.28 1227.83,1151.17 1229.89,1224.23 1231.94,1105.97 1233.99,543.809 1236.04,542.851 1238.1,1420.86 1240.15,1430.39 1242.2,1293.58 1244.26,-143.96 1246.31,2487.94 1248.36,5494.05 1250.41,3789.99 1252.47,-992.953 1254.52,10464.6 1256.57,2754.16 1258.63,-57.4606 1260.68,2344.47 1262.73,638.177 1264.78,3778.52 1266.84,55.3288 1268.89,-20.1445 1270.94,-625.401 1273,1380.62 1275.05,1247.98 1277.1,1239.87 1279.16,1156.21 1281.21,1161.33 1283.26,1223.29 1285.31,1138.24 1287.37,1186.2 1289.42,1164.28 1291.47,1195.75 1293.53,1073.68 1295.58,1170.61 1297.63,1131.73 1299.68,1200.24 1301.74,1171.74 1303.79,1085.6 1305.84,1005.45 1307.9,1459.15 1309.95,962.703 1312,1120.41 1314.05,1160.96 1316.11,1153.5 1318.16,1144.62 1320.21,1215.04 1322.27,1339.07 1324.32,1107.48 1326.37,1190.31 1328.42,1168.04 1330.48,1179.95 1332.53,1153.54 1334.58,1150.09 1336.64,1099.6 1338.69,1191.43 1340.74,1171.61 1342.79,1161.32 1344.85,1180.78 1346.9,1146.82 1348.95,1204.82 1351.01,1149.83 1353.06,1170.92 1355.11,1182.97 1357.16,1171.66 1359.22,1117.95 1361.27,1210.63 1363.32,1105.72 1365.38,1190.7 1367.43,1092.75 1369.48,1178.88 1371.54,1159.28 1373.59,1184.37 1375.64,1142.67 1377.69,1107.91 1379.75,954.251 1381.8,991.686 1383.85,971.88 1385.91,1332.99 1387.96,1102.99 1390.01,1209.51 1392.06,1194.88 1394.12,1219.3 1396.17,1129.24 1398.22,1146.21 1400.28,1143.5 1402.33,1198.26 1404.38,1175.18 1406.43,1168.68 1408.49,1164.54 1410.54,1197.55 1412.59,1290.9 1414.65,1345.84 1416.7,1190.6 1418.75,1189.49 1420.8,1114.17 1422.86,1141.83 1424.91,1172.17 1426.96,1181.45 1429.02,1177.79 1431.07,1204.07 1433.12,1175.65 1435.17,1181.56 1437.23,1195.52 1439.28,1188.84 1441.33,1176.21 1443.39,1136.11 1445.44,1161.85 1447.49,1094.82 1449.55,1090.97 1451.6,1216.2 1453.65,1142.12 1455.7,1187.08 1457.76,1098.61 1459.81,1256.99 1461.86,1078.63 1463.92,1226.12 1465.97,1186.04 1468.02,1047.11 1470.07,1080.14 1472.13,1115 1474.18,1224.88 1476.23,1194.81 1478.29,1136.94 1480.34,1211.52 1482.39,1225.16 1484.44,1013.02 1486.5,1181.73 1488.55,1183.92 1490.6,1151.68 1492.66,1156.52 1494.71,1087.92 1496.76,1113.52 1498.81,1141.28 1500.87,1162.07 1502.92,1179.43 1504.97,1146.12 1507.03,1196.85 1509.08,1162.3 1511.13,1127.08 1513.18,1283.14 1515.24,1197.01 1517.29,1186.58 1519.34,1161.4 1521.4,1160.38 1523.45,1178.05 1525.5,2405.95 1527.55,4634.94 1529.61,242.5 1531.66,2277.96 1533.71,-16.9739 1535.77,2139.61 1537.82,385.389 1539.87,1138.77 1541.93,963.009 1543.98,1388.06 1546.03,1099.03 1548.08,1171.07 1550.14,1131.99 1552.19,1195.71 1554.24,820.167 1556.3,1249.03 1558.35,1125.92 1560.4,1225.67 1562.45,1187.74 1564.51,1154.25 1566.56,1108.11 1568.61,1197.86 1570.67,1172.52 1572.72,1116.9 1574.77,1189.09 1576.82,1156.43 1578.88,1170.99 1580.93,1165.36 1582.98,1147.79 1585.04,1191.33 1587.09,1148.85 1589.14,1513.67 1591.19,1616.1 1593.25,1434.6 1595.3,1542.48 1597.35,1411.66 1599.41,1143.98 1601.46,1155.74 1603.51,1242.94 1605.56,1099.46 1607.62,1226.55 1609.67,1073.49 1611.72,1117.03 1613.78,1123.88 1615.83,1198.84 1617.88,1149.57 1619.94,1136.59 1621.99,1259.02 1624.04,1073.76 1626.09,1232.71 1628.15,1055.03 1630.2,1405.68 1632.25,550.811 1634.31,1027.76 1636.36,1191.72 1638.41,1250.99 1640.46,1141.62 1642.52,1176.29 1644.57,1208.61 1646.62,1151.8 1648.68,1536.2 1650.73,1199.49 1652.78,1173.68 1654.83,1183.19 1656.89,755.983 1658.94,1215.87 1660.99,1105.22 1663.05,1006.11 1665.1,1184.98 1667.15,1153.48 1669.2,1178.45 1671.26,1175.58 1673.31,1159.87 1675.36,1171.31 1677.42,1165.11 1679.47,1161.73 1681.52,1260.96 1683.57,1065.83 1685.63,1086.92 1687.68,1254.4 1689.73,1252.27 1691.79,1124.06 1693.84,1050.37 1695.89,1253.21 1697.94,1230.18 1700,1173.23 1702.05,1232.92 1704.1,1225.3 1706.16,1110.63 1708.21,1197.17 1710.26,1165.87 1712.32,1168.4 1714.37,1124.38 1716.42,1151.27 1718.47,1164.27 1720.53,1159.52 1722.58,1157.08 1724.63,1122.75 1726.69,1167.52 1728.74,1176.37 1730.79,1214.88 1732.84,1210.06 1734.9,1244.72 1736.95,1050.52 1739,1063.18 1741.06,1107.36 1743.11,1153.73 1745.16,1133.06 1747.21,1196.13 1749.27,1197.61 1751.32,1182.05 1753.37,1154.62 1755.43,1162 1757.48,1174.53 1759.53,1133.03 1761.58,1167.18 1763.64,1154.23 1765.69,1166.43 1767.74,1162.3 1769.8,1184.38 1771.85,1250.94 1773.9,1312.72 1775.95,890.586 1778.01,1567.92 1780.06,1128.32 1782.11,1302.34 1784.17,1504.68 1786.22,1036.36 1788.27,1042.96 1790.33,1220.45 1792.38,1149.43 1794.43,1158.55 1796.48,1137.47 1798.54,1195.77 1800.59,1182.32 1802.64,1143.79 1804.7,1199.37 1806.75,1200.42 1808.8,1146.86 1810.85,1174.51 1812.91,1186.12 1814.96,1141.3 1817.01,876.099 1819.07,1447.48 1821.12,668.993 1823.17,1912.37 1825.22,967.028 1827.28,750.884 1829.33,1071.42 1831.38,1222.9 1833.44,1300.75 1835.49,1497.79 1837.54,1846.82 1839.59,1167.39 1841.65,947.043 1843.7,1397.73 1845.75,1285.96 1847.81,1204.43 1849.86,1183.73 1851.91,1244.44 1853.96,1102.37 1856.02,1138.93 1858.07,1182.86 1860.12,1163.91 1862.18,1208.19 1864.23,1154.24 1866.28,1198.28 1868.34,1155.87 1870.39,1136.28 1872.44,1193.3 1874.49,1195.87 1876.55,1065.81 1878.6,1264.14 1880.65,1214.06 1882.71,1146.44 1884.76,1181.05 1886.81,1161.02 1888.86,1166.76 1890.92,1166.91 1892.97,1195.08 1895.02,1149.5 1897.08,1064.56 1899.13,1154.37 1901.18,1143.8 1903.23,1155.44 1905.29,1199.12 1907.34,1174.33 1909.39,1163.18 1911.45,1164.06 1913.5,1149.95 1915.55,1185.85 1917.6,1160.09 1919.66,1142.79 1921.71,1171.84 1923.76,1152.81 1925.82,1102.72 1927.87,1177.84 1929.92,1263.45 1931.97,1015.91 1934.03,1119.16 1936.08,1168.76 1938.13,1175.27 1940.19,1132.39 1942.24,1201.91 1944.29,1217.69 1946.34,1124.84 1948.4,1194.44 1950.45,1184.54 1952.5,1166.53 1954.56,1182.58 1956.61,1141.33 1958.66,1148.23 1960.72,1093.81 1962.77,1198.75 1964.82,1186.28 1966.87,1158.91 1968.93,1173.11 1970.98,1173.39 1973.03,1186.49 1975.09,1243.6 1977.14,1096.55 1979.19,1087.85 1981.24,1086.51 1983.3,1278.42 1985.35,1073.5 1987.4,1203.51 1989.46,1156.94 1991.51,1102.4 1993.56,1127 1995.61,1209.33 1997.67,1201.43 1999.72,1134.84 2001.77,1208 2003.83,1246.06 2005.88,1222.65 2007.93,1275.94 2009.98,970.949 2012.04,1060.27 2014.09,1166.03 2016.14,1160.4 2018.2,1147.22 2020.25,1194.61 2022.3,1103.32 2024.35,1183.17 2026.41,1181.93 2028.46,1284.03 2030.51,1045.32 2032.57,967.045 2034.62,1140.8 2036.67,1095.82 2038.73,1080.81 2040.78,1170.02 2042.83,1152.19 2044.88,1160.15 2046.94,1146.82 2048.99,1083.92 2051.04,1196.94 2053.1,1162.2 2055.15,1195.28 2057.2,1203.71 2059.25,1174.06 2061.31,1158.93 2063.36,1122.36 2065.41,1115.5 2067.47,1187.12 2069.52,1177.07 2071.57,1192.81 2073.62,1178.23 2075.68,1170.98 2077.73,1169.98 2079.78,1176.78 2081.84,1090.81 2083.89,1102.62 2085.94,1160.34 2087.99,1183.16 2090.05,1145.18 2092.1,1120.72 2094.15,1098.32 2096.21,1183.31 2098.26,1168.38 2100.31,1170.23 2102.36,1303.88 2104.42,1156.8 2106.47,1159.98 2108.52,1146.52 2110.58,1125.49 2112.63,1142.38 2114.68,1200.18 2116.73,664.846 2118.79,1080.35 2120.84,220.399 2122.89,391.045 2124.95,2096.2 2127,2211.65 2129.05,1203.36 2131.11,526.635 2133.16,1682.73 2135.21,1532.73 2137.26,1217.27 2139.32,828.339 2141.37,948.747 2143.42,769.36 2145.48,1507.56 2147.53,1154.25 2149.58,1038.89 2151.63,1241.11 2153.69,1273.81 2155.74,962.261 2157.79,1156.57 2159.85,1178.44 2161.9,1175.7 2163.95,1157.8 2166,1167.73 2168.06,1170.52 2170.11,1156.23 2172.16,1142.45 2174.22,1011.16 2176.27,1101.52 2178.32,1133.06 2180.37,1138.84 2182.43,1172.92 2184.48,1106.82 2186.53,1163.56 2188.59,1123.45 2190.64,1148.85 2192.69,1125.68 2194.74,1204.12 2196.8,1211.72 2198.85,1005.92 2200.9,1062.86 2202.96,1171.37 2205.01,1570.63 2207.06,1065.38 2209.12,1520.45 2211.17,688.354 2213.22,-1465.73 2215.27,2456.74 2217.33,-568.209 2219.38,52.463 2221.43,2010.97 2223.49,2652.75 2225.54,1111.8 2227.59,1432.93 2229.64,1784.71 2231.7,639.337 2233.75,929.841 2235.8,513.276 2237.86,545.698 2239.91,1067.42 2241.96,1159.35 2244.01,1139.96 2246.07,1296.45 2248.12,1128.05 2250.17,1110.38 2252.23,1361.78 2254.28,1245.37 2256.33,1156.04 2258.38,1169.36 2260.44,1190.27 2262.49,1161.46 2264.54,1175.51 2266.6,1124.66 2268.65,1235.42 2270.7,1162.08 2272.75,1171.71 2274.81,1194.31 2276.86,1218.4 2278.91,1185.74 2280.97,1161.4 2283.02,1220.16 2285.07,1096.48 2287.12,1098.16 2289.18,1178.21 2291.23,634.082 "/>
<path clip-path="url(#clip340)" d="M251.33 1465.14 L588.926 1465.14 L588.926 1361.46 L251.33 1361.46  Z" fill="#ffffff" fill-rule="evenodd" fill-opacity="1"/>
<polyline clip-path="url(#clip340)" style="stroke:#000000; stroke-linecap:round; stroke-linejoin:round; stroke-width:4; stroke-opacity:1; fill:none" points="251.33,1465.14 588.926,1465.14 588.926,1361.46 251.33,1361.46 251.33,1465.14 "/>
<polyline clip-path="url(#clip340)" style="stroke:#009af9; stroke-linecap:round; stroke-linejoin:round; stroke-width:4; stroke-opacity:1; fill:none" points="275.484,1413.3 420.41,1413.3 "/>
<path clip-path="url(#clip340)" d="M470.12 1425.65 L470.12 1416.37 L462.481 1416.37 L462.481 1412.53 L474.749 1412.53 L474.749 1427.36 Q472.041 1429.28 468.777 1430.28 Q465.513 1431.25 461.809 1431.25 Q453.708 1431.25 449.124 1426.53 Q444.564 1421.78 444.564 1413.34 Q444.564 1404.86 449.124 1400.14 Q453.708 1395.4 461.809 1395.4 Q465.189 1395.4 468.221 1396.23 Q471.277 1397.06 473.846 1398.68 L473.846 1403.66 Q471.254 1401.46 468.337 1400.35 Q465.421 1399.24 462.203 1399.24 Q455.86 1399.24 452.666 1402.78 Q449.495 1406.32 449.495 1413.34 Q449.495 1420.33 452.666 1423.87 Q455.86 1427.41 462.203 1427.41 Q464.68 1427.41 466.624 1426.99 Q468.569 1426.55 470.12 1425.65 Z" fill="#000000" fill-rule="nonzero" fill-opacity="1" /><path clip-path="url(#clip340)" d="M487.967 1399.86 L487.967 1412.85 L493.846 1412.85 Q497.11 1412.85 498.893 1411.16 Q500.675 1409.47 500.675 1406.35 Q500.675 1403.24 498.893 1401.55 Q497.11 1399.86 493.846 1399.86 L487.967 1399.86 M483.291 1396.02 L493.846 1396.02 Q499.657 1396.02 502.619 1398.66 Q505.606 1401.28 505.606 1406.35 Q505.606 1411.46 502.619 1414.08 Q499.657 1416.69 493.846 1416.69 L487.967 1416.69 L487.967 1430.58 L483.291 1430.58 L483.291 1396.02 Z" fill="#000000" fill-rule="nonzero" fill-opacity="1" /><path clip-path="url(#clip340)" d="M532.596 1397.16 L532.596 1401.72 Q529.934 1400.44 527.573 1399.82 Q525.212 1399.19 523.013 1399.19 Q519.193 1399.19 517.11 1400.67 Q515.05 1402.16 515.05 1404.89 Q515.05 1407.18 516.416 1408.36 Q517.805 1409.52 521.647 1410.23 L524.471 1410.81 Q529.703 1411.81 532.179 1414.33 Q534.679 1416.83 534.679 1421.04 Q534.679 1426.07 531.3 1428.66 Q527.943 1431.25 521.439 1431.25 Q518.985 1431.25 516.207 1430.7 Q513.453 1430.14 510.49 1429.05 L510.49 1424.24 Q513.337 1425.84 516.068 1426.65 Q518.8 1427.46 521.439 1427.46 Q525.443 1427.46 527.619 1425.88 Q529.795 1424.31 529.795 1421.39 Q529.795 1418.85 528.221 1417.41 Q526.67 1415.97 523.105 1415.26 L520.258 1414.7 Q515.027 1413.66 512.689 1411.44 Q510.351 1409.22 510.351 1405.26 Q510.351 1400.67 513.568 1398.03 Q516.809 1395.4 522.48 1395.4 Q524.911 1395.4 527.434 1395.84 Q529.957 1396.28 532.596 1397.16 Z" fill="#000000" fill-rule="nonzero" fill-opacity="1" /><path clip-path="url(#clip340)" d="M562.689 1397.16 L562.689 1401.72 Q560.027 1400.44 557.665 1399.82 Q555.304 1399.19 553.105 1399.19 Q549.286 1399.19 547.203 1400.67 Q545.142 1402.16 545.142 1404.89 Q545.142 1407.18 546.508 1408.36 Q547.897 1409.52 551.74 1410.23 L554.564 1410.81 Q559.795 1411.81 562.272 1414.33 Q564.772 1416.83 564.772 1421.04 Q564.772 1426.07 561.392 1428.66 Q558.036 1431.25 551.531 1431.25 Q549.078 1431.25 546.3 1430.7 Q543.545 1430.14 540.582 1429.05 L540.582 1424.24 Q543.429 1425.84 546.161 1426.65 Q548.892 1427.46 551.531 1427.46 Q555.536 1427.46 557.712 1425.88 Q559.888 1424.31 559.888 1421.39 Q559.888 1418.85 558.314 1417.41 Q556.763 1415.97 553.198 1415.26 L550.351 1414.7 Q545.119 1413.66 542.781 1411.44 Q540.443 1409.22 540.443 1405.26 Q540.443 1400.67 543.661 1398.03 Q546.902 1395.4 552.573 1395.4 Q555.003 1395.4 557.527 1395.84 Q560.05 1396.28 562.689 1397.16 Z" fill="#000000" fill-rule="nonzero" fill-opacity="1" /></svg>
