<?xml version="1.0" encoding="utf-8"?>
<svg xmlns="http://www.w3.org/2000/svg" xmlns:xlink="http://www.w3.org/1999/xlink" width="600" height="400" viewBox="0 0 2400 1600">
<defs>
  <clipPath id="clip090">
    <rect x="0" y="0" width="2400" height="1600"/>
  </clipPath>
</defs>
<path clip-path="url(#clip090)" d="M0 1600 L2400 1600 L2400 0 L0 0  Z" fill="#ffffff" fill-rule="evenodd" fill-opacity="1"/>
<defs>
  <clipPath id="clip091">
    <rect x="212" y="47" width="2141" height="1377"/>
  </clipPath>
</defs>
<path clip-path="url(#clip090)" d="M178.867 686.448 L2352.76 686.448 L2352.76 47.2441 L178.867 47.2441  Z" fill="#ffffff" fill-rule="evenodd" fill-opacity="1"/>
<defs>
  <clipPath id="clip092">
    <rect x="178" y="47" width="2175" height="640"/>
  </clipPath>
</defs>
<polyline clip-path="url(#clip092)" style="stroke:#000000; stroke-linecap:round; stroke-linejoin:round; stroke-width:2; stroke-opacity:0.1; fill:none" points="238.339,686.448 238.339,47.2441 "/>
<polyline clip-path="url(#clip092)" style="stroke:#000000; stroke-linecap:round; stroke-linejoin:round; stroke-width:2; stroke-opacity:0.1; fill:none" points="751.562,686.448 751.562,47.2441 "/>
<polyline clip-path="url(#clip092)" style="stroke:#000000; stroke-linecap:round; stroke-linejoin:round; stroke-width:2; stroke-opacity:0.1; fill:none" points="1264.78,686.448 1264.78,47.2441 "/>
<polyline clip-path="url(#clip092)" style="stroke:#000000; stroke-linecap:round; stroke-linejoin:round; stroke-width:2; stroke-opacity:0.1; fill:none" points="1778.01,686.448 1778.01,47.2441 "/>
<polyline clip-path="url(#clip092)" style="stroke:#000000; stroke-linecap:round; stroke-linejoin:round; stroke-width:2; stroke-opacity:0.1; fill:none" points="2291.23,686.448 2291.23,47.2441 "/>
<polyline clip-path="url(#clip092)" style="stroke:#000000; stroke-linecap:round; stroke-linejoin:round; stroke-width:2; stroke-opacity:0.1; fill:none" points="178.867,686.448 2352.76,686.448 "/>
<polyline clip-path="url(#clip092)" style="stroke:#000000; stroke-linecap:round; stroke-linejoin:round; stroke-width:2; stroke-opacity:0.1; fill:none" points="178.867,526.647 2352.76,526.647 "/>
<polyline clip-path="url(#clip092)" style="stroke:#000000; stroke-linecap:round; stroke-linejoin:round; stroke-width:2; stroke-opacity:0.1; fill:none" points="178.867,366.846 2352.76,366.846 "/>
<polyline clip-path="url(#clip092)" style="stroke:#000000; stroke-linecap:round; stroke-linejoin:round; stroke-width:2; stroke-opacity:0.1; fill:none" points="178.867,207.045 2352.76,207.045 "/>
<polyline clip-path="url(#clip092)" style="stroke:#000000; stroke-linecap:round; stroke-linejoin:round; stroke-width:2; stroke-opacity:0.1; fill:none" points="178.867,47.2441 2352.76,47.2441 "/>
<polyline clip-path="url(#clip090)" style="stroke:#000000; stroke-linecap:round; stroke-linejoin:round; stroke-width:4; stroke-opacity:1; fill:none" points="178.867,686.448 2352.76,686.448 "/>
<polyline clip-path="url(#clip090)" style="stroke:#000000; stroke-linecap:round; stroke-linejoin:round; stroke-width:4; stroke-opacity:1; fill:none" points="238.339,686.448 238.339,667.55 "/>
<polyline clip-path="url(#clip090)" style="stroke:#000000; stroke-linecap:round; stroke-linejoin:round; stroke-width:4; stroke-opacity:1; fill:none" points="751.562,686.448 751.562,667.55 "/>
<polyline clip-path="url(#clip090)" style="stroke:#000000; stroke-linecap:round; stroke-linejoin:round; stroke-width:4; stroke-opacity:1; fill:none" points="1264.78,686.448 1264.78,667.55 "/>
<polyline clip-path="url(#clip090)" style="stroke:#000000; stroke-linecap:round; stroke-linejoin:round; stroke-width:4; stroke-opacity:1; fill:none" points="1778.01,686.448 1778.01,667.55 "/>
<polyline clip-path="url(#clip090)" style="stroke:#000000; stroke-linecap:round; stroke-linejoin:round; stroke-width:4; stroke-opacity:1; fill:none" points="2291.23,686.448 2291.23,667.55 "/>
<path clip-path="url(#clip090)" d="M238.339 717.367 Q234.728 717.367 232.899 720.931 Q231.094 724.473 231.094 731.603 Q231.094 738.709 232.899 742.274 Q234.728 745.815 238.339 745.815 Q241.973 745.815 243.779 742.274 Q245.607 738.709 245.607 731.603 Q245.607 724.473 243.779 720.931 Q241.973 717.367 238.339 717.367 M238.339 713.663 Q244.149 713.663 247.205 718.269 Q250.283 722.853 250.283 731.603 Q250.283 740.329 247.205 744.936 Q244.149 749.519 238.339 749.519 Q232.529 749.519 229.45 744.936 Q226.395 740.329 226.395 731.603 Q226.395 722.853 229.45 718.269 Q232.529 713.663 238.339 713.663 Z" fill="#000000" fill-rule="nonzero" fill-opacity="1" /><path clip-path="url(#clip090)" d="M715.254 744.913 L731.574 744.913 L731.574 748.848 L709.629 748.848 L709.629 744.913 Q712.291 742.158 716.875 737.528 Q721.481 732.876 722.662 731.533 Q724.907 729.01 725.787 727.274 Q726.689 725.515 726.689 723.825 Q726.689 721.07 724.745 719.334 Q722.824 717.598 719.722 717.598 Q717.523 717.598 715.069 718.362 Q712.638 719.126 709.861 720.677 L709.861 715.955 Q712.685 714.82 715.138 714.242 Q717.592 713.663 719.629 713.663 Q725 713.663 728.194 716.348 Q731.388 719.033 731.388 723.524 Q731.388 725.654 730.578 727.575 Q729.791 729.473 727.685 732.066 Q727.106 732.737 724.004 735.954 Q720.902 739.149 715.254 744.913 Z" fill="#000000" fill-rule="nonzero" fill-opacity="1" /><path clip-path="url(#clip090)" d="M741.435 714.288 L759.791 714.288 L759.791 718.223 L745.717 718.223 L745.717 726.695 Q746.736 726.348 747.754 726.186 Q748.773 726.001 749.791 726.001 Q755.578 726.001 758.958 729.172 Q762.337 732.343 762.337 737.76 Q762.337 743.339 758.865 746.44 Q755.393 749.519 749.073 749.519 Q746.898 749.519 744.629 749.149 Q742.384 748.778 739.976 748.038 L739.976 743.339 Q742.06 744.473 744.282 745.028 Q746.504 745.584 748.981 745.584 Q752.985 745.584 755.323 743.478 Q757.661 741.371 757.661 737.76 Q757.661 734.149 755.323 732.042 Q752.985 729.936 748.981 729.936 Q747.106 729.936 745.231 730.353 Q743.379 730.769 741.435 731.649 L741.435 714.288 Z" fill="#000000" fill-rule="nonzero" fill-opacity="1" /><path clip-path="url(#clip090)" d="M781.55 717.367 Q777.939 717.367 776.11 720.931 Q774.305 724.473 774.305 731.603 Q774.305 738.709 776.11 742.274 Q777.939 745.815 781.55 745.815 Q785.184 745.815 786.99 742.274 Q788.819 738.709 788.819 731.603 Q788.819 724.473 786.99 720.931 Q785.184 717.367 781.55 717.367 M781.55 713.663 Q787.36 713.663 790.416 718.269 Q793.495 722.853 793.495 731.603 Q793.495 740.329 790.416 744.936 Q787.36 749.519 781.55 749.519 Q775.74 749.519 772.661 744.936 Q769.606 740.329 769.606 731.603 Q769.606 722.853 772.661 718.269 Q775.74 713.663 781.55 713.663 Z" fill="#000000" fill-rule="nonzero" fill-opacity="1" /><path clip-path="url(#clip090)" d="M1224.4 714.288 L1242.76 714.288 L1242.76 718.223 L1228.69 718.223 L1228.69 726.695 Q1229.7 726.348 1230.72 726.186 Q1231.74 726.001 1232.76 726.001 Q1238.55 726.001 1241.93 729.172 Q1245.31 732.343 1245.31 737.76 Q1245.31 743.339 1241.83 746.44 Q1238.36 749.519 1232.04 749.519 Q1229.87 749.519 1227.6 749.149 Q1225.35 748.778 1222.94 748.038 L1222.94 743.339 Q1225.03 744.473 1227.25 745.028 Q1229.47 745.584 1231.95 745.584 Q1235.95 745.584 1238.29 743.478 Q1240.63 741.371 1240.63 737.76 Q1240.63 734.149 1238.29 732.042 Q1235.95 729.936 1231.95 729.936 Q1230.07 729.936 1228.2 730.353 Q1226.35 730.769 1224.4 731.649 L1224.4 714.288 Z" fill="#000000" fill-rule="nonzero" fill-opacity="1" /><path clip-path="url(#clip090)" d="M1264.52 717.367 Q1260.91 717.367 1259.08 720.931 Q1257.27 724.473 1257.27 731.603 Q1257.27 738.709 1259.08 742.274 Q1260.91 745.815 1264.52 745.815 Q1268.15 745.815 1269.96 742.274 Q1271.79 738.709 1271.79 731.603 Q1271.79 724.473 1269.96 720.931 Q1268.15 717.367 1264.52 717.367 M1264.52 713.663 Q1270.33 713.663 1273.38 718.269 Q1276.46 722.853 1276.46 731.603 Q1276.46 740.329 1273.38 744.936 Q1270.33 749.519 1264.52 749.519 Q1258.71 749.519 1255.63 744.936 Q1252.57 740.329 1252.57 731.603 Q1252.57 722.853 1255.63 718.269 Q1258.71 713.663 1264.52 713.663 Z" fill="#000000" fill-rule="nonzero" fill-opacity="1" /><path clip-path="url(#clip090)" d="M1294.68 717.367 Q1291.07 717.367 1289.24 720.931 Q1287.44 724.473 1287.44 731.603 Q1287.44 738.709 1289.24 742.274 Q1291.07 745.815 1294.68 745.815 Q1298.31 745.815 1300.12 742.274 Q1301.95 738.709 1301.95 731.603 Q1301.95 724.473 1300.12 720.931 Q1298.31 717.367 1294.68 717.367 M1294.68 713.663 Q1300.49 713.663 1303.55 718.269 Q1306.62 722.853 1306.62 731.603 Q1306.62 740.329 1303.55 744.936 Q1300.49 749.519 1294.68 749.519 Q1288.87 749.519 1285.79 744.936 Q1282.74 740.329 1282.74 731.603 Q1282.74 722.853 1285.79 718.269 Q1288.87 713.663 1294.68 713.663 Z" fill="#000000" fill-rule="nonzero" fill-opacity="1" /><path clip-path="url(#clip090)" d="M1736.28 714.288 L1758.51 714.288 L1758.51 716.279 L1745.96 748.848 L1741.08 748.848 L1752.88 718.223 L1736.28 718.223 L1736.28 714.288 Z" fill="#000000" fill-rule="nonzero" fill-opacity="1" /><path clip-path="url(#clip090)" d="M1767.67 714.288 L1786.03 714.288 L1786.03 718.223 L1771.95 718.223 L1771.95 726.695 Q1772.97 726.348 1773.99 726.186 Q1775.01 726.001 1776.03 726.001 Q1781.82 726.001 1785.2 729.172 Q1788.57 732.343 1788.57 737.76 Q1788.57 743.339 1785.1 746.44 Q1781.63 749.519 1775.31 749.519 Q1773.14 749.519 1770.87 749.149 Q1768.62 748.778 1766.21 748.038 L1766.21 743.339 Q1768.3 744.473 1770.52 745.028 Q1772.74 745.584 1775.22 745.584 Q1779.22 745.584 1781.56 743.478 Q1783.9 741.371 1783.9 737.76 Q1783.9 734.149 1781.56 732.042 Q1779.22 729.936 1775.22 729.936 Q1773.34 729.936 1771.47 730.353 Q1769.62 730.769 1767.67 731.649 L1767.67 714.288 Z" fill="#000000" fill-rule="nonzero" fill-opacity="1" /><path clip-path="url(#clip090)" d="M1807.79 717.367 Q1804.18 717.367 1802.35 720.931 Q1800.54 724.473 1800.54 731.603 Q1800.54 738.709 1802.35 742.274 Q1804.18 745.815 1807.79 745.815 Q1811.42 745.815 1813.23 742.274 Q1815.06 738.709 1815.06 731.603 Q1815.06 724.473 1813.23 720.931 Q1811.42 717.367 1807.79 717.367 M1807.79 713.663 Q1813.6 713.663 1816.65 718.269 Q1819.73 722.853 1819.73 731.603 Q1819.73 740.329 1816.65 744.936 Q1813.6 749.519 1807.79 749.519 Q1801.98 749.519 1798.9 744.936 Q1795.84 740.329 1795.84 731.603 Q1795.84 722.853 1798.9 718.269 Q1801.98 713.663 1807.79 713.663 Z" fill="#000000" fill-rule="nonzero" fill-opacity="1" /><path clip-path="url(#clip090)" d="M2235.76 744.913 L2243.4 744.913 L2243.4 718.547 L2235.09 720.214 L2235.09 715.955 L2243.35 714.288 L2248.02 714.288 L2248.02 744.913 L2255.66 744.913 L2255.66 748.848 L2235.76 748.848 L2235.76 744.913 Z" fill="#000000" fill-rule="nonzero" fill-opacity="1" /><path clip-path="url(#clip090)" d="M2275.11 717.367 Q2271.5 717.367 2269.67 720.931 Q2267.86 724.473 2267.86 731.603 Q2267.86 738.709 2269.67 742.274 Q2271.5 745.815 2275.11 745.815 Q2278.74 745.815 2280.55 742.274 Q2282.38 738.709 2282.38 731.603 Q2282.38 724.473 2280.55 720.931 Q2278.74 717.367 2275.11 717.367 M2275.11 713.663 Q2280.92 713.663 2283.97 718.269 Q2287.05 722.853 2287.05 731.603 Q2287.05 740.329 2283.97 744.936 Q2280.92 749.519 2275.11 749.519 Q2269.3 749.519 2266.22 744.936 Q2263.16 740.329 2263.16 731.603 Q2263.16 722.853 2266.22 718.269 Q2269.3 713.663 2275.11 713.663 Z" fill="#000000" fill-rule="nonzero" fill-opacity="1" /><path clip-path="url(#clip090)" d="M2305.27 717.367 Q2301.66 717.367 2299.83 720.931 Q2298.02 724.473 2298.02 731.603 Q2298.02 738.709 2299.83 742.274 Q2301.66 745.815 2305.27 745.815 Q2308.9 745.815 2310.71 742.274 Q2312.54 738.709 2312.54 731.603 Q2312.54 724.473 2310.71 720.931 Q2308.9 717.367 2305.27 717.367 M2305.27 713.663 Q2311.08 713.663 2314.14 718.269 Q2317.21 722.853 2317.21 731.603 Q2317.21 740.329 2314.14 744.936 Q2311.08 749.519 2305.27 749.519 Q2299.46 749.519 2296.38 744.936 Q2293.33 740.329 2293.33 731.603 Q2293.33 722.853 2296.38 718.269 Q2299.46 713.663 2305.27 713.663 Z" fill="#000000" fill-rule="nonzero" fill-opacity="1" /><path clip-path="url(#clip090)" d="M2335.43 717.367 Q2331.82 717.367 2329.99 720.931 Q2328.19 724.473 2328.19 731.603 Q2328.19 738.709 2329.99 742.274 Q2331.82 745.815 2335.43 745.815 Q2339.07 745.815 2340.87 742.274 Q2342.7 738.709 2342.7 731.603 Q2342.7 724.473 2340.87 720.931 Q2339.07 717.367 2335.43 717.367 M2335.43 713.663 Q2341.24 713.663 2344.3 718.269 Q2347.38 722.853 2347.38 731.603 Q2347.38 740.329 2344.3 744.936 Q2341.24 749.519 2335.43 749.519 Q2329.62 749.519 2326.54 744.936 Q2323.49 740.329 2323.49 731.603 Q2323.49 722.853 2326.54 718.269 Q2329.62 713.663 2335.43 713.663 Z" fill="#000000" fill-rule="nonzero" fill-opacity="1" /><polyline clip-path="url(#clip090)" style="stroke:#000000; stroke-linecap:round; stroke-linejoin:round; stroke-width:4; stroke-opacity:1; fill:none" points="178.867,686.448 178.867,47.2441 "/>
<polyline clip-path="url(#clip090)" style="stroke:#000000; stroke-linecap:round; stroke-linejoin:round; stroke-width:4; stroke-opacity:1; fill:none" points="178.867,686.448 197.764,686.448 "/>
<polyline clip-path="url(#clip090)" style="stroke:#000000; stroke-linecap:round; stroke-linejoin:round; stroke-width:4; stroke-opacity:1; fill:none" points="178.867,526.647 197.764,526.647 "/>
<polyline clip-path="url(#clip090)" style="stroke:#000000; stroke-linecap:round; stroke-linejoin:round; stroke-width:4; stroke-opacity:1; fill:none" points="178.867,366.846 197.764,366.846 "/>
<polyline clip-path="url(#clip090)" style="stroke:#000000; stroke-linecap:round; stroke-linejoin:round; stroke-width:4; stroke-opacity:1; fill:none" points="178.867,207.045 197.764,207.045 "/>
<polyline clip-path="url(#clip090)" style="stroke:#000000; stroke-linecap:round; stroke-linejoin:round; stroke-width:4; stroke-opacity:1; fill:none" points="178.867,47.2441 197.764,47.2441 "/>
<path clip-path="url(#clip090)" d="M50.9921 686.899 L80.6679 686.899 L80.6679 690.834 L50.9921 690.834 L50.9921 686.899 Z" fill="#000000" fill-rule="nonzero" fill-opacity="1" /><path clip-path="url(#clip090)" d="M91.5706 699.793 L99.2095 699.793 L99.2095 673.427 L90.8993 675.094 L90.8993 670.835 L99.1632 669.168 L103.839 669.168 L103.839 699.793 L111.478 699.793 L111.478 703.728 L91.5706 703.728 L91.5706 699.793 Z" fill="#000000" fill-rule="nonzero" fill-opacity="1" /><path clip-path="url(#clip090)" d="M130.922 672.247 Q127.311 672.247 125.482 675.811 Q123.677 679.353 123.677 686.483 Q123.677 693.589 125.482 697.154 Q127.311 700.695 130.922 700.695 Q134.556 700.695 136.362 697.154 Q138.191 693.589 138.191 686.483 Q138.191 679.353 136.362 675.811 Q134.556 672.247 130.922 672.247 M130.922 668.543 Q136.732 668.543 139.788 673.149 Q142.867 677.733 142.867 686.483 Q142.867 695.209 139.788 699.816 Q136.732 704.399 130.922 704.399 Q125.112 704.399 122.033 699.816 Q118.978 695.209 118.978 686.483 Q118.978 677.733 122.033 673.149 Q125.112 668.543 130.922 668.543 Z" fill="#000000" fill-rule="nonzero" fill-opacity="1" /><path clip-path="url(#clip090)" d="M82.1494 527.098 L111.825 527.098 L111.825 531.033 L82.1494 531.033 L82.1494 527.098 Z" fill="#000000" fill-rule="nonzero" fill-opacity="1" /><path clip-path="url(#clip090)" d="M121.964 509.367 L140.32 509.367 L140.32 513.302 L126.246 513.302 L126.246 521.774 Q127.265 521.427 128.283 521.265 Q129.302 521.08 130.32 521.08 Q136.107 521.08 139.487 524.251 Q142.867 527.422 142.867 532.839 Q142.867 538.418 139.394 541.52 Q135.922 544.598 129.603 544.598 Q127.427 544.598 125.158 544.228 Q122.913 543.857 120.506 543.117 L120.506 538.418 Q122.589 539.552 124.811 540.108 Q127.033 540.663 129.51 540.663 Q133.515 540.663 135.853 538.557 Q138.191 536.45 138.191 532.839 Q138.191 529.228 135.853 527.121 Q133.515 525.015 129.51 525.015 Q127.635 525.015 125.76 525.432 Q123.908 525.848 121.964 526.728 L121.964 509.367 Z" fill="#000000" fill-rule="nonzero" fill-opacity="1" /><path clip-path="url(#clip090)" d="M130.922 352.645 Q127.311 352.645 125.482 356.209 Q123.677 359.751 123.677 366.881 Q123.677 373.987 125.482 377.552 Q127.311 381.094 130.922 381.094 Q134.556 381.094 136.362 377.552 Q138.191 373.987 138.191 366.881 Q138.191 359.751 136.362 356.209 Q134.556 352.645 130.922 352.645 M130.922 348.941 Q136.732 348.941 139.788 353.547 Q142.867 358.131 142.867 366.881 Q142.867 375.608 139.788 380.214 Q136.732 384.797 130.922 384.797 Q125.112 384.797 122.033 380.214 Q118.978 375.608 118.978 366.881 Q118.978 358.131 122.033 353.547 Q125.112 348.941 130.922 348.941 Z" fill="#000000" fill-rule="nonzero" fill-opacity="1" /><path clip-path="url(#clip090)" d="M121.964 189.765 L140.32 189.765 L140.32 193.7 L126.246 193.7 L126.246 202.172 Q127.265 201.825 128.283 201.663 Q129.302 201.478 130.32 201.478 Q136.107 201.478 139.487 204.649 Q142.867 207.82 142.867 213.237 Q142.867 218.816 139.394 221.918 Q135.922 224.996 129.603 224.996 Q127.427 224.996 125.158 224.626 Q122.913 224.256 120.506 223.515 L120.506 218.816 Q122.589 219.95 124.811 220.506 Q127.033 221.061 129.51 221.061 Q133.515 221.061 135.853 218.955 Q138.191 216.848 138.191 213.237 Q138.191 209.626 135.853 207.52 Q133.515 205.413 129.51 205.413 Q127.635 205.413 125.76 205.83 Q123.908 206.246 121.964 207.126 L121.964 189.765 Z" fill="#000000" fill-rule="nonzero" fill-opacity="1" /><path clip-path="url(#clip090)" d="M91.5706 60.5889 L99.2095 60.5889 L99.2095 34.2233 L90.8993 35.89 L90.8993 31.6308 L99.1632 29.9641 L103.839 29.9641 L103.839 60.5889 L111.478 60.5889 L111.478 64.5241 L91.5706 64.5241 L91.5706 60.5889 Z" fill="#000000" fill-rule="nonzero" fill-opacity="1" /><path clip-path="url(#clip090)" d="M130.922 33.0428 Q127.311 33.0428 125.482 36.6076 Q123.677 40.1492 123.677 47.2788 Q123.677 54.3853 125.482 57.9501 Q127.311 61.4917 130.922 61.4917 Q134.556 61.4917 136.362 57.9501 Q138.191 54.3853 138.191 47.2788 Q138.191 40.1492 136.362 36.6076 Q134.556 33.0428 130.922 33.0428 M130.922 29.3391 Q136.732 29.3391 139.788 33.9456 Q142.867 38.5289 142.867 47.2788 Q142.867 56.0056 139.788 60.6121 Q136.732 65.1954 130.922 65.1954 Q125.112 65.1954 122.033 60.6121 Q118.978 56.0056 118.978 47.2788 Q118.978 38.5289 122.033 33.9456 Q125.112 29.3391 130.922 29.3391 Z" fill="#000000" fill-rule="nonzero" fill-opacity="1" /><polyline clip-path="url(#clip092)" style="stroke:#009af9; stroke-linecap:round; stroke-linejoin:round; stroke-width:4; stroke-opacity:1; fill:none" points="240.392,334.886 242.445,335.261 244.498,335.596 246.55,334.796 248.603,317.839 250.656,329.482 252.709,337.045 254.762,331.406 256.815,333.021 258.868,298.619 260.921,296.323 262.974,298.805 265.027,344.423 267.079,345.118 269.132,332.036 271.185,324.734 273.238,325.295 275.291,325.232 277.344,328.035 279.397,325.217 281.45,325.26 283.503,316.964 285.555,316.528 287.608,316.528 289.661,317.673 291.714,317.337 293.767,326.908 295.82,325.993 297.873,324.361 299.926,331.552 301.979,343.832 304.031,349.333 306.084,364.109 308.137,348.426 310.19,363.044 312.243,367.617 314.296,367.599 316.349,353.649 318.402,355.958 320.455,359.359 322.507,361.888 324.56,338.996 326.613,286.75 328.666,266.478 330.719,265.001 332.772,264.738 334.825,267.331 336.878,280.307 338.931,274.798 340.984,260.456 343.036,329.653 345.089,305.584 347.142,308.14 349.195,285.315 351.248,279.153 353.301,291.148 355.354,285.757 357.407,283.524 359.46,283.991 361.512,321.365 363.565,325.604 365.618,308.851 367.671,363.787 369.724,364.388 371.777,365.386 373.83,344.334 375.883,344.554 377.936,346.169 379.988,347.376 382.041,347.47 384.094,336.989 386.147,337.974 388.2,322.823 390.253,320.433 392.306,320.121 394.359,322.298 396.412,318.547 398.464,332.248 400.517,305.112 402.57,305.279 404.623,301.749 406.676,326.301 408.729,356.258 410.782,344.361 412.835,344.227 414.888,362.343 416.94,362.443 418.993,356.295 421.046,353.926 423.099,371.855 425.152,371.73 427.205,354.589 429.258,369.704 431.311,378.96 433.364,364.2 435.417,364.559 437.469,369.61 439.522,410.817 441.575,389.811 443.628,363.257 445.681,391.335 447.734,379.404 449.787,379.236 451.84,379.435 453.893,379.573 455.945,416.875 457.998,418.862 460.051,399.411 462.104,344.053 464.157,346.397 466.21,347.936 468.263,347.934 470.316,349.841 472.369,368.58 474.421,368.165 476.474,369.122 478.527,347.019 480.58,344.612 482.633,346.302 484.686,345.919 486.739,347.186 488.792,374.178 490.845,372.51 492.897,366.73 494.95,365.943 497.003,370.96 499.056,370.278 501.109,375.103 503.162,375.633 505.215,373.093 507.268,373.977 509.321,373.128 511.374,373.18 513.426,372.122 515.479,371.912 517.532,351.382 519.585,350.409 521.638,350.425 523.691,350.572 525.744,351.686 527.797,351.596 529.85,356.726 531.902,356.512 533.955,356.382 536.008,355.15 538.061,355.504 540.114,354.832 542.167,354.971 544.22,346.166 546.273,346.667 548.326,372.21 550.378,373.183 552.431,372.717 554.484,376.891 556.537,377.448 558.59,377.666 560.643,382.465 562.696,382.717 564.749,382.778 566.802,382.784 568.854,384.989 570.907,386.484 572.96,384.786 575.013,384.44 577.066,368.076 579.119,368.603 581.172,368.868 583.225,368.866 585.278,364.191 587.331,364.138 589.383,383.467 591.436,384.321 593.489,340.415 595.542,347.571 597.595,357.967 599.648,348.145 601.701,348.69 603.754,347.907 605.807,351.558 607.859,369.137 609.912,362.234 611.965,392.083 614.018,376.613 616.071,410.02 618.124,412.031 620.177,410.793 622.23,379.384 624.283,414.967 626.335,410.295 628.388,375.49 630.441,375.383 632.494,391.983 634.547,374.38 636.6,421.582 638.653,421.989 640.706,383.262 642.759,363.328 644.811,350.218 646.864,351.354 648.917,350.67 650.97,363.318 653.023,350.76 655.076,341.593 657.129,332.305 659.182,332.014 661.235,332.457 663.288,349.813 665.34,348.949 667.393,291.89 669.446,283.86 671.499,288.871 673.552,281.251 675.605,281.217 677.658,272.879 679.711,277.263 681.764,276.373 683.816,276.505 685.869,282.906 687.922,286.711 689.975,288.653 692.028,283.169 694.081,294.771 696.134,301.928 698.187,302.841 700.24,317.799 702.292,325.09 704.345,335.663 706.398,328.049 708.451,327.911 710.504,354.699 712.557,354.872 714.61,349.036 716.663,286.292 718.716,284.691 720.768,298.403 722.821,274.228 724.874,291.35 726.927,291.5 728.98,265.538 731.033,322.88 733.086,339.885 735.139,328.517 737.192,470.231 739.245,378.119 741.297,427.878 743.35,416.16 745.403,415.436 747.456,75.98 749.509,122.115 751.562,397.248 753.615,247.334 755.668,251.786 757.721,304.116 759.773,318.23 761.826,387.443 763.879,389.905 765.932,255.1 767.985,254.809 770.038,262.963 772.091,262.943 774.144,291.228 776.197,288.84 778.249,284.486 780.302,292.377 782.355,390.378 784.408,388.596 786.461,341.342 788.514,433 790.567,430.227 792.62,458.935 794.673,492.755 796.725,474.753 798.778,459.857 800.831,333.488 802.884,230.013 804.937,230.518 806.99,243.361 809.043,245.367 811.096,263.323 813.149,89.9454 815.202,161.124 817.254,202.756 819.307,225.339 821.36,255.464 823.413,252.646 825.466,450.084 827.519,358.814 829.572,357.799 831.625,355.206 833.678,407.522 835.73,411.43 837.783,432.664 839.836,437.157 841.889,434.876 843.942,433.406 845.995,433.888 848.048,428.047 850.101,427.424 852.154,426.147 854.206,163.705 856.259,174.811 858.312,175.582 860.365,192.438 862.418,379.354 864.471,390.562 866.524,386.808 868.577,386.12 870.63,385.167 872.682,385.037 874.735,355.43 876.788,366.077 878.841,356.481 880.894,369.122 882.947,358.257 885,358.208 887.053,365.518 889.106,469.1 891.159,478.1 893.211,474.771 895.264,469.106 897.317,463.429 899.37,482.626 901.423,457.922 903.476,472.393 905.529,322.048 907.582,324.331 909.635,322.07 911.687,321.057 913.74,333.683 915.793,338.849 917.846,338.849 919.899,324.935 921.952,324.943 924.005,322.563 926.058,305.084 928.111,310.66 930.163,292.927 932.216,293.917 934.269,305.398 936.322,353.039 938.375,362.171 940.428,387.318 942.481,331.684 944.534,286.846 946.587,296.911 948.639,345.47 950.692,384.633 952.745,300.485 954.798,303.233 956.851,291.309 958.904,285.666 960.957,468.298 963.01,470.024 965.063,435.568 967.116,389.728 969.168,284.118 971.221,286.434 973.274,267.295 975.327,272.059 977.38,272.211 979.433,271.707 981.486,294.489 983.539,293.957 985.592,294.514 987.644,289.798 989.697,289.855 991.75,349.014 993.803,338.614 995.856,330.614 997.909,543.68 999.962,458.996 1002.01,456.13 1004.07,338.928 1006.12,336.623 1008.17,342.359 1010.23,616.59 1012.28,453.338 1014.33,451.719 1016.38,501.914 1018.44,501.044 1020.49,569.504 1022.54,275.959 1024.6,261.486 1026.65,262.781 1028.7,212.215 1030.76,248.991 1032.81,332.149 1034.86,430.398 1036.91,364.78 1038.97,328.068 1041.02,274.859 1043.07,273.125 1045.13,393.364 1047.18,430.101 1049.23,476.268 1051.28,474.168 1053.34,503.084 1055.39,472.391 1057.44,429.382 1059.5,317.047 1061.55,487.152 1063.6,668.178 1065.65,606.481 1067.71,607.289 1069.76,479.309 1071.81,595.592 1073.87,400.219 1075.92,404.912 1077.97,356.373 1080.02,355.69 1082.08,313.612 1084.13,277.694 1086.18,277.551 1088.24,306.122 1090.29,298.427 1092.34,298.889 1094.39,299.153 1096.45,320.51 1098.5,322.857 1100.55,277.86 1102.61,-14.8326 1104.66,186.875 1106.71,200.496 1108.77,229.179 1110.82,258.147 1112.87,282.58 1114.92,79.5232 1116.98,306.187 1119.03,311.192 1121.08,333.219 1123.14,479.272 1125.19,497.418 1127.24,375.878 1129.29,376.905 1131.35,154.462 1133.4,96.301 1135.45,380.752 1137.51,550.423 1139.56,613.972 1141.61,596.395 1143.66,598.954 1145.72,593.652 1147.77,540.116 1149.82,549.477 1151.88,541.432 1153.93,556.471 1155.98,613.914 1158.03,487.008 1160.09,455.831 1162.14,460.609 1164.19,458.841 1166.25,477.29 1168.3,417.56 1170.35,374.384 1172.4,389.603 1174.46,382.742 1176.51,415.601 1178.56,387.986 1180.62,390.25 1182.67,387.667 1184.72,386.128 1186.77,315.669 1188.83,428.625 1190.88,425.831 1192.93,410.523 1194.99,418.075 1197.04,419.253 1199.09,415.523 1201.15,12.0237 1203.2,-74.5401 1205.25,98.5533 1207.3,2.01062 1209.36,-0.975714 1211.41,71.2377 1213.46,55.7861 1215.52,415.284 1217.57,237.277 1219.62,256.132 1221.67,200.791 1223.73,147.457 1225.78,316.494 1227.83,302.186 1229.89,253.341 1231.94,273.136 1233.99,276.196 1236.04,430.539 1238.1,155.554 1240.15,290.567 1242.2,349.619 1244.26,353.335 1246.31,391.863 1248.36,392.54 1250.41,337.899 1252.47,337.532 1254.52,336.849 1256.57,255.378 1258.63,256.397 1260.68,248.393 1262.73,131.183 1264.78,86.2401 1266.84,91.6928 1268.89,131.925 1270.94,92.5042 1273,55.2178 1275.05,47.5352 1277.1,100.099 1279.16,97.739 1281.21,182.825 1283.26,227.563 1285.31,194.284 1287.37,282.885 1289.42,240.742 1291.47,396.81 1293.53,365.207 1295.58,357.668 1297.63,348.103 1299.68,355.513 1301.74,388.462 1303.79,388.342 1305.84,295.572 1307.9,279.185 1309.95,400.404 1312,372.152 1314.05,408.585 1316.11,391.423 1318.16,444.541 1320.21,389.586 1322.27,381.309 1324.32,409.497 1326.37,465.357 1328.42,439.617 1330.48,477.494 1332.53,589.311 1334.58,614.16 1336.64,583.615 1338.69,439.212 1340.74,333.173 1342.79,186.088 1344.85,177.017 1346.9,173.321 1348.95,172.194 1351.01,152.908 1353.06,151.602 1355.11,504.276 1357.16,-9.05971 1359.22,133.931 1361.27,133.972 1363.32,188.863 1365.38,-5.17443 1367.43,-63.6951 1369.48,0.935897 1371.54,29.9581 1373.59,136.619 1375.64,233.038 1377.69,-22.2088 1379.75,148.241 1381.8,119.576 1383.85,68.229 1385.91,-148.508 1387.96,245.887 1390.01,262.887 1392.06,-82.2448 1394.12,-196.808 1396.17,-223.43 1398.22,-204.606 1400.28,-352.023 1402.33,-486.603 1404.38,-500.857 1406.43,-513.049 1408.49,-500.608 1410.54,-480.773 1412.59,-519.043 1414.65,-403.002 1416.7,-364.593 1418.75,-528.42 1420.8,-449.025 1422.86,-489.289 1424.91,-494.355 1426.96,-278.654 1429.02,-307.915 1431.07,-313.477 1433.12,-215.975 1435.17,-236.773 1437.23,-261.471 1439.28,-303.36 1441.33,-282.752 1443.39,-281.514 1445.44,-291.793 1447.49,-496.614 1449.55,-529.571 1451.6,-590.69 1453.65,-672.83 1455.7,-677.157 1457.76,-682.373 1459.81,-285.533 1461.86,-511.92 1463.92,-466.724 1465.97,-481.252 1468.02,-544.867 1470.07,-513.926 1472.13,-791.139 1474.18,-90.4947 1476.23,-300.935 1478.29,61.366 1480.34,44.9244 1482.39,-321.535 1484.44,-311.245 1486.5,-236.055 1488.55,-33.2473 1490.6,448.395 1492.66,592.851 1494.71,665.195 1496.76,678.957 1498.81,667 1500.87,667.647 1502.92,639.928 1504.97,569.799 1507.03,536.89 1509.08,638.875 1511.13,586.926 1513.18,160.117 1515.24,160.208 1517.29,163.114 1519.34,142.996 1521.4,196.434 1523.45,126.978 1525.5,83.2559 1527.55,79.4878 1529.61,107.661 1531.66,180.481 1533.71,592.386 1535.77,752.747 1537.82,689.895 1539.87,1349.03 1541.93,1303.53 1543.98,1364.24 1546.03,1410.23 1548.08,1145.28 1550.14,1038.43 1552.19,1038.95 1554.24,1009.23 1556.3,1344.82 1558.35,1297.02 1560.4,1453.68 1562.45,1524.96 1564.51,1582.08 1566.56,1184 1568.61,1140.43 1570.67,1108.85 1572.72,1078.45 1574.77,860.143 1576.82,760.171 1578.88,777.559 1580.93,857.549 1582.98,894.672 1585.04,785.186 1587.09,720.913 1589.14,288.593 1591.19,307.96 1593.25,124.266 1595.3,36.01 1597.35,-152.852 1599.41,-78.0652 1601.46,-142.376 1603.51,46.8348 1605.56,207.065 1607.62,-301.683 1609.67,39.8784 1611.72,62.9308 1613.78,402.978 1615.83,446.536 1617.88,366.834 1619.94,490.51 1621.99,521.725 1624.04,498.72 1626.09,425.527 1628.15,452.41 1630.2,386.912 1632.25,-238.339 1634.31,-93.8817 1636.36,-68.3255 1638.41,793.886 1640.46,802.23 1642.52,833.383 1644.57,946.831 1646.62,1128.44 1648.68,1154.39 1650.73,476.305 1652.78,513.75 1654.83,722.415 1656.89,928.01 1658.94,487.747 1660.99,31.7278 1663.05,57.0054 1665.1,219.805 1667.15,118.069 1669.2,57.8728 1671.26,53.8611 1673.31,69.219 1675.36,327.622 1677.42,188.441 1679.47,23.0891 1681.52,-97.0954 1683.57,267.215 1685.63,230.397 1687.68,304.219 1689.73,837.292 1691.79,547.668 1693.84,267.697 1695.89,264.306 1697.94,193.203 1700,335.145 1702.05,343.246 1704.1,415.844 1706.16,416.319 1708.21,371.934 1710.26,355.547 1712.32,344.132 1714.37,355.511 1716.42,12.6643 1718.47,194.628 1720.53,201.039 1722.58,194.316 1724.63,160.449 1726.69,116.762 1728.74,88.6051 1730.79,465.482 1732.84,448.424 1734.9,490.129 1736.95,189.195 1739,187.723 1741.06,219.317 1743.11,228.788 1745.16,94.6469 1747.21,94.6267 1749.27,113.505 1751.32,76.6177 1753.37,68.2083 1755.43,-190.063 1757.48,-35.0021 1759.53,48.7783 1761.58,48.7222 1763.64,70.4145 1765.69,232.639 1767.74,253.623 1769.8,223.885 1771.85,234.858 1773.9,277.675 1775.95,275.13 1778.01,26.726 1780.06,38.8065 1782.11,43.2386 1784.17,40.6385 1786.22,38.4707 1788.27,36.0414 1790.33,27.9488 1792.38,83.4395 1794.43,48.8802 1796.48,48.9702 1798.54,68.5638 1800.59,185.999 1802.64,174.774 1804.7,600.405 1806.75,603.131 1808.8,619.585 1810.85,618.631 1812.91,615.561 1814.96,614.513 1817.01,611.378 1819.07,357.192 1821.12,249.358 1823.17,250.362 1825.22,283.783 1827.28,312.148 1829.33,322.224 1831.38,322.234 1833.44,347.84 1835.49,332.312 1837.54,338.419 1839.59,340.993 1841.65,335.607 1843.7,316.835 1845.75,316.58 1847.81,327.19 1849.86,312.39 1851.91,323.361 1853.96,339.474 1856.02,399.471 1858.07,325.081 1860.12,324.537 1862.18,306.654 1864.23,313.154 1866.28,338.464 1868.34,334.952 1870.39,335.032 1872.44,329.314 1874.49,334.223 1876.55,341.562 1878.6,337.278 1880.65,335.671 1882.71,335.649 1884.76,344.668 1886.81,416.719 1888.86,430.922 1890.92,432.524 1892.97,302.959 1895.02,302.013 1897.08,352.355 1899.13,319.872 1901.18,320.036 1903.23,393.552 1905.29,402.81 1907.34,403.775 1909.39,357.495 1911.45,355.664 1913.5,445.369 1915.55,449.124 1917.6,513.126 1919.66,452.926 1921.71,493.279 1923.76,491.194 1925.82,495.836 1927.87,420.647 1929.92,202.342 1931.97,220.242 1934.03,283.709 1936.08,302.658 1938.13,340.764 1940.19,352.549 1942.24,393.993 1944.29,396.866 1946.34,478.688 1948.4,432.729 1950.45,429.564 1952.5,239.879 1954.56,277.595 1956.61,334.825 1958.66,117.642 1960.72,223.911 1962.77,276.064 1964.82,272.689 1966.87,244.792 1968.93,245.242 1970.98,279.38 1973.03,278.447 1975.09,369.283 1977.14,191.214 1979.19,227.01 1981.24,258.76 1983.3,271.515 1985.35,272.155 1987.4,270.699 1989.46,384.148 1991.51,384.373 1993.56,361.832 1995.61,370.595 1997.67,407.917 1999.72,546.446 2001.77,490.756 2003.83,369.784 2005.88,338.201 2007.93,338.299 2009.98,424 2012.04,438.597 2014.09,492.681 2016.14,419.877 2018.2,414.827 2020.25,418.943 2022.3,420.198 2024.35,435.192 2026.41,488.832 2028.46,468.524 2030.51,476.048 2032.57,502.133 2034.62,486.627 2036.67,486.331 2038.73,507.968 2040.78,497.731 2042.83,496.46 2044.88,496.469 2046.94,495.671 2048.99,494.758 2051.04,239.736 2053.1,236.215 2055.15,237.06 2057.2,245.577 2059.25,245.705 2061.31,250.777 2063.36,242.818 2065.41,279.706 2067.47,365.655 2069.52,364.068 2071.57,364.247 2073.62,371.319 2075.68,371.365 2077.73,370.357 2079.78,373.46 2081.84,373.893 2083.89,373.941 2085.94,350.848 2087.99,355.896 2090.05,355.842 2092.1,354.581 2094.15,356.205 2096.21,362.865 2098.26,360.938 2100.31,360.175 2102.36,355.357 2104.42,341.568 2106.47,338.651 2108.52,377.974 2110.58,421.368 2112.63,422.303 2114.68,422.507 2116.73,432.383 2118.79,432.282 2120.84,428.417 2122.89,421.261 2124.95,424.089 2127,416.208 2129.05,429.189 2131.11,445.409 2133.16,451.556 2135.21,441.847 2137.26,441.863 2139.32,444.669 2141.37,469.82 2143.42,471.044 2145.48,469.123 2147.53,497.901 2149.58,491.893 2151.63,491.256 2153.69,378.735 2155.74,378.789 2157.79,371.935 2159.85,369.068 2161.9,366.7 2163.95,384.392 2166,388.459 2168.06,394.034 2170.11,398.816 2172.16,396.354 2174.22,404.72 2176.27,405.038 2178.32,408.05 2180.37,406.189 2182.43,358.816 2184.48,399.702 2186.53,397.072 2188.59,390.278 2190.64,388.331 2192.69,389.494 2194.74,389.521 2196.8,318.145 2198.85,315.185 2200.9,291.812 2202.96,327.627 2205.01,328.553 2207.06,328.674 2209.12,332.317 2211.17,406.732 2213.22,401.604 2215.27,316.603 2217.33,314.461 2219.38,315.897 2221.43,343.714 2223.49,352.96 2225.54,349.807 2227.59,366.128 2229.64,367.033 2231.7,386.756 2233.75,387.735 2235.8,293.88 2237.86,315.354 2239.91,323.58 2241.96,331.928 2244.01,331.721 2246.07,334.652 2248.12,502.777 2250.17,517.778 2252.23,455.076 2254.28,454.867 2256.33,455.641 2258.38,458.405 2260.44,410.619 2262.49,348.234 2264.54,348.739 2266.6,423.797 2268.65,423.704 2270.7,403.136 2272.75,402.05 2274.81,374.347 2276.86,366.745 2278.91,367.636 2280.97,355.197 2283.02,354.844 2285.07,375.081 2287.12,374.059 2289.18,371.423 2291.23,370.488 "/>
<path clip-path="url(#clip090)" d="M251.33 172.231 L548.024 172.231 L548.024 68.5509 L251.33 68.5509  Z" fill="#ffffff" fill-rule="evenodd" fill-opacity="1"/>
<polyline clip-path="url(#clip090)" style="stroke:#000000; stroke-linecap:round; stroke-linejoin:round; stroke-width:4; stroke-opacity:1; fill:none" points="251.33,172.231 548.024,172.231 548.024,68.5509 251.33,68.5509 251.33,172.231 "/>
<polyline clip-path="url(#clip090)" style="stroke:#009af9; stroke-linecap:round; stroke-linejoin:round; stroke-width:4; stroke-opacity:1; fill:none" points="275.484,120.391 420.41,120.391 "/>
<path clip-path="url(#clip090)" d="M444.564 103.111 L449.24 103.111 L449.24 133.736 L466.069 133.736 L466.069 137.671 L444.564 137.671 L444.564 103.111 Z" fill="#000000" fill-rule="nonzero" fill-opacity="1" /><path clip-path="url(#clip090)" d="M491.694 104.245 L491.694 108.805 Q489.032 107.532 486.67 106.907 Q484.309 106.282 482.11 106.282 Q478.291 106.282 476.208 107.764 Q474.147 109.245 474.147 111.977 Q474.147 114.268 475.513 115.449 Q476.902 116.606 480.745 117.324 L483.569 117.902 Q488.8 118.898 491.277 121.421 Q493.777 123.921 493.777 128.134 Q493.777 133.157 490.397 135.75 Q487.041 138.342 480.536 138.342 Q478.083 138.342 475.305 137.787 Q472.55 137.231 469.587 136.143 L469.587 131.328 Q472.434 132.926 475.166 133.736 Q477.897 134.546 480.536 134.546 Q484.541 134.546 486.717 132.972 Q488.893 131.398 488.893 128.481 Q488.893 125.935 487.319 124.5 Q485.768 123.064 482.203 122.347 L479.356 121.791 Q474.124 120.75 471.786 118.527 Q469.448 116.305 469.448 112.347 Q469.448 107.764 472.666 105.125 Q475.907 102.486 481.578 102.486 Q484.008 102.486 486.532 102.926 Q489.055 103.366 491.694 104.245 Z" fill="#000000" fill-rule="nonzero" fill-opacity="1" /><path clip-path="url(#clip090)" d="M521.786 104.245 L521.786 108.805 Q519.124 107.532 516.763 106.907 Q514.402 106.282 512.203 106.282 Q508.383 106.282 506.3 107.764 Q504.24 109.245 504.24 111.977 Q504.24 114.268 505.606 115.449 Q506.994 116.606 510.837 117.324 L513.661 117.902 Q518.893 118.898 521.369 121.421 Q523.869 123.921 523.869 128.134 Q523.869 133.157 520.49 135.75 Q517.133 138.342 510.629 138.342 Q508.175 138.342 505.397 137.787 Q502.643 137.231 499.68 136.143 L499.68 131.328 Q502.527 132.926 505.258 133.736 Q507.99 134.546 510.629 134.546 Q514.633 134.546 516.809 132.972 Q518.985 131.398 518.985 128.481 Q518.985 125.935 517.411 124.5 Q515.86 123.064 512.295 122.347 L509.448 121.791 Q504.217 120.75 501.879 118.527 Q499.541 116.305 499.541 112.347 Q499.541 107.764 502.758 105.125 Q505.999 102.486 511.67 102.486 Q514.101 102.486 516.624 102.926 Q519.147 103.366 521.786 104.245 Z" fill="#000000" fill-rule="nonzero" fill-opacity="1" /><path clip-path="url(#clip090)" d="M178.867 1486.45 L2352.76 1486.45 L2352.76 847.244 L178.867 847.244  Z" fill="#ffffff" fill-rule="evenodd" fill-opacity="1"/>
<defs>
  <clipPath id="clip093">
    <rect x="178" y="847" width="2175" height="640"/>
  </clipPath>
</defs>
<polyline clip-path="url(#clip093)" style="stroke:#000000; stroke-linecap:round; stroke-linejoin:round; stroke-width:2; stroke-opacity:0.1; fill:none" points="238.339,1486.45 238.339,847.244 "/>
<polyline clip-path="url(#clip093)" style="stroke:#000000; stroke-linecap:round; stroke-linejoin:round; stroke-width:2; stroke-opacity:0.1; fill:none" points="751.562,1486.45 751.562,847.244 "/>
<polyline clip-path="url(#clip093)" style="stroke:#000000; stroke-linecap:round; stroke-linejoin:round; stroke-width:2; stroke-opacity:0.1; fill:none" points="1264.78,1486.45 1264.78,847.244 "/>
<polyline clip-path="url(#clip093)" style="stroke:#000000; stroke-linecap:round; stroke-linejoin:round; stroke-width:2; stroke-opacity:0.1; fill:none" points="1778.01,1486.45 1778.01,847.244 "/>
<polyline clip-path="url(#clip093)" style="stroke:#000000; stroke-linecap:round; stroke-linejoin:round; stroke-width:2; stroke-opacity:0.1; fill:none" points="2291.23,1486.45 2291.23,847.244 "/>
<polyline clip-path="url(#clip093)" style="stroke:#000000; stroke-linecap:round; stroke-linejoin:round; stroke-width:2; stroke-opacity:0.1; fill:none" points="178.867,1486.45 2352.76,1486.45 "/>
<polyline clip-path="url(#clip093)" style="stroke:#000000; stroke-linecap:round; stroke-linejoin:round; stroke-width:2; stroke-opacity:0.1; fill:none" points="178.867,1326.65 2352.76,1326.65 "/>
<polyline clip-path="url(#clip093)" style="stroke:#000000; stroke-linecap:round; stroke-linejoin:round; stroke-width:2; stroke-opacity:0.1; fill:none" points="178.867,1166.85 2352.76,1166.85 "/>
<polyline clip-path="url(#clip093)" style="stroke:#000000; stroke-linecap:round; stroke-linejoin:round; stroke-width:2; stroke-opacity:0.1; fill:none" points="178.867,1007.05 2352.76,1007.05 "/>
<polyline clip-path="url(#clip093)" style="stroke:#000000; stroke-linecap:round; stroke-linejoin:round; stroke-width:2; stroke-opacity:0.1; fill:none" points="178.867,847.244 2352.76,847.244 "/>
<polyline clip-path="url(#clip090)" style="stroke:#000000; stroke-linecap:round; stroke-linejoin:round; stroke-width:4; stroke-opacity:1; fill:none" points="178.867,1486.45 2352.76,1486.45 "/>
<polyline clip-path="url(#clip090)" style="stroke:#000000; stroke-linecap:round; stroke-linejoin:round; stroke-width:4; stroke-opacity:1; fill:none" points="238.339,1486.45 238.339,1467.55 "/>
<polyline clip-path="url(#clip090)" style="stroke:#000000; stroke-linecap:round; stroke-linejoin:round; stroke-width:4; stroke-opacity:1; fill:none" points="751.562,1486.45 751.562,1467.55 "/>
<polyline clip-path="url(#clip090)" style="stroke:#000000; stroke-linecap:round; stroke-linejoin:round; stroke-width:4; stroke-opacity:1; fill:none" points="1264.78,1486.45 1264.78,1467.55 "/>
<polyline clip-path="url(#clip090)" style="stroke:#000000; stroke-linecap:round; stroke-linejoin:round; stroke-width:4; stroke-opacity:1; fill:none" points="1778.01,1486.45 1778.01,1467.55 "/>
<polyline clip-path="url(#clip090)" style="stroke:#000000; stroke-linecap:round; stroke-linejoin:round; stroke-width:4; stroke-opacity:1; fill:none" points="2291.23,1486.45 2291.23,1467.55 "/>
<path clip-path="url(#clip090)" d="M238.339 1517.37 Q234.728 1517.37 232.899 1520.93 Q231.094 1524.47 231.094 1531.6 Q231.094 1538.71 232.899 1542.27 Q234.728 1545.82 238.339 1545.82 Q241.973 1545.82 243.779 1542.27 Q245.607 1538.71 245.607 1531.6 Q245.607 1524.47 243.779 1520.93 Q241.973 1517.37 238.339 1517.37 M238.339 1513.66 Q244.149 1513.66 247.205 1518.27 Q250.283 1522.85 250.283 1531.6 Q250.283 1540.33 247.205 1544.94 Q244.149 1549.52 238.339 1549.52 Q232.529 1549.52 229.45 1544.94 Q226.395 1540.33 226.395 1531.6 Q226.395 1522.85 229.45 1518.27 Q232.529 1513.66 238.339 1513.66 Z" fill="#000000" fill-rule="nonzero" fill-opacity="1" /><path clip-path="url(#clip090)" d="M715.254 1544.91 L731.574 1544.91 L731.574 1548.85 L709.629 1548.85 L709.629 1544.91 Q712.291 1542.16 716.875 1537.53 Q721.481 1532.88 722.662 1531.53 Q724.907 1529.01 725.787 1527.27 Q726.689 1525.51 726.689 1523.82 Q726.689 1521.07 724.745 1519.33 Q722.824 1517.6 719.722 1517.6 Q717.523 1517.6 715.069 1518.36 Q712.638 1519.13 709.861 1520.68 L709.861 1515.95 Q712.685 1514.82 715.138 1514.24 Q717.592 1513.66 719.629 1513.66 Q725 1513.66 728.194 1516.35 Q731.388 1519.03 731.388 1523.52 Q731.388 1525.65 730.578 1527.57 Q729.791 1529.47 727.685 1532.07 Q727.106 1532.74 724.004 1535.95 Q720.902 1539.15 715.254 1544.91 Z" fill="#000000" fill-rule="nonzero" fill-opacity="1" /><path clip-path="url(#clip090)" d="M741.435 1514.29 L759.791 1514.29 L759.791 1518.22 L745.717 1518.22 L745.717 1526.7 Q746.736 1526.35 747.754 1526.19 Q748.773 1526 749.791 1526 Q755.578 1526 758.958 1529.17 Q762.337 1532.34 762.337 1537.76 Q762.337 1543.34 758.865 1546.44 Q755.393 1549.52 749.073 1549.52 Q746.898 1549.52 744.629 1549.15 Q742.384 1548.78 739.976 1548.04 L739.976 1543.34 Q742.06 1544.47 744.282 1545.03 Q746.504 1545.58 748.981 1545.58 Q752.985 1545.58 755.323 1543.48 Q757.661 1541.37 757.661 1537.76 Q757.661 1534.15 755.323 1532.04 Q752.985 1529.94 748.981 1529.94 Q747.106 1529.94 745.231 1530.35 Q743.379 1530.77 741.435 1531.65 L741.435 1514.29 Z" fill="#000000" fill-rule="nonzero" fill-opacity="1" /><path clip-path="url(#clip090)" d="M781.55 1517.37 Q777.939 1517.37 776.11 1520.93 Q774.305 1524.47 774.305 1531.6 Q774.305 1538.71 776.11 1542.27 Q777.939 1545.82 781.55 1545.82 Q785.184 1545.82 786.99 1542.27 Q788.819 1538.71 788.819 1531.6 Q788.819 1524.47 786.99 1520.93 Q785.184 1517.37 781.55 1517.37 M781.55 1513.66 Q787.36 1513.66 790.416 1518.27 Q793.495 1522.85 793.495 1531.6 Q793.495 1540.33 790.416 1544.94 Q787.36 1549.52 781.55 1549.52 Q775.74 1549.52 772.661 1544.94 Q769.606 1540.33 769.606 1531.6 Q769.606 1522.85 772.661 1518.27 Q775.74 1513.66 781.55 1513.66 Z" fill="#000000" fill-rule="nonzero" fill-opacity="1" /><path clip-path="url(#clip090)" d="M1224.4 1514.29 L1242.76 1514.29 L1242.76 1518.22 L1228.69 1518.22 L1228.69 1526.7 Q1229.7 1526.35 1230.72 1526.19 Q1231.74 1526 1232.76 1526 Q1238.55 1526 1241.93 1529.17 Q1245.31 1532.34 1245.31 1537.76 Q1245.31 1543.34 1241.83 1546.44 Q1238.36 1549.52 1232.04 1549.52 Q1229.87 1549.52 1227.6 1549.15 Q1225.35 1548.78 1222.94 1548.04 L1222.94 1543.34 Q1225.03 1544.47 1227.25 1545.03 Q1229.47 1545.58 1231.95 1545.58 Q1235.95 1545.58 1238.29 1543.48 Q1240.63 1541.37 1240.63 1537.76 Q1240.63 1534.15 1238.29 1532.04 Q1235.95 1529.94 1231.95 1529.94 Q1230.07 1529.94 1228.2 1530.35 Q1226.35 1530.77 1224.4 1531.65 L1224.4 1514.29 Z" fill="#000000" fill-rule="nonzero" fill-opacity="1" /><path clip-path="url(#clip090)" d="M1264.52 1517.37 Q1260.91 1517.37 1259.08 1520.93 Q1257.27 1524.47 1257.27 1531.6 Q1257.27 1538.71 1259.08 1542.27 Q1260.91 1545.82 1264.52 1545.82 Q1268.15 1545.82 1269.96 1542.27 Q1271.79 1538.71 1271.79 1531.6 Q1271.79 1524.47 1269.96 1520.93 Q1268.15 1517.37 1264.52 1517.37 M1264.52 1513.66 Q1270.33 1513.66 1273.38 1518.27 Q1276.46 1522.85 1276.46 1531.6 Q1276.46 1540.33 1273.38 1544.94 Q1270.33 1549.52 1264.52 1549.52 Q1258.71 1549.52 1255.63 1544.94 Q1252.57 1540.33 1252.57 1531.6 Q1252.57 1522.85 1255.63 1518.27 Q1258.71 1513.66 1264.52 1513.66 Z" fill="#000000" fill-rule="nonzero" fill-opacity="1" /><path clip-path="url(#clip090)" d="M1294.68 1517.37 Q1291.07 1517.37 1289.24 1520.93 Q1287.44 1524.47 1287.44 1531.6 Q1287.44 1538.71 1289.24 1542.27 Q1291.07 1545.82 1294.68 1545.82 Q1298.31 1545.82 1300.12 1542.27 Q1301.95 1538.71 1301.95 1531.6 Q1301.95 1524.47 1300.12 1520.93 Q1298.31 1517.37 1294.68 1517.37 M1294.68 1513.66 Q1300.49 1513.66 1303.55 1518.27 Q1306.62 1522.85 1306.62 1531.6 Q1306.62 1540.33 1303.55 1544.94 Q1300.49 1549.52 1294.68 1549.52 Q1288.87 1549.52 1285.79 1544.94 Q1282.74 1540.33 1282.74 1531.6 Q1282.74 1522.85 1285.79 1518.27 Q1288.87 1513.66 1294.68 1513.66 Z" fill="#000000" fill-rule="nonzero" fill-opacity="1" /><path clip-path="url(#clip090)" d="M1736.28 1514.29 L1758.51 1514.29 L1758.51 1516.28 L1745.96 1548.85 L1741.08 1548.85 L1752.88 1518.22 L1736.28 1518.22 L1736.28 1514.29 Z" fill="#000000" fill-rule="nonzero" fill-opacity="1" /><path clip-path="url(#clip090)" d="M1767.67 1514.29 L1786.03 1514.29 L1786.03 1518.22 L1771.95 1518.22 L1771.95 1526.7 Q1772.97 1526.35 1773.99 1526.19 Q1775.01 1526 1776.03 1526 Q1781.82 1526 1785.2 1529.17 Q1788.57 1532.34 1788.57 1537.76 Q1788.57 1543.34 1785.1 1546.44 Q1781.63 1549.52 1775.31 1549.52 Q1773.14 1549.52 1770.87 1549.15 Q1768.62 1548.78 1766.21 1548.04 L1766.21 1543.34 Q1768.3 1544.47 1770.52 1545.03 Q1772.74 1545.58 1775.22 1545.58 Q1779.22 1545.58 1781.56 1543.48 Q1783.9 1541.37 1783.9 1537.76 Q1783.9 1534.15 1781.56 1532.04 Q1779.22 1529.94 1775.22 1529.94 Q1773.34 1529.94 1771.47 1530.35 Q1769.62 1530.77 1767.67 1531.65 L1767.67 1514.29 Z" fill="#000000" fill-rule="nonzero" fill-opacity="1" /><path clip-path="url(#clip090)" d="M1807.79 1517.37 Q1804.18 1517.37 1802.35 1520.93 Q1800.54 1524.47 1800.54 1531.6 Q1800.54 1538.71 1802.35 1542.27 Q1804.18 1545.82 1807.79 1545.82 Q1811.42 1545.82 1813.23 1542.27 Q1815.06 1538.71 1815.06 1531.6 Q1815.06 1524.47 1813.23 1520.93 Q1811.42 1517.37 1807.79 1517.37 M1807.79 1513.66 Q1813.6 1513.66 1816.65 1518.27 Q1819.73 1522.85 1819.73 1531.6 Q1819.73 1540.33 1816.65 1544.94 Q1813.6 1549.52 1807.79 1549.52 Q1801.98 1549.52 1798.9 1544.94 Q1795.84 1540.33 1795.84 1531.6 Q1795.84 1522.85 1798.9 1518.27 Q1801.98 1513.66 1807.79 1513.66 Z" fill="#000000" fill-rule="nonzero" fill-opacity="1" /><path clip-path="url(#clip090)" d="M2235.76 1544.91 L2243.4 1544.91 L2243.4 1518.55 L2235.09 1520.21 L2235.09 1515.95 L2243.35 1514.29 L2248.02 1514.29 L2248.02 1544.91 L2255.66 1544.91 L2255.66 1548.85 L2235.76 1548.85 L2235.76 1544.91 Z" fill="#000000" fill-rule="nonzero" fill-opacity="1" /><path clip-path="url(#clip090)" d="M2275.11 1517.37 Q2271.5 1517.37 2269.67 1520.93 Q2267.86 1524.47 2267.86 1531.6 Q2267.86 1538.71 2269.67 1542.27 Q2271.5 1545.82 2275.11 1545.82 Q2278.74 1545.82 2280.55 1542.27 Q2282.38 1538.71 2282.38 1531.6 Q2282.38 1524.47 2280.55 1520.93 Q2278.74 1517.37 2275.11 1517.37 M2275.11 1513.66 Q2280.92 1513.66 2283.97 1518.27 Q2287.05 1522.85 2287.05 1531.6 Q2287.05 1540.33 2283.97 1544.94 Q2280.92 1549.52 2275.11 1549.52 Q2269.3 1549.52 2266.22 1544.94 Q2263.16 1540.33 2263.16 1531.6 Q2263.16 1522.85 2266.22 1518.27 Q2269.3 1513.66 2275.11 1513.66 Z" fill="#000000" fill-rule="nonzero" fill-opacity="1" /><path clip-path="url(#clip090)" d="M2305.27 1517.37 Q2301.66 1517.37 2299.83 1520.93 Q2298.02 1524.47 2298.02 1531.6 Q2298.02 1538.71 2299.83 1542.27 Q2301.66 1545.82 2305.27 1545.82 Q2308.9 1545.82 2310.71 1542.27 Q2312.54 1538.71 2312.54 1531.6 Q2312.54 1524.47 2310.71 1520.93 Q2308.9 1517.37 2305.27 1517.37 M2305.27 1513.66 Q2311.08 1513.66 2314.14 1518.27 Q2317.21 1522.85 2317.21 1531.6 Q2317.21 1540.33 2314.14 1544.94 Q2311.08 1549.52 2305.27 1549.52 Q2299.46 1549.52 2296.38 1544.94 Q2293.33 1540.33 2293.33 1531.6 Q2293.33 1522.85 2296.38 1518.27 Q2299.46 1513.66 2305.27 1513.66 Z" fill="#000000" fill-rule="nonzero" fill-opacity="1" /><path clip-path="url(#clip090)" d="M2335.43 1517.37 Q2331.82 1517.37 2329.99 1520.93 Q2328.19 1524.47 2328.19 1531.6 Q2328.19 1538.71 2329.99 1542.27 Q2331.82 1545.82 2335.43 1545.82 Q2339.07 1545.82 2340.87 1542.27 Q2342.7 1538.71 2342.7 1531.6 Q2342.7 1524.47 2340.87 1520.93 Q2339.07 1517.37 2335.43 1517.37 M2335.43 1513.66 Q2341.24 1513.66 2344.3 1518.27 Q2347.38 1522.85 2347.38 1531.6 Q2347.38 1540.33 2344.3 1544.94 Q2341.24 1549.52 2335.43 1549.52 Q2329.62 1549.52 2326.54 1544.94 Q2323.49 1540.33 2323.49 1531.6 Q2323.49 1522.85 2326.54 1518.27 Q2329.62 1513.66 2335.43 1513.66 Z" fill="#000000" fill-rule="nonzero" fill-opacity="1" /><polyline clip-path="url(#clip090)" style="stroke:#000000; stroke-linecap:round; stroke-linejoin:round; stroke-width:4; stroke-opacity:1; fill:none" points="178.867,1486.45 178.867,847.244 "/>
<polyline clip-path="url(#clip090)" style="stroke:#000000; stroke-linecap:round; stroke-linejoin:round; stroke-width:4; stroke-opacity:1; fill:none" points="178.867,1486.45 197.764,1486.45 "/>
<polyline clip-path="url(#clip090)" style="stroke:#000000; stroke-linecap:round; stroke-linejoin:round; stroke-width:4; stroke-opacity:1; fill:none" points="178.867,1326.65 197.764,1326.65 "/>
<polyline clip-path="url(#clip090)" style="stroke:#000000; stroke-linecap:round; stroke-linejoin:round; stroke-width:4; stroke-opacity:1; fill:none" points="178.867,1166.85 197.764,1166.85 "/>
<polyline clip-path="url(#clip090)" style="stroke:#000000; stroke-linecap:round; stroke-linejoin:round; stroke-width:4; stroke-opacity:1; fill:none" points="178.867,1007.05 197.764,1007.05 "/>
<polyline clip-path="url(#clip090)" style="stroke:#000000; stroke-linecap:round; stroke-linejoin:round; stroke-width:4; stroke-opacity:1; fill:none" points="178.867,847.244 197.764,847.244 "/>
<path clip-path="url(#clip090)" d="M50.9921 1486.9 L80.6679 1486.9 L80.6679 1490.83 L50.9921 1490.83 L50.9921 1486.9 Z" fill="#000000" fill-rule="nonzero" fill-opacity="1" /><path clip-path="url(#clip090)" d="M91.5706 1499.79 L99.2095 1499.79 L99.2095 1473.43 L90.8993 1475.09 L90.8993 1470.83 L99.1632 1469.17 L103.839 1469.17 L103.839 1499.79 L111.478 1499.79 L111.478 1503.73 L91.5706 1503.73 L91.5706 1499.79 Z" fill="#000000" fill-rule="nonzero" fill-opacity="1" /><path clip-path="url(#clip090)" d="M130.922 1472.25 Q127.311 1472.25 125.482 1475.81 Q123.677 1479.35 123.677 1486.48 Q123.677 1493.59 125.482 1497.15 Q127.311 1500.7 130.922 1500.7 Q134.556 1500.7 136.362 1497.15 Q138.191 1493.59 138.191 1486.48 Q138.191 1479.35 136.362 1475.81 Q134.556 1472.25 130.922 1472.25 M130.922 1468.54 Q136.732 1468.54 139.788 1473.15 Q142.867 1477.73 142.867 1486.48 Q142.867 1495.21 139.788 1499.82 Q136.732 1504.4 130.922 1504.4 Q125.112 1504.4 122.033 1499.82 Q118.978 1495.21 118.978 1486.48 Q118.978 1477.73 122.033 1473.15 Q125.112 1468.54 130.922 1468.54 Z" fill="#000000" fill-rule="nonzero" fill-opacity="1" /><path clip-path="url(#clip090)" d="M82.1494 1327.1 L111.825 1327.1 L111.825 1331.03 L82.1494 1331.03 L82.1494 1327.1 Z" fill="#000000" fill-rule="nonzero" fill-opacity="1" /><path clip-path="url(#clip090)" d="M121.964 1309.37 L140.32 1309.37 L140.32 1313.3 L126.246 1313.3 L126.246 1321.77 Q127.265 1321.43 128.283 1321.27 Q129.302 1321.08 130.32 1321.08 Q136.107 1321.08 139.487 1324.25 Q142.867 1327.42 142.867 1332.84 Q142.867 1338.42 139.394 1341.52 Q135.922 1344.6 129.603 1344.6 Q127.427 1344.6 125.158 1344.23 Q122.913 1343.86 120.506 1343.12 L120.506 1338.42 Q122.589 1339.55 124.811 1340.11 Q127.033 1340.66 129.51 1340.66 Q133.515 1340.66 135.853 1338.56 Q138.191 1336.45 138.191 1332.84 Q138.191 1329.23 135.853 1327.12 Q133.515 1325.01 129.51 1325.01 Q127.635 1325.01 125.76 1325.43 Q123.908 1325.85 121.964 1326.73 L121.964 1309.37 Z" fill="#000000" fill-rule="nonzero" fill-opacity="1" /><path clip-path="url(#clip090)" d="M130.922 1152.64 Q127.311 1152.64 125.482 1156.21 Q123.677 1159.75 123.677 1166.88 Q123.677 1173.99 125.482 1177.55 Q127.311 1181.09 130.922 1181.09 Q134.556 1181.09 136.362 1177.55 Q138.191 1173.99 138.191 1166.88 Q138.191 1159.75 136.362 1156.21 Q134.556 1152.64 130.922 1152.64 M130.922 1148.94 Q136.732 1148.94 139.788 1153.55 Q142.867 1158.13 142.867 1166.88 Q142.867 1175.61 139.788 1180.21 Q136.732 1184.8 130.922 1184.8 Q125.112 1184.8 122.033 1180.21 Q118.978 1175.61 118.978 1166.88 Q118.978 1158.13 122.033 1153.55 Q125.112 1148.94 130.922 1148.94 Z" fill="#000000" fill-rule="nonzero" fill-opacity="1" /><path clip-path="url(#clip090)" d="M121.964 989.765 L140.32 989.765 L140.32 993.7 L126.246 993.7 L126.246 1002.17 Q127.265 1001.83 128.283 1001.66 Q129.302 1001.48 130.32 1001.48 Q136.107 1001.48 139.487 1004.65 Q142.867 1007.82 142.867 1013.24 Q142.867 1018.82 139.394 1021.92 Q135.922 1025 129.603 1025 Q127.427 1025 125.158 1024.63 Q122.913 1024.26 120.506 1023.51 L120.506 1018.82 Q122.589 1019.95 124.811 1020.51 Q127.033 1021.06 129.51 1021.06 Q133.515 1021.06 135.853 1018.95 Q138.191 1016.85 138.191 1013.24 Q138.191 1009.63 135.853 1007.52 Q133.515 1005.41 129.51 1005.41 Q127.635 1005.41 125.76 1005.83 Q123.908 1006.25 121.964 1007.13 L121.964 989.765 Z" fill="#000000" fill-rule="nonzero" fill-opacity="1" /><path clip-path="url(#clip090)" d="M91.5706 860.589 L99.2095 860.589 L99.2095 834.223 L90.8993 835.89 L90.8993 831.631 L99.1632 829.964 L103.839 829.964 L103.839 860.589 L111.478 860.589 L111.478 864.524 L91.5706 864.524 L91.5706 860.589 Z" fill="#000000" fill-rule="nonzero" fill-opacity="1" /><path clip-path="url(#clip090)" d="M130.922 833.043 Q127.311 833.043 125.482 836.608 Q123.677 840.149 123.677 847.279 Q123.677 854.385 125.482 857.95 Q127.311 861.492 130.922 861.492 Q134.556 861.492 136.362 857.95 Q138.191 854.385 138.191 847.279 Q138.191 840.149 136.362 836.608 Q134.556 833.043 130.922 833.043 M130.922 829.339 Q136.732 829.339 139.788 833.946 Q142.867 838.529 142.867 847.279 Q142.867 856.006 139.788 860.612 Q136.732 865.195 130.922 865.195 Q125.112 865.195 122.033 860.612 Q118.978 856.006 118.978 847.279 Q118.978 838.529 122.033 833.946 Q125.112 829.339 130.922 829.339 Z" fill="#000000" fill-rule="nonzero" fill-opacity="1" /><polyline clip-path="url(#clip093)" style="stroke:#009af9; stroke-linecap:round; stroke-linejoin:round; stroke-width:4; stroke-opacity:1; fill:none" points="240.392,1134.89 242.445,1192.15 244.498,1177.26 246.55,1144.16 248.603,1165.06 250.656,1245.81 252.709,1135.53 254.762,1145.67 256.815,1143.29 258.868,1177.5 260.921,1128.43 262.974,1211.16 265.027,1208.44 267.079,1107.57 269.132,1237.06 271.185,1104.24 273.238,1146.83 275.291,1177.28 277.344,1138.11 279.397,1249.71 281.45,1154.55 283.503,1185.79 285.555,1139.27 287.608,1181.33 289.661,1174.57 291.714,1178.43 293.767,1192.24 295.82,1157.17 297.873,1185.59 299.926,1189.94 301.979,1149.4 304.031,1163.06 306.084,1167.99 308.137,1176.91 310.19,1181.5 312.243,1136.05 314.296,1173.14 316.349,1101.68 318.402,1181.06 320.455,1138.8 322.507,1133.24 324.56,1139.94 326.613,1117.59 328.666,1173.81 330.719,1165.74 332.772,1161.68 334.825,1159.78 336.878,1159.21 338.931,1262.26 340.984,1283.05 343.036,1229.18 345.089,1147.38 347.142,1196.67 349.195,1122.2 351.248,1133.51 353.301,1121.83 355.354,1161.5 357.407,1170.96 359.46,1119.58 361.512,1198.02 363.565,1186.31 365.618,1165.41 367.671,1162.85 369.724,1252.14 371.777,1161.88 373.83,1170.21 375.883,1165.15 377.936,1165.91 379.988,1160.72 382.041,1175.81 384.094,1230.38 386.147,1137.47 388.2,1147.13 390.253,1188.35 392.306,1094.38 394.359,1251.81 396.412,864.999 398.464,1160.69 400.517,1114.9 402.57,1202.35 404.623,1101.6 406.676,1220.87 408.729,1180.94 410.782,1163.63 412.835,1191.96 414.888,1187.51 416.94,1107.49 418.993,1244.85 421.046,1148.94 423.099,1151.66 425.152,1174.76 427.205,1216.18 429.258,1193.09 431.311,1176.25 433.364,1172.82 435.417,1150.64 437.469,1152.06 439.522,1226.46 441.575,1330.25 443.628,1052.85 445.681,1238.62 447.734,1207.35 449.787,1187.59 451.84,1074.81 453.893,1299.91 455.945,1178.33 457.998,1202.63 460.051,1205.22 462.104,1169.4 464.157,1155.83 466.21,1246.91 468.263,1180.95 470.316,1208.21 472.369,1132.51 474.421,1198.9 476.474,1210.3 478.527,1161.77 480.58,1189.51 482.633,1202.68 484.686,1131.49 486.739,1161.79 488.792,1190.6 490.845,1134.91 492.897,1075.4 494.95,1158.92 497.003,1206.75 499.056,1177.42 501.109,1143.89 503.162,1179.13 505.215,1144.11 507.268,1203.17 509.321,1191.21 511.374,1138.29 513.426,1002.71 515.479,1305.37 517.532,966.81 519.585,1201.05 521.638,1095.75 523.691,1204.53 525.744,1132.07 527.797,1074.13 529.85,1122.07 531.902,1192.03 533.955,1189.1 536.008,1071.53 538.061,1161.81 540.114,1186.4 542.167,1167.93 544.22,1153.82 546.273,1178.72 548.326,1158.48 550.378,1201.84 552.431,1094.68 554.484,1213.23 556.537,1183.36 558.59,1211.49 560.643,1232.13 562.696,1085.09 564.749,1150.56 566.802,1194.7 568.854,1036.36 570.907,1283.5 572.96,1220.68 575.013,1155.6 577.066,1206.41 579.119,1166.22 581.172,1143.46 583.225,1197.44 585.278,1194.55 587.331,1061.84 589.383,1099.88 591.436,1137.48 593.489,1103.4 595.542,1184.14 597.595,1224.61 599.648,1104.64 601.701,1187.78 603.754,1124.55 605.807,1137.95 607.859,1144.13 609.912,1139.94 611.965,1143.44 614.018,1136.66 616.071,1176.28 618.124,1191.4 620.177,1179.49 622.23,1349.8 624.283,1133.99 626.335,1364.49 628.388,956.264 630.441,1120.45 632.494,1025.76 634.547,985.792 636.6,1238.36 638.653,1132.59 640.706,1066.45 642.759,1497.55 644.811,984.703 646.864,1143.53 648.917,1022.42 650.97,1310.7 653.023,944.865 655.076,1793.96 657.129,1974.79 659.182,-1222.74 661.235,2864.63 663.288,2250.34 665.34,1150.8 667.393,1356.3 669.446,1211.72 671.499,1141.87 673.552,1150.06 675.605,1154.58 677.658,1149.29 679.711,1159.53 681.764,1142.06 683.816,1161.44 685.869,1170.6 687.922,1168.93 689.975,1165.62 692.028,1177.81 694.081,1158.23 696.134,1168.74 698.187,1067.66 700.24,1342.43 702.292,1418.47 704.345,1169.81 706.398,1201.14 708.451,1128.36 710.504,1140.5 712.557,1168.55 714.61,1178.11 716.663,1049.92 718.716,1253.52 720.768,1255.58 722.821,1115.08 724.874,1183.79 726.927,1201.59 728.98,1184.21 731.033,1180.21 733.086,1150.48 735.139,1164.14 737.192,1165 739.245,1154.68 741.297,1154.69 743.35,1172.23 745.403,1186.84 747.456,1134.41 749.509,997.301 751.562,1115.56 753.615,1185.29 755.668,1175.74 757.721,1162.86 759.773,1178.04 761.826,1165.66 763.879,1210.73 765.932,1134.52 767.985,1109.64 770.038,1169.84 772.091,1163.88 774.144,1227.09 776.197,1122.04 778.249,1071.91 780.302,1148.22 782.355,1175.5 784.408,1171.31 786.461,1277.56 788.514,1151.85 790.567,1164.55 792.62,1187.03 794.673,1132.79 796.725,1189.83 798.778,1194.42 800.831,1147.76 802.884,1179.36 804.937,1141.45 806.99,1145.85 809.043,1199.26 811.096,1189.04 813.149,1763.82 815.202,1241.36 817.254,1192.63 819.307,931.751 821.36,1247.18 823.413,1327.68 825.466,760.493 827.519,1090.8 829.572,1266.34 831.625,948.787 833.678,904.207 835.73,1119.51 837.783,1027.3 839.836,1108.87 841.889,1173.16 843.942,1192.53 845.995,1140.04 848.048,1176.68 850.101,1199.07 852.154,1132.76 854.206,1142.31 856.259,1106.53 858.312,1243.71 860.365,1125.03 862.418,1107.28 864.471,1180.76 866.524,1195.11 868.577,1191.15 870.63,1208.71 872.682,1217.45 874.735,1190.42 876.788,1089.96 878.841,1138.55 880.894,1224.47 882.947,1193.35 885,1183.45 887.053,1153.02 889.106,1122.18 891.159,1207.74 893.211,1241.96 895.264,1167.41 897.317,1202.19 899.37,1189 901.423,1106.9 903.476,1243.31 905.529,1192.56 907.582,1156.06 909.635,1173.88 911.687,1160.13 913.74,1177.57 915.793,1030.43 917.846,1397.91 919.899,1142.18 921.952,1178.12 924.005,1162.55 926.058,1156.47 928.111,1163.79 930.163,1137.03 932.216,1195.24 934.269,1190.66 936.322,1176.91 938.375,1146.15 940.428,1158.84 942.481,1170.34 944.534,1169.2 946.587,1167.17 948.639,1185.44 950.692,1183.13 952.745,1166.43 954.798,1181.18 956.851,1290.02 958.904,1063.69 960.957,1428.82 963.01,1366.01 965.063,1014.01 967.116,1149.15 969.168,1251.3 971.221,1127.95 973.274,1199.61 975.327,1158.78 977.38,1203.8 979.433,1181.49 981.486,1121.2 983.539,1209.56 985.592,1156.52 987.644,1093.72 989.697,1188.12 991.75,790.377 993.803,1241.86 995.856,1116.18 997.909,1127.4 999.962,1190.91 1002.01,1154.79 1004.07,1169.42 1006.12,1212.11 1008.17,1138.58 1010.23,1140.9 1012.28,1187.44 1014.33,1192.26 1016.38,1169.27 1018.44,1172.66 1020.49,1157.49 1022.54,1199.62 1024.6,1134.58 1026.65,1186.76 1028.7,1142.85 1030.76,1184.27 1032.81,1181.13 1034.86,1142.57 1036.91,1165.93 1038.97,1165.74 1041.02,1196.43 1043.07,1028.13 1045.13,971.918 1047.18,1242.78 1049.23,1106.04 1051.28,1245.61 1053.34,1199.04 1055.39,1239.18 1057.44,1238.79 1059.5,1190.55 1061.55,1141.91 1063.6,1151.95 1065.65,1121.04 1067.71,1094.74 1069.76,1180.9 1071.81,1121.59 1073.87,1114.62 1075.92,1079.74 1077.97,1114.48 1080.02,1104.33 1082.08,1165.37 1084.13,1160.49 1086.18,1186.49 1088.24,1157.46 1090.29,1153.29 1092.34,1118.56 1094.39,1317.59 1096.45,1230.47 1098.5,767.535 1100.55,904.714 1102.61,859.079 1104.66,2107.2 1106.71,796.726 1108.77,1456.31 1110.82,920.328 1112.87,1197.06 1114.92,1216.42 1116.98,1172.54 1119.03,1187.93 1121.08,1139.1 1123.14,1166.23 1125.19,963.923 1127.24,1096.82 1129.29,1159.17 1131.35,1167.03 1133.4,1174.49 1135.45,1514.27 1137.51,1313.94 1139.56,1016.7 1141.61,1157.81 1143.66,1143.84 1145.72,1152.26 1147.77,1199.29 1149.82,1170.69 1151.88,1144.8 1153.93,1281.84 1155.98,1241.18 1158.03,1306.24 1160.09,1160.88 1162.14,1162.94 1164.19,1119.18 1166.25,1132.5 1168.3,1156.21 1170.35,1137.09 1172.4,1089.31 1174.46,1489.72 1176.51,1104.52 1178.56,1165.91 1180.62,1166.5 1182.67,1195.51 1184.72,1141.32 1186.77,1170.99 1188.83,1169.89 1190.88,1151.87 1192.93,1152.32 1194.99,1097.21 1197.04,1282.27 1199.09,1244.58 1201.15,1052.3 1203.2,1172.44 1205.25,1155.25 1207.3,1180.96 1209.36,1196.84 1211.41,1197.88 1213.46,1153.62 1215.52,1151.95 1217.57,1202.37 1219.62,1090.93 1221.67,1282 1223.73,1184.33 1225.78,1197.38 1227.83,1191.98 1229.89,1161.04 1231.94,1172.61 1233.99,1157.59 1236.04,1159.55 1238.1,1119.96 1240.15,1262.67 1242.2,1114.55 1244.26,1157.21 1246.31,1135.22 1248.36,1138.55 1250.41,1196.92 1252.47,1058.96 1254.52,1155.46 1256.57,1144.24 1258.63,1184.31 1260.68,1146.2 1262.73,1147.14 1264.78,1195.57 1266.84,1180.34 1268.89,1191.54 1270.94,1135.22 1273,1175.2 1275.05,1036.94 1277.1,1103.57 1279.16,1191 1281.21,1080.48 1283.26,1299.19 1285.31,874.129 1287.37,1123.91 1289.42,1176.21 1291.47,1087.17 1293.53,1218.38 1295.58,1188.12 1297.63,1113.41 1299.68,1136.69 1301.74,1197.54 1303.79,1152.34 1305.84,1118.23 1307.9,1014.78 1309.95,1609.68 1312,1049 1314.05,1161.48 1316.11,1140.12 1318.16,1075.49 1320.21,1238.65 1322.27,1194.17 1324.32,1240.28 1326.37,1175.03 1328.42,1199.72 1330.48,1157.95 1332.53,1157.03 1334.58,1131.95 1336.64,1163.31 1338.69,1169.85 1340.74,1172.98 1342.79,1171.32 1344.85,1130.77 1346.9,1154.14 1348.95,1140.17 1351.01,1191.3 1353.06,1189.66 1355.11,1055.03 1357.16,1662.06 1359.22,2025.22 1361.27,1571.77 1363.32,1185.23 1365.38,1102.07 1367.43,1388.14 1369.48,1322.62 1371.54,1192.29 1373.59,1168.59 1375.64,1162.76 1377.69,1229.43 1379.75,1412.95 1381.8,1004.98 1383.85,775.224 1385.91,590.822 1387.96,-1471.18 1390.01,-174.171 1392.06,1317.14 1394.12,851.892 1396.17,1310.97 1398.22,1260.07 1400.28,1247.91 1402.33,911.163 1404.38,1288.02 1406.43,1273.06 1408.49,1144.34 1410.54,1209.51 1412.59,1189.03 1414.65,1152.97 1416.7,1182.02 1418.75,1150.31 1420.8,1202.39 1422.86,775.106 1424.91,701.305 1426.96,730.782 1429.02,1158.72 1431.07,1166.72 1433.12,1167.89 1435.17,1160.2 1437.23,1159.78 1439.28,1143.47 1441.33,1210.35 1443.39,1179.89 1445.44,1180.51 1447.49,1160.72 1449.55,1164.93 1451.6,1193.83 1453.65,1155.91 1455.7,1124.14 1457.76,1254.35 1459.81,1039.05 1461.86,1276.1 1463.92,1404.86 1465.97,1452.97 1468.02,1054 1470.07,1155.68 1472.13,1155.59 1474.18,1153.1 1476.23,1170.76 1478.29,1181.89 1480.34,1162.98 1482.39,1167.75 1484.44,1167.43 1486.5,1188.14 1488.55,1180.88 1490.6,1148.49 1492.66,1177.73 1494.71,1150.46 1496.76,1150.25 1498.81,1164.84 1500.87,1149.29 1502.92,1112.17 1504.97,1776.23 1507.03,-519.88 1509.08,-2702.33 1511.13,350.285 1513.18,-2284.72 1515.24,1098.73 1517.29,-1634.34 1519.34,-1646.63 1521.4,44293.5 1523.45,203709 1525.5,32076.4 1527.55,-21458.1 1529.61,11995.9 1531.66,25895.2 1533.71,-6629.7 1535.77,2363.41 1537.82,1023.69 1539.87,1396.65 1541.93,1277.39 1543.98,828.039 1546.03,-0.681497 1548.08,815.171 1550.14,1345.81 1552.19,1110.1 1554.24,1231.65 1556.3,1272.4 1558.35,1172.24 1560.4,1073.84 1562.45,1198.64 1564.51,1158.21 1566.56,1145.24 1568.61,1113.44 1570.67,1395.22 1572.72,879.323 1574.77,1148.44 1576.82,1410.94 1578.88,1540.33 1580.93,897.163 1582.98,774.399 1585.04,1514.67 1587.09,1554.56 1589.14,3412.85 1591.19,-9558.63 1593.25,-3780.53 1595.3,2477.32 1597.35,1627.45 1599.41,1034.82 1601.46,1355.76 1603.51,1253.81 1605.56,1037.39 1607.62,1391.6 1609.67,2543.76 1611.72,1046.56 1613.78,1066.72 1615.83,1126.84 1617.88,1131.9 1619.94,1144.88 1621.99,1126.09 1624.04,1182.19 1626.09,1150.15 1628.15,1179.13 1630.2,1208.13 1632.25,1176.61 1634.31,1157.49 1636.36,1152.09 1638.41,1097 1640.46,1173.15 1642.52,1172.31 1644.57,1208.57 1646.62,1174.38 1648.68,1142.57 1650.73,1136.76 1652.78,1154.11 1654.83,1164.82 1656.89,1185.88 1658.94,1059.34 1660.99,1118.65 1663.05,1156.91 1665.1,1158.29 1667.15,1188.42 1669.2,1108.71 1671.26,1322.64 1673.31,1173.28 1675.36,1208.83 1677.42,1181.15 1679.47,1163.69 1681.52,1151.59 1683.57,1201.16 1685.63,1128.34 1687.68,1171.78 1689.73,1224.49 1691.79,1186.45 1693.84,1238.15 1695.89,1148.78 1697.94,1265 1700,1277.79 1702.05,1234.1 1704.1,1143.83 1706.16,1172.51 1708.21,1187.4 1710.26,1133.85 1712.32,1161.72 1714.37,1169.43 1716.42,1148.34 1718.47,1131.34 1720.53,1187.11 1722.58,1180.89 1724.63,1158.96 1726.69,1181.78 1728.74,1255.3 1730.79,1316.5 1732.84,1199.01 1734.9,1159.06 1736.95,1231.48 1739,1092.61 1741.06,1164.68 1743.11,1283.34 1745.16,1376.99 1747.21,3248.61 1749.27,263.049 1751.32,1401.81 1753.37,1242.71 1755.43,-266.518 1757.48,1074.15 1759.53,1126.52 1761.58,1135.13 1763.64,1093.78 1765.69,1421.63 1767.74,1023.22 1769.8,974.001 1771.85,1193.42 1773.9,1136.84 1775.95,1135.06 1778.01,1158.1 1780.06,1142.29 1782.11,1202.14 1784.17,1233.55 1786.22,1019.92 1788.27,1210.19 1790.33,1111.49 1792.38,1232.11 1794.43,1249.6 1796.48,1198.39 1798.54,1096.69 1800.59,1099.11 1802.64,1190.93 1804.7,1161.38 1806.75,1161.2 1808.8,1145.53 1810.85,1185.92 1812.91,1129.48 1814.96,1116.46 1817.01,1178.92 1819.07,1196.97 1821.12,1157.53 1823.17,1160.73 1825.22,1178.14 1827.28,1289.64 1829.33,1244.87 1831.38,1365.53 1833.44,1223.42 1835.49,1205.43 1837.54,1117.97 1839.59,753.556 1841.65,1551.71 1843.7,1333.7 1845.75,1078.77 1847.81,1033.73 1849.86,1193.59 1851.91,1144.24 1853.96,1174.03 1856.02,1173.67 1858.07,1239.32 1860.12,1026.96 1862.18,1133.34 1864.23,1216.57 1866.28,1284.98 1868.34,1391.27 1870.39,1046.27 1872.44,1034.99 1874.49,1195.61 1876.55,1279.13 1878.6,3595.96 1880.65,1781.13 1882.71,1385.1 1884.76,967.881 1886.81,1129.87 1888.86,1184.93 1890.92,1115.31 1892.97,1575.01 1895.02,1374.39 1897.08,1156.51 1899.13,1155.59 1901.18,1186.47 1903.23,1208.68 1905.29,1151.53 1907.34,1162.48 1909.39,1170.65 1911.45,1133.63 1913.5,1099.47 1915.55,1123.1 1917.6,1088.97 1919.66,1079.54 1921.71,1230.6 1923.76,1042.15 1925.82,1278.06 1927.87,1153.32 1929.92,1159.2 1931.97,1209.72 1934.03,1145.24 1936.08,1202.54 1938.13,952.241 1940.19,1111.79 1942.24,1188.55 1944.29,1128.3 1946.34,1160.63 1948.4,1159.3 1950.45,1172.26 1952.5,1137.8 1954.56,1146.04 1956.61,1117.22 1958.66,1109.2 1960.72,1102.7 1962.77,1157.62 1964.82,1154.72 1966.87,1160.5 1968.93,1178.19 1970.98,1151.93 1973.03,1162.83 1975.09,1217.78 1977.14,1125.5 1979.19,1157.28 1981.24,658.177 1983.3,1137.02 1985.35,1597.44 1987.4,1814.88 1989.46,1152.07 1991.51,1194.1 1993.56,1265.86 1995.61,991.415 1997.67,1455.48 1999.72,939.204 2001.77,1151.45 2003.83,1197.73 2005.88,1242.41 2007.93,1123.12 2009.98,1124.53 2012.04,1180.15 2014.09,1099.43 2016.14,1147.67 2018.2,1286.56 2020.25,1277.89 2022.3,1194.93 2024.35,1157.33 2026.41,1170.58 2028.46,1162.86 2030.51,1158.76 2032.57,1152.33 2034.62,1162.19 2036.67,1399.91 2038.73,1254.65 2040.78,1170.26 2042.83,1248.47 2044.88,1051.75 2046.94,1190.91 2048.99,1199.72 2051.04,1200.38 2053.1,1191.09 2055.15,1142.67 2057.2,1071.49 2059.25,1084.27 2061.31,1175.61 2063.36,1101.39 2065.41,1168.26 2067.47,1165.84 2069.52,1204.1 2071.57,1081.98 2073.62,1065.39 2075.68,1234.37 2077.73,1186.85 2079.78,1169.76 2081.84,1177.67 2083.89,1172.39 2085.94,1199.11 2087.99,1160.07 2090.05,1161.23 2092.1,1154.02 2094.15,1127.37 2096.21,1178.06 2098.26,1155.14 2100.31,1174.77 2102.36,1140.14 2104.42,1142.09 2106.47,1218.42 2108.52,1142.58 2110.58,1092.96 2112.63,1227.58 2114.68,1211.81 2116.73,1174.82 2118.79,1167.02 2120.84,1190.23 2122.89,1152.25 2124.95,1150.17 2127,1219.1 2129.05,1198.04 2131.11,1144.43 2133.16,1183.06 2135.21,1133.9 2137.26,1159.02 2139.32,1195.58 2141.37,1205.44 2143.42,1093.42 2145.48,1244.56 2147.53,1106.7 2149.58,1190.63 2151.63,1195.64 2153.69,1201.27 2155.74,1252.77 2157.79,1186.96 2159.85,1165.54 2161.9,1105.97 2163.95,1173.53 2166,1164.18 2168.06,1179.95 2170.11,1169.88 2172.16,1182.84 2174.22,1155.46 2176.27,1159.46 2178.32,1110.81 2180.37,1145.66 2182.43,1153.34 2184.48,1289.93 2186.53,1199.72 2188.59,1139.57 2190.64,1158.15 2192.69,883.365 2194.74,1854.54 2196.8,1504.54 2198.85,1193.94 2200.9,1218.41 2202.96,1157.87 2205.01,1208.44 2207.06,1222.82 2209.12,1096.29 2211.17,1149.64 2213.22,1133.16 2215.27,1147.35 2217.33,1154.41 2219.38,1168.99 2221.43,1171.9 2223.49,1169.56 2225.54,1192.95 2227.59,1177.98 2229.64,1131.85 2231.7,1197.78 2233.75,1189.33 2235.8,1055.63 2237.86,970.096 2239.91,1219.25 2241.96,965.093 2244.01,1194.11 2246.07,1207.52 2248.12,1144.19 2250.17,1146.15 2252.23,1155.45 2254.28,1155.1 2256.33,1184.09 2258.38,1144.51 2260.44,1164.8 2262.49,1162.08 2264.54,1171.06 2266.6,1168.86 2268.65,1165.56 2270.7,1136.15 2272.75,1178.08 2274.81,1196.6 2276.86,1183.53 2278.91,1139.84 2280.97,1112.32 2283.02,1003.87 2285.07,1229.84 2287.12,1167.83 2289.18,1237.4 2291.23,1152.64 "/>
<path clip-path="url(#clip090)" d="M251.33 1465.14 L588.926 1465.14 L588.926 1361.46 L251.33 1361.46  Z" fill="#ffffff" fill-rule="evenodd" fill-opacity="1"/>
<polyline clip-path="url(#clip090)" style="stroke:#000000; stroke-linecap:round; stroke-linejoin:round; stroke-width:4; stroke-opacity:1; fill:none" points="251.33,1465.14 588.926,1465.14 588.926,1361.46 251.33,1361.46 251.33,1465.14 "/>
<polyline clip-path="url(#clip090)" style="stroke:#009af9; stroke-linecap:round; stroke-linejoin:round; stroke-width:4; stroke-opacity:1; fill:none" points="275.484,1413.3 420.41,1413.3 "/>
<path clip-path="url(#clip090)" d="M470.12 1425.65 L470.12 1416.37 L462.481 1416.37 L462.481 1412.53 L474.749 1412.53 L474.749 1427.36 Q472.041 1429.28 468.777 1430.28 Q465.513 1431.25 461.809 1431.25 Q453.708 1431.25 449.124 1426.53 Q444.564 1421.78 444.564 1413.34 Q444.564 1404.86 449.124 1400.14 Q453.708 1395.4 461.809 1395.4 Q465.189 1395.4 468.221 1396.23 Q471.277 1397.06 473.846 1398.68 L473.846 1403.66 Q471.254 1401.46 468.337 1400.35 Q465.421 1399.24 462.203 1399.24 Q455.86 1399.24 452.666 1402.78 Q449.495 1406.32 449.495 1413.34 Q449.495 1420.33 452.666 1423.87 Q455.86 1427.41 462.203 1427.41 Q464.68 1427.41 466.624 1426.99 Q468.569 1426.55 470.12 1425.65 Z" fill="#000000" fill-rule="nonzero" fill-opacity="1" /><path clip-path="url(#clip090)" d="M487.967 1399.86 L487.967 1412.85 L493.846 1412.85 Q497.11 1412.85 498.893 1411.16 Q500.675 1409.47 500.675 1406.35 Q500.675 1403.24 498.893 1401.55 Q497.11 1399.86 493.846 1399.86 L487.967 1399.86 M483.291 1396.02 L493.846 1396.02 Q499.657 1396.02 502.619 1398.66 Q505.606 1401.28 505.606 1406.35 Q505.606 1411.46 502.619 1414.08 Q499.657 1416.69 493.846 1416.69 L487.967 1416.69 L487.967 1430.58 L483.291 1430.58 L483.291 1396.02 Z" fill="#000000" fill-rule="nonzero" fill-opacity="1" /><path clip-path="url(#clip090)" d="M532.596 1397.16 L532.596 1401.72 Q529.934 1400.44 527.573 1399.82 Q525.212 1399.19 523.013 1399.19 Q519.193 1399.19 517.11 1400.67 Q515.05 1402.16 515.05 1404.89 Q515.05 1407.18 516.416 1408.36 Q517.805 1409.52 521.647 1410.23 L524.471 1410.81 Q529.703 1411.81 532.179 1414.33 Q534.679 1416.83 534.679 1421.04 Q534.679 1426.07 531.3 1428.66 Q527.943 1431.25 521.439 1431.25 Q518.985 1431.25 516.207 1430.7 Q513.453 1430.14 510.49 1429.05 L510.49 1424.24 Q513.337 1425.84 516.068 1426.65 Q518.8 1427.46 521.439 1427.46 Q525.443 1427.46 527.619 1425.88 Q529.795 1424.31 529.795 1421.39 Q529.795 1418.85 528.221 1417.41 Q526.67 1415.97 523.105 1415.26 L520.258 1414.7 Q515.027 1413.66 512.689 1411.44 Q510.351 1409.22 510.351 1405.26 Q510.351 1400.67 513.568 1398.03 Q516.809 1395.4 522.48 1395.4 Q524.911 1395.4 527.434 1395.84 Q529.957 1396.28 532.596 1397.16 Z" fill="#000000" fill-rule="nonzero" fill-opacity="1" /><path clip-path="url(#clip090)" d="M562.689 1397.16 L562.689 1401.72 Q560.027 1400.44 557.665 1399.82 Q555.304 1399.19 553.105 1399.19 Q549.286 1399.19 547.203 1400.67 Q545.142 1402.16 545.142 1404.89 Q545.142 1407.18 546.508 1408.36 Q547.897 1409.52 551.74 1410.23 L554.564 1410.81 Q559.795 1411.81 562.272 1414.33 Q564.772 1416.83 564.772 1421.04 Q564.772 1426.07 561.392 1428.66 Q558.036 1431.25 551.531 1431.25 Q549.078 1431.25 546.3 1430.7 Q543.545 1430.14 540.582 1429.05 L540.582 1424.24 Q543.429 1425.84 546.161 1426.65 Q548.892 1427.46 551.531 1427.46 Q555.536 1427.46 557.712 1425.88 Q559.888 1424.31 559.888 1421.39 Q559.888 1418.85 558.314 1417.41 Q556.763 1415.97 553.198 1415.26 L550.351 1414.7 Q545.119 1413.66 542.781 1411.44 Q540.443 1409.22 540.443 1405.26 Q540.443 1400.67 543.661 1398.03 Q546.902 1395.4 552.573 1395.4 Q555.003 1395.4 557.527 1395.84 Q560.05 1396.28 562.689 1397.16 Z" fill="#000000" fill-rule="nonzero" fill-opacity="1" /></svg>
