<?xml version="1.0" encoding="utf-8"?>
<svg xmlns="http://www.w3.org/2000/svg" xmlns:xlink="http://www.w3.org/1999/xlink" width="600" height="400" viewBox="0 0 2400 1600">
<defs>
  <clipPath id="clip590">
    <rect x="0" y="0" width="2400" height="1600"/>
  </clipPath>
</defs>
<path clip-path="url(#clip590)" d="M0 1600 L2400 1600 L2400 0 L0 0  Z" fill="#ffffff" fill-rule="evenodd" fill-opacity="1"/>
<defs>
  <clipPath id="clip591">
    <rect x="480" y="0" width="1681" height="1600"/>
  </clipPath>
</defs>
<path clip-path="url(#clip590)" d="M178.867 686.448 L2352.76 686.448 L2352.76 47.2441 L178.867 47.2441  Z" fill="#ffffff" fill-rule="evenodd" fill-opacity="1"/>
<defs>
  <clipPath id="clip592">
    <rect x="178" y="47" width="2175" height="640"/>
  </clipPath>
</defs>
<polyline clip-path="url(#clip592)" style="stroke:#000000; stroke-linecap:round; stroke-linejoin:round; stroke-width:2; stroke-opacity:0.1; fill:none" points="238.339,686.448 238.339,47.2441 "/>
<polyline clip-path="url(#clip592)" style="stroke:#000000; stroke-linecap:round; stroke-linejoin:round; stroke-width:2; stroke-opacity:0.1; fill:none" points="751.562,686.448 751.562,47.2441 "/>
<polyline clip-path="url(#clip592)" style="stroke:#000000; stroke-linecap:round; stroke-linejoin:round; stroke-width:2; stroke-opacity:0.1; fill:none" points="1264.78,686.448 1264.78,47.2441 "/>
<polyline clip-path="url(#clip592)" style="stroke:#000000; stroke-linecap:round; stroke-linejoin:round; stroke-width:2; stroke-opacity:0.1; fill:none" points="1778.01,686.448 1778.01,47.2441 "/>
<polyline clip-path="url(#clip592)" style="stroke:#000000; stroke-linecap:round; stroke-linejoin:round; stroke-width:2; stroke-opacity:0.1; fill:none" points="2291.23,686.448 2291.23,47.2441 "/>
<polyline clip-path="url(#clip592)" style="stroke:#000000; stroke-linecap:round; stroke-linejoin:round; stroke-width:2; stroke-opacity:0.1; fill:none" points="178.867,686.448 2352.76,686.448 "/>
<polyline clip-path="url(#clip592)" style="stroke:#000000; stroke-linecap:round; stroke-linejoin:round; stroke-width:2; stroke-opacity:0.1; fill:none" points="178.867,526.647 2352.76,526.647 "/>
<polyline clip-path="url(#clip592)" style="stroke:#000000; stroke-linecap:round; stroke-linejoin:round; stroke-width:2; stroke-opacity:0.1; fill:none" points="178.867,366.846 2352.76,366.846 "/>
<polyline clip-path="url(#clip592)" style="stroke:#000000; stroke-linecap:round; stroke-linejoin:round; stroke-width:2; stroke-opacity:0.1; fill:none" points="178.867,207.045 2352.76,207.045 "/>
<polyline clip-path="url(#clip592)" style="stroke:#000000; stroke-linecap:round; stroke-linejoin:round; stroke-width:2; stroke-opacity:0.1; fill:none" points="178.867,47.2441 2352.76,47.2441 "/>
<polyline clip-path="url(#clip590)" style="stroke:#000000; stroke-linecap:round; stroke-linejoin:round; stroke-width:4; stroke-opacity:1; fill:none" points="178.867,686.448 2352.76,686.448 "/>
<polyline clip-path="url(#clip590)" style="stroke:#000000; stroke-linecap:round; stroke-linejoin:round; stroke-width:4; stroke-opacity:1; fill:none" points="238.339,686.448 238.339,667.55 "/>
<polyline clip-path="url(#clip590)" style="stroke:#000000; stroke-linecap:round; stroke-linejoin:round; stroke-width:4; stroke-opacity:1; fill:none" points="751.562,686.448 751.562,667.55 "/>
<polyline clip-path="url(#clip590)" style="stroke:#000000; stroke-linecap:round; stroke-linejoin:round; stroke-width:4; stroke-opacity:1; fill:none" points="1264.78,686.448 1264.78,667.55 "/>
<polyline clip-path="url(#clip590)" style="stroke:#000000; stroke-linecap:round; stroke-linejoin:round; stroke-width:4; stroke-opacity:1; fill:none" points="1778.01,686.448 1778.01,667.55 "/>
<polyline clip-path="url(#clip590)" style="stroke:#000000; stroke-linecap:round; stroke-linejoin:round; stroke-width:4; stroke-opacity:1; fill:none" points="2291.23,686.448 2291.23,667.55 "/>
<path clip-path="url(#clip590)" d="M238.339 717.367 Q234.728 717.367 232.899 720.931 Q231.094 724.473 231.094 731.603 Q231.094 738.709 232.899 742.274 Q234.728 745.815 238.339 745.815 Q241.973 745.815 243.779 742.274 Q245.607 738.709 245.607 731.603 Q245.607 724.473 243.779 720.931 Q241.973 717.367 238.339 717.367 M238.339 713.663 Q244.149 713.663 247.205 718.269 Q250.283 722.853 250.283 731.603 Q250.283 740.329 247.205 744.936 Q244.149 749.519 238.339 749.519 Q232.529 749.519 229.45 744.936 Q226.395 740.329 226.395 731.603 Q226.395 722.853 229.45 718.269 Q232.529 713.663 238.339 713.663 Z" fill="#000000" fill-rule="nonzero" fill-opacity="1" /><path clip-path="url(#clip590)" d="M715.254 744.913 L731.574 744.913 L731.574 748.848 L709.629 748.848 L709.629 744.913 Q712.291 742.158 716.875 737.528 Q721.481 732.876 722.662 731.533 Q724.907 729.01 725.787 727.274 Q726.689 725.515 726.689 723.825 Q726.689 721.07 724.745 719.334 Q722.824 717.598 719.722 717.598 Q717.523 717.598 715.069 718.362 Q712.638 719.126 709.861 720.677 L709.861 715.955 Q712.685 714.82 715.138 714.242 Q717.592 713.663 719.629 713.663 Q725 713.663 728.194 716.348 Q731.388 719.033 731.388 723.524 Q731.388 725.654 730.578 727.575 Q729.791 729.473 727.685 732.066 Q727.106 732.737 724.004 735.954 Q720.902 739.149 715.254 744.913 Z" fill="#000000" fill-rule="nonzero" fill-opacity="1" /><path clip-path="url(#clip590)" d="M741.435 714.288 L759.791 714.288 L759.791 718.223 L745.717 718.223 L745.717 726.695 Q746.736 726.348 747.754 726.186 Q748.773 726.001 749.791 726.001 Q755.578 726.001 758.958 729.172 Q762.337 732.343 762.337 737.76 Q762.337 743.339 758.865 746.44 Q755.393 749.519 749.073 749.519 Q746.898 749.519 744.629 749.149 Q742.384 748.778 739.976 748.038 L739.976 743.339 Q742.06 744.473 744.282 745.028 Q746.504 745.584 748.981 745.584 Q752.985 745.584 755.323 743.478 Q757.661 741.371 757.661 737.76 Q757.661 734.149 755.323 732.042 Q752.985 729.936 748.981 729.936 Q747.106 729.936 745.231 730.353 Q743.379 730.769 741.435 731.649 L741.435 714.288 Z" fill="#000000" fill-rule="nonzero" fill-opacity="1" /><path clip-path="url(#clip590)" d="M781.55 717.367 Q777.939 717.367 776.11 720.931 Q774.305 724.473 774.305 731.603 Q774.305 738.709 776.11 742.274 Q777.939 745.815 781.55 745.815 Q785.184 745.815 786.99 742.274 Q788.819 738.709 788.819 731.603 Q788.819 724.473 786.99 720.931 Q785.184 717.367 781.55 717.367 M781.55 713.663 Q787.36 713.663 790.416 718.269 Q793.495 722.853 793.495 731.603 Q793.495 740.329 790.416 744.936 Q787.36 749.519 781.55 749.519 Q775.74 749.519 772.661 744.936 Q769.606 740.329 769.606 731.603 Q769.606 722.853 772.661 718.269 Q775.74 713.663 781.55 713.663 Z" fill="#000000" fill-rule="nonzero" fill-opacity="1" /><path clip-path="url(#clip590)" d="M1224.4 714.288 L1242.76 714.288 L1242.76 718.223 L1228.69 718.223 L1228.69 726.695 Q1229.7 726.348 1230.72 726.186 Q1231.74 726.001 1232.76 726.001 Q1238.55 726.001 1241.93 729.172 Q1245.31 732.343 1245.31 737.76 Q1245.31 743.339 1241.83 746.44 Q1238.36 749.519 1232.04 749.519 Q1229.87 749.519 1227.6 749.149 Q1225.35 748.778 1222.94 748.038 L1222.94 743.339 Q1225.03 744.473 1227.25 745.028 Q1229.47 745.584 1231.95 745.584 Q1235.95 745.584 1238.29 743.478 Q1240.63 741.371 1240.63 737.76 Q1240.63 734.149 1238.29 732.042 Q1235.95 729.936 1231.95 729.936 Q1230.07 729.936 1228.2 730.353 Q1226.35 730.769 1224.4 731.649 L1224.4 714.288 Z" fill="#000000" fill-rule="nonzero" fill-opacity="1" /><path clip-path="url(#clip590)" d="M1264.52 717.367 Q1260.91 717.367 1259.08 720.931 Q1257.27 724.473 1257.27 731.603 Q1257.27 738.709 1259.08 742.274 Q1260.91 745.815 1264.52 745.815 Q1268.15 745.815 1269.96 742.274 Q1271.79 738.709 1271.79 731.603 Q1271.79 724.473 1269.96 720.931 Q1268.15 717.367 1264.52 717.367 M1264.52 713.663 Q1270.33 713.663 1273.38 718.269 Q1276.46 722.853 1276.46 731.603 Q1276.46 740.329 1273.38 744.936 Q1270.33 749.519 1264.52 749.519 Q1258.71 749.519 1255.63 744.936 Q1252.57 740.329 1252.57 731.603 Q1252.57 722.853 1255.63 718.269 Q1258.71 713.663 1264.52 713.663 Z" fill="#000000" fill-rule="nonzero" fill-opacity="1" /><path clip-path="url(#clip590)" d="M1294.68 717.367 Q1291.07 717.367 1289.24 720.931 Q1287.44 724.473 1287.44 731.603 Q1287.44 738.709 1289.24 742.274 Q1291.07 745.815 1294.68 745.815 Q1298.31 745.815 1300.12 742.274 Q1301.95 738.709 1301.95 731.603 Q1301.95 724.473 1300.12 720.931 Q1298.31 717.367 1294.68 717.367 M1294.68 713.663 Q1300.49 713.663 1303.55 718.269 Q1306.62 722.853 1306.62 731.603 Q1306.62 740.329 1303.55 744.936 Q1300.49 749.519 1294.68 749.519 Q1288.87 749.519 1285.79 744.936 Q1282.74 740.329 1282.74 731.603 Q1282.74 722.853 1285.79 718.269 Q1288.87 713.663 1294.68 713.663 Z" fill="#000000" fill-rule="nonzero" fill-opacity="1" /><path clip-path="url(#clip590)" d="M1736.28 714.288 L1758.51 714.288 L1758.51 716.279 L1745.96 748.848 L1741.08 748.848 L1752.88 718.223 L1736.28 718.223 L1736.28 714.288 Z" fill="#000000" fill-rule="nonzero" fill-opacity="1" /><path clip-path="url(#clip590)" d="M1767.67 714.288 L1786.03 714.288 L1786.03 718.223 L1771.95 718.223 L1771.95 726.695 Q1772.97 726.348 1773.99 726.186 Q1775.01 726.001 1776.03 726.001 Q1781.82 726.001 1785.2 729.172 Q1788.57 732.343 1788.57 737.76 Q1788.57 743.339 1785.1 746.44 Q1781.63 749.519 1775.31 749.519 Q1773.14 749.519 1770.87 749.149 Q1768.62 748.778 1766.21 748.038 L1766.21 743.339 Q1768.3 744.473 1770.52 745.028 Q1772.74 745.584 1775.22 745.584 Q1779.22 745.584 1781.56 743.478 Q1783.9 741.371 1783.9 737.76 Q1783.9 734.149 1781.56 732.042 Q1779.22 729.936 1775.22 729.936 Q1773.34 729.936 1771.47 730.353 Q1769.62 730.769 1767.67 731.649 L1767.67 714.288 Z" fill="#000000" fill-rule="nonzero" fill-opacity="1" /><path clip-path="url(#clip590)" d="M1807.79 717.367 Q1804.18 717.367 1802.35 720.931 Q1800.54 724.473 1800.54 731.603 Q1800.54 738.709 1802.35 742.274 Q1804.18 745.815 1807.79 745.815 Q1811.42 745.815 1813.23 742.274 Q1815.06 738.709 1815.06 731.603 Q1815.06 724.473 1813.23 720.931 Q1811.42 717.367 1807.79 717.367 M1807.79 713.663 Q1813.6 713.663 1816.65 718.269 Q1819.73 722.853 1819.73 731.603 Q1819.73 740.329 1816.65 744.936 Q1813.6 749.519 1807.79 749.519 Q1801.98 749.519 1798.9 744.936 Q1795.84 740.329 1795.84 731.603 Q1795.84 722.853 1798.9 718.269 Q1801.98 713.663 1807.79 713.663 Z" fill="#000000" fill-rule="nonzero" fill-opacity="1" /><path clip-path="url(#clip590)" d="M2235.76 744.913 L2243.4 744.913 L2243.4 718.547 L2235.09 720.214 L2235.09 715.955 L2243.35 714.288 L2248.02 714.288 L2248.02 744.913 L2255.66 744.913 L2255.66 748.848 L2235.76 748.848 L2235.76 744.913 Z" fill="#000000" fill-rule="nonzero" fill-opacity="1" /><path clip-path="url(#clip590)" d="M2275.11 717.367 Q2271.5 717.367 2269.67 720.931 Q2267.86 724.473 2267.86 731.603 Q2267.86 738.709 2269.67 742.274 Q2271.5 745.815 2275.11 745.815 Q2278.74 745.815 2280.55 742.274 Q2282.38 738.709 2282.38 731.603 Q2282.38 724.473 2280.55 720.931 Q2278.74 717.367 2275.11 717.367 M2275.11 713.663 Q2280.92 713.663 2283.97 718.269 Q2287.05 722.853 2287.05 731.603 Q2287.05 740.329 2283.97 744.936 Q2280.92 749.519 2275.11 749.519 Q2269.3 749.519 2266.22 744.936 Q2263.16 740.329 2263.16 731.603 Q2263.16 722.853 2266.22 718.269 Q2269.3 713.663 2275.11 713.663 Z" fill="#000000" fill-rule="nonzero" fill-opacity="1" /><path clip-path="url(#clip590)" d="M2305.27 717.367 Q2301.66 717.367 2299.83 720.931 Q2298.02 724.473 2298.02 731.603 Q2298.02 738.709 2299.83 742.274 Q2301.66 745.815 2305.27 745.815 Q2308.9 745.815 2310.71 742.274 Q2312.54 738.709 2312.54 731.603 Q2312.54 724.473 2310.71 720.931 Q2308.9 717.367 2305.27 717.367 M2305.27 713.663 Q2311.08 713.663 2314.14 718.269 Q2317.21 722.853 2317.21 731.603 Q2317.21 740.329 2314.14 744.936 Q2311.08 749.519 2305.27 749.519 Q2299.46 749.519 2296.38 744.936 Q2293.33 740.329 2293.33 731.603 Q2293.33 722.853 2296.38 718.269 Q2299.46 713.663 2305.27 713.663 Z" fill="#000000" fill-rule="nonzero" fill-opacity="1" /><path clip-path="url(#clip590)" d="M2335.43 717.367 Q2331.82 717.367 2329.99 720.931 Q2328.19 724.473 2328.19 731.603 Q2328.19 738.709 2329.99 742.274 Q2331.82 745.815 2335.43 745.815 Q2339.07 745.815 2340.87 742.274 Q2342.7 738.709 2342.7 731.603 Q2342.7 724.473 2340.87 720.931 Q2339.07 717.367 2335.43 717.367 M2335.43 713.663 Q2341.24 713.663 2344.3 718.269 Q2347.38 722.853 2347.38 731.603 Q2347.38 740.329 2344.3 744.936 Q2341.24 749.519 2335.43 749.519 Q2329.62 749.519 2326.54 744.936 Q2323.49 740.329 2323.49 731.603 Q2323.49 722.853 2326.54 718.269 Q2329.62 713.663 2335.43 713.663 Z" fill="#000000" fill-rule="nonzero" fill-opacity="1" /><polyline clip-path="url(#clip590)" style="stroke:#000000; stroke-linecap:round; stroke-linejoin:round; stroke-width:4; stroke-opacity:1; fill:none" points="178.867,686.448 178.867,47.2441 "/>
<polyline clip-path="url(#clip590)" style="stroke:#000000; stroke-linecap:round; stroke-linejoin:round; stroke-width:4; stroke-opacity:1; fill:none" points="178.867,686.448 197.764,686.448 "/>
<polyline clip-path="url(#clip590)" style="stroke:#000000; stroke-linecap:round; stroke-linejoin:round; stroke-width:4; stroke-opacity:1; fill:none" points="178.867,526.647 197.764,526.647 "/>
<polyline clip-path="url(#clip590)" style="stroke:#000000; stroke-linecap:round; stroke-linejoin:round; stroke-width:4; stroke-opacity:1; fill:none" points="178.867,366.846 197.764,366.846 "/>
<polyline clip-path="url(#clip590)" style="stroke:#000000; stroke-linecap:round; stroke-linejoin:round; stroke-width:4; stroke-opacity:1; fill:none" points="178.867,207.045 197.764,207.045 "/>
<polyline clip-path="url(#clip590)" style="stroke:#000000; stroke-linecap:round; stroke-linejoin:round; stroke-width:4; stroke-opacity:1; fill:none" points="178.867,47.2441 197.764,47.2441 "/>
<path clip-path="url(#clip590)" d="M50.9921 686.899 L80.6679 686.899 L80.6679 690.834 L50.9921 690.834 L50.9921 686.899 Z" fill="#000000" fill-rule="nonzero" fill-opacity="1" /><path clip-path="url(#clip590)" d="M91.5706 699.793 L99.2095 699.793 L99.2095 673.427 L90.8993 675.094 L90.8993 670.835 L99.1632 669.168 L103.839 669.168 L103.839 699.793 L111.478 699.793 L111.478 703.728 L91.5706 703.728 L91.5706 699.793 Z" fill="#000000" fill-rule="nonzero" fill-opacity="1" /><path clip-path="url(#clip590)" d="M130.922 672.247 Q127.311 672.247 125.482 675.811 Q123.677 679.353 123.677 686.483 Q123.677 693.589 125.482 697.154 Q127.311 700.695 130.922 700.695 Q134.556 700.695 136.362 697.154 Q138.191 693.589 138.191 686.483 Q138.191 679.353 136.362 675.811 Q134.556 672.247 130.922 672.247 M130.922 668.543 Q136.732 668.543 139.788 673.149 Q142.867 677.733 142.867 686.483 Q142.867 695.209 139.788 699.816 Q136.732 704.399 130.922 704.399 Q125.112 704.399 122.033 699.816 Q118.978 695.209 118.978 686.483 Q118.978 677.733 122.033 673.149 Q125.112 668.543 130.922 668.543 Z" fill="#000000" fill-rule="nonzero" fill-opacity="1" /><path clip-path="url(#clip590)" d="M82.1494 527.098 L111.825 527.098 L111.825 531.033 L82.1494 531.033 L82.1494 527.098 Z" fill="#000000" fill-rule="nonzero" fill-opacity="1" /><path clip-path="url(#clip590)" d="M121.964 509.367 L140.32 509.367 L140.32 513.302 L126.246 513.302 L126.246 521.774 Q127.265 521.427 128.283 521.265 Q129.302 521.08 130.32 521.08 Q136.107 521.08 139.487 524.251 Q142.867 527.422 142.867 532.839 Q142.867 538.418 139.394 541.52 Q135.922 544.598 129.603 544.598 Q127.427 544.598 125.158 544.228 Q122.913 543.857 120.506 543.117 L120.506 538.418 Q122.589 539.552 124.811 540.108 Q127.033 540.663 129.51 540.663 Q133.515 540.663 135.853 538.557 Q138.191 536.45 138.191 532.839 Q138.191 529.228 135.853 527.121 Q133.515 525.015 129.51 525.015 Q127.635 525.015 125.76 525.432 Q123.908 525.848 121.964 526.728 L121.964 509.367 Z" fill="#000000" fill-rule="nonzero" fill-opacity="1" /><path clip-path="url(#clip590)" d="M130.922 352.645 Q127.311 352.645 125.482 356.209 Q123.677 359.751 123.677 366.881 Q123.677 373.987 125.482 377.552 Q127.311 381.094 130.922 381.094 Q134.556 381.094 136.362 377.552 Q138.191 373.987 138.191 366.881 Q138.191 359.751 136.362 356.209 Q134.556 352.645 130.922 352.645 M130.922 348.941 Q136.732 348.941 139.788 353.547 Q142.867 358.131 142.867 366.881 Q142.867 375.608 139.788 380.214 Q136.732 384.797 130.922 384.797 Q125.112 384.797 122.033 380.214 Q118.978 375.608 118.978 366.881 Q118.978 358.131 122.033 353.547 Q125.112 348.941 130.922 348.941 Z" fill="#000000" fill-rule="nonzero" fill-opacity="1" /><path clip-path="url(#clip590)" d="M121.964 189.765 L140.32 189.765 L140.32 193.7 L126.246 193.7 L126.246 202.172 Q127.265 201.825 128.283 201.663 Q129.302 201.478 130.32 201.478 Q136.107 201.478 139.487 204.649 Q142.867 207.82 142.867 213.237 Q142.867 218.816 139.394 221.918 Q135.922 224.996 129.603 224.996 Q127.427 224.996 125.158 224.626 Q122.913 224.256 120.506 223.515 L120.506 218.816 Q122.589 219.95 124.811 220.506 Q127.033 221.061 129.51 221.061 Q133.515 221.061 135.853 218.955 Q138.191 216.848 138.191 213.237 Q138.191 209.626 135.853 207.52 Q133.515 205.413 129.51 205.413 Q127.635 205.413 125.76 205.83 Q123.908 206.246 121.964 207.126 L121.964 189.765 Z" fill="#000000" fill-rule="nonzero" fill-opacity="1" /><path clip-path="url(#clip590)" d="M91.5706 60.5889 L99.2095 60.5889 L99.2095 34.2233 L90.8993 35.89 L90.8993 31.6308 L99.1632 29.9641 L103.839 29.9641 L103.839 60.5889 L111.478 60.5889 L111.478 64.5241 L91.5706 64.5241 L91.5706 60.5889 Z" fill="#000000" fill-rule="nonzero" fill-opacity="1" /><path clip-path="url(#clip590)" d="M130.922 33.0428 Q127.311 33.0428 125.482 36.6076 Q123.677 40.1492 123.677 47.2788 Q123.677 54.3853 125.482 57.9501 Q127.311 61.4917 130.922 61.4917 Q134.556 61.4917 136.362 57.9501 Q138.191 54.3853 138.191 47.2788 Q138.191 40.1492 136.362 36.6076 Q134.556 33.0428 130.922 33.0428 M130.922 29.3391 Q136.732 29.3391 139.788 33.9456 Q142.867 38.5289 142.867 47.2788 Q142.867 56.0056 139.788 60.6121 Q136.732 65.1954 130.922 65.1954 Q125.112 65.1954 122.033 60.6121 Q118.978 56.0056 118.978 47.2788 Q118.978 38.5289 122.033 33.9456 Q125.112 29.3391 130.922 29.3391 Z" fill="#000000" fill-rule="nonzero" fill-opacity="1" /><polyline clip-path="url(#clip592)" style="stroke:#009af9; stroke-linecap:round; stroke-linejoin:round; stroke-width:4; stroke-opacity:1; fill:none" points="240.392,334.886 242.445,337.582 244.498,360.216 246.55,358.613 248.603,375.431 250.656,374.55 252.709,369.405 254.762,368.492 256.815,368.839 258.868,366.897 260.921,362.311 262.974,362.459 265.027,383.346 267.079,383.354 269.132,367.452 271.185,379.156 273.238,403.04 275.291,408.562 277.344,370.094 279.397,370.136 281.45,375.638 283.503,374.65 285.555,374.78 287.608,378.699 289.661,380.015 291.714,380.526 293.767,370.501 295.82,370.777 297.873,369.814 299.926,369.56 301.979,369.387 304.031,370.822 306.084,370.804 308.137,360.378 310.19,360.165 312.243,359.709 314.296,364.072 316.349,363.574 318.402,368.653 320.455,374.027 322.507,374.452 324.56,375.164 326.613,376.304 328.666,376.117 330.719,370.532 332.772,370.591 334.825,370.691 336.878,370.696 338.931,370.569 340.984,368.673 343.036,350.254 345.089,355.515 347.142,374.225 349.195,370.196 351.248,370.968 353.301,370.835 355.354,370.818 357.407,374.044 359.46,374.399 361.512,368.493 363.565,372.266 365.618,374.127 367.671,374.052 369.724,374.176 371.777,374.164 373.83,375.239 375.883,374.818 377.936,371.956 379.988,371.966 382.041,367.414 384.094,367.267 386.147,367.381 388.2,367.425 390.253,367.499 392.306,368.281 394.359,368.772 396.412,371.188 398.464,371.453 400.517,368.568 402.57,368.405 404.623,368.246 406.676,368.472 408.729,368.616 410.782,368.529 412.835,364.964 414.888,365.534 416.94,365.389 418.993,366.036 421.046,366.25 423.099,365.742 425.152,364.659 427.205,367.312 429.258,367.799 431.311,368.414 433.364,368.433 435.417,363.592 437.469,363.503 439.522,358.328 441.575,331.297 443.628,342.657 445.681,341.701 447.734,341.566 449.787,341.45 451.84,340.863 453.893,348.453 455.945,348.251 457.998,358.431 460.051,354.67 462.104,354.796 464.157,353.921 466.21,354.198 468.263,350.999 470.316,351.032 472.369,339.477 474.421,344.425 476.474,350.848 478.527,353.609 480.58,360.627 482.633,370.242 484.686,383.249 486.739,379.986 488.792,380.025 490.845,378.815 492.897,387.343 494.95,387.377 497.003,378.821 499.056,378.491 501.109,377.6 503.162,374.448 505.215,374.938 507.268,373.943 509.321,362.801 511.374,363.056 513.426,355.978 515.479,355.983 517.532,356.025 519.585,364.335 521.638,364.476 523.691,354.79 525.744,354.177 527.797,373.186 529.85,372.433 531.902,376.079 533.955,374.909 536.008,373.873 538.061,374.624 540.114,372.285 542.167,375.29 544.22,375.955 546.273,373.514 548.326,374.948 550.378,392.058 552.431,368.483 554.484,342.025 556.537,326.457 558.59,325.29 560.643,349.896 562.696,348.166 564.749,339.418 566.802,338.26 568.854,338.22 570.907,337.49 572.96,336.428 575.013,336.411 577.066,336.408 579.119,336.303 581.172,336.796 583.225,337.219 585.278,332.304 587.331,374.893 589.383,374.934 591.436,371.432 593.489,376.905 595.542,378.241 597.595,377.426 599.648,377.163 601.701,384.492 603.754,385.68 605.807,386.135 607.859,385.856 609.912,385.808 611.965,378.703 614.018,379.355 616.071,397.73 618.124,391.653 620.177,391.753 622.23,394.531 624.283,388.014 626.335,386.385 628.388,386.503 630.441,385.189 632.494,386.548 634.547,386.013 636.6,380.131 638.653,374.529 640.706,373.851 642.759,347.534 644.811,347.485 646.864,347.452 648.917,347.433 650.97,347.414 653.023,353.025 655.076,353.452 657.129,353.477 659.182,358.412 661.235,361.635 663.288,330.477 665.34,321.401 667.393,322.468 669.446,312.746 671.499,319.353 673.552,319.384 675.605,319.813 677.658,306.522 679.711,322.159 681.764,380.264 683.816,355.599 685.869,390.968 687.922,431.254 689.975,426.61 692.028,430.117 694.081,433.573 696.134,459.879 698.187,438.151 700.24,399.265 702.292,317.239 704.345,402.615 706.398,401.47 708.451,394.11 710.504,511.183 712.557,496.752 714.61,496.639 716.663,501.295 718.716,503.84 720.768,511.437 722.821,518.221 724.874,520.133 726.927,512.442 728.98,511.646 731.033,540.266 733.086,533.54 735.139,508.818 737.192,501.252 739.245,504.169 741.297,484.313 743.35,502.936 745.403,444.645 747.456,441.991 749.509,487.178 751.562,486.149 753.615,578.81 755.668,593.913 757.721,452.586 759.773,468.134 761.826,360.363 763.879,387.305 765.932,367.873 767.985,358.013 770.038,336.906 772.091,335.465 774.144,330.243 776.197,331.392 778.249,331.399 780.302,312.149 782.355,326.224 784.408,329.601 786.461,314.557 788.514,308.913 790.567,323.167 792.62,413.661 794.673,337.745 796.725,326.857 798.778,347.511 800.831,352.078 802.884,321.035 804.937,324.454 806.99,325.743 809.043,325.55 811.096,325.463 813.149,344.114 815.202,344.003 817.254,345.608 819.307,347.72 821.36,353.067 823.413,353.587 825.466,366 827.519,372.176 829.572,383.007 831.625,383.725 833.678,382.13 835.73,354.128 837.783,349.714 839.836,347.401 841.889,359.316 843.942,363.54 845.995,357.933 848.048,360.297 850.101,362.419 852.154,357.448 854.206,355.767 856.259,355.577 858.312,348.431 860.365,348.429 862.418,348.433 864.471,357.416 866.524,365.277 868.577,359.224 870.63,359.126 872.682,358.066 874.735,358.097 876.788,357.695 878.841,357.954 880.894,390.512 882.947,390.544 885,405.902 887.053,406.767 889.106,407.059 891.159,407.058 893.211,396.939 895.264,397.015 897.317,348.73 899.37,348.037 901.423,369.163 903.476,389.56 905.529,384.343 907.582,384.453 909.635,383.393 911.687,383.618 913.74,383.841 915.793,383.696 917.846,383.55 919.899,383.741 921.952,382.892 924.005,383.724 926.058,386.212 928.111,385.734 930.163,388.23 932.216,375.716 934.269,378.226 936.322,375.217 938.375,375.172 940.428,380.438 942.481,380.435 944.534,379.58 946.587,380.46 948.639,387.878 950.692,387.54 952.745,385.406 954.798,385.632 956.851,376.766 958.904,349.4 960.957,349.485 963.01,371.85 965.063,370.768 967.116,364.625 969.168,346.084 971.221,346.485 973.274,344.396 975.327,344.113 977.38,344.198 979.433,367.7 981.486,381.609 983.539,382.467 985.592,393.401 987.644,403.6 989.697,405.776 991.75,383.485 993.803,385.081 995.856,383.19 997.909,383.192 999.962,383.181 1002.01,383.331 1004.07,395.981 1006.12,394.927 1008.17,392.685 1010.23,356.405 1012.28,357.093 1014.33,349.656 1016.38,362.235 1018.44,371.64 1020.49,379.376 1022.54,379.475 1024.6,383.93 1026.65,395.603 1028.7,395.64 1030.76,366.559 1032.81,368.704 1034.86,368.718 1036.91,387.808 1038.97,385.215 1041.02,385.42 1043.07,383.905 1045.13,384.138 1047.18,396.82 1049.23,388.652 1051.28,388.21 1053.34,390.945 1055.39,398.305 1057.44,401.66 1059.5,384.123 1061.55,379.352 1063.6,349.313 1065.65,330.706 1067.71,375.819 1069.76,375.666 1071.81,375.656 1073.87,360.264 1075.92,381.026 1077.97,376.44 1080.02,377.243 1082.08,384.935 1084.13,385.03 1086.18,381.407 1088.24,377.474 1090.29,376.932 1092.34,377.625 1094.39,372.266 1096.45,372.362 1098.5,372.386 1100.55,371.269 1102.61,371.144 1104.66,372.907 1106.71,372.675 1108.77,345.675 1110.82,337.288 1112.87,339.422 1114.92,342.452 1116.98,342.64 1119.03,341.666 1121.08,335.829 1123.14,325.456 1125.19,350.59 1127.24,359.924 1129.29,382.142 1131.35,375.145 1133.4,376.862 1135.45,383.671 1137.51,382.83 1139.56,382.038 1141.61,370.383 1143.66,374.588 1145.72,380.259 1147.77,413.057 1149.82,414.741 1151.88,419.69 1153.93,417.469 1155.98,419.205 1158.03,411.468 1160.09,404.037 1162.14,402.693 1164.19,409.565 1166.25,409.361 1168.3,408.371 1170.35,443.822 1172.4,437.911 1174.46,433.71 1176.51,394.624 1178.56,407.183 1180.62,420.47 1182.67,401.273 1184.72,272.039 1186.77,378.766 1188.83,367.203 1190.88,371.204 1192.93,336.117 1194.99,345.09 1197.04,325.514 1199.09,326.571 1201.15,373.372 1203.2,371.462 1205.25,302.209 1207.3,309.823 1209.36,311.364 1211.41,386.807 1213.46,393.058 1215.52,372.304 1217.57,394.257 1219.62,363.056 1221.67,254.716 1223.73,249.109 1225.78,179.754 1227.83,130.377 1229.89,638.126 1231.94,632.468 1233.99,608.905 1236.04,580.661 1238.1,585.309 1240.15,586.939 1242.2,600.633 1244.26,629.3 1246.31,518.756 1248.36,517.882 1250.41,530.928 1252.47,629.607 1254.52,629.927 1256.57,633.961 1258.63,540.199 1260.68,533.079 1262.73,791.35 1264.78,764.104 1266.84,740.606 1268.89,669.421 1270.94,499.817 1273,475.038 1275.05,397.511 1277.1,398.821 1279.16,485.719 1281.21,395.027 1283.26,400.114 1285.31,386.987 1287.37,554.231 1289.42,763.377 1291.47,654.636 1293.53,538.121 1295.58,545.308 1297.63,533.86 1299.68,538.556 1301.74,565.128 1303.79,680.229 1305.84,755.637 1307.9,730.738 1309.95,754.144 1312,773.154 1314.05,585.677 1316.11,591.723 1318.16,294.458 1320.21,303.615 1322.27,298.293 1324.32,315.384 1326.37,474.049 1328.42,444.022 1330.48,361.176 1332.53,665.75 1334.58,471.745 1336.64,490.172 1338.69,420.786 1340.74,415.065 1342.79,588.884 1344.85,622.494 1346.9,622.512 1348.95,594.479 1351.01,435.175 1353.06,427.369 1355.11,519.849 1357.16,519.278 1359.22,518.994 1361.27,394.32 1363.32,393.89 1365.38,348.63 1367.43,279.676 1369.48,123.786 1371.54,257.851 1373.59,342.685 1375.64,240.275 1377.69,242.519 1379.75,242.689 1381.8,240.026 1383.85,299.942 1385.91,299.468 1387.96,331.962 1390.01,254.184 1392.06,251.035 1394.12,245.106 1396.17,309.852 1398.22,297.152 1400.28,296.954 1402.33,305.352 1404.38,498.606 1406.43,526.376 1408.49,526.459 1410.54,276.077 1412.59,275.656 1414.65,203.645 1416.7,293.738 1418.75,338.634 1420.8,467.984 1422.86,437.133 1424.91,413.469 1426.96,264.343 1429.02,275.503 1431.07,341.522 1433.12,452.167 1435.17,452.786 1437.23,418.14 1439.28,410.823 1441.33,294.533 1443.39,293.886 1445.44,293.818 1447.49,439.569 1449.55,392.138 1451.6,363.473 1453.65,392.566 1455.7,312.981 1457.76,319.311 1459.81,304.907 1461.86,258.127 1463.92,253.188 1465.97,263.727 1468.02,373.411 1470.07,383.258 1472.13,389.252 1474.18,334.471 1476.23,313.435 1478.29,346.343 1480.34,364.047 1482.39,289.636 1484.44,289.048 1486.5,289.452 1488.55,291.817 1490.6,292.361 1492.66,292.43 1494.71,295.051 1496.76,296.059 1498.81,291.156 1500.87,297.894 1502.92,328.547 1504.97,431.128 1507.03,423.323 1509.08,430.633 1511.13,449.816 1513.18,432.437 1515.24,388.384 1517.29,349.835 1519.34,589.106 1521.4,587.029 1523.45,564.29 1525.5,481.921 1527.55,492.112 1529.61,476.487 1531.66,391.004 1533.71,358.781 1535.77,215.936 1537.82,215.297 1539.87,224.94 1541.93,227.513 1543.98,281.483 1546.03,313.351 1548.08,544.015 1550.14,535.486 1552.19,539.488 1554.24,440.655 1556.3,448.983 1558.35,448.667 1560.4,467.227 1562.45,450.859 1564.51,450.996 1566.56,496.401 1568.61,474.562 1570.67,476.577 1572.72,462 1574.77,468.467 1576.82,497.152 1578.88,302.128 1580.93,365.962 1582.98,369.884 1585.04,329.738 1587.09,304.695 1589.14,305.886 1591.19,377.442 1593.25,404.618 1595.3,405.044 1597.35,404.079 1599.41,404.818 1601.46,365.457 1603.51,365.908 1605.56,363.769 1607.62,453.356 1609.67,435.471 1611.72,436.379 1613.78,403.778 1615.83,441.348 1617.88,430.007 1619.94,452.827 1621.99,547.255 1624.04,401.662 1626.09,402.066 1628.15,443.002 1630.2,451.393 1632.25,466.584 1634.31,426.01 1636.36,423.52 1638.41,472.569 1640.46,493.716 1642.52,496.006 1644.57,501.87 1646.62,480.139 1648.68,447.072 1650.73,447.155 1652.78,447.608 1654.83,449.919 1656.89,451.065 1658.94,450.358 1660.99,447.901 1663.05,449.39 1665.1,450.563 1667.15,399.453 1669.2,442.567 1671.26,451.864 1673.31,453.022 1675.36,453.683 1677.42,454.367 1679.47,469.123 1681.52,488.95 1683.57,488.471 1685.63,486.95 1687.68,505.039 1689.73,272.684 1691.79,273.477 1693.84,276.636 1695.89,276.613 1697.94,278.096 1700,282.687 1702.05,281.627 1704.1,293.864 1706.16,351.579 1708.21,513.729 1710.26,514.659 1712.32,553.574 1714.37,560.033 1716.42,559.491 1718.47,559.513 1720.53,738.147 1722.58,810.089 1724.63,820.084 1726.69,813.345 1728.74,650.269 1730.79,650.201 1732.84,645.028 1734.9,498.883 1736.95,470.807 1739,487.907 1741.06,476.071 1743.11,472.728 1745.16,464.216 1747.21,459.283 1749.27,460.671 1751.32,279.147 1753.37,242.654 1755.43,362.421 1757.48,406.445 1759.53,371.483 1761.58,497.506 1763.64,528.193 1765.69,354.791 1767.74,349.079 1769.8,381.685 1771.85,381.824 1773.9,445.147 1775.95,453.673 1778.01,453.534 1780.06,449.817 1782.11,458.436 1784.17,462.825 1786.22,464.096 1788.27,371.311 1790.33,334.23 1792.38,331.254 1794.43,333.382 1796.48,309.63 1798.54,335.599 1800.59,379.669 1802.64,381.806 1804.7,383.48 1806.75,379.608 1808.8,382.663 1810.85,385.992 1812.91,330.954 1814.96,341.55 1817.01,332.343 1819.07,317.324 1821.12,293.793 1823.17,324.638 1825.22,324.383 1827.28,345.599 1829.33,341.451 1831.38,310.528 1833.44,253.522 1835.49,360.003 1837.54,362.737 1839.59,359.105 1841.65,331.36 1843.7,259.573 1845.75,462.7 1847.81,472.233 1849.86,492.291 1851.91,507.092 1853.96,302.748 1856.02,302.972 1858.07,303.327 1860.12,296.7 1862.18,295.259 1864.23,301.671 1866.28,302.887 1868.34,302.882 1870.39,394.323 1872.44,401.804 1874.49,402.517 1876.55,403.436 1878.6,371.598 1880.65,358.184 1882.71,353.708 1884.76,358.858 1886.81,356.273 1888.86,357.237 1890.92,349.688 1892.97,371.41 1895.02,369.469 1897.08,288.053 1899.13,294.904 1901.18,289.908 1903.23,310.191 1905.29,310.207 1907.34,372.745 1909.39,338.027 1911.45,338.391 1913.5,334.046 1915.55,333.758 1917.6,335.274 1919.66,335.766 1921.71,337.612 1923.76,327.271 1925.82,312.436 1927.87,328.844 1929.92,339.264 1931.97,340.451 1934.03,336.447 1936.08,339.315 1938.13,339.388 1940.19,358.681 1942.24,363.122 1944.29,382.378 1946.34,352.181 1948.4,351.228 1950.45,356.943 1952.5,424.085 1954.56,424.127 1956.61,414.008 1958.66,389.915 1960.72,388.971 1962.77,378.678 1964.82,358.204 1966.87,370.141 1968.93,363.471 1970.98,362.396 1973.03,348.496 1975.09,341.619 1977.14,345.098 1979.19,334.804 1981.24,338.318 1983.3,335.189 1985.35,334.253 1987.4,319.159 1989.46,340.941 1991.51,390.114 1993.56,450.094 1995.61,444.637 1997.67,443.595 1999.72,458.032 2001.77,532.281 2003.83,532.188 2005.88,527.409 2007.93,559.054 2009.98,542.555 2012.04,552.804 2014.09,372.053 2016.14,313.534 2018.2,311.092 2020.25,325.164 2022.3,268.333 2024.35,281.179 2026.41,247.928 2028.46,180.3 2030.51,217.294 2032.57,210.542 2034.62,290.797 2036.67,293.372 2038.73,314.781 2040.78,291.127 2042.83,359.769 2044.88,344.882 2046.94,342.527 2048.99,340.219 2051.04,374.366 2053.1,374.935 2055.15,374.65 2057.2,369.399 2059.25,372.005 2061.31,375.865 2063.36,376.388 2065.41,371.609 2067.47,381.021 2069.52,382.56 2071.57,382.896 2073.62,382.876 2075.68,383.426 2077.73,384.257 2079.78,373.558 2081.84,371.772 2083.89,362.602 2085.94,344.609 2087.99,344.748 2090.05,345.23 2092.1,351.233 2094.15,349.138 2096.21,350.112 2098.26,352.744 2100.31,352.798 2102.36,350.724 2104.42,360.675 2106.47,361.94 2108.52,351.769 2110.58,352.792 2112.63,375.091 2114.68,374.966 2116.73,375.159 2118.79,364.976 2120.84,365.185 2122.89,361.809 2124.95,367.745 2127,374.355 2129.05,371.241 2131.11,367.364 2133.16,364.033 2135.21,364.624 2137.26,366.193 2139.32,365.564 2141.37,365.655 2143.42,360.066 2145.48,350.436 2147.53,354.102 2149.58,354.151 2151.63,354.693 2153.69,347.7 2155.74,379.132 2157.79,381.552 2159.85,381.78 2161.9,382.794 2163.95,346.546 2166,347.504 2168.06,341.998 2170.11,342.112 2172.16,350.64 2174.22,355.9 2176.27,355.62 2178.32,354.483 2180.37,354.729 2182.43,353.003 2184.48,352.968 2186.53,353.807 2188.59,353.328 2190.64,349.827 2192.69,349.828 2194.74,349.66 2196.8,349.173 2198.85,353.904 2200.9,354.466 2202.96,353.661 2205.01,354.601 2207.06,354.95 2209.12,356.244 2211.17,356.475 2213.22,357.456 2215.27,373.607 2217.33,380.154 2219.38,374.493 2221.43,374.487 2223.49,364.089 2225.54,369.663 2227.59,367.491 2229.64,367.557 2231.7,368.751 2233.75,368.778 2235.8,364.274 2237.86,367.9 2239.91,376.11 2241.96,358.653 2244.01,357.467 2246.07,357.495 2248.12,357.452 2250.17,350.367 2252.23,355.881 2254.28,355.491 2256.33,373.661 2258.38,367.038 2260.44,367.109 2262.49,383.283 2264.54,416.499 2266.6,417.159 2268.65,388.067 2270.7,426.094 2272.75,351.286 2274.81,352.222 2276.86,402.987 2278.91,403.547 2280.97,403.383 2283.02,390.859 2285.07,389.254 2287.12,418.399 2289.18,417.209 2291.23,417.145 "/>
<path clip-path="url(#clip590)" d="M251.33 172.231 L548.024 172.231 L548.024 68.5509 L251.33 68.5509  Z" fill="#ffffff" fill-rule="evenodd" fill-opacity="1"/>
<polyline clip-path="url(#clip590)" style="stroke:#000000; stroke-linecap:round; stroke-linejoin:round; stroke-width:4; stroke-opacity:1; fill:none" points="251.33,172.231 548.024,172.231 548.024,68.5509 251.33,68.5509 251.33,172.231 "/>
<polyline clip-path="url(#clip590)" style="stroke:#009af9; stroke-linecap:round; stroke-linejoin:round; stroke-width:4; stroke-opacity:1; fill:none" points="275.484,120.391 420.41,120.391 "/>
<path clip-path="url(#clip590)" d="M444.564 103.111 L449.24 103.111 L449.24 133.736 L466.069 133.736 L466.069 137.671 L444.564 137.671 L444.564 103.111 Z" fill="#000000" fill-rule="nonzero" fill-opacity="1" /><path clip-path="url(#clip590)" d="M491.694 104.245 L491.694 108.805 Q489.032 107.532 486.67 106.907 Q484.309 106.282 482.11 106.282 Q478.291 106.282 476.208 107.764 Q474.147 109.245 474.147 111.977 Q474.147 114.268 475.513 115.449 Q476.902 116.606 480.745 117.324 L483.569 117.902 Q488.8 118.898 491.277 121.421 Q493.777 123.921 493.777 128.134 Q493.777 133.157 490.397 135.75 Q487.041 138.342 480.536 138.342 Q478.083 138.342 475.305 137.787 Q472.55 137.231 469.587 136.143 L469.587 131.328 Q472.434 132.926 475.166 133.736 Q477.897 134.546 480.536 134.546 Q484.541 134.546 486.717 132.972 Q488.893 131.398 488.893 128.481 Q488.893 125.935 487.319 124.5 Q485.768 123.064 482.203 122.347 L479.356 121.791 Q474.124 120.75 471.786 118.527 Q469.448 116.305 469.448 112.347 Q469.448 107.764 472.666 105.125 Q475.907 102.486 481.578 102.486 Q484.008 102.486 486.532 102.926 Q489.055 103.366 491.694 104.245 Z" fill="#000000" fill-rule="nonzero" fill-opacity="1" /><path clip-path="url(#clip590)" d="M521.786 104.245 L521.786 108.805 Q519.124 107.532 516.763 106.907 Q514.402 106.282 512.203 106.282 Q508.383 106.282 506.3 107.764 Q504.24 109.245 504.24 111.977 Q504.24 114.268 505.606 115.449 Q506.994 116.606 510.837 117.324 L513.661 117.902 Q518.893 118.898 521.369 121.421 Q523.869 123.921 523.869 128.134 Q523.869 133.157 520.49 135.75 Q517.133 138.342 510.629 138.342 Q508.175 138.342 505.397 137.787 Q502.643 137.231 499.68 136.143 L499.68 131.328 Q502.527 132.926 505.258 133.736 Q507.99 134.546 510.629 134.546 Q514.633 134.546 516.809 132.972 Q518.985 131.398 518.985 128.481 Q518.985 125.935 517.411 124.5 Q515.86 123.064 512.295 122.347 L509.448 121.791 Q504.217 120.75 501.879 118.527 Q499.541 116.305 499.541 112.347 Q499.541 107.764 502.758 105.125 Q505.999 102.486 511.67 102.486 Q514.101 102.486 516.624 102.926 Q519.147 103.366 521.786 104.245 Z" fill="#000000" fill-rule="nonzero" fill-opacity="1" /><path clip-path="url(#clip590)" d="M178.867 1486.45 L2352.76 1486.45 L2352.76 847.244 L178.867 847.244  Z" fill="#ffffff" fill-rule="evenodd" fill-opacity="1"/>
<defs>
  <clipPath id="clip593">
    <rect x="178" y="847" width="2175" height="640"/>
  </clipPath>
</defs>
<polyline clip-path="url(#clip593)" style="stroke:#000000; stroke-linecap:round; stroke-linejoin:round; stroke-width:2; stroke-opacity:0.1; fill:none" points="238.339,1486.45 238.339,847.244 "/>
<polyline clip-path="url(#clip593)" style="stroke:#000000; stroke-linecap:round; stroke-linejoin:round; stroke-width:2; stroke-opacity:0.1; fill:none" points="751.562,1486.45 751.562,847.244 "/>
<polyline clip-path="url(#clip593)" style="stroke:#000000; stroke-linecap:round; stroke-linejoin:round; stroke-width:2; stroke-opacity:0.1; fill:none" points="1264.78,1486.45 1264.78,847.244 "/>
<polyline clip-path="url(#clip593)" style="stroke:#000000; stroke-linecap:round; stroke-linejoin:round; stroke-width:2; stroke-opacity:0.1; fill:none" points="1778.01,1486.45 1778.01,847.244 "/>
<polyline clip-path="url(#clip593)" style="stroke:#000000; stroke-linecap:round; stroke-linejoin:round; stroke-width:2; stroke-opacity:0.1; fill:none" points="2291.23,1486.45 2291.23,847.244 "/>
<polyline clip-path="url(#clip593)" style="stroke:#000000; stroke-linecap:round; stroke-linejoin:round; stroke-width:2; stroke-opacity:0.1; fill:none" points="178.867,1486.45 2352.76,1486.45 "/>
<polyline clip-path="url(#clip593)" style="stroke:#000000; stroke-linecap:round; stroke-linejoin:round; stroke-width:2; stroke-opacity:0.1; fill:none" points="178.867,1326.65 2352.76,1326.65 "/>
<polyline clip-path="url(#clip593)" style="stroke:#000000; stroke-linecap:round; stroke-linejoin:round; stroke-width:2; stroke-opacity:0.1; fill:none" points="178.867,1166.85 2352.76,1166.85 "/>
<polyline clip-path="url(#clip593)" style="stroke:#000000; stroke-linecap:round; stroke-linejoin:round; stroke-width:2; stroke-opacity:0.1; fill:none" points="178.867,1007.05 2352.76,1007.05 "/>
<polyline clip-path="url(#clip593)" style="stroke:#000000; stroke-linecap:round; stroke-linejoin:round; stroke-width:2; stroke-opacity:0.1; fill:none" points="178.867,847.244 2352.76,847.244 "/>
<polyline clip-path="url(#clip590)" style="stroke:#000000; stroke-linecap:round; stroke-linejoin:round; stroke-width:4; stroke-opacity:1; fill:none" points="178.867,1486.45 2352.76,1486.45 "/>
<polyline clip-path="url(#clip590)" style="stroke:#000000; stroke-linecap:round; stroke-linejoin:round; stroke-width:4; stroke-opacity:1; fill:none" points="238.339,1486.45 238.339,1467.55 "/>
<polyline clip-path="url(#clip590)" style="stroke:#000000; stroke-linecap:round; stroke-linejoin:round; stroke-width:4; stroke-opacity:1; fill:none" points="751.562,1486.45 751.562,1467.55 "/>
<polyline clip-path="url(#clip590)" style="stroke:#000000; stroke-linecap:round; stroke-linejoin:round; stroke-width:4; stroke-opacity:1; fill:none" points="1264.78,1486.45 1264.78,1467.55 "/>
<polyline clip-path="url(#clip590)" style="stroke:#000000; stroke-linecap:round; stroke-linejoin:round; stroke-width:4; stroke-opacity:1; fill:none" points="1778.01,1486.45 1778.01,1467.55 "/>
<polyline clip-path="url(#clip590)" style="stroke:#000000; stroke-linecap:round; stroke-linejoin:round; stroke-width:4; stroke-opacity:1; fill:none" points="2291.23,1486.45 2291.23,1467.55 "/>
<path clip-path="url(#clip590)" d="M238.339 1517.37 Q234.728 1517.37 232.899 1520.93 Q231.094 1524.47 231.094 1531.6 Q231.094 1538.71 232.899 1542.27 Q234.728 1545.82 238.339 1545.82 Q241.973 1545.82 243.779 1542.27 Q245.607 1538.71 245.607 1531.6 Q245.607 1524.47 243.779 1520.93 Q241.973 1517.37 238.339 1517.37 M238.339 1513.66 Q244.149 1513.66 247.205 1518.27 Q250.283 1522.85 250.283 1531.6 Q250.283 1540.33 247.205 1544.94 Q244.149 1549.52 238.339 1549.52 Q232.529 1549.52 229.45 1544.94 Q226.395 1540.33 226.395 1531.6 Q226.395 1522.85 229.45 1518.27 Q232.529 1513.66 238.339 1513.66 Z" fill="#000000" fill-rule="nonzero" fill-opacity="1" /><path clip-path="url(#clip590)" d="M715.254 1544.91 L731.574 1544.91 L731.574 1548.85 L709.629 1548.85 L709.629 1544.91 Q712.291 1542.16 716.875 1537.53 Q721.481 1532.88 722.662 1531.53 Q724.907 1529.01 725.787 1527.27 Q726.689 1525.51 726.689 1523.82 Q726.689 1521.07 724.745 1519.33 Q722.824 1517.6 719.722 1517.6 Q717.523 1517.6 715.069 1518.36 Q712.638 1519.13 709.861 1520.68 L709.861 1515.95 Q712.685 1514.82 715.138 1514.24 Q717.592 1513.66 719.629 1513.66 Q725 1513.66 728.194 1516.35 Q731.388 1519.03 731.388 1523.52 Q731.388 1525.65 730.578 1527.57 Q729.791 1529.47 727.685 1532.07 Q727.106 1532.74 724.004 1535.95 Q720.902 1539.15 715.254 1544.91 Z" fill="#000000" fill-rule="nonzero" fill-opacity="1" /><path clip-path="url(#clip590)" d="M741.435 1514.29 L759.791 1514.29 L759.791 1518.22 L745.717 1518.22 L745.717 1526.7 Q746.736 1526.35 747.754 1526.19 Q748.773 1526 749.791 1526 Q755.578 1526 758.958 1529.17 Q762.337 1532.34 762.337 1537.76 Q762.337 1543.34 758.865 1546.44 Q755.393 1549.52 749.073 1549.52 Q746.898 1549.52 744.629 1549.15 Q742.384 1548.78 739.976 1548.04 L739.976 1543.34 Q742.06 1544.47 744.282 1545.03 Q746.504 1545.58 748.981 1545.58 Q752.985 1545.58 755.323 1543.48 Q757.661 1541.37 757.661 1537.76 Q757.661 1534.15 755.323 1532.04 Q752.985 1529.94 748.981 1529.94 Q747.106 1529.94 745.231 1530.35 Q743.379 1530.77 741.435 1531.65 L741.435 1514.29 Z" fill="#000000" fill-rule="nonzero" fill-opacity="1" /><path clip-path="url(#clip590)" d="M781.55 1517.37 Q777.939 1517.37 776.11 1520.93 Q774.305 1524.47 774.305 1531.6 Q774.305 1538.71 776.11 1542.27 Q777.939 1545.82 781.55 1545.82 Q785.184 1545.82 786.99 1542.27 Q788.819 1538.71 788.819 1531.6 Q788.819 1524.47 786.99 1520.93 Q785.184 1517.37 781.55 1517.37 M781.55 1513.66 Q787.36 1513.66 790.416 1518.27 Q793.495 1522.85 793.495 1531.6 Q793.495 1540.33 790.416 1544.94 Q787.36 1549.52 781.55 1549.52 Q775.74 1549.52 772.661 1544.94 Q769.606 1540.33 769.606 1531.6 Q769.606 1522.85 772.661 1518.27 Q775.74 1513.66 781.55 1513.66 Z" fill="#000000" fill-rule="nonzero" fill-opacity="1" /><path clip-path="url(#clip590)" d="M1224.4 1514.29 L1242.76 1514.29 L1242.76 1518.22 L1228.69 1518.22 L1228.69 1526.7 Q1229.7 1526.35 1230.72 1526.19 Q1231.74 1526 1232.76 1526 Q1238.55 1526 1241.93 1529.17 Q1245.31 1532.34 1245.31 1537.76 Q1245.31 1543.34 1241.83 1546.44 Q1238.36 1549.52 1232.04 1549.52 Q1229.87 1549.52 1227.6 1549.15 Q1225.35 1548.78 1222.94 1548.04 L1222.94 1543.34 Q1225.03 1544.47 1227.25 1545.03 Q1229.47 1545.58 1231.95 1545.58 Q1235.95 1545.58 1238.29 1543.48 Q1240.63 1541.37 1240.63 1537.76 Q1240.63 1534.15 1238.29 1532.04 Q1235.95 1529.94 1231.95 1529.94 Q1230.07 1529.94 1228.2 1530.35 Q1226.35 1530.77 1224.4 1531.65 L1224.4 1514.29 Z" fill="#000000" fill-rule="nonzero" fill-opacity="1" /><path clip-path="url(#clip590)" d="M1264.52 1517.37 Q1260.91 1517.37 1259.08 1520.93 Q1257.27 1524.47 1257.27 1531.6 Q1257.27 1538.71 1259.08 1542.27 Q1260.91 1545.82 1264.52 1545.82 Q1268.15 1545.82 1269.96 1542.27 Q1271.79 1538.71 1271.79 1531.6 Q1271.79 1524.47 1269.96 1520.93 Q1268.15 1517.37 1264.52 1517.37 M1264.52 1513.66 Q1270.33 1513.66 1273.38 1518.27 Q1276.46 1522.85 1276.46 1531.6 Q1276.46 1540.33 1273.38 1544.94 Q1270.33 1549.52 1264.52 1549.52 Q1258.71 1549.52 1255.63 1544.94 Q1252.57 1540.33 1252.57 1531.6 Q1252.57 1522.85 1255.63 1518.27 Q1258.71 1513.66 1264.52 1513.66 Z" fill="#000000" fill-rule="nonzero" fill-opacity="1" /><path clip-path="url(#clip590)" d="M1294.68 1517.37 Q1291.07 1517.37 1289.24 1520.93 Q1287.44 1524.47 1287.44 1531.6 Q1287.44 1538.71 1289.24 1542.27 Q1291.07 1545.82 1294.68 1545.82 Q1298.31 1545.82 1300.12 1542.27 Q1301.95 1538.71 1301.95 1531.6 Q1301.95 1524.47 1300.12 1520.93 Q1298.31 1517.37 1294.68 1517.37 M1294.68 1513.66 Q1300.49 1513.66 1303.55 1518.27 Q1306.62 1522.85 1306.62 1531.6 Q1306.62 1540.33 1303.55 1544.94 Q1300.49 1549.52 1294.68 1549.52 Q1288.87 1549.52 1285.79 1544.94 Q1282.74 1540.33 1282.74 1531.6 Q1282.74 1522.85 1285.79 1518.27 Q1288.87 1513.66 1294.68 1513.66 Z" fill="#000000" fill-rule="nonzero" fill-opacity="1" /><path clip-path="url(#clip590)" d="M1736.28 1514.29 L1758.51 1514.29 L1758.51 1516.28 L1745.96 1548.85 L1741.08 1548.85 L1752.88 1518.22 L1736.28 1518.22 L1736.28 1514.29 Z" fill="#000000" fill-rule="nonzero" fill-opacity="1" /><path clip-path="url(#clip590)" d="M1767.67 1514.29 L1786.03 1514.29 L1786.03 1518.22 L1771.95 1518.22 L1771.95 1526.7 Q1772.97 1526.35 1773.99 1526.19 Q1775.01 1526 1776.03 1526 Q1781.82 1526 1785.2 1529.17 Q1788.57 1532.34 1788.57 1537.76 Q1788.57 1543.34 1785.1 1546.44 Q1781.63 1549.52 1775.31 1549.52 Q1773.14 1549.52 1770.87 1549.15 Q1768.62 1548.78 1766.21 1548.04 L1766.21 1543.34 Q1768.3 1544.47 1770.52 1545.03 Q1772.74 1545.58 1775.22 1545.58 Q1779.22 1545.58 1781.56 1543.48 Q1783.9 1541.37 1783.9 1537.76 Q1783.9 1534.15 1781.56 1532.04 Q1779.22 1529.94 1775.22 1529.94 Q1773.34 1529.94 1771.47 1530.35 Q1769.62 1530.77 1767.67 1531.65 L1767.67 1514.29 Z" fill="#000000" fill-rule="nonzero" fill-opacity="1" /><path clip-path="url(#clip590)" d="M1807.79 1517.37 Q1804.18 1517.37 1802.35 1520.93 Q1800.54 1524.47 1800.54 1531.6 Q1800.54 1538.71 1802.35 1542.27 Q1804.18 1545.82 1807.79 1545.82 Q1811.42 1545.82 1813.23 1542.27 Q1815.06 1538.71 1815.06 1531.6 Q1815.06 1524.47 1813.23 1520.93 Q1811.42 1517.37 1807.79 1517.37 M1807.79 1513.66 Q1813.6 1513.66 1816.65 1518.27 Q1819.73 1522.85 1819.73 1531.6 Q1819.73 1540.33 1816.65 1544.94 Q1813.6 1549.52 1807.79 1549.52 Q1801.98 1549.52 1798.9 1544.94 Q1795.84 1540.33 1795.84 1531.6 Q1795.84 1522.85 1798.9 1518.27 Q1801.98 1513.66 1807.79 1513.66 Z" fill="#000000" fill-rule="nonzero" fill-opacity="1" /><path clip-path="url(#clip590)" d="M2235.76 1544.91 L2243.4 1544.91 L2243.4 1518.55 L2235.09 1520.21 L2235.09 1515.95 L2243.35 1514.29 L2248.02 1514.29 L2248.02 1544.91 L2255.66 1544.91 L2255.66 1548.85 L2235.76 1548.85 L2235.76 1544.91 Z" fill="#000000" fill-rule="nonzero" fill-opacity="1" /><path clip-path="url(#clip590)" d="M2275.11 1517.37 Q2271.5 1517.37 2269.67 1520.93 Q2267.86 1524.47 2267.86 1531.6 Q2267.86 1538.71 2269.67 1542.27 Q2271.5 1545.82 2275.11 1545.82 Q2278.74 1545.82 2280.55 1542.27 Q2282.38 1538.71 2282.38 1531.6 Q2282.38 1524.47 2280.55 1520.93 Q2278.74 1517.37 2275.11 1517.37 M2275.11 1513.66 Q2280.92 1513.66 2283.97 1518.27 Q2287.05 1522.85 2287.05 1531.6 Q2287.05 1540.33 2283.97 1544.94 Q2280.92 1549.52 2275.11 1549.52 Q2269.3 1549.52 2266.22 1544.94 Q2263.16 1540.33 2263.16 1531.6 Q2263.16 1522.85 2266.22 1518.27 Q2269.3 1513.66 2275.11 1513.66 Z" fill="#000000" fill-rule="nonzero" fill-opacity="1" /><path clip-path="url(#clip590)" d="M2305.27 1517.37 Q2301.66 1517.37 2299.83 1520.93 Q2298.02 1524.47 2298.02 1531.6 Q2298.02 1538.71 2299.83 1542.27 Q2301.66 1545.82 2305.27 1545.82 Q2308.9 1545.82 2310.71 1542.27 Q2312.54 1538.71 2312.54 1531.6 Q2312.54 1524.47 2310.71 1520.93 Q2308.9 1517.37 2305.27 1517.37 M2305.27 1513.66 Q2311.08 1513.66 2314.14 1518.27 Q2317.21 1522.85 2317.21 1531.6 Q2317.21 1540.33 2314.14 1544.94 Q2311.08 1549.52 2305.27 1549.52 Q2299.46 1549.52 2296.38 1544.94 Q2293.33 1540.33 2293.33 1531.6 Q2293.33 1522.85 2296.38 1518.27 Q2299.46 1513.66 2305.27 1513.66 Z" fill="#000000" fill-rule="nonzero" fill-opacity="1" /><path clip-path="url(#clip590)" d="M2335.43 1517.37 Q2331.82 1517.37 2329.99 1520.93 Q2328.19 1524.47 2328.19 1531.6 Q2328.19 1538.71 2329.99 1542.27 Q2331.82 1545.82 2335.43 1545.82 Q2339.07 1545.82 2340.87 1542.27 Q2342.7 1538.71 2342.7 1531.6 Q2342.7 1524.47 2340.87 1520.93 Q2339.07 1517.37 2335.43 1517.37 M2335.43 1513.66 Q2341.24 1513.66 2344.3 1518.27 Q2347.38 1522.85 2347.38 1531.6 Q2347.38 1540.33 2344.3 1544.94 Q2341.24 1549.52 2335.43 1549.52 Q2329.62 1549.52 2326.54 1544.94 Q2323.49 1540.33 2323.49 1531.6 Q2323.49 1522.85 2326.54 1518.27 Q2329.62 1513.66 2335.43 1513.66 Z" fill="#000000" fill-rule="nonzero" fill-opacity="1" /><polyline clip-path="url(#clip590)" style="stroke:#000000; stroke-linecap:round; stroke-linejoin:round; stroke-width:4; stroke-opacity:1; fill:none" points="178.867,1486.45 178.867,847.244 "/>
<polyline clip-path="url(#clip590)" style="stroke:#000000; stroke-linecap:round; stroke-linejoin:round; stroke-width:4; stroke-opacity:1; fill:none" points="178.867,1486.45 197.764,1486.45 "/>
<polyline clip-path="url(#clip590)" style="stroke:#000000; stroke-linecap:round; stroke-linejoin:round; stroke-width:4; stroke-opacity:1; fill:none" points="178.867,1326.65 197.764,1326.65 "/>
<polyline clip-path="url(#clip590)" style="stroke:#000000; stroke-linecap:round; stroke-linejoin:round; stroke-width:4; stroke-opacity:1; fill:none" points="178.867,1166.85 197.764,1166.85 "/>
<polyline clip-path="url(#clip590)" style="stroke:#000000; stroke-linecap:round; stroke-linejoin:round; stroke-width:4; stroke-opacity:1; fill:none" points="178.867,1007.05 197.764,1007.05 "/>
<polyline clip-path="url(#clip590)" style="stroke:#000000; stroke-linecap:round; stroke-linejoin:round; stroke-width:4; stroke-opacity:1; fill:none" points="178.867,847.244 197.764,847.244 "/>
<path clip-path="url(#clip590)" d="M50.9921 1486.9 L80.6679 1486.9 L80.6679 1490.83 L50.9921 1490.83 L50.9921 1486.9 Z" fill="#000000" fill-rule="nonzero" fill-opacity="1" /><path clip-path="url(#clip590)" d="M91.5706 1499.79 L99.2095 1499.79 L99.2095 1473.43 L90.8993 1475.09 L90.8993 1470.83 L99.1632 1469.17 L103.839 1469.17 L103.839 1499.79 L111.478 1499.79 L111.478 1503.73 L91.5706 1503.73 L91.5706 1499.79 Z" fill="#000000" fill-rule="nonzero" fill-opacity="1" /><path clip-path="url(#clip590)" d="M130.922 1472.25 Q127.311 1472.25 125.482 1475.81 Q123.677 1479.35 123.677 1486.48 Q123.677 1493.59 125.482 1497.15 Q127.311 1500.7 130.922 1500.7 Q134.556 1500.7 136.362 1497.15 Q138.191 1493.59 138.191 1486.48 Q138.191 1479.35 136.362 1475.81 Q134.556 1472.25 130.922 1472.25 M130.922 1468.54 Q136.732 1468.54 139.788 1473.15 Q142.867 1477.73 142.867 1486.48 Q142.867 1495.21 139.788 1499.82 Q136.732 1504.4 130.922 1504.4 Q125.112 1504.4 122.033 1499.82 Q118.978 1495.21 118.978 1486.48 Q118.978 1477.73 122.033 1473.15 Q125.112 1468.54 130.922 1468.54 Z" fill="#000000" fill-rule="nonzero" fill-opacity="1" /><path clip-path="url(#clip590)" d="M82.1494 1327.1 L111.825 1327.1 L111.825 1331.03 L82.1494 1331.03 L82.1494 1327.1 Z" fill="#000000" fill-rule="nonzero" fill-opacity="1" /><path clip-path="url(#clip590)" d="M121.964 1309.37 L140.32 1309.37 L140.32 1313.3 L126.246 1313.3 L126.246 1321.77 Q127.265 1321.43 128.283 1321.27 Q129.302 1321.08 130.32 1321.08 Q136.107 1321.08 139.487 1324.25 Q142.867 1327.42 142.867 1332.84 Q142.867 1338.42 139.394 1341.52 Q135.922 1344.6 129.603 1344.6 Q127.427 1344.6 125.158 1344.23 Q122.913 1343.86 120.506 1343.12 L120.506 1338.42 Q122.589 1339.55 124.811 1340.11 Q127.033 1340.66 129.51 1340.66 Q133.515 1340.66 135.853 1338.56 Q138.191 1336.45 138.191 1332.84 Q138.191 1329.23 135.853 1327.12 Q133.515 1325.01 129.51 1325.01 Q127.635 1325.01 125.76 1325.43 Q123.908 1325.85 121.964 1326.73 L121.964 1309.37 Z" fill="#000000" fill-rule="nonzero" fill-opacity="1" /><path clip-path="url(#clip590)" d="M130.922 1152.64 Q127.311 1152.64 125.482 1156.21 Q123.677 1159.75 123.677 1166.88 Q123.677 1173.99 125.482 1177.55 Q127.311 1181.09 130.922 1181.09 Q134.556 1181.09 136.362 1177.55 Q138.191 1173.99 138.191 1166.88 Q138.191 1159.75 136.362 1156.21 Q134.556 1152.64 130.922 1152.64 M130.922 1148.94 Q136.732 1148.94 139.788 1153.55 Q142.867 1158.13 142.867 1166.88 Q142.867 1175.61 139.788 1180.21 Q136.732 1184.8 130.922 1184.8 Q125.112 1184.8 122.033 1180.21 Q118.978 1175.61 118.978 1166.88 Q118.978 1158.13 122.033 1153.55 Q125.112 1148.94 130.922 1148.94 Z" fill="#000000" fill-rule="nonzero" fill-opacity="1" /><path clip-path="url(#clip590)" d="M121.964 989.765 L140.32 989.765 L140.32 993.7 L126.246 993.7 L126.246 1002.17 Q127.265 1001.83 128.283 1001.66 Q129.302 1001.48 130.32 1001.48 Q136.107 1001.48 139.487 1004.65 Q142.867 1007.82 142.867 1013.24 Q142.867 1018.82 139.394 1021.92 Q135.922 1025 129.603 1025 Q127.427 1025 125.158 1024.63 Q122.913 1024.26 120.506 1023.51 L120.506 1018.82 Q122.589 1019.95 124.811 1020.51 Q127.033 1021.06 129.51 1021.06 Q133.515 1021.06 135.853 1018.95 Q138.191 1016.85 138.191 1013.24 Q138.191 1009.63 135.853 1007.52 Q133.515 1005.41 129.51 1005.41 Q127.635 1005.41 125.76 1005.83 Q123.908 1006.25 121.964 1007.13 L121.964 989.765 Z" fill="#000000" fill-rule="nonzero" fill-opacity="1" /><path clip-path="url(#clip590)" d="M91.5706 860.589 L99.2095 860.589 L99.2095 834.223 L90.8993 835.89 L90.8993 831.631 L99.1632 829.964 L103.839 829.964 L103.839 860.589 L111.478 860.589 L111.478 864.524 L91.5706 864.524 L91.5706 860.589 Z" fill="#000000" fill-rule="nonzero" fill-opacity="1" /><path clip-path="url(#clip590)" d="M130.922 833.043 Q127.311 833.043 125.482 836.608 Q123.677 840.149 123.677 847.279 Q123.677 854.385 125.482 857.95 Q127.311 861.492 130.922 861.492 Q134.556 861.492 136.362 857.95 Q138.191 854.385 138.191 847.279 Q138.191 840.149 136.362 836.608 Q134.556 833.043 130.922 833.043 M130.922 829.339 Q136.732 829.339 139.788 833.946 Q142.867 838.529 142.867 847.279 Q142.867 856.006 139.788 860.612 Q136.732 865.195 130.922 865.195 Q125.112 865.195 122.033 860.612 Q118.978 856.006 118.978 847.279 Q118.978 838.529 122.033 833.946 Q125.112 829.339 130.922 829.339 Z" fill="#000000" fill-rule="nonzero" fill-opacity="1" /><polyline clip-path="url(#clip593)" style="stroke:#009af9; stroke-linecap:round; stroke-linejoin:round; stroke-width:4; stroke-opacity:1; fill:none" points="240.392,1134.89 242.445,1202.18 244.498,1166.52 246.55,1153.68 248.603,1176.53 250.656,1181.55 252.709,1262.17 254.762,1130.54 256.815,1144.83 258.868,1116.71 260.921,1156.81 262.974,1152.99 265.027,1167.87 267.079,1152.43 269.132,1216.99 271.185,1189.21 273.238,1164.93 275.291,1145.99 277.344,1233.83 279.397,1188.03 281.45,1145.66 283.503,1156.84 285.555,1241.93 287.608,1229.92 289.661,1108.86 291.714,1195.33 293.767,1205.65 295.82,1197.13 297.873,1145.51 299.926,704.852 301.979,327.974 304.031,345.564 306.084,1892.41 308.137,1303.96 310.19,1087.54 312.243,948.535 314.296,1695.96 316.349,991.58 318.402,956.613 320.455,1182.82 322.507,1167.07 324.56,1175.63 326.613,1292.85 328.666,1269.78 330.719,1149.59 332.772,1159.15 334.825,1159.4 336.878,1162.64 338.931,1157.28 340.984,1178.15 343.036,1165.99 345.089,1157.88 347.142,1170.39 349.195,1184.74 351.248,1163.43 353.301,1181.29 355.354,1158.2 357.407,1172.36 359.46,1133.01 361.512,1216.72 363.565,1121.01 365.618,1210.3 367.671,1207.01 369.724,1195.64 371.777,1191.88 373.83,1165.53 375.883,1156.92 377.936,1169.94 379.988,1165.3 382.041,1193.19 384.094,1138.45 386.147,1215.05 388.2,1231.58 390.253,1160.26 392.306,1157.86 394.359,1149.98 396.412,1009.19 398.464,714.409 400.517,588.209 402.57,1568.66 404.623,1091.68 406.676,1299.13 408.729,1061.51 410.782,1105.16 412.835,1142.69 414.888,1220.59 416.94,1110.44 418.993,984.499 421.046,1266.68 423.099,1236.27 425.152,1143.48 427.205,1109.74 429.258,1257.22 431.311,1099.04 433.364,1142.43 435.417,1347.44 437.469,1393.59 439.522,864.445 441.575,611.164 443.628,1228.96 445.681,1089.38 447.734,1167.64 449.787,1173.02 451.84,1145.87 453.893,1176.52 455.945,1185.86 457.998,1187.34 460.051,1126.93 462.104,1153.17 464.157,1214.2 466.21,1100.51 468.263,1249.68 470.316,1175.93 472.369,1168.75 474.421,1183.42 476.474,1189.54 478.527,1170.1 480.58,1167.29 482.633,1197.29 484.686,1112.76 486.739,1179.57 488.792,1197.25 490.845,1211.19 492.897,1155.74 494.95,1128.7 497.003,1091.92 499.056,1217.57 501.109,1136.46 503.162,1159.9 505.215,1143.69 507.268,1162.85 509.321,1152.85 511.374,1135.61 513.426,1196.69 515.479,1275.79 517.532,1006.38 519.585,1178.97 521.638,1145.39 523.691,1145.44 525.744,1217.87 527.797,1129.85 529.85,1173.4 531.902,1144.15 533.955,1231.19 536.008,1159.26 538.061,1158.46 540.114,1153.52 542.167,1158.99 544.22,1167.42 546.273,1164.91 548.326,1145.74 550.378,1151.11 552.431,935.15 554.484,1110.89 556.537,1104.92 558.59,699.519 560.643,979.24 562.696,1219.02 564.749,1137.45 566.802,1145.96 568.854,1110.82 570.907,1156.31 572.96,1668.96 575.013,907.767 577.066,1817.68 579.119,1375.55 581.172,1630.99 583.225,1029.73 585.278,1147.96 587.331,1072.61 589.383,1076.24 591.436,1358.49 593.489,535.195 595.542,1350.69 597.595,1113.41 599.648,1075.54 601.701,1122.75 603.754,1197.13 605.807,1251.56 607.859,1124.11 609.912,1617.66 611.965,-1188.61 614.018,-1078.9 616.071,8231.25 618.124,-10431.1 620.177,-11203.8 622.23,6055.05 624.283,2888.5 626.335,-956.086 628.388,1224.88 630.441,1052.82 632.494,1194.78 634.547,546.154 636.6,666.644 638.653,1626.13 640.706,801.871 642.759,1163.24 644.811,1187.86 646.864,1159.39 648.917,1166.87 650.97,1173.43 653.023,1150.47 655.076,1137.75 657.129,1135.5 659.182,1163.09 661.235,1147.55 663.288,1179.79 665.34,1171.25 667.393,1246.96 669.446,1218.64 671.499,1078.92 673.552,642.971 675.605,847.269 677.658,765.561 679.711,1174.86 681.764,1164.49 683.816,1171.71 685.869,1203.55 687.922,1115.32 689.975,1107.54 692.028,1185.06 694.081,1179.91 696.134,1089.31 698.187,1092.52 700.24,993.399 702.292,1152.99 704.345,1129.59 706.398,1226.31 708.451,1810.18 710.504,1035.21 712.557,1074.92 714.61,1143.94 716.663,1140.32 718.716,1148.23 720.768,1228.46 722.821,1185.04 724.874,1284.9 726.927,1359.06 728.98,53.968 731.033,1273.76 733.086,1094.41 735.139,1154.17 737.192,1195.61 739.245,1185.35 741.297,1157.04 743.35,1182.36 745.403,1105.38 747.456,1089.43 749.509,1129.55 751.562,1129.87 753.615,1197.85 755.668,1168.3 757.721,1168.04 759.773,1170.01 761.826,1146.24 763.879,1194.41 765.932,1152.88 767.985,1135.64 770.038,1156.85 772.091,1158.95 774.144,1172.47 776.197,1157.57 778.249,1042.16 780.302,1165.44 782.355,1260.88 784.408,1180.92 786.461,1171.13 788.514,1181.37 790.567,1198.87 792.62,1405.07 794.673,1098.89 796.725,1155.26 798.778,1091.64 800.831,1194.89 802.884,1139.65 804.937,1252.64 806.99,1156.4 809.043,1157.47 811.096,1155.29 813.149,1385.68 815.202,1179.3 817.254,1156.7 819.307,1096.78 821.36,1153.53 823.413,1210.05 825.466,1149.04 827.519,1111.09 829.572,1229.37 831.625,1100.08 833.678,1012.85 835.73,1155.1 837.783,1216.12 839.836,989.187 841.889,2010.88 843.942,802.777 845.995,1160.41 848.048,1179.62 850.101,1401.8 852.154,1135.89 854.206,1183.36 856.259,1046.34 858.312,1335.29 860.365,1249.45 862.418,1264.88 864.471,1197.34 866.524,1123.98 868.577,1090.38 870.63,1145.15 872.682,1152.84 874.735,1159.91 876.788,1158.71 878.841,1156.01 880.894,1018.68 882.947,1279.47 885,1207.83 887.053,1215.66 889.106,1156.4 891.159,1209.28 893.211,841.862 895.264,1074.14 897.317,1478.86 899.37,2030.77 901.423,1929.82 903.476,1922.94 905.529,891.222 907.582,1104.87 909.635,1193.79 911.687,1183.03 913.74,1134.78 915.793,1178.29 917.846,1199.61 919.899,1193.08 921.952,1128.11 924.005,1228.02 926.058,1187.7 928.111,1349.05 930.163,1179.11 932.216,1136.93 934.269,1172.36 936.322,1188.51 938.375,1283.19 940.428,1165.97 942.481,1390.46 944.534,971.865 946.587,1124.16 948.639,1118.78 950.692,1062.6 952.745,1150.73 954.798,1203.78 956.851,1145.91 958.904,1147.89 960.957,1156.55 963.01,1080 965.063,1174.27 967.116,1172.78 969.168,1270.41 971.221,1269.53 973.274,1101.94 975.327,1132.52 977.38,552.345 979.433,821.367 981.486,1392.84 983.539,1124.35 985.592,1235.02 987.644,1131.39 989.697,1201.43 991.75,1511.56 993.803,976.379 995.856,1269.47 997.909,1181.31 999.962,697.485 1002.01,1169.44 1004.07,1144.19 1006.12,1143.68 1008.17,1169.66 1010.23,1228.9 1012.28,991.274 1014.33,1066.32 1016.38,1333.12 1018.44,1166.26 1020.49,1169.02 1022.54,1180.61 1024.6,1191.9 1026.65,1115.27 1028.7,1154.84 1030.76,1184.03 1032.81,1213.19 1034.86,1213.67 1036.91,1265.85 1038.97,1253.82 1041.02,1231.51 1043.07,1177.01 1045.13,1157.19 1047.18,1177.44 1049.23,1207.38 1051.28,1136.12 1053.34,1194.33 1055.39,615.53 1057.44,862.803 1059.5,1281.76 1061.55,1088.32 1063.6,1172.38 1065.65,1208.75 1067.71,1124.08 1069.76,1241.35 1071.81,1140.69 1073.87,1121.41 1075.92,1149.86 1077.97,1180.6 1080.02,2232.34 1082.08,1122.5 1084.13,1058.7 1086.18,1273.79 1088.24,1214.34 1090.29,1619.23 1092.34,1992.1 1094.39,313.054 1096.45,1131.19 1098.5,1285.35 1100.55,1185.12 1102.61,1153.19 1104.66,1145.6 1106.71,1186.71 1108.77,1142.66 1110.82,1159.58 1112.87,1148.37 1114.92,1174.19 1116.98,1092.32 1119.03,1094.55 1121.08,1183.52 1123.14,1158.31 1125.19,1158.2 1127.24,1152.56 1129.29,1181.29 1131.35,1201.59 1133.4,968.606 1135.45,1069.23 1137.51,1170.49 1139.56,851.711 1141.61,794.59 1143.66,1436.56 1145.72,1210.08 1147.77,1180.86 1149.82,1204.34 1151.88,1089.97 1153.93,1225.11 1155.98,1093.86 1158.03,1230.24 1160.09,1171.69 1162.14,1366.2 1164.19,1056.81 1166.25,1305.6 1168.3,1462.97 1170.35,1119.9 1172.4,1193.4 1174.46,1241.65 1176.51,1200.15 1178.56,1152.09 1180.62,1175.22 1182.67,1007.12 1184.72,867.577 1186.77,205.74 1188.83,1297.62 1190.88,414.721 1192.93,1441.18 1194.99,1102 1197.04,1216.3 1199.09,1213.15 1201.15,1431.74 1203.2,1358.77 1205.25,1428.18 1207.3,1106.27 1209.36,1269.72 1211.41,1171.85 1213.46,1209.45 1215.52,1160.95 1217.57,1177.67 1219.62,1185.48 1221.67,1148.34 1223.73,1150.92 1225.78,1352.59 1227.83,1210.15 1229.89,551.437 1231.94,929.139 1233.99,1145.68 1236.04,1168.84 1238.1,1161.91 1240.15,1171.98 1242.2,1167.68 1244.26,1459.32 1246.31,1093.32 1248.36,1248.66 1250.41,1607.62 1252.47,714.938 1254.52,980.539 1256.57,1264.26 1258.63,1056.21 1260.68,1124.54 1262.73,1187.85 1264.78,1152.36 1266.84,1156.54 1268.89,1165.05 1270.94,1170.91 1273,1139.01 1275.05,1159.24 1277.1,1128.18 1279.16,1147.66 1281.21,1157.56 1283.26,1158.67 1285.31,1171.6 1287.37,1130.93 1289.42,1210.08 1291.47,1158.25 1293.53,1145.63 1295.58,1148.4 1297.63,1181.09 1299.68,1178.97 1301.74,1258.94 1303.79,1181.4 1305.84,1117.79 1307.9,1215.35 1309.95,1194.56 1312,1115.53 1314.05,1105.94 1316.11,1098.61 1318.16,1154.76 1320.21,1177.83 1322.27,1196.18 1324.32,1172.61 1326.37,1171.38 1328.42,1151.56 1330.48,1162.85 1332.53,990.698 1334.58,1452.37 1336.64,1085.98 1338.69,1186.47 1340.74,1175.53 1342.79,1156.46 1344.85,1126.57 1346.9,1212.41 1348.95,1176.68 1351.01,1201.35 1353.06,1293.87 1355.11,1212.99 1357.16,1128.17 1359.22,1214.43 1361.27,1139.93 1363.32,1227.74 1365.38,1112.26 1367.43,1211.63 1369.48,1221.98 1371.54,1287.75 1373.59,1128.63 1375.64,1151.14 1377.69,1163.36 1379.75,1174.97 1381.8,1222.84 1383.85,1142.91 1385.91,1096.34 1387.96,1103.04 1390.01,1168 1392.06,1094.86 1394.12,1178.32 1396.17,1124.18 1398.22,1164.3 1400.28,1175.89 1402.33,1185.43 1404.38,1165.3 1406.43,1100.9 1408.49,450.464 1410.54,1157.17 1412.59,1171.33 1414.65,1163.2 1416.7,1139.06 1418.75,1169.62 1420.8,1120.49 1422.86,1167.42 1424.91,1169.93 1426.96,955.387 1429.02,1157.83 1431.07,1112.89 1433.12,1288.57 1435.17,1224.94 1437.23,1172.33 1439.28,1130.2 1441.33,1184.38 1443.39,1181.06 1445.44,1172.65 1447.49,1138.49 1449.55,1186.04 1451.6,1194.31 1453.65,1194.29 1455.7,1218.43 1457.76,1187.78 1459.81,1153.5 1461.86,1157.47 1463.92,1162.49 1465.97,1174.84 1468.02,1080.99 1470.07,1078.64 1472.13,1297.94 1474.18,1244.57 1476.23,1215.63 1478.29,1309.05 1480.34,1017.81 1482.39,1148.99 1484.44,1267.09 1486.5,1796.84 1488.55,1017.28 1490.6,1113.19 1492.66,1125.08 1494.71,1218.36 1496.76,1380.74 1498.81,1389.11 1500.87,1149.54 1502.92,1188.82 1504.97,863.991 1507.03,1294.59 1509.08,1099.16 1511.13,1846.7 1513.18,1094.21 1515.24,1220.56 1517.29,1139.91 1519.34,1148.54 1521.4,1153.18 1523.45,1171.31 1525.5,1128.09 1527.55,1197.63 1529.61,1132.25 1531.66,1113.05 1533.71,1234.93 1535.77,1106.95 1537.82,1193.33 1539.87,1154.36 1541.93,1161.31 1543.98,1210.53 1546.03,1159.86 1548.08,1156.96 1550.14,1169.47 1552.19,1162.27 1554.24,1160.3 1556.3,1158.94 1558.35,1182.78 1560.4,1166.72 1562.45,1174.01 1564.51,1158.8 1566.56,1256.99 1568.61,1296.27 1570.67,1171.08 1572.72,1159.6 1574.77,1164.45 1576.82,1159.11 1578.88,1146.69 1580.93,1181.85 1582.98,1161.74 1585.04,1182.98 1587.09,1226.06 1589.14,1239.42 1591.19,1083.59 1593.25,1134.9 1595.3,1111 1597.35,1166.76 1599.41,1164.19 1601.46,1227.25 1603.51,1266.63 1605.56,1180.23 1607.62,1139.72 1609.67,1157.93 1611.72,1146.54 1613.78,1196.4 1615.83,1173.24 1617.88,1159.33 1619.94,1164.3 1621.99,1161.03 1624.04,1178.24 1626.09,1192.93 1628.15,1145.97 1630.2,1172.59 1632.25,1172.24 1634.31,1122.11 1636.36,1142.25 1638.41,1158.08 1640.46,1153.78 1642.52,1177.84 1644.57,1092.8 1646.62,1168.06 1648.68,1166.59 1650.73,1172.96 1652.78,1195.64 1654.83,1151.52 1656.89,1154.7 1658.94,1156.1 1660.99,1180.13 1663.05,1176.58 1665.1,1145.13 1667.15,1164.57 1669.2,1157.79 1671.26,1154.13 1673.31,1153.71 1675.36,1199.21 1677.42,1174.41 1679.47,1168.9 1681.52,1158.22 1683.57,1148.89 1685.63,1158.33 1687.68,1170.04 1689.73,1163.72 1691.79,1177.08 1693.84,1166.9 1695.89,1171.5 1697.94,1121.58 1700,1224.33 1702.05,1153.46 1704.1,1182.52 1706.16,1162.17 1708.21,1167.85 1710.26,1167.09 1712.32,1138.36 1714.37,1204.51 1716.42,1245.17 1718.47,1091.76 1720.53,1288.61 1722.58,1114.44 1724.63,1156.14 1726.69,1146.42 1728.74,1145.34 1730.79,1212.3 1732.84,1184.47 1734.9,1137.33 1736.95,1178.38 1739,1158.59 1741.06,547.873 1743.11,1445.34 1745.16,1040.11 1747.21,1302.39 1749.27,1162.42 1751.32,1003.7 1753.37,1262.11 1755.43,1169.88 1757.48,1167.38 1759.53,1156.17 1761.58,1146.54 1763.64,1147.58 1765.69,1154.7 1767.74,1133.31 1769.8,1173.47 1771.85,1179.81 1773.9,1139.67 1775.95,1099.9 1778.01,1118.86 1780.06,1136.99 1782.11,1142.51 1784.17,1161.94 1786.22,1171.57 1788.27,1153.69 1790.33,1178.51 1792.38,1204.52 1794.43,1137.74 1796.48,1174.53 1798.54,1196.15 1800.59,1189.55 1802.64,1140.82 1804.7,1213.58 1806.75,1141.73 1808.8,1167.1 1810.85,1165.13 1812.91,1271.68 1814.96,1572.2 1817.01,1189.41 1819.07,1338.23 1821.12,1117.6 1823.17,1157.75 1825.22,1237.22 1827.28,1118.79 1829.33,1857.21 1831.38,2338.04 1833.44,-2010.42 1835.49,264.932 1837.54,1968.5 1839.59,2579.72 1841.65,1683.04 1843.7,738.092 1845.75,1053.31 1847.81,1278.66 1849.86,1090.91 1851.91,1163.45 1853.96,1135.21 1856.02,1184.47 1858.07,1169.98 1860.12,1162.2 1862.18,1169.67 1864.23,1155.72 1866.28,1146.16 1868.34,1179.54 1870.39,1145.06 1872.44,1168.28 1874.49,1174.08 1876.55,1175.57 1878.6,1173.01 1880.65,1153.54 1882.71,1158.06 1884.76,1190.25 1886.81,1153.25 1888.86,1179.79 1890.92,1164.21 1892.97,1130.11 1895.02,1099.78 1897.08,959.347 1899.13,1198.62 1901.18,1162.89 1903.23,1253 1905.29,1254.45 1907.34,1249.22 1909.39,1184.27 1911.45,1206.18 1913.5,1060.69 1915.55,1186.7 1917.6,1141.15 1919.66,962.061 1921.71,786.475 1923.76,1148.37 1925.82,1252.82 1927.87,1141.26 1929.92,1176.96 1931.97,1147.27 1934.03,1166.98 1936.08,1035.91 1938.13,1310.45 1940.19,993.119 1942.24,987.625 1944.29,984.605 1946.34,1146.61 1948.4,1187.14 1950.45,1154.68 1952.5,1039.04 1954.56,938.283 1956.61,1306.37 1958.66,1047.38 1960.72,1202.41 1962.77,1235.38 1964.82,963.604 1966.87,1338.46 1968.93,1212.93 1970.98,1101.06 1973.03,1152.4 1975.09,1181.79 1977.14,1180.3 1979.19,1164.4 1981.24,1040.72 1983.3,900.441 1985.35,1058.28 1987.4,1177.43 1989.46,1151.28 1991.51,1152.38 1993.56,1037.93 1995.61,1097.59 1997.67,1236.22 1999.72,1182.42 2001.77,1193.89 2003.83,1173.54 2005.88,1165.24 2007.93,1174.79 2009.98,1139.35 2012.04,1126.12 2014.09,1253.47 2016.14,1127.53 2018.2,1170.24 2020.25,1169.22 2022.3,1171.21 2024.35,1181.23 2026.41,1110.57 2028.46,1131.32 2030.51,1105.36 2032.57,1267.96 2034.62,1228.09 2036.67,1175.88 2038.73,1254.64 2040.78,1166.4 2042.83,1006.49 2044.88,1138.77 2046.94,1285.34 2048.99,1267.66 2051.04,1057.36 2053.1,1137.55 2055.15,1172.55 2057.2,1162.33 2059.25,1164.03 2061.31,1187.16 2063.36,1120.2 2065.41,877.781 2067.47,1384.07 2069.52,1274.95 2071.57,1161.46 2073.62,1179.91 2075.68,824.466 2077.73,-412.946 2079.78,-1609.89 2081.84,-2104.45 2083.89,2447.7 2085.94,2388.02 2087.99,560.897 2090.05,2070.9 2092.1,1653.15 2094.15,1138.56 2096.21,1114.14 2098.26,1203.94 2100.31,1189.66 2102.36,1129.25 2104.42,1196.56 2106.47,1209.4 2108.52,1167.57 2110.58,1168.16 2112.63,1160.03 2114.68,1203.34 2116.73,1290.32 2118.79,1175.03 2120.84,1151.28 2122.89,1104.42 2124.95,1178.78 2127,1155.18 2129.05,1133.58 2131.11,1239.23 2133.16,1139.34 2135.21,1192.97 2137.26,1199.44 2139.32,1180.52 2141.37,1167.46 2143.42,1080.98 2145.48,1157.18 2147.53,1170.35 2149.58,1176.76 2151.63,1226.54 2153.69,1374.99 2155.74,-762.085 2157.79,-5570.65 2159.85,1506.14 2161.9,1294.58 2163.95,1651.55 2166,916.806 2168.06,1193.46 2170.11,1348.67 2172.16,1122.56 2174.22,1023.54 2176.27,1185.02 2178.32,1168.26 2180.37,1171.84 2182.43,1239.06 2184.48,1234.9 2186.53,1069.6 2188.59,1159.32 2190.64,1192.96 2192.69,1210.33 2194.74,1162.93 2196.8,1169.47 2198.85,1122.67 2200.9,1212.99 2202.96,1178.2 2205.01,1191.76 2207.06,1171.18 2209.12,1146.31 2211.17,1175.15 2213.22,1149.79 2215.27,1162.49 2217.33,1177.4 2219.38,1160.37 2221.43,1193.2 2223.49,1164.92 2225.54,1135.97 2227.59,1133.34 2229.64,1119.95 2231.7,1166.89 2233.75,1190.95 2235.8,1163.87 2237.86,1105.28 2239.91,1207.15 2241.96,1156.04 2244.01,1185.71 2246.07,1130.9 2248.12,1287.41 2250.17,1131.37 2252.23,1186.18 2254.28,1373.78 2256.33,1121.25 2258.38,1177.38 2260.44,1140.44 2262.49,1106.85 2264.54,1192.05 2266.6,1144.95 2268.65,1182.26 2270.7,1324.48 2272.75,1142.6 2274.81,983.414 2276.86,981.01 2278.91,1045.98 2280.97,1135.69 2283.02,1097.03 2285.07,-365.158 2287.12,1468.31 2289.18,1479.38 2291.23,747.276 "/>
<path clip-path="url(#clip590)" d="M251.33 1465.14 L588.926 1465.14 L588.926 1361.46 L251.33 1361.46  Z" fill="#ffffff" fill-rule="evenodd" fill-opacity="1"/>
<polyline clip-path="url(#clip590)" style="stroke:#000000; stroke-linecap:round; stroke-linejoin:round; stroke-width:4; stroke-opacity:1; fill:none" points="251.33,1465.14 588.926,1465.14 588.926,1361.46 251.33,1361.46 251.33,1465.14 "/>
<polyline clip-path="url(#clip590)" style="stroke:#009af9; stroke-linecap:round; stroke-linejoin:round; stroke-width:4; stroke-opacity:1; fill:none" points="275.484,1413.3 420.41,1413.3 "/>
<path clip-path="url(#clip590)" d="M470.12 1425.65 L470.12 1416.37 L462.481 1416.37 L462.481 1412.53 L474.749 1412.53 L474.749 1427.36 Q472.041 1429.28 468.777 1430.28 Q465.513 1431.25 461.809 1431.25 Q453.708 1431.25 449.124 1426.53 Q444.564 1421.78 444.564 1413.34 Q444.564 1404.86 449.124 1400.14 Q453.708 1395.4 461.809 1395.4 Q465.189 1395.4 468.221 1396.23 Q471.277 1397.06 473.846 1398.68 L473.846 1403.66 Q471.254 1401.46 468.337 1400.35 Q465.421 1399.24 462.203 1399.24 Q455.86 1399.24 452.666 1402.78 Q449.495 1406.32 449.495 1413.34 Q449.495 1420.33 452.666 1423.87 Q455.86 1427.41 462.203 1427.41 Q464.68 1427.41 466.624 1426.99 Q468.569 1426.55 470.12 1425.65 Z" fill="#000000" fill-rule="nonzero" fill-opacity="1" /><path clip-path="url(#clip590)" d="M487.967 1399.86 L487.967 1412.85 L493.846 1412.85 Q497.11 1412.85 498.893 1411.16 Q500.675 1409.47 500.675 1406.35 Q500.675 1403.24 498.893 1401.55 Q497.11 1399.86 493.846 1399.86 L487.967 1399.86 M483.291 1396.02 L493.846 1396.02 Q499.657 1396.02 502.619 1398.66 Q505.606 1401.28 505.606 1406.35 Q505.606 1411.46 502.619 1414.08 Q499.657 1416.69 493.846 1416.69 L487.967 1416.69 L487.967 1430.58 L483.291 1430.58 L483.291 1396.02 Z" fill="#000000" fill-rule="nonzero" fill-opacity="1" /><path clip-path="url(#clip590)" d="M532.596 1397.16 L532.596 1401.72 Q529.934 1400.44 527.573 1399.82 Q525.212 1399.19 523.013 1399.19 Q519.193 1399.19 517.11 1400.67 Q515.05 1402.16 515.05 1404.89 Q515.05 1407.18 516.416 1408.36 Q517.805 1409.52 521.647 1410.23 L524.471 1410.81 Q529.703 1411.81 532.179 1414.33 Q534.679 1416.83 534.679 1421.04 Q534.679 1426.07 531.3 1428.66 Q527.943 1431.25 521.439 1431.25 Q518.985 1431.25 516.207 1430.7 Q513.453 1430.14 510.49 1429.05 L510.49 1424.24 Q513.337 1425.84 516.068 1426.65 Q518.8 1427.46 521.439 1427.46 Q525.443 1427.46 527.619 1425.88 Q529.795 1424.31 529.795 1421.39 Q529.795 1418.85 528.221 1417.41 Q526.67 1415.97 523.105 1415.26 L520.258 1414.7 Q515.027 1413.66 512.689 1411.44 Q510.351 1409.22 510.351 1405.26 Q510.351 1400.67 513.568 1398.03 Q516.809 1395.4 522.48 1395.4 Q524.911 1395.4 527.434 1395.84 Q529.957 1396.28 532.596 1397.16 Z" fill="#000000" fill-rule="nonzero" fill-opacity="1" /><path clip-path="url(#clip590)" d="M562.689 1397.16 L562.689 1401.72 Q560.027 1400.44 557.665 1399.82 Q555.304 1399.19 553.105 1399.19 Q549.286 1399.19 547.203 1400.67 Q545.142 1402.16 545.142 1404.89 Q545.142 1407.18 546.508 1408.36 Q547.897 1409.52 551.74 1410.23 L554.564 1410.81 Q559.795 1411.81 562.272 1414.33 Q564.772 1416.83 564.772 1421.04 Q564.772 1426.07 561.392 1428.66 Q558.036 1431.25 551.531 1431.25 Q549.078 1431.25 546.3 1430.7 Q543.545 1430.14 540.582 1429.05 L540.582 1424.24 Q543.429 1425.84 546.161 1426.65 Q548.892 1427.46 551.531 1427.46 Q555.536 1427.46 557.712 1425.88 Q559.888 1424.31 559.888 1421.39 Q559.888 1418.85 558.314 1417.41 Q556.763 1415.97 553.198 1415.26 L550.351 1414.7 Q545.119 1413.66 542.781 1411.44 Q540.443 1409.22 540.443 1405.26 Q540.443 1400.67 543.661 1398.03 Q546.902 1395.4 552.573 1395.4 Q555.003 1395.4 557.527 1395.84 Q560.05 1396.28 562.689 1397.16 Z" fill="#000000" fill-rule="nonzero" fill-opacity="1" /></svg>
