<?xml version="1.0" encoding="utf-8"?>
<svg xmlns="http://www.w3.org/2000/svg" xmlns:xlink="http://www.w3.org/1999/xlink" width="600" height="400" viewBox="0 0 2400 1600">
<defs>
  <clipPath id="clip080">
    <rect x="0" y="0" width="2400" height="1600"/>
  </clipPath>
</defs>
<path clip-path="url(#clip080)" d="M0 1600 L2400 1600 L2400 0 L0 0  Z" fill="#ffffff" fill-rule="evenodd" fill-opacity="1"/>
<defs>
  <clipPath id="clip081">
    <rect x="480" y="0" width="1681" height="1600"/>
  </clipPath>
</defs>
<path clip-path="url(#clip080)" d="M178.867 686.448 L2352.76 686.448 L2352.76 47.2441 L178.867 47.2441  Z" fill="#ffffff" fill-rule="evenodd" fill-opacity="1"/>
<defs>
  <clipPath id="clip082">
    <rect x="178" y="47" width="2175" height="640"/>
  </clipPath>
</defs>
<polyline clip-path="url(#clip082)" style="stroke:#000000; stroke-linecap:round; stroke-linejoin:round; stroke-width:2; stroke-opacity:0.1; fill:none" points="238.339,686.448 238.339,47.2441 "/>
<polyline clip-path="url(#clip082)" style="stroke:#000000; stroke-linecap:round; stroke-linejoin:round; stroke-width:2; stroke-opacity:0.1; fill:none" points="751.562,686.448 751.562,47.2441 "/>
<polyline clip-path="url(#clip082)" style="stroke:#000000; stroke-linecap:round; stroke-linejoin:round; stroke-width:2; stroke-opacity:0.1; fill:none" points="1264.78,686.448 1264.78,47.2441 "/>
<polyline clip-path="url(#clip082)" style="stroke:#000000; stroke-linecap:round; stroke-linejoin:round; stroke-width:2; stroke-opacity:0.1; fill:none" points="1778.01,686.448 1778.01,47.2441 "/>
<polyline clip-path="url(#clip082)" style="stroke:#000000; stroke-linecap:round; stroke-linejoin:round; stroke-width:2; stroke-opacity:0.1; fill:none" points="2291.23,686.448 2291.23,47.2441 "/>
<polyline clip-path="url(#clip082)" style="stroke:#000000; stroke-linecap:round; stroke-linejoin:round; stroke-width:2; stroke-opacity:0.1; fill:none" points="178.867,686.448 2352.76,686.448 "/>
<polyline clip-path="url(#clip082)" style="stroke:#000000; stroke-linecap:round; stroke-linejoin:round; stroke-width:2; stroke-opacity:0.1; fill:none" points="178.867,526.647 2352.76,526.647 "/>
<polyline clip-path="url(#clip082)" style="stroke:#000000; stroke-linecap:round; stroke-linejoin:round; stroke-width:2; stroke-opacity:0.1; fill:none" points="178.867,366.846 2352.76,366.846 "/>
<polyline clip-path="url(#clip082)" style="stroke:#000000; stroke-linecap:round; stroke-linejoin:round; stroke-width:2; stroke-opacity:0.1; fill:none" points="178.867,207.045 2352.76,207.045 "/>
<polyline clip-path="url(#clip082)" style="stroke:#000000; stroke-linecap:round; stroke-linejoin:round; stroke-width:2; stroke-opacity:0.1; fill:none" points="178.867,47.2441 2352.76,47.2441 "/>
<polyline clip-path="url(#clip080)" style="stroke:#000000; stroke-linecap:round; stroke-linejoin:round; stroke-width:4; stroke-opacity:1; fill:none" points="178.867,686.448 2352.76,686.448 "/>
<polyline clip-path="url(#clip080)" style="stroke:#000000; stroke-linecap:round; stroke-linejoin:round; stroke-width:4; stroke-opacity:1; fill:none" points="238.339,686.448 238.339,667.55 "/>
<polyline clip-path="url(#clip080)" style="stroke:#000000; stroke-linecap:round; stroke-linejoin:round; stroke-width:4; stroke-opacity:1; fill:none" points="751.562,686.448 751.562,667.55 "/>
<polyline clip-path="url(#clip080)" style="stroke:#000000; stroke-linecap:round; stroke-linejoin:round; stroke-width:4; stroke-opacity:1; fill:none" points="1264.78,686.448 1264.78,667.55 "/>
<polyline clip-path="url(#clip080)" style="stroke:#000000; stroke-linecap:round; stroke-linejoin:round; stroke-width:4; stroke-opacity:1; fill:none" points="1778.01,686.448 1778.01,667.55 "/>
<polyline clip-path="url(#clip080)" style="stroke:#000000; stroke-linecap:round; stroke-linejoin:round; stroke-width:4; stroke-opacity:1; fill:none" points="2291.23,686.448 2291.23,667.55 "/>
<path clip-path="url(#clip080)" d="M238.339 717.367 Q234.728 717.367 232.899 720.931 Q231.094 724.473 231.094 731.603 Q231.094 738.709 232.899 742.274 Q234.728 745.815 238.339 745.815 Q241.973 745.815 243.779 742.274 Q245.607 738.709 245.607 731.603 Q245.607 724.473 243.779 720.931 Q241.973 717.367 238.339 717.367 M238.339 713.663 Q244.149 713.663 247.205 718.269 Q250.283 722.853 250.283 731.603 Q250.283 740.329 247.205 744.936 Q244.149 749.519 238.339 749.519 Q232.529 749.519 229.45 744.936 Q226.395 740.329 226.395 731.603 Q226.395 722.853 229.45 718.269 Q232.529 713.663 238.339 713.663 Z" fill="#000000" fill-rule="nonzero" fill-opacity="1" /><path clip-path="url(#clip080)" d="M715.254 744.913 L731.574 744.913 L731.574 748.848 L709.629 748.848 L709.629 744.913 Q712.291 742.158 716.875 737.528 Q721.481 732.876 722.662 731.533 Q724.907 729.01 725.787 727.274 Q726.689 725.515 726.689 723.825 Q726.689 721.07 724.745 719.334 Q722.824 717.598 719.722 717.598 Q717.523 717.598 715.069 718.362 Q712.638 719.126 709.861 720.677 L709.861 715.955 Q712.685 714.82 715.138 714.242 Q717.592 713.663 719.629 713.663 Q725 713.663 728.194 716.348 Q731.388 719.033 731.388 723.524 Q731.388 725.654 730.578 727.575 Q729.791 729.473 727.685 732.066 Q727.106 732.737 724.004 735.954 Q720.902 739.149 715.254 744.913 Z" fill="#000000" fill-rule="nonzero" fill-opacity="1" /><path clip-path="url(#clip080)" d="M741.435 714.288 L759.791 714.288 L759.791 718.223 L745.717 718.223 L745.717 726.695 Q746.736 726.348 747.754 726.186 Q748.773 726.001 749.791 726.001 Q755.578 726.001 758.958 729.172 Q762.337 732.343 762.337 737.76 Q762.337 743.339 758.865 746.44 Q755.393 749.519 749.073 749.519 Q746.898 749.519 744.629 749.149 Q742.384 748.778 739.976 748.038 L739.976 743.339 Q742.06 744.473 744.282 745.028 Q746.504 745.584 748.981 745.584 Q752.985 745.584 755.323 743.478 Q757.661 741.371 757.661 737.76 Q757.661 734.149 755.323 732.042 Q752.985 729.936 748.981 729.936 Q747.106 729.936 745.231 730.353 Q743.379 730.769 741.435 731.649 L741.435 714.288 Z" fill="#000000" fill-rule="nonzero" fill-opacity="1" /><path clip-path="url(#clip080)" d="M781.55 717.367 Q777.939 717.367 776.11 720.931 Q774.305 724.473 774.305 731.603 Q774.305 738.709 776.11 742.274 Q777.939 745.815 781.55 745.815 Q785.184 745.815 786.99 742.274 Q788.819 738.709 788.819 731.603 Q788.819 724.473 786.99 720.931 Q785.184 717.367 781.55 717.367 M781.55 713.663 Q787.36 713.663 790.416 718.269 Q793.495 722.853 793.495 731.603 Q793.495 740.329 790.416 744.936 Q787.36 749.519 781.55 749.519 Q775.74 749.519 772.661 744.936 Q769.606 740.329 769.606 731.603 Q769.606 722.853 772.661 718.269 Q775.74 713.663 781.55 713.663 Z" fill="#000000" fill-rule="nonzero" fill-opacity="1" /><path clip-path="url(#clip080)" d="M1224.4 714.288 L1242.76 714.288 L1242.76 718.223 L1228.69 718.223 L1228.69 726.695 Q1229.7 726.348 1230.72 726.186 Q1231.74 726.001 1232.76 726.001 Q1238.55 726.001 1241.93 729.172 Q1245.31 732.343 1245.31 737.76 Q1245.31 743.339 1241.83 746.44 Q1238.36 749.519 1232.04 749.519 Q1229.87 749.519 1227.6 749.149 Q1225.35 748.778 1222.94 748.038 L1222.94 743.339 Q1225.03 744.473 1227.25 745.028 Q1229.47 745.584 1231.95 745.584 Q1235.95 745.584 1238.29 743.478 Q1240.63 741.371 1240.63 737.76 Q1240.63 734.149 1238.29 732.042 Q1235.95 729.936 1231.95 729.936 Q1230.07 729.936 1228.2 730.353 Q1226.35 730.769 1224.4 731.649 L1224.4 714.288 Z" fill="#000000" fill-rule="nonzero" fill-opacity="1" /><path clip-path="url(#clip080)" d="M1264.52 717.367 Q1260.91 717.367 1259.08 720.931 Q1257.27 724.473 1257.27 731.603 Q1257.27 738.709 1259.08 742.274 Q1260.91 745.815 1264.52 745.815 Q1268.15 745.815 1269.96 742.274 Q1271.79 738.709 1271.79 731.603 Q1271.79 724.473 1269.96 720.931 Q1268.15 717.367 1264.52 717.367 M1264.52 713.663 Q1270.33 713.663 1273.38 718.269 Q1276.46 722.853 1276.46 731.603 Q1276.46 740.329 1273.38 744.936 Q1270.33 749.519 1264.52 749.519 Q1258.71 749.519 1255.63 744.936 Q1252.57 740.329 1252.57 731.603 Q1252.57 722.853 1255.63 718.269 Q1258.71 713.663 1264.52 713.663 Z" fill="#000000" fill-rule="nonzero" fill-opacity="1" /><path clip-path="url(#clip080)" d="M1294.68 717.367 Q1291.07 717.367 1289.24 720.931 Q1287.44 724.473 1287.44 731.603 Q1287.44 738.709 1289.24 742.274 Q1291.07 745.815 1294.68 745.815 Q1298.31 745.815 1300.12 742.274 Q1301.95 738.709 1301.95 731.603 Q1301.95 724.473 1300.12 720.931 Q1298.31 717.367 1294.68 717.367 M1294.68 713.663 Q1300.49 713.663 1303.55 718.269 Q1306.62 722.853 1306.62 731.603 Q1306.62 740.329 1303.55 744.936 Q1300.49 749.519 1294.68 749.519 Q1288.87 749.519 1285.79 744.936 Q1282.74 740.329 1282.74 731.603 Q1282.74 722.853 1285.79 718.269 Q1288.87 713.663 1294.68 713.663 Z" fill="#000000" fill-rule="nonzero" fill-opacity="1" /><path clip-path="url(#clip080)" d="M1736.28 714.288 L1758.51 714.288 L1758.51 716.279 L1745.96 748.848 L1741.08 748.848 L1752.88 718.223 L1736.28 718.223 L1736.28 714.288 Z" fill="#000000" fill-rule="nonzero" fill-opacity="1" /><path clip-path="url(#clip080)" d="M1767.67 714.288 L1786.03 714.288 L1786.03 718.223 L1771.95 718.223 L1771.95 726.695 Q1772.97 726.348 1773.99 726.186 Q1775.01 726.001 1776.03 726.001 Q1781.82 726.001 1785.2 729.172 Q1788.57 732.343 1788.57 737.76 Q1788.57 743.339 1785.1 746.44 Q1781.63 749.519 1775.31 749.519 Q1773.14 749.519 1770.87 749.149 Q1768.62 748.778 1766.21 748.038 L1766.21 743.339 Q1768.3 744.473 1770.52 745.028 Q1772.74 745.584 1775.22 745.584 Q1779.22 745.584 1781.56 743.478 Q1783.9 741.371 1783.9 737.76 Q1783.9 734.149 1781.56 732.042 Q1779.22 729.936 1775.22 729.936 Q1773.34 729.936 1771.47 730.353 Q1769.62 730.769 1767.67 731.649 L1767.67 714.288 Z" fill="#000000" fill-rule="nonzero" fill-opacity="1" /><path clip-path="url(#clip080)" d="M1807.79 717.367 Q1804.18 717.367 1802.35 720.931 Q1800.54 724.473 1800.54 731.603 Q1800.54 738.709 1802.35 742.274 Q1804.18 745.815 1807.79 745.815 Q1811.42 745.815 1813.23 742.274 Q1815.06 738.709 1815.06 731.603 Q1815.06 724.473 1813.23 720.931 Q1811.42 717.367 1807.79 717.367 M1807.79 713.663 Q1813.6 713.663 1816.65 718.269 Q1819.73 722.853 1819.73 731.603 Q1819.73 740.329 1816.65 744.936 Q1813.6 749.519 1807.79 749.519 Q1801.98 749.519 1798.9 744.936 Q1795.84 740.329 1795.84 731.603 Q1795.84 722.853 1798.9 718.269 Q1801.98 713.663 1807.79 713.663 Z" fill="#000000" fill-rule="nonzero" fill-opacity="1" /><path clip-path="url(#clip080)" d="M2235.76 744.913 L2243.4 744.913 L2243.4 718.547 L2235.09 720.214 L2235.09 715.955 L2243.35 714.288 L2248.02 714.288 L2248.02 744.913 L2255.66 744.913 L2255.66 748.848 L2235.76 748.848 L2235.76 744.913 Z" fill="#000000" fill-rule="nonzero" fill-opacity="1" /><path clip-path="url(#clip080)" d="M2275.11 717.367 Q2271.5 717.367 2269.67 720.931 Q2267.86 724.473 2267.86 731.603 Q2267.86 738.709 2269.67 742.274 Q2271.5 745.815 2275.11 745.815 Q2278.74 745.815 2280.55 742.274 Q2282.38 738.709 2282.38 731.603 Q2282.38 724.473 2280.55 720.931 Q2278.74 717.367 2275.11 717.367 M2275.11 713.663 Q2280.92 713.663 2283.97 718.269 Q2287.05 722.853 2287.05 731.603 Q2287.05 740.329 2283.97 744.936 Q2280.92 749.519 2275.11 749.519 Q2269.3 749.519 2266.22 744.936 Q2263.16 740.329 2263.16 731.603 Q2263.16 722.853 2266.22 718.269 Q2269.3 713.663 2275.11 713.663 Z" fill="#000000" fill-rule="nonzero" fill-opacity="1" /><path clip-path="url(#clip080)" d="M2305.27 717.367 Q2301.66 717.367 2299.83 720.931 Q2298.02 724.473 2298.02 731.603 Q2298.02 738.709 2299.83 742.274 Q2301.66 745.815 2305.27 745.815 Q2308.9 745.815 2310.71 742.274 Q2312.54 738.709 2312.54 731.603 Q2312.54 724.473 2310.71 720.931 Q2308.9 717.367 2305.27 717.367 M2305.27 713.663 Q2311.08 713.663 2314.14 718.269 Q2317.21 722.853 2317.21 731.603 Q2317.21 740.329 2314.14 744.936 Q2311.08 749.519 2305.27 749.519 Q2299.46 749.519 2296.38 744.936 Q2293.33 740.329 2293.33 731.603 Q2293.33 722.853 2296.38 718.269 Q2299.46 713.663 2305.27 713.663 Z" fill="#000000" fill-rule="nonzero" fill-opacity="1" /><path clip-path="url(#clip080)" d="M2335.43 717.367 Q2331.82 717.367 2329.99 720.931 Q2328.19 724.473 2328.19 731.603 Q2328.19 738.709 2329.99 742.274 Q2331.82 745.815 2335.43 745.815 Q2339.07 745.815 2340.87 742.274 Q2342.7 738.709 2342.7 731.603 Q2342.7 724.473 2340.87 720.931 Q2339.07 717.367 2335.43 717.367 M2335.43 713.663 Q2341.24 713.663 2344.3 718.269 Q2347.38 722.853 2347.38 731.603 Q2347.38 740.329 2344.3 744.936 Q2341.24 749.519 2335.43 749.519 Q2329.62 749.519 2326.54 744.936 Q2323.49 740.329 2323.49 731.603 Q2323.49 722.853 2326.54 718.269 Q2329.62 713.663 2335.43 713.663 Z" fill="#000000" fill-rule="nonzero" fill-opacity="1" /><polyline clip-path="url(#clip080)" style="stroke:#000000; stroke-linecap:round; stroke-linejoin:round; stroke-width:4; stroke-opacity:1; fill:none" points="178.867,686.448 178.867,47.2441 "/>
<polyline clip-path="url(#clip080)" style="stroke:#000000; stroke-linecap:round; stroke-linejoin:round; stroke-width:4; stroke-opacity:1; fill:none" points="178.867,686.448 197.764,686.448 "/>
<polyline clip-path="url(#clip080)" style="stroke:#000000; stroke-linecap:round; stroke-linejoin:round; stroke-width:4; stroke-opacity:1; fill:none" points="178.867,526.647 197.764,526.647 "/>
<polyline clip-path="url(#clip080)" style="stroke:#000000; stroke-linecap:round; stroke-linejoin:round; stroke-width:4; stroke-opacity:1; fill:none" points="178.867,366.846 197.764,366.846 "/>
<polyline clip-path="url(#clip080)" style="stroke:#000000; stroke-linecap:round; stroke-linejoin:round; stroke-width:4; stroke-opacity:1; fill:none" points="178.867,207.045 197.764,207.045 "/>
<polyline clip-path="url(#clip080)" style="stroke:#000000; stroke-linecap:round; stroke-linejoin:round; stroke-width:4; stroke-opacity:1; fill:none" points="178.867,47.2441 197.764,47.2441 "/>
<path clip-path="url(#clip080)" d="M50.9921 686.899 L80.6679 686.899 L80.6679 690.834 L50.9921 690.834 L50.9921 686.899 Z" fill="#000000" fill-rule="nonzero" fill-opacity="1" /><path clip-path="url(#clip080)" d="M91.5706 699.793 L99.2095 699.793 L99.2095 673.427 L90.8993 675.094 L90.8993 670.835 L99.1632 669.168 L103.839 669.168 L103.839 699.793 L111.478 699.793 L111.478 703.728 L91.5706 703.728 L91.5706 699.793 Z" fill="#000000" fill-rule="nonzero" fill-opacity="1" /><path clip-path="url(#clip080)" d="M130.922 672.247 Q127.311 672.247 125.482 675.811 Q123.677 679.353 123.677 686.483 Q123.677 693.589 125.482 697.154 Q127.311 700.695 130.922 700.695 Q134.556 700.695 136.362 697.154 Q138.191 693.589 138.191 686.483 Q138.191 679.353 136.362 675.811 Q134.556 672.247 130.922 672.247 M130.922 668.543 Q136.732 668.543 139.788 673.149 Q142.867 677.733 142.867 686.483 Q142.867 695.209 139.788 699.816 Q136.732 704.399 130.922 704.399 Q125.112 704.399 122.033 699.816 Q118.978 695.209 118.978 686.483 Q118.978 677.733 122.033 673.149 Q125.112 668.543 130.922 668.543 Z" fill="#000000" fill-rule="nonzero" fill-opacity="1" /><path clip-path="url(#clip080)" d="M82.1494 527.098 L111.825 527.098 L111.825 531.033 L82.1494 531.033 L82.1494 527.098 Z" fill="#000000" fill-rule="nonzero" fill-opacity="1" /><path clip-path="url(#clip080)" d="M121.964 509.367 L140.32 509.367 L140.32 513.302 L126.246 513.302 L126.246 521.774 Q127.265 521.427 128.283 521.265 Q129.302 521.08 130.32 521.08 Q136.107 521.08 139.487 524.251 Q142.867 527.422 142.867 532.839 Q142.867 538.418 139.394 541.52 Q135.922 544.598 129.603 544.598 Q127.427 544.598 125.158 544.228 Q122.913 543.857 120.506 543.117 L120.506 538.418 Q122.589 539.552 124.811 540.108 Q127.033 540.663 129.51 540.663 Q133.515 540.663 135.853 538.557 Q138.191 536.45 138.191 532.839 Q138.191 529.228 135.853 527.121 Q133.515 525.015 129.51 525.015 Q127.635 525.015 125.76 525.432 Q123.908 525.848 121.964 526.728 L121.964 509.367 Z" fill="#000000" fill-rule="nonzero" fill-opacity="1" /><path clip-path="url(#clip080)" d="M130.922 352.645 Q127.311 352.645 125.482 356.209 Q123.677 359.751 123.677 366.881 Q123.677 373.987 125.482 377.552 Q127.311 381.094 130.922 381.094 Q134.556 381.094 136.362 377.552 Q138.191 373.987 138.191 366.881 Q138.191 359.751 136.362 356.209 Q134.556 352.645 130.922 352.645 M130.922 348.941 Q136.732 348.941 139.788 353.547 Q142.867 358.131 142.867 366.881 Q142.867 375.608 139.788 380.214 Q136.732 384.797 130.922 384.797 Q125.112 384.797 122.033 380.214 Q118.978 375.608 118.978 366.881 Q118.978 358.131 122.033 353.547 Q125.112 348.941 130.922 348.941 Z" fill="#000000" fill-rule="nonzero" fill-opacity="1" /><path clip-path="url(#clip080)" d="M121.964 189.765 L140.32 189.765 L140.32 193.7 L126.246 193.7 L126.246 202.172 Q127.265 201.825 128.283 201.663 Q129.302 201.478 130.32 201.478 Q136.107 201.478 139.487 204.649 Q142.867 207.82 142.867 213.237 Q142.867 218.816 139.394 221.918 Q135.922 224.996 129.603 224.996 Q127.427 224.996 125.158 224.626 Q122.913 224.256 120.506 223.515 L120.506 218.816 Q122.589 219.95 124.811 220.506 Q127.033 221.061 129.51 221.061 Q133.515 221.061 135.853 218.955 Q138.191 216.848 138.191 213.237 Q138.191 209.626 135.853 207.52 Q133.515 205.413 129.51 205.413 Q127.635 205.413 125.76 205.83 Q123.908 206.246 121.964 207.126 L121.964 189.765 Z" fill="#000000" fill-rule="nonzero" fill-opacity="1" /><path clip-path="url(#clip080)" d="M91.5706 60.5889 L99.2095 60.5889 L99.2095 34.2233 L90.8993 35.89 L90.8993 31.6308 L99.1632 29.9641 L103.839 29.9641 L103.839 60.5889 L111.478 60.5889 L111.478 64.5241 L91.5706 64.5241 L91.5706 60.5889 Z" fill="#000000" fill-rule="nonzero" fill-opacity="1" /><path clip-path="url(#clip080)" d="M130.922 33.0428 Q127.311 33.0428 125.482 36.6076 Q123.677 40.1492 123.677 47.2788 Q123.677 54.3853 125.482 57.9501 Q127.311 61.4917 130.922 61.4917 Q134.556 61.4917 136.362 57.9501 Q138.191 54.3853 138.191 47.2788 Q138.191 40.1492 136.362 36.6076 Q134.556 33.0428 130.922 33.0428 M130.922 29.3391 Q136.732 29.3391 139.788 33.9456 Q142.867 38.5289 142.867 47.2788 Q142.867 56.0056 139.788 60.6121 Q136.732 65.1954 130.922 65.1954 Q125.112 65.1954 122.033 60.6121 Q118.978 56.0056 118.978 47.2788 Q118.978 38.5289 122.033 33.9456 Q125.112 29.3391 130.922 29.3391 Z" fill="#000000" fill-rule="nonzero" fill-opacity="1" /><polyline clip-path="url(#clip082)" style="stroke:#009af9; stroke-linecap:round; stroke-linejoin:round; stroke-width:4; stroke-opacity:1; fill:none" points="240.392,334.886 242.445,341.566 244.498,370.374 246.55,409.516 248.603,409.87 250.656,409.389 252.709,409.459 254.762,391.382 256.815,367.216 258.868,352.991 260.921,358.221 262.974,358.986 265.027,359.525 267.079,359.945 269.132,361.392 271.185,362.083 273.238,364.451 275.291,391.743 277.344,390.754 279.397,387.675 281.45,386.774 283.503,390.09 285.555,389.242 287.608,392.123 289.661,390.903 291.714,397.24 293.767,370.377 295.82,371.584 297.873,360.929 299.926,353.751 301.979,356.553 304.031,356.586 306.084,345.896 308.137,341.691 310.19,341.953 312.243,340.647 314.296,361.378 316.349,360.475 318.402,363.586 320.455,364.63 322.507,363.805 324.56,364.246 326.613,358.613 328.666,357.552 330.719,358.339 332.772,358.786 334.825,353.061 336.878,358.284 338.931,357.032 340.984,356.789 343.036,368.55 345.089,348.882 347.142,341.876 349.195,351.961 351.248,351.472 353.301,359.392 355.354,359.879 357.407,359.651 359.46,358.401 361.512,351.109 363.565,352.201 365.618,348.09 367.671,353.046 369.724,368.06 371.777,367.799 373.83,369.84 375.883,369.985 377.936,381.972 379.988,383.945 382.041,381.225 384.094,382.179 386.147,382.167 388.2,383.153 390.253,383.15 392.306,357.654 394.359,354.589 396.412,346.754 398.464,347.386 400.517,378.396 402.57,373.076 404.623,373.54 406.676,374.669 408.729,369.503 410.782,372.25 412.835,374.966 414.888,375.444 416.94,375.26 418.993,375.298 421.046,375.298 423.099,392.3 425.152,391.385 427.205,389.191 429.258,389.767 431.311,389.781 433.364,388.349 435.417,388.324 437.469,357.731 439.522,364.348 441.575,367.033 443.628,355.417 445.681,354.628 447.734,349.059 449.787,350.101 451.84,346.3 453.893,347.233 455.945,347.235 457.998,347.36 460.051,347.369 462.104,375.079 464.157,391.201 466.21,388.905 468.263,388.325 470.316,378.344 472.369,378.829 474.421,374.324 476.474,374.072 478.527,374.072 480.58,369.562 482.633,365.73 484.686,348.748 486.739,379.998 488.792,380.437 490.845,363.676 492.897,365.258 494.95,353.871 497.003,348.144 499.056,342.964 501.109,336.296 503.162,382.739 505.215,402.52 507.268,402.568 509.321,405.203 511.374,405.078 513.426,406.607 515.479,406.484 517.532,390.435 519.585,371.623 521.638,373.664 523.691,374.492 525.744,372.273 527.797,374.048 529.85,374.066 531.902,373.888 533.955,374.579 536.008,357.138 538.061,355.938 540.114,357.459 542.167,373.407 544.22,374.25 546.273,361.091 548.326,361.672 550.378,361.554 552.431,359.479 554.484,353.44 556.537,357.428 558.59,357.771 560.643,358.896 562.696,362.176 564.749,360.681 566.802,354.413 568.854,354.044 570.907,359.334 572.96,371.279 575.013,370.879 577.066,370.946 579.119,370.599 581.172,366.329 583.225,366.838 585.278,365.988 587.331,372.216 589.383,349.457 591.436,322.517 593.489,322.57 595.542,322.207 597.595,330.003 599.648,308.493 601.701,308.93 603.754,308.793 605.807,308.864 607.859,360.812 609.912,372.742 611.965,362.949 614.018,362.882 616.071,361.789 618.124,361.037 620.177,348.769 622.23,350.267 624.283,350.986 626.335,361.053 628.388,382.599 630.441,386.403 632.494,385.956 634.547,403.762 636.6,400.391 638.653,400.728 640.706,399.793 642.759,390.164 644.811,390.15 646.864,390.909 648.917,389.079 650.97,430.216 653.023,412.327 655.076,416.388 657.129,416.163 659.182,397.871 661.235,398.96 663.288,399.455 665.34,398.086 667.393,398.011 669.446,398.006 671.499,397.671 673.552,397.762 675.605,394.229 677.658,406.351 679.711,362.758 681.764,357.125 683.816,352.513 685.869,349.198 687.922,348.262 689.975,348.712 692.028,332.783 694.081,332.712 696.134,348.714 698.187,348.49 700.24,353.947 702.292,331.338 704.345,332.588 706.398,328.634 708.451,305.332 710.504,345.394 712.557,355.259 714.61,337.14 716.663,337.395 718.716,309.899 720.768,308.994 722.821,306.748 724.874,306.709 726.927,316.99 728.98,328.326 731.033,330.116 733.086,333.132 735.139,336.005 737.192,353.697 739.245,351.341 741.297,353.329 743.35,353.24 745.403,353.128 747.456,349.889 749.509,350.479 751.562,350.091 753.615,360.271 755.668,359.421 757.721,359.417 759.773,364.052 761.826,364.758 763.879,366.334 765.932,370.637 767.985,368.613 770.038,367.25 772.091,371.718 774.144,371.498 776.197,370.552 778.249,366.294 780.302,357.751 782.355,357.972 784.408,379.841 786.461,383.557 788.514,365.734 790.567,375.578 792.62,365.619 794.673,365.912 796.725,393.958 798.778,400.13 800.831,399.394 802.884,400.116 804.937,399.709 806.99,395.611 809.043,404.489 811.096,402.522 813.149,402.994 815.202,406.068 817.254,405.683 819.307,411.189 821.36,408.419 823.413,349.922 825.466,349.058 827.519,350.42 829.572,341.338 831.625,338.894 833.678,342.71 835.73,341.625 837.783,341.704 839.836,341.735 841.889,342.449 843.942,347.646 845.995,346.873 848.048,399.395 850.101,368.323 852.154,368.499 854.206,367.861 856.259,367.895 858.312,368.005 860.365,367.773 862.418,373.942 864.471,374.646 866.524,370.441 868.577,375.162 870.63,376.957 872.682,364.01 874.735,372.573 876.788,387.181 878.841,377.543 880.894,372.685 882.947,369.712 885,372.665 887.053,382.394 889.106,382.469 891.159,372.875 893.211,367.777 895.264,369.763 897.317,369.356 899.37,366.967 901.423,335.983 903.476,332.599 905.529,329.208 907.582,373.044 909.635,373.941 911.687,378.791 913.74,374.73 915.793,351.992 917.846,362.84 919.899,361.21 921.952,359.671 924.005,359.55 926.058,360.404 928.111,360.259 930.163,367.661 932.216,361.515 934.269,369.393 936.322,369.655 938.375,369.824 940.428,367.203 942.481,366.546 944.534,374.069 946.587,373.969 948.639,374.252 950.692,374.315 952.745,376.534 954.798,363.986 956.851,373.052 958.904,369.585 960.957,369.599 963.01,372.835 965.063,368.803 967.116,361.135 969.168,361.712 971.221,359.288 973.274,358.781 975.327,371.682 977.38,368.674 979.433,360.096 981.486,360.979 983.539,365.325 985.592,365.324 987.644,373.3 989.697,379.458 991.75,378.981 993.803,378.645 995.856,378.644 997.909,378.474 999.962,376.93 1002.01,358.574 1004.07,380.13 1006.12,401.406 1008.17,398.48 1010.23,381.818 1012.28,391.044 1014.33,405.261 1016.38,409.604 1018.44,393.915 1020.49,369.092 1022.54,368.957 1024.6,365.169 1026.65,362.462 1028.7,367.535 1030.76,365.116 1032.81,365.82 1034.86,366.804 1036.91,361.228 1038.97,361.158 1041.02,361.136 1043.07,350.574 1045.13,350.219 1047.18,350.226 1049.23,360.47 1051.28,373.185 1053.34,381.091 1055.39,379.116 1057.44,385.71 1059.5,386.433 1061.55,386.838 1063.6,359.287 1065.65,359.843 1067.71,367.999 1069.76,364.914 1071.81,368.746 1073.87,400.9 1075.92,399.944 1077.97,400.722 1080.02,385.546 1082.08,385.534 1084.13,382.976 1086.18,382.161 1088.24,380.33 1090.29,387.549 1092.34,389.068 1094.39,407.402 1096.45,398.741 1098.5,397.875 1100.55,388.029 1102.61,392.279 1104.66,392.186 1106.71,395.161 1108.77,398.005 1110.82,397.225 1112.87,396.674 1114.92,351.242 1116.98,347.993 1119.03,346.627 1121.08,345.841 1123.14,407.304 1125.19,407.528 1127.24,408.237 1129.29,409.401 1131.35,399.887 1133.4,402.859 1135.45,404.139 1137.51,403.863 1139.56,400.733 1141.61,386.229 1143.66,386.161 1145.72,388.842 1147.77,388.652 1149.82,363.828 1151.88,363.66 1153.93,355.248 1155.98,356.65 1158.03,356.817 1160.09,356.994 1162.14,366.462 1164.19,364.401 1166.25,360.336 1168.3,387.623 1170.35,387.295 1172.4,386.727 1174.46,406.29 1176.51,353.031 1178.56,344.124 1180.62,382.262 1182.67,387.347 1184.72,390.939 1186.77,391.675 1188.83,391.7 1190.88,392.106 1192.93,392.491 1194.99,397.086 1197.04,398.815 1199.09,399.663 1201.15,402.917 1203.2,402.679 1205.25,400.606 1207.3,397.117 1209.36,397.908 1211.41,397.425 1213.46,397.438 1215.52,397.374 1217.57,397.35 1219.62,400.748 1221.67,364.146 1223.73,364.344 1225.78,364.568 1227.83,422.306 1229.89,421.562 1231.94,415.627 1233.99,436.036 1236.04,429.274 1238.1,399.841 1240.15,399.888 1242.2,388.803 1244.26,348.759 1246.31,340.662 1248.36,301.197 1250.41,311.674 1252.47,294.916 1254.52,286.902 1256.57,290.825 1258.63,283.797 1260.68,283.264 1262.73,262.595 1264.78,387.252 1266.84,384.438 1268.89,386.175 1270.94,384.373 1273,381.496 1275.05,383.79 1277.1,383.771 1279.16,398.686 1281.21,402.323 1283.26,404.684 1285.31,445.777 1287.37,395.374 1289.42,387.183 1291.47,376.503 1293.53,379.1 1295.58,383.215 1297.63,386.393 1299.68,385.973 1301.74,382.003 1303.79,384.591 1305.84,384.255 1307.9,391.866 1309.95,381.887 1312,360.858 1314.05,400.554 1316.11,403.245 1318.16,363.206 1320.21,364.41 1322.27,362.869 1324.32,367.724 1326.37,357.413 1328.42,376.459 1330.48,360.498 1332.53,347.428 1334.58,347.82 1336.64,373.82 1338.69,392.385 1340.74,391.515 1342.79,393.412 1344.85,389.238 1346.9,389.881 1348.95,386.015 1351.01,427.96 1353.06,363.14 1355.11,362.845 1357.16,365.196 1359.22,439.225 1361.27,440.476 1363.32,423.969 1365.38,393.107 1367.43,385.755 1369.48,385.686 1371.54,412.941 1373.59,413.459 1375.64,426.958 1377.69,417.485 1379.75,413.598 1381.8,377.041 1383.85,393.47 1385.91,426.588 1387.96,363.144 1390.01,225.288 1392.06,240.328 1394.12,243.145 1396.17,245.784 1398.22,360.572 1400.28,251.012 1402.33,254.06 1404.38,239.941 1406.43,236.099 1408.49,237.178 1410.54,270.16 1412.59,268.802 1414.65,287.427 1416.7,282.933 1418.75,325.538 1420.8,325.883 1422.86,320.932 1424.91,322.109 1426.96,322.107 1429.02,317.514 1431.07,316.348 1433.12,310.244 1435.17,298.617 1437.23,276.326 1439.28,292.317 1441.33,279.801 1443.39,284.951 1445.44,293.556 1447.49,309.419 1449.55,309.482 1451.6,305.183 1453.65,316.059 1455.7,315.98 1457.76,260.602 1459.81,306.71 1461.86,295.346 1463.92,342.601 1465.97,340.764 1468.02,284.458 1470.07,276.039 1472.13,287.946 1474.18,287.909 1476.23,182.377 1478.29,263.27 1480.34,313.519 1482.39,312.191 1484.44,308.991 1486.5,277.062 1488.55,270.98 1490.6,275.996 1492.66,276.383 1494.71,326.244 1496.76,318.862 1498.81,316.689 1500.87,262.568 1502.92,269.846 1504.97,256.963 1507.03,255.36 1509.08,292.692 1511.13,290.626 1513.18,290.769 1515.24,285.681 1517.29,283.221 1519.34,291.215 1521.4,281.164 1523.45,295.307 1525.5,292.684 1527.55,324.934 1529.61,325.626 1531.66,379.832 1533.71,377.595 1535.77,379.946 1537.82,379.193 1539.87,370.133 1541.93,320.785 1543.98,310.903 1546.03,348.758 1548.08,346.233 1550.14,391.511 1552.19,450.137 1554.24,446.643 1556.3,446.864 1558.35,444.309 1560.4,440.101 1562.45,440.403 1564.51,381.932 1566.56,380.094 1568.61,388.356 1570.67,388.846 1572.72,332.139 1574.77,343.944 1576.82,343.797 1578.88,348.442 1580.93,349.756 1582.98,348.508 1585.04,351.703 1587.09,372.79 1589.14,376.498 1591.19,385.036 1593.25,399.307 1595.3,390.087 1597.35,390.185 1599.41,353.977 1601.46,355.568 1603.51,360.73 1605.56,360.938 1607.62,380.196 1609.67,316.417 1611.72,316.944 1613.78,324.329 1615.83,325.617 1617.88,329.086 1619.94,339.221 1621.99,339.089 1624.04,338.487 1626.09,339.044 1628.15,333.764 1630.2,333.618 1632.25,339.192 1634.31,332.008 1636.36,332.048 1638.41,332.595 1640.46,332.247 1642.52,366.476 1644.57,341.678 1646.62,342.903 1648.68,335.349 1650.73,367.27 1652.78,371.689 1654.83,377.852 1656.89,391.52 1658.94,393.635 1660.99,377.407 1663.05,372.969 1665.1,372.886 1667.15,372.886 1669.2,347.439 1671.26,348.121 1673.31,348.874 1675.36,349.052 1677.42,348.945 1679.47,348.749 1681.52,351.982 1683.57,352.167 1685.63,352.033 1687.68,350.062 1689.73,349.879 1691.79,351.639 1693.84,350.532 1695.89,350.518 1697.94,352.788 1700,353.434 1702.05,353.856 1704.1,353.865 1706.16,353.765 1708.21,351.766 1710.26,360.426 1712.32,361.087 1714.37,362.641 1716.42,362.646 1718.47,367.466 1720.53,383.33 1722.58,381.981 1724.63,381.78 1726.69,382.243 1728.74,381.652 1730.79,389.989 1732.84,394.5 1734.9,395.867 1736.95,376.331 1739,377.336 1741.06,376.77 1743.11,376.697 1745.16,376.547 1747.21,373.287 1749.27,367.973 1751.32,371.524 1753.37,357.983 1755.43,348.273 1757.48,348.554 1759.53,348.576 1761.58,349.108 1763.64,347.116 1765.69,346.98 1767.74,346.238 1769.8,346.236 1771.85,346.235 1773.9,346.233 1775.95,344.998 1778.01,350.764 1780.06,350.875 1782.11,350.863 1784.17,342.633 1786.22,350.997 1788.27,349.508 1790.33,348.628 1792.38,348.485 1794.43,360.56 1796.48,360.81 1798.54,360.787 1800.59,383.809 1802.64,387.531 1804.7,384.201 1806.75,374.486 1808.8,370.071 1810.85,381.406 1812.91,380.462 1814.96,371.785 1817.01,353.015 1819.07,352.753 1821.12,354.653 1823.17,408.17 1825.22,407.917 1827.28,367.963 1829.33,368.077 1831.38,373.07 1833.44,335.167 1835.49,369.467 1837.54,366.928 1839.59,374.95 1841.65,372.681 1843.7,335.922 1845.75,346.609 1847.81,345.367 1849.86,343.221 1851.91,342.294 1853.96,342.428 1856.02,345.718 1858.07,348.598 1860.12,347.285 1862.18,354.875 1864.23,376.383 1866.28,375.78 1868.34,381.208 1870.39,388.608 1872.44,405.072 1874.49,404.865 1876.55,399.249 1878.6,397.694 1880.65,355.295 1882.71,338.049 1884.76,349.828 1886.81,354.169 1888.86,362.289 1890.92,363.362 1892.97,362.919 1895.02,382.706 1897.08,388.307 1899.13,386.731 1901.18,372.241 1903.23,350.741 1905.29,378.624 1907.34,382.441 1909.39,391.66 1911.45,422.171 1913.5,422.628 1915.55,403.109 1917.6,430.528 1919.66,430.021 1921.71,420.215 1923.76,422.659 1925.82,364.004 1927.87,370.977 1929.92,363.2 1931.97,366.322 1934.03,366.92 1936.08,364.005 1938.13,414.532 1940.19,413.729 1942.24,414.309 1944.29,414.398 1946.34,410.81 1948.4,410.848 1950.45,383.187 1952.5,382.049 1954.56,382.618 1956.61,382.827 1958.66,385.185 1960.72,386.257 1962.77,383.608 1964.82,382.286 1966.87,371.976 1968.93,366.43 1970.98,367.898 1973.03,368.76 1975.09,366.806 1977.14,350.511 1979.19,352.322 1981.24,355.291 1983.3,361.623 1985.35,361.72 1987.4,351.98 1989.46,351.978 1991.51,377.467 1993.56,381.887 1995.61,382.166 1997.67,376.487 1999.72,376.313 2001.77,372.734 2003.83,366.211 2005.88,367.404 2007.93,362.614 2009.98,370.166 2012.04,377.987 2014.09,378.555 2016.14,356.807 2018.2,356.049 2020.25,356.669 2022.3,358.206 2024.35,357.79 2026.41,357.935 2028.46,358.022 2030.51,364.94 2032.57,370.073 2034.62,369.511 2036.67,370.982 2038.73,371.085 2040.78,372.347 2042.83,370.649 2044.88,376.888 2046.94,377.01 2048.99,377.056 2051.04,372.596 2053.1,372.605 2055.15,378.898 2057.2,347.886 2059.25,347.427 2061.31,347.598 2063.36,361.266 2065.41,352.743 2067.47,341.449 2069.52,340.489 2071.57,352.556 2073.62,346.968 2075.68,359.332 2077.73,356.838 2079.78,356.726 2081.84,356.764 2083.89,365.867 2085.94,365.869 2087.99,354.386 2090.05,354.66 2092.1,354.858 2094.15,356.103 2096.21,356.267 2098.26,355.153 2100.31,353.271 2102.36,345.755 2104.42,345.671 2106.47,345.708 2108.52,345.628 2110.58,356.757 2112.63,361.438 2114.68,360.384 2116.73,360.09 2118.79,359.756 2120.84,377.015 2122.89,377.165 2124.95,373.346 2127,359.416 2129.05,360.005 2131.11,360.384 2133.16,359.368 2135.21,362.907 2137.26,364.839 2139.32,364.561 2141.37,364.564 2143.42,365.626 2145.48,365.633 2147.53,376.694 2149.58,377.173 2151.63,389.414 2153.69,399.028 2155.74,406.449 2157.79,408.928 2159.85,414.089 2161.9,419.192 2163.95,420.5 2166,407.445 2168.06,421.92 2170.11,420.428 2172.16,418.85 2174.22,408.361 2176.27,404.109 2178.32,417.22 2180.37,419.421 2182.43,417.577 2184.48,423.885 2186.53,310.215 2188.59,321.474 2190.64,336.914 2192.69,330.988 2194.74,353.941 2196.8,367.768 2198.85,367.946 2200.9,391.775 2202.96,315.878 2205.01,318.637 2207.06,337.788 2209.12,338.752 2211.17,338.763 2213.22,349.134 2215.27,347.107 2217.33,356.917 2219.38,361.134 2221.43,353.244 2223.49,358.672 2225.54,391.667 2227.59,391.743 2229.64,410.995 2231.7,405.841 2233.75,404.293 2235.8,404.525 2237.86,388.342 2239.91,379.332 2241.96,397.78 2244.01,397.389 2246.07,397.471 2248.12,365.54 2250.17,365.492 2252.23,365.541 2254.28,356.023 2256.33,356.466 2258.38,375.241 2260.44,370.146 2262.49,370.666 2264.54,379.861 2266.6,381.748 2268.65,381.193 2270.7,358.714 2272.75,354.225 2274.81,353.404 2276.86,353.699 2278.91,362.546 2280.97,362.559 2283.02,361.683 2285.07,360.739 2287.12,356.778 2289.18,355.62 2291.23,341.881 "/>
<path clip-path="url(#clip080)" d="M1983.6 172.231 L2280.29 172.231 L2280.29 68.5509 L1983.6 68.5509  Z" fill="#ffffff" fill-rule="evenodd" fill-opacity="1"/>
<polyline clip-path="url(#clip080)" style="stroke:#000000; stroke-linecap:round; stroke-linejoin:round; stroke-width:4; stroke-opacity:1; fill:none" points="1983.6,172.231 2280.29,172.231 2280.29,68.5509 1983.6,68.5509 1983.6,172.231 "/>
<polyline clip-path="url(#clip080)" style="stroke:#009af9; stroke-linecap:round; stroke-linejoin:round; stroke-width:4; stroke-opacity:1; fill:none" points="2007.75,120.391 2152.68,120.391 "/>
<path clip-path="url(#clip080)" d="M2176.83 103.111 L2181.51 103.111 L2181.51 133.736 L2198.34 133.736 L2198.34 137.671 L2176.83 137.671 L2176.83 103.111 Z" fill="#000000" fill-rule="nonzero" fill-opacity="1" /><path clip-path="url(#clip080)" d="M2223.96 104.245 L2223.96 108.805 Q2221.3 107.532 2218.94 106.907 Q2216.58 106.282 2214.38 106.282 Q2210.56 106.282 2208.48 107.764 Q2206.42 109.245 2206.42 111.977 Q2206.42 114.268 2207.78 115.449 Q2209.17 116.606 2213.01 117.324 L2215.84 117.902 Q2221.07 118.898 2223.55 121.421 Q2226.05 123.921 2226.05 128.134 Q2226.05 133.157 2222.67 135.75 Q2219.31 138.342 2212.81 138.342 Q2210.35 138.342 2207.57 137.787 Q2204.82 137.231 2201.86 136.143 L2201.86 131.328 Q2204.7 132.926 2207.44 133.736 Q2210.17 134.546 2212.81 134.546 Q2216.81 134.546 2218.99 132.972 Q2221.16 131.398 2221.16 128.481 Q2221.16 125.935 2219.59 124.5 Q2218.04 123.064 2214.47 122.347 L2211.62 121.791 Q2206.39 120.75 2204.06 118.527 Q2201.72 116.305 2201.72 112.347 Q2201.72 107.764 2204.94 105.125 Q2208.18 102.486 2213.85 102.486 Q2216.28 102.486 2218.8 102.926 Q2221.32 103.366 2223.96 104.245 Z" fill="#000000" fill-rule="nonzero" fill-opacity="1" /><path clip-path="url(#clip080)" d="M2254.06 104.245 L2254.06 108.805 Q2251.39 107.532 2249.03 106.907 Q2246.67 106.282 2244.47 106.282 Q2240.65 106.282 2238.57 107.764 Q2236.51 109.245 2236.51 111.977 Q2236.51 114.268 2237.87 115.449 Q2239.26 116.606 2243.11 117.324 L2245.93 117.902 Q2251.16 118.898 2253.64 121.421 Q2256.14 123.921 2256.14 128.134 Q2256.14 133.157 2252.76 135.75 Q2249.4 138.342 2242.9 138.342 Q2240.44 138.342 2237.67 137.787 Q2234.91 137.231 2231.95 136.143 L2231.95 131.328 Q2234.8 132.926 2237.53 133.736 Q2240.26 134.546 2242.9 134.546 Q2246.9 134.546 2249.08 132.972 Q2251.25 131.398 2251.25 128.481 Q2251.25 125.935 2249.68 124.5 Q2248.13 123.064 2244.56 122.347 L2241.72 121.791 Q2236.49 120.75 2234.15 118.527 Q2231.81 116.305 2231.81 112.347 Q2231.81 107.764 2235.03 105.125 Q2238.27 102.486 2243.94 102.486 Q2246.37 102.486 2248.89 102.926 Q2251.42 103.366 2254.06 104.245 Z" fill="#000000" fill-rule="nonzero" fill-opacity="1" /><path clip-path="url(#clip080)" d="M178.867 1486.45 L2352.76 1486.45 L2352.76 847.244 L178.867 847.244  Z" fill="#ffffff" fill-rule="evenodd" fill-opacity="1"/>
<defs>
  <clipPath id="clip083">
    <rect x="178" y="847" width="2175" height="640"/>
  </clipPath>
</defs>
<polyline clip-path="url(#clip083)" style="stroke:#000000; stroke-linecap:round; stroke-linejoin:round; stroke-width:2; stroke-opacity:0.1; fill:none" points="238.339,1486.45 238.339,847.244 "/>
<polyline clip-path="url(#clip083)" style="stroke:#000000; stroke-linecap:round; stroke-linejoin:round; stroke-width:2; stroke-opacity:0.1; fill:none" points="751.562,1486.45 751.562,847.244 "/>
<polyline clip-path="url(#clip083)" style="stroke:#000000; stroke-linecap:round; stroke-linejoin:round; stroke-width:2; stroke-opacity:0.1; fill:none" points="1264.78,1486.45 1264.78,847.244 "/>
<polyline clip-path="url(#clip083)" style="stroke:#000000; stroke-linecap:round; stroke-linejoin:round; stroke-width:2; stroke-opacity:0.1; fill:none" points="1778.01,1486.45 1778.01,847.244 "/>
<polyline clip-path="url(#clip083)" style="stroke:#000000; stroke-linecap:round; stroke-linejoin:round; stroke-width:2; stroke-opacity:0.1; fill:none" points="2291.23,1486.45 2291.23,847.244 "/>
<polyline clip-path="url(#clip083)" style="stroke:#000000; stroke-linecap:round; stroke-linejoin:round; stroke-width:2; stroke-opacity:0.1; fill:none" points="178.867,1486.45 2352.76,1486.45 "/>
<polyline clip-path="url(#clip083)" style="stroke:#000000; stroke-linecap:round; stroke-linejoin:round; stroke-width:2; stroke-opacity:0.1; fill:none" points="178.867,1326.65 2352.76,1326.65 "/>
<polyline clip-path="url(#clip083)" style="stroke:#000000; stroke-linecap:round; stroke-linejoin:round; stroke-width:2; stroke-opacity:0.1; fill:none" points="178.867,1166.85 2352.76,1166.85 "/>
<polyline clip-path="url(#clip083)" style="stroke:#000000; stroke-linecap:round; stroke-linejoin:round; stroke-width:2; stroke-opacity:0.1; fill:none" points="178.867,1007.05 2352.76,1007.05 "/>
<polyline clip-path="url(#clip083)" style="stroke:#000000; stroke-linecap:round; stroke-linejoin:round; stroke-width:2; stroke-opacity:0.1; fill:none" points="178.867,847.244 2352.76,847.244 "/>
<polyline clip-path="url(#clip080)" style="stroke:#000000; stroke-linecap:round; stroke-linejoin:round; stroke-width:4; stroke-opacity:1; fill:none" points="178.867,1486.45 2352.76,1486.45 "/>
<polyline clip-path="url(#clip080)" style="stroke:#000000; stroke-linecap:round; stroke-linejoin:round; stroke-width:4; stroke-opacity:1; fill:none" points="238.339,1486.45 238.339,1467.55 "/>
<polyline clip-path="url(#clip080)" style="stroke:#000000; stroke-linecap:round; stroke-linejoin:round; stroke-width:4; stroke-opacity:1; fill:none" points="751.562,1486.45 751.562,1467.55 "/>
<polyline clip-path="url(#clip080)" style="stroke:#000000; stroke-linecap:round; stroke-linejoin:round; stroke-width:4; stroke-opacity:1; fill:none" points="1264.78,1486.45 1264.78,1467.55 "/>
<polyline clip-path="url(#clip080)" style="stroke:#000000; stroke-linecap:round; stroke-linejoin:round; stroke-width:4; stroke-opacity:1; fill:none" points="1778.01,1486.45 1778.01,1467.55 "/>
<polyline clip-path="url(#clip080)" style="stroke:#000000; stroke-linecap:round; stroke-linejoin:round; stroke-width:4; stroke-opacity:1; fill:none" points="2291.23,1486.45 2291.23,1467.55 "/>
<path clip-path="url(#clip080)" d="M238.339 1517.37 Q234.728 1517.37 232.899 1520.93 Q231.094 1524.47 231.094 1531.6 Q231.094 1538.71 232.899 1542.27 Q234.728 1545.82 238.339 1545.82 Q241.973 1545.82 243.779 1542.27 Q245.607 1538.71 245.607 1531.6 Q245.607 1524.47 243.779 1520.93 Q241.973 1517.37 238.339 1517.37 M238.339 1513.66 Q244.149 1513.66 247.205 1518.27 Q250.283 1522.85 250.283 1531.6 Q250.283 1540.33 247.205 1544.94 Q244.149 1549.52 238.339 1549.52 Q232.529 1549.52 229.45 1544.94 Q226.395 1540.33 226.395 1531.6 Q226.395 1522.85 229.45 1518.27 Q232.529 1513.66 238.339 1513.66 Z" fill="#000000" fill-rule="nonzero" fill-opacity="1" /><path clip-path="url(#clip080)" d="M715.254 1544.91 L731.574 1544.91 L731.574 1548.85 L709.629 1548.85 L709.629 1544.91 Q712.291 1542.16 716.875 1537.53 Q721.481 1532.88 722.662 1531.53 Q724.907 1529.01 725.787 1527.27 Q726.689 1525.51 726.689 1523.82 Q726.689 1521.07 724.745 1519.33 Q722.824 1517.6 719.722 1517.6 Q717.523 1517.6 715.069 1518.36 Q712.638 1519.13 709.861 1520.68 L709.861 1515.95 Q712.685 1514.82 715.138 1514.24 Q717.592 1513.66 719.629 1513.66 Q725 1513.66 728.194 1516.35 Q731.388 1519.03 731.388 1523.52 Q731.388 1525.65 730.578 1527.57 Q729.791 1529.47 727.685 1532.07 Q727.106 1532.74 724.004 1535.95 Q720.902 1539.15 715.254 1544.91 Z" fill="#000000" fill-rule="nonzero" fill-opacity="1" /><path clip-path="url(#clip080)" d="M741.435 1514.29 L759.791 1514.29 L759.791 1518.22 L745.717 1518.22 L745.717 1526.7 Q746.736 1526.35 747.754 1526.19 Q748.773 1526 749.791 1526 Q755.578 1526 758.958 1529.17 Q762.337 1532.34 762.337 1537.76 Q762.337 1543.34 758.865 1546.44 Q755.393 1549.52 749.073 1549.52 Q746.898 1549.52 744.629 1549.15 Q742.384 1548.78 739.976 1548.04 L739.976 1543.34 Q742.06 1544.47 744.282 1545.03 Q746.504 1545.58 748.981 1545.58 Q752.985 1545.58 755.323 1543.48 Q757.661 1541.37 757.661 1537.76 Q757.661 1534.15 755.323 1532.04 Q752.985 1529.94 748.981 1529.94 Q747.106 1529.94 745.231 1530.35 Q743.379 1530.77 741.435 1531.65 L741.435 1514.29 Z" fill="#000000" fill-rule="nonzero" fill-opacity="1" /><path clip-path="url(#clip080)" d="M781.55 1517.37 Q777.939 1517.37 776.11 1520.93 Q774.305 1524.47 774.305 1531.6 Q774.305 1538.71 776.11 1542.27 Q777.939 1545.82 781.55 1545.82 Q785.184 1545.82 786.99 1542.27 Q788.819 1538.71 788.819 1531.6 Q788.819 1524.47 786.99 1520.93 Q785.184 1517.37 781.55 1517.37 M781.55 1513.66 Q787.36 1513.66 790.416 1518.27 Q793.495 1522.85 793.495 1531.6 Q793.495 1540.33 790.416 1544.94 Q787.36 1549.52 781.55 1549.52 Q775.74 1549.52 772.661 1544.94 Q769.606 1540.33 769.606 1531.6 Q769.606 1522.85 772.661 1518.27 Q775.74 1513.66 781.55 1513.66 Z" fill="#000000" fill-rule="nonzero" fill-opacity="1" /><path clip-path="url(#clip080)" d="M1224.4 1514.29 L1242.76 1514.29 L1242.76 1518.22 L1228.69 1518.22 L1228.69 1526.7 Q1229.7 1526.35 1230.72 1526.19 Q1231.74 1526 1232.76 1526 Q1238.55 1526 1241.93 1529.17 Q1245.31 1532.34 1245.31 1537.76 Q1245.31 1543.34 1241.83 1546.44 Q1238.36 1549.52 1232.04 1549.52 Q1229.87 1549.52 1227.6 1549.15 Q1225.35 1548.78 1222.94 1548.04 L1222.94 1543.34 Q1225.03 1544.47 1227.25 1545.03 Q1229.47 1545.58 1231.95 1545.58 Q1235.95 1545.58 1238.29 1543.48 Q1240.63 1541.37 1240.63 1537.76 Q1240.63 1534.15 1238.29 1532.04 Q1235.95 1529.94 1231.95 1529.94 Q1230.07 1529.94 1228.2 1530.35 Q1226.35 1530.77 1224.4 1531.65 L1224.4 1514.29 Z" fill="#000000" fill-rule="nonzero" fill-opacity="1" /><path clip-path="url(#clip080)" d="M1264.52 1517.37 Q1260.91 1517.37 1259.08 1520.93 Q1257.27 1524.47 1257.27 1531.6 Q1257.27 1538.71 1259.08 1542.27 Q1260.91 1545.82 1264.52 1545.82 Q1268.15 1545.82 1269.96 1542.27 Q1271.79 1538.71 1271.79 1531.6 Q1271.79 1524.47 1269.96 1520.93 Q1268.15 1517.37 1264.52 1517.37 M1264.52 1513.66 Q1270.33 1513.66 1273.38 1518.27 Q1276.46 1522.85 1276.46 1531.6 Q1276.46 1540.33 1273.38 1544.94 Q1270.33 1549.52 1264.52 1549.52 Q1258.71 1549.52 1255.63 1544.94 Q1252.57 1540.33 1252.57 1531.6 Q1252.57 1522.85 1255.63 1518.27 Q1258.71 1513.66 1264.52 1513.66 Z" fill="#000000" fill-rule="nonzero" fill-opacity="1" /><path clip-path="url(#clip080)" d="M1294.68 1517.37 Q1291.07 1517.37 1289.24 1520.93 Q1287.44 1524.47 1287.44 1531.6 Q1287.44 1538.71 1289.24 1542.27 Q1291.07 1545.82 1294.68 1545.82 Q1298.31 1545.82 1300.12 1542.27 Q1301.95 1538.71 1301.95 1531.6 Q1301.95 1524.47 1300.12 1520.93 Q1298.31 1517.37 1294.68 1517.37 M1294.68 1513.66 Q1300.49 1513.66 1303.55 1518.27 Q1306.62 1522.85 1306.62 1531.6 Q1306.62 1540.33 1303.55 1544.94 Q1300.49 1549.52 1294.68 1549.52 Q1288.87 1549.52 1285.79 1544.94 Q1282.74 1540.33 1282.74 1531.6 Q1282.74 1522.85 1285.79 1518.27 Q1288.87 1513.66 1294.68 1513.66 Z" fill="#000000" fill-rule="nonzero" fill-opacity="1" /><path clip-path="url(#clip080)" d="M1736.28 1514.29 L1758.51 1514.29 L1758.51 1516.28 L1745.96 1548.85 L1741.08 1548.85 L1752.88 1518.22 L1736.28 1518.22 L1736.28 1514.29 Z" fill="#000000" fill-rule="nonzero" fill-opacity="1" /><path clip-path="url(#clip080)" d="M1767.67 1514.29 L1786.03 1514.29 L1786.03 1518.22 L1771.95 1518.22 L1771.95 1526.7 Q1772.97 1526.35 1773.99 1526.19 Q1775.01 1526 1776.03 1526 Q1781.82 1526 1785.2 1529.17 Q1788.57 1532.34 1788.57 1537.76 Q1788.57 1543.34 1785.1 1546.44 Q1781.63 1549.52 1775.31 1549.52 Q1773.14 1549.52 1770.87 1549.15 Q1768.62 1548.78 1766.21 1548.04 L1766.21 1543.34 Q1768.3 1544.47 1770.52 1545.03 Q1772.74 1545.58 1775.22 1545.58 Q1779.22 1545.58 1781.56 1543.48 Q1783.9 1541.37 1783.9 1537.76 Q1783.9 1534.15 1781.56 1532.04 Q1779.22 1529.94 1775.22 1529.94 Q1773.34 1529.94 1771.47 1530.35 Q1769.62 1530.77 1767.67 1531.65 L1767.67 1514.29 Z" fill="#000000" fill-rule="nonzero" fill-opacity="1" /><path clip-path="url(#clip080)" d="M1807.79 1517.37 Q1804.18 1517.37 1802.35 1520.93 Q1800.54 1524.47 1800.54 1531.6 Q1800.54 1538.71 1802.35 1542.27 Q1804.18 1545.82 1807.79 1545.82 Q1811.42 1545.82 1813.23 1542.27 Q1815.06 1538.71 1815.06 1531.6 Q1815.06 1524.47 1813.23 1520.93 Q1811.42 1517.37 1807.79 1517.37 M1807.79 1513.66 Q1813.6 1513.66 1816.65 1518.27 Q1819.73 1522.85 1819.73 1531.6 Q1819.73 1540.33 1816.65 1544.94 Q1813.6 1549.52 1807.79 1549.52 Q1801.98 1549.52 1798.9 1544.94 Q1795.84 1540.33 1795.84 1531.6 Q1795.84 1522.85 1798.9 1518.27 Q1801.98 1513.66 1807.79 1513.66 Z" fill="#000000" fill-rule="nonzero" fill-opacity="1" /><path clip-path="url(#clip080)" d="M2235.76 1544.91 L2243.4 1544.91 L2243.4 1518.55 L2235.09 1520.21 L2235.09 1515.95 L2243.35 1514.29 L2248.02 1514.29 L2248.02 1544.91 L2255.66 1544.91 L2255.66 1548.85 L2235.76 1548.85 L2235.76 1544.91 Z" fill="#000000" fill-rule="nonzero" fill-opacity="1" /><path clip-path="url(#clip080)" d="M2275.11 1517.37 Q2271.5 1517.37 2269.67 1520.93 Q2267.86 1524.47 2267.86 1531.6 Q2267.86 1538.71 2269.67 1542.27 Q2271.5 1545.82 2275.11 1545.82 Q2278.74 1545.82 2280.55 1542.27 Q2282.38 1538.71 2282.38 1531.6 Q2282.38 1524.47 2280.55 1520.93 Q2278.74 1517.37 2275.11 1517.37 M2275.11 1513.66 Q2280.92 1513.66 2283.97 1518.27 Q2287.05 1522.85 2287.05 1531.6 Q2287.05 1540.33 2283.97 1544.94 Q2280.92 1549.52 2275.11 1549.52 Q2269.3 1549.52 2266.22 1544.94 Q2263.16 1540.33 2263.16 1531.6 Q2263.16 1522.85 2266.22 1518.27 Q2269.3 1513.66 2275.11 1513.66 Z" fill="#000000" fill-rule="nonzero" fill-opacity="1" /><path clip-path="url(#clip080)" d="M2305.27 1517.37 Q2301.66 1517.37 2299.83 1520.93 Q2298.02 1524.47 2298.02 1531.6 Q2298.02 1538.71 2299.83 1542.27 Q2301.66 1545.82 2305.27 1545.82 Q2308.9 1545.82 2310.71 1542.27 Q2312.54 1538.71 2312.54 1531.6 Q2312.54 1524.47 2310.71 1520.93 Q2308.9 1517.37 2305.27 1517.37 M2305.27 1513.66 Q2311.08 1513.66 2314.14 1518.27 Q2317.21 1522.85 2317.21 1531.6 Q2317.21 1540.33 2314.14 1544.94 Q2311.08 1549.52 2305.27 1549.52 Q2299.46 1549.52 2296.38 1544.94 Q2293.33 1540.33 2293.33 1531.6 Q2293.33 1522.85 2296.38 1518.27 Q2299.46 1513.66 2305.27 1513.66 Z" fill="#000000" fill-rule="nonzero" fill-opacity="1" /><path clip-path="url(#clip080)" d="M2335.43 1517.37 Q2331.82 1517.37 2329.99 1520.93 Q2328.19 1524.47 2328.19 1531.6 Q2328.19 1538.71 2329.99 1542.27 Q2331.82 1545.82 2335.43 1545.82 Q2339.07 1545.82 2340.87 1542.27 Q2342.7 1538.71 2342.7 1531.6 Q2342.7 1524.47 2340.87 1520.93 Q2339.07 1517.37 2335.43 1517.37 M2335.43 1513.66 Q2341.24 1513.66 2344.3 1518.27 Q2347.38 1522.85 2347.38 1531.6 Q2347.38 1540.33 2344.3 1544.94 Q2341.24 1549.52 2335.43 1549.52 Q2329.62 1549.52 2326.54 1544.94 Q2323.49 1540.33 2323.49 1531.6 Q2323.49 1522.85 2326.54 1518.27 Q2329.62 1513.66 2335.43 1513.66 Z" fill="#000000" fill-rule="nonzero" fill-opacity="1" /><polyline clip-path="url(#clip080)" style="stroke:#000000; stroke-linecap:round; stroke-linejoin:round; stroke-width:4; stroke-opacity:1; fill:none" points="178.867,1486.45 178.867,847.244 "/>
<polyline clip-path="url(#clip080)" style="stroke:#000000; stroke-linecap:round; stroke-linejoin:round; stroke-width:4; stroke-opacity:1; fill:none" points="178.867,1486.45 197.764,1486.45 "/>
<polyline clip-path="url(#clip080)" style="stroke:#000000; stroke-linecap:round; stroke-linejoin:round; stroke-width:4; stroke-opacity:1; fill:none" points="178.867,1326.65 197.764,1326.65 "/>
<polyline clip-path="url(#clip080)" style="stroke:#000000; stroke-linecap:round; stroke-linejoin:round; stroke-width:4; stroke-opacity:1; fill:none" points="178.867,1166.85 197.764,1166.85 "/>
<polyline clip-path="url(#clip080)" style="stroke:#000000; stroke-linecap:round; stroke-linejoin:round; stroke-width:4; stroke-opacity:1; fill:none" points="178.867,1007.05 197.764,1007.05 "/>
<polyline clip-path="url(#clip080)" style="stroke:#000000; stroke-linecap:round; stroke-linejoin:round; stroke-width:4; stroke-opacity:1; fill:none" points="178.867,847.244 197.764,847.244 "/>
<path clip-path="url(#clip080)" d="M50.9921 1486.9 L80.6679 1486.9 L80.6679 1490.83 L50.9921 1490.83 L50.9921 1486.9 Z" fill="#000000" fill-rule="nonzero" fill-opacity="1" /><path clip-path="url(#clip080)" d="M91.5706 1499.79 L99.2095 1499.79 L99.2095 1473.43 L90.8993 1475.09 L90.8993 1470.83 L99.1632 1469.17 L103.839 1469.17 L103.839 1499.79 L111.478 1499.79 L111.478 1503.73 L91.5706 1503.73 L91.5706 1499.79 Z" fill="#000000" fill-rule="nonzero" fill-opacity="1" /><path clip-path="url(#clip080)" d="M130.922 1472.25 Q127.311 1472.25 125.482 1475.81 Q123.677 1479.35 123.677 1486.48 Q123.677 1493.59 125.482 1497.15 Q127.311 1500.7 130.922 1500.7 Q134.556 1500.7 136.362 1497.15 Q138.191 1493.59 138.191 1486.48 Q138.191 1479.35 136.362 1475.81 Q134.556 1472.25 130.922 1472.25 M130.922 1468.54 Q136.732 1468.54 139.788 1473.15 Q142.867 1477.73 142.867 1486.48 Q142.867 1495.21 139.788 1499.82 Q136.732 1504.4 130.922 1504.4 Q125.112 1504.4 122.033 1499.82 Q118.978 1495.21 118.978 1486.48 Q118.978 1477.73 122.033 1473.15 Q125.112 1468.54 130.922 1468.54 Z" fill="#000000" fill-rule="nonzero" fill-opacity="1" /><path clip-path="url(#clip080)" d="M82.1494 1327.1 L111.825 1327.1 L111.825 1331.03 L82.1494 1331.03 L82.1494 1327.1 Z" fill="#000000" fill-rule="nonzero" fill-opacity="1" /><path clip-path="url(#clip080)" d="M121.964 1309.37 L140.32 1309.37 L140.32 1313.3 L126.246 1313.3 L126.246 1321.77 Q127.265 1321.43 128.283 1321.27 Q129.302 1321.08 130.32 1321.08 Q136.107 1321.08 139.487 1324.25 Q142.867 1327.42 142.867 1332.84 Q142.867 1338.42 139.394 1341.52 Q135.922 1344.6 129.603 1344.6 Q127.427 1344.6 125.158 1344.23 Q122.913 1343.86 120.506 1343.12 L120.506 1338.42 Q122.589 1339.55 124.811 1340.11 Q127.033 1340.66 129.51 1340.66 Q133.515 1340.66 135.853 1338.56 Q138.191 1336.45 138.191 1332.84 Q138.191 1329.23 135.853 1327.12 Q133.515 1325.01 129.51 1325.01 Q127.635 1325.01 125.76 1325.43 Q123.908 1325.85 121.964 1326.73 L121.964 1309.37 Z" fill="#000000" fill-rule="nonzero" fill-opacity="1" /><path clip-path="url(#clip080)" d="M130.922 1152.64 Q127.311 1152.64 125.482 1156.21 Q123.677 1159.75 123.677 1166.88 Q123.677 1173.99 125.482 1177.55 Q127.311 1181.09 130.922 1181.09 Q134.556 1181.09 136.362 1177.55 Q138.191 1173.99 138.191 1166.88 Q138.191 1159.75 136.362 1156.21 Q134.556 1152.64 130.922 1152.64 M130.922 1148.94 Q136.732 1148.94 139.788 1153.55 Q142.867 1158.13 142.867 1166.88 Q142.867 1175.61 139.788 1180.21 Q136.732 1184.8 130.922 1184.8 Q125.112 1184.8 122.033 1180.21 Q118.978 1175.61 118.978 1166.88 Q118.978 1158.13 122.033 1153.55 Q125.112 1148.94 130.922 1148.94 Z" fill="#000000" fill-rule="nonzero" fill-opacity="1" /><path clip-path="url(#clip080)" d="M121.964 989.765 L140.32 989.765 L140.32 993.7 L126.246 993.7 L126.246 1002.17 Q127.265 1001.83 128.283 1001.66 Q129.302 1001.48 130.32 1001.48 Q136.107 1001.48 139.487 1004.65 Q142.867 1007.82 142.867 1013.24 Q142.867 1018.82 139.394 1021.92 Q135.922 1025 129.603 1025 Q127.427 1025 125.158 1024.63 Q122.913 1024.26 120.506 1023.51 L120.506 1018.82 Q122.589 1019.95 124.811 1020.51 Q127.033 1021.06 129.51 1021.06 Q133.515 1021.06 135.853 1018.95 Q138.191 1016.85 138.191 1013.24 Q138.191 1009.63 135.853 1007.52 Q133.515 1005.41 129.51 1005.41 Q127.635 1005.41 125.76 1005.83 Q123.908 1006.25 121.964 1007.13 L121.964 989.765 Z" fill="#000000" fill-rule="nonzero" fill-opacity="1" /><path clip-path="url(#clip080)" d="M91.5706 860.589 L99.2095 860.589 L99.2095 834.223 L90.8993 835.89 L90.8993 831.631 L99.1632 829.964 L103.839 829.964 L103.839 860.589 L111.478 860.589 L111.478 864.524 L91.5706 864.524 L91.5706 860.589 Z" fill="#000000" fill-rule="nonzero" fill-opacity="1" /><path clip-path="url(#clip080)" d="M130.922 833.043 Q127.311 833.043 125.482 836.608 Q123.677 840.149 123.677 847.279 Q123.677 854.385 125.482 857.95 Q127.311 861.492 130.922 861.492 Q134.556 861.492 136.362 857.95 Q138.191 854.385 138.191 847.279 Q138.191 840.149 136.362 836.608 Q134.556 833.043 130.922 833.043 M130.922 829.339 Q136.732 829.339 139.788 833.946 Q142.867 838.529 142.867 847.279 Q142.867 856.006 139.788 860.612 Q136.732 865.195 130.922 865.195 Q125.112 865.195 122.033 860.612 Q118.978 856.006 118.978 847.279 Q118.978 838.529 122.033 833.946 Q125.112 829.339 130.922 829.339 Z" fill="#000000" fill-rule="nonzero" fill-opacity="1" /><polyline clip-path="url(#clip083)" style="stroke:#009af9; stroke-linecap:round; stroke-linejoin:round; stroke-width:4; stroke-opacity:1; fill:none" points="240.392,1134.89 242.445,1125.66 244.498,1165.66 246.55,1167.56 248.603,1170.9 250.656,1116.12 252.709,1124.24 254.762,1163.09 256.815,1159.65 258.868,1157.27 260.921,1198.9 262.974,815.788 265.027,1280.24 267.079,1324.07 269.132,1174.22 271.185,1251.51 273.238,1124.82 275.291,1188 277.344,1223.97 279.397,1253.06 281.45,1226.7 283.503,1206.93 285.555,1565.01 287.608,1533.01 289.661,1634.84 291.714,1439.63 293.767,1170.24 295.82,1285.32 297.873,1197.32 299.926,1202.51 301.979,1178.15 304.031,1142.78 306.084,1163.26 308.137,1163.07 310.19,1186.75 312.243,1125.55 314.296,1220.96 316.349,1122.94 318.402,1141.18 320.455,1212 322.507,1136.91 324.56,1149.63 326.613,1185.36 328.666,1178.86 330.719,1301.9 332.772,1055.88 334.825,950.346 336.878,992.838 338.931,1189.36 340.984,1191.3 343.036,1097.25 345.089,995.878 347.142,651.672 349.195,1154.3 351.248,-425.628 353.301,-7412.06 355.354,-8698.53 357.407,-11132 359.46,-4304.08 361.512,-530.288 363.565,-764.843 365.618,-4624.52 367.671,-1781.35 369.724,5245.65 371.777,-9675.68 373.83,-660.029 375.883,2631.83 377.936,872.728 379.988,1384.42 382.041,1867.91 384.094,678.185 386.147,1505.15 388.2,1461.03 390.253,1157.01 392.306,1080.64 394.359,1116.62 396.412,1144.64 398.464,1231.78 400.517,1196.01 402.57,1128.42 404.623,1132.26 406.676,1151.87 408.729,1164.93 410.782,1132.37 412.835,1124.53 414.888,1271.6 416.94,1179.85 418.993,1268.41 421.046,1164.25 423.099,1177.3 425.152,1120.29 427.205,1151.56 429.258,1152.01 431.311,1095.13 433.364,982.207 435.417,1626.02 437.469,1232.5 439.522,1155.53 441.575,1185.68 443.628,1152.14 445.681,1200.95 447.734,1179.55 449.787,1195.77 451.84,1160.47 453.893,1154.8 455.945,1161.48 457.998,1194.09 460.051,1174.69 462.104,1132.74 464.157,1061.3 466.21,1184.53 468.263,1146.59 470.316,1123.13 472.369,1139.54 474.421,1228.4 476.474,1216.58 478.527,1127.54 480.58,1150.26 482.633,1146.57 484.686,1132.03 486.739,1211.51 488.792,1178.87 490.845,1183.67 492.897,1154.79 494.95,1176.78 497.003,1158.36 499.056,1188.5 501.109,1157.72 503.162,1146.44 505.215,1193.07 507.268,1154.06 509.321,1140.19 511.374,1157.25 513.426,1453.32 515.479,892.819 517.532,2423.76 519.585,80.3637 521.638,1117.97 523.691,1140.76 525.744,1198.82 527.797,1152.44 529.85,1171.86 531.902,1176.54 533.955,1074.42 536.008,1227.54 538.061,1134.63 540.114,1093.3 542.167,1078.95 544.22,1266.99 546.273,1091.5 548.326,1171.38 550.378,1161.18 552.431,1189.82 554.484,127.644 556.537,491.096 558.59,1615.13 560.643,1503.43 562.696,1171.49 564.749,1159.82 566.802,1171.36 568.854,1167.54 570.907,1186.62 572.96,1150.99 575.013,1145.39 577.066,1139.44 579.119,1200.86 581.172,1141.39 583.225,1254.79 585.278,1144.41 587.331,1164.49 589.383,1128.01 591.436,1217.78 593.489,1043.84 595.542,1184.6 597.595,308.361 599.648,693.679 601.701,678.756 603.754,1427.88 605.807,1207.78 607.859,1159.37 609.912,1098.13 611.965,1160.55 614.018,1135.31 616.071,1185.24 618.124,907.45 620.177,1088.39 622.23,1170.95 624.283,1208.03 626.335,1260.33 628.388,1195.1 630.441,1200.83 632.494,1184.56 634.547,1141.22 636.6,1152.3 638.653,1129.97 640.706,1145 642.759,1164.78 644.811,1171.3 646.864,1172.34 648.917,1150.77 650.97,1152.55 653.023,1141.07 655.076,1201.03 657.129,1179.91 659.182,1173.76 661.235,1153.52 663.288,1104.45 665.34,1154.35 667.393,1152.2 669.446,1167.33 671.499,1174.18 673.552,1174.57 675.605,1157.39 677.658,1176.99 679.711,1165.62 681.764,1152.49 683.816,1185.34 685.869,1180.77 687.922,1182.45 689.975,1193.13 692.028,1195.63 694.081,1180.08 696.134,1157.78 698.187,1172.8 700.24,1170.87 702.292,1170.2 704.345,1117.16 706.398,1058.54 708.451,1161.47 710.504,1157.77 712.557,1192.83 714.61,1161.14 716.663,1293.52 718.716,1266.52 720.768,1119.51 722.821,1162.99 724.874,1183.79 726.927,1189.74 728.98,1184.88 731.033,1193.33 733.086,1168.05 735.139,1175.57 737.192,1170.98 739.245,1186.96 741.297,1165.44 743.35,1171.47 745.403,1167.73 747.456,1167.71 749.509,1166.75 751.562,1163.24 753.615,1156.01 755.668,1158.03 757.721,1177.41 759.773,1116.14 761.826,1106.64 763.879,1496.36 765.932,1069.88 767.985,1163.76 770.038,1159.78 772.091,1198.96 774.144,1129.52 776.197,1135.82 778.249,1295.78 780.302,692.386 782.355,-108.009 784.408,870.353 786.461,1085.53 788.514,1416.44 790.567,1112.58 792.62,1147.7 794.673,1158.74 796.725,1022.62 798.778,1102.56 800.831,1183.28 802.884,990.495 804.937,1229.62 806.99,1207.66 809.043,1175.26 811.096,1162.69 813.149,1144.62 815.202,1175.67 817.254,1315.73 819.307,1040.6 821.36,1200.14 823.413,1190.01 825.466,1139.18 827.519,1123.39 829.572,1125.32 831.625,1209.14 833.678,1202.34 835.73,1133.41 837.783,1123.95 839.836,1159.01 841.889,1168.77 843.942,1151.72 845.995,1116.25 848.048,1134.66 850.101,1165.21 852.154,1143.67 854.206,1294.61 856.259,991.057 858.312,1124.22 860.365,1163.36 862.418,1168.77 864.471,1178.13 866.524,1170.82 868.577,1167.78 870.63,1147.84 872.682,1162.4 874.735,1147.62 876.788,1218.14 878.841,1212.47 880.894,1072.15 882.947,1152.78 885,1045.9 887.053,1121.79 889.106,726.385 891.159,1089.8 893.211,1208.23 895.264,1146.21 897.317,1162.1 899.37,1164.44 901.423,1166.07 903.476,1185.09 905.529,1203.52 907.582,1151.89 909.635,1160.22 911.687,1159.98 913.74,1142.17 915.793,1160.01 917.846,1157.89 919.899,1162.13 921.952,1133.57 924.005,1216.9 926.058,1236.84 928.111,1126.12 930.163,1156.63 932.216,1211.31 934.269,1217.87 936.322,1250.65 938.375,1445.25 940.428,1554.94 942.481,2617.19 944.534,1408.27 946.587,2342.82 948.639,1082.14 950.692,1063.69 952.745,1109.73 954.798,1078.1 956.851,1078.15 958.904,1182.6 960.957,1202.08 963.01,1219.27 965.063,772.241 967.116,746.219 969.168,1218.57 971.221,1179.64 973.274,1086.77 975.327,1019.69 977.38,1117.71 979.433,1080.19 981.486,1300.65 983.539,1209.34 985.592,971.604 987.644,1188.57 989.697,1166.7 991.75,1160.85 993.803,1183.5 995.856,1182.26 997.909,1159.82 999.962,1165.23 1002.01,765.681 1004.07,3001.47 1006.12,298.615 1008.17,1092.22 1010.23,1228.28 1012.28,1063.24 1014.33,1139.66 1016.38,1109.95 1018.44,1153.34 1020.49,1282.91 1022.54,1313.42 1024.6,1175.86 1026.65,1146.05 1028.7,1154.13 1030.76,1151.55 1032.81,1212.54 1034.86,1215.21 1036.91,1145.83 1038.97,1562.04 1041.02,1177.83 1043.07,1072.06 1045.13,1204 1047.18,1149.97 1049.23,1170.94 1051.28,1134.9 1053.34,1141.69 1055.39,1289.21 1057.44,1332.97 1059.5,1079.4 1061.55,876.285 1063.6,1347.37 1065.65,994.181 1067.71,1161.61 1069.76,1187.22 1071.81,1239.2 1073.87,1009.8 1075.92,1160.25 1077.97,1052.69 1080.02,1247.68 1082.08,1092.68 1084.13,1151.28 1086.18,1174.17 1088.24,1150.61 1090.29,1158.93 1092.34,1185.99 1094.39,1143.18 1096.45,1313.77 1098.5,1006.18 1100.55,1175.96 1102.61,1161.85 1104.66,1182.02 1106.71,1117.27 1108.77,1121.31 1110.82,1141.42 1112.87,1184.75 1114.92,1143.29 1116.98,1125.63 1119.03,1150.34 1121.08,1224.33 1123.14,1232.91 1125.19,889.396 1127.24,1173.51 1129.29,1144.94 1131.35,1633.09 1133.4,2729.89 1135.45,-287.119 1137.51,359.762 1139.56,495.915 1141.61,315.89 1143.66,1493.92 1145.72,1542.48 1147.77,1337.42 1149.82,1650.61 1151.88,1620.8 1153.93,1293.42 1155.98,968.411 1158.03,1192.06 1160.09,1389.57 1162.14,1057.66 1164.19,1167.38 1166.25,1171.08 1168.3,1178.58 1170.35,1205.36 1172.4,1136.21 1174.46,1170.04 1176.51,1201.53 1178.56,1154.53 1180.62,1149.81 1182.67,1189.45 1184.72,1173.58 1186.77,1151.71 1188.83,1228.77 1190.88,832.87 1192.93,1734.68 1194.99,438.617 1197.04,1796.4 1199.09,460.666 1201.15,3388.47 1203.2,841.767 1205.25,1112.56 1207.3,1275.56 1209.36,994.781 1211.41,1210.86 1213.46,1208.17 1215.52,1142.52 1217.57,1230.35 1219.62,1213.05 1221.67,1186.93 1223.73,1143.73 1225.78,1146.33 1227.83,1150.18 1229.89,1189.57 1231.94,1123.83 1233.99,1137.77 1236.04,1179.86 1238.1,1155.68 1240.15,1140.99 1242.2,1192.08 1244.26,1114.79 1246.31,1146.49 1248.36,1306.1 1250.41,1013.25 1252.47,1271.09 1254.52,1059.18 1256.57,1129.62 1258.63,1185.53 1260.68,1006.59 1262.73,1083.8 1264.78,1217.68 1266.84,-178.883 1268.89,-572.428 1270.94,1194.76 1273,1182.08 1275.05,1163.65 1277.1,1156.63 1279.16,1151.23 1281.21,1176.54 1283.26,1171.7 1285.31,1076.62 1287.37,1226.88 1289.42,1158.13 1291.47,1158.76 1293.53,1180.89 1295.58,1118.57 1297.63,1200.38 1299.68,1190.66 1301.74,1052.41 1303.79,1252.55 1305.84,1166.45 1307.9,1140.54 1309.95,1073.26 1312,1249.52 1314.05,1158.38 1316.11,1249.61 1318.16,1194.82 1320.21,1155 1322.27,1169.17 1324.32,1110.22 1326.37,1175.74 1328.42,1159.35 1330.48,1166.3 1332.53,1152.12 1334.58,1182.68 1336.64,1158.6 1338.69,1185.76 1340.74,1134.04 1342.79,1157.8 1344.85,1171.07 1346.9,1177.69 1348.95,1172.49 1351.01,1172.13 1353.06,1164.82 1355.11,1136.2 1357.16,1215.81 1359.22,1139.88 1361.27,1179.42 1363.32,1179.45 1365.38,1147.24 1367.43,1153.57 1369.48,1159.89 1371.54,1172.37 1373.59,1156.47 1375.64,1149.13 1377.69,1131.83 1379.75,1208.03 1381.8,1135.25 1383.85,1150.92 1385.91,1168.74 1387.96,1157.69 1390.01,1145.78 1392.06,1148.32 1394.12,1082.96 1396.17,1186.18 1398.22,1207.31 1400.28,1205.05 1402.33,1287.84 1404.38,948.907 1406.43,1121.18 1408.49,1170.95 1410.54,1164.94 1412.59,999.278 1414.65,1291.55 1416.7,955.467 1418.75,979.542 1420.8,1325.72 1422.86,1144.26 1424.91,908.212 1426.96,809.205 1429.02,1207.92 1431.07,1052.65 1433.12,1180.4 1435.17,1130.54 1437.23,1075.85 1439.28,1169.48 1441.33,1170.37 1443.39,1157.67 1445.44,1190.54 1447.49,1207.26 1449.55,1205.68 1451.6,1184.71 1453.65,1158.56 1455.7,1198.76 1457.76,1195.25 1459.81,1142.28 1461.86,1182.37 1463.92,1101.18 1465.97,1229.68 1468.02,1148.49 1470.07,1163.64 1472.13,1150.71 1474.18,1199.5 1476.23,1170.16 1478.29,1196.14 1480.34,1189.6 1482.39,1188.66 1484.44,1113.81 1486.5,1151.13 1488.55,1195.87 1490.6,1196.66 1492.66,1145.19 1494.71,1173.59 1496.76,1155.56 1498.81,1164.09 1500.87,1163.75 1502.92,1203.55 1504.97,1213.95 1507.03,1535.59 1509.08,1185.14 1511.13,1627.19 1513.18,1449.13 1515.24,1223.47 1517.29,1115.47 1519.34,1137.16 1521.4,1155.68 1523.45,1216.99 1525.5,1267.11 1527.55,1096.75 1529.61,1076.4 1531.66,1233.3 1533.71,1139.64 1535.77,1189.62 1537.82,1129.17 1539.87,1197.05 1541.93,1165.34 1543.98,1166.11 1546.03,1171.95 1548.08,1027.74 1550.14,1204.52 1552.19,1149.76 1554.24,1123.97 1556.3,1182.29 1558.35,1143.78 1560.4,1124.33 1562.45,1216.57 1564.51,1181.62 1566.56,1219.88 1568.61,1468.49 1570.67,1674.3 1572.72,1241.3 1574.77,1146.98 1576.82,1043.54 1578.88,1191.81 1580.93,1175.22 1582.98,1216.98 1585.04,1110.89 1587.09,1152.01 1589.14,1215.05 1591.19,1223.55 1593.25,1146.29 1595.3,1146.74 1597.35,1187.35 1599.41,1214.46 1601.46,1160.02 1603.51,1172.18 1605.56,1171.22 1607.62,1243.73 1609.67,1195.62 1611.72,1180.62 1613.78,1175.49 1615.83,1152.57 1617.88,1197.27 1619.94,1185.75 1621.99,1453.8 1624.04,1489.69 1626.09,1387.28 1628.15,929.492 1630.2,1178.2 1632.25,1162.04 1634.31,1184.49 1636.36,1202.3 1638.41,1147.86 1640.46,1173.28 1642.52,1149.79 1644.57,1196.47 1646.62,1223.43 1648.68,1117.51 1650.73,1193.4 1652.78,1223.64 1654.83,1113.41 1656.89,1228.44 1658.94,1595.91 1660.99,1356.88 1663.05,2669.22 1665.1,2307.83 1667.15,-6930.05 1669.2,-32655.2 1671.26,3412 1673.31,1452.22 1675.36,1200.38 1677.42,1070.9 1679.47,1061.46 1681.52,1300.5 1683.57,1151.1 1685.63,1258.97 1687.68,1239.89 1689.73,1140.92 1691.79,1146.9 1693.84,930.914 1695.89,790.007 1697.94,896.762 1700,1763.32 1702.05,1164.86 1704.1,1105.55 1706.16,1165.57 1708.21,1148.88 1710.26,1093.97 1712.32,1304.62 1714.37,1203.67 1716.42,1345.44 1718.47,1078.04 1720.53,1189.01 1722.58,1146.21 1724.63,1307.08 1726.69,685.377 1728.74,1558.96 1730.79,1202.89 1732.84,1244.24 1734.9,1152.15 1736.95,1156.79 1739,1167.77 1741.06,1118.35 1743.11,1173.54 1745.16,1156.95 1747.21,1186.65 1749.27,1191.23 1751.32,1080.2 1753.37,1178.94 1755.43,1105.5 1757.48,1261.06 1759.53,1075.52 1761.58,1053.36 1763.64,1207.07 1765.69,1062.19 1767.74,1132.26 1769.8,1194.54 1771.85,1153.28 1773.9,1176.7 1775.95,1229.38 1778.01,1293.82 1780.06,1462.89 1782.11,1299.6 1784.17,1192.63 1786.22,1158.84 1788.27,1185.66 1790.33,1197.66 1792.38,1204.77 1794.43,1175.62 1796.48,1173.49 1798.54,1159.83 1800.59,1179.02 1802.64,1184.81 1804.7,1175.55 1806.75,1143.18 1808.8,1122.38 1810.85,1154.4 1812.91,1161.87 1814.96,1096.82 1817.01,1582.17 1819.07,626.277 1821.12,1664.55 1823.17,772.787 1825.22,1171.17 1827.28,1118.35 1829.33,1082.44 1831.38,1147.49 1833.44,1173.51 1835.49,1280.56 1837.54,1130.36 1839.59,1197.23 1841.65,1163.25 1843.7,1161.58 1845.75,1163.91 1847.81,1095.45 1849.86,1094.83 1851.91,1202.32 1853.96,1199.2 1856.02,1241.04 1858.07,1060.33 1860.12,1145.84 1862.18,1189.84 1864.23,1125.68 1866.28,1201.35 1868.34,1211.75 1870.39,1152.67 1872.44,1213.36 1874.49,1074.85 1876.55,1124 1878.6,1214.24 1880.65,1271.02 1882.71,1174.38 1884.76,1157.95 1886.81,1199.9 1888.86,1156.7 1890.92,1121.33 1892.97,1081.08 1895.02,1227.68 1897.08,1154.19 1899.13,1155.44 1901.18,1090.82 1903.23,1237.03 1905.29,1336.34 1907.34,1120 1909.39,1210.17 1911.45,1173.97 1913.5,1171.11 1915.55,1185.24 1917.6,1148.79 1919.66,1152.35 1921.71,1198.72 1923.76,1188.39 1925.82,1232.15 1927.87,1254.65 1929.92,1154.69 1931.97,1186.7 1934.03,1180.5 1936.08,1203.39 1938.13,1184.02 1940.19,1153.96 1942.24,1149.17 1944.29,1258.8 1946.34,1159.5 1948.4,1182.24 1950.45,1185.36 1952.5,1184.71 1954.56,1180.75 1956.61,1126.96 1958.66,1168.6 1960.72,1141.67 1962.77,1221.58 1964.82,564.238 1966.87,2610.84 1968.93,1796.73 1970.98,1072.17 1973.03,429.461 1975.09,2841.13 1977.14,1754.73 1979.19,1403.27 1981.24,2153.18 1983.3,2951.76 1985.35,1094.73 1987.4,342.256 1989.46,561.511 1991.51,1408.07 1993.56,1368.59 1995.61,1681.33 1997.67,1034.72 1999.72,1510.05 2001.77,1600.41 2003.83,805.902 2005.88,638.898 2007.93,844.466 2009.98,1260.06 2012.04,1168.26 2014.09,1231.94 2016.14,1082.15 2018.2,1134.07 2020.25,1115.29 2022.3,1207.7 2024.35,1130.13 2026.41,931.713 2028.46,1326.66 2030.51,1262.34 2032.57,1181.51 2034.62,1160.55 2036.67,1095.37 2038.73,1062.83 2040.78,1147.25 2042.83,1036.67 2044.88,1242.4 2046.94,1252.29 2048.99,1231.68 2051.04,1105.21 2053.1,1216.94 2055.15,1181.33 2057.2,1147.51 2059.25,1002.15 2061.31,1836.09 2063.36,716.386 2065.41,1303.36 2067.47,1368.9 2069.52,1117.63 2071.57,1131.75 2073.62,1204.4 2075.68,1188.31 2077.73,1236.9 2079.78,1126.61 2081.84,1144.49 2083.89,1128.05 2085.94,1114.01 2087.99,1129.63 2090.05,1142.69 2092.1,1349.97 2094.15,1541.72 2096.21,1205.19 2098.26,1162.73 2100.31,1195.02 2102.36,1154.04 2104.42,1164.12 2106.47,1242.31 2108.52,1177.06 2110.58,1108.72 2112.63,1090.33 2114.68,1002.93 2116.73,1009.34 2118.79,644.747 2120.84,1498.93 2122.89,1538.18 2124.95,988.673 2127,1040.53 2129.05,1132.31 2131.11,1177.88 2133.16,998.598 2135.21,1598.47 2137.26,2439.19 2139.32,861.038 2141.37,1045.81 2143.42,1128.52 2145.48,1117.67 2147.53,1110.01 2149.58,1173.06 2151.63,1159.34 2153.69,1165.71 2155.74,1145.09 2157.79,1145.65 2159.85,1163.32 2161.9,1169.65 2163.95,1167.16 2166,1162.79 2168.06,1201.98 2170.11,1183.31 2172.16,1272.64 2174.22,1254.84 2176.27,1096.76 2178.32,953.093 2180.37,1108.04 2182.43,1229.27 2184.48,1207.32 2186.53,1193.07 2188.59,1153.85 2190.64,1182.43 2192.69,1114.26 2194.74,1199.92 2196.8,1202.75 2198.85,1179.07 2200.9,1164.88 2202.96,1169.92 2205.01,1167.85 2207.06,1150.12 2209.12,1231.23 2211.17,1226.1 2213.22,1386.96 2215.27,1111.07 2217.33,1183.8 2219.38,1158.08 2221.43,1077.69 2223.49,1068.95 2225.54,1086.2 2227.59,946.817 2229.64,1416.33 2231.7,1579.53 2233.75,1158.01 2235.8,1230.46 2237.86,1213.33 2239.91,1201.49 2241.96,1155.93 2244.01,1188.64 2246.07,1185.77 2248.12,1178.01 2250.17,1188.36 2252.23,1175.27 2254.28,1169.49 2256.33,1175.79 2258.38,1161.9 2260.44,1174.77 2262.49,1158.91 2264.54,1198.43 2266.6,1163.81 2268.65,1174.18 2270.7,1181.08 2272.75,1181.25 2274.81,1163.4 2276.86,1163.25 2278.91,1139.7 2280.97,1116.36 2283.02,1189.35 2285.07,1188.54 2287.12,1158.36 2289.18,1104.59 2291.23,1112.21 "/>
<path clip-path="url(#clip080)" d="M251.33 972.231 L588.926 972.231 L588.926 868.551 L251.33 868.551  Z" fill="#ffffff" fill-rule="evenodd" fill-opacity="1"/>
<polyline clip-path="url(#clip080)" style="stroke:#000000; stroke-linecap:round; stroke-linejoin:round; stroke-width:4; stroke-opacity:1; fill:none" points="251.33,972.231 588.926,972.231 588.926,868.551 251.33,868.551 251.33,972.231 "/>
<polyline clip-path="url(#clip080)" style="stroke:#009af9; stroke-linecap:round; stroke-linejoin:round; stroke-width:4; stroke-opacity:1; fill:none" points="275.484,920.391 420.41,920.391 "/>
<path clip-path="url(#clip080)" d="M470.12 932.74 L470.12 923.458 L462.481 923.458 L462.481 919.615 L474.749 919.615 L474.749 934.453 Q472.041 936.375 468.777 937.37 Q465.513 938.342 461.809 938.342 Q453.708 938.342 449.124 933.62 Q444.564 928.875 444.564 920.426 Q444.564 911.953 449.124 907.231 Q453.708 902.486 461.809 902.486 Q465.189 902.486 468.221 903.319 Q471.277 904.153 473.846 905.773 L473.846 910.75 Q471.254 908.551 468.337 907.44 Q465.421 906.328 462.203 906.328 Q455.86 906.328 452.666 909.87 Q449.495 913.412 449.495 920.426 Q449.495 927.416 452.666 930.958 Q455.86 934.5 462.203 934.5 Q464.68 934.5 466.624 934.083 Q468.569 933.643 470.12 932.74 Z" fill="#000000" fill-rule="nonzero" fill-opacity="1" /><path clip-path="url(#clip080)" d="M487.967 906.953 L487.967 919.94 L493.846 919.94 Q497.11 919.94 498.893 918.25 Q500.675 916.56 500.675 913.435 Q500.675 910.333 498.893 908.643 Q497.11 906.953 493.846 906.953 L487.967 906.953 M483.291 903.111 L493.846 903.111 Q499.657 903.111 502.619 905.75 Q505.606 908.365 505.606 913.435 Q505.606 918.551 502.619 921.166 Q499.657 923.782 493.846 923.782 L487.967 923.782 L487.967 937.671 L483.291 937.671 L483.291 903.111 Z" fill="#000000" fill-rule="nonzero" fill-opacity="1" /><path clip-path="url(#clip080)" d="M532.596 904.245 L532.596 908.805 Q529.934 907.532 527.573 906.907 Q525.212 906.282 523.013 906.282 Q519.193 906.282 517.11 907.764 Q515.05 909.245 515.05 911.977 Q515.05 914.268 516.416 915.449 Q517.805 916.606 521.647 917.324 L524.471 917.902 Q529.703 918.898 532.179 921.421 Q534.679 923.921 534.679 928.134 Q534.679 933.157 531.3 935.75 Q527.943 938.342 521.439 938.342 Q518.985 938.342 516.207 937.787 Q513.453 937.231 510.49 936.143 L510.49 931.328 Q513.337 932.926 516.068 933.736 Q518.8 934.546 521.439 934.546 Q525.443 934.546 527.619 932.972 Q529.795 931.398 529.795 928.481 Q529.795 925.935 528.221 924.5 Q526.67 923.064 523.105 922.347 L520.258 921.791 Q515.027 920.75 512.689 918.527 Q510.351 916.305 510.351 912.347 Q510.351 907.764 513.568 905.125 Q516.809 902.486 522.48 902.486 Q524.911 902.486 527.434 902.926 Q529.957 903.366 532.596 904.245 Z" fill="#000000" fill-rule="nonzero" fill-opacity="1" /><path clip-path="url(#clip080)" d="M562.689 904.245 L562.689 908.805 Q560.027 907.532 557.665 906.907 Q555.304 906.282 553.105 906.282 Q549.286 906.282 547.203 907.764 Q545.142 909.245 545.142 911.977 Q545.142 914.268 546.508 915.449 Q547.897 916.606 551.74 917.324 L554.564 917.902 Q559.795 918.898 562.272 921.421 Q564.772 923.921 564.772 928.134 Q564.772 933.157 561.392 935.75 Q558.036 938.342 551.531 938.342 Q549.078 938.342 546.3 937.787 Q543.545 937.231 540.582 936.143 L540.582 931.328 Q543.429 932.926 546.161 933.736 Q548.892 934.546 551.531 934.546 Q555.536 934.546 557.712 932.972 Q559.888 931.398 559.888 928.481 Q559.888 925.935 558.314 924.5 Q556.763 923.064 553.198 922.347 L550.351 921.791 Q545.119 920.75 542.781 918.527 Q540.443 916.305 540.443 912.347 Q540.443 907.764 543.661 905.125 Q546.902 902.486 552.573 902.486 Q555.003 902.486 557.527 902.926 Q560.05 903.366 562.689 904.245 Z" fill="#000000" fill-rule="nonzero" fill-opacity="1" /></svg>
